<?xml version="1.0" encoding="UTF-8"?>
<svg id="Layer_1" xmlns="http://www.w3.org/2000/svg" width="13.81in" height="16.151in" version="1.1" viewBox="0 0 994.3 1162.9">
  <!-- Generator: Adobe Illustrator 29.4.0, SVG Export Plug-In . SVG Version: 2.1.0 Build 152)  -->
  <defs>
    <style>
      .st0 {
        fill: #d60000;
      }

      .st1 {
        fill: #d60000;
      }

      .st2 {
        fill: #ace3f1;
      }

      .st3 {
        fill: #5aba47;
      }

      .st4, .st5, .st6 {
        fill: #3175a3;
      }

      .st7, .st5 {
        opacity: .5;
      }

      .st6 {
        opacity: .3;
      }
    </style>
  </defs>
  <polygon class="st2" points="687.4 79.4 687.4 24.1 370.2 24.1 352.6 24.1 8 24.1 8 370.1 352.6 370.1 370.2 370.1 690.8 370.1 690.8 313.8 978.2 313.8 978.2 79.4 687.4 79.4"/>
  <g>
    <path class="st3" d="M977.6,68h-269.7c-4.7,0-8.4-3.8-8.4-8.4V20.3c0-4.7-3.8-8.4-8.4-8.4h-335.1c-8,0-9.2,8.5-8.4,14.9,0,4.7,3.8,8.4,8.4,8.4h312.6c4.7,0,8.4,3.8,8.4,8.4v38.5c0,4.7,3.8,8.4,8.4,8.4h292.2c7.5,0,9.3-7.8,8.4-14,0-4.7-3.8-8.4-8.4-8.4h0v-.1Z"/>
    <path d="M977.6,94.5h-292.199c-6.838,0-12.4-5.562-12.4-12.4v-38.5c0-2.426-1.974-4.4-4.4-4.4h-312.6c-6.749,0-12.256-5.42-12.397-12.136-.456-3.872-.558-10.789,3.463-15.344,2.206-2.5,5.295-3.82,8.934-3.82h335.1c6.838,0,12.4,5.562,12.4,12.4v39.3c0,2.426,1.974,4.4,4.4,4.4h273.699v.762c4.79,1.637,8.269,6.127,8.396,11.434.762,5.676-.487,11.022-3.361,14.344-2.242,2.591-5.366,3.961-9.035,3.961ZM356,15.9c-1.73,0-2.478.596-2.936,1.114-1.414,1.602-2,5.248-1.495,9.29l.031.496c0,2.426,1.974,4.4,4.4,4.4h312.6c6.838,0,12.4,5.562,12.4,12.4v38.5c0,2.426,1.974,4.4,4.4,4.4h292.199c1.749,0,2.542-.682,2.985-1.196,1.38-1.594,1.951-4.824,1.457-8.229l-.042-.575c0-2.426-1.974-4.4-4.4-4.4h-4v-.1h-265.699c-6.838,0-12.4-5.562-12.4-12.4V20.3c0-2.426-1.974-4.4-4.4-4.4h-335.1Z"/>
  </g>
  <g>
    <path class="st3" d="M977.6,324.7h-269.7c-4.7,0-8.4,3.8-8.4,8.4v39.3c0,4.7-3.8,8.4-8.4,8.4h-335.1c-8,0-9.2-8.5-8.4-14.9,0-4.7,3.8-8.4,8.4-8.4h312.6c4.7,0,8.4-3.8,8.4-8.4v-38.5c0-4.7,3.8-8.4,8.4-8.4h292.2c7.5,0,9.3,7.8,8.4,14,0,4.7-3.8,8.4-8.4,8.4h0v.1Z"/>
    <path d="M691.1,384.8h-335.1c-3.638,0-6.728-1.321-8.934-3.82-4.021-4.555-3.919-11.472-3.463-15.344.141-6.715,5.648-12.135,12.397-12.135h312.6c2.427,0,4.4-1.974,4.4-4.4v-38.5c0-6.837,5.562-12.4,12.4-12.4h292.199c3.669,0,6.793,1.37,9.035,3.961,2.874,3.322,4.123,8.668,3.361,14.344-.128,5.306-3.606,9.797-8.396,11.434v.762h-273.699c-2.427,0-4.4,1.974-4.4,4.4v39.3c0,6.837-5.563,12.4-12.4,12.4ZM356,361.5c-2.426,0-4.4,1.974-4.4,4.4l-.031.497c-.505,4.042.081,7.688,1.495,9.289.458.519,1.206,1.114,2.936,1.114h335.1c2.427,0,4.4-1.974,4.4-4.4v-39.3c0-6.837,5.562-12.4,12.4-12.4h265.699v-.1h4c2.427,0,4.4-1.974,4.4-4.4l.042-.575c.494-3.405-.077-6.636-1.457-8.229-.443-.514-1.236-1.196-2.985-1.196h-292.199c-2.427,0-4.4,1.974-4.4,4.4v38.5c0,6.837-5.563,12.4-12.4,12.4h-312.6Z"/>
  </g>
  <path class="st5" d="M586.7,109.9c3.8-6.3,13.6-2.5,19.7-3,19.8.4,49.4-11.4,45-35.8-3.2-18-25.9-21.7-26.1-1,3.3,2.8,7.4-.3,11.3,1.3,3.9,2.6-.2,8.6-2.7,10.7-6.6,4.7-16-.9-18.7-7.7-8.2-23.6,22.1-37.1,38.5-21.7,11.3,9.5,11.9,27.9,4.9,40.2-14.2,22.3-46.4,29.9-70.8,23.3-.8-2.2-1.4-3.9-1.1-6.4h0v.1Z"/>
  <path class="st5" d="M587.8,277.9c24.4-6.6,56.7.9,70.8,23.3,7,12.3,6.4,30.6-4.9,40.2-16.4,15.5-46.8,1.9-38.5-21.7,2.7-6.7,12.1-12.3,18.7-7.7,2.5,2.1,6.7,8.1,2.7,10.7-3.9,1.6-8-1.5-11.3,1.3-1.8,8.9,9.2,18.5,17.3,12.4,10.7-6.9,11.8-22.6,4.5-32.3-8.3-11.9-27-16.7-40.7-16.8-7.5,0-24.6,3.8-18.6-9.4Z"/>
  <path class="st5" d="M824,115.1c1.2,1.8,3.4,6,1.8,8.1-4.1,2.7-11.5-9.6-18.8-6-10.9,3.8-8.9,26-24.8,26.8-9.7.5-21.3-13.5-30.4-10.2-12.1,6.2-8.7,31.1-30.4,26.1-4.3-1.5-12.6-3.1-17-10.6-1.4-1.8-2.7-6.9.8-6.6,38.8,21.7,26.6-16.9,45.8-20.8,11.3-1.6,22.2,15.4,33.4,9.9,10.9-5.4,8.2-25.2,23.3-26.4,4,.6,11.7,2.8,16.2,9.7h.1Z"/>
  <path class="st5" d="M947.4,115.1c1.2,1.8,3.4,6,1.8,8.1-4.1,2.7-11.5-9.6-18.8-6-10.9,3.8-8.9,26-24.8,26.8-9.7.5-21.3-13.5-30.4-10.2-12.1,6.2-8.7,31.1-30.4,26.1-4.3-1.5-12.6-3.1-17-10.6-1.4-1.8-2.7-6.9.8-6.6,38.8,21.7,26.6-16.9,45.8-20.8,11.3-1.6,22.2,15.4,33.4,9.9,10.9-5.4,8.2-25.2,23.3-26.4,4,.6,11.7,2.8,16.2,9.7h.1Z"/>
  <path class="st5" d="M807.8,288.8c-15.1-1.2-12.4-21.1-23.3-26.4-11.2-5.5-22.1,11.5-33.4,9.9-19.2-3.9-7-42.5-45.8-20.8-3.5.2-2.2-4.8-.8-6.6,4.4-7.5,12.7-9.1,17-10.6,21.8-5,18.2,19.8,30.4,26.1,9.1,3.3,20.7-10.7,30.4-10.2,17.5.8,13.2,28,28.6,27.3,4.9.6,11.4-9,14.9-6.4,3,9.4-12.8,18-18,17.8h0v-.1Z"/>
  <path class="st5" d="M931.3,288.8c-15.1-1.2-12.4-21.1-23.3-26.4-11.2-5.5-22.1,11.5-33.4,9.9-19.2-3.9-7-42.5-45.8-20.8-3.5.2-2.2-4.8-.8-6.6,4.4-7.5,12.7-9.1,17-10.6,21.8-5,18.2,19.8,30.4,26.1,9.1,3.3,20.7-10.7,30.4-10.2,17.5.8,13.2,28,28.6,27.3,4.9.6,11.4-9,14.9-6.4,3,9.4-12.8,18-18,17.8h0v-.1Z"/>
  <path class="st5" d="M325.6,138.8c-1.1-1.7-2.2-3.7-2.1-6,.1-2,.8-3.1,2-4.3,2.9-1.4,6.6,1.6,9.3,3.2,11.9,7.1,22.6,10.6,35.4,4.3,8.2-4,15.4-10.7,24-13.6,32.8-11,46.6,19,72.2,16.7,19.3-1.7,27.6-21.3,53.9-18.4,8.8,1,26.1,2.5,32.1,11.6,1,1.5,1.3,2.6,1.3,4.6-1,1.8-1.8,2.5-3.6,2.8-5.3,1-12.1-3.7-17.3-5.3-7.1-2.1-14.6-3.3-21.9-2.4-19.4,2.4-29.2,21.1-50.6,19-22.8-2.2-36.5-25.4-61.8-18-15.4,4.5-27,19.7-43.8,18.4-7.1-.6-24.2-5.3-29-12.6h-.1Z"/>
  <path class="st5" d="M329.9,261.5c-1.1-1.7-2.2-3.7-2.1-6,.1-2,.8-3.1,2-4.3,2.9-1.4,6.6,1.6,9.3,3.2,11.9,7.1,22.6,10.6,35.4,4.3,8.2-4,15.4-10.7,24-13.6,32.8-11,46.6,19,72.2,16.7,19.3-1.7,27.6-21.3,53.9-18.4,8.8,1,26.1,2.5,32.1,11.6,1,1.5,1.3,2.6,1.3,4.6-1,1.8-1.8,2.5-3.6,2.8-5.3,1-12.1-3.7-17.3-5.3-7.1-2.1-14.6-3.3-21.9-2.4-19.4,2.4-29.2,21.1-50.6,19-22.8-2.2-36.5-25.4-61.8-18-15.4,4.5-27,19.7-43.8,18.4-7.1-.6-24.2-5.3-29-12.6h-.1Z"/>
  <g>
    <rect class="st4" x="358.748" y="197.641" width="91.6" height="2.5"/>
    <rect class="st4" x="357.448" y="190.741" width="2.5" height="16.4"/>
    <g>
      <path class="st4" d="M448.248,186.241c3.1,5.3,8,9.5,13.2,12.7-5.3,3.2-9.9,7.5-13.2,12.7h-3.1c3.3-5,7.3-9.4,12.2-12.7-4.9-3.3-9-7.8-12.2-12.7h3.2-.1Z"/>
      <path class="st4" d="M440.748,186.241c3.1,5.3,8,9.5,13.2,12.7-5.3,3.2-9.9,7.5-13.2,12.7h-3.1c3.3-5,7.3-9.4,12.2-12.7-4.9-3.3-9-7.8-12.2-12.7h3.2-.1Z"/>
    </g>
    <g>
      <path d="M22.664,175.327h22.583v4.86h-15.121v10.163h11.586v4.86h-11.586v11.193h15.121v4.86h-21.847v-32.942l-.736-2.995Z"/>
      <path d="M54.486,186.142l9.897,15.052c.251.367.492.739.722,1.117.229.378.458.762.687,1.151-.023-.435-.063-.876-.12-1.323-.058-.447-.086-.888-.086-1.323v-14.674h3.814v25.293h-3.711l-11.306-17.251c-.229-.389-.47-.779-.722-1.168-.252-.389-.493-.767-.722-1.134.046.367.091.745.138,1.134.045.39.068.779.068,1.168v17.08h-3.814v-23.025l-.481-2.096h5.636Z"/>
      <path d="M79.022,189.51h-6.976v-3.402h18.97v3.402h-7.079v21.753h-4.915v-21.753Z"/>
      <path d="M93.215,186.108h8.626c1.535,0,2.943.212,4.227.636,1.283.424,2.313,1.134,3.093,2.13.778.997,1.168,2.366,1.168,4.107,0,.962-.252,1.89-.756,2.783-.504.894-1.163,1.656-1.976,2.286-.813.63-1.69,1.06-2.629,1.289l7.698,11.925h-5.361l-6.976-11.203h-1.89v11.203h-4.708v-23.059l-.516-2.096ZM98.438,189.544v7.148h2.2c.893,0,1.695-.108,2.405-.327.71-.217,1.271-.602,1.684-1.151.412-.55.619-1.306.619-2.268,0-.756-.184-1.386-.55-1.89-.367-.503-.848-.881-1.443-1.134-.596-.252-1.249-.378-1.959-.378h-2.956Z"/>
      <path d="M124.487,186.108l8.9,25.155h-5.086l-2.474-7.217h-7.492l-2.509,7.217h-3.986l8.9-25.155h3.746ZM122.082,192.087l-2.577,8.591h5.189l-2.612-8.591Z"/>
      <path d="M156.825,198.72c0,2.429-.493,4.588-1.478,6.478-.985,1.89-2.388,3.374-4.209,4.45-1.821,1.077-3.969,1.615-6.444,1.615h-8.935v-23.059c0-.022-.04-.194-.12-.516-.081-.32-.167-.653-.258-.997-.092-.344-.149-.538-.172-.584h9.52c1.924,0,3.631.304,5.12.911s2.755,1.472,3.797,2.594c1.042,1.123,1.833,2.452,2.372,3.986.538,1.536.808,3.242.808,5.121ZM151.738,198.857c0-1.168-.132-2.308-.395-3.419-.264-1.111-.688-2.114-1.271-3.007-.584-.894-1.34-1.604-2.268-2.131-.928-.527-2.057-.791-3.385-.791h-3.917v18.351h3.986c1.741,0,3.145-.429,4.21-1.289,1.065-.859,1.838-1.976,2.319-3.351.481-1.375.722-2.829.722-4.364Z"/>
      <path d="M170.193,186.108l8.9,25.155h-5.086l-2.474-7.217h-7.492l-2.509,7.217h-3.986l8.9-25.155h3.746ZM167.787,192.087l-2.577,8.591h5.189l-2.612-8.591Z"/>
      <path d="M213.822,198.72c0,2.429-.493,4.588-1.478,6.478-.985,1.89-2.388,3.374-4.209,4.45-1.821,1.077-3.969,1.615-6.444,1.615h-8.935v-23.059c0-.022-.04-.194-.12-.516-.081-.32-.167-.653-.258-.997-.092-.344-.149-.538-.172-.584h9.52c1.924,0,3.631.304,5.12.911s2.755,1.472,3.797,2.594c1.042,1.123,1.833,2.452,2.372,3.986.538,1.536.808,3.242.808,5.121ZM208.735,198.857c0-1.168-.132-2.308-.395-3.419-.264-1.111-.688-2.114-1.271-3.007-.584-.894-1.34-1.604-2.268-2.131-.928-.527-2.057-.791-3.385-.791h-3.917v18.351h3.986c1.741,0,3.145-.429,4.21-1.289,1.065-.859,1.838-1.976,2.319-3.351.481-1.375.722-2.829.722-4.364Z"/>
      <path d="M216.261,186.108h15.808v3.402h-10.584v7.114h8.11v3.402h-8.11v7.835h10.584v3.402h-15.293v-23.059l-.515-2.096Z"/>
      <path d="M257.347,186.108l8.9,25.155h-5.086l-2.474-7.217h-7.492l-2.509,7.217h-3.986l8.9-25.155h3.746ZM254.941,192.087l-2.577,8.591h5.189l-2.612-8.591Z"/>
      <path d="M279.616,185.695c.894,0,1.896.092,3.007.275,1.111.184,2.188.47,3.23.859s1.907.917,2.595,1.581l-2.509,2.818c-.733-.55-1.392-.991-1.976-1.323-.584-.332-1.208-.579-1.873-.739-.665-.16-1.49-.24-2.475-.24-1.421,0-2.618.27-3.591.808-.974.539-1.752,1.266-2.336,2.182-.584.917-1.009,1.954-1.271,3.11-.264,1.157-.396,2.354-.396,3.591,0,1.054.125,2.148.378,3.282.252,1.134.653,2.188,1.203,3.162.55.974,1.266,1.765,2.147,2.372s1.953.911,3.213.911c1.077,0,2.021-.218,2.835-.653.813-.435,1.449-1.048,1.907-1.838s.688-1.735.688-2.835v-2.131h-5.224l.447-3.024h9.554l-.069,6.323c-.023,1.191-.017,2.377.017,3.557.035,1.18.086,2.366.155,3.557h-2.44l-1.168-2.612c-1.123,1.054-2.257,1.811-3.402,2.269s-2.508.687-4.089.687c-1.855,0-3.482-.333-4.88-.997s-2.56-1.575-3.488-2.732c-.928-1.157-1.621-2.509-2.079-4.055-.459-1.546-.688-3.19-.688-4.932,0-1.97.28-3.763.842-5.378.561-1.615,1.38-3.012,2.458-4.192,1.076-1.18,2.394-2.084,3.952-2.715,1.558-.629,3.333-.945,5.327-.945Z"/>
      <path d="M297.794,186.108v16.736c0,1.672.504,3.013,1.512,4.021,1.008,1.009,2.348,1.512,4.021,1.512,1.145,0,2.13-.223,2.955-.67.825-.447,1.461-1.083,1.908-1.907.447-.825.67-1.81.67-2.956v-16.736h3.883v15.602c0,2.406-.436,4.336-1.306,5.791-.871,1.456-2.051,2.509-3.54,3.162-1.489.653-3.173.979-5.052.979-3.185,0-5.63-.859-7.337-2.577-1.707-1.718-2.56-4.169-2.56-7.354v-13.54l-.55-2.062h5.395Z"/>
      <path d="M327.624,186.108l8.9,25.155h-5.086l-2.474-7.217h-7.492l-2.509,7.217h-3.986l8.9-25.155h3.746ZM325.218,192.087l-2.577,8.591h5.189l-2.612-8.591Z"/>
    </g>
  </g>
  <polygon class="st2" points="646.2 436.7 646.2 492.1 355.4 492.1 355.4 498.9 9.1 498.9 9.1 723.1 355.4 723.1 355.4 726.5 642.7 726.5 642.7 782.7 980.9 782.7 980.9 436.7 646.2 436.7"/>
  <g>
    <g>
      <path class="st3" d="M356,480.7h269.7c4.7,0,8.4-3.8,8.4-8.4v-39.4c0-4.7,3.8-8.4,8.4-8.4h335.1c8,0,9.2,8.5,8.4,14.9,0,4.7-3.8,8.4-8.4,8.4h-312.6c-4.7,0-8.4,3.8-8.4,8.4v38.5c0,4.7-3.8,8.4-8.4,8.4h-292.2c-7.5,0-9.3-7.8-8.4-14,0-4.7,3.8-8.4,8.4-8.4h0Z"/>
      <path d="M648.2,507.1h-292.2c-3.668,0-6.792-1.37-9.035-3.96-2.874-3.322-4.123-8.667-3.361-14.344.162-6.697,5.661-12.096,12.396-12.096h269.7c2.426,0,4.399-1.974,4.399-4.4v-39.4c0-6.837,5.562-12.4,12.4-12.4h335.1c3.638,0,6.728,1.321,8.934,3.82,4.021,4.555,3.919,11.472,3.464,15.344-.141,6.716-5.647,12.136-12.397,12.136h-312.6c-2.427,0-4.4,1.974-4.4,4.4v38.5c0,6.837-5.562,12.4-12.399,12.4ZM356,484.7c-2.426,0-4.4,1.974-4.4,4.4l-.042.575c-.494,3.406.077,6.636,1.457,8.23.444.513,1.236,1.195,2.985,1.195h292.2c2.426,0,4.399-1.974,4.399-4.4v-38.5c0-6.837,5.562-12.4,12.4-12.4h312.6c2.427,0,4.4-1.974,4.4-4.4l.031-.496c.505-4.042-.082-7.688-1.496-9.29-.458-.519-1.205-1.114-2.936-1.114h-335.1c-2.427,0-4.4,1.974-4.4,4.4v39.4c0,6.837-5.562,12.4-12.399,12.4h-269.7Z"/>
    </g>
    <g>
      <path class="st3" d="M356,737.4h269.7c4.7,0,8.4,3.8,8.4,8.4v39.3c0,4.7,3.8,8.4,8.4,8.4h335.1c8,0,9.2-8.5,8.4-14.9,0-4.7-3.8-8.4-8.4-8.4h-312.6c-4.7,0-8.4-3.8-8.4-8.4v-38.5c0-4.7-3.8-8.4-8.4-8.4h-292.2c-7.5,0-9.3,7.8-8.4,14,0,4.7,3.8,8.4,8.4,8.4h0v.1Z"/>
      <path d="M977.6,797.5h-335.1c-6.838,0-12.4-5.562-12.4-12.4v-39.3c0-2.426-1.974-4.399-4.399-4.399h-273.7v-.763c-4.79-1.636-8.268-6.127-8.396-11.434-.762-5.676.487-11.021,3.361-14.344,2.242-2.591,5.366-3.96,9.035-3.96h292.2c6.837,0,12.399,5.562,12.399,12.399v38.5c0,2.427,1.974,4.4,4.4,4.4h312.6c6.75,0,12.257,5.42,12.397,12.136.455,3.872.557,10.789-3.464,15.345-2.207,2.498-5.296,3.819-8.934,3.819ZM360,733.4h265.7c6.837,0,12.399,5.562,12.399,12.399v39.3c0,2.427,1.974,4.4,4.4,4.4h335.1c1.73,0,2.478-.596,2.936-1.114,1.414-1.602,2.001-5.248,1.496-9.29l-.031-.496c0-2.426-1.974-4.399-4.4-4.399h-312.6c-6.838,0-12.4-5.562-12.4-12.4v-38.5c0-2.426-1.974-4.399-4.399-4.399h-292.2c-1.749,0-2.541.683-2.985,1.195-1.379,1.594-1.951,4.824-1.457,8.23l.042.574c0,2.426,1.974,4.399,4.4,4.399h4v.101Z"/>
    </g>
  </g>
  <path class="st5" d="M355.9,551.2c36.3-3.1,43.8,16.7,73.1,18.8,30.2,2.1,44.2-17.2,71.9-18.9,42.8-.3,52.8,31.9,104.5,14.1,7.7-2.6,16.9-10.4,25-5.7,1.1,13.2-23.8,16.3-33.3,19.7-45.2,10.9-53.6-12.1-89.7-16.4-23.7-.6-41.4,16.1-64.6,18.4-41.4,4.1-52.8-23.6-86.3-18.1-9.9-.6-27.6,17.5-34,7.7,1.5-13.2,22.8-17,33.3-19.5h.1v-.1Z"/>
  <path class="st5" d="M363,637.2c22.1-1.3,37.4,13.8,57.6,18.4,33.2,7.4,51.3-15.8,81.3-18,38.4-.6,53.1,29.3,95.5,16.6,8.3-1.4,20.7-10,27.5-2.5-3.2,14.8-31.8,14.4-43.9,16.2-34.6,2.9-45.5-16.7-70.9-18.4-33.7-2.3-51.8,27.7-95,16.7-30.1-11.1-45.1-26.1-78.1-9.3-3.5,1.6-8.4,4.6-12.2,3.2-12.6-15.1,29.3-22.2,38.3-22.9h-.1Z"/>
  <path class="st5" d="M647.3,684.1c25.1-3.6,56.2,7.9,67.5,31.8,5.4,13,2.6,31.2-9.8,39.3-18.2,13.3-46.6-3.8-35.6-26.2,3.5-6.4,13.5-10.8,19.5-5.3,2.2,2.4,5.6,8.9,1.4,11-4,1.1-7.8-2.5-11.4-.1-2.8,8.6,6.9,19.5,15.6,14.4,11.5-5.5,14.5-21,8.4-31.5-6.8-12.8-24.7-19.8-38.3-21.7-7.4-.9-24.9.7-17.3-11.6h0v-.1Z"/>
  <path class="st5" d="M635.9,524.9c3.8-6.3,13.6-2.5,19.7-3,19.8.4,49.4-11.4,45-35.8-3.2-18-25.9-21.7-26.1-1,3.3,2.8,7.4-.3,11.3,1.3,3.9,2.6-.2,8.6-2.7,10.7-6.6,4.7-16-.9-18.7-7.7-8.2-23.6,22.1-37.1,38.5-21.7,11.3,9.5,11.9,27.9,4.9,40.2-14.2,22.3-46.4,29.9-70.8,23.3-.8-2.2-1.4-3.9-1.1-6.4h0v.1Z"/>
  <path class="st5" d="M773.1,458.8c100.7-24.8,124.2,159.9-87.4,117.2-5.3-13.7,28.1-4,34.8-4.5,45.1,5.2,124.8-5.5,116.5-66.8-2.6-17.1-14.7-31.7-31.4-36.5-16.1-4.8-36.7-1.5-47,12.8-9.8,14.6-1.4,38,16.8,40.4,10.5,2.4,25.4-4.2,22.1-16.9-1.2-4-6.8-5-10.1-7-4.4-6.9,6.1-8.7,10.7-6,16,7.4,10.2,33.3-5.7,37.4-49.2,16.7-66.8-55.9-19.3-70.1h0Z"/>
  <path class="st5" d="M748.4,742.5c-8.5-17.2-1.1-40.8,16.4-49,19.7-9.4,50.7,4.4,41,29.2-1.5,8.8-23.8,14.2-18.4,1.8,3.3-1.9,8.9-2.9,10.1-7,3.7-17.3-20.6-21.3-31.6-13.2-6.3,4.1-9.3,9.6-10.8,16.8-5.3,21.4,17.5,35.6,36.5,34.7,7.1,0,14.1-1.6,20.5-4.7,26-11.7,33.3-48.3,16.8-70.6-25.1-31.3-71.5-32.7-108.4-30.1-6.2.5-29.8,4.7-34,1.4-1.9-1.4-1.8-4-.8-5.9,42.9-10,110.7-11.8,145.3,22.2,36.6,35,8.7,100.9-42.2,97.8-16.3-.8-33.1-8.2-40.4-23.5h0v.1Z"/>
  <g class="st7">
    <path class="st4" d="M962.3,475.3c23,45.9-41.3,79-79.8,70.1-3.2-.8-4.9-3.7-3.9-6.8,10.8-8.9,30.8.8,50.2-10.7,25.2-10.8,41.6-45.4,9.6-58.7-10.3-4.4-24.9,8.8-10.6,14.4,5.8,0,10.6-4.9,16.9-2.9,3.6,4.3-3.7,11.2-7.5,13.3-15,6.9-31.1-11.6-24.6-26,10.8-20,41.2-10,49.8,7.4h-.1v-.1Z"/>
    <path class="st4" d="M937.4,762.3c-26.3,4.5-37.1-26.2-12.6-37.2,8.8-3.8,18.6,2.1,21,11-.2,1.5,0,1.7-1.1,2.6-6.2,1.9-11.1-2.9-16.9-2.9-14.3,5.6.4,18.8,10.6,14.4,32-13.3,15.5-47.9-9.6-58.7-14.7-11.2-56.7-1-49.7-15.3,26.7-12.4,78,8.2,86.3,37.8,6.7,20.9-6.5,44-28,48.3h0Z"/>
  </g>
  <g>
    <rect class="st4" x="356.196" y="613.857" width="91.6" height="2.5"/>
    <rect class="st4" x="354.896" y="606.957" width="2.5" height="16.4"/>
    <g>
      <path class="st4" d="M445.696,602.457c3.1,5.3,8,9.5,13.2,12.7-5.3,3.2-9.9,7.5-13.2,12.7h-3.1c3.3-5,7.3-9.4,12.2-12.7-4.9-3.3-9-7.8-12.2-12.7h3.2-.1Z"/>
      <path class="st4" d="M438.196,602.457c3.1,5.3,8,9.5,13.2,12.7-5.3,3.2-9.9,7.5-13.2,12.7h-3.1c3.3-5,7.3-9.4,12.2-12.7-4.9-3.3-9-7.8-12.2-12.7h3.2-.1Z"/>
    </g>
    <g>
      <path d="M20.111,591.543h22.583v4.86h-15.121v10.163h11.586v4.86h-11.586v11.193h15.121v4.86h-21.847v-32.942l-.736-2.995Z"/>
      <path d="M51.933,602.358l9.897,15.052c.251.367.492.739.722,1.117.229.378.458.762.687,1.151-.023-.435-.063-.876-.12-1.323-.058-.447-.086-.888-.086-1.323v-14.674h3.814v25.293h-3.711l-11.306-17.251c-.229-.389-.47-.779-.722-1.168-.252-.389-.493-.767-.722-1.134.046.367.091.745.138,1.134.045.39.068.779.068,1.168v17.08h-3.814v-23.025l-.481-2.096h5.636Z"/>
      <path d="M76.47,605.726h-6.976v-3.402h18.97v3.402h-7.079v21.753h-4.915v-21.753Z"/>
      <path d="M90.662,602.324h8.626c1.535,0,2.943.212,4.227.636,1.283.424,2.313,1.134,3.093,2.13.778.997,1.168,2.366,1.168,4.107,0,.962-.252,1.89-.756,2.783-.504.894-1.163,1.656-1.976,2.286-.813.63-1.69,1.06-2.629,1.289l7.698,11.925h-5.361l-6.976-11.203h-1.89v11.203h-4.708v-23.059l-.516-2.096ZM95.886,605.761v7.148h2.2c.893,0,1.695-.108,2.405-.327.71-.217,1.271-.602,1.684-1.151.412-.55.619-1.306.619-2.268,0-.756-.184-1.386-.55-1.89-.367-.503-.848-.881-1.443-1.134-.596-.252-1.249-.378-1.959-.378h-2.956Z"/>
      <path d="M121.935,602.324l8.9,25.155h-5.086l-2.474-7.217h-7.492l-2.509,7.217h-3.986l8.9-25.155h3.746ZM119.529,608.304l-2.577,8.591h5.189l-2.612-8.591Z"/>
      <path d="M154.272,614.936c0,2.429-.493,4.588-1.478,6.478-.985,1.89-2.388,3.374-4.209,4.45-1.821,1.077-3.969,1.615-6.444,1.615h-8.935v-23.059c0-.022-.04-.194-.12-.516-.081-.32-.167-.653-.258-.997-.092-.344-.149-.538-.172-.584h9.52c1.924,0,3.631.304,5.12.911s2.755,1.472,3.797,2.594c1.042,1.123,1.833,2.452,2.372,3.986.538,1.536.808,3.242.808,5.121ZM149.186,615.074c0-1.168-.132-2.308-.395-3.419-.264-1.111-.688-2.114-1.271-3.007-.584-.894-1.34-1.604-2.268-2.131-.928-.527-2.057-.791-3.385-.791h-3.917v18.351h3.986c1.741,0,3.145-.429,4.21-1.289,1.065-.859,1.838-1.976,2.319-3.351.481-1.375.722-2.829.722-4.364Z"/>
      <path d="M167.64,602.324l8.9,25.155h-5.086l-2.474-7.217h-7.492l-2.509,7.217h-3.986l8.9-25.155h3.746ZM165.234,608.304l-2.577,8.591h5.189l-2.612-8.591Z"/>
      <path d="M211.269,614.936c0,2.429-.493,4.588-1.478,6.478-.985,1.89-2.388,3.374-4.209,4.45-1.821,1.077-3.969,1.615-6.444,1.615h-8.935v-23.059c0-.022-.04-.194-.12-.516-.081-.32-.167-.653-.258-.997-.092-.344-.149-.538-.172-.584h9.52c1.924,0,3.631.304,5.12.911s2.755,1.472,3.797,2.594c1.042,1.123,1.833,2.452,2.372,3.986.538,1.536.808,3.242.808,5.121ZM206.183,615.074c0-1.168-.132-2.308-.395-3.419-.264-1.111-.688-2.114-1.271-3.007-.584-.894-1.34-1.604-2.268-2.131-.928-.527-2.057-.791-3.385-.791h-3.917v18.351h3.986c1.741,0,3.145-.429,4.21-1.289,1.065-.859,1.838-1.976,2.319-3.351.481-1.375.722-2.829.722-4.364Z"/>
      <path d="M213.708,602.324h15.808v3.402h-10.584v7.114h8.11v3.402h-8.11v7.835h10.584v3.402h-15.293v-23.059l-.515-2.096Z"/>
      <path d="M254.794,602.324l8.9,25.155h-5.086l-2.474-7.217h-7.492l-2.509,7.217h-3.986l8.9-25.155h3.746ZM252.389,608.304l-2.577,8.591h5.189l-2.612-8.591Z"/>
      <path d="M277.063,601.911c.894,0,1.896.092,3.007.275,1.111.184,2.188.47,3.23.859s1.907.917,2.595,1.581l-2.509,2.818c-.733-.55-1.392-.991-1.976-1.323-.584-.332-1.208-.579-1.873-.739-.665-.16-1.49-.24-2.475-.24-1.421,0-2.618.27-3.591.808-.974.539-1.752,1.266-2.336,2.182-.584.917-1.009,1.954-1.271,3.11-.264,1.157-.396,2.354-.396,3.591,0,1.054.125,2.148.378,3.282.252,1.134.653,2.188,1.203,3.162.55.974,1.266,1.765,2.147,2.372s1.953.911,3.213.911c1.077,0,2.021-.218,2.835-.653.813-.435,1.449-1.048,1.907-1.838s.688-1.735.688-2.835v-2.131h-5.224l.447-3.024h9.554l-.069,6.323c-.023,1.191-.017,2.377.017,3.557.035,1.18.086,2.366.155,3.557h-2.44l-1.168-2.612c-1.123,1.054-2.257,1.811-3.402,2.269s-2.508.687-4.089.687c-1.855,0-3.482-.333-4.88-.997s-2.56-1.575-3.488-2.732c-.928-1.157-1.621-2.509-2.079-4.055-.459-1.546-.688-3.19-.688-4.932,0-1.97.28-3.763.842-5.378.561-1.615,1.38-3.012,2.458-4.192,1.076-1.18,2.394-2.084,3.952-2.715,1.558-.629,3.333-.945,5.327-.945Z"/>
      <path d="M295.242,602.324v16.736c0,1.672.504,3.013,1.512,4.021,1.008,1.009,2.348,1.512,4.021,1.512,1.145,0,2.13-.223,2.955-.67.825-.447,1.461-1.083,1.908-1.907.447-.825.67-1.81.67-2.956v-16.736h3.883v15.602c0,2.406-.436,4.336-1.306,5.791-.871,1.456-2.051,2.509-3.54,3.162-1.489.653-3.173.979-5.052.979-3.185,0-5.63-.859-7.337-2.577-1.707-1.718-2.56-4.169-2.56-7.354v-13.54l-.55-2.062h5.395Z"/>
      <path d="M325.071,602.324l8.9,25.155h-5.086l-2.474-7.217h-7.492l-2.509,7.217h-3.986l8.9-25.155h3.746ZM322.665,608.304l-2.577,8.591h5.189l-2.612-8.591Z"/>
    </g>
  </g>
  <rect class="st2" x="9.1" y="848.9" width="973.5" height="290.4"/>
  <g>
    <rect class="st3" x="343.8" y="1127.7" width="638.8" height="23.3"/>
    <path d="M982.6,1155H343.8c-2.209,0-4-1.791-4-4v-23.3c0-2.209,1.791-4,4-4h638.8c2.209,0,4,1.791,4,4v23.3c0,2.209-1.791,4-4,4ZM347.8,1147h630.8v-15.3H347.8v15.3Z"/>
  </g>
  <g>
    <rect class="st3" x="343.8" y="837.3" width="638.8" height="23.3"/>
    <path d="M982.6,864.6H343.8c-2.209,0-4-1.791-4-4v-23.3c0-2.209,1.791-4,4-4h638.8c2.209,0,4,1.791,4,4v23.3c0,2.209-1.791,4-4,4ZM347.8,856.6h630.8v-15.3H347.8v15.3Z"/>
  </g>
  <path class="st5" d="M454.3,907.3c44.4-1.3,75.2,13.8,115.8,18.4,66.8,7.4,103.1-15.8,163.5-18,77.2-.6,106.8,29.3,192,16.6,16.7-1.4,41.6-10,55.3-2.5-6.4,14.8-63.9,14.4-88.3,16.2-69.6,2.9-91.5-16.7-142.6-18.4-67.8-2.3-104.2,27.7-191,16.7-60.5-11.1-90.7-26.1-157-9.3-7,1.6-16.9,4.6-24.5,3.2-25.3-15.1,58.9-22.2,77-22.9h-.2Z"/>
  <path class="st5" d="M544.075,978.4c36.831-1.3,62.38,13.8,96.058,18.4,55.412,7.4,85.523-15.8,135.627-18,64.039-.6,88.593,29.3,159.268,16.6,13.853-1.4,34.508-10,45.872-2.5-5.309,14.8-53.006,14.4-73.247,16.2-57.735,2.9-75.901-16.7-118.29-18.4-56.241-2.3-86.436,27.7-158.438,16.7-50.186-11.1-75.237-26.1-130.235-9.3-5.807,1.6-14.019,4.6-20.323,3.2-20.987-15.1,48.859-22.2,63.873-22.9h-.166Z"/>
  <path class="st6" d="M454.3,1049.5c44.4-1.3,75.2,13.8,115.8,18.4,66.8,7.4,103.1-15.8,163.5-18,77.2-.6,106.8,29.3,192,16.6,16.7-1.4,41.6-10,55.3-2.5-6.4,14.8-63.9,14.4-88.3,16.2-69.6,2.9-91.5-16.7-142.6-18.4-67.8-2.3-104.2,27.7-191,16.7-60.5-11.1-90.7-26.1-157-9.3-7,1.6-16.9,4.6-24.5,3.2-25.3-15.1,58.9-22.2,77-22.9h-.2Z"/>
  <g>
    <rect class="st0" x="423.969" y="269.028" width="330.531" height="6" transform="translate(171.144 768.413) rotate(-74.675)"/>
    <path class="st0" d="M642.475,77.713c1.595,18.104,6.412,41.344,13.969,57.002l-24.794-17.495-30.243,2.416c14.482-9.619,30.473-27.158,41.067-41.922Z"/>
  </g>
  <g>
    <rect class="st0" x="531.345" y="393.577" width="99.601" height="6" transform="translate(-111.552 519.759) rotate(-44.393)"/>
    <path class="st0" d="M642.6,336.4c-7.751,16.438-15.309,38.937-16.678,56.269l-12.59-27.609-27.335-13.163c17.357-1.005,40.009-8.089,56.602-15.497Z"/>
  </g>
  <g>
    <rect class="st0" x="587.175" y="400.032" width="6" height="94.796" transform="translate(-30.311 851.778) rotate(-70.258)"/>
    <path class="st0" d="M668.869,475.672c-18.173.195-41.715,3.207-57.909,9.535l19.354-23.371-.078-30.339c8.475,15.181,24.729,32.475,38.633,44.176Z"/>
  </g>
  <g>
    <path class="st0" d="M657.559,711.898l-114.771-279.339c-.039-.644-.079-1.289-.118-1.933l5.669-.347c38.257,93.113,76.513,186.227,114.77,279.34l-5.55,2.279Z"/>
    <path class="st0" d="M674.095,744.253c-12.323-13.358-30.335-28.813-45.884-36.592l30.317-1.298,22.466-20.389c-5.588,16.463-7.532,40.118-6.899,58.279Z"/>
  </g>
  <g>
    <path class="st1" d="M54.356,454.437c-5.018,0-9.416-.822-13.192-2.465-3.778-1.644-6.936-3.964-9.473-6.964-2.539-2.998-4.441-6.517-5.709-10.554-1.269-4.036-1.903-8.42-1.903-13.149,0-4.613.692-8.88,2.076-12.803,1.384-3.921,3.388-7.354,6.012-10.294,2.624-2.941,5.81-5.234,9.559-6.877,3.749-1.644,7.987-2.465,12.717-2.465,2.076,0,4.397.216,6.964.648,2.565.433,5.061,1.096,7.483,1.99,2.422.895,4.44,2.063,6.055,3.504l-6.229,7.958c-1.038-1.211-2.335-2.249-3.893-3.114s-3.201-1.514-4.931-1.946c-1.73-.433-3.403-.649-5.017-.649-3.346,0-6.172.679-8.478,2.033-2.307,1.356-4.152,3.188-5.536,5.493-1.384,2.308-2.379,4.859-2.985,7.656-.605,2.798-.908,5.666-.908,8.607,0,5.19.735,9.646,2.206,13.365s3.59,6.575,6.358,8.564c2.768,1.99,6.083,2.985,9.948,2.985,2.422,0,4.988-.332,7.699-.995,2.71-.662,5.564-1.773,8.564-3.331l3.547,6.402c-1.673,1.096-3.317,2.048-4.931,2.854-1.615.809-3.259,1.471-4.931,1.99-1.673.519-3.417.908-5.234,1.168-1.816.259-3.763.389-5.839.389Z"/>
    <path class="st1" d="M98.431,454.064c-3.391,0-6.389-.585-8.992-1.756-2.604-1.17-4.794-2.795-6.57-4.875-1.777-2.079-3.119-4.511-4.027-7.297-.909-2.785-1.363-5.772-1.363-8.962,0-3.229.454-6.227,1.363-8.993.908-2.765,2.26-5.177,4.057-7.236,1.796-2.059,3.997-3.664,6.601-4.814,2.604-1.15,5.601-1.726,8.992-1.726,3.472,0,6.53.565,9.174,1.695,2.644,1.131,4.864,2.725,6.661,4.784,1.796,2.059,3.159,4.481,4.088,7.267.928,2.786,1.393,5.834,1.393,9.144,0,3.27-.484,6.288-1.453,9.053-.969,2.766-2.372,5.178-4.209,7.236-1.837,2.059-4.078,3.654-6.721,4.784-2.645,1.129-5.642,1.695-8.993,1.695ZM98.673,448.312c2.341,0,4.289-.494,5.844-1.484,1.554-.989,2.795-2.301,3.724-3.936.928-1.635,1.594-3.441,1.998-5.419.403-1.978.605-3.956.605-5.935s-.192-3.986-.575-6.025c-.384-2.038-1.04-3.915-1.968-5.631-.929-1.715-2.19-3.098-3.785-4.148-1.595-1.049-3.583-1.575-5.965-1.575-2.342,0-4.29.495-5.844,1.484-1.554.99-2.796,2.312-3.724,3.966-.929,1.656-1.595,3.472-1.998,5.45-.404,1.979-.605,3.936-.605,5.874,0,1.979.202,3.987.605,6.025.403,2.039,1.069,3.917,1.998,5.632.928,1.716,2.18,3.099,3.755,4.148,1.574,1.05,3.552,1.575,5.934,1.575Z"/>
    <path class="st1" d="M134.038,409.133l17.439,26.523c.444.646.868,1.302,1.272,1.968.403.666.807,1.342,1.211,2.028-.041-.766-.112-1.544-.212-2.331-.101-.788-.151-1.564-.151-2.332v-25.857h6.722v44.568h-6.54l-19.922-30.398c-.404-.686-.828-1.372-1.272-2.059-.445-.686-.869-1.352-1.271-1.998.081.646.161,1.312.242,1.998.081.687.121,1.373.121,2.059v30.096h-6.722v-40.572l-.848-3.694h9.931Z"/>
    <path class="st1" d="M177.273,415.067h-12.293v-5.995h33.426v5.995h-12.474v38.332h-8.659v-38.332Z"/>
    <path class="st1" d="M202.282,409.072h15.199c2.704,0,5.187.374,7.448,1.12,2.26.748,4.077,1.999,5.45,3.754,1.372,1.756,2.059,4.169,2.059,7.236,0,1.696-.445,3.331-1.332,4.905-.889,1.575-2.049,2.917-3.482,4.027-1.434,1.111-2.978,1.868-4.632,2.271l13.564,21.013h-9.446l-12.293-19.741h-3.331v19.741h-8.296v-40.632l-.908-3.694ZM211.486,415.127v12.596h3.875c1.575,0,2.987-.191,4.239-.575,1.25-.383,2.24-1.06,2.967-2.029.727-.969,1.09-2.301,1.09-3.997,0-1.332-.324-2.442-.969-3.331-.646-.887-1.494-1.554-2.543-1.998-1.05-.444-2.201-.667-3.452-.667h-5.208Z"/>
    <path class="st1" d="M257.386,409.072l15.684,44.326h-8.962l-4.36-12.716h-13.201l-4.42,12.716h-7.024l15.684-44.326h6.601ZM253.147,419.609l-4.542,15.139h9.144l-4.602-15.139Z"/>
    <path class="st1" d="M296.175,409.072h14.049c2.946,0,5.631.415,8.054,1.241,2.422.828,4.369,2.201,5.844,4.118,1.473,1.918,2.21,4.552,2.21,7.902,0,3.069-.757,5.582-2.271,7.54-1.514,1.958-3.493,3.401-5.935,4.33-2.443.929-5.037,1.393-7.781,1.393h-4.966v17.803h-8.296v-40.632l-.908-3.694ZM305.44,415.067v14.654h5.087c2.26,0,3.986-.696,5.177-2.089,1.19-1.393,1.787-3.158,1.787-5.299,0-2.22-.575-3.986-1.726-5.298-1.15-1.312-2.876-1.968-5.177-1.968h-5.147Z"/>
    <path class="st1" d="M330.994,409.072h15.199c2.704,0,5.187.374,7.448,1.12,2.26.748,4.077,1.999,5.45,3.754,1.372,1.756,2.059,4.169,2.059,7.236,0,1.696-.445,3.331-1.332,4.905-.889,1.575-2.049,2.917-3.482,4.027-1.434,1.111-2.978,1.868-4.632,2.271l13.564,21.013h-9.446l-12.293-19.741h-3.331v19.741h-8.296v-40.632l-.908-3.694ZM340.198,415.127v12.596h3.875c1.575,0,2.987-.191,4.239-.575,1.25-.383,2.24-1.06,2.967-2.029.727-.969,1.09-2.301,1.09-3.997,0-1.332-.324-2.442-.969-3.331-.646-.887-1.494-1.554-2.543-1.998-1.05-.444-2.201-.667-3.452-.667h-5.208Z"/>
    <path class="st1" d="M366.842,409.072h27.855v5.995h-18.651v12.535h14.291v5.995h-14.291v13.806h18.651v5.995h-26.947v-40.632l-.908-3.694Z"/>
    <path class="st1" d="M413.772,408.346c2.26,0,4.471.313,6.63.938,2.159.626,4.107,1.524,5.844,2.695l-4.178,5.208c-1.09-.969-2.402-1.715-3.936-2.241-1.535-.524-3.008-.787-4.42-.787-1.575,0-3.008.415-4.3,1.242-1.292.828-1.938,2.11-1.938,3.845,0,1.171.292,2.18.878,3.027.585.848,1.372,1.585,2.362,2.21.989.626,2.089,1.241,3.3,1.847,1.413.687,2.876,1.393,4.39,2.119,1.514.727,2.916,1.605,4.208,2.634,1.292,1.029,2.341,2.292,3.149,3.785.807,1.494,1.211,3.331,1.211,5.51,0,2.948-.727,5.45-2.18,7.509-1.454,2.059-3.361,3.614-5.723,4.663s-4.916,1.574-7.66,1.574c-2.463,0-4.916-.272-7.357-.817-2.443-.545-4.734-1.443-6.873-2.695l2.846-6.722c1.413,1.292,3.047,2.353,4.905,3.179,1.856.828,3.754,1.242,5.692,1.242,1.292,0,2.502-.242,3.633-.727,1.129-.484,2.059-1.201,2.786-2.149.727-.948,1.09-2.129,1.09-3.542,0-1.454-.404-2.654-1.211-3.603-.808-.948-1.857-1.787-3.148-2.513-1.292-.727-2.686-1.433-4.179-2.119-1.332-.606-2.645-1.261-3.936-1.968-1.292-.706-2.463-1.523-3.512-2.453-1.05-.928-1.898-2.068-2.543-3.421-.646-1.352-.969-2.957-.969-4.814,0-2.946.727-5.349,2.18-7.206,1.453-1.856,3.331-3.229,5.632-4.118,2.301-.888,4.743-1.332,7.327-1.332Z"/>
    <path class="st1" d="M431.332,409.072h9.204v44.326h-8.356v-40.632c0-.04-.071-.343-.212-.908-.142-.565-.272-1.151-.394-1.756s-.203-.948-.242-1.029Z"/>
    <path class="st1" d="M466.514,454.064c-3.391,0-6.389-.585-8.992-1.756-2.604-1.17-4.794-2.795-6.57-4.875-1.777-2.079-3.119-4.511-4.027-7.297-.909-2.785-1.363-5.772-1.363-8.962,0-3.229.454-6.227,1.363-8.993.908-2.765,2.26-5.177,4.057-7.236,1.796-2.059,3.997-3.664,6.601-4.814,2.604-1.15,5.601-1.726,8.992-1.726,3.472,0,6.53.565,9.174,1.695,2.644,1.131,4.864,2.725,6.661,4.784,1.796,2.059,3.159,4.481,4.088,7.267.928,2.786,1.393,5.834,1.393,9.144,0,3.27-.484,6.288-1.453,9.053-.969,2.766-2.372,5.178-4.209,7.236-1.837,2.059-4.078,3.654-6.721,4.784-2.645,1.129-5.642,1.695-8.993,1.695ZM466.756,448.312c2.341,0,4.289-.494,5.844-1.484,1.554-.989,2.795-2.301,3.724-3.936.928-1.635,1.594-3.441,1.998-5.419.403-1.978.605-3.956.605-5.935s-.192-3.986-.575-6.025c-.384-2.038-1.04-3.915-1.968-5.631-.929-1.715-2.19-3.098-3.785-4.148-1.595-1.049-3.583-1.575-5.965-1.575-2.342,0-4.29.495-5.844,1.484-1.554.99-2.796,2.312-3.724,3.966-.929,1.656-1.595,3.472-1.998,5.45-.404,1.979-.605,3.936-.605,5.874,0,1.979.202,3.987.605,6.025.403,2.039,1.069,3.917,1.998,5.632.928,1.716,2.18,3.099,3.755,4.148,1.574,1.05,3.552,1.575,5.934,1.575ZM470.208,397.506h8.841l-9.144,8.72h-6.298l6.601-8.72Z"/>
    <path class="st1" d="M502.121,409.133l17.439,26.523c.443.646.867,1.302,1.271,1.968.402.666.807,1.342,1.211,2.028-.041-.766-.111-1.544-.211-2.331-.102-.788-.152-1.564-.152-2.332v-25.857h6.721v44.568h-6.539l-19.922-30.398c-.404-.686-.828-1.372-1.271-2.059-.445-.686-.869-1.352-1.273-1.998.082.646.162,1.312.242,1.998.082.687.121,1.373.121,2.059v30.096h-6.721v-40.572l-.848-3.694h9.932Z"/>
  </g>
  <g>
    <path class="st1" d="M286.693,1113.552c-5.018,0-9.416-.822-13.193-2.466s-6.936-3.965-9.473-6.964c-2.538-2.998-4.441-6.517-5.71-10.555-1.269-4.036-1.903-8.42-1.903-13.149,0-4.613.692-8.881,2.077-12.804,1.384-3.921,3.387-7.353,6.012-10.294,2.624-2.941,5.81-5.234,9.56-6.878,3.748-1.644,7.987-2.466,12.717-2.466,2.076,0,4.397.217,6.964.649s5.062,1.096,7.483,1.989c2.423.896,4.44,2.063,6.056,3.504l-6.229,7.959c-1.038-1.211-2.336-2.249-3.893-3.114-1.558-.865-3.201-1.514-4.932-1.946s-3.403-.649-5.018-.649c-3.346,0-6.172.679-8.478,2.033-2.308,1.355-4.152,3.188-5.537,5.493-1.384,2.308-2.379,4.859-2.984,7.656-.605,2.798-.908,5.667-.908,8.607,0,5.191.735,9.646,2.206,13.366s3.59,6.575,6.358,8.564c2.769,1.99,6.084,2.984,9.948,2.984,2.423,0,4.988-.331,7.699-.994s5.565-1.773,8.564-3.331l3.548,6.401c-1.674,1.097-3.317,2.048-4.932,2.855-1.615.808-3.259,1.471-4.931,1.989-1.674.52-3.417.908-5.234,1.168-1.816.26-3.763.39-5.839.39Z"/>
    <path class="st1" d="M330.77,1113.18c-3.392,0-6.39-.586-8.993-1.756-2.604-1.171-4.794-2.796-6.57-4.875-1.777-2.079-3.119-4.512-4.027-7.298-.908-2.785-1.362-5.772-1.362-8.962,0-3.229.454-6.227,1.362-8.993.908-2.765,2.261-5.177,4.058-7.236,1.796-2.059,3.997-3.663,6.601-4.814,2.604-1.15,5.602-1.726,8.993-1.726,3.471,0,6.529.565,9.174,1.695,2.644,1.131,4.864,2.726,6.661,4.784,1.796,2.06,3.158,4.481,4.088,7.267.928,2.786,1.393,5.835,1.393,9.145,0,3.271-.484,6.288-1.453,9.054s-2.372,5.177-4.209,7.236c-1.837,2.059-4.078,3.654-6.722,4.784-2.645,1.129-5.643,1.695-8.992,1.695ZM331.012,1107.427c2.341,0,4.289-.494,5.844-1.483,1.554-.989,2.795-2.302,3.724-3.937s1.595-3.441,1.999-5.42c.402-1.978.605-3.956.605-5.935s-.192-3.986-.575-6.025c-.385-2.038-1.04-3.915-1.969-5.632-.929-1.716-2.19-3.098-3.784-4.148-1.596-1.049-3.584-1.574-5.965-1.574-2.343,0-4.29.495-5.844,1.483-1.555.99-2.797,2.312-3.725,3.967-.93,1.656-1.596,3.473-1.998,5.45-.404,1.979-.606,3.937-.606,5.874,0,1.979.202,3.987.606,6.025.402,2.039,1.068,3.916,1.998,5.632.928,1.717,2.18,3.099,3.755,4.148,1.574,1.05,3.552,1.574,5.935,1.574Z"/>
    <path class="st1" d="M368.133,1068.186l9.447,25.435c.443,1.211.787,2.422,1.029,3.633s.484,2.443.727,3.694c.323-1.292.575-2.503.757-3.634.182-1.13.475-2.28.878-3.451l9.266-25.677h10.658v44.268h-8.175v-30.036c0-.728.039-1.463.121-2.211.08-.746.141-1.463.182-2.149-.242.727-.476,1.453-.697,2.18s-.475,1.453-.757,2.181l-10.84,30.097h-4.48l-11.143-30.097c-.283-.728-.536-1.454-.757-2.181-.223-.727-.454-1.453-.696-2.18.039.687.1,1.403.182,2.149.08.748.121,1.483.121,2.211v30.036h-6.602v-40.573l-.848-3.694h11.627Z"/>
    <path class="st1" d="M437.471,1078.541c0,1.736-.404,3.3-1.211,4.693-.809,1.393-1.898,2.533-3.271,3.421-1.373.889-2.887,1.454-4.542,1.696,1.978.323,3.805,1.02,5.48,2.089,1.675,1.07,3.028,2.433,4.058,4.088s1.544,3.553,1.544,5.692c0,2.261-.454,4.178-1.362,5.753-.908,1.574-2.13,2.846-3.664,3.814s-3.25,1.666-5.146,2.09c-1.898.424-3.815.636-5.753.636h-15.503v-40.634c0-.04-.071-.343-.212-.908-.142-.565-.272-1.151-.394-1.757s-.203-.948-.242-1.029h15.744c1.735,0,3.462.151,5.178.454s3.271.828,4.663,1.575,2.514,1.796,3.361,3.148c.848,1.354,1.271,3.079,1.271,5.178ZM428.689,1079.691c0-1.291-.263-2.341-.787-3.148s-1.252-1.402-2.18-1.787c-.93-.383-1.998-.575-3.21-.575h-6.056v11.324h6.237c1.13,0,2.15-.242,3.059-.727s1.625-1.16,2.149-2.028.787-1.887.787-3.059ZM430.749,1099.251c0-1.816-.465-3.3-1.393-4.45-.93-1.15-2.12-1.988-3.573-2.514-1.453-.523-2.988-.787-4.603-.787h-4.724v15.019h6.602c1.492,0,2.815-.282,3.966-.848s2.06-1.394,2.726-2.483.999-2.401.999-3.937Z"/>
    <path class="st1" d="M444.374,1068.186h9.204v44.328h-8.356v-40.634c0-.04-.071-.343-.212-.908-.142-.565-.272-1.151-.394-1.757s-.203-.948-.242-1.029Z"/>
    <path class="st1" d="M470.534,1068.246l17.44,26.524c.443.646.867,1.302,1.271,1.968.403.666.808,1.343,1.211,2.028-.04-.766-.111-1.544-.212-2.331s-.151-1.564-.151-2.331v-25.858h6.722v44.57h-6.54l-19.923-30.399c-.404-.687-.828-1.372-1.271-2.06-.445-.686-.869-1.352-1.271-1.998.08.646.16,1.312.242,1.998.08.688.121,1.373.121,2.06v30.097h-6.723v-40.573l-.848-3.694h9.932Z"/>
    <path class="st1" d="M523.097,1068.186l15.685,44.328h-8.963l-4.36-12.717h-13.201l-4.421,12.717h-7.024l15.685-44.328h6.601ZM518.857,1078.723l-4.541,15.14h9.144l-4.603-15.14Z"/>
    <path class="st1" d="M560.037,1113.24c-3.513,0-6.592-.575-9.235-1.726-2.645-1.151-4.854-2.775-6.631-4.875-1.777-2.099-3.109-4.562-3.997-7.389-.889-2.825-1.332-5.894-1.332-9.204,0-3.229.484-6.217,1.453-8.963.969-2.744,2.371-5.147,4.209-7.206,1.837-2.059,4.066-3.663,6.691-4.814,2.624-1.15,5.591-1.726,8.902-1.726,1.453,0,3.077.151,4.874.454,1.796.303,3.543.768,5.238,1.393,1.696.627,3.108,1.444,4.239,2.453l-4.36,5.571c-.727-.848-1.635-1.575-2.725-2.181s-2.241-1.06-3.452-1.362-2.382-.454-3.512-.454c-2.342,0-4.32.475-5.935,1.423-1.615.949-2.907,2.231-3.876,3.846-.969,1.615-1.665,3.401-2.089,5.359s-.636,3.967-.636,6.025c0,3.633.515,6.752,1.544,9.355,1.029,2.604,2.513,4.603,4.451,5.996,1.938,1.393,4.259,2.089,6.964,2.089,1.695,0,3.491-.232,5.39-.696,1.896-.464,3.896-1.241,5.995-2.332l2.482,4.481c-1.171.768-2.322,1.434-3.451,1.998-1.131.566-2.282,1.03-3.452,1.394-1.172.363-2.392.636-3.664.817-1.271.182-2.634.272-4.087.272Z"/>
    <path class="st1" d="M578.566,1068.186h9.205v44.328h-8.357v-40.634c0-.04-.07-.343-.212-.908s-.272-1.151-.394-1.757-.202-.948-.242-1.029Z"/>
    <path class="st1" d="M613.75,1113.18c-3.392,0-6.39-.586-8.993-1.756-2.604-1.171-4.794-2.796-6.57-4.875-1.777-2.079-3.119-4.512-4.027-7.298-.908-2.785-1.362-5.772-1.362-8.962,0-3.229.454-6.227,1.362-8.993.908-2.765,2.261-5.177,4.058-7.236,1.796-2.059,3.997-3.663,6.601-4.814,2.604-1.15,5.602-1.726,8.993-1.726,3.471,0,6.529.565,9.174,1.695,2.644,1.131,4.864,2.726,6.661,4.784,1.796,2.06,3.158,4.481,4.088,7.267.928,2.786,1.393,5.835,1.393,9.145,0,3.271-.484,6.288-1.453,9.054s-2.372,5.177-4.209,7.236c-1.837,2.059-4.078,3.654-6.722,4.784-2.645,1.129-5.643,1.695-8.992,1.695ZM613.992,1107.427c2.341,0,4.289-.494,5.844-1.483,1.554-.989,2.795-2.302,3.724-3.937s1.595-3.441,1.999-5.42c.402-1.978.605-3.956.605-5.935s-.192-3.986-.575-6.025c-.385-2.038-1.04-3.915-1.969-5.632-.929-1.716-2.19-3.098-3.784-4.148-1.596-1.049-3.584-1.574-5.965-1.574-2.343,0-4.29.495-5.844,1.483-1.555.99-2.797,2.312-3.725,3.967-.93,1.656-1.596,3.473-1.998,5.45-.404,1.979-.606,3.937-.606,5.874,0,1.979.202,3.987.606,6.025.402,2.039,1.068,3.916,1.998,5.632.928,1.717,2.18,3.099,3.755,4.148,1.574,1.05,3.552,1.574,5.935,1.574ZM617.443,1056.619h8.842l-9.145,8.721h-6.298l6.601-8.721Z"/>
    <path class="st1" d="M649.356,1068.246l17.44,26.524c.444.646.868,1.302,1.272,1.968.402.666.807,1.343,1.211,2.028-.041-.766-.111-1.544-.212-2.331-.102-.787-.151-1.564-.151-2.331v-25.858h6.722v44.57h-6.54l-19.924-30.399c-.403-.687-.827-1.372-1.271-2.06-.444-.686-.868-1.352-1.271-1.998.08.646.161,1.312.242,1.998.08.688.121,1.373.121,2.06v30.097h-6.722v-40.573l-.848-3.694h9.931Z"/>
    <path class="st1" d="M702.499,1068.186h14.05c2.946,0,5.632.415,8.054,1.241,2.422.828,4.369,2.201,5.844,4.118,1.474,1.918,2.21,4.553,2.21,7.902,0,3.069-.757,5.582-2.271,7.54s-3.492,3.401-5.935,4.329c-2.443.93-5.036,1.394-7.781,1.394h-4.966v17.804h-8.297v-40.634l-.908-3.694ZM711.765,1074.181v14.655h5.087c2.26,0,3.986-.696,5.178-2.09,1.19-1.393,1.786-3.158,1.786-5.299,0-2.22-.575-3.986-1.726-5.298-1.151-1.312-2.877-1.969-5.178-1.969h-5.147Z"/>
    <path class="st1" d="M737.38,1068.186h27.856v5.995h-18.652v12.535h14.292v5.995h-14.292v13.808h18.652v5.995h-26.948v-40.634l-.908-3.694Z"/>
    <path class="st1" d="M770.564,1068.186h15.2c2.704,0,5.187.374,7.448,1.12,2.261.748,4.077,1.999,5.45,3.755,1.372,1.756,2.059,4.169,2.059,7.236,0,1.696-.444,3.331-1.332,4.905-.889,1.574-2.049,2.917-3.481,4.027-1.434,1.11-2.979,1.867-4.633,2.271l13.564,21.014h-9.446l-12.294-19.742h-3.33v19.742h-8.297v-40.634l-.908-3.694ZM779.77,1074.241v12.596h3.876c1.574,0,2.986-.19,4.238-.575,1.251-.383,2.241-1.06,2.968-2.028s1.09-2.301,1.09-3.997c0-1.332-.323-2.442-.969-3.33-.646-.888-1.494-1.554-2.544-1.999-1.05-.443-2.2-.666-3.451-.666h-5.208Z"/>
    <path class="st1" d="M806.475,1068.186h25.979v5.995h-16.714v12.535h12.899v5.995h-12.899v19.803h-8.417v-40.634l-.848-3.694Z"/>
    <path class="st1" d="M837.298,1068.186h27.856v5.995h-18.652v12.535h14.292v5.995h-14.292v13.808h18.652v5.995h-26.948v-40.634l-.908-3.694Z"/>
    <path class="st1" d="M889.801,1113.24c-3.513,0-6.592-.575-9.235-1.726-2.645-1.151-4.854-2.775-6.631-4.875-1.777-2.099-3.109-4.562-3.997-7.389-.889-2.825-1.332-5.894-1.332-9.204,0-3.229.484-6.217,1.453-8.963.969-2.744,2.371-5.147,4.209-7.206,1.837-2.059,4.066-3.663,6.691-4.814,2.624-1.15,5.591-1.726,8.902-1.726,1.453,0,3.077.151,4.874.454,1.796.303,3.543.768,5.238,1.393,1.696.627,3.108,1.444,4.239,2.453l-4.36,5.571c-.727-.848-1.635-1.575-2.725-2.181s-2.241-1.06-3.452-1.362-2.382-.454-3.512-.454c-2.342,0-4.32.475-5.935,1.423-1.615.949-2.907,2.231-3.876,3.846-.969,1.615-1.665,3.401-2.089,5.359s-.636,3.967-.636,6.025c0,3.633.515,6.752,1.544,9.355,1.029,2.604,2.513,4.603,4.451,5.996,1.938,1.393,4.259,2.089,6.964,2.089,1.695,0,3.491-.232,5.39-.696,1.896-.464,3.896-1.241,5.995-2.332l2.482,4.481c-1.171.768-2.322,1.434-3.451,1.998-1.131.566-2.282,1.03-3.452,1.394-1.172.363-2.392.636-3.664.817-1.271.182-2.634.272-4.087.272Z"/>
    <path class="st1" d="M918.262,1074.181h-12.293v-5.995h33.428v5.995h-12.476v38.333h-8.659v-38.333Z"/>
    <path class="st1" d="M958.108,1068.186l15.684,44.328h-8.962l-4.36-12.717h-13.201l-4.421,12.717h-7.024l15.684-44.328h6.602ZM953.869,1078.723l-4.542,15.14h9.145l-4.603-15.14Z"/>
  </g>
  <g>
    <rect class="st4" x="356.196" y="998.257" width="91.6" height="2.5"/>
    <rect class="st4" x="354.896" y="991.357" width="2.5" height="16.4"/>
    <g>
      <path class="st4" d="M445.696,986.857c3.1,5.3,8,9.5,13.2,12.7-5.3,3.2-9.9,7.5-13.2,12.7h-3.1c3.3-5,7.3-9.4,12.2-12.7-4.9-3.3-9-7.8-12.2-12.7h3.2-.1Z"/>
      <path class="st4" d="M438.196,986.857c3.1,5.3,8,9.5,13.2,12.7-5.3,3.2-9.9,7.5-13.2,12.7h-3.1c3.3-5,7.3-9.4,12.2-12.7-4.9-3.3-9-7.8-12.2-12.7h3.2-.1Z"/>
    </g>
    <g>
      <path d="M20.111,975.943h22.583v4.86h-15.121v10.163h11.586v4.86h-11.586v11.193h15.121v4.86h-21.847v-32.942l-.736-2.995Z"/>
      <path d="M51.933,986.758l9.897,15.052c.251.367.492.739.722,1.117.229.378.458.762.687,1.151-.023-.435-.063-.876-.12-1.323-.058-.447-.086-.888-.086-1.323v-14.674h3.814v25.293h-3.711l-11.306-17.251c-.229-.389-.47-.779-.722-1.168-.252-.389-.493-.767-.722-1.134.046.367.091.745.138,1.134.045.39.068.779.068,1.168v17.08h-3.814v-23.025l-.481-2.096h5.636Z"/>
      <path d="M76.47,990.126h-6.976v-3.402h18.97v3.402h-7.079v21.753h-4.915v-21.753Z"/>
      <path d="M90.662,986.724h8.626c1.535,0,2.943.212,4.227.636,1.283.424,2.313,1.134,3.093,2.13.778.997,1.168,2.366,1.168,4.107,0,.962-.252,1.89-.756,2.783-.504.894-1.163,1.656-1.976,2.286-.813.63-1.69,1.06-2.629,1.289l7.698,11.925h-5.361l-6.976-11.203h-1.89v11.203h-4.708v-23.059l-.516-2.096ZM95.886,990.161v7.148h2.2c.893,0,1.695-.108,2.405-.327.71-.217,1.271-.602,1.684-1.151.412-.55.619-1.306.619-2.268,0-.756-.184-1.386-.55-1.89-.367-.503-.848-.881-1.443-1.134-.596-.252-1.249-.378-1.959-.378h-2.956Z"/>
      <path d="M121.935,986.724l8.9,25.155h-5.086l-2.474-7.217h-7.492l-2.509,7.217h-3.986l8.9-25.155h3.746ZM119.529,992.704l-2.577,8.591h5.189l-2.612-8.591Z"/>
      <path d="M154.272,999.336c0,2.429-.493,4.588-1.478,6.478-.985,1.89-2.388,3.374-4.209,4.45-1.821,1.077-3.969,1.615-6.444,1.615h-8.935v-23.059c0-.022-.04-.194-.12-.516-.081-.32-.167-.653-.258-.997-.092-.344-.149-.538-.172-.584h9.52c1.924,0,3.631.304,5.12.911s2.755,1.472,3.797,2.594c1.042,1.123,1.833,2.452,2.372,3.986.538,1.536.808,3.242.808,5.121ZM149.186,999.474c0-1.168-.132-2.308-.395-3.419-.264-1.111-.688-2.114-1.271-3.007-.584-.894-1.34-1.604-2.268-2.131-.928-.527-2.057-.791-3.385-.791h-3.917v18.351h3.986c1.741,0,3.145-.429,4.21-1.289,1.065-.859,1.838-1.976,2.319-3.351.481-1.375.722-2.829.722-4.364Z"/>
      <path d="M167.64,986.724l8.9,25.155h-5.086l-2.474-7.217h-7.492l-2.509,7.217h-3.986l8.9-25.155h3.746ZM165.234,992.704l-2.577,8.591h5.189l-2.612-8.591Z"/>
      <path d="M211.269,999.336c0,2.429-.493,4.588-1.478,6.478-.985,1.89-2.388,3.374-4.209,4.45-1.821,1.077-3.969,1.615-6.444,1.615h-8.935v-23.059c0-.022-.04-.194-.12-.516-.081-.32-.167-.653-.258-.997-.092-.344-.149-.538-.172-.584h9.52c1.924,0,3.631.304,5.12.911s2.755,1.472,3.797,2.594c1.042,1.123,1.833,2.452,2.372,3.986.538,1.536.808,3.242.808,5.121ZM206.183,999.474c0-1.168-.132-2.308-.395-3.419-.264-1.111-.688-2.114-1.271-3.007-.584-.894-1.34-1.604-2.268-2.131-.928-.527-2.057-.791-3.385-.791h-3.917v18.351h3.986c1.741,0,3.145-.429,4.21-1.289,1.065-.859,1.838-1.976,2.319-3.351.481-1.375.722-2.829.722-4.364Z"/>
      <path d="M213.708,986.724h15.808v3.402h-10.584v7.114h8.11v3.402h-8.11v7.835h10.584v3.402h-15.293v-23.059l-.515-2.096Z"/>
      <path d="M254.794,986.724l8.9,25.155h-5.086l-2.474-7.217h-7.492l-2.509,7.217h-3.986l8.9-25.155h3.746ZM252.389,992.704l-2.577,8.591h5.189l-2.612-8.591Z"/>
      <path d="M277.063,986.311c.894,0,1.896.092,3.007.275,1.111.184,2.188.47,3.23.859s1.907.917,2.595,1.581l-2.509,2.818c-.733-.55-1.392-.991-1.976-1.323-.584-.332-1.208-.579-1.873-.739-.665-.16-1.49-.24-2.475-.24-1.421,0-2.618.27-3.591.808-.974.539-1.752,1.266-2.336,2.182-.584.917-1.009,1.954-1.271,3.11-.264,1.157-.396,2.354-.396,3.591,0,1.054.125,2.148.378,3.282.252,1.134.653,2.188,1.203,3.162.55.974,1.266,1.765,2.147,2.372s1.953.911,3.213.911c1.077,0,2.021-.218,2.835-.653.813-.435,1.449-1.048,1.907-1.838s.688-1.735.688-2.835v-2.131h-5.224l.447-3.024h9.554l-.069,6.323c-.023,1.191-.017,2.377.017,3.557.035,1.18.086,2.366.155,3.557h-2.44l-1.168-2.612c-1.123,1.054-2.257,1.811-3.402,2.269s-2.508.687-4.089.687c-1.855,0-3.482-.333-4.88-.997s-2.56-1.575-3.488-2.732c-.928-1.157-1.621-2.509-2.079-4.055-.459-1.546-.688-3.19-.688-4.932,0-1.97.28-3.763.842-5.378.561-1.615,1.38-3.012,2.458-4.192,1.076-1.18,2.394-2.084,3.952-2.715,1.558-.629,3.333-.945,5.327-.945Z"/>
      <path d="M295.242,986.724v16.736c0,1.672.504,3.013,1.512,4.021,1.008,1.009,2.348,1.512,4.021,1.512,1.145,0,2.13-.223,2.955-.67.825-.447,1.461-1.083,1.908-1.907.447-.825.67-1.81.67-2.956v-16.736h3.883v15.602c0,2.406-.436,4.336-1.306,5.791-.871,1.456-2.051,2.509-3.54,3.162-1.489.653-3.173.979-5.052.979-3.185,0-5.63-.859-7.337-2.577-1.707-1.718-2.56-4.169-2.56-7.354v-13.54l-.55-2.062h5.395Z"/>
      <path d="M325.071,986.724l8.9,25.155h-5.086l-2.474-7.217h-7.492l-2.509,7.217h-3.986l8.9-25.155h3.746ZM322.665,992.704l-2.577,8.591h5.189l-2.612-8.591Z"/>
    </g>
  </g>
</svg>