<?xml version="1.0" encoding="UTF-8"?>
<svg id="Layer_1" xmlns="http://www.w3.org/2000/svg" width="13.81in" height="16.151in" version="1.1" viewBox="0 0 994.3 1162.9">
  <!-- Generator: Adobe Illustrator 29.4.0, SVG Export Plug-In . SVG Version: 2.1.0 Build 152)  -->
  <defs>
    <style>
      .st0 {
        fill: #d60000;
      }

      .st1 {
        fill: #d60000;
      }

      .st2 {
        fill: #ace3f1;
      }

      .st3 {
        fill: #5aba47;
      }

      .st4, .st5, .st6 {
        fill: #3175a3;
      }

      .st7 {
        opacity: .8;
      }

      .st8, .st5 {
        opacity: .5;
      }

      .st6 {
        opacity: .3;
      }
    </style>
  </defs>
  <g>
    <polygon class="st2" points="687.4 79.4 687.4 24.1 370.2 24.1 352.6 24.1 8 24.1 8 370.1 352.6 370.1 370.2 370.1 690.8 370.1 690.8 313.8 978.2 313.8 978.2 79.4 687.4 79.4"/>
    <g>
      <path class="st3" d="M977.6,68h-269.7c-4.7,0-8.4-3.8-8.4-8.4V20.3c0-4.7-3.8-8.4-8.4-8.4h-335.1c-8,0-9.2,8.5-8.4,14.9,0,4.7,3.8,8.4,8.4,8.4h312.6c4.7,0,8.4,3.8,8.4,8.4v38.5c0,4.7,3.8,8.4,8.4,8.4h292.2c7.5,0,9.3-7.8,8.4-14,0-4.7-3.8-8.4-8.4-8.4h0v-.1Z"/>
      <path d="M977.6,94.5h-292.199c-6.838,0-12.4-5.562-12.4-12.4v-38.5c0-2.426-1.974-4.4-4.4-4.4h-312.6c-6.749,0-12.256-5.42-12.397-12.136-.456-3.872-.558-10.789,3.463-15.344,2.206-2.5,5.295-3.82,8.934-3.82h335.1c6.838,0,12.4,5.562,12.4,12.4v39.3c0,2.426,1.974,4.4,4.4,4.4h273.699v.762c4.79,1.637,8.269,6.127,8.396,11.434.762,5.676-.487,11.022-3.361,14.344-2.242,2.591-5.366,3.961-9.035,3.961ZM356,15.9c-1.73,0-2.478.596-2.936,1.114-1.414,1.602-2,5.248-1.495,9.29l.031.496c0,2.426,1.974,4.4,4.4,4.4h312.6c6.838,0,12.4,5.562,12.4,12.4v38.5c0,2.426,1.974,4.4,4.4,4.4h292.199c1.749,0,2.542-.682,2.985-1.196,1.38-1.594,1.951-4.824,1.457-8.229l-.042-.575c0-2.426-1.974-4.4-4.4-4.4h-4v-.1h-265.699c-6.838,0-12.4-5.562-12.4-12.4V20.3c0-2.426-1.974-4.4-4.4-4.4h-335.1Z"/>
    </g>
    <g>
      <path class="st3" d="M977.6,324.7h-269.7c-4.7,0-8.4,3.8-8.4,8.4v39.3c0,4.7-3.8,8.4-8.4,8.4h-335.1c-8,0-9.2-8.5-8.4-14.9,0-4.7,3.8-8.4,8.4-8.4h312.6c4.7,0,8.4-3.8,8.4-8.4v-38.5c0-4.7,3.8-8.4,8.4-8.4h292.2c7.5,0,9.3,7.8,8.4,14,0,4.7-3.8,8.4-8.4,8.4h0v.1Z"/>
      <path d="M691.1,384.8h-335.1c-3.638,0-6.728-1.321-8.934-3.82-4.021-4.555-3.919-11.472-3.463-15.344.141-6.715,5.648-12.135,12.397-12.135h312.6c2.427,0,4.4-1.974,4.4-4.4v-38.5c0-6.837,5.562-12.4,12.4-12.4h292.199c3.669,0,6.793,1.37,9.035,3.961,2.874,3.322,4.123,8.668,3.361,14.344-.128,5.306-3.606,9.797-8.396,11.434v.762h-273.699c-2.427,0-4.4,1.974-4.4,4.4v39.3c0,6.837-5.562,12.4-12.4,12.4ZM356,361.5c-2.426,0-4.4,1.974-4.4,4.4l-.031.497c-.505,4.042.081,7.688,1.495,9.289.458.519,1.206,1.114,2.936,1.114h335.1c2.427,0,4.4-1.974,4.4-4.4v-39.3c0-6.837,5.562-12.4,12.4-12.4h265.699v-.1h4c2.427,0,4.4-1.974,4.4-4.4l.042-.575c.494-3.405-.077-6.636-1.457-8.229-.443-.514-1.236-1.196-2.985-1.196h-292.199c-2.427,0-4.4,1.974-4.4,4.4v38.5c0,6.837-5.562,12.4-12.4,12.4h-312.6Z"/>
    </g>
    <path class="st5" d="M586.7,109.9c3.8-6.3,13.6-2.5,19.7-3,19.8.4,49.4-11.4,45-35.8-3.2-18-25.9-21.7-26.1-1,3.3,2.8,7.4-.3,11.3,1.3,3.9,2.6-.2,8.6-2.7,10.7-6.6,4.7-16-.9-18.7-7.7-8.2-23.6,22.1-37.1,38.5-21.7,11.3,9.5,11.9,27.9,4.9,40.2-14.2,22.3-46.4,29.9-70.8,23.3-.8-2.2-1.4-3.9-1.1-6.4h0v.1Z"/>
    <path class="st5" d="M587.8,277.9c24.4-6.6,56.7.9,70.8,23.3,7,12.3,6.4,30.6-4.9,40.2-16.4,15.5-46.8,1.9-38.5-21.7,2.7-6.7,12.1-12.3,18.7-7.7,2.5,2.1,6.7,8.1,2.7,10.7-3.9,1.6-8-1.5-11.3,1.3-1.8,8.9,9.2,18.5,17.3,12.4,10.7-6.9,11.8-22.6,4.5-32.3-8.3-11.9-27-16.7-40.7-16.8-7.5,0-24.6,3.8-18.6-9.4Z"/>
    <path class="st5" d="M824,115.1c1.2,1.8,3.4,6,1.8,8.1-4.1,2.7-11.5-9.6-18.8-6-10.9,3.8-8.9,26-24.8,26.8-9.7.5-21.3-13.5-30.4-10.2-12.1,6.2-8.7,31.1-30.4,26.1-4.3-1.5-12.6-3.1-17-10.6-1.4-1.8-2.7-6.9.8-6.6,38.8,21.7,26.6-16.9,45.8-20.8,11.3-1.6,22.2,15.4,33.4,9.9,10.9-5.4,8.2-25.2,23.3-26.4,4,.6,11.7,2.8,16.2,9.7h.1Z"/>
    <path class="st5" d="M947.4,115.1c1.2,1.8,3.4,6,1.8,8.1-4.1,2.7-11.5-9.6-18.8-6-10.9,3.8-8.9,26-24.8,26.8-9.7.5-21.3-13.5-30.4-10.2-12.1,6.2-8.7,31.1-30.4,26.1-4.3-1.5-12.6-3.1-17-10.6-1.4-1.8-2.7-6.9.8-6.6,38.8,21.7,26.6-16.9,45.8-20.8,11.3-1.6,22.2,15.4,33.4,9.9,10.9-5.4,8.2-25.2,23.3-26.4,4,.6,11.7,2.8,16.2,9.7h.1Z"/>
    <path class="st5" d="M807.8,288.8c-15.1-1.2-12.4-21.1-23.3-26.4-11.2-5.5-22.1,11.5-33.4,9.9-19.2-3.9-7-42.5-45.8-20.8-3.5.2-2.2-4.8-.8-6.6,4.4-7.5,12.7-9.1,17-10.6,21.8-5,18.2,19.8,30.4,26.1,9.1,3.3,20.7-10.7,30.4-10.2,17.5.8,13.2,28,28.6,27.3,4.9.6,11.4-9,14.9-6.4,3,9.4-12.8,18-18,17.8h0v-.1Z"/>
    <path class="st5" d="M931.3,288.8c-15.1-1.2-12.4-21.1-23.3-26.4-11.2-5.5-22.1,11.5-33.4,9.9-19.2-3.9-7-42.5-45.8-20.8-3.5.2-2.2-4.8-.8-6.6,4.4-7.5,12.7-9.1,17-10.6,21.8-5,18.2,19.8,30.4,26.1,9.1,3.3,20.7-10.7,30.4-10.2,17.5.8,13.2,28,28.6,27.3,4.9.6,11.4-9,14.9-6.4,3,9.4-12.8,18-18,17.8h0v-.1Z"/>
    <path d="M60.9,179l5.7,20.8c.3,1,.5,2.1.7,3.1.2,1.1.3,2.1.5,3.1.2-1.4.5-2.7.8-4.1.3-1.3.6-2.7,1-4l5.2-19h5.7l5.8,20.9c.3,1,.5,2,.6,3s.3,2.1.4,3.1c.2-1.4.4-2.7.7-4.1.3-1.3.6-2.7,1-4l5.2-19h5.5l-10,36.1h-6.1l-5.6-20.5c-.2-.9-.4-1.8-.6-2.8-.2-.9-.3-1.8-.4-2.8-.2,1.4-.4,2.7-.7,4.1-.3,1.3-.6,2.7-1,4l-4.9,17.9h-6.3l-9.9-36.1h6.8v.3h-.1Z"/>
    <path d="M111.5,189.8l8.9,25.2h-5.1l-2.5-7.2h-7.5l-2.5,7.2h-4l8.9-25.2s3.8,0,3.8,0ZM109.1,195.8l-2.6,8.6h5.2l-2.6-8.6Z"/>
    <path d="M125.4,193.2h-7v-3.4h19v3.4h-7.1v21.8h-4.9v-21.8h0Z"/>
    <path d="M139.7,189.8h15.8v3.4h-10.6v7.1h8.1v3.4h-8.1v7.9h10.6v3.4h-15.3v-23.1l-.5-2.1h0Z"/>
    <path d="M158.5,189.8h8.6c1.5,0,3,.2,4.2.6,1.3.4,2.3,1.1,3.1,2.1s1.2,2.4,1.2,4.1-.3,1.9-.8,2.8c-.5.9-1.2,1.7-2,2.3s-1.7,1.1-2.6,1.3l7.7,12h-5.4l-7-11.2h-1.9v11.2h-4.7v-23.1l-.5-2.1h.1ZM163.8,193.2v7.2h2.2c.9,0,1.7,0,2.4-.3s1.3-.6,1.7-1.2c.4-.6.6-1.3.6-2.3s-.2-1.4-.6-1.9c-.4-.5-.9-.9-1.4-1.1-.6-.3-1.3-.4-2-.4h-3,.1Z"/>
    <path d="M191,179h7.5v36h-6.8v-33s0-.3-.2-.7c-.1-.5-.2-.9-.3-1.4,0-.5-.2-.8-.2-.8h0v-.1Z"/>
    <path d="M209.1,189.8l9.9,15.1c.3.4.5.7.7,1.1s.5.8.7,1.2c0-.4,0-.9-.1-1.3v-16h3.8v25.3h-3.7l-11.3-17.3c-.2-.4-.5-.8-.7-1.2-.3-.4-.5-.8-.7-1.1,0,.4,0,.7.1,1.1v18.3h-3.8v-23.1l-.5-2.1h5.6Z"/>
    <path class="st5" d="M325.6,138.8c-1.1-1.7-2.2-3.7-2.1-6,.1-2,.8-3.1,2-4.3,2.9-1.4,6.6,1.6,9.3,3.2,11.9,7.1,22.6,10.6,35.4,4.3,8.2-4,15.4-10.7,24-13.6,32.8-11,46.6,19,72.2,16.7,19.3-1.7,27.6-21.3,53.9-18.4,8.8,1,26.1,2.5,32.1,11.6,1,1.5,1.3,2.6,1.3,4.6-1,1.8-1.8,2.5-3.6,2.8-5.3,1-12.1-3.7-17.3-5.3-7.1-2.1-14.6-3.3-21.9-2.4-19.4,2.4-29.2,21.1-50.6,19-22.8-2.2-36.5-25.4-61.8-18-15.4,4.5-27,19.7-43.8,18.4-7.1-.6-24.2-5.3-29-12.6h-.1Z"/>
    <path class="st5" d="M329.9,261.5c-1.1-1.7-2.2-3.7-2.1-6,.1-2,.8-3.1,2-4.3,2.9-1.4,6.6,1.6,9.3,3.2,11.9,7.1,22.6,10.6,35.4,4.3,8.2-4,15.4-10.7,24-13.6,32.8-11,46.6,19,72.2,16.7,19.3-1.7,27.6-21.3,53.9-18.4,8.8,1,26.1,2.5,32.1,11.6,1,1.5,1.3,2.6,1.3,4.6-1,1.8-1.8,2.5-3.6,2.8-5.3,1-12.1-3.7-17.3-5.3-7.1-2.1-14.6-3.3-21.9-2.4-19.4,2.4-29.2,21.1-50.6,19-22.8-2.2-36.5-25.4-61.8-18-15.4,4.5-27,19.7-43.8,18.4-7.1-.6-24.2-5.3-29-12.6h-.1Z"/>
    <rect class="st4" x="239.9" y="195.8" width="91.6" height="2.5"/>
    <rect class="st4" x="238.6" y="188.9" width="2.5" height="16.4"/>
    <g>
      <path class="st4" d="M329.4,184.4c3.1,5.3,8,9.5,13.2,12.7-5.3,3.2-9.9,7.5-13.2,12.7h-3.1c3.3-5,7.3-9.4,12.2-12.7-4.9-3.3-9-7.8-12.2-12.7h3.2-.1Z"/>
      <path class="st4" d="M321.9,184.4c3.1,5.3,8,9.5,13.2,12.7-5.3,3.2-9.9,7.5-13.2,12.7h-3.1c3.3-5,7.3-9.4,12.2-12.7-4.9-3.3-9-7.8-12.2-12.7h3.2-.1Z"/>
    </g>
  </g>
  <g>
    <polygon class="st2" points="646.2 436.7 646.2 492.1 355.4 492.1 355.4 498.9 9.1 498.9 9.1 723.1 355.4 723.1 355.4 726.5 642.7 726.5 642.7 782.7 980.9 782.7 980.9 436.7 646.2 436.7"/>
    <g>
      <g>
        <path class="st3" d="M356,480.7h269.7c4.7,0,8.4-3.8,8.4-8.4v-39.4c0-4.7,3.8-8.4,8.4-8.4h335.1c8,0,9.2,8.5,8.4,14.9,0,4.7-3.8,8.4-8.4,8.4h-312.6c-4.7,0-8.4,3.8-8.4,8.4v38.5c0,4.7-3.8,8.4-8.4,8.4h-292.2c-7.5,0-9.3-7.8-8.4-14,0-4.7,3.8-8.4,8.4-8.4h0Z"/>
        <path d="M648.2,507.1h-292.2c-3.668,0-6.792-1.37-9.035-3.96-2.874-3.322-4.123-8.667-3.361-14.344.162-6.697,5.661-12.096,12.396-12.096h269.7c2.426,0,4.399-1.974,4.399-4.4v-39.4c0-6.837,5.562-12.4,12.4-12.4h335.1c3.638,0,6.728,1.321,8.934,3.82,4.021,4.555,3.919,11.472,3.464,15.344-.141,6.716-5.647,12.136-12.397,12.136h-312.6c-2.427,0-4.4,1.974-4.4,4.4v38.5c0,6.837-5.562,12.4-12.399,12.4ZM356,484.7c-2.426,0-4.4,1.974-4.4,4.4l-.042.575c-.494,3.406.077,6.636,1.457,8.23.444.513,1.236,1.195,2.985,1.195h292.2c2.426,0,4.399-1.974,4.399-4.4v-38.5c0-6.837,5.562-12.4,12.4-12.4h312.6c2.427,0,4.4-1.974,4.4-4.4l.031-.496c.505-4.042-.082-7.688-1.496-9.29-.458-.519-1.205-1.114-2.936-1.114h-335.1c-2.427,0-4.4,1.974-4.4,4.4v39.4c0,6.837-5.562,12.4-12.399,12.4h-269.7Z"/>
      </g>
      <g>
        <path class="st3" d="M356,737.4h269.7c4.7,0,8.4,3.8,8.4,8.4v39.3c0,4.7,3.8,8.4,8.4,8.4h335.1c8,0,9.2-8.5,8.4-14.9,0-4.7-3.8-8.4-8.4-8.4h-312.6c-4.7,0-8.4-3.8-8.4-8.4v-38.5c0-4.7-3.8-8.4-8.4-8.4h-292.2c-7.5,0-9.3,7.8-8.4,14,0,4.7,3.8,8.4,8.4,8.4h0v.1Z"/>
        <path d="M977.6,797.5h-335.1c-6.838,0-12.4-5.562-12.4-12.4v-39.3c0-2.426-1.974-4.399-4.399-4.399h-273.7v-.763c-4.79-1.636-8.268-6.127-8.396-11.434-.762-5.676.487-11.021,3.361-14.344,2.242-2.591,5.366-3.96,9.035-3.96h292.2c6.837,0,12.399,5.562,12.399,12.399v38.5c0,2.427,1.974,4.4,4.4,4.4h312.6c6.75,0,12.257,5.42,12.397,12.136.455,3.872.557,10.789-3.464,15.345-2.207,2.498-5.296,3.819-8.934,3.819ZM360,733.4h265.7c6.837,0,12.399,5.562,12.399,12.399v39.3c0,2.427,1.974,4.4,4.4,4.4h335.1c1.73,0,2.478-.596,2.936-1.114,1.414-1.602,2.001-5.248,1.496-9.29l-.031-.496c0-2.426-1.974-4.399-4.4-4.399h-312.6c-6.838,0-12.4-5.562-12.4-12.4v-38.5c0-2.426-1.974-4.399-4.399-4.399h-292.2c-1.749,0-2.541.683-2.985,1.195-1.379,1.594-1.951,4.824-1.457,8.23l.042.574c0,2.426,1.974,4.399,4.4,4.399h4v.101Z"/>
      </g>
    </g>
    <path class="st5" d="M355.9,551.2c36.3-3.1,43.8,16.7,73.1,18.8,30.2,2.1,44.2-17.2,71.9-18.9,42.8-.3,52.8,31.9,104.5,14.1,7.7-2.6,16.9-10.4,25-5.7,1.1,13.2-23.8,16.3-33.3,19.7-45.2,10.9-53.6-12.1-89.7-16.4-23.7-.6-41.4,16.1-64.6,18.4-41.4,4.1-52.8-23.6-86.3-18.1-9.9-.6-27.6,17.5-34,7.7,1.5-13.2,22.8-17,33.3-19.5h.1v-.1Z"/>
    <path class="st5" d="M363,637.2c22.1-1.3,37.4,13.8,57.6,18.4,33.2,7.4,51.3-15.8,81.3-18,38.4-.6,53.1,29.3,95.5,16.6,8.3-1.4,20.7-10,27.5-2.5-3.2,14.8-31.8,14.4-43.9,16.2-34.6,2.9-45.5-16.7-70.9-18.4-33.7-2.3-51.8,27.7-95,16.7-30.1-11.1-45.1-26.1-78.1-9.3-3.5,1.6-8.4,4.6-12.2,3.2-12.6-15.1,29.3-22.2,38.3-22.9h-.1Z"/>
    <path class="st5" d="M647.3,684.1c25.1-3.6,56.2,7.9,67.5,31.8,5.4,13,2.6,31.2-9.8,39.3-18.2,13.3-46.6-3.8-35.6-26.2,3.5-6.4,13.5-10.8,19.5-5.3,2.2,2.4,5.6,8.9,1.4,11-4,1.1-7.8-2.5-11.4-.1-2.8,8.6,6.9,19.5,15.6,14.4,11.5-5.5,14.5-21,8.4-31.5-6.8-12.8-24.7-19.8-38.3-21.7-7.4-.9-24.9.7-17.3-11.6h0v-.1Z"/>
    <path class="st5" d="M635.9,524.9c3.8-6.3,13.6-2.5,19.7-3,19.8.4,49.4-11.4,45-35.8-3.2-18-25.9-21.7-26.1-1,3.3,2.8,7.4-.3,11.3,1.3,3.9,2.6-.2,8.6-2.7,10.7-6.6,4.7-16-.9-18.7-7.7-8.2-23.6,22.1-37.1,38.5-21.7,11.3,9.5,11.9,27.9,4.9,40.2-14.2,22.3-46.4,29.9-70.8,23.3-.8-2.2-1.4-3.9-1.1-6.4h0v.1Z"/>
    <path class="st5" d="M773.1,458.8c100.7-24.8,124.2,159.9-87.4,117.2-5.3-13.7,28.1-4,34.8-4.5,45.1,5.2,124.8-5.5,116.5-66.8-2.6-17.1-14.7-31.7-31.4-36.5-16.1-4.8-36.7-1.5-47,12.8-9.8,14.6-1.4,38,16.8,40.4,10.5,2.4,25.4-4.2,22.1-16.9-1.2-4-6.8-5-10.1-7-4.4-6.9,6.1-8.7,10.7-6,16,7.4,10.2,33.3-5.7,37.4-49.2,16.7-66.8-55.9-19.3-70.1h0Z"/>
    <path class="st5" d="M748.4,742.5c-8.5-17.2-1.1-40.8,16.4-49,19.7-9.4,50.7,4.4,41,29.2-1.5,8.8-23.8,14.2-18.4,1.8,3.3-1.9,8.9-2.9,10.1-7,3.7-17.3-20.6-21.3-31.6-13.2-6.3,4.1-9.3,9.6-10.8,16.8-5.3,21.4,17.5,35.6,36.5,34.7,7.1,0,14.1-1.6,20.5-4.7,26-11.7,33.3-48.3,16.8-70.6-25.1-31.3-71.5-32.7-108.4-30.1-6.2.5-29.8,4.7-34,1.4-1.9-1.4-1.8-4-.8-5.9,42.9-10,110.7-11.8,145.3,22.2,36.6,35,8.7,100.9-42.2,97.8-16.3-.8-33.1-8.2-40.4-23.5h0v.1Z"/>
    <g class="st8">
      <path class="st4" d="M962.3,475.3c23,45.9-41.3,79-79.8,70.1-3.2-.8-4.9-3.7-3.9-6.8,10.8-8.9,30.8.8,50.2-10.7,25.2-10.8,41.6-45.4,9.6-58.7-10.3-4.4-24.9,8.8-10.6,14.4,5.8,0,10.6-4.9,16.9-2.9,3.6,4.3-3.7,11.2-7.5,13.3-15,6.9-31.1-11.6-24.6-26,10.8-20,41.2-10,49.8,7.4h-.1v-.1Z"/>
      <path class="st4" d="M937.4,762.3c-26.3,4.5-37.1-26.2-12.6-37.2,8.8-3.8,18.6,2.1,21,11-.2,1.5,0,1.7-1.1,2.6-6.2,1.9-11.1-2.9-16.9-2.9-14.3,5.6.4,18.8,10.6,14.4,32-13.3,15.5-47.9-9.6-58.7-14.7-11.2-56.7-1-49.7-15.3,26.7-12.4,78,8.2,86.3,37.8,6.7,20.9-6.5,44-28,48.3h0Z"/>
    </g>
    <g>
      <path d="M62.7,592.9l5.7,20.8c.3,1,.5,2.1.7,3.1.2,1.1.3,2.1.5,3.1.2-1.4.5-2.7.8-4.1.3-1.3.6-2.7,1-4l5.2-19h5.7l5.8,20.9c.3,1,.5,2,.6,3s.3,2.1.4,3.1c.2-1.4.4-2.7.7-4.1.3-1.3.6-2.7,1-4l5.2-19h5.5l-10,36.1h-6.1l-5.6-20.5c-.2-.9-.4-1.8-.6-2.8-.2-.9-.3-1.8-.4-2.8-.2,1.4-.4,2.7-.7,4.1-.3,1.3-.6,2.7-1,4l-4.9,17.9h-6.3l-9.9-36.1h6.8v.3h-.1Z"/>
      <path d="M113.3,603.7l8.9,25.2h-5.1l-2.5-7.2h-7.5l-2.5,7.2h-4l8.9-25.2s3.8,0,3.8,0ZM110.9,609.7l-2.6,8.6h5.2l-2.6-8.6Z"/>
      <path d="M127.2,607.1h-7v-3.4h19v3.4h-7.1v21.8h-4.9s0-21.8,0-21.8Z"/>
      <path d="M141.5,603.7h15.8v3.4h-10.6v7.1h8.1v3.4h-8.1v7.9h10.6v3.4h-15.3v-23.1l-.5-2.1h0Z"/>
      <path d="M160.3,603.7h8.6c1.5,0,3,.2,4.2.6,1.3.4,2.3,1.1,3.1,2.1s1.2,2.4,1.2,4.1-.3,1.9-.8,2.8c-.5.9-1.2,1.7-2,2.3s-1.7,1.1-2.6,1.3l7.7,12h-5.4l-7-11.2h-1.9v11.2h-4.7v-23.1l-.5-2.1h.1ZM165.6,607.1v7.2h2.2c.9,0,1.7-.1,2.4-.3s1.3-.6,1.7-1.2c.4-.6.6-1.3.6-2.3s-.2-1.4-.6-1.9c-.4-.5-.9-.9-1.4-1.1-.6-.3-1.3-.4-2-.4h-3,.1Z"/>
      <path d="M192.8,592.9h7.5v36h-6.8v-33s0-.3-.2-.7c-.1-.5-.2-.9-.3-1.4,0-.5-.2-.8-.2-.8h0v-.1Z"/>
      <path d="M210.9,603.7l9.9,15.1c.3.4.5.7.7,1.1s.5.8.7,1.2c0-.4,0-.9-.1-1.3v-16h3.8v25.3h-3.7l-11.3-17.3c-.2-.4-.5-.8-.7-1.2-.3-.4-.5-.8-.7-1.1,0,.4,0,.7.1,1.1v18.3h-3.8v-23.1l-.5-2.1h5.6Z"/>
    </g>
    <g class="st7">
      <rect class="st4" x="241" y="610.2" width="91.6" height="2.5"/>
      <rect class="st4" x="239.7" y="603.3" width="2.5" height="16.4"/>
      <g>
        <path class="st4" d="M330.5,598.7c3.1,5.3,8,9.5,13.2,12.7-5.3,3.2-9.9,7.5-13.2,12.7h-3.1c3.3-5,7.3-9.4,12.2-12.7-4.9-3.3-9-7.8-12.2-12.7h3.2-.1Z"/>
        <path class="st4" d="M323,598.7c3.1,5.3,8,9.5,13.2,12.7-5.3,3.2-9.9,7.5-13.2,12.7h-3.1c3.3-5,7.3-9.4,12.2-12.7-4.9-3.3-9-7.8-12.2-12.7h3.2-.1Z"/>
      </g>
    </g>
  </g>
  <g>
    <rect class="st2" x="9.1" y="848.9" width="973.5" height="290.4"/>
    <g>
      <rect class="st3" x="343.8" y="1127.7" width="638.8" height="23.3"/>
      <path d="M982.6,1155H343.8c-2.209,0-4-1.791-4-4v-23.3c0-2.209,1.791-4,4-4h638.8c2.209,0,4,1.791,4,4v23.3c0,2.209-1.791,4-4,4ZM347.8,1147h630.8v-15.3H347.8v15.3Z"/>
    </g>
    <g>
      <rect class="st3" x="343.8" y="837.3" width="638.8" height="23.3"/>
      <path d="M982.6,864.6H343.8c-2.209,0-4-1.791-4-4v-23.3c0-2.209,1.791-4,4-4h638.8c2.209,0,4,1.791,4,4v23.3c0,2.209-1.791,4-4,4ZM347.8,856.6h630.8v-15.3H347.8v15.3Z"/>
    </g>
    <g>
      <g>
        <path d="M62.7,976.2l5.7,20.8c.3,1,.5,2.1.7,3.1.2,1.1.3,2.1.5,3.1.2-1.4.5-2.7.8-4.1.3-1.3.6-2.7,1-4l5.2-19h5.7l5.8,20.9c.3,1,.5,2,.6,3s.3,2.1.4,3.1c.2-1.4.4-2.7.7-4.1.3-1.3.6-2.7,1-4l5.2-19h5.5l-10,36.1h-6.1l-5.6-20.5c-.2-.9-.4-1.8-.6-2.8-.2-.9-.3-1.8-.4-2.8-.2,1.4-.4,2.7-.7,4.1-.3,1.3-.6,2.7-1,4l-4.9,17.9h-6.3l-9.9-36.1h6.8v.3h-.1Z"/>
        <path d="M113.3,987l8.9,25.2h-5.1l-2.5-7.2h-7.5l-2.5,7.2h-4l8.9-25.2s3.8,0,3.8,0ZM110.9,993l-2.6,8.6h5.2l-2.6-8.6Z"/>
        <path d="M127.2,990.4h-7v-3.4h19v3.4h-7.1v21.8h-4.9s0-21.8,0-21.8Z"/>
        <path d="M141.5,987h15.8v3.4h-10.6v7.1h8.1v3.4h-8.1v7.9h10.6v3.4h-15.3v-23.1l-.5-2.1h0Z"/>
        <path d="M160.3,987h8.6c1.5,0,3,.2,4.2.6,1.3.4,2.3,1.1,3.1,2.1s1.2,2.4,1.2,4.1-.3,1.9-.8,2.8c-.5.9-1.2,1.7-2,2.3s-1.7,1.1-2.6,1.3l7.7,12h-5.4l-7-11.2h-1.9v11.2h-4.7v-23.1l-.5-2.1h.1ZM165.6,990.4v7.2h2.2c.9,0,1.7-.1,2.4-.3s1.3-.6,1.7-1.2c.4-.6.6-1.3.6-2.3s-.2-1.4-.6-1.9c-.4-.5-.9-.9-1.4-1.1-.6-.3-1.3-.4-2-.4h-3,.1Z"/>
        <path d="M192.8,976.2h7.5v36h-6.8v-33s0-.3-.2-.7c-.1-.5-.2-.9-.3-1.4,0-.5-.2-.8-.2-.8h0v-.1Z"/>
        <path d="M210.9,987l9.9,15.1c.3.4.5.7.7,1.1s.5.8.7,1.2c0-.4,0-.9-.1-1.3v-16h3.8v25.3h-3.7l-11.3-17.3c-.2-.4-.5-.8-.7-1.2-.3-.4-.5-.8-.7-1.1,0,.4,0,.7.1,1.1v18.3h-3.8v-23.1l-.5-2.1h5.6Z"/>
      </g>
      <g class="st7">
        <rect class="st4" x="241" y="993.5" width="91.6" height="2.5"/>
        <rect class="st4" x="239.7" y="986.6" width="2.5" height="16.4"/>
        <g>
          <path class="st4" d="M330.5,982c3.1,5.3,8,9.5,13.2,12.7-5.3,3.2-9.9,7.5-13.2,12.7h-3.1c3.3-5,7.3-9.4,12.2-12.7-4.9-3.3-9-7.8-12.2-12.7h3.2-.1Z"/>
          <path class="st4" d="M323,982c3.1,5.3,8,9.5,13.2,12.7-5.3,3.2-9.9,7.5-13.2,12.7h-3.1c3.3-5,7.3-9.4,12.2-12.7-4.9-3.3-9-7.8-12.2-12.7h3.2-.1Z"/>
        </g>
      </g>
    </g>
    <path class="st5" d="M454.3,907.3c44.4-1.3,75.2,13.8,115.8,18.4,66.8,7.4,103.1-15.8,163.5-18,77.2-.6,106.8,29.3,192,16.6,16.7-1.4,41.6-10,55.3-2.5-6.4,14.8-63.9,14.4-88.3,16.2-69.6,2.9-91.5-16.7-142.6-18.4-67.8-2.3-104.2,27.7-191,16.7-60.5-11.1-90.7-26.1-157-9.3-7,1.6-16.9,4.6-24.5,3.2-25.3-15.1,58.9-22.2,77-22.9h-.2Z"/>
    <path class="st5" d="M454.3,978.4c44.4-1.3,75.2,13.8,115.8,18.4,66.8,7.4,103.1-15.8,163.5-18,77.2-.6,106.8,29.3,192,16.6,16.7-1.4,41.6-10,55.3-2.5-6.4,14.8-63.9,14.4-88.3,16.2-69.6,2.9-91.5-16.7-142.6-18.4-67.8-2.3-104.2,27.7-191,16.7-60.5-11.1-90.7-26.1-157-9.3-7,1.6-16.9,4.6-24.5,3.2-25.3-15.1,58.9-22.2,77-22.9h-.2Z"/>
    <path class="st6" d="M454.3,1049.5c44.4-1.3,75.2,13.8,115.8,18.4,66.8,7.4,103.1-15.8,163.5-18,77.2-.6,106.8,29.3,192,16.6,16.7-1.4,41.6-10,55.3-2.5-6.4,14.8-63.9,14.4-88.3,16.2-69.6,2.9-91.5-16.7-142.6-18.4-67.8-2.3-104.2,27.7-191,16.7-60.5-11.1-90.7-26.1-157-9.3-7,1.6-16.9,4.6-24.5,3.2-25.3-15.1,58.9-22.2,77-22.9h-.2Z"/>
  </g>
  <g>
    <rect class="st0" x="423.969" y="269.028" width="330.531" height="6" transform="translate(171.144 768.413) rotate(-74.675)"/>
    <path class="st0" d="M642.475,77.713c1.595,18.104,6.412,41.344,13.969,57.002l-24.794-17.495-30.243,2.416c14.482-9.619,30.473-27.158,41.067-41.922Z"/>
  </g>
  <g>
    <rect class="st0" x="531.345" y="393.577" width="99.601" height="6" transform="translate(-111.552 519.759) rotate(-44.393)"/>
    <path class="st0" d="M642.6,336.4c-7.751,16.438-15.309,38.937-16.678,56.269l-12.59-27.609-27.335-13.163c17.357-1.005,40.009-8.089,56.602-15.497Z"/>
  </g>
  <g>
    <rect class="st0" x="587.175" y="400.032" width="6" height="94.796" transform="translate(-30.311 851.778) rotate(-70.258)"/>
    <path class="st0" d="M668.869,475.672c-18.173.195-41.715,3.207-57.909,9.535l19.354-23.371-.078-30.339c8.475,15.181,24.729,32.475,38.633,44.176Z"/>
  </g>
  <g>
    <path class="st0" d="M657.559,711.898l-114.771-279.339c-.039-.644-.079-1.289-.118-1.933l5.669-.347c38.257,93.113,76.513,186.227,114.77,279.34l-5.55,2.279Z"/>
    <path class="st0" d="M674.095,744.253c-12.323-13.358-30.335-28.813-45.884-36.592l30.317-1.298,22.466-20.389c-5.588,16.463-7.532,40.118-6.899,58.279Z"/>
  </g>
  <g>
    <path class="st1" d="M77.544,401.193c0,2.867-.667,5.449-2,7.749-1.334,2.3-3.134,4.184-5.4,5.65-2.267,1.467-4.767,2.399-7.499,2.799,3.265.535,6.282,1.685,9.049,3.45,2.765,1.767,5,4.017,6.699,6.75,1.7,2.734,2.55,5.867,2.55,9.399,0,3.734-.75,6.899-2.25,9.499-1.5,2.6-3.517,4.7-6.049,6.3-2.534,1.6-5.367,2.75-8.5,3.45-3.134.7-6.299,1.05-9.499,1.05h-25.598v-67.095c0-.065-.117-.565-.35-1.5-.234-.933-.45-1.9-.65-2.9-.2-1-.334-1.565-.4-1.7h25.998c2.866,0,5.715.25,8.549.75,2.833.5,5.399,1.367,7.699,2.6,2.3,1.234,4.15,2.967,5.55,5.2,1.4,2.234,2.1,5.084,2.1,8.549ZM63.045,403.093c0-2.132-.435-3.865-1.3-5.199-.867-1.333-2.067-2.315-3.6-2.95-1.534-.633-3.299-.95-5.299-.95h-9.999v18.699h10.299c1.866,0,3.55-.4,5.05-1.2s2.683-1.916,3.55-3.35c.865-1.433,1.3-3.115,1.3-5.05ZM66.445,435.39c0-3-.767-5.449-2.3-7.349-1.534-1.9-3.5-3.283-5.899-4.15-2.4-.865-4.934-1.3-7.599-1.3h-7.799v24.798h10.899c2.465,0,4.649-.465,6.549-1.4,1.9-.933,3.4-2.3,4.5-4.1,1.1-1.8,1.649-3.965,1.649-6.5Z"/>
    <path class="st1" d="M109.642,406.053l18.128,51.236h-10.359l-5.04-14.699h-15.258l-5.11,14.699h-8.119l18.128-51.236h7.629ZM104.742,418.232l-5.25,17.499h10.569l-5.319-17.499Z"/>
    <path class="st1" d="M152.338,458.128c-4.06,0-7.619-.665-10.674-1.995-3.057-1.33-5.611-3.208-7.664-5.635-2.054-2.426-3.594-5.272-4.62-8.539-1.027-3.266-1.54-6.812-1.54-10.639,0-3.733.56-7.186,1.68-10.359,1.12-3.173,2.741-5.949,4.865-8.329,2.123-2.38,4.701-4.235,7.734-5.564,3.033-1.33,6.462-1.995,10.289-1.995,1.68,0,3.558.175,5.635.525,2.076.35,4.095.887,6.054,1.61,1.96.724,3.593,1.669,4.9,2.835l-5.04,6.439c-.84-.98-1.89-1.82-3.15-2.52-1.26-.7-2.59-1.225-3.99-1.575s-2.754-.525-4.06-.525c-2.707,0-4.994.549-6.859,1.645-1.867,1.097-3.36,2.579-4.479,4.444-1.12,1.867-1.925,3.932-2.415,6.195-.49,2.264-.735,4.584-.735,6.964,0,4.2.595,7.804,1.785,10.814s2.905,5.32,5.145,6.93c2.24,1.61,4.923,2.415,8.049,2.415,1.96,0,4.036-.268,6.229-.805,2.193-.536,4.503-1.435,6.93-2.695l2.87,5.179c-1.354.887-2.684,1.657-3.99,2.31-1.307.654-2.637,1.19-3.99,1.61-1.354.42-2.765.735-4.234.945s-3.045.315-4.725.315Z"/>
    <path class="st1" d="M173.756,406.053h10.639v22.888l17.079-22.888h8.959l-16.659,22.398,18.128,28.838h-11.199l-16.309-25.968v25.968h-9.659v-46.966l-.98-4.27Z"/>
    <path class="st1" d="M214.492,406.053h16.239c3.405,0,6.509.479,9.309,1.435,2.8.957,5.05,2.543,6.754,4.759,1.703,2.217,2.555,5.262,2.555,9.134,0,3.547-.875,6.452-2.625,8.714-1.75,2.264-4.037,3.932-6.859,5.005-2.824,1.074-5.822,1.61-8.995,1.61h-5.739v20.578h-9.589v-46.966l-1.05-4.27ZM225.201,412.982v16.939h5.879c2.613,0,4.608-.805,5.985-2.415,1.375-1.61,2.064-3.65,2.064-6.125,0-2.565-.665-4.607-1.995-6.125-1.33-1.516-3.325-2.275-5.984-2.275h-5.95Z"/>
    <path class="st1" d="M254.738,406.053h17.568c3.126,0,5.996.432,8.609,1.295,2.613.864,4.712,2.31,6.299,4.34,1.586,2.03,2.38,4.818,2.38,8.364,0,1.959-.514,3.85-1.54,5.669-1.027,1.82-2.369,3.372-4.025,4.655-1.657,1.284-3.442,2.159-5.354,2.625l15.679,24.288h-10.919l-14.209-22.818h-3.85v22.818h-9.589v-46.966l-1.05-4.27ZM265.377,413.052v14.559h4.479c1.82,0,3.453-.221,4.899-.665,1.446-.443,2.59-1.225,3.43-2.345.84-1.12,1.26-2.66,1.26-4.62,0-1.54-.374-2.823-1.12-3.85-.747-1.026-1.727-1.796-2.939-2.31-1.214-.513-2.544-.77-3.99-.77h-6.02Z"/>
    <path class="st1" d="M296.174,406.053h32.197v6.929h-21.558v14.489h16.519v6.929h-16.519v15.959h21.558v6.929h-31.147v-46.966l-1.05-4.27Z"/>
    <path class="st1" d="M350.419,405.213c2.613,0,5.167.362,7.664,1.085,2.496.724,4.748,1.762,6.755,3.115l-4.83,6.02c-1.26-1.12-2.777-1.983-4.55-2.59-1.774-.606-3.477-.91-5.11-.91-1.82,0-3.477.479-4.969,1.435-1.494.957-2.24,2.439-2.24,4.445,0,1.354.338,2.52,1.015,3.5.676.98,1.586,1.832,2.73,2.555,1.143.724,2.415,1.435,3.814,2.135,1.633.794,3.325,1.61,5.075,2.45,1.75.84,3.371,1.855,4.865,3.045,1.493,1.19,2.706,2.649,3.64,4.375.933,1.727,1.4,3.85,1.4,6.37,0,3.407-.84,6.299-2.52,8.679-1.68,2.38-3.885,4.177-6.614,5.39-2.73,1.213-5.682,1.82-8.854,1.82-2.847,0-5.682-.315-8.504-.945-2.824-.63-5.471-1.668-7.944-3.115l3.29-7.77c1.633,1.494,3.522,2.719,5.669,3.675,2.146.957,4.34,1.435,6.58,1.435,1.493,0,2.893-.28,4.2-.84,1.306-.56,2.379-1.388,3.22-2.485.84-1.096,1.26-2.461,1.26-4.095,0-1.68-.467-3.068-1.4-4.165-.934-1.096-2.147-2.065-3.64-2.905-1.494-.84-3.104-1.656-4.83-2.45-1.54-.7-3.057-1.458-4.55-2.274-1.494-.816-2.847-1.761-4.06-2.835-1.214-1.073-2.194-2.391-2.94-3.955-.747-1.563-1.12-3.418-1.12-5.564,0-3.406.84-6.183,2.52-8.33,1.68-2.146,3.85-3.732,6.51-4.76,2.66-1.025,5.482-1.54,8.469-1.54Z"/>
    <path class="st1" d="M386.536,405.213c2.613,0,5.167.362,7.664,1.085,2.496.724,4.748,1.762,6.755,3.115l-4.83,6.02c-1.26-1.12-2.777-1.983-4.55-2.59-1.774-.606-3.477-.91-5.11-.91-1.82,0-3.477.479-4.969,1.435-1.494.957-2.24,2.439-2.24,4.445,0,1.354.338,2.52,1.015,3.5.676.98,1.586,1.832,2.73,2.555,1.143.724,2.415,1.435,3.814,2.135,1.633.794,3.325,1.61,5.075,2.45,1.75.84,3.371,1.855,4.865,3.045,1.493,1.19,2.706,2.649,3.64,4.375.933,1.727,1.4,3.85,1.4,6.37,0,3.407-.84,6.299-2.52,8.679-1.68,2.38-3.885,4.177-6.614,5.39-2.73,1.213-5.682,1.82-8.854,1.82-2.847,0-5.682-.315-8.504-.945-2.824-.63-5.471-1.668-7.944-3.115l3.29-7.77c1.633,1.494,3.522,2.719,5.669,3.675,2.146.957,4.34,1.435,6.58,1.435,1.493,0,2.893-.28,4.2-.84,1.306-.56,2.379-1.388,3.22-2.485.84-1.096,1.26-2.461,1.26-4.095,0-1.68-.467-3.068-1.4-4.165-.934-1.096-2.147-2.065-3.64-2.905-1.494-.84-3.104-1.656-4.83-2.45-1.54-.7-3.057-1.458-4.55-2.274-1.494-.816-2.847-1.761-4.06-2.835-1.214-1.073-2.194-2.391-2.94-3.955-.747-1.563-1.12-3.418-1.12-5.564,0-3.406.84-6.183,2.52-8.33,1.68-2.146,3.85-3.732,6.51-4.76,2.66-1.025,5.482-1.54,8.469-1.54Z"/>
    <path class="st1" d="M417.823,406.053v34.087c0,3.407,1.026,6.136,3.08,8.189,2.053,2.054,4.783,3.08,8.189,3.08,2.333,0,4.339-.455,6.02-1.365,1.68-.91,2.975-2.205,3.885-3.884.91-1.68,1.365-3.686,1.365-6.02v-34.087h7.909v31.777c0,4.9-.887,8.832-2.66,11.794-1.774,2.964-4.177,5.11-7.209,6.439-3.034,1.33-6.463,1.995-10.289,1.995-6.486,0-11.468-1.75-14.944-5.25-3.477-3.5-5.214-8.492-5.214-14.979v-27.578l-1.12-4.2h10.989Z"/>
    <path class="st1" d="M456.249,406.053h17.568c3.126,0,5.996.432,8.609,1.295,2.613.864,4.712,2.31,6.299,4.34,1.586,2.03,2.38,4.818,2.38,8.364,0,1.959-.514,3.85-1.54,5.669-1.027,1.82-2.369,3.372-4.025,4.655-1.657,1.284-3.442,2.159-5.354,2.625l15.679,24.288h-10.919l-14.209-22.818h-3.85v22.818h-9.589v-46.966l-1.05-4.27ZM466.888,413.052v14.559h4.479c1.82,0,3.453-.221,4.899-.665,1.446-.443,2.59-1.225,3.43-2.345.84-1.12,1.26-2.66,1.26-4.62,0-1.54-.374-2.823-1.12-3.85-.747-1.026-1.727-1.796-2.939-2.31-1.214-.513-2.544-.77-3.99-.77h-6.02Z"/>
    <path class="st1" d="M497.685,406.053h32.197v6.929h-21.558v14.489h16.519v6.929h-16.519v15.959h21.558v6.929h-31.147v-46.966l-1.05-4.27Z"/>
  </g>
  <g>
    <path class="st1" d="M382.953,1037.557h23.198c4.865,0,9.299.684,13.299,2.05s7.215,3.634,9.649,6.799c2.433,3.167,3.65,7.517,3.65,13.049,0,5.067-1.25,9.217-3.75,12.449-2.5,3.234-5.767,5.617-9.799,7.149-4.034,1.534-8.316,2.3-12.849,2.3h-8.199v29.397h-13.699v-67.095l-1.5-6.099ZM398.251,1047.455v24.198h8.399c3.732,0,6.582-1.149,8.549-3.449,1.965-2.3,2.95-5.216,2.95-8.75,0-3.665-.95-6.582-2.85-8.749-1.9-2.165-4.75-3.25-8.549-3.25h-8.499Z"/>
    <path class="st1" d="M438.988,1059.515h32.197v6.929h-21.558v14.489h16.519v6.93h-16.519v15.959h21.558v6.929h-31.147v-46.966l-1.05-4.27Z"/>
    <path class="st1" d="M477.344,1059.515h17.568c3.125,0,5.996.432,8.609,1.295s4.713,2.31,6.3,4.34c1.586,2.029,2.38,4.818,2.38,8.364,0,1.959-.514,3.85-1.54,5.669-1.027,1.82-2.369,3.372-4.024,4.655-1.657,1.283-3.442,2.158-5.354,2.624l15.679,24.288h-10.919l-14.209-22.818h-3.85v22.818h-9.589v-46.966l-1.05-4.27ZM487.983,1066.514v14.559h4.479c1.82,0,3.453-.221,4.899-.665,1.445-.442,2.59-1.225,3.43-2.345.84-1.119,1.26-2.659,1.26-4.619,0-1.54-.374-2.823-1.12-3.85-.747-1.026-1.727-1.796-2.939-2.31-1.214-.514-2.543-.771-3.989-.771h-6.02Z"/>
    <path class="st1" d="M518.85,1059.515h30.028v6.929h-19.318v14.489h14.908v6.93h-14.908v22.888h-9.729v-46.966l-.98-4.27Z"/>
    <path class="st1" d="M554.477,1059.515h32.197v6.929h-21.559v14.489h16.519v6.93h-16.519v15.959h21.559v6.929h-31.147v-46.966l-1.05-4.27Z"/>
    <path class="st1" d="M615.161,1111.59c-4.06,0-7.618-.665-10.674-1.994-3.057-1.33-5.611-3.208-7.664-5.635-2.055-2.426-3.594-5.272-4.62-8.539-1.027-3.266-1.54-6.812-1.54-10.64,0-3.732.561-7.186,1.68-10.359,1.12-3.173,2.741-5.949,4.865-8.329,2.123-2.38,4.7-4.234,7.734-5.564,3.032-1.33,6.462-1.995,10.289-1.995,1.68,0,3.558.176,5.635.525,2.075.35,4.095.887,6.054,1.609,1.96.725,3.593,1.669,4.9,2.835l-5.04,6.439c-.84-.979-1.89-1.819-3.149-2.52s-2.59-1.225-3.99-1.575c-1.399-.35-2.754-.524-4.06-.524-2.707,0-4.993.549-6.859,1.645-1.867,1.097-3.359,2.579-4.479,4.444-1.12,1.867-1.925,3.932-2.415,6.195-.489,2.264-.734,4.584-.734,6.964,0,4.2.595,7.805,1.784,10.814,1.19,3.01,2.905,5.319,5.145,6.93,2.24,1.609,4.923,2.414,8.05,2.414,1.96,0,4.035-.268,6.229-.805,2.192-.536,4.503-1.435,6.93-2.694l2.869,5.179c-1.354.888-2.684,1.657-3.989,2.311-1.307.653-2.637,1.189-3.99,1.609s-2.765.735-4.234.945-3.045.314-4.725.314Z"/>
    <path class="st1" d="M648.058,1066.443h-14.208v-6.929h38.637v6.929h-14.419v44.307h-10.01v-44.307Z"/>
    <path class="st1" d="M720.891,1037.557l15.599,41.996c.733,2,1.3,4,1.7,6,.4,1.999.8,4.033,1.2,6.099.532-2.132.949-4.132,1.25-5.999.3-1.865.782-3.766,1.449-5.699l15.299-42.396h17.599v73.094h-13.499v-49.596c0-1.2.065-2.416.2-3.65.133-1.232.232-2.415.3-3.55-.399,1.2-.784,2.4-1.149,3.6-.367,1.2-.784,2.4-1.25,3.601l-17.898,49.695h-7.399l-18.398-49.695c-.468-1.2-.885-2.4-1.25-3.601-.367-1.199-.75-2.399-1.15-3.6.065,1.135.166,2.317.3,3.55.133,1.234.2,2.45.2,3.65v49.596h-10.899v-66.995l-1.399-6.099h19.198Z"/>
    <path class="st1" d="M806.084,1059.515l18.128,51.235h-10.358l-5.04-14.698h-15.259l-5.109,14.698h-8.119l18.128-51.235h7.63ZM801.185,1071.693l-5.25,17.499h10.569l-5.319-17.499Z"/>
    <path class="st1" d="M834.292,1066.443h-14.209v-6.929h38.637v6.929h-14.419v44.307h-10.009v-44.307Z"/>
    <path class="st1" d="M885.526,1111.59c-4.06,0-7.618-.665-10.674-1.994-3.057-1.33-5.611-3.208-7.664-5.635-2.054-2.426-3.594-5.272-4.62-8.539-1.026-3.266-1.54-6.812-1.54-10.64,0-3.732.561-7.186,1.681-10.359,1.119-3.173,2.74-5.949,4.864-8.329,2.123-2.38,4.7-4.234,7.734-5.564,3.033-1.33,6.463-1.995,10.289-1.995,1.68,0,3.558.176,5.635.525,2.075.35,4.095.887,6.055,1.609,1.96.725,3.593,1.669,4.899,2.835l-5.04,6.439c-.84-.979-1.89-1.819-3.149-2.52s-2.59-1.225-3.989-1.575c-1.4-.35-2.754-.524-4.061-.524-2.706,0-4.993.549-6.859,1.645-1.866,1.097-3.359,2.579-4.479,4.444-1.12,1.867-1.925,3.932-2.414,6.195-.49,2.264-.735,4.584-.735,6.964,0,4.2.595,7.805,1.785,10.814,1.189,3.01,2.904,5.319,5.145,6.93,2.239,1.609,4.922,2.414,8.049,2.414,1.96,0,4.036-.268,6.229-.805,2.193-.536,4.503-1.435,6.93-2.694l2.87,5.179c-1.354.888-2.685,1.657-3.99,2.311-1.307.653-2.637,1.189-3.989,1.609-1.354.42-2.765.735-4.235.945-1.47.21-3.044.314-4.725.314Z"/>
    <path class="st1" d="M939.142,1087.862h-21.488v22.888h-9.659v-46.966c0-.046-.082-.396-.245-1.05-.164-.653-.314-1.33-.455-2.03-.14-.7-.233-1.096-.279-1.189h10.639v21.418h21.488v-21.418h9.659v51.235h-9.659v-22.888Z"/>
  </g>
</svg>