<?xml version="1.0" encoding="UTF-8"?>
<svg id="Layer_1" xmlns="http://www.w3.org/2000/svg" xmlns:xlink="http://www.w3.org/1999/xlink" version="1.1" viewBox="0 0 579 1462">
  <!-- Generator: Adobe Illustrator 29.1.0, SVG Export Plug-In . SVG Version: 2.1.0 Build 142)  -->
  <defs>
    <style>
      .st0 {
        fill: none;
      }

      .st1 {
        fill: #030302;
      }

      .st2 {
        fill: #d6d6d6;
      }

      .st3 {
        fill: #454542;
      }

      .st4 {
        fill: #ccc;
      }

      .st5 {
        fill: #fff;
      }

      .st6 {
        fill: #d5bc2a;
      }

      .st7 {
        clip-path: url(#clippath);
      }
    </style>
    <clipPath id="clippath">
      <rect class="st0" x="0" y="0" width="579" height="1462"/>
    </clipPath>
  </defs>
  <g class="st7">
    <rect class="st0" x="0" y="0" width="579" height="1462"/>
    <rect class="st5" x="324.7" width="229.4" height="1472"/>
    <path class="st3" d="M476.1,172.6s0-61,0-61c.6-21.5-5.7-59,22.3-64.2,26.3,3.6,21.1,39.4,21.8,58.9.4,15.6-.5,46.8,0,61.6.8,7.4,8.2,8.3,8.4,15.8.5,21.3-.2,42.8-.2,64.1,0,338.8.1,813.1.2,1152.4,0,18.7.6,37.5.4,56.2,0,3.9-.1,8.8-3.1,11.7-4,3.8-11.5,2.8-14-2.3-5.3,2.5-21.8,2.1-27,0-8.9,11.8-18.2.8-17-10.6-.8-50.3,1.8-187.8-.5-235.8-4.2-22.2-34.8-29.9-49.9-13.6-11,11.8-7.5,29.3-7.7,44.1,0,29.3.2,172.7.1,204.6,0,6.4.4,16.6-8.6,16.9-3.8.2-6.7-2-8.7-5.1-5.5,3-21.3,2-26.9-.5-2,5.1-8.5,6.2-12.9,3.4-8.7-8.2-2.9-29.9-4-41.4,0-224.6,0-995.4,0-1232.4-3.1-29.8,10.9-9.5,8.1-39.8,2.8-25.9-12.1-101.9,21-107.6,17.4-1.5,23.3,19.9,23.8,33.7.3,30,.3,60.4-.1,90.3,13,7.1,7.5,25.2,8,37.3,0,0,0,74.9,0,74.9-.5,28.6-7.5,69.3,33.8,66.4,31.8-4.8,24.3-42.3,24.6-65.6,0,0,0-75.6,0-75.6.8-11.8-5.4-30.3,7.8-36.6ZM441.9,1129.5c4.1,1.1,8.7-.7,12.3-2.7,20.3-10,13.6-36.6,14.1-55.2,0,0,0-76.3,0-76.3-.5-40,.9-129.9-.1-168.6,2.4-29.4-38.1-40-53.7-16.8-2.9,4.3-3.9,8.1-4.2,13.2-.6,80.4.3,173.9,0,254.1,0,10.4-1.8,23.7.5,33.8,3.2,12,18.9,23.6,31.2,18.5ZM443.2,729.5c13-2.1,25.2-12.1,24.6-26.2,1.6-41.1-.2-133.7.4-176.1,0,0,0-60.1,0-60.1-.5-16.3,5.3-38.4-11.8-48-16.4-11.4-44.3-2.8-46.2,18.6-1.3,66.3.3,161.7-.3,228.3-.2,27.8-7,65.8,33.2,63.6Z"/>
    <path class="st1" d="M476.1,172.6s0-61,0-61c.5-19.6-3.9-43.2,10.5-58.9,14.2-13.7,30.6,1.9,32.1,18,3.8,29.4.2,67.6,1.6,97.3.8,7.4,8.2,8.3,8.4,15.8.5,21.3-.2,42.8-.2,64.1,0,338.8.1,813.1.2,1152.4,0,18.7.6,37.5.4,56.2.5,6.1-1.9,14.8-9.7,13.9-5.8,0-9.2-5.8-8.5-11.1,0-329.2.4-935.9,0-1267.1h-24.5s0,89.4,0,89.4c1.2,38.3,5.9,84.1-45.1,86.9-51.4-.2-51.5-46-49.1-85.4,0,0,0-90.8,0-90.8h-24.9c-6.3,330.8,12.2,959-6.1,1278.3-19.8,3.7-10.4-31.4-11.9-42.6,0-225,0-995.1,0-1232.4-3.1-29.8,10.9-9.5,8.1-39.8,2.8-25.9-12.1-101.9,21-107.6,17.4-1.4,23.3,19.9,23.8,33.7.3,30,.3,60.4-.1,90.3,13,7.1,7.5,25.2,8,37.3,0,0,0,74.9,0,74.9-.5,28.6-7.5,69.3,33.8,66.4,31.8-4.8,24.3-42.3,24.6-65.6,0,0,0-75.6,0-75.6.8-11.8-5.4-30.3,7.8-36.6Z"/>
    <path class="st6" d="M378.7,68.3c5.8,1,4.9,11.7,5.3,16-.3,9.5,2.5,86.2-1.1,88.9-2.4,0-4.7.3-6.9-.7-.8-13.8-3.5-88.4,2.8-104.1Z"/>
    <path class="st6" d="M498,68c9.6,12.4,2.7,60.7,4.3,78.9-.7,5.8,3.3,24.1-2.2,26.6-1.9-.1-3.7-.3-5.5-.8-2.2-12.5-.3-26.1-.6-38.8,1.2-21.2-4.6-46.3,4.1-65.9Z"/>
    <path class="st1" d="M392.8,1466.3c-2.9-49.3.3-139.8-.9-190.3.4-34.5-9.3-84.9,35-95.5,24-6.6,52.3,7.7,57.5,32.9,4.5,26.2,1.8,241.8.6,252.4-2.5,4.3-8.5,6.7-12.7,3.4-3.6-3.2-4.3-9.4-4.3-14,0-31.6.3-180.3.3-208.5-.2-14.1,2.8-31-8.8-41.6-16-16.6-47.8-6.3-49.3,17.3-1.1,48.2.4,181.9-.1,232.1,0,6.4.4,16.6-8.6,16.9-3.8.2-6.7-2-8.7-5.1Z"/>
    <path class="st1" d="M437.4,778.7c24.4-1.5,48.5,18.3,48.5,43.4,1.5,38.5-.5,128.9.2,168.6,0,0,0,81,0,81,0,13.1,1.8,31-1.3,43.6-4.1,15.8-19,33-36.3,32.5-26.2,9-55.9-13.9-56.3-41.2-1.7-35.2.4-116.8-.4-153.1,0,0,0-87.4,0-87.4-.8-39.4-6.2-82.5,45.4-87.5ZM441.9,1129.5c4.1,1.1,8.7-.7,12.3-2.7,20.3-10,13.6-36.6,14.1-55.2,0,0,0-76.3,0-76.3-.5-40,.9-129.9-.1-168.6,2.4-29.4-38.1-40-53.7-16.8-2.9,4.3-3.9,8.1-4.2,13.2-.6,80.4.3,173.9,0,254.1,0,10.4-1.8,23.7.5,33.8,3.2,12,18.9,23.6,31.2,18.5Z"/>
    <path class="st1" d="M432.6,396.2c20-3.2,43.6,7.3,50.7,27.1,7.6,43.3.8,128.1,2.9,174.2-.5,26.9.9,80.6-.2,106.8.8,20.8-14.6,36.8-34,41.5-22.1,4.4-49-3.4-57.4-26.2-4.9-13.6-2.4-29.5-2.6-43.8,0,0,0-74.4,0-74.4.9-38.8-1.6-127.2.5-164.9.6-21.7,19.3-37.9,40-40.3ZM443.2,729.5c13-2.1,25.2-12.1,24.6-26.2,1.6-41.1-.2-133.7.4-176.1,0,0,0-60.1,0-60.1-.5-16.3,5.3-38.4-11.8-48-16.4-11.4-44.3-2.8-46.2,18.6-1.3,66.3.3,161.7-.3,228.3-.2,27.8-7,65.8,33.2,63.6Z"/>
    <path class="st3" d="M94.9,297.6l.2-117.1c1.7-22.1-7.5-53.1,9.1-70.4,8.2-7.3,21.2-7.8,30-1.4,13.1,9.4,11,27.4,10.9,41.7-.1,24,0,121.4,0,147.1,12.1.3,33.6,1.1,32.7,17.7,1.6,54.2-1,108.7.3,162.9,20.8,3.5,17.1,24.4,16.8,40.3,0,31.1,0,170.1,0,204.2-.8,124.4,1.1,626.1-.7,741.1-1.8,7.2-12.4,10.2-16.1,2.7-17.6,7.7-98.7,7-116.3-.1-2.6,4.4-8.8,5.2-12.7,2-8.4-8.7-2.6-40.9-3.9-54,0-56.1,0-298.5,0-359.4.2-126.7-.2-435.6.1-558.4-.5-10.1,7.7-17.4,17.1-19.3.6-38.1-1.6-122-.1-158.8-1.8-17.7,19-21.1,32.6-20.9Z"/>
    <path class="st1" d="M94.9,297.6l.2-117.1c1.7-22.1-7.5-53.1,9.1-70.4,8.2-7.3,21.2-7.8,30-1.4,13.1,9.4,11,27.4,10.9,41.7-.1,24,0,121.4,0,147.1,12.1.3,33.6,1.1,32.7,17.7,1.6,54.2-1,108.7.3,162.9,20.8,3.5,17.1,24.4,16.8,40.3-.6,236.8,1,708.1-.6,945.3-3.5,11.6-19.7,7.6-17.5-4.6.3-144.8,0-633.1.1-785.6-33.5-16.9-79.4-12.9-113.5-.3-.5,210.9.2,577.7,0,787.7.2,12.3-18.3,12-18.1-.6-.5-269.6,0-633.7,0-904.1,0-19.8-.7-39.9,0-59.7-.5-10.1,7.6-17.4,17.1-19.3.6-38.1-1.6-122-.1-158.8-1.8-17.7,19-21.1,32.6-20.9Z"/>
    <path class="st6" d="M101.3,490c25.3-1,51.4-.8,75.8,6.3-.4,52.8.6,105.6-.2,158.3-36-14.4-77.9-13.9-113.9,0-1-52.7.4-105.5-.3-158.3,12.4-3.8,25.6-5.1,38.5-6.2Z"/>
    <path class="st2" d="M89.2,316.7c15.7-4.6-3.6,48.8,10.4,62.7,10.3,9.2,31.8,7.8,42.1-.8,6.1-6.8,3-17.3,3.5-25.7,0,0,0-36.7,0-36.7,5,.3,9.9,1.1,14.8,1.8,0,36.8,0,119.9,0,155.9-25.4-4.6-54.1-3.7-79.6-.3v-155.1c2.9-.8,5.8-1.2,8.8-1.6Z"/>
    <path class="st6" d="M117.5,122.9c6.6-1,9.9,4.9,9.5,10.8.7,18.3.1,36.8.1,55,0,33.4,0,124.2,0,156.3-.9,6.8,3.9,18.4-3.8,21.8-5.1.5-11-.2-10.4-6.7-.5-7.9,0-16.1,0-24v-47.7c2.6-16.4-5.9-154.5,4.5-165.5Z"/>
    <g>
      <path class="st4" d="M122.5,1137.1c.7-1.2,6.7-4.4,7.9-5.3-.7-3,2.6-4.7,4.7-2.9.9,1.6,1.3,6.7-.8,7.9,0,.1-9.1,5.9-9.1,6-1.5.7-1,2.7-1.1,4h6.4c-.5-2.8,3-3.9,4.7-2.3,1.2,1.1.4,7,.6,8.6.6,4.1-5.9,3.9-5.3,0h-18c.5,2.7-3,3.9-4.7,2.3-1.3-1.1-.4-11.8-.6-13.4-1.6-10.5,12-14.6,15.5-4.7ZM112.2,1147h6.8c-.2-3.2.9-8.8-3.4-8.7-4.5-.2-3.2,5.7-3.4,8.7Z"/>
      <path class="st4" d="M107.8,1106.1c-2.6-1.1-1.9-4.9,1.2-4.4,2.3.5,9.6-1.8,9.1,2.5.2,3-4.6,2.4-5.6,4.5-7,15.8,25.1,15.2,17.9-1.1h-3.8c.4,3.6-.4,7.6-4.7,5.1-1-1.4-1-12,0-13.4,1.7-1.6,5.2-.4,4.7,2.4,5.2.3,8.2-1.8,9.2,5.2,7.5,27.8-38.4,25.9-27.9-.7Z"/>
      <path class="st4" d="M121.8,1093.8v-20c0-.4,0-.7.3-.9.9-.5,5.2-.8,5.2.9,0,0,0,20,0,20,0,1.7-3.3.8-4.3,1-.6,0-1.1-.4-1.1-1Z"/>
      <path class="st4" d="M110.6,1058.5h5.6c-5.1-11.6,9.4-20.1,17.5-11.7,3.2,3.4,5,17.2-1.1,18.7-1.5,0-2.9-1.3-2.8-2.8,1.2-4.4,3.3-12.9-4-12.7-7.5,0-5.4,7.4-3.5,11.8.9,4.4-12.7,1.9-15,2.5-1.5,0-1.9-.2-2-1.5.2-1.4-.6-17.2.6-17.9,1.6-1.2,5.3-.9,4.8,2.1,0,0,0,11.5,0,11.5Z"/>
      <path class="st4" d="M120,1019c3.7-10.6,17.7-4.7,16.4,5.5,1.2,10.2-12.6,16-16.4,5.5-3.9,10.1-16.7,4.2-15.6-5.5-1.1-9.7,11.8-15.7,15.6-5.5ZM108.9,1024.5c-.3,6.1,8.8,6.1,8.5,0,.4-6.1-8.8-6-8.5,0ZM122.7,1024.5c-.4,6.5,9.4,6.4,9,0,.5-6.5-9.4-6.4-9,0Z"/>
      <path class="st4" d="M105.6,985.1c1.4.9,31.8,14.4,32.3,15.3,1.9,2.6-1.5,5.4-4.1,3.4,0,0-30.2-14.1-30.2-14.1-4.9-1.3-1.8-7.4,2.1-4.7Z"/>
      <path class="st4" d="M112.3,970.1h12.6c4.1,0,6.1-1,6.2-5.1,0-4.1-2.1-5-6.2-5.1,0,0-12.6,0-12.6,0,.5,2.8-3,3.9-4.7,2.3-1.1-1.1-.4-6.8-.6-8.3-.6-4.1,6-3.9,5.3,0,9.1.3,25.3-2.9,24,11.1,1.4,14.3-14.7,11.1-24,11.4.7,4-5.9,4.2-5.3,0,.2-1.6-.5-7.4.6-8.6,1.7-1.6,5.3-.5,4.7,2.3Z"/>
    </g>
  </g>
</svg>