<?xml version="1.0" encoding="UTF-8"?>
<svg id="Layer_1" xmlns="http://www.w3.org/2000/svg" version="1.1" viewBox="0 0 550 477" width="550" height="477">
  <!-- Generator: Adobe Illustrator 29.1.0, SVG Export Plug-In . SVG Version: 2.1.0 Build 142)  -->
  <defs>
    <style>
      .st0 { fill: #d60000; }
      .st1 { fill: #1a373a; }
      .st2 { fill: #d5bc2a; }
    </style>
  </defs>
  <path class="st1" d="M272.6,4.2c16.6-2.1,25.2,13.5,31.6,26.3,40.7,69.2,135.7,235.9,177.4,307.2,0,0,37.8,65.4,37.8,65.4,7.4,15,20.5,28.6,22.6,45.5.3,11.3-8.4,22.1-19.6,23.8-149.9,1.2-342.3.4-492.2.3-12.9-.6-23.3-12.9-22-25.7,2.1-13.5,12.2-24.5,18.3-36.4,0,0,31.6-54.7,31.6-54.7C108.4,269.1,194.6,118.8,244.4,33.1c6.9-11.7,12.6-27.5,28.2-28.8Z"/>
  <path class="st2" d="M274.9,35.2c57.7,99.6,180.6,310.2,236.6,410.2-129.5-.4-342.5,0-473.4-.2,54.1-94.4,180.9-313.2,236.8-410.1Z"/>
  <path class="st0" d="M249.8,145.2c13.4,0,26.7,0,40.1,0-6.8,27.9-25.6,96.4-32.9,125.1,16.5-6.8,55.5-24.9,72.4-32.1-3.2,13.7-32.4,132.1-31.8,133.9,5.2.2,20.5-4.8,26.4-6.4-12.3,18.4-26.4,41.1-38.6,59.8-8.4-14.3-25.5-45.6-33.9-60.5,8.4,1.6,16.8,3.6,25.1,5.4,3.1-30.2,5.4-60.4,8.7-90.6-21.8,10.6-43,22.8-64.7,33.8,6.7-36.6,22.5-130.6,29.2-168.6Z"/>
</svg>