<?xml version="1.0" encoding="UTF-8"?>
<svg id="Layer_1" xmlns="http://www.w3.org/2000/svg" width="1024" height="1024" xmlns:xlink="http://www.w3.org/1999/xlink" version="1.1" viewBox="0 0 1024 1024">
  <!-- Generator: Adobe Illustrator 29.4.0, SVG Export Plug-In . SVG Version: 2.1.0 Build 152)  -->
  <defs>
    <style>
      .st0 {
        fill: #a06d3e;
      }

      .st1 {
        fill: #d60000;
      }

      .st2 {
        fill: url(#linear-gradient);
      }

      .st3 {
        fill: #dffad9;
      }

      .st4 {
        fill: #cadbdd;
      }

      .st5 {
        fill: #5aba47;
      }

      .st6 {
        fill: #936538;
      }

      .st7 {
        fill: #b88653;
      }

      .st8 {
        fill: #00bcd6;
      }

      .st9 {
        fill: #3e321f;
      }
    </style>
    <linearGradient id="linear-gradient" x1="490.3" y1="2122.6" x2="255.3" y2="2258.4" gradientTransform="translate(0 -1408)" gradientUnits="userSpaceOnUse">
      <stop offset="0" stop-color="#936234"/>
      <stop offset="1" stop-color="#ab7747"/>
    </linearGradient>
  </defs>
  <rect class="st3" x="0" width="1024" height="1024" rx="64" ry="64"/>
  <path class="st4" d="M495.7,35.7c38.3,0,77,.4,115.2,3.4,86.2,6.8,164.1,19.4,246,48,16.4,5.6,32.5,11.8,48.4,18.7,15.9,6.9,31.4,14.4,46.7,22.6,11.5,6.2,37,19.5,44.9,28.8.9,11.8.5,23.9.5,35.8v119.6c0,11.2.4,22.6-.5,33.8-8.5-6.8-16-15.1-24.1-22.4-14.3-12.8-30.1-24.5-46.1-35.1-94.2-62.3-207.8-89.6-319-99.9-25.9-2.4-52.4-4.4-78.4-4.5-143.3-3.5-306.8,23.5-429.1,101.9-8.9,5.8-17.6,12-26,18.5s-16.5,13.4-24.4,20.6c-7.3,6.6-14.1,15.1-22.2,20.6-.2.1-.4.3-.6.4-.5-7.3-.3-14.5-.3-21.8-.1-15-.2-29.9-.2-44.9v-119c.7-1.2,1.5-2.4,2.4-3.4,10.7-11.2,43.8-29,58.2-36.4C212.8,56.2,356.1,37.3,495.7,35.7Z"/>
  <path class="st4" d="M670.7,106.3c4.1.4,8.7.5,12.3,2.7,1.3.9,2.4,2.1,2.7,3.7.4,2.7-1.2,5.1-2.8,7.1-4.1,2-9.9.6-14.2,0,.5-4.6,1.1-9.1,1.9-13.6h0Z"/>
  <path class="st9" d="M173.3,613.8c1.7-11.1,3.3-22.3,4.7-33.5.5-4.1.5-8.7,1.5-12.6.5-2,1.9-4.8,3.8-5.8,1.1-.6,1.5-.4,2.6,0,4.4,4.8,7.3,43.5,9.2,53.1,3.4,0,8.2-.6,11,1.8,1,.9,1,1.4,1.1,2.6-1,2.4-2.5,3.6-4.8,4.8,2.6,23.9,5.4,47.8,8.5,71.7,2.6,17.4,5,34.9,7.4,52.3,18.2-6.5,35.5-16.1,53.3-23.8,8.6-3.7,17.5-7.6,26.7-9.4,1.4-.3,2.9-.5,4.3-.7,1.5-.2,2.9-.3,4.4-.3h4.4c1.5,0,2.9.2,4.4.5,14.8,2.1,29.5,9.1,42.9,15.5,9.7,4.5,19.2,9.3,28.6,14.4,6.6,3.5,13.6,8.7,20.7,10.7,3.9,1.1,8,.5,11.7-.8,4.8-1.7,9.3-4.3,14.1-6,15.1-5.4,29.2-1,43.2,5.4,22.2,10.3,42.9,23.6,65,34.3,7.7,3.7,15.5,7.9,24,9.4,10.6,1.8,26.2.8,37.2.8s28.1.7,41.9-4.3c26.8-9.7,50.7-28,73.6-44.5,13.1-9.5,26.3-18.8,39.7-27.8,14.4-9.8,31.4-21.4,48.5-25.4,11.7-2.8,24.2-1.1,35.1,4,13,6,25.3,14.7,37.1,22.8,4.5,3.1,9,8,14.1,9.8,3.5,1.3,7.5.7,10.9-.5,4.5-1.6,8.7-4,13.2-5.7,11.6-4.4,23.2-2.7,34.3,2.4,11.7,5.3,30.8,17.6,38.8,27.6,0,3.4,0,6.8,0,10.2v80.9c0,6.8.7,14.5-.4,21.1,0,.7-.3,1.5-.5,2.2s-.5,1.4-.8,2.1c-.3.7-.7,1.3-1.1,2-.4.6-.8,1.2-1.3,1.8-.2.2-.4.5-.6.7-.2.2-.4.5-.7.7-.2.2-.5.4-.7.6-.2.2-.5.4-.7.6-.2.2-.5.4-.8.6-.3.2-.5.4-.8.5-.3.2-.5.3-.8.5s-.6.3-.8.4c-.3,0-.6.3-.9.4s-.6.2-.9.4c-.3,0-.6.2-.9.3-.3,0-.6.2-.9.3-.3,0-.6.2-.9.2s-.6,0-.9.2c-.3,0-.6,0-.9,0h-.9c-7.8.5-15.9,0-23.7,0H60.6c-7,0-18.6.9-25.1-.4-3.4-.7-6.6-2-9.2-4.4-2.5-2.3-4.4-5.2-5.3-8.5-2-7.8-1-17.6-1-25.6v-39.8c-.4-8.7,0-17.5,0-26.2s-.9-17.3.1-25.2c6.4-8.6,43.5-25.1,54.4-29.2,5-1.9,10.1-3.5,15.3-4.3,22.7-3.5,42.9,11,62.7,19.6,3.3-25.1,6.1-50.3,8.4-75.6,1.4-13.5,3.4-27.3,3.9-40.8-1.5-1.8-3.3-3.6-3.2-6.1,0-.9.5-1.3,1-2,3.4-1.9,6.7-1.3,10.4-1.1h.3Z"/>
  <path class="st7" d="M20.1,804.7h.2c0,.6,0,1.5.5,1.9,1.9,1.2,112.7.3,125.2.4-1.3,10.6-2.2,21.2-3.7,31.7,0,2.5-.3,4.9,1.2,7.1,3.3.6,6.1.5,9.4-.2,3.8-2.7,7.6-5.3,11.5-7.9,4.2,2.1,46.9.3,55.7.8.3,2.4.5,4.6,1.6,6.9,2.1.5,3.8.5,5.9,0,1.8-2.4,1.6-4,1.4-7-1.3-10.5-2.5-21-3.7-31.5h658.7c35.4,0,71-.5,106.4,0v40.6c0,6.8.8,14.5-.4,21.1,0,.7-.3,1.5-.5,2.2s-.5,1.4-.8,2.1c-.3.7-.7,1.3-1.1,2-.4.6-.8,1.2-1.3,1.8-.2.2-.4.5-.6.7-.2.2-.4.5-.7.7-.2.2-.5.4-.7.6-.2.2-.5.4-.7.6-.2.2-.5.4-.8.6-.3.2-.5.4-.8.5-.3.2-.5.3-.8.5s-.6.3-.8.4c-.3,0-.6.3-.9.4s-.6.2-.9.4c-.3,0-.6.2-.9.3-.3,0-.6.2-.9.3-.3,0-.6.2-.9.2s-.6,0-.9.2c-.3,0-.6,0-.9,0h-.9c-7.8.5-15.9,0-23.7,0H60.6c-7,0-18.6.9-25.1-.4-3.4-.7-6.6-2-9.2-4.4-2.5-2.3-4.4-5.2-5.3-8.5-2-7.8-1-17.6-1-25.6v-39.8.2Z"/>
  <path class="st0" d="M229.1,838.5h45.8c5.5,0,13.5-.8,18.7,0,.6,0,1.1.4,1.6.7,1,1.2,1.1,1.5,1.3,3.1-.5,1.5-.7,1.7-1.9,2.7-6.9,1.8-16.1.8-23.2.8-14.5,0-29.2.4-43.7-.3,1.8-2.4,1.6-4,1.4-7h0Z"/>
  <path class="st6" d="M153,845.7c3.8-2.7,7.6-5.3,11.5-7.9,4.2,2.1,46.9.3,55.7.8.3,2.4.5,4.6,1.6,6.9-14.1.8-28.5.4-42.7.4s-17.7.8-26.1-.3h0Z"/>
  <path class="st6" d="M143.6,845.9c-4.8.5-55.6.7-58.7-.2-1.5-.4-2.9-1.2-3.4-2.7-.4-1.1-.2-2,.2-3,1.2-1,2.5-1.3,4.1-1.5,7.7-.7,16,0,23.8,0s22-.5,32.8.3c0,2.5-.3,4.9,1.2,7.1h0Z"/>
  <path class="st0" d="M700.6,837.7c5.8-.3,11.8,0,17.6.2h40.8c8,0,28.6-1.2,34.7.3,1.4.3,1.7,1,2.4,2.1.2,1.7-.3,2.5-1,4-7.1,1.4-25.4.2-33.6.2h-37.1c-6.8,0-13.7.3-20.4,0-1.9,0-4.3-.2-5.9-1.2-.5-1.4-.7-2-.3-3.5,1-1.3,1.4-1.5,2.9-2h-.1Z"/>
  <path class="st0" d="M343,852.1c9.6-.4,78.5-.8,82.3,1,.8,1,1.4,1.8,1.2,3.2-.2,1.5-.6,1.8-1.6,2.7-14.6.8-29.3.2-44,.2s-23.5.8-35,0c-1.4,0-3-.2-4.2-1.2-.9-.7-1.2-1.5-1.1-2.6,0-1.5,1.3-2.3,2.3-3.1v-.2Z"/>
  <path class="st0" d="M501.6,838.1c8.3-.4,73.3-.7,75.2.6,1.2.8,1.3,1.3,1.7,2.6-.3,1.6-.6,2.1-1.6,3.2-9.6.5-71.5,1.7-76.4-.6-.8-.9-1.3-1.3-1.1-2.6.3-1.6,1.1-2.2,2.3-3.1h-.1Z"/>
  <path class="st0" d="M868.6,851.6c7.1-.3,60.1-.8,64.7.7,1.1,1,1.2,1.1,1.5,2.5-.4,1.7-.9,2.3-2,3.6-7.6.2-62.1.8-64.5-.8-1-.6-1.6-1.5-1.6-2.7s1-2.3,1.9-3.3h0Z"/>
  <path class="st0" d="M656.6,798.4c25.6-10.8,48.5-28.6,70.9-44.8,10.1-7.3,20.4-14.2,30.7-21.3,13.8-9.5,28.3-19.3,43.9-25.6.6-.2,1.1-.4,1.7-.6.6-.2,1.1-.4,1.7-.6.6-.2,1.2-.4,1.7-.5.6-.2,1.2-.3,1.8-.4.6,0,1.2-.3,1.8-.4.6,0,1.2-.2,1.8-.3.6,0,1.2-.2,1.8-.2s1.2,0,1.8-.2h5.4c.6,0,1.2,0,1.8,0,.6,0,1.2,0,1.8.2.6,0,1.2.2,1.8.3s1.2.2,1.8.4c.6,0,1.2.3,1.8.4,18,4.8,45,25.9,60.5,37.3,8.8,6.4,17.7,12.7,26.4,19.3,6,4.5,16.6,13.5,23.1,15.7,1.3.4,1.9.4,3.1,0,.3-.8.5-1,.4-1.8-.8-6.6-33.4-28.8-39.7-33.5,7.6-3.9,16.2-8.4,24.9-9.2,21.1-1.8,46,21.3,61.4,34v31.8c-33.4-.4-66.9,0-100.3,0h-233.8Z"/>
  <path class="st6" d="M802.5,748.6c.5,0,.9.4,1.3.7.5.9.7,1.5.8,2.5,0,2.6-2.4,5.3-4,7.2-3.6,4.2-8.4,7.9-12.5,11.6-6.1,5.7-12.1,11.5-18.1,17.4-3.3.8-5.9,1.9-9.1.4-1.4-1.2-2.5-2.6-3.6-4l.3-.8c6.5-2.4,26.1-20.2,32.4-26,2.6-2.4,5.6-6,8.6-7.8,1.1-.7,2.6-1,3.9-1.3h0Z"/>
  <path class="st0" d="M20.5,761.5c18.3-10.8,48-28.9,68.4-32.6,1.6-.3,3.3-.5,5-.7,1.7,0,3.4-.2,5,0,1.7,0,3.4.2,5,.4,1.7.2,3.3.5,4.9,1,14.7,3.8,28.7,12.7,42.7,18.6-1.3,16.8-4,33.7-4.7,50.6H20.4v6.1h-.3c-.4-8.6,0-17.5,0-26.2s-.9-17.3.1-25.2l.3,8.3v-.2Z"/>
  <path class="st7" d="M209.7,807c2.2,0,4.4-.2,6.6,0,1.5,10.6,2.5,21.2,3.8,31.8-8.8-.5-51.4,1.2-55.7-.8,14.8-10.6,30-20.9,45.3-30.8h0Z"/>
  <path class="st2" d="M306.6,722.7c34.8-3.3,141.5,71.8,154.7,69.1.9-.2.9-.5,1.4-1.2,0-.7,0-.8-.3-1.6-.8-2.3-3.9-4.6-5.8-5.8-3.9-2.6-8.5-4.7-12.6-7l-23.8-13c4.5-2.1,9.2-4.2,13.9-5.9,6.5-2.4,13.3-3.7,20.2-2.6,20.7,3.2,65.9,33,88.3,43.5H224.2c-2.6-12.4-3.5-28.1-4.8-40.9,7.9-3.5,15.8-6.9,23.7-10.6,18.4-8.7,43.4-22.6,63.6-24.2v.2Z"/>
  <path class="st6" d="M328.9,748.2c.7,0,1.3.2,2,.5,4.8,2.1,9.8,8.2,14,11.4,7.8,6,16.1,12.1,24.4,17.4,2.7,1.7,10.6,5.5,11.6,8.3-.6,1.8-1.7,2.7-3.1,4-4.2,1.2-8.6-1.4-12.2-3.4-5.6-3.2-38.9-28.4-39.5-32.9-.3-2.2,1.5-3.9,2.8-5.4h0Z"/>
  <path class="st0" d="M160.3,760.2c2.4,1.2,48.3,36.1,49.6,37.6l-.3.6h-53.8c1.2-12.7,1.8-25.8,4.4-38.3h.1Z"/>
  <path class="st3" d="M167.4,692.2c4.4,2.7,8.5,6.2,12.6,9.4,7.1,5.5,14.3,10.8,21.7,16-6.3,4.7-12.9,9.1-19.4,13.6-6.9,4.7-13.7,9.3-20.6,13.9,1.2-17.6,3.8-35.3,5.7-52.9Z"/>
  <path class="st3" d="M197,662.9c1.9,1.9,5.8,38.6,6.5,44.6-4.8-3.3-9.6-6.6-14.3-10-6.1-4.3-12.1-8.6-18.2-13,8.6-7.3,17.2-14.5,26-21.6Z"/>
  <path class="st3" d="M205.1,725.9c1.7,1.4,3.7,21.9,4.2,25.6-10.4,3.4-18.3,3.6-28.8.6l-7.8-2.9c10.3-8.2,21.7-15.5,32.4-23.3h0Z"/>
  <path class="st7" d="M155.1,806.9h38.2c-6.1,4.1-12.1,8.3-18.1,12.6-7.7,5.3-15.4,10.7-23.1,16.1.9-9.6,1.9-19.1,3-28.6h0Z"/>
  <path class="st3" d="M173.4,633.4c6.2,4.5,14.6,14.3,20.6,20l-13.9,11.4-11.1,9.5c2.3-13.3,3.2-27.4,4.5-40.9h-.1Z"/>
  <path class="st0" d="M173.3,759c2.7.5,5.3,1.8,7.9,2.5,9.8,2.5,19.2,2,28.8-.9,1.4,8.9,2.4,17.9,3.6,26.9l-.4,1.8c-4.1-1.7-13.3-10.1-17.1-13-7.6-5.8-15.3-11.5-22.9-17.3h0Z"/>
  <path class="st3" d="M174.5,622.9c6,0,11.9.2,17.9.6,1.2,5.8,1.6,12.1,2.2,18.1-6.6-4.5-14.2-13-20.1-18.7h0Z"/>
  <path class="st5" d="M489.4,155.7c15.8-1.7,32.4.6,47.7,5.2,68.8,20.3,121.2,89.4,159.7,159.3,14,25.4,26.5,52.1,39.5,78.4,3.7-2.7,7.1-6.2,10.7-9.1,1.8-1.4,4.4-3.2,6.6-2.2,1.1.6,1.8,1.5,2.1,2.9,1.5,5.4.9,37.4,1,44.8,0,7.6.7,15.4.5,22.9,0,2.1-.3,3.7-1,5.5-1.1,1.3-2.7,2.5-4.2,2.4-2.1-.1-48.7-30.2-51-33.1s-1.6-2.6-1.5-4.7c2.4-5.4,13.1-12.1,17.5-15.6-31.5-64.7-69.6-138.3-117.8-185.5-37-36.3-72.7-53.5-120.5-46.6-5.6,1-11.2,2.5-16.7,4.2-60.3,19.4-108.5,90.2-142.8,150.8-13.2,23.4-25.9,47.5-36.9,72.5-10,22.5-19.6,45.1-28.8,68.1-2.3,5.6-4.7,11.1-6.9,16.7-2,5-3.8,10.5-6.2,15.4-.9,1.8-1.8,3.6-3.7,4-4,.9-12.2-3.4-15.2-6.6-.7-.8-1.4-1.6-1.4-3-.2-4.6,9.1-24.3,11.2-29.6,29.3-71,61.1-142.1,103.2-202.8,41.7-60,88.9-108.2,154.8-114.2h.2Z"/>
  <path class="st8" d="M828.3,542.2c4-.3,8.3.2,12.1,1.3.7.2,1.4.4,2.2.6.7.2,1.4.5,2.1.7.7.3,1.4.5,2.1.8.7.3,1.4.6,2,.9.7.3,1.3.7,2,1,.7.4,1.3.7,1.9,1.1.6.4,1.3.8,1.9,1.2.6.4,1.2.9,1.8,1.3.6.5,1.2.9,1.7,1.4.6.5,1.1,1,1.7,1.5.5.5,1.1,1,1.6,1.6.5.5,1,1.1,1.5,1.7.5.6,1,1.1,1.4,1.7.5.6.9,1.2,1.3,1.8.4.6.8,1.2,1.2,1.9.4.6.8,1.3,1.2,1.9.4.6.7,1.2,1,1.9.3.6.6,1.3.9,1.9.3.6.6,1.3.8,2,.3.7.5,1.3.7,2s.4,1.3.6,2,.4,1.4.5,2.1c.2.7.3,1.4.4,2.1,0,.7.2,1.4.3,2.1,0,.7.2,1.4.2,2.1s0,1.4,0,2.1v4.2c0,.7,0,1.4-.2,2.1,0,.7-.2,1.4-.3,2.1,0,.7-.3,1.4-.4,2.1-.2.7-.3,1.4-.5,2.1-4.1,15.2-18.4,39.1-26.1,53.6-3.5,6.6-6.8,14.6-11.2,20.6-.8,1.1-1.8,1.7-3,2.4-2.1.3-4.4.4-6.2-.9-3.1-2.3-31.8-57.6-35.1-65.6-2.2-5.3-3.9-10.7-4.5-16.4,0-.7,0-1.5-.2-2.2v-4.4c0-.7,0-1.5.2-2.2,0-.7.2-1.5.3-2.2s.2-1.5.4-2.2c0-.7.3-1.4.5-2.2s.4-1.4.6-2.1c.2-.7.5-1.4.7-2.1.3-.7.5-1.4.8-2.1.3-.7.6-1.4.9-2,.3-.7.7-1.3,1-2,.4-.7.7-1.3,1.1-1.9.4-.6.8-1.3,1.2-1.9.4-.6.8-1.2,1.3-1.8.4-.6.9-1.2,1.4-1.7,8.2-9.7,19.3-14.9,31.9-16h.2Z"/>
  <path class="st3" d="M826.2,571.3c.3,0,.5,0,.8-.2.3,0,.6,0,.8,0h4c.3,0,.6,0,.8,0,.3,0,.6,0,.8.2s.5,0,.8.2c.3,0,.5.2.8.2s.5.2.8.3.5.2.8.3.5.2.8.4c.2,0,.5.3.7.4.2,0,.5.3.7.4.2,0,.5.3.7.5s.5.3.7.5.4.3.6.5l.6.6.6.6.6.6c.2.2.4.4.5.6.2.2.3.4.5.7.2.2.3.5.5.7,0,.2.3.5.4.7s.3.5.4.7c0,.2.2.5.4.8,0,.3.2.5.3.8s.2.5.3.8c0,.3.2.5.2.8s0,.5.2.8,0,.5.2.8c0,.3,0,.6,0,.8v4c0,.3,0,.6,0,.8,0,.3,0,.5-.2.8,0,.3,0,.5-.2.8,0,.3-.2.5-.2.8s-.2.5-.3.8-.2.5-.3.8-.2.5-.4.8c0,.2-.3.5-.4.7s-.3.5-.4.7c0,.2-.3.5-.5.7s-.3.5-.5.7-.3.4-.5.6l-.6.6-.6.6-.6.6c-.2.2-.4.4-.6.5-.2.2-.4.3-.7.5-.2.2-.5.3-.7.5-.2,0-.5.3-.7.4-.2,0-.5.3-.7.4-.2,0-.5.2-.8.4-.3,0-.5.2-.8.3s-.5.2-.8.3c-.3,0-.5.2-.8.2s-.5,0-.8.2-.5,0-.8.2c-.3,0-.6,0-.8,0h-4c-.3,0-.6,0-.8,0-.3,0-.6,0-.8-.2-.3,0-.5,0-.8-.2-.3,0-.5-.2-.8-.2s-.5-.2-.8-.3-.5-.2-.8-.3-.5-.2-.8-.4c-.2,0-.5-.3-.7-.4-.2,0-.5-.3-.7-.4-.2,0-.5-.3-.7-.5s-.5-.3-.7-.5-.4-.3-.6-.5l-.6-.6-.6-.6-.6-.6c-.2-.2-.4-.4-.5-.6-.2-.2-.3-.4-.5-.7-.2-.2-.3-.5-.5-.7s-.3-.5-.4-.7c0-.2-.3-.5-.4-.7,0-.2-.2-.5-.4-.8,0-.3-.2-.5-.3-.8s-.2-.5-.3-.8c0-.3-.2-.5-.2-.8s0-.5-.2-.8c0-.3,0-.5-.2-.8,0-.3,0-.6,0-.8v-4c0-.3,0-.6,0-.8,0-.3,0-.6.2-.8,0-.3,0-.5.2-.8,0-.3.2-.5.2-.8s.2-.5.3-.8.2-.5.3-.8.2-.5.4-.8c0-.2.3-.5.4-.7,0-.2.3-.5.4-.7,0-.2.3-.5.5-.7s.3-.5.5-.7.3-.4.5-.6l.6-.6.6-.6.6-.6c.2-.2.4-.4.6-.5.2-.2.4-.3.7-.5.2-.2.5-.3.7-.5.2,0,.5-.3.7-.4.2,0,.5-.3.7-.4.3,0,.5-.2.8-.4.3,0,.5-.2.8-.3s.5-.2.8-.3c.3,0,.5-.2.8-.2s.5,0,.8-.2Z"/>
  <path class="st9" d="M139.3,563c1.3,0,2.7.4,3.9,1,1.1.5,1.5,1,1.9,2.2-.7,4.4-12.3,10.8-16.3,14.7-10.8,10.4-17.6,24.4-17.7,39.5,0,13.1,5,26.3,14.5,35.4,2.9,2.8,6.5,4.8,9.2,7.7,1.4,1.5,1.9,2.5,1.8,4.6-.8,1.5-1.6,2.2-3.1,3.2-1.1,0-2-.3-3-.7-10-4.2-19-16.8-23.3-26.3-.4-.9-.8-1.8-1.1-2.7-.4-.9-.7-1.8-1-2.8s-.6-1.9-.8-2.8c-.3-.9-.5-1.9-.7-2.8-.2-1-.4-1.9-.6-2.9s-.3-1.9-.4-2.9-.2-1.9-.3-2.9,0-1.9,0-2.9v-2.9c0-1,0-1.9.2-2.9,0-1,.2-1.9.3-2.9,0-1,.3-1.9.4-2.9.2-1,.4-1.9.6-2.9s.5-1.9.7-2.8c.3-.9.6-1.9.9-2.8.3-.9.6-1.8,1-2.7,5.8-14.8,18.2-29.3,33-35.6v-.2Z"/>
  <path class="st9" d="M150.8,587.7c1.6.4,2.5.9,3.8,1.9.6,1.4.9,1.7.4,3.2-1.9,6.1-11.6,8.7-13.3,22.5-1.9,15.4,11.6,22.2,11.3,28.1-.7,1.6-1.5,2.1-2.9,3.1-1,0-2,0-2.9-.5-5.2-2.1-9.1-8.2-11.3-13.1-.2-.5-.5-1.1-.7-1.6-.2-.6-.4-1.1-.6-1.7-.2-.6-.4-1.1-.5-1.7-.2-.6-.3-1.1-.4-1.7-.1-.6-.2-1.2-.3-1.7-.1-.6-.2-1.2-.3-1.8,0-.6-.1-1.2-.2-1.8v-5.4c0-.6.1-1.2.2-1.8s.2-1.2.3-1.8.2-1.2.3-1.7c.1-.6.3-1.2.4-1.7.2-.6.3-1.1.5-1.7.2-.6.4-1.1.6-1.7,2.9-7.4,8-14.3,15.5-17.6v.2Z"/>
  <g>
    <path class="st1" d="M261.2,139.8c-8.5,1.8-17,3.6-25.5,5.6,2,8.7,4,17.5,6,26.2-3.7.9-7.5,1.7-11.2,2.6-4.3-17.9-8.5-35.8-12.8-53.6,0,0-.2-.4-.6-1.1-.4-.7-.7-1.4-1.1-2.2-.4-.8-.6-1.2-.7-1.3,4.3-1,8.6-2,12.9-3,1.9,8.2,3.7,16.3,5.6,24.5,8.6-2,17.1-3.8,25.7-5.6-1.7-8.2-3.4-16.4-5.1-24.6,3.9-.8,7.9-1.6,11.8-2.4,3.9,19.7,7.8,39.3,11.6,59-3.8.7-7.5,1.5-11.3,2.3-1.8-8.8-3.6-17.5-5.4-26.3h.1Z"/>
    <path class="st1" d="M276.3,102.9c12.3-2.3,24.6-4.5,36.9-6.4.4,2.7.9,5.4,1.3,8-7.9,1.2-15.7,2.6-23.6,4,1,5.6,2,11.2,3,16.7,6-1.1,12-2.1,18-3.1.4,2.7.9,5.4,1.3,8-5.9,1-11.9,2-17.8,3,1.6,8.8,3.1,17.6,4.7,26.5-3.8.7-7.6,1.4-11.4,2.1l-10.2-54.2c-.7-1.6-1.4-3.1-2.1-4.7h0Z"/>
    <path class="st1" d="M346.6,109.9c3.9,7.6,7.7,15.1,11.5,22.7.5,1,.9,2.1,1.3,3.1.4,1.1.8,2.1,1.2,3.2.1-1.4.3-2.7.5-4.1.2-1.3.5-2.7.8-4,1.7-7.8,3.5-15.7,5.3-23.5,2.2-.3,4.4-.5,6.6-.8-3.5,14.5-6.8,29.1-9.9,43.6-1.9.2-3.8.5-5.6.7-6.6-13.3-13.4-26.6-20.4-39.8,2.9-.4,5.8-.8,8.7-1.2h0Z"/>
    <path class="st1" d="M377,106.1c3-.3,6.1-.6,9.1-1,1.4,14,2.8,27.9,4.3,41.9-2.7.3-5.3.5-8,.8-1.4-12.8-2.8-25.6-4.2-38.4,0,0-.1-.3-.3-.8-.2-.5-.4-1.1-.6-1.6-.2-.6-.3-.9-.3-.9Z"/>
    <path class="st1" d="M412,102.8c6.3,13.6,12.4,27.2,18.4,40.9-2.9.2-5.7.4-8.6.6-1.7-3.9-3.4-7.8-5.1-11.7-4.2.3-8.5.7-12.7,1.1-1.1,4.1-2.1,8.3-3.1,12.4-2.2.2-4.5.4-6.7.6,3.6-14.5,7.4-28.9,11.4-43.3,2.2-.2,4.3-.4,6.5-.5h0ZM408.6,113.1c-1.1,4.9-2.1,9.8-3.2,14.7,3-.3,5.9-.5,8.9-.7-1.9-4.7-3.8-9.3-5.7-14h0Z"/>
    <path class="st1" d="M450.9,82.2c4.4-.2,8.8-.4,13.2-.6.8,20,1.5,40.1,2.3,60.1-3.8.1-7.6.3-11.4.5-.9-18.4-1.8-36.7-2.6-55.1,0,0-.1-.5-.4-1.2-.2-.8-.5-1.5-.7-2.4-.2-.8-.4-1.3-.4-1.4h0Z"/>
    <path class="st1" d="M492.8,141.7c-3.2,0-6.1-.4-8.6-1.5s-4.7-2.5-6.4-4.5c-1.8-1.9-3.1-4.2-4.1-6.8-1-2.6-1.5-5.4-1.6-8.5s.2-5.9,1.1-8.6c.8-2.7,2.1-5,3.8-7,1.7-2,3.8-3.6,6.4-4.7,2.6-1.2,5.5-1.8,8.9-1.8s6.5.4,9.1,1.5c2.6,1,4.8,2.6,6.6,4.5,1.8,1.9,3.1,4.2,4,6.9.9,2.6,1.4,5.5,1.4,8.7s-.5,6-1.4,8.6-2.3,4.9-4,6.9c-1.8,2-3.9,3.5-6.4,4.6s-5.4,1.7-8.6,1.7h-.2ZM493,136.2c2.2,0,4.1-.5,5.6-1.5s2.7-2.2,3.5-3.8c.9-1.6,1.5-3.3,1.9-5.2.4-1.9.6-3.8.5-5.6,0-1.9-.2-3.8-.6-5.7-.4-1.9-1-3.7-2-5.3-.9-1.6-2.2-2.9-3.8-3.9-1.6-1-3.6-1.5-5.9-1.4-2.3,0-4.2.5-5.7,1.5s-2.7,2.3-3.6,3.9-1.5,3.3-1.8,5.2c-.3,1.9-.5,3.8-.4,5.6,0,1.9.3,3.8.7,5.7.4,1.9,1.1,3.7,2.1,5.3.9,1.6,2.2,2.9,3.7,3.9s3.4,1.4,5.7,1.4h0Z"/>
    <path class="st1" d="M527.4,98.9c5.7,8.5,11.2,17,16.6,25.5.4.6.8,1.3,1.2,1.9s.7,1.3,1.1,2c0-.7,0-1.5,0-2.2,0-.8,0-1.5,0-2.2.2-8.2.4-16.4.7-24.6,2.2,0,4.4,0,6.7.2-.5,14.1-.9,28.2-1.4,42.3-2.1,0-4.2-.1-6.3-.2-6.1-9.8-12.3-19.5-18.7-29.2-.4-.7-.8-1.3-1.2-2s-.8-1.3-1.2-1.9c0,.6,0,1.2.2,1.9,0,.7,0,1.3,0,2,0,9.5-.2,19.1-.3,28.6h-6.4c0-12.8,0-25.7.2-38.5-.3-1.2-.5-2.3-.8-3.5h9.8-.2Z"/>
    <path class="st1" d="M576.9,143.2c-3.2-.2-6.1-.9-8.5-2.1-2.4-1.2-4.5-2.9-6.1-4.9s-2.8-4.4-3.6-7.1c-.8-2.7-1.1-5.5-1-8.6s.7-5.9,1.6-8.5c1-2.6,2.4-4.8,4.3-6.7,1.8-1.9,4.1-3.3,6.7-4.3,2.6-1,5.6-1.4,9-1.2,3.4.2,6.4.9,9,2.1,2.5,1.2,4.6,2.9,6.3,4.9,1.6,2.1,2.8,4.5,3.6,7.2.7,2.7,1,5.6.8,8.8-.2,3.1-.9,5.9-2,8.5-1.1,2.6-2.6,4.8-4.5,6.6s-4.1,3.2-6.7,4.1c-2.6.9-5.5,1.3-8.7,1.1h-.2ZM577.4,137.7c2.2.1,4.1-.2,5.7-1.1,1.5-.9,2.8-2,3.8-3.5s1.7-3.2,2.2-5c.5-1.9.8-3.7.9-5.6,0-1.9,0-3.8-.2-5.7-.3-2-.8-3.8-1.6-5.5s-2-3.1-3.5-4.2-3.4-1.7-5.8-1.8c-2.3,0-4.3.3-5.8,1.1-1.6.9-2.9,2.1-3.8,3.6-1,1.5-1.7,3.2-2.2,5.1s-.8,3.7-.8,5.5,0,3.8.3,5.7c.3,2,.9,3.8,1.7,5.4.8,1.7,2,3,3.4,4.1,1.5,1.1,3.3,1.7,5.6,1.8h0Z"/>
    <path class="st1" d="M618.1,102.4c2.2.2,4.4.7,6.5,1.5s3.9,1.8,5.5,3.1c-1.5,1.5-3,3-4.6,4.5-1-1-2.2-1.8-3.7-2.5-1.5-.6-2.9-1-4.3-1.1-1.5,0-3,0-4.3.8-1.3.7-2.1,1.8-2.2,3.5,0,1.1,0,2.1.6,2.9s1.2,1.6,2.1,2.3c.9.7,1.9,1.3,3.1,2,1.3.8,2.7,1.6,4.1,2.4,1.4.8,2.7,1.8,3.9,2.9s2.1,2.4,2.7,3.9c.6,1.5.9,3.3.7,5.3-.3,2.8-1.2,5.1-2.8,6.9-1.6,1.8-3.5,3.1-5.9,3.9-2.3.8-4.8,1.1-7.4.9-2.3-.2-4.7-.6-7-1.3s-4.4-1.7-6.4-3c1.1-2.1,2.1-4.1,3.2-6.2,1.3,1.3,2.8,2.4,4.5,3.4,1.7.9,3.5,1.5,5.4,1.6,1.2.1,2.4,0,3.5-.4s2.1-1,2.8-1.8c.8-.8,1.2-1.9,1.3-3.3,0-1.4-.2-2.5-.9-3.5s-1.7-1.8-2.8-2.6c-1.2-.8-2.5-1.6-3.9-2.3-1.2-.7-2.5-1.4-3.7-2.2-1.2-.8-2.3-1.6-3.2-2.6-1-1-1.7-2.1-2.2-3.4s-.7-2.9-.6-4.6c.2-2.8,1.1-5,2.6-6.7,1.6-1.7,3.5-2.8,5.8-3.5s4.8-.9,7.3-.7h.3Z"/>
    <path class="st1" d="M635.3,104.7c4.6.5,9.2.9,13.9,1.4,2.9.3,5.5,1,7.8,2.1s4.1,2.6,5.3,4.6,1.6,4.6,1.3,7.7c-.4,2.9-1.4,5.2-3.1,6.8-1.7,1.7-3.8,2.8-6.2,3.4-2.5.6-5,.8-7.7.5-1.6-.2-3.2-.3-4.8-.5-.6,5.6-1.2,11.2-1.8,16.8-2.6-.3-5.3-.5-7.9-.8,1.3-12.8,2.5-25.6,3.8-38.4-.2-1.2-.4-2.4-.6-3.6ZM643.8,111.3c-.5,4.6-1,9.2-1.5,13.8,1.6.2,3.3.3,4.9.5,2.2.2,3.9-.2,5.2-1.4,1.3-1.2,2.1-2.8,2.3-4.8.2-2.1,0-3.8-1.1-5.2-1-1.4-2.6-2.2-4.9-2.4-1.7-.2-3.4-.4-5.1-.5h.2Z"/>
    <path class="st1" d="M693.7,135.3c-6-.9-12-1.7-17.9-2.5-.8,6.2-1.7,12.4-2.5,18.6-2.6-.4-5.3-.7-7.9-1,1.6-12.8,3.2-25.5,4.8-38.3,0,0,0-.3,0-.9,0-.6,0-1.1-.2-1.7,0-.6,0-.9,0-1,3,.4,6,.8,9.1,1.2-.8,5.8-1.5,11.6-2.3,17.5,6,.8,12,1.6,18,2.5.9-5.8,1.7-11.6,2.6-17.4,2.7.4,5.5.8,8.2,1.2-2.1,13.9-4.3,27.7-6.4,41.6-2.6-.4-5.3-.8-7.9-1.2.9-6.2,1.8-12.4,2.8-18.6h-.2Z"/>
    <path class="st1" d="M712.2,114.6c9.1,1.5,18.2,3,27.3,4.7-.3,1.9-.7,3.7-1,5.6-6.1-1.1-12.1-2.2-18.2-3.2-.7,3.9-1.3,7.8-2,11.7,4.6.8,9.2,1.6,13.8,2.4-.3,1.9-.7,3.7-1,5.6-4.6-.8-9.2-1.6-13.7-2.4-.7,4.3-1.4,8.6-2.2,12.9,5.9,1,11.8,2,17.7,3.1-.3,1.9-.7,3.7-1,5.6-8.5-1.6-17-3-25.5-4.4,2-12.7,4.1-25.4,6.1-38.1,0-1.2-.2-2.4-.3-3.6h0Z"/>
    <path class="st1" d="M744.7,120.2c5,.9,9.9,1.9,14.8,2.9,2.6.5,5,1.4,7.1,2.5s3.6,2.7,4.6,4.6,1.2,4.3.6,7.1c-.3,1.6-1.1,3-2.2,4.3-1.2,1.3-2.5,2.3-4.1,3s-3.2,1.1-4.9,1.2c3,7.4,5.9,14.8,8.8,22.2-3-.6-5.9-1.3-8.9-1.9-2.6-6.9-5.2-13.8-8-20.7-1.1-.2-2.1-.4-3.2-.6-1.2,6.1-2.4,12.3-3.6,18.4-2.6-.5-5.2-1-7.8-1.5,2.4-12.6,4.8-25.3,7.1-37.9,0-1.2-.2-2.4-.2-3.6h0ZM752.6,127.6c-.8,3.9-1.5,7.8-2.3,11.7,1.2.2,2.5.5,3.7.7,1.5.3,2.9.4,4.2.3,1.3-.1,2.4-.5,3.2-1.3.9-.8,1.5-1.9,1.8-3.5.3-1.2.2-2.3-.3-3.3s-1.2-1.7-2.1-2.4c-.9-.6-2-1.1-3.2-1.3-1.7-.3-3.4-.7-5.1-1h0Z"/>
    <path class="st1" d="M779.6,127.3c9,2,18.1,4,27.1,6.2-.4,1.8-.9,3.7-1.3,5.5-6-1.4-12-2.8-18-4.2-.9,3.9-1.7,7.7-2.6,11.6,4.6,1,9.1,2.1,13.7,3.2-.4,1.8-.9,3.7-1.3,5.5-4.5-1.1-9.1-2.1-13.6-3.1-1,4.3-1.9,8.5-2.9,12.8,5.9,1.3,11.7,2.7,17.6,4.1-.4,1.8-.9,3.7-1.3,5.5-8.4-2-16.9-4-25.3-5.8,2.7-12.6,5.5-25.1,8.2-37.7,0-1.2,0-2.4,0-3.6h-.2Z"/>
  </g>
  <path class="st9" d="M262.6,598.6c.4.9.7,1.8,1,2.7s.6,1.9.9,2.8c.3.9.5,1.9.7,2.8.2.9.4,1.9.6,2.9s.3,1.9.4,2.9.2,1.9.3,2.9c0,1,.1,1.9.2,2.9v2.9c0,1,0,1.9-.1,2.9s-.2,1.9-.3,2.9c-.1,1-.3,1.9-.4,2.9s-.4,1.9-.6,2.9-.4,1.9-.7,2.8c-.3.9-.5,1.9-.8,2.8s-.6,1.8-1,2.8c-.4.9-.7,1.8-1.1,2.7-4.2,9.5-13.3,22.2-23.3,26.3-1,.4-2,.6-3,.7-1.4-1-2.2-1.6-3.1-3.2,0-2.1.4-3.1,1.8-4.6,2.8-2.9,6.3-4.9,9.2-7.7,9.5-9.1,14.5-22.4,14.5-35.4s-6.9-29.1-17.7-39.5c-4-3.9-15.6-10.4-16.3-14.7.4-1.2.7-1.6,1.9-2.2,1.2-.6,2.6-1,3.9-1,14.8,6.4,27.1,20.8,33,35.6v.2Z"/>
  <path class="st9" d="M233.7,605.2c.2.6.4,1.1.6,1.7.2.6.4,1.1.5,1.7.2.6.3,1.1.4,1.7.1.6.2,1.2.3,1.7.1.6.2,1.2.3,1.8s.1,1.2.2,1.8v5.4c0,.6-.1,1.2-.2,1.8,0,.6-.2,1.2-.3,1.8s-.2,1.2-.3,1.7c-.1.6-.3,1.2-.4,1.7-.2.6-.3,1.1-.5,1.7-.2.6-.4,1.1-.6,1.7-.2.6-.4,1.1-.7,1.6-2.2,4.9-6.1,11-11.3,13.1-.9.4-2,.4-2.9.5-1.4-1-2.2-1.5-2.9-3.1-.3-5.9,13.2-12.7,11.3-28.1-1.7-13.8-11.4-16.4-13.3-22.5-.5-1.5-.2-1.9.4-3.2,1.3-1.1,2.2-1.5,3.8-1.9,7.4,3.3,12.6,10.1,15.5,17.6v-.2Z"/>
  <g>
    <path d="M331.8,957.1h-22.4v23.8h-10.1v-48.9s0-.4-.3-1.1c-.2-.7-.3-1.4-.5-2.1-.1-.7-.2-1.1-.3-1.2h11.1v22.3h22.4v-22.3h10.1v53.4h-10.1v-23.8h0Z"/>
    <path d="M350.4,927.5h31.3v7.2h-20.1v15.1h15.5v7.2h-15.5v23.8h-10.1v-48.9l-1-4.4h0Z"/>
    <path d="M416.9,991.6c-4.1-4.5-7.4-9.5-10-15-2.6-5.4-3.9-11.3-3.9-17.4s1.3-12.1,3.9-17.5,5.9-10.4,10-15l6.9,1.2c-2.7,3.3-5,6.5-6.8,9.7s-3.1,6.5-4,10-1.3,7.4-1.3,11.6.4,8,1.3,11.6c.9,3.5,2.2,6.9,4,10,1.8,3.2,4.1,6.4,6.8,9.6l-6.9,1.2h0Z"/>
    <path d="M439.9,943.6c3,0,5.5.6,7.5,1.9,2,1.3,3,3.3,3,6.1s-.5,3.8-1.5,5.7c-1,1.8-2.3,3.5-3.9,5.1-1.7,1.6-3.5,2.9-5.5,4.1,1.8,0,3.5.4,5.4,1.1,1.8.7,3.4,1.8,4.7,3.3,1.3,1.5,1.9,3.4,1.9,5.7s-.3,3.7-.9,5.4-1.6,3.2-2.8,4.6c-1.2,1.4-2.7,2.6-4.5,3.7-1.8,1.1-3.9,2-6.2,2.8-2.3.8-4.9,1.4-7.7,1.8-2.8.4-5.9.6-9.1.6l-.4-4.3c3-.2,5.8-.5,8.5-1,2.6-.5,5-1.2,7-2.2s3.6-2.4,4.8-4.2c1.1-1.8,1.7-4,1.7-6.8s-.7-3.7-2-4.7c-1.4-1-3-1.5-4.9-1.5s-1.4,0-2.2.2c-.8,0-1.5.4-2.2.7l-2.2-4.2c1.2-.5,2.5-1.3,3.9-2.2,1.5-.9,2.9-1.9,4.2-3.1,1.4-1.2,2.5-2.5,3.4-3.9s1.3-2.9,1.3-4.4-.3-2-.8-2.5c-.6-.6-1.3-.8-2.4-.8s-3,.4-4.9,1.3c-1.8.9-3.4,2-4.5,3.4l-4.4-6c2.4-1.8,5-3.2,7.8-4.1,2.8-.9,5.5-1.3,8-1.3v-.3Z"/>
    <path d="M457.1,958.7h16.1v6.9h-16.1v-6.9Z"/>
    <path d="M493.4,943.6c3,0,5.5.6,7.5,1.9,2,1.3,3,3.3,3,6.1s-.5,3.8-1.5,5.7c-1,1.8-2.3,3.5-3.9,5.1-1.7,1.6-3.5,2.9-5.5,4.1,1.8,0,3.5.4,5.4,1.1,1.8.7,3.4,1.8,4.7,3.3,1.3,1.5,1.9,3.4,1.9,5.7s-.3,3.7-.9,5.4-1.6,3.2-2.8,4.6c-1.2,1.4-2.7,2.6-4.5,3.7-1.8,1.1-3.9,2-6.2,2.8-2.3.8-4.9,1.4-7.7,1.8-2.8.4-5.9.6-9.1.6l-.4-4.3c3-.2,5.8-.5,8.5-1,2.6-.5,5-1.2,7-2.2s3.6-2.4,4.8-4.2c1.1-1.8,1.7-4,1.7-6.8s-.7-3.7-2-4.7c-1.4-1-3-1.5-4.9-1.5s-1.4,0-2.2.2c-.8,0-1.5.4-2.2.7l-2.2-4.2c1.2-.5,2.5-1.3,3.9-2.2,1.5-.9,2.9-1.9,4.2-3.1,1.4-1.2,2.5-2.5,3.4-3.9s1.3-2.9,1.3-4.4-.3-2-.8-2.5c-.6-.6-1.3-.8-2.4-.8s-3,.4-4.9,1.3c-1.8.9-3.4,2-4.5,3.4l-4.4-6c2.4-1.8,5-3.2,7.8-4.1,2.8-.9,5.5-1.3,8-1.3v-.3Z"/>
    <path d="M527.9,943.7c3.8,0,7,.8,9.7,2.4s4.7,3.8,6.1,6.7c1.4,2.9,2.1,6.2,2.1,10s-.8,7-2.3,9.8c-1.6,2.9-3.7,5.1-6.5,6.7-2.8,1.6-6,2.4-9.8,2.4s-6.9-.8-9.6-2.4c-2.7-1.6-4.7-3.9-6.2-6.7-1.4-2.9-2.2-6.2-2.2-9.8s.8-7.2,2.3-10,3.7-5.1,6.5-6.6,6.1-2.4,9.9-2.4h0ZM527.6,949.6c-1.8,0-3.2.4-4.3,1.2s-2,1.9-2.6,3.2-1.1,2.7-1.3,4.3c-.3,1.5-.4,3-.4,4.4s0,3,.3,4.5c.2,1.6.6,3,1.2,4.3.6,1.3,1.5,2.3,2.6,3.1s2.6,1.2,4.5,1.2,3.3-.4,4.5-1.2c1.1-.8,2-1.8,2.6-3.1s1-2.7,1.2-4.3.3-3.1.3-4.5,0-2.9-.4-4.4c-.2-1.5-.7-3-1.3-4.3s-1.5-2.4-2.6-3.2-2.6-1.2-4.3-1.2Z"/>
    <path d="M582.8,927.5l11.4,30.6c.5,1.5.9,2.9,1.2,4.4s.6,2.9.9,4.4c.4-1.6.7-3,.9-4.4s.6-2.7,1.1-4.2l11.2-30.9h12.8v53.3h-9.8v-36.2c0-.9,0-1.8,0-2.7,0-.9.2-1.8.2-2.6-.3.9-.6,1.8-.8,2.6-.3.9-.6,1.8-.9,2.6l-13.1,36.2h-5.4l-13.4-36.2c-.3-.9-.6-1.8-.9-2.6s-.5-1.8-.8-2.6c0,.8,0,1.7.2,2.6,0,.9,0,1.8,0,2.7v36.2h-8v-48.9l-1-4.4h14Z"/>
    <path d="M663.4,957.1h-22.4v23.8h-10.1v-48.9s0-.4-.3-1.1c-.2-.7-.3-1.4-.5-2.1,0-.7-.2-1.1-.3-1.2h11.1v22.3h22.4v-22.3h10.1v53.4h-10.1v-23.8h0Z"/>
    <path d="M680,943.6h25.7v3.7l-18.3,28.6h19.2l-.6,5.1h-27.2v-4.2l17.9-28.2h-16.7v-5h0Z"/>
    <path d="M729,959.2c0,6.2-1.3,12-3.9,17.4-2.6,5.4-5.9,10.4-10,15l-6.9-1.2c2.7-3.3,5-6.5,6.8-9.6s3.1-6.5,4-10,1.3-7.4,1.3-11.6-.4-8.1-1.3-11.6-2.2-6.8-4-10-4.1-6.4-6.8-9.7l6.9-1.2c4.1,4.5,7.4,9.5,10,15,2.6,5.4,3.9,11.3,3.9,17.5h0Z"/>
  </g>
</svg>