<?xml version="1.0" encoding="UTF-8"?>
<svg id="Layer_1" xmlns="http://www.w3.org/2000/svg" width="2in" height="1.61in" xmlns:xlink="http://www.w3.org/1999/xlink" version="1.1" viewBox="0 0 144 115.903">
  <!-- Generator: Adobe Illustrator 29.4.0, SVG Export Plug-In . SVG Version: 2.1.0 Build 152)  -->
  <defs>
    <style>
      .st0 {
        fill: #a19589;
      }

      .st1 {
        fill: url(#linear-gradient1);
      }

      .st2 {
        fill: #6c6561;
      }

      .st3 {
        fill: #564f4b;
      }

      .st4 {
        fill: #843815;
      }

      .st5 {
        fill: url(#linear-gradient);
      }

      .st6 {
        fill: #f7ebd7;
      }

      .st7 {
        fill: #eb9051;
      }

      .st8 {
        fill: #fed16e;
      }

      .st9 {
        fill: #2d475f;
      }

      .st10 {
        fill: #f8a530;
      }

      .st11 {
        fill: #467b99;
      }

      .st12 {
        fill: #385f80;
      }

      .st13 {
        fill: #d36a25;
      }

      .st14 {
        fill: #9b4519;
      }

      .st15 {
        fill: #0e0e0e;
      }
    </style>
    <linearGradient id="linear-gradient" x1="2458.335" y1="37.835" x2="2455.997" y2="42.239" gradientTransform="translate(-11179.9 -86.2) scale(4.6)" gradientUnits="userSpaceOnUse">
      <stop offset="0" stop-color="#574e47"/>
      <stop offset="1" stop-color="#726c69"/>
    </linearGradient>
    <linearGradient id="linear-gradient1" x1="2451.08" y1="26.634" x2="2451.374" y2="26.815" gradientTransform="translate(-11179.9 -86.2) scale(4.6)" gradientUnits="userSpaceOnUse">
      <stop offset="0" stop-color="#a24a1b"/>
      <stop offset="1" stop-color="#cb671d"/>
    </linearGradient>
  </defs>
  <g>
    <path class="st15" d="M101.926,22.435c3.144-.147,6.421.359,8.97,2.303,2.86-.557,6.403-.338,8.648,1.729,3.287-.878,6.779-.267,9.332,2.047,21.886-2.371,14.167,40.119,5.888,50.555-6.482,7.569-9.366,16.788-11.416,26.376-.615,2.228-.824,4.592-1.64,6.759-.089.212-.222.366-.41.495-1.698,1.527-5.136.383-4.955-2.095,1.288-7.398,3.232-14.71,5.529-21.862-1.21.482-2.406,1.066-3.728,1.155-2.583.28-5.686-.865-7.22-3.014-2.84,1.613-5.987.81-8.42-1.111-2.556,1.008-5.211.612-7.664-.444-.94,3.345-4.893,18.835-7.09,20.625-1.322,1.029-3.455.629-4.401-.724-.41-.571-.492-1.22-.362-1.903,2.265-5.778,4.616-11.98,5.898-18.127-16.21-5.638-11.338-30.367-6.441-42.648.267-.68,1.257-2.648,1.336-3.195.034-.243-.26-.513-.294-.786-.055-.427.308-1.076.554-1.421.513-.718,1.363-1.001,1.862-1.678,3.359-6.069,8.72-12.26,16.026-13.046v.01ZM115.403,72.826c4.992-8.341,7.473-18.821,7.446-28.481-4.719,8.129-7.702,19.087-7.446,28.481ZM120.669,77.514c7.401-9.072,10.49-21.804,9.315-33.336-.075,11.608-3.232,23.553-9.404,33.381l.089-.044h0ZM129.71,75.809c6.533-9.66,10.244-26.721,5.443-37.635,3.964,11.748-.089,27.312-5.638,37.891.092-.082.14-.147.195-.256Z"/>
    <path class="st14" d="M112.533,26.543c1.562-.263,3.133.113,4.558.735-1.674,1.141-3.403,2.272-5.365,2.781-5.143,2.064-9.39,8.081-12.028,12.783-.861,1.859-1.562,3.748-2.689,5.467-2.484,4.493-2.98,12.739,3.284,14.153,3.253.659,5.122-.694,7.353-2.781l.092.024c-.738,5.918-1.845,12.356-.591,18.356.164,1.175.868,2.289.82,3.479-.615-.345-1.435-2.84-1.633-3.54-.232-.82-.345-2.891-.81-3.427-.54-.099-.779.649-.83,1.073-.232,1.787.458,3.851,1.189,5.454l-.116.099-.137-.01c-1.329.687-2.231.988-3.704,1.22-1.38-1.985-2.183-4.217-2.546-6.602,2.289-2.047,4.117-5.317,4.592-8.358.393-1.732-.024-2.84-1.985-2.686-.752.154-1.432.721-2.108,1.07-2.139,1.107-4.784,1.558-7.176,1.394-2.542-.222-4.326-.974-5.7-3.181-.178-.195-.372-.376-.653-.376-.53.099-.906.697-.875,1.223.058,1.189,1.155,2.105,1.972,2.843.345,5.594,3.725,12.499,10.268,9.011.526,2.71,1.709,5.173,3.222,7.463-2.658.663-5.419-.301-7.367-2.16-.81-.622-1.223-1.5-1.961-2.156-.082-.072-.034-.048-.171-.041-.12.212-.123.441-.15.677l-.062.044c-.424-.205-.8-.718-1.093-1.076-.506-.625-.991-1.23-1.415-1.914-.584-.947-1.544-3.472-2.512-3.844-.591.12-.506.984-.441,1.439.933,3.639,3.646,6.321,6.667,8.375-12.862.417-14.085-17.816-11.703-27.066.574,1.603,1.756,2.945,3.4,3.485,7.719,1.75,11.344-9.51,9.007-15.37,3.786-7.75,10.097-17.075,19.398-18.069l-.003.01Z"/>
    <path class="st13" d="M93.138,44.615c.875-2.18,3.01-5.72,4.452-7.596,1.162.69,1.466.738,2.781.577-1.555,2.477-3.065,5.071-4.223,7.757-.618,1.435-2.443,7.603-2.949,8.119l-.137-.041c.967-3.027,1.179-5.792.075-8.819v.003Z"/>
    <path class="st13" d="M79.825,66.57c-.14-3.263-.034-6.919.906-10.073.42,1.182,1.07,2.016,2.037,2.812-.782,2.641-.516,5.508-1.329,8.136-.53-.27-.861-.841-1.206-1.309l-.089-.038-.041-.099c-.13.157.007.413-.167.554l-.109.014v.003Z"/>
    <path class="st13" d="M92.977,53.67c.219.632-.642,3.202-.82,3.984-.263,1.158-.451,2.354-.612,3.533-.232,1.384.15,4.825-2.101,4.073-1.51-1.015.284-5.132-.113-5.949l-.376-.021c2.05-1.408,3.106-3.379,4.018-5.621h.003Z"/>
    <path class="st13" d="M101.988,31.884c2.795-2.822,7.524-5.717,11.621-5.272-3.916,1.271-6.981,3.673-9.721,6.684-.629-.482-1.155-1.1-1.9-1.411h0Z"/>
    <path class="st4" d="M93.572,82.052c2.156-.772,2.826-.605,4.668-2.242.253.044.243.359.506.478.68,1.36,1.363,2.645,2.194,3.923-2.658.663-5.419-.301-7.367-2.16Z"/>
    <path class="st7" d="M101.988,31.884c.745.311,1.271.926,1.9,1.411-1.285,1.339-2.412,2.816-3.52,4.302-1.322.161-1.613.113-2.781-.577,1.391-1.808,2.819-3.489,4.398-5.136h.003Z"/>
    <path class="st14" d="M130.257,30.373c17.963.28,10.261,37.867,3.499,47.039-2.641,3.851-5.881,7.384-7.562,11.813-.834-.031-1.736-.041-2.262-.789,1.637-4.285,4.213-8.013,7.148-11.502,7.039-10.883,11.58-29.947,4.401-41.52-2.576-3.26-6.984-1.032-9.281,1.398-8.355,9.171-12.346,22.173-12.687,34.426-.523,7.196,1.859,19.504,10.948,11.283-.721,1.514-.977,3.048-2.447,4.07-1.609,1.121-3.677,1.787-5.635,1.418-6.588-1.599-7.979-9.687-8.071-15.489-.236-10.357,2.949-23.407,9.052-31.939,3.171-4.483,7.001-9.68,12.899-10.213l-.003.007Z"/>
    <path class="st13" d="M117.358,40.583c.868.161,1.715.325,2.522.7-3.943,6.608-6.598,14.355-7.671,21.982-.311,1.377-.386,8.037-2.327,7.678-.567-.297-.673-1.319-1.148-1.544-.096.157-.106.195-.249.321l-.089-.106c.072-9.257,3.509-21.466,8.966-29.031h-.003Z"/>
    <path class="st13" d="M121.629,35.174c2.488-2.669,5.734-4.979,9.53-4.774l.021.031.243-.017c-3.12,1.247-5.857,3.451-7.999,6.055-.475-.653-1.087-.957-1.794-1.298v.003Z"/>
    <path class="st7" d="M121.629,35.174c.707.342,1.319.649,1.794,1.298-1.247,1.589-2.436,3.12-3.543,4.811-.806-.376-1.654-.54-2.522-.7,1.302-1.924,2.679-3.714,4.271-5.413v.003Z"/>
    <path class="st14" d="M130.708,35.851c.629-.12,1.21.243,1.609.704,6.503,12.188.396,34.884-8.918,44.558-1.568,1.613-4.77,3.547-6.277.868,12.445-5.539,18.927-33.958,12.1-45.234.478-.325.981-.608,1.486-.892v-.003Z"/>
    <path class="st6" d="M103.594,45.09c8.871-.079,5.84,14.635-1.005,15.817-9.246.687-6.079-15.021,1.005-15.817Z"/>
    <path class="st15" d="M100.713,49.532c3.96-.075,2.744,7.654-.383,8.42-4.029.01-2.751-7.709.383-8.42Z"/>
    <path class="st14" d="M127.455,38.256c2.652,12.913-2.306,31.935-11.348,41.746-.444-.844-.543-2.966-.642-3.96,6.373-8.847,10.152-23.465,8.935-34.283.81-1.333,1.955-2.416,3.055-3.506v.003Z"/>
    <path class="st6" d="M88.053,43.136c7.309.15,4.124,14.878-1.842,15.298-7.757-.082-4.387-14.816,1.842-15.298Z"/>
    <path class="st15" d="M85.443,47.349c3.984-.236,2.758,7.319-.174,8.143-3.947.154-2.679-7.227.174-8.143Z"/>
    <path class="st14" d="M103.823,24.352c1.374-.034,2.87.482,4.08,1.107-2.279,1.363-4.832,2.115-7.213,3.25-3.219,1.719-5.624,4.914-7.904,7.678-1.182-1.022-2.658-1.695-4.247-1.411,3.243-5.337,8.597-10.788,15.284-10.627v.003Z"/>
    <path class="st13" d="M93.206,29.116c2.693-2.764,6.673-4.927,10.617-4.763-3.745,1.609-6.243,3.55-9.117,6.403-.519-.506-1.063-1.063-1.497-1.64h-.003Z"/>
    <path class="st7" d="M93.206,29.116c.434.577.977,1.134,1.497,1.64-1.37,1.357-2.457,2.993-3.67,4.483-.851-.256-1.603-.41-2.498-.26,1.264-2.163,2.843-4.145,4.668-5.864h.003Z"/>
    <path class="st14" d="M112.065,33.595c3.625-3.697,9.308-7.418,14.457-4.463-1.404.605-2.604,1.555-3.871,2.388-4.35,1.367-7.179,5.225-9.899,8.648-1.09-1.466-2.303-2.341-4.059-2.857,1.001-1.316,2.177-2.58,3.373-3.718h0Z"/>
    <path class="st13" d="M112.065,33.595c3.038-2.908,7.07-6.181,11.567-5.406-.089.171-.222.181-.403.239-3.827.666-6.462,3.779-8.994,6.458-.697-.629-1.292-.97-2.17-1.295v.003Z"/>
    <path class="st7" d="M112.065,33.595c.878.325,1.473.666,2.17,1.295-.666.721-2.474,3.253-3.021,3.602-.8-.513-1.62-.882-2.522-1.179,1.001-1.316,2.177-2.58,3.373-3.718h0Z"/>
    <path class="st5" d="M123.932,88.435c.526.748,1.428.759,2.262.789-2.46,6.984-4.292,14.201-5.72,21.462-.212.752-1.097,1.169-1.804.83-2.194-1.011,4.411-20.471,5.262-23.082h0Z"/>
    <path class="st2" d="M88.918,91.63c.595.608,1.671.031,2.347.181-.519,2.04-3.482,12.083-4.692,12.903-.533.366-1.37.13-1.705-.4-.178-.321-.082-.632.01-.967,1.418-3.868,2.952-7.726,4.042-11.717h-.003Z"/>
    <path class="st13" d="M106.98,39.773c1.794.171,3.25,1.23,4.473,2.491-.748,1.186-1.415,2.412-2.142,3.605-1.066-1.517-2.771-2.406-4.616-2.46.642-1.203,1.384-2.617,2.286-3.639v.003Z"/>
    <path class="st14" d="M110.042,41.038c.53.349.977.769,1.411,1.23-.748,1.186-1.415,2.412-2.142,3.605-.451-.629-.923-1.07-1.544-1.521.902-.967,1.575-2.201,2.276-3.315h0Z"/>
    <path class="st13" d="M99.794,71.039c.253-.041.54-.027.796-.041-1.076,3.007-5.044,6.482-8.126,3.994,1.791-2.33,4.435-3.684,7.329-3.953Z"/>
    <path class="st13" d="M84.021,43.594c1.333-3.01,2.153-7.425,6.397-5.662.304.147.612.27.841.523.068.543-1.083,2.45-1.394,3.038-2.289-.437-4.176.636-5.847,2.101h.003Z"/>
    <path class="st14" d="M90.418,37.932c.304.147.612.27.841.523.068.543-1.083,2.45-1.394,3.038-.618-.092-1.23-.079-1.842-.181-.068-.417.304-.82.677-.947.478-.164,1.322-1.91,1.715-2.433h.003Z"/>
    <path class="st4" d="M105.887,81.106c.571.97,1.121,1.968,1.937,2.761.489.485,1.661.793,1.838,1.469-2.676,1.794-6.27-.533-7.736-2.922,1.473-.232,2.375-.533,3.704-1.22l.137.01.116-.099h.003Z"/>
    <path class="st3" d="M90.62,85.51c.868.092,1.582.103,2.44-.048-.601,2.115-1.124,4.258-1.794,6.352-.677-.154-1.75.427-2.347-.181.509-2.057,1.155-4.076,1.702-6.12v-.003Z"/>
    <path class="st14" d="M118.981,35.471c-3.376,4.606-6.81,9.404-8.464,14.96-.106-.55-.352-1.78-.468-2.313,2.388-4.545,5.149-9.127,8.932-12.646h0Z"/>
    <path class="st13" d="M110.237,49.006c.212.007.516-.017.711.051l-.431,1.377-.28-1.428Z"/>
    <path class="st1" d="M100.18,31.159l.044.027c-.205.513-1.049,1.158-1.442,1.589-2.682,2.983-4.801,6.434-6.639,9.981-.328-.031-.618-.437-.861-.639,1.647-3.482,5.553-8.935,8.898-10.958Z"/>
    <path class="st14" d="M104.54,39.859c.048,0,.092.031.14.048-.082.485-1.63,3.051-1.975,3.632-.646.236-1.21.526-1.794.892l-.041-.099c.735-1.401,1.855-4.456,3.67-4.473Z"/>
    <path class="st14" d="M109.492,33.257l.072.12c-1.015,1.251-2.019,2.467-2.887,3.83-.403.085-.803.191-1.203.29l-.062-.113c.434-1.059,3.072-3.383,4.08-4.124v-.003Z"/>
  </g>
  <g>
    <path class="st15" d="M21.613,21.089c.711-2.371,1.691-7.367,2.265-9.851.362-1.596.615-3.356,1.575-4.722,8.269-8.519,36.733-2.177,42.75,7.23.981,2.228-.058,4.722-.472,6.978-.649,2.74-1.968,9.113-2.532,11.782,4.285.273,6.974-1.367,10.921-1.76-1.603,2.009-10.063,8.112-7.094,10.866,1.797,1.462,5.631,1.473,7.897,2.043-11.891,5.922-12.687,7.159-1.565,14.912-.311.215-.646.178-1.005.12-15.459-3.096-4.955,7.046-.526,12.534-6.598-.957-14.406-7.565-9.602,4.907.239.694.533,1.363.53,2.108-2.652-1.76-5.163-4.869-8.669-4.165-.694,8.389-6.315,10.856-13.948,11.478-.916,7.121-2.043,14.509-3.13,21.616-.123.478-.321.906-.673,1.257-1.466,1.521-4.62.752-4.856-1.459.335-6.14,2.471-15.284,2.928-21.404-3.571-.28-7.094-.865-10.5-1.999-.813,5.604-3.168,16.142-4.241,21.835-.212,1.018-.407,1.968-1.367,2.559-1.377.793-3.458.321-4.179-1.158-.605-1.965.468-4.64.762-6.667,1.271-5.799,2.505-13.142,3.865-18.855-7.193-3.974-10.504-7.886-7.986-16.282-2.45-3.352-6.796-1.521-10.155-1.052,1.814-2.05,4.876-4.681,5.843-7.193-1.268-2.112-4.452-1.732-6.581-2.224,2.358-1.005,8.382-3.605,7.456-6.796-.947-2.498-6.332-6.219-8.768-7.295v-.267c2.484-.694,7.63.465,9.134-1.726-.721-2.665-3.174-4.852-4.944-6.865-.249-.284-.646-.649-.622-1.042.236-.103.407-.079.656-.014,1.879.618,3.608,1.671,5.539,2.149.683.219,1.695.191,1.476-.789-.321-1.89-4.148-8.874-5.296-11.006-.229-.499-1.415-1.958-1.029-2.406,1.104-.195,7.722,4.968,9.909,3.748,1.425-1.186-.304-5.775-.055-7.552,1.391,1.931,4.364,4.873,6.277,6.431l.01-.003Z"/>
    <path class="st8" d="M15.336,14.658c1.391,1.931,4.364,4.873,6.277,6.431-1.972,10.418-6.779,33.268-8.843,43.905-2.45-3.352-6.796-1.521-10.155-1.052,1.814-2.05,4.876-4.681,5.843-7.193-1.268-2.112-4.452-1.732-6.581-2.224,2.358-1.005,8.382-3.605,7.456-6.796-.947-2.498-6.332-6.219-8.768-7.295v-.267c2.484-.694,7.63.465,9.134-1.726-.721-2.665-3.174-4.852-4.944-6.865-.249-.284-.646-.649-.622-1.042.236-.103.407-.079.656-.014,1.879.618,3.608,1.671,5.539,2.149.683.219,1.695.191,1.476-.789-.321-1.89-4.148-8.874-5.296-11.006-.229-.499-1.415-1.958-1.029-2.406,1.104-.195,7.722,4.968,9.909,3.748,1.425-1.186-.304-5.775-.055-7.552l.003-.007Z"/>
    <path class="st10" d="M15.336,14.658c1.134,1.671,4.063,4.48,5.628,5.915-1.182.055-2.717-2.228-3.701-2.163-.185,2.16,1.668,7.456-2.293,6.636-1.548-.297-2.85-1.134-4.323-1.589-.171-.055-.198-.048-.359.017-.133.328-.106.584.034.906,1.64,3.666,8.597,13.289-.841,9.882,1.387,2.429,5.115,5.847.301,7.415-.817.212-1.702.308-2.488.622,2.464,2.259,7.285,5.525,3.441,8.959-.998.923-2.303,1.36-3.325,2.211,5.833,2.645,3.15,4.066.567,7.999,1.931-.294,3.684-.15,5.269,1.104-.161.806-.308,1.623-.485,2.426-2.45-3.352-6.796-1.521-10.155-1.052,1.814-2.05,4.876-4.681,5.843-7.193-1.268-2.112-4.452-1.732-6.581-2.224,2.358-1.005,8.382-3.605,7.456-6.796-.947-2.498-6.332-6.219-8.768-7.295v-.267c2.484-.694,7.63.465,9.134-1.726-.721-2.665-3.174-4.852-4.944-6.865-.249-.284-.646-.649-.622-1.042.236-.103.407-.079.656-.014,1.879.618,3.608,1.671,5.539,2.149.683.219,1.695.191,1.476-.789-.321-1.89-4.148-8.874-5.296-11.006-.229-.499-1.415-1.958-1.029-2.406,1.104-.195,7.722,4.968,9.909,3.748,1.425-1.186-.304-5.775-.055-7.552l.01-.01Z"/>
    <path class="st10" d="M65.2,32.505c4.285.273,6.974-1.367,10.921-1.76-1.603,2.009-10.063,8.112-7.094,10.866,1.797,1.462,5.631,1.473,7.897,2.043-11.891,5.922-12.687,7.159-1.565,14.912-.311.215-.646.178-1.005.12-15.459-3.096-4.955,7.046-.526,12.534-6.598-.957-14.406-7.565-9.602,4.907.239.694.533,1.363.53,2.108-2.652-1.76-5.163-4.869-8.669-4.165,2.139-10.292,6.755-31.108,9.106-41.561l.007-.003Z"/>
    <path class="st8" d="M64.667,34.774c.827.096,4.623-.868,4.958-.601-1.804,4.148-7.617,7.394.67,10.541-2.611,1.449-7.213,4.241-4.736,7.712.796,1.182,2.638,2.334,3.082,3.564-10.149.202-2.665,7.945-1.039,10.952-.243.188-.721.092-1.008.058-7.599-1.767-5.97.977-4.903,6.697-1.442-.837-3.068-1.609-4.774-1.339-.167.003-.331.051-.448-.082,1.657-8.033,6.403-29.205,8.201-37.505l-.003.003Z"/>
    <path class="st12" d="M25.949,11.364c2.3,3.301,6.339,4.51,9.913,5.935,8.31,2.939,22.04,5.621,30.159,1.476-3.072,12.93-5.454,26.034-8.474,38.985-.858,3.127-1.261,7.791-2.641,10.709-.81,1.575-2.587,2.706-4.104,3.506-10.118,4.787-25.682,1.148-32.899-7.326-2.252-2.699-2.067-5.604-1.196-8.806.413-2.088.837-4.176,1.271-6.26,2.406-12.622,5.365-25.621,7.965-38.219h.007Z"/>
    <path class="st9" d="M25.949,11.364c1.432,2.129,3.615,3.297,5.901,4.326-3.273,16.716-7.309,35.41-10.535,52.212-4.398-3.287-6.287-6.602-4.603-12.062,2.874-14.744,6.14-29.769,9.236-44.479v.003Z"/>
    <path class="st9" d="M66.024,18.776c-3.4,14.69-6.277,29.584-9.612,44.302-.868,5.788-2.464,7.989-8.112,9.937.543-3.909,1.596-7.832,2.337-11.724.485-2.566,1.278-5.129,1.562-7.722,2.72-2.939,4.114-7.623,2.621-11.454.26-1.363.519-2.857.929-4.196l-.133-.082c.297-.041.591-.154.728-.441.195-.417-.051-.991-.188-1.394.933-5.054,2.488-10.101,3.12-15.189l-.164-.085c2.358-.253,4.821-.786,6.909-1.955l.003.003Z"/>
    <path class="st15" d="M52.199,53.571c-1.428,1.391-3.475,2.361-5.474,1.722-6.479-2.628-3.779-13.128,1.288-15.923,3.615-1.879,6.673.823,7.299,4.418.523,3.441-.745,7.261-3.113,9.783Z"/>
    <path class="st6" d="M50.309,40.402c3.15.048,4.046,4.548,3.195,6.909-.331-1.148.092-2.928-1.821-3.376-2.911.424-4.107,7.23-1.128,8.047.468.027.933-.27,1.264-.567.13-.126.215-.267.396-.29-.936,1.818-3.243,3.263-5.293,2.464-4.924-2.392-1.685-12.845,3.386-13.183v-.003Z"/>
    <path class="st11" d="M37.933,18.055c1.275.386,2.559.765,3.861,1.063-.506,2.177-.994,4.428-1.24,6.653-2.31-.297-2.306,1.992-.15,2.211-.475,1.664-.492,3.482-1.039,5.122-.81-1.398-2.809-1.363-4.203-1.117.56-4.633,2.043-9.298,2.771-13.931h0Z"/>
    <path class="st15" d="M40.554,25.77c1.196.297,6.872.096,6.328,1.965-.068.29-.256.564-.523.704-.608.318-4.938-.393-5.956-.454-.403-.072-.875-.178-1.189-.451-.444-.345-.588-1.059-.123-1.452.417-.39.936-.325,1.462-.308v-.003Z"/>
    <path class="st15" d="M35.165,31.986c1.394-.243,3.393-.277,4.203,1.117.113,1.845-2.464.236-3.608.608-1.032.297-2.385,1.907-3.328,1.777-.478-.229-.431-.817-.202-1.213.591-1.169,1.732-1.886,2.932-2.289h.003Z"/>
    <path class="st15" d="M55.619,37.843c-1.961-2.293-2.525-2.57-5.635-2.529-.232-.034-.239-.072-.379-.249-.167-.516.28-1.011.694-1.251,2.101-.933,4.838.178,5.86,2.197.297.714.526,1.729-.54,1.835v-.003Z"/>
    <path class="st15" d="M30.907,55.85c.325-.034.581-.034.892.082,4.876,2.747,9.974,4.815,15.612,3.205.704-.106,1.36.472,1.353,1.182-1.5,7.442-11.208,13.876-16.983,6.485-1.903-2.426-3.499-8.676-.875-10.955h0Z"/>
    <path class="st13" d="M33.169,62.907c2.819-.144,5.98,1.626,7.647,3.851.205.287.311.536.243.888-.352.434-1.514.516-2.064.588-3.079.41-6.41-2.002-6.52-5.184.195-.147.458-.126.694-.144Z"/>
    <path class="st15" d="M35.534,37.347c9.38-.458,6.448,15.4-.817,16.545-9.158.212-6.66-15.571.817-16.545h0Z"/>
    <path class="st6" d="M36.026,38.919c3.731-.072,4.367,4.463,3.513,7.275.359-4.258-2.959-4.996-4.299-.943-.513,1.603-.567,4.251,1.312,4.951.588.161,1.046-.188,1.534-.454l.031.109c-1.124,2.047-4.09,3.209-6.052,1.633-3.66-3.379-1.063-11.977,3.96-12.568v-.003Z"/>
    <path class="st12" d="M35.698,5.012c8.382-.4,25.846,2.194,30.435,10.008-.082,3.581-8.341,3.731-10.972,3.728-7.015-.345-25.18-2.751-28.064-10.053.861-3.256,5.864-3.441,8.601-3.684h0Z"/>
    <path class="st11" d="M36.795,6.652c1.89-.147,3.748.024,5.607.335-1.688,1.111-3.045,2.088-3.14,4.282.878,1.835,2.74,2.57,4.114,3.96-3.246-.786-10.422-2.105-11.338-5.806,0-2.341,2.966-2.706,4.756-2.771Z"/>
    <path class="st12" d="M47.763,74.852c2.522-.577,4.9-1.722,6.841-3.441-1.227,3.991-.485,7.62-4.698,9.961-6.554,3.212-14.71,2.576-21.582.697.249-.236,1.401-6.865,1.674-7.9,5.703,1.65,11.963,2.163,17.762.683h.003Z"/>
    <path class="st9" d="M47.763,74.852c2.522-.577,4.9-1.722,6.841-3.441-1.295,5.946-1.278,9.609-8.184,11.351.161-1.309,1.51-7.36,1.339-7.91h.003Z"/>
    <path class="st12" d="M20.813,69.929c2.836,1.862,5.932,3.287,9.188,4.237-.273,1.035-1.425,7.664-1.674,7.9-3.161-.865-6.28-2.132-9.004-3.971.318-.854.369-1.876.54-2.778.325-1.743.871-3.625.95-5.385v-.003Z"/>
    <path class="st11" d="M26.53,72.959c1.141.448,2.3.851,3.472,1.21-.273,1.035-1.425,7.664-1.674,7.9-1.196-.325-2.375-.711-3.53-1.158l.256-.174c.741-2.392.96-5.293,1.476-7.774v-.003Z"/>
    <path class="st9" d="M19.324,78.095c-6.694-4.623-5.85-7.258-4.172-14.546.998,2.792,3.438,4.616,5.662,6.38-.082,1.763-.625,3.646-.95,5.385-.167.902-.222,1.924-.54,2.778v.003Z"/>
    <path class="st0" d="M20.831,89.101c.523.205,1.91.212,2.214.714-1.022,5.242-2.054,10.5-3.13,15.725-.229,1.162-1.524,1.391-2.221.485-.171-.253-.113-.557-.079-.844.485-2.939,2.648-12.991,3.219-16.084l-.003.003Z"/>
    <path class="st0" d="M37.085,92.857c.677.205,1.644.331,2.341.195-.69,3.841-1.285,9.216-1.931,13.063-.079.342-.181.772-.461,1.011-.83.656-2.006.212-1.927-.923.506-4.401,1.353-8.942,1.975-13.347h.003Z"/>
    <path class="st2" d="M38.104,85.763c.762.055,1.544.113,2.306.041l-.984,7.247c-.7.137-1.664.01-2.341-.195.325-2.365.622-4.743,1.018-7.094Z"/>
    <path class="st2" d="M22.225,82.151c.697.338,1.394.656,2.108.953-.308,1.421-.947,5.365-1.288,6.711-.308-.502-1.691-.509-2.214-.714.39-2.32.844-4.661,1.394-6.947v-.003Z"/>
  </g>
</svg>