<?xml version="1.0" encoding="UTF-8"?>
<svg id="Layer_1" xmlns="http://www.w3.org/2000/svg" width="6in" height="5.683in" xmlns:xlink="http://www.w3.org/1999/xlink" version="1.1" viewBox="0 0 432 409.145">
  <!-- Generator: Adobe Illustrator 29.4.0, SVG Export Plug-In . SVG Version: 2.1.0 Build 152)  -->
  <defs>
    <style>
      .st0 {
        fill: #d60000;
      }

      .st1 {
        fill: #80531b;
      }

      .st2 {
        fill: url(#linear-gradient);
      }

      .st3 {
        fill: #eed596;
      }

      .st4 {
        fill: #262816;
      }

      .st5 {
        fill: #8e9572;
      }

      .st6 {
        fill: #fff;
      }

      .st7 {
        fill: #d5bc2a;
      }

      .st8 {
        fill: #504b31;
      }

      .st9 {
        fill: #3f5c4e;
      }

      .st10 {
        fill: #6b7742;
      }

      .st11 {
        fill: #563a15;
      }

      .st12 {
        fill: #eec391;
      }
    </style>
    <linearGradient id="linear-gradient" x1="197.335" y1="-1155.558" x2="195.408" y2="-1164.22" gradientTransform="translate(-56.478 2475.965) scale(1.864)" gradientUnits="userSpaceOnUse">
      <stop offset="0" stop-color="#4a5038"/>
      <stop offset="1" stop-color="#778260"/>
    </linearGradient>
  </defs>
  <g>
    <path class="st4" d="M188.967,84.682c3.45-18.121,70.158-16.692,68.743,3.756,19.448,2.415,15.637,26.897,11.999,40.558,11.044,9.697,2.615,31.593-11.482,33.219-1.27,4.651-1.871,9.411-2.159,14.209.94,1.366,7.828,8.523,9.363,9.247,11.803,6.543,34.807,11.647,40.66,24.508,6.235-5.262,17.102-3.825,21.778-9.272-2.669.119-5.208.768-7.845.959-11.031.518-20.838-8.343-22.677-19.003-4.724.987-7.617-5.068-8.386-8.88-1.974-11.601,4.666-22.129,11.492-30.917-9.152-3.463-19.747-13.31-16.685-23.991,4.319-9.603,20.186-10.023,29.234-9.039,4.789-9.619,11.62-19.267,22.618-22.016,27.851-6.27,53.945,13.664,48.144,43.255,7.131,6.076,19.009,13.068,19.732,23.518.676,6.226-4.954,9.804-10.243,11.188l-.244-.149c-.164.11-.301.301-.512.301,3.71,14.546,5.167,21.866-8.991,30.388-1.76,1.443-3.321,3.193-4.948,4.786,16.502,4.82,28.608,13.236,34.347,29.957,10.357,32.95,30.216,82.918-16.149,96.085.77,4.146,7.885,18.219,2.308,20.505,2.483,10.541,5.322,21.2,5.656,32.096,1.878.09,5.769-.438,7.287.54.559.876.29,2.19-.828,2.42-35.092.54-92.694-.316-127.898.15.138,4.617.255,9.183-.032,13.799-16.19,4.274-34.044,4.409-50.658,6.641-8.43.208-64.427-3.914-70.107-6.402-1.025-2.41-.807-7.251,1.705-8.817,0,0,5.047-3.277,5.047-3.277,1.049-.695,2.494-1.004,3.367-1.919l-.109-.274c-3.026.037-6.052.23-9.076.186-2.317,5.028-10.754,10.239-16.341,9.262-2.461,1.759-4.941,1.756-7.811.901-5.021,4.22-9.705-.268-12.079-4.912-4.976,1.135-10.266-.141-12.314-5.281-20.102,0-68.032.029-87.46.069-1.203.149-2.423-.542-2.302-1.886,2.88-2.192,8.905.545,11.882-1.216.698-1.083-.872-2.062-1.557-2.736-5.062,1.526-7.232-.963-11.145-3.577-12.152-5.332-12.193-26.237-8.905-37.16-3.754-2.766-3.703-7.799-4.456-11.995-6.639-31.176-9.732-93.488,10.186-119.483,8.507-9.926,21.564-13.902,33.089-18.655.941-1.011,1.463-8.598,1.371-10.239-.138-2.464-2.68-6.865-3.597-9.362-1.322.205-2.441,1.566-3.822,1.977-5.445,1.416-10.705-1.531-15.394-3.949-10.229-8.806-11.462-33.868,1.786-40.557.254-5.493.636-11.036,1.314-16.488,5.86-31.997,48.677-43.083,74.023-27.093,6.69,1.733,10.221-3.096,12.61-.521,1.595,2.648-1.092,5.675-3.102,7.248,5.865,3.34,10.852,8.08,12.679,14.754,1.125,3.256,1.592,10.435-3.867,7.965,1.017,5.543.711,10.187-1.074,15.551,8.657,8.096,8.92,38.545-6.235,38.873-1.813,10.955-6.37,18.391-14.757,25.53,2.773,1.595,5.826,2.633,8.718,3.984,21.064,8.254,20.347,33.408,20.281,52.455l1.87-1.037c-.142-2.777.142-5.551,1.022-8.153-.803-1.023-1.517-1.976-2.105-3.142.137-2.226.623-4.288.93-6.476.322-5.736.588-12.057,6.928-14.5-.591-5.48-.813-13.566,1.122-18.771l2.151-1.34c.108-2.357-.025-5,.364-7.306.264-1.564,1.247-2.79,1.305-4.436.147-4.181.022-8.364.067-12.547.037-3.37.266-6.766.179-10.134-.313-4.725-2.734-21.49,6.466-14.268,2.592,4.888.905,10.911,1.111,16.222-.043,7.291.154,14.589.09,21.876,2.35,3.228,1.891,7.761,1.912,11.562.797-.381,1.622-.737,2.4-1.153.438-6.532,10.664-6.559,10.298.413,5.957,1.573,4.566,8.08,4.777,12.834,7.88-6.192,17.915-10.749,26.615-15.663-14.77-9.416-15.467-27.879-14.851-43.713-1.357-6.237-4.13-8.725-3.773-15.994-.385-1.278-1.955-.932-2.624-1.973-.853-3.747,3.578-4.97,6.403-5.616-4.199-11.225-6.19-24.733,3.672-33.686-1.147-1.535-1.97-2.894-2.499-4.771h0ZM280.176,355.853c1.92-.018,5.507-.54,7.157.439,1.027,1.9,1.145,6.171.524,8.228-.555,1.667-2.93,1.47-4.355,1.674-.14,4.617-.092,9.234-.133,13.852.554.244,11.594.068,12.496.108-.248-10.326,1.743-20.63,3.184-30.816l-2.054-1.577c.42-2.651,3.716-13.84,2.678-15.479-2.132-1.485-5.172-.337-7.312-1.745-4.868,7.967-8.549,16.741-12.184,25.316h0ZM385.769,294.75c1.862-1.274,3.956-2.817,5.984-3.782-.792-4.361-1.448-9.466-3.082-13.596-1.282,5.74-2.249,11.533-2.902,17.378h0Z"/>
    <path class="st12" d="M138.029,237.265c1.089-1.267.225-3.344.258-4.877.163-4.816,7.602-8.638,11.499-10.088,2.011,8.705-3.65,3.727-11.829,15.567l.072-.602h0Z"/>
    <path class="st10" d="M49.12,191.606c3.186,28.717,60.639,33.079,52.695.67,17.766,4.067,29.349,14.58,29.615,33.552,1.072,7.188.35,14.404.229,21.606-1.345.98-2.745,1.834-4.172,2.689-.17-5.102-.073-28.232-3.582-30.523l-.36.062c-.839,1.94.48,6.649.76,8.826.973,7.578.54,15.237.912,22.842-9.784,6.361-18.41,14.552-10.539,26.26-.08,1.592-.322,3.024-.719,4.56-10.274,3.125-8.986,15.607-5.468,23.479-3.794,2.332-7.811,4.48-11.449,7.042-2.654,1.869-5.03,4.647-7.95,6.044-11.289,2.915-38.938,1.63-49.905-4.212-.113-15.544.714-31.072.941-46.612.325-20.781,6.054-51.647-15.598-63.567,18.584,18.141,13.75,35.383,13.443,58.884l-1.627,57.955c-3.067,5.359-18.026,3.7-22.769,1.227-6.979-30.915-7.252-75.92,3.825-105.65,6.331-14.338,17.973-19.792,31.72-25.133h0Z"/>
    <path class="st7" d="M369.932,202.37c23.762,2.981,38.547,17.639,44.112,40.811,4.671,15.272,13.589,50.201,5.955,64.337-8.743,14.09-27.68,18.533-42.331,23.703,2.882-8.546-.104-19.703-8.429-24.015,8.216-3.919,18.74-12.37,27.329-14.485,4.151-.538,8.329.852,12.334,1.729-3.683-4.276-10.007-4.04-15.152-3.824,2.078-1.623,5.225-3.671,7.687-4.534,1.142-.4,3.664-.738,4.374-1.735-4.047-1.505-8.473,1.384-11.652,3.707-5.532-24.565-19.345-45.832-2.685-69.885l-.122-.312c-2.829.905-4.425,4.568-5.821,6.98-8.146,15.32-3.261,32.579.982,48.174.088,3.207-1.421,6.735-1.993,9.899-.775,4.288-1.095,8.637-1.531,12.967-8.862,5.706-17.851,11.522-27.636,15.529-4.356-1.994-3.574-1.774-2.9-6.219,1.579-10.849.105-21.35-13.617-19-.381-2.817-1-5.086-2.112-7.707-6.142-2.184-19.143-3.603-23.655,2.073-2.598,5.304-1.31,6.112-7.666,3.695-.549-2.077-.953-4.144-1.688-6.174-8.479-15.538-3.107-32.406,1.559-47.796l-.384-.191c-4.022.473-9.173,26.665-8.44,30.826.103,8.934,4.048,12.182,1.963,21.72-3.551-2.711-9.781-2.282-13.638-.256-.316.194-.205.145-.272.583,1.629,1.971,7.784-1.615,11.566.538,1.351,1.824-2.056,3.865-3.2,5.001-3.386-1.3-5.86-1.748-9.38-.468-1.431.54-5.147,2.029-3.847,4.025,1.821.385,4.859-2.363,6.788-2.938,1.493-.485,3.954-.47,4.57,1.246.149.879-1.324,11.205-1.813,12.252-4.564,5.325-7.527,10.327-6.219,17.615-21.322-16.147,3.241-73.693,12.378-93.233,7.107-12.725,12.887-16.191,26.763-20.13-7.839,28.089,43.27,21.59,47.82-4.509h0Z"/>
    <path class="st9" d="M257.005,181.481c7.695,3.455,8.042,18.563,8.525,26.254-10.862,3.655-12.483,3.029-2.934,11.303-5.598,10.254-26.021,35.913-32.786,46.06-3.683,5.324-9.452,10.004-10.094,16.801,5.222-6.385,45.758-60.316,45.571-63.003-.14-2.019-4.695-4.981-6.203-6.343,3.469-1.322,6.511-1.409,9.294-4.123.078-5.334-1.614-13.771-2.344-19.479,3.061,1.096,6.063,2.683,9.035,4.022,9.545,4.64,24.11,8.854,29.296,18.631-11.521,10.365-17.24,25.292-21.271,39.9-.046-15.875-.364-35.588,13.375-46.257l-.294-.257c-3.511-.632-7.518,6.014-9.232,8.484-6.92,12.317-6.127,29.045-6.485,42.569-6.274,24.357-20.115,59.612,10.684,72.81-14.897.45-29.894-.496-44.787.392-4.451,7.44-6.401,16.551-11.298,23.729-13.611-3.647-15.734-21.907-17.644-33.76-1.791-14.402-1.182-28.465,1.78-42.674,10.645-32.344,29.11-62.085,37.811-95.06h0Z"/>
    <path class="st4" d="M222.236,285.868c4.254-.712,5.415,5.19,1.685,6.807-4.42.553-4.924-4.786-1.685-6.807Z"/>
    <path class="st12" d="M108.871,105.152c4.174,2.244,5.071,12.091,9.033,6.473,3.506,24.438,8.408,64.763-17.946,78.117-13.231,5.985-29.136-1.497-37.914-11.873-3.126-3.528-6.604-8.54-7.133-13.356-.277-2.522,1.338-5.267,1.806-7.756,1.471-7.83.647-16.154-1.219-23.823,6.417-6.758,8.19-17.741,5.58-26.515,5.012,3.024,10.637,4.787,16.345,2.77-.866,1.742-1.653,3.498-2.401,5.293,5.464,2.708,11.825.668,16.567-2.564-.312,1.317-.685,2.639-.738,3.997,2.014,2.365,7.158.382,9.557-.621,4.441-2.172,6.866-5.56,8.464-10.139h0Z"/>
    <path class="st4" d="M97.58,136.717c1.389.591,1.647,2.623,2.043,3.946,1.81,7.154,9.107,8.601,7.523,16.107-2.424,5.697-11.659,6.432-15.465,1.855l.13-.609c2.78-.428,9.164,2.281,11.559-1.118,4.88-6.177-12.427-12.974-5.79-20.182h0Z"/>
    <path class="st4" d="M73.475,161.963c1.765.23,3.818,2.432,5.203,3.534,4.435,3.529,12.781,5.435,18.292,4.109,1.998-.3,5.122-2.648,6.944-1.575-2.798,9.283-30.982,4.407-30.439-6.068h0Z"/>
    <path class="st4" d="M80.756,121.459c2.685-.078,7.302.27,7.791,3.561-.694,1.515-8.722-.492-11.477.861-2.011.506-4.216,3.435-6.343,2.202.366-4.239,6.501-5.935,10.029-6.623h0Z"/>
    <path class="st4" d="M106.905,120.731c3.722-.543,8.591,1.91,8.376,6.12-.382.588-.339.556-1.024.707-4.889-3.222-5.231-2.913-11.023-2.418-2.406-2.17,1.768-4.209,3.672-4.408h0Z"/>
    <path class="st4" d="M72.98,138.583c3.522,2.651,7.283,5.275,11.399,1.88.609-.517,1.127-1.21,1.998-1.134.801,3.299-2.979,5.531-5.853,5.809-3.506.664-11.106-2.173-7.543-6.555h0Z"/>
    <path class="st4" d="M102.519,138.082c7.177,5.687,4.874,3.416,11.875,1.584l.344.305c-1.262,7.474-12.924,6.326-12.219-1.888h0Z"/>
    <path class="st12" d="M130.054,276.195c2.807.999,4.69,3.054,8.004,3.725,18.198,2.148,37.196-5.748,55.351-1.069-.217,2.405.127,4.754.388,7.141-5.858-1.173-9.886,2.773-15.428,3.799-1.307.241-3.371-.486-4.426.058l-.083.42c2.982,6.101,15.288-2.025,20.271-2.348.236,3.279-.73,6.417-.926,9.666-.178,3.416.408,6.836.24,10.254-1.04,8.608-3.034,32.893-15.688,30.198-2.177,3.008-3.942,5.323-7.731,6.381-6.764,1.775-18.871.843-21.54-6.804-15.081,1.42-24.605-11.552-25.275-25.497-9.889,8.288-18.482-18.678-12.763-24.493,1.999-2.47,6.066-3.575,8.633-1.342,2.761,2.367,2.971,6.12,3.268,9.47,9.047-1.763,9.335-12.316,7.707-19.56h0Z"/>
    <path class="st4" d="M173.977,295.317c4.942.4,14.069-1.094,18.152,1.004l-.224.467c-1.551,1.048-2.744,1-4.566,1.057-1.431,5.544-6.137,5.909-6.823-.191-1.769-.052-3.212-.371-4.842-1.024.614,3.437,3.004,7.1,6.331,8.395,3.059,1.092,5.229-.975,7.832-2.171-1.32,2.735-3.466,4.714-6.555,4.933-3.113,8.317,4.907,13.098,2.065,21.057-.532.377-.5.386-1.143.306-.565-.64-.602-4.292-.856-5.428-.512-2.295-1.322-4.435-2.302-6.566-5.657,7.258-18.203,3.408-21.869-4.035-6.481,3.482-10.988,9.17-12.746,16.272-.237.473-.247.552-.76.727-3.884-6.995,10.437-19.806,16.854-21.396-.374,1.062-.867,2.081-1.331,3.106,3.322,6.496,16.369,9.316,18.938.918,1.913-7.418-8.648-9.793-6.155-17.431h0Z"/>
    <path class="st4" d="M145.365,285.729c8.436-.848,15.214,6.692,23.342,3.665.533.03.582.114.898.496-3.242,7.472-15.8-1.066-21.355-.987-1.941-.212-6.231,1.593-7.243,1.145-1.373-1.801,2.852-4.072,4.359-4.318h0Z"/>
    <path class="st4" d="M144.65,294.157c4.542-.098,15.863-.921,19.213,2.497-1.111,1.324-3.837,1.072-5.406,1.678-.202,5.566-7.931,4.829-6.576-.733-2.286-1.729-7.607-1.093-9.111-2.917.518-.458,1.222-.443,1.88-.524Z"/>
    <path class="st4" d="M165.745,324.131c5.022.294,14.338.289,15.285,6.642-.909.409-1.311-.037-1.957-.688-3.046-3.074-8.169-3.311-12.295-3.462-2.694.092-5.28.313-7.88,1.067-1.966.571-5.876,3.198-7.549,2.803l-.207-.401c2.026-4.593,10.188-5.543,14.604-5.962h0Z"/>
    <path class="st4" d="M113.401,288.924c3.996.878,6.001,4.058,6.822,7.819-2.439,5.063-2.231,4.663-.539,9.73-.446.462-.525.324-1.137.343-7.21-5.272,4.208-12.729-5.643-15.095-.6-.185-.988-.226-1.298-.806.284-.863,1.125-1.416,1.794-1.991Z"/>
    <path class="st4" d="M160.761,303.373l.358.212c-2.766,4.921-9.931,5.702-14.363,2.641-.647-.381-1.018-1.093-.867-1.837,1.218-.532,3.106.863,4.333,1.223,3.57,1.048,7.466-.519,10.538-2.239h0Z"/>
    <path class="st12" d="M324.104,122.504c9.867,1.179,24.005,4.515,33.03,8.546.257,9.082,4.077,14.86,8.388,22.4.749,1.923,1.415,7.118,2.927,8.441.735.642,2.47-1.483,3.474-1.54,1.899.977,2.151,4.198,1.834,6.074-.931,4.014-5.615,5.412-9.155,4.095-3.588,12.787-13.144,24.974-26.737,27.445-15.677,1.174-27.135-15.707-28.892-29.755-.829-6.378.673-12.63,1.569-18.91.712-4.915-.299-10.294,1.797-14.91,1.637-2.679,5.467-4.158,7.712-6.39,1.614-1.605,2.623-3.731,4.052-5.496h0Z"/>
    <path class="st4" d="M346.33,167.809c3.266.43,3.653,1.051,3.825,4.222l.499.036v.524c-.534.573-1.138.374-1.896.432-1.718,2.229-2.642,5.026-4.339,7.315-3.926,5.971-11.934,7.648-17.463,2.826-1.45-1.363-7.1-7.699-4.543-9.313,8.077,2.57,17.45,2.94,24.113-3.288-.128-.928-.196-1.816-.197-2.753h0Z"/>
    <path class="st3" d="M343.354,176.18c-.543,3.66-4.479,6.512-8.019,6.933-4.094.499-7.224-2.216-9.177-5.516,7.213,1.59,10.477,1.247,17.196-1.417h0Z"/>
    <path class="st4" d="M330.352,144.413c.876.374,1.076,1.438,1.153,2.291.818,6.716-3.138,9.904-7.388,14.095-4.015,7.751,7.347,4.938,10.053,6.342l.057.684c-3.869,3.167-12.327,1.586-13.759-3.65-1.324-5.647,5.41-7.523,7.469-11.741,1.235-2.53.908-5.692,2.416-8.02h0Z"/>
    <path class="st4" d="M345.325,144.342c5.228-.993,6.265,7.264,2.159,9.263-5.106,1.322-6.009-7.37-2.159-9.263Z"/>
    <path class="st4" d="M320.306,143.837c2.567-.099,3.874,2.233,4.323,4.445-.504,2.05-1.182,4.424-3.55,4.694-4.242-.458-3.617-7.226-.773-9.139h0Z"/>
    <path class="st4" d="M345.299,134.779c3.547-.345,8.378.488,9.797,4.231-.722,1.55-3.026-.308-4.027-.79-4.619-2.463-7.101.947-10.69.02.049-2.336,3.1-3.035,4.92-3.46h0Z"/>
    <path class="st4" d="M319.063,134.781c2.051-.098,6.55-.293,6.375,2.666-2.258.393-4.564-.401-6.887.137-1.374.414-3.549,2.047-4.908,1.712.078-2.776,3.102-3.938,5.419-4.515h0Z"/>
    <path class="st12" d="M247.62,129.316c2.381.369,4.755.725,7.105,1.264.207,2.933-.652,7.379,1.961,9.39,2.273-2.079,1.857-9.61,7.771-9.033,14.063-.721,6.554,30.492-8.699,28.087-2.77,22.13-27.205,39.047-48.548,30.333-15.736-6.857-17.563-26.68-16.337-41.759,5.128,1.903,7.737,2.03,12.905-.036-.852,2.43-2.097,4.678-2.811,7.166.865,3.863,4.894,5.36,8.488,5.453,2.454.129,7.151.211,7.711-2.856-1.352-.982-3.253-.181-4.803-.22-3.196.1-6.506.367-8.315-2.798,3.212-8.814,6.404-11.882,6.724-22.297,10.934-2.592,4.771,1.955,9.002,10.163,3.371,7.683,13.767,9.108,20.63,5.531,6.86-3.679,5.822-11.948,7.216-18.389h0Z"/>
    <path class="st4" d="M228.28,166.878c.768-.122,1.154.38,1.42,1.019-.032.567-.01.588-.384,1.008-5.883,1.07-20.986,2.406-26.583-.358.036-.581.029-.673.367-1.138,8.337-.309,16.838.688,25.18-.53h0Z"/>
    <path class="st4" d="M266.356,135.179c.471-.021.778-.002,1.225.154.358.858-.278,1.329-.806,1.96-4.547,4.434.429,10.084-4.349,14.488-.498.034-.446.118-.875-.207-.096-1.685.743-3.208.808-4.869-.226-4.74-.825-8.862,3.997-11.526h0Z"/>
    <path class="st4" d="M210.312,173.591c2.795.147,8.13-.82,10.122,1.328-.134.569-.287.771-.706,1.175-3.082-.179-7.408.858-9.973-1.073-.016-.742.144-.839.557-1.43h0Z"/>
    <path class="st9" d="M396.07,349.567l.254.064c3.044,4.076,4.506,23.891,5.43,30.012-13.588.966-49.116.137-63.248.529-1.923-6.452-2.392-13.174-3.545-19.77-3.308,3.46.427,15.388,1.622,19.675-10.333.205-27.581.051-38.109.026-.135-6.799,1.275-22.548,3.224-28.75,9.698,4.956,21.032,5.447,31.688,6.578,21.174,1.482,42.637-1.383,62.683-8.363h0Z"/>
    <path class="st1" d="M109.216,308.292c1.182.514,3.039,4.142,3.798,5.375-2.367,7.432-6.613,20.305,2.544,24.676,1.018.66,2.848.875,3.117,2.22l-.636.591,1.579-.405c-1.857,2.23-4.48,3.931-6.427,6.138,1.586,5.595,7.625,14.212,11.034,19.093-7.735-.41-15.436-1.294-23.188-1.621,3.472-12.451,4.505-34.243-10.689-39.088,11.778,9.22,12.093,25.847,7.921,39.155-7.883-2.083-16.423-3.71-21.791,4.15.494,2.065,4.668-1.94,5.664-2.366,3.24-1.633,7.62-.841,11.042-.388-4.548,1.581-7.977,3.691-10.728,7.729,9.954-7.477,20.792-7.002,32.492-5.645-4.42,3.04-6.059,6.988-6.407,12.212-9.791.332-31.808-.045-41.899.074,1.479-30.459,14.067-58.21,42.575-71.899h0Z"/>
    <path class="st1" d="M86.374,80.309c6.321-.074,16.655-.543,21.573,4.094.422-.48.803-.858,1.311-1.245,2.967.083,5.808.716,8.762-.009.739-.066.98-.169,1.541.314l.007.549c-1.032,1.83-4.154,1.939-4.812,3.965.866.998,2.599,1.053,3.729,1.718,5.592,3.685,11.812,9.847,11.33,17.064l-.324.23c-3.704-2.789-7.417-5.728-11.463-8.079.854,2.248,1.851,11.263-1.531,11.661-1.123-.853-1.716-2.663-2.617-3.834-1.91-2.48-4.218-4.707-6.286-7.063-.661,4.164-1.384,7.87-4.509,10.927-2.19,1.892-7.098,5.687-9.927,3.568.614-2.238,4.268-10.798,1.841-12.189-1.274.868-2.354,5.825-5.625,8.18-3.403,2.319-6.603,3.076-10.679,3.028,1.291-3.066,4.544-8.186,2.246-11.319-1.32.362-3.06,4.428-6.47,5.346-4.037,1.086-9.252-1.25-12.679-3.257-1.418-.703-2.705-2.513-4.434-1.883,3.755,8.693,3.354,19.906-2.727,27.556-2.083-3.649-5.176-5.646-9.324-5.962-1.184-23.314,17.548-43.555,41.069-43.359h0Z"/>
    <path class="st9" d="M196.244,196.984c.037,2.018-5.279,9.137-6.535,11.489,1.933,2.244,4.304,3.427,6.838,4.869-2.462,2.191-5.077,4.206-7.589,6.339,5.635,19.86,13.172,40.046,27.151,55.595-.614,8.256-2.075,16.462-2.242,24.762-.281,6.449.78,12.867.824,19.297.036,5.201-2.846,18.193-4.771,22.912-3.799-8.567-7.271-18.224-15.187-23.879,1.475-6.477,1.369-13.034,1.106-19.623.737-6.082,1.822-11.793-.016-17.794,2.301.278,4.566.29,6.878.294,1.323-.67,5.288-3.56,2.776-4.85l-.187.652-.243.1c-.628-1.066-1.264-1.917-2.102-2.827,10.27-8.388-17.079-24.03-23.785-26.889,3.305-8.566,3.289-14.359,2.399-23.19-.108-5.721,1.432-10.263-4.846-13.126-1-3.774,16.206-12.338,19.531-14.133h0Z"/>
    <path class="st12" d="M237.213,93.181c4.081-.007,9.738-.171,12.869,2.783.201.433-.606,2.61-.762,3.151-3.487,9.121,1.724,19.268,5.503,27.595-4.911-.344-9.243-2.468-14.095-3.165-1.736-1.509-2.983-2.22-5.364-2.377-5.191.051-14.549,1.017-17.906,5.491-1.583,1.295-4.708.853-6.612.619-1.974-.9-2.304-2.747-5.318-3.749-4.677-1.511-10.868-3.587-15.025-.216-1.231-9.374-1.025-22.875,7.06-29.295,16.453,5.4,23.648.035,39.65-.837h0Z"/>
    <path class="st9" d="M39.258,317.139c14.338,6.854,30.997,5.286,46.408,5.004-14.846,17.966-19.764,35.027-21.807,58.063-8.247-.408-16.564.185-24.825-.129.863-1.036,1.63-2.073,2.804-2.771,1.237-4.826.347-8.859-.573-13.643l.194.006c1.701,1.961,4.738,1.551,6.392-.259,3.385-3.545-.437-15.796-1.995-19.704-.724-1.818-1.679-3.605-2.647-5.305-1.078-1.893-3.11-3.202-3.683-5.385-1.3-4.96-.124-10.789-.269-15.876h0Z"/>
    <path class="st1" d="M151.85,245.273c18.621-1.588,41.873,8.441,51.287,24.717-.846.861-1.648,1.768-2.465,2.657-16.05-9.21-36.985-7.084-54.34-3.185-5.032,1.131-24.784,7.232-28.562,6.077-1.471-.45-2.653-2.549-3.404-3.812-.769-16.392,23.77-26.117,37.484-26.455h0Z"/>
    <path class="st7" d="M392.786,328.706c3.09-.812,5.449,14.623,5.351,16.228-.135.586-.857,1.043-1.347,1.32-27.468,11.054-70.171,14.741-97.068,1.279,1.202-5.491,2.64-9.227,3.148-15.096,2.788.333,5.331.425,8.134.163,3.43,5.139,6.04,5.83,11.465,7.477,4.271,3.117,9.889,4.208,15.162,4.398,9.235.647,16.243-4.509,22.921-10.29,1.211.741,2.339,1.576,3.48,2.421,4.098.476,8.01-.841,11.817-2.194,5.719-1.78,11.319-3.628,16.939-5.706h0Z"/>
    <path class="st8" d="M276.548,366.249c1.449-.12,2.935-.095,4.39-.131-.663,9.618-.119,19.291-.334,28.925-15.806,2.843-32.001,3.511-47.887,5.867.106-10.925.608-22.002-.217-32.905,12.329-.169,31.514-1.378,44.048-1.756h0Z"/>
    <path class="st8" d="M224.191,367.83c2.017-.14,3.962-.145,5.979.003,1.071,8.39.175,24.752.436,33.392-19.767-1.128-46.184-3.662-65.929-6.031.12-1.035-.006-3.031.644-3.868,1.539-1.985,22.886-8.382,26.558-9.689,8.81-3.104,18.012-5.988,26.137-10.668,1.934-1.083,3.978-2.671,6.174-3.139h0Z"/>
    <path class="st11" d="M215.477,75.319c9.07.015,43.132.461,39.495,14.932,1.292,1.325,5.22,1.553,7.051,2.24,12.318,6.841,7.544,24.525,4.491,35.535-2.51.026-4.228.047-6.435,1.375-2.761-3.449-2.404-4.152-4.077-7.831-4.935-7.194-6.611-17.418-2.584-25.412-5.457-7.288-16.136-6.063-24.18-5.131-2.199-6.906-5.618-10.269-10.868-14.953-.763-.157-1.661-.474-2.385-.109,4.597,4.817,9.153,8.783,10.928,15.451-1.582.419-5.515,1.803-6.984,1.143-2.805-3.902-8.247-13.649-15.163-15.677,1.437,2.045,3.723,3.571,5.404,5.435,2.907,3.225,5.332,7.047,7.718,10.665-1.482.28-2.928.495-4.431.616-1.888-4.052-11.535-13.272-15.363-14.215l.205-.344c5.568-1.815,11.225-3.712,17.177-3.719h0Z"/>
    <path class="st1" d="M303.324,113.067c28.558-1.288,85.377,12.465,97.272,41.423.619,5.382-5.115,8.298-9.752,8.465-5.864-12.756-5.71-21.569-20.081-27.818-18.124-10.086-44.69-20.368-64.831-11.64-4.605,3.772-4.839,10.86-5.415,16.262-5.893-1.384-13.406-9.419-14.344-15.504-1.345-8.995,10.616-10.609,17.152-11.19h0Z"/>
    <path class="st1" d="M360.1,132.473c5.776,2.964,15.422,7.179,19.604,12.103,3.782,7.231,13.371,28.255,12.297,37.359-.593,5.215-3.817,7.861-7.631,10.906.751-2.857,2.104-6.184.461-8.954l-.296-.064c-1.459,3.16-2.421,16.806-12.374,15.254-6.022,1.572-7.849-3.658-8.85-8.534-1.526-7.09.708-10.214,2.668-16.679,4.745,1.358,7.376-2.687,10.012-5.697,1.177,1.036-.895,9.131-.481,11.193l.284.089c6.202-11.001,1.556-18.039-6.543-25.891-4.475-6.483-8.974-12.955-9.151-21.085h0Z"/>
    <path class="st8" d="M150.808,195.152c7.614.332,14.921-.177,22.33,2.025,2.042,15.689-1.022,31.696-.739,47.461-6.778-1.941-13.871-2.275-20.927-2.057,1.653-9.744.761-19.688.634-29.515-.368-5.859.792-12.381-1.298-17.913h0Z"/>
    <path class="st4" d="M160.564,199.336c3.306-.197,6.587.446,9.869.174.55,7.35.791,14.786-.04,22.134-5.177.029-10.363.179-15.538.215-.332-2.425-.578-4.811-.495-7.261.988-4.247-.748-10.68,1.796-14.463l.388.126c.811,1.732.357,4.89.317,6.806,4.087-.165,7.908.265,11.933.874.084-2.193.11-4.387.077-6.581-3.661.252-7.565-.29-11.233-.522.958-.53,1.95-1.005,2.927-1.501h0Z"/>
    <path class="st8" d="M156.484,209.152c4.042.461,8.324.395,12.394.503.003,1.791-.093,3.55-.236,5.335-3.938-.782-8.013-.935-12.02-.894-.15-1.658-.166-3.28-.139-4.944h0Z"/>
    <path class="st8" d="M156.434,216.629c4.098.275,8.285-.055,12.406.138.018,1.028-.049,2.056-.095,3.082-3.979-.075-8.071-.506-12.075-.365-.111-.945-.16-1.905-.235-2.854Z"/>
    <path class="st4" d="M157.076,232.368c3.251-.149,6.473.277,9.712.519l1.006,1.99c-3.159.542-13.071-3.082-10.978,2.984l.508.096c1.324-.873,2.858-.544,4.347-.59,1.973.067,4.751-.87,6.28.657l-.11.328.136-.036c-1.254,1.976-9.961.801-12.261.733.423-2.047-.386-3.595.6-5.598.209.093.398.22.588.346.308-.47.207-.894.173-1.43h0Z"/>
    <path class="st4" d="M159.773,227.024c2.713-.287,5.965.33,8.743.453-.092.505-.508.908-.816,1.313-1.884.403-11.242.824-12.196-.682.873-1.153,2.963-.996,4.27-1.083h0Z"/>
    <path class="st3" d="M275.432,331.402c4.294-.15,8.573-.003,12.865.147-4.228,7.554-8.095,16.061-10.917,24.229-13.61-.485-27.545.777-41.2.928,4.211-8.197,7.823-16.773,11.554-25.197,9.224.038,18.477.127,27.698-.107Z"/>
    <path class="st7" d="M340.745,90.121c22.369-2.365,43.283,12.963,40.566,36.777-15.111-15.49-41.902-25.435-63.1-19.996,4.829-8.887,12.237-15.649,22.534-16.781h0Z"/>
    <path class="st12" d="M328.25,305.432c2.294.329,4.641,1.372,6.928,1.884,3.941.883,8.21,1.065,11.983,2.576,2.819,1.128,5.21,3.19,8.076,4.259,1.88-.588,4.301-2.018,5.963-.289,4.14,3.529,8.098,17.453-1.009,16.497-6.251,7.164-14.327,11.726-23.929,11.481,2.902-1.433,5.295-2.589,7.348-5.169-5.838,2.302-12.389,6.215-18.556,2.573,5.421-1.143,10.742-2.42,14.571-6.713-7.703,2.465-17.517,7.777-24.555,1.297,9.3-1.116,20.697-5.332,24.734-14.463-2.357-5.623-8.09-5.201-11.93-9.089.02-1.586-.044-3.31.378-4.846h0Z"/>
    <path class="st12" d="M360.591,185.907c.212,7.435.576,11.814,7.047,16.543-4.535,15.54-27.71,26.454-41.178,15.816-4.405-4.261-2.748-10.788,1.715-14.293.482,1.207,1.093,3.563,2.295,4.189l.311-.259c.632-2.235.005-5.355-.205-7.668,11.556,2.95,23.427-5.46,30.014-14.327h0Z"/>
    <path class="st1" d="M317.107,123.358c1.191-.203,2.476-.138,3.684-.16-3.198,5.357-9.343,8.038-14.438,11.166-.411.359-.395.607-.487,1.119.632.445,1.627.034,2.438.205.512.93-.002,3.479-.076,4.614.272,6.919-1.499,13.574-2.215,20.401-1.584,14.954,7.496,29.695,19.438,38.11-12.765,1.893-23.973-5.104-26.013-18.189-.305-2.069.048-5.26-1.073-7.005-.309-.482-.501-.74-1.078-.871-.955,1.996.303,5.3-1.376,7.038-2.396-.463-3.786-4.333-4.185-6.459-1.976-11.638,5.935-20.24,11.08-29.692,2.271-11.785-1.329-19.968,14.301-20.277h0Z"/>
    <path class="st12" d="M37.333,335.927c4.793.473,13.955,26.184,6.92,26.713-4.277-.52-2.652-12.596-4.388-15.044l-.382.005c-5.588,7.05,3.148,24.005-1.053,27.302-5.878.125-7.733-17.14-8.179-21.517l-.781-.303c-2.934,6.435,1.18,16.213,4.014,22.224-11.09-2.664-9.212-18.828-12.314-21.496l-.313.253c-1.509,5.3,1.41,12.031,3.658,16.785-9.896-5.446-8.445-24.018-7.141-33.62,6.111,2.085,14.227,1.772,19.959-1.303h0Z"/>
    <path class="st8" d="M306.325,298.14c18.855-1.323,21.822,28.632,4.18,32.52-19.377,3.759-23.05-30.777-4.18-32.52Z"/>
    <path class="st4" d="M305.712,302.519c15.815-1.921,18.002,19.41,4.348,24.303-13.399,3.221-16.832-21.679-4.348-24.303Z"/>
    <path class="st2" d="M307.747,305.719c3.279-1.687,6.921,1.306,8.198,4.267,1.64,4.164.499,10.447-4.016,12.266-3.191,1.066-5.996-1.486-7.702-3.913-2.393-1.276-1.598-3.981-.473-5.875-.338-2.863,1.627-5.384,3.993-6.745h0Z"/>
    <path class="st5" d="M307.747,305.719c.783.24,1.893.358,2.395.986-.159,2.055.354,2.049,1.23,3.552.181.856-1.555,3.211-2.123,3.826-1.432,1.678-3.824.56-5.708.847.266-.917.487-1.531.212-2.466-.338-2.863,1.627-5.384,3.993-6.745h0Z"/>
    <path class="st8" d="M303.754,312.465c.275.935.054,1.549-.212,2.466.191,1.15.407,2.275.685,3.409-2.396-1.276-1.595-3.982-.473-5.875h0Z"/>
    <path class="st8" d="M302.404,306.695c.395.463-.276,2.524-.401,3.179-1.085,6.247.02,12.98,7.065,14.688l.082.896c-.755-.065-1.527-.048-2.194-.447-.561-1.411-1.489-1.31-2.699-1.938-4.94-3.441-4.293-11.596-1.853-16.378h0Z"/>
    <path class="st12" d="M143.234,365.772c9.385-.448,26.225,13.101,13.579,20.629-.442-6.215-3.261-14.406-10.029-15.803-.01,1.509,2.316,3.041,3.336,4.099,3.198,3.315,3.845,7.911,3.772,12.3-3.453,4.227-4.762,3.28-5.378-1.778-.957-4.593-3.865-10.387-9.102-10.759.117,1.101,4.331,4.673,5.295,6.68,1.75,3.466,3.221,10.414-2.707,10.099-2.424-4.611-3.815-11.487-9.001-13.913l-.446.252.068-.229.436.002-.507.172c.129,2.637,9.841,12.004,2.899,14.335-4.55.226-5.497-7.726-9.367-8.523-.626.525-.581,1.125-.958,1.771-1.548,1.514-4.465.592-6.01-.584-3.027-2.279-3.015-6.621-.426-9.233,5.402-6.609,16.458-8.748,24.547-9.516h0Z"/>
    <path class="st9" d="M203.605,192.976l.35.088c1.109,9.516.957,32.924,4.093,43.734,1.135,8.806,9.461,27.219,8.922,35.1-13.389-12.991-20.02-34.041-25.21-51.61,2.292-2.368,5.489-4.018,8.169-5.928-1.915-2.74-4.532-4.487-7.322-6.242,1.087-2.259,2.597-4.404,3.873-6.567,1.872-3.239,3.44-7.049,7.125-8.575h0Z"/>
    <path class="st1" d="M114.759,315.185c1.966.921,3.711,1.288,5.883,1.175,4.085,16.329,12.567,31.138,17.129,47.274-3.184,1.154-6.676,1.857-9.962,2.798-3.155-1.675-9.857-15.077-11.775-18.895,2.903-2.069,5.021-4.115,7.254-6.881-2.353-3.603-7.019-3.123-9.344-6.544-2.775-4.082-.148-14.23.816-18.927h0Z"/>
    <path class="st12" d="M57.947,177.742c9.025,11.071,22.586,18.852,37.229,16.792.066,3.515-.278,7.406-3.534,9.435-9.076,5.077-20.703,2.251-28.44-4.055-10.7-8.702-4.136-11.503-5.256-22.172h0Z"/>
    <path class="st8" d="M219.983,217.442c1.563.205,3.112.315,4.687.396,1.847,6.441,1.762,13.851,2.411,20.486.244,2.492,1.336,6.85.822,9.209-2.224,7.069-5.741,13.789-8.572,20.639-.507-6.087-3.303-11.863-4.329-17.891-.536-3.149.434-6.501.869-9.618,1.091-7.81,2.1-15.569,4.111-23.222h0Z"/>
    <path class="st12" d="M227.621,127.108c4.013.08,14.25-1.735,16.172,2.676,1.501,5.749-.634,14.257-6.896,16.216-9.143,2.805-15.722-2.705-16.126-11.97-.634-5.697,1.432-6.982,6.851-6.922Z"/>
    <path class="st4" d="M231.109,130.749c5.118-.356,5.424,7.37,1.713,9.508-5.16.739-5.295-7.456-1.713-9.508Z"/>
    <path class="st8" d="M34.292,128.346c10.524,5.777,11.481,27.641,2.502,35.1-9.648-2.134-11.266-26.005-5.812-32.5.986-.986,2.324-1.565,3.31-2.6h0Z"/>
    <path class="st3" d="M167.094,349.249l.242.316-.34.525c.788,1.132,3.118,1.712,4.229,2.822,1.581,1.232,2.42,5.507,4.445,5.406l.155.169c-.379,7.001-1.566,14.046-2.131,21.054-3.096-.062-6.522.527-9.641.43-1.181-4.9-2.508-8.257-6.637-11.342-.658-12.111,5.045-10.515,9.679-19.38h0Z"/>
    <path class="st4" d="M159.438,362.259c3.294-.482,7.782,2.967,4.008,5.772-2.368.515-3.821-2.224-5.072-3.829.074-.774.068-1.86,1.064-1.943h0Z"/>
    <path class="st3" d="M130.397,334.489c5.001,3.983,8.191,5.093,14.473,5.726,2.763,6.807,8.685,11.624,11.51,18.359-.817,3.066-1.18,5.65-1.198,8.822-4.299-3.091-9.153-4.106-14.364-4.115-.94-1.094-1.407-2.824-1.932-4.167,2.889-2.465,4.856-5.947,7.912-8.274.872-.356,1.521.288,2.398.16-2.556-5.831-8.001,3.381-10.615,5.136-1.943-3.973-7.969-17.75-8.183-21.647h0Z"/>
    <path class="st1" d="M194.412,321.347c7.229,4.492,5.344,33.832,2.364,40.822-1.426,2.223-4.678,4.959-6.606,7.657-1.887,2.641-3.176,6.081-5.354,8.419-1.279.175-2.559.167-3.849.184,1.999-8.446,19.618-29.623,7.822-35.093,5.036-4.84,3.584-3.333,2.446-9.59.164-2.05,2.374-10.412,3.176-12.399Z"/>
    <path class="st1" d="M167.358,268.907c4.218-.593,11.12-.218,15.245.443,4.62,1.11,19.397,3.749,19.869,9.321-1.643.918-6-1.472-7.724-2.049-19.172-6.596-42.452,5.878-60.884-1.211,10.924-3.214,22.145-5.472,33.494-6.504h0Z"/>
    <path class="st12" d="M195.492,127.108c3.998-.139,11.264-.086,11.709,5.198.468,3.248-.217,8.936-2.27,11.587-3.343,3.391-9.311,2.685-12.988.131-3.072-2.165-4.226-5.854-4.817-9.399-1.551-6.977,2.76-7.19,8.366-7.518h0Z"/>
    <path class="st4" d="M199.266,130.745c5.186-.772,5.479,7.187,1.913,9.367-4.997.754-5.426-7.264-1.913-9.367Z"/>
    <path class="st3" d="M253.721,181.719l.244.411c-.272,6.418-6.209,20.792-9.334,26.952-1.698,3.348-2.208,4.187-5.824,5.367-1.966-2.073-3.638-4.411-5.612-6.489-2.422-2.192-4.983-4.336-7.108-6.822,11.307-2.198,20.69-10.652,27.635-19.418h0Z"/>
    <path class="st8" d="M268.622,358.295c5.77-.212,11.453-.077,17.214.188.029,1.732-.121,3.397-.317,5.116-15.183.419-38.063,1.724-53.192,1.82-.049-2.086-.377-4.204-.601-6.28,12.306.022,24.593-.568,36.896-.844h0Z"/>
    <path class="st1" d="M188.633,336.356c.34.942.328,1.931.381,2.922-1.201,1.932-2.359,3.862-3.421,5.877,1.758.286,4.087.388,4.954,2.226,1.656,3.909-9.404,24.855-11.479,29.596-.508,1.218-1.037,2.638-2.347,3.173l-.48-.345c.621-6.88,2.664-30.166,4.673-37.955,2.939-1.601,5.281-3.16,7.718-5.494h0Z"/>
    <path class="st8" d="M327.661,107.922c18.491-.469,41.534,8.465,53.459,22.577-.805-.275-1.601-1.191-2.237-1.759-19.501-8.27-40.362-17.308-61.928-18.26l-.081-.339c1.509-1.787,8.337-1.984,10.786-2.22h0Z"/>
    <path class="st9" d="M215.817,327.725c2.73,7.449,4.303,14.967,8.729,21.793,2.242,3.679,7.872,4.363,8.557,5.39-.039,2.922-4.027,1.332-5.69,1.283-.75.018-2.05.95-2.761,1.292-2.746.809-3.905,2.898-4.99,5.352-1.01-.577-2.023-1.147-3.039-1.713-1.965-3.816-3.804-11.441-5.348-15.922,2.643-3.911,3.612-12.642,4.543-17.475h0Z"/>
    <path class="st8" d="M78.551,76.563c4.651-.783,17.324.325,21.642,1.859-.396.354-3.44-.026-4.174-.106-22.654-4.36-46.396,9.641-51.98,32.285-1.866-.224-3.762-.223-5.639-.271,3.195-19.876,20.736-32.856,40.151-33.767h0Z"/>
    <path class="st10" d="M52.125,190.193c1.485-.247,1.986.309,2.29,1.729,1.048,2.88,2.341,5.185,4.393,7.487,8.678,9.708,29.71,14.986,37.881,2.31.952-2.138.098-6.395,2.19-7.663-.425-.083-.79-.061-1.118-.357.738-.443,1.868-.786,2.697-.554l.003.334c-.423.134-.829.276-1.238.452,2.918,2.799,1.684,8.497-.429,11.62-2.777,3.961-8.312,6.249-12.92,7.093-12.089,3.286-37.474-7.826-33.749-22.451h0Z"/>
    <path class="st3" d="M231.676,210.654c2.237,1.724,4.131,4.209,6.306,6.098,1.264-.205,2.419-.516,3.636-.902-3.497,9.407-7.968,18.511-11.97,27.71-.468-8.549-1.016-17.271-2.672-25.678,1.926-2.101,3.189-4.821,4.7-7.228h0Z"/>
    <path class="st1" d="M199.8,327.751c3.822,3.122,11.708,26.002,13.95,31.906-5.022.013-9.863.013-14.449,2.312,3.067-10.451,2.56-23.599.499-34.218h0Z"/>
    <path class="st7" d="M367.13,308.07c8.768,2.712,11.758,16.433,7.583,23.891-3.453,1.727-7.727,3.145-11.395,1.314,9.033-4.321,4.36-17.28-1.514-22.487,1.866-.725,3.584-1.741,5.326-2.718h0Z"/>
    <path class="st8" d="M321.63,279.435c2.727-.086,10.838.182,13.128,1.616,1.43,2.561,1.463,7.166,1.698,10.095-1.629.156-3.322.066-4.96.06-.685-2.073-1.807-7.611-3.118-9.081-.984-.455-1.956-.454-3.02-.426-2.518.066-6.257.032-8.103,1.974,3.073.808,7.181.371,10.394.375.151,2.394.915,4.943,1.412,7.306-5.679.559-11.37-.552-17.014-.295.681-5.578,3.209-11.375,9.583-11.624h0Z"/>
    <path class="st10" d="M13.81,324.771c5.157,1.91,11.377,2.587,16.788,1.478,1.236-.253,4.46-1.584,5.523-1.129,1.043,2.045.571,6.025.235,8.272-4.028,3.002-15.266,3.265-19.522,1.222-2.297-1.566-2.529-7.298-3.023-9.843Z"/>
    <path class="st3" d="M216.791,208.712l.048.031c1.98,6.031.415,12.316-.982,18.301-1.039,5.635-1.658,11.643-3.223,17.138-2.573-9.191-4.172-18.689-5.067-28.178.844.204,1.238.745,2.143.724,2.672-1.588,5.139-5.559,7.081-8.018h0Z"/>
    <path class="st8" d="M39.981,127.546c1.078-.107,1.723.052,2.619.665,9.773,9.259,9.033,26.495,1.128,36.815-1.009.21-1.87.418-2.906.294-.342-.538.121-1.362.367-1.906,5.252-11.307,6.335-25.821-3.012-35.351.434-.456,1.188-.417,1.804-.517h0Z"/>
    <path class="st3" d="M206.408,192.267c4.18.871,5.149,3.273,8.172,5.854,1.526,1.303,3.225,2.244,4.974,3.215-2.117,2.381-4.005,4.913-5.924,7.454-.977,1.135-3.148,5.809-4.843,4.963-1.856-3.369-2.576-17.198-2.38-21.486h0Z"/>
    <path class="st12" d="M253.266,174.235l.181.201c-.85,10.505-18.368,22.301-28.057,24.136-4.535,1.003-8.714-1.521-11.771-4.649,16.319,2.505,31.481-5.736,39.647-19.688h0Z"/>
    <path class="st8" d="M329.531,293.492c.302-.02.481.025.77.097.37,2.043.346,3.964.921,6.007-.781.094-1.443.153-2.147.521l-.044.387c1.429.422,3.52-.19,5.089-.132,3.74.14,7.379.784,11.149.809,1.363,1.817,3.321.96,4.384-.723l-.232-.406.282.204.096-1.295.152-.129c1.16,2.249.23,5.573-.581,7.825-2.29-.581-4.883-.482-7.198-.79-.271-.571-.485-1.102-.958-1.539l-.265.155.497.898c-3.652.375-10.667-.746-13.156-3.55-1.034-1.416-1.929-3.099-3.257-4.261-1.694-1.484-3.809-2.165-5.276-3.941,3.258.011,6.52.07,9.774-.135h0Z"/>
    <path class="st11" d="M197.681,79.726c.475.136,4.501,4.91,5.333,5.773,2.679,2.777,6.267,4.977,8.508,8.105l-.316-.146.046.315c-2.542.353-5.281-.358-7.802-.711-6.35-1.742-17.992-9.678-5.768-13.336Z"/>
    <path class="st8" d="M45.784,127.096c11.469-1.4,13.248,40.319-.225,38.802,5.352-4.791,6.612-14.679,6.31-21.607.012-5.946-1.814-13.006-6.085-17.195Z"/>
    <path class="st12" d="M176.478,212.997c.869.913,1.623,1.968,2.407,2.957.202,6.649.851,13.355.468,19.996-.403,3.057-1.395,6-2.296,8.937-.193.554-.497,1.064-1.138,1.045-1.855-1.573-.062-30.341.56-32.936h0Z"/>
    <path class="st8" d="M347.204,291.728c2.697-.091,3.48,1.532,3.085,3.986-.044.867.032,1.982-.682,2.594-3.822,2.319-12.452.268-16.888-.106-.055-1.675-.026-3.287.123-4.956,3.01-.191,13.228,1.67,14.361-1.519h0Z"/>
    <path class="st8" d="M222.522,202.02c2.831.706,4.829,4.534,7.228,6.423-1.553,2.582-2.503,5.734-4.753,7.794-1.5.301-3.245-.152-4.753-.371-.969-3.409-1.05-7.002-.802-10.515.807-1.348,1.918-2.308,3.081-3.332h0Z"/>
    <path class="st3" d="M125.669,277.316c4.204-1.337,2.895,15.376-1.206,13.829-2.658-3.845-1.993-8.049-8.131-8.496l1.034-4.265c2.788-.12,5.548-.64,8.303-1.068h0Z"/>
    <path class="st12" d="M198.09,365.063c3.595,2.725,5.805,4.018,7.262,8.548-1.706.853-3.432,1.596-5.253,2.17-.736-1.205-1.477-2.162-2.754-2.814l-.452.133c-.307,1.024.31,2.176.661,3.139-2.475.046-5.322-.153-7.559-1.259,1.736-3.808,4.46-7.699,8.094-9.917h0Z"/>
    <path class="st8" d="M153.464,158.076l.443-.086.353.272c.301,2.595.439,23.848-.039,25.4-.644-.088-.959-.522-1.442-.939-.673-.04-1.064.067-1.597-.381-.259-3.111-.426-20.981.254-23.574.125-.475,1.291-.227,2.029-.693h0Z"/>
    <path class="st12" d="M147.919,231.117c3.43-.135,2.191,4.335,1.075,6.155-1.059,2.466-7.413,8.849-10.011,6.569.358-5.03,4.935-10.03,8.936-12.724Z"/>
    <path class="st8" d="M125.609,127.395c6.576,6.756,7.18,29.219-2.392,33.812,7.044-9.006,4.585-23.418,2.392-33.812h0Z"/>
    <path class="st12" d="M150.094,344.323c4.945,2.638,9.157,3.632,14.757,3.553-1.61,3.322-4.023,6.158-6.694,8.675-2.397-4.418-6.008-7.772-8.063-12.228h0Z"/>
    <path class="st12" d="M202.668,363.385c5.017-.988,8.675,2.621,10.48,6.922-.989.451-4.124,2.428-5.21,2.41-4.257-3.589-.973-5.017-9.359-7.833,1.334-.714,2.593-1.229,4.089-1.499h0Z"/>
    <path class="st8" d="M38.126,112.388c1.811.212,3.586.355,5.408.395-.484,2.414-.2,9.352-1.425,10.758-1.657.507-3.305.749-5.018.988.116-4.033.428-8.152,1.034-12.14h0Z"/>
    <path class="st8" d="M123.073,129.776c3.324,7.425,4.618,22.426-.758,28.985-.593-1.049.674-6.262.766-7.854.402-6.995.283-14.133-.008-21.131h0Z"/>
    <path class="st8" d="M153.972,184.475c.259-.048.088-.043.485.17.128.557.205,1.084.265,1.649l.367.165.778-.379c.646,2.208.565,4.918.626,7.216-2.058-.395-5.226-.303-7.34-.289.093-1.438-.264-6.766.324-7.476.932-1.121,3.163-.968,4.495-1.057h0Z"/>
    <path class="st11" d="M121.512,107.817c-.367-3.288,2.109-2.976,3.163-.491.009,3.963,2.73,8.643.922,12.487-.391.546-.844.694-1.44.941-.579.239-.447,1.263-1.12,1.75l-.594-.233c-.226-4.823-.526-9.639-.93-14.455Z"/>
    <path class="st1" d="M121.512,107.817c-.366-3.297,2.113-2.968,3.163-.491-.724.946-2.111.424-3.163.491Z"/>
    <path class="st8" d="M122.295,119.919c1.034.567,2.243.271,3.302-.105-.391.546-.844.694-1.44.941-.579.239-.447,1.263-1.12,1.75l-.594-.233c-.244-.728-.152-1.585-.147-2.353h0Z"/>
    <path class="st12" d="M147.074,215.218c1.302-.297,2.883.264,2.652,1.834-.227,2.971-5.914,5.189-8.082,6.92-.599.444-1.116,1.107-1.87,1.21l-.333-.496c-.204-5.011,3.012-8.316,7.632-9.468h0Z"/>
    <path class="st3" d="M177.913,342.934c-.418,4.147-.85,8.327-1.494,12.445-2.562-2.739-5.03-6.29-9.04-6.843l-.223-.278c.779-.886,4.233-1.351,5.545-1.906,1.959-.826,3.711-1.908,5.212-3.418h0Z"/>
    <path class="st8" d="M331.497,317.78l.305-.341c1.166.048,2.299-.117,3.441-.327.747.739,1.356,1.427,1.906,2.325-2.959,3.842-6.452,6.879-10.981,8.725,1.64-3.495,3.151-7.212,5.329-10.382h0Z"/>
    <path class="st12" d="M124.284,367.656l-.032.271c-5.249,2.721-9.173,6.34-10.337,12.327l-2.605-.117c-1.085-8.7,5.573-11.776,12.974-12.482h0Z"/>
    <path class="st11" d="M194.078,90.889c.839.286,1.378.839,2.027,1.425-6.497,4.936-7.127,13.79-8.933,21.097-.586-.991-.364-3.03-.355-4.214-.13-6.737,1.662-14.049,7.261-18.308h0Z"/>
    <path class="st8" d="M225.54,359.641l3.89-.073c.441,1.892.597,3.835.798,5.764l-3.318.13c-1.48-.203-4.025.901-4.56-1.074.019-1.939,1.228-4.208,3.19-4.747h0Z"/>
    <path class="st8" d="M149.413,201.429c.769,1.001.341,8.901.169,10.534-1.349-.376-2.215-.198-3.541.117-.25.011-.081.026-.452-.227-.01-2.701.05-5.485.355-8.169.101-1.413,2.051-.873,3.469-2.255h0Z"/>
    <path class="st12" d="M209.777,361.968c5.158-.624,13.843,4.255,5.613,8.057-.799-1.704-1.667-3.469-3.067-4.777-.691-.646-2.907-1.968-3.115-2.754l.568-.526h0Z"/>
    <path class="st8" d="M151.931,145.35c3.172.371,3.197,8.657,2.335,10.856-.514.374-.567.25-1.172.202-.309-.25-.571-.39-.939-.538l-.669.514c-.786-3.028-1.253-8.332.446-11.035h0Z"/>
    <path class="st12" d="M289.152,306.863l.636.221c.504,1.216.723,10.312.927,12.461-5.339-3.6-5.548-7.826-1.563-12.682Z"/>
    <path class="st8" d="M325.946,311.762c3.26,3.338,2.842,8.765-.819,11.628,0,0-2.648.535-2.648.535,1.838-4.277,2.9-7.541,3.467-12.163Z"/>
    <path class="st12" d="M285.514,318.593c2.105,2.167,8.963,2.969,6.417,7.009-3.192-.499-6.817-3.465-6.417-7.009Z"/>
    <path class="st8" d="M338.807,288.713c4.065-.021,6.249-.958,9.283,2.264l-.235.26c-3.138.056-6.265-.186-9.398.087.159-.864.248-1.738.35-2.61h0Z"/>
    <path class="st8" d="M301.539,286.969c3.65-.526,6.5,1.029,9.938,1.941-4.3.077-9.626.871-13.754-.508l-.002-.105c.998-1.183,2.391-1.193,3.818-1.328h0Z"/>
    <path class="st8" d="M148.456,195.106c.603-.005,1.19.015,1.791.055.303,1.205-.142,4.359-.781,5.392-6.261.249-4.181-2.41-1.01-5.447h0Z"/>
    <path class="st8" d="M163.974,189.8c2.988-.464,5.016.089,5.014,3.517l-.331.246-5.201-.089c-.033-1.28-.463-2.655.518-3.674h0Z"/>
    <path class="st8" d="M322.824,325.071c.636-.089.836-.258,1.387.134-.007,1.357-1.075,2.927-1.698,4.129-2.168,1.049-4.134,1.532-6.51,1.899,3.296-1.04,4.012-4.579,6.82-6.162h0Z"/>
    <path class="st8" d="M322.824,325.071c.3,1.887-1.593,3.875-3.486,3.751.977-1.417,1.904-2.955,3.486-3.751Z"/>
    <path class="st8" d="M187.505,380.013c.764-1.706,1.483-3.455,2.491-5.033,1.466.553,2.873,1.151,4.467,1.179l-2.31.43.802,1.539-.442.383.296-.499-.134-.044c-.077,1.106-4.137,1.683-5.169,2.045h0Z"/>
    <path class="st8" d="M183.222,380.277c.658-.055,1.318-.212,1.904.157l-.11.353c-1.595.923-5.398,2.831-7.144,2.77-.188-.665.284-1.571.518-2.214,1.622-.596,3.122-.892,4.833-1.066Z"/>
    <path class="st8" d="M301.398,277.814c1.361,1.056,2.253,5.889,1.053,7.219-.67-.029-1.27-.098-1.928-.227l.875-6.991Z"/>
    <path class="st8" d="M328.621,313.963c2.061.927,4.892,1.726,6.622,3.149-1.142.209-2.276.375-3.441.327l-.305.341c-.342-.32-.373-.386-.519-.805.648-.404,2.453-.099,3.274-.071-.385-.428-.81-.506-1.339-.693-.338.231-.629.332-1.022.445-.39-.213-.777-.431-1.161-.653-.296.173-.592.359-.874.556-.656-.489-.953-1.83-1.235-2.595h0Z"/>
    <path class="st8" d="M174.004,382.663c.74.106.898.114,1.476.573.466,1.572-1.877,2.275-3.059,1.933.721-.772,1.316-1.451,1.583-2.505Z"/>
    <g>
      <rect class="st6" x="247.114" y="224.34" width="30.249" height="22.603"/>
      <path d="M277.865,247.446h-31.253v-23.607h31.253v23.607ZM247.616,246.442h29.244v-21.599h-29.244v21.599Z"/>
    </g>
    <g>
      <path class="st0" d="M259.079,227.675h-1.599v1.554h-.42v-2.99s-.005-.027-.016-.072c-.011-.045-.02-.092-.029-.14-.009-.048-.015-.077-.018-.086h.483v1.428h1.599v-1.428h.42v3.288h-.42v-1.554h0Z"/>
      <path class="st0" d="M261.112,226.93c.181,0,.333.037.456.111.123.074.216.176.278.307.062.131.093.284.093.458,0,.042-.002.085-.007.129s-.01.09-.016.138h-1.428c0,.286.063.507.19.664.127.156.295.235.506.235.087,0,.178-.014.273-.041.095-.027.194-.068.296-.122l.14.226c-.106.084-.225.148-.357.19-.133.042-.267.063-.402.063-.178,0-.332-.033-.463-.097-.131-.065-.239-.152-.325-.262-.086-.11-.15-.234-.192-.373s-.063-.28-.063-.424c0-.151.021-.297.063-.438.042-.141.106-.27.192-.386s.192-.208.319-.276c.127-.068.276-.102.447-.102h0ZM261.075,227.215c-.102,0-.193.029-.271.086-.078.057-.142.131-.19.219-.048.089-.081.18-.099.273h1.03c.003-.127-.015-.233-.052-.319-.038-.086-.092-.151-.162-.194-.071-.044-.156-.066-.255-.066h0Z"/>
      <path class="st0" d="M262.878,225.787v3.442h-.375v-3.18l-.059-.262h.434,0Z"/>
      <path class="st0" d="M264.011,225.787v3.442h-.375v-3.18l-.059-.262h.434,0Z"/>
      <path class="st0" d="M265.588,229.288c-.22,0-.404-.055-.553-.165s-.261-.254-.334-.432c-.074-.177-.11-.367-.11-.569,0-.151.023-.297.068-.441.045-.143.111-.271.199-.384.087-.113.195-.203.323-.269s.273-.099.436-.099c.223,0,.409.054.558.163s.26.251.334.429.111.369.111.574c0,.154-.023.302-.068.445-.045.143-.11.27-.196.382s-.193.2-.321.267c-.128.066-.276.099-.445.099h0ZM265.592,229.003c.117,0,.216-.028.296-.084s.145-.129.194-.219c.05-.09.085-.187.106-.291s.032-.204.032-.3c0-.099-.01-.201-.029-.305-.02-.104-.052-.2-.097-.289-.045-.089-.108-.161-.187-.217-.08-.056-.178-.084-.296-.084s-.216.028-.296.084-.144.129-.192.219c-.048.09-.083.187-.104.291s-.032.204-.032.3c0,.093.011.192.032.296.021.104.055.201.102.291.047.09.109.164.187.221.078.057.173.086.285.086h0Z"/>
      <path class="st0" d="M267.236,228.669c.108,0,.192.038.251.115.058.077.088.166.088.269,0,.157-.046.299-.138.427-.092.128-.2.235-.323.323-.024-.024-.049-.05-.077-.077-.027-.027-.053-.053-.077-.077.027-.027.058-.058.093-.093.035-.035.065-.072.09-.111.026-.039.038-.078.038-.117,0-.042-.019-.078-.056-.106-.038-.028-.076-.064-.113-.106-.038-.042-.056-.101-.056-.176,0-.078.028-.143.083-.194.056-.051.121-.077.197-.077h0Z"/>
      <path class="st0" d="M251.391,230.718c.021.048.039.099.054.154.015.054.026.107.032.158.054-.054.117-.107.188-.158.071-.051.147-.093.228-.127.081-.033.161-.05.239-.05.145,0,.268.029.371.088.102.058.185.154.248.287.06-.06.128-.119.203-.176s.155-.105.239-.142c.084-.038.17-.057.257-.057.166,0,.299.035.4.104.101.069.174.163.219.282.045.119.068.257.068.413v1.5h-.375v-1.378c0-.069-.004-.138-.011-.205-.008-.068-.024-.131-.047-.19-.024-.059-.061-.105-.11-.14-.05-.035-.118-.052-.206-.052-.105,0-.209.034-.312.101-.102.068-.188.136-.257.206v1.658h-.375v-1.378c0-.069-.003-.139-.009-.208-.006-.069-.021-.133-.045-.19-.024-.057-.062-.103-.113-.138-.051-.035-.12-.052-.208-.052-.066,0-.134.016-.203.047s-.136.071-.199.117c-.063.047-.119.091-.167.133v1.667h-.375v-1.631c0-.063-.005-.131-.016-.203-.011-.072-.026-.143-.047-.212-.021-.069-.048-.131-.081-.185l.411-.045h-.001Z"/>
      <path class="st0" d="M254.968,230.75c.066.187.132.374.197.56.065.187.13.378.196.574.033.102.067.206.102.309.035.104.068.207.102.31.033-.105.067-.209.101-.312.035-.102.068-.205.102-.307.066-.196.132-.387.196-.574.065-.187.13-.373.197-.56h.352l-.795,2.254c-.033.093-.075.196-.127.309s-.111.219-.181.319-.151.181-.244.246-.199.097-.316.097h-.172v-.302h.05c.127,0,.231-.038.314-.113s.152-.166.206-.273.099-.21.136-.309l-.822-2.227h.407Z"/>
      <path class="st0" d="M258.049,230.713c.021.051.039.104.054.158.015.054.026.108.032.162.09-.09.197-.169.321-.237.124-.068.25-.102.38-.102.165,0,.299.035.4.104.101.069.174.163.219.282s.068.257.068.413v1.5h-.371v-1.378c0-.093-.007-.185-.02-.276-.014-.09-.047-.165-.099-.224-.053-.058-.139-.088-.26-.088-.072,0-.146.014-.221.043s-.146.066-.212.11c-.066.045-.127.093-.181.145v1.667h-.371v-1.59c0-.06-.005-.13-.014-.21-.009-.08-.024-.158-.045-.235-.021-.077-.051-.141-.09-.192l.411-.054h0Z"/>
      <path class="st0" d="M261.04,230.695c.238,0,.417.065.537.194.12.13.181.312.181.546v1.125c0,.063.012.106.036.129.024.023.053.034.086.034.027,0,.056-.004.086-.011.03-.007.059-.017.086-.029l.081.244c-.048.027-.109.052-.183.075s-.15.034-.228.034-.149-.022-.212-.066-.102-.124-.117-.242c-.088.093-.19.169-.307.228-.117.059-.241.088-.371.088-.178,0-.325-.053-.443-.158s-.176-.25-.176-.434c0-.172.041-.309.124-.411.083-.102.191-.179.323-.23.132-.051.273-.086.422-.104.149-.018.288-.027.418-.027v-.239c0-.084-.011-.161-.032-.228s-.058-.122-.113-.162c-.054-.041-.131-.061-.23-.061-.114,0-.225.023-.33.068-.105.045-.211.111-.316.199l-.185-.267c.123-.099.259-.173.407-.221.147-.048.299-.072.456-.072h0ZM261.383,231.974c-.081,0-.173.004-.276.011s-.202.026-.298.054-.175.075-.237.138c-.062.063-.093.151-.093.262,0,.099.034.172.101.219.068.047.153.07.256.07.108,0,.203-.03.284-.09.081-.06.145-.137.192-.23.047-.093.07-.19.07-.289v-.144h0Z"/>
      <path class="st0" d="M262.756,230.718c.021.048.039.099.054.154.015.054.026.107.032.158.054-.054.117-.107.188-.158.071-.051.147-.093.228-.127.081-.033.161-.05.239-.05.145,0,.268.029.371.088.102.058.185.154.248.287.06-.06.128-.119.203-.176s.155-.105.239-.142c.084-.038.17-.057.257-.057.166,0,.299.035.4.104.101.069.174.163.219.282.045.119.068.257.068.413v1.5h-.375v-1.378c0-.069-.004-.138-.011-.205-.008-.068-.024-.131-.047-.19-.024-.059-.061-.105-.11-.14-.05-.035-.118-.052-.206-.052-.105,0-.209.034-.312.101-.102.068-.188.136-.257.206v1.658h-.375v-1.378c0-.069-.003-.139-.009-.208-.006-.069-.021-.133-.045-.19-.024-.057-.062-.103-.113-.138-.051-.035-.12-.052-.208-.052-.066,0-.134.016-.203.047s-.136.071-.199.117c-.063.047-.119.091-.167.133v1.667h-.375v-1.631c0-.063-.005-.131-.016-.203-.011-.072-.026-.143-.047-.212-.021-.069-.048-.131-.081-.185l.411-.045h0Z"/>
      <path class="st0" d="M267.092,230.695c.181,0,.333.037.456.111.123.074.216.176.278.307.062.131.093.284.093.458,0,.042-.002.085-.007.129s-.01.09-.016.138h-1.428c0,.286.063.507.19.664.127.156.295.235.506.235.087,0,.178-.014.273-.041.095-.027.194-.068.296-.122l.14.226c-.106.084-.225.148-.357.19-.133.042-.267.063-.402.063-.178,0-.332-.033-.463-.097-.131-.065-.239-.152-.325-.262-.086-.11-.15-.234-.192-.373s-.063-.28-.063-.424c0-.151.021-.297.063-.438.042-.141.106-.27.192-.386s.192-.208.319-.276c.127-.068.276-.102.447-.102h0ZM267.056,230.98c-.102,0-.193.029-.271.086-.078.057-.142.131-.19.219-.048.089-.081.18-.099.273h1.03c.003-.127-.015-.233-.052-.319-.038-.086-.092-.151-.162-.194-.071-.044-.156-.066-.255-.066h0Z"/>
      <path class="st0" d="M269.978,229.995c0,.076-.026.14-.079.194s-.118.081-.196.081c-.075,0-.14-.027-.192-.081-.053-.054-.079-.119-.079-.194s.026-.14.079-.194c.052-.054.117-.081.192-.081s.14.027.194.081.081.119.081.194ZM269.897,230.75v2.245h-.375v-1.978l-.054-.267h.429Z"/>
      <path class="st0" d="M271.378,230.695c.102,0,.204.013.305.038.101.026.194.066.278.12l-.131.289c-.066-.054-.14-.095-.221-.122-.081-.027-.161-.041-.239-.041-.111,0-.209.026-.291.077-.083.051-.124.128-.124.23,0,.072.017.133.052.181.035.048.08.089.138.122.057.033.119.066.185.099.075.036.151.073.228.11.077.038.147.083.212.136.065.053.117.116.158.19.04.074.061.165.061.273,0,.151-.037.275-.11.373s-.17.169-.289.214c-.119.045-.248.068-.386.068-.12,0-.241-.017-.361-.05s-.232-.08-.334-.14l.158-.276c.072.054.153.098.244.131.09.033.177.05.262.05.114,0,.215-.027.3-.081s.129-.136.129-.244c0-.075-.024-.138-.07-.188-.047-.049-.106-.094-.178-.133-.072-.039-.148-.077-.226-.113-.09-.045-.178-.094-.264-.147-.086-.052-.156-.12-.21-.201-.054-.081-.081-.185-.081-.312,0-.145.038-.265.115-.361.077-.096.177-.169.3-.219.123-.049.255-.075.393-.075h0Z"/>
      <path class="st0" d="M273.248,231.332c0,.081-.029.152-.088.21s-.129.088-.21.088-.151-.029-.21-.088-.088-.129-.088-.21.029-.151.088-.21.129-.088.21-.088.151.029.21.088.088.129.088.21ZM273.248,232.755c0,.081-.029.152-.088.21s-.129.088-.21.088-.151-.029-.21-.088-.088-.129-.088-.21.029-.151.088-.21.129-.088.21-.088.151.029.21.088.088.129.088.21Z"/>
    </g>
    <g>
      <path d="M257.933,238.769c0,.777-.158,1.468-.473,2.072-.315.605-.764,1.079-1.347,1.423-.583.345-1.27.517-2.061.517h-2.858v-7.376c0-.007-.013-.062-.038-.165-.026-.102-.053-.209-.083-.319-.029-.11-.048-.172-.055-.187h3.045c.616,0,1.162.097,1.638.291s.881.471,1.215.83c.334.359.586.784.759,1.275.172.491.258,1.037.258,1.638h0ZM256.306,238.813c0-.374-.042-.738-.127-1.094-.084-.355-.22-.676-.407-.962-.187-.286-.429-.513-.726-.682s-.658-.253-1.083-.253h-1.253v5.871h1.275c.557,0,1.006-.138,1.347-.412s.588-.632.742-1.072c.154-.44.231-.905.231-1.396h0Z"/>
      <path d="M260.835,234.734l1.715,4.617c.081.22.143.44.187.659.044.22.088.444.132.671.058-.235.104-.454.137-.66.033-.205.086-.414.159-.627l1.682-4.661h1.935v8.036h-1.484v-5.452c0-.132.007-.266.022-.401.015-.136.026-.266.033-.39-.044.132-.086.264-.126.396-.04.132-.086.264-.138.396l-1.968,5.463h-.813l-2.023-5.463c-.051-.132-.097-.264-.137-.396-.04-.132-.082-.264-.127-.396.007.125.018.255.033.39.015.136.022.269.022.401v5.452h-1.198v-7.365l-.154-.67h2.111,0Z"/>
      <path d="M267.915,234.734h2.759c.491,0,.942.068,1.352.203.41.136.74.363.989.682.249.319.374.757.374,1.313,0,.308-.081.605-.242.891-.161.286-.372.529-.632.731s-.54.339-.841.412l2.463,3.815h-1.715l-2.232-3.584h-.605v3.584h-1.506v-7.376l-.165-.67h0ZM269.586,235.834v2.286h.704c.286,0,.542-.035.769-.104.227-.069.407-.192.539-.368.132-.176.198-.418.198-.726,0-.242-.059-.443-.176-.604s-.271-.282-.462-.363c-.191-.08-.4-.121-.627-.121h-.946,0Z"/>
    </g>
    <g>
      <path d="M146.59,252.35h2.759c.491,0,.942.068,1.352.203.41.136.74.363.989.682.249.319.374.757.374,1.313,0,.308-.081.605-.242.891-.161.286-.372.529-.632.731s-.54.339-.841.412l2.463,3.815h-1.715l-2.232-3.584h-.605v3.584h-1.506v-7.376l-.165-.67h0ZM148.261,253.449v2.286h.704c.286,0,.542-.035.769-.104.227-.069.407-.192.539-.368.132-.176.198-.418.198-.726,0-.242-.059-.443-.176-.604s-.271-.282-.462-.363c-.191-.08-.4-.121-.627-.121h-.946,0Z"/>
      <path d="M154.703,253.438h-2.232v-1.088h6.068v1.088h-2.265v6.959h-1.572v-6.959Z"/>
      <path d="M161.057,253.438h-2.232v-1.088h6.068v1.088h-2.265v6.959h-1.572v-6.959Z"/>
      <path d="M166.773,252.35l1.605,2.99,1.649-2.99h1.319l-2.386,4.386v3.661h-1.462v-3.661l-2.353-4.386h1.627Z"/>
    </g>
    <g>
      <path d="M352.696,234.603c.41,0,.812.057,1.204.17.392.113.746.277,1.061.489l-.758.946c-.198-.176-.436-.312-.715-.407-.278-.095-.546-.143-.802-.143-.286,0-.546.075-.78.225-.235.15-.352.383-.352.698,0,.213.053.396.159.55.106.154.249.288.429.401.179.114.379.225.599.335.256.125.522.253.797.385.275.132.529.291.764.478.234.187.425.416.571.687s.22.604.22,1c0,.535-.132.989-.396,1.363s-.61.656-1.039.846-.892.286-1.39.286c-.447,0-.892-.049-1.336-.148-.444-.099-.859-.262-1.248-.489l.517-1.22c.256.235.553.427.89.577s.682.225,1.033.225c.234,0,.454-.044.659-.132s.374-.218.506-.39c.132-.172.198-.386.198-.643,0-.264-.073-.482-.22-.654-.147-.172-.337-.324-.572-.456-.235-.132-.487-.26-.758-.385-.242-.11-.48-.229-.715-.357s-.447-.277-.637-.445c-.191-.168-.345-.375-.462-.621-.117-.246-.176-.537-.176-.874,0-.535.132-.971.396-1.308.264-.337.604-.586,1.022-.748.418-.161.861-.242,1.33-.242h0Z"/>
      <path d="M358.369,234.603c.41,0,.812.057,1.204.17.392.113.746.277,1.061.489l-.758.946c-.198-.176-.436-.312-.715-.407-.278-.095-.546-.143-.802-.143-.286,0-.546.075-.78.225-.235.15-.352.383-.352.698,0,.213.053.396.159.55.106.154.249.288.429.401.179.114.379.225.599.335.256.125.522.253.797.385.275.132.529.291.764.478.234.187.425.416.571.687s.22.604.22,1c0,.535-.132.989-.396,1.363s-.61.656-1.039.846-.892.286-1.39.286c-.447,0-.892-.049-1.336-.148-.444-.099-.859-.262-1.248-.489l.517-1.22c.256.235.553.427.89.577s.682.225,1.033.225c.234,0,.454-.044.659-.132s.374-.218.506-.39c.132-.172.198-.386.198-.643,0-.264-.073-.482-.22-.654-.147-.172-.337-.324-.572-.456-.235-.132-.487-.26-.758-.385-.242-.11-.48-.229-.715-.357s-.447-.277-.637-.445c-.191-.168-.345-.375-.462-.621-.117-.246-.176-.537-.176-.874,0-.535.132-.971.396-1.308.264-.337.604-.586,1.022-.748.418-.161.861-.242,1.33-.242h0Z"/>
      <path d="M363.36,235.823h-2.232v-1.088h6.068v1.088h-2.265v6.958h-1.572v-6.958Z"/>
      <path d="M368.944,234.745l1.572,4.595c.066.205.125.412.176.621s.099.419.143.632c.058-.256.123-.509.193-.758.07-.249.148-.498.236-.748l1.484-4.343h1.22l-2.781,8.058h-1.077l-2.77-8.058h1.605Z"/>
    </g>
    <g>
      <path class="st7" d="M48.087,262.531l15.867-11.659,2.69,3.662-10.208,7.501,5.626,7.656,7.878-5.789,2.691,3.662-7.878,5.789,8.887,12.095-5.141,3.778-18.236-24.817-2.176-1.876h0Z"/>
      <path class="st7" d="M75.668,247.903l-7.508,5.517-2.691-3.661,20.416-15.001,2.691,3.661-7.619,5.598,17.203,23.412-5.289,3.886-17.203-23.412h0Z"/>
      <path class="st7" d="M95.687,227.555c1.159-.851,2.409-1.437,3.749-1.758,1.34-.32,2.646-.301,3.915.057,1.269.359,2.376,1.179,3.318,2.461.888,1.208,1.401,2.682,1.54,4.421.139,1.74-.173,3.668-.933,5.783l-3.741-.441c.501-1.127.67-2.267.507-3.419-.163-1.152-.553-2.147-1.169-2.986-.525-.715-1.065-1.229-1.619-1.544-.554-.314-1.108-.448-1.662-.402-.555.047-1.09.26-1.608.641s-.893.865-1.125,1.453c-.232.589-.29,1.22-.174,1.894.116.675.437,1.369.962,2.084.58.789,1.258,1.325,2.036,1.608.777.283,1.636.431,2.575.443.939.013,1.935.012,2.988-.003,1.138,0,2.293-.005,3.466-.012,1.172-.007,2.326.104,3.462.332,1.136.229,2.227.642,3.274,1.239,1.046.598,2.005,1.488,2.875,2.672,1.214,1.652,1.82,3.304,1.82,4.956-.002,1.653-.43,3.202-1.285,4.646-.856,1.445-1.986,2.684-3.392,3.717-1.332.979-2.792,1.653-4.38,2.023-1.589.37-3.13.326-4.625-.133-1.495-.458-2.795-1.439-3.9-2.944-.652-.887-1.119-1.911-1.402-3.071-.282-1.159-.329-2.425-.142-3.797.188-1.371.641-2.835,1.36-4.388l3.823.552c-.456.981-.727,1.93-.813,2.847-.086.918-.025,1.775.181,2.572.206.798.545,1.517,1.016,2.158.652.888,1.35,1.514,2.093,1.879.743.365,1.488.501,2.236.407.747-.093,1.429-.367,2.046-.82.666-.489,1.163-1.091,1.491-1.807.329-.716.437-1.498.326-2.347-.111-.849-.474-1.692-1.09-2.531-.67-.912-1.522-1.502-2.553-1.769-1.031-.267-2.173-.387-3.425-.359-1.252.028-2.557.047-3.916.058-1.292,0-2.579-.099-3.862-.295-1.283-.196-2.503-.59-3.66-1.183-1.157-.592-2.179-1.493-3.067-2.701-1.123-1.529-1.684-3.053-1.681-4.574.003-1.52.396-2.949,1.18-4.285.784-1.335,1.781-2.447,2.989-3.335h0Z"/>
    </g>
  </g>
  <g>
    <path class="st4" d="M10.135,60.717c.412-2.909.058-6.402.057-9.366-.002-6.381-.677-42.233.721-45.295,2.216-.488,5.024-.213,7.315-.213l14.221.006,55.589.01,227.546-.002,67.525-.015,22.472-.007c3.923,0,7.889-.117,11.808.035,1.183.046,2.915.015,3.972.54,1.013,3.473.461,8.866.458,12.549l.025,14.947c-.045,5.966-.057,11.932-.037,17.898-.001,3.438.356,7.349-.359,10.699-9.704.222-19.439.063-29.147.044l-45.634.004-275.128.02c-6.719-.011-59.274.327-60.721-.316-.404-.536-.522-.902-.683-1.538h0Z"/>
    <path class="st3" d="M13.511,9.136c20.593-.21,41.212.01,61.807.019l114.747.003,228.406.023c-.079,5.218.341,49.345-.286,50.179-5.425-.374-10.969-.152-16.411-.153l-29.167.014-91.718.1-267.409-.172c-.198-16.658-.044-33.353.031-50.013h0Z"/>
    <g>
      <path d="M83.393,21.687l4.525,12.182c.213.58.377,1.16.493,1.74.116.58.232,1.17.348,1.769.155-.619.276-1.199.362-1.74.087-.541.227-1.092.42-1.653l4.438-12.298h5.105v21.203h-3.916v-14.387c0-.348.019-.701.058-1.059.038-.357.068-.701.087-1.03-.116.348-.227.696-.334,1.044-.106.348-.227.696-.362,1.044l-5.192,14.415h-2.146l-5.337-14.415c-.136-.348-.257-.696-.362-1.044-.106-.348-.217-.696-.334-1.044.019.329.048.672.087,1.03.038.358.058.711.058,1.059v14.387h-3.161v-19.434l-.406-1.769h5.569Z"/>
      <path d="M101.649,28.056h9.34v2.01h-6.254v4.203h4.792v2.01h-4.792v4.629h6.254v2.01h-9.035v-13.623l-.304-1.239h0Z"/>
      <path d="M112.795,28.056h9.34v2.01h-6.254v4.203h4.792v2.01h-4.792v4.629h6.254v2.01h-9.035v-13.623l-.304-1.239h0Z"/>
      <path d="M127.272,30.066h-4.122v-2.01h11.208v2.01h-4.183v12.852h-2.903v-12.852h0Z"/>
      <path d="M145.678,30.066h-4.122v-2.01h11.208v2.01h-4.183v12.852h-2.903v-12.852Z"/>
      <path d="M163.423,36.279h-6.233v6.639h-2.802v-13.623c0-.013-.024-.115-.071-.304-.048-.189-.091-.386-.132-.589s-.068-.318-.081-.345h3.086v6.213h6.233v-6.213h2.802v14.862h-2.802v-6.639h0Z"/>
      <path d="M168.58,28.056h9.339v2.01h-6.253v4.203h4.792v2.01h-4.792v4.629h6.253v2.01h-9.035v-13.623s-.304-1.239-.304-1.239Z"/>
      <path d="M205.065,32.332c0,2.05-.416,3.872-1.247,5.468-.831,1.595-2.016,2.847-3.553,3.756-1.537.909-3.35,1.363-5.439,1.363h-7.541v-19.462c0-.019-.034-.164-.101-.435-.068-.271-.141-.551-.217-.841-.078-.29-.126-.454-.145-.493h8.035c1.624,0,3.065.256,4.322.769,1.257.513,2.325,1.243,3.205,2.19.88.948,1.547,2.069,2.001,3.365.454,1.296.682,2.736.682,4.322h0ZM200.773,32.448c0-.986-.111-1.948-.334-2.886-.223-.938-.58-1.784-1.073-2.538-.493-.754-1.131-1.353-1.914-1.798-.783-.445-1.736-.667-2.857-.667h-3.307v15.489h3.365c1.47,0,2.654-.362,3.553-1.088s1.552-1.668,1.958-2.828c.406-1.16.609-2.388.609-3.684h0Z"/>
      <path d="M206.672,28.056h3.086v14.862h-2.802v-13.623c0-.013-.024-.115-.071-.304-.047-.189-.091-.386-.132-.589-.041-.203-.068-.318-.081-.345h0Z"/>
      <path d="M218.915,27.813c.528,0,1.12.054,1.777.162.656.108,1.292.277,1.909.508.616.23,1.127.541,1.533.934l-1.482,1.665c-.434-.325-.822-.585-1.167-.782-.345-.196-.714-.342-1.107-.437-.393-.095-.88-.142-1.462-.142-.84,0-1.547.159-2.122.477-.576.318-1.035.748-1.381,1.289-.345.541-.596,1.154-.751,1.838-.156.684-.233,1.391-.233,2.122,0,.623.074,1.269.223,1.939.149.67.386,1.293.71,1.868.325.575.748,1.043,1.269,1.401.521.359,1.154.538,1.898.538.636,0,1.194-.129,1.675-.386.48-.257.856-.619,1.127-1.086.271-.467.406-1.025.406-1.675v-1.259h-3.086l.264-1.787h5.644l-.04,3.736c-.014.704-.01,1.404.01,2.101.02.697.051,1.398.091,2.102h-1.442l-.69-1.543c-.663.623-1.333,1.069-2.01,1.34-.677.271-1.482.406-2.416.406-1.096,0-2.058-.196-2.883-.589-.826-.392-1.512-.931-2.061-1.614-.548-.684-.958-1.482-1.229-2.396-.271-.914-.406-1.885-.406-2.913,0-1.164.166-2.223.497-3.178.332-.954.815-1.78,1.452-2.477.636-.697,1.414-1.232,2.335-1.604.92-.372,1.97-.559,3.147-.559h0Z"/>
      <path d="M226.467,28.056h3.086v14.862h-2.802v-13.623c0-.013-.024-.115-.071-.304-.047-.189-.091-.386-.132-.589-.041-.203-.068-.318-.081-.345h0Z"/>
      <path d="M235.238,30.066h-4.122v-2.01h11.207v2.01h-4.183v12.852h-2.903v-12.852Z"/>
      <path d="M248.598,28.056l5.259,14.862h-3.005l-1.462-4.264h-4.426l-1.482,4.264h-2.355l5.259-14.862h2.213ZM247.177,31.589l-1.523,5.076h3.066l-1.543-5.076h0Z"/>
      <path d="M254.974,28.056h3.086v12.852h5.827v2.01h-8.649v-13.623l-.264-1.239h0Z"/>
      <path d="M278.11,21.687l4.525,12.182c.213.58.377,1.16.493,1.74s.232,1.17.348,1.769c.154-.619.276-1.199.362-1.74.087-.541.227-1.092.421-1.653l4.438-12.298h5.105v21.203h-3.916v-14.387c0-.348.019-.701.058-1.059.038-.357.068-.701.087-1.03-.116.348-.227.696-.334,1.044-.106.348-.227.696-.362,1.044l-5.192,14.415h-2.146l-5.337-14.415c-.136-.348-.256-.696-.362-1.044-.106-.348-.217-.696-.334-1.044.019.329.048.672.087,1.03.039.358.058.711.058,1.059v14.387h-3.162v-19.434l-.406-1.769h5.569,0Z"/>
      <path d="M302.721,43.142c-1.137,0-2.142-.196-3.015-.589-.873-.392-1.607-.937-2.203-1.634-.596-.697-1.046-1.513-1.35-2.447-.304-.934-.457-1.935-.457-3.005,0-1.083.152-2.088.457-3.015.305-.927.758-1.736,1.36-2.426s1.34-1.229,2.213-1.614,1.878-.579,3.015-.579c1.164,0,2.189.19,3.076.569.886.379,1.631.914,2.233,1.604s1.059,1.502,1.371,2.436c.311.934.467,1.956.467,3.066,0,1.096-.162,2.108-.487,3.035-.325.927-.795,1.736-1.411,2.426-.616.69-1.367,1.225-2.254,1.604-.887.379-1.892.569-3.015.569h0ZM302.802,41.213c.785,0,1.438-.166,1.959-.498.521-.331.937-.771,1.249-1.32.311-.548.534-1.154.67-1.817.135-.663.203-1.326.203-1.99s-.065-1.336-.193-2.02c-.129-.683-.349-1.313-.66-1.888-.312-.575-.735-1.039-1.269-1.391-.535-.352-1.201-.528-2-.528-.785,0-1.438.166-1.959.498-.521.332-.937.775-1.249,1.33s-.535,1.164-.67,1.827c-.136.663-.203,1.32-.203,1.969,0,.663.068,1.337.203,2.02.135.684.358,1.313.67,1.888.311.575.731,1.039,1.259,1.391.528.352,1.191.528,1.99.528h0Z"/>
      <path d="M324.081,35.508c0,1.435-.291,2.711-.873,3.827-.582,1.117-1.411,1.993-2.487,2.63-1.076.636-2.345.954-3.807.954h-5.279v-13.623c0-.013-.024-.115-.071-.304-.047-.189-.098-.386-.152-.589-.054-.203-.088-.318-.101-.345h5.624c1.137,0,2.145.179,3.025.538.88.359,1.627.87,2.244,1.533.616.663,1.082,1.449,1.401,2.355.318.907.477,1.916.477,3.025h0ZM321.076,35.589c0-.69-.078-1.364-.234-2.02-.156-.656-.406-1.249-.751-1.777s-.792-.947-1.34-1.259c-.549-.311-1.215-.467-2-.467h-2.315v10.842h2.355c1.029,0,1.858-.254,2.487-.761s1.086-1.167,1.371-1.98c.284-.812.426-1.672.426-2.579h0Z"/>
      <path d="M325.522,28.056h9.339v2.01h-6.253v4.203h4.792v2.01h-4.792v4.629h6.253v2.01h-9.035v-13.623s-.304-1.239-.304-1.239Z"/>
      <path d="M341.257,27.813c.758,0,1.499.105,2.223.315.724.21,1.377.511,1.959.903l-1.401,1.746c-.366-.325-.806-.575-1.32-.751-.515-.176-1.009-.264-1.482-.264-.528,0-1.009.139-1.441.416-.434.278-.65.707-.65,1.289,0,.393.098.731.294,1.015.196.284.46.531.792.741.332.21.701.416,1.107.619.474.23.964.467,1.472.711.507.244.978.538,1.411.883.433.345.785.768,1.056,1.269.271.501.406,1.117.406,1.848,0,.988-.244,1.827-.731,2.518-.487.69-1.127,1.212-1.919,1.563s-1.648.528-2.568.528c-.826,0-1.648-.091-2.467-.274-.819-.183-1.587-.484-2.305-.904l.954-2.254c.474.433,1.022.789,1.645,1.066.622.278,1.259.416,1.909.416.433,0,.839-.081,1.218-.244s.69-.403.934-.721.366-.714.366-1.188c0-.487-.136-.89-.406-1.208-.271-.318-.623-.599-1.056-.842-.434-.244-.9-.48-1.401-.711-.447-.203-.887-.423-1.32-.66-.434-.237-.826-.511-1.178-.822-.352-.311-.636-.694-.853-1.147-.217-.453-.325-.991-.325-1.614,0-.988.244-1.793.731-2.416.487-.622,1.117-1.083,1.888-1.381.771-.298,1.591-.447,2.457-.447h0Z"/>
      <path d="M348.989,21.687h4.293l-.841,14.879h-2.61s-.841-14.879-.841-14.879ZM353.311,41.12c0,.6-.213,1.107-.638,1.523-.425.416-.938.624-1.537.624-.58,0-1.083-.208-1.508-.624-.425-.416-.638-.923-.638-1.523,0-.58.213-1.083.638-1.508s.928-.638,1.508-.638c.599,0,1.112.208,1.537.624.425.416.638.924.638,1.523h0Z"/>
    </g>
  </g>
</svg>