<?xml version="1.0" encoding="UTF-8"?>
<svg id="Layer_1" xmlns="http://www.w3.org/2000/svg" width="824.7" height="1024" version="1.1" viewBox="0 0 824.7 1024">
  <!-- Generator: Adobe Illustrator 29.4.0, SVG Export Plug-In . SVG Version: 2.1.0 Build 152)  -->
  <defs>
    <style>
      .st0 {
        fill: #99871e;
      }

      .st1 {
        fill: #a29e8f;
      }

      .st2 {
        fill: #2b2a26;
      }

      .st3 {
        fill: #d60000;
      }

      .st4 {
        fill: #d0d6a3;
      }

      .st5 {
        fill: #212121;
      }

      .st6 {
        fill: #0b0b09;
      }

      .st7 {
        fill: #ac2619;
      }

      .st8 {
        fill: #99b188;
      }

      .st9 {
        fill: #1a373a;
      }

      .st10 {
        fill: #d5bc2a;
      }

      .st11 {
        fill: #474037;
      }
    </style>
  </defs>
  <path class="st5" d="M352.1,24.2c71.6-2.2,143.5,5,214.2,16,58.7,8.3,127.5,27.6,162.1,79.4,8.5,22.7,0,48.5-2.2,71.8-5.3,52.4-18.5,107.7-26,159.2,8-13.3,4-46.2,33.9-37.7,34.3-193.9,81.1-172.6,34.4,7.9,25.6,4.7,16.1,29.8,12.4,48.1,25.5,9.2,16.4,45.6-10.9,39.1-12.2,41.1-50.2,179.7-63.4,223.1-9,23.5-12,76.9-39.6,83.5-12.4,81.7-10.7,186.4-67.4,252.4-62,69-166.3,25.6-165.3-66.3-8,3.6-158-17.8-165.4-21.6-6,43.7-42.3,85.9-88.6,85.4-136.1-8.5-131.4-197-126.7-298.1-14.8-8.2-12.9-25.3-12.4-39.8.2-11.6.3-23.3.7-34.9,2-74.1,6-168.7,9.6-242.9-29.8-1.7-31.3-42.9,0-42.9,1.2-19.7-.9-44.7,26-42.5,2.2-179.8,51.7-183.9,33.2,1.5,25.8,1.1,21.1,28.1,19.6,46.8,28.2,2.9,26.4,41.3-1.7,42.1l-19,211c-1.6,17.3-5.6,78.6-10.7,91-2.7,6.6-8.3,10.1-14.5,12.8-4.5,77-9.9,234.2,79.3,263.9,39.7,10.1,70.6-22.8,75.6-60-10.8,2.4-61.9-13.1-72.8-16.7-22.8-7.6-33.7-29.4-32.7-52.4,3.3-146,21.4-291.5,36.2-436.7,11.8-99,20.8-199.7,42.3-297.1,1.9-6.7,4.5-13.9,9.3-19.1,27.8-27.4,93.4-22.4,130.3-25.9ZM464.7,901.8c1.8,13.9,7,40.4,19,48.9,15.7,22,49.9,24.2,72.4,11.9,72.1-43.7,71.5-185.8,80.2-257l-1-.9c-12.2,54.3-16.2,111.3-35,163.9-16.5,40.7-73.2,36.2-109.6,35.7-8.2-.5-18.6,1.4-26-2.6Z"/>
  <path class="st10" d="M351.6,40.6c81-2.2,162,6.2,241.6,21.1,19,4.1,47.4,5.4,52.1,28.7,2.9,61-15.1,122.2-22.7,182.7-25.6,150.1-60,377.2-88.7,525.7-12,60.8-11.7,98.2-87.6,85.8-30.8,1.3-62.7-5.6-93.5-8.2-38.2-9.7-206.7-16.8-203.7-65.8-5.1-76.3,57.4-719,85-749.7,27.1-23.3,82.9-16,117.6-20.2Z"/>
  <path class="st6" d="M302.1,73.2c98.2-1.6,198.6,4.3,294.3,26.4,11.9,4.8,16.1,17.4,14.6,29.5-1.4,26.5-7.3,53.2-11.1,79.5-5.4,23.3-5.1,78.6-22.1,93.8-10.7,9.3-29.3,6-42.4,5.2,0,0-207.4-18.3-207.4-18.3,0,0-49.4-4.5-49.4-4.5-14.2-2-30.9.1-42.7-9.2-15.5-15.2-7.3-39.5-5.8-58.5,3.1-23.5,6.7-46.8,10.7-70.1,9.1-47.1.2-77.2,61.3-73.6Z"/>
  <path class="st11" d="M301.6,87.7c81.6-1.8,163.3,4.8,244,16.6,16.1,3.3,35.9,1.9,49.3,12.5,3.3,3.8,2.8,12.2,2.5,16.8-5.7,47.2-12.3,96.1-21.7,142.7-3.3,20.6-21.8,19.1-38,16.8-92.8-7.2-190.9-16.2-283.7-24.4-26.4-5.2-8.1-48.8-7.4-67,4.8-33.3,9.2-66.8,15.7-99.8,4.5-15.7,26.2-13.6,39.3-14.2Z"/>
  <path class="st6" d="M298.2,102.4c72.8.9,145.5,7.9,217.9,15.4,19.5,4.6,66.3-3.2,66.1,25.3-1,26.9-10.9,68.3-14.1,95.8-3.3,17.7-1.7,48.8-27.5,46-65.1-3.8-155.4-14.2-220.7-19.2-19.5-3.1-42.7.8-60.2-9.1-9.3-10.6-2.5-26.8-1.4-39.3,5.6-32.2,9.3-65,15.6-97,1.5-13.1,11.9-18.6,24.2-17.8Z"/>
  <path class="st4" d="M267.2,249c-5.9-10.6,4.4-41.8,5.3-55.2,3.5-22.3,6.3-44.9,10.6-67,.6-3.1,1.9-11.2,4.8-13,2.9-1.8,7.6-2,10.9-2.1,87.9,2.1,175.8,11.4,263.1,20.8,13.1,1.7,12.1,15,8.9,24.9-4,26.3-8.2,52.6-12.5,78.8-2.9,12.3-.3,31-11.4,39-26.9.6-90-7.7-117.7-9.5,0,0-91.3-8.1-91.3-8.1-23.2-3.2-48.7-.7-70.7-8.5Z"/>
  <path class="st8" d="M267.2,249c-5.9-10.8,4.4-41.6,5.3-55.2,3.5-22.3,6.3-44.9,10.6-67,.6-3.1,1.9-11.2,4.8-13,2.9-1.8,7.6-2,10.9-2.1,62.6,1,125.2,7.2,187.6,13,16.7,1.5,33.4,3.1,50,4.9,19.7,2.2,44.6-1.1,34.5,27.7l-.6-1.4-1.7,5c0-8.8-6.7-14.8-15-16.1-25.8-5.8-54.9-7.5-81.2-10.5-57.4-6.9-115.4-15.2-173.3-11.3-15.4.5-15.5,60.5-19.6,73.4-3.5,17-4.9,36-9.5,52.4l-2.8.2Z"/>
  <path class="st6" d="M331.9,600.1c89.6-2.9,153.3,92.2,116.5,173.9-41.5,95.5-177.3,99.4-224.3,6.5-41.8-80.1,17.5-179.3,107.8-180.4Z"/>
  <path class="st0" d="M441.5,700.3l1,.5c17.5,68.8-45.5,138-115,133.3-57.9-1.3-107.2-55.6-103-113.4,13.8,2.9,28.1,3.7,42,6.2,9.4,98.8,147.2,77.9,132.9-17.7,14-3.1,28-6.6,42.2-8.9Z"/>
  <path class="st10" d="M280.6,714.3c4.7-35.4,49.1-58.8,79.9-39-10.3,9.8-68,65.5-76.8,70.5-4.6-8.8-4.9-21.9-3.1-31.5Z"/>
  <path class="st0" d="M280.6,714.3c4.7-35.4,49.1-58.8,79.9-39l-8.2,8c-19.5-13.3-46.6,2.4-60.6,17.6-3.3,3.7-6.6,11.5-11,13.3Z"/>
  <path class="st10" d="M309.3,772.7c4-1.1,65.2-62,75-70.3,7,20.2,3.5,43.6-11.4,59.5-12.5,13-35,23.6-52.3,15.5-3.9,1-8.5-2.1-11.3-4.7Z"/>
  <path class="st0" d="M309.3,772.7c4-1.1,65.2-62,75-70.3,1.7,5.3,2.7,10.6,3.6,16-8.8,2.1-14.6,11.2-21.5,16.6-9.8,9.9-37.2,32.2-45.8,42.3-3.9,1-8.5-2.1-11.3-4.7Z"/>
  <path class="st0" d="M412.1,645.8c11.4,5.4,25.1,32.9,28.5,45-14.3,2.6-29,5.5-42.9,9.9-4.1-9.9-8.8-18.5-16.4-26.2,10.4-9.4,19.7-19.9,30.7-28.6Z"/>
  <path class="st0" d="M245.1,660.8c11.8,7,22.2,16.4,32.4,25.5-5.3,9.6-8.6,18.4-10.7,29.2-13.7-1.7-27.8-3.6-41.5-4.7,2.1-18.3,9.8-34.8,19.8-50Z"/>
  <path class="st0" d="M357.3,617.7c16.9,2.5,32.6,10.1,46.4,19.9-7.2,7.4-22.8,23-30.2,29.9-7.1-4.8-13.8-8.2-22-10.9.5-12.9,3.4-26.3,5.8-38.9Z"/>
  <path class="st0" d="M325.2,616.3c6.9-.7,14.1-.4,21-.2-3,12.4-4.2,26.4-5.4,39.1-9.2-.2-18.5.8-27,4.5-5.7-12.4-10.5-25.4-15.4-38.1,8.6-3.2,17.7-4.6,26.9-5.3Z"/>
  <path class="st9" d="M370.7,682c3.4,2.1,5.6,6.6,7.7,10-9,7.8-74.3,74.2-79.7,74-4.2-1.2-6.6-5.7-8.7-9.3,2.8-.6,73.5-67,80.8-74.6Z"/>
  <path class="st0" d="M287.2,626.1c3,1.5,14.6,31.9,17,37.2-7.7,4.2-13.6,8.7-20.1,14.6-9.5-10-20.9-18-32.3-25.9,8.8-11.5,22.5-19.9,35.4-26Z"/>
  <path class="st6" d="M285,490.8c9.5.3,27.5,10,38.4,12.9,37,11.8,74.6,7.6,111-3.8,39.6-1.5,7.1,53.4-6.2,67.1-45.1,47.9-137.7,26-138.4-45.6-15.6-4.1-26.9-27.2-4.8-30.7Z"/>
  <path class="st3" d="M387.7,542.5c13-1.7,26.5,2.4,38.6,6.6-21.7,28.3-64.8,40.7-95.6,20.1,11.9-14.8,38.5-25,57-26.7Z"/>
  <path class="st6" d="M437.3,353.5c74.1-1.7,63.8,125.3-1.1,134-76.5,6.5-63.9-126.9,1.1-134Z"/>
  <path class="st4" d="M436.6,366.8c58.4-2.3,48.7,100.8-.8,108.5-59.5,4.2-48-101,.8-108.5Z"/>
  <path class="st6" d="M443.5,401.2c27.9-2.4,22.5,49.6,1.2,55.8-27.8,3.7-21.1-48.8-1.2-55.8Z"/>
  <path class="st6" d="M307.4,343.4c70.3,2.4,57.8,129.5-6.3,134.6-71.9-.4-56.1-129.2,6.3-134.6Z"/>
  <path class="st4" d="M304.7,356.6c55.3-1.8,46.8,100.3-.9,108.4-57.7,2.6-45.6-99.2.9-108.4Z"/>
  <path class="st6" d="M315,391.6c27.1-1.4,20.3,50.9-.3,56.7-27.5.3-20.2-50.2.3-56.7Z"/>
  <path class="st6" d="M447.7,309.6c14.4-2,28.9,2.9,39.1,13.2,18.5,15.5,14.3,45.2,1.8,28.5-9.6-14.1-25.6-22.8-42.9-21.6-4.4.3-7.6,2.5-12,.2-12.3-7.1,6-19.4,14-20.4Z"/>
  <path class="st6" d="M305.8,298.8c11.7-3.2,36.9,7.9,24.9,21.7-4.5,2.9-8.3-.7-12.6-1.7-10.1-2.4-21.9,1.6-30.4,7-5.7,3.4-11.6,15.2-18.8,11.7-7.8-17.5,21.3-37.5,36.9-38.6Z"/>
  <path class="st0" d="M656,81.9c18.5,10.6,59.6,30.7,60.2,55.4-6.4,71.6-19.3,143.9-33.1,214.5-9.2,6.7-11.7,20.2-4,29-32.1,155.9-52.6,315.9-89.4,470.6-3.6,10.5-8.7,24.1-20.1,27.7-10.5,8.5-43.8,11.4-55.3,8,27.3-18.1,30.8-89.4,38.7-121.1,35.2-206.3,77.9-437.5,104.7-644.1,1.2-13.8.9-26.5-1.7-40.1Z"/>
  <path class="st11" d="M708.7,391.6c16.2,3.5,32.4,7.9,48.6,11.6-21.2,74.9-49.6,174.4-70.4,248.4-5.4,15.9-7,34.3-17.4,47.9-9.1,4.2-20.2,2-26.1-6.4-5.9-18.3,5.1-38.8,7.8-57.2,18.1-81.7,37.1-163,57.5-244.2Z"/>
  <path class="st2" d="M708.7,391.6c16.2,3.5,32.4,7.9,48.6,11.6-21.2,75-49.6,174.4-70.4,248.4-3.3,11.6-6.2,23.2-10.2,34.6-2.6,10.9-10.5,18-22.1,14.8,2.5-1,5-2.1,7.5-3.2,24.6-89.4,54.1-195.9,76.9-285.8-7.4-3.4-28.4-5.4-32.6-10.7l2.4-9.7Z"/>
  <path class="st3" d="M64.1,348.1c16.8.9,33.9,3.2,50.6,3.4-6.7,94.4-15.3,192-25.3,286.2-1.1,8.5-5.3,17.2-14.4,18.9-26.5,2.6-20.2-29.9-20.2-46.9,1.9-86.7,5.1-175.1,9.3-261.6Z"/>
  <path class="st7" d="M64.1,348.1c16.8.9,33.9,3.2,50.6,3.4-6.7,94.4-15.3,192-25.3,286.2-1.1,8.5-5.3,17.2-14.4,18.9,11.3-94.4,17.2-199.3,24.2-294-11.9-1.1-23.8-1.5-35.7-2.7l.6-11.9Z"/>
  <path class="st11" d="M647.1,714l9,1.7c-16.3,90.3-5.2,238.7-112.9,272-58.4,11.6-93.9-32.4-98.1-86.6,2.5,1.6,6.1,1.7,8.9.7,1.9,44.3,33.7,86.5,81.6,78.7,104.1-22.2,98.1-183,111.6-266.5Z"/>
  <path class="st11" d="M64.3,670.3l8.3.2c-2.3,83-8.6,249.6,94.3,273.1,42.6,8,78.5-28.8,82.8-69.3,2.6,2.1,4.9,2.6,8.2,2.2-6.8,51.4-54.4,90.5-106.2,72.3-95.6-38.4-89.8-192.3-87.3-278.6Z"/>
  <path class="st3" d="M67.5,276.2c11.8-.8,39.8-3.1,48.3,5.2,3.3,4.4,1.1,21.7,1,27.7-16.8-2.9-33.8-3.5-50.8-4.1.7-9.6,1.4-19.2,1.5-28.8Z"/>
  <path class="st7" d="M101.8,276.4c21.6,0,15,17.5,14.9,32.8-5.3-.9-10.5-1.6-15.8-2.2.2-10.2.4-20.4.9-30.5Z"/>
  <path class="st11" d="M715.7,351.3c1-4.1,5-23,7.9-24.7,12.2-2.8,35.8,5,47.7,9.5-1.7,9-2.5,18.1-4.1,27.1-16.9-4.6-34-9.4-51.4-11.9Z"/>
  <path class="st2" d="M757.7,331.3c4.5,1.5,9.2,2.8,13.6,4.8-1.7,9-2.5,18.1-4.1,27.1-4.7-1.2-9.5-2.7-14.2-3.6.9-9.3,2.8-19.2,4.8-28.3Z"/>
  <path class="st11" d="M753.4,390c-19.4-7.1-40.9-8.9-60.4-15.1-3.5-1.3-6.9-4.8-5.8-8.8,8.6-13.2,57.4,5.1,71.4,7.6-1.5,5.6-3.3,10.9-5.2,16.4Z"/>
  <path class="st1" d="M775.1,202.3c6,17.7-13,91.4-17.9,113.8-3.2-1.4-7.5-1.1-10.2-3.2,3.2-21.3,17.8-88.8,28.1-110.5Z"/>
  <path class="st3" d="M108,338.1c-17.9-1.1-36.3-1.2-54-3.5-3.9-.8-11.3-2.1-11.2-7.3,6.9-17,50.8-7.1,65.8-6.6-.9,5.7-.6,11.7-.6,17.5Z"/>
  <path class="st1" d="M100.2,155.3l.6.6c4.9,31.6-.6,73.7-3,106.1-2.1.8-5.8.5-8.1,0-.7-20.1,3.2-84.6,10.5-106.7Z"/>
  <path class="st7" d="M108.6,320.7c37.3,1.6,38.5,24-.6,17.5,0-5.7-.2-11.8.6-17.5Z"/>
  <path class="st2" d="M758.6,373.6c8.6,2,35.9,11.7,18.5,21.6-5.6,1.9-17.6-3.7-23.7-5.2,1.9-5.4,3.7-10.8,5.2-16.4Z"/>
  <g>
    <path d="M385.3,218.9l-1.5,17-13.6,11.4,2.9-32.6,5.1-4.3,7.1,8.5ZM420.9,254.1l-48.5-4.3,13.6-11.4,23.5,2.1,11.4,13.6ZM374.3,200.5l2.9-32.6,11.4,13.4-1.5,17.1-8.5,7.3-4.3-5.2ZM428.3,170.1l-13.6,11.4-23.5-2.1-11.4-13.6,48.5,4.3ZM426.2,219.4l-2.9,32.5-11.4-13.6,1.5-16.9,8.5-7.1,4.3,5.1ZM415.3,200.9l1.5-17,13.6-11.2-2.9,32.5-5.1,4.4-7.1-8.6Z"/>
    <path d="M435.9,255.4l1.1-12.5,12.5,1.1-1.1,12.5-12.5-1.1Z"/>
    <path d="M476.3,227l-1.5,17-13.6,11.4,2.9-32.6,5.1-4.3,7.1,8.5ZM511.8,262.2l-48.5-4.3,13.6-11.4,23.5,2.1,11.4,13.6ZM465.3,208.6l2.9-32.6,11.4,13.4-1.5,17.1-8.5,7.3-4.3-5.2ZM519.3,178.1l-13.6,11.4-23.5-2.1-11.4-13.6,48.5,4.3ZM517.2,227.4l-2.9,32.5-11.4-13.6,1.5-16.9,8.5-7.1,4.3,5.1ZM506.3,209l1.5-17,13.6-11.2-2.9,32.5-5.1,4.4-7.1-8.6Z"/>
  </g>
</svg>