<?xml version="1.0" encoding="UTF-8"?>
<svg id="Layer_1" xmlns="http://www.w3.org/2000/svg" width="12.642in" height="18.149in" version="1.1" viewBox="0 0 910.224 1306.728">
  <!-- Generator: Adobe Illustrator 29.4.0, SVG Export Plug-In . SVG Version: 2.1.0 Build 152)  -->
  <defs>
    <style>
      .st0 {
        fill: #fef4ea;
      }

      .st1 {
        fill: #db8d4f;
      }

      .st2 {
        fill: #d60000;
      }

      .st3 {
        fill: #342513;
      }

      .st4 {
        fill: #b25b02;
      }

      .st5 {
        fill: #ab6e3e;
      }

      .st6 {
        fill: #abd1d6;
      }

      .st7 {
        fill: #5aba47;
      }

      .st8 {
        fill: #1a373a;
      }

      .st9 {
        fill: #d5bc2a;
      }

      .st10 {
        fill: #388230;
      }

      .st11 {
        fill: #000100;
      }

      .st12 {
        fill: #554109;
      }

      .st13 {
        fill: #fad5ac;
      }

      .st14 {
        fill: #352a00;
      }
    </style>
  </defs>
  <g>
    <g>
      <path class="st9" d="M316.409,176.804c-1.1-7.1-3.7-14.2-5.1-21.4-3.8-19.9-4.4-42.101-.9-62.201,1.4-7.6,3.5-15,5.2-22.4,2.8-7.8,12.3-34.001,17.4-36.201,1.7-.9,4,.1,5.4,1.6,1.1,1.2,2,2.6,2.3,4.7.2,1.7-.3,3.5-.9,4.9-1.5,3.8-3.7,7-5.4,10.5-3.1,6.2-5.8,13.1-8,20.1-5.9,18.3-8.4,37.501-6.9,57.601,1.4,18.3,6.3,38.101,13.6,53.201,2.1,4.5,5.5,8.3,7.3,12.8,1.1,2.6.8,4.2-.6,6.4-1.3,2-3,3.3-4.9,3.3-2.8-.1-5.1-3.1-6.8-6-4.4-7.4-8.9-18-11.7-27.001h0v.1Z"/>
      <path class="st9" d="M360.21,69.301c1.4,1.9,3.5,3.9,3.5,7s-2.5,8.7-3.9,12.2c-5.8,14.2-8.3,28.101-6.5,44.601.7,5.8,1.9,11.6,3.9,16.7,2.1,5.2,6.5,11.3,7.2,17.3.3,2.5-.4,4.2-1.7,5.7-1.7,1.7-3.5,2.2-5.5,2.2-7.4-6.4-11.6-21.5-13.6-33.101-.2-1.3-.4-2.6-.6-3.9-.1-1.5-.3-2.8-.4-4.1,0-1.3-.3-2.8-.3-4.1-.2-1.3-.2-2.8-.2-4.1v-4.1c0-1.3.1-2.8.1-4.1s.2-2.8.3-4.1c.1-1.5.2-2.8.4-4.1.1-1.3.3-2.6.5-3.9s.5-2.6.7-3.9.5-2.6.8-3.9c.3-1.2.6-2.5.9-3.8.4-1.3.7-2.5,1.1-3.8.4-1.2.8-2.5,1.2-3.6.4-1.3.8-2.5,1.3-3.6.4-1.2.9-2.3,1.4-3.5,1.5-3.6,4.4-9,7.4-9.9.9-.3,1-.3,1.9-.3h.1v.2h0Z"/>
      <path class="st9" d="M514.913,176.704c-2.8,9-7.3,19.6-11.7,27.001-1.7,2.9-4,5.8-6.8,6-1.9,0-3.6-1.3-4.9-3.3-1.4-2.2-1.7-3.8-.6-6.4,1.8-4.5,5.2-8.3,7.3-12.8,7.3-15.1,12.2-34.901,13.6-53.201,1.5-20.1-1-39.201-6.9-57.601-2.2-7-4.9-13.8-8-20.1-1.7-3.5-3.9-6.7-5.4-10.5-.6-1.5-1.1-3.2-.9-4.9.3-2,1.2-3.5,2.3-4.7,1.4-1.5,3.7-2.5,5.4-1.6,5.1,2.2,14.6,28.301,17.4,36.201,1.7,7.4,3.8,14.8,5.2,22.4,3.5,20.1,2.9,42.301-.9,62.201-1.4,7.1-4,14.2-5.1,21.4h0v-.1Z"/>
      <path class="st9" d="M471.212,69.101c.9,0,1,0,1.9.3,3,.9,5.9,6.2,7.4,9.9.5,1.2,1,2.3,1.4,3.5.5,1.2.9,2.3,1.3,3.6.4,1.2.8,2.5,1.2,3.6.4,1.3.7,2.5,1.1,3.8.3,1.3.6,2.6.9,3.8.3,1.3.6,2.6.8,3.9.2,1.3.5,2.6.7,3.9s.4,2.6.5,3.9c.2,1.3.3,2.6.4,4.1.1,1.3.2,2.8.3,4.1,0,1.3.1,2.8.1,4.1v4.1c0,1.3,0,2.8-.2,4.1,0,1.3-.2,2.8-.3,4.1-.1,1.3-.3,2.6-.4,4.1-.2,1.3-.4,2.6-.6,3.9-2,11.6-6.2,26.701-13.6,33.101-2,0-3.8-.4-5.5-2.2-1.3-1.5-2-3.2-1.7-5.7.7-6,5.1-12.1,7.2-17.3,2-5.1,3.2-10.9,3.9-16.7,1.8-16.6-.7-30.401-6.5-44.601-1.4-3.5-3.9-8.1-3.9-12.2s2.1-5.1,3.5-7h.1v-.2h0Z"/>
    </g>
    <path class="st14" d="M425.311,223.605c8.6,5.4,10,36.701,10.3,46.001,14.7,2.1,13.4,16.7,14.4,27.701,7.3,11.2,7.5,37.401,2.6,49.501,3.7,8.4,3.6,15.4,3.5,24.401,20.8,1.7,17.8,26.501,22.9,41.301,9.6,24.601,23,47.701,25.901,74.402,18.3-39.101,22.7-85.602,66.801-105.602-33.901-30.301-67.401-75.802-61.301-123.603,1.9-10.3,6.7-20.8,6-31.301-5.7-33.801-13-65.801-4.6-99.902-5,4.8-17.6,29.501-24.801,25.401-6.7-21.4-.8-49.801,9-69.802-7.1,2.3-29.201,19.7-34.301,15.1,2.7-29.801,26.401-55.101,55.201-62.301-6.7-8-16-20-13.1-30.801,6.6-2.1,33.001,7,42.601,7.5,74.102-3.7,150.403-19.3,210.305,38.301-.5-5.9-1.8-26.401.9-30.701,18.4-.2,29.901,22.8,32.901,38.501,10.5-4.6,21.5-6.4,32.401-2.1,4.6,2.1,17.4,7.7,14,14.1-1.9,2.2-23.201,9.4-28.201,12.2,31.801,13.6,45.101,64.301,25.501,47.401,10.4,26.101,10.6,59.801-6.3,83.402,15.1,42.401-10.5,106.402-63.401,92.902-3.3,4.5-14.4,17.5-14.6,22.4,5.4,6.6,18.4,2.2,26.401,3,110.802-6.2,113.902,131.703,113.002,212.305,3.8,64.401-6.2,101.302-77.702,108.002-.2,10.8.1,21.8-.5,32.601-77.502,34.801-177.504,36.201-255.606,2.1-4.6-8.2-1.4-19.6-2.1-28.801,0-12.1-.2-24.1-.7-36.101l-8.3-4.8c-13.5,12.7-32.001,22-50.801,16.8-31.801-11.6-57.401-26.201-73.902-56.501-17.3-.9-35.101-7.9-45.101-22.6-21.7-3.8-47.801-11.8-60.001-31.501-36.401,3.9-39.201-23.701-37.201-52.601-17.4-1.8-22.4-25.901-11.5-37.701-7.8-10.8-9.9-25.901-1.4-36.801-9.8-14-6.5-37.501,13.7-38.001,2.4-22.4-10.6-82.202,17.2-87.402-1-12.3-1.9-28.601,15-27.801,19.8-2.4,20.1,12.4,18.8,27.701,21.2.3,42.901,1.1,64.001-.1.3-7.5.5-12,5-18.4,0-10.5-.7-19.6,7.3-27.601-.5-58.201,1.1-116.402,1.3-174.604-.2-10.4-4.3-20.2-4.4-30.601-1.7-15.8,12.4-26.001,23.501-11.9-2.6,72.902-1.5,143.703-.5,216.905h-.1Z"/>
    <path class="st10" d="M801.419,687.315c-74.302,31.601-163.804,30.301-239.405,2.1-1.3-2-2-2.5-1.5-5,6.6-16.9,2.1-38.201,3.2-56.401,39.201,20.4,107.302,59.501,143.103,15.3,18.6,16.5,41.801-1.8,51.301-19.4,14.2,9.6,25.701,21,43.501,23.3l-.2,40.201v-.1h0Z"/>
    <path class="st1" d="M611.815,145.603c0-.9,0-1.6-.4-2.4l-1,.9h0c2.2-2.5-2.7-13-3.2-16.6-2.2-9.5-4.2-19.4-5.3-29.101,14,17.1,32.901,32.901,54.501,38.801-4.6-10.1-7.7-19.6-9.3-30.701,14.9,16.4,31.701,36.201,52.501,45.101,1.3-4.5,2.7-9,3.6-13.6,4.3,8.6,16.2,41.201,20.2,45.201,2.3-1.5,3.7-4.6,5.1-7,1.6,9.5,3.3,18.7,3.6,28.301,1.3,10.1-5.4,37.701,8.6,39.401,12.7-6.3,23.3-54.901,56.901-43.901,8.3,2.7,13.9,8.4,17.6,16.1,20.2,36.801-20.3,106.102-61.301,68.501-21.7,56.601-93.402,114.402-156.103,100.202-38.301-18.6-72.702-68.301-76.802-111.002-1.2-16,5.9-29.901,5.9-45.501,1-17.5-16.9-50.001,2.7-59.801,13.4-5.1,27.701,7.4,35.601,4.6,3.3-12-10.2-22-20.2-25.401-9.6-3.3-19.7.8-26.001,8.3.6-22.1,5.4-49.001,26.501-60.801,12.7,25.301,36.401,49.801,66.101,50.101l.2.3h0Z"/>
    <path class="st14" d="M676.717,287.606c1.8,3.2,5.4,9.6,3.4,13.2l-1,.3-6.9-4.4c-1.2,41.301-44.401,84.002-83.202,52.601-11.1-10-16.9-23.701-23.6-36.701-3.7-2.2-7.8-4.5-9.3-8.8l.4-1.6c36.501,9.5,72.902,3.5,106.102-14.4-1.9-1.7-4-3.3-5-5.8l.6-1.1c2-.6,3.5-.5,5.6-.3,4.5,1.2,10.2,2.5,12.8,6.8l.1.2h0Z"/>
    <path class="st0" d="M577.815,316.007c28.801,3.4,57.201-5.2,83.302-16.2-2.3,23.501-74.002,39.801-83.302,16.2Z"/>
    <path class="st4" d="M607.615,349.307c-3.3-.7-6.5-2.3-6.7-6,3.8-4.8,38.701-13.3,46.201-14.5-4,16.6-24.1,24.301-39.601,20.5h.1Z"/>
    <path class="st0" d="M647.716,247.505c-19,6.1-24.701-16.1-20.3-30.301-2.7-1.4-4-3.5-5.6-6l-1.1-.4c-4-23,20.6-36.301,37.701-20.5,12.4,10.2,18.6,33.001,6.4,45.201-3.1,6.8-9.7,11.4-17.2,12h.1,0Z"/>
    <path class="st14" d="M627.416,217.205c17.6-20.2,30.001,17.1,20.3,30.401-19,6.1-24.701-16.1-20.3-30.401Z"/>
    <path class="st14" d="M621.816,211.205l-1.1-.4c-4-23,20.6-36.301,37.701-20.5,12.4,10.2,18.6,33.001,6.4,45.201,11.5-29.501-31.801-64.701-43.101-24.301h.1,0Z"/>
    <path class="st14" d="M560.814,225.905c5.3,39.801-26.801,20.2-22.1-7-4.5-.4-6.4-3.3-6.8-7.6l-.9.4c-5.8-38.701,37.701-28.601,33.901,3.5-.7,2.9-1.3,9-4.1,10.6v.1h0Z"/>
    <path class="st14" d="M543.714,211.905c9-1.7,15.1,6,17.2,14,5.8,48.401-37.601,7.4-17.2-14Z"/>
    <path class="st0" d="M560.814,225.905c-2.1-8-8.2-15.7-17.2-14-3.1-3.1-1.7-12-1.7-16,12.3-2.7,20.4,8.8,23,19.4-.7,2.9-1.3,9-4.1,10.6Z"/>
    <path class="st0" d="M543.714,211.905c-2.1,2.2-3.9,4.1-4.9,7-12.5-2-4.6-19.3,3.2-23,0,4-1.4,12.9,1.7,16Z"/>
    <path class="st14" d="M681.517,178.604c-11.3-4.3-26.801-17.2-42.601-13-6.8,1.1-22.2,9-28.001,4.4-4.3-16.9,18.4-27.301,32.601-27.101,17.4,1.3,43.101,15.2,37.901,35.701h.1Z"/>
    <path class="st14" d="M559.914,272.406c8.5,16.5,34.901,5.8,43.401,10.8-.4,4.7-5.1,6.8-8.9,8.4-10.2,3.3-21.9,4.2-31.801-.8-10.4-5.2-20.6-18.4-13.3-30.001,4.7-8.8,14.8-13,19.5-21.5,3.3-6,2-18.2,4.6-21.9,19.8,41.501-22.1,36.001-13.5,54.901v.1Z"/>
    <path class="st14" d="M808.32,243.405c-5.7-14-17.4-20.9-27.301-5.8,14,7.4,11.6,29.701-2,36.201l-1-.5c3.7-9.8,7.2-21.8-2.6-29.501-3.9,3.9-6.6,10.6-10.6,13.9-1.2-17.1,12.4-41.001,31.701-39.101,10.4,3.8,12.5,15,11.9,24.901l-.1-.1h0Z"/>
    <path class="st14" d="M605.415,368.308v-1c11-.1,21.9,0,32.601-2.5-4.6,12-24.001,10-32.601,3.5Z"/>
    <path class="st9" d="M440.512,298.306c-15.8,2.7-7.2,77.702-7.9,90.802.4,6,4.3,10.7,8.2,14.9-1.1,140.203,19.7,106.502-126.303,109.302-16.5.4-28.401-4.2-27.701-22.8-.3-66.801-2-134.403,1.1-201.104.6-10.4,7.9-11.1,16.5-11,40.501,0,81.502-1.5,121.903-.6,14.2-.4,15.5,8.3,14.2,20.3v.2Z"/>
    <path class="st14" d="M416.011,296.406c3.7,12.4,6.6,52.101-6.6,61.001-15.4,4.9-32.501,1.1-48.401,1.4-14.4-2.3-57.701,5.7-63.401-7-3.8-6.9-3.4-43.701-.7-51.601,1.6-6.5,7.3-10.3,13.8-9.9,31.401-.2,63.201-1.2,94.602-.4,4.2,1.1,8.4,2.4,10.6,6.5h.1Z"/>
    <path class="st6" d="M408.711,320.807c0,7.8,1.8,20-3.9,26.301-8.7,7.8-34.901,1.6-47.401,3-12.9,0-36.601,1.1-48.401-1.2-7.7-3.4-4-42.301-1.8-47.301,14.1-4.3,30.501-.7,45.301-1.7,17.2-.2,34.701-1.2,51.901-.4,6.9,4.9,4,14,4.3,21.3h0Z"/>
    <path class="st14" d="M430.511,440.209c-.7,19.3,5,41.501-2.4,59.701l-.9-.2c-1.7-6.6-1.5-100.402.6-109.102,3.5,7.9,1.5,18.1,2,26.801,1.8,6.8.5,15.8.7,22.9v-.1h0Z"/>
    <path class="st11" d="M427.811,390.508c3.5,7.9,1.5,18.1,2,26.801-5.2-2.4-2.2-21.3-2-26.801Z"/>
    <path class="st14" d="M309.409,393.608c-12.5-6.2-6.9-20.6,6-20.6,14.8,4.6,7.5,22-6,20.6Z"/>
    <path class="st14" d="M392.011,393.008c-11.8-4.8-4.9-23.4,7.2-19.3,13.4,4.4,5.8,24.701-7.2,19.3Z"/>
    <path class="st14" d="M363.61,392.708c-11.5-6-3-23.601,8.8-18.5,12.7,5.6,3.6,24.901-8.8,18.5Z"/>
    <path class="st14" d="M337.709,393.108c-12.7-3.8-6.4-23.601,6.1-19.4,12.6,3.8,6.4,23.501-6.1,19.4Z"/>
    <path class="st14" d="M365.21,421.909c-11.9-4.7-7.6-21.5,5-20.4,12.3,4.4,8.3,22.7-5,20.4Z"/>
    <path class="st14" d="M310.709,421.209c-12.5-2.8-7.9-22.4,4.6-19.4,12.7,2.7,8,22.7-4.6,19.4Z"/>
    <path class="st14" d="M395.411,421.409c-13.3-.9-11.3-21.3,1.9-19.5,12.1,1.5,10.3,20.5-1.9,19.5Z"/>
    <path class="st14" d="M338.309,422.109c-11.6-2.7-9.6-21.1,2.5-20.6,12.4,3.6,10.8,20.6-2.5,20.6Z"/>
    <path class="st14" d="M398.111,452.71c-10.7-2.2-7.8-18.9,2.9-17.4,12.1,1.5,9,19.9-2.9,17.4Z"/>
    <path class="st14" d="M368.51,452.81c-11.4-1.5-8.6-19.4,2.7-17.5,11.3,1.6,8.6,19.3-2.7,17.5Z"/>
    <path class="st14" d="M339.01,452.71c-11.7-1.3-9.1-19.1,2.5-17,10.5,1.8,8.1,18.3-2.5,17Z"/>
    <path class="st14" d="M310.409,452.41c-11.6-.5-10.2-18.3,1.4-16.9,10.5,1.1,9.1,17.5-1.4,16.9Z"/>
    <path class="st14" d="M337.209,476.51c-10.4-3.8-4.4-19.6,5.9-15.5,9.8,4,4.1,19-5.9,15.5Z"/>
    <path class="st14" d="M399.311,477.41c-10.7-1-8.8-17.9,1.9-16.4,10.6,1.1,8.7,17.8-1.9,16.4Z"/>
    <path class="st14" d="M368.01,476.91c-10.2-2.9-6.1-18.4,4.2-15.9,10.7,2.6,6.4,18.9-4.2,15.9Z"/>
    <path class="st14" d="M398.511,501.611c-10.4-1.9-7.2-18.2,3.1-16.1,10.5,1.8,7.3,18.3-3.1,16.1Z"/>
    <path class="st14" d="M337.709,501.511c-10.4-2.2-6.5-18.6,3.8-15.9,10.3,2.3,6.4,18.4-3.8,15.9Z"/>
    <path class="st14" d="M369.61,501.611c-10.6-1.4-8.4-17.5,2.2-16,10.3,1.6,8.2,17.2-2.2,16Z"/>
    <path class="st14" d="M309.609,476.71c-10.2-1-8.8-16.4,1.4-15.7,10.3.9,8.9,16.6-1.4,15.7Z"/>
    <path class="st14" d="M306.409,500.511c-9.2-4.4-2.1-18.7,7-14,9.1,4.4,2,18.7-7,14Z"/>
    <path class="st3" d="M764.519,74.802c3.3-12.4,3.7-30.401,1.8-43.201,23.8,35.001,8.1,26.801,16,49.201l1.3.3c6.2-12.6,19.5-18.6,33.301-16.2-9.6,8.2-17.4,8.7-23.1,21.5,14.5,6.8,24.1,12.5,31.201,27.401-6.1-2.7-11-4.8-17.7-5.4,23.1,27.401,26.501,63.401,13.7,96.302-26.101-32.401-57.801-17-75.302,14.5-.6-38.201,2.3-78.902-18.3-112.902.1,18.5-.3,36.801-1.4,55.301-7-13.7-16-26.301-22.401-40.401-5.4-11.8-7.9-24.601-13.4-36.301-2.3,17.1.5,34.501,2.4,51.601-20.9-14.2-40.501-34.001-53.201-55.901-2.8,14.4-1.2,27.001,2,41.101-19.2-12.3-31.301-30.601-45.101-48.001-4.4,22.3-.2,42.401,5.1,64.001-31.901-14.5-50.401-45.901-58.201-78.902-3.2,12.5-8.9,18.7-9.8,32.701-19.9,6.5-30.701,21.9-39.501,40.001.1-23.301,9.9-48.801,30.001-62.201v-1.1c-12.2-3.3-32.401,6.4-44.001,11,13.1-22.1,33.501-37.101,59.401-40.101-7.8-8.3-17.3-13.1-23.401-23.3,92.002,24.601,162.704-37.101,248.605,58.701,0,0,0,.3,0,.3Z"/>
    <path class="st1" d="M467.912,408.909c6.5,26.601,24.701,50.001,24.901,78.102,47.701,54.901,105.702,67.001,172.704,79.202,18.2,8.3,62.501,46.701,38.001,66.901-13.4,11.3-29.901,20.4-47.901,18.7-62.101-11.6-124.203-52.901-174.104-90.702l8.5-9.9c-29.601,16.6-68.901,23.1-100.002,6.6,11.6,0,41.801,3.6,48.901-7.5l-.7-.8c-36.701,3.8-82.302-3-112.102-26.401,145.503.5,121.303,18.5,123.403-124.503,2.7-3.7,8.2-16.8,9.7-17.6,7.6,7.4,6.3,18.4,8.8,28.101l-.1-.2h0Z"/>
    <path class="st10" d="M812.32,482.91c-7.9,31.801-23.901,61.301-42.601,87.902-16-32.801-43.901-58.901-81.702-61.901,3.4-11.1,10.9-19.2,16.2-29.401,18.1-32.401,35.601-92.802,79.402-96.002,40.601,10.6,36.601,67.001,28.801,99.302l-.1.1h0Z"/>
    <path class="st10" d="M753.118,355.708c-35.301,13.8-52.601,50.901-66.201,83.602-7.5-7.1-17-20.4-27.401-22.6-5.3,7.7-11,15.6-15.8,23.501,7.3-3.5,13.1-5.1,18.9-11,6.9,7.5,14.5,14,21.9,21-2.3,9.7-4.2,19.3-4.7,29.301-1.2,7.7,3.1,22-3.8,26.901-13,8.3-17,6.5-23.201,22.801-12.2,7.1-12.2,11.8-21.4,19.9-22.5-1.1-45.201-11.2-65.901-19.4-.1-18.2.9-69.001,12.3-82.802,5.7-1.2,5.2,3.6,10.3-4.1,2.8-4.2,4.7-9,7.5-13.2,6.8,6.7,13.6,14.2,13.7,24.301-.6,15.4-4.3,43.001-1.5,57.401h.7c1.6-12.7,10.6-60.201,3.9-72.102-4.9-9.5-14.2-24.001-26.401-23.3-4.5,2.8.1,8.3,2.2,11.3-1.9,2.3-4.8,6.9-7.6,7.9l-1.1-.6c-4.5-14.3,2.3-29.501,6.5-43.201,9.9,4,18.7,7,29.401,8.2-4.7,25.901,6.5,36.301,8.2,58.501.9,11.2-2.6,49.301,1.4,56.601l1-.4c4.7-23.101,0-54.501,9.3-76.502,19.7-42.001,68.601-29.601,111.102-96.702,2.8,4.7,5.3,9.4,7,14.6l-.3.1h0Z"/>
    <path class="st10" d="M745.418,552.812c10.6,13.9,27.601,40.301,13.1,56.301h-1.3c-2.7-2.3-4.7-5.3-6.9-8.1-1,12.8-2.9,21.7-13,30.401-4.5,3.6-12.4,10.1-18.7,8l-1.1-1.4c25.901-34.401-38.901-88.802-72.702-88.302,7.9-16.8,30.201-13.5,45.601-12.9-7.4-4.5-20.1-2-26.301-7.8,1-9.9,13.9-11.3,21.9-10.8,24.1,2.3,44.201,16.5,59.301,34.801l.1-.2h0Z"/>
    <path class="st2" d="M874.521,474.51c-13.5,2.6-27.001,6.1-40.801,4.6-.8-24.301-2.1-51.901-9.8-75.002-9.5-22.2-31.001-33.701,7.1-32.501,41.501,7.8,41.001,70.002,43.601,102.902h-.1Z"/>
    <path class="st8" d="M877.321,567.612c-14.4,2-27.701,6.9-42.401,7.2-.9-28.801-.7-57.501-1.3-86.302,13.1,1.3,28.801-2.8,41.301-6.4,3.3,28.301,1.8,57.101,2.4,85.502Z"/>
    <path class="st8" d="M794.319,374.708c-59.301-6.3-80.902,66.501-102.502,108.502l-1.2-.2c-3.6-8.2.4-27.501,3.7-35.801,13.4-35.401,36.201-86.502,81.202-84.502,9.4,2.2,12.5,5,18.8,12Z"/>
    <path class="st1" d="M489.913,580.212c6.1,5.4,17.1,8.9,18.5,17.7-13.1,39.901-63.601,3.2-75.202-20.6,14.9-1.8,27.901-4.3,41.601-10.9,4.9,4.9,9.7,9.6,15.2,13.8h-.1Z"/>
    <path class="st8" d="M827.92,637.514c3.6-17.7,5.5-35.501,6.4-53.501,13.7-2.5,30.001-4.4,42.901-9.8,4.7,34.301-16.5,57.001-49.301,63.301h0Z"/>
    <path class="st10" d="M801.319,638.414c-11.9-4.5-23.501-10.2-33.101-18.6,8.4-12,7.8-23,5.6-37.001,12.4-10.5,18.1-27.001,25.601-40.501,1.9,31.801,1.5,64.301,1.9,96.202v-.1h0Z"/>
    <path class="st8" d="M811.92,636.914c-1.7-21.5-1.4-43.101-1.7-64.701-1.4-25.001-1.4-50.301,8.2-73.702,1.1-3.4,2.1-10.2,4.8-12.4.2,19.8,10.5,150.703-11.3,150.803Z"/>
    <path class="st10" d="M545.514,518.111c-10.9-7.1-22.1-14.3-31.801-23,5.8-15.4,26.401-80.402,38.901-87.202-8.2,28.101-13.5,82.602-7.1,110.202h0Z"/>
    <path class="st2" d="M844.42,369.408c-13.1-6.3-30.501-13.1-41.201,1-9.4-14.9-25.501-18.8-42.301-16.6-.7-2.6-4.6-11.9-4-13.9h0c29.901-.2,69.201,2.2,87.502,29.501Z"/>
    <path class="st5" d="M672.017,394.008c-19.4,8.4-35.901,18.9-43.301,39.601h-.8c-5-11.4-2.7-22.5.2-34.301,45.901-2.8,64.301-31.801,101.902-52.601-15.9,20.6-34.801,35.301-57.901,47.301h-.1Z"/>
    <path class="st2" d="M417.211,221.305c-1.4.2-2.8.3-4.2.3.2-16-2.4-178.104,1-180.704,1.2-.2,2.5-.4,3.7-.5-.6,59.001,3.5,122.703-.5,180.904Z"/>
    <path class="st8" d="M569.114,434.009c-2.4,13.8-6.6,27.301-9.3,41.101-2.6,10.6-1.8,22.8-4.2,33.201-6.6-29.901-5.4-95.302,19.1-116.903-4.4,13.8-3.8,28.401-5.6,42.601h0Z"/>
    <path class="st12" d="M423.911,232.305c6.3,22.2-1.8,17.1-18.9,17-.7-8-2.1-21.2,10-18.6,3,.4,6,.7,8.9,1.5v.1Z"/>
    <path class="st10" d="M532.414,610.413c-10.3,12-24.601,17.4-39.801,11.7,14.4-4.3,18.4-8.3,26.101-20.5,4.9,2.6,9.3,5.4,13.7,8.8Z"/>
    <path class="st12" d="M424.911,269.206c-6.6-.4-13.2,0-19.8.3-1.9-3-1-9.4-.9-13.1,7-.4,13.9-.9,20.9-.3.7,4.5.6,8.6-.2,13.1Z"/>
    <path class="st12" d="M444.412,343.507h-4.3c-1-3.1-1.8-32.101.6-36.301l2.3-1.2c6.1,3.3,6.2,34.101,1.4,37.501Z"/>
    <path class="st12" d="M303.609,267.706c-.6-4.1-.7-8-.7-12.1,6.4-1.3,12.9-1.5,19.4-1.1,2.8,17.4-5.4,14.6-18.7,13.2h0Z"/>
    <path class="st12" d="M446.212,358.308c2,5.7,3.9,27.201-.2,32.701l-5.3-2c-.9-5.3-2.6-30.901.6-34.201,2.3.9,3.8,1.2,4.9,3.5Z"/>
    <path class="st7" d="M413.511,38.701c-.8-8.7-11.7-30.901,3.7-31.401,8,10.3.3,21.5-3.7,31.401Z"/>
    <path class="st13" d="M276.608,390.908c-2.1,1.7-4.5,1.1-6.7-.3-3.2-8.4-4.4-22.9,7.6-24.101.3,7.2,2.1,17.9-.9,24.501v-.1Z"/>
    <path class="st13" d="M277.508,426.409l-6.6-1.8c-3.9-7.4-5.8-23.501,6.6-22.6.3,7.3,1.8,17.3,0,24.401Z"/>
    <path class="st13" d="M277.208,459.81c-1.9.9-3.1.2-4.8-.7-3.9-7.1-6.8-21.6,4.5-22.9,1.7,5.8,2.9,18,.3,23.701v-.1Z"/>
    <g>
      <g>
        <path d="M325.509,327.607v-3.4l2.5-2.5v6.6l-1,1-1.6-1.6.1-.1ZM328.109,331.107v6.6l-2.5-2.5v-3.4l1.6-1.6,1,1-.1-.1Z"/>
        <path d="M332.009,328.207v-6.6l2.5,2.5v3.4l-1.6,1.6-1-1,.1.1ZM340.21,328.407l1.3,1.3-1.3,1.3h-5.4l-1.3-1.3,1.3-1.3h5.4ZM340.31,327.607v-3.4l2.5-2.5v6.6l-1,1-1.6-1.6.1-.1ZM342.91,331.107v6.6l-2.5-2.5v-3.4l1.6-1.6,1,1-.1-.1Z"/>
        <path d="M345.71,328.207v-6.6l2.5,2.5v3.5l-1.6,1.6-1-1h.1ZM348.31,331.807v3.5l-2.5,2.5v-6.6l1-1,1.6,1.6h-.1ZM356.11,321.107l-2.5,2.5h-4.8l-2.5-2.5h9.9-.1ZM356.11,338.207h-9.9l2.5-2.5h4.8l2.5,2.5h.1ZM353.91,328.407l1.3,1.3-1.3,1.3h-5.4l-1.3-1.3,1.3-1.3h5.4ZM356.51,331.107v6.6l-2.5-2.5v-3.4l1.6-1.6,1,1-.1-.1Z"/>
        <path d="M359.11,338.207v-2.5h2.5v2.5h-2.5Z"/>
        <path d="M374.61,321.107l-2.5,2.5h-4.8l-2.5-2.5h9.9-.1ZM372.51,327.607v-3.5l2.5-2.5v6.6l-1,1-1.6-1.6h.1ZM375.11,331.107v6.6l-2.5-2.5v-3.4l1.6-1.6,1,1-.1-.1Z"/>
        <path d="M377.91,328.207v-6.6l2.5,2.5v3.5l-1.6,1.6-1-1h.1ZM380.41,331.807v3.5l-2.5,2.5v-6.6l1-1,1.6,1.6h-.1ZM388.311,321.107l-2.5,2.5h-4.8l-2.5-2.5h9.9-.1ZM388.311,338.207h-9.9l2.5-2.5h4.8l2.5,2.5h.1ZM386.011,328.407l1.3,1.3-1.3,1.3h-5.4l-1.3-1.3,1.3-1.3h5.4ZM386.211,327.607v-3.5l2.5-2.5v6.6l-1,1-1.6-1.6h.1ZM388.711,331.107v6.6l-2.5-2.5v-3.4l1.6-1.6,1,1-.1-.1Z"/>
        <path d="M391.611,328.207v-6.6l2.5,2.5v3.5l-1.6,1.6-1-1h.1ZM394.111,331.807v3.5l-2.5,2.5v-6.6l1-1,1.6,1.6h-.1ZM401.911,321.107l-2.5,2.5h-4.8l-2.5-2.5h9.9-.1ZM401.911,338.207h-9.9l2.5-2.5h4.8l2.5,2.5h.1ZM399.911,327.607v-3.5l2.5-2.5v6.6l-1,1-1.6-1.6h.1ZM402.411,331.107v6.6l-2.5-2.5v-3.4l1.6-1.6,1,1-.1-.1Z"/>
      </g>
      <g>
        <path d="M310.109,311.907v-2.4l.9.9v1.2l-.6.6-.3-.3h0ZM311.009,313.107v1.2l-.9.9v-2.4l.3-.3.6.6h0ZM313.909,309.307l-.9.9h-1.9l-.9-.9h3.7,0ZM313.009,311.907l.5.5-.5.5h-1.9l-.5-.5.5-.5h1.9Z"/>
        <path d="M315.009,311.907v-2.4l.9.9v1.2l-.6.6-.3-.3h0ZM315.909,313.107v1.4l-.9.9v-2.5l.3-.3.6.6v-.1ZM318.709,309.307l-.9.9h-1.7l-.9-.9h3.5ZM316.509,310.907l.5-.5.4.5v1.8l-.4.5-.5-.5v-1.8ZM317.909,311.607v-1.2l.9-.9v2.4l-.3.3-.6-.6h0ZM318.809,312.907v2.5l-.9-.9v-1.4l.6-.6.3.3v.1Z"/>
      </g>
      <g>
        <path d="M340.81,309.807l-.5.5h-3.4l-.5-.5.5-.4h3.4l.5.4ZM339.11,311.907l-.3.4-.6-.6v-.7l.5-.5.5.5v.9h-.1ZM339.11,315.007l-.5.5-.5-.5v-1.9l.6-.6.3.3v2.1l.1.1Z"/>
        <path d="M342.51,311.607l-.6.6-.3-.3v-1.5l.5-.5.5.5v1.2h-.1ZM342.11,315.407l-.5-.5.5-.5h2.3l.5.5-.5.5h-2.3ZM344.51,311.907l.5.5-.5.5h-1.9l-.5-.5.5-.5h1.9ZM345.51,309.807l-.5.5h-2.3l-.5-.5.5-.4h2.3l.5.4ZM345.51,314.307l-.5.5-.5-.5v-1.2l.6-.6.3.3v1.5h.1Z"/>
        <path d="M347.41,311.507l-.6.6-.3-.3v-1.3l.5-.5.5.5v1.1l-.1-.1h0ZM346.51,314.307l.5.5.5-.5v-1.4l-.6-.6-.3.3v1.6l-.1.1ZM349.71,309.807l-.5.5h-1.7l-.5-.5.5-.4h1.7l.5.4ZM347.61,315.407l-.5-.5.5-.5h.9l.5.5-.5.5h-.9ZM348.61,314.307v-.7h.7l1.1,1.1v.7h-.6l-1.1-1.1h-.1ZM350.41,311.707l-.3.3-.6-.6v-1.1l.5-.5.5.5v1.3l-.1.1h0ZM350.41,313.507l-.5.5-.5-.5v-.5l.6-.6.3.3v.8h.1Z"/>
        <path d="M373.11,312.407l-.5.5h-2.8l-.5-.5.5-.5h2.8l.5.5Z"/>
      </g>
    </g>
  </g>
  <g>
    <path class="st14" d="M149.305,636.514c60.901-37.101,131.503-33.401,197.304-13.1,27.701,7.5,62.701,19.1,71.802,49.801-13.2-.3-25.601-6.1-38.601-7.4,15.7,15.4,22.1,41.101,16.3,62.201-.7,1.9-1.1,2.4-2.9,3.2-7.5-4-12-13.2-19.1-18.1,4.4,20.7,2.7,42.501-7,61.401l-9.6,53.601c-2.2,11.8,4.2,23.201,5.3,34.801,3.1,40.201-28.201,84.702-58.301,108.602,42.101,17.3,56.401,81.802,74.802,112.402,4.9,4,12.3,8.2,18.1,11.3,1.9-31.401-8.8-146.303,7.8-162.603,15.1-15.2,66.901-2.3,87.902-7.8,4.1-14.6,26.501-10.5,37.101-6.4,3.5,1.7,3,4.4,5.2,6.6,2.3,1.1,15.5.9,17.9-1.1-1.7-17.6,1.2-26.701,20.8-25.401,16.6-.6,15.8,13.7,15.2,26.101,16,3.4,22.6-2.7,29.901,18.7,8.4,2.9,17.3-2.4,24.501,4.7,11.4-.5,16.3,0,26.101,4.9,29.401,2.2,59.601-.8,89.102-.6,38.601-2.4,79.002,3.3,116.703-3.5,4.6-2.5,13.6-3.4,18.5-1.8,23.401,14.4-5.4,37.101-21.7,21.1-33.001,4.3-101.502,2.2-135.803,4.2-22.1-.1-46.001,3.8-67.801,1-4.5,7.4-16.6,8.7-24.1,5.5-4.7,7.6-16.9,9.9-24.801,6.1,0,9.1.5,18.3-.1,27.401,10.5,8.2,14.7,12.3,13.5,26.701-.1,7.9-4.3,18.9-13.8,18.3,3.1,52.401-21.2,94.502-72.402,110.902-28.701,18.3-63.101,31.901-97.202,22.5-20.8,24.601-73.702,47.601-96.602,14.1-3.7,3-22.4,13.4-26.601,13-1.7,13.4,5.6,52.001-15.1,49.501-60.601,25.901-154.103,20.7-215.805-1.4-3.7,1.5-13.5-3.2-16.4-5.5.2-16.2.6-32.501-.8-48.701-22.4.3-50.401-10.9-62.401-31.001-17.8-31.901-6.3-166.904,4.7-205.904,13.6-48.201,50.201-63.701,97.402-58.201,6,.7,21.1,4.8,26.001,2.1-.2-3.3-10.6-19.5-12.4-24.701-48.301,18.3-80.702-49.201-63.401-88.402-19.3-34.801-15.5-79.202,4.7-112.402l-1.2-1.1c-6.2-1-12.3,3.7-18.3,2.5-3.1-11.2,12.7-20.2,20.9-24.801,6-1.9,12-2.7,18.3-3.1-6.2-6.5-13.4-10.4-20.6-15.7,8.8-8.8,21.7-5.6,30.301,2,4.2-12.9,19-36.101,34.301-35.001,3.6,9-6.5,20.6-3.9,30.001l.9.4c5-4,10.2-7.8,15.2-11.7l.2-.2h0Z"/>
    <path class="st10" d="M92.504,1119.524c2.9,7.2,17.4,32.701,24.501,35.301-.9,12.1-1,33.801,15.7,34.001,3.1,19.2,24.001,36.001,43.101,27.001,32.201,45.301,97.902,26.501,140.103,7.7-.9,7.7,4.7,42.801-4.1,43.601-59.001,25.301-135.503,19.1-197.404,4.9-8.4-1.5-18.6-4.8-25.201-9.6,2.8-47.601-.7-95.402,3.3-142.903Z"/>
    <path class="st1" d="M304.909,701.115c3,2.7-6.4,45.701-7.4,52.201,22-9.2,35.801-31.201,45.301-51.901,13,16.7,14.3,39.201,14.3,59.501-14.1-18.3-42.201-8.4-42.201,14.4,3.6,2.7,19-6.9,30.401-3.5,20.4,7.3,3.2,39.901,2.6,55.501-2,21.4,9.2,34.701,2.5,58.401-8.1,28.501-35.501,70.101-61.701,84.602-45.301,21.6-96.302-21.4-125.003-53.501-10.4-7-20.4-28.901-23.2-41.001-6,8.8-17.7,11.2-27.601,8.6-27.601-7.3-42.501-40.801-36.001-67.301,3.3-13.9,16.2-26.601,31.301-23.501,28.501,4.3,33.701,41.501,44.701,44.001,11.9-.3,6.7-31.901,8.3-40.601,1-15.7,3.3-31.401,5.3-47.001,2.4,9.3,3.1,18.5,6.7,27.601,9.8-17.8,17.8-36.801,30.301-53.001-.7,9.2-1.9,18.3-1.7,27.501,18-11.5,37.801-31.801,54.201-46.001-1.7,12-5.9,23-9,34.601,23.6-5.7,42.501-21.6,58.001-39.501l-.1-.1h0Z"/>
    <path class="st14" d="M211.907,878.419c2.6,1,6,.5,8.8,1.1l.8,1.4c-.5,2.5-3.4,4.6-5.6,5.2,21.4,17.5,50.801,22.8,77.802,23,5.1,0,21.5-2.9,24.701-1.4l.3,1.5c-2.9,4.8-9.8,8.4-15.3,6.5-4.3,22.1-24.001,39.501-47.201,34.101-25.001-5.7-41.001-31.101-47.601-54.101-2.1-.4-4.3,1.9-6.1,3.1-3.9-8.2,2.6-16.4,9.5-20.5l-.1.1h0Z"/>
    <path class="st0" d="M223.607,901.219c20,12.8,44.301,14.8,67.601,15.6l.3,1.1c-8.8,19.1-67.401,2.8-67.801-16.7h-.1,0Z"/>
    <path class="st4" d="M239.107,926.62c6.9,5.7,31.801,3.1,31.901,13.6-9.7,6.5-28.801-2.8-31.901-13.6Z"/>
    <path class="st0" d="M222.907,839.118c-11.1-11.9-6.1-36.701,7.2-45.501,20.4-15.6,48.401,7.8,29.001,27.701,6.5,11.7-3.5,41.701-19.1,28.201-7.5,2.2-13.5-4.6-17.1-10.3v-.1h0Z"/>
    <path class="st14" d="M240.007,849.418c-10.5-11.5,3.8-44.801,19.1-28.201,6.5,11.7-3.5,41.701-19.1,28.201Z"/>
    <path class="st14" d="M222.907,839.118c-11.1-11.9-6.1-36.701,7.2-45.501,16-12,39.501-1.4,34.901,19.8-17-35.401-51.801-2.9-42.101,25.701Z"/>
    <path class="st0" d="M311.409,822.018c-6.6-16,20.1-42.701,31.401-22.401,1.8,3.9,4.3,13.4.2,16.3l-1.2-3.4c-.5,3.5-.5,11.5-3.7,13.3,2.9,22.8-24.501,41.701-21.7,7-2.9-3.4-3.9-6.6-5-10.8h0Z"/>
    <path class="st14" d="M316.309,832.818c1.9-6.6,7.3-15.7,15.3-13.9,22.1,12.5-18.2,59.201-15.3,13.9Z"/>
    <path class="st14" d="M311.409,822.018c-6.6-16,20.1-42.701,31.401-22.401,1.8,3.9,4.3,13.4.2,16.3-5.2-26.101-27.801-12.3-31.601,6.1h0Z"/>
    <path class="st14" d="M243.707,749.516c13.1-2.2,33.601,6.9,31.301,22.3-21.1,9.4-25.301-17-68.301,14.8,1-20.1,17.1-35.601,37.001-37.101Z"/>
    <path class="st14" d="M302.709,824.818c2.7,3.3,1.9,14.5,4.4,19.6,5.2,10.6,20.5,13.3,21.5,26.701,1.5,18.3-21.4,30.701-36.601,21.9-3.4.5-7.5-2-8-5.5,4.6-3.9,31.401,1.5,35.301-12.6-.8-21.2-31.101-8.7-16.7-50.101h.1Z"/>
    <path class="st14" d="M101.204,812.317c20-.8,29.701,20.2,33.101,36.901-5.3-2.5-5.9-10.2-12.4-11.9-10.3,2.3-4.3,18-2.9,24.901-10.4-1-11.3-15.1-11-23.201,1.7-3.1,4.2-5.8,6.1-8.9-.1-6.4-8.5-7.9-13.3-5.9-6.3,2.5-8.3,7.9-10.7,13.6-1.2-10,.4-21.8,11.3-25.601l-.2.1h0Z"/>
    <path class="st14" d="M251.208,956.421c7.5,3.5,19.3,1.8,27.401,1.2l.6.7c-2.4,1.3-3.5,3.6-6.4,4.1-6.6,1.8-19.7,2.8-21.5-6h-.1Z"/>
    <path class="st9" d="M420.911,933.92c32.301,5,144.903-4.7,183.504,2.8,13.3,6.9,5.3,69.201,7,85.702-.1,20.1.7,40.801-.8,60.701.6,12.3-11,23-23.1,18.8-6.2,2-80.802,4.7-91.402,2,3.6-12.7-.6-18.6-10.2-26.201-14.1,3.7-30.301,1.2-44.801,3.3-5.6.8-29.201,5.9-32.601,5.3-3.4-10.3-1.7-116.403-.7-132.403-.3-9.5,3.2-17.5,13-20h.1,0Z"/>
    <path class="st14" d="M547.914,954.22c10.5,3.5,23.6-2.1,34.401,1.6,17.1,3.5,7.7,54.901,9.5,70.002-2.1,13.2,8.2,70.902-14.7,64.301-5.2,3.5-23.1,2.7-29.201,1.6-10-1.2-14.1-8.3-13.5-17.8-.5-11.4-.6-101.202,1.2-107.902,1.5-5.7,7.6-8.8,12.4-11.7l-.1-.1h0Z"/>
    <path class="st6" d="M551.414,963.121c11.8,4.9,32.601-8.3,30.801,13.9.9,16,0,32.501,0,48.501-1.5,9.6,6.4,60.801-8.8,56.301-7.3,2.2-23.501,3.2-29.701-2-2.5-9.4-2.4-100.202.1-109.802,1-3.8,4.5-5.2,7.6-6.8v-.1h0Z"/>
    <path class="st14" d="M503.613,957.421c8.4,5.3,2.9,36.001,4.1,46.401,0,19.8,1.2,40.401-.5,60.001-.4,3-.3,6.6-2.9,8.6l-1.2-.4c-3.6-15.2-4.8-96.102.5-114.702v.1h0Z"/>
    <path class="st14" d="M519.813,957.921c.8.3,1.5.8,2.2,1.3,4,10.2,2.2,38.601,2.2,50.301-1,9.9,2.9,58.801-3.2,60.701l-1.2-.6c-4.9-15.5-1.6-32.801-2.3-48.901.5-20.8-2.4-42.301,2.2-62.801h.1Z"/>
    <path class="st14" d="M427.111,961.721c9.6-.9,15.2,16.5,3.7,17.1-10.4,5.5-11.8-13.7-3.7-17.1Z"/>
    <path class="st14" d="M453.312,1045.622c9.1-.9,15.1,14.6,5.3,17.5-11.2,4.9-13.2-12.8-5.3-17.5Z"/>
    <path class="st14" d="M427.611,1045.622c8.9-.2,13.6,17.3,2.9,17.3-11.5,5.2-11.1-13.9-2.9-17.3Z"/>
    <path class="st14" d="M480.213,961.621c9.4-1,15.9,14.3,5.4,17.1-10.2,6-12.8-12.8-5.4-17.1Z"/>
    <path class="st14" d="M426.811,1017.922c7.1-.3,12.4,7.3,9.4,13.8-1.4,2.8-4.5,2.6-6.7,4.3-10.1.8-9.2-13.8-2.7-18.1h0Z"/>
    <path class="st14" d="M425.811,990.221c8.9-2.3,17.1,13.6,6.5,16.1-.7.6-1.5,1-2.3,1.5-9.1,1.2-10.5-13.2-4.2-17.6Z"/>
    <path class="st14" d="M453.512,961.721c8-.4,12.1,9.2,8.4,15.6-12.9,9.2-18-7.9-8.4-15.6Z"/>
    <path class="st14" d="M453.412,990.221c9.3-1.2,13.9,15.4,3.7,16.6-10.8,5.2-11.3-12.7-3.7-16.6Z"/>
    <path class="st14" d="M480.113,990.121c8.7-1,13.8,15.4,4,16.8-11.1,5.2-11.9-12.6-4-16.8Z"/>
    <path class="st14" d="M479.213,1046.422c8.7-1.3,14.6,15.1,4.5,16.5-11,6.1-11.7-12.1-4.5-16.5Z"/>
    <path class="st14" d="M455.012,1017.222c8.5,1,11.9,18,1.3,17.5-11.3,2.9-9.2-14.4-1.3-17.5h0Z"/>
    <path class="st14" d="M481.313,1017.122c6.7,1.6,9.9,10.5,6,16.1-2.2,1.7-4,.9-6.5,2-9.8-.7-6.6-15.1.4-18l.1-.1Z"/>
    <path class="st3" d="M239.307,619.913c29.201-2.6,58.301.8,86.402,9,25.301,5.7,53.501,9.3,72.302,28.801-18.6-5.6-31.401-4-50.101-2.6,25.001,10.3,41.001,31.201,42.301,58.201-17.6-14.3-17.2-19.1-41.001-27.101l-5.1-10.1c-9,19.2-19.4,44.201-35.001,58.601,3.5-22.1,7.1-44.701,2.5-67.001-15,29.501-22.4,42.201-52.101,58.901,4-16.1,9.5-31.101,9.9-48.001-19.1,18.9-38.201,37.901-59.401,54.501,1.7-9.8,3.7-19.6,5.9-29.301.6-4.1,4.9-11.6,2.8-15.2-13.8,9.2-29.201,44.701-41.801,59.101-.2-15.6.4-30.901,1.4-46.501-25.001,26.501-26.401,75.802-30.301,110.802-5.1-4.6-7.8-10.4-12-15.7-15.7-19.5-42.501-19.5-59.701-2-14.1-45.201-10.2-71.902,18.2-108.902-4.5-7.5-13.4-1.9-19.3-5,7.4-8,20.4-4.2,28.401,1-.5-7.3-.5-15,1.2-22.2l1.1-.4-.5-.3c1.9.5,2.6,1.9,3.8,3.4v-.9l.8,2.1v-1.6c1.5-.8,2.7-8.4,3.4-10.5,2.6-7.9,8.3-14.1,14.5-19.3-5.2,15.5-6.1,29.101-5.7,45.301,26.401-35.301,74.002-54.301,117.303-57.201l-.2.1h0Z"/>
    <path class="st1" d="M472.812,1086.923c8.9,1.4,18.4-.3,15,12.9-4.5,12.6-37.801,22.401-49.001,20.4,23.3,11.6,67.701,12.8,92.902,5.7,8.7-2.7,15.9-9.1,24.801-11.4,7.7-2,17.5-.6,24.601-3.4-9.3,33.701-55.801,42.001-84.602,49.301l.5,1.1c17.1,3.9,44.401-1.8,56.801-14.3-5,10.5-21.7,20-32.801,22.6-5.2,1.2-14.4.8-18.5,4.1,4.1,2.6,10.1,1.9,14.3,0-29.401,17.6-89.702,7.8-119.003-7.9-3.5,4.7-33.501,22.301-39.101,23-24.501,16.3-52.901,27.301-81.102,36.101-37.501,13.3-89.602,5.7-106.402-34.701,5.3-19.5,22-36.401,40.501-44.001,6.5-2.7,18.1-5.7,21.9,2.2-.8.8-13.7,8.3-15.2,8.3,50.501-4.8,104.402-8.9,150.803-32.301,41.601-24.801,45.501-34.801,96.702-36.201.8,3.5,1.5,9.1,5.9,9.5l.8-.7c-1.9-2.5-4.4-4.9-3.5-8.3l3.7-2h0Z"/>
    <path class="st10" d="M148.605,929.82c10.9,13.2,19.2,29.701,33.801,39.901,21.7,19,52.401,23.501,67.701,49.501,10.5,18.4,6.9,66.301,12.6,73.202,3-14.9-.3-31.401,1.2-46.701,4.6-24.401,14-32.101,9.8-59.901,5.7,1.4,19.4-5.7,23.601-9.4,4.7,12.1,11.7,35.501,6.3,47.801-3.6-3-7.2-6.3-10.7-9.6,2.5-2.2,7.1-6.9,7.3-10.4-2.5-2.6-7.2.2-9.7,1.8-8,5.6-17.2,19.8-18.7,29.501-1,6.4,2.7,51.601,5.9,56.101,4.5-27.101-8.2-51.001,9.9-73.602,1.8,3.2,11.3,18.7,13.6,19.8,19.5,1.1,12.6,77.802,14,94.502-6.3,5-62.301,10.6-68.401,8.8-4.1-17.3-3.4-18.1-16.4-30.701-2.3-4.6-2.7-10.4-5.2-15.3-4.9-9.6-13.6-6.5-19.2-12.1-1.9-15.5,1.2-31.601-2.8-47.001,6.6-1.3,20.8-10.4,24.901-15.7,4.7,4.8,13.4,8.6,20.1,8-12.3-4.2-10-14-14.8-20-9.1-1.2-23.601,16.8-31.901,17.2-9.2-34.701-28.601-64.701-62.901-78.102,4.1-4.6,7.1-12.2,10.1-17.7l-.1.1h0Z"/>
    <path class="st10" d="M106.905,975.121c48.001,7.2,71.202,69.701,87.202,109.002-10.9,4.2-23.501,5.8-33.701,12.2-8,4.6-16.3,16.7-23.301,19.9-5.9,8.5-11.2,18.1-16.5,27.001-28.601-31.401-76.902-150.603-13.7-168.104Z"/>
    <path class="st10" d="M193.906,1094.424c15.8,2.8,15.8-2.6,26.601,12.6-4.2,3-14,2.8-19.6,4.5-3.1,1-5.7,3.3-9.2,3.1,17.6,5,32.801-5.6,44.301,18.7-7.3,2.2-18.9-1.6-26.401,2.6-26.201,9.8-59.501,40.201-44.601,70.302l-.7,1.2c-17.6-1.3-22.9-24.501-24.001-39.101-1.2,2.8-2.8,5.8-4.9,7.9-3.2-1.5-7.1-5.1-8.9-8.2,0-27.701,23.5-56.001,48.001-67.201,6-2.6,14-2.9,19.3-6.5l.1.1h0Z"/>
    <path class="st8" d="M23.903,1033.722c7.8,1.1,31.301,7.4,37.501,4.3-2.4,29.301-2.5,61.401-3.4,90.402-.2.4-.6.6-.9.9-5.4.3-34.501-4.3-38.501-7.6,0-29.301.8-59.001,5.2-88.002h.1Z"/>
    <path class="st2" d="M55.903,951.12c6,2.1,13.2-.6,19.3,2.8,3.6,2,5,7.5,8.9,8.8-10.9,21.7-20.6,43.201-22.3,67.701-2.9,1.7-6.4,1.4-9-.7-4.3,1.7-24.601-2.9-28.301-4.9.7-12.8,2.4-25.501,5.2-38.001,3.5-18.2,8.1-29.201,26.301-35.701h-.1Z"/>
    <path class="st8" d="M20.503,1129.724c8.1,1.6,31.101,9,37.901,7.3.7,20.4,4.6,40.301,7.8,60.401-14.7,1.4-35.801-11.5-41.501-25.401-3.9-9.1-7.9-33.001-4.3-42.201l.1-.1h0Z"/>
    <path class="st10" d="M322.709,997.921c19.3,14.1,33.001,65.101,45.001,87.302-2.7,3.4-14.8,9.5-19,10.7-3.1,5.1-16.6,13.5-22,14.2,8.7-37.101,7.1-75.702-4-112.202h0Z"/>
    <path class="st8" d="M118.305,953.32c54.501,6.6,79.102,63.001,77.802,112.902-4.6-7.1-5.9-19.6-10.7-27.001-16.8-35.801-45.701-82.402-91.402-71.402,3-9.8,17.2-9.2,24.401-14.5h-.1Z"/>
    <path class="st2" d="M90.904,925.62c6.3,2.4,18.5,0,25.701.6,6.9.7,13.6,4,20.7,3.4-1.4,4.2-3.3,10.2-6,13.7-6.6,2.6-16-.1-23.2,2.1-5.6,1.7-11.1,8.2-16.4,9.1-19-17-24.301-8.6-45.601-8.4,2.9-.7,12.4-9.1,16.9-11.2,8.8-4.3,20.2-5,27.901-9.3h0Z"/>
    <path class="st1" d="M399.511,1177.025c8.1.7,27.901,14.1,37.801,11-4.2,6.4-28.301,21.5-35.801,20.4-9.3,5.3-31.301,2.4-34.101-9.3,3.2-7.4,25.801-13.8,32.101-22v-.1Z"/>
    <path class="st8" d="M71.404,1069.323c16.3,20.6,10.6,49.701,9.3,74.002-1,17.7-1.4,35.501-1.3,53.301l-1,1.2-1.3-.3c-13.6-18.2-5.5-102.002-5.7-128.203Z"/>
    <path class="st2" d="M875.221,956.621c1.8,1.7,2.1,4,.4,5.9-66.601,1.7-138.803,5.1-205.704,3.5-1-1.3-.8-1.8-.7-3.3,37.201-7.1,170.204-1.1,206.104-6l-.1-.1h0Z"/>
    <path class="st5" d="M167.606,939.22c29.401,17,57.701,54.101,94.902,48.401,1.8,9.6,3.5,24.001-2.1,32.301-4.5-8.6-9.8-17.6-17.2-24.001-24.201-17.7-62.601-26.601-75.602-56.601v-.1h0Z"/>
    <path class="st10" d="M376.51,1092.823c4.5,1.1,10.5,2.1,11.9,7.2-11.9,11.8-36.901,24.501-53.601,26.501-2.6,2.5-6.2,3.4-9.7,2.9,6-11.8,18.1-19.4,29.301-26.101,6.9-4.3,16-5.6,22.2-10.3l-.1-.2h0Z"/>
    <path class="st12" d="M629.616,948.92c1.7.5,3.5.8,5.3,1,4.5,5.3,3.8,24.701-2.5,28.701-2.1,0-3.2-.3-5.1-1.3-12.6,7-6.7-18.7-7.6-25.101,3.7,1,7.9,0,9.8-3.4l.1.1Z"/>
    <path class="st8" d="M309.909,991.321c12,17.4,17.5,59.701,13.9,80.402l-.3.3-.7-.4c0-15.4-6.2-28.501-10-43.101-1.9-12.5,0-24.701-2.8-37.301l-.1.1Z"/>
    <path class="st12" d="M578.815,904.819c5.4,3.5,3.2,13.6,2.1,18.8-4.5,2.6-16.5,2.1-21.2-.2-.5-5.9-.4-13.1,3.7-17.8,4.6,1.7,11.1,1.8,15.4-.8Z"/>
    <path class="st1" d="M487.113,1114.024c6.6.3,13.2.4,19.8.9,9.9.3,21.2,4.3,30.501-.4-3.5,2.8-8.1,5.9-12.8,4.8-10.9,5-37.901,5.4-48.101,0,3.5,0,8.1-2.9,10.6-5.2v-.1h0Z"/>
    <path class="st1" d="M597.615,1110.124l2.1.5c2.7,11-25.701,39.301-36.901,39.501-.9.7-1,1.1-2.2,1,11.9-12.5,25.101-22.2,30.201-39.601,2.2,1.2,4.9-.1,6.8-1.4h0Z"/>
    <path class="st12" d="M645.716,956.421c12.3,1.7,19.9-3.4,15.7,13.6-4.1,3.6-11.7,2.7-16.6,1,.6-4.8,0-9.7.9-14.6h0Z"/>
    <path class="st7" d="M886.221,952.72c11.8,0,12.5,14.5,2.2,13.1-10.8,5.5-12.5-11.1-2.2-13.1Z"/>
    <path class="st12" d="M621.016,1021.022c6.5,2.6,6.6,12.3,6.3,18.2.1,4.4-1.4,7.7-4.7,10.4h-1.6c-3.7-4.8-1.4-23.2,0-28.601Z"/>
    <path class="st12" d="M502.513,923.32c7,3.1,18.4-2.3,24.601,2.9l-.7,1.6c-3.7,2.8-28.001,4.4-23.901-4.5h0Z"/>
    <g>
      <g>
        <path d="M558.514,992.521h3.4l2.5,2.5h-6.6l-1-1,1.6-1.6.1.1ZM554.914,995.021h-6.6l2.5-2.5h3.4l1.6,1.6-1,1,.1-.1Z"/>
        <path d="M557.814,999.021h6.6l-2.5,2.5h-3.4l-1.6-1.6,1-1-.1.1ZM557.714,1007.122l-1.3,1.3-1.3-1.3v-5.4l1.3-1.3,1.3,1.3v5.4ZM558.514,1007.322h3.4l2.5,2.5h-6.6l-1-1,1.6-1.6.1.1ZM554.914,1009.822h-6.6l2.5-2.5h3.4l1.6,1.6-1,1,.1-.1Z"/>
        <path d="M557.814,1012.722h6.6l-2.5,2.5h-3.5l-1.6-1.6,1-1v.1ZM554.314,1015.222h-3.5l-2.5-2.5h6.6l1,1-1.6,1.6v-.1ZM564.914,1023.022l-2.5-2.5v-4.8l2.5-2.5v9.9-.1h0ZM547.814,1023.022v-9.9l2.5,2.5v4.8l-2.5,2.5v.1h0ZM557.714,1020.822l-1.3,1.3-1.3-1.3v-5.4l1.3-1.3,1.3,1.3v5.4ZM554.914,1023.522h-6.6l2.5-2.5h3.4l1.6,1.6-1,1,.1-.1Z"/>
        <path d="M547.814,1026.122h2.5v2.5h-2.5v-2.5Z"/>
        <path d="M564.914,1041.522l-2.5-2.5v-4.8l2.5-2.5v9.9-.1ZM558.514,1039.522h3.5l2.5,2.5h-6.6l-1-1,1.6-1.6v.1ZM554.914,1042.022h-6.6l2.5-2.5h3.4l1.6,1.6-1,1,.1-.1Z"/>
        <path d="M557.814,1044.922h6.6l-2.5,2.5h-3.5l-1.6-1.6,1-1v.1ZM554.314,1047.422h-3.5l-2.5-2.5h6.6l1,1-1.6,1.6v-.1ZM564.914,1055.223l-2.5-2.5v-4.8l2.5-2.5v9.9-.1ZM547.814,1055.223v-9.9l2.5,2.5v4.8l-2.5,2.5v.1ZM557.714,1053.023l-1.3,1.3-1.3-1.3v-5.4l1.3-1.3,1.3,1.3v5.4ZM558.514,1053.123h3.5l2.5,2.5h-6.6l-1-1,1.6-1.6v.1ZM554.914,1055.723h-6.6l2.5-2.5h3.4l1.6,1.6-1,1,.1-.1Z"/>
        <path d="M557.814,1058.523h6.6l-2.5,2.5h-3.5l-1.6-1.6,1-1v.1ZM554.314,1061.123h-3.5l-2.5-2.5h6.6l1,1-1.6,1.6v-.1ZM564.914,1068.923l-2.5-2.5v-4.8l2.5-2.5v9.9-.1ZM547.814,1068.923v-9.9l2.5,2.5v4.8l-2.5,2.5v.1ZM558.514,1066.823h3.5l2.5,2.5h-6.6l-1-1,1.6-1.6v.1ZM554.914,1069.423h-6.6l2.5-2.5h3.4l1.6,1.6-1,1,.1-.1Z"/>
      </g>
      <g>
        <path d="M574.215,977.021h2.4l-.9.9h-1.2l-.6-.6.3-.3h0ZM573.015,977.921h-1.2l-.9-.9h2.4l.3.3-.6.6h0ZM576.815,980.921l-.9-.9v-1.9l.9-.9v3.7h0ZM574.215,979.921l-.5.5-.5-.5v-1.9l.5-.5.5.5v1.9Z"/>
        <path d="M574.215,981.921h2.4l-.9.9h-1.2l-.6-.6.3-.3h0ZM573.015,982.821h-1.4l-.9-.9h2.5l.3.3-.6.6h.1ZM576.815,985.621l-.9-.9v-1.7l.9-.9v3.5h0ZM575.215,983.421l.5.5-.5.4h-1.8l-.5-.4.5-.5h1.8ZM574.415,984.921h1.2l.9.9h-2.4l-.3-.3.6-.6h0ZM573.215,985.821h-2.5l.9-.9h1.4l.6.6-.3.3h-.1Z"/>
      </g>
      <g>
        <path d="M576.315,1007.722l-.5-.5v-3.4l.5-.5.4.5v3.4l-.4.5ZM574.215,1006.122l-.4-.3.6-.6h.7l.5.5-.5.5h-.9v-.1h0ZM571.114,1006.122l-.5-.5.5-.5h1.9l.6.6-.3.3h-2.1l-.1.1h0Z"/>
        <path d="M574.415,1009.522l-.6-.6.3-.3h1.5l.5.5-.5.5h-1.2v-.1h0ZM570.614,1009.022l.5-.5.5.5v2.3l-.5.5-.5-.5v-2.3ZM574.215,1011.522l-.5.5-.5-.5v-1.9l.5-.5.5.5v1.9ZM576.315,1012.422l-.5-.5v-2.3l.5-.5.4.5v2.3l-.4.5ZM571.715,1012.422l-.5-.5.5-.5h1.2l.6.6-.3.3h-1.5v.1h0Z"/>
        <path d="M574.615,1014.322l-.6-.6.3-.3h1.3l.5.5-.5.5h-1.1l.1-.1h0ZM571.715,1013.422l-.5.5.5.5h1.4l.6-.6-.3-.3h-1.6l-.1-.1h0ZM576.315,1016.722l-.5-.5v-1.7l.5-.5.4.5v1.7l-.4.5ZM570.614,1014.522l.5-.5.5.5v.9l-.5.5-.5-.5v-.9ZM571.715,1015.622h.7v.7l-1.1,1.1h-.7v-.6l1.1-1.1v-.1h0ZM574.315,1017.322l-.3-.3.6-.6h1.1l.5.5-.5.5h-1.3l-.1-.1h0ZM572.515,1017.322l-.5-.5.5-.5h.5l.6.6-.3.3h-.8v.1h0Z"/>
        <path d="M573.715,1040.122l-.5-.5v-2.8l.5-.5.5.5v2.8l-.5.5Z"/>
      </g>
    </g>
    <g>
      <path class="st9" d="M718.218,1060.823c-9-2.8-19.6-7.3-27.001-11.7-2.9-1.7-5.8-4-6-6.8,0-1.9,1.3-3.6,3.3-4.9,2.2-1.4,3.8-1.7,6.4-.6,4.5,1.8,8.3,5.2,12.8,7.3,15.1,7.3,34.901,12.2,53.201,13.6,20.1,1.5,39.201-1,57.601-6.9,7-2.2,13.8-4.9,20.1-8,3.5-1.7,6.7-3.9,10.5-5.4,1.5-.6,3.2-1.1,4.9-.9,2,.3,3.5,1.2,4.7,2.3,1.5,1.4,2.5,3.7,1.6,5.4-2.2,5.1-28.301,14.6-36.201,17.4-7.4,1.7-14.8,3.8-22.401,5.2-20.1,3.5-42.301,2.9-62.201-.9-7.1-1.4-14.2-4-21.4-5.1h.1Z"/>
      <path class="st9" d="M825.82,1017.122c0,.9,0,1-.3,1.9-.9,3-6.2,5.9-9.9,7.4-1.2.5-2.3,1-3.5,1.4-1.2.5-2.3.9-3.6,1.3-1.2.4-2.5.8-3.6,1.2-1.3.4-2.5.7-3.8,1.1-1.3.3-2.6.6-3.8.9-1.3.3-2.6.6-3.9.8-1.3.2-2.6.5-3.9.7s-2.6.4-3.9.5c-1.3.2-2.6.3-4.1.4-1.3.1-2.8.2-4.1.3-1.3,0-2.8.1-4.1.1h-4.1c-1.3,0-2.8,0-4.1-.2-1.3,0-2.8-.2-4.1-.3-1.3-.1-2.6-.3-4.1-.4-1.3-.2-2.6-.4-3.9-.6-11.6-2-26.701-6.2-33.101-13.6,0-2,.4-3.8,2.2-5.5,1.5-1.3,3.2-2,5.7-1.7,6,.7,12.1,5.1,17.3,7.2,5.1,2,10.9,3.2,16.7,3.9,16.6,1.8,30.401-.7,44.601-6.5,3.5-1.4,8.1-3.9,12.2-3.9s5.1,2.1,7,3.5h.1l.1.1h0Z"/>
      <path class="st9" d="M718.118,862.318c7.1-1.1,14.2-3.7,21.4-5.1,19.9-3.8,42.101-4.4,62.201-.9,7.6,1.4,15,3.5,22.401,5.2,7.8,2.8,34.001,12.3,36.201,17.4.9,1.7-.1,4-1.6,5.4-1.2,1.1-2.6,2-4.7,2.3-1.7.2-3.5-.3-4.9-.9-3.8-1.5-7-3.7-10.5-5.4-6.2-3.1-13.1-5.8-20.1-8-18.3-5.9-37.501-8.4-57.601-6.9-18.3,1.4-38.101,6.3-53.201,13.6-4.5,2.1-8.3,5.5-12.8,7.3-2.6,1.1-4.2.8-6.4-.6-2-1.3-3.3-3-3.3-4.9.1-2.8,3.1-5.1,6-6.8,7.4-4.4,18-8.9,27.001-11.7h-.1Z"/>
      <path class="st9" d="M825.72,906.119c-1.9,1.4-3.9,3.5-7,3.5s-8.7-2.5-12.2-3.9c-14.2-5.8-28.101-8.3-44.601-6.5-5.8.7-11.6,1.9-16.7,3.9-5.2,2.1-11.3,6.5-17.3,7.2-2.5.3-4.2-.4-5.7-1.7-1.7-1.7-2.2-3.5-2.2-5.5,6.4-7.4,21.5-11.6,33.101-13.6,1.3-.2,2.6-.4,3.9-.6,1.5-.1,2.8-.3,4.1-.4,1.3,0,2.8-.3,4.1-.3,1.3-.2,2.8-.2,4.1-.2h4.1c1.3,0,2.8.1,4.1.1s2.8.2,4.1.3c1.5.1,2.8.2,4.1.4,1.3.1,2.6.3,3.9.5s2.6.5,3.9.7c1.3.2,2.6.5,3.9.8,1.2.3,2.5.6,3.8.9,1.3.4,2.5.7,3.8,1.1,1.2.4,2.5.8,3.6,1.2,1.3.4,2.5.8,3.6,1.3,1.2.4,2.3.9,3.5,1.4,3.6,1.5,9,4.4,9.9,7.4.3.9.3,1,.3,1.9h-.1l-.1.1h0Z"/>
    </g>
  </g>
  <g>
    <path d="M21.524,77.865h11.907c2.498,0,4.773.352,6.826,1.052,2.053.702,3.703,1.865,4.953,3.49,1.249,1.625,1.874,3.858,1.874,6.698,0,2.601-.642,4.731-1.925,6.39-1.283,1.66-2.96,2.883-5.03,3.669-2.07.788-4.269,1.181-6.595,1.181h-4.208v15.089h-7.031v-34.438l-.77-3.131ZM29.376,82.946v12.42h4.311c1.916,0,3.378-.59,4.388-1.771,1.009-1.181,1.514-2.677,1.514-4.491,0-1.881-.487-3.378-1.462-4.491-.975-1.111-2.438-1.668-4.388-1.668h-4.362Z"/>
    <path d="M62.018,116.05c-2.566,0-4.765-.59-6.595-1.771-1.831-1.181-3.233-2.771-4.208-4.773-.976-2.002-1.463-4.234-1.463-6.698,0-1.848.29-3.584.873-5.209.581-1.625,1.428-3.062,2.541-4.311,1.111-1.249,2.438-2.232,3.978-2.951,1.54-.719,3.267-1.078,5.184-1.078,2.6,0,4.807.59,6.621,1.771,1.813,1.181,3.208,2.771,4.183,4.773.975,2.002,1.462,4.234,1.462,6.698,0,1.848-.291,3.584-.873,5.209-.582,1.625-1.42,3.062-2.515,4.311-1.095,1.25-2.412,2.232-3.952,2.951-1.54.719-3.285,1.078-5.235,1.078ZM62.069,111.944c1.197,0,2.172-.299,2.926-.898.752-.598,1.334-1.368,1.745-2.31.411-.94.693-1.95.847-3.028.154-1.078.231-2.079.231-3.002,0-.958-.06-1.976-.18-3.054-.121-1.078-.368-2.087-.744-3.028-.377-.94-.933-1.702-1.668-2.284-.736-.582-1.72-.873-2.951-.873-1.164,0-2.122.308-2.874.924-.753.616-1.334,1.403-1.745,2.361-.411.958-.702,1.968-.873,3.028-.171,1.061-.257,2.036-.257,2.926,0,.924.068,1.917.206,2.977.136,1.061.393,2.071.77,3.028.376.958.932,1.737,1.668,2.335.735.599,1.702.898,2.899.898Z"/>
    <path d="M85.421,75.966v39.468h-6.261v-36.696l-.564-2.771h6.826Z"/>
    <path d="M101.844,89.311c2.737,0,4.85.693,6.338,2.079s2.232,3.464,2.232,6.236v11.24c0,.993.154,1.66.462,2.001.308.342.701.513,1.181.513.342,0,.675-.034,1.001-.103.325-.068.658-.171,1-.308l.975,3.49c-.753.411-1.608.744-2.566,1.001-.958.256-1.831.385-2.618.385-1.231,0-2.225-.257-2.977-.77-.753-.513-1.283-1.402-1.591-2.669-.958,1.334-2.079,2.267-3.361,2.797-1.283.53-2.729.795-4.337.795-1.985,0-3.688-.572-5.107-1.719-1.42-1.146-2.13-2.763-2.13-4.85,0-1.848.437-3.362,1.309-4.542.873-1.181,2.009-2.087,3.413-2.72,1.403-.633,2.917-1.069,4.542-1.309,1.625-.239,3.173-.359,4.645-.359v-3.336c0-.924-.128-1.643-.385-2.156-.257-.513-.659-.88-1.206-1.104-.548-.222-1.25-.333-2.104-.333-1.164,0-2.327.326-3.49.975-1.164.65-2.19,1.317-3.08,2.001l-2.515-4.054c1.54-1.061,3.19-1.856,4.953-2.387,1.762-.53,3.567-.795,5.415-.795ZM104.256,104.708c-.718,0-1.506.035-2.361.103-.855.069-1.677.24-2.463.513-.788.274-1.429.685-1.925,1.232-.496.548-.744,1.301-.744,2.258,0,.788.316,1.395.95,1.822.632.428,1.309.642,2.027.642.957,0,1.771-.273,2.438-.821.667-.547,1.181-1.24,1.54-2.079.359-.838.539-1.668.539-2.489v-1.18Z"/>
    <path d="M122.527,89.413c.752,1.711,1.163,3.508,1.232,5.389.854-1.437,2.053-2.695,3.592-3.772,1.54-1.078,3.165-1.617,4.876-1.617l-1.026,6.107c-1.506,0-2.849.385-4.029,1.155-1.18.77-2.301,1.959-3.361,3.567v15.192h-6.159v-18.63c0-.649-.052-1.412-.154-2.284-.103-.873-.274-1.72-.513-2.541-.24-.821-.564-1.505-.975-2.053l6.518-.513Z"/>
    <path d="M142.44,80.637c0,1.061-.377,1.985-1.129,2.771-.753.788-1.677,1.181-2.771,1.181-1.061,0-1.985-.393-2.771-1.181-.788-.787-1.181-1.71-1.181-2.771,0-1.095.393-2.019,1.181-2.771.787-.752,1.71-1.129,2.771-1.129,1.095,0,2.019.377,2.771,1.129.752.753,1.129,1.677,1.129,2.771ZM141.567,89.926v25.508h-6.159v-22.736l-.564-2.771h6.723Z"/>
    <path d="M147.11,89.926h19.092v3.182l-12.164,18.066h12.882l-.718,4.26h-20.375v-3.131l12.01-18.117h-10.727v-4.26Z"/>
    <path d="M180.829,89.311c2.737,0,4.85.693,6.338,2.079s2.232,3.464,2.232,6.236v11.24c0,.993.154,1.66.462,2.001.308.342.701.513,1.181.513.342,0,.675-.034,1.001-.103.325-.068.658-.171,1-.308l.975,3.49c-.753.411-1.608.744-2.566,1.001-.958.256-1.831.385-2.618.385-1.231,0-2.225-.257-2.977-.77-.753-.513-1.283-1.402-1.591-2.669-.958,1.334-2.079,2.267-3.361,2.797-1.283.53-2.729.795-4.337.795-1.985,0-3.688-.572-5.107-1.719-1.42-1.146-2.13-2.763-2.13-4.85,0-1.848.437-3.362,1.309-4.542.873-1.181,2.009-2.087,3.413-2.72,1.403-.633,2.917-1.069,4.542-1.309,1.625-.239,3.173-.359,4.645-.359v-3.336c0-.924-.128-1.643-.385-2.156-.257-.513-.659-.88-1.206-1.104-.548-.222-1.25-.333-2.104-.333-1.164,0-2.327.326-3.49.975-1.164.65-2.19,1.317-3.08,2.001l-2.515-4.054c1.54-1.061,3.19-1.856,4.953-2.387,1.762-.53,3.567-.795,5.415-.795ZM183.241,104.708c-.718,0-1.506.035-2.361.103-.855.069-1.677.24-2.463.513-.788.274-1.429.685-1.925,1.232-.496.548-.744,1.301-.744,2.258,0,.788.316,1.395.95,1.822.632.428,1.309.642,2.027.642.957,0,1.771-.273,2.438-.821.667-.547,1.181-1.24,1.54-2.079.359-.838.539-1.668.539-2.489v-1.18Z"/>
    <path d="M207.671,89.259c1.266,0,2.618.223,4.055.667,1.437.445,2.669,1.044,3.695,1.796l-3.08,3.9c-.821-.616-1.625-1.103-2.412-1.462-.788-.359-1.728-.539-2.823-.539s-2.019.291-2.771.873c-.753.582-1.352,1.334-1.796,2.258-.445.924-.77,1.899-.975,2.925-.205,1.026-.308,1.985-.308,2.874,0,2.909.599,5.167,1.796,6.775,1.197,1.608,2.856,2.412,4.979,2.412.889,0,1.796-.145,2.72-.436.924-.291,1.916-.744,2.977-1.36l1.591,3.695c-1.437.788-2.771,1.386-4.003,1.796s-2.687.616-4.362.616c-2.704,0-4.979-.573-6.826-1.719s-3.251-2.728-4.208-4.748c-.958-2.018-1.437-4.328-1.437-6.928,0-2.669.547-5.004,1.642-7.006,1.095-2.001,2.625-3.567,4.594-4.696,1.967-1.129,4.286-1.693,6.954-1.693Z"/>
    <path d="M227.635,80.637c0,1.061-.377,1.985-1.129,2.771-.753.788-1.677,1.181-2.771,1.181-1.061,0-1.985-.393-2.771-1.181-.788-.787-1.181-1.71-1.181-2.771,0-1.095.393-2.019,1.181-2.771.787-.752,1.71-1.129,2.771-1.129,1.095,0,2.019.377,2.771,1.129.752.753,1.129,1.677,1.129,2.771ZM226.762,89.926v25.508h-6.159v-22.736l-.564-2.771h6.723Z"/>
    <path d="M243.75,116.05c-2.566,0-4.765-.59-6.595-1.771-1.831-1.181-3.233-2.771-4.208-4.773-.976-2.002-1.463-4.234-1.463-6.698,0-1.848.29-3.584.873-5.209.581-1.625,1.428-3.062,2.541-4.311,1.111-1.249,2.438-2.232,3.978-2.951,1.54-.719,3.267-1.078,5.184-1.078,2.6,0,4.807.59,6.621,1.771,1.813,1.181,3.208,2.771,4.183,4.773.975,2.002,1.462,4.234,1.462,6.698,0,1.848-.291,3.584-.873,5.209-.582,1.625-1.42,3.062-2.515,4.311-1.095,1.25-2.412,2.232-3.952,2.951-1.54.719-3.285,1.078-5.235,1.078ZM243.801,111.944c1.197,0,2.172-.299,2.926-.898.752-.598,1.334-1.368,1.745-2.31.411-.94.693-1.95.847-3.028.154-1.078.231-2.079.231-3.002,0-.958-.06-1.976-.18-3.054-.121-1.078-.368-2.087-.744-3.028-.377-.94-.933-1.702-1.668-2.284-.736-.582-1.72-.873-2.951-.873-1.164,0-2.122.308-2.874.924-.753.616-1.334,1.403-1.745,2.361-.411.958-.702,1.968-.873,3.028-.171,1.061-.257,2.036-.257,2.926,0,.924.068,1.917.206,2.977.136,1.061.393,2.071.77,3.028.376.958.932,1.737,1.668,2.335.735.599,1.702.898,2.899.898ZM246.932,77.711h7.442l-7.75,8.468h-5.286l5.594-8.468Z"/>
    <path d="M266.333,89.362c.239.513.427,1.052.564,1.617.136.564.239,1.121.308,1.668,1.026-.924,2.232-1.728,3.618-2.412,1.386-.684,2.779-1.026,4.183-1.026,1.984,0,3.524.376,4.619,1.129,1.095.753,1.865,1.805,2.31,3.156.444,1.352.667,2.917.667,4.696v17.245h-6.21v-16.629c0-.787-.06-1.54-.18-2.258-.12-.718-.41-1.309-.872-1.771s-1.189-.693-2.182-.693c-.513,0-1.138.154-1.873.462-.736.308-1.437.676-2.104,1.104-.667.428-1.189.847-1.565,1.257v18.528h-6.159v-18.271c0-.616-.043-1.377-.128-2.284-.085-.906-.249-1.804-.487-2.694-.24-.889-.564-1.573-.975-2.053l6.467-.77Z"/>
    <path d="M78.235,139.504l7.339,21.453c.308.958.582,1.925.821,2.9.239.975.462,1.959.667,2.951.273-1.197.573-2.378.898-3.542.325-1.163.693-2.326,1.103-3.49l6.929-20.273h5.697l-12.985,37.62h-5.03l-12.934-37.62h7.493Z"/>
    <path d="M111.955,150.796c2.361,0,4.302.513,5.825,1.54,1.522,1.026,2.651,2.353,3.388,3.978.735,1.625,1.103,3.362,1.103,5.209,0,.547-.034,1.121-.103,1.719-.069.599-.188,1.189-.359,1.771h-15.602c0,2.738.649,4.833,1.95,6.287,1.3,1.455,2.994,2.181,5.081,2.181.992,0,2.061-.17,3.208-.513,1.146-.341,2.335-.873,3.567-1.591l1.642,3.49c-1.164.924-2.626,1.609-4.388,2.053-1.763.444-3.345.667-4.748.667-1.984,0-3.772-.308-5.363-.924-1.591-.616-2.943-1.505-4.054-2.669-1.112-1.163-1.959-2.548-2.541-4.157-.583-1.608-.873-3.404-.873-5.389,0-1.813.273-3.533.821-5.158.547-1.625,1.351-3.079,2.412-4.362,1.06-1.283,2.352-2.292,3.875-3.028,1.522-.735,3.241-1.103,5.158-1.103ZM111.698,155.004c-1.129,0-2.079.308-2.849.924-.77.616-1.36,1.386-1.771,2.31s-.65,1.831-.719,2.72h9.495c.17-.992.119-1.941-.154-2.848-.274-.906-.753-1.65-1.437-2.232-.685-.582-1.54-.873-2.566-.873Z"/>
    <path d="M132.073,151.001c.752,1.711,1.163,3.508,1.232,5.389.854-1.437,2.053-2.695,3.592-3.772,1.54-1.078,3.165-1.617,4.876-1.617l-1.026,6.107c-1.506,0-2.849.385-4.029,1.155-1.18.77-2.301,1.959-3.361,3.567v15.192h-6.159v-18.63c0-.649-.052-1.412-.154-2.284-.103-.873-.274-1.72-.513-2.541-.24-.821-.564-1.505-.975-2.053l6.518-.513Z"/>
    <path d="M154.398,144.072c-.24,1.198-.445,2.43-.616,3.695-.171,1.266-.274,2.515-.308,3.747h6.21l-.975,4.055h-5.235v14.114c0,.377.034.839.103,1.386.068.548.257,1.026.564,1.437.308.411.804.616,1.488.616.582,0,1.146-.052,1.694-.154.547-.103,1.095-.222,1.643-.359l.718,3.849c-.89.274-1.891.522-3.002.744-1.112.222-2.13.333-3.054.333-2.19,0-3.807-.513-4.85-1.54-1.044-1.026-1.565-2.669-1.565-4.927v-15.5h-4.208v-3.387c1.06-.034,1.984-.299,2.771-.796.787-.496,1.463-1.146,2.027-1.95.564-.803,1.026-1.676,1.386-2.617.359-.941.642-1.856.847-2.746h4.363Z"/>
    <path d="M170.052,142.225c0,1.061-.377,1.985-1.129,2.771-.753.788-1.677,1.181-2.771,1.181-1.061,0-1.985-.393-2.771-1.181-.788-.787-1.181-1.71-1.181-2.771,0-1.095.393-2.019,1.181-2.771.787-.752,1.71-1.129,2.771-1.129,1.095,0,2.019.377,2.771,1.129.752.753,1.129,1.677,1.129,2.771ZM169.179,151.514v25.508h-6.159v-22.736l-.564-2.771h6.723Z"/>
    <path d="M187.091,150.847c1.266,0,2.618.223,4.055.667,1.437.445,2.669,1.044,3.695,1.796l-3.08,3.9c-.821-.616-1.625-1.103-2.412-1.462-.788-.359-1.728-.539-2.823-.539s-2.019.291-2.771.873c-.753.582-1.352,1.334-1.796,2.258-.445.924-.77,1.899-.975,2.925-.205,1.026-.308,1.985-.308,2.874,0,2.909.599,5.167,1.796,6.775,1.197,1.608,2.856,2.412,4.979,2.412.889,0,1.796-.145,2.72-.436.924-.291,1.916-.744,2.977-1.36l1.591,3.695c-1.437.788-2.771,1.386-4.003,1.796s-2.687.616-4.362.616c-2.704,0-4.979-.573-6.826-1.719s-3.251-2.728-4.208-4.748c-.958-2.018-1.437-4.328-1.437-6.928,0-2.669.547-5.004,1.642-7.006,1.095-2.001,2.625-3.567,4.594-4.696,1.967-1.129,4.286-1.693,6.954-1.693Z"/>
    <path d="M208.698,150.898c2.737,0,4.85.693,6.338,2.079s2.232,3.464,2.232,6.236v11.24c0,.993.154,1.66.462,2.001.308.342.701.513,1.181.513.342,0,.675-.034,1.001-.103.325-.068.658-.171,1-.308l.975,3.49c-.753.411-1.608.744-2.566,1.001-.958.256-1.831.385-2.618.385-1.231,0-2.225-.257-2.977-.77-.753-.513-1.283-1.402-1.591-2.669-.958,1.334-2.079,2.267-3.361,2.797-1.283.53-2.729.795-4.337.795-1.985,0-3.688-.572-5.107-1.719-1.42-1.146-2.13-2.763-2.13-4.85,0-1.848.437-3.362,1.309-4.542.873-1.181,2.009-2.087,3.413-2.72,1.403-.633,2.917-1.069,4.542-1.309,1.625-.239,3.173-.359,4.645-.359v-3.336c0-.924-.128-1.643-.385-2.156-.257-.513-.659-.88-1.206-1.104-.548-.222-1.25-.333-2.104-.333-1.164,0-2.327.326-3.49.975-1.164.65-2.19,1.317-3.08,2.001l-2.515-4.054c1.54-1.061,3.19-1.856,4.953-2.387,1.762-.53,3.567-.795,5.415-.795ZM211.11,166.295c-.718,0-1.506.035-2.361.103-.855.069-1.677.24-2.463.513-.788.274-1.429.685-1.925,1.232-.496.548-.744,1.301-.744,2.258,0,.788.316,1.395.95,1.822.632.428,1.309.642,2.027.642.957,0,1.771-.273,2.438-.821.667-.547,1.181-1.24,1.54-2.079.359-.838.539-1.668.539-2.489v-1.18Z"/>
    <path d="M230.509,137.554v39.468h-6.261v-36.696l-.564-2.771h6.826Z"/>
  </g>
  <g>
    <path d="M574.342,1173.87h11.906c2.498,0,4.773.352,6.826,1.052,2.053.702,3.703,1.865,4.953,3.49,1.248,1.625,1.873,3.858,1.873,6.697,0,2.601-.642,4.731-1.925,6.391s-2.96,2.883-5.029,3.669c-2.07.788-4.269,1.181-6.596,1.181h-4.208v15.089h-7.031v-34.438l-.77-3.131ZM582.194,1178.951v12.42h4.311c1.916,0,3.379-.59,4.389-1.771,1.009-1.181,1.514-2.677,1.514-4.491,0-1.881-.487-3.378-1.463-4.49-.975-1.111-2.438-1.668-4.388-1.668h-4.362Z"/>
    <path d="M614.835,1212.055c-2.565,0-4.765-.59-6.595-1.771-1.831-1.181-3.233-2.771-4.208-4.773-.976-2.002-1.463-4.234-1.463-6.697,0-1.848.29-3.584.872-5.21.581-1.624,1.429-3.062,2.541-4.311,1.111-1.249,2.438-2.232,3.978-2.951,1.539-.719,3.267-1.078,5.184-1.078,2.6,0,4.807.59,6.62,1.771s3.208,2.771,4.184,4.773c.975,2.002,1.462,4.234,1.462,6.697,0,1.848-.291,3.585-.872,5.21-.582,1.625-1.42,3.062-2.515,4.311-1.096,1.25-2.412,2.232-3.952,2.951s-3.285,1.078-5.235,1.078ZM614.887,1207.948c1.197,0,2.172-.299,2.926-.897.752-.599,1.334-1.368,1.744-2.31.411-.94.693-1.95.848-3.028.153-1.078.23-2.078.23-3.002,0-.958-.06-1.977-.18-3.054-.12-1.078-.368-2.087-.744-3.028-.377-.94-.933-1.702-1.668-2.284-.736-.581-1.72-.872-2.951-.872-1.163,0-2.122.308-2.874.924-.753.615-1.334,1.403-1.745,2.36-.41.958-.701,1.968-.872,3.028-.172,1.061-.257,2.036-.257,2.926,0,.924.068,1.916.205,2.977s.394,2.07.771,3.028c.376.958.932,1.736,1.668,2.335.735.599,1.701.897,2.899.897Z"/>
    <path d="M638.238,1171.971v39.468h-6.261v-36.696l-.564-2.771h6.825Z"/>
    <path d="M654.662,1185.315c2.736,0,4.85.692,6.338,2.078s2.232,3.465,2.232,6.236v11.239c0,.993.154,1.66.462,2.002.309.342.701.513,1.181.513.342,0,.676-.033,1.001-.103.325-.068.658-.171,1.001-.308l.975,3.49c-.753.41-1.608.744-2.565,1.001-.959.256-1.831.385-2.618.385-1.231,0-2.225-.257-2.977-.771-.753-.513-1.283-1.402-1.591-2.669-.958,1.335-2.079,2.268-3.361,2.798-1.283.53-2.729.795-4.337.795-1.985,0-3.688-.572-5.107-1.719s-2.13-2.763-2.13-4.851c0-1.848.437-3.361,1.31-4.542.872-1.181,2.009-2.087,3.412-2.72s2.917-1.069,4.543-1.309c1.624-.239,3.173-.359,4.645-.359v-3.336c0-.924-.129-1.643-.385-2.156-.257-.513-.659-.88-1.206-1.104-.548-.222-1.25-.333-2.104-.333-1.164,0-2.327.325-3.49.975-1.163.65-2.189,1.317-3.079,2.002l-2.515-4.055c1.539-1.061,3.189-1.855,4.952-2.387,1.762-.53,3.567-.795,5.415-.795ZM657.074,1200.712c-.719,0-1.506.035-2.361.103-.855.069-1.677.24-2.463.514-.788.274-1.43.685-1.925,1.231-.496.548-.744,1.301-.744,2.259,0,.787.315,1.395.949,1.821.633.429,1.309.642,2.027.642.957,0,1.771-.273,2.438-.821.668-.547,1.181-1.239,1.54-2.078.359-.838.539-1.668.539-2.489v-1.181Z"/>
    <path d="M675.345,1185.418c.752,1.711,1.162,3.508,1.231,5.389.854-1.437,2.053-2.694,3.593-3.772,1.54-1.077,3.164-1.616,4.876-1.616l-1.026,6.107c-1.507,0-2.849.385-4.029,1.154-1.181.771-2.302,1.959-3.361,3.567v15.191h-6.159v-18.63c0-.649-.052-1.412-.154-2.284s-.274-1.72-.513-2.54c-.24-.821-.564-1.506-.976-2.054l6.519-.513Z"/>
    <path d="M695.258,1176.642c0,1.061-.377,1.984-1.129,2.771-.753.787-1.677,1.181-2.771,1.181-1.062,0-1.985-.394-2.771-1.181-.788-.787-1.181-1.711-1.181-2.771,0-1.095.393-2.019,1.181-2.771.786-.752,1.71-1.129,2.771-1.129,1.095,0,2.019.377,2.771,1.129.752.753,1.129,1.677,1.129,2.771ZM694.385,1185.931v25.508h-6.158v-22.736l-.564-2.771h6.723Z"/>
    <path d="M699.928,1185.931h19.093v3.183l-12.164,18.065h12.882l-.718,4.26h-20.376v-3.131l12.01-18.117h-10.727v-4.26Z"/>
    <path d="M733.646,1185.315c2.737,0,4.851.692,6.339,2.078s2.232,3.465,2.232,6.236v11.239c0,.993.154,1.66.462,2.002s.701.513,1.181.513c.342,0,.675-.033,1.001-.103.324-.068.658-.171,1-.308l.976,3.49c-.753.41-1.608.744-2.566,1.001-.958.256-1.831.385-2.617.385-1.231,0-2.225-.257-2.977-.771-.753-.513-1.283-1.402-1.592-2.669-.958,1.335-2.078,2.268-3.361,2.798s-2.729.795-4.337.795c-1.984,0-3.688-.572-5.106-1.719-1.42-1.146-2.13-2.763-2.13-4.851,0-1.848.437-3.361,1.309-4.542.873-1.181,2.01-2.087,3.413-2.72,1.402-.633,2.917-1.069,4.542-1.309s3.174-.359,4.645-.359v-3.336c0-.924-.128-1.643-.385-2.156-.257-.513-.659-.88-1.206-1.104-.548-.222-1.249-.333-2.104-.333-1.163,0-2.327.325-3.489.975-1.164.65-2.19,1.317-3.08,2.002l-2.515-4.055c1.54-1.061,3.19-1.855,4.953-2.387,1.762-.53,3.566-.795,5.414-.795ZM736.059,1200.712c-.718,0-1.506.035-2.36.103-.855.069-1.677.24-2.464.514-.787.274-1.429.685-1.925,1.231-.496.548-.744,1.301-.744,2.259,0,.787.316,1.395.95,1.821.632.429,1.309.642,2.027.642.957,0,1.771-.273,2.438-.821.667-.547,1.181-1.239,1.54-2.078.358-.838.538-1.668.538-2.489v-1.181Z"/>
    <path d="M760.488,1185.264c1.266,0,2.618.223,4.055.667,1.438.445,2.669,1.044,3.695,1.797l-3.079,3.9c-.821-.616-1.626-1.104-2.412-1.463-.788-.359-1.729-.539-2.823-.539s-2.019.291-2.771.873-1.352,1.334-1.796,2.258c-.445.924-.77,1.899-.976,2.926-.205,1.026-.308,1.984-.308,2.874,0,2.908.599,5.167,1.796,6.774,1.197,1.608,2.856,2.412,4.979,2.412.89,0,1.797-.145,2.721-.436s1.915-.744,2.977-1.36l1.591,3.695c-1.437.787-2.771,1.386-4.003,1.796-1.232.411-2.687.616-4.362.616-2.704,0-4.979-.573-6.826-1.72-1.848-1.146-3.251-2.728-4.209-4.747-.958-2.019-1.437-4.328-1.437-6.929,0-2.669.547-5.004,1.642-7.006,1.095-2.001,2.626-3.566,4.594-4.696,1.967-1.129,4.286-1.693,6.954-1.693Z"/>
    <path d="M780.452,1176.642c0,1.061-.377,1.984-1.129,2.771-.753.787-1.677,1.181-2.771,1.181-1.061,0-1.984-.394-2.771-1.181s-1.181-1.711-1.181-2.771c0-1.095.394-2.019,1.181-2.771.787-.752,1.711-1.129,2.771-1.129,1.095,0,2.019.377,2.771,1.129.752.753,1.129,1.677,1.129,2.771ZM779.58,1185.931v25.508h-6.159v-22.736l-.564-2.771h6.724Z"/>
    <path d="M796.567,1212.055c-2.565,0-4.765-.59-6.595-1.771-1.831-1.181-3.233-2.771-4.208-4.773-.976-2.002-1.463-4.234-1.463-6.697,0-1.848.29-3.584.872-5.21.581-1.624,1.429-3.062,2.541-4.311,1.111-1.249,2.438-2.232,3.978-2.951,1.539-.719,3.267-1.078,5.184-1.078,2.6,0,4.807.59,6.62,1.771s3.208,2.771,4.184,4.773c.975,2.002,1.462,4.234,1.462,6.697,0,1.848-.291,3.585-.872,5.21-.582,1.625-1.42,3.062-2.515,4.311-1.096,1.25-2.412,2.232-3.952,2.951s-3.285,1.078-5.235,1.078ZM796.619,1207.948c1.197,0,2.172-.299,2.926-.897.752-.599,1.334-1.368,1.744-2.31.411-.94.693-1.95.848-3.028.153-1.078.23-2.078.23-3.002,0-.958-.06-1.977-.18-3.054-.12-1.078-.368-2.087-.744-3.028-.377-.94-.933-1.702-1.668-2.284-.736-.581-1.72-.872-2.951-.872-1.163,0-2.122.308-2.874.924-.753.615-1.334,1.403-1.745,2.36-.41.958-.701,1.968-.872,3.028-.172,1.061-.257,2.036-.257,2.926,0,.924.068,1.916.205,2.977s.394,2.07.771,3.028c.376.958.932,1.736,1.668,2.335.735.599,1.701.897,2.899.897ZM799.75,1173.716h7.441l-7.75,8.469h-5.286l5.595-8.469Z"/>
    <path d="M819.15,1185.366c.238.514.427,1.053.564,1.617.136.564.238,1.121.308,1.668,1.026-.924,2.232-1.728,3.618-2.412s2.779-1.026,4.183-1.026c1.984,0,3.524.376,4.619,1.129s1.865,1.805,2.31,3.156.668,2.917.668,4.696v17.244h-6.211v-16.629c0-.786-.06-1.539-.18-2.258s-.41-1.309-.872-1.771-1.189-.693-2.182-.693c-.513,0-1.138.154-1.873.462-.736.309-1.437.677-2.104,1.104-.667.429-1.188.847-1.565,1.258v18.527h-6.158v-18.271c0-.616-.044-1.377-.129-2.284-.085-.906-.248-1.805-.487-2.694s-.564-1.573-.975-2.053l6.467-.771Z"/>
    <path d="M616.837,1256.244h-15.757v16.782h-7.083v-34.438c0-.034-.06-.291-.179-.771-.121-.479-.231-.975-.334-1.488-.103-.513-.172-.804-.205-.872h7.801v15.705h15.757v-15.705h7.082v37.568h-7.082v-16.782Z"/>
    <path d="M640.804,1273.643c-2.565,0-4.765-.59-6.595-1.771-1.831-1.181-3.233-2.771-4.208-4.773-.976-2.002-1.463-4.234-1.463-6.697,0-1.848.29-3.584.872-5.21.581-1.624,1.429-3.062,2.541-4.311,1.111-1.249,2.438-2.232,3.978-2.951,1.539-.719,3.267-1.078,5.184-1.078,2.6,0,4.807.59,6.62,1.771s3.208,2.771,4.184,4.773c.975,2.002,1.462,4.234,1.462,6.697,0,1.848-.291,3.585-.872,5.21-.582,1.625-1.42,3.062-2.515,4.311-1.096,1.25-2.412,2.232-3.952,2.951s-3.285,1.078-5.235,1.078ZM640.855,1269.536c1.197,0,2.172-.299,2.926-.897.752-.599,1.334-1.368,1.744-2.31.411-.94.693-1.95.848-3.028.153-1.078.23-2.078.23-3.002,0-.958-.06-1.977-.18-3.054-.12-1.078-.368-2.087-.744-3.028-.377-.94-.933-1.702-1.668-2.284-.736-.581-1.72-.872-2.951-.872-1.163,0-2.122.308-2.874.924-.753.615-1.334,1.403-1.745,2.36-.41.958-.701,1.968-.872,3.028-.172,1.061-.257,2.036-.257,2.926,0,.924.068,1.916.205,2.977s.394,2.07.771,3.028c.376.958.932,1.736,1.668,2.335.735.599,1.701.897,2.899.897Z"/>
    <path d="M663.078,1247.006c.752,1.711,1.162,3.508,1.231,5.389.854-1.437,2.053-2.694,3.593-3.772,1.54-1.077,3.164-1.616,4.876-1.616l-1.026,6.107c-1.507,0-2.849.385-4.029,1.154-1.181.771-2.302,1.959-3.361,3.567v15.191h-6.159v-18.63c0-.649-.052-1.412-.154-2.284s-.274-1.72-.513-2.54c-.24-.821-.564-1.506-.976-2.054l6.519-.513Z"/>
    <path d="M682.991,1238.229c0,1.061-.377,1.984-1.129,2.771-.753.787-1.677,1.181-2.771,1.181-1.061,0-1.984-.394-2.771-1.181s-1.181-1.711-1.181-2.771c0-1.095.394-2.019,1.181-2.771.787-.752,1.711-1.129,2.771-1.129,1.095,0,2.019.377,2.771,1.129.752.753,1.129,1.677,1.129,2.771ZM682.119,1247.519v25.508h-6.159v-22.736l-.564-2.771h6.724Z"/>
    <path d="M687.662,1247.519h19.092v3.183l-12.163,18.065h12.882l-.719,4.26h-20.375v-3.131l12.01-18.117h-10.727v-4.26Z"/>
    <path d="M721.945,1273.643c-2.566,0-4.766-.59-6.595-1.771-1.831-1.181-3.233-2.771-4.209-4.773s-1.463-4.234-1.463-6.697c0-1.848.29-3.584.873-5.21.581-1.624,1.428-3.062,2.54-4.311,1.111-1.249,2.438-2.232,3.978-2.951s3.268-1.078,5.184-1.078c2.6,0,4.807.59,6.621,1.771,1.813,1.181,3.208,2.771,4.183,4.773.976,2.002,1.463,4.234,1.463,6.697,0,1.848-.291,3.585-.873,5.21s-1.42,3.062-2.515,4.311c-1.095,1.25-2.412,2.232-3.951,2.951-1.54.719-3.285,1.078-5.235,1.078ZM721.996,1269.536c1.197,0,2.173-.299,2.926-.897.752-.599,1.335-1.368,1.745-2.31.41-.94.692-1.95.847-3.028s.231-2.078.231-3.002c0-.958-.061-1.977-.18-3.054-.121-1.078-.368-2.087-.744-3.028-.377-.94-.933-1.702-1.668-2.284-.736-.581-1.72-.872-2.951-.872-1.164,0-2.122.308-2.874.924-.754.615-1.335,1.403-1.745,2.36-.411.958-.702,1.968-.873,3.028s-.257,2.036-.257,2.926c0,.924.068,1.916.206,2.977.136,1.061.393,2.07.77,3.028.376.958.932,1.736,1.668,2.335.735.599,1.702.897,2.899.897Z"/>
    <path d="M744.527,1246.954c.239.514.428,1.053.564,1.617s.239,1.121.309,1.668c1.026-.924,2.232-1.728,3.618-2.412s2.779-1.026,4.183-1.026c1.983,0,3.523.376,4.619,1.129,1.095.753,1.864,1.805,2.31,3.156.444,1.352.667,2.917.667,4.696v17.244h-6.21v-16.629c0-.786-.061-1.539-.18-2.258-.12-.719-.41-1.309-.872-1.771s-1.189-.693-2.182-.693c-.514,0-1.138.154-1.873.462-.736.309-1.438.677-2.104,1.104-.667.429-1.189.847-1.565,1.258v18.527h-6.159v-18.271c0-.616-.043-1.377-.128-2.284-.086-.906-.249-1.805-.487-2.694-.24-.89-.564-1.573-.976-2.053l6.467-.771Z"/>
    <path d="M775.424,1240.077c-.239,1.198-.445,2.43-.616,3.695s-.273,2.515-.308,3.746h6.21l-.975,4.055h-5.235v14.114c0,.377.034.839.103,1.386.068.548.257,1.026.564,1.437.309.411.804.616,1.488.616.582,0,1.146-.052,1.694-.154.547-.103,1.095-.222,1.643-.358l.718,3.849c-.89.274-1.891.522-3.002.744-1.112.223-2.13.334-3.054.334-2.19,0-3.807-.514-4.851-1.54s-1.565-2.669-1.565-4.927v-15.5h-4.208v-3.387c1.06-.034,1.983-.3,2.771-.796.786-.496,1.463-1.146,2.027-1.95s1.026-1.676,1.386-2.617.642-1.856.847-2.746h4.362Z"/>
    <path d="M794.516,1246.903c2.737,0,4.851.692,6.339,2.078s2.232,3.465,2.232,6.236v11.239c0,.993.154,1.66.462,2.002s.701.513,1.181.513c.342,0,.675-.033,1.001-.103.324-.068.658-.171,1-.308l.976,3.49c-.753.41-1.608.744-2.566,1.001-.958.256-1.831.385-2.617.385-1.231,0-2.225-.257-2.977-.771-.753-.513-1.283-1.402-1.592-2.669-.958,1.335-2.078,2.268-3.361,2.798s-2.729.795-4.337.795c-1.984,0-3.688-.572-5.106-1.719-1.42-1.146-2.13-2.763-2.13-4.851,0-1.848.437-3.361,1.309-4.542.873-1.181,2.01-2.087,3.413-2.72,1.402-.633,2.917-1.069,4.542-1.309s3.174-.359,4.645-.359v-3.336c0-.924-.128-1.643-.385-2.156-.257-.513-.659-.88-1.206-1.104-.548-.222-1.249-.333-2.104-.333-1.163,0-2.327.325-3.489.975-1.164.65-2.19,1.317-3.08,2.002l-2.515-4.055c1.54-1.061,3.19-1.855,4.953-2.387,1.762-.53,3.566-.795,5.414-.795ZM796.928,1262.3c-.718,0-1.506.035-2.36.103-.855.069-1.677.24-2.464.514-.787.274-1.429.685-1.925,1.231-.496.548-.744,1.301-.744,2.259,0,.787.316,1.395.95,1.821.632.429,1.309.642,2.027.642.957,0,1.771-.273,2.438-.821.667-.547,1.181-1.239,1.54-2.078.358-.838.538-1.668.538-2.489v-1.181Z"/>
    <path d="M816.327,1233.559v39.468h-6.261v-36.696l-.564-2.771h6.825Z"/>
  </g>
</svg>