<svg xmlns="http://www.w3.org/2000/svg" viewBox="0 0 224 155.9"><path fill="#010101" d="m118.045 66.08 2.8-.014.163 31.1-2.8.014z"/><path fill="none" stroke="#010101" stroke-linecap="round" stroke-linejoin="round" stroke-width=".5" d="m119.4 87 15.1 8.1"/><path fill="#010101" fill-rule="evenodd" d="m133.1 97 5.5.3-3.2-4.5z"/><path fill="none" stroke="#010101" stroke-linecap="round" stroke-linejoin="round" stroke-width=".5" d="m119.4 76.5 18.9-10.4"/><path fill="none" stroke="#010101" stroke-linecap="round" stroke-linejoin="round" stroke-width="1.9" d="M145.5 81.4c0-12-9.5-21.7-21.2-21.7-11.6 0-21 9.8-21 21.9 0 12 9.5 21.7 21.2 21.7 11.6 0 21-9.9 21-21.9"/><path fill="none" stroke="#010101" stroke-linecap="round" stroke-linejoin="round" stroke-width=".5" d="m78.1 89.1-4-15.1-3.6 15.1L66.7 74l-3.8 15.1L59.1 74"/><path fill="none" stroke="#010101" stroke-linecap="round" stroke-linejoin="round" stroke-width=".5" d="m59.2 74.3-1.9 7.3H34.5m43.4 7.3 1.8-7.4 39.7-.2"/><path fill="none" stroke="#010101" stroke-miterlimit="10" stroke-width=".5" d="m184.5 79.4.2 27.3"/><path fill="none" stroke="#010101" stroke-linecap="round" stroke-linejoin="round" stroke-width=".5" d="m175.4 114.9 3.8-7.8h11.9l-3.5 7.8m-2.8-7.8-3.3 7.8"/><circle cx="31.4" cy="97.8" r="3.2" fill="none" stroke="#010101" stroke-linecap="round" stroke-linejoin="round"/><circle cx="31.2" cy="81.6" r="3.2" fill="none" stroke="#010101" stroke-linecap="round" stroke-linejoin="round"/><path fill="none" stroke="#010101" stroke-linecap="round" stroke-linejoin="round" stroke-width=".5" d="m139.1 98.3.2 20.9m-9.2 8.2 3.6-8h11.9l-3.3 7.9m-2.9-7.9-3.2 7.9M31.5 101l.2 20.9m-9.3 8.2 3.8-7.9 11.8-.1-3.4 8m-2.8-7.9-3.3 7.9m131.8-88.8-21.1.1.1 24.6"/><path fill="#010101" d="M69.3 64.3h-1V58c-.2.2-.5.5-.9.7s-.7.4-1 .5v-1c.5-.3 1-.6 1.4-1s.7-.7.9-1.1h.6v8.1ZM118 52.4v1h-5.3c0-.2 0-.5.1-.7.1-.4.4-.7.6-1.1.3-.4.7-.8 1.3-1.2.9-.7 1.5-1.3 1.8-1.7s.5-.8.5-1.2-.1-.7-.4-1-.6-.4-1.1-.4-.9.1-1.1.4c-.3.3-.4.7-.4 1.2h-1c0-.9.3-1.4.8-1.8q.75-.6 1.8-.6 1.2 0 1.8.6c.5.4.7 1 .7 1.6 0 .3 0 .6-.2 1-.1.3-.3.6-.7 1-.3.3-.8.8-1.5 1.4-.6.5-1 .8-1.1 1-.2.2-.3.4-.4.5h4ZM159.8 14h1c.1.4.3.8.6 1.1.3.2.6.4 1 .4.5 0 .9-.2 1.2-.5s.5-.7.5-1.2-.2-.8-.5-1.1-.7-.4-1.1-.4c-.2 0-.4 0-.7.1v-.9h.3c.4 0 .8-.1 1.1-.3s.5-.6.5-1-.1-.7-.4-.9c-.2-.2-.6-.4-1-.4s-.7.1-1 .4c-.3.2-.4.6-.5 1.1l-1-.2c.1-.7.4-1.2.8-1.5.4-.4 1-.6 1.6-.6.4 0 .8 0 1.2.3.4.2.7.4.9.8.2.3.3.7.3 1s0 .7-.3 1c-.2.3-.5.5-.8.7.5.1.8.3 1.1.7.3.3.4.8.4 1.3 0 .7-.3 1.3-.8 1.8s-1.2.7-1.9.7q-1.05 0-1.8-.6c-.5-.4-.7-1-.8-1.6Zm51.3 59.1v-1.9h-3.5v-.9l3.7-5.2h.8v5.2h1.1v.9h-1.1v1.9zm0-2.8v-3.6l-2.5 3.7h2.5ZM28.4 144.5h1c0 .4.3.8.5 1 .3.3.6.4 1 .4.5 0 .9-.2 1.2-.5.3-.4.5-.8.5-1.4s-.2-1-.5-1.3-.7-.5-1.2-.5c-.3 0-.6 0-.9.2q-.45.15-.6.6h-.9c0-.1.8-4.3.8-4.3h4v.9h-3.2l-.4 2.2c.5-.3 1-.5 1.5-.5.7 0 1.3.2 1.8.7s.7 1.1.7 1.9c0 .7-.2 1.4-.6 1.9-.5.7-1.2 1-2.1 1q-1.05 0-1.8-.6c-.5-.4-.7-1-.8-1.6Zm144.428-81.506 23.3-.122.007 1.4-23.3.122zm6.029 5.469 11.3-.06.006 1.3-11.3.06zm-5.875 4.831 23.3-.122.007 1.4-23.3.122zm6.028 5.468 11.3-.059.008 1.4-11.3.06z"/><path fill="#010101" d="M69.3 64.3h-1V58c-.2.2-.5.5-.9.7s-.7.4-1 .5v-1c.5-.3 1-.6 1.4-1s.7-.7.9-1.1h.6v8.1ZM159.8 14h1c.1.4.3.8.6 1.1.3.2.6.4 1 .4.5 0 .9-.2 1.2-.5s.5-.7.5-1.2-.2-.8-.5-1.1-.7-.4-1.1-.4c-.2 0-.4 0-.7.1v-.9h.3c.4 0 .8-.1 1.1-.3s.5-.6.5-1-.1-.7-.4-.9c-.2-.2-.6-.4-1-.4s-.7.1-1 .4c-.3.2-.4.6-.5 1.1l-1-.2c.1-.7.4-1.2.8-1.5.4-.4 1-.6 1.6-.6.4 0 .8 0 1.2.3.4.2.7.4.9.8.2.3.3.7.3 1s0 .7-.3 1c-.2.3-.5.5-.8.7.5.1.8.3 1.1.7.3.3.4.8.4 1.3 0 .7-.3 1.3-.8 1.8s-1.2.7-1.9.7q-1.05 0-1.8-.6c-.5-.4-.7-1-.8-1.6ZM59.3 134.4v-8.6h5.8v1h-4.7v2.7h4v1h-4v3.9zm7.1-7.4v-1.2h1v1.2zm.1 7.4v-6.2h1v6.2zm2.4.5h1c0 .5.2.7.4.8.3.2.6.3 1.1.3s.9-.1 1.1-.3c.3-.2.4-.5.5-.8v-1.4c-.5.5-1 .8-1.7.8-.9 0-1.5-.3-2-.9s-.7-1.4-.7-2.2c0-.6.1-1.1.3-1.6q.3-.75.9-1.2c.4-.3.9-.4 1.4-.4q1.05 0 1.8.9v-.8h1v5.4c0 1 0 1.7-.3 2.1-.2.4-.5.7-.9 1-.4.2-1 .4-1.6.4-.7 0-1.3-.2-1.8-.5s-.7-.8-.7-1.5Zm.9-3.8c0 .8.2 1.4.5 1.8q.45.6 1.2.6t1.2-.6c.3-.4.5-1 .5-1.8s-.2-1.3-.5-1.7q-.45-.6-1.2-.6t-1.2.6c-.3.4-.5.9-.5 1.7m10 3.2v-.9c-.5.7-1.1 1.1-2 1.1-.4 0-.7 0-1-.2s-.6-.3-.7-.5c-.2-.2-.3-.5-.3-.8v-4.9h1v4.6c0 .3.2.5.4.7s.5.2.8.2.6 0 .9-.2.5-.4.6-.7.2-.7.2-1.2v-3.3h1v6.2h-.9Zm2.5 0v-6.2h.9v.9c.2-.4.5-.7.7-.9.2-.1.4-.2.7-.2.4 0 .7.1 1.1.3l-.4 1c-.3-.2-.5-.2-.8-.2-.2 0-.4 0-.6.2-.2.1-.3.3-.4.6-.1.4-.2.8-.2 1.2v3.3zm8.3-2h1.1c-.2.8-.5 1.3-.9 1.6-.5.4-1.1.5-1.8.5-.9 0-1.6-.3-2.2-.8-.5-.6-.8-1.3-.8-2.4 0-1 .3-1.9.8-2.4q.75-.9 2.1-.9c.8 0 1.5.3 2 .8.5.6.8 1.4.8 2.4v.3h-4.6c0 .7.2 1.2.6 1.6.3.4.8.5 1.3.5.4 0 .7-.1 1-.3s.5-.5.6-1Zm-3.5-1.7h3.5c0-.5-.2-.9-.4-1.2-.3-.4-.8-.6-1.3-.6s-.9.2-1.2.5-.5.8-.5 1.3Zm11.6 3.6v-7.6h-2.9v-1h6.8v1h-2.8v7.6zm8.9 0h-1.1v-6.7c-.3.2-.6.5-1 .7s-.8.4-1.1.5v-1c.6-.3 1.1-.6 1.5-1s.8-.8.9-1.2h.7v8.6Z"/><path fill="none" stroke="#010101" stroke-linecap="round" stroke-linejoin="round" stroke-width=".5" d="M160.3 35.1c0-2 1.6-3.6 3.6-3.6s3.6 1.6 3.6 3.6v6.2h16.9v22.6"/><path fill="none" stroke="#010101" stroke-linecap="round" stroke-linejoin="round" stroke-width="1.5" d="M163.9 24.2c-3.2 0-5.8 2.6-5.8 5.8v8.8h11.7V30c0-3.2-2.6-5.8-5.8-5.8Z"/><path fill="none" stroke="#010101" stroke-linecap="round" stroke-linejoin="round" stroke-width=".5" d="M160.3 35.1v6.2"/><path fill="none" stroke="#000" stroke-miterlimit="10" d="M28 81.6H17.6l-6.8-3.1m0 6.2 6.8-3.1m10.6 16.2H17.8L11 94.7m0 6.2 6.8-3.1"/></svg>