<?xml version="1.0" encoding="utf-8"?>
<svg version="1.1" id="Layer_1" xmlns="http://www.w3.org/2000/svg" xmlns:xlink="http://www.w3.org/1999/xlink" x="0px" y="0px"
	 viewBox="0 0 356.37 160.39" style="enable-background:new 0 0 356.37 160.39;" xml:space="preserve">
<style type="text/css">
	.st0{fill:#010101;}
	.st1{fill:none;stroke:#010101;stroke-width:0.359;stroke-linecap:round;stroke-linejoin:round;stroke-miterlimit:10;}
	.st2{fill:none;stroke:#010101;stroke-width:0.839;stroke-linecap:round;stroke-linejoin:round;stroke-miterlimit:10;}
	.st3{fill:#010101;stroke:#010101;stroke-width:0.359;stroke-linecap:round;stroke-linejoin:round;stroke-miterlimit:10;}
	.st4{fill:none;stroke:#010101;stroke-width:1.199;stroke-linecap:round;stroke-linejoin:round;stroke-miterlimit:10;}
	.st5{fill-rule:evenodd;clip-rule:evenodd;fill:#010101;}
	.st6{font-family:'ArialMT';}
	.st7{font-size:9.359px;}
	.st8{fill:none;stroke:#010101;stroke-width:1.079;stroke-linecap:round;stroke-linejoin:round;stroke-miterlimit:10;}
	.st9{font-size:12px;}
	.st10{fill:none;stroke:#010101;stroke-width:0.359;stroke-miterlimit:10;}
	.st11{fill:none;stroke:#000000;stroke-width:1.25;stroke-miterlimit:10;}
</style>
<polygon class="st0" points="312.36,56.11 317.04,65.59 307.56,65.59 "/>
<polygon class="st1" points="312.36,56.11 317.04,65.59 307.56,65.59 "/>
<rect x="307.32" y="54.91" class="st0" width="9.84" height="1.56"/>
<line class="st1" x1="312.48" y1="87.07" x2="312.48" y2="64.39"/>
<polyline class="st1" points="293.88,35.47 295.2,28.99 301.44,28.99 "/>
<line class="st1" x1="107.6" y1="100.45" x2="107.6" y2="114.43"/>
<line class="st1" x1="134.68" y1="53.35" x2="134.68" y2="98.11"/>
<line class="st1" x1="125.44" y1="53.35" x2="125.44" y2="98.11"/>
<rect x="43.68" y="25.03" class="st2" width="16.32" height="5.76"/>
<line class="st1" x1="46.56" y1="25.03" x2="46.56" y2="30.67"/>
<line class="st1" x1="57" y1="25.27" x2="57" y2="31.03"/>
<line class="st1" x1="60.12" y1="28.03" x2="66.48" y2="28.03"/>
<polygon class="st3" points="188.76,29.35 179.4,34.03 179.4,24.67 "/>
<rect x="188.52" y="24.43" class="st0" width="1.56" height="9.72"/>
<line class="st1" x1="152.98" y1="99.97" x2="153.24" y2="118.99"/>
<polyline class="st1" points="145.44,125.83 148.56,119.23 158.52,119.23 155.64,125.83 "/>
<line class="st1" x1="153.24" y1="119.23" x2="150.48" y2="125.83"/>
<ellipse class="st2" cx="69.66" cy="28.19" rx="2.88" ry="2.82"/>
<polyline class="st0" points="72.42,26.81 72.78,27.89 83.82,23.81 83.34,22.73 72.42,26.81 "/>
<ellipse class="st2" cx="85.74" cy="28.19" rx="2.88" ry="2.82"/>
<polyline class="st1" points="213,114.79 216.12,108.31 226.08,108.31 223.2,114.79 "/>
<line class="st1" x1="220.8" y1="108.31" x2="218.04" y2="114.79"/>
<g>
	<circle class="st4" cx="19.14" cy="76.21" r="11.34"/>
</g>
<rect x="13.56" y="69.55" class="st3" width="11.04" height="3.12"/>
<rect x="13.8" y="79.75" class="st0" width="11.04" height="3.12"/>
<rect x="13.8" y="79.75" class="st1" width="11.04" height="3.12"/>
<line class="st1" x1="19.08" y1="64.87" x2="19.08" y2="69.79"/>
<line class="st1" x1="19.32" y1="87.55" x2="19.32" y2="81.31"/>
<polyline class="st1" points="43.68,28.03 37.44,28.03 19.2,28.03 19.2,64.87 "/>
<path class="st1" d="M19.2,87.55"/>
<polyline class="st1" points="107.6,114.43 19.32,114.43 19.32,87.55 "/>
<polyline class="st1" points="88.62,28.19 107.06,28.19 107.06,51.97 "/>
<polyline class="st1" points="180.86,29.23 152.7,29.23 152.7,51.49 "/>
<polyline class="st1" points="251.76,66.19 264.36,63.07 251.76,59.83 264.36,56.71 251.76,53.59 264.36,50.47 "/>
<polyline class="st1" points="264.36,50.47 258,48.91 258,29.23 "/>
<polyline class="st1" points="251.88,66.19 258,67.63 258,81.79 "/>
<polygon class="st3" points="257.76,89.95 253.08,80.59 262.44,80.59 "/>
<rect x="252.96" y="89.71" class="st0" width="9.84" height="1.56"/>
<polyline class="st1" points="262.68,86.95 269.04,91.27 263.76,91.39 267,93.55 "/>
<polyline class="st5" points="265.68,95.11 270.24,95.71 267.96,91.75 265.68,95.11 "/>
<polyline class="st1" points="268.2,88.15 274.68,92.59 269.28,92.59 272.52,94.87 "/>
<polyline class="st5" points="271.2,96.43 275.88,97.03 273.6,93.07 271.2,96.43 "/>
<line class="st1" x1="257.76" y1="89.95" x2="257.76" y2="117.07"/>
<polyline class="st1" points="249.89,123.67 253.01,117.07 262.97,117.07 260.09,123.67 "/>
<line class="st1" x1="257.81" y1="117.07" x2="255.05" y2="123.67"/>
<line class="st1" x1="258.48" y1="29.23" x2="189.72" y2="29.23"/>
<polyline class="st1" points="304.8,93.67 307.92,87.07 317.88,87.07 315,93.67 "/>
<line class="st1" x1="312.6" y1="87.07" x2="309.84" y2="93.67"/>
<path class="st1" d="M312.48,45.55"/>
<polyline class="st1" points="301.32,28.99 312.24,28.99 312.24,55.8 "/>
<line class="st1" x1="339.73" y1="28.99" x2="312.24" y2="28.99"/>
<path class="st1" d="M339.72,29.23"/>
<path class="st3" d="M222.96,29.65c0-1.23-0.99-2.22-2.22-2.22s-2.22,0.99-2.22,2.22s0.99,2.22,2.22,2.22S222.96,30.88,222.96,29.65
	z"/>
<circle class="st3" cx="258.06" cy="29.23" r="2.28"/>
<ellipse class="st0" cx="312.54" cy="28.51" rx="2.22" ry="2.28"/>
<ellipse class="st1" cx="312.54" cy="28.51" rx="2.22" ry="2.28"/>
<circle class="st0" cx="301.56" cy="28.87" r="2.28"/>
<circle class="st1" cx="301.56" cy="28.87" r="2.28"/>
<g>
	<text transform="matrix(1 0 0 1 36.7201 79.0298)" class="st0 st6 st7">1</text>
</g>
<g>
	<text transform="matrix(1 0 0 1 49.8002 13.9899)" class="st0 st6 st7">2</text>
</g>
<g>
	<text transform="matrix(1 0 0 1 182.5199 15.6695)" class="st0 st6 st7">5</text>
</g>
<g>
	<text transform="matrix(1 0 0 1 126.9599 43.8697)" class="st0 st6 st7">4</text>
</g>
<g>
	<text transform="matrix(1 0 0 1 78.601 14.1099)" class="st0 st6 st7">3</text>
</g>
<g>
	<text transform="matrix(1 0 0 1 197.6401 85.3897)" class="st0 st6 st7">6</text>
</g>
<g>
	<text transform="matrix(1 0 0 1 241.56 62.3497)" class="st0 st6 st7">7</text>
</g>
<g>
	<text transform="matrix(1 0 0 1 240.9604 90.9097)" class="st0 st6 st7">8</text>
</g>
<g>
	<text transform="matrix(1 0 0 1 284.2797 15.3096)" class="st0 st6 st7">9</text>
</g>
<g>
	<text transform="matrix(1 0 0 1 294.3598 65.5899)" class="st0 st6 st7">1</text>
	<text transform="matrix(1 0 0 1 299.5298 65.5899)" class="st0 st6 st7">0</text>
</g>
<line class="st1" x1="220.8" y1="78.07" x2="220.74" y2="31.87"/>
<line class="st1" x1="220.8" y1="108.31" x2="220.8" y2="82.51"/>
<rect x="211.44" y="77.47" class="st0" width="18.84" height="1.2"/>
<polygon class="st0" points="312.36,56.11 317.04,65.59 307.56,65.59 "/>
<polygon class="st1" points="312.36,56.11 317.04,65.59 307.56,65.59 "/>
<rect x="307.32" y="54.91" class="st0" width="9.84" height="1.56"/>
<polygon class="st0" points="312.36,56.11 317.04,65.59 307.56,65.59 "/>
<polygon class="st1" points="312.36,56.11 317.04,65.59 307.56,65.59 "/>
<rect x="307.32" y="54.91" class="st0" width="9.84" height="1.56"/>
<rect x="307.32" y="55.27" class="st0" width="1.32" height="2.88"/>
<rect x="315.94" y="53.26" class="st0" width="1.22" height="3.21"/>
<polyline class="st1" points="293.88,35.47 290.76,22.99 287.64,35.47 284.52,22.99 281.28,35.47 278.16,22.99 "/>
<polyline class="st1" points="278.16,23.11 276.6,29.23 260.84,29.23 "/>
<polyline class="st1" points="287.63,39.35 287.63,48.31 301.56,48.31 "/>
<polyline class="st5" points="289.67,39.71 287.63,35.51 285.59,39.71 289.67,39.71 "/>
<rect x="13.8" y="79.75" class="st0" width="11.04" height="3.12"/>
<rect x="13.8" y="79.75" class="st1" width="11.04" height="3.12"/>
<rect x="13.8" y="79.75" class="st0" width="11.04" height="3.12"/>
<rect x="13.8" y="79.75" class="st1" width="11.04" height="3.12"/>
<ellipse class="st8" cx="342.54" cy="28.99" rx="2.82" ry="2.76"/>
<path class="st1" d="M339.72,29.23"/>
<ellipse class="st0" cx="312.54" cy="28.51" rx="2.22" ry="2.28"/>
<ellipse class="st1" cx="312.54" cy="28.51" rx="2.22" ry="2.28"/>
<line class="st1" x1="301.56" y1="48.31" x2="301.56" y2="29.23"/>
<path class="st1" d="M288.24,47.71"/>
<circle class="st0" cx="301.56" cy="28.87" r="2.28"/>
<circle class="st1" cx="301.56" cy="28.87" r="2.28"/>
<g>
	<text transform="matrix(1 0 0 1 126.9599 43.8697)" class="st0 st6 st7">4</text>
</g>
<g>
	<text transform="matrix(1 0 0 1 284.2797 15.3096)" class="st0 st6 st7">9</text>
</g>
<g>
	<text transform="matrix(1 0 0 1 294.3598 65.5899)" class="st0 st6 st7">1</text>
	<text transform="matrix(1 0 0 1 299.5298 65.5899)" class="st0 st6 st7">0</text>
</g>
<g>
	<text transform="matrix(1 0 0 1 181.4399 151.7496)" class="st0 st6 st9">Fi</text>
	<text transform="matrix(1 0 0 1 191.4399 151.7496)" class="st0 st6 st9">g</text>
	<text transform="matrix(1 0 0 1 197.9999 151.7496)" class="st0 st6 st9">ur</text>
	<text transform="matrix(1 0 0 1 208.6699 151.7496)" class="st0 st6 st9">e</text>
	<text transform="matrix(1 0 0 1 215.3899 151.7496)" class="st0 st6 st9"> </text>
	<text transform="matrix(1 0 0 1 218.7299 151.7496)" class="st0 st6 st9">T</text>
	<text transform="matrix(1 0 0 1 226.1899 151.7496)" class="st0 st6 st9">2</text>
</g>
<g>
	<line class="st10" x1="149.4" y1="51.49" x2="152.7" y2="51.49"/>
	<path class="st1" d="M149.4,63.61c-3.35,0-6.06-2.71-6.06-6.06s2.71-6.06,6.06-6.06"/>
	<line class="st10" x1="149.4" y1="63.61" x2="152.7" y2="63.61"/>
	<path class="st1" d="M149.94,75.73c-3.35,0-6.06-2.71-6.06-6.06s2.71-6.06,6.06-6.06"/>
	<line class="st10" x1="149.94" y1="75.73" x2="153.24" y2="75.73"/>
	<path class="st1" d="M149.94,87.85c-3.35,0-6.06-2.71-6.06-6.06s2.71-6.06,6.06-6.06"/>
	<line class="st10" x1="149.94" y1="87.85" x2="153.24" y2="87.85"/>
	<path class="st1" d="M149.94,99.97c-3.35,0-6.06-2.71-6.06-6.06s2.71-6.06,6.06-6.06"/>
	<line class="st10" x1="149.94" y1="99.97" x2="152.98" y2="99.97"/>
</g>
<g>
	<line class="st10" x1="110.9" y1="100.45" x2="107.6" y2="100.45"/>
	<path class="st1" d="M110.9,88.33c3.35,0,6.06,2.71,6.06,6.06s-2.71,6.06-6.06,6.06"/>
	<line class="st10" x1="110.9" y1="88.33" x2="107.6" y2="88.33"/>
	<path class="st1" d="M110.36,76.21c3.35,0,6.06,2.71,6.06,6.06s-2.71,6.06-6.06,6.06"/>
	<line class="st10" x1="110.36" y1="76.21" x2="107.06" y2="76.21"/>
	<path class="st1" d="M110.36,64.09c3.35,0,6.06,2.71,6.06,6.06s-2.71,6.06-6.06,6.06"/>
	<line class="st10" x1="110.36" y1="64.09" x2="107.06" y2="64.09"/>
	<path class="st1" d="M110.36,51.97c3.35,0,6.06,2.71,6.06,6.06s-2.71,6.06-6.06,6.06"/>
	<line class="st10" x1="110.36" y1="51.97" x2="107.06" y2="51.97"/>
</g>
<path class="st11" d="M229.86,85.87c0-1.99-4.08-3.61-9.12-3.61s-9.12,1.61-9.12,3.61"/>
</svg>
