<svg xmlns="http://www.w3.org/2000/svg" xml:space="preserve" id="Layer_1" x="0" y="0" baseProfile="basic" version="1.1" viewBox="0 0 356.4 160.4" width="356.4" height="160.4"><style>.st0{fill:#010101}.st1,.st2{fill:none;stroke:#010101;stroke-width:.359;stroke-linecap:round;stroke-linejoin:round;stroke-miterlimit:10}.st2{stroke-width:.839}.st3,.st5{fill:#010101}.st3{stroke:#010101;stroke-width:.359;stroke-linecap:round;stroke-linejoin:round;stroke-miterlimit:10}.st5{fill-rule:evenodd;clip-rule:evenodd}.st7{fill:none;stroke:#010101;stroke-width:.359;stroke-miterlimit:10}</style><path d="m313.9 56.1 4.7 9.5h-9.5z" class="st0"/><path d="m313.9 56.1 4.7 9.5h-9.5z" class="st1"/><path d="M308.9 54.9h9.8v1.6h-9.8z" class="st0"/><path d="M314 87.1V64.4m-18.6-28.9 1.3-6.5h6.3m-193.9 71.4v14m27.1-61.1v44.8M127 53.3v44.8" class="st1"/><path d="M45.2 25h16.3v5.8H45.2z" class="st2"/><path d="M48.1 25v5.7m10.4-5.4V31m3.2-3H68" class="st1"/><path d="m190.3 29.4-9.4 4.6v-9.3z" class="st3"/><path d="M190.1 24.4h1.6v9.7h-1.6z" class="st0"/><path d="m154.5 100 .3 19m-7.8 6.8 3.1-6.6h10l-2.9 6.6m-2.4-6.6-2.8 6.6" class="st1"/><path d="M71.2 25.4c3.7-.1 3.7 5.7 0 5.6-3.7.1-3.7-5.7 0-5.6" class="st2"/><path d="m74 26.8.3 1.1 11.1-4.1-.5-1.1z" class="st0"/><path d="M87.3 25.4c3.7-.1 3.7 5.7 0 5.6-3.8.1-3.8-5.7 0-5.6" class="st2"/><path d="m214.5 114.8 3.2-6.5h9.9l-2.9 6.5m-2.4-6.5-2.7 6.5" class="st1"/><path d="M20.7 64.9c14.8.1 14.8 22.6 0 22.7-14.9-.1-14.9-22.7 0-22.7" style="fill:none;stroke:#010101;stroke-width:1.199;stroke-linecap:round;stroke-linejoin:round;stroke-miterlimit:10"/><path d="M15.1 69.6h11v3.1h-11z" class="st3"/><path d="M15.3 79.8h11v3.1h-11z" class="st0"/><path d="M15.3 79.8h11v3.1h-11zm5.3-14.9v4.9m.3 17.8v-6.3M45.2 28H20.7v36.8m88.4 49.6H20.9V87.6m69.3-59.4h18.4V52m73.8-22.8h-28.2v22.3m99.1 14.7 12.6-3.1-12.6-3.3 12.6-3.1-12.6-3.1 12.6-3.1m0 0-6.4-1.6V29.2m-6.1 37 6.1 1.4v14.2" class="st1"/><path d="m259.3 89.9-4.7-9.3h9.4z" class="st3"/><path d="M254.5 89.7h9.8v1.6h-9.8z" class="st0"/><path d="m264.2 86.9 6.4 4.4-5.3.1 3.2 2.2" class="st1"/><path d="m267.2 95.1 4.6.6-2.3-3.9z" class="st5"/><path d="m269.7 88.2 6.5 4.4h-5.4l3.3 2.3" class="st1"/><path d="m272.7 96.4 4.7.6-2.3-3.9z" class="st5"/><path d="M259.3 89.9v27.2m-7.9 6.6 3.1-6.6h10l-2.9 6.6m-2.3-6.6-2.7 6.6m3.4-94.5h-68.7m115 64.5 3.2-6.6h9.9l-2.9 6.6m-2.4-6.6-2.7 6.6M302.9 29h10.9v26.8M341.3 29h-27.5" class="st1"/><path d="M224.5 29.6c0-2.9-4.5-2.9-4.4 0-.1 2.9 4.4 2.9 4.4 0m35.1-2.7c3 0 3 4.6 0 4.6-3 .1-3-4.6 0-4.6" class="st3"/><path d="M314.1 26.2c2.9 0 2.9 4.6 0 4.6s-2.9-4.6 0-4.6" class="st0"/><path d="M314.1 26.2c2.9 0 2.9 4.6 0 4.6s-2.9-4.6 0-4.6" class="st1"/><path d="M303.1 26.6c3 0 3 4.6 0 4.6s-3-4.7 0-4.6" class="st0"/><path d="M303.1 26.6c3 0 3 4.6 0 4.6s-3-4.7 0-4.6" class="st1"/><path d="M41.7 79h-.8v-5.2c-.2.2-.5.4-.8.6s-.6.3-.9.4V74c.5-.2.9-.5 1.2-.8s.6-.6.7-.9h.5V79zM56 13.2v.8h-4.4c0-.2 0-.4.1-.6.1-.3.3-.6.5-.9s.6-.6 1.1-1c.7-.6 1.2-1.1 1.5-1.4s.4-.7.4-1-.1-.6-.3-.8-.5-.3-.9-.3-.7.1-1 .4c-.2.2-.4.6-.4 1l-.8-.1c.1-.6.3-1.1.7-1.4s.9-.5 1.5-.5 1.2.2 1.5.5.5.7.5 1.2c0 .3-.1.5-.2.8s-.3.5-.5.8c-.3.3-.7.7-1.3 1.2-.5.4-.8.7-1 .8-.1.1-.3.3-.3.4H56zm128.4.7.9-.1c.1.4.2.7.4.9s.5.3.8.3c.4 0 .7-.1 1-.4s.4-.7.4-1.2-.1-.8-.4-1.1-.6-.4-1-.4c-.3 0-.5.1-.7.2s-.4.3-.5.5l-.8-.1.6-3.4h3.3v.8h-2.7l-.4 1.8c.4-.3.8-.4 1.3-.4q.9 0 1.5.6c.6.6.6.9.6 1.6 0 .6-.2 1.1-.5 1.6-.4.5-1 .8-1.8.8-.6 0-1.1-.2-1.5-.5-.2-.5-.4-.9-.5-1.5m-52.9 30v-1.6h-2.9v-.8l3.1-4.3h.7v4.3h.9v.8h-.9v1.6zm0-2.4v-3l-2.1 3zm-51-29.2.8-.1c.1.5.3.8.5 1s.5.3.8.3c.4 0 .7-.1 1-.4s.4-.6.4-1-.1-.7-.4-.9c-.2-.2-.6-.4-.9-.4-.2 0-.3 0-.6.1l.1-.7h.1q.6 0 .9-.3c.3-.2.4-.5.4-.8s-.1-.6-.3-.7c-.2-.2-.5-.3-.8-.3s-.6.1-.8.3-.3.5-.4.9l-.8-.1c.1-.6.3-1 .7-1.3s.8-.5 1.3-.5c.4 0 .7.1 1 .2.3.2.5.4.7.6.2.3.2.6.2.9s-.1.6-.2.8c-.2.2-.4.4-.7.6q.6.15.9.6c.3.45.3.6.3 1.1q0 .9-.6 1.5c-.4.4-1 .6-1.6.6s-1.1-.2-1.5-.5c-.2-.4-.4-.9-.5-1.5m123.3 68-.8.1c-.1-.3-.2-.6-.3-.7-.2-.2-.5-.4-.8-.4s-.5.1-.7.2c-.3.2-.5.5-.6.8s-.2.9-.2 1.5c.2-.3.4-.5.7-.7.3-.1.6-.2.9-.2.5 0 1 .2 1.4.6s.6.9.6 1.6q0 .6-.3 1.2c-.2.4-.4.6-.7.8s-.7.3-1.1.3c-.7 0-1.2-.3-1.7-.8-.4-.5-.6-1.3-.6-2.5 0-1.3.2-2.2.7-2.8.4-.5 1-.8 1.7-.8.5 0 1 .1 1.3.4.3.5.5.9.5 1.4m-3.3 2.9c0 .3.1.6.2.8s.3.5.5.6.4.2.7.2.6-.1.9-.4c.2-.3.4-.7.4-1.1 0-.5-.1-.8-.4-1.1-.2-.3-.6-.4-.9-.4-.4 0-.7.1-.9.4s-.5.6-.5 1m43-26.7v-.8h4.3v.6c-.4.5-.8 1.1-1.3 1.8s-.7 1.5-1 2.3q-.3.9-.3 1.8h-.8c0-.5.1-1.2.3-1.9s.5-1.5.9-2.2.8-1.3 1.2-1.8h-3.3zm.6 30.8c-.3-.1-.6-.3-.8-.5s-.2-.5-.2-.8c0-.5.2-.9.5-1.2s.8-.5 1.4-.5 1.1.2 1.4.5c.4.3.5.8.5 1.2 0 .3-.1.6-.2.8s-.4.4-.7.5q.6.15.9.6c.3.45.3.7.3 1.1 0 .6-.2 1.1-.6 1.4-.4.4-.9.6-1.6.6s-1.2-.2-1.6-.6q-.6-.6-.6-1.5c0-.4.1-.8.3-1.1.3-.2.6-.4 1-.5m-.4 1.7c0 .2.1.5.2.7s.3.4.5.5.5.2.7.2c.4 0 .7-.1 1-.4s.4-.6.4-1-.1-.7-.4-1-.6-.4-1-.4-.7.1-1 .4-.4.6-.4 1m.3-3.1c0 .3.1.6.3.8s.5.3.8.3.6-.1.8-.3.3-.4.3-.7-.1-.6-.3-.8-.5-.3-.8-.3-.6.1-.8.3-.3.4-.3.7m42.3-72.1.8-.1c.1.4.2.6.4.8s.4.3.7.3.5-.1.7-.2.3-.3.5-.5c.1-.2.2-.5.3-.8s.1-.7.1-1v-.2c-.2.3-.4.5-.7.6-.3.2-.6.2-.9.2-.6 0-1-.2-1.4-.6s-.6-.9-.6-1.6.2-1.2.6-1.6q.6-.6 1.5-.6c.4 0 .8.1 1.2.4s.6.6.8 1 .3 1.1.3 1.9c0 .9-.1 1.5-.3 2s-.5.9-.8 1.2c-.4.3-.8.4-1.3.4s-1-.1-1.3-.4-.5-.7-.6-1.2m3.4-3c0-.5-.1-.8-.4-1.1s-.6-.4-.9-.4c-.4 0-.7.1-1 .4s-.4.7-.4 1.2c0 .4.1.8.4 1s.6.4 1 .4.7-.1.9-.4c.3-.3.4-.6.4-1.1m9.7 54.8h-.8v-5.2c-.2.2-.5.4-.8.6s-.6.3-.9.4v-.8c.5-.2.9-.5 1.2-.8s.6-.6.7-.9h.5v6.7zm2.1-3.3c0-.8.1-1.4.2-1.9.2-.5.4-.9.7-1.1.3-.3.7-.4 1.2-.4.4 0 .7.1.9.2.3.1.5.4.7.6s.3.6.4 1 .2.9.2 1.6c0 .8-.1 1.4-.2 1.9-.2.5-.4.9-.7 1.1s-.7.4-1.2.4c-.6 0-1.2-.2-1.5-.7-.5-.5-.7-1.5-.7-2.7m.8 0c0 1.1.1 1.8.4 2.2s.6.5 1 .5.7-.2 1-.5c.3-.4.4-1.1.4-2.2s-.1-1.8-.4-2.2-.6-.5-1-.5-.7.2-.9.5c-.4.3-.5 1.1-.5 2.2" class="st0"/><path d="M222.3 78.1V31.9m0 76.4V82.5" class="st1"/><path d="M213 77.5h18.8v1.2H213zm100.9-21.4 4.7 9.5h-9.5z" class="st0"/><path d="m313.9 56.1 4.7 9.5h-9.5z" class="st1"/><path d="M308.9 54.9h9.8v1.6h-9.8z" class="st0"/><path d="m313.9 56.1 4.7 9.5h-9.5z" class="st0"/><path d="m313.9 56.1 4.7 9.5h-9.5z" class="st1"/><path d="M308.9 54.9h9.8v1.6h-9.8z" class="st0"/><path d="M308.9 55.3h1.3v2.9h-1.3zm8.6-2h1.2v3.2h-1.2z" class="st0"/><path d="M295.4 35.5 292.3 23l-3.1 12.5-3.1-12.5-3.3 12.5-3.1-12.5m0 .1-1.6 6.1h-15.7m26.8 10.1v9h13.9" class="st1"/><path d="m291.2 39.7-2-4.2-2.1 4.2z" class="st5"/><path d="M15.3 79.8h11v3.1h-11z" class="st0"/><path d="M15.3 79.8h11v3.1h-11z" class="st1"/><path d="M15.3 79.8h11v3.1h-11z" class="st0"/><path d="M15.3 79.8h11v3.1h-11z" class="st1"/><path d="M344.1 26.2c3.7-.1 3.7 5.6 0 5.5-3.7.1-3.7-5.5 0-5.5" style="fill:none;stroke:#010101;stroke-width:1.079;stroke-linecap:round;stroke-linejoin:round;stroke-miterlimit:10"/><path d="M314.1 26.2c2.9 0 2.9 4.6 0 4.6s-2.9-4.6 0-4.6" class="st0"/><path d="M314.1 26.2c2.9 0 2.9 4.6 0 4.6s-2.9-4.6 0-4.6m-11 22.1V29.2" class="st1"/><path d="M303.1 26.6c3 0 3 4.6 0 4.6s-3-4.7 0-4.6" class="st0"/><path d="M303.1 26.6c3 0 3 4.6 0 4.6s-3-4.7 0-4.6" class="st1"/><path d="M131.5 43.9v-1.6h-2.9v-.8l3.1-4.3h.7v4.3h.9v.8h-.9v1.6zm0-2.4v-3l-2.1 3zm154.8-27.7.8-.1c.1.4.2.6.4.8s.4.3.7.3.5-.1.7-.2.3-.3.5-.5c.1-.2.2-.5.3-.8s.1-.7.1-1v-.2c-.2.3-.4.5-.7.6-.3.2-.6.2-.9.2-.6 0-1-.2-1.4-.6s-.6-.9-.6-1.6.2-1.2.6-1.6q.6-.6 1.5-.6c.4 0 .8.1 1.2.4s.6.6.8 1 .3 1.1.3 1.9c0 .9-.1 1.5-.3 2s-.5.9-.8 1.2c-.4.3-.8.4-1.3.4s-1-.1-1.3-.4-.5-.7-.6-1.2m3.4-3c0-.5-.1-.8-.4-1.1s-.6-.4-.9-.4c-.4 0-.7.1-1 .4s-.4.7-.4 1.2c0 .4.1.8.4 1s.6.4 1 .4.7-.1.9-.4c.3-.3.4-.6.4-1.1m9.7 54.8h-.8v-5.2c-.2.2-.5.4-.8.6s-.6.3-.9.4v-.8c.5-.2.9-.5 1.2-.8s.6-.6.7-.9h.5v6.7zm2.1-3.3c0-.8.1-1.4.2-1.9.2-.5.4-.9.7-1.1.3-.3.7-.4 1.2-.4.4 0 .7.1.9.2.3.1.5.4.7.6s.3.6.4 1 .2.9.2 1.6c0 .8-.1 1.4-.2 1.9-.2.5-.4.9-.7 1.1s-.7.4-1.2.4c-.6 0-1.2-.2-1.5-.7-.5-.5-.7-1.5-.7-2.7m.8 0c0 1.1.1 1.8.4 2.2s.6.5 1 .5.7-.2 1-.5c.3-.4.4-1.1.4-2.2s-.1-1.8-.4-2.2-.6-.5-1-.5-.7.2-.9.5c-.4.3-.5 1.1-.5 2.2M184 151.8v-8.6h5.8v1h-4.7v2.7h4v1h-4v3.9zm7.1-7.4v-1.2h1.1v1.2zm0 7.4v-6.2h1.1v6.2zm2.5.5 1 .2c0 .3.2.5.4.7.3.2.6.3 1.1.3s.9-.1 1.1-.3.4-.5.5-.8c.1-.2.1-.7.1-1.4-.5.5-1 .8-1.7.8-.9 0-1.5-.3-2-.9s-.7-1.4-.7-2.2c0-.6.1-1.1.3-1.6s.5-.9.9-1.2.9-.4 1.4-.4q1.05 0 1.8.9v-.8h1v5.4q0 1.5-.3 2.1c-.3.6-.5.7-.9 1s-1 .4-1.6.4c-.7 0-1.3-.2-1.8-.5s-.6-1.1-.6-1.7m.8-3.8c0 .8.2 1.4.5 1.8s.7.6 1.2.6q.75 0 1.2-.6c.45-.6.5-1 .5-1.8s-.2-1.3-.5-1.7-.7-.6-1.2-.6q-.75 0-1.2.6c-.45.6-.5 1-.5 1.7m10.1 3.3v-.9c-.5.7-1.1 1.1-2 1.1-.4 0-.7-.1-1-.2s-.6-.3-.7-.5-.3-.5-.3-.8c0-.2-.1-.5-.1-1v-3.9h1.1v3.5c0 .6 0 .9.1 1.1.1.3.2.5.4.7s.5.2.8.2.6-.1.9-.2.5-.4.6-.7.2-.7.2-1.2v-3.3h1.1v6.2h-1.1zm2.6 0v-6.2h.9v.9c.2-.4.5-.7.7-.9s.4-.2.7-.2c.4 0 .7.1 1.1.3l-.4 1c-.3-.2-.5-.2-.8-.2-.2 0-.4.1-.6.2s-.3.3-.4.6c-.1.4-.2.8-.2 1.2v3.3zm8.3-2.1 1.1.1c-.2.6-.5 1.1-1 1.5s-1.1.5-1.8.5c-.9 0-1.6-.3-2.2-.8s-.8-1.3-.8-2.4c0-1 .3-1.9.8-2.4s1.2-.9 2.1-.9c.8 0 1.5.3 2 .8s.8 1.4.8 2.4v.3h-4.6c0 .7.2 1.2.6 1.6s.8.5 1.3.5c.4 0 .7-.1 1-.3s.5-.4.7-.9m-3.5-1.7h3.5c0-.5-.2-.9-.4-1.2-.3-.4-.8-.6-1.3-.6s-.9.2-1.2.5-.6.8-.6 1.3m11.3 3.8v-7.6h-2.8v-1h6.8v1h-2.8v7.6zm10.3-1.1v1h-5.7c0-.3 0-.5.1-.7.1-.4.4-.8.7-1.1s.8-.8 1.4-1.3c.9-.8 1.6-1.4 1.9-1.8s.5-.9.5-1.3-.1-.8-.4-1.1-.7-.4-1.2-.4-.9.2-1.2.5-.5.7-.5 1.3l-1.1-.1c.1-.8.4-1.4.8-1.8s1.1-.6 2-.6c.8 0 1.5.2 2 .7s.7 1 .7 1.7c0 .3-.1.7-.2 1s-.4.7-.7 1-.9.9-1.6 1.5c-.6.5-1 .9-1.2 1.1s-.3.4-.4.6h4.1z" class="st0"/><path d="M150.9 51.5h3.3" class="st7"/><path d="M150.9 63.6c-7.9.1-7.9-12.2 0-12.1" class="st1"/><path d="M150.9 63.6h3.3" class="st7"/><path d="M151.5 75.7c-7.9.1-7.9-12.2 0-12.1" class="st1"/><path d="M151.5 75.7h3.3" class="st7"/><path d="M151.5 87.8c-7.9.1-7.9-12.2 0-12.1" class="st1"/><path d="M151.5 87.8h3.3" class="st7"/><path d="M151.5 100c-7.9.1-7.9-12.2 0-12.1" class="st1"/><path d="M151.5 100h3m-42.1.4h-3.3" class="st7"/><path d="M112.4 88.3c7.9-.1 7.9 12.2 0 12.1" class="st1"/><path d="M112.4 88.3h-3.3" class="st7"/><path d="M111.9 76.2c7.9-.1 7.9 12.2 0 12.1" class="st1"/><path d="M111.9 76.2h-3.3" class="st7"/><path d="M111.9 64.1c7.9-.1 7.9 12.2 0 12.1" class="st1"/><path d="M111.9 64.1h-3.3" class="st7"/><path d="M111.9 52c7.9-.1 7.9 12.2 0 12.1" class="st1"/><path d="M111.9 52h-3.3" class="st7"/><path d="M231.4 85.9c.3-4.7-18.5-4.7-18.2 0" style="fill:none;stroke:#000;stroke-width:1.25;stroke-miterlimit:10"/></svg>