<?xml version="1.0" encoding="UTF-8"?>
<svg id="svg1" xmlns="http://www.w3.org/2000/svg" xmlns:svg="http://www.w3.org/2000/svg" baseProfile="tiny" version="1.2" viewBox="0 0 314.34 81.96">
  <!-- Generator: Adobe Illustrator 29.1.0, SVG Export Plug-In . SVG Version: 2.1.0 Build 142)  -->
  <path id="path1" d="M29.31,36.35c-1.61,0-2.19.56-2.19,2.14v16.25H8.09v-16.25c0-1.58-.58-2.14-2.19-2.14h-3.66C.64,36.35,0,36.91,0,38.49v40.45C0,80.52.64,81.08,2.25,81.08h3.66c1.61,0,2.19-.56,2.19-2.14v-16.83h19.03v16.83c0,1.58.58,2.14,2.19,2.14h3.66c1.61,0,2.25-.56,2.25-2.14v-40.45c0-1.58-.64-2.14-2.25-2.14h-3.66Z" fill="#d60000"/>
  <path id="path3" d="M143.27,36.35c-1.73,0-2.19.25-2.95,1.69l-13.37,23.39-13.37-23.45c-.7-1.31-1.28-1.63-3.08-1.63h-2.83c-1.61,0-2.25.56-2.25,2.14v40.45c0,1.58.64,2.14,2.25,2.14h3.08c1.61,0,2.19-.56,2.19-2.14v-19.16c0-4.09-.45-8.33-1.34-12.61h.45c1.34,4.36,2.95,8.2,4.94,11.47l6.44,10.97c.7,1.27,1.16,1.52,2.5,1.52h2.06c1.03,0,1.86-.5,2.5-1.52l6.3-10.91c2.25-4.03,4.06-7.87,5.28-11.53h.45c-1.03,4.61-1.55,8.77-1.55,12.55v19.22c0,1.58.58,2.14,2.19,2.14h3.28c1.59,0,2.17-.56,2.17-2.14v-40.45c0-1.58-.58-2.14-2.17-2.14h-3.16Z" fill="#d60000"/>
  <path id="path5" d="M159.08,36.35c-.94,0-1.25.31-1.25,1.25v42.22c0,.95.31,1.27,1.25,1.27h18.47c8,0,13.05-4.41,13.05-12.03,0-6.05-2.53-9.7-7.5-11.03v-.12c3.97-1.7,5.92-5.11,5.92-10.08,0-7.37-4.41-11.47-12.16-11.47h-17.78ZM184.35,48.38c0,5.23-2.83,7.87-8.06,7.87h-13.92v-15.62h13.92c5.36,0,8.06,2.58,8.06,7.75ZM183.66,74.72c-1.45,1.37-3.59,2.08-6.3,2.08h-15v-16.45h15c2.7,0,4.84.7,6.3,2.08,1.45,1.45,2.14,3.47,2.14,6.17s-.69,4.73-2.14,6.12ZM197.02,66.15c0,9.89,6.17,15.81,17.33,15.81s17.27-5.92,17.27-15.81v-14.87c0-9.89-6.17-15.81-17.27-15.81s-17.33,5.92-17.33,15.81v14.87ZM227.09,66.15c0,7.37-4.48,11.59-12.73,11.59s-12.8-4.22-12.8-11.59v-14.87c0-7.36,4.55-11.59,12.8-11.59s12.73,4.23,12.73,11.59v14.87ZM238.81,66.15c0,9.89,6.17,15.81,17.33,15.81s17.27-5.92,17.27-15.81v-14.87c0-9.89-6.17-15.81-17.27-15.81s-17.33,5.92-17.33,15.81v14.87ZM268.87,66.15c0,7.37-4.48,11.59-12.73,11.59s-12.8-4.22-12.8-11.59v-14.87c0-7.36,4.55-11.59,12.8-11.59s12.73,4.23,12.73,11.59v14.87ZM306.11,64.26c-1.95-3.84-4.47-6.17-7.62-7.06l14.94-19.66c.5-.56.31-1.19-.62-1.19h-2.27c-1.14,0-1.95.37-2.53,1.06l-14.11,18.91h-7.44v-18.72c0-.94-.25-1.25-1.2-1.25h-2.08c-.94,0-1.25.31-1.25,1.25v42.22c0,.95.31,1.27,1.25,1.27h2.08c.95,0,1.2-.31,1.2-1.27v-19.34h6.42c4.86,0,7,1.45,9.02,5.48l7,13.98c.5.95.94,1.14,2.52,1.14h2.02c.95,0,1.14-.44.69-1.27l-8-15.56Z" fill="#d60000"/>
  <path id="path7" d="M59.26,59.61l11.21-25.31,11.2,25.31h-22.41ZM97.41,75.5l-23.81-53.8c2.33-1.15,3.94-3.55,3.94-6.33,0-3.9-3.16-7.05-7.06-7.05s-7.06,3.15-7.06,7.05c0,2.78,1.61,5.17,3.94,6.33l-23.84,53.8c-.89,2.01.02,4.36,2.03,5.25,2.01.89,4.36-.02,5.25-2.03l4.95-11.15h29.45l4.94,11.15c.66,1.48,2.11,2.37,3.64,2.37.54,0,1.09-.11,1.61-.34,2.01-.89,2.92-3.24,2.03-5.25" fill="#d60000"/>
  <path id="path9" d="M42.02.59c.32-.55,1.09-.76,1.65-.44.58.34.77,1.08.44,1.65-2.3,3.96-3.52,8.48-3.52,13.08,0,4.28,1.06,8.53,3.07,12.28.15.29.18.61.09.92-.1.31-.3.56-.59.71-.17.09-.37.14-.56.14-.45,0-.85-.25-1.06-.64-2.19-4.1-3.35-8.74-3.35-13.42,0-5.02,1.33-9.97,3.84-14.29" fill="#d60000"/>
  <path id="path11" d="M54.36,24.32c.19,0,.38-.05.55-.14.56-.31.78-1.01.47-1.58-1.26-2.33-1.92-4.96-1.92-7.62,0-3.04.85-6,2.48-8.58.34-.55.18-1.27-.37-1.61-.54-.34-1.26-.18-1.61.37-1.86,2.95-2.84,6.34-2.84,9.82,0,3.04.76,6.06,2.19,8.73.21.39.61.61,1.03.61" fill="#d60000"/>
  <path id="path13" d="M98.17.59c-.32-.55-1.09-.76-1.65-.44-.58.34-.77,1.08-.44,1.65,2.3,3.96,3.52,8.48,3.52,13.08,0,4.28-1.06,8.53-3.07,12.28-.15.29-.18.61-.09.92.1.31.3.56.59.71.17.09.37.14.56.14.45,0,.85-.25,1.06-.64,2.19-4.1,3.35-8.74,3.35-13.42,0-5.02-1.33-9.97-3.84-14.29" fill="#d60000"/>
  <path id="path15" d="M85.83,24.32c-.19,0-.38-.05-.55-.14-.56-.31-.78-1.01-.47-1.58,1.26-2.33,1.92-4.96,1.92-7.62,0-3.04-.86-6-2.48-8.58-.34-.55-.18-1.27.37-1.61.54-.34,1.26-.18,1.6.37,1.86,2.95,2.84,6.34,2.84,9.82,0,3.04-.76,6.06-2.19,8.73-.21.39-.61.61-1.03.61" fill="#d60000"/>
</svg>