<?xml version="1.0" encoding="UTF-8"?>
<svg id="Layer_1" xmlns="http://www.w3.org/2000/svg" baseProfile="tiny" version="1.2" viewBox="0 0 200 48.66">
  <!-- Generator: Adobe Illustrator 29.1.0, SVG Export Plug-In . SVG Version: 2.1.0 Build 142)  -->
  <g id="SignalStuff">
    <g id="Signal">
      <path id="Path" d="M18.62,0l1.95,4.67.59-1.4,4.47.05c.25-.67.89-1.15,1.65-1.15.97,0,1.75.78,1.75,1.75s-.78,1.75-1.75,1.75c-.77,0-1.42-.5-1.66-1.19l-3.68-.04-1.36,3.26-1.95-4.67-1.95,4.67-1.95-4.67-1.95,4.67-1.95-4.67-.58,1.4-4.46.04c-.17.5-.56.9-1.05,1.08l.03,2.5,3.61,1.2-4.68,1.56,4.68,1.56-4.67,1.55,4.67,1.56-4.67,1.55,1.08.36-.04,3.34c.48.18.87.56,1.04,1.04l3.69-.04,1.37-3.28,1.95,4.67,1.95-4.67,1.95,4.67,1.95-4.67,1.95,4.67.59-1.41,4.47.05c.25-.67.89-1.15,1.65-1.15.97,0,1.75.78,1.75,1.75,0,.75-.48,1.4-1.15,1.64l.03,2.5,3.61,1.2-4.68,1.56,4.68,1.56-4.67,1.55,4.67,1.56-4.67,1.55,1.08.36-.04,3.34c.67.25,1.15.89,1.15,1.64,0,.97-.78,1.75-1.75,1.75-.77,0-1.42-.5-1.66-1.18l-3.68-.04-1.36,3.27-1.95-4.67-1.95,4.67-1.95-4.67-1.95,4.67-1.95-4.67-.58,1.4-4.46.05c-.24.69-.89,1.18-1.66,1.18-.97,0-1.75-.78-1.75-1.75s.78-1.75,1.75-1.75c.76,0,1.4.48,1.65,1.15l3.69-.04,1.37-3.28,1.95,4.67,1.95-4.67,1.95,4.67,1.95-4.67,1.95,4.67.59-1.41,4.47.05c.18-.5.58-.89,1.08-1.06l.03-2.49-3.6-1.2,4.67-1.55-4.68-1.56,4.67-1.55-4.67-1.55,4.67-1.56-1.06-.35-.04-3.33c-.51-.17-.92-.58-1.09-1.09l-3.68-.04-1.36,3.27-1.95-4.67-1.95,4.67-1.95-4.67-1.95,4.67-1.95-4.67-.58,1.4-4.46.05c-.24.69-.89,1.18-1.66,1.18-.97,0-1.75-.78-1.75-1.75,0-.77.5-1.42,1.19-1.66l.03-2.49-3.65-1.19,4.67-1.55L0,13.92l4.67-1.55-4.66-1.56,4.67-1.56-1.06-.35-.04-3.33c-.69-.23-1.19-.89-1.19-1.66,0-.97.78-1.75,1.75-1.75.76,0,1.4.48,1.65,1.15l3.69-.04L10.84,0l1.95,4.67L14.74-.01l1.95,4.67L18.64-.01h-.02Z" fill="#5aba47" fill-rule="evenodd"/>
      <path id="Shape" d="M37.43,15.31v.24c0,1.03-.33,1.35-1.36,1.35h-.24c-1.03,0-1.36-.33-1.36-1.35v-.24c0-1.03.33-1.35,1.36-1.35h.22c1.05.07,1.38.33,1.38,1.35ZM37.21,21.34v17.47c0,.5-.2.66-.68.66h-1.16c-.48,0-.66-.15-.66-.66v-17.47c0-.5.18-.66.66-.66h1.16c.48,0,.68.15.68.66Z" fill="#5aba47"/>
      <path id="Shape1" d="M49.39,20.14c2.12-.03,4.23.34,6.21,1.09,1.18.52,1.4.81,1.4,2.01v17.47c0,4.76-2.19,7.91-7.77,7.91-3.02.26-5.9-1.33-7.28-4.02-.16-.17-.23-.4-.18-.63s.22-.41.44-.48l.81-.39c.16-.14.39-.2.6-.15s.38.2.46.41c.92,1.93,2.95,3.1,5.09,2.93,3.77,0,5.35-2.18,5.35-5.57v-2.18c-1.85.7-3.81,1.07-5.79,1.09-5.05,0-7.28-2.66-7.28-7.14v-4.83c0-4.89,2.52-7.51,7.94-7.51h0ZM49.52,22.33c-3.82,0-5.57,1.75-5.57,5.26v4.78c-.2,1.38.27,2.77,1.27,3.74s2.4,1.42,3.78,1.2c1.88,0,3.75-.37,5.51-1.05v-12.21c0-.57,0-.68-.68-.94-1.38-.48-2.84-.71-4.3-.7v-.09h-.01Z" fill="#5aba47"/>
      <path id="Shape2" d="M69.95,20.14c5.07,0,7.33,2.66,7.33,7.19v11.53c0,.5-.2.66-.66.66h-1.14c-.53,0-.68-.15-.68-.66v-11.47c0-3.3-1.6-4.98-5.13-4.98-1.67-.02-3.32.26-4.89.81-.39.13-.62.52-.57.92v14.72c0,.5-.18.66-.66.66h-1.16c-.48,0-.68-.15-.68-.66v-15.46c0-1.14.31-1.53,1.4-2.01,2.17-.88,4.5-1.3,6.84-1.24h0Z" fill="#5aba47"/>
      <path id="Shape3" d="M88.92,20.14c5.86,0,7.37,3.3,7.37,7.25v9.59c0,1.29-.31,1.66-1.34,2.18-1.95.72-4.02,1.03-6.1.94-6.41,0-7.94-2.01-7.94-5.66,0-4.22,2.3-5.68,8.09-5.68,1.61.02,3.21.14,4.8.35v-1.77c0-2.86-.94-5-4.96-5-2.08-.19-4.08.82-5.16,2.6-.29.39-.44.5-.92.28l-.88-.28c-.48-.2-.61-.46-.37-.96,1.48-2.63,4.38-4.13,7.39-3.84h.02ZM88.75,30.73c-3.97,0-5.31,1.09-5.31,3.58s.92,3.67,5.24,3.67c1.49.04,2.97-.16,4.39-.59.57-.22.7-.37.7-1.07v-5.26c-1.67-.2-3.34-.31-5.02-.33h0Z" fill="#5aba47"/>
      <path id="Shape4" d="M102.76,39.52h-1.12c-.53,0-.66-.15-.66-.66V13.06c0-.5.13-.66.66-.66h1.14c.5,0,.66.15.66.66v25.79c-.02.5-.18.66-.68.66h0Z" fill="#5aba47"/>
    </g>
    <g id="Stuff">
      <path id="Path1" d="M126.46,0l1.95,4.67.59-1.4,4.47.05c.25-.67.89-1.15,1.65-1.15.97,0,1.75.78,1.75,1.75s-.78,1.75-1.75,1.75c-.77,0-1.42-.5-1.66-1.19l-3.68-.04-1.36,3.26-1.95-4.67-1.95,4.67-1.95-4.67-1.95,4.67-1.95-4.67-.58,1.4-4.46.04c-.17.5-.56.9-1.05,1.08l.03,2.5,3.61,1.2-4.68,1.56,4.68,1.56-4.67,1.55,4.67,1.56-4.67,1.55,1.08.36-.04,3.34c.48.18.87.56,1.04,1.04l3.69-.04,1.37-3.28,1.95,4.67,1.95-4.67,1.95,4.67,1.95-4.67,1.95,4.67.59-1.41,4.47.05c.25-.67.89-1.15,1.65-1.15.97,0,1.75.78,1.75,1.75,0,.75-.48,1.4-1.15,1.64l.03,2.5,3.61,1.2-4.68,1.56,4.68,1.56-4.67,1.55,4.67,1.56-4.67,1.55,1.08.36-.04,3.34c.67.25,1.15.89,1.15,1.64,0,.97-.78,1.75-1.75,1.75-.77,0-1.42-.5-1.66-1.18l-3.68-.04-1.36,3.27-1.95-4.67-1.95,4.67-1.95-4.67-1.95,4.67-1.95-4.67-.58,1.4-4.46.05c-.24.69-.89,1.18-1.66,1.18-.97,0-1.75-.78-1.75-1.75s.78-1.75,1.75-1.75c.76,0,1.4.48,1.65,1.15l3.69-.04,1.37-3.28,1.95,4.67,1.95-4.67,1.95,4.67,1.95-4.67,1.95,4.67.59-1.41,4.47.05c.18-.5.58-.89,1.08-1.06l.03-2.49-3.6-1.2,4.67-1.55-4.68-1.56,4.67-1.55-4.67-1.55,4.67-1.56-1.06-.35-.04-3.33c-.51-.17-.92-.58-1.09-1.09l-3.68-.04-1.36,3.27-1.95-4.67-1.95,4.67-1.95-4.67-1.95,4.67-1.95-4.67-.58,1.4-4.46.05c-.24.69-.89,1.18-1.66,1.18-.97,0-1.75-.78-1.75-1.75,0-.77.5-1.42,1.19-1.66l.03-2.49-3.6-1.2,4.67-1.55-4.68-1.56,4.67-1.55-4.67-1.55,4.67-1.56-1.06-.35-.04-3.33c-.69-.23-1.19-.89-1.19-1.66,0-.97.78-1.75,1.75-1.75.76,0,1.4.48,1.65,1.15l3.69-.04L118.72-.01l1.95,4.67L122.62-.01l1.95,4.67L126.52-.01h-.06Z" fill="#5aba47" fill-rule="evenodd"/>
      <path id="Shape5" d="M147.74,17.49v3.73h5.33c.48,0,.66.15.66.66v.96c0,.48-.18.66-.66.66h-5.33v9.52c0,4.37,1.27,5.2,5.24,5.2.53,0,.68.2.68.7v.98c0,.52-.15.68-.68.68-5.66.11-7.72-1.59-7.72-7.47v-9.61h-3.49c-.48,0-.66-.17-.66-.66v-.96c0-.5.18-.66.66-.66h3.49v-3.73c0-.5.2-.66.66-.66h1.14c.53,0,.68.15.68.66Z" fill="#5aba47"/>
      <path id="Shape6" d="M171.99,21.88v15.46c0,1.14-.31,1.53-1.4,2.01-2.19.87-4.53,1.29-6.89,1.22-5.02,0-7.28-2.64-7.28-7.14v-11.55c0-.5.15-.66.66-.66h1.16c.5,0,.66.15.66.66v11.45c-.22,1.4.25,2.82,1.27,3.81s2.46,1.43,3.86,1.17c1.63.05,3.26-.23,4.78-.81.46-.12.75-.56.68-1.03v-14.59c0-.5.18-.66.66-.66h1.16c.46,0,.68.15.68.66h0Z" fill="#5aba47"/>
      <path id="Shape7" d="M186.95,13.6v.96c0,.52-.15.7-.66.7-3.97,0-5.27,1.14-5.27,5.05v.92h5.33c.53,0,.66.15.66.66v.96c0,.48-.13.66-.66.66h-5.4v15.9c0,.5-.15.66-.66.66h-1.14c-.48,0-.66-.15-.66-.66v-15.9h-3.27c-.53,0-.68-.17-.68-.66v-.96c0-.5.15-.66.68-.66h3.27v-.92c0-5.22,2.19-7.27,7.44-7.36h.29c.57,0,.72.15.72.66h.01Z" fill="#5aba47"/>
      <path id="Shape8" d="M199.93,13.6v.96c0,.52-.15.7-.66.7-3.97,0-5.27,1.14-5.27,5.05v.92h5.33c.53,0,.66.15.66.66v.96c0,.48-.13.66-.66.66h-5.22v15.9c0,.5-.15.66-.66.66h-1.14c-.48,0-.66-.15-.66-.66v-15.9h-3.29c-.5,0-.66-.17-.66-.66v-.96c0-.5.15-.66.66-.66h3.29v-.92c0-5.22,2.19-7.27,7.41-7.36h.31c.39,0,.55.15.55.66h.01Z" fill="#5aba47"/>
    </g>
  </g>
</svg>