<?xml version="1.0" encoding="utf-8" standalone="no"?>
<!DOCTYPE svg PUBLIC "-//W3C//DTD SVG 1.1//EN"
  "http://www.w3.org/Graphics/SVG/1.1/DTD/svg11.dtd">
<svg xmlns:xlink="http://www.w3.org/1999/xlink" width="856" height="230" viewBox="0 0 856.470937 230.60875" xmlns="http://www.w3.org/2000/svg" version="1.1">
 <metadata>
  <rdf:RDF xmlns:dc="http://purl.org/dc/elements/1.1/" xmlns:cc="http://creativecommons.org/ns#" xmlns:rdf="http://www.w3.org/1999/02/22-rdf-syntax-ns#">
   <cc:Work>
    <dc:type rdf:resource="http://purl.org/dc/dcmitype/StillImage"/>
    <dc:date>2024-09-04T13:57:52.829299</dc:date>
    <dc:format>image/svg+xml</dc:format>
    <dc:creator>
     <cc:Agent>
      <dc:title>Matplotlib v3.9.2, https://matplotlib.org/</dc:title>
     </cc:Agent>
    </dc:creator>
   </cc:Work>
  </rdf:RDF>
 </metadata>
 <defs>
  <style type="text/css">*{stroke-linejoin: round; stroke-linecap: butt}</style>
 </defs>
 <g id="figure_1">
  <g id="patch_1">
   <path d="M 0 230.60875 
L 856.470937 230.60875 
L 856.470937 0 
L 0 0 
z
" style="fill: #ffffff"/>
  </g>
  <g id="axes_1">
   <g id="patch_2">
    <path d="M 52.160938 165.048125 
L 849.270937 165.048125 
L 849.270937 22.318125 
L 52.160938 22.318125 
z
" style="fill: #ffffff"/>
   </g>
   <g id="matplotlib.axis_1">
    <g id="xtick_1">
     <g id="line2d_1">
      <path d="M 88.39321 165.048125 
L 88.39321 22.318125 
" clip-path="url(#p4c4b67268b)" style="fill: none; stroke: #b0b0b0; stroke-opacity: 0.5; stroke-width: 0.8; stroke-linecap: square"/>
     </g>
     <g id="line2d_2">
      <defs>
       <path id="me43913d43f" d="M 0 0 
L 0 3.5 
" style="stroke: #000000; stroke-width: 0.8"/>
      </defs>
      <g>
       <use xlink:href="#me43913d43f" x="88.39321" y="165.048125" style="stroke: #000000; stroke-width: 0.8"/>
      </g>
     </g>
     <g id="text_1">
      <!-- 0 -->
      <g transform="translate(85.21196 179.646562) scale(0.1 -0.1)">
       <defs>
        <path id="DejaVuSans-30" d="M 2034 4250 
Q 1547 4250 1301 3770 
Q 1056 3291 1056 2328 
Q 1056 1369 1301 889 
Q 1547 409 2034 409 
Q 2525 409 2770 889 
Q 3016 1369 3016 2328 
Q 3016 3291 2770 3770 
Q 2525 4250 2034 4250 
z
M 2034 4750 
Q 2819 4750 3233 4129 
Q 3647 3509 3647 2328 
Q 3647 1150 3233 529 
Q 2819 -91 2034 -91 
Q 1250 -91 836 529 
Q 422 1150 422 2328 
Q 422 3509 836 4129 
Q 1250 4750 2034 4750 
z
" transform="scale(0.015625)"/>
       </defs>
       <use xlink:href="#DejaVuSans-30"/>
      </g>
     </g>
    </g>
    <g id="xtick_2">
     <g id="line2d_3">
      <path d="M 194.568262 165.048125 
L 194.568262 22.318125 
" clip-path="url(#p4c4b67268b)" style="fill: none; stroke: #b0b0b0; stroke-opacity: 0.5; stroke-width: 0.8; stroke-linecap: square"/>
     </g>
     <g id="line2d_4">
      <g>
       <use xlink:href="#me43913d43f" x="194.568262" y="165.048125" style="stroke: #000000; stroke-width: 0.8"/>
      </g>
     </g>
     <g id="text_2">
      <!-- 2 -->
      <g transform="translate(191.387012 179.646562) scale(0.1 -0.1)">
       <defs>
        <path id="DejaVuSans-32" d="M 1228 531 
L 3431 531 
L 3431 0 
L 469 0 
L 469 531 
Q 828 903 1448 1529 
Q 2069 2156 2228 2338 
Q 2531 2678 2651 2914 
Q 2772 3150 2772 3378 
Q 2772 3750 2511 3984 
Q 2250 4219 1831 4219 
Q 1534 4219 1204 4116 
Q 875 4013 500 3803 
L 500 4441 
Q 881 4594 1212 4672 
Q 1544 4750 1819 4750 
Q 2544 4750 2975 4387 
Q 3406 4025 3406 3419 
Q 3406 3131 3298 2873 
Q 3191 2616 2906 2266 
Q 2828 2175 2409 1742 
Q 1991 1309 1228 531 
z
" transform="scale(0.015625)"/>
       </defs>
       <use xlink:href="#DejaVuSans-32"/>
      </g>
     </g>
    </g>
    <g id="xtick_3">
     <g id="line2d_5">
      <path d="M 300.743314 165.048125 
L 300.743314 22.318125 
" clip-path="url(#p4c4b67268b)" style="fill: none; stroke: #b0b0b0; stroke-opacity: 0.5; stroke-width: 0.8; stroke-linecap: square"/>
     </g>
     <g id="line2d_6">
      <g>
       <use xlink:href="#me43913d43f" x="300.743314" y="165.048125" style="stroke: #000000; stroke-width: 0.8"/>
      </g>
     </g>
     <g id="text_3">
      <!-- 4 -->
      <g transform="translate(297.562064 179.646562) scale(0.1 -0.1)">
       <defs>
        <path id="DejaVuSans-34" d="M 2419 4116 
L 825 1625 
L 2419 1625 
L 2419 4116 
z
M 2253 4666 
L 3047 4666 
L 3047 1625 
L 3713 1625 
L 3713 1100 
L 3047 1100 
L 3047 0 
L 2419 0 
L 2419 1100 
L 313 1100 
L 313 1709 
L 2253 4666 
z
" transform="scale(0.015625)"/>
       </defs>
       <use xlink:href="#DejaVuSans-34"/>
      </g>
     </g>
    </g>
    <g id="xtick_4">
     <g id="line2d_7">
      <path d="M 406.918366 165.048125 
L 406.918366 22.318125 
" clip-path="url(#p4c4b67268b)" style="fill: none; stroke: #b0b0b0; stroke-opacity: 0.5; stroke-width: 0.8; stroke-linecap: square"/>
     </g>
     <g id="line2d_8">
      <g>
       <use xlink:href="#me43913d43f" x="406.918366" y="165.048125" style="stroke: #000000; stroke-width: 0.8"/>
      </g>
     </g>
     <g id="text_4">
      <!-- 6 -->
      <g transform="translate(403.737116 179.646562) scale(0.1 -0.1)">
       <defs>
        <path id="DejaVuSans-36" d="M 2113 2584 
Q 1688 2584 1439 2293 
Q 1191 2003 1191 1497 
Q 1191 994 1439 701 
Q 1688 409 2113 409 
Q 2538 409 2786 701 
Q 3034 994 3034 1497 
Q 3034 2003 2786 2293 
Q 2538 2584 2113 2584 
z
M 3366 4563 
L 3366 3988 
Q 3128 4100 2886 4159 
Q 2644 4219 2406 4219 
Q 1781 4219 1451 3797 
Q 1122 3375 1075 2522 
Q 1259 2794 1537 2939 
Q 1816 3084 2150 3084 
Q 2853 3084 3261 2657 
Q 3669 2231 3669 1497 
Q 3669 778 3244 343 
Q 2819 -91 2113 -91 
Q 1303 -91 875 529 
Q 447 1150 447 2328 
Q 447 3434 972 4092 
Q 1497 4750 2381 4750 
Q 2619 4750 2861 4703 
Q 3103 4656 3366 4563 
z
" transform="scale(0.015625)"/>
       </defs>
       <use xlink:href="#DejaVuSans-36"/>
      </g>
     </g>
    </g>
    <g id="xtick_5">
     <g id="line2d_9">
      <path d="M 513.093418 165.048125 
L 513.093418 22.318125 
" clip-path="url(#p4c4b67268b)" style="fill: none; stroke: #b0b0b0; stroke-opacity: 0.5; stroke-width: 0.8; stroke-linecap: square"/>
     </g>
     <g id="line2d_10">
      <g>
       <use xlink:href="#me43913d43f" x="513.093418" y="165.048125" style="stroke: #000000; stroke-width: 0.8"/>
      </g>
     </g>
     <g id="text_5">
      <!-- 8 -->
      <g transform="translate(509.912168 179.646562) scale(0.1 -0.1)">
       <defs>
        <path id="DejaVuSans-38" d="M 2034 2216 
Q 1584 2216 1326 1975 
Q 1069 1734 1069 1313 
Q 1069 891 1326 650 
Q 1584 409 2034 409 
Q 2484 409 2743 651 
Q 3003 894 3003 1313 
Q 3003 1734 2745 1975 
Q 2488 2216 2034 2216 
z
M 1403 2484 
Q 997 2584 770 2862 
Q 544 3141 544 3541 
Q 544 4100 942 4425 
Q 1341 4750 2034 4750 
Q 2731 4750 3128 4425 
Q 3525 4100 3525 3541 
Q 3525 3141 3298 2862 
Q 3072 2584 2669 2484 
Q 3125 2378 3379 2068 
Q 3634 1759 3634 1313 
Q 3634 634 3220 271 
Q 2806 -91 2034 -91 
Q 1263 -91 848 271 
Q 434 634 434 1313 
Q 434 1759 690 2068 
Q 947 2378 1403 2484 
z
M 1172 3481 
Q 1172 3119 1398 2916 
Q 1625 2713 2034 2713 
Q 2441 2713 2670 2916 
Q 2900 3119 2900 3481 
Q 2900 3844 2670 4047 
Q 2441 4250 2034 4250 
Q 1625 4250 1398 4047 
Q 1172 3844 1172 3481 
z
" transform="scale(0.015625)"/>
       </defs>
       <use xlink:href="#DejaVuSans-38"/>
      </g>
     </g>
    </g>
    <g id="xtick_6">
     <g id="line2d_11">
      <path d="M 619.26847 165.048125 
L 619.26847 22.318125 
" clip-path="url(#p4c4b67268b)" style="fill: none; stroke: #b0b0b0; stroke-opacity: 0.5; stroke-width: 0.8; stroke-linecap: square"/>
     </g>
     <g id="line2d_12">
      <g>
       <use xlink:href="#me43913d43f" x="619.26847" y="165.048125" style="stroke: #000000; stroke-width: 0.8"/>
      </g>
     </g>
     <g id="text_6">
      <!-- 10 -->
      <g transform="translate(612.90597 179.646562) scale(0.1 -0.1)">
       <defs>
        <path id="DejaVuSans-31" d="M 794 531 
L 1825 531 
L 1825 4091 
L 703 3866 
L 703 4441 
L 1819 4666 
L 2450 4666 
L 2450 531 
L 3481 531 
L 3481 0 
L 794 0 
L 794 531 
z
" transform="scale(0.015625)"/>
       </defs>
       <use xlink:href="#DejaVuSans-31"/>
       <use xlink:href="#DejaVuSans-30" x="63.623047"/>
      </g>
     </g>
    </g>
    <g id="xtick_7">
     <g id="line2d_13">
      <path d="M 725.443522 165.048125 
L 725.443522 22.318125 
" clip-path="url(#p4c4b67268b)" style="fill: none; stroke: #b0b0b0; stroke-opacity: 0.5; stroke-width: 0.8; stroke-linecap: square"/>
     </g>
     <g id="line2d_14">
      <g>
       <use xlink:href="#me43913d43f" x="725.443522" y="165.048125" style="stroke: #000000; stroke-width: 0.8"/>
      </g>
     </g>
     <g id="text_7">
      <!-- 12 -->
      <g transform="translate(719.081022 179.646562) scale(0.1 -0.1)">
       <use xlink:href="#DejaVuSans-31"/>
       <use xlink:href="#DejaVuSans-32" x="63.623047"/>
      </g>
     </g>
    </g>
    <g id="xtick_8">
     <g id="line2d_15">
      <path d="M 831.618574 165.048125 
L 831.618574 22.318125 
" clip-path="url(#p4c4b67268b)" style="fill: none; stroke: #b0b0b0; stroke-opacity: 0.5; stroke-width: 0.8; stroke-linecap: square"/>
     </g>
     <g id="line2d_16">
      <g>
       <use xlink:href="#me43913d43f" x="831.618574" y="165.048125" style="stroke: #000000; stroke-width: 0.8"/>
      </g>
     </g>
     <g id="text_8">
      <!-- 14 -->
      <g transform="translate(825.256074 179.646562) scale(0.1 -0.1)">
       <use xlink:href="#DejaVuSans-31"/>
       <use xlink:href="#DejaVuSans-34" x="63.623047"/>
      </g>
     </g>
    </g>
    <g id="text_9">
     <!-- Distance (nanoseconds, scaled to represent distance traveled at light speed) -->
     <g transform="translate(257.908125 193.324687) scale(0.1 -0.1)">
      <defs>
       <path id="DejaVuSans-44" d="M 1259 4147 
L 1259 519 
L 2022 519 
Q 2988 519 3436 956 
Q 3884 1394 3884 2338 
Q 3884 3275 3436 3711 
Q 2988 4147 2022 4147 
L 1259 4147 
z
M 628 4666 
L 1925 4666 
Q 3281 4666 3915 4102 
Q 4550 3538 4550 2338 
Q 4550 1131 3912 565 
Q 3275 0 1925 0 
L 628 0 
L 628 4666 
z
" transform="scale(0.015625)"/>
       <path id="DejaVuSans-69" d="M 603 3500 
L 1178 3500 
L 1178 0 
L 603 0 
L 603 3500 
z
M 603 4863 
L 1178 4863 
L 1178 4134 
L 603 4134 
L 603 4863 
z
" transform="scale(0.015625)"/>
       <path id="DejaVuSans-73" d="M 2834 3397 
L 2834 2853 
Q 2591 2978 2328 3040 
Q 2066 3103 1784 3103 
Q 1356 3103 1142 2972 
Q 928 2841 928 2578 
Q 928 2378 1081 2264 
Q 1234 2150 1697 2047 
L 1894 2003 
Q 2506 1872 2764 1633 
Q 3022 1394 3022 966 
Q 3022 478 2636 193 
Q 2250 -91 1575 -91 
Q 1294 -91 989 -36 
Q 684 19 347 128 
L 347 722 
Q 666 556 975 473 
Q 1284 391 1588 391 
Q 1994 391 2212 530 
Q 2431 669 2431 922 
Q 2431 1156 2273 1281 
Q 2116 1406 1581 1522 
L 1381 1569 
Q 847 1681 609 1914 
Q 372 2147 372 2553 
Q 372 3047 722 3315 
Q 1072 3584 1716 3584 
Q 2034 3584 2315 3537 
Q 2597 3491 2834 3397 
z
" transform="scale(0.015625)"/>
       <path id="DejaVuSans-74" d="M 1172 4494 
L 1172 3500 
L 2356 3500 
L 2356 3053 
L 1172 3053 
L 1172 1153 
Q 1172 725 1289 603 
Q 1406 481 1766 481 
L 2356 481 
L 2356 0 
L 1766 0 
Q 1100 0 847 248 
Q 594 497 594 1153 
L 594 3053 
L 172 3053 
L 172 3500 
L 594 3500 
L 594 4494 
L 1172 4494 
z
" transform="scale(0.015625)"/>
       <path id="DejaVuSans-61" d="M 2194 1759 
Q 1497 1759 1228 1600 
Q 959 1441 959 1056 
Q 959 750 1161 570 
Q 1363 391 1709 391 
Q 2188 391 2477 730 
Q 2766 1069 2766 1631 
L 2766 1759 
L 2194 1759 
z
M 3341 1997 
L 3341 0 
L 2766 0 
L 2766 531 
Q 2569 213 2275 61 
Q 1981 -91 1556 -91 
Q 1019 -91 701 211 
Q 384 513 384 1019 
Q 384 1609 779 1909 
Q 1175 2209 1959 2209 
L 2766 2209 
L 2766 2266 
Q 2766 2663 2505 2880 
Q 2244 3097 1772 3097 
Q 1472 3097 1187 3025 
Q 903 2953 641 2809 
L 641 3341 
Q 956 3463 1253 3523 
Q 1550 3584 1831 3584 
Q 2591 3584 2966 3190 
Q 3341 2797 3341 1997 
z
" transform="scale(0.015625)"/>
       <path id="DejaVuSans-6e" d="M 3513 2113 
L 3513 0 
L 2938 0 
L 2938 2094 
Q 2938 2591 2744 2837 
Q 2550 3084 2163 3084 
Q 1697 3084 1428 2787 
Q 1159 2491 1159 1978 
L 1159 0 
L 581 0 
L 581 3500 
L 1159 3500 
L 1159 2956 
Q 1366 3272 1645 3428 
Q 1925 3584 2291 3584 
Q 2894 3584 3203 3211 
Q 3513 2838 3513 2113 
z
" transform="scale(0.015625)"/>
       <path id="DejaVuSans-63" d="M 3122 3366 
L 3122 2828 
Q 2878 2963 2633 3030 
Q 2388 3097 2138 3097 
Q 1578 3097 1268 2742 
Q 959 2388 959 1747 
Q 959 1106 1268 751 
Q 1578 397 2138 397 
Q 2388 397 2633 464 
Q 2878 531 3122 666 
L 3122 134 
Q 2881 22 2623 -34 
Q 2366 -91 2075 -91 
Q 1284 -91 818 406 
Q 353 903 353 1747 
Q 353 2603 823 3093 
Q 1294 3584 2113 3584 
Q 2378 3584 2631 3529 
Q 2884 3475 3122 3366 
z
" transform="scale(0.015625)"/>
       <path id="DejaVuSans-65" d="M 3597 1894 
L 3597 1613 
L 953 1613 
Q 991 1019 1311 708 
Q 1631 397 2203 397 
Q 2534 397 2845 478 
Q 3156 559 3463 722 
L 3463 178 
Q 3153 47 2828 -22 
Q 2503 -91 2169 -91 
Q 1331 -91 842 396 
Q 353 884 353 1716 
Q 353 2575 817 3079 
Q 1281 3584 2069 3584 
Q 2775 3584 3186 3129 
Q 3597 2675 3597 1894 
z
M 3022 2063 
Q 3016 2534 2758 2815 
Q 2500 3097 2075 3097 
Q 1594 3097 1305 2825 
Q 1016 2553 972 2059 
L 3022 2063 
z
" transform="scale(0.015625)"/>
       <path id="DejaVuSans-20" transform="scale(0.015625)"/>
       <path id="DejaVuSans-28" d="M 1984 4856 
Q 1566 4138 1362 3434 
Q 1159 2731 1159 2009 
Q 1159 1288 1364 580 
Q 1569 -128 1984 -844 
L 1484 -844 
Q 1016 -109 783 600 
Q 550 1309 550 2009 
Q 550 2706 781 3412 
Q 1013 4119 1484 4856 
L 1984 4856 
z
" transform="scale(0.015625)"/>
       <path id="DejaVuSans-6f" d="M 1959 3097 
Q 1497 3097 1228 2736 
Q 959 2375 959 1747 
Q 959 1119 1226 758 
Q 1494 397 1959 397 
Q 2419 397 2687 759 
Q 2956 1122 2956 1747 
Q 2956 2369 2687 2733 
Q 2419 3097 1959 3097 
z
M 1959 3584 
Q 2709 3584 3137 3096 
Q 3566 2609 3566 1747 
Q 3566 888 3137 398 
Q 2709 -91 1959 -91 
Q 1206 -91 779 398 
Q 353 888 353 1747 
Q 353 2609 779 3096 
Q 1206 3584 1959 3584 
z
" transform="scale(0.015625)"/>
       <path id="DejaVuSans-64" d="M 2906 2969 
L 2906 4863 
L 3481 4863 
L 3481 0 
L 2906 0 
L 2906 525 
Q 2725 213 2448 61 
Q 2172 -91 1784 -91 
Q 1150 -91 751 415 
Q 353 922 353 1747 
Q 353 2572 751 3078 
Q 1150 3584 1784 3584 
Q 2172 3584 2448 3432 
Q 2725 3281 2906 2969 
z
M 947 1747 
Q 947 1113 1208 752 
Q 1469 391 1925 391 
Q 2381 391 2643 752 
Q 2906 1113 2906 1747 
Q 2906 2381 2643 2742 
Q 2381 3103 1925 3103 
Q 1469 3103 1208 2742 
Q 947 2381 947 1747 
z
" transform="scale(0.015625)"/>
       <path id="DejaVuSans-2c" d="M 750 794 
L 1409 794 
L 1409 256 
L 897 -744 
L 494 -744 
L 750 256 
L 750 794 
z
" transform="scale(0.015625)"/>
       <path id="DejaVuSans-6c" d="M 603 4863 
L 1178 4863 
L 1178 0 
L 603 0 
L 603 4863 
z
" transform="scale(0.015625)"/>
       <path id="DejaVuSans-72" d="M 2631 2963 
Q 2534 3019 2420 3045 
Q 2306 3072 2169 3072 
Q 1681 3072 1420 2755 
Q 1159 2438 1159 1844 
L 1159 0 
L 581 0 
L 581 3500 
L 1159 3500 
L 1159 2956 
Q 1341 3275 1631 3429 
Q 1922 3584 2338 3584 
Q 2397 3584 2469 3576 
Q 2541 3569 2628 3553 
L 2631 2963 
z
" transform="scale(0.015625)"/>
       <path id="DejaVuSans-70" d="M 1159 525 
L 1159 -1331 
L 581 -1331 
L 581 3500 
L 1159 3500 
L 1159 2969 
Q 1341 3281 1617 3432 
Q 1894 3584 2278 3584 
Q 2916 3584 3314 3078 
Q 3713 2572 3713 1747 
Q 3713 922 3314 415 
Q 2916 -91 2278 -91 
Q 1894 -91 1617 61 
Q 1341 213 1159 525 
z
M 3116 1747 
Q 3116 2381 2855 2742 
Q 2594 3103 2138 3103 
Q 1681 3103 1420 2742 
Q 1159 2381 1159 1747 
Q 1159 1113 1420 752 
Q 1681 391 2138 391 
Q 2594 391 2855 752 
Q 3116 1113 3116 1747 
z
" transform="scale(0.015625)"/>
       <path id="DejaVuSans-76" d="M 191 3500 
L 800 3500 
L 1894 563 
L 2988 3500 
L 3597 3500 
L 2284 0 
L 1503 0 
L 191 3500 
z
" transform="scale(0.015625)"/>
       <path id="DejaVuSans-67" d="M 2906 1791 
Q 2906 2416 2648 2759 
Q 2391 3103 1925 3103 
Q 1463 3103 1205 2759 
Q 947 2416 947 1791 
Q 947 1169 1205 825 
Q 1463 481 1925 481 
Q 2391 481 2648 825 
Q 2906 1169 2906 1791 
z
M 3481 434 
Q 3481 -459 3084 -895 
Q 2688 -1331 1869 -1331 
Q 1566 -1331 1297 -1286 
Q 1028 -1241 775 -1147 
L 775 -588 
Q 1028 -725 1275 -790 
Q 1522 -856 1778 -856 
Q 2344 -856 2625 -561 
Q 2906 -266 2906 331 
L 2906 616 
Q 2728 306 2450 153 
Q 2172 0 1784 0 
Q 1141 0 747 490 
Q 353 981 353 1791 
Q 353 2603 747 3093 
Q 1141 3584 1784 3584 
Q 2172 3584 2450 3431 
Q 2728 3278 2906 2969 
L 2906 3500 
L 3481 3500 
L 3481 434 
z
" transform="scale(0.015625)"/>
       <path id="DejaVuSans-68" d="M 3513 2113 
L 3513 0 
L 2938 0 
L 2938 2094 
Q 2938 2591 2744 2837 
Q 2550 3084 2163 3084 
Q 1697 3084 1428 2787 
Q 1159 2491 1159 1978 
L 1159 0 
L 581 0 
L 581 4863 
L 1159 4863 
L 1159 2956 
Q 1366 3272 1645 3428 
Q 1925 3584 2291 3584 
Q 2894 3584 3203 3211 
Q 3513 2838 3513 2113 
z
" transform="scale(0.015625)"/>
       <path id="DejaVuSans-29" d="M 513 4856 
L 1013 4856 
Q 1481 4119 1714 3412 
Q 1947 2706 1947 2009 
Q 1947 1309 1714 600 
Q 1481 -109 1013 -844 
L 513 -844 
Q 928 -128 1133 580 
Q 1338 1288 1338 2009 
Q 1338 2731 1133 3434 
Q 928 4138 513 4856 
z
" transform="scale(0.015625)"/>
      </defs>
      <use xlink:href="#DejaVuSans-44"/>
      <use xlink:href="#DejaVuSans-69" x="77.001953"/>
      <use xlink:href="#DejaVuSans-73" x="104.785156"/>
      <use xlink:href="#DejaVuSans-74" x="156.884766"/>
      <use xlink:href="#DejaVuSans-61" x="196.09375"/>
      <use xlink:href="#DejaVuSans-6e" x="257.373047"/>
      <use xlink:href="#DejaVuSans-63" x="320.751953"/>
      <use xlink:href="#DejaVuSans-65" x="375.732422"/>
      <use xlink:href="#DejaVuSans-20" x="437.255859"/>
      <use xlink:href="#DejaVuSans-28" x="469.042969"/>
      <use xlink:href="#DejaVuSans-6e" x="508.056641"/>
      <use xlink:href="#DejaVuSans-61" x="571.435547"/>
      <use xlink:href="#DejaVuSans-6e" x="632.714844"/>
      <use xlink:href="#DejaVuSans-6f" x="696.09375"/>
      <use xlink:href="#DejaVuSans-73" x="757.275391"/>
      <use xlink:href="#DejaVuSans-65" x="809.375"/>
      <use xlink:href="#DejaVuSans-63" x="870.898438"/>
      <use xlink:href="#DejaVuSans-6f" x="925.878906"/>
      <use xlink:href="#DejaVuSans-6e" x="987.060547"/>
      <use xlink:href="#DejaVuSans-64" x="1050.439453"/>
      <use xlink:href="#DejaVuSans-73" x="1113.916016"/>
      <use xlink:href="#DejaVuSans-2c" x="1166.015625"/>
      <use xlink:href="#DejaVuSans-20" x="1197.802734"/>
      <use xlink:href="#DejaVuSans-73" x="1229.589844"/>
      <use xlink:href="#DejaVuSans-63" x="1281.689453"/>
      <use xlink:href="#DejaVuSans-61" x="1336.669922"/>
      <use xlink:href="#DejaVuSans-6c" x="1397.949219"/>
      <use xlink:href="#DejaVuSans-65" x="1425.732422"/>
      <use xlink:href="#DejaVuSans-64" x="1487.255859"/>
      <use xlink:href="#DejaVuSans-20" x="1550.732422"/>
      <use xlink:href="#DejaVuSans-74" x="1582.519531"/>
      <use xlink:href="#DejaVuSans-6f" x="1621.728516"/>
      <use xlink:href="#DejaVuSans-20" x="1682.910156"/>
      <use xlink:href="#DejaVuSans-72" x="1714.697266"/>
      <use xlink:href="#DejaVuSans-65" x="1753.560547"/>
      <use xlink:href="#DejaVuSans-70" x="1815.083984"/>
      <use xlink:href="#DejaVuSans-72" x="1878.560547"/>
      <use xlink:href="#DejaVuSans-65" x="1917.423828"/>
      <use xlink:href="#DejaVuSans-73" x="1978.947266"/>
      <use xlink:href="#DejaVuSans-65" x="2031.046875"/>
      <use xlink:href="#DejaVuSans-6e" x="2092.570312"/>
      <use xlink:href="#DejaVuSans-74" x="2155.949219"/>
      <use xlink:href="#DejaVuSans-20" x="2195.158203"/>
      <use xlink:href="#DejaVuSans-64" x="2226.945312"/>
      <use xlink:href="#DejaVuSans-69" x="2290.421875"/>
      <use xlink:href="#DejaVuSans-73" x="2318.205078"/>
      <use xlink:href="#DejaVuSans-74" x="2370.304688"/>
      <use xlink:href="#DejaVuSans-61" x="2409.513672"/>
      <use xlink:href="#DejaVuSans-6e" x="2470.792969"/>
      <use xlink:href="#DejaVuSans-63" x="2534.171875"/>
      <use xlink:href="#DejaVuSans-65" x="2589.152344"/>
      <use xlink:href="#DejaVuSans-20" x="2650.675781"/>
      <use xlink:href="#DejaVuSans-74" x="2682.462891"/>
      <use xlink:href="#DejaVuSans-72" x="2721.671875"/>
      <use xlink:href="#DejaVuSans-61" x="2762.785156"/>
      <use xlink:href="#DejaVuSans-76" x="2824.064453"/>
      <use xlink:href="#DejaVuSans-65" x="2883.244141"/>
      <use xlink:href="#DejaVuSans-6c" x="2944.767578"/>
      <use xlink:href="#DejaVuSans-65" x="2972.550781"/>
      <use xlink:href="#DejaVuSans-64" x="3034.074219"/>
      <use xlink:href="#DejaVuSans-20" x="3097.550781"/>
      <use xlink:href="#DejaVuSans-61" x="3129.337891"/>
      <use xlink:href="#DejaVuSans-74" x="3190.617188"/>
      <use xlink:href="#DejaVuSans-20" x="3229.826172"/>
      <use xlink:href="#DejaVuSans-6c" x="3261.613281"/>
      <use xlink:href="#DejaVuSans-69" x="3289.396484"/>
      <use xlink:href="#DejaVuSans-67" x="3317.179688"/>
      <use xlink:href="#DejaVuSans-68" x="3380.65625"/>
      <use xlink:href="#DejaVuSans-74" x="3444.035156"/>
      <use xlink:href="#DejaVuSans-20" x="3483.244141"/>
      <use xlink:href="#DejaVuSans-73" x="3515.03125"/>
      <use xlink:href="#DejaVuSans-70" x="3567.130859"/>
      <use xlink:href="#DejaVuSans-65" x="3630.607422"/>
      <use xlink:href="#DejaVuSans-65" x="3692.130859"/>
      <use xlink:href="#DejaVuSans-64" x="3753.654297"/>
      <use xlink:href="#DejaVuSans-29" x="3817.130859"/>
     </g>
    </g>
   </g>
   <g id="matplotlib.axis_2">
    <g id="ytick_1">
     <g id="line2d_17">
      <path d="M 52.160938 132.609537 
L 849.270937 132.609537 
" clip-path="url(#p4c4b67268b)" style="fill: none; stroke: #b0b0b0; stroke-opacity: 0.5; stroke-width: 0.8; stroke-linecap: square"/>
     </g>
     <g id="line2d_18">
      <defs>
       <path id="m6797f3c72e" d="M 0 0 
L -3.5 0 
" style="stroke: #000000; stroke-width: 0.8"/>
      </defs>
      <g>
       <use xlink:href="#m6797f3c72e" x="52.160938" y="132.609537" style="stroke: #000000; stroke-width: 0.8"/>
      </g>
     </g>
     <g id="text_10">
      <!-- −0.6 -->
      <g transform="translate(20.878125 136.408756) scale(0.1 -0.1)">
       <defs>
        <path id="DejaVuSans-2212" d="M 678 2272 
L 4684 2272 
L 4684 1741 
L 678 1741 
L 678 2272 
z
" transform="scale(0.015625)"/>
        <path id="DejaVuSans-2e" d="M 684 794 
L 1344 794 
L 1344 0 
L 684 0 
L 684 794 
z
" transform="scale(0.015625)"/>
       </defs>
       <use xlink:href="#DejaVuSans-2212"/>
       <use xlink:href="#DejaVuSans-30" x="83.789062"/>
       <use xlink:href="#DejaVuSans-2e" x="147.412109"/>
       <use xlink:href="#DejaVuSans-36" x="179.199219"/>
      </g>
     </g>
    </g>
    <g id="ytick_2">
     <g id="line2d_19">
      <path d="M 52.160938 93.683125 
L 849.270937 93.683125 
" clip-path="url(#p4c4b67268b)" style="fill: none; stroke: #b0b0b0; stroke-opacity: 0.5; stroke-width: 0.8; stroke-linecap: square"/>
     </g>
     <g id="line2d_20">
      <g>
       <use xlink:href="#m6797f3c72e" x="52.160938" y="93.683125" style="stroke: #000000; stroke-width: 0.8"/>
      </g>
     </g>
     <g id="text_11">
      <!-- 0.0 -->
      <g transform="translate(29.257812 97.482344) scale(0.1 -0.1)">
       <use xlink:href="#DejaVuSans-30"/>
       <use xlink:href="#DejaVuSans-2e" x="63.623047"/>
       <use xlink:href="#DejaVuSans-30" x="95.410156"/>
      </g>
     </g>
    </g>
    <g id="ytick_3">
     <g id="line2d_21">
      <path d="M 52.160938 54.756713 
L 849.270937 54.756713 
" clip-path="url(#p4c4b67268b)" style="fill: none; stroke: #b0b0b0; stroke-opacity: 0.5; stroke-width: 0.8; stroke-linecap: square"/>
     </g>
     <g id="line2d_22">
      <g>
       <use xlink:href="#m6797f3c72e" x="52.160938" y="54.756713" style="stroke: #000000; stroke-width: 0.8"/>
      </g>
     </g>
     <g id="text_12">
      <!-- 0.6 -->
      <g transform="translate(29.257812 58.555932) scale(0.1 -0.1)">
       <use xlink:href="#DejaVuSans-30"/>
       <use xlink:href="#DejaVuSans-2e" x="63.623047"/>
       <use xlink:href="#DejaVuSans-36" x="95.410156"/>
      </g>
     </g>
    </g>
    <g id="text_13">
     <!-- Amplitude -->
     <g transform="translate(14.798437 119.305781) rotate(-90) scale(0.1 -0.1)">
      <defs>
       <path id="DejaVuSans-41" d="M 2188 4044 
L 1331 1722 
L 3047 1722 
L 2188 4044 
z
M 1831 4666 
L 2547 4666 
L 4325 0 
L 3669 0 
L 3244 1197 
L 1141 1197 
L 716 0 
L 50 0 
L 1831 4666 
z
" transform="scale(0.015625)"/>
       <path id="DejaVuSans-6d" d="M 3328 2828 
Q 3544 3216 3844 3400 
Q 4144 3584 4550 3584 
Q 5097 3584 5394 3201 
Q 5691 2819 5691 2113 
L 5691 0 
L 5113 0 
L 5113 2094 
Q 5113 2597 4934 2840 
Q 4756 3084 4391 3084 
Q 3944 3084 3684 2787 
Q 3425 2491 3425 1978 
L 3425 0 
L 2847 0 
L 2847 2094 
Q 2847 2600 2669 2842 
Q 2491 3084 2119 3084 
Q 1678 3084 1418 2786 
Q 1159 2488 1159 1978 
L 1159 0 
L 581 0 
L 581 3500 
L 1159 3500 
L 1159 2956 
Q 1356 3278 1631 3431 
Q 1906 3584 2284 3584 
Q 2666 3584 2933 3390 
Q 3200 3197 3328 2828 
z
" transform="scale(0.015625)"/>
       <path id="DejaVuSans-75" d="M 544 1381 
L 544 3500 
L 1119 3500 
L 1119 1403 
Q 1119 906 1312 657 
Q 1506 409 1894 409 
Q 2359 409 2629 706 
Q 2900 1003 2900 1516 
L 2900 3500 
L 3475 3500 
L 3475 0 
L 2900 0 
L 2900 538 
Q 2691 219 2414 64 
Q 2138 -91 1772 -91 
Q 1169 -91 856 284 
Q 544 659 544 1381 
z
M 1991 3584 
L 1991 3584 
z
" transform="scale(0.015625)"/>
      </defs>
      <use xlink:href="#DejaVuSans-41"/>
      <use xlink:href="#DejaVuSans-6d" x="68.408203"/>
      <use xlink:href="#DejaVuSans-70" x="165.820312"/>
      <use xlink:href="#DejaVuSans-6c" x="229.296875"/>
      <use xlink:href="#DejaVuSans-69" x="257.080078"/>
      <use xlink:href="#DejaVuSans-74" x="284.863281"/>
      <use xlink:href="#DejaVuSans-75" x="324.072266"/>
      <use xlink:href="#DejaVuSans-64" x="387.451172"/>
      <use xlink:href="#DejaVuSans-65" x="450.927734"/>
     </g>
    </g>
   </g>
   <g id="line2d_23">
    <path d="M 88.39321 93.683125 
L 102.175256 78.324631 
L 110.154335 69.777417 
L 116.682672 63.117022 
L 122.485639 57.522657 
L 127.563235 52.925875 
L 132.640831 48.64489 
L 136.993056 45.252039 
L 141.34528 42.134934 
L 145.697505 39.311323 
L 149.32436 37.194161 
L 152.951214 35.300381 
L 156.578068 33.637473 
L 160.204922 32.212012 
L 163.831776 31.029635 
L 167.45863 30.095018 
L 171.085484 29.411856 
L 174.712338 28.982852 
L 178.339193 28.809702 
L 181.966047 28.89309 
L 185.592901 29.232686 
L 189.219755 29.827149 
L 192.846609 30.674126 
L 196.473463 31.770269 
L 200.100317 33.111243 
L 203.727171 34.691745 
L 207.354026 36.505526 
L 210.98088 38.545412 
L 215.333105 41.280316 
L 219.68533 44.313579 
L 224.037555 47.627932 
L 228.38978 51.204503 
L 233.467375 55.68134 
L 238.544971 60.452625 
L 244.347938 66.218553 
L 250.876275 73.034369 
L 258.855354 81.714758 
L 271.186658 95.51908 
L 283.517962 109.239766 
L 291.497041 117.778381 
L 298.025379 124.429036 
L 303.828345 130.012807 
L 308.905941 134.59891 
L 313.983537 138.867988 
L 318.335762 142.249724 
L 322.687987 145.354943 
L 327.040212 148.165965 
L 330.667066 150.272149 
L 334.29392 152.154556 
L 337.920774 153.80574 
L 341.547628 155.219173 
L 345.174482 156.389265 
L 348.801337 157.311389 
L 352.428191 157.981898 
L 356.055045 158.398142 
L 359.681899 158.558473 
L 363.308753 158.462258 
L 366.935607 158.109878 
L 370.562461 157.502726 
L 374.189315 156.643202 
L 377.81617 155.534707 
L 381.443024 154.181622 
L 385.069878 152.5893 
L 388.696732 150.764036 
L 392.323586 148.713049 
L 396.675811 145.965391 
L 401.028036 142.920059 
L 405.380261 139.594393 
L 409.732486 136.007328 
L 414.810082 131.519363 
L 419.887677 126.738234 
L 425.690644 120.962723 
L 432.218981 114.138366 
L 440.198061 105.450912 
L 453.254735 90.827736 
L 465.586039 77.138097 
L 472.839748 69.398559 
L 479.368085 62.75771 
L 485.171052 57.184589 
L 490.248647 52.60921 
L 495.326243 48.352082 
L 499.678468 44.981493 
L 504.030693 41.88819 
L 508.382918 39.089786 
L 512.009772 36.9946 
L 515.636626 35.123585 
L 519.26348 33.484141 
L 522.890335 32.082751 
L 526.517189 30.924955 
L 530.144043 30.015334 
L 533.770897 29.357483 
L 537.397751 28.954005 
L 541.024605 28.806494 
L 544.651459 28.915534 
L 548.278314 29.280695 
L 551.905168 29.900531 
L 555.532022 30.772592 
L 559.158876 31.893429 
L 562.78573 33.25861 
L 566.412584 34.862737 
L 570.039438 36.699466 
L 573.666292 38.761533 
L 578.018517 41.521919 
L 582.370742 44.579289 
L 586.722967 47.916235 
L 591.075192 51.513759 
L 596.152788 56.012807 
L 601.230384 60.803734 
L 607.03335 66.588772 
L 613.561688 73.4216 
L 621.540767 82.116033 
L 634.597442 96.742324 
L 646.203375 109.635596 
L 653.457083 117.399049 
L 659.985421 124.069117 
L 665.788387 129.674022 
L 670.865983 134.281438 
L 675.943579 138.574287 
L 680.295804 141.978219 
L 684.648029 145.107179 
L 689.000254 147.943352 
L 692.627108 150.07147 
L 696.253962 151.976605 
L 699.880816 153.65122 
L 703.50767 155.088695 
L 707.134524 156.283346 
L 710.761378 157.230447 
L 714.388233 157.926253 
L 718.015087 158.368014 
L 721.641941 158.553982 
L 725.268795 158.483421 
L 728.895649 158.156612 
L 732.522503 157.574845 
L 736.149357 156.740422 
L 739.776211 155.656643 
L 743.403066 154.327792 
L 747.02992 152.759126 
L 750.656774 150.956847 
L 754.283628 148.928081 
L 758.635853 146.205959 
L 762.988078 143.184794 
L 767.340303 139.881788 
L 771.692528 136.315745 
L 776.770124 131.85008 
L 781.847719 127.088687 
L 787.650686 121.3324 
L 794.179023 114.525192 
L 802.158102 105.851953 
L 813.038665 93.683125 
L 813.038665 93.683125 
" clip-path="url(#p4c4b67268b)" style="fill: none; stroke: #0000ff; stroke-width: 1.5; stroke-linecap: square"/>
   </g>
   <g id="line2d_24">
    <path d="M 88.39321 93.683125 
L 94.196177 74.374434 
L 97.823031 63.088924 
L 100.724514 54.825908 
L 102.900627 49.200147 
L 105.076739 44.14504 
L 107.252852 39.725434 
L 108.703593 37.160444 
L 110.154335 34.917915 
L 111.605077 33.01064 
L 113.055818 31.449499 
L 114.50656 30.2434 
L 115.957302 29.399223 
L 117.408043 28.921784 
L 118.858785 28.813806 
L 120.309527 29.075907 
L 121.760268 29.70659 
L 123.21101 30.702257 
L 124.661751 32.057229 
L 126.112493 33.763775 
L 127.563235 35.812159 
L 129.013976 38.190695 
L 130.464718 40.885815 
L 132.640831 45.48798 
L 134.816943 50.70842 
L 136.993056 56.480164 
L 139.894539 64.904528 
L 143.521393 76.3332 
L 148.598989 93.274471 
L 154.401955 112.601297 
L 158.028809 123.916356 
L 160.930293 132.212321 
L 163.106405 137.867747 
L 165.282518 142.956347 
L 167.45863 147.412842 
L 168.909372 150.004081 
L 170.360113 152.274011 
L 171.810855 154.20968 
L 173.261597 155.800048 
L 174.712338 157.03604 
L 176.16308 157.910605 
L 177.613822 158.418754 
L 179.064563 158.557588 
L 180.515305 158.326315 
L 181.966047 157.726254 
L 183.416788 156.760828 
L 184.86753 155.435546 
L 186.318272 153.757968 
L 187.769013 151.737665 
L 189.219755 149.386162 
L 190.670497 146.716874 
L 192.846609 142.150883 
L 195.022722 136.963121 
L 197.198834 131.220139 
L 200.100317 122.8274 
L 203.727171 111.426476 
L 208.804767 94.500418 
L 215.333105 72.821333 
L 218.959959 61.65839 
L 221.861442 53.530333 
L 224.037555 48.025361 
L 226.213667 43.106112 
L 228.38978 38.835693 
L 229.840521 36.376627 
L 231.291263 34.244493 
L 232.742004 32.451454 
L 234.192746 31.007741 
L 235.643488 29.921589 
L 237.094229 29.199195 
L 238.544971 28.84468 
L 239.995713 28.860067 
L 241.446454 29.245268 
L 242.897196 29.998085 
L 244.347938 31.114224 
L 245.798679 32.587316 
L 247.249421 34.408959 
L 248.700163 36.568759 
L 250.150904 39.054395 
L 252.327017 43.362284 
L 254.503129 48.315716 
L 256.679242 53.851147 
L 259.580725 62.013354 
L 262.482208 70.897231 
L 266.834433 85.129973 
L 276.264254 116.467872 
L 279.165737 125.351827 
L 282.067221 133.514136 
L 284.243333 139.049658 
L 286.419446 144.003193 
L 288.595558 148.311194 
L 290.0463 150.79691 
L 291.497041 152.956793 
L 292.947783 154.778522 
L 294.398525 156.251702 
L 295.849266 157.367931 
L 297.300008 158.12084 
L 298.75075 158.506133 
L 300.201491 158.521612 
L 301.652233 158.16719 
L 303.102975 157.444887 
L 304.553716 156.358826 
L 306.004458 154.915201 
L 307.455199 153.122249 
L 308.905941 150.990198 
L 310.356683 148.531211 
L 312.532795 144.260906 
L 314.708908 139.34176 
L 316.88502 133.836879 
L 319.786504 125.708925 
L 322.687987 116.851188 
L 326.314841 105.06147 
L 337.195403 68.997996 
L 340.096887 60.248155 
L 342.99837 52.260209 
L 345.174482 46.879514 
L 347.350595 42.099242 
L 349.526707 37.980717 
L 350.977449 35.629132 
L 352.428191 33.608744 
L 353.878932 31.931079 
L 355.329674 30.605708 
L 356.780416 29.640192 
L 358.231157 29.040039 
L 359.681899 28.808674 
L 361.132641 28.947415 
L 362.583382 29.455472 
L 364.034124 30.329946 
L 365.484866 31.565849 
L 366.935607 33.156128 
L 368.386349 35.091713 
L 369.83709 37.36156 
L 371.287832 39.952721 
L 373.463945 44.409106 
L 375.640057 49.497606 
L 377.81617 55.152943 
L 380.717653 63.44881 
L 383.619136 72.433638 
L 387.971361 86.751659 
L 396.675811 115.700831 
L 399.577294 124.636005 
L 402.478778 132.865845 
L 404.65489 138.461807 
L 406.831003 143.483323 
L 409.007115 147.865974 
L 410.457857 150.404692 
L 411.908598 152.619815 
L 413.35934 154.498706 
L 414.810082 156.030646 
L 416.260823 157.206894 
L 417.711565 158.020741 
L 419.162307 158.467544 
L 420.613048 158.544753 
L 422.06379 158.251928 
L 423.514532 157.59074 
L 424.965273 156.56496 
L 426.416015 155.180441 
L 427.866757 153.445082 
L 429.317498 151.368782 
L 430.76824 148.963387 
L 432.944352 144.768754 
L 435.120465 139.918765 
L 437.296577 134.47564 
L 439.47269 128.509206 
L 442.374173 119.873061 
L 446.001027 108.263056 
L 459.057702 65.27245 
L 461.959185 56.816701 
L 464.135298 51.01634 
L 466.31141 45.763332 
L 468.487523 41.125067 
L 470.663635 37.161046 
L 472.114377 34.918434 
L 473.565118 33.011074 
L 475.01586 31.449845 
L 476.466602 30.243657 
L 477.917343 29.399388 
L 479.368085 28.921857 
L 480.818827 28.813787 
L 482.269568 29.075795 
L 483.72031 29.706386 
L 485.171052 30.701963 
L 486.621793 32.056846 
L 488.072535 33.763305 
L 489.523277 35.811605 
L 490.974018 38.190061 
L 492.42476 40.885103 
L 494.600872 45.48716 
L 496.776985 50.707502 
L 498.953097 56.47916 
L 501.854581 64.90343 
L 505.481435 76.33202 
L 510.559031 93.273245 
L 516.361997 112.600125 
L 519.988851 123.915271 
L 522.890335 132.211336 
L 525.066447 137.866849 
L 527.24256 142.95555 
L 529.418672 147.412156 
L 530.869414 150.003473 
L 532.320155 152.273484 
L 533.770897 154.209239 
L 535.221639 155.799694 
L 536.67238 157.035776 
L 538.123122 157.910432 
L 539.573864 158.418673 
L 541.024605 158.557599 
L 542.475347 158.326419 
L 543.926089 157.72645 
L 545.37683 156.761115 
L 546.827572 155.435922 
L 548.278314 153.758431 
L 549.729055 151.738212 
L 551.179797 149.38679 
L 552.630538 146.71758 
L 554.806651 142.151698 
L 556.982763 136.964034 
L 559.158876 131.221138 
L 562.060359 122.828495 
L 565.687213 111.427655 
L 570.764809 94.501643 
L 577.293147 72.822493 
L 580.920001 61.659456 
L 583.821484 53.531296 
L 585.997596 48.026231 
L 588.173709 43.106879 
L 590.349821 38.836348 
L 591.800563 36.377201 
L 593.251305 34.244984 
L 594.702046 32.451859 
L 596.152788 31.008057 
L 597.60353 29.921815 
L 599.054271 29.19933 
L 600.505013 28.844723 
L 601.955755 28.860017 
L 603.406496 29.245125 
L 604.857238 29.997851 
L 606.30798 31.1139 
L 607.758721 32.586904 
L 609.209463 34.408461 
L 610.660204 36.568178 
L 612.110946 39.053734 
L 614.287059 43.36151 
L 616.463171 48.31484 
L 618.639284 53.85018 
L 621.540767 62.012285 
L 624.44225 70.896084 
L 628.069104 82.706118 
L 638.949667 118.744552 
L 641.85115 127.466593 
L 644.752633 135.418797 
L 646.928746 140.767959 
L 649.104858 145.513089 
L 651.280971 149.593316 
L 652.731712 151.917855 
L 654.182454 153.910167 
L 655.633196 155.558885 
L 657.083937 156.854603 
L 658.534679 157.78993 
L 659.985421 158.359529 
L 661.436162 158.56015 
L 662.886904 158.39065 
L 664.337646 157.851996 
L 665.788387 156.947259 
L 667.239129 155.681602 
L 668.689871 154.062246 
L 670.140612 152.098428 
L 671.591354 149.801352 
L 673.042095 147.184124 
L 675.218208 142.691134 
L 677.39432 137.569443 
L 679.570433 131.884753 
L 682.471916 123.556361 
L 685.3734 114.547238 
L 689.725624 100.209357 
L 698.430074 71.282604 
L 701.331558 62.372786 
L 704.233041 54.176448 
L 706.409153 48.610505 
L 708.585266 43.622778 
L 710.761378 39.277254 
L 712.21212 36.764908 
L 713.662862 34.577278 
L 715.113603 32.726846 
L 716.564345 31.224168 
L 718.015087 30.077817 
L 719.465828 29.294332 
L 720.91657 28.878184 
L 722.367312 28.831746 
L 723.818053 29.155284 
L 725.268795 29.846951 
L 726.719537 30.902803 
L 728.170278 32.316814 
L 729.62102 34.080918 
L 731.071762 36.185052 
L 732.522503 38.61721 
L 734.698616 42.84965 
L 736.874728 47.734211 
L 739.050841 53.20823 
L 741.226953 59.201483 
L 744.128436 67.866461 
L 747.75529 79.500489 
L 760.811965 122.459525 
L 763.713449 130.884078 
L 765.889561 136.655994 
L 768.065674 141.876629 
L 770.241786 146.479011 
L 772.417899 150.404098 
L 773.86864 152.619303 
L 775.319382 154.498279 
L 776.770124 156.030307 
L 778.220865 157.206645 
L 779.671607 158.020583 
L 781.122348 158.467478 
L 782.57309 158.54478 
L 784.023832 158.252047 
L 785.474573 157.590951 
L 786.925315 156.565262 
L 788.376057 155.180832 
L 789.826798 153.445559 
L 791.27754 151.369343 
L 792.728282 148.964029 
L 794.904394 144.769509 
L 797.080507 139.919625 
L 799.256619 134.476593 
L 801.432732 128.51024 
L 804.334215 119.874182 
L 807.961069 108.26425 
L 813.038665 91.235439 
L 813.038665 91.235439 
" clip-path="url(#p4c4b67268b)" style="fill: none; stroke: #ff0000; stroke-width: 1.5; stroke-linecap: square"/>
   </g>
   <g id="patch_3">
    <path d="M 52.160938 165.048125 
L 52.160938 22.318125 
" style="fill: none; stroke: #000000; stroke-width: 0.8; stroke-linejoin: miter; stroke-linecap: square"/>
   </g>
   <g id="patch_4">
    <path d="M 849.270937 165.048125 
L 849.270937 22.318125 
" style="fill: none; stroke: #000000; stroke-width: 0.8; stroke-linejoin: miter; stroke-linecap: square"/>
   </g>
   <g id="patch_5">
    <path d="M 52.160938 165.048125 
L 849.270937 165.048125 
" style="fill: none; stroke: #000000; stroke-width: 0.8; stroke-linejoin: miter; stroke-linecap: square"/>
   </g>
   <g id="patch_6">
    <path d="M 52.160938 22.318125 
L 849.270937 22.318125 
" style="fill: none; stroke: #000000; stroke-width: 0.8; stroke-linejoin: miter; stroke-linecap: square"/>
   </g>
   <g id="patch_7">
    <path d="M 520.067175 28.805772 
Q 360.139042 28.805772 200.210909 28.805772 
" style="fill: none; stroke: #0000ff; stroke-linecap: round"/>
    <path d="M 516.067175 26.805772 
L 520.067175 28.805772 
L 516.067175 30.805772 
" style="fill: none; stroke: #0000ff; stroke-linecap: round"/>
    <path d="M 204.210909 30.805772 
L 200.210909 28.805772 
L 204.210909 26.805772 
" style="fill: none; stroke: #0000ff; stroke-linecap: round"/>
   </g>
   <g id="text_14">
    <!-- 2.05 m -->
    <g style="fill: #0000ff" transform="translate(342.543068 39.648077) scale(0.1 -0.1)">
     <defs>
      <path id="DejaVuSans-35" d="M 691 4666 
L 3169 4666 
L 3169 4134 
L 1269 4134 
L 1269 2991 
Q 1406 3038 1543 3061 
Q 1681 3084 1819 3084 
Q 2600 3084 3056 2656 
Q 3513 2228 3513 1497 
Q 3513 744 3044 326 
Q 2575 -91 1722 -91 
Q 1428 -91 1123 -41 
Q 819 9 494 109 
L 494 744 
Q 775 591 1075 516 
Q 1375 441 1709 441 
Q 2250 441 2565 725 
Q 2881 1009 2881 1497 
Q 2881 1984 2565 2268 
Q 2250 2553 1709 2553 
Q 1456 2553 1204 2497 
Q 953 2441 691 2322 
L 691 4666 
z
" transform="scale(0.015625)"/>
     </defs>
     <use xlink:href="#DejaVuSans-32"/>
     <use xlink:href="#DejaVuSans-2e" x="63.623047"/>
     <use xlink:href="#DejaVuSans-30" x="95.410156"/>
     <use xlink:href="#DejaVuSans-35" x="159.033203"/>
     <use xlink:href="#DejaVuSans-20" x="222.65625"/>
     <use xlink:href="#DejaVuSans-6d" x="254.443359"/>
    </g>
   </g>
   <g id="patch_8">
    <path d="M 290.387823 158.560478 
Q 239.211177 158.560478 188.034531 158.560478 
" style="fill: none; stroke: #ff0000; stroke-linecap: round"/>
    <path d="M 286.387823 156.560478 
L 290.387823 158.560478 
L 286.387823 160.560478 
" style="fill: none; stroke: #ff0000; stroke-linecap: round"/>
    <path d="M 192.034531 160.560478 
L 188.034531 158.560478 
L 192.034531 156.560478 
" style="fill: none; stroke: #ff0000; stroke-linecap: round"/>
   </g>
   <g id="text_15">
    <!-- 68.18 cm -->
    <g style="fill: #ff0000" transform="translate(215.687389 153.236923) scale(0.1 -0.1)">
     <use xlink:href="#DejaVuSans-36"/>
     <use xlink:href="#DejaVuSans-38" x="63.623047"/>
     <use xlink:href="#DejaVuSans-2e" x="127.246094"/>
     <use xlink:href="#DejaVuSans-31" x="159.033203"/>
     <use xlink:href="#DejaVuSans-38" x="222.65625"/>
     <use xlink:href="#DejaVuSans-20" x="286.279297"/>
     <use xlink:href="#DejaVuSans-63" x="318.066406"/>
     <use xlink:href="#DejaVuSans-6d" x="373.046875"/>
    </g>
   </g>
   <g id="text_16">
    <!-- Frequency vs. Wavelength - Distance Traveled at Light Speed -->
    <g transform="translate(266.739062 16.318125) scale(0.12 -0.12)">
     <defs>
      <path id="DejaVuSans-46" d="M 628 4666 
L 3309 4666 
L 3309 4134 
L 1259 4134 
L 1259 2759 
L 3109 2759 
L 3109 2228 
L 1259 2228 
L 1259 0 
L 628 0 
L 628 4666 
z
" transform="scale(0.015625)"/>
      <path id="DejaVuSans-71" d="M 947 1747 
Q 947 1113 1208 752 
Q 1469 391 1925 391 
Q 2381 391 2643 752 
Q 2906 1113 2906 1747 
Q 2906 2381 2643 2742 
Q 2381 3103 1925 3103 
Q 1469 3103 1208 2742 
Q 947 2381 947 1747 
z
M 2906 525 
Q 2725 213 2448 61 
Q 2172 -91 1784 -91 
Q 1150 -91 751 415 
Q 353 922 353 1747 
Q 353 2572 751 3078 
Q 1150 3584 1784 3584 
Q 2172 3584 2448 3432 
Q 2725 3281 2906 2969 
L 2906 3500 
L 3481 3500 
L 3481 -1331 
L 2906 -1331 
L 2906 525 
z
" transform="scale(0.015625)"/>
      <path id="DejaVuSans-79" d="M 2059 -325 
Q 1816 -950 1584 -1140 
Q 1353 -1331 966 -1331 
L 506 -1331 
L 506 -850 
L 844 -850 
Q 1081 -850 1212 -737 
Q 1344 -625 1503 -206 
L 1606 56 
L 191 3500 
L 800 3500 
L 1894 763 
L 2988 3500 
L 3597 3500 
L 2059 -325 
z
" transform="scale(0.015625)"/>
      <path id="DejaVuSans-57" d="M 213 4666 
L 850 4666 
L 1831 722 
L 2809 4666 
L 3519 4666 
L 4500 722 
L 5478 4666 
L 6119 4666 
L 4947 0 
L 4153 0 
L 3169 4050 
L 2175 0 
L 1381 0 
L 213 4666 
z
" transform="scale(0.015625)"/>
      <path id="DejaVuSans-2d" d="M 313 2009 
L 1997 2009 
L 1997 1497 
L 313 1497 
L 313 2009 
z
" transform="scale(0.015625)"/>
      <path id="DejaVuSans-54" d="M -19 4666 
L 3928 4666 
L 3928 4134 
L 2272 4134 
L 2272 0 
L 1638 0 
L 1638 4134 
L -19 4134 
L -19 4666 
z
" transform="scale(0.015625)"/>
      <path id="DejaVuSans-4c" d="M 628 4666 
L 1259 4666 
L 1259 531 
L 3531 531 
L 3531 0 
L 628 0 
L 628 4666 
z
" transform="scale(0.015625)"/>
      <path id="DejaVuSans-53" d="M 3425 4513 
L 3425 3897 
Q 3066 4069 2747 4153 
Q 2428 4238 2131 4238 
Q 1616 4238 1336 4038 
Q 1056 3838 1056 3469 
Q 1056 3159 1242 3001 
Q 1428 2844 1947 2747 
L 2328 2669 
Q 3034 2534 3370 2195 
Q 3706 1856 3706 1288 
Q 3706 609 3251 259 
Q 2797 -91 1919 -91 
Q 1588 -91 1214 -16 
Q 841 59 441 206 
L 441 856 
Q 825 641 1194 531 
Q 1563 422 1919 422 
Q 2459 422 2753 634 
Q 3047 847 3047 1241 
Q 3047 1584 2836 1778 
Q 2625 1972 2144 2069 
L 1759 2144 
Q 1053 2284 737 2584 
Q 422 2884 422 3419 
Q 422 4038 858 4394 
Q 1294 4750 2059 4750 
Q 2388 4750 2728 4690 
Q 3069 4631 3425 4513 
z
" transform="scale(0.015625)"/>
     </defs>
     <use xlink:href="#DejaVuSans-46"/>
     <use xlink:href="#DejaVuSans-72" x="50.269531"/>
     <use xlink:href="#DejaVuSans-65" x="89.132812"/>
     <use xlink:href="#DejaVuSans-71" x="150.65625"/>
     <use xlink:href="#DejaVuSans-75" x="214.132812"/>
     <use xlink:href="#DejaVuSans-65" x="277.511719"/>
     <use xlink:href="#DejaVuSans-6e" x="339.035156"/>
     <use xlink:href="#DejaVuSans-63" x="402.414062"/>
     <use xlink:href="#DejaVuSans-79" x="457.394531"/>
     <use xlink:href="#DejaVuSans-20" x="516.574219"/>
     <use xlink:href="#DejaVuSans-76" x="548.361328"/>
     <use xlink:href="#DejaVuSans-73" x="607.541016"/>
     <use xlink:href="#DejaVuSans-2e" x="659.640625"/>
     <use xlink:href="#DejaVuSans-20" x="691.427734"/>
     <use xlink:href="#DejaVuSans-57" x="723.214844"/>
     <use xlink:href="#DejaVuSans-61" x="815.716797"/>
     <use xlink:href="#DejaVuSans-76" x="876.996094"/>
     <use xlink:href="#DejaVuSans-65" x="936.175781"/>
     <use xlink:href="#DejaVuSans-6c" x="997.699219"/>
     <use xlink:href="#DejaVuSans-65" x="1025.482422"/>
     <use xlink:href="#DejaVuSans-6e" x="1087.005859"/>
     <use xlink:href="#DejaVuSans-67" x="1150.384766"/>
     <use xlink:href="#DejaVuSans-74" x="1213.861328"/>
     <use xlink:href="#DejaVuSans-68" x="1253.070312"/>
     <use xlink:href="#DejaVuSans-20" x="1316.449219"/>
     <use xlink:href="#DejaVuSans-2d" x="1348.236328"/>
     <use xlink:href="#DejaVuSans-20" x="1384.320312"/>
     <use xlink:href="#DejaVuSans-44" x="1416.107422"/>
     <use xlink:href="#DejaVuSans-69" x="1493.109375"/>
     <use xlink:href="#DejaVuSans-73" x="1520.892578"/>
     <use xlink:href="#DejaVuSans-74" x="1572.992188"/>
     <use xlink:href="#DejaVuSans-61" x="1612.201172"/>
     <use xlink:href="#DejaVuSans-6e" x="1673.480469"/>
     <use xlink:href="#DejaVuSans-63" x="1736.859375"/>
     <use xlink:href="#DejaVuSans-65" x="1791.839844"/>
     <use xlink:href="#DejaVuSans-20" x="1853.363281"/>
     <use xlink:href="#DejaVuSans-54" x="1885.150391"/>
     <use xlink:href="#DejaVuSans-72" x="1931.484375"/>
     <use xlink:href="#DejaVuSans-61" x="1972.597656"/>
     <use xlink:href="#DejaVuSans-76" x="2033.876953"/>
     <use xlink:href="#DejaVuSans-65" x="2093.056641"/>
     <use xlink:href="#DejaVuSans-6c" x="2154.580078"/>
     <use xlink:href="#DejaVuSans-65" x="2182.363281"/>
     <use xlink:href="#DejaVuSans-64" x="2243.886719"/>
     <use xlink:href="#DejaVuSans-20" x="2307.363281"/>
     <use xlink:href="#DejaVuSans-61" x="2339.150391"/>
     <use xlink:href="#DejaVuSans-74" x="2400.429688"/>
     <use xlink:href="#DejaVuSans-20" x="2439.638672"/>
     <use xlink:href="#DejaVuSans-4c" x="2471.425781"/>
     <use xlink:href="#DejaVuSans-69" x="2527.138672"/>
     <use xlink:href="#DejaVuSans-67" x="2554.921875"/>
     <use xlink:href="#DejaVuSans-68" x="2618.398438"/>
     <use xlink:href="#DejaVuSans-74" x="2681.777344"/>
     <use xlink:href="#DejaVuSans-20" x="2720.986328"/>
     <use xlink:href="#DejaVuSans-53" x="2752.773438"/>
     <use xlink:href="#DejaVuSans-70" x="2816.25"/>
     <use xlink:href="#DejaVuSans-65" x="2879.726562"/>
     <use xlink:href="#DejaVuSans-65" x="2941.25"/>
     <use xlink:href="#DejaVuSans-64" x="3002.773438"/>
    </g>
   </g>
   <g id="legend_1">
    <g id="patch_9">
     <path d="M 224.993281 223.40875 
L 676.438594 223.40875 
Q 678.438594 223.40875 678.438594 221.40875 
L 678.438594 207.730625 
Q 678.438594 205.730625 676.438594 205.730625 
L 224.993281 205.730625 
Q 222.993281 205.730625 222.993281 207.730625 
L 222.993281 221.40875 
Q 222.993281 223.40875 224.993281 223.40875 
z
" style="fill: #ffffff; opacity: 0.8; stroke: #cccccc; stroke-linejoin: miter"/>
    </g>
    <g id="line2d_25">
     <path d="M 226.993281 213.829062 
L 236.993281 213.829062 
L 246.993281 213.829062 
" style="fill: none; stroke: #0000ff; stroke-width: 1.5; stroke-linecap: square"/>
    </g>
    <g id="text_17">
     <!-- 146.52 MHz (Wavelength ≈ 2.05 m) -->
     <g transform="translate(254.993281 217.329062) scale(0.1 -0.1)">
      <defs>
       <path id="DejaVuSans-4d" d="M 628 4666 
L 1569 4666 
L 2759 1491 
L 3956 4666 
L 4897 4666 
L 4897 0 
L 4281 0 
L 4281 4097 
L 3078 897 
L 2444 897 
L 1241 4097 
L 1241 0 
L 628 0 
L 628 4666 
z
" transform="scale(0.015625)"/>
       <path id="DejaVuSans-48" d="M 628 4666 
L 1259 4666 
L 1259 2753 
L 3553 2753 
L 3553 4666 
L 4184 4666 
L 4184 0 
L 3553 0 
L 3553 2222 
L 1259 2222 
L 1259 0 
L 628 0 
L 628 4666 
z
" transform="scale(0.015625)"/>
       <path id="DejaVuSans-7a" d="M 353 3500 
L 3084 3500 
L 3084 2975 
L 922 459 
L 3084 459 
L 3084 0 
L 275 0 
L 275 525 
L 2438 3041 
L 353 3041 
L 353 3500 
z
" transform="scale(0.015625)"/>
       <path id="DejaVuSans-2248" d="M 4684 1947 
L 4684 1388 
Q 4356 1144 4076 1036 
Q 3797 928 3494 928 
Q 3150 928 2694 1113 
Q 2663 1125 2641 1134 
Q 2622 1141 2575 1159 
Q 2091 1350 1797 1350 
Q 1522 1350 1253 1231 
Q 984 1113 678 850 
L 678 1409 
Q 1006 1653 1286 1761 
Q 1566 1869 1869 1869 
Q 2213 1869 2672 1684 
Q 2706 1669 2722 1663 
Q 2741 1656 2788 1638 
Q 3272 1447 3566 1447 
Q 3834 1447 4098 1564 
Q 4363 1681 4684 1947 
z
M 4684 3163 
L 4684 2606 
Q 4356 2359 4076 2251 
Q 3797 2144 3494 2144 
Q 3150 2144 2694 2328 
Q 2663 2341 2641 2350 
Q 2622 2356 2575 2375 
Q 2091 2566 1797 2566 
Q 1522 2566 1253 2447 
Q 984 2328 678 2069 
L 678 2625 
Q 1006 2869 1286 2976 
Q 1566 3084 1869 3084 
Q 2213 3084 2672 2900 
Q 2703 2888 2719 2881 
Q 2741 2872 2788 2853 
Q 3272 2663 3566 2663 
Q 3834 2663 4098 2780 
Q 4363 2897 4684 3163 
z
" transform="scale(0.015625)"/>
      </defs>
      <use xlink:href="#DejaVuSans-31"/>
      <use xlink:href="#DejaVuSans-34" x="63.623047"/>
      <use xlink:href="#DejaVuSans-36" x="127.246094"/>
      <use xlink:href="#DejaVuSans-2e" x="190.869141"/>
      <use xlink:href="#DejaVuSans-35" x="222.65625"/>
      <use xlink:href="#DejaVuSans-32" x="286.279297"/>
      <use xlink:href="#DejaVuSans-20" x="349.902344"/>
      <use xlink:href="#DejaVuSans-4d" x="381.689453"/>
      <use xlink:href="#DejaVuSans-48" x="467.96875"/>
      <use xlink:href="#DejaVuSans-7a" x="543.164062"/>
      <use xlink:href="#DejaVuSans-20" x="595.654297"/>
      <use xlink:href="#DejaVuSans-28" x="627.441406"/>
      <use xlink:href="#DejaVuSans-57" x="666.455078"/>
      <use xlink:href="#DejaVuSans-61" x="758.957031"/>
      <use xlink:href="#DejaVuSans-76" x="820.236328"/>
      <use xlink:href="#DejaVuSans-65" x="879.416016"/>
      <use xlink:href="#DejaVuSans-6c" x="940.939453"/>
      <use xlink:href="#DejaVuSans-65" x="968.722656"/>
      <use xlink:href="#DejaVuSans-6e" x="1030.246094"/>
      <use xlink:href="#DejaVuSans-67" x="1093.625"/>
      <use xlink:href="#DejaVuSans-74" x="1157.101562"/>
      <use xlink:href="#DejaVuSans-68" x="1196.310547"/>
      <use xlink:href="#DejaVuSans-20" x="1259.689453"/>
      <use xlink:href="#DejaVuSans-2248" x="1291.476562"/>
      <use xlink:href="#DejaVuSans-20" x="1375.265625"/>
      <use xlink:href="#DejaVuSans-32" x="1407.052734"/>
      <use xlink:href="#DejaVuSans-2e" x="1470.675781"/>
      <use xlink:href="#DejaVuSans-30" x="1502.462891"/>
      <use xlink:href="#DejaVuSans-35" x="1566.085938"/>
      <use xlink:href="#DejaVuSans-20" x="1629.708984"/>
      <use xlink:href="#DejaVuSans-6d" x="1661.496094"/>
      <use xlink:href="#DejaVuSans-29" x="1758.908203"/>
     </g>
    </g>
    <g id="line2d_26">
     <path d="M 454.785469 213.829062 
L 464.785469 213.829062 
L 474.785469 213.829062 
" style="fill: none; stroke: #ff0000; stroke-width: 1.5; stroke-linecap: square"/>
    </g>
    <g id="text_18">
     <!-- 440.00 MHz (Wavelength ≈ 68.18 cm) -->
     <g transform="translate(482.785469 217.329062) scale(0.1 -0.1)">
      <use xlink:href="#DejaVuSans-34"/>
      <use xlink:href="#DejaVuSans-34" x="63.623047"/>
      <use xlink:href="#DejaVuSans-30" x="127.246094"/>
      <use xlink:href="#DejaVuSans-2e" x="190.869141"/>
      <use xlink:href="#DejaVuSans-30" x="222.65625"/>
      <use xlink:href="#DejaVuSans-30" x="286.279297"/>
      <use xlink:href="#DejaVuSans-20" x="349.902344"/>
      <use xlink:href="#DejaVuSans-4d" x="381.689453"/>
      <use xlink:href="#DejaVuSans-48" x="467.96875"/>
      <use xlink:href="#DejaVuSans-7a" x="543.164062"/>
      <use xlink:href="#DejaVuSans-20" x="595.654297"/>
      <use xlink:href="#DejaVuSans-28" x="627.441406"/>
      <use xlink:href="#DejaVuSans-57" x="666.455078"/>
      <use xlink:href="#DejaVuSans-61" x="758.957031"/>
      <use xlink:href="#DejaVuSans-76" x="820.236328"/>
      <use xlink:href="#DejaVuSans-65" x="879.416016"/>
      <use xlink:href="#DejaVuSans-6c" x="940.939453"/>
      <use xlink:href="#DejaVuSans-65" x="968.722656"/>
      <use xlink:href="#DejaVuSans-6e" x="1030.246094"/>
      <use xlink:href="#DejaVuSans-67" x="1093.625"/>
      <use xlink:href="#DejaVuSans-74" x="1157.101562"/>
      <use xlink:href="#DejaVuSans-68" x="1196.310547"/>
      <use xlink:href="#DejaVuSans-20" x="1259.689453"/>
      <use xlink:href="#DejaVuSans-2248" x="1291.476562"/>
      <use xlink:href="#DejaVuSans-20" x="1375.265625"/>
      <use xlink:href="#DejaVuSans-36" x="1407.052734"/>
      <use xlink:href="#DejaVuSans-38" x="1470.675781"/>
      <use xlink:href="#DejaVuSans-2e" x="1534.298828"/>
      <use xlink:href="#DejaVuSans-31" x="1566.085938"/>
      <use xlink:href="#DejaVuSans-38" x="1629.708984"/>
      <use xlink:href="#DejaVuSans-20" x="1693.332031"/>
      <use xlink:href="#DejaVuSans-63" x="1725.119141"/>
      <use xlink:href="#DejaVuSans-6d" x="1780.099609"/>
      <use xlink:href="#DejaVuSans-29" x="1877.511719"/>
     </g>
    </g>
   </g>
  </g>
 </g>
 <defs>
  <clipPath id="p4c4b67268b">
   <rect x="52.160938" y="22.318125" width="797.11" height="142.73"/>
  </clipPath>
 </defs>
</svg>
