<?xml version="1.0" encoding="UTF-8"?>
<svg id="Layer_1" xmlns="http://www.w3.org/2000/svg" version="1.1" viewBox="0 0 343.9 343.9" width="100" height="100">
  <path d="M287.6,320.2l-100.7-228.1c9.7-4.9,16.7-14.9,16.7-26.7s-13.5-29.9-29.9-29.9-30.2,13.2-30.2,29.9,6.9,21.9,16.7,26.7l-100.7,228.1c-3.8,8.7,0,18.4,8.7,22.2,8.7,3.8,18.4,0,22.2-8.7l20.8-47.2h125l20.8,47.2c2.8,6.3,9,10.1,15.3,10.1s4.5-.3,6.9-1.4c8.3-3.8,12.2-13.9,8.3-22.2M126.1,252.8l47.6-107.3,47.6,107.3h-95.1Z" fill="#00bcd6"/>
  <path d="M52.8,2.4c1.4-2.4,4.5-3.1,6.9-1.7,2.4,1.4,3.1,4.5,1.7,6.9-9.4,16.7-14.6,35.8-14.6,55.6s4.5,36.1,12.8,52.1c.7,1.4.7,2.4.3,3.8-.3,1.4-1,2.4-2.4,3.1-.7.3-1.4.3-2.4.3-1.7,0-3.5-1-4.5-2.8-9-17.4-14.2-36.8-14.2-56.6S42.4,20.8,52.8,2.4" fill="#00bcd6"/>
  <path d="M105.3,103.1c.7,0,1.7-.3,2.4-.7,2.4-1.4,3.5-4.2,2.1-6.6-5.6-10.1-8.3-21.2-8.3-32.3s3.5-25.3,10.4-36.5c1.4-2.4.7-5.2-1.4-6.9-2.4-1.4-5.2-.7-6.9,1.4-7.6,12.8-11.8,27.1-11.8,42s3.1,25.7,9.4,37.2c.7,1.4,2.4,2.4,4.2,2.4" fill="#00bcd6"/>
  <path d="M291,2.4c-1.4-2.4-4.9-3.1-6.9-1.7-2.4,1.4-3.1,4.5-1.7,6.9,9.4,16.7,14.6,35.8,14.6,55.6s-4.5,36.1-12.8,52.1c-.7,1-.7,2.4-.3,3.8.3,1.4,1,2.4,2.4,3.1s1.4.7,2.4.7c1.7,0,3.5-1,4.5-2.8,9-17.7,14.2-37.2,14.2-56.9s-5.9-42.4-16.3-60.8" fill="#00bcd6"/>
  <path d="M238.6,103.1c-.7,0-1.7-.3-2.4-.7-2.4-1.4-3.5-4.2-2.1-6.6,5.6-10.1,8.3-21.2,8.3-32.3s-3.5-25.3-10.4-36.5c-1.4-2.4-.7-5.2,1.4-6.9,2.4-1.4,5.2-.7,6.9,1.4,8,12.5,12.2,26.7,12.2,41.7s-3.1,25.7-9.4,37.2c-1,1.7-2.8,2.8-4.5,2.8" fill="#00bcd6"/>
</svg>