<?xml version="1.0" encoding="UTF-8"?>
<svg id="Layer_1" xmlns="http://www.w3.org/2000/svg" width="1.389in" height=".556in" version="1.1" viewBox="0 0 100 40">
  <!-- Generator: Adobe Illustrator 29.4.0, SVG Export Plug-In . SVG Version: 2.1.0 Build 152)  -->
  <defs>
    <style>
      .st0 {
        fill: #d60000;
      }
    </style>
  </defs>
  <path d="M38.1,15.5c1.5,0,2.7,1.2,2.7,2.7s-1.2,2.7-2.7,2.7-2.7-1.2-2.7-2.7,1.2-2.7,2.7-2.7M38.1,13.5c-2.6,0-4.7,2.1-4.7,4.7s2.1,4.7,4.7,4.7,4.7-2.1,4.7-4.7-2.1-4.7-4.7-4.7h0Z"/>
  <path d="M34.4,19.1H3.1c-.5,0-.9-.4-.9-.9s.4-.9.9-.9h31.3c.5,0,.9.4.9.9s-.4.9-.9.9Z"/>
  <path d="M41.9,16c-.3,0-.6-.1-.7-.4-.3-.4,0-.9.3-1.2L58.9,3.4c.4-.3.9,0,1.2.3s0,.9-.3,1.2l-17.5,11s-.3.1-.5.1h.1Z"/>
  <path d="M96.9,19.1h-31.3c-.5,0-.9-.4-.9-.9s.4-.9.9-.9h31.3c.5,0,.9.4.9.9s-.4.9-.9.9Z"/>
  <g>
    <path id="DejaVuSans-53" d="M40.95,27.2v1.2c-.5-.2-.9-.4-1.3-.5s-.8-.2-1.2-.2c-.7,0-1.2.1-1.5.4-.4.3-.5.6-.5,1.1s.1.7.4.9c.2.2.7.4,1.3.5h.7c.9.3,1.6.6,2,1.1s.6,1,.6,1.7-.3,1.5-.9,2c-.6.4-1.4.7-2.5.7h-1.3c-.5,0-1-.2-1.5-.4v-1.2c.5.3,1,.5,1.4.6.5,0,.9.2,1.4.2s1.2,0,1.6-.4c.4-.3.6-.7.6-1.2s-.1-.8-.4-1-.7-.4-1.3-.6h-.7c-.9-.3-1.5-.6-1.9-1s-.6-.9-.6-1.6.3-1.4.8-1.9c.6-.5,1.3-.7,2.3-.7s.8,0,1.3.1c.4,0,.9.2,1.3.3h-.1v-.1Z"/>
    <path id="DejaVuSans-50" d="M44.65,27.9v3.3h1.5c.6,0,1-.1,1.3-.4s.5-.7.5-1.2-.2-.9-.5-1.2c-.3-.3-.7-.4-1.3-.4h-1.5v-.1ZM43.45,26.9h2.7c1,0,1.7.2,2.3.7.5.5.8,1.1.8,2s-.3,1.5-.8,2c-.5.4-1.3.7-2.3.7h-1.5v3.6h-1.2v-8.9h0v-.1Z"/>
    <path id="DejaVuSans-54" d="M57.25,26.9h7.5v1h-3.2v7.9h-1.2v-7.9h-3.2v-1h.1Z"/>
    <path id="DejaVuSans-20" d="M64.75,35.8"/>
    <path id="DejaVuSans-531" data-name="DejaVuSans-53" class="st0" d="M56.2,27.2v1.2c-.5-.2-.9-.4-1.3-.5s-.8-.2-1.2-.2c-.7,0-1.2.1-1.5.4-.4.3-.5.6-.5,1.1s.1.7.4.9c.2.2.7.4,1.3.5h.7c.9.3,1.6.6,2,1.1s.6,1,.6,1.7-.3,1.5-.9,2c-.6.4-1.4.7-2.5.7h-1.3c-.5,0-1-.2-1.5-.4v-1.2c.5.3,1,.5,1.4.6.5,0,.9.2,1.4.2s1.2,0,1.6-.4c.4-.3.6-.7.6-1.2s-.1-.8-.4-1-.7-.4-1.3-.6h-.7c-.9-.3-1.5-.6-1.9-1s-.6-.9-.6-1.6.3-1.4.8-1.9c.6-.5,1.3-.7,2.3-.7s.8,0,1.3.1c.4,0,.9.2,1.3.3h-.1v-.1Z"/>
  </g>
  <path d="M61.9,15.4c1.5,0,2.7,1.2,2.7,2.7s-1.2,2.7-2.7,2.7-2.7-1.2-2.7-2.7,1.2-2.7,2.7-2.7M61.9,13.4c-2.6,0-4.7,2.1-4.7,4.7s2.1,4.7,4.7,4.7,4.7-2.1,4.7-4.7-2.1-4.7-4.7-4.7h0Z"/>
</svg>