<?xml version="1.0" encoding="UTF-8"?>
<svg id="Layer_1" xmlns="http://www.w3.org/2000/svg" version="1.1" viewBox="0 0 100 11.7" width="100" height="11.7">
  <!-- Generator: Adobe Illustrator 29.4.0, SVG Export Plug-In . SVG Version: 2.1.0 Build 152)  -->
  <defs>
    <style>
      .st0 { fill: #010101; }
    </style>
  </defs>
  <g>
    <rect class="st0" x="25.5" y="1.3" width="2" height="3.2"/>
    <path class="st0" d="M39.2,4.5c0,3.9-3,6.9-6.9,6.9s-6.9-3-6.9-6.9.4-1,1-1,1,.4,1,1c0,2.7,2.2,4.9,4.9,4.9s4.9-2.2,4.9-4.9.4-1,1-1,1,.4,1,1Z"/>
    <rect class="st0" x="37.2" y=".8" width="2" height="3.2"/>
    <path class="st0" d="M51,4c0,3.9-3,6.9-6.9,6.9s-6.9-3-6.9-6.9.4-1,1-1,1,.4,1,1c0,2.7,2.2,4.9,4.9,4.9s4.9-2.2,4.9-4.9.4-1,1-1,1,.4,1,1Z"/>
    <rect class="st0" x="49" y=".8" width="2" height="3.2"/>
    <path class="st0" d="M62.8,4c0,3.9-3,6.9-6.9,6.9s-6.9-3-6.9-6.9.4-1,1-1,1,.4,1,1c0,2.7,2.2,4.9,4.9,4.9s4.9-2.2,4.9-4.9.4-1,1-1,1,.4,1,1Z"/>
    <rect class="st0" x="60.8" y=".8" width="2" height="3.2"/>
    <path class="st0" d="M74.7,4c0,3.9-3,6.9-6.9,6.9s-6.9-3-6.9-6.9.4-1,1-1,1,.4,1,1c0,2.7,2.2,4.9,4.9,4.9s4.9-2.2,4.9-4.9.4-1,1-1,1,.4,1,1Z"/>
    <rect class="st0" x="72.7" y="1" width="2" height="3"/>
    <path class="st0" d="M98.2,1.3c0,.6-.4,1-1,1h-23.6c-.6,0-1-.4-1-1s.4-1,1-1h23.6c.6,0,1,.4,1,1Z"/>
    <path class="st0" d="M27.5,1.3c0,.6-.4,1-1,1H2.8c-.6,0-1-.4-1-1s.4-1,1-1h23.7c.6,0,1,.4,1,1Z"/>
  </g>
</svg>