<?xml version="1.0" encoding="UTF-8"?>
<svg id="Layer_1" xmlns="http://www.w3.org/2000/svg" width="100" height="20" version="1.1" viewBox="0 0 100 20">
  <!-- Generator: Adobe Illustrator 29.4.0, SVG Export Plug-In . SVG Version: 2.1.0 Build 152)  -->
  <defs>
    <style>
      .st0 {
        fill: none;
        stroke: #000;
        stroke-linecap: round;
        stroke-linejoin: round;
        stroke-width: 2px;
      }
    </style>
  </defs>
  <g>
    <path class="st0" d="M45,3.9l9.9,7.1-9.9,7.1V3.9Z"/>
    <line class="st0" x1="7.4" y1="11" x2="45" y2="11"/>
    <line class="st0" x1="55" y1="3.9" x2="55" y2="18.1"/>
    <line class="st0" x1="55" y1="11" x2="92.6" y2="11"/>
  </g>
  <g>
    <path id="DejaVuSans-41" d="M4.3,2.1l-1.2,3.2h2.3l-1.2-3.2h.1ZM3.8,1.3h1l2.4,6.4h-.9l-.6-1.6h-2.9l-.6,1.6h-.9L3.8,1.3Z"/>
    <path id="DejaVuSans-6e" d="M12.1,4.8v2.9h-.8v-2.9c0-.5,0-.8-.3-1-.2-.2-.4-.3-.8-.3s-.8,0-1,.4c-.2.3-.4.6-.4,1.1v2.7h-.8V2.9h.8v.7c.2-.3.4-.5.7-.6.3,0,.5-.2.9-.2s1,.2,1.2.5c.3.3.4.8.4,1.5h.1Z"/>
    <path id="DejaVuSans-6f" d="M15.5,3.4c-.4,0-.8.2-1,.5-.2.3-.4.8-.4,1.3s.1,1,.4,1.3c.2.3.6.5,1,.5s.7-.2,1-.5c.2-.3.4-.8.4-1.3s-.1-1-.4-1.3c-.2-.3-.6-.5-1-.5ZM15.5,2.8c.7,0,1.2.2,1.6.7.4.4.6,1.1.6,1.8s-.2,1.4-.6,1.8-.9.7-1.6.7-1.2-.2-1.6-.7c-.4-.4-.6-1.1-.6-1.8s.2-1.4.6-1.8c.4-.4.9-.7,1.6-.7Z"/>
    <path id="DejaVuSans-64" d="M22.2,3.6V1h.8v6.6h-.8v-.7c-.2.3-.4.5-.6.6-.3,0-.6.2-.9.2-.6,0-1-.2-1.4-.7s-.5-1.1-.5-1.8.2-1.4.5-1.8c.4-.5.8-.7,1.4-.7s.7,0,.9.2c.3,0,.5.3.6.6h0ZM19.5,5.3c0,.6.1,1,.4,1.4.2.3.6.5,1,.5s.7-.2,1-.5c.2-.3.4-.8.4-1.4s-.1-1-.4-1.4c-.2-.3-.6-.5-1-.5s-.7.2-1,.5c-.3.3-.4.8-.4,1.4Z"/>
    <path id="DejaVuSans-65" d="M28.6,5.1v.4h-3.6c0,.5.2,1,.5,1.2.3.3.7.4,1.2.4s.6,0,.9,0,.6-.2.8-.3v.7c-.3,0-.6.2-.9.3s-.6,0-.9,0c-.8,0-1.4-.2-1.8-.7-.4-.4-.7-1-.7-1.8s.2-1.4.6-1.9,1-.7,1.7-.7,1.2.2,1.5.6c.4.4.6,1,.6,1.7v.2ZM27.9,4.8c0-.4-.1-.8-.4-1-.2-.3-.5-.4-.9-.4s-.8,0-1.1.4-.4.6-.5,1h2.9Z"/>
  </g>
  <g>
    <path id="DejaVuSans-43" d="M68,1.8v.9c-.3-.3-.6-.5-.9-.6-.3-.1-.7-.2-1-.2-.7,0-1.3.2-1.7.7s-.6,1.1-.6,1.9.2,1.5.6,1.9.9.7,1.7.7.7,0,1-.2.6-.3.9-.6v.9c-.3.2-.6.4-1,.5-.3,0-.7.2-1.1.2-1,0-1.7-.3-2.3-.9-.6-.6-.8-1.4-.8-2.4s.3-1.8.8-2.4c.6-.6,1.3-.9,2.3-.9s.7,0,1.1.2c.3.1.7.3,1,.5v-.2Z"/>
    <path id="DejaVuSans-61" d="M71.5,5.3c-.6,0-1.1,0-1.3.2s-.4.4-.4.7,0,.5.3.7c.2.2.4.2.7.2s.8-.2,1-.5.4-.7.4-1.2v-.2h-.8.1ZM73,5v2.7h-.8v-.7c-.2.3-.4.5-.7.6-.3,0-.6.2-1,.2s-.9,0-1.2-.4c-.3-.3-.4-.6-.4-1.1s.2-.9.5-1.2c.4-.3.9-.4,1.6-.4h1.1c0-.4,0-.7-.4-.9s-.6-.3-1-.3h-.8c-.3,0-.5.2-.7.3v-.7c.3,0,.6-.2.8-.2h.8c.7,0,1.2.2,1.5.5.3.4.5.9.5,1.6h.2Z"/>
    <path id="DejaVuSans-74" d="M75.4,1.6v1.4h1.6v.6h-1.6v2.6c0,.4,0,.6.2.8s.3.2.7.2h.8v.7h-.8c-.6,0-1,0-1.3-.3-.2-.2-.3-.6-.3-1.2v-2.6h-.6v-.6h.6v-1.4h.8v-.2Z"/>
    <path id="DejaVuSans-68" d="M82.1,4.8v2.9h-.8v-2.9c0-.5,0-.8-.3-1-.2-.2-.4-.3-.8-.3s-.8,0-1,.4c-.2.3-.4.6-.4,1.1v2.7h-.8V1.1h.8v2.6c.2-.3.4-.5.7-.6.3,0,.5-.2.9-.2s1,.2,1.2.5c.3.3.4.8.4,1.5h.1Z"/>
    <path id="DejaVuSans-6f1" d="M85.5,3.5c-.4,0-.8.2-1,.5-.2.3-.4.8-.4,1.3s0,1,.4,1.3c.2.3.6.5,1,.5s.7-.2,1-.5c.2-.3.4-.8.4-1.3s0-1-.4-1.3c-.2-.3-.6-.5-1-.5ZM85.5,2.8c.7,0,1.2.2,1.6.7.4.4.6,1.1.6,1.8s-.2,1.4-.6,1.8-.9.7-1.6.7-1.2-.2-1.6-.7c-.4-.4-.6-1.1-.6-1.8s.2-1.4.6-1.8c.4-.4.9-.7,1.6-.7Z"/>
    <path id="DejaVuSans-641" d="M92.1,3.7V1.1h.8v6.6h-.8v-.7c-.2.3-.4.5-.6.6-.3,0-.6.2-.9.2-.6,0-1-.2-1.4-.7s-.5-1.1-.5-1.8.2-1.4.5-1.8c.4-.5.8-.7,1.4-.7s.7,0,.9.2c.3,0,.5.3.6.6h0ZM89.4,5.3c0,.6,0,1,.4,1.4.2.3.6.5,1,.5s.7-.2,1-.5c.2-.3.4-.8.4-1.4s0-1-.4-1.4c-.2-.3-.6-.5-1-.5s-.7.2-1,.5c-.3.3-.4.8-.4,1.4Z"/>
    <path id="DejaVuSans-651" d="M98.6,5.1v.4h-3.6c0,.5.2,1,.5,1.2.3.3.7.4,1.2.4s.6,0,.9,0,.6-.2.8-.3v.7c-.3,0-.6.2-.9.3s-.6,0-.9,0c-.8,0-1.4-.2-1.8-.7-.4-.4-.7-1-.7-1.8s.2-1.4.6-1.9,1-.7,1.7-.7,1.2.2,1.5.6c.4.4.6,1,.6,1.7v.2ZM97.8,4.9c0-.4,0-.8-.4-1-.2-.3-.5-.4-.9-.4s-.8,0-1.1.4-.4.6-.5,1h2.9Z"/>
  </g>
</svg>