<?xml version="1.0" encoding="UTF-8"?>
<svg id="Layer_1" xmlns="http://www.w3.org/2000/svg" width="1.389in" height="1in" version="1.1" viewBox="0 0 100 72">
  <!-- Generator: Adobe Illustrator 29.4.0, SVG Export Plug-In . SVG Version: 2.1.0 Build 152)  -->
  <path d="M46.8,70.4c-.552,0-1-.447-1-1V18c0-.552.448-1,1-1s1,.448,1,1v51.4c0,.553-.448,1-1,1Z"/>
  <path d="M53.2,70.4c-.553,0-1-.447-1-1V18c0-.552.447-1,1-1s1,.448,1,1v51.4c0,.553-.447,1-1,1Z"/>
  <path d="M33.9,31.8v-2c2.927,0,5.4-2.473,5.4-5.4s-2.473-5.4-5.4-5.4v-2c4.08,0,7.4,3.32,7.4,7.4s-3.32,7.4-7.4,7.4Z"/>
  <path d="M33.9,44.7v-2c2.927,0,5.4-2.473,5.4-5.4s-2.473-5.4-5.4-5.4v-2c4.08,0,7.4,3.32,7.4,7.4s-3.32,7.4-7.4,7.4Z"/>
  <path d="M33.9,57.5v-2c2.927,0,5.4-2.473,5.4-5.4s-2.473-5.399-5.4-5.399v-2c4.08,0,7.4,3.319,7.4,7.399s-3.32,7.4-7.4,7.4Z"/>
  <path d="M33.9,70.4v-2c2.927,0,5.4-2.473,5.4-5.4s-2.473-5.4-5.4-5.4v-2c4.08,0,7.4,3.319,7.4,7.4s-3.32,7.4-7.4,7.4Z"/>
  <path d="M33.9,19H1.8c-.552,0-1-.448-1-1s.448-1,1-1h32.1c.552,0,1,.448,1,1s-.448,1-1,1Z"/>
  <path d="M33.9,70.4H1.8c-.552,0-1-.447-1-1s.448-1,1-1h32.1c.552,0,1,.447,1,1s-.448,1-1,1Z"/>
  <path d="M66.1,31.8c-4.08,0-7.399-3.32-7.399-7.4s3.319-7.4,7.399-7.4v2c-2.927,0-5.399,2.473-5.399,5.4s2.473,5.4,5.399,5.4v2Z"/>
  <path d="M66.1,44.6c-4.08,0-7.399-3.319-7.399-7.399s3.319-7.4,7.399-7.4v2c-2.927,0-5.399,2.473-5.399,5.4s2.473,5.399,5.399,5.399v2Z"/>
  <path d="M66.1,57.5c-4.08,0-7.399-3.319-7.399-7.4s3.319-7.399,7.399-7.399v2c-2.927,0-5.399,2.473-5.399,5.399s2.473,5.4,5.399,5.4v2Z"/>
  <path d="M66.1,70.3c-4.08,0-7.399-3.319-7.399-7.399s3.319-7.4,7.399-7.4v2c-2.927,0-5.399,2.473-5.399,5.4s2.473,5.399,5.399,5.399v2Z"/>
  <path d="M98.2,19h-32.101c-.553,0-1-.448-1-1s.447-1,1-1h32.101c.553,0,1,.448,1,1s-.447,1-1,1Z"/>
  <path d="M98.2,70.4h-32.101c-.553,0-1-.447-1-1s.447-1,1-1h32.101c.553,0,1,.447,1,1s-.447,1-1,1Z"/>
  <path id="DejaVuSans-54" d="M12.3,3h7.7v1h-3.2v8.1h-1.2V4.1h-3.3v-1.1Z"/>
  <path id="DejaVuSans-72" d="M23.3,6.4c-.1,0-.3-.1-.4-.2h-.5c-.6,0-1.1.2-1.5.6-.6.6-.5,1-.5,1.8v3.6h-1.1v-6.9h1.1v1.1c.2-.4.5-.7.9-.9.4-.2.8-.3,1.4-.3h.6v1.2Z"/>
  <path id="DejaVuSans-61" d="M27.6,8.7c-.9,0-1.5.1-1.9.3s-.5.6-.5,1.1.1.7.4,1c.3.2.6.4,1.1.4s1.1-.2,1.5-.7.6-1,.6-1.8v-.3h-1.2ZM29.9,8.3v3.9h-1.1v-1c-.3.4-.6.7-1,.9s-.9.3-1.4.3-1.3-.2-1.7-.6-.6-.9-.6-1.6.3-1.4.8-1.7c.5-.4,1.3-.6,2.3-.6h1.6c0-.6-.2-1-.5-1.3s-.8-.4-1.4-.4-.8,0-1.1.1c-.4,0-.7.2-1.1.4v-1c.4-.2.8-.3,1.2-.4.4,0,.8-.1,1.1-.1,1,0,1.7.3,2.2.8s.7,1.3.7,2.3"/>
  <path id="DejaVuSans-6e" d="M37.9,8v4.1h-1.1v-4.1c0-.6-.1-1.1-.4-1.5-.3-.3-.6-.5-1.1-.5s-1.1.2-1.4.6c-.4.4-.5.9-.5,1.6v3.9h-1.1v-6.9h1.1v1.1c.3-.4.6-.7,1-.9s.8-.3,1.3-.3c.8,0,1.4.2,1.8.7s.6,1.2.6,2.2"/>
  <path id="DejaVuSans-73" d="M44.5,5.5v1.1c-.3-.2-.6-.3-1-.4-.3,0-.7-.1-1.1-.1-.6,0-1,0-1.3.3-.3.2-.4.4-.4.8s.1.5.3.6.6.3,1.2.4h.4c.8.3,1.4.5,1.7.8s.5.7.5,1.3-.3,1.1-.8,1.5c-.5.4-1.2.6-2.1.6-1.35,0-.8,0-1.1-.1-.4,0-.8-.2-1.3-.3v-1.2c.4.2.8.4,1.2.5s.8.2,1.2.2.9,0,1.2-.3c.3-.2.4-.4.4-.8s-.1-.5-.3-.7-.7-.3-1.4-.5h-.4c-.7-.2-1.2-.5-1.5-.8s-.5-.7-.5-1.3.2-1.1.7-1.5,1.1-.5,1.9-.5h1.2c.4,0,.7.2,1,.3"/>
  <path id="DejaVuSans-66" d="M50.2,2.6v.9h-1.1c-.4,0-.7,0-.8.2-.2.2-.2.5-.2.9v.6h1.9v.9h-1.9v6h-1.1v-6h-1.1v-.9h1.1v-.5c0-.8.2-1.3.5-1.7.4-.4.9-.5,1.7-.5h1.1l-.1.1Z"/>
  <path id="DejaVuSans-6f" d="M53.8,6.1c-.6,0-1.1.2-1.4.7s-.5,1.1-.5,1.9.2,1.5.5,1.9c.4.5.8.7,1.4.7s1.1-.2,1.4-.7c.4-.5.5-1.1.5-1.9s-.2-1.5-.5-1.9c-.4-.5-.8-.7-1.4-.7M53.8,5.1c1,0,1.8.3,2.3,1,.6.6.8,1.5.8,2.6s-.3,2-.8,2.6c-.6.6-1.3,1-2.3,1s-1.8-.3-2.3-1c-.6-.6-.8-1.5-.8-2.6s.3-2,.8-2.6c.6-.6,1.3-1,2.3-1"/>
  <path id="DejaVuSans-721" d="M62.8,6.4c-.1,0-.3-.1-.4-.2h-.5c-.6,0-1.1.2-1.5.6-.6.6-.5,1-.5,1.8v3.6h-1.1v-6.9h1.1v1.1c.2-.4.5-.7.9-.9.4-.2.8-.3,1.4-.3h.6v1.2Z"/>
  <path id="DejaVuSans-6d" d="M69.1,6.6c.3-.5.6-.9,1-1.1s.9-.4,1.4-.4,1.3.3,1.7.8c.4.5.6,1.2.6,2.1v4.1h-1.1v-4.1c0-.7-.1-1.1-.4-1.5-.2-.3-.6-.5-1.1-.5s-1,.2-1.4.6c-.3.4-.5.9-.5,1.6v3.9h-1.1v-4.1c0-.7-.1-1.2-.3-1.5-.3-.45-.6-.5-1.1-.5s-1,.2-1.4.6c-.3.4-.5.9-.5,1.6v3.9h-1.1v-6.9h1.1v1.1c.3-.4.6-.7.9-.9.45-.3.8-.3,1.3-.3s.9.1,1.3.4c.3.3.6.6.8,1.1"/>
  <path id="DejaVuSans-65" d="M81.8,8.5v.6h-5.2c0,.8.3,1.4.7,1.8s1,.6,1.7.6.9,0,1.3-.2.8-.3,1.2-.5v1.1c-.4.2-.8.3-1.2.4s-.9.1-1.3.1c-1.1,0-2-.3-2.6-1-.6-.6-1-1.5-1-2.6s.3-2,.9-2.7,1.4-1,2.5-1,1.7.3,2.2.9.8,1.4.8,2.4M80.7,8.1c0-.6-.2-1.1-.5-1.5s-.8-.6-1.3-.6-1.1.2-1.5.5-.6.9-.7,1.5h4v.1Z"/>
  <path id="DejaVuSans-722" d="M87.7,6.4c-.1,0-.3-.1-.4-.2h-.5c-.6,0-1.1.2-1.5.6-.6.6-.5,1-.5,1.8v3.6h-1.1v-6.9h1.1v1.1c.2-.4.5-.7.9-.9.4-.2.8-.3,1.4-.3h.6v1.2Z"/>
  <path id="DejaVuSans-49" d="M9.3,21.6h1.2v9.2h-1.2v-9.2Z"/>
  <path id="DejaVuSans-6e1" d="M18.7,26.6v4.1h-1.1v-4.1c0-.6-.1-1.1-.4-1.5-.3-.3-.6-.5-1.1-.5s-1.1.2-1.4.6c-.4.4-.5.9-.5,1.6v3.9h-1.1v-6.9h1.1v1.1c.3-.4.6-.7,1-.9s.8-.3,1.3-.3c.8,0,1.4.2,1.8.7s.6,1.2.6,2.2"/>
  <path id="DejaVuSans-31" d="M21.3,29.7h2v-7l-2.2.4v-1.1l2.2-.4h1.2v8.1h2v1h-5.3v-1h.1Z"/>
  <path id="DejaVuSans-491" d="M9.3,54.4h1.2v9.2h-1.2v-9.2Z"/>
  <path id="DejaVuSans-6e2" d="M18.7,59.4v4.1h-1.1v-4.1c0-.6-.1-1.1-.4-1.5-.3-.3-.6-.5-1.1-.5s-1.1.2-1.4.6c-.4.4-.5.9-.5,1.6v3.9h-1.1v-6.9h1.1v1.1c.3-.4.6-.7,1-.9s.8-.3,1.3-.3c.8,0,1.4.2,1.8.7s.6,1.2.6,2.2"/>
  <path id="DejaVuSans-32" d="M22.1,62.5h4.3v1h-5.8v-1c.5-.5,1.1-1.1,1.9-2,.8-.8,1.3-1.3,1.5-1.6.4-.4.7-.8.8-1.1.2-.3.2-.6.2-.9,0-.5-.2-.9-.5-1.2s-.8-.5-1.3-.5-.8,0-1.2.2c-.4.1-.9.3-1.4.6v-1.3c.5-.2,1-.4,1.4-.5s.8-.2,1.2-.2c.9,0,1.7.2,2.3.7s.8,1.1.8,1.9,0,.7-.2,1.1c-.1.3-.4.7-.8,1.2-.1.1-.4.5-1,1-.5.6-1.3,1.4-2.3,2.4"/>
  <path id="DejaVuSans-4f" d="M71.7,22.4c-.9,0-1.6.3-2.1,1s-.8,1.6-.8,2.7.3,2.1.8,2.7c.5.7,1.2,1,2.1,1s1.6-.3,2.1-1,.8-1.6.8-2.7-.3-2.1-.8-2.7c-.5-.7-1.2-1-2.1-1M71.7,21.4c1.3,0,2.3.4,3.1,1.3s1.2,2,1.2,3.5-.4,2.6-1.2,3.5-1.8,1.3-3.1,1.3-2.3-.4-3.1-1.3-1.2-2-1.2-3.5.4-2.6,1.2-3.5,1.8-1.3,3.1-1.3"/>
  <path id="DejaVuSans-75" d="M77.7,28v-4.2h1.1v4.1c0,.6.1,1.1.4,1.5.3.3.6.5,1.1.5s1.1-.2,1.4-.6c.4-.4.5-.9.5-1.6v-3.9h1.1v6.9h-1.1v-1.1c-.3.4-.6.7-1,.9s-.8.3-1.3.3c-.8,0-1.4-.2-1.8-.7s-.6-1.2-.6-2.2"/>
  <path id="DejaVuSans-74" d="M86.9,21.9v1.9h2.3v.9h-2.3v3.7c0,.6,0,.9.2,1.1s.5.2.9.2h1.2v.9h-1.2c-.9,0-1.5-.2-1.8-.5s-.5-.9-.5-1.8v-3.7h-.8v-.9h.8v-1.9h1.1l.1.1Z"/>
  <path id="DejaVuSans-311" d="M91.1,29.7h2v-7l-2.2.4v-1.1l2.2-.4h1.2v8.1h2v1h-5.3v-1h.1Z"/>
  <path id="DejaVuSans-4f1" d="M71.7,55.2c-.9,0-1.6.3-2.1,1s-.8,1.6-.8,2.7.3,2.1.8,2.7c.5.7,1.2,1,2.1,1s1.6-.3,2.1-1,.8-1.6.8-2.7-.3-2.1-.8-2.7c-.5-.7-1.2-1-2.1-1M71.7,54.2c1.3,0,2.3.4,3.1,1.3s1.2,2,1.2,3.5-.4,2.6-1.2,3.5-1.8,1.3-3.1,1.3-2.3-.4-3.1-1.3-1.2-2-1.2-3.5.4-2.6,1.2-3.5,1.8-1.3,3.1-1.3"/>
  <path id="DejaVuSans-751" d="M77.7,60.8v-4.2h1.1v4.1c0,.6.1,1.1.4,1.5.3.3.6.5,1.1.5s1.1-.2,1.4-.6c.4-.4.5-.9.5-1.6v-3.9h1.1v6.9h-1.1v-1.1c-.3.4-.6.7-1,.9s-.8.3-1.3.3c-.8,0-1.4-.2-1.8-.7s-.6-1.2-.6-2.2"/>
  <path id="DejaVuSans-741" d="M86.9,54.7v1.9h2.3v.9h-2.3v3.7c0,.6,0,.9.2,1.1s.5.2.9.2h1.2v.9h-1.2c-.9,0-1.5-.2-1.8-.5s-.5-.9-.5-1.8v-3.7h-.8v-.9h.8v-1.9h1.1l.1.1Z"/>
  <path id="DejaVuSans-321" d="M91.9,62.5h4.3v1h-5.8v-1c.5-.5,1.1-1.1,1.9-2,.8-.8,1.3-1.3,1.5-1.6.4-.4.7-.8.8-1.1.2-.3.2-.6.2-.9,0-.5-.2-.9-.5-1.2s-.8-.5-1.3-.5-.8,0-1.2.2c-.4.1-.9.3-1.4.6v-1.3c.5-.2,1-.4,1.4-.5s.8-.2,1.2-.2c.9,0,1.7.2,2.3.7s.8,1.1.8,1.9,0,.7-.2,1.1c-.1.3-.4.7-.8,1.2-.1.1-.4.5-1,1-.5.6-1.3,1.4-2.3,2.4"/>
</svg>