<?xml version="1.0" encoding="UTF-8"?>
<svg id="Layer_1" xmlns="http://www.w3.org/2000/svg" width="13.083in" height="19.028in" xmlns:xlink="http://www.w3.org/1999/xlink" version="1.1" viewBox="0 0 942 1370">
  <!-- Generator: Adobe Illustrator 29.4.0, SVG Export Plug-In . SVG Version: 2.1.0 Build 152)  -->
  <defs>
    <style>
      .st0 {
        fill: #fed870;
      }

      .st1 {
        fill: #583910;
      }

      .st2 {
        fill: #db732c;
      }

      .st3 {
        fill: url(#linear-gradient2);
      }

      .st4 {
        fill: url(#linear-gradient1);
      }

      .st5 {
        fill: url(#linear-gradient3);
      }

      .st6 {
        fill: url(#linear-gradient6);
      }

      .st7 {
        fill: url(#linear-gradient7);
      }

      .st8 {
        fill: url(#linear-gradient5);
      }

      .st9 {
        fill: url(#linear-gradient4);
      }

      .st10 {
        fill: #fffef9;
      }

      .st11 {
        fill: #4c6c70;
      }

      .st12 {
        fill: #db732c;
      }

      .st13 {
        fill: #d60000;
      }

      .st14 {
        fill: #4f7884;
      }

      .st15 {
        fill: #fefec7;
      }

      .st16 {
        fill: #e7b98f;
      }

      .st17 {
        fill: #4d6162;
      }

      .st18 {
        fill: #fbb951;
      }

      .st19 {
        fill: #55574d;
      }

      .st20 {
        fill: url(#linear-gradient);
      }

      .st21 {
        fill: #804817;
      }

      .st22 {
        fill: #342513;
      }

      .st23 {
        fill: #5aba47;
      }

      .st24 {
        fill: #fefe5c;
      }

      .st25 {
        fill: #fee6a5;
      }

      .st26 {
        isolation: isolate;
      }

      .st27 {
        fill: #008b9e;
      }

      .st28 {
        fill: #5aba47;
      }

      .st29 {
        fill: #bd9771;
      }

      .st30 {
        fill: #2f6125;
      }

      .st31 {
        fill: #6f9495;
      }

      .st32 {
        fill: #a69668;
      }

      .st33 {
        fill: #1a373a;
      }

      .st34 {
        fill: #8b734c;
      }

      .st35 {
        fill: #b0b38f;
      }

      .st36 {
        fill: #523312;
      }

      .st37 {
        fill: #785a36;
      }

      .st38 {
        fill: #330b0b;
      }

      .st39 {
        fill: #e6953c;
      }

      .st40 {
        fill: #b46f2a;
      }

      .st41 {
        fill: #8b8b8b;
      }

      .st42 {
        fill: #fad5ac;
      }

      .st43 {
        fill: #c55f24;
      }

      .st44 {
        fill: #6f4c26;
      }

      .st45 {
        fill: #801519;
      }

      .st46 {
        fill: #995b21;
      }

      .st47 {
        fill: #e0e0e0;
      }
    </style>
    <linearGradient id="linear-gradient" x1="739.478" y1="1572.703" x2="750.277" y2="1646.103" gradientTransform="translate(0 -318)" gradientUnits="userSpaceOnUse">
      <stop offset="0" stop-color="#4b2d0a"/>
      <stop offset="1" stop-color="#744516"/>
    </linearGradient>
    <linearGradient id="linear-gradient1" x1="254.883" y1="1278.9" x2="253.983" y2="1313.6" gradientTransform="translate(0 -318)" gradientUnits="userSpaceOnUse">
      <stop offset="0" stop-color="#98551b"/>
      <stop offset="1" stop-color="#b36b29"/>
    </linearGradient>
    <linearGradient id="linear-gradient2" x1="167.485" y1="609.115" x2="232.185" y2="677.915" gradientTransform="translate(0 -318)" gradientUnits="userSpaceOnUse">
      <stop offset="0" stop-color="#aaa074"/>
      <stop offset="1" stop-color="#c6c292"/>
    </linearGradient>
    <linearGradient id="linear-gradient3" x1="298.109" y1="997.443" x2="395.709" y2="976.343" gradientTransform="translate(0 -318)" gradientUnits="userSpaceOnUse">
      <stop offset="0" stop-color="#b36925"/>
      <stop offset="1" stop-color="#f19937"/>
    </linearGradient>
    <linearGradient id="linear-gradient4" x1="780.008" y1="655.191" x2="722.107" y2="605.991" gradientTransform="translate(0 -318)" gradientUnits="userSpaceOnUse">
      <stop offset="0" stop-color="#d47c2c"/>
      <stop offset="1" stop-color="#ffbb41"/>
    </linearGradient>
    <linearGradient id="linear-gradient5" x1="909.701" y1="743.396" x2="885.1" y2="739.996" gradientTransform="translate(0 -318)" gradientUnits="userSpaceOnUse">
      <stop offset="0" stop-color="#9a9971"/>
      <stop offset="1" stop-color="#bcc6a3"/>
    </linearGradient>
    <linearGradient id="linear-gradient6" x1="238.878" y1="1409.198" x2="241.378" y2="1380.598" gradientTransform="translate(0 -318)" gradientUnits="userSpaceOnUse">
      <stop offset="0" stop-color="#6a4d2d"/>
      <stop offset="1" stop-color="#876b42"/>
    </linearGradient>
    <linearGradient id="linear-gradient7" x1="828.197" y1="934.389" x2="786.155" y2="911.617" gradientTransform="translate(0 -318)" gradientUnits="userSpaceOnUse">
      <stop offset="0" stop-color="#ca7229"/>
      <stop offset="1" stop-color="#f79d39"/>
    </linearGradient>
  </defs>
  <path class="st38" d="M618.4.6c131,.4,249.3,108.6,226.3,245.5,28.7,24.7,18.9,56.9-18.7,61.6-.8,4.8-3.4,9.1-5.6,13.4,47,39-10.5,140.4-69.2,109.9-3.4,34.2-33.6,62.3-60.7,79.8-6.1,6.3,10.8,13.3,14.6,17.2,23.3-9.2,38.9,7.5,55.3,19.4,12.3,8.1,25,15.7,37.3,23.9,3.5,0,6.9.3,10.4.5,5.5-11.5,9.7-28.4,13.8-40.8-13.1-18.9-3.6-32.3,18.6-27.7-4.4-10.3-2.5-20.4,3.3-29.7-4.5-9-6.1-20.6-3.5-30.3,5.7-14.8,27.7-73.2,41.3-81.3,5.9,0,14.5-.4,19.4,3.4,8.4,6.7,12.9,57.3,13.9,69,1.5,16.7,1.5,31.7-9.8,45.1,2,11.2,1.8,23.1-7.6,30.9,26.6-.7,29.5,9.9,14.1,29.8-4.5,9.4-2.5,31.9-2.5,42.8,53.4,21.5,24,88.3,17.5,129.6,1.6,14.1,5.7,28.6,1.5,42.8-5.9,24.1-14.7,23.1-29.9,37.5-36.3,45.5-87.2,37.6-116.8-10.5.7,8,1.3,16.1,1.8,24.2,3.8,2.2,7,4.4,10.2,7.4,3.6,11.1,4,31.7,2.4,43.2-.9,6.7-4.2,8.8-9.3,12.7,5.5,87,8.2,174.6,16.4,261.4,15.4,8.8,20.1,70.9,1.6,76.5,1,42.8,39.3,91.9,26,135.2-22.8,37.2-214.4,42.9-176.1-34.4.2-29.7,11.1-58.4,7.8-88.3-.8-2.6-14.3-7.2-17.1-10.8-6.8-8.6-9.6-46.3-8.7-58.3,1.9-.7,3.6-3.3,4.7-4.9-11.6-51.2-19.7-103.7-30.4-155.2-2.9,19.2-1.1,130.5.6,143.5,12.2,8.7,11.5,69.6-5.3,73.5.4,19.4.7,19.4,7.8,37,2.5,9.6,2.4,19.8,3.4,29.6,1.6,12.7,6.6,30.4-.9,41.8-12.5,11-50.9,19.2-65.8,9.3-49.9,21.3-131.1,30.7-179.6.7-16.3-14.2,4.8-63.3,19.6-74.2-2.4-79.7-7.5-172.6-10.5-252-6.8.6-27.8,1.9-33-.9.2,21.5,1.2,43,1,64.5,8,3.3,22.5-.3,28.7,6.8,5.5,6.3,9.4,39.5-4.8,36.7-3.9,6.5-.9,21.3-1.2,29.2l.7,72.6c-1.3,15,7.8,48.5-15.1,48.9-32.2,2.4-96.2,2-129.3,3.5-36.6-.4-80.7,10.6-112.8-10.1,1.5,16.1-7.2,21.4-22.3,20-4.4,0-10.1-.3-13.2-4-2.3-2.7-1.7-9.4-1.6-12.9,4.3-83.1,8.8-172.6,12.8-255.4-6.2.8-25.9,1.7-31.1-1-4.1,59.8-13.3,177.3-16.5,237.7.9,18.4-37.8,19.4-34.8.3,3.2-91.2,12.7-183.5,15.9-274.7-4.8,0-12.6.8-16.6-2-6.5-7.1-7.2-32.3-1.6-39.9,8.5-8.4,34.1-1,47.6-2.7l.7-1.5c-5.3-4.7-26.6-1.7-28.4-16.8-2.8-17.2-.3-62.2-1.1-80.2,0-9.8.4-43.3,2.8-51.4,2-7.1,9.8-11,16.6-11.9,90.8-3.5,182-2,273-2.6,1.6-5.4,4.4-9.2,7.7-13.7-4.5-16.4-24.7-7.7-26.5-29.4-34,1.7-154.8,12-186.4,14.1-12.9,0-29.3,5.9-40.4-2.5-3.2-3.6-4.1-8.9-4.6-13.6-4.4-59.5-8.8-195-12.5-256.4-.5-136.3-41.5-130.5,78.8-134.3-1.9-15,22.9-10.6,32.1-11.5-1.8-45.2,61.9-49.6,71.7-6.8,12.4-.5,26.5-4.2,27.8,12.7,11.4-2,23-1.8,34.6-2.3,11.3,0,24.4-3.6,34.7,2,2.8,2.4,4.1,10.6,4.6,14.1,4.3,49.8,3.8,100.2,7.5,150.1,38.9-6,29.2,24.4,27.8,49.6,6.9,32.4,19.4,46.9.8,80.2,7.2,11.1,14.2,22.4,21.7,33.3,51.9-48.8,63-81.5,137.5-104.1-69.5-18.8-109.4-87.9-99.3-157.7-35.8-23.3-42.2-101.5-10.2-129.9-68.6-18.8-53.8-56.7,5.1-75C438.8,76,531.1,15.2,618.7.5h-.3v.1ZM424.3,1182.4c.9,18.9,2.8,38.2,2.6,57,6.3.6,15.3-2.6,18.8-8.3,5.9-5.7,19.1-11.4,20-20.6-2.8-4.3-9.2-5.2-12.4-9.2-6-7.7-5.7-44.3-3.9-53.9.9-4.5,4.2-6.4,6.1-10-3-86.3-10.3-175.4-7.6-261.8-4.8-3.5-8-5.9-9-12.1,0-12.2-6.4-51.9,9.5-55.4.1-8.4,2.9-44.3,2.1-47.5-19.1,19.4-47.1,32.3-74.6,26l.8,75.5c-1.4,23.9,11,52-23.7,52.8v1.1c8.4,8.6,81.9-11.5,82.8,12.8,1,18.4,3.5,38.9-21.9,34.5,4.2,72.5,6.9,146.5,10.4,219.1h0ZM867.7,532.6c-4.4,6.2-13.8,34.2-16.5,42.7,5.9-.5,11.5-2.3,17.6-1.5,0-13.7,0-27.5-1.1-41.2ZM310.1,1038.2c-.7-12.8-.3-25.5-.6-38.3-47.5,2.3-137.8,4.7-182.2,1.3-.7,19.7-2.7,39.5-3,59.2,5.9,1.9,19.1,2.1,25,0,.7-5.7-1.7-13.1,2.8-17.6,5.7-4.5,26.5-3.6,33.5-2.4,10.5,0,8.3,12.1,9.2,19.4,2.1-.6,98.8,2,102.9-1.4-.6-10.1,1.4-18.3,12.5-20.4v.2h-.1ZM128.2,914.8c-2.9,6.8,152,3.6,164.6,2.5-46.4-6.4-117.9,1.8-164.7-2.5h.1Z"/>
  <path class="st13" d="M747.6,550.1c14.3,6.3,28.9,15.7,41.7,24.6-18.3,14.3-13.2,42.5,2.2,57.1-4.7,19.4-28.7,94.1,9.5,88.5-10.9,10.6-19.3,24.6-31,34.2-7.1-5.1-11.6-12.2-14.9-20.2-9-10.9-14.7-27.3-16.5-41.2-1.159-15.134-1.286-35.809,3.286-59.663,4.424-23.08,11.778-41.471,11.014-41.737-.674-.234-7.043,13.85-12.003,30.858-8.162,27.985-7.966,48.302-7.868,53.099.176,8.534,1.025,15.587,1.771,20.442,1.1,18.9,8.8,33.5,17.7,49.7,2.8,4.1,13.1,13.1,12.9,17.5-59.5-5.9-50.1-83.5-58.6-126.6,9.7-30.8,19.9-61.2,40.8-86.6Z"/>
  <path class="st38" d="M472.4,609.3c-.7,5.1-1.4,11.8-3.3,16.6-.361,2.023-.723,4.047-1.084,6.07-.697-.852-2.22-2.955-2.56-6.047-.238-2.171.207-3.926.544-4.923.609-1.253,1.25-2.525,1.925-3.813,1.467-2.797,2.969-5.425,4.475-7.887Z"/>
  <path class="st47" d="M300.9,337.4c4.4-.4,8.8-.5,13.2-.7,3.7,92.6,13.8,252.2,14.5,338.3-76,7.7-156.6,15.8-232.2,17.9-8.4-112.4-11.4-230.2-16.2-343.1,18.9-3,39.2-2.7,58.4-3.9,2.4,3.7,5.8,7.2,10.6,6.8,16.4.4,33.6-1.7,50-2.6,13.2-.7,26.4-1.4,39.6-2.3,9.7-1.2,23.4,1.7,28.2-9.1,11.4.1,22.7-.6,34-1.2h-.1v-.1Z"/>
  <path class="st30" d="M295.3,640.4c5.1-.3,10.9-1.7,15.1,2-5.2,7.2-17.3,5.1-25.2,6.3l-32,2.9c-38.6,3.3-77.2,6.9-115.7,11.1-3.1.6-6.4.2-8.6-2.3-.6-8.6,25.8-6.3,32.2-7.7,24.9-2.2,108-9.9,134.2-12.3Z"/>
  <path class="st30" d="M295.8,592.4c4.9-.6,8.7-.9,13.1,1.9l.3,1.4c-8.9,7.9-30.3,4.3-42.2,6.5-27.7,2.4-55.4,5.2-83.1,8.3-5,.7-7.6,1.1-11.8-2.1l.7-2.7c8.9-4.5,105.9-11.7,123.1-13.4l-.1.1Z"/>
  <path class="st30" d="M296,544.3c3.3-.4,7.1-1,9.1,2.3.7,8.6-41.6,6.8-49.4,8.7l-74.9,7.3c-4,.8-9.6,1.6-11.4-3.2,4.3-7.6,37.3-5.5,47-7.6.2,0,79.4-7.5,79.6-7.5Z"/>
  <path class="st30" d="M291.9,497.8c3.2-.8,10.4,0,9,4.7-12.5,5.6-27.8,3.6-41.3,5.5,1.4-1.3-121,14.9-83.9-.4,38.6-3.9,77.6-5.3,116.2-9.6v-.2h0Z"/>
  <path class="st23" d="M153,533.2c6.1-.7,5.8,6.4,6,10.6-5.1,9.3-11.8,19.5-18.8,27.5-8.2,10.8-14.2.9-18.8-7.1-2.5-4-6.2-9.2-4-14.1,7.2-1.2,11.3,8.2,14.4,13.3,7.4-9.5,12.6-21.8,21.2-30.2h0Z"/>
  <path class="st23" d="M151.6,485.4c1.9,0,3.4-.3,5.1.7,3.8,12.2-18.9,35.7-27.4,42.9-5.1-6.3-10.1-13.3-13.9-20.4-.5-18.6,10.7-2.4,14.3,4.7,7.3-9,12.7-20.7,21.8-27.9h.1Z"/>
  <path class="st23" d="M154.2,584.3c18.9.9-13.6,42.9-20.8,43.5-5.1-5.9-17.6-19.4-11.6-27.2,6.9-.3,9,7.5,11.6,12.6,7.6-9.1,14-19.2,20.8-28.9h0Z"/>
  <path class="st14" d="M478.6,883.2c9.3.4,18.1,1.7,27.5,1.5h0c9.1,18.9,21.6,11.9,38.2,15.6,1.5,1.7,1.2,2.3,1.3,4.5.2,15.7,3.1,45.8,12,58.8h1.7c2-6.1-3.2-12.8-4-19-2.4-12.5-3.2-25.2-4.3-37.8-3.4-12.9,19.3-6.5,26.5-7.5.5,17.8-.8,36,1.2,53.7l1.3.8,1.5-.8c1-19.3-2.8-39.4-.5-58.6,3.4-.9,6.8-1.9,10.3-2.8-5.3,92,4.6,75.9,87.2,78.7,8-1.3,17.4-1.9,24.4-5.8,17.2-18.3,11.1-53.2,12.8-77.1,7.4.3,14.2-.4,21.4-1.6,2.8,3.4,5.1,5.4,8.9,7.6,5.9-.6,10.8-1.7,16.1-4.3,5.1,85.7,5.8,173.7,14.4,259.9-31.2,12.4-96.1,16.4-127.2,1.1-10.3-56.5-20.5-113.4-32.3-169.6-35.2-1-70.1-11.3-102.1-25.2l-.5.9c9.7,14.7,69.2,34.6,86.3,31,1,51.6,1.1,103.2,1.9,154.8-4.3,3.7-12.5,6.2-18.1,5.6-28.9,9.3-92.4,10.5-119.3-5.4-4.7-69.7-9.2-139.7-9-209.6-4.2-13.5,15.7-10.3,22.5-49.5h-.1v.1Z"/>
  <path class="st14" d="M724.8,907.7c-.2-2.6-.8-5-1.5-7.5l.3-.3c10.3,11.2,26.8,4.8,39.9,6.7,2,15.8,0,31.7.8,47.5-12.5-3-26.6-4.9-36.1-14.4-.2-10.1-11.3-6.6-5.7-25.9-1.5-3.8-2.8-7.5-3.8-11.4l1-1.1c2.4,1.8,3.2,4.3,5.1,6.4Z"/>
  <path class="st33" d="M718.7,902.4l1-1.1c12.1,16.3,19,32.3,42,34.7.4,1.8.6,3.2.4,5.1-21.2,2.4-38.6-19.8-43.3-38.7h-.1Z"/>
  <path class="st11" d="M726.4,933.5c8.5,8.8,20,9.8,29.9,15,0,1.8.2,1.8-.9,3.2-9.9-1.2-20-5.1-27.2-12,0-2.6-.6-4-1.9-6.3h.1v.1Z"/>
  <path class="st17" d="M737,885.9c2.8,3.4,5.1,5.4,8.9,7.6,5.9-.6,10.8-1.7,16.1-4.3,2.9,3.4,1.6,13,1.5,17.5-13.1-1.9-29.5,4.5-39.9-6.7l-.3.3c.7,2.5,1.3,4.9,1.5,7.5-1.9-2.1-2.8-4.6-5.1-6.4l-1,1.1-1.2.4c-.4-1.5-.7-2.6-.5-4.2l1.2-.8-1.5-.5c5.7,101.1-41,71.5-114.9,71.1l.2-2.9c25.1,4.2,75.9,10,100.7-1.1,17.2-18.3,11.1-53.2,12.8-77.1,7.4.3,14.2-.4,21.4-1.6h0l.1.1Z"/>
  <path class="st33" d="M578.3,1149c5.8-26.1-4.7-125.8,2.6-156.1l1.6,1.3c1.6,50.3,1.4,102.6.8,153.1l1.1.5c-2,1.4-3.6,1.6-6.1,1.3h0v-.1Z"/>
  <path class="st14" d="M478.6,883.2l1.4,1.1-.6,2.9c1.5,2.3,3.4,1.8,4.9,4-3.5,17.1-9.6,35.8-28.2,41.6-4.2-13.3,15.9-10.5,22.5-49.6h0Z"/>
  <path class="st17" d="M478.6,883.2c9.3.4,18.1,1.7,27.5,1.5h0c1.6,2.4,3.3,4.8,4.8,7.2l-2.3-1-.4.8c1.1,1.8,2,3.2,2.1,5.4-3.7,5.1-12.6.5-17.4-.8-2.9-1-3.8-2.8-4.2-5.6l-1.4-.9c-1.7.2-1.8,0-3,1.4-1.5-2.2-3.4-1.7-4.9-4l.6-2.9-1.4-1.1h.1-.1Z"/>
  <path class="st11" d="M484.2,891.1c1.2-1.3,1.3-1.2,3-1.4l1.4.9c-4.7,24.6-8.7,35.7-32.7,48.5l.2-6.4c18.5-5.8,24.7-24.5,28.2-41.6h-.1Z"/>
  <path class="st17" d="M551,906.8c-3.4-12.9,19.3-6.5,26.5-7.5-.3,8.2.3,16.4.2,24.6-1.6-5.2-.9-11.7-.8-17.1-8.2,4.2-27.2-3.4-24.9,8.2-1.1-1.6-.8-6.2-.9-8.2h-.1Z"/>
  <path class="st11" d="M717.5,902.8l1.2-.4c1,4,2.3,7.6,3.8,11.4-5.5,19.4,5.5,15.7,5.7,25.9-2.8-1.8-5-3.7-7.1-6.3-2.2,2.7-2.3,19.3-4.8,24.9-2.9,6.5-7.6,19.2-14.7,21.6-35.9,8.8-58.4-3.9-91.8-4.8,5.3-5.4,42.9,6,51.9,7.2,7.3,1,33.9-1.2,40.5-4.2-.4-1.4.4-2.3,1.6-3.1,17.6-14.3,20-52,13.7-72.2h0Z"/>
  <path class="st17" d="M507.1,899.3c1.2-.6,2.4-1,3.1-2.2,0-2.2-1-3.6-2.1-5.4l.4-.8,2.3,1c7.1,10.5,22.9,5,33.4,8.4,1.5,1.7,1.2,2.3,1.3,4.5-12.6.5-27.5,1.6-38.4-5.5Z"/>
  <path class="st34" d="M158.6,761.1c66.6.5,134.6-3.2,200.8,2,15.3,3.4,7.5,50.5,9.2,64,.4,87.2,16.4,81.8-76.2,80.8-68.3.5-136.8,1.5-205,.2-12.2-17.8-4.5-41.6-5.8-61.9.2-21.5-1.5-50.8,2.1-71.1.9-5.5,4.1-11.7,10.3-12.3,14.3-2.7,49-1.5,64.7-1.7h-.1Z"/>
  <path class="st36" d="M176.3,777.6c16.1-.2,135.5-1.8,138.9,1,6.1,10.1,5.6,63.2-2.8,71.3-33.8.9-155.5,1.7-179.7-.4-8-4.1-4.9-62,.8-69.1,3.3-3.9,36.4-2.6,42.9-2.8h-.1Z"/>
  <path class="st28" d="M214.8,785.1c32.2,0,64.4,0,96.6-.5.9,8,.8,53-1.6,57-44.5,5-125.9,1.4-172.6,1.3-3.1-6.7-.9-48,0-57.4,25.9-.4,51.8.3,77.7-.5h0l-.1.1Z"/>
  <path class="st36" d="M329.4,853.9c31.8-6.9,44.6,36.7,13.9,46.7-34,8.7-45.4-35.8-13.9-46.7Z"/>
  <path class="st44" d="M332.3,859.8c19.1-3.1,26.2,17.8,15.6,30.8-27.7,14.8-42.5-20.2-15.6-30.9h0v.1Z"/>
  <path class="st36" d="M192.1,861.3c16.6-3.4,27.9,17.8,18.9,30.9-9.3,11.9-29.2,8-34.7-5.6-.3-11,4.5-22.1,15.8-25.3h0Z"/>
  <path class="st44" d="M190.9,869.6c15.4-3.4,23.4,12.8,10.1,22-15.9,4.6-21.3-12.5-10.1-22Z"/>
  <path class="st36" d="M138.9,860.7c18.8-2.5,25.1,16.6,19.7,31.6-26.4,23.2-49.4-19.5-19.7-31.6Z"/>
  <path class="st44" d="M138.5,868.1c13.9-3,19.7,13.9,9.7,22.3-4.4,0-10,1.8-13.5-1.8-3.8-6.4-2-15.8,3.8-20.5Z"/>
  <path class="st36" d="M239.4,862.8c12.5-1.7,19.1,9.7,20.3,20.6-13.4,36.8-52.8-5-20.3-20.6h0Z"/>
  <path class="st44" d="M241.7,869.4c11.1.2,15.2,15.9,4.5,20.5-13.4,2.3-16.3-16.3-4.5-20.5Z"/>
  <path class="st36" d="M280.6,862.9c20.1-4.6,26.4,26.9,8.3,33.1-20.7,4.9-26.6-26.2-8.3-33.1Z"/>
  <path class="st44" d="M282.3,870.2c12.4-1.2,16.6,13.7,6,19.7-11.6,1.5-16.2-14.4-6-19.7Z"/>
  <path class="st24" d="M550.9,32.1c-24.6,30-48.8,79.9-41.5,119.2,5.4-6,3.9-15.4,5.6-22.9,1.67-7.367,11.638-82.653,70.96-110.326,57.382-26.768,116.667,10.754,120.44,13.226,2.1.933,4.2,1.867,6.3,2.8,11.399,5.748,45.972,25.013,66.025,67.188,24.653,51.848,9.224,100.178,5.775,110.213-98.8-57.1-236.1-74.4-346.4-44,9.9-60.6,56-113.3,112.8-135.4Z"/>
  <path class="st38" d="M702.4,29.4c-42.2,15-62.3,55.2-65.9,97.7-.579,3.69-.997,8.172-.875,13.263.115,4.799.683,9.026,1.375,12.537,1.381-3.361,2.857-7.858,3.675-13.3.898-5.976.707-11.13.277-14.953,11.636-40.884,21.436-73.198,65.448-92.347.559-.235,1.119-.47,1.678-.705-.95-.415-1.983-.937-3.058-1.595-.559-.343-1.078-.69-1.556-1.035-.354.145-.709.29-1.063.435Z"/>
  <path class="st38" d="M684.778,20.2c-.714-.736-2.122-1.995-4.28-2.808-2.077-.782-3.896-.793-4.91-.726-.962,1.205-1.923,2.41-2.885,3.615,0,.002,0,.004.001.005-44.645,18.373-59.707,70.38-61.304,114.914.133.767.267,1.533.4,2.3,8.294-42.767,20.782-90.224,62.105-112.346,1.487-.748,3.027-1.492,4.62-2.229,2.136-.987,4.224-1.893,6.253-2.725Z"/>
  <path class="st12" d="M646.638,394.975c14.271-.368,26.862-2.297,37.362-4.675,20.5-6.7,35.7-19.5,44.3-39.5,10.5-2,21.8-5.3,31.9-8.6-10.9,28.3-14,59-17.6,88.9-4.955,9.814-42.415,81.082-122.336,96.3-60.699,11.558-139.149-10.499-168.855-70.435-15.123-30.513-12.819-61.169-10.109-77.865,15,6.5,31.6,6.1,47.6,4.8,3.2-.1,10.2-3.4,12.8-1.2.8,36.8,73.4,36,79,2.4,15.665,5.196,38.41,10.584,65.937,9.875Z"/>
  <path class="st42" d="M511,385.7c-6.9-25.2,7.5-23,20.9-37.2,5.7-8.3,6.1-23.4,16.4-27.8,11.7-3.4,17.3,14.1,23.5,21.2,19.2,29.8,52.4,23.5,40.1,43.5,18.8,15.5,49.8,8.4,72.1,4.9,20.5-6.7,35.7-19.5,44.3-39.5l10.8-2.3,1,1.2c-5.9,36.2-16.7,89.1-63.1,88.4-9.2-1.5-22.6-28.8-34.2-35.8-21.9-13-44.7-5.5-68.3-4.9,3.3-3.5,6.3-7.4,6.2-12.4-1.4-.3-1.8.2-3,.9-14.6,19.1-56.8,25.4-66.6-.3h-.1v.1Z"/>
  <path class="st29" d="M511,385.7c12.1,7.6,27.2,14.7,41.7,11.5,8.9-1.9,15.1-9.5,24.8-11.1-14.6,19.1-56.8,25.4-66.6-.3h.1v-.1Z"/>
  <path class="st29" d="M739.1,348.6l1,1.2c-.3,2.1-.8,3.9-1.6,5.9-4.8-2.6-10.6,1-14.5,3.9l4.3-8.7,10.8-2.3Z"/>
  <path class="st1" d="M625.2,416c-4.1-2.2-10.7-2.9-12.5-7.7,5.5-3,27.6,2.3,25.3,10.9-2.8,2.5-7.3-1-8.7,4-8.9,52.3-91.7,66.6-111.7,14.9-7.1-2.7-15.5-4.3-19.9-11.1,1.8-1.8,2.9-2.7,5.4-3.4,36.5,23.1,87.3,15.3,122.2-7.5h0l-.1-.1Z"/>
  <path class="st10" d="M620,427c-9.4,40.7-72.8,49.9-93.6,13.4,32.8,6,63.9,2.2,93.6-13.4Z"/>
  <path class="st29" d="M629.3,423.2c12.4-2.9,9.3,21.6,7.1,28.5-5.7,17-23,29.2-40.2,32.4-9.6-9.3-22.7,10.2-46.7-4.7-25.2,11.7-55.2-22.5-44.9-46.1,4.2,1.8,8.6,3.2,12.9,4.8,20.6,51.8,102.3,37.6,111.8-14.9h0Z"/>
  <path class="st42" d="M441.3,379.1c15,6.5,31.6,6.1,47.6,4.8,3.2-.1,10.2-3.4,12.8-1.2.4,4.3,1.8,8.6,3.2,12.6-6.9,1.6-16,3-21.9,7-8.4,5.8-12.6,25.9-26.4,17.3-15.7-11-18.5-22.3-15.4-40.5h.1,0Z"/>
  <path class="st29" d="M441.3,379.1c15,6.5,31.6,6.1,47.6,4.8,3.2-.1,10.2-3.4,12.8-1.2l.4,3.3c-16.2,1.9-42.4,5.7-57.7.7-.8,5.5-2.2,11.5-1.9,17-.726-1.735-1.174-3.246-1.458-4.378-.812-3.241-.9-5.865-.949-7.643-.051-1.844.031-3.219.1-4.33.132-2.122.423-4.976,1.107-8.348,0,.033,0,.067,0,.1Z"/>
  <path class="st37" d="M335.6,1108.9c4,2.3,23.5,1.3,27.4-.5-1.5,45.2,2.7,93.7-.6,138.3-13.1,7.1-35.9,3.5-50.8,4.6-39.7-.3-100.6,4.8-139.4,2.3-5.9,3.2-21.4,2.8-27.1.2,1-47,2-94.3,1.6-141.3,59.2.2,129.9.7,189.1-3.6h-.2Z"/>
  <path class="st0" d="M277.9,1141.9c2.4.3,5.3.2,7.6.8,5.6,1.3,9.4,39.7,13.1,47.1,5.2-7.7,5.9-49.3,15.6-48.6,5.8,2.6,3.9,9.7,1.5,14.1-1.7,12.5-4.5,35.7-9.4,47-2,5.6-11.3,4.9-15.4,2.4-1.7-6.4-15-54.4-13.1-63v.2h.1Z"/>
  <path class="st0" d="M244.9,1140.4c32.7.9,15.9,42.5.1,54.3,7.3,3.6,17.8-2.5,23.5,4.6.6,9.3-23.7,8.1-29,5.7-2.1,1.4-4.2,1.6-6.5.7-10.5-10.5,30.2-36.2,17-52.6-5.6-2.4-8,3-8.3,7.8-3.6,1.1-7,2.1-10.8.8-2.2-11.7,4.6-16.6,13.9-21.4h.1v.1Z"/>
  <path class="st0" d="M206.9,1159.1c-2.2,3.2-4.7,6.1-8.8,6.2-15.5-4,23.5-38.6,21-14.7,2.9,1.9,1,51.1-.4,53.7h-.6c-.5.7-1,1.2-1.7,1.9-3,.3-6.8,1-8.8-1.9-1-2.1-.3-39-.7-45.2Z"/>
  <path class="st44" d="M219.1,1150.6c2.9,1.9,1,51.1-.4,53.7h-.6c.8-18-.2-35.8,1-53.7Z"/>
  <path class="st0" d="M712.7,34c88.6,23.3,133.9,123.6,123.1,209.5l-.244,5.239c.478.49,1.177,1.226,1.984,2.15,1.761,2.015,18.669,21.361,12.36,34.211-4.526,9.219-18.752,10.516-21.1,10.7-1-3.4-.6-7.6-.5-11.2,2.9,2.1,6.2,5,9.9,4.9l.9-1.4c-53.6-80.7-367.2-111.1-449.7-67.5-20-25.7,62-48.2,79-52.7,88.5-14.8,180.7-4.3,265.4,24.3,7.614,2.399,15.911,5.406,24.675,9.2,8.694,3.764,16.508,7.721,23.425,11.6.833-.533,1.667-1.067,2.5-1.6,3.491-11.543,16.284-58.63-7.679-109.418-19.445-41.213-51.982-61.314-64.021-67.982Z"/>
  <path class="st14" d="M481.9,660.1c9.1,12.3,25.6,12.8,36.4,2.3,4.4-4,6.4-22.9,8.8-22.9,39.6,6.3,80.3,6.8,120.2,2.5-11.4,42.1,50.8,51.8,54,10.9,3.4,13,2.7,29.4,4,42.8,3.1,34.3,27.4,82.4,67.8,76.3,1.6,14.6,1.9,30,1.6,44.7-3.3,3.2-9.3,7.1-14.1,6.8-8.3-2.4-24.2-5.3-23.5,7.8l-20.5.3c.8-36.2-12.6-21.2-27.7-33.2-2.8-3.6-1.7-13.4-2-18-3.9-25.6-1.7-52.3.6-78,.4-6,1.5-12.5-3-17.4-25.3-21.6-18.6,58.3-21.7,70.9-1.4,9.8-6.8,18.7-6.6,28.7,0,3.3.4,7.6-1.4,10.4-2.1,1-3.6,1-5.9,1-4.1-23.5,4.8-83.3,0-104.1-4.7-2.6-29.4.8-37.1.9-35,2-76.3-4.1-110.3-6.2-9.4,9.8-9.1,63-9.3,77.8,3.7,47.7,65.3,48.2,101.6,46.3-.8,7.4-1.3,14.8-1.5,22.2-6.9,1.3-11.5-3-14.6-8.7-16.3-1.2-61-10-70.3,5.4-13.1-2.8-40.9-5.4-50.8-14.3.4-43.8,2.7-124.8,23-167.9.7,4.3,1.3,8.6,2.2,12.8h.1v-.1Z"/>
  <path class="st17" d="M757.2,772c5.5.8,10.4.6,15.9-.2,1.6,14.6,1.9,30,1.6,44.7-3.9,3.5-11,8.7-16.5,6,1.8-15.7-.7-34.6-1.1-50.5h.1Z"/>
  <path class="st17" d="M687.5,702.3c9.3,25.5-.7,72.9,8,100-10.3-1.6-8.4-14.2-8.6-22-3.9-25.6-2-52.3.6-78h0Z"/>
  <path class="st17" d="M648.7,763.7c.7,6.1-1.7,16,1.6,21.2,1.7.8,3.3,1.1,5.2.6l.7-1c0,3.3.4,7.6-1.4,10.4-2.1,1-3.6,1-5.9,1-2.4-3.8-.7-26.6-.3-32.2h.1Z"/>
  <path class="st33" d="M530.1,653.6c28.8,3,58.2,6,87.4,5.1,5.8.5,17.9-2.4,22.2.8l-.2,2.1c-18.4,2.7-97.3,4.9-109.5-7.9h0l.1-.1Z"/>
  <path class="st42" d="M497.8,260.8c53-2,106.4,1.5,159.1,7.7,9,1.3,43,6.1,48,13.5,31,99.3-96.2,117.3-137,42.5-4.6-6.9-8.6-9.4-16.7-11.1-24.9,6.2-16.8,35.9-41.3,41.3-17.7,7.2-44.5,7.2-62.1-.2.2-29.3-1.1-58.7-.6-88,16.9-3.5,33.6-4.6,50.8-5.8h-.2v.1Z"/>
  <path class="st1" d="M634.6,303.3c22.7.8,22.9,43.3,3.6,49.5-24-.9-22.6-41.5-3.6-49.5Z"/>
  <path class="st1" d="M499.8,300.3c23.7-2.4,22.4,39.6,5.5,47.6-22.7.8-21.2-38.8-5.5-47.6Z"/>
  <path class="st1" d="M627.7,268.1c17.2-2.2,40.5,7.3,42.8,26-3.7,1.1-11.8-6.3-15.8-8-12.7-4.7-24.5-5.3-37.6-2-3.1.5-8.7,4-10.9.5.8-10.3,13.2-14.3,21.5-16.6h0v.1Z"/>
  <path class="st1" d="M500.5,265.3c10.6.1,17.1,8.5,20.9,17.5-13.5-3-23.6-5.5-37.1-.9-3.4,2.7-9.7,8.9-14,9.2-3.8-3.5.8-10.4,3.1-13.7,6.6-8.4,17.1-10.7,27.1-12.1h0Z"/>
  <path class="st39" d="M867.3,581.1c89.2,6.2,64.4,68.1,50.8,130,3.5,24.6,8.2,49.8-14.9,67.2-41,32.5-103.9-6-94.3-57.1,2.9-11.7,6.3-17.7,8.1-30.9,7.6,12.5,12.1,12.2,24.2,18.3,1.8,3.1-1.1,7.8,0,11.6,7.1,15.8,31.7,7.3,37.7-5-10.8-7.4-40.3-13.8-49.8-21-6.1-6.1-8.1-18.5-2.7-25.7,14.7-21.2,47.3-1.1,66.2,1.6l.7-1.4c-7.3-15.9-48.3-17-63.2-15.3-3-11.2-2.9-25.5,8.9-31.4,12.8-.4,25.7-2.5,38.4.5,7.1,1.7,19.1,8.7,25.9,7.3l.8-1.3c-13.9-15.1-43.9-15.1-62.8-14-14.9-21.8,6.7-31.5,25.9-33.3h0l.1-.1Z"/>
  <path class="st46" d="M822.3,705.1c7.3,17.6,21,32.4,40,37.1,32.4,8.8,42-17,51-17.4-17.2,41-91.4,23.3-91-19.7h0Z"/>
  <path class="st46" d="M796.6,1211.1c3.3,10.5,2.7,21.3,5.6,31.6,8.8,22.1,20.4,45.2,21.4,69.6-2.4,3.1-7.7,8-12,7.6-1.4,1.1-2.2,2.1-4,2.2-18.4,16.7-137.8,18.4-144.7-11.4-4.3-16.8,4.8-42.9,6.5-60.5.9-9.9-.3-20.3-.2-30.4,6.6,3.9,24.9,6.3,31.8,3.5,4.6,1.9,17.8,1.7,22.6,0,7.4,1.9,23.9,1.7,30-2.6,2.4,0,3-.4,5.2-1.5,7.3,1.3,30.7-4.7,37.6-8.3h.2v.2h0Z"/>
  <path class="st20" d="M796.6,1211.1c3.3,10.5,2.7,21.3,5.6,31.6,8.8,22.1,20.4,45.2,21.4,69.6-2.4,3.1-7.7,8-12,7.6-1.4,1.1-2.2,2.1-4,2.2-3.5-70.6-105-72.6-137.4-22.7-1.8-3.5,1-7.2,2.5-10.4,6.4-15.9,29.8-15.1,32.2-28.8-3.2-.6-5.8,1.6-9.2,1.6l-.9-1.5c.6-4.8,5.6-5.5,8.6-8.6,0-4.1-.4-6.3-3.7-8.9l-2.2.4c-2.1-1.3-3.4-2.2-4.5-4.4l.6-1c8.1-.6,8.9-5.6,9.5-12.6l-2.1-1.9c4.6,1.9,17.8,1.7,22.6,0,7.4,1.9,23.9,1.7,30-2.6,2.4,0,3-.4,5.2-1.5,7.3,1.3,30.7-4.7,37.6-8.3h.2v.2h0Z"/>
  <path class="st46" d="M796.6,1211.1c3.3,10.5,2.7,21.3,5.6,31.6,8.8,22.1,20.4,45.2,21.4,69.6-2.4,3.1-7.7,8-12,7.6-3.8-34.2-19.5-48.6-51-59.4,1-.7,1.7-2.9,2.2-4.1,2.9,0,5.6-.4,8.1-2v-.9c-2.6-1.8-5.9-1.7-7.6-4.5-2.4-.4-4.4-.9-6.6-2.1,0-2.5.2-4.9,0-7.4,3.2.9,13.7,2.6,14-2.4-2.5-3-7-3.7-10.4-5.4l-.7-2.3-1.4,1.9c-1.2,0-1.9-.3-3-.9.2-3.2.6-6.8-1.5-9.5,2.4,0,3-.4,5.2-1.5,7.4,1.3,30.7-4.8,37.7-8.3h0Z"/>
  <path class="st44" d="M756.9,1239.4c3.5,1.2,10.1,1.5,13.4-.4-2.1,2.4-5.3,1.2-7.7,3.1-.8,2.3.2,4.6.9,6.9-2.4-.4-4.4-.9-6.6-2.1,0-2.5.2-5,0-7.5h0Z"/>
  <path class="st1" d="M753.9,1220.9c2.4,0,3-.4,5.2-1.5.3,3.7,2.3,8.9-.7,11.8-1.2,0-1.9-.3-3-.9.2-3.2.6-6.8-1.5-9.5h0v.1Z"/>
  <path class="st44" d="M778.6,1217l1.8,1.4c3.2,8.3,6.5,23,5,31.7-.7.6-2.6,1.3-3.5,1.6l-1.3-.8c0-7.4-5.3-29.2-2-34h0v.1Z"/>
  <path class="st36" d="M753.9,1220.9c2.1,2.7,1.7,6.2,1.5,9.5,1.1.6,1.8.8,3,.9l1.4-1.9.7,2.3c3.4,1.7,7.9,2.5,10.4,5.4-.3,5-10.8,3.3-14,2.4.2,2.5,0,4.9,0,7.4-3.3,1.9-25.4.8-31.2,1.4-4.2.5-10.6,2.5-14.5,1.6-2.1,1.5-4.9,3.1-7.5,1.8,0-4.1-.4-6.3-3.7-8.9l-2.2.4c-2.1-1.3-3.4-2.2-4.5-4.4l.6-1c8.1-.6,8.9-5.6,9.5-12.6l-2.1-1.9c4.6,1.9,17.8,1.7,22.6,0,7.4,1.9,23.9,1.7,30-2.6h0v.2h0Z"/>
  <path class="st46" d="M753.9,1220.9c2.1,2.7,1.7,6.2,1.5,9.5-14.8,4-31.3-2-46.4,3.8l-1.5-.5c-1.7,1.9-3.9,2.7-6.2,1.3,1.3-2.6,1.6-6.9,2.1-9.8l-2.1-1.9c4.6,1.9,17.8,1.7,22.6,0,7.4,1.9,23.9,1.7,30-2.6h0v.2h0Z"/>
  <path class="st44" d="M701.2,1223.3c4.6,1.9,17.8,1.7,22.6,0-3.7,2.6-11.2,1.5-15.5,1.3.2,4.6-.2,13.6-7,10.2,1.3-2.6,1.6-6.9,2.1-9.8l-2.1-1.9h0v.2h-.1Z"/>
  <path class="st46" d="M711.1,1241.3c14.9-.6,30.7-4.1,45.8-1.9.2,2.5,0,4.9,0,7.4-3.3,1.9-25.4.8-31.2,1.4-4.2.5-10.6,2.5-14.5,1.6.7-3,.5-5.6,0-8.6h0l-.1.1Z"/>
  <path class="st44" d="M699.9,1242.8c4,1.8,7.3,0,11.1-1.5.5,3,.7,5.6,0,8.6-2.1,1.5-4.9,3.1-7.5,1.8,0-4.1-.4-6.3-3.7-8.9h.1Z"/>
  <path class="st36" d="M711.1,1249.9c3.9.9,10.3-1.1,14.5-1.6,5.8-.6,27.9.5,31.2-1.4,2.2,1.2,4.2,1.7,6.6,2.1,1.6,2.8,4.9,2.8,7.4,4.5v.9c-2.4,1.6-5,2-8,2-.9,3.7-3.3,5.9-7,3.6-3.5,1.8-18.7-.2-23.8,0-7.2.4-15.1,3-22.2,4.6l-1.3-.5c-.4-1.1-.7-2.2-1-3.3-.9,0-.9-.4-1.6-1l-1.1.4c-3.2-.6-5.8,1.6-9.2,1.6l-.9-1.5c.6-4.8,5.6-5.5,8.6-8.6,2.6,1.3,5.4-.3,7.5-1.8h.3Z"/>
  <path class="st46" d="M707.7,1260.9c1.3-10,34.8-5,42.4-7.5l.6,2.5-1.9,1.5c1.3,1.9,5.1,1.4,7.2,2.5-3.5,1.8-18.7-.2-23.8,0-7.2.4-15.1,3-22.2,4.6l-1.3-.5c-.4-1.1-.7-2.2-1-3.3v.2h0Z"/>
  <path class="st21" d="M750.1,1253.4c2.8.7,5.2,1.2,7.4,3.2,0,.8,0,1.3-.3,2.1l.7.2.2-.8c1.6-.8,3.1-1.6,4.8-1.8-1,3.7-3.3,5.9-7,3.6-2.1-1.1-5.9-.6-7.2-2.5l1.9-1.5-.6-2.5h.1Z"/>
  <path class="st44" d="M684,1240.2c1.3-1.3,3-2.3,4.5-3.4-.4,5.1-.4,10.9-1.2,15.9-2.1-4.1-3.2-7.9-3.3-12.5Z"/>
  <path class="st21" d="M684,1240.2c-.4-3,1.2-7.1,3.7-8.7,1.2,1.6.8,3.5.8,5.3-1.5,1-3.2,2.1-4.5,3.4h0Z"/>
  <path class="st18" d="M614.4,803c16.6.3,64-2.2,79.3,5.9,4.3,19.8-.2,134.9-4,148.7-6.7,11.9-79.8,4.1-87.6-.8-9.4-19-2.8-58.1-3.8-80.5.4-20.5-.6-42.1,2.7-62.4.5-7.2,6.9-10.8,13.6-10.9h-.2Z"/>
  <path class="st36" d="M613.8,817c9.9,0,62.8.4,68.5,5.3,3.6,7.3,6.7,44-1.8,49.3-8.9.3-64.7,1.1-69.3-3.4-4.2-4.1-2.8-22.3-2.7-28.4,0-7.4-.3-17.3,5.3-22.8h0Z"/>
  <path class="st28" d="M617.7,824.4c19.9,1.4,40.5.6,60.2,3.4,0,6.1,1.4,33.3-1.4,36.5-19.8.4-41,.8-60.6-2.1-1.2-10.7-3.2-28.1,1.7-37.8h.1Z"/>
  <path class="st36" d="M614.1,903.4c10.9-.9,58.5-.4,65.8,5.5,10.3,59.8-17.9,42.1-62.1,41.5l-7.6-6.6c-2.7-10.3-5.2-32.9,3.9-40.4h0Z"/>
  <path class="st37" d="M616.1,909.9c14.9.9,44.2.5,58.5,2.7.3,11,0,22.1-.4,33.1-10.6.2-50.3.5-57.7-4.3-5-7.6-1.8-22.9-.5-31.5h.1Z"/>
  <path class="st36" d="M617.8,929c14,1.5,40.9,2,52.7,6.3l.2.8c-11,5.5-39.5.9-51.6-1l.6-1.4-.8.7c.3-2.2,0-3.6-1-5.5h-.1v.1Z"/>
  <path class="st36" d="M622,917c10.7.4,39.6-.4,47.5,4.3l-.6,1.4c-7,2-41.3.6-47.3-2.5-.5-1.7-.4-1.6.4-3.2h0Z"/>
  <path class="st36" d="M640.3,878.7c14.2-2.5,21,11.5,9,20.2-13.7,3.3-24-14.2-9-20.2Z"/>
  <path class="st37" d="M641.1,884.2c6.3-4.4,12,6.6,4.7,9.1-5.5,2-9.5-5.9-4.7-9.1Z"/>
  <path class="st36" d="M612.5,877.7c14.1-2.2,22.1,10.8,10.8,20.9-13.7,3.6-22.3-12-10.8-20.9Z"/>
  <path class="st37" d="M615.4,882.6c6.3-3.1,11.1,6.9,4.7,9.8-6.3,3.1-11.1-6.9-4.7-9.8Z"/>
  <path class="st36" d="M669.1,879.4c13.8-2.2,20.2,14.3,6.2,19.4-14.7,3.4-21.1-14.9-6.2-19.4Z"/>
  <path class="st37" d="M669.3,882.7c6-.2,11.5,6.5,5.7,11-8.9.9-12.4-4.3-5.7-11Z"/>
  <path class="st14" d="M505.9,693.1c46,7.2,92.4,7.7,138.7,3.6-.4,22.7-3.6,45.5-3.2,68.2-4.5-.6-9.1-.4-13.7-.5l-5.6,5c-.5,6.7,1,17.7-4.1,22.6l2,2.6-.4.8c-9.4,0-17.8,2.8-24.7,9.5-97.2,1-106.5-20.1-89.1-111.9h.1v.1Z"/>
  <path class="st17" d="M618.2,792.2c-.6,1.4-.5,1.3-1.9,2-3.1-1-5.8-3.7-8.3-5.8-2.95,0-5.544.192-8.372.727-.176-.009-.352-.016-.528-.027-15.7,1-33.4,2-49-.3-8.3-1.2-29.7-7.6-35.5-7.3l-.7,1c20.7,15.5,57.3,14.5,82.2,13.4h0c4.7-1.4,8.9-.2,12.9-3.8l-.421-1.011c.007.004.014.007.021.011l.5,1.2c-4.1,3.6-8.2,2.4-12.9,3.8,3.4.1,8.3-.4,11.3,1.1,4.1-1.3,8.2-.8,12.3-1.6l.4-.8-2-2.6Z"/>
  <path class="st33" d="M632.3,716.4c-20.2,1.5-113,4.4-123.4-9.2l1-1c27,3.1,66.8,8.2,95.6,6.4,5.5,0,25.8-2.4,29.7.5l-.3,1.9s-2.5,1.5-2.6,1.4h0Z"/>
  <path class="st17" d="M511.4,719.5l.4.4c-.5,6.3,0,50.5-3.3,52.4-3.8-12.4-4.7-42.4,2.9-52.8h0Z"/>
  <path class="st17" d="M629.7,723.1c1.5-.6,3.1-1.4,4.5-2.1-.9,7.6-2.2,15.1-2.7,22.7-.8,6.2,1.4,13.5-1.6,19.2h-2.1c-2.7-5.8,1.5-31.7,1.9-39.8h0Z"/>
  <path class="st17" d="M629.7,723.1c1.5-.6,3.1-1.4,4.5-2.1-.2,1.6-.2,3.7-.8,5.2l-4.1.8.3-3.9h.1Z"/>
  <path class="st14" d="M632.3,716.4l2.5-1.4-.6,6c-1.5.7-3,1.6-4.5,2.1.7-2.4,1.3-4.5,2.6-6.7h0Z"/>
  <path class="st45" d="M747.6,550.1c14.3,6.3,28.9,15.7,41.7,24.6l-4.2,3.9c-3-4.8-9.9-5-14.5-7.8-9.4-4.5-18.5-9.6-27.7-14.5l4.7-6.2Z"/>
  <path class="st45" d="M752.6,745.8c2.8,4.1,13.1,13.1,12.9,17.5-8.4,3.3-19.8-4-25.7-9.9,7,.9,13.1,10.6,20.3,8.6,2.5-8.2-8-7.8-7.5-16.2h0Z"/>
  <g>
    <path class="st45" d="M794.548,720.416c-1.187-.165-2.884-.414-4.843-1.38-2.425-1.195-3.982-2.862-4.853-3.979-1.215-2.2-2.637-5.299-3.589-9.195-.692-2.829-.968-5.394-1.045-7.546-.072,1.56-.333,3.802-1.132,6.134-.806,2.356-1.964,4.143-2.886,5.349h0c-3.324,1.933-8.115,5.236-12.675,10.538-4.473,5.2-7.004,10.326-8.425,13.862l1.171,2.536c-.024.021-.047.043-.071.063,3.2,7.1,7.6,13,13.8,17.6,11.7-9.6,20.1-23.6,31-34.2-2.752.559-5.016.415-6.452.216Z"/>
    <path class="st45" d="M780.2,696.2c-.013.648-.01,1.358.017,2.117.062-1.345-.016-2.185-.017-2.117Z"/>
  </g>
  <path class="st27" d="M131.4,325.3c6.3-1.2,5.4,9.9,6.1,13.9-19.4.2-39,1.9-58.3,3.2-2,1.9-4.1,3.7-6.3,5.4,4.8,113.9,8.8,237.8,16.9,351.8,80.4,1.7,165.1-14.8,245.4-16.3,3.5-6.1-4.6-120.3-4.4-137.7,3.5,4.2,6.1,8.6,10.4,12,.8,46.1,5.2,92.3,6.1,138.4-68.1,9.3-202.3,15.9-270,20.5-13.6-98.5-14.5-280.4-21.9-379.7,2.5-13.3,22-7.8,31.8-9.5,14.8-.6,29.6-.9,44.3-1.8v-.2h-.1Z"/>
  <path class="st40" d="M73.2,925.8c110.2,2.3,243.8-.3,354.2.5.9,9.4,1.7,19.3-.1,28.6-116.9-.4-235.1,3-351.9.8-1.4-8,2.4-23.6-2.1-29.9h-.1Z"/>
  <path class="st18" d="M502.3,375.6c-72.5,15.4-99.8-29.4-88.7-96.4-4.9-68,285.7-34.2,320.6-8.1,1,16.3,1,32.2-.5,48.4h-2.2c-.5,1.4-.8,2.7-1.1,4.1-14.9,65.3-60.4,69.7-118.4,61.8,2.5-4.5,4.3-9.8,0-13.9,27.7,6.9,65.2,7.5,87.7-12.4,11.3-11.7,15.4-38.5,15.2-54,1.5-30.2-9.6-34.6-37-39.3-47.6-8.2-212.7-25.6-246.7,3.5-10.2,12.6-7.9,37.2-6.2,52.4,2.2,47,43,46.7,79.4,41-1,4.2-1.5,8.5-2.1,12.8h-.1.1v.1Z"/>
  <path class="st1" d="M731.3,269.8c1.2.3,1.9.5,2.8,1.4,1,16.3,1,32.2-.5,48.4h-2.2c-.5,1.4-.8,2.7-1.1,4.1l-1.5,1.5c2.5-18.7,1.7-36.8,2.5-55.4Z"/>
  <path class="st13" d="M692.3,527.5c1.9.7,4.8,3.5,6.6,4.8-24.3,28.4-39.8,66.3-49.4,102.2-41.3,4.4-83.3,5-124-3.9,5.3-29.5,12.8-61.9,30.9-86.4-2,22.2,8.5,34.6,30.9,35.8,42.5,3.9,77.9-23,105-52.6h0v.1Z"/>
  <path class="st45" d="M668.8,566.8l-.7-.9c-8.3,6.8-16.4,12.4-25.3,18.3h0c-30,13.4-65,16.1-93.4-2.7l-.2.7c24.126,28.088,82.357,20.432,110.13-4.394,4.379-3.415,8.243-7.328,9.47-11.006Z"/>
  <path class="st31" d="M784.4,1154.3c6.9.3,13.6-6.9,18.3-11.2,4.5,4.1,4.1,21.7,4.3,27.6.3,6.8,2.3,20.9-2.5,26.3-3.6,3.5-13.3,10.3-18.5,8.9-1.1.8-2.4,1.1-3.8.9-27.8,13.2-106.1,17.4-130.6-2.8-4-5-8.7-41.1-8.9-48.8,32.8,19.1,107.6,14.5,141.5-1h.2v.1Z"/>
  <path class="st31" d="M784.4,1154.3c6.9.3,13.6-6.9,18.3-11.2,4.5,4.1,4.1,21.7,4.3,27.6.3,6.8,2.3,20.9-2.5,26.3-3.6,3.5-13.3,10.3-18.5,8.9-1.1.8-2.4,1.1-3.8.9-1.3-9.7,1.3-44.7-4.3-50.3,2.7.2,4.3-.7,6.4-2.3h0l.1.1Z"/>
  <path class="st11" d="M778,1156.5c2.7.2,4.3-.7,6.4-2.3,0,12.3-.5,40.6,1.7,51.7-1.1.8-2.4,1.1-3.8.9-1.3-9.7,1.3-44.7-4.3-50.3h0Z"/>
  <path class="st31" d="M611.2,1142.7c-.2,12.1.8,42-1.9,51.7-2.7,6.2-14.9,10.8-21.2,10.2-1.5,1.3-2.4,2-4.5,1.3-28.1,9.4-102.7,11-123.9-11.6-2.6-5-3.6-41.1-1.8-47h.4l-.2.3,1.6,1.1.2-.8c30.2,19.4,126.4,22,151.3-5.2h0Z"/>
  <path class="st11" d="M583.6,1205.9c2.1-2.6.4-40.2.9-46.8l1-.8,1.4.3c3.4,8.3-1.2,41.7,1.2,46-1.5,1.3-2.4,2-4.5,1.3h0Z"/>
  <path class="st4" d="M373.3,962.9h7.6c-.1,9.2,0,18.5,0,27.7-60.9,2.1-184.9,4.6-244.9,2-2.1,1.4-4.2,1.8-6.5.6-3.7-6.9.1-20.6-1.5-28.6,59.6-1.1,187.5-.6,245.3-1.8h0v.1Z"/>
  <path class="st46" d="M598.1,1210.8c.5,3.4,1.8,7.6.7,10.9-1.6,1.1-2,.8-3.9.7-.8,1.8-1.5,3.3-1.9,5.2,12.9-.8,16.8,43.7,14.7,52.4-7.5,8.7-39.1,13.2-50.3,11.6-2.2,2.1-5.3,2.5-8.2,1.6-4.6,5.8-28.5,13.1-35.1,12.6-1.8-19.8-8.7-31.2-19.2-47.3l.3-.9c1,0,1.4,0,2.4-.4.6-2,1.3-3.6,2.7-5.2,2.6.2,4.5-1.6,6-3.6,10.3-14.8,12.1-8.1,13.1-28.9,4.6-1.5,8.8,0,13.2-1.6,9.8,3.7,54.6-1.3,65.5-7.1h0Z"/>
  <path class="st1" d="M558.2,1225.7c7.4,13.6-3.5,54.3-1.9,65.7l1.1.2c-2.2,2.1-5.3,2.5-8.2,1.6,6.5-16.1,7.8-49.6,9-67.5h0Z"/>
  <path class="st44" d="M568.1,1238.5c7.1-3.4,14.3-13.2,22.5-14.1,1.9-.2,2.8-.8,4.3-2-.8,1.8-1.5,3.3-1.9,5.2.6,0,1.2.2,1.8.2-4.6,5.1-13.2,6.7-18.6,11.4-3.5,3.1-7.4,11.8-9.4,12.9-1.5-2.9.7-10.2,1.4-13.5h0l-.1-.1Z"/>
  <path class="st1" d="M525.8,1218.3c2.9.7,4.1.7,6.8-.4,1.4,14.9-5.6,35.4-20.7,40.7,8-8.6,23-28.6,13.9-40.3h0Z"/>
  <path class="st44" d="M558.2,1225.7l1.8-.7c3.6,2.3,2.3,13.7,1.2,17-.6-4.4-.9-12.6-3-16.3Z"/>
  <path class="st29" d="M440.9,242c.8-28.5,2-30.7,30.8-31,94.2-6.7,191.3,4.7,281,34.6.3,7.5,1.4,15.1,1,22.6-90.7-34-215-43.7-312.8-26.2h0Z"/>
  <path class="st25" d="M452.4,240c-.2-2.8-.6-7.7,1.4-9.9,65.5-12.3,256.1-6,300,38-86.7-32.8-207.4-42.8-301.4-28.1Z"/>
  <path class="st46" d="M444,1242.3c16.8,4.2,34.5,10.4,47.8,22.2,0,.4-.5,1.7-.4,2,9.1,11.2,17.8,27.1,16.5,42.2-10.1,5-54.7,5.1-63.4,1.2-10.4,2.3-74.8-5.3-65.8-24.2,1.9-7.6,6.5-14.7,11.6-20.6,15.3-19.7,32.8-14.5,53.7-22.9h0v.1Z"/>
  <path class="st42" d="M398.7,677.2c10.5,11.3,14.5,18.8,18.6,33.7,1.1-2.8-1.2-6.9,1.6-9,1.6,3,1.8,6.4,3,9.5l.9-1.3c-.6-4.4-2.1-8.2-3.8-12.3,11.9,16.4,23.5,34.4,29.2,54-17.8,16.7-42.4,33.4-68,26.5-7.3-3.3-5.1-13.7-11.8-18.6-7.1-5.2-15.9-1.4-22.5-5.7-2.4-1.6-2.2-5.5-2.9-8-.6-2.2-3.7-3.3-5.6-4.3-4.6-4-6-9.4-7.8-15,27.5-10.3,50.5-26.5,69.1-49.2v-.3h0Z"/>
  <path class="st16" d="M435.4,723.9c5.8,7.2,10,18.9,12.8,27.7-17.8,16.6-42.4,33.4-68,26.5l.7-.8-1-1.1c19.3-6.2,44.1-14.9,52.8-35.1.5-1.3,5.1-3,6.6-4.5,0-3.7-3.2-8.8-3.8-12.6h-.1v-.1Z"/>
  <path class="st1" d="M417.3,710.8c1.1-2.8-1.2-6.9,1.6-9,1.6,3,1.8,6.4,3,9.5l.9-1.3c.5,4,2.6,11.3-1,14.3-4.5-2-3.5-9.2-4.4-13.4h-.1v-.1Z"/>
  <path class="st13" d="M401.3,645c34.5-30.6,61.2-75,105.2-93.1-21.2,32.3-23.5,73-40.8,107.2,0-11.1,1.6-22.3,3.2-33.3,2.585-11.026,5.378-23.717,4.494-23.966-.847-.239-4.874,10.972-7.394,19.166-6.189,20.128-7.549,35.943-9.238,58.35-1.856,24.64-3.178,44.895-4.062,59.25-6.3-8.2-10.2-18.3-15.7-27-9.7-15.3-22.1-28.8-34.5-42,3.4-9.5,2.7-15.6-1.4-24.6h.2,0Z"/>
  <path class="st45" d="M408.6,647.1c13.2,9.8,37.5,39.2,46.9,49.2l1.3-4.9c-.2,4-.6,7.9-1.1,11.9-15.3-19.4-35.2-33.9-47.1-56.2h0Z"/>
  <path class="st40" d="M99,964.3c7.8,0,15.6.4,23.4,0-6.8,94.6-10.5,202-17.7,296.7-4.5,3.7-14.7,2.5-19.4,0,0-66.8,11.3-228.1,13.7-296.8h0v.1Z"/>
  <path class="st46" d="M99,964.3c7.8,0,15.6.4,23.4,0-.2,4.3,0,17.1-1.7,20.4l-.7-5.9c-6.6-1.6-15.3-5.5-21.8-2.4,0-4.1,0-8.1.7-12.2h0l.1.1Z"/>
  <path class="st37" d="M50,762.6c11-.3,22-.4,32.9-.2-12,16.6-6.1,42.3-7.9,61.9-.6,27.7-2,55.7,0,83.3-8.9,1.1-31.1-2.1-39.1-5.5-10.4-14.7-2.3-64.9-4-85.6.3-13.3-.7-27.1.6-40.3-.3-10.2,8.3-14,17.3-13.7h.2v.1Z"/>
  <path class="st42" d="M796,323.6c69.4-1.4,17.9,135-44.5,97.6,2.5-35.9,2.9-85.8,44.5-97.6Z"/>
  <path class="st1" d="M809.4,352.3c-6.8-6.6-17.7,3.7-22.2,8.9-.3,1.9,8.2,5.6,10.1,10.7,3.5,7.3-6.2,34.1-16.1,28.9,3.2-8.2,12.6-16.2,9.6-26-4.4-8.4-11,5.2-15.6,6.7-9.3-11,21.9-47.1,35.9-35.3,0,1.6.3,3,.7,4.5-.8.7-1.4,1.2-2.3,1.7h-.1v-.1Z"/>
  <path class="st16" d="M815.9,361.2c-1.8,5.9-1.8,10-5.3,15.7h-2l.6,1.1c-2.2-4.9-1.4-12.5,1.4-16.9,1.9.3,3.4.4,5.3,0h0v.1Z"/>
  <path class="st16" d="M811.1,346.1c6.1,2.6,6.8,9.5,4.8,15.2-1.9.3-3.4.2-5.3,0,.4-3.4,0-5.7-1.2-8.9.9-.5,1.5-1,2.3-1.7-.4-1.5-.6-2.9-.7-4.5h.1v-.1Z"/>
  <path class="st40" d="M386.6,963.4h19.7c3.3,87.1,10.7,192,12,277.2-1.8.8-2.8.9-4.7.7-2.9,3.2-12,6-16,5.5-2.5-77.7-8.7-207.3-11-283.4Z"/>
  <path class="st14" d="M713.4,533.5c10.9-.4,20.3,4.2,29.3,9.8-29,34.4-39.7,78.5-51.8,120.5-6.2,7.9-18.1,6.5-27.1,5.9-3.6-4.1-7.4-8-9.8-12.9-1-15.7,11.9-48.1,18-63.4,7.6-19.1,21.8-51.5,41.4-59.9h0Z"/>
  <path class="st36" d="M669.1,636.3c17.1-3.7,26.9,19.2,11.6,28.4-18.1,6.6-24.8-18.8-11.6-28.4Z"/>
  <path class="st46" d="M671,642.2c12.7-.3,16,9,7.2,17.7-10.8,3.3-15.1-11.9-7.2-17.7Z"/>
  <path class="st3" d="M189.9,278.4c34.2-8.9,31.7,21,43.4,28.3,6.6,1.5,14.4-.8,21.2-.3,2.7,10.2,4.3,21.1,5.3,31.6-37.9,3.6-76,5.8-114,7.3-.9-10.4-5.2-20.4-5.8-30.7,10.3-.2,21.2.2,31.3-1.3,0-14.5,1.5-31.3,18.7-34.9h-.1Z"/>
  <path class="st32" d="M171.3,313.4c0-14.5,1.5-31.3,18.7-34.9-7.7,6.2-11.9,6.1-15.6,16.3-1.9,4.6-5.1,14.6,1.5,16.5,4-5.4-2.5-12.4,1.5-18.1l1-.4c8.8-15.6,36.2-15.6,39,4.4,2,11.3-3.4,17.1-13.5,20.9-1.2-.2-1.3,0-2.1-1,.9-.8,1.8-1.4,2.8-2l-.9-.3c-6.4,3.3-14.9-1.3-15.4-8.5-.8,2.2,1.1,3.7.4,5.2-2.4-1.5-2.7-3.1-5.6-3.7-4.3,2.5-6.4,5.5-11.8,5.6h0Z"/>
  <path class="st1" d="M188.3,306.2c-1.5-14.7,21.1-16.1,21.5-1.4.3,13.5-20.1,14.8-21.5,1.4Z"/>
  <path class="st35" d="M198.3,300c6.2-.7,7.9,8.9,1.8,10.3-7.1,1.9-9.2-9.7-1.8-10.3Z"/>
  <path class="st44" d="M178.4,292.8c8.1-16.8,41.7-14.4,37.9,6.8-4.3-2.8-5.5-8.9-9.5-11.8-8.4-5.5-21.4,1.1-24.7,9.9-.9,2.9-.9,6.2-2.7,8.7-3.2-3.9-1.7-8.9-1-13.6Z"/>
  <path class="st37" d="M146.8,326.4c-.8-3.1-1.8-6.1-1.6-9.3l1-1.2,1.1.2c3.8,6.1,5.8,14.6,8,21.5,26-1.1,76.8-8.1,99.7-5.6l.3,1.7c-2.5,4.2-7.9,1.1-11.9,2.3-7.9,2-51.7,4.5-58,1.7-14.4,2.5-40.9,13.7-38.5-11.2h-.1v-.1Z"/>
  <path class="st37" d="M146.8,326.4c-.8-3.1-1.8-6.1-1.6-9.3l1-1.2,1.1.2c3.8,6.1,5.8,14.6,8,21.5,7.2-.6,14.5-1.1,21.7-1.9.8,1.1,1.1,1.3,1.2,2.7-6.4,3.3-19.6,2.3-26.9,2.5-2-4.7-3.4-9.5-4.5-14.5h0Z"/>
  <path class="st32" d="M146.8,326.4c1.2,5,2.6,9.6,4.5,14.4,7.3-.1,20.5.8,26.9-2.5-.1-1.3-.4-1.6-1.2-2.7,7.9-1.6,14.5,1.5,22.3,1.7,9.7-.7,50.4.4,55.7-5.5l.3,1.7c-2.5,4.2-7.9,1.1-11.9,2.3-7.9,2-51.7,4.5-58,1.7-14.4,2.5-40.9,13.7-38.5-11.2h-.1v.1Z"/>
  <path class="st40" d="M29.4,994.8c4.8,1.4,17.2,2.8,21.6.6-5.8,81-10.1,164-18.3,244.8-3.8,3.4-13.6,1.8-17.6-.2-1.2-1.8-1.1-3.9-1.1-6,4.8-79.7,11.3-159.5,15.4-239.2Z"/>
  <path class="st37" d="M140.2,1083.2c68.8,1.3,155.2-1.7,224.4-3.8,12.2-4,8.5,12.6,8.6,19.8-63,7.8-147.4,3.4-211,5.9-22.4,0-28,4.9-22-21.9h0Z"/>
  <path class="st46" d="M609.1,1286.7c1.6.4,1.8.5,3,1.7.8,7.5,1.4,20-5,25.3-6.4,3.8-36.1,9-43.8,7.4,0-2.2.8-5.7-.3-7.6-12.5,1.2-22.7,8.1-34.2,12-23.1,14-178.7,21.3-153.3-26.1,54.2,28.4,123.6,23.8,178.7,0,13-3.2,46.1-2.2,55-12.7h-.1Z"/>
  <path class="st18" d="M516.4,828.2c7.2-.9,55.2.4,59.2,3.8,1.8,1.6,2.5,5.7,2.9,8,1.1,7.7,1,48.7-2.6,53.4-15.8-1.1-46.7,3.1-59.2-6.2-6.2-7.1-7.8-51.6-.2-59h-.1Z"/>
  <path class="st22" d="M525.1,837.2c6,1.2,37.6-.5,42,3.6,2.4,5.6,5.2,37.1,0,41.5-9.1-.7-43.8,5.4-45-6.9,0-8.2-2.7-31.6,3-38.1h0v-.1Z"/>
  <path class="st46" d="M529.9,844.3c10.9.6,21.9,1.1,32.7,2.4,0,9.8,0,19.7-.2,29.5-9.3-.4-21.8.8-30.8-1.1-10.3-5.6-4-11.4,4.5-13.3v-.8c-2.1-1.7-4.4-1.8-7-2.2-1.9-3.3-1.1-11.5.6-14.5h.2Z"/>
  <path class="st17" d="M762,889.2c4.9-4.6,10.2-8.2,16.4-10.8,3.7,67.8,12.5,195.8,15.5,262.4-2.7,3.9-8,7.5-12.9,7.1-7-82.9-13-166.1-12.8-249.3l-2.7-.4c-2.6,3.3-.8,11-1.3,15.2-2.2-6.9,1.7-18.1-2.3-24.2h.1Z"/>
  <path class="st19" d="M762,889.2c4.9-4.6,10.2-8.2,16.4-10.8.4,4.7,1.2,9.7.9,14.4-2.8-3.3.5-10.2-3.9-11.5-8,1.9-7.6,10.7-7.2,17.3l-2.7-.4c-2.6,3.3-.8,11-1.3,15.2-2.2-6.9,1.7-18.1-2.3-24.2h.1Z"/>
  <path class="st39" d="M351.5,634.5c-.6-10.2-4.5-65.5-2.3-70.9,2.2-1.1,4.6-2.3,4.3-5.1-27.7-15.5-33.8-90.7,12.3-72.1,5.2,13.7-2.6,26.1-1.4,40,1.5,17.1,13.4,31.9,11,49.8-.8,12.9-16,27.2-12.8,37.3,1.7,0,3.4,0,5.1.2,1.7,1.3,3.1,2.7,4.5,4.3-8.3.6-3.9,8.6-20.8,16.5h.1Z"/>
  <path class="st14" d="M552.6,538.2l.5.4c-21,21.1-30.3,60-34.5,88.8-1.3,9.2-.6,20.2-5.7,28.4-5.2,9.1-17.1,8.3-24.4,2.2-3.4-4.8-5-10.3-6.8-15.8,8.2-26.2,13.2-53.8,26.8-77.9,13.1-23.1,21.8-19.9,44.1-26.1h0Z"/>
  <path class="st36" d="M499,628c13.7,0,16.3,16.8,9.5,26.2-21.5,14.1-30.3-19.4-9.5-26.2Z"/>
  <path class="st46" d="M498,633.9c10.8-.3,11.6,13.6,3.7,18.5-10.6,1.6-11.3-14.2-3.7-18.5Z"/>
  <path class="st16" d="M679.2,515.4c.4,0,1.1.4,1.5.6,1.3,4.1,1.2,8.4,1.3,12.6-25.2,30.4-70.9,54.9-110.4,40.3-10.9-4.6-8.2-20.1-7.6-29.7,44,3.8,75.4-5,115.2-23.9h0v.1Z"/>
  <path class="st46" d="M659.4,1319.6c26.1,28.5,140,28.3,165-1.9,6.2,27.4-15.9,32.4-37.4,37.6-6,1.2-18.7,4.3-24.3,2.2h-2.9c-6.6,4.4-30.1,2.3-37.4,0-4.4,1.3-9,2.2-12.9-.6-7,3-23.4-2.9-30.7-5.8-17.4-6.8-22.4-12.7-19.4-31.5h0Z"/>
  <path class="st44" d="M709.5,1356.9c2,.8,3.3,1.3,5.5.9,2.3-2,3-5.8,4.1-8.5,1.5,2.5,1.8,6.1,3.4,8.2-4.4,1.3-9,2.2-12.9-.6h-.1Z"/>
  <path class="st21" d="M759.8,1357.5c-1.4-2.3-1.5-4.6,0-7h1.2c1.4,2.1.5,5.2,1.8,7h-3Z"/>
  <path class="st5" d="M361.5,628.3c4.2-3.3,4.5-10.3,10.9-10.4,6.6,10,25.8,30.2,24.2,42-1.8,22.2-80.8,85.1-93.5,49,66.7-1.9,51.1-18.4,48.4-74.5,2.6-1.9,7.3-4.2,9.9-6.1h.1Z"/>
  <path class="st44" d="M361.5,628.3c4.2-3.3,4.5-10.3,10.9-10.4l.9,1.4c-2.3,6.5-8.9,15.8-14.5,19.8,2.2-3.8,4.2-6.4,2.7-10.8Z"/>
  <path class="st21" d="M356.1,631.8l5.4-3.5c1.7,5.4-2,11.7-6.9,14.1-1.8-3.5.4-7.1,1.5-10.6Z"/>
  <path class="st9" d="M734.2,271.1l1-1c15.9,7.4,67.4,24.6,67.7,43.9-3.3,3.2-13.2,3.3-17.9,5.1-7.7,3-14.4,9.3-21.7,13.2-10.1,5.4-22.9,8-33.9,11.3,6.5-23.5,6-48.3,4.8-72.5h0Z"/>
  <path class="st1" d="M745,303.1c0-4.2-.7-11.9,2.9-14.9,4.4,3.6,0,37.9-3.1,42.6h-1l.6-1.5c-2.8-6,.2-19.4.7-26.3h-.1v.1Z"/>
  <path class="st36" d="M745,303.1l1.3.7c.7,3.4-2,7.7-1,10.6h1c.4-.7,1.1-1.3,1.8-1.9,0,5.2-.5,13.8-3.3,18.3h-1l.6-1.5c-2.8-6,.2-19.4.7-26.3h0l-.1.1Z"/>
  <path class="st1" d="M760,292.8c8.8,3.2,0,24.3-.7,31.4-1.3,0-1.4,0-2.5-.6-1.2-4.9,2.6-24.7,3.2-30.8Z"/>
  <path class="st46" d="M447.6,817.1c20.7,17.5,33.2,14.7,58.6,17.8-.9,14.4.5,28.6-.2,42.9-17.1-.3-47.5-3.3-59.9-15.6-.5-14.6-2.2-30.8,1.4-45.1h.1Z"/>
  <path class="st22" d="M477.5,846.5c7.2.4,8.3,8.6,3.8,13.2-7.8.5-8.6-8.8-3.8-13.2Z"/>
  <path class="st42" d="M799.4,732.9c1.2,9.6,1,19.1.2,28.7,4,.7,1.1,3.5,2.9,5.8,1-4.2,1.5-8.5,2.2-12.7,13,31.2,46.5,49.3,79.5,40.9-42.2,42.3-86,7.6-107.3-35.9,7.1-9.1,14.2-18.5,22.3-26.8h.2,0Z"/>
  <path class="st16" d="M789.2,763c2-5.7,3.6-14.9,11.1-14.9,0,6.4-1,12.8-.9,19.2-1.2,2-1.3,2-3.5,2.7-2.8-1.6-4.9-4.4-6.7-7h0Z"/>
  <path class="st27" d="M316.3,315.6c7.3-1.3,13.8,1.6,13.7,9.8,4.4,51.3,3.6,103.1,7.9,154.4-3.7,3.4-6.8,6.8-9.8,10.8-5.1-52.9-1-107.8-9-160.2l-1.3-.3.9-.3c-4.2-1.5-44.6,2.2-52.2,2.8-.2-4.8-.9-9.5-1.6-14.2,17.1-1.2,34.3-2.1,51.5-2.8h-.1Z"/>
  <path class="st35" d="M874.8,456.7c1.5.3,3.2.8,4.8.8-1.4,8.8,14.8,7,20.6,16.6-2.2,1.4-3.3,3.1-4,5.6,19.2,49.5-77.9,41.1-43.3-5.8-1.1-2.1-2.5-4.2-3.3-6.5,7.8-9.8,23.4-1.8,25.3-10.7h-.1Z"/>
  <g>
    <path class="st22" d="M874.8,456.7c.03.006.062.014.092.02.002-.007.005-.013.008-.02h-.1Z"/>
    <path class="st22" d="M879.6,457.5c-1.568,0-3.23-.478-4.708-.78-2.91,8.867-13.299,1.385-21.893,7.88-.588.402-1.204.854-1.837,1.363-.607.487-1.16.97-1.662,1.438.8,1.7,1.5,3.7,2.7,5.2.74-.783,1.486-1.591,2.238-2.425.781-.867,1.535-1.726,2.262-2.575,13.6-5.2,33.6-3.3,39.5,12.1.7-2.5,1.8-4.2,4-5.6-5.8-9.6-22-7.8-20.6-16.6Z"/>
  </g>
  <path class="st22" d="M857.9,491.9c5.6-26.1,36.5-11.8,23.8,9.9-9.4,11-23.5,3.8-23.8-9.9Z"/>
  <path class="st35" d="M876.5,501.8c-26.9,4.9-9-36,4.5-13.7-.9,4.8-1.3,9.7-4.5,13.7Z"/>
  <path class="st8" d="M889.9,395.4c.8-5.6,1.1-18.4,5.1-22.2,7.4,7.9,6.1,22.3,8.5,32.5,2.9,20.7,9.7,49.8-2.2,68.7l-1.1-.3c-5.8-9.6-22-7.8-20.6-16.6-1.6,0-3.2-.5-4.8-.8-.6-11.9-7.9-26.2,2.5-36,1.917.018,3.835.037,5.752.055.14-.141.277-.288.413-.441,1.645-1.853,2.448-4.003,2.835-5.914.696-3.003,1.359-6.13,1.975-9.375.628-3.308,1.166-6.52,1.625-9.625Z"/>
  <path class="st22" d="M881.2,420.3l2.5-.7c1.3-1.7,1.3-2.5,1.5-4.5l1.2-.7c-.3,2.9-1.4,6.9-.6,9.7,6.4,10.8-3.7,22.8-6.2,33.5-1.6,0-3.2-.5-4.8-.8-.6-11.9-7.9-26.2,2.5-36,.841-.18,1.681-.361,2.522-.541.459.014.919.027,1.378.041Z"/>
  <path class="st35" d="M889.9,395.4c3.8,4.7-.5,24.6-4.1,28.5-.7-9.4,3.3-19.1,4.1-28.5Z"/>
  <path class="st6" d="M136.3,1068.1c4.2,1.9,8.8-.3,12.8.9,4.8,7.1,29.7,5.6,37.5,4.3,19.8-8.4,42.6-3.1,63.6-5.5,15.3-.3,31.1-2.5,46.2-.3,5,1.9,4.1,4,12.1,4.2,11.6.3,40.1-1.7,49.7,1.6-67.1,2.8-148.8,6.6-215.9,3.7-3.3,1.2-5.7,2.8-6.3,6.3,1.9.7,2.3.4,4.2,0-2,5.7-2.9,15.3-.8,20.8-5.6,1.9-13.6,0-18-3.8,0-11,1.5-22,1.8-32.9,3.4,2.2,9.3,1.5,13.1.8h0v-.1Z"/>
  <path class="st1" d="M123.2,1067.3c3.4,2.2,9.3,1.5,13.1.8-9.6,6.1-13.4-5.6-12.4,12.7l1.1.8c3.2-1.8,6.9,0,10.2-1.5l.6-2.6,1.7-1.1c1.6.6,3.1,1,4.8.6-3.3,1.2-5.7,2.8-6.3,6.3,1.9.7,2.3.4,4.2,0-2,5.7-2.9,15.3-.8,20.8-5.6,1.9-13.6,0-18-3.8,0-11,1.5-22.1,1.8-33h0Z"/>
  <path class="st40" d="M9.8,923.5c21,.3,42.5,1.8,63.3,2.3,4.5,6.3.7,21.8,2.1,29.9-21.5,0-43-1.4-64.4-2.3-1.8-9.9-1.3-19.9-1.1-29.9h.1Z"/>
  <path class="st44" d="M71.5,925.3l1.6.5c4.5,6.3.7,21.8,2.1,29.9h-3.4c-2.6-7-.8-22.6-.3-30.4Z"/>
  <path class="st43" d="M831,529.7c-1.9-5.7-8.8-10.1-7.4-16.7l1.6,4.2c6.9-2.1,19.9,1.9,24.8,7.2-1.7,6.8-18.3,1.7-19.1,5.3h.1Z"/>
  <path class="st7" d="M799.9,579.4c2.636-.351,11.127-1.133,18.596,4.199,9.041,6.455,12.886,19.227,9.211,31.775-2.336,6.609-4.672,13.217-7.008,19.826-28.1,2-53.6-43.6-20.8-55.8Z"/>
  <path class="st12" d="M759.5,248.2c12.2,3.7,55.9,21.6,60.6,32,3.1,9.6-1.7,27.3-7.1,35.6-5.8-22.1-33-33.7-52.4-42.7.3-8.3-.5-16.7-1.1-25h0v.1Z"/>
  <path class="st2" d="M787.6,699.6c-.8-15.4,4.2-49.4,11.4-62.8,1.8-.8,2.7,0,4.5.6,5.3,2.2,11.1,2.5,16.7,3.8,2.1,13.1-4.2,25-7.7,37.3-2.9,10.6-3.7,22.2-8,32.4-13.4,5.1-17.7,3.9-17-11.3h.1Z"/>
  <path class="st43" d="M803.5,637.4c5.6,1.267,11.2,2.533,16.8,3.8,2.1,13.1-4.2,25-7.7,37.3-2.9,10.6-3.7,22.2-8,32.4-13.4,5.1-17.7,3.9-17-11.3,1.2,3.8,2,12.9,7.5,12,2.8-2.6,1.3-4.1,3-7,2.6-4.6.2-9.1,1.6-13.9,3.5-12.4,9-25.2,11.5-37.8.326-1.63.153-2.772-.324-3.621-1.661-2.957-5.53-2.458-7.326-5.165-.757-1.141-1.276-3.107-.05-6.714Z"/>
  <path class="st46" d="M30.4,962.5c20.8-.2,41.7,1,62.5,1.8-1,8.5-2.2,16.9-2.3,25.5-1.5,3.9-56.9.9-61-1.7-.5-8.2.2-17.4.9-25.6h-.1Z"/>
  <path class="st35" d="M881.9,371.5l1.7-1.7h1.5c1.6,2.3,0,8.2-.3,10.9-2,12.5-4.6,25-6.5,37.6-.097.359-.195.718-.292,1.077-.203.474-.405.949-.608,1.423-13.5,12.4,2.1,30.1-4.4,39.3-6,2.5-16.8-.4-23.4,7.3.736-12.543,2.928-28.935,8.8-47.3,6.719-21.012,15.921-37.304,23.5-48.6Z"/>
  <path class="st15" d="M881.9,371.5c1.1,11.7-6.8,23.2-11.8,33.4-3.3,4.6-3.7,10.2-5.5,15.4-1.8,4.2-9.8,19.6-13.1,22.1-.7,0-1.3,0-2-.3,9.8-23.6,19.1-48.8,32.5-70.5h-.1v-.1Z"/>
  <path class="st2" d="M876.9,573.9c0-8.7-3.7-45.3.5-50.4,2.6-3.3,9.1-4.5,13-5.1,5.8-.6,21.1-3,21.7,5.8-.8,5.2-7,7.1-8.8,12-1.8,14.5-3.5,29-3.3,43.6-7.7-2.9-15-5-23.2-5.9h.1Z"/>
  <path class="st43" d="M903.3,536.2c-7-.7-16.1,1.3-21.8-3.7l.2-1.4c5.4-3.5,20.3-3.1,25.8-.4-1.7,1.8-3.2,3.2-4.2,5.5h0Z"/>
  <path class="st39" d="M700.8,812.7c3.2.2,7.3.4,7.9,4.3.7,16.9,2.5,123.7-8.2,140.8-1.8.7-4,2.1-5.9,1.2,5.5-17.4,2.9-38,4.1-56.3,1.1-30,2.7-60,2-90.1h.1v.1Z"/>
  <path class="st46" d="M737.5,836.9c1.3-.4,1.3-.2,2.5.3,4.2,23,9.1,49.3-24,43-1.5-8.7.8-30.7.5-41.5,7-.4,14-1,21-1.8Z"/>
  <path class="st21" d="M784.7,813.9c6.1,5.6,3.4,34.6,2.6,42.9-5.4,6.8-13,11.7-18.5,18.4-.7.9-2,1-3,1.4,4.7-13.7,1.8-32.3-.8-46.2,2.1-2.4,6.3-2.7,8.9-4.6,4.6-3.4,7.1-9,10.8-11.7v-.2h0Z"/>
  <path class="st46" d="M316.8,1001.7c4.9,1.7,18.2,1.2,23-.6.6,15.3,1.6,31.5.3,46.8h-1.1c-.5-1.8-2.4-3-3.7-4.1-9.5-7.9-12.1-3-18.8-7,.4-11.7-.3-23.5.3-35.2h0v.1Z"/>
  <path class="st18" d="M439.6,269.9l1.4.8c2.7,25.8-.3,55.8,2,82.1-16.2-15.1-20.6-67.3-3.4-82.9Z"/>
  <path class="st39" d="M393.9,218.3c8.8,3.9,31.5-4.8,42.8-5.7-1.4,9.1-2.3,18.5-2.6,27.7-14.1-4.5-34.4-8.6-44.7-19.8,2.1-.6,3-.6,4.5-2.3h0v.1Z"/>
  <path class="st37" d="M676.7,688.3c7.4,1.5,1.4,71,1.4,79.2-2.3,1.7-6.7.3-9.3-.2l-.6-.9c1.5-11.8,2.2-23.3,2.7-35.2,1.3-13.5-1.8-31.2,5.7-42.9h.1Z"/>
  <path class="st46" d="M743.4,828.2c13.7-1,16.1,8.1,16.6,19.7.6,7.3,1.3,29.9-3.3,35.3-3.3.9-8.1,3.7-10.9.6,4.3-13.4,5.1-44.4-2.4-55.6h0Z"/>
  <path class="st41" d="M156.781,1045.872c4.584-.531,9.897-.849,15.792-.661,4.994.159,9.531.652,13.527,1.29.7,6.933,1.4,13.867,2.1,20.8-4.41,1.04-10.255,1.97-17.138,1.875-6.002-.083-11.154-.923-15.191-1.875.303-7.143.606-14.285.91-21.428Z"/>
  <path class="st14" d="M454.6,880.2c5.1-6.1,14.3,0,20.2,2.2l.7,1-1.9.6c-4.7,12.6-8.4,24-18.2,33.7-.9-12.5-1-25-.8-37.5h0Z"/>
  <path class="st11" d="M454.6,880.2c5.1-6.1,14.3,0,20.2,2.2l.7,1-1.9.6c-6.1-1.5-12.8-2.6-19-3.8h0Z"/>
  <path class="st17" d="M454.6,880.2c4.3,1.2,8.8,1.1,12.9,2.5-2.6,3.1-6.2,2.5-9.9,1.9-3.3,2-2.4,5.9-3.1,9.2-.1-4.5,0-9.1,0-13.6h.1Z"/>
  <path class="st46" d="M494.8,1258.5c-8.9-5.7-16.1-11.2-26.3-14.9-4.8-1.7-12.4-2.6-15.4-7,8.4-7.1,29.3,1.5,38.1,5.5,7.1,2.8,4.9,7.3,9.1,9.9-1.4,1.6-2.1,3.2-2.7,5.2-.9.3-1.4.4-2.4.4l-.3.9h-.1Z"/>
  <path class="st21" d="M495.1,1257.6c-1.7-3.2.7-5.8,2.7-8.1.8,1.2.9,2.1,2.4,2.5-1.4,1.6-2.1,3.2-2.7,5.2-.9.3-1.4.4-2.4.4Z"/>
  <path class="st41" d="M305.224,1046.244c.676-.208,1.857-.551,3.349-.868,8.445-1.793,10.292.779,19.348.413,1.065-.043,3.054-.16,4.382,1.116,1.083,1.041,1.215,2.517,1.282,3.225.309,3.279.903,7.993,1.654,14.015-10.101.248-20.202.496-30.303.744-.462-2.95-.78-6.544-.62-10.625.117-2.999.47-5.692.91-8.02Z"/>
  <path class="st46" d="M473.3,1218.4c9.9,2.1,24.6,5.6,33,11.3,2.1,4.3-2.7,12.8-7.1,7.6-6.8-2.8-26.2-9.8-35-10.2l.7-1.2,3.5-.5c2.3-1.9,3.5-4.6,5-7.2v.2h-.1Z"/>
  <path class="st34" d="M664.1,773.6c5,0,9.7,0,14.7,1,0,4.8,1.6,19.6-.9,23.1l-15.7-.6c.5-7.9,1-15.7,1.9-23.5Z"/>
  <path class="st37" d="M634.4,772l7,1.3c.7,13.6,1,13.9-12.4,12.1-.7-5.7-1.5-11.8,5.5-13.4h-.1Z"/>
  <path class="st43" d="M849.3,711c4.8,1.2,12.7,3,15,7.9-6.7,6.1-21.3,3.1-15-7.9Z"/>
  <path class="st44" d="M585.1,867.2c-.2-4.3-.9-9.5,2.8-12.5l2.8.9v-.3c3.5,5.1.6,10.8,1.1,16.5-2.2.4-4.3.2-6.5,0v-4.7h-.2v.1Z"/>
  <path class="st1" d="M591.7,867v4.8c-2.2.4-4.4.2-6.6,0v-4.7h6.6v-.1Z"/>
  <path class="st44" d="M585.2,871.9c2.2,0,4.3.3,6.5,0,.5,6.2,1,12.1-7,12.5,0-4.2,0-8.2.5-12.4h0v-.1Z"/>
  <path class="st44" d="M584.8,838.4c2.4,0,4.4-.2,6.7.6,1.3,2.1.4,5.4.2,7.8-6.8,5.4-7.4-3.4-7-8.4h.1Z"/>
  <path class="st46" d="M492.9,1216.2c6.6,2.2,14.2,1,20.9,2.7l.4,1.1-1.1.7-1,2.1c-4.1.9-16.3-4.1-19.2-6.6h0Z"/>
  <path class="st44" d="M636,796.9c-2.2-.3-4.3-.3-6.5-.3l-1.1-1.1c0-1.9-.2-2.2,1.2-3.5,3.5.6,6.8-.4,9.9,1.6l.5,1.1c-1,1.4-2.3,1.9-3.9,2.3h-.1v-.1Z"/>
  <path class="st37" d="M325.3,745.2c3.8.3,6.9,4.9,5.6,8.5-6.5,1.8-8-3.4-5.6-8.5Z"/>
  <g class="st26">
    <g class="st26">
      <path class="st33" d="M148.7,810.6v-6.8l5-5v13.1l-1.9,1.9-3.1-3.2ZM153.7,817.6v13.1l-5-5v-6.8l3.1-3.2,1.9,1.9Z"/>
      <path class="st33" d="M161.6,811.9v-13.1l5,5v6.8l-3.1,3.2-1.9-1.9ZM177.8,812.2l2.5,2.5-2.5,2.5h-10.8l-2.5-2.5,2.5-2.5h10.8ZM178.1,810.6v-6.8l5-5v13.1l-1.9,1.9-3.1-3.2ZM183.1,817.6v13.1l-5-5v-6.8l3.1-3.2,1.9,1.9Z"/>
      <path class="st33" d="M188.8,811.9v-13.1l5,5v6.9l-3.1,3.2-1.9-1.9v-.1ZM193.8,818.9v6.8l-5,5v-13.1l1.9-1.9,3.1,3.2ZM209.3,797.8l-5,5h-9.5l-5-5h19.6-.1ZM209.3,831.7h-19.6l5-5h9.5l5,5h.1ZM204.9,812.2l2.5,2.5-2.5,2.5h-10.8l-2.5-2.5,2.5-2.5h10.8ZM210.2,817.6v13.1l-5-5v-6.8l3.1-3.1,1.9,1.9v-.1Z"/>
      <path class="st33" d="M215.4,831.7v-5h5v5h-5Z"/>
      <path class="st33" d="M225.5,811.8v-13.1l5,5v6.8l-3.1,3.2-1.9-1.9ZM246,797.8l-5,5h-9.5l-5-5h19.6-.1ZM246,831.7h-19.6l5-5h9.5l5,5h.1ZM241.6,812.2l2.5,2.5-2.5,2.5h-10.8l-2.5-2.5,2.5-2.5h10.8ZM247,817.6v13.1l-5-5v-6.8l3.1-3.1,1.9,1.9v-.1Z"/>
      <path class="st33" d="M257.7,818.9v6.8l-5,5v-13.1l1.9-1.9,3.1,3.1v.1ZM273.2,797.8l-5,5h-9.5l-5-5h19.6-.1ZM273.2,831.7h-19.6l5-5h9.5l5,5h.1ZM268.8,812.2l2.5,2.5-2.5,2.5h-10.8l-2.5-2.5,2.5-2.5h10.8ZM269,810.6v-6.8l5-5v13.1l-1.9,1.9-3.1-3.2Z"/>
      <path class="st33" d="M279.8,811.9v-13.1l5,5v6.9l-3.1,3.2-1.9-1.9v-.1ZM284.8,818.9v6.8l-5,5v-13.1l1.9-1.9,3.1,3.2ZM300.3,797.8l-5,5h-9.5l-5-5h19.6-.1ZM300.3,831.7h-19.6l5-5h9.5l5,5h.1ZM296.2,810.6v-6.9l5-5v13.1l-1.9,1.9-3.1-3.2v.1ZM301.2,817.6v13.1l-5-5v-6.8l3.1-3.1,1.9,1.9v-.1Z"/>
    </g>
  </g>
  <g>
    <path class="st13" d="M136.518,369.425c1.545-.122,3.073-.028,4.583.284,1.51.312,2.89.82,4.14,1.526l-2.575,3.786c-.798-.604-1.735-1.043-2.812-1.32-1.077-.276-2.098-.376-3.063-.3-1.076.085-2.034.447-2.873,1.081-.838.636-1.21,1.547-1.117,2.732.063.802.317,1.475.764,2.023.446.547,1.023,1.009,1.733,1.383.709.375,1.495.736,2.355,1.084,1.003.393,2.042.797,3.116,1.211,1.074.415,2.08.94,3.019,1.575.938.632,1.724,1.44,2.356,2.416.633.978,1.008,2.212,1.125,3.702.159,2.016-.202,3.766-1.085,5.251-.882,1.486-2.102,2.651-3.66,3.497s-3.275,1.34-5.152,1.489c-1.684.133-3.375.08-5.073-.162-1.7-.24-3.314-.731-4.844-1.471l1.583-4.749c1.036.808,2.21,1.444,3.525,1.909,1.313.465,2.633.645,3.958.541.883-.07,1.697-.3,2.444-.692.746-.392,1.342-.932,1.788-1.62.445-.688.63-1.514.554-2.48-.079-.993-.419-1.792-1.022-2.397-.604-.604-1.366-1.121-2.289-1.548-.922-.426-1.913-.833-2.97-1.223-.944-.342-1.876-.719-2.796-1.133-.922-.413-1.766-.908-2.534-1.486-.768-.578-1.409-1.312-1.923-2.203-.515-.889-.822-1.968-.922-3.238-.159-2.015.208-3.695,1.102-5.044.894-1.347,2.103-2.387,3.627-3.118,1.524-.731,3.17-1.167,4.937-1.306Z"/>
    <path class="st13" d="M161.724,367.935l13.113,29.454-6.126.483-3.666-8.457-9.024.712-2.335,8.931-4.802.379,8.329-31.146,4.512-.356ZM159.396,375.366l-2.288,10.594,6.25-.494-3.963-10.1Z"/>
    <path class="st13" d="M174.722,366.909l17.758-1.402.323,4.098-11.425.902.677,8.568,8.817-.696.323,4.098-8.816.696,1.068,13.536-5.753.455-2.193-27.774-.779-2.479Z"/>
    <path class="st13" d="M195.791,365.246l19.042-1.503.323,4.098-12.75,1.006.677,8.568,9.769-.771.324,4.098-9.77.771.746,9.438,12.75-1.006.323,4.098-18.42,1.454-2.193-27.774-.82-2.476Z"/>
    <path class="st13" d="M225.628,367.013l-8.403.664-.323-4.098,22.85-1.804.323,4.098-8.527.673,2.069,26.202-5.92.467-2.069-26.202Z"/>
    <path class="st13" d="M246.829,361.216l6.933,10.781,5.32-11.749,4.968-.393-7.679,17.225,1.088,13.784-5.505.435-1.088-13.784-10.163-15.816,6.126-.483Z"/>
    <path class="st13" d="M113.563,452.708c-2.4.189-4.537-.037-6.405-.681-1.87-.643-3.469-1.634-4.796-2.973-1.328-1.34-2.371-2.95-3.13-4.835-.76-1.883-1.229-3.957-1.407-6.22-.174-2.207-.004-4.275.509-6.205.514-1.929,1.343-3.646,2.488-5.153,1.144-1.507,2.582-2.724,4.314-3.653,1.731-.927,3.729-1.48,5.991-1.659.994-.079,2.113-.063,3.357.047,1.244.11,2.463.333,3.656.669,1.193.336,2.203.818,3.03,1.448l-2.679,4.043c-.543-.54-1.203-.988-1.981-1.343-.778-.355-1.589-.603-2.433-.745-.844-.142-1.653-.182-2.425-.121-1.601.126-2.927.559-3.979,1.293-1.053.736-1.867,1.682-2.442,2.838-.575,1.156-.954,2.416-1.139,3.776-.185,1.362-.221,2.747-.11,4.154.196,2.483.716,4.587,1.561,6.312.844,1.724,1.966,3.01,3.366,3.857,1.4.848,3.024,1.198,4.874,1.052,1.159-.091,2.374-.346,3.646-.767,1.272-.418,2.596-1.059,3.972-1.917l1.939,2.929c-.759.588-1.51,1.105-2.252,1.553-.742.447-1.503.826-2.284,1.138-.781.312-1.601.563-2.46.756-.859.193-1.786.328-2.78.406Z"/>
    <path class="st13" d="M144.162,436.172l-12.708,1.003,1.069,13.536-5.712.451-2.193-27.775c-.002-.027-.067-.23-.194-.61-.128-.378-.249-.771-.364-1.179-.115-.408-.189-.638-.221-.691l6.292-.497,1,12.667,12.708-1.003-1-12.667,5.712-.451,2.392,30.301-5.712.451-1.069-13.536Z"/>
    <path class="st13" d="M153.353,418.578l19.042-1.503.323,4.098-12.75,1.007.677,8.569,9.769-.771.324,4.098-9.77.771.746,9.438,12.75-1.007.323,4.098-18.42,1.455-2.193-27.775-.821-2.477Z"/>
    <path class="st13" d="M191.673,446.541c-2.401.189-4.537-.037-6.406-.681-1.87-.643-3.469-1.635-4.796-2.973-1.328-1.34-2.371-2.951-3.131-4.835-.76-1.882-1.229-3.957-1.407-6.22-.174-2.207-.004-4.275.51-6.204.514-1.929,1.342-3.646,2.488-5.153,1.144-1.507,2.582-2.725,4.314-3.653,1.731-.927,3.729-1.48,5.992-1.659.993-.079,2.112-.062,3.356.047,1.245.11,2.463.333,3.656.669,1.192.336,2.203.819,3.029,1.448l-2.679,4.043c-.543-.54-1.203-.988-1.98-1.343s-1.589-.603-2.433-.745c-.845-.142-1.654-.182-2.426-.121-1.6.126-2.927.558-3.979,1.293-1.053.736-1.867,1.682-2.442,2.838s-.955,2.416-1.139,3.776c-.184,1.362-.221,2.746-.109,4.153.196,2.483.716,4.587,1.561,6.312.845,1.724,1.966,3.01,3.366,3.858,1.4.847,3.024,1.198,4.873,1.052,1.159-.092,2.374-.346,3.646-.767,1.271-.418,2.596-1.059,3.972-1.917l1.939,2.93c-.759.588-1.51,1.105-2.252,1.553-.742.447-1.503.826-2.284,1.138-.781.312-1.601.563-2.46.756-.859.193-1.786.328-2.779.406Z"/>
    <path class="st13" d="M201.907,414.744l6.292-.497,1.068,13.536,9.032-14.333,5.298-.418-8.806,14.024,12.067,16.208-6.623.523-10.857-14.596,1.212,15.357-5.712.451-2.193-27.775-.779-2.479Z"/>
    <path class="st13" d="M226.081,412.835l6.292-.497,2.069,26.203,11.88-.938.323,4.098-17.634,1.393-2.193-27.775-.738-2.483Z"/>
    <path class="st13" d="M247.316,411.159l6.292-.497,2.392,30.301-5.712.451-2.193-27.775c-.002-.027-.067-.231-.194-.61-.127-.378-.249-.771-.364-1.179-.115-.407-.189-.637-.221-.691Z"/>
    <path class="st13" d="M267.725,409.048c1.545-.122,3.073-.027,4.583.284,1.511.312,2.89.82,4.141,1.526l-2.575,3.786c-.798-.604-1.735-1.044-2.812-1.32-1.077-.276-2.099-.376-3.064-.299-1.076.085-2.034.445-2.872,1.081-.839.636-1.211,1.547-1.117,2.732.063.802.317,1.475.764,2.023.445.547,1.023,1.009,1.733,1.383.71.375,1.495.736,2.356,1.084,1.003.393,2.041.797,3.116,1.211,1.074.416,2.08.94,3.019,1.574.938.633,1.724,1.44,2.357,2.417.632.978,1.007,2.212,1.125,3.701.159,2.016-.202,3.765-1.084,5.251-.882,1.484-2.103,2.651-3.66,3.496-1.558.844-3.275,1.34-5.152,1.489-1.683.133-3.375.08-5.074-.162-1.699-.24-3.313-.731-4.844-1.471l1.583-4.749c1.036.808,2.21,1.443,3.524,1.909,1.313.465,2.633.645,3.958.541.882-.07,1.697-.301,2.444-.692.746-.392,1.342-.932,1.788-1.62.445-.688.63-1.514.554-2.48-.079-.993-.419-1.792-1.022-2.397-.604-.604-1.366-1.121-2.288-1.548-.923-.426-1.913-.834-2.971-1.223-.943-.342-1.875-.72-2.796-1.133-.922-.413-1.766-.909-2.534-1.487-.768-.577-1.409-1.311-1.923-2.202-.515-.889-.822-1.969-.922-3.239-.159-2.014.208-3.694,1.101-5.043.894-1.347,2.103-2.387,3.628-3.118,1.525-.731,3.17-1.167,4.937-1.306Z"/>
    <path class="st13" d="M286.879,412.158l-8.403.664-.323-4.098,22.85-1.804.323,4.098-8.527.673,2.069,26.203-5.919.467-2.069-26.203Z"/>
  </g>
  <path class="st2" d="M823.6,512.9c11.6-5.6,25.2-.5,35.1,6.5-.111,4.586-.709,10.665-2.671,17.539-2.069,7.244-4.966,12.962-7.414,17.011-1.521,4.669-3.52,9.875-6.174,15.4-3.124,6.505-6.483,12.052-9.641,16.65-9.767,17.133-19.533,34.267-29.3,51.4-1.5-.2-3-.4-4.5-.6,5.554-21.076,11.561-42.727,18.4-64.8,4.4-14.2,8.1-28.4,13.5-42.4-1.493-1.777-3.403-4.44-4.938-8.013-1.456-3.39-2.08-6.449-2.362-8.687Z"/>
  <path class="st43" d="M858.7,519.4c-7.874,22.575-15.598,45.918-23.094,70.015-5.456,17.536-10.583,34.805-15.406,51.785-5.567-1.267-11.133-2.533-16.7-3.8.529-.913,1.381-2.396,2.41-4.227,17.547-31.251,26.06-56.977,27.978-62.911,3.358-10.39,2.385-9.26,4.713-15.462,6.064-16.156,14.224-27.99,20.1-35.4Z"/>
  <polygon class="st38" points="808.1 571.8 791.5 631.8 801.047 629.086 816.796 573.956 808.1 571.8"/>
</svg>