<?xml version="1.0" encoding="UTF-8"?>
<svg id="Layer_1" xmlns="http://www.w3.org/2000/svg" version="1.1" viewBox="0 0 100 40" width="100" height="40">
  <g>
    <path d="M53,20c0-.6.5-1.1,1.1-1.1h25.3c.6,0,1.1.4,1.1,1,0,.6-.5,1.1-1.1,1.1h-25.3c-.6,0-1.1-.4-1.1-1h0Z"/>
    <path d="M19,20c0-.4.2-.7.5-.7h34.2c.3,0,.5.3.5.7s-.2.7-.5.7H19.5c-.3,0-.5-.3-.5-.7Z"/>
    <path d="M52.5,20c0-.5.2-1,.6-1.3L78.6.6c.5-.3,1.1-.4,1.6-.1.5.3.8.8.8,1.4v36.2c0,.6-.3,1.1-.8,1.4-.5.3-1.1.2-1.6-.1l-25.4-18.1c-.4-.3-.6-.8-.6-1.3ZM78,4.9l-21.2,15.1,21.2,15.1V4.9Z"/>
  </g>
</svg>