<?xml version="1.0" encoding="UTF-8"?>
<svg id="Layer_1" xmlns="http://www.w3.org/2000/svg" width="100" height="40" version="1.1" viewBox="0 0 100 40">
  <!-- Generator: Adobe Illustrator 29.4.0, SVG Export Plug-In . SVG Version: 2.1.0 Build 152)  -->
  <g>
    <g>
      <path d="M63.1,29.5c-.5,0-.8-.4-.8-.8V11.3c0-.5.4-.8.8-.8s.8.4.8.8v17.3c0,.5-.4.8-.8.8h0Z"/>
      <path d="M80.5,20.8h-17.4c-.5,0-.8-.4-.8-.8s.4-.8.8-.8h17.4c.5,0,.8.4.8.8s-.4.8-.8.8Z"/>
    </g>
    <path d="M45.7,29.5c-.5,0-.8-.4-.8-.8V11.3c0-.5.4-.8.8-.8s.8.4.8.8v17.3c0,.5-.4.8-.8.8h0Z"/>
    <path d="M54.3,38.2c-.5,0-.8-.4-.8-.8V2.7c0-.5.4-.8.8-.8s.8.4.8.8v34.7c0,.5-.4.8-.8.8Z"/>
    <g>
      <path d="M36.9,38.2c-.5,0-.8-.4-.8-.8V2.7c0-.5.4-.8.8-.8s.8.4.8.8v34.7c0,.5-.4.8-.8.8Z"/>
      <path d="M36.9,20.8h-17.4c-.5,0-.8-.4-.8-.8s.4-.8.8-.8h17.4c.5,0,.8.4.8.8s-.4.8-.8.8Z"/>
    </g>
  </g>
  <path d="M24.1,1.9v4.4h4.2v1.1h-4.2v4.4h-1.2v-4.4h-4.2v-1.1h4.2V1.9h1.2Z"/>
  <path d="M81.3,6.3v1.1h-8.2v-1.1h8.2Z"/>
</svg>