<?xml version="1.0" encoding="UTF-8"?>
<svg id="svg1" xmlns="http://www.w3.org/2000/svg" xmlns:svg="http://www.w3.org/2000/svg" version="1.1" viewBox="0 0 160.6 115.3">
  <!-- Generator: Adobe Illustrator 29.1.0, SVG Export Plug-In . SVG Version: 2.1.0 Build 142)  -->
  <defs>
    <style>
      .st0 {
        fill: #d60000;
      }
    </style>
  </defs>
  <path id="path5" class="st0" d="M19.5,74.3c-.7,0-1,.2-1,1v33.3c0,.7.2,1,1,1h14.6c6.3,0,10.3-3.5,10.3-9.5s-2-7.7-5.9-8.7h0c3.1-1.4,4.7-4.1,4.7-8,0-5.8-3.5-9-9.6-9h-14ZM39.5,83.8c0,4.1-2.2,6.2-6.4,6.2h-11v-12.3h11c4.2,0,6.4,2,6.4,6.1ZM38.9,104.6c-1.1,1.1-2.8,1.6-5,1.6h-11.8v-13h11.8c2.1,0,3.8.6,5,1.6,1.1,1.1,1.7,2.7,1.7,4.9s-.5,3.7-1.7,4.8ZM49.5,97.8c0,7.8,4.9,12.5,13.7,12.5s13.6-4.7,13.6-12.5v-11.7c0-7.8-4.9-12.5-13.6-12.5s-13.7,4.7-13.7,12.5v11.7ZM73.2,97.8c0,5.8-3.5,9.1-10,9.1s-10.1-3.3-10.1-9.1v-11.7c0-5.8,3.6-9.1,10.1-9.1s10,3.3,10,9.1c0,0,0,11.7,0,11.7ZM82.4,97.8c0,7.8,4.9,12.5,13.7,12.5s13.6-4.7,13.6-12.5v-11.7c0-7.8-4.9-12.5-13.6-12.5s-13.7,4.7-13.7,12.5v11.7h0ZM106.1,97.8c0,5.8-3.5,9.1-10,9.1s-10.1-3.3-10.1-9.1v-11.7c0-5.8,3.6-9.1,10.1-9.1s10,3.3,10,9.1c0,0,0,11.7,0,11.7ZM135.5,96.3c-1.5-3-3.5-4.9-6-5.6l11.8-15.5c.4-.4.2-.9-.5-.9h-1.8c-.9,0-1.5.3-2,.8l-11.1,14.9h-5.9v-14.8c0-.7-.2-1-.9-1h-1.6c-.7,0-1,.2-1,1v33.3c0,.7.2,1,1,1h1.6c.7,0,.9-.2.9-1v-15.3h5.1c3.8,0,5.5,1.1,7.1,4.3l5.5,11c.4.7.7.9,2,.9h1.6c.7,0,.9-.3.5-1l-6.3-12.3h0Z"/>
  <g>
    <path id="path1" class="st0" d="M46.7,32.2c-1.2,0-1.6.4-1.6,1.6v12.1h-14.2v-12.1c0-1.2-.4-1.6-1.6-1.6h-2.7c-1.2,0-1.7.4-1.7,1.6v30.2c0,1.2.5,1.6,1.7,1.6h2.7c1.2,0,1.6-.4,1.6-1.6v-12.6h14.2v12.6c0,1.2.4,1.6,1.6,1.6h2.7c1.2,0,1.7-.4,1.7-1.6v-30.2c0-1.2-.5-1.6-1.7-1.6h-2.7Z"/>
    <path id="path3" class="st0" d="M131.8,32.2c-1.3,0-1.6.2-2.2,1.3l-10,17.5-10-17.5c-.5-1-1-1.2-2.3-1.2h-2.1c-1.2,0-1.7.4-1.7,1.6v30.2c0,1.2.5,1.6,1.7,1.6h2.3c1.2,0,1.6-.4,1.6-1.6v-14.3c0-3.1-.3-6.2-1-9.4h.3c1,3.3,2.2,6.1,3.7,8.6l4.8,8.2c.5.9.9,1.1,1.9,1.1h1.5c.8,0,1.4-.4,1.9-1.1l4.7-8.2c1.7-3,3-5.9,3.9-8.6h.3c-.8,3.4-1.2,6.6-1.2,9.4v14.4c0,1.2.4,1.6,1.6,1.6h2.5c1.2,0,1.6-.4,1.6-1.6v-30.2c0-1.2-.4-1.6-1.6-1.6h-2.4Z"/>
    <path id="path7" class="st0" d="M69,49.5l8.4-18.9,8.4,18.9h-16.7ZM97.6,61.4l-17.8-40.2c1.7-.9,2.9-2.7,2.9-4.7s-2.4-5.3-5.3-5.3-5.3,2.4-5.3,5.3,1.2,3.9,2.9,4.7l-17.8,40.2c-.7,1.5,0,3.3,1.5,3.9s3.3,0,3.9-1.5l3.7-8.3h22l3.7,8.3c.5,1.1,1.6,1.8,2.7,1.8s.8,0,1.2-.3c1.5-.7,2.2-2.4,1.5-3.9"/>
    <path id="path9" class="st0" d="M56.2,5.4c.2-.4.8-.6,1.2-.3.4.3.6.8.3,1.2-1.7,3-2.6,6.3-2.6,9.8s.8,6.4,2.3,9.2c.1.2.1.5,0,.7,0,.2-.2.4-.4.5-.1,0-.3.1-.4.1-.3,0-.6-.2-.8-.5-1.6-3.1-2.5-6.5-2.5-10s1-7.5,2.9-10.7"/>
    <path id="path11" class="st0" d="M65.4,23.2c.1,0,.3,0,.4-.1.4-.2.6-.8.4-1.2-.9-1.7-1.4-3.7-1.4-5.7s.6-4.5,1.9-6.4c.3-.4.1-.9-.3-1.2-.4-.3-.9-.1-1.2.3-1.4,2.2-2.1,4.7-2.1,7.3s.6,4.5,1.6,6.5c.2.3.5.5.8.5"/>
    <path id="path13" class="st0" d="M98.1,5.4c-.2-.4-.8-.6-1.2-.3-.4.3-.6.8-.3,1.2,1.7,3,2.6,6.3,2.6,9.8s-.8,6.4-2.3,9.2c-.1.2-.1.5,0,.7,0,.2.2.4.4.5.1,0,.3.1.4.1.3,0,.6-.2.8-.5,1.6-3.1,2.5-6.5,2.5-10s-1-7.5-2.9-10.7"/>
    <path id="path15" class="st0" d="M88.9,23.2c-.1,0-.3,0-.4-.1-.4-.2-.6-.8-.4-1.2.9-1.7,1.4-3.7,1.4-5.7s-.6-4.5-1.9-6.4c-.3-.4-.1-.9.3-1.2.4-.3.9-.1,1.2.3,1.4,2.2,2.1,4.7,2.1,7.3s-.6,4.5-1.6,6.5c-.2.3-.5.5-.8.5"/>
  </g>
</svg>