<?xml version="1.0" encoding="UTF-8"?>
<svg id="Layer_1" xmlns="http://www.w3.org/2000/svg" xmlns:xlink="http://www.w3.org/1999/xlink" version="1.1" viewBox="0 0 3098.6 1491.4">
  <!-- Generator: Adobe Illustrator 29.1.0, SVG Export Plug-In . SVG Version: 2.1.0 Build 142)  -->
  <defs>
    <linearGradient id="linear-gradient" x1="1419.7" y1="1789.4" x2="1340.6" y2="1820.8" gradientTransform="translate(-901.6 4696.5) scale(2.1 -2.1)" gradientUnits="userSpaceOnUse">
      <stop offset="0" stop-color="#065c96"/>
      <stop offset="1" stop-color="#357eaa"/>
    </linearGradient>
    <linearGradient id="linear-gradient1" x1="1037" y1="2005.7" x2="978.1" y2="2015.7" gradientTransform="translate(-901.6 4696.5) scale(2.1 -2.1)" gradientUnits="userSpaceOnUse">
      <stop offset="0" stop-color="#775845"/>
      <stop offset="1" stop-color="#997056"/>
    </linearGradient>
  </defs>
  <g>
    <path d="M131.4,703.6c-1.5,7.8-1.5,18.4-10,22-5.1-1.4-7.1-3.2-9.7-7.9-17.3-31.4-14.6-72.4,4.1-102.4,37.4-84.4,23.9-177.3,118.1-226.7,55.8-28.8,138.7-34.6,194.7-5.2,92.8,14.7,125.7,95.1,111.3,182.2,20.7,43.7,11.8,94.8-23.2,128.5,1.4,26-1.9,50.8-20,71-9.4,9.5-28,27-41.1,14.3-9.7,3.7-19.4,7.6-29.5,9.9-12,2.1-27.3-.7-24.7,16.8.6.9,1.6,3.1,2.4,3.8,55.4,21.6,76.6,19.9,117.9,77.6,6.2-37.6,6.9-117.7,62.7-106.6,1.6-16.1,9.1-22.4,12.9-36.6,6.4-23.4,8.8-51.1,11.5-75.3,1-9-.2-27.4,7-33.6,11.7-8.4,30.2,1.8,24.2,16.8-14,33.3-15.1,72-20.7,107.5,10.7,10.7,6.7,16.9,3.1,29.6,14.6,9.1,20.1-20.3,36.1-10.3,4.1,2.1,6.5,4.2,7.9,8.6,2.6,19,4.6,63.4-4.8,81.7,11.7,6.1,29.2,13.9,33.5,27.4,3.8,20.6-2.5,68.4-17.7,84.5-.8,34.9-20.4,45.6-32.2,73.9-4.3,10.4-3,22.5-8.9,32.3-4,2.9-7.7,2.7-12.4,2.9-24.3-1.4-49.4.1-73.9,0-21.2-.2-42.4,2.3-63.4,1.9-141.5,3.5-282.9,0-424.2-7.2-29.5,3.3-9.2-55.5-8.7-71.9,9.8-65.7,24.9-130.8,81-172.6,29.9-23.6,69.5-33.6,105.5-42.4,5-2.2,6.4-4.1,8.1-8.9-2.4-2.7-6.4-2.9-10-3-60.4,10.7-90.5-29.8-106.9-82.4Z" fill="#08203d"/>
    <path d="M245.4,813.7c13.6,68.6,173.1,116.2,158.8,11.2,48.5,16.5,90.7,35.5,111.5,86.1-7.1,61.1-29.9,98.8,49.4,104.3-5.5,18.9-25,57.6-23.7,74.6-159.6,6.7-319.6,2.7-479.1-5.3,2.1-125,39.5-255.5,183.2-271Z" fill="#7b9f50"/>
    <path d="M211.3,1091.5c-1.7-11.1-13.7-131.4,2.7-134.2,16.6,12.3,8.1,110.4,8.8,134.1h-11.6Z" fill="#08203d"/>
    <path d="M486.4,1092c1.9-19-10.2-106.6,2.7-116.1,17.6,7,8.6,94.4,12.2,115.9-5.3.7-9.6.7-14.9.2Z" fill="#08203d"/>
    <path d="M578.8,1016c20.4,4.7,67.2-5.4,52.8-34.4-10.5-8.4-21.8-13.4-15.7-29.3,9-10.1,34.2,8.7,40.5,16.4,22.9,40.9-45.5,78.2-32.8,121.6-24.3-1.4-49.4.1-73.9,0,13.7-18,26.3-51.7,29-74.1Z" fill="#cf9875"/>
    <path d="M406,446.4c98.3,47.1,114.8,182.2,72.8,273.3-20.5,60.5-99.1,70.2-147.3,37.4-10-6.9-19.1-18.3-30.1-23.4l-2.9,1.3c-.3,33.6,60.6,53.9,88.9,56.1l-.4,29.7c.5,10.6,2.8,24.1-1,34.2-11,24.8-46.9,16-66.8,8.9-27.6-10.1-48.5-26.1-61.2-52.9,8.9-40.6,14.2-64.6,2.7-106.7,25-31.5,27.7-68.8,19.8-106.8,57.4-31.8,100.9-91.5,125.6-151.1Z" fill="#cf9875"/>
    <path d="M305.7,755.1c23.4,21.7,49.9,32.9,81.6,36l-.4,29.7c-4.2-5.1-28.5-10.7-36.5-14.9-16.6-10.3-45.4-29.3-44.7-50.7Z" fill="#c18b6c"/>
    <path d="M427.7,588.8c10.1,1.8,27.1,42,29.8,52,.9,6.6-.4,12.5-4.5,17.7-7.6,8.9-26.9,15.8-36.4,6.9-3.1-10.4,12.2-10.3,18.8-12.8,27.9-13.3-21.9-43.5-7.6-63.8Z" fill="#08203d"/>
    <path d="M364.8,686.8c14.3,1.8,27.2,11.3,41.9,13.3,14.9,2,31.4-4.1,46-.4,1,4,0,4.9-1.6,8.6-19.3,7-87.9,9.3-86.2-21.5Z" fill="#08203d"/>
    <path d="M365.8,544.6c10.6-.8,22.4-.4,29.3,8.9l-.5,2.7c-8.3,6.1-25.7,3.2-35.9,4.6-7,3.3-13.1,8.8-21.2,5.8-1.5-12.4,18.2-20.1,28.3-22.1Z" fill="#08203d"/>
    <path d="M450.6,536.6c12.5-1,29.1,3.5,31.5,17.7l-2.5,2.8c-4.9.7-8.7-1.9-13-4.1-9.2-3.5-32.1,4.5-36.3-5,4-6.6,13.1-9.5,20.2-11.4Z" fill="#08203d"/>
    <path d="M374.9,579.7c18.6,2.3,12.9,27.4,2.7,36.5-20.6-.8-11.7-26.8-2.7-36.5Z" fill="#08203d"/>
    <path d="M457.5,578.6c19.8-3,19.4,17.7,9.9,29.2-2.3.4-4.6.3-7,.4-11.6-5-8.4-20.9-2.9-29.5Z" fill="#08203d"/>
    <path d="M368.5,398.3c114.6-8.2,166.9,45.5,159.8,159.5-6-4.3-14.7-7.2-20-11.9-7.1-6.3-14.7-34.5-20.3-44.7-14.4-24.5-61.5-68.3-90.3-68.4-30.9,56.4-64.7,119.1-124.1,150.9-12.5-27.1-21.2-27.8-46.1-40.8,1.8-78.7,60.2-145.1,141.1-144.6Z" fill="#2e2220"/>
    <path d="M563.1,798c15.5-1.8,63.5,3.4,72.7,17,8.5,16.9-23.9,82.4-28.6,101.3-4.1,16.8-1.4,33.2-7.3,50.1,3.6,12.8,7.1,22.9,4.2,36.3-18.1,1.1-64.9-3-78.9-14.4-2.3-5.4-1.8-11.4-1.4-17.1,6.3-38.9,12.4-143.7,39.3-173.3Z" fill="#fb7f2c"/>
    <path d="M563.7,815.4c18.5,2.1,34.9,5.6,52.6,11.7-2.3,20.2-6.4,45.6-13.3,64.7-11.1-1.4-48.7-1.7-51.9-14.1-1.3-11.8,5.6-53.2,12.7-62.3Z" fill="#08203d"/>
    <path d="M572.4,830.4c8.8.7,17.5,3,26.1,5.1-2.8,14.6-4,29.6-6.4,44.2l-27.8-5.3c1.5-14.9,5-29.5,8.1-44.1Z" fill="#6a9bb1"/>
    <path d="M569.6,960.1c9.3-6.6,19.4,8.1,10,14.4-9.3,6.6-19.4-8.1-10-14.4Z" fill="#08203d"/>
    <path d="M573.8,933.3c9.4-6.6,19.1,8.6,9.3,14.4-9.2,5.8-18.3-8.5-9.3-14.4Z" fill="#08203d"/>
    <path d="M548.4,926.8c9.7-4.9,17.4,10.2,7.9,15.2-9.9,5.6-18.2-10.4-7.9-15.2Z" fill="#08203d"/>
    <path d="M578.4,905.1c10.4-5.3,17.8,11.8,6.8,15.7-9.8,3.9-16.3-11.3-6.8-15.7Z" fill="#08203d"/>
    <path d="M551.6,901.7c9.1-6.8,19.1,8.2,9.3,13.9-8.8,5.5-17.8-8-9.3-13.9Z" fill="#08203d"/>
    <path d="M543.1,953.6c9.4-5.3,17.5,9.6,8,14.7-9.5,5.4-17.6-9.7-8-14.7Z" fill="#08203d"/>
    <path d="M195.7,438.3c1,7.9-11.8,32.3-14.4,41.7-6.2,22.1-5,50.4-6.5,73.4-39.3,45.1-30.3,133.2,24,162.6,50.5,10.4,59.5-13.2,54.1,53.9-6.5-.1-13,.1-19.5.2-9.4-6.5-23.4-25.2-32.2-27.8l-2.2,1.4c-3.9,10.5,8.6,15.8,12.3,24.1l-.9,2.3c-9,1.3-18.9-5.2-26.1-9.9-42.5-29.4-35-74.5-46.3-86.8-8.9,4.7-15.3,26.2-19.2,35.4-14.7-44.3,9.8-84.9,25.2-125.2,14.5-49.5,19.6-102.8,51.8-145.4Z" fill="#2e2220"/>
    <path d="M191.7,576c50.2-5.7,48.3,58.5,39.8,92.2-13.1,16.6-18.1,17.5-38.5,15.1-28.6-22.2-34.3-65.1-18.6-96.6,5.6-3.8,11.6-7.2,17.4-10.8Z" fill="#183c5e"/>
    <path d="M326.7,379.4c19.1-1.3,37.1.4,56.1,2.5-95,5.9-165,58.2-168.5,158.1-6.9.6-17.6,2.4-23.6-1.5-8.1-84,48.2-160.8,136-159.1Z" fill="#183c5e"/>
    <path d="M225.7,558.3c58.8,18.4,61.2,162-9.2,141.3l-1.7-2.3c20.2-8,31.2-28.1,32.2-49.3,3-29.8-2.6-69.6-33.2-83.4,1.7-5,7.4-5.2,12-6.3Z" fill="#183c5e"/>
    <path d="M509.7,557.5c36.1,17.1,33.1,90,2.9,110.4-2.6-5,0-24.1,0-30.8.6-26.7-2.4-53-3-79.6Z" fill="#183c5e"/>
    <path d="M625.6,911.6c26.9-1.5,64.3,24.7,44.9,53.4-14.1-27.7-66.1-23.9-44.9-53.4Z" fill="#cf9875"/>
    <path d="M641.3,876.4c18,4.5,45.3,16.5,38.4,39.5-.4,1.6-1.3,1.6-2.8,2.5-6.7-4.1-12.2-10.4-19.5-13.6-16.9-6.6-40.8-9.5-16.1-28.4Z" fill="#cf9875"/>
    <path d="M499.6,701.5l1.9,2.2c4.4,27.6-15.6,52-36.6,67.1-.9-.9-1.5-2.3-2.2-3.4,1.9-8.4,15.5-19.2,20.4-27.6,6.9-12,11.2-25.5,16.4-38.2Z" fill="#183c5e"/>
    <path d="M213.7,564.6c-5.2,1.1-30.7,5.2-32.5-2.9,9.4-10.9,31.7-4.9,44.5-3.4-4.6,1.1-10.3,1.3-12,6.3Z" fill="#2e2220"/>
    <path d="M647.9,820.9c12.1,10.9,4,33.7.1,47l-4.3-1.7c-3.6-5.7,3.6-35.4,4.2-45.3Z" fill="#183c5e"/>
  </g>
  <path d="M1989.4,1386.4c22.4-5.4,47.2-3.5,70.1-6.9,21.1-3.2,40.4-11.4,61-16.1-8.4,29.6-37.4,102.9-69.7,111.6-11.2-5.7-1.3-21.6-3.9-30.4-78,43-170.8,51.8-257.7,36.2-32.9-10.3-138.8-36-142.1-76.4,15.2-5.1,36.6,11.9,50.6,17.9,99.3,42.8,225.9,42.1,322-9.4-11.2-7.3-27.9-11.8-30.4-26.7Z" fill="#fb7f2c"/>
  <g>
    <path d="M2071.9,451.8c-15.2-45.9,25.7-95.8,69.9-105.1,8.6-1.6,18.7-2.2,26.9-5.1,15.9-8.9,31.3-18.1,50.2-19,21.2-2.5,48.5-1.8,66,12,30.5-8.5,80.3,1.8,77.3,41.5,27,15,49.2,60,18.9,82.5,5.2,18.9-5.4,51.8,3.9,66.7,8.1,12.9,25.7,16.5,32.3,32.5,8.3,19.4-17,31.1-31.5,35.9,8.3,22.8-26,81.3-44.4,92.7-16.7,8.5-36.7,1.6-53.3-3.4.7,14.2-2.5,38.6-12.6,48.9,32.2,26.7,85.5,138,102.2,170,15.4-4.3,31.4-8.4,47.2-10.8,9.7-16.9-7.1-224.3,6.4-243.8,19.1-14.1,53.5-8.7,76-8.4,7.8-14.5-5.2-90.3,3-111,4.6-11.6,15.3-5,23.3-10.4,4.5,3.5,15,3.7,20.8,3.3,133.3-.6,269.2-2.5,403.3-.9,5.2.4,13.6.6,17.5,4.4,13.1,17.4,11.3,93.2,4.6,115.8,28.3-.3,40,.4,38.7,32.5,2.4,51.6.2,104.4.3,156.1-.7,20,4.5,66-2.1,82.8,13.8,1.8,89.4-11.1,73.7,16.2,4.2,8.8,4.8,36.6,0,45.4,2,4.1,2.6,6.3,1.7,10.7-16.3,10.8-57.1,3.4-77.8,4.8,0,0-134.3,0-134.3,0,5.4,8.4,6.4,73.7,3.5,85.6-1.8,11.6-48.4,6.4-56.5,4.6-19.1-18.6,4.7-69.4-8.2-90.2-75.9,2.7-253.6-5.8-325.7,1.7-46.5,33.3-119.8,57.6-175,35.3,3.2,10.4,0,39.2-5,48.9-3.3,7.4-13.7,5.7-20.1,5.2-103.1-1.6-207.4,1.1-310-.8-16.9-5.9-38.9-288.2-43.2-314.4-.2-8.8,1.2-17.5,5.2-25.4,18.2-36.7,80.1-34.9,112.6-22.6,14.1,7.7,22.1,21.4,26.4,36.4,15.2-30.4,38.4-58,69.2-73.3,2.4-3.9,1.9-8,1.9-12.4-2.6-2.5-38.9-.7-47.8-3.2-37.9-10.6-27.1-39.4-38.3-49.6-7.9-7.2-19.8-2.1-26.4-15-9.4-18.3-.5-41.9,5.5-59.7-22.3-33.8-6.2-66.5,23.9-87.9Z" fill="#08203d"/>
    <path d="M2041.1,1079.2c20.9-112.1.2-250.2,73.6-347.2,20.3-29,49.4-48.4,84.6-31.6,78.3,28.8,95,85,131.9,151.8,12.4,24.5,34,46.9,40.3,73.8,33.7-15.6,98.6-43.8,110,11.2,8.8,30.6-2.2,50.3-32.4,60.2-33.5,14.2-82.8,29.7-117.9,15.4-68.6-28.9-121.2-114.7-165.9-170-2.3-1.2-3.4-.6-5.9-.2-23.1,13.1,96.2,137.9,111,148,10,8.3,24.8,16.6,33,26.2,2.9,19.2-6.6,41.4-3.7,61.2-85.2,4.5-172.9-.4-258.6,1.2Z" fill="#fce1c3"/>
    <path d="M2584.3,927.4c161.2,1.6,347.5,2.9,506.1.2,4.2,8.8,4.8,36.6,0,45.4-9.5-4.2-492.2-1.2-554.9-1.5,9.9-5.4,12.9-14.2,16.1-24.3,13.3.9,27-8.2,32.8-19.9Z" fill="#965637"/>
    <path d="M1962.2,744.1c13.8-13.1,23-15.1,41.7-15.4,18.2,87.1,20.8,177.6,28.9,266.1.9,27.7-5.7,57.5-1.8,84.7-11-.8-27.6,1.4-38.1-2-8.7-100.2-26.6-200.1-34.7-300.3-.4-11.4-.3-22.5,4-33.2Z" fill="url(#linear-gradient)"/>
    <path d="M2448.3,655.4c28.9-1.5,458.5-4.4,460.5,1.3,9.8,40.4,2.4,84,3.8,125.3-1.5,41.7,6.2,85.6-3.1,126.4-46.7,8.6-246.7,2.8-306.3,3.1,6.8-4.1,11.6-11.6,14.9-18.6,78.3,19.9,126.1-68.5,66.8-122.2-48.7-39.7-120.2,11.5-146,55.9-7.7,14.3-12,34.9-22.4,47-8.9-.1-17.9.6-26.6,2.6-10.8,2.5-36,15.7-45.3,12.7,0-10.5-11.3-218.4,3.7-233.4Z" fill="#c2a49b"/>
    <path d="M2592,669.6c47.2-1.3,95.7-2,142.9-.3,4.7.6,5.8.5,8.6,4.2,1.1,10.6,4.2,59.4-1.4,67.1-16.9,6.6-136.6,3-146.5,2.8-11-5.4-8.6-24.2-8.9-34.3,0-11-2.7-31.5,5.4-39.5Z" fill="#08203d"/>
    <path d="M2599.9,683.8c30-2.7,96.6,0,127.6-.7,6,11.6,5.1,34.9-.8,45.8-42.2,3-86.2.5-128.6.5,5.3-9,3.6-34.9,1.8-45.6Z" fill="#a3d5e6"/>
    <path d="M2747.2,831.5c38.1-9.9,57.1,43.7,21.3,60-41.9,16.4-64.1-46.5-21.3-60Z" fill="#08203d"/>
    <path d="M2745.8,847.8c20.7-6.5,40.8,16.8,16.3,28.4-20.8,8.9-28.3-14.1-16.3-28.4Z" fill="#183c5e"/>
    <path d="M2492.9,796.1c40.3-9.6,56,49,16.3,60.9-40.5,9.9-56.3-49.2-16.3-60.9Z" fill="#08203d"/>
    <path d="M2495.3,811.5c21.4-8.9,34.3,23.3,12.6,31.6-20.2,7.2-32.2-22.9-12.6-31.6Z" fill="#183c5e"/>
    <path d="M2833.1,831.8c39.5-8.5,53.9,48.9,15.1,60.1-40.2,9.4-55-49.4-15.1-60.1Z" fill="#08203d"/>
    <path d="M2830.2,847.8c24.2-6.7,39.1,19.9,13.5,31.9-10.1,3.5-16.6-6.5-18.3-15.2-1.6-6.9,1.2-11.1,4.8-16.6Z" fill="#183c5e"/>
    <path d="M2482.4,740.5c19.9-7,31.8,22.5,12.7,31.3-21.3,9.2-34.4-23.1-12.7-31.3Z" fill="#08203d"/>
    <path d="M2816.5,778.4c20-6.4,44.3,14,19.5,27.5-19.2,9.7-32.5-12.7-19.5-27.5Z" fill="#08203d"/>
    <path d="M2774.7,729.7c21.3-8.8,32.4,25,10.1,30.6-18.8,4.5-27.8-23-10.1-30.6Z" fill="#08203d"/>
    <path d="M2819.2,680.6c13.4-4.3,31.1,9.1,23.6,23.2-3.3,4.9-7.9,5.7-13.3,6.3-20,3.4-22.7-18.4-10.2-29.5Z" fill="#08203d"/>
    <path d="M2480.3,685.5c17.7-8.1,31.8,17.5,15.4,28.1-19.1,12.2-35.9-18.5-15.4-28.1Z" fill="#08203d"/>
    <path d="M2728.5,778.9c19-12.9,36.6,17.9,15.9,27.7-17.4,8.1-31.6-16.8-15.9-27.7Z" fill="#08203d"/>
    <path d="M2820.4,729.5c21.5-7.3,35.2,24.5,10.7,29.4-18.7,4.3-27-20.4-10.7-29.4Z" fill="#08203d"/>
    <path d="M2865,729.5c14.8-5.4,30.2,9.3,22.4,23.8-2.8,4.6-5.5,4.7-10.4,6-20.5,5.2-23.3-18-12-29.9Z" fill="#08203d"/>
    <path d="M2862.2,682.2c11.6-3.6,29.2,1.5,27.9,16.1-8.1,22.1-43.3,16.6-27.9-16.1Z" fill="#08203d"/>
    <path d="M2864.7,778.4c20.1-6.6,37.4,19.4,13.7,27.8-18,9.8-26.4-17.8-13.7-27.8Z" fill="#08203d"/>
    <path d="M2543.4,685.5c18.6-3.5,25.7,24.1,7.7,30-20.7,6.6-29-25.8-7.7-30Z" fill="#08203d"/>
    <path d="M2775.8,778.4c18.8-8.5,31.5,19.6,12.7,28.1-18.2,7.8-30.6-19.6-12.7-28.1Z" fill="#08203d"/>
    <path d="M2774,682.1c19.3-10.2,33,20.6,12.4,28.1-17.5,6.1-28.7-19.3-12.4-28.1Z" fill="#08203d"/>
    <path d="M2542.7,743.8c19-6.9,29.2,22.2,10.1,28.7-18.6,6.1-28.4-21.9-10.1-28.7Z" fill="#08203d"/>
    <path d="M2218.3,338.5c20.5-1.5,45.4-5.6,61.5,10.3,18.5,1.5,39.3-8.4,55.6,5.4,34.1,39.2-6,65.3-44,71.6,6.6,28.7-7.9,38.4-30.1,51.3-17.5,17.3,2.7,36.6-28,53.3l-2.7-.8c-5.4-10.4-17-16.9-28.3-18.7-16.4-1.4-22,26.6-33.2,35.9,3.4,26,5.8,45.5,33.1,55.8,2.8,9.4-5.7,22-12.8,27.4-8,22.4-63.5,28-82.8,21.7-23.4-8.6-17.2-39.4-31.9-47.2-3.3,1.5-6.1,2.4-9.7,3-6.4-3.4-7.2-11.6-11.5-17.1-14-21.4,13.8-38.6,9.3-53.1-2.1-9-8.6-12.6-11.9-20.5-4.8-11.5,6.2-31.9,11.1-42.6l15.3-6.4c13.8-24.3-1-43.4,19.6-71.2,22.9-31,51.5-32.2,84.1-44.4,13.3-5,22.9-11.5,37.5-13.7Z" fill="#2e2220"/>
    <path d="M2528.7,535.6c94.2,1.3,235.5-3.4,326.6,1.3,14.1,3.5,6.5,88.3,5.7,100.5-111.9,3.4-225.9,2.4-338.3,1.8,10.2-13.4-6.8-87.3,6.1-103.6Z" fill="#fce1c3"/>
    <path d="M2591.1,549.8c25.1,0,50.6-.8,75.7.7,6.9,11.3,4.8,66.7.5,76.7-41.7,1.2-84.2.9-126-.2,4.4-7,2.9-67.5,0-76.2,16.5-1.3,33.3-.8,49.8-1Z" fill="#08203d"/>
    <path d="M2555.4,564c21-4.2,73.5-1,97.8-.9,5.7,11.5,5.9,38.9.2,49.8-10.7,3.7-82.1,1-99,1,5.2-9.6,3.5-38.9,1-49.9Z" fill="#a3d5e6"/>
    <path d="M2772.2,564c21.7-3.5,46.5-1.1,68.5-.8,6,10.2,6.3,40.7,1.1,50.4-1.6,2.1-4.5,2-7,2.5-47.9,3.2-83.6,10.9-62.6-52Z" fill="#08203d"/>
    <path d="M2781.7,578.2c15.4-1.5,31.2-.6,46.6-.4,3.9,7.2,4.3,17.6-.5,24.4-14.5,2.7-32.4.7-47.2.6,3.1-8,2.5-16.3,1.1-24.6Z" fill="#183c5e"/>
    <path d="M2701.4,557.8c41.9-14.6,61.3,48.3,18.6,60-37.9,8.2-54.5-45.4-18.6-60Z" fill="#08203d"/>
    <path d="M2708.7,570.3c21.1-4.8,29.9,26.5,9.5,33.5-23,7.2-32.8-27.6-9.5-33.5Z" fill="#3583ae"/>
    <path d="M2338.4,418.9c5.9-.9,11.3,3.5,15,7.7,18.6,22,14.1,55.3,10.7,81.4-2.5,32,31.5,31.5,35.5,55.6-2.1,15.3-22.7,11.4-31.3,18.6-6.6,5.5,5.9,16.8,5.3,24.3-10.4,13.6-38.1-2.5-51.4,3.4l.3,3.2c6.7,13.1,39.7,6.3,36.9,22.3-18.3,40.2-40.7,45.4-79.4,27.1.2,2-13.8,57.9-15.3,60.4-3.2-8.1-13.6-13.4-21.1-16.9-8.1-14.6-59.1-24.5-76.2-27.2,2.4-2.6,3.3-4.1,4.3-7.6,5-18.5,21.8-19.7,32.7-34.9,5.3-7.3,5.6-17.9,9.9-25.8,2.9-5.2,8.2-4.5,11-9.8-3.2-10-23.1-9.5-31.8-15.2-14.8-10.5-14.8-36.6-6.7-51.1,13.1-17.1,35.1,2.5,47.3,11.4,20.9-8.6,40.7-34.9,29.7-57.7,22.7-6.8,46.7-28.7,39.6-54.5,11-1.7,27.5-5.7,34.7-14.8Z" fill="#965637"/>
    <path d="M2327.5,478.8c8.6-1.4,21.7-1.7,24.4,8.7-5.7,5.6-18.7,3.9-26.5,4.5-5.3,2.2-10.1,4.8-15.9,4.2l-1-2.1c4.4-8.7,10.6-11.6,19-15.3Z" fill="#08203d"/>
    <path d="M2334.3,511.9c20.7-3.7,19.3,25.4-1.3,26.2-8-5.4-3.7-19.9,1.3-26.2Z" fill="#08203d"/>
    <path d="M2610.8,787.8c6-.6,7.2-.2,12.2,3.2,6.8,15.8-49.5,20.6-36.2,39.4h3.7c8.8-8.3,53.3-28.4,53.4-5.9,0,21.5-40.1,1.4-34.5,26.5,5.1,1.9,16.1-5.3,22.3-6.3,6.3-1.2,15.6,1.1,15.6,8.9-8.7,13.5-24.2,8.9-35,24.7-3,17.9-46.7,49.1-62.5,57.8,5.7-18.5-3.5-40.5-18.4-52,6.6-7.2,12.4-36.3,19.7-48.9,13.8-23.6,33-40.5,59.7-47.4Z" fill="#965637"/>
    <path d="M2022.4,728.7c33.7-4.5,41.8,11.4,52,40-17.8,44.8-25.2,81-30.5,129.3-10-55.9-7.7-114-21.4-169.2Z" fill="#0e5f93"/>
    <path d="M2634.3,772.1c47.5-6.8,76.2,46.5,51,85.2-10.3,16.9-36,27.8-55.1,25.4,7.4-10.1,26.7-14.6,30-27.5,2.6-5.5,1.5-13.9,1.3-20-.6-19.9-11.8-19.6-22.3-32.1-5.6-13.7,7.9-14.7-10.4-29.1l1-1.6,2.5.8,2-1.2Z" fill="#183c5e"/>
    <path d="M2492.1,890.3c36.4-9.9,57.6,36.2,40.8,64.5-5.5,9.1-13.3,12.9-23.2,15.3-3,2.4-8.3,4.2-12.1,3.8,0-28.3.5-63.4-28.3-79.1,7.7-1.2,15.3-2.8,22.9-4.6Z" fill="#fce1c3"/>
    <path d="M2836.8,1014.9c9.1-1.3,18.8-.7,28-.8,6,12.8,5,50.6-.6,61.4-4.3,3.5-21,2.1-27,2.2,3.9-11,2.8-51.7-.4-62.9Z" fill="#183c5e"/>
    <path d="M2363,396.9c12,2.2,22.3,32.5,15.1,42.1-4.7,1.5-5.3.7-9.8-.9-2.1-11.8-10.4-19.5-18.2-28.2,4.6-4.1,8.7-8.4,12.9-12.9Z" fill="#2e2220"/>
    <path d="M2549.2,104.7c13.5-19-12.6-102.5,20.1-98.6,10.2,15.8,11.2,78.7,4.6,98.9h113.3c-14.4-11.8-111.9-27.4-74.3-52.2,45.2,9.8,97.9,41.1,142.3,50.4,18.4,3.8,79.1,2.9,99.6,1.8-16.9-13.8-99.7-22.6-79.8-50.4,7.8-3.7,21.1,1.6,28.7,4.3,50.9,18.5,101.6,37.6,152.1,57.3,13.4,6.8,64.7,15,55.5,36.3-28,11.7-61.9-18.8-90.5-23.4-29.9-7.1-98.8-2.4-133.1-2.7,11.8,3.3,41.2,8.6,47.1,18.9,1.4,8-4.1,15.2-12.5,14.3-23.4-.8-59.3-26.5-84.8-31.7-40-5.2-125.9.1-167.3-1.4,14,4.5,44.9,9.3,45.3,28-11.9,9-27.3,2.5-40.1-1.2,12.3,119.6,8.9,242.3,21.4,362.4l-1.6,3.1c-7.3,2.9-23.2,1.6-30.9.3,0,0-4.8,0-4.8,0-7.2,2.7-19.5,2-25.8-2,3.4-11,23.1-368,19.5-376.5-35.6-23.9-117.3-14-161.3-16.2,13.7,5.7,68.2,14.6,60.8,35.6-20.3,16-144.8-49.4-178.3-57.9-26.5-11.1-57.4-14.9-81.1-31.4-2.4-5.2-2.5-14,4.1-16,19.4-6.5,124,42.4,153.6,48.5,17.2,3.6,78.2,1.6,99,.8-11.3-16.8-99.7-20.2-79.7-49.3,2.6-2.6,4.9-3,8.4-2.7,12.4,1.1,26,7.9,37.7,12.3,16.2,6.1,32.6,11.5,48.7,17.6,27,10.3,54.4,24.4,84.1,22.4Z" fill="#183c5e"/>
    <path d="M2551.1,481c7.5-.2,15.3-.9,22.8-.6,4.9,7.9,5.1,28.3,3.8,37.7-7.8,1.6-16.2,1.8-24,.4-6.9-10.8,3.3-26.4-2.6-37.4Z" fill="#6a9bb1"/>
    <path d="M2561.9,395.3c3.6-.5,6.3-.5,9.9,0,2,20.1,5,44.2,3.2,64.2-5.5.2-14.7.9-20.2.7-1.8-5.4-2.5-63.2,7.1-64.9Z" fill="#6a9bb1"/>
    <path d="M2562.5,286.5c9.5,8,9.4,72.3,7.3,84.3-3.4,1.4-6.5,2.4-10.1.9-5.2-12.1,3.9-66.9,2.8-85.2Z" fill="#6a9bb1"/>
  </g>
  <g>
    <path d="M1061.7,577.7c-23.8-47-7.7-105.2,26.9-142.5,51-53.3,150.5-66.5,210.6-22.8,95.8-12.5,124.9,51.2,34.9,98.7,1,84.7,27.9,188.4-70.5,230.2,39,24.5,69.5,51.9,92.5,92.2,8.1,14.3,16.5,48.1,27.7,56.4,11.1-2.1-8.3-38.9,23-41,28.7-2.6,94.4.2,124.1-.5,8.3.7,16.6,1.2,22.3-5.8l.2,4.4c11,4.5,34.2,1.4,46.4,1.3,5.9.2,12.2,1.1,17.6-1.5,10.1,4.5,33.8,1.3,45.6,1.2,4.9.4,9.6,1.8,13.5-1.6.6-4.8.4-9.6.2-14.4,1.8,5.4,3.6,10.9,5.5,16.3,15.7-.2,79.5-4.3,90.8,2.8,4.1,6.2,5.4,13,6.2,20.3,2.6,39.3-.4,132.7.5,173.3,11.8.4,45.6-3.9,47.6,12.6-18.5,17.2-69.1,6.4-94.2,8.3-99,1.8-327.8-3.4-422.8,1-9.3.9-16.6,3.4-25.1,7.1-29.3.2-73.5-3.1-100.9,1.9-65.4,25.8-153.5,46.3-212.9-.5-26.6-2-54.3-1.8-81-.8-4.3,0-5.9-.7-9.1-3.5-2.2-22,25-88.4,30.3-115.2,3-14.8-.8-30.1-2.2-44.9-9.4-96.4,63.9-184.9,158.9-197.9,3.4-6.6,6.8-13.4,11.9-18.9,89.3-63.3-39-10.7-18.5-116.3Z" fill="#08203d"/>
    <path d="M921.1,974c16.1,51.6,8.9,58.8,48.8,100.6-24.8-.5-49.6-.7-74.4-.7,10.3-32.6,19-66.3,25.5-99.8Z" fill="#6a9bb1"/>
    <path d="M1184.3,1075.8c22.5-16.2,74-24.6,100.7-32.3-.3,10.1,0,20.3.2,30.4-29.3.2-73.5-3.1-100.9,1.9Z" fill="#6a9bb1"/>
    <path d="M1060.7,730.4c1.8-.6,5.1-.3,6.9,0,2.9,1.2,22.7,92.7,53.6,95.5,13.8-.8,37-35.8,47.3-46.2,15.7,23.2,36.2,58.8,52.5,13.1,53.3,38.3,60.6,51,53-25.5,42.4,28.7,74,72.7,87.5,122.1-21.6,2.6-39.9,6.3-59.1,17.2-3.2-13.6,9-67.5-10.8-62.5-8.9,10.5-4.6,59.5-4.4,74.5-15.2,10.2-29.1,22-44.8,31.5-31.3,13-107.6,17.1-144.9,21.7-3.4-15.5-13.6-26.8-18.4-41.6-8.3-20.2-3.1-76.8-25.4-82.6l-2.2,1.7c-5.4,18,9.6,63.6,10.5,85.8-48.9-8.9-90,15.7-119.6,52.5-46.3-104.1.2-233.3,118.2-257.3Z" fill="#6a9bb1"/>
    <path d="M1194.8,836.6c3.6.2,8.5.7,9.4,4.9,3.3,11.9-1,82.4-6,92.4-4.1-1.5-8.9-3.4-10.2-8-3-11.1.9-80,6.8-89.4Z" fill="#08203d"/>
    <path d="M1657.8,865.1c17.4-1.3,46.8-3.5,46,21.3.3,18.9-1.4,37.9-1.3,56.8-1.1,33.5,5.8,69.1-3.2,101.6l-2.6-1.5-.8,2.9c-75.2,8.5-214.2-.3-291.1,2.7-1.3-35.6-.5-71.5-.4-107.1,12-13.6,15-34.2-.8-46.1l-.2-29.7c59.2-2.8,193.2.2,254.3-.9Z" fill="#6a9bb1"/>
    <path d="M1478.3,877.6c35.5-1.5,73.9-2.5,109.3.7-1.4,13.5,7.4,67.1-6,71.2-18.8-1.3-97.3,6.2-106.6-4.7-2.9-8.4-10.1-64.9,3.3-67.2Z" fill="#08203d"/>
    <path d="M1485.3,889.4c29.8-.4,59.7,0,89.6,0v47.8s-89.7.3-89.7.3v-48Z" fill="#fce1c3"/>
    <path d="M1551.1,966.5c43.2-8.4,56.6,54.9,13.7,64.7-42.5,7.4-55.5-54.3-13.7-64.7Z" fill="#08203d"/>
    <path d="M1552.9,980.8c23.8-6.6,33.9,29.6,10.2,36.4-23.8,6.6-34-29.6-10.2-36.4Z" fill="#183c5e"/>
    <path d="M1629.5,984.7c16.6,0,43-6.5,51.4,12.5,4.6,12.3.9,30.8-13.6,34.1-15.9-1-45.2,7.5-52.6-11.1-3.4-12.4-1.2-33.7,14.8-35.5Z" fill="#08203d"/>
    <path d="M1631.9,999.9c16-.6,40.6-7,33.6,18.1-15.8,2.1-38.6,5-33.6-18.1Z" fill="#183c5e"/>
    <path d="M1434.4,942.1c24.1-6.5,34.4,29.9,10.6,37-24.4,7.1-35-30.2-10.6-37Z" fill="#08203d"/>
    <path d="M1431.9,887.1c22.7-9,36.1,25.7,13.3,34.4-22.3,8.3-35.4-25.4-13.3-34.4Z" fill="#08203d"/>
    <path d="M1484.2,993.3c22.5-4.8,30.3,29.3,8,34.8-23,5.5-31.1-29.7-8-34.8Z" fill="#08203d"/>
    <path d="M1435.9,1000.5c18.8-3.6,23.4,25.3,4.5,27.8-17.6,2.1-21.8-24.3-4.5-27.8Z" fill="#08203d"/>
    <path d="M1622.3,929.8c16-4.8,23.6,19.4,7.7,24.6-16.2,5.1-23.9-19.6-7.7-24.6Z" fill="#08203d"/>
    <path d="M1664.7,930c16.5-3.6,21.9,21.6,5.3,25-16.1,3.2-21.3-21.3-5.3-25Z" fill="#08203d"/>
    <path d="M1666.4,887.5c15.9-2.1,18.9,22.2,2.9,24-15.4,1.6-18.3-21.8-2.9-24Z" fill="#08203d"/>
    <path d="M1621,888.7c14-6.7,24.3,15.5,10.1,21.8-14.4,6.7-24.5-15.2-10.1-21.8Z" fill="#08203d"/>
    <path d="M1275.4,464.9c26.7,1.2,42.8,28.9,44.8,53.1-13.2-4.2-37.3-11.3-44,5.7,10.7,8.6,26.9-.3,41.5,8,4.4,40.6,10.7,79.9,1,120.3-9.6,48-56,88.3-106,71.9-12.7-3.1-29-20.8-40-20.4-11.6,18.9,30.8,32.8,43.7,35.9-1.8,21-5.8,41.2-16.6,59.6-43.5-73.7-85.2-61.5-72.4-162.3-59,23-76.7-88.9-12-57.1,25.3,46.1,39.8-32.7,40.9-52.1,49.1-6.4,83.8-30,119.1-62.7Z" fill="#fcb88c"/>
    <path d="M1272.5,563.9c17.2,29.6,53.6,70.4-7.2,77-3.4-2.2-5.2-4.4-7.4-7.9,1.4-9.5,22.2-8.4,29.4-14.7,3.8-16.9-35.7-38.2-14.7-54.4Z" fill="#08203d"/>
    <path d="M1212.5,648.9c12.9,4.1,22.9,11.6,37,13.7,11.7,1.8,25.8-2.9,36.4.4l1.1,2.8c-1.1,3.8-3.2,5.6-6,8.2-13.9,4.3-86.1.8-68.5-25.1Z" fill="#08203d"/>
    <path d="M1217.1,522.4c7.8-1.3,18.8-1.6,21,7.9-6.2,8.6-26.5,6-36.7,10.6-5,2.4-8.7,6.4-14.5,6.6l-2.2-2.1c2.2-15.1,20-19.7,32.4-23Z" fill="#08203d"/>
    <path d="M1214.3,557.8c18.3-1.3,15,19.9,6.7,29.4-16.7.6-11.5-20-6.7-29.4Z" fill="#08203d"/>
    <path d="M1297.3,552.9l7.5,1c9.1,5.6,4.8,16.9,1.1,24.6-15.9,3.1-12.7-16.3-8.7-25.6Z" fill="#08203d"/>
    <path d="M1358.9,906c14.2-1,57.1-2,38.8,22.1-15.7,14.1-49.2-13.8-64.7,1.9,3.7,10.9,47.7,7.6,42.5,31.3-9.2,10.2-31.6-11-51.2-4.6l-1,2c10.2,12.5,45.6,11.9,40.5,33.7-5.4,12.9-35-13.2-49.3-8.2-1.9,3-2.2,3.1-1.9,6.6,10.5,9.7,40.3,7.8,27.9,29.7-9.8,3.7-26.2-3.5-35.9-6.4-18,17.5-42.7,18.5-65.8,23.6-23.5,6.9-46.3,17.7-69.6,25.4-51.7,15.5-117.1,43.1-167.2,10.6-15.7-13.2-9-36.4,3.5-49.4,57.8-59.1,163.5-31.8,237.1-57.9,47.4-18.8,54.8-56.5,116.4-60.4Z" fill="#fcb88c"/>
    <path d="M1194.8,404.6c26.2-4.8,57.9,2.4,82.1,12-64.2,15.3-123.1,52-164.2,103.2-20.3,11.6-29.4,23.4-39.8,43.8-27.5-79.2,43.4-156.2,121.9-158.9Z" fill="#00bcd6"/>
    <path d="M1028.5,949.8c17.7-2.2,55.7-4.5,50.7,22.8-7.5,5.3-25.5,6.1-34.9,9.5-34.9,12.2-66.2,38.9-66.7,78.1-15.3-14-23.8-27.6-28.8-47.7,11.6-34.6,46.1-54.6,79.7-62.7Z" fill="#6a9bb1"/>
    <path d="M1106.8,693.6c6.8,5.3,10.1,25.6,15.6,34.2,10.5,16.3,26.3,29,39,43.7-15.8,11.2-26.7,28.1-40.3,41.4-17.8-31.3-64.8-97-14.2-119.3Z" fill="#6a9bb1"/>
    <path d="M1288.3,428.3c1.4,5.1.5,9.5,1,14.6-17,0-38.8,26.4-51.8,36.3-27.8,22.3-62.2,34.3-97.8,33.8,33-43.4,96.9-73.2,148.6-84.8Z" fill="url(#linear-gradient1)"/>
    <path d="M1288.3,428.3c68.6-15,127.2,20.3,41.5,68-6.7-24.7-22.5-24.7-31.6-41.6,9.2-6.8,26.4,4.6,34.2-5.2-3-17.9-32.3-16.4-43.1-6.7-.6-5.1.4-9.5-1-14.6Z" fill="#2e2220"/>
    <path d="M1386.9,945.3c6.3,8.6,2.7,88.2,2.7,103.6-18.6-1.7-86.3,7.8-94.7-6,17.8-34.3,50.2,21.2,65.1-32.8,22.6-15.4,12.3-25.6,26-44.3,0-6.9.2-13.6,1-20.5Z" fill="#eaa781"/>
    <path d="M1232.7,743.1c22.4,5.1,28.5,41.4,27.6,60.6l-3.2-.5c-32.3-30.9-38.8-7.3-24.4-60.1Z" fill="#6a9bb1"/>
    <path d="M1130.8,527.2c2.2.5,4,1.4,6,2.4,4.5,11.3-2.2,29.2-5.8,40.1l-16.8-5.4-1.4-.5c-30.2-9.6,1.5-33.6,18-36.6Z" fill="#183c5e"/>
    <path d="M1596.5,380.8c-3.1-37-.5-85.6-.5-123.9,0-43.2-2.7-91.4-.4-133.9-.2-7.7,4.2-15.6,12.5-16,16.1,4.7,7.9,33.3,9.4,46.2-.9,67.7,1.6,160.5-1,227.9,20.1-17.6,71.8-91,98.5-84.7,10.3,13.7-21.4,35.2-29.5,45.1-19.3,19.5-38.7,38.8-58.3,58,20,1.2,78.8-6.2,91.1,5.6.6,4.4.4,5.2-1.3,9.3-10.7,8.1-66.2,3.7-83,4l.2.9-2.7-.6c.3,13.7,90.9,76.9,86.6,99.9-18,21.1-82.5-69.1-100.7-82.6v211.2c15.3,7.2,17,23.9,5.9,35.8,21.6,47.6,35.8,99.8,53.4,149.1.2,4.8.4,9.6-.2,14.4-3.9,3.4-8.6,2-13.5,1.6-19-39.1-27.3-90.4-46.5-128.2,3.7,41.5,1,85.2.9,127-5.4,2.6-11.7,1.7-17.6,1.5-2.8-43.5-.9-88.4-.8-132-16.3,41.5-27.7,85.6-45.8,126.3-5.7,7-14,6.5-22.3,5.8,22-54.6,36.6-112.5,61.3-166.1-13-12.3-7.7-25.5,4.6-35.6-2.4-69.9.3-140-1-209.9-17.6,16.8-34.8,35-51.7,52.5-10,9.1-38.1,50.5-49,25.1,3.6-15.6,20.8-25,30.9-36.6,0,0,58.9-59.4,58.9-59.4-24.4-2.5-74.5,9.3-91.9-8-.8-19.4,76.8-9.6,93.1-11.5-15.3-16.5-83.9-78.4-88.7-91.7-4.1-49.2,88.6,64.6,99.3,73.5Z" fill="#183c5e"/>
  </g>
  <path d="M2084.4,152.2c25.3,7.6,97.9,67.3,107.3,93.4-16.8,7.1-72.3,3.5-94.3,5.2-15.3.1-31.5,6.1-46.4,1.2l-.3-3.1c6.2-11.2,26-17.2,36.5-24.6-100-44-228.4-26-327.3,12.7-15.8,5.2-40.5,22.7-56.5,15.2,85.8-91.1,277.3-111.3,391.4-62.5-4-12.5-10.9-24.1-10.3-37.5Z" fill="#fb7f2c"/>
  <path d="M1002.6,1451.4c-93.1,30.1-207.8-1.2-276-70.9-6.8-6.4-13.2-18.2-1.9-23.6,76.3,58,177.1,83.8,271.3,61.8-8.8-4.9-29.9-13.6-33.8-22.8,5.8-5.5,77.5-5.7,91.7-8.5,7.5,0,18.6-4,25.3.3-2.1,21.3-60.1,102-84.3,98-4.6-8.7,6-24.5,7.8-34.3Z" fill="#fb7f2c"/>
  <path d="M810,491.9c-4.2-9.5-11.4-21.2-8.3-31.6,25.6-6.4,84,68.7,103,85.7.6,2.1.3,3.7,0,5.8-13.5,6.3-32.4-.4-47.5.8-18.2-1.6-81.4,9.1-89.5-3.6l.6-3.3c8.8-7.2,22.3-11.2,32.7-16.2-55.9-30.2-153-15.5-211.6.9-4.3-1.7-8.1-3.3-9.6-8,2.7-7.8,13.4-12.5,20.5-15.9,72.1-34.8,133.8-32.1,209.7-14.8Z" fill="#fb7f2c"/>
  <g>
    <path d="M86.1,1154.9c3.9,0,5.3,1.4,5.3,5.3v7.7c0,3.9-1.4,5.3-5.3,5.3h-26.9v87.5c0,3.9-1.4,5.3-5.3,5.3h-9.1c-3.9,0-5.3-1.4-5.3-5.3v-87.5H12.5c-3.9,0-5.3-1.4-5.3-5.3v-7.7c0-3.9,1.4-5.3,5.3-5.3h73.6Z" fill="#08203d"/>
    <path d="M84.7,1216.4c0-21.9,12.7-33.8,36.3-33.8s36.2,13.5,36.2,32.4v9.5c0,4.5-2.3,6.7-7,6.7h-47.3v5.8c0,10.2,6.4,15.7,17.8,15.7s14.9-2.8,18.5-8.3c2.5-3.6,4.2-3.9,8-1.9l5.5,3c3.6,1.7,4.2,4.2,1.9,7.8-6.1,10-17.4,15-33.8,15-24.4,0-36-13-36-33.5v-18.5ZM139,1213.9c0-10.2-6.1-16-18-16s-18.2,5.8-18.2,16v3.4h36.2v-3.4Z" fill="#08203d"/>
    <path d="M168.9,1214.7c0-20.5,12.1-32.1,36-32.1s29.3,8.1,33.5,20.5c1.3,3.9.3,5.6-3.4,7l-6.9,2.2c-3.8,1.4-5.5.5-6.9-3.3-2.7-7-8.5-10.5-17.1-10.5s-17.1,5.2-17.1,15.3v23.2c0,9.9,5.9,15.3,17.1,15.3s14.4-3.6,17.1-10.8c1.4-3.8,3.1-4.4,6.9-3.1l7,2c3.6,1.4,4.7,3.8,3.3,7-5.5,13.9-17.1,20.8-34.9,20.8s-34.6-11.6-34.6-32.1v-21.6Z" fill="#08203d"/>
    <path d="M266,1150.2c3.6,0,4.7,1.3,4.7,4.9v29.7c1.7-.8,10.5-2.2,18.8-2.2,21.8,0,32.6,10.5,32.6,31.5v47.1c0,3.6-1.3,4.9-4.9,4.9h-8.5c-3.6,0-4.9-1.3-4.9-4.9v-46.6c0-10.2-5.6-15.3-17.1-15.3s-13,.8-16.1,2.3v59.6c0,3.6-1.1,4.9-4.7,4.9h-8.6c-3.6,0-4.9-1.3-4.9-4.9v-106.1c0-3.6,1.3-4.9,4.9-4.9h8.6Z" fill="#08203d"/>
    <path d="M376,1182.6c21.9,0,32.6,11.3,32.6,31.5v47.1c0,3.6-1.3,4.9-4.9,4.9h-8.6c-3.6,0-4.7-1.3-4.7-4.9v-46.6c0-10.2-5.6-15.3-17.1-15.3s-10,.6-15,2c-.8.3-1.1.8-1.1,1.6v58.4c0,3.6-1.1,4.9-4.7,4.9h-8.6c-3.6,0-4.9-1.3-4.9-4.9v-64.3c0-5,1.1-6.9,6.1-8.9,8.9-3.6,19.1-5.3,30.8-5.3Z" fill="#08203d"/>
    <path d="M435.5,1154.6c7.4,0,9.5,2.3,9.5,9.4v1.4c0,7.4-2.2,9.5-9.5,9.5h-1.1c-7,0-9.5-2.2-9.5-9.5v-1.4c0-7,2.2-9.4,9.5-9.4h1.1ZM439.2,1184.9c3.6,0,4.9,1.1,4.9,4.7v71.5c0,3.6-1.3,4.9-4.9,4.9h-8.6c-3.6,0-4.7-1.3-4.7-4.9v-71.5c0-3.6,1.1-4.7,4.7-4.7h8.6Z" fill="#08203d"/>
    <path d="M459.4,1214.7c0-20.5,12.1-32.1,36-32.1s29.3,8.1,33.5,20.5c1.3,3.9.3,5.6-3.4,7l-6.9,2.2c-3.8,1.4-5.5.5-6.9-3.3-2.7-7-8.5-10.5-17.1-10.5s-17.1,5.2-17.1,15.3v23.2c0,9.9,5.9,15.3,17.1,15.3s14.4-3.6,17.1-10.8c1.4-3.8,3.1-4.4,6.9-3.1l7,2c3.6,1.4,4.7,3.8,3.3,7-5.5,13.9-17.1,20.8-34.9,20.8s-34.6-11.6-34.6-32.1v-21.6Z" fill="#08203d"/>
    <path d="M552.6,1154.6c7.4,0,9.5,2.3,9.5,9.4v1.4c0,7.4-2.2,9.5-9.5,9.5h-1.1c-7,0-9.5-2.2-9.5-9.5v-1.4c0-7,2.2-9.4,9.5-9.4h1.1ZM556.3,1184.9c3.6,0,4.9,1.1,4.9,4.7v71.5c0,3.6-1.3,4.9-4.9,4.9h-8.6c-3.6,0-4.7-1.3-4.7-4.9v-71.5c0-3.6,1.1-4.7,4.7-4.7h8.6Z" fill="#08203d"/>
    <path d="M610.2,1182.6c22.4,0,33.5,10.8,33.5,32.2v40.5c0,5.5-1.3,7-5.6,8.9-6.3,2.7-15.7,4.1-28.2,4.1s-22.4-2-27.4-6.3c-5-4.1-7.5-10.5-7.5-19.1,0-18.6,10-25.2,35.5-25.2s6.1.3,15,.8v-4.4c0-10.2-4.4-15.5-15.7-15.5s-13.1,2.5-16.4,7.5c-2.3,3.3-3.1,3.6-6.7,2.3l-6.3-2.7c-3.4-1.6-4.4-3.9-2.7-7,5.6-10.8,16.4-16.3,32.4-16.3ZM625.5,1233.4c-11-.5-16.6-.8-17.1-.8-11.3,0-15,3.3-15,10.2s3.3,10.5,14.7,10.5,11.9-.5,15.7-1.3c1.1-.5,1.7-1.1,1.7-2.2v-16.4Z" fill="#08203d"/>
    <path d="M697.1,1182.6c21.9,0,32.6,11.3,32.6,31.5v47.1c0,3.6-1.3,4.9-4.9,4.9h-8.6c-3.6,0-4.7-1.3-4.7-4.9v-46.6c0-10.2-5.6-15.3-17.1-15.3s-10,.6-15,2c-.8.3-1.1.8-1.1,1.6v58.4c0,3.6-1.1,4.9-4.7,4.9h-8.6c-3.6,0-4.9-1.3-4.9-4.9v-64.3c0-5,1.1-6.9,6.1-8.9,8.9-3.6,19.1-5.3,30.8-5.3Z" fill="#08203d"/>
    <path d="M190.9,1381.1c0-25.2,16.1-40.7,44.8-40.7s36.5,8.8,42.6,26.1c1.3,3.3.2,5.6-3.3,6.9l-8.6,3c-3.8,1.3-5.3.5-6.7-3.3-3.4-9.5-11.4-14.4-24-14.4s-25,7.8-25,22.2v34.6c0,14.4,8.9,22.4,25,22.4s20.4-4.9,24-14.6c1.7-3.9,3.1-4.7,6.9-3.3l8.5,3c3.4,1.3,4.5,3.6,3.4,6.9-6.1,17.5-20.4,26.3-42.7,26.3s-44.8-15.3-44.8-40.9v-34.3Z" fill="#08203d"/>
    <path d="M311.1,1449c0,3.6-1.3,4.9-4.9,4.9h-8.5c-3.8,0-4.9-1.3-4.9-4.9v-106.1c0-3.6,1.1-4.9,4.9-4.9h8.5c3.6,0,4.9,1.3,4.9,4.9v106.1Z" fill="#08203d"/>
    <path d="M360.7,1370.4c22.4,0,33.5,10.8,33.5,32.2v40.5c0,5.5-1.3,7-5.6,8.9-6.3,2.7-15.7,4.1-28.2,4.1s-22.4-2-27.4-6.3c-5-4.1-7.5-10.5-7.5-19.1,0-18.6,10-25.2,35.5-25.2s6.1.3,15,.8v-4.4c0-10.2-4.4-15.5-15.7-15.5s-13.1,2.5-16.4,7.5c-2.3,3.3-3.1,3.6-6.7,2.3l-6.3-2.7c-3.4-1.6-4.4-3.9-2.7-7,5.6-10.8,16.4-16.3,32.4-16.3ZM376.1,1421.3c-11-.5-16.6-.8-17.1-.8-11.3,0-15,3.3-15,10.2s3.3,10.5,14.7,10.5,11.9-.5,15.7-1.3c1.1-.5,1.7-1.1,1.7-2.2v-16.4Z" fill="#08203d"/>
    <path d="M442,1370.4c16.8,0,28,5.6,33.5,16.8,1.7,3.1.8,5.5-2.5,7l-7,2.8c-3.6,1.4-4.5,1.1-6.6-2.2-3-5.5-8.6-8.1-16.9-8.1s-14.7,2.8-14.7,8.5,4.7,8.5,18.3,9.7c21.3,2,31.9,7.7,31.9,25.2s-12.1,26.1-33.8,26.1-30.1-6.3-34.9-18.9c-1.3-3.3-.2-5.5,3.1-6.6l7-2.2c3.1-1.3,5-.6,6.4,3,2.3,5.8,8.3,8.6,17.7,8.6s16.6-3.1,16.6-9.2-4.9-8.6-18.8-10c-7.4-.8-11.6-1.4-17.7-3.8-3-1.1-5.5-2.5-7.4-4.2-3.8-3.3-6.6-9.2-6.6-17.2,0-15.5,11.1-25.2,32.2-25.2Z" fill="#08203d"/>
    <path d="M520.9,1370.4c16.8,0,28,5.6,33.5,16.8,1.7,3.1.8,5.5-2.5,7l-7,2.8c-3.6,1.4-4.5,1.1-6.6-2.2-3-5.5-8.6-8.1-16.9-8.1s-14.7,2.8-14.7,8.5,4.7,8.5,18.3,9.7c21.3,2,31.9,7.7,31.9,25.2s-12.1,26.1-33.8,26.1-30.1-6.3-34.9-18.9c-1.3-3.3-.2-5.5,3.1-6.6l7-2.2c3.1-1.3,5-.6,6.4,3,2.3,5.8,8.3,8.6,17.7,8.6s16.6-3.1,16.6-9.2-4.9-8.6-18.8-10c-7.4-.8-11.6-1.4-17.7-3.8-3-1.1-5.5-2.5-7.4-4.2-3.8-3.3-6.6-9.2-6.6-17.2,0-15.5,11.1-25.2,32.2-25.2Z" fill="#08203d"/>
  </g>
  <g>
    <path d="M1180.6,1205.1c4.2,0,5.3,1.4,5.3,5.3v21c0,11-3.9,19.9-11.7,26.6-8,6.9-18.9,10.3-32.9,10.3-28.6,0-44.8-15.3-44.8-40.9v-34.3c0-25.2,16.1-40.7,44.8-40.7s36.5,8.8,42.6,26.1c1.3,3.3.2,5.6-3.3,6.9l-8.6,3c-3.8,1.4-5.3.6-6.7-3.3-3.4-9.5-11.4-14.4-24-14.4s-25,7.8-25,22.2v34.6c0,14.6,8.9,22.4,25,22.4s25.4-7.7,25.4-18.5v-8.1h-23.6c-3.9,0-5.3-1.6-5.3-5.5v-7.5c0-3.9,1.4-5.3,5.3-5.3h37.6Z" fill="#08203d"/>
    <path d="M1198.8,1216.4c0-21.9,12.7-33.8,36.3-33.8s36.2,13.5,36.2,32.4v9.5c0,4.5-2.3,6.7-7,6.7h-47.3v5.8c0,10.2,6.4,15.7,17.8,15.7s14.9-2.8,18.5-8.3c2.5-3.6,4.2-3.9,8-1.9l5.5,3c3.6,1.7,4.2,4.2,1.9,7.8-6.1,10-17.4,15-33.8,15-24.4,0-36-13-36-33.5v-18.5ZM1253.1,1213.9c0-10.2-6.1-16-18-16s-18.2,5.8-18.2,16v3.4h36.2v-3.4Z" fill="#08203d"/>
    <path d="M1322.3,1182.6c21.9,0,32.6,11.3,32.6,31.5v47.1c0,3.6-1.3,4.9-4.9,4.9h-8.6c-3.6,0-4.7-1.3-4.7-4.9v-46.6c0-10.2-5.6-15.3-17.1-15.3s-10,.6-15,2c-.8.3-1.1.8-1.1,1.6v58.4c0,3.6-1.1,4.9-4.7,4.9h-8.6c-3.6,0-4.9-1.3-4.9-4.9v-64.3c0-5,1.1-6.9,6.1-8.9,8.9-3.6,19.1-5.3,30.8-5.3Z" fill="#08203d"/>
    <path d="M1369.4,1216.4c0-21.9,12.7-33.8,36.3-33.8s36.2,13.5,36.2,32.4v9.5c0,4.5-2.3,6.7-7,6.7h-47.3v5.8c0,10.2,6.4,15.7,17.8,15.7s14.9-2.8,18.5-8.3c2.5-3.6,4.2-3.9,8-1.9l5.5,3c3.6,1.7,4.2,4.2,1.9,7.8-6.1,10-17.4,15-33.8,15-24.4,0-36-13-36-33.5v-18.5ZM1423.7,1213.9c0-10.2-6.1-16-18-16s-18.2,5.8-18.2,16v3.4h36.2v-3.4Z" fill="#08203d"/>
    <path d="M1496.2,1182.6c3.6,0,4.9,1.1,4.9,4.9v6.9c0,3.6-1.3,4.9-4.9,4.9h-5.6c-5.8,0-10.8.6-14.9,1.9-1.1.2-1.6.8-1.6,1.9v58.2c0,3.6-1.1,4.9-4.7,4.9h-8.6c-3.6,0-4.9-1.3-4.9-4.9v-65c0-5,1.1-6.9,6.1-8.9,7.7-2.8,17.4-4.4,29.1-4.7h5Z" fill="#08203d"/>
    <path d="M1541.3,1182.6c22.4,0,33.5,10.8,33.5,32.2v40.5c0,5.5-1.3,7-5.6,8.9-6.3,2.7-15.7,4.1-28.2,4.1s-22.4-2-27.4-6.3c-5-4.1-7.5-10.5-7.5-19.1,0-18.6,10-25.2,35.5-25.2s6.1.3,15,.8v-4.4c0-10.2-4.4-15.5-15.7-15.5s-13.1,2.5-16.4,7.5c-2.3,3.3-3.1,3.6-6.7,2.3l-6.3-2.7c-3.4-1.6-4.4-3.9-2.7-7,5.6-10.8,16.4-16.3,32.4-16.3ZM1556.6,1233.4c-11-.5-16.6-.8-17.1-.8-11.3,0-15,3.3-15,10.2s3.3,10.5,14.7,10.5,11.9-.5,15.7-1.3c1.1-.5,1.7-1.1,1.7-2.2v-16.4Z" fill="#08203d"/>
    <path d="M1610.1,1261.2c0,3.6-1.3,4.9-4.9,4.9h-8.5c-3.8,0-4.9-1.3-4.9-4.9v-106.1c0-3.6,1.1-4.9,4.9-4.9h8.5c3.6,0,4.9,1.3,4.9,4.9v106.1Z" fill="#08203d"/>
    <path d="M1173.7,1381.1c0-25.2,16.1-40.7,44.8-40.7s36.5,8.8,42.6,26.1c1.3,3.3.2,5.6-3.3,6.9l-8.6,3c-3.8,1.3-5.3.5-6.7-3.3-3.4-9.5-11.4-14.4-24-14.4s-25,7.8-25,22.2v34.6c0,14.4,8.9,22.4,25,22.4s20.4-4.9,24-14.6c1.7-3.9,3.1-4.7,6.9-3.3l8.5,3c3.4,1.3,4.5,3.6,3.4,6.9-6.1,17.5-20.4,26.3-42.7,26.3s-44.8-15.3-44.8-40.9v-34.3Z" fill="#08203d"/>
    <path d="M1293.9,1449c0,3.6-1.3,4.9-4.9,4.9h-8.5c-3.8,0-4.9-1.3-4.9-4.9v-106.1c0-3.6,1.1-4.9,4.9-4.9h8.5c3.6,0,4.9,1.3,4.9,4.9v106.1Z" fill="#08203d"/>
    <path d="M1343.6,1370.4c22.4,0,33.5,10.8,33.5,32.2v40.5c0,5.5-1.3,7-5.6,8.9-6.3,2.7-15.7,4.1-28.2,4.1s-22.4-2-27.4-6.3c-5-4.1-7.5-10.5-7.5-19.1,0-18.6,10-25.2,35.5-25.2s6.1.3,15,.8v-4.4c0-10.2-4.4-15.5-15.7-15.5s-13.1,2.5-16.4,7.5c-2.3,3.3-3.1,3.6-6.7,2.3l-6.3-2.7c-3.4-1.6-4.4-3.9-2.7-7,5.6-10.8,16.4-16.3,32.4-16.3ZM1358.9,1421.3c-11-.5-16.6-.8-17.1-.8-11.3,0-15,3.3-15,10.2s3.3,10.5,14.7,10.5,11.9-.5,15.7-1.3c1.1-.5,1.7-1.1,1.7-2.2v-16.4Z" fill="#08203d"/>
    <path d="M1424.8,1370.4c16.8,0,28,5.6,33.5,16.8,1.7,3.1.8,5.5-2.5,7l-7,2.8c-3.6,1.4-4.5,1.1-6.6-2.2-3-5.5-8.6-8.1-16.9-8.1s-14.7,2.8-14.7,8.5,4.7,8.5,18.3,9.7c21.3,2,31.9,7.7,31.9,25.2s-12.1,26.1-33.8,26.1-30.1-6.3-34.9-18.9c-1.3-3.3-.2-5.5,3.1-6.6l7-2.2c3.1-1.3,5-.6,6.4,3,2.3,5.8,8.3,8.6,17.7,8.6s16.6-3.1,16.6-9.2-4.9-8.6-18.8-10c-7.4-.8-11.6-1.4-17.7-3.8-3-1.1-5.5-2.5-7.4-4.2-3.8-3.3-6.6-9.2-6.6-17.2,0-15.5,11.1-25.2,32.2-25.2Z" fill="#08203d"/>
    <path d="M1503.7,1370.4c16.8,0,28,5.6,33.5,16.8,1.7,3.1.8,5.5-2.5,7l-7,2.8c-3.6,1.4-4.5,1.1-6.6-2.2-3-5.5-8.6-8.1-16.9-8.1s-14.7,2.8-14.7,8.5,4.7,8.5,18.3,9.7c21.3,2,31.9,7.7,31.9,25.2s-12.1,26.1-33.8,26.1-30.1-6.3-34.9-18.9c-1.3-3.3-.2-5.5,3.1-6.6l7-2.2c3.1-1.3,5-.6,6.4,3,2.3,5.8,8.3,8.6,17.7,8.6s16.6-3.1,16.6-9.2-4.9-8.6-18.8-10c-7.4-.8-11.6-1.4-17.7-3.8-3-1.1-5.5-2.5-7.4-4.2-3.8-3.3-6.6-9.2-6.6-17.2,0-15.5,11.1-25.2,32.2-25.2Z" fill="#08203d"/>
  </g>
  <g>
    <path d="M2121.4,1260.8c1.3,3.4,0,5.2-3.6,5.2h-8.1c-6.4,0-8.5-.9-9.7-4.7l-7.2-20.2h-43.2l-7.4,20.2c-1.3,3.8-3.3,4.7-9.7,4.7h-7.2c-3.6,0-4.9-1.7-3.6-5.2l39.1-101.8c1.4-3.6,2.8-4.4,6.6-4.4h8.3c3.8,0,5.3.9,6.6,4.2l39.1,101.9ZM2075.4,1192c-1.9-5.6-3.1-12.8-3.6-16.4l-.2-2.7h-1.1c0,5.9-1.1,12.2-3.4,18.9l-12.1,33.2h32.2l-11.9-33Z" fill="#08203d"/>
    <path d="M2211.6,1182.6c20.5,0,30.7,10.3,30.7,31.2v47.4c0,3.6-1.1,4.9-4.7,4.9h-8.6c-3.6,0-4.9-1.3-4.9-4.9v-46.8c0-10.2-5-15.2-15.2-15.2s-9.7.9-15.2,2.8c1.1,3,1.7,6.9,1.7,11.7v47.4c0,3.6-1.3,4.9-4.9,4.9h-8.5c-3.6,0-4.9-1.3-4.9-4.9v-46.8c0-10.2-5.2-15.2-15.3-15.2s-8.6.6-12.5,1.9c-.8.3-1.3.9-1.3,1.9v58.2c0,3.6-1.1,4.9-4.7,4.9h-8.6c-3.6,0-4.9-1.3-4.9-4.9v-64.3c0-5,1.3-6.9,6.1-8.9,8.6-3.6,18.2-5.3,28.5-5.3s14.7,1.7,19.4,5.2c8.6-3.4,17.7-5.2,27.6-5.2Z" fill="#08203d"/>
    <path d="M2290.8,1182.6c22.4,0,33.5,10.8,33.5,32.2v40.5c0,5.5-1.3,7-5.6,8.9-6.3,2.7-15.7,4.1-28.2,4.1s-22.4-2-27.4-6.3c-5-4.1-7.5-10.5-7.5-19.1,0-18.6,10-25.2,35.5-25.2s6.1.3,15,.8v-4.4c0-10.2-4.4-15.5-15.7-15.5s-13.1,2.5-16.4,7.5c-2.3,3.3-3.1,3.6-6.7,2.3l-6.3-2.7c-3.4-1.6-4.4-3.9-2.7-7,5.6-10.8,16.4-16.3,32.4-16.3ZM2306.1,1233.4c-11-.5-16.6-.8-17.1-.8-11.3,0-15,3.3-15,10.2s3.3,10.5,14.7,10.5,11.9-.5,15.7-1.3c1.1-.5,1.7-1.1,1.7-2.2v-16.4Z" fill="#08203d"/>
    <path d="M2361.5,1166.1c3.6,0,4.9,1.1,4.9,4.7v14.1h17.8c3.6,0,4.9,1.1,4.9,4.7v7.2c0,3.6-1.3,4.9-4.9,4.9h-17.8v31.5c0,7.4,1.3,12.2,3.8,14.6,2.3,2.3,7,3.4,13.9,3.4s5,1.1,5,4.9v7.2c0,3.8-1.3,4.9-5,5-13.1.5-22.4-1.9-27.7-6.9-5.5-5-8.1-14.2-8.1-27.6v-32.1h-10.8c-3.6,0-4.7-1.3-4.7-4.9v-7.2c0-3.6,1.1-4.7,4.7-4.7h10.8v-14.1c0-3.6,1.3-4.7,4.9-4.7h8.5Z" fill="#08203d"/>
    <path d="M2398.5,1216.4c0-21.9,12.7-33.8,36.3-33.8s36.2,13.5,36.2,32.4v9.5c0,4.5-2.3,6.7-7,6.7h-47.3v5.8c0,10.2,6.4,15.7,17.8,15.7s14.9-2.8,18.5-8.3c2.5-3.6,4.2-3.9,8-1.9l5.5,3c3.6,1.7,4.2,4.2,1.9,7.8-6.1,10-17.4,15-33.8,15-24.4,0-36-13-36-33.5v-18.5ZM2452.8,1213.9c0-10.2-6.1-16-18-16s-18.2,5.8-18.2,16v3.4h36.2v-3.4Z" fill="#08203d"/>
    <path d="M2549.2,1184.9c3.6,0,4.9,1.1,4.9,4.7v64.5c0,5-1.1,6.7-6.1,8.8-9.2,3.6-19.4,5.5-30.7,5.5-21.9,0-32.7-11.3-32.7-31.5v-47.3c0-3.6,1.3-4.7,4.9-4.7h8.6c3.6,0,4.7,1.1,4.7,4.7v46.6c0,10.3,5.6,15.5,17.1,15.5s10.2-.6,14.4-1.9c1.1-.5,1.7-1.3,1.7-2.7v-57.6c0-3.6,1.3-4.7,4.9-4.7h8.5Z" fill="#08203d"/>
    <path d="M2611.8,1182.6c3.6,0,4.9,1.1,4.9,4.9v6.9c0,3.6-1.3,4.9-4.9,4.9h-5.6c-5.8,0-10.8.6-14.9,1.9-1.1.2-1.6.8-1.6,1.9v58.2c0,3.6-1.1,4.9-4.7,4.9h-8.6c-3.6,0-4.9-1.3-4.9-4.9v-65c0-5,1.1-6.9,6.1-8.9,7.7-2.8,17.4-4.4,29.1-4.7h5Z" fill="#08203d"/>
    <path d="M2727.2,1154.9c3.9,0,5.5,1.4,5.5,5.3v7.7c0,3.9-1.6,5.3-5.5,5.3h-47.9v27.4h40.5c3.9,0,5.3,1.4,5.3,5.3v7.7c0,3.9-1.4,5.3-5.3,5.3h-40.5v28.8h49.6c3.9,0,5.3,1.4,5.3,5.3v7.7c0,3.9-1.4,5.3-5.3,5.3h-63.9c-3.9,0-5.5-1.4-5.5-5.3v-100.5c0-3.9,1.6-5.3,5.5-5.3h62.1Z" fill="#08203d"/>
    <path d="M2812.2,1184.9c4.7,0,5.8,1.9,3.3,5.6l-23.5,33.7,25,36.2c2.7,3.8,1.6,5.6-3.4,5.6h-7.5c-5.2,0-6.4-.5-8.8-4.1l-16.9-24.6-16.1,24.6c-2.3,3.6-3.6,4.1-8.8,4.1h-7.4c-5.6,0-6.6-1.9-3.6-5.6l25-36-24-33.8c-2.7-3.8-1.4-5.6,3.8-5.6h7c5.5,0,6.9.8,8.9,4.1l15.5,22.1,15.2-22.1c2.3-3.6,3.3-4.1,8.5-4.1h7.7Z" fill="#08203d"/>
    <path d="M2849.1,1166.1c3.6,0,4.9,1.1,4.9,4.7v14.1h17.8c3.6,0,4.9,1.1,4.9,4.7v7.2c0,3.6-1.3,4.9-4.9,4.9h-17.8v31.5c0,7.4,1.3,12.2,3.8,14.6,2.3,2.3,7,3.4,13.9,3.4s5,1.1,5,4.9v7.2c0,3.8-1.3,4.9-5,5-13.1.5-22.4-1.9-27.7-6.9-5.5-5-8.1-14.2-8.1-27.6v-32.1h-10.8c-3.6,0-4.7-1.3-4.7-4.9v-7.2c0-3.6,1.1-4.7,4.7-4.7h10.8v-14.1c0-3.6,1.3-4.7,4.9-4.7h8.5Z" fill="#08203d"/>
    <path d="M2928.8,1182.6c3.6,0,4.9,1.1,4.9,4.9v6.9c0,3.6-1.3,4.9-4.9,4.9h-5.6c-5.8,0-10.8.6-14.9,1.9-1.1.2-1.6.8-1.6,1.9v58.2c0,3.6-1.1,4.9-4.7,4.9h-8.6c-3.6,0-4.9-1.3-4.9-4.9v-65c0-5,1.1-6.9,6.1-8.9,7.7-2.8,17.4-4.4,29.1-4.7h5Z" fill="#08203d"/>
    <path d="M2973.9,1182.6c22.4,0,33.5,10.8,33.5,32.2v40.5c0,5.5-1.3,7-5.6,8.9-6.3,2.7-15.7,4.1-28.2,4.1s-22.4-2-27.4-6.3c-5-4.1-7.5-10.5-7.5-19.1,0-18.6,10-25.2,35.5-25.2s6.1.3,15,.8v-4.4c0-10.2-4.4-15.5-15.7-15.5s-13.1,2.5-16.4,7.5c-2.3,3.3-3.1,3.6-6.7,2.3l-6.3-2.7c-3.4-1.6-4.4-3.9-2.7-7,5.6-10.8,16.4-16.3,32.4-16.3ZM2989.2,1233.4c-11-.5-16.6-.8-17.1-.8-11.3,0-15,3.3-15,10.2s3.3,10.5,14.7,10.5,11.9-.5,15.7-1.3c1.1-.5,1.7-1.1,1.7-2.2v-16.4Z" fill="#08203d"/>
    <path d="M2336.1,1381.1c0-25.2,16.1-40.7,44.8-40.7s36.5,8.8,42.6,26.1c1.3,3.3.2,5.6-3.3,6.9l-8.6,3c-3.8,1.3-5.3.5-6.7-3.3-3.4-9.5-11.4-14.4-24-14.4s-25,7.8-25,22.2v34.6c0,14.4,8.9,22.4,25,22.4s20.3-4.9,24-14.6c1.7-3.9,3.1-4.7,6.9-3.3l8.5,3c3.4,1.3,4.5,3.6,3.4,6.9-6.1,17.5-20.4,26.3-42.7,26.3s-44.8-15.3-44.8-40.9v-34.3Z" fill="#08203d"/>
    <path d="M2456.3,1449c0,3.6-1.3,4.9-4.9,4.9h-8.5c-3.8,0-4.9-1.3-4.9-4.9v-106.1c0-3.6,1.1-4.9,4.9-4.9h8.5c3.6,0,4.9,1.3,4.9,4.9v106.1Z" fill="#08203d"/>
    <path d="M2505.9,1370.4c22.4,0,33.5,10.8,33.5,32.2v40.5c0,5.5-1.3,7-5.6,8.9-6.3,2.7-15.7,4.1-28.2,4.1s-22.4-2-27.4-6.3c-5-4.1-7.5-10.5-7.5-19.1,0-18.6,10-25.2,35.5-25.2s6.1.3,15,.8v-4.4c0-10.2-4.4-15.5-15.7-15.5s-13.1,2.5-16.4,7.5c-2.3,3.3-3.1,3.6-6.7,2.3l-6.3-2.7c-3.4-1.6-4.4-3.9-2.7-7,5.6-10.8,16.4-16.3,32.4-16.3ZM2521.3,1421.3c-11-.5-16.6-.8-17.1-.8-11.3,0-15,3.3-15,10.2s3.3,10.5,14.7,10.5,11.9-.5,15.7-1.3c1.1-.5,1.7-1.1,1.7-2.2v-16.4Z" fill="#08203d"/>
    <path d="M2587.2,1370.4c16.8,0,28,5.6,33.5,16.8,1.7,3.1.8,5.5-2.5,7l-7,2.8c-3.6,1.4-4.5,1.1-6.6-2.2-3-5.5-8.6-8.1-16.9-8.1s-14.7,2.8-14.7,8.5,4.7,8.5,18.3,9.7c21.3,2,31.9,7.7,31.9,25.2s-12.1,26.1-33.8,26.1-30.1-6.3-34.9-18.9c-1.3-3.3-.2-5.5,3.1-6.6l7-2.2c3.1-1.3,5-.6,6.4,3,2.3,5.8,8.3,8.6,17.7,8.6s16.6-3.1,16.6-9.2-4.9-8.6-18.8-10c-7.4-.8-11.6-1.4-17.7-3.8-3-1.1-5.5-2.5-7.4-4.2-3.8-3.3-6.6-9.2-6.6-17.2,0-15.5,11.1-25.2,32.2-25.2Z" fill="#08203d"/>
    <path d="M2666.1,1370.4c16.8,0,28,5.6,33.5,16.8,1.7,3.1.8,5.5-2.5,7l-7,2.8c-3.6,1.4-4.5,1.1-6.6-2.2-3-5.5-8.6-8.1-16.9-8.1s-14.7,2.8-14.7,8.5,4.7,8.5,18.3,9.7c21.3,2,31.9,7.7,31.9,25.2s-12.1,26.1-33.8,26.1-30.1-6.3-34.9-18.9c-1.3-3.3-.2-5.5,3.1-6.6l7-2.2c3.1-1.3,5-.6,6.4,3,2.3,5.8,8.3,8.6,17.7,8.6s16.6-3.1,16.6-9.2-4.9-8.6-18.8-10c-7.4-.8-11.6-1.4-17.7-3.8-3-1.1-5.5-2.5-7.4-4.2-3.8-3.3-6.6-9.2-6.6-17.2,0-15.5,11.1-25.2,32.2-25.2Z" fill="#08203d"/>
  </g>
</svg>