<?xml version="1.0" encoding="utf-8"?>
<svg version="1.1" id="Layer_1" xmlns="http://www.w3.org/2000/svg" xmlns:xlink="http://www.w3.org/1999/xlink" x="0px" y="0px"
	 viewBox="0 0 545 378.75" style="enable-background:new 0 0 545 378.75;" xml:space="preserve">
<style type="text/css">
	.st0{fill-rule:evenodd;clip-rule:evenodd;fill:#FFFFFF;}
	.st1{fill:none;stroke:#000000;stroke-width:1.2;stroke-linecap:round;stroke-linejoin:round;stroke-miterlimit:10;}
	.st2{fill-rule:evenodd;clip-rule:evenodd;}
	.st3{fill:none;stroke:#000000;stroke-width:3.12;stroke-miterlimit:2;}
	.st4{fill:none;stroke:#000000;stroke-width:1.2;stroke-linecap:round;stroke-linejoin:round;stroke-miterlimit:2;}
	.st5{fill:none;stroke:#000000;stroke-width:1.4173;stroke-linecap:round;stroke-linejoin:round;stroke-miterlimit:2;}
	.st6{fill:none;stroke:#000000;stroke-width:0.72;stroke-linecap:round;stroke-linejoin:round;stroke-miterlimit:2;}
	.st7{font-family:'ArialMT';}
	.st8{font-size:12.0002px;}
</style>
<path class="st0" d="M426.15,33.56c0,1.57,1.27,2.84,2.84,2.84c1.56,0,2.83-1.27,2.83-2.84c0-1.56-1.27-2.83-2.83-2.83
	C427.42,30.73,426.15,32,426.15,33.56z"/>
<line class="st1" x1="428.99" y1="36.4" x2="428.99" y2="44.9"/>
<path class="st1" d="M426.15,33.56c0-1.56,1.27-2.83,2.84-2.83c1.56,0,2.83,1.27,2.83,2.83c0,1.57-1.27,2.84-2.83,2.84
	C427.42,36.4,426.15,35.13,426.15,33.56z"/>
<path class="st1" d="M439.11,143.9v-36 M436.86,143.9v-36"/>
<line class="st1" x1="428.99" y1="44.9" x2="428.99" y2="98.9"/>
<line class="st1" x1="365.99" y1="44.9" x2="383.99" y2="44.9"/>
<line class="st1" x1="320.99" y1="44.9" x2="338.99" y2="44.9"/>
<polyline class="st1" points="338.99,44.9 341.24,40.4 345.74,49.4 350.24,40.4 354.74,49.4 359.24,40.4 363.74,49.4 365.99,44.9 
	"/>
<line class="st1" x1="428.99" y1="44.9" x2="383.99" y2="44.9"/>
<line class="st1" x1="320.99" y1="44.9" x2="137.16" y2="45.69"/>
<line class="st1" x1="125.91" y1="79.44" x2="128.04" y2="79.44"/>
<polygon class="st2" points="127.38,76.8 132.66,79.44 127.38,82.08 "/>
<line class="st1" x1="137.16" y1="90.69" x2="137.16" y2="108.69"/>
<line class="st1" x1="137.16" y1="45.69" x2="137.16" y2="63.69"/>
<polyline class="st1" points="137.16,63.69 141.66,65.94 132.66,70.44 141.66,74.94 132.66,79.44 141.66,83.94 132.66,88.44 
	137.16,90.69 "/>
<line class="st1" x1="194.99" y1="89.9" x2="194.99" y2="67.4"/>
<line class="st1" x1="194.99" y1="64.03" x2="194.99" y2="44.9"/>
<path class="st1" d="M188.24,64.03h13.5 M188.24,70.78c0-1.87,3.02-3.38,6.75-3.38c3.72,0,6.75,1.51,6.75,3.38"/>
<line class="st1" x1="137.16" y1="144.69" x2="137.16" y2="153.69"/>
<line class="st1" x1="137.16" y1="108.69" x2="137.16" y2="117.69"/>
<polyline class="st1" points="137.16,117.69 141.66,119.94 132.66,124.44 141.66,128.94 132.66,133.44 141.66,137.94 132.66,142.44 
	137.16,144.69 "/>
<line class="st1" x1="338.99" y1="170.9" x2="338.99" y2="188.9"/>
<line class="st1" x1="338.99" y1="125.9" x2="338.99" y2="143.9"/>
<polyline class="st1" points="338.99,143.9 343.49,146.15 334.49,150.65 343.49,155.15 334.49,159.65 343.49,164.15 334.49,168.65 
	338.99,170.9 "/>
<polyline class="st1" points="428.99,71.9 338.99,71.9 338.99,125.9 "/>
<line class="st1" x1="320.99" y1="233.9" x2="320.99" y2="251.9"/>
<line class="st1" x1="320.99" y1="188.9" x2="320.99" y2="206.9"/>
<polyline class="st1" points="320.99,206.9 325.49,209.15 316.49,213.65 325.49,218.15 316.49,222.65 325.49,227.15 316.49,231.65 
	320.99,233.9 "/>
<line class="st1" x1="428.99" y1="269.9" x2="428.99" y2="287.9"/>
<line class="st1" x1="428.99" y1="224.9" x2="428.99" y2="242.9"/>
<polyline class="st1" points="428.99,242.9 433.49,245.15 424.49,249.65 433.49,254.15 424.49,258.65 433.49,263.15 424.49,267.65 
	428.99,269.9 "/>
<line class="st1" x1="392.99" y1="278.9" x2="392.99" y2="256.4"/>
<line class="st1" x1="392.99" y1="253.03" x2="392.99" y2="233.9"/>
<path class="st1" d="M386.24,253.03h13.5 M386.24,259.78c0-1.87,3.02-3.38,6.75-3.38c3.72,0,6.75,1.51,6.75,3.38"/>
<line class="st1" x1="392.99" y1="278.9" x2="392.99" y2="296.9"/>
<line class="st1" x1="428.99" y1="287.9" x2="428.99" y2="296.9"/>
<line class="st1" x1="302.99" y1="188.9" x2="275.99" y2="188.9"/>
<line class="st1" x1="272.61" y1="188.9" x2="248.99" y2="188.9"/>
<path class="st1" d="M272.61,195.65v-13.5 M279.36,195.65c-1.86,0-3.37-3.02-3.37-6.75s1.51-6.75,3.37-6.75"/>
<line class="st1" x1="383.99" y1="143.9" x2="383.99" y2="121.4"/>
<line class="st1" x1="383.99" y1="118.03" x2="383.99" y2="98.9"/>
<path class="st1" d="M377.24,118.03h13.5 M377.24,124.78c0-1.87,3.02-3.38,6.75-3.38c3.72,0,6.75,1.51,6.75,3.38"/>
<line class="st1" x1="383.99" y1="98.9" x2="428.99" y2="98.9"/>
<circle class="st1" cx="208.49" cy="193.4" r="18"/>
<line class="st1" x1="185.99" y1="193.4" x2="208.49" y2="193.4"/>
<line class="st3" x1="208.49" y1="182.15" x2="208.49" y2="204.65"/>
<polygon class="st2" points="201.17,199.03 206.24,193.4 201.17,187.78 "/>
<polygon class="st4" points="201.17,199.03 206.24,193.4 201.17,187.78 "/>
<line class="st4" x1="208.49" y1="188.9" x2="231.13" y2="188.9"/>
<line class="st4" x1="208.49" y1="197.9" x2="230.99" y2="197.9"/>
<line class="st4" x1="428.99" y1="143.89" x2="428.99" y2="152.9"/>
<line class="st4" x1="428.99" y1="98.9" x2="428.99" y2="107.91"/>
<path class="st4" d="M428.99,107.91c2.48,0,4.5,2.01,4.5,4.5c0,2.48-2.02,4.5-4.5,4.5c2.48,0,4.5,2.01,4.5,4.49
	c0,2.49-2.02,4.5-4.5,4.5c2.48,0,4.5,2.02,4.5,4.5s-2.02,4.5-4.5,4.5c2.48,0,4.5,2.01,4.5,4.49c0,2.49-2.02,4.5-4.5,4.5"/>
<circle class="st4" cx="419.99" cy="188.9" r="13.5"/>
<path class="st4" d="M415.49,193.4l13.5,5.63v7.87 M415.49,184.4l13.5-5.48v-8.02 M415.49,197.9v-18 M401.99,188.9h13.5"/>
<polygon class="st2" points="421.02,195.65 421.65,194.08 424.15,196.91 420.39,197.21 "/>
<polygon class="st4" points="421.02,195.65 421.65,194.08 424.15,196.91 420.39,197.21 "/>
<line class="st4" x1="302.99" y1="188.9" x2="401.99" y2="188.9"/>
<polyline class="st4" points="392.99,233.9 392.99,224.9 428.99,224.9 428.99,206.9 "/>
<line class="st4" x1="428.99" y1="296.9" x2="428.99" y2="314.9"/>
<polyline class="st4" points="422.24,321.65 424.49,314.9 433.49,314.9 "/>
<line class="st4" x1="428.99" y1="314.9" x2="426.74" y2="321.65"/>
<line class="st4" x1="433.49" y1="314.9" x2="431.24" y2="321.65"/>
<line class="st4" x1="392.99" y1="296.9" x2="392.99" y2="314.9"/>
<polyline class="st4" points="386.24,321.65 388.49,314.9 397.49,314.9 "/>
<line class="st4" x1="392.99" y1="314.9" x2="390.74" y2="321.65"/>
<line class="st4" x1="397.49" y1="314.9" x2="395.24" y2="321.65"/>
<line class="st4" x1="320.99" y1="296.9" x2="320.99" y2="314.9"/>
<polyline class="st4" points="314.24,321.65 316.49,314.9 325.49,314.9 "/>
<line class="st4" x1="320.99" y1="314.9" x2="318.74" y2="321.65"/>
<line class="st4" x1="325.49" y1="314.9" x2="323.24" y2="321.65"/>
<line class="st4" x1="320.99" y1="251.9" x2="320.99" y2="296.9"/>
<line class="st4" x1="383.99" y1="143.9" x2="383.99" y2="161.9"/>
<polyline class="st4" points="377.24,168.65 379.49,161.9 388.49,161.9 "/>
<line class="st4" x1="383.99" y1="161.9" x2="381.74" y2="168.65"/>
<line class="st4" x1="388.49" y1="161.9" x2="386.24" y2="168.65"/>
<path class="st4" d="M446.99,116.9c-2.49,0-4.5,2.02-4.5,4.5c0,2.49,2.01,4.5,4.5,4.5"/>
<path class="st4" d="M446.99,125.9c-2.49,0-4.5,2.02-4.5,4.5c0,2.49,2.01,4.5,4.5,4.5"/>
<line class="st4" x1="446.99" y1="116.9" x2="455.99" y2="116.9"/>
<line class="st4" x1="446.99" y1="134.9" x2="455.99" y2="134.9"/>
<line class="st4" x1="464.99" y1="143.9" x2="464.99" y2="161.9"/>
<polyline class="st4" points="458.24,168.65 460.49,161.9 469.49,161.9 "/>
<line class="st4" x1="464.99" y1="161.9" x2="462.74" y2="168.65"/>
<line class="st4" x1="469.49" y1="161.9" x2="467.24" y2="168.65"/>
<polyline class="st4" points="455.99,134.9 464.99,134.9 464.99,143.9 "/>
<line class="st4" x1="455.65" y1="116.9" x2="491.49" y2="116.9"/>
<path class="st0" d="M494.33,114.07c-1.57,0-2.84,1.27-2.84,2.83c0,1.57,1.27,2.84,2.84,2.84c1.56,0,2.83-1.27,2.83-2.84
	C497.16,115.34,495.89,114.07,494.33,114.07z"/>
<path class="st5" d="M494.33,114.07c1.56,0,2.83,1.27,2.83,2.83c0,1.57-1.27,2.84-2.83,2.84c-1.57,0-2.84-1.27-2.84-2.84
	C491.49,115.34,492.76,114.07,494.33,114.07z"/>
<line class="st4" x1="428.99" y1="152.9" x2="428.99" y2="170.9"/>
<line class="st4" x1="285.06" y1="98.9" x2="284.87" y2="44.88"/>
<line class="st4" x1="278.22" y1="71.92" x2="292.28" y2="71.87"/>
<polygon class="st2" points="291.74,78.62 284.97,71.89 278.24,78.67 "/>
<polygon class="st4" points="291.74,78.62 284.97,71.89 278.24,78.67 "/>
<line class="st4" x1="278.22" y1="71.92" x2="271.49" y2="78.69"/>
<line class="st4" x1="292.28" y1="71.87" x2="299.01" y2="65.09"/>
<line class="st4" x1="284.99" y1="98.9" x2="284.99" y2="116.9"/>
<polyline class="st4" points="278.24,123.65 280.49,116.9 289.49,116.9 "/>
<line class="st4" x1="284.99" y1="116.9" x2="282.74" y2="123.65"/>
<line class="st4" x1="289.49" y1="116.9" x2="287.24" y2="123.65"/>
<line class="st4" x1="230.99" y1="110.94" x2="230.99" y2="128.94"/>
<line class="st4" x1="230.99" y1="65.94" x2="230.99" y2="83.94"/>
<polyline class="st4" points="230.99,83.94 235.49,86.19 226.49,90.69 235.49,95.19 226.49,99.69 235.49,104.19 226.49,108.69 
	230.99,110.94 "/>
<line class="st4" x1="230.99" y1="65.94" x2="230.99" y2="44.9"/>
<line class="st4" x1="230.99" y1="128.94" x2="231.13" y2="188.9"/>
<line class="st4" x1="158.99" y1="193.4" x2="158.99" y2="265.4"/>
<line class="st4" x1="167.99" y1="229.4" x2="149.24" y2="229.4"/>
<polygon class="st2" points="149.99,220.4 158.99,229.4 167.99,220.4 "/>
<polygon class="st4" points="149.99,220.4 158.99,229.4 167.99,220.4 "/>
<line class="st4" x1="122.99" y1="238.4" x2="122.99" y2="256.4"/>
<line class="st4" x1="122.99" y1="193.4" x2="122.99" y2="211.4"/>
<polyline class="st4" points="122.99,211.4 127.49,213.65 118.49,218.15 127.49,222.65 118.49,227.15 127.49,231.65 118.49,236.15 
	122.99,238.4 "/>
<line class="st4" x1="122.99" y1="193.4" x2="95.99" y2="193.4"/>
<line class="st4" x1="92.61" y1="193.4" x2="68.99" y2="193.4"/>
<path class="st4" d="M92.61,200.15v-13.5 M99.36,200.15c-1.86,0-3.37-3.02-3.37-6.75s1.51-6.75,3.37-6.75"/>
<line class="st4" x1="158.99" y1="265.4" x2="158.99" y2="283.4"/>
<polyline class="st4" points="152.24,290.15 154.49,283.4 163.49,283.4 "/>
<line class="st4" x1="158.99" y1="283.4" x2="156.74" y2="290.15"/>
<line class="st4" x1="163.49" y1="283.4" x2="161.24" y2="290.15"/>
<line class="st4" x1="122.99" y1="256.4" x2="122.99" y2="274.4"/>
<polyline class="st4" points="116.24,281.15 118.49,274.4 127.49,274.4 "/>
<line class="st4" x1="122.99" y1="274.4" x2="120.74" y2="281.15"/>
<line class="st4" x1="127.49" y1="274.4" x2="125.24" y2="281.15"/>
<line class="st4" x1="122.99" y1="193.4" x2="185.99" y2="193.4"/>
<line class="st4" x1="68.99" y1="269.91" x2="68.99" y2="260.9"/>
<line class="st4" x1="68.99" y1="314.9" x2="68.99" y2="305.89"/>
<path class="st4" d="M68.99,305.89c-2.49,0-4.5-2.01-4.5-4.5c0-2.48,2.01-4.49,4.5-4.49c-2.49,0-4.5-2.02-4.5-4.5s2.01-4.5,4.5-4.5
	c-2.49,0-4.5-2.01-4.5-4.5c0-2.48,2.01-4.49,4.5-4.49c-2.49,0-4.5-2.02-4.5-4.5c0-2.49,2.01-4.5,4.5-4.5"/>
<line class="st4" x1="68.99" y1="193.4" x2="68.99" y2="260.9"/>
<line class="st4" x1="68.99" y1="314.9" x2="68.99" y2="332.9"/>
<polyline class="st4" points="62.24,339.65 64.49,332.9 73.49,332.9 "/>
<line class="st4" x1="68.99" y1="332.9" x2="66.74" y2="339.65"/>
<line class="st4" x1="73.49" y1="332.9" x2="71.24" y2="339.65"/>
<polyline class="st4" points="230.99,197.9 230.99,332.9 86.99,332.9 86.99,296.9 68.99,296.9 "/>
<polyline class="st4" points="125.91,79.44 32.91,79.44 32.91,107.94 "/>
<line class="st4" x1="32.99" y1="251.9" x2="32.99" y2="229.4"/>
<line class="st4" x1="32.99" y1="226.03" x2="32.99" y2="206.9"/>
<path class="st4" d="M26.24,226.03h13.5 M26.24,232.78c0-1.87,3.02-3.38,6.75-3.38c3.72,0,6.75,1.51,6.75,3.38"/>
<line class="st4" x1="32.99" y1="251.9" x2="32.99" y2="269.9"/>
<polyline class="st4" points="26.24,276.65 28.49,269.9 37.49,269.9 "/>
<line class="st4" x1="32.99" y1="269.9" x2="30.74" y2="276.65"/>
<line class="st4" x1="37.49" y1="269.9" x2="35.24" y2="276.65"/>
<line class="st4" x1="32.91" y1="161.94" x2="32.99" y2="206.9"/>
<line class="st4" x1="68.99" y1="193.4" x2="32.99" y2="193.4"/>
<line class="st4" x1="32.91" y1="161.94" x2="32.91" y2="125.94"/>
<line class="st4" x1="41.91" y1="125.94" x2="23.16" y2="125.94"/>
<polygon class="st2" points="23.91,134.94 32.91,125.94 41.91,134.94 "/>
<polygon class="st4" points="23.91,134.94 32.91,125.94 41.91,134.94 "/>
<path class="st4" d="M23.53,121.44c5.63,3,12.38,3,18,0"/>
<line class="st4" x1="33.13" y1="123.68" x2="33.13" y2="107.94"/>
<line class="st4" x1="194.99" y1="89.9" x2="194.99" y2="107.9"/>
<polyline class="st4" points="188.24,114.65 190.49,107.9 199.49,107.9 "/>
<line class="st4" x1="194.99" y1="107.9" x2="192.74" y2="114.65"/>
<line class="st4" x1="199.49" y1="107.9" x2="197.24" y2="114.65"/>
<line class="st6" x1="210.74" y1="188.9" x2="208.49" y2="188.9"/>
<line class="st4" x1="137.16" y1="152.56" x2="137.16" y2="167.29"/>
<polyline class="st4" points="130.41,172.81 132.66,167.29 141.66,167.29 "/>
<line class="st4" x1="137.16" y1="167.29" x2="134.91" y2="172.81"/>
<line class="st4" x1="141.66" y1="167.29" x2="139.41" y2="172.81"/>
<text transform="matrix(1 0 0 1 113.705 73.2045)" class="st7 st8">1</text>
<text transform="matrix(1 0 0 1 120.3788 73.2045)" class="st7 st8">1</text>
<text transform="matrix(1 0 0 1 8.4149 134.7948)" class="st7 st8">4</text>
<text transform="matrix(1 0 0 1 52.8251 305.7943)" class="st7 st8">7</text>
<text transform="matrix(1 0 0 1 167.765 245.6049)" class="st7 st8">3</text>
<text transform="matrix(1 0 0 1 196.8251 170.7948)" class="st7 st8">1</text>
<text transform="matrix(1 0 0 1 205.8251 62.7948)" class="st7 st8">8</text>
<text transform="matrix(1 0 0 1 269.4149 65.6049)" class="st7 st8">5</text>
<text transform="matrix(1 0 0 1 443.0146 193.1049)" class="st7 st8">2</text>
<text transform="matrix(1 0 0 1 448.8251 265.2943)" class="st7 st8">9</text>
<text transform="matrix(1 0 0 1 444.3251 103.2948)" class="st7 st8">6</text>
<text transform="matrix(1 0 0 1 430.995 17.7948)" class="st7 st8">+</text>
<text transform="matrix(1 0 0 1 438.0048 17.7948)" class="st7 st8">D</text>
<text transform="matrix(1 0 0 1 446.6708 17.7948)" class="st7 st8">C</text>
<text transform="matrix(1 0 0 1 511.495 121.2948)" class="st7 st8">O</text>
<text transform="matrix(1 0 0 1 520.829 121.2948)" class="st7 st8">U</text>
<text transform="matrix(1 0 0 1 529.495 121.2948)" class="st7 st8">T</text>
<text transform="matrix(1 0 0 1 88.8651 180.9247)" class="st7 st8">1</text>
<text transform="matrix(1 0 0 1 95.539 180.9247)" class="st7 st8">0</text>
<line class="st4" x1="231.13" y1="188.9" x2="248.99" y2="188.9"/>
<text transform="matrix(1 0 0 1 214.2748 369.9252)" class="st7 st8">F</text>
<text transform="matrix(1 0 0 1 221.6054 369.9252)" class="st7 st8">i</text>
<text transform="matrix(1 0 0 1 224.2714 369.9252)" class="st7 st8">g</text>
<text transform="matrix(1 0 0 1 230.9452 369.9252)" class="st7 st8">u</text>
<text transform="matrix(1 0 0 1 237.619 369.9252)" class="st7 st8">r</text>
<text transform="matrix(1 0 0 1 241.6151 369.9252)" class="st7 st8">e</text>
<text transform="matrix(1 0 0 1 251.623 369.9252)" class="st7 st8">G</text>
<text transform="matrix(1 0 0 1 260.955 369.9252)" class="st7 st8">7</text>
<text transform="matrix(1 0 0 1 267.6347 369.9252)" class="st7 st8">-</text>
<text transform="matrix(1 0 0 1 271.6249 369.9252)" class="st7 st8">1</text>
</svg>
