<?xml version="1.0" encoding="utf-8" standalone="no"?>
<!DOCTYPE svg PUBLIC "-//W3C//DTD SVG 1.1//EN"
  "http://www.w3.org/Graphics/SVG/1.1/DTD/svg11.dtd">
<svg xmlns:xlink="http://www.w3.org/1999/xlink" width="281.968479pt" height="253.649973pt" viewBox="0 0 281.968479 253.649973" xmlns="http://www.w3.org/2000/svg" version="1.1">
 <metadata>
  <rdf:RDF xmlns:dc="http://purl.org/dc/elements/1.1/" xmlns:cc="http://creativecommons.org/ns#" xmlns:rdf="http://www.w3.org/1999/02/22-rdf-syntax-ns#">
   <cc:Work>
    <dc:type rdf:resource="http://purl.org/dc/dcmitype/StillImage"/>
    <dc:date>2025-03-15T13:21:00.115294</dc:date>
    <dc:format>image/svg+xml</dc:format>
    <dc:creator>
     <cc:Agent>
      <dc:title>Matplotlib v3.9.2, https://matplotlib.org/</dc:title>
     </cc:Agent>
    </dc:creator>
   </cc:Work>
  </rdf:RDF>
 </metadata>
 <defs>
  <style type="text/css">*{stroke-linejoin: round; stroke-linecap: butt}</style>
 </defs>
 <g id="figure_1">
  <g id="patch_1">
   <path d="M 0 253.649973 
L 281.968479 253.649973 
L 281.968479 -0 
L 0 -0 
L 0 253.649973 
z
" style="fill: none"/>
  </g>
  <g id="axes_1">
   <g id="patch_2">
    <path d="M 117.411081 56.324771 
L 132.650009 53.784949 
L 130.110188 69.023877 
z
" clip-path="url(#p06b1c95ba0)" style="stroke: #000000; stroke-width: 2; stroke-linecap: round"/>
   </g>
   <g id="patch_3">
    <path d="M 206.304826 47.435396 
L 208.844647 62.674324 
L 193.60572 60.134503 
z
" clip-path="url(#p06b1c95ba0)" style="stroke: #000000; stroke-width: 2; stroke-linecap: round"/>
   </g>
   <g id="patch_4">
    <path d="M 193.60572 132.519409 
L 208.844647 129.979588 
L 206.304826 145.218515 
z
" clip-path="url(#p06b1c95ba0)" style="stroke: #000000; stroke-width: 2; stroke-linecap: round"/>
   </g>
   <g id="patch_5">
    <path d="M 130.110188 123.630035 
L 132.650009 138.868962 
L 117.411081 136.329141 
z
" clip-path="url(#p06b1c95ba0)" style="stroke: #000000; stroke-width: 2; stroke-linecap: round"/>
   </g>
   <g id="patch_6">
    <path d="M 22.628653 82.989687 
C 27.391501 82.989687 31.959917 81.097388 35.327759 77.729545 
C 38.695602 74.361703 40.587902 69.793287 40.587902 65.030439 
C 40.587902 60.26759 38.695602 55.699175 35.327759 52.331332 
C 31.959917 48.96349 27.391501 47.07119 22.628653 47.07119 
C 17.865805 47.07119 13.297389 48.96349 9.929547 52.331332 
C 6.561704 55.699175 4.669405 60.26759 4.669405 65.030439 
C 4.669405 69.793287 6.561704 74.361703 9.929547 77.729545 
C 13.297389 81.097388 17.865805 82.989687 22.628653 82.989687 
L 22.628653 82.989687 
z
" clip-path="url(#p06b1c95ba0)" style="fill: none; stroke: #000000; stroke-width: 2; stroke-linejoin: miter"/>
   </g>
   <g id="line2d_1">
    <path d="M 90.108003 96.326956 
L 123.760635 62.674324 
M 126.300456 47.435396 
L 138.999562 60.134503 
M 132.650009 53.784949 
L 166.302641 20.132318 
" clip-path="url(#p06b1c95ba0)" style="fill: none; stroke: #000000; stroke-width: 2; stroke-linecap: round"/>
   </g>
   <g id="line2d_2">
    <path d="M 166.302641 20.132318 
L 199.955273 53.784949 
M 215.194201 56.324771 
L 202.495094 69.023877 
M 208.844647 62.674324 
L 242.497279 96.326956 
" clip-path="url(#p06b1c95ba0)" style="fill: none; stroke: #000000; stroke-width: 2; stroke-linecap: round"/>
   </g>
   <g id="line2d_3">
    <path d="M 242.497279 96.326956 
L 208.844647 129.979588 
M 202.495094 123.630035 
L 215.194201 136.329141 
M 199.955273 138.868962 
L 166.302641 172.521594 
" clip-path="url(#p06b1c95ba0)" style="fill: none; stroke: #000000; stroke-width: 2; stroke-linecap: round"/>
   </g>
   <g id="line2d_4">
    <path d="M 166.302641 172.521594 
L 132.650009 138.868962 
M 138.999562 132.519409 
L 126.300456 145.218515 
M 123.760635 129.979588 
L 90.108003 96.326956 
" clip-path="url(#p06b1c95ba0)" style="fill: none; stroke: #000000; stroke-width: 2; stroke-linecap: round"/>
   </g>
   <g id="line2d_5">
    <path d="M 166.302641 20.132318 
L 94.465647 20.132318 
L 22.628653 20.132318 
" clip-path="url(#p06b1c95ba0)" style="fill: none; stroke: #000000; stroke-width: 2; stroke-linecap: round"/>
   </g>
   <g id="line2d_6">
    <path d="M 22.628653 20.132318 
L 22.628653 47.07119 
L 22.628653 47.07119 
M 22.628653 82.989687 
L 22.628653 82.989687 
L 22.628653 109.92856 
" clip-path="url(#p06b1c95ba0)" style="fill: none; stroke: #000000; stroke-width: 2; stroke-linecap: round"/>
   </g>
   <g id="line2d_7">
    <path d="M 13.649029 65.030439 
L 14.397331 66.889717 
L 15.145633 68.622288 
L 15.893935 70.110081 
L 16.642237 71.251705 
L 17.390539 71.96936 
L 18.138841 72.214138 
L 18.887143 71.96936 
L 19.635445 71.251705 
L 20.383747 70.110081 
L 21.132049 68.622288 
L 21.880351 66.889717 
L 22.628653 65.030439 
L 23.376955 63.171161 
L 24.125257 61.438589 
L 24.873559 59.950796 
L 25.621861 58.809173 
L 26.370163 58.091518 
L 27.118465 57.846739 
L 27.866767 58.091518 
L 28.615069 58.809173 
L 29.363371 59.950796 
L 30.111673 61.438589 
L 30.859975 63.171161 
L 31.608277 65.030439 
" clip-path="url(#p06b1c95ba0)" style="fill: none; stroke: #000000; stroke-width: 2; stroke-linecap: round"/>
   </g>
   <g id="line2d_8">
    <path d="M 166.302641 172.521594 
L 94.465647 172.521594 
L 22.628653 172.521594 
" clip-path="url(#p06b1c95ba0)" style="fill: none; stroke: #000000; stroke-width: 2; stroke-linecap: round"/>
   </g>
   <g id="line2d_9">
    <path d="M 22.628653 172.521594 
L 22.628653 141.225077 
L 22.628653 109.92856 
" clip-path="url(#p06b1c95ba0)" style="fill: none; stroke: #000000; stroke-width: 2; stroke-linecap: round"/>
   </g>
   <g id="line2d_10">
    <path d="M 242.497279 96.326956 
L 242.497279 168.16395 
L 242.497279 240.000944 
" clip-path="url(#p06b1c95ba0)" style="fill: none; stroke: #000000; stroke-width: 2; stroke-linecap: round"/>
   </g>
   <g id="line2d_11">
    <path d="M 242.497279 240.000944 
L 215.558407 240.000944 
L 212.565199 248.980568 
L 206.578782 231.02132 
L 200.592366 248.980568 
L 194.60595 231.02132 
L 188.619534 248.980568 
L 182.633118 231.02132 
L 179.63991 240.000944 
L 152.701037 240.000944 
" clip-path="url(#p06b1c95ba0)" style="fill: none; stroke: #000000; stroke-width: 2; stroke-linecap: round"/>
   </g>
   <g id="line2d_12">
    <path d="M 90.108003 96.326956 
L 90.108003 168.16395 
L 90.108003 240.000944 
" clip-path="url(#p06b1c95ba0)" style="fill: none; stroke: #000000; stroke-width: 2; stroke-linecap: round"/>
   </g>
   <g id="line2d_13">
    <path d="M 90.108003 240.000944 
L 121.40452 240.000944 
L 152.701037 240.000944 
" clip-path="url(#p06b1c95ba0)" style="fill: none; stroke: #000000; stroke-width: 2; stroke-linecap: round"/>
   </g>
   <g id="text_1">
    <!-- D1 -->
    <g transform="translate(99.628447 46.4287) scale(0.14 -0.14)">
     <defs>
      <path id="DejaVuSans-44" d="M 1259 4147 
L 1259 519 
L 2022 519 
Q 2988 519 3436 956 
Q 3884 1394 3884 2338 
Q 3884 3275 3436 3711 
Q 2988 4147 2022 4147 
L 1259 4147 
z
M 628 4666 
L 1925 4666 
Q 3281 4666 3915 4102 
Q 4550 3538 4550 2338 
Q 4550 1131 3912 565 
Q 3275 0 1925 0 
L 628 0 
L 628 4666 
z
" transform="scale(0.015625)"/>
      <path id="DejaVuSans-31" d="M 794 531 
L 1825 531 
L 1825 4091 
L 703 3866 
L 703 4441 
L 1819 4666 
L 2450 4666 
L 2450 531 
L 3481 531 
L 3481 0 
L 794 0 
L 794 531 
z
" transform="scale(0.015625)"/>
     </defs>
     <use xlink:href="#DejaVuSans-44"/>
     <use xlink:href="#DejaVuSans-31" x="77.001953"/>
    </g>
   </g>
   <g id="text_2">
    <!-- D2 -->
    <g transform="translate(213.289335 46.4287) scale(0.14 -0.14)">
     <defs>
      <path id="DejaVuSans-32" d="M 1228 531 
L 3431 531 
L 3431 0 
L 469 0 
L 469 531 
Q 828 903 1448 1529 
Q 2069 2156 2228 2338 
Q 2531 2678 2651 2914 
Q 2772 3150 2772 3378 
Q 2772 3750 2511 3984 
Q 2250 4219 1831 4219 
Q 1534 4219 1204 4116 
Q 875 4013 500 3803 
L 500 4441 
Q 881 4594 1212 4672 
Q 1544 4750 1819 4750 
Q 2544 4750 2975 4387 
Q 3406 4025 3406 3419 
Q 3406 3131 3298 2873 
Q 3191 2616 2906 2266 
Q 2828 2175 2409 1742 
Q 1991 1309 1228 531 
z
" transform="scale(0.015625)"/>
     </defs>
     <use xlink:href="#DejaVuSans-44"/>
     <use xlink:href="#DejaVuSans-32" x="77.001953"/>
    </g>
   </g>
   <g id="text_3">
    <!-- D3 -->
    <g transform="translate(213.289335 153.951462) scale(0.14 -0.14)">
     <defs>
      <path id="DejaVuSans-33" d="M 2597 2516 
Q 3050 2419 3304 2112 
Q 3559 1806 3559 1356 
Q 3559 666 3084 287 
Q 2609 -91 1734 -91 
Q 1441 -91 1130 -33 
Q 819 25 488 141 
L 488 750 
Q 750 597 1062 519 
Q 1375 441 1716 441 
Q 2309 441 2620 675 
Q 2931 909 2931 1356 
Q 2931 1769 2642 2001 
Q 2353 2234 1838 2234 
L 1294 2234 
L 1294 2753 
L 1863 2753 
Q 2328 2753 2575 2939 
Q 2822 3125 2822 3475 
Q 2822 3834 2567 4026 
Q 2313 4219 1838 4219 
Q 1578 4219 1281 4162 
Q 984 4106 628 3988 
L 628 4550 
Q 988 4650 1302 4700 
Q 1616 4750 1894 4750 
Q 2613 4750 3031 4423 
Q 3450 4097 3450 3541 
Q 3450 3153 3228 2886 
Q 3006 2619 2597 2516 
z
" transform="scale(0.015625)"/>
     </defs>
     <use xlink:href="#DejaVuSans-44"/>
     <use xlink:href="#DejaVuSans-33" x="77.001953"/>
    </g>
   </g>
   <g id="text_4">
    <!-- D4 -->
    <g transform="translate(99.628447 153.951462) scale(0.14 -0.14)">
     <defs>
      <path id="DejaVuSans-34" d="M 2419 4116 
L 825 1625 
L 2419 1625 
L 2419 4116 
z
M 2253 4666 
L 3047 4666 
L 3047 1625 
L 3713 1625 
L 3713 1100 
L 3047 1100 
L 3047 0 
L 2419 0 
L 2419 1100 
L 313 1100 
L 313 1709 
L 2253 4666 
z
" transform="scale(0.015625)"/>
     </defs>
     <use xlink:href="#DejaVuSans-44"/>
     <use xlink:href="#DejaVuSans-34" x="77.001953"/>
    </g>
   </g>
   <g id="text_5">
    <!-- DC- -->
    <g transform="translate(97.291702 100.190081) scale(0.14 -0.14)">
     <defs>
      <path id="DejaVuSans-43" d="M 4122 4306 
L 4122 3641 
Q 3803 3938 3442 4084 
Q 3081 4231 2675 4231 
Q 1875 4231 1450 3742 
Q 1025 3253 1025 2328 
Q 1025 1406 1450 917 
Q 1875 428 2675 428 
Q 3081 428 3442 575 
Q 3803 722 4122 1019 
L 4122 359 
Q 3791 134 3420 21 
Q 3050 -91 2638 -91 
Q 1578 -91 968 557 
Q 359 1206 359 2328 
Q 359 3453 968 4101 
Q 1578 4750 2638 4750 
Q 3056 4750 3426 4639 
Q 3797 4528 4122 4306 
z
" transform="scale(0.015625)"/>
      <path id="DejaVuSans-2d" d="M 313 2009 
L 1997 2009 
L 1997 1497 
L 313 1497 
L 313 2009 
z
" transform="scale(0.015625)"/>
     </defs>
     <use xlink:href="#DejaVuSans-44"/>
     <use xlink:href="#DejaVuSans-43" x="77.001953"/>
     <use xlink:href="#DejaVuSans-2d" x="146.826172"/>
    </g>
   </g>
   <g id="text_6">
    <!-- DC+ -->
    <g transform="translate(249.680979 100.190081) scale(0.14 -0.14)">
     <defs>
      <path id="DejaVuSans-2b" d="M 2944 4013 
L 2944 2272 
L 4684 2272 
L 4684 1741 
L 2944 1741 
L 2944 0 
L 2419 0 
L 2419 1741 
L 678 1741 
L 678 2272 
L 2419 2272 
L 2419 4013 
L 2944 4013 
z
" transform="scale(0.015625)"/>
     </defs>
     <use xlink:href="#DejaVuSans-44"/>
     <use xlink:href="#DejaVuSans-43" x="77.001953"/>
     <use xlink:href="#DejaVuSans-2b" x="146.826172"/>
    </g>
   </g>
   <g id="text_7">
    <!-- AC Input -->
    <g transform="translate(44.179751 68.893564) scale(0.14 -0.14)">
     <defs>
      <path id="DejaVuSans-41" d="M 2188 4044 
L 1331 1722 
L 3047 1722 
L 2188 4044 
z
M 1831 4666 
L 2547 4666 
L 4325 0 
L 3669 0 
L 3244 1197 
L 1141 1197 
L 716 0 
L 50 0 
L 1831 4666 
z
" transform="scale(0.015625)"/>
      <path id="DejaVuSans-20" transform="scale(0.015625)"/>
      <path id="DejaVuSans-49" d="M 628 4666 
L 1259 4666 
L 1259 0 
L 628 0 
L 628 4666 
z
" transform="scale(0.015625)"/>
      <path id="DejaVuSans-6e" d="M 3513 2113 
L 3513 0 
L 2938 0 
L 2938 2094 
Q 2938 2591 2744 2837 
Q 2550 3084 2163 3084 
Q 1697 3084 1428 2787 
Q 1159 2491 1159 1978 
L 1159 0 
L 581 0 
L 581 3500 
L 1159 3500 
L 1159 2956 
Q 1366 3272 1645 3428 
Q 1925 3584 2291 3584 
Q 2894 3584 3203 3211 
Q 3513 2838 3513 2113 
z
" transform="scale(0.015625)"/>
      <path id="DejaVuSans-70" d="M 1159 525 
L 1159 -1331 
L 581 -1331 
L 581 3500 
L 1159 3500 
L 1159 2969 
Q 1341 3281 1617 3432 
Q 1894 3584 2278 3584 
Q 2916 3584 3314 3078 
Q 3713 2572 3713 1747 
Q 3713 922 3314 415 
Q 2916 -91 2278 -91 
Q 1894 -91 1617 61 
Q 1341 213 1159 525 
z
M 3116 1747 
Q 3116 2381 2855 2742 
Q 2594 3103 2138 3103 
Q 1681 3103 1420 2742 
Q 1159 2381 1159 1747 
Q 1159 1113 1420 752 
Q 1681 391 2138 391 
Q 2594 391 2855 752 
Q 3116 1113 3116 1747 
z
" transform="scale(0.015625)"/>
      <path id="DejaVuSans-75" d="M 544 1381 
L 544 3500 
L 1119 3500 
L 1119 1403 
Q 1119 906 1312 657 
Q 1506 409 1894 409 
Q 2359 409 2629 706 
Q 2900 1003 2900 1516 
L 2900 3500 
L 3475 3500 
L 3475 0 
L 2900 0 
L 2900 538 
Q 2691 219 2414 64 
Q 2138 -91 1772 -91 
Q 1169 -91 856 284 
Q 544 659 544 1381 
z
M 1991 3584 
L 1991 3584 
z
" transform="scale(0.015625)"/>
      <path id="DejaVuSans-74" d="M 1172 4494 
L 1172 3500 
L 2356 3500 
L 2356 3053 
L 1172 3053 
L 1172 1153 
Q 1172 725 1289 603 
Q 1406 481 1766 481 
L 2356 481 
L 2356 0 
L 1766 0 
Q 1100 0 847 248 
Q 594 497 594 1153 
L 594 3053 
L 172 3053 
L 172 3500 
L 594 3500 
L 594 4494 
L 1172 4494 
z
" transform="scale(0.015625)"/>
     </defs>
     <use xlink:href="#DejaVuSans-41"/>
     <use xlink:href="#DejaVuSans-43" x="66.658203"/>
     <use xlink:href="#DejaVuSans-20" x="136.482422"/>
     <use xlink:href="#DejaVuSans-49" x="168.269531"/>
     <use xlink:href="#DejaVuSans-6e" x="197.761719"/>
     <use xlink:href="#DejaVuSans-70" x="261.140625"/>
     <use xlink:href="#DejaVuSans-75" x="324.617188"/>
     <use xlink:href="#DejaVuSans-74" x="387.996094"/>
    </g>
   </g>
   <g id="text_8">
    <!-- Load -->
    <g transform="translate(180.804627 224.517907) scale(0.14 -0.14)">
     <defs>
      <path id="DejaVuSans-4c" d="M 628 4666 
L 1259 4666 
L 1259 531 
L 3531 531 
L 3531 0 
L 628 0 
L 628 4666 
z
" transform="scale(0.015625)"/>
      <path id="DejaVuSans-6f" d="M 1959 3097 
Q 1497 3097 1228 2736 
Q 959 2375 959 1747 
Q 959 1119 1226 758 
Q 1494 397 1959 397 
Q 2419 397 2687 759 
Q 2956 1122 2956 1747 
Q 2956 2369 2687 2733 
Q 2419 3097 1959 3097 
z
M 1959 3584 
Q 2709 3584 3137 3096 
Q 3566 2609 3566 1747 
Q 3566 888 3137 398 
Q 2709 -91 1959 -91 
Q 1206 -91 779 398 
Q 353 888 353 1747 
Q 353 2609 779 3096 
Q 1206 3584 1959 3584 
z
" transform="scale(0.015625)"/>
      <path id="DejaVuSans-61" d="M 2194 1759 
Q 1497 1759 1228 1600 
Q 959 1441 959 1056 
Q 959 750 1161 570 
Q 1363 391 1709 391 
Q 2188 391 2477 730 
Q 2766 1069 2766 1631 
L 2766 1759 
L 2194 1759 
z
M 3341 1997 
L 3341 0 
L 2766 0 
L 2766 531 
Q 2569 213 2275 61 
Q 1981 -91 1556 -91 
Q 1019 -91 701 211 
Q 384 513 384 1019 
Q 384 1609 779 1909 
Q 1175 2209 1959 2209 
L 2766 2209 
L 2766 2266 
Q 2766 2663 2505 2880 
Q 2244 3097 1772 3097 
Q 1472 3097 1187 3025 
Q 903 2953 641 2809 
L 641 3341 
Q 956 3463 1253 3523 
Q 1550 3584 1831 3584 
Q 2591 3584 2966 3190 
Q 3341 2797 3341 1997 
z
" transform="scale(0.015625)"/>
      <path id="DejaVuSans-64" d="M 2906 2969 
L 2906 4863 
L 3481 4863 
L 3481 0 
L 2906 0 
L 2906 525 
Q 2725 213 2448 61 
Q 2172 -91 1784 -91 
Q 1150 -91 751 415 
Q 353 922 353 1747 
Q 353 2572 751 3078 
Q 1150 3584 1784 3584 
Q 2172 3584 2448 3432 
Q 2725 3281 2906 2969 
z
M 947 1747 
Q 947 1113 1208 752 
Q 1469 391 1925 391 
Q 2381 391 2643 752 
Q 2906 1113 2906 1747 
Q 2906 2381 2643 2742 
Q 2381 3103 1925 3103 
Q 1469 3103 1208 2742 
Q 947 2381 947 1747 
z
" transform="scale(0.015625)"/>
     </defs>
     <use xlink:href="#DejaVuSans-4c"/>
     <use xlink:href="#DejaVuSans-6f" x="53.962891"/>
     <use xlink:href="#DejaVuSans-61" x="115.144531"/>
     <use xlink:href="#DejaVuSans-64" x="176.423828"/>
    </g>
   </g>
   <g id="patch_7">
    <path d="M 166.302641 22.826205 
C 167.017068 22.826205 167.702331 22.54236 168.207507 22.037184 
C 168.712683 21.532007 168.996528 20.846745 168.996528 20.132318 
C 168.996528 19.41789 168.712683 18.732628 168.207507 18.227452 
C 167.702331 17.722275 167.017068 17.43843 166.302641 17.43843 
C 165.588214 17.43843 164.902951 17.722275 164.397775 18.227452 
C 163.892599 18.732628 163.608754 19.41789 163.608754 20.132318 
C 163.608754 20.846745 163.892599 21.532007 164.397775 22.037184 
C 164.902951 22.54236 165.588214 22.826205 166.302641 22.826205 
z
" clip-path="url(#p06b1c95ba0)" style="stroke: #000000; stroke-width: 2; stroke-linejoin: miter"/>
   </g>
   <g id="text_9">
    <!-- N -->
    <g transform="translate(161.065766 10.935018) scale(0.14 -0.14)">
     <defs>
      <path id="DejaVuSans-4e" d="M 628 4666 
L 1478 4666 
L 3547 763 
L 3547 4666 
L 4159 4666 
L 4159 0 
L 3309 0 
L 1241 3903 
L 1241 0 
L 628 0 
L 628 4666 
z
" transform="scale(0.015625)"/>
     </defs>
     <use xlink:href="#DejaVuSans-4e"/>
    </g>
   </g>
   <g id="patch_8">
    <path d="M 166.302641 175.215482 
C 167.017068 175.215482 167.702331 174.931637 168.207507 174.42646 
C 168.712683 173.921284 168.996528 173.236021 168.996528 172.521594 
C 168.996528 171.807167 168.712683 171.121905 168.207507 170.616728 
C 167.702331 170.111552 167.017068 169.827707 166.302641 169.827707 
C 165.588214 169.827707 164.902951 170.111552 164.397775 170.616728 
C 163.892599 171.121905 163.608754 171.807167 163.608754 172.521594 
C 163.608754 173.236021 163.892599 173.921284 164.397775 174.42646 
C 164.902951 174.931637 165.588214 175.215482 166.302641 175.215482 
z
" clip-path="url(#p06b1c95ba0)" style="stroke: #000000; stroke-width: 2; stroke-linejoin: miter"/>
   </g>
   <g id="text_10">
    <!-- S -->
    <g transform="translate(161.858735 189.445144) scale(0.14 -0.14)">
     <defs>
      <path id="DejaVuSans-53" d="M 3425 4513 
L 3425 3897 
Q 3066 4069 2747 4153 
Q 2428 4238 2131 4238 
Q 1616 4238 1336 4038 
Q 1056 3838 1056 3469 
Q 1056 3159 1242 3001 
Q 1428 2844 1947 2747 
L 2328 2669 
Q 3034 2534 3370 2195 
Q 3706 1856 3706 1288 
Q 3706 609 3251 259 
Q 2797 -91 1919 -91 
Q 1588 -91 1214 -16 
Q 841 59 441 206 
L 441 856 
Q 825 641 1194 531 
Q 1563 422 1919 422 
Q 2459 422 2753 634 
Q 3047 847 3047 1241 
Q 3047 1584 2836 1778 
Q 2625 1972 2144 2069 
L 1759 2144 
Q 1053 2284 737 2584 
Q 422 2884 422 3419 
Q 422 4038 858 4394 
Q 1294 4750 2059 4750 
Q 2388 4750 2728 4690 
Q 3069 4631 3425 4513 
z
" transform="scale(0.015625)"/>
     </defs>
     <use xlink:href="#DejaVuSans-53"/>
    </g>
   </g>
   <g id="patch_9">
    <path d="M 242.497279 99.020843 
C 243.211707 99.020843 243.896969 98.736998 244.402145 98.231822 
C 244.907322 97.726645 245.191167 97.041383 245.191167 96.326956 
C 245.191167 95.612529 244.907322 94.927266 244.402145 94.42209 
C 243.896969 93.916914 243.211707 93.633069 242.497279 93.633069 
C 241.782852 93.633069 241.09759 93.916914 240.592413 94.42209 
C 240.087237 94.927266 239.803392 95.612529 239.803392 96.326956 
C 239.803392 97.041383 240.087237 97.726645 240.592413 98.231822 
C 241.09759 98.736998 241.782852 99.020843 242.497279 99.020843 
z
" clip-path="url(#p06b1c95ba0)" style="stroke: #000000; stroke-width: 2; stroke-linejoin: miter"/>
   </g>
   <g id="patch_10">
    <path d="M 90.108003 99.020843 
C 90.82243 99.020843 91.507692 98.736998 92.012869 98.231822 
C 92.518045 97.726645 92.80189 97.041383 92.80189 96.326956 
C 92.80189 95.612529 92.518045 94.927266 92.012869 94.42209 
C 91.507692 93.916914 90.82243 93.633069 90.108003 93.633069 
C 89.393575 93.633069 88.708313 93.916914 88.203137 94.42209 
C 87.69796 94.927266 87.414115 95.612529 87.414115 96.326956 
C 87.414115 97.041383 87.69796 97.726645 88.203137 98.231822 
C 88.708313 98.736998 89.393575 99.020843 90.108003 99.020843 
z
" clip-path="url(#p06b1c95ba0)" style="stroke: #000000; stroke-width: 2; stroke-linejoin: miter"/>
   </g>
  </g>
 </g>
 <defs>
  <clipPath id="p06b1c95ba0">
   <rect x="0" y="0" width="280.08" height="253.649973"/>
  </clipPath>
 </defs>
</svg>
