<?xml version="1.0" encoding="utf-8" standalone="no"?>
<!DOCTYPE svg PUBLIC "-//W3C//DTD SVG 1.1//EN"
  "http://www.w3.org/Graphics/SVG/1.1/DTD/svg11.dtd">
<svg xmlns:xlink="http://www.w3.org/1999/xlink" width="224.550574pt" height="154.8pt" viewBox="0 0 224.550574 154.8" xmlns="http://www.w3.org/2000/svg" version="1.1" style="background-color: white; padding: 5px;">
 <metadata>
  <rdf:RDF xmlns:dc="http://purl.org/dc/elements/1.1/" xmlns:cc="http://creativecommons.org/ns#" xmlns:rdf="http://www.w3.org/1999/02/22-rdf-syntax-ns#">
   <cc:Work>
    <dc:type rdf:resource="http://purl.org/dc/dcmitype/StillImage"/>
    <dc:date>2025-03-14T19:32:07.415424</dc:date>
    <dc:format>image/svg+xml</dc:format>
    <dc:creator>
     <cc:Agent>
      <dc:title>Matplotlib v3.9.2, https://matplotlib.org/</dc:title>
     </cc:Agent>
    </dc:creator>
   </cc:Work>
  </rdf:RDF>
 </metadata>
 <defs>
  <style type="text/css">*{stroke-linejoin: round; stroke-linecap: butt}</style>
 </defs>
 <g id="figure_1">
  <g id="patch_1">
   <path d="M 0 154.8 
L 224.550574 154.8 
L 224.550574 0 
L 0 0 
L 0 154.8 
z
" style="fill: none"/>
  </g>
  <g id="axes_1">
   <g id="patch_2">
    <path d="M 94.339937 69.427737 
C 96.241908 69.427737 98.067924 68.671377 99.41282 67.32648 
C 100.757716 65.981584 101.514077 64.155568 101.514077 62.253597 
C 101.514077 60.351627 100.757716 58.525611 99.41282 57.180715 
C 98.067924 55.835818 96.241908 55.079458 94.339937 55.079458 
" clip-path="url(#pc08bad5db8)" style="fill: none; stroke: #000000; stroke-width: 2; stroke-linejoin: miter"/>
   </g>
   <g id="patch_3">
    <path d="M 94.339937 83.776017 
C 96.241908 83.776017 98.067924 83.019656 99.41282 81.67476 
C 100.757716 80.329864 101.514077 78.503847 101.514077 76.601877 
C 101.514077 74.699907 100.757716 72.87389 99.41282 71.528994 
C 98.067924 70.184098 96.241908 69.427737 94.339937 69.427737 
" clip-path="url(#pc08bad5db8)" style="fill: none; stroke: #000000; stroke-width: 2; stroke-linejoin: miter"/>
   </g>
   <g id="patch_4">
    <path d="M 94.339937 98.124296 
C 96.241908 98.124296 98.067924 97.367935 99.41282 96.023039 
C 100.757716 94.678143 101.514077 92.852127 101.514077 90.950156 
C 101.514077 89.048186 100.757716 87.22217 99.41282 85.877274 
C 98.067924 84.532377 96.241908 83.776017 94.339937 83.776017 
" clip-path="url(#pc08bad5db8)" style="fill: none; stroke: #000000; stroke-width: 2; stroke-linejoin: miter"/>
   </g>
   <g id="patch_5">
    <path d="M 94.339937 112.472576 
C 96.241908 112.472576 98.067924 111.716215 99.41282 110.371319 
C 100.757716 109.026423 101.514077 107.200406 101.514077 105.298436 
C 101.514077 103.396465 100.757716 101.570449 99.41282 100.225553 
C 98.067924 98.880657 96.241908 98.124296 94.339937 98.124296 
" clip-path="url(#pc08bad5db8)" style="fill: none; stroke: #000000; stroke-width: 2; stroke-linejoin: miter"/>
   </g>
   <g id="patch_6">
    <path d="M 130.210636 26.382899 
C 128.308666 26.382899 126.482649 27.13926 125.137753 28.484156 
C 123.792857 29.829052 123.036496 31.655068 123.036496 33.557039 
C 123.036496 35.459009 123.792857 37.285025 125.137753 38.629921 
C 126.482649 39.974818 128.308666 40.731178 130.210636 40.731178 
" clip-path="url(#pc08bad5db8)" style="fill: none; stroke: #000000; stroke-width: 2; stroke-linejoin: miter"/>
   </g>
   <g id="patch_7">
    <path d="M 130.210636 40.731178 
C 128.308666 40.731178 126.482649 41.487539 125.137753 42.832435 
C 123.792857 44.177331 123.036496 46.003348 123.036496 47.905318 
C 123.036496 49.807288 123.792857 51.633305 125.137753 52.978201 
C 126.482649 54.323097 128.308666 55.079458 130.210636 55.079458 
" clip-path="url(#pc08bad5db8)" style="fill: none; stroke: #000000; stroke-width: 2; stroke-linejoin: miter"/>
   </g>
   <g id="patch_8">
    <path d="M 130.210636 55.079458 
C 128.308666 55.079458 126.482649 55.835818 125.137753 57.180715 
C 123.792857 58.525611 123.036496 60.351627 123.036496 62.253597 
C 123.036496 64.155568 123.792857 65.981584 125.137753 67.32648 
C 126.482649 68.671377 128.308666 69.427737 130.210636 69.427737 
" clip-path="url(#pc08bad5db8)" style="fill: none; stroke: #000000; stroke-width: 2; stroke-linejoin: miter"/>
   </g>
   <g id="patch_9">
    <path d="M 130.210636 69.427737 
C 128.308666 69.427737 126.482649 70.184098 125.137753 71.528994 
C 123.792857 72.87389 123.036496 74.699907 123.036496 76.601877 
C 123.036496 78.503847 123.792857 80.329864 125.137753 81.67476 
C 126.482649 83.019656 128.308666 83.776017 130.210636 83.776017 
" clip-path="url(#pc08bad5db8)" style="fill: none; stroke: #000000; stroke-width: 2; stroke-linejoin: miter"/>
   </g>
   <g id="patch_10">
    <path d="M 130.210636 83.776017 
C 128.308666 83.776017 126.482649 84.532377 125.137753 85.877274 
C 123.792857 87.22217 123.036496 89.048186 123.036496 90.950156 
C 123.036496 92.852127 123.792857 94.678143 125.137753 96.023039 
C 126.482649 97.367935 128.308666 98.124296 130.210636 98.124296 
" clip-path="url(#pc08bad5db8)" style="fill: none; stroke: #000000; stroke-width: 2; stroke-linejoin: miter"/>
   </g>
   <g id="patch_11">
    <path d="M 130.210636 98.124296 
C 128.308666 98.124296 126.482649 98.880657 125.137753 100.225553 
C 123.792857 101.570449 123.036496 103.396465 123.036496 105.298436 
C 123.036496 107.200406 123.792857 109.026423 125.137753 110.371319 
C 126.482649 111.716215 128.308666 112.472576 130.210636 112.472576 
" clip-path="url(#pc08bad5db8)" style="fill: none; stroke: #000000; stroke-width: 2; stroke-linejoin: miter"/>
   </g>
   <g id="patch_12">
    <path d="M 130.210636 112.472576 
C 128.308666 112.472576 126.482649 113.228936 125.137753 114.573832 
C 123.792857 115.918729 123.036496 117.744745 123.036496 119.646715 
C 123.036496 121.548686 123.792857 123.374702 125.137753 124.719598 
C 126.482649 126.064494 128.308666 126.820855 130.210636 126.820855 
" clip-path="url(#pc08bad5db8)" style="fill: none; stroke: #000000; stroke-width: 2; stroke-linejoin: miter"/>
   </g>
   <g id="patch_13">
    <path d="M 130.210636 126.820855 
C 128.308666 126.820855 126.482649 127.577216 125.137753 128.922112 
C 123.792857 130.267008 123.036496 132.093024 123.036496 133.994995 
C 123.036496 135.896965 123.792857 137.722981 125.137753 139.067878 
C 126.482649 140.412774 128.308666 141.169135 130.210636 141.169135 
" clip-path="url(#pc08bad5db8)" style="fill: none; stroke: #000000; stroke-width: 2; stroke-linejoin: miter"/>
   </g>
   <g id="patch_14">
    <path d="M 49.501564 73.014807 
C 54.258074 73.014807 58.820411 71.125026 62.183771 67.761665 
C 65.547132 64.398304 67.436913 59.835968 67.436913 55.079458 
C 67.436913 50.322948 65.547132 45.760611 62.183771 42.397251 
C 58.820411 39.03389 54.258074 37.144108 49.501564 37.144108 
C 44.745054 37.144108 40.182718 39.03389 36.819357 42.397251 
C 33.455996 45.760611 31.566215 50.322948 31.566215 55.079458 
C 31.566215 59.835968 33.455996 64.398304 36.819357 67.761665 
C 40.182718 71.125026 44.745054 73.014807 49.501564 73.014807 
L 49.501564 73.014807 
z
" clip-path="url(#pc08bad5db8)" style="fill: none; stroke: #000000; stroke-width: 2; stroke-linejoin: miter"/>
   </g>
   <g id="patch_15">
    <path d="M 168.771637 17.415224 
L 181.326382 26.382899 
L 168.771637 35.350574 
L 168.771637 17.415224 
z
" clip-path="url(#pc08bad5db8)" style="fill: none; stroke: #000000; stroke-width: 2; stroke-linecap: round"/>
   </g>
   <g id="patch_16">
    <path d="M 168.771637 132.20146 
L 181.326382 141.169135 
L 168.771637 150.136809 
L 168.771637 132.20146 
z
" clip-path="url(#pc08bad5db8)" style="fill: none; stroke: #000000; stroke-width: 2; stroke-linecap: round"/>
   </g>
   <g id="line2d_1">
    <path d="M 108.688217 26.382899 
L 108.688217 141.169135 
" clip-path="url(#pc08bad5db8)" style="fill: none; stroke: #000000; stroke-width: 2; stroke-linecap: round"/>
   </g>
   <g id="line2d_2">
    <path d="M 115.862357 26.382899 
L 115.862357 141.169135 
" clip-path="url(#pc08bad5db8)" style="fill: none; stroke: #000000; stroke-width: 2; stroke-linecap: round"/>
   </g>
   <g id="line2d_3">
    <path d="M 94.339937 55.079458 
L 67.436913 55.079458 
L 67.436913 55.079458 
M 31.566215 55.079458 
L 31.566215 55.079458 
L 4.663191 55.079458 
" clip-path="url(#pc08bad5db8)" style="fill: none; stroke: #000000; stroke-width: 2; stroke-linecap: round"/>
   </g>
   <g id="line2d_4">
    <path d="M 49.501564 46.111783 
L 47.64476 46.859089 
L 45.914494 47.606396 
L 44.428681 48.353702 
L 43.288577 49.101008 
L 42.571877 49.848314 
L 42.327424 50.59562 
L 42.571877 51.342927 
L 43.288577 52.090233 
L 44.428681 52.837539 
L 45.914494 53.584845 
L 47.64476 54.332152 
L 49.501564 55.079458 
L 51.358368 55.826764 
L 53.088634 56.57407 
L 54.574447 57.321376 
L 55.714551 58.068683 
L 56.431251 58.815989 
L 56.675704 59.563295 
L 56.431251 60.310601 
L 55.714551 61.057908 
L 54.574447 61.805214 
L 53.088634 62.55252 
L 51.358368 63.299826 
L 49.501564 64.047132 
" clip-path="url(#pc08bad5db8)" style="fill: none; stroke: #000000; stroke-width: 2; stroke-linecap: round"/>
   </g>
   <g id="line2d_5">
    <path d="M 94.339937 112.472576 
L 49.501564 112.472576 
L 4.663191 112.472576 
" clip-path="url(#pc08bad5db8)" style="fill: none; stroke: #000000; stroke-width: 2; stroke-linecap: round"/>
   </g>
   <g id="line2d_6">
    <path d="M 130.210636 26.382899 
L 168.771637 26.382899 
M 181.326382 17.415224 
L 181.326382 35.350574 
M 181.326382 26.382899 
L 219.887383 26.382899 
" clip-path="url(#pc08bad5db8)" style="fill: none; stroke: #000000; stroke-width: 2; stroke-linecap: round"/>
   </g>
   <g id="line2d_7">
    <path d="M 219.887383 26.382899 
L 219.887383 55.079458 
L 219.887383 83.776017 
" clip-path="url(#pc08bad5db8)" style="fill: none; stroke: #000000; stroke-width: 2; stroke-linecap: round"/>
   </g>
   <g id="line2d_8">
    <path d="M 130.210636 141.169135 
L 168.771637 141.169135 
M 181.326382 132.20146 
L 181.326382 150.136809 
M 181.326382 141.169135 
L 219.887383 141.169135 
" clip-path="url(#pc08bad5db8)" style="fill: none; stroke: #000000; stroke-width: 2; stroke-linecap: round"/>
   </g>
   <g id="line2d_9">
    <path d="M 219.887383 141.169135 
L 219.887383 112.472576 
L 219.887383 83.776017 
" clip-path="url(#pc08bad5db8)" style="fill: none; stroke: #000000; stroke-width: 2; stroke-linecap: round"/>
   </g>
   <g id="line2d_10">
    <path d="M 130.210636 83.776017 
L 157.11366 83.776017 
L 160.102885 74.808342 
L 166.081335 92.743691 
L 172.059784 74.808342 
L 178.038234 92.743691 
L 184.016684 74.808342 
L 189.995134 92.743691 
L 192.984359 83.776017 
L 219.887383 83.776017 
" clip-path="url(#pc08bad5db8)" style="fill: none; stroke: #000000; stroke-width: 2; stroke-linecap: round"/>
   </g>
   <g id="text_1">
    <!-- AC Input -->
    <g transform="translate(19.597345 87.239689) scale(0.14 -0.14)">
     <defs>
      <path id="DejaVuSans-41" d="M 2188 4044 
L 1331 1722 
L 3047 1722 
L 2188 4044 
z
M 1831 4666 
L 2547 4666 
L 4325 0 
L 3669 0 
L 3244 1197 
L 1141 1197 
L 716 0 
L 50 0 
L 1831 4666 
z
" transform="scale(0.015625)"/>
      <path id="DejaVuSans-43" d="M 4122 4306 
L 4122 3641 
Q 3803 3938 3442 4084 
Q 3081 4231 2675 4231 
Q 1875 4231 1450 3742 
Q 1025 3253 1025 2328 
Q 1025 1406 1450 917 
Q 1875 428 2675 428 
Q 3081 428 3442 575 
Q 3803 722 4122 1019 
L 4122 359 
Q 3791 134 3420 21 
Q 3050 -91 2638 -91 
Q 1578 -91 968 557 
Q 359 1206 359 2328 
Q 359 3453 968 4101 
Q 1578 4750 2638 4750 
Q 3056 4750 3426 4639 
Q 3797 4528 4122 4306 
z
" transform="scale(0.015625)"/>
      <path id="DejaVuSans-20" transform="scale(0.015625)"/>
      <path id="DejaVuSans-49" d="M 628 4666 
L 1259 4666 
L 1259 0 
L 628 0 
L 628 4666 
z
" transform="scale(0.015625)"/>
      <path id="DejaVuSans-6e" d="M 3513 2113 
L 3513 0 
L 2938 0 
L 2938 2094 
Q 2938 2591 2744 2837 
Q 2550 3084 2163 3084 
Q 1697 3084 1428 2787 
Q 1159 2491 1159 1978 
L 1159 0 
L 581 0 
L 581 3500 
L 1159 3500 
L 1159 2956 
Q 1366 3272 1645 3428 
Q 1925 3584 2291 3584 
Q 2894 3584 3203 3211 
Q 3513 2838 3513 2113 
z
" transform="scale(0.015625)"/>
      <path id="DejaVuSans-70" d="M 1159 525 
L 1159 -1331 
L 581 -1331 
L 581 3500 
L 1159 3500 
L 1159 2969 
Q 1341 3281 1617 3432 
Q 1894 3584 2278 3584 
Q 2916 3584 3314 3078 
Q 3713 2572 3713 1747 
Q 3713 922 3314 415 
Q 2916 -91 2278 -91 
Q 1894 -91 1617 61 
Q 1341 213 1159 525 
z
M 3116 1747 
Q 3116 2381 2855 2742 
Q 2594 3103 2138 3103 
Q 1681 3103 1420 2742 
Q 1159 2381 1159 1747 
Q 1159 1113 1420 752 
Q 1681 391 2138 391 
Q 2594 391 2855 752 
Q 3116 1113 3116 1747 
z
" transform="scale(0.015625)"/>
      <path id="DejaVuSans-75" d="M 544 1381 
L 544 3500 
L 1119 3500 
L 1119 1403 
Q 1119 906 1312 657 
Q 1506 409 1894 409 
Q 2359 409 2629 706 
Q 2900 1003 2900 1516 
L 2900 3500 
L 3475 3500 
L 3475 0 
L 2900 0 
L 2900 538 
Q 2691 219 2414 64 
Q 2138 -91 1772 -91 
Q 1169 -91 856 284 
Q 544 659 544 1381 
z
M 1991 3584 
L 1991 3584 
z
" transform="scale(0.015625)"/>
      <path id="DejaVuSans-74" d="M 1172 4494 
L 1172 3500 
L 2356 3500 
L 2356 3053 
L 1172 3053 
L 1172 1153 
Q 1172 725 1289 603 
Q 1406 481 1766 481 
L 2356 481 
L 2356 0 
L 1766 0 
Q 1100 0 847 248 
Q 594 497 594 1153 
L 594 3053 
L 172 3053 
L 172 3500 
L 594 3500 
L 594 4494 
L 1172 4494 
z
" transform="scale(0.015625)"/>
     </defs>
     <use xlink:href="#DejaVuSans-41"/>
     <use xlink:href="#DejaVuSans-43" x="66.658203"/>
     <use xlink:href="#DejaVuSans-20" x="136.482422"/>
     <use xlink:href="#DejaVuSans-49" x="168.269531"/>
     <use xlink:href="#DejaVuSans-6e" x="197.761719"/>
     <use xlink:href="#DejaVuSans-70" x="261.140625"/>
     <use xlink:href="#DejaVuSans-75" x="324.617188"/>
     <use xlink:href="#DejaVuSans-74" x="387.996094"/>
    </g>
   </g>
   <g id="text_2">
    <!-- D1 -->
    <g transform="translate(165.205259 10.916592) scale(0.14 -0.14)">
     <defs>
      <path id="DejaVuSans-44" d="M 1259 4147 
L 1259 519 
L 2022 519 
Q 2988 519 3436 956 
Q 3884 1394 3884 2338 
Q 3884 3275 3436 3711 
Q 2988 4147 2022 4147 
L 1259 4147 
z
M 628 4666 
L 1925 4666 
Q 3281 4666 3915 4102 
Q 4550 3538 4550 2338 
Q 4550 1131 3912 565 
Q 3275 0 1925 0 
L 628 0 
L 628 4666 
z
" transform="scale(0.015625)"/>
      <path id="DejaVuSans-31" d="M 794 531 
L 1825 531 
L 1825 4091 
L 703 3866 
L 703 4441 
L 1819 4666 
L 2450 4666 
L 2450 531 
L 3481 531 
L 3481 0 
L 794 0 
L 794 531 
z
" transform="scale(0.015625)"/>
     </defs>
     <use xlink:href="#DejaVuSans-44"/>
     <use xlink:href="#DejaVuSans-31" x="77.001953"/>
    </g>
   </g>
   <g id="text_3">
    <!-- D2 -->
    <g transform="translate(165.205259 125.702827) scale(0.14 -0.14)">
     <defs>
      <path id="DejaVuSans-32" d="M 1228 531 
L 3431 531 
L 3431 0 
L 469 0 
L 469 531 
Q 828 903 1448 1529 
Q 2069 2156 2228 2338 
Q 2531 2678 2651 2914 
Q 2772 3150 2772 3378 
Q 2772 3750 2511 3984 
Q 2250 4219 1831 4219 
Q 1534 4219 1204 4116 
Q 875 4013 500 3803 
L 500 4441 
Q 881 4594 1212 4672 
Q 1544 4750 1819 4750 
Q 2544 4750 2975 4387 
Q 3406 4025 3406 3419 
Q 3406 3131 3298 2873 
Q 3191 2616 2906 2266 
Q 2828 2175 2409 1742 
Q 1991 1309 1228 531 
z
" transform="scale(0.015625)"/>
     </defs>
     <use xlink:href="#DejaVuSans-44"/>
     <use xlink:href="#DejaVuSans-32" x="77.001953"/>
    </g>
   </g>
   <g id="text_4">
    <!-- Load -->
    <g transform="translate(158.254478 106.968574) scale(0.14 -0.14)">
     <defs>
      <path id="DejaVuSans-4c" d="M 628 4666 
L 1259 4666 
L 1259 531 
L 3531 531 
L 3531 0 
L 628 0 
L 628 4666 
z
" transform="scale(0.015625)"/>
      <path id="DejaVuSans-6f" d="M 1959 3097 
Q 1497 3097 1228 2736 
Q 959 2375 959 1747 
Q 959 1119 1226 758 
Q 1494 397 1959 397 
Q 2419 397 2687 759 
Q 2956 1122 2956 1747 
Q 2956 2369 2687 2733 
Q 2419 3097 1959 3097 
z
M 1959 3584 
Q 2709 3584 3137 3096 
Q 3566 2609 3566 1747 
Q 3566 888 3137 398 
Q 2709 -91 1959 -91 
Q 1206 -91 779 398 
Q 353 888 353 1747 
Q 353 2609 779 3096 
Q 1206 3584 1959 3584 
z
" transform="scale(0.015625)"/>
      <path id="DejaVuSans-61" d="M 2194 1759 
Q 1497 1759 1228 1600 
Q 959 1441 959 1056 
Q 959 750 1161 570 
Q 1363 391 1709 391 
Q 2188 391 2477 730 
Q 2766 1069 2766 1631 
L 2766 1759 
L 2194 1759 
z
M 3341 1997 
L 3341 0 
L 2766 0 
L 2766 531 
Q 2569 213 2275 61 
Q 1981 -91 1556 -91 
Q 1019 -91 701 211 
Q 384 513 384 1019 
Q 384 1609 779 1909 
Q 1175 2209 1959 2209 
L 2766 2209 
L 2766 2266 
Q 2766 2663 2505 2880 
Q 2244 3097 1772 3097 
Q 1472 3097 1187 3025 
Q 903 2953 641 2809 
L 641 3341 
Q 956 3463 1253 3523 
Q 1550 3584 1831 3584 
Q 2591 3584 2966 3190 
Q 3341 2797 3341 1997 
z
" transform="scale(0.015625)"/>
      <path id="DejaVuSans-64" d="M 2906 2969 
L 2906 4863 
L 3481 4863 
L 3481 0 
L 2906 0 
L 2906 525 
Q 2725 213 2448 61 
Q 2172 -91 1784 -91 
Q 1150 -91 751 415 
Q 353 922 353 1747 
Q 353 2572 751 3078 
Q 1150 3584 1784 3584 
Q 2172 3584 2448 3432 
Q 2725 3281 2906 2969 
z
M 947 1747 
Q 947 1113 1208 752 
Q 1469 391 1925 391 
Q 2381 391 2643 752 
Q 2906 1113 2906 1747 
Q 2906 2381 2643 2742 
Q 2381 3103 1925 3103 
Q 1469 3103 1208 2742 
Q 947 2381 947 1747 
z
" transform="scale(0.015625)"/>
     </defs>
     <use xlink:href="#DejaVuSans-4c"/>
     <use xlink:href="#DejaVuSans-6f" x="53.962891"/>
     <use xlink:href="#DejaVuSans-61" x="115.144531"/>
     <use xlink:href="#DejaVuSans-64" x="176.423828"/>
    </g>
   </g>
  </g>
 </g>
 <defs>
  <clipPath id="pc08bad5db8">
   <rect x="0" y="-0" width="224.550574" height="154.8"/>
  </clipPath>
 </defs>
</svg>
