<?xml version="1.0" encoding="UTF-8"?>
<svg id="Layer_1" xmlns="http://www.w3.org/2000/svg" width="1.442in" height=".752in" version="1.1" viewBox="0 0 103.824 54.144" style="background-color:#ffffff">
  
  <!-- Generator: Adobe Illustrator 29.4.0, SVG Export Plug-In . SVG Version: 2.1.0 Build 152)  -->
  <defs>
    <style>
      .st0 {
        fill: #010101;
      }

      .st1 {
        fill: #c79100;
      }

      .st2 {
        fill: #d60000;
      }

      .st3 {
        fill: #231f20;
      }

      .st4 {
        fill: #5aba47;
      }

      .st5 {
        fill: #020202;
      }

      .st6 {
        fill: none;
        stroke: #010101;
        stroke-linecap: round;
        stroke-linejoin: round;
        stroke-width: .75px;
      }

      .st7 {
        fill: #00bcd6;
      }
    </style>
  </defs>
  <path id="DejaVuSans-20" class="st0" d="M38.068,46.84"/>
  <g>
    <rect class="st5" x="76.914" y="8.452" width=".844" height="1.349"/>
    <path class="st5" d="M71.981,8.451c0-1.644,1.264-2.909,2.909-2.909s2.909,1.264,2.909,2.909-.169.422-.422.422-.422-.169-.422-.422c0-1.138-.928-2.066-2.066-2.066s-2.066.928-2.066,2.066-.169.422-.422.422-.422-.169-.422-.422h.002Z"/>
    <rect class="st5" x="71.981" y="8.662" width=".844" height="1.349"/>
    <path class="st5" d="M67.006,8.662c0-1.644,1.264-2.909,2.909-2.909s2.909,1.264,2.909,2.909-.169.422-.422.422-.422-.169-.422-.422c0-1.138-.928-2.066-2.066-2.066s-2.066.928-2.066,2.066-.169.422-.422.422-.422-.169-.422-.422h.002Z"/>
    <rect class="st5" x="67.005" y="8.662" width=".844" height="1.349"/>
    <path class="st5" d="M62.031,8.662c0-1.644,1.264-2.909,2.909-2.909s2.909,1.264,2.909,2.909-.169.422-.422.422-.422-.169-.422-.422c0-1.138-.928-2.066-2.066-2.066s-2.066.928-2.066,2.066-.169.422-.422.422-.422-.169-.422-.422h.002Z"/>
    <rect class="st5" x="62.032" y="8.662" width=".844" height="1.349"/>
    <path class="st5" d="M57.014,8.662c0-1.644,1.264-2.909,2.909-2.909s2.909,1.264,2.909,2.909-.169.422-.422.422-.422-.169-.422-.422c0-1.138-.928-2.066-2.066-2.066s-2.066.928-2.066,2.066-.169.422-.422.422-.422-.169-.422-.422h.002Z"/>
    <rect class="st5" x="57.013" y="8.663" width=".844" height="1.264"/>
    <path class="st5" d="M47.105,9.801c0-.253.169-.422.422-.422h9.951c.253,0,.422.169.422.422s-.169.422-.422.422h-9.951c-.253,0-.422-.169-.422-.422Z"/>
    <path class="st5" d="M76.914,9.801c0-.253.169-.422.422-.422h9.993c.253,0,.422.169.422.422s-.169.422-.422.422h-9.993c-.253,0-.422-.169-.422-.422Z"/>
  </g>
  <path class="st0" d="M42.51,13.638c-.169,0-.337-.127-.38-.295l-1.855-5.608-1.855,5.608c-.042.169-.211.295-.38.295s-.337-.127-.38-.295l-1.855-5.608-1.855,5.608c-.042.169-.211.295-.38.295h0c-.169,0-.337-.127-.38-.295l-1.855-5.608-.717,2.192c-.042.169-.211.295-.38.295h-13.745c-.253,0-.422-.169-.422-.422s.169-.422.422-.422h13.239l1.055-3.12c.042-.169.211-.295.38-.295h0c.169,0,.337.127.38.295l1.855,5.608,1.855-5.608c.042-.169.211-.295.38-.295s.337.127.38.295l1.855,5.608,1.855-5.608c.042-.169.211-.295.38-.295s.337.127.38.295l1.855,5.608.717-2.192c.042-.169.211-.295.38-.295h13.576c.253,0,.422.169.422.422s-.169.422-.422.422h-13.239l-1.055,3.12c-.042.169-.211.295-.38.295h.169Z"/>
  <path class="st0" d="M53.134,34.698c-.233,0-.422-.189-.422-.422v-6.83c0-.233.189-.422.422-.422s.422.189.422.422v3.036h18.889c.233,0,.422.189.422.422s-.189.422-.422.422h-18.889v2.952c0,.233-.189.422-.422.422h0ZM50.69,34.698c-.233,0-.422-.189-.422-.422v-2.952h-18.889c-.233,0-.422-.189-.422-.422s.189-.422.422-.422h18.889v-3.036c0-.233.189-.422.422-.422s.422.189.422.422v6.83c0,.233-.189.422-.422.422h0Z"/>
  <path class="st0" d="M31.452,31.235h-15.035c-.207,0-.375-.168-.375-.375V9.799c0-.207.168-.375.375-.375s.375.168.375.375v20.687h14.661c.207,0,.375.168.375.375s-.168.375-.375.375Z"/>
  <path class="st0" d="M87.438,31.235h-15.035c-.207,0-.375-.168-.375-.375s.168-.375.375-.375h14.661V9.799c0-.207.168-.375.375-.375s.375.168.375.375v21.062c0,.207-.168.375-.375.375Z"/>
  <path class="st0" d="M102.162,45.363h-33.509c-.207,0-.375-.168-.375-.375s.168-.375.375-.375h33.134v-23.908h-14.349c-.207,0-.375-.168-.375-.375s.168-.375.375-.375h14.723c.207,0,.375.168.375.375v24.658c0,.207-.168.375-.375.375Z"/>
  <path class="st0" d="M35.593,45.363H1.663c-.207,0-.375-.168-.375-.375v-24.95c0-.207.168-.375.375-.375h14.754c.207,0,.375.168.375.375s-.168.375-.375.375H2.038v24.2h33.556c.207,0,.375.168.375.375s-.168.375-.375.375h0Z"/>
  <path class="st0" d="M51.912,53.374c-4.624,0-8.387-3.762-8.387-8.387s3.762-8.387,8.387-8.387,8.387,3.762,8.387,8.387-3.762,8.387-8.387,8.387ZM51.912,37.35c-4.211,0-7.638,3.426-7.638,7.638s3.426,7.638,7.638,7.638,7.638-3.426,7.638-7.638-3.426-7.638-7.638-7.638Z"/>
  <path class="st6" d="M57.899,47.737"/>
  <path class="st2" d="M49.565,48.112c-1.299,0-1.875-1.52-2.432-2.99-.073-.194.024-.411.218-.484.193-.072.41.023.483.217v.002c.468,1.231.95,2.506,1.731,2.506s1.266-1.274,1.733-2.508c.558-1.47,1.133-2.992,2.434-2.992s1.876,1.52,2.434,2.992c.073.194-.024.41-.218.483-.192.072-.411-.024-.483-.218-.467-1.232-.951-2.507-1.733-2.507s-1.266,1.274-1.733,2.508c-.558,1.47-1.133,2.992-2.434,2.992h0Z"/>
  <path class="st0" d="M43.9,45.363h-8.306c-.207,0-.375-.168-.375-.375s.168-.375.375-.375h8.306c.207,0,.375.168.375.375s-.168.375-.375.375Z"/>
  <path class="st0" d="M68.591,45.363h-8.306c-.207,0-.375-.168-.375-.375s.168-.375.375-.375h8.306c.207,0,.375.168.375.375s-.168.375-.375.375Z"/>
  <g>
    <circle class="st3" cx="35.593" cy="44.988" r=".524"/>
    <path class="st0" d="M35.593,45.886c-.496,0-.899-.403-.899-.898s.403-.899.899-.899.899.403.899.899-.403.898-.899.898ZM35.593,44.839c-.082,0-.149.067-.149.149,0,.164.298.164.298,0,0-.082-.067-.149-.149-.149Z"/>
  </g>
  <g>
    <circle class="st3" cx="68.591" cy="44.988" r=".524"/>
    <path class="st0" d="M68.591,45.886c-.496,0-.899-.403-.899-.898s.403-.899.899-.899.899.403.899.899-.403.898-.899.898ZM68.591,44.839c-.082,0-.149.067-.149.149,0,.164.298.164.298,0,0-.082-.067-.149-.149-.149Z"/>
  </g>
  <g>
    <path class="st0" d="M25.263,7.605h-6.634c-.138,0-.25-.112-.25-.25s.112-.25.25-.25h6.634c.138,0,.25.112.25.25s-.112.25-.25.25Z"/>
    <path class="st0" d="M27.224,7.355c-.923.342-2.067.927-2.777,1.545l.559-1.545-.559-1.544c.71.619,1.854,1.202,2.777,1.544Z"/>
  </g>
  <g>
    <path class="st0" d="M3.968,37.061c-.138,0-.25-.112-.25-.25v-6.635c0-.138.112-.25.25-.25s.25.112.25.25v6.635c0,.138-.112.25-.25.25Z"/>
    <path class="st0" d="M3.968,28.214c.342.923.927,2.067,1.545,2.777l-1.545-.559-1.544.559c.619-.71,1.202-1.854,1.544-2.777Z"/>
  </g>
  <g>
    <path class="st7" d="M5.387,32.756h-.32v-.264h1.04v.264h-.32v2.271h.32v.264h-1.04v-.264h.32v-2.271Z"/>
    <path class="st7" d="M7.226,35.601c-.026-.006-.052-.012-.077-.018s-.048-.008-.07-.008c-.083,0-.146.021-.192.062s-.074.094-.085.158v.827h-.215v-1.223h.149l.042.163h.021c.036-.061.077-.107.125-.141.047-.033.107-.05.179-.05.021,0,.047.002.077.006s.059.011.089.02l-.042.205h0Z"/>
  </g>
  <g>
    <path class="st0" d="M25.263,28.487h-6.634c-.138,0-.25-.112-.25-.25s.112-.25.25-.25h6.634c.138,0,.25.112.25.25s-.112.25-.25.25Z"/>
    <path class="st0" d="M27.224,28.238c-.923.342-2.067.927-2.777,1.545l.559-1.545-.559-1.544c.71.619,1.854,1.202,2.777,1.544Z"/>
  </g>
  <g>
    <path class="st7" d="M21.004,23.195h-.32v-.264h1.04v.264h-.32v2.271h.32v.264h-1.04v-.264h.32v-2.271Z"/>
    <path class="st7" d="M23.361,26.991c-.051.037-.117.063-.196.078-.079.015-.163.022-.252.022-.104,0-.203-.017-.297-.05-.094-.033-.177-.084-.248-.154-.072-.069-.128-.157-.17-.263-.042-.107-.063-.233-.063-.379,0-.152.023-.282.07-.389.047-.107.107-.195.182-.262.075-.068.159-.117.252-.148s.186-.046.277-.046c.103,0,.187.005.252.016.065.011.12.025.166.042l-.051.201c-.076-.036-.192-.054-.348-.054-.07,0-.138.011-.204.034-.066.022-.125.059-.177.11-.052.05-.094.117-.125.198-.031.082-.047.181-.047.299,0,.106.015.199.044.279.029.08.07.147.123.201.052.054.113.094.184.121s.148.041.232.041c.076,0,.143-.007.198-.021.056-.014.104-.032.143-.054l.056.18v-.002Z"/>
  </g>
  <g>
    <path class="st7" d="M21.048,2.008h-.32v-.264h1.04v.264h-.32v2.271h.32v.264h-1.04v-.264h.32v-2.271Z"/>
    <path class="st7" d="M23.318,5.874h-1.068v-1.631h.233v1.426h.834v.205h.001Z"/>
  </g>
  <path class="st4" d="M68.348,4.594h-1.54v-2.354h.336v2.059h1.204v.296h0Z"/>
  <path class="st4" d="M52.894,25.177c-.074.054-.168.092-.282.113-.115.021-.236.032-.364.032-.15,0-.293-.024-.429-.073-.136-.048-.255-.122-.358-.222-.104-.1-.185-.227-.246-.38s-.091-.336-.091-.547c0-.22.034-.407.101-.562s.155-.281.263-.378c.107-.098.229-.169.363-.214.135-.044.268-.067.4-.067.148,0,.269.008.363.023s.174.036.239.061l-.074.29c-.11-.052-.277-.078-.501-.078-.101,0-.199.016-.294.049-.095.033-.181.085-.255.158-.075.073-.135.168-.18.286-.045.118-.067.262-.067.432,0,.153.021.287.064.402.042.115.102.212.177.289.075.078.164.136.266.175.102.039.214.059.335.059.11,0,.205-.01.286-.03.081-.02.149-.046.205-.077l.081.259h-.002Z"/>
  <g>
    <path class="st4" d="M72.406,37.607c.177-.038.369-.064.577-.079.207-.015.412-.021.614-.021.214,0,.432.019.652.057.22.037.421.106.602.208.181.101.328.24.444.419.115.179.173.408.173.689,0,.265-.053.491-.157.678-.105.187-.245.339-.419.457-.175.117-.374.204-.599.258-.225.055-.457.082-.696.082-.025,0-.064,0-.117-.003s-.106-.004-.163-.006c-.058-.002-.112-.006-.164-.01-.053-.004-.092-.009-.117-.013v1.651h-.63v-4.367ZM73.616,38.061c-.113,0-.224.003-.331.007-.106.004-.189.015-.249.031v1.671c.021.008.056.014.104.016.048.002.099.005.151.009.052.004.103.006.151.006h.11c.15,0,.3-.011.447-.034.146-.022.28-.066.399-.133.12-.066.217-.159.29-.279.074-.121.11-.276.11-.467,0-.165-.035-.302-.106-.409-.072-.108-.164-.192-.277-.255-.114-.062-.241-.104-.382-.128-.141-.022-.28-.034-.419-.034Z"/>
    <path class="st4" d="M76.011,38.874c.379-.181.847-.271,1.405-.271.253,0,.455.033.608.098.153.065.272.148.356.249.084.102.14.214.167.338.027.123.041.246.041.368,0,.231-.009.463-.025.696s-.025.486-.025.76c0,.159.008.313.022.463s.038.287.072.413h-.423l-.157-.505h-.062c-.047.063-.104.128-.171.192-.066.065-.146.123-.239.174-.092.05-.198.092-.318.126-.119.033-.257.05-.412.05-.156,0-.299-.021-.429-.065-.131-.045-.243-.106-.337-.187-.095-.079-.17-.177-.224-.293-.055-.115-.082-.244-.082-.388,0-.188.041-.353.122-.491.082-.139.188-.252.318-.34.131-.089.278-.153.444-.196.166-.041.331-.062.495-.062.13,0,.24.002.331.006.09.005.166.01.227.017.061.006.112.012.154.019.042.006.08.012.113.016.009-.062.015-.117.02-.164.004-.046.006-.104.006-.176,0-.118-.013-.217-.038-.297-.025-.079-.065-.144-.123-.192-.057-.048-.133-.082-.229-.104-.097-.021-.214-.031-.353-.031-.08,0-.169.006-.265.019-.097.013-.193.03-.29.054s-.192.052-.287.085c-.095.034-.18.069-.255.107l-.158-.485ZM77.983,40.475c-.033-.004-.068-.011-.106-.019-.037-.009-.084-.015-.141-.02-.056-.004-.123-.008-.2-.013-.077-.004-.172-.006-.284-.006-.258,0-.464.046-.615.139-.152.093-.229.25-.229.473,0,.168.06.294.178.378.119.084.272.126.46.126.138,0,.259-.018.365-.054.106-.035.198-.079.275-.132s.14-.111.188-.177.085-.129.109-.192v-.504Z"/>
    <path class="st4" d="M81.443,39.214c-.071-.018-.141-.033-.208-.048-.067-.014-.131-.021-.189-.021-.223,0-.396.057-.52.17s-.201.255-.23.427v2.233h-.579v-3.309h.403l.113.441h.057c.097-.164.209-.291.337-.382.128-.09.289-.136.482-.136.059,0,.128.006.208.017.079.01.159.028.239.053l-.113.555Z"/>
    <path class="st4" d="M82.073,38.874c.378-.181.847-.271,1.405-.271.252,0,.455.033.608.098.153.065.271.148.355.249.084.102.14.214.167.338.027.123.041.246.041.368,0,.231-.008.463-.025.696-.017.233-.024.486-.024.76,0,.159.007.313.021.463s.039.287.072.413h-.422l-.157-.505h-.063c-.046.063-.103.128-.17.192-.067.065-.147.123-.239.174-.093.05-.199.092-.318.126-.12.033-.258.05-.413.05s-.298-.021-.429-.065c-.13-.045-.242-.106-.337-.187-.095-.079-.169-.177-.224-.293-.055-.115-.082-.244-.082-.388,0-.188.041-.353.123-.491s.188-.252.318-.34c.13-.089.278-.153.444-.196.166-.041.331-.062.494-.062.131,0,.241.002.331.006.091.005.166.01.227.017.062.006.112.012.155.019.041.006.079.012.113.016.008-.062.015-.117.019-.164.004-.046.006-.104.006-.176,0-.118-.012-.217-.037-.297-.025-.079-.066-.144-.123-.192-.057-.048-.134-.082-.23-.104-.097-.021-.214-.031-.353-.031-.08,0-.168.006-.265.019s-.193.03-.29.054-.192.052-.286.085c-.095.034-.18.069-.256.107l-.157-.485ZM84.046,40.475c-.033-.004-.069-.011-.106-.019-.038-.009-.085-.015-.141-.02-.057-.004-.123-.008-.2-.013-.077-.004-.172-.006-.284-.006-.259,0-.464.046-.616.139s-.229.25-.229.473c0,.168.06.294.179.378.118.084.271.126.459.126.138,0,.26-.018.366-.054.106-.035.198-.079.275-.132s.14-.111.188-.177.084-.129.109-.192v-.504Z"/>
    <path class="st4" d="M86.434,41.099c0,.172.033.294.098.365.065.071.152.107.262.107.067,0,.133-.004.195-.013.063-.009.139-.025.227-.051l.076.429c-.042.017-.093.032-.151.047s-.12.028-.183.041c-.063.013-.126.022-.189.028-.062.007-.119.01-.17.01-.227,0-.407-.058-.542-.173-.135-.116-.201-.308-.201-.577v-3.749h.579v3.535Z"/>
    <path class="st4" d="M88.551,41.099c0,.172.033.294.098.365.065.071.152.107.262.107.067,0,.133-.004.195-.013.063-.009.139-.025.227-.051l.076.429c-.042.017-.093.032-.151.047s-.12.028-.183.041c-.063.013-.126.022-.189.028-.062.007-.119.01-.17.01-.227,0-.407-.058-.542-.173-.135-.116-.201-.308-.201-.577v-3.749h.579v3.535Z"/>
    <path class="st4" d="M92.704,41.703c-.147.109-.33.196-.548.262-.219.065-.456.098-.713.098-.276,0-.518-.041-.721-.123-.204-.082-.371-.198-.501-.35-.131-.151-.228-.334-.29-.548-.063-.215-.095-.454-.095-.719,0-.567.14-1.001.419-1.301.279-.301.678-.451,1.194-.451.164,0,.327.018.491.054s.312.103.441.201c.13.1.236.234.318.407.082.172.123.396.123.674,0,.067-.003.146-.007.233s-.013.174-.025.258h-2.362c.008.387.101.679.276.876.177.198.478.297.901.297.177,0,.345-.03.504-.092.16-.061.284-.133.372-.217l.221.44ZM92.27,39.983c.008-.337-.061-.574-.205-.713s-.348-.208-.608-.208c-.294,0-.527.069-.699.208s-.273.376-.303.713h1.815Z"/>
    <path class="st4" d="M94.437,41.099c0,.172.033.294.098.365.065.071.152.107.262.107.067,0,.133-.004.195-.013.063-.009.139-.025.227-.051l.076.429c-.042.017-.093.032-.151.047s-.12.028-.183.041c-.063.013-.126.022-.189.028-.062.007-.119.01-.17.01-.227,0-.407-.058-.542-.173-.135-.116-.201-.308-.201-.577v-3.749h.579v3.535Z"/>
  </g>
  <path class="st1" d="M35.784,2.031c.052-.01.109-.019.172-.026.063-.007.127-.014.191-.019.063-.005.128-.008.192-.011.063-.002.124-.004.181-.004.124,0,.242.012.357.037.114.024.216.065.304.122.087.057.157.131.211.222.053.091.079.204.079.337,0,.104-.016.198-.048.282s-.077.158-.134.222c-.057.064-.124.118-.201.161-.078.043-.162.076-.254.098l.192.129.696,1.013h-.426l-.77-1.092-.374-.052v1.144h-.37v-2.564ZM36.533,2.297h-.105c-.036,0-.071,0-.105.003-.035.003-.067.005-.097.008s-.053.006-.07.011v.896h.304c.089,0,.171-.009.246-.028.075-.018.141-.046.196-.085.055-.038.099-.088.131-.15.032-.062.048-.137.048-.226,0-.133-.047-.238-.141-.314-.094-.077-.229-.115-.406-.115Z"/>
</svg>