<?xml version="1.0" encoding="utf-8" standalone="no"?>
<!DOCTYPE svg PUBLIC "-//W3C//DTD SVG 1.1//EN"
  "http://www.w3.org/Graphics/SVG/1.1/DTD/svg11.dtd">
<svg xmlns:xlink="http://www.w3.org/1999/xlink" width="360pt" height="216pt" viewBox="0 0 360 216" xmlns="http://www.w3.org/2000/svg" version="1.1">
 <metadata>
  <rdf:RDF xmlns:dc="http://purl.org/dc/elements/1.1/" xmlns:cc="http://creativecommons.org/ns#" xmlns:rdf="http://www.w3.org/1999/02/22-rdf-syntax-ns#">
   <cc:Work>
    <dc:type rdf:resource="http://purl.org/dc/dcmitype/StillImage"/>
    <dc:date>2025-03-12T11:48:52.440431</dc:date>
    <dc:format>image/svg+xml</dc:format>
    <dc:creator>
     <cc:Agent>
      <dc:title>Matplotlib v3.9.2, https://matplotlib.org/</dc:title>
     </cc:Agent>
    </dc:creator>
   </cc:Work>
  </rdf:RDF>
 </metadata>
 <defs>
  <style type="text/css">*{stroke-linejoin: round; stroke-linecap: butt}</style>
 </defs>
 <g id="figure_1">
  <g id="patch_1">
   <path d="M 0 216 
L 360 216 
L 360 0 
L 0 0 
z
" style="fill: #ffffff"/>
  </g>
  <g id="axes_1">
   <g id="patch_2">
    <path d="M 31.88 59.04 
L 349.2 59.04 
L 349.2 26.88 
L 31.88 26.88 
z
" style="fill: #ffffff"/>
   </g>
   <g id="matplotlib.axis_1">
    <g id="xtick_1">
     <g id="line2d_1">
      <path d="M 46.303636 59.04 
L 46.303636 26.88 
" clip-path="url(#p9391bee073)" style="fill: none; stroke: #b0b0b0; stroke-width: 0.8; stroke-linecap: square"/>
     </g>
     <g id="line2d_2">
      <defs>
       <path id="m96eb79feba" d="M 0 0 
L 0 3.5 
" style="stroke: #000000; stroke-width: 0.8"/>
      </defs>
      <g>
       <use xlink:href="#m96eb79feba" x="46.303636" y="59.04" style="stroke: #000000; stroke-width: 0.8"/>
      </g>
     </g>
    </g>
    <g id="xtick_2">
     <g id="line2d_3">
      <path d="M 89.574545 59.04 
L 89.574545 26.88 
" clip-path="url(#p9391bee073)" style="fill: none; stroke: #b0b0b0; stroke-width: 0.8; stroke-linecap: square"/>
     </g>
     <g id="line2d_4">
      <g>
       <use xlink:href="#m96eb79feba" x="89.574545" y="59.04" style="stroke: #000000; stroke-width: 0.8"/>
      </g>
     </g>
    </g>
    <g id="xtick_3">
     <g id="line2d_5">
      <path d="M 132.845455 59.04 
L 132.845455 26.88 
" clip-path="url(#p9391bee073)" style="fill: none; stroke: #b0b0b0; stroke-width: 0.8; stroke-linecap: square"/>
     </g>
     <g id="line2d_6">
      <g>
       <use xlink:href="#m96eb79feba" x="132.845455" y="59.04" style="stroke: #000000; stroke-width: 0.8"/>
      </g>
     </g>
    </g>
    <g id="xtick_4">
     <g id="line2d_7">
      <path d="M 176.116364 59.04 
L 176.116364 26.88 
" clip-path="url(#p9391bee073)" style="fill: none; stroke: #b0b0b0; stroke-width: 0.8; stroke-linecap: square"/>
     </g>
     <g id="line2d_8">
      <g>
       <use xlink:href="#m96eb79feba" x="176.116364" y="59.04" style="stroke: #000000; stroke-width: 0.8"/>
      </g>
     </g>
    </g>
    <g id="xtick_5">
     <g id="line2d_9">
      <path d="M 219.387273 59.04 
L 219.387273 26.88 
" clip-path="url(#p9391bee073)" style="fill: none; stroke: #b0b0b0; stroke-width: 0.8; stroke-linecap: square"/>
     </g>
     <g id="line2d_10">
      <g>
       <use xlink:href="#m96eb79feba" x="219.387273" y="59.04" style="stroke: #000000; stroke-width: 0.8"/>
      </g>
     </g>
    </g>
    <g id="xtick_6">
     <g id="line2d_11">
      <path d="M 262.658182 59.04 
L 262.658182 26.88 
" clip-path="url(#p9391bee073)" style="fill: none; stroke: #b0b0b0; stroke-width: 0.8; stroke-linecap: square"/>
     </g>
     <g id="line2d_12">
      <g>
       <use xlink:href="#m96eb79feba" x="262.658182" y="59.04" style="stroke: #000000; stroke-width: 0.8"/>
      </g>
     </g>
    </g>
    <g id="xtick_7">
     <g id="line2d_13">
      <path d="M 305.929091 59.04 
L 305.929091 26.88 
" clip-path="url(#p9391bee073)" style="fill: none; stroke: #b0b0b0; stroke-width: 0.8; stroke-linecap: square"/>
     </g>
     <g id="line2d_14">
      <g>
       <use xlink:href="#m96eb79feba" x="305.929091" y="59.04" style="stroke: #000000; stroke-width: 0.8"/>
      </g>
     </g>
    </g>
    <g id="xtick_8">
     <g id="line2d_15">
      <path d="M 349.2 59.04 
L 349.2 26.88 
" clip-path="url(#p9391bee073)" style="fill: none; stroke: #b0b0b0; stroke-width: 0.8; stroke-linecap: square"/>
     </g>
     <g id="line2d_16">
      <g>
       <use xlink:href="#m96eb79feba" x="349.2" y="59.04" style="stroke: #000000; stroke-width: 0.8"/>
      </g>
     </g>
    </g>
   </g>
   <g id="matplotlib.axis_2">
    <g id="ytick_1">
     <g id="line2d_17">
      <path d="M 31.88 55.329231 
L 349.2 55.329231 
" clip-path="url(#p9391bee073)" style="fill: none; stroke: #b0b0b0; stroke-width: 0.8; stroke-linecap: square"/>
     </g>
     <g id="line2d_18">
      <defs>
       <path id="m6370ff5260" d="M 0 0 
L -3.5 0 
" style="stroke: #000000; stroke-width: 0.8"/>
      </defs>
      <g>
       <use xlink:href="#m6370ff5260" x="31.88" y="55.329231" style="stroke: #000000; stroke-width: 0.8"/>
      </g>
     </g>
    </g>
    <g id="ytick_2">
     <g id="line2d_19">
      <path d="M 31.88 42.96 
L 349.2 42.96 
" clip-path="url(#p9391bee073)" style="fill: none; stroke: #b0b0b0; stroke-width: 0.8; stroke-linecap: square"/>
     </g>
     <g id="line2d_20">
      <g>
       <use xlink:href="#m6370ff5260" x="31.88" y="42.96" style="stroke: #000000; stroke-width: 0.8"/>
      </g>
     </g>
    </g>
    <g id="ytick_3">
     <g id="line2d_21">
      <path d="M 31.88 30.590769 
L 349.2 30.590769 
" clip-path="url(#p9391bee073)" style="fill: none; stroke: #b0b0b0; stroke-width: 0.8; stroke-linecap: square"/>
     </g>
     <g id="line2d_22">
      <g>
       <use xlink:href="#m6370ff5260" x="31.88" y="30.590769" style="stroke: #000000; stroke-width: 0.8"/>
      </g>
     </g>
    </g>
   </g>
   <g id="line2d_23">
    <path d="M 46.303636 42.96 
L 54.962147 37.493296 
L 59.58002 34.846232 
L 63.47635 32.863329 
L 66.939754 31.342759 
L 70.114542 30.180023 
L 73.145021 29.297534 
L 76.031191 28.677929 
L 78.917361 28.283786 
L 81.803532 28.121327 
L 84.545394 28.183966 
L 87.431564 28.477299 
L 90.317734 28.999261 
L 93.348213 29.784319 
L 96.378692 30.798662 
L 99.697788 32.151687 
L 103.305501 33.877142 
L 107.346139 36.073203 
L 112.108321 38.929024 
L 119.756672 43.822617 
L 127.260715 48.534971 
L 131.878587 51.171183 
L 135.774917 53.141852 
L 139.238322 54.64948 
L 142.413109 55.798902 
L 145.443588 56.667629 
L 148.329759 57.273393 
L 151.215929 57.653201 
L 154.102099 57.801056 
L 156.843961 57.724505 
L 159.730131 57.416709 
L 162.616302 56.880694 
L 165.646781 56.081565 
L 168.67726 55.054093 
L 171.996355 53.688039 
L 175.604068 51.95033 
L 179.644707 49.743264 
L 184.406888 46.8786 
L 192.343856 41.794844 
L 199.559282 37.277107 
L 204.032846 34.729394 
L 207.929176 32.761187 
L 211.392581 31.256159 
L 214.567368 30.109408 
L 217.597847 29.24344 
L 220.484017 28.640449 
L 223.370188 28.263511 
L 226.256358 28.118577 
L 228.99822 28.19791 
L 231.88439 28.508596 
L 234.770561 29.047418 
L 237.80104 29.849355 
L 240.831518 30.879446 
L 244.150614 32.248095 
L 247.758327 33.988243 
L 251.798966 36.197493 
L 256.705455 39.154017 
L 265.075349 44.52003 
L 271.85785 48.750465 
L 276.331414 51.287412 
L 280.227744 53.243239 
L 283.691148 54.735213 
L 286.865936 55.868565 
L 289.896415 56.720707 
L 292.782585 57.309813 
L 295.668755 57.672387 
L 298.554926 57.802706 
L 301.296787 57.709467 
L 304.182958 57.38434 
L 307.069128 56.831506 
L 310.099607 56.015557 
L 313.274394 54.917367 
L 316.59349 53.525508 
L 320.201203 51.763614 
L 324.241842 49.534948 
L 329.148331 46.562684 
L 334.776364 42.96 
L 334.776364 42.96 
" clip-path="url(#p9391bee073)" style="fill: none; stroke: #0000ff; stroke-width: 1.5; stroke-linecap: square"/>
   </g>
   <g id="line2d_24">
    <path d="M 31.88 42.96 
L 349.2 42.96 
" clip-path="url(#p9391bee073)" style="fill: none; stroke: #000000; stroke-width: 0.5; stroke-linecap: square"/>
   </g>
   <g id="patch_3">
    <path d="M 31.88 59.04 
L 31.88 26.88 
" style="fill: none; stroke: #000000; stroke-width: 0.8; stroke-linejoin: miter; stroke-linecap: square"/>
   </g>
   <g id="patch_4">
    <path d="M 349.2 59.04 
L 349.2 26.88 
" style="fill: none; stroke: #000000; stroke-width: 0.8; stroke-linejoin: miter; stroke-linecap: square"/>
   </g>
   <g id="patch_5">
    <path d="M 31.88 59.04 
L 349.2 59.04 
" style="fill: none; stroke: #000000; stroke-width: 0.8; stroke-linejoin: miter; stroke-linecap: square"/>
   </g>
   <g id="patch_6">
    <path d="M 31.88 26.88 
L 349.2 26.88 
" style="fill: none; stroke: #000000; stroke-width: 0.8; stroke-linejoin: miter; stroke-linecap: square"/>
   </g>
   <g id="text_1">
    <!-- Input AC Waveform -->
    <g transform="translate(132.541562 20.88) scale(0.12 -0.12)">
     <defs>
      <path id="DejaVuSans-49" d="M 628 4666 
L 1259 4666 
L 1259 0 
L 628 0 
L 628 4666 
z
" transform="scale(0.015625)"/>
      <path id="DejaVuSans-6e" d="M 3513 2113 
L 3513 0 
L 2938 0 
L 2938 2094 
Q 2938 2591 2744 2837 
Q 2550 3084 2163 3084 
Q 1697 3084 1428 2787 
Q 1159 2491 1159 1978 
L 1159 0 
L 581 0 
L 581 3500 
L 1159 3500 
L 1159 2956 
Q 1366 3272 1645 3428 
Q 1925 3584 2291 3584 
Q 2894 3584 3203 3211 
Q 3513 2838 3513 2113 
z
" transform="scale(0.015625)"/>
      <path id="DejaVuSans-70" d="M 1159 525 
L 1159 -1331 
L 581 -1331 
L 581 3500 
L 1159 3500 
L 1159 2969 
Q 1341 3281 1617 3432 
Q 1894 3584 2278 3584 
Q 2916 3584 3314 3078 
Q 3713 2572 3713 1747 
Q 3713 922 3314 415 
Q 2916 -91 2278 -91 
Q 1894 -91 1617 61 
Q 1341 213 1159 525 
z
M 3116 1747 
Q 3116 2381 2855 2742 
Q 2594 3103 2138 3103 
Q 1681 3103 1420 2742 
Q 1159 2381 1159 1747 
Q 1159 1113 1420 752 
Q 1681 391 2138 391 
Q 2594 391 2855 752 
Q 3116 1113 3116 1747 
z
" transform="scale(0.015625)"/>
      <path id="DejaVuSans-75" d="M 544 1381 
L 544 3500 
L 1119 3500 
L 1119 1403 
Q 1119 906 1312 657 
Q 1506 409 1894 409 
Q 2359 409 2629 706 
Q 2900 1003 2900 1516 
L 2900 3500 
L 3475 3500 
L 3475 0 
L 2900 0 
L 2900 538 
Q 2691 219 2414 64 
Q 2138 -91 1772 -91 
Q 1169 -91 856 284 
Q 544 659 544 1381 
z
M 1991 3584 
L 1991 3584 
z
" transform="scale(0.015625)"/>
      <path id="DejaVuSans-74" d="M 1172 4494 
L 1172 3500 
L 2356 3500 
L 2356 3053 
L 1172 3053 
L 1172 1153 
Q 1172 725 1289 603 
Q 1406 481 1766 481 
L 2356 481 
L 2356 0 
L 1766 0 
Q 1100 0 847 248 
Q 594 497 594 1153 
L 594 3053 
L 172 3053 
L 172 3500 
L 594 3500 
L 594 4494 
L 1172 4494 
z
" transform="scale(0.015625)"/>
      <path id="DejaVuSans-20" transform="scale(0.015625)"/>
      <path id="DejaVuSans-41" d="M 2188 4044 
L 1331 1722 
L 3047 1722 
L 2188 4044 
z
M 1831 4666 
L 2547 4666 
L 4325 0 
L 3669 0 
L 3244 1197 
L 1141 1197 
L 716 0 
L 50 0 
L 1831 4666 
z
" transform="scale(0.015625)"/>
      <path id="DejaVuSans-43" d="M 4122 4306 
L 4122 3641 
Q 3803 3938 3442 4084 
Q 3081 4231 2675 4231 
Q 1875 4231 1450 3742 
Q 1025 3253 1025 2328 
Q 1025 1406 1450 917 
Q 1875 428 2675 428 
Q 3081 428 3442 575 
Q 3803 722 4122 1019 
L 4122 359 
Q 3791 134 3420 21 
Q 3050 -91 2638 -91 
Q 1578 -91 968 557 
Q 359 1206 359 2328 
Q 359 3453 968 4101 
Q 1578 4750 2638 4750 
Q 3056 4750 3426 4639 
Q 3797 4528 4122 4306 
z
" transform="scale(0.015625)"/>
      <path id="DejaVuSans-57" d="M 213 4666 
L 850 4666 
L 1831 722 
L 2809 4666 
L 3519 4666 
L 4500 722 
L 5478 4666 
L 6119 4666 
L 4947 0 
L 4153 0 
L 3169 4050 
L 2175 0 
L 1381 0 
L 213 4666 
z
" transform="scale(0.015625)"/>
      <path id="DejaVuSans-61" d="M 2194 1759 
Q 1497 1759 1228 1600 
Q 959 1441 959 1056 
Q 959 750 1161 570 
Q 1363 391 1709 391 
Q 2188 391 2477 730 
Q 2766 1069 2766 1631 
L 2766 1759 
L 2194 1759 
z
M 3341 1997 
L 3341 0 
L 2766 0 
L 2766 531 
Q 2569 213 2275 61 
Q 1981 -91 1556 -91 
Q 1019 -91 701 211 
Q 384 513 384 1019 
Q 384 1609 779 1909 
Q 1175 2209 1959 2209 
L 2766 2209 
L 2766 2266 
Q 2766 2663 2505 2880 
Q 2244 3097 1772 3097 
Q 1472 3097 1187 3025 
Q 903 2953 641 2809 
L 641 3341 
Q 956 3463 1253 3523 
Q 1550 3584 1831 3584 
Q 2591 3584 2966 3190 
Q 3341 2797 3341 1997 
z
" transform="scale(0.015625)"/>
      <path id="DejaVuSans-76" d="M 191 3500 
L 800 3500 
L 1894 563 
L 2988 3500 
L 3597 3500 
L 2284 0 
L 1503 0 
L 191 3500 
z
" transform="scale(0.015625)"/>
      <path id="DejaVuSans-65" d="M 3597 1894 
L 3597 1613 
L 953 1613 
Q 991 1019 1311 708 
Q 1631 397 2203 397 
Q 2534 397 2845 478 
Q 3156 559 3463 722 
L 3463 178 
Q 3153 47 2828 -22 
Q 2503 -91 2169 -91 
Q 1331 -91 842 396 
Q 353 884 353 1716 
Q 353 2575 817 3079 
Q 1281 3584 2069 3584 
Q 2775 3584 3186 3129 
Q 3597 2675 3597 1894 
z
M 3022 2063 
Q 3016 2534 2758 2815 
Q 2500 3097 2075 3097 
Q 1594 3097 1305 2825 
Q 1016 2553 972 2059 
L 3022 2063 
z
" transform="scale(0.015625)"/>
      <path id="DejaVuSans-66" d="M 2375 4863 
L 2375 4384 
L 1825 4384 
Q 1516 4384 1395 4259 
Q 1275 4134 1275 3809 
L 1275 3500 
L 2222 3500 
L 2222 3053 
L 1275 3053 
L 1275 0 
L 697 0 
L 697 3053 
L 147 3053 
L 147 3500 
L 697 3500 
L 697 3744 
Q 697 4328 969 4595 
Q 1241 4863 1831 4863 
L 2375 4863 
z
" transform="scale(0.015625)"/>
      <path id="DejaVuSans-6f" d="M 1959 3097 
Q 1497 3097 1228 2736 
Q 959 2375 959 1747 
Q 959 1119 1226 758 
Q 1494 397 1959 397 
Q 2419 397 2687 759 
Q 2956 1122 2956 1747 
Q 2956 2369 2687 2733 
Q 2419 3097 1959 3097 
z
M 1959 3584 
Q 2709 3584 3137 3096 
Q 3566 2609 3566 1747 
Q 3566 888 3137 398 
Q 2709 -91 1959 -91 
Q 1206 -91 779 398 
Q 353 888 353 1747 
Q 353 2609 779 3096 
Q 1206 3584 1959 3584 
z
" transform="scale(0.015625)"/>
      <path id="DejaVuSans-72" d="M 2631 2963 
Q 2534 3019 2420 3045 
Q 2306 3072 2169 3072 
Q 1681 3072 1420 2755 
Q 1159 2438 1159 1844 
L 1159 0 
L 581 0 
L 581 3500 
L 1159 3500 
L 1159 2956 
Q 1341 3275 1631 3429 
Q 1922 3584 2338 3584 
Q 2397 3584 2469 3576 
Q 2541 3569 2628 3553 
L 2631 2963 
z
" transform="scale(0.015625)"/>
      <path id="DejaVuSans-6d" d="M 3328 2828 
Q 3544 3216 3844 3400 
Q 4144 3584 4550 3584 
Q 5097 3584 5394 3201 
Q 5691 2819 5691 2113 
L 5691 0 
L 5113 0 
L 5113 2094 
Q 5113 2597 4934 2840 
Q 4756 3084 4391 3084 
Q 3944 3084 3684 2787 
Q 3425 2491 3425 1978 
L 3425 0 
L 2847 0 
L 2847 2094 
Q 2847 2600 2669 2842 
Q 2491 3084 2119 3084 
Q 1678 3084 1418 2786 
Q 1159 2488 1159 1978 
L 1159 0 
L 581 0 
L 581 3500 
L 1159 3500 
L 1159 2956 
Q 1356 3278 1631 3431 
Q 1906 3584 2284 3584 
Q 2666 3584 2933 3390 
Q 3200 3197 3328 2828 
z
" transform="scale(0.015625)"/>
     </defs>
     <use xlink:href="#DejaVuSans-49"/>
     <use xlink:href="#DejaVuSans-6e" x="29.492188"/>
     <use xlink:href="#DejaVuSans-70" x="92.871094"/>
     <use xlink:href="#DejaVuSans-75" x="156.347656"/>
     <use xlink:href="#DejaVuSans-74" x="219.726562"/>
     <use xlink:href="#DejaVuSans-20" x="258.935547"/>
     <use xlink:href="#DejaVuSans-41" x="290.722656"/>
     <use xlink:href="#DejaVuSans-43" x="357.380859"/>
     <use xlink:href="#DejaVuSans-20" x="427.205078"/>
     <use xlink:href="#DejaVuSans-57" x="458.992188"/>
     <use xlink:href="#DejaVuSans-61" x="551.494141"/>
     <use xlink:href="#DejaVuSans-76" x="612.773438"/>
     <use xlink:href="#DejaVuSans-65" x="671.953125"/>
     <use xlink:href="#DejaVuSans-66" x="733.476562"/>
     <use xlink:href="#DejaVuSans-6f" x="768.681641"/>
     <use xlink:href="#DejaVuSans-72" x="829.863281"/>
     <use xlink:href="#DejaVuSans-6d" x="869.226562"/>
    </g>
   </g>
  </g>
  <g id="axes_2">
   <g id="patch_7">
    <path d="M 31.88 121.58 
L 349.2 121.58 
L 349.2 89.42 
L 31.88 89.42 
z
" style="fill: #ffffff"/>
   </g>
   <g id="matplotlib.axis_3">
    <g id="xtick_9">
     <g id="line2d_25">
      <path d="M 46.303636 121.58 
L 46.303636 89.42 
" clip-path="url(#p34b8db0843)" style="fill: none; stroke: #b0b0b0; stroke-width: 0.8; stroke-linecap: square"/>
     </g>
     <g id="line2d_26">
      <g>
       <use xlink:href="#m96eb79feba" x="46.303636" y="121.58" style="stroke: #000000; stroke-width: 0.8"/>
      </g>
     </g>
    </g>
    <g id="xtick_10">
     <g id="line2d_27">
      <path d="M 89.574545 121.58 
L 89.574545 89.42 
" clip-path="url(#p34b8db0843)" style="fill: none; stroke: #b0b0b0; stroke-width: 0.8; stroke-linecap: square"/>
     </g>
     <g id="line2d_28">
      <g>
       <use xlink:href="#m96eb79feba" x="89.574545" y="121.58" style="stroke: #000000; stroke-width: 0.8"/>
      </g>
     </g>
    </g>
    <g id="xtick_11">
     <g id="line2d_29">
      <path d="M 132.845455 121.58 
L 132.845455 89.42 
" clip-path="url(#p34b8db0843)" style="fill: none; stroke: #b0b0b0; stroke-width: 0.8; stroke-linecap: square"/>
     </g>
     <g id="line2d_30">
      <g>
       <use xlink:href="#m96eb79feba" x="132.845455" y="121.58" style="stroke: #000000; stroke-width: 0.8"/>
      </g>
     </g>
    </g>
    <g id="xtick_12">
     <g id="line2d_31">
      <path d="M 176.116364 121.58 
L 176.116364 89.42 
" clip-path="url(#p34b8db0843)" style="fill: none; stroke: #b0b0b0; stroke-width: 0.8; stroke-linecap: square"/>
     </g>
     <g id="line2d_32">
      <g>
       <use xlink:href="#m96eb79feba" x="176.116364" y="121.58" style="stroke: #000000; stroke-width: 0.8"/>
      </g>
     </g>
    </g>
    <g id="xtick_13">
     <g id="line2d_33">
      <path d="M 219.387273 121.58 
L 219.387273 89.42 
" clip-path="url(#p34b8db0843)" style="fill: none; stroke: #b0b0b0; stroke-width: 0.8; stroke-linecap: square"/>
     </g>
     <g id="line2d_34">
      <g>
       <use xlink:href="#m96eb79feba" x="219.387273" y="121.58" style="stroke: #000000; stroke-width: 0.8"/>
      </g>
     </g>
    </g>
    <g id="xtick_14">
     <g id="line2d_35">
      <path d="M 262.658182 121.58 
L 262.658182 89.42 
" clip-path="url(#p34b8db0843)" style="fill: none; stroke: #b0b0b0; stroke-width: 0.8; stroke-linecap: square"/>
     </g>
     <g id="line2d_36">
      <g>
       <use xlink:href="#m96eb79feba" x="262.658182" y="121.58" style="stroke: #000000; stroke-width: 0.8"/>
      </g>
     </g>
    </g>
    <g id="xtick_15">
     <g id="line2d_37">
      <path d="M 305.929091 121.58 
L 305.929091 89.42 
" clip-path="url(#p34b8db0843)" style="fill: none; stroke: #b0b0b0; stroke-width: 0.8; stroke-linecap: square"/>
     </g>
     <g id="line2d_38">
      <g>
       <use xlink:href="#m96eb79feba" x="305.929091" y="121.58" style="stroke: #000000; stroke-width: 0.8"/>
      </g>
     </g>
    </g>
    <g id="xtick_16">
     <g id="line2d_39">
      <path d="M 349.2 121.58 
L 349.2 89.42 
" clip-path="url(#p34b8db0843)" style="fill: none; stroke: #b0b0b0; stroke-width: 0.8; stroke-linecap: square"/>
     </g>
     <g id="line2d_40">
      <g>
       <use xlink:href="#m96eb79feba" x="349.2" y="121.58" style="stroke: #000000; stroke-width: 0.8"/>
      </g>
     </g>
    </g>
   </g>
   <g id="matplotlib.axis_4">
    <g id="ytick_4">
     <g id="line2d_41">
      <path d="M 31.88 117.869231 
L 349.2 117.869231 
" clip-path="url(#p34b8db0843)" style="fill: none; stroke: #b0b0b0; stroke-width: 0.8; stroke-linecap: square"/>
     </g>
     <g id="line2d_42">
      <g>
       <use xlink:href="#m6370ff5260" x="31.88" y="117.869231" style="stroke: #000000; stroke-width: 0.8"/>
      </g>
     </g>
    </g>
    <g id="ytick_5">
     <g id="line2d_43">
      <path d="M 31.88 105.5 
L 349.2 105.5 
" clip-path="url(#p34b8db0843)" style="fill: none; stroke: #b0b0b0; stroke-width: 0.8; stroke-linecap: square"/>
     </g>
     <g id="line2d_44">
      <g>
       <use xlink:href="#m6370ff5260" x="31.88" y="105.5" style="stroke: #000000; stroke-width: 0.8"/>
      </g>
     </g>
    </g>
    <g id="ytick_6">
     <g id="line2d_45">
      <path d="M 31.88 93.130769 
L 349.2 93.130769 
" clip-path="url(#p34b8db0843)" style="fill: none; stroke: #b0b0b0; stroke-width: 0.8; stroke-linecap: square"/>
     </g>
     <g id="line2d_46">
      <g>
       <use xlink:href="#m6370ff5260" x="31.88" y="93.130769" style="stroke: #000000; stroke-width: 0.8"/>
      </g>
     </g>
    </g>
    <g id="text_2">
     <!-- Voltage (E) -->
     <g transform="translate(18.800312 132.90625) rotate(-90) scale(0.1 -0.1)">
      <defs>
       <path id="DejaVuSans-56" d="M 1831 0 
L 50 4666 
L 709 4666 
L 2188 738 
L 3669 4666 
L 4325 4666 
L 2547 0 
L 1831 0 
z
" transform="scale(0.015625)"/>
       <path id="DejaVuSans-6c" d="M 603 4863 
L 1178 4863 
L 1178 0 
L 603 0 
L 603 4863 
z
" transform="scale(0.015625)"/>
       <path id="DejaVuSans-67" d="M 2906 1791 
Q 2906 2416 2648 2759 
Q 2391 3103 1925 3103 
Q 1463 3103 1205 2759 
Q 947 2416 947 1791 
Q 947 1169 1205 825 
Q 1463 481 1925 481 
Q 2391 481 2648 825 
Q 2906 1169 2906 1791 
z
M 3481 434 
Q 3481 -459 3084 -895 
Q 2688 -1331 1869 -1331 
Q 1566 -1331 1297 -1286 
Q 1028 -1241 775 -1147 
L 775 -588 
Q 1028 -725 1275 -790 
Q 1522 -856 1778 -856 
Q 2344 -856 2625 -561 
Q 2906 -266 2906 331 
L 2906 616 
Q 2728 306 2450 153 
Q 2172 0 1784 0 
Q 1141 0 747 490 
Q 353 981 353 1791 
Q 353 2603 747 3093 
Q 1141 3584 1784 3584 
Q 2172 3584 2450 3431 
Q 2728 3278 2906 2969 
L 2906 3500 
L 3481 3500 
L 3481 434 
z
" transform="scale(0.015625)"/>
       <path id="DejaVuSans-28" d="M 1984 4856 
Q 1566 4138 1362 3434 
Q 1159 2731 1159 2009 
Q 1159 1288 1364 580 
Q 1569 -128 1984 -844 
L 1484 -844 
Q 1016 -109 783 600 
Q 550 1309 550 2009 
Q 550 2706 781 3412 
Q 1013 4119 1484 4856 
L 1984 4856 
z
" transform="scale(0.015625)"/>
       <path id="DejaVuSans-45" d="M 628 4666 
L 3578 4666 
L 3578 4134 
L 1259 4134 
L 1259 2753 
L 3481 2753 
L 3481 2222 
L 1259 2222 
L 1259 531 
L 3634 531 
L 3634 0 
L 628 0 
L 628 4666 
z
" transform="scale(0.015625)"/>
       <path id="DejaVuSans-29" d="M 513 4856 
L 1013 4856 
Q 1481 4119 1714 3412 
Q 1947 2706 1947 2009 
Q 1947 1309 1714 600 
Q 1481 -109 1013 -844 
L 513 -844 
Q 928 -128 1133 580 
Q 1338 1288 1338 2009 
Q 1338 2731 1133 3434 
Q 928 4138 513 4856 
z
" transform="scale(0.015625)"/>
      </defs>
      <use xlink:href="#DejaVuSans-56"/>
      <use xlink:href="#DejaVuSans-6f" x="60.658203"/>
      <use xlink:href="#DejaVuSans-6c" x="121.839844"/>
      <use xlink:href="#DejaVuSans-74" x="149.623047"/>
      <use xlink:href="#DejaVuSans-61" x="188.832031"/>
      <use xlink:href="#DejaVuSans-67" x="250.111328"/>
      <use xlink:href="#DejaVuSans-65" x="313.587891"/>
      <use xlink:href="#DejaVuSans-20" x="375.111328"/>
      <use xlink:href="#DejaVuSans-28" x="406.898438"/>
      <use xlink:href="#DejaVuSans-45" x="445.912109"/>
      <use xlink:href="#DejaVuSans-29" x="509.095703"/>
     </g>
    </g>
   </g>
   <g id="line2d_47">
    <path d="M 46.303636 105.5 
L 54.962147 100.033296 
L 59.58002 97.386232 
L 63.47635 95.403329 
L 66.939754 93.882759 
L 70.114542 92.720023 
L 73.145021 91.837534 
L 76.031191 91.217929 
L 78.917361 90.823786 
L 81.803532 90.661327 
L 84.545394 90.723966 
L 87.431564 91.017299 
L 90.317734 91.539261 
L 93.348213 92.324319 
L 96.378692 93.338662 
L 99.697788 94.691687 
L 103.305501 96.417142 
L 107.346139 98.613203 
L 112.108321 101.469024 
L 118.746512 105.5 
L 190.612154 105.453346 
L 199.126357 100.076698 
L 203.744229 97.425339 
L 207.640559 95.437577 
L 211.103964 93.911856 
L 214.278751 92.743814 
L 217.30923 91.855836 
L 220.1954 91.230705 
L 223.081571 90.830834 
L 225.967741 90.662536 
L 228.709603 90.71961 
L 231.595773 91.007152 
L 234.481944 91.523484 
L 237.368114 92.260455 
L 240.398593 93.25896 
L 243.717689 94.596239 
L 247.181093 96.233773 
L 251.077423 98.325593 
L 255.695296 101.066583 
L 262.477796 105.383366 
L 262.766413 105.5 
L 334.776364 105.5 
L 334.776364 105.5 
" clip-path="url(#p34b8db0843)" style="fill: none; stroke: #ff0000; stroke-width: 1.5; stroke-linecap: square"/>
   </g>
   <g id="line2d_48">
    <path d="M 31.88 105.5 
L 349.2 105.5 
" clip-path="url(#p34b8db0843)" style="fill: none; stroke: #000000; stroke-width: 0.5; stroke-linecap: square"/>
   </g>
   <g id="patch_8">
    <path d="M 31.88 121.58 
L 31.88 89.42 
" style="fill: none; stroke: #000000; stroke-width: 0.8; stroke-linejoin: miter; stroke-linecap: square"/>
   </g>
   <g id="patch_9">
    <path d="M 349.2 121.58 
L 349.2 89.42 
" style="fill: none; stroke: #000000; stroke-width: 0.8; stroke-linejoin: miter; stroke-linecap: square"/>
   </g>
   <g id="patch_10">
    <path d="M 31.88 121.58 
L 349.2 121.58 
" style="fill: none; stroke: #000000; stroke-width: 0.8; stroke-linejoin: miter; stroke-linecap: square"/>
   </g>
   <g id="patch_11">
    <path d="M 31.88 89.42 
L 349.2 89.42 
" style="fill: none; stroke: #000000; stroke-width: 0.8; stroke-linejoin: miter; stroke-linecap: square"/>
   </g>
   <g id="text_3">
    <!-- Half-Wave Rectified Output -->
    <g transform="translate(109.662813 83.42) scale(0.12 -0.12)">
     <defs>
      <path id="DejaVuSans-48" d="M 628 4666 
L 1259 4666 
L 1259 2753 
L 3553 2753 
L 3553 4666 
L 4184 4666 
L 4184 0 
L 3553 0 
L 3553 2222 
L 1259 2222 
L 1259 0 
L 628 0 
L 628 4666 
z
" transform="scale(0.015625)"/>
      <path id="DejaVuSans-2d" d="M 313 2009 
L 1997 2009 
L 1997 1497 
L 313 1497 
L 313 2009 
z
" transform="scale(0.015625)"/>
      <path id="DejaVuSans-52" d="M 2841 2188 
Q 3044 2119 3236 1894 
Q 3428 1669 3622 1275 
L 4263 0 
L 3584 0 
L 2988 1197 
Q 2756 1666 2539 1819 
Q 2322 1972 1947 1972 
L 1259 1972 
L 1259 0 
L 628 0 
L 628 4666 
L 2053 4666 
Q 2853 4666 3247 4331 
Q 3641 3997 3641 3322 
Q 3641 2881 3436 2590 
Q 3231 2300 2841 2188 
z
M 1259 4147 
L 1259 2491 
L 2053 2491 
Q 2509 2491 2742 2702 
Q 2975 2913 2975 3322 
Q 2975 3731 2742 3939 
Q 2509 4147 2053 4147 
L 1259 4147 
z
" transform="scale(0.015625)"/>
      <path id="DejaVuSans-63" d="M 3122 3366 
L 3122 2828 
Q 2878 2963 2633 3030 
Q 2388 3097 2138 3097 
Q 1578 3097 1268 2742 
Q 959 2388 959 1747 
Q 959 1106 1268 751 
Q 1578 397 2138 397 
Q 2388 397 2633 464 
Q 2878 531 3122 666 
L 3122 134 
Q 2881 22 2623 -34 
Q 2366 -91 2075 -91 
Q 1284 -91 818 406 
Q 353 903 353 1747 
Q 353 2603 823 3093 
Q 1294 3584 2113 3584 
Q 2378 3584 2631 3529 
Q 2884 3475 3122 3366 
z
" transform="scale(0.015625)"/>
      <path id="DejaVuSans-69" d="M 603 3500 
L 1178 3500 
L 1178 0 
L 603 0 
L 603 3500 
z
M 603 4863 
L 1178 4863 
L 1178 4134 
L 603 4134 
L 603 4863 
z
" transform="scale(0.015625)"/>
      <path id="DejaVuSans-64" d="M 2906 2969 
L 2906 4863 
L 3481 4863 
L 3481 0 
L 2906 0 
L 2906 525 
Q 2725 213 2448 61 
Q 2172 -91 1784 -91 
Q 1150 -91 751 415 
Q 353 922 353 1747 
Q 353 2572 751 3078 
Q 1150 3584 1784 3584 
Q 2172 3584 2448 3432 
Q 2725 3281 2906 2969 
z
M 947 1747 
Q 947 1113 1208 752 
Q 1469 391 1925 391 
Q 2381 391 2643 752 
Q 2906 1113 2906 1747 
Q 2906 2381 2643 2742 
Q 2381 3103 1925 3103 
Q 1469 3103 1208 2742 
Q 947 2381 947 1747 
z
" transform="scale(0.015625)"/>
      <path id="DejaVuSans-4f" d="M 2522 4238 
Q 1834 4238 1429 3725 
Q 1025 3213 1025 2328 
Q 1025 1447 1429 934 
Q 1834 422 2522 422 
Q 3209 422 3611 934 
Q 4013 1447 4013 2328 
Q 4013 3213 3611 3725 
Q 3209 4238 2522 4238 
z
M 2522 4750 
Q 3503 4750 4090 4092 
Q 4678 3434 4678 2328 
Q 4678 1225 4090 567 
Q 3503 -91 2522 -91 
Q 1538 -91 948 565 
Q 359 1222 359 2328 
Q 359 3434 948 4092 
Q 1538 4750 2522 4750 
z
" transform="scale(0.015625)"/>
     </defs>
     <use xlink:href="#DejaVuSans-48"/>
     <use xlink:href="#DejaVuSans-61" x="75.195312"/>
     <use xlink:href="#DejaVuSans-6c" x="136.474609"/>
     <use xlink:href="#DejaVuSans-66" x="164.257812"/>
     <use xlink:href="#DejaVuSans-2d" x="193.962891"/>
     <use xlink:href="#DejaVuSans-57" x="226.046875"/>
     <use xlink:href="#DejaVuSans-61" x="318.548828"/>
     <use xlink:href="#DejaVuSans-76" x="379.828125"/>
     <use xlink:href="#DejaVuSans-65" x="439.007812"/>
     <use xlink:href="#DejaVuSans-20" x="500.53125"/>
     <use xlink:href="#DejaVuSans-52" x="532.318359"/>
     <use xlink:href="#DejaVuSans-65" x="597.300781"/>
     <use xlink:href="#DejaVuSans-63" x="658.824219"/>
     <use xlink:href="#DejaVuSans-74" x="713.804688"/>
     <use xlink:href="#DejaVuSans-69" x="753.013672"/>
     <use xlink:href="#DejaVuSans-66" x="780.796875"/>
     <use xlink:href="#DejaVuSans-69" x="816.001953"/>
     <use xlink:href="#DejaVuSans-65" x="843.785156"/>
     <use xlink:href="#DejaVuSans-64" x="905.308594"/>
     <use xlink:href="#DejaVuSans-20" x="968.785156"/>
     <use xlink:href="#DejaVuSans-4f" x="1000.572266"/>
     <use xlink:href="#DejaVuSans-75" x="1079.283203"/>
     <use xlink:href="#DejaVuSans-74" x="1142.662109"/>
     <use xlink:href="#DejaVuSans-70" x="1181.871094"/>
     <use xlink:href="#DejaVuSans-75" x="1245.347656"/>
     <use xlink:href="#DejaVuSans-74" x="1308.726562"/>
    </g>
   </g>
  </g>
  <g id="axes_3">
   <g id="patch_12">
    <path d="M 31.88 184.12 
L 349.2 184.12 
L 349.2 151.96 
L 31.88 151.96 
z
" style="fill: #ffffff"/>
   </g>
   <g id="matplotlib.axis_5">
    <g id="xtick_17">
     <g id="line2d_49">
      <path d="M 46.303636 184.12 
L 46.303636 151.96 
" clip-path="url(#p0b2d831b4e)" style="fill: none; stroke: #b0b0b0; stroke-width: 0.8; stroke-linecap: square"/>
     </g>
     <g id="line2d_50">
      <g>
       <use xlink:href="#m96eb79feba" x="46.303636" y="184.12" style="stroke: #000000; stroke-width: 0.8"/>
      </g>
     </g>
    </g>
    <g id="xtick_18">
     <g id="line2d_51">
      <path d="M 89.574545 184.12 
L 89.574545 151.96 
" clip-path="url(#p0b2d831b4e)" style="fill: none; stroke: #b0b0b0; stroke-width: 0.8; stroke-linecap: square"/>
     </g>
     <g id="line2d_52">
      <g>
       <use xlink:href="#m96eb79feba" x="89.574545" y="184.12" style="stroke: #000000; stroke-width: 0.8"/>
      </g>
     </g>
    </g>
    <g id="xtick_19">
     <g id="line2d_53">
      <path d="M 132.845455 184.12 
L 132.845455 151.96 
" clip-path="url(#p0b2d831b4e)" style="fill: none; stroke: #b0b0b0; stroke-width: 0.8; stroke-linecap: square"/>
     </g>
     <g id="line2d_54">
      <g>
       <use xlink:href="#m96eb79feba" x="132.845455" y="184.12" style="stroke: #000000; stroke-width: 0.8"/>
      </g>
     </g>
    </g>
    <g id="xtick_20">
     <g id="line2d_55">
      <path d="M 176.116364 184.12 
L 176.116364 151.96 
" clip-path="url(#p0b2d831b4e)" style="fill: none; stroke: #b0b0b0; stroke-width: 0.8; stroke-linecap: square"/>
     </g>
     <g id="line2d_56">
      <g>
       <use xlink:href="#m96eb79feba" x="176.116364" y="184.12" style="stroke: #000000; stroke-width: 0.8"/>
      </g>
     </g>
    </g>
    <g id="xtick_21">
     <g id="line2d_57">
      <path d="M 219.387273 184.12 
L 219.387273 151.96 
" clip-path="url(#p0b2d831b4e)" style="fill: none; stroke: #b0b0b0; stroke-width: 0.8; stroke-linecap: square"/>
     </g>
     <g id="line2d_58">
      <g>
       <use xlink:href="#m96eb79feba" x="219.387273" y="184.12" style="stroke: #000000; stroke-width: 0.8"/>
      </g>
     </g>
    </g>
    <g id="xtick_22">
     <g id="line2d_59">
      <path d="M 262.658182 184.12 
L 262.658182 151.96 
" clip-path="url(#p0b2d831b4e)" style="fill: none; stroke: #b0b0b0; stroke-width: 0.8; stroke-linecap: square"/>
     </g>
     <g id="line2d_60">
      <g>
       <use xlink:href="#m96eb79feba" x="262.658182" y="184.12" style="stroke: #000000; stroke-width: 0.8"/>
      </g>
     </g>
    </g>
    <g id="xtick_23">
     <g id="line2d_61">
      <path d="M 305.929091 184.12 
L 305.929091 151.96 
" clip-path="url(#p0b2d831b4e)" style="fill: none; stroke: #b0b0b0; stroke-width: 0.8; stroke-linecap: square"/>
     </g>
     <g id="line2d_62">
      <g>
       <use xlink:href="#m96eb79feba" x="305.929091" y="184.12" style="stroke: #000000; stroke-width: 0.8"/>
      </g>
     </g>
    </g>
    <g id="xtick_24">
     <g id="line2d_63">
      <path d="M 349.2 184.12 
L 349.2 151.96 
" clip-path="url(#p0b2d831b4e)" style="fill: none; stroke: #b0b0b0; stroke-width: 0.8; stroke-linecap: square"/>
     </g>
     <g id="line2d_64">
      <g>
       <use xlink:href="#m96eb79feba" x="349.2" y="184.12" style="stroke: #000000; stroke-width: 0.8"/>
      </g>
     </g>
    </g>
    <g id="text_4">
     <!-- Time -->
     <g transform="translate(178.306406 202.718437) scale(0.1 -0.1)">
      <defs>
       <path id="DejaVuSans-54" d="M -19 4666 
L 3928 4666 
L 3928 4134 
L 2272 4134 
L 2272 0 
L 1638 0 
L 1638 4134 
L -19 4134 
L -19 4666 
z
" transform="scale(0.015625)"/>
      </defs>
      <use xlink:href="#DejaVuSans-54"/>
      <use xlink:href="#DejaVuSans-69" x="57.958984"/>
      <use xlink:href="#DejaVuSans-6d" x="85.742188"/>
      <use xlink:href="#DejaVuSans-65" x="183.154297"/>
     </g>
    </g>
   </g>
   <g id="matplotlib.axis_6">
    <g id="ytick_7">
     <g id="line2d_65">
      <path d="M 31.88 180.409231 
L 349.2 180.409231 
" clip-path="url(#p0b2d831b4e)" style="fill: none; stroke: #b0b0b0; stroke-width: 0.8; stroke-linecap: square"/>
     </g>
     <g id="line2d_66">
      <g>
       <use xlink:href="#m6370ff5260" x="31.88" y="180.409231" style="stroke: #000000; stroke-width: 0.8"/>
      </g>
     </g>
    </g>
    <g id="ytick_8">
     <g id="line2d_67">
      <path d="M 31.88 168.04 
L 349.2 168.04 
" clip-path="url(#p0b2d831b4e)" style="fill: none; stroke: #b0b0b0; stroke-width: 0.8; stroke-linecap: square"/>
     </g>
     <g id="line2d_68">
      <g>
       <use xlink:href="#m6370ff5260" x="31.88" y="168.04" style="stroke: #000000; stroke-width: 0.8"/>
      </g>
     </g>
    </g>
    <g id="ytick_9">
     <g id="line2d_69">
      <path d="M 31.88 155.670769 
L 349.2 155.670769 
" clip-path="url(#p0b2d831b4e)" style="fill: none; stroke: #b0b0b0; stroke-width: 0.8; stroke-linecap: square"/>
     </g>
     <g id="line2d_70">
      <g>
       <use xlink:href="#m6370ff5260" x="31.88" y="155.670769" style="stroke: #000000; stroke-width: 0.8"/>
      </g>
     </g>
    </g>
   </g>
   <g id="line2d_71">
    <path d="M 46.303636 168.04 
L 54.962147 162.573296 
L 59.58002 159.926232 
L 63.47635 157.943329 
L 66.939754 156.422759 
L 70.114542 155.260023 
L 73.145021 154.377534 
L 76.031191 153.757929 
L 78.917361 153.363786 
L 81.803532 153.201327 
L 84.545394 153.263966 
L 87.431564 153.557299 
L 90.317734 154.079261 
L 93.348213 154.864319 
L 96.378692 155.878662 
L 99.697788 157.231687 
L 103.305501 158.957142 
L 107.346139 161.153203 
L 112.108321 164.009024 
L 118.602204 167.923366 
L 126.972098 162.638419 
L 131.58997 159.984922 
L 135.4863 157.994738 
L 138.949705 156.466447 
L 142.124492 155.295757 
L 145.154971 154.405037 
L 148.041141 153.777146 
L 150.927312 153.374413 
L 153.813482 153.203196 
L 156.555344 153.257486 
L 159.441514 153.542133 
L 162.327685 154.055648 
L 165.213855 154.789925 
L 168.244334 155.785782 
L 171.56343 157.120425 
L 175.026834 158.755562 
L 178.923164 160.84518 
L 183.541037 163.584326 
L 190.323537 167.900039 
L 190.612154 167.993346 
L 199.126357 162.616698 
L 203.744229 159.965339 
L 207.640559 157.977577 
L 211.103964 156.451856 
L 214.278751 155.283814 
L 217.30923 154.395836 
L 220.1954 153.770705 
L 223.081571 153.370834 
L 225.967741 153.202536 
L 228.709603 153.25961 
L 231.595773 153.547152 
L 234.481944 154.063484 
L 237.368114 154.800455 
L 240.398593 155.79896 
L 243.717689 157.136239 
L 247.181093 158.773773 
L 251.077423 160.865593 
L 255.695296 163.606583 
L 262.477796 167.923366 
L 262.622105 168.016673 
L 263.05503 167.783415 
L 271.280616 162.59499 
L 275.898488 159.945776 
L 279.794818 157.960441 
L 283.258223 156.437293 
L 286.43301 155.271903 
L 289.463489 154.386668 
L 292.349659 153.764299 
L 295.23583 153.367292 
L 298.122 153.201913 
L 300.863862 153.261769 
L 303.750032 153.552208 
L 306.636203 154.071355 
L 309.522373 154.811017 
L 312.552852 155.812168 
L 315.871948 157.15208 
L 319.335352 158.792008 
L 323.231682 160.886023 
L 327.849555 163.628851 
L 334.776364 168.04 
L 334.776364 168.04 
" clip-path="url(#p0b2d831b4e)" style="fill: none; stroke: #008000; stroke-width: 1.5; stroke-linecap: square"/>
   </g>
   <g id="line2d_72">
    <path d="M 31.88 168.04 
L 349.2 168.04 
" clip-path="url(#p0b2d831b4e)" style="fill: none; stroke: #000000; stroke-width: 0.5; stroke-linecap: square"/>
   </g>
   <g id="patch_13">
    <path d="M 31.88 184.12 
L 31.88 151.96 
" style="fill: none; stroke: #000000; stroke-width: 0.8; stroke-linejoin: miter; stroke-linecap: square"/>
   </g>
   <g id="patch_14">
    <path d="M 349.2 184.12 
L 349.2 151.96 
" style="fill: none; stroke: #000000; stroke-width: 0.8; stroke-linejoin: miter; stroke-linecap: square"/>
   </g>
   <g id="patch_15">
    <path d="M 31.88 184.12 
L 349.2 184.12 
" style="fill: none; stroke: #000000; stroke-width: 0.8; stroke-linejoin: miter; stroke-linecap: square"/>
   </g>
   <g id="patch_16">
    <path d="M 31.88 151.96 
L 349.2 151.96 
" style="fill: none; stroke: #000000; stroke-width: 0.8; stroke-linejoin: miter; stroke-linecap: square"/>
   </g>
   <g id="text_5">
    <!-- Full-Wave Rectified Output -->
    <g transform="translate(111.04375 145.96) scale(0.12 -0.12)">
     <defs>
      <path id="DejaVuSans-46" d="M 628 4666 
L 3309 4666 
L 3309 4134 
L 1259 4134 
L 1259 2759 
L 3109 2759 
L 3109 2228 
L 1259 2228 
L 1259 0 
L 628 0 
L 628 4666 
z
" transform="scale(0.015625)"/>
     </defs>
     <use xlink:href="#DejaVuSans-46"/>
     <use xlink:href="#DejaVuSans-75" x="52.019531"/>
     <use xlink:href="#DejaVuSans-6c" x="115.398438"/>
     <use xlink:href="#DejaVuSans-6c" x="143.181641"/>
     <use xlink:href="#DejaVuSans-2d" x="170.964844"/>
     <use xlink:href="#DejaVuSans-57" x="203.048828"/>
     <use xlink:href="#DejaVuSans-61" x="295.550781"/>
     <use xlink:href="#DejaVuSans-76" x="356.830078"/>
     <use xlink:href="#DejaVuSans-65" x="416.009766"/>
     <use xlink:href="#DejaVuSans-20" x="477.533203"/>
     <use xlink:href="#DejaVuSans-52" x="509.320312"/>
     <use xlink:href="#DejaVuSans-65" x="574.302734"/>
     <use xlink:href="#DejaVuSans-63" x="635.826172"/>
     <use xlink:href="#DejaVuSans-74" x="690.806641"/>
     <use xlink:href="#DejaVuSans-69" x="730.015625"/>
     <use xlink:href="#DejaVuSans-66" x="757.798828"/>
     <use xlink:href="#DejaVuSans-69" x="793.003906"/>
     <use xlink:href="#DejaVuSans-65" x="820.787109"/>
     <use xlink:href="#DejaVuSans-64" x="882.310547"/>
     <use xlink:href="#DejaVuSans-20" x="945.787109"/>
     <use xlink:href="#DejaVuSans-4f" x="977.574219"/>
     <use xlink:href="#DejaVuSans-75" x="1056.285156"/>
     <use xlink:href="#DejaVuSans-74" x="1119.664062"/>
     <use xlink:href="#DejaVuSans-70" x="1158.873047"/>
     <use xlink:href="#DejaVuSans-75" x="1222.349609"/>
     <use xlink:href="#DejaVuSans-74" x="1285.728516"/>
    </g>
   </g>
  </g>
 </g>
 <defs>
  <clipPath id="p9391bee073">
   <rect x="31.88" y="26.88" width="317.32" height="32.16"/>
  </clipPath>
  <clipPath id="p34b8db0843">
   <rect x="31.88" y="89.42" width="317.32" height="32.16"/>
  </clipPath>
  <clipPath id="p0b2d831b4e">
   <rect x="31.88" y="151.96" width="317.32" height="32.16"/>
  </clipPath>
 </defs>
</svg>
