<?xml version="1.0" encoding="UTF-8"?>
<svg id="Layer_1" xmlns="http://www.w3.org/2000/svg" xmlns:xlink="http://www.w3.org/1999/xlink" version="1.1" viewBox="0 0 548.7 279">
  <!-- Generator: Adobe Illustrator 29.1.0, SVG Export Plug-In . SVG Version: 2.1.0 Build 142)  -->
  <defs>
    <style>
      .st0, .st1, .st2 {
        fill: none;
      }

      .st1 {
        stroke: #000;
      }

      .st1, .st2 {
        stroke-linecap: round;
        stroke-linejoin: round;
        stroke-width: 2px;
      }

      .st3 {
        font-family: MyriadPro-Regular, 'Myriad Pro';
        font-size: 34.1px;
      }

      .st2 {
        stroke: #fff;
      }

      .st4 {
        clip-path: url(#clippath-17);
      }

      .st5 {
        clip-path: url(#clippath-19);
      }

      .st6 {
        clip-path: url(#clippath-11);
      }

      .st7 {
        clip-path: url(#clippath-16);
      }

      .st8 {
        clip-path: url(#clippath-18);
      }

      .st9 {
        clip-path: url(#clippath-10);
      }

      .st10 {
        clip-path: url(#clippath-15);
      }

      .st11 {
        clip-path: url(#clippath-13);
      }

      .st12 {
        clip-path: url(#clippath-14);
      }

      .st13 {
        clip-path: url(#clippath-12);
      }

      .st14 {
        clip-path: url(#clippath-31);
      }

      .st15 {
        clip-path: url(#clippath-32);
      }

      .st16 {
        clip-path: url(#clippath-33);
      }

      .st17 {
        clip-path: url(#clippath-34);
      }

      .st18 {
        clip-path: url(#clippath-30);
      }

      .st19 {
        clip-path: url(#clippath-27);
      }

      .st20 {
        clip-path: url(#clippath-29);
      }

      .st21 {
        clip-path: url(#clippath-26);
      }

      .st22 {
        clip-path: url(#clippath-28);
      }

      .st23 {
        clip-path: url(#clippath-20);
      }

      .st24 {
        clip-path: url(#clippath-21);
      }

      .st25 {
        clip-path: url(#clippath-22);
      }

      .st26 {
        clip-path: url(#clippath-23);
      }

      .st27 {
        clip-path: url(#clippath-24);
      }

      .st28 {
        clip-path: url(#clippath-25);
      }

      .st29 {
        clip-path: url(#clippath-1);
      }

      .st30 {
        clip-path: url(#clippath-3);
      }

      .st31 {
        clip-path: url(#clippath-4);
      }

      .st32 {
        clip-path: url(#clippath-2);
      }

      .st33 {
        clip-path: url(#clippath-7);
      }

      .st34 {
        clip-path: url(#clippath-6);
      }

      .st35 {
        clip-path: url(#clippath-9);
      }

      .st36 {
        clip-path: url(#clippath-8);
      }

      .st37 {
        clip-path: url(#clippath-5);
      }

      .st38 {
        fill: #fff;
      }

      .st39 {
        clip-path: url(#clippath);
      }
    </style>
    <clipPath id="clippath">
      <rect class="st0" x="290" y="50.5" width="238.3" height="149.7"/>
    </clipPath>
    <clipPath id="clippath-1">
      <rect class="st0" x="290" y="50.5" width="238.3" height="149.7"/>
    </clipPath>
    <clipPath id="clippath-2">
      <rect class="st0" x="290" y="50.5" width="238.3" height="149.7"/>
    </clipPath>
    <clipPath id="clippath-3">
      <rect class="st0" x="290" y="50.5" width="238.3" height="149.7"/>
    </clipPath>
    <clipPath id="clippath-4">
      <rect class="st0" x="290" y="50.5" width="238.3" height="149.7"/>
    </clipPath>
    <clipPath id="clippath-5">
      <rect class="st0" x="290" y="50.5" width="238.3" height="149.7"/>
    </clipPath>
    <clipPath id="clippath-6">
      <rect class="st0" x="290" y="50.5" width="238.3" height="149.7"/>
    </clipPath>
    <clipPath id="clippath-7">
      <rect class="st0" x="290" y="50.5" width="238.3" height="149.7"/>
    </clipPath>
    <clipPath id="clippath-8">
      <rect class="st0" x="290" y="50.5" width="238.3" height="149.7"/>
    </clipPath>
    <clipPath id="clippath-9">
      <rect class="st0" x="290" y="50.5" width="238.3" height="149.7"/>
    </clipPath>
    <clipPath id="clippath-10">
      <rect class="st0" x="290" y="50.5" width="238.3" height="149.7"/>
    </clipPath>
    <clipPath id="clippath-11">
      <rect class="st0" x="290" y="50.5" width="238.3" height="149.7"/>
    </clipPath>
    <clipPath id="clippath-12">
      <rect class="st0" x="290" y="50.5" width="238.3" height="149.7"/>
    </clipPath>
    <clipPath id="clippath-13">
      <rect class="st0" x="290" y="50.5" width="238.3" height="149.7"/>
    </clipPath>
    <clipPath id="clippath-14">
      <rect class="st0" x="290" y="50.5" width="238.3" height="149.7"/>
    </clipPath>
    <clipPath id="clippath-15">
      <rect class="st0" x="290" y="50.5" width="238.3" height="149.7"/>
    </clipPath>
    <clipPath id="clippath-16">
      <rect class="st0" x="290" y="50.5" width="238.3" height="149.7"/>
    </clipPath>
    <clipPath id="clippath-17">
      <rect class="st0" x="290" y="50.5" width="238.3" height="149.7"/>
    </clipPath>
    <clipPath id="clippath-18">
      <rect class="st0" x="290" y="50.5" width="238.3" height="149.7"/>
    </clipPath>
    <clipPath id="clippath-19">
      <rect class="st0" x="290" y="50.5" width="238.3" height="149.7"/>
    </clipPath>
    <clipPath id="clippath-20">
      <rect class="st0" x="290" y="50.5" width="238.3" height="149.7"/>
    </clipPath>
    <clipPath id="clippath-21">
      <rect class="st0" x="16.6" y="21.4" width="233.9" height="155.5"/>
    </clipPath>
    <clipPath id="clippath-22">
      <rect class="st0" x="16.6" y="21.4" width="233.9" height="155.5"/>
    </clipPath>
    <clipPath id="clippath-23">
      <rect class="st0" x="16.6" y="21.4" width="233.9" height="155.5"/>
    </clipPath>
    <clipPath id="clippath-24">
      <rect class="st0" x="16.6" y="21.4" width="233.9" height="155.5"/>
    </clipPath>
    <clipPath id="clippath-25">
      <rect class="st0" x="16.6" y="21.4" width="233.9" height="155.5"/>
    </clipPath>
    <clipPath id="clippath-26">
      <rect class="st0" x="16.6" y="21.4" width="233.9" height="155.5"/>
    </clipPath>
    <clipPath id="clippath-27">
      <rect class="st0" x="16.6" y="21.4" width="233.9" height="155.5"/>
    </clipPath>
    <clipPath id="clippath-28">
      <rect class="st0" x="16.6" y="21.4" width="233.9" height="155.5"/>
    </clipPath>
    <clipPath id="clippath-29">
      <rect class="st0" x="16.6" y="21.4" width="233.9" height="155.5"/>
    </clipPath>
    <clipPath id="clippath-30">
      <rect class="st0" x="16.6" y="21.4" width="233.9" height="155.5"/>
    </clipPath>
    <clipPath id="clippath-31">
      <rect class="st0" x="16.6" y="21.4" width="233.9" height="155.5"/>
    </clipPath>
    <clipPath id="clippath-32">
      <rect class="st0" x="16.6" y="21.4" width="233.9" height="155.5"/>
    </clipPath>
    <clipPath id="clippath-33">
      <rect class="st0" x="16.6" y="21.4" width="233.9" height="155.5"/>
    </clipPath>
    <clipPath id="clippath-34">
      <rect class="st0" x="16.6" y="21.4" width="233.9" height="155.5"/>
    </clipPath>
  </defs>
  <g id="patch_1">
    <path class="st38" d="M0,279h548.7V0H0v279Z"/>
  </g>
  <text class="st3" transform="translate(37.2 242.1)"><tspan x="0" y="0">Series Circuit</tspan></text>
  <text class="st3" transform="translate(317 242.1)"><tspan x="0" y="0">Parallel Circuit</tspan></text>
  <g id="patch_11" data-name="patch_1">
    <path class="st0" d="M283.8,200.2h244.6V50.5h-244.6v149.7Z"/>
  </g>
  <g id="axes_1">
    <g id="line2d_1">
      <g class="st39">
        <path class="st1" d="M352.7,55.1v43.9M352.7,119.3v43.9"/>
      </g>
    </g>
    <g id="line2d_2">
      <g class="st29">
        <path class="st1" d="M366.2,99h-27"/>
      </g>
    </g>
    <g id="line2d_3">
      <g class="st32">
        <path class="st1" d="M359.4,105.8h-13.5"/>
      </g>
    </g>
    <g id="line2d_4">
      <g class="st30">
        <path class="st1" d="M366.2,112.5h-27"/>
      </g>
    </g>
    <g id="line2d_5">
      <g class="st31">
        <path class="st1" d="M359.4,119.3h-13.5"/>
      </g>
    </g>
    <g id="line2d_6">
      <g class="st37">
        <path class="st1" d="M352.7,163.1h54"/>
      </g>
    </g>
    <g id="line2d_7">
      <g class="st34">
        <path class="st1" d="M406.7,163.1v-36l-9-3,18-6-18-6,18-6-18-6,18-6-9-3v-36"/>
      </g>
    </g>
    <g id="line2d_8">
      <g class="st33">
        <path class="st1" d="M406.7,163.1h54"/>
      </g>
    </g>
    <g id="line2d_9">
      <g class="st36">
        <path class="st1" d="M460.7,163.1v-36l-9-3,18-6-18-6,18-6-18-6,18-6-9-3v-36"/>
      </g>
    </g>
    <g id="line2d_10">
      <g class="st35">
        <path class="st1" d="M460.7,163.1h54"/>
      </g>
    </g>
    <g id="line2d_11">
      <g class="st9">
        <path class="st1" d="M514.7,163.1v-36l-9-3,18-6-18-6,18-6-18-6,18-6-9-3v-36"/>
      </g>
    </g>
    <g id="line2d_12">
      <g class="st6">
        <path class="st1" d="M352.7,55.1h162"/>
      </g>
    </g>
    <g id="line2d_13">
      <g class="st13">
        <path class="st1" d="M397.7,64.1v9h0"/>
      </g>
    </g>
    <g id="patch_2">
      <g class="st11">
        <path d="M400.4,73.1l-2.7,9-2.7-9h5.4Z"/>
      </g>
    </g>
    <g id="line2d_14">
      <g class="st12">
        <path class="st1" d="M451.7,64.1v9h0"/>
      </g>
    </g>
    <g id="patch_3">
      <g class="st10">
        <path d="M454.4,73.1l-2.7,9-2.7-9h5.4Z"/>
      </g>
    </g>
    <g id="line2d_15">
      <g class="st7">
        <path class="st1" d="M505.7,64.1v9h0"/>
      </g>
    </g>
    <g id="patch_4">
      <g class="st4">
        <path d="M508.4,73.1l-2.7,9-2.7-9h5.4Z"/>
      </g>
    </g>
    <g id="line2d_16">
      <g class="st8">
        <path class="st1" d="M343.7,82.1v-9h0"/>
      </g>
    </g>
    <g id="patch_5">
      <g class="st5">
        <path d="M341,73.1l2.7-9,2.7,9h-5.4Z"/>
      </g>
    </g>
    <g id="line2d_17">
      <g class="st23">
        <path class="st2" d="M347.3,168.5v27"/>
      </g>
    </g>
    <g id="text_1">
      <g>
        <path id="DejaVuSans-42" d="M286.5,108.1v3.7h2.2c.7,0,1.3-.2,1.6-.5.4-.3.5-.8.5-1.4s-.2-1.1-.5-1.4c-.4-.3-.9-.5-1.6-.5h-2.2ZM286.5,103.9v3.1h2c.7,0,1.2-.1,1.5-.4.3-.3.5-.6.5-1.2s-.2-.9-.5-1.2c-.3-.3-.8-.4-1.5-.4h-2ZM285.1,102.8h3.5c1.1,0,1.9.2,2.4.7.6.4.9,1.1.9,1.9s-.1,1.1-.4,1.5-.7.6-1.3.7c.7.1,1.2.5,1.6.9.4.5.6,1,.6,1.7s-.3,1.6-.9,2.1c-.6.5-1.5.7-2.6.7h-3.7v-10.2Z"/>
        <path id="DejaVuSans-61" d="M298.2,109.1c-1,0-1.7.1-2.1.3s-.6.6-.6,1.2.1.8.4,1.1c.3.3.7.4,1.2.4s1.3-.2,1.7-.7.6-1.2.6-2v-.3h-1.3ZM300.7,108.6v4.4h-1.3v-1.2c-.3.5-.6.8-1.1,1-.4.2-1,.3-1.6.3s-1.4-.2-1.9-.7c-.5-.4-.7-1-.7-1.8s.3-1.5.9-1.9c.6-.4,1.4-.7,2.6-.7h1.8c0-.7-.2-1.2-.6-1.5s-.9-.5-1.6-.5-.9,0-1.3.2c-.4.1-.8.3-1.2.5v-1.2c.5-.2.9-.3,1.3-.4.4,0,.9-.1,1.3-.1,1.1,0,1.9.3,2.5.9.5.6.8,1.4.8,2.6Z"/>
        <path id="DejaVuSans-74" d="M304.5,103.2v2.2h2.6v1h-2.6v4.2c0,.6,0,1,.3,1.2s.5.3,1,.3h1.3v1.1h-1.3c-1,0-1.6-.2-2-.5-.4-.4-.6-1-.6-2v-4.2h-.9v-1h.9v-2.2h1.3Z"/>
        <path id="DejaVuSans-741" data-name="DejaVuSans-74" d="M310,103.2v2.2h2.6v1h-2.6v4.2c0,.6,0,1,.3,1.2s.5.3,1,.3h1.3v1.1h-1.3c-1,0-1.6-.2-2-.5-.4-.4-.6-1-.6-2v-4.2h-.9v-1h.9v-2.2h1.3Z"/>
        <path id="DejaVuSans-65" d="M320.8,108.9v.6h-5.8c0,.9.3,1.5.8,2,.5.5,1.1.7,2,.7s1,0,1.4-.2.9-.3,1.4-.5v1.2c-.5.2-.9.3-1.4.4s-1,.2-1.4.2c-1.2,0-2.2-.4-2.9-1.1-.7-.7-1.1-1.7-1.1-2.9s.3-2.2,1-3c.7-.7,1.6-1.1,2.7-1.1s1.8.3,2.4,1c.6.7.9,1.6.9,2.7ZM319.5,108.5c0-.7-.2-1.2-.6-1.6-.4-.4-.9-.6-1.5-.6s-1.3.2-1.7.6-.7,1-.7,1.7h4.5Z"/>
        <path id="DejaVuSans-72" d="M327.3,106.5c-.1,0-.3-.1-.5-.2-.2,0-.3,0-.5,0-.7,0-1.3.2-1.6.7s-.6,1.1-.6,2v4h-1.3v-7.7h1.3v1.2c.3-.5.6-.8,1-1,.4-.2.9-.3,1.5-.3s.2,0,.3,0c.1,0,.2,0,.3,0v1.3Z"/>
        <path id="DejaVuSans-79" d="M331.8,113.7c-.4.9-.7,1.5-1,1.8-.3.3-.8.4-1.4.4h-1v-1.1h.7c.3,0,.6,0,.8-.2.2-.2.4-.6.6-1.2l.2-.6-3.1-7.5h1.3l2.4,6,2.4-6h1.3l-3.4,8.4Z"/>
      </g>
    </g>
    <g id="text_2">
      <g>
        <path id="DejaVuSans-52" d="M381.7,108.2c.3.1.6.3.9.6s.6.8.8,1.4l1.4,2.8h-1.5l-1.3-2.6c-.3-.7-.7-1.1-1-1.4s-.7-.3-1.3-.3h-1.5v4.3h-1.4v-10.2h3.1c1.2,0,2,.2,2.6.7.6.5.9,1.2.9,2.2s-.1,1.2-.4,1.6c-.3.4-.7.7-1.3.9ZM378.2,103.9v3.6h1.7c.7,0,1.2-.2,1.5-.5s.5-.8.5-1.4-.2-1-.5-1.3-.8-.5-1.5-.5h-1.7Z"/>
        <path id="DejaVuSans-31" d="M386.9,111.8h2.3v-7.8l-2.5.5v-1.3l2.4-.5h1.4v9h2.3v1.2h-5.9v-1.2Z"/>
      </g>
    </g>
    <g id="text_3">
      <g>
        <path id="DejaVuSans-521" data-name="DejaVuSans-52" d="M435.7,108.2c.3.1.6.3.9.6s.6.8.8,1.4l1.4,2.8h-1.5l-1.3-2.6c-.3-.7-.7-1.1-1-1.4s-.7-.3-1.3-.3h-1.5v4.3h-1.4v-10.2h3.1c1.2,0,2,.2,2.6.7.6.5.9,1.2.9,2.2s-.1,1.2-.4,1.6c-.3.4-.7.7-1.3.9ZM432.2,103.9v3.6h1.7c.7,0,1.2-.2,1.5-.5s.5-.8.5-1.4-.2-1-.5-1.3-.8-.5-1.5-.5h-1.7Z"/>
        <path id="DejaVuSans-32" d="M441.9,111.8h4.8v1.2h-6.5v-1.2c.5-.5,1.2-1.3,2.1-2.2.9-.9,1.5-1.5,1.7-1.8.4-.5.8-.9.9-1.3.2-.3.3-.7.3-1,0-.5-.2-1-.6-1.3-.4-.3-.9-.5-1.5-.5s-.9,0-1.4.2c-.5.2-1,.4-1.5.7v-1.4c.6-.2,1.1-.4,1.6-.5.5-.1.9-.2,1.3-.2,1.1,0,1.9.3,2.5.8.6.5.9,1.2.9,2.1s0,.8-.2,1.2c-.2.4-.4.8-.9,1.3-.1.1-.5.5-1.1,1.1-.6.6-1.5,1.5-2.6,2.6Z"/>
      </g>
    </g>
    <g id="text_4">
      <g>
        <path id="DejaVuSans-522" data-name="DejaVuSans-52" d="M489.7,108.2c.3.1.6.3.9.6s.6.8.8,1.4l1.4,2.8h-1.5l-1.3-2.6c-.3-.7-.7-1.1-1-1.4s-.7-.3-1.3-.3h-1.5v4.3h-1.4v-10.2h3.1c1.2,0,2,.2,2.6.7.6.5.9,1.2.9,2.2s-.1,1.2-.4,1.6c-.3.4-.7.7-1.3.9ZM486.2,103.9v3.6h1.7c.7,0,1.2-.2,1.5-.5s.5-.8.5-1.4-.2-1-.5-1.3-.8-.5-1.5-.5h-1.7Z"/>
        <path id="DejaVuSans-33" d="M498.9,107.5c.7.1,1.2.4,1.5.9.4.4.6,1,.6,1.7,0,1-.3,1.8-1,2.3-.7.6-1.7.8-3,.8s-.9,0-1.3-.1c-.5,0-.9-.2-1.4-.4v-1.3c.4.2.8.4,1.3.5.5.1.9.2,1.4.2.9,0,1.5-.2,2-.5s.7-.8.7-1.5-.2-1.1-.6-1.4c-.4-.3-1-.5-1.8-.5h-1.2v-1.1h1.2c.7,0,1.2-.1,1.6-.4s.5-.7.5-1.2-.2-.9-.6-1.2c-.4-.3-.9-.4-1.6-.4s-.8,0-1.2.1c-.4,0-.9.2-1.4.4v-1.2c.5-.1,1-.3,1.5-.3s.9-.1,1.3-.1c1,0,1.9.2,2.5.7.6.5.9,1.1.9,1.9s-.2,1-.5,1.4-.8.7-1.4.8Z"/>
      </g>
    </g>
    <g id="text_5">
      <g>
        <path id="DejaVuSans-Oblique-49" d="M380.3,66.8h1.4l-2,10.2h-1.4l2-10.2Z"/>
        <path id="DejaVuSans-311" data-name="DejaVuSans-31" d="M383.3,78.5h1.6v-5.5l-1.7.3v-.9l1.7-.3h1v6.3h1.6v.8h-4.1v-.8Z"/>
      </g>
    </g>
    <g id="text_6">
      <g>
        <path id="DejaVuSans-Oblique-491" data-name="DejaVuSans-Oblique-49" d="M434.3,66.8h1.4l-2,10.2h-1.4l2-10.2Z"/>
        <path id="DejaVuSans-321" data-name="DejaVuSans-32" d="M437.9,78.5h3.4v.8h-4.5v-.8c.4-.4.9-.9,1.5-1.5.6-.6,1-1.1,1.2-1.2.3-.3.5-.6.6-.9.1-.2.2-.5.2-.7,0-.4-.1-.7-.4-.9-.3-.2-.6-.4-1-.4s-.6,0-1,.2c-.3.1-.7.3-1.1.5v-1c.4-.2.8-.3,1.1-.4.3,0,.6-.1.9-.1.7,0,1.3.2,1.8.6.4.4.7.9.7,1.5s0,.6-.2.8c-.1.3-.3.6-.6.9,0,0-.3.4-.8.8-.4.4-1,1.1-1.8,1.9Z"/>
      </g>
    </g>
    <g id="text_7">
      <g>
        <path id="DejaVuSans-Oblique-492" data-name="DejaVuSans-Oblique-49" d="M488.3,66.8h1.4l-2,10.2h-1.4l2-10.2Z"/>
        <path id="DejaVuSans-331" data-name="DejaVuSans-33" d="M494,75.4c.5,0,.8.3,1.1.6.3.3.4.7.4,1.2,0,.7-.2,1.3-.7,1.6-.5.4-1.2.6-2.1.6s-.6,0-.9,0c-.3,0-.6-.1-1-.3v-.9c.3.2.6.3.9.4.3,0,.7.1,1,.1.6,0,1.1-.1,1.4-.4s.5-.6.5-1-.1-.8-.4-1c-.3-.2-.7-.4-1.2-.4h-.8v-.8h.9c.5,0,.8,0,1.1-.3s.4-.5.4-.8-.1-.6-.4-.8c-.3-.2-.6-.3-1.1-.3s-.5,0-.9,0c-.3,0-.6.1-1,.3v-.9c.4-.1.7-.2,1-.2s.6,0,.9,0c.7,0,1.3.2,1.7.5.4.3.6.8.6,1.4s-.1.7-.3,1-.5.5-1,.6Z"/>
      </g>
    </g>
    <g id="text_8">
      <g>
        <path id="DejaVuSans-Oblique-493" data-name="DejaVuSans-Oblique-49" d="M310,66.8h1.4l-2,10.2h-1.4l2-10.2Z"/>
        <path id="DejaVuSans-742" data-name="DejaVuSans-74" d="M313.6,72.4v1.5h1.8v.7h-1.8v2.9c0,.4,0,.7.2.8s.4.2.7.2h.9v.7h-.9c-.7,0-1.1-.1-1.4-.4-.3-.3-.4-.7-.4-1.4v-2.9h-.6v-.7h.6v-1.5h.9Z"/>
        <path id="DejaVuSans-6f" d="M318.6,74.5c-.5,0-.8.2-1.1.6s-.4.9-.4,1.5.1,1.1.4,1.5c.3.4.6.6,1.1.6s.8-.2,1.1-.6c.3-.4.4-.9.4-1.5s-.1-1.1-.4-1.5c-.3-.4-.6-.6-1.1-.6ZM318.6,73.8c.8,0,1.4.2,1.8.7.4.5.7,1.2.7,2.1s-.2,1.6-.7,2.1c-.4.5-1,.7-1.8.7s-1.4-.2-1.8-.7c-.4-.5-.7-1.2-.7-2.1s.2-1.6.7-2.1c.4-.5,1-.7,1.8-.7Z"/>
        <path id="DejaVuSans-743" data-name="DejaVuSans-74" d="M323.4,72.4v1.5h1.8v.7h-1.8v2.9c0,.4,0,.7.2.8s.4.2.7.2h.9v.7h-.9c-.7,0-1.1-.1-1.4-.4-.3-.3-.4-.7-.4-1.4v-2.9h-.6v-.7h.6v-1.5h.9Z"/>
        <path id="DejaVuSans-611" data-name="DejaVuSans-61" d="M328.8,76.6c-.7,0-1.2,0-1.5.2s-.4.4-.4.8.1.6.3.7c.2.2.5.3.8.3s.9-.2,1.2-.5.4-.8.4-1.4v-.2h-.9ZM330.6,76.2v3.1h-.9v-.8c-.2.3-.5.6-.8.7-.3.2-.7.2-1.1.2s-1-.2-1.3-.5c-.3-.3-.5-.7-.5-1.2s.2-1.1.6-1.4c.4-.3,1-.5,1.8-.5h1.2c0-.5-.1-.8-.4-1s-.6-.3-1.1-.3-.6,0-.9.1c-.3,0-.6.2-.8.3v-.8c.3-.1.6-.2.9-.3.3,0,.6,0,.9,0,.8,0,1.4.2,1.7.6.4.4.6,1,.6,1.8Z"/>
        <path id="DejaVuSans-6c" d="M332.4,71.8h.9v7.4h-.9v-7.4Z"/>
      </g>
    </g>
    <g id="text_9">
      <g>
        <path id="DejaVuSans-Oblique-52" d="M380.2,170.6l-.7,3.6h1.8c.7,0,1.3-.2,1.7-.6.4-.4.6-.9.6-1.5s-.1-.9-.4-1.1c-.3-.3-.7-.4-1.2-.4h-1.7ZM382.7,174.8c.3,0,.5.2.7.5.2.3.4.8.7,1.6l.9,2.8h-1.5l-.8-2.6c-.2-.7-.4-1.1-.7-1.4-.3-.2-.7-.3-1.2-.3h-1.5l-.8,4.3h-1.4l2-10.2h3.1c.9,0,1.7.2,2.2.6.5.4.8,1,.8,1.8s-.2,1.3-.6,1.8c-.4.5-1,.8-1.7,1Z"/>
        <path id="DejaVuSans-744" data-name="DejaVuSans-74" d="M388.1,175.1v1.5h1.8v.7h-1.8v2.9c0,.4,0,.7.2.8s.4.2.7.2h.9v.7h-.9c-.7,0-1.1-.1-1.4-.4-.3-.3-.4-.7-.4-1.4v-2.9h-.6v-.7h.6v-1.5h.9Z"/>
        <path id="DejaVuSans-6f1" data-name="DejaVuSans-6f" d="M393.2,177.2c-.5,0-.8.2-1.1.6s-.4.9-.4,1.5.1,1.1.4,1.5c.3.4.6.6,1.1.6s.8-.2,1.1-.6c.3-.4.4-.9.4-1.5s-.1-1.1-.4-1.5c-.3-.4-.6-.6-1.1-.6ZM393.2,176.5c.8,0,1.4.2,1.8.7.4.5.7,1.2.7,2.1s-.2,1.6-.7,2.1c-.4.5-1,.7-1.8.7s-1.4-.2-1.8-.7c-.4-.5-.7-1.2-.7-2.1s.2-1.6.7-2.1c.4-.5,1-.7,1.8-.7Z"/>
        <path id="DejaVuSans-745" data-name="DejaVuSans-74" d="M398,175.1v1.5h1.8v.7h-1.8v2.9c0,.4,0,.7.2.8s.4.2.7.2h.9v.7h-.9c-.7,0-1.1-.1-1.4-.4-.3-.3-.4-.7-.4-1.4v-2.9h-.6v-.7h.6v-1.5h.9Z"/>
        <path id="DejaVuSans-612" data-name="DejaVuSans-61" d="M403.4,179.3c-.7,0-1.2,0-1.5.2s-.4.4-.4.8.1.6.3.7c.2.2.5.3.8.3s.9-.2,1.2-.5.4-.8.4-1.4v-.2h-.9ZM405.1,178.9v3.1h-.9v-.8c-.2.3-.5.6-.8.7-.3.2-.7.2-1.1.2s-1-.2-1.3-.5c-.3-.3-.5-.7-.5-1.2s.2-1.1.6-1.4c.4-.3,1-.5,1.8-.5h1.2c0-.5-.1-.8-.4-1s-.6-.3-1.1-.3-.6,0-.9.1c-.3,0-.6.2-.8.3v-.8c.3-.1.6-.2.9-.3.3,0,.6,0,.9,0,.8,0,1.4.2,1.7.6.4.4.6,1,.6,1.8Z"/>
        <path id="DejaVuSans-6c1" data-name="DejaVuSans-6c" d="M407,174.5h.9v7.4h-.9v-7.4Z"/>
        <path id="DejaVuSans-3d" d="M413.4,173.3h8.8v1.1h-8.8v-1.1ZM413.4,176.1h8.8v1.2h-8.8v-1.2Z"/>
        <path id="DejaVuSans-312" data-name="DejaVuSans-31" d="M450.4,172.7h1.6v-5.5l-1.7.3v-.9l1.7-.3h1v6.3h1.6v.8h-4.1v-.8Z"/>
        <path id="DejaVuSans-313" data-name="DejaVuSans-31" d="M429,182.3h1.1v-3.8l-1.2.2v-.6l1.2-.2h.7v4.4h1.1v.6h-2.9v-.6Z"/>
        <path id="DejaVuSans-Oblique-521" data-name="DejaVuSans-Oblique-52" d="M428.1,186.5l-.3,1.8h.9c.3,0,.6,0,.8-.3.2-.2.3-.4.3-.7s0-.4-.2-.6c-.1-.1-.3-.2-.6-.2h-.8ZM429.3,188.6c.1,0,.3.1.4.2,0,.1.2.4.3.8l.4,1.4h-.7l-.4-1.3c-.1-.3-.2-.6-.3-.7-.1-.1-.3-.2-.6-.2h-.7l-.4,2.1h-.7l1-5h1.5c.5,0,.8.1,1.1.3.2.2.4.5.4.9s-.1.6-.3.9c-.2.3-.5.4-.8.5Z"/>
        <path id="DejaVuSans-314" data-name="DejaVuSans-31" d="M431.7,191.7h.8v-2.7l-.8.2v-.4l.8-.2h.5v3.1h.8v.4h-2v-.4Z"/>
        <path id="DejaVuSans-2b" d="M442,181v2.7h2.7v.8h-2.7v2.7h-.8v-2.7h-2.7v-.8h2.7v-2.7h.8Z"/>
        <path id="DejaVuSans-315" data-name="DejaVuSans-31" d="M450.3,182.3h1.1v-3.8l-1.2.2v-.6l1.2-.2h.7v4.4h1.1v.6h-2.9v-.6Z"/>
        <path id="DejaVuSans-Oblique-522" data-name="DejaVuSans-Oblique-52" d="M449.3,186.5l-.3,1.8h.9c.3,0,.6,0,.8-.3.2-.2.3-.4.3-.7s0-.4-.2-.6c-.1-.1-.3-.2-.6-.2h-.8ZM450.6,188.6c.1,0,.3.1.4.2,0,.1.2.4.3.8l.4,1.4h-.7l-.4-1.3c-.1-.3-.2-.6-.3-.7-.1-.1-.3-.2-.6-.2h-.7l-.4,2.1h-.7l1-5h1.5c.5,0,.8.1,1.1.3.2.2.4.5.4.9s-.1.6-.3.9c-.2.3-.5.4-.8.5Z"/>
        <path id="DejaVuSans-322" data-name="DejaVuSans-32" d="M453.3,191.7h1.7v.4h-2.2v-.4c.2-.2.4-.4.7-.7.3-.3.5-.5.6-.6.2-.2.3-.3.3-.4,0-.1,0-.2,0-.3,0-.2,0-.3-.2-.5-.1-.1-.3-.2-.5-.2s-.3,0-.5,0c-.2,0-.3.1-.5.2v-.5c.2,0,.4-.1.5-.2.2,0,.3,0,.5,0,.4,0,.7,0,.9.3.2.2.3.4.3.7s0,.3,0,.4c0,.1-.2.3-.3.5,0,0-.2.2-.4.4-.2.2-.5.5-.9.9Z"/>
        <path id="DejaVuSans-2b1" data-name="DejaVuSans-2b" d="M463.2,181v2.7h2.7v.8h-2.7v2.7h-.8v-2.7h-2.7v-.8h2.7v-2.7h.8Z"/>
        <path id="DejaVuSans-316" data-name="DejaVuSans-31" d="M471.5,182.3h1.1v-3.8l-1.2.2v-.6l1.2-.2h.7v4.4h1.1v.6h-2.9v-.6Z"/>
        <path id="DejaVuSans-Oblique-523" data-name="DejaVuSans-Oblique-52" d="M470.6,186.5l-.3,1.8h.9c.3,0,.6,0,.8-.3.2-.2.3-.4.3-.7s0-.4-.2-.6c-.1-.1-.3-.2-.6-.2h-.8ZM471.8,188.6c.1,0,.3.1.4.2,0,.1.2.4.3.8l.4,1.4h-.7l-.4-1.3c-.1-.3-.2-.6-.3-.7-.1-.1-.3-.2-.6-.2h-.7l-.4,2.1h-.7l1-5h1.5c.5,0,.8.1,1.1.3.2.2.4.5.4.9s-.1.6-.3.9c-.2.3-.5.4-.8.5Z"/>
        <path id="DejaVuSans-332" data-name="DejaVuSans-33" d="M475.6,190.2c.2,0,.4.1.5.3.1.2.2.3.2.6,0,.3-.1.6-.4.8-.2.2-.6.3-1,.3s-.3,0-.5,0c-.2,0-.3,0-.5-.1v-.5c.1,0,.3.1.4.2.2,0,.3,0,.5,0,.3,0,.5,0,.7-.2s.2-.3.2-.5,0-.4-.2-.5c-.1-.1-.3-.2-.6-.2h-.4v-.4h.4c.2,0,.4,0,.5-.1s.2-.2.2-.4,0-.3-.2-.4c-.1,0-.3-.1-.5-.1s-.3,0-.4,0c-.1,0-.3,0-.5.1v-.4c.2,0,.3,0,.5-.1s.3,0,.4,0c.4,0,.6,0,.9.2.2.2.3.4.3.7s0,.4-.2.5-.3.2-.5.3Z"/>
        <path d="M426.3,177v-.9h51.8v.9h-51.8Z"/>
        <path d="M426.3,185.3v-.6h8v.6h-8Z"/>
        <path d="M447.6,185.3v-.6h8v.6h-8Z"/>
        <path d="M468.9,185.3v-.6h8v.6h-8Z"/>
      </g>
    </g>
  </g>
  <g id="figure_1">
    <g id="patch_12" data-name="patch_1">
      <path class="st0" d="M16.6,176.9h233.9V21.4H16.6v155.5Z"/>
    </g>
    <g id="axes_11" data-name="axes_1">
      <g id="line2d_11" data-name="line2d_1">
        <g class="st24">
          <path class="st1" d="M21.3,55.5h43.8M85.3,55.5h43.8"/>
        </g>
      </g>
      <g id="line2d_21" data-name="line2d_2">
        <g class="st25">
          <path class="st1" d="M65.1,42v27"/>
        </g>
      </g>
      <g id="line2d_31" data-name="line2d_3">
        <g class="st26">
          <path class="st1" d="M71.8,48.7v13.5"/>
        </g>
      </g>
      <g id="line2d_41" data-name="line2d_4">
        <g class="st27">
          <path class="st1" d="M78.5,42v27"/>
        </g>
      </g>
      <g id="line2d_51" data-name="line2d_5">
        <g class="st28">
          <path class="st1" d="M85.3,48.7v13.5"/>
        </g>
      </g>
      <g id="line2d_61" data-name="line2d_6">
        <g class="st21">
          <path class="st1" d="M129.1,55.5h35.9l3-9,6,18,6-18,6,18,6-18,6,18,3-9h35.9"/>
        </g>
      </g>
      <g id="line2d_71" data-name="line2d_7">
        <g class="st19">
          <path class="st1" d="M236.9,55.5v35.9l9,3-18,6,18,6-18,6,18,6-18,6,9,3v35.9"/>
        </g>
      </g>
      <g id="line2d_81" data-name="line2d_8">
        <g class="st22">
          <path class="st1" d="M236.9,163.3h-35.9l-3,9-6-18-6,18-6-18-6,18-6-18-3,9h-35.9"/>
        </g>
      </g>
      <g id="line2d_91" data-name="line2d_9">
        <g class="st20">
          <path class="st1" d="M129.1,163.3H21.3"/>
        </g>
      </g>
      <g id="line2d_101" data-name="line2d_10">
        <g class="st18">
          <path class="st1" d="M21.3,163.3V55.5"/>
        </g>
      </g>
      <g id="line2d_111" data-name="line2d_11">
        <g class="st14">
          <path class="st1" d="M111.1,64.4h27"/>
        </g>
      </g>
      <g id="patch_21" data-name="patch_2">
        <g class="st15">
          <path d="M138.1,61.7l9,2.7-9,2.7v-5.4Z"/>
        </g>
      </g>
      <g id="line2d_121" data-name="line2d_12">
        <g class="st16">
          <path class="st1" d="M111.1,154.3h-27"/>
        </g>
      </g>
      <g id="patch_31" data-name="patch_3">
        <g class="st17">
          <path d="M84.1,157l-9-2.7,9-2.7v5.4Z"/>
        </g>
      </g>
      <g id="text_11" data-name="text_1">
        <g>
          <path id="DejaVuSans-421" data-name="DejaVuSans-42" d="M52,30.6v3.7h2.2c.7,0,1.3-.2,1.6-.5.4-.3.5-.8.5-1.4s-.2-1.1-.5-1.4c-.4-.3-.9-.5-1.6-.5h-2.2ZM52,26.4v3.1h2c.7,0,1.2-.1,1.5-.4.3-.3.5-.6.5-1.2s-.2-.9-.5-1.2c-.3-.3-.8-.4-1.5-.4h-2ZM50.6,25.3h3.5c1.1,0,1.9.2,2.4.7.6.4.9,1.1.9,1.9s-.1,1.1-.4,1.5-.7.6-1.3.7c.7.1,1.2.5,1.6.9.4.5.6,1,.6,1.7s-.3,1.6-.9,2.1c-.6.5-1.5.7-2.6.7h-3.7v-10.2Z"/>
          <path id="DejaVuSans-613" data-name="DejaVuSans-61" d="M63.7,31.6c-1,0-1.7.1-2.1.3s-.6.6-.6,1.2.1.8.4,1.1c.3.3.7.4,1.2.4s1.3-.2,1.7-.7.6-1.2.6-2v-.3h-1.3ZM66.2,31.1v4.4h-1.3v-1.2c-.3.5-.6.8-1.1,1-.4.2-1,.3-1.6.3s-1.4-.2-1.9-.7c-.5-.4-.7-1-.7-1.8s.3-1.5.9-1.9c.6-.4,1.4-.7,2.6-.7h1.8c0-.7-.2-1.2-.6-1.5s-.9-.5-1.6-.5-.9,0-1.3.2c-.4.1-.8.3-1.2.5v-1.2c.5-.2.9-.3,1.3-.4.4,0,.9-.1,1.3-.1,1.1,0,1.9.3,2.5.9.5.6.8,1.4.8,2.6Z"/>
          <path id="DejaVuSans-746" data-name="DejaVuSans-74" d="M70,25.6v2.2h2.6v1h-2.6v4.2c0,.6,0,1,.3,1.2s.5.3,1,.3h1.3v1.1h-1.3c-1,0-1.6-.2-2-.5-.4-.4-.6-1-.6-2v-4.2h-.9v-1h.9v-2.2h1.3Z"/>
          <path id="DejaVuSans-747" data-name="DejaVuSans-74" d="M75.5,25.6v2.2h2.6v1h-2.6v4.2c0,.6,0,1,.3,1.2s.5.3,1,.3h1.3v1.1h-1.3c-1,0-1.6-.2-2-.5-.4-.4-.6-1-.6-2v-4.2h-.9v-1h.9v-2.2h1.3Z"/>
          <path id="DejaVuSans-651" data-name="DejaVuSans-65" d="M86.3,31.3v.6h-5.8c0,.9.3,1.5.8,2,.5.5,1.1.7,2,.7s1,0,1.4-.2.9-.3,1.4-.5v1.2c-.5.2-.9.3-1.4.4s-1,.2-1.4.2c-1.2,0-2.2-.4-2.9-1.1-.7-.7-1.1-1.7-1.1-2.9s.3-2.2,1-3c.7-.7,1.6-1.1,2.7-1.1s1.8.3,2.4,1c.6.7.9,1.6.9,2.7ZM85,31c0-.7-.2-1.2-.6-1.6-.4-.4-.9-.6-1.5-.6s-1.3.2-1.7.6-.7,1-.7,1.7h4.5Z"/>
          <path id="DejaVuSans-721" data-name="DejaVuSans-72" d="M92.8,29c-.1,0-.3-.1-.5-.2-.2,0-.3,0-.5,0-.7,0-1.3.2-1.6.7s-.6,1.1-.6,2v4h-1.3v-7.7h1.3v1.2c.3-.5.6-.8,1-1,.4-.2.9-.3,1.5-.3s.2,0,.3,0c.1,0,.2,0,.3,0v1.3Z"/>
          <path id="DejaVuSans-791" data-name="DejaVuSans-79" d="M97.3,36.2c-.4.9-.7,1.5-1,1.8-.3.3-.8.4-1.4.4h-1v-1.1h.7c.3,0,.6,0,.8-.2.2-.2.4-.6.6-1.2l.2-.6-3.1-7.5h1.3l2.4,6,2.4-6h1.3l-3.4,8.4Z"/>
        </g>
      </g>
      <g id="text_21" data-name="text_2">
        <g>
          <path id="DejaVuSans-Oblique-524" data-name="DejaVuSans-Oblique-52" d="M178.3,30.9l-.7,3.6h1.8c.7,0,1.3-.2,1.7-.6.4-.4.6-.9.6-1.5s-.1-.9-.4-1.1c-.3-.3-.7-.4-1.2-.4h-1.7ZM180.8,35c.3,0,.5.2.7.5.2.3.4.8.7,1.6l.9,2.8h-1.5l-.8-2.6c-.2-.7-.4-1.1-.7-1.4-.3-.2-.7-.3-1.2-.3h-1.5l-.8,4.3h-1.4l2-10.2h3.1c.9,0,1.7.2,2.2.6.5.4.8,1,.8,1.8s-.2,1.3-.6,1.8c-.4.5-1,.8-1.7,1Z"/>
          <path id="DejaVuSans-317" data-name="DejaVuSans-31" d="M185.7,41.4h1.6v-5.5l-1.7.3v-.9l1.7-.3h1v6.3h1.6v.8h-4.1v-.8Z"/>
        </g>
      </g>
      <g id="text_31" data-name="text_3">
        <g>
          <path id="DejaVuSans-Oblique-525" data-name="DejaVuSans-Oblique-52" d="M211.5,104.1l-.7,3.6h1.8c.7,0,1.3-.2,1.7-.6.4-.4.6-.9.6-1.5s-.1-.9-.4-1.1c-.3-.3-.7-.4-1.2-.4h-1.7ZM214,108.3c.3,0,.5.2.7.5.2.3.4.8.7,1.6l.9,2.8h-1.5l-.8-2.6c-.2-.7-.4-1.1-.7-1.4-.3-.2-.7-.3-1.2-.3h-1.5l-.8,4.3h-1.4l2-10.2h3.1c.9,0,1.7.2,2.2.6.5.4.8,1,.8,1.8s-.2,1.3-.6,1.8c-.4.5-1,.8-1.7,1Z"/>
          <path id="DejaVuSans-323" data-name="DejaVuSans-32" d="M219.5,114.7h3.4v.8h-4.5v-.8c.4-.4.9-.9,1.5-1.5.6-.6,1-1.1,1.2-1.2.3-.3.5-.6.6-.9.1-.2.2-.5.2-.7,0-.4-.1-.7-.4-.9-.3-.2-.6-.4-1-.4s-.6,0-1,.2c-.3.1-.7.3-1.1.5v-1c.4-.2.8-.3,1.1-.4.3,0,.6-.1.9-.1.7,0,1.3.2,1.8.6.4.4.7.9.7,1.5s0,.6-.2.8c-.1.3-.3.6-.6.9,0,0-.3.4-.8.8-.4.4-1,1.1-1.8,1.9Z"/>
        </g>
      </g>
      <g id="text_41" data-name="text_4">
        <g>
          <path id="DejaVuSans-Oblique-526" data-name="DejaVuSans-Oblique-52" d="M178.3,138.7l-.7,3.6h1.8c.7,0,1.3-.2,1.7-.6.4-.4.6-.9.6-1.5s-.1-.9-.4-1.1c-.3-.3-.7-.4-1.2-.4h-1.7ZM180.8,142.9c.3,0,.5.2.7.5.2.3.4.8.7,1.6l.9,2.8h-1.5l-.8-2.6c-.2-.7-.4-1.1-.7-1.4-.3-.2-.7-.3-1.2-.3h-1.5l-.8,4.3h-1.4l2-10.2h3.1c.9,0,1.7.2,2.2.6.5.4.8,1,.8,1.8s-.2,1.3-.6,1.8c-.4.5-1,.8-1.7,1Z"/>
          <path id="DejaVuSans-333" data-name="DejaVuSans-33" d="M188.5,146.2c.5,0,.8.3,1.1.6.3.3.4.7.4,1.2,0,.7-.2,1.3-.7,1.6-.5.4-1.2.6-2.1.6s-.6,0-.9,0c-.3,0-.6-.1-1-.3v-.9c.3.2.6.3.9.4.3,0,.7.1,1,.1.6,0,1.1-.1,1.4-.4s.5-.6.5-1-.1-.8-.4-1c-.3-.2-.7-.4-1.2-.4h-.8v-.8h.9c.5,0,.8,0,1.1-.3s.4-.5.4-.8-.1-.6-.4-.8c-.3-.2-.6-.3-1.1-.3s-.5,0-.9,0c-.3,0-.6.1-1,.3v-.9c.4-.1.7-.2,1-.2s.6,0,.9,0c.7,0,1.3.2,1.7.5.4.3.6.8.6,1.4s-.1.7-.3,1-.5.5-1,.6Z"/>
        </g>
      </g>
      <g id="text_51" data-name="text_5">
        <g>
          <path id="DejaVuSans-Oblique-494" data-name="DejaVuSans-Oblique-49" d="M117.9,73.8h1.4l-2,10.2h-1.4l2-10.2Z"/>
          <path id="DejaVuSans-748" data-name="DejaVuSans-74" d="M121.5,79.5v1.5h1.8v.7h-1.8v2.9c0,.4,0,.7.2.8s.4.2.7.2h.9v.7h-.9c-.7,0-1.1-.1-1.4-.4-.3-.3-.4-.7-.4-1.4v-2.9h-.6v-.7h.6v-1.5h.9Z"/>
          <path id="DejaVuSans-6f2" data-name="DejaVuSans-6f" d="M126.5,81.6c-.5,0-.8.2-1.1.6s-.4.9-.4,1.5.1,1.1.4,1.5c.3.4.6.6,1.1.6s.8-.2,1.1-.6c.3-.4.4-.9.4-1.5s-.1-1.1-.4-1.5c-.3-.4-.6-.6-1.1-.6ZM126.5,80.9c.8,0,1.4.2,1.8.7.4.5.7,1.2.7,2.1s-.2,1.6-.7,2.1c-.4.5-1,.7-1.8.7s-1.4-.2-1.8-.7c-.4-.5-.7-1.2-.7-2.1s.2-1.6.7-2.1c.4-.5,1-.7,1.8-.7Z"/>
          <path id="DejaVuSans-749" data-name="DejaVuSans-74" d="M131.3,79.5v1.5h1.8v.7h-1.8v2.9c0,.4,0,.7.2.8s.4.2.7.2h.9v.7h-.9c-.7,0-1.1-.1-1.4-.4-.3-.3-.4-.7-.4-1.4v-2.9h-.6v-.7h.6v-1.5h.9Z"/>
          <path id="DejaVuSans-614" data-name="DejaVuSans-61" d="M136.7,83.6c-.7,0-1.2,0-1.5.2s-.4.4-.4.8.1.6.3.7c.2.2.5.3.8.3s.9-.2,1.2-.5.4-.8.4-1.4v-.2h-.9ZM138.5,83.3v3.1h-.9v-.8c-.2.3-.5.6-.8.7-.3.2-.7.2-1.1.2s-1-.2-1.3-.5c-.3-.3-.5-.7-.5-1.2s.2-1.1.6-1.4c.4-.3,1-.5,1.8-.5h1.2c0-.5-.1-.8-.4-1s-.6-.3-1.1-.3-.6,0-.9.1c-.3,0-.6.2-.8.3v-.8c.3-.1.6-.2.9-.3.3,0,.6,0,.9,0,.8,0,1.4.2,1.7.6.4.4.6,1,.6,1.8Z"/>
          <path id="DejaVuSans-6c2" data-name="DejaVuSans-6c" d="M140.3,78.9h.9v7.4h-.9v-7.4Z"/>
        </g>
      </g>
      <g id="text_61" data-name="text_6">
        <g>
          <path id="DejaVuSans-Oblique-495" data-name="DejaVuSans-Oblique-49" d="M82,132.2h1.4l-2,10.2h-1.4l2-10.2Z"/>
          <path id="DejaVuSans-7410" data-name="DejaVuSans-74" d="M85.5,137.8v1.5h1.8v.7h-1.8v2.9c0,.4,0,.7.2.8s.4.2.7.2h.9v.7h-.9c-.7,0-1.1-.1-1.4-.4-.3-.3-.4-.7-.4-1.4v-2.9h-.6v-.7h.6v-1.5h.9Z"/>
          <path id="DejaVuSans-6f3" data-name="DejaVuSans-6f" d="M90.6,139.9c-.5,0-.8.2-1.1.6s-.4.9-.4,1.5.1,1.1.4,1.5c.3.4.6.6,1.1.6s.8-.2,1.1-.6c.3-.4.4-.9.4-1.5s-.1-1.1-.4-1.5c-.3-.4-.6-.6-1.1-.6ZM90.6,139.2c.8,0,1.4.2,1.8.7.4.5.7,1.2.7,2.1s-.2,1.6-.7,2.1c-.4.5-1,.7-1.8.7s-1.4-.2-1.8-.7c-.4-.5-.7-1.2-.7-2.1s.2-1.6.7-2.1c.4-.5,1-.7,1.8-.7Z"/>
          <path id="DejaVuSans-7411" data-name="DejaVuSans-74" d="M95.4,137.8v1.5h1.8v.7h-1.8v2.9c0,.4,0,.7.2.8s.4.2.7.2h.9v.7h-.9c-.7,0-1.1-.1-1.4-.4-.3-.3-.4-.7-.4-1.4v-2.9h-.6v-.7h.6v-1.5h.9Z"/>
          <path id="DejaVuSans-615" data-name="DejaVuSans-61" d="M100.8,142c-.7,0-1.2,0-1.5.2s-.4.4-.4.8.1.6.3.7c.2.2.5.3.8.3s.9-.2,1.2-.5.4-.8.4-1.4v-.2h-.9ZM102.5,141.6v3.1h-.9v-.8c-.2.3-.5.6-.8.7-.3.2-.7.2-1.1.2s-1-.2-1.3-.5c-.3-.3-.5-.7-.5-1.2s.2-1.1.6-1.4c.4-.3,1-.5,1.8-.5h1.2c0-.5-.1-.8-.4-1s-.6-.3-1.1-.3-.6,0-.9.1c-.3,0-.6.2-.8.3v-.8c.3-.1.6-.2.9-.3.3,0,.6,0,.9,0,.8,0,1.4.2,1.7.6.4.4.6,1,.6,1.8Z"/>
          <path id="DejaVuSans-6c3" data-name="DejaVuSans-6c" d="M104.4,137.2h.9v7.4h-.9v-7.4Z"/>
        </g>
      </g>
      <g id="text_71" data-name="text_7">
        <g>
          <path id="DejaVuSans-Oblique-527" data-name="DejaVuSans-Oblique-52" d="M44.5,102.3l-.7,3.6h1.8c.7,0,1.3-.2,1.7-.6.4-.4.6-.9.6-1.5s-.1-.9-.4-1.1c-.3-.3-.7-.4-1.2-.4h-1.7ZM47,106.5c.3,0,.5.2.7.5.2.3.4.8.7,1.6l.9,2.8h-1.5l-.8-2.6c-.2-.7-.4-1.1-.7-1.4-.3-.2-.7-.3-1.2-.3h-1.5l-.8,4.3h-1.4l2-10.2h3.1c.9,0,1.7.2,2.2.6.5.4.8,1,.8,1.8s-.2,1.3-.6,1.8c-.4.5-1,.8-1.7,1Z"/>
          <path id="DejaVuSans-7412" data-name="DejaVuSans-74" d="M52.5,106.8v1.5h1.8v.7h-1.8v2.9c0,.4,0,.7.2.8s.4.2.7.2h.9v.7h-.9c-.7,0-1.1-.1-1.4-.4-.3-.3-.4-.7-.4-1.4v-2.9h-.6v-.7h.6v-1.5h.9Z"/>
          <path id="DejaVuSans-6f4" data-name="DejaVuSans-6f" d="M57.5,109c-.5,0-.8.2-1.1.6s-.4.9-.4,1.5.1,1.1.4,1.5c.3.4.6.6,1.1.6s.8-.2,1.1-.6c.3-.4.4-.9.4-1.5s-.1-1.1-.4-1.5c-.3-.4-.6-.6-1.1-.6ZM57.5,108.2c.8,0,1.4.2,1.8.7.4.5.7,1.2.7,2.1s-.2,1.6-.7,2.1c-.4.5-1,.7-1.8.7s-1.4-.2-1.8-.7c-.4-.5-.7-1.2-.7-2.1s.2-1.6.7-2.1c.4-.5,1-.7,1.8-.7Z"/>
          <path id="DejaVuSans-7413" data-name="DejaVuSans-74" d="M62.3,106.8v1.5h1.8v.7h-1.8v2.9c0,.4,0,.7.2.8s.4.2.7.2h.9v.7h-.9c-.7,0-1.1-.1-1.4-.4-.3-.3-.4-.7-.4-1.4v-2.9h-.6v-.7h.6v-1.5h.9Z"/>
          <path id="DejaVuSans-616" data-name="DejaVuSans-61" d="M67.7,111c-.7,0-1.2,0-1.5.2s-.4.4-.4.8.1.6.3.7c.2.2.5.3.8.3s.9-.2,1.2-.5.4-.8.4-1.4v-.2h-.9ZM69.5,110.6v3.1h-.9v-.8c-.2.3-.5.6-.8.7-.3.2-.7.2-1.1.2s-1-.2-1.3-.5c-.3-.3-.5-.7-.5-1.2s.2-1.1.6-1.4c.4-.3,1-.5,1.8-.5h1.2c0-.5-.1-.8-.4-1s-.6-.3-1.1-.3-.6,0-.9.1c-.3,0-.6.2-.8.3v-.8c.3-.1.6-.2.9-.3.3,0,.6,0,.9,0,.8,0,1.4.2,1.7.6.4.4.6,1,.6,1.8Z"/>
          <path id="DejaVuSans-6c4" data-name="DejaVuSans-6c" d="M71.3,106.3h.9v7.4h-.9v-7.4Z"/>
          <path id="DejaVuSans-3d1" data-name="DejaVuSans-3d" d="M77.7,105.1h8.8v1.1h-8.8v-1.1ZM77.7,107.8h8.8v1.2h-8.8v-1.2Z"/>
          <path id="DejaVuSans-Oblique-528" data-name="DejaVuSans-Oblique-52" d="M94.2,102.3l-.7,3.6h1.8c.7,0,1.3-.2,1.7-.6.4-.4.6-.9.6-1.5s-.1-.9-.4-1.1c-.3-.3-.7-.4-1.2-.4h-1.7ZM96.7,106.5c.3,0,.5.2.7.5.2.3.4.8.7,1.6l.9,2.8h-1.5l-.8-2.6c-.2-.7-.4-1.1-.7-1.4-.3-.2-.7-.3-1.2-.3h-1.5l-.8,4.3h-1.4l2-10.2h3.1c.9,0,1.7.2,2.2.6.5.4.8,1,.8,1.8s-.2,1.3-.6,1.8c-.4.5-1,.8-1.7,1Z"/>
          <path id="DejaVuSans-318" data-name="DejaVuSans-31" d="M101.6,112.9h1.6v-5.5l-1.7.3v-.9l1.7-.3h1v6.3h1.6v.8h-4.1v-.8Z"/>
          <path id="DejaVuSans-2b2" data-name="DejaVuSans-2b" d="M116.2,102.6v3.8h3.8v1.2h-3.8v3.8h-1.1v-3.8h-3.8v-1.2h3.8v-3.8h1.1Z"/>
          <path id="DejaVuSans-Oblique-529" data-name="DejaVuSans-Oblique-52" d="M127.7,102.3l-.7,3.6h1.8c.7,0,1.3-.2,1.7-.6.4-.4.6-.9.6-1.5s-.1-.9-.4-1.1c-.3-.3-.7-.4-1.2-.4h-1.7ZM130.2,106.5c.3,0,.5.2.7.5.2.3.4.8.7,1.6l.9,2.8h-1.5l-.8-2.6c-.2-.7-.4-1.1-.7-1.4-.3-.2-.7-.3-1.2-.3h-1.5l-.8,4.3h-1.4l2-10.2h3.1c.9,0,1.7.2,2.2.6.5.4.8,1,.8,1.8s-.2,1.3-.6,1.8c-.4.5-1,.8-1.7,1Z"/>
          <path id="DejaVuSans-324" data-name="DejaVuSans-32" d="M135.8,112.9h3.4v.8h-4.5v-.8c.4-.4.9-.9,1.5-1.5.6-.6,1-1.1,1.2-1.2.3-.3.5-.6.6-.9.1-.2.2-.5.2-.7,0-.4-.1-.7-.4-.9-.3-.2-.6-.4-1-.4s-.6,0-1,.2c-.3.1-.7.3-1.1.5v-1c.4-.2.8-.3,1.1-.4.3,0,.6-.1.9-.1.7,0,1.3.2,1.8.6.4.4.7.9.7,1.5s0,.6-.2.8c-.1.3-.3.6-.6.9,0,0-.3.4-.8.8-.4.4-1,1.1-1.8,1.9Z"/>
          <path id="DejaVuSans-2b3" data-name="DejaVuSans-2b" d="M149.7,102.6v3.8h3.8v1.2h-3.8v3.8h-1.1v-3.8h-3.8v-1.2h3.8v-3.8h1.1Z"/>
          <path id="DejaVuSans-Oblique-5210" data-name="DejaVuSans-Oblique-52" d="M161.2,102.3l-.7,3.6h1.8c.7,0,1.3-.2,1.7-.6.4-.4.6-.9.6-1.5s-.1-.9-.4-1.1c-.3-.3-.7-.4-1.2-.4h-1.7ZM163.8,106.5c.3,0,.5.2.7.5.2.3.4.8.7,1.6l.9,2.8h-1.5l-.8-2.6c-.2-.7-.4-1.1-.7-1.4-.3-.2-.7-.3-1.2-.3h-1.5l-.8,4.3h-1.4l2-10.2h3.1c.9,0,1.7.2,2.2.6.5.4.8,1,.8,1.8s-.2,1.3-.6,1.8c-.4.5-1,.8-1.7,1Z"/>
          <path id="DejaVuSans-334" data-name="DejaVuSans-33" d="M171.4,109.9c.5,0,.8.3,1.1.6.3.3.4.7.4,1.2,0,.7-.2,1.3-.7,1.6-.5.4-1.2.6-2.1.6s-.6,0-.9,0c-.3,0-.6-.1-1-.3v-.9c.3.2.6.3.9.4.3,0,.7.1,1,.1.6,0,1.1-.1,1.4-.4s.5-.6.5-1-.1-.8-.4-1c-.3-.2-.7-.4-1.2-.4h-.8v-.8h.9c.5,0,.8,0,1.1-.3s.4-.5.4-.8-.1-.6-.4-.8c-.3-.2-.6-.3-1.1-.3s-.5,0-.9,0c-.3,0-.6.1-1,.3v-.9c.4-.1.7-.2,1-.2s.6,0,.9,0c.7,0,1.3.2,1.7.5.4.3.6.8.6,1.4s-.1.7-.3,1-.5.5-1,.6Z"/>
        </g>
      </g>
    </g>
  </g>
</svg>