<?xml version="1.0" encoding="UTF-8"?>
<svg id="Layer_1" xmlns="http://www.w3.org/2000/svg" width="1.404in" height=".501in" version="1.1" viewBox="0 0 101.121 36.077" style="background-color: #ffffff;">
  <!-- Generator: Adobe Illustrator 29.4.0, SVG Export Plug-In . SVG Version: 2.1.0 Build 152)  -->
  <defs>
    <style>
      .st0 {
        fill: #c79100;
      }

      .st1 {
        fill: #010101;
      }

      .st2 {
        fill: #231f20;
      }

      .st3 {
        stroke-linecap: round;
        stroke-linejoin: round;
      }

      .st3, .st4 {
        fill: none;
        stroke: #010101;
        stroke-width: .75px;
      }

      .st5 {
        fill: #5aba47;
      }

      .st4 {
        stroke-miterlimit: 10;
      }

      .st6 {
        fill: #020202;
      }

      .st7 {
        fill: #d51f26;
      }

      .st8 {
        fill: #00bcd6;
      }
    </style>
  </defs>
  <g>
    <rect class="st6" x="57.807" y="4.116" width=".844" height="1.35" transform="translate(116.458 9.581) rotate(180)"/>
    <path class="st6" d="M52.872,4.116c0-1.645,1.265-2.91,2.91-2.91s2.91,1.265,2.91,2.91-.169.422-.422.422-.422-.169-.422-.422c0-1.139-.928-2.067-2.067-2.067s-2.067.928-2.067,2.067-.169.422-.422.422-.422-.169-.422-.422Z"/>
    <rect class="st6" x="52.872" y="4.326" width=".844" height="1.35" transform="translate(106.588 10.003) rotate(180)"/>
    <path class="st6" d="M47.895,4.326c0-1.645,1.265-2.91,2.91-2.91s2.91,1.265,2.91,2.91-.169.422-.422.422-.422-.169-.422-.422c0-1.139-.928-2.067-2.067-2.067s-2.067.928-2.067,2.067-.169.422-.422.422-.422-.169-.422-.422Z"/>
    <rect class="st6" x="47.895" y="4.326" width=".844" height="1.35" transform="translate(96.633 10.003) rotate(180)"/>
    <path class="st6" d="M42.917,4.326c0-1.645,1.265-2.91,2.91-2.91s2.91,1.265,2.91,2.91-.169.422-.422.422-.422-.169-.422-.422c0-1.139-.928-2.067-2.067-2.067s-2.067.928-2.067,2.067-.169.422-.422.422-.422-.169-.422-.422Z"/>
    <rect class="st6" x="42.917" y="4.326" width=".844" height="1.35" transform="translate(86.678 10.003) rotate(180)"/>
    <path class="st6" d="M37.898,4.326c0-1.645,1.265-2.91,2.91-2.91s2.91,1.265,2.91,2.91-.169.422-.422.422-.422-.169-.422-.422c0-1.139-.928-2.067-2.067-2.067s-2.067.928-2.067,2.067-.169.422-.422.422-.422-.169-.422-.422Z"/>
    <rect class="st6" x="37.898" y="4.326" width=".844" height="1.265" transform="translate(76.639 9.918) rotate(180)"/>
    <path class="st6" d="M27.985,5.465c0-.253.169-.422.422-.422h9.955c.253,0,.422.169.422.422s-.169.422-.422.422h-9.955c-.253,0-.422-.169-.422-.422Z"/>
    <path class="st6" d="M57.807,5.465c0-.253.169-.422.422-.422h9.997c.253,0,.422.169.422.422s-.169.422-.422.422h-9.997c-.253,0-.422-.169-.422-.422Z"/>
  </g>
  <path class="st1" d="M23.387,9.304c-.03,0-.055-.022-.084-.03-.029.008-.054.03-.084.03h.169Z"/>
  <path class="st1" d="M28.312,5.044c-.169,0-.337.127-.38.295l-.717,2.193-1.856-5.61c-.042-.169-.211-.295-.38-.295s-.337.127-.38.295l-1.856,5.61-1.856-5.61c-.042-.169-.211-.295-.38-.295s-.337.127-.38.295l-1.856,5.61-1.856-5.61c-.042-.169-.211-.295-.38-.295s-.337.127-.38.295l-1.055,3.121H1.358c-.253,0-.422.169-.422.422s.169.422.422.422h13.751c.169,0,.337-.127.38-.295l.717-2.193,1.856,5.61c.042.169.211.295.38.295s.337-.127.38-.295l1.856-5.61,1.856,5.61c.042.169.211.295.38.295s.337-.127.38-.295l1.856-5.61,1.856,5.61c.035.139.16.231.295.265.135-.035.261-.127.295-.265l1.055-3.121h5.093v-.844h-5.43Z"/>
  <path class="st1" d="M80.446,9.264c-.233,0-.422-.189-.422-.422V2.009c0-.233.189-.422.422-.422s.422.189.422.422v3.037h18.896c.233,0,.422.189.422.422s-.189.422-.422.422h-18.896v2.953c0,.233-.189.422-.422.422ZM77.999,9.264c-.233,0-.422-.189-.422-.422v-2.953h-18.896c-.233,0-.422-.189-.422-.422s.189-.422.422-.422h18.896v-3.037c0-.233.189-.422.422-.422s.422.189.422.422v6.833c0,.233-.189.422-.422.422Z"/>
  <g>
    <path id="DejaVuSans-20" class="st1" d="M34.286,28.335"/>
    <path class="st1" d="M48.136,34.872c-4.626,0-8.391-3.764-8.391-8.391s3.764-8.391,8.391-8.391,8.391,3.764,8.391,8.391-3.764,8.391-8.391,8.391ZM48.136,18.841c-4.213,0-7.641,3.428-7.641,7.641s3.428,7.641,7.641,7.641,7.641-3.428,7.641-7.641-3.428-7.641-7.641-7.641Z"/>
    <path class="st3" d="M54.126,29.232"/>
    <path class="st7" d="M45.788,29.607c-1.3,0-1.876-1.521-2.433-2.991-.073-.194.024-.411.218-.484.193-.072.41.023.483.217v.002c.468,1.232.95,2.507,1.732,2.507s1.267-1.275,1.734-2.509c.558-1.471,1.134-2.993,2.435-2.993s1.877,1.521,2.435,2.993c.073.194-.024.41-.218.483-.192.072-.411-.024-.483-.218-.467-1.233-.951-2.508-1.734-2.508s-1.267,1.275-1.734,2.509c-.558,1.471-1.134,2.993-2.435,2.993Z"/>
    <path class="st1" d="M40.121,26.857h-8.31c-.207,0-.375-.168-.375-.375s.168-.375.375-.375h8.31c.207,0,.375.168.375.375s-.168.375-.375.375Z"/>
    <path class="st1" d="M64.822,26.857h-8.31c-.207,0-.375-.168-.375-.375s.168-.375.375-.375h8.31c.207,0,.375.168.375.375s-.168.375-.375.375Z"/>
    <g>
      <circle class="st2" cx="31.811" cy="26.481" r=".524"/>
      <path class="st1" d="M31.811,27.38c-.496,0-.899-.403-.899-.898s.403-.899.899-.899.899.403.899.899-.403.898-.899.898ZM31.811,26.333c-.082,0-.149.067-.149.149,0,.164.298.164.298,0,0-.082-.067-.149-.149-.149Z"/>
    </g>
    <g>
      <circle class="st2" cx="64.822" cy="26.481" r=".524"/>
      <path class="st1" d="M64.822,27.38c-.496,0-.899-.403-.899-.898s.403-.899.899-.899.899.403.899.899-.403.898-.899.898ZM64.822,26.333c-.082,0-.149.067-.149.149,0,.164.298.164.298,0,0-.082-.067-.149-.149-.149Z"/>
    </g>
  </g>
  <g>
    <g>
      <path class="st1" d="M20.925,23.953h6.637c.138,0,.25-.112.25-.25s-.112-.25-.25-.25h-6.637c-.138,0-.25.112-.25.25s.112.25.25.25Z"/>
      <path class="st1" d="M18.963,23.703c.923.342,2.068.927,2.778,1.546l-.559-1.546.559-1.545c-.71.619-1.855,1.203-2.778,1.545Z"/>
    </g>
    <path class="st8" d="M24.044,20.228h-.32v-.264h1.04v.264h-.32v2.272h.32v.264h-1.04v-.264h.32v-2.272Z"/>
  </g>
  <path class="st5" d="M50.762,11.342h-2.719v-4.156h.594v3.634h2.125v.522Z"/>
  <path class="st5" d="M80.552,15.702c-.13.096-.296.162-.498.199-.202.038-.416.057-.642.057-.265,0-.517-.043-.756-.128-.24-.084-.451-.215-.632-.391-.183-.177-.327-.4-.433-.671s-.16-.593-.16-.965c0-.388.059-.719.177-.992.119-.273.273-.495.464-.668.19-.172.404-.298.641-.377.238-.078.473-.118.706-.118.261,0,.475.014.641.041s.307.063.422.107l-.131.511c-.194-.091-.489-.137-.885-.137-.177,0-.351.028-.52.086-.168.058-.319.151-.451.279-.133.128-.239.296-.318.505-.079.208-.119.462-.119.762,0,.27.038.506.113.71.075.203.179.374.312.51.133.137.289.24.469.309.18.069.377.103.591.103.194,0,.362-.018.505-.053.142-.035.263-.081.362-.136l.142.457Z"/>
  <polyline class="st4" points="99.745 5.426 99.745 26.469 64.822 26.469"/>
  <polyline class="st4" points="1.314 5.439 1.314 26.481 36.236 26.481"/>
  <g>
    <path class="st5" d="M72.352,31.666c0-.171-.057-.306-.17-.406s-.256-.187-.429-.259-.357-.142-.554-.207c-.198-.065-.383-.148-.555-.249-.172-.101-.315-.231-.429-.391s-.17-.368-.17-.624c0-.357.131-.645.394-.863.263-.218.638-.328,1.125-.328.281,0,.54.021.775.063.235.042.42.097.555.164l-.195.529c-.105-.052-.263-.098-.473-.14s-.441-.062-.693-.062c-.286,0-.5.06-.643.181-.143.121-.214.26-.214.418,0,.163.057.294.17.394.113.1.256.188.428.266.172.077.357.151.555.223.197.071.382.16.555.265s.315.234.428.387c.114.154.17.35.17.589,0,.198-.038.376-.113.536-.076.16-.185.296-.328.41-.143.113-.315.201-.517.262-.202.061-.431.091-.687.091-.344,0-.635-.026-.873-.079-.237-.052-.417-.108-.539-.167l.208-.548c.105.052.264.104.476.158.212.054.446.081.703.081.147,0,.284-.014.41-.041s.236-.069.331-.125c.095-.056.168-.128.221-.215.052-.087.079-.192.079-.312Z"/>
    <path class="st5" d="M76.531,32.561c-.147.109-.33.196-.548.262-.219.065-.456.098-.712.098-.277,0-.518-.041-.721-.123-.204-.082-.371-.199-.501-.35-.13-.151-.227-.334-.29-.548s-.095-.454-.095-.718c0-.567.14-1.001.419-1.301.279-.301.677-.451,1.194-.451.164,0,.328.018.492.053.164.036.311.103.441.202.13.099.236.234.318.407s.123.397.123.674c0,.067-.002.145-.006.233-.004.088-.013.174-.025.258h-2.363c.008.387.101.679.277.876.177.198.477.296.901.296.176,0,.344-.03.504-.091s.284-.133.372-.217l.221.441ZM76.095,30.841c.008-.336-.06-.574-.205-.712-.145-.139-.348-.208-.608-.208-.294,0-.527.069-.699.208-.172.139-.273.376-.303.712h1.815Z"/>
    <path class="st5" d="M79.335,30.072c-.071-.018-.141-.034-.208-.048s-.13-.021-.189-.021c-.223,0-.396.057-.52.169-.124.113-.201.255-.23.427v2.233h-.58v-3.309h.403l.113.441h.057c.097-.164.209-.291.337-.381.128-.09.289-.136.482-.136.059,0,.128.005.208.016.08.01.16.028.239.053l-.113.555Z"/>
    <path class="st5" d="M80.047,28.736c0-.097.038-.184.113-.262.076-.078.174-.116.296-.116s.223.039.302.116c.08.078.12.165.12.262s-.04.182-.12.255c-.08.073-.181.11-.302.11s-.221-.037-.296-.11c-.075-.074-.113-.159-.113-.255ZM80.166,29.523h.58v3.309h-.58v-3.309Z"/>
    <path class="st5" d="M84.691,32.561c-.147.109-.33.196-.548.262-.219.065-.456.098-.712.098-.277,0-.518-.041-.721-.123-.204-.082-.371-.199-.501-.35-.13-.151-.227-.334-.29-.548s-.095-.454-.095-.718c0-.567.14-1.001.419-1.301.279-.301.677-.451,1.194-.451.164,0,.328.018.492.053.164.036.311.103.441.202.13.099.236.234.318.407s.123.397.123.674c0,.067-.002.145-.006.233-.004.088-.013.174-.025.258h-2.363c.008.387.101.679.277.876.177.198.477.296.901.296.176,0,.344-.03.504-.091s.284-.133.372-.217l.221.441ZM84.256,30.841c.008-.336-.06-.574-.205-.712-.145-.139-.348-.208-.608-.208-.294,0-.527.069-.699.208-.172.139-.273.376-.303.712h1.815Z"/>
    <path class="st5" d="M87.439,31.906c0-.084-.02-.154-.06-.211-.04-.057-.093-.105-.161-.145-.067-.04-.145-.075-.233-.104-.088-.029-.181-.059-.277-.088-.122-.034-.245-.07-.369-.11-.124-.04-.235-.094-.334-.164-.099-.069-.18-.159-.243-.268s-.095-.248-.095-.416c0-.328.098-.571.293-.731s.47-.239.823-.239c.265,0,.487.025.668.076.18.05.338.105.473.164l-.139.492c-.114-.055-.249-.108-.407-.161-.157-.053-.331-.079-.52-.079-.206,0-.359.034-.46.101-.101.067-.151.189-.151.365,0,.072.019.131.057.18.038.048.088.09.151.126.063.036.137.067.221.095s.172.054.265.079c.126.034.252.073.378.117.126.044.241.103.346.176.105.074.19.167.255.281.065.113.098.256.098.428,0,.311-.105.564-.315.76-.21.195-.525.293-.945.293-.269,0-.503-.027-.703-.082s-.367-.118-.501-.189l.164-.504c.118.063.269.126.454.189.185.063.372.095.561.095.206,0,.375-.037.507-.11.132-.073.199-.211.199-.413Z"/>
  </g>
  <path class="st0" d="M19.594,10.931c.082-.016.173-.029.273-.041s.201-.021.303-.029.204-.014.306-.018c.102-.004.198-.006.288-.006.196,0,.386.02.568.059.183.04.343.104.483.194.139.09.251.208.335.354.084.146.126.324.126.536,0,.165-.026.314-.077.448-.051.133-.122.251-.212.354s-.197.188-.321.256c-.124.069-.258.121-.403.156l.306.206,1.106,1.611h-.677l-1.224-1.736-.594-.082v1.818h-.588v-4.079ZM20.783,11.354h-.167c-.057,0-.113.002-.168.006-.055.004-.106.008-.153.012-.047.004-.084.01-.112.018v1.424h.482c.142,0,.272-.015.392-.044s.224-.075.312-.135c.088-.061.158-.14.208-.238.051-.098.077-.218.077-.359,0-.212-.075-.378-.224-.5s-.365-.183-.647-.183Z"/>
</svg>