<?xml version="1.0" encoding="UTF-8"?>
<svg id="Layer_1" xmlns="http://www.w3.org/2000/svg" version="1.1" viewBox="0 0 994.3 1162.9">
  <!-- Generator: Adobe Illustrator 29.4.0, SVG Export Plug-In . SVG Version: 2.1.0 Build 152)  -->
  <defs>
    <style>
      .st0 {
        fill: #d60000;
      }

      .st1 {
        fill: #d60000;
      }

      .st2 {
        fill: #ace3f1;
      }

      .st3, .st4 {
        fill: #5aba47;
        stroke: #000;
        stroke-width: 8px;
      }

      .st3, .st5 {
        stroke-miterlimit: 10;
      }

      .st6 {
        fill: #3175a3;
      }

      .st7 {
        opacity: .8;
      }

      .st4 {
        stroke-linejoin: round;
      }

      .st5 {
        fill: none;
        stroke: #d60000;
        stroke-width: 3px;
      }
    </style>
  </defs>
  <g>
    <rect class="st2" x="8" y="24.1" width="362.2" height="346"/>
    <polygon class="st2" points="352.6 24.1 687.4 24.1 687.4 79.4 978.2 79.4 978.2 313.8 690.8 313.8 690.8 370.1 352.6 370.1 352.6 24.1"/>
    <path class="st3" d="M977.6,68h-269.7c-4.7,0-8.4-3.8-8.4-8.4V20.3c0-4.7-3.8-8.4-8.4-8.4h-335.1c-8,0-9.2,8.5-8.4,14.9,0,4.7,3.8,8.4,8.4,8.4h312.6c4.7,0,8.4,3.8,8.4,8.4v38.5c0,4.7,3.8,8.4,8.4,8.4h292.2c7.5,0,9.3-7.8,8.4-14,0-4.7-3.8-8.4-8.4-8.4h0Z"/>
    <path class="st3" d="M977.6,324.7h-269.7c-4.7,0-8.4,3.8-8.4,8.4v39.3c0,4.7-3.8,8.4-8.4,8.4h-335.1c-8,0-9.2-8.5-8.4-14.9,0-4.7,3.8-8.4,8.4-8.4h312.6c4.7,0,8.4-3.8,8.4-8.4v-38.5c0-4.7,3.8-8.4,8.4-8.4h292.2c7.5,0,9.3,7.8,8.4,14,0,4.7-3.8,8.4-8.4,8.4h0Z"/>
    <path class="st6" d="M586.7,109.9c3.8-6.3,13.6-2.5,19.7-3,19.8.4,49.4-11.4,45-35.8-3.2-18-25.9-21.7-26.1-1,3.3,2.8,7.4-.3,11.3,1.3,3.9,2.6-.2,8.6-2.7,10.7-6.6,4.7-16-.9-18.7-7.7-8.2-23.6,22.1-37.1,38.5-21.7,11.3,9.5,11.9,27.9,4.9,40.2-14.2,22.3-46.4,29.9-70.8,23.3-.8-2.2-1.4-3.9-1.1-6.4h0Z"/>
    <path class="st6" d="M587.8,277.9c24.4-6.6,56.7.9,70.8,23.3,7,12.3,6.4,30.6-4.9,40.2-16.4,15.5-46.8,1.9-38.5-21.7,2.7-6.7,12.1-12.3,18.7-7.7,2.5,2.1,6.7,8.1,2.7,10.7-3.9,1.6-8-1.5-11.3,1.3-1.8,8.9,9.2,18.5,17.3,12.4,10.7-6.9,11.8-22.6,4.5-32.3-8.3-11.9-27-16.7-40.7-16.8-7.5,0-24.6,3.8-18.6-9.4Z"/>
    <path class="st6" d="M824,115.1c1.2,1.8,3.4,6,1.8,8.1-4.1,2.7-11.5-9.6-18.8-6-10.9,3.8-8.9,26-24.8,26.8-9.7.5-21.3-13.5-30.4-10.2-12.1,6.2-8.7,31.1-30.4,26.1-4.3-1.5-12.6-3.1-17-10.6-1.4-1.8-2.7-6.9.8-6.6,38.8,21.7,26.6-16.9,45.8-20.8,11.3-1.6,22.2,15.4,33.4,9.9,10.9-5.4,8.2-25.2,23.3-26.4,4,.6,11.7,2.8,16.2,9.7h.1Z"/>
    <path class="st6" d="M947.4,115.1c1.2,1.8,3.4,6,1.8,8.1-4.1,2.7-11.5-9.6-18.8-6-10.9,3.8-8.9,26-24.8,26.8-9.7.5-21.3-13.5-30.4-10.2-12.1,6.2-8.7,31.1-30.4,26.1-4.3-1.5-12.6-3.1-17-10.6-1.4-1.8-2.7-6.9.8-6.6,38.8,21.7,26.6-16.9,45.8-20.8,11.3-1.6,22.2,15.4,33.4,9.9,10.9-5.4,8.2-25.2,23.3-26.4,4,.6,11.7,2.8,16.2,9.7h.1Z"/>
    <path class="st6" d="M807.8,288.8c-15.1-1.2-12.4-21.1-23.3-26.4-11.2-5.5-22.1,11.5-33.4,9.9-19.2-3.9-7-42.5-45.8-20.8-3.5.2-2.2-4.8-.8-6.6,4.4-7.5,12.7-9.1,17-10.6,21.8-5,18.2,19.8,30.4,26.1,9.1,3.3,20.7-10.7,30.4-10.2,17.5.8,13.2,28,28.6,27.3,4.9.6,11.4-9,14.9-6.4,3,9.4-12.8,18-18,17.8h0Z"/>
    <path class="st6" d="M931.3,288.8c-15.1-1.2-12.4-21.1-23.3-26.4-11.2-5.5-22.1,11.5-33.4,9.9-19.2-3.9-7-42.5-45.8-20.8-3.5.2-2.2-4.8-.8-6.6,4.4-7.5,12.7-9.1,17-10.6,21.8-5,18.2,19.8,30.4,26.1,9.1,3.3,20.7-10.7,30.4-10.2,17.5.8,13.2,28,28.6,27.3,4.9.6,11.4-9,14.9-6.4,3,9.4-12.8,18-18,17.8h0Z"/>
    <path d="M60.9,179l5.7,20.8c.3,1,.5,2.1.7,3.1.2,1.1.3,2.1.5,3.1.2-1.4.5-2.7.8-4.1.3-1.3.6-2.7,1-4l5.2-19h5.7l5.8,20.9c.3,1,.5,2,.6,3s.3,2.1.4,3.1c.2-1.4.4-2.7.7-4.1.3-1.3.6-2.7,1-4l5.2-19h5.5l-10,36.1h-6.1l-5.6-20.5c-.2-.9-.4-1.8-.6-2.8-.2-.9-.3-1.8-.4-2.8-.2,1.4-.4,2.7-.7,4.1-.3,1.3-.6,2.7-1,4l-4.9,17.9h-6.3l-9.9-36.1h6.8v.3Z"/>
    <path d="M111.5,189.8l8.9,25.2h-5.1l-2.5-7.2h-7.5l-2.5,7.2h-4l8.9-25.2h3.8ZM109.1,195.8l-2.6,8.6h5.2l-2.6-8.6Z"/>
    <path d="M125.4,193.2h-7v-3.4h19v3.4h-7.1v21.8h-4.9v-21.8Z"/>
    <path d="M139.7,189.8h15.8v3.4h-10.6v7.1h8.1v3.4h-8.1v7.9h10.6v3.4h-15.3v-23.1l-.5-2.1h0Z"/>
    <path d="M158.5,189.8h8.6c1.5,0,3,.2,4.2.6,1.3.4,2.3,1.1,3.1,2.1s1.2,2.4,1.2,4.1-.3,1.9-.8,2.8c-.5.9-1.2,1.7-2,2.3s-1.7,1.1-2.6,1.3l7.7,12h-5.4l-7-11.2h-1.9v11.2h-4.7v-23.1l-.5-2.1h0ZM163.8,193.2v7.2h2.2c.9,0,1.7,0,2.4-.3s1.3-.6,1.7-1.2c.4-.6.6-1.3.6-2.3s-.2-1.4-.6-1.9c-.4-.5-.9-.9-1.4-1.1-.6-.3-1.3-.4-2-.4h-3,.1Z"/>
    <path d="M191,179h7.5v36h-6.8v-33s0-.3-.2-.7c-.1-.5-.2-.9-.3-1.4,0-.5-.2-.8-.2-.8h0Z"/>
    <path d="M209.1,189.8l9.9,15.1c.3.4.5.7.7,1.1s.5.8.7,1.2c0-.4,0-.9-.1-1.3v-16h3.8v25.3h-3.7l-11.3-17.3c-.2-.4-.5-.8-.7-1.2-.3-.4-.5-.8-.7-1.1,0,.4,0,.7.1,1.1v18.3h-3.8v-23.1l-.5-2.1h5.6Z"/>
    <path class="st6" d="M325.6,138.8c-1.1-1.7-2.2-3.7-2.1-6,.1-2,.8-3.1,2-4.3,2.9-1.4,6.6,1.6,9.3,3.2,11.9,7.1,22.6,10.6,35.4,4.3,8.2-4,15.4-10.7,24-13.6,32.8-11,46.6,19,72.2,16.7,19.3-1.7,27.6-21.3,53.9-18.4,8.8,1,26.1,2.5,32.1,11.6,1,1.5,1.3,2.6,1.3,4.6-1,1.8-1.8,2.5-3.6,2.8-5.3,1-12.1-3.7-17.3-5.3-7.1-2.1-14.6-3.3-21.9-2.4-19.4,2.4-29.2,21.1-50.6,19-22.8-2.2-36.5-25.4-61.8-18-15.4,4.5-27,19.7-43.8,18.4-7.1-.6-24.2-5.3-29-12.6h0Z"/>
    <path class="st6" d="M329.9,261.5c-1.1-1.7-2.2-3.7-2.1-6,.1-2,.8-3.1,2-4.3,2.9-1.4,6.6,1.6,9.3,3.2,11.9,7.1,22.6,10.6,35.4,4.3,8.2-4,15.4-10.7,24-13.6,32.8-11,46.6,19,72.2,16.7,19.3-1.7,27.6-21.3,53.9-18.4,8.8,1,26.1,2.5,32.1,11.6,1,1.5,1.3,2.6,1.3,4.6-1,1.8-1.8,2.5-3.6,2.8-5.3,1-12.1-3.7-17.3-5.3-7.1-2.1-14.6-3.3-21.9-2.4-19.4,2.4-29.2,21.1-50.6,19-22.8-2.2-36.5-25.4-61.8-18-15.4,4.5-27,19.7-43.8,18.4-7.1-.6-24.2-5.3-29-12.6h0Z"/>
    <rect class="st6" x="239.9" y="195.8" width="91.6" height="2.5"/>
    <rect class="st6" x="238.6" y="188.9" width="2.5" height="16.4"/>
    <g>
      <path class="st6" d="M329.4,184.4c3.1,5.3,8,9.5,13.2,12.7-5.3,3.2-9.9,7.5-13.2,12.7h-3.1c3.3-5,7.3-9.4,12.2-12.7-4.9-3.3-9-7.8-12.2-12.7h3.2-.1Z"/>
      <path class="st6" d="M321.9,184.4c3.1,5.3,8,9.5,13.2,12.7-5.3,3.2-9.9,7.5-13.2,12.7h-3.1c3.3-5,7.3-9.4,12.2-12.7-4.9-3.3-9-7.8-12.2-12.7h3.2-.1Z"/>
    </g>
  </g>
  <g>
    <rect class="st2" x="9.1" y="498.9" width="359.1" height="224.2"/>
    <polygon class="st2" points="980.9 436.7 646.2 436.7 646.2 492.1 355.4 492.1 355.4 726.5 642.7 726.5 642.7 782.7 980.9 782.7 980.9 436.7"/>
    <g>
      <path class="st3" d="M356,480.7h269.7c4.7,0,8.4-3.8,8.4-8.4v-39.4c0-4.7,3.8-8.4,8.4-8.4h335.1c8,0,9.2,8.5,8.4,14.9,0,4.7-3.8,8.4-8.4,8.4h-312.6c-4.7,0-8.4,3.8-8.4,8.4v38.5c0,4.7-3.8,8.4-8.4,8.4h-292.2c-7.5,0-9.3-7.8-8.4-14,0-4.7,3.8-8.4,8.4-8.4h0Z"/>
      <path class="st3" d="M356,737.4h269.7c4.7,0,8.4,3.8,8.4,8.4v39.3c0,4.7,3.8,8.4,8.4,8.4h335.1c8,0,9.2-8.5,8.4-14.9,0-4.7-3.8-8.4-8.4-8.4h-312.6c-4.7,0-8.4-3.8-8.4-8.4v-38.5c0-4.7-3.8-8.4-8.4-8.4h-292.2c-7.5,0-9.3,7.8-8.4,14,0,4.7,3.8,8.4,8.4,8.4h0Z"/>
    </g>
    <path class="st6" d="M355.9,551.2c36.3-3.1,43.8,16.7,73.1,18.8,30.2,2.1,44.2-17.2,71.9-18.9,42.8-.3,52.8,31.9,104.5,14.1,7.7-2.6,16.9-10.4,25-5.7,1.1,13.2-23.8,16.3-33.3,19.7-45.2,10.9-53.6-12.1-89.7-16.4-23.7-.6-41.4,16.1-64.6,18.4-41.4,4.1-52.8-23.6-86.3-18.1-9.9-.6-27.6,17.5-34,7.7,1.5-13.2,22.8-17,33.3-19.5h.1Z"/>
    <path class="st6" d="M363,637.2c22.1-1.3,37.4,13.8,57.6,18.4,33.2,7.4,51.3-15.8,81.3-18,38.4-.6,53.1,29.3,95.5,16.6,8.3-1.4,20.7-10,27.5-2.5-3.2,14.8-31.8,14.4-43.9,16.2-34.6,2.9-45.5-16.7-70.9-18.4-33.7-2.3-51.8,27.7-95,16.7-30.1-11.1-45.1-26.1-78.1-9.3-3.5,1.6-8.4,4.6-12.2,3.2-12.6-15.1,29.3-22.2,38.3-22.9h0Z"/>
    <path class="st6" d="M647.3,684.1c25.1-3.6,56.2,7.9,67.5,31.8,5.4,13,2.6,31.2-9.8,39.3-18.2,13.3-46.6-3.8-35.6-26.2,3.5-6.4,13.5-10.8,19.5-5.3,2.2,2.4,5.6,8.9,1.4,11-4,1.1-7.8-2.5-11.4-.1-2.8,8.6,6.9,19.5,15.6,14.4,11.5-5.5,14.5-21,8.4-31.5-6.8-12.8-24.7-19.8-38.3-21.7-7.4-.9-24.9.7-17.3-11.6h0Z"/>
    <path class="st6" d="M635.9,524.9c3.8-6.3,13.6-2.5,19.7-3,19.8.4,49.4-11.4,45-35.8-3.2-18-25.9-21.7-26.1-1,3.3,2.8,7.4-.3,11.3,1.3,3.9,2.6-.2,8.6-2.7,10.7-6.6,4.7-16-.9-18.7-7.7-8.2-23.6,22.1-37.1,38.5-21.7,11.3,9.5,11.9,27.9,4.9,40.2-14.2,22.3-46.4,29.9-70.8,23.3-.8-2.2-1.4-3.9-1.1-6.4h0Z"/>
    <path class="st6" d="M773.1,458.8c100.7-24.8,124.2,159.9-87.4,117.2-5.3-13.7,28.1-4,34.8-4.5,45.1,5.2,124.8-5.5,116.5-66.8-2.6-17.1-14.7-31.7-31.4-36.5-16.1-4.8-36.7-1.5-47,12.8-9.8,14.6-1.4,38,16.8,40.4,10.5,2.4,25.4-4.2,22.1-16.9-1.2-4-6.8-5-10.1-7-4.4-6.9,6.1-8.7,10.7-6,16,7.4,10.2,33.3-5.7,37.4-49.2,16.7-66.8-55.9-19.3-70.1h0Z"/>
    <path class="st6" d="M748.4,742.5c-8.5-17.2-1.1-40.8,16.4-49,19.7-9.4,50.7,4.4,41,29.2-1.5,8.8-23.8,14.2-18.4,1.8,3.3-1.9,8.9-2.9,10.1-7,3.7-17.3-20.6-21.3-31.6-13.2-6.3,4.1-9.3,9.6-10.8,16.8-5.3,21.4,17.5,35.6,36.5,34.7,7.1,0,14.1-1.6,20.5-4.7,26-11.7,33.3-48.3,16.8-70.6-25.1-31.3-71.5-32.7-108.4-30.1-6.2.5-29.8,4.7-34,1.4-1.9-1.4-1.8-4-.8-5.9,42.9-10,110.7-11.8,145.3,22.2,36.6,35,8.7,100.9-42.2,97.8-16.3-.8-33.1-8.2-40.4-23.5h0Z"/>
    <g>
      <path class="st6" d="M962.3,475.3c23,45.9-41.3,79-79.8,70.1-3.2-.8-4.9-3.7-3.9-6.8,10.8-8.9,30.8.8,50.2-10.7,25.2-10.8,41.6-45.4,9.6-58.7-10.3-4.4-24.9,8.8-10.6,14.4,5.8,0,10.6-4.9,16.9-2.9,3.6,4.3-3.7,11.2-7.5,13.3-15,6.9-31.1-11.6-24.6-26,10.8-20,41.2-10,49.8,7.4h-.1Z"/>
      <path class="st6" d="M937.4,762.3c-26.3,4.5-37.1-26.2-12.6-37.2,8.8-3.8,18.6,2.1,21,11-.2,1.5,0,1.7-1.1,2.6-6.2,1.9-11.1-2.9-16.9-2.9-14.3,5.6.4,18.8,10.6,14.4,32-13.3,15.5-47.9-9.6-58.7-14.7-11.2-56.7-1-49.7-15.3,26.7-12.4,78,8.2,86.3,37.8,6.7,20.9-6.5,44-28,48.3h0Z"/>
    </g>
    <g>
      <path d="M62.7,592.9l5.7,20.8c.3,1,.5,2.1.7,3.1.2,1.1.3,2.1.5,3.1.2-1.4.5-2.7.8-4.1.3-1.3.6-2.7,1-4l5.2-19h5.7l5.8,20.9c.3,1,.5,2,.6,3s.3,2.1.4,3.1c.2-1.4.4-2.7.7-4.1.3-1.3.6-2.7,1-4l5.2-19h5.5l-10,36.1h-6.1l-5.6-20.5c-.2-.9-.4-1.8-.6-2.8-.2-.9-.3-1.8-.4-2.8-.2,1.4-.4,2.7-.7,4.1-.3,1.3-.6,2.7-1,4l-4.9,17.9h-6.3l-9.9-36.1h6.8v.3Z"/>
      <path d="M113.3,603.7l8.9,25.2h-5.1l-2.5-7.2h-7.5l-2.5,7.2h-4l8.9-25.2h3.8ZM110.9,609.7l-2.6,8.6h5.2l-2.6-8.6Z"/>
      <path d="M127.2,607.1h-7v-3.4h19v3.4h-7.1v21.8h-4.9v-21.8Z"/>
      <path d="M141.5,603.7h15.8v3.4h-10.6v7.1h8.1v3.4h-8.1v7.9h10.6v3.4h-15.3v-23.1l-.5-2.1h0Z"/>
      <path d="M160.3,603.7h8.6c1.5,0,3,.2,4.2.6,1.3.4,2.3,1.1,3.1,2.1s1.2,2.4,1.2,4.1-.3,1.9-.8,2.8c-.5.9-1.2,1.7-2,2.3s-1.7,1.1-2.6,1.3l7.7,12h-5.4l-7-11.2h-1.9v11.2h-4.7v-23.1l-.5-2.1h0ZM165.6,607.1v7.2h2.2c.9,0,1.7-.1,2.4-.3s1.3-.6,1.7-1.2c.4-.6.6-1.3.6-2.3s-.2-1.4-.6-1.9c-.4-.5-.9-.9-1.4-1.1-.6-.3-1.3-.4-2-.4h-3,.1Z"/>
      <path d="M192.8,592.9h7.5v36h-6.8v-33s0-.3-.2-.7c-.1-.5-.2-.9-.3-1.4,0-.5-.2-.8-.2-.8h0Z"/>
      <path d="M210.9,603.7l9.9,15.1c.3.4.5.7.7,1.1s.5.8.7,1.2c0-.4,0-.9-.1-1.3v-16h3.8v25.3h-3.7l-11.3-17.3c-.2-.4-.5-.8-.7-1.2-.3-.4-.5-.8-.7-1.1,0,.4,0,.7.1,1.1v18.3h-3.8v-23.1l-.5-2.1h5.6Z"/>
    </g>
    <g class="st7">
      <rect class="st6" x="241" y="610.2" width="91.6" height="2.5"/>
      <rect class="st6" x="239.7" y="603.3" width="2.5" height="16.4"/>
      <g>
        <path class="st6" d="M330.5,598.7c3.1,5.3,8,9.5,13.2,12.7-5.3,3.2-9.9,7.5-13.2,12.7h-3.1c3.3-5,7.3-9.4,12.2-12.7-4.9-3.3-9-7.8-12.2-12.7h3.2-.1Z"/>
        <path class="st6" d="M323,598.7c3.1,5.3,8,9.5,13.2,12.7-5.3,3.2-9.9,7.5-13.2,12.7h-3.1c3.3-5,7.3-9.4,12.2-12.7-4.9-3.3-9-7.8-12.2-12.7h3.2-.1Z"/>
      </g>
    </g>
  </g>
  <g>
    <path class="st1" d="M748.9,370.9c0,1.4-.3,2.7-1,3.8-.7,1.1-1.5,2.1-2.7,2.8-1.1.7-2.3,1.2-3.7,1.4,1.6.3,3.1.8,4.5,1.7,1.4.9,2.5,2,3.3,3.3s1.3,2.9,1.3,4.6-.4,3.4-1.1,4.7c-.7,1.3-1.7,2.3-3,3.1-1.2.8-2.6,1.4-4.2,1.7-1.5.3-3.1.5-4.7.5h-12.6v-33s0-.3-.2-.7c0-.5-.2-.9-.3-1.4,0-.5-.2-.8-.2-.8h12.8c1.4,0,2.8.1,4.2.4,1.4.2,2.7.7,3.8,1.3,1.1.6,2,1.5,2.7,2.6s1,2.5,1,4.2v-.2ZM741.8,371.8c0-1-.2-1.9-.6-2.6-.4-.7-1-1.1-1.8-1.5-.8-.3-1.6-.5-2.6-.5h-4.9v9.2h5.1c.9,0,1.7-.2,2.5-.6.7-.4,1.3-.9,1.7-1.6s.6-1.5.6-2.5h0ZM743.4,387.7c0-1.5-.4-2.7-1.1-3.6-.8-.9-1.7-1.6-2.9-2s-2.4-.6-3.7-.6h-3.8v12.2h5.4c1.2,0,2.3-.2,3.2-.7s1.7-1.1,2.2-2,.8-2,.8-3.2h-.1Z"/>
    <path class="st1" d="M764.7,373.2l8.9,25.2h-5.1l-2.5-7.2h-7.5l-2.5,7.2h-4l8.9-25.2h3.8,0ZM762.3,379.2l-2.6,8.6h5.2l-2.6-8.6h0Z"/>
    <path class="st1" d="M785.7,398.9c-2,0-3.7-.3-5.3-1s-2.8-1.6-3.8-2.8c-1-1.2-1.8-2.6-2.3-4.2s-.8-3.4-.8-5.2.3-3.5.8-5.1c.6-1.6,1.3-2.9,2.4-4.1s2.3-2.1,3.8-2.7,3.2-1,5.1-1,1.8,0,2.8.3c1,.2,2,.4,3,.8s1.8.8,2.4,1.4l-2.5,3.2c-.4-.5-.9-.9-1.5-1.2-.6-.3-1.3-.6-2-.8-.7-.2-1.4-.3-2-.3-1.3,0-2.5.3-3.4.8s-1.7,1.3-2.2,2.2c-.6.9-.9,1.9-1.2,3-.2,1.1-.4,2.3-.4,3.4,0,2.1.3,3.8.9,5.3.6,1.5,1.4,2.6,2.5,3.4s2.4,1.2,4,1.2,2-.1,3.1-.4,2.2-.7,3.4-1.3l1.4,2.5c-.7.4-1.3.8-2,1.1-.6.3-1.3.6-2,.8s-1.4.4-2.1.5-1.5.2-2.3.2h.2Z"/>
    <path class="st1" d="M796.2,373.2h5.2v11.3l8.4-11.3h4.4l-8.2,11,8.9,14.2h-5.5l-8-12.8v12.8h-4.8v-23.1l-.5-2.1h0Z"/>
    <path class="st1" d="M816.3,373.2h8c1.7,0,3.2.2,4.6.7,1.4.5,2.5,1.3,3.3,2.3.8,1.1,1.3,2.6,1.3,4.5s-.4,3.2-1.3,4.3c-.9,1.1-2,1.9-3.4,2.5-1.4.5-2.9.8-4.4.8h-2.8v10.1h-4.7v-23.1l-.5-2.1h0ZM821.6,376.7v8.3h2.9c1.3,0,2.3-.4,2.9-1.2.7-.8,1-1.8,1-3s-.3-2.3-1-3-1.6-1.1-2.9-1.1h-2.9Z"/>
    <path class="st1" d="M836.1,373.2h8.6c1.5,0,3,.2,4.2.6,1.3.4,2.3,1.1,3.1,2.1s1.2,2.4,1.2,4.1-.3,1.9-.8,2.8-1.2,1.7-2,2.3c-.8.6-1.7,1.1-2.6,1.3l7.7,12h-5.4l-7-11.2h-1.9v11.2h-4.7v-23.1l-.5-2.1h.1ZM841.3,376.7v7.2h2.2c.9,0,1.7-.1,2.4-.3.7-.2,1.3-.6,1.7-1.2s.6-1.3.6-2.3-.2-1.4-.6-1.9c-.4-.5-.8-.9-1.4-1.1-.6-.3-1.3-.4-2-.4h-3,0Z"/>
    <path class="st1" d="M856.5,373.2h15.8v3.4h-10.6v7.1h8.1v3.4h-8.1v7.9h10.6v3.4h-15.3v-23.1l-.5-2.1h0Z"/>
    <path class="st1" d="M883.2,372.8c1.3,0,2.5.2,3.8.5,1.2.4,2.3.9,3.3,1.5l-2.4,3c-.6-.6-1.4-1-2.2-1.3-.9-.3-1.7-.4-2.5-.4s-1.7.2-2.4.7-1.1,1.2-1.1,2.2.2,1.2.5,1.7.8.9,1.3,1.3c.6.4,1.2.7,1.9,1.1.8.4,1.6.8,2.5,1.2.9.4,1.7.9,2.4,1.5s1.3,1.3,1.8,2.2c.5.9.7,1.9.7,3.1s-.4,3.1-1.2,4.3c-.8,1.2-1.9,2.1-3.3,2.7-1.3.6-2.8.9-4.4.9s-2.8-.2-4.2-.5-2.7-.8-3.9-1.5l1.6-3.8c.8.7,1.7,1.3,2.8,1.8s2.1.7,3.2.7,1.4-.1,2.1-.4c.6-.3,1.2-.7,1.6-1.2.4-.5.6-1.2.6-2s-.2-1.5-.7-2-1.1-1-1.8-1.4-1.5-.8-2.4-1.2c-.8-.3-1.5-.7-2.2-1.1s-1.4-.9-2-1.4-1.1-1.2-1.4-1.9c-.4-.8-.6-1.7-.6-2.7,0-1.7.4-3,1.2-4.1s1.9-1.8,3.2-2.3,2.7-.8,4.2-.8v-.4Z"/>
    <path class="st1" d="M900.9,372.8c1.3,0,2.5.2,3.8.5,1.2.4,2.3.9,3.3,1.5l-2.4,3c-.6-.6-1.4-1-2.2-1.3-.9-.3-1.7-.4-2.5-.4s-1.7.2-2.4.7-1.1,1.2-1.1,2.2.2,1.2.5,1.7.8.9,1.3,1.3c.6.4,1.2.7,1.9,1.1.8.4,1.6.8,2.5,1.2.9.4,1.7.9,2.4,1.5s1.3,1.3,1.8,2.2c.5.9.7,1.9.7,3.1s-.4,3.1-1.2,4.3c-.8,1.2-1.9,2.1-3.3,2.7-1.3.6-2.8.9-4.4.9s-2.8-.2-4.2-.5-2.7-.8-3.9-1.5l1.6-3.8c.8.7,1.7,1.3,2.8,1.8s2.1.7,3.2.7,1.4-.1,2.1-.4c.6-.3,1.2-.7,1.6-1.2.4-.5.6-1.2.6-2s-.2-1.5-.7-2-1.1-1-1.8-1.4-1.5-.8-2.4-1.2c-.8-.3-1.5-.7-2.2-1.1s-1.4-.9-2-1.4-1.1-1.2-1.4-1.9c-.4-.8-.6-1.7-.6-2.7,0-1.7.4-3,1.2-4.1s1.9-1.8,3.2-2.3,2.7-.8,4.2-.8v-.4Z"/>
    <path class="st1" d="M916.3,373.2v16.8c0,1.7.5,3,1.5,4s2.4,1.5,4,1.5,2.1-.2,3-.7c.8-.4,1.5-1.1,1.9-1.9s.7-1.8.7-3v-16.8h3.9v15.6c0,2.4-.4,4.3-1.3,5.8-.9,1.5-2.1,2.5-3.5,3.2-1.5.7-3.2,1-5.1,1-3.2,0-5.6-.9-7.4-2.6-1.7-1.7-2.6-4.2-2.6-7.4v-13.6l-.6-2.1h5.4v.2Z"/>
    <path class="st1" d="M935.2,373.2h8.6c1.5,0,3,.2,4.2.6,1.3.4,2.3,1.1,3.1,2.1s1.2,2.4,1.2,4.1-.3,1.9-.8,2.8-1.2,1.7-2,2.3c-.8.6-1.7,1.1-2.6,1.3l7.7,12h-5.4l-7-11.2h-1.9v11.2h-4.7v-23.1l-.5-2.1h.1ZM940.5,376.7v7.2h2.2c.9,0,1.7-.1,2.4-.3.7-.2,1.3-.6,1.7-1.2s.6-1.3.6-2.3-.2-1.4-.6-1.9c-.4-.5-.8-.9-1.4-1.1-.6-.3-1.3-.4-2-.4h-3,0Z"/>
    <path class="st1" d="M955.6,373.2h15.8v3.4h-10.6v7.1h8.1v3.4h-8.1v7.9h10.6v3.4h-15.3v-23.1l-.5-2.1h0Z"/>
  </g>
  <g>
    <line class="st5" x1="841.2" y1="356.7" x2="677.6" y2="72.4"/>
    <path class="st0" d="M680.3,77.1l-6.1,11.1-.4-.2-2.7-18.8c-1.9-6-3.8-12-5.7-18,4.2,4.6,8.5,9.3,12.7,13.9l14.9,11.8v.4s-12.7-.3-12.7-.3Z"/>
  </g>
  <g>
    <line class="st5" x1="841.2" y1="356.3" x2="689.8" y2="343.6"/>
    <path class="st0" d="M695.2,344l5.6,11.3-.4.2-17-8.5c-6-1.9-12-3.7-18-5.6,6.2-.8,12.5-1.7,18.7-2.5l18.2-5.5.4.2-7.5,10.3Z"/>
  </g>
  <g>
    <line class="st5" x1="841.2" y1="408.7" x2="696.7" y2="468.8"/>
    <path class="st0" d="M701.7,466.8l10.2,7.5-.2.4-19,.3c-6.2,1.1-12.4,2.2-18.6,3.3,5.1-3.6,10.3-7.2,15.4-10.8l13.6-13.2h.4s-1.9,12.6-1.9,12.6Z"/>
  </g>
  <g>
    <line class="st5" x1="841.2" y1="408.7" x2="684.8" y2="732.2"/>
    <path class="st0" d="M687.1,727.4l12.6-1.2v.4c0,0-13.9,12.8-13.9,12.8-3.9,4.9-7.8,9.9-11.7,14.8,1.5-6.1,2.9-12.2,4.4-18.3l1.4-18.9.3-.3,6.9,10.6Z"/>
  </g>
  <g>
    <rect class="st2" x="9.1" y="848.9" width="973.5" height="290.4"/>
    <rect class="st4" x="343.8" y="1127.7" width="638.8" height="23.3"/>
    <rect class="st4" x="343.8" y="837.3" width="638.8" height="23.3"/>
    <g>
      <g>
        <path d="M62.7,976.2l5.7,20.8c.3,1,.5,2.1.7,3.1.2,1.1.3,2.1.5,3.1.2-1.4.5-2.7.8-4.1.3-1.3.6-2.7,1-4l5.2-19h5.7l5.8,20.9c.3,1,.5,2,.6,3s.3,2.1.4,3.1c.2-1.4.4-2.7.7-4.1.3-1.3.6-2.7,1-4l5.2-19h5.5l-10,36.1h-6.1l-5.6-20.5c-.2-.9-.4-1.8-.6-2.8-.2-.9-.3-1.8-.4-2.8-.2,1.4-.4,2.7-.7,4.1-.3,1.3-.6,2.7-1,4l-4.9,17.9h-6.3l-9.9-36.1h6.8v.3Z"/>
        <path d="M113.3,987l8.9,25.2h-5.1l-2.5-7.2h-7.5l-2.5,7.2h-4l8.9-25.2h3.8ZM110.9,993l-2.6,8.6h5.2l-2.6-8.6Z"/>
        <path d="M127.2,990.4h-7v-3.4h19v3.4h-7.1v21.8h-4.9v-21.8Z"/>
        <path d="M141.5,987h15.8v3.4h-10.6v7.1h8.1v3.4h-8.1v7.9h10.6v3.4h-15.3v-23.1l-.5-2.1h0Z"/>
        <path d="M160.3,987h8.6c1.5,0,3,.2,4.2.6,1.3.4,2.3,1.1,3.1,2.1s1.2,2.4,1.2,4.1-.3,1.9-.8,2.8c-.5.9-1.2,1.7-2,2.3s-1.7,1.1-2.6,1.3l7.7,12h-5.4l-7-11.2h-1.9v11.2h-4.7v-23.1l-.5-2.1h0ZM165.6,990.4v7.2h2.2c.9,0,1.7-.1,2.4-.3s1.3-.6,1.7-1.2c.4-.6.6-1.3.6-2.3s-.2-1.4-.6-1.9c-.4-.5-.9-.9-1.4-1.1-.6-.3-1.3-.4-2-.4h-3,.1Z"/>
        <path d="M192.8,976.2h7.5v36h-6.8v-33s0-.3-.2-.7c-.1-.5-.2-.9-.3-1.4,0-.5-.2-.8-.2-.8h0Z"/>
        <path d="M210.9,987l9.9,15.1c.3.4.5.7.7,1.1s.5.8.7,1.2c0-.4,0-.9-.1-1.3v-16h3.8v25.3h-3.7l-11.3-17.3c-.2-.4-.5-.8-.7-1.2-.3-.4-.5-.8-.7-1.1,0,.4,0,.7.1,1.1v18.3h-3.8v-23.1l-.5-2.1h5.6Z"/>
      </g>
      <g class="st7">
        <rect class="st6" x="241" y="993.5" width="91.6" height="2.5"/>
        <rect class="st6" x="239.7" y="986.6" width="2.5" height="16.4"/>
        <g>
          <path class="st6" d="M330.5,982c3.1,5.3,8,9.5,13.2,12.7-5.3,3.2-9.9,7.5-13.2,12.7h-3.1c3.3-5,7.3-9.4,12.2-12.7-4.9-3.3-9-7.8-12.2-12.7h3.2-.1Z"/>
          <path class="st6" d="M323,982c3.1,5.3,8,9.5,13.2,12.7-5.3,3.2-9.9,7.5-13.2,12.7h-3.1c3.3-5,7.3-9.4,12.2-12.7-4.9-3.3-9-7.8-12.2-12.7h3.2-.1Z"/>
        </g>
      </g>
    </g>
    <path class="st6" d="M454.3,907.3c44.4-1.3,75.2,13.8,115.8,18.4,66.8,7.4,103.1-15.8,163.5-18,77.2-.6,106.8,29.3,192,16.6,16.7-1.4,41.6-10,55.3-2.5-6.4,14.8-63.9,14.4-88.3,16.2-69.6,2.9-91.5-16.7-142.6-18.4-67.8-2.3-104.2,27.7-191,16.7-60.5-11.1-90.7-26.1-157-9.3-7,1.6-16.9,4.6-24.5,3.2-25.3-15.1,58.9-22.2,77-22.9h-.2Z"/>
    <path class="st6" d="M454.3,978.4c44.4-1.3,75.2,13.8,115.8,18.4,66.8,7.4,103.1-15.8,163.5-18,77.2-.6,106.8,29.3,192,16.6,16.7-1.4,41.6-10,55.3-2.5-6.4,14.8-63.9,14.4-88.3,16.2-69.6,2.9-91.5-16.7-142.6-18.4-67.8-2.3-104.2,27.7-191,16.7-60.5-11.1-90.7-26.1-157-9.3-7,1.6-16.9,4.6-24.5,3.2-25.3-15.1,58.9-22.2,77-22.9h-.2Z"/>
    <path class="st6" d="M454.3,1049.5c44.4-1.3,75.2,13.8,115.8,18.4,66.8,7.4,103.1-15.8,163.5-18,77.2-.6,106.8,29.3,192,16.6,16.7-1.4,41.6-10,55.3-2.5-6.4,14.8-63.9,14.4-88.3,16.2-69.6,2.9-91.5-16.7-142.6-18.4-67.8-2.3-104.2,27.7-191,16.7-60.5-11.1-90.7-26.1-157-9.3-7,1.6-16.9,4.6-24.5,3.2-25.3-15.1,58.9-22.2,77-22.9h-.2Z"/>
    <g>
      <path class="st1" d="M561.9,1088.8h8.3c1.7,0,3.3.2,4.8.7,1.4.5,2.6,1.3,3.5,2.4.9,1.1,1.3,2.7,1.3,4.7s-.4,3.3-1.3,4.5c-.9,1.2-2.1,2-3.5,2.6-1.4.6-3,.8-4.6.8h-2.9v10.5h-4.9v-24l-.5-2.2ZM567.4,1092.4v8.7h3c1.3,0,2.4-.4,3.1-1.2.7-.8,1.1-1.9,1.1-3.1s-.3-2.4-1-3.1c-.7-.8-1.7-1.2-3.1-1.2h-3Z"/>
      <path class="st1" d="M582,1096.7h11.5v2.5h-7.7v5.2h5.9v2.5h-5.9v5.7h7.7v2.5h-11.2v-16.8l-.4-1.5Z"/>
      <path class="st1" d="M595.7,1096.7h6.3c1.1,0,2.1.2,3.1.5.9.3,1.7.8,2.3,1.6.6.7.9,1.7.9,3s-.2,1.4-.6,2-.8,1.2-1.4,1.7-1.2.8-1.9.9l5.6,8.7h-3.9l-5.1-8.2h-1.4v8.2h-3.4v-16.8l-.4-1.5ZM599.6,1099.2v5.2h1.6c.7,0,1.2,0,1.8-.2s.9-.4,1.2-.8c.3-.4.5-1,.5-1.7s-.1-1-.4-1.4c-.3-.4-.6-.6-1.1-.8-.4-.2-.9-.3-1.4-.3h-2.2Z"/>
      <path class="st1" d="M610.6,1096.7h10.8v2.5h-6.9v5.2h5.3v2.5h-5.3v8.2h-3.5v-16.8l-.4-1.5Z"/>
      <path class="st1" d="M623.4,1096.7h11.5v2.5h-7.7v5.2h5.9v2.5h-5.9v5.7h7.7v2.5h-11.2v-16.8l-.4-1.5Z"/>
      <path class="st1" d="M645.1,1115.3c-1.5,0-2.7-.2-3.8-.7-1.1-.5-2-1.2-2.7-2-.7-.9-1.3-1.9-1.7-3.1-.4-1.2-.6-2.4-.6-3.8s.2-2.6.6-3.7c.4-1.1,1-2.1,1.7-3,.8-.9,1.7-1.5,2.8-2,1.1-.5,2.3-.7,3.7-.7s1.3,0,2,.2,1.5.3,2.2.6c.7.3,1.3.6,1.8,1l-1.8,2.3c-.3-.4-.7-.7-1.1-.9-.5-.3-.9-.4-1.4-.6s-1-.2-1.5-.2c-1,0-1.8.2-2.5.6-.7.4-1.2.9-1.6,1.6-.4.7-.7,1.4-.9,2.2-.2.8-.3,1.6-.3,2.5,0,1.5.2,2.8.6,3.9.4,1.1,1,1.9,1.8,2.5s1.8.9,2.9.9,1.4,0,2.2-.3,1.6-.5,2.5-1l1,1.9c-.5.3-1,.6-1.4.8-.5.2-.9.4-1.4.6-.5.2-1,.3-1.5.3-.5,0-1.1.1-1.7.1Z"/>
      <path class="st1" d="M656.9,1099.2h-5.1v-2.5h13.8v2.5h-5.2v15.9h-3.6v-15.9Z"/>
      <path class="st1" d="M683,1088.8l5.6,15.1c.3.7.5,1.4.6,2.2s.3,1.4.4,2.2c.2-.8.3-1.5.4-2.2s.3-1.3.5-2l5.5-15.2h6.3v26.2h-4.8v-17.8c0-.4,0-.9,0-1.3s0-.9.1-1.3c-.1.4-.3.9-.4,1.3-.1.4-.3.9-.4,1.3l-6.4,17.8h-2.7l-6.6-17.8c-.2-.4-.3-.9-.4-1.3-.1-.4-.3-.9-.4-1.3,0,.4,0,.8.1,1.3s0,.9,0,1.3v17.8h-3.9v-24l-.5-2.2h6.9Z"/>
      <path class="st1" d="M713.6,1096.7l6.5,18.4h-3.7l-1.8-5.3h-5.5l-1.8,5.3h-2.9l6.5-18.4h2.7ZM711.8,1101l-1.9,6.3h3.8l-1.9-6.3Z"/>
      <path class="st1" d="M723.7,1099.2h-5.1v-2.5h13.8v2.5h-5.2v15.9h-3.6v-15.9Z"/>
      <path class="st1" d="M742.1,1115.3c-1.5,0-2.7-.2-3.8-.7-1.1-.5-2-1.2-2.7-2-.7-.9-1.3-1.9-1.7-3.1-.4-1.2-.6-2.4-.6-3.8s.2-2.6.6-3.7c.4-1.1,1-2.1,1.7-3,.8-.9,1.7-1.5,2.8-2,1.1-.5,2.3-.7,3.7-.7s1.3,0,2,.2,1.5.3,2.2.6c.7.3,1.3.6,1.8,1l-1.8,2.3c-.3-.4-.7-.7-1.1-.9-.5-.3-.9-.4-1.4-.6s-1-.2-1.5-.2c-1,0-1.8.2-2.5.6-.7.4-1.2.9-1.6,1.6-.4.7-.7,1.4-.9,2.2-.2.8-.3,1.6-.3,2.5,0,1.5.2,2.8.6,3.9.4,1.1,1,1.9,1.8,2.5s1.8.9,2.9.9,1.4,0,2.2-.3,1.6-.5,2.5-1l1,1.9c-.5.3-1,.6-1.4.8-.5.2-.9.4-1.4.6-.5.2-1,.3-1.5.3-.5,0-1.1.1-1.7.1Z"/>
      <path class="st1" d="M761.3,1106.8h-7.7v8.2h-3.5v-16.8s0-.1,0-.4-.1-.5-.2-.7c0-.3,0-.4,0-.4h3.8v7.7h7.7v-7.7h3.5v18.4h-3.5v-8.2Z"/>
    </g>
  </g>
</svg>