<?xml version="1.0" encoding="UTF-8"?>
<svg id="Layer_1" xmlns="http://www.w3.org/2000/svg" xmlns:xlink="http://www.w3.org/1999/xlink" version="1.1" viewBox="0 0 971.7 772.2">
  <!-- Generator: Adobe Illustrator 29.1.0, SVG Export Plug-In . SVG Version: 2.1.0 Build 142)  -->
  <defs>
    <style>
      .st0 {
        fill: #d58d62;
      }

      .st1 {
        fill: url(#linear-gradient2);
      }

      .st2 {
        fill: url(#linear-gradient1);
      }

      .st3 {
        fill: url(#linear-gradient3);
      }

      .st4 {
        fill: #342c26;
      }

      .st5 {
        fill: #fefcef;
      }

      .st6 {
        fill: url(#linear-gradient);
      }

      .st7 {
        fill: #f3b985;
      }

      .st8 {
        fill: #1c1917;
      }

      .st9 {
        fill: #734322;
      }

      .st10 {
        fill: #4d4e4f;
      }
    </style>
    <linearGradient id="linear-gradient" x1="625.3" y1="718.3" x2="594.9" y2="733.7" gradientTransform="translate(0 1026) scale(1 -1)" gradientUnits="userSpaceOnUse">
      <stop offset="0" stop-color="#180f09"/>
      <stop offset="1" stop-color="#3b2e25"/>
    </linearGradient>
    <linearGradient id="linear-gradient1" x1="409.2" y1="724" x2="396.6" y2="722.5" gradientTransform="translate(0 1026) scale(1 -1)" gradientUnits="userSpaceOnUse">
      <stop offset="0" stop-color="#301e18"/>
      <stop offset="1" stop-color="#383125"/>
    </linearGradient>
    <linearGradient id="linear-gradient2" x1="423.3" y1="743.3" x2="500.4" y2="1013.3" gradientTransform="translate(0 1026) scale(1 -1)" gradientUnits="userSpaceOnUse">
      <stop offset="0" stop-color="#6b3e1e"/>
      <stop offset="1" stop-color="#955c30"/>
    </linearGradient>
    <linearGradient id="linear-gradient3" x1="311.8" y1="748.4" x2="281.8" y2="735.5" gradientTransform="translate(0 1026) scale(1 -1)" gradientUnits="userSpaceOnUse">
      <stop offset="0" stop-color="#dd9567"/>
      <stop offset="1" stop-color="#f9c18c"/>
    </linearGradient>
  </defs>
  <path class="st4" d="M326.5,0c77.5,31.9,157.3-30.6,239.8,34.9v-.8c-4.6-8.9-9.8-15.9-16.6-23.4,21.4,8.8,37.1,25.1,46.3,46.3,6.4-1.7,8.7-10.6,11.1-16,.7,9.6-1.7,15.2-6.8,23.3,16.9-2.3,33.5,4.9,45.8,16.2-12.2-5.3-24.6-7.3-37.8-7.3,39.7,14,65,58.9,67.7,99.4-7.2-5.8-12.7-14.4-20.6-19.1,10.8,33.6,5.2,71-14.7,100.2,27.9,51-19.1,106.8-71.1,113-9.7,21.6-51.3,25.1-36,55,36,22,91.6-11.3,126.1,32.7,12,14.9,19.3,36.4,26.6,54.2,12.2,28,23.7,56.6,39,83.1,14.9-22.9,20-50.8,36.4-72.7,10.2-25.4,28.4-44,56.3-47.6,9-1.6,18.8-1.7,27.6-4.1,11.8-3.3,32.3-20,43.6-11.9,6.4,4.5,4.2,13.6,1.3,19.7-9.2,15.6-25.6,19.8-42.7,21.3,8.7,12.9,42.2,25.9,56.8,28.8,14,5.6,52.9-8.4,53.9,12.3,3.6,4.7,9.3,4.4,8.3,12-1.3,9.4-11.6,12.1-18.8,16-10.6,8.5-16.3,9.5-28.9,13-34.6,23-76.5,23.1-116.1,16.9-17.6,46.8-23.8,100-58.9,138.2-42.6,62.1-81.4-10.4-108.9-45.5-2.8,1.9-5.5,3.8-8.5,5.4.2,26.4,2.9,52.7,4.2,79.1h-311c-.8-31.2,1-62.8-3.5-93.8-21.7,32.2-66.1,103.9-102.8,47.9-37.5-40.8-37.7-103-51.8-154.4-36.7,6.3-76.3,1-104.9-24.5-10.2-6.2-24.1-6.8-29.8-19.3-8.9-1.5-25.5-5.7-22.3-17.8.9-2.7,3.4-4.8,5-7.2,1.8-2.8,2.8-6.2,5.5-8.4,24.9-14.7,61.9,11.5,90.1-5.3,10.8-3,25.1-10.1,33-18.1-5.5-2.1-11.9-2.9-17.6-4.5-14.4-6.4-27.9-22.4-22.9-38.8,13.9-17.3,35.4,5.2,49.6,11.6,25.9,9.7,55.5,20.1,61,51.4,1.1,12.5,10.1,19.4,13.6,31.8,4.5,20.2,7.5,41,16,60,5.8-13.5,12.4-26.6,18.2-40,19.4-43,41-122.6,102.1-108.7,15.8,2.6,36,7,51.1-.5-43.6-16.8-91.6-48.6-99.1-98-39.1-14.2-50.4-73.9-22.2-103.4-7-13.9-14.3-42.5-12.5-58.1-3.8,7.6-5.3,15.6-7.8,23.7-7-28-3-62.8,10.6-88.2-8.4,4.9-16.1,10.4-24.1,15.9-.8,0-.3.1-1.3-.3,6.2-36.2,35.9-68.4,70.3-80.5-8.8-.2-17.4,1.8-26.1,2.9,16.1-12,28.2-19.2,47.8-24.2-7.1-3.6-19.9-15.1-19-23.3Z"/>
  <path class="st10" d="M564.8,437c31.6.2,72.2-6.9,92.1,24.3,14.2,20.9,20.9,47,31.4,69.8,8.7,20.8,21.5,40.2,28.8,61.4-.6.4-.9.6-1.7.7,3.5,1.1,4.3,3.9,6.3,6.7-11.3,16.2-18,16.7-33.9,26.7-23.6,14.9-49,32.8-63.3,57.3-46.9-66.5-30.3-157.2.9-226.7-39.9,62.2-49.9,168.5-6.3,231.5.5,27.8,3.9,55.5,4.8,83.4h-296.5c-.7-87.4-8-175.5-1.3-262.7-2.7,4.8-5.1,59.9-7.2,71.1-1.5-17,.9-124.9-2.6-130.3,17.5-18.1,45-6.9,66.1-3.8-11.5,12.3-7.9,32.4-2.1,46.5,44.6,88.5,163.9,15.8,184.6-55.9Z"/>
  <path class="st8" d="M615.3,670.5c14.1-31.2,66.4-77.5,101.7-79.4v1.6c-37.1,5-80.3,47.9-101.7,77.8Z"/>
  <path class="st8" d="M369.5,638.4c25.7,40.9,57.7,72,98.5,98.3-46-5.5-81.6-58.8-98.5-98.3Z"/>
  <path class="st8" d="M623.5,80.1c30.5,18.8,50.5,57,52.6,92.4-5.2-4.7-10.1-9.7-14.9-14.8l.8-.5c3.9,2.5,7.6,7.2,10.9,10.6,3.5-21.2-18.1-57.1-32.7-72.5-3.7-5.2-16.5-11.5-16.8-15.1Z"/>
  <path class="st8" d="M275.7,116.4c-5.5,23.4-13.5,48.9-7.4,73.5,1.6-4.1,2-11.3,6.5-13.2-3,7-4.3,13.9-6.5,21.1-6.4-25.3-3.5-57.7,7.4-81.4Z"/>
  <path class="st8" d="M549.8,10.6c20.2,8.8,36.9,23.5,45,44.4-3.3-.9-3.9-6-5.8-8.5-7-10.9-16.8-25.9-30.2-29.1,1.6,5.7,8.6,10.2,7.6,16.6-4.7-8.9-9.9-15.9-16.6-23.4Z"/>
  <path class="st7" d="M483.4,99.7l.3.8-1.4,2.9-.5-.2.3.4c-8.7,14.8-26.9,34.3-38.7,46.9,29.4-5.7,59.4-20.3,83.2-38.6-8.8,16-16.7,32.5-29,46.2,21.6,1.7,44.1-11.6,55-30-1.8,28.5,5.4,56.1,28.4,74.4,1.5,34.3.1,68.7-12.3,101l.8.5c18.2-7.6,31.4-41.5,52.3-48,10.2-1.3,16.7,7.9,18.6,16.9,9.9,43.2-30.6,79.7-70.3,86.2,2-5.4,4-16.6-4.1-17.5-12.8,36.4-49.9,63-85.3,76-38,12.1-67.6,16.2-102.3-7.2-17.1-10.7-38.7-27-49.1-44.4-17.6-31.6-13.3-69.4-13.3-104.2.5-38.5-3.7-80.9,18.7-114.4,2.1,7.5,2.4,13.9,6.5,20.8,9.6-35,47.4-46.9,74.3-65.9-10.5,13.2-21.4,27.1-33.4,39,34.4-3.3,74.4-19.9,101.3-41.7Z"/>
  <path class="st4" d="M497.6,213.5c12.1.9,25.6,8.7,33.4,17.9,5.4,4.5,20.1,36.6,3.8,32.1-5.5,7.1-8.9,14.2-18.4,16.8-18,4.5-38.1-6.9-40.5-25.9-2.6-1.5-2.5-6-2.2-8.7,2.7-17.1,20-28.2,36.7-24.6-4.2-2.8-10.5-2.5-13.8-6.3l.9-1.3Z"/>
  <path class="st5" d="M475.9,254.4c-.6-19,19.3-32.2,36.8-25.7-21.6-.3-27,29.8-11.2,41.3,19.8,12.5,32.5-17.2,23.6-32.6,6.6,8.2,10,15.4,9.7,26.1-5.5,7.1-8.9,14.2-18.4,16.8-18,4.5-38.1-6.9-40.5-25.9Z"/>
  <path class="st5" d="M508.4,235c4.6-.7,6.4,6.1,2.1,7.8-5.5,2.2-7.9-7-2.1-7.8Z"/>
  <path class="st4" d="M341.7,235.7c3.7-20.4,33.5-32.2,49-17.4,10.4,10.7,11,33.5-1.7,42.7-10.6,16-41.2,7-44.3-11-4.1-2.6-3.9-10.2-2.9-14.3Z"/>
  <path class="st5" d="M345.7,238.1c3.8-13,18.5-22.3,31.6-18.1-23.8,10.1-16.2,51.1,11.6,41-10.6,16-41.2,7-44.3-11-4.1-2.6-3.9-10.2-2.9-14.3,1.3,1.2.7,3.6,1.8,3.8l1.1-2.2c1,.5.7.2,1.1.7Z"/>
  <path class="st8" d="M341.7,235.7c1.3,1.2.7,3.6,1.8,3.8l1.1-2.2c1,.5.7.2,1.1.7-.8,4-1,7.8-1.1,11.9-4.1-2.6-3.9-10.2-2.9-14.3Z"/>
  <path class="st5" d="M377.2,226.5c4.9-2.8,8.5,5.4,3.1,7.1-4.3,1.5-7.2-5-3.1-7.1Z"/>
  <path class="st4" d="M463.7,169.3c25.5,3.1,62.1,9.6,80.6,28.6,5,6.4,14.8,19.9,11.1,28.2-11.1-6-21.9-13.1-34.1-17.2-18-7.8-74.3-9.8-57.6-39.6Z"/>
  <path class="st9" d="M465.1,173.5c29.9,8.9,71.7,10.2,84.9,43.8-26.9-22.7-91.3-18.7-84.9-43.8Z"/>
  <path class="st0" d="M596.6,326.3c-3.1.4-8.1,2.8-10.2-.3-1.6-9,2.9-24.7,7.4-32.6,6.5-11.6,17.3-20.9,30.2-24.5,11.3,2.6,15.9,16.8,12.9,26.9h-.5c-.5-1.3-.8-2.5-1.1-3.9-3.1,1.5-6.6,2-9.6,3.8-4,6.9-7.8,14.9-13.9,20-1.5.2-2.9.5-4.3.8-2.6,4.1-5.3,7.8-10,9.9l-.8-.2Z"/>
  <path class="st6" d="M596.6,326.3c-3.1.4-8.1,2.8-10.2-.3-1.6-9,2.9-24.7,7.4-32.6,6.5-11.6,17.3-20.9,30.2-24.5,9.9,2.2,15.8,14.5,12.8,23.8-6.5-29.7-20.7-21-36.8-1,3.9,3.3,6.3,6.3,7.4,11.4-1.3.4-1.4.2-2.1,1.4.4,4,0,6.5-1.6,10.2l.7,1.1h1.8c-2.7,5.1-5.9,6.7-9.6,10.4Z"/>
  <path class="st0" d="M598.7,294.5c12.2,10.9,6.2,25.1-8.1,29.7,2.4-10.4,3.6-19.8,8.1-29.7Z"/>
  <path class="st8" d="M605.3,304.6c.7-1.2.8-1,2.1-1.4,1.1,4.7.7,8.4-1.1,12.9h-1.8c0-.1-.7-1.3-.7-1.3,1.6-3.7,2-6.2,1.6-10.2Z"/>
  <path class="st4" d="M398.5,157.7c2.7-.2,5.6.2,7.5,2.3v.6c-1.7.4-4.2,0-4.8,1.8,16.6,32-41.5,18.7-74.8,38,2.5-25.4,52.5-32.9,72.1-42.7Z"/>
  <path class="st9" d="M396.5,163.8c11.6,14-6.8,15.8-17,17.2-13.9,1.8-28.8,4.9-42.1,9v-.6c15.9-11.9,41-17.5,59.1-25.6Z"/>
  <path class="st4" d="M414.9,357.4c10.6-.5,20.6,4.1,30.7,6.8,5.8,1.8,14.6,2,17.2,8.4-13.4,0-29.4-10.2-43.4-10-7.6-.8-25.8,6.5-28.8,2.4,4.4-5.9,17.4-6.4,24.3-7.5Z"/>
  <path class="st2" d="M410.9,283.2c1.5,2.4-8,9.2-9,17.5-1.9,10.7,7.4,15.4,6.9,20-4.6,0-7.9-5-10.4-8.5-6.7-11.2,1.9-24.2,12.5-29Z"/>
  <path class="st8" d="M410.9,209.5c11.1,9,9.5,28.7,6,41l-.7-.2c.5-13.8.4-27.9-5.4-40.8Z"/>
  <path class="st8" d="M365.2,199.4c8.9-.2,16.9,1.8,23.5,8-11.7-4.5-23.6-7.7-35.8-3.6,4.1-2.6,7.6-3.8,12.3-4.4Z"/>
  <path class="st4" d="M431,313.6c2.3,0,6.8,0,6.5,3.3-2.4,2.3-7.8,3.8-10.4,1.2,0-2.3,2.1-3.4,3.8-4.6Z"/>
  <path class="st8" d="M477.5,221.8c6.1-5.2,12-8.3,20.1-8.2l-.9,1.3c.5,1.1,1.1,1.3,2.1,1.9-8.3-.5-13.8,1.8-21.3,5Z"/>
  <path class="st1" d="M339.8,12.2c31.8,9.5,64.2,2.9,96.4-.4,51.1-5.2,120,1.7,143.8,54.5-3.1-10.9-3.1-22-7.3-32.8,11,10,15.7,24.8,24.4,36.2-4.6,1.3-9.2,1.9-13.9,2.5,43.3,6.3,72.4,41.2,84.3,81.6-9.4-10.1-20-18.3-30.3-27.4,18.6,27.4,22.6,73.9,7.9,103.4h-.7c-1.4-5.4.1-11.3-.7-17-.8.7-.9,1.8-1,2.8,0,5.5-1.2,10.8-1.9,16.3-.8.6-.4.5-.9.6-2.6,5.2-1.3,13.9-5.2,18.6-.9,1.1-6-.9-7.6-1-1.9-.1-3.9.2-5.8.4,4.6-8.3,6.7-18,7-27.5-7.7,28.8-12.1,26.1-30.2,46.5,5.1-14.6,7.9-23.4,6.8-39.2-3.9,18-12.5,46.4-25.7,59.7,7.2-23.6,12.6-61.1,5.5-84.8.6.4,1.7.7,2.4.6,2,1.5,3.4,3.6,5,5.6-4-17-14.7-31.7-14.5-49.7l-1,1.4-.6-.3c-.3-1.4-.4-6.3-1.2-6.9-3.4,9.9,5.9,25.3,5.6,34.9.3,2.5,2.8,5.8,4,8-29.7-24.5-29.3-71.3-21.3-105.6-11,29.6-24.6,50-55.7,60.5,15.7-19.6,26.5-42.4,39.9-63.5-29.1,19-57.2,41.5-90.7,52.7,9.7-9.5,18.5-18.8,26.1-30.2,7.4-12.3,13.8-25,23.5-35.7-17.2,9.9-32.1,23.3-49.4,33-19.9,12-42.2,18.2-63.9,26.1,19.4-19,36.2-40.6,55-60.2-19.2,8.1-35.1,20.8-52.5,31.9-19.2,11.5-39.9,22.1-51.4,42.2,5.8-19.1,13.4-37.6,22.7-55.3-14.6,17.9-20.1,32-29.2,52.7-2.6-39.8,22.6-65.8,52.8-87.2-39.3,19.1-51.8,33.6-60.4,76.3-2.4,7.1-6.1,13.9-8.8,21-2,5.2-3.5,14.1-6.5,18.4l-.4-.5-1.7.3c4,6.8-1.2,16.2-1.4,23.8-2.2,17.7-3.2,40.4,0,57.9-7.2-14-15.2-28.2-15.5-44.4-1.6,6-.9,10.4.2,16.3-12-22.7-16-55.2-11.5-80.4-2.9,7.2-8.1,12.9-11.5,19.9,0-24.8,6.7-57.4,26.3-74.3-11.8,4-24,8.7-34.2,16,15.8-35.3,48.5-59.3,85.7-67.9-9.8-3.2-20.3-4.4-30.6-3.4,13-7.5,30.3-10.1,44.9-12.8-2.7-2.1-5.6-2.4-8.6-3.8v-.7c-6.2-2.6-10.9-5.5-16.1-9.8Z"/>
  <path class="st8" d="M309.3,126.5c-3.6,16.9,1,32.4,4.6,48.9l-1.7.3c-7.7-14.9-9.3-33.4-2.9-49.2Z"/>
  <path class="st8" d="M574,135.3c.9,8.9,1.8,17.7,3.3,26.5l-1,1.4-.6-.3c-.3-1.4-.4-6.3-1.2-6.9-3.4,9.9,5.9,25.3,5.6,34.9-8.2-17.7-8.8-36.6-6.1-55.6Z"/>
  <path class="st8" d="M578.3,167.1c4.4,17.3,13.3,33.2,17.1,50.6-3.9-3.4-6.9-7.6-9.9-11.8h1.3c2,1.6,3.4,3.7,5,5.6-2.2-14.7-14.8-29.4-13.5-44.4Z"/>
  <path class="st8" d="M639.9,232.5c.6-12.1,3.4-24,.6-36.1,5.5,9.9,5.8,21.3,3.8,32.3-1.8-4.8.3-10.7-.7-15.9-.8.7-.9,1.8-1,2.8,0,5.5-1.2,10.8-1.9,16.3-.8.6-.4.5-.9.6Z"/>
  <path class="st9" d="M281.8,83.4l.2.8c-2.9,3.9-12.4,16.5-12.6,20.8.8,0,1.6,0,2.4,0l.7.3-7.9,5.2c4.8-9.7,10.2-18.8,17.2-27.1Z"/>
  <path class="st8" d="M356.1,22c5.3,1.2,10.5,2.1,15.8,2.7-2.4.9-4.8,1.3-7.3,1.7-2.7-2.1-5.6-2.4-8.6-3.8v-.7Z"/>
  <path class="st8" d="M584.1,85.1c18.2,6.7,34,25.1,41.2,42.8-2.6-1.8-13.6-18.8-17.2-22.8-7.1-7.8-15.7-13.5-24-20Z"/>
  <path class="st8" d="M532,62.4c8.8-.8,17.8.1,26.2,2.8-14.9-1.2-29.9-1.9-44.6,2.3,5.9-3,11.9-4.3,18.4-5.1Z"/>
  <path class="st7" d="M880.9,459.1c11.4,1.7,4,14.9-1.4,19.5-9.5,9.4-23,10.6-35.6,10.6-1.3,4.5-3.2,10.3,1.1,13.9,18.1,14,41,25.9,63.9,28.6,14.4,2.8,32.5-5.7,44.5,4.4-27.2-4.5-52.4,15-76.6-.5-7.4,5.2-13.9,12.6-20.8,18.6-4.9,4.2-11.5,8-15.5,12.9,13.8-2.6,25.6-17.6,36.3-26.2,10.7,6.2,23.3,6.9,35.2,4.2,14.1-2.4,26.9-5.5,41.2-2.4,15.9,3,1.8,14-6.2,16.5-21.2-16-47.7-7.2-71.2-2.7,23.4,7.3,42-11.4,67.7,5.6-38.2,26.2-26.8-18.8-92.4,10.6.8.8,1,.6,2.1.8,20.6-3.5,42.3-12.2,61.6.6-44,26.9-88.5,18.6-135.1,9.2l-.2,1c3.2,4.8,11.8,6.3,16.8,8.8-17.4,46.2-23.1,98.8-58.1,136.2-8.9,10.5-21.5,26.8-37,19.9-23.4-10.5-47-46.5-61.4-67.4-10.1-14.9,52.7-47.1,64.3-54.3-10.7,14.3-24.6,28.6-27.5,46.7,1.4,1.9.7,5.4.8,7.7.5-1.5,1.1-2.9,1.6-4.4h.5s.4,1,.4,1c9.1-32.2,36.8-52.4,51.1-82.1,6-10.9,11.4-22,16.2-33.5,5-13.6,10-27.1,19.6-38.2,16.7-46.4,41.5-45.5,83.9-53.2,10.6-3.2,19.2-10.4,30.2-12.5Z"/>
  <path class="st0" d="M876.9,540.9c10.7,6.2,23.3,6.9,35.2,4.2,14.1-2.4,26.9-5.5,41.2-2.4,15.9,3,1.8,14-6.2,16.5-21.2-16-47.7-7.2-71.2-2.7,23.4,7.3,42-11.4,67.7,5.6-38.2,26.2-26.8-18.8-92.4,10.6.8.8,1,.6,2.1.8.6,1.9,1.1,3.8,1.5,5.7,2.6.9,8.9,3.8,11.5,3v-.4c3-2.5,11.2-5.8,15.1-5.7-3.9,2.9-8.6,3.7-13,5.4v.7c1.1.7,2.2,1.4,3.1,2.3l-.5.3c-2.8-.3-14.4-3.3-16.5-4.7-1.8-1.5-.7-4.2-2.2-6-2.2.5-5.2,1.8-5.8,4.2,1.8,1.1,3.8,0,5.6.8l-.7.5c-2.7.3-5.6.1-8.1-1,0-.8,4.5-2.2,5.5-3.3-1.4-3.6-11.7-.1-11.8-4.7.9-2,1.6-2.3,3.4-3.4,13.8-2.6,25.6-17.6,36.3-26.2Z"/>
  <path class="st0" d="M704.1,627.5c-8.4,9.8-15.4,20.3-22.3,31.1v-1.8c-3.8-1.3-6.9,4.2-9.6,6.1-4.6,4.1-9.5,8.2-13.2,13.3-3.8,5.2-6.5,12.6-11.2,16.8-3.1-5.3-9.7-10.4-9.5-16.8,15.5-22.7,42.8-34.8,65.8-48.8Z"/>
  <path class="st0" d="M762,578.3c0-2.3,0-4.5.6-6.7,3.4-1,21.4,7.6,21.5,11.2-1.6-.1-3-.4-4.3.5l-.2,1c3.2,4.8,11.8,6.3,16.8,8.8l-3.3,10c-10.8-2.6-25.6-15.2-31-24.7Z"/>
  <path class="st0" d="M853.3,573.5c20.6-3.5,42.3-12.2,61.6.6-7.4,3.9-14.9,7.9-22.9,10.3,4.7-4.4,16.6-5.9,20.6-10.6-14-9.5-33.5-4.5-48.6-1.6l.2.5c1.8,0,3.2.9,3.9,2.6l-.4.7c-.9.3-1.8.6-2.7.9-1.5.4-.3,1.6-1.5,2.7-2.7.4-6.2-2.9-4.2-5.5.8-.4,1.6-.7,2.4-1.2h.1c-1.9.3-6,.2-7.4,1.4-.7,5.2,8,7.9,12,7.5v.4c-2.6.8-9-2.1-11.6-3-.5-1.9-1-3.8-1.5-5.7Z"/>
  <path class="st8" d="M676.6,674.2c1.4,1.9.7,5.4.8,7.7.5-1.5,1.1-2.9,1.6-4.4h.5s.4,1,.4,1c-1.3,5.6-2.1,11.3-4.2,16.8-1.5-6.4-.6-14.9,1-21.2Z"/>
  <path class="st8" d="M789.5,522.4c15.4-1.3,32.2,9.2,39,23-11.5-9.6-21.2-18.9-36.6-21.5-1.5-.3-1.6-.2-2.4-1.5Z"/>
  <path class="st7" d="M17,501c37.5-15.5,59.4,17.2,112-15.4,9-3.7,18.9-9.9,14.1-21.1-2.7-2.3-7.5-.7-11-1.4-8-.8-16.2-5.7-21.4-11.7-6.4-6.7-13.2-27.1,3.2-22.4,12.2,2.3,22.2,12.3,33.2,17.5,15.3,6.6,33.3,9.5,44.1,23.5,8.9,10,9.3,21,13.2,32.6,2.2,6.1,7.7,10.3,9.7,16.6,5.7,21.4,8.1,44,17.1,64.5,5.2,12.6,11.3,25.1,18.2,36.8,9.2,14.6,20.1,28.6,24.2,45.7,1.6,7,2.9,14,4.5,21,.3,6.8.7,19.1,7.6,22.6-22.5,26-42.8,47.9-68,10.3-36-40.5-33.9-99.9-49.5-149.3,8.7-3.3,20.9-4.3,26.2-12.8-42.7,11.5-95.1,18.3-131.1-13.3,17.5-10.9,36.8,3.1,55.8,3.7.3-.5.1-.2.2-1.1-7.6-2.9-34.7-14.2-44.4-11.9-5.5.7-10.4,3.9-15.7,4.5-6.9.5-22.6-6.1-25.5-12.6,18.5-17.9,44.5,4,60.1,2.1l.3-.7c-4-4-11.8-5.6-17-7.3-6.2-2-12.1-5.5-18.6-6.5-13.6-2-24.8,8.5-35.7,6.1-8.1-1.8-19.2-7.6-6-13.2,26.6-10.3,56.1,17.4,82.8,6.5,6.2,8,11.6,16.6,20.1,22.5.9-.5,1.5-.1,2.5,0l-.5-2.3c-8-7.7-14.1-17.2-21.1-25.6-27,10.7-54.9-14.4-83.7-8.1Z"/>
  <path class="st0" d="M63.3,544.7c17.5-10.9,36.8,3.1,55.8,3.7-1.8,1-2.3,1.1-4.4.8-3.3-.5-8.2,4.1-11.3,5.5-1.9.4-12.2,4.9-13.4,3.2l-.9.6c1.2.6,2.2,1.1,3,2.2-10.1-3.5-21.5-7.8-28.8-16Z"/>
  <path class="st0" d="M194.4,558c2.5-2.2,6.9-5.5,10.1-2.8.4,16.8-19,24.1-32.4,28.5-1.4-4.3-2.6-8.6-3.9-12.9,8.7-3.3,20.9-4.3,26.2-12.8Z"/>
  <path class="st8" d="M121.7,534.7c2.3,2.1,4.8,4.1,6.1,7v.8c-3.2-.4-5.9-3.6-8.1-5.6.9-.5,1.5-.1,2.5,0l-.5-2.3Z"/>
  <path class="st8" d="M183.6,501.4c3.4-.2,6.7,0,10.1,0-15.6,3.1-29.3,9.9-40.9,20.9,7.7-11,17.3-18.9,30.8-20.9Z"/>
  <path class="st7" d="M419.1,443.3c37.6-5.2,74.8-20.5,106.7-40.9-1.8,11.4-1,25.2,11.2,30.4-15,47.2-66.7,82-115.9,66.5-7.8-3.1-12.6-9.1-15.8-16.6-6.9-13.3-1.6-27.1,8.7-36.8,3.3,9,3.2,19.2,6.5,28.2.7-1.4.3-2.7.6-4.2.6.8,1.2,1.7,1.7,2.6,1.8-8.9-2.8-20.1-3.8-29.2Z"/>
  <path class="st0" d="M419.1,443.3c37.6-5.2,74.8-20.5,106.7-40.9,3.1,25.8-47.1,40.2-65.7,50.2-12.1,6-25.2,11.6-38.2,4.7-1.3-4.4-1.7-9.5-2.8-14Z"/>
  <path class="st0" d="M404.1,459c2.7-4.9,6.3-9,10-13.2,2.8,8.3,3.6,17.4,5.6,25.9-.6-.1-1.6-.3-2.2-.5-4.3-4.3-8.3-8.7-13.4-12.2Z"/>
  <path class="st10" d="M314.8,450.6c1.6,33.7-1,79.2,0,113.3-7.8-17.7-8.5-37-14.8-55.2,2.3,16.5,3.2,33.2,5.6,49.7,2.3,12,8.8,23.1,11.5,35.1,1.7,15.5-.1,31.4-.4,47h-.7c-9.6-14.9-55.1-46.8-72.4-50.2,19.9-42.3,38.5-106.5,71.2-139.7Z"/>
  <path class="st10" d="M542.5,434.6c6.2.5,12.3,1.2,18.4,2-20,60.4-98,120.6-159.1,79.1-23-16.1-35.6-74.2,5.7-72.2-9.6,10.1-12.9,24.6-8,37.7,10,32.9,53.2,29.7,79.2,20.3,32.8-11.7,50.8-36.1,63.7-66.9Z"/>
  <path class="st0" d="M253.5,615.5c12.1,9.4,23.4,19.6,34.7,30.1,8.3,8.1,18.6,15.5,22.5,26.8-3.7,12.2-16.2,27.9-24.9,37.4-6.9-3.6-7.2-15.8-7.6-22.6-1.6-7-2.8-14-4.5-21,.8-.2.4-.2,1.3,0,.3,1.3.9,2.2,1.7,3.3-.2-2.7-1.3-6.4,0-8.8-2.1-11.7-16.4-35.4-23.2-45.1Z"/>
  <path class="st8" d="M273.7,666.1c.8-.2.4-.2,1.3,0,.3,1.3.9,2.2,1.7,3.3-.2-2.7-1.3-6.4,0-8.8,1.3,5.7,4.3,21.5,1.4,26.6-1.6-7-2.8-14-4.5-21Z"/>
  <path class="st3" d="M293.7,237c2.2,4.1,4.3,8.3,6.2,12.6-10.4,2.8-15,12.7-14.8,22.8,3.4-9,7.6-15.5,16.9-19.1,12.2,20.5,3.8,51.9,7.1,73.8-31.6-16.1-38.5-64.1-15.4-90.1Z"/>
  <path class="st0" d="M307.8,269.6c.9,5.1,1.6,34.2.3,38.6l-.4-.8-.7.2-.6,1.2-.6.3c-.2-3.2-5.4-10-6.4-14.3-2.7-9.4,3.8-16.5,7.3-24.2l1.1-.9Z"/>
  <path class="st8" d="M306.7,270.4c-3.5,7.7-10.1,14.9-7.3,24.2,1,4.3,6.2,11.1,6.4,14.3-10.7-8.6-14.1-29.1-2.2-37.9v1.3c.1,0,.5.1.5.1l2.6-2.1Z"/>
  <path class="st10" d="M243.9,591.9c22.7,12.2,80.8,40.4,72,71.5-14-12.9-31.9-33.4-48-45.6-8.7-8-24.5-11.6-24-25.9Z"/>
  <path class="st0" d="M565,359c2.2,8.1-8.7,16-14.4,20.2,4.2-6.3,11-12.9,14.4-20.2Z"/>
</svg>