<?xml version="1.0" encoding="UTF-8"?>
<svg id="Layer_1" xmlns="http://www.w3.org/2000/svg" width="12.342in" height="9.724in" version="1.1" viewBox="0 0 888.6 700.1">
  <!-- Generator: Adobe Illustrator 29.4.0, SVG Export Plug-In . SVG Version: 2.1.0 Build 152)  -->
  <defs>
    <style>
      .st0 {
        fill: #0d1b03;
      }

      .st1 {
        fill: #fcba25;
      }

      .st2 {
        fill: #d60000;
      }

      .st3 {
        fill: #040e02;
      }

      .st4 {
        fill: #e9a612;
      }

      .st5 {
        fill: #5aba47;
      }

      .st6 {
        fill: #d8d4c5;
      }

      .st7 {
        fill: #5aba47;
      }

      .st8 {
        fill: #f07900;
      }

      .st9 {
        fill: #be7e14;
      }

      .st10 {
        fill: #a36a0e;
      }

      .st11 {
        fill: #d5bc2a;
      }

      .st12 {
        fill: #fefefe;
      }

      .st13 {
        fill: #242003;
      }

      .st14 {
        fill: #608d99;
      }

      .st15 {
        fill: #474938;
      }

      .st16 {
        fill: #ad9922;
      }

      .st17 {
        fill: #a8dde1;
      }
    </style>
  </defs>
  <g>
    <g>
      <g>
        <path class="st13" d="M402.4,471.5c-3.2-4.8-8.1-7.5-14-6.8-12.6-13.3-28.4-4-28.7,12.8-14.7,5.5-14.4,25.6-2.3,33.8-3.8,4.7-7.9,9.3-10.7,14.6-9.7-4.6-17.5-13.1-27.3-17.8,43-39.8,29.1-124.8-35.2-130-33.736-2.728-79.64,25.155-86.279,62.35-3.043,17.049,1.631,39.043,8.192,48.698,3.46,5.092,7.993,9.812,7.993,9.812,4.269,4.445,8.152,7.422,11.122,9.68,3.431,2.609,6.472,4.622,8.773,6.061-16.4,9.5-38.4,24.3-44.4,43.2,2.9,13.6,10.6,20.6,20.1,29.9-11.3,12.4,6,26.6,19,22.6-4.9,10.8-9.7,22.2-15.8,32.4-4.3,8.2-15.2,15.2-12.9,25.4,8.2,12,43.4,12,55.8,8.3,14-5.2-4.1-20.9-11.8-22.8,9.2-16.7,17.4-33.9,24.7-51.5,6.3-.4,12.7-.2,19-.7,8.3,6.3,16.5,14,25.5,19.3-1.3,7.5-8.7,39-7,44,8.1,8.4,51.7,9.4,60.8,3.2,8.2-10.9-16.7-19.8-24.3-22.5,9.9-43.4-4.6-45.1-34.7-70.1,2.3-10,3.5-20.3,5.7-30.4,41.4,24.9,54.7,21,77-21.8,23.4-1.8,39.9-44.2,11.7-51.7ZM239.2,570.7c-8.4,2.2-10.6-8.3-15.8-12.7,5.4-3.5,11-7,16.1-11l-.3,23.7Z"/>
        <path class="st11" d="M401.9,477.4h-.2c-11.2.7-25.8,29.4-6,23.9,4.1-2,5.4-8.6,9.2-10.4.8,13.3-13.7,17.4-23.5,10.9-6.4,1.4-5.1,5.6-6.5,10.5-4.1-.5-1.8-6.8-.9-9.4-5-1.8-11.3-4.9-11.3-11.1l.7-.3c5.6,4,3.3,5.4,11.8,8.5,18.6-5.3-7.5-21.3-16.5-16.7-11,6.4-3.9,22.5,4.9,27.7-4.4,7.3-10.8,13.9-15.7,21-8.8-5.4-23.9-17.5-32.8-20.3-23.6,17.4-47.2,13.7-73.4,5.3-13.7,5.8-43.1,25-47.4,40.2,1.7,13.6,12.9,21.3,21.5,30.7-20.4,19,28.7,31.4,22-2.8l4,5.5c9.2-9.3.3-19.1-11.3-14.1-4.2-6.8-8.5-12.6-13.9-18.5,8.4-7.7,19.2-14.2,28.9-20.1-2.6,11.3-1.4,22.6-1.8,34.1,8.1,5.4,7.8,18.4-1.3,22.5-1.9,5.9-4.3,10.2-8.3,15-5.6,11.8-10.9,23.8-17.2,35.2-3.1,6.7-20.4,20.1-8.6,25.4,8.1,2.9,41.9,7.3,48.3,1.4-2.4-7.5-11-13.8-18.5-15.4,8.1-19.7,20.6-37.9,26.8-58.3,33-3.2,26.5,3,52.7,21.2-1.7,14.9-5.8,29.5-7.4,44.3,10.4,2.2,46.9,8.6,53.9.2-4.8-8.8-17.5-11.2-26.2-15,.2-8.3,5-29.4,2.8-35.6-8.3-15-24.2-24.4-37.2-35,1.7-6.7,4.5-47.5,11-47.5.4,3-.1,6-.4,9,8.8,4.9,31.8,20.3,41.9,17.4,13.8-5.2,26.3-24.6,31.1-38.1,19.7,4.6,37.5-39.7,14.8-41.3Z"/>
        <path class="st4" d="M277.5,383.7c80.7-2.2,81.9,126.9,5.8,135.5-81.8,2.9-84-128-5.8-135.5Z"/>
        <path class="st0" d="M274.3,395.7c66.8-8.5,74.2,100.5,13,112.2-67,8.7-74.5-100.5-13-112.2Z"/>
        <path class="st6" d="M277,399.2c60.2-6,64.8,97.5,8.8,104.9-62.1,7.9-66.6-98-8.8-104.9Z"/>
        <path class="st0" d="M259.1,471.7c9.5,8.7,20.9,14.2,34.1,9.4,2.4-.9,5.2-3.9,7.5-4l.7.8c.1,1.3,0,2.1-.6,3.3-8,6.6-20,7.5-29.6,4.1-5.3-1.9-15.7-6.8-12.1-13.8v.2Z"/>
        <path class="st0" d="M268.3,442.8c10.4-.9,9.7,15.8,3,20.3-10.3.6-9.6-15.7-3-20.3Z"/>
        <path class="st0" d="M300.8,442.8c10.5-.4,8.3,17,1.2,20.5-9.6-1-8-16.7-1.2-20.5Z"/>
        <path class="st0" d="M262.9,426.4c5.2-.3,23.9,5,15.2,11.9-5.1-4.4-13.4-4.2-17.5-9.5.6-1.4,1-1.5,2.2-2.4h.1Z"/>
        <path class="st0" d="M305.4,426.9c2.7-.3,4.6-.5,7,1.2,1.1,4.5-10.1,5.4-13.2,7.1-1.8.8-3.4,1.6-5.4,1.4l-1.1-1.4c1.7-4.9,8.4-6.8,12.7-8.4v.1Z"/>
        <path class="st1" d="M250.3,387.9h-.3.1c-60.8,19.5-65.3,110-.8,127.5-45.5-27.5-42.8-99.8,1-127.5Z"/>
        <path class="st11" d="M387,469.7c5.7-.6,8.1.7,12.5,3.9-7.3,3.6-11.3,8.2-14.6,15.6h-.8c-2.8-1.5-5.1-4.7-7.4-6.8,1.8-6.4,4.4-9.6,10.3-12.6v-.1Z"/>
        <path class="st11" d="M372.8,462.7c4.5-.2,7.5,1.1,11.2,3.5-6.1,3-9.4,8.5-10.7,14.8-2.3,0-5.7-1.8-8-2.7,0-6.5,2.1-11.8,7.5-15.7v.1Z"/>
      </g>
      <g>
        <path class="st13" d="M163.7,492.7l-4.7,1.1c-9.9,9.8-4.8,25.1,6.5,31.2-2,3.2-4.1,6.3-5.5,9.9-3.3-3.3-7.3-7.4-11.5-9.7,4.5-27.5-1.4-85.5-8.8-109.4-11.7-8.1-31.8-1.5-45.3-1,6.2-21.5,2.3-61.2-28.6-55.5l-.1-.2c-31.1,3.5-27.7,44.1-13.4,63.4-3.7,1.3-6.3,2.9-8.8,5.9,1.5,23.4,5.9,47.1,8.1,70.6-38.4,22.6-64.8,45.1-18.1,79-3.4,15.4,12.7,29,27.1,21.3-5.3,14.7-10.7,29.4-16.4,43.9-2.7,8.8-9.4,18.3-8.6,27.6,9.4,10.9,43.8,13.6,56.2,8.3,11.8-8.1-11.4-20.7-18.4-23.2,6.3-19.7,14.1-39,20.3-58.7,7.1,0,14.4.3,21.5-.7,5.3,9.4,10.9,18.9,17.1,27.7-2,5.8-13.3,34.5-11.3,38.7,1.3,3,5.2,4.6,8.1,5.5,11.9,2.4,44.3,8.5,51.6-3.4,0-11.8-15.2-14.3-23.3-19,1.8-7,6.5-18.9,5.2-25.8-4.5-14.1-15.9-24.9-23.5-37.3,2-8.2,3.9-16.4,5.7-24.6,5.5,4.4,15,11.4,22.3,10.4,14.8-4.1,22.2-21.3,28.2-34.1,2.542-.789,10.916-3.739,16.337-12.338.748-1.187,7.799-12.771,2.826-24.516-2.866-6.77-8.183-9.947-14.584-13.772-3.795-2.268-24.023-14.355-32.712-6.427-1.078.983-4.768,4.82-3.468,15.153ZM53.9,556.1c-5.8-2.4-8.5-10-13.1-14.1,4.1-3.8,8.2-7.5,12.4-11.2.3,3.8,1.9,23.3.7,25.3ZM73.1,417.5c-.5,0-5.7,1.1-5.9.6-6.4-11.4-14.8-33.4-1.1-42.5h.1c14.5,4.6,8.1,30.8,6.9,41.9Z"/>
        <path class="st8" d="M136.2,421.3l.9.4c10.1,52.1,12.5,110.2-2.7,161.8,6.5,13.1,19,23.7,23.6,37.7,1.1,5.3-4.6,21-5.9,27.3,57.8,23.3-5.7,21.2-27.7,14,4-13,8.6-25.8,12.5-38.8-5.7-10.7-12.7-21.4-19.3-31.7-9,.8-18,.7-26.9.7-8.2,21.7-15.3,43.8-23.1,65.7,46,20,10.5,22.9-15.7,16.2-2.8-.6-10.2-2-11.6-4.7-1-2,24-66.1,26.9-75.2,5-3.4,6.2-5.8,7.6-11.6,8.5-3.7,6.6-16.9.9-22.4-4.6-4.6-10.9-5.1-17-5,0-9.6-.7-19.3-1-28.9,12.2-6.6,19.6-32.2-1.5-28.7-1.7-13.8-6.1-50.2-8-64.6,24,.8,66.7-2.2,88-12.1v-.1Z"/>
        <path class="st13" d="M92.8,455.9c10.1-.8,11.7,15.3,4.8,20.4-10.3,2.4-11.8-16-4.8-20.4Z"/>
        <path class="st13" d="M122.4,453.9c10.2-.9,9.6,16.7,3.1,20.9-10.3-.2-10.7-16.5-3.1-20.9Z"/>
        <path class="st13" d="M84.6,486.7c2.6,0,4.2,2.3,6,3.8,4.6,3.7,9.5,6.6,15.2,8.3,7.5,2.2,18.4-1.1,22.3.6.7,1.3.4,1.7,0,3.1-12.2,4.1-43,.7-43.5-15.7v-.1Z"/>
        <path class="st13" d="M86.8,445.9c5.3.2,14.2-2,17.9,2.6-.7,2.2-3,2.3-5,2.4-5-.2-14.2,2.6-17.6-1.8.5-2.2,2.7-2.9,4.7-3.2Z"/>
        <path class="st13" d="M125.3,443.5c2.8-.5,8.1-.6,7.7,3.5-1.7,2.3-16.9,3.9-19,1.8,0-5,7.7-4.8,11.3-5.3Z"/>
        <path class="st11" d="M59.7,501.2c22.8,8.2-24.3,35.1-24.5,40.3,2.1,5.6,11.3,14.7,15.5,19.1,13-4.9,31,1.1,24,17.6-2,0-4.1-4-6-5.1l-.6.2c.6,5.8,5.6,14-2.3,17.2-4.4-.3-3.6-7.5-7.9-7.5l-.6.9c.7,2.4,2.3,5,2.2,7.6-.7,6-10.9,8.4-14.8,4.2.9-1.3,3.1-2,4.5-2.8-1-1.1-5.6-1.4-7.3-1.9-6.4-1.4-4.8-9.4-3.1-13.9-11.5-9.3-32.3-24.6-24.1-41.6,6-11.6,32.6-30.3,45-34.2v-.1Z"/>
        <path class="st11" d="M201,491.5h-.1c-10.5,1.2-17.7,24.3-3.3,23.2,5.6-2.4,5.2-9.7,8.8-12.3l.7.4c-1.7,20.3-11.5,12.4-25.6,14.7-.2,2.7-.2,6.9.8,9.2-3.8-.4-3.4-6.7-3.6-9.6-3.9-2.5-11.1-6-11.3-11.1l.6-.6c5.1,1.3,7.9,11.8,16.7,6.6,2.4-1.2,2.3-4,.8-6-21-23.6-41,.3-14.8,18.5-2.9,6.1-7.1,11.8-10.9,17.4-3.8-3.9-7.2-8.5-11.2-12.1-.7,7.7-2.1,15.2-3.5,22.8,24.5,25.4,36,3.1,46.1-20.2.5-1.4,1.7-1.9,3.1-1.8,16.2-2,27.9-36.4,6.7-39.1Z"/>
        <path class="st8" d="M56.7,421.5c-6.7-11-12.3-25.1-10.1-38.1,1.1-16.8,24.5-28.4,34.5-12l1.4-1.5-3.4-5c15.8,8.9,15.4,35.6,10.1,50.3l-2.3.7c-1.2-1.9-.2-5.8.1-8-.7,0-.9,0-1.5-.2l-.5-2.2c-.4,3-.5,8.2-2.1,10.6-1.8,1.8-4.5.9-4.8-1.7.5-13.6,5.8-33.7-8.2-42.3-24.5-2.9-15,35.6-7.8,48.1-1.9.3-3.8.8-5.6,1.2l.2.1Z"/>
        <path class="st8" d="M82.5,369.9l-3.4-5c15.8,8.9,15.4,35.6,10.1,50.3l-2.3.7c-1.2-1.9-.2-5.8.1-8-.7,0-.9,0-1.5-.2-.6-12.2,1.3-24.9-4.5-36.4l1.4-1.5.1.1Z"/>
        <path d="M84.2,380.6l2.3-1.1c1.6,9.8,1.5,18.6.6,28.4-.7,0-.9,0-1.5-.2-.9-9,1.2-18.1-1.5-27.1h.1Z"/>
        <path class="st3" d="M81.1,371.4l1.4-1.5c1.9,3.1,3.1,6.1,4,9.6l-2.3,1.1c-.6-3.2-1.7-6.2-3.1-9.2Z"/>
        <path class="st8" d="M112.7,417.3c4.5-.5,19.9-1.6,23.2,1l-.4.7c-27.1,9.4-59.1,11.8-87.3,10.9,6.2-8,53.2-11.4,64.4-12.6h.1Z"/>
        <path class="st11" d="M188.3,483.2c4.3,0,7.2,2.2,10.3,4.8-5.8,2.8-8.9,7-11.3,12.9-2.5-.4-6.4-4.4-8.6-6,.9-5.6,3.8-10.4,9.6-11.7h0Z"/>
        <path class="st11" d="M174.3,477.8c2.6.1,7.2,0,9.2,1.7-2.1,5.4-7.4,6.4-8.2,14.3-2.1.4-5.3-.5-7.5-.8-.3-5.7.3-12.9,6.5-15.2Z"/>
      </g>
    </g>
    <g>
      <path class="st13" d="M144.1,191.6c4.4-23.7,7.5-54.5,13-77.9,4.8-3.8,61.6-16.6,68.7-16.3,5.5.2,52.1,11.6,54.7,14.4,1.7,7-6.9,62.2-8.5,74.1,11.7,4,31,9.2,42.9,15.1,3.1-6.5,6.1-13.1,8.5-19.9-15.6-4.6-25.7-28.2-7.1-35.9-1.6-15.1,11.2-30.3,26.5-21.4,6.5-1.5,12.7,0,18.7,2.5,7,2.1,11.7,2.5,15.9,9.3,10.6,17.9-.2,40.4-17.5,49.5-17.5,61.2-41.3,50.8-91.9,31.6-10.1,56,5.5,46.1-49.1,59.4-49.4,12.5-45.4,22.1-84.4-17.8.8-9.7,3.1-19.4,4.6-29-50.5,22.8-80,30.2-84.9-36.8-14.8-13.8-13.5-42.4,3.8-53.6,7.1-2.4,13.4-6.3,21.1-6.6,17.1-6.8,32.5-1.4,30.1,19.4,22,10.7,1.9,37.3-15.4,40.3,1.3,6.1,2.4,12.3,4,18.3,12.4-2.8,34.2-13,46.3-18.7h0Z"/>
      <path class="st13" d="M64.1,137c2-1.5,3.8-2.5,6.1-3.3-.5,1.5-.5,2.5-1.8,3.5-1.4,0-2.9-.1-4.3-.1v-.1Z"/>
      <path class="st4" d="M276.1,116.6c-4.4,45.3-12.7,100-19.5,145.3-27.1,7.5-54.6,13.9-81.9,21,4.9-44.9,16.9-105.3,22-150.2,26.6-4.4,53.9-7.1,79.5-16.1h-.1Z"/>
      <path class="st13" d="M205.6,192.6c8.8,2,16.1,4,25.2,4.5,3.3.2,15.1-.8,16.8-.2,3.9,4.3-3.8,11.5-6.4,15.1-16.1,17-40.5,2.9-35.5-19.4h-.1Z"/>
      <path class="st12" d="M209.8,198.8c10.5,3.6,22.3.4,32.5,3.9-1.9,5.5-12.5,15.4-18,11-9.2,4.4-13.6-7.8-14.5-14.9Z"/>
      <path class="st13" d="M217.3,162.7c11-.9,9.1,16.1,2.3,20.4-11.4,1.2-8.7-15.8-2.3-20.4Z"/>
      <path class="st13" d="M248.5,160.7c9.7,1.8,5.5,19-1,22.7-9.3-3.1-5.9-18.5,1-22.7Z"/>
      <path class="st13" d="M259.1,141.8c2.7-.6,6.4,1.7,5.4,4.7-1.3,2.7-22.9,12.3-24.4,6.3-1-6.2,14.6-9,19-11Z"/>
      <path class="st13" d="M207.2,146.6c4.9-.3,30.8,2.5,20.1,11-4.4-.3-28.3-2.9-20.1-11Z"/>
      <path class="st11" d="M63.8,141.4c12.9-2.1,13.2,15.7,12.9,24.5-10.9,10.1-15.1-3.2-13-12.8l-.8-.8h-.8c-6.1,14.2,1.2,24.9,17.1,18.9,6.8,4.1.2,11.9-1.9,16.8l.5.5c5.6-1.9,7.2-8.7,7.4-13.9,7,1.7,19.2.2,21-8l-.8-.3c-12.7,11.9-35.5,2.7-11.8-8.3,12.4-5.3,27.1,1.1,18.4,15.8-5.1,9.1-14,12.7-23.5,15.4,2.1,10,3.8,21.1,8.3,30.3h1c1.3-1.1,1.2-2.5,1.5-4.1,6.6-4.3,15.2-5.7,22.5-8.7,9.6-3.9,18.9-9.2,28.6-12.7,3.5-1.9,7.6-.9,8.4,3.3,8.3,24.3-38.3,33.6-54.5,40.8-8.1,2.6-19.6,5.1-27.5.9-15.9-9.2-15-31.4-18.5-47-1.7-5-6.6-8.1-8.2-13.4-3.9-13-.8-32.3,13.7-37.2h0Z"/>
      <path class="st4" d="M160.4,118.1c11.2,4.6,22,9.8,33.3,14.1-8,50.2-14,101-23.9,150.9-10.6-8.3-20.4-17.6-30.9-26,2-10.1,3.4-20.2,4.9-30.3,5.2-2.6,11.2-5.1,15-9.7,8.5-9.2,7-32.1-9.5-28.1,4.1-23.5,7.1-47.2,11.2-70.8l-.1-.1Z"/>
      <path class="st11" d="M361.2,131.7c26.3,1.5,16.1,44.5-4.6,49.6-18,61.7-37.3,49.9-88.5,30.7.6-7.1,2.2-14.4,3.1-21.6,15.1,5.6,30.9,9.7,45.7,16,5.4-8.5,9.2-17.9,12.3-27.5-11.2-3.1-23.4-13.5-16.5-26,6.1-7.1,19.9-3.7,27.3-.4,6.8,3,5.9,9-1.1,10.7-10.1,3.3-11.5-3-17.5-3,.7,7.8,12.8,6.8,18.5,6.4-.1,3.6-1.5,8.9,1.9,11.3l.9-.3s.2-9.1.6-11.1c1.9-1.6,3.3-3.1,4.6-5.2,1.9,1.7,3.7,2.8,6,3.9,11.4.6,18.8-13.3,13.4-22.6l-1,.2c.9,7.1-1.9,20.8-11.5,18.4-8.4-6.6-4.3-26.7,6.3-29.3l.1-.2Z"/>
      <path class="st4" d="M224,102.1c5.9-.6,42.9,9.3,49.6,12-25.1,7.1-51.1,12.4-77.1,14.5-7.2-.6-26-9.5-32.9-13,19.8-5.6,40.1-9.6,60.3-13.4l.1-.1Z"/>
      <path class="st11" d="M76,136.5c12-1.6,15.9,7.3,15.9,17.8-4.7,2.3-9.2,4.9-12.2,9.3.4-9.4-.4-19-7.7-25.5,1.1-1,2.6-1.2,4-1.6Z"/>
      <path class="st11" d="M350.1,127.4c1.8.2,4.3.2,5.2,2-1.4,3.7-5.2,6.2-6.7,9.9-1.2,3.1,0,8.9-2.2,11.3-3.7-1.5-7.1-3.3-11-4,0-9.1,4.1-19.5,14.8-19.2h-.1Z"/>
      <path class="st11" d="M330.5,126.3c2.3-.3,5.4-.3,7.6.5.5.4-3.1,5.2-3.6,6.3-1.9,4.1-1.7,8.7-3.4,12.5-3.3-.5-6.5-.8-9.9-.9-.5-7.5,1.8-15.5,9.3-18.5v.1Z"/>
      <path class="st11" d="M88,134.2c10.6-3.4,19.6,7.4,16.6,17.5-3,1-6.3,1-9.4,1.9-.8-7.6-1.6-12.9-7.5-18.2l.2-1.1.1-.1Z"/>
    </g>
    <g>
      <path class="st0" d="M745.2,413.2c3.8-6.1,1.8-56.9,8.1-60.4,22.2-2.6,67.1,1.2,88.2,12.2,8.9,3.3-1,44.2-.4,53.3-2.8,24.7-2.1,50.6-7.8,74.7,17.1,9.4,71.7,48.6,36.5,65.3-13.5,5.1-29,.9-43,2.9.2,4.9-1,21.2-4.4,25-2.1,2.3-5.5,1.8-6.9,3.5,4.6,14.3,6.7,28.9,13,42.8,4.2,12.1,19.9,29.3,15,41.9-8.8,9.8-46,13.2-56.9,7.2-8.2-9.2,7.5-17.5,14.5-21,.5-3.1-4.9-13.2-6.2-16.8-3.6-9.7-7.3-19.8-9.7-29.8-1.2-4.6-3.3-20.5-5.5-23-5.4-.6-10.8-1.2-16.2-1.7-.9,5.2-17.2,28.3-22.3,32.1,2.3,5,18.5,44,13.4,49.8-8.1,8-90.2,13.2-54.7-12.2,4.1-1.6,12.5-5.2,16-7.7.7-3-4.4-15.7-5.4-20.3-5.4-21.4,10.7-32.4,20.1-49.4.7-8.3,4.3-35.2,3.3-40.1-2.3,5.5-20,14.9-25.7,17.1-22.2,8.9-35.4-20.5-43.4-36.2-1.6-2.1-8.7-3.5-11.4-5.5-3.7-2.7-5.8-7.4-9.7-10.1-2.8,2.8-7,4-9.7,6.9,12.5,2.4,37.9,23.6,42.7,35,2.2,11.9-8.5,28.4-17.3,35.8,8.4,17-8.8,30.7-25.3,28.8h.1l.1,1.3.3-.4c3.9,9.5,8.7,18.4,13.7,27.3,3.2,7.8,19.4,23.7,13,31.2-16.7,14.5-92.2,16.9-44.3-17.2-8.7-17.4-17.4-37.7-25-56-8.4.1-16.9.2-25.3.1-7.4,6.5-15.4,12-23,18.2,1.9,7.2,13.1,42.5,10.6,47.1-1.5,2.7-5.8,3.9-8.6,4.5-32.1,8.2-92.1,2-28.9-26.3-2.1-8.8-8.2-28.7-3.5-36.5,5-8.2,28.8-25.9,37.3-31.3-.4-10.1-.8-20.4-1.8-30.5-36.4,27.8-52.5,20.1-74-18.2-20.2-2.9-34.7-34-15.6-47,13.5-5.8,34.7-24,42.3-1.2,16.5,4.2,14.3,25.6,3.4,34.8,3.9,5.7,7.8,11.5,11.9,17,6.7-6.9,15.7-12.5,23.5-18.2-43.8-26.7-38.3-113,7.3-135.1,18.6-7.2,64.9-4.7,83,3.6,29.5,13.9,37.6,56.3,30.7,85.3,15.2-5.7,38.3-11.8,36.2,13,18.8,1.3,12.6,29.8-.9,35.1,2.2,2,7.8,11.3,7.8,14.4,4.1-2.5,31.1-26.5,32.4-29.4,1.1-2.2,5.4-49.6,5.5-54l-.2.3c-8-.8-13.6-6.7-11.2-14.9,1.5-6.3,8.9-5.4,13.8-6.4-4.8-5.5-21.8-6.9-22.9-15.1.5-1.5,1.9-2.2,2.4-3.7,4.7.9,17.5,4.8,20.8,8.1h.2ZM637.3,566.3c2.5-1.8,7.2-9.9,7.9-12.9-2-1.6-19.3-12.8-20.5-12.8,1.9,5.7-.6,23.1-1.5,29.5,1.9.9,4.3-.7,6.3-.4,4.2,1.5,6.3,1.3,7.8-3.3v-.1Z"/>
      <path class="st7" d="M464.6,483.3c10.2-.1,14.6,10.3,16.1,18.9-5.6,6.6-12.7,2.4-15.2-4.5-.6-1-1.1-1.9-2.2-2.2-1.4,5,2.5,10.6,7.1,12.5,4.7,1.8,7.2-.6,11.2-2.1,11.5-3.5,7.7,5.5,7.5,11.9h1.4c3.3-3,3.6-8.5,1.5-12.5,3.2-2.9,10-6.2,9.6-11.1-2.4-.9-7.8,7.2-12,7.5-7.7.3-7.5-7.6-2.6-11.5,21.6-17.2,30.6,9.2,12,21.6,5.3,8.3,11.3,16.2,16.3,24.6,10.5-6.7,19.1-15.8,30.4-21.5,19.4,8.6,49.5,7.8,70.4,6.1,2.8-.6,16.4-6.5,17.4-6.4,11.6,8.8,25.5,17.2,34.6,29.3,10.5,11.3-5.9,32.3-13.8,40.5,12.8,23.8-29.2,35.1-31.9,8.7,3-2.3,5.7-4.7,7-8.3-3.9-.9-6,4.7-10.2,4.3-7.4-10.6,8-19.9,17.3-13.8,2.8-1.9,12.3-18.5,12.5-21.5,0-1.1-1.3-2.4-2-3.1-3.6-3.2-23.2-19.6-27.2-14.8,1.6,8.2,1.1,27.6-1.4,35.8-2,4-5.6,7.2-5.3,12.2,0,3.5,2.5,7.4,4.9,9.8,1,5,2.7,8.4,4.8,12.9,6.3,2.6,18.8,33.8,24.5,42.5,2.1,3.8,10.8,15.6,10.5,19.4-5.9,8.8-44.4,12.9-52,5.4-.5-7.8,15.9-13.7,17.8-18.1-7.1-7.6-24-47.8-28.8-60.7h-30.1c-8.6,6.8-17.2,13.9-25.6,20.8,1.6,11,5.3,22,8.1,32.8.4,4.2,5.2,11.2,1.5,14.4-23.1,8.1-91.5,8.3-26.5-16.9-2.7-9.5-6.9-28.2-5.5-37.5,11.7-11.9,25.3-21.5,38.3-31.8-.6-14.7-1-29.8-2.6-44.4-.2-1.9-.9-4.4-2.5-5.7l-1.2.7c-.5,3.4-.5,7-.5,10.5-11.3,9-31.3,26.3-45.9,15.6-8.5-5.4-21.6-21.3-23.8-31.1-9.4-.6-17.9-6.1-21.1-15.2-4.1-8.5-4-21.5,7-24.1l.2.1Z"/>
      <path class="st4" d="M754.3,355.9c18,1,43.5,1.1,60.7,4.1.7,2.6-.8,23.8-2.5,26.7,1,4.1-.8,19.4-2.2,23.3.7,3.6-.5,17.3-1.9,21,1,3.2-1.1,24.6-2.6,28.1.7,4.1-2.2,32.1-3.9,35-1.2,2.8-5.7,5.9-7.9,8.3-16.1-3.8-18,25.7-5.4,30.1.7,3.5,3.5,10.1,3.4,12.8-.3,6,4.8,9.4,4.7,11.8.4,2.7-2.2,28.1-3.8,29.7-19.4,0-39.1-2.7-58.1-6.5,6-50.3,7.7-103.3,13.7-153.5,1.2-3.9,5-3.9,4.8-8.9-.8-1.5-1.6-1.5-3.1-2-2.2-4.6,6.4-54.4,4.1-59.9v-.1Z"/>
      <path class="st0" d="M767.7,415.3c6.9-.8,24.2-8.8,29.9-6.3,5,7.8-26,14.6-30.3,14.8-3.8-.4-3.7-5-2.1-7.5,1-.2,1.6-.4,2.5-.9v-.1Z"/>
      <path class="st9" d="M744.7,582.1c4.3-14.2,6.1-30.6,9-45.4.9-6.5,3.5-47,4.9-48.6,2.6,4.8-.7,13.6-.8,19.1-.4,25.4-4.4,50.9-10.8,75.4l-2.3-.5h0Z"/>
      <path class="st9" d="M773.9,357c1.2,0,2.7-.2,3.8.4-.5.4-.7.4-.9,1,.3.8.3,1.7.4,2.5l-.6.4c-1.9,18.2-4.9,36.2-8.9,54.1-.9.5-1.5.8-2.5.9,2.5-8.5,10.8-53,8.7-59.3Z"/>
      <path class="st0" d="M788.4,457.8c14.1-3.6-3.3,40.2-31.9,26-11.8-10.5-8.4-15,6.5-14,7-.9,21-6.4,25.3-12h.1Z"/>
      <path class="st12" d="M787.2,463.7h1.2l.3.8c-2.9,12.2-17.8,22.8-29.6,15.2-.8-1.8-3.2-3.8-4.7-5.1,10.9-.7,24.5-3,32.8-10.9Z"/>
      <path class="st0" d="M775.6,426.2c12.1-2.4,10.7,19.8,1.3,21.8-10.6,2.3-8-18.3-1.3-21.8Z"/>
      <path class="st9" d="M770.7,488h1.1c2.3,13.4.3,27.4-.2,41-1.6,16.7,7.5,36.2,4.2,52.4-.8-10.2-3.9-19.7-5.2-29.8-2.8-22.5-.3-41.2.2-63.6h-.1Z"/>
      <path class="st9" d="M796.5,364c.8.4.8.5,1.2,1.2-1.7,7.1-3,31.6-9.1,34.8l-.8-1c3.6-4.3,5.3-24.1,6.5-30.4l.3,1.2c0-.5,0-.9-.1-1.4,1.2-1.5,1.6-2.6,1.9-4.4h.1Z"/>
      <path class="st9" d="M751.4,425.2h.4c1.7,5.5.7,12.1,1.8,17.8,0,3.1,2.5,7.5.1,10-4-9-2.6-18.3-2.3-27.8Z"/>
      <path class="st15" d="M613.2,383.4c41.8-2.8,50.7,55.3,41.7,86.2-11.9,5.2-16.1,19.3-12.4,31.1-70.5,64.9-97.5-106.2-29.3-117.3h0Z"/>
      <path class="st3" d="M615.6,409.2c39.5-3.9,37.4,74.6,5.7,83.2-37.7,7.9-35-75.1-5.7-83.2Z"/>
      <path class="st0" d="M619.5,412.1c32.5.6,26.8,85.9-7.6,75.6v-.8c6.5-2.2,6.8-10.2,8.1-16.1,3.2-18.3,7.2-42-5.1-57.5l.5-.4c1.4-.1,2.8-.5,4.2-.8h-.1Z"/>
      <path class="st15" d="M560.2,381.4c6.1-5,13.2-3.8,20.6-3.4-9.4,3.3-19.2,11.7-21.4,21.6l.3.4c12.6-20.4,29.2-25.2,52.2-19.9-54.6,9.7-55.6,116-9.2,137.7-26.4,3.9-35.7-13.2-46.2-33.5h-.7c.6,12.9,11.8,26.5,22.5,32.6-19.6,2.7-35.1-27.6-38.1-30.5,3,12.4,12.2,22.4,22.8,29.3-64.7-7.4-60.8-127.5-3.3-136.4l.4,2,.1.1Z"/>
      <path d="M559.8,379.3l.4,2c-8.3,7-15.9,20.1-19.1,30.5-1.5,3.9-.5,9.2-3.8,12.2-3-5.3,5.4-19.9,7.5-25.7-1.4-3.3-3-6.2-4.9-9.2,3.7,2.9,4.9,5.1,5.8,9.7,4.8-7.4,6.3-14.3,14.1-19.5Z"/>
      <path class="st3" d="M561.7,443.7c-.88-3.851-4.126-5.948-4.4-6.119-.819-.512-2.25-1.38-4.2-1.281-.373.019-1.652.084-2.62.732-2.672,1.788-2.087,7.422-.847,10.938.262.743,2.643,7.495,6.182,7.457,3.444-.037,7.08-6.493,5.885-11.727Z"/>
      <path class="st3" d="M563.8,423.5l.1.1c-7.17,3.066-11.316,7.34-13.42,11.73l2.62-.03c4-1.4,20.1-6.8,10.7-11.8Z"/>
      <path class="st3" d="M545.3,466.5c7.2-.7,14,1.8,18.9,7.2,1.6,1.7,3.9,4.8,1.6,6.7-3.6,2.1-7-4.4-9.6-6.1-10.3-6.2-18.6.4-25,8.4h-1.4c-3-1.5.4-5.8,1.5-7.5,3.8-5.4,7.6-7.6,14.1-8.6l-.1-.1Z"/>
      <path class="st3" d="M528.3,437.2c10.5-2,11.4,14.4,4.9,19.4-9.7,1.2-11.8-14.9-4.9-19.4Z"/>
      <path d="M575.4,394.8c1,0,1.6.2,2.4.5-15.5,6.7-21.6,17-27.4,32.4l-.9.5-.7-.3c1.5-14.6,12.7-28.2,26.5-33.1h.1Z"/>
      <path class="st3" d="M525.3,423.4c4.4.2,18.2,4.8,13.2,10.8-2.4.2-3.8-1.9-5.8-2.7-4.5-1.2-11.7-1.8-7.4-8.1h0Z"/>
      <path class="st4" d="M814.7,388.1c3.4-3.1.9-22.4,4.2-26,1.5.6,3.2.4,4.5,1.6,2.1.4,5.4,1,7.1,2.4,3.5.8,11.4,1.8,10.6,6.9-1,12.8-9.2,119-12,122.7-7.1-5.6-15.7-5.6-23.7-2.1,1.3-4,4-30.9,2.7-33.6-.8,0-1.5-.6-2.2-.9,1.5-3.5,3.6-24.9,2.6-28.1,1.3-3.6,2.6-17.4,1.9-21,1.4-3.9,3.2-19.2,2.2-23.3l1.8.3.4,1.1h-.1Z"/>
      <path class="st4" d="M814.7,388.1c3.4-3.1.9-22.4,4.2-26,1.5.6,3.2.4,4.5,1.6-2.2,21.5-3.1,43.2-2.9,64.8-.2,20.8-5.7,41.9-3.7,62.6-3.9-.5-7.7,1.4-11.4,2.5,1.3-4,4-30.9,2.7-33.6-.8,0-1.5-.6-2.2-.9,1.5-3.5,3.6-24.9,2.6-28.1,1.3-3.6,2.6-17.4,1.9-21,1.4-3.9,3.2-19.2,2.2-23.3l1.8.3.4,1.1h-.1Z"/>
      <path class="st9" d="M819.9,362.4c1.3.2,2.5.4,3.5,1.3-2.2,21.5-3.1,43.2-2.9,64.8-.2,20.8-5.7,41.9-3.7,62.6h-4l.9-1.2c2.3-31,6.9-61.8,6-93.1-.3-6.2,4.2-30.7.2-34v-.4Z"/>
      <path d="M808.4,430.9l1.4-.8.3-1.3c2.1,4.9.4,25.7-2.1,31.2-.8,0-1.5-.6-2.2-.9,1.5-3.5,3.6-24.9,2.6-28.1v-.1Z"/>
      <path d="M812.5,386.7l1.8.3c1.6,3.9.8,18.6-1.8,22.4-.7.2-1.5.3-2.2.6,1.4-3.9,3.2-19.2,2.2-23.3Z"/>
      <path class="st3" d="M810.3,410c.7-.3,1.5-.4,2.2-.6,1.1,3.3.5,18.7-1.8,22.4,0-.9,0-2.3-.6-3.1l-.3,1.3-1.4.8c1.3-3.6,2.6-17.4,1.9-21v.2Z"/>
      <path class="st9" d="M830.4,366.1c3.5.8,11.4,1.8,10.6,6.9-1,12.8-9.2,119-12,122.7-3.2-2-6.2-4.1-10.1-4.5.8,0,1.5,0,2.1-.5,1.2-22.1,7.8-43.9,9.3-66.1,1.2-19.4,1.1-39.1,0-58.5h.1Z"/>
      <path class="st10" d="M830.4,367.2l1.4.7c2,6.9,1.7,48.8.7,57.1-.9-6,1.8-13.1-.3-18.6-.5,25.2-5,50.6-9.9,75.1l-1,.4c8-37.6,12-76.3,9.1-114.7Z"/>
      <path class="st7" d="M655.6,474.9c16.3-4.7,24.2,35.5,3.4,22.2.2-2,.2-6.7-2.5-6.9-1.3.8-1.3,2.4-1.1,3.8.7,7.5,9,11.9,15.6,8.2,9.8-8.6,10.9,5.3,8.3,12.2l1,.3c3.4-1.9,3.6-8,3.1-11.4,6,0,13.3-3.3,13.5-10-3.9,2.2-7.4,6.6-12.8,6.7-14.4-7.1,6.9-19,15.3-16,13,6.7.9,24.4-9,28.2,1.8,1.5,10.5,15.5,10.8,17.5,1.9,1.5,2.6,3.3,3.1,5.5,3.2-2.3,30.5-27.2,32.2-29.7,1.6,3.1-1.1,26-2.4,28.8-7,11.2-23.7,20.5-36.7,21.9-14.4-7-23.2-23.4-29.9-37.3-21.2-4.3-31.2-30.5-11.9-44h0Z"/>
      <path class="st7" d="M809.4,589.1c.9-.1,1.8-.1,2.7-.2.7,12.5,4.9,26.5,9.3,38.3,2.8,9.6,21.9,38,17.4,44.7-5.7,6.4-45,11.2-50.9,4.4,1-6.6,15.9-10.4,19-14.5-5-16.5-13.9-33.3-17.5-50.5-1.2-4.7-2-17.1-3.8-20.4,8,.5,16.1-.2,24-2l-.2.2Z"/>
      <path class="st7" d="M733.4,584.8c3.7-.3,20.6,3.1,25.6,3.7,0,3.3-20,30-22.4,32.2,1.1,2.8,15.7,42.4,14.2,47.1-3.2,3.5-19.8,4.5-24.7,4.9-8,.5-24.2,3-30.2-3.3,2-6.8,20.3-11.4,24.9-16.1-10.2-46.5-10.4-28.8,12.6-68.4v-.1Z"/>
      <path class="st7" d="M814.1,495.3c21.4-2.7,31.1,49.1,18,60.3-11.2,4.4-17.8-5.1-27-8.5,1.4,1.8,7.5,7.5,4.8,9.9-6.7,1-15.4-6.3-13.3-13.4,3.2-5.7,11.5-4.5,16.6-7.4l-.4-1.2c-6.7-2.9-12,5-18,2.5-7.1-18.5,15.6-12.8,19.6-16.8-3.9-4.5-13.8-.5-18.7,1.1,0-15.3,7.2-13.9,19.1-17.7,0-.9-.2-1-.8-1.7-4.9-1.9-11.5,2.5-16.4,3.5,5.9-4.8,8.3-9.3,16.5-10.6h0Z"/>
      <path class="st7" d="M832.8,498.2c5.6.1,19.6,13.2,24.3,17.3,33.4,28,21.8,44.4-18.9,40.4,4.1-6,5.4-20,2.8-26.8,5.2.8,17.5,8.4,21.5,4.3-2.6-5.3-15.9-6.3-21.5-8.2,2.3-7-8.6-20.3-8.2-27.1v.1Z"/>
      <path class="st9" d="M798.5,558.8c3.2.8,6.4,2.3,9.8,1.9,4-.2,12-3.4,13.8,1.7,1,3.5-.4,16.8-2.3,20-3.3,2.8-20.4,4.1-25,4.6,1.8-2.1,3.8-24.5,3.8-28.2h-.1Z"/>
      <path class="st10" d="M805.8,560.8h2.5c.8,3.3,0,18.2-1.5,20.8-1.8-3.9,2.5-17.3-.9-20.8h-.1Z"/>
      <path class="st7" d="M667.1,468.5c12.2-2.6,20.5,15.1,8.5,21.4v.9c-.1,0-.7.4-.7.4-1.1-8-5-16.9-12.8-20.3,1.8-.6,3.3-1.4,4.9-2.4h.1Z"/>
      <path class="st7" d="M681.1,465.1c7.3-2.3,15.3,6.7,11.7,13.5-1.3,2.2-4.2,1.8-6.1,3-2.2-1.3-2.6-10.7-10.4-14.8,1.6-.3,3.2-1.1,4.7-1.7h.1Z"/>
      <path class="st7" d="M791.5,505c1.3,0,2-.2,3.1.4.4,2.3-1.7,5.1-2.1,7.4-1.5,5,2.1,13.8-4.9,15.3-3.5-5.4-2.1-11.5-3.1-17.4,2.4-2.2,3.9-4.4,7-5.7h0Z"/>
      <path class="st7" d="M483,472.3c7.1-1.3,13,1.4,14.1,9-2.3.6-6.4,2.6-8.7,3.1-1.8-1.3-2.6-3.9-3.7-5.9-2.2-.7-5-1.4-6.3-3.5l.3-.9c1.4-1,2.7-1.3,4.3-1.7v-.1Z"/>
      <path class="st7" d="M472.5,479c7-1,16.8,5.1,9.1,11.7l-.7-.2c-3-7.2-5.9-6.7-10.4-10.9l2-.7v.1Z"/>
    </g>
    <g>
      <path class="st0" d="M630.4,91.9c24.1,0,49.4,4.9,73.6,7,13.8,2.2,28.8,1.7,41.8,7.2,1.5,10.7,1,41.9,1.8,53.2-.1,13,2.6,26.4.7,39.3,10.1,5,24.7,9.7,34.1,15.2,2-3.6,3-16.7,2.2-20.6-2.5-2.3-6.7-2.5-9.7-4-13-7.2-17.9-34-.7-39-2.9-19.5,12.9-31.8,29.7-20.3,12.9-2.2,9.5,3.8,26.3,5.2,20.5,12,13.6,48.9-5.9,58.9-2.4,61.5-24.5,64-75.3,39,.8,7.6,3.2,32-.3,40-10.7,6.3-37.4,17.8-50.4,15.2-13.4-1.2-102.1-12.8-107.5-17.6-1.8-1.6-2-35-2.1-39.8-49,27.7-75.6,16-80.2-41.1-20.5-9.1-26-41-8.4-55.5,8.6-6.9,20-6.2,30.2-8.5,16.1-8.2,29.2,5.2,25.9,21.8,22.8,9,5.4,36.7-11.8,41.2,2,8,3.9,15.9,5.8,23.9,5-3,11.8-3.7,17.3-5.9,7.1-2.9,13.7-7,20.8-9.8-2.7-31.3-.9-62.9-2.8-94.2,10.8-5.4,32.4-8.2,45-11l-.1.2Z"/>
      <path class="st17" d="M594.1,104.6c21.3-7.4,47.5-10.5,69.6-5.7,24.7,3.5,51.5,4,75.6,9.3l-1.6.5q.8.5,1,1.4c1.3,0,2.3-.4,3.4.3.4,11.1,3.1,83.6,1.5,87.5-10-7.9-18.3,8-16.1,16.8,1,8.6,10.7,12.3,16.8,16.1,1.1,3.6,2.3,36.8.7,38.8-3.8,3.5-30.4,14.1-35.5,13.9-.5-.7-.9-1.4-1.4-2.1-.6.2-1.2,0-1.8-.1.4,1.2.8,2.1.1,3.2-37.5-2.8-75.4-9.7-112.5-16.4-1.4-53.8-4.3-108.9-3.1-162.2l2.3.2.9-1.5h.1Z"/>
      <path class="st14" d="M738.7,110c1.3,0,2.3-.4,3.4.3.4,11.1,3.1,83.6,1.5,87.5-10-7.9-18.3,8-16.1,16.8,1,8.6,10.7,12.3,16.8,16.1,1.1,3.6,2.3,36.8.7,38.8-3.8,3.5-30.4,14.1-35.5,13.9-.5-.7-.9-1.4-1.4-2.1,1.1-4.8-2.5-150.8-4.4-163.6,11.6-1.6,23.5-5,34.9-7.8l.1.1Z"/>
      <path class="st14" d="M594.1,104.6c21.3-7.4,47.5-10.5,69.6-5.7,24.7,3.5,51.5,4,75.6,9.3-10.7,2.9-27.1,7.7-37.6,8.6-34.8-1.7-72.7-7.3-107.5-12.1l-.1-.1Z"/>
      <path d="M594.1,104.6c34.8,4.8,72.7,10.4,107.5,12.1,9.9-.7,25.9-5.7,36.1-8.1q.8.5,1,1.4c-11.4,2.8-23.3,6.2-34.9,7.8,1.9,12.6,5.5,159,4.4,163.6-.6.2-1.2,0-1.8-.1.4-2.9-1.9-148.8-4.3-163-36.1-1.4-72.9-8.1-108.9-12.3l.9-1.5v.1Z"/>
      <path class="st0" d="M669.7,191.1c8.9-2,3.1,10.9,1.1,14.8-7.3,16.1-27.6,18.9-41.7,10.3-2.5-3.8-9.1-7.9-6.2-13.1,3.3-2.4,8.1.8,12,.9,7,.1,29.9-7.7,34.8-12.8v-.1Z"/>
      <path class="st12" d="M666.4,198.4l1.5-.2.5.5c-3.2,19.6-29.7,23.7-41.2,9,12.4,1.8,28.7-2.5,39.1-9.3h.1Z"/>
      <path class="st0" d="M623.2,162.4c10.7-1.7,12.1,19.6,2.6,21.7-9.7.4-9.3-17.8-2.6-21.7Z"/>
      <path class="st0" d="M660.1,162c11.2-2.7,12.3,18.9,3.1,21.6-9.8,1.3-8.7-17.1-3.1-21.6Z"/>
      <path class="st0" d="M677.8,143c17.4,3.8-19.4,16.2-23.4,16.1-2.3.6-4.2-1.5-3.4-3.7,3.7-5.2,20.4-9.7,26.8-12.5v.1Z"/>
      <path class="st0" d="M609.7,143.4c4.7-.2,28.8,7.9,27.5,13.9-4.1,5.1-23.2-5.6-27.6-8.3-2.3-1.5-2.4-4.4.1-5.6h0Z"/>
      <path class="st7" d="M818.1,138.1c29.7-2.7,22.2,45.8,1.7,53.5,2.5,5.3-3.8,30.7-6.1,36.9-5,20.7-26.4,16-41.5,10-11.9-5.4-33-11.1-39.7-22.7-3.8-8.6,2.1-10.7,4.1-16.4,7.2,1.3,24,10.2,31.5,13.3,4.4,1.8,9.8,3.2,13.9,5.4,1.5,1.8,1,5.1,3.1,6.5l.7-.4c.5-1.3.4-1.6,0-2.9,2.7-4.6,4.6-28.9,2.9-33-6.2-2-12.4-1.3-16.7-7.1-4.8-6.8-7.3-19.1.2-24.8,5.1-4.3,24.8,1.1,28.5,6,1.4,2.1-1,4-2.5,5.2-8.1,6.5-15.9-.6-18.3.3,2.6,5.5,9.3,6.5,14.7,5.5,2.7,4.6,1.8,11.9,8.8,14.2,1.3-3.9-5.7-8.5-4.8-13.7,2.6-8,10.4-6.6,16.6-4.4,8.7,2.2,13.3-8,14-15,.2-1.7,0-2.5-1.1-3.7h-.9c-2.8,3.4-1.8,9.2-5.2,12.9-15.6,11.3-14-19.8-4-25.6h.1Z"/>
      <path class="st7" d="M510,133.5c10.6-.2,15.8,19.8,11.6,27.4-2.3,3.1-6.9,2.9-9.6.6-5.8-4.4-3.4-11.6-2.3-17.5-7.2,2.8-5,16.7-.5,21.2,5.5,4.9,13.5-.5,19.4,2.3,3.8,3.3-.9,11.9-.9,16h.6c4.2-2.3,4.8-9.1,4.9-13.4,7.6,2.5,15.2,0,19.9-6.5-5.5,2-11.5,5.6-17.5,3.4-2.7-.7-5.3-3.6-3.6-6.4,5.2-7.2,17.5-10,25.6-6.6,6.8,3.4,4.3,12.9,1.3,18.2-4.3,7.6-11.9,10.8-19.8,13.1,2.4,11.5,4.8,23.1,7.6,34.5,13.6-6.1,28.3-9.7,40.9-18.1,0,8.2,1.1,16.3.9,24.6-41,21.4-66.8,25.7-74.8-27.9-.3-2.8-2.6-8.5.1-10.5-.4-2-8.7-4.7-10.8-6.5-13.3-13.3-12.6-40.6,6.7-47.8l.3-.1Z"/>
      <path class="st7" d="M522.8,130.7c11.6-2.1,16.2,9.8,15.3,19.4-5.8,3.2-9.5,8.3-12.5,14-.2-11.9,2.1-21.7-6.7-31.5.9-1.2,2.6-1.5,3.9-1.9Z"/>
      <path class="st7" d="M803.7,134.2c3.1-.2,10.2-1.6,11.7,2-9.7,4.7-9.3,16.3-8.3,25.5l-.9.8c-.6-.3-1.2-.6-1.9-.9-2.6-5-5.4-6.5-10.5-8.3,2.3-7.4-.9-16.2,9.9-19.2v.1Z"/>
      <path class="st7" d="M785.8,130.8c4.1-.5,8.6-.6,12.5.8-.5,2.4-5.9,6.2-7.1,9.6-1.1,3.3.3,9.5-1.8,12-2.5-.4-10-2-11.4-3.8-1.6-6.7,1.8-14.9,7.7-18.6h.1Z"/>
      <path class="st7" d="M537.3,127.8c9.9-1.7,18,10.4,15,19.3-2.7,2.8-7.7,1.1-11.3,2,1.7-7.8-1.1-15.5-7.7-20.1,1.2-.7,2.7-.9,4-1.2Z"/>
    </g>
    <g>
      <path class="st16" d="M35.284,68.462c-3.234.461-6.143.35-8.735-.339-2.593-.688-4.857-1.862-6.794-3.528-1.937-1.664-3.523-3.722-4.754-6.174-1.231-2.451-2.09-5.188-2.568-8.212-.467-2.95-.447-5.75.071-8.402.517-2.651,1.497-5.053,2.946-7.203,1.447-2.15,3.34-3.939,5.676-5.363,2.335-1.423,5.083-2.364,8.233-2.812,1.383-.197,2.95-.276,4.698-.236,1.748.04,3.468.239,5.158.595,1.69.357,3.133.928,4.328,1.712-1.156,1.884-2.307,3.77-3.452,5.657-.792-.685-1.742-1.234-2.85-1.648-1.108-.413-2.256-.679-3.442-.796-1.187-.118-2.317-.1-3.387.052-2.22.315-4.032,1.022-5.432,2.114-1.401,1.092-2.448,2.447-3.141,4.06-.693,1.614-1.103,3.347-1.231,5.197-.127,1.851-.048,3.717.238,5.6.504,3.322,1.417,6.1,2.732,8.338,1.315,2.238,2.962,3.859,4.943,4.87,1.981,1.011,4.218,1.337,6.719.982,1.568-.222,3.199-.667,4.897-1.335,1.697-.666,3.451-1.63,5.265-2.889.95,1.267,1.898,2.535,2.843,3.804-.99.846-1.973,1.598-2.946,2.255-.975.659-1.978,1.227-3.012,1.707-1.035.481-2.125.885-3.273,1.214-1.148.33-2.391.589-3.729.78Z"/>
      <path class="st16" d="M69.835,63.973c-3.13.358-5.958.147-8.494-.636-2.536-.783-4.745-2.023-6.632-3.724-1.887-1.7-3.418-3.771-4.594-6.217-1.176-2.445-1.957-5.129-2.337-8.054-.385-2.962-.316-5.766.214-8.414.53-2.646,1.526-5.023,2.993-7.127,1.466-2.104,3.376-3.837,5.729-5.193,2.352-1.356,5.15-2.224,8.386-2.593,3.312-.378,6.29-.179,8.923.589,2.633.769,4.901,2.016,6.803,3.735,1.901,1.72,3.417,3.819,4.55,6.295,1.133,2.476,1.845,5.239,2.145,8.285.296,3.009.114,5.832-.538,8.466-.652,2.634-1.735,4.985-3.246,7.054-1.512,2.069-3.434,3.753-5.767,5.054-2.334,1.302-5.043,2.127-8.136,2.48ZM69.456,58.662c2.17-.247,3.925-.901,5.269-1.97,1.343-1.067,2.367-2.398,3.071-3.994.704-1.596,1.149-3.323,1.335-5.182.186-1.859.184-3.698-.007-5.517-.191-1.819-.565-3.647-1.124-5.485-.56-1.836-1.362-3.497-2.41-4.981-1.048-1.484-2.382-2.626-4.002-3.425-1.62-.798-3.564-1.071-5.828-.813-2.225.254-4.023.926-5.39,2.008-1.367,1.084-2.398,2.439-3.091,4.065-.695,1.627-1.119,3.371-1.276,5.233-.158,1.863-.125,3.683.094,5.462.224,1.816.64,3.636,1.247,5.46.606,1.826,1.438,3.472,2.494,4.942,1.055,1.471,2.37,2.6,3.945,3.391,1.575.791,3.464,1.058,5.672.806Z"/>
      <path class="st16" d="M99.109,19.258c6.269,7.657,12.436,15.36,18.5,23.105.461.565.903,1.14,1.327,1.727.423.586.847,1.183,1.271,1.788-.09-.705-.208-1.417-.355-2.136-.148-.719-.248-1.432-.299-2.14-.582-7.949-1.164-15.899-1.746-23.848,2.143-.157,4.286-.308,6.429-.455.935,13.707,1.87,27.414,2.806,41.12-2.019.138-4.038.28-6.057.428-6.833-8.896-13.8-17.737-20.902-26.52-.438-.598-.895-1.195-1.371-1.79-.477-.594-.934-1.172-1.369-1.733.13.588.261,1.195.394,1.82.133.626.228,1.254.285,1.886.827,9.24,1.654,18.481,2.48,27.721-2.073.185-4.146.376-6.219.572-1.176-12.451-2.353-24.902-3.529-37.354-.376-1.108-.753-2.216-1.131-3.324,3.162-.301,6.324-.59,9.487-.867Z"/>
      <path class="st16" d="M168.08,35.558c.138,3.955-.557,7.5-2.066,10.637-1.51,3.138-3.72,5.641-6.628,7.52-2.909,1.88-6.376,2.915-10.418,3.119-4.866.247-9.731.522-14.595.825-.78-12.501-1.559-25.002-2.339-37.503-.002-.037-.087-.312-.254-.826-.168-.513-.347-1.044-.536-1.594-.19-.549-.307-.86-.35-.932,5.35-.338,10.702-.642,16.055-.913,3.247-.165,6.15.196,8.704,1.074,2.553.878,4.743,2.2,6.566,3.959,1.823,1.76,3.228,3.876,4.218,6.342.989,2.468,1.535,5.233,1.642,8.291ZM159.641,36.105c-.079-1.903-.376-3.749-.891-5.54-.516-1.79-1.293-3.392-2.334-4.804-1.042-1.411-2.361-2.511-3.959-3.297-1.597-.785-3.515-1.122-5.747-1.009-2.194.112-4.387.23-6.58.353.559,9.952,1.118,19.905,1.677,29.857,2.18-.122,4.361-.239,6.541-.351,2.857-.146,5.126-.953,6.814-2.431,1.688-1.478,2.883-3.351,3.582-5.623.699-2.272,1-4.656.896-7.156Z"/>
      <path class="st16" d="M180.589,14.624c.225,9.088.45,18.176.675,27.264.068,2.725.953,4.887,2.649,6.491,1.695,1.605,3.91,2.378,6.656,2.33,1.88-.033,3.491-.421,4.836-1.168,1.345-.747,2.378-1.795,3.098-3.147.721-1.352,1.073-2.96,1.053-4.828-.094-9.09-.189-18.18-.283-27.271,2.186-.023,4.372-.04,6.558-.052.045,8.475.091,16.949.136,25.424.021,3.92-.682,7.069-2.096,9.449-1.415,2.381-3.333,4.113-5.757,5.206-2.426,1.093-5.169,1.664-8.239,1.719-5.204.095-9.231-1.201-12.108-3.923-2.876-2.72-4.408-6.668-4.57-11.855-.228-7.351-.457-14.702-.685-22.053-.343-1.11-.688-2.22-1.032-3.33,3.036-.096,6.072-.182,9.108-.257Z"/>
      <path class="st16" d="M230.375,56.012c-3.258-.046-6.107-.605-8.555-1.686-2.449-1.081-4.498-2.592-6.149-4.537-1.652-1.944-2.896-4.222-3.73-6.835-.834-2.612-1.258-5.449-1.262-8.51-.005-2.986.448-5.75,1.366-8.29.918-2.539,2.255-4.76,4.013-6.66,1.757-1.9,3.898-3.375,6.42-4.42,2.521-1.045,5.373-1.548,8.547-1.504,1.394.019,2.95.184,4.667.494,1.716.31,3.382.773,4.993,1.386,1.611.613,2.945,1.402,4.003,2.361-1.431,1.683-2.857,3.368-4.277,5.055-.675-.799-1.527-1.489-2.555-2.069-1.029-.58-2.119-1.02-3.27-1.319-1.152-.3-2.268-.457-3.346-.472-2.236-.032-4.131.387-5.68,1.248-1.549.862-2.79,2.039-3.722,3.524-.932,1.488-1.603,3.135-2.015,4.944-.411,1.809-.621,3.664-.63,5.569-.017,3.36.454,6.245,1.404,8.66.95,2.414,2.323,4.271,4.119,5.576,1.796,1.305,3.95,1.973,6.47,2.01,1.579.023,3.255-.164,5.033-.561,1.776-.396,3.653-1.077,5.637-2.04.741,1.399,1.479,2.798,2.215,4.198-1.107.683-2.192,1.273-3.253,1.772-1.062.5-2.14.906-3.232,1.221-1.094.315-2.231.546-3.414.693-1.182.148-2.448.212-3.795.193Z"/>
      <path class="st16" d="M258.032,20.559c-3.908-.137-7.817-.255-11.726-.357.048-1.847.096-3.695.143-5.542,10.675.276,21.348.684,32.016,1.223-.093,1.846-.187,3.691-.28,5.537-3.964-.2-7.929-.382-11.894-.546-.488,11.806-.976,23.612-1.464,35.418-2.677-.111-5.355-.213-8.032-.306.413-11.809.825-23.618,1.238-35.427Z"/>
      <path class="st16" d="M297.569,58.69c-3.14-.212-5.881-.928-8.231-2.155-2.35-1.227-4.297-2.844-5.843-4.857-1.547-2.012-2.678-4.326-3.392-6.943-.714-2.617-.999-5.398-.846-8.343.155-2.983.727-5.729,1.724-8.237.996-2.508,2.402-4.666,4.222-6.472,1.818-1.805,4.007-3.166,6.561-4.076,2.554-.911,5.459-1.26,8.705-1.04,3.323.224,6.213.956,8.663,2.186,2.449,1.231,4.455,2.866,6.015,4.899,1.559,2.034,2.671,4.371,3.34,7.012.668,2.64.871,5.486.617,8.536-.251,3.014-.939,5.757-2.054,8.231-1.115,2.474-2.604,4.591-4.461,6.354-1.859,1.763-4.051,3.073-6.579,3.933-2.528.86-5.339,1.184-8.442.975ZM298.153,53.397c2.177.147,4.02-.18,5.532-.989,1.512-.808,2.758-1.932,3.738-3.375.979-1.443,1.728-3.061,2.246-4.857.517-1.794.847-3.604.987-5.428.14-1.824.101-3.69-.117-5.597-.22-1.907-.71-3.685-1.472-5.334-.763-1.648-1.868-3.012-3.316-4.09-1.449-1.077-3.31-1.695-5.581-1.849-2.232-.151-4.12.186-5.657,1.005-1.538.82-2.795,1.968-3.768,3.442-.975,1.475-1.706,3.115-2.195,4.918-.49,1.804-.786,3.6-.891,5.389-.107,1.827-.026,3.692.242,5.596.267,1.905.788,3.675,1.56,5.311.771,1.637,1.86,2.984,3.265,4.045,1.405,1.062,3.213,1.664,5.428,1.814Z"/>
      <path class="st16" d="M324.863,19.061c4.842.419,9.682.864,14.52,1.337,2.582.253,4.919.836,7.004,1.746,2.085.91,3.694,2.245,4.826,4,1.132,1.755,1.541,4.044,1.233,6.864-.17,1.559-.754,3.016-1.747,4.373-.994,1.357-2.219,2.474-3.673,3.353-1.455.88-2.977,1.426-4.569,1.638,3.588,6.876,7.11,13.768,10.566,20.672-2.909-.326-5.819-.641-8.729-.947-3.152-6.449-6.361-12.888-9.625-19.313-1.042-.1-2.084-.198-3.126-.296-.565,6.059-1.131,12.118-1.696,18.177-2.558-.239-5.117-.469-7.677-.693,1.087-12.478,2.175-24.956,3.262-37.434-.19-1.159-.38-2.319-.571-3.478ZM333.137,25.427c-.361,3.866-.721,7.732-1.082,11.598,1.218.114,2.435.229,3.653.346,1.484.143,2.831.097,4.047-.139,1.214-.236,2.209-.764,2.986-1.586.776-.822,1.245-2.012,1.405-3.572.125-1.225-.077-2.278-.605-3.158-.53-.879-1.274-1.573-2.23-2.082-.957-.508-2.031-.821-3.22-.936-1.651-.16-3.301-.318-4.952-.472Z"/>
      <path class="st16" d="M359.089,22.476c8.856,1.002,17.704,2.096,26.542,3.28-.246,1.832-.491,3.663-.737,5.495-5.893-.79-11.79-1.539-17.691-2.247-.461,3.836-.921,7.673-1.382,11.51,4.481.538,8.96,1.1,13.436,1.685-.24,1.832-.479,3.665-.719,5.497-4.457-.583-8.917-1.142-13.378-1.678-.507,4.226-1.015,8.451-1.522,12.677,5.765.692,11.526,1.424,17.282,2.195-.245,1.832-.491,3.663-.737,5.495-8.281-1.11-16.571-2.137-24.867-3.082,1.417-12.445,2.834-24.89,4.25-37.335-.159-1.164-.319-2.328-.48-3.492Z"/>
      <path class="st16" d="M403.874,27.654c2.15.319,4.209.923,6.173,1.81,1.963.887,3.684,1.996,5.16,3.325-1.57,1.378-3.135,2.758-4.696,4.141-.893-1.045-2.029-1.918-3.407-2.618-1.38-.7-2.739-1.15-4.077-1.348-1.491-.221-2.905-.041-4.238.538-1.333.58-2.112,1.667-2.34,3.255-.154,1.072-.011,2.035.429,2.89.438.856,1.082,1.638,1.929,2.346.846.71,1.797,1.424,2.852,2.147,1.233.825,2.509,1.677,3.827,2.557,1.318.88,2.507,1.884,3.57,3.012,1.062,1.128,1.861,2.435,2.399,3.917.538,1.484.647,3.221.332,5.212-.427,2.693-1.462,4.87-3.099,6.541-1.637,1.671-3.615,2.818-5.935,3.446-2.32.629-4.74.756-7.267.386-2.266-.332-4.488-.906-6.667-1.723-2.181-.817-4.179-1.931-5.998-3.347,1.155-1.934,2.315-3.867,3.478-5.797,1.148,1.365,2.527,2.546,4.139,3.548,1.611,1.002,3.31,1.632,5.101,1.894,1.194.174,2.345.118,3.457-.17,1.11-.288,2.067-.814,2.871-1.58.804-.765,1.304-1.794,1.501-3.087.202-1.328-.007-2.483-.627-3.465-.621-.98-1.484-1.894-2.59-2.737-1.107-.843-2.311-1.681-3.615-2.512-1.164-.735-2.305-1.512-3.422-2.331-1.118-.818-2.109-1.721-2.974-2.71-.866-.987-1.518-2.142-1.954-3.465-.437-1.322-.54-2.834-.307-4.536.37-2.699,1.358-4.807,2.972-6.318,1.614-1.509,3.574-2.517,5.878-3.018,2.304-.5,4.687-.569,7.144-.204Z"/>
    </g>
    <g>
      <path class="st5" d="M543.488,25.787c6.864,12.865,13.507,25.803,19.927,38.808-2.759.324-5.517.661-8.274,1.011-1.835-3.718-3.688-7.432-5.558-11.139-4.113.542-8.224,1.112-12.331,1.712-.809,4.08-1.6,8.16-2.372,12.24-2.155.325-4.31.658-6.464.999,2.671-14.258,5.572-28.51,8.702-42.753,2.122-.3,4.245-.592,6.368-.878ZM540.737,35.997c-.804,4.823-1.585,9.646-2.343,14.47,2.863-.411,5.728-.809,8.594-1.193-2.062-4.432-4.145-8.858-6.251-13.277Z"/>
      <path class="st5" d="M561.801,23.516c2.967-.338,5.935-.661,8.905-.969,1.413,13.591,2.825,27.182,4.237,40.773-2.576.268-5.151.547-7.724.837-1.405-12.446-2.81-24.893-4.215-37.339-.004-.036-.104-.307-.298-.811-.197-.504-.383-1.027-.563-1.571-.18-.543-.295-.849-.341-.919Z"/>
      <path class="st5" d="M590.71,20.015c2.192-.18,4.36-.058,6.498.362,2.137.421,4.084,1.116,5.837,2.08-1.238,1.694-2.468,3.391-3.691,5.089-1.114-.817-2.429-1.411-3.945-1.782-1.517-.37-2.958-.498-4.319-.387-1.519.124-2.869.623-4.047,1.493-1.179.871-1.694,2.107-1.552,3.706.095,1.079.458,1.983,1.087,2.715.627.733,1.438,1.346,2.431,1.842.992.497,2.088.976,3.288,1.44,1.397.523,2.841,1.064,4.333,1.623,1.49.559,2.883,1.27,4.177,2.131,1.294.861,2.369,1.957,3.228,3.281.858,1.326,1.353,2.995,1.489,5.006.184,2.719-.341,5.074-1.563,7.068-1.222,1.995-2.889,3.555-5.005,4.689-2.115,1.135-4.438,1.807-6.978,2.021-2.278.192-4.567.141-6.874-.152-2.307-.293-4.507-.916-6.606-1.87.675-2.149,1.356-4.298,2.043-6.446,1.435,1.062,3.051,1.894,4.851,2.498,1.799.605,3.597.83,5.401.676,1.202-.102,2.311-.419,3.328-.951,1.016-.532,1.829-1.261,2.44-2.189.611-.927.867-2.042.767-3.346-.103-1.34-.568-2.418-1.396-3.234-.829-.814-1.879-1.508-3.152-2.079-1.274-.57-2.643-1.111-4.109-1.622-1.306-.449-2.601-.944-3.883-1.484-1.282-.539-2.462-1.189-3.537-1.951-1.078-.76-1.984-1.732-2.719-2.918-.736-1.185-1.188-2.632-1.356-4.341-.266-2.711.213-4.991,1.451-6.836,1.238-1.843,2.935-3.277,5.089-4.296,2.155-1.017,4.489-1.631,6.996-1.836Z"/>
      <path class="st5" d="M607.854,19.447c2.977-.188,5.955-.361,8.934-.519.628,11.799,1.256,23.599,1.885,35.398,5.406-.288,10.814-.526,16.223-.714.064,1.847.128,3.694.193,5.541-7.979.278-15.955.664-23.926,1.16-.777-12.501-1.555-25.002-2.332-37.504-.325-1.121-.65-2.241-.976-3.362Z"/>
      <path class="st5" d="M656.725,17.673c5.212,13.614,10.197,27.273,14.955,40.971-2.773-.019-5.547-.025-8.32-.018-1.359-3.917-2.737-7.83-4.132-11.74-4.14.03-8.28.088-12.419.176-1.303,3.948-2.588,7.9-3.854,11.853-2.173.056-4.346.12-6.519.193,4.397-13.818,9.023-27.603,13.875-41.35,2.138-.035,4.275-.064,6.413-.084ZM652.744,27.465c-1.389,4.687-2.757,9.377-4.101,14.07,2.885-.055,5.77-.095,8.655-.122-1.495-4.653-3.013-9.302-4.554-13.948Z"/>
      <path class="st5" d="M684.792,17.887c5.477,8.292,10.802,16.634,15.974,25.02.396.614.772,1.236,1.128,1.867.355.63.711,1.272,1.064,1.922-.008-.71-.045-1.431-.109-2.163-.065-.731-.083-1.45-.054-2.16.332-7.964.664-15.928.995-23.891,2.176.091,4.351.189,6.526.295-.67,13.722-1.339,27.445-2.009,41.167-2.021-.099-4.043-.19-6.065-.275-5.767-9.62-11.734-19.184-17.899-28.684-.374-.642-.768-1.285-1.181-1.928-.414-.643-.811-1.266-1.187-1.871.066.599.132,1.216.199,1.852.065.637.093,1.271.082,1.906-.171,9.276-.342,18.552-.513,27.827-2.08-.038-4.16-.069-6.24-.093.142-12.506.283-25.012.425-37.518-.26-1.142-.522-2.283-.784-3.425,3.216.034,6.433.084,9.649.151Z"/>
      <path class="st5" d="M726.405,25.204c-3.951-.264-7.904-.502-11.857-.715.099-1.845.198-3.691.298-5.536,10.816.581,21.624,1.354,32.419,2.319-.164,1.841-.329,3.681-.493,5.522-4.004-.358-8.01-.689-12.018-.994-.896,11.782-1.792,23.564-2.688,35.346-2.674-.203-5.348-.394-8.023-.573.788-11.79,1.576-23.58,2.363-35.369Z"/>
      <path class="st5" d="M751.077,21.621c8.993.841,17.977,1.816,26.949,2.923-.226,1.834-.453,3.668-.679,5.502-5.971-.737-11.947-1.415-17.928-2.033-.398,3.844-.795,7.687-1.192,11.531,4.524.468,9.046.97,13.565,1.507-.218,1.835-.436,3.67-.654,5.505-4.491-.533-8.985-1.032-13.482-1.497-.438,4.233-.875,8.467-1.313,12.7,5.785.598,11.565,1.254,17.341,1.967-.226,1.834-.453,3.668-.679,5.502-8.292-1.024-16.594-1.928-24.905-2.714,1.179-12.47,2.357-24.94,3.536-37.409-.185-1.161-.371-2.322-.558-3.484Z"/>
      <path class="st5" d="M796.534,26.342c2.181.314,4.271.916,6.266,1.803,1.994.887,3.741,1.999,5.24,3.33-1.587,1.375-3.167,2.755-4.741,4.138-.905-1.045-2.059-1.918-3.456-2.617-1.4-.698-2.779-1.146-4.133-1.341-1.51-.217-2.941-.033-4.285.553-1.345.586-2.123,1.676-2.341,3.266-.147,1.073.005,2.036.456,2.889.448.854,1.104,1.633,1.963,2.337.858.706,1.822,1.418,2.889,2.137,1.248.822,2.539,1.671,3.87,2.549,1.331.878,2.533,1.881,3.606,3.009,1.072,1.128,1.879,2.435,2.422,3.918.543,1.484.654,3.221.339,5.213-.427,2.692-1.465,4.87-3.104,6.541-1.638,1.672-3.615,2.821-5.936,3.455-2.319.634-4.738.771-7.266.413-2.268-.321-4.491-.881-6.677-1.681-2.186-.801-4.195-1.898-6.029-3.296,1.137-1.945,2.281-3.888,3.43-5.828,1.163,1.356,2.556,2.527,4.178,3.516,1.621.99,3.327,1.611,5.122,1.863,1.197.168,2.349.107,3.462-.185,1.11-.292,2.068-.821,2.871-1.589.803-.768,1.303-1.797,1.495-3.091.198-1.329-.016-2.484-.643-3.464-.628-.979-1.499-1.889-2.615-2.729-1.117-.84-2.334-1.672-3.651-2.497-1.175-.73-2.329-1.5-3.46-2.313-1.132-.811-2.137-1.708-3.018-2.691-.882-.981-1.549-2.131-2.003-3.451-.454-1.32-.574-2.83-.356-4.534.344-2.703,1.321-4.819,2.939-6.34,1.619-1.521,3.594-2.541,5.924-3.053,2.33-.512,4.747-.589,7.24-.23Z"/>
    </g>
  </g>
  <g>
    <path class="st2" d="M378.8,279.4c3.6,11.4,19.2,51.8,20.4,63,.2-11.1,16.5-52,20-63h19.7l-32.1,91.3h-19.7l-31.9-91.3h23.6Z"/>
    <path class="st2" d="M482.3,277.1c8.2,0,19.4,1.7,26.8,5.6l-7.7,15.3c-8.6-8.9-37.1-9.4-28.9,8.7,9.7,9.8,28.3,9,35.1,22.8,14.1,40.2-34.7,52.5-63.2,35.3l7.8-14.9c25.8,18.2,46.6-2.5,26.6-15.1-9.2-4.8-21.4-6.6-27.9-15.7-13-22.2,8.5-43,31.3-41.9l.1-.1Z"/>
  </g>
</svg>