<?xml version="1.0" encoding="UTF-8"?>
<svg id="Layer_1" xmlns="http://www.w3.org/2000/svg" width="888.6" height="700.1" version="1.1" viewBox="0 0 888.6 700.1">
  <!-- Generator: Adobe Illustrator 29.4.0, SVG Export Plug-In . SVG Version: 2.1.0 Build 152)  -->
  <defs>
    <style>
      .st0 {
        fill: #0d1b03;
      }

      .st1 {
        fill: #a8dde1;
      }

      .st2 {
        fill: #fcba25;
      }

      .st3 {
        fill: #040e02;
      }

      .st4 {
        fill: #e9a612;
      }

      .st5 {
        fill: #5aba47;
      }

      .st6 {
        fill: #d8d4c5;
      }

      .st7 {
        fill: #f07900;
      }

      .st8 {
        fill: #be7e14;
      }

      .st9 {
        fill: #a36a0e;
      }

      .st10 {
        fill: #d5bc2a;
      }

      .st11 {
        fill: #fefefe;
      }

      .st12 {
        fill: #242003;
      }

      .st13 {
        fill: #474938;
      }

      .st14 {
        fill: #608d99;
      }

      .st15 {
        fill: #ad9922;
      }

      .st16 {
        fill: #d60000;
        stroke: #000;
        stroke-linejoin: bevel;
        stroke-width: 5px;
      }
    </style>
  </defs>
  <g>
    <g>
      <g>
        <g>
          <path class="st12" d="M65.8,359.3c30.9-5.7,34.8,34,28.6,55.5,13.5-.5,33.6-7.1,45.3,1,7.4,23.9,13.3,81.9,8.8,109.4,4.2,2.3,8.2,6.4,11.5,9.7,1.4-3.6,3.5-6.7,5.5-9.9-11.3-6.1-16.4-21.4-6.5-31.2l4.7-1.1c-4-29.6,31.8-18.4,42.1-3.4-29.4-57.6,17-114.8,78.4-111.2,64.3,5.2,78.2,90.2,35.2,130,9.8,4.7,17.6,13.2,27.3,17.8,2.8-5.3,6.9-9.9,10.7-14.6-12.1-8.2-12.4-28.3,2.3-33.8.3-16.8,16.1-26.1,28.7-12.8,5.9-.7,10.8,2,14,6.8,28.2,7.5,11.7,49.9-11.7,51.7-22.3,42.8-35.6,46.7-77,21.8-2.2,10.1-3.4,20.4-5.7,30.4,30.1,25,44.6,26.7,34.7,70.1,7.6,2.7,32.5,11.6,24.3,22.5-9.1,6.2-52.7,5.2-60.8-3.2-1.7-5,5.7-36.5,7-44-9-5.3-17.2-13-25.5-19.3-6.3.5-12.7.3-19,.7-7.3,17.6-15.5,34.8-24.7,51.5,7.7,1.9,25.8,17.6,11.8,22.8-12.4,3.7-47.6,3.7-55.8-8.3-2.3-10.2,8.6-17.2,12.9-25.4,6.1-10.2,10.9-21.6,15.8-32.4-13,4-30.3-10.2-19-22.6-9.5-9.3-17.2-16.3-20.1-29.9,6-18.9,28-33.7,44.4-43.2-6.2-3.8-11.6-8.2-17.2-12.8,0,13.9-6.6,29.5-21.5,32.7-6,12.8-13.4,30-28.2,34.1-7.3,1-16.8-6-22.3-10.4-1.8,8.2-3.7,16.4-5.7,24.6,7.6,12.4,19,23.2,23.5,37.3,1.3,6.9-3.4,18.8-5.2,25.8,8.1,4.7,23.3,7.2,23.3,19-7.3,11.9-39.7,5.8-51.6,3.4-2.9-.9-6.8-2.5-8.1-5.5-2-4.2,9.3-32.9,11.3-38.7-6.2-8.8-11.8-18.3-17.1-27.7-7.1,1-14.4.7-21.5.7-6.2,19.7-14,39-20.3,58.7,7,2.5,30.2,15.1,18.4,23.2-12.4,5.3-46.8,2.6-56.2-8.3-.8-9.3,5.9-18.8,8.6-27.6,5.7-14.5,11.1-29.2,16.4-43.9-14.4,7.7-30.5-5.9-27.1-21.3-46.7-33.9-20.3-56.4,18.1-79-2.2-23.5-6.6-47.2-8.1-70.6,2.5-3,5.1-4.6,8.8-5.9-14.3-19.3-17.7-59.9,13.4-63.4ZM66.1,375.6c-13.7,9.1-5.3,31.1,1.1,42.5.2.5,5.4-.6,5.9-.6,1.2-11.1,7.6-37.3-6.9-41.9ZM223.4,558c5.2,4.4,7.4,14.9,15.8,12.7l.3-23.7c-5.1,4-10.7,7.5-16.1,11ZM40.8,542c4.6,4.1,7.3,11.7,13.1,14.1,1.2-2-.4-21.5-.7-25.3-4.2,3.7-8.3,7.4-12.4,11.2Z"/>
          <path class="st7" d="M136.2,421.3l.9.4c10.1,52.1,12.5,110.2-2.7,161.8,6.5,13.1,19,23.7,23.6,37.7,1.1,5.3-4.6,21-5.9,27.3,57.8,23.3-5.7,21.2-27.7,14,4-13,8.6-25.8,12.5-38.8-5.7-10.7-12.7-21.4-19.3-31.7-9,.8-18,.7-26.9.7-8.2,21.7-15.3,43.8-23.1,65.7,46,20,10.5,22.9-15.7,16.2-2.8-.6-10.2-2-11.6-4.7-1-2,24-66.1,26.9-75.2,5-3.4,6.2-5.8,7.6-11.6,8.5-3.7,6.6-16.9.9-22.4-4.6-4.6-10.9-5.1-17-5,0-9.6-.7-19.3-1-28.9,12.2-6.6,19.6-32.2-1.5-28.7-1.7-13.8-6.1-50.2-8-64.6,24,.8,66.7-2.2,88-12.1Z"/>
          <path class="st12" d="M92.8,455.9c10.1-.8,11.7,15.3,4.8,20.4-10.3,2.4-11.8-16-4.8-20.4Z"/>
          <path class="st12" d="M122.4,453.9c10.2-.9,9.6,16.7,3.1,20.9-10.3-.2-10.7-16.5-3.1-20.9Z"/>
          <path class="st12" d="M84.6,486.7c2.6,0,4.2,2.3,6,3.8,4.6,3.7,9.5,6.6,15.2,8.3,7.5,2.2,18.4-1.1,22.3.6.7,1.3.4,1.7,0,3.1-12.2,4.1-43,.7-43.5-15.7Z"/>
          <path class="st12" d="M86.8,445.9c5.3.2,14.2-2,17.9,2.6-.7,2.2-3,2.3-5,2.4-5-.2-14.2,2.6-17.6-1.8.5-2.2,2.7-2.9,4.7-3.2Z"/>
          <path class="st12" d="M125.3,443.5c2.8-.5,8.1-.6,7.7,3.5-1.7,2.3-16.9,3.9-19,1.8,0-5,7.7-4.8,11.3-5.3Z"/>
          <path class="st10" d="M401.9,477.4c22.7,1.6,4.9,45.9-14.8,41.3-4.8,13.5-17.3,32.9-31.1,38.1-10.1,2.9-33.1-12.5-41.9-17.4.3-3,.8-6,.4-9-6.5,0-9.3,40.8-11,47.5,13,10.6,28.9,20,37.2,35,2.2,6.2-2.6,27.3-2.8,35.6,8.7,3.8,21.4,6.2,26.2,15-7,8.4-43.5,2-53.9-.2,1.6-14.8,5.7-29.4,7.4-44.3-26.2-18.2-19.7-24.4-52.7-21.2-6.2,20.4-18.7,38.6-26.8,58.3,7.5,1.6,16.1,7.9,18.5,15.4-6.4,5.9-40.2,1.5-48.3-1.4-11.8-5.3,5.5-18.7,8.6-25.4,6.3-11.4,11.6-23.4,17.2-35.2,4-4.8,6.4-9.1,8.3-15,9.1-4.1,9.4-17.1,1.3-22.5.4-11.5-.8-22.8,1.8-34.1-9.7,5.9-20.5,12.4-28.9,20.1,5.4,5.9,9.7,11.7,13.9,18.5,11.6-5,20.5,4.8,11.3,14.1l-4-5.5c6.7,34.2-42.4,21.8-22,2.8-8.6-9.4-19.8-17.1-21.5-30.7,4.3-15.2,33.7-34.4,47.4-40.2,26.2,8.4,49.8,12.1,73.4-5.3,8.9,2.8,24,14.9,32.8,20.3,4.9-7.1,11.3-13.7,15.7-21-8.8-5.2-15.9-21.3-4.9-27.7,9-4.6,35.1,11.4,16.5,16.7-8.5-3.1-6.2-4.5-11.8-8.5l-.7.3c0,6.2,6.3,9.3,11.3,11.1-.9,2.6-3.2,8.9.9,9.4,1.4-4.9.1-9.1,6.5-10.5,9.8,6.5,24.3,2.4,23.5-10.9-3.8,1.8-5.1,8.4-9.2,10.4-19.8,5.5-5.2-23.2,6-23.9Z"/>
          <path class="st4" d="M277.5,383.7c80.7-2.2,81.9,126.9,5.8,135.5-81.8,2.9-84-128-5.8-135.5Z"/>
          <path class="st0" d="M274.3,395.7c66.8-8.5,74.2,100.5,13,112.2-67,8.7-74.5-100.5-13-112.2Z"/>
          <path class="st6" d="M277,399.2c60.2-6,64.8,97.5,8.8,104.9-62.1,7.9-66.6-98-8.8-104.9Z"/>
          <path class="st0" d="M259.1,471.7c9.5,8.7,20.9,14.2,34.1,9.4,2.4-.9,5.2-3.9,7.5-4l.7.8c.1,1.3,0,2.1-.6,3.3-8,6.6-20,7.5-29.6,4.1-5.3-1.9-15.7-6.8-12.1-13.8Z"/>
          <path class="st0" d="M268.3,442.8c10.4-.9,9.7,15.8,3,20.3-10.3.6-9.6-15.7-3-20.3Z"/>
          <path class="st0" d="M300.8,442.8c10.5-.4,8.3,17,1.2,20.5-9.6-1-8-16.7-1.2-20.5Z"/>
          <path class="st0" d="M262.9,426.4c5.2-.3,23.9,5,15.2,11.9-5.1-4.4-13.4-4.2-17.5-9.5.6-1.4,1-1.5,2.2-2.4Z"/>
          <path class="st0" d="M305.4,426.9c2.7-.3,4.6-.5,7,1.2,1.1,4.5-10.1,5.4-13.2,7.1-1.8.8-3.4,1.6-5.4,1.4l-1.1-1.4c1.7-4.9,8.4-6.8,12.7-8.4Z"/>
          <path class="st10" d="M59.7,501.2c22.8,8.2-24.3,35.1-24.5,40.3,2.1,5.6,11.3,14.7,15.5,19.1,13-4.9,31,1.1,24,17.6-2,0-4.1-4-6-5.1l-.6.2c.6,5.8,5.6,14-2.3,17.2-4.4-.3-3.6-7.5-7.9-7.5l-.6.9c.7,2.4,2.3,5,2.2,7.6-.7,6-10.9,8.4-14.8,4.2.9-1.3,3.1-2,4.5-2.8-1-1.1-5.6-1.4-7.3-1.9-6.4-1.4-4.8-9.4-3.1-13.9-11.5-9.3-32.3-24.6-24.1-41.6,6-11.6,32.6-30.3,45-34.2Z"/>
          <path class="st10" d="M201,491.5c21.2,2.7,9.5,37.1-6.7,39.1-1.4-.1-2.6.4-3.1,1.8-10.1,23.3-21.6,45.6-46.1,20.2,1.4-7.6,2.8-15.1,3.5-22.8,4,3.6,7.4,8.2,11.2,12.1,3.8-5.6,8-11.3,10.9-17.4-26.2-18.2-6.2-42.1,14.8-18.5,1.5,2,1.6,4.8-.8,6-8.8,5.2-11.6-5.3-16.7-6.6l-.6.6c.2,5.1,7.4,8.6,11.3,11.1.2,2.9-.2,9.2,3.6,9.6-1-2.3-1-6.5-.8-9.2,14.1-2.3,23.9,5.6,25.6-14.7l-.7-.4c-3.6,2.6-3.2,9.9-8.8,12.3-14.4,1.1-7.2-22,3.3-23.2Z"/>
          <path class="st2" d="M250,387.9h.3c-43.8,27.7-46.5,100-1,127.5-64.5-17.5-60-108,.8-127.5Z"/>
          <path class="st7" d="M56.7,421.5c-6.7-11-12.3-25.1-10.1-38.1,1.1-16.8,24.5-28.4,34.5-12l1.4-1.5-3.4-5c15.8,8.9,15.4,35.6,10.1,50.3l-2.3.7c-1.2-1.9-.2-5.8.1-8-.7,0-.9,0-1.5-.2l-.5-2.2c-.4,3-.5,8.2-2.1,10.6-1.8,1.8-4.5.9-4.8-1.7.5-13.6,5.8-33.7-8.2-42.3-24.5-2.9-15,35.6-7.8,48.1-1.9.3-3.8.8-5.6,1.2Z"/>
          <path class="st7" d="M82.5,369.9l-3.4-5c15.8,8.9,15.4,35.6,10.1,50.3l-2.3.7c-1.2-1.9-.2-5.8.1-8-.7,0-.9,0-1.5-.2-.6-12.2,1.3-24.9-4.5-36.4l1.4-1.5Z"/>
          <path d="M84.2,380.6l2.3-1.1c1.6,9.8,1.5,18.6.6,28.4-.7,0-.9,0-1.5-.2-.9-9,1.2-18.1-1.5-27.1Z"/>
          <path class="st3" d="M81.1,371.4l1.4-1.5c1.9,3.1,3.1,6.1,4,9.6l-2.3,1.1c-.6-3.2-1.7-6.2-3.1-9.2Z"/>
          <path class="st7" d="M112.7,417.3c4.5-.5,19.9-1.6,23.2,1l-.4.7c-27.1,9.4-59.1,11.8-87.3,10.9,6.2-8,53.2-11.4,64.4-12.6Z"/>
          <path class="st10" d="M387,469.7c5.7-.6,8.1.7,12.5,3.9-7.3,3.6-11.3,8.2-14.6,15.6h-.8c-2.8-1.5-5.1-4.7-7.4-6.8,1.8-6.4,4.4-9.6,10.3-12.6Z"/>
          <path class="st10" d="M188.3,483.2c4.3,0,7.2,2.2,10.3,4.8-5.8,2.8-8.9,7-11.3,12.9-2.5-.4-6.4-4.4-8.6-6,.9-5.6,3.8-10.4,9.6-11.7Z"/>
          <path class="st10" d="M372.8,462.7c4.5-.2,7.5,1.1,11.2,3.5-6.1,3-9.4,8.5-10.7,14.8-2.3,0-5.7-1.8-8-2.7,0-6.5,2.1-11.8,7.5-15.7Z"/>
          <path class="st10" d="M174.3,477.8c2.6.1,7.2,0,9.2,1.7-2.1,5.4-7.4,6.4-8.2,14.3-2.1.4-5.3-.5-7.5-.8-.3-5.7.3-12.9,6.5-15.2Z"/>
        </g>
        <g>
          <path class="st12" d="M144.1,191.6c4.4-23.7,7.5-54.5,13-77.9,4.8-3.8,61.6-16.6,68.7-16.3,5.5.2,52.1,11.6,54.7,14.4,1.7,7-6.9,62.2-8.5,74.1,11.7,4,31,9.2,42.9,15.1,3.1-6.5,6.1-13.1,8.5-19.9-15.6-4.6-25.7-28.2-7.1-35.9-1.6-15.1,11.2-30.3,26.5-21.4,6.5-1.5,12.7,0,18.7,2.5,7,2.1,11.7,2.5,15.9,9.3,10.6,17.9-.2,40.4-17.5,49.5-17.5,61.2-41.3,50.8-91.9,31.6-10.1,56,5.5,46.1-49.1,59.4-49.4,12.5-45.4,22.1-84.4-17.8.8-9.7,3.1-19.4,4.6-29-50.5,22.8-80,30.2-84.9-36.8-14.8-13.8-13.5-42.4,3.8-53.6,7.1-2.4,13.4-6.3,21.1-6.6,17.1-6.8,32.5-1.4,30.1,19.4,22,10.7,1.9,37.3-15.4,40.3,1.3,6.1,2.4,12.3,4,18.3,12.4-2.8,34.2-13,46.3-18.7Z"/>
          <path class="st12" d="M64.1,137c2-1.5,3.8-2.5,6.1-3.3-.5,1.5-.5,2.5-1.8,3.5-1.4,0-2.9-.1-4.3-.1Z"/>
          <path class="st4" d="M276.1,116.6c-4.4,45.3-12.7,100-19.5,145.3-27.1,7.5-54.6,13.9-81.9,21,4.9-44.9,16.9-105.3,22-150.2,26.6-4.4,53.9-7.1,79.5-16.1Z"/>
          <path class="st12" d="M205.6,192.6c8.8,2,16.1,4,25.2,4.5,3.3.2,15.1-.8,16.8-.2,3.9,4.3-3.8,11.5-6.4,15.1-16.1,17-40.5,2.9-35.5-19.4Z"/>
          <path class="st11" d="M209.8,198.8c10.5,3.6,22.3.4,32.5,3.9-1.9,5.5-12.5,15.4-18,11-9.2,4.4-13.6-7.8-14.5-14.9Z"/>
          <path class="st12" d="M217.3,162.7c11-.9,9.1,16.1,2.3,20.4-11.4,1.2-8.7-15.8-2.3-20.4Z"/>
          <path class="st12" d="M248.5,160.7c9.7,1.8,5.5,19-1,22.7-9.3-3.1-5.9-18.5,1-22.7Z"/>
          <path class="st12" d="M259.1,141.8c2.7-.6,6.4,1.7,5.4,4.7-1.3,2.7-22.9,12.3-24.4,6.3-1-6.2,14.6-9,19-11Z"/>
          <path class="st12" d="M207.2,146.6c4.9-.3,30.8,2.5,20.1,11-4.4-.3-28.3-2.9-20.1-11Z"/>
          <path class="st10" d="M63.8,141.4c12.9-2.1,13.2,15.7,12.9,24.5-10.9,10.1-15.1-3.2-13-12.8l-.8-.8h-.8c-6.1,14.2,1.2,24.9,17.1,18.9,6.8,4.1.2,11.9-1.9,16.8l.5.5c5.6-1.9,7.2-8.7,7.4-13.9,7,1.7,19.2.2,21-8l-.8-.3c-12.7,11.9-35.5,2.7-11.8-8.3,12.4-5.3,27.1,1.1,18.4,15.8-5.1,9.1-14,12.7-23.5,15.4,2.1,10,3.8,21.1,8.3,30.3h1c1.3-1.1,1.2-2.5,1.5-4.1,6.6-4.3,15.2-5.7,22.5-8.7,9.6-3.9,18.9-9.2,28.6-12.7,3.5-1.9,7.6-.9,8.4,3.3,8.3,24.3-38.3,33.6-54.5,40.8-8.1,2.6-19.6,5.1-27.5.9-15.9-9.2-15-31.4-18.5-47-1.7-5-6.6-8.1-8.2-13.4-3.9-13-.8-32.3,13.7-37.2Z"/>
          <path class="st4" d="M160.4,118.1c11.2,4.6,22,9.8,33.3,14.1-8,50.2-14,101-23.9,150.9-10.6-8.3-20.4-17.6-30.9-26,2-10.1,3.4-20.2,4.9-30.3,5.2-2.6,11.2-5.1,15-9.7,8.5-9.2,7-32.1-9.5-28.1,4.1-23.5,7.1-47.2,11.2-70.8Z"/>
          <path class="st10" d="M361.2,131.7c26.3,1.5,16.1,44.5-4.6,49.6-18,61.7-37.3,49.9-88.5,30.7.6-7.1,2.2-14.4,3.1-21.6,15.1,5.6,30.9,9.7,45.7,16,5.4-8.5,9.2-17.9,12.3-27.5-11.2-3.1-23.4-13.5-16.5-26,6.1-7.1,19.9-3.7,27.3-.4,6.8,3,5.9,9-1.1,10.7-10.1,3.3-11.5-3-17.5-3,.7,7.8,12.8,6.8,18.5,6.4-.1,3.6-1.5,8.9,1.9,11.3l.9-.3c0,0,.2-9.1.6-11.1,1.9-1.6,3.3-3.1,4.6-5.2,1.9,1.7,3.7,2.8,6,3.9,11.4.6,18.8-13.3,13.4-22.6l-1,.2c.9,7.1-1.9,20.8-11.5,18.4-8.4-6.6-4.3-26.7,6.3-29.3Z"/>
          <path class="st4" d="M224,102.1c5.9-.6,42.9,9.3,49.6,12-25.1,7.1-51.1,12.4-77.1,14.5-7.2-.6-26-9.5-32.9-13,19.8-5.6,40.1-9.6,60.3-13.4Z"/>
          <path class="st10" d="M76,136.5c12-1.6,15.9,7.3,15.9,17.8-4.7,2.3-9.2,4.9-12.2,9.3.4-9.4-.4-19-7.7-25.5,1.1-1,2.6-1.2,4-1.6Z"/>
          <path class="st10" d="M350.1,127.4c1.8.2,4.3.2,5.2,2-1.4,3.7-5.2,6.2-6.7,9.9-1.2,3.1,0,8.9-2.2,11.3-3.7-1.5-7.1-3.3-11-4,0-9.1,4.1-19.5,14.8-19.2Z"/>
          <path class="st10" d="M330.5,126.3c2.3-.3,5.4-.3,7.6.5.5.4-3.1,5.2-3.6,6.3-1.9,4.1-1.7,8.7-3.4,12.5-3.3-.5-6.5-.8-9.9-.9-.5-7.5,1.8-15.5,9.3-18.5Z"/>
          <path class="st10" d="M88,134.2c10.6-3.4,19.6,7.4,16.6,17.5-3,1-6.3,1-9.4,1.9-.8-7.6-1.6-12.9-7.5-18.2l.2-1.1Z"/>
        </g>
      </g>
      <g>
        <path class="st15" d="M32.3,69.4C-5.9,73.5-.6,8,41.6,24.9c-1.3,2.1-2.6,4.2-3.9,6.3C3.4,14.6,12.6,82.4,43.6,58.5c1.1,1.4,2.1,2.8,3.2,4.2-4.2,3.7-8.9,5.9-14.4,6.6Z"/>
        <path class="st15" d="M70.8,64.5c-28.2,4.6-35.1-44.6-5.1-46.7,30.3-4.7,34,45.2,5.1,46.7ZM70.4,58.5c17.2-1.8,13.8-36.8-4-34.9-17.9,2.1-13.1,36.8,4,34.9Z"/>
        <path class="st15" d="M103.6,14.8c2.1,2.5,22.2,27.7,23.3,29.8-.8-2.8-2.2-27.9-2.4-31.3,2.4-.2,4.8-.3,7.2-.5.9,15.3,1.9,30.5,2.8,45.8-2.2.1-4.5.3-6.7.4-1.6-2.4-25-32.2-26.1-33.6.8,1.5,3,32.5,3.3,35-2.3.2-4.6.4-6.9.6-.4-1.7-3.4-45.3-4.9-45.3,3.5-.3,7.1-.6,10.6-.9Z"/>
        <path class="st15" d="M180.4,33.6c0,23.7-19.4,24-37.8,24.3-.3-1.6-1.8-45.7-3.5-45.5,19.1-1.8,40.6-3.2,41.3,21.3ZM171,34.1c-.4-13.6-8.3-18.1-21.6-16.1.5,11.1,1.1,22.2,1.6,33.3,12.8.7,20.3-3.5,20-17.1Z"/>
        <path class="st15" d="M194.6,10.4c.1,10.1.3,20.2.4,30.4,0,6,4.2,10,10.3,9.9,6,.2,10.3-4.1,10.1-10.1,0-10.1,0-20.2,0-30.4,2.4,0,4.9,0,7.3,0-.8,7.4,1.7,32.8-2.7,38.8-5.4,9.4-22.2,9.7-29.1,3-9-7.8-2.7-31.4-6.6-41.5,3.4,0,6.8-.1,10.2-.2Z"/>
        <path class="st15" d="M249.5,57.2c-38.3-2.3-22.1-66,16.6-42.3-1.6,1.8-3.2,3.7-4.9,5.6-31-22.1-33.2,46.3,1.2,27.9.8,1.6,1.6,3.1,2.4,4.7-4.7,2.9-9.8,4.3-15.3,4.1Z"/>
        <path class="st15" d="M281,18.2c-4.4-.2-8.7-.4-13.1-.6,0-2.1.2-4.1.3-6.2,11.9.5,23.8,1.1,35.7,2-.1,2.1-.3,4.1-.4,6.2-4.4-.3-8.8-.6-13.3-.8-.8,13.1-1.5,26.3-2.3,39.4-3-.2-6-.3-8.9-.5.7-13.1,1.3-26.3,2-39.4Z"/>
        <path class="st15" d="M324.3,61.5c-28.6-1-25.7-50.6,4.1-46.8,30.6,1.3,24.6,51-4.1,46.8ZM325.1,55.6c17.3,1.6,20.7-33.4,2.9-35-17.9-1.4-20,33.6-2.9,35Z"/>
        <path class="st15" d="M355.6,18c5.5.8,19.2,1.4,24,3.9,11.5,4.7,6.7,21.7-4.9,22.4,3.8,7.7,7.6,15.5,11.3,23.3-3.2-.4-6.5-.9-9.7-1.3-3.4-7.3-6.8-14.5-10.3-21.7-1.2-.1-2.3-.3-3.5-.4-.8,6.7-1.5,13.5-2.3,20.2-2.8-.3-5.7-.6-8.5-.9,0-1.9,5.5-44.9,3.9-45.5ZM364.7,25.2c-.5,4.3-1,8.6-1.5,12.9,5.2.8,13.1,1.9,13.6-5.2,1-6.6-7.2-7.3-12.1-7.7Z"/>
        <path class="st15" d="M408.4,23.9c4.6.7,9.3,2.7,12.7,5.7-1.8,1.5-3.5,3.1-5.2,4.6-4-5.8-18.7-6.7-15.2,3,4,6.3,13.8,7.9,16.3,15.6,4.5,18.8-20.8,21.7-31.9,11.7,1.3-2.2,2.6-4.3,3.9-6.5,4.5,7.7,22.6,9,18.3-3.2-4.2-6-13.8-7.7-16.2-15.3-3.2-10.3,7.4-17.9,17.5-15.7Z"/>
      </g>
    </g>
    <g>
      <g>
        <g>
          <path class="st0" d="M745.2,413.2c3.8-6.1,1.8-56.9,8.1-60.4,22.2-2.6,67.1,1.2,88.2,12.2,8.9,3.3-1,44.2-.4,53.3-2.8,24.7-2.1,50.6-7.8,74.7,17.1,9.4,71.7,48.6,36.5,65.3-13.5,5.1-29,.9-43,2.9.2,4.9-1,21.2-4.4,25-2.1,2.3-5.5,1.8-6.9,3.5,4.6,14.3,6.7,28.9,13,42.8,4.2,12.1,19.9,29.3,15,41.9-8.8,9.8-46,13.2-56.9,7.2-8.2-9.2,7.5-17.5,14.5-21,.5-3.1-4.9-13.2-6.2-16.8-3.6-9.7-7.3-19.8-9.7-29.8-1.2-4.6-3.3-20.5-5.5-23-5.4-.6-10.8-1.2-16.2-1.7-.9,5.2-17.2,28.3-22.3,32.1,2.3,5,18.5,44,13.4,49.8-8.1,8-90.2,13.2-54.7-12.2,4.1-1.6,12.5-5.2,16-7.7.7-3-4.4-15.7-5.4-20.3-5.4-21.4,10.7-32.4,20.1-49.4.7-8.3,4.3-35.2,3.3-40.1-2.3,5.5-20,14.9-25.7,17.1-22.2,8.9-35.4-20.5-43.4-36.2-1.6-2.1-8.7-3.5-11.4-5.5-3.7-2.7-5.8-7.4-9.7-10.1-2.8,2.8-7,4-9.7,6.9,12.5,2.4,37.9,23.6,42.7,35,2.2,11.9-8.5,28.4-17.3,35.8,8.4,17-8.8,30.7-25.3,28.8h.1c0,0,.1,1.3.1,1.3l.3-.4c3.9,9.5,8.7,18.4,13.7,27.3,3.2,7.8,19.4,23.7,13,31.2-16.7,14.5-92.2,16.9-44.3-17.2-8.7-17.4-17.4-37.7-25-56-8.4.1-16.9.2-25.3.1-7.4,6.5-15.4,12-23,18.2,1.9,7.2,13.1,42.5,10.6,47.1-1.5,2.7-5.8,3.9-8.6,4.5-32.1,8.2-92.1,2-28.9-26.3-2.1-8.8-8.2-28.7-3.5-36.5,5-8.2,28.8-25.9,37.3-31.3-.4-10.1-.8-20.4-1.8-30.5-36.4,27.8-52.5,20.1-74-18.2-20.2-2.9-34.7-34-15.6-47,13.5-5.8,34.7-24,42.3-1.2,16.5,4.2,14.3,25.6,3.4,34.8,3.9,5.7,7.8,11.5,11.9,17,6.7-6.9,15.7-12.5,23.5-18.2-43.8-26.7-38.3-113,7.3-135.1,18.6-7.2,64.9-4.7,83,3.6,29.5,13.9,37.6,56.3,30.7,85.3,15.2-5.7,38.3-11.8,36.2,13,18.8,1.3,12.6,29.8-.9,35.1,2.2,2,7.8,11.3,7.8,14.4,4.1-2.5,31.1-26.5,32.4-29.4,1.1-2.2,5.4-49.6,5.5-54l-.2.3c-8-.8-13.6-6.7-11.2-14.9,1.5-6.3,8.9-5.4,13.8-6.4-4.8-5.5-21.8-6.9-22.9-15.1.5-1.5,1.9-2.2,2.4-3.7,4.7.9,17.5,4.8,20.8,8.1ZM637.3,566.3c2.5-1.8,7.2-9.9,7.9-12.9-2-1.6-19.3-12.8-20.5-12.8,1.9,5.7-.6,23.1-1.5,29.5,1.9.9,4.3-.7,6.3-.4,4.2,1.5,6.3,1.3,7.8-3.3Z"/>
          <path class="st5" d="M464.6,483.3c10.2-.1,14.6,10.3,16.1,18.9-5.6,6.6-12.7,2.4-15.2-4.5-.6-1-1.1-1.9-2.2-2.2-1.4,5,2.5,10.6,7.1,12.5,4.7,1.8,7.2-.6,11.2-2.1,11.5-3.5,7.7,5.5,7.5,11.9h1.4c3.3-3,3.6-8.5,1.5-12.5,3.2-2.9,10-6.2,9.6-11.1-2.4-.9-7.8,7.2-12,7.5-7.7.3-7.5-7.6-2.6-11.5,21.6-17.2,30.6,9.2,12,21.6,5.3,8.3,11.3,16.2,16.3,24.6,10.5-6.7,19.1-15.8,30.4-21.5,19.4,8.6,49.5,7.8,70.4,6.1,2.8-.6,16.4-6.5,17.4-6.4,11.6,8.8,25.5,17.2,34.6,29.3,10.5,11.3-5.9,32.3-13.8,40.5,12.8,23.8-29.2,35.1-31.9,8.7,3-2.3,5.7-4.7,7-8.3-3.9-.9-6,4.7-10.2,4.3-7.4-10.6,8-19.9,17.3-13.8,2.8-1.9,12.3-18.5,12.5-21.5,0-1.1-1.3-2.4-2-3.1-3.6-3.2-23.2-19.6-27.2-14.8,1.6,8.2,1.1,27.6-1.4,35.8-2,4-5.6,7.2-5.3,12.2,0,3.5,2.5,7.4,4.9,9.8,1,5,2.7,8.4,4.8,12.9,6.3,2.6,18.8,33.8,24.5,42.5,2.1,3.8,10.8,15.6,10.5,19.4-5.9,8.8-44.4,12.9-52,5.4-.5-7.8,15.9-13.7,17.8-18.1-7.1-7.6-24-47.8-28.8-60.7-10,0-20.1,0-30.1,0-8.6,6.8-17.2,13.9-25.6,20.8,1.6,11,5.3,22,8.1,32.8.4,4.2,5.2,11.2,1.5,14.4-23.1,8.1-91.5,8.3-26.5-16.9-2.7-9.5-6.9-28.2-5.5-37.5,11.7-11.9,25.3-21.5,38.3-31.8-.6-14.7-1-29.8-2.6-44.4-.2-1.9-.9-4.4-2.5-5.7l-1.2.7c-.5,3.4-.5,7-.5,10.5-11.3,9-31.3,26.3-45.9,15.6-8.5-5.4-21.6-21.3-23.8-31.1-9.4-.6-17.9-6.1-21.1-15.2-4.1-8.5-4-21.5,7-24.1Z"/>
          <path class="st4" d="M754.3,355.9c18,1,43.5,1.1,60.7,4.1.7,2.6-.8,23.8-2.5,26.7,1,4.1-.8,19.4-2.2,23.3.7,3.6-.5,17.3-1.9,21,1,3.2-1.1,24.6-2.6,28.1.7,4.1-2.2,32.1-3.9,35-1.2,2.8-5.7,5.9-7.9,8.3-16.1-3.8-18,25.7-5.4,30.1.7,3.5,3.5,10.1,3.4,12.8-.3,6,4.8,9.4,4.7,11.8.4,2.7-2.2,28.1-3.8,29.7-19.4,0-39.1-2.7-58.1-6.5,6-50.3,7.7-103.3,13.7-153.5,1.2-3.9,5-3.9,4.8-8.9-.8-1.5-1.6-1.5-3.1-2-2.2-4.6,6.4-54.4,4.1-59.9Z"/>
          <path class="st0" d="M767.7,415.3c6.9-.8,24.2-8.8,29.9-6.3,5,7.8-26,14.6-30.3,14.8-3.8-.4-3.7-5-2.1-7.5,1-.2,1.6-.4,2.5-.9Z"/>
          <path class="st8" d="M744.7,582.1c4.3-14.2,6.1-30.6,9-45.4.9-6.5,3.5-47,4.9-48.6,2.6,4.8-.7,13.6-.8,19.1-.4,25.4-4.4,50.9-10.8,75.4l-2.3-.5Z"/>
          <path class="st8" d="M773.9,357c1.2,0,2.7-.2,3.8.4-.5.4-.7.4-.9,1,.3.8.3,1.7.4,2.5l-.6.4c-1.9,18.2-4.9,36.2-8.9,54.1-.9.5-1.5.8-2.5.9,2.5-8.5,10.8-53,8.7-59.3Z"/>
          <path class="st0" d="M788.4,457.8c14.1-3.6-3.3,40.2-31.9,26-11.8-10.5-8.4-15,6.5-14,7-.9,21-6.4,25.3-12Z"/>
          <path class="st11" d="M787.2,463.7h1.2c0,0,.3.8.3.8-2.9,12.2-17.8,22.8-29.6,15.2-.8-1.8-3.2-3.8-4.7-5.1,10.9-.7,24.5-3,32.8-10.9Z"/>
          <path class="st0" d="M775.6,426.2c12.1-2.4,10.7,19.8,1.3,21.8-10.6,2.3-8-18.3-1.3-21.8Z"/>
          <path class="st8" d="M770.7,488h1.1c2.3,13.4.3,27.4-.2,41-1.6,16.7,7.5,36.2,4.2,52.4-.8-10.2-3.9-19.7-5.2-29.8-2.8-22.5-.3-41.2.2-63.6Z"/>
          <path class="st8" d="M796.5,364c.8.4.8.5,1.2,1.2-1.7,7.1-3,31.6-9.1,34.8l-.8-1c3.6-4.3,5.3-24.1,6.5-30.4l.3,1.2c0-.5,0-.9-.1-1.4,1.2-1.5,1.6-2.6,1.9-4.4Z"/>
          <path class="st8" d="M751.4,425.2h.4c1.7,5.5.7,12.1,1.8,17.8,0,3.1,2.5,7.5.1,10-4-9-2.6-18.3-2.3-27.8Z"/>
          <path class="st13" d="M613.2,383.4c41.8-2.8,50.7,55.3,41.7,86.2-11.9,5.2-16.1,19.3-12.4,31.1-70.5,64.9-97.5-106.2-29.3-117.3Z"/>
          <path class="st3" d="M615.6,409.2c39.5-3.9,37.4,74.6,5.7,83.2-37.7,7.9-35-75.1-5.7-83.2Z"/>
          <path class="st0" d="M619.5,412.1c32.5.6,26.8,85.9-7.6,75.6v-.8c6.5-2.2,6.8-10.2,8.1-16.1,3.2-18.3,7.2-42-5.1-57.5l.5-.4c1.4-.1,2.8-.5,4.2-.8Z"/>
          <path class="st13" d="M560.2,381.4c6.1-5,13.2-3.8,20.6-3.4-9.4,3.3-19.2,11.7-21.4,21.6l.3.4c12.6-20.4,29.2-25.2,52.2-19.9-54.6,9.7-55.6,116-9.2,137.7-26.4,3.9-35.7-13.2-46.2-33.5h-.7c.6,12.9,11.8,26.5,22.5,32.6-19.6,2.7-35.1-27.6-38.1-30.5,3,12.4,12.2,22.4,22.8,29.3-64.7-7.4-60.8-127.5-3.3-136.4l.4,2Z"/>
          <path d="M559.8,379.3l.4,2c-8.3,7-15.9,20.1-19.1,30.5-1.5,3.9-.5,9.2-3.8,12.2-3-5.3,5.4-19.9,7.5-25.7-1.4-3.3-3-6.2-4.9-9.2,3.7,2.9,4.9,5.1,5.8,9.7,4.8-7.4,6.3-14.3,14.1-19.5Z"/>
          <path class="st3" d="M563.8,424.5c9.4,5-6.7,10.4-10.7,11.8,4.4.3,7.4,3.2,8.6,7.4-3.2,30.2-28.9-5.8,2.2-19.1Z"/>
          <path class="st3" d="M545.3,466.5c7.2-.7,14,1.8,18.9,7.2,1.6,1.7,3.9,4.8,1.6,6.7-3.6,2.1-7-4.4-9.6-6.1-10.3-6.2-18.6.4-25,8.4h-1.4c-3-1.5.4-5.8,1.5-7.5,3.8-5.4,7.6-7.6,14.1-8.6Z"/>
          <path class="st3" d="M528.3,437.2c10.5-2,11.4,14.4,4.9,19.4-9.7,1.2-11.8-14.9-4.9-19.4Z"/>
          <path d="M575.4,394.8c1,0,1.6.2,2.4.5-15.5,6.7-21.6,17-27.4,32.4l-.9.5-.7-.3c1.5-14.6,12.7-28.2,26.5-33.1Z"/>
          <path class="st3" d="M525.3,423.4c4.4.2,18.2,4.8,13.2,10.8-2.4.2-3.8-1.9-5.8-2.7-4.5-1.2-11.7-1.8-7.4-8.1Z"/>
          <path class="st4" d="M814.7,388.1c3.4-3.1.9-22.4,4.2-26,1.5.6,3.2.4,4.5,1.6,2.1.4,5.4,1,7.1,2.4,3.5.8,11.4,1.8,10.6,6.9-1,12.8-9.2,119-12,122.7-7.1-5.6-15.7-5.6-23.7-2.1,1.3-4,4-30.9,2.7-33.6-.8,0-1.5-.6-2.2-.9,1.5-3.5,3.6-24.9,2.6-28.1,1.3-3.6,2.6-17.4,1.9-21,1.4-3.9,3.2-19.2,2.2-23.3l1.8.3.4,1.1Z"/>
          <path class="st4" d="M814.7,388.1c3.4-3.1.9-22.4,4.2-26,1.5.6,3.2.4,4.5,1.6-2.2,21.5-3.1,43.2-2.9,64.8-.2,20.8-5.7,41.9-3.7,62.6-3.9-.5-7.7,1.4-11.4,2.5,1.3-4,4-30.9,2.7-33.6-.8,0-1.5-.6-2.2-.9,1.5-3.5,3.6-24.9,2.6-28.1,1.3-3.6,2.6-17.4,1.9-21,1.4-3.9,3.2-19.2,2.2-23.3l1.8.3.4,1.1Z"/>
          <path class="st8" d="M819.9,362.4c1.3.2,2.5.4,3.5,1.3-2.2,21.5-3.1,43.2-2.9,64.8-.2,20.8-5.7,41.9-3.7,62.6h-4s.9-1.2.9-1.2c2.3-31,6.9-61.8,6-93.1-.3-6.2,4.2-30.7.2-34v-.4Z"/>
          <path d="M808.4,430.9l1.4-.8.3-1.3c2.1,4.9.4,25.7-2.1,31.2-.8,0-1.5-.6-2.2-.9,1.5-3.5,3.6-24.9,2.6-28.1Z"/>
          <path d="M812.5,386.7l1.8.3c1.6,3.9.8,18.6-1.8,22.4-.7.2-1.5.3-2.2.6,1.4-3.9,3.2-19.2,2.2-23.3Z"/>
          <path class="st3" d="M810.3,410c.7-.3,1.5-.4,2.2-.6,1.1,3.3.5,18.7-1.8,22.4,0-.9,0-2.3-.6-3.1l-.3,1.3-1.4.8c1.3-3.6,2.6-17.4,1.9-21Z"/>
          <path class="st8" d="M830.4,366.1c3.5.8,11.4,1.8,10.6,6.9-1,12.8-9.2,119-12,122.7-3.2-2-6.2-4.1-10.1-4.5.8,0,1.5,0,2.1-.5,1.2-22.1,7.8-43.9,9.3-66.1,1.2-19.4,1.1-39.1,0-58.5Z"/>
          <path class="st9" d="M830.4,367.2l1.4.7c2,6.9,1.7,48.8.7,57.1-.9-6,1.8-13.1-.3-18.6-.5,25.2-5,50.6-9.9,75.1l-1,.4c8-37.6,12-76.3,9.1-114.7Z"/>
          <path class="st5" d="M655.6,474.9c16.3-4.7,24.2,35.5,3.4,22.2.2-2,.2-6.7-2.5-6.9-1.3.8-1.3,2.4-1.1,3.8.7,7.5,9,11.9,15.6,8.2,9.8-8.6,10.9,5.3,8.3,12.2l1,.3c3.4-1.9,3.6-8,3.1-11.4,6,0,13.3-3.3,13.5-10-3.9,2.2-7.4,6.6-12.8,6.7-14.4-7.1,6.9-19,15.3-16,13,6.7.9,24.4-9,28.2,1.8,1.5,10.5,15.5,10.8,17.5,1.9,1.5,2.6,3.3,3.1,5.5,3.2-2.3,30.5-27.2,32.2-29.7,1.6,3.1-1.1,26-2.4,28.8-7,11.2-23.7,20.5-36.7,21.9-14.4-7-23.2-23.4-29.9-37.3-21.2-4.3-31.2-30.5-11.9-44Z"/>
          <path class="st5" d="M809.4,589.1c.9-.1,1.8-.1,2.7-.2.7,12.5,4.9,26.5,9.3,38.3,2.8,9.6,21.9,38,17.4,44.7-5.7,6.4-45,11.2-50.9,4.4,1-6.6,15.9-10.4,19-14.5-5-16.5-13.9-33.3-17.5-50.5-1.2-4.7-2-17.1-3.8-20.4,8,.5,16.1-.2,24-2Z"/>
          <path class="st5" d="M733.4,584.8c3.7-.3,20.6,3.1,25.6,3.7,0,3.3-20,30-22.4,32.2,1.1,2.8,15.7,42.4,14.2,47.1-3.2,3.5-19.8,4.5-24.7,4.9-8,.5-24.2,3-30.2-3.3,2-6.8,20.3-11.4,24.9-16.1-10.2-46.5-10.4-28.8,12.6-68.4Z"/>
          <path class="st5" d="M814.1,495.3c21.4-2.7,31.1,49.1,18,60.3-11.2,4.4-17.8-5.1-27-8.5,1.4,1.8,7.5,7.5,4.8,9.9-6.7,1-15.4-6.3-13.3-13.4,3.2-5.7,11.5-4.5,16.6-7.4l-.4-1.2c-6.7-2.9-12,5-18,2.5-7.1-18.5,15.6-12.8,19.6-16.8-3.9-4.5-13.8-.5-18.7,1.1,0-15.3,7.2-13.9,19.1-17.7,0-.9-.2-1-.8-1.7-4.9-1.9-11.5,2.5-16.4,3.5,5.9-4.8,8.3-9.3,16.5-10.6Z"/>
          <path class="st5" d="M832.8,498.2c5.6.1,19.6,13.2,24.3,17.3,33.4,28,21.8,44.4-18.9,40.4,4.1-6,5.4-20,2.8-26.8,5.2.8,17.5,8.4,21.5,4.3-2.6-5.3-15.9-6.3-21.5-8.2,2.3-7-8.6-20.3-8.2-27.1Z"/>
          <path class="st8" d="M798.5,558.8c3.2.8,6.4,2.3,9.8,1.9,4-.2,12-3.4,13.8,1.7,1,3.5-.4,16.8-2.3,20-3.3,2.8-20.4,4.1-25,4.6,1.8-2.1,3.8-24.5,3.8-28.2Z"/>
          <path class="st9" d="M805.8,560.8h2.5c.8,3.3,0,18.2-1.5,20.8-1.8-3.9,2.5-17.3-.9-20.8Z"/>
          <path class="st5" d="M667.1,468.5c12.2-2.6,20.5,15.1,8.5,21.4v.9c-.1,0-.7.4-.7.4-1.1-8-5-16.9-12.8-20.3,1.8-.6,3.3-1.4,4.9-2.4Z"/>
          <path class="st5" d="M681.1,465.1c7.3-2.3,15.3,6.7,11.7,13.5-1.3,2.2-4.2,1.8-6.1,3-2.2-1.3-2.6-10.7-10.4-14.8,1.6-.3,3.2-1.1,4.7-1.7Z"/>
          <path class="st5" d="M791.5,505c1.3,0,2-.2,3.1.4.4,2.3-1.7,5.1-2.1,7.4-1.5,5,2.1,13.8-4.9,15.3-3.5-5.4-2.1-11.5-3.1-17.4,2.4-2.2,3.9-4.4,7-5.7Z"/>
          <path class="st5" d="M483,472.3c7.1-1.3,13,1.4,14.1,9-2.3.6-6.4,2.6-8.7,3.1-1.8-1.3-2.6-3.9-3.7-5.9-2.2-.7-5-1.4-6.3-3.5l.3-.9c1.4-1,2.7-1.3,4.3-1.7Z"/>
          <path class="st5" d="M472.5,479c7-1,16.8,5.1,9.1,11.7l-.7-.2c-3-7.2-5.9-6.7-10.4-10.9l2-.7Z"/>
        </g>
        <g>
          <path class="st0" d="M630.4,91.9c24.1,0,49.4,4.9,73.6,7,13.8,2.2,28.8,1.7,41.8,7.2,1.5,10.7,1,41.9,1.8,53.2-.1,13,2.6,26.4.7,39.3,10.1,5,24.7,9.7,34.1,15.2,2-3.6,3-16.7,2.2-20.6-2.5-2.3-6.7-2.5-9.7-4-13-7.2-17.9-34-.7-39-2.9-19.5,12.9-31.8,29.7-20.3,12.9-2.2,9.5,3.8,26.3,5.2,20.5,12,13.6,48.9-5.9,58.9-2.4,61.5-24.5,64-75.3,39,.8,7.6,3.2,32-.3,40-10.7,6.3-37.4,17.8-50.4,15.2-13.4-1.2-102.1-12.8-107.5-17.6-1.8-1.6-2-35-2.1-39.8-49,27.7-75.6,16-80.2-41.1-20.5-9.1-26-41-8.4-55.5,8.6-6.9,20-6.2,30.2-8.5,16.1-8.2,29.2,5.2,25.9,21.8,22.8,9,5.4,36.7-11.8,41.2,2,8,3.9,15.9,5.8,23.9,5-3,11.8-3.7,17.3-5.9,7.1-2.9,13.7-7,20.8-9.8-2.7-31.3-.9-62.9-2.8-94.2,10.8-5.4,32.4-8.2,45-11Z"/>
          <path class="st1" d="M594.1,104.6c21.3-7.4,47.5-10.5,69.6-5.7,24.7,3.5,51.5,4,75.6,9.3l-1.6.5c.8.5.8.5,1,1.4,1.3,0,2.3-.4,3.4.3.4,11.1,3.1,83.6,1.5,87.5-10-7.9-18.3,8-16.1,16.8,1,8.6,10.7,12.3,16.8,16.1,1.1,3.6,2.3,36.8.7,38.8-3.8,3.5-30.4,14.1-35.5,13.9-.5-.7-.9-1.4-1.4-2.1-.6.2-1.2,0-1.8-.1.4,1.2.8,2.1.1,3.2-37.5-2.8-75.4-9.7-112.5-16.4-1.4-53.8-4.3-108.9-3.1-162.2l2.3.2.9-1.5Z"/>
          <path class="st14" d="M738.7,110c1.3,0,2.3-.4,3.4.3.4,11.1,3.1,83.6,1.5,87.5-10-7.9-18.3,8-16.1,16.8,1,8.6,10.7,12.3,16.8,16.1,1.1,3.6,2.3,36.8.7,38.8-3.8,3.5-30.4,14.1-35.5,13.9-.5-.7-.9-1.4-1.4-2.1,1.1-4.8-2.5-150.8-4.4-163.6,11.6-1.6,23.5-5,34.9-7.8Z"/>
          <path class="st14" d="M594.1,104.6c21.3-7.4,47.5-10.5,69.6-5.7,24.7,3.5,51.5,4,75.6,9.3-10.7,2.9-27.1,7.7-37.6,8.6-34.8-1.7-72.7-7.3-107.5-12.1Z"/>
          <path d="M594.1,104.6c34.8,4.8,72.7,10.4,107.5,12.1,9.9-.7,25.9-5.7,36.1-8.1.8.5.8.5,1,1.4-11.4,2.8-23.3,6.2-34.9,7.8,1.9,12.6,5.5,159,4.4,163.6-.6.2-1.2,0-1.8-.1.4-2.9-1.9-148.8-4.3-163-36.1-1.4-72.9-8.1-108.9-12.3l.9-1.5Z"/>
          <path class="st0" d="M669.7,191.1c8.9-2,3.1,10.9,1.1,14.8-7.3,16.1-27.6,18.9-41.7,10.3-2.5-3.8-9.1-7.9-6.2-13.1,3.3-2.4,8.1.8,12,.9,7,.1,29.9-7.7,34.8-12.8Z"/>
          <path class="st11" d="M666.4,198.4l1.5-.2.5.5c-3.2,19.6-29.7,23.7-41.2,9,12.4,1.8,28.7-2.5,39.1-9.3Z"/>
          <path class="st0" d="M623.2,162.4c10.7-1.7,12.1,19.6,2.6,21.7-9.7.4-9.3-17.8-2.6-21.7Z"/>
          <path class="st0" d="M660.1,162c11.2-2.7,12.3,18.9,3.1,21.6-9.8,1.3-8.7-17.1-3.1-21.6Z"/>
          <path class="st0" d="M677.8,143c17.4,3.8-19.4,16.2-23.4,16.1-2.3.6-4.2-1.5-3.4-3.7,3.7-5.2,20.4-9.7,26.8-12.5Z"/>
          <path class="st0" d="M609.7,143.4c4.7-.2,28.8,7.9,27.5,13.9-4.1,5.1-23.2-5.6-27.6-8.3-2.3-1.5-2.4-4.4.1-5.6Z"/>
          <path class="st5" d="M818.1,138.1c29.7-2.7,22.2,45.8,1.7,53.5,2.5,5.3-3.8,30.7-6.1,36.9-5,20.7-26.4,16-41.5,10-11.9-5.4-33-11.1-39.7-22.7-3.8-8.6,2.1-10.7,4.1-16.4,7.2,1.3,24,10.2,31.5,13.3,4.4,1.8,9.8,3.2,13.9,5.4,1.5,1.8,1,5.1,3.1,6.5l.7-.4c.5-1.3.4-1.6,0-2.9,2.7-4.6,4.6-28.9,2.9-33-6.2-2-12.4-1.3-16.7-7.1-4.8-6.8-7.3-19.1.2-24.8,5.1-4.3,24.8,1.1,28.5,6,1.4,2.1-1,4-2.5,5.2-8.1,6.5-15.9-.6-18.3.3,2.6,5.5,9.3,6.5,14.7,5.5,2.7,4.6,1.8,11.9,8.8,14.2,1.3-3.9-5.7-8.5-4.8-13.7,2.6-8,10.4-6.6,16.6-4.4,8.7,2.2,13.3-8,14-15,.2-1.7,0-2.5-1.1-3.7h-.9c-2.8,3.4-1.8,9.2-5.2,12.9-15.6,11.3-14-19.8-4-25.6Z"/>
          <path class="st5" d="M510,133.5c10.6-.2,15.8,19.8,11.6,27.4-2.3,3.1-6.9,2.9-9.6.6-5.8-4.4-3.4-11.6-2.3-17.5-7.2,2.8-5,16.7-.5,21.2,5.5,4.9,13.5-.5,19.4,2.3,3.8,3.3-.9,11.9-.9,16h.6c4.2-2.3,4.8-9.1,4.9-13.4,7.6,2.5,15.2,0,19.9-6.5-5.5,2-11.5,5.6-17.5,3.4-2.7-.7-5.3-3.6-3.6-6.4,5.2-7.2,17.5-10,25.6-6.6,6.8,3.4,4.3,12.9,1.3,18.2-4.3,7.6-11.9,10.8-19.8,13.1,2.4,11.5,4.8,23.1,7.6,34.5,13.6-6.1,28.3-9.7,40.9-18.1,0,8.2,1.1,16.3.9,24.6-41,21.4-66.8,25.7-74.8-27.9-.3-2.8-2.6-8.5.1-10.5-.4-2-8.7-4.7-10.8-6.5-13.3-13.3-12.6-40.6,6.7-47.8Z"/>
          <path class="st5" d="M522.8,130.7c11.6-2.1,16.2,9.8,15.3,19.4-5.8,3.2-9.5,8.3-12.5,14-.2-11.9,2.1-21.7-6.7-31.5.9-1.2,2.6-1.5,3.9-1.9Z"/>
          <path class="st5" d="M803.7,134.2c3.1-.2,10.2-1.6,11.7,2-9.7,4.7-9.3,16.3-8.3,25.5l-.9.8c-.6-.3-1.2-.6-1.9-.9-2.6-5-5.4-6.5-10.5-8.3,2.3-7.4-.9-16.2,9.9-19.2Z"/>
          <path class="st5" d="M785.8,130.8c4.1-.5,8.6-.6,12.5.8-.5,2.4-5.9,6.2-7.1,9.6-1.1,3.3.3,9.5-1.8,12-2.5-.4-10-2-11.4-3.8-1.6-6.7,1.8-14.9,7.7-18.6Z"/>
          <path class="st5" d="M537.3,127.8c9.9-1.7,18,10.4,15,19.3-2.7,2.8-7.7,1.1-11.3,2,1.7-7.8-1.1-15.5-7.7-20.1,1.2-.7,2.7-.9,4-1.2Z"/>
        </g>
      </g>
      <g>
        <path class="st5" d="M484.3,24.5c3.3-.5,6.5-1,9.8-1.5l6.8,45.1c-2.9.4-5.7.9-8.6,1.3-.5-1.7-6.4-45.1-8-44.9Z"/>
        <path class="st5" d="M512.2,20.4c2.3,2.4,23.7,26.6,24.9,28.6-.9-2.7-3.5-27.8-4-31.2,2.4-.3,4.8-.5,7.2-.8,1.7,15.2,3.3,30.4,5,45.6-2.2.2-4.5.5-6.7.8-1.7-2.4-26.6-30.9-27.9-32.2.9,1.4,4.7,32.3,5.1,34.8-2.3.3-4.6.6-6.9,1-.4-1.7-5.7-45-7.3-45,3.5-.5,7.1-1,10.6-1.5Z"/>
        <path class="st5" d="M562.4,14c4.7-.4,9.7.4,13.7,2.6-1.4,1.9-2.7,3.8-4,5.7-5.3-4.7-19.8-2.1-14.1,6.5,5.4,5.2,15.3,4.5,19.5,11.3,8.8,17.3-15.1,25.9-28.2,18.9.7-2.4,1.5-4.8,2.2-7.2,6.2,6.4,24.1,3.4,17.1-7.4-5.5-4.9-15.3-4.3-19.4-11.1-5.5-9.3,3-19.2,13.4-19.4Z"/>
        <path class="st5" d="M591.5,12.5c.7,10.1,1.3,20.2,2,30.3.3,6,4.7,9.8,10.8,9.4,6-.1,10.1-4.6,9.6-10.5-.5-10.1-.9-20.2-1.4-30.3,2.5-.1,4.9-.2,7.4-.3-.4,7.5,3.3,32.6-.8,38.9-5,9.6-21.7,10.8-29,4.4-9.5-7.3-4.4-31.2-8.7-41.1,3.4-.3,6.8-.5,10.2-.7Z"/>
        <path class="st5" d="M627.4,10.8c3.3-.1,6.6-.2,9.9-.3.3,13.2.7,26.3,1,39.5,6-.2,12-.3,18.1-.3,0,2.1,0,4.1,0,6.2-8.9,0-17.8.3-26.7.6-.2-1.5-.9-45.7-2.4-45.6Z"/>
        <path class="st5" d="M681.5,10.2c5.4,15.3,10.6,30.6,15.6,46-3.1,0-6.2-.2-9.3-.2-1.4-4.4-2.9-8.8-4.3-13.2-4.6,0-9.2-.1-13.8-.1-1.6,4.4-3.1,8.7-4.6,13.1-2.4,0-4.8,0-7.3,0,5.3-15.3,10.8-30.5,16.5-45.6,2.4,0,4.7,0,7.1,0ZM676.8,21c-1.7,5.2-3.3,10.4-4.9,15.6,3.2,0,6.4,0,9.6,0-1.5-5.2-3.1-10.4-4.7-15.6Z"/>
        <path class="st5" d="M707.5,17c-4.4-.2-8.8-.3-13.1-.4,0-2.1,0-4.1.1-6.2,12,.3,24,.7,35.9,1.4-.1,2.1-.2,4.1-.3,6.2-4.4-.2-8.9-.5-13.3-.6-.6,13.1-1.1,26.3-1.7,39.4-3-.1-6-.2-8.9-.3.5-13.1.9-26.3,1.4-39.4Z"/>
        <path class="st5" d="M751.5,59.6c-28.5-.6-26.5-50.3,3.6-46.9,30.8,1,25.1,50.7-3.6,46.9ZM752.2,53.7c17.3,1.4,20.4-33.6,2.5-35.1-18-1.2-19.6,33.8-2.5,35.1Z"/>
        <path class="st5" d="M782.5,15.8c5.5.8,19.3,1.2,24.1,3.8,11.6,4.7,6.8,21.7-4.8,22.4,3.9,7.7,7.7,15.5,11.4,23.2-3.2-.4-6.5-.8-9.7-1.2-3.4-7.2-6.9-14.5-10.4-21.7-1.2-.1-2.3-.3-3.5-.4-.7,6.7-1.5,13.5-2.2,20.2-2.8-.3-5.7-.6-8.5-.9,0-1.9,5.2-44.9,3.6-45.5ZM791.7,23c-.5,4.3-.9,8.6-1.4,12.9,5.2.8,13.1,1.8,13.6-5.3.9-6.6-7.3-7.3-12.2-7.6Z"/>
        <path class="st5" d="M835.6,21.6c4.6.7,9.3,2.7,12.7,5.7-1.8,1.5-3.5,3.1-5.3,4.6-4-5.8-18.8-6.7-15.3,3,4.1,6.3,13.9,7.9,16.3,15.5,4.5,18.8-20.8,21.7-31.9,11.8,1.3-2.2,2.6-4.3,3.8-6.5,4.5,7.7,22.7,8.9,18.3-3.2-4.2-6-13.9-7.7-16.3-15.3-3.2-10.3,7.4-17.9,17.5-15.7Z"/>
      </g>
    </g>
  </g>
  <g>
    <path class="st16" d="M378.8,279.4c3.6,11.4,19.2,51.8,20.4,63,.2-11.1,16.5-52,20-63h19.7l-32.1,91.3h-19.7l-31.9-91.3h23.5Z"/>
    <path class="st16" d="M482.3,277.1c8.2,0,19.4,1.7,26.8,5.6l-7.7,15.3c-8.6-8.9-37.1-9.4-28.9,8.7,9.7,9.8,28.3,9,35.1,22.8,14.1,40.2-34.7,52.5-63.2,35.3l7.8-14.9c25.8,18.2,46.6-2.5,26.6-15.1-9.2-4.8-21.4-6.6-27.9-15.7-13-22.2,8.5-43,31.3-41.9Z"/>
  </g>
</svg>