<?xml version="1.0" encoding="UTF-8"?>
<svg xmlns="http://www.w3.org/2000/svg" version="1.1" viewBox="0 0 1024 756.2">
  <defs>
    <style>
      .cls-1 {
        fill: #404040;
      }

      .cls-2 {
        fill: #323232;
      }

      .cls-3 {
        fill: #111;
      }

      .cls-4 {
        fill: #dfdfdf;
      }

      .cls-5 {
        fill: #6c6c6c;
      }

      .cls-6 {
        fill: #bdbdbd;
      }

      .cls-7 {
        fill: #7c7c7c;
      }

      .cls-8 {
        fill: #595959;
      }

      .cls-9 {
        fill: #232323;
      }

      .cls-10 {
        fill: #939393;
      }

      .cls-11 {
        fill: #8f8f8f;
      }

      .cls-12 {
        fill: #474747;
      }

      .cls-13 {
        fill: gray;
      }

      .cls-14 {
        fill: #5b5b5b;
      }

      .cls-15 {
        fill: #d2d2d2;
      }

      .cls-16 {
        fill: #e6e6e6;
      }

      .cls-17 {
        fill: #9a9a9a;
      }

      .cls-18 {
        fill: #d0d0d0;
      }

      .cls-19 {
        fill: #828282;
      }

      .cls-20 {
        fill: #e2e2e2;
      }

      .cls-21 {
        fill: #1c1c1c;
      }

      .cls-22 {
        fill: #8e8e8e;
      }

      .cls-23 {
        fill: #f6f6f6;
      }

      .cls-24 {
        fill: #ebebeb;
      }

      .cls-25 {
        fill: #d9d9d9;
      }

      .cls-26 {
        fill: #a1a1a1;
      }

      .cls-27 {
        fill: #f4f4f4;
      }

      .cls-28 {
        fill: #dbdbdb;
      }

      .cls-29 {
        fill: #979797;
      }

      .cls-30 {
        fill: #cecece;
      }

      .cls-31 {
        fill: #2c2c2c;
      }

      .cls-32 {
        fill: #171717;
      }

      .cls-33 {
        fill: #a5a5a5;
      }

      .cls-34 {
        fill: #969696;
      }

      .cls-35 {
        fill: #1e1e1e;
      }

      .cls-36 {
        fill: #0d0d0d;
      }

      .cls-37 {
        fill: #aaa;
      }

      .cls-38 {
        fill: #d4d4d4;
      }

      .cls-39 {
        fill: #1d1d1d;
      }

      .cls-40 {
        fill: #b4b4b4;
      }

      .cls-41 {
        fill: #212121;
      }

      .cls-42 {
        fill: #4d4d4d;
      }

      .cls-43 {
        fill: #ccc;
      }

      .cls-44 {
        fill: #5c5c5c;
      }

      .cls-45 {
        fill: #9d9d9d;
      }

      .cls-46 {
        fill: #606060;
      }

      .cls-47 {
        fill: #757575;
      }

      .cls-48 {
        fill: #d8d8d8;
      }

      .cls-49 {
        fill: #c4c4c4;
      }

      .cls-50 {
        fill: #272727;
      }

      .cls-51 {
        fill: #c6c6c6;
      }

      .cls-52 {
        fill: #bebebe;
      }

      .cls-53 {
        fill: #4f4f4f;
      }

      .cls-54 {
        fill: #c7c7c7;
      }

      .cls-55 {
        fill: #a6a6a6;
      }

      .cls-56 {
        fill: #929292;
      }

      .cls-57 {
        fill: #ddd;
      }

      .cls-58 {
        fill: #141414;
      }

      .cls-59 {
        fill: #505050;
      }

      .cls-60 {
        fill: #c9c9c9;
      }

      .cls-61 {
        fill: #e7e7e7;
      }

      .cls-62 {
        fill: #b0b0b0;
      }

      .cls-63 {
        fill: #d7d7d7;
      }

      .cls-64 {
        fill: #9b9b9b;
      }

      .cls-65 {
        fill: #848484;
      }

      .cls-66 {
        fill: #7d7d7d;
      }

      .cls-67 {
        fill: #0b0b0b;
      }

      .cls-68 {
        fill: #fff;
      }

      .cls-69 {
        fill: #121212;
      }

      .cls-70 {
        fill: #515151;
      }

      .cls-71 {
        fill: #262626;
      }

      .cls-72 {
        fill: #343434;
      }

      .cls-73 {
        fill: #f9f9f9;
      }

      .cls-74 {
        fill: #bcbcbc;
      }

      .cls-75 {
        fill: #c5c5c5;
      }

      .cls-76 {
        fill: #cdcdcd;
      }

      .cls-77 {
        fill: #565656;
      }

      .cls-78 {
        fill: #fafafa;
      }

      .cls-79 {
        fill: #e9e9e9;
      }

      .cls-80 {
        fill: #101010;
      }

      .cls-81 {
        fill: #f8f8f8;
      }

      .cls-82 {
        fill: silver;
      }

      .cls-83 {
        fill: #7e7e7e;
      }

      .cls-84 {
        fill: #959595;
      }

      .cls-85 {
        fill: #f7f7f7;
      }

      .cls-86 {
        fill: #a3a3a3;
      }

      .cls-87 {
        fill: #8b8b8b;
      }

      .cls-88 {
        fill: #fefefe;
      }

      .cls-89 {
        fill: #4a4a4a;
      }

      .cls-90 {
        fill: #747474;
      }

      .cls-91 {
        fill: #d5d5d5;
      }

      .cls-92 {
        fill: #acacac;
      }

      .cls-93 {
        fill: #1f1f1f;
      }

      .cls-94 {
        fill: #f2f2f2;
      }

      .cls-95 {
        fill: #f5f5f5;
      }

      .cls-96 {
        fill: #b3b3b3;
      }

      .cls-97 {
        fill: #ababab;
      }

      .cls-98 {
        fill: #383838;
      }

      .cls-99 {
        fill: #2a2a2a;
      }

      .cls-100 {
        fill: #e1e1e1;
      }

      .cls-101 {
        fill: #949494;
      }

      .cls-102 {
        fill: #838383;
      }

      .cls-103 {
        fill: #bfbfbf;
      }

      .cls-104 {
        fill: #7f7f7f;
      }

      .cls-105 {
        fill: #131313;
      }

      .cls-106 {
        fill: #585858;
      }

      .cls-107 {
        fill: #8c8c8c;
      }

      .cls-108 {
        fill: #202020;
      }

      .cls-109 {
        fill: #fbfbfb;
      }

      .cls-110 {
        fill: #fcfcfc;
      }

      .cls-111 {
        fill: #c2c2c2;
      }

      .cls-112 {
        fill: #b9b9b9;
      }

      .cls-113 {
        fill: #cbcbcb;
      }

      .cls-114 {
        fill: #aeaeae;
      }

      .cls-115 {
        fill: #6e6e6e;
      }

      .cls-116 {
        fill: #191919;
      }

      .cls-117 {
        fill: #a4a4a4;
      }

      .cls-118 {
        fill: #989898;
      }

      .cls-119 {
        fill: #353535;
      }

      .cls-120 {
        fill: #ededed;
      }

      .cls-121 {
        fill: #333;
      }

      .cls-122 {
        fill: #4b4b4b;
      }

      .cls-123 {
        fill: #c8c8c8;
      }

      .cls-124 {
        fill: #d3d3d3;
      }

      .cls-125 {
        fill: #afafaf;
      }

      .cls-126 {
        fill: #d1d1d1;
      }

      .cls-127 {
        fill: #484848;
      }

      .cls-128 {
        fill: #1a1a1a;
      }

      .cls-129 {
        fill: #eee;
      }

      .cls-130 {
        fill: #dcdcdc;
      }

      .cls-131 {
        fill: #b6b6b6;
      }

      .cls-132 {
        fill: #cacaca;
      }

      .cls-133 {
        fill: #161616;
      }

      .cls-134 {
        fill: #181818;
      }

      .cls-135 {
        fill: #898989;
      }

      .cls-136 {
        fill: #1b1b1b;
      }

      .cls-137 {
        fill: #222;
      }

      .cls-138 {
        fill: #cfcfcf;
      }

      .cls-139 {
        fill: #e8e8e8;
      }

      .cls-140 {
        fill: #b2b2b2;
      }

      .cls-141 {
        fill: #686868;
      }

      .cls-142 {
        fill: #ececec;
      }

      .cls-143 {
        fill: #fdfdfd;
      }
    </style>
  </defs>
  <!-- Generator: Adobe Illustrator 28.6.0, SVG Export Plug-In . SVG Version: 1.2.0 Build 709)  -->
  <g>
    <g id="Layer_1">
      <rect class="cls-68" width="1023.5" height="756.2"/>
      <g>
        <path class="cls-88" d="M.3,501.9v-104c13.6,4.6,27.3,9.2,40.9,14,.9.3,1.6,3,1.4,4.5-1.6,11.2-3.4,22.3-5.2,33.4-1.1,5.5-4.2,11.6-2.8,16.3,4,13.4,11.9,23.3,27.5,25.4,10.7,1.4,23-.5,27.2-6.7,11.5-12.5,11.2-19.6-.7-31.9-1.5-1.6-1.5-4.7-2.6-8.4,12.2,5.5,22.2,4.9,32.3.2,2.7-1.3,6.3-2.3,9-1.5,11.7,3.4,23.1,7.5,35.3,11.6-1.7.3-2.8.5-2.1.4,18.2,5.3,37.9,11.1,57.6,16.8,6.2,2.1,12.5,4.1,18.7,6.4,14.3,5.3,32.3,2,42,18,.2.4.9.4,1.3.7.5.3,1.1.9,1.6.9,10,.7,20.1.5,29.9,2.2,6,1.1,11.5,5,17.3,7.6-.5,1-.9,2-1.4,2.9-3.4-1-6.9-2-10.3-3-15.2-8.7-40.6-6.2-51.8,5.4,4.1-1.9,7.8-4.4,11.6-5,4.9-.6,10.1.4,15.1.7-22.7,6.3-40.7,18.8-52.1,39.9,3.5-6,7.1-12,10.6-18,1.2-2,2.3-4,3.4-6-2.2,1-5.5,1.4-6.4,3.1-8.7,16.8-17,33.8-25.5,50.7-1.1,2.2-2.7,4.2-4.1,6.4-10.5-2.3-21-4.5-31.5-6.8-2.9-.6-5.7-1.5-8.5-2.2-5.7-3.2-11.4-6.4-17.2-9.6.8-.8,1.9-2.1,3.6-4-12.6-2.2-24.4-4.3-37.4-6.5,2.7-2.3,3.9-3.3,4.7-3.9-7.7-2.5-15.3-5.3-23.1-7.3-6.7-1.7-13.6-2.5-20.5-3.7-1.5.2-2.9.3-4.4.5.3-.7.6-1.5.9-2.2-10.9-4.7-21.7-9.5-32.6-14.2-7-3.5-13.9-7.2-21.1-10.4-4.1-1.8-8.6-2.5-12.7-4.3-.9-.4-1.1-3.3-.9-5,0-1.2,2.2-2.9,1.9-3.4-.8-1.2-2.6-2.8-3.8-2.6-5.2.6-10.3,1.7-15.4,2.6h.3Z"/>
        <path class="cls-32" d="M899.7,119.1c15.5,26.2,25.2,54.5,31,84.3,2.7,14,4.8,28.2,7.4,42.2.3,1.4,2.8,3.4,4.3,3.4,23.6,0,41.1,11.3,55,29.6,1.5,1.9,3.8,3.7,6.1,4.3,12.7,3.7,20.1,16.4,16.8,29.3-3.2,12.3-13.3,17.4-27.5,13.8-.6-.2-1.4-.8-1.8-.6-10.2,5.6-15.3-1.1-19.3-8.6-4.4-8-1.9-17.3,7.7-26.8-11.6-4.6-22.1-9-32.8-12.9-.7-.3-3.6,2.6-3.6,3.9,1.2,26.4,1.5,52.7-6.8,78.2-5.6,17.3-16.6,30.3-33.2,38-4.7,2.2-5.4,4.8-3.7,9.4,5.3,14.9,14.6,15.8,27,5.7,5-4.1,14.7-2.5,22.4-3.2,2.9-.2,6.1,1.6,8.7.8,22.3-6.7,44.4-13.8,66.6-20.8v8c-20.2,6-40.4,11.9-60.5,18.1-.8.3-1.7,2.6-1.4,3.8,1.5,7.1,3.4,14.1,5.1,21.1-1.1,6-2.2,11.9-3.2,17.9-1.2,2.2-2.3,4.4-3.5,6.6-11.4,22-26.3,28.3-48.5,20.5-1.4,1-2.7,2-4.1,2.9l-2.1-7.9c-.7-1.4-1.3-2.7-2-4.1-2.8-11.9,5.1-19.1,11.8-25.8-5.7-1.4-11.2-2.8-16.7-4.2-5.4-.7-11.3-3.2-16.1-1.8-44.9,12.8-89.6,26.2-134.2,39.7-1.2.4-1.8,2.7-2.7,4.1-3.5,8.4-12,12.9-21,10.7-6.1-1.5-11.9-3.8-17.8-5.8-23,4.9-46.1,9.8-69.1,14.7,22,1.8,34.9,19.3,52.3,28.3,5.5,8.4,11.1,16.8,16.5,25.3,1.4,2.2,2.1,5.3,4.1,6.9,7.5,6,9.9,13.5,8.8,22.9-.4,3.5,1,7.3,1.6,11,.6,1.7,1.2,3.4,1.8,5,.4,2.3.8,4.7,1.2,7-3.4,18-6.9,35.9-10.3,53.9-3.9,4.4-7.9,8.7-11.8,13.1-14.6,15.5-33,18.8-53.3,15.6l3.5-.8c19.4-1.5,37.2-5.7,50.6-22.2,16.6-20.3,18.5-42.7,13.2-66.8-.5-5.8-1-11.6-1.5-17.4-.4-3.8.6-9.1-1.5-11-9.1-8.3-12.1-19.9-18.2-29.8,0,0-.2-.3-.3-.4-16.8-15.7-33.7-31.1-57.6-35.2-6.7-1.7-13.3-3.4-20-5.1,26.7-7,53.5-14.1,80.6-21.2-8.2-7.2-16-13.2-22.8-20.2-12.7-13.1-14.8-25.9-7.1-36.7,7.7-10.7,25.8-14.1,40.1-6.5,7.3,3.9,13.6,9.8,20.5,14.9,6.6-20,20.4-35.8,39.4-47.9-21.9-25-31.8-55.1-40.2-86.4-14.5,5.9-28.9,9-44.1,4.8-13.8-3.8-24.7-11.1-32.1-23.6-1.3-2.1-4.7-4-7.3-4.2-10.8-.9-17.5-6.9-21.4-16.2-3.8-8.9-3.6-17.6,4-24.8,4.6-4.4,8.7-11.7,13.9-12.6,10.3-1.7,21.8-1.8,31.8,1,17,4.8,21.3,23.2,8.9,35.9-6.3,6.5-4,9.7,1.5,13.9,9,6.9,29.1,5.7,36.6-2.9,1.2-1.4.6-4.7.3-7-4.5-35.6-7.5-71.3,0-106.9,6.4-30.4,30.8-51.4,62.2-53.9,10.5-.8,16.1-8.9,14.7-19.3-.4-2.7,2.2-6.6,4.5-8.6,3.9-3.3,4.4-5.9,1.4-10.1-8.2-11.3-4.6-20.9,9.3-24.4,3.8-1,7.9-1.3,11.9-1.5,1.3,0,2.6,1.1,4,1.7-1.1.9-2,2.1-3.2,2.5-2.2.7-4.8.3-6.8,1.3-4.9,2.5-11.6,4.5-13.6,8.6-1.4,2.8,3.7,8.9,6.1,13.5.3.6,1.5,1,2.3,1,6.5-.6,13-1,19.4-2.2,2.1-.4,4.5-2.5,5.6-4.5,3.9-7,7.3-14.3,11.2-21.4.6-1.2,2.8-1.6,4.3-2.1,7.1-2.3,14.2-4.5,21.5-6.8,1.1,3.6-3.9,10.8-10.9,10.4-7.9-.4-11.7,1.8-13.5,10.3-1.5,7.4-6.4,14-9.8,21l-8.3.2c-.5,0-1,0-1.5-.2-6.8-.8-13-4.3-20.2,2.4-6.6,6.2-7.6,11.1-3.5,18.2.8,1.4,1.2,4.2,1.9,4.3,4.4.3,9,.4,13.3-.4.7,0,.4-4.9,1.1-7.3.6-2.2,2-4.1,3-6.1,2.1-.6,4.1-1.2,6.2-1.8,1.7,4.9,3.4,9.8,5.2,14.7,4.4-1.6,9.1-2.8,13.2-5,2.2-1.2,3.3-6.1,5-6.1,8.3-.2,8.8-5.6,10.5-11.8.9-3.3,5.6-6.4,9.2-7.8,4.7-1.7,10.2-1.5,15.2-2.4,1.6-.3,3.3-1.4,4.6-2.6,4.9-4.4,9.6-8.9,14.4-13.4.8.9,1.6,1.7,2.4,2.6-1.7,1.5-3.4,3.1-5.1,4.6-1.6,1.4-4.3,2.7-4.5,4.3-1.6,11-9.9,11.6-17.9,11.5-8.8,0-13.1,3.3-13.8,12-.2,2.1-1.9,5.7-3.4,5.9-8.4,1.3-7.8,6.8-6.9,12.8.3,3.9.7,7.8,1,11.7-1.3.9-2.5,1.7-3.8,2.6-.5-1.4-1.2-2.9-1.4-4.3-.6-6.3-1-12.7-1.4-18.1-4.3,3.6-8.5,6.2-11.5,9.8-6.8,8.2-8.7,2-10.8-3.4-1.6-4-2.9-8.1-4.3-12.1-2.2,4-2.4,7.9-3.2,11.7-.7,3.8-2,7.4-2.2,8.3-4.9-1.7-8.4-2.9-11.9-4.1-.6,3-1.1,5.9-1.8,9.5-7.9-4.9-5.6-13.9-8.2-21.4-2.4,6.4-3.2,13-4.7,19.4-.7,2.8-2,6.8-4.2,7.7-2.9,1.2-6.8-.2-10.2,0-4.5.2-9,.9-13.5,1.4v-1.1c6.5-1.7,13-3.2,19.4-5.2,1.6-.5,2.7-2.5,4-3.8-1.4-.9-3-2.7-4.3-2.5-20.4,2.8-38,11.3-52.1,26.5-1.1,1.2-2,4.8-1.5,5.1,5.5,3.8,11.4,7.3,18,11.3-3.7-6.5-7.3-10.9-8.2-15.9-.3-1.5,6.8-4.4,10.5-6.7.4.7.7,1.3,1.1,2-1.7.9-3.8,1.5-5.1,2.9-1.2,1.2-2.6,3.5-2.3,4.8.6,2.1,2.3,5.1,4,5.5,7.7,1.5,15.5,2.1,23.3,3.1l-4.9,6c-4.2-1.7-8.3-3.6-12.5-5.1-.7-.2-2.1,1.3-2.9,2.2-.2.2.6,1.8,1,1.9,5.1,1.1,10.2,1.9,15.3,2.9,2.7-.3,5.3-.6,8-.9l1.9,4.9c-18.5.5-35.7-3.8-51.7-13-1.1,5.4-2.2,11.1-3.3,16.8-1,5.7-2.5,11.4-2.9,17.2-4,65.2,7.1,127.5,38,185.4,11.9,22.3,31.7,35,56.9,38.8,15-1.7,30.1-3.4,45.1-5.1,13.3-.5,26.1-2.6,37.1-10.9,7.3-6.9,16.5-12.5,21.6-20.8,16.8-27.3,13.8-58.2,13.3-88.5,0-.6-1.9-1.1-2.9-1.6-5.2,1.1-10.4,2-15.5,3.4-7.2,2-13.2,1-17.5-5.5-.3-3.6-.6-7.2-.9-10.9,5.9-4.1,11.5-8.7,17.8-12,4.5-2.4,10-2.9,15-4.2-2.9-16.7-4.8-33.6-9.1-50-5.5-20.9-12.9-41.2-19.7-61.7-.4-1.2-3.3-1.5-5-2.2-3.4,2.2-6.9,4.5-11.4,7.4.7-2.2.9-2.9,1.2-3.6,5.4-4.6,11.8-8.7,8.9-17.5,1.4-1.5,2.7-2.9,4.1-4.4h-.3ZM634.9,240c-.6.7-1.3,1.3-1.9,2-7.4,4.8-8.2,11.4-5,19,6.1,13.9,10.9,16.6,24,13.9,3.3,4.9,5.9,10.6,10.2,14.4,15.1,13.6,32.9,17.3,52.5,11.8,12-3.4,12.5-4.3,8.4-16.3-2.2-.4-4.8-1.9-6.5-1.2-20.7,9.4-35.4,6.1-46.7-10.7,1.2-3.2,1.7-7,3.8-9.3,5.8-6.4,8.7-13.2,6.3-21.8-3.3-10-11.7-8.5-18.9-7.5-5.8.8-9.7,4.8-8.3,11.7,3.7,12,11.9,4.1,19.5,3.6-2.9,3.6-5.2,6.4-7.4,9.2-1.7.3-3.6.4-5.2,1.1-2.4,1.1-4.6,2.6-6.9,3.9-4.7,2.4-9.4,4.8-14.1,7.2-.5-1-.9-2-1.4-2.9,1.2-.7,2.4-1.4,3.6-2.1,2-1.7,4-3.3,6-5-.4-5.7-.8-11.5-1.2-17.2,1.4-4,2.9-8.1,4.3-12.1-7.6-2.3-11.8-.2-15.3,8.3h.2ZM733.9,455c-3.3-2.4-6.5-4.9-9.8-7.3-6.6-11.9-15.7-20.4-29.8-22.4-8.7-1.3-21,3.5-23.3,9.6,3.6.6,7.7.4,10.7,2.1,11.8,6.4,23.3,13.5,34.9,20.3,4.1,3.6,8.2,7.2,12.3,10.8,3.5,3.9,7.1,7.9,11.1,12.3,4.1-14.8,2.7-20-6.1-25.3h0ZM930.9,458c-1.3,0-2.9.5-3.9,0-2.3-1.1-6-4.2-6.2-3.9-4.5,5.1-9.8,10.1-11.9,16.2-.8,2.1,6.4,7.1,10,10.7,1.2.4,2.5,1,3.8,1.1,13,1.5,24.6-6.7,32.8-23.1,7-14,6.7-32.4-1.3-40.4-2.6-2.6-6.7-3.7-10.4-4.9-.5-.2-3.3,3.6-2.9,4.5,3.3,7.2,4.1,14-.7,20.8-5.2,2.8-10.4,5.6-14.5,7.9,2.9,1.5,6.5,3.3,10.2,5.1-1.6,2-3.2,4-4.8,5.9h-.2ZM777.9,398c-2.2-1.2-5.9-3.9-6.5-3.4-10.9,10.7-22.1,21.1-31.6,33-3.9,4.9-4,12.8-5.8,19.3,3.6,2.4,7.2,4.9,11.2,7.6,4.9-20.3,15.4-35.9,33.2-45.8,8-4.5,6.5-7.5-.6-10.6h0ZM904.9,266c.2,3.2-.6,7,.9,9.5,1,1.6,5.4,2.1,7.9,1.6,7.8-1.5,15.4-4.1,23.2-5.7,17.7-3.5,42.6,8.4,47.7,22.4-9.5,8.9-11.4,18.1-4.7,25.1,1.6,1.7,4.9,1.9,7.4,2.7-.2-2.1-.3-4.2-.6-6.3-.5-3-1.2-6-1.9-9,2.2,2,4.5,4.1,6.7,6.1,0,0,.2.3.3.4,3.4,6.2,7,12,15.3,6.7,8.7-5.5,10.9-15.2,5.5-22.5-3.9-2.8-7.8-5.8-11.8-8.4-2.4-1.6-5.2-2.6-7.8-3.9-19.2-33.3-61-35-88.1-18.8h0ZM878.7,410.1c3.3,13.6,10.9,24,23.2,30.9,10.1,6.4,28.9,2.5,34.4-7.9,1.5-2.8-.6-7.5-1.1-11.3-1.7-4-3.8-4.3-7.4-1.6-3.2,2.5-7.2,3.9-10.9,5.8-1.8,1-3.5,1.9-6.5,3.6-8.3-3.9-14.5-12.6-18.3-23.6-.5-1.5-4.3-3.4-5-2.9-3,2.1-10.4-.8-8.4,7h0ZM883.2,436.9c-4.1-9-7.3-16.7-11.1-24.1-.9-1.7-4.3-3.7-5.9-3.2-21.1,6.3-42.5,9.7-63.7,1.9-8-3-13.5-1.8-20.5,2.1-25.3,14.1-32.9,37.1-34.1,64.2,45.6-13.8,90.8-27.4,135.2-40.8h0ZM727.8,494.2c7.2,0,10.8-5.3,6.7-9-16.3-14.2-33-28-50.2-41.1-3.1-2.4-9.3-.8-14.1-1,1.4,4.7,1.7,10.4,4.5,14.1,12.7,16.6,29.7,27.8,48.8,36,1.6.7,3.5.9,4.3,1Z"/>
        <path class="cls-138" d="M376.2,672.6c0,2.1,0,4.3,0,3.9,12.1,4.5,22.9,8.4,33.5,12.6.8.3,1.1,4.8.6,5-15.2,7.3-31.1,12.4-47.7,15.1-10.3,1.7-20.5,3.6-30.9,4.9-6,.8-12.2,1.3-18.3.8-5.6-.4-11-2.5-16.5-3.5-5.4-1-10.8-1.5-16.6-2.3.2-.4.6-1.1.7-1.3-38.8-13-77.7-26.1-116.8-39.3,0,.3.3-1.5,0-1.6-3-1.1-6.1-1.9-9.3-2.6-4.2-1.1-8.4-2.2-12.5-3.3.2-.3.3-.7.5-1-3.5.3-7.1.6-10.6.9,0-11.2-9.3-5.4-16.2-7.8,3.4-.6,4.6-.8,5.8-1.1,0-.6.2-1.2.3-1.8-7.4-2.1-14.7-4.1-22.1-6.2,0,.3.5-1,.9-1.7-5.6-1.5-11.2-2.9-17.2-4.5-.6-5.3-9.5-8.6-15.4-4.5.3-1.5.5-2.9.4-2.3-4.7-2.7-8.1-5.2-12-6.8-6.6-2.8-13.5-4.9-20.2-7.4-2.1-.8-4.1-1.8-6.1-2.7-6-2.7-11.8-5.6-17.9-7.9-1.8-.7-4.6,1.2-6.3.5-2.2-.9-3.9-3.2-5.9-4.9v-32c1.3.3,2.6.5,3.8.9,75.6,28.1,151.2,56.3,226.9,84.3,17.9,6.6,35.3,16.5,55.7,11.2,1.3-.3,3,.3,4.4.8,16.6,5.8,33.2,11.7,49.8,17.6,8,2.9,16,6.2,19.3-6,10.2,6.6,13.2,5.4,15.3-6.1h.8-.3Z"/>
        <path class="cls-124" d="M1021.8,616.7c-3.4,2.3-6.7,4.6-10.4,7.1.4-1.4.9-2.7,1.9-5.9-9.5,3.7-17.8,6.9-27.4,10.6,0,0-1.4-.6-2.9-1.3,0,.8.3,1.7.4,2.5-2.1.5-4.3.8-6.2,1.7-3.6,1.7-7.1,3.7-9.3,6.9h-12.3c.2.4.3.8.5,1.2-3.8.8-7.7,1.5-11.6,2.3-1.1.2-2.3.3-3.4.6-10.6,3.4-21.3,6.5-31.8,10.3-4,1.5-7.6,4.5-11.8,7.1,0,0-.8-1.5-1.4-2.6-12.4,4-25.2,8-37.9,12.1-6.1,2.4-12.1,4.6-19,7.3,0,0-1.1,0-2.2.4-7.4,2.4-15,4.6-22.3,7.4-10.7,4-21.1,8.7-31.8,12.5-5.4,1.9-11.4,2-16.7,4-8.1,3-15.9,6.9-24.2,10.6,0,0-1.1-1.6-1.7-1.4-9.6,3-19.1,6.6-28.9,9.3-4.9,1.4-10.3,2-15.4,1.5-10.7-1-21.3-2.9-31.9-4.6-17.8-2.8-35.8-4.8-53.3-9.1-11.5-2.8-22.1-8.8-33.1-13.6-1.4-.6-2.2-2.6-3.3-4,1.4-1.1,2.6-2.4,4.1-3.2,4.3-2.3,8.8-4.4,13.1-6.6,5.8,3.7,11.6,7.5,17.4,11.2,1.7,1.1,3.4,2.2,5.2,2.8,9,2.9,17.8,6.1,27,8.1,6.4,1.4,13.5,2.4,19.6.9,14.1-3.5,27.8-8.6,41.7-13,3.7-1.1,7.4-2.1,11-3.3,103.3-35.9,206.6-71.7,309.9-107.6v37c-.7.3-1.4.6-2,.9h.3Z"/>
        <path class="cls-80" d="M.3,390c14.1,5,28.1,10.4,42.3,14.9,3.2,1,7.7.3,10.7-1.4,6.8-3.7,25.5.2,31.1,5.3,5.4,5,12.6,8.2,19.3,11.5,1.3.7,4.6-.8,6-2.2,2.3-2.5,4-5.7,5.5-8.8,3-5.9,4.3-10.1-3.3-15.2-19.8-13.2-26.8-33.9-27.3-56.6-.3-18.6,1.4-37.2,1.9-55.8,0-1.7-2.7-5-4.3-5.1-14.9-.7-27.7,4.3-37.6,15.9,12.2,12.8,12.9,27.5.7,33.3-5.4,2.6-13.1.4-19.8.3.2-2.8.5-5.5.7-8.3,1.7-3.3,3.3-6.6,5-9.9,1.3-.6,2.6-1.3,4-1.9-.7,4.1-1.6,8.1-1.9,12.2,0,1.5,1.2,4.3,2.2,4.4,8.9,1.1,15-6.1,13-14.9-4.1-4.6-8.1-9.1-12.2-13.7,4.5-4.7,8.6-9.7,13.5-13.9,12.4-10.8,27.5-9.7,42.5-9,7.5,2.1,14.9,4.2,22.4,6.3,7,1.9,10.6-2,8.7-9.3-6.7-3.2-13.1-7.2-20.1-9.4-30.9-9.7-69.8,1.7-81.2,29.4-.9-2-1.8-4-2.8-5.9,12.9-23.5,43.8-37.1,72.7-32.1,2.5.7,4.9,1.3,7.4,2h2.9c9,4.4,21.4,1.7,26.9,13.2-.4,4.5-.8,9.1-1.2,13.6-2.9,1.8-5.8,3.6-8.7,5.4-6.5-1.8-13.2-3.3-19.5-5.5-5.8-2-7.2,0-6.3,5.3-.4,17.6-1.6,35.3-1,52.9.7,20.3,6.3,39.1,23.8,52.1,12.2,3.5,8.6,11.7,5.6,19.6-.8,2.2-1.8,4.2-2.7,6.4-2.3,3-4.7,6-7,9-5.8.3-12.1,2.3-17.3.6-6.1-1.9-11.1-6.9-16.6-10.6-1.2-1.1-2.7-3.3-3.4-3.1-7.4,2.3-10,12.3-4,17.1,6.9,5.5,14.5,10.5,22.5,14.4,10.2,5.1,19.7,2.2,27.8-5.4,10-7.1,14.8-17.3,17.1-28.9,1.9-2.9,3.8-5.7,5.7-8.6.4.2.7.5,1.1.7,5.4,1.4,10.8,3.7,16.3,4.1,13.6,1,27.2,1.2,40.8,1.7,2.3-.4,4.6-.7,6.8-1.3,19-5.2,34.8-15.3,47.1-30.7,8.4,2,5.9-4,6-8.1,4.3-9,8.6-17.9,12.9-26.9-.3,2.5-.2,5-.8,7.4-2.2,7.9-4.7,15.6-7,23.4-2,2.7-4,5.5-6,8.2-3,1.3-7.2,1.7-8.7,4-1.7,2.5-1,6.6-1.4,10,17.3,12.3,30.3,27.8,36.7,48.6,2.1-2.3,4.1-4.6,6.1-6.8,1.4.7,2.9,1.3,4.3,2-5,5.7-10,11.4-15,17.1-9.3,6.2-11.8,14.5-7.8,24.8-1.5-.6-4.4-1.3-4.4-1.9,0-6.1.7-12.1,1.1-18.1,3.4-4.2,6.8-8.4,10.2-12.7-3.7-8.4-5.8-18.2-11.5-24.8-8.1-9.6-18.9-16.9-28.6-25.2-4.6,2.8-9.2,5.7-14.6,9.1,20.7,8.4,33.2,23.4,39.8,43.7-1.4.8-2.7,1.5-4.1,2.3-7.6-10.4-14.2-21.7-23-30.9-4.9-5.1-14.8-11-20.1-9.3-24.7,7.9-48.6,5.9-72.8-.5-1.1-.3-3.5.9-3.9,2-3.8,8.6-7.2,17.2-10.8,25.9,6.9,2.2,15.3,5,23.7,7.6,26.6,8.4,53.3,16.8,79.9,25.2-1.3,1-2.6,2.9-3.9,2.9-4.8,0-9.6-.6-14.3-.9-19.7-5.8-39.4-11.5-57.6-16.8-.6,0,.4,0,2.1-.4-12.2-4.1-23.6-8.2-35.3-11.6-2.7-.8-6.3.3-9,1.5-10.1,4.8-20.1,5.4-32.3-.2,1.1,3.7,1,6.8,2.6,8.4,11.9,12.3,12.2,19.4.7,31.9-14.1,5.5-26.1,2-37.1-7.8-8.3-7.4-13-16.5-14.8-27.3,1.8-11.1,3.6-22.2,5.2-33.4.2-1.5-.5-4.2-1.4-4.5-13.6-4.9-27.2-9.4-40.9-14v-8h0ZM90.4,474c6.6-12.6-5.1-15-11-20.6-2.7,2.2-5.2,4.1-7.6,6-4.1-4.5-7-8.4,2.1-10.5,2.3-.5,4.2-3,6.3-4.6-1.8-1.7-3.3-3.8-5.3-4.9-14-8-16.2-15.9-7.8-29.2.6-.9.9-2,1.5-3.4h-7.4c-9.7.8-18.3,14.3-18,28.1-2.2,16.5,4.8,29.6,16.4,40.3,10.5,9.6,24.9,8.6,30.7-1.2h0Z"/>
        <path class="cls-120" d="M967,439.9c-1.7-7-3.6-14-5.1-21.1-.2-1.2.6-3.5,1.4-3.8,20.1-6.2,40.3-12.1,60.5-18.1v87c-1.5,1.8-3.6,3.3-4.4,5.3-3,7.2-5.7,14.5-8.5,21.8-3.8,8.2-7.6,16.4-11.4,24.7-12.9,18.7-25.8,37.4-38.7,56.1-4.4,2.2-8.7,4.4-13.1,6.7.7.6,1.3,1.1,2,1.7,6.9-8.2,13.8-16.4,20.6-24.7,18.2-21.8,30.1-47.1,39.7-73.5,4.2-12.9,8.4-25.8,12.6-38.7-.5-.2-1-.3-1.5-.5-4.1,12.3-8.3,24.6-12.4,36.8-1.2,2.7-2.5,5.5-3.7,8.2-1.8-1.3-3.8-4-5.4-3.7-6.5,1.1-12.9,2.8-19.2,4.7-12.5,3.8-24.8,8.1-28.5,23-4.4,8.9-8.9,17.9-13.3,26.8-13.2,18-26.5,36.1-39.7,54.1-2.6,1.2-5.3,2.4-8.3,3.8,6.8-7.1,13.7-13.3,19.5-20.5,17.4-21.7,30.6-45.9,39.9-72.2,6.3-20.4,12.6-40.8,18.9-61.2,1.3-7,2.6-14,3.9-21,.7-5.7,1.5-11.4,2-17.1.2-1.8-.4-5.1-.8-5.2-2.4-.2-5,0-7.1,1.1-.6.3,0,3.3,0,5.1v14.4Z"/>
        <path class="cls-55" d="M52.3,524.9c10.9,4.7,21.7,9.5,32.6,14.2-.3.7-.6,1.5-.9,2.2,1.5-.2,2.9-.3,4.4-.5,3,1.6,5.8,3.6,9,4.8,9.5,3.6,19.2,6.8,28.8,10.5,2.2.8,4.8,2.3,5.7,4.2,4.1,8.8,7.6,17.9,11.3,26.8-3,1.3-6.1,2.5-9.1,3.8-5.9,2.5-6.7,5.2-1.7,10.1,7.8,7.7,16.2,13.4,27.3,15,3.4.5,6.5,3.4,11,6-2.6.6-3.6.8-4.5,1-18.6-7-37.1-14.1-55.7-21.1-.7-1.3-1.1-3.3-2.1-3.7-24.4-9.4-39-27.8-47.6-51.8-.9-2.6-2.3-5.1-3.5-7.6-.8.3-1.6.7-2.4,1,2.4,6.4,4.4,12.9,7.3,19.1,6.8,14.4,17.5,25.7,30.3,35.1-14.4-5.3-28.7-10.6-43.1-15.9-.3-1.5,0-3.5-1.1-4.5-1.6-1.6-4.8-2.1-5.8-3.9-5.2-9.9-9.8-20.1-14.7-30.2-.5-1.1-1.2-2.2-1.8-3.3-.6.9-1.1,1.8-1.7,2.7-3-1.4-6-2.7-9-4.1-6.9-3.3-13.3.4-13.9,8.1H.4v-40c1.1.6,2.2,1.4,3.4,1.9,16.2,6.7,32.4,13.5,48.5,20.2h0Z"/>
        <path class="cls-32" d="M1009.9,502.1c-9.6,26.4-21.5,51.7-39.7,73.5-6.9,8.2-13.8,16.4-20.6,24.7-.7-.6-1.3-1.1-2-1.7,4.4-2.2,8.7-4.4,13.1-6.7,6-2,12.1-3.9,18.1-5.9,10.3-5.4,20.6-10.8,30.8-16.1,4.7-4.6,9.4-9.3,14.1-13.9v6c-4.5,4.8-9,9.6-13.5,14.4,4.5-2.1,9-4.2,13.5-6.4v9c-103.3,35.9-206.6,71.8-309.9,107.6-3.6,1.3-7.3,2.2-11,3.3.6-2.7,1.3-5.5,1.9-8.2,1-.5,2-1.2,3.1-1.6,15-6.1,30-12.1,45-18.2,22.6-12.7,37.6-32.5,50.8-54.1,6.1-11,12.1-21.9,18.2-32.9,1.1-1.6,2.1-3.3,3.2-4.9l1,2c-12.7,32.9-32.9,60.7-58.8,85.2,1.1,0,1.6,0,2,0,.9-.3,1.8-.8,2.7-1.1,19-8.4,37.9-16.8,56.9-25.2,20.6-16.9,36-37.7,47-62,2.4-5.3,4.8-10.6,7.2-15.9.9-2.3,1.9-4.7,2.8-7,.2,0,.5-.2.7-.3.4,1.1.9,2.2,1.3,3.4-12.9,34.1-31,64.7-62.2,89.8,5.6-2.5,8.3-3.8,11-5,7.4-2.6,14.8-5.2,22.2-7.8,11.3-6.1,22.5-12.1,33.8-18.2,11.7-14.6,23.5-29.2,35.2-43.8,4.6-9.4,9.2-18.8,13.8-28.1,2.3-4.7,4.5-9.4,6.8-14.2.5.8.9,1.6,1.4,2.4-9.3,26.3-22.4,50.5-39.9,72.2-5.8,7.2-12.7,13.4-19.5,20.5,3-1.4,5.6-2.6,8.3-3.8,3.3-1.3,6.7-2.7,10-4,12-5.1,23.9-10.1,35.9-15.2,18.9-13.1,32.4-30.8,43.2-50.8,5-10,9.9-20,14.9-30.1.7-1.6,1.4-3.3,2.1-4.9,1.2-2.7,2.5-5.5,3.7-8.2.4.8.9,1.5,1.3,2.3h.2Z"/>
        <path class="cls-39" d="M49.2,578c14.4,5.3,28.7,10.6,43.1,15.9,6,2.7,12,5.3,18,8,18.6,7,37.1,14.1,55.7,21.1,6.7,2.3,13.5,4.7,20.2,7,19.3,7,38.7,14,58,21,9.6,5.3,18.9,11.4,30.7,9.3-7.4-4.5-14.7-8.9-21.9-13.4-1.6-5-3.1-10.1-4.7-15.1,2.3,2,4.7,3.9,7,5.9,3.1,3.2,5.7,7.6,9.4,9.3,20,9.3,40.4,17.8,60.6,26.7,6,2,12,3.9,18,5.9,3.5.4,7.5,7.5,10.2-.9,2.2,0,4.5,0,6.7,0-3.3,12.2-11.3,8.9-19.3,6-16.6-5.9-33.2-11.8-49.8-17.6-1.4-.5-3.1-1.1-4.4-.8-20.4,5.3-37.8-4.5-55.7-11.2-75.7-28-151.2-56.2-226.9-84.3-1.2-.5-2.6-.6-3.8-.9v-11c7.3,3.1,14.5,6.2,21.8,9.3,1.4.6,2.8,1.1,4.2,1.7,6,2,12,4,18,5.9,1.6.7,3.2,1.5,4.8,2.2h.2Z"/>
        <path class="cls-90" d="M1023.8,555.8c-4.7,4.6-9.4,9.3-14.1,13.9-10.5,5.1-21,10.3-31.4,15.4l.6.8c-6,2-12.1,3.9-18.1,5.9,12.9-18.7,25.8-37.4,38.7-56.1,8.1-1.3,16.2-2.6,24.3-3.8v24h0Z"/>
        <path class="cls-11" d="M1023.8,531.8c-8.1,1.3-16.2,2.6-24.3,3.8,3.8-8.2,7.6-16.4,11.4-24.7,4.3-1.1,8.6-2.1,12.9-3.1v24h0Z"/>
        <path class="cls-137" d="M26.2,317.8c-.2,2.8-.5,5.5-.7,8.3-11.2,3.9-17.2.6-25.2-14.2v-16c3.6-8.4,9.6-13.4,19-14,.9,2,1.8,4,2.8,5.9-14.3,4.8-19.1,11.5-15.9,22.1,3.4,10.1,12.2,13.5,20.1,7.8h0Z"/>
        <path class="cls-28" d="M52.3,524.9c-16.2-6.7-32.4-13.4-48.5-20.2-1.2-.5-2.3-1.3-3.4-1.9v-1c5.1-.9,10.2-2,15.4-2.6,1.2,0,3,1.4,3.8,2.6.3.5-1.8,2.2-1.9,3.4-.2,1.7,0,4.6.9,5,4.1,1.8,8.7,2.5,12.7,4.3,7.1,3.2,14.1,6.9,21.1,10.4h0Z"/>
        <path class="cls-138" d="M1023.8,507.9c-4.3,1-8.6,2.1-12.9,3.1,2.8-7.3,5.4-14.6,8.5-21.8.9-2,2.9-3.6,4.4-5.3v24Z"/>
        <path class="cls-15" d="M26.3,569.8c-1.4-.6-2.8-1.1-4.2-1.7-7.3-7.1-14.5-14.2-21.8-21.3v-4h1c3.6,12.1,14.2,17,23.5,23.4.9.6,1.1,2.3,1.6,3.5h0Z"/>
        <path class="cls-11" d="M.3,546.8c7.3,7.1,14.5,14.2,21.8,21.3-7.3-3.1-14.5-6.2-21.8-9.3v-12Z"/>
        <path class="cls-130" d="M1023.8,569.8c-4.5,2.1-9,4.2-13.5,6.4,4.5-4.8,9-9.6,13.5-14.4v8Z"/>
        <path class="cls-67" d="M248.1,631.9c1.6,5,3.1,10.1,4.7,15.1-.5,0-1,0-1.6-.2-9.8-10.2-17.9-21.5-20-36-2.8-21.5-.2-42.2,8.8-62.1,11.4-21.1,29.3-33.6,52.1-39.9,8.3-.4,16.7-.8,25-1.1,3.4,1,6.9,2,10.3,3,.5-1,.9-2,1.4-2.9-5.7-2.6-11.3-6.5-17.3-7.6-9.8-1.7-19.9-1.6-29.9-2.2-.6,0-1.1-.6-1.6-.9,4-1,8.1-2,12.1-3.1,1.9-.8,3.8-1.5,5.6-2.3,4.8.7,9.7,1.4,14.5,2.1,10,4.1,22.2,4.8,25.7,18.2.4,1.7,3.7,3.1,5.9,3.9,14,5.1,28.1,10,42.2,15-.5.9-1,2.5-1.6,2.5-2.8,0-5.6-.3-8.4-.5-23.3-7.5-46.6-15.1-69.8-22.6-.5,1.4-1,2.8-1.5,4.3,19.4,7.8,38.9,15.6,58.3,23.3,6.7,4.3,13.4,8.6,20.1,12.8,8.8,2.9,17.6,5.9,26.5,8.5,1.4.4,3.3-.9,4.9-1.4-1-1.3-1.8-3.4-3.2-3.9-9.7-3.9-19.5-7.5-29.2-11.2.6-1,1.2-1.9,1.9-2.9h0c5.4.9,10.8,1.9,16.2,2.8,4.4,2.2,9.2,3.9,13.2,6.7,3.6,2.5,6.5,6.2,9.7,9.4-3.1,2-6.1,4.1-9.2,6.2,4.7,2,10.2,3.5,14.8,6.4,2.9,1.9,4.4,5.9,6.6,8.9-4.8,2-10.3,6.8-14.1,5.6-9.8-2.9-18.9-8.4-28.2-12.8.6-1.1,1.3-2.1,1.9-3.2,8.1,3.1,16.2,6.5,24.4,9.3,2.9,1,6.3.4,9.5.5-2.2-2.1-4.1-4.8-6.8-6-16.9-7.8-33.9-15.3-51-22.5-2.4-1-5.8.5-8.8.9-5.3-.7-10.7-1.5-16-2.2-1.7-1-3.4-1.9-5.2-2.9,1.7,0,3.5-.3,5.2-.2,4.3.3,8.6.8,12.9,1.2,5.9-5.8-.8-6.7-3.6-7.9-14.3-6.1-28.6-12.3-43.2-17.4-8-2.8-16.7-3.8-25.1-5.7-4.2,1.8-8.3,3.7-14.6,6.4,9.2,4.8,16.8,8.7,24.4,12.6,8.7,3.6,17.4,7.2,26.2,10.8,7.3,6,14.6,12.1,21.9,18.1v3c-2-.8-4.1-2.3-6-2.1s-3.6,2-5.3,3.2c.7,1,1.2,2.5,2.1,2.9,18.7,7.7,37.5,15.4,56.3,23,6.2,1.4,11,10,18.6,4,6.5,3.1,13,6.3,19.5,9.5.6-1.1,1.2-2.3,1.8-3.4-24.1-13-48.1-26-72.2-39-3.6-2-7.2-4-10.9-6.1.4-.7.7-1.4,1.1-2.1,10,4.7,20,9.4,30,14,16.5,8.1,33,16.3,49.6,24.3,1.2.6,2.8.4,4.3.6,0-1.3-.3-2.6-.5-4.7,2.5,3,9.5,4,2.1,9.1-.2.2-.5.6-.5.8.3,15.1-9.1,7.7-15.5,6.5-5-.9-9.8-2.3-15.4-1.6,1.9.9,3.8,1.9,5.7,2.8,5.8,3.1,12.2,5.5,17.3,9.6,2.2,1.8,1.8,6.8,2.6,10.3-3.2.6-6.3,1.8-9.4,1.6-5-.3-10-1.5-15.8-.4,1.5,1.3,2.9,2.7,4.4,4-2.6-.4-5.2-.8-7.8-1.2-1.6-1.4-3.2-2.7-4.8-4.1-4.1-3.5-8.2-7.1-12.4-10.6.3-.7.6-1.4.9-2.1,2,1,4,2,6.1,3.1,3.8,2,7.4,4.2,11.3,5.8,1.5.6,3.6,0,5.5,0-.3-1.6-.5-3.3-.8-4.9.4-.4.8-.8,1.3-1.2,3.9,2.3,7.6,4.8,11.7,6.7,1.7.8,4,.2,6,.3-1-1.7-1.6-4-3.1-5-5.7-3.6-11.8-6.5-17.6-10.1-8.4-5.1-16.5-10.7-24.9-15.8-.7-.4-2.2.6-3.3,1-2.7,8-8.2,4.4-13.1,3.2,0-1.1.2-2.2.3-3.3,2.6,0,5.1.2,7.7.3-1.6-2.3-2.6-5.9-4.8-6.7-14.6-5.5-29.4-10.3-44.1-15.4.9-.6,1.8-1.2,3.4-2.3-8.3-3.5-16.1-6.6-23.6-10.1-1.4-.6-2-3-2.9-4.5l11.3,3.7c3.2,1.3,6.4,3.1,9.7,3.8,3.1.6,6.5,0,9.8,0-1.8-3.4-2.8-8.6-5.7-9.9-17.4-8.4-35.3-15.9-53-23.7-1.8-1-4.5-3.4-5.3-2.9-3,1.8-5.4,4.7-8.1,7.2,1.5,1.6,2.7,3.7,4.5,4.6,9.9,4.9,19.9,9.5,29.9,14.2-3.2.3-6.4.6-9.3.8,1,1.6,2.1,3.4,3.2,5.1-9.6-4.7-19.2-9.4-28.7-14.2-4.2-3.8-8-5-9.1,2.3-.3,1.8,1,4.6,2.5,5.6,5.2,3.4,10.8,6.3,16.3,9.3,14.6,6,29.3,12,43.9,18,14.1,5,28.1,9.9,42.2,14.9,1.9,1.4,3.9,2.8,5.8,4.3,6.1,3.6,12.1,7.2,18.2,10.8-.7.7-1.4,1.4-2.1,2.1-6.3-2.8-12.5-5.6-18.8-8.3-2.2-1.4-4.3-3.2-6.7-4.1-19.7-7.1-39.5-13.9-59.2-20.9-14-7-28.1-14.1-42.2-21-1.5-.7-3.3-.9-4.9-1.4.7,1.8,1,4.4,2.3,5.4,5.6,4,11.6,7.6,17.4,11.4,12.7,6.3,25.4,12.6,38.1,18.9,11.4,6,22.7,12,34.1,18,6.3,4.4,12.7,8.7,19,13.1,5.4,3.6,10.8,7.2,16.2,10.7,1.6,2.4,3.2,4.8,4.8,7.2,9.3,6.9,18.7,13.8,28,20.7,1-1.4,1.9-2.8,2.9-4.2l-15.8-10.7c1-1,1.9-1.9,2.9-2.9,1.3.4,2.5.9,3.8,1.3,4.1,3.9,8.4,7.7,12,12,1,1.3.9,5-.3,6.2s-4.6,1.7-6.3.9c-7.6-3.8-14.9-8.2-22.3-12.4-3.3-3.7-6.6-7.5-9.9-11.2-13.3-8.9-25.9-19-39.9-26.6-28.4-15.4-57.5-29.5-86.4-44.1-1.6-.4-3.2-.9-4.7-1.3,0,3.7-1.7,8.8,0,10.7,3.6,3.8,9.1,5.7,13.8,8.5,33.6,17.1,67.3,34.1,100.9,51.2,3.6,2.3,7.3,4.6,10.9,6.9l3.1,3c-.4,1.4-.8,2.7-1.3,4.1-7.6-4.4-15.2-8.9-22.7-13.3-2-.6-4-1.3-6-1.9-10.9-6.1-21.9-12.1-32.8-18.2-23-11.1-45.9-22.2-69.1-33.4-2.4,6.3,2.4,9.4,7,11.8,26.2,13.5,52.4,26.7,78.7,40,9.1,4.9,18.2,9.7,27.2,14.6,10.7,5.5,21.4,11.1,32.3,16.3.9.4,3-1.9,4.6-3,.3-.7.7-1.4,1-2.1,2,2.1,4.1,4.1,6.1,6.2-3.6.9-7.2,2.4-10.9,2.7-2.3.2-4.7-1.4-7.1-2.1h-.8c-2.1,11.5-5.1,12.7-15.3,6.1-2.2,0-4.5,0-6.7,0-1.6-1.1-3-2.6-4.8-3.4-19.2-9.2-38.5-18.3-57.7-27.5-15.3-7.6-30.6-15.2-45.8-22.9-.3.4-.6.8-.9,1.3,1.3,1.8,2.6,3.7,4,5.5l.3.2ZM248.1,609.9c-3.1-2-6.1-4-9.6-6.2-1.4,10.4,5.1,14,12,17.5,25.4,12.7,50.7,25.5,76.1,38.1,3.7,1.8,7.7,3,11.5,4.5,10.8,4.8,21.5,9.7,32.3,14.5.5-.7,1.1-1.4,1.6-2.1-1.9-2.1-3.3-4.9-5.7-6.2-13.4-7.4-26.9-14.6-40.6-21.5-25.9-13-51.9-25.8-77.8-38.6h.2Z"/>
        <path class="cls-21" d="M492.1,336.2c-13.9,3.1-26.9,6.3-40.1,9-20.4,4.3-29.9-5.2-22.1-24.3,10.9-26.2,23.5-51.8,36.6-77,27.4-52.3,55.7-104.2,83.8-156.1,3-5.5,7.1-10.4,11-15.4.9-1.2,3.1-1.4,4.6-2.1.4,1.5,1.3,3.1,1.1,4.5-.7,5.3-1.5,10.5-2.8,15.7-14.2,60.4-28.5,120.8-42.9,181.1-1.5,6.3.6,6.9,6.3,5.6,15.4-3.3,30.9-6.6,46.6-8.6,4.7-.6,12.1,1.8,14.3,5.3,2.4,3.7,1.6,11.1-.6,15.6-8.1,16.8-16.8,33.3-26.1,49.5-23.3,41-46.6,81.9-70.5,122.5-11.7,20-24.5,39.3-36.8,58.8-.8,1.3-1.6,2.7-2.8,3.5-2.7,1.7-5.7,3-8.5,4.4-1-3.4-3.5-7.2-2.8-10.2,2.6-11.2,6.3-22.1,9.4-33.1,13.6-47.3,26.9-94.7,40.2-142.1.5-1.9,1.2-3.8,2.1-6.5ZM584.1,277.9c-2.8-1-5.9-3.3-8.4-2.8-20.2,3.7-40.4,8-60.5,12.1-.5-2.9-2.1-6.1-1.5-8.8,7-32.8,14-65.7,21.5-98.4,6-26.4,12.6-52.7,19-79,1.7-4.5,3.3-9,5-13.4-4.9,5.1-8.9,10.5-12.1,16.5-28.4,53.4-57,106.9-84.5,160.7-10.2,19.9-18.3,40.9-26.7,61.7-1.3,3.1,1.2,7.7,1.9,11.6,2.8.4,5.8,1.5,8.5,1,16.1-3.5,32.2-7.3,48.4-10.7,1.4-.3,3.3,1.5,5,2.4-16.9,61.9-33.8,123.8-50.8,185.7.4.2.8.4,1.2.5,2.6-4.1,5.3-8.3,7.9-12.4,14.9-24.9,30.2-49.6,44.7-74.8,26.5-46.1,52.7-92.5,78.7-138.8,2.1-3.7,1.9-8.8,2.7-13.2Z"/>
        <path class="cls-32" d="M99.4,252c-2.5-.7-4.9-1.3-7.4-2,7.4-29,13.9-58.3,22.6-86.9,5.8-19.2,14.1-38,31.9-50,25.6-17.3,53.4-19.8,82.7-12.5,20.1,4.9,38.4,13.4,54,26.8,22,18.8,26.5,45.2,26.3,71.8-.2,24-4.3,48-6.4,72-.2,2.1,1.3,5.5,3,6.5,17.1,9.8,29.5,8.5,39.2-4,.9-1.1.6-4.5-.5-5.5-9.2-8.7-11.9-20.7-6.2-30.3,5.6-9.4,18.2-13.9,29.4-10.5,1.1.3,2.3.5,3.4.4,15.8-2.1,26.9,5.1,32,21,3.5,10.8-2.7,26.9-15.7,30.4-12.9,3.5-20.1,12.7-29.6,19.8-19.6,14.6-40.8,15.4-61.1,7.5-10.1,21.5-20,42.4-29.8,63.4,2.4-7.8,4.8-15.6,7-23.4.7-2.4.6-4.9.8-7.4,4.6-13.5,9.8-26.8,13.7-40.5,10.9-38.5,17.5-77.5,12.5-117.7-4.1-32.9-19.3-52.2-46.9-59.6-18.9-5.1-37.1-3.5-55.1,4l-2.4-1.3c1.3-.9,2.5-1.8,4.8-3.5-9.2-2.6-17.5-4.9-25.7-7.1-1-.3-2.1-.7-3.1-1,14.9,0,28.6,10.7,44,3.7,4.5-.7,8.9-1.3,13.4-2,9.6,1.5,19.2,3,29,4.5-24.2-19.1-73.4-21.8-101.3-4.7-7.3,4.5-12.8,12-19.1,18.2-.3.7-.6,1.4-.9,2.2-1,1-1.9,2.1-2.9,3.1-1.5,2.4-3,4.8-4.4,7.2-14.8,27.5-21,57.7-27.8,87.7-1.5,6.6-2.5,13.3-3.8,20l.4-.3ZM391.1,240.1l-1-2c-3.6-6.9-9.2-8.5-14.6-6.8,1.3,6.7,2.4,12.7,3.5,18.6-.4,3.8-2.3,8.4-.9,11.4,3.2,6.8,10.3,6.6,15.4,3.4,6.7-4.1,6-11.1,2.6-17.6-1.7-2.3-3.3-4.7-5-7ZM364.2,260.9c-3.3-2.9-6.6-5.9-9.9-8.8,4.5-.7,8.3,1.5,10.7.4,3.3-1.5,7.4-5.1,7.7-8.3.7-6.3-9.1-13.3-15.5-12.1-7.7,1.4-13.9,5-15.5,13.4-1.6,8.1,1.7,14,8.4,18.8,1.9,1.3,4,5.1,3.4,6.8-4.1,11.4-19.5,20.2-31.5,17.8-6.1-1.2-12-4-18-5.7-1.1-.3-2.7.9-4,1.4-4.5,14.9-4.3,14.8,10.7,18,21.6,4.7,39.1-2.5,54.6-17.3,3.9-3.7,9.9-5.3,15-7.7,3.1-1.5,6.3-2.8,9.7-4.3-6.2-3.2-11-5.7-16-8.1-3.2-1.6-6.6-2.9-9.8-4.4h0Z"/>
        <path class="cls-50" d="M704.8,681.6c-.6,2.7-1.3,5.5-1.9,8.2-13.9,4.4-27.6,9.5-41.7,13-6.1,1.5-13.3.5-19.6-.9-9.2-2-18-5.2-27-8.1-1.9-.6-3.5-1.8-5.2-2.8-5.8-3.7-11.6-7.4-17.4-11.2-12.9-17.3-27.7-33.6-29.1-56.8,0-1.7-1.1-3.5-2.3-4.8-8.1-9.7-8.9-20.6-2.8-31.4,1.5-2.7.9-6.6,1.5-9.9,1-6.6,2.1-13.1,3.3-19.7.3-1.4,1.3-2.7,1.6-4.1,4.3-18.8,32.9-43.4,52.8-45.4,6.7,1.7,13.3,3.4,20,5.1-2,0-4.1-.4-6,0-10.6,2.8-21.4,5.5-31.7,9.1-2.4.9-3.8,5.2-5.2,8.2-.3.6,1.9,2.3,2.9,3.6-1.4,1-2.8,1.9-4.3,2.9v-8.8c-11.2,5.5-20.7,11.4-22.5,24.5-.4,2.7-1.2,5.8-2.9,7.8-6.4,7.3-2.9,13.7,1,20.6,1.8-1.1,3.3-2,4.8-2.9.9,1,1.8,1.9,2.6,2.9-10.4,11-9.8,17.9,1.5,28.8,2,2,2.7,6.8,2,9.8-1.9,8.1-.4,13.7,7.4,17.8,3.4,1.8,7.5,5.7,7.9,9.1,1.1,9.1,5,14.9,13.6,17.5,1.3,1.2,2.5,2.4,3.8,3.6-15-1.7-17.7-4.3-21.3-18.8-.8-3-3.8-6.2-6.6-7.9-9.4-6-12-12.2-8.8-22.8.5-1.6.8-3.9,0-5.2-4.4-7.5-9.1-14.8-13.5-21.9-3.6,6.6-1.8,14.6,2.1,22.8,1.5,3.2,3,6.7,3.6,10.1,3.4,19.6,16.3,34.2,27.6,49.2,4.5,6,12.7,9.1,19.3,13.5.9.6,2.1,1,3.2,1.3,11.5,2.7,23.1,5.4,34.6,8.1l-3.5.8c20.3,3.2,38.6,0,53.3-15.6,1,.2,1.9.5,2.9.7h0Z"/>
        <path class="cls-116" d="M312.3,493.9c-4.8-.7-9.7-1.4-14.5-2.1,14.5-11,29.4-21.5,43.3-33.2,4.3-3.6,5.8-10.4,8.5-15.8-6.6.4-14.9-1.5-19.5,1.7-15.8,10.8-30.5,23.3-45.1,35.7-2.5,2.1-2.5,7.2-3.6,10.9,3.6,1,7.2,2,10.9,3-4,1-8.1,2-12.1,3.1-.4-.2-1.1-.3-1.3-.7-9.7-16.1-27.7-12.8-42-18-6.2-2.3-12.5-4.3-18.7-6.4,4.8.4,9.6.9,14.3.9s2.6-1.9,3.9-2.9c10.9,2.8,21.9,5.7,34,8.8-2.5-10.6-4.7-19.8-6.9-29,1.4-.8,2.7-1.5,4.1-2.3,1.6,3.3,3.2,6.6,4.7,10-.4,6-1,12.1-1.1,18.1,0,.6,2.9,1.3,4.4,1.9.5,1,.9,2,.8,1.7,10.9-9.8,21.9-19.6,32.9-29.5,11.9-8.2,23.9-16.1,39.8-15.2-2.8-2.9-5.5-5.3-8.7-6.7-15.7-7-29.4-2.3-41.9,7.8-1.4-.7-2.9-1.3-4.3-2,15.9-15.5,36.3-19,52.6-9,12.2,7.5,15.3,19.7,5.4,30.2-11.7,12.3-25.5,22.6-38.4,33.7-1.6,1.4-3.7,2.1-6.4,3.6,2.4.7,3.9,1.2,5.3,1.6h-.4Z"/>
        <path class="cls-116" d="M24.2,175.3c-4.4-4.2-8.9-8.4-13-12.9-.7-.7,0-4.1,1-4.6,2.9-1.6,6.2-2.4,9.3-3.5,10.5-3.8,10.2-3.6,3-12.4-6.3-7.7-12.3-15.7-17.4-24.2-1.7-2.8-.2-7.5-.2-11.4,3.2,1.1,7,1.4,9.5,3.4,16.5,13.7,33.1,27.3,48.9,41.7,9.6,8.8,8.8,10.3-3.5,15.1-11.1,4.4-10.6,4-3,13.3,6.1,7.4,11.2,15.6,16.2,23.8,1.1,1.8.8,5.8-.5,7.5-.9,1.3-4.6.6-7,.8-4.2-3.3-8.4-6.5-12.4-10-10.4-8.8-20.6-17.7-30.9-26.6h0ZM18.9,128.9c4.6,5.8,9.3,11.6,13.9,17.5,1.9,2.4,3.6,5,5.4,7.6-5.9,2.1-11.8,4.2-17.7,6.4.2,1.7-.3,4.1.6,5,14.9,13.9,30,27.7,45.2,41.3.7.6,3.4-1,5.1-1.6-5.6-7.5-11.4-14.9-16.9-22.4-3.5-4.7-6.7-9.6-10.1-14.4l16.9-8c0-2.1,1-5.3,0-6.2-16.3-14.3-32.8-28.3-49.2-42.4-.7.6-2.2,1.7-2.1,1.9,2.9,5.2,5.9,10.3,8.9,15.4h0Z"/>
        <path class="cls-128" d="M984.9,169.4c-6.1-1.7-12.2-3.2-18.1-5.1-5.3-1.7-7.2-5.1-3-9.6,16.7-18,33.6-35.9,50.5-53.7.9-1,3.2-.6,4.9-.8.2,2.1,1.4,4.8.5,6.3-6.5,12.5-13.5,24.8-20,37.4-.7,1.4.4,5.1,1.7,5.8,4.7,2.7,10.1,4.3,14.9,7,1.2.7,2.1,4.9,1.3,5.8-14.2,15.6-28.6,31-43.4,46-2.3,2.3-7.2,2-10.9,2.9,0-3.7-1-8.2.7-11,6.4-10.5,13.6-20.3,21-31h-.1ZM994.7,142.9c5.6-9.6,11.3-19.2,16.9-28.9.2-1,.3-2.1.5-3.1-1.5.6-3.5.8-4.5,1.9-13,14-25.9,28.1-38.5,42.4-.7.7.5,4.8,1.5,5.1,6.9,2.2,13.9,3.9,21.4,5.9-1,1.7-1.9,3.6-3.1,5.2-6.9,9.6-13.9,19.1-20.6,28.8-.7,1,.3,3.2.5,4.8,1.4-.2,3.4.2,4.2-.6,12.6-13,25.1-26,37.4-39.3,1.1-1.2.4-4.1.5-6.2-7.2-2.6-14.4-5.3-21.9-8.1,2.2-3,4-5.6,5.8-8.1v.2Z"/>
        <path class="cls-93" d="M643.1,147.2c.3.2,0,0-.2,0-19.6-3.1-21.4-6.4-10.2-23.1,9.7-14.4,20.8-28,31.5-41.7,1.5-2,4.9-2.5,7.4-3.7.5,2.9,2.3,6.2,1.4,8.6-3.9,11.3-8.6,22.3-12.7,33.6-.5,1.4.9,4.2,2.2,5.4,1.5,1.3,3.9,1.7,6,2.4,11.7,3.9,12.3,4.3,5.4,14.3-10.2,14.7-21.3,28.8-32.4,42.9-1.3,1.6-5.8,2.8-7.1,1.9-1.7-1.3-3-5.2-2.4-7.3,3.2-11.1,7.1-21.9,10.9-33.1h.2ZM667.1,85.2c-10.7,13.7-21.5,27.3-31.9,41.3-2.5,3.3-3.5,7.7-5.2,11.6,1.2,1,2.3,2.6,3.7,3,6.1,1.6,12.3,2.8,18.5,4.1-1.7,2.8-3.7,5.5-5,8.5-4.2,9.3-8.2,18.7-12.3,28,1.1.4,2.2.9,3.3,1.3l.9-2.8c11.3-14.5,22.6-29,33.8-43.5.3-.4-.6-1.6-1-2.5-5.5-1.6-11.1-3.1-16.4-5.1-1.1-.4-1.2-3.4-1.7-5.2,5.2-12.3,10.4-24.6,15.5-36.9,0-.2-1.4-1.1-2.2-1.7h0Z"/>
        <path class="cls-9" d="M347.2,86.1c1-2.1,2-4.2,2.9-6.3,2.1,1.3,5.3,2.2,6.1,4.1,3.7,9.7,7.8,19.5,9.6,29.6,1.4,7.9,4.9,8.4,10.6,6.4,9.8-3.3,11.1,1.4,11.1,9.8,0,17.1,1.1,34.1,1.4,51.2,0,2.3-2.2,4.6-3.4,6.9-2.3-1.3-5.6-2.1-6.9-4.1-6-9.5-11.4-19.4-17.2-29.1-.8-1.3-2.6-3.3-3.4-3.1-13.9,3.9-8.9-7.6-11-13.3.2-3.9.3-7.8.5-11.7.3,0,.7,0,1,0,.8,3.9,1.6,7.9,2.4,11.8.4,1.6.7,3.3,1.1,4.9,4.1,12.3,10-3.4,13.4,1.7,0,4.2.3,8.6,2.1,12.5,3.8,8.2,8.3,16.1,12.8,24,.6,1.1,3,1.2,4.5,1.8-1.1-15.4-2.6-30.7-3-46.1-.4-13.4.2-13.3-12.9-11.9-1.4,0-3.9-2.2-4.5-3.9-3.7-11.6-7-23.3-10.4-35-.6-.9-1.2-1.8-3.2-4.7v29h-.8c-1-8.1-2-16.2-2.9-24.2v-.2Z"/>
        <path class="cls-41" d="M680.4,53.2h3.5c14.6,0,14.5,0,17.1,14.3.2,1.3,2.2,3.2,3.4,3.2,9.8.5,12.7,6.6,12.5,15.1,0,4.2.5,5.9,5.6,5.4,6.3-.6,13,0,19.1,1.7,1.6.4,1.5,7,2.6,13.3-12.7-11.5-20.8-12.5-32.9-5.8-1.2.7-2,3.1-1.9,4.7.2,4.6,1.3,9.3,1.1,13.9,0,2-2.5,3.8-4,6-1.1-7.8-2.4-14.1-2.6-20.3,0-3.3.9-8.4,3.2-9.8,6-3.7,4.9-8.6,3-12.9-1.1-2.5-4.9-4.6-7.8-5.3-7.6-1.7-7.5-7.4-7.2-12.8.4-6.1-2-7.4-7.5-6.8-2.6.3-5.3-.9-8-1.5.2-.8.5-1.6.7-2.4h0Z"/>
        <path class="cls-134" d="M899.7,119.1c-1.4,1.5-2.7,2.9-4.1,4.4-3.5-2.4-6.9-5.2-10.6-7.2-1.8-1-4.3-.6-6.5-.8,1.4,1.8,2.7,3.6,4.2,5.4,1.3,1.5,2.8,2.9,4.2,4.3,1.7,9.3-2.6,14.8-11.1,17.6-5.3,1.7-10.6,3.6-15.9,5.4-3.4.3-6.8.6-10.2,1-10.6,1.3-21.2,2.6-31.8,3.9-1,.4-2,.8-3.1,1.2-7.2-6-14.4-13.2-20.9.8-3.3-1.3-6.6-2.5-9.9-3.8,3.6-.8,8.6-.4,10.6-2.7,6-6.7,9.5-7.2,15.8-.6,1.4,1.4,3.8,2.8,5.6,2.6,12.7-1.6,25.3-3.4,37.9-5.7,7.8-1.4,15.8-2.8,22.9-6.2,3.2-1.5,4.2-7.7,6.2-11.8-2.4-.9-5.4-1.3-7-3-1.5-1.6-2-4.5-2.1-6.9,0-1.5,2.1-3.8,1.6-4.4-1-1.4-3.1-2.4-4.9-2.6-5.4-.7-9.4.9-9.5,7.4-.3-3.9-.6-7.8-1-11.7,9.4,1.5,19,2.4,28.1,4.9,4.3,1.2,7.8,5.6,11.6,8.5h0Z"/>
        <path class="cls-139" d="M97.1,112.1c-5.9-4.2-12-8-17.5-12.6-6.9-5.7,1.8-8.9,2.7-13.4,1,.6,2,1.3,3,1.9.3-.3.5-.5.8-.8-7.8-8.7-15.6-17.5-24.1-27.1,14.4,8.7,27.3,16.4,40.2,24.4,1.8,1.1,3,3.1,4.5,4.6-7.8,2.8-7.5,8.1-4.5,14.2,2,4.1,4.3,8.1,6.4,12.2-.4.2-.7.4-1.1.7-7.1-6.7-14.2-13.4-21.4-20.1-.5.6-1.1,1.1-1.6,1.7,4.2,4.8,8.4,9.6,12.7,14.4h0Z"/>
        <path class="cls-128" d="M972.3,64c-8.1,6.3-16.1,12.7-24.2,19-3.4,2.7-7.5,4.9-10.1,8.2-3.9,5.2-8.6,6.7-13.9,3.8-9.8-5.4-14.6,0-19.2,7.5-2,3.3-4.9,6-7.5,8.9-1.2-1-2.3-2.1-3.5-3.1,6.3-6.8,12.1-14.2,19.1-20,2.3-1.9,8,.8,12.1.5,3.2-.2,6.7-1.3,9.5-2.9,3.5-2,6.3-5.1,9.6-7.4,6.4-4.5,12.9-8.9,19.4-13.3,2-1.4,4-3,5.9-4.6l2.7,3.5h0Z"/>
        <path class="cls-116" d="M405,645.9c-.6,0-1.2,0-1.8,0-17.1-9.3-34.2-18.5-51.3-27.8-3.3-2.3-6.6-4.6-9.9-6.9.2-.4.4-.9.6-1.3,3.5,1.3,7.1,2.6,10.6,3.9,15.9,8.8,31.8,17.6,47.8,26.4,1.3,2,2.7,3.9,4,5.9h0Z"/>
        <path class="cls-46" d="M106.6,89.1c-1.5-1.6-2.7-3.5-4.5-4.6-12.9-7.9-25.9-15.7-40.2-24.4,8.6,9.6,16.4,18.4,24.1,27.1-.3.3-.5.5-.8.8-1-.6-2-1.3-3-1.9-6.2-6-12.8-11.6-18.5-18.1-2.1-2.4-1.9-6.8-2.8-10.3,3.3,1.2,7,1.9,10,3.7,8.8,5.2,17.6,10.4,26,16.3,5.1,3.6,9.2,8.5,13.7,12.9.3.3,0,1.3-.2,1.9-.7-.3-1.4-.7-2-1-.6-.8-1.2-1.6-1.8-2.4h0Z"/>
        <path class="cls-51" d="M380.2,571.8c-10-4.7-20-9.4-30-14-1.3-2.7-2.6-5.3-3.9-8,5.3.7,10.7,1.5,16,2.2.3.9.7,1.7,1,2.6,5.3,3.8,10.5,7.5,15.8,11.3,1.1.9,2.2,1.9,3.3,2.8-.7,1-1.4,2.1-2.1,3.1h0Z"/>
        <path class="cls-115" d="M106.6,89.1c.6.8,1.2,1.6,1.8,2.4-9.2,3-5.6,8.7-2.9,14.1,2.3,4.5,5.2,8.8,7.3,13.4.6,1.3-.3,3.3-.6,5-1.2-.6-2.6-1-3.6-1.9-3.9-3.3-7.7-6.7-11.6-10.1-4.2-4.8-8.4-9.6-12.7-14.4.5-.6,1.1-1.1,1.6-1.7,7.1,6.7,14.2,13.4,21.4,20.1.4-.2.7-.4,1.1-.7-2.1-4-4.4-8-6.4-12.2-3-6.1-3.3-11.4,4.5-14.2v.2Z"/>
        <path class="cls-38" d="M352.1,618c17.1,9.3,34.2,18.5,51.3,27.8-1.8.5-3.6.9-5.4,1.4-1.3-.4-2.5-.9-3.8-1.3-7.6-3.4-15.2-6.8-22.8-10.2-5.4-3.6-10.8-7.2-16.2-10.7l-3-7h0Z"/>
        <path class="cls-47" d="M405,645.9c-1.3-2-2.7-3.9-4-5.9,0-2.1,0-4.1,0-6.2,2.6.4,5.2.8,7.8,1.2.7.3,1.9.4,2.1,1,2.1,4.5,4,9,6,13.5-4-1.2-8-2.4-12.1-3.6h0Z"/>
        <path class="cls-47" d="M347.2,86.1c1,8.1,2,16.2,2.9,24.2h.8v-29c2,2.9,2.6,3.8,3.2,4.7-.6,1.5-1.6,2.9-1.7,4.4-.6,15.9-1,31.8-1.5,47.7-.8-3.9-1.6-7.9-2.4-11.8-.3,0-.7,0-1,0-.2,3.9-.3,7.8-.5,11.7-.2-6.6-.5-13.2-.5-19.8,0-10.8.4-21.5.6-32.3h0Z"/>
        <path class="cls-13" d="M376.1,532.9c2.8.2,5.6.6,8.4.5.5,0,1.1-1.6,1.6-2.5,4.7,3.9,9.5,7.8,14.2,11.7-5.4-.9-10.8-1.9-16.2-2.8-2.7-2.3-5.4-4.6-8-6.9Z"/>
        <path class="cls-54" d="M371.3,642.7c3.3,3.7,6.6,7.5,9.9,11.2-1.3,1-2.6,2-4,3-2.7-2-5.3-4-8-6l-3.1-3c1.8-1.8,3.5-3.5,5.3-5.3h0Z"/>
        <path class="cls-121" d="M369.1,650.9c2.7,2,5.3,4,8,6,3.6,3,7.3,6,10.9,9-.3.7-.7,1.4-1,2.1-6.4-4.3-12.8-8.6-19.2-12.9.4-1.4.8-2.7,1.3-4.1h0Z"/>
        <path class="cls-32" d="M251,392c.4-3.4-.3-7.6,1.4-10,1.6-2.3,5.7-2.7,8.7-4-2.9,3.4-6,6.7-8.8,10.3-.8,1-.9,2.5-1.4,3.8h0Z"/>
        <path class="cls-121" d="M382.3,568.7c-1.1-.9-2.2-1.9-3.3-2.8.6-.6,1.3-1.3,1.9-1.9,4.7,2,9.3,3.9,14,5.9-.6,1.1-1.3,2.1-1.9,3.2-3.6-1.5-7.1-2.9-10.7-4.4Z"/>
        <path class="cls-42" d="M832.1,86.3c-2.1.6-4.1,1.2-6.2,1.8,1.9-3.6,3.9-7.2,5.8-10.8,2.8,0,5.5,0,8.3-.2-2.6,3.1-5.3,6.1-7.9,9.2h0Z"/>
        <path class="cls-86" d="M244.1,651c-19.3-7-38.7-14-58-21,0-.4,0-.8,0-1.2-.4-1-.6-2.6-1.4-3-22.9-11.6-34.6-32.2-43.7-54.7-.5-1.3,2.5-5.2,4.7-6.1,3.9-1.6,5.9,2.1,8.9,4,6.7,4.1,15.5,4.9,23.4,7,2.8.7,5.7,1.6,8.5,2.2,10.5,2.3,21,4.6,31.5,6.8,1.4.4,2.7.9,4,1.3,1.2,8.6,2.5,18.2,3.9,27.7,1.7,5.3,3.4,10.6,5.2,15.8l12.9,21.2h0Z"/>
        <path class="cls-113" d="M178.1,575.9c-7.9-2.1-16.8-2.8-23.4-7-2.9-1.8-4.9-5.6-8.9-4-2.1.9-5.2,4.8-4.7,6.1,9.2,22.5,20.9,43.1,43.7,54.7.8.4.9,2,1.4,3-20.2-7.9-32.3-24.2-43.3-41.7-3.7-9-7.3-18-11.3-26.8-.9-1.9-3.5-3.3-5.7-4.2-9.5-3.6-19.2-6.8-28.8-10.5-3.1-1.2-6-3.2-9-4.8,6.8,1.2,13.8,2,20.5,3.7,7.8,2,15.4,4.8,23.1,7.3-.8.6-2,1.7-4.7,3.9,13,2.3,24.9,4.3,37.4,6.5-1.7,1.9-2.8,3.1-3.6,4,5.7,3.2,11.5,6.4,17.2,9.6v.2Z"/>
        <path class="cls-63" d="M226.1,614c-1.3-9.6-2.7-19.1-3.9-27.7-1.3-.4-2.7-.9-4-1.3,1.4-2.1,3-4.1,4.1-6.4,8.5-16.9,16.8-33.9,25.5-50.7.9-1.7,4.2-2.1,6.4-3.1-1.1,2-2.2,4-3.4,6-3.5,6-7.1,12-10.6,18-9,19.8-11.6,40.5-8.8,62.1-.8-1.4-1.5-2.7-3.2-5.8-.9,4.1-1.5,6.5-2,8.9h0Z"/>
        <path class="cls-111" d="M37.4,449.9c1.9,10.8,6.5,19.9,14.8,27.3,11,9.8,23,13.3,37.1,7.8-4.2,6.2-16.5,8.2-27.2,6.7-15.7-2.1-23.6-12-27.5-25.4-1.4-4.8,1.8-10.9,2.8-16.3h0Z"/>
        <path class="cls-125" d="M317.2,507.8c-8.3.4-16.7.8-25,1.1-5.1-.3-10.2-1.4-15.1-.7-3.9.5-7.5,3.1-11.6,5,11.2-11.6,36.6-14.1,51.8-5.4h0Z"/>
        <path class="cls-142" d="M772,656c-.9.4-1.8.8-2.7,1.1-.4,0-.9,0-2,0,25.9-24.5,46-52.3,58.8-85.2l15-39c2.7-8.9,5.3-17.8,8-26.7-.5-.2-1.1-.3-1.6-.5-2.5,8.7-5,17.4-7.5,26.1-4.4,11-8.8,22-13.2,32.9-11.4,3-22.8,6.7-34.4,9-10.6,2-18.6,6.1-21.5,17.2-4.7,9-9.3,17.9-14,26.9-6.1,8.6-12.2,17.2-18.3,25.8.4-1.6.8-3.3,1.2-4.9,9.7-18.3,19.4-36.6,29-54.9,5-13.3,10-26.7,15-40,2.5-8.9,4.9-17.8,7.4-26.6-.5,0-.9-.3-1.4-.4-2.3,8.4-4.6,16.8-6.9,25.2-4.8,12.3-9.5,24.5-14.3,36.8-.9-1.3-1.7-2.5-1.5-2.3-4.1,1.6-7.6,3.4-11.4,4.3-9.2,2-19.8-.3-26.7,8.6-3,3.9-5.5,8.3-8.2,12.4-.6-3.7-2-7.4-1.6-11,1.2-9.4-1.3-16.9-8.8-22.9-1.9-1.6-2.6-4.6-4.1-6.9-5.5-8.5-11-16.9-16.5-25.3,0-.3.2-.6.2-1,.6-9.5-6.9-21.3,7.9-26.6.2,0,.5-.6.4-.9-1.6-7.1,3-9.6,8.4-11.5,12,8.3,25.2,12.2,39.7,8.9,3.2-.7,7.3-2.1,8.9-4.6,2.3-3.4,2.6-8.1,3.8-12.2-3.2-.2-6.5-.4-9.7-.5-1.3,0-2.6.3-3.9.4.9-1.4,1.5-3.7,2.7-4.1,44.7-13.4,89.4-26.9,134.2-39.7,4.8-1.4,10.7,1.1,16.1,1.8-.9.4-1.7,1.2-2.5,1.1-6.1-.6-7.7,1.3-4.5,6.9,1.8,3.1,4.3,7.1,3.6,10-1.6,7.7,1.5,10.8,8.3,11.9.7,1.4,1.3,2.7,2,4.1-.3,3.8,0,7.8-1.2,11.3-5.8,18.2-11.9,36.2-17.9,54.3-.2,0-.5.2-.7.3-10.8,1.6-22.1,1.8-32.3,5.1-9.1,3-20.2,6.2-21.6,19-2.7,5.6-5.5,11.2-8.2,16.8-15,20.7-30,41.3-45,62-2.3,2.4-4.6,4.8-6.8,7.2l.2.3Z"/>
        <path class="cls-95" d="M817.8,407.1c-25.2-3.7-45-16.5-56.9-38.8-30.9-57.9-41.9-120.3-38-185.4.4-5.8,1.8-11.5,2.9-17.2,1-5.7,2.2-11.4,3.3-16.8,16,9.1,33.3,13.4,51.7,13h7.3c4.6.4,9.3,1.7,13.8,1.2,19.7-2.5,39.3-5.5,58.9-8.2,1,.7,2.1,1.5,3.1,2.2-8.9-.6-6.8,4-3.8,8.5,4.5,6.8,3.1,12.4-2.9,17.4-.9.8-1.7,2.5-1.6,3.7.3,6.1.9,12.3,1.3,18.4-14.3-14-22-15.6-38.8-8.2-15.6,6.9-21.3,16-21,32.2.5,23,29.3,39.3,47.4,28.1,15.3-9.4,21-22.6,18.4-40,1.4,2.1,4.1,4.3,3.8,6.1-1.6,12.3-1.7,24.3,3.1,36,.6,1.5.2,3.5.2,5.2-1.7,0-3.3-.2-3.8-.2-2.1,3.6-4,6.9-5.9,10.1,1,0,3.4-.9,4.6,0,1.6,1.2,3.8,4.7,3.3,5.4-5,6.7-6.9,13.6-4.6,21.9.6,2.1-1.8,7.1-3.2,7.3-5,.4-10.3,0-15.2-1.4-1.4-.4-1.8-4.6-2.8-7-.6-1.4-1.3-2.8-2-4.1-.6.3-1.3.5-1.9.8-.5-2.1-1.1-4.1-1.6-6.2-.8-1.5-1.5-2.9-2.3-4.4-6-11.7-22.7-20.7-36.2-19.4-12.1,1.1-21.8,9.4-25.5,21.8-1,4.5-3.7,9.3-2.8,13.4,1.4,6.5,4.3,17.1,8.1,17.8,10.6,2,8,8.1,7.8,14.3,0,1.8.3,3.6.8,5.4,3.4,13.2-1.1,24-12.9,31.1-.9.6-1.8,3.3-1.3,3.8,6,6.2,11.3,13.7,18.5,18,9.1,5.3,19.8,7.8,29.7,11.7,1.2.4,2,1.6,3.1,2.4-2,0-4,.2-6,.3h0ZM785.5,232.7c-.2-18.5-14.5-33.4-32.1-33.4s-26.3,15.8-26.3,30.5c0,19.7,14.5,35,32.9,34.9,13.4,0,25.6-15.5,25.4-32h0ZM806.8,198.3c13.1-2.4,21.2-10.4,28.5-19.4.6-.7-.5-3.8-1.6-4.5-1.3-.8-3.9-.7-5.1,0-5.1,3.7-9.5,8.5-14.8,11.7-2.9,1.8-7.2,1.4-11,1.8-2.1.2-4.3,0-6.5,0,.8,2.3,1,5.3,2.6,6.7,2.3,1.9,5.6,2.5,7.8,3.4v.2ZM767,198.1c.8-.3,3.5-.5,5.2-2,1.5-1.3,1.8-4,2.6-6.1h-5.3c-3.7-.3-8.2.4-10.9-1.4-5.1-3.4-9.2-8.4-14-12.4-1.3-1-4.7-1.6-5.3-.8-1.2,1.5-2.2,4.8-1.3,6,6.6,9.5,15,16.5,29,16.9v-.2ZM838,268.7c.5.4,1.1.7,1.6,1.1,2-1.1,4-2,5.9-3.2s3.6-2.7,5.3-4.1c-2.7,0-5.9-1-8.1,0-2.1,1-3.2,4-4.8,6.2h0Z"/>
        <path class="cls-88" d="M861,117.4c0-6.4,4.1-8,9.5-7.4,1.8.2,3.8,1.3,4.9,2.6.5.7-1.7,3-1.6,4.4.2,2.4.6,5.3,2.1,6.9,1.6,1.7,4.6,2,7,3-2,4.1-3,10.2-6.2,11.8-7,3.3-15.1,4.8-22.9,6.2-12.6,2.3-25.2,4-37.9,5.7-1.8.2-4.2-1.2-5.6-2.6-6.3-6.6-9.8-6.1-15.8.6-2,2.2-7,1.9-10.6,2.7-1-.4-2.1-.8-3.1-1.1h-6.1c-7.8-.9-15.6-1.6-23.3-3.1-1.7-.3-3.5-3.4-4-5.5-.4-1.3,1-3.6,2.3-4.8,1.3-1.3,3.4-2,5.1-2.9,4.4-3.2,8.7-6.4,13.1-9.6,4.5-.5,9-1.2,13.5-1.4,3.4-.2,7.4,1.3,10.2,0,2.1-.9,3.5-4.9,4.2-7.7,1.5-6.4,2.3-12.9,4.7-19.4,2.6,7.5.3,16.5,8.2,21.4.7-3.6,1.3-6.6,1.8-9.5,3.5,1.2,7,2.4,11.9,4.1.3-.9,1.5-4.6,2.2-8.3.7-3.8.9-7.7,3.2-11.7,1.4,4.1,2.7,8.2,4.3,12.1,2.2,5.4,4,11.6,10.8,3.4,3-3.6,7.3-6.3,11.5-9.8.4,5.4.8,11.8,1.4,18.1,0,1.5.9,2.9,1.4,4.3,1.3-.9,2.5-1.7,3.8-2.6h0ZM863.7,131.7c.9-.5,1.8-1,2.6-1.5-1.8-2-3.4-5.6-5.3-5.7-3.5-.2-7.2,1.3-10.7,2.6-1.7.6-2.9,2.4-4.3,3.7.4.4,1.1,1.3,1.3,1.2,1.9-.7,4.1-1.1,5.4-2.5,4.9-4.9,8.5-4.3,10.9,2.2h0ZM828.5,119.4c-4.3,1.4-9.2,3.1-14.1,4.8-.7.3-1.6,1.3-1.6,2s1.1,1.5,1.9,1.7c8.3,1.8,13.1-1.9,13.9-8.6h0ZM779.1,132.8c-.2,0-2.8-2.1-4.8-1.6-3.6,1-6.8,3.5-10.2,5.4.5.8.7,1.9,1.4,2.2.7.3,1.8,0,2.6-.5,3.6-1.7,7.2-3.6,11-5.5h0ZM854.2,108.1c-.3,0-.7-.3-1-.4-3.8,3.6-7.6,7.2-11.6,11,.2,0,3.2,1.7,3.7,1.1,3.3-3.6,6-7.7,9-11.7h0Z"/>
        <path class="cls-87" d="M899.9,391c-11,8.4-23.8,10.5-37.1,10.9,0-1.8-.9-4.3,0-5.2,3.4-3.6,8.3-6,10.9-10,5.3-7.9,9.5-16.5,14.1-24.8,2-12.3,4-24.7,5.9-37,2-.7,5.3-.9,5.7-2.1,1.3-4.2,2.4-8.8,2.2-13.1-.5-10.6-1.9-21.2-2.9-31.7,4.4,6.5,10.4,7.5,17.5,5.5,5.1-1.4,10.3-2.3,15.5-3.4-.3,14-.4,28-1.1,41.9-1.2,25.9-8.6,49.2-29.8,66.1-.7.6-.8,1.9-1.2,2.9h.3Z"/>
        <path class="cls-84" d="M859.9,148.1c5.3-1.8,10.6-3.6,15.9-5.4,8.6-2.8,12.8-8.3,11.1-17.6,0,5.3,0,10.6,0,15.9-.2.7-.5,1.4-1.2,3.6,4.5-2.9,7.9-5.2,11.4-7.4.9,1.5,2.1,3,2.8,4.7,15.2,33.3,22.4,68.6,27.2,104.6.2,1.7,2.5,3,3.8,4.5-5,1.3-10.5,1.9-15,4.2-6.3,3.3-11.9,7.9-17.8,12-1.7-8.8-3.6-17.5-5-26.3-2.1-14-2.9-28.2-5.9-42-3.6-16.6-8.8-32.8-13.2-49.2,2-1.4,4-2.9,7.7-5.5-8,1.9-13.9,3.3-19.8,4.8-.6-.3-1.3-.6-1.9-.8h0Z"/>
        <path class="cls-131" d="M652.2,695.7c-11.5-2.7-23.1-5.4-34.6-8.1-1.1-.3-2.3-.7-3.2-1.3-6.6-4.4-14.8-7.5-19.3-13.5-11.3-15.1-24.1-29.6-27.6-49.2-.6-3.5-2.1-6.9-3.6-10.1-3.9-8.2-5.7-16.2-2.1-22.8,4.5,7.2,9.2,14.4,13.5,21.9.8,1.3.4,3.6,0,5.2-3.2,10.6-.6,16.7,8.8,22.8,2.8,1.8,5.8,4.9,6.6,7.9,3.6,14.5,6.2,17.2,21.3,18.8,6.6,5.1,12.9,10.7,20,14.9,3.1,1.8,8.9,2.3,11.7.6,4.8-2.9,8-2.6,12.6,0,2.9,1.6,7.4,2.4,10.5,1.4,6.5-2.1,12.6-5.6,18.8-8.6,1-.5,1.5-1.7,2.3-2.5,3.7-3.8,7.6-7.5,11.2-11.4,1.7-1.8,4.2-3.9,4.4-6,.9-8.8,1-17.6,1.4-26.4,0-1.3-.2-3.1.5-3.9,5.6-6.4,3.7-12.4-.4-18.5,3.7,0,7.3,0,11,0,5.3,24.2,3.4,46.5-13.2,66.8-13.4,16.4-31.2,20.7-50.6,22.2h0Z"/>
        <path class="cls-20" d="M948.6,521.7c-2.3,4.7-4.5,9.4-6.8,14.2-16.6,5.1-33.2,10.2-49.8,15.3,1.9-5,4-9.9,5.6-14.9,4.9-15.8,9.6-31.6,14.3-47.4,19.7,14.8,44.8,5.7,50.1-18.2.9-4.2,1.2-8.5,1.7-12.8,1.1-6,2.2-11.9,3.2-17.9v-14.1c0-1.8-.7-4.9,0-5.1,2.1-1,4.7-1.2,7.1-1.1.4,0,1,3.4.8,5.2-.5,5.7-1.3,11.4-2,17.1-1.2,1.2-3.1,2.2-3.4,3.6-1.5,6.4-2.5,12.9-3.7,19.3-5.7,19-11.4,38-17.1,56.9h0Z"/>
        <path class="cls-43" d="M716,606.7c-3.7,0-7.3,0-11,0-.7-2.8-2.7-5.9-2-8.4,2.9-10.6,1.7-19.2-9.3-24.5-1.2-.6-2.4-2.7-2.5-4.2-1.1-11.7-7.4-19.3-18-23.9-1.6-.7-2.6-2.6-4-3.7-7-5.3-13.4-11.9-21.2-15.5-6.2-2.9-14.1-2.4-21.3-3-2.9-.2-6.1.2-8.9,1.2-7.1,2.7-14,5.8-20.9,8.8-1-1.2-3.2-2.9-2.9-3.6,1.3-3,2.7-7.3,5.2-8.2,10.4-3.6,21.1-6.3,31.7-9.1,1.9-.5,4,0,6,0,23.9,4.1,40.8,19.6,57.6,35.2,0,0,.2.2.3.4,6.1,9.9,9.1,21.5,18.2,29.8,2.1,1.9,1.1,7.2,1.5,11,.5,5.8,1,11.6,1.5,17.4v.2Z"/>
        <path class="cls-97" d="M873.9,149.7c4.5,16.4,9.7,32.6,13.2,49.2,2.9,13.8,3.8,28,5.9,42,1.3,8.8,3.3,17.6,5,26.3.3,3.6.6,7.2.9,10.9,1,10.6,2.3,21.1,2.9,31.7.2,4.3-.9,8.9-2.2,13.1-.4,1.2-3.7,1.4-5.7,2.1.4-29.3-1.2-58.6-8.2-87.1-6.6-27.1-14.5-53.9-21.8-80.9-1-.7-2.1-1.5-3.1-2.2,4.4-1.7,8.8-3.5,13.1-5.2h0Z"/>
        <path class="cls-45" d="M727.8,494.2c-.8-.2-2.7-.3-4.3-1-19.1-8.2-36.1-19.4-48.8-36-2.8-3.7-3.1-9.3-4.5-14.1,4.8.2,11-1.4,14.1,1,17.2,13.1,33.9,26.9,50.2,41.1,4.1,3.6.6,8.9-6.7,9Z"/>
        <path class="cls-109" d="M707,495.9c-5.5,1.9-10,4.5-8.4,11.5,0,.3-.2.8-.4.9-14.8,5.3-7.2,17.2-7.9,26.6,0,.3,0,.7-.2,1-17.4-9-30.3-26.5-52.3-28.3,23-4.9,46.1-9.8,69.1-14.7v3h0Z"/>
        <path class="cls-118" d="M723.1,284.8c4.1,12,3.6,12.9-8.4,16.3-19.7,5.5-37.4,1.8-52.5-11.8-4.3-3.8-6.8-9.5-10.2-14.4-8.5-4.4,1.2-7.3.9-11.1,2.3-1.3,4.5-2.8,6.9-3.9,1.6-.7,3.4-.7,5.2-1.1,4.9-4,9.9-8.1,14.8-12.1,0-1.6.2-3.3.4-4.9,2.4,8.6-.5,15.4-6.3,21.8-2.1,2.3-2.6,6.2-3.8,9.3h-3c0,1.6,0,3.3.5,4.7,7.9,18.1,39.7,24.4,54.6,10.9.8-.7.8-2.4,1.1-3.6h-.2Z"/>
        <path class="cls-10" d="M940.1,439.1c4.8-6.8,4-13.6.7-20.8-.4-.9,2.4-4.6,2.9-4.5,3.6,1.2,7.8,2.3,10.4,4.9,8.1,7.9,8.4,26.3,1.3,40.4-8.3,16.4-19.8,24.6-32.8,23.1-1.3,0-2.5-.7-3.8-1.1,1.4,0,2.8-.3,6.7-.7-3.8-.9-5.1-1.2-6.5-1.5,1.9-.3,4.4,0,5.8-1.1,6.9-5.5,14.9-10.3,19.7-17.3,4.8-6.9,2.8-15.3-4.4-21.3h0Z"/>
        <path class="cls-65" d="M935.1,421.8c.5,3.8,2.6,8.5,1.1,11.3-5.4,10.5-24.2,14.4-34.4,7.9.3-1.2,1.3-2.9.9-3.5-6.9-9-14-17.8-21.1-26.6-.5-.7-1.9-.6-2.9-.9-2-7.8,5.5-4.9,8.4-7,.7-.5,4.5,1.4,5,2.9,3.8,11,10,19.8,18.3,23.6,3-1.6,4.7-2.6,6.5-3.6,2.7,5.2,6.3,6.9,11.2,2.7,2.5-2.2,4.7-4.6,7-7v.2Z"/>
        <path class="cls-91" d="M721,601.8c2.7-4.2,5.2-8.5,8.2-12.4,6.9-8.9,17.5-6.6,26.7-8.6,3.8-.8,7.3-2.7,11.4-4.3-.2-.2.7,1,1.5,2.3-.3,1-.5,2.1-.8,3.1-2.3,4.7-4.6,9.3-7,14-12.7,3.6-25.5,7.3-38.2,10.9-.6-1.7-1.2-3.4-1.8-5h0Z"/>
        <path class="cls-6" d="M993,284.8c2.6,1.3,5.4,2.3,7.8,3.9,4.1,2.6,7.9,5.6,11.8,8.4-.5,7.4-3.1,13.1-11.6,14.1-3.1.4-6.1,1.1-9.2,1.7,0,0-.2-.3-.3-.4-2.2-2-4.4-4.1-6.7-6.1.6,3,1.3,6,1.9,9,.4,2.1.4,4.2.6,6.3-2.5-.9-5.8-1-7.4-2.7-6.7-7-4.8-16.2,4.7-25.1,1.7-2.3,3.4-4.6,5.1-6.9,1.1-.7,2.1-1.5,3.2-2.2h0Z"/>
        <path class="cls-101" d="M989.8,287c-1.7,2.3-3.4,4.6-5.1,6.9-5.1-14-30-25.9-47.7-22.4-7.8,1.5-15.4,4.2-23.2,5.7s-7,0-7.9-1.6c-1.5-2.4-.7-6.3-.9-9.5,5.5.3,11.4,2.2,16.3.6,18.1-5.8,35.4-6.3,51.5,5.2,6.1,4.4,11.4,10,17.1,15.1h0Z"/>
        <path class="cls-143" d="M716.6,457.2c-11.6-6.8-23.1-13.8-34.9-20.3-3-1.6-7.1-1.4-10.7-2.1,2.2-6.1,14.6-10.8,23.3-9.6,14.1,2.1,23.2,10.5,29.8,22.4-3.9-1.3-8.7-5.3-10.2,2.2-.4,2.2,1.7,4.9,2.7,7.3h0Z"/>
        <path class="cls-107" d="M713.8,667.7c3.4-18,6.9-35.9,10.3-53.9.5,2.9,1,5.7.9,5.6,6.1-2.7,12.9-5.8,19.8-8.7,1.2-.5,2.8-.3,4.2-.4,0,1.3-.2,2.5-.2,3.8s0,2.5.2,3.8c-5.7,8.2-11.6,16.2-17.1,24.6-3.6,5.5-6.7,11.3-10.1,16.9-2.7,2.8-5.4,5.6-8.2,8.3h.2Z"/>
        <path class="cls-73" d="M911.9,488.8c-4.8,15.8-9.4,31.7-14.3,47.4-1.6,5.1-3.7,10-5.6,14.9-3.1,6.5-6.2,13.1-9.3,19.6-12.5,23-26.7,44.8-45.9,63-2.7,1.2-5.4,2.5-11,5,31.1-25.2,49.2-55.7,62.2-89.8,6.6-20.4,13.2-40.8,19.8-61.1,1.4-1,2.7-2,4.1-2.9v3.9h0Z"/>
        <path class="cls-143" d="M989.8,287c-5.7-5.1-11-10.7-17.1-15.1-16-11.5-33.3-11-51.5-5.2-4.9,1.5-10.9-.3-16.3-.6,27.1-16.2,68.9-14.6,88.1,18.8-1.1.7-2.1,1.5-3.2,2.2h0Z"/>
        <path class="cls-29" d="M777.9,398c7.1,3.2,8.5,6.2.6,10.6-17.8,10-28.3,25.6-33.2,45.8-4-2.7-7.6-5.1-11.2-7.6,1.8-1.8,4.4-3.2,5.4-5.4,7.1-15.2,17-28,30.7-37.7,2.6-1.9,5.2-3.9,7.7-5.8h0Z"/>
        <path class="cls-25" d="M940.1,439.1c7.1,6,9.2,14.4,4.4,21.3-4.8,7-12.9,11.8-19.7,17.3-1.3,1.1-3.8.8-5.8,1.1-.9-1.6-2.9-4.2-2.5-4.6,4.3-4.6,9.1-8.9,13.6-13.4s.5-1.9.8-2.8c1.6-2,3.2-4,4.8-5.9-3.6-1.8-7.2-3.6-10.2-5.1,4.2-2.3,9.4-5.1,14.5-7.9h0Z"/>
        <path class="cls-143" d="M831.7,77.3c-1.9,3.6-3.9,7.2-5.8,10.8-1,2-2.4,4-3,6.1-.7,2.5-.3,7.2-1.1,7.3-4.3.8-8.9.7-13.3.4-.7,0-1.1-2.9-1.9-4.3-4.1-7.1-3.1-12,3.5-18.2,7.1-6.7,13.3-3.2,20.2-2.4.5,0,1,0,1.5.2h0Z"/>
        <path class="cls-16" d="M753.8,131.9c-3.7,2.3-10.8,5.2-10.5,6.7.9,4.9,4.6,9.3,8.2,15.9-6.6-4.1-12.5-7.5-18-11.3-.5-.3.3-3.9,1.5-5.1,14.1-15.2,31.7-23.8,52.1-26.5,1.3-.2,2.9,1.6,4.3,2.5-1.3,1.3-2.5,3.3-4,3.8-6.4,2-12.9,3.5-19.4,5.2-4.7,2.9-9.5,5.9-14.2,8.8h0Z"/>
        <path class="cls-62" d="M707,495.9v-3c5.9,2,11.8,4.3,17.8,5.8,9,2.2,17.4-2.4,21-10.7,1.3,0,2.6-.4,3.9-.4,3.2,0,6.5.3,9.7.5-1.2,4.1-1.5,8.8-3.8,12.2-1.6,2.4-5.7,3.8-8.9,4.6-14.6,3.3-27.7-.5-39.7-8.9h0Z"/>
        <path class="cls-140" d="M911.9,488.8c0-1.3,0-2.6,0-3.9,22.2,7.7,37,1.4,48.5-20.5,1.1-2.2,2.3-4.4,3.5-6.6-.6,4.3-.8,8.6-1.7,12.8-5.3,23.9-30.4,33-50.1,18.2h0Z"/>
        <path class="cls-143" d="M777.9,398c-2.6,1.9-5.1,4-7.7,5.8-13.8,9.7-23.7,22.5-30.7,37.7-1,2.2-3.6,3.6-5.4,5.4,1.8-6.5,1.9-14.5,5.8-19.3,9.5-11.8,20.8-22.3,31.6-33,.5-.5,4.2,2.2,6.5,3.4h0Z"/>
        <path class="cls-51" d="M899.9,391c.4-1,.5-2.3,1.2-2.9,21.2-17,28.5-40.3,29.8-66.1.7-14,.7-27.9,1.1-41.9,1,.5,2.9,1.1,2.9,1.6.5,30.3,3.5,61.2-13.3,88.5-5.1,8.2-14.3,13.9-21.6,20.8h0Z"/>
        <path class="cls-143" d="M723.1,284.8c-.4,1.2-.3,2.9-1.1,3.6-14.9,13.5-46.6,7.2-54.6-10.9-.6-1.4-.4-3.1-.5-4.7h3c11.3,16.8,26,20,46.7,10.7,1.6-.7,4.3.7,6.5,1.2h0Z"/>
        <path class="cls-96" d="M888,361.9c-4.7,8.3-8.8,16.9-14.1,24.8-2.7,4-7.5,6.4-10.9,10-.9.9,0,3.4,0,5.2-15,1.7-30.1,3.4-45.1,5.1,2,0,4-.2,6-.3h10c-.4-.9-.8-1.8-1.2-2.6,1-1.1,1.7-2.8,2.9-3.1,6.2-1.9,12.7-2.9,18.7-5.3,16-6.4,25.8-19.2,33.8-33.8h0Z"/>
        <path class="cls-114" d="M749,617.9c0-1.3-.2-2.5-.2-3.8s0-2.5.2-3.8c-1.4,0-3,0-4.2.4-6.9,2.9-13.7,6-19.8,8.7,0,0-.5-2.8-.9-5.6-.4-2.3-.8-4.7-1.2-7,12.7-3.6,25.5-7.3,38.2-10.9-4,7.3-8,14.7-12,22h0Z"/>
        <path class="cls-49" d="M930.7,251c-1.3-1.5-3.5-2.9-3.8-4.5-4.8-36-12-71.4-27.2-104.6-.8-1.6-1.9-3.1-2.8-4.7,1.7.7,4.7,1,5,2.2,6.8,20.5,14.2,40.8,19.7,61.7,4.3,16.3,6.1,33.3,9.1,50h0Z"/>
        <path class="cls-54" d="M903.7,475.9c-6.8-1.1-10-4.2-8.3-11.9.6-3-1.9-6.9-3.6-10-3.2-5.7-1.5-7.5,4.5-6.9.8,0,1.7-.7,2.5-1.1,5.5,1.4,11,2.7,16.7,4.2-6.7,6.7-14.6,13.9-11.8,25.8h0Z"/>
        <path class="cls-109" d="M930.9,458c-.2,1-.2,2.2-.8,2.8-4.5,4.5-9.3,8.8-13.6,13.4-.4.4,1.6,3,2.5,4.6,1.3.3,2.7.6,6.5,1.5-3.9.4-5.3.5-6.7.7-3.6-3.7-10.7-8.6-10-10.7,2.2-6.1,7.5-11.1,11.9-16.2.2-.3,3.9,2.8,6.2,3.9,1.1.5,2.6,0,3.9,0h0Z"/>
        <path class="cls-103" d="M713.8,667.7c2.7-2.8,5.4-5.6,8.2-8.3,6-6.9,12-13.7,18-20.6-.4,1.6-.8,3.3-1.2,4.9-7.7,9.6-15.4,19.1-23.1,28.7,11.5-2.6,21.7-6.7,32-10.5,1.5-.6,3.5,0,5.3,0-15,6.1-30,12.1-45,18.2-1.1.4-2,1.1-3.1,1.6-1-.2-1.9-.5-2.9-.7,3.9-4.4,7.9-8.7,11.8-13.1v-.2Z"/>
        <path class="cls-76" d="M679.7,246.9c-4.9,4-9.9,8.1-14.8,12.1,2.2-2.8,4.5-5.6,7.4-9.2-7.6.5-15.8,8.4-19.5-3.6,8-5.8,16-10.4,24.1,0,.4.6,1.9.4,2.8.6Z"/>
        <path class="cls-26" d="M733.9,455c8.7,5.3,10.2,10.5,6.1,25.3-4-4.5-7.5-8.4-11.1-12.3-2.6-6-.8-10.2,5-13Z"/>
        <path class="cls-13" d="M991.9,312.9c3.1-.6,6.1-1.3,9.2-1.7,8.4-1,11-6.7,11.6-14.1,5.5,7.3,3.2,17.1-5.5,22.5-8.3,5.2-11.9-.6-15.3-6.7Z"/>
        <path class="cls-25" d="M733.9,455c-5.8,2.7-7.6,7-5,13-4.1-3.6-8.2-7.2-12.3-10.8-1-2.4-3.1-5.1-2.7-7.3,1.5-7.5,6.3-3.4,10.2-2.2,3.3,2.4,6.5,4.9,9.8,7.3Z"/>
        <path class="cls-109" d="M679.7,246.9c-1-.2-2.4,0-2.8-.6-8-10.6-16-5.9-24.1,0-1.4-6.8,2.5-10.9,8.3-11.7,7.3-1,15.6-2.5,18.9,7.5,0,1.6-.2,3.3-.4,4.9h0Z"/>
        <path class="cls-79" d="M886.8,141c0-5.3,0-10.6,0-15.9-1.4-1.4-2.9-2.8-4.2-4.3-1.5-1.7-2.8-3.6-4.2-5.4,2.2.2,4.7,0,6.5.8,3.7,2,7.1,4.7,10.6,7.2,2.8,8.8-3.5,12.9-8.9,17.5h0Z"/>
        <path class="cls-73" d="M628,261c-3.2-7.6-2.4-14.2,5-19,2.6,3,5.3,6.1,7.9,9.1-1.1,2.1-2.2,4.1-3.4,6.2-5.6-4.7-6.3,1.5-8.7,3.9-.3,0-.6-.2-.9-.2h0Z"/>
        <path class="cls-110" d="M878.7,410.1c1,.3,2.4.2,2.9.9,7.1,8.8,14.2,17.6,21.1,26.6.4.6-.5,2.3-.9,3.5-12.2-6.9-19.9-17.3-23.2-30.9h0Z"/>
        <path class="cls-40" d="M628.9,261.2c2.4-2.4,3.1-8.6,8.7-3.9,1.1-2.1,2.2-4.1,3.4-6.2,2,3.3,4.1,6.6,6.1,9.9l-6,5c-4-1.6-8.1-3.2-12.1-4.7h0Z"/>
        <path class="cls-10" d="M780.9,150.1c1,.4,2.1.8,3.1,1.1,3.3,1.3,6.6,2.5,9.9,3.8.4.7,1,2.1,1.3,2.1,6.5-.9,13.1-1.9,19.6-2.9,1-.4,2-.8,3.1-1.2,3.4,1,6.8,2,10.1,3-13.3,2-26.6,3.9-39.9,5.9h-7.3l-1.9-4.9,2-6.9h0Z"/>
        <path class="cls-129" d="M634.9,240c3.5-8.5,7.7-10.6,15.3-8.3-1.4,4-2.9,8.1-4.3,12.1-.5,1.3-1,2.6-1.5,3.9-3.3-2.7-6.4-5.2-9.5-7.7Z"/>
        <path class="cls-14" d="M907.7,487.9c-6.6,20.4-13.2,40.8-19.8,61.1-.4-1.1-.9-2.2-1.3-3.4,6-18.1,12.2-36.2,17.9-54.3,1.1-3.5.8-7.5,1.2-11.3l2.1,7.9h0Z"/>
        <path class="cls-44" d="M628.9,261.2c4,1.6,8.1,3.2,12.1,4.7-1.2.7-2.4,1.4-3.6,2.1.5,1,.9,2,1.4,2.9,4.7-2.4,9.4-4.8,14.1-7.2.4,3.7-9.3,6.7-.9,11.1-13.1,2.7-17.9,0-24-13.9.3,0,.6,0,.9.2h0Z"/>
        <path class="cls-75" d="M935.1,421.8c-2.3,2.3-4.6,4.8-7,7-4.9,4.2-8.5,2.5-11.2-2.7,3.7-1.9,7.6-3.4,10.9-5.8,3.6-2.7,5.6-2.4,7.4,1.6h0Z"/>
        <path class="cls-110" d="M780.9,150.1l-2,6.9c-2.7.3-5.3.6-8,.9-.3-.6-.6-1.2-1-1.8,1.6-2,3.2-4,4.9-6h6.1Z"/>
        <path class="cls-85" d="M769.9,156.1c.3.6.6,1.2,1,1.8-5.1-.9-10.2-1.8-15.3-2.9-.5,0-1.2-1.7-1-1.9.8-.9,2.2-2.4,2.9-2.2,4.2,1.5,8.4,3.3,12.5,5.1h0Z"/>
        <path class="cls-70" d="M634.9,240c3.1,2.5,6.2,5,9.5,7.7.5-1.2,1-2.6,1.5-3.9.4,5.7.8,11.5,1.2,17.2-2-3.3-4.1-6.6-6.1-9.9-2.6-3-5.3-6.1-7.9-9.1.6-.7,1.3-1.3,1.9-2h0Z"/>
        <path class="cls-122" d="M753.8,131.9c4.7-2.9,9.5-5.9,14.2-8.8v1.1c-4.4,3.2-8.7,6.4-13.1,9.6-.4-.7-.7-1.3-1.1-2h0Z"/>
        <path class="cls-88" d="M199.3,125.2c17.9-7.4,36.2-9.1,55.1-4,27.5,7.4,42.8,26.6,46.9,59.6,4.9,40.2-1.6,79.2-12.5,117.7-3.9,13.7-9.1,27-13.7,40.5-4.3,9-8.6,17.9-12.9,26.9-2,2.7-4,5.4-6,8.1-12.3,15.4-28.1,25.6-47.1,30.7-2.2.6-4.6.9-6.8,1.3-12.5,0-25.3,1.6-35.9-7.5-7.1-6.1-14.1-12.4-21.1-18.6l-13.1-38c.2-11.3-.9-22.8.8-33.9,5.2-33.7,10.5-67.4,17.8-100.6,6.1-28.2,13.9-56.4,37.5-76.4,3.7-2,7.4-4,11.1-6v.2ZM252,294.2c0-11.9-7.1-21.6-18.4-25.2-16-5.1-34.7,3-42.7,19.2-1.8,3.7-2.8,9.7-1,12.9,1.6,2.7,7.6,3.3,11.7,3.8,10.6,1.4,21.4,1.3,31.8,3.4,10.4,2.2,18.6-3.2,18.6-14.1h0ZM197.3,193c-17.5-.2-31.9,16-32.2,36.2-.3,15.7,14.9,30.9,31,31.2,19.2.3,33.8-14.7,34.2-35.3.3-18-13.9-31.8-33-32.1h0ZM239.7,234.6c-.4,16.4,11.3,30.5,25.6,30.8,16.2.3,32.4-15.5,32.8-32.2.4-15.4-13-31.3-26.7-31.8-17.7-.6-31.2,13.6-31.7,33.2h0ZM206.1,164.3c-4.7,3.2-7.8,4.3-9,6.5-1,1.8-.4,5.9,1,7.1,5.8,4.9,12,9.3,18.5,13.2,1.5.9,5.1-.4,7.1-1.7,1.2-.8,2.3-4.3,1.7-5-6.1-6.7-12.5-13.1-19.3-20.1ZM275.5,170.7c-6.8,5.9-12.2,10.6-17.5,15.3,1.8,1.8,3.5,5.1,5.5,5.3,7.8.6,20.4-6.9,19.5-11.5-.5-2.6-3.7-4.6-7.5-9.1Z"/>
        <path class="cls-37" d="M135.3,137.1c1-1,1.9-2.1,2.9-3.1,6.6,1.4,13.3,2.2,19.6,4.3,3.2,1.1,8.3,5.1,7.9,6.7-1.3,5.6-4.4,10.9-7.2,16.1-13.2,24.8-20.6,51.2-23.5,79.1-.9,8.4-3.9,16.6-5.9,24.9-5.4-11.6-17.9-8.8-26.9-13.2,1.3-4.8,2.5-9.5,3.9-14.3,8-28.7,16.1-57.3,24.2-86,1.4-5,3.3-9.8,5-14.7v.2Z"/>
        <path class="cls-86" d="M119.3,414.9c.9-2.1,1.9-4.2,2.7-6.4,2.9-7.9,6.6-16.1-5.6-19.6-.3-.7-.5-1.6-1-2.2-11.7-12.5-18.4-27.3-19.2-44.4-.8-18.1-.5-36.2-.8-54.3,0-1.4-1.2-2.7-1.9-4.1-.9-5.3.5-7.3,6.3-5.3,6.4,2.2,13,3.7,19.5,5.5-2,3.9-5.8,8-5.6,11.7.6,10.4,4.5,20.8,4.3,31.2-.4,22.8,9.7,40.9,22.3,58.5,2.6,3.7,2.6,9.2,3.9,13.8l-5.7,8.6c-.2-.2-.4-.5-.4-.8-6.5-2-13.8-7.4-16.3,4.7-.2,1.1-1.6,2-2.4,3h0Z"/>
        <path class="cls-52" d="M129.1,265.2c2-8.3,5.1-16.5,5.9-24.9,2.9-27.9,10.3-54.4,23.5-79.1,2.8-5.2,5.9-10.5,7.2-16.1.4-1.6-4.7-5.6-7.9-6.7-6.3-2.1-13.1-3-19.6-4.3.3-.7.6-1.4.9-2.2,4.4-3.3,8.8-6.6,13.2-10,1.2.7,2.4,1.9,3.7,2.1,9.8,1.8,19.6,3.4,29.5,5.1,1,.7,1.9,1.3,2.9,2-23.6,20-31.4,48.1-37.5,76.4-7.2,33.3-12.5,67-17.8,100.6-1.7,11.1-.6,22.6-.8,33.9-1.9-9.9-5-19.7-5.4-29.6-.3-8.6,2.6-17.3,3.6-26,.3-2.4-1.5-5-2.4-7.5.4-4.5.8-9.1,1.2-13.6h-.2Z"/>
        <path class="cls-88" d="M6.2,310.1c-3.3-10.6,1.6-17.4,15.9-22.1,11.4-27.7,50.3-39.1,81.2-29.4,7,2.2,13.4,6.2,20.1,9.4-2.2.4-4.5,1.4-6.5,1-12.9-2.1-25.7-4.5-38.5-6.8-16.5,2-31.4,7.3-43.2,19.8-4.8,5.1-5.9,8.6,1.2,12,4.1,4.6,8.1,9.1,12.2,13.7-.2,1-.4,1.9-.6,2.9-.8-2.5-1.5-4.7-1.7-5.4-4.2.3-7.6.6-11,.9-1.3.6-2.6,1.3-4,1.9-10.4,6.8-17.4,5.5-22.9-4.5-.8,2.4-1.4,4.5-2.1,6.6h0Z"/>
        <path class="cls-37" d="M127.9,278.8c.9,2.5,2.7,5.1,2.4,7.5-.9,8.7-3.9,17.4-3.6,26,.4,9.9,3.5,19.7,5.4,29.6,4.4,12.7,8.8,25.3,13.1,38,2.7,6.1,5.4,12.2,7.4,16.9-2,.9-4.8,2.1-7.6,3.3-.4-.2-.7-.5-1.1-.7-1.2-4.7-1.2-10.2-3.9-13.8-12.6-17.6-22.7-35.7-22.3-58.5.2-10.3-3.7-20.7-4.3-31.2-.2-3.8,3.6-7.8,5.6-11.7,2.9-1.8,5.8-3.6,8.7-5.4h.2Z"/>
        <path class="cls-52" d="M61.3,406.9h7.4c-.6,1.4-.9,2.5-1.5,3.4-8.4,13.4-6.3,21.3,7.8,29.2,2,1.2,3.6,3.3,5.3,4.9-2.1,1.6-4,4.1-6.3,4.6-9.1,2-6.3,6-2.1,10.5-4.8,6.8-3.2,12.9,4.5,14.6,4.5,1,9.4,0,14.1,0-5.8,9.8-20.3,10.8-30.7,1.2-11.7-10.7-18.6-23.8-16.4-40.3.7.3,1.9.6,1.9,1,.2,3.3-.2,6.7.3,9.9.6,3.6,2,7.1,2.4,8.5,3.7-11.4,7.7-23.3,11.4-35.4,1.2-3.9,1.4-8,2.1-12.1h-.2Z"/>
        <path class="cls-103" d="M119.3,414.9c.8-1,2.2-1.9,2.4-3,2.5-12.1,9.8-6.7,16.3-4.7-1.2.8-2.7,1.4-3.4,2.6-4.8,8.3-9.5,16.6-14.1,25-.2.4.5,1.4.7,2.1-8.2,7.6-17.6,10.5-27.8,5.4-7.9-3.9-15.6-8.9-22.5-14.4-6.1-4.8-3.4-14.8,4-17.1.7-.2,2.2,2,3.4,3.1-.3,2.5-1.8,6.3-.7,7.1,5.4,4.5,10.9,9.5,17.3,12.1,10.9,4.6,25-2.4,27.1-10.9-3,.5-6.3,1.1-9.7,1.6,2.3-3,4.7-6,7-9h0Z"/>
        <path class="cls-130" d="M308.9,449.9c-11,9.9-22,19.7-32.9,29.5,0,.3-.3-.7-.8-1.7-4-10.4-1.5-18.7,7.8-24.8,2.4-1.1,5.1-1.9,7-3.5,4.7-3.9,8.7-8.8,13.7-12,1.5-1,5.8,1.6,8.4,3.3.6.4-.6,3.8-1.3,5.7-.4,1.3-1.3,2.4-2,3.6h0Z"/>
        <path class="cls-82" d="M272,457.6c-1.6-3.3-3.2-6.6-4.7-10-6.6-20.3-19.1-35.3-39.8-43.7,5.4-3.4,10-6.2,14.6-9.1-2.4,5.5,1,7.6,4.9,10.9,7.6,6.6,14,14.6,20.7,22.2,4.9,5.5,9.7,11.3,14.5,16.9-3.4,4.2-6.8,8.4-10.2,12.7h0Z"/>
        <path class="cls-110" d="M308.9,449.9c.7-1.2,1.6-2.3,2-3.6.7-1.9,1.9-5.3,1.3-5.7-2.6-1.7-6.9-4.3-8.4-3.3-5,3.3-9,8.1-13.7,12-2,1.6-4.7,2.4-7,3.5,5-5.7,10-11.4,15-17.1,12.6-10.1,26.3-14.8,41.9-7.8,3.2,1.4,5.9,3.8,8.7,6.7-15.9-.9-27.9,7-39.8,15.2h0Z"/>
        <path class="cls-54" d="M36.3,294c-7-3.4-6-6.9-1.2-12,11.8-12.5,26.7-17.9,43.2-19.8.5.9.8,2.3,1.6,2.6,5,1.6,10.1,3,17.4,5.1-3.2.8-4.1,1-5,1.3-15-.7-30.1-1.8-42.5,9-4.8,4.2-9,9.3-13.5,13.9h0Z"/>
        <path class="cls-110" d="M282.2,445c-4.8-5.7-9.6-11.4-14.5-16.9-6.7-7.6-13.1-15.6-20.7-22.2-3.9-3.4-7.2-5.4-4.9-10.9,9.7,8.3,20.4,15.6,28.6,25.2,5.7,6.7,7.8,16.4,11.5,24.8h0Z"/>
        <path class="cls-17" d="M61.3,406.9c-.7,4-.9,8.2-2.1,12.1-3.7,12.1-7.7,24-11.4,35.4-.4-1.3-1.8-4.9-2.4-8.5-.5-3.2,0-6.6-.3-9.9,0-.4-1.2-.6-1.9-1-.3-13.8,8.3-27.2,18-28.1h0Z"/>
        <path class="cls-61" d="M135.3,137.1c-1.7,4.9-3.6,9.7-5,14.7-8.1,28.6-16.2,57.3-24.2,86-1.3,4.8-2.6,9.5-3.9,14.3h-2.9c1.3-6.7,2.3-13.4,3.8-20,6.8-30,13-60.2,27.8-87.7,1.3-2.5,2.9-4.8,4.4-7.2h0Z"/>
        <path class="cls-23" d="M90.4,474c-4.7,0-9.6,1.1-14.1,0-7.8-1.7-9.4-7.8-4.5-14.6,2.4-1.9,4.9-3.9,7.6-6,5.9,5.5,17.6,8,11,20.6h0Z"/>
        <path class="cls-109" d="M112.2,423.9c3.4-.6,6.7-1.1,9.7-1.6-2.1,8.6-16.2,15.5-27.1,10.9-6.4-2.7-11.9-7.6-17.3-12.1-1-.9.4-4.7.7-7.1,5.5,3.7,10.6,8.7,16.6,10.6,5.2,1.6,11.5-.3,17.3-.6h0Z"/>
        <path class="cls-123" d="M145.1,400.2c2.8-1.2,5.6-2.4,7.6-3.3-2.1-4.7-4.8-10.8-7.4-16.9,7,6.2,14,12.4,21.1,18.6,10.5,9.1,23.4,7.5,35.9,7.5-13.6-.5-27.2-.7-40.8-1.7-5.5-.4-10.9-2.7-16.3-4.1h0Z"/>
        <path class="cls-97" d="M92.2,271c.9-.2,1.8-.5,5-1.3-7.2-2.1-12.3-3.5-17.4-5.1-.7-.2-1-1.7-1.6-2.6,12.8,2.3,25.6,4.7,38.5,6.8,2.1.3,4.3-.6,6.5-1,2,7.3-1.7,11.2-8.7,9.3-7.5-2-15-4.2-22.4-6.3v.2Z"/>
        <path class="cls-16" d="M93.4,284c.7,1.4,1.9,2.7,1.9,4.1.3,18.1,0,36.2.8,54.3.7,17,7.4,31.9,19.2,44.4.5.5.7,1.5,1,2.2-17.5-13-23.1-31.8-23.8-52.1-.6-17.6.6-35.2,1-52.9h0Z"/>
        <path class="cls-18" d="M35.2,306c3.4-.3,6.8-.5,11-.9.2.7.9,3,1.7,5.4.2-1,.4-1.9.6-2.9,1.9,8.9-4.2,16.1-13,14.9-.9,0-2.3-2.9-2.2-4.4.3-4.1,1.2-8.1,1.9-12.2h0Z"/>
        <path class="cls-6" d="M6.2,310.1c.7-2.1,1.4-4.3,2.1-6.6,5.6,10.1,12.5,11.3,22.9,4.5-1.7,3.3-3.3,6.6-5,9.9-7.8,5.7-16.7,2.3-20.1-7.8h0Z"/>
        <path class="cls-78" d="M121.2,436.9c-.3-.7-1-1.6-.7-2.1,4.6-8.4,9.2-16.8,14.1-25,.7-1.1,2.2-1.7,3.4-2.6,0,.3.2.6.4.8-2.3,11.6-7.1,21.8-17.1,28.9h0Z"/>
        <path class="cls-32" d="M256.1,373.9c2-2.7,4-5.4,6-8.1,0,4.1,2.4,10.1-6,8.1Z"/>
        <path class="cls-83" d="M987.9,542.9c-10.8,20-24.3,37.7-43.2,50.8-.6-.3-1.4-1.1-1.9-.9-11,4.5-22.1,9.1-33,13.8-.5.2-.7,1.4-1,2.2-3.3,1.3-6.7,2.7-10,4,13.2-18,26.5-36.1,39.7-54.1,14.7-5.4,29.3-10.8,44-16.1,1.5-.6,3.5,0,5.3.2h0Z"/>
        <path class="cls-10" d="M987.9,542.9c-1.8,0-3.8-.8-5.3-.2-14.7,5.2-29.4,10.7-44,16.1,4.4-8.9,8.9-17.9,13.3-26.8,17-6.4,34-12.7,51-19.1-5,10-9.9,20-14.9,30.1h0Z"/>
        <path class="cls-18" d="M1002.9,512.9c-17,6.4-34,12.7-51,19.1,3.7-14.9,16-19.1,28.5-23,6.3-1.9,12.7-3.7,19.2-4.7,1.5-.3,3.6,2.4,5.4,3.7-.7,1.6-1.4,3.3-2.1,4.9h0Z"/>
        <path class="cls-89" d="M948.6,521.7c5.7-19,11.4-38,17.1-56.9,1-.6,2.1-1.3,3.1-1.9-6.3,20.4-12.6,40.8-18.9,61.2-.5-.8-.9-1.6-1.4-2.4h0Z"/>
        <path class="cls-106" d="M1009.9,502.1c-.4-.8-.9-1.5-1.3-2.3,4.1-12.3,8.3-24.6,12.4-36.8.5.2,1,.3,1.5.5-4.2,12.9-8.4,25.8-12.6,38.7h0Z"/>
        <path class="cls-140" d="M968.8,463c-1,.6-2.1,1.3-3.1,1.9,1.2-6.5,2.2-12.9,3.7-19.3.3-1.4,2.2-2.4,3.4-3.6-1.3,7-2.6,14-3.9,21h0Z"/>
        <path class="cls-11" d="M26.3,569.8c-.5-1.2-.7-2.9-1.6-3.5-9.2-6.4-19.9-11.4-23.5-23.4.6-7.7,7-11.4,13.9-8.1,3,1.4,6,2.7,9,4.1.5,2.1.5,4.4,1.6,6.2,6.1,10.3,12.4,20.4,18.6,30.6-6-2-12-4-18-5.9h0Z"/>
        <path class="cls-11" d="M143,587c11,17.5,23.1,33.8,43.3,41.7,0,.4,0,.8,0,1.2-6.7-2.3-13.5-4.7-20.2-7,.9-.2,1.8-.4,4.5-1-4.5-2.5-7.6-5.5-11-6-11.1-1.7-19.5-7.3-27.3-15-5-4.9-4.2-7.6,1.7-10.1,3-1.3,6.1-2.5,9.1-3.8h0Z"/>
        <path class="cls-4" d="M110.3,601.8c-6-2.7-12-5.3-18-8-12.8-9.4-23.5-20.6-30.3-35.1-2.9-6.1-4.9-12.7-7.3-19.1.8-.3,1.6-.7,2.4-1,1.2,2.5,2.6,5,3.5,7.6,8.6,23.9,23.2,42.3,47.6,51.8,1,.4,1.4,2.5,2.1,3.7h0Z"/>
        <path class="cls-28" d="M44.4,575.7c-6.2-10.2-12.5-20.3-18.6-30.6-1-1.8-1.1-4.1-1.6-6.2.6-.9,1.1-1.8,1.7-2.7.6,1.1,1.3,2.2,1.8,3.3,4.9,10.1,9.5,20.3,14.7,30.2.9,1.8,4.1,2.3,5.8,3.9.9.9.7,2.9,1.1,4.5-1.6-.7-3.2-1.5-4.8-2.2v-.2Z"/>
        <path class="cls-19" d="M778.9,648.8c15-20.7,30-41.3,45-62,5.6-2,11.2-3.8,16.7-5.9,2.7-1.1,5.3-2.5,7.8-4.1,3.6-2.2,6.8-5.7,10.7-6.7,5.4-1.4,11.2-1,16.8-1.3-10.9,24.2-26.4,45.1-47,62-.9,0-2,0-2.8.3-13.6,5.8-27.2,11.7-40.8,17.4-1.8.8-4.2.2-6.4.2h0Z"/>
        <path class="cls-13" d="M752.9,661.8c-1.8,0-3.7-.5-5.3,0-10.3,3.8-20.5,7.9-32,10.5,7.7-9.6,15.4-19.1,23.1-28.7,6.1-8.6,12.2-17.2,18.3-25.8,10.3-4.3,20.3-9.4,30.9-12.6,4.8-1.5,12-6.9,15.8,2.5-13.2,21.6-28.2,41.4-50.8,54.1Z"/>
        <path class="cls-104" d="M836.9,633.8c19.2-18.2,33.4-40,45.9-63,9.3-1.6,18.6-3.2,27.9-4.6,5.8-.9,11.6-1.4,17.4-2.2-11.7,14.6-23.5,29.2-35.2,43.8-11.7,5.6-23.5,11.2-35.2,16.8l1.4,1.4c-7.4,2.6-14.8,5.2-22.2,7.8h0Z"/>
        <path class="cls-34" d="M928,564c-5.8.7-11.6,1.3-17.4,2.2-9.3,1.4-18.6,3.1-27.9,4.6,3.1-6.5,6.2-13.1,9.3-19.6,16.6-5.1,33.2-10.2,49.8-15.3-4.6,9.4-9.2,18.8-13.8,28.1Z"/>
        <path class="cls-17" d="M803.7,607.7c-3.8-9.4-11-3.9-15.8-2.5-10.6,3.3-20.6,8.3-30.9,12.6,4.7-9,9.3-17.9,14-26.9,3.8-1.1,7.6-2,11.4-3.2,13.2-4.3,26.3-8.6,39.5-12.9-6.1,11-12.1,21.9-18.2,32.9Z"/>
        <path class="cls-97" d="M875.9,568.8c-5.6.3-11.5,0-16.8,1.3-3.9,1-7.1,4.5-10.7,6.7-2.5,1.5-5.1,3-7.8,4.1-5.5,2.1-11.2,4-16.7,5.9,2.7-5.6,5.5-11.2,8.2-16.8,17-5.7,34-11.4,51-17.1-2.4,5.3-4.8,10.6-7.2,15.9h0Z"/>
        <path class="cls-18" d="M821.9,574.8c-13.2,4.3-26.3,8.7-39.5,12.9-3.8,1.2-7.6,2.1-11.4,3.2,2.9-11.1,10.9-15.2,21.5-17.2,11.6-2.2,22.9-5.9,34.4-9-.6,1.7-1.2,3.4-1.7,5.1-1.1,1.6-2.1,3.3-3.2,4.9h0Z"/>
        <path class="cls-15" d="M883.1,552.9c-17,5.7-34,11.4-51,17.1,1.4-12.8,12.5-16,21.6-19,10.2-3.4,21.5-3.6,32.3-5.1-.9,2.3-1.9,4.7-2.8,7h0Z"/>
        <path class="cls-114" d="M778.9,648.8c2.1,0,4.5.5,6.4-.2,13.7-5.7,27.2-11.6,40.8-17.4.8-.4,1.9-.2,2.8-.3-19,8.4-37.9,16.8-56.9,25.2,2.3-2.4,4.6-4.8,6.8-7.2h0Z"/>
        <path class="cls-97" d="M908.9,608.9c.3-.7.4-1.9,1-2.2,11-4.7,22-9.3,33-13.8.4-.2,1.2.6,1.9.9-12,5.1-23.9,10.1-35.9,15.2h0Z"/>
        <path class="cls-62" d="M859.1,626l-1.4-1.4c11.7-5.6,23.5-11.2,35.2-16.8-11.3,6.1-22.5,12.1-33.8,18.2h0Z"/>
        <path class="cls-74" d="M978.9,585.9l-.6-.8c10.5-5.1,21-10.3,31.4-15.4-10.3,5.4-20.6,10.8-30.8,16.1h0Z"/>
        <path class="cls-122" d="M825.1,569.9c.6-1.7,1.2-3.4,1.7-5.1,4.4-11,8.8-22,13.2-32.9.4.4.8.7,1.1,1.1l-15,39-1-2h0Z"/>
        <path class="cls-59" d="M325.2,673.8c-20.2-8.8-40.6-17.4-60.6-26.7-3.8-1.7-6.3-6.1-9.4-9.3,12.6,5.4,25.2,10.8,37.8,16.2,9,4.3,18.1,8.7,27.1,13,1.7,2.2,3.4,4.5,5.1,6.7h0Z"/>
        <path class="cls-85" d="M320.1,667c-9-4.3-18.1-8.7-27.1-13-.7-2-1.4-4.1-2.1-6.1,19.3,9.1,38.5,18.3,57.7,27.5,1.7.8,3.2,2.2,4.8,3.4-2.7,8.4-6.7,1.3-10.2.9-7.7-4.2-15.4-8.4-23.2-12.7h0Z"/>
        <path class="cls-125" d="M290.9,648c.7,2,1.4,4.1,2.1,6.1-12.6-5.4-25.2-10.8-37.8-16.2-2.3-2-4.7-3.9-7-5.9-1.3-1.8-2.6-3.7-4-5.5.3-.4.6-.8.9-1.3,15.3,7.6,30.6,15.2,45.8,22.9h0Z"/>
        <path class="cls-113" d="M244.1,651c-4.3-7.1-8.6-14.2-12.9-21.2,6.7,5.7,13.4,11.3,20.1,17,.5,0,1,0,1.6.2,7.2,4.4,14.5,8.8,21.9,13.4-11.7,2-21.1-4-30.7-9.3h0Z"/>
        <path class="cls-29" d="M320.1,667c7.7,4.2,15.4,8.4,23.2,12.7-6-2-12-3.9-18-5.9-1.7-2.2-3.4-4.5-5.1-6.7h0Z"/>
        <path class="cls-75" d="M292.2,494.1c-3.6-1-7.2-2-10.9-3,1.1-3.7,1.1-8.8,3.6-10.9,14.6-12.4,29.4-24.9,45.1-35.7,4.7-3.2,12.9-1.3,19.5-1.7-2.8,5.3-4.3,12.2-8.5,15.8-13.9,11.7-28.8,22.3-43.3,33.2-1.9.8-3.8,1.5-5.6,2.3h0Z"/>
        <path class="cls-143" d="M312,581.9c-14.6-6-29.3-12-43.9-18,6.7,1.7,13.4,3.5,23.1,5.9-9.1-3.7-16.2-5.4-21.7-9.2-4.7-3.3-7.5-9.2-11.1-13.9,9.6,4.7,19.2,9.4,28.7,14.2,12,4.7,24,9.3,36,14,14.7,5.1,29.5,9.9,44.1,15.4,2.1.8,3.2,4.4,4.8,6.7-2.6,0-5.1-.2-7.7-.3l-6.1-2.9c-15-5.5-27.1-22.3-46.2-11.8h0Z"/>
        <path class="cls-114" d="M322.9,640.1c-26.2-13.3-52.5-26.5-78.7-40-4.7-2.4-9.4-5.5-7-11.8,23.2,11.2,46.1,22.3,69.1,33.4,1,1.1,1.8,2.5,3,3.3,4.5,3.1,9.3,5.9,13.5,9.3,1,.8,0,3.8,0,5.8h0Z"/>
        <path class="cls-143" d="M371.3,642.7c-1.8,1.8-3.5,3.5-5.3,5.3-3.6-2.3-7.3-4.6-10.9-6.9-2.5-3-4.6-6.5-7.6-9-18.3-14.8-40-23.3-61.4-32.3-10.7-4.5-20.7-10.5-31.1-15.8-3.3-4-6.7-8-10-12,28.8,14.6,58,28.7,86.4,44.1,14,7.6,26.7,17.6,39.9,26.6h0Z"/>
        <path class="cls-62" d="M338.2,663.7c-3.9-1.5-7.9-2.6-11.5-4.5-25.4-12.6-50.8-25.4-76.1-38.1-6.8-3.4-13.4-7.1-12-17.5,3.4,2.2,6.5,4.2,9.6,6.2.9,1.3,1.6,3.2,2.8,3.8,23.5,12.1,47,24.1,70.5,36,6.9,3.5,14,6.6,21.5,10.2-2,1.6-3.4,2.8-4.8,3.9Z"/>
        <path class="cls-91" d="M255,584c10.3,5.3,20.4,11.3,31.1,15.8,21.5,9,43.1,17.4,61.4,32.3,3,2.4,5.1,5.9,7.6,9-33.6-17.1-67.3-34.1-100.9-51.2.3-1.9.5-3.9.8-5.8h0Z"/>
        <path class="cls-92" d="M264,575.1c-5.8-3.7-11.8-7.3-17.4-11.4-1.4-1-1.6-3.5-2.3-5.4,1.6.4,3.4.6,4.9,1.4,14.1,6.9,28.1,14,42.2,21,1.3,1,2.5,2.3,3.9,3,13.8,6.1,27.8,11.9,41.5,18.2,4.4,2,8.3,5.3,12.4,8-6.2-2.1-12.5-4.1-18.7-6.2,1.4,2.5,3.5,3.7,5.3,5.3.6.5.4,1.9.5,2.9-11.4-6-22.7-12-34.1-18,0-.6.4-1.7,0-1.9-11.2-6-22.4-12-33.8-17.8-1.1-.5-2.9.5-4.4.8h0Z"/>
        <path class="cls-110" d="M349.1,609.9c-4.1-2.7-7.9-6-12.4-8-13.7-6.3-27.7-12.1-41.5-18.2-1.5-.6-2.6-2-3.9-3,19.7,6.9,39.5,13.8,59.2,20.9,2.4.9,4.5,2.7,6.7,4.1,10.9,11.5,22.3,22.2,39.2,24,1.6,1.4,3.2,2.7,4.8,4.1,0,2.1,0,4.1,0,6.2-15.9-8.8-31.8-17.6-47.8-26.4-1.4-1.2-2.8-2.5-4.3-3.7h0Z"/>
        <path class="cls-110" d="M376.1,532.9c2.7,2.3,5.4,4.6,8,6.9h0c-7-.6-14-1.3-21-1.9-19.4-7.8-38.9-15.6-58.3-23.3.5-1.4,1-2.8,1.5-4.3,23.3,7.5,46.6,15.1,69.8,22.6Z"/>
        <path class="cls-120" d="M338.2,663.7c1.4-1.1,2.8-2.2,4.8-3.9-7.5-3.6-14.6-6.7-21.5-10.2-23.6-11.9-47.1-23.9-70.5-36-1.3-.7-1.9-2.5-2.8-3.8,25.9,12.9,51.9,25.6,77.8,38.6,13.7,6.9,27.2,14.1,40.6,21.5,2.3,1.3,3.8,4.1,5.7,6.2-.5.7-1.1,1.4-1.6,2.1-10.8-4.8-21.5-9.7-32.3-14.5h-.2Z"/>
        <path class="cls-110" d="M287.3,516.9c8.4,1.8,17.1,2.8,25.1,5.7,14.6,5.2,28.9,11.3,43.2,17.4,2.8,1.2,9.5,2.1,3.6,7.9-15.7-5-31.4-9.9-47.1-14.9-7.3-4.7-14.6-9.4-21.9-14.2-1-.7-1.9-1.3-2.9-2h0Z"/>
        <path class="cls-110" d="M394.8,569.9c-4.7-2-9.3-3.9-14-5.9-5.9-3.1-11.8-6.2-17.7-9.4-.3-.9-.7-1.7-1-2.6,2.9-.4,6.4-1.9,8.8-.9,17.2,7.2,34.1,14.8,51,22.5,2.6,1.2,4.5,4,6.8,6-3.2,0-6.6.5-9.5-.5-8.2-2.8-16.3-6.2-24.4-9.3h0Z"/>
        <path class="cls-110" d="M359.9,565.9c24.1,13,48.1,26,72.2,39-.6,1.1-1.2,2.3-1.8,3.4-6.5-3.2-13.1-6.4-19.5-9.5-7.5,6-12.4-2.6-18.6-4,1-5.7-1.7-8.7-6.9-10.3-2.8-.8-5.6-1.8-8.4-2.7-4.6-2.7-9.2-5.3-13.8-8-1.1-2.7-2.1-5.3-3.2-8h0Z"/>
        <path class="cls-109" d="M272.1,531.9c17.7,7.8,35.6,15.3,53,23.7,2.8,1.4,3.8,6.5,5.7,9.9-3.3,0-6.6.5-9.8,0-3.4-.7-6.5-2.5-9.7-3.8-1-1.1-2-2.3-3.7-4.2h8.4c-2.9-1.5-4.5-2.4-6.1-3.2-10.5-4.8-21.2-9.3-31.5-14.6-2.7-1.4-4.1-5.1-6.2-7.8h0Z"/>
        <path class="cls-114" d="M272.1,531.9c2,2.7,3.5,6.4,6.2,7.8,10.3,5.3,21,9.8,31.5,14.6,1.6.7,3.2,1.6,6.1,3.2h-8.4c1.7,1.9,2.7,3.1,3.7,4.2-3.8-1.2-7.5-2.5-11.3-3.7-2.3-1-4.5-2-6.8-3-10-4.7-20-9.3-29.9-14.2-1.8-.9-3-3-4.5-4.6,2.6-2.5,5-5.3,8.1-7.2.9-.5,3.5,1.8,5.3,2.9h0Z"/>
        <path class="cls-48" d="M376.9,581.9c2.8.9,5.6,1.9,8.4,2.7,5.2,1.5,7.9,4.6,6.9,10.3-18.8-7.6-37.5-15.3-56.3-23-.9-.4-1.4-1.9-2.1-2.9,1.8-1.1,3.5-3,5.3-3.2,1.9-.2,4,1.3,6,2.1,7.6,4.3,15,8.8,22.8,12.7,2.6,1.3,6,.9,9,1.3Z"/>
        <path class="cls-63" d="M367.9,655c6.4,4.3,12.8,8.6,19.2,12.9-1.6,1.1-3.7,3.4-4.6,3-10.9-5.2-21.6-10.8-32.3-16.3,0-.9.3-1.8.4-2.7-1.8-3.4-3.6-6.8-5.5-10.2,7.6,4.4,15.2,8.9,22.7,13.3h0Z"/>
        <path class="cls-94" d="M377.1,596.7c1.1-.4,2.7-1.4,3.3-1,8.4,5.2,16.5,10.7,24.9,15.8,5.8,3.5,11.9,6.5,17.6,10.1,1.5.9,2.1,3.3,3.1,5-2,0-4.3.5-6-.3-4-1.9-7.8-4.4-11.7-6.7-4.7-3.3-9.5-6.5-14.2-9.8-5.7-4.4-11.3-8.8-17-13.1Z"/>
        <path class="cls-73" d="M382.3,542.7c9.8,3.7,19.6,7.3,29.2,11.2,1.4.5,2.1,2.6,3.2,3.9-1.7.5-3.5,1.8-4.9,1.4-8.9-2.6-17.7-5.6-26.5-8.5-2.7-2.1-5.5-4.2-9.4-7.3,4-.4,6.2-.6,8.5-.8h0Z"/>
        <path class="cls-45" d="M346.2,549.8c1.3,2.7,2.6,5.3,3.9,8-.4.7-.7,1.4-1.1,2.1.4,2.3.7,4.7,1.1,7-1.7-.7-3.4-1.3-5-2-7.3-6-14.6-12.1-21.9-18.1,1.6,0,3.3-.2,6.1-.4-2.4-2-3.9-3.2-5.3-4.4,5.7,1.6,11.4,3.2,17,4.9,1.7,1,3.4,1.9,5.2,2.9Z"/>
        <path class="cls-33" d="M377.1,596.7c5.7,4.4,11.3,8.8,17,13.1-2.2-.6-4.5-1.1-6.7-1.7l-.6,1.3c3.1,2.1,6.2,4.3,9.4,6.4-1.7,1.4-3.4,2.8-5.1,4.2-2-1-4-2-6.1-3.1-2.3-1.7-4.6-3.4-6.8-5.1-6.1-3.6-12.1-7.2-18.2-10.8,1.4-.4,2.7-.8,4.1-1.1,4.9,1.2,10.4,4.8,13.1-3.2h0Z"/>
        <path class="cls-30" d="M312,581.9c19.1-10.5,31.2,6.4,46.2,11.8-1.3,1-2.7,2-4,3.1-14.1-5-28.1-9.9-42.2-14.9Z"/>
        <path class="cls-94" d="M350.6,651.9c0,.9-.3,1.8-.4,2.7-9.1-4.9-18.2-9.7-27.2-14.6,0-2,.9-5,0-5.8-4.2-3.4-9-6.2-13.5-9.3-1.2-.8-2-2.2-3-3.3,10.9,6.1,21.9,12.1,32.8,18.2,3.8,4,7.6,8.1,11.4,12.1h0Z"/>
        <path class="cls-77" d="M341.1,546.9c-5.7-1.6-11.4-3.2-17-4.9-7.4-2.7-14.7-5.3-22.1-8-6.7-4.1-13.4-8.1-20.2-12.2.3-.5.5-1.1.8-1.6,5.6,2.5,11.1,5,16.7,7.5,4.3,1.8,8.6,3.6,12.8,5.4,15.7,4.9,31.4,9.9,47.1,14.9-4.3-.4-8.6-.9-12.9-1.2-1.7,0-3.5,0-5.2.2h0Z"/>
        <path class="cls-72" d="M293.2,554.9c2.3,1,4.5,2,6.8,3,1,1.6,1.6,3.9,2.9,4.5,7.6,3.5,15.3,6.6,23.6,10.1-1.6,1.1-2.5,1.7-3.4,2.3-12-4.7-24-9.3-36-14-1.1-1.7-2.2-3.5-3.2-5.1,2.9-.3,6.1-.5,9.3-.8h0Z"/>
        <path class="cls-81" d="M251.3,646.8c-6.7-5.7-13.4-11.3-20.1-17-1.7-5.3-3.4-10.6-5.2-15.8.6-2.4,1.1-4.8,2-8.9,1.7,3.1,2.4,4.5,3.2,5.8,2.2,14.5,10.2,25.7,20,36h0Z"/>
        <path class="cls-60" d="M396.3,629.7c-16.8-1.9-28.2-12.6-39.2-24,6.3,2.8,12.5,5.6,18.8,8.3,2.7,1.7,5.4,3.4,8,5.1,4.1,3.5,8.2,7.1,12.4,10.6Z"/>
        <path class="cls-30" d="M258.3,546.7c3.6,4.7,6.5,10.6,11.1,13.9,5.5,3.9,12.5,5.5,21.7,9.2-9.6-2.5-16.4-4.2-23.1-5.9-5.5-3.1-11.1-5.9-16.3-9.3-1.5-1-2.8-3.8-2.5-5.6,1.1-7.3,4.9-6.1,9.1-2.3h0Z"/>
        <path class="cls-29" d="M299.2,527.7c-5.6-2.5-11.1-5-16.7-7.5-.3.5-.5,1.1-.8,1.6,6.7,4.1,13.4,8.1,20.2,12.2-1.8-.4-3.7-.9-6-1.4.5,1.5.8,2.4,1.1,3.3-7.6-3.9-15.1-7.8-24.4-12.6,6.2-2.8,10.4-4.6,14.6-6.4,1,.7,1.9,1.3,2.9,2,3,2.9,6.1,5.9,9.1,8.8h0Z"/>
        <path class="cls-26" d="M255,584c-.3,1.9-.5,3.9-.8,5.8-4.7-2.7-10.2-4.7-13.8-8.5-1.8-1.9-.2-7,0-10.7,1.6.4,3.2.9,4.7,1.3l10,12h0Z"/>
        <path class="cls-27" d="M391.1,648.7c5.3,3.6,10.5,7.1,15.8,10.7-1,1.4-1.9,2.8-2.9,4.2-9.3-6.9-18.7-13.8-28-20.7,5,2,10.1,3.9,15.1,5.9h0Z"/>
        <path class="cls-100" d="M264,575.1c1.5-.3,3.4-1.4,4.4-.8,11.3,5.8,22.5,11.8,33.8,17.8.2,0,0,1.2,0,1.9-12.7-6.3-25.4-12.6-38.1-18.9h0Z"/>
        <path class="cls-81" d="M297.1,536c-.3-.9-.6-1.8-1.1-3.3,2.3.5,4.1,1,6,1.4,7.4,2.7,14.7,5.3,22.1,8,1.4,1.2,2.9,2.4,5.3,4.4-2.9.2-4.5.3-6.1.4-8.7-3.6-17.4-7.2-26.2-10.8h0Z"/>
        <path class="cls-66" d="M349.1,609.9c1.4,1.2,2.8,2.5,4.3,3.7-3.5-1.3-7.1-2.6-10.6-3.9-.2.4-.4.9-.6,1.3,3.3,2.3,6.6,4.6,9.9,6.9,1,2.3,2,4.6,3,7-6.3-4.4-12.7-8.7-19-13.1,0-1,0-2.4-.5-2.9-1.8-1.6-3.8-2.8-5.3-5.3,6.2,2.1,12.5,4.1,18.7,6.2h0Z"/>
        <path class="cls-4" d="M391,620c1.7-1.4,3.4-2.8,5.1-4.2,3.6,1.7,7.3,3.4,10.9,5.1l.8,4.9c-1.8,0-3.9.7-5.5,0-3.9-1.6-7.5-3.8-11.3-5.8Z"/>
        <path class="cls-53" d="M345.1,564.9c1.7.7,3.4,1.3,5,2,4.3,2.4,8.6,4.7,13,7.1,4.6,2.7,9.2,5.3,13.8,8-3-.4-6.4,0-9-1.3-7.8-3.9-15.2-8.4-22.8-12.7v-3h0Z"/>
        <path class="cls-126" d="M363.1,573.9c-4.3-2.4-8.6-4.7-13-7.1-.4-2.3-.7-4.7-1.1-7,3.6,2,7.2,4,10.9,6.1,1.1,2.7,2.1,5.3,3.2,8Z"/>
        <path class="cls-127" d="M407,620.9c-3.6-1.7-7.3-3.4-10.9-5.1-3.1-2.1-6.2-4.3-9.4-6.4l.6-1.3c2.2.6,4.5,1.1,6.7,1.7,4.7,3.3,9.5,6.5,14.2,9.8-.4.4-.8.8-1.3,1.2h0Z"/>
        <path class="cls-13" d="M382.3,542.7c-2.3.2-4.5.4-8.5.8,3.9,3,6.7,5.1,9.4,7.3-6.7-4.3-13.4-8.6-20.1-12.8,7,.6,14,1.3,21,1.9-.6,1-1.2,1.9-1.9,2.9h0Z"/>
        <path class="cls-5" d="M391.1,648.7c-5-2-10.1-3.9-15.1-5.9-1.6-2.4-3.2-4.8-4.8-7.2l22.8,10.2c-1,1-1.9,1.9-2.9,2.9Z"/>
        <path class="cls-141" d="M354.2,596.8c1.3-1,2.7-2,4-3.1l6.1,2.9c0,1.1-.2,2.2-.3,3.3-1.4.4-2.7.8-4.1,1.1-1.9-1.4-3.9-2.8-5.8-4.2h0Z"/>
        <path class="cls-115" d="M350.6,651.9c-3.8-4-7.6-8.1-11.4-12.1,2,.6,4,1.3,6,1.9,1.8,3.4,3.6,6.8,5.5,10.2h0Z"/>
        <path class="cls-12" d="M384,619c-2.7-1.7-5.4-3.4-8-5.1.7-.7,1.4-1.4,2.1-2.1,2.3,1.7,4.6,3.4,6.8,5.1-.3.7-.6,1.4-.9,2.1Z"/>
        <path class="cls-88" d="M515.1,287.1c20.2-4.1,40.3-8.3,60.5-12.1,2.6-.5,5.6,1.8,8.4,2.8-3.4,3.8-7.5,7.3-10.1,11.6-11.2,18.5-22.3,37.1-32.8,56-27.4,49.1-54.6,98.3-81.6,147.5-1.8,3.2-1.1,7.9-1.5,11.8-2.6,4.1-5.3,8.3-7.9,12.4-.4-.2-.8-.4-1.2-.5,17-62,33.9-123.9,50.8-185.7.7-3.8,1.5-7.6,2.3-11.8-11.6,2.7-23.7,4.9-35.3,8.7-9.7,3.2-21.6.7-28.9,10.4-.7-3.9-3.1-8.5-1.9-11.6,8.4-20.8,16.5-41.8,26.7-61.7,27.6-53.9,56.1-107.3,84.4-160.8,3.1-5.9,7.2-11.4,12.1-16.5-1.7,4.5-3.3,9-5,13.4-2.3,4.7-5.3,9.3-6.8,14.3-6.6,21.8-13.4,43.6-19,65.6-8.1,32.1-15.2,64.4-22.9,96.7-1.8,7.7,1.7,11.3,9.7,9.6h0Z"/>
        <path class="cls-43" d="M458,504.8c.4-4-.3-8.6,1.5-11.8,27-49.3,54.2-98.5,81.6-147.4,10.6-18.9,21.6-37.5,32.8-56,2.6-4.3,6.7-7.8,10.1-11.6-.8,4.4-.6,9.5-2.7,13.2-25.9,46.4-52.1,92.8-78.6,138.8-14.5,25.2-29.8,49.9-44.7,74.8Z"/>
        <path class="cls-51" d="M515.1,287.1c-8.1,1.7-11.6-1.9-9.7-9.6,7.6-32.2,14.7-64.6,22.9-96.7,5.6-22.1,12.4-43.8,19-65.6,1.5-5,4.5-9.5,6.8-14.3-6.4,26.3-13,52.6-19,79-7.5,32.7-14.5,65.6-21.5,98.4-.6,2.7.9,5.9,1.5,8.8h0Z"/>
        <path class="cls-57" d="M437.8,338.2c7.3-9.7,19.2-7.2,28.9-10.4,11.6-3.8,23.7-6,35.3-8.8-.8,4.3-1.6,8-2.3,11.8-1.7-.8-3.6-2.7-5-2.4-16.2,3.5-32.3,7.3-48.5,10.7-2.6.6-5.6-.6-8.5-1h0Z"/>
        <path class="cls-23" d="M300,284.7c1.3-.5,2.9-1.7,4-1.4,6.1,1.7,11.9,4.5,18,5.7,11.9,2.4,27.4-6.4,31.5-17.8.6-1.7-1.5-5.5-3.4-6.8-6.7-4.7-10-10.7-8.4-18.8,1.6-8.3,7.8-12,15.5-13.4,6.3-1.2,16.2,5.9,15.5,12.1-.4,3.1-4.4,6.8-7.7,8.3-2.4,1.1-6.2-1.1-10.7-.4,3.3,2.9,6.6,5.9,9.9,8.8-1.5,4.7-2.5,9.6-4.5,14-7.7,16.9-28.2,25.5-47.2,19.8-5.3-1.6-13.3-.6-12.4-10.1h0Z"/>
        <path class="cls-112" d="M300,284.7c-.9,9.5,7.2,8.5,12.4,10.1,19.1,5.7,39.5-2.9,47.2-19.8,2-4.4,3-9.3,4.5-14,3.3,1.5,6.6,2.8,9.8,4.4,4.9,2.4,9.7,4.9,16,8.1-3.3,1.5-6.5,2.8-9.7,4.3-5.1,2.5-11.1,4-15,7.7-15.6,14.7-33,22-54.6,17.3-15-3.3-15.2-3.1-10.7-18h0Z"/>
        <path class="cls-143" d="M152.2,121.9c-4.4,3.3-8.8,6.6-13.2,10,6.3-6.1,11.8-13.7,19.1-18.2,27.8-17.1,77.1-14.5,101.3,4.7-9.9-1.5-19.4-3-29-4.5-10.8-3.3-21.7-6.6-32.5-9.8-.2.8-.5,1.6-.7,2.4,5.9,2,11.8,3.8,17.6,6,1,.4,1.5,2.3,2.2,3.5-15.4,7-29.1-3.6-44-3.7,1,.3,2.1.7,3.1,1-8,2.9-15.9,5.8-23.9,8.7h0Z"/>
        <path class="cls-48" d="M152.2,121.9c8-2.9,15.9-5.8,23.9-8.7,8.2,2.3,16.4,4.6,25.7,7.1-2.3,1.6-3.5,2.6-4.8,3.5l-11.6,5.3c-9.8-1.7-19.7-3.3-29.5-5.1-1.3-.2-2.4-1.4-3.7-2.1Z"/>
        <path class="cls-60" d="M396.1,247.1c3.4,6.5,4.1,13.5-2.6,17.6-5.1,3.2-12.2,3.3-15.4-3.4-1.4-3,.5-7.5.9-11.4.2.8.5,1.5.8,2.4l2.3-2.3c.4,1,.7,2.1,1.1,3.1.4,1.9.7,3.7,1.1,5.6,5.7-2.1,12.1-3.5,11.9-11.7h0Z"/>
        <path class="cls-109" d="M382.1,250l-2.3,2.3c-.3-.9-.5-1.7-.8-2.4-1.1-6-2.2-11.9-3.5-18.6,5.4-1.7,10.9,0,14.6,6.8-2.7,4-5.3,8-8,12h0Z"/>
        <path class="cls-110" d="M396.1,247.1c.2,8.1-6.2,9.5-11.9,11.7-.4-1.9-.7-3.7-1.1-5.6,2.6-4.4,5.3-8.8,7.9-13.1,1.7,2.3,3.3,4.7,5,7h0Z"/>
        <path class="cls-59" d="M217,115.9c-.7-1.2-1.2-3.1-2.2-3.5-5.8-2.2-11.7-4-17.6-6,.2-.8.5-1.6.7-2.4,10.8,3.3,21.7,6.6,32.5,9.8-4.5.7-8.9,1.3-13.4,2h0Z"/>
        <path class="cls-77" d="M185.3,129.2l11.6-5.3,2.4,1.3c-3.7,2-7.4,4-11.1,6-1-.7-1.9-1.3-2.9-2Z"/>
        <path class="cls-102" d="M391.1,240.1c-2.6,4.4-5.3,8.8-7.9,13.1-.4-1-.7-2.1-1.1-3.1,2.7-4,5.3-8,8-12,.3.7.7,1.3,1,2Z"/>
        <path class="cls-88" d="M608.2,663.8c-8.7-2.7-12.5-8.5-13.6-17.5-.4-3.4-4.5-7.3-7.9-9.1-7.9-4.1-9.3-9.7-7.4-17.8.7-3,0-7.8-2-9.8-11.2-10.9-11.9-17.8-1.5-28.8.7-4.5,1.2-9.1,2-13.6.6-3.3.6-7.3,2.5-9.8,3.8-5.3,8.6-9.9,13.1-14.6,1.4-1.5,2.9-3.2,4.7-4,7-3.2,13.9-7.9,21.2-8.8,9.9-1.2,23.6-3.3,29.7,1.9,14.5,12.3,35.6,19.2,40.2,41.5.6,3.1,4.9,5.3,6.9,8.3,1.5,2.3,3.4,5.4,2.9,7.7-1.9,8.8-1.3,16.8,4.4,24.1.8,1.1.7,3.2.5,4.8-1.5,11.8-3,23.7-4.9,35.4-.3,1.9-1.9,3.7-3.3,5.2-3.5,3.7-7.3,7.2-11,10.7-1,.9-2.2,1.8-3.5,2.4-3.9,1.9-7.8,4.2-11.9,5.3-4,1.1-8.3.8-12.4,1.2-4.1.3-8.3.5-12.4.9-2.7.3-6,2.1-7.8,1.1-9.7-5.1-19-11-28.4-16.6h0ZM585.5,584.9c1.3,2,2.2,4.5,4,5.7,1.4,1,3.9.7,6,.6,2,0,4-.7,6.1-1,0,2.2,0,4.4.4,6.6.7,3.4.9,7.6,3,9.8,1.6,1.7,6,1.4,9,.8,1.6-.3,2.9-2.8,3.9-3.9-4.2.4-7.9.7-11.6,1.1,0-3.5.3-7,0-10.4-.2-2.1-1-4.4-2.2-6.2-1.5-2.2-3.7-4-7.2-7.8-1.9-.4-1.1,19.8-11.3,4.6h0ZM681.5,600c-4.4,2-11,5.5-11.4,5-5.9-9,1.3-13.3,7.6-17.7-4.6-1.9-13,6-13,12.6s1.4,7.1,3.7,8.9c1.7,1.4,6.6.8,8.5-.7,2.5-2,3.4-5.9,4.6-8.1h0ZM629.9,647.4c-.4,5.4-1.5,10.5-.6,10.9,4,1.7,8.5,2.2,12.9,2.8,1.7.2,3.5-.8,5.3-1.1,2.1-.3,4.7.3,6.1-.8,1.7-1.4,2.4-4,3.6-6.1-4.8,6.2-8.9,6.7-12.6,1.8-3.7,1.8-6.8,3.2-9.8,4.7-1.2-2.9-2.4-5.9-4.9-12.2h0ZM605.3,642.5c0,.3-1.3,2.4-.9,2.8,2.6,2.3,7.4,6.5,8,6,3.4-2.8,5.7-6.8,8.3-10.5,0,0-1.2-1.3-1.9-1.9-.6.8-1.2,1.6-1.8,2.4-1.6,2.3-3.1,4.6-4.7,6.8-2.2-1.8-4.5-3.6-7.1-5.6h0ZM630.6,564.9c-3.4,4.4-5.8,6.7-7.1,9.5-.7,1.4.3,3.7.6,5.6,2.7-.7,5.3-1.6,8-2.1,2-.4,4-.5,7.3-.8-2-2.5-3.6-4.6-4.8-6-1.8,2.4-3.1,4.3-4.6,5.9-.2.2-2.7-1-2.6-1.2.6-2.6,1.4-5.1,3.2-10.7v-.2ZM598.1,618.1c-.6,4.3-2.3,8.4-1.1,9.7,2,2.1,6.3,3.7,9.1,3,2-.5,3-4.9,5.3-9-4.3,3.2-6.7,5-9.1,6.8-1.1-2.8-2.2-5.6-4.1-10.5h0ZM601.2,546.4c-7.5,1.7-2,9.4-3.1,16.1,2.7-2.2,4.6-3.5,6.1-5.1.4-.4,0-1.9-.3-2.8-.7-2.2-1.5-4.4-2.8-8.2h0ZM625.5,621.8c-.5,4.2-1.5,7.5-.9,7.9,3.2,1.8,6.8,3.8,10.3,3.9,1.9,0,4-3.3,5.9-5.1-8,4.4-11.8,3.5-15.3-6.6h0ZM633.8,540.5c.7.3,1.4.7,2.1,1-2.3,1.1-5.9,1.7-6.5,3.4-.8,2.5-.2,6.2,1.2,8.5.7,1.2,4.4.7,6.5.9-2.3-3.1-4.7-4.9-5.3-7.3-.5-1.9,1.2-4.3,1.9-6.5h0ZM666.8,627.5c-1.6,1.2-4.4,2.3-5.2,4.2-1.2,2.7-1.3,6.1-1.2,9.2,0,.7,2.8,1.2,2.6,1.2,1.3-5.1,2.4-9.2,3.7-14.5h0ZM674.4,648.7c-2.1,3.8-4.4,6.1-4.6,8.7,0,1.6,2.6,4.6,4.4,5,2.5.5,5.3-1.1,7.9-1.7-2.7-1-6.5-.4-6.7-1.1-.9-2.6-.6-5.6-.9-10.9h0ZM634.1,598.7c.7,4.7,1.5,9.4,2.2,14.1,3-1,2.3-5.7-2.2-14.1ZM586.8,600.3c-1.4,2.8-2.5,3.9-2.4,5,0,3,.7,6,1.2,9,0,0,2.1,0,2.1,0,0-2.5.2-5.1,0-7.6,0-1.4-.4-2.9-.9-6.4ZM664.5,574.6l-2.5,1.6c2.3,2.8,4.6,5.6,6.9,8.4l1.8-1.4c-2.1-2.9-4.2-5.8-6.2-8.6h0ZM674.8,630.6c1.1.4,2.1.8,3.2,1.2.8-2.9,1.5-5.8,2.3-8.8-.8-.3-1.6-.5-2.3-.8-1,2.8-2.1,5.6-3.1,8.4h0Z"/>
        <path class="cls-36" d="M608.2,663.8c9.4,5.6,18.7,11.4,28.4,16.6,1.9,1,5.2-.9,7.8-1.1,4.1-.4,8.3-.6,12.4-.9,4.2-.3,8.5,0,12.4-1.2,4.1-1.1,8-3.4,11.9-5.3,1.3-.6,2.5-1.4,3.5-2.4,3.7-3.5,7.5-7,11-10.7,1.4-1.5,3-3.3,3.3-5.2,1.8-11.8,3.4-23.6,4.9-35.4.2-1.6.4-3.7-.5-4.8-5.7-7.4-6.3-15.3-4.4-24.1.5-2.3-1.4-5.4-2.9-7.7-2-3-6.3-5.2-6.9-8.3-4.6-22.3-25.7-29.2-40.2-41.5-6.2-5.2-19.8-3.1-29.7-1.9-7.3.9-14.2,5.5-21.2,8.8-1.8.8-3.3,2.5-4.7,4-4.5,4.8-9.3,9.4-13.1,14.6-1.8,2.5-1.9,6.5-2.5,9.8-.8,4.5-1.4,9.1-2,13.6-.9-1-1.8-1.9-2.6-2.9.3-2.7.7-5.4,1-8.2.5-4.7-.5-10.4,1.8-13.9,4.7-7,11.1-12.8,16.9-19.1,1.4-1,2.8-1.9,4.3-2.9,7-3,13.9-6.1,20.9-8.8,2.7-1,5.9-1.4,8.9-1.2,7.2.6,15.1,0,21.3,3,7.8,3.6,14.2,10.1,21.2,15.5,1.4,1.1,2.5,3,4,3.7,10.6,4.6,16.9,12.1,18,23.9,0,1.5,1.3,3.6,2.5,4.2,11,5.3,12.2,13.8,9.3,24.5-.7,2.4,1.3,5.6,2,8.4,4.1,6.1,6,12.1.4,18.5-.7.8-.4,2.6-.5,3.9-.4,8.8-.6,17.7-1.4,26.4-.2,2.1-2.7,4.2-4.4,6-3.6,3.9-7.5,7.6-11.2,11.4-.8.8-1.4,2-2.3,2.5-6.2,3-12.3,6.5-18.8,8.6-3.1,1-7.6.3-10.5-1.4-4.6-2.5-7.8-2.9-12.6,0-2.8,1.7-8.6,1.2-11.7-.6-7.1-4.2-13.4-9.9-20-14.9-1.3-1.2-2.5-2.4-3.8-3.6h-.2Z"/>
        <path class="cls-38" d="M592.8,536.7c-5.7,6.3-12.2,12.1-16.9,19.1-2.3,3.5-1.3,9.2-1.8,13.9-.3,2.7-.7,5.4-1,8.2-1.5.9-3.1,1.8-4.8,2.9-3.9-6.8-7.3-13.2-1-20.6,1.7-2,2.6-5.1,2.9-7.8,1.8-13.1,11.4-19,22.5-24.5v8.8h0Z"/>
        <path class="cls-88" d="M20.5,160.3c5.9-2.1,11.8-4.2,17.7-6.4,5.1-1.2,6-3.4,1.9-7.2-3-2.8-5.8-5.9-8.7-8.8-5.3-6.1-10.7-12.1-15.7-18.5-1.7-2.2-2.5-5.2-3.7-7.9,16.5,14.1,33,28.1,49.2,42.4,1,.9,0,4.1,0,6.2-3.3.8-6.8,1.2-9.8,2.6-2.6,1.2-4.7,3.6-7.1,5.4,3.3,4.8,6.6,9.7,10.1,14.4,5.6,7.5,11.3,14.9,16.9,22.4-1.6-.8-3.6-1.2-4.9-2.4-11.5-10.5-22.8-21.3-34.2-31.8-3.9-3.6-7.9-7-11.9-10.5h.2Z"/>
        <path class="cls-56" d="M20.5,160.3c4,3.5,8,6.9,11.9,10.5,11.4,10.6,22.7,21.3,34.2,31.8,1.3,1.2,3.2,1.6,4.9,2.4-1.8.6-4.4,2.2-5.1,1.6-15.2-13.6-30.3-27.3-45.2-41.3-.9-.9-.4-3.3-.6-5h0Z"/>
        <path class="cls-7" d="M31.5,137.9c2.9,2.9,5.7,6,8.7,8.8,4.1,3.8,3.2,6-1.9,7.2-1.8-2.5-3.5-5.1-5.4-7.6-4.6-5.9-9.2-11.7-13.9-17.5,4.2,3,8.4,6,12.5,9h0Z"/>
        <path class="cls-1" d="M31.5,137.9c-4.2-3-8.4-6-12.5-9-3-5.1-6-10.2-8.9-15.4,0-.2,1.4-1.2,2.1-1.9,1.2,2.6,1.9,5.6,3.7,7.9,5,6.3,10.4,12.3,15.7,18.5h0Z"/>
        <path class="cls-135" d="M44.5,168.2c2.3-1.9,4.4-4.2,7.1-5.4,3-1.4,6.5-1.8,9.8-2.6-5.6,2.7-11.3,5.3-16.9,8Z"/>
        <path class="cls-88" d="M968.8,205c-.2-1.6-1.2-3.8-.5-4.8,6.7-9.7,13.7-19.2,20.6-28.8,1.2-1.7,2.1-3.6,3.1-5.2-7.5-2-14.6-3.7-21.4-5.9-1-.3-2.2-4.3-1.5-5.1,12.7-14.3,25.5-28.4,38.5-42.4,1-1.1,3-1.3,4.5-1.9-.2,1-.3,2.1-.5,3.1-7.5,9.4-15.1,18.8-24.1,29.9,4.5-.7,5.8-.9,7.2-1.1-1.8,2.5-3.6,5.1-5.8,8.1,7.6,2.8,14.8,5.4,21.9,8.1-1,1.3-2,2.6-3.1,3.8-13,14.1-26,28.1-38.9,42.2h0Z"/>
        <path class="cls-117" d="M968.8,205c13-14.1,26-28.1,38.9-42.2,1.1-1.2,2.1-2.5,3.1-3.8,0,2.1.6,5-.5,6.2-12.3,13.3-24.8,26.3-37.4,39.3-.8.8-2.8.4-4.2.6h0Z"/>
        <path class="cls-92" d="M994.7,142.9c-1.4.2-2.7.4-7.2,1.1,9-11.2,16.5-20.5,24.1-29.9-5.6,9.6-11.3,19.2-16.9,28.9h0Z"/>
        <path class="cls-88" d="M653.8,123.8c.6,1.8.7,4.7,1.7,5.2,5.3,2.1,10.9,3.5,16.4,5.1-9.8,12.3-19.6,24.5-29.2,36.9-1.9,2.5-2.5,6-3.7,9.1l-.9,2.8c-1.1-.4-2.2-.9-3.3-1.3,4.1-9.3,8.1-18.7,12.3-28,1.4-3,3.3-5.7,5-8.5-1.7-1.6-3.1-4.2-5-4.6-5.6-1.3-11.4-1.7-17.2-2.5,1.7-3.9,2.7-8.3,5.2-11.6,10.4-13.9,21.2-27.5,31.9-41.3-.7,2.7-.8,5.8-2.1,8.2-4.2,7.5-9.1,14.7-12.9,22.4-1,1.9,1.1,5.3,1.7,8.1h0Z"/>
        <path class="cls-92" d="M639.1,180.2c1.2-3.1,1.8-6.6,3.7-9.1,9.5-12.5,19.4-24.6,29.2-36.9.4.8,1.3,2.1,1,2.5-11.2,14.6-22.5,29.1-33.8,43.5h0Z"/>
        <path class="cls-112" d="M653.8,123.8c-.6-2.7-2.7-6.2-1.7-8.1,3.8-7.7,8.8-14.8,12.9-22.4,1.3-2.4,1.4-5.4,2.1-8.2.8.6,2.3,1.5,2.2,1.7-5.1,12.3-10.3,24.6-15.5,36.9h0Z"/>
        <path class="cls-10" d="M630.1,138.1c5.7.8,11.6,1.2,17.2,2.5,1.9.4,3.4,3,5,4.6-6.2-1.3-12.4-2.5-18.5-4.1-1.4-.4-2.5-2-3.7-3Z"/>
        <path class="cls-110" d="M351.1,138.1c.5-15.9.9-31.8,1.5-47.7,0-1.5,1.1-2.9,1.7-4.4,3.4,11.7,6.7,23.4,10.4,35,.5,1.7,3.1,4.1,4.5,3.9,13.1-1.4,12.6-1.5,12.9,11.9.4,15.4,2,30.7,3,46.1-4.9-9.2-9.6-18.5-14.6-27.7-2.8-5.2-5.7-10.2,3.9-13.3l-2-2.2c-6.7,1.1-13.4,2.2-20.1,3.3-.4-1.6-.7-3.3-1.1-4.9h0Z"/>
        <path class="cls-22" d="M352.2,143.1c6.7-1.1,13.4-2.2,20.1-3.3l2,2.2c-9.6,3.1-6.7,8.1-3.9,13.3,5,9.2,9.8,18.4,14.6,27.7-1.6-.6-3.9-.7-4.5-1.8-4.5-7.9-9-15.8-12.8-24-1.8-3.8-2.1-8.3-2.1-12.5-3.4-5.1-9.3,10.6-13.4-1.7h0Z"/>
        <path class="cls-109" d="M828,156c-3.4-1-6.8-2-10.1-3,10.6-1.3,21.2-2.6,31.8-3.9,3.4-.4,6.8-.7,10.2-1,.6.3,1.3.6,1.9.8-11.3,2.4-22.5,4.7-33.8,7.1h0Z"/>
        <path class="cls-143" d="M814.8,154.2c-6.5,1-13.1,2-19.6,2.9-.3,0-.9-1.3-1.3-2.1,6.4-14,13.7-6.8,20.9-.8h0Z"/>
        <path class="cls-102" d="M363.2,554.7c5.9,3.1,11.8,6.2,17.7,9.4-.6.6-1.3,1.3-1.9,1.9-5.3-3.8-10.5-7.5-15.8-11.3h0Z"/>
        <path class="cls-108" d="M739.9,638.8c-6,6.9-12,13.7-18,20.6,3.3-5.7,6.4-11.5,10.1-16.9,5.5-8.3,11.4-16.4,17.1-24.6,4-7.3,8-14.7,12-22,2.3-4.7,4.6-9.3,7-14,.3.6.6,1.3.9,1.9-9.7,18.3-19.4,36.6-29,54.9h0Z"/>
        <path class="cls-8" d="M768.9,583.8c-.3-.6-.6-1.3-.9-1.9.3-1,.5-2.1.8-3.1,4.8-12.3,9.5-24.5,14.3-36.8.3.6.6,1.2.9,1.8-5,13.3-10,26.7-15,40h0Z"/>
        <path class="cls-107" d="M841.1,532.9c-.4-.4-.8-.7-1.1-1.1,2.5-8.7,5-17.4,7.5-26.1.5.2,1.1.3,1.6.5-2.7,8.9-5.3,17.8-8,26.7h0Z"/>
        <path class="cls-64" d="M783.9,543.8c-.3-.6-.6-1.2-.9-1.8,2.3-8.4,4.6-16.8,6.9-25.2.5,0,.9.3,1.4.4-2.5,8.9-4.9,17.8-7.4,26.6Z"/>
        <path class="cls-24" d="M888,361.9c-8,14.5-17.9,27.4-33.8,33.8-6,2.4-12.5,3.4-18.7,5.3-1.2.4-1.9,2-2.9,3.1.4.9.8,1.8,1.2,2.6h-10c-1-.8-1.9-2-3.1-2.4-9.9-3.8-20.6-6.4-29.7-11.7-7.2-4.2-12.5-11.7-18.5-18-.4-.5.4-3.2,1.3-3.8,11.8-7,16.3-17.8,12.9-31.1-.5-1.8-.8-3.6-.8-5.4.2-6.2,2.8-12.3-7.8-14.3-3.8-.7-6.7-11.3-8.1-17.8-.9-4.1,1.7-8.9,2.8-13.4v5c0,11.6,7.6,16.1,18.8,13.7,10-2.2,20.6-2.6,30.9-2.3,12.2.4,15.5-2.2,14.4-14.3.5,2.1,1.1,4.1,1.6,6.2.6-.3,1.3-.5,1.9-.8.7,1.4,1.5,2.7,2,4.1,1,2.4,1.3,6.6,2.8,7,4.9,1.3,10.2,1.8,15.2,1.4,1.4,0,3.8-5.2,3.2-7.3-2.3-8.3-.4-15.2,4.6-21.9.5-.7-1.6-4.2-3.3-5.4-1.2-.9-3.6,0-4.6,0,1.9-3.2,3.8-6.5,5.9-10.1.5,0,2.2,0,3.8.2,0-1.8.4-3.7-.2-5.2-4.8-11.7-4.7-23.7-3.1-36,.2-1.8-2.5-4.1-3.8-6.1-2-4-4-8.1-6-12.1-.5-6.1-1.1-12.3-1.3-18.4,0-1.2.7-2.9,1.6-3.7,6-5,7.4-10.5,2.9-17.4-3-4.5-5-9.1,3.8-8.5,7.3,26.9,15.1,53.7,21.8,80.9,7,28.6,8.6,57.8,8.2,87.1-2,12.3-4,24.7-5.9,37h0Z"/>
        <path class="cls-93" d="M836.9,291c1.1,12.1-2.2,14.7-14.4,14.3-10.3-.3-20.9,0-30.9,2.3-11.2,2.5-18.7-2-18.8-13.7v-5c3.8-12.4,13.5-20.6,25.5-21.8,13.6-1.3,30.2,7.7,36.2,19.4.7,1.5,1.5,2.9,2.3,4.4h0ZM813.9,298.5c4.6.3,7,1,9.2.6,3.4-.7,6.6-2.1,9.9-3.2-2.3-3.7-3.6-9.1-6.9-10.9-9.9-5.5-27.1.2-32.8,9.8-.7,1.2-1.3,3-.8,4.1.3.8,2.5,1.2,3.8,1.1,6.6-.4,13.3-1,17.7-1.4h0Z"/>
        <path class="cls-136" d="M856.8,205.1c2,4,4,8.1,6,12.1,2.6,17.4-3.2,30.6-18.4,40-18.1,11.2-46.9-5.1-47.4-28.1-.3-16.2,5.4-25.3,21-32.2,16.8-7.5,24.6-5.8,38.8,8.2ZM802.8,225.5c-.2,16.7,11.7,29.5,27.2,29.4,13.8,0,27.7-13.6,27.8-27.1.2-16.9-10.3-30.5-24.4-29.6-15.5,1-31.9,9.4-30.7,27.2h0Z"/>
        <path class="cls-136" d="M785.5,232.7c.2,16.5-12,31.9-25.4,32-18.4,0-32.8-15.2-32.9-34.9,0-14.7,13.5-30.5,26.3-30.5s31.9,14.9,32.1,33.4h0ZM780.6,232.6c0-14.3-12.4-27.5-26.2-27.6-12,0-20.6,10.8-20.6,26.3s10.7,27.5,24.2,27.7c11.8.2,22.5-12.4,22.6-26.5h0Z"/>
        <path class="cls-119" d="M828,156c11.3-2.4,22.5-4.7,33.8-7.1,5.9-1.4,11.8-2.8,19.8-4.8-3.7,2.6-5.7,4.1-7.7,5.5-4.4,1.7-8.8,3.5-13.1,5.2-19.6,2.8-39.2,5.8-58.9,8.2-4.5.6-9.2-.7-13.8-1.2,13.3-2,26.6-3.9,39.9-5.9h0Z"/>
        <path class="cls-9" d="M806.8,198.3c-2.2-.9-5.5-1.5-7.8-3.4-1.6-1.4-1.8-4.4-2.6-6.7,2.2,0,4.4,0,6.5,0,3.7-.4,8,0,11-1.8,5.3-3.2,9.7-8,14.8-11.7,1.2-.9,3.9-.9,5.1,0,1.1.7,2.1,3.8,1.6,4.5-7.3,8.9-15.4,17-28.5,19.4v-.2Z"/>
        <path class="cls-134" d="M767,198.1c-14.1-.4-22.4-7.5-29-16.9-.8-1.2.2-4.5,1.3-6,.6-.7,4-.2,5.3.8,4.8,4,8.8,9,14,12.4,2.8,1.8,7.2,1.1,10.9,1.4,1.7.2,3.5,0,5.3,0-.8,2.1-1.1,4.8-2.6,6.1-1.7,1.5-4.4,1.7-5.2,2v.2Z"/>
        <path class="cls-24" d="M838,268.7c1.6-2.1,2.7-5.2,4.8-6.2,2.2-1,5.3,0,8.1,0-1.8,1.4-3.4,2.9-5.3,4.1-1.9,1.2-3.9,2.2-5.9,3.2-.5-.4-1.1-.7-1.6-1.1h0Z"/>
        <path class="cls-69" d="M863.7,131.7c-2.5-6.5-6-7-10.9-2.2-1.3,1.3-3.6,1.8-5.4,2.5-.3,0-.9-.8-1.3-1.2,1.4-1.3,2.6-3.1,4.3-3.7,3.4-1.3,7.2-2.8,10.7-2.6,1.9,0,3.6,3.7,5.3,5.7-.9.5-1.8,1-2.6,1.5h0Z"/>
        <path class="cls-128" d="M828.5,119.4c-.8,6.6-5.6,10.4-13.9,8.6-.8-.2-1.9-1.1-1.9-1.7s.9-1.8,1.6-2c4.9-1.8,9.9-3.4,14.1-4.8h0Z"/>
        <path class="cls-9" d="M779.1,132.8l-11,5.5c-.8.4-1.9.8-2.6.5s-1-1.4-1.4-2.2c3.4-1.9,6.6-4.4,10.2-5.4,2-.5,4.6,1.5,4.8,1.6h0Z"/>
        <path class="cls-98" d="M854.2,108.1c-2.9,4-5.7,8.1-9,11.7-.5.6-3.5-1.1-3.7-1.1,4-3.8,7.8-7.4,11.6-11,.3,0,.7.3,1,.4h0Z"/>
        <path class="cls-39" d="M252,294.2c0,10.9-8.2,16.3-18.6,14.1-10.4-2.2-21.2-2.1-31.8-3.4-4.2-.5-10.2-1.2-11.7-3.8-1.8-3.1-.8-9.1,1-12.9,8-16.2,26.7-24.3,42.7-19.2,11.3,3.6,18.4,13.3,18.4,25.2h0ZM207.7,299.1v-.5c6.6.6,13.2,1.3,19.8,1.5,1.1,0,3.5-2.8,3.2-3.7-3.6-10.7-24.8-17.1-33.5-9.9-2.4,2-3.1,6.1-4.6,9.2,2.9,1.1,5.7,2.5,8.6,3.2,2,.5,4.3,0,6.5,0v.2Z"/>
        <path class="cls-3" d="M197.3,193c19.1.2,33.3,14.1,33,32.1-.4,20.6-15,35.7-34.2,35.3-16.2-.3-31.3-15.5-31-31.2.4-20.3,14.8-36.5,32.2-36.2ZM223,233.7c4.2-6.7,2.9-17.8-3-24.4-8.9-10-21.2-13.4-32.4-9-10,3.9-17.1,15.7-16.9,28.2.2,14.3,11.8,26,26.5,26.6,12.3.5,24.7-9.8,26-21.6v.2h-.2Z"/>
        <path class="cls-80" d="M239.7,234.6c.5-19.6,14-33.8,31.7-33.2,13.7.5,27.1,16.4,26.7,31.8-.4,16.7-16.5,32.6-32.8,32.2-14.3-.3-26-14.4-25.6-30.8h0ZM266.6,259.3c14.2,0,25.4-12.4,25.2-27.9-.2-13.7-10.1-25.5-21.7-25.4-13.5,0-25.5,13.2-25.6,28.1,0,14.2,9.6,25.3,22,25.2h0Z"/>
        <path class="cls-71" d="M206.1,164.3c6.8,6.9,13.2,13.3,19.3,20.1.6.7-.5,4.3-1.7,5-2,1.3-5.5,2.6-7.1,1.7-6.5-3.9-12.7-8.3-18.5-13.2-1.4-1.2-2-5.3-1-7.1,1.2-2.2,4.3-3.3,9-6.5Z"/>
        <path class="cls-2" d="M275.5,170.7c3.8,4.4,7,6.5,7.5,9.1.9,4.6-11.6,12.2-19.5,11.5-2-.2-3.7-3.4-5.5-5.3,5.4-4.7,10.8-9.4,17.5-15.3Z"/>
        <path class="cls-113" d="M299.2,527.7c-3-2.9-6.1-5.9-9.1-8.8,7.3,4.7,14.6,9.4,21.9,14.2-4.3-1.8-8.6-3.6-12.8-5.4h0Z"/>
        <path class="cls-3" d="M585.5,584.9c10.2,15.2,9.4-5,11.3-4.6,3.5,3.7,5.7,5.5,7.2,7.8,1.2,1.8,2,4,2.2,6.2.3,3.4,0,7,0,10.4,3.7-.3,7.4-.7,11.6-1.1-1,1-2.2,3.6-3.9,3.9-3,.5-7.3.8-9-.8-2.1-2.2-2.3-6.4-3-9.8-.4-2.1-.3-4.4-.4-6.6-2,.4-4,.9-6.1,1-2,0-4.5.4-6-.6-1.8-1.2-2.7-3.7-4-5.7h0Z"/>
        <path class="cls-80" d="M681.5,600c-1.2,2.2-2.1,6.1-4.6,8.1-1.9,1.6-6.8,2.1-8.5.7-2.2-1.8-3.7-5.8-3.7-8.9,0-6.6,8.4-14.5,13-12.6-6.4,4.4-13.5,8.7-7.6,17.7.4.6,7-3,11.4-5h0Z"/>
        <path class="cls-105" d="M629.9,647.4c2.5,6.3,3.7,9.2,4.9,12.2,3-1.5,6.1-2.9,9.8-4.7,3.7,4.9,7.8,4.3,12.6-1.8-1.1,2.1-1.8,4.8-3.6,6.1-1.4,1.1-4,.5-6.1.8-1.8.3-3.6,1.3-5.3,1.1-4.4-.5-8.9-1-12.9-2.8-.9-.4.2-5.6.6-10.9h0Z"/>
        <path class="cls-93" d="M605.3,642.5c2.6,2.1,4.9,3.9,7.1,5.6,1.6-2.3,3.1-4.6,4.7-6.8.6-.8,1.2-1.6,1.8-2.4.7.7,2,1.8,1.9,1.9-2.6,3.7-4.9,7.7-8.3,10.5-.7.6-5.5-3.6-8-6-.4-.4.8-2.5.9-2.8h0Z"/>
        <path class="cls-35" d="M630.6,564.9c-1.7,5.6-2.6,8.1-3.2,10.7,0,.2,2.4,1.5,2.6,1.2,1.5-1.6,2.8-3.4,4.6-5.9,1.2,1.5,2.8,3.5,4.8,6-3.4.3-5.4.4-7.3.8-2.7.6-5.4,1.4-8,2.1-.3-1.9-1.3-4.2-.6-5.6,1.4-2.8,3.7-5.1,7.1-9.5v.2Z"/>
        <path class="cls-134" d="M598.1,618.1c1.9,4.9,3,7.7,4.1,10.5,2.4-1.8,4.8-3.6,9.1-6.8-2.2,4.1-3.2,8.5-5.3,9-2.7.7-7-.9-9.1-3-1.2-1.3.5-5.4,1.1-9.7h0Z"/>
        <path class="cls-41" d="M601.2,546.4c1.3,3.8,2.1,6,2.8,8.2.3.9.7,2.3.3,2.8-1.6,1.6-3.4,2.9-6.1,5.1,1.1-6.7-4.4-14.4,3.1-16.1h0Z"/>
        <path class="cls-35" d="M625.5,621.8c3.5,10.2,7.3,11,15.3,6.6-2,1.8-4,5.2-5.9,5.1-3.5-.2-7.1-2.1-10.3-3.9-.7-.4.4-3.6.9-7.9h0Z"/>
        <path class="cls-116" d="M633.8,540.5c-.7,2.2-2.4,4.6-1.9,6.5.6,2.3,2.9,4.2,5.3,7.3-2.1-.2-5.8.3-6.5-.9-1.4-2.3-2-6-1.2-8.5.5-1.7,4.2-2.3,6.5-3.4-.7-.3-1.4-.7-2.1-1h0Z"/>
        <path class="cls-133" d="M666.8,627.5c-1.4,5.3-2.4,9.5-3.7,14.5.2,0-2.6-.5-2.6-1.2,0-3.1,0-6.4,1.2-9.2.8-1.9,3.6-3,5.2-4.2h0Z"/>
        <path class="cls-58" d="M674.4,648.7c.3,5.3,0,8.3.9,10.9.2.7,4.1,0,6.7,1.1-2.7.7-5.5,2.2-7.9,1.7-1.8-.3-4.5-3.4-4.4-5,.2-2.6,2.5-4.9,4.6-8.7h0Z"/>
        <path class="cls-21" d="M634.1,598.7c4.5,8.4,5.3,13.1,2.2,14.1-.8-4.8-1.5-9.5-2.2-14.1Z"/>
        <path class="cls-128" d="M586.8,600.3c.5,3.5.8,5,.9,6.4,0,2.5,0,5.1,0,7.6,0,0-2.1.2-2.1,0-.5-3-1.1-6-1.2-9,0-1.1,1-2.2,2.4-5Z"/>
        <path class="cls-50" d="M664.5,574.6c2.1,2.9,4.2,5.8,6.2,8.6l-1.8,1.4c-2.3-2.8-4.6-5.6-6.9-8.4l2.5-1.6h0Z"/>
        <path class="cls-128" d="M674.8,630.6c1-2.8,2.1-5.6,3.1-8.4.8.3,1.6.5,2.3.8-.8,2.9-1.5,5.8-2.3,8.8-1.1-.4-2.1-.8-3.2-1.2h0Z"/>
        <path class="cls-132" d="M813.9,298.5c-4.4.4-11,1-17.7,1.4-1.3,0-3.5-.3-3.8-1.1-.5-1.1,0-2.9.8-4.1,5.7-9.6,22.9-15.3,32.8-9.8,3.3,1.8,4.7,7.2,6.9,10.9-3.3,1.1-6.5,2.6-9.9,3.2-2.2.4-4.6-.2-9.2-.6h0Z"/>
        <path class="cls-88" d="M802.8,225.5c-1.2-17.8,15.2-26.2,30.7-27.2,14.1-.9,24.6,12.7,24.4,29.6-.2,13.5-14.1,27-27.8,27.1-15.5,0-27.4-12.8-27.2-29.4h0ZM813.8,217c1.4,1.8,3.3,4.1,5.1,6.3-2.8,1.6-5.5,3.4-8.4,4.7-1.7.7-3.7.6-5.5.9.4,2.5,0,6.6,1.3,7.4,4.2,2.2,11.2,5.5,13.1,3.9,3.4-3,5.7-9.6,5-14.1-1.2-7.5-6.7-10.1-10.6-9h0Z"/>
        <path class="cls-88" d="M780.6,232.6c0,14.1-10.8,26.7-22.6,26.5-13.6-.2-24.3-12.5-24.2-27.7,0-15.5,8.6-26.4,20.6-26.3,13.8,0,26.3,13.3,26.2,27.6h0ZM736.2,232.8c0,7.7,6.2,13.9,15.4,13.2,6.1-.5,11.1-8.3,9.9-15.5-1.5-8.9-8.9-14.9-14.1-13.6.4,4.2,2.5,9.3.8,11.6-1.9,2.6-7.2,2.7-12,4.3h0Z"/>
        <path class="cls-76" d="M207.7,299.1c-2.2,0-4.4.4-6.5,0-3-.7-5.8-2.1-8.6-3.2,1.5-3.1,2.2-7.2,4.6-9.2,8.7-7.3,29.9-.9,33.5,9.9.3.8-2.1,3.7-3.2,3.7-6.6-.2-13.2-1-19.8-1.5v.5-.2Z"/>
        <path class="cls-88" d="M223.1,233.5c-1.3,11.8-13.6,22.1-26,21.6-14.7-.6-26.3-12.3-26.5-26.6,0-12.5,7-24.4,16.9-28.2,11.3-4.4,23.5-1,32.4,9,5.9,6.6,7.3,17.7,3,24.4,0-1.6,0-3.1,0-2.3-4.5-2.7-8.2-4-10.2-6.7-1-1.4,1.1-5.1,1.8-7.9-6.6-.8-11,4.4-11.5,10.7-.3,4.6,2.2,11.7,5.8,13.9,7.3,4.5,11-2.5,14.3-8h0Z"/>
        <path class="cls-88" d="M266.6,259.3c-12.4,0-22.1-11.1-22-25.2,0-14.9,12.1-28.1,25.6-28.1s21.5,11.7,21.7,25.4c.2,15.4-11,27.8-25.2,27.9h0ZM275.1,219.2c-7.6.3-11.7,5.6-11.6,14,0,7.6,3.9,13,12,12.8,9.8-.2,10.8-8.3,12.4-13.9-3.6-.4-8.3.3-9.9-1.5-2.1-2.4-1.9-6.9-2.8-11.4h0Z"/>
        <path class="cls-31" d="M813.8,217c3.9-1.1,9.4,1.5,10.6,9,.7,4.5-1.6,11.1-5,14.1-1.9,1.7-8.9-1.7-13.1-3.9-1.4-.7-.9-4.8-1.3-7.4,1.9-.3,3.9-.2,5.5-.9,2.9-1.3,5.6-3.1,8.4-4.7-1.8-2.3-3.7-4.6-5.1-6.3h0Z"/>
        <path class="cls-39" d="M736.2,232.8c4.8-1.5,10.1-1.7,12-4.3,1.7-2.3-.4-7.4-.8-11.6,5.2-1.3,12.6,4.7,14.1,13.6,1.2,7.2-3.8,15-9.9,15.5-9.2.7-15.4-5.5-15.4-13.2h0Z"/>
        <path class="cls-93" d="M223.1,233.5c-3.3,5.5-7,12.5-14.3,8-3.6-2.2-6.1-9.3-5.8-13.9.5-6.4,4.9-11.5,11.5-10.7-.7,2.8-2.8,6.5-1.8,7.9,2,2.6,5.8,3.9,10.2,6.7,0-.8,0,.7,0,2.3v-.2h.2Z"/>
        <path class="cls-99" d="M275.1,219.2c.9,4.5.7,9,2.8,11.4,1.7,1.9,6.3,1.1,9.9,1.5-1.6,5.6-2.5,13.7-12.4,13.9-8.1,0-12-5.2-12-12.8s4-13.7,11.6-14h0Z"/>
      </g>
    </g>
  </g>
</svg>