<?xml version="1.0" encoding="UTF-8"?>
<svg id="Layer_1" xmlns="http://www.w3.org/2000/svg" width="1536" height="1024" xmlns:xlink="http://www.w3.org/1999/xlink" version="1.1" viewBox="0 0 1536 1024">
  <!-- Generator: Adobe Illustrator 29.4.0, SVG Export Plug-In . SVG Version: 2.1.0 Build 152)  -->
  <defs>
    <style>
      .st0 {
        fill: #7c8b31;
      }

      .st1 {
        fill: #6f4816;
      }

      .st2 {
        fill: #1e2315;
      }

      .st3 {
        fill: #f9f3d8;
      }

      .st4 {
        fill: url(#linear-gradient1);
      }

      .st5 {
        fill: #d60000;
      }

      .st6 {
        fill: #545035;
      }

      .st7 {
        fill: #365955;
      }

      .st8 {
        fill: #33471d;
      }

      .st9 {
        fill: #56712b;
      }

      .st10 {
        fill: #e5a456;
      }

      .st11 {
        fill: url(#linear-gradient);
      }

      .st12 {
        fill: #bddad1;
      }

      .st13 {
        fill: #8c6325;
      }

      .st14 {
        fill: #b15b2e;
      }

      .st15 {
        fill: #1a373a;
      }

      .st16 {
        fill: #8c7c1c;
      }

      .st17 {
        fill: #450000;
      }

      .st18 {
        fill: #f2b161;
      }

      .st19 {
        fill: #d5bc2a;
      }

      .st20 {
        fill: #202a15;
      }

      .st21 {
        fill: #a36e24;
      }

      .st22 {
        fill: #6c684d;
      }

      .st23 {
        fill: #d3661e;
      }

      .st24 {
        fill: #00bcd6;
      }

      .st25 {
        fill: #9f953a;
      }
    </style>
    <linearGradient id="linear-gradient" x1="1402.29" y1="536.138" x2="1420.482" y2="509.724" gradientTransform="translate(0 1026) scale(1 -1)" gradientUnits="userSpaceOnUse">
      <stop offset="0" stop-color="#d99549"/>
      <stop offset="1" stop-color="#fbb864"/>
    </linearGradient>
    <linearGradient id="linear-gradient1" x1="55.819" y1="226.166" x2="144.468" y2="488.198" gradientTransform="translate(0 1026) scale(1 -1)" gradientUnits="userSpaceOnUse">
      <stop offset="0" stop-color="#456027"/>
      <stop offset="1" stop-color="#59782f"/>
    </linearGradient>
  </defs>
  <path class="st2" d="M617.404,0h917.286c1.06,1.714,1.21,3.065,1.26,5.048.46,16.293.07,32.711.07,49.016v93.864l-.01,40.877c-.195,6.047,1.56,13.587-1.29,19.054,1.06,2.637,1.03,2.593,0,5.248,4.597,81.874-.107,167.193,1.313,249.66-.208,7.876,1.661,17.427-1.043,24.851,1.14,2.964,1.28,4.599.03,7.512,1.602,4.427,2.185,14.478-.18,18.733.62,1.126.96,2.119,1.05,3.401.369,9.922,1.854,77.799-.89,83.586.3,1.608.22,2.333-.26,3.893,1.466,4.408,3.252,43.871-.01,49.342.43,1.592.42,2.226-.04,3.808,1.07,1.714,1.21,3.063,1.26,5.048,1.33,51.542-.301,105.034.07,156.72-.159,5.488,1.216,12.3-1.01,17.439.897,2.672,1.28,4.383-.31,6.887,1.08,1.743,1.19,3.093,1.25,5.108,1.25,40.854.09,82.118.07,123.01-.496,11.19,2.481,43.789-1.33,51.895H0v-234.596c8.593-2.646,14.066-4.967,19.679-12.295,5.198,15.014,22.649,23.414,37.828,19.546,8.425-2.283,12.725-7.713,16.951-14.944,15.918,16.425,48.237,23.938,61.422.554,12.702,8.881,28.617,13.815,44.086,11.136,8.081-1.4,15.192-4.326,20.047-11.129,1.219-3.011,1.719-6.449,2.388-9.628,15.464,14.471,34.193,17.899,54.544,14.717-4.093-5.866-8.482-11.44-12.403-17.446,28.949,13.154,50.424,22.858,83.071,16.622-14.047-9.217-23.962-18.366-33.24-32.493,25.595,15.417,47.72,23.29,76.916,12.874-39.073-11.889-61.409-46.816-71.777-84.401-8.189-21.782-10.951-46.502-13.158-69.561,5.21-.06,10.025.529,15.103,1.681l-.523-1.354c-3.024-1.886-9.881-1.265-13.63-1.681l-.144-1.194c1.902-1.759,4.912-1.249,7.462-1.356l.818-1.141c-.844-13.812-.278-27.967-.064-41.805-.076-1.766-.755-2.999-1.536-4.56-8.551-12.041-10.097-22.873-9.645-37.25l-1.368-.515c-1.588-79.771,3.529-159.253,11.198-238.647.552-4.425.733-9.692,2.004-13.902.551-1.823.518-1.872,2.198-2.808-.805-.579-.995-1.279-1.434-2.163,1.251-1.25,2.319-1.196,4.025-1.55-1.586-.473-1.971-.558-3.169-1.786,1.765-33.133,31.402-62.352,48.747-88.055,19.58,6.507,38.233-5.134,43.368-24.653,9.561,2.813,19.156,2.414,27.788-2.913,15.572-9.487,18.151-22.176,24.065-37.827,2.048-5.419,4.537-9.841,5.882-15.596,18.861,13.464,42.964,6.143,55.681-12.005,25.068,13.078,53.574-11.538,57.678-36.417,27.415,6.828,61.564-15.151,56.547-45.46Z"/>
  <path class="st12" d="M617.404,0h917.286c1.06,1.714,1.21,3.065,1.26,5.048.46,16.293.07,32.711.07,49.016v93.864l-.01,40.877c-.195,6.047,1.56,13.587-1.29,19.054,1.06,2.637,1.03,2.593,0,5.248,4.597,81.874-.107,167.193,1.313,249.66-.208,7.876,1.661,17.427-1.043,24.851,1.14,2.964,1.28,4.599.03,7.512,1.602,4.427,2.185,14.478-.18,18.733.62,1.126.96,2.119,1.05,3.401.369,9.922,1.854,77.799-.89,83.586.3,1.608.22,2.333-.26,3.893,1.466,4.408,3.252,43.871-.01,49.342.43,1.592.42,2.226-.04,3.808,1.07,1.714,1.21,3.063,1.26,5.048,1.33,51.542-.301,105.034.07,156.72-.159,5.488,1.216,12.3-1.01,17.439.897,2.672,1.28,4.383-.31,6.887,1.08,1.743,1.19,3.093,1.25,5.108,1.25,40.854.09,82.118.07,123.01-.496,11.19,2.481,43.789-1.33,51.895h-326.56c2.3-2.38,3.4-9.33,4.75-12.78,6.73-17.19,25.37-27.063,41.34-33.914,3.587-24.202,21.991-24.961,40.22-32.558-5.35-34.015,43.353-50.452,66.251-65.986,3.493-2.474,16.557-11.098,11.559-16.022-3.12-2.364-18.96-4.235-23.67-5.418-9.93-2.492-24.05-6.208-29.55-15.347,2.28-1.205,4.71-4.194,6.24-6.229,1.308-1.469,1.396-3.301.78-5.074-2.14-2.029-4.91-2.473-7.68-3.215-7.72,3.471-17.15,6.318-25.65,5.877-21.213,5.871-41.626,8.839-63.55,5.343-1.86-3.531-5.09-4.112-6.6-9.516-.416-1.494-.897-2.701-1.72-4.018-16.05,5.135-37.64,7.814-54.11,3.575-7.76-2-9.47-4.392-13.42-10.959,7.028-15.972,25.982-16.277,36.06-23.786,1.15-2.618-.56-72.81-.35-82.285.15-7.11,2.5-23.076.64-28.815-2.1-.297-3.37-.239-5.36.527-4.01,12.659-14.773,4.579-19.6-2.76-8.88-13.066-2.23-19.936-5.31-31.765,1.89-1.737,1.282-3.817.67-6.023-39.544.559-152.978,5.748-194.325,6.9-9.164.369-17.748,4.834-26.645,4.803-17.73-.598-57.154-5.61-75.328-7.085-12.35-1.254-30.649-1.731-42.21-4.827,23.594-13.119,54.043-47.628,67.178-71.189,4.617-6.972,6.471-16.103,9.93-23.666,1.733-3.79,6.167-5.959,7.831-9.685,3.382-7.576,3.28-15.287,10.398-20.868,7.551-5.921,18.763-3.033,26.387-9.999,5.221-4.771,6.125-10.951,6.441-17.669,9.122-5.672,14.374-16.081,12.66-26.803,7.937-8.383,12.5-21.268,6.612-31.999,8.383-21.286,5.608-38.709-21.016-37.814,4.203-14.658,6.517-28.975,7.852-44.155-.928-1.455-2.212-2.923-1.903-4.751,1.035-6.892,3.524-14.1,5.127-20.931,3.431-14.621,6.467-29.441,10.59-43.881,1.588-1.028,3.379-1.832,3.971-3.758,5.824-25.9,10.215-52.391,15.506-78.449,15.564,1.576,32.084,2.982,47.404,6.159.5,1.355.65,2.327.47,3.774-1.29,10.386-3.98,20.903-5.97,31.19-3.887,19.855-7.607,39.742-11.16,59.661-1.66,9.284-5.28,21.589-3.87,30.911.31,2.057.96,4.398,2.79,5.611,4.082,3.043,8.597,1.982,11-2.488,6.968-16.07,22.834-117.623,23.2-126.484,12.86.61,26.03,3.084,38.86,4.645,15.44,1.879,31.38,3.011,46.65,5.872,3.67,10.441-22.04,94.927-14.36,104.378,2.239,2.852,6.788,2.147,8.85-.554,1.88-2.308,20.59-96.154,19.85-102.013,10.407.774,33.202,9.601,35.15-6.443.958-13.441-23.845-11.175-32.79-12.447,5.679-10.974,6.392-32.098,9.311-45.013,0,0,4.929-26.205,4.929-26.205,1.329-7.621,7.165-22.605-3.72-25.361-10.019.775-16.407,65.507-19.541,76.938-1.037,5.502-1.333,13.745-4.609,18.185-6.1-2.378-17.96-2.642-24.76-3.517-19.98-2.569-40.07-5.757-60.13-7.436,3.77-5.722,21.59-105.733,21.52-117.377-.137-4.047-4.167-6.984-8.01-6.688-10.818,4.762-11.603,29.884-14.181,40.546-3.259,17.33-6.629,34.782-9.409,52.189-1.287,7.856-2.094,22.635-6.33,28.916-44.026-5.803-88.245-10.757-132.079-17.868,2.923-16.812,5.03-33.754,7.937-50.567,2.363-13.668,12.712-60.577,11.706-70.597-.301-3.006-1.099-4.906-3.466-6.802-15.195-4.672-15.062,19.306-17.49,28.875-3.852,19.295-7.497,38.629-10.935,58.002-1.927,10.821-3.038,25.616-7.063,35.545-3.264,8.052-38.466-5.196-47.774-.596-2.219,1.096-3.531,3.042-4.201,5.377-5.501,17.088,37.742,15.08,48.788,19.12,0,0-14.751,82.8-14.751,82.8-2.05,11.684-5.136,24.019-6.101,35.78-.191,2.335-.055,4.72.525,6.994,2.702,10.428,11.997,10.317,15.731.485,6.292-23.087,16.888-101.353,22.63-120.045,1.224-1.477,6.512-3.612,8.404-3.455,18.306,1.521,36.85,4.36,55.088,6.668-4.209,23.926-11.793,47.64-15.117,71.678.462,15.94-9.715,58.84-15.212,74.386-.436.985-1.243,1.808-2.07,2.481-3.357,2.729-3.988,7.369-5.512,11.29-5.728,11.902-9.424,24.632-12.154,37.55-31.1-18.39-59.258,16.836-65.537,44.819-2.928-.438-6.145-1.087-9.095-.595-6.224,1.038-24.929,10.558-31.448,13.959-1.908-22.432-25.487-34.893-42.69-18.204-11.211-24.697-39.737-25.105-50.904-.195-8.236-5.076-16.998-3.017-25.008,1.275-10.649-12.942-20.144-22.445-34.73-31.055l-4.293-7.698c37.989-16.331,55.818-57.715,56.559-97.064,11.484-8.178,21.928-20.484,21.523-35.346-.24-16.571-15.182-22.916-29.797-21.374,2.192-20.038,1.506-42.202-4.994-61.427,26.655-11.458,73.871-36.737,62.601-72.234-2.688-6.557-7.338-11.68-13.93-14.414-22.672-9.404-60.783,9.055-82.104,18.003-24.718-40.637-84.803-33.839-120.642-12.959-14.115-5.593-25.398-.238-27.786,15.121-55.982,31.339-70.086,91.434-41.944,147.462-7.117,17.351-3.591,35.932,6.185,51.403-23.082-8.375-43.431-12.05-67.92-8.725-5.087-17.129-21.115-26.449-38.151-19.627.278-19.214-14.559-34.642-34.234-30.253-11.042,2.491-17.904,10.423-23.728,19.524-3.784-3.581-8.755-7.441-14.27-6.76-1.586-.473-1.971-.558-3.169-1.786,1.765-33.133,31.402-62.352,48.747-88.055,19.58,6.507,38.233-5.134,43.368-24.653,9.561,2.813,19.156,2.414,27.788-2.913,15.572-9.487,18.151-22.176,24.065-37.827,2.048-5.419,4.537-9.841,5.882-15.596,18.861,13.464,42.964,6.143,55.681-12.005,25.068,13.078,53.574-11.538,57.678-36.417,27.415,6.828,61.564-15.151,56.547-45.46Z"/>
  <path class="st2" d="M1449.57,310.476c3.49-4.613,3.6-10.992,8.23-15.541,3.843-3.769,9.844-5.349,15.09-5.231,3.97-6.053-1.12-20.789,5.99-31.412,4.02-6.011,10.56-10.962,18.19-9.849,3.01.439,6.14,1.711,9.17,1.121l.35-1.076c-4.562-9.629-.512-22.56,7.06-29.593,6.36-5.756,12.89-6.213,21.07-5.788,4.597,81.874-.107,167.193,1.313,249.66-.208,7.876,1.661,17.427-1.043,24.851,1.14,2.964,1.28,4.599.03,7.512,1.602,4.427,2.185,14.478-.18,18.733.62,1.126.96,2.119,1.05,3.401.369,9.922,1.854,77.799-.89,83.586.3,1.608.22,2.333-.26,3.893,1.466,4.408,3.252,43.871-.01,49.342.43,1.592.42,2.226-.04,3.808,1.07,1.714,1.21,3.063,1.26,5.048,1.33,51.542-.301,105.034.07,156.72-.159,5.488,1.216,12.3-1.01,17.439.897,2.672,1.28,4.383-.31,6.887,1.08,1.743,1.19,3.093,1.25,5.108,1.25,40.854.09,82.118.07,123.01-.496,11.19,2.481,43.789-1.33,51.895h-326.56c2.3-2.38,3.4-9.33,4.75-12.78,6.73-17.19,25.37-27.063,41.34-33.914,3.587-24.202,21.991-24.961,40.22-32.558-5.35-34.015,43.353-50.452,66.251-65.986,3.493-2.474,16.557-11.098,11.559-16.022-3.12-2.364-18.96-4.235-23.67-5.418-9.93-2.492-24.05-6.208-29.55-15.347,2.28-1.205,4.71-4.194,6.24-6.229,1.308-1.469,1.396-3.301.78-5.074-2.14-2.029-4.91-2.473-7.68-3.215-7.72,3.471-17.15,6.318-25.65,5.877,12.133-3.778,14.748-11.957,9.8-23.232.08-.839.13-.574-.04-1.263-1.95-8.063-1-18.277-1.12-26.603-.393-19.454-.477-38.909-.25-58.365.07-6.933,1.4-17.1-.6-23.629,11.481-5.233,20.111-15.335,21.99-27.956.92-6.189,1.78-19.476-2.2-24.798,2.106-4.016,21.318-3.074,24.37-1.46,2.227-1.126,2.967-2.95,2.09-5.266,5.319-5.678,2.28-28.565,3.191-37.263.329-9.41,1.899-19.325,1.389-28.659-.05-.79-.34-1.607-.74-2.289-4.57-7.915,3.96-28.001.76-36.802,2.365-2.123,2.997-5.403,2.21-8.385,4.27-4.093,6.68-15.775,10.66-21.447,3.751-5.335,9.539-8.475,13.85-13.236-1.49-1.03-4.99-1.643-6.84-2.398-9.56-3.895-14.96-8.637-22.01-16.067-17.261,6.373-32.726-9.519-30.31-26.681,1.288-11.46,5.153-12.253,13.23-18.65l18.9-73.486c-.53-.662-.23-.394-1.01-.907-5.45-3.567-9.12-7.513-10.53-14.072-2.755-13.937,8.766-24.268,21.85-25.538,3.24-3.464,2.68-8.562,7.27-11.955,11.456-7.904,33.774-9.43,42.64,3.011,9.015-2.26,23.256-3.999,31.4,1.14,2.82.318,4.79,1.568,6.9,3.398Z"/>
  <path class="st9" d="M1478.52,656.531c9.93-2.67,43.42,1.414,56.17,1.362,1.07,1.714,1.21,3.063,1.26,5.048,1.33,51.542-.301,105.034.07,156.72-.159,5.488,1.216,12.3-1.01,17.439.897,2.672,1.28,4.383-.31,6.887,1.08,1.743,1.19,3.093,1.25,5.108,1.25,40.854.09,82.118.07,123.01-.496,11.19,2.481,43.789-1.33,51.895h-326.56c2.3-2.38,3.4-9.33,4.75-12.78,6.73-17.19,25.37-27.063,41.34-33.914,3.587-24.202,21.991-24.961,40.22-32.558-5.35-34.015,43.353-50.452,66.251-65.986,3.493-2.474,16.557-11.098,11.559-16.022,3.418.406,4.407-2.131,5.5-4.891,8.02.294,14.73,3.928,23.04,3.239,11.23.118,21.77-1.628,32.19-5.954,14.337-5.514,28.588-9.608,21-28.331.28-3.276-2.77-8.765-2.67-13.145.31-14.597,8.24-59.295,3.58-70.161,6.087-1.052,15.318-1.718,19.04-7.271,2.77-4.257,1.14-27.01-.19-32.452,6.348-3.937,8.465-11.704,8.96-18.758.66-7.652.88-22.559-4.18-28.485Z"/>
  <path class="st0" d="M1478.52,656.531c9.93-2.67,43.42,1.414,56.17,1.362,1.07,1.714,1.21,3.063,1.26,5.048,1.33,51.542-.301,105.034.07,156.72-.159,5.488,1.216,12.3-1.01,17.439-6.25-3.154-17.28-1.632-23.76.504-9.6,3.161-17.05,9.903-21.56,18.903-3.95,7.892-4.17,21.005-6.08,24.163-9.484-11.267-31.195-16.483-43.68-7.453-19.491,13.907-6.957,41.65-7.39,54.909-3.7-6.655-21.98-13.99-29.63-16.175-16.638-5.233-40.901-1.727-46.18,17.574-3.51,13.017,7.82,23.973,6.76,29.743-12.901-7.372-35.984-7.838-44.99,5.852-3.68,5.714-4.14,12.646-2.61,19.118.79,3.326,3.16,7.493,3.23,10.74-16.619-6.388-39.534-.864-46.16,17.062-1.28,3.72-.99,8.7-2.91,11.96h-61.92c2.3-2.38,3.4-9.33,4.75-12.78,6.73-17.19,25.37-27.063,41.34-33.914,3.587-24.202,21.991-24.961,40.22-32.558-5.35-34.015,43.353-50.452,66.251-65.986,3.493-2.474,16.557-11.098,11.559-16.022,3.418.406,4.407-2.131,5.5-4.891,8.02.294,14.73,3.928,23.04,3.239,11.23.118,21.77-1.628,32.19-5.954,14.337-5.514,28.588-9.608,21-28.331.28-3.276-2.77-8.765-2.67-13.145.31-14.597,8.24-59.295,3.58-70.161,6.087-1.052,15.318-1.718,19.04-7.271,2.77-4.257,1.14-27.01-.19-32.452,6.348-3.937,8.465-11.704,8.96-18.758.66-7.652.88-22.559-4.18-28.485Z"/>
  <path class="st9" d="M1453.98,826.803c6.761,1.678,18.962,4.067,18.56,13.101-5.039,8.318-29.972,14.916-39.56,15.23,14.355-5.521,28.582-9.609,21-28.331Z"/>
  <path class="st9" d="M1506.59,794.068c1.28-.176,2.31-.19,3.59-.042l.65,1.06c-1.345,5.058-8.386,8.618-12.83,10.358l-.99-.683c.453-5.104,5.505-8.456,9.58-10.693Z"/>
  <path class="st9" d="M1477.03,787.316c5.255,1.367,10.154,10.815,7.4,15.759-5.654-2.629-8.199-9.834-7.4-15.759Z"/>
  <path class="st9" d="M1489.6,785.815l1.61.538c3.037,4.52,2.081,13.74-2.4,17.079l-.73-.39c-.36-5.85-.64-11.68,1.52-17.227Z"/>
  <path class="st20" d="M1483.61,880.67c1.91-3.158,2.13-16.271,6.08-24.163,4.51-9,11.96-15.742,21.56-18.903,6.48-2.136,17.51-3.658,23.76-.504.897,2.672,1.28,4.383-.31,6.887-19.625-5.711-38.48,5.04-42.49,25.327-2.11,9.38,1.77,19.991.02,26.337-7.908-12.484-31.755-26.113-46.36-18.549-4.99,2.523-8.61,7.518-10.23,12.8-6.42,20.941,7.95,40.29,6.33,51.306-12.83-12.729-36.92-25.299-55.05-25.084-13.52-.254-24.607,7.032-24.14,21.549.31,15.602,15.66,26.586,16.87,35.888-13.684-6.403-27.598-14.595-43.3-11.883-12.909,2.025-17.423,10.047-14.17,22.445,2.72,10.863,14.88,22.338,15.53,26.438-15.466-11.256-43.328-18.548-55.89.34-2.67,4.11-2.08,9.22-4.39,13.1h-7.38c1.92-3.26,1.63-8.24,2.91-11.96,6.629-17.927,29.539-23.449,46.16-17.062-.07-3.247-2.44-7.414-3.23-10.74-1.53-6.472-1.07-13.404,2.61-19.117,9.006-13.692,32.087-13.224,44.99-5.853,1.06-5.77-10.27-16.726-6.76-29.743,5.285-19.304,29.536-22.805,46.18-17.574,7.65,2.185,25.93,9.52,29.63,16.175.429-13.294-12.1-40.994,7.391-54.909,12.483-9.032,34.195-3.812,43.679,7.453Z"/>
  <path class="st8" d="M1489.28,938.854c9.051-1.287,22.762,4.592,23.09,15.052.01.697-.34.796-.8,1.273-5.754-6.443-17.846-18.439-25.47-8.306-3.67,5.712-.62,21.385,1.11,27.806.27.997.2.893-.07,1.8-7.21-1.498-10.27-11.066-21.71-11.686-17.346-1.917-10.921,11.377-10.35,22.075-1.81-.179-3.27-.938-4.91-1.7.25-.869.46-1.733.66-2.614-1.157-2.935-2.119-6.187-4.18-8.626,2.31-3.598,3.11-8.136,6.49-11.004,6.734-5.182,22.096-3.123,27.38,3.509,1.224-10.54-3.305-21.913,8.76-27.579Z"/>
  <path class="st8" d="M1447.57,992.115c2.741-.208,5.523-1.178,7.71.825l-.59,1.928c-2.873.662-5.483-.301-7.12-2.753Z"/>
  <path class="st9" d="M1449.57,310.476c3.49-4.613,3.6-10.992,8.23-15.541,3.843-3.769,9.844-5.349,15.09-5.231,3.97-6.053-1.12-20.789,5.99-31.412,4.02-6.011,10.56-10.962,18.19-9.849,3.01.439,6.14,1.711,9.17,1.121l.35-1.076c-4.562-9.629-.512-22.56,7.06-29.593,6.36-5.756,12.89-6.213,21.07-5.788,4.597,81.874-.107,167.193,1.313,249.66-.208,7.876,1.661,17.427-1.043,24.851-11.902,8.001-23.74,2.637-35.97-.774.488,13.891-13.652,22.072-26.08,22.449-2.204-8.487-11.572-16.717-19.46-19.862,17.381-.416,33.249-8.916,27.06-28.664,6.98-2.047,12.3-4.365,16.84-10.292,8.031-10.881,7.442-29.091-3.91-37.475,10.915-12.832,5.623-38.769-9.37-46.421,6.599-19.774-3.58-39.413-23.85-44.71-.616-4.64-6.85-9.342-10.68-11.393Z"/>
  <path class="st0" d="M1320.3,647.488c2.106-4.016,21.318-3.074,24.37-1.46-2.978,18.044-10.403,37.244,12.93,44.806,1.34,9.377-9.274,34.279-2.39,41.132,4.11,3.939,10.69,5.654,15.93,7.539,1.154,3.42,5.744,63.547,3.67,67.41-4.82,5.149-22.4,12.62-29.61,16.875-6.881,3.829-11.899,10.429-19.93,11.956,1.309-1.47,1.395-3.301.78-5.074-2.14-2.029-4.91-2.473-7.68-3.215-7.72,3.471-17.15,6.318-25.65,5.877,12.133-3.778,14.748-11.957,9.8-23.232.08-.839.13-.574-.04-1.263-1.95-8.063-1-18.277-1.12-26.603-.393-19.454-.477-38.909-.25-58.365.07-6.933,1.4-17.1-.6-23.629,11.481-5.233,20.111-15.335,21.99-27.956.92-6.189,1.78-19.476-2.2-24.798Z"/>
  <path class="st9" d="M1302.52,810.102c6.575.559,22.235,1.537,23.11,10.166-3.347,9.247-24.052,13.455-32.91,13.066,12.133-3.778,14.748-11.957,9.8-23.232Z"/>
  <path class="st8" d="M1472.94,509.293c12.423-.372,26.573-8.564,26.08-22.449,12.224,3.412,24.081,8.773,35.97.774,1.14,2.964,1.28,4.599.03,7.512,1.602,4.427,2.185,14.478-.18,18.733.62,1.126.96,2.119,1.05,3.401.369,9.922,1.854,77.799-.89,83.586.3,1.608.22,2.333-.26,3.893,1.466,4.408,3.252,43.871-.01,49.342.43,1.592.42,2.226-.04,3.808-12.75.052-46.24-4.032-56.17-1.362.51-1.744.11-2.945-.35-4.665,3.406-4.295,5.786-28.05,4.16-32.188,1.6-3.191,1.07-7.258.71-10.7,2.69-4.763,1.1-16.903,1.48-22.72.249-6.197,4.166-11.64,1.91-17.589.58-2.42.56-2.922-.15-5.311,1.428-11.331-3.742-40.251-11.21-48.608.25-2.456-.8-3.511-2.13-5.457Z"/>
  <path class="st21" d="M1535.02,495.13c1.602,4.427,2.185,14.478-.18,18.733.62,1.126.96,2.119,1.05,3.401.369,9.922,1.854,77.799-.89,83.586-9.006-5.227-17.485,3.063-24.25,8.131,1.758-4.578.331-73.466-1.26-78.676,1.74-4.579.58-28.307-.72-33.705,10.1.781,16.49,2.891,26.25-1.47Z"/>
  <path class="st13" d="M1535.02,495.13c1.602,4.427,2.185,14.478-.18,18.733-2.63.544-7.26.867-9.05,2.795-1.39,11.44,6.92,61.928.04,67.581-1.56-1.369-1.85-3.534-2-5.52-1.01-13.543-.79-27.659-.45-41.239-.11-7.126,2.709-15.547-1.23-21.973-3.49-.65-7.9-2.003-11.34-1.143l-.79,1.006c.79,4.387,1.95,10.92-.53,14.935,1.74-4.579.58-28.307-.72-33.705,10.1.781,16.49,2.891,26.25-1.47Z"/>
  <path class="st9" d="M1508.89,632.42c4.55-6.262,2.49-16.368,10.47-23.439,4.2-3.728,10-4.393,15.38-4.238,1.466,4.408,3.252,43.871-.01,49.342.43,1.592.42,2.226-.04,3.808-12.75.052-46.24-4.032-56.17-1.362.51-1.744.11-2.945-.35-4.665,3.406-4.295,5.786-28.05,4.16-32.188,10.278-1.123,21.328,3.616,26.56,12.742Z"/>
  <path class="st8" d="M1478.17,651.866c12.72,3.841,43.23-1.4,56.56,2.219.43,1.592.42,2.226-.04,3.808-12.75.052-46.24-4.032-56.17-1.362.51-1.744.11-2.945-.35-4.665Z"/>
  <path class="st12" d="M1475.07,514.75c8.99-1.733,17.75-2.698,23.37-11.08,1.26-1.891,4.2-9.183,5.88-9.609.39.529,1.24,1.412,1.45,1.989.364,3.895,2.447,62.982-.18,68.586-5.486-4.424-13.047-2.946-19.31-1.278,1.428-11.331-3.742-40.251-11.21-48.608Z"/>
  <path class="st9" d="M1486.43,568.669c6.316-1.384,18.197-4.51,20.24,4.214,1.13,7.608,1.98,41.878-1.32,47.376-6.392-7.036-13.78-2.234-20.56-4.528-.51-2.15-.78-4.773-1.75-6.753,2.69-4.763,1.1-16.903,1.48-22.72.249-6.197,4.166-11.64,1.91-17.589Z"/>
  <path class="st9" d="M1325.27,835.746c3.35-.697,5.9-2.12,8.84-3.812.923,5.039-1.693,8.257,3.35,11.854,12.99,7.824,34.965,1.858,48.77-2.099.003,4.899-2.948,9.485.9,13.822,3.484,4.089,8.852,4.359,13.66,5.577-8.31.689-15.02-2.945-23.04-3.239-1.094,2.762-2.083,5.296-5.5,4.891-3.12-2.364-18.96-4.235-23.67-5.418-9.93-2.492-24.05-6.208-29.55-15.347,2.28-1.205,4.71-4.194,6.24-6.229Z"/>
  <path class="st18" d="M1366.24,346.957c3.93-.225,7.36,2.73,10.94,4.302,9.7,4.248,19,2.569,28.58-1.171,8.664,8.57,17.358,13.712,29.98,11.483,2.27,4.893-.04,12.093,2.57,17.514,2.057,4.243,5.876,6.763,8.18,10.652-2.867,7.194-6.904,15.924-2.9,23.428,3.8,6.609,9.36-1.911,16.61.547,1.87.633,3.03,1.946,3.73,3.769,3.209,10.42-2.792,24.671-13.03,28.903-5.39,2.086-9.071-.639-13.85-2.698-.86,5.45-4.12,16.186-8.5,19.552-3.294,11.015-22.61,22.293-33.56,23.803-30.782,4.953-51.478-24.302-55.26-51.792-.921-6.089-1.121-12.894-.031-18.976,1.05-5.841,5.57-10.367,6.89-16.051,2.85-12.235,1.51-24.367,6.93-36.25,2.94-6.447,8.12-10.686,12.17-16.243l.55-.772Z"/>
  <path class="st3" d="M1354.22,387.947c4.36-22.386,39.697-4.137,21.16,23.225-3.63,4.29-10.7,4.918-9.14,12.092,3.31,4.3,10.85,4.546,13.15,8.04-4.728,3.174-12.198,1.419-15.92-2.651-2.07-2.373-2.02-5.917-1.68-8.885.3-2.55,1.97-4.578,2.29-7.004-2.98-.647-6.69-2.24-8.93-4.366-6.707-6.43.173-13.775-.93-20.451Z"/>
  <path class="st2" d="M1354.22,387.947c4.36-22.386,39.697-4.137,21.16,23.225-3.63,4.29-10.7,4.918-9.14,12.092,3.31,4.3,10.85,4.546,13.15,8.04-4.728,3.174-12.198,1.419-15.92-2.651-2.07-2.373-2.02-5.917-1.68-8.885.3-2.55,1.97-4.578,2.29-7.004,11.568-2.722,16.655-19.134,9.21-28.175-6.115-6.473-14.182-2.273-19.07,3.358Z"/>
  <path class="st2" d="M1359.28,388.969l2.68.318c9.579,4.625-.221,24.192-8.06,15.206-2.194-5.676-.162-12.625,5.38-15.524Z"/>
  <path class="st3" d="M1396.66,391.629c1.58-3.301,3.2-6.477,6.89-7.819,8.212-2.719,18.536,1.776,20.59,10.545,3.483,9.513-4.29,28.311-16.32,23.671-8.074-.057-8.714-5.907-13.63-10.469,1.81-3.034,2.5-12.281,2.47-15.928Z"/>
  <path class="st2" d="M1396.66,391.629c1.58-3.301,3.2-6.477,6.89-7.819,8.212-2.719,18.536,1.776,20.59,10.545,3.483,9.513-4.29,28.311-16.32,23.671,13.029-.656,17.143-18.328,9.92-27.529-2.07-2.757-5.12-4.678-8.6-4.926-5.98-.427-8.29,2.708-12.48,6.058Z"/>
  <path class="st2" d="M1399.33,394.22c12.963-3.489,11.604,19.081-.28,17.239-4.582-4.49-2.941-12.395.28-17.239Z"/>
  <path class="st2" d="M1374.34,448.234c4.25-.544,7.93-.82,12.06.711,10.483,3.605,19.482,16.613,5.03,22.089-4.382,2.246-10.201,2.542-14.32-.487-6.913-5.066-9.279-16.013-2.77-22.313Z"/>
  <path class="st14" d="M1376.27,461.737c5.233-.313,11.872-2.016,16.25,1.548-.27,2.06-.87,2.278-2.32,3.704-4.159,3.698-13.206.306-13.93-5.252Z"/>
  <path class="st2" d="M1405.37,364.962c5.78-2.8,22.749,5.092,23.54,11.542l-1.4,1.612-.36.198c-3.37-.661-6.25-5.151-9.33-6.887-3.58-2.013-8.02-3.149-11.84-4.763l-.61-1.702Z"/>
  <path class="st2" d="M1372.03,363.463c1.88.015,2.59-.175,4.2.869l-.21,1.191c-5.35,3.592-13.01,5.498-18.94,8.445l-.83.851-.79-.563c.684-7.111,10.931-9.367,16.57-10.793Z"/>
  <path class="st5" d="M1434.53,488.742c4.16-.694,8.94,1.662,12.59,3.452,13.47,6.604,21.33,19.434,26.01,33.18,2.66,7.844,10.36,42.471,7.29,48.713-7.76,6.053-20.46,5.165-29.79,5.044,2.018-10.5-2.785-36.196-9.42-44.384,5.26,10.585-1.68,38.108,5.96,47.954,1.51.626,2.68,1.116,3.86,2.262.84,7.353,3.29,36.744-.47,42.601-13.49,5.978-42.19,6.06-56.67,3.332-7.17-1.352-13.72-3.897-20.7-5.88,2.98-3.423,4.678-10.443,3.45-14.744,6.99-16.82-8.93-37.171-7.54-55.045.71-9.167,8.19-26.268,6.16-33.579,0,5.356-9.63,18.796-11.56,25.879-2.2,8.072,1.66,17.647-.62,24.478-2.67-1.067-5.75-1.326-8.58-1.793,1.73-4.139,1.68-9.623,2.18-14.063,1.76-15.441,3.58-34.191,12.89-47.141,4.662-6.477,12.297-9.754,16.87-15.852,2.436,5.853-1.725,18.51.59,27.82,1.19,4.747,3.27,9.906,7.76,12.399,16.287,7.838,28.809-14.659,34.94-26.695,2.13-4.372,6.47-13.127,4.8-17.938Z"/>
  <path class="st17" d="M1400.83,577.261c5.2-.286,11.94,4.151,17.6,4.945,4.03.564,8-.563,12.01-.532l-3.11,1.285c-2.725,3.203-10.08,3.26-13.87,2.575-5.59-1.123-9.5-3.479-12.63-8.273Z"/>
  <path class="st1" d="M1365.97,340.846c-12.451,12.47-22.097,8.816-20.15-9.206,1.057-10.982,19.611-8.118,23.451-15.644,1.34-3.515.28-5.657,4.09-8.061,9.176-5.563,29.806-6.654,35.12,4.578,13.28-2.696,27.41-3.909,39.34,4.066,2.88,2.047,8.128,7.033,8.43,10.686,8.49,2.248,15.05,5.876,19.64,13.667,5.29,8.702,5.085,21.207-1.88,28.909,19.381,3.396,25.325,31.821,10.61,43.874,21.415,12.096,11.328,44.177-13.29,40.827,5.035,7.25,7.306,20.089-1.85,25.151-8.139,5.04-30.496,7.106-36.66-1.618-3.68-6.695,5.58-18.819,6.95-26.213,6.35,1.145,11.96,1.997,17.57-1.921,6.97-4.859,11.63-14.294,12.95-22.52,2.638-15.931-9.796-22.314-23.92-19.25,2.53-5,2.1-9.969,6.05-14.637l2.41-2.868-.13-1.809c-6.72-5.232-10.76-8.006-11.93-17.122-.81-6.307,2.35-14.516,1.01-19.745-5.48,3.18-12.38,4.891-18.61,3.244-8.63-2.283-11.37-8.174-17.62-13.265-4.68,4.252-14.2,5.746-20.35,5.479-10.182-.043-17.673-7.2-19.57-16.983-.9,3.06-.31,7.917-1.66,10.382Z"/>
  <path class="st1" d="M1454.83,390.665c2.659,3.45,5.11,13.103,4.28,17.461-4.16-1.363-8.49-.382-12.74.044,2.53-5,2.1-9.969,6.05-14.637l2.41-2.868Z"/>
  <path class="st15" d="M1373.03,631.276c4.83-1.073,12.89,3.519,17.99,4.585,19.93,4.166,40.13,2.434,59.88-1.797,3.71,16.957-17.594,42.226-5.67,61.174,6.595,1.457,4.688,4.362,5.27,10.016,1.851,7.702,12.859,3.703,18.13,2.356,1.79,5.406,1.9,19.001,1.4,24.908-23.025,12.686-88.905,7.557-111.38-4.722,1.78-7.763,2.01-16.302,3.13-24.227,2.287-15.296,4.823-30.55,7.61-45.762,1.05-5.758,5.27-21.557,3.64-26.531Z"/>
  <path class="st18" d="M1474.03,582.517c1.79-.101,2.2-.324,3.73.698,5.4,11.861-3.05,53.492-3.14,68.685.264,15.17,8.426,34.137-2.41,47.384.71-1.793,1.37-3.601,1.52-5.537.18-2.091.41-11.341-.85-12.78-1.194,5.98-1.254,15.353-5.84,19.756-3.06-4.014.13-13.652-3.12-19.933,1.321,4.187.388,10.899-2.41,14.254.906,5.28-3.904,9.282-7.94,11.679,2.66-5.979,4.16-24.612,2.03-30.959l-.74-.256c-2.66,4.972-1.13,11.939-4.22,16.865l-1.13-.121c-7.904-12.508,1.812-29.868,5.32-42.143,2.18-7.482,4.77-58.874,1.17-65.441,6.11-.164,12.13-.438,18.03-2.151Z"/>
  <path class="st18" d="M1440.97,744.553l8.5-.408c2.22,6.838-2.47,50.391-2.9,60.29-.29,6.65.94,14.718-.4,21.097-8.14,8.547-27.746,11.558-38.96,12.016l-.94-.997c.9-7.28,15.82-12.002,18.15-18.87,2.354-6.528-.443-59.376-1.26-67.819-.24-1.694-.88-3.035-1.831-4.436,6.54-.162,13.14-.148,19.64-.873Z"/>
  <path class="st18" d="M1377.55,740.804c7.33-.414,17.64,2.532,25.34,3.46,2.305,6.325.085,17.855-.24,24.804-.51,10.534-1.16,21.093-1.25,31.64-.03,4.538.99,9.321.4,13.763-3.71,4.272-17,7.981-22.41,9.186-4.047,1.659-16.515,4.373-19.67.803,3.11-7.55,18.221-8.279,22.35-15.726.41-13.06-1.95-27.115-2.83-40.224-.58-8.774.36-19.243-1.69-27.706Z"/>
  <path class="st18" d="M1358.15,576.515c2.44-.079,4.9-.009,7.34.007,2.99,5.12,5.91,10.196,6.35,16.219.81,10.981-6.15,72.785-12.44,79.959.5-2.179-2.63-15.863-3.47-18.901l-.54-.248c-3.316,3.366-2.277,8.722-3.54,12.989,2.288,5.598,9.394,12.907,5.96,19.022l-1.78-.041c-6.612-3.668-9.195-11.761-8.94-18.947.44-12.336,5.67-19.849,7.07-30.916,2.48-19.597.31-39.562,3.99-59.143Z"/>
  <path class="st11" d="M1425.55,476.741c2.28,1.159,3.22,6.093,4.69,8.481.57.921.94,1.508,1.13,2.604-1.97,10.143-7.75,20.758-13.76,29.133-4.928,7.127-14.452,18.21-23.02,9.303-1.94-6.94-5.3-13.675-2.81-21.137,2.11-.46,2.37,1.672,4.51,1.798.32-3.344-1.78-10.582-3.61-13.324,12.25-1.79,24.55-7.403,32.87-16.858Z"/>
  <path class="st1" d="M1446.69,829.326l2.06-.132c2.843,2.81,2.177,9.503.14,12.638-7.779,7.763-48.731,18.126-58.17,9.668.137-5.975,3.189-14.024,9.78-15.103,2.15-.227,1.04,2.375,2.97,3.738,7.294,5.065,38.922-2.838,43.22-10.809Z"/>
  <path class="st0" d="M1406.96,807.826c2.801-9.392.814-58.071,3.48-61.813,2.33-.084,4.12-.153,6.37.648,1.26,4.235,3.32,58.108,2,61.231,4.075,8.437-4.143,12.737-10.79,15.337,2.109-4.307,1.508-11.475-1.06-15.403Z"/>
  <path class="st9" d="M1406.96,807.826c3.46,1.028,7.26,1.046,10.85,1.282.58-.462.82-.474,1-1.216,4.075,8.437-4.143,12.737-10.79,15.337,2.109-4.307,1.508-11.475-1.06-15.403Z"/>
  <path class="st1" d="M1403.56,818.824c3.088.977,2.097,5.695,1.49,8.082-13.304,11.741-49.965,20.008-65.86,11.423l.29-2.584c2.85-4.929,9.67-7.34,14.57-9.766,1.59.368,3.56,2.804,4.57,4.113,14.47,1.107,33.4-1.847,44.94-11.268Z"/>
  <path class="st1" d="M1331.38,435.479c.481-.077,1.528.617,1.95.855,1.51,1.894,2.91,8.558,3.9,11.197,2.472,7.434,6.102,14.416,9.4,21.463-4.988,1.982-11.751.331-15.88-3.07-8.72-7.905-6.717-22.329.63-30.445Z"/>
  <path class="st2" d="M1189.8,322.923c-1.976-4.141-5.228-5.93-3.75-11.17,1.55-5.693,6.12-9.756,11.16-12.461,22.598-13.692,100.426-8.017,105.92,23.897,7.71,5.878,11.46,10.833,12.85,20.658,1.64,11.571-1.36,29.481-7.84,39.562,13.163,9.539,7.095,29.42-1.09,40.344-6.78,8.96-12.546,11.595-23.63,10.819-.83,6.805-2.86,13.896-7.22,19.327,21.3,9.83,38.73,22.049,47.38,45.058,1.99,5.318,7.54,19.402,6.13,24.616,8.439-2.019,17.18-3.014,23.86,3.791.787,2.982.155,6.262-2.21,8.385,3.2,8.801-5.33,28.887-.76,36.802.4.682.69,1.499.74,2.289.51,9.334-1.06,19.249-1.39,28.659-.907,8.707,2.124,31.606-3.19,37.263.877,2.316.135,4.142-2.09,5.266-3.014-1.607-22.259-2.563-24.37,1.46,3.98,5.322,3.12,18.609,2.2,24.798-1.876,12.617-10.512,22.727-21.99,27.956,2,6.529.67,16.696.6,23.629-.227,19.457-.143,38.912.25,58.365.12,8.326-.83,18.54,1.12,26.603.17.689.12.424.04,1.263,4.286,9.434,3.159,18.63-7.54,22.338-21.638,6.918-43.22,9.663-65.81,6.237-1.86-3.531-5.09-4.112-6.6-9.516-.416-1.494-.897-2.701-1.72-4.018-16.05,5.135-37.64,7.814-54.11,3.575-7.76-2-9.47-4.392-13.42-10.959,7.028-15.972,25.982-16.277,36.06-23.786,1.15-2.618-.56-72.81-.35-82.285.15-7.11,2.5-23.076.64-28.815-2.1-.297-3.37-.239-5.36.527-4.01,12.659-14.773,4.579-19.6-2.76-8.88-13.066-2.23-19.936-5.31-31.765,1.89-1.737,1.282-3.817.67-6.023,4.456-3.297,6.291-12.843,7.3-17.936,1.36-8.471.81-17.602,1.28-26.184.63-11.623,2.09-23.215,2.39-34.851-1.72-1.387-4.73-2.072-6.83-2.849,2.67-6.673,2.89-16.105,4.35-23.296,3.21-15.906,7.31-35.202,16.62-48.722,3.337-4.848,8.677-9.143,11.12-13.192-5.49-6.012-12.48-9.307-17.04-16.61-5.05-8.072-8.32-18.569-9.74-27.932-.891-4.046.212-9.406-2.69-12.637,1.225-3.256,2.801-5.541.64-8.853,1.07-3.624,1.29-7.337,2.24-10.975,1.75-6.773,4.5-13.517,5.73-20.39,1.1-6.141,1.26-12.491,2.08-18.68,1.72-12.981,6.53-25.148,12.28-36.822Z"/>
  <path class="st9" d="M1329.71,523.573c8.439-2.019,17.18-3.014,23.86,3.791.787,2.982.155,6.262-2.21,8.385,3.2,8.801-5.33,28.887-.76,36.802.4.682.69,1.499.74,2.289.51,9.334-1.06,19.249-1.39,28.659-.907,8.707,2.124,31.606-3.19,37.263.877,2.316.135,4.142-2.09,5.266-3.014-1.607-22.259-2.563-24.37,1.46.45-2.776-.1-4.34-1.13-6.834,5.13-9.867,9.84-60.996,6.88-71.74,3.114-.888,7.621-.936,9.09-4.346,1.41-4.103-1.98-30.852-4.26-34.868,1.28-2.348.677-4.368-1.17-6.127Z"/>
  <path class="st8" d="M1329.71,523.573c8.439-2.019,17.18-3.014,23.86,3.791.787,2.982.155,6.262-2.21,8.385l.71-1.979c-2.182-7.647-15.908-9.195-21.19-4.07,1.28-2.348.677-4.368-1.17-6.127Z"/>
  <path class="st8" d="M1319.17,640.654c4.11.509,24.762,2.219,27.59.108.877,2.316.135,4.142-2.09,5.266-3.014-1.607-22.259-2.563-24.37,1.46.45-2.776-.1-4.34-1.13-6.834Z"/>
  <path class="st24" d="M1275.36,461.736c20.062,5.831,34.32,22.06,42.03,41.037,4.31,10.901,14.7,50.531,10.52,60.187-12.55,3.126-26.12,2.769-38.98,2.784,3.017-7.092-1.361-46.402-4.13-52.295-.71,14.802-4.542,39.966.7,53.855,1.271,2.754,4.707,2.331,6.82,4.115,1.02,5.918.29,41.859-2.1,45.961-12.97,7.761-59.81,5.647-75.17,4.46-6.78-1.582-13.31-2.862-19.94-5.089,1.843-3.789.524-10.398.64-14.624.053-16.07.527-32.127,1.42-48.172-.069-9.776,3.946-33.85-1.17-40.854.08.303.17.603.23.91.05.237-5.53,39.654-6.17,42.972-.18.971-.68,1.885-1.19,2.723-6.53-.211-12.98-1.013-19.47-1.787,3.32-4.174,6.37-26.472,7.94-32.804,3.472-14.677,8.115-30.078,19.35-40.784,2.004-1.965,4.377-3.747,5.91-6.125,5.253,1.028,10.513,2.004,15.78,2.927,2.151,8.136,6.631,16.917,15.41,19.218,19.959,4.191,36.218-22.531,41.57-38.615Z"/>
  <path class="st18" d="M1228.24,323.702c4.979-1.031,13.067,5.265,18.77,6.08,3.25.452,7-.251,10.25-.649,9.03,4.747,5.31,7.113,18.83,8.414.46,4.757-.24,9.74-.16,14.539.17,9.818,2.19,18.599,4.6,28.057.94,3.686,1.53,8.182,3.69,11.348,3.11.663,7.72-4.834,11.55-5.568,25.337-1.031,12.776,35.637-1.92,42.331-5.43,2.665-9.18.839-14.49-1.034-1.866,15.272-11.567,32.052-25.69,39.019-6.999,7.886-24.356,9.569-34.15,8.796-35.792-2.199-49.787-38.526-44.55-70.038,1.139-6.784,3.979-13.21,5.009-20.027,1.76-11.694,1.99-23.721,5.39-35.144,1.812-6.161,8.868-18.517,8.85-23.514,10.5,2.296,24.44,3.26,34.02-2.61Z"/>
  <path class="st3" d="M1187.96,372.779c2.246-11.697,17.645-14.647,24.35-5.01,3.715,6.068,4.553,15.187,1.92,21.816-2.97,7.005-19.02,15.775-16.27,23.468,2.874,7.954,22.824,4.689,25.11,5.366-3.364,7.422-14.831,6.801-21.18,4.064-10.013-4.748-11.037-16.316-3.62-24.004-4.199.054-7.879-3.148-9.55-6.835,0,0-1.1-1.604-1.1-1.604l-.4-.281c-3.09-5.813.96-10.976.74-16.98Z"/>
  <path class="st2" d="M1187.96,372.779c2.246-11.697,17.645-14.647,24.35-5.01,3.715,6.068,4.553,15.187,1.92,21.816-2.97,7.005-19.02,15.775-16.27,23.468,2.874,7.954,22.824,4.689,25.11,5.366-3.364,7.422-14.831,6.801-21.18,4.064-10.013-4.748-11.037-16.316-3.62-24.004,8.366-1.384,13.006-10.073,13.06-17.971.391-16.73-13.407-20.511-23.37-7.729Z"/>
  <path class="st2" d="M1187.62,390.04c-.328-5.733-.448-14.445,5.95-16.932,12.187.709,6.672,25.765-4.85,18.536l-1.1-1.604Z"/>
  <path class="st3" d="M1233.16,378.226c2.153-14.95,21.779-16.115,28.02-3.381,6.283,10.693,1.011,32.407-14.18,29.617-8.775.798-12.997-6.192-14.89-13.677.91-1.699,1.12-2.645.86-4.562l-.12.144c-.71-1.203.42-6.295.31-8.141Z"/>
  <path class="st2" d="M1233.16,378.226c2.153-14.95,21.779-16.115,28.02-3.381,6.283,10.693,1.011,32.407-14.18,29.617,13.968-2.742,16.764-22.602,7.69-31.954-2.23-2.312-5.29-3.754-8.54-3.651-6.84.219-8.97,4.858-12.99,9.369Z"/>
  <path class="st2" d="M1232.97,386.223c1.552-3.474,4.359-10.496,9.26-8.688,4.527,3.317,5.558,19.263-1.48,19.919-4.174-.572-6.53-3.288-8.64-6.669.91-1.699,1.12-2.645.86-4.562Z"/>
  <path class="st2" d="M1243.2,346.958c7.726-1.397,14.793,2.023,20.4,7.131,2.5,2.234,5.91,5.958,6.07,9.422-1.39,1.682-1.65,1.654-3.66,2.205-2.37-2.038-4.84-4.174-7.57-5.726-4.79-2.728-13.45-4.493-16.73-8.719-.16-2.308.23-2.469,1.49-4.313Z"/>
  <path class="st2" d="M1201.88,343.958c3.88-.192,8.31-.761,11.62,1.667.97,1.749,1.11,1.902.92,4.006-3.54,3.816-13.56,2.462-18.79,3.713-1.834,1.408-5.618,4.155-7.42,1.409.172-6.862,7.925-9.739,13.67-10.795Z"/>
  <path class="st2" d="M1210.78,442.982c8.254-.933,18.78.632,24.76,6.887l-.39,1.038c-3.77,1.194-7.19-.22-10.88-1.173-7.03-3.064-17.91,2.448-23.74-1.535l.65-1.341c2.98-2.298,6-2.992,9.6-3.876Z"/>
  <path class="st2" d="M1295.97,411.222c.19.86.07,1.64.01,2.513-1.11,1.727-1.96,3.558-3.94,4.368l-.46-1.498c5.27-9.984-1.86-7.307-2.56-13.039-.12-1.009.29-1.709.97-2.439,1.94-1.942,9.029-7.223,11.39-4.045l-.38,2.018c1.596,4.763-2.153,8.764-5.03,12.122Z"/>
  <path class="st10" d="M1301,399.1c1.596,4.763-2.153,8.764-5.03,12.122.93-3.153-.23-4.555-1.68-7.338,1.172-2.385,4.604-3.36,6.71-4.784Z"/>
  <path class="st7" d="M1197.45,623.776c5.6.145,13.56,2.841,19.55,3.655,16.94,2.305,57.63,4.723,72.49-3.699,3.626,7.116-10.566,32.308-13.4,40.635-4.616,11.574.961,15.694,11.49,9.873,2.541,6.901-5.626,17.838.36,23.344,2.56,1.346,5.01.734,7.77.384,1.37,13.534-.38,28.311-.43,41.987-.06,18.443,1.14,36.988.71,55.397-.04,2.051-.2,3.64-1.12,5.516-12.6,3.936-26.17,1.298-38.82-.895,2.592-8.533-1.864-29.476-2.129-39.734-.831-12.613-.421-25.641-1.831-38.161-.16-1.438-.62-2.603-1.47-3.775,3.257-5.955-.496-53.506-2.4-58.307-9.99-1.249-19.94-2.44-29.9-3.894,5.353,2.424,10.65,4.966,15.89,7.626,1.863,4.51-2.35,30.35-2.539,36.961-.68,11.043-.36,91.648-1.02,93.149-.23.517-.25.525-.5.954-13.22,3.248-23.14,1.748-35.63-3.088,1.8-4.407.47-39.118.45-46.235.176-40.567.653-81.201,2.48-121.693Z"/>
  <path class="st1" d="M1222.04,298.197c20.94-.539,55.638,1.247,71.12,17.093,2.48,2.824,2.74,6.748,4.83,9.716,6.95,9.883,12.74,12.546,12.04,25.699-.46,8.686-2.43,24.095-8.94,30.021-5.16.222-9.7.815-14.68,2.28-.45-4.827-1.49-13.377-4.36-17.263,2.46-4.954-.41-15.634.09-21.461.495-5.797,4.651-7.602,5.63-12.656-6.05.107-12.05.117-18.1-.18-1.58-2.826-8.57-7.485-11.36-9.243-9.575,3.192-19.911,1.077-27.21-5.926-10.132,4.941-33.994,11.405-40.1-1.923.895-11.782,21.837-14.654,31.04-16.157Z"/>
  <path class="st18" d="M1297.51,571.84c5.29-.062,10.3-.933,15.54-1.373,3.03-.255,6.05-.615,8.47,1.425.19,2.192-.3,3.193-1.35,5.094,3.08,4.423,1.18,15.515.56,20.953-1.49,13.009-4.88,26.63-5.21,39.635-.552,15.907,6.136,33.728-3.82,48.017,1.866-5.41,2.768-12.457-1.05-17.258,2.832,9.326-1.439,22.624-10.85,26.706,4.541-7.079,6.193-22.02,1.95-29.523,1.195,10.598-2.791,25.304-13.75,29.394,4.389-7.801,7.396-29.437,4.45-38.105.07,5.928-5.919,12.848-11.41,14.719l-1.44-.418c-.68-2.853,11.3-27.085,13.07-32.252,3.11-9.108,7.56-49.708,4.69-58.248,1.03-2.909,1.35-5.863.15-8.766Z"/>
  <path class="st10" d="M1297.51,571.84c5.29-.062,10.3-.933,15.54-1.373,3.03-.255,6.05-.615,8.47,1.425.19,2.192-.3,3.193-1.35,5.094-4.661-1.283-9.09,1.653-13.59,2.564-3.06.704-6.17.545-9.22,1.056,1.03-2.909,1.35-5.863.15-8.766Z"/>
  <path class="st18" d="M1175.5,564.509c4.41-.615,9.36.139,13.81.418,2.881,6.813.011,31.603.1,40.51.03,5.879,2.98,11.535,2.85,17.332-.18,8.309-1.06,16.629-1.44,24.934-.39,8.442.41,18.366-1.72,26.534-1.501,1.645-3.578,3.509-5.9,2.836-3.174-8.371,4.605-18.762,0-26.908,1.727,5.967-1.752,11.66-6.71,14.756.67-4.187.51-8.132-1.67-11.864,1.22-2.346,1.06-4.562.99-7.146l-.61-.447-2.11.681c-9.057,9.892,11.418,34.591,3.65,37.941-12.543-4.044-12.442-24.911-10.39-35.322,1.33-6.479,4-12.634,5.01-19.194,1.06-6.847,5.07-61.615,4.14-65.061Z"/>
  <path class="st1" d="M1255.19,806.07c3.08-.336,6.24.708,9.27,1.229,10.38,1.78,20.61,2.519,30.81-.682,2.26,5.375,3.52,12.821,1.42,18.399-4.06,3.668-22.51,6.632-28.28,7.108-3.06,1.716-9.97,1.905-13.55,2.11-6.996.141-25.082,2.865-26.28-6.885.319-8.332,21.125-14.682,26.61-21.279Z"/>
  <path class="st0" d="M1239.31,664.281c1.54-.224,2.94-.614,4.41.105,3.652,31.423,1.552,63.619,3.921,95.239.699,11.713,4.309,31.251,3.449,41.736-1.5,2.572-5.49,4.261-8.13,5.458-1.301,1.623-2.947,2.852-5.02,2.801-.94-1.34-1.06-2.638-1.16-4.248-.47-7.735.56-15.875.46-23.683-.36-26.503-.78-52.958.25-79.457.39-9.999,3.62-29.078,1.82-37.951Z"/>
  <path class="st1" d="M1191.99,800.069c13.97-.897,19.8,3.792,36.72-.007,2.316,3.98,2.517,11.271.68,15.359-9.3,6.371-28.382,7.908-39.65,8.957-8.41.429-21.5,1.664-28.18-4.365-4.696-8.125,25.142-17.235,30.43-19.944Z"/>
  <path class="st10" d="M1268.66,460.985l.49.65c-.02,3.629-4.93,11.104-6.85,14.2-6.668,11.647-20.674,25.857-34.22,15.214-.39-2.688-3.55-8.078-5.45-10.035,16.487.447,36.403-5.828,46.03-20.029Z"/>
  <path class="st9" d="M1167.47,409.79c2.162,3.313.584,5.599-.64,8.853,2.901,3.227,1.8,8.594,2.69,12.637,1.42,9.363,4.69,19.86,9.74,27.932,4.56,7.303,11.55,10.598,17.04,16.61-2.44,4.044-7.785,8.346-11.12,13.192-9.31,13.52-13.41,32.816-16.62,48.722-1.46,7.191-1.68,16.623-4.35,23.296,2.1.777,5.11,1.462,6.83,2.849-.3,11.636-1.76,23.228-2.39,34.851-.47,8.582.08,17.713-1.28,26.184-1.011,5.098-2.841,14.63-7.3,17.936-39.544.559-152.978,5.748-194.325,6.9-9.164.369-17.748,4.834-26.645,4.803-17.73-.598-57.154-5.61-75.328-7.085-12.35-1.254-30.649-1.731-42.21-4.827,23.586-13.107,54.049-47.636,67.178-71.189,3.959,5.301,6.095,10.932,8.206,17.147,19.014-.763,28.617,14.62,23.066,32.098,4.832,1.324,9.179,4.341,13.753,5.527,8.704-.371,15.395.646,23.602,3.662,7.918-3.341,16.084-6.611,24.774-7.04,6.801-.335,15.797,3.753,21.729,1.342,6.331-6.185,5.725-16.328,13.18-22.718,4.76-4.062,13.13-3.031,16.5-5.953,1.36-1.181.41-18.012,10.74-25.405,3.77-2.698,8.15-2.222,11.53-4.243,2.46-15.009,1.36-30.735,25.4-33.124.78-2.498.36-5.48.48-8.103.917-16.888,7.284-28.872,25.69-28.893-3.526-23.285,2.758-43.368,28.75-46.866,1.92-7.429.9-14.316,5.11-21.404,6.75-11.376,14.75-10.709,26.11-13.75.69-1.693.44-2.184.11-3.941Z"/>
  <path class="st8" d="M1167.47,409.79c2.162,3.313.584,5.599-.64,8.853-13.659-1.634-23.473,12.41-24.13,24.784-.2,3.519-.02,7.079-.09,10.607-19.118-1.587-30.352,12.015-30.6,30.284-.08,5.315,2.51,11.63,1.76,16.605-17.099-3.581-25.867,7.282-27.21,23.351-.38,3.814.56,8.673-.86,12.163-7.43.715-14.37,2.303-19.35,8.375-7.53,9.19-2.15,25.908-5.88,26.348-.15.018-1.31-.1-1.4-.107-9.033-.121-19.041,7.389-19.4,16.831-.16,4.338.8,9.007-.74,13.148l-.89.773c-13.988-4.087-22.603,5.759-26.24,18.242-.893,3.073-.644,5.52-4.38,6.233-1.59-.463-2.52-.68-3.55-2.09,6.331-6.185,5.725-16.328,13.18-22.718,4.76-4.062,13.13-3.031,16.5-5.953,1.36-1.181.41-18.012,10.74-25.405,3.77-2.698,8.15-2.222,11.53-4.243,2.46-15.009,1.36-30.735,25.4-33.124.78-2.498.36-5.48.48-8.103.917-16.888,7.284-28.872,25.69-28.893-3.526-23.285,2.758-43.368,28.75-46.866,1.92-7.429.9-14.316,5.11-21.404,6.75-11.376,14.75-10.709,26.11-13.75.69-1.693.44-2.184.11-3.941Z"/>
  <path class="st20" d="M886.252,575.429c.455-1.468,1.584-2.732,2.488-3.975,3.959,5.301,6.095,10.932,8.206,17.147,19.014-.763,28.617,14.62,23.066,32.098,4.832,1.324,9.179,4.341,13.753,5.527,8.704-.371,15.395.646,23.602,3.662,7.918-3.341,16.084-6.611,24.774-7.04,6.801-.335,15.797,3.753,21.729,1.342,1.03,1.41,1.96,1.627,3.55,2.09-3.333,1.213-6.647,2.472-9.942,3.776-12.957-8.091-27.951-1.718-40.557,4.115-11.312-5.856-19.61-2.967-29.287-6.556-5.81-1.896-11.421-2.039-17.46-2.297,3.8-3.213,6.319-5.115,7.251-10.236.904-4.967.075-9.953-2.854-14.131-4.367-6.229-12.253-8.974-19.63-7.605-1.867.347-4.087,1.704-5.927,1.391l2.3-5.127c-.037-4.928-2.89-9.895-5.062-14.181Z"/>
  <path class="st8" d="M1468.74,285.65c2-4.045-3.08-19.762,6.02-31.529,6.34-8.193,13.73-9.674,23.42-10.867,1.98-1.772,1.64-8.641,2.08-11.543,2.525-17.116,17.639-27.301,34.46-23.852,1.06,2.637,1.03,2.593,0,5.248-8.18-.425-14.71.032-21.07,5.788-7.571,7.033-11.621,19.96-7.06,29.593l-.35,1.076c-3.03.59-6.16-.682-9.17-1.121-7.63-1.113-14.17,3.838-18.19,9.849-7.11,10.623-2.02,25.359-5.99,31.412-5.246-.118-11.248,1.462-15.09,5.231-4.63,4.549-4.74,10.928-8.23,15.541-2.11-1.83-4.08-3.08-6.9-3.398,10.073-8.768,1.921-18.679,26.07-21.428Z"/>
  <path class="st3" d="M1384.38,48.386c20.088-1.722,41.34,10.087,49.7,28.606,1.84,4.323,3.31,11.706,1.54,16.136,20.855-5.262,43.893,3.777,46.55,27.054,9.063-.983,19.83-.919,26.96,5.631,6.193,5.585,8.883,16.579,2.33,22.893-7.399,6.818-19.872,3.508-29.14,3.927-82.606-1.121-193.431.982-275.47-.442-.26-.75-.09-.458-.61-1.105-5.376-5.555-6.294-10.954-2.91-17.951,7.314-13.967,27.258-16.73,40.59-10.577,1.68-2.777,1.94-6.269,3.48-9.214,9.603-18.115,27.604-24.378,45.41-13.423l-.59-.151c5.408-15.93,19.421-33.126,38.151-28.289,4.099,1.005,10.4,3.009,12.719,6.785,3.25-3.682,4.1-9.252,7.24-13.264,8.36-10.692,21.05-14.928,34.05-16.616Z"/>
  <path class="st20" d="M1408.83,204.424c15.533-2.586,35.23,6.472,31.88,24.749-2.27,12.468-9.06,13.351-16.28,21.609-4.213,4.614-7.628,13.715-15.25,12.23-1.25-.992-2.07-1.921-2.74-3.394-3.22-7.024,1.01-9.489,3.12-15.563,8.645-5.241,21.62-17.234,7.66-24.669-8.35-4.214-14.53,10.384-22.03,12.512-9.728,2.286-15.489-4.757-9.23-13.3,5.29-8.678,13.39-11.856,22.87-14.174Z"/>
  <path class="st20" d="M1407.39,268.189c12.118-3.781,20.532,12.673,6.57,16.506-4.786,1.315-11.687-.693-11.4-6.629-.14-4.764,1.72-6.705,4.83-9.877Z"/>
  <g>
    <path class="st20" d="M1249.923,199.119c14.375-2.589,32.374,4.332,32.43,21.05.06,14.04-7.84,16.342-16.31,24.893-4.685,4.576-7.556,12.969-15.09,13.103-1.65-.721-2.47-1.36-3.38-2.949-3.56-6.256-.14-9.617,1.33-15.586,8.023-5.305,25.747-19.774,8.33-25.587-10.44-3.558-11.61,9.758-19.29,12.875-3.993,1.408-11.011,1.099-12.83-3.468-.81-2.519.43-5.904,1.63-8.169,5-9.419,13.4-13.316,23.18-16.162Z"/>
    <path class="st20" d="M1250.623,262.78c9.205-2.896,14.403,10.09,5.75,14.349-9.917,4.259-15.863-10.582-5.75-14.349Z"/>
  </g>
  <path class="st0" d="M286.353,612.957c5.21-.06,10.025.529,15.103,1.681,10.012,5.546,14.04,12.4,16.943,23.253.992-.823,1.134-1.524,1.572-2.695,9.504-17.716,32.349-19.16,40.88.493,5.428-3.033,11.037-6.3,17.284-7.16l1.83.577c-.363,46.316,28.87,81.173,50.581,119.168-14.384,26.929-42.947,45.047-61.842,68.433-1.438,2.161-2.108,4.897-2.822,7.373-26.76,23.403-47.562,39.672-20.097,72.952,28.672,34.31,74.429,56.516,119.671,49.784,8.622-1.271,19.381-3.888,24.818-11.367,3.863-5.314,4.261-12.059,3.22-18.343-2.782-16.779-14.058-26.32-27.168-35.612,23.8-.966,47.479-.826,71.295-.707-1.026,6.82-2.966,14.116,1.353,20.225,21.956,26.393,136.028,43.326,163.52,19.189,6.155-4.629,8.912-9.434,9.983-17.032.076-31.649-41.241-39.841-65.477-46.547,14.416-27.585,28.975-59.114,33.168-90.194,5.357-39.702-15.75-61.954-38.091-91.228,59.03,21.527,127.683-3.813,179.486-32.557,11.561,3.096,29.86,3.573,42.211,4.826,18.461,1.494,57.426,6.465,75.327,7.087,8.897.03,17.481-4.435,26.645-4.803,41.902-1.175,154.007-6.314,194.325-6.901.613,2.204,1.22,4.289-.67,6.023,3.08,11.829-3.57,18.699,5.31,31.765,4.83,7.343,15.592,15.416,19.6,2.76,1.99-.766,3.26-.824,5.36-.527,1.86,5.739-.49,21.705-.64,28.815-.21,9.475,1.5,79.667.35,82.285-10.132,7.553-28.947,7.74-36.06,23.786,3.95,6.567,5.66,8.959,13.42,10.959,16.47,4.239,38.06,1.56,54.11-3.575.824,1.317,1.304,2.524,1.72,4.018,1.51,5.404,4.74,5.985,6.6,9.516,21.918,3.496,42.341.528,63.55-5.343,8.5.441,17.93-2.406,25.65-5.877,2.77.742,5.54,1.186,7.68,3.215.615,1.772.528,3.605-.78,5.074-1.53,2.035-3.96,5.024-6.24,6.229,5.5,9.139,19.62,12.855,29.55,15.347,4.71,1.183,20.55,3.054,23.67,5.418,4.993,4.963-8.08,13.542-11.56,16.022-22.905,15.541-71.593,31.964-66.25,65.986-18.234,7.595-36.639,8.367-40.22,32.558-15.97,6.851-34.61,16.724-41.34,33.914-1.35,3.45-2.45,10.4-4.75,12.78H0v-234.596c8.593-2.646,14.066-4.967,19.679-12.295,5.198,15.014,22.649,23.414,37.828,19.546,8.425-2.283,12.725-7.713,16.951-14.944,15.918,16.425,48.237,23.938,61.422.554,12.702,8.881,28.617,13.815,44.086,11.136,8.081-1.4,15.192-4.326,20.047-11.129,1.219-3.011,1.719-6.449,2.388-9.628,15.464,14.471,34.193,17.899,54.544,14.717-4.093-5.866-8.482-11.44-12.403-17.446,28.949,13.154,50.424,22.858,83.071,16.622-14.047-9.217-23.962-18.366-33.24-32.493,25.595,15.417,47.72,23.29,76.916,12.874-39.073-11.889-61.409-46.816-71.777-84.401-8.189-21.782-10.951-46.502-13.158-69.561Z"/>
  <path class="st10" d="M810.78,648.041c3.394-2.394,6.932-3.888,10.782-5.398,11.561,3.096,29.86,3.573,42.211,4.826,18.461,1.494,57.426,6.465,75.327,7.087,8.897.03,17.481-4.435,26.645-4.803,41.902-1.175,154.007-6.314,194.325-6.901.613,2.204,1.22,4.289-.67,6.023,3.08,11.829-3.57,18.699,5.31,31.765,4.83,7.343,15.592,15.416,19.6,2.76,1.99-.766,3.26-.824,5.36-.527,1.86,5.739-.49,21.705-.64,28.815-.21,9.475,1.5,79.667.35,82.285-10.132,7.553-28.947,7.74-36.06,23.786,3.95,6.567,5.66,8.959,13.42,10.959,16.47,4.239,38.06,1.56,54.11-3.575.824,1.317,1.304,2.524,1.72,4.018,1.51,5.404,4.74,5.985,6.6,9.516,21.918,3.496,42.341.528,63.55-5.343,8.5.441,17.93-2.406,25.65-5.877,2.77.742,5.54,1.186,7.68,3.215.615,1.772.528,3.605-.78,5.074-1.53,2.035-3.96,5.024-6.24,6.229,5.5,9.139,19.62,12.855,29.55,15.347,4.71,1.183,20.55,3.054,23.67,5.418,4.993,4.963-8.08,13.542-11.56,16.022-22.905,15.541-71.593,31.964-66.25,65.986-18.234,7.595-36.639,8.367-40.22,32.558-15.97,6.851-34.61,16.724-41.34,33.914-1.35,3.45-2.45,10.4-4.75,12.78h-617.426c60.394-29.265,128.257-45.859,192.34-65.796,31.984-11.183,175.046-39.581,158.634-86.609-8.222-15.336-39.649-19.091-55.238-25.768-6.013-3.674-13.597-9.058-13.404-16.867,15.466-40.162,178.322-33.388,216.973-69.657,6.568-4.964,13.786-15.034,7.101-22.659-4.698-19.577-48.347-27.583-65.329-34.184-18.601-6.392-80.829-28.788-90.804-42.176,1.43-1.342,5.203-.911,7.221-1.004-45.184-3.905-92.208-5.805-137.418-11.238Z"/>
  <path class="st0" d="M810.78,648.041c3.394-2.394,6.932-3.888,10.782-5.398,11.561,3.096,29.86,3.573,42.211,4.826,18.461,1.494,57.426,6.465,75.327,7.087,8.897.03,17.481-4.435,26.645-4.803,41.902-1.175,154.007-6.314,194.325-6.901.613,2.204,1.22,4.289-.67,6.023,3.08,11.829-3.57,18.699,5.31,31.765,4.83,7.343,15.592,15.416,19.6,2.76,1.99-.766,3.26-.824,5.36-.527,1.86,5.739-.49,21.705-.64,28.815-.21,9.475,1.5,79.667.35,82.285-10.132,7.553-28.947,7.74-36.06,23.786-10.336,2.279-19.565,7.831-24.79,17.223-32.08-11.414.778-27.33,13.7-38.679,19.288-16.821,28.162-47.049,9.87-67.886-34.316-47.145-108.129-44.691-160.313-57.363-12.876-3.027-25.667-9.238-37.553-11.912-1.87-.421-4.145-.068-6.036.137-45.184-3.905-92.208-5.805-137.418-11.238Z"/>
  <path class="st8" d="M810.78,648.041c3.394-2.394,6.932-3.888,10.782-5.398,11.561,3.096,29.86,3.573,42.211,4.826,18.461,1.494,57.426,6.465,75.327,7.087,8.897.03,17.481-4.435,26.645-4.803,41.902-1.175,154.007-6.314,194.325-6.901.613,2.204,1.22,4.289-.67,6.023l-.45-1.254c-6.97-.978-14.88.117-21.95.416-55.019,2.318-123.057,3.883-177.757,7.357,46.38,21.152,177.176,15.793,193.617,71.994l-.76,1.029c-34.316-47.145-108.129-44.691-160.313-57.363-12.876-3.027-25.667-9.238-37.553-11.912-1.87-.421-4.145-.068-6.036.137-45.184-3.905-92.208-5.805-137.418-11.238Z"/>
  <path class="st9" d="M1153.32,817.759c3.95,6.567,5.66,8.959,13.42,10.959,16.47,4.239,38.06,1.56,54.11-3.575.824,1.317,1.304,2.524,1.72,4.018,1.51,5.404,4.74,5.985,6.6,9.516-33.049,4.589-68.611,7.522-100.64-3.695,5.224-9.392,14.456-14.945,24.79-17.223Z"/>
  <path class="st25" d="M1318.37,827.457c2.77.742,5.54,1.186,7.68,3.215.615,1.772.528,3.605-.78,5.074-1.53,2.035-3.96,5.024-6.24,6.229-1.4-1.459-2.13-1.112-4.09-1.202l.41-.022-2.22-.189,4.31-.627c.57-2.999,1.57-5.157,4.09-6.957,1.01,1.302-.2,3.254-.38,4.905,1.813-1.946,3.192-4.34,2.37-7.016-1.8-1.287-4.56-.766-6.68-.674-7.34,6.16-10.484,8.791-19.79,4.161-3.13.425-6.26.482-9.42.569,1.72-.452,3.4-1.03,5.09-1.589,8.5.441,17.93-2.406,25.65-5.877Z"/>
  <path class="st21" d="M1016.03,928.161c5.473-.221,12.31-1.216,16.55,2.972.32,1.914.12,2.223-.58,3.955-1.94,1.362-3.17,1.151-5.44,1.259-3.726-.103-15.041.392-15.64-4.563,1.24-1.977,3.09-2.641,5.11-3.623Z"/>
  <path class="st21" d="M1044.99,944.092c4.761-1.071,10.595-.584,13.47,3.833l-.58,1.599c-4.562,3.233-13.323,4.03-16.18-1.729.57-2.472,1.22-2.389,3.29-3.703Z"/>
  <path class="st21" d="M1274.07,883.339c4.852-.935,11.079-.81,15.11,2.357l-.2,1.308c-3.784,2.245-17.15,4.004-18.93-1.229,1.21-1.567,2.21-1.718,4.02-2.436Z"/>
  <path class="st21" d="M1068.42,933.595c2.55-.191,3.57-.342,5.96.746l.34,1.133c-1.9,1.61-3.01,1.522-5.41,1.831-1.36-.184-2.55-.508-3.85-.919l.23-1.05,2.73-1.741Z"/>
  <path class="st9" d="M466.325,881.494c23.8-.966,47.479-.826,71.295-.707-1.026,6.82-2.966,14.116,1.353,20.225,11.733,16.601,59.074,25.195,78.13,27.894,26.795,3.76,88.778,10.693,95.373-25.737,9.264-.082,26.275,3.577,30.651,12.107,2.728,11.065-26.642,17.849-34.1,20.703-60.839,19.182-148.9,21.208-213.274,20.37-60.888-.166-123.282-5.415-181.087-25.576-9.181-3.598-29.197-8.541-32.566-18.16-.234-16.198,52.69-14.715,63.683-15.581,28.672,34.31,74.429,56.516,119.671,49.784,8.622-1.271,19.381-3.888,24.818-11.367,3.863-5.314,4.261-12.059,3.22-18.343-2.782-16.779-14.058-26.32-27.168-35.612Z"/>
  <path class="st9" d="M0,789.404c8.593-2.646,14.066-4.967,19.679-12.295,5.198,15.014,22.649,23.414,37.828,19.546,8.425-2.283,12.725-7.713,16.951-14.944,15.918,16.425,48.237,23.938,61.422.554,17.571,12.607,48.848,19.016,64.133.007,5.115,2.734,16.924,6.108,12.581,13.812-5.899,4.413-24.618,4.994-32.181,5.622-59.511,5.095-121.376,6.267-180.412-3.951v-8.351Z"/>
  <path class="st8" d="M580.325,1024c17.407-12.29,49.295-22.62,70.047-29.808,42.347-14.646,85.06-28.13,128.14-40.452,41.648-13.663,140.084-32.442,160.348-72.042,1.412-3.282,1.611-6.763,2.817-10.105,16.494,46.912-126.411,75.396-158.631,86.614-64.063,19.922-131.98,36.545-192.342,65.793h-10.379Z"/>
  <path class="st8" d="M886.44,845.826c-8.213-.185-19.261-7.671-17.646-16.963,16.582-52.199,218.787-34.618,228.316-92.22,6.66,7.638-.519,17.688-7.1,22.661-13.06,10.844-32.11,16.327-48.27,20.403-19.068,9.437-221.678,23.745-155.3,66.119Z"/>
  <path class="st8" d="M318.567,685.611c11.291-14.132,26.509-10.231,33.946,5.177-.054,3.772-.028,7.566-.239,11.332,5.359-2.564,9.141-3.487,14.933-1.466,6.766,2.059,11.445,7.977,7.704,14.893-.448.963-.842,1.413-1.659,2.052-4.336-3.347-.93-14.982-12.073-13.469-5.88.788-9.425,4.421-13.1,8.689-.169-9.304.394-20.77-7.043-27.743-10.808-9.396-20.243,6.769-23.589,15.69-2.203-10.322-5.566-19.254-17.937-18.248-.411-1.569-1.214-3.194-1.803-4.718,8.176-.37,15.724.539,20.86,7.811Z"/>
  <path class="st9" d="M228.481,838.541c1.423,7.369-3.468,30.019-10.928,33.01-4.981-12.178,2.614-24.415,10.928-33.01Z"/>
  <path class="st9" d="M256.835,850.071c1.826-.168,2.831-.509,4.498.314-4.613,8.388-20.153,16.204-28.606,20.418l-.759-.986c2.705-10.37,15.853-16.175,24.867-19.746Z"/>
  <path class="st9" d="M188.505,842.006c9.297,1.887,15.75,11.325,19.955,19.07-.028,2.366-.293,4.764-.457,7.127l-1.122.04c-5.651-2.966-16.165-20.146-18.376-26.237Z"/>
  <path class="st9" d="M206.285,926.614l.544.983c-.086,7.947-6.225,22.155-11.778,28.072-4.564-10.658,1.776-23.411,11.234-29.055Z"/>
  <path class="st9" d="M332.387,971.909l1.364.531.319,1.209c-3.394,8.367-7.916,18.795-13.704,25.711-7.087-8.865,4.538-22.589,12.021-27.451Z"/>
  <path class="st9" d="M105.936,950.332l.934.566c.092,4.84-11.834,23.733-15.5,26.496-1.001-.7-1.556-1.355-2.261-2.35-.797-10.038,9.401-19.374,16.827-24.712Z"/>
  <path class="st9" d="M116.89,856.978c-2.504,8.664-10.592,17.563-18.222,22.009-1.216-4.662,2.287-11.431,5.18-14.985,3.786-4.495,7.183-6.468,13.042-7.024Z"/>
  <path class="st9" d="M292.295,974.738c5.527,1.644,10.606,5.327,15.411,8.428,3.115,4.776,5.146,9.854,5.053,15.596-5.11-.38-17.567-19.421-20.464-24.024Z"/>
  <path class="st9" d="M47.145,963.799c9.194,1.125,20.002,5.388,24.374,14.087-.102,1.796-.002,2.448-1.012,3.978-7.236-6.265-16.668-10.04-24.114-16.14l.752-1.925Z"/>
  <path class="st9" d="M70.32,952.389c8.797,4.975,12.741,16.082,12.404,25.755-1.664-.05-2.659-.114-4.098-.987-4.892-7.521-6.422-16.161-8.306-24.768Z"/>
  <path class="st9" d="M52.766,862.034c11.475-.896,25.554,5.039,27.675,17.456-3.388-.682-23.805-14.635-27.675-17.456Z"/>
  <path class="st9" d="M221.951,940.219c2.053-.144,4.482-.653,6.333.397-.999,4.01-12.813,10.658-16.518,13.528-1.76,1.03-2.538,1.849-4.605,1.698l-.604-1.359c1.763-7.15,8.73-12.152,15.394-14.264Z"/>
  <path class="st9" d="M166.135,937.679c11.556.739,21.897,3.911,23.356,17.04-4.155,1.549-19.133-13.982-23.356-17.04Z"/>
  <path class="st9" d="M752.241,808.428c6.214,6.077,8.432,16.372,6.286,24.666l-3.569.856-1.19-.942c-3.469-6.463-1.766-17.33-1.527-24.58Z"/>
  <path class="st9" d="M81.896,852.023c6.619,6.766,9.229,18.452,8.39,27.629l-1.533-.232c-6.914-6.971-6.714-18.179-6.858-27.397Z"/>
  <path class="st9" d="M915.073,761.518c2.98,5.57.369,17.51-4.807,21.285-5.382-7.73-3.38-16.695,4.807-21.285Z"/>
  <path class="st9" d="M818.292,698.414c8.785,2.236,17.08,12.187,16.216,21.462-7.019-1.588-13.999-15.197-16.216-21.462Z"/>
  <path class="st9" d="M883.933,762.14c8.873,1.493,19.17,7.896,17.625,18.107-5.908-.167-13.278-13.648-17.625-18.107Z"/>
  <path class="st9" d="M127.574,868.792c1.938-.166,3.724-.48,5.564.316l-.15,1.181c-4.914,4.791-11.933,8.671-18.215,11.483l-.972-.773c1.297-6.44,7.52-11.036,13.773-12.207Z"/>
  <path class="st9" d="M780.733,814.015l.292.301-.051,1.293c-3.297,4.901-10.746,13.471-15.777,16.42-4.392-9.424,8.414-15.502,15.536-18.014Z"/>
  <path class="st9" d="M852.663,700.724l.423.606c-2.862,6.206-2.515,15.355-9.786,18.323-3.512-4.873.222-10.918,2.779-15.368l6.584-3.561Z"/>
  <path class="st9" d="M725.434,817.648c9.749.235,18.921,6.89,21.532,16.368-5.328.289-17.062-12.62-21.532-16.368Z"/>
  <path class="st9" d="M348.631,982.645c1.167-.117,1.666-.056,2.716.471-1.326,4.603-12.38,11.384-16.522,14.139-.909.2-1.338.1-2.236-.067l-.042-1.138c4.072-6.919,8.696-10.521,16.084-13.405Z"/>
  <path class="st9" d="M789.308,822.172l10.301,1.312c-5.569,2.226-11.081,4.382-16.332,7.306-1.789.784-3.095,1.847-4.996,1.166.563-5.077,6.972-7.931,11.027-9.784Z"/>
  <path class="st9" d="M873.432,707.702l.067.958c-2.495,5.709-9.005,8.662-14.455,10.835-.789-3.966,2.309-6.816,4.867-9.386,3.019-1.116,6.382-1.68,9.521-2.407Z"/>
  <path class="st9" d="M116.89,964.809l1.478.129.033.937c-3.203,4.372-8.187,8.505-12.537,11.712l-1.806-1.424c-1.315-6.31,8.044-9.988,12.832-11.354Z"/>
  <path class="st9" d="M936.378,769.114c.563.033.927.383,1.393.682-2.723,3.869-10.78,6.254-15.144,8.043l-1.168-1.037c4.246-4.645,8.731-6.768,14.919-7.688Z"/>
  <path class="st0" d="M315.087,271.472c5.824-9.101,12.686-17.033,23.728-19.524,19.682-4.39,34.513,11.046,34.234,30.253,17.048-6.823,33.063,2.503,38.151,19.627-37.85,12.611-64.793,42.037-80.235,78.256-3.978,8.311-.161,13.932,5.174,20.268-5.067,9.097-8.798,19.622-14.342,28.304-4.091,6.407-10.935,10.531-15.035,16.895-10.822,16.796-21.805,58.805-22.568,78.746l-1.368-.515c-1.588-79.771,3.529-159.253,11.198-238.647.552-4.425.733-9.692,2.004-13.902.551-1.823.518-1.872,2.198-2.808-.805-.579-.995-1.279-1.434-2.163,6.02-4.424,13.811.765,18.295,5.21Z"/>
  <path class="st20" d="M315.087,271.472c5.824-9.101,12.686-17.033,23.728-19.524,19.682-4.39,34.513,11.046,34.234,30.253,17.048-6.823,33.063,2.503,38.151,19.627-1.693.387-3.157.819-4.737,1.543-6.386-18.983-21.519-22.458-38.351-13.689.258-5.825.602-11.417-1.058-17.095-3.383-12.826-16.299-19.222-28.708-15.018-11.85,3.809-18.865,14.41-24.237,24.934-3.617-8.262-6.541-12.639-15.883-14.078-.805-.579-.995-1.279-1.434-2.163,6.02-4.424,13.811.765,18.295,5.21Z"/>
  <path class="st0" d="M528.74,710.485c17.925,14.759,35.834,29.468,55.188,42.334-4.594,30.983-23.677,58.801-32.288,88.564.876,2.264,2.084,4.297,3.287,6.397-8.355,9.285-15.11,20.629-17.307,33.007-23.816-.119-47.495-.259-71.295.707-3.767-1.995-11.536-6.199-12.946-10.12,1.034-8.762,43.923-41.08,52.697-49.435,36.411-31.126,38.006-68.693,22.664-111.454Z"/>
  <path class="st7" d="M385.762,633.426c65.924,32.525,144.537,41.808,214.641,17.533,9.56,8.273,21.006,13.308,30.669,21.093,12.738,10.264,36.635,47.276,41.341,62.942,9.065,30.175-12.148,82.75-26.56,109.8-29.348,9.121-60.407,8.877-84.011-12.965,9.196-19.835,24.761-56.103,27.447-77.416,7.749,2.225,14.366,1.637,22.143.225-33.912-7.428-54.786-34.018-82.062-52.501,16.071-3.871,30.086-9.45,40.905-22.622-13.373,6.645-27.192,13.468-42.289,14.663-7.676-.555-16.662-11.592-22.854-16.665,18.751,29.456,34.62,69.537,22.697,104.427-9.354,25.552-36.298,43.985-56.519,60.675-4.957,4.091-11.768,11.432-17.702,13.83-24.999,8.281-63.679-10.606-70.341-36.745l-.748-.147c-.317,13.644,11.5,24.502,22.133,31.278,15.141,9.517,31.739,11.482,49.004,7.558-4.171,4.186-7.357,9.043-13.299,10.831-12.394,3.73-29.112-1.271-40.071-7.214-13.903-7.348-30.815-24.386-25.363-41.434,3.09-6.019,10.69-11.895,15.601-16.715,15.701-15.411,33.277-30.87,43.928-50.36,6.105,6.705,9.385,9.336,18.496,10.842-28.777-37.202-61.567-83.267-67.186-130.913Z"/>
  <path class="st18" d="M637.585,178.618c4.452-2.836,19.142-6.895,24.298-5.575,1.91.489,2.499,2.563,3.379,4.185-.799,2.317-1.288,3.757-.522,6.146.704.818.839,1.38,1.961,1.537,6.66.932,15.914-12.039,24.233-2.613,5.33,6.039,4.967,17.51,5.284,25.163-14.805-19.287-33.58-6.934-34.602,14.215-.612,13.704,2.129,28.901,19.296,27.54,15.49-1.183,44.349-11.27,43.489,14.401-.149,5.813-2.622,10.351-6.032,14.92-16.27,20.087-39.94,21.365-60.525,6.897,5.665,18.295,30.161,20.055,45.321,13.43-1.321,40.129-24.211,82.818-65.655,92.597-35.976,8.85-73.694-11.501-91.882-42.556-.446-10.01-14.782-23.451-16.795-35.991-29.282,25.705-58.316-12.581-51.938-42.681,2.583-15.405,12.37-28.408,29.419-25.993,19.858,2.226,16.253,21.093,32.29,28.003,21.288-21.093,28.17-53.026,21.856-81.831-.559-1.644-1.133-2.402-.574-4.08,13.071-3.169,26.115-6.515,38.835-10.92-4.079,5.966-6.588,10.918-7.754,18.056,1.621,1.896,2.198,2.545,4.563,3.073,2.696-1.05,4.171-3.697,5.84-5.952,4.028-4.685,9.898-8.467,16.074-9.427,6.956-1.08,11.729,1.074,17.24,5.114,1.258.648,1.9.509,3.25.341l1.07-1.417c.417-2.824-.001-4.129-1.419-6.583Z"/>
  <path class="st10" d="M657.844,285.435c3.968-1.807,8.791.646,12.902,1.348,7.2,1.099,15.266,1.606,22.519,1.007,9.487-.776,16.194-7.699,25.104-9.252-16.28,20.1-39.941,21.357-60.525,6.897Z"/>
  <path class="st10" d="M560.459,190.413c-.558-1.644-1.132-2.402-.573-4.08,13.071-3.169,26.115-6.515,38.835-10.92-4.079,5.966-6.588,10.918-7.754,18.056l-.43-3.267c-5.292-4.882-21.88-1.111-29.019-1.113l-1.059,1.324Z"/>
  <path class="st10" d="M601.37,190.59c8.61-10.131,22.679-13.341,33.314-4.313-2.427,1.096-30.097,4.536-33.314,4.313Z"/>
  <g>
    <path class="st2" d="M595.577,285.98c3.572-.069,6.126.941,8.793,3.301-1.697,2.324-6.341.708-8.645,3.675,2.316,4.562,25.251,15.108,31.139,17.458,18.347,7.321,40.01,11.88,58.789,3.855-3.462,5.288-5.108,7.788-11.398,9.799-3.457,15.096-10.553,30.039-23.619,38.963-18.022,12.779-42.98,2.739-53.692-14.874-10.272-15.58-14.019-35.248-10.194-53.513-3.309,2.5-6.654,4.671-10.252,6.731,3.897-9.717,8.763-13.711,19.079-15.395Z"/>
    <path class="st3" d="M593.17,298.986c18.637,11.442,37.999,24.081,60.483,25.334,3.579.185,7.201-.286,10.768.115,1.077.121,1.558.4,2.374,1.066-.173,2.408-1.519,3.479-2.981,5.305-16.431,11.274-53.664-4.152-65.754-17.237-4.473-4.871-5.168-8.005-4.89-14.583Z"/>
    <path class="st14" d="M595.271,332.004c20.619,6.173,30.043,11.854,41.813,30.064-21.779,2.539-34.037-11.634-41.813-30.064Z"/>
  </g>
  <path class="st3" d="M614.164,261.034c-13.85-.146-19.218-16.505-18.669-28.138.256-9.819,4.118-21.228,11.436-28.049,8.308-8.368,22.333-6.962,29.825,1.769,5.081,5.791,6.328,13.401,5.786,20.856.386,4.305,1.301,8.285.486,12.592-.143,10.467-3.451,21.45-16.239,19.619-4.226,1.732-8.072,2.783-12.625,1.351Z"/>
  <path class="st2" d="M626.789,259.683c-7.596-5.974-9.709-17.295-5.484-25.854,2.431-5.384,9.141-10.232,14.871-6.616,4.572,2.781,5.608,8.066,6.852,12.851-.144,10.481-3.454,21.445-16.239,19.619Z"/>
  <path class="st2" d="M614.164,261.034c-13.851-.148-19.217-16.504-18.669-28.138.256-9.819,4.118-21.228,11.436-28.049,8.306-8.369,22.334-6.961,29.825,1.769,5.081,5.791,6.328,13.401,5.786,20.856-2.543-12.182-10.105-26.345-24.839-22.321-15.41,5.314-19.323,26.541-15.328,40.598,2.082,6.583,6.205,11.366,11.79,15.284Z"/>
  <path class="st2" d="M488.761,272.302c7.24-21.185,26.728-8.665,32.168,6.519,2.493,6.586,3.217,12.692-2.538,17.809-3.312,3.26-9.157,5.182-12.809,1.437-15.854,1.309-21.393-12.39-16.821-25.766Z"/>
  <path class="st10" d="M488.761,272.302c10.36-10.526,16.092-5.748,24.129,4.073-9.835,2.787-15.013,13.643-7.308,21.693-15.854,1.309-21.393-12.39-16.821-25.766Z"/>
  <path class="st10" d="M506.419,298.754c.726-1.04,1.039-.984.82-2.295-1.497-6.078-.939-15.416,7.069-15.794,3.347,1.624,4.783,5.534,7.385,8.134l1.221-.439c-.747,6.895-9.742,15.058-16.495,10.394Z"/>
  <path class="st9" d="M862.497,522.514c11.661-1.362,15.31-15.529,24.051-12.884,4.662,6.592-1.897,23.461.169,33.854-1.773,3.853-7.496,15.815-9.267,19.301-22.128,35.455-53.83,63.289-92.175,80.173-53.876,24.188-125.381,38.447-173.073-5.435,4.154-5.177,5.355-11.935,9.744-16.783l2.532-4.307c6.699-10.6,10.863-22.681,7.88-35.264-1.12-4.722-2.968-9.334-3.718-14.134-2.313-10.057,8.569-16.484,14.457-22.902,2.322-2.528,4.362-5.415,6.416-8.164,31.725,31.379,70.861,42.137,114.41,38.01,31.438-8.116,71.034-22.524,90.886-50.148,2.45-.894,5.11-1.026,7.688-1.317Z"/>
  <path class="st0" d="M621.946,620.74c42.832,23.371,103.181,22.564,150.733,27.909-51.84,19.245-116.299,30.084-160.477-11.126,4.154-5.177,5.355-11.935,9.744-16.783Z"/>
  <path class="st8" d="M624.478,616.433c29.327,19.402,123.526,24.667,160.797,26.524-4.074,2.374-8.205,4.033-12.596,5.692-47.508-5.338-107.948-4.547-150.733-27.909l2.532-4.307Z"/>
  <path class="st12" d="M862.497,522.514c11.661-1.362,15.31-15.529,24.051-12.884,4.662,6.592-1.897,23.461.169,33.854l-6.826,14.395c-3.33-2.082-6.637-2.708-10.116-4.304,1.206-11.5,1.995-22.499-7.278-31.061Z"/>
  <path class="st8" d="M763.923,573.979c3.282-1.279,6.829-1.962,10.254-2.776,8.117,3.289,13.706,6.794,17.652,14.933,1.08,2.229.304,6.988,2.177,8.173,6.574-.007,15.591-.11,20.675,4.772,2.715,2.348,1.838,6.554-.424,8.884-8.821-6.644-8.476-14.802-27.298-5.501,7.347-16.769-7.276-28.106-23.036-28.485Z"/>
  <path class="st8" d="M854.809,523.831c2.45-.894,5.11-1.026,7.688-1.317,9.279,8.572,8.481,19.558,7.278,31.061,3.479,1.596,6.786,2.222,10.116,4.304l-2.441,4.906c-5.593-3.361-9.63-3.819-16.004-2.932,5.789-15.955,7.569-24.35-6.637-36.022Z"/>
  <path class="st23" d="M324.988,521.964c-7.579-28.411,10.725-55.404,28.207-76.186,19.476-19.98,85.578-83.1,115.664-63.655,30.157,19.159,26.264,62.527,8.567,89.068-8.16,13.129-18.745,23.63-30.294,33.749l-13.332-8.387c16.095-11.378,33.585-22.957,40.216-42.55-12.563,17.444-28.668,25.926-45.286,38.748-11.939-11.168-21.829-20.054-39.158-19.581-3.385.092-7.276.267-9.73,2.811,3.467,1.15,7.299.987,10.899,1.58,11.658,1.918,23.455,7.807,31.014,17.022-7.284-2.275-23.214-7.347-29.95-2.836,4.746,2.162,11.523,2.075,16.781,3.067,11.39,2.148,32.516,10.102,41.469,17.485-27.489,7.489-42.915,39.757-36.417,66.558-33.523-9.224-75.425-20.806-88.649-56.893Z"/>
  <path class="st14" d="M324.988,521.964c8.578,3.105,13.744,13.307,21.332,18.286,4.98,3.267,10.501,5.529,15.751,8.299,10.128,5.342,18.756,11.359,30.014,14.35,6.505,1.72,13.273,1.007,19.751,3.147.322,4.382.809,8.528,1.801,12.811-33.523-9.224-75.425-20.806-88.649-56.893Z"/>
  <path class="st23" d="M661.472,409.58c28.205,22.932,44.511,57.447,79.743,71.36-7.042,6.819-14.553,13.672-14.658,24.31-.014,1.489.097,3.558,1.205,4.664,2.567-1.862,3.326-9.788,5.164-12.988,3.085-5.372,8.732-10.418,13.023-14.942,20.038-5.372,38.167-10.552,56.815-19.966,8.025-4.051,15.486-9.098,23.439-13.236-6.913,14.284-9.018,28.984-3.619,44.298,4.845,13.766,12.093,22.831,25.612,28.729-54.935,54.044-139.001,64.759-196.358,8.188,20.98-35.558,25.064-82.112,9.634-120.417Z"/>
  <path class="st14" d="M660.902,511.787c8.786,3.07,16.146,12.836,23.676,18.371,46.078,35.423,110.534,21.236,151.089-15.854,4.082,2.806,8.001,5.439,12.529,7.505-54.935,54.044-139.001,64.759-196.358,8.188,3.69-5.697,6.431-11.976,9.064-18.21Z"/>
  <path class="st23" d="M636.039,420.776c.214.25.59.654.766.968,1.977,3.533,2.408,10.922,2.921,15.014,3.674,29.295,2.873,59.752-4.562,88.443-3.126,12.063-10.414,26.26-11.869,37.995-1.894,15.274,8.693,19.688,1.459,40.125-4.335,12.249-12.741,16.899-23.881,22.235-9.847-13.205-18.05-27.558-26.295-41.805l2.146-10.291c13.695-2.315,25.102-5.662,36.952-13.134-12.236,3.563-23.15,7.087-35.834,8.979,8.072-29.908,13.474-60.078,17.361-90.79,3.174-.258,7.143.466,9.203-2.58,4.352-6.225-1.056-23.258-2.36-30.541,12.92-6.203,24.162-14.196,33.993-24.618Z"/>
  <path class="st21" d="M423.544,306.376c11.608-1.733,25.81.927,37.024,3.908,7.11,2.151,41.537,11.85,37.758,21.436-8.461,6.845-24.809,2.892-35.189,3.32-7.801.322-15.528,1.464-22.947,3.968-26.111,8.815-39.409,29.669-51.022,52.922-4.784,9.399-6.698,18.707-15.647,25.253-10.875-4.579-35.049-17.672-37.827-29.608-1.147-8.496,15.856-33.861,21.676-41.118,16.343-20.372,39.751-37.221,66.174-40.081Z"/>
  <path class="st23" d="M524.561,408.349c13.157,7.692,26.409,15.633,39.426,23.631,6.187,3.977,12.293,8.538,18.97,11.635-.948,8.577-6.103,24.716-2.043,32.524,2.676,1.448,6.055,1.067,9.018,1.059-3.034,34.092-11.272,68.201-18.394,101.602-2.454-3.529-4.452-7.59-6.597-11.326-4.003-5.66-1.293-15.021-3.303-21.796-10.467-32.359-35.947-49.684-69.214-36.74,24.544-27.609,40.346-63.35,32.137-100.588Z"/>
  <path class="st18" d="M441.483,573.472c.088-14.502,4.409-26.152,14.917-36.383,13.343-12.992,41.871-26.744,60.727-26.198,10.318.3,18.88,5.951,25.723,13.341,16.654,17.1,20.961,44.777-2.137,58.418,3.554-16.591,2.219-31.51-7.418-46.132-1.281-1.944-2.715-3.938-5.02-4.64-2.127,3.29,3.065,10.198,4.308,13.609,8.497,20.244,9.161,44.419-17.128,49.195,3.192-7.035,3.267-14.174,4.029-21.737-2.165-10.004-5.407-26.787-15.696-31.554l-.807.669c.27,4.318,3.801,9.145,5.681,13.041,9.545,18.991,8.973,39.622-14.384,46.551-6.893.017-11.105-2.83-16.225-7.105,8.24-1.573,12.004-2.988,12.581-12.081-.992-9.642-2.462-13.702-8.785-21.069,1.508,7.369,6.344,15.211,2.758,22.588-11.96,8.588-43.004,10.016-43.124-10.513Z"/>
  <path class="st10" d="M484.403,570.023c1.039,4.812,2.738,9.35.204,13.962-11.96,8.588-43.004,10.016-43.124-10.513,15.339,2.912,28.163,1.222,42.92-3.449Z"/>
  <path class="st10" d="M519.484,572.945c.267,1.699.485,3.403.656,5.114,5.548,1.527,12.259-3.082,17.689-4.027-2.631,11.802-10.659,18.647-22.374,20.65,3.192-7.035,3.267-14.174,4.029-21.737Z"/>
  <path class="st10" d="M490.634,582.466c2.146,1.397,2.527,1.346,3.178,3.775-1.234,5.415-4.261,8.794-1.352,14.197l1.818,1.214c-6.893.017-11.105-2.83-16.225-7.105,8.24-1.573,12.004-2.988,12.581-12.081Z"/>
  <path class="st19" d="M604.558,86.579c23.327-.415,39.322,7.598,54.292,24.919-41.467,19.093-80.748,42.15-117.482,69.221-13.495-19.358-19.17-46.928-11.377-69.443,22.095-15.358,47.835-23.245,74.567-24.697Z"/>
  <path class="st14" d="M372.814,573.54c8.433,2.947,41.063,11.824,44.905,14.785,5.951,5.873,16.561,4.793,23.874,2.538,10.608,5.954,19.062,6.865,30.935,5.197,9.745,16.682,26.06,13.746,39.373,3.224,12.099,2.59,16.389-3.055,25.277-9.551,5.344-3.408,10.398-4.711,15.332-9.03,3.949,7.409,8.686,14.401,12.579,21.844,3.068,5.866,3.901,8.212,1.9,14.543-1.876,5.972-3.65,12.001-5.799,17.881-58.566,9.271-133.685-4.533-183.896-35.901-6.306-6.528-4.86-17.338-4.48-25.53Z"/>
  <path class="st23" d="M552.527,590.778c7.375,7.633,7.437,20.733,14.462,26.312-1.876,5.972-3.65,12.001-5.799,17.881-37.325,7.263-89.882.507-126.126-10.624,21.237-19.988,51.013-2.369,77.813-9.257,13.976-3.785,27.979-15.773,39.65-24.312Z"/>
  <path class="st6" d="M368.217,830.617c1.815,2.486,2.756,7.855,4.036,10.86,5.933,13.933,15.406,20.463,28.336,27.371-2.563,3.114-7.18,6.191-6.518,10.665l1.589.734c6.258-.412,11.76-3.803,17.211-6.627,11.464,3.375,22.255,3.952,33.853.667,1.978,1.83,4.211,3.444,6.327,5.115-9.262-.533-18.489-1.139-27.589,1.161-5.085,1.284-13.182,3.444-16.036,8.237-.299,2.03-.35,2.488.395,4.379,2.85-.508,9.856-7.991,20.338-9.951,12.248-2.29,25.177-1.423,35.57,5.806-13.855-.888-31.86-.34-42.122,10.401l.22,1.08c1.506-.119,2.566-.641,3.874-1.335,24.884-11.759,56.671-11.522,60.543,22.034-52.083,15.977-99.913-3.128-130.284-47.425-2.603-3.559-11.874-14.751-10.832-19.31,1.906-8.335,14.203-19.424,21.089-23.862Z"/>
  <path class="st19" d="M466.889,181.096c12.239-34.258,27.65-48.807,57.767-67.756-8.454,23.586-1.528,51.44,14.013,70.57-25.316,18.657-45.777,42.275-62.117,69.123-9.867-24.239-12.913-45.958-9.663-71.937Z"/>
  <path class="st16" d="M466.889,181.096c1.273,16.057,15.387,36.262,27.95,45.433-6.425,8.521-12.605,17.474-18.287,26.504-9.867-24.239-12.913-45.958-9.663-71.937Z"/>
  <path class="st6" d="M557.984,852.589c4.023,2.11,7.156,6.037,11.072,8.472,12.729,7.916,28.221,9.283,42.822,9.301-1.612,2.272-4.023,5.553-4.113,8.403l1.171.482c3.42-1.662,6.153-4.528,9.583-6.329,7.935-4.165,16.551-5.989,23.949-11.361,5.253,1.666,10.706,2.857,16.049,4.211-6.15.71-32.247,7.996-28.64,16.956,3.827-.346,9.074-6.428,12.686-8.495,6.445-3.707,20.543-7.552,27.386-4.146-1.866,2.325-6.928,3.845-9.682,5.173-5.314,2.562-12.124,7.204-14.153,13.028,5.898-.196,10.048-8.038,15.449-9.939,17.214-9.365,36.285.482,43.523,17.532-43.642,26.981-117.73,9.177-161.186-10.655,2.359-12.853,7.209-21.646,14.084-32.633Z"/>
  <path class="st18" d="M885.802,503.681c-50.843-12.732-33.666-98.385,9.105-111.324,5.402-1.566,11.32-1.904,16.346,1.006,13.102,6.703,19.848,44.72,2.396,49.335-3.421.633-6.719-1.019-9.434-2.949-10.599-7.535-10.314-17.439-12.375-29.113-2.979,11.993-2.339,24.685,7.452,33.323-4.185,9.115-10.805,16.811-18.885,22.673l.024,1.079c4.13.807,9.321-1.52,13.133-2.919-3.153,12.89-6.201,25.685-7.762,38.889Z"/>
  <path class="st10" d="M893.292,436.8c1.884,2.552,3.73,4.935,6,7.159-4.084,8.401-9.977,16.54-17.921,21.699,1.509-4.692,4.697-9.158,6.92-13.587,2.46-4.9,3.722-9.975,5.001-15.271Z"/>
  <path class="st1" d="M466.226,360.302c18.617-2.527,32.514,10.069,41.903,24.76,26.527,37.915,8.687,90.611-20.835,121.445-3.651,3.682-8.045,6.446-12.356,9.282-4.835-.579-9.538-1.907-14.248-3.102-2.992-.797-4.701-2.19-7.026-4.14,25.505-24.323,49.265-56.871,42.625-94.072-3.909-24.226-24.032-48.392-50.709-41.358,5.956-8.269,10.52-11.161,20.646-12.815Z"/>
  <path class="st9" d="M741.373,417.225c14.778-.281,20.575,9.887,23.55,22.783,16.232-18.93,39.691-13.815,41.686,12.212-18.897,11.842-40.765,18.051-62.178,23.479-19.74-8.668-34.781-23.64-48.597-39.775,6.092-2.874,9.857-3.477,16.581-3.103,2.881,2.019,5.511,4.394,8.184,6.679,2.922-11.299,8.754-19.936,20.774-22.275Z"/>
  <path class="st19" d="M730.213,94.847c7.856-.868,14.604,2.232,20.535,7.092-40.328-8.786-71.72,32.659-104.874,49.426-29.819,14.328-62.106,24.157-94.62,29.987,43.654-33.041,125.24-79.589,178.959-86.505Z"/>
  <path class="st16" d="M737.03,106.083c6.615-.552,12.389,1.142,18.169,4.189,3.734,32.365-35.379,50.15-59.641,61.396-5-12.4-11.508-22.127-20.999-31.403,17.03-13.628,40.437-31.871,62.471-34.182Z"/>
  <path class="st23" d="M505.628,337.878c4.473-.135,9.328-.665,13.74.134.792,1.952.407,3.741.148,5.76-1.195,1.054-1.848,1.784-2.597,3.188-.572,15.532,61.106,73.055,74.527,87.86-9.113,2.378-10.351,2.529-17.907-3.544-16.232-11.023-33.893-19.743-50.332-30.534-7.797-21.458-22.714-37.931-43.882-46.734,5.006-10.824,15.302-14.366,26.303-16.13Z"/>
  <path class="st23" d="M380.419,608.759c50.179,26.676,122.045,40.1,178.143,32.985-.422,1.091-4.623,12.449-5.001,13.11-49.383,10.006-107.708-1.536-153.653-22.069-12.615-5.218-21.574-8.213-19.489-24.026Z"/>
  <path class="st22" d="M913.434,171.63c46.349,8.355,162.119,21.091,210.366,28.075,10.49,1.348,51.899,4.491,58.26,8.413,2.264,2.847.001,6.15-2.89,7.356-4.51,1.703-237.83-31.024-268.354-33.439l2.618-10.405Z"/>
  <path class="st1" d="M545.55,185.607c1.652-.011,4.076-.275,5.422.67,3.654,2.567,4.445,11.115,5.12,15.201,3.694,22.349-6.381,47.182-19.347,65.107-5.034-7.012-6.752-15.28-12.898-21.607-9.622-7.744-20.659-7.02-31.939-4.578,15.01-21.185,32.451-39.695,53.642-54.793Z"/>
  <path class="st6" d="M890.431,545.763c1.524.435,2.245.681,3.259,2.003-37.163,111.538-245.874,190.9-314.394,67.511-7.643-11.549-14.576-23.509-20.802-35.879-1.203-2.327-1.342-5.895,1.362-7.189,1.653.521,2.513,1.129,3.554,2.536,9.633,18.23,19.545,37.012,32.414,53.298,40.763,54.819,115.413,49.955,172.822,28.051,52.473-18.527,101.519-57.312,121.785-110.331Z"/>
  <path class="st1" d="M648.228,395.474c1.959.854,2.998,4.145,3.999,5.95,6.517,12.539,10.298,25.282,11.758,39.317,3.096,34.543-3.683,80.436-29.893,105.11,18.556-45.703,16.659-99.981,3.185-146.806,3.665-1.139,7.304-2.376,10.951-3.571Z"/>
  <path class="st21" d="M304.048,466.792c6.029,5.551,12.65,8.326,20.466,10.504-12.198,27.309-10.354,54.617,13.383,74.862-17.011,2.287-33.686-5.051-47.675-14.351-2.765-20.786,7.301-51.346,13.826-71.015Z"/>
  <path class="st10" d="M528.833,312.915c2.013,12.54,16.349,25.981,16.795,35.991l-2.296-3.529-.67.527c6.286,30.283,37.719,48.264,65.87,54.293-4.377,9.553-9.708,18.594-15.27,27.504-21.574-25.48-48.276-46.486-67.672-73.905-.258-13.714,1.049-27.354,3.243-40.881Z"/>
  <path class="st18" d="M525.849,340.027c4.352,1.436,6.429,7.053,8.428,10.988,9.578,19.985,34.241,50.715,54.814,59.285,3.937,1.291,8.397,2.133,12.17,3.735-2.314,4.751-5.209,9.186-7.999,13.666-21.574-25.48-48.276-46.486-67.672-73.905-.163-4.575.118-9.194.259-13.769Z"/>
  <path class="st18" d="M342.221,856.517c28.394,57.89,82.731,88.059,146.332,69.063-1.423,3.895-3.065,6.299-5.914,9.252-46.735,24.129-126.694-13.715-143.409-61.827-1.537-6.452-.388-10.927,2.991-16.488Z"/>
  <path class="st23" d="M851.567,516.495c-16.676-7.123-25.753-24.79-26.651-42.308-1.46-18.147,5.197-34.11,25.716-33.901-1.646,8.182-2.925,16.436-2.24,24.808,1.554,17.566,10.782,33.703,26.473,42.066-5.984,6.728-14.018,11.56-23.298,9.335Z"/>
  <path class="st14" d="M868.788,503.636l6.077,3.524c-5.984,6.728-14.018,11.56-23.298,9.335,6.732-5.77,9.98-4.287,17.221-12.859Z"/>
  <path class="st18" d="M542.668,889.711c42.172,20.329,111.34,35.077,155.644,15.192,2.182-1.122,5.339-4.19,7.634-4.194l.725,1.746c-.201,2.739-1.131,4.745-2.278,7.179-13.217,15.731-37.146,16.655-56.194,15.988-19.215-.971-107.35-8.896-105.531-35.911Z"/>
  <path class="st21" d="M340.889,403.933c9.984,6.486,16.539,12.476,27.974,17.578-16.394,14.936-29.342,30.436-40.881,49.424-7.339,2.783-17.04-5.182-22.446-9.461,2.319-5.199,4.736-10.512,8.587-14.777,4.094-4.532,9.238-8.164,12.54-13.38,5.712-9.022,8.796-19.967,14.226-29.384Z"/>
  <path class="st1" d="M461.812,340.908c6.266-.911,13.222.027,19.489.606-3.658,4.072-5.212,7.95-6.808,13.165-16.029-.981-29.363,2.515-34.131,19.503-19.168,7.747-35.786,18.919-51.764,31.969,14.312-32.719,33.963-63.532,73.214-65.243Z"/>
  <path class="st1" d="M290.222,537.807c13.989,9.3,30.664,16.638,47.675,14.351,9.351,8.003,18.089,14.719,29.361,19.903-.72,6.358-.73,12.774-.875,19.165-27.878-5.498-70.081-22.415-76.161-53.419Z"/>
  <path class="st23" d="M420.038,581.188c-5.591-7.605-2.994-22.088-.388-30.399,7.214-21.437,23.276-39.562,47.466-29.513-19.289,8.798-30.998,27.491-32.588,48.293.299,4.635,3.441,12.912.582,16.475-5.374,1.878-11.54-.599-15.072-4.856Z"/>
  <path class="st14" d="M433.936,578.858c-.054-2.977-.541-6.499.591-9.289.3,4.635,3.442,12.912.583,16.475-5.374,1.878-11.54-.599-15.072-4.856,4.714-3.156,8.535-2.547,13.898-2.33Z"/>
  <path class="st12" d="M330.112,586.588c10.533,4.37,24.81,12.272,36.324,8.436,2.308,4.264,4.849,7.896,7.951,11.632-.432,3.625.235,18.313-.049,18.832l-3.575.653c-2.439,1.156-4.856,2.355-7.251,3.597-6.971-12.866-20.524-15.895-33.447-10.261-.116-10.963-.1-21.926.047-32.889Z"/>
  <path class="st21" d="M299.303,567.602c8.803,6.201,17.603,12.236,27.078,17.376-.684,11.398,3.955,32.378-3.145,41.148l-1.609,1.202c-3.346-1.341-7.02-13.729-23.012-19.4l.688-40.326Z"/>
  <path class="st18" d="M929.5,431.125c10.137,3.323,29.975-3.495,35.935,6.034,1.588,3.467.335,8.073-1.045,11.445-2.312,5.654-6.31,8.88-11.863,11.135-9.04.262-33.445,1.218-37.443-8.442.152-2.469,10.65-9.591,12.453-12.605,1.255-2.098,1.555-5.173,1.963-7.567Z"/>
  <path class="st10" d="M669.44,144.334c8.161,6.299,14.085,13.752,18.818,22.875-9.817.856-15.639,3.426-22.996,10.019-.88-1.622-1.469-3.696-3.379-4.185-5.156-1.32-19.846,2.739-24.298,5.575-4.593-4.013-9.322-7.375-14.718-10.228,16.95-6.922,31.31-13.997,46.573-24.056Z"/>
  <path class="st18" d="M948.195,398.574c20.838-1.802,22.667,12.254,15.469,28.23-11.376.953-22.834.503-34.226-.037-.627-6.777-1.439-13.532-2.437-20.264,6.69-4.602,13.207-6.675,21.194-7.929Z"/>
  <path class="st22" d="M890.307,187.233l8.423,1.511c-7.786,39.718-13.54,81.816-22.53,120.933-1.666,1.471-3.889,2.284-5.681.55-2.62-6.973,17.109-107.957,19.788-122.994Z"/>
  <path class="st22" d="M919.557,42.162c2.29.554,3.397,2.288,3.311,4.587.394,8.328-8.037,47.845-9.999,58.898-3.166,17.837-5.302,35.866-8.558,53.673-.252,1.379-.283,2.416-1.289,3.479-2.66-.123-5.663-.253-8.096-1.389-1-7.122,17.908-102.006,21.514-114.02.664-2.109,1.641-3.583,3.117-5.228Z"/>
  <path class="st22" d="M972.371,194.82l12.036,1.483c-4.022,17.741-7.166,35.786-10.691,53.638-1.273,6.446-1.971,16.488-4.938,22.23-4.227-1.033-8.626-1.446-12.938-2.005l16.531-75.346Z"/>
  <path class="st22" d="M1041.87,204.399c2.18-.251,4.6-.569,6.55.571l-.53,1.69.67-.389c-7.308,39.681-12.688,80.07-21.509,119.398-.496,1.846-1.883,3.163-3.271,4.388l-1.8-.31c-4.199-4.702,2.715-28.528,3.58-35.568,3.827-21.085,7.76-42.151,11.8-63.196,1.4-7.149,5.46-19.805,4.51-26.584Z"/>
  <path class="st7" d="M561.248,833.846c24.367,23.973,53.296,23.599,83.834,13.171-3.081,5.136-6.395,10.697-11.994,13.374-20.062,8.501-62.452,4.536-73.031-17.006-1.449-3.637-.168-6.141,1.19-9.539Z"/>
  <path class="st18" d="M911.982,457.105c14.181,9.387,27.887,9.553,44.26,7.509,3.654,3.943-2.504,12.91-5.416,15.986-7.169,6.959-21.724,4.584-30.528,2.741-18.154-4.028-11.643-12.702-8.316-26.236Z"/>
  <path class="st22" d="M1068.49,68.621c1.86-.066,2.8-.416,4.35.664.99,6.195-17.51,111.207-20.27,115.24-.53.773-2.44.704-3.36.825l-2.31-.63c-1.32-3.094,18.41-105.567,21.59-116.099Z"/>
  <path class="st23" d="M630.188,400.216c1.467-.223,1.731-.254,3.098.29,1.527,3.351,1.206,7.662,1.298,11.301-8.07,12.86-20.507,20.56-33.588,27.417-2.398-1.463-3.675-3.673-5.219-5.949,8.432-10.072,14.136-20.558,18.808-32.802,5.236.123,10.375.019,15.603-.257Z"/>
  <path class="st3" d="M677.12,202.55c18.367-.271,19.456,16.549,17.957,30.735-1.659-4.746-4.36-13.574-10.91-11.901-2.216,1.431-3.115,3.175-4.401,5.39-1.031,4.049-1.105,7.465-1.306,11.584-.082,1.692.254,3.173-1.043,4.347-12.381-.102-11.229-18.224-9.352-26.651,1.458-6.086,3.63-10.153,9.055-13.504Z"/>
  <path class="st6" d="M930.406,362.418c6.169,1.302,12.22,2.882,18.013,5.4-1.374,8.644-3.689,17.146-5.611,25.683-6.486,1.666-12.824,3.76-18.089,8.038l-3.56-7.229c1.927-9.244,5.201-23.464,9.247-31.892Z"/>
  <path class="st18" d="M906.374,482.845c8.544,6.281,18.62,7.214,28.914,7.716,2.611.127,5.48-.074,7.919.935l.644,1.86c-2.107,10.934-13.501,15.797-23.71,13.671-4.939-.816-10.538-2.908-13.414-7.259-3.343-5.056-1.358-11.417-.353-16.923Z"/>
  <path class="st20" d="M902.983,447.318c1.657-.071,4.299-.474,5.745.441,1.14.721-.426,3.558-.871,4.858-3.606,10.543-9.921,34.897-7.914,45.293,1.215,6.296,5.736,9.552,10.694,12.901l.131,1.492c-6.176.225-15.02.127-18.52-5.851-4.391-9.318,6.861-48.539,10.735-59.134Z"/>
  <path class="st22" d="M957.528,275.915c2.333.492,4.291,1.037,6.459,2.045.805,7.082-12.622,56.005-15.291,66.05-2.623-.328-4.85-.282-6.738-2.224,4.251-22.093,11.982-43.605,15.57-65.871Z"/>
  <path class="st22" d="M1143.15,217.173c2.13-.224,3.51-.656,5.51.291-.6,8.265-16.57,93.718-19.42,97.247l-.32,1.675-1.01-.227c-3.474-6.307,2.11-21.91,3.069-29.387,0,0,9.181-47.623,9.181-47.623,1.16-6.041,4.35-16.036,2.99-21.976Z"/>
  <path class="st14" d="M584.722,636.294l1.719-.078c3.461,2.499,6.294,6.402,9.104,9.618-12.146,4.901-25.352,7.393-38.219,9.631,2.077-4.853,3.71-9.959,5.497-14.928,7.36-1.218,14.63-2.561,21.899-4.243Z"/>
  <path class="st22" d="M1164.1,108.391l2.89-.107c.51.773.85.954.8,1.913-1.259,6.782-12.936,85.818-17.87,87.909l-1.71-.346c-3.225-5.281,14.775-75.43,15.89-89.369Z"/>
  <path class="st22" d="M843.27,164.243c12.954-.66,26.898,2.504,39.696,4.416-.934,2.961-1.54,6.032-2.233,9.056-8.679-2.06-33.246-1.464-38.61-8.035-.338-2.468.122-3.117,1.147-5.437Z"/>
  <path class="st18" d="M588.916,440.68c2.078.044,4.054.259,6.106.574,2.834,4.291,4.647,24.833,3.315,29.64-4.357.251-8.759.541-13.083,1.198l3.662-31.412Z"/>
  <path class="st6" d="M895.183,515.14c4.323,1.192,8.604,2.643,12.89,3.971-3.671,7.033-4.97,21.566-13.658,23.606-7.074-2.292-1.213-22.615.768-27.577Z"/>
  <path class="st22" d="M889.203,167.184c6.502.695,13.003,1.987,19.452,3.075l-3.892,13.212c-4.492-1.106-9.293-1.24-13.67-2.52-2.527-.739-3.224-1.878-4.329-4.044-.352-3.229,1.343-6.71,2.439-9.723Z"/>
  <path class="st23" d="M571.977,614.439c3.688,3.017,8.674,12.47,11.714,16.798-4.532.877-13.682,2.534-18.237,3.305,2.606-6.598,4.588-13.282,6.523-20.103Z"/>
  <path class="st6" d="M936.472,347.915c4.833.45,9.599,1.734,14.293,2.924l-2.4,9.729c-3.134.661-10.816-2.308-14.239-3.197l2.346-9.456Z"/>
  <path class="st12" d="M520.354,325.833c.851,1.039.888,2.571.894,3.832-2.989,3.154-12.535,1.959-17.028,2.483-.664-1.457-.936-2.202-.649-3.854,3.573-2.528,12.172-.838,16.783-2.461Z"/>
  <path class="st20" d="M0,0h617.404c5.014,30.315-29.13,52.285-56.547,45.46-4.094,24.871-32.619,49.501-57.678,36.417-12.72,18.153-36.825,25.465-55.681,12.005-1.345,5.755-3.834,10.177-5.882,15.596-5.914,15.651-8.493,28.34-24.065,37.827-8.63,5.327-18.229,5.727-27.788,2.913-5.139,19.527-23.792,31.157-43.368,24.653-17.352,25.729-46.951,54.848-48.747,88.055,1.198,1.228,1.583,1.313,3.169,1.786-1.706.354-2.774.3-4.025,1.55.439.884.629,1.584,1.434,2.163-1.68.936-1.647.985-2.198,2.808-1.271,4.21-1.452,9.477-2.003,13.902-7.67,79.396-12.787,158.874-11.199,238.647l1.368.515c-.452,14.377,1.094,25.209,9.645,37.25.781,1.561,1.46,2.794,1.536,4.56-.214,13.838-.78,27.993.064,41.805l-.818,1.141c-2.55.107-5.56-.403-7.462,1.356l.144,1.194c3.749.416,10.606-.205,13.63,1.681l.523,1.354c-5.078-1.152-9.893-1.741-15.103-1.681,2.207,23.06,4.97,47.778,13.157,69.561,10.362,37.576,32.718,72.523,71.778,84.4-29.199,10.418-51.328,2.538-76.916-12.874,9.278,14.127,19.193,23.276,33.24,32.493-32.647,6.236-54.122-3.468-83.071-16.622,3.921,6.006,8.31,11.58,12.403,17.446-20.346,3.183-39.085-.249-54.544-14.717-.669,3.179-1.169,6.617-2.388,9.628-4.855,6.803-11.966,9.729-20.047,11.129-15.469,2.679-31.384-2.255-44.086-11.136-13.102,23.365-45.585,15.859-61.422-.554-4.225,7.231-8.525,12.661-16.951,14.944-15.181,3.866-32.626-4.53-37.828-19.546-5.613,7.328-11.086,9.649-19.679,12.295V0Z"/>
  <path class="st0" d="M3.95,0h607c1.963,5.999,1.081,12.111-1.703,17.726-9.221,18.452-32.672,27.312-52.136,21.564-1.781.992-1.587,1.398-2.164,3.281-7.091,4.672-18.106,6.069-25.71,1.903l-3.443-9.252c-2.396,16.562-13.436,26.878-30.615,23.531-6.521-1.452-11.795-4.942-17.452-8.295,5.927,9.858,11.333,12.629,22.278,15.609-.498,16.905-17.595,29.337-33.883,27.565-9.899-1.057-17.122-7.323-23.336-14.588.787,16.166-5.362,34.935-24.615,34.448-13.488-.519-21.376-12.739-26.54-23.798-.181,11.776-1.927,21.661-10.766,30.253-6.888,6.697-16.442,11.142-26.152,10.875-14.09-.512-24.083-10.177-30.946-21.625.041,1.075.04,2.105.299,3.154-9.19,12.354-23.541,16.733-38.228,12.414-12.48-3.835-22.763-17.054-26.836-29.033-1.636-4.803-2.039-10.265-4.704-14.626-1.147,9.757-6.926,18.473-16.17,22.236-18.865,8.03-37.252-8.467-37.951-27.467-12.031,9.598-30.657,9.131-41.937-1.45-10.776-9.724-11.477-19.579-12.217-33.167-4.441,9.318-9.598,14.939-19.802,17.755-7.333-2.66-9.861-5.398-12.713-12.568l-.941.041c-10.444,11.653-28.59,17.932-41.738,6.819-6.124-5.297-9.125-14.497-6.657-22.199C36.506,44.991,11.271,28.139,3.95,0Z"/>
  <path class="st20" d="M201.679,63.555c1.704,15.495,10.333,36.843,29.134,35.184,12.197-2.234,18.407-12.279,22.713-22.907l.537-.041c1.332,10.609-4.078,21.372-13.566,26.412-19.258,10.417-39.536-6.092-40.32-26.329.767-4.097,1.157-8.168,1.502-12.319Z"/>
  <path class="st8" d="M344.821,59.896c-1.149,19.216-22.549,26.919-33.922,10.468-.459-1.814-1.099-3.668-.843-5.549,14.235,14.485,25.485,13.655,34.765-4.919Z"/>
  <path class="st8" d="M451.886,32.142c.366,4.289-3.22,9.238-6.328,11.891-8.631,6.873-22.642,6.31-28.963-3.362l-.742-2.559c1.249-.524,9.504,7.028,17.573,5.959,8.064-1.068,13.611-5.704,18.46-11.929Z"/>
  <path class="st4" d="M0,528.361c3.107-2.608,4.793-6.058,7.273-9.179,9.069-11.655,20.859-18.582,35.964-17.078,17.297,8.928,15.725,28.286,11.312,44.431,8.638-8.368,22.741-16.559,34.018-8.109,6.582,5.293,9.246,14.307,8.638,22.511-.577,7.698-3.615,14.631-6.969,21.47,12.266-10.992,34.314-15.152,45.741-.814,8.512,10.814,6.777,26.517-2.948,35.937,15.046-10.533,37.079-18.698,49.712-.187,10.32,16.864-3.063,35.426-15.423,46.921,14.251-3.324,26.204-9.682,40.13-.826,10.24,6.072,11.748,19.338,5.023,28.664-4.305,6.548-10.482,10.737-17.307,14.332,44.069-.841,38.801,53.52-3.587,46.049,2.192,8.695,8.512,15.781,3.327,24.571-3.065,5.195-8.378,8.024-14.095,9.391-18.263,4.325-39.052-4.046-48.677-20.261.552,23.193-20.911,29.37-39.409,21.041-10.351-4.498-17.111-13.951-20.873-24.302-1.435,8.879-3.008,19.095-10.809,24.782-10.594,7.636-25.901,2.451-32.62-7.947-3.553-5.193-4.788-10.603-5.869-16.703-6.941,9.271-11.645,15.633-22.552,20.139v-254.833Z"/>
  <path class="st8" d="M30.26,612.211c10.39-1.249,14.417,10.827,17.093,18.71,6.225-9.87,20.983-20.204,29.144-6.544,4.836,8.166,2.343,17.233.151,25.754,16.737-14.539,36.117-3.693,24.195,17.593.158-5.528.579-11.116-.486-16.575-7.727-8.246-19.464-2.037-26.501,3.943-.385-7.382,2.699-14.637,1.735-21.974-.495-6.418-6.104-11.421-12.619-9.93-9.738,1.721-12.96,11.699-17.854,18.908-1.867-7.489-3.866-18.796-9.876-24.141-4.677-4.159-8.119,2.37-12.719,2.707l-.363-2.542-.27.441c2.678-2.395,5.344-4.414,8.37-6.35Z"/>
  <path class="st8" d="M120.752,688.8c11.546-1.566,13.768,5.968,14.096,15.736,4.007-2.48,7.582-4.847,12.447-4.865,4.836-.137,11.967,2.212,11.355,8.149-.166,1.65-.168,2.165-1.393,3.236-2.462-1.9-2.806-3.605-4.14-6.357-2.231-1.535-4.537-1.369-7.146-1.471-6.227,2.023-11.544,5.443-17.117,8.795,1.806-6.022,3.47-14.262-2.085-18.821-6.121-4.471-12.116,2.117-17.863,3.128.872-5.042,7.618-6.698,11.846-7.53Z"/>
  <path class="st0" d="M0,183.615c22.821-5.699,34.672,17.287,32.624,37.051,7.336-4.381,14.419-8.303,23.266-6.157,14.014,3.265,20.734,19.23,18.133,32.482,32.651-13.906,44.706,12.024,38.934,40.784,13.03-7.571,29.662-5.123,36.904,8.976,5.728,10.791,4.251,23.366.478,34.524l10.56-3.353c-36.749,37.899-74.758,75.883-73.785,132.849.432,31.477,16.447,63.557,44.212,79.395-.943,9.854-.833,19.798-.806,29.688-10.384-3.661-18.685-3.206-29.164-.115,6.546-25.932-11.488-50.454-38.559-36.308,4.9-47.731-41.022-46.389-62.797-14.14V183.615Z"/>
  <path class="st8" d="M37.384,313.922c2.136-7.321,2.233-16.718-.896-23.807-2.108-5.302-8.36-10.056-14.057-7.125-4.674,2.505-6.228,8.161-7.646,12.838l-.835-.18c-3.022-3.9.393-9.609,3.154-12.717,2.58-2.732,8.349-4.564,12.054-4.517,13.148.806,14.058,17.369,13.723,27.447,5.01-2.749,11.367-6.232,17.303-4.3,11.145,3.627,5.37,19.015,8.796,25.049,6.535-3.063,14.592-6.047,20.496-.247l-.784,2.389c-4.105-2.171-8.414-2.281-12.896-1.478-7.915,1.4-12.364,5.245-16.864,11.673,4.299-8.255,8.24-18.972,3.618-27.903-6.11-10.687-18.325-2.546-25.166,2.878Z"/>
  <path class="st8" d="M48.966,417.362l1.025-.73c-.826-7.831-1.678-16.808,3.677-23.328,4.247-5.532,12.91-6.6,18.13-1.835,5.211,4.458,5.9,10.399,6.858,16.808-5.971-14.674-18.578-25.595-24.54-3.781-1.536,7.068-.379,14.684,1.155,21.656-3.016-2.786-5.773-4.984-9.344-6.997-16.474-4.38-21.08,6.51-19.72,20.934-7.754-17.195,4.834-34.36,22.759-22.727Z"/>
  <path class="st8" d="M85.988,327.541l2.703,1.211.784-2.389c4.817,7.443,2.572,14.035-2.228,20.789,1.644-6.201,4.114-14.633-1.259-19.611Z"/>
  <path class="st9" d="M0,0h3.95c7.326,28.158,32.574,44.984,60.222,31.105-2.468,7.702.532,16.902,6.657,22.2,13.148,11.113,31.295,4.834,41.737-6.819l.941-.041c2.849,7.167,5.382,9.91,12.713,12.568,10.212-2.82,15.36-8.438,19.802-17.755.74,13.588,1.441,23.442,12.217,33.167,11.28,10.582,29.906,11.048,41.937,1.45.705,19.007,19.081,35.494,37.951,27.467,9.246-3.766,15.02-12.475,16.17-22.236,2.665,4.36,3.068,9.823,4.704,14.626,4.073,11.98,14.356,25.199,26.836,29.034,14.673,4.318,29.05-.062,38.228-12.414,4.519,8.508,10.276,15.477,16.783,22.499-11.828,40.542-62.199,52.139-60.112-1.579-16.89,40.159-50.222,24.636-55.721-12.337-14.306,41.182-58.93,30.033-63.836-10.006-14.128,27.176-42.301,19.374-50.564-7.334-.787-2.51-1.271-7.53-2.767-9.48-.917,1.198-.964,1.564-1.054,3.093-.615,10.403,1.932,19.933,9.134,27.819,6.754,7.396,15.074,8.865,24.67,9.314,1.719,25.718,8.383,34.881,19.655,56.76-19.149,9.808-31.417-7.549-34.288-24.766-8.487,5.595-19.534,8.417-27.357.15-8.173-8.403-7.833-20.363-7.817-31.235-8.938,6.642-21.56,8.205-30.847,1.371-11.297-7.891-15.458-23.934-17.787-36.822-3.263,6.264-11.256,9.555-17.95,10.286-9.631,1.027-16.847-2.454-24.209-8.28V0Z"/>
  <path class="st20" d="M0,0h3.95c5.519,20.512,20.656,37.201,43.274,36.008C26.096,45.858,7.167,25.266,0,7.15V0Z"/>
  <path class="st20" d="M112.567,46.486l.941-.041c2.849,7.167,5.382,9.91,12.713,12.568,6.811-2.019,10.99-4.691,15.629-10.097-4.147,18.838-31.043,18.54-29.283-2.431Z"/>
  <path class="st12" d="M0,110.111c12.038,8.269,25.16,9.061,38.303,2.513,4.209,22.581,20.925,40.765,45.248,32.791,2.121,21.236,14.375,39.882,37.972,31.138,6.334,18.299,22.421,29.959,41.382,20.705,4.586,9.517,9.02,18.863,10.595,29.435,2.108,14.144-3.495,80.374-7.964,92.774-1.164,3.579-2.867,5.298-6.82,4.673l-.796-.662c6.594-26.826-9.256-51.138-38.577-43.909,3.542-24.382-11.264-48.396-38.262-40.466-4.664-22.053-20.831-39.027-44.053-27.719-.12-19.312-16.544-38.631-37.028-33.261v-68.012Z"/>
  <path class="st9" d="M529.237,44.473c7.603,4.166,18.619,2.77,25.71-1.903-2.14,20.714-21.234,35.957-41.227,38.152l-9.07-3.633c1.115-3.537,2.309-7.018,2.803-10.706,9.976-4.238,19.307-10.602,21.784-21.91Z"/>
  <path class="st12" d="M293.839,561.547c.781,1.561,1.46,2.794,1.536,4.56-.214,13.838-.78,27.993.064,41.805-3.344-.294-6.264-.094-9.582.391-.813-14.799-1.872-29.668-2.182-44.486,3.399-.671,6.782-1.511,10.164-2.27Z"/>
  <path class="st8" d="M293.839,561.547c.781,1.561,1.46,2.794,1.536,4.56-3.882.941-7.779,2.012-11.716,2.686l.016-4.976c3.399-.671,6.782-1.511,10.164-2.27Z"/>
  <path class="st9" d="M282.826,523.782l1.368.515c-.452,14.377,1.094,25.209,9.645,37.25-3.382.759-6.765,1.599-10.164,2.27-.861-13.393-.962-26.619-.849-40.035Z"/>
  <path class="st21" d="M348.612,136.682c5.138.871,9.863.678,14.977-.257-18.305,37.529-53.428,64.118-67.791,103.804-9.266,25.603-11.8,75.651-13.744,103.976-2.19,31.917-4.947,64.041-6.044,96.009,1.294,91.8-16.112,280.196,79.284,326.607-25.593.636-46.038-10.734-67.289-23.572-2.174-.88-4.936-2.771-7.165-2.072l-.414,1.748c12.132,19.404,13.901,24.336,31.31,40.602-32.12-1.397-57.879-15.757-86.717-27.837,8.313,8.547,14.525,19.193,22.014,28.497-18.09-1.002-37.472-9.271-48.139-24.393,12.935-1.197,27.004-6.445,31.534-19.764,5.905-15.517-2.93-31.976-18.702-36.491,26.062-22.795,5.37-55.384-26.383-50.688,14.88-21.769,7.57-50.785-21.241-52.94.224-18.177,1.964-36.595,3.235-54.735,1.38-19.685,1.67-40.191,6.695-59.356,9.423-35.937,28.969-61.67,29.783-101.241.589-28.697-7.39-62.63-27.724-83.909,3.978-65.475,15.937-69.257-19.771-130.772,7.724-4.123,11.828,2.383,21.447-2.123,3.683,1.638,5.535,4.368,9.732,5.198,27.284,27.141,30.681-2.614,28.3-26.081,2.539-2.828,5.039-5.705,7.637-8.478,8.682,23.675,31.979,35.683,51.633,15.412,4.714,8.938,9.848,18.002,20.12,21.278,23.339,6.219,46.803-17.789,53.423-38.422Z"/>
  <path class="st1" d="M280.426,742.925l-1.374-.224c-11.984-13.986-17.35-32.849-22.999-50.075-24.31-72.587-21.017-153.292-16.094-228.685,1.393-20.156,1.784-41.73,5.65-61.564,2.402,36.843-8.726,138.398-4.494,181.095,2.496,46.375,12.788,95.799,31.646,138.403,4.027,9.096,13.148,16.132,15.243,21.374-2.174-.88-4.936-2.771-7.165-2.072l-.414,1.748Z"/>
  <path class="st1" d="M266.214,773.258c.201-2.791-.362-4.467-2.336-6.456-16.351-17.027-22.424-35.497-27.19-58.107-1.728-8.391-3.953-17.447-3.248-26.064l.87.055c4.862,7.351,7.936,42.415,15.752,57.169,5.219,9.854,13.577,18.931,20.958,27.229,2.55,3.17,7.706,6.326,7.957,10.608-4.175-1.01-8.929-2.506-12.763-4.434Z"/>
  <path class="st1" d="M244.887,165.978c.979.247,1.848.63,2.775,1.018,3.062,5.554-2.184,12.214-1.037,17.924l1.574.459-.095.835c-1.402.522-2.21.877-3.327,1.927-13.732,64.694-12.562,130.825-13.958,196.601-4.305,58.089-6.45,116.337-6.94,174.628l-.33.42-.692-.07c-.479-37.786-1.69-75.784-.542-113.595.838-21.732,3.215-43.379,3.965-65.139.718-64.265-.481-128.855,13.635-191.991,1.35-7.172.439-16.982,4.972-23.017Z"/>
  <path class="st1" d="M282.742,184.032c1.266-.016,1.964.241,3.107.771.002,1.336-.207,2.531-.463,3.833,1.085.587,1.879.544,3.073.64-1.359.174-2.674.405-4.016.681-5.491,7.57-17.053,102.918-18.343,118.425-1.972,23.703-2.917,47.323-3.598,71.092l-.834,3.026-.494-.045c-3.782-51.356,3.601-102.957,12.3-153.559,1.438-7.945,3.053-15.853,4.846-23.724,1.183-5.107,3.084-10.661,3.474-15.842.14-1.862.492-3.493.948-5.298Z"/>
  <path class="st1" d="M197.523,474.639c2.019,7.607.223,29.041.488,38.091,1.305,31.288,4.015,62.567,6.17,93.813.231,8.23,3.833,17.74-.747,25.21-7.113-19.418-11.324-139.472-5.911-157.114Z"/>
  <path class="st1" d="M256.065,483.654c2.626,30.492,1.636,61.503,3.609,92.09.86,18.279,4.69,36.49,5.816,54.729-11.457-38.115-10.168-76.917-10.393-116.289.047-9.74-1.053-21.024.968-30.53Z"/>
  <path class="st1" d="M197.39,199.358c1.912,11.259-2.542,94.471-5.86,104.822-4.657-14.582,1.326-88.343,5.86-104.822Z"/>
  <path class="st1" d="M211.03,245.87l.429.281c1.332,2.593-3.769,72.676-4.844,81.492l-.474-.244c-4.839-7.019,3.589-69.269,4.889-81.529Z"/>
  <path class="st1" d="M262.677,186.65c.731.96.962,1.55,1.175,2.737-4.698,13.358-5.772,27.926-7.472,41.882-2.668,17.65-3.96,35.65-7.806,53.077l-.502-.382c-.824-25.61,9.127-71.075,14.605-97.314Z"/>
  <path class="st1" d="M180.677,540.503c4.306,6.848,1.702,42.89-.066,51.309l-.491-.312c-1.462-16.239-2.119-34.886.557-50.997Z"/>
  <path class="st23" d="M175.666,309.824c22.188,34.75,28.101,77.215,13.562,116.294-7.397,22.418-18.433,43.391-23.575,66.611-3.391,15.111-3.802,36.063-4.495,51.628-18.73-4.901-35.239-12.704-47.506-28.223-20.073-25.273-26.12-65.159-12.916-94.732,7.332-26.588,24.895-46.734,43.227-66.556,12.211-13.203,27.11-26.947,31.703-45.022Z"/>
  <path class="st3" d="M175.666,309.824c22.187,34.754,28.101,77.212,13.562,116.294-4.527-4.992-6.206-10.032-7.593-16.524-6.471,11.515-14.16,24.006-23.358,33.524-9.845-15.717-14.769-35.517-12.388-53.856-6.379,8.579-14.355,16.392-21.358,24.51-7.99,9.263-15.279,19.061-22.628,28.833-7.677-35.116,20.674-63.518,42.059-87.76,12.212-13.202,27.111-26.947,31.704-45.021Z"/>
  <path class="st14" d="M113.652,516.134c8.143-1.387,12.624,2.963,20.294,3.802,9.54,1.045,18.775-.392,28.272-.211l-1.06,24.632c-18.73-4.901-35.239-12.704-47.506-28.223Z"/>
  <path class="st8" d="M395.328,109.28c10.762,10.543,23.987,12.48,37.703,6.759-7.275,20.858-26.779,38.696-48.76,24.792-.92,5.366-1.942,9.916-4.314,14.872-5.764,8.407-13.163,14.925-23.765,15.329-2.003.13-4.151.316-5.702-1.023,8.887-12.322,13.365-21.047,19.41-35.041,13.363-6.083,20.034-11.824,25.428-25.688Z"/>
  <path class="st9" d="M135.072,542.719c8.485,3.891,16.318,6.956,25.517,8.724-.224,16.202-1.089,32.802-2.511,48.943-3.685.638-7.388,1.765-11.021,2.674.978-13.032-3.098-23.202-12.883-31.708.153-9.535.655-19.093.898-28.633Z"/>
  <path class="st13" d="M145.138,134.078c4.883-1.767,8.992-3.343,12.917-6.837,4.283,8.962,9.518,15.632,17.187,22.041,2.795,8.711,6.877,16.306,12.257,23.691-4.198-.83-6.048-3.56-9.732-5.198-9.619,4.506-13.723-2-21.447,2.123-5.249-11.635-8.265-23.422-11.182-35.82Z"/>
  <path class="st8" d="M209.032,150.85l.991-.167.704,1.142c.61,9.4-1.279,18.455-3.972,27.397-11.805-5.123-20.372-15.443-24.485-27.501,9.87,2.14,17.216,2.768,26.762-.871Z"/>
  <g>
    <path class="st15" d="M639.367,115.144l-13.961-11.315c1.342-1.681-.63-4.093-2.713-3.201-2.07.948-1.136,4.404.997,4.081l1.05,17.94c.039.684.605,1.18,1.289,1.14s1.18-.605,1.14-1.289l-.222-3.706,8.011-4.11,2.881,2.342c.391.314.909.346,1.306.143.844-.409.84-1.48.2-2.013M626.801,116.132l-.476-8.453,6.589,5.316-6.112,3.136Z"/>
    <path class="st15" d="M613.867,102.489c.017-.464.766-.414.717.052-.05,1.38.245,2.774.894,4.039.628,1.425,1.746,2.17,2.691,3.158.093.311-.301.538-.568.346-2.454-1.693-3.843-4.562-3.718-7.589"/>
    <path class="st15" d="M620.536,107.222c.217-.119.274-.471.053-.61-1.484-1.013-2.231-2.624-2.133-4.473.027-.452-.627-.529-.707-.084-.131,1.895.877,4.725,2.787,5.167"/>
    <path class="st15" d="M629.137,94.653c-.401-.247-.781.374-.376.613,1.151.764,2.11,1.816,2.76,3.082s.899,2.465.891,3.769c-.01.174.16.377.36.384.216.021.348-.147.368-.365.033-3.005-1.464-5.8-4.002-7.483"/>
    <path class="st15" d="M629.082,102.836c-.223.106-.543-.052-.526-.313.043-1.796-.831-3.342-2.39-4.341-.383-.242-.064-.818.344-.623,1.664.948,3.338,3.474,2.578,5.288"/>
  </g>
</svg>