<?xml version="1.0" encoding="UTF-8"?>
<svg id="Layer_1" xmlns="http://www.w3.org/2000/svg" version="1.1" viewBox="0 0 700 4164.6" width="700" height="4165">
  <!-- Generator: Adobe Illustrator 29.1.0, SVG Export Plug-In . SVG Version: 2.1.0 Build 142)  -->
  <defs>
    <style>
      .st0 { fill: #111; }
      .st1 { fill: #fefdfd; }
      .st2 { fill: #ff9106; }
      .st3 { fill: #06cd0f; }
      .st4 { fill: #606060; }
      .st5 { fill: #ad6f00; }
      .st6 { fill: #eb9700; }
      .st7 { fill: #858585; }
      .st8 { fill: #abaaaa; }
      .st9 { fill: #5e5e5e; }
    </style>
  </defs>
  <g>
    <rect class="st2" x="200.6" y="136" width="16.9" height="2875.8"/>
    <polygon class="st4" points="183.6 3218.8 183.6 3247 238.2 3247 238.2 3213.1 183.6 3216.9 183.6 3218.8"/>
    <path class="st3" d="M210,156.7h0c-9.4,0-16.9-1.9-16.9-11.3v-50.8c0-9.4,7.5-16.9,16.9-16.9h0c9.4,0,16.9,7.5,16.9,16.9v50.8c0,9.4-7.5,11.3-16.9,11.3Z"/>
    <path class="st0" d="M187.4,3019.3l-7.5,13.2c-1.9,3.8-3.8,7.5-3.8,11.3v39.5c0,5.6-1.9,11.3-3.8,16.9l-13.2,32c-1.9,1.9-1.9,5.6-1.9,7.5v79q0,1.9,1.9,1.9h99.7q1.9,0,1.9-1.9v-79c0-1.9,0-5.6-1.9-7.5l-13.2-32c-1.9-5.6-3.8-11.3-3.8-16.9v-39.5c0-3.8-1.9-7.5-3.8-11.3l-7.5-13.2c-3.8-5.6-9.4-7.5-15.1-7.5h-16.9c-3.8,0-9.4,1.9-11.3,7.5Z"/>
  </g>
  <g>
    <path d="M640.9,3406.9c.1-25.9-.5-58.8-28.8-69.4-.6-29.5-3.1-78.1-25.7-99.8-13.9-13.4-41-16.7-49.4-25.4-1.1-43.1,8-132.6-58.1-123.9-62-2.8-55.6,72.4-57.3,115.4-6.4,2.9-26.5,2.7-33.2-1-9.6-29.6.9-64.6-12.9-93-4-7.3-13.1-10.6-17-17.3-8.9,3-17.3-.6-26.2-.9-60.1-1.3-48.9,62.4-49,104.5-4.7,2.5-15.1,4.6-20.3,2.2,0,.1-.1.3-.2.4-2,9-12,8-19,10v4c-17-1-36,8-52,0,0,0-1,2-2,3-1-1-1-2-2-3,0,1-1,2-1,3l-3-3c-1,1-1,2-2,3-1-1-2-3-3-3s-2,3-3,3c-8-3-17.9-3-26.8-1,0,0,0,0,0,0-5.8,6-18.5,7.1-26.4,9.4-29.9,8.6-50.1,30-51.6,61.8-1.6,10.4,2.1,20.6,3.3,30.8.1,6.1-3.1,11.6-2.4,19.8-2.3,2.3-6.2,3.6-8.2,6-4.7,5.6-4.8,26.8-5.2,34.2-.3,13.9-2.8,41.9,10.6,50l.2,17.7c-18,14-10,55.6-9.6,76.9.8,7.4,2.1,13.4,8,18.6-.6,23.8,1.3,15.8-7.7,36.5-1.2,14.9-7.7,67.6,10,74.4.3,8.6-1.8,18.4,6.1,24.3,3.5,108.4-4.1,217.7,5.4,325.7,12.1,70.8,171.4,94.9,230.2,83.7,60.6-4.3,120.9-12,181.3-18.2,32.3-5,80-2.4,105.3-24.6,12.3-13,15.6-31.4,16.3-48.7,4.4-124.6,2.1-249.4,1.6-374.1,9.5-4.6,15.8-11.5,19.2-21.6,11.1-62.4,6.8-127.1,5.8-190.3Z"/>
    <path class="st6" d="M531.9,3257c5,2.7,25,3.2,32.3,4.5,4.7.8,9.7,3.5,14.4,2.9,17.4,37.7,15.4,80.9,15.9,121.6,1.6,61.4,1.5,122.5,1.9,183.8.7,135.4,5.1,271-1.7,406.3-1,13.2-1.2,28.7-8.4,40.3-18.6,23.8-54.6,18.5-81.4,23.2-54.3,5.8-122,14.2-175.9,18.7-19,.7-39.6,6.3-58,1.4-7,4.6-27.9-.2-35.7-2.5-32.3-14.1-25-76.4-28-106,8.1-217-5.9-436.9,11.5-652.7,6.4-51.1,271-32.3,313.4-41.4Z"/>
    <path d="M497.1,3289.2c5.4,2.6,32.4,3,39,1.2,9,9.2,16.9,19.8,17.4,33.4,1.4,15.7,1.9,113.1-1.7,121.9-6,2.3-12.8,0-19.1-.4-9.3-.7-19.1-1.3-28.4-1.3-10.5,1.5-21,.5-31.6,0-55.6.8-112.9,9.7-167.6,17-4.1,3.7-10.1,1.6-15.1,2.7-10.9,2.2-21.2,6.5-32.5,6.6-4.3-2.3-4.9-9.5-5.5-13.9-1.3-46.4-2.3-93.3,3.7-139.4,4.4-1.4,8-7,9.9-10.9,40.4-7.7,200.3-9,231.6-16.9Z"/>
    <path class="st1" d="M522,3303.3c13,2.6,18.9,8.7,20.3,22.2,3.8,34.6-.4,69.9.6,104.7-4.8,2.8-43.4-.5-53.1-.1-24.1.4-48.1,1.5-72.2,3.2-37.6,2.8-75.2,6.7-112.5,12.7-7,.6-14.8,5.2-21.6,2.8-4,2.7-13.8,4.2-18.8,5.2l-.9-.6c-4.3-29.5-5.3-98.5,3.7-129.3,4.6.4,8.8-4.3,11.3-7.6,48.1,1.6,98.9-7.8,147.5-8.4,0,0,69.2-2.5,69.2-2.5,8.5-.9,19,2.9,26.4-2.3Z"/>
    <path d="M455.7,3477.8c8.1,4,26.1,2.1,35.2,1.5,22.8-1.3,40.7.8,63.2,3.3,5.6.6,12.6-1.5,17.2,2.8,8.3,11.7-7.1,19.9-16.7,7-7,3.2-16.4,4.2-22.4-1.5-15.2,6.3-34.9,1-51.3,1.4-7.4-.2-14.7,1.2-22.1,1.2-6.8,0-15.2-2.9-20.4,2.6-3.9,1.8-12.8-1.6-17.4-1.3-20.4,1-39.3,5.9-59.9,3.7-.5.5-1.9,2.2-2.4,2.5-19.7,2.5-80.8,4.8-103.2,12.7-4.4-2.8-6-9.1-4.2-13.9,1.5-2.1,4-1.9,6.4-1.7,4.4,0,8.4-2.9,12.4-2.6,7.9.7,23.3,0,30.9-2.7,10-3.5,23.2-3.2,33.8-4.1,24.9-1.9,66.4-6.1,90.9-8.1,10.1-.9,21.7,3.6,30.4-2.9Z"/>
    <path d="M484.6,3517.2c20.2,6,46.6-2.4,67.1,5,5.4.5,11-1.2,15.7,2.5,9.3,11-8.4,18.7-16.7,6.3-6.6,4.3-14.4,1.7-21.6,1.2-8.5-.2-17.5,2.1-25-2.3-12.4,4.6-7.8,4.7-21.8,1.6-3.9.5-43.8,0-44.5,4.3-20.7-3.5-91.2,8.9-107,5.1-9.2,6.3-40.1,5.3-52.5,7-8,.3-16.2,6.5-24,4.4-2.4-4.4-5.6-10.6-1.8-15,3.4-1.2,7.6,1.1,11.2,1.4,6.3-9,24.1-2.5,34.1-4.2,8.5-7.2,59.8-5.3,65.2-7.8,1-.6,2.5-2.7,3.5-3.6,5.8-.5,11.1,2,16.8,2.8,5.1.7,3.7-1,7.5-2.5,16.7-2.1,50.6-2.9,68.6-4.1,8.3-.5,18,3.5,25.3-2.1Z"/>
    <path d="M480.5,3559.4c8.2,3,20.9.6,29.8.7,9.2.1,48.9,2.3,55.2,7.8,8,10.1-10.5,16.5-18.1,4.7-3.7,2.2-8,4-12.2,2.2-3.9.9-6.5-2.2-10.2-2.3-11.1,1.1-12.2,5.7-23.2-.6-4.2-.2-5.9,2.7-9.7,3.2-5.6.8-10.3-2.6-15.8-2.7-6.2-.1-12.1,3.1-18.3,3.4-6,.3-11.8-2.2-17.8-1.3-3.7,7-14.5,3-20.7,1.9-4.5,2.9-9.9,2.6-15.1,2.9-13.2,1.4-26.5,2.1-39.7,3.3-9.5,0-20.1,5.2-29.2,1.5-5,3.5-12.4,1.8-18.1,2.6-11.2,3.9-23.6,1.8-35.2,3.5-11.2,1.8-31.9,14.6-31.4-5.7,5.2-10.3,29-2.9,37.7-8.1,4.4-2.6,6.4,1.3,10.3,1.4,7.7-5.3,18.8-3.9,28-4.7,11.9-1,23.7-2.5,35.7-3.2,3.9-7.1,17.7-1.6,25.1-2.5,17.1.5,33.4-6.2,50.5-4.7,6.9-.1,13.7-.9,20.6-1,5.8,0,17.4,1.2,22-2.3Z"/>
    <path d="M294.4,3714.7c22.2,2.2,47.4,15.4,39.5,41.6-5.1,14.2-21.3,27.6-36.7,26.5-42.7,12.7-65.1-53.1-2.8-68.2Z"/>
    <path class="st7" d="M291.9,3729.3c9.7,3,25.9,1.5,31.3,13.1,7.2,12.8-14.2,27.3-25.3,26.2-12.6,8.9-35.7-2.9-31.8-19.3,2.6-12.1,17.4-13.9,25.8-20Z"/>
    <path d="M448.8,3606.7c9.6,5,49.4.2,63,.8,11.9.5,23,2.7,34.7,4.3,7.5,0,22,1.9,18.2,12.6-5,5.6-12.6,1.2-18.6-.3-7.3-1.7-16.4-3.6-23.8-4.3-4.5-.4-9.2,2.4-13.7,2.4-8.1-1.7-7.8-5.6-16.5-.6-4.4,1.2-11.9-1.7-16.7-1.8-9.7-.2-21.7,5.8-30.6.8-2.7-1.5-9.1,4-12.4,4.5-17.3-4.7-49.6,5.9-65.5,1.1-28.7,8.5-59.9,4.8-89.1,10.2-3.9.7-19.8,5.4-22.5,3.6-4-3.2-6.1-10.1-2.9-14.5,3.1-1.5,7.5.2,11,.3,6.6-5.1,13-1.6,20.6-1.7,6.3-6.6,21.4-2,29.8-3.7,4.6-3.7,6.7-3,12.5-2.8,7.1-.3,30.7-1.2,35.6-2.7,1.9-.6,1.7-2.6,4.5-2.8,5.5-.3,11.2,2,16.8,1.8,7.6-.3,15.6-2.3,23.2-3,12-1.1,23.6-.8,35.7-.6,3.4,0,4.4-1.4,6.8-3.7Z"/>
    <path d="M479.8,3645c8.4,3.3,21.6.8,30.5.8,9.1,0,46.1,1.7,52.3,7.2,8.3,10.3-11.2,17.3-17.4,4.7-7,4.5-17,4.7-23.1-1.4-12.6,8.2-36.2,2.2-51.5,3.2-39.3,4.6-79.5,5.6-118.7,11.7-5.6,1-16.2,3.5-21.3.3-5.5,3.5-11.7.7-16.9,3.6-5.2,2.9-11.1,0-16.6.7-12.1,1.3-30.4,6.9-41.2,6.6-4.1-2.8-6.4-8.6-4.4-13.3,3.4-2.4,6.8-.9,10.8-1.6,2.3-.4,4.1-2.3,6.5-2.4,4.8-.2,10.9,1.7,15.5.8,7.5-7.8,10.2,3.3,16.6-3.5,39.3-3.9,80.8-8.5,121.1-12.3,9.5-1.7,55.2.4,57.9-5.1Z"/>
    <path d="M402.1,3707.8c5.2,2.4,15.8.9,22.7,3.1,36.3,11.8,22.8,62.7-11.7,62.9-38.9,15.6-71.6-45.1-11-66Z"/>
    <path class="st7" d="M403.2,3721.6c10.3,2.5,24.5.8,30.5,12.4,7.2,13.1-10.2,27.6-22.5,26.6-3.4,3.7-10.8,2.5-15.2,1.3-31.2-9-14.7-32.7,7.2-40.3Z"/>
    <path d="M509,3700.9c5.1,2.5,16.8.6,23.6,2.7,35.7,11.2,24.1,61.2-9.7,62.2-39.7,18-71.9-41.9-13.8-64.9Z"/>
    <path class="st7" d="M509.2,3714.7c19.2,3.9,21.3-3.4,36.3,15.4-2.4,10.5-11.4,23.5-23.3,22.9-13.1,8.3-33-1-35.7-16.2,4.1-10.9,12.3-17.6,22.7-22.1Z"/>
    <path d="M528.2,3844.4c28.7,4,26.7,37.7-2.1,37.4-12.2,8.4-21.7-11.8-19.5-21.9,1.7-7.8,15.4-11.5,21.6-15.5Z"/>
    <path d="M290.9,3976.9c32.3,1.6,25.2,35.4-2.4,35.5-11.3,8.8-21.6-9.8-19.6-19.7,1.7-8.6,15.5-11.1,21.9-15.8Z"/>
    <path d="M527.7,3791.3c28.9,2.7,27.1,35.5-.8,36.7-11.6,7.8-22.2-8.5-20.6-19.1,1.4-9.7,14.6-12.1,21.3-17.5Z"/>
    <path d="M526,3959.5c28.8-1.2,29.6,35.2,1.9,35.8-11.2,8.9-22.6-7.6-21.5-18.2.8-11,13.2-11.2,19.5-17.6Z"/>
    <path d="M447.9,3798.1c6.9,1.5,15.5,1.1,19.6,8.2,8,12.4-5.6,28.5-19,26.5-11.2,8.2-23.1-6.9-21.5-17.9,1.4-11.3,13.9-10.8,20.9-16.8Z"/>
    <path d="M288.9,3921.8c3.8,1.8,8.9,1.1,12.8-.1,2,3.5,6.5,5.4,8.8,8.9,7.1,12.2-7.6,27.1-20.1,25.2-11.5,9.4-23-8.3-21.6-19,1.2-8.5,14.1-10.3,20.1-15Z"/>
    <path d="M528.6,3902.2c27.9,3.8,25.2,37.4-2.3,36.4-12.1,8.9-21.9-10.9-19.1-21.1,1.8-7.6,15.2-11.3,21.3-15.2Z"/>
    <path d="M454.4,3852.4c19,4.7,21.9,28.6,1.8,34.1-3.5,1.4-9,3.8-12.7,2.3-10.7,5-18-12.2-15.7-20.7,3.5-10.6,18.6-11.2,26.6-15.7Z"/>
    <path d="M447.4,3966.3c6.9,1.4,15.5-.2,19.8,7.3,8.3,12-4.1,29-17.8,27.2-11.6,8.3-23.9-7.7-21.8-19,1.7-9.6,13-10.8,19.8-15.6Z"/>
    <path d="M453.4,3909.3c28.9,5.7,15.2,41.2-9.9,35.5-10.7,4.9-18-11.8-15.3-20.5,3.4-12.3,16.7-9.5,25.2-15Z"/>
    <path d="M287.9,3863.9c7.3,2,16.6-.2,21.7,7.1,8.9,11.6-5.1,28.5-18.2,26.5-11.7,10.1-23-7.3-22.9-18,1.2-7.9,13.5-11.4,19.3-15.6Z"/>
    <path d="M369.4,3914.9c30.5,1.1,23.6,35.9-1.5,36.1-11.4,8-21-11-19.2-20.7,1.6-9.4,14.1-10.6,20.6-15.4Z"/>
    <path d="M370.1,3804.1c30.5,1.8,24.6,35-2.1,35.4-11.4,8-21.2-12.1-19.3-21.5,1.9-7.7,15.6-9.8,21.5-13.8Z"/>
    <path d="M371.6,3971.1c27.9,4.8,19.5,37.1-5.6,35.8-11.6,5.8-20.5-12.4-17.4-21.9,2.6-7.6,16.6-10.7,23-13.9Z"/>
    <path d="M371.3,3859c29.5,4.6,19.8,37.4-5.4,36.2-10.6,6.6-18.8-13.3-17.1-21.7,1.8-8.5,16.2-9.9,22.4-14.5Z"/>
    <path d="M288.8,3809.9c7.1,2.1,17.3.8,21.2,9.3,6.3,11.9-7.8,25.5-19.6,23.8-11.6,9.7-22.2-8.6-21.3-18.9,1.6-7.2,14-10.3,19.7-14.2Z"/>
    <path d="M444,3277.4c5.6,3.2,15-.4,21.7,2.5v3.1c-7.4,3.5-18.2.7-26.3,1.3-14.6-.4-30.9,4.5-45,.2-4.7,3.2-18.7,3.7-21.5-1.9,10-7.2,61.2,1.3,71-5.2Z"/>
    <path d="M571.1,3275.1c13.3,11.5,18.5,43.1,15,59l-.9.2c-4-6.4-2-15.3-4.2-22.5-2-9.1-11.7-28.6-9.9-36.6Z"/>
    <path d="M218.4,3981.4c9.4,21.3-7.2,33.2,15.9,58.4,1.4,2.1,1.5,2.9,1,5.3-24.5-6.2-17.6-44.6-17-63.7Z"/>
    <path d="M565,3300.3c7.2,3,13.3,33.8,6.6,38-3.2-6.7-6.3-29.7-6.6-38Z"/>
    <path d="M583.9,3971.4c3.2,7.2-1,42.6-6.9,47.5l-.4-.2c-2.2-4.8,5.7-40.1,7.3-47.3Z"/>
    <path class="st5" d="M280.7,3218.6c25.4,24,65.3,12,96.3,10.5,18.8-.2,35.4,3.5,54.5.6,8.2,11,37,12.5,49,10.7-13.2,5.9-26.6.8-40.2,1.5-45.7,2-91.4,5.1-136.8,11.5-30.2,4.3-73.9-1.4-91,29.5-14.4,35.4-8.1,74.8-9.8,112.1-.5,28-2.6,56.2-2.7,84.2,3.9,93.8-.1,262.1-.5,357.9-1,72.5-8.7,147.4,10.3,217.5l-2,.5c-12.2-6.7-13.7-26.1-14.7-38.4-.3-.9-.6-1.1-1.3-1.7-6.1,10.4-1.9,26,3.1,36.1-9.1,2.8-76.9-32.5-85.3-39.1-7.5-6.9-10.7-20-12-29.7-3.9-101.7-.4-203.7-3.4-305.5,5.3,5.5,56.6,12.4,60.8,12.4,13.4-2.3,19.3-16.8,21.7-28.7,9.1-59.1,2.7-119.7,3-179.2-.6-37.4,1-75.5-2.7-112.8-.9-9.3-2.8-26-8.1-33.8-13.3-15.2-61.3-4.5-77.6-22.8-16.1-44.9,18.8-65.7,58.5-70.6,5.4-1,13.2-1.2,17.5-4.6,15,19.1,87.5,9.1,95.2-14.5,2.1-1.7,12.1,1.5,18.2-3.4Z"/>
    <path d="M201.6,3275.7c1.1.4,1.6.9,2.3,1.7.3,6.9-8.8,34.5-10.9,41.8-2.7-16-.4-30.1,8.6-43.6Z"/>
    <path class="st9" d="M89.8,3332.5c20.1,8.3,41.6,12.1,63.3,11,4,.3,6.6,3.2,10.8,2.2,8.8,46,5,93.6,5.6,140.3.2,39.1,1.9,78.3,1,117.4-2.7,17.8,6.1,74.4-22.1,70.3-9.5-.4-51.6-9.4-57.2-15.8-5.1-5.8-3.3-14.3-2.8-21.4,4.8,17.4,30.1,19.5,44,14.5-1.6-24.9,8.2-50.6,2-75.4-4.9,1.3-45.8-10-49.7-12.6-.3-13.5-.4-26.8,1.5-40.2,6.8,18.2,34,20.3,49.6,14.4-1.1-22,6.3-43.4,3.5-65.7-2-14.4-42.6-10.3-52.4-19.4-2.4-10.3-.3-27.6,0-38.6,5.4,18.6,33.3,19.3,48.1,14.5-1.4-24.9,9.6-52.7.8-76.3-8.3,1.1-39.2-3.1-45.9-8.4-1.3-3.3-.5-7.3-.1-10.7Z"/>
    <path class="st7" d="M611.7,3364c26.4-1.2,15.1,207.5,4.9,224.8-3.1-35.2-6.1-181.3-4.9-224.8Z"/>
    <path class="st9" d="M82.3,3461.5c11.9,2.7,34.2,1.4,35.5,17.6,1.3,11.6,10.2,65.3-15,48.3-10.3,1.9-9.8-15.8-13.6-22l-1.6-.3c-4.4,3.4-4.3,11.4-9.4,13.9-6.3-7-1.8-38.1-2.3-48.7,2.8-2.1,4.7-5.9,6.4-8.9Z"/>
    <path class="st9" d="M85.4,3353.4c8.7,2.4,21,6.4,29.9,6.4,3.4,13.8,14.8,74.5-15.4,55.8-7.4-2.7-5-14.6-11.5-19.2-3.9,2-3.3,8.8-7.3,12-10.2,2.2-4.3-29-5.1-35.5.4-10.8,1.6-12.4,9.3-19.6Z"/>
    <path class="st9" d="M84.7,3573.3c6.7,1,25.7,8.5,30.1,8.1,2.1,20,3.8,39,2.3,59.1-4.5,2.1-11.3.7-15.1-2.3-9.5,0-6.7-14.7-13.4-18.7-3.8,1.9-3.9,7.8-7.7,10.4l-1.8-.5c-6.5-7.6-2.4-36.4-2-47.1,2.8-2.6,5.2-6.1,7.6-9.1Z"/>
    <path class="st7" d="M442.4,3200.4c10.8,6.4,45.3,9.7,57.8,7.3,4.9-.9,12.8-6.2,17.2-4.7,2.6,3.8,1.9,9.9-1.2,13.1-7.3,14.7-50.4,8.9-63,5.3-10.1-2.9-15.4-11.1-10.8-21.1Z"/>
    <path class="st7" d="M300.3,3196c6,3.5,37.7,3.3,46.3,3,4.5-.2,16.4-2.9,20.1-1.4,4,1.7,3,11.7-1.5,12.2-13.7,10.5-51.3,11-65.5,1.4-.1-5.1-.4-10.1.6-15.1Z"/>
    <path class="st7" d="M353.4,3115.6c13.1,9.6,15.3,45.1,12.1,59.7-1,3.6-4.5,4.3-7.1,6.5l-2-.9c-2.8-4.9-2.9-11.6-3.4-17.1-.1-10.5-8.5-41.8.3-48.2Z"/>
    <path class="st7" d="M336.8,3116.6c10.1,1.8,10.2,60.6,8.7,65.1-2.2-.4-4.7.5-6.9.7-9.3-8.5-5.4-56.3-1.8-65.8Z"/>
    <path class="st8" d="M479.5,3113.8c7.8,3,8.1,69.6,8,76-1,.7-3.2,1.3-4.4,1.4-9.9-11-7.8-65.7-3.7-77.4Z"/>
    <path class="st7" d="M451.3,3119.9c7.5,5.8.9,59.6-1.2,67.9-16.2.8-4.7-60.4,1.2-67.9Z"/>
    <path class="st8" d="M465.6,3117.4l1.8.9c2.9,9.5,3.8,65.5,1.6,71l-2.9-1.1-1.8.5c-9.1-10.5-3.1-58.7,1.3-71.2Z"/>
    <path class="st9" d="M132,3360.4c6.8,4.7-.6,53.9-2.7,58.1l-2.8-1.4c-1.6.1-1.7.2-3-.8,1-17.1-.3-34.3-.1-51.4,2-2.3,6.2-2.1,8.7-4.5Z"/>
    <path class="st9" d="M131.9,3472.5c6.9,7.3.7,48.2-1.2,56.9l-1.3.4-3-2h-2.3c-.6-1.3-.4-45.5-1.4-52.9,2.9,1.2,6.6-.9,9.1-2.4Z"/>
    <path class="st8" d="M322.9,3118.6c1.1.4,2.1,1.1,3,1.7,1.7,4.8,1.7,55.5.4,60.6-2.8-.7-5.2.9-7.9-.2-4.5-8.8.9-52,4.5-62.1Z"/>
    <path class="st8" d="M495.1,3114.9c4.5,3,7.6,65.3,6.4,72.6-.5,2.1-2.8,2.3-4.5,1.5-5.2-11.5-6.8-62.7-1.9-74.1Z"/>
    <path class="st7" d="M506.2,3117.5c8.1-.4,17.1,67.8,7.5,67.8l-2-1c-1.6-3.5-5.7-59.7-5.5-66.8Z"/>
    <path class="st8" d="M310.6,3118.8c5,8.6-.7,23.8-.7,33.7-.5,9.1-.3,18.2-.9,27.2-2,.7-4.9-.2-6.7-1.4-.7-18.3-2-43.3,8.3-59.5Z"/>
    <path class="st9" d="M127.4,3584.1l2.8,1.4c3.7,8.7-1.3,49.3-3.7,55.1h-2.9c-1.2-3-1.9-44.3-2.4-51.3,1.4-2.8,3.6-3.6,6.2-5.1Z"/>
    <g>
      <path d="M296.3,3382.4l-1-14.3,5-5.7,1.5,21.1-1.9,2.1-3.6-3.1ZM302.2,3389.5l1.5,21-5.7-5-1-14.3,3.1-3.6,2.1,1.9Z"/>
      <path d="M313.7,3382.5l-1.5-21.1,5.7,5,1,14.3-3.1,3.6-2.1-1.9ZM338,3381.2l2.9,2.5-2.5,2.9-18.7,1.3-2.8-2.5,2.5-2.9,18.7-1.3ZM338.2,3379.5l-1-14.3,5-5.7,1.5,21.1-1.8,2.1-3.6-3.1ZM344.1,3386.6l1.5,21-5.7-5-1-14.3,3.2-3.6,2.1,1.9Z"/>
      <path d="M352.3,3379.9l-1.5-21.1,5.7,5,1,14.3-3.1,3.6-2.1-1.9ZM379.8,3355.9l-4.9,5.7-17.4,1.2-5.7-5,28-1.9ZM358.2,3386.9l1,14.3-5,5.7-1.4-21,1.9-2.2,3.6,3.1ZM383.2,3406l-28,1.9,4.9-5.7,17.4-1.2,5.7,5ZM376.7,3378.6l2.9,2.5-2.5,2.9-18.7,1.3-2.8-2.5,2.5-2.9,18.7-1.3ZM382.7,3383.9l1.4,21-5.7-5-1-14.3,3.2-3.6,2.1,1.9Z"/>
      <path d="M392.8,3405.3l-.4-5.4,5.4-.4.4,5.4-5.4.4Z"/>
      <path d="M404.8,3376.3l-1.5-21.1,5.7,5,1,14.3-3.1,3.6-2.1-1.9ZM432.3,3352.3l-4.9,5.7-17.4,1.2-5.7-5,28-1.9ZM435.7,3402.3l-28,1.9,4.9-5.7,17.4-1.2,5.7,5ZM429.2,3374.9l2.9,2.5-2.5,2.9-18.7,1.3-2.8-2.5,2.5-2.9,18.7-1.3ZM435.2,3380.3l1.4,21-5.7-5-1-14.3,3.2-3.6,2.1,1.9Z"/>
      <path d="M470.9,3349.6l-4.9,5.7-17.4,1.2-5.7-5,28-1.9ZM449.3,3380.6l1,14.3-5,5.7-1.4-21,1.9-2.2,3.6,3.1ZM474.3,3399.7l-28,1.9,4.9-5.7,17.4-1.2,5.7,5ZM467.8,3372.3l2.9,2.5-2.5,2.9-18.7,1.3-2.8-2.5,2.5-2.9,18.7-1.3ZM467.9,3370.5l-1-14.3,5-5.7,1.5,21.1-1.8,2.1-3.6-3.1Z"/>
      <path d="M487.3,3369.2l-3.1,3.6-2.1-1.9-1.5-21.1,5.7,5,1,14.3ZM509.5,3346.9l-4.9,5.7-17.4,1.2-5.7-5,28-1.9ZM488.9,3392.3l-5,5.7-1.4-21,1.9-2.2,3.6,3.1,1,14.3ZM513,3397l-28,1.9,4.9-5.7,17.4-1.2,5.7,5ZM512,3368.9l-1.8,2.1-3.6-3.1-1-14.3,5-5.7,1.5,21.1ZM513.9,3395.9l-5.7-5-1-14.3,3.2-3.6,2.1,1.9,1.4,21Z"/>
    </g>
  </g>
</svg>