<?xml version="1.0" encoding="UTF-8"?>
<svg id="Layer_1" xmlns="http://www.w3.org/2000/svg" width=".84in" height="5in" version="1.1" viewBox="0 0 60.504 360">
  <!-- Generator: Adobe Illustrator 29.4.0, SVG Export Plug-In . SVG Version: 2.1.0 Build 152)  -->
  <defs>
    <style>
      .st0 {
        fill: #111;
      }

      .st1 {
        fill: #fefdfd;
      }

      .st2 {
        fill: #ff9106;
      }

      .st3 {
        fill: #06cd0f;
      }

      .st4 {
        fill: #606060;
      }

      .st5 {
        fill: #eb9700;
      }

      .st6 {
        fill: #ad6f00;
      }

      .st7 {
        fill: #858585;
      }

      .st8 {
        fill: #5e5e5e;
      }

      .st9 {
        fill: #abaaaa;
      }
    </style>
  </defs>
  <g>
    <rect class="st2" x="16.947" y="7.283" width="1.503" height="255.725"/>
    <polygon class="st4" points="15.436 281.415 15.436 283.922 20.291 283.922 20.291 280.908 15.436 281.246 15.436 281.415"/>
    <path class="st3" d="M17.699,9.124h0c-.836,0-1.503-.169-1.503-1.005V3.602c0-.836.667-1.503,1.503-1.503h0c.836,0,1.503.667,1.503,1.503v4.517c0,.836-.667,1.005-1.503,1.005Z"/>
    <path class="st0" d="M15.774,263.675l-.667,1.174c-.169.338-.338.667-.338,1.005v3.512c0,.498-.169,1.005-.338,1.503l-1.174,2.846c-.169.169-.169.498-.169.667v7.025c0,.113.056.169.169.169h8.866c.113,0,.169-.056.169-.169v-7.025c0-.169,0-.498-.169-.667l-1.174-2.846c-.169-.498-.338-1.005-.338-1.503v-3.512c0-.338-.169-.667-.338-1.005l-.667-1.174c-.338-.498-.836-.667-1.343-.667h-1.503c-.338,0-.836.169-1.005.667h.018Z"/>
  </g>
  <g>
    <path d="M56.1,298.141c.009-2.303-.044-5.229-2.561-6.171-.053-2.623-.276-6.945-2.285-8.875-1.236-1.192-3.646-1.485-4.393-2.259-.098-3.833.711-11.791-5.166-11.018-5.513-.249-4.944,6.438-5.095,10.262-.569.258-2.356.24-2.952-.089-.854-2.632.08-5.744-1.147-8.27-.356-.649-1.165-.943-1.512-1.538-.791.267-1.538-.053-2.33-.08-5.344-.116-4.348,5.549-4.357,9.292-.418.222-1.343.409-1.805.196,0,.009-.009.027-.018.036-.178.8-1.067.711-1.69.889v.356c-1.512-.089-3.201.711-4.624,0,0,0-.089.178-.178.267-.089-.089-.089-.178-.178-.267,0,.089-.089.178-.089.267l-.267-.267c-.089.089-.089.178-.178.267-.089-.089-.178-.267-.267-.267s-.178.267-.267.267c-.711-.267-1.592-.267-2.383-.089h0c-.516.534-1.645.631-2.348.836-2.659.765-4.455,2.668-4.588,5.495-.142.925.187,1.832.293,2.739.009.542-.276,1.032-.213,1.761-.205.205-.551.32-.729.534-.418.498-.427,2.383-.462,3.041-.027,1.236-.249,3.726.943,4.446l.018,1.574c-1.601,1.245-.889,4.944-.854,6.838.071.658.187,1.192.711,1.654-.053,2.116.116,1.405-.685,3.246-.107,1.325-.685,6.011.889,6.616.027.765-.16,1.636.542,2.161.311,9.639-.365,19.359.48,28.962,1.076,6.296,15.241,8.439,20.47,7.443,5.389-.382,10.751-1.067,16.122-1.618,2.872-.445,7.114-.213,9.364-2.188,1.094-1.156,1.387-2.792,1.449-4.331.391-11.08.187-22.177.142-33.266.845-.409,1.405-1.023,1.707-1.921.987-5.549.605-11.302.516-16.922l-.027-.009Z"/>
    <path class="st5" d="M46.408,284.811c.445.24,2.223.285,2.872.4.418.071.863.311,1.28.258,1.547,3.352,1.369,7.194,1.414,10.813.142,5.46.133,10.893.169,16.344.062,12.04.454,24.098-.151,36.129-.089,1.174-.107,2.552-.747,3.584-1.654,2.116-4.855,1.645-7.238,2.063-4.829.516-10.849,1.263-15.642,1.663-1.69.062-3.521.56-5.158.124-.622.409-2.481-.018-3.175-.222-2.872-1.254-2.223-6.794-2.49-9.426.72-19.296-.525-38.85,1.023-58.04.569-4.544,24.098-2.872,27.868-3.681l-.027-.009Z"/>
    <path d="M43.313,287.675c.48.231,2.881.267,3.468.107.8.818,1.503,1.761,1.547,2.97.124,1.396.169,10.057-.151,10.84-.534.205-1.138,0-1.698-.036-.827-.062-1.698-.116-2.525-.116-.934.133-1.867.044-2.81,0-4.944.071-10.039.863-14.903,1.512-.365.329-.898.142-1.343.24-.969.196-1.885.578-2.89.587-.382-.205-.436-.845-.489-1.236-.116-4.126-.205-8.297.329-12.396.391-.124.711-.622.88-.969,3.592-.685,17.811-.8,20.595-1.503h-.009Z"/>
    <path class="st1" d="M45.527,288.929c1.156.231,1.681.774,1.805,1.974.338,3.077-.036,6.216.053,9.31-.427.249-3.859-.044-4.722-.009-2.143.036-4.277.133-6.42.285-3.344.249-6.687.596-10.004,1.129-.622.053-1.316.462-1.921.249-.356.24-1.227.373-1.672.462l-.08-.053c-.382-2.623-.471-8.759.329-11.498.409.036.783-.382,1.005-.676,4.277.142,8.794-.694,13.116-.747l6.153-.222c.756-.08,1.69.258,2.348-.205h.009Z"/>
    <path d="M39.632,304.446c.72.356,2.321.187,3.13.133,2.027-.116,3.619.071,5.62.293.498.053,1.12-.133,1.529.249.738,1.04-.631,1.77-1.485.622-.622.285-1.458.373-1.992-.133-1.352.56-3.103.089-4.562.124-.658-.018-1.307.107-1.965.107-.605,0-1.352-.258-1.814.231-.347.16-1.138-.142-1.547-.116-1.814.089-3.495.525-5.326.329-.044.044-.169.196-.213.222-1.752.222-7.185.427-9.177,1.129-.391-.249-.534-.809-.373-1.236.133-.187.356-.169.569-.151.391,0,.747-.258,1.103-.231.702.062,2.072,0,2.748-.24.889-.311,2.063-.285,3.006-.365,2.214-.169,5.904-.542,8.083-.72.898-.08,1.93.32,2.703-.258l-.036.009Z"/>
    <path d="M42.201,307.949c1.796.534,4.144-.213,5.967.445.48.044.978-.107,1.396.222.827.978-.747,1.663-1.485.56-.587.382-1.28.151-1.921.107-.756-.018-1.556.187-2.223-.205-1.103.409-.694.418-1.939.142-.347.044-3.895,0-3.957.382-1.841-.311-8.11.791-9.515.454-.818.56-3.566.471-4.668.622-.711.027-1.441.578-2.134.391-.213-.391-.498-.943-.16-1.334.302-.107.676.098.996.124.56-.8,2.143-.222,3.032-.373.756-.64,5.318-.471,5.798-.694.089-.053.222-.24.311-.32.516-.044.987.178,1.494.249.454.062.329-.089.667-.222,1.485-.187,4.5-.258,6.1-.365.738-.044,1.601.311,2.25-.187h-.009Z"/>
    <path d="M41.837,311.702c.729.267,1.858.053,2.65.062.818.009,4.348.205,4.909.694.711.898-.934,1.467-1.61.418-.329.196-.711.356-1.085.196-.347.08-.578-.196-.907-.205-.987.098-1.085.507-2.063-.053-.373-.018-.525.24-.863.285-.498.071-.916-.231-1.405-.24-.551-.009-1.076.276-1.627.302-.534.027-1.049-.196-1.583-.116-.329.622-1.289.267-1.841.169-.4.258-.88.231-1.343.258-1.174.124-2.356.187-3.53.293-.845,0-1.787.462-2.597.133-.445.311-1.103.16-1.61.231-.996.347-2.099.16-3.13.311-.996.16-2.837,1.298-2.792-.507.462-.916,2.579-.258,3.352-.72.391-.231.569.116.916.124.685-.471,1.672-.347,2.49-.418,1.058-.089,2.107-.222,3.175-.285.347-.631,1.574-.142,2.232-.222,1.521.044,2.97-.551,4.491-.418.614-.009,1.218-.08,1.832-.089.516,0,1.547.107,1.956-.205h-.018Z"/>
    <path d="M25.288,325.512c1.974.196,4.215,1.369,3.512,3.699-.454,1.263-1.894,2.454-3.263,2.356-3.797,1.129-5.789-4.722-.249-6.065v.009Z"/>
    <path class="st7" d="M25.066,326.81c.863.267,2.303.133,2.783,1.165.64,1.138-1.263,2.428-2.25,2.33-1.12.791-3.175-.258-2.828-1.716.231-1.076,1.547-1.236,2.294-1.778Z"/>
    <path d="M39.018,315.908c.854.445,4.393.018,5.602.071,1.058.044,2.045.24,3.086.382.667,0,1.956.169,1.618,1.12-.445.498-1.12.107-1.654-.027-.649-.151-1.458-.32-2.116-.382-.4-.036-.818.213-1.218.213-.72-.151-.694-.498-1.467-.053-.391.107-1.058-.151-1.485-.16-.863-.018-1.93.516-2.721.071-.24-.133-.809.356-1.103.4-1.538-.418-4.411.525-5.824.098-2.552.756-5.326.427-7.923.907-.347.062-1.761.48-2.001.32-.356-.285-.542-.898-.258-1.289.276-.133.667.018.978.027.587-.454,1.156-.142,1.832-.151.56-.587,1.903-.178,2.65-.329.409-.329.596-.267,1.112-.249.631-.027,2.73-.107,3.166-.24.169-.053.151-.231.4-.249.489-.027.996.178,1.494.16.676-.027,1.387-.205,2.063-.267,1.067-.098,2.099-.071,3.175-.053.302,0,.391-.124.605-.329l-.009.009Z"/>
    <path d="M41.775,319.314c.747.293,1.921.071,2.712.071.809,0,4.099.151,4.651.64.738.916-.996,1.538-1.547.418-.622.4-1.512.418-2.054-.124-1.12.729-3.219.196-4.58.285-3.495.409-7.069.498-10.555,1.04-.498.089-1.441.311-1.894.027-.489.311-1.04.062-1.503.32-.462.258-.987,0-1.476.062-1.076.116-2.703.614-3.664.587-.365-.249-.569-.765-.391-1.183.302-.213.605-.08.96-.142.205-.036.365-.205.578-.213.427-.018.969.151,1.378.071.667-.694.907.293,1.476-.311,3.495-.347,7.185-.756,10.769-1.094.845-.151,4.909.036,5.149-.454h-.009Z"/>
    <path d="M34.865,324.898c.462.213,1.405.08,2.019.276,3.228,1.049,2.027,5.575-1.04,5.593-3.459,1.387-6.367-4.01-.978-5.869Z"/>
    <path class="st7" d="M34.963,326.125c.916.222,2.179.071,2.712,1.103.64,1.165-.907,2.454-2.001,2.365-.302.329-.96.222-1.352.116-2.774-.8-1.307-2.908.64-3.584Z"/>
    <path d="M44.371,324.284c.454.222,1.494.053,2.099.24,3.175.996,2.143,5.442-.863,5.531-3.53,1.601-6.394-3.726-1.227-5.771h-.009Z"/>
    <path class="st7" d="M44.389,325.512c1.707.347,1.894-.302,3.228,1.369-.213.934-1.014,2.09-2.072,2.036-1.165.738-2.934-.089-3.175-1.441.365-.969,1.094-1.565,2.019-1.965h0Z"/>
    <path d="M46.079,337.045c2.552.356,2.374,3.352-.187,3.326-1.085.747-1.93-1.049-1.734-1.947.151-.694,1.369-1.023,1.921-1.378Z"/>
    <path d="M24.977,348.827c2.872.142,2.241,3.148-.213,3.157-1.005.783-1.921-.871-1.743-1.752.151-.765,1.378-.987,1.947-1.405h.009Z"/>
    <path d="M46.034,332.323c2.57.24,2.41,3.157-.071,3.263-1.032.694-1.974-.756-1.832-1.698.124-.863,1.298-1.076,1.894-1.556l.009-.009Z"/>
    <path d="M45.883,347.28c2.561-.107,2.632,3.13.169,3.183-.996.791-2.01-.676-1.912-1.618.071-.978,1.174-.996,1.734-1.565h.009Z"/>
    <path d="M38.938,332.928c.614.133,1.378.098,1.743.729.711,1.103-.498,2.534-1.69,2.356-.996.729-2.054-.614-1.912-1.592.124-1.005,1.236-.96,1.858-1.494Z"/>
    <path d="M24.799,343.927c.338.16.791.098,1.138-.009.178.311.578.48.783.791.631,1.085-.676,2.41-1.787,2.241-1.023.836-2.045-.738-1.921-1.69.107-.756,1.254-.916,1.787-1.334h0Z"/>
    <path d="M46.114,342.185c2.481.338,2.241,3.326-.205,3.237-1.076.791-1.947-.969-1.698-1.876.16-.676,1.352-1.005,1.894-1.352l.009-.009Z"/>
    <path d="M39.516,337.756c1.69.418,1.947,2.543.16,3.032-.311.124-.8.338-1.129.205-.951.445-1.601-1.085-1.396-1.841.311-.943,1.654-.996,2.365-1.396h0Z"/>
    <path d="M38.894,347.885c.614.124,1.378-.018,1.761.649.738,1.067-.365,2.579-1.583,2.419-1.032.738-2.125-.685-1.939-1.69.151-.854,1.156-.96,1.761-1.387v.009Z"/>
    <path d="M39.427,342.816c2.57.507,1.352,3.664-.88,3.157-.951.436-1.601-1.049-1.361-1.823.302-1.094,1.485-.845,2.241-1.334h0Z"/>
    <path d="M24.71,338.779c.649.178,1.476-.018,1.93.631.791,1.032-.454,2.534-1.618,2.356-1.04.898-2.045-.649-2.036-1.601.107-.702,1.2-1.014,1.716-1.387h.009Z"/>
    <path d="M31.958,343.314c2.712.098,2.099,3.192-.133,3.21-1.014.711-1.867-.978-1.707-1.841.142-.836,1.254-.943,1.832-1.369h.009Z"/>
    <path d="M32.02,333.461c2.712.16,2.188,3.112-.187,3.148-1.014.711-1.885-1.076-1.716-1.912.169-.685,1.387-.871,1.912-1.227l-.009-.009Z"/>
    <path d="M32.153,348.311c2.481.427,1.734,3.299-.498,3.183-1.032.516-1.823-1.103-1.547-1.947.231-.676,1.476-.951,2.045-1.236h0Z"/>
    <path d="M32.127,338.343c2.623.409,1.761,3.326-.48,3.219-.943.587-1.672-1.183-1.521-1.93.16-.756,1.441-.88,1.992-1.289h.009Z"/>
    <path d="M24.79,333.977c.631.187,1.538.071,1.885.827.56,1.058-.694,2.268-1.743,2.116-1.032.863-1.974-.765-1.894-1.681.142-.64,1.245-.916,1.752-1.263h0Z"/>
    <path d="M38.591,286.626c.498.285,1.334-.036,1.93.222v.276c-.658.311-1.618.062-2.339.116-1.298-.036-2.748.4-4.002.018-.418.285-1.663.329-1.912-.169.889-.64,5.442.116,6.314-.462h.009Z"/>
    <path d="M49.893,286.421c1.183,1.023,1.645,3.833,1.334,5.246l-.08.018c-.356-.569-.178-1.361-.373-2.001-.178-.809-1.04-2.543-.88-3.255v-.009Z"/>
    <path d="M18.53,349.227c.836,1.894-.64,2.952,1.414,5.193.124.187.133.258.089.471-2.179-.551-1.565-3.966-1.512-5.664h.009Z"/>
    <path d="M49.351,288.662c.64.267,1.183,3.006.587,3.379-.285-.596-.56-2.641-.587-3.379Z"/>
    <path d="M51.032,348.338c.285.64-.089,3.788-.614,4.224l-.036-.018c-.196-.427.507-3.566.649-4.206h0Z"/>
    <path class="st6" d="M24.07,281.397c2.259,2.134,5.807,1.067,8.563.934,1.672-.018,3.148.311,4.846.053.729.978,3.29,1.112,4.357.951-1.174.525-2.365.071-3.575.133-4.064.178-8.128.454-12.165,1.023-2.685.382-6.571-.124-8.092,2.623-1.28,3.148-.72,6.651-.871,9.968-.044,2.49-.231,4.997-.24,7.487.347,8.341-.009,23.307-.044,31.826-.089,6.447-.774,13.107.916,19.341l-.178.044c-1.085-.596-1.218-2.321-1.307-3.415-.027-.08-.053-.098-.116-.151-.542.925-.169,2.312.276,3.21-.809.249-6.838-2.89-7.585-3.477-.667-.614-.951-1.778-1.067-2.641-.347-9.043-.036-18.114-.302-27.166.471.489,5.033,1.103,5.407,1.103,1.192-.205,1.716-1.494,1.93-2.552.809-5.255.24-10.644.267-15.935-.053-3.326.089-6.714-.24-10.031-.08-.827-.249-2.312-.72-3.006-1.183-1.352-5.451-.4-6.9-2.027-1.432-3.993,1.672-5.842,5.202-6.278.48-.089,1.174-.107,1.556-.409,1.334,1.698,7.781.809,8.465-1.289.187-.151,1.076.133,1.618-.302v-.018Z"/>
    <path d="M17.036,286.474c.098.036.142.08.205.151.027.614-.783,3.068-.969,3.717-.24-1.423-.036-2.677.765-3.877v.009Z"/>
    <path class="st8" d="M7.095,291.525c1.787.738,3.699,1.076,5.629.978.356.027.587.285.96.196.783,4.09.445,8.323.498,12.476.018,3.477.169,6.963.089,10.44-.24,1.583.542,6.616-1.965,6.251-.845-.036-4.588-.836-5.086-1.405-.454-.516-.293-1.272-.249-1.903.427,1.547,2.677,1.734,3.913,1.289-.142-2.214.729-4.5.178-6.705-.436.116-4.073-.889-4.419-1.12-.027-1.2-.036-2.383.133-3.575.605,1.618,3.023,1.805,4.411,1.28-.098-1.956.56-3.859.311-5.842-.178-1.28-3.788-.916-4.66-1.725-.213-.916-.027-2.454,0-3.432.48,1.654,2.961,1.716,4.277,1.289-.124-2.214.854-4.686.071-6.785-.738.098-3.486-.276-4.082-.747-.116-.293-.044-.649-.009-.951v-.009Z"/>
    <path class="st7" d="M53.504,294.326c2.348-.107,1.343,18.452.436,19.99-.276-3.13-.542-16.122-.436-19.99Z"/>
    <path class="st8" d="M6.428,302.996c1.058.24,3.041.124,3.157,1.565.116,1.032.907,5.807-1.334,4.295-.916.169-.871-1.405-1.209-1.956l-.142-.027c-.391.302-.382,1.014-.836,1.236-.56-.622-.16-3.388-.205-4.331.249-.187.418-.525.569-.791v.009Z"/>
    <path class="st8" d="M6.703,293.384c.774.213,1.867.569,2.659.569.302,1.227,1.316,6.625-1.369,4.962-.658-.24-.445-1.298-1.023-1.707-.347.178-.293.783-.649,1.067-.907.196-.382-2.579-.454-3.157.036-.96.142-1.103.827-1.743l.009.009Z"/>
    <path class="st8" d="M6.641,312.938c.596.089,2.285.756,2.677.72.187,1.778.338,3.468.205,5.255-.4.187-1.005.062-1.343-.205-.845,0-.596-1.307-1.192-1.663-.338.169-.347.694-.685.925l-.16-.044c-.578-.676-.213-3.237-.178-4.188.249-.231.462-.542.676-.809v.009Z"/>
    <path class="st7" d="M38.449,279.778c.96.569,4.028.863,5.14.649.436-.08,1.138-.551,1.529-.418.231.338.169.88-.107,1.165-.649,1.307-4.482.791-5.602.471-.898-.258-1.369-.987-.96-1.876v.009Z"/>
    <path class="st7" d="M25.813,279.387c.534.311,3.352.293,4.117.267.4-.018,1.458-.258,1.787-.124.356.151.267,1.04-.133,1.085-1.218.934-4.562.978-5.824.124-.009-.454-.036-.898.053-1.343v-.009Z"/>
    <path class="st7" d="M30.535,272.238c1.165.854,1.361,4.01,1.076,5.309-.089.32-.4.382-.631.578l-.178-.08c-.249-.436-.258-1.032-.302-1.521-.009-.934-.756-3.717.027-4.286h.009Z"/>
    <path class="st7" d="M29.059,272.327c.898.16.907,5.389.774,5.789-.196-.036-.418.044-.614.062-.827-.756-.48-5.006-.16-5.851h0Z"/>
    <path class="st9" d="M41.748,272.078c.694.267.72,6.189.711,6.758-.089.062-.285.116-.391.124-.88-.978-.694-5.842-.329-6.883h.009Z"/>
    <path class="st7" d="M39.24,272.62c.667.516.08,5.3-.107,6.038-1.441.071-.418-5.371.107-6.038Z"/>
    <path class="st9" d="M40.512,272.398l.16.08c.258.845.338,5.824.142,6.314l-.258-.098-.16.044c-.809-.934-.276-5.22.116-6.331v-.009Z"/>
    <path class="st8" d="M10.847,294.006c.605.418-.053,4.793-.24,5.166l-.249-.124c-.142.009-.151.018-.267-.071.089-1.521-.027-3.05-.009-4.571.178-.205.551-.187.774-.4h-.009Z"/>
    <path class="st8" d="M10.838,303.974c.614.649.062,4.286-.107,5.06l-.116.036-.267-.178h-.205c-.053-.116-.036-4.046-.124-4.704.258.107.587-.08.809-.213h.009Z"/>
    <path class="st9" d="M27.823,272.505c.098.036.187.098.267.151.151.427.151,4.935.036,5.389-.249-.062-.462.08-.702-.018-.4-.783.08-4.624.4-5.522Z"/>
    <path class="st9" d="M43.135,272.176c.4.267.676,5.807.569,6.456-.044.187-.249.205-.4.133-.462-1.023-.605-5.575-.169-6.589Z"/>
    <path class="st7" d="M44.122,272.407c.72-.036,1.521,6.029.667,6.029l-.178-.089c-.142-.311-.507-5.309-.489-5.94Z"/>
    <path class="st9" d="M26.729,272.522c.445.765-.062,2.116-.062,2.997-.044.809-.027,1.618-.08,2.419-.178.062-.436-.018-.596-.124-.062-1.627-.178-3.85.738-5.291h0Z"/>
    <path class="st8" d="M10.438,313.898l.249.124c.329.774-.116,4.384-.329,4.9h-.258c-.107-.267-.169-3.939-.213-4.562.124-.249.32-.32.551-.454v-.009Z"/>
    <g>
      <g>
        <path d="M23.595,297.537c-.026-.334-.051-.669-.077-1.004.229-.266.458-.531.687-.796.049.651.099,1.301.148,1.951-.091.106-.183.212-.274.318-.17-.146-.341-.291-.511-.437.009-.011.018-.022.027-.032ZM24.445,298.513c.049.651.098,1.301.147,1.951-.265-.228-.53-.455-.795-.683-.026-.335-.051-.67-.077-1.005.146-.17.292-.339.438-.509.106.091.213.182.319.273-.011-.009-.021-.018-.032-.028Z"/>
        <path d="M25.538,297.57c-.048-.651-.097-1.301-.145-1.951.266.228.532.456.798.685.025.335.049.67.074,1.005-.147.169-.294.339-.44.508-.106-.091-.212-.183-.319-.274.011.009.021.018.032.027ZM27.977,297.453c.138.119.275.238.413.357-.12.137-.239.274-.359.412-.534.037-1.068.075-1.602.114-.138-.119-.276-.237-.414-.356.119-.137.238-.275.358-.412.534-.039,1.069-.077,1.603-.115ZM27.989,297.215c-.024-.335-.048-.67-.071-1.005.23-.264.461-.527.692-.791.046.651.091,1.301.137,1.952-.092.105-.184.211-.276.316-.169-.147-.339-.293-.508-.44.009-.01.018-.021.028-.032ZM28.834,298.196c.045.651.09,1.302.136,1.952-.264-.229-.528-.458-.792-.688-.024-.335-.047-.67-.071-1.005.147-.169.294-.337.441-.506.106.092.212.183.317.275-.011-.009-.021-.019-.032-.028Z"/>
        <path d="M29.606,297.281c-.045-.651-.089-1.302-.134-1.952.265.23.53.459.795.689.023.345.047.69.07,1.035-.148.169-.296.337-.443.505-.106-.092-.211-.184-.317-.276.01,0,.02-.001.03-.002ZM30.45,298.294c.023.345.046.69.07,1.035-.23.263-.46.526-.69.79-.044-.651-.089-1.302-.133-1.952.092-.105.184-.211.277-.316.169.147.338.295.507.441-.01,0-.02,0-.03.002ZM32.56,294.977c-.232.262-.465.524-.696.788-.476.031-.953.062-1.429.094-.265-.23-.53-.459-.795-.689.983-.067,1.966-.132,2.95-.195-.01,0-.02.001-.03.002ZM32.886,300.036c-.977.062-1.953.127-2.93.193.23-.263.46-.527.69-.79.474-.032.948-.063,1.422-.094.263.231.526.461.788.692.01,0,.02-.001.03-.002ZM32.046,297.179c.137.12.274.239.411.36-.12.136-.241.273-.361.41-.534.034-1.069.07-1.603.105-.137-.12-.275-.239-.412-.359.12-.136.24-.273.36-.41.535-.036,1.07-.071,1.604-.106ZM32.87,297.928c.042.651.083,1.302.125,1.953-.262-.231-.525-.461-.788-.692-.022-.335-.044-.671-.065-1.006.148-.168.296-.336.444-.504.105.093.211.184.316.277-.011-.009-.021-.019-.032-.028Z"/>
        <path d="M33.774,299.98c-.015-.247-.031-.493-.046-.74.247-.015.494-.031.741-.046.015.247.03.493.046.74-.247.015-.493.03-.74.046Z"/>
        <path d="M38.077,294.645c-.234.261-.469.522-.703.782-.477.027-.953.055-1.43.083-.263-.232-.526-.464-.79-.695.984-.06,1.968-.117,2.953-.172-.01,0-.02.002-.03.002ZM37.562,296.605c-.02-.345-.04-.69-.06-1.036.234-.261.468-.522.703-.782.037.651.074,1.302.111,1.954-.094.104-.187.209-.281.313-.168-.149-.335-.298-.503-.447.01,0,.02,0,.03-.001ZM38.394,297.597c.037.651.074,1.303.11,1.954-.261-.233-.522-.466-.783-.698-.019-.336-.039-.671-.058-1.006.149-.167.299-.333.448-.5.105.093.209.186.314.279-.01-.01-.021-.018-.031-.028Z"/>
        <path d="M39.179,296.692c-.036-.651-.073-1.303-.109-1.954.262.233.525.467.786.699.019.345.038.691.057,1.036-.15.167-.3.333-.45.5-.105-.094-.209-.187-.314-.28.01,0,.02-.001.03-.002ZM39.981,297.717c.019.345.038.691.056,1.036-.234.26-.467.521-.701.781-.036-.651-.072-1.302-.108-1.954.094-.104.187-.208.281-.312.167.149.334.298.501.448-.01,0-.02.001-.03.002ZM42.165,294.426c-.236.26-.472.519-.707.779-.477.025-.954.05-1.431.076-.262-.234-.524-.467-.786-.7.985-.053,1.969-.106,2.955-.156-.01,0-.02,0-.03.001ZM42.425,299.489c-.978.05-1.957.101-2.934.155.233-.26.467-.521.701-.781.475-.026.949-.051,1.424-.075.26.234.52.468.78.702.01,0,.02-.001.03-.001ZM41.592,296.622c.136.122.271.244.407.365-.122.135-.244.27-.367.405-.535.028-1.07.056-1.605.085-.136-.121-.272-.242-.408-.364.122-.135.244-.27.366-.406.536-.029,1.071-.057,1.607-.085ZM41.639,296.383c-.018-.345-.036-.691-.054-1.036.235-.26.471-.519.707-.778.034.651.067,1.302.101,1.954-.094.104-.188.207-.282.311-.167-.15-.334-.299-.501-.449.01,0,.02-.001.03-.001ZM42.437,297.381c.033.651.067,1.303.1,1.954-.26-.234-.52-.468-.78-.702-.017-.335-.035-.671-.052-1.007.15-.166.301-.332.451-.498.104.094.208.187.313.281-.01-.009-.021-.019-.031-.028Z"/>
        <path d="M43.256,296.479c-.033-.651-.065-1.303-.098-1.954.261.235.522.469.783.704.017.345.034.691.051,1.036-.151.166-.302.331-.453.497-.104-.094-.208-.188-.312-.282.01,0,.02,0,.03-.001ZM44.053,297.509c.017.345.034.691.051,1.036-.235.259-.471.517-.705.777-.032-.651-.065-1.303-.097-1.954.094-.104.188-.207.283-.311.167.15.333.301.499.451-.01,0-.02,0-.03.001ZM46.226,294.231c-.237.258-.475.517-.712.775-.477.022-.955.045-1.432.068-.261-.235-.522-.469-.783-.704.985-.048,1.971-.095,2.956-.14-.01,0-.02,0-.03.001ZM46.459,299.295c-.979.044-1.958.091-2.936.139.235-.259.47-.518.705-.776.475-.023.95-.046,1.425-.067.259.236.518.471.776.706.01,0,.02,0,.03,0ZM45.719,296.183c-.016-.346-.032-.691-.049-1.037.237-.258.474-.517.712-.774.03.652.06,1.303.09,1.954-.095.104-.189.207-.284.31-.166-.151-.332-.302-.499-.452.01,0,.02,0,.03-.001ZM46.511,297.186c.03.652.059,1.303.089,1.955-.258-.236-.517-.471-.776-.707-.016-.335-.031-.671-.047-1.007.151-.166.303-.33.454-.496.104.094.207.188.311.283-.01-.009-.021-.019-.031-.029Z"/>
      </g>
      <g>
        <path d="M23.447,293.475c-.018-.237-.037-.473-.055-.709.096.082.193.164.289.246.009.118.018.237.027.355-.055.064-.11.127-.165.191-.032-.027-.064-.055-.096-.082h0ZM23.743,293.809c.009.118.018.236.027.354-.083.095-.165.191-.248.287-.018-.237-.036-.473-.055-.709.028-.032.055-.064.083-.096.064.054.128.109.193.164h0ZM24.523,292.621c-.083.095-.166.191-.249.286-.189.014-.378.028-.567.042-.096-.082-.193-.164-.289-.246.368-.028.737-.055,1.106-.083,0,0,0,0,0,0ZM24.312,293.409c.053.046.107.092.16.136-.046.053-.092.106-.138.159-.189.014-.378.028-.567.042-.054-.045-.107-.091-.161-.136.046-.053.092-.106.138-.159.189-.014.378-.029.567-.043Z"/>
        <path d="M24.909,293.365c-.018-.236-.036-.473-.053-.71.096.083.193.165.289.246.009.118.018.236.027.355-.055.063-.111.127-.166.19-.032-.027-.064-.054-.096-.082t0,0ZM25.205,293.7c.01.138.021.276.031.414-.083.095-.166.191-.248.286-.019-.247-.037-.493-.056-.739.028-.031.055-.064.083-.095.064.054.128.109.192.164,0-.01-.001-.02-.002-.03ZM25.957,292.515c-.083.095-.166.191-.249.285-.169.012-.339.025-.508.037-.096-.082-.193-.164-.289-.246.349-.026.697-.052,1.046-.077ZM25.335,293.036c.046-.053.092-.106.138-.159.044.046.087.093.13.139.013.178.026.355.04.532-.036.052-.072.104-.108.157-.053-.046-.107-.092-.16-.137-.013-.177-.026-.355-.04-.532ZM25.769,293.212c-.009-.118-.018-.236-.026-.354.083-.095.166-.191.249-.286.017.237.035.473.052.71-.028.032-.055.063-.083.095-.064-.055-.128-.109-.192-.165h0ZM26.066,293.577c.018.246.036.492.054.739-.096-.082-.192-.164-.288-.246-.01-.139-.02-.276-.031-.414.055-.063.111-.127.166-.19.032.027.064.055.096.082,0,.01.001.02.002.03Z"/>
      </g>
      <g>
        <path d="M32.576,292.213c-.047.052-.093.104-.14.157-.339.022-.678.044-1.017.066-.053-.047-.106-.093-.159-.138.047-.042.094-.085.142-.128.339-.022.678-.044,1.017-.066.052.036.105.073.157.109ZM32.108,292.867c-.027.041-.055.083-.082.124-.064-.055-.127-.111-.191-.166-.005-.069-.009-.138-.014-.207.047-.052.093-.105.14-.158.053.046.106.092.159.138.006.089.012.177.017.266-.01,0-.02.001-.03.002ZM32.168,293.784c-.047.052-.093.105-.14.157-.053-.046-.106-.092-.159-.138-.012-.187-.025-.375-.037-.562.056-.063.112-.126.168-.189.032.027.064.055.095.083.014.207.027.414.041.621.011.009.021.019.032.028Z"/>
        <path d="M33.119,292.713c-.056.063-.112.126-.168.189-.032-.028-.064-.055-.095-.083-.01-.148-.019-.296-.029-.444.047-.052.093-.105.14-.157.053.046.106.093.159.138.008.118.015.237.023.355-.01,0-.02.001-.03.002ZM33.072,293.845c-.053-.046-.106-.092-.159-.138.047-.052.093-.105.14-.157.229-.014.458-.029.687-.043.053.046.106.092.159.139-.047.052-.093.105-.14.157-.229.014-.458.029-.687.043ZM33.723,292.764c.053.046.106.093.159.139-.047.052-.093.104-.14.157-.189.012-.379.023-.568.036-.053-.046-.106-.092-.159-.138.047-.053.093-.105.14-.157.189-.012.379-.024.568-.036ZM33.982,292.125c-.047.052-.094.104-.14.157-.229.014-.459.028-.688.043-.053-.046-.106-.092-.159-.138.047-.042.095-.085.142-.128.229-.014.459-.029.688-.043.052.036.105.073.157.109ZM34.066,293.456c-.047.052-.093.105-.14.157-.053-.046-.106-.093-.159-.139-.007-.118-.015-.236-.022-.355.056-.062.112-.126.168-.189.032.028.064.055.095.083.009.148.019.296.028.444.01,0,.02-.001.03-.002Z"/>
        <path d="M34.582,292.593c-.056.063-.112.126-.168.188-.032-.028-.063-.055-.095-.083-.008-.128-.016-.256-.024-.384.047-.053.094-.105.14-.157.053.046.106.093.159.139.007.108.014.217.02.325-.011-.009-.021-.018-.032-.028ZM34.365,293.438c.053.046.106.093.159.139.047-.052.093-.104.14-.157-.009-.138-.017-.276-.026-.414-.063-.055-.127-.111-.19-.167-.028.031-.056.063-.084.094.01.158.02.316.03.473-.009.01-.019.021-.028.031ZM35.239,292.048c-.047.052-.094.104-.141.157-.17.01-.339.02-.509.031-.053-.047-.106-.093-.159-.139.047-.042.095-.085.142-.127.17-.01.339-.021.509-.031.052.036.105.073.157.109ZM34.714,293.743c-.053-.046-.106-.093-.158-.139.047-.052.093-.104.14-.157.09-.006.179-.011.269-.016.053.046.106.093.158.139-.047.052-.093.104-.14.157-.09.006-.179.011-.269.016ZM34.992,293.4c-.004-.069-.009-.138-.013-.207.07-.004.139-.009.209-.013.116.102.232.204.349.306.004.069.008.138.013.207-.06.003-.119.007-.179.011-.116-.102-.232-.204-.349-.306-.01,0-.02.001-.03.002ZM35.483,292.598c-.028.032-.056.062-.084.094-.063-.055-.127-.111-.19-.167-.007-.108-.013-.217-.02-.325.047-.052.094-.104.141-.157.053.046.106.093.159.139.008.128.016.256.023.385-.009.011-.019.021-.028.031ZM35.516,293.131c-.047.052-.094.105-.14.157-.053-.046-.106-.093-.158-.139-.003-.049-.006-.099-.009-.148.056-.063.112-.126.168-.188.032.027.063.056.095.083.005.079.01.157.014.237.01,0,.02-.001.03-.002Z"/>
      </g>
      <path d="M45.789,292.262c-.048.052-.095.103-.143.155-.279.013-.559.026-.838.039-.052-.047-.105-.094-.157-.141.048-.052.095-.103.143-.155.28-.013.559-.026.839-.039.052.047.105.094.157.141Z"/>
    </g>
  </g>
</svg>