<?xml version="1.0" encoding="UTF-8"?>
<svg id="Layer_1" xmlns="http://www.w3.org/2000/svg" width="4230.7" height="3405.2" xmlns:xlink="http://www.w3.org/1999/xlink" version="1.1" viewBox="0 0 4230.7 3405.2">
  <!-- Generator: Adobe Illustrator 29.4.0, SVG Export Plug-In . SVG Version: 2.1.0 Build 152)  -->
  <defs>
    <style>
      .st0 {
        fill: #a19589;
      }

      .st1 {
        fill: url(#linear-gradient1);
      }

      .st2 {
        fill: #6c6561;
      }

      .st3 {
        fill: #564f4b;
      }

      .st4 {
        fill: #843815;
      }

      .st5 {
        fill: url(#linear-gradient);
      }

      .st6 {
        fill: #f7ebd7;
      }

      .st7 {
        fill: #eb9051;
      }

      .st8 {
        fill: #fed16e;
      }

      .st9 {
        fill: #2d475f;
      }

      .st10 {
        fill: #f8a530;
      }

      .st11 {
        fill: #467b99;
      }

      .st12 {
        fill: #385f80;
      }

      .st13 {
        fill: #d36a25;
      }

      .st14 {
        fill: #9b4519;
      }

      .st15 {
        fill: #0e0e0e;
      }
    </style>
    <linearGradient id="linear-gradient" x1="2015.5" y1="2070.4" x2="1947.1" y2="1941.5" gradientTransform="translate(-5509.9 12092.6) scale(4.6 -4.6)" gradientUnits="userSpaceOnUse">
      <stop offset="0" stop-color="#574e47"/>
      <stop offset="1" stop-color="#726c69"/>
    </linearGradient>
    <linearGradient id="linear-gradient1" x1="1808.2" y1="2415.3" x2="1816.8" y2="2410" gradientTransform="translate(-5509.9 12092.6) scale(4.6 -4.6)" gradientUnits="userSpaceOnUse">
      <stop offset="0" stop-color="#a24a1b"/>
      <stop offset="1" stop-color="#cb671d"/>
    </linearGradient>
  </defs>
  <g>
    <path class="st15" d="M2966.3,644.5c92-4.3,187.9,10.5,262.5,67.4,83.7-16.3,187.4-9.9,253.1,50.6,96.2-25.7,198.4-7.8,273.1,59.9,640.5-69.4,414.6,1174.1,172.3,1479.5-189.7,221.5-274.1,491.3-334.1,771.9-18,65.2-24.1,134.4-48,197.8-2.6,6.2-6.5,10.7-12,14.5-49.7,44.7-150.3,11.2-145-61.3,37.7-216.5,94.6-430.5,161.8-639.8-35.4,14.1-70.4,31.2-109.1,33.8-75.6,8.2-166.4-25.3-211.3-88.2-83.1,47.2-175.2,23.7-246.4-32.5-74.8,29.5-152.5,17.9-224.3-13-27.5,97.9-143.2,551.2-207.5,603.6-38.7,30.1-101.1,18.4-128.8-21.2-12-16.7-14.4-35.7-10.6-55.7,66.3-169.1,135.1-350.6,172.6-530.5-474.4-165-331.8-888.7-188.5-1248.1,7.8-19.9,36.8-77.5,39.1-93.5,1-7.1-7.6-15-8.6-23-1.6-12.5,9-31.5,16.2-41.6,15-21,39.9-29.3,54.5-49.1,98.3-177.6,255.2-358.8,469-381.8ZM3360.7,2119.2c146.1-244.1,218.7-550.8,217.9-833.5-138.1,237.9-225.4,558.6-217.9,833.5ZM3514.8,2256.4c216.6-265.5,307-638.1,272.6-975.6-2.2,339.7-94.6,689.3-275.2,976.9l2.6-1.3ZM3779.4,2206.5c191.2-282.7,299.8-782,159.3-1101.4,116,343.8-2.6,799.3-165,1108.9,2.7-2.4,4.1-4.3,5.7-7.5Z"/>
    <path class="st14" d="M3276.7,764.7c45.7-7.7,91.7,3.3,133.4,21.5-49,33.4-99.6,66.5-157,81.4-150.5,60.4-274.8,236.5-352,374.1-25.2,54.4-45.7,109.7-78.7,160-72.7,131.5-87.2,372.8,96.1,414.2,95.2,19.3,149.9-20.3,215.2-81.4l2.7.7c-21.6,173.2-54,361.6-17.3,537.2,4.8,34.4,25.4,67,24,101.8-18-10.1-42-83.1-47.8-103.6-6.8-24-10.1-84.6-23.7-100.3-15.8-2.9-22.8,19-24.3,31.4-6.8,52.3,13.4,112.7,34.8,159.6l-3.4,2.9-4-.3c-38.9,20.1-65.3,28.9-108.4,35.7-40.4-58.1-63.9-123.4-74.5-193.2,67-59.9,120.5-155.6,134.4-244.6,11.5-50.7-.7-83.1-58.1-78.6-22,4.5-41.9,21.1-61.7,31.3-62.6,32.4-140,45.6-210,40.8-74.4-6.5-126.6-28.5-166.8-93.1-5.2-5.7-10.9-11-19.1-11-15.5,2.9-26.5,20.4-25.6,35.8,1.7,34.8,33.8,61.6,57.7,83.2,10.1,163.7,109,365.8,300.5,263.7,15.4,79.3,50,151.4,94.3,218.4-77.8,19.4-158.6-8.8-215.6-63.2-23.7-18.2-35.8-43.9-57.4-63.1-2.4-2.1-1-1.4-5-1.2-3.5,6.2-3.6,12.9-4.4,19.8l-1.8,1.3c-12.4-6-23.4-21-32-31.5-14.8-18.3-29-36-41.4-56-17.1-27.7-45.2-101.6-73.5-112.5-17.3,3.5-14.8,28.8-12.9,42.1,27.3,106.5,106.7,185,195.1,245.1-376.4,12.2-412.2-521.4-342.5-792.1,16.8,46.9,51.4,86.2,99.5,102,225.9,51.2,332-278.3,263.6-449.8,110.8-226.8,295.5-499.7,567.7-528.8Z"/>
    <path class="st13" d="M2709.1,1293.6c25.6-63.8,88.1-167.4,130.3-222.3,34,20.2,42.9,21.6,81.4,16.9-45.5,72.5-89.7,148.4-123.6,227-18.1,42-71.5,222.5-86.3,237.6l-4-1.2c28.3-88.6,34.5-169.5,2.2-258.1Z"/>
    <path class="st13" d="M2319.5,1936.1c-4.1-95.5-1-202.5,26.5-294.8,12.3,34.6,31.3,59,59.6,82.3-22.9,77.3-15.1,161.2-38.9,238.1-15.5-7.9-25.2-24.6-35.3-38.3l-2.6-1.1-1.2-2.9c-3.8,4.6.2,12.1-4.9,16.2l-3.2.4Z"/>
    <path class="st13" d="M2704.4,1558.6c6.4,18.5-18.8,93.7-24,116.6-7.7,33.9-13.2,68.9-17.9,103.4-6.8,40.5,4.4,141.2-61.5,119.2-44.2-29.7,8.3-150.2-3.3-174.1l-11-.6c60-41.2,90.9-98.9,117.6-164.5Z"/>
    <path class="st13" d="M2968.1,921c81.8-82.6,220.2-167.3,340.1-154.3-114.6,37.2-204.3,107.5-284.5,195.6-18.4-14.1-33.8-32.2-55.6-41.3Z"/>
    <path class="st4" d="M2721.8,2389.2c63.1-22.6,82.7-17.7,136.6-65.6,7.4,1.3,7.1,10.5,14.8,14,19.9,39.8,39.9,77.4,64.2,114.8-77.8,19.4-158.6-8.8-215.6-63.2Z"/>
    <path class="st7" d="M2968.1,921c21.8,9.1,37.2,27.1,55.6,41.3-37.6,39.2-70.6,82.4-103,125.9-38.7,4.7-47.2,3.3-81.4-16.9,40.7-52.9,82.5-102.1,128.7-150.3Z"/>
    <path class="st14" d="M3795.4,876.8c525.7,8.2,300.3,1108.2,102.4,1376.6-77.3,112.7-172.1,216.1-221.3,345.7-24.4-.9-50.8-1.2-66.2-23.1,47.9-125.4,123.3-234.5,209.2-336.6,206-318.5,338.9-876.4,128.8-1215.1-75.4-95.4-204.4-30.2-271.6,40.9-244.5,268.4-361.3,648.9-371.3,1007.5-15.3,210.6,54.4,570.8,320.4,330.2-21.1,44.3-28.6,89.2-71.6,119.1-47.1,32.8-107.6,52.3-164.9,41.5-192.8-46.8-233.5-283.5-236.2-453.3-6.9-303.1,86.3-685,264.9-934.7,92.8-131.2,204.9-283.3,377.5-298.9Z"/>
    <path class="st13" d="M3417.9,1175.6c25.4,4.7,50.2,9.5,73.8,20.5-115.4,193.4-193.1,420.1-224.5,643.3-9.1,40.3-11.3,235.2-68.1,224.7-16.6-8.7-19.7-38.6-33.6-45.2-2.8,4.6-3.1,5.7-7.3,9.4l-2.6-3.1c2.1-270.9,102.7-628.2,262.4-849.6Z"/>
    <path class="st13" d="M3542.9,1017.3c72.8-78.1,167.8-145.7,278.9-139.7l.6.9,7.1-.5c-91.3,36.5-171.4,101-234.1,177.2-13.9-19.1-31.8-28-52.5-38Z"/>
    <path class="st7" d="M3542.9,1017.3c20.7,10,38.6,19,52.5,38-36.5,46.5-71.3,91.3-103.7,140.8-23.6-11-48.4-15.8-73.8-20.5,38.1-56.3,78.4-108.7,125-158.4Z"/>
    <path class="st14" d="M3808.6,1037.1c18.4-3.5,35.4,7.1,47.1,20.6,190.3,356.7,11.6,1020.9-261,1304-45.9,47.2-139.6,103.8-183.7,25.4,364.2-162.1,553.9-993.8,354.1-1323.8,14-9.5,28.7-17.8,43.5-26.1Z"/>
    <path class="st6" d="M3015.1,1307.5c259.6-2.3,170.9,428.3-29.4,462.9-270.6,20.1-177.9-439.6,29.4-462.9Z"/>
    <path class="st15" d="M2930.8,1437.5c115.9-2.2,80.3,224-11.2,246.4-117.9.3-80.5-225.6,11.2-246.4Z"/>
    <path class="st14" d="M3713.4,1107.5c77.6,377.9-67.5,934.6-332.1,1221.7-13-24.7-15.9-86.8-18.8-115.9,186.5-258.9,297.1-686.7,261.5-1003.3,23.7-39,57.2-70.7,89.4-102.6Z"/>
    <path class="st6" d="M2560.3,1250.3c213.9,4.4,120.7,435.4-53.9,447.7-227-2.4-128.4-433.6,53.9-447.7Z"/>
    <path class="st15" d="M2483.9,1373.6c116.6-6.9,80.7,214.2-5.1,238.3-115.5,4.5-78.4-211.5,5.1-238.3Z"/>
    <path class="st14" d="M3021.8,700.6c40.2-1,84,14.1,119.4,32.4-66.7,39.9-141.4,61.9-211.1,95.1-94.2,50.3-164.6,143.8-231.3,224.7-34.6-29.9-77.8-49.6-124.3-41.3,94.9-156.2,251.6-315.7,447.3-311Z"/>
    <path class="st13" d="M2711.1,840c78.8-80.9,195.3-144.2,310.7-139.4-109.6,47.1-182.7,103.9-266.8,187.4-15.2-14.8-31.1-31.1-43.8-48Z"/>
    <path class="st7" d="M2711.1,840c12.7,16.9,28.6,33.2,43.8,48-40.1,39.7-71.9,87.6-107.4,131.2-24.9-7.5-46.9-12-73.1-7.6,37-63.3,83.2-121.3,136.6-171.6Z"/>
    <path class="st14" d="M3263,971.1c106.1-108.2,272.4-217.1,423.1-130.6-41.1,17.7-76.2,45.5-113.3,69.9-127.3,40-210.1,152.9-289.7,253.1-31.9-42.9-67.4-68.5-118.8-83.6,29.3-38.5,63.7-75.5,98.7-108.8Z"/>
    <path class="st13" d="M3263,971.1c88.9-85.1,206.9-180.9,338.5-158.2-2.6,5-6.5,5.3-11.8,7-112,19.5-189.1,110.6-263.2,189-20.4-18.4-37.8-28.4-63.5-37.9Z"/>
    <path class="st7" d="M3263,971.1c25.7,9.5,43.1,19.5,63.5,37.9-19.5,21.1-72.4,95.2-88.4,105.4-23.4-15-47.4-25.8-73.8-34.5,29.3-38.5,63.7-75.5,98.7-108.8Z"/>
    <path class="st5" d="M3610.3,2576c15.4,21.9,41.8,22.2,66.2,23.1-72,204.4-125.6,415.6-167.4,628.1-6.2,22-32.1,34.2-52.8,24.3-64.2-29.6,129.1-599.1,154-675.5Z"/>
    <path class="st2" d="M2585.6,2669.5c17.4,17.8,48.9.9,68.7,5.3-15.2,59.7-101.9,353.6-137.3,377.6-15.6,10.7-40.1,3.8-49.9-11.7-5.2-9.4-2.4-18.5.3-28.3,41.5-113.2,86.4-226.1,118.3-342.9Z"/>
    <path class="st13" d="M3114.2,1151.9c52.5,5,95.1,36,130.9,72.9-21.9,34.7-41.4,70.6-62.7,105.5-31.2-44.4-81.1-70.4-135.1-72,18.8-35.2,40.5-76.6,66.9-106.5Z"/>
    <path class="st14" d="M3203.8,1188.9c15.5,10.2,28.6,22.5,41.3,36-21.9,34.7-41.4,70.6-62.7,105.5-13.2-18.4-27-31.3-45.2-44.5,26.4-28.3,46.1-64.4,66.6-97Z"/>
    <path class="st13" d="M2903.9,2066.9c7.4-1.2,15.8-.8,23.3-1.2-31.5,88-147.6,189.7-237.8,116.9,52.4-68.2,129.8-107.8,214.5-115.7Z"/>
    <path class="st13" d="M2442.3,1263.7c39-88.1,63-217.3,187.2-165.7,8.9,4.3,17.9,7.9,24.6,15.3,2,15.9-31.7,71.7-40.8,88.9-67-12.8-122.2,18.6-171.1,61.5Z"/>
    <path class="st14" d="M2629.5,1098c8.9,4.3,17.9,7.9,24.6,15.3,2,15.9-31.7,71.7-40.8,88.9-18.1-2.7-36-2.3-53.9-5.3-2-12.2,8.9-24,19.8-27.7,14-4.8,38.7-55.9,50.2-71.2Z"/>
    <path class="st4" d="M3082.2,2361.5c16.7,28.4,32.8,57.6,56.7,80.8,14.3,14.2,48.6,23.2,53.8,43-78.3,52.5-183.5-15.6-226.4-85.5,43.1-6.8,69.5-15.6,108.4-35.7l4,.3,3.4-2.9Z"/>
    <path class="st3" d="M2635.4,2490.4c25.4,2.7,46.3,3,71.4-1.4-17.6,61.9-32.9,124.6-52.5,185.9-19.8-4.5-51.2,12.5-68.7-5.3,14.9-60.2,33.8-119.3,49.8-179.1Z"/>
    <path class="st14" d="M3465.4,1026c-98.8,134.8-199.3,275.2-247.7,437.8-3.1-16.1-10.3-52.1-13.7-67.7,69.9-133,150.7-267.1,261.4-370.1Z"/>
    <path class="st13" d="M3209.5,1422.1c6.2.2,15.1-.5,20.8,1.5l-12.6,40.3-8.2-41.8Z"/>
    <path class="st1" d="M2915.2,899.8l1.3.8c-6,15-30.7,33.9-42.2,46.5-78.5,87.3-140.5,188.3-194.3,292.1-9.6-.9-18.1-12.8-25.2-18.7,48.2-101.9,162.5-261.5,260.4-320.7Z"/>
    <path class="st14" d="M3042.8,1154.4c1.4,0,2.7.9,4.1,1.4-2.4,14.2-47.7,89.3-57.8,106.3-18.9,6.9-35.4,15.4-52.5,26.1l-1.2-2.9c21.5-41,54.3-130.4,107.4-130.9Z"/>
    <path class="st14" d="M3187.7,961.2l2.1,3.5c-29.7,36.6-59.1,72.2-84.5,112.1-11.8,2.5-23.5,5.6-35.2,8.5l-1.8-3.3c12.7-31,89.9-99,119.4-120.7Z"/>
  </g>
  <g>
    <path class="st15" d="M615.9,605.1c20.8-69.4,49.5-215.6,66.3-288.3,10.6-46.7,18-98.2,46.1-138.2,242-249.3,1075-63.7,1251.1,211.6,28.7,65.2-1.7,138.2-13.8,204.2-19,80.2-57.6,266.7-74.1,344.8,125.4,8,204.1-40,319.6-51.5-46.9,58.8-294.5,237.4-207.6,318,52.6,42.8,164.8,43.1,231.1,59.8-348,173.3-371.3,209.5-45.8,436.4-9.1,6.3-18.9,5.2-29.4,3.5-452.4-90.6-145,206.2-15.4,366.8-193.1-28-421.6-221.4-281,143.6,7,20.3,15.6,39.9,15.5,61.7-77.6-51.5-151.1-142.5-253.7-121.9-20.3,245.5-184.8,317.7-408.2,335.9-26.8,208.4-59.8,424.6-91.6,632.6-3.6,14-9.4,26.5-19.7,36.8-42.9,44.5-135.2,22-142.1-42.7,9.8-179.7,72.3-447.3,85.7-626.4-104.5-8.2-207.6-25.3-307.3-58.5-23.8,164-92.7,472.4-124.1,639-6.2,29.8-11.9,57.6-40,74.9-40.3,23.2-101.2,9.4-122.3-33.9-17.7-57.5,13.7-135.8,22.3-195.1,37.2-169.7,73.3-384.6,113.1-551.8-210.5-116.3-307.4-230.8-233.7-476.5-71.7-98.1-198.9-44.5-297.2-30.8,53.1-60,142.7-137,171-210.5-37.1-61.8-130.3-50.7-192.6-65.1,69-29.4,245.3-105.5,218.2-198.9-27.7-73.1-185.3-182-256.6-213.5v-7.8c72.7-20.3,223.3,13.6,267.3-50.5-21.1-78-92.9-142-144.7-200.9-7.3-8.3-18.9-19-18.2-30.5,6.9-3,11.9-2.3,19.2-.4,55,18.1,105.6,48.9,162.1,62.9,20,6.4,49.6,5.6,43.2-23.1-9.4-55.3-121.4-259.7-155-322.1-6.7-14.6-41.4-57.3-30.1-70.4,32.3-5.7,226,145.4,290,109.7,41.7-34.7-8.9-169-1.6-221,40.7,56.5,127.7,142.6,183.7,188.2Z"/>
    <path class="st8" d="M432.2,416.9c40.7,56.5,127.7,142.6,183.7,188.2-57.7,304.9-198.4,973.6-258.8,1284.9-71.7-98.1-198.9-44.5-297.2-30.8,53.1-60,142.7-137,171-210.5-37.1-61.8-130.3-50.7-192.6-65.1,69-29.4,245.3-105.5,218.2-198.9-27.7-73.1-185.3-182-256.6-213.5v-7.8c72.7-20.3,223.3,13.6,267.3-50.5-21.1-78-92.9-142-144.7-200.9-7.3-8.3-18.9-19-18.2-30.5,6.9-3,11.9-2.3,19.2-.4,55,18.1,105.6,48.9,162.1,62.9,20,6.4,49.6,5.6,43.2-23.1-9.4-55.3-121.4-259.7-155-322.1-6.7-14.6-41.4-57.3-30.1-70.4,32.3-5.7,226,145.4,290,109.7,41.7-34.7-8.9-169-1.6-221Z"/>
    <path class="st10" d="M432.2,416.9c33.2,48.9,118.9,131.1,164.7,173.1-34.6,1.6-79.5-65.2-108.3-63.3-5.4,63.2,48.8,218.2-67.1,194.2-45.3-8.7-83.4-33.2-126.5-46.5-5-1.6-5.8-1.4-10.5.5-3.9,9.6-3.1,17.1,1,26.5,48,107.3,251.6,388.9-24.6,289.2,40.6,71.1,149.7,171.1,8.8,217-23.9,6.2-49.8,9-72.8,18.2,72.1,66.1,213.2,161.7,100.7,262.2-29.2,27-67.4,39.8-97.3,64.7,170.7,77.4,92.2,119,16.6,234.1,56.5-8.6,107.8-4.4,154.2,32.3-4.7,23.6-9,47.5-14.2,71-71.7-98.1-198.9-44.5-297.2-30.8,53.1-60,142.7-137,171-210.5-37.1-61.8-130.3-50.7-192.6-65.1,69-29.4,245.3-105.5,218.2-198.9-27.7-73.1-185.3-182-256.6-213.5v-7.8c72.7-20.3,223.3,13.6,267.3-50.5-21.1-78-92.9-142-144.7-200.9-7.3-8.3-18.9-19-18.2-30.5,6.9-3,11.9-2.3,19.2-.4,55,18.1,105.6,48.9,162.1,62.9,20,6.4,49.6,5.6,43.2-23.1-9.4-55.3-121.4-259.7-155-322.1-6.7-14.6-41.4-57.3-30.1-70.4,32.3-5.7,226,145.4,290,109.7,41.7-34.7-8.9-169-1.6-221Z"/>
    <path class="st10" d="M1891.5,939.2c125.4,8,204.1-40,319.6-51.5-46.9,58.8-294.5,237.4-207.6,318,52.6,42.8,164.8,43.1,231.1,59.8-348,173.3-371.3,209.5-45.8,436.4-9.1,6.3-18.9,5.2-29.4,3.5-452.4-90.6-145,206.2-15.4,366.8-193.1-28-421.6-221.4-281,143.6,7,20.3,15.6,39.9,15.5,61.7-77.6-51.5-151.1-142.5-253.7-121.9,62.6-301.2,197.7-910.4,266.5-1216.3Z"/>
    <path class="st8" d="M1875.9,1005.6c24.2,2.8,135.3-25.4,145.1-17.6-52.8,121.4-222.9,216.4,19.6,308.5-76.4,42.4-211.1,124.1-138.6,225.7,23.3,34.6,77.2,68.3,90.2,104.3-297,5.9-78,232.5-30.4,320.5-7.1,5.5-21.1,2.7-29.5,1.7-222.4-51.7-174.7,28.6-143.5,196-42.2-24.5-89.8-47.1-139.7-39.2-4.9.1-9.7,1.5-13.1-2.4,48.5-235.1,187.4-854.7,240-1097.6Z"/>
    <path class="st12" d="M742.8,320.5c67.3,96.6,185.5,132,290.1,173.7,243.2,86,645,164.5,882.6,43.2-89.9,378.4-159.6,761.9-248,1140.9-25.1,91.5-36.9,228-77.3,313.4-23.7,46.1-75.7,79.2-120.1,102.6-296.1,140.1-751.6,33.6-962.8-214.4-65.9-79-60.5-164-35-257.7,12.1-61.1,24.5-122.2,37.2-183.2,70.4-369.4,157-749.8,233.1-1118.5Z"/>
    <path class="st9" d="M742.8,320.5c41.9,62.3,105.8,96.5,172.7,126.6-95.8,489.2-213.9,1036.3-308.3,1528-128.7-96.2-184-193.2-134.7-353,84.1-431.5,179.7-871.2,270.3-1301.7Z"/>
    <path class="st9" d="M1915.6,537.4c-99.5,429.9-183.7,865.8-281.3,1296.5-25.4,169.4-72.1,233.8-237.4,290.8,15.9-114.4,46.7-229.2,68.4-343.1,14.2-75.1,37.4-150.1,45.7-226,79.6-86,120.4-223.1,76.7-335.2,7.6-39.9,15.2-83.6,27.2-122.8l-3.9-2.4c8.7-1.2,17.3-4.5,21.3-12.9,5.7-12.2-1.5-29-5.5-40.8,27.3-147.9,72.8-295.6,91.3-444.5l-4.8-2.5c69-7.4,141.1-23,202.2-57.2Z"/>
    <path class="st15" d="M1511,1555.7c-41.8,40.7-101.7,69.1-160.2,50.4-189.6-76.9-110.6-384.2,37.7-466,105.8-55,195.3,24.1,213.6,129.3,15.3,100.7-21.8,212.5-91.1,286.3Z"/>
    <path class="st6" d="M1455.7,1170.3c92.2,1.4,118.4,133.1,93.5,202.2-9.7-33.6,2.7-85.7-53.3-98.8-85.2,12.4-120.2,211.6-33,235.5,13.7.8,27.3-7.9,37-16.6,3.8-3.7,6.3-7.8,11.6-8.5-27.4,53.2-94.9,95.5-154.9,72.1-144.1-70-49.3-375.9,99.1-385.8Z"/>
    <path class="st11" d="M1093.5,516.3c37.3,11.3,74.9,22.4,113,31.1-14.8,63.7-29.1,129.6-36.3,194.7-67.6-8.7-67.5,58.3-4.4,64.7-13.9,48.7-14.4,101.9-30.4,149.9-23.7-40.9-82.2-39.9-123-32.7,16.4-135.6,59.8-272.1,81.1-407.7Z"/>
    <path class="st15" d="M1170.2,742.1c35,8.7,201.1,2.8,185.2,57.5-2,8.5-7.5,16.5-15.3,20.6-17.8,9.3-144.5-11.5-174.3-13.3-11.8-2.1-25.6-5.2-34.8-13.2-13-10.1-17.2-31-3.6-42.5,12.2-11.4,27.4-9.5,42.8-9Z"/>
    <path class="st15" d="M1012.5,924c40.8-7.1,99.3-8.1,123,32.7,3.3,54-72.1,6.9-105.6,17.8-30.2,8.7-69.8,55.8-97.4,52-14-6.7-12.6-23.9-5.9-35.5,17.3-34.2,50.7-55.2,85.8-67Z"/>
    <path class="st15" d="M1611.1,1095.4c-57.4-67.1-73.9-75.2-164.9-74-6.8-1-7-2.1-11.1-7.3-4.9-15.1,8.2-29.6,20.3-36.6,61.5-27.3,141.6,5.2,171.5,64.3,8.7,20.9,15.4,50.6-15.8,53.7Z"/>
    <path class="st15" d="M887.9,1622.4c9.5-1,17-1,26.1,2.4,142.7,80.4,291.9,140.9,456.9,93.8,20.6-3.1,39.8,13.8,39.6,34.6-43.9,217.8-328,406.1-497,189.8-55.7-71-102.4-253.9-25.6-320.6Z"/>
    <path class="st13" d="M954.1,1828.9c82.5-4.2,175,47.6,223.8,112.7,6,8.4,9.1,15.7,7.1,26-10.3,12.7-44.3,15.1-60.4,17.2-90.1,12-187.6-58.6-190.8-151.7,5.7-4.3,13.4-3.7,20.3-4.2Z"/>
    <path class="st15" d="M1023.3,1080.9c274.5-13.4,188.7,450.7-23.9,484.2-268,6.2-194.9-455.7,23.9-484.2Z"/>
    <path class="st6" d="M1037.7,1126.9c109.2-2.1,127.8,130.6,102.8,212.9,10.5-124.6-86.6-146.2-125.8-27.6-15,46.9-16.6,124.4,38.4,144.9,17.2,4.7,30.6-5.5,44.9-13.3l.9,3.2c-32.9,59.9-119.7,93.9-177.1,47.8-107.1-98.9-31.1-350.5,115.9-367.8Z"/>
    <path class="st12" d="M1028.1,134.6c245.3-11.7,756.4,64.2,890.7,292.9-2.4,104.8-244.1,109.2-321.1,109.1-205.3-10.1-736.9-80.5-821.3-294.2,25.2-95.3,171.6-100.7,251.7-107.8Z"/>
    <path class="st11" d="M1060.2,182.6c55.3-4.3,109.7.7,164.1,9.8-49.4,32.5-89.1,61.1-91.9,125.3,25.7,53.7,80.2,75.2,120.4,115.9-95-23-305-61.6-331.8-169.9,0-68.5,86.8-79.2,139.2-81.1Z"/>
    <path class="st12" d="M1381.2,2178.5c73.8-16.9,143.4-50.4,200.2-100.7-35.9,116.8-14.2,223-137.5,291.5-191.8,94-430.5,75.4-631.6,20.4,7.3-6.9,41-200.9,49-231.2,166.9,48.3,350.1,63.3,519.8,20Z"/>
    <path class="st9" d="M1381.2,2178.5c73.8-16.9,143.4-50.4,200.2-100.7-37.9,174-37.4,281.2-239.5,332.2,4.7-38.3,44.2-215.4,39.2-231.5Z"/>
    <path class="st12" d="M592.5,2034.4c83,54.5,173.6,96.2,268.9,124-8,30.3-41.7,224.3-49,231.2-92.5-25.3-183.8-62.4-263.5-116.2,9.3-25,10.8-54.9,15.8-81.3,9.5-51,25.5-106.1,27.8-157.6Z"/>
    <path class="st11" d="M759.8,2123.1c33.4,13.1,67.3,24.9,101.6,35.4-8,30.3-41.7,224.3-49,231.2-35-9.5-69.5-20.8-103.3-33.9l7.5-5.1c21.7-70,28.1-154.9,43.2-227.5Z"/>
    <path class="st9" d="M548.9,2273.4c-195.9-135.3-171.2-212.4-122.1-425.7,29.2,81.7,100.6,135.1,165.7,186.7-2.4,51.6-18.3,106.7-27.8,157.6-4.9,26.4-6.5,56.3-15.8,81.3Z"/>
    <path class="st0" d="M593,2595.5c15.3,6,55.9,6.2,64.8,20.9-29.9,153.4-60.1,307.3-91.6,460.2-6.7,34-44.6,40.7-65,14.2-5-7.4-3.3-16.3-2.3-24.7,14.2-86,77.5-380.2,94.2-470.7Z"/>
    <path class="st0" d="M1068.7,2705.4c19.8,6,48.1,9.7,68.5,5.7-20.2,112.4-37.6,269.7-56.5,382.3-2.3,10-5.3,22.6-13.5,29.6-24.3,19.2-58.7,6.2-56.4-27,14.8-128.8,39.6-261.7,57.8-390.6Z"/>
    <path class="st2" d="M1098.5,2497.8c22.3,1.6,45.2,3.3,67.5,1.2l-28.8,212.1c-20.5,4-48.7.3-68.5-5.7,9.5-69.2,18.2-138.8,29.8-207.6Z"/>
    <path class="st2" d="M633.8,2392.1c20.4,9.9,40.8,19.2,61.7,27.9-9,41.6-27.7,157-37.7,196.4-9-14.7-49.5-14.9-64.8-20.9,11.4-67.9,24.7-136.4,40.8-203.3Z"/>
  </g>
</svg>