<?xml version="1.0" encoding="UTF-8"?>
<svg id="Layer_1" xmlns="http://www.w3.org/2000/svg" width="1703.356" height="1613.397" xmlns:xlink="http://www.w3.org/1999/xlink" version="1.1" viewBox="0 0 1703.356 1613.397">
  <!-- Generator: Adobe Illustrator 29.4.0, SVG Export Plug-In . SVG Version: 2.1.0 Build 152)  -->
  <defs>
    <style>
      .st0 {
        fill: #d60000;
      }

      .st1 {
        fill: #80531b;
      }

      .st2 {
        fill: #fff;
        stroke: #000;
        stroke-miterlimit: 10;
        stroke-width: 4px;
      }

      .st3 {
        fill: url(#linear-gradient);
      }

      .st4 {
        fill: #eed596;
      }

      .st5 {
        fill: #262816;
      }

      .st6 {
        fill: #8e9572;
      }

      .st7 {
        fill: #d5bc2a;
      }

      .st8 {
        fill: #504b31;
      }

      .st9 {
        fill: #3f5c4e;
      }

      .st10 {
        fill: #6b7742;
      }

      .st11 {
        fill: #563a15;
      }

      .st12 {
        fill: #eec391;
      }
    </style>
    <linearGradient id="linear-gradient" x1="732.424" y1="1348.101" x2="724.746" y2="1382.606" gradientTransform="translate(-133.96 3787.173) scale(1.864 -1.864)" gradientUnits="userSpaceOnUse">
      <stop offset="0" stop-color="#4a5038"/>
      <stop offset="1" stop-color="#778260"/>
    </linearGradient>
  </defs>
  <g>
    <path class="st5" d="M743.988,328.85c13.743-72.189,279.485-66.496,273.845,14.961,77.473,9.621,62.294,107.147,47.801,161.568,43.995,38.63,10.416,125.856-45.742,132.333-5.059,18.527-7.452,37.489-8.602,56.605,3.744,5.441,31.183,33.954,37.297,36.836,47.019,26.064,138.66,46.399,161.976,97.629,24.839-20.962,68.129-15.237,86.755-36.937-10.634.474-20.745,3.059-31.252,3.822-43.944,2.063-83.01-33.236-90.338-75.702-18.818,3.931-30.343-20.19-33.406-35.373-7.865-46.214,18.588-88.154,45.781-123.163-36.458-13.795-78.663-53.024-66.468-95.571,17.204-38.254,80.414-39.928,116.458-36.01,19.078-38.32,46.289-76.751,90.101-87.705,110.947-24.979,214.898,54.431,191.787,172.311,28.406,24.206,75.726,52.058,78.603,93.688,2.694,24.803-19.733,39.057-40.803,44.569l-.971-.595c-.655.438-1.2,1.199-2.038,1.199,14.778,57.947,20.585,87.106-35.815,121.054-7.01,5.748-13.23,12.718-19.712,19.064,65.737,19.2,113.965,52.727,136.824,119.337,41.257,131.26,120.368,330.314-64.331,382.766,3.067,16.517,31.41,72.578,9.195,81.684,9.89,41.991,21.2,84.451,22.531,127.858,7.481.36,22.981-1.745,29.03,2.15,2.228,3.488,1.155,8.726-3.3,9.642-139.793,2.152-369.259-1.257-509.5.599.548,18.391,1.014,36.581-.127,54.971-64.495,17.028-135.618,17.565-201.802,26.455-33.583.829-256.653-15.59-279.28-25.502-4.084-9.6-3.213-28.886,6.792-35.125.001,0,20.107-13.055,20.107-13.055,4.178-2.768,9.937-3.999,13.413-7.645l-.436-1.091c-12.054.147-24.109.915-36.157.742-9.23,20.028-42.84,40.789-65.096,36.896-9.802,7.006-19.682,6.996-31.116,3.591-20.002,16.81-38.66-1.069-48.117-19.567-19.822,4.523-40.895-.563-49.054-21.036-80.079,0-271.016.114-348.409.274-4.792.595-9.653-2.158-9.171-7.515,11.474-8.734,35.474,2.171,47.332-4.845,2.782-4.316-3.473-8.213-6.201-10.9-20.167,6.08-28.809-3.837-44.398-14.248-48.41-21.239-48.572-104.52-35.473-148.03-14.955-11.018-14.751-31.069-17.753-47.783-26.448-124.194-38.77-372.423,40.576-475.975,33.89-39.541,85.903-55.38,131.814-74.313,3.75-4.029,5.83-34.251,5.463-40.79-.55-9.815-10.678-27.347-14.329-37.295-5.268.818-9.726,6.238-15.225,7.877-21.69,5.642-42.644-6.1-61.324-15.733-40.749-35.079-45.662-134.917,7.113-161.566,1.011-21.881,2.535-43.964,5.234-65.682,23.344-127.465,193.911-171.626,294.882-107.928,26.65,6.904,40.717-12.335,50.233-2.074,6.353,10.547-4.349,22.606-12.357,28.873,23.363,13.305,43.232,32.186,50.507,58.776,4.483,12.97,6.341,41.571-15.406,31.73,4.053,22.082,2.834,40.583-4.279,61.949,34.488,32.252,35.535,153.548-24.839,154.857-7.224,43.64-25.374,73.262-58.786,101.703,11.047,6.353,23.209,10.487,34.731,15.87,83.913,32.88,81.053,133.087,80.793,208.963l7.451-4.133c-.566-11.062.565-22.115,4.07-32.479-3.199-4.075-6.044-7.871-8.387-12.518.544-8.868,2.481-17.08,3.706-25.796,1.283-22.852,2.343-48.029,27.597-57.762-2.356-21.829-3.24-54.041,4.469-74.777l8.568-5.337c.429-9.388-.101-19.918,1.45-29.105,1.051-6.23,4.968-11.113,5.199-17.671.585-16.655.086-33.32.268-49.983.147-13.423,1.059-26.955.714-40.369-1.247-18.822-10.893-85.609,25.758-56.837,10.325,19.471,3.605,43.467,4.426,64.622-.173,29.044.614,58.119.358,87.145,9.362,12.86,7.532,30.915,7.617,46.057,3.175-1.517,6.462-2.936,9.562-4.594,1.746-26.022,42.481-26.129,41.023,1.644,23.73,6.267,18.188,32.187,19.03,51.124,31.392-24.666,71.366-42.822,106.024-62.395-58.84-37.509-61.614-111.058-59.159-174.137-5.405-24.846-16.454-34.758-15.032-63.715-1.534-5.09-7.787-3.711-10.454-7.859-3.397-14.927,14.253-19.8,25.509-22.373-16.729-44.716-24.658-98.528,14.627-134.191-4.569-6.115-7.847-11.53-9.957-19.004ZM1107.328,1409.097c7.647-.073,21.939-2.153,28.512,1.749,4.09,7.569,4.56,24.582,2.086,32.776-2.212,6.642-11.674,5.857-17.349,6.669-.556,18.391-.367,36.784-.531,55.182,2.207.972,46.186.272,49.778.432-.989-41.135,6.945-82.182,12.684-122.758l-8.182-6.283c1.672-10.559,14.804-55.134,10.667-61.664-8.494-5.917-20.604-1.344-29.129-6.952-19.394,31.736-34.057,66.689-48.536,100.849ZM1527.974,1165.683c7.419-5.076,15.759-11.221,23.84-15.065-3.156-17.371-5.77-37.71-12.278-54.162-5.107,22.867-8.961,45.943-11.562,69.227Z"/>
    <path class="st12" d="M541.07,936.683c4.337-5.047.895-13.321,1.027-19.428.649-19.185,30.283-34.409,45.807-40.186,8.013,34.678-14.542,14.847-47.121,62.013l.287-2.399Z"/>
    <path class="st10" d="M186.887,754.796c12.691,114.399,241.565,131.773,209.916,2.668,70.775,16.2,116.917,58.08,117.974,133.658,4.272,28.634,1.395,57.382.912,86.07-5.358,3.904-10.934,7.306-16.62,10.71-.678-20.326-.29-112.467-14.269-121.593l-1.436.248c-3.344,7.727,1.913,26.487,3.028,35.16,3.878,30.186,2.151,60.697,3.635,90.993-38.976,25.339-73.337,57.968-41.985,104.61-.318,6.34-1.282,12.045-2.863,18.167-40.929,12.447-35.795,62.172-21.784,93.53-15.115,9.291-31.116,17.847-45.609,28.052-10.574,7.446-20.037,18.51-31.67,24.079-44.973,11.611-155.114,6.495-198.803-16.778-.45-61.923,2.845-123.779,3.748-185.684,1.293-82.782,24.118-205.744-62.135-253.226,74.03,72.269,54.775,140.951,53.55,234.571,0,0-6.48,230.873-6.48,230.873-12.219,21.35-71.808,14.739-90.705,4.886-27.8-123.153-28.889-302.437,15.236-420.87,25.22-57.117,71.597-78.843,126.36-100.122Z"/>
    <path class="st7" d="M1464.884,797.674c94.66,11.876,153.556,70.267,175.726,162.576,18.606,60.839,54.133,199.982,23.722,256.294-34.829,56.131-110.265,73.828-168.63,94.425,11.48-34.045-.413-78.49-33.579-95.666,32.731-15.611,74.653-49.278,108.868-57.702,16.537-2.143,33.178,3.394,49.136,6.889-14.67-17.033-39.864-16.094-60.359-15.235,8.277-6.467,20.814-14.625,30.624-18.061,4.549-1.592,14.595-2.94,17.423-6.911-16.12-5.995-33.754,5.514-46.416,14.767-22.039-97.858-77.065-182.578-10.695-278.396l-.487-1.243c-11.268,3.604-17.628,18.198-23.188,27.804-32.451,61.031-12.99,129.781,3.913,191.909.352,12.776-5.659,26.829-7.939,39.435-3.087,17.082-4.362,34.405-6.098,51.655-35.301,22.732-71.112,45.899-110.092,61.862-17.352-7.943-14.236-7.066-11.552-24.773,6.292-43.218.418-85.049-54.247-75.687-1.518-11.221-3.982-20.261-8.412-30.702-24.468-8.701-76.26-14.355-94.231,8.258-10.348,21.129-5.219,24.347-30.537,14.721-2.189-8.275-3.796-16.508-6.724-24.595-33.779-61.896-12.378-129.095,6.21-190.402l-1.529-.762c-16.021,1.884-36.541,106.225-33.621,122.8.411,35.589,16.125,48.527,7.82,86.523-14.144-10.8-38.964-9.092-54.327-1.018-1.26.772-.818.576-1.085,2.323,6.49,7.85,31.008-6.432,46.075,2.144,5.383,7.266-8.191,15.396-12.748,19.922-13.49-5.179-23.346-6.963-37.367-1.866-5.702,2.152-20.503,8.084-15.324,16.035,7.254,1.532,19.358-9.414,27.041-11.704,5.947-1.932,15.751-1.872,18.205,4.964.594,3.5-5.275,44.638-7.223,48.807-18.18,21.211-29.983,41.14-24.776,70.171-84.938-64.322,12.911-293.565,49.311-371.405,28.313-50.691,51.338-64.5,106.612-80.191-31.226,111.898,172.371,86.008,190.499-17.962Z"/>
    <path class="st9" d="M1015.025,714.461c30.653,13.762,32.037,73.95,33.961,104.585-43.272,14.56-49.729,12.066-11.689,45.027-22.302,40.85-103.659,143.064-130.607,183.488-14.672,21.208-37.654,39.851-40.211,66.929,20.803-25.436,182.282-240.277,181.54-250.982-.556-8.041-18.704-19.843-24.709-25.27,13.818-5.268,25.939-5.613,37.024-16.424.311-21.249-6.428-54.86-9.338-77.598,12.192,4.368,24.152,10.688,35.991,16.021,38.025,18.484,96.046,35.272,116.703,74.22-45.897,41.291-68.676,100.756-84.734,158.947-.182-63.24-1.45-141.768,53.281-184.269l-1.171-1.023c-13.985-2.519-29.947,23.958-36.777,33.798-27.566,49.065-24.409,115.705-25.833,169.578-24.992,97.028-80.13,237.471,42.563,290.049-59.345,1.794-119.087-1.975-178.413,1.56-17.733,29.637-25.501,65.932-45.007,94.527-54.223-14.53-62.68-87.271-70.289-134.486-7.134-57.374-4.707-113.394,7.091-169.996,42.404-128.848,115.964-247.322,150.625-378.682Z"/>
    <path class="st5" d="M876.516,1130.301c16.948-2.837,21.572,20.675,6.711,27.116-17.607,2.202-19.614-19.065-6.711-27.116Z"/>
    <path class="st12" d="M424.912,410.395c16.628,8.94,20.2,48.168,35.986,25.786,13.967,97.352,33.495,257.993-71.49,311.188-52.709,23.843-116.069-5.963-151.036-47.299-12.453-14.054-26.306-34.019-28.417-53.206-1.104-10.048,5.332-20.98,7.194-30.898,5.861-31.193,2.576-64.352-4.858-94.904,25.561-26.921,32.626-70.674,22.228-105.625,19.964,12.045,42.373,19.071,65.111,11.033-3.449,6.939-6.585,13.933-9.564,21.085,21.766,10.786,47.105,2.661,65.995-10.216-1.243,5.246-2.729,10.514-2.938,15.923,8.024,9.422,28.514,1.52,38.072-2.474,17.692-8.651,27.351-22.147,33.717-40.392Z"/>
    <path class="st5" d="M379.935,536.139c5.535,2.353,6.562,10.449,8.139,15.721,7.212,28.5,36.278,34.265,29.967,64.166-9.658,22.693-46.444,25.622-61.607,7.39l.518-2.425c11.073-1.704,36.506,9.087,46.047-4.453,19.441-24.605-49.505-51.683-23.064-80.399Z"/>
    <path class="st5" d="M283.909,636.71c7.032.917,15.209,9.689,20.727,14.079,17.668,14.06,50.913,21.651,72.87,16.37,7.961-1.196,20.403-10.548,27.662-6.275-11.148,36.98-123.419,17.555-121.259-24.174Z"/>
    <path class="st5" d="M312.913,475.355c10.697-.312,29.087,1.075,31.036,14.185-2.764,6.034-34.747-1.961-45.719,3.428-8.013,2.017-16.793,13.684-25.27,8.77,1.459-16.888,25.897-23.644,39.953-26.383Z"/>
    <path class="st5" d="M417.08,472.454c14.829-2.162,34.222,7.609,33.365,24.379-1.523,2.341-1.352,2.214-4.081,2.815-19.477-12.835-20.839-11.606-43.913-9.634-9.584-8.645,7.044-16.768,14.629-17.559Z"/>
    <path class="st5" d="M281.936,543.572c14.032,10.56,29.013,21.012,45.41,7.491,2.427-2.06,4.491-4.822,7.958-4.518,3.189,13.142-11.868,22.034-23.318,23.141-13.967,2.644-44.244-8.656-30.05-26.114Z"/>
    <path class="st5" d="M399.608,541.577c28.591,22.653,19.417,13.607,47.306,6.309l1.37,1.214c-5.027,29.774-51.484,25.2-48.676-7.522Z"/>
    <path class="st12" d="M509.3,1091.769c11.182,3.978,18.682,12.168,31.883,14.838,72.495,8.556,148.176-22.896,220.497-4.258-.865,9.58.507,18.937,1.547,28.449-23.337-4.674-39.382,11.048-61.461,15.132-5.207.962-13.43-1.935-17.63.233l-.332,1.674c11.878,24.305,60.9-8.065,80.752-9.355.941,13.064-2.909,25.564-3.69,38.506-.71,13.607,1.624,27.231.958,40.85-4.142,34.291-12.087,131.033-62.497,120.297-8.674,11.982-15.704,21.204-30.798,25.421-26.945,7.07-75.177,3.358-85.808-27.103-60.077,5.656-98.016-46.017-100.687-101.569-39.395,33.018-73.625-74.407-50.845-97.573,7.963-9.841,24.164-14.243,34.391-5.347,10.999,9.431,11.834,24.379,13.018,37.723,36.038-7.023,37.188-49.063,30.701-77.919Z"/>
    <path class="st5" d="M684.27,1167.944c19.688,1.593,56.044-4.359,72.311,3.999l-.891,1.861c-6.18,4.174-10.93,3.984-18.191,4.211-5.699,22.087-24.448,23.538-27.179-.762-7.047-.207-12.796-1.478-19.29-4.081,2.445,13.692,11.966,28.284,25.222,33.441,12.185,4.351,20.829-3.885,31.198-8.65-5.26,10.894-13.807,18.777-26.113,19.651-12.401,33.13,19.548,52.177,8.227,83.885-2.12,1.5-1.99,1.536-4.555,1.219-2.252-2.55-2.397-17.097-3.408-21.625-2.038-9.142-5.265-17.668-9.172-26.157-22.537,28.912-72.516,13.578-87.119-16.072-25.818,13.869-43.774,36.531-50.774,64.823-.944,1.883-.983,2.2-3.026,2.898-15.471-27.867,41.578-78.9,67.141-85.234-1.49,4.232-3.454,8.288-5.304,12.373,13.235,25.876,65.21,37.11,75.441,3.658,7.62-29.552-34.452-39.012-24.518-69.437Z"/>
    <path class="st5" d="M570.291,1129.749c33.607-3.38,60.607,26.66,92.985,14.598,2.124.119,2.318.453,3.576,1.976-12.914,29.767-62.94-4.245-85.071-3.933-7.734-.845-24.824,6.347-28.854,4.56-5.47-7.173,11.362-16.222,17.364-17.2Z"/>
    <path class="st5" d="M567.444,1163.323c18.094-.389,63.191-3.669,76.537,9.948-4.426,5.276-15.286,4.269-21.536,6.683-.803,22.172-31.596,19.237-26.195-2.921-9.107-6.887-30.305-4.355-36.295-11.622,2.062-1.825,4.866-1.765,7.489-2.088Z"/>
    <path class="st5" d="M651.479,1282.725c20.005,1.17,57.116,1.151,60.889,26.459-3.622,1.631-5.224-.147-7.794-2.741-12.134-12.244-32.544-13.19-48.98-13.79-10.733.365-21.034,1.245-31.39,4.25-7.83,2.273-23.408,12.739-30.074,11.165l-.826-1.596c8.069-18.295,40.586-22.08,58.176-23.749Z"/>
    <path class="st5" d="M442.96,1142.476c15.92,3.496,23.906,16.167,27.177,31.148-9.718,20.168-8.886,18.577-2.146,38.76-1.777,1.84-2.09,1.292-4.528,1.365-28.722-21.002,16.765-50.707-22.479-60.132-2.392-.738-3.934-.9-5.17-3.21,1.133-3.436,4.482-5.639,7.146-7.931Z"/>
    <path class="st5" d="M631.623,1200.034l1.428.846c-11.02,19.602-39.562,22.716-57.215,10.52-2.578-1.519-4.054-4.355-3.455-7.317,4.851-2.12,12.375,3.438,17.261,4.871,14.221,4.174,29.742-2.067,41.981-8.921Z"/>
    <path class="st12" d="M1282.324,479.518c39.306,4.696,95.629,17.986,131.578,34.043,1.022,36.181,16.24,59.195,33.414,89.232,2.983,7.66,5.638,28.357,11.662,33.625,2.927,2.558,9.838-5.908,13.84-6.133,7.566,3.894,8.569,16.723,7.307,24.196-3.707,15.99-22.368,21.561-36.469,16.314-14.294,50.937-52.361,99.486-106.511,109.329-62.452,4.676-108.096-62.57-115.097-118.531-3.303-25.407,2.682-50.312,6.252-75.331,2.835-19.578-1.191-41.007,7.16-59.394,6.523-10.671,21.78-16.562,30.723-25.454,6.428-6.393,10.449-14.862,16.143-21.896Z"/>
    <path class="st5" d="M1370.864,659.998c13.01,1.712,14.554,4.188,15.237,16.819l1.989.144-.004,2.088c-2.123,2.284-4.53,1.488-7.548,1.719-6.844,8.878-10.524,20.02-17.284,29.14-15.639,23.788-47.539,30.467-69.565,11.258-5.776-5.428-28.284-30.67-18.099-37.101,32.176,10.237,69.516,11.713,96.059-13.1-.509-3.697-.779-7.235-.785-10.967Z"/>
    <path class="st4" d="M1359.007,693.345c-2.164,14.581-17.841,25.941-31.945,27.617-16.31,1.989-28.777-8.827-36.559-21.973,28.734,6.335,41.737,4.966,68.504-5.645Z"/>
    <path class="st5" d="M1307.214,566.797c3.488,1.489,4.288,5.728,4.593,9.126,3.258,26.756-12.499,39.454-29.431,56.148-15.996,30.878,29.267,19.672,40.046,25.264l.226,2.724c-15.414,12.616-49.106,6.317-54.811-14.542-5.276-22.494,21.553-29.969,29.752-46.77,4.92-10.08,3.618-22.673,9.625-31.95Z"/>
    <path class="st5" d="M1366.861,566.513c20.825-3.955,24.958,28.939,8.599,36.899-20.339,5.266-23.937-29.359-8.599-36.899Z"/>
    <path class="st5" d="M1267.194,564.5c10.227-.393,15.432,8.896,17.223,17.707-2.007,8.167-4.708,17.622-14.143,18.701-16.899-1.826-14.408-28.785-3.08-36.408Z"/>
    <path class="st5" d="M1366.757,528.417c14.131-1.374,33.373,1.945,39.028,16.855-2.878,6.173-12.054-1.225-16.044-3.148-18.399-9.811-28.289,3.771-42.586.078.196-9.306,12.348-12.09,19.601-13.784Z"/>
    <path class="st5" d="M1262.239,528.425c8.17-.391,26.094-1.168,25.397,10.619-8.996,1.565-18.18-1.599-27.434.546-5.473,1.65-14.139,8.156-19.55,6.821.312-11.06,12.356-15.687,21.588-17.986Z"/>
    <path class="st12" d="M977.639,506.656c9.485,1.469,18.943,2.89,28.305,5.034.823,11.683-2.599,29.395,7.813,37.405,9.054-8.28,7.398-38.282,30.957-35.983,56.021-2.871,26.107,121.469-34.654,111.89-11.036,88.157-108.374,155.55-193.399,120.835-62.687-27.317-69.966-106.283-65.08-166.354,20.427,7.58,30.82,8.087,51.407-.142-3.395,9.679-8.352,18.637-11.197,28.547,3.444,15.387,19.494,21.354,33.815,21.723,9.774.512,28.485.842,30.718-11.377-5.384-3.91-12.957-.72-19.133-.877-12.732.397-25.919,1.46-33.124-11.146,12.794-35.111,25.512-47.335,26.784-88.823,43.556-10.325,19.004,7.789,35.862,40.486,13.429,30.606,54.842,36.282,82.182,22.035,27.329-14.657,23.193-47.598,28.745-73.254Z"/>
    <path class="st5" d="M900.593,656.287c3.06-.486,4.596,1.514,5.656,4.058-.127,2.259-.041,2.342-1.531,4.014-23.434,4.262-83.599,9.585-105.897-1.428.145-2.315.114-2.679,1.463-4.532,33.213-1.23,67.076,2.741,100.308-2.112Z"/>
    <path class="st5" d="M1052.277,530.013c1.877-.084,3.1-.006,4.879.615,1.428,3.417-1.109,5.296-3.21,7.809-18.115,17.664,1.71,40.169-17.325,57.716-1.982.136-1.777.472-3.484-.826-.382-6.713,2.959-12.781,3.22-19.398-.902-18.882-3.285-35.302,15.921-45.917Z"/>
    <path class="st5" d="M829.017,683.031c11.134.585,32.388-3.266,40.324,5.291-.535,2.267-1.145,3.07-2.813,4.679-12.277-.713-29.511,3.416-39.727-4.273-.063-2.955.572-3.341,2.217-5.697Z"/>
    <path class="st9" d="M1569.01,1384.055l1.012.254c12.127,16.236,17.951,95.174,21.633,119.555-54.128,3.849-195.659.546-251.955,2.107-7.662-25.703-9.529-52.48-14.122-78.758-13.178,13.784,1.7,61.299,6.462,78.377-41.164.817-109.871.205-151.812.103-.539-27.086,5.08-89.824,12.843-114.529,38.633,19.743,83.784,21.697,126.234,26.206,84.351,5.903,169.851-5.509,249.705-33.314Z"/>
    <path class="st1" d="M426.286,1219.631c4.709,2.047,12.105,16.502,15.129,21.411-9.431,29.607-26.343,80.887,10.135,98.3,4.056,2.628,11.346,3.486,12.415,8.844l-2.533,2.356,6.29-1.613c-7.398,8.882-17.847,15.658-25.604,24.452,6.32,22.287,30.376,56.616,43.957,76.06-30.814-1.633-61.491-5.153-92.372-6.458,13.832-49.6,17.947-136.412-42.58-155.714,46.92,36.729,48.175,102.966,31.556,155.979-31.404-8.298-65.422-14.781-86.809,16.532,1.968,8.228,18.596-7.73,22.562-9.427,12.906-6.505,30.356-3.349,43.987-1.546-18.117,6.297-31.776,14.703-42.738,30.788,39.655-29.787,82.826-27.895,129.437-22.489-17.607,12.11-24.135,27.839-25.525,48.648-39.003,1.324-126.71-.178-166.911.294,5.89-121.336,56.038-231.888,169.605-286.419Z"/>
    <path class="st1" d="M335.292,311.43c25.181-.296,66.347-2.164,85.94,16.307,1.68-1.913,3.199-3.419,5.222-4.961,11.819.331,23.135,2.852,34.906-.037,2.944-.261,3.902-.675,6.137,1.249l.026,2.189c-4.11,7.291-16.547,7.726-19.17,15.794,3.451,3.975,10.354,4.193,14.854,6.844,22.277,14.68,47.053,39.225,45.136,67.978l-1.29.915c-14.756-11.111-29.546-22.82-45.665-32.183,3.401,8.957,7.375,44.867-6.098,46.452-4.474-3.4-6.834-10.608-10.425-15.272-7.61-9.881-16.801-18.751-25.041-28.135-2.634,16.588-5.514,31.351-17.964,43.529-8.725,7.539-28.275,22.654-39.545,14.213,2.447-8.914,17.001-43.014,7.334-48.556-5.075,3.456-9.379,23.206-22.408,32.587-13.555,9.237-26.302,12.254-42.542,12.064,5.143-12.215,18.102-32.611,8.947-45.091-5.257,1.443-12.189,17.64-25.773,21.295-16.083,4.327-36.855-4.981-50.51-12.973-5.647-2.8-10.775-10.01-17.664-7.502,14.957,34.63,13.363,79.3-10.865,109.771-8.299-14.538-20.619-22.493-37.145-23.751-4.715-92.874,69.904-173.509,163.604-172.726Z"/>
    <path class="st9" d="M772.977,776.22c.149,8.039-21.031,36.4-26.034,45.768,7.701,8.941,17.146,13.652,27.242,19.396-9.808,8.727-20.225,16.754-30.231,25.253,22.448,79.113,52.472,159.528,108.159,221.47-2.446,32.889-8.268,65.578-8.933,98.644-1.119,25.691,3.109,51.258,3.284,76.873.142,20.718-11.338,72.473-19.004,91.274-15.133-34.128-28.963-72.596-60.499-95.124,5.877-25.803,5.452-51.922,4.405-78.172,2.934-24.228,7.257-46.978-.063-70.883,9.165,1.106,18.188,1.154,27.399,1.171,5.27-2.67,21.065-14.18,11.057-19.319l-.746,2.599-.968.399c-2.502-4.245-5.035-7.638-8.372-11.262,40.912-33.415-68.035-95.725-94.751-107.117,13.165-34.124,13.102-57.199,9.555-92.382-.429-22.79,5.705-40.886-19.304-52.289-3.984-15.035,64.557-49.149,77.803-56.299Z"/>
    <path class="st12" d="M936.18,362.707c16.257-.028,38.791-.68,51.264,11.087.801,1.723-2.413,10.399-3.034,12.554-13.889,36.333,6.866,76.757,21.922,109.928-19.565-1.371-36.822-9.83-56.15-12.61-6.916-6.012-11.883-8.842-21.37-9.469-20.681.204-57.957,4.05-71.33,21.874-6.305,5.157-18.753,3.399-26.339,2.465-7.863-3.585-9.178-10.943-21.185-14.935-18.632-6.018-43.296-14.291-59.854-.861-4.903-37.343-4.084-91.125,28.125-116.699,65.541,21.511,94.205.141,157.95-3.335Z"/>
    <path class="st9" d="M147.602,1254.871c57.118,27.303,123.48,21.059,184.873,19.933-59.141,71.571-78.732,139.534-86.871,231.303-32.854-1.627-65.985.738-98.893-.513,3.438-4.126,6.495-8.259,11.171-11.04,4.927-19.224,1.383-35.289-2.284-54.349l.772.022c6.775,7.813,18.873,6.178,25.464-1.033,13.486-14.121-1.741-62.924-7.946-78.492-2.886-7.241-6.689-14.36-10.546-21.133-4.295-7.543-12.39-12.755-14.67-21.452-5.179-19.759-.492-42.98-1.07-63.245Z"/>
    <path class="st1" d="M596.128,968.586c74.18-6.327,166.805,33.626,204.308,98.465-3.369,3.43-6.566,7.045-9.819,10.585-63.937-36.69-147.335-28.221-216.472-12.686-20.047,4.504-98.73,28.808-113.782,24.209-5.859-1.792-10.567-10.156-13.559-15.184-3.065-65.3,94.691-104.039,149.323-105.388Z"/>
    <path class="st7" d="M1555.927,1300.95c12.311-3.233,21.705,58.254,21.316,64.648-.537,2.335-3.412,4.155-5.364,5.26-109.424,44.036-279.535,58.721-386.685,5.097,4.787-21.875,10.518-36.758,12.539-60.135,11.107,1.327,21.238,1.693,32.401.649,13.663,20.47,24.06,23.224,45.672,29.785,17.015,12.419,39.394,16.765,60.398,17.519,36.789,2.578,64.706-17.964,91.307-40.992,4.825,2.951,9.319,6.279,13.863,9.644,16.325,1.898,31.91-3.35,47.076-8.742,22.783-7.089,45.089-14.451,67.477-22.732Z"/>
    <path class="st8" d="M1092.876,1450.508c5.772-.477,11.691-.38,17.487-.52-2.643,38.316-.475,76.85-1.329,115.228-62.967,11.325-127.482,13.987-190.764,23.37.421-43.523,2.422-87.648-.863-131.082,49.114-.672,125.539-5.488,175.47-6.997Z"/>
    <path class="st8" d="M884.307,1456.809c8.035-.559,15.785-.576,23.82.013,4.268,33.423.696,98.603,1.738,133.022-78.746-4.492-183.979-14.588-262.635-24.027.479-4.124-.022-12.073,2.567-15.41,6.132-7.906,91.168-33.391,105.797-38.598,35.094-12.366,71.753-23.855,104.119-42.498,7.705-4.314,15.846-10.639,24.595-12.503Z"/>
    <path class="st11" d="M849.592,291.552c36.132.059,171.82,1.835,157.333,59.483,5.147,5.28,20.793,6.186,28.088,8.924,49.069,27.254,30.053,97.698,17.889,141.557-10,.103-16.844.186-25.636,5.479-10.999-13.738-9.577-16.54-16.241-31.197-19.658-28.659-26.337-69.388-10.293-101.231-21.74-29.031-64.281-24.151-96.323-20.44-8.76-27.511-22.379-40.907-43.294-59.569-3.041-.626-6.618-1.89-9.5-.434,18.313,19.19,36.462,34.988,43.532,61.552-6.301,1.67-21.968,7.183-27.82,4.554-11.176-15.545-32.852-54.374-60.402-62.451,5.723,8.147,14.832,14.224,21.527,21.652,11.581,12.847,21.241,28.074,30.747,42.486-5.902,1.117-11.663,1.971-17.653,2.452-7.522-16.142-45.953-52.87-61.202-56.629l.818-1.372c22.179-7.229,44.718-14.787,68.428-14.817Z"/>
    <path class="st1" d="M1199.544,441.925c113.764-5.13,340.111,49.654,387.495,165.015,2.466,21.44-20.376,33.058-38.847,33.723-23.36-50.817-22.748-85.922-79.997-110.815-72.199-40.177-178.028-81.138-258.264-46.37-18.344,15.026-19.278,43.264-21.571,64.783-23.474-5.515-53.404-37.523-57.143-61.761-5.359-35.832,42.289-42.264,68.327-44.575Z"/>
    <path class="st1" d="M1425.718,519.232c23.011,11.806,61.437,28.598,78.094,48.215,15.065,28.807,53.266,112.558,48.988,148.823-2.361,20.773-15.206,31.317-30.4,43.446,2.991-11.383,8.38-24.636,1.836-35.669l-1.18-.255c-5.813,12.59-9.646,66.948-49.295,60.766-23.989,6.262-31.269-14.571-35.257-33.996-6.08-28.242,2.82-40.69,10.63-66.443,18.901,5.409,29.385-10.702,39.886-22.694,4.689,4.129-3.566,36.374-1.918,44.589l1.133.354c24.708-43.822,6.197-71.86-26.065-103.141-17.825-25.827-35.749-51.606-36.453-83.995Z"/>
    <path class="st8" d="M591.976,768.923c30.332,1.321,59.438-.705,88.953,8.065,8.133,62.499-4.071,126.266-2.944,189.066-27.003-7.732-55.256-9.061-83.366-8.195,6.586-38.818,3.031-78.431,2.526-117.575-1.466-23.34,3.156-49.323-5.17-71.36Z"/>
    <path class="st5" d="M630.838,785.59c13.171-.785,26.241,1.777,39.315.695,2.19,29.28,3.151,58.901-.16,88.172-20.624.117-41.283.712-61.899.856-1.324-9.661-2.301-19.165-1.971-28.926,3.937-16.917-2.979-42.546,7.155-57.617l1.547.5c3.231,6.901,1.422,19.48,1.262,27.114,16.282-.658,31.504,1.055,47.535,3.482.336-8.736.437-17.475.306-26.217-14.584,1.005-30.138-1.154-44.75-2.081,3.816-2.11,7.77-4.004,11.659-5.979Z"/>
    <path class="st8" d="M614.586,824.693c16.102,1.838,33.158,1.572,49.375,2.002.011,7.135-.371,14.142-.941,21.252-15.688-3.115-31.92-3.725-47.882-3.561-.598-6.603-.66-13.067-.552-19.694Z"/>
    <path class="st8" d="M614.388,854.48c16.323,1.094,33.005-.218,49.42.548.073,4.094-.196,8.19-.38,12.276-15.851-.299-32.151-2.017-48.104-1.454-.444-3.766-.636-7.589-.936-11.37Z"/>
    <path class="st5" d="M616.944,917.175c12.949-.595,25.788,1.104,38.689,2.066l4.006,7.929c-12.586,2.16-52.07-12.277-43.734,11.888l2.025.384c5.275-3.479,11.387-2.169,17.317-2.35,7.861.267,18.928-3.465,25.016,2.619l-.438,1.307.541-.145c-4.996,7.871-39.68,3.191-48.844,2.921,1.685-8.155-1.539-14.323,2.39-22.3.832.369,1.584.877,2.342,1.378,1.225-1.872.824-3.561.69-5.695Z"/>
    <path class="st5" d="M627.69,895.889c10.809-1.145,23.762,1.316,34.828,1.803-.365,2.011-2.023,3.617-3.251,5.229-7.505,1.607-44.784,3.281-48.586-2.716,3.477-4.592,11.804-3.967,17.01-4.316Z"/>
    <path class="st4" d="M1088.432,1311.69c17.105-.597,34.151-.011,51.248.585-16.842,30.093-32.248,63.983-43.489,96.52-54.217-1.934-109.729,3.095-164.126,3.697,16.776-32.652,31.163-66.817,46.027-100.375,36.746.151,73.607.505,110.34-.427Z"/>
    <path class="st7" d="M1348.616,350.516c89.11-9.422,172.423,51.639,161.6,146.507-60.197-61.707-166.922-101.324-251.368-79.656,19.235-35.401,48.749-62.341,89.768-66.85Z"/>
    <path class="st12" d="M1298.838,1208.236c9.137,1.312,18.49,5.464,27.599,7.506,15.701,3.518,32.705,4.243,47.734,10.261,11.229,4.495,20.753,12.707,32.172,16.965,7.49-2.344,17.135-8.038,23.754-1.15,16.491,14.058,32.259,69.526-4.019,65.717-24.902,28.539-57.075,46.712-95.325,45.738,11.56-5.708,21.092-10.313,29.271-20.591-23.257,9.172-49.354,24.757-73.922,10.251,21.596-4.552,42.794-9.64,58.047-26.741-30.686,9.82-69.781,30.979-97.819,5.168,37.048-4.445,82.449-21.241,98.53-57.615-9.388-22.401-32.229-20.719-47.526-36.206.078-6.32-.175-13.186,1.504-19.303Z"/>
    <path class="st12" d="M1427.673,732.095c.846,29.619,2.295,47.063,28.072,65.9-18.067,61.906-110.385,105.384-164.039,63.006-17.549-16.973-10.946-42.974,6.833-56.94,1.922,4.808,4.355,14.193,9.144,16.687l1.24-1.033c2.517-8.904.019-21.333-.817-30.546,46.035,11.75,93.323-21.749,119.566-57.074Z"/>
    <path class="st1" d="M1254.448,482.92c4.746-.809,9.862-.55,14.675-.638-12.74,21.339-37.219,32.019-57.515,44.481-1.638,1.43-1.573,2.42-1.94,4.458,2.519,1.771,6.48.134,9.711.815,2.041,3.704-.009,13.859-.302,18.38,1.083,27.564-5.972,54.074-8.823,81.272-6.311,59.57,29.861,118.293,77.432,151.816-50.85,7.541-95.5-20.333-103.628-72.457-1.214-8.241.191-20.953-4.274-27.905-1.232-1.92-1.997-2.947-4.295-3.469-3.805,7.951,1.206,21.115-5.481,28.035-9.543-1.845-15.084-17.26-16.671-25.73-7.87-46.362,23.641-80.63,44.14-118.281,9.045-46.946-5.294-79.544,56.971-80.776Z"/>
    <path class="st12" d="M139.934,1329.717c19.092,1.883,55.592,104.309,27.565,106.414-17.039-2.07-10.566-50.177-17.479-59.931l-1.521.02c-22.262,28.084,12.542,95.626-4.196,108.763-23.416.499-30.804-68.279-32.582-85.715l-3.111-1.206c-11.686,25.635,4.701,64.586,15.992,88.534-44.179-10.611-36.699-75.003-49.056-85.633l-1.246,1.007c-6.01,21.113,5.616,47.926,14.571,66.867-39.422-21.693-33.643-95.677-28.447-133.928,24.342,8.306,56.676,7.059,79.511-5.192Z"/>
    <path class="st8" d="M1211.499,1179.189c75.11-5.27,86.929,114.059,16.651,129.548-77.192,14.975-91.821-122.606-16.651-129.548Z"/>
    <path class="st5" d="M1209.057,1196.633c63.002-7.651,71.712,77.323,17.32,96.813-53.378,12.831-67.051-86.361-17.32-96.813Z"/>
    <path class="st3" d="M1217.163,1209.381c13.062-6.72,27.57,5.201,32.658,16.998,6.535,16.588,1.986,41.617-15.999,48.863-12.711,4.248-23.887-5.919-30.682-15.588-9.534-5.085-6.364-15.86-1.885-23.402-1.347-11.407,6.482-21.447,15.908-26.871Z"/>
    <path class="st6" d="M1217.163,1209.381c3.121.958,7.543,1.426,9.541,3.928-.633,8.186,1.411,8.163,4.9,14.149.722,3.41-6.194,12.791-8.457,15.241-5.705,6.684-15.234,2.231-22.737,3.376,1.059-3.652,1.941-6.1.845-9.823-1.347-11.406,6.482-21.448,15.908-26.871Z"/>
    <path class="st8" d="M1201.255,1236.252c1.096,3.723.214,6.171-.845,9.823.761,4.582,1.622,9.062,2.729,13.579-9.546-5.084-6.354-15.862-1.885-23.402Z"/>
    <path class="st8" d="M1195.877,1213.266c1.573,1.846-1.1,10.054-1.599,12.662-4.322,24.887.079,51.709,28.143,58.51l.328,3.568c-3.009-.259-6.085-.192-8.74-1.779-2.233-5.619-5.932-5.218-10.751-7.72-19.681-13.708-17.103-46.193-7.381-65.242Z"/>
    <path class="st12" d="M561.803,1448.608c37.386-1.783,104.469,52.189,54.093,82.179-1.76-24.757-12.992-57.387-39.953-62.954-.041,6.012,9.228,12.116,13.29,16.327,12.74,13.205,15.319,31.515,15.026,49-13.755,16.84-18.97,13.066-21.425-7.083-3.811-18.296-15.395-41.377-36.257-42.86.465,4.387,17.252,18.616,21.094,26.612,6.973,13.807,12.83,41.484-10.783,40.231-9.658-18.367-15.198-45.76-35.855-55.426l-1.777,1.005.27-.913,1.736.009-2.021.684c.513,10.504,39.204,47.819,11.548,57.104-18.126.901-21.898-30.776-37.316-33.953-2.493,2.09-2.315,4.48-3.818,7.056-6.168,6.032-17.785,2.357-23.942-2.327-12.06-9.08-12.009-26.375-1.697-36.781,21.52-26.327,65.561-34.847,97.787-37.908Z"/>
    <path class="st9" d="M802.3,760.255l1.396.349c4.419,37.908,3.814,131.158,16.305,174.22,4.522,35.08,37.69,108.429,35.54,139.825-53.337-51.753-79.751-135.606-100.428-205.596,9.131-9.435,21.866-16.007,32.541-23.613-7.629-10.917-18.055-17.876-29.168-24.867,4.331-8.999,10.345-17.545,15.43-26.159,7.459-12.901,13.704-28.079,28.383-34.159Z"/>
    <path class="st1" d="M448.37,1247.089c7.832,3.667,14.784,5.132,23.437,4.679,16.273,65.048,50.063,124.044,68.234,188.324-12.683,4.598-26.595,7.398-39.686,11.146-12.567-6.674-39.265-60.061-46.907-75.271,11.566-8.244,20.002-16.391,28.896-27.41-9.372-14.353-27.96-12.44-37.224-26.068-11.055-16.262-.591-56.688,3.249-75.4Z"/>
    <path class="st12" d="M222.051,699.566c35.951,44.101,89.976,75.099,148.307,66.893.261,14.004-1.106,29.501-14.077,37.587-36.155,20.224-82.475,8.968-113.293-16.154-42.626-34.666-16.476-45.825-20.937-88.327Z"/>
    <path class="st8" d="M867.543,857.716c6.227.817,12.399,1.256,18.671,1.579,7.356,25.658,7.021,55.178,9.605,81.61.971,9.929,5.324,27.289,3.276,36.687-8.86,28.16-22.87,54.93-34.146,82.218-2.019-24.25-13.156-47.257-17.244-71.271-2.136-12.544,1.728-25.898,3.462-38.316,4.346-31.111,8.367-62.02,16.378-92.506Z"/>
    <path class="st12" d="M897.968,497.86c15.987.318,56.766-6.912,64.422,10.661,5.979,22.9-2.527,56.793-27.472,64.599-36.422,11.175-62.629-10.774-64.242-47.684-2.526-22.695,5.705-27.813,27.292-27.576Z"/>
    <path class="st5" d="M911.864,512.362c20.387-1.418,21.609,29.36,6.825,37.876-20.554,2.943-21.093-29.702-6.825-37.876Z"/>
    <path class="st8" d="M127.818,502.793c41.923,23.013,45.735,110.112,9.966,139.827-38.433-8.5-44.881-103.594-23.151-129.468,3.929-3.929,9.258-6.235,13.185-10.359Z"/>
    <path class="st4" d="M656.852,1382.787l.964,1.26-1.355,2.09c3.141,4.508,12.42,6.818,16.845,11.243,6.297,4.908,9.639,21.936,17.707,21.534l.619.675c-1.508,27.888-6.238,55.953-8.49,83.871-12.334-.246-25.983,2.101-38.408,1.711-4.703-19.521-9.989-32.891-26.439-45.182-2.622-48.246,20.098-41.887,38.557-77.203Z"/>
    <path class="st5" d="M626.353,1434.613c13.123-1.922,31.001,11.819,15.966,22.992-9.434,2.051-15.223-8.861-20.203-15.253.295-3.084.271-7.411,4.237-7.739Z"/>
    <path class="st4" d="M510.666,1323.99c19.921,15.867,32.63,20.289,57.654,22.811,11.005,27.117,34.599,46.305,45.853,73.137-3.253,12.215-4.702,22.507-4.771,35.145-17.125-12.312-36.461-16.355-57.222-16.394-3.743-4.359-5.606-11.249-7.698-16.598,11.51-9.819,19.345-23.689,31.519-32.962,3.475-1.417,6.058,1.146,9.551.636-10.182-23.228-31.873,13.468-42.287,20.46-7.739-15.828-31.747-70.708-32.6-86.235Z"/>
    <path class="st1" d="M765.676,1271.634c28.796,17.895,21.29,134.773,9.419,162.619-5.679,8.857-18.636,19.756-26.314,30.503-7.517,10.522-12.651,24.226-21.327,33.538-5.097.697-10.196.667-15.332.733,7.962-33.647,78.15-118.006,31.159-139.797,20.06-19.279,14.276-13.277,9.745-38.202.654-8.167,9.457-41.476,12.65-49.394Z"/>
    <path class="st1" d="M657.904,1062.733c16.804-2.364,44.299-.867,60.73,1.764,18.404,4.421,77.27,14.935,79.151,37.13-6.545,3.656-23.902-5.865-30.77-8.164-76.374-26.278-169.114,23.415-242.54-4.823,43.518-12.802,88.216-21.8,133.429-25.908Z"/>
    <path class="st12" d="M769.979,497.86c15.927-.552,44.871-.341,46.644,20.708,1.866,12.938-.863,35.597-9.042,46.16-13.319,13.51-37.092,10.696-51.74.523-12.237-8.626-16.836-23.321-19.191-37.442-6.18-27.795,10.993-28.641,33.329-29.947Z"/>
    <path class="st5" d="M785.013,512.347c20.659-3.077,21.827,28.63,7.621,37.313-19.907,3.004-21.616-28.936-7.621-37.313Z"/>
    <path class="st4" d="M1001.942,715.408l.971,1.637c-1.085,25.568-24.735,82.829-37.185,107.365-6.765,13.337-8.794,16.68-23.201,21.379-7.832-8.259-14.493-17.571-22.358-25.85-9.649-8.734-19.852-17.272-28.314-27.177,45.042-8.758,82.423-42.434,110.086-77.354Z"/>
    <path class="st8" d="M1061.303,1418.825c22.986-.845,45.626-.306,68.575.749.116,6.898-.481,13.531-1.262,20.38-60.483,1.669-151.63,6.869-211.899,7.25-.196-8.311-1.501-16.747-2.394-25.017,49.023.089,97.968-2.263,146.98-3.363Z"/>
    <path class="st1" d="M742.655,1331.425c1.355,3.753,1.307,7.692,1.519,11.64-4.786,7.697-9.396,15.384-13.628,23.411,7.005,1.14,16.282,1.547,19.735,8.866,6.596,15.572-37.464,99.013-45.729,117.9-2.022,4.852-4.131,10.51-9.349,12.64l-1.913-1.376c2.473-27.407,10.611-120.172,18.616-151.197,11.706-6.379,21.036-12.588,30.747-21.885Z"/>
    <path class="st8" d="M1296.493,421.429c73.663-1.868,165.456,33.722,212.96,89.939-3.208-1.094-6.376-4.745-8.911-7.006-77.686-32.945-160.788-68.949-246.698-72.742l-.321-1.35c6.011-7.117,33.212-7.903,42.969-8.842Z"/>
    <path class="st9" d="M850.948,1297.042c10.877,29.676,17.141,59.622,34.774,86.816,8.932,14.656,31.359,17.379,34.088,21.471-.157,11.642-16.044,5.306-22.668,5.109-2.986.073-8.165,3.783-10.999,5.148-10.94,3.224-15.555,11.544-19.88,21.32-4.023-2.297-8.059-4.571-12.108-6.823-7.826-15.201-15.155-45.577-21.303-63.426,10.529-15.58,14.388-50.363,18.096-69.615Z"/>
    <path class="st8" d="M304.13,296.507c18.529-3.119,69.013,1.296,86.215,7.407-1.577,1.411-13.704-.104-16.627-.421-90.244-17.37-184.824,38.405-207.069,128.61-7.433-.893-14.985-.889-22.464-1.081,12.729-79.18,82.606-130.888,159.946-134.514Z"/>
    <path class="st10" d="M198.859,749.166c5.915-.985,7.91,1.229,9.121,6.887,4.176,11.474,9.327,20.657,17.5,29.826,34.571,38.672,118.355,59.699,150.905,9.201,3.791-8.519.391-25.474,8.723-30.528-1.695-.33-3.149-.244-4.452-1.421,2.94-1.764,7.443-3.133,10.744-2.205l.011,1.331c-1.687.535-3.303,1.1-4.931,1.799,11.626,11.149,6.708,33.85-1.708,46.289-11.062,15.781-33.111,24.892-51.47,28.257-48.16,13.09-149.283-31.177-134.443-89.436Z"/>
    <path class="st4" d="M914.124,830.677c8.911,6.868,16.456,16.769,25.121,24.293,5.035-.817,9.636-2.056,14.484-3.594-13.93,37.473-31.74,73.743-47.684,110.388-1.866-34.058-4.047-68.802-10.645-102.292,7.673-8.369,12.703-19.207,18.725-28.795Z"/>
    <path class="st1" d="M787.142,1297.147c15.224,12.437,46.642,103.582,55.57,127.103-20.006.052-39.292.052-57.559,9.209,12.218-41.631,10.197-94.008,1.989-136.313Z"/>
    <path class="st7" d="M1453.721,1218.745c34.928,10.803,46.839,65.465,30.209,95.173-13.756,6.879-30.78,12.527-45.393,5.236,35.986-17.213,17.367-68.839-6.031-89.581,7.433-2.888,14.278-6.935,21.215-10.828Z"/>
    <path class="st8" d="M1272.466,1104.673c10.865-.341,43.176.725,52.296,6.439,5.697,10.203,5.828,28.547,6.764,40.214-6.489.621-13.232.261-19.757.239-2.729-8.26-7.2-30.318-12.42-36.176-3.921-1.812-7.793-1.808-12.032-1.698-10.03.263-24.925.129-32.28,7.862,12.243,3.22,28.607,1.477,41.407,1.495.6,9.536,3.645,19.692,5.625,29.105-22.624,2.226-45.294-2.199-67.779-1.174,2.712-22.219,12.785-45.313,38.176-46.305Z"/>
    <path class="st10" d="M46.227,1285.275c20.543,7.61,45.322,10.304,66.876,5.887,4.924-1.009,17.766-6.311,22-4.497,4.155,8.145,2.276,24.002.936,32.953-16.046,11.959-60.814,13.005-77.768,4.867-9.149-6.237-10.073-29.072-12.044-39.21Z"/>
    <path class="st4" d="M854.827,822.939l.19.125c7.889,24.024,1.655,49.064-3.913,72.906-4.137,22.449-6.605,46.383-12.841,68.273-10.249-36.615-16.619-74.452-20.184-112.249,3.363.811,4.931,2.966,8.538,2.886,10.643-6.327,20.47-22.146,28.21-31.94Z"/>
    <path class="st8" d="M150.482,499.605c4.293-.427,6.864.207,10.434,2.651,38.932,36.885,35.986,105.548,4.493,146.658-4.021.837-7.45,1.667-11.575,1.171-1.363-2.142.481-5.427,1.46-7.593,20.922-45.043,25.238-102.861-11.998-140.826,1.728-1.816,4.731-1.663,7.187-2.06Z"/>
    <path class="st4" d="M813.465,757.43c16.652,3.468,20.511,13.039,32.556,23.322,6.079,5.19,12.848,8.939,19.815,12.806-8.432,9.487-15.954,19.571-23.6,29.694-3.894,4.521-12.54,23.139-19.291,19.772-7.394-13.421-10.261-68.511-9.48-85.594Z"/>
    <path class="st12" d="M1000.128,685.597l.72.8c-3.385,41.847-73.172,88.839-111.767,96.149-18.067,3.995-34.714-6.061-46.893-18.518,65.008,9.98,125.409-22.849,157.94-78.431Z"/>
    <path class="st8" d="M1303.942,1160.67c1.204-.078,1.915.099,3.069.388,1.473,8.137,1.38,15.792,3.667,23.928-3.111.373-5.748.611-8.551,2.075l-.175,1.54c5.693,1.682,14.023-.757,20.272-.524,14.899.556,29.396,3.123,44.412,3.221,5.429,7.237,13.229,3.824,17.464-2.882l-.923-1.618,1.124.813.384-5.16.606-.513c4.622,8.958.916,22.201-2.315,31.17-9.122-2.316-19.453-1.92-28.674-3.147-1.078-2.273-1.933-4.39-3.818-6.132l-1.057.619,1.98,3.578c-14.549,1.493-42.492-2.97-52.407-14.142-4.121-5.639-7.684-12.345-12.973-16.976-6.75-5.913-15.175-8.626-21.019-15.701,12.979.043,25.975.28,38.935-.537Z"/>
    <path class="st11" d="M778.698,309.107c1.894.541,17.929,19.56,21.243,22.996,10.671,11.064,24.964,19.825,33.892,32.287l-1.26-.58.183,1.253c-10.125,1.405-21.038-1.425-31.079-2.831-25.296-6.941-71.674-38.552-22.979-53.125Z"/>
    <path class="st8" d="M173.599,497.813c45.689-5.577,52.777,160.618-.895,154.573,21.319-19.086,26.338-58.475,25.136-86.076.047-23.685-7.225-51.812-24.241-68.497Z"/>
    <path class="st12" d="M694.234,840.011c3.462,3.639,6.465,7.841,9.588,11.78.805,26.489,3.391,53.2,1.863,79.658-1.605,12.176-5.558,23.902-9.148,35.602-.77,2.205-1.98,4.239-4.534,4.163-7.39-6.265-.248-120.867,2.232-131.203Z"/>
    <path class="st8" d="M1374.346,1153.645c10.745-.362,13.862,6.104,12.288,15.879-.176,3.452.126,7.894-2.715,10.335-15.226,9.239-49.606,1.067-67.274-.421-.218-6.672-.104-13.093.49-19.743,11.991-.761,52.694,6.654,57.21-6.05Z"/>
    <path class="st8" d="M877.657,796.283c11.276,2.811,19.236,18.062,28.792,25.587-6.186,10.285-9.972,22.844-18.934,31.05-5.974,1.2-12.928-.605-18.936-1.477-3.861-13.581-4.183-27.895-3.195-41.888,3.214-5.369,7.64-9.195,12.274-13.272Z"/>
    <path class="st4" d="M491.83,1096.232c16.749-5.328,11.531,61.251-4.803,55.089-10.59-15.318-7.941-32.066-32.39-33.844l4.118-16.991c11.105-.479,22.103-2.55,33.076-4.254Z"/>
    <path class="st12" d="M780.33,1445.784c14.323,10.856,23.126,16.005,28.931,34.054-6.797,3.4-13.671,6.357-20.928,8.643-2.931-4.799-5.885-8.613-10.969-11.21l-1.799.528c-1.223,4.081,1.236,8.669,2.634,12.505-9.859.182-21.199-.611-30.113-5.015,6.915-15.17,17.765-30.671,32.244-39.505Z"/>
    <path class="st8" d="M602.554,621.226l1.764-.341,1.406,1.085c1.199,10.337,1.747,95.003-.155,101.185-2.567-.349-3.82-2.081-5.746-3.742-2.679-.16-4.239.267-6.363-1.516-1.033-12.392-1.696-83.579,1.012-93.91.498-1.894,5.142-.906,8.082-2.761Z"/>
    <path class="st12" d="M580.468,912.192c13.662-.536,8.73,17.268,4.284,24.519-4.22,9.824-29.529,35.25-39.882,26.167,1.427-20.036,19.658-39.957,35.598-50.686Z"/>
    <path class="st8" d="M491.593,499.001c26.195,26.912,28.602,116.398-9.53,134.695,28.061-35.878,18.263-93.29,9.53-134.695Z"/>
    <path class="st12" d="M589.129,1363.162c19.701,10.507,36.48,14.467,58.786,14.155-6.413,13.232-16.028,24.533-26.666,34.556-9.547-17.599-23.933-30.96-32.119-48.711Z"/>
    <path class="st12" d="M798.568,1439.101c19.986-3.936,34.557,10.44,41.748,27.574-3.941,1.798-16.429,9.674-20.755,9.601-16.957-14.297-3.878-19.986-37.281-31.202,5.313-2.845,10.328-4.897,16.288-5.973Z"/>
    <path class="st8" d="M143.09,439.22c7.213.846,14.284,1.415,21.545,1.572-1.93,9.618-.796,37.255-5.677,42.854-6.599,2.019-13.165,2.983-19.989,3.937.462-16.066,1.704-32.474,4.12-48.363Z"/>
    <path class="st8" d="M481.491,508.488c13.24,29.579,18.397,89.338-3.018,115.467-2.362-4.18,2.686-24.946,3.05-31.288,1.603-27.865,1.128-56.299-.032-84.179Z"/>
    <path class="st8" d="M604.58,726.39c1.031-.19.349-.171,1.931.679.511,2.217.817,4.318,1.055,6.57l1.463.656,3.098-1.51c2.573,8.797,2.252,19.592,2.494,28.747-8.198-1.573-20.819-1.208-29.241-1.15.369-5.729-1.053-26.955,1.292-29.78,3.714-4.467,12.602-3.857,17.906-4.211Z"/>
    <path class="st11" d="M475.27,421.013c-1.462-13.097,8.4-11.854,12.599-1.955.037,15.786,10.875,34.431,3.674,49.744-1.559,2.174-3.361,2.765-5.738,3.749-2.306.954-1.779,5.033-4.461,6.972l-2.368-.927c-.899-19.215-2.095-38.397-3.706-57.583Z"/>
    <path class="st1" d="M475.27,421.013c-1.459-13.135,8.417-11.822,12.599-1.956-2.884,3.768-8.41,1.691-12.599,1.956Z"/>
    <path class="st8" d="M478.388,469.221c4.118,2.259,8.936,1.079,13.154-.419-1.559,2.174-3.361,2.765-5.738,3.749-2.306.954-1.779,5.033-4.461,6.972l-2.368-.927c-.971-2.901-.604-6.314-.587-9.375Z"/>
    <path class="st12" d="M577.099,848.859c5.186-1.183,11.483,1.05,10.563,7.305-.906,11.836-23.558,20.672-32.194,27.568-2.385,1.769-4.447,4.409-7.448,4.819l-1.325-1.976c-.814-19.962,12-33.129,30.404-37.716Z"/>
    <path class="st4" d="M699.952,1357.629c-1.665,16.519-3.387,33.173-5.953,49.578-10.206-10.91-20.038-25.059-36.012-27.261l-.887-1.107c3.102-3.531,16.862-5.38,22.088-7.591,7.802-3.289,14.785-7.601,20.764-13.618Z"/>
    <path class="st8" d="M1311.774,1257.425l1.214-1.357c4.643.19,9.158-.468,13.708-1.301,2.975,2.944,5.403,5.686,7.593,9.26-11.787,15.307-25.703,27.402-43.745,34.759,6.532-13.922,12.552-28.731,21.23-41.36Z"/>
    <path class="st12" d="M486.313,1456.112l-.127,1.079c-20.909,10.839-36.543,25.255-41.18,49.108l-10.376-.466c-4.323-34.657,22.199-46.913,51.683-49.722Z"/>
    <path class="st11" d="M764.347,353.578c3.341,1.141,5.49,3.343,8.074,5.677-25.882,19.663-28.393,54.934-35.585,84.043-2.336-3.948-1.449-12.071-1.413-16.786-.518-26.839,6.619-55.966,28.924-72.934Z"/>
    <path class="st8" d="M889.678,1424.187l15.498-.289c1.758,7.539,2.379,15.276,3.178,22.962l-13.218.516c-5.895-.81-16.033,3.589-18.167-4.28.076-7.724,4.891-16.764,12.709-18.91Z"/>
    <path class="st8" d="M586.419,793.925c3.064,3.986,1.358,35.458.673,41.965-5.373-1.497-8.822-.79-14.105.466-.994.045-.323.104-1.801-.906-.041-10.761.198-21.851,1.415-32.541.404-5.628,8.169-3.477,13.818-8.984Z"/>
    <path class="st12" d="M826.886,1433.454c20.547-2.487,55.144,16.95,22.362,32.097-3.182-6.79-6.642-13.82-12.216-19.028-2.754-2.573-11.579-7.841-12.409-10.971l2.263-2.097Z"/>
    <path class="st8" d="M596.45,570.529c12.636,1.476,12.734,34.487,9.301,43.247-2.049,1.491-2.258.997-4.67.805-1.232-.996-2.273-1.555-3.742-2.142l-2.664,2.049c-3.131-12.063-4.99-33.193,1.775-43.959Z"/>
    <path class="st12" d="M1143.085,1213.937l2.534.88c2.006,4.843,2.882,41.079,3.693,49.641-21.268-14.343-22.103-31.176-6.227-50.521Z"/>
    <path class="st8" d="M1289.662,1233.454c12.985,13.298,11.322,34.918-3.262,46.323.001,0-10.55,2.131-10.55,2.131,7.323-17.036,11.551-30.041,13.812-48.454Z"/>
    <path class="st12" d="M1128.594,1260.667c8.384,8.631,35.707,11.826,25.563,27.921-12.715-1.988-27.158-13.805-25.563-27.921Z"/>
    <path class="st8" d="M1340.894,1141.634c16.195-.082,24.895-3.816,36.981,9.017l-.936,1.035c-12.5.222-24.957-.74-37.44.345.632-3.44.988-6.924,1.394-10.397Z"/>
    <path class="st8" d="M1192.43,1134.686c14.539-2.097,25.895,4.099,39.589,7.731-17.13.307-38.346,3.471-54.789-2.023l-.009-.42c3.976-4.713,9.526-4.752,15.209-5.289Z"/>
    <path class="st8" d="M582.604,768.737c2.403-.02,4.739.058,7.136.22,1.207,4.799-.566,17.366-3.111,21.48-24.943.991-16.654-9.601-4.025-21.7Z"/>
    <path class="st8" d="M644.425,747.6c11.905-1.849,19.98.355,19.974,14.01l-1.32.981-20.717-.354c-.131-5.099-1.845-10.575,2.064-14.636Z"/>
    <path class="st8" d="M1277.222,1286.472c2.535-.354,3.33-1.029,5.527.535-.028,5.404-4.282,11.661-6.764,16.448-8.637,4.178-16.469,6.102-25.932,7.563,13.13-4.141,15.982-18.241,27.168-24.547Z"/>
    <path class="st8" d="M1277.222,1286.472c1.196,7.519-6.346,15.435-13.887,14.942,3.891-5.643,7.586-11.771,13.887-14.942Z"/>
    <path class="st8" d="M738.162,1505.34c3.044-6.795,5.906-13.762,9.923-20.05,5.838,2.203,11.443,4.587,17.796,4.696l-9.204,1.713,3.195,6.132-1.762,1.527,1.178-1.987-.535-.175c-.307,4.407-16.479,6.705-20.593,8.145Z"/>
    <path class="st8" d="M721.1,1506.391c2.621-.22,5.25-.845,7.584.624l-.44,1.408c-6.354,3.677-21.502,11.278-28.46,11.033-.748-2.651,1.13-6.258,2.064-8.818,6.462-2.375,12.438-3.555,19.252-4.247Z"/>
    <path class="st8" d="M1191.872,1098.215c5.422,4.205,8.974,23.46,4.195,28.756-2.67-.116-5.058-.392-7.679-.906l3.484-27.85Z"/>
    <path class="st8" d="M1300.316,1242.222c8.21,3.691,19.487,6.875,26.379,12.545-4.548.833-9.066,1.492-13.708,1.301l-1.214,1.357c-1.361-1.275-1.484-1.538-2.069-3.207,2.582-1.611,9.771-.395,13.042-.282-1.532-1.704-3.225-2.017-5.336-2.761-1.348.919-2.506,1.322-4.07,1.771-1.552-.849-3.095-1.716-4.627-2.601-1.18.688-2.36,1.429-3.481,2.215-2.612-1.95-3.796-7.291-4.918-10.339Z"/>
    <path class="st8" d="M684.378,1515.895c2.947.421,3.579.455,5.88,2.282,1.857,6.261-7.479,9.064-12.185,7.699,2.873-3.074,5.243-5.782,6.305-9.981Z"/>
    <rect class="st2" x="975.623" y="885.197" width="120.499" height="90.043"/>
    <g>
      <path class="st0" d="M1023.286,898.483h-6.369v6.189h-1.674v-11.912c0-.012-.021-.107-.062-.288-.043-.18-.081-.365-.117-.558-.036-.191-.061-.306-.072-.342h1.926v5.687h6.369v-5.687h1.674v13.1h-1.674v-6.189Z"/>
      <path class="st0" d="M1031.384,895.513c.72,0,1.325.147,1.817.441.491.294.86.701,1.106,1.224.246.521.369,1.131.369,1.826,0,.168-.009.339-.027.513-.018.174-.039.357-.062.549h-5.687c0,1.14.252,2.021.756,2.646.504.623,1.176.936,2.016.936.348,0,.711-.055,1.089-.162.377-.108.771-.27,1.178-.486l.559.9c-.421.336-.895.588-1.422.756-.528.167-1.062.252-1.602.252-.708,0-1.322-.13-1.845-.388-.521-.258-.953-.605-1.295-1.043-.342-.438-.597-.933-.765-1.484s-.252-1.116-.252-1.691c0-.601.084-1.182.252-1.746.168-.563.423-1.076.765-1.538s.765-.828,1.269-1.098c.504-.271,1.098-.405,1.781-.405ZM1031.24,896.647c-.408,0-.769.114-1.08.342-.312.229-.564.52-.756.873-.192.354-.324.717-.396,1.089h4.103c.012-.504-.058-.927-.207-1.269-.15-.342-.366-.6-.647-.774-.282-.174-.621-.261-1.017-.261Z"/>
      <path class="st0" d="M1038.419,890.961v13.711h-1.493v-12.668l-.234-1.043h1.728Z"/>
      <path class="st0" d="M1042.936,890.961v13.711h-1.493v-12.668l-.234-1.043h1.728Z"/>
      <path class="st0" d="M1049.215,904.907c-.876,0-1.61-.22-2.204-.657s-1.038-1.011-1.332-1.719c-.294-.707-.44-1.463-.44-2.267,0-.6.09-1.185.27-1.755.18-.569.443-1.079.792-1.529.348-.45.776-.807,1.286-1.07s1.089-.396,1.736-.396c.888,0,1.629.216,2.223.648.594.432,1.037,1.001,1.331,1.709s.441,1.47.441,2.285c0,.612-.09,1.203-.271,1.772-.18.57-.44,1.077-.782,1.521-.342.444-.768.798-1.277,1.062-.511.264-1.101.396-1.772.396ZM1049.232,903.773c.468,0,.861-.111,1.179-.333s.576-.513.773-.873c.198-.359.339-.746.423-1.16s.126-.812.126-1.197c0-.396-.039-.801-.116-1.214-.078-.414-.207-.798-.388-1.152-.18-.354-.429-.642-.746-.863-.318-.222-.711-.333-1.179-.333s-.861.111-1.179.333c-.318.222-.573.513-.765.873-.192.359-.33.746-.414,1.16s-.126.812-.126,1.196c0,.372.042.766.126,1.179.084.414.219.801.405,1.161.186.359.435.653.746.882.312.228.69.342,1.134.342Z"/>
      <path class="st0" d="M1055.782,902.441c.432,0,.765.153.999.459.233.306.351.663.351,1.07,0,.624-.184,1.19-.549,1.701-.366.51-.795.938-1.287,1.286-.096-.096-.197-.198-.306-.306-.107-.108-.21-.21-.306-.306.108-.108.23-.231.369-.369.138-.138.258-.285.359-.441.102-.155.153-.312.153-.468,0-.168-.075-.309-.225-.423-.15-.113-.301-.254-.45-.423-.15-.168-.225-.401-.225-.701,0-.312.11-.57.332-.774.223-.203.483-.306.783-.306Z"/>
      <path class="st0" d="M992.661,910.603c.084.192.156.396.216.612.061.216.103.426.126.63.216-.216.465-.426.747-.63.281-.204.585-.372.908-.504.324-.132.642-.198.954-.198.576,0,1.067.117,1.476.352.407.233.737.614.989,1.143.24-.24.51-.474.81-.702.3-.228.618-.417.954-.566.336-.15.678-.226,1.025-.226.66,0,1.19.139,1.593.414.401.276.692.651.873,1.125.18.474.27,1.022.27,1.646v5.974h-1.493v-5.488c0-.275-.016-.549-.045-.818-.03-.271-.094-.522-.189-.756-.096-.234-.243-.42-.44-.558-.198-.138-.472-.207-.819-.207-.42,0-.834.135-1.241.404-.408.271-.75.543-1.025.819v6.604h-1.494v-5.488c0-.275-.012-.552-.035-.827-.024-.276-.085-.528-.181-.756-.096-.229-.246-.411-.449-.549-.204-.138-.48-.207-.828-.207-.264,0-.534.062-.81.188-.276.126-.54.282-.792.468-.252.187-.474.363-.666.531v6.64h-1.493v-6.496c0-.252-.021-.521-.062-.81-.043-.288-.105-.569-.189-.846-.084-.275-.192-.521-.324-.737l1.638-.181Z"/>
      <path class="st0" d="M1006.912,910.729c.264.744.525,1.488.783,2.231.258.744.519,1.506.782,2.285.132.408.268.819.405,1.232.138.414.272.825.405,1.233.132-.42.267-.834.404-1.242.138-.407.272-.815.405-1.224.264-.779.524-1.541.782-2.285.258-.743.519-1.487.783-2.231h1.403l-3.167,8.979c-.132.371-.3.782-.504,1.232s-.443.873-.72,1.269-.6.723-.972.98-.792.387-1.26.387h-.684v-1.205h.198c.504,0,.92-.15,1.25-.45s.604-.663.819-1.089.396-.836.54-1.232l-3.275-8.871h1.619Z"/>
      <path class="st0" d="M1019.185,910.585c.084.204.155.414.216.63.06.216.102.432.126.647.359-.359.785-.675,1.277-.944.492-.271.996-.405,1.512-.405.659,0,1.19.139,1.593.414.401.276.692.651.872,1.125s.271,1.022.271,1.646v5.974h-1.476v-5.488c0-.371-.027-.737-.081-1.098-.055-.359-.187-.656-.396-.891-.21-.233-.555-.351-1.034-.351-.288,0-.582.057-.882.171s-.582.261-.846.44c-.264.181-.504.372-.72.576v6.64h-1.476v-6.334c0-.239-.018-.519-.054-.837-.036-.317-.097-.63-.18-.936-.085-.306-.204-.561-.36-.765l1.638-.216Z"/>
      <path class="st0" d="M1031.097,910.513c.947,0,1.661.259,2.141.774.48.516.72,1.241.72,2.177v4.48c0,.252.048.423.145.513.096.09.21.135.342.135.107,0,.222-.015.342-.045.12-.029.234-.068.342-.116l.324.972c-.192.107-.436.207-.729.297s-.597.135-.908.135-.594-.087-.846-.261-.408-.495-.468-.963c-.349.372-.756.675-1.224.908-.468.234-.96.352-1.476.352-.708,0-1.296-.21-1.764-.63s-.701-.996-.701-1.728c0-.684.164-1.229.494-1.638.33-.407.759-.714,1.287-.918.527-.203,1.089-.342,1.683-.413.594-.072,1.148-.108,1.664-.108v-.953c0-.336-.042-.64-.126-.909s-.233-.485-.45-.647c-.216-.162-.521-.243-.917-.243-.456,0-.895.09-1.313.27-.42.181-.84.444-1.26.792l-.738-1.062c.492-.396,1.032-.689,1.62-.882.587-.191,1.193-.288,1.817-.288ZM1032.464,915.606c-.324,0-.689.015-1.098.045s-.804.102-1.188.216-.699.297-.944.549c-.246.252-.369.6-.369,1.044,0,.396.135.687.404.872.271.187.609.279,1.018.279.432,0,.81-.12,1.133-.36.324-.239.579-.545.765-.917.187-.372.279-.756.279-1.152v-.575Z"/>
      <path class="st0" d="M1037.934,910.603c.084.192.156.396.216.612.061.216.103.426.126.63.216-.216.465-.426.747-.63.281-.204.585-.372.908-.504.324-.132.642-.198.954-.198.576,0,1.067.117,1.476.352.407.233.737.614.989,1.143.24-.24.51-.474.81-.702.3-.228.618-.417.954-.566.336-.15.678-.226,1.025-.226.66,0,1.19.139,1.593.414.401.276.692.651.873,1.125.18.474.27,1.022.27,1.646v5.974h-1.493v-5.488c0-.275-.016-.549-.045-.818-.03-.271-.094-.522-.189-.756-.096-.234-.243-.42-.44-.558-.198-.138-.472-.207-.819-.207-.42,0-.834.135-1.241.404-.408.271-.75.543-1.025.819v6.604h-1.494v-5.488c0-.275-.012-.552-.035-.827-.024-.276-.085-.528-.181-.756-.096-.229-.246-.411-.449-.549-.204-.138-.48-.207-.828-.207-.264,0-.534.062-.81.188-.276.126-.54.282-.792.468-.252.187-.474.363-.666.531v6.64h-1.493v-6.496c0-.252-.021-.521-.062-.81-.043-.288-.105-.569-.189-.846-.084-.275-.192-.521-.324-.737l1.638-.181Z"/>
      <path class="st0" d="M1055.207,910.513c.72,0,1.325.147,1.817.441.491.294.86.701,1.106,1.224.246.521.369,1.131.369,1.826,0,.168-.009.339-.027.513-.018.174-.039.357-.062.549h-5.687c0,1.14.252,2.021.756,2.646.504.623,1.176.936,2.016.936.348,0,.711-.055,1.089-.162.377-.108.771-.27,1.178-.486l.559.9c-.421.336-.895.588-1.422.756-.528.167-1.062.252-1.602.252-.708,0-1.322-.13-1.845-.388-.521-.258-.953-.605-1.295-1.043-.342-.438-.597-.933-.765-1.484s-.252-1.116-.252-1.691c0-.601.084-1.182.252-1.746.168-.563.423-1.076.765-1.538s.765-.828,1.269-1.098c.504-.271,1.098-.405,1.781-.405ZM1055.063,911.647c-.408,0-.769.114-1.08.342-.312.229-.564.52-.756.873-.192.354-.324.717-.396,1.089h4.103c.012-.504-.058-.927-.207-1.269-.15-.342-.366-.6-.647-.774-.282-.174-.621-.261-1.017-.261Z"/>
      <path class="st0" d="M1066.705,907.724c0,.301-.105.559-.315.774s-.471.323-.782.323c-.3,0-.556-.107-.765-.323-.21-.216-.315-.474-.315-.774s.105-.558.315-.773c.209-.216.465-.324.765-.324s.558.108.773.324.324.474.324.773ZM1066.381,910.729v8.943h-1.493v-7.881l-.216-1.062h1.709Z"/>
      <path class="st0" d="M1072.283,910.513c.407,0,.812.052,1.215.153.401.102.771.261,1.106.477l-.522,1.151c-.264-.216-.558-.377-.881-.485-.324-.108-.643-.162-.954-.162-.444,0-.831.103-1.16.306-.33.204-.495.511-.495.918,0,.288.068.528.207.72.138.192.32.354.549.486.228.132.474.264.737.396.3.144.603.291.909.44.306.15.587.33.846.54.258.21.468.462.63.756.161.294.242.657.242,1.089,0,.6-.146,1.095-.44,1.484s-.678.675-1.151.854c-.475.18-.987.271-1.539.271-.479,0-.96-.066-1.439-.198s-.924-.317-1.331-.558l.63-1.098c.287.216.611.39.972.521.359.132.707.198,1.043.198.456,0,.855-.108,1.197-.324s.513-.54.513-.972c0-.3-.094-.549-.279-.747-.186-.197-.423-.374-.711-.53-.287-.156-.588-.306-.899-.45-.359-.18-.711-.375-1.053-.585-.342-.209-.621-.477-.837-.801-.216-.323-.323-.737-.323-1.241,0-.576.152-1.056.459-1.439.306-.384.704-.675,1.196-.873.491-.197,1.014-.297,1.565-.297Z"/>
      <path class="st0" d="M1079.732,913.05c0,.324-.117.604-.351.837s-.513.351-.837.351-.603-.116-.837-.351-.351-.513-.351-.837.117-.603.351-.836.513-.352.837-.352.603.117.837.352.351.513.351.836ZM1079.732,918.718c0,.324-.117.604-.351.837s-.513.352-.837.352-.603-.117-.837-.352-.351-.513-.351-.837.117-.603.351-.836.513-.352.837-.352.603.117.837.352.351.513.351.836Z"/>
    </g>
    <g>
      <path d="M1018.723,942.674c0,3.095-.629,5.847-1.884,8.255-1.255,2.409-3.043,4.299-5.364,5.67-2.321,1.373-5.058,2.059-8.211,2.059h-11.386v-29.384c0-.028-.052-.248-.153-.657-.104-.408-.213-.832-.329-1.27-.117-.438-.19-.686-.219-.744h12.131c2.452,0,4.627.387,6.524,1.16s3.511,1.876,4.839,3.307c1.329,1.431,2.336,3.124,3.022,5.079.686,1.957,1.029,4.132,1.029,6.525ZM1012.241,942.85c0-1.489-.169-2.941-.504-4.357-.336-1.416-.876-2.693-1.62-3.832-.745-1.139-1.708-2.043-2.891-2.715s-2.62-1.008-4.313-1.008h-4.992v23.386h5.08c2.218,0,4.007-.548,5.364-1.643s2.343-2.519,2.956-4.27c.613-1.752.92-3.605.92-5.562Z"/>
      <path d="M1030.283,926.603l6.831,18.393c.321.876.569,1.752.745,2.627.175.876.35,1.768.525,2.672.233-.935.416-1.81.547-2.628.132-.816.343-1.648.635-2.496l6.7-18.567h7.708v32.011h-5.912v-21.72c0-.525.028-1.058.088-1.599.058-.54.102-1.058.131-1.555-.175.525-.343,1.051-.503,1.576-.161.526-.344,1.052-.548,1.577l-7.839,21.764h-3.24l-8.059-21.764c-.204-.525-.387-1.051-.547-1.577-.161-.525-.328-1.051-.504-1.576.029.497.072,1.015.132,1.555.058.541.087,1.073.087,1.599v21.72h-4.772v-29.34l-.613-2.671h8.408Z"/>
      <path d="M1058.485,926.603h10.992c1.955,0,3.751.27,5.386.81,1.635.541,2.949,1.445,3.941,2.716.992,1.27,1.489,3.015,1.489,5.232,0,1.227-.321,2.409-.964,3.548-.642,1.139-1.481,2.109-2.518,2.912-1.037.803-2.153,1.351-3.351,1.642l9.81,15.196h-6.831l-8.89-14.276h-2.409v14.276h-5.999v-29.384l-.657-2.671ZM1065.142,930.982v9.108h2.803c1.139,0,2.16-.138,3.065-.416.905-.276,1.62-.766,2.146-1.467.525-.7.788-1.664.788-2.891,0-.963-.234-1.766-.701-2.408-.467-.642-1.08-1.123-1.839-1.445-.76-.32-1.592-.481-2.496-.481h-3.767Z"/>
    </g>
    <g>
      <path d="M575.172,996.776h10.992c1.955,0,3.751.27,5.386.81,1.635.541,2.949,1.445,3.941,2.716.992,1.27,1.489,3.015,1.489,5.232,0,1.227-.321,2.409-.964,3.548-.642,1.139-1.481,2.109-2.518,2.912-1.037.803-2.153,1.351-3.351,1.642l9.81,15.196h-6.831l-8.89-14.276h-2.409v14.276h-5.999v-29.385l-.657-2.671ZM581.829,1001.155v9.108h2.803c1.139,0,2.16-.138,3.065-.416.905-.276,1.62-.766,2.146-1.467.525-.7.788-1.664.788-2.891,0-.963-.234-1.766-.701-2.408-.467-.642-1.08-1.123-1.839-1.445-.76-.32-1.592-.481-2.496-.481h-3.767Z"/>
      <path d="M607.491,1001.111h-8.89v-4.335h24.174v4.335h-9.021v27.721h-6.263v-27.721Z"/>
      <path d="M632.802,1001.111h-8.89v-4.335h24.174v4.335h-9.021v27.721h-6.263v-27.721Z"/>
      <path d="M655.574,996.776l6.394,11.911,6.569-11.911h5.255l-9.503,17.473v14.583h-5.824v-14.583l-9.372-17.473h6.481Z"/>
    </g>
    <g>
      <path d="M1396.224,926.078c1.635,0,3.233.226,4.796.679,1.562.452,2.97,1.102,4.226,1.948l-3.021,3.767c-.788-.701-1.737-1.241-2.847-1.621-1.109-.379-2.175-.569-3.196-.569-1.139,0-2.176.3-3.109.898-.935.599-1.401,1.525-1.401,2.78,0,.848.211,1.577.635,2.189.423.613.992,1.146,1.708,1.599.715.453,1.511.898,2.387,1.336,1.021.497,2.08,1.007,3.175,1.533,1.095.525,2.108,1.16,3.044,1.904.934.745,1.692,1.657,2.276,2.737s.876,2.408.876,3.985c0,2.131-.525,3.941-1.576,5.43-1.051,1.489-2.431,2.613-4.139,3.372s-3.555,1.139-5.539,1.139c-1.781,0-3.555-.197-5.321-.591-1.767-.395-3.423-1.044-4.971-1.949l2.059-4.86c1.021.935,2.204,1.7,3.547,2.299s2.716.897,4.117.897c.934,0,1.81-.175,2.627-.525s1.489-.868,2.015-1.555c.525-.686.788-1.539.788-2.562,0-1.051-.292-1.92-.876-2.605-.584-.687-1.343-1.292-2.277-1.817-.935-.526-1.941-1.036-3.021-1.533-.963-.438-1.912-.912-2.847-1.423s-1.78-1.102-2.539-1.774c-.76-.671-1.373-1.495-1.84-2.474-.467-.978-.7-2.139-.7-3.481,0-2.131.525-3.868,1.576-5.212,1.051-1.342,2.408-2.335,4.072-2.978,1.664-.642,3.431-.963,5.299-.963Z"/>
      <path d="M1418.82,926.078c1.635,0,3.233.226,4.796.679,1.562.452,2.97,1.102,4.226,1.948l-3.021,3.767c-.788-.701-1.737-1.241-2.847-1.621-1.109-.379-2.175-.569-3.196-.569-1.139,0-2.176.3-3.109.898-.935.599-1.401,1.525-1.401,2.78,0,.848.211,1.577.635,2.189.423.613.992,1.146,1.708,1.599.715.453,1.511.898,2.387,1.336,1.021.497,2.08,1.007,3.175,1.533,1.095.525,2.108,1.16,3.044,1.904.934.745,1.692,1.657,2.276,2.737s.876,2.408.876,3.985c0,2.131-.525,3.941-1.576,5.43-1.051,1.489-2.431,2.613-4.139,3.372s-3.555,1.139-5.539,1.139c-1.781,0-3.555-.197-5.321-.591-1.767-.395-3.423-1.044-4.971-1.949l2.059-4.86c1.021.935,2.204,1.7,3.547,2.299s2.716.897,4.117.897c.934,0,1.81-.175,2.627-.525s1.489-.868,2.015-1.555c.525-.686.788-1.539.788-2.562,0-1.051-.292-1.92-.876-2.605-.584-.687-1.343-1.292-2.277-1.817-.935-.526-1.941-1.036-3.021-1.533-.963-.438-1.912-.912-2.847-1.423s-1.78-1.102-2.539-1.774c-.76-.671-1.373-1.495-1.84-2.474-.467-.978-.7-2.139-.7-3.481,0-2.131.525-3.868,1.576-5.212,1.051-1.342,2.408-2.335,4.072-2.978,1.664-.642,3.431-.963,5.299-.963Z"/>
      <path d="M1438.702,930.938h-8.89v-4.335h24.174v4.335h-9.021v27.72h-6.263v-27.72Z"/>
      <path d="M1460.948,926.646l6.263,18.306c.263.817.496,1.643.7,2.475s.395,1.671.569,2.518c.233-1.021.488-2.028.767-3.021.277-.992.591-1.985.941-2.978l5.912-17.299h4.861l-11.08,32.1h-4.291l-11.036-32.1h6.394Z"/>
    </g>
    <g>
      <path class="st7" d="M182.773,1037.334l63.208-46.444,10.717,14.587-40.665,29.88,22.411,30.499,31.383-23.061,10.718,14.587-31.384,23.06,35.402,48.18-20.479,15.049-72.644-98.863-8.667-7.473Z"/>
      <path class="st7" d="M292.647,979.061l-29.908,21.977-10.719-14.586,81.33-59.76,10.719,14.586-30.352,22.302,68.529,93.265-21.068,15.481-68.531-93.265Z"/>
      <path class="st7" d="M372.393,898.002c4.616-3.392,9.596-5.725,14.934-7.003,5.339-1.273,10.539-1.198,15.595.226,5.056,1.43,9.464,4.696,13.216,9.803,3.537,4.814,5.581,10.685,6.135,17.613.555,6.931-.688,14.61-3.718,23.039l-14.903-1.755c1.994-4.489,2.668-9.029,2.018-13.62-.65-4.589-2.201-8.554-4.656-11.895-2.093-2.848-4.244-4.896-6.449-6.152-2.205-1.25-4.413-1.784-6.621-1.601-2.209.188-4.344,1.037-6.406,2.553s-3.559,3.447-4.482,5.788c-.924,2.346-1.157,4.86-.695,7.545.461,2.688,1.739,5.454,3.832,8.302,2.311,3.145,5.012,5.278,8.11,6.406,3.097,1.127,6.516,1.717,10.259,1.764,3.742.051,7.709.046,11.902-.012,4.535-.003,9.136-.02,13.806-.046,4.667-.027,9.267.414,13.792,1.323,4.525.911,8.872,2.556,13.043,4.937,4.168,2.382,7.986,5.929,11.451,10.645,4.836,6.581,7.251,13.163,7.249,19.744-.006,6.584-1.711,12.754-5.119,18.509-3.409,5.757-7.911,10.692-13.511,14.806-5.305,3.898-11.123,6.584-17.449,8.058-6.33,1.475-12.47,1.3-18.426-.528-5.955-1.824-11.133-5.734-15.537-11.727-2.598-3.535-4.459-7.613-5.584-12.232-1.125-4.618-1.312-9.66-.564-15.127.749-5.463,2.553-11.292,5.418-17.481l15.229,2.198c-1.818,3.908-2.898,7.688-3.238,11.34-.342,3.655-.1,7.072.723,10.247.822,3.179,2.172,6.044,4.048,8.597,2.599,3.536,5.376,6.033,8.337,7.487,2.96,1.456,5.928,1.997,8.908,1.623,2.977-.372,5.693-1.462,8.15-3.267,2.652-1.948,4.633-4.346,5.939-7.2,1.309-2.851,1.742-5.967,1.298-9.349-.441-3.381-1.89-6.741-4.344-10.081-2.669-3.634-6.062-5.982-10.171-7.048-4.109-1.063-8.657-1.54-13.645-1.432-4.986.111-10.185.188-15.598.23-5.145,0-10.272-.393-15.385-1.175-5.111-.781-9.973-2.351-14.582-4.714-4.609-2.36-8.68-5.947-12.217-10.761-4.475-6.089-6.707-12.162-6.697-18.222.01-6.056,1.579-11.746,4.701-17.069,3.125-5.319,7.093-9.748,11.906-13.285Z"/>
    </g>
  </g>
  <g>
    <path class="st5" d="M31.585,233.381c1.641-11.59.23-25.503.227-37.311-.007-25.419-2.696-168.242,2.873-180.44,8.828-1.945,20.014-.847,29.139-.849l56.653.022,221.448.041,906.461-.008,268.996-.06,89.522-.028c15.628-.002,31.426-.468,47.039.14,4.713.184,11.614.059,15.824,2.152,4.036,13.836,1.836,35.319,1.823,49.991l.099,59.543c-.179,23.767-.229,47.534-.149,71.3-.004,13.697,1.419,29.274-1.432,42.621-38.659.886-77.439.252-116.112.177l-181.79.017-1096.01.078c-26.765-.043-236.126,1.303-241.891-1.26-1.61-2.135-2.079-3.594-2.721-6.126Z"/>
    <path class="st4" d="M45.034,27.902c82.035-.835,164.173.038,246.215.077l457.111.012,909.884.093c-.315,20.788,1.357,196.572-1.139,199.894-21.612-1.488-43.695-.606-65.374-.61l-116.19.056-365.371.397-1065.259-.684c-.79-66.358-.174-132.868.123-199.234Z"/>
    <g>
      <path d="M323.419,77.9l18.025,48.529c.847,2.311,1.502,4.622,1.964,6.933.462,2.311.924,4.662,1.387,7.048.616-2.464,1.098-4.775,1.444-6.933.347-2.156.904-4.351,1.675-6.586l17.679-48.991h20.336v84.463h-15.599v-57.311c0-1.386.076-2.791.231-4.217.153-1.424.269-2.791.347-4.102-.462,1.387-.906,2.773-1.329,4.16-.424,1.387-.906,2.773-1.444,4.16l-20.683,57.426h-8.55l-21.261-57.426c-.54-1.386-1.022-2.773-1.444-4.16-.424-1.386-.866-2.773-1.329-4.16.076,1.311.191,2.678.347,4.102.153,1.426.231,2.831.231,4.217v57.311h-12.594v-77.416l-1.618-7.048h22.185Z"/>
      <path d="M396.144,103.274h37.206v8.007h-24.912v16.743h19.088v8.007h-19.088v18.441h24.912v8.007h-35.993v-54.271l-1.213-4.934Z"/>
      <path d="M440.547,103.274h37.206v8.007h-24.912v16.743h19.088v8.007h-19.088v18.441h24.912v8.007h-35.993v-54.271l-1.213-4.934Z"/>
      <path d="M498.216,111.281h-16.419v-8.007h44.647v8.007h-16.662v51.198h-11.566v-51.198Z"/>
      <path d="M571.54,111.281h-16.419v-8.007h44.647v8.007h-16.662v51.198h-11.566v-51.198Z"/>
      <path d="M642.229,136.031h-24.83v26.448h-11.163v-54.271c0-.053-.095-.458-.283-1.213-.19-.754-.364-1.537-.526-2.346-.162-.809-.271-1.266-.324-1.375h12.295v24.75h24.83v-24.75h11.162v59.206h-11.162v-26.448Z"/>
      <path d="M662.772,103.274h37.205v8.007h-24.911v16.743h19.088v8.007h-19.088v18.441h24.911v8.007h-35.992v-54.271l-1.213-4.934Z"/>
      <path d="M808.116,120.305c0,8.166-1.657,15.425-4.969,21.781-3.312,6.355-8.03,11.343-14.154,14.963-6.124,3.622-13.346,5.431-21.665,5.431h-30.042v-77.531c0-.076-.135-.653-.404-1.733-.271-1.078-.56-2.195-.866-3.351-.309-1.155-.502-1.809-.578-1.964h32.007c6.47,0,12.208,1.021,17.216,3.062,5.006,2.042,9.262,4.951,12.768,8.724,3.505,3.775,6.162,8.243,7.973,13.403,1.81,5.162,2.716,10.901,2.716,17.216ZM791.016,120.768c0-3.929-.444-7.76-1.329-11.497-.887-3.735-2.312-7.106-4.275-10.11-1.964-3.004-4.506-5.391-7.626-7.164-3.12-1.771-6.915-2.657-11.381-2.657h-13.173v61.701h13.403c5.854,0,10.572-1.444,14.154-4.333s6.182-6.644,7.8-11.266c1.617-4.622,2.427-9.513,2.427-14.674Z"/>
      <path d="M814.517,103.274h12.294v59.206h-11.162v-54.271c0-.053-.095-.458-.283-1.213-.189-.754-.363-1.537-.525-2.346-.162-.809-.271-1.266-.323-1.375Z"/>
      <path d="M863.288,102.303c2.103,0,4.461.216,7.077.647,2.614.432,5.148,1.105,7.603,2.022,2.453.917,4.489,2.157,6.106,3.72l-5.904,6.632c-1.727-1.294-3.275-2.332-4.65-3.114-1.375-.781-2.845-1.361-4.408-1.739-1.564-.377-3.506-.566-5.823-.566-3.345,0-6.161.634-8.452,1.901-2.293,1.268-4.125,2.98-5.5,5.136-1.375,2.157-2.374,4.598-2.993,7.32-.62,2.724-.93,5.541-.93,8.452,0,2.481.295,5.055.89,7.724.593,2.669,1.536,5.15,2.83,7.441,1.295,2.292,2.979,4.153,5.056,5.581,2.075,1.43,4.597,2.144,7.562,2.144,2.534,0,4.758-.512,6.673-1.537,1.913-1.024,3.409-2.467,4.488-4.327,1.078-1.86,1.618-4.084,1.618-6.673v-5.015h-12.294l1.052-7.118h22.484l-.161,14.882c-.055,2.804-.041,5.595.04,8.371.081,2.778.202,5.568.364,8.372h-5.743l-2.75-6.147c-2.643,2.48-5.312,4.26-8.007,5.338-2.697,1.078-5.904,1.618-9.625,1.618-4.367,0-8.197-.782-11.485-2.346-3.289-1.563-6.025-3.707-8.209-6.43-2.185-2.723-3.815-5.905-4.894-9.544-1.079-3.64-1.618-7.508-1.618-11.606,0-4.637.66-8.856,1.981-12.658,1.321-3.801,3.248-7.089,5.783-9.867,2.534-2.777,5.634-4.906,9.302-6.39,3.666-1.482,7.846-2.225,12.537-2.225Z"/>
      <path d="M893.374,103.274h12.294v59.206h-11.162v-54.271c0-.053-.095-.458-.283-1.213-.189-.754-.363-1.537-.525-2.346-.162-.809-.271-1.266-.323-1.375Z"/>
      <path d="M928.314,111.281h-16.419v-8.007h44.646v8.007h-16.662v51.198h-11.565v-51.198Z"/>
      <path d="M981.535,103.274l20.948,59.206h-11.971l-5.823-16.985h-17.633l-5.904,16.985h-9.382l20.948-59.206h8.816ZM975.873,117.348l-6.066,20.22h12.213l-6.146-20.22Z"/>
      <path d="M1006.932,103.274h12.294v51.198h23.213v8.007h-34.456v-54.271l-1.051-4.934Z"/>
      <path d="M1099.101,77.9l18.025,48.529c.847,2.311,1.502,4.622,1.964,6.933.462,2.311.925,4.662,1.387,7.048.615-2.464,1.098-4.775,1.444-6.933.347-2.156.904-4.351,1.676-6.586l17.678-48.991h20.336v84.463h-15.599v-57.311c0-1.386.076-2.791.231-4.217.153-1.424.27-2.791.347-4.102-.462,1.387-.906,2.773-1.329,4.16-.424,1.387-.906,2.773-1.444,4.16l-20.683,57.426h-8.55l-21.261-57.426c-.54-1.386-1.021-2.773-1.444-4.16-.424-1.386-.866-2.773-1.329-4.16.076,1.311.191,2.678.347,4.102.154,1.426.231,2.831.231,4.217v57.311h-12.595v-77.416l-1.617-7.048h22.185Z"/>
      <path d="M1197.14,163.369c-4.529,0-8.532-.782-12.011-2.346-3.478-1.563-6.403-3.733-8.775-6.511-2.373-2.776-4.165-6.026-5.379-9.746-1.213-3.721-1.819-7.71-1.819-11.971,0-4.313.606-8.317,1.819-12.011,1.214-3.692,3.02-6.915,5.419-9.665s5.339-4.894,8.816-6.43,7.481-2.305,12.011-2.305c4.637,0,8.722.756,12.254,2.265,3.531,1.51,6.497,3.64,8.896,6.39s4.219,5.985,5.46,9.706c1.24,3.72,1.86,7.792,1.86,12.213,0,4.368-.647,8.399-1.941,12.092-1.294,3.694-3.168,6.916-5.621,9.666-2.454,2.75-5.447,4.881-8.978,6.39-3.532,1.509-7.536,2.265-12.012,2.265ZM1197.464,155.686c3.126,0,5.729-.66,7.805-1.982,2.075-1.32,3.733-3.073,4.975-5.257,1.239-2.184,2.129-4.596,2.669-7.239.538-2.641.809-5.284.809-7.926s-.257-5.324-.769-8.048c-.513-2.722-1.389-5.229-2.628-7.522-1.241-2.292-2.926-4.138-5.056-5.541-2.131-1.401-4.786-2.103-7.967-2.103-3.128,0-5.729.661-7.805,1.982-2.077,1.322-3.734,3.087-4.975,5.298-1.241,2.211-2.131,4.638-2.669,7.279-.54,2.643-.809,5.257-.809,7.845,0,2.643.269,5.326.809,8.048.538,2.724,1.428,5.231,2.669,7.522,1.24,2.292,2.912,4.139,5.015,5.541,2.103,1.403,4.744,2.103,7.927,2.103Z"/>
      <path d="M1282.229,132.958c0,5.716-1.16,10.798-3.479,15.246-2.318,4.449-5.621,7.94-9.908,10.475-4.286,2.535-9.342,3.801-15.165,3.801h-21.029v-54.271c0-.053-.095-.458-.283-1.213-.189-.754-.392-1.537-.606-2.346-.216-.809-.352-1.266-.404-1.375h22.404c4.529,0,8.546.715,12.052,2.144,3.504,1.429,6.482,3.465,8.938,6.106,2.452,2.643,4.312,5.771,5.58,9.382,1.267,3.613,1.901,7.631,1.901,12.051ZM1270.258,133.281c0-2.75-.312-5.432-.931-8.048-.62-2.615-1.617-4.974-2.992-7.077s-3.154-3.773-5.338-5.015c-2.185-1.24-4.841-1.86-7.967-1.86h-9.221v43.191h9.382c4.098,0,7.4-1.011,9.908-3.033s4.327-4.65,5.46-7.886c1.132-3.235,1.698-6.659,1.698-10.272Z"/>
      <path d="M1287.97,103.274h37.205v8.007h-24.911v16.743h19.088v8.007h-19.088v18.441h24.911v8.007h-35.992v-54.271l-1.213-4.934Z"/>
      <path d="M1350.653,102.303c3.019,0,5.971.418,8.856,1.254,2.884.836,5.486,2.036,7.805,3.599l-5.58,6.956c-1.456-1.294-3.209-2.292-5.258-2.993-2.05-.7-4.018-1.052-5.904-1.052-2.103,0-4.018.554-5.742,1.658-1.727,1.106-2.589,2.818-2.589,5.136,0,1.564.391,2.912,1.173,4.044.781,1.132,1.833,2.117,3.154,2.952,1.321.836,2.791,1.658,4.408,2.467,1.887.917,3.842,1.86,5.864,2.831,2.021.971,3.895,2.143,5.621,3.518,1.725,1.375,3.127,3.061,4.206,5.055,1.078,1.996,1.617,4.449,1.617,7.36,0,3.937-.971,7.279-2.911,10.029-1.941,2.75-4.489,4.827-7.644,6.228s-6.565,2.103-10.231,2.103c-3.29,0-6.565-.364-9.827-1.092-3.264-.728-6.323-1.928-9.181-3.6l3.802-8.978c1.887,1.726,4.07,3.142,6.552,4.246,2.479,1.106,5.015,1.658,7.603,1.658,1.725,0,3.343-.324,4.853-.971s2.75-1.604,3.721-2.871c.971-1.267,1.456-2.844,1.456-4.732,0-1.941-.54-3.545-1.617-4.812-1.08-1.266-2.481-2.386-4.206-3.356-1.727-.971-3.587-1.914-5.581-2.831-1.779-.809-3.532-1.685-5.257-2.628-1.727-.943-3.29-2.035-4.691-3.276-1.403-1.24-2.535-2.763-3.397-4.57-.863-1.806-1.294-3.949-1.294-6.43,0-3.935.971-7.144,2.912-9.625,1.94-2.479,4.448-4.313,7.521-5.5,3.073-1.186,6.336-1.78,9.787-1.78Z"/>
      <path d="M1381.457,77.9h17.101l-3.351,59.274h-10.399l-3.351-59.274ZM1398.673,155.315c0,2.389-.849,4.411-2.542,6.066-1.695,1.656-3.737,2.484-6.124,2.484-2.311,0-4.314-.829-6.008-2.484-1.695-1.656-2.542-3.678-2.542-6.066,0-2.311.847-4.313,2.542-6.008s3.697-2.542,6.008-2.542c2.387,0,4.429.829,6.124,2.484,1.693,1.657,2.542,3.679,2.542,6.066Z"/>
    </g>
  </g>
</svg>