<?xml version="1.0" encoding="UTF-8"?>
<svg id="Layer_1" xmlns="http://www.w3.org/2000/svg" version="1.1" viewBox="0 0 925 1085" width="925" height="1085">
  <!-- Generator: Adobe Illustrator 29.1.0, SVG Export Plug-In . SVG Version: 2.1.0 Build 142)  -->
  <path d="M852.8,453.9h.4c1.4,2.8,3.5,5,5.7,7.1-1.4,25.1-9.5,49.7-13.7,74.5,35.4-1.8,54.4-3.9,26.6,34.2-13.9,22.5-27.4,45.2-41.6,67.5-7.4,10.4-12.3,24.1-23.3,31.3-24.4-1.6,7.6-71.6,3.8-85.9l-1.8,1.3-.5-.9v1.2c-2.8-5.4-21,0-27.5-3.3-16.8-6.9,16.6-42.2,21.1-52.7,8.7-14,17.6-28,26.4-41.9,6.6-8.3,14.1-28.4,24.3-30.7l.2-2.1Z" fill="#d80000"/>
  <path d="M834,511.6c-5.2,38.3-24.6,43,27.9,39.2-12.3,20.6-24.4,41.5-37.5,61.5-2.7-4.9,10.6-36.6,6.1-45.5-4.1-3.3-25.4-1.7-32.1-1.8,11.7-17.8,22.1-36.9,35.4-53.5Z" fill="#e2ba1e"/>
  <path d="M893.1,630.7c18.2.2-2.3,52.5-1.5,65,6.2.3,17-2.6,20.5,3.8-3.9,19.3-18.6,35-28.1,51.9-6,6.9-23.3,50.8-33.7,35.8-1.2-2.9-1.7-6.2-2.6-9.3.5-.9,1.2-1.5,2-2.1,2.8-13.9,5.5-29.2,6.1-43.3h-1.6s.8,1.9.8,1.9l-.8.6c-33.3,1.7-14.4-19.4-5.2-35.8,7.9-14.5,30-47.7,36.4-62.4l.2.2c1.1-3.3,4.5-4.5,7.4-6.4Z" fill="#d80000"/>
  <path d="M876,686.4c2,2.4-.4,20.2-.4,24.7,3,0,8.4-.1,10.7,2-4,11.1-10,22-14.8,32.8h-1.4c.5-12.2,9.1-29.3-11.1-27,3-10.9,11.6-22.4,17-32.5Z" fill="#e2ba1e"/>
  <path d="M272.3,90.1c13.9,5.9,64.7,50.3,76,65.1-1.6,8.8-17.1,8.3-24.2,10,6,7.2,15.7,12.5,20.7,20.4,4.4,5.5,0,15.6-7.5,11.9-14.6-7.9-34.2-21.9-47.9-31.9-2.8-2-9.4-6.8-9.7-10.6,2.1-6.9,23.8-4.6,30.2-5.6-11.6-16.4-27.4-29.9-39.4-46.1-4.5-4.8-4.7-10.5,1.8-13.2Z" fill="#e2ba1e"/>
  <path d="M298.4,267.5c4.3-.7,11.8-1.4,11.8,4.8-.6,6.3-12.7,12.1-17.1,16.4,4.8,3.9,12.1,5.3,15.8,10.2l-.3,1.8c-4.6,5.8-39.5,13.4-44.8,8-.4-6.2,7.8-12.4,10.9-17.6-9.9-1.8-26.1.7-32.2-8.7,3.6-8.3,46.8-13,55.9-14.9Z" fill="#e2ba1e"/>
  <path d="M636.9,266.6c23.3,2.5,96,16.7,27.1,25.4,2.4,5.2,15.7,12.6,8.3,18.1-5,1.3-40.3-2.9-41.8-10,1.9-6.4,11.1-6,13.7-11.8-1.9-8.4-25.2-13.8-7.2-21.7Z" fill="#e2ba1e"/>
  <path d="M217.7,196.6c7.1.3,68.8,20.7,73.4,24.6,4.4,4,1.5,10.1-2.6,13-6,1.1-68.9-22.1-73.4-26.1-4.1-3.9-1.6-9,2.6-11.5Z" fill="#e2ba1e"/>
  <path d="M718.4,196.8c4-.3,9.1,3.5,7.2,7.8-9.2,10.8-26,12.2-38.7,17.5-11.2,3.9-22.2,8.5-33.6,11.8-6.2,0-9.9-6.9-6.3-12,3.3-5.2,62.4-22.9,71.4-25.1Z" fill="#e2ba1e"/>
  <path d="M576.4,35.5c4.5-.6,10.3,1.1,9.9,6.6-.3,7.8-26.7,54.3-32.7,60.4-28.1,6.2,18.1-61.6,22.8-67Z" fill="#e2ba1e"/>
  <path d="M357.7,35.5c10.4-6.1,37.6,57,38.8,60.8-.3,2.9-2.7,4.6-4.8,6.4-11.1,5.1-36.3-54-38.1-60.4,0-2.9,2.1-4.9,4.1-6.8Z" fill="#e2ba1e"/>
  <path d="M469,6.1c2.8.2,5.6.6,7.3,3.1,2.2,3.3,3.5,55.2,2.3,61.4-.6,3-2.8,4.4-5.1,6.1-16.9,3.1-8.3-52-8.7-62.5.5-3.9,1.1-5.6,4.3-8.1Z" fill="#e2ba1e"/>
  <path d="M384.3,215.3c100.7-149.3,73.2-151.5,174.4.5,43-14.4,35.2,45,40.4,68.6,8.8,21.1,9.3,44.2,1.7,65.9,69.6,2.1,85.7,79.2,48,127.9,77.6,124.3,174.5,282.8,250.8,406.7,10.4,17.8,36,46.6,9.1,61.7-31.5,7.5-65.7,1.4-98,3-68.2-1.5-203,2.6-269.3-1.1-9.9,15.7-79.6,120.8-95.6,129.9-46.2,8.2-3.6-65.5-2.2-87.6-7.5,6.3-25.6,10-34.8,7.8-19.4-8.7,2.4-36.8,6.1-50.3-63.1,4.2-196.7-.3-261.8,1.3-27.2,0-54.8,1-82-.2-18,1.3-31.9-15.9-24.3-32.9,72.1-123.3,146.8-246.4,221.7-368.2-27.1,24-66.4,38.5-93.8,6.8-13.9-15.6-15.7-36.5-25.9-53.9-18.9-6.5-40.5-7.7-53.7-24.6-25.8-29.9-8.5-62.9-24.5-89.8-11.3-19.1-35.2-19.7-54.8-18.1-18.8-.4-12.6-19.5-.6-26.5,40.4-31.1,96.8-39.8,145.4-25.7,28,7.8,53.7,24.4,82.8,27.9,35.4.7,64.5-15.4,99.8-4.3-3.9-13.9-3.2-32.3.4-46.1,4.2-8.3,5.3-16.8,4.5-26-.5-22.7,3.9-63.4,36.2-52.7Z" fill="#023d42"/>
  <path d="M266.5,662.6h210.1c0,0,0,180,0,180-27.8-5.3-28.6,34.6-40.3,51.2-7,2-88.3,2.8-99.7-.4-7.5,3.8-46.5.9-58,1.3-37.5-1.3-117.1,2.6-153.2-1.3,32.8-47.8,106.3-176.1,141.2-230.9Z" fill="#48812d"/>
  <path d="M327.3,704c9.3-.2,28.3-2.9,35.8,3.4,3.5,44.2,2.1,93.2,1,137.3-1.2,11.4-36.6,9.4-42.3,3.9-4.2-30.5-1-61.9-1.6-92.6,1.5-11.9-6.1-48.3,7.1-52Z" fill="#023d42"/>
  <path d="M329.4,713.4h25.8c.9,42.7.2,85.6,0,128.4-2.6,3.1-21.1,1-25.8,1v-129.4Z" fill="#d80000"/>
  <path d="M492.8,662.5h203.9c40,61.5,102.7,170.4,143.3,231-4,2.3-11.9,2-15.7-.1-6.4,2.5-276.5,2.8-301.4.4,23.2-43.4,25.9-55.6-30-51.1v-180.1Z" fill="#e2ba1e"/>
  <path d="M569.1,703.9c27.9,1.2,62-7.8,83.9,14,19.6,21.3,14.6,56.3-7.2,74,5.5,8.3,25.3,43.8,23.3,51.8-3.5,11.6-17,7.9-26.3,8.3-4.9-.1-11.4,1.3-15.3-2.4-5.9-7.1-14.8-27.8-19.9-37.3-.7,11.3,5.9,38-10.6,39.5-8.6.5-25.6,2.4-32.3-3.5-3.9-32.6-.8-66-1.5-98.8,1.3-11.4-5.5-40.4,5.7-45.7Z" fill="#023d42"/>
  <path d="M572.5,712.8c25.1,1.3,60.8-8,77.2,16,13,20.7,4.5,49.3-16.9,60.6,9.1,15.7,22.3,36.7,28.1,53.4-6.9.6-18.3,2-24.9,0-3.1,1.2-27.4-51-29.4-53.4-2.9,0-5.8.1-8.7.3v53.4c-8.4-.6-17-.3-25.4-.4v-129.8Z" fill="#d80000"/>
  <path d="M598,733.3c13.7-1.9,32.2,1,33.2,17.9,1.4,19-18.5,22.3-33.3,20.8,0-12.9,0-25.8,0-38.7Z" fill="#023d42"/>
  <path d="M607.3,742.6c19-1.2,18.5,20.9,0,20.2v-20.2Z" fill="#e2ba1e"/>
  <path d="M437.3,422.8c1.8-.1,3.7-.6,5.3.4-3.9,14.4-22,29.8-19,46.1,7.1,11.9,35.5.3,45.1-3.1,17.2-8.3,31.6-21.2,38-39.5,13,9.1,32.4,7.1,47.3,4.9,44.9,71.2,90.3,146,134.9,217.5-104.5-1-308.6,2-412.4-.7v-1.7c46.3-73.6,89.7-149.2,137.2-222.1,8.2.6,15.5-.5,23.6-1.8Z" fill="#10665b"/>
  <path d="M434.1,481.1c20.8-.5,58.6-.9,79-.1,17.1-1.6,11.3,23.4,11.2,33.9-2.2,2.8-4.1,5-7.1,7-15.1.3-30.2-.1-45.3-.2v9.9c13.9,1.5,45.6-7.1,45.2,13.7,5.4,37.5-16.5,30-44.4,30-.2,4-1.6,7.9,1.1,11.2,15.1,2.2,40.6-5.8,51.8,5.5,3.5,9,5.2,33.2-6.6,37.4-16.5,1.1-33.5.4-50,.4-13.1-1.1-33.2,5.6-41.2-7.9-1.4-24.3-.2-49.3-.3-73.7,1.7-16.4-6.5-57.5,6.5-67Z" fill="#023d42"/>
  <path d="M436.8,490.3c26.2-.9,52.6-.2,78.9-.2v21.7c-17.4.7-35.6-1.4-52.9.9v28.4c14.7.4,29.6,0,44.4,0,.8,8.1.6,16.3,0,24.5-14.7.6-29.6.2-44.4.4-.2,7.1-.1,23.2,0,30.4,18.3-.4,36.6,0,54.9,0v24c-26.9.9-54.1.5-80.9,0-.7-43.3-.5-86.8,0-130.2Z" fill="#d80000"/>
  <path d="M108.3,330.6c48.9-4.6,88.6,28.1,135,35,37.3-.3,82.1-19.9,115,7,8.8,9.4,16.5,20,27.1,27.7-102.5-55.5-132,50.3-224.5,27.1-6.5,4.3,5,11,8.6,13.1,40.2,22.8,76-7.9,112.7-21.2-23.4,18.6-39.1,35.4-55.2,61.4-3.5,4.6-13.4,10.6-14,16.1,18.5,15.6,46.1-29.4,61.9-37.7-6.8,12.2-18.6,30.9-27.3,41.5-4.2,5.2-13.9,12.8-16.5,17.4.5,19.3,37.4-13,44.2-16.8-11.2,26.4-36.4,51.1-66.5,51.2-33.8-1.3-26.9-45-42-62.3-16.9-19.4-50.1-8.1-62.7-35-13.5-28.9,5.7-57-22.9-88-11.1-12-25.6-17.1-41.6-17.8,22.2-9.1,44.5-17.5,68.8-18.7Z" fill="#d80000"/>
  <path d="M374,413.9c7.4,3,14.7,5.8,22.3,8.2-73.9,122.3-194.2,317.3-268.5,440.6-5.6,11.5-23.2,30.4-21.8,42.3,8.1,9.1,57.7,2.6,72.6,4.2,73.9-1.2,178.4,2.1,251.6-1-2.5,6-3.4,19.4-12,18.9-32.6-1.7-346.5,5.2-349.4-2.8,91.2-167.2,208.7-345.7,305.1-510.4Z" fill="#e2ba1e"/>
  <path d="M374,413.9c7.4,3,14.7,5.8,22.3,8.2-2.2,4.5-5.2,10.2-8.5,14-7.6-1.9-14.9-4.7-21.2-9.4,2.4-4.3,4.8-8.6,7.3-12.8Z" fill="#b0891c"/>
  <path d="M588,422.4c56.7,81.4,154,249.3,209.4,335.4,27.5,43.5,53.7,87.7,81.1,131.3,6.6,11.9,17.7,23.4,19.7,37.1-81.4,3.3-244.5-.3-327.6,1-12.2-.7-27.3,3.8-36.7-6.1-5.1,1.8-21.2,1.9-25.8-.7,2.9-2.3,4.7-8.8,5.9-12.2,80,3.7,238-.3,320.3,1.1,8.5-.8,21.6,3.8,27.1-4.6-57.1-104.4-228.3-369.2-291.8-475.7,6.2-2.1,12.4-4.2,18.5-6.6Z" fill="#e2ba1e"/>
  <path d="M364.1,301.6c38.4,25.8,71.2,19.1,110,.2,7.7-.3,17,7,24.2,9.8,27.8,12.3,59.8,8.7,84.2-9.2,15.1,71.2-67.4,116.4-129.3,102.5-49-7.6-101.3-48.7-89-103.3Z" fill="#e2ba1e"/>
  <path d="M431.5,337.7c8.9,1.1,15.3,9.1,22.7,13.5,12.5,7.4,28.9,7.9,41-.5,7.6-4.8,16.4-16.1,26.2-11.1,7,9.6-4.1,19.6-11.7,24.6-13.8,9.5-31.7,12.3-47.9,9.1-13.3-1.2-51.7-21.7-30.3-35.6Z" fill="#023d42"/>
  <path d="M470.6,859.2c11.1-.5,37.2-1.4,47.2.3,1.7,4.5-3.7,8.9-5.1,13.1-9.3,21.7-22,42.6-30.6,64.4,4.3,11,35,1.9,40.9,5.3v1.7c-13,18.5-27.7,36.1-40.2,54.9-4.7,6.3-20.3,32.6-25.4,35.2-2.1,5.1-9.2,17.4-14,19.4,7.3-11.5,21-70,21.8-79.1-1.1-2.2-2.6-3.1-4.7-3.9-10.1-.4-26.7,8.2-35.9,7l-.2-1.4c16.2-31.9,29.1-85.5,46.3-116.9Z" fill="#00bcd6"/>
  <path d="M470.9,125.9c13,10,19.8,27,29.6,40.1,12.3,18.3,25,36.4,36.8,54.9-8.9,1.4-17.7,2.9-26.4,5-11.8,2.9-25.7,8.3-37.7,8.6-22.4-5.4-43.8-11.7-66.7-14.8,21-30.6,41.2-65.4,64.5-93.9Z" fill="#e2ba1e"/>
  <path d="M590.7,370.7c59.1-6.9,68.6,47.4,46,90.7-5.1-8.3-14-20.6-17.3-29.2,13.2-.2,13.3-12.5,6.4-20.8-25.7-28.1-63.6,9.8-94.1,5.8l-.3-.7c24.6-8.1,45.8-23.4,59.4-45.8Z" fill="#d80000"/>
  <path d="M477,422.1c4.3-.7,9-.4,13.3-.5-4.9,20.6-27.7,30.3-46.4,34.6,7.5-13.7,15.3-32.8,33-34.1Z" fill="#d80000"/>
  <path d="M418,262.8c19.9-2.3,24.3,27.2,4.7,31.1-19.3,1.1-22.4-25.6-4.7-31.1Z" fill="#00bcd6"/>
  <path d="M522.6,263.6c18.9-4.5,26.6,22,9.4,29.7-19.1,3.9-26.2-21.5-9.4-29.7Z" fill="#00bcd6"/>
  <path d="M133.2,604.6c13.7,2.9,7.3,22.7,7.9,32.8-.4,11.6.3,23.4-1.4,34.8.3,6.1,22.4-1.5,20.6,9.7-.6,6.3-46.6,88.8-49.6,91.2-2.2,1.8-5.2,1.5-7.8,1.2-13.8-12.3,4.4-43.4,1.4-59.4-.9.7-1.5,1.1-2.5,1.5l-.7-1.5,1.3-1.8c-5-2-10.6,1.9-15.8-1.1-6.2-10.7,19.2-49.6,23.3-63.1,7.5-14.4,9.6-34.4,23.2-44.3Z" fill="#d80000"/>
  <path d="M124.2,659.3c2.4,7.7,0,21.3.2,29.8,3.3,1,8.8.5,10.7,3.6.6,4.3-11.9,29.8-14.9,34.5-.8-8.3-.2-16.9-.4-25.3l-11.9-4.1c4.8-13.1,9.4-26.5,16.3-38.6Z" fill="#e2ba1e"/>
  <path d="M617.6,165.4c-7-3.3-29.6-.6-23.9-12.9,5.4-6.5,66.8-66,75.2-61.4,7.9,16.3-31.6,41.3-38.7,57.1,8.3,4.3,23.2-1,29.6,6.7-.4,7.3-58,48.4-64.8,42.2-2.4-3.4-2.5-7.3-.2-10.8,3.3-1.9,19.5-17.4,22.9-20.9Z" fill="#e2ba1e"/>
</svg>