<?xml version="1.0" encoding="UTF-8"?>
<svg id="Layer_1" xmlns="http://www.w3.org/2000/svg" version="1.1" viewBox="0 0 980 940">
  <!-- Generator: Adobe Illustrator 29.1.0, SVG Export Plug-In . SVG Version: 2.1.0 Build 142)  -->
  <defs>
    <style>
      .st0 {
        fill: #524612;
      }

      .st1 {
        fill: #95ced4;
      }

      .st2 {
        fill: #d60000;
      }

      .st3 {
        fill: #3b3a3c;
      }

      .st4 {
        fill: #f08b20;
      }

      .st5 {
        fill: #d5bd2b;
      }

      .st6 {
        fill: #fff;
      }

      .st7 {
        fill: #f9ae1d;
      }

      .st8 {
        fill: #d59595;
      }
    </style>
  </defs>
  <g>
    <path class="st6" d="M380.7,924.1H0s0-370,0-370c0,0,237.7-63.5,380.7,0s286.4,189.6,0,370Z"/>
    <path class="st6" d="M980,920.9h-254c-225.2-200.8-275.5-265.4,0-370h254s0,370,0,370Z"/>
    <path class="st6" d="M980,833.4h-154.9c-82.2-164.2-205.3-294.1,0-370h154.9v370Z"/>
    <path class="st6" d="M269.2,829.6H0v-363.4h269.2c207.9,113.3,112.8,238,0,363.4Z"/>
    <rect class="st6" x="696.7" y="528.9" width="79.4" height="66.8" transform="translate(-189.1 606.1) rotate(-40.1)"/>
    <path class="st6" d="M980,825H0v-230.8c407,36.6,786.7-25.7,980,0v230.8Z"/>
  </g>
  <path class="st3" d="M583.6,67.6c1.4.2,2.3.7,3.2,1.8,4,5.2,1.3,17.2.6,23.2l6.3.9c.6-5.6,1.4-11.7,3.7-16.8,1.2-2.6,2.8-5.5,5.6-6.6,1.1.3,1.4.4,2.1,1.4,3.1,4.6-1,18.5-2.3,23.7,6.2,1.6,11.8,3.8,17.5,6.8,2.6-5,6.5-9.3,10.9-12.8,11.7-9.3,20.6-9.8,33.2-14.8,3.4-1.3,6.7-5,10.5-4.5.9.6,1.4,1.1,2,2,6,10.6,5.7,29.2,2.2,40.5-3.6,11.8-10.4,19.7-21.2,25.5,6.6,10.7,9.5,22.5,11.6,34.7.8,4.4,1.3,9.1,2.6,13.3,1.1,3.5,4.1,7,6.1,10.2,5.8,9.3,8.7,21.5,8,32.4-1,16.1-9.2,27.8-20.9,38.2,12.2,10.1,17.2,25.1,22.8,39.4,8.5-7.6,15.8-16.6,24.6-23.8,6-4.9,14-9.5,22.1-8.5,3.2.4,6.3,1.9,8.2,4.5,1.9,2.5,2.1,5.5,1.5,8.5-2.6,14.4-23,31.3-34.4,39.3,3.2,5.8,5.5,11.8,6.4,18.4,1.6,12.4-2.6,24.3-10.1,34-14.7,18.9-38.4,29.2-61.6,32.2-2.3,8.1-6.3,16.1-10.3,23.6,18.7,14.9,24.4,42.1,18,64.6-2.2,7.7-8.4,14.5-6.3,23,3.6,14.6,22.9,27.6,34.9,35.2,16.2-12,32.1-24.3,46.9-37.9,5-4.6,9.3-9.9,14-14.8,2.7-2.8,5.5-5.6,8.4-8.2,2.9-2.6,6-5.1,9.1-7.5,3.1-2.4,6.4-4.6,9.7-6.7,3.3-2.1,6.7-4.1,10.2-5.9,47.8-25,104.6-19.5,156.6-18,6.1.2,32.6,0,36.3,1.4,1.5.6,2.2,1.3,2.9,2.7,0,1.4-.5,2.5-1.4,3.6-1.3,1.6-5.3,1.8-7.2,2-12.1.8-24.5.4-36.6.3-31-.3-62.2-1.9-93.2.3-8.1.6-15.5,1.9-23.3,4.3-71.5,22.5-108,105.4-185.8,119.8,26.9,7.1,48.7,7.7,75.9.9,1.7-11.2,1.1-23.3,7.2-33.3,1.9-3.2,4.3-5,8-5.8,10.5-2.3,34.4,5.9,42.6,12.3,5.6,4.3,10.1,10.5,16,14.4.1,0,.3-.1.4-.2,2.7-2.3,2.8-13.5,3.2-17.1.9-7.8,2.6-17.1,9.2-22.3.1-.1.3-.2.4-.3,3.2-.7,6.1-.9,9.3-.5,10.9,1.2,19.9,8.4,26.6,16.7,9.4,11.7,15.1,26,13.5,41.1.9.7,1.7,1.4,2.6,2.1.8.7,1.7,1.4,2.5,2.2.8.7,1.6,1.5,2.4,2.3.8.8,1.5,1.6,2.3,2.4.7.8,1.5,1.6,2.2,2.5.7.8,1.4,1.7,2.1,2.5.7.9,1.3,1.7,2,2.6s1.3,1.8,1.9,2.7c.6.9,1.2,1.8,1.8,2.8.6.9,1.1,1.9,1.7,2.8.5,1,1,1.9,1.5,2.9.5,1,1,2,1.4,3,.5,1,.9,2,1.3,3,.4,1,.8,2,1.2,3.1.4,1,.7,2.1,1.1,3.1.3,1,.6,2.1.9,3.2,1,3.6,1.7,11.2,3.3,14,1,1.8,3.3,3,4.4,4.8,1.2,1.9.4,3.8,0,5.9-1.8,7.8.9,20.5,2.1,28.5,6.3,4.5,12.7,5.6,20.3,5.6,2.7,0,5.5,0,8.2.6,4.4,1.2,7.7,4.5,9.9,8.4,5.1,9,4.7,20.9,2,30.6-2.7,9.5-8.5,19.4-17.4,24.3-6.1,3.3-12,3.3-18.4,1.4-1.5,1-3.1,2.1-4.8,2.8-17.4,7.3-39.2-7-54.7-13.7.4,2.5.9,4.8,1.6,7.2,6.2,6,13.5,10.7,19.5,17-1.6,1.3-3.4,2.5-5.1,3.6-20.1,13.3-43.8,16.1-67,11.5,9.7,9.7,41.7,29.9,55.5,31.7,7.9,1,16.2-.7,24.2-.5,8,.2,24.7.7,30.2,6.9,1.1,1.2,1.5,2.6,1.4,4.2-.5,5.6-6.6,10.7-10.6,14.1,1.1,1.3,2.2,2.7,2.7,4.4.5,2.1,0,4.4-1.2,6.3-3.9,6.4-21,12.4-21,12.4,0,0-20.5,1.4-29.8-2.4-4.1-1.7-8.1-4-12.3-5.4-5.9-2.1-12.4-2.5-18.4-4.6-17.7-6.2-33.7-16.9-49.6-26.6,11.8,21.4,20.6,26.7,40.8,38.6,6.1,3.6,12.2,7.5,17.4,12.4,3.1,2.9,6.6,6.9,6.6,11.3,0,1.6-.5,3-1.8,4.1-3.2,2.7-8.7,2.4-12.6,2.3.2,1.1.3,2.4.1,3.6-.2,1.7-1.3,3.2-2.6,4.2-5.9,4.6-18.8,3.3-25.7,2.2-3.5-.6-7-1.4-10.2-3-6.2-3.1-11.4-7.8-17-11.7-6.6-4.5-20-13.9-20-13.9,0,0-13.3-22.2-22.7-31.3-12.5-12.1-29.2-20.9-39.5-35.2-9.7,4.1-19.8,6.1-30.1,8.3,9.4,5.2,17.6,10.7,25.4,18.1,23.3,22,39.6,53.3,70.7,65.8,3.5,1.4,7,2.6,10.7,3.3,18.7,3.5,44.2,3.3,63.5,3.5,32.9.3,65.7-.5,98.6-1,17.9-.3,35.8-.2,53.6.3,4.5.1,16.2-.4,19.6,1.5,1.1.6,1.7,1.3,2,2.6.3,1.2-.4,3.2-1.2,4-1.6,1.6-4.2,2-6.4,2.2-5.7.3-11.6-.1-17.3,0h-46.2s-134.4.2-134.4.2c-41.8,0-65.4-10.4-92.6-42.4-9.1-10.7-17.7-21.8-27.7-31.8-16.4-16.3-32-23.7-55.2-23.7-4.6.4-9,.7-13.4,2.2-1.7,2.1-3.2,4.2-5.5,5.7-4.7,3.1-10.4,3.7-15.8,2.4-6.5-1.5-11.2-5.5-14.6-11.1-43.3-4.1-62.1,20.8-87.6,50.3-5.7,6.6-11.4,13.4-17.9,19.2-1.4,1.2-2.8,2.5-4.3,3.6-1.5,1.2-2.9,2.3-4.5,3.4-1.5,1.1-3.1,2.2-4.6,3.2-1.6,1-3.2,2-4.8,2.9-1.6.9-3.3,1.8-4.9,2.7-1.7.9-3.3,1.7-5.1,2.4-1.7.8-3.4,1.5-5.2,2.2-1.7.7-3.5,1.3-5.3,1.9-13.7,4.6-28.2,6.4-42.6,7.1-24.3,1.1-48.6-.6-72.9-.7l-175.3.4c-20.3.2-40.7,0-61-.3-8.4-.1-16.9.2-25.2-.3-1.5,0-3.3-.1-4.6-1-1.5-1-2.1-2.5-2.5-4.1.2-.8.1-1.3.7-2,2-2.1,6.9-2.6,9.7-2.8,10.2-.8,20.7.3,30.9.4,18,.2,35.9-.2,53.9.1-6.5-7.7-12.5-15.7-18.9-23.5-5.4-6.6-11.7-12.8-16-20.1-2.3-3.8-3.6-7.5-4.7-11.8,3.7-8.7,9.7-15.3,12.4-24.7-3.9-6.5-9.9-11-15.1-16.5-7.9-8.3-14.3-18-19.4-28.3-6,3.7-12,6.3-18.5,8.9-2.9,5.1-6.3,9.4-11.6,12.2-3.3,1.7-6.4,2.6-10.1,1.5-1.1-1-1.1-1-1.4-2.5,1.3-5.3,7.9-9,12.1-12-3.1-2.1-5.9-4.3-8.1-7.5-3.6-5.2-5.7-12.8-4.5-19.1.7-3.4,2.4-6.3,5.3-8.3,3.1-2.1,7.3-2.7,10.9-2,4,.8,7.3,3.6,9.4,7,3.9,6.3,3.7,13.1,2,20.1,3.8-2,7.4-4,11-6.4-12.9-30-15.9-62.4-10.5-94.5,9-53.5,43.2-106.6,87.3-138-6.1-13.2-11-30.9-9.4-45.5.3-2.6,1-5.9,3.3-7.6,4.9-3.6,25.1-.7,31.6,0,.2-3,.5-6.4,1.7-9.2,1-2.4,2.6-4.4,5.1-5.3,6.5-2.2,15.8,3.9,21.4,6.9,0-3.9,0-7.6.9-11.4,1.6-1.8,2.9-3.3,5.2-4.1,5.5-1.8,11.9.8,16.8,3.4,14.6,7.8,22.2,17.3,27,32.8,54.3,11.6,53.7,56.1,73.8,64.2,8.7,3.5,18.8-1,26.9-4.3,1.6.4,3.3.8,4.8,1.4,6.9,2.7,11.8,8.3,14.7,15,4.7,10.7,5.2,24.5.8,35.4-2.7,6.6-9.8,14.8-17.4,15.3-1.5,0-5.6-.7-6.8-.2-1.7.6-12.7,14.3-15.1,16.6-9.7,9.4-20.8,15.6-33.1,20.8.4,3.3.5,6.7.7,10,5.7,0,11.4.7,17.1.8,16.2.5,40.4.6,56-2.5,17.3-3.4,21.1-16.5,43.4-16,5.4-16.7,14.7-33.9,26.1-47.3,9-10.5,20.3-17.8,33.2-22.7,3.4-1.3,7-2.7,10.7-3,.8,0,.3.1,1.1-.6-1.4-2-15.9-5.1-19.2-6-20.3-5.8-38.4-15.1-56.1-26.5-24.5-15.8-44.9-37.6-66.8-56.6-11.7-10.2-24.3-20.4-38.4-27-12.7-5.9-26-8.7-39.8-10.2-21.9-2.4-44.3-.8-66.4-.8H45c-7.2,0-29.4,1.4-34.9-1.1-1.5-.7-2-1.5-2.5-3,0-.9.1-1.7.6-2.4.7-1.2,2-1.8,3.3-2.2,5.4-1.5,33.7-1.2,41-1.2,34.1,0,68.1.1,102.2.5,30.1.2,60.9-2.3,90.9,1.1,14.6,1.7,29.1,5.4,42.2,12.4,24.3,13,44.2,33.7,64.5,51.9,13.5,12.1,27.3,23.2,42.8,32.6,4.3-17.2,14.2-36.8,24.2-51.5-7.2-11.4-9.4-25.8-9.8-39-6,2.9-12.1,4.9-18.8,5.3-6.4.4-14.4.2-19.4-4.4-3.7-3.4-4.4-7.5-4.7-12.2-2.2-1.5-4.6-3.1-6.5-4.9-3.4-3.1-5.5-7-5.5-11.7,0-3.3,1.1-6.7,3.5-9,1.3-1.2,3.1-2.1,4.9-2,.9,0,1.9.5,2.4,1.2,2.4,3.3-.5,11.1-1.2,14.9,3.8-2.9,7.7-5.9,12.1-7.7,4.1-1.6,8.9-2.2,13-.3,2.7,1.3,4.9,3.5,5.9,6.4.9,2.8.6,5.9-.7,8.5-2.7,5.3-8.1,7.9-13.4,9.8,4.5,1.6,8.8,2.3,13.5,1.4,11.1-2,19.3-10.9,21-21.9,1.1-7.3-1.5-15.6-2.1-22.9-2.2-27.1,4.4-54.1,20.3-76.2-.4-4.5-.6-8.9-.6-13.4,0-4.5.3-9,.8-13.4.1-1.1.3-2.2.4-3.3.2-1.1.3-2.2.5-3.3.2-1.1.4-2.2.6-3.3.2-1.1.4-2.2.7-3.3.2-1.1.5-2.2.7-3.3.3-1.1.5-2.2.8-3.2.3-1.1.6-2.1.9-3.2.3-1.1.6-2.1,1-3.2.3-1.1.7-2.1,1.1-3.2.4-1.1.7-2.1,1.1-3.1.4-1,.8-2.1,1.2-3.1.4-1,.8-2.1,1.3-3.1s.9-2,1.4-3c.5-1,.9-2,1.4-3,.5-1,1-2,1.5-3,.5-1,1-2,1.6-2.9.5-1,1.1-1.9,1.6-2.9.6-1,1.1-1.9,1.7-2.9.6-.9,1.2-1.9,1.8-2.8s1.2-1.9,1.9-2.8c.6-.9,1.3-1.8,1.9-2.7.7-.9,1.3-1.8,2-2.7.7-.9,1.4-1.8,2.1-2.6.7-.9,1.4-1.7,2.1-2.6.7-.8,1.4-1.7,2.2-2.5.7-.8,1.5-1.7,2.2-2.5.8-.8,1.5-1.6,2.3-2.4.8-.8,1.6-1.6,2.4-2.4.8-.8,1.6-1.5,2.4-2.3.8-.8,1.6-1.5,2.5-2.2.8-.7,1.7-1.5,2.5-2.2.9-.7,1.7-1.4,2.6-2.1-.3-3.3-.4-6.6-.5-9.9-.7-27.6,4.8-51.1,24.3-71.5-1.9-1.8-3.6-3.6-5.3-5.5-12-13.5-16.6-29.8-18.2-47.4-.3-3.7-1-7.6-.7-11.3.2-2.1.6-4.5,2.4-5.9,3.1-2.4,13.5-1.6,17.5-1.1,19.4,2.4,37.2,13.6,49.2,28.8,7.9-3.2,16.2-4.5,24.5-6,.2-9-.5-18.2,6.1-25.2ZM265.3,748.1c-2.2,12.3-5.4,24.2-11.2,35.3-3.3,6.3-7.2,12.3-10.6,18.6,7.6,6.4,10.9,13,11.7,22.9.7,7.9.3,16.1,2.6,23.7,4.8,15.7,29,26.3,35.5,41.3,1,2.4,1.3,5-.4,7.1-3.9,5-14.7,5.9-20.5,6.3-13.4,1-18.6.3-30.2-6.3-3.9,1.2-6.1,1.5-9.9-.5-15.1-8.2-27.3-39.9-45.1-49.5-20.9,4.3-34,17.8-52.6,26.8,8.9,8.9,16.2,19,23.9,28.9,3.8,4.9,7.6,10,12,14.4,45-1.9,89.9.9,134.9.8,15.3,0,30.5-.4,45.7-1.5,6.3-.4,12.9-.6,19.1-1.7,9.5-1.2,19.2-2.2,28.1-5.7,43-16.8,58.7-72.3,102.2-85.8-10.9-2.6-21.1-5.1-31.3-9.7-7,5.2-14.2,9.7-21.4,14.6-5.6,17.9-12.8,51.9-30.9,61-2,1-4.1,1.4-6.3,1.8-4.1-1.5-7-3.6-8.9-7.7-1.8-3.7-2.3-8-3.2-12-1.9-.3-4.8-.5-6-2.1-3.2-4.1,2-22.8,3.5-28.2.2-.7.4-1.3.6-2-3.2.5-6.4.5-9.7.5-13.6,25.8-20,64.8-51.7,74.5-1.1.3-2.2.6-3.3.8-5.4-2.2-9.5-5.5-11.9-11-2.3-5.4-2.7-13-.9-18.6-1.9-2-3.7-3.8-5.2-6.1,2.5-13.3,11.3-21,15-33.2,3.8-12.7,2.6-29.1,8.9-40.5,2-3.7,5.5-5.8,8.8-8.1,16.9-11.8,19.1-20.8,21.4-40.6.7-5.7,2.8-13.1,1.5-18.7-1-.5-.5-.4-1.6-.3-33.7,8.1-68.3,9.3-102.8,10.5ZM570.4,486.9c-.2,10,0,20,0,30,0,5.3-.5,10.5-.5,15.8,0,4.7.7,9.3.8,14,0,4.3-.3,8.6-.3,12.9,0,7.2.6,13.2-1.4,20.3,4.2,1.4,6.6,2.8,9,6.6v6.3c15.9-1.1,32.2-3.9,47.7-7.8l10.5-2.6c-12.4-3.3-22.5-8.9-29.2-20.2-15.5-26.3-4.2-57.4-36.6-75.2ZM540.2,492.2c-11.8-3.2-24.4-1.5-36-4.7-7.7,26.6-25.3,39.6-46.3,55.5,2.4,10.2,3.7,26.9,8.3,35.6,1.5,2.9,3.8,5.3,6.6,7,8.2,5,19.7,5.1,29.1,5.8,11.3.8,22.6,2.8,33.9,2.9,1.2-5.6,3.4-11.7,4-17.4.5-5.1-.2-10.2-.3-15.3,0-3.8.4-7.6.2-11.4-.2-3.3-.8-6.6-.8-9.9,0-4.4,1.2-8.8,1-13.2-.2-4.1-1.3-8.2-1.3-12.4,0-7.5,1.4-15,1.6-22.6Z"/>
  <path class="st8" d="M153.7,492.1c11.6,4.3,21.5,11.4,31.5,18.5,1,2.5,1.9,5.5,4,7.3,3.9,3.6,9.4.8,14,.7,27.6-.9,48.3,11.7,62.8,34.5,5.4,8.5,10.5,18.5,17.9,25.3,6.7,6.2,13.7,7.6,22.6,7.2-3.1,9.2-5.7,18.7-4.5,28.6,1,8.5,4.9,14.3,11.5,19.5-2.8,1.8-5.8,3.3-9,4.3-11.7,3.7-22.7-.4-33.1-5.8.9-2.9,1.9-5.1.6-8-.6-.4-.8-.7-1.6-.6-3.6.5-9.3,7-11.6,9.7-1.2,1.5-2.6,3.3-2.5,5.3.5.6.6.9,1.4,1.1,3,.8,5.7-.8,8.1-2.4,1.1.8,2.2,1.5,3.4,2.3,10.2,6.7,20,9.9,32.1,7.4-11.3,10.3-24.2,17.7-38.7,22.7,0,5.4.8,10.9,1.3,16.2-1.1-.2-2.3-.4-3.4-.5-2.2-.2-5,0-6.6,1.9-.9,1-.7,1.4-.6,2.6.6.8,1,1.4,1.9,1.9,3.5,2,8.6,2,12.6,2.5,19.8,2.5,38.9,2.5,58.7,1.3,7.6-.4,15.7-.7,23-2.9,10.3-3,18.6-11.1,29-13.6,3.7-.9,8.4-.9,11.8,1.3,4.2,2.8,4.8,8.5,5.6,13.1-3.6,2-9.5,3.4-12.3,6.5-.9,1-.9,1.6-.9,2.9.5.8.9,1.5,1.7,2,2.6,1.8,7.5.5,10.5-.1,2.5,1.4,4.9,2.9,6.4,5.4,1.5,2.6,1.9,5.5,1.1,8.4-1.1,4-4.1,7.3-7.7,9.4-8.9,5-17.9,1.2-26.8-1.2-14.5,4.5-29.5,6.2-44.6,7.8-19.8,2.2-39.7,3.7-59.6,4.5-8.3.3-16.7-.2-24.9.5-3,.3-6.7.8-9.1,2.7-.9.7-.9.8-1,1.9.4.5.4.6,1,1.1,4.5,3.9,20.6,3,26.7,2.9-2.4,11.3-5.8,22-10.9,32.4-14,28.7-38.2,49.6-68.3,59.9,7.3-13.7,8.1-28.1,5.8-43.2-.8-3.2-1.6-7.8-3.9-10.3-.9-1-1.4-1.1-2.7-1.1-.8.4-1.2.7-1.8,1.4-.7.8-1.5,2.7-1.3,3.8.2,1.6,1.6,3.7,2.1,5.4.8,2.2,1.3,4.6,1.6,6.9,3.5,22.5-10.8,43.2-29.6,54.1-7.1,4.1-17.3,6.8-22.2,13.5,2.6,9.3,10.1,15.6,16.2,22.7,3.9,4.6,7.6,9.3,11.2,14.1,1.7,2.3,4.6,5.2,5,8.1l-.9.5c-10.6.2-14.8-15.4-23.6-19.8-1.2-.6-1.8-.6-3-.2l-.4,1c1.2,6.7,9.6,14.6,13.7,20-9-1.8-18.3-1.5-27.4-1.5-6.6-7.1-11.6-15.5-17.4-23.3-7.5-10.2-15.8-19.2-21.8-30.5,3.1-7.9,9.7-15.5,10.5-24.1,1.1-11.4-13.7-19.1-20-26.8-23.9-28.9-32.6-68.7-29-105.4,5.7-58.5,39.5-111.1,84.2-147.8,5.7,7.6,14.2,14.2,22.8,18.1,2.6,1.2,6.5,2.8,9.3,1.4,1.1-.5,1.5-1.3,1.9-2.3-.7-4.8-11.3-7.8-15.1-10.1-2.6-1.7-5.1-3.9-7.2-6.1-13.8-14.5-16.5-34.1-16-53.2,21.4.1,47.6,4,62,21.4,3.2,3.9,5.9,10.9,10.1,13.6.8.5.8.5,1.8.3.3-.4.7-.9.9-1.4,1.2-3.1-1.7-7.5-3.3-10-7.1-10.5-13.1-16.6-24.5-21.9-3.6-1.7-7.6-3.2-10.9-5.5-1.4-1-2.4-3.3-3.3-4.8.9-1.8,1.8-3.6,2.7-5.4Z"/>
  <path class="st3" d="M253.1,577.7c1.1,0,2.2.3,3.2.5,2.8.8,5.1,3,6.5,5.5,2.1,3.9,2.4,9.1,1,13.3-1.2,3.8-3.4,6.1-6.9,7.9-.3,0-.5,0-.8-.1-3.7-.7-6.6-2.6-8.6-5.8-2.3-3.7-2.9-8.7-1.7-12.9,1.2-4.2,3.6-6.5,7.4-8.5Z"/>
  <path class="st0" d="M134.4,521.1c10.6.4,20.4,4.1,27.9,11.7,5.8,5.9,8.8,12.9,8.8,21.2-8.2-2.8-11.1-15.1-17.9-20.3-5.1-3.9-13-3.9-17.5-8.2-1.4-1.3-1.2-2.6-1.3-4.4Z"/>
  <path class="st0" d="M241.7,551.9c.7,0,1.4,0,2.1.2,1.6.3,3,.8,3.9,2.1-.5,3.8-7.3,5.9-9.8,8.3-1.8,1.8-3.5,4.6-4.9,6.7-.6.1-1.6.2-2.2,0-1.4-.4-1.5-.6-2.1-1.7,0-2.6,1-5.1,2.3-7.3,2.5-4.1,6-7.1,10.7-8.3Z"/>
  <path class="st1" d="M720.5,562.3c23,1.3,48.1,12.3,55.2,36.3,1.4,4.8.7,12.2,4.3,15.9,1.1.3,1.1.3,2.2-.1,1.3-1.3,1.9-2.6,2.3-4.4,1.7-7.7-1.8-15.9-5.8-22.4,15.4-.4,31,3.6,44.6,10.7,15.7,8.2,30.1,21.8,35.4,39.2.8,2.5,3.9,12.9,2.3,15.1-.7.9-1.8.8-2.5,2.1,1,5.4,7.2,7.3,9,12.5,1.1,3.3,1.1,7.4,1.4,10.9.6,8.4,1,16.2,3.8,24.2-.9.5-1.9,1.1-2.8,1.7-3.5,2.4-9.9,9-10.5,13.3-.2,1,.1,1.2.7,2,4.7.7,11.2-9.1,15.9-11.1,4-1.7,8.5-1.7,12.8-1.7-7.2,7.2-13.3,15.7-16.4,25.5-3.5,11-2,19.6,3.2,29.6-18.4,3.2-29.5-4.2-44-14.3-5.2-3.6-10.6-7-16.7-8.6-9.8-2.7-20.4,0-29,5.1-5.3,3.1-9,6.9-10.6,13,.2.6.3,1.2.5,1.8.7,1.9,1.3,3.8,3.2,4.8,4.1,2.1,11.2,2.4,15.8,3.1,12.4,2,24.3,4,35.6,9.7-3.2,2.2-6.6,4-10.2,5.6-22.9,10-47.2,6.6-69.8-2.1-2.5,2.1-4.3,4.8-6.6,7.1-4.5,4.6-10.4,7.2-16.1,10.1-4.2-15.6-8.2-46.9-18.6-58.9-1.4-1.6-2.7-2.9-4.9-3-.7.3-1.1.4-1.5,1.1-2.3,4.2,1.9,10.2,3.9,13.8,7.3,13.3,9.6,33.7,13.4,48.6,7,27.8,22.4,59.7,47.6,74.8,12.3,6.6,23.9,11.8,33.8,22-3.7.3-7.2,1.2-10.6,2.4-4.5-4.7-8.8-10.4-15.3-12.2-1.1.4-1.3.3-2,1.3,0,5.3,8.1,9.9,9.3,15.3.3,1.3,0,1.8-.6,3-2.6,1.8-5.6,1.9-8.6,1.8-14.6-.2-25.1-10.7-34.5-20.4-1.8-.2-3.6-.3-5.3-.9-11.6-3.8-18.4-23.7-25.9-32.8-13.2-15.9-33.2-24-45.5-41.1-4.6-6.5-8.6-14.3-11.4-21.7-2.2-5.8-3.8-11.5-6.7-17-1.3-.6-2.1-.8-3.6-.9-1,.6-1.2.7-1.5,1.9-2,6.5,9.9,29.6,13.1,36.1-24.8,7.8-52.8,14-78.8,9.4,0-.1-.1-.3-.2-.4-2.6-5-6.9-8.7-9.5-13.7-4.5-8.7-6.4-18.7-9.2-28-1.2-4-3-7.9-3.5-12.1-1.4-10.5-1.1-21.4-2-31.9-.5-5.2-2-10.2-2.4-15.4-.3-3.4.4-6.6.9-10,1.1-7.2.2-12.9-1.9-19.9,2.3-8.7,4.3-16.5.2-25,2.1-5.2,4.3-10.6,5.4-16.1.7-4,1-8,1.9-12,1.5-5.8,4-11.6,6.6-17,1.5-3,3.6-8.2,6.1-10.5,2.3-2,6-3.2,8.8-4.4,31.5-12.7,67.9,3.4,100.4,4,10.5.2,20.3-1.8,30.2-5.2,1.2,4.2,2.5,8.5,4.1,12.6,3.6,8.8,10.2,19.9,19.6,23.6,2.9,1.1,7.6,2.2,10.5.8,1-1.7.2-2.7-1-4-2.2-2.4-5.5-4.1-8.2-6-9.4-6.2-13.6-13.8-16-24.7-3-14.1-1.5-29.8,6.4-42.1Z"/>
  <path class="st0" d="M809.1,680c1.1.2,2.2.4,3.2,1,2.9,1.5,3.9,4.3,4.9,7.2-1,1.7-2.5,3.7-2.9,5.6-.2,1.2,0,2.1.8,3,.9,1.1,2.4,2,3.8,2,3.4,0,6.6-5.2,8.8-7.5,1.1-1.2,2-1.8,3.7-1.8,1.1.5,1.6.8,2.2,1.8.3,1.8-.4,3.2-1,4.9-.3.5-.6,1-1,1.5-3,4-7.3,7.2-12.4,7.7-3.4.4-6.6-.6-9.1-2.7-3.2-2.7-5-6.8-5.3-11-.3-4.6,1.3-8.2,4.2-11.6Z"/>
  <path class="st0" d="M737.4,579.9c10.1,3.9,20.2,12.3,24.8,22.3,2.4,5.3,2.5,9.7.6,15.1-.6-.2-1.2-.4-1.7-.7-7.2-3.6-6.8-14.1-12.3-19.6-3.7-3.6-11.3-6.7-12.7-11.9-.6-2,.4-3.5,1.4-5.2Z"/>
  <path class="st0" d="M830.3,648.4c.1,0,.3,0,.4,0,1,0,2.5.8,3.1,1.6.8,1.1.9,2.8.5,4.1-.6,2-2.1,3.6-3.9,4.5-6.4,3.6-17.4,1.1-24-.8-1.1-.5-2.5-1.2-3.4-2-.9-.7-1.5-2.1-1.4-3.3.1-1.1.5-1.7,1.4-2.3,4-2.8,16,.9,20.3,2.2,2.3-1.3,4.6-2.7,6.9-4Z"/>
  <path class="st0" d="M859,679.8c2.1.8,3.1,1.7,4.1,3.8,1.2,2.6,1.7,5.9.5,8.6-.6,1.3-1.3,1.9-2.5,2.4-1.3-.7-2.7-1.7-3.7-2.8-1.4-1.6-2.3-3.7-2.1-5.8.2-2.8,1.8-4.5,3.8-6.3Z"/>
  <path class="st5" d="M494.2,77.3c21.5,1,42.2,9.7,53.4,28.8,2.3,3.9,4.3,10.9,8.4,13l.6-.5-1,.4,1.5.3c.5-.3,1-.5,1.2-1.1,1.4-3.8-.8-8.1-2.5-11.4.9-.4,1.8-.8,2.8-1.2,17.6-6.8,36.4-6.1,53.6,1.6,22.7,10.1,41.6,31.6,47.2,56,1.8,7.9,1.5,16.4,4.1,24.1,2.5,7.6,9.1,13.5,12.1,21.4,5.9,15.7,1.3,32.3-9.4,44.7-6.1,7.1-12.9,12.6-16.9,21.4l4.3,3.1c2.1-1.7,4.3-3.3,6.5-4.9.4.4.7.7,1.1,1.1,8.1,8.6,18.9,22.8,18.2,35.4-.3,6.2-5.5,5.3-8.8,9-2,2.4-3.7,5.3-5.5,7.9-3.2,4.7-6.5,9.3-10.2,13.6-9.5,11.2-19.9,21.3-30.1,31.8-5.9,6.2-11.4,12.7-17.3,18.9-6.6,6.9-13.6,13.3-20.6,19.7-8.9-5.1-17.9-6.5-27.5-9.4-6.9-2.1-13.5-5.4-19.6-9-26.3-15.4-45.3-40.6-41.9-72.3.7-6.3,4.3-14.6,2.7-20.8-.9-1.1-1.5-1.9-3-2.4-1.3.2-1.8.4-2.6,1.5-6.6,9.3-7.1,28.1-5.6,39,.7,3.9,1.7,7.8,3.1,11.6,9,25.7,31.5,48.3,57.3,57.2,9.7,3.3,20.1,4.4,29.4,9,9.2,4.6,13.2,10.8,16.4,20.2l-3.3,6.6c-3.1-3.7-6.7-10.6-11.3-12.3-1.3-.5-1.9-.3-3.2.2-.9,1.2-1.1,1.4-1.3,2.9,1.2,3.8,4.9,6.6,7.7,9.2-.6,6.8-1.9,10.8-7,15.5-3.4-4.6-8.1-10.9-13.3-13.4-1.3-.6-2.9-1-4.3-.3-1.1.6-1.4,1.2-1.8,2.2,1.6,4.9,9,10.6,12.2,15.1l.4.6c-1.8,1.5-3.7,2.9-5.5,4.4l-5.7.7c-14.1-6.4-20.8-18.3-27.1-31.7-26.3-7.9-49.7-22.2-66.4-44.4-.6-.7-1.1-1.5-1.6-2.2-.5-.8-1.1-1.5-1.6-2.3-.5-.8-1-1.5-1.5-2.3-.5-.8-1-1.6-1.5-2.4-.5-.8-1-1.6-1.4-2.4-.5-.8-.9-1.6-1.4-2.4-.4-.8-.9-1.6-1.3-2.5-.4-.8-.8-1.7-1.2-2.5-.4-.8-.8-1.7-1.2-2.5-.4-.8-.8-1.7-1.1-2.6s-.7-1.7-1-2.6c-.3-.9-.7-1.7-1-2.6-.3-.9-.6-1.8-.9-2.6-.3-.9-.6-1.8-.9-2.7-.3-.9-.5-1.8-.8-2.7-.3-.9-.5-1.8-.7-2.7-.2-.9-.4-1.8-.7-2.7-.2-.9-.4-1.8-.6-2.7-.2-.9-.4-1.8-.5-2.7-.2-.9-.3-1.8-.5-2.8-.1-.9-.3-1.8-.4-2.8s-.2-1.8-.3-2.8c0-.9-.2-1.9-.2-2.8,0-.9-.1-1.9-.2-2.8,0-.9,0-1.9-.1-2.8,0-.9,0-1.9,0-2.8,0-.9,0-1.9,0-2.8,0-.9,0-1.9,0-2.8,0-.9,0-1.9.2-2.8,0-.9.1-1.9.2-2.8,0-.9.2-1.8.3-2.8s.2-1.8.4-2.8c4.7-32.3,23.2-59.7,49-79.1-2.1-12.6-.5-32.1,2.2-44.7,2.6-12.3,7.5-26,18-33.8,2.5-1.9,6.7-2.9,8.6-4.7,1-.9,1-1.4,1.1-2.6-1-2-6.1-4.2-8.1-5.7-1.5-1.2-2.8-2.4-4.2-3.7-1.3-1.3-2.6-2.7-3.7-4.2-11.2-14.1-15.1-32.5-13.1-50.2Z"/>
  <path class="st0" d="M636.5,174.1c3,.3,5.5,1.1,7.4,3.5,3.7,4.7,2.5,11.6,1.7,17,2.4.9,4.8,1.9,7.1,3.2,7.7,4.5,13.3,11.5,15.5,20.1.1.5.3,1.1.4,1.6.1.5.2,1.1.3,1.6,0,.5.2,1.1.2,1.6,0,.6.1,1.1.1,1.7,0,.6,0,1.1,0,1.7,0,.6,0,1.1,0,1.7,0,.6,0,1.1-.1,1.7,0,.6-.1,1.1-.2,1.6,0,.5-.2,1.1-.3,1.6-.1.5-.2,1.1-.4,1.6-.1.5-.3,1.1-.4,1.6-.2.5-.3,1.1-.5,1.6-.2.5-.4,1-.6,1.6-.2.5-.4,1-.7,1.5-.2.5-.5,1-.7,1.5-.3.5-.5,1-.8,1.4-8.7,14.4-23,17.7-38.6,13.6-14.8-3.9-28.1-12.6-44-8.8-9.9,3.5-11.1,7.2-18.7,12.4-.8.6-1.5.3-2.4.2-1.1-.7-1.6-1.3-1.9-2.6-.5-2,0-3.9,1.2-5.6,4.6-7.2,13.5-12,21.6-13.8,9.5-2.2,17.8-.5,26,4.7-.8-2.2-1.7-4.4-2.2-6.7-2.2-9.5-.6-19.9,4.6-28.1,5-8,12.1-12.2,21.2-14.3-1.8-3.9-3.1-8.3-1.9-12.6,1.1-3.9,3.6-5.9,7-7.8Z"/>
  <path class="st5" d="M632.8,202.2c.4,0,.8-.1,1.2-.2.4,0,.8,0,1.2-.1.4,0,.8,0,1.2,0,.4,0,.8,0,1.2,0,.4,0,.8,0,1.2,0,.4,0,.8,0,1.2.1.4,0,.8.1,1.2.2.4,0,.8.1,1.2.2.4,0,.8.2,1.2.3.4.1.8.2,1.2.3.4.1.8.3,1.1.4.4.1.7.3,1.1.5.4.2.7.3,1.1.5.4.2.7.4,1.1.6.4.2.7.4,1,.6.3.2.7.4,1,.7.3.2.7.5,1,.7.3.2.6.5.9.8.3.3.6.5.9.8s.6.6.9.9.6.6.8.9c.3.3.5.6.8.9s.5.6.7,1c.2.3.5.7.7,1,.2.3.4.7.6,1,.2.4.4.7.6,1.1.2.4.4.7.5,1.1.2.4.3.7.5,1.1.1.4.3.8.4,1.1s.2.8.4,1.2c.1.4.2.8.3,1.2,0,.4.2.8.2,1.2,0,.4.1.8.2,1.2,0,.4,0,.8.1,1.2,0,.4,0,.8,0,1.2,0,.4,0,.8,0,1.2,0,.4,0,.8,0,1.2,0,.4,0,.8-.1,1.2,0,.4-.1.8-.2,1.2,0,.4-.1.8-.2,1.2,0,.4-.2.8-.3,1.2-.1.4-.2.8-.4,1.2-.1.4-.3.8-.4,1.1-.1.4-.3.7-.5,1.1-.2.4-.3.7-.5,1.1-.2.4-.4.7-.6,1.1-.2.4-.4.7-.6,1-.2.3-.4.7-.7,1-.2.3-.5.7-.7,1-.2.3-.5.6-.8.9-.3.3-.5.6-.8.9-.3.3-.6.6-.9.9-.3.3-.6.5-.9.8-.3.3-.6.5-.9.8-.3.2-.6.5-1,.7-.3.2-.7.5-1,.7-.3.2-.7.4-1,.6-.4.2-.7.4-1.1.6-.4.2-.7.3-1.1.5-.4.2-.7.3-1.1.5-.4.1-.8.3-1.1.4-.4.1-.8.2-1.2.3-.4.1-.8.2-1.2.3-.4,0-.8.2-1.2.2-.4,0-.8.1-1.2.2-.4,0-.8,0-1.2.1-.4,0-.8,0-1.2,0-.4,0-.8,0-1.2,0-.4,0-.8,0-1.2,0-.4,0-.8,0-1.2-.1-.4,0-.8-.1-1.2-.2-.4,0-.8-.2-1.2-.2-.4,0-.8-.2-1.2-.3-.4-.1-.8-.2-1.1-.4-.4-.1-.8-.3-1.1-.4-.4-.1-.7-.3-1.1-.5-.4-.2-.7-.3-1.1-.5-.4-.2-.7-.4-1.1-.6-.3-.2-.7-.4-1-.6-.3-.2-.7-.4-1-.7-.3-.2-.6-.5-1-.7-.3-.2-.6-.5-.9-.8-.3-.3-.6-.5-.9-.8-.3-.3-.6-.6-.8-.9-.3-.3-.5-.6-.8-.9s-.5-.6-.8-.9c-.2-.3-.5-.6-.7-1-.2-.3-.5-.7-.7-1-.2-.3-.4-.7-.6-1-.2-.3-.4-.7-.6-1.1s-.3-.7-.5-1.1c-.2-.4-.3-.7-.5-1.1-.1-.4-.3-.8-.4-1.1-.1-.4-.2-.8-.3-1.1-.1-.4-.2-.8-.3-1.2,0-.4-.2-.8-.2-1.2s-.1-.8-.2-1.2c0-.4,0-.8-.1-1.2,0-.4,0-.8,0-1.2,0-.4,0-.8,0-1.2s0-.8,0-1.2c0-.4,0-.8.1-1.2,0-.4.1-.8.2-1.2,0-.4.1-.8.2-1.2,0-.4.2-.8.3-1.2s.2-.8.3-1.1c.1-.4.3-.8.4-1.1.1-.4.3-.7.5-1.1.2-.4.3-.7.5-1.1.2-.4.4-.7.6-1.1.2-.3.4-.7.6-1,.2-.3.4-.7.7-1,.2-.3.5-.7.7-1,.2-.3.5-.6.8-.9.3-.3.5-.6.8-.9.3-.3.6-.6.8-.9.3-.3.6-.5.9-.8s.6-.5.9-.8c.3-.2.6-.5,1-.7.3-.2.7-.5,1-.7.3-.2.7-.4,1-.6.3-.2.7-.4,1.1-.6.4-.2.7-.4,1.1-.5.4-.2.7-.3,1.1-.5.4-.1.7-.3,1.1-.4.4-.1.8-.2,1.1-.4.4-.1.8-.2,1.2-.3s.8-.2,1.2-.2Z"/>
  <path class="st0" d="M626.4,215.6c1,.2,1.7.5,2.5,1.1,1.9,1.3,2.8,3.7,3.2,5.9.8,4.9-.5,9.7-3.4,13.7-.3-.2-.6-.4-.9-.6-2.9-2-4.5-4.7-5-8.1-.7-4.5.9-8.4,3.5-12Z"/>
  <path class="st0" d="M646.5,215c.3.2.6.4.9.7.3.2.6.5.9.7.3.3.5.5.8.8.3.3.5.6.7.9.2.3.5.6.7.9.2.3.4.6.6,1,.2.3.3.7.5,1,.2.3.3.7.4,1.1,1.6,4.9.4,9.6-1.9,14-.2,0-.3-.1-.5-.2-2.6-1.1-4.3-2.6-5.3-5.3-1.8-5.1,0-10.8,2.2-15.5Z"/>
  <path class="st0" d="M585.7,173.2c1.2,0,2.6,0,3.8.2,2.5.5,4.9,2.3,6.4,4.4,2.3,3.3,2.8,7.8,2,11.6-1,4.4-3.1,7.1-6.8,9.4-1.3.3-2.6.4-3.9.3-.3,0-.5,0-.8-.1-.3,0-.5-.1-.8-.2-.3,0-.5-.2-.8-.3-.3-.1-.5-.2-.7-.4-.2-.1-.5-.3-.7-.4-.2-.2-.4-.3-.7-.5-.2-.2-.4-.4-.6-.5-.2-.2-.4-.4-.6-.6-2.5-3.1-3-7.8-2.4-11.6.7-4.9,2.8-8.3,6.7-11.3Z"/>
  <path class="st0" d="M503.4,89.1c2,.2,4,.5,5.9,1,10.8,3,21.4,10.5,26.9,20.4,3.6,6.4,4.3,12.8,2.4,19.9h-1c-2.8-1.6-7.4-16.6-10.9-20.8-5.9-7-16.1-8.9-22-15.4-1.6-1.7-1.5-3-1.3-5.2Z"/>
  <path class="st0" d="M575,147.3c10.8-.3,12.8,7.3,20.9,12.1,3.2,1.9,7.3,2.2,10.4,4.2,1.5,1,2.2,2.1,2.5,3.9-.3,1.6-1.2,2.6-2.3,3.8-3.2,1.3-5,1.3-8.2.1-6.6-2.5-21.3-12-23.8-18.5-.9-2.2-.3-3.6.6-5.7Z"/>
  <path class="st0" d="M644.3,154c1.8.4,3.4.7,4.6,2.3.2.8.4,1.4.1,2.2-1.7,5.3-12.5,10.6-17.2,13.4-1.9-.3-3.4-1.5-4.7-2.8-.4-1.1-.6-1.5-.3-2.7,1.4-5.3,12.9-10.1,17.5-12.5Z"/>
  <path class="st1" d="M395.2,673.2c7.8-22.4,20.1-43.7,40.2-57.2,27.3-18.3,64.1-19.7,95.5-13.4-11.6,28.3-18,59.9-17.5,90.5.1,8.3,2.1,16.5,2.1,24.7v.9c1.3,1.6,2.2,16.5,1.8,19.2-.1,1.1-.5,2-.9,3,1.5,9.1,3,18.5,4.2,27.7.5,4.3.6,8.6,1.4,12.9.8,4.4,2.7,8.8,4.1,13.1,3,9.3,4,17.7,10.5,25.5-21.2-2.7-41.8-6-61.7-14,1.7-2.6,3.7-5.1,5.4-7.6,1.9-2.8,5.4-7.9,4.3-11.4-.4-1.2-.6-1.3-1.7-1.8-5.4.9-12.1,13.9-16.5,18.1-7.7,7.5-17,13.4-26.9,17.6-3.3,1.4-6.6,2.6-10.1,3.7-3.4,1-6.9,1.9-10.4,2.5-8.8,1.6-31.6.6-37.6,7.3-8.1,9.2-14.4,28.6-19.6,40.2-2.4,5.4-5.3,10.5-8.2,15.7-1.7,2.9-3.3,6.7-5.6,9.2l-.5-.4c-.1-2.1,0-4.1,1.2-5.9.2-.3.4-.6.6-.9.9-1.6,1.2-3.8.6-5.5-.3-.9,0-.6-1-1-5.6,1.9-9.6,14.8-14.5,19.1-1.2,1.1-2.1,1.2-3.7,1.2-10.4-6.3,1.1-24.6-1.3-29.3l-1.1-.2c-2,.6-3.6,2-5.2,3.3,1.9-11.6,10.2-19.4,13.6-30.3,3.7-11.8,3.1-29.8,8.8-39.9,3.7-6.5,12.5-10.1,17.8-15.4,14.8-14.8,14.7-36,14.7-55.4,8.6,0,16-.2,23.2-5.6,5.2-3.9,9-9.5,9.8-16,1-8.4-3.3-14.6-8.3-20.8.5-10-1.3-15.5-7.6-23.2Z"/>
  <path class="st0" d="M515.4,718.8c1.3,1.6,2.2,16.5,1.9,19.2-.1,1.1-.5,2-.9,3-2-7.3-1.3-14.7-.9-22.2Z"/>
  <path class="st5" d="M435.5,352.9c2.4,3.9,5.1,13.2,7.3,18,16.7,35.6,49.6,56.5,85.3,69.3,4.2,10.2,9.1,18.6,16.2,27.1-.5,5.2-2.2,10.3-3.7,15.2-12.3,0-23.9-1.2-35.8-4-.8-4.8-.4-17.2-4.8-20.2-1.1-.8-1.5-.7-2.8-.6-1.3.8-2,1.6-2.1,3.1-.3,3.2.8,6.9,1.2,10.1,1.1,9.4-.8,18.7-4.8,27.2-6.5,13.9-17.7,21.4-29.6,30.1-4.5,3.3-8.9,6.5-11.8,11.3-2.6,7.9,6,36.3,7.8,46.3-5.4-5.6-8.8-10.7-11.4-18.1-1.1-3-2-6.1-3.5-8.8-.6-1.2-1.5-2.8-3-2.9-1.3-.2-1.7.1-2.6.9-2.7,5.8,1.6,16.1,3.5,21.8-13-4.2-26-8-37.2-16.1,2.2-20.3,15.9-38.5,23.5-57.2-2.2-6.4-4.1-12.8-5.9-19.2-3.1-11.6-3.8-23-.7-34.7,1.2-4.6,3-9.4,3.4-14.1.5-6.1-.6-12.7-.8-18.8-.7-22.3,1.1-45.9,12.5-65.7Z"/>
  <path class="st5" d="M638.3,400.6c.4.7.3.4.5,1.4,1.9,11-12.3,29.3-18.8,37.9.8.6,1.6,1.2,2.5,1.6,2.3,1.2,4.3.4,6.6-.3,18.9,14.8,20.1,39.1,13.9,60.7-2.1,7.2-7,13.5-5.3,21.4,3.5,16.3,23.6,30.4,36.8,39.2-3.2,2.2-6.7,4.1-10.2,5.9h-.1c-4.9-4.1-14.7-18.3-20.7-18.5-.8,0-.9.3-1.5.8-.2.8-.4,1.4-.4,2.2.2,6.3,5.4,11,9.5,15l6.1,5.3c-4.4,1.8-9,3-13.6,4-28.8-9.7-32.9-24.4-38.6-51.8-1.8-8.8-4-17.5-8.7-25.3-.7-1.2-1.5-2.4-2.4-3.6-.8-1.2-1.7-2.3-2.7-3.4s-1.9-2.2-3-3.2c-1-1-2.1-2-3.2-2.9-2.7-2.3-11.5-7.3-12.7-9.6-4.9-9.3,15.4-14.2,19.4-24.5l.2-.6.4-.3c7.3-5.1,8.7-11.3,10.2-19.5,13.7-8.8,22.3-22.9,35.6-31.9Z"/>
  <path class="st1" d="M752.8,790.1c10.5,1.9,17.1,12,25,18.3,13.9,11.2,31.4,21.6,49,24.7,11.4,2.1,21.3-1,32.5-.4,4,.2,11.3.5,14.1,3.6.2.7.4,1,0,1.8-3.5,9.1-18.4,2.6-25,5.9-.8.9-.9.9-.9,2.1,3.2,4.4,15,6.3,20.1,8-1.5,1.4-3.2,2.6-4.8,3.9-4.1,2.8-8.4,5.4-13.2,6.9-14.9,4.6-25.3-3.2-37.8-9.9-2.5.7-5,1.5-7.6,1.3-7.9-.7-20.1-8-27.1-11.7-8.4-4.4-37.8-20.4-42.4-26.3-3-3.8-4.2-9.6-5.6-14.1,8.4-3.8,16-8.9,23.6-14.1Z"/>
  <path class="st8" d="M237.2,809.1c2.9,1,5.1,3,6.7,5.6,6.7,11.6.8,27.1,7,39.4,8.2,16.3,26.2,24.1,35.4,39.4-8.5-2.8-10.8-6.7-17.2-12-1.6-1.3-4.2-3.3-6.3-3.1-.3.3-.5.6-.7,1-2,5,6.3,9.3,7.6,13.5.3,1,0,1.3-.3,2.2-1.3.9-2.5,1.1-4.1,1.3h-.7c-8.8-.4-17.1-6.4-24.4-10.7l-4,3.4c-15.2-14.3-24.4-33.4-40.6-47,16.5-8.4,29.4-19.4,41.7-33Z"/>
  <path class="st5" d="M677.4,321.5c6.4,0,12.1.9,17.7,4.2,6.1,3.6,10.6,9.2,12.3,16.2,2.3,9.5.4,19.8-4.6,28-11.7,19-36.6,27.8-57.3,32.7,1.2-5.3,3-10.2,5.2-15.2,5.2-9.6,13.1-16.8,20.9-24.2,2.5.4,6.1,1.8,8.4.2.7-.5.6-.9.8-1.7-2.2-7.4-13.7-12.4-18.7-18.4l-.4-.5c3.4-2.4,7.4-4.6,11.6-5.1,5.7-.7,8.5,3.4,12.5,6.6,1.1.9,2.6,1.9,4.1,1.7.7-1,.7-2,.5-3.2-.5-4.8-5.3-8.4-8.8-11.3-4.8,0-9.3.2-14.1.7,3-4,5.9-7.7,9.9-10.7Z"/>
  <path class="st1" d="M901.9,707.3c2-.1,3,.2,4.6,1.4,3.8,2.9,5.3,7.6,6,12.1,1.5,10.1-1.7,22.1-7.8,30.3-4.1,5.5-8.9,8.3-15.7,9.3-.3,0-.7-.2-1-.3-3.8-1.3-7.3-4.3-9-7.9-3.1-6.5-1.4-14.8,1.1-21.2,4.2-10.6,11.5-19.1,22-23.7Z"/>
  <path class="st0" d="M893.7,724.4c.4.3.6.5.9.8,1.6,1.5,2.3,3.7,2.3,5.9,0,5-3.1,9.4-6.5,12.8-1.6-1.7-2.5-3.7-3.6-5.7,1.5-5.5,2.8-9.6,6.9-13.7Z"/>
  <path class="st0" d="M904.7,724.7c.2,0,.3,0,.5.1,1.4.5,2.3,1.5,2.9,2.8,1.7,4.1-.4,9.5-2.1,13.2-.4-.1-.8-.3-1.2-.4-1.4-.6-2.3-1.7-2.8-3.1-1.4-4,1.1-9.1,2.9-12.7Z"/>
  <path class="st5" d="M670.5,81.9l.9.6c2.8,6.4,1.5,17.7-.3,24.3-2.8,10.9-8.5,18.7-18.2,24.5-3-4.2-6.1-8.3-9.4-12.3-4.8-5-9.8-9.4-15.2-13.7.5-1,1-1.9,1.5-2.9,7.6-12.9,27.2-17,40.7-20.6Z"/>
  <path class="st1" d="M794.2,548.3c7.8,1.2,15,4.2,21,9.3,11,9.4,16.1,23.4,17.1,37.4l-4.7-3c-12.5-6.7-26.3-9.5-39.8-13.3-.9-10.3,1.3-21.5,6.3-30.5Z"/>
  <path class="st8" d="M322.5,581.3c1.2,0,2.2.4,3.2.9,5.1,2.4,8.1,7.1,9.8,12.3,2.8,8.3,3.1,18.7-1,26.7-2.3,4.5-5.4,7.1-10.1,8.8-4.6-1-8.5-3-11.3-6.8-4-5.4-4.7-13-3.7-19.5,1.3-9.2,5.5-16.8,13-22.3Z"/>
  <path class="st0" d="M318.8,599.9c2.5,1.7,4.2,3.4,4.9,6.4.9,4.2-.9,7.8-3.1,11.2-.2-.1-.4-.2-.5-.3-2.5-1.6-4.1-3.7-4.6-6.7-.6-4,1.1-7.4,3.3-10.6Z"/>
  <path class="st0" d="M330.2,598.9c2.2,1.3,3.4,2.7,4.1,5.2,1.1,4.4-.6,8.6-2.7,12.3-2.4-1.5-3.8-3.5-4.3-6.3-.8-4.2.7-7.9,3-11.3Z"/>
  <path class="st1" d="M437.8,831c.2.3.2.2.2.7.2,3-10.3,30.4-12.3,32.3-.8-1-1.3-1.8-2.5-2.3-6.3,2.6-3.2,16.2-8.6,20.3-.6.4-1.2.7-1.9.5-1.9-.3-3-2.1-4.1-3.5-1.4-4-1.5-8.1-2.4-12.2-.8-3.7-2.2-5.6-5.3-7.7,0-7.4,2.4-14.6,4.6-21.6,11.2-1.1,21.6-3.6,32.4-6.6Z"/>
  <path class="st7" d="M528.8,627.4c2.8-9.8,6.4-19.7,13.2-27.4,5.5-6.2,13.2-11.8,21.8-12.3,1.6.5,2.7.8,3.7,2.1.3,1.2.3,1.3-.2,2.4-1.3,1.1-2.3,1.5-3.9,2-5.7,1.7-10.8,4.5-16,7.2,4.2-.1,8.5-.5,12.7-.7-5.4,13.4-20.8,18-31.2,26.8Z"/>
  <path class="st7" d="M563.7,587.7c1.6.5,2.7.8,3.7,2.1.3,1.2.3,1.3-.2,2.4-1.3,1.1-2.3,1.5-3.9,2,.5-2,.3-4.4.4-6.5Z"/>
  <path class="st8" d="M181.5,483.5c.2,0,.4,0,.5.1,9.7,2.7,20.5,8.7,25.7,17.8,1.3,2.2,3.2,6.4,2.5,8.9l-1.1.3c-5.3-.1-10,.4-15.1,1.4-3.8-5.3-8-9.6-13.3-13.5.3-5,.1-10.1.8-15Z"/>
  <path class="st7" d="M538.5,695.1c.5,0,1.1.4,1.6.5.5.8.8,1.4.9,2.3,1.2,12.5-9.8,28.3-17.1,37.8l-.7-.3c-.2-.6-.4-1.2-.5-1.9-2.7-17.4,6.2-25.7,15.9-38.5Z"/>
  <path class="st7" d="M539.4,668.9c.9,1,1.2,2.9,1.4,4.3,1.5,12-11,25.5-17.9,34.1-1.5-2.9-1.7-7.1-1.3-10.3,1.1-11.5,9.2-21.1,17.9-28.1Z"/>
  <path class="st7" d="M543.4,644.6c.7.7.7,1,.8,2.1,1.1,9.9-17.9,27.4-23.9,35.5l-.5-.5c-.9-3.7.6-10.1,1.8-13.7,3.6-10.8,11.7-18.4,21.7-23.3Z"/>
  <path class="st7" d="M542.5,747c.9,1,.1,3.6.4,5.1.3,1.4.5,2.8.7,4.2.9,11.1-6.3,21.2-13,29.3l-.7-.6c-1.1-2.4-1.8-5-1.8-7.6,0-11.3,6.7-22.5,14.4-30.4Z"/>
  <path class="st7" d="M538.8,723c1.1.6,1.5,1.7,2,2.9,4.2,10-9.4,25.8-13.4,34.7l-.3.6c-1.7-2.1-2.6-5.4-2.9-8-1.1-11.3,7.7-22.1,14.6-30.1Z"/>
  <path class="st7" d="M549.2,620.2c.6.6.6,1,.7,1.9.5,10.8-18.6,22.9-25.1,30.4-.1-.2-.3-.4-.4-.7-1-2.2-.8-6.2-.2-8.5,3-11,15.8-18,25.1-23.2Z"/>
  <path class="st7" d="M562.9,511.5c1.2,1.1,1.5,3.6,1.5,5.2.6,11.5-9.4,21.2-16.5,29-1-2.8-1.7-5.6-1.5-8.6.7-10.2,9.2-19.2,16.5-25.5Z"/>
  <path class="st4" d="M636.2,385.4c1.5-.2,2.9-.2,4.4-.2,1.1.8,1.1.7,1.3,2-.5,1.7-1.2,2.7-2.5,3.9-7.5,7.2-15.7,8.1-25.6,7.9l-6.5.5c.6-.9,1.3-1.8,2-2.7,6.9-8.4,16.5-10.4,26.8-11.4Z"/>
  <path class="st1" d="M797.4,748.6c.6,0,1.1-.1,1.7,0,8,.5,15.5,8.7,20.4,14.4-4.1-.5-8.1-1.3-12.2-2.3-7.1-1.8-14.8-.3-21.7-2.5-1.4-.4-2.1-.9-2.8-2.2l.4-1.2c3.6-4,9.3-5,14.2-6.2Z"/>
  <path class="st7" d="M552.5,795.3c0,0,.2.2.3.3,3.1,3.8,3,12,2.5,16.7-.5,4.8-2.3,12.2-6.1,15.3l-1.2-.2c-3.1-3.2-4.8-6.4-5-10.9-.2-7.8,4.4-15.6,9.5-21.1Z"/>
  <path class="st7" d="M545.6,772.8c.6.9,1,1.8,1.4,2.8,4.3,12.1-3.7,25.3-8.8,35.9-1.3-1.2-2-3.3-2.4-4.9-2.8-10.8,4.6-24.6,9.8-33.7Z"/>
  <path class="st7" d="M562.5,535.9c1.5,1.7,1.9,4.3,1.9,6.6,0,10-9.8,20.2-16.3,26.8-1-1.2-1.4-2.9-1.6-4.5-1.2-10.2,10-21.7,15.9-28.9Z"/>
  <path class="st7" d="M561.4,490.9c.9.2.7,0,1.3.5,1.1.9,1.8,1.9,1.9,3.3.1,9.1-10.1,18.9-16,24.9-.9.2-1,0-1.7-.2-1-1.6-.8-4.5-.5-6.3,1.2-8.5,8.3-17.2,15-22.2Z"/>
  <path class="st7" d="M563,560.3c.2.2.4.4.5.6,1.4,2.4,1.5,6.4.8,9-2.6,9-10.7,15.5-18.7,19.7l-.8-.2c0-.2,0-.3-.1-.5-.9-7.7,13.4-22.9,18.3-28.6Z"/>
  <path class="st4" d="M645.3,367.6c3.9-.3,6.7,1,10.2,2.4-5.6,7.4-11.4,9.4-20.2,10.8l-9.9,1.3c5.1-7.7,10.7-12.5,19.8-14.6Z"/>
  <path class="st4" d="M656.2,348.7c4,.9,8.7,6.4,11.6,9.3-4.6,3.6-8.5,5.1-14.2,6-3.9.4-7.9.9-11.8,1.3,3.8-6.6,8.6-11.8,14.5-16.6Z"/>
  <path class="st4" d="M616,404.2c1,0,2.2,0,3.1.3,1.2.3,2,1,2.7,2,0,1.1,0,1.4-.9,2.3-4.6,5.2-14.3,7.5-20.9,7.8l-6.6-.4c1.1-2.2,2.3-4.2,4-6,5.1-5.4,11.6-5.7,18.6-6Z"/>
  <path class="st4" d="M699,308.3c3.9.3,8.9,2.6,12.7,2l.7-1.4c1.2-.2,1.4,0,2.5.6.4,1.1.5,1.3,0,2.5-1.5,3.8-8.5,6.4-11.9,7.8-4.2,1.6-12.8-2.4-17.2-3.8,4.1-3.4,8.4-5.6,13.2-7.7Z"/>
  <path class="st7" d="M560.2,472.3c.8,0,2.1,0,2.8.3,1.2.6,1.3,1.1,1.7,2.3-.9,7-9.7,14.3-14.5,19.1-.9.7-1.1.9-2.2,1.1l-.7-.8c-1.1-5.1.7-10.8,2.1-15.7,3.3-2.7,7-4.6,10.9-6.3Z"/>
  <path class="st7" d="M732.5,281.5c.7,0,1.6.2,2.3.5,1.2.6,1.3.9,1.7,2.1-.3,1.6-.9,2.6-2.1,3.8-4.7,4.9-11.5,5.3-17.9,5.4-1.1,0-2.7.2-3.7-.3-.5-.3-.5-.8-.7-1.3.2-.4.3-.6.5-.9,3.7-5.2,13.9-8,19.8-9.3Z"/>
  <path class="st7" d="M714.2,296.9c4.8-.5,9.9.2,14.7.4-.5.8-1,1.5-1.6,2.3-3.2,4-7,4.6-11.8,5.3-5.4-.4-10.8-.6-16.2-.6,4.5-5.2,8.1-6.8,14.9-7.4Z"/>
  <path class="st8" d="M17.2,773.1c.2,0,.3,0,.5,0,1.4.5,2.5,2.4,3.1,3.7,1.6,3.5,2.7,9.8,1.3,13.4-.4,1.1-.5,1.3-1.5,1.8l-2.1-1c-3.8-3-7-6.5-7.9-11.4-.3-1.6-.1-3.6,1-4.9,1.5-1.8,3.4-1.5,5.5-1.6Z"/>
  <path class="st5" d="M382.9,441.2c.8,0,1.6.1,2.3.6,1.7,1,2.7,3.2,3.2,5,.4,1.4.3,2.2-.5,3.4-2.1.9-5.9-.3-8.5,0-.2,0-.4,0-.5,0-1,.4-2,.8-3,1-1.3.3-1.9,0-3-.6,0-.7,0-1.2.2-1.9,1.5-3.9,6.4-5.9,9.8-7.7Z"/>
  <path class="st7" d="M560.9,818.6c2.8,2.3,4.9,5.3,6.9,8.3-1.4,1.9-2.8,3.6-5,4.6l-8-1c2.2-3.9,4.2-7.8,6.1-11.9Z"/>
  <path class="st4" d="M550.9,470.3c.7.5,1.1.6,1.4,1.4.7,1.8-.1,3.4-.8,5.1,0,0-.1,0-.2,0-1.3-.6-1.3-.7-1.8-2,.2-1.7.6-2.9,1.4-4.5Z"/>
  <path class="st0" d="M865.4,552.8c1,0,2,0,3,.2,2.1.3,4,1.8,5.2,3.6,2,3.2,1.9,7.4,1.1,11-1.9,8.2-7.9,13.1-14.7,17.4-1.8.9-4.1,2.1-6,1.3-1.5-.5-2.4-2-2.8-3.4-1.8-5.6.2-14.6,2.9-19.8,2.5-5,6.1-8.4,11.5-10.2ZM861.8,572.9c1.9-1.9,5.5-5.2,5.5-8.1,0-1.2-.6-2.3-1.6-2.9-.4-.2-.6-.2-1-.3-2.2,1.9-5.3,4.1-5.8,7.1-.2,1.1.4,2.2,1.1,3,.4.4,1.2.8,1.7,1.1Z"/>
  <path class="st0" d="M895.2,594.5c.2,0,.3,0,.5,0,4.2-.5,8.4.2,11.8,2.9,1.7,1.4,3,3.4,3.2,5.7.2,2.5-.9,4.8-2.6,6.6-5.2,5.5-14.2,5.1-21.2,5.2-4.2-.3-8.9-.5-12.8-2.1-1.4-.6-2.1-1.1-2.7-2.5,2.1-1.7,3.5-3.8,5.3-5.7,5.3-5.6,11.2-8.2,18.6-10Z"/>
  <path class="st1" d="M894.7,603c1.3-.1,2.8,0,4,.2,1.1.3,1.7.7,2.3,1.7l-.4,1.2c-1.4,1.3-3.2,1.5-5,1.9-.9,0-1.7,0-2.6,0-1.4,0-2.7,0-3.7-1.2l.2-1c1.4-1.5,3.3-2,5.1-2.8Z"/>
  <g>
    <path class="st2" d="M589.7,711.9c-3.9,0-7.4-.6-10.4-1.9-3-1.3-5.5-3.1-7.4-5.5-2-2.4-3.5-5.1-4.5-8.3s-1.5-6.6-1.5-10.3.5-7,1.6-10.1c1.1-3.1,2.7-5.8,4.7-8.1,2.1-2.3,4.6-4.1,7.5-5.4,2.9-1.3,6.3-1.9,10-1.9s3.5.2,5.5.5c2,.3,4,.9,5.9,1.6,1.9.7,3.5,1.6,4.8,2.8l-4.9,6.3c-.8-1-1.8-1.8-3.1-2.4-1.2-.7-2.5-1.2-3.9-1.5-1.4-.3-2.7-.5-3.9-.5-2.6,0-4.9.5-6.7,1.6-1.8,1.1-3.3,2.5-4.4,4.3-1.1,1.8-1.9,3.8-2.3,6-.5,2.2-.7,4.5-.7,6.8,0,4.1.6,7.6,1.7,10.5,1.2,2.9,2.8,5.2,5,6.7s4.8,2.3,7.8,2.3,3.9-.3,6.1-.8c2.1-.5,4.4-1.4,6.7-2.6l2.8,5c-1.3.9-2.6,1.6-3.9,2.2-1.3.6-2.6,1.2-3.9,1.6-1.3.4-2.7.7-4.1.9-1.4.2-3,.3-4.6.3Z"/>
    <path class="st2" d="M616.9,676.3v23.2c0,2.3.7,4.2,2.1,5.6,1.4,1.4,3.3,2.1,5.6,2.1s3-.3,4.1-.9c1.1-.6,2-1.5,2.6-2.6.6-1.1.9-2.5.9-4.1v-23.2h5.4v21.6c0,3.3-.6,6-1.8,8-1.2,2-2.8,3.5-4.9,4.4s-4.4,1.4-7,1.4c-4.4,0-7.8-1.2-10.2-3.6-2.4-2.4-3.5-5.8-3.5-10.2v-18.8l-.8-2.9h7.5Z"/>
    <path class="st2" d="M643,676.3h11.9c2.1,0,4.1.3,5.9.9,1.8.6,3.2,1.6,4.3,3s1.6,3.3,1.6,5.7-.3,2.6-1,3.9c-.7,1.2-1.6,2.3-2.7,3.2-1.1.9-2.3,1.5-3.6,1.8l10.7,16.5h-7.4l-9.7-15.5h-2.6v15.5h-6.5v-31.9l-.7-2.9ZM650.3,681v9.9h3c1.2,0,2.3-.2,3.3-.5,1-.3,1.8-.8,2.3-1.6s.9-1.8.9-3.1-.3-1.9-.8-2.6-1.2-1.2-2-1.6c-.8-.3-1.7-.5-2.7-.5h-4.1Z"/>
    <path class="st2" d="M671.2,676.3h11.9c2.1,0,4.1.3,5.9.9,1.8.6,3.2,1.6,4.3,3s1.6,3.3,1.6,5.7-.3,2.6-1,3.9c-.7,1.2-1.6,2.3-2.7,3.2-1.1.9-2.3,1.5-3.6,1.8l10.7,16.5h-7.4l-9.7-15.5h-2.6v15.5h-6.5v-31.9l-.7-2.9ZM678.4,681v9.9h3c1.2,0,2.3-.2,3.3-.5,1-.3,1.8-.8,2.3-1.6s.9-1.8.9-3.1-.3-1.9-.8-2.6-1.2-1.2-2-1.6c-.8-.3-1.7-.5-2.7-.5h-4.1Z"/>
    <path class="st2" d="M699.3,676.3h21.9v4.7h-14.7v9.9h11.2v4.7h-11.2v10.9h14.7v4.7h-21.2v-31.9l-.7-2.9Z"/>
    <path class="st2" d="M733.3,676.3l13.7,20.8c.3.5.7,1,1,1.5.3.5.6,1.1,1,1.6,0-.6,0-1.2-.2-1.8,0-.6-.1-1.2-.1-1.8v-20.3h5.3v35h-5.1l-15.7-23.9c-.3-.5-.7-1.1-1-1.6-.3-.5-.7-1.1-1-1.6,0,.5.1,1,.2,1.6,0,.5,0,1.1,0,1.6v23.7h-5.3v-31.9l-.7-2.9h7.8Z"/>
    <path class="st2" d="M767.2,681h-9.7v-4.7h26.3v4.7h-9.8v30.1h-6.8v-30.1Z"/>
  </g>
  <g>
    <path class="st2" d="M60.1,682.9l9.7,28.4c.4,1.3.8,2.5,1.1,3.8.3,1.3.6,2.6.9,3.9.4-1.6.8-3.1,1.2-4.7.4-1.5.9-3.1,1.5-4.6l9.2-26.9h7.5l-17.2,49.8h-6.7l-17.1-49.8h9.9Z"/>
    <path class="st2" d="M108.6,733.1c-2.7,0-5-.5-7.1-1.4s-3.8-2.2-5.2-3.8c-1.4-1.6-2.5-3.5-3.2-5.7s-1.1-4.5-1.1-7,.4-4.9,1.1-7.1c.7-2.2,1.8-4.1,3.2-5.7s3.1-2.9,5.2-3.8c2-.9,4.4-1.4,7.1-1.4s5.1.4,7.2,1.3c2.1.9,3.8,2.1,5.2,3.8s2.5,3.5,3.2,5.7c.7,2.2,1.1,4.6,1.1,7.2s-.4,4.9-1.1,7.1c-.8,2.2-1.9,4.1-3.3,5.7-1.4,1.6-3.2,2.9-5.3,3.8-2.1.9-4.4,1.3-7.1,1.3ZM108.8,728.6c1.8,0,3.4-.4,4.6-1.2,1.2-.8,2.2-1.8,2.9-3.1.7-1.3,1.3-2.7,1.6-4.3.3-1.6.5-3.1.5-4.7s-.2-3.1-.5-4.7c-.3-1.6-.8-3.1-1.5-4.4-.7-1.3-1.7-2.4-3-3.3-1.3-.8-2.8-1.2-4.7-1.2s-3.4.4-4.6,1.2c-1.2.8-2.2,1.8-2.9,3.1-.7,1.3-1.3,2.7-1.6,4.3-.3,1.6-.5,3.1-.5,4.6s.2,3.1.5,4.7c.3,1.6.8,3.1,1.6,4.4.7,1.3,1.7,2.4,3,3.3s2.8,1.2,4.7,1.2Z"/>
    <path class="st2" d="M128.8,697.8h7.2v30.1h13.7v4.7h-20.3v-31.9l-.6-2.9Z"/>
    <path class="st2" d="M156.6,702.5h-9.7v-4.7h26.3v4.7h-9.8v30.1h-6.8v-30.1Z"/>
    <path class="st2" d="M188,697.8l12.3,34.8h-7l-3.4-10h-10.4l-3.5,10h-5.5l12.3-34.8h5.2ZM184.6,706l-3.6,11.9h7.2l-3.6-11.9Z"/>
    <path class="st2" d="M218.8,697.2c1.2,0,2.6.1,4.2.4s3,.7,4.5,1.2c1.4.5,2.6,1.3,3.6,2.2l-3.5,3.9c-1-.8-1.9-1.4-2.7-1.8-.8-.5-1.7-.8-2.6-1-.9-.2-2.1-.3-3.4-.3-2,0-3.6.4-5,1.1-1.3.7-2.4,1.8-3.2,3-.8,1.3-1.4,2.7-1.8,4.3-.4,1.6-.5,3.3-.5,5s.2,3,.5,4.5c.3,1.6.9,3,1.7,4.4.8,1.3,1.8,2.4,3,3.3,1.2.8,2.7,1.3,4.5,1.3s2.8-.3,3.9-.9c1.1-.6,2-1.5,2.6-2.5.6-1.1,1-2.4,1-3.9v-3h-7.2l.6-4.2h13.2v8.8c-.1,1.7-.1,3.3,0,4.9,0,1.6.1,3.3.2,4.9h-3.4l-1.6-3.6c-1.6,1.5-3.1,2.5-4.7,3.1-1.6.6-3.5,1-5.7,1s-4.8-.5-6.8-1.4c-1.9-.9-3.5-2.2-4.8-3.8-1.3-1.6-2.2-3.5-2.9-5.6s-1-4.4-1-6.8.4-5.2,1.2-7.4c.8-2.2,1.9-4.2,3.4-5.8,1.5-1.6,3.3-2.9,5.5-3.8,2.2-.9,4.6-1.3,7.4-1.3Z"/>
    <path class="st2" d="M236.5,697.8h21.9v4.7h-14.7v9.9h11.2v4.7h-11.2v10.9h14.7v4.7h-21.2v-31.9l-.7-2.9Z"/>
  </g>
  <g>
    <path class="st2" d="M454.7,14h17.1c3,0,5.8.4,8.4,1.3,2.5.8,4.6,2.2,6.1,4.2,1.5,2,2.3,4.7,2.3,8.1s-.5,3.7-1.5,5.5c-1,1.8-2.3,3.3-3.9,4.5-1.6,1.2-3.3,2.1-5.2,2.5l15.2,23.6h-10.6l-13.8-22.2h-3.7v22.2h-9.3V18.2l-1-4.1ZM465.1,20.8v14.1h4.4c1.8,0,3.4-.2,4.8-.6,1.4-.4,2.5-1.2,3.3-2.3.8-1.1,1.2-2.6,1.2-4.5s-.4-2.7-1.1-3.7c-.7-1-1.7-1.7-2.9-2.2-1.2-.5-2.5-.7-3.9-.7h-5.8Z"/>
    <path class="st2" d="M493.9,29h21.9v4.7h-14.7v9.9h11.2v4.7h-11.2v10.9h14.7v4.7h-21.2v-31.9l-.7-2.9Z"/>
    <path class="st2" d="M530.8,28.4c1.8,0,3.5.2,5.2.7,1.7.5,3.2,1.2,4.6,2.1l-3.3,4.1c-.9-.8-1.9-1.3-3.1-1.8-1.2-.4-2.4-.6-3.5-.6s-2.4.3-3.4,1-1.5,1.7-1.5,3,.2,1.7.7,2.4c.5.7,1.1,1.2,1.9,1.7.8.5,1.6,1,2.6,1.5,1.1.5,2.3,1.1,3.5,1.7,1.2.6,2.3,1.3,3.3,2.1,1,.8,1.8,1.8,2.5,3,.6,1.2,1,2.6,1,4.3s-.6,4.3-1.7,5.9c-1.1,1.6-2.6,2.8-4.5,3.7-1.9.8-3.9,1.2-6,1.2s-3.9-.2-5.8-.6c-1.9-.4-3.7-1.1-5.4-2.1l2.2-5.3c1.1,1,2.4,1.8,3.9,2.5,1.5.7,3,1,4.5,1s2-.2,2.9-.6c.9-.4,1.6-.9,2.2-1.7.6-.7.9-1.7.9-2.8s-.3-2.1-1-2.8c-.6-.7-1.5-1.4-2.5-2s-2.1-1.1-3.3-1.7c-1-.5-2.1-1-3.1-1.5-1-.6-1.9-1.2-2.8-1.9-.8-.7-1.5-1.6-2-2.7s-.8-2.3-.8-3.8c0-2.3.6-4.2,1.7-5.7,1.1-1.5,2.6-2.5,4.4-3.2,1.8-.7,3.7-1,5.8-1Z"/>
    <path class="st2" d="M544.6,29h7.2v34.8h-6.6v-31.9s0-.3-.2-.7c-.1-.4-.2-.9-.3-1.4,0-.5-.2-.7-.2-.8Z"/>
    <path class="st2" d="M568.1,28.4c1.8,0,3.5.2,5.2.7,1.7.5,3.2,1.2,4.6,2.1l-3.3,4.1c-.9-.8-1.9-1.3-3.1-1.8-1.2-.4-2.4-.6-3.5-.6s-2.4.3-3.4,1-1.5,1.7-1.5,3,.2,1.7.7,2.4c.5.7,1.1,1.2,1.9,1.7.8.5,1.6,1,2.6,1.5,1.1.5,2.3,1.1,3.5,1.7,1.2.6,2.3,1.3,3.3,2.1,1,.8,1.8,1.8,2.5,3,.6,1.2,1,2.6,1,4.3s-.6,4.3-1.7,5.9c-1.1,1.6-2.6,2.8-4.5,3.7-1.9.8-3.9,1.2-6,1.2s-3.9-.2-5.8-.6c-1.9-.4-3.7-1.1-5.4-2.1l2.2-5.3c1.1,1,2.4,1.8,3.9,2.5,1.5.7,3,1,4.5,1s2-.2,2.9-.6c.9-.4,1.6-.9,2.2-1.7.6-.7.9-1.7.9-2.8s-.3-2.1-1-2.8c-.6-.7-1.5-1.4-2.5-2s-2.1-1.1-3.3-1.7c-1-.5-2.1-1-3.1-1.5-1-.6-1.9-1.2-2.8-1.9-.8-.7-1.5-1.6-2-2.7s-.8-2.3-.8-3.8c0-2.3.6-4.2,1.7-5.7,1.1-1.5,2.6-2.5,4.4-3.2,1.8-.7,3.7-1,5.8-1Z"/>
    <path class="st2" d="M589.7,33.7h-9.7v-4.7h26.3v4.7h-9.8v30.1h-6.8v-30.1Z"/>
    <path class="st2" d="M621.1,29l12.3,34.8h-7l-3.4-10h-10.4l-3.5,10h-5.5l12.3-34.8h5.2ZM617.7,37.2l-3.6,11.9h7.2l-3.6-11.9Z"/>
    <path class="st2" d="M643.8,29l13.7,20.8c.3.5.7,1,1,1.5.3.5.6,1.1,1,1.6,0-.6,0-1.2-.2-1.8,0-.6-.1-1.2-.1-1.8v-20.3h5.3v35h-5.1l-15.7-23.9c-.3-.5-.7-1.1-1-1.6-.3-.5-.7-1.1-1-1.6,0,.5.1,1,.2,1.6,0,.5,0,1.1,0,1.6v23.7h-5.3v-31.9l-.7-2.9h7.8Z"/>
    <path class="st2" d="M685.1,64.4c-2.8,0-5.2-.5-7.3-1.4-2.1-.9-3.8-2.2-5.2-3.8-1.4-1.6-2.4-3.6-3.1-5.8-.7-2.2-1-4.6-1-7.2s.4-4.9,1.1-7c.8-2.2,1.9-4,3.3-5.7,1.4-1.6,3.2-2.9,5.3-3.8s4.4-1.4,7-1.4,2.4.1,3.8.4c1.4.2,2.8.6,4.1,1.1,1.3.5,2.4,1.1,3.3,1.9l-3.4,4.4c-.6-.7-1.3-1.2-2.1-1.7-.9-.5-1.8-.8-2.7-1.1-1-.2-1.9-.4-2.8-.4-1.8,0-3.4.4-4.7,1.1-1.3.7-2.3,1.8-3,3-.8,1.3-1.3,2.7-1.6,4.2-.3,1.5-.5,3.1-.5,4.7,0,2.9.4,5.3,1.2,7.4.8,2,2,3.6,3.5,4.7s3.3,1.6,5.5,1.6,2.7-.2,4.2-.5c1.5-.4,3.1-1,4.7-1.8l2,3.5c-.9.6-1.8,1.1-2.7,1.6-.9.4-1.8.8-2.7,1.1-.9.3-1.9.5-2.9.6-1,.1-2.1.2-3.2.2Z"/>
    <path class="st2" d="M699.6,29h21.9v4.7h-14.7v9.9h11.2v4.7h-11.2v10.9h14.7v4.7h-21.2v-31.9l-.7-2.9Z"/>
  </g>
</svg>