<?xml version="1.0" encoding="UTF-8"?>
<svg id="Layer_1" xmlns="http://www.w3.org/2000/svg" baseProfile="tiny" version="1.2" viewBox="0 0 917.4 1073.7">
  <!-- Generator: Adobe Illustrator 29.1.0, SVG Export Plug-In . SVG Version: 2.1.0 Build 142)  -->
  <rect x="389.3" y="245.6" width="161" height="58" fill="#00bcd6"/>
  <path d="M405.3,174.6l3.6-2.5c2.8-8.9,9.3-18.2,15.5-24.6,8.3-16.2,19.2-32.8,31.8-46,14.8-8,28.6-.9,36.4,16.4,15.5,23.9,34,45.8,47,71.4l-2,2.3c4.8,10.9.4,13-13.2,6.1-15-18-26.4-40.2-41-59l-1.2.3-8.8-13.3c-1.4,1.4-2,.7-1-1-4.1-4.8-9.1-2.5-15,7-9.1,12.7-17.7,25.7-26,39l.5.9-27,40.7c1.5.9,1,1.7-1.5,2.4,18.5,2.9,36.8,6.9,55,11.9,1-2.8,5.8-1.4,4.8,1.4,21.1,4.2,48.8-10.7,70.2-13.2-1.4-3.6-3.3-6.9-5.6-10l.6-1c.3-4.4,4.7-1.7,6.6.9,2.8-3,5.8-5.9,9-8.8,3.6,4.7,7.4,10.3,10.2,14.8,45.7-12.4,34.4,46.2,40.8,73.1,18.5,44.8-9.5,63.8,8.4,63.8,26.7-.5,55.8,20.4,56.7,47.2,9.8,23.8,0,57.9-16.1,77.4,41.4,66.5,83,133,122.3,200.7.3,4.3-6.6,4.1-8,.4.3-5.4-1.2-8.3-4.4-8.8-10.7,0-14.7-3-11.8-8.8-2.9.5-5.1,0-6.8-1.8-1.5,0-1.9-.8-1-2v-2.4c4.8-2.7,3.4-7-4.3-12.8-.5-5.5-2.4-6.8-5.6-4-12.7-3.9-7.4-22.6-19.1-26.9-1.7-.4-1.7-1.4,0-2-1.2-2.1-1.6-4.9-1.1-8.3-2.7-.9-4.7-2.1-5.9-3.7-.9-.2-.9-.6,0-1-2.1-.8-2.5-2.6-1.3-5.6-2,1-3.6.8-4.7-.4-1,.7-2-.9-2-2-1-.5-1.9-2.2-1-3-.6-1.5,0-2.8,1.9-3.8-3.1-2.2-3.4-4.8-1-7.8-4.3.5-7-.3-7.9-2.4-2,3.2-6-3.6-5-6l-1-1c-1.9-.3-4.2-4.5-3-6l-2.2-7.7c-1.6.7-2.9.6-3.8-.3-24.5-38-48.5-76.3-72-115-1.4-2.6-10.5-11.2-8-13-7.1.6-14.1,2.6-21,6,.9.3.9.7,0,1,2,4.8,4.5,9.5,7.5,13.8l-.5,1.2c-3.2.8-2.6,1.8,2,3,3.3,0,4.7,7.1,4.1,10.1,7.4,5.3,15.5,16.5,16.9,25.1,4.5,3.3,7.9,8.3,9.2,13.8,3.4,3.1,5.9,5.5,6.6,10.3,7,8.5,14.4,19,17,29.9l1.9.5c6.1,7.7,11,16.1,14.5,25.2,6,6.2,13.8,15.7,15,24.1,5.3,4.2,8.4,9.8,10.5,16.1,9.7,13.5,18.8,27.5,27.3,42,1.1.9,2.4,3.3,1,4-.7,6.9,8.8,8.6,7,10l1,1c1,.2,1.2,1.1,1,2-2.8,7.7,7.7,5.2,7,12l1,1c.9.2.9.6,0,1,1.5,1.3,1.5,2.9,0,4.9,2.2,0,3.8.6,4.9,2.1.9-.3,2.6,1.9,2,3,1.5,13.6-9.7,18.3-12.3,2-6.5-7.9-11.4-14.9-14.9-24.6.5-1.6-.4-2.1-2.8-1.3-.2,2.3-4.6,2.2-5,0-5.5-3.9-9.2,5.6-17,0-5.7-4.3-8.3,4.6-12,0-11.9-4.8-19.1,4-24,0-2.9-2-4.6,3.6-7,0-7.9-4.6-11.2,3.7-13,0-4-3.8-5.8,3.9-9,0-7.4-4.5-14.3,3.4-21,0-2-1.2-3.7-1.8-6,0-5.9,1.4-12.1,1.3-18,0-4.2-3.6-5.4,3-7,0-5.4-3.4-13.6,3.5-25,0-1.9-1.2-2.8-1.7-5,0-10,3-29.2-5.4-37.6.8.4,3.2-.8,88.1.1,87.7-1.3,6.2-1.3,11.9,0,17,.5,11.1,0,22.3-.3,33.4s-.7.2-1.3.2c3,10.9,2.1,24.6.4,35.8l-3.7,3.3c14.6,5.9-12.9,14.5-7.7-2,1.3-.7,1.3-1.3,0-2-.2-57.8-.6-115.7-1.2-173.5l-210.8.5c-30.5,50.1-60.8,99.8-90.9,149.2-4.3-.5-5.2.9-2.7,4.2-13.8,24.7-28.3,48.9-43.6,72.6-1.9.5-7.8-7.1-8.8-8.9-1-1.3.5-3.8,2-4l2-3c-.3-1.7,1.2-5.1,3-5l1-2c-1-1.2.5-3.1,2-3,1.2-3,2.9-5.8,5-8.3.5-3.1,1.6-5.5,4.8-3.9-1.4-6,.8-10,7.4-8.8-1.3-7.4.4-12.9,5.1-16.6,2.2-7.6,6.4-10.4,12.6-8.4l-.8-10.5c1.2-1.6,3-3,5.4-4.1.8-6.9,3.2-7.9,9.4-9.5l.3-2.5c-4.8-8,2.9-15.2,9.2-19.4l-.9-3.4c3.9-5.7,7.5-11.5,10.8-17.4,4.5,2.4,6.6-4.7,5.6-8.4,1.1-3.9,5.2-9.5,9-10.4.3-8.4,5.2-17.3,11.1-23.3,2.5-1.4,2.7-2.3,3-5-1-3.3,4.3-5.1,5-8-.6-1.1,0-2.2,1-3,3.4-1.7,3.5-2.2,4-6-.2-.8.3-1.6,1-2l26.3-40.7c-.3-1.3-.5-2.3.7-3.3,1.6-4.9,5.4-10.6,9-14,1.4-2.5,1.9-7,5-8,.9-5.5,4.9-10.4,8-15,25.2-38.7,48.5-82.2,75-120,4.7-8.2,8.4-17.9,15-25,4.4.4,5.7-1.3,3-5-.3-1.9,2-5.8,4-6l2-1.7c2.4,2.6,3.1-3.4,2-5.3.6-3.6,2.3-6.9,5-10-.3-1.5.3-3.4,1.9-5.8.5-2.7-15.6-7.9-18.6-7.9-8.9,2.3-9.5,19.7-18.3,23.6-14.3,23.8-27.5,49.6-45.9,70.1,0,3.8-1.3,10.9-5.8,9-1.1.5-4.8,12.5-3,14-.2-.6-5.6.6-6.2,1,.8,7.6-3.8,12.2-10.1,17.1,1.7,1.2,2,2.5,1,3.8,2.7,1.7,1.7,3.2-1.1,1.7-1.5,2-3.2,2.8-5.2,2.4-.4,4-1.5,7.9-3.2,11.6,2.9,1.7.6,4.1-1.2,1.7-1.4,1.5-3.4,2-6,1.4,2.7,7.2-2.1,12.3-8.4,15.4,2.9,4.7-.7,9.9-6.1,10.1,1.4,6.8-2.3,12.5-8.6,15.3,6,2.9-5.6,7.3-1,11.4-1.3-1-7.6,2.1-7.9,3.7,2.2,5.9-1.9,9.1-7.4,8.9-2.4,5,.6,11.1-4.1,14.2-3.8-3.1-5.2-1-4.4,6.3-1.3,11.4-18.6,15.1-26.8,10.5,23.4-40,47.2-79.9,71.4-119.6l-.6-.7c-64.7,54.5-104.5-4.6-75.8,9.6,4.5-2.2,10.1-1.8,16.5,1.1,1.8-1.8,3.6-3.5,6.3-3.8,13.1,1.4,18-.3,14.5-5.2.4-.7,1.4-2.4,1.1-3.3,5.6-2.5,10.9-5.5,16-8.8-.3-.9,0-1.3,1-1,.3-1.2,1.3-1.9,3-2-.4-.9,0-1.2,1-1,1.2-1.6,2.5-2.6,4-3-.9-2.8,2.3-6.3,5-5,.7-2.6,19.8-26.9,5-18.1.4.9,0,1.2-1,1-1.1,1.6-2.4,2.6-4,3,.4.9,0,1.2-1,1-4.4,4.9-34,20.3-27,3-1.8-2.6,2.3-6.4,5-5l1-1c-1.7-2.4,1.5-5.6,4-4l7-8c-.3-.9,0-1.3,1-1l1-1c-.9-.3-.9-.7,0-1l18.6-28.1c.6-1.3-1.3-2.5-2.6-1.9,1.2,1.4.7,2-1,1l-2,2c-1.8,5.8-9.4,12.7-15,15-1,1.4-2,2.1-3,2,1.3,2.5.5,3.3-2,2l-1,1c1.5,2.6-.1,4-3,3-.3,1.2-1.3,1.9-3,2,.3.9,0,1.3-1,1-7.9,6.6-15.2,7.9-22,4-3,.4-3.5-1.3-1-3v-1c-1.4-1.4-.8-2,1-1l3-3c-1.3-2.5-.4-3.3,2-2l5-5c-1.3-1.5-.7-2,1-1l13-19c-.4-.9,0-1.2,1-1,1.1-2.1,2.4-4.1,4-6-.8-2,0-2.7,2-2,.1-1.7.8-2.7,2-3-1.3-1.5-.7-2,1-1,.6-1.5,1.6-2.9,3-4,1.2-5,7-10.8,12-12l7.2-7c0-1.3-.7-2-2.1-2.1-30.1,16.6-68.6,36.1-101.1,14.1-.9.3-1.3,0-1-1-1.7,0-2.7-.8-3-2-2.4,1.6-4.5-.5-3-3-2.9-1.7-2-6.6,1.4-7.2,74.9,24.2,136.4-76,211.7-32.3,2.1-.2,1.4-2.4-2.2-6.5-2.6,1.1-3.1.6-2-2l-1-1c-2.5,1.5-4-.2-3-3l-5-8c-.9.3-1.3,0-1-1-45-32.9-98,8.3-145.7-13.1-46.6-20.7-96.5-38.8-146.2-19.9-2.9,1.6-23.3,5.6-20.1,9.6,7.5,1.4,15,3.5,21.7,7.1,1.9-3.2,9.4,2,7.3,5.4,2.4-1.5,3.2-.5,2,2l2,2c2.3-2.1,5.6,1.5,4,4,31,28.7-4.5,90.1,44.2,103.6,13.1,2.2,25.1,6.7,35.8,13.3.9-.4,1.2,0,1,1l1,1c1-.3,1.3,0,1,1,10,17.9,14.4,39.1,24,57,2.1,3.4-1.3,4.5-10,3.2,1.9,3,3.2,6.8-1.2,7.7-13-2.5-22.3-43.8-30.1-56.2-19.1-9.2-49.2-9.1-57.7-32.2-6.7-5.2-7.5-14.7-7.9-22.6l-1.7-.8c-2-12.3-3.5-24.6-4.4-37-6.1-37.9-26.2-43-60.6-41-14.1.7-17.6-14.7-5.4-20.4,52.9-48.1,130.1-42.9,191-13.1,30.1,13.4,60.1,13.2,91.2,4.4,16.1-2.8,32.3-.5,48.1,2.2,3.3-4.3,0-12.5-1.3-18.2.3-13.4,3.5-26.5,8-39.7,2.1-27-4.6-75.7,36.5-67.8,7.1-10.7,14.2-21.2,21.6-31.5,0-1.2.7-2.2,2-3l.2-.5ZM412,257.8c-14.3,3.6-12.4,33.1,8.5,29.5,17-2.9,14.6-35.3-8.5-29.5ZM520,257.8c-15.4,3.1-14.1,32.5,6.5,29.5s14.8-33.9-6.5-29.5ZM360.3,295.6c0,.2,0,.7,0,1-2.9-.7-3,7.1-3,8.5-.8,20.4,4.9,38.2,18,53.5,50.7,71.6,207,52.4,207.1-46.5-.5-27.3-6.5-12.3-20.1-7-20.5,7.9-40,8.5-61,2.1-8.4-2.6-22.7-12.7-30.5-12.6s-25.7,12.5-35.3,14.8c-27.9,6.9-51.9-2-75.2-13.7h0ZM627.3,373.6c-12.3-9-39.8-17.3-46,1-4.5,4.1-8.7,10.2-13,14-5.6,5.1-12.9,8.4-19,13,0,0-22,8-22,8-.7,3.1,2.7,2,4.5,2,30.1.8,63.9-32,90.5-7,3.2,6.6,8,13.9,1,20-1.8,1.6-8-.4-8,2.5s15.9,27.5,17.5,27.5c13.8-23.4,20.5-60.7-4.5-80-19.3-15.7-.6-.7-1-1ZM462.3,419.6c-5.8,5.7-12,11.8-16,19-17.7,24.2,20.9,1.8,27-3,5.2-4.2,2.5-2.3,4-4s3.2-1.4,3-4c17-16.6-7.5-13.8-18-8ZM562.3,443.6c-1.5-2.4-11-17.2-12-17.5-16.6,1.1-31.2,3.9-48-4.5-1.4,1-4.8,12.3-8.5,17-8.8,11.1-27.9,22.9-41.5,26.5-67.5,17.5-8.8-45-13-48.5s-17.4,2.4-20.6,2.9-6.2-1.8-8.7-.9c-16.1,20.5-39.9,63.6-53.7,86-3.4,1-5.4,7.1-7,10s0,.7,0,1c-4.7,2.3-6.6,10-9,14s0,.8,0,1c-4.6,5.8-9.1,14.2-13,21-4.2,7.6-12.6,17.9-17,28-1.7,2.3-4.1,2.9-4,7-2.8,1.5-20.6,33-14,23-3,0-3.7,4.8-5,7s.1.8,0,1c-5,6.3-11.9,17.9-14,26h-.5l-.5.5.5.5.5-1c.5,0,411.3,0,412,0,.2-2.1-.6-8.1-4-8-1.4-2-2.7-3.9-4-6,0-3.4-2.4-4.8-4-7s-.7-.6-1-1c.5-4.1-2.2-4.6-4-7s-.7-.6-1-1c-.2-.6-1.3-2.6-2-3-.7-4.9-4.5-8.1-7-12s-.8-.6-1-1c-.3-2.2,0-5.6-3-5-2.5-3.7-3.2-11.3-8-13,.2-1.6-1.6-2.9-2-4-.5-.9-.8-.6-1-1-1.4-5.9-5.7-10.2-9-15s-.7-.6-1-1c-1.1-1.9-7.8-12.7-9-15-5.4-9.2-11.3-18.9-17-27-.7-1.7-10.4-17.2-9-14,0,0-5-8-5-8-.4-2.2-1.4-7.3-4-7-2.3-3.9-2.8-8.4-7-11-1.8-4-5.8-8.2-8-12-2.1-2.2-.9-8-5-8,0-.3,0-.7,0-1-.6-1.7,1.3-3.6-2-3-.6-5.9-2.9-5.7-5-9Z" fill="#043d41"/>
  <path d="M62.3,942.6c-21.5-.7-26.1-24.6-15.5-40l217.5-359c-34,27.9-77,38.1-102.2-7.3-5.1-9.3-10.7-33.9-15.8-39.2s-28.6-8.3-38.5-13.5c-57.4-29.7-7.2-109.8-69.3-120.7-13.1-2.3-45.2,6.5-37.3-15.9s55-35.3,70.3-38.7c64.2-14.3,87.8,6.6,143.3,24.4,45,14.4,67.1-6.6,108.9-1.9,2.9.3,15.1,4.4,15.6,3.8s-.9-8.2-1-10c.8-3.7,4.3,10.8,4,10-1.3,1.8-37.4-2.7-44.5-2.1-13,1.2-27.3,6.9-40.1,8-44.1,3.6-84.5-29.1-131.1-33.7-32-3.1-99.9,6.9-116.3,36.8-.5.5-8.6-2.7-8.1,9.5.5,12.2,27.5,5.7,38.9,8.1,41.1,8.9,32.3,46.3,38,76.8,5.7,30.5,2.9.1,3.2,1.2.7,7.7-1.3,18.8,7.8,22.6.8,1.3-.6,4.2,1.1,6.4s8.1,7.8,11.1,10,3.4-.9,3.9-.5c1.3,9.9,32.1,10.3,40.6,16.9l16.7,40.3c1.7,7.9,20.9,24.2,10.7,7.8,5-3.1,12,2.5,13-2,.2-.9.5-.9,1,0,1,0,1.6.5,2,1,1.7-.4,4.9,1.1,5,3h1c1.3-1.6,3,1.1,4,2,8.1-.7,18-3.1,26-4,10.8,16.7-20.3,3.4-20.7,13-6.8.3-11.8-5.8-17.8-1.1-1.3-.1-5.9-5.9-7.5-1.5s19.2,11.9,23.6,12.3c24.2,3,44.2-13.1,62.3-24.8l-71.5,120c-3.4,6.3,19.2.4,21.3-1.2,4.8-3.9-.6-10.3,2.8-14.7,3.4-4.3,5.8,1.6,7.5,0s-1.8-3.9-1.7-5.3c1.3-15.8,7.8-6.4,10.2-9.7,3.1-4-8.3-9.1,7.3-11.1.6-1.3-.6-7,3.1-5.9,1-2.9-4.5-2.3-3-5.5s8.9-2.9,9.8-5.8-2.2-7.6-.3-9.8,5.6,0,7.1-1.9-2.1-5.1-1.5-7.4,8.3-3.8,9.4-6.7-2.9-8.5-.4-9.8,6.8.5,7.8-.2,1.6-14.4,2.1-14.9,8.5,1.9,8-3-4.6-.2-2.5-4.1,10.6-6.4,11.5-10-4.6-3.8-1.1-7.4,5.6,0,6.1-.6c.6-1.8-1.1-19.6,8-14,1.3-.8-.4-7.8.4-9.1s5.1-2.2,8.6-6.9c-75.2,142.5-174.6,277.6-249.2,421.3.8,2,1.2,3.6,1.2,4.7,117.1,0,234.1.2,351,1l1-1c-1.2-1.3-.6-1.7,1-1,2.4-5.2,4.7-10.4,6-16-.9-.3-.9-.6,0-1-1.9-.6-2.7-1-.9-1H109.3c-15.3-2.8,1.6-25.1,6.8-29,6.1.8,5.8,7.5,9.9,7l40.8-69.3c-5.2-10.7,1.9-5.8,4.8-7.5,26.4-44.6,54.7-89.8,82.7-134.4,24.4-38.3,3.1-11.6,7.7-12.7l1.2,1.8c-45.3,75.6-90.7,151.2-136.1,226.8l-3.1,1.3c1.5.7.9,1.4-2,2l309.1,1.3c7.3-15.2,14.3-30.6,20.9-46.3-1.5-7.2,17.3-12.1,21-7,.5-.4.8,0,1,1,1.4,1.3,6.8,2.2,8.5,1.1,5.9-3.7-2.6-2.9-3-3.1-3.4-1.9,6.2-6.9,6.5-9.5.4-4.4-2.6-1.5-3-3s2.8-1.5,3.1-4c.5-4.8.3-14,0-19.1s-3.8-2.5-3.1-6,3-.6,3.1-2c.7-9.1.2-21.6,0-31s-3.3-1.9-3-5,3.5-6.6,3.1-12-3.1-1.5-3.1-4,3.1-1.6,3.1-4c.6-25.2.3-50.8,0-76.1,0-2.5-7.2-4.5,5.5-6.4s17.4-1.2,18.4,2c-6.5.7-13.2.7-20,0-4.2,2.5-.6,176.8-2,180.2,0-1.6.2-1.4,1,.8.2-.9.6-.8,1,0,1.1.2,2.4.5,1.2,1.2,58.3-4.5,45.5,7.7,27.8,50.8.3-.8.6-.8,1,0l312.7,1,1.3-1c.2-1.6,1.3-.3,1.1-.4-1.1-.2-1.9-.5-1.1-1.6-38.9-65.7-79.2-130.2-120.4-194.5-4.8,1.2-16.7-24.4-18-27.3,1-1.5.8-3.6-.6-6.2-1.9-.5-3.2-1-2-3,0,0-.3-1.9.7-2,7.8-1,2.2,2.8,4.4,8.2s12.1,15.3,14.4,18.9,1,7.4,1.7,7.8c8.5,6,4.7-6.6,8.9-8.9.3-.6.6-.6,1,0,6.1,8.2,11.6,16.8,16,26,36.6,58.8,73.5,118.7,110.4,177.3,3.5,4.2,10.7,17.6,2.3,19.7h-341.5c.9,0,.5.5-1.3,1l.9.7c-2.2,2.6-5.3,8.1-3.7,10.7l-2.2.6c.4.3.4.6,0,1,9.1,1.3,26.3-3.6,32,5h356l-1-1c5-6.6-15.6-31.9-19-40-46.1-75.6-93.1-150.6-138-227,17.9-1.2,5.5,3,7.5,6s11.8,1.8,14.5,3.5c5.4,3.4-1.5,14.2,9,9.5,51.8,78.3,99.4,157.2,147.7,237.7,6.8,13.9-2.2,31.4-17.7,31.3,0,0-359,1-359,1l.6.7-89,123.4c-19.3,17.1-34.1-3.9-24.8-24.1l14.4-45.2c3.5-8,3-11.8-1.4-11.4-20.1,7.9-48.8,12.2-35.1-19.4,3.4-7.5,7.6-15.1,9.4-23-.9-.3-.9-.6,0-1H62.3Z" fill="#043c40"/>
  <path d="M853.3,453.8c9.7,6.4-19.2,75.1-10,77.6,6.9.9,16.8-1.4,24.2-1.1,9.3-.7,16.7,6.3,10.4,14.8-17.6,21.3-58.1,112.8-76.9,115.7-15.4-1.5,7.3-68,7.9-81,2-15-42.2,8-33.4-17.9,7.6-11.9,66.8-124.1,77.8-108.1Z" fill="#d60000"/>
  <path d="M847.8,726.7c-7.2.2-16.3,0-14.1-9,12.6-29.8,31.8-57.3,49.2-84.4,27.4-27.8,3.5,44.9,3.5,52.9-.8,12.3,19.5-.5,20.8,9.9-12.1,29.3-31.7,57.1-49.6,83.6-16,12-8.9-22.1-7.2-30,1.2-7,2.7-14.9,3.2-17.9,1.1-5.4-1.1-5.6-5.9-5.1Z" fill="#d60000"/>
  <path d="M322.8,158.9c.8,6.8,16.1,15.5,18.9,20.7,4.2,5.4,0,15.4-7.4,12.4-9.9-4.2-46.3-29.3-55.2-36.7-12.1-13.5,20.1-10.5,26.1-11.7,1-.3,1.1-.7.7-1.5,1.1-3.6-64.9-58.6-34.1-57.2,11.9,6.6,57.6,47.3,72.3,62.8,3,10.9-17.1,8.4-21.3,11.2Z" fill="#e2b91e"/>
  <path d="M612.8,158.7c-4.2-3-21.1.3-23.4-7.9-4.7-15.1,66.3-64.3,69.9-65.8,4.5-1.6,9.3,2.4,8,7.3-4.5,12.6-37.3,41.6-40.8,49.3.3,1.7,5.2,1.6,8.8,1.9,6.5.2,26.8,1.3,17.9,11.2-10.4,8.1-47.8,35.8-57.9,37.6-11.4-2.1-3.6-13.7,2.7-18.6,2.7-3.1,16.8-12.7,14.8-15Z" fill="#e2b91e"/>
  <path d="M300,260.8c18,2.2-4,16-9,21.9-.4,4.3,20.3,6.9,12.4,14.3-6.2,2.5-38.6,12-42.7,5.1-2.4-4.7,11.4-13.9,8.7-16.3-3.2-1.6-12.4-2.3-17.2-3.4-45.7-9.3,40.6-21.7,47.8-21.6Z" fill="#e2b91e"/>
  <path d="M661.7,285.9c.4,4.4,11.1,11.1,9.2,16.1-2.7,6.9-35.8-2.8-40.6-3.8-12-7.7,12.9-10.7,9.1-18.8-2.8-5.3-16.1-13.7-11.5-17.2,4.4-2.5,10.1-1.5,15.2-1.4,40,4.3,71.3,18.9,18.7,25Z" fill="#e2b91e"/>
  <path d="M214.1,190.9c17.4,2,53.4,15.7,68.8,21.3,7,3.4,10.6,12.8,1.3,15.7-10.1,3-61.4-19.8-68.5-22.5-5.8-2.9-9.7-12.2-1.6-14.6Z" fill="#e2b91e"/>
  <path d="M721.4,193.4c1.7,3,.7,7.6-2.1,9.4-9,5.2-63.3,24.1-72.4,24.8-5.9-.8-6.2-8.2-2.1-12.4,8.3-7.3,17.9-7.6,34.5-13.8,9.8-1.9,37.9-15.2,42-8Z" fill="#e2b91e"/>
  <path d="M573.9,29.5c3.5-1.1,10.4,2.5,9.1,7.2-3.3,9.9-26.1,54.2-34,60.3-8.8,2.8-9.6-8.5-7.2-14.4,6.8-13.1,20.8-42.9,32.2-53Z" fill="#e1b81d"/>
  <path d="M354.1,29.8c7.2-1.8,7.6,2.4,12.2,8.9,7.6,12.2,24.6,42.7,26.9,51.5.4,4.1-6.1,9-9.9,6.4-4.8-4.4-19.6-30.3-24.4-39.6-3.1-7.2-14.7-23.4-4.8-27.2Z" fill="#e2b91e"/>
  <path d="M471.9,1.9c3.7,5.7,2.7,12.7,3.4,19.1.5,11.1,1.1,31,.2,40.5-.2,5-5.4,11.8-10.9,8.6-7,0-9.9-85.5,7.3-68.2Z" fill="#e1b81d"/>
  <path d="M136.5,663.8c.2,5.4,3.3,6.4,8.2,5.7,26.1-2.4-.4,30.7-7,41.2-1,1.2-1.5.9-1-.7,4.4-10.3,9.7-20.3,14.1-30.8.8-1.8,1.6-4.7-.9-5.4-10.5-.3-17.4,2.9-17.8-11.5-1.8-14.7,6.1-52.9-1.1-59.1-2.9.3-6,7.9-7.4,11-11.6,28.1-25.9,55.2-36.9,83.6-2.5,7.7,8.3,4.2,12.6,4.1,9.7-.6,6.6,9.9,5.7,16-1.6,10.1-4.7,29.8-5.5,35-1.7,36.6,29.1-33.9,34.7-39.5,4.7-2.3-2,7.5-3.5,11.8-3.9,7.6-31.4,67.2-35.4,34.6-1-14.2,7.5-40.7,6.9-53.4-1.3-2.3-4.5-.1-6.6-.2-4.3.2-11,1-13.4-3.4,7.1-21.1,33.4-85.6,42.7-100.4,24.1-20.2,8.4,50.9,11.7,61.4Z" fill="#ba391a"/>
  <path d="M707.3,574.6c251.1,443.9,361.5,363-169.3,369,0,0-86.4,120.7-86.4,120.7-9.1,15.3-31,11.3-31.3-7.3-.2-11.7,21.5-67.8,19.1-70.5s-70,33.8-28-42c2.2,7.7-18.4,31.3-10.1,42.6,8.3,11.3,12.2,4.5,13.5,4.5s6-1.8,9.8-2.3,16.4-7.3,17.5-2.3c1.8,12-46.5,98.5,3.7,82.5l91.6-126.9,359-1c14.2-2.9,21.2-13.1,18.3-27.7-7.9-24.8-40.4-63.9-49.5-84-.9-1-5.6-1-5.7-1.3-.5-.6,1.5-3.9.3-6.7-4-8.9-13.7-22.7-19.2-31.7s-3.8-.2-4.7-1.6.2-5.1-1-7c-43.2-68.6-86.5-137.1-127.5-207h-.1Z" fill="#073a40"/>
  <path d="M405.3,174.6c8.7-13.5,43.1-72.7,54.7-76.8,28-16.6,75.6,91.4,94.5,111.7,40.1-12.1,38.3,40,40,66.4,2.8,19.4,9.8,25.2,7.7,48.2s-5.7,19.8-5,20.5c69.6.6,84.4,79.4,48.5,128.1,21.8,33.2,41.2,67.9,61.5,101.9-21.5-34.2-42.8-68.7-65-102.5,15.7-16.5,28.5-57.5,15.9-76.9-.5-2.4,2.2-2.6,2.1-3-7-23.3-27.8-45.1-53.5-42.3-19.6-3.8-8.5-7.6-6.6-21.7,3.4-25.2-4.3-31.7-7.8-52s.4-56.7-15.1-64.4c-23.2-10.9-21.3,9.5-27.6-6.9-1.5-1.7-2.8-.8-3.2-1.2-.7-.8.5-5.1-1.7-5.8s-5,8.2-9.2,8.8-2.8-4.4-7.3-2.8c-2.2-.2-4.6-3.9-4-6,3.6-3.5,10.9,4.1,13,2s-2.1-7.4-2.1-9.3,3.3-.3,2.7-3.7c-3.9-6.9-31-50.6-40.1-56-5.7-8-11.5-27.7-23.3-30.9-11-2.9-8.7,1.6-9.2,1.9-2.6,1.3-2.6-4.8-10.5,2-5.8,4.9-22.3,31.5-27.5,39.5s-.5,6-.9,6.6-3.3-.4-3.7.2c-2.4,3.7-10.5,14.2-11.5,17-1.5,9,4.2,7.7-5.7,7.7-1.1.7-1.6,4.1-3,3,1-.9-.4-1.4,3-3v-.3Z" fill="#043c40"/>
  <path d="M411.3,942.6c0,0,0,.9,0,1l-349-1h349Z" fill="#073a40"/>
  <path d="M845.9,726.7c-8.2,1.1-15.8.8-13-8.9,5.4-20,39.2-71,48.7-84.7,2.4-2.8,7.2-10.1,11.1-8.6,12.5,7.7-5.4,50.7-5.2,62.9-2.5,8.5,16.6-3.2,19.9,5.7,3,14.4-39.8,72.3-47.5,85.5-2.2,2.6-4.5,5.3-7.7,4.9-14.7-3,2.1-44.3.6-57.8-.2-.7-1.2,0-1.4,0,5.5-2.6,3.4,7.2,2.7,12.3-23,107.3,32.8-12.4,50.5-36.6,9.1-15.9-18.5-2.1-19.2-14.1-2.2-10.9,17.3-55.2,6.8-58.8-6.1-1-13.5,12.8-17.2,19-8.5,13.4-33.6,52.9-39.2,66.4-3.6,8.8,1.3,12,10.2,12.7h0Z" fill="#d60000"/>
  <path d="M851.8,452.2c-17.2,2.9-63.4,90.8-75.4,108.4-8.6,24.7,31.1,6.1,34.4,14.6,2.3,10.8-17.8,70.9-14.3,82.3,4.1,7.2,9.9,2.2,13.1-2.8,24.6-27.1,45.4-81.2,68.4-112.2,1.1-2,1.5-4.6.7-6.5-4.1-11.1-33.3,1.9-38.3-5.3,12.1.3,44.4-9.2,40.3,11.2-20.7,31-66.1,113-76.4,119.6-16.4.4-8.4-20.5-6.4-35.9.8-9.6,12.6-47.3,8.4-50.5-10.4-3.4-25.6,6.7-32.9-4.7-5.2-7.6,76.9-142.9,78.5-118.5h0Z" fill="#ba391a"/>
  <path d="M403.3,177.6c-2.7,4.2-19.3,31.6-21,32.5-3.4,1.7-12.9-2.2-20.7,1.3-18.6,8.3-13,50.5-15.4,65.6-1.5,9.9-10.5,24.3-8.9,36.6.1-17.8,5-22.9,6.9-36.6,3-20.8-5.1-64.7,24.6-69.4s9.7,1.9,12.5.5,15.9-26,21-30.5c0,0,1,0,1,0Z" fill="#073a40"/>
  <path d="M99.4,705.7c-4,1.7-10,1.5-14,0,4.5.2,9.7-.7,14,0h0Z" fill="#948d25"/>
  <path d="M339.3,324.6h-1c-.2-2.3-.9-4.8-1-8,2.5,2.2,1.4,5.6,2,8Z" fill="#073a40"/>
  <path d="M792.3,575.7c-3.8,1.9-9,1.2-12.9,0,2.8,0,10.5-.3,12.9,0Z" fill="#dfb71d"/>
  <path d="M136.3,666.6c0-.6,0-2.4,0-2.9,0,.1-.2,2.4,0,2.9Z" fill="#b94322"/>
  <path d="M379.3,465.6c3.8-6,28-46.1,30.7-47s6.4,1.2,8.7.9,19.3-4,20.6-2.9c4.2,3.5-54.5,66,13,48.5,13.7-3.5,32.7-15.4,41.5-26.5,16.6-29.1-1.5-12.9,33-11,4.6.3,22.4-1.9,23.5-1.5s10.5,15.2,12,17.5c1.9,2.7,4.6,5.6,5,9,1.1.5,2.2,2.4,2,4,3.6,3.2,5.7,10.2,9,14,4,5.3,7.8,11.1,11,17,1.4,2,3.8,4.3,4,7,0,0,5,8,5,8,3.9,4.1,8.2,14,12,18,3.4,5.8,9.2,15.2,13,21,1.1,2.2,7.1,13.2,9,15,11.3,17.9,22.4,35.6,33,54,1.3,1,1.7,3,3,4,3.1,5.1,6.5,9.7,9,15,2.2,5.1,8.2,8,8,14-1,0-411.1,0-412,0,.5-2.8,4.4-10.9,6-14,.9-1.7,3.6-5.9,5-8,.7-.5,2.5-3.2,3-4,2.4-6.2,14.5-23.5,18-30,6.2-8.2,12.9-22.5,19-31,4.6-7.2,10.6-19.4,16-26,1.4-5.5,5.7-10.4,9-15,.9-5,6-8.4,8-13,5.8-9,16.9-27.7,22-37Z" fill="#11665b"/>
  <path d="M355.3,366.6c41.8,54.3-7.6-19-87.4,27-31.3,17-70,40.2-106.4,27.2-5.5-2.1-9.4,2.8-5.3,6.8,2,1.1,3,4.9,6,5,30.7,22.7,69.4,5.3,98.4-11.5,1.7-.9,7.4-3.7,7.1-.9-7.9,8.3-17.4,16.7-24.5,25.4-1.2.5-1.8,1.5-2,3-6,5.9-15.3,22.5-21,29-2.8,2.8-7.3,7.3-10,10-1.8,1.2-.8,3.4,0,5,7,4.1,15.7,2.1,23-5,1.6,0,2.6-.8,3-2,1.7-1.8,4.1-4.1,6-6,.9,0,1.9-.6,3-2,4.3-5.6,9.8-10.3,15-15,1.4-1.3,5.7-6.6,6.7-3-10.2,16.2-19.8,33-33.7,46-3.6,3.2-6.9,6.5-6,11,3.4,7.4,24.4-5.7,28-9,1.9-1.7,4.3-2.8,6-5,14.9-9-3.5,15.1-5,18-3,4.1-6.7,5.2-10,9-15.3,11.1-38.2,23.5-56,11-.3.6-.6.6-1,0-12.7-16-16.3-40.3-27-58-10.3-8.7-24.1-12.6-37.7-15.3-48.6-13.4-13.4-74.8-44.3-103.6-9.1-10.8-20.8-17.6-34.7-20-1.4-.2-3.3-2.3-3.1-2.4,54.1-28.4,114.7-13.1,166.7,12,47.8,21.8,100.9-19.7,146.1,13.3h0Z" fill="#d60000"/>
  <path d="M472.3,124.6c7.6,11.2,54.4,78.1,58.6,89.5-84.5,22.9-50.9,10.6-126.7-.9,18.7-29,37.7-57.8,57-86.4,3-4.6,7-7.4,11.1-2.2Z" fill="#e0b81d"/>
  <path d="M581.3,374.6c8.3-17.9,34.4-8.6,47,0,22.3,14,17.5,68.4,4.7,78.6-3.7,0-16.6-24.4-16-25.8,14.8-3.9,11.9-18.4,1.3-26.8-19-14.5-46.2.6-65.7,6.5-2.6.8-15.6,4.1-12.9-.2,15.3-8.6,31.3-17.9,41.6-32.4h0Z" fill="#d60000"/>
  <path d="M462.3,419.6c8.1-3.3,33.7-8.2,19,7-3.2,3-4.4,6.3-8,9-6.8,2.3-40.7,24.9-27,3,4-7.2,10.2-13.3,16-19Z" fill="#d60000"/>
  <path d="M210.3,718.6c3.7,10.7-3.3,8.2-4,9s.4,3.6,0,4-2.8-.8-4.1.6,3.6,7-3.9,14c-.9.8-3.6-.9-4-.6-.6.5-.6,5-1.3,5.8s-7,6.1-7.4,8.1,2,4.6,1.6,5.5-10.5,6.2-11.6,11.5,3.6,6.8,1.1,11-5.7,1.5-7.1,2.9c-2.4,4.9-.5,8-7.4,9.2-.3.5,1.6,10.7.6,12-5.3,3.8-9-6-12.9,8.6-1,1.5-3.4.2-4.3,3.2s.2,13.6-.4,14c-7.6-.3-8.7-.9-7,7.4-1.2,3-4.4.2-4.9.6.7,4.7-4.5,7.5-7,11,20-41.7,49.4-90.9,77-128.9,1.9-4.1,4.3-7.1,7-9h0Z" fill="#043c40"/>
  <path d="M685.3,643.6h-411,411Z" fill="#001d28"/>
  <path d="M262.3,656.6l212-1v174c2.2,0,2.2,1.5,0,2v6c-.3-.3-.8-.5-1-1l-2-.7v-176.6c-69-.9-138.3-1.1-207.8-.7l-1.2-2Z" fill="#081949"/>
  <path d="M355.3,366.6c-40-20.4-64.6-11.9-105.5-5.1-80.6-8.3-108.1-61.2-206.5-20,11.5,2.2,20.1,6.6,29,14-4.1-8.1-32.6-10.8-34-12,87.6-50.9,145.3,16.3,214.5,16,33.3-2,70.8-19.7,102.5,7h0Z" fill="#d60000"/>
  <path d="M457.3,131.6c3.7-4.4,11-17,15-7-10.6-14.5-54.8,79-67,88,20.3-.3,46.5,13.7,65.5,14.1s57.1-10.7,59.1-13c3.4-4-53.5-76.7-56.6-88.1,22.1,27.8,41.7,58.9,60,89.3-84.3,20.5-46.9,14.4-130-.4,11.7-22.8,38.9-60.1,54-83h0Z" fill="#f0e214"/>
  <path d="M510.3,655.6c4.7,0,9.3,0,14,0,1.4-1.7,3.6-1.7,5,0h17c2.5-1.7,5.5-1.7,8,0h2c1.6-1.6,3.4-1.6,5,0h18c2-1.7,4-1.7,6,0h8c5.7-2.8,11.2.2,17,0,1.6-1.6,3.4-1.6,5,0,4.5.2,8.6-2.8,13,0,1.3,0,2.7,0,4,0,.9-1.6,2.1-1.6,3,0h7c7.3-2.9,14.6.2,22,0,2.1-1.5,4.8-1.5,7,0h11c1.4-1.7,4.6-1.7,6,0,1.6,0,3.4.2,5,0,1.1.8,1.5,1.8,2,3-67.4-.3-135.5-.7-204.3-1l-.7-1c-2.7-2.8,17.4-.6,20-1Z" fill="#01014d"/>
  <path d="M156.3,427.6c-.2-.3-4,.3-2-5.5s15.4,1,20.6,1.4c62.7,4.4,95.8-50.9,157.8-46.8s25.5,5.6,37,11l-2.5-6c4.5,4.3,9.4,7.9,14,12-85.8-45.8-118.4,24.2-195.5,32.1-49.6.8-26.7-5-28.1-4.7-3,.6-2.5,4.6-1.5,6.7l.2-.2Z" fill="#d60000"/>
  <path d="M722.3,631.6c9.3-7.3,9,3.4,9.5,4,4.3,5.1,13.5,9.6,2.5,16-5.2-5.7-9.7-12.6-12-20Z" fill="#043c40"/>
  <path d="M618.3,400.6c-28.8-16.5-56.9,11.4-86.5,11s-5.2,1.1-4.5-2l22-8c-3,2.2-4.7,6.1-10,6,26.6,1.2,54.3-27,79-7Z" fill="#d60000"/>
  <path d="M360.3,295.6c23.5,11.8,47.2,20.6,75.2,13.7,9.5-2.3,28.4-14.8,35.3-14.8s22.1,10,30.5,12.6c21,6.5,40.5,5.8,61-2.1,13.6-5.2,19.6-20.2,20.1,7,1.8,90.1-137.8,116.6-193.1,60.5,47.5,34.8,117.9,38,164-1-.3-.9,0-1.3,1-1,20-16,28.1-45.9,24.4-70.3-1.6-2.2-1.4-1.2-1.8-1.4-22.7,12.8-47.9,21.3-73.9,9.8-1.8,2.8-11.5-1.6-11.1-4.8-36-23.3-48.2,30.2-115.2,1.3-3.4-2.2-17.3-6.3-16.5-9.7v.2Z" fill="#081949"/>
  <path d="M80.3,363.6c22.3,26.8,13.5,39.8,17.1,70.4,4.9,42.2,41.3,26.8,62.9,46.6-17.7-12.4-45.5-7.4-57.8-27.7s1.5-64.4-22.2-89.3Z" fill="#d60000"/>
  <path d="M163.3,433.6c43.2,23.7,75.4-4.4,113.5-20l-17.5,15c24.4-23.8-26,8.6-32.7,10.7-21.9,7.1-44.8,7.2-63.3-5.8h0Z" fill="#d60000"/>
  <path d="M628.3,374.6c24.8,19.2,18.6,56.9,4.5,80-2,0-17.5-25.9-17.5-27.5,0-2.9,6.2-.9,8-2.5-3.2,3.5-5.6,2.3-4.8,5.3,3.7,2.6,13,24.7,15.8,21.7,9.8-22.7,15.1-58.4-6-77Z" fill="#d60000"/>
  <path d="M682.3,565.6c1.7.4,9.1-.3,10,1s-2,4.1-1.9,5.3c.2,2,6.6,3.3-1.1,7.6-2.9-2.4-10.5-11.4-7-14h0Z" fill="#043c40"/>
  <path d="M360.3,295.6c21,14.3,47.6,20.6,73,15.5,9.9-2,32.1-15.5,37.5-15.5,28.5,9.2,47.3,24.9,82,14,17-4.7,25.5-13.1,26.5-12,4.7,25.1-3.3,57.3-25,73l.7-3.5c17.5-17.3,23.8-41.6,20.9-65.1-34.1,21.8-58.9,16.8-93.8.4-30.4-10.2-48.7,38.5-119.2-1.2-8.7,94.5,125.7,119.7,186.8,70.9l3.6-.4c-45.5,40.6-117.1,37.7-164,1s-.6-.7-1-1c-21.5-17-36.4-49.4-28-76.1Z" fill="#f0e214"/>
  <path d="M261.3,633.6l2,3-29,41c6-15.7,16.6-30,26-44,.3-.5.6-.5,1,0Z" fill="#043c40"/>
  <path d="M163.3,483.6l26,57h-2c-14.7-16-12.3-40.9-24-57Z" fill="#d60000"/>
  <path d="M610.3,493.6c.9.3.9.6,0,1,29.6,47.5,58.9,95.2,88,143v1c-7.8-7.2-13.8-21.1-18.3-29.7-9.7-12.3-9.4-6.2-13.3-21.2-1.6-2.6-7.8-5.6-8-6.1-.8-1.6,1.5-4.7.5-6.4-2.6-4.3-6.1-8.3-9.2-13.3s-6.4-4.1-6.6-4.4.7-6.2-1.1-9.1-4.6-4.4-6.3-6.9c-2.3-6.5-1-8.9-8.6-8.9,1-9.1-6.1-18.5-11.3-26.7-2.5-4.2-4.3-3-5.2-4.3s0-4.7-.7-5.9-4.1-.9-6.3-4.2-.5-5.5-1.6-7.1c-1.7-2.7-7.3-6.3-7.6-6.8-.8-1.6,1.3-4.1.5-5.4-1.7-2.7-7.3-12-8.9-13.9s-7.9-4.2-8.6-5.7c-1-2.2,1.3-5.6.6-8,11.4,15.8,22,32.1,32,49h0Z" fill="#043c40"/>
  <path d="M355.3,479.6c-20.6,38.3-45.3,73.8-67.7,111.2s2.6,7-4.3,5.8c-.3.5-.6.5-1,0,23.9-39.6,48.3-78.9,73-118v1Z" fill="#043c40"/>
  <path d="M524.3,197.6c2.1,4.7,12.7,14.6,8.2,19-22.6,1.8-44,13-66.5,12.7-7.2-5.2-61.4-11.8-62.8-14.7,20.8-2.3,48.8,13.9,67.5,14.1,16.9.2,43.7-13.5,62.1-14l-49.6-76c13.4,17.1,29.2,40.6,41,59h0Z" fill="#081949"/>
  <path d="M242.3,532.6c-11.7,9.6-26.8,15.5-42,14l-1-1c-1.5-.2-2.5-1.2-4-1-1.4-.6-3.1-2.1-5-3-.9-.3-.9-.6,0-1,17.9,9.3,36,.7,52-8Z" fill="#d60000"/>
  <path d="M698.3,591.6c12.8,0,6.7,8.9,7,12-3.3.7-8.9-9.3-7-12Z" fill="#043c40"/>
  <path d="M360.3,296.6c-6.3,15,3.9,48.2,14,61-12.3-15.5-17.8-32.4-17-52.5s.2-9.1,3-8.5Z" fill="#081949"/>
  <path d="M705.3,605.6c7-2.6,11.5,8.8,9,14-3.2-2.4-8.2-9.7-9-14Z" fill="#043c40"/>
  <path d="M627.3,373.6c-9.8-4.6-19.3-8.4-30.5-8.1-11.2.4-9,1.7-15.5,9.1,6.2-18.3,33.7-10,46-1Z" fill="#d60000"/>
  <path d="M364.3,419.6c.9-1.4,4.6-10.6,5.1-10.9,1.1-.6,22.1,5.9,22.9,6.9.9-.3-3.2,10.5-4,8-1.3,1.3-1.7.8-1-1-1-1.3-.7-2.9.9-4.8-.9-.8-18.3-7.9-18.3-2.8-1.5,3.3-3.4,4.8-5.6,4.6Z" fill="#dfb71d"/>
  <path d="M462.3,419.6c9.2-4.9,34.5-9.6,19,7,11.3-15.4-9.8-8.1-19-7Z" fill="#d60000"/>
  <path d="M473.3,435.6c-6.1,5.7-46.8,26.6-27,3l-2.5,9,29.5-12Z" fill="#d60000"/>
  <path d="M699.3,642.6c2.8,1.2,5.3,5.9,7,9-4,1-12.4-6.2-7-9Z" fill="#043c40"/>
  <path d="M587.3,416.6c94.3,153.5,193,309.9,286,464-100.2-147.5-191.3-307.1-286.9-459.5-.4-.7-15,3.8-15.5,4.4,14.4,21.9,28.7,44.2,39.5,68.1-14.2-23.8-33-45.8-44-71,6.5-2.7,13.2-5,20.1-6.9l.9.9h-.1Z" fill="#f0e214"/>
  <path d="M384.3,433.6c5.5-.9.4,9.6,0,10-2.6,2.2-1.1-4.5-4-3-.5-2.3,1.9-6.1,4-7Z" fill="#043c40"/>
  <path d="M692.3,584.6c11.3-5.6,5.2.7,6,6-2.2,3.6-6.1-3.5-6-6Z" fill="#043c40"/>
  <path d="M255.3,507.6c-4.1,4.1-15.1,11.6-20.7,11.7-9.4.3-11.2-1.9-6.3-8.7-2.4,16.6,20.6,0,27-3Z" fill="#d60000"/>
  <path d="M595.3,429.6c25.7,36.8,47.1,77.4,72,115,7.7.6,4.5,10.4,10,15,2.5,3.6-1,4.6,5,6-1.8,6.7,9.4,14,8,17-32.5-47.8-64.3-102.1-95-153Z" fill="#081949"/>
  <path d="M261.3,502.6c20.8-20.7.4,11.4-5,18-1.2-3.7,18.4-22.1,5-18Z" fill="#d60000"/>
  <path d="M673.3,552.6c-1.8-2.7-4.2-5.3-6-8,6.8-5.3,7.1,3,6,8Z" fill="#043c40"/>
  <path d="M642.3,655.6c0-3.3,16.9-3.3,17,0h-17Z" fill="#043c40"/>
  <path d="M376.3,446.6c7.2-.5,1.8,11.6-3,5,0-2.1,1.1-4.1,3-5Z" fill="#043c40"/>
  <path d="M708.3,655.6c1.7,1.5,4.1,4.6,4,7-6,3.7-8.5-7.2-4-7Z" fill="#043c40"/>
  <path d="M721.3,676.6c-12,1-4.7-4.9-5-7,2.3-.3,4.5,4.6,5,7Z" fill="#043c40"/>
  <path d="M232.3,488.6c-5.4,3.9-16.6,12.6-22,4,8.6,3.9,14.5-.2,22-4Z" fill="#e24a1d"/>
  <path d="M593.3,655.6c-.6-3.4,14.1-3.1,13,0h-13Z" fill="#043c40"/>
  <path d="M692.3,584.6c2,2.9,1.5,6,6,6,.2,4,2.7,11.4,7,13-1.1,3.9,7.1,12.5,9,16,30.8,48.5,59.8,98.8,92,151v1l-117-189h1c.5.7,1.5,1.3,2,2Z" fill="#073a40"/>
  <path d="M263.3,459.6c22.6-20.9-14.8,28.9-16,30,3.7-5.1,14.6-21.9,17.2-27.3s1.8-3.1-1.2-2.7Z" fill="#d60000"/>
  <path d="M566.3,422.6c.8-1.2,24.8-12,21-6l-21,6Z" fill="#081949"/>
  <path d="M573.3,438.6c1.5-.4,2.7,1.7,2,3-7.1,3.9-8.9-6.9-2-3Z" fill="#043c40"/>
  <path d="M126.3,856.6c-3.4,5.6-7.3,11.5-10,17-3.6,6.1-21.6,25.5-7.5,28,.6,2,320.8-3.8,317.5,2-3.7,1-7.3.3-11,0-4.3.7-8.7.7-13,0-9.6.5-19.4.6-29,0-26.9.9-54.1.3-81,0-.3.8-1.5.7-2,0h-8c-.3.8-2.3.7-3,0h-4c-1.2.8-4.4.7-6,0-5,0-10,1.1-15,0,0,0-4,0-4,0-7.9,1.2-16.1-.1-24,0-7.7,1.2-16.2-.3-24,0-.7.7-1.4.7-2,0h-4c-1.3.7-2.7.7-4,0h-6c-10.6,1.2-21.4,0-32,0-1,.7-2,.7-3,0-8.5-.5-19.6,1.3-28,0-3.4.3-7.7,1.2-11,0,0,0-3,0-3,0-21.3-3.2,9.5-35,13-45-1.3-1.5-.7-2,1-1,.8-1.6,1.8-2.6,3-3v2h0Z" fill="#081949"/>
  <path d="M618.3,655.6c-1.7-3,11.2-3.3,10,0h-10Z" fill="#043c40"/>
  <path d="M223.3,696.6c4,4.5,2.4,5.7-3,5,0-2.3,1-3.9,3-5Z" fill="#043c40"/>
  <path d="M622.3,404.6c6,7.7,8.4,10,3,18,3.9-6.9-.2-11.8-3-18Z" fill="#e24a1d"/>
  <path d="M546.3,655.6c-1.6-3,9.2-3.3,8,0h-8Z" fill="#043c40"/>
  <path d="M233.3,679.6c2,5.2,2,6.9-4,6,.8-2.2,2.3-4.3,4-6Z" fill="#043c40"/>
  <path d="M724.3,679.6h-1c.2-1.7-1.6-2.3-2-3-1.5-2.4-1.9-5.7-5-7v-1l-1-1c-.8-3.6-2.4-3.7-3-5-1.5-3.1-2.6-4.5-4-7s-.6-1.3-1-2l-1-1c0-.2,0-.8,0-1-3.5-5.4-7.7-7.9-8-13v-1c9.3,13.6,18.2,27.5,26,42Z" fill="#081949"/>
  <path d="M664.3,655.6c-1.9-2.6,8.4-2.9,7,0h-7Z" fill="#043c40"/>
  <path d="M682.3,655.6c-1.4-3,7.1-3.3,6,0-2,0-4,0-6,0Z" fill="#043c40"/>
  <path d="M579.3,655.6c-1.4-3,7.1-3.3,6,0h-6Z" fill="#043c40"/>
  <path d="M234.3,677.6c-1.5,3.7-5.6,7.2-6,11,.4,1.3-.3,3.1-2,3-7.3,11.5-14.4,26.4-23,36,6.5-18,19.9-35.5,31-51v1Z" fill="#081949"/>
  <path d="M234.3,457.6c-3.1,7.3-8.1,13-13,19,3.2-7.1,7.8-13.3,13-19Z" fill="#e24a1d"/>
  <path d="M384.3,433.6c-7.8,13.7-16.7,26.1-24,40,1.3,2.8-4.1,3.3-5,6,8.7-19.7,21.2-38,33-56h1c-1.4,3.3-3.3,6.8-5,10Z" fill="#081949"/>
  <path d="M275.3,610.6v1c-4.2,7.5-10.4,13.9-14,22h-1c6.7-12.7,14-25,22-37h1c-2.6,4.7-5.3,9.4-8,14Z" fill="#081949"/>
  <path d="M524.3,655.6c-1.3-2.9,6-3.3,5,0h-5Z" fill="#043c40"/>
  <path d="M556.3,655.6c-1.3-2.9,6-3.3,5,0h-5Z" fill="#043c40"/>
  <path d="M457.3,131.6l-26,39c8.3-12.8,16.2-27.3,26-39Z" fill="#081949"/>
  <path d="M610.3,655.6c-1.3-2.9,6-3.3,5,0h-5Z" fill="#043c40"/>
  <path d="M578.3,444.6c-4.7-4.4-11.2-15.1-12-21,3.4,6.7,9.8,13.9,12,21Z" fill="#081949"/>
  <path d="M364.3,422.6l1.2,1.9c-96.3,158.3-192.6,316.7-288.9,475.1h-2.4c94-160.8,191.1-321.9,290-480,2.7.8,2.7,2.1,0,3h0Z" fill="#f0e214"/>
  <path d="M228.3,688.6c0,.3,3.5,3.9-2,3,.4-.6,0-2.7,2-3Z" fill="#043c40"/>
  <path d="M388.3,371.6l-13-13c3.4,4.1,8.9,9.7,13,13Z" fill="#081949"/>
  <path d="M315.3,497.6v-2c14.1-19,25.8-42,39-62-11,22.5-26,42.7-39,64Z" fill="#081949"/>
  <path d="M360.3,473.6c3.1,4.5-1.1,2.4-2,3-.5-1.9,1.8-2.6,2-3Z" fill="#043c40"/>
  <path d="M580.3,375.6c.4,4-4.5,5.8-7,8,2-3,4.5-5.4,7-8Z" fill="#d60000"/>
  <path d="M480.3,427.6c.2,2.6-2,2.9-3,4-1-3.8,2.7-3.6,3-4Z" fill="#d60000"/>
  <path d="M215.3,482.6c1.9-2.3,4.2-4,5-5l-5,5Z" fill="#e24a1d"/>
  <path d="M245.3,477.6c-.6.8-1,5.2-3,2,.9-.8,1.1-2.2,3-2Z" fill="#e24a1d"/>
  <path d="M631.3,555.6c-2.5-3.9-4.6-8.1-7-12l7,12Z" fill="#043c40"/>
  <path d="M349.3,515.6c-2.7,4.8-6,9.4-9,14,2.4-4,4.3-11.7,9-14Z" fill="#073a40"/>
  <path d="M311.3,578.6c1.2-6.1,6-11,9-16-2.2,5.7-5.6,11-9,16Z" fill="#043c40"/>
  <path d="M613.3,525.6l-3-5c1,1.7,2,3.4,3,5Z" fill="#043c40"/>
  <path d="M562.3,443.6c2.4,3.6,3.2,1.9,5,8l-5-8Z" fill="#043c40"/>
  <path d="M632.3,655.6c-.9-3,3.8-3.2,3,0h-3Z" fill="#043c40"/>
  <path d="M474.3,829.6c4.6-.7,4.3,2.8,0,2v-2Z" fill="#043c40"/>
  <path d="M646.3,579.6c4.1,1.1,5.3,7.9,7,11-2.8-3.4-4.8-7.3-7-11Z" fill="#043c40"/>
  <path d="M361.3,375.6c-2.1-2.3-4.9-4.6-5-8,2.3,2.3,4.1,4.8,5,8Z" fill="#e24a1d"/>
  <path d="M246.3,529.6c-1.6,1.6-2.3,1.5-3,2-.5-2.5.9-2.2,3-2Z" fill="#e24a1d"/>
  <path d="M162.3,432.6c-2.2.2-3.5.5-3-2,.1.1,1.9,1.1,3,2Z" fill="#d60000"/>
  <path d="M599.3,503.6c2.3,3.6,4.7,7.3,7,11l-7-11Z" fill="#043c40"/>
  <path d="M260.3,503.6c-1.1,1.3-.2,4-4,3,1.2-1.4,2-2.6,4-3Z" fill="#d60000"/>
  <path d="M243.3,445.6c-.4.4-.7,1.5-2,3-.2-2.1-.5-3.5,2-3Z" fill="#e24a1d"/>
  <path d="M239.3,450.6c-.3,2.8-2.3,4.2-4,6-.9-3,2.8-4.7,4-6Z" fill="#e24a1d"/>
  <path d="M589.3,487.6c2.6-.4,3,4,4,6-2.5-1.3-2.9-3.8-4-6Z" fill="#043c40"/>
  <path d="M236.3,485.6c.5,2.5-.8,2.2-3,2,1-.7,2.9-1.9,3-2Z" fill="#e24a1d"/>
  <path d="M213.3,484.6c-.9,1.2-2.9,2.8-3,3l3-3Z" fill="#e24a1d"/>
  <path d="M567.3,452.6c3.3-.6,1.4,1.3,2,3-1.7-.5-1.7-1.6-2-3Z" fill="#043c40"/>
  <path d="M306.3,586.6c-.1-4.1,2.3-4.7,4-7-.2,3-2.3,4.8-4,7Z" fill="#043c40"/>
  <path d="M582.3,476.6c3.6,2.1,4.3,5.7,6,9-2.9-2.4-4.1-5.9-6-9Z" fill="#043c40"/>
  <path d="M658.3,598.6c2.5,3.9,6.3,7.1,7,12-2.7-3.8-5.4-7.5-7-12Z" fill="#043c40"/>
  <path d="M668.3,614.6c1.8,2.4,4.5,2.9,4,7-1.5-2.1-3.6-4.3-4-7Z" fill="#043c40"/>
  <path d="M287.3,617.6l-2,3c1.2-2.1,1.9-2.8,2-3Z" fill="#043c40"/>
  <path d="M654.3,592.6c2.9-.6,2.7,2.8,3,5-1-1.7-2-3.3-3-5Z" fill="#043c40"/>
  <path d="M681.3,635.6c2.5-.7,4,4.9,4,6-1.7-1.7-2.7-4.1-4-6Z" fill="#043c40"/>
  <path d="M634.3,559.6c3.3,4.8,7.6,9.1,9,15-3.1-5-6.9-9.4-9-15Z" fill="#043c40"/>
  <path d="M245.3,492.6c-2.4,3.2-4.5,5-7,8l7-8Z" fill="#e24a1d"/>
  <path d="M247.3,440.6c.2,2.1-1.8,2.5-3,4-.3-4,2.1-3.3,3-4Z" fill="#e24a1d"/>
  <path d="M326.3,553.6l-2,3c1.1-1.8,1.9-2.8,2-3Z" fill="#043c40"/>
  <path d="M340.3,530.6l-2,3c1.1-1.9,1.9-2.8,2-3Z" fill="#073a40"/>
  <path d="M251.3,525.6c-1.3,1.2-2.1,3-4,3,.2-.2,1.6-5,4-3Z" fill="#e24a1d"/>
  <path d="M574.3,464.6l4,6c-1.2-2-2.9-4-4-6Z" fill="#043c40"/>
  <path d="M569.3,456.6c3.3-.3,3.1,4.2,4,6-1.2-1.7-3.3-4.2-4-6Z" fill="#043c40"/>
  <path d="M371.3,479.6c2.8-4.6,5.1-9.4,8-14l-8,14Z" fill="#073a40"/>
  <path d="M593.3,494.6l5,8c-1.5-2.5-3.8-5.5-5-8Z" fill="#043c40"/>
  <path d="M357.3,502.6l13-21c-4.3,7-8.7,14-13,21Z" fill="#073a40"/>
  <path d="M356.3,504.6c-2,3.3-4.3,7.3-7,10,1.6-2.9,3.6-9,7-10Z" fill="#073a40"/>
  <path d="M327.3,551.6c2.7-4.5,5.3-9.4,8-14-2.7,4.6-4.8,9.7-8,14Z" fill="#043c40"/>
  <path d="M292.3,608.6c3.9-7.5,8-14.2,13-21l-13,21Z" fill="#043c40"/>
  <path d="M74.3,357.6l2,2-2-2Z" fill="#e24a1d"/>
  <path d="M292.3,609.6c-1.1,2.2-3,5.5-5,7,1.3-2.2,2-7,5-7Z" fill="#043c40"/>
  <path d="M277.3,633.6c.7-1.5,1.3-2.6,2-4l-2,4Z" fill="#043c40"/>
  <path d="M677.3,629.6c-1.4-2.3-3.1-4.4-4-7,1.6,2.2,3.9,3.6,4,7Z" fill="#043c40"/>
  <path d="M282.3,624.6c.9-1.6,1.6-2.3,2-3l-2,3Z" fill="#043c40"/>
  <path d="M270.3,619.6l1-2c-.3.4-.5,1.2-1,2Z" fill="#043c40"/>
  <path d="M667.3,613.6l-1-2c.6.8.8,1.8,1,2Z" fill="#043c40"/>
  <path d="M646.3,578.6l-2-3c.5.9,1.2,1.7,2,3Z" fill="#043c40"/>
  <path d="M581.3,474.6l-2-3c.6,1,1.4,2,2,3Z" fill="#043c40"/>
  <path d="M633.3,558.6l-1-2c.5.8.8,1.6,1,2Z" fill="#043c40"/>
  <path d="M240.3,481.6l-1,1,1-1Z" fill="#e24a1d"/>
  <path d="M623.3,541.6l-7-11c2.3,3.7,4.7,7.3,7,11Z" fill="#043c40"/>
  <path d="M335.3,537.6c.8-1.3,1.5-2.2,2-3-.2,1.3-1.5,2.1-2,3Z" fill="#073a40"/>
  <path d="M609.3,519.6l-2-3c.6,1,1.3,1.9,2,3Z" fill="#043c40"/>
  <path d="M118.3,869.6l2-3c-.6.9-1.4,2.1-2,3Z" fill="#043c40"/>
  <path d="M123.3,861.6l1-2c-.2.3-.4,1.1-1,2Z" fill="#043c40"/>
  <path d="M233.3,505.6l1-1c-.3.4-.7.6-1,1Z" fill="#e24a1d"/>
  <path d="M246.3,491.6l1-1c-.3.4-.7.6-1,1Z" fill="#e24a1d"/>
  <path d="M209.3,489.6v-1,1Z" fill="#e24a1d"/>
  <path d="M365.3,379.6l-1-1,1,1Z" fill="#e24a1d"/>
  <path d="M162.3,482.6c-.3-.4-.7-.7-1-1l1,1Z" fill="#e24a1d"/>
  <path d="M677.3,559.6l-1-1c.2.3.7.6,1,1Z" fill="#043c40"/>
  <path d="M260.3,462.6c.6-.6,1.2-1.3,2-2l-2,2Z" fill="#e24a1d"/>
  <path d="M275.3,611.6v-1s.7,0,0,1Z" fill="#043c40"/>
  <polygon points="273.3 643.6 272.8 644.6 272.3 644.1 272.8 643.6 273.3 643.6" fill="#001d28"/>
  <path d="M707.3,653.6c-.2-.3-.7-.5-1-1l1,1Z" fill="#043c40"/>
  <path d="M458.3,423.6c.3-.3.6-.7,1-1l-1,1Z" fill="#e24a1d"/>
  <path d="M460.3,421.6c.4-.3.6-.8,1-1l-1,1Z" fill="#e24a1d"/>
  <path d="M716.3,668.6c0-.2-.9-.6-1-1l1,1Z" fill="#043c40"/>
  <path d="M567.3,389.6c.4-.3.6-.7,1-1l-1,1Z" fill="#e24a1d"/>
  <path d="M262.3,656.6h211v180c-11.8-.8-17.5,1.9-24,11-5.9,13.1-10.5,26.8-16,40-101.3.6-206.7.6-308.3,0s-.5-.4-.7-1l138-230Z" fill="#477f2c"/>
  <path d="M458.3,964.6c-12,1.8-24.1,3.7-36.2,5.8l-.5-1.2c15.7-38,27.7-78.3,45-115.3,1.9-1.6,46.6-2.8,48.2-.9-6.8,22.9-20.9,43.9-31.2,65.9-9.4,16.4-4.7,17,11.1,17.4l22-.6c3.3.5,2.2,4.5-.4,6.8-1.2.4-1.9,1.4-2,3-5.6,5.5-8.8,13.5-14,19,0,0-11,15-11,15-1.5,3.2-5.7,5.3-6,9-7.1,9.5-20.8,28.2-27,38-2.6,3.1-4.6,6.9-7.7,9.4-1.5,3.2-2.9,4.1-4.2,2.6,5.3-22.2,11-44.3,17.1-66.3,1.3-3-.9-6.1-3.1-7.7h0Z" fill="#00bcd6"/>
  <path d="M74.3,899.6l1.3,2-5.5,10.6c-.4,3.3-1.3,5.7-2.8,7.5l1-2h348.8l1.2,2c-2.1-2.4,2.3-14.6,6-13,.3-.9.6-.9,1,0-1.2,5-2.4,10.9-6,15-117,.4-234.4.4-352,0-6.8-6.7,3.7-16.9,7-23v1h0Z" fill="#dfb71d"/>
  <path d="M893.3,921.6h-355c-3-3.1-6.4-4.5-10.6-4.9l-.4-1.1h-1c-.7,1.4-2.3,1.4-3,0h-6c-4,2.1-7.9.9-12,0,0-1.2,4-10.8,5-12,18-1.7,36-1.2,54,0,8-1.5,16-1.5,24,0,29.3-1.2,58.7-1.7,88,0,57.8-.4,122.6-3.5,177,1l-1,2h-339c-2.1,1.3-3.4,3.7-3.7,7.1l-2.3.9,1.2-2c3.6.5,23.3-2.5,23.3,2,1.9-2.8,7.4,2.3,6,5l1-2h353.3l1.2,2-2.7-1.9c-4.9-11.9-11.1-23.2-18.6-33.8l.3-3.4h1c4.1,8.5,26.3,34.3,20,41h0Z" fill="#f7e912"/>
  <path d="M853.3,903.6h-343c-2.5-6,342.9,0,344.3-2.1,8.1-9.5-19.2-38.1-24.4-49.9l1.1-.4,26.4,41.3c1.6,4.2.3,10.6-4.5,11.1h0Z" fill="#081949"/>
  <path d="M695.3,658.6c8.6,20.4,28.8,48.2,41,68v1l-2.5.4c-14.1-22.1-27.7-44.5-40.8-67.3l.3-2.1-.7,2h-201.1l-1.2-2,2,.7v172.6l-2,1.2c2.8-.2,3,.7,1,2.5-1.1-5.2,30.4-1.7,34.3-2l1.2,2c5.2-4.3,12.1,8.2,12.4,13.4-3.7,12.3-8.4,24.3-14.3,36,101.6.4,203.5.3,305.6-.4l2.8,2c.3-.7.6-.7,1,0,.4.8,4.4,2.1,0,2l-.3,1c-1,0-313.8-1-314.7-1,17.6-43.5,30.8-55.1-27.5-50.8-.9,0-1.4-.2-1.5-1.2-.6,0-1.4,0-1.9-.2,0-59.7.2-119.4.6-179.1.7-2.1,205.1,2,206.3,1.3Z" fill="#f7e912"/>
  <polygon points="834.3 888.6 835.8 890.6 520.3 888.6 834.3 888.6" fill="#081949"/>
  <path d="M452.3,843.6l-20.5,47-309.5-2c7.8-2.9,16.5.7,24,0,0-.5.2-1,.3-1,15.5-.3,31.5-.2,47,0s.5.4.7.9c29.3-.8,58.7-1.2,88,0,12-1.1,24-1.1,36,0,37.8-1.3,76.3-.3,114,0-.5-.5,0-.8,1-1,6.6-14.3,10-31,19-44h0Z" fill="#081949"/>
  <path d="M490.3,655.6c0,.8-1,180.1-1,181-5.7,3.3,0-176.9-2-177.5,0-2.9.6-2.9,3-3.5h0Z" fill="#081949"/>
  <path d="M896.3,941.6l-359,1,359-1Z" fill="#001d28"/>
  <path d="M893.3,921.6h-356c.3-.5.6-.5,1,0h355Z" fill="#01014d"/>
  <polygon points="418.3 921.6 418.3 922.6 67.3 921.6 418.3 921.6" fill="#01014d"/>
  <path d="M411.3,942.6H62.3h349Z" fill="#001d28"/>
  <path d="M109.3,903.6c105.5,0,211.5,0,317,0,.2.9-.2,2.6-1,3h-1c-2.7.1-312.5,0-315.7,0-6.8-1.2-11.5-6.8-9.7-13.8,3-7.7,18.5-36.7,23.4-34.2-1.8,10.4-32.7,39.8-13,45Z" fill="#f7e912"/>
  <path d="M433.3,887.6c-.9,1.3-2.6,1.6-4,1-100.5.3-206.1-.2-307,0l2-2,309,1Z" fill="#71aa20"/>
  <path d="M458.3,964.6l-39,7.5c8.9-11.5,41-120.5,47.5-120.5h50.5l-3,5c-.2-.8-.9-2.8-1.7-3-1.9-.6-35.4-.3-38.9,0-17,.5-38.2,95.5-51.4,115.5,10.9,2.8,24.4-7.5,36-4.5Z" fill="#00bcd6"/>
  <path d="M461.3,967.6c6.5,2.3-19.8,71.6-15,71,3.3-1.2,1.3-4.1,4-4-.9,1.2-9.2,14.9-10,14,0,0,21-81,21-81Z" fill="#00bcd6"/>
  <path d="M514.3,857.6c-3,11.6-35.5,66.5-35,73.5s39.2.6,43,3.5-4.4,6.3-5,7c-.4-2.1,1.3-3.3-1.5-4-7.3-1.8-38.1,4-38.4-6.5l36.9-73.5Z" fill="#00bcd6"/>
  <path d="M519.3,888.6c-3.6-2.2,27.4-45.7,7.4-49.9-7.7-1.6-24,.2-33,0s-4,1-3.4-2c57-3.1,50.6,6.6,29,52h0Z" fill="#081949"/>
  <path d="M517.3,915.6c7.2,0,16.5-1,21,6h-1c-4.5-7.7-29.3-1.5-32-5,1.2-2.3,9.1-.4,12-1Z" fill="#081949"/>
  <path d="M736.3,726.6c31.4,50.9,71.5,107.5,98,160-.7.3-3.4-1-4.1-1.3-31.7-51.9-63.3-103.8-94.9-155.6.3-.6,1.4-2.3,1.1-3.1h0Z" fill="#f0e214"/>
  <path d="M754.3,726.6l2.1-.5,104.2,165.7c2.8,5.3-1.7,16.9-7.2,12.8v-1c4.8-2.7,4.8-7,3.5-12l-26.5-40c-25-42-52.1-82.4-76-125h-.1Z" fill="#f0e214"/>
  <path d="M610.3,494.6l2.1-.5c47.7,76.4,95.3,152.9,143,229.4l-1,2.1c-50.4-75.3-96.1-154-144-231h0Z" fill="#f0e214"/>
  <path d="M420.3,920.6c1.2-4.8,3.3-9.3,5-14s.2-1.5,1-2c.7,3.5-3.8,13.7-6,16Z" fill="#081949"/>
  <path d="M838.3,822.6c-11.4-16.5-21.4-34-32-51v-1c10.6,17.4,21.5,34.5,32,52Z" fill="#081949"/>
  <path d="M91.3,868.6c10-17.3,20.7-33.9,31-51l-31,51Z" fill="#081949"/>
  <path d="M754.3,725.6c.9.3.9.6,0,1,14.9,24.2,29.3,48.7,44,73-20.2-30.8-38.9-62.5-58-94,4.7,6.5,9.8,13.2,14,20Z" fill="#081949"/>
  <path d="M458.3,1023.6l16-23c-5.4,7.6-10.6,15.4-16,23Z" fill="#e24a1d"/>
  <path d="M500.3,964.6l-11,15c3.7-5.2,7.1-9.9,11-15h0Z" fill="#e24a1d"/>
  <path d="M513.3,946.6c-3.2,5.5-7,11-11,16,1.2-6,7.5-11.4,11-16Z" fill="#00bcd6"/>
  <path d="M516.3,942.6c-.4.5-1,1.8-2,3-.2-2.1-.4-3.5,2-3Z" fill="#00bcd6"/>
  <path d="M487.3,982.6c-1.4,1.9-2.6,4-4,6-2.3,0,2.3-6.5,4-6Z" fill="#00bcd6"/>
  <path d="M457.3,1024.6c-.3.4-.4,1.2-1,2-2.2-.9-1-2.6,1-2Z" fill="#e24a1d"/>
  <path d="M505.3,916.6c0,0,0-.6,0-1h1l-1,1Z" fill="#303841"/>
  <path d="M418.3,922.6v-1h1c-.3.2-.6.8-1,1Z" fill="#081949"/>
  <path d="M825.5,523.7c0,6.8-8.1,17.9,1.5,21.1,12.9,6.6,37-7.9,27,8.9-2.3,2.6-35,63.9-31.4,44.4,2.5-10.3,4.7-20.6,6.2-31,3.6-14.9-35.2-2.2-32-11.9,2.6-6.9,7.9-12.2,11.8-18.2,4.4-6.7,24.3-42,16.9-13.3Z" fill="#dfb71d"/>
  <path d="M826.4,559.7c7.2,2.9-2.4,29.4-3.3,36.4-.5,1.8-1.8,15.1-4.4,12.2,5.2-52.5,26.9-49.1-22.3-46.8-.9,0-2-.3-2-1.3.5-3,5-1.2,7.2-1.5,8.3,0,16.9-.9,24.8,1.1Z" fill="#ba391a"/>
  <path d="M831.1,504.5c3.7.9-10.2,37.9-6.7,39.4,8.3,2.2,20.1-.1,28.7,0,2.3.1,7.5-1.1,6.8,1.8-.6,2.2-3.1,1.5-4.6.7-10.2-2.4-39.6,8.7-32.1-12.8,2.6-9.5,2.7-20.5,7.9-29Z" fill="#ba391a"/>
  <path d="M829.6,562.7c2,9-6,26.8-7,37,.2,1.3,2.1.3,1.8,1.7,0,1-5.2,9.6-4.9,6.6,1.8-7,7.3-35.7,10.1-45.3Z" fill="#f0e214"/>
  <path d="M823.6,543.8c11,6.4,42.5-8.3,31.9,8.3-.9,1.5-2,2.7-1.4.4,7.7-16.1-24.3,3.4-30.5-8.6h0Z" fill="#f0e214"/>
  <path d="M825.3,524.4c.1-2.6,3.1-13.8-.4-10.7-.3.1-2.8,3.5-2.3,2.3,3.5-3.2,5.2-7.1,7.8-10.9,3.4-3.9-5.2,18.6-5.2,19.4h0Z" fill="#f0e214"/>
  <path d="M796.1,556c3.1,6.5,22.8-.2,30,3.5-8-1.3-19.6,1.2-28.2.8-2.8.4-3.7-3.4-1.8-4.3Z" fill="#f0e214"/>
  <path d="M808.3,538.6c-12.7,22.7-13.4,12.8,0,0h0Z" fill="#ba391a"/>
  <path d="M871.9,696c.6,2.6-.1,5.8.7,8.3,1.4,2.6,10.4,1.3,9.2,4.8-1.1,2.5-9.2,27.8-12.9,22.7-2.1-5,3.6-14.8-3.8-16.3-3.5-.9-11.5.4-9.3-5.6,1.8-6.5,5.6-10.2,9.3-15.7,1.9-2.6,3.5-6.7,5.9-8.6,1.9,1.2.7,7.9.9,10.5Z" fill="#dfb71d"/>
  <path d="M868.3,715.6c2.4,2.5,1.2,25-2,24.3-1.6-7.1,1.6-20.1,0-24.2-.2-.3-.6-.4-1.2-.5-1.9-.2-5.3.3-7.4-.2-7.4-2.6,9.9-2.4,10.5.7Z" fill="#ba391a"/>
  <path d="M873.7,680.1c4.2-5.2-2,21-.7,21.4.1,3.5,4.7,3.2,7.4,3.7,1.1.2,1.7.6,1.6,1-2.1,1.8-6.6.5-8.7-.3-5-1.4-1.6-22.1.5-25.8Z" fill="#ba391a"/>
  <path d="M882.4,705.7c3.2,5-10.1,26.2-12.7,32.4-1,2.2-4.4,7.1-3.6,1.3.6.3,1-31.2,3.4-20.7.5,1.5-2,15.5,1.7,10.7,2.3-4.8,8.2-14.2,9.9-18.6,1.5-3-1.8-3.7-4.3-4-4.5-1.7,4.6-2.5,5.6-1.1Z" fill="#f0e214"/>
  <path d="M873.6,680c.2,4.4,0,12-2.1,15.7-.5-1.2.3-7.4-.9-8.7-1.3.3-8.7,14.5-6.7,8.7.3-1.3,8.9-22.8,9.7-15.8Z" fill="#e2b91e"/>
  <path d="M868.4,740.6c4.1-9.3,10.5-23.9,15-32.9-1.2,6.3-10.8,27.3-15,32.9Z" fill="#ba391a"/>
  <path d="M873.1,678.6c-3.1,10.7-14.4,22.8-17.9,33.8,1.4-3.7,14.7-38,17.9-33.8Z" fill="#ba391a"/>
  <path d="M190.3,540.6v1c-.7-.3-1.5-.2-2-1h2Z" fill="#043d41"/>
  <path d="M195.3,544.6h1s0,.5-1,0Z" fill="#043d41"/>
  <path d="M200.3,546.6c-.6,0-.9-1-1-1l1,1Z" fill="#043d41"/>
  <path d="M136.4,712.8c-4.6,8.6-24.6,44.9-30.1,51.7-4.5,3.9-9.8-.7-9-6.2.5-14.1,5.4-34.5,6.8-48.3.4-3.4.6-5.4-3-6-4.5-1.1-16.3,3.4-16.9-3.1,1-12.7,33.9-74,39.6-92.8.8-4.4,8.5-10,11.1-4.1,1.5,4.3,1.1,14.7.4,26,.8,10.3-7.2,41.9,5.4,43.5,30-8.2.3,29.6-4.2,39.3Z" fill="#d60000"/>
  <path d="M425.3,483.6c2.2-21.5,72.1-3.5,90.1-8.5,10,3.3,7.4,40.5-.5,40.5h-46.5c-.5,0-.5,10,0,10h36.5c12.2,0,13,44-1,44h-34.5c.9,1.4-2,11,.5,11h44c14.5.8,13.8,43.7.5,43-26.5.9-53.5.9-80,0-4.9-.8-9-4-10-9-.9-43.2-.7-87.8,1-131h0Z" fill="#073a40"/>
  <path d="M424.3,614.6c-2.1-10.7-1.5-121.1,1-131l-1,131Z" fill="#001d28"/>
  <path d="M514.3,623.6c-9,1.6-70.9,1.6-80,0h80Z" fill="#001d28"/>
  <path d="M388.3,423.6c-82,138.2-182.6,293.6-262,431-1.3.7-2,2-3,3,79.9-145.9,171.9-286.1,259-428-2.5-1.7,2.4-7.6,5-7l1,1Z" fill="#f0e214"/>
  <path d="M553.3,371.6c-61.9,55.1-206.9,22.7-192-73,25.4,12.8,50.5,22.1,80.2,11.7,13.6-4.3,21.8-15.6,36.7-11.2,41.1,16,54.1,25.4,99,.5,5.2,24.5-3.9,54-22.9,71-13.9,13-.6.7-1,1h0Z" fill="#dfb71d"/>
  <path d="M610.3,493.6c-13.9-23.2-27.8-46.4-42-69.5l18.8-5.3c98.9,168.3,210.9,330.7,306.1,500.8h-355.5c-.4,0-5.3-5-6-5h-24.5c1-3.6,1.9-10.1,6.5-10h339.5c5.3-1.1,7.3-7.2,5.4-11.9-60-95.8-189.1-301.4-248.4-399.1h.1Z" fill="#e0b81d"/>
  <polygon points="268.8 418.6 269.3 419.1 268.8 419.6 268.8 418.6" fill="#bb4524"/>
  <path d="M364.3,419.6c1.4-2,5.7-9.3,8.3-9s17.1,5.3,17.7,6c1.3,1.7-2.7,5.3-3,6-1.8,3.7-4.2,5.7-5,7-1.1,3.9-14.9-3.9-17.4-4.7-.4-1.3-.9-4.2-.6-5.4h0Z" fill="#948d25"/>
  <path d="M382.3,429.6c-90.5,156-190.9,308.4-281.6,464-.7,6.6,2.1,9.3,8.1,11,0,0,314,0,314,0l1.4,2.1c-2,1.3-5,13-6,13H67.3c-1.4-7.9,4.3-13.4,7-20l290-477,18,7h0Z" fill="#e0b81d"/>
  <path d="M320.3,843.6c-1.3-.2-2.1-5.4-2.5-6.3,0,0,0-132.8,0-132.8,1.6-10,38.6-8.4,42.4-.5.4,44.6.4,89.2-.2,133.8-1.3,12.2-31.3,8.5-39.7,5.8h0Z" fill="#043c40"/>
  <path d="M354.3,697.6c1.6.4,4.9,5.2,7,6v134c-3.8,5.9-1.1,6.5-8,8-7.6,4.5-21.1.7-30,1-1.8-.6-2.1-2.1-3-3,9.2,0,35.6,5.6,38.6-4.9-2.1-17.5,4.5-129.3-.5-136.7s-39.3-6.1-39.7,2.5l.6,138.1c-.9-1.4-2.6-2.8-3-5v-133c1.1-.9,5.6-6.9,6-7,10.6-.5,21.4-.5,32,0h0Z" fill="#073a40"/>
  <path d="M361.3,703.6v134-134Z" fill="#71aa20"/>
  <path d="M316.3,837.6v-133,133Z" fill="#71aa20"/>
  <path d="M434.3,885.6c2.9-11.4,8.4-28.1,15-38-4.1,11-8.9,28.4-15,38Z" fill="#71aa20"/>
  <path d="M353.3,845.6c.6,3-1.5,1.9-3.4,2-6.7.3-20.7,1-26.6-1,9.8-.1,20.3,1,30-1Z" fill="#71aa20"/>
  <path d="M354.3,697.6c-1.7-.5-30.5-.5-32,0h32Z" fill="#71aa20"/>
  <path d="M679.3,903.6h-3,3Z" fill="#303841"/>
  <path d="M591.3,903.6h-3,3Z" fill="#303841"/>
  <path d="M564.3,903.6h-2,2Z" fill="#303841"/>
  <path d="M833.3,886.6l-311,1c-.4-8.4,29.2-46.4,4.5-52,0,0-35.5,0-35.5,0-2.8-1.9,0-174.5-1-177h203c26.2,40.5,112,182.8,140,228Z" fill="#e1b81d"/>
  <path d="M146.3,888.6h-8,8Z" fill="#043c40"/>
  <path d="M202.3,888.6h-8,8Z" fill="#043c40"/>
  <path d="M402.3,888.6h-4,4Z" fill="#043c40"/>
  <path d="M282.3,888.6h-4,4Z" fill="#043c40"/>
  <path d="M432.3,888.6c-2.9,1.4-2.4,0-3,0h3Z" fill="#043c40"/>
  <path d="M320.3,888.6h-2,2Z" fill="#043c40"/>
  <path d="M151.3,903.6h-13,13Z" fill="#043c40"/>
  <path d="M290.3,903.6h-8,8Z" fill="#043c40"/>
  <path d="M210.3,903.6h-8,8Z" fill="#043c40"/>
  <path d="M232.3,903.6h-6,6Z" fill="#043c40"/>
  <path d="M192.3,903.6h-6,6Z" fill="#043c40"/>
  <path d="M160.3,903.6h-6,6Z" fill="#043c40"/>
  <path d="M311.3,903.6h-5,5Z" fill="#043c40"/>
  <path d="M402.3,903.6h-4,4Z" fill="#043c40"/>
  <path d="M296.3,903.6h-4,4Z" fill="#043c40"/>
  <path d="M279.3,903.6h-4,4Z" fill="#043c40"/>
  <path d="M254.3,903.6h-4,4Z" fill="#043c40"/>
  <path d="M200.3,903.6h-4,4Z" fill="#043c40"/>
  <path d="M376.3,903.6h-3,3Z" fill="#043c40"/>
  <path d="M269.3,903.6h-3,3Z" fill="#043c40"/>
  <path d="M112.3,903.6h-3c.1,0,1-.3,3,0Z" fill="#043c40"/>
  <path d="M123.3,903.6h-1,1Z" fill="#043c40"/>
  <path d="M355.3,903.6h-1,1Z" fill="#043c40"/>
  <path d="M416.3,903.6h-1,1Z" fill="#043c40"/>
  <path d="M523.3,915.6h-6c2,0,4.1-.2,6,0Z" fill="#303841"/>
  <path d="M526.3,915.6h1-1Z" fill="#303841"/>
  <path d="M822.3,542.6c-1.2-2.6-2-6.1.9-8,.2,2.3-.2,5.7-.8,8h0Z" fill="#f0e214"/>
  <path d="M824.4,529.6c0-1.2-.4-3,.6-3.9.5-.3.3.5.4,1,0,1,0,2.4-1,2.9h0Z" fill="#f0e214"/>
  <path d="M823.3,533.6c0,0,.8-2.4,1-3,0,.9-.7,2.4-1,3h0Z" fill="#f0e214"/>
  <path d="M873.3,705.6c-.9-.2-1.5.3-2-1,0-.1,2,1,2,1h0Z" fill="#f0e214"/>
  <path d="M121.5,652.9c7.5,6.5-8.7,32.6,8.3,31.8.9.1,1.4.5,1.1.8-3.9,1.6-10.1-.3-10.6-4.9-1.4-8.6-1.4-19.6,1.2-27.7Z" fill="#ba391a"/>
  <path d="M118.6,659.2c-5.1,9.8-10.8,20.8-12.4,31.7,1.9,3.7,8.9,2.8,10.5,6.7,2,1.5,1.9,29-1.6,24.5-2.3-3.7,1.1-15.7.1-21.7-1.1-8-11.2-3.1-11.4-8,.4-7.6,9.3-32.5,15.7-38.7,1.5.8.3,4.3-.8,5.6Z" fill="#ba391a"/>
  <path d="M131.7,684.8c1.6,1.2.7,3.7.2,5.4-1,2.5-14.6,40-16.1,29.7-1.3-8.2,5.4-23-5.2-26.1-1.1-.3-4.6-.6-3.9-2.1,12.5-4.3,15.7,10.7,12.3,19.9.9-3.2,5.6-14.9,8.4-20.6,1.5-3.3-3.7-3.2-2.6-5.5,1-1.4,5.1-1.8,6.9-.6Z" fill="#e2b91e"/>
  <path d="M121,652.4c2.4,8-2,22.8-.2,30.2,0,1.1-.5,1.4-1.4.7-4.5-6.1-1.1-15.2-1.1-22-1.3,7.3-5.1,20-8.8,28.2-13.2,16.3,6.4-29.3,7.7-29.1,2-1.4,1.3-8.2,3.8-7.9Z" fill="#f0e214"/>
  <path d="M117.4,722.7c4.1-10.2,10.4-25.8,15-35.9-.6,6.7-10.8,31.2-15,35.9h0Z" fill="#ba391a"/>
  <path d="M514.3,608.6c-.8,5.5-2.3,6.1-7.7,6.1l-72.5-1.2c-1.8-42.2-1.9-85.8.3-128,.8-1,2.2-1.4,4.1-1h71.2l.7,1c2.4-.3,1.1,16.7,1,18.4-.6,3.6-.5.5-1,.7l-.3,1c-17.1,0-34.1,0-51,.4l-.7-1.3c1.6,1,1.7,1.4.2,2.2-1,10.2-.5,20.1,1.3,29.8,13.6-.6,29.6-1.3,43.4.3.8.7,0,20.2-.9,21.7-13.9.7-27.9,1-42,1s-.7.7-1,1c-1.9,1.3-1.9,28.3.6,30.1,17.6,1.6,35.7-.4,53.4.9,1.7,1.6.8,3.2,1,5,0,1.5,0,10.7,0,12h0Z" fill="#bb4524"/>
  <path d="M514.3,608.6l-2.5,6c-9-1.4-75.7,2.2-78.1-.9-2.2-6.9-5.7-122.4,2-130.1,0,0,75,0,75,0,0,0,1.5,1.4,1.5,1.5v20.5c0,0-2.4,1-2.5,1h-50.5v29h43.5c0,0,1.5,1.4,1.5,1.5v21c0,3-40.3.8-44,1.5,6.7-2.4,42,1.1,42-1v-22h-42.5c-3.7,0-3.1-32-1.5-32h52v-19h-76v128c6.5-3.7,95.9,7.5,80-5h0Z" fill="#e24a1d"/>
  <path d="M459.3,560.6c.7,4.4-1.3,27.8.9,29.6,3.4,2.6,49.4-1.9,53.1,1.4-28-4.7-73.9,17.6-56-30.3.9-3.4,1.9-.4,2.1-.6h0Z" fill="#e24a1d"/>
  <path d="M514.3,606.6v-10c.3,2.4.3,7.6,0,10Z" fill="#e24a1d"/>
  <path d="M498.3,339.6c16.2-19.8,34.6-3.1,14.7,15.7s-54.1,19.4-76.3,5.9c-6.7-4.1-20.8-18.2-15.4-26.1,14.1-19.8,30.7,34,76,5.5-15.3,10.8-30.3,16.1-47,4.6-3.1,2.1-8.4-1.8-9-5.6-1.9,1.5-5.4-2-5-4-15.2-8.6-18.1,7-8,16,1.4-1.3,2-.7,1,1,19.2,18.6,53.6,19.7,75.8,6.1,21.2-12.9,20.4-36.7-6.8-19.1Z" fill="#f0e214"/>
  <path d="M498.3,339.6c4.4-2.7,18.1-13.6,21.8-3.3,5.6,15.8-27.5,30.5-39.6,32s-39.7-2.2-51.2-15.7h2.8c55.5,41.5,119-32.8,75.1-15.3-25.3,15.3-37.1,26.9-64.6,5.4l-1.3-3.2c22.3,15.7,35.6,14.1,57,0h0Z" fill="#081949"/>
  <path d="M326.8,706.6h24c4.2.1,0,128,1.5,129.5,0,0-1.4,1.5-1.5,1.5h-24c-.1,0-1.5-1.4-1.5-1.5,1.5-1.6-2.9-129.3,1.5-129.5Z" fill="#bb4623"/>
  <path d="M325.3,846.6h-1,1Z" fill="#477f2c"/>
  <path d="M638.3,704.6c3,.9,6.1,2.6,8,5,.7-.2,1.9.1,1,1l1,1c1.2-.4,2.8.8,2,2,16.3,20.8,13.7,54-7,71,1.2,1.5.7,2-1,1,6.2,13.8,12.9,27.5,20,41,6.3,12.2,2.6,17.1-10.2,19.1s-20.8.8-27.8-2.1c-1,.3-1.3,0-1-1-5.8-11.6-11.7-23.1-17.6-34.6l-2.4-1.4c0,10.6-.3,21.4-.7,32.2l-1.3,2.8c-6.3,6-36.9,6.8-40.1-1.1.9-46.4-3.8-94.6,1.3-140.1,11.5-5.6,62.6-3.2,75.3,3.4,4.3,2.4.2.2.5.8Z" fill="#043c40"/>
  <path d="M643.3,705.6h-1c-.5.9-2.1-.3-3-1-4.6-2.6-9.4-3.7-14.5-4.5-9.2-1.5-55.9-4.9-61.7,0s-1.8,1.6-2,3c-.8,45.3-.6,92.3.2,137.6,2.7,7.8,33.9,7.1,40,1.1,1.4-2.6,1.6-5.5,3-8-1.3,0-1.2-1.5,0-2v-2c-1.3-1.3-1.5-4.9,0-6-.7-3.3-1.1-6.8,0-10-.5-.3-.5-.6,0-1-1.8,0-1.4-4.2,0-5,3.6,1.7,6.5,8.2,6,12-2.8-1.8-1.8-6.8-5-6v25.5c0,11-43.7,13.4-47,.5v-135c4.6-18.1,74.9-7.7,85,1h0Z" fill="#f7e912"/>
  <path d="M558.3,839.6v-135,135Z" fill="#dfb71d"/>
  <path d="M655.3,718.6c14,17.6,9.1,43.1-4,59,9.5-22.1,13.4-35.5,4-59Z" fill="#f0e214"/>
  <path d="M645.3,789.6c20.2,35.3,42.9,67.2-19,57l.7-1.2c65.3,5.6,28.6-20.1,18.2-55.8h0Z" fill="#f7e912"/>
  <path d="M623.3,842.6c1.5,1.8,5.7,1.8,3,4-6.2-2.5-14.7-20.9-16-28h1.2c3.5,8.3,7.4,16.3,11.8,24Z" fill="#f0e214"/>
  <path d="M650.3,778.6c-2.8,7.7-6.5,2.3-5,11s0,.7,0,1c-1.3-.6-2.3-2.3-3-5,2.4-2.6,5.2-5.4,8-7Z" fill="#f0e214"/>
  <path d="M654.3,717.6c12.3,21.2,9.4,52-11,67,20.3-19.4,21.9-47.9,7-71,2-.4,3.2,2.2,4,4Z" fill="#081949"/>
  <path d="M643.3,705.6c.7.6,2.8,0,3,3-1.3,0-3.6-1.6-4-3h1Z" fill="#f0e214"/>
  <path d="M647.3,709.6c2.8,1.8,7.4,4.3,7,8-1.4-1.3-2.5-2.8-4-4-1.7-2.7-.6-.8-2-2l-1-1v-1Z" fill="#f0e214"/>
  <path d="M642.3,705.6l4,3v1c-2-1.2-6.5-4.4-8-5,.7-.2,3.3.8,4,1Z" fill="#081949"/>
  <path d="M121.8,683.3c2,2.4,7.5,2.6,8.5,5.2-.5,5.9-7.7,18.3-10.7,23.9-1.4,2.5-1.1.1-1.2-2.3,0-2.7,0-6.5,0-9.2.9-10.7-15-4.8-11.7-11.1,1.8-6.3,8.5-22.1,10.9-28.5,1-3.2,2-1.7,2,2.4.4,5.9-2,15,2.3,19.6Z" fill="#dfb71d"/>
  <path d="M123.3,684.6c-.6-.2-1.5-.5-2-1,.4.1,1.7.5,2,1h0Z" fill="#e2b91e"/>
  <path d="M436.3,335.6l-2.2,1.4c-12.4-4.2-10.2,5.4-5,12.5l-.9,2.2c-12.7-8.6-5.9-27.3,8-16h.1Z" fill="#081949"/>
  <path d="M436.3,335.6c32.2,24.2,37.5,21,67.7,1.2,11.5-6.6,20-1.1,12.3,11.3-14.8,23.9-68.4,24.1-87,4.5s-.7-.6-1-1c-8-10-8.2-22.1,8-16Z" fill="#043c40"/>
  <path d="M594.3,728.6c4.7-2.4,1.2,29.7,1.4,30.8-3.1.9-2.8,5.7,0,7.1-2.3.5-2.2,14.3-1.8,14.9,1.9.9,1.9,1.7,0,2.5l-.5,50.9-1,.7c0,.6-.2,1-.3,1-2.2-.2-23.8,1.5-21.7-1-1.9-1-.9-2.6,1-1.5-4.4-37.5-.1-83.4-1.3-123.3l1.3-.7c-1.8,1.4-2.8,0-1-1.5l.2-1h46.7l.7,1c10.7-2.6,23.3,7.4,28.5,17,10.5,16.2,3.8,40.7-10,53-3.6,1.1-7.9,4.1-6,7,6.1,17.3,18.2,32.8,25,50-6.7,1.5-15.9,1.3-23.3,1s-.5-.4-.7-1c-9.8-16.2-18-35.8-28.2-52.3-3.4-.3-6.3-.9-8.8-1.7-1.3-4.5.2-10.6-.3-15.3,5.5,1.1,10.6.9,15.3-.7.8-2.8,4.1-2.5,5,0,2.7,0,4.7-1.1,6-3-1.4-2.5.5-4.4,3-3,7.6-7.3,6.3-18.2,0-26-2.5,1.5-4.5-.5-3-3l-2-1c-.3.9-.6.8-1,0-6.7-3.9-15.7-4.1-23-2,1.1.2.6.6-.1,1.1Z" fill="#bb4623"/>
  <path d="M646.3,725.6c0,0,1.5-.5,2.1.6,6.3,11.2,5.6,33.2-4.1,42.4,12.5-24.4,5-58.1-26.5-60,0,0-47.5,0-47.5,0,2.8.6,0,124,1,125.5,0,.3-1.3.8-1,1.5h22l2-107,1.9,1.4c-.5,11.1-.9,22.3-.3,33.4,4,.5,8,.6,12.2.2,6.6,6.9-13.1,2.9-13.8,4,0,0,0,14,0,14,0,.5,8.3-.6,9.8.2s12.3,25.9,14.2,29.8c-8.6-8-9.9-31.7-24-28v54h-24.5c-4.2-.1,0-128-1.5-129.5,0,0,1.4-1.5,1.5-1.5h48c12.8,0,23.7,8,28.5,19h0Z" fill="#e24a1d"/>
  <path d="M639.3,704.6c-11.6-3.9-68.9-11.4-77.6-2.1,0,0,.4,138.7.4,138.7,2.4,5.2,36.5,4.7,39.2.4-5.2,7.3-39.6,9.2-41.6-2.9l-.2-134.3c1.7-3.4,3.3-5.8,7.3-6.7,12.4-.9,64.1-3.3,72.5,6.9h0Z" fill="#303841"/>
  <path d="M618.3,812.6c1.9,3.6,16.3,21.1,13,23,0,0,24,0,24,0-1.7-10.8-25-40.6-25-49l25.5,51c-32.3-.3-21.8,5-37.5-25Z" fill="#e24a1d"/>
  <path d="M626.3,846.6c-.3,0-1.4-2.5-2-3,15.9.2,48.6,9.1,38-18,17,25.8-26.4,23.7-36,21Z" fill="#303841"/>
  <path d="M604.3,807.6v5l-1,1c.7,6.6,1.3,13.3,1,20,0,0-1,2-1,2-.8,3.2.7,2.2-2,6,3.2-5-1.1-32.6,2-35,.8,0,1.1.2,1,1Z" fill="#081949"/>
  <path d="M603.3,806.6c7.8-.9,15,29.8,20,36-6.6-7.4-15.2-31.7-20-36Z" fill="#303841"/>
  <path d="M645.3,790.6c2.3,9.7,14,25.3,17,36-2.5-5.1-21.1-38.3-20-41l3,5Z" fill="#081949"/>
  <path d="M636.3,778.6c-3,3.5-4.6,1.3-6,7-5.8-.2,3.4-8.9,6-7Z" fill="#e24a1d"/>
  <path d="M639.3,775.6c1.7-1.9,2.7-4.5,5-6-1.1,2.5-2.4,4.7-5,6Z" fill="#e24a1d"/>
  <path d="M648.3,711.6c-.4-.3-.9-.4-1-1l1,1Z" fill="#081949"/>
  <path d="M604.3,823.6c-1.1-1-2.5-11.1,0-10v10Z" fill="#043c40"/>
  <path d="M604.3,831.6v-2,2Z" fill="#043c40"/>
  <path d="M603.3,835.6l1-2c-.2,1.5-1,1.9-1,2Z" fill="#043c40"/>
  <path d="M604.3,813.6h-1c0-.4.6-.8,1-1v1Z" fill="#303841"/>
  <path d="M617.3,729.6c2.6-.1,3.9,2,6,4,7.8,9.2,6.7,21.6-3,29-2,3.6-7.7,3.1-11,3-2.1,0-14.5.5-15,0-1.3-1.3-.5-33.3,0-37s0-.7,0-1c7.3-2.1,16.4-1.9,23,2Z" fill="#073a40"/>
  <path d="M594.3,727.6c1.1-3.2,19.7-3.9,23,2-8.4-2.5-14.4-2.3-23-2Z" fill="#e24a1d"/>
  <path d="M623.3,733.6c7.4,6.9,9.4,20.3,0,26,5.7-9.5,5.4-16.4,0-26Z" fill="#e24a1d"/>
  <path d="M620.3,762.6c.8,3.5-5,3.4-6,3l6-3Z" fill="#e24a1d"/>
  <path d="M620.3,730.6l-2-1c1,.4,1.3.6,2,1Z" fill="#e24a1d"/>
  <path d="M616.3,752.6c-1.9,2.1-4.1,4.3-4.5-.2,5.1-4.8,2-12.7-5.2-12l-1.4-1.8c2.9.5,2.6,13.3,2,15.6l-2,1.4c.2-3.7,5.4-4.2,7-1-.7,2.2-6.6,4-8.2,3s-1.7-20.3-1.1-21.2c3.2-4.6,24,7.6,13.3,16.2h.1Z" fill="#f0e214"/>
  <path d="M614.3,754.6c-2.8,2.6-12,5.6-12,3v-20.5c0-6.5,27.6,4.6,14,15.5,5.1-10.8-2.4-16.8-13-16,3,7.8-4.7,27.9,9,18h2Z" fill="#081949"/>
  <path d="M612.3,754.6c-2.5,0-4.7-.2-7,1v-17c10.4-2.2,14.9,10.3,7,16Z" fill="#dfb71d"/>
</svg>