<?xml version="1.0" encoding="UTF-8"?>
<svg xmlns="http://www.w3.org/2000/svg" version="1.1" viewBox="0 0 900 900">
  <defs>
    <style>
      .cls-1 {
        font-size: 49.5px;
      }

      .cls-1, .cls-2, .cls-3 {
        font-family: BradleyHandITCTT-Bold, 'Bradley Hand';
        font-weight: 700;
      }

      .cls-4 {
        fill: none;
        stroke: #000;
        stroke-linecap: round;
        stroke-linejoin: round;
        stroke-width: 2px;
      }

      .cls-5 {
        fill: #fff;
      }

      .cls-2 {
        font-size: 34.2px;
      }

      .cls-3 {
        font-size: 36px;
      }
    </style>
  </defs>
  <!-- Generator: Adobe Illustrator 28.6.0, SVG Export Plug-In . SVG Version: 1.2.0 Build 709)  -->
  <g>
    <g id="Layer_1">
      <rect class="cls-5" width="900" height="900"/>
      <g>
        <path d="M598.6,240.2c4,2.7,7,6.2,10.6,6.9,21,4.1,37.5,31.6,30.3,52.3,9.3,1.7,18.9,2.2,27.6,5.4,10.9,4,22.4,8.5,31.3,15.6,22.6,18.1,18.8,56.4-6,71.8-3,1.8-6.1,3.4-10.1,5.7,9.1,16.5,18.1,33.1,27.4,49.5,41.9,73.1,83.9,146.1,125.8,219.2,1.2,2,2.2,4.1,3.1,6.2,4.1,9.1,2.1,13.1-7.9,13.1h-268.4c-22.7,42.5-45,84.4-67.6,126.2-5,9.2-12.8,10.7-16.4,3.7-1.4-2.6-1.4-6.5-.9-9.6,3.8-22.4,8-44.7,12.1-68-10.1,5-19.6,10.1-29.3,14.5-3.3,1.5-7.3,1.4-10.9,2.1-.4-4.2-2.1-8.7-1-12.5,4.9-17.8,10.6-35.3,15.9-53,.2-.8.3-1.6.6-3.3h-18.2c-89-.2-178-.3-267-.5-13,0-15.5-4.3-9.1-16,32.2-58.3,64.4-116.5,96.6-174.8,8.3-15,16.3-30.1,24.9-45.8-5.5,2.1-10.4,4.4-15.4,5.8-17.7,4.8-30.9,0-40-15.9-9-15.6-19.9-25.4-39.8-22.1-11.1,1.9-19.9-4.6-24.8-15-3-6.3-5-13.1-8.4-19.2-2.7-4.7-6.2-10.8-10.7-12.5-22.5-8.4-21.3-22.5-19.6-40.4,1.2-12.8,2.6-26.2-8.7-35.2-5.1-4.1-13.5-7-19.7-5.9-12.2,2-23.6,7.9-35.8,10.6-5.6,1.2-12.1-1.4-18.2-2.2,2.9-5,4.6-11.7,8.8-14.8,52.6-38.9,110-54.7,174.5-34.8,23.5,7.2,47.3,7.5,71,.7,29.3-8.4,58.6-10.2,88.3-2.6,3.6.9,7.5.8,11.2,1.2,2.3-4.7,4.4-8.8,6.7-13.6-10.6-4.1-9.3-13.6-9.2-22.3.2-14.6.5-29.3,1.8-43.9.2-2.7,4.6-7,7.4-7.3,11.6-1.1,23.3-.8,34.9-1.5,2.5-.1,5.9-1.6,7-3.5,14.4-24,28.4-48.2,42.6-72.3,4.1-7,8.5-7.2,13-.2,15.1,23.7,29.9,47.6,45.3,71.2,1.9,2.9,6.5,5.5,10,5.7,11.3.7,22.6.2,34,.4,9.8.2,16,5.3,17.6,15.1,1.3,8,2.7,16.2,2.9,24.3.3,16.1-4.6,30.1-20.2,41.3v.2ZM251.2,598.1c-1.6,2.2-3.1,4.4-4.4,6.1,14.7,20.6,28.8,40.5,43,60.3-1.3.9-2.6,1.9-3.9,2.8-13.7-19.6-27.5-39.2-41.3-59-1,1.9-2.4,4.4-3.5,6.4,12.1,16.2,23.9,31.8,35.6,47.4-.6.7-1.2,1.5-1.8,2.2-2.3-1.4-5.4-2.2-6.8-4.2-9.9-13.8-19.5-27.8-29.5-42.2-1.2,2.3-2.3,4.4-3.1,5.9,10,13.9,19.4,27,28.9,40.2l-3.4,2.5c-9.4-12.7-18.9-25.4-28.4-38.3-.8,1.6-1.9,3.9-2.7,5.6,7.9,10.7,15.4,20.9,22.8,31.1-1.2.9-2.5,1.8-3.7,2.7-7.3-10-14.5-20.1-21.7-30-.8,1.4-2.2,3.8-3.2,5.6,5.4,7.5,10.4,14.3,15.4,21.2l-3.1,2.5c-5-6.4-10-12.8-15.5-19.9-1,2.6-1.9,4.9-2.3,6.1,3.1,4.6,5.6,8.2,8,11.8-.6.5-1.2,1.1-1.8,1.6-3.2-2.3-6.5-4.7-7.5-5.4-7,4-13.2,7.6-19.4,11.2-1-1.1-2.1-2.3-3.1-3.4,66.6-118.2,133.2-236.6,199.8-354.9-3.3-1.8-6-3.2-9.6-5.2-67.7,120.9-135.3,241.7-203.1,362.8h28.5c37-.4,74-.8,111-1.2,48.5-.6,97-1.1,145.4-1.9,2.2,0,5.7-3.2,6.3-5.6,2.5-9,3.6-18.3,6.1-27.3.9-3.1,3.6-6.6,6.4-8.2,10.1-5.8,20.5-11,31-16,6.3-3,13.1-5,19.7-7.5.9.6,1.9,1.3,2.8,1.9-6.8,20.6-13.6,41.1-21.3,64.3h306.1c-66.9-117.2-134.7-236-202.4-354.7-3.3,1.7-6.2,3.2-9.5,5,66.1,115.8,132.2,231.7,198.6,348.1-7.8.6-14.7.3-19.2-7.4-3.7-6.3-7.7-12.5-11.5-18.7-10-16.2-20.3-32.2-29.8-48.8-5.7-10-10-20.9-14.9-31.5h-143.2c-1.9,9.6-8.7,13.4-16.3,10.7-3.7-1.3-6.4-8.5-7.6-13.5-1.7-7-1.6-14.3-2.2-21.6l-3.9-.4c-1.3,11.5-2.6,23.1-4.2,37.4-3.3-5.5-5.6-9.2-7.9-13h-44.8c0,14.2.2,27.8-.2,41.5,0,3.2-2.2,6.3-3.4,9.5-1.4-3.1-4-6.2-4.1-9.4-.5-13.8-.2-27.6-.2-41.7h-60.7c-5.5,13.9-11.9,16.1-26.6,11.7-6-.3-11.9-.6-17.6-.9-.8-5-1.2-7.8-1.7-10.8-1.5-.3-2.9-.8-4.3-.8-37.5.5-75,1-112.5,1.6-1.2,0-3,.9-3.6,1.9-6.5,11.2-12.7,22.5-19.1,33.8h.1ZM598.4,326c-13.2,2.1-26.2,4.2-39.5,6.4,4.2,8.9,8.4,17.9,13.9,29.7-24.2,1.6-40.1-8.6-55.3-21.4-17,14.7-37.4,18.7-59.1,17.9-3,0-5.9-2.7-8.9-4.1,1.7-2.4,3.1-5.3,5.2-7.2,5-4.6,10.4-8.8,15.6-13.1-21-5-40.9-9.7-61.7-14.6-24.7,42.5-50.3,86.8-76.3,131.6h140c2.9-15.4,10.2-27.3,27.3-28.4,19.3-1.3,26.2,12.4,30.7,28.1h141.8c-25-42.3-49.4-83.7-73.7-124.9h0ZM421.3,570.4c1.3-.2,2.6-.3,3.8-.5,0-7,.8-14.1-.2-21-1-7.1-3.7-14-6.1-22.6,15.6,3.2,15.2,14.5,16.9,25h60.2v-69c-8.4-7.5-15.1-13.6-22.6-20.3h-146.2c-16.7,30.2-32.8,59.5-49.4,89.6h110.7c3.4-8,5.4-15.3,9.2-21.5,4.5-7.4,14.4-6,17,2.4,2,6.6,2.4,13.7,3.5,20.5,1,5.8,2.1,11.7,3.2,17.5h0ZM724.7,551.9l2.4-1.8c-.3-.7-.5-1.5-.9-2.2-15.7-27.6-31.4-55.3-47.4-82.8-1.1-1.9-4.5-3.6-6.8-3.6-40-.3-79.9-.3-119.9-.4h-20.2c-9.7,8.4-17.3,14.9-26.6,22.9v67.7h44.3c3.4-20.3,8.4-26.5,26.8-26.6,16.8,0,13.4,15.9,16.8,26.2h105.9c-18.9-29-37.3-57.2-55.7-85.5,1-.6,2-1.3,3-1.9,18.6,29.1,37.1,58.1,55.8,87.3h7.9c-18.3-28.7-36.4-57.3-54.6-85.8,1.1-.7,2.2-1.4,3.3-2.1,18.3,29.3,36.6,58.5,54.8,87.7h6.8c-17.9-29-35.7-57.8-53.4-86.6.9-.6,1.7-1.1,2.6-1.7,18.4,29.7,36.8,59.5,55.2,89.2h-.1ZM485.1,322.4c-.2-.5-.4-1-.6-1.5-20.2-6.9-41.7-11.3-60.3-21.2-34.2-18.1-69.4-25-107.5-19.5-4.9.7-9.9,0-18.1,0,42.9-14.5,81.1-12.1,118.9,6.6,18.3,9.1,37.9,15.8,57.1,22.9,5.6,2.1,12.1,1.8,18.2,2.6-.8-2.8-2.1-3.4-3.3-4-24.8-12.4-51.4-22.1-74-37.7-30.6-21.1-62.3-23.4-96.2-15-30.3,7.5-60.3,10.7-90.6,1.1-48.9-15.6-94.7-5.8-138.9,16.9-7.8,4-15.1,9.1-22.6,13.7,4.3.8,7.5-.3,10.7-1.6,50.5-21,101.1-23.7,152.1-1.1,26.5,11.8,54.5,14.9,83.2,10.9,29.2-4,57.8-4.4,86,6.9,18.7,7.5,38.3,13.2,57.8,18.3,9,2.3,18.8,1.2,28.2,1.6h0ZM581.4,276.4c-7.1-11.4-12.6-20.7-18.5-29.7-10.4-15.9-29.9-20.8-47.1-13.3-12.5,5.4-25.5,10.5-38.8,13.4-9.4,2.1-19.7.4-29.9.4-4.7,7.3-9.7,15-15.6,24.1,22.9,10.8,44.8,21.1,66.5,31.3,12.9-11.8,25.5-11.4,39.2-1.2,14.3-8.1,28.9-16.3,44.3-25h0ZM464.4,735.3c7.4-3.2,14.1-6.4,21.1-9,6.8-2.5,13.8-4.4,20.8-6.5-4.9,24.6-9.5,47.6-14,70.6.3,0,.6.2.9.3,17.2-32.6,34.4-65.1,51.6-97.5-16,6.1-32.3,12.2-51.4,19.5,9-30.9,17-58.6,25.2-86.9-5,2.3-9.7,4.9-14.6,6.7-10.4,3.7-15.6,10.1-18.1,21.7-5.9,27.2-14.1,53.9-21.5,81.3v-.2ZM669.4,384.5c13.7,3.8,23.5-3.1,27.3-13.9,5.2-14.8,8.2-29.1-6.2-40.4-16.1-12.6-35.7-14.3-55.4-17.3.4,1.8.4,2.9.8,3.7,10.1,18.5,20.3,37,30.6,55.5,7.3-7.3,20.1-7.5,23.8-1.4-6.2,4.1-12.4,8.2-20.9,13.8h0ZM518.2,220.9c15.2-5.7,27.2.6,39.8,8.4,22.5,13.9,49.4-.5,50.6-26.8.4-9.1-1.8-18.4-3.2-27.6-.9-6.2-4.8-7.5-10.6-6-44.8,11-90,10.7-135.4,5.1-15.1-1.9-30.1-4.1-46.2-6.4v51.3c0,.8,1,1.8,1.8,2.2,18.7,9,37.4,18.1,54.6,16.6-12.9-4.8-29.6-10.9-46.1-17.4-3.2-1.2-7.6-4-8-6.5-1.1-7.5-.4-15.3-.4-23.1,2.9-.8,5.2-1.4,9.2-2.4-3.8-1.5-6-2.4-8.7-3.5.2-3.7.4-7.6.7-12.4,62,9.3,123.4,17.7,185,1.4.6,3.4,1.5,5.9,1.4,8.3-.5,12.3,1.8,25.8-2.8,36.4-6.8,15.9-29.8,17.2-46.2,5.2-13.5-9.9-26-11.1-35.6-2.8h.1ZM503.3,95.5c-14.5,23.3-28.5,45.7-42.8,68.5,4.5.6,7.7,1,10.3,1.4,10.8-16.9,21.2-33.3,33.1-51.8,11.1,17.6,20.9,32.4,29.8,47.7,3.9,6.8,8.4,7.4,15.6,4.5-15.2-23.3-30.2-46.3-45.9-70.4h0ZM548.9,319c2.5.8,5.1,2.1,7.6,2.2,23.1,0,44.9-5.3,64.6-17.6,15.3-9.7,15.9-26.3,2.4-34.9-17.1,28.5-45.9,35.9-75.1,42.7,27.6-1.2,52.6-10,75.4-25.5-19.1,23.8-46.9,27.4-74.9,33.1ZM483.8,451.5c-.2,9.3,7.5,16.3,18.1,16.5,9.3.2,16.3-6.3,16.4-15.1,0-10.1-8.3-19.3-17.7-19.4-9-.1-16.7,8.1-16.9,18h0ZM323.8,390.2c.1-.6.3-1.2.4-1.8-.8-.4-1.6-.9-2.5-1.3-15.4-6.9-28-24.3-26.4-39.1,1.9-17.1,14.7-25,29.4-30.5,1.6-.6,3.1-1.1,4.7-1.5,9.9-2.8,19.8-5.7,31.4-8.9-2.4-.8-3.1-1.3-3.5-1.2-17.2,5.3-36.2,7.7-51,16.8-25.1,15.5-20,52.8,7.2,65.3,3.1,1.4,6.9,1.6,10.3,2.3h0ZM543.9,308c.2.4.4.8.6,1.3.9,0,2,0,2.8-.4,18.2-8.3,36.8-16,54.5-25.2,6.6-3.4,11.5-10.3,16.6-16.1.9-1-.4-5.1-1.8-6.7-.8-.9-5.2-.5-6,.6-14.6,19.9-35.4,31.2-57.1,41.2-3.3,1.5-6.3,3.6-9.5,5.3h-.1ZM481.1,190.1c-5.6,5.8-11.2,8.9-12.1,13-1.7,7.3,6.4,13.7,15.5,13.5,7.9-.1,14.2-4.8,12.3-12-1.3-5.1-8.9-8.6-15.7-14.6h0ZM504.4,139.9c-6.2,9.1-12,17.6-18.6,27.3h37.4c0-.6,0-1.2-.3-1.5-6.1-8.5-12.2-17-18.5-25.8ZM572.7,216.8c10.2-2.7,16-6.7,14.9-14.4-.5-3.5-6.4-8.2-10.4-8.8-7-1.1-15,1.9-14.6,10.2.2,4.5,6.5,8.6,10,13h0ZM528,316.5c.2-9.1-1.8-14-10.4-14.1-7.5,0-9.5,4.3-8.8,10.1.7,6.2-1.6,15.1,8.2,16,9.4.9,10.1-7,11-12ZM343.7,324.1c-.3-.6-.6-1.2-.9-1.8-9.1,4.5-18.6,8.4-27,13.8-8.6,5.6-11.3,14-6.3,23.9,3.8,7.4,7.1,15.1,11.7,22,1.7,2.6,6.3,3.3,9.6,4.9.9-1.4,1.7-2.7,2.6-4.1-3.4-3.4-6.3-7.5-10.3-10.2-16.1-11.1-16.1-28.9.6-38.7,6.4-3.7,13.3-6.6,20-9.8ZM464.6,350.5c.2.7.4,1.4.5,2.1,14.2-4.7,28.4-9.4,44.9-14.8-3.5-3.8-4.6-5-4.6-5-11.1,5.4-20.8,10-30.6,14.7-.3-.5-.5-1.1-.8-1.6,9.1-6.6,18.1-13.2,27.3-19.9-1-1.9-1.7-3.2-2.8-5.1-11.6,10.1-22.8,19.9-34,29.6h0ZM527,337.6c10.6,5.8,20.2,10.9,30.9,16.7-.6-12.9-13.3-30-24.7-30.9,7.1,8.4,12.5,14.9,18,21.4-.5.6-1,1.2-1.5,1.7-6.1-4.5-12.2-8.9-18.5-13.6-.4.4-1.2,1.4-4.2,4.6h0ZM435.2,240.9c-4.3-2-7.8-3.6-11.5-5.2-4.4,7.8-8.3,14.8-12.3,21.7,3.3,2,5.9,3.6,9.1,5.6,4.9-7.3,9.4-14.2,14.7-22.1ZM587.1,240.7c-3,1.2-6.1,2.5-9.7,4,4.7,8,9.2,15.5,13.8,23.1,7.9-8.6,7-14.1-4-27.1h0ZM407.4,536.9c-8,6.6-10,26.5-5.4,31.8.8.9,2.4,1.9,3.3,1.6,1.4-.5,3.4-2,3.4-3-.2-9.4-.7-18.9-1.2-30.3h0ZM193.5,404.9c27.1-5.5,49.6-21.2,73-35-24.3,11.7-48.7,23.4-73,35ZM164.7,362.4c21.1-9.2,42.1-18.4,63.1-27.5l-.4-.9c-22.1,8.5-44.3,17.1-66.5,25.6,1.1.8,2.4,1.7,3.8,2.8ZM578.1,566c8.7-10.5,4.7-28.9-4.5-31.3,1.4,9.9,2.8,19.4,4.5,31.3ZM254.8,367.6l-1-1.6c-22.5,11.1-45.1,22.2-67.6,33.3.4.8.8,1.7,1.2,2.5,22.5-11.4,44.9-22.8,67.4-34.2h0ZM240.2,364.5c-.2-.4-.5-.9-.7-1.3-19.2,9.5-38.5,19.1-57.7,28.6.4.7.7,1.4,1.1,2.1,19.1-9.8,38.2-19.7,57.3-29.5h0ZM149.5,353.8c.3.9.7,1.8,1,2.8,16.8-6.9,33.6-13.9,50.4-20.8-.2-.4-.3-.8-.5-1.3-17,6.4-34,12.9-50.9,19.3ZM228.2,360.6c-.2-.4-.5-.8-.7-1.2-16.3,8-32.6,15.9-48.9,23.9.4.8.9,1.6,1.3,2.4,16.1-8.4,32.2-16.7,48.3-25.1ZM246.8,431.7c.5.9.9,1.7,1.4,2.6,13.2-9.3,26.3-18.6,39.5-27.9-.3-.4-.5-.8-.8-1.2-13.3,8.8-26.7,17.7-40,26.5h0ZM221,354.1l-.5-1.1c-15.3,7.2-30.6,14.3-46,21.5.3.8.7,1.6,1,2.4,15.1-7.6,30.3-15.2,45.4-22.8h.1ZM236.4,416.7l1.4,2.8c12.3-8.4,24.7-16.7,37-25.1-.2-.4-.5-.8-.7-1.2-12.6,7.8-25.1,15.7-37.7,23.5ZM242,424.4l1.2,2.3c12.3-8.6,24.6-17.1,36.8-25.7-.3-.4-.5-.8-.8-1.1-12.4,8.2-24.8,16.3-37.2,24.5ZM186,287c0-.4-.2-.8-.2-1.2-14.4,3.8-28.7,7.5-43.1,11.3.2.8.4,1.7.7,2.5,14.2-4.2,28.4-8.4,42.6-12.6ZM265.2,391.8c-.2-.4-.4-.8-.7-1.2-12,6.8-24,13.7-36,20.5.5.8,1,1.6,1.4,2.4,11.7-7.3,23.5-14.5,35.2-21.8h.1ZM251.9,438.8l1.6,2.3c10.2-7.3,20.4-14.7,30.6-22l-.8-1.2c-10.5,7-20.9,13.9-31.4,20.9h0ZM144.9,346.5l1,2.5c11.5-4.8,23-9.5,34.5-14.3-.2-.4-.3-.8-.5-1.2-11.7,4.3-23.3,8.6-35,12.9h0ZM145.7,304.7c.2.6.3,1.2.5,1.8,14.7-4,29.4-8,44.2-12,0-.4-.2-.8-.3-1.2-14.8,3.8-29.5,7.6-44.3,11.4h-.1ZM138.1,289.7c.2.9.4,1.8.7,2.7,10.1-3.2,20.3-6.5,30.4-9.7,0-.3-.1-.6-.2-.9-10.3,2.6-20.6,5.3-30.8,7.9h-.1ZM144.6,337c.2.6.5,1.3.7,1.9,9.4-3.5,18.8-6.9,28.2-10.4-.2-.6-.4-1.1-.6-1.7-9.4,3.4-18.9,6.8-28.3,10.2h0ZM191.6,361c-.2-.6-.4-1.2-.6-1.7-7.3,2.4-14.6,4.9-21.9,7.3.3.9.6,1.8,1,2.7,7.2-2.8,14.4-5.5,21.6-8.3h-.1ZM528.3,685.6c-13-1.7-15.7-.4-15.3,6.5,4.8-2.1,9.6-4.1,15.3-6.5ZM149.9,282.5c0-.6-.1-1.2-.2-1.8-6.5.8-12.9,1.6-19.4,2.4.1,1,.3,1.9.4,2.9,6.4-1.2,12.8-2.3,19.1-3.5h.1ZM145.5,327c.4.9.8,1.7,1.2,2.6,6-2.5,12-5,18.1-7.5-.2-.5-.3-.9-.5-1.4-6.3,2.1-12.5,4.2-18.8,6.3h0Z"/>
        <path d="M818.9,478.1h26.8c-6.9,5.1-11.5,8.6-16.6,12.4,6.3,1,13,2,20,3.1-.3,1-.3,2-.7,2.8-12.3,23.9-24.6,47.9-37.3,71.6-1.5,2.8-5.6,4.2-8.6,6.2-.9-3.4-2.8-6.8-2.6-10.1,1.4-17.1,3.4-34.1,5.2-51.2.1-1.3,0-2.6,0-3.8-10.3-2.3-20.1-4.6-31-7,1-3.4,1.6-6.9,3.1-10.1,11.5-23.6,23.2-47.2,35.1-70.6,1.3-2.5,4.7-3.9,7.1-5.8,1.2,2.9,3.4,6,3.3,8.8-.9,17.8-2.4,35.5-3.7,53.6h0ZM815.9,500.4c-1.7,14.6-3.3,28.8-4.9,43.1,6.6-9.1,10.8-18.6,15.1-28.1,6.8-14.7,6.1-15.7-10.2-15ZM791.3,488.4c11.2-.8,20.2-1.4,32.2-2.2-4.5-1-6.1-1.8-7.6-1.6-7.9.9-9.8-2.3-8.1-9.8,2.1-9.1,3-18.4,4.4-27.7-.5-.2-1.1-.3-1.6-.5-6.2,13.5-12.5,26.9-19.4,41.8h.1Z"/>
        <path d="M212.9,527.4c-4.5-.2-8.4-.4-13.7-.7-1.6,21.4-3.1,42.9-4.8,64.4-.2,2-1.9,3.9-2.9,5.8-1.8-1.4-4.6-2.4-5.3-4.2-7.1-16.5-13.7-33.3-20.7-49.8-3.4-8.1-7.4-16-12-25.9,6.6-1.1,14.3-2.4,22-3.7,1.6-8.2,3.2-16.4,4.9-24.6.7,0,1.4,0,2.2.2.7,11,1.4,22,2.1,33.2-5.8.4-11,.8-16.4,1.2,5.9,14,11.6,27.4,17.2,40.8.6,0,1.2-.2,1.8-.2-1.3-11.6-2.6-23.3-4-35.4,1,0,4.3-.3,8.3-.6,2.4-14.3,1.7-28-7.4-40.5-5.9-8.1-7.9-27.1-2.1-33.7,10.4,24.8,20.5,48.8,30.9,73.8h-.1Z"/>
        <path d="M376.4,149.7s-.8,1.1-2.1,2.9c-6.9-3.9-13.5-7.7-20.3-11.6,1.9,5.3,3.6,9.9,5.7,15.8-10.9-3.4-52.3-41.1-50.9-46.8,13,7,25.8,13.9,40,21.5-1.6-5.5-2.6-9.1-3.7-12.6.7-.4,1.3-.9,2-1.3,9.5,10.5,19.1,21,29.2,32.2h.1Z"/>
        <path d="M633.6,146.3c11.2-9.7,21.9-19,34.8-30.3-2.1,5.9-3.3,9-4.9,13.7,8.2-4.6,15.2-8.4,22.2-12.3,3.9-2.2,7.7-4.8,11.8-6.5,1.8-.8,4.3.1,6.5.3-.8,2-1,4.8-2.5,5.9-12.7,10.3-25.5,20.5-38.4,30.5-2.4,1.9-5.3,3.2-10.1,6.2,1.8-5.8,2.9-9.3,4.4-14.1-7.2,3.8-13.9,7.3-21.1,11.1-.8-1.3-1.5-2.5-2.6-4.4h0Z"/>
        <path d="M681.6,244.2c-4-4.1-5.6-6.8-7.9-7.9-4.5-2.1-9.5-3.1-14-5.2-1.2-.5-1.4-3.1-2-4.5h46.1c.3,1.1.6,2.2,1,3.2-3.9,1.9-7.7,3.8-12.3,6.1,9.2,1.5,18.1,3,27,4.5,2.3.4,4.9.3,6.8,1.3,2.2,1.2,3.7,3.4,5.5,5.2-2.3,1.1-4.7,3.3-6.9,3-15.5-1.8-31-4.1-43.4-5.9v.2Z"/>
        <path d="M280.7,182c.3-2.7.5-4.8.9-8.1,14.2,2.9,27.9,5.8,42.8,8.9-1.3-3.6-2.2-5.9-3.4-9.2,14,5.9,27.2,11.4,40.4,16.9-.2,1.3-.4,2.5-.5,3.8-4.2-.4-8.5-.6-12.7-1.3-4.7-.8-9.3-2.1-14.9-3.4.7,3.5,1.3,6.1,1.9,9.3-18.3-5.6-36.1-11.1-54.5-16.8h0Z"/>
        <path d="M675.3,197.7c.7-2.4,1.2-4.6,1.9-7.1-8.5,1.2-16.5,2.3-28,3.9,3.2-3.7,4.1-5.8,5.6-6.3,11-4.2,22-8.2,33.4-12.3v5.9c14-3.1,27.7-6,41.9-9.1.7,3.2,1.2,5.2,1.7,7.7-18.9,5.8-37.5,11.5-56.6,17.4h0Z"/>
        <path d="M554.7,86.3c1.9-5.5,3.8-11.1,5.8-16.8-1.7-1-2.9-1.7-4.6-2.8,1.6-5.9,3.1-11.7,5-18.6,2.4,1.8,3.7,2.8,5.2,3.9,3.7-6.9,7.2-14,11.3-20.8.9-1.5,3.5-2.1,5.3-3.1.7,2.1,2.5,4.6,1.9,6.3-2.7,7.3-6.1,14.3-9.4,21.7,2.7.2,5.6.4,8.7.6-4.4,11.9-23.7,31.7-29.2,29.5h0Z"/>
        <path d="M446.7,88.1c-3.1-1.3-5.6-1.5-6.6-2.8-6.5-8.9-12.8-18.1-19.7-28,3.1-.5,5-.7,7.1-1.1-2.6-7.3-5.4-14.5-7.5-22-.5-1.8,1.1-4.3,1.7-6.5,1.8,1.3,4.5,2.1,5.4,3.9,3.6,7.6,6.7,15.5,10,23.4,1.3-1.5,2.5-2.9,3.7-4.2,1.7,2.8,4.2,5.5,4.8,8.5.8,3.9.2,8-2.5,12.2,1,4.7,2.1,9.3,3.7,16.6h-.1Z"/>
        <path d="M598.8,109.5c14.1-15.4,28.2-30.8,42.4-46,.7-.7,3.4-.6,4.3.2.9.8,1.4,3.5.8,4.2-13,15.1-26.2,30-39.6,44.8-.9,1-4,.1-6.1.1-.6-1.1-1.2-2.2-1.8-3.3h0Z"/>
        <path d="M363.1,60.6c14.2,16.1,28.5,32.2,42.7,48.3-.4,1.1-.9,2.1-1.3,3.2-2.5-.3-6,.3-7.3-1.1-11.9-12.9-23.6-26-35-39.3-1.8-2.1-1.9-5.8-2.7-8.7l3.6-2.3h0Z"/>
        <path d="M501.5,52.4c-1.7-2-4.6-3.9-4.8-6.1-.7-7.4-.7-14.9-.5-22.4,0-1.4,2.3-3.6,3.9-3.9,1.3-.3,4.3,1.6,4.3,2.7.3,9.4.2,18.7.2,28.1-1,.5-2.1,1.1-3.1,1.6h0Z"/>
        <path d="M715.8,575.4c20.3,29.5,40.6,58.9,60.9,88.4-1.1.7-2.1,1.5-3.2,2.2-21.9-28.3-40.6-58.9-60.1-88.9.8-.6,1.5-1.1,2.3-1.7h.1Z"/>
        <path d="M788.1,662.4c-27.3-27.6-46.3-61.3-65.7-94.6,21.9,31.5,43.8,63.1,65.7,94.6h0Z"/>
        <path d="M763.9,662.9c-2.8.5-4.2.7-5.7.9-8.6-12.7-17.1-25.2-25.4-37.8-8.1-12.3-16.1-24.8-24.1-37.2.8-.5,1.5-1,2.3-1.5,17.4,24.8,34.8,49.6,52.8,75.5h.1Z"/>
        <path d="M260.5,588.1c18.3,25.9,36.7,51.8,55,77.8-1.2.9-2.5,1.7-3.7,2.6-17.9-26.2-35.8-52.5-53.7-78.7.8-.6,1.7-1.1,2.5-1.7h-.1Z"/>
        <path d="M251.2,598.1c1.3.4,3.1.3,3.8,1.2,15.4,21.3,30.7,42.6,46.1,64,.3.5.4,1.2,1.5,4.9-4.6-3.8-7.7-5.4-9.4-7.9-14.1-20.7-27.9-41.5-41.9-62.3h-.1Z"/>
        <path d="M326,666.1c-2-1.1-4.6-1.8-5.8-3.5-15.1-22.7-30-45.5-44.9-68.3-.7-1-.9-2.4-2.4-6.4,19.4,27.1,37,51.8,54.6,76.5-.5.6-1,1.1-1.5,1.7Z"/>
        <path d="M706.1,599.7c15.1,21.4,30.1,42.7,45.2,64.1-1.2.8-2.5,1.7-3.7,2.5-14.6-21.7-29.3-43.4-43.9-65.1.8-.5,1.6-1,2.4-1.6h0Z"/>
        <path d="M339.2,665.3c-1.9-1-4.6-1.4-5.6-3-14.4-21.7-28.6-43.6-42.8-65.4-.3-.5-.4-1.1-.2-.4,16.1,21.8,32.9,44.5,49.7,67.1-.4.5-.7,1.1-1.1,1.6h0Z"/>
        <path d="M733.8,666.4c-12.5-18.8-25-37.6-37.5-56.5.6-.4,1.2-.8,1.9-1.2,13.3,18.2,26.7,36.4,40,54.6-1.5,1-2.9,2.1-4.4,3.1Z"/>
        <path d="M721.9,667.1c-11.2-16.4-22.5-32.8-33.7-49.3.7-.5,1.4-1,2-1.5,11.9,15.9,23.9,31.8,35.8,47.8-1.4,1-2.7,2-4.1,3Z"/>
        <path d="M350.7,666.6c-13.2-18.4-26.5-36.7-39.7-55.1.5-.4,1-.7,1.5-1.1,13.9,17.8,27.8,35.6,41.7,53.5-1.2.9-2.3,1.8-3.5,2.7Z"/>
        <path d="M676.4,616.5c12.3,16.3,24.5,32.5,36.8,48.8-1.3.9-2.6,1.8-3.9,2.8-11.6-16.8-23.2-33.5-34.7-50.3.6-.4,1.3-.9,1.9-1.3h-.1Z"/>
        <path d="M668.1,623.3c10.1,13.8,20.3,27.6,30.4,41.4-1.1.8-2.3,1.6-3.4,2.4-9.7-14.1-19.5-28.2-29.2-42.2.7-.5,1.5-1,2.2-1.6Z"/>
        <path d="M364.1,665.8c-9.8-13.5-19.6-26.9-29.4-40.4.6-.5,1.2-.9,1.8-1.4,10.3,13.1,20.7,26.1,31,39.2-1.1.9-2.2,1.7-3.3,2.6h0Z"/>
        <path d="M679.6,665.6c-7.2-10.7-14.5-21.4-21.7-32.1.8-.6,1.6-1.1,2.4-1.7,7.8,10.3,15.7,20.5,23.5,30.8l-4.2,3Z"/>
        <path d="M649.1,635.9c7.1,9,14.3,18.1,21.4,27.1-.9.7-1.9,1.4-2.8,2.2-10.3-6.6-13.6-18.4-18.5-29.3h0Z"/>
        <path d="M623,638.8c6.8,8.3,13.6,16.7,20.3,25-1.2.9-2.4,1.8-3.6,2.7-6.1-8.9-12.2-17.7-18.3-26.6.5-.4,1-.8,1.5-1.1h.1Z"/>
        <path d="M376.6,665.3c-6.5-9.4-12.9-18.8-19.4-28.2.5-.4.9-.7,1.4-1.1,7.1,8.8,14.3,17.7,21.4,26.5-1.1.9-2.3,1.8-3.4,2.7h0Z"/>
        <path d="M625.7,665.7c-4.8-7.6-9.7-15.2-14.5-22.9.7-.5,1.5-1,2.2-1.5,5.3,7.2,10.7,14.5,16,21.7-1.2.9-2.5,1.8-3.7,2.6h0Z"/>
        <path d="M612.9,666.2c-4.5-7.2-9-14.3-13.5-21.5.9-.6,1.8-1.2,2.7-1.9,4.7,7,9.4,14.1,14.1,21.1l-3.4,2.2h0Z"/>
        <path d="M653.2,666.3c-5.1-7.7-10.2-15.3-15.3-23l2-1.5c5.6,7.4,11.1,14.7,16.7,22.1-1.1.8-2.2,1.6-3.3,2.4h0Z"/>
        <path d="M601.2,666.2c-4.2-6.6-8.5-13.2-12.7-19.7.6-.5,1.3-.9,1.9-1.4,4.7,6.2,9.5,12.5,14.2,18.7l-3.4,2.4Z"/>
        <path d="M375,641.5c5.4,7,10.8,14,16.2,21-.8.6-1.6,1.2-2.4,1.8-5.1-7.2-10.3-14.4-15.4-21.5l1.5-1.2h.1Z"/>
        <path d="M578.4,646.4c4.4,5.8,8.7,11.7,13.1,17.5-.9.7-1.9,1.3-2.8,2-4-6.1-7.9-12.2-11.9-18.2.5-.4,1.1-.8,1.6-1.2h0Z"/>
        <path d="M568.9,651.2c3.5,3.9,7,7.8,10.5,11.6-.8.7-1.7,1.4-2.5,2.1-3.1-4.2-6.2-8.4-9.3-12.5.4-.4.9-.8,1.3-1.1h0Z"/>
        <path d="M400.8,648.7c3.5,4.1,6.9,8.2,10.4,12.3-.6.5-1.1.9-1.7,1.4-3.3-4.2-6.5-8.4-9.8-12.6.3-.4.7-.7,1-1.1h.1Z"/>
        <path d="M661.9,449.7c-24.4-39.2-48.8-78.3-73.2-117.5.9-.6,1.7-1.1,2.6-1.7,24.7,39.1,49.3,78.2,73.9,117.2-1.1.7-2.2,1.3-3.3,2Z"/>
        <path d="M614.8,386.5c13,20.4,26,40.8,39,61.2-1.1.7-2.2,1.4-3.3,2.1-12.9-20.7-25.7-41.3-38.6-62,1-.4,1.9-.9,2.9-1.3h0Z"/>
        <path d="M609.3,399.3c10.9,16.3,21.9,32.5,32.8,48.8-.9.6-1.8,1.2-2.7,1.8-10.8-16.4-21.6-32.8-32.4-49.2.7-.5,1.5-1,2.2-1.4h.1Z"/>
        <path d="M581.7,335.8c7.4,10.8,14.8,21.6,22.2,32.4-.9.6-1.9,1.3-2.8,1.9-7.1-11-14.3-21.9-21.4-32.9l2.1-1.4h0Z"/>
        <path d="M610.7,421.6c6,8.4,12.1,16.9,18.1,25.3-.7.5-1.3.9-2,1.4-6.1-8.4-12.2-16.8-18.2-25.2l2.1-1.5h0Z"/>
        <path d="M412.1,347.7c-2.9-4.6-5.9-9.1-8.8-13.7.7-.5,1.5-.9,2.2-1.4,2.9,4.6,5.9,9.1,8.8,13.7-.7.5-1.5.9-2.2,1.4Z"/>
        <path d="M400.9,342.2c3.4,5,6.8,9.9,10.3,14.9-.6.4-1.2.8-1.8,1.2-3.6-4.9-7.2-9.8-10.8-14.7.8-.5,1.5-.9,2.3-1.4Z"/>
        <path d="M371.2,424.8c-3.6-5.6-7.2-11.1-10.9-16.7.5-.3,1-.6,1.5-1,3.7,5.4,7.5,10.9,11.2,16.3-.6.5-1.2.9-1.8,1.4Z"/>
        <path d="M352.9,424.4c2.7,4.8,5.5,9.5,8.2,14.3-.4.3-.8.6-1.3.9-3.2-4.5-6.4-9.1-9.6-13.6.9-.5,1.7-1,2.6-1.5h.1Z"/>
        <path d="M393.9,372.8c-2.2-4.4-4.4-8.7-6.6-13.1.6-.3,1.1-.6,1.7-.9,2.6,4.2,5.1,8.3,7.7,12.5-.9.5-1.9,1-2.8,1.6h0Z"/>
        <path d="M358,415c3,4.9,5.9,9.8,8.9,14.7-.6.4-1.2.7-1.7,1.1l-9.2-14.5c.7-.4,1.3-.8,2-1.2h0Z"/>
        <path d="M376.7,415.1c-3.7-4.8-7.4-9.5-11-14.3.6-.4,1.2-.9,1.8-1.3l10.6,14.7c-.5.3-.9.6-1.4,1h0Z"/>
        <path d="M396.2,350.1c2.5,4.1,5.1,8.2,7.6,12.3-.8.4-1.5.9-2.3,1.3-2.4-4.2-4.8-8.3-7.2-12.5.6-.4,1.2-.8,1.9-1.2h0Z"/>
        <path d="M412.6,327.2c2.5,3.6,5.1,7.2,7.6,10.8-.7.5-1.5,1-2.2,1.5-2.4-3.7-4.9-7.4-7.3-11,.6-.4,1.3-.9,1.9-1.3Z"/>
        <path d="M379.3,403.5c-2.8-3.7-5.6-7.4-8.5-11.1.6-.5,1.2-.9,1.8-1.4,2.8,3.7,5.6,7.4,8.3,11.1-.6.5-1.1.9-1.7,1.4h0Z"/>
        <path d="M312.2,534.6c-4.4-6-8.9-11.9-13.3-17.9.7-.5,1.3-1,2-1.4,4.6,5.9,9.2,11.8,13.8,17.7-.8.5-1.6,1.1-2.4,1.6h-.1Z"/>
        <path d="M304,541.6c-3.3-5-6.6-10-9.9-14.9.6-.4,1.1-.8,1.7-1.1,3.5,4.8,7,9.7,10.5,14.5-.7.5-1.5,1-2.2,1.6h-.1Z"/>
        <path d="M316.4,523.7c-3.7-5-7.5-10.1-11.2-15.1.6-.5,1.2-.9,1.8-1.4,3.8,5,7.5,10.1,11.3,15.1-.6.5-1.3.9-1.9,1.4h0Z"/>
        <path d="M321,513.9c-3.7-4.8-7.4-9.6-11.1-14.4.6-.4,1.1-.9,1.7-1.3,3.7,4.8,7.5,9.5,11.2,14.3l-1.9,1.4h.1Z"/>
        <path d="M325.1,504.9c-2.7-4.7-5.3-9.4-8-14.1.6-.3,1.1-.7,1.7-1,2.9,4.5,5.8,9.1,8.8,13.6l-2.5,1.5Z"/>
        <path d="M671,525.1c-11-16.2-22-32.3-32.9-48.5.8-.5,1.6-1.1,2.5-1.6,10.7,16.3,21.5,32.6,32.2,49-.6.4-1.2.8-1.8,1.2h0Z"/>
        <path d="M498.6,255.9c14.6,8.1,27.4,8.1,40.3,1.5,1.3-.7,4.4-.6,4.7,0,.7,1.7,1.2,4.3.3,5.7-6.7,11.7-38.2,12.7-45.2,1.3-1.2-1.9-.2-5.1-.2-8.6h.1Z"/>
        <path d="M502.5,148.3c2.8,4.3,5.6,8.7,8.4,13-.7.5-1.4.9-2.1,1.4-2.9-4.4-5.9-8.7-8.8-13.1.8-.4,1.7-.9,2.5-1.3Z"/>
        <path class="cls-4" d="M721.5,549.5c.2.7.3,1.3.5,2"/>
        <path class="cls-4" d="M274.5,590c.2.7.3,1.3.5,2"/>
        <path class="cls-4" d="M292.5,598.5c.8,1.8,1.7,3.7,2.5,5.5"/>
        <path class="cls-4" d="M679.5,622.5c.2.5.3,1,.5,1.5"/>
        <path class="cls-4" d="M181.5,488c.2.7.3,1.3.5,2"/>
        <path class="cls-4" d="M475,346h-1.5"/>
        <path class="cls-4" d="M300.5,515c.2.7.3,1.3.5,2"/>
        <path class="cls-4" d="M361.5,407c.2.7.3,1.3.5,2"/>
        <path class="cls-4" d="M317.5,489l1.5,3"/>
        <path class="cls-4" d="M295.5,525c.2.7.3,1.3.5,2"/>
        <path class="cls-4" d="M311.5,498c.2.7.3,1.3.5,2"/>
        <path class="cls-4" d="M352.5,424v1.5"/>
        <path class="cls-4" d="M338.5,663.5c.3.5.7,1,1,1.5"/>
        <text class="cls-1" transform="translate(422.5 391)"><tspan x="0" y="0">Voltage</tspan></text>
        <text class="cls-2" transform="translate(364.7 601.2)"><tspan x="0" y="0">Current</tspan></text>
        <text class="cls-2" transform="translate(517.5 601.2)"><tspan x="0" y="0">Resistance</tspan></text>
        <text class="cls-3" transform="translate(488.6 460.5)"><tspan x="0" y="0">V</tspan></text>
        <text class="cls-3" transform="translate(414.9 630.7)"><tspan x="0" y="0">I</tspan></text>
        <text class="cls-3" transform="translate(583.6 630.7)"><tspan x="0" y="0">R</tspan></text>
        <text class="cls-1" transform="translate(398.5 860.3)"><tspan x="0" y="0">V = I x R</tspan></text>
      </g>
    </g>
  </g>
</svg>