<?xml version="1.0" encoding="UTF-8"?>
<svg id="Layer_1" xmlns="http://www.w3.org/2000/svg" version="1.1" viewBox="0 0 980 940">
  <!-- Generator: Adobe Illustrator 29.1.0, SVG Export Plug-In . SVG Version: 2.1.0 Build 142)  -->
  <defs>
    <style>
      .st0 {
        fill: #d60000;
      }

      .st1 {
        fill: #f7b01d;
      }

      .st2 {
        fill: #414042;
      }

      .st3 {
        fill: #ef9f18;
      }

      .st4 {
        fill: #96ced6;
      }

      .st5 {
        fill: #514512;
      }

      .st6 {
        fill: #ee8a1f;
      }

      .st7 {
        fill: #d69696;
      }

      .st8 {
        fill: #d5bc2a;
      }

      .st9 {
        fill: #464015;
      }
    </style>
  </defs>
  <path class="st2" d="M585.6,75c7.7,2.6,3,18.8,3.2,25.2,2,.1,4,.5,6,.7,2.2-6.7,2.1-22.9,11.2-23.1,3.9,4.1-.9,19.6-2.1,24.9,6.2,1.3,12,4.1,17.8,6.6,9-16.3,27-22.6,43.8-27.3,3.8-1.3,7.2-6,11.6-4.4,11.6,21,6,57.4-18.2,67.4,9.7,14.9,11.2,32.3,14.2,49.3,20.5,25.5,19.8,58.5-6.8,79.6,13.2,9.8,16.4,25.3,23.1,39.2,9.7-7.2,16.9-17.6,26.8-24.9,11.5-10.2,34.5-11,28.7,9.9-3.2,9.4-25.2,30.6-33.5,35.3,25.4,43.6-24.9,81-65,84.5-3.1,8.4-6.5,16.3-10.7,24.2,19,13.8,23.8,42.1,18.1,63.8-1.8,6.9-8.3,16-6.7,23.1,3.3,13.7,23.4,28.9,35.1,35.7,18-13.3,35.8-27,52-42.7,63.1-76.7,152.2-54.9,238.2-55.9,5.1,1.7,3.8,8.6-1.5,8.8-42,2.2-101.8-2.7-143.8,1.8-79.4,16.4-112.4,104.6-197.3,123.1l.4.6c26.2,7,48.5,7.5,74.6.7,2-12.6,1.4-40.8,19.3-39.9,10,0,32.3,7.8,40.4,14.2,2.8,2.2,12.6,13.2,15,13.3,0-.6,0-1.1,0-1.7l1.1-.4c2.1-12,.4-29.3,11-38,26.3-7.8,54.4,32.5,49.4,57,17.8,13.4,28.6,34.4,31.7,56.3,1,3.3,5.6,5.1,5.9,8.5-.6.6-1.1,1.2-1.6,1.9-.1,9.9,1,20.4,2.7,30.2,12.2,7.4,16.3,4.7,28.7,5.5,28.4,13.4,7.9,77-24.4,64.8-17.3,14.9-54.3-10.1-58.8-10.7-1,2.3.3,5.4,1,7.6,6.4,5.1,13.8,10,19,16.4-19.1,15.2-48.3,21.3-71.9,14.8,8.6,9.9,46.2,32.3,58.9,32.6,16.9-1.8,76.5-4,41.7,24.2,11.4,10.1-10,20.7-18.5,22.6-14.4,4.2-29.7-.6-42.2-7.7-25.3-3.5-47.1-17.8-68.5-31,2.7,4.1,4.5,8.5,7.5,12.6,14.4,19.1,30.3,22.2,47.1,35.8,13.2,9.8,15.9,21.8-4.6,20.4,4.6,13.7-18.6,10.8-26.4,10.4-11.2-1.4-18.7-7.9-27.2-14.5-5.6-4.4-12.1-5.8-17.4-10.8-10.5-9.9-15.4-24.3-25.8-34.5-13.8-13.5-27.6-19.7-40.3-35.9-9.6,4.6-20,6.1-30.3,8.7,43.3,21,56.4,72.9,105,87.1,66.5,8.6,169.4-.7,236,3.7,7,2.9,1.7,10-4.3,9.3-8.9.1-30.6-.3-40-.1-34.5,0-110.7,0-144.4,0-25.1.8-51.2.6-73.1-13.2-38.8-21.6-55.4-76.7-102.5-83.9-6.1-.7-22.8-1.4-27.5,2.3-8.2,12.9-28.5,9.1-35-3.6-49-7.4-72.3,34.2-100.8,64.6-48.3,48.4-112.4,31.3-173.7,33.8-61.2-.6-190.5.8-250.2-.4-16.4-14,26.2-9,32.4-9.5,19.7,0,39.5-.4,59.2.2-5.9-6.6-11-13.7-16.6-20.6-8.3-11-21-21-23-35.3,4.5-7.9,9.9-15,12.2-23.9-3-7.1-10.4-11.7-15.4-17.3-7.5-8.4-13.8-18-19.2-27.9-6,3.9-11.8,6.6-18.6,8.8-4,8.1-8.2,11-16.3,14.6-16.2-1.5.7-11.1,6-15.4-16.9-8.4-20-39.9,4.1-36.5,9.7,3.6,13.7,17.8,10,26.8l.3.3c4-1.5,7.1-4.6,11.1-6.1-36.4-84.2,7-180.5,76.7-232.8-5.4-13.2-14.2-40-7-52.9,3.6-3.5,26.5-.5,32.5-.4,1.7-22.4,14.8-14,28.6-6.8-5.8-36.8,47.5-3.7,48.8,20.3,73.8,17.1,46.8,85,101.2,60.1,30.7,4,32.7,66.9-1.4,67.2-1.3-3.5-5.1,2.4-6.4,3.7-13,15.8-25.2,27.1-45.5,33.1v.5c69.2,16.6,64.9-18.2,100.4-14.6,8.3,3.8.2,15.7,5.6,18.9,18-35.7,39.5-76.6,84.7-86.1v-.3s-1.8-.2-1.8-.2v-.5c-20.8-5.1-41.8-11.1-59.9-23.1-41.8-21.1-74.2-65.8-113.5-89-29.5-16-64.3-14.5-96.8-13.8-26.8,0-132.4,0-157.3,0-7.2-.6-16.7,2.8-22.3-2.9-1.8-2.8,1-5.7,3.8-6.1,40.7-2.1,127,.2,169.9-.6,35.5.1,73.6-3.6,106,13.9,40.1,22.4,67.2,61.6,107.3,84.3,4.6-18.7,15.2-35,24-51.9-6.6-12.1-9.4-25.3-9.5-39-13.1,7.7-43,11.1-42.9-10.5-3.9-3.7-8.1-5.1-10.4-10.3-3.4-5.9-.3-19.9,8.3-17,5.4,4.5-1.9,10.7,0,16.2,27.8-26.5,45,9.2,16.1,15.8,9.9,5.7,23.3.9,30-7.6,8.1-11,5.2-18.1,3.6-30.3-3.5-26.9,3.1-59.7,19.9-81.4-5-44.5,15.8-90.1,50.4-117.9-2.7-30.6,1.7-58.7,23.6-81.3-15.2-14.5-22.5-32.8-23.4-53.6,0-5.5-2.3-13.2,2.5-17.3,24.5-3.8,50.9,8.7,65.7,28.4,7.7-3.1,16.2-4.4,24.4-6,1.1-7.9-.6-20.2,6.8-25.1ZM267.8,748.7c-3.1,12.3-4.8,25.3-9.9,37-3.7,8.4-9.2,15.8-12.8,24.1,18.1,12.9,7.6,33.6,15.7,50.3,6.3,10.9,24.6,22,32.4,34.7,11.7,15.8-23,16-31.6,16-3.2-.4-6.9-1.1-9.9-2.3-2.5-1-6.9-4.6-9.4-4.4-13.1,10.5-38.4-46-54.2-49.6-20.4,2.2-33.9,19.1-52.3,26.4,13.3,13.1,23.2,29.6,35.9,43.4,65.9-3.7,153.8,7,218.9-5.1,50.4-11.8,64.9-73.8,112.2-89-13-2.8-19.8-4.1-32.1-9.7-7.1,4.8-13.7,10.1-21.2,14.2-6.4,17.6-15.3,62.5-37.9,63.2-7.8-2.8-10.7-12.1-11-19.7-2.5-.2-5.2-.2-7-2.2-2.1-5.7,2.6-23.9,4.7-30.1-3.4.6-6.7.8-10.1.8-15.3,27.6-19.7,66.3-55,75.1-12.5-4.4-15.7-17.9-12.7-29.7-2-1.9-3.4-3.6-4.9-5.9,1.2-12.6,10.4-20,14.5-32.1,3.9-12.2,3.6-29.3,8.5-40.1,2-4.6,5.7-7.1,9.7-9.7,11.7-7.7,16.9-14.4,19.9-28.3,1.3-6.1,5.5-53.4,4.5-57.1l-.3-.3c-10.8,9.6-23.9,14.9-38.1,16.3-21.3,7.2-43.8,14.8-66.7,13.7ZM571.9,494.4c-1.4,14.7,1.5,29.1-1.2,43.5,1.1,9,2.1,18,.6,27,.3,9.8,2.1,11.6-1,22,5.3,1.7,10.7,5.5,9,11.8,0,.7,0,.5.3,1.3,19.3-1.5,39.2-5.7,58-10.4-56-14.6-21.8-73.4-65.7-95.2ZM505.7,494.8c-7.5,27.4-25.4,39-46.4,55.5,8.5,38.4,2.3,46.6,44.9,48.5,7.5.5,28.1,3.8,33.8,2.2l-.2-1.3.3.5c0-5.6,3-10.7,3.4-16.4.7-9.8-2.3-15,.7-25.9-3.9-10.5-.4-14.7-.4-24.6-3.2-11.3-.3-22.2.2-33.8-11.6-3.7-24.3-1.7-36.2-4.7Z"/>
  <path class="st7" d="M155.3,499.5c11.3,4.1,21.6,11.6,31.4,18.4,3,9.9,7.2,10.5,16.5,8,76.5-.2,61.3,72,104.8,66.9-5.9,15.4-9.3,37.4,6.7,47.9-13.5,9.4-28.5,6-41.7-1.6,1.4-2.6,2.9-9.3-1.7-8.8-1.6.5-12.3,10.5-13,12.1-1.8,7,5.7,5.1,9.1,2.2,9.8,7.1,22.6,13.3,34.9,9.7-10.7,10.5-37.2,26.4-52.8,24.1-7.4-.9-15.7-8.8-22.7-4.5-4.3,14.2,66.6,23.4,77.1,23.1,9.3,0,18.7-2.4,28-1.9,15.3.7,30.5,5.1,45.6.3-4.8,21.7-29.1,28.8-48.3,31.8-19.2,7-39.1,12.6-59.7,12.2-4.4,0-29-2.7-29.3-2.6-2.5.7-2.5,3.4-1.1,5.1,4.3,5.7,12.3,4.6,18.5,5.9-3.1,44.9-35.9,86.1-78.8,99.7,14.9-24.6,2.1-71-4.5-49.3,14,28.5-6.3,58.6-33,70.2-4.7,3.2-12.3,4.3-14.7,9.8,1.4,9.5,11.2,16.1,16.6,23.5,5.2,6.1,11.5,14.5,16.1,21.1l-.3.5c-11.6,2.3-16.6-20.6-27.7-19.9l-.4.9c1.2,6.7,9.5,14.3,13.5,20-8.7-1.7-18.1-1.1-27-1.4-6.4-6.8-11.9-16-17.5-23.6-7.6-10.2-15.9-18.3-21.4-30.1,2.8-8.4,9.7-15.6,10.5-24.7,1-10.7-13.9-18.3-19.9-26-63-80.7-18.7-195.6,54.9-253.2,2.4,6.2,30.4,27.6,34,17.4.7-4.8-9.2-6.7-12.4-9.1-20.3-11.1-27.9-39.1-25.8-60.7,23.8.8,48.3,4.1,63.8,24.4,2.2,2.9,5.7,10.6,9.1,11.6,5.9-4.5-2.4-12.8-5.2-17.1-11.5-15-16.7-14.3-32.1-22.4l-2.9-4.6c.8-1.8,1.7-3.6,2.6-5.4Z"/>
  <path class="st5" d="M254.6,585.2c13.3-.9,15.4,22.9,3.6,26.8-13.1-1-15.8-22.1-3.6-26.8Z"/>
  <path class="st5" d="M136.2,528.8c17.2-.9,37.1,14.5,36.2,32.5-7.9-2.9-10.4-15.9-18.6-20.7-4.1-4.5-20.4-5.1-17.6-11.8Z"/>
  <path class="st5" d="M244.8,559.4l2,.2c4.6,4.6-3.3,7.1-6.5,9-2.4,1.8-4.1,5.6-6.3,7.9-10.3,0,2.4-18.6,10.7-17.1Z"/>
  <path class="st4" d="M722.1,569.8c26.3-.3,55.8,18.3,56.6,46.7,4.2,16.3,14.3-2.5,1.8-21.4,36.8-1.1,81.2,24.9,82.1,64.8-1,.4-1.8.8-2.7,1.4-.8,4.8,6.6,7.7,8.3,11.5,3.5,10.2,1.1,26.2,5.8,36.6-6.1,3.4-12.2,9.7-13.2,16.9l.7.7c9.2-.4,7.3-13.6,28.4-13.1-14.1,13.7-25.1,36.3-13.1,54.7-35.9,7.4-44.9-30.5-76.4-22.9-10.4,1.8-31.7,13.4-20.4,25.3,16.9,3.8,35.7,4.1,51.5,12.4-23.1,15.2-54.3,14.5-78.9,3.5-4.4,1.2-5.6,6.4-9.1,8.8-4.5,3.2-9.5,5.6-14.3,8.1-2.4-10.5-11.8-62.8-24-62-6.9,5.4,6.5,17.7,6.6,25.1,6.2,19.2,7.7,39.7,15.7,58.2,8.6,21.4,21.2,44,41.7,55.7,12,6.1,24.1,11.4,33.3,21.7-3.7.1-6.8.7-10.2,2-4-3.2-12.2-14.8-17.8-11.2.3,6.2,10.5,12,9.5,18.8-12.7,6-28.2-3.4-37.6-12.1-2.7-2.2-4.4-7-8.3-6.7-13.6-.7-20.9-25.9-30.3-35.1-13-14.6-32.4-22.9-43.6-39-5.2-7.4-9.4-15.5-12.5-24.1-1.2-3.3-3.3-13.3-6.2-15.1-14.2-4.7,6,33,8,37.2-21.3,7.5-57.4,14.3-78.5,9.3-1.6-4.5-6.9-8.7-9.3-13.5-3.4-7-4.9-14.6-8.4-21.7.6-8.2-3.5-10.6-4.7-17.8-1-16.7-1-33.9-5-50.2,2.7-9.4,2.8-18.7-.5-28,2.4-7.8,4.5-17.6.2-25.1,2-4.5,7.4-18.7,6-23.3,1.7-9.3,8.4-23.8,13.7-32,42.2-25.4,94.5,12.6,139.5-5.6,3.2,13.6,10.7,30.6,24.3,36.5,2.8.8,10,3,11-1.1-1.8-4.7-10.2-8-14.1-11.4-15.9-13.1-17.2-47.8-5.5-63.7Z"/>
  <path class="st5" d="M810.5,687.6c4.6-.4,6.8,3.9,8,7.7-1.4,2.3-3.4,5.2-2.9,7.9,9.5,10.7,11.9-11.4,19.6-5.1.6,7.2-9.1,14.4-15.9,14.6-11.7.2-16.9-17.7-8.7-25Z"/>
  <path class="st5" d="M739.1,587.5c12,3.3,32.5,23.7,24.9,36.5-8.4-1.6-7.6-14.8-13.8-19.8-3.6-4.5-17.7-10.1-11.2-16.7Z"/>
  <path class="st5" d="M832,655.6c5,.4,4.8,7.8.9,9.8-4,4.4-37.7,1-27.6-8.2,3.7-1.9,15.6,1.5,19.6,2.5,2.5-1.2,4.8-2.6,7.1-4.1Z"/>
  <path class="st5" d="M860.5,687.5c5.5-.1,6.7,13.9,2.1,14.1-6.2-2.4-8.4-10.3-2.1-14.1Z"/>
  <path class="st6" d="M597.3,668.6c1.9,1,1.5,3.2,1.2,5-.8-.5-.9-.6-1.5-1.4.2-1.2.3-2.4.3-3.5Z"/>
  <path class="st6" d="M851.3,710.8l1.5.6.3.8-1.4,2.2-1.2-.9c.6-.9.8-1.7.9-2.7Z"/>
  <path class="st6" d="M583.6,661.5c1.7,1,2.3,1.8,3,3.5l-2.1-.5c-1-1.1-.8-1.5-.9-3Z"/>
  <path class="st8" d="M495.9,84.7c63.6,4.5,54.9,57.5,65.2,37.5-.9-2.7-2.2-5.4-3.4-8.1,43-19.6,91.8,12.5,103,55.6,2.3,9.1,1.8,19.7,5.2,28.3,17.7,20.1,18.6,44.2,0,64.5-5.6,6.5-12.5,11.3-15.2,19.7l4.4,3.1c2.1-1.7,4.3-3.3,6.6-4.9,8.7,9.2,19.7,23.9,19.1,37.3-.3,4.8-6.3,4.8-9.1,8-12.3,20.5-29.6,37.6-46.6,54.2-11.4,13.3-23.4,26.1-36.8,37.5-10.5-6.9-19.5-6.3-30.7-10.5-35.1-14.1-63.6-43.4-57.6-83.5.5-5.1,4.8-12.8,2-17.7-1.5-3.2-5-1.2-6.4,1-20,43.4,15.9,93.9,58.1,107.3,18.3,5,37.8,6.5,43.1,28.3-.9,2.1-2,4.1-3,6.1-4.3-4.2-7.2-13-14.5-12.1-4.8,4.3,3.2,9.3,6,12.5.1,6.4-1.3,11.4-6.6,15.2-3.3-4.2-15-20-19.8-11.4.3,3,10.5,11.5,12.7,16-1.7,1.5-3.5,2.9-5.3,4.3-1.8,0-3.6.2-5.4.5-13.9-6-21.2-18.3-27-31.6-98.4-27.9-121-146.3-39-207.5-2-25.3.2-73.5,28.7-82.8,1.3-.7,1.6-3,1-4.1-22-10.7-32-39.4-28.7-62.6Z"/>
  <path class="st5" d="M638,181.7c10.5-.1,11,12.8,8.6,20.3,28.3,8.7,32.7,45.1,7.6,60.5-32.1,16.2-57.4-30.2-89.7,6.1-17.1-3.1,19.9-37.2,45.5-16.8-10.3-19.3.6-46.8,23.2-50-4.6-6.8-3.7-16.9,4.7-20.1Z"/>
  <path class="st8" d="M637.6,209.2c33.6-.7,33.4,49.7-.2,48.8-30.6-1.9-30.4-47.1.2-48.8Z"/>
  <path class="st5" d="M628.1,223c7.2,1.4,6.8,16.2,2,20.1-7.2-3.6-7.4-14.9-2-20.1Z"/>
  <path class="st5" d="M648.1,222.6c6.8,4.2,7.7,14.1,3.4,20.4-8.5-2.2-6.9-14.5-3.4-20.4Z"/>
  <path class="st5" d="M587.5,180.7c14.1-1.8,16.2,21.3,4.1,25.4-13.9,2.6-14.5-20.7-4.1-25.4Z"/>
  <path class="st5" d="M505.6,96.5c17.9,1.8,41.1,21.6,34.3,40.9h-1.3c-2.1-1.7-4.2-9.7-5.7-12.8-6.9-18-33.1-19.9-27.4-28.2Z"/>
  <path class="st5" d="M576.9,154.7c8.2-1.7,13.3,7.8,19.7,11.5,4,3.2,12.5,2.7,13.5,8.5-.9,2.9-3.3,4.6-6.2,4.9-4.6.6-15.5-7.6-19.5-10.6-3.9-2.9-12.6-9.1-7.5-14.3Z"/>
  <path class="st5" d="M645.4,161.6c1.8,0,3.5.5,5,1.6,2.4,5.7-12.4,12.2-16.2,15.5-5.1,1.2-7.4-5.7-3.5-8.6,2.6-2.1,11.2-6.4,14.7-8.4Z"/>
  <path class="st4" d="M325.1,886.4c.3-9.4,8.7-17,12-26,5.2-12.5,4.6-30.4,9.5-42.5,3.1-5.7,9.6-8.9,14.6-12.8,24.9-19.4,17.1-56.5,20.6-84.2,9.8-83.6,67.7-127.1,150.5-110.9-13,31.3-19.2,67.5-17,101.2h1c3.2,6.1,1.8,13.2,1.6,19.8,0,4.4,1.9,13.9.3,17.4.2,13.3,5.1,25.4,4.6,38.8.8,5.5,3.6,10.3,5.2,15.6,2.2,8.6,3.4,17.8,9.8,24.5-20.9-2.8-41.5-5.6-61.1-13.9,2.5-4.2,14.3-17.1,8.1-21-5.4.2-7.3,6.7-10.4,10.3-12.2,17.1-32.1,26.8-52.2,31.5-8.4,2-33.5,1.5-38.5,6.6-12.3,15.3-17.5,40.8-29,57.1-1.2.3-1.2.6-1.9,1.5h-.4c-.5-2.1-.2-4.2-1-6.3-7.4.3-10.7,19.6-19.1,20.6-10.3-12.6,1.1-22.6-.3-30.1l-1-.5c-2.2.4-4.1,2.1-5.9,3.3Z"/>
  <path class="st9" d="M515.2,711.1h1c3.2,6.1,1.8,13.2,1.6,19.8,0,4.4,1.9,13.9.3,17.4-3.8-12.4,1.7-25-2.9-37.2Z"/>
  <path class="st8" d="M437.1,360.1c13,44.8,49,72.9,92.3,87.5,5,12,7.6,17,16.2,27.2-.6,5.1-2.1,10-3.7,14.9-11.6.5-24.3-1.3-35.4-4-1.3-6.6,0-15.9-5.5-20.6-2.7-1.4-5,1.2-4.8,3.9,5.4,20.2-1.6,41.7-17.7,55.2-37,28.8-30.2,13.7-19.5,68.3-15.4-13.4-11.1-33.5-20.4-28.4-2.3,6.1,1.4,15.7,3.4,21.8-11.8-3.8-26.9-8-36.8-15.9,2.7-21,16.2-37.6,23.4-57-9.7-31.2-12-36.4-2.8-68.2-2.7-28.5-3-58.5,11.3-84.5Z"/>
  <path class="st8" d="M639.4,408.1l.6.2c1.7,11.8-12.6,30.6-18.8,38.6,1.1,1.4,3,2.1,4.6,2.9l4.5-1.1c19.4,13.8,19.8,40.3,13.5,61.1-1.7,5.8-6.6,13.4-5.4,19.4,3.3,16.5,23.7,31.9,37.1,40.4-3.3,1.9-6.3,4-9.8,5.6-6.5-3.7-15.3-20.6-22.7-18-2.3,9.4,8.8,17.7,15.2,23-4.4,2-8.8,3.1-13.5,4-58.6-20.5-16.8-69.2-70.4-98.5-6-13,17.3-14.4,19-26.3,7.6-3.9,9.6-11.7,10.7-19.6,13.6-8.4,22.4-22.5,35.2-31.8Z"/>
  <path class="st8" d="M617.2,481.7c2.4.5,3.9,2.2,3.8,4.6-1.4-1.9-3.1-2.2-3.8-4.6Z"/>
  <path class="st4" d="M754.1,797.7c8.3,0,15.4,9.9,21.1,14.9,20,16.6,50.1,34.8,76.6,27.3,3.8.3,23.6,0,23.2,5.1-4,7.1-11.7,5.8-18.5,4.9-2.9-.2-8.4.3-7.4,4.3,4.8,4.1,13.8,4.7,19.6,7.4-18.7,15.6-33.2,15.3-53,1.7-2.2-1.1-2.9-1.1-5.1-.3-7.7,2.9-22.4-7-29.8-10-5.1-2.6-41.7-23.8-43.7-26.2-3.3-4-4.7-10.3-6.3-15.2,8.5-3.7,15.6-8.5,23.3-13.8Z"/>
  <path class="st6" d="M777.9,834.2c1.2.3,1.9.3,2.8,1.2l-.5,2.1-1,.4c-1.2-1-1-2.3-1.2-3.8Z"/>
  <path class="st7" d="M238.8,816.5c15.3,6.3,6,32.4,13,44.2,7.5,16.1,25,24.6,34.9,38.6l-.4.5c-8.6-.9-14.4-13.5-22.2-14.6-4.5,6.1,6.9,11.3,7.3,16.6-8.6,5.6-22-4.9-29.8-9.2l-4.1,3.4c-14.7-14.3-24.2-33.9-40.3-46.8,16-7.5,29.9-19.7,41.5-32.8Z"/>
  <path class="st8" d="M679.3,328.8c12.3-.6,25.8,6.8,29.3,19.2,8.8,36.4-32.2,55.3-61.3,61.6,4.6-19.8,11.9-25.4,25.3-38.5,2.4-1.3,6.6,1.8,9.6,0,2.6-7.7-15.2-14.2-18.6-21.1,12.8-8.8,17-4.5,26.9,4.1l.8-.3c3.3-6-3.8-11.6-7.9-15.1-4.8-.2-9.4-.2-14.1.7,3-3.8,5.9-8.1,10-10.6Z"/>
  <path class="st4" d="M905.3,714.4c18.5,9.7,5.4,55.1-16.3,52.8-22.8-9.9-2.6-49.7,16.3-52.8Z"/>
  <path class="st5" d="M895.2,732c6.3,4.4,1.6,15.1-3.5,18.9-1.5-1.7-2.3-3.4-3.2-5.5,1.3-5.3,2.2-9.8,6.7-13.4Z"/>
  <path class="st5" d="M906.4,732.1c6,2.1,3.1,11.7.8,15.7-7.1-1-3.5-11.8-.8-15.7Z"/>
  <path class="st8" d="M671.8,89.3c.8,0,.4,0,1.2.8,3.7,16.9-1.9,40.1-18.6,48.2-6.5-9.8-14.5-18.7-24.2-25.4,4.7-14.5,28.7-19.9,41.7-23.5Z"/>
  <path class="st4" d="M795.8,555.8c23.3,2.9,36.7,24.4,38,46.4-10.3-8.3-31.2-12.7-44.1-16.2-.7-9.6,1.1-21.9,6.2-30.2Z"/>
  <path class="st7" d="M324.6,588.6c17.7,4.3,20.3,43.5,1.4,48.3-22-3.6-17.9-39.6-1.4-48.3Z"/>
  <path class="st5" d="M320.3,607.7c6.4,2.4,5.8,12.4,1.6,16.7-6.5-2.5-6.2-12.4-1.6-16.7Z"/>
  <path class="st5" d="M332,606.4c5.8,3.5,4.5,12.2,1,16.9-5.6-2.7-5.4-13.1-1-16.9Z"/>
  <path class="st4" d="M439.2,838.3l.3.2c.1,2.4-10.7,30.2-12.5,33l-.5-.2c.2-1,.2-1.7,0-2.7l-1-.3c-8,2.1-3.6,19.6-11.3,21.5-9.2-4.1-2.4-19.4-11.5-23.3-.6-6.5,2.5-15.4,4.3-21.7,11-.6,21.6-3.4,32.2-6.5Z"/>
  <path class="st7" d="M182.9,490.8c12.5,3.5,27.1,12.2,29,26.1-.1.8-.2.6-1,1.1-5.4-1-9.9,0-15.2,1.1-4.1-5.5-7.8-9.7-13.5-13.5.7-4.9.6-9.8.7-14.7Z"/>
  <path class="st1" d="M530.6,634.2c2.6-10.4,7.3-22,15.4-29.5,5.3-4.5,16-13.4,23-7.8,1,3.3-3.8,4.2-6.1,4.9-5,1.2-8.6,4.2-13.3,6v.6c3.7.9,7.5-.9,11.4-.3-4.6,13.5-21,16.6-30.4,26Z"/>
  <path class="st3" d="M564.5,595.1c6.1.4,5.9,4.8.4,6.1.1-2.3.7-4-.4-6.1Z"/>
  <path class="st1" d="M540.1,702.4c1,.2,1.3.4,2,1.1.3,16.2-7.6,26.7-16.7,39.3l-.4.2-.5-.7c-2.4-22.2,4.1-23.1,15.7-40Z"/>
  <path class="st1" d="M541.2,676.2c4.2,14.5-8.5,27.6-16.9,38.1-5-14.2,5.8-29.9,16.9-38.1Z"/>
  <path class="st1" d="M544.7,652.1c.7.1.3,0,1.1.6-1,15.4-16.4,24.6-23.9,36.7h-.5c-.4-16.7,8.2-29.9,23.3-37.3Z"/>
  <path class="st1" d="M531.7,792.9c-5.7-13.1,3.2-30,12.6-38.8.3.3,1.4.4,1.7.4,1.1,2.3.2,5.3-1.3,7.4,1.6,11.2-6.4,22.8-13.1,31Z"/>
  <path class="st9" d="M544.9,754.3l1.2.2c1.1,2.3.2,5.3-1.3,7.4-.7-2.9-1.3-4.8,0-7.6Z"/>
  <path class="st1" d="M550.7,627.6l.6.5c-1,15.5-17.1,20.5-25.2,31.6-4-15.9,12.8-25.7,24.7-32.2Z"/>
  <path class="st1" d="M540.7,730.1c7.2,13.9-7.6,26.1-12.2,38.2-7.4-14.2,3-27.9,12.2-38.2Z"/>
  <path class="st6" d="M643.4,392.5c.4,4.1-3.6,6.6-6.5,8.6-8.6,7.5-17.5,4.1-27.5,5.5,6.9-11.9,21.8-13.7,34-14.1Z"/>
  <path class="st1" d="M564.8,518.5c3.8,15.1-5.9,23.4-15.1,33.8-6.3-12.8,6.5-25.7,15.1-33.8Z"/>
  <path class="st4" d="M799.2,755.9c8-.5,16.4,8.5,21.3,14-4.4-.2-8.5-1.3-12.7-2.4-8.1-2.1-17.7.5-24-3.8,2.2-4.9,10.8-6.6,15.5-7.8Z"/>
  <path class="st1" d="M554.2,802.6c4.9,9,3.1,24.7-3.7,32.3-11.3-7.8-4-24.4,3.7-32.3Z"/>
  <path class="st1" d="M547,780c6.9,13.6-2.4,26.4-7.5,38.7-7.4-12.9,2.1-27,7.5-38.7Z"/>
  <path class="st1" d="M564.1,543.1c6.1,11.5-7,25.6-14.5,33.2-5.8-11.6,8.3-24.5,14.5-33.2Z"/>
  <path class="st1" d="M548.3,518.1c1.6-5.5,9.7-17.6,15.3-20,7.9,6.8-8.5,24.4-14.4,28.9l-1-.5c-.9-2.6-.3-5.7,0-8.4Z"/>
  <path class="st3" d="M553,523.7c-1.1,1.3-2.1,2.8-3.8,3.4l-1-.5c-.9-2.6-.3-5.7,0-8.4,0,1.7-.2,4.2,1,5.5,1.3.1,2.5.2,3.7.1Z"/>
  <path class="st6" d="M647.6,374.9c3.1-.3,6.1,1.2,8.9,2.3-6.7,10.8-18.2,10.1-29.4,12,4.8-7.4,11.4-13.4,20.4-14.3Z"/>
  <path class="st1" d="M564.7,567.6c5.3,12.1-7.6,24.7-17.9,29.2l-.6-.2c1.8-12.2,11.3-19.8,18.5-29Z"/>
  <path class="st6" d="M657.9,356.1c3.5,1.5,8,6.4,11,9-7.1,7.3-16,5.6-25.2,7.5v-.7c4.4-6.6,7.9-11,14.2-15.8Z"/>
  <path class="st6" d="M611,411.9c3,.1,11.7-1.8,12,2.3-6,8.5-18,10.5-27.7,9,2.9-6.7,8.5-10.6,15.7-11.3Z"/>
  <path class="st6" d="M700.4,315.7c4.6,0,9.3,2.4,13.7,2.2-.2-.6-.4-1.3-.6-1.9,1.2-.1,1.9.3,2.9.8,2.4,4.3-11,10-14.3,10.9-4.9-1.4-9.6-3.1-14.6-4.4,3.9-3.5,8.2-5.4,12.9-7.6Z"/>
  <path class="st3" d="M561.3,479.8c14.4-1.6-8.5,20.5-11.8,22.9-2.5-3.5.1-13,1.4-16.8,3.1-2.5,6.7-4.6,10.4-6.1Z"/>
  <path class="st7" d="M362.9,676.8c1.6,0,2.9-.3,4.2.6,1.1,3.4-1.6,8-3,11.2-7,0-14.9,1.5-21.4-1.5v-1.1c3.2-3.5,15.4-8.4,20.1-9.3Z"/>
  <path class="st3" d="M734.2,288.9c1.9,0,3.3,1.4,3.7,3.2-3.9,8.7-16.2,8.5-24.3,8.3l-.2-.8c3.7-6.2,14.1-9.6,20.8-10.6Z"/>
  <path class="st7" d="M13.5,780.9l-.3-.2c.9-2.2,5-3.3,5.7-.5,5.8,4.8,5.3,12.6,4.2,19.4-7.2-3.2-13-10.6-9.6-18.6Z"/>
  <path class="st9" d="M13.5,780.9l-.3-.2c.9-2.2,5-3.3,5.7-.5-1.9,0-3.6,0-5.4.7Z"/>
  <path class="st3" d="M713.6,304.4c5.2-.6,11.1.2,16.4.3-6,11-18.7,5.8-28.8,6.7,3.8-4.6,6.5-6.3,12.4-7Z"/>
  <path class="st8" d="M384.2,448.7c4.1-1,7.7,7.3,4.1,9.3-4.1-1.8-8.1-.9-11.9.9-5.6-4.4,4.4-8.5,7.8-10.2Z"/>
  <path class="st1" d="M562.4,826.1c2.5,1.7,4.9,5.5,6.7,8-1.3,1.6-2.8,3.6-4.8,4.4-2.6-.4-5.2-.6-7.8-.9,2.2-3.7,4.2-7.5,5.9-11.5Z"/>
  <path class="st4" d="M351.8,896.4c.2.9.6,2,.5,2.8h.4c.7-1,.7-1.2,1.9-1.5-1.3,3-3.1,6.3-4.7,9.1l-.7-.2c-1.7-5.2,3.2-5.5,2.5-10.2Z"/>
  <path class="st6" d="M552.4,477.9l1.1.5c1.1,1.8.3,3.9-.9,5.4l-1-.4c-.9-1.9,0-3.8.9-5.5Z"/>
  <path class="st5" d="M866.8,560.3c7.6-1.2,11.2,7.4,9.2,13.7-1.8,8.5-7.6,13.3-14.5,17.8-2.4,1.2-6.6,3.5-8.3.2-3.2-10.9,1.1-28.4,13.5-31.7ZM861.2,573.1c-.4,1.7-1.2,3.5-.5,5.2.6.4,1.2.8,1.8,1.2l.2,1.2c3.5-2.3,10.6-9.9,3.5-12.2-1.7,1.5-3.4,2.9-4.9,4.5Z"/>
  <path class="st5" d="M897.4,601.9c9.4-2,19.9,7.5,11.1,15.7-3.5,5.9-34.4,5.9-35.8-.4l.4-.6c.6.9.2.6,1,1,4.6-8.9,13.7-14,23.3-15.8Z"/>
  <path class="st4" d="M896.9,610.2c2,0,4.6.7,5.9,2.2l-.2.9c-3.3,1.8-9,2.6-12.4.8l.4-.9c2-1.4,4-2.1,6.3-2.9Z"/>
  <g>
    <path class="st0" d="M589.7,711.9c-3.9,0-7.4-.6-10.4-1.9-3-1.3-5.5-3.1-7.4-5.5-2-2.4-3.5-5.1-4.5-8.3s-1.5-6.6-1.5-10.3.5-7,1.6-10.1c1.1-3.1,2.7-5.8,4.7-8.1,2.1-2.3,4.6-4.1,7.5-5.4,2.9-1.3,6.3-1.9,10-1.9s3.5.2,5.5.5c2,.3,4,.9,5.9,1.6,1.9.7,3.5,1.6,4.8,2.8l-4.9,6.3c-.8-1-1.8-1.8-3.1-2.4-1.2-.7-2.5-1.2-3.9-1.5-1.4-.3-2.7-.5-3.9-.5-2.6,0-4.9.5-6.7,1.6-1.8,1.1-3.3,2.5-4.4,4.3-1.1,1.8-1.9,3.8-2.3,6-.5,2.2-.7,4.5-.7,6.8,0,4.1.6,7.6,1.7,10.5,1.2,2.9,2.8,5.2,5,6.7s4.8,2.3,7.8,2.3,3.9-.3,6.1-.8c2.1-.5,4.4-1.4,6.7-2.6l2.8,5c-1.3.9-2.6,1.6-3.9,2.2-1.3.6-2.6,1.2-3.9,1.6-1.3.4-2.7.7-4.1.9-1.4.2-3,.3-4.6.3Z"/>
    <path class="st0" d="M616.9,676.3v23.2c0,2.3.7,4.2,2.1,5.6,1.4,1.4,3.3,2.1,5.6,2.1s3-.3,4.1-.9c1.1-.6,2-1.5,2.6-2.6.6-1.1.9-2.5.9-4.1v-23.2h5.4v21.6c0,3.3-.6,6-1.8,8-1.2,2-2.8,3.5-4.9,4.4s-4.4,1.4-7,1.4c-4.4,0-7.8-1.2-10.2-3.6-2.4-2.4-3.5-5.8-3.5-10.2v-18.8l-.8-2.9h7.5Z"/>
    <path class="st0" d="M643,676.3h11.9c2.1,0,4.1.3,5.9.9,1.8.6,3.2,1.6,4.3,3s1.6,3.3,1.6,5.7-.3,2.6-1,3.9c-.7,1.2-1.6,2.3-2.7,3.2-1.1.9-2.3,1.5-3.6,1.8l10.7,16.5h-7.4l-9.7-15.5h-2.6v15.5h-6.5v-31.9l-.7-2.9ZM650.3,681v9.9h3c1.2,0,2.3-.2,3.3-.5,1-.3,1.8-.8,2.3-1.6s.9-1.8.9-3.1-.3-1.9-.8-2.6-1.2-1.2-2-1.6c-.8-.3-1.7-.5-2.7-.5h-4.1Z"/>
    <path class="st0" d="M671.2,676.3h11.9c2.1,0,4.1.3,5.9.9,1.8.6,3.2,1.6,4.3,3s1.6,3.3,1.6,5.7-.3,2.6-1,3.9c-.7,1.2-1.6,2.3-2.7,3.2-1.1.9-2.3,1.5-3.6,1.8l10.7,16.5h-7.4l-9.7-15.5h-2.6v15.5h-6.5v-31.9l-.7-2.9ZM678.4,681v9.9h3c1.2,0,2.3-.2,3.3-.5,1-.3,1.8-.8,2.3-1.6s.9-1.8.9-3.1-.3-1.9-.8-2.6-1.2-1.2-2-1.6c-.8-.3-1.7-.5-2.7-.5h-4.1Z"/>
    <path class="st0" d="M699.3,676.3h21.9v4.7h-14.7v9.9h11.2v4.7h-11.2v10.9h14.7v4.7h-21.2v-31.9l-.7-2.9Z"/>
    <path class="st0" d="M733.3,676.3l13.7,20.8c.3.5.7,1,1,1.5.3.5.6,1.1,1,1.6,0-.6,0-1.2-.2-1.8,0-.6-.1-1.2-.1-1.8v-20.3h5.3v35h-5.1l-15.7-23.9c-.3-.5-.7-1.1-1-1.6-.3-.5-.7-1.1-1-1.6,0,.5.1,1,.2,1.6,0,.5,0,1.1,0,1.6v23.7h-5.3v-31.9l-.7-2.9h7.8Z"/>
    <path class="st0" d="M767.2,681h-9.7v-4.7h26.3v4.7h-9.8v30.1h-6.8v-30.1Z"/>
  </g>
  <g>
    <path class="st0" d="M60.1,682.9l9.7,28.4c.4,1.3.8,2.5,1.1,3.8.3,1.3.6,2.6.9,3.9.4-1.6.8-3.1,1.2-4.7.4-1.5.9-3.1,1.5-4.6l9.2-26.9h7.5l-17.2,49.8h-6.7l-17.1-49.8h9.9Z"/>
    <path class="st0" d="M108.6,733.1c-2.7,0-5-.5-7.1-1.4s-3.8-2.2-5.2-3.8c-1.4-1.6-2.5-3.5-3.2-5.7s-1.1-4.5-1.1-7,.4-4.9,1.1-7.1c.7-2.2,1.8-4.1,3.2-5.7s3.1-2.9,5.2-3.8c2-.9,4.4-1.4,7.1-1.4s5.1.4,7.2,1.3c2.1.9,3.8,2.1,5.2,3.8s2.5,3.5,3.2,5.7c.7,2.2,1.1,4.6,1.1,7.2s-.4,4.9-1.1,7.1c-.8,2.2-1.9,4.1-3.3,5.7-1.4,1.6-3.2,2.9-5.3,3.8-2.1.9-4.4,1.3-7.1,1.3ZM108.8,728.6c1.8,0,3.4-.4,4.6-1.2,1.2-.8,2.2-1.8,2.9-3.1.7-1.3,1.3-2.7,1.6-4.3.3-1.6.5-3.1.5-4.7s-.2-3.1-.5-4.7c-.3-1.6-.8-3.1-1.5-4.4-.7-1.3-1.7-2.4-3-3.3-1.3-.8-2.8-1.2-4.7-1.2s-3.4.4-4.6,1.2c-1.2.8-2.2,1.8-2.9,3.1-.7,1.3-1.3,2.7-1.6,4.3-.3,1.6-.5,3.1-.5,4.6s.2,3.1.5,4.7c.3,1.6.8,3.1,1.6,4.4.7,1.3,1.7,2.4,3,3.3s2.8,1.2,4.7,1.2Z"/>
    <path class="st0" d="M128.8,697.8h7.2v30.1h13.7v4.7h-20.3v-31.9l-.6-2.9Z"/>
    <path class="st0" d="M156.6,702.5h-9.7v-4.7h26.3v4.7h-9.8v30.1h-6.8v-30.1Z"/>
    <path class="st0" d="M188,697.8l12.3,34.8h-7l-3.4-10h-10.4l-3.5,10h-5.5l12.3-34.8h5.2ZM184.6,706l-3.6,11.9h7.2l-3.6-11.9Z"/>
    <path class="st0" d="M218.8,697.2c1.2,0,2.6.1,4.2.4s3,.7,4.5,1.2c1.4.5,2.6,1.3,3.6,2.2l-3.5,3.9c-1-.8-1.9-1.4-2.7-1.8-.8-.5-1.7-.8-2.6-1-.9-.2-2.1-.3-3.4-.3-2,0-3.6.4-5,1.1-1.3.7-2.4,1.8-3.2,3-.8,1.3-1.4,2.7-1.8,4.3-.4,1.6-.5,3.3-.5,5s.2,3,.5,4.5c.3,1.6.9,3,1.7,4.4.8,1.3,1.8,2.4,3,3.3,1.2.8,2.7,1.3,4.5,1.3s2.8-.3,3.9-.9c1.1-.6,2-1.5,2.6-2.5.6-1.1,1-2.4,1-3.9v-3h-7.2l.6-4.2h13.2v8.8c-.1,1.7-.1,3.3,0,4.9,0,1.6.1,3.3.2,4.9h-3.4l-1.6-3.6c-1.6,1.5-3.1,2.5-4.7,3.1-1.6.6-3.5,1-5.7,1s-4.8-.5-6.8-1.4c-1.9-.9-3.5-2.2-4.8-3.8-1.3-1.6-2.2-3.5-2.9-5.6s-1-4.4-1-6.8.4-5.2,1.2-7.4c.8-2.2,1.9-4.2,3.4-5.8,1.5-1.6,3.3-2.9,5.5-3.8,2.2-.9,4.6-1.3,7.4-1.3Z"/>
    <path class="st0" d="M236.5,697.8h21.9v4.7h-14.7v9.9h11.2v4.7h-11.2v10.9h14.7v4.7h-21.2v-31.9l-.7-2.9Z"/>
  </g>
  <g>
    <path class="st0" d="M454.7,14h17.1c3,0,5.8.4,8.4,1.3,2.5.8,4.6,2.2,6.1,4.2,1.5,2,2.3,4.7,2.3,8.1s-.5,3.7-1.5,5.5c-1,1.8-2.3,3.3-3.9,4.5-1.6,1.2-3.3,2.1-5.2,2.5l15.2,23.6h-10.6l-13.8-22.2h-3.7v22.2h-9.3V18.2l-1-4.1ZM465.1,20.8v14.1h4.4c1.8,0,3.4-.2,4.8-.6,1.4-.4,2.5-1.2,3.3-2.3.8-1.1,1.2-2.6,1.2-4.5s-.4-2.7-1.1-3.7c-.7-1-1.7-1.7-2.9-2.2-1.2-.5-2.5-.7-3.9-.7h-5.8Z"/>
    <path class="st0" d="M493.9,29h21.9v4.7h-14.7v9.9h11.2v4.7h-11.2v10.9h14.7v4.7h-21.2v-31.9l-.7-2.9Z"/>
    <path class="st0" d="M530.8,28.4c1.8,0,3.5.2,5.2.7,1.7.5,3.2,1.2,4.6,2.1l-3.3,4.1c-.9-.8-1.9-1.3-3.1-1.8-1.2-.4-2.4-.6-3.5-.6s-2.4.3-3.4,1-1.5,1.7-1.5,3,.2,1.7.7,2.4c.5.7,1.1,1.2,1.9,1.7.8.5,1.6,1,2.6,1.5,1.1.5,2.3,1.1,3.5,1.7,1.2.6,2.3,1.3,3.3,2.1,1,.8,1.8,1.8,2.5,3,.6,1.2,1,2.6,1,4.3s-.6,4.3-1.7,5.9c-1.1,1.6-2.6,2.8-4.5,3.7-1.9.8-3.9,1.2-6,1.2s-3.9-.2-5.8-.6c-1.9-.4-3.7-1.1-5.4-2.1l2.2-5.3c1.1,1,2.4,1.8,3.9,2.5,1.5.7,3,1,4.5,1s2-.2,2.9-.6c.9-.4,1.6-.9,2.2-1.7.6-.7.9-1.7.9-2.8s-.3-2.1-1-2.8c-.6-.7-1.5-1.4-2.5-2s-2.1-1.1-3.3-1.7c-1-.5-2.1-1-3.1-1.5-1-.6-1.9-1.2-2.8-1.9-.8-.7-1.5-1.6-2-2.7s-.8-2.3-.8-3.8c0-2.3.6-4.2,1.7-5.7,1.1-1.5,2.6-2.5,4.4-3.2,1.8-.7,3.7-1,5.8-1Z"/>
    <path class="st0" d="M544.6,29h7.2v34.8h-6.6v-31.9s0-.3-.2-.7c-.1-.4-.2-.9-.3-1.4,0-.5-.2-.7-.2-.8Z"/>
    <path class="st0" d="M568.1,28.4c1.8,0,3.5.2,5.2.7,1.7.5,3.2,1.2,4.6,2.1l-3.3,4.1c-.9-.8-1.9-1.3-3.1-1.8-1.2-.4-2.4-.6-3.5-.6s-2.4.3-3.4,1-1.5,1.7-1.5,3,.2,1.7.7,2.4c.5.7,1.1,1.2,1.9,1.7.8.5,1.6,1,2.6,1.5,1.1.5,2.3,1.1,3.5,1.7,1.2.6,2.3,1.3,3.3,2.1,1,.8,1.8,1.8,2.5,3,.6,1.2,1,2.6,1,4.3s-.6,4.3-1.7,5.9c-1.1,1.6-2.6,2.8-4.5,3.7-1.9.8-3.9,1.2-6,1.2s-3.9-.2-5.8-.6c-1.9-.4-3.7-1.1-5.4-2.1l2.2-5.3c1.1,1,2.4,1.8,3.9,2.5,1.5.7,3,1,4.5,1s2-.2,2.9-.6c.9-.4,1.6-.9,2.2-1.7.6-.7.9-1.7.9-2.8s-.3-2.1-1-2.8c-.6-.7-1.5-1.4-2.5-2s-2.1-1.1-3.3-1.7c-1-.5-2.1-1-3.1-1.5-1-.6-1.9-1.2-2.8-1.9-.8-.7-1.5-1.6-2-2.7s-.8-2.3-.8-3.8c0-2.3.6-4.2,1.7-5.7,1.1-1.5,2.6-2.5,4.4-3.2,1.8-.7,3.7-1,5.8-1Z"/>
    <path class="st0" d="M589.7,33.7h-9.7v-4.7h26.3v4.7h-9.8v30.1h-6.8v-30.1Z"/>
    <path class="st0" d="M621.1,29l12.3,34.8h-7l-3.4-10h-10.4l-3.5,10h-5.5l12.3-34.8h5.2ZM617.7,37.2l-3.6,11.9h7.2l-3.6-11.9Z"/>
    <path class="st0" d="M643.8,29l13.7,20.8c.3.5.7,1,1,1.5.3.5.6,1.1,1,1.6,0-.6,0-1.2-.2-1.8,0-.6-.1-1.2-.1-1.8v-20.3h5.3v35h-5.1l-15.7-23.9c-.3-.5-.7-1.1-1-1.6-.3-.5-.7-1.1-1-1.6,0,.5.1,1,.2,1.6,0,.5,0,1.1,0,1.6v23.7h-5.3v-31.9l-.7-2.9h7.8Z"/>
    <path class="st0" d="M685.1,64.4c-2.8,0-5.2-.5-7.3-1.4-2.1-.9-3.8-2.2-5.2-3.8-1.4-1.6-2.4-3.6-3.1-5.8-.7-2.2-1-4.6-1-7.2s.4-4.9,1.1-7c.8-2.2,1.9-4,3.3-5.7,1.4-1.6,3.2-2.9,5.3-3.8s4.4-1.4,7-1.4,2.4.1,3.8.4c1.4.2,2.8.6,4.1,1.1,1.3.5,2.4,1.1,3.3,1.9l-3.4,4.4c-.6-.7-1.3-1.2-2.1-1.7-.9-.5-1.8-.8-2.7-1.1-1-.2-1.9-.4-2.8-.4-1.8,0-3.4.4-4.7,1.1-1.3.7-2.3,1.8-3,3-.8,1.3-1.3,2.7-1.6,4.2-.3,1.5-.5,3.1-.5,4.7,0,2.9.4,5.3,1.2,7.4.8,2,2,3.6,3.5,4.7s3.3,1.6,5.5,1.6,2.7-.2,4.2-.5c1.5-.4,3.1-1,4.7-1.8l2,3.5c-.9.6-1.8,1.1-2.7,1.6-.9.4-1.8.8-2.7,1.1-.9.3-1.9.5-2.9.6-1,.1-2.1.2-3.2.2Z"/>
    <path class="st0" d="M699.6,29h21.9v4.7h-14.7v9.9h11.2v4.7h-11.2v10.9h14.7v4.7h-21.2v-31.9l-.7-2.9Z"/>
  </g>
</svg>