<?xml version="1.0" encoding="UTF-8"?>
<svg id="Layer_1" xmlns="http://www.w3.org/2000/svg" width="13.611in" height="12.066in" version="1.1" viewBox="0 0 980 868.78">
  <!-- Generator: Adobe Illustrator 29.4.0, SVG Export Plug-In . SVG Version: 2.1.0 Build 152)  -->
  <defs>
    <style>
      .st0 {
        fill: #95ced4;
      }

      .st1 {
        fill: #d60000;
      }

      .st2 {
        fill: #514514;
      }

      .st3 {
        fill: #3b3b3b;
      }

      .st4 {
        fill: #5aba47;
      }

      .st5 {
        fill: #d5bd2b;
      }

      .st6 {
        fill: #d5bc2a;
      }

      .st7 {
        fill: #fefefe;
      }

      .st8 {
        fill: #da888a;
      }
    </style>
  </defs>
  <path class="st3" d="M578.712,29.116c.711-7.516-1.175-20.631,7.013-24.396,7.485,3.791,3.16,17.908,2.487,24.596l6.547.541c1.64-7.924,1.564-19.44,10.247-23.008,6.454,3.695-.397,19.381-1.24,25.007,6.232,1.591,11.941,4.059,17.781,6.693,11.149-20.491,35.26-22.975,53.983-32.067,9.768,8.476,7.753,30.267,4.859,41.818-3.65,12.246-10.38,20.203-21.489,26.256,9.807,14.211,10.345,31.771,14.173,48.01,19.243,26.446,20.567,59.175-6.893,80.614,12.44,9.553,16.97,25.278,23.038,39.093,14.801-11.251,24.748-30.522,45.117-31.87,31.798,6.782-10.324,44.394-22.796,52.249,24.771,42.751-25.529,82.197-65.409,84.527-2.4,8.233-6.324,16.429-10.56,23.871,19.337,15.603,24.585,43.059,17.503,66.207-1.565,4.718-4.279,9.12-5.526,13.929-2.797,20.1,20.645,32.633,34.539,42.77,5.496-3.814,14.349-10.158,24.798-18.638,12.75-10.348,21.444-18.654,23.326-20.414,14.014-13.097,56.621-42.837,114.482-59.064,57.803-16.211,107.235-12.318,135.308-7.959-.339,158.248-.678,316.496-1.017,474.744-65.523.151-131.045.301-196.568.452-17.117.039-48.576,1.669-80.865-16.047-18.834-10.333-31.607-23.613-39.492-33.328-3.43-4.383-25.339-32.046-45.86-42.116-6.578-3.228-12.848-4.63-12.848-4.63-10.73-2.4-19.956-1.024-25.546.298-.429.592-7.205,9.691-18.794,8.871-7.096-.502-13.992-4.354-17.593-11.223-73.27-10.395-90.792,90.516-160.474,95.82-81.226,7.659-296.502-.627-381.153,1.984v-468.163l158.168.453c45.671.417,97.281-7.661,137.733,17.638,36.523,22.964,63.097,58.709,100.561,80.432,5.403-18.76,14.468-35.046,24.041-51.933-7.079-10.837-8.739-24.913-9.706-37.495-13.949,7.725-41.72,9.475-42.908-11.895-30.899-20.17,10.181-44.891-1.783-11.816,23.204-24.12,48.602,6.653,17.584,17.091,13.7,5.399,29.813-4.289,33.033-18.311,2.403-9.878-2.178-20.287-2.099-30.289-1.218-25.353,6.267-50.998,20.933-71.715-4.985-44.537,15.633-89.717,50.251-117.558-2.556-28.812,1.985-60.426,23.772-81.331-15.628-14.115-22.33-33.815-23.431-54.339-.087-5.168-2.368-11.762,1.762-15.907,24.002-6.212,51.726,8.461,66.379,27.532,3.856-1.159,7.935-2.278,12.229-3.321,4.299-1.044,8.441-1.923,12.403-2.663ZM503.305,528.074c11.354.705,22.885,3.401,34.264,2.476.65-5.768,3.125-11.287,3.697-16.988.869-8.81-1.929-17.713.748-26.379-2.44-7.964-.713-14.712-.768-22.717-1.118-11.882-1.314-24.147.682-36.003-11.869-3.412-24.78-1.374-36.603-4.723-6.654,26.07-26.277,40.144-46.399,55.691,5.792,33.285,5.031,49.18,44.379,48.643h0ZM570.081,516.298c8.13,2.729,8.197,4.643,9.393,12.459,12.548,1.476,44.485-6.38,57.643-9.895-52.957-12.733-22.204-71.525-65.376-95.436-2.401,30.886,2.154,62.12-1.66,92.872h0ZM380.579,386.938c2.605-.304,5.779.728,8.173-.205,2.054-2.155.926-5.945-1.306-7.548-3.405-1.916-11.959,4.153-12.765,7.644,1.209,2.186,4.031.323,5.898.109h0Z"/>
  <path class="st7" d="M979.98,397.2c-.342,152.249-.685,304.498-1.027,456.748-16.247-.468-41.393-.978-72.201-.68-31.532.305-76.75,2.1-133.8.362-19.282-.588-30.533-1.17-44.873-5.862-32.83-10.741-55.134-34.007-57.051-36.05-9.93-10.578-12.997-17.518-27.285-30.097-9.119-8.027-17.46-13.644-23.151-17.168,6.998-1.443,14.407-3.235,22.147-5.466,5.194-1.497,10.148-3.079,14.855-4.709,9.986,14.688,28.469,24.076,41.005,36.659,9.07,9.104,13.485,21.713,22.289,30.845,5.561,5.768,12.158,8.507,18.654,12.874,6.823,4.587,13.027,10.387,20.804,13.402,4.741,1.838,10.202,2.146,15.23,2.219,7.729.52,21.61.606,19.173-10.692,43.565-.968-20.566-36.034-31.216-43.685-7.843-6.628-14.007-14.461-17.911-23.976,21.516,12.467,42.745,25.991,67.724,30.259,9.996,3.593,13.925,7.11,25.421,8.482,11.938,1.492,39.992-3.879,37.184-20.124-.257-1.193-1.68-2.942-1.218-4.055,3.435-5.191,13.58-10.345,8.152-17.879-13.068-10.218-37.646-4.911-53.083-5.739-12.375-1.394-47.95-21.936-55.728-32.008,23.78,4.103,51.844.59,70.815-15.485-5.327-7.886-21.955-13.482-20.271-23.556,18.769,4.629,39.335,23.411,59.512,10.31,30.35,8.808,47.796-38.726,30.895-59.552-9.4-9.887-23.958-1.608-35.472-10.443-2.353-7.973-3.193-19.751-2.841-28.088,2.562-6.6.521-7.245-4.112-11.856-4.114-22.679-13.044-42.703-31.761-57.036,2.993-26.654-19.601-62.069-49.215-57.118-13.378,12.043-5.617,30.725-12.708,40.185-14.854-14.655-28.492-24.05-50.058-26.987-21.842-5.298-22.739,24.591-23.812,39.212-24.059,6.461-50.949,7.189-74.643-.796l.095-.539c13.054-4.448,32.447-12.026,54.169-24.623,30.76-17.838,42.53-32.017,63.297-48.428,6.936-5.481,56.398-43.752,125.017-57.952,46.068-9.534,86.295-3.995,94.759-2.845,5.077.69,9.292,1.404,12.242,1.938Z"/>
  <path class="st3" d="M866.306,489.26c8.15-1.303,11.915,7.379,9.628,14.158-1.871,8.455-8.048,13.751-15.046,18.105-2.731,1.568-6.978,2.429-8.302-1.323-3.15-11.236,2.31-26.43,13.72-30.94h0Z"/>
  <path class="st7" d="M866.33,498.267c5.156,2.826-.416,8.217-3.052,10.776-5.859-2.936-.664-8.618,3.052-10.776Z"/>
  <path class="st3" d="M896.891,530.986c8.559-1.96,20.37,6.761,12.478,15.076-6.86,7.023-28.544,7.384-35.973,1.536,2.228-9.334,15.142-14.245,23.495-16.611h0Z"/>
  <path class="st7" d="M896.801,539.049c1.869.339,5.302.303,5.669,2.667-2.465,3.302-9.119,3.802-12.414,1.63,1.082-2.628,4.378-3.158,6.745-4.297Z"/>
  <path class="st7" d="M0,403.233c51.117.606,183.734-.89,232.679.331,65.733,1.585,102.45,61.228,152.191,95.051,16.868,11.27,35.461,20.849,55.039,26.319,4.748,1.407,16.426,3.422,19.813,5.83l.374.917c-22.449,5.19-41.288,19.064-53.653,38.476-17.673-41.551-42.003-78.554-89.709-87.196-12.625-22.998-35.659-38.201-61.713-41.194-36.315-2.864-43.352-2.298-24.665,33.305-17.782,10.209-36.103,11.67-53.557,22.391-73.322,42.738-128.347,127.467-121.653,214.035-6.265,6.277-15.678,10.661-24.575,7.698l-.326-.664c2.999-4.607,8.331-3.442,11.328-11.158,2.195-4.768.07-10.494-4.658-12.741-8.689-6.138-22.477,6.623-25.673,9.739-3.146-3.886,2.673-10.039-.563-14.151-7.922-8.79-17.979,16.857,4.154,24.814,3.029,20.607,28.707,15.044,41.47,7.134,6.684,26.678,22.985,46.946,41.796,66.371-3.413,5.937-10.519,13.651-8.361,20.94,3.252,10.986,33.522,39.814,33.541,43.774-24.512,1.384-97.08-.057-123.277.73v-450.751h-.002Z"/>
  <path class="st8" d="M230.815,449.286c32.806-2.088,65.104,9.646,79.327,40.88,2.789,2.517,16.959,4.242,21.573,5.99,28.239,10.465,47.898,34.785,59.305,61.811,5.161,11.674,11.513,22.904,20.92,31.692-3.678,5.613-16.277,12.347-11.621,19.949,6.14,2.103,20.578-24.19,30.468-14.745-10.053,17.855-21.108,36.286-13.305,57.317-17.4,1.809-31.638-13.915-48.543-11.843-5.926,1.041-26.083,9.815-17.529,17.346,25.249-9.416,14.621-14.75,43.91-.063-40.375,18.2-71.706,12.87-110.894-2.029-1.615-.031-2.406.357-3.58,1.419-1.924,8.298,10.516,10.189,16.027,13.031,24.492,9.726,51.3,10.63,76.835,4.435,17.028-3.529,35.159-16.598,52.368-7.548-5.551,4.65-31.189,10.722-25.656,20.039,6.686,1.599,18.191-6.45,24.228-9.479-3.232,9.451-8.932,16.907-17.285,22.461-10.063,6.692-21.91,8.948-33.349,12.135-30.571,8.515-62.574,16.992-94.644,13.438-8.559-.948-17.62-2.697-25.731-5.565-4.446-.79-10.35-6.943-14.266-3.168-1.412,10.564,19.24,13.157,26.541,15.757-19.126,16.791-42.613,31.875-67.842,36.969,1.064-6.267-4.525-43.622-13.864-40.237-2.892,4.395,3.399,20.971,4.26,27.017.902,6.334.947,13.031-.217,19.334-3.567,21.597-23.411,32.52-41.764,40.098-8.509,6.403,27.151,32.102,31.464,39.257l-8.424-.024c-3.086-3.21-5.987-7.869-10.713-8.663-.874.409-.796.173-1.178,1.168l1.072.116-1.123.266c-.03,2.674,1.673,4.903,2.979,7.134l-22.569-.018c-6.353-5.449-11.653-12.904-17.164-19.24-6.348-7.3-15.981-16.31-20.646-24.457-4.213-5.911,5.719-13.383,7.509-21.693-3.215-10.802-14.677-19.299-21.754-27.83-65.587-93.618,22.038-224.381,112.839-265.37,18.05,14.659,23.331,33.803,45.26,44.017,7.217,2.596,28.076,12.568,33.213,3.568-.761-3.676-4.956-4.94-8.228-5.823-31.423-4.417-39.065-23.09-57.807-44.495,39.941-21.125,68.625-20.672,94.424,20.045,3.201,2.52,7.49.259,5.971-3.988-8.174-29.287-44.675-43.999-72.841-38.549-3.324-5.726-9.023-15.063-7.957-21.862h0Z"/>
  <path class="st3" d="M240.685,492.185c4.403-.537,8.897-.3,13.219.698,7.955.745,45.438,21.57,31.014,30.154-7.381-2.516-15.702-13.768-23.847-18.146-7.734-4.158-16.606-3.453-23.502-6.694-1.439-2.477,1.131-4.837,3.116-6.012h0Z"/>
  <path class="st3" d="M352.406,556.689c5.68-1.108,28.446,15.305,26.649,21.726-5.967,8.23-18.279-6.998-24.043-10.383-4.389-2.723-8.021-7.461-2.606-11.343Z"/>
  <path class="st3" d="M346.086,578.751c6.444.912,37.365,18.588,23.072,25.806-8.18-7.309-17.854-12.716-26.655-19.194-1.074-2.922,1.224-5.273,3.583-6.612h0Z"/>
  <path class="st0" d="M721.746,498.732c27.422.303,56.193,18.781,57.272,48.181,6.279,15.381,11.176-10.346.915-22.874,36.727-1.087,82.204,24.767,82.365,64.967-.655.929-1.805.825-2.493,2.144,1.026,5.404,7.239,7.335,9.007,12.465,2.572,11.601.836,23.769,5.118,35.103-4.39,2.53-15.489,11.388-12.601,17.014,11.167-2.44,10.841-14.673,28.63-12.772-14.65,13.954-24.67,36.149-13.262,55.028-39.452,7.312-52.011-41.365-89.709-17.798-6.741,3.523-15.17,13.509-6.897,19.67,16.84,4.889,35.521,4.093,51.404,12.758-24.103,16.132-54.13,13.694-79.951,3.48-6.299,7.426-13.619,13.427-22.69,17.217-3.056-9.295-11.419-68.647-25.392-60.154-1.774,3.993,3.024,11.075,4.846,14.507,6.568,12.371,9.105,32.771,12.592,46.803,6.939,27.921,22.308,60.052,47.655,75.261,12.284,6.447,24.006,11.863,33.818,22.022-3.659.369-7.171,1.185-10.648,2.363-3.995-3.596-11.192-14.82-17.258-11.261-.591,5.184,11.016,12.705,8.994,18.761-16.793,7.123-32.715-7.174-43.438-18.621-15.85.138-22.454-23.147-31.16-33.602-34.446-33.647-46.151-28.047-63.546-79.83-1.331-.607-2.104-.828-3.565-.864-6.507,6.143,8.841,30.73,11.603,37.974-24.89,7.808-52.695,13.987-78.781,9.355-10.788-13.715-14.915-25.272-18.936-42.086-5.863-13.924-4.137-29.32-5.574-44.079-.474-5.175-2.005-10.218-2.418-15.376.395-10.278,2.919-19.84-1.066-29.848,2.336-8.687,4.344-16.531.194-25.045,4.305-8.848,5.752-18.479,7.296-28.049,2.921-9.319,6.691-19.757,12.767-27.441,42.699-25.777,94.71,12.632,139.392-5.527,3.161,11.592,7.875,24.367,17.509,32.19,4.291,3.33,12.449,8.247,17.305,3.862-.089-4.77-13.07-10.626-16.492-14.225-13.781-16.785-13.969-43.496-2.804-61.673h0Z"/>
  <path class="st3" d="M809.66,616.426c5.114-.694,8.004,3.723,9.156,8.078-1.61,2.785-4.697,7.095-1.238,9.685,6.361,3.144,11.282-10.931,17.457-8.357,1.963,8.088-6.572,14.888-13.806,16.188-13.729,2.295-20.012-16.37-11.569-25.594h0Z"/>
  <path class="st3" d="M737.98,516.23c15.011,3.724,31.638,21.262,26.552,37.62-9.394-.6-9.187-14.506-14.937-20.247-5.029-4.711-16.389-8.772-11.615-17.373Z"/>
  <path class="st3" d="M831.542,584.43c6.544.42,5.666,9.196.394,11.103-7.932,3.331-20.935,1.621-28.021-3.135-5.545-11.665,15.702-5.637,20.789-3.842,2.309-1.312,4.563-2.75,6.837-4.126h.001Z"/>
  <path class="st3" d="M859.117,616.382c7.196-.654,9.071,11.74,3.766,15.087-6.977-1.6-8.954-10.344-3.766-15.087Z"/>
  <path class="st6" d="M495.506,13.801c20.585,1.131,41.345,9.25,52.523,27.406,3.413,4.425,4.183,11.727,9.377,14.322,5.051-2.681,1.864-8.654-.275-12.28,55.318-23.21,105.616,25.939,107.711,80.528,2.482,7.567,9.121,13.528,12.078,21.424,5.888,15.716,1.284,32.265-9.37,44.698-6.124,7.146-12.921,12.609-16.879,21.376l4.316,3.095c2.11-1.712,4.311-3.316,6.481-4.95,8.602,8.871,19.864,23.406,19.282,36.561-.277,6.988-8.22,4.531-14.261,16.869-11.27,16.992-26.313,30.807-40.29,45.47-12.107,13.371-24.261,26.698-37.914,38.543-8.878-5.105-17.915-6.485-27.498-9.42-34.624-11.896-65.983-42.194-61.552-81.361.002-6.768,7.585-19.098-.29-23.154-1.238.255-1.748.449-2.527,1.549-21.58,42.16,13.514,93.884,54.734,107.77,17.875,5.137,40.925,7.699,45.783,29.227l-3.322,6.583c-4.13-4.481-8.779-15.726-16.264-11.505-.198,4.38,5.37,8.802,8.189,11.495-.645,6.802-1.925,10.754-6.984,15.479-3.205-4.17-14.649-20.503-19.281-11.266,1.4,4.642,9.561,11,12.556,15.457-1.788,1.51-3.675,2.935-5.506,4.394l-5.69.655c-14.067-6.398-20.812-18.259-27.129-31.681-97.349-26.446-120.745-147.961-38.984-207.642-1.235-25.505-1.349-58,18.315-77.062,3.251-3.344,10.937-3.874,11.497-9.082-21.882-12.476-32.324-38.973-28.827-63.499h.001Z"/>
  <path class="st3" d="M636.2,110.718c11.133-2.33,14.081,11.854,10.744,19.881,21.445,6.098,30.981,33.374,18.197,51.573-30.274,39.038-67.423-23.153-100.175,15.578-21.18-1.818,19.206-36.571,43.306-18.667-7.889-18.894,1.803-44.037,22.855-48.405-.007-7.541-3.967-14.412,5.073-19.96h0Z"/>
  <path class="st5" d="M636.429,138.75c31.422-2.089,35.612,44.523,4.328,48.077-31.841,2.524-36.103-44.876-4.328-48.077Z"/>
  <path class="st3" d="M627.662,151.601c8.889,2.944,6.945,15.506,2.59,21.6-8.277-3.728-8.191-15.552-2.59-21.6Z"/>
  <path class="st3" d="M647.792,151.062c7.562,4.588,8.141,14.688,3.889,21.766-9.527-1.993-7.861-15.45-3.889-21.766Z"/>
  <path class="st3" d="M587.367,109.306c14.458-.996,16.699,21.439,4.667,26.577-15.057,2.854-16.025-21.627-4.667-26.577Z"/>
  <path class="st3" d="M575.806,83.413c14.319-.256,13.069,10.845,32.021,16.379,3.453,1.834,3.129,5.99.296,8.238-8.228,5.302-38.471-14.596-32.316-24.617h-.001Z"/>
  <path class="st2" d="M504.678,25.622c19.178,1.938,41.238,20.426,35.183,41.314l-.976.077c-2.741-1.631-7.392-16.732-10.873-20.841-5.59-8.203-23.709-9.613-23.334-20.55h0Z"/>
  <path class="st3" d="M644.714,90.476c2.288.084,4.48.089,6.183,1.809,1.21,7.333-12.193,12.922-17.114,16.337-3.378.612-7.164-3.08-5.892-6.484,1.736-5.02,12.364-9.291,16.822-11.662h.001Z"/>
  <path class="st0" d="M412.745,576.528c24.775-39.17,77.28-46.372,119.43-37.422-15.731,36.126-20.289,77.34-15.508,116.177,1.287,3.334,2.997,18.226.934,22.123,4.023,17.77,2.942,36.601,9.677,53.65,2.988,9.36,4.03,17.641,10.477,25.518-21.194-2.724-41.806-5.969-61.702-14.028,3.515-5.709,12.046-13.012,9.317-20.224-5.865-2.513-9.832,8.838-13.115,12.36-12.372,15.231-32.97,25.966-52.207,29.133-11.888,2.549-25.909-.444-36.494,6.449-13.854,15.104-19.886,49.988-34.71,65.453-2.014-4.368,6.173-9.542,1.752-13.323-5.475.941-10.096,14.898-14.878,18.916-1.163.977-2.094,1.36-3.642,1.17-10.333-5.965.98-24.802-1.366-29.253-2.555-.65-4.539,1.838-6.47,3.179,2.143-11.49,10.082-19.299,13.646-30.12,3.831-11.63,3.209-31.025,9.267-40.561,6.647-9.063,18.779-12.915,23.938-23.466,31.742-6.18,64.608-20.626,63.653-58.278-1.36-1.98-2.912-3.519-4.642-5.159,18.603-9.706,23.378-38.028,20.409-57.002-3.993-19.101-25.381-15.11-37.766-25.292h0Z"/>
  <path class="st7" d="M355.619,726.253l.879.129.141.564c-2.15,3.775-8.138,6.555-11.633,9.173-13.547,11.37-9.009,31.88-14.613,47.152-3.795,11.804-12.87,20.092-14.664,32.902,1.742,1.572,3.264,3.473,4.828,5.223-2.579,11.637.465,24.526,12.061,29.757,34.653-8.108,40.961-47.789,55.093-75.032,3.454-.599,7.008-.671,10.505-.856-1.173,8.393-12.494,32.786,2.335,32.265.756,7.855,2.934,15.743,10.416,19.548,24.443-2.522,31.128-42.679,37.673-62.066,4.746-4.438,16.044-11.22,21.937-15.417,10.632,4.813,21.204,6.903,32.318,9.996-27.781,8.999-45.673,35.058-63.861,56.274-17.159,21.222-41.537,35.176-69.118,35.988-33.275,3.978-66.78,2.027-100.159,2.953-8.374-15.879-30.41-38.232-41.39-52.76,16.753-11.681,22.123-27.577,23.696-47.034,7.911-7.241,17.295-13.438,25.321-20.656,26.317,1.25,52.713-1.512,78.235-8.103h0Z"/>
  <path class="st6" d="M436.718,289.434c13.49,43.826,50.279,73.263,92.643,87.3,4.238,10.224,9.066,18.582,16.187,27.057-.533,5.205-2.163,10.253-3.692,15.236-12.265-.012-23.903-1.239-35.828-4.08-1.091-5.238.455-21.048-7.552-20.807-4.353,2.828-1.062,9.093-.958,13.267,3.31,25.178-14.621,44.774-34.375,57.344-4.496,3.299-8.83,6.515-11.813,11.315-2.581,7.693,6.017,36.932,7.814,46.341-11.672-8.787-12.311-31.458-19.303-29.94-5.273,5.117.506,16.823,2.213,22.729-12.991-4.271-25.96-8.034-37.228-16.104,2.306-20.276,15.849-38.504,23.483-57.148-9.513-25.067-11.02-42.133-3.295-67.837-1.065-28.532-3.283-58.917,11.704-84.673h0Z"/>
  <path class="st6" d="M639.519,337.047c3.771,11.433-11.783,30.24-18.311,39.291,2.674,2.422,5.833,2.764,9.074,1.319,18.607,14.749,20.262,38.868,13.933,60.411-16.92,27.699,10.537,46.705,31.402,60.794-3.231,2.225-6.682,4.136-10.164,5.934-6.111-4.224-14.357-20.173-22.174-17.99-2.613,9.734,9.063,17.016,15.15,22.771-4.425,1.858-8.99,3.004-13.661,4.056-58.262-20.142-17.295-67.791-70.993-99.709-5.136-9.776,15.947-14.363,19.472-25.157,7.572-5.27,9.114-11.283,10.661-19.845,13.669-8.768,22.31-22.848,35.611-31.875h0Z"/>
  <path class="st0" d="M754.053,726.57c11.102,1.987,18.903,13.879,27.65,20.338,16.921,12.346,36.506,24.106,58.144,23.705,11.353.161,25.095-4.951,34.89,2.595-2.405,12.107-18.988,2.401-25.854,8.402,2.627,6.078,14.347,6.721,20.098,8.989-18.273,17.397-36.449,13.546-55.857.855-11.186,4.69-24.901-5.71-34.697-10.4-15.586-9.514-46.708-20.619-48.017-40.425,8.437-3.8,16.029-8.864,23.643-14.059h0Z"/>
  <path class="st8" d="M241.907,761.509l.65.191c1.429,5.852-5.4,20.319-9.367,24.545-4.78,5.823-19.772,11.062-12.495,19.94,12.561,16.703,27.447,31.793,39.705,48.752l-9.467.07c-4.89-6.463-9.056-17.428-17.956-18.537-2.696,6.717,5.476,12.87,8.255,18.49-6.612.082-13.231.01-19.844.002-15.223-14.283-29.624-30.052-42.224-46.709,9.534-8.737,13.684-17.652,18.138-29.56,16.008-1.842,30.696-9.507,44.605-17.184h0Z"/>
  <path class="st5" d="M678.7,258.023c13.126-.782,26.911,6.986,30.012,20.35,7.884,35.797-33.174,54.747-61.962,60.777,2.931-16.399,13.983-28.776,26.101-39.42,2.679.435,8.545,2.592,9.132-1.484-2.296-7.676-14.176-12.489-19.093-18.892,15.844-10.813,15.422-2.59,28.261,3.138,2.712-5.892-4.277-11.197-8.306-14.466-4.75-.023-9.349.24-14.07.74,3.042-4.025,5.872-7.7,9.925-10.743h0Z"/>
  <path class="st0" d="M903.126,643.788c21.24,3.715,8.987,53.305-13.008,53.069-24.95-9.814-5.499-46.37,13.008-53.069h0Z"/>
  <path class="st3" d="M894.925,660.393c7.203,5.282,2.486,15.86-3.241,20.393-2.11-1.769-2.877-3.686-3.839-6.194,1.206-5.82,2.726-9.991,7.08-14.199h0Z"/>
  <path class="st3" d="M905.669,660.849c7.439,1.162,4.385,12.488,1.566,16.845-8.146-1.756-4.459-11.922-1.566-16.845Z"/>
  <path class="st6" d="M671.742,18.376c4.732,4.172,1.717,19.084.695,24.801-2.817,10.94-8.537,18.843-18.204,24.606-6.598-10.11-15.077-18.655-24.645-25.951,6.702-15.3,27.672-19.545,42.154-23.456Z"/>
  <path class="st0" d="M795.497,484.755c22.946,2.818,37.252,24.921,38.149,46.762-13.167-9.102-29.318-12.053-44.467-16.285-.874-10.487,1.348-21.202,6.318-30.477h0Z"/>
  <path class="st0" d="M439.073,767.432c.639,5.003-9.829,30.585-12.483,33.264-.347-1.183-.36-2.232-1.393-2.959-7.368,2.97-3.757,16.862-9.267,20.631-10.856,3.045-4.634-19.545-13.809-22.743.025-7.413,2.403-14.585,4.568-21.595,11.19-1.106,21.591-3.574,32.384-6.598Z"/>
  <path class="st7" d="M171.323,813.702c11.349,14.368,23.596,28.299,36.413,41.451-5.872.237-11.843.427-17.71.004-9.284-12.474-22.192-22.389-32.583-33.965,4.781-2.294,9.385-4.663,13.88-7.49Z"/>
  <path class="st8" d="M439.351,599.211c7.66,13.076.151,43.594-13.475,50.834-9.331-15.291,3.631-38.558,13.475-50.834Z"/>
  <path class="st3" d="M434.329,621.492c.829.066,1.46.257,2.238.547,1.434,2.914-.96,8.9-1.728,12.004-.98-.064-1.64-.097-2.504-.586-1.745-3.667-.459-8.925,1.994-11.965Z"/>
  <path class="st4" d="M530.034,563.885c4.386-17.341,15.215-37.675,34.913-39.731,1.224.373,2.91.721,3.629,1.888,1.524,2.614-1.941,4.061-4,4.6-5.726,1.665-10.838,4.485-16.11,7.208,4.247-.125,8.501-.471,12.742-.734-5.404,13.417-20.764,17.97-31.174,26.769h0Z"/>
  <path class="st4" d="M539.787,631.633c.523.097,1.083.353,1.586.532,4.268,12.956-8.948,30.106-16.23,40.165l-.633-.163c-4.774-17.013,5.81-27.986,15.277-40.534h0Z"/>
  <path class="st4" d="M540.69,605.419c6.431,13.192-9.087,28.891-16.527,38.398-5.575-14.66,5.454-29.698,16.527-38.398Z"/>
  <path class="st4" d="M544.692,581.105c4.742,10.757-17.202,28.809-23.042,37.524l-.467-.464c-1.577-15.825,9.526-30.616,23.509-37.06Z"/>
  <path class="st4" d="M543.738,683.445c3.659,14.582-2.088,27.665-11.928,38.552-7.417-12.588,3.155-29.216,11.928-38.552Z"/>
  <path class="st4" d="M540.084,659.458c9.352,10.295-7.739,28.132-11.693,38.14-8.636-12.955,3.23-28.448,11.693-38.14Z"/>
  <path class="st4" d="M550.504,556.705c3.999,11.616-18.097,24.341-24.474,32.311-5.838-15.252,13.402-26.242,24.474-32.311Z"/>
  <path class="st4" d="M564.195,448c6.291,12.511-7.222,25.577-15.006,34.124-5.564-13.181,5.646-26.065,15.006-34.124Z"/>
  <path class="st4" d="M637.439,321.908c1.491-.16,2.882-.23,4.381-.168,2.741,1.405.403,4.394-1.113,5.881-8.879,9.125-20.46,7.473-32.055,8.409,6.407-10.152,17.483-13.111,28.787-14.122Z"/>
  <path class="st0" d="M798.657,685.059c8.866-.785,16.758,8.36,22.057,14.337-4.092-.537-8.038-1.247-12.047-2.227-7.751-2.67-18.605,1.363-24.596-4.743.948-4.952,10.618-6.244,14.586-7.367Z"/>
  <path class="st4" d="M553.81,731.832c5.493,8.792,3.601,24.741-3.412,32.275l-1.175-.254c-9.796-9.036-3.262-23.98,4.587-32.021Z"/>
  <path class="st4" d="M546.827,709.247c7.205,12.434-1.977,27.368-7.403,38.666-8.115-11.315,1.57-28.229,7.403-38.666Z"/>
  <path class="st4" d="M563.798,472.366c7.136,11.724-6.866,25.495-14.328,33.407-6.648-11.429,7.857-25.164,14.328-33.407Z"/>
  <path class="st4" d="M547.475,451.653c1.035-8.802,7.397-20.646,16.012-24.053,6.87,8.23-4.972,19.042-10.241,25.181-1.336,1.287-2.835,4.013-4.976,3.092-.885-1.342-.767-2.677-.795-4.22Z"/>
  <path class="st4" d="M564.307,496.8c6.736,12.056-7.565,24.318-17.369,29.315l-.892-.253c-1.07-8.383,13.079-22.9,18.261-29.062h0Z"/>
  <path class="st4" d="M646.545,304.089c3.867-.257,6.721.976,10.225,2.396-6.996,10.141-18.911,10.678-30.072,12.155,5.077-7.747,10.67-12.52,19.847-14.551h0Z"/>
  <path class="st4" d="M657.493,285.236c4.014.906,8.681,6.418,11.628,9.264-7.379,6.379-16.908,6.154-26.078,7.368,3.782-6.579,8.645-11.802,14.45-16.632h0Z"/>
  <path class="st4" d="M617.295,340.646c2.254-.087,5.022.298,5.91,2.691-4.556,8.843-19.603,10.151-28.472,9.315,3.803-9.321,13.284-12.24,22.562-12.006Z"/>
  <path class="st4" d="M700.266,244.81c4.069.335,7.932,1.732,12.01,2.14.754-.631,1.515-1.236,2.302-1.825l.961.248c4.169,5.096-6.92,8.798-10.328,10.659-5.025,2.032-13.053-1.861-18.168-3.44,4.05-3.434,8.447-5.558,13.223-7.782h0Z"/>
  <path class="st4" d="M561.462,408.756c13.401-.271-8.044,21.747-12.388,22.822-2.96-3.548.522-12.533,1.542-16.513,3.268-2.699,7.01-4.568,10.846-6.309Z"/>
  <path class="st4" d="M733.66,217.919c4.039.024,5.22,3.816,2.278,6.429-2.217,3.925-20.636,8.168-22.456,3.963,2.12-5.863,14.866-8.918,20.178-10.392Z"/>
  <path class="st4" d="M715.443,233.378c4.768-.475,9.967.204,14.767.403-6.112,10.902-19.493,6.438-29.657,6.99,4.537-5.127,8.133-6.797,14.89-7.393h0Z"/>
  <path class="st7" d="M29.084,699.31c3.591-.808,8.453,4.347,7.378,7.855-2.81,2.512-6.097,1.247-9.44,2.293-1.643.614-3.283,2.073-5.168,1.77-6.8-2.795,3.908-10.398,7.229-11.918h0Z"/>
  <path class="st4" d="M562.155,755.103c2.801,2.289,4.883,5.323,6.929,8.268-1.459,1.874-2.869,3.581-5.057,4.6l-7.979-1.057c2.246-3.883,4.235-7.734,6.107-11.811Z"/>
  <g>
    <path class="st1" d="M129.023,586.222l9.355,27.346c.393,1.222.741,2.453,1.046,3.696.305,1.243.589,2.497.851,3.762.349-1.526.73-3.031,1.145-4.515.414-1.481.883-2.965,1.406-4.448l8.832-25.841h7.262l-16.551,47.953h-6.412l-16.486-47.953h9.551Z"/>
    <path class="st1" d="M172.005,634.829c-3.271,0-6.074-.753-8.407-2.257-2.333-1.505-4.121-3.533-5.364-6.084-1.243-2.552-1.864-5.397-1.864-8.538,0-2.354.37-4.568,1.112-6.64.741-2.071,1.821-3.903,3.238-5.496,1.417-1.591,3.107-2.846,5.07-3.762,1.962-.915,4.165-1.373,6.607-1.373,3.314,0,6.127.752,8.439,2.257,2.311,1.505,4.089,3.532,5.332,6.084,1.243,2.552,1.865,5.397,1.865,8.537,0,2.355-.371,4.569-1.112,6.641-.742,2.072-1.811,3.903-3.206,5.495-1.396,1.593-3.075,2.846-5.038,3.762-1.962.916-4.187,1.374-6.673,1.374ZM172.07,629.596c1.526,0,2.769-.382,3.729-1.146.959-.763,1.701-1.743,2.224-2.943.523-1.199.883-2.486,1.08-3.86s.294-2.649.294-3.827c0-1.221-.077-2.519-.229-3.893-.153-1.373-.469-2.659-.949-3.859-.48-1.199-1.188-2.169-2.126-2.911-.938-.741-2.191-1.112-3.762-1.112-1.483,0-2.705.393-3.664,1.178-.96.785-1.701,1.789-2.224,3.009-.523,1.222-.895,2.509-1.112,3.86-.219,1.353-.327,2.595-.327,3.729,0,1.178.087,2.443.262,3.795.174,1.353.501,2.639.981,3.859.479,1.222,1.188,2.214,2.126,2.977.938.764,2.169,1.146,3.696,1.146Z"/>
    <path class="st1" d="M201.837,583.735v50.309h-7.981v-46.775l-.72-3.533h8.701Z"/>
    <path class="st1" d="M220.808,592.044c-.306,1.527-.567,3.097-.785,4.71-.219,1.614-.35,3.206-.393,4.776h7.916l-1.243,5.168h-6.673v17.99c0,.48.043,1.069.131,1.767.087.698.327,1.309.72,1.832s1.024.785,1.897.785c.741,0,1.461-.065,2.159-.196.697-.131,1.395-.283,2.093-.458l.916,4.906c-1.135.35-2.41.666-3.827.948-1.418.283-2.715.426-3.893.426-2.792,0-4.853-.654-6.182-1.963-1.331-1.309-1.996-3.401-1.996-6.28v-19.757h-5.364v-4.318c1.352-.043,2.529-.381,3.533-1.014,1.003-.632,1.864-1.461,2.584-2.486.72-1.023,1.309-2.136,1.767-3.336.458-1.199.818-2.365,1.079-3.5h5.561Z"/>
    <path class="st1" d="M245.144,600.745c3.489,0,6.183.883,8.08,2.649,1.897,1.767,2.846,4.416,2.846,7.948v14.327c0,1.266.196,2.116.589,2.552.393.437.894.654,1.505.654.436,0,.86-.043,1.275-.131.414-.087.839-.218,1.276-.393l1.243,4.448c-.96.523-2.051.949-3.271,1.275-1.222.327-2.334.491-3.337.491-1.57,0-2.835-.327-3.794-.981-.96-.654-1.636-1.788-2.028-3.401-1.222,1.7-2.649,2.89-4.285,3.565-1.635.675-3.479,1.014-5.528,1.014-2.53,0-4.7-.729-6.509-2.191-1.811-1.461-2.715-3.521-2.715-6.183,0-2.355.556-4.285,1.668-5.79,1.112-1.504,2.562-2.659,4.351-3.467,1.788-.807,3.718-1.362,5.79-1.668,2.071-.305,4.045-.458,5.92-.458v-4.253c0-1.178-.163-2.093-.49-2.747s-.84-1.123-1.538-1.407c-.698-.283-1.593-.425-2.682-.425-1.483,0-2.966.415-4.449,1.243-1.483.829-2.792,1.68-3.925,2.551l-3.206-5.168c1.962-1.352,4.066-2.365,6.313-3.042,2.246-.676,4.547-1.014,6.902-1.014ZM248.219,620.371c-.916,0-1.919.044-3.009.131-1.09.088-2.137.306-3.14.654-1.004.35-1.821.873-2.453,1.57-.633.698-.949,1.657-.949,2.878,0,1.004.403,1.777,1.21,2.322.807.546,1.668.818,2.584.818,1.221,0,2.257-.349,3.107-1.047.851-.697,1.505-1.58,1.963-2.649.458-1.068.687-2.126.687-3.173v-1.505Z"/>
    <path class="st1" d="M272.948,601.53v28.196c0,2.093-.121,4.198-.36,6.312-.24,2.115-.742,4.078-1.505,5.888-.764,1.81-1.908,3.314-3.435,4.515-1.527,1.199-3.555,1.951-6.084,2.257l-1.439-3.599c1.657-.915,2.834-2.126,3.533-3.631.697-1.504,1.112-3.14,1.243-4.906s.196-3.478.196-5.136v-26.43l-.785-3.467h8.636ZM273.994,589.688c0,1.353-.48,2.53-1.439,3.533-.96,1.004-2.138,1.505-3.533,1.505-1.353,0-2.53-.501-3.533-1.505-1.004-1.003-1.505-2.181-1.505-3.533,0-1.396.501-2.572,1.505-3.532,1.002-.959,2.18-1.439,3.533-1.439,1.395,0,2.573.48,3.533,1.439.958.96,1.439,2.137,1.439,3.532Z"/>
    <path class="st1" d="M294.601,600.614c3.009,0,5.484.654,7.425,1.962,1.94,1.309,3.379,3,4.318,5.07.938,2.072,1.406,4.285,1.406,6.641,0,.698-.044,1.429-.13,2.191-.088.764-.24,1.516-.458,2.257h-19.888c0,3.49.828,6.161,2.486,8.015,1.657,1.854,3.815,2.78,6.477,2.78,1.264,0,2.627-.218,4.089-.654,1.46-.436,2.977-1.112,4.546-2.028l2.094,4.448c-1.483,1.178-3.348,2.051-5.594,2.617-2.247.566-4.264.851-6.051.851-2.53,0-4.809-.393-6.836-1.178-2.028-.785-3.751-1.919-5.168-3.401-1.417-1.482-2.497-3.249-3.238-5.3-.742-2.049-1.112-4.339-1.112-6.869,0-2.311.348-4.503,1.046-6.574.697-2.071,1.723-3.926,3.075-5.562,1.352-1.635,2.998-2.921,4.939-3.859,1.94-.938,4.132-1.406,6.575-1.406ZM294.274,605.979c-1.439,0-2.649.393-3.631,1.178-.981.785-1.733,1.767-2.257,2.943-.523,1.178-.829,2.334-.916,3.468h12.103c.218-1.265.152-2.475-.196-3.631-.35-1.155-.96-2.104-1.832-2.846-.873-.741-1.962-1.112-3.271-1.112Z"/>
  </g>
  <g>
    <path class="st1" d="M574.853,671.914c-3.794,0-7.12-.622-9.977-1.864-2.856-1.243-5.245-2.998-7.163-5.267-1.92-2.268-3.359-4.928-4.318-7.981-.96-3.053-1.438-6.367-1.438-9.944,0-3.488.522-6.716,1.569-9.682s2.562-5.561,4.547-7.785c1.984-2.225,4.394-3.958,7.229-5.201,2.834-1.243,6.04-1.864,9.616-1.864,1.57,0,3.325.163,5.267.49,1.94.327,3.827.829,5.659,1.505,1.832.677,3.357,1.56,4.579,2.649l-4.71,6.019c-.785-.916-1.767-1.7-2.944-2.354s-2.42-1.146-3.729-1.473-2.574-.49-3.795-.49c-2.529,0-4.667.513-6.411,1.537-1.745,1.025-3.14,2.41-4.187,4.154-1.047,1.745-1.799,3.675-2.257,5.79-.458,2.116-.688,4.285-.688,6.509,0,3.926.557,7.295,1.668,10.108,1.112,2.812,2.716,4.972,4.809,6.477,2.094,1.504,4.602,2.257,7.523,2.257,1.832,0,3.772-.251,5.822-.753,2.05-.501,4.209-1.341,6.478-2.519l2.682,4.842c-1.266.828-2.509,1.548-3.729,2.158-1.222.611-2.465,1.112-3.729,1.505-1.266.393-2.584.687-3.958.883s-2.846.295-4.416.295Z"/>
    <path class="st1" d="M608.806,671.914c-3.271,0-6.073-.753-8.406-2.257-2.334-1.505-4.121-3.533-5.364-6.084-1.243-2.552-1.864-5.397-1.864-8.538,0-2.354.369-4.568,1.111-6.64.741-2.071,1.821-3.903,3.238-5.496,1.417-1.591,3.107-2.846,5.07-3.762,1.963-.915,4.165-1.373,6.607-1.373,3.314,0,6.127.752,8.439,2.257,2.312,1.505,4.089,3.532,5.332,6.084s1.864,5.397,1.864,8.537c0,2.355-.371,4.569-1.112,6.641-.742,2.072-1.811,3.903-3.205,5.495-1.396,1.593-3.075,2.846-5.038,3.762-1.962.916-4.187,1.374-6.673,1.374ZM608.871,666.681c1.526,0,2.77-.382,3.729-1.146.959-.763,1.701-1.743,2.224-2.943.523-1.199.884-2.486,1.08-3.86s.294-2.649.294-3.827c0-1.221-.076-2.519-.229-3.893-.153-1.373-.47-2.659-.949-3.859-.48-1.199-1.188-2.169-2.126-2.911-.938-.741-2.191-1.112-3.762-1.112-1.483,0-2.704.393-3.663,1.178-.96.785-1.701,1.789-2.225,3.009-.523,1.222-.895,2.509-1.112,3.86-.219,1.353-.327,2.595-.327,3.729,0,1.178.087,2.443.262,3.795.174,1.353.501,2.639.981,3.859.479,1.222,1.188,2.214,2.126,2.977.938.764,2.169,1.146,3.696,1.146Z"/>
    <path class="st1" d="M637.198,637.961c.959,2.181,1.482,4.471,1.57,6.869,1.089-1.832,2.616-3.435,4.579-4.809s4.033-2.061,6.215-2.061l-1.309,7.785c-1.92,0-3.631.49-5.136,1.472-1.504.981-2.934,2.497-4.284,4.547v19.364h-7.851v-23.748c0-.828-.065-1.799-.196-2.911s-.35-2.191-.654-3.238c-.306-1.047-.72-1.919-1.243-2.616l8.309-.654Z"/>
    <path class="st1" d="M660.03,637.961c.959,2.181,1.482,4.471,1.57,6.869,1.089-1.832,2.616-3.435,4.579-4.809s4.033-2.061,6.215-2.061l-1.309,7.785c-1.92,0-3.631.49-5.136,1.472-1.504.981-2.934,2.497-4.284,4.547v19.364h-7.851v-23.748c0-.828-.065-1.799-.196-2.911s-.35-2.191-.654-3.238c-.306-1.047-.72-1.919-1.243-2.616l8.309-.654Z"/>
    <path class="st1" d="M685.413,626.773c0,1.353-.48,2.53-1.439,3.533-.96,1.004-2.138,1.505-3.532,1.505-1.353,0-2.53-.501-3.533-1.505-1.004-1.003-1.505-2.181-1.505-3.533,0-1.396.501-2.572,1.505-3.532,1.003-.959,2.181-1.439,3.533-1.439,1.395,0,2.572.48,3.532,1.439.959.96,1.439,2.137,1.439,3.532ZM684.301,638.615v32.514h-7.851v-28.981l-.72-3.532h8.57Z"/>
    <path class="st1" d="M705.954,637.699c3.01,0,5.484.654,7.426,1.962,1.939,1.309,3.379,3,4.317,5.07.938,2.072,1.406,4.285,1.406,6.641,0,.698-.044,1.429-.13,2.191-.089.764-.24,1.516-.458,2.257h-19.889c0,3.49.828,6.161,2.486,8.015,1.657,1.854,3.815,2.78,6.477,2.78,1.265,0,2.627-.218,4.089-.654,1.461-.436,2.977-1.112,4.547-2.028l2.094,4.448c-1.483,1.178-3.348,2.051-5.594,2.617-2.247.566-4.264.851-6.052.851-2.529,0-4.809-.393-6.836-1.178-2.028-.785-3.752-1.919-5.169-3.401s-2.497-3.249-3.238-5.3c-.742-2.049-1.111-4.339-1.111-6.869,0-2.311.348-4.503,1.046-6.574.697-2.071,1.723-3.926,3.075-5.562,1.352-1.635,2.998-2.921,4.939-3.859,1.939-.938,4.132-1.406,6.574-1.406ZM705.627,643.063c-1.438,0-2.649.393-3.631,1.178-.98.785-1.733,1.767-2.257,2.943-.523,1.178-.829,2.334-.916,3.468h12.104c.218-1.265.152-2.475-.196-3.631-.35-1.155-.96-2.104-1.832-2.846-.873-.741-1.963-1.112-3.271-1.112Z"/>
    <path class="st1" d="M731.991,637.896c.305.654.545,1.341.72,2.061.174.72.305,1.429.393,2.126,1.309-1.178,2.846-2.202,4.612-3.075,1.767-.871,3.543-1.308,5.332-1.308,2.528,0,4.491.48,5.888,1.438,1.396.96,2.376,2.302,2.943,4.023.566,1.724.851,3.719.851,5.986v21.981h-7.916v-21.196c0-1.003-.076-1.963-.229-2.879-.153-.916-.523-1.668-1.112-2.257s-1.516-.883-2.78-.883c-.654,0-1.45.196-2.388.589-.938.393-1.832.861-2.683,1.406-.851.546-1.516,1.079-1.995,1.603v23.617h-7.851v-23.29c0-.785-.055-1.755-.163-2.911-.109-1.155-.317-2.3-.622-3.435-.306-1.134-.72-2.006-1.243-2.616l8.243-.981Z"/>
    <path class="st1" d="M771.374,629.129c-.306,1.527-.567,3.097-.785,4.71-.219,1.614-.35,3.206-.393,4.776h7.916l-1.243,5.168h-6.673v17.99c0,.48.043,1.069.131,1.767.087.698.327,1.309.72,1.832s1.024.785,1.897.785c.741,0,1.461-.065,2.159-.196.697-.131,1.395-.283,2.093-.458l.916,4.906c-1.135.35-2.41.666-3.827.948-1.418.283-2.715.426-3.893.426-2.791,0-4.853-.654-6.182-1.963-1.331-1.309-1.996-3.401-1.996-6.28v-19.757h-5.364v-4.318c1.352-.043,2.529-.381,3.533-1.014,1.003-.632,1.864-1.461,2.584-2.486.72-1.023,1.309-2.136,1.767-3.336.458-1.199.817-2.365,1.079-3.5h5.561Z"/>
    <path class="st1" d="M795.449,637.699c3.009,0,5.484.654,7.425,1.962,1.94,1.309,3.38,3,4.318,5.07.938,2.072,1.406,4.285,1.406,6.641,0,.698-.044,1.429-.131,2.191-.088.764-.24,1.516-.458,2.257h-19.888c0,3.49.828,6.161,2.486,8.015,1.656,1.854,3.815,2.78,6.477,2.78,1.264,0,2.627-.218,4.089-.654,1.46-.436,2.977-1.112,4.546-2.028l2.094,4.448c-1.483,1.178-3.348,2.051-5.594,2.617s-4.264.851-6.051.851c-2.53,0-4.809-.393-6.837-1.178s-3.751-1.919-5.168-3.401c-1.418-1.482-2.497-3.249-3.238-5.3-.742-2.049-1.112-4.339-1.112-6.869,0-2.311.349-4.503,1.047-6.574.697-2.071,1.723-3.926,3.074-5.562,1.352-1.635,2.998-2.921,4.939-3.859,1.94-.938,4.132-1.406,6.575-1.406ZM795.122,643.063c-1.439,0-2.649.393-3.631,1.178s-1.733,1.767-2.257,2.943c-.523,1.178-.829,2.334-.916,3.468h12.103c.218-1.265.152-2.475-.196-3.631-.35-1.155-.96-2.104-1.832-2.846-.872-.741-1.962-1.112-3.271-1.112Z"/>
  </g>
  <g>
    <path class="st1" d="M119.472,224.564h16.42c2.922,0,5.604.403,8.047,1.21,2.442.808,4.405,2.159,5.888,4.056,1.482,1.897,2.224,4.504,2.224,7.818,0,1.832-.48,3.598-1.439,5.299-.959,1.701-2.214,3.151-3.762,4.351-1.548,1.2-3.217,2.018-5.004,2.453l14.654,22.701h-10.206l-13.281-21.327h-3.598v21.327h-8.962v-43.897l-.981-3.99ZM129.416,231.106v13.607h4.187c1.701,0,3.227-.207,4.58-.622,1.351-.413,2.42-1.145,3.206-2.191s1.178-2.485,1.178-4.317c0-1.439-.35-2.639-1.047-3.599-.698-.958-1.614-1.678-2.748-2.158-1.135-.479-2.378-.72-3.729-.72h-5.626Z"/>
    <path class="st1" d="M172.135,239.022c3.009,0,5.484.654,7.425,1.962,1.94,1.309,3.379,3,4.318,5.07.938,2.072,1.406,4.285,1.406,6.641,0,.698-.044,1.429-.13,2.191-.088.764-.24,1.516-.458,2.257h-19.888c0,3.49.828,6.161,2.486,8.015,1.657,1.854,3.815,2.78,6.477,2.78,1.264,0,2.627-.218,4.089-.654,1.46-.436,2.977-1.112,4.546-2.028l2.094,4.448c-1.483,1.178-3.348,2.051-5.594,2.617-2.247.566-4.264.851-6.051.851-2.53,0-4.809-.393-6.836-1.178-2.028-.785-3.751-1.919-5.168-3.401-1.417-1.482-2.497-3.249-3.238-5.3-.742-2.049-1.112-4.339-1.112-6.869,0-2.311.348-4.503,1.046-6.574.697-2.071,1.723-3.926,3.075-5.562,1.352-1.635,2.998-2.921,4.939-3.859,1.94-.938,4.132-1.406,6.575-1.406ZM171.808,244.386c-1.439,0-2.649.393-3.631,1.178-.981.785-1.733,1.767-2.257,2.943-.523,1.178-.829,2.334-.916,3.468h12.103c.218-1.265.152-2.475-.196-3.631-.35-1.155-.96-2.104-1.832-2.846-.873-.741-1.962-1.112-3.271-1.112Z"/>
    <path class="st1" d="M202.817,239.087c1.526,0,3.173.163,4.939.49,1.767.327,3.325.841,4.678,1.537l-2.748,5.496c-.873-.697-1.887-1.243-3.042-1.636-1.156-.393-2.301-.589-3.435-.589-1.09,0-2.104.262-3.042.785-.938.523-1.406,1.418-1.406,2.682,0,.742.185,1.364.556,1.865.37.502.883.927,1.537,1.275.654.35,1.374.698,2.159,1.047,1.046.393,2.136.829,3.271,1.309,1.133.48,2.202,1.069,3.206,1.766,1.002.698,1.809,1.626,2.42,2.781.61,1.155.916,2.628.916,4.415,0,2.312-.611,4.297-1.832,5.954-1.221,1.657-2.803,2.922-4.743,3.794-1.941.872-4.002,1.309-6.183,1.309-1.745,0-3.609-.262-5.593-.785-1.985-.523-3.74-1.199-5.267-2.028l2.813-5.364c1.133.654,2.311,1.254,3.533,1.799,1.22.546,2.507.818,3.86.818,1.308,0,2.453-.338,3.435-1.015.981-.676,1.472-1.733,1.472-3.173,0-.959-.251-1.733-.752-2.322-.501-.589-1.167-1.101-1.995-1.537-.829-.436-1.745-.828-2.748-1.178-1.353-.523-2.683-1.101-3.991-1.733-1.309-.632-2.399-1.538-3.271-2.715-.873-1.178-1.309-2.791-1.309-4.842,0-2.311.622-4.22,1.865-5.724,1.243-1.505,2.823-2.628,4.743-3.369,1.919-.741,3.903-1.112,5.954-1.112Z"/>
    <path class="st1" d="M227.153,228.096c0,1.353-.48,2.53-1.439,3.533-.96,1.004-2.138,1.505-3.533,1.505-1.353,0-2.53-.501-3.533-1.505-1.004-1.003-1.505-2.181-1.505-3.533,0-1.396.501-2.572,1.505-3.532,1.002-.959,2.18-1.439,3.533-1.439,1.395,0,2.573.48,3.533,1.439.958.96,1.439,2.137,1.439,3.532ZM226.042,239.938v32.514h-7.851v-28.981l-.72-3.532h8.57Z"/>
    <path class="st1" d="M246.06,239.087c1.526,0,3.173.163,4.939.49,1.767.327,3.325.841,4.678,1.537l-2.748,5.496c-.873-.697-1.887-1.243-3.042-1.636-1.156-.393-2.301-.589-3.435-.589-1.09,0-2.104.262-3.042.785-.938.523-1.406,1.418-1.406,2.682,0,.742.185,1.364.556,1.865.37.502.883.927,1.537,1.275.654.35,1.374.698,2.159,1.047,1.046.393,2.136.829,3.271,1.309,1.133.48,2.202,1.069,3.206,1.766,1.002.698,1.809,1.626,2.42,2.781.61,1.155.916,2.628.916,4.415,0,2.312-.611,4.297-1.832,5.954-1.221,1.657-2.803,2.922-4.743,3.794-1.941.872-4.002,1.309-6.183,1.309-1.745,0-3.609-.262-5.593-.785-1.985-.523-3.74-1.199-5.267-2.028l2.813-5.364c1.133.654,2.311,1.254,3.533,1.799,1.22.546,2.507.818,3.86.818,1.308,0,2.453-.338,3.435-1.015.981-.676,1.472-1.733,1.472-3.173,0-.959-.251-1.733-.752-2.322-.501-.589-1.167-1.101-1.995-1.537-.829-.436-1.745-.828-2.748-1.178-1.353-.523-2.683-1.101-3.991-1.733-1.309-.632-2.399-1.538-3.271-2.715-.873-1.178-1.309-2.791-1.309-4.842,0-2.311.622-4.22,1.865-5.724,1.243-1.505,2.823-2.628,4.743-3.369,1.919-.741,3.903-1.112,5.954-1.112Z"/>
    <path class="st1" d="M274.125,230.452c-.306,1.527-.567,3.097-.785,4.71-.219,1.614-.35,3.206-.393,4.776h7.916l-1.243,5.168h-6.673v17.99c0,.48.043,1.069.131,1.767.087.698.327,1.309.72,1.832s1.024.785,1.897.785c.741,0,1.461-.065,2.159-.196.697-.131,1.395-.283,2.093-.458l.916,4.906c-1.135.35-2.41.666-3.827.948-1.418.283-2.715.426-3.893.426-2.792,0-4.853-.654-6.182-1.963-1.331-1.309-1.996-3.401-1.996-6.28v-19.757h-5.364v-4.318c1.352-.043,2.529-.381,3.533-1.014,1.003-.632,1.864-1.461,2.584-2.486.72-1.023,1.309-2.136,1.767-3.336.458-1.199.818-2.365,1.079-3.5h5.561Z"/>
    <path class="st1" d="M298.199,239.022c3.009,0,5.484.654,7.425,1.962,1.94,1.309,3.379,3,4.318,5.07.938,2.072,1.406,4.285,1.406,6.641,0,.698-.044,1.429-.13,2.191-.088.764-.24,1.516-.458,2.257h-19.888c0,3.49.828,6.161,2.486,8.015,1.657,1.854,3.815,2.78,6.477,2.78,1.264,0,2.627-.218,4.089-.654,1.46-.436,2.977-1.112,4.546-2.028l2.094,4.448c-1.483,1.178-3.348,2.051-5.594,2.617-2.247.566-4.264.851-6.051.851-2.53,0-4.809-.393-6.836-1.178-2.028-.785-3.751-1.919-5.168-3.401-1.417-1.482-2.497-3.249-3.238-5.3-.742-2.049-1.112-4.339-1.112-6.869,0-2.311.348-4.503,1.046-6.574.697-2.071,1.723-3.926,3.075-5.562,1.352-1.635,2.998-2.921,4.939-3.859,1.94-.938,4.132-1.406,6.575-1.406ZM297.872,244.386c-1.439,0-2.649.393-3.631,1.178-.981.785-1.733,1.767-2.257,2.943-.523,1.178-.829,2.334-.916,3.468h12.103c.218-1.265.152-2.475-.196-3.631-.35-1.155-.96-2.104-1.832-2.846-.873-.741-1.962-1.112-3.271-1.112Z"/>
    <path class="st1" d="M324.236,239.218c.305.654.545,1.341.72,2.061.174.72.305,1.429.393,2.126,1.308-1.178,2.846-2.202,4.612-3.075,1.767-.871,3.543-1.308,5.332-1.308,2.529,0,4.491.48,5.888,1.438,1.396.96,2.376,2.302,2.944,4.023.566,1.724.851,3.719.851,5.986v21.981h-7.916v-21.196c0-1.003-.077-1.963-.229-2.879-.153-.916-.523-1.668-1.112-2.257s-1.516-.883-2.781-.883c-.654,0-1.45.196-2.388.589-.938.393-1.832.861-2.682,1.406-.851.546-1.516,1.079-1.996,1.603v23.617h-7.85v-23.29c0-.785-.055-1.755-.164-2.911-.109-1.155-.317-2.3-.622-3.435-.306-1.134-.72-2.006-1.243-2.616l8.243-.981Z"/>
    <path class="st1" d="M367.479,239.087c1.613,0,3.336.284,5.168.851,1.832.566,3.402,1.33,4.71,2.289l-3.925,4.973c-1.047-.785-2.072-1.407-3.075-1.865-1.004-.458-2.203-.687-3.598-.687s-2.574.371-3.533,1.112c-.96.742-1.724,1.7-2.29,2.878-.567,1.178-.981,2.421-1.243,3.729s-.393,2.529-.393,3.663c0,3.708.763,6.586,2.29,8.636,1.526,2.051,3.641,3.075,6.346,3.075,1.133,0,2.29-.186,3.467-.557,1.177-.37,2.442-.948,3.794-1.733l2.028,4.71c-1.832,1.004-3.533,1.767-5.103,2.29-1.57.523-3.425.785-5.561.785-3.446,0-6.346-.731-8.701-2.191-2.355-1.461-4.144-3.478-5.365-6.052-1.222-2.573-1.832-5.517-1.832-8.832,0-3.401.697-6.378,2.093-8.93,1.396-2.552,3.347-4.547,5.855-5.986,2.508-1.438,5.463-2.158,8.865-2.158Z"/>
    <path class="st1" d="M392.926,228.096c0,1.353-.48,2.53-1.439,3.533-.96,1.004-2.138,1.505-3.533,1.505-1.353,0-2.53-.501-3.533-1.505-1.004-1.003-1.505-2.181-1.505-3.533,0-1.396.501-2.572,1.505-3.532,1.002-.959,2.18-1.439,3.533-1.439,1.395,0,2.573.48,3.533,1.439.958.96,1.439,2.137,1.439,3.532ZM391.814,239.938v32.514h-7.851v-28.981l-.72-3.532h8.57Z"/>
    <path class="st1" d="M412.748,239.153c3.489,0,6.183.883,8.08,2.649,1.897,1.767,2.846,4.416,2.846,7.948v14.327c0,1.266.196,2.116.589,2.552.393.437.894.654,1.505.654.436,0,.86-.043,1.275-.131.414-.087.839-.218,1.276-.393l1.243,4.448c-.96.523-2.051.949-3.271,1.275-1.222.327-2.334.491-3.337.491-1.57,0-2.835-.327-3.794-.981-.96-.654-1.636-1.788-2.028-3.401-1.222,1.7-2.649,2.89-4.285,3.565-1.635.675-3.479,1.014-5.528,1.014-2.53,0-4.7-.729-6.509-2.191-1.811-1.461-2.715-3.521-2.715-6.183,0-2.355.556-4.285,1.668-5.79,1.112-1.504,2.562-2.659,4.351-3.467,1.788-.807,3.718-1.362,5.79-1.668,2.071-.305,4.045-.458,5.92-.458v-4.253c0-1.178-.163-2.093-.49-2.747s-.84-1.123-1.538-1.407c-.698-.283-1.593-.425-2.682-.425-1.483,0-2.966.415-4.449,1.243-1.483.829-2.792,1.68-3.925,2.551l-3.206-5.168c1.962-1.352,4.066-2.365,6.313-3.042,2.246-.676,4.547-1.014,6.902-1.014ZM415.823,258.779c-.916,0-1.919.044-3.009.131-1.09.088-2.137.306-3.14.654-1.004.35-1.821.873-2.453,1.57-.633.698-.949,1.657-.949,2.878,0,1.004.403,1.777,1.21,2.322.807.546,1.668.818,2.584.818,1.221,0,2.257-.349,3.107-1.047.851-.697,1.505-1.58,1.963-2.649.458-1.068.687-2.126.687-3.173v-1.505Z"/>
  </g>
</svg>