<?xml version="1.0" encoding="UTF-8"?>
<svg id="Layer_1" xmlns="http://www.w3.org/2000/svg" width="980" height="868.78" version="1.1" viewBox="0 0 980 868.78">
  <!-- Generator: Adobe Illustrator 29.4.0, SVG Export Plug-In . SVG Version: 2.1.0 Build 152)  -->
  <defs>
    <style>
      .st0 {
        fill: #95ced4;
      }

      .st1 {
        fill: #d60000;
      }

      .st2 {
        fill: #514514;
      }

      .st3 {
        fill: #5aba47;
      }

      .st4 {
        fill: #3b3b3b;
      }

      .st5 {
        fill: #d5bd2b;
      }

      .st6 {
        fill: #d5bc2a;
      }

      .st7 {
        fill: #fefefe;
      }

      .st8 {
        fill: #da888a;
      }
    </style>
  </defs>
  <path class="st4" d="M578.712,29.116c.711-7.516-1.175-20.631,7.013-24.396,7.485,3.791,3.16,17.908,2.487,24.596l6.547.541c1.64-7.924,1.564-19.44,10.247-23.008,6.454,3.695-.397,19.381-1.24,25.007,6.232,1.591,11.941,4.059,17.781,6.693,11.149-20.491,35.26-22.975,53.983-32.067,9.768,8.476,7.753,30.267,4.859,41.818-3.65,12.246-10.38,20.203-21.489,26.256,9.807,14.211,10.345,31.771,14.173,48.01,19.243,26.446,20.567,59.175-6.893,80.614,12.44,9.553,16.97,25.278,23.038,39.093,14.801-11.251,24.748-30.522,45.117-31.87,31.798,6.782-10.324,44.394-22.796,52.249,24.771,42.751-25.529,82.197-65.409,84.527-2.4,8.233-6.324,16.429-10.56,23.871,19.337,15.603,24.585,43.059,17.503,66.207-1.565,4.718-4.279,9.12-5.526,13.929-2.797,20.1,20.645,32.633,34.539,42.77,16.661-11.727,33.425-24.958,48.124-39.052,59.996-78.727,162.371-58.641,248.753-60.406,1.222,2.426,1.461,6.259.01,8.636,1.754,128.178,1.545,322.537-.02,450.815,1.236,2.449,1.461,6.265.03,8.677-64.679,1.57-131.713.002-196.568.452-27.748.847-57.277.712-80.865-16.047-40.071-28.247-64.439-95.202-123.746-79.777-8.803,13.053-29.185,11.386-36.387-2.352-73.27-10.395-90.792,90.516-160.474,95.82-81.226,7.659-296.502-.627-381.153,1.984v-468.163s158.168.453,158.168.453c45.671.417,97.281-7.661,137.733,17.638,36.523,22.964,63.097,58.709,100.561,80.432,5.403-18.76,14.468-35.046,24.041-51.933-7.079-10.837-8.739-24.913-9.706-37.495-13.949,7.725-41.72,9.475-42.908-11.895-30.899-20.17,10.181-44.891-1.783-11.816,23.204-24.12,48.602,6.653,17.584,17.091,13.7,5.399,29.813-4.289,33.033-18.311,2.403-9.878-2.178-20.287-2.099-30.289-1.218-25.353,6.267-50.998,20.933-71.715-4.985-44.537,15.633-89.717,50.251-117.558-2.556-28.812,1.985-60.426,23.772-81.331-15.628-14.115-22.33-33.815-23.431-54.339-.087-5.168-2.368-11.762,1.762-15.907,24.002-6.212,51.726,8.461,66.379,27.532,8.002-2.675,16.398-4.187,24.631-5.983ZM503.305,528.074c11.354.705,22.885,3.401,34.264,2.476.65-5.768,3.125-11.287,3.697-16.988.869-8.81-1.929-17.713.748-26.379-2.44-7.964-.713-14.712-.768-22.717-1.118-11.882-1.314-24.147.682-36.003-11.869-3.412-24.78-1.374-36.603-4.723-6.654,26.07-26.277,40.144-46.399,55.691,5.792,33.285,5.031,49.18,44.379,48.643ZM570.081,516.298c8.13,2.729,8.197,4.643,9.393,12.459,12.548,1.476,44.485-6.38,57.643-9.895-52.957-12.733-22.204-71.525-65.376-95.436-2.401,30.886,2.154,62.12-1.66,92.872ZM380.579,386.938c2.605-.304,5.779.728,8.173-.205,2.054-2.155.926-5.945-1.306-7.548-3.405-1.916-11.959,4.153-12.765,7.644,1.209,2.186,4.031.323,5.898.109Z"/>
  <path class="st7" d="M978.973,403.133c1.754,128.178,1.545,322.537-.02,450.815-68.662-2.299-137.328,1.477-206.001-.318-21.229-.945-44.34-.059-62.408-13.011-31.496-21.307-49.104-58.652-82.154-77.604,6.672-3.192,21.856-4.636,29.203-8.737,9.986,14.688,28.469,24.076,41.005,36.659,9.07,9.104,13.485,21.713,22.289,30.845,5.561,5.768,12.158,8.507,18.654,12.874,6.823,4.587,13.027,10.387,20.804,13.402,4.741,1.838,10.202,2.146,15.23,2.219,7.729.52,21.61.606,19.173-10.692,43.565-.968-20.566-36.034-31.216-43.685-7.843-6.628-14.007-14.461-17.911-23.976,21.516,12.467,42.745,25.991,67.724,30.259,9.996,3.593,13.925,7.11,25.421,8.482,11.938,1.492,39.992-3.879,37.184-20.124-.257-1.193-1.68-2.942-1.218-4.055,3.435-5.191,13.58-10.345,8.152-17.879-13.068-10.218-37.646-4.911-53.083-5.739-12.375-1.394-47.95-21.936-55.728-32.008,23.78,4.103,51.844.59,70.815-15.485-5.327-7.886-21.955-13.482-20.271-23.556,18.769,4.629,39.335,23.411,59.512,10.31,30.35,8.808,47.796-38.726,30.895-59.552-9.4-9.887-23.958-1.608-35.472-10.443-2.353-7.973-3.193-19.751-2.841-28.088,2.562-6.6.521-7.245-4.112-11.856-4.114-22.679-13.044-42.703-31.761-57.036,2.993-26.654-19.601-62.069-49.215-57.118-13.378,12.043-5.617,30.725-12.708,40.185-14.854-14.655-28.492-24.05-50.058-26.987-21.842-5.298-22.739,24.591-23.812,39.212-24.059,6.461-50.949,7.189-74.643-.796l.095-.539c18.856-5.871,38.012-12.681,54.169-24.623,144.76-125.76,110.748-95.356,294.305-101.357Z"/>
  <path class="st4" d="M866.306,489.26c8.15-1.303,11.915,7.379,9.628,14.158-1.871,8.455-8.048,13.751-15.046,18.105-2.731,1.568-6.978,2.429-8.302-1.323-3.15-11.236,2.31-26.43,13.72-30.94Z"/>
  <path class="st7" d="M866.33,498.267c5.156,2.826-.416,8.217-3.052,10.776-5.859-2.936-.664-8.618,3.052-10.776Z"/>
  <path class="st4" d="M896.891,530.986c8.559-1.96,20.37,6.761,12.478,15.076-6.86,7.023-28.544,7.384-35.973,1.536,2.228-9.334,15.142-14.245,23.495-16.611Z"/>
  <path class="st7" d="M896.801,539.049c1.869.339,5.302.303,5.669,2.667-2.465,3.302-9.119,3.802-12.414,1.63,1.082-2.628,4.378-3.158,6.745-4.297Z"/>
  <path class="st7" d="M-.21,403.233c51.117.606,183.734-.89,232.679.331,65.733,1.585,102.45,61.228,152.191,95.051,16.868,11.27,35.461,20.849,55.039,26.319,4.748,1.407,16.426,3.422,19.813,5.83l.374.917c-22.449,5.19-41.288,19.064-53.653,38.476-17.673-41.551-42.003-78.554-89.709-87.196-12.625-22.998-35.659-38.201-61.713-41.194-36.315-2.864-43.352-2.298-24.665,33.305-17.782,10.209-36.103,11.67-53.557,22.391-73.322,42.738-128.347,127.467-121.653,214.035-6.265,6.277-15.678,10.661-24.575,7.698l-.326-.664c2.999-4.607,8.331-3.442,11.328-11.158,2.195-4.768.07-10.494-4.658-12.741-8.689-6.138-22.477,6.623-25.673,9.739-3.146-3.886,2.673-10.039-.563-14.151-7.922-8.79-17.979,16.857,4.154,24.814,3.029,20.607,28.707,15.044,41.47,7.134,6.684,26.678,22.985,46.946,41.796,66.371-3.413,5.937-10.519,13.651-8.361,20.94,3.252,10.986,33.522,39.814,33.541,43.774-24.512,1.384-97.08-.057-123.277.73v-450.751Z"/>
  <path class="st8" d="M230.815,449.286c32.806-2.088,65.104,9.646,79.327,40.88,2.789,2.517,16.959,4.242,21.573,5.99,28.239,10.465,47.898,34.785,59.305,61.811,5.161,11.674,11.513,22.904,20.92,31.692-3.678,5.613-16.277,12.347-11.621,19.949,6.14,2.103,20.578-24.19,30.468-14.745-10.053,17.855-21.108,36.286-13.305,57.317-17.4,1.809-31.638-13.915-48.543-11.843-5.926,1.041-26.083,9.815-17.529,17.346,25.249-9.416,14.621-14.75,43.91-.063-40.375,18.2-71.706,12.87-110.894-2.029-1.615-.031-2.406.357-3.58,1.419-1.924,8.298,10.516,10.189,16.027,13.031,24.492,9.726,51.3,10.63,76.835,4.435,17.028-3.529,35.159-16.598,52.368-7.548-5.551,4.65-31.189,10.722-25.656,20.039,6.686,1.599,18.191-6.45,24.228-9.479-3.232,9.451-8.932,16.907-17.285,22.461-10.063,6.692-21.91,8.948-33.349,12.135-30.571,8.515-62.574,16.992-94.644,13.438-8.559-.948-17.62-2.697-25.731-5.565-4.446-.79-10.35-6.943-14.266-3.168-1.412,10.564,19.24,13.157,26.541,15.757-19.126,16.791-42.613,31.875-67.842,36.969,1.064-6.267-4.525-43.622-13.864-40.237-2.892,4.395,3.399,20.971,4.26,27.017.902,6.334.947,13.031-.217,19.334-3.567,21.597-23.411,32.52-41.764,40.098-8.509,6.403,27.151,32.102,31.464,39.257l-8.424-.024c-3.086-3.21-5.987-7.869-10.713-8.663-.874.409-.796.173-1.178,1.168l1.072.116-1.123.266c-.03,2.674,1.673,4.903,2.979,7.134l-22.569-.018c-6.353-5.449-11.653-12.904-17.164-19.24-6.348-7.3-15.981-16.31-20.646-24.457-4.213-5.911,5.719-13.383,7.509-21.693-3.215-10.802-14.677-19.299-21.754-27.83-65.587-93.618,22.038-224.381,112.839-265.37,18.05,14.659,23.331,33.803,45.26,44.017,7.217,2.596,28.076,12.568,33.213,3.568-.761-3.676-4.956-4.94-8.228-5.823-31.423-4.417-39.065-23.09-57.807-44.495,39.941-21.125,68.625-20.672,94.424,20.045,3.201,2.52,7.49.259,5.971-3.988-8.174-29.287-44.675-43.999-72.841-38.549-3.324-5.726-9.023-15.063-7.957-21.862Z"/>
  <path class="st4" d="M240.685,492.185c4.403-.537,8.897-.3,13.219.698,7.955.745,45.438,21.57,31.014,30.154-7.381-2.516-15.702-13.768-23.847-18.146-7.734-4.158-16.606-3.453-23.502-6.694-1.439-2.477,1.131-4.837,3.116-6.012Z"/>
  <path class="st4" d="M352.406,556.689c5.68-1.108,28.446,15.305,26.649,21.726-5.967,8.23-18.279-6.998-24.043-10.383-4.389-2.723-8.021-7.461-2.606-11.343Z"/>
  <path class="st4" d="M346.086,578.751c6.444.912,37.365,18.588,23.072,25.806-8.18-7.309-17.854-12.716-26.655-19.194-1.074-2.922,1.224-5.273,3.583-6.612Z"/>
  <path class="st0" d="M721.746,498.732c27.422.303,56.193,18.781,57.272,48.181,6.279,15.381,11.176-10.346.915-22.874,36.727-1.087,82.204,24.767,82.365,64.967-.655.929-1.805.825-2.493,2.144,1.026,5.404,7.239,7.335,9.007,12.465,2.572,11.601.836,23.769,5.118,35.103-4.39,2.53-15.489,11.388-12.601,17.014,11.167-2.44,10.841-14.673,28.63-12.772-14.65,13.954-24.67,36.149-13.262,55.028-39.452,7.312-52.011-41.365-89.709-17.798-6.741,3.523-15.17,13.509-6.897,19.67,16.84,4.889,35.521,4.093,51.404,12.758-24.103,16.132-54.13,13.694-79.951,3.48-6.299,7.426-13.619,13.427-22.69,17.217-3.056-9.295-11.419-68.647-25.392-60.154-1.774,3.993,3.024,11.075,4.846,14.507,6.568,12.371,9.105,32.771,12.592,46.803,6.939,27.921,22.308,60.052,47.655,75.261,12.284,6.447,24.006,11.863,33.818,22.022-3.659.369-7.171,1.185-10.648,2.363-3.995-3.596-11.192-14.82-17.258-11.261-.591,5.184,11.016,12.705,8.994,18.761-16.793,7.123-32.715-7.174-43.438-18.621-15.85.138-22.454-23.147-31.16-33.602-34.446-33.647-46.151-28.047-63.546-79.83-1.331-.607-2.104-.828-3.565-.864-6.507,6.143,8.841,30.73,11.603,37.974-24.89,7.808-52.695,13.987-78.781,9.355-10.788-13.715-14.915-25.272-18.936-42.086-5.863-13.924-4.137-29.32-5.574-44.079-.474-5.175-2.005-10.218-2.418-15.376.395-10.278,2.919-19.84-1.066-29.848,2.336-8.687,4.344-16.531.194-25.045,4.305-8.848,5.752-18.479,7.296-28.049,2.921-9.319,6.691-19.757,12.767-27.441,42.699-25.777,94.71,12.632,139.392-5.527,3.161,11.592,7.875,24.367,17.509,32.19,4.291,3.33,12.449,8.247,17.305,3.862-.089-4.77-13.07-10.626-16.492-14.225-13.781-16.785-13.969-43.496-2.804-61.673Z"/>
  <path class="st4" d="M809.66,616.426c5.114-.694,8.004,3.723,9.156,8.078-1.61,2.785-4.697,7.095-1.238,9.685,6.361,3.144,11.282-10.931,17.457-8.357,1.963,8.088-6.572,14.888-13.806,16.188-13.729,2.295-20.012-16.37-11.569-25.594Z"/>
  <path class="st4" d="M737.98,516.23c15.011,3.724,31.638,21.262,26.552,37.62-9.394-.6-9.187-14.506-14.937-20.247-5.029-4.711-16.389-8.772-11.615-17.373Z"/>
  <path class="st4" d="M831.542,584.43c6.544.42,5.666,9.196.394,11.103-7.932,3.331-20.935,1.621-28.021-3.135-5.545-11.665,15.702-5.637,20.789-3.842,2.309-1.312,4.563-2.75,6.837-4.126Z"/>
  <path class="st4" d="M859.117,616.382c7.196-.654,9.071,11.74,3.766,15.087-6.977-1.6-8.954-10.344-3.766-15.087Z"/>
  <path class="st6" d="M495.506,13.801c20.585,1.131,41.345,9.25,52.523,27.406,3.413,4.425,4.183,11.727,9.377,14.322,5.051-2.681,1.864-8.654-.275-12.28,55.318-23.21,105.616,25.939,107.711,80.528,2.482,7.567,9.121,13.528,12.078,21.424,5.888,15.716,1.284,32.265-9.37,44.698-6.124,7.146-12.921,12.609-16.879,21.376l4.316,3.095c2.11-1.712,4.311-3.316,6.481-4.95,8.602,8.871,19.864,23.406,19.282,36.561-.277,6.988-8.22,4.531-14.261,16.869-11.27,16.992-26.313,30.807-40.29,45.47-12.107,13.371-24.261,26.698-37.914,38.543-8.878-5.105-17.915-6.485-27.498-9.42-34.624-11.896-65.983-42.194-61.552-81.361.002-6.768,7.585-19.098-.29-23.154-1.238.255-1.748.449-2.527,1.549-21.58,42.16,13.514,93.884,54.734,107.77,17.875,5.137,40.925,7.699,45.783,29.227l-3.322,6.583c-4.13-4.481-8.779-15.726-16.264-11.505-.198,4.38,5.37,8.802,8.189,11.495-.645,6.802-1.925,10.754-6.984,15.479-3.205-4.17-14.649-20.503-19.281-11.266,1.4,4.642,9.561,11,12.556,15.457-1.788,1.51-3.675,2.935-5.506,4.394l-5.69.655c-14.067-6.398-20.812-18.259-27.129-31.681-97.349-26.446-120.745-147.961-38.984-207.642-1.235-25.505-1.349-58,18.315-77.062,3.251-3.344,10.937-3.874,11.497-9.082-21.882-12.476-32.324-38.973-28.827-63.499Z"/>
  <path class="st4" d="M636.2,110.718c11.133-2.33,14.081,11.854,10.744,19.881,21.445,6.098,30.981,33.374,18.197,51.573-30.274,39.038-67.423-23.153-100.175,15.578-21.18-1.818,19.206-36.571,43.306-18.667-7.889-18.894,1.803-44.037,22.855-48.405-.007-7.541-3.967-14.412,5.073-19.96Z"/>
  <path class="st5" d="M636.429,138.75c31.422-2.089,35.612,44.523,4.328,48.077-31.841,2.524-36.103-44.876-4.328-48.077Z"/>
  <path class="st4" d="M627.662,151.601c8.889,2.944,6.945,15.506,2.59,21.6-8.277-3.728-8.191-15.552-2.59-21.6Z"/>
  <path class="st4" d="M647.792,151.062c7.562,4.588,8.141,14.688,3.889,21.766-9.527-1.993-7.861-15.45-3.889-21.766Z"/>
  <path class="st4" d="M587.367,109.306c14.458-.996,16.699,21.439,4.667,26.577-15.057,2.854-16.025-21.627-4.667-26.577Z"/>
  <path class="st4" d="M575.806,83.413c14.319-.256,13.069,10.845,32.021,16.379,3.453,1.834,3.129,5.99.296,8.238-8.228,5.302-38.471-14.596-32.316-24.617Z"/>
  <path class="st2" d="M504.678,25.622c19.178,1.938,41.238,20.426,35.183,41.314l-.976.077c-2.741-1.631-7.392-16.732-10.873-20.841-5.59-8.203-23.709-9.613-23.334-20.55Z"/>
  <path class="st4" d="M644.714,90.476c2.288.084,4.48.089,6.183,1.809,1.21,7.333-12.193,12.922-17.114,16.337-3.378.612-7.164-3.08-5.892-6.484,1.736-5.02,12.364-9.291,16.822-11.662Z"/>
  <path class="st0" d="M412.745,576.528c24.775-39.17,77.28-46.372,119.43-37.422-15.731,36.126-20.289,77.34-15.508,116.177,1.287,3.334,2.997,18.226.934,22.123,4.023,17.77,2.942,36.601,9.677,53.65,2.988,9.36,4.03,17.641,10.477,25.518-21.194-2.724-41.806-5.969-61.702-14.028,3.515-5.709,12.046-13.012,9.317-20.224-5.865-2.513-9.832,8.838-13.115,12.36-12.372,15.231-32.97,25.966-52.207,29.133-11.888,2.549-25.909-.444-36.494,6.449-13.854,15.104-19.886,49.988-34.71,65.453-2.014-4.368,6.173-9.542,1.752-13.323-5.475.941-10.096,14.898-14.878,18.916-1.163.977-2.094,1.36-3.642,1.17-10.333-5.965.98-24.802-1.366-29.253-2.555-.65-4.539,1.838-6.47,3.179,2.143-11.49,10.082-19.299,13.646-30.12,3.831-11.63,3.209-31.025,9.267-40.561,6.647-9.063,18.779-12.915,23.938-23.466,31.742-6.18,64.608-20.626,63.653-58.278-1.36-1.98-2.912-3.519-4.642-5.159,18.603-9.706,23.378-38.028,20.409-57.002-3.993-19.101-25.381-15.11-37.766-25.292Z"/>
  <path class="st7" d="M355.619,726.253l.879.129.141.564c-2.15,3.775-8.138,6.555-11.633,9.173-13.547,11.37-9.009,31.88-14.613,47.152-3.795,11.804-12.87,20.092-14.664,32.902,1.742,1.572,3.264,3.473,4.828,5.223-2.579,11.637.465,24.526,12.061,29.757,34.653-8.108,40.961-47.789,55.093-75.032,3.454-.599,7.008-.671,10.505-.856-1.173,8.393-12.494,32.786,2.335,32.265.756,7.855,2.934,15.743,10.416,19.548,24.443-2.522,31.128-42.679,37.673-62.066,4.746-4.438,16.044-11.22,21.937-15.417,10.632,4.813,21.204,6.903,32.318,9.996-27.781,8.999-45.673,35.058-63.861,56.274-17.159,21.222-41.537,35.176-69.118,35.988-33.275,3.978-66.78,2.027-100.159,2.953-8.374-15.879-30.41-38.232-41.39-52.76,16.753-11.681,22.123-27.577,23.696-47.034,7.911-7.241,17.295-13.438,25.321-20.656,26.317,1.25,52.713-1.512,78.235-8.103Z"/>
  <path class="st6" d="M436.718,289.434c13.49,43.826,50.279,73.263,92.643,87.3,4.238,10.224,9.066,18.582,16.187,27.057-.533,5.205-2.163,10.253-3.692,15.236-12.265-.012-23.903-1.239-35.828-4.08-1.091-5.238.455-21.048-7.552-20.807-4.353,2.828-1.062,9.093-.958,13.267,3.31,25.178-14.621,44.774-34.375,57.344-4.496,3.299-8.83,6.515-11.813,11.315-2.581,7.693,6.017,36.932,7.814,46.341-11.672-8.787-12.311-31.458-19.303-29.94-5.273,5.117.506,16.823,2.213,22.729-12.991-4.271-25.96-8.034-37.228-16.104,2.306-20.276,15.849-38.504,23.483-57.148-9.513-25.067-11.02-42.133-3.295-67.837-1.065-28.532-3.283-58.917,11.704-84.673Z"/>
  <path class="st6" d="M639.519,337.047c3.771,11.433-11.783,30.24-18.311,39.291,2.674,2.422,5.833,2.764,9.074,1.319,18.607,14.749,20.262,38.868,13.933,60.411-16.92,27.699,10.537,46.705,31.402,60.794-3.231,2.225-6.682,4.136-10.164,5.934-6.111-4.224-14.357-20.173-22.174-17.99-2.613,9.734,9.063,17.016,15.15,22.771-4.425,1.858-8.99,3.004-13.661,4.056-58.262-20.142-17.295-67.791-70.993-99.709-5.136-9.776,15.947-14.363,19.472-25.157,7.572-5.27,9.114-11.283,10.661-19.845,13.669-8.768,22.31-22.848,35.611-31.875Z"/>
  <path class="st0" d="M754.053,726.57c11.102,1.987,18.903,13.879,27.65,20.338,16.921,12.346,36.506,24.106,58.144,23.705,11.353.161,25.095-4.951,34.89,2.595-2.405,12.107-18.988,2.401-25.854,8.402,2.627,6.078,14.347,6.721,20.098,8.989-18.273,17.397-36.449,13.546-55.857.855-11.186,4.69-24.901-5.71-34.697-10.4-15.586-9.514-46.708-20.619-48.017-40.425,8.437-3.8,16.029-8.864,23.643-14.059Z"/>
  <path class="st8" d="M241.907,761.509l.65.191c1.429,5.852-5.4,20.319-9.367,24.545-4.78,5.823-19.772,11.062-12.495,19.94,12.561,16.703,27.447,31.793,39.705,48.752l-9.467.07c-4.89-6.463-9.056-17.428-17.956-18.537-2.696,6.717,5.476,12.87,8.255,18.49-6.612.082-13.231.01-19.844.002-15.223-14.283-29.624-30.052-42.224-46.709,9.534-8.737,13.684-17.652,18.138-29.56,16.008-1.842,30.696-9.507,44.605-17.184Z"/>
  <path class="st5" d="M678.7,258.023c13.126-.782,26.911,6.986,30.012,20.35,7.884,35.797-33.174,54.747-61.962,60.777,2.931-16.399,13.983-28.776,26.101-39.42,2.679.435,8.545,2.592,9.132-1.484-2.296-7.676-14.176-12.489-19.093-18.892,15.844-10.813,15.422-2.59,28.261,3.138,2.712-5.892-4.277-11.197-8.306-14.466-4.75-.023-9.349.24-14.07.74,3.042-4.025,5.872-7.7,9.925-10.743Z"/>
  <path class="st0" d="M903.126,643.788c21.24,3.715,8.987,53.305-13.008,53.069-24.95-9.814-5.499-46.37,13.008-53.069Z"/>
  <path class="st4" d="M894.925,660.393c7.203,5.282,2.486,15.86-3.241,20.393-2.11-1.769-2.877-3.686-3.839-6.194,1.206-5.82,2.726-9.991,7.08-14.199Z"/>
  <path class="st4" d="M905.669,660.849c7.439,1.162,4.385,12.488,1.566,16.845-8.146-1.756-4.459-11.922-1.566-16.845Z"/>
  <path class="st6" d="M671.742,18.376c4.732,4.172,1.717,19.084.695,24.801-2.817,10.94-8.537,18.843-18.204,24.606-6.598-10.11-15.077-18.655-24.645-25.951,6.702-15.3,27.672-19.545,42.154-23.456Z"/>
  <path class="st0" d="M795.497,484.755c22.946,2.818,37.252,24.921,38.149,46.762-13.167-9.102-29.318-12.053-44.467-16.285-.874-10.487,1.348-21.202,6.318-30.477Z"/>
  <path class="st0" d="M439.073,767.432c.639,5.003-9.829,30.585-12.483,33.264-.347-1.183-.36-2.232-1.393-2.959-7.368,2.97-3.757,16.862-9.267,20.631-10.856,3.045-4.634-19.545-13.809-22.743.025-7.413,2.403-14.585,4.568-21.595,11.19-1.106,21.591-3.574,32.384-6.598Z"/>
  <path class="st7" d="M171.323,813.702c11.349,14.368,23.596,28.299,36.413,41.451-5.872.237-11.843.427-17.71.004-9.284-12.474-22.192-22.389-32.583-33.965,4.781-2.294,9.385-4.663,13.88-7.49Z"/>
  <path class="st8" d="M439.351,599.211c7.66,13.076.151,43.594-13.475,50.834-9.331-15.291,3.631-38.558,13.475-50.834Z"/>
  <path class="st4" d="M434.329,621.492c.829.066,1.46.257,2.238.547,1.434,2.914-.96,8.9-1.728,12.004-.98-.064-1.64-.097-2.504-.586-1.745-3.667-.459-8.925,1.994-11.965Z"/>
  <path class="st3" d="M530.034,563.885c4.386-17.341,15.215-37.675,34.913-39.731,1.224.373,2.91.721,3.629,1.888,1.524,2.614-1.941,4.061-4,4.6-5.726,1.665-10.838,4.485-16.11,7.208,4.247-.125,8.501-.471,12.742-.734-5.404,13.417-20.764,17.97-31.174,26.769Z"/>
  <path class="st3" d="M539.787,631.633c.523.097,1.083.353,1.586.532,4.268,12.956-8.948,30.106-16.23,40.165l-.633-.163c-4.774-17.013,5.81-27.986,15.277-40.534Z"/>
  <path class="st3" d="M540.69,605.419c6.431,13.192-9.087,28.891-16.527,38.398-5.575-14.66,5.454-29.698,16.527-38.398Z"/>
  <path class="st3" d="M544.692,581.105c4.742,10.757-17.202,28.809-23.042,37.524l-.467-.464c-1.577-15.825,9.526-30.616,23.509-37.06Z"/>
  <path class="st3" d="M543.738,683.445c3.659,14.582-2.088,27.665-11.928,38.552-7.417-12.588,3.155-29.216,11.928-38.552Z"/>
  <path class="st3" d="M540.084,659.458c9.352,10.295-7.739,28.132-11.693,38.14-8.636-12.955,3.23-28.448,11.693-38.14Z"/>
  <path class="st3" d="M550.504,556.705c3.999,11.616-18.097,24.341-24.474,32.311-5.838-15.252,13.402-26.242,24.474-32.311Z"/>
  <path class="st3" d="M564.195,448c6.291,12.511-7.222,25.577-15.006,34.124-5.564-13.181,5.646-26.065,15.006-34.124Z"/>
  <path class="st3" d="M637.439,321.908c1.491-.16,2.882-.23,4.381-.168,2.741,1.405.403,4.394-1.113,5.881-8.879,9.125-20.46,7.473-32.055,8.409,6.407-10.152,17.483-13.111,28.787-14.122Z"/>
  <path class="st0" d="M798.657,685.059c8.866-.785,16.758,8.36,22.057,14.337-4.092-.537-8.038-1.247-12.047-2.227-7.751-2.67-18.605,1.363-24.596-4.743.948-4.952,10.618-6.244,14.586-7.367Z"/>
  <path class="st3" d="M553.81,731.832c5.493,8.792,3.601,24.741-3.412,32.275l-1.175-.254c-9.796-9.036-3.262-23.98,4.587-32.021Z"/>
  <path class="st3" d="M546.827,709.247c7.205,12.434-1.977,27.368-7.403,38.666-8.115-11.315,1.57-28.229,7.403-38.666Z"/>
  <path class="st3" d="M563.798,472.366c7.136,11.724-6.866,25.495-14.328,33.407-6.648-11.429,7.857-25.164,14.328-33.407Z"/>
  <path class="st3" d="M547.475,451.653c1.035-8.802,7.397-20.646,16.012-24.053,6.87,8.23-4.972,19.042-10.241,25.181-1.336,1.287-2.835,4.013-4.976,3.092-.885-1.342-.767-2.677-.795-4.22Z"/>
  <path class="st3" d="M564.307,496.8c6.736,12.056-7.565,24.318-17.369,29.315l-.892-.253c-1.07-8.383,13.079-22.9,18.261-29.062Z"/>
  <path class="st3" d="M646.545,304.089c3.867-.257,6.721.976,10.225,2.396-6.996,10.141-18.911,10.678-30.072,12.155,5.077-7.747,10.67-12.52,19.847-14.551Z"/>
  <path class="st3" d="M657.493,285.236c4.014.906,8.681,6.418,11.628,9.264-7.379,6.379-16.908,6.154-26.078,7.368,3.782-6.579,8.645-11.802,14.45-16.632Z"/>
  <path class="st3" d="M617.295,340.646c2.254-.087,5.022.298,5.91,2.691-4.556,8.843-19.603,10.151-28.472,9.315,3.803-9.321,13.284-12.24,22.562-12.006Z"/>
  <path class="st3" d="M700.266,244.81c4.069.335,7.932,1.732,12.01,2.14.754-.631,1.515-1.236,2.302-1.825l.961.248c4.169,5.096-6.92,8.798-10.328,10.659-5.025,2.032-13.053-1.861-18.168-3.44,4.05-3.434,8.447-5.558,13.223-7.782Z"/>
  <path class="st3" d="M561.462,408.756c13.401-.271-8.044,21.747-12.388,22.822-2.96-3.548.522-12.533,1.542-16.513,3.268-2.699,7.01-4.568,10.846-6.309Z"/>
  <path class="st3" d="M733.66,217.919c4.039.024,5.22,3.816,2.278,6.429-2.217,3.925-20.636,8.168-22.456,3.963,2.12-5.863,14.866-8.918,20.178-10.392Z"/>
  <path class="st3" d="M715.443,233.378c4.768-.475,9.967.204,14.767.403-6.112,10.902-19.493,6.438-29.657,6.99,4.537-5.127,8.133-6.797,14.89-7.393Z"/>
  <path class="st7" d="M29.084,699.31c3.591-.808,8.453,4.347,7.378,7.855-2.81,2.512-6.097,1.247-9.44,2.293-1.643.614-3.283,2.073-5.168,1.77-6.8-2.795,3.908-10.398,7.229-11.918Z"/>
  <path class="st3" d="M562.155,755.103c2.801,2.289,4.883,5.323,6.929,8.268-1.459,1.874-2.869,3.581-5.057,4.6l-7.979-1.057c2.246-3.883,4.235-7.734,6.107-11.811Z"/>
  <rect class="st7" x="962.321" y="403.675" width="23.461" height="451.219" rx="2.494" ry="2.494"/>
  <rect class="st7" x="-90.731" y="402.675" width="91.731" height="451.219"/>
  <g>
    <path class="st1" d="M549.924,320.302l5.971-6.238c1.062-1.109,2.191-1.982,3.386-2.617,1.194-.634,2.421-.888,3.681-.762,1.26.126,2.52.792,3.779,1.997.696.666,1.192,1.491,1.489,2.474.297.983.392,1.987.285,3.01-.108,1.025-.403,1.956-.888,2.794l13.952,2.687-3.711,3.877-12.931-2.709-1.308,1.367,8.102,7.755-3.259,3.405-16.676-15.961-1.873-1.078ZM556.024,318.904l5.169,4.948,1.522-1.59c.619-.647,1.095-1.301,1.429-1.966.334-.664.445-1.336.333-2.014-.112-.679-.516-1.351-1.212-2.017-.547-.523-1.129-.827-1.747-.91-.618-.083-1.224.003-1.819.259-.595.257-1.138.642-1.629,1.155l-2.046,2.138Z"/>
    <path class="st1" d="M574.564,305.554c1.095-1.144,2.243-1.846,3.446-2.108,1.202-.261,2.368-.193,3.496.204,1.128.397,2.139,1.024,3.034,1.88.265.254.527.536.785.847.258.311.488.642.691.994l-7.232,7.556c1.326,1.269,2.642,1.925,3.949,1.969,1.307.045,2.443-.438,3.411-1.449.46-.48.873-1.077,1.238-1.791.365-.713.659-1.535.883-2.465l2.451.822c-.092.992-.438,2.017-1.039,3.076-.602,1.06-1.227,1.929-1.878,2.608-.92.961-1.897,1.684-2.933,2.169s-2.093.727-3.172.727c-1.079,0-2.142-.233-3.19-.697-1.049-.463-2.053-1.155-3.014-2.075-.878-.84-1.583-1.77-2.117-2.789-.533-1.017-.865-2.081-.995-3.19-.13-1.108-.02-2.201.33-3.28.35-1.078.968-2.081,1.856-3.009ZM576.483,307.628c-.523.547-.814,1.149-.873,1.807-.058.658.041,1.301.298,1.927s.585,1.163.984,1.609l4.401-4.598c-.401-.543-.885-.958-1.451-1.246-.566-.287-1.148-.4-1.747-.339-.599.062-1.136.342-1.612.839Z"/>
    <path class="st1" d="M585.745,293.922c.555-.58,1.216-1.146,1.982-1.698s1.528-.958,2.285-1.218l1.089,3.042c-.582.078-1.159.265-1.728.561-.569.296-1.06.66-1.472,1.091-.397.414-.666.895-.808,1.441-.142.547.027,1.05.507,1.51.282.27.586.425.911.466.325.042.673.002,1.043-.12.371-.122.765-.269,1.183-.44.53-.255,1.091-.51,1.686-.767.595-.256,1.207-.448,1.837-.575.63-.128,1.276-.097,1.937.091.661.189,1.331.608,2.011,1.258.878.841,1.41,1.794,1.596,2.86.186,1.067.091,2.127-.283,3.181-.375,1.055-.958,1.996-1.751,2.825-.634.663-1.411,1.276-2.332,1.839s-1.815.985-2.685,1.263l-1.015-3.019c.661-.193,1.317-.422,1.968-.688.651-.265,1.222-.655,1.714-1.169.476-.497.764-1.055.864-1.673s-.123-1.19-.67-1.713c-.364-.349-.75-.535-1.156-.559s-.842.043-1.309.199c-.467.156-.95.362-1.447.616-.691.323-1.393.618-2.11.885-.715.267-1.456.352-2.221.256-.765-.097-1.536-.518-2.315-1.264-.878-.84-1.377-1.771-1.496-2.79s.029-2.028.445-3.027c.416-.998.997-1.887,1.742-2.666Z"/>
    <path class="st1" d="M590.419,280.68c.514.492.786,1.103.819,1.831.032.73-.206,1.359-.713,1.889-.492.514-1.11.779-1.856.795-.746.017-1.375-.221-1.889-.713-.53-.507-.795-1.126-.795-1.856,0-.729.246-1.351.738-1.865.508-.53,1.118-.803,1.831-.819.713-.015,1.335.231,1.865.738ZM594.513,285.408l12.352,11.822-2.854,2.982-11.01-10.538-1.604-1.011,3.116-3.256Z"/>
    <path class="st1" d="M601.468,277.494c.555-.58,1.216-1.146,1.982-1.698s1.528-.958,2.285-1.218l1.089,3.042c-.582.078-1.159.265-1.728.561-.569.296-1.06.66-1.472,1.091-.397.414-.666.894-.808,1.441s.028,1.049.508,1.509c.282.27.585.426.91.467.326.042.674.001,1.044-.12s.765-.268,1.182-.439c.53-.255,1.092-.51,1.687-.767.595-.256,1.207-.447,1.837-.575.63-.127,1.275-.096,1.936.091.661.189,1.331.608,2.011,1.258.878.841,1.41,1.794,1.596,2.86.186,1.067.091,2.127-.283,3.181-.375,1.054-.958,1.996-1.751,2.824-.634.663-1.412,1.276-2.332,1.839-.921.564-1.815.985-2.685,1.263l-1.015-3.019c.661-.193,1.317-.422,1.968-.687s1.223-.656,1.714-1.169c.476-.497.764-1.055.864-1.673s-.124-1.189-.671-1.713c-.364-.349-.75-.535-1.156-.559-.406-.023-.843.044-1.31.199-.467.156-.949.362-1.446.616-.691.323-1.394.619-2.11.886-.715.267-1.456.352-2.22.255-.765-.097-1.536-.518-2.315-1.264-.878-.84-1.377-1.77-1.497-2.789-.119-1.02.029-2.028.445-3.027.417-.999.997-1.887,1.742-2.666Z"/>
    <path class="st1" d="M608.392,263.693c.469.671.97,1.342,1.504,2.011.533.67,1.091,1.299,1.671,1.885l2.878-3.007,1.511,2.351-2.426,2.535,6.835,6.542c.182.174.422.373.718.592.297.221.616.351.958.393.341.041.67-.104.988-.435.269-.281.507-.579.71-.891.204-.313.4-.634.588-.962l2.197,1.436c-.28.558-.624,1.158-1.031,1.799-.408.641-.826,1.186-1.254,1.633-1.015,1.06-2.013,1.606-2.993,1.635-.981.03-2.018-.479-3.112-1.526l-7.506-7.184-1.951,2.038-1.64-1.57c.476-.529.775-1.1.9-1.711.124-.611.122-1.239-.005-1.886-.127-.646-.336-1.274-.625-1.884s-.602-1.17-.938-1.682l2.022-2.113Z"/>
    <path class="st1" d="M620.546,257.611c1.268-1.325,2.583-2.027,3.944-2.106,1.361-.079,2.712.524,4.054,1.809l5.443,5.21c.481.46.875.695,1.183.704s.574-.102.795-.334c.159-.166.297-.343.414-.532.117-.189.222-.398.315-.628l2.142,1.145c-.15.555-.385,1.124-.705,1.707s-.662,1.065-1.027,1.446c-.571.596-1.155.958-1.752,1.084-.597.127-1.274-.028-2.03-.466.202,1.082.134,2.057-.204,2.924s-.88,1.69-1.625,2.469c-.92.961-1.986,1.52-3.199,1.676-1.213.156-2.325-.249-3.336-1.217-.895-.856-1.425-1.77-1.593-2.739-.167-.97-.079-1.94.265-2.913.343-.972.834-1.908,1.471-2.806.637-.897,1.297-1.703,1.979-2.416l-1.615-1.546c-.447-.428-.854-.699-1.222-.813-.368-.114-.732-.089-1.094.073-.361.162-.741.45-1.137.864-.539.563-.921,1.278-1.146,2.142-.224.865-.377,1.671-.458,2.419l-3.129-.661c.2-1.237.58-2.405,1.14-3.504.56-1.099,1.268-2.096,2.125-2.991ZM629.12,263.579c-.333.348-.682.745-1.044,1.191-.363.446-.661.923-.894,1.431-.232.508-.33,1.009-.295,1.502.035.494.285.963.748,1.407.381.365.822.493,1.323.385.5-.108.917-.336,1.25-.684.444-.464.688-.984.732-1.561.045-.576-.053-1.146-.292-1.709-.239-.562-.558-1.034-.956-1.414l-.572-.547Z"/>
    <path class="st1" d="M630.3,247.47c.359.122.707.281,1.044.476.337.196.654.404.951.624.028-.925.198-1.882.509-2.87.311-.988.791-1.821,1.442-2.501.919-.96,1.816-1.532,2.688-1.714.872-.181,1.738-.066,2.599.345.86.412,1.722,1.029,2.583,1.854l8.35,7.992-2.878,3.007-8.052-7.707c-.381-.365-.773-.685-1.177-.96-.404-.275-.824-.408-1.262-.398-.439.01-.887.255-1.347.735-.238.248-.453.623-.645,1.121-.192.5-.339,1.009-.441,1.53-.102.522-.141.969-.117,1.341l8.972,8.587-2.854,2.982-8.848-8.468c-.298-.285-.686-.617-1.165-.996-.479-.378-.989-.716-1.53-1.013-.542-.296-1.024-.456-1.446-.479l2.624-3.488Z"/>
    <path class="st1" d="M645.973,230.995c.586-.613,1.321-1.164,2.202-1.654.881-.489,1.743-.809,2.583-.957l.461,3.299c-.679.112-1.288.275-1.826.49-.539.215-1.062.587-1.57,1.117s-.795,1.113-.862,1.746c-.067.635.02,1.273.261,1.916.241.644.563,1.253.965,1.828s.818,1.069,1.249,1.481c1.409,1.348,2.779,2.105,4.113,2.27,1.334.166,2.492-.265,3.476-1.293.412-.431.762-.937,1.049-1.519.287-.582.527-1.273.721-2.072l2.527.942c-.285,1.061-.614,1.985-.986,2.771s-.947,1.586-1.724,2.398c-1.253,1.309-2.585,2.144-3.996,2.509-1.411.363-2.828.309-4.249-.163-1.422-.472-2.762-1.309-4.022-2.515-1.292-1.237-2.169-2.585-2.631-4.043-.462-1.458-.51-2.924-.145-4.401.365-1.476,1.166-2.86,2.403-4.153Z"/>
    <path class="st1" d="M656.224,220.236c1.094-1.143,2.242-1.845,3.445-2.107,1.203-.261,2.368-.193,3.497.203,1.128.397,2.139,1.024,3.033,1.88.265.254.527.536.785.847.259.311.489.642.691.994l-7.231,7.555c1.326,1.269,2.642,1.926,3.948,1.97,1.307.044,2.444-.439,3.411-1.449.46-.48.873-1.077,1.238-1.791.365-.713.66-1.535.883-2.465l2.451.822c-.092.992-.438,2.017-1.039,3.076s-1.227,1.929-1.877,2.608c-.92.961-1.897,1.684-2.933,2.169-1.036.485-2.093.728-3.172.727-1.079,0-2.142-.232-3.19-.696-1.049-.463-2.053-1.156-3.014-2.075-.878-.84-1.584-1.769-2.117-2.788-.533-1.017-.865-2.081-.995-3.19-.13-1.108-.02-2.201.33-3.28.349-1.077.968-2.081,1.856-3.009ZM658.143,222.31c-.523.547-.814,1.149-.873,1.807-.058.658.041,1.301.298,1.928s.585,1.163.984,1.609l4.4-4.597c-.401-.543-.884-.958-1.451-1.246-.566-.288-1.148-.4-1.747-.339-.599.062-1.136.341-1.612.838Z"/>
  </g>
  <g>
    <path class="st1" d="M248.769,678.545l6.006,17.557c.252.784.476,1.575.672,2.373.195.798.378,1.603.546,2.415.224-.98.469-1.946.735-2.898.266-.951.567-1.903.903-2.855l5.67-16.591h4.662l-10.626,30.786h-4.116l-10.584-30.786h6.132Z"/>
    <path class="st1" d="M276.363,709.751c-2.1,0-3.899-.482-5.397-1.448-1.498-.967-2.646-2.269-3.444-3.906s-1.197-3.465-1.197-5.481c0-1.512.238-2.933.714-4.263.476-1.33,1.168-2.506,2.079-3.528.91-1.021,1.995-1.827,3.255-2.415,1.26-.588,2.673-.882,4.242-.882,2.128,0,3.934.483,5.418,1.449,1.484.966,2.625,2.268,3.423,3.906.798,1.638,1.197,3.465,1.197,5.48,0,1.513-.238,2.934-.714,4.264-.477,1.33-1.162,2.506-2.058,3.527-.896,1.022-1.974,1.827-3.234,2.415-1.26.588-2.688.882-4.284.882ZM276.405,706.392c.98,0,1.778-.245,2.394-.735.616-.489,1.092-1.119,1.428-1.89s.567-1.597.693-2.479.189-1.701.189-2.457c0-.783-.049-1.617-.147-2.499-.099-.882-.301-1.707-.609-2.478-.309-.77-.763-1.393-1.365-1.869-.603-.476-1.407-.714-2.415-.714-.952,0-1.736.252-2.352.756-.616.504-1.092,1.148-1.428,1.932-.336.784-.574,1.61-.714,2.479-.141.868-.21,1.666-.21,2.394,0,.756.056,1.568.168,2.437.111.868.321,1.694.63,2.478.308.784.763,1.422,1.365,1.911.602.49,1.393.735,2.373.735Z"/>
    <path class="st1" d="M295.515,676.949v32.298h-5.124v-30.029l-.462-2.269h5.586Z"/>
    <path class="st1" d="M307.695,682.283c-.196.98-.364,1.988-.504,3.024s-.224,2.058-.252,3.065h5.082l-.798,3.318h-4.284v11.55c0,.309.028.687.084,1.134.056.448.21.84.462,1.177.252.336.657.504,1.218.504.476,0,.938-.042,1.386-.126s.896-.183,1.344-.294l.588,3.149c-.729.225-1.547.428-2.457.609-.91.182-1.743.272-2.499.272-1.792,0-3.115-.42-3.969-1.26-.854-.84-1.281-2.184-1.281-4.032v-12.684h-3.444v-2.772c.868-.027,1.624-.244,2.268-.65.644-.406,1.197-.938,1.659-1.597.462-.657.84-1.371,1.134-2.142.294-.77.525-1.519.693-2.247h3.57Z"/>
    <path class="st1" d="M323.318,687.869c2.24,0,3.969.567,5.187,1.701,1.218,1.134,1.827,2.835,1.827,5.103v9.198c0,.812.126,1.358.378,1.639.252.279.574.42.966.42.28,0,.553-.028.819-.084.266-.057.539-.141.819-.252l.798,2.855c-.616.336-1.316.609-2.1.819-.784.21-1.498.314-2.142.314-1.008,0-1.821-.21-2.436-.63-.616-.42-1.05-1.147-1.302-2.184-.784,1.092-1.701,1.855-2.751,2.289s-2.233.65-3.549.65c-1.625,0-3.018-.468-4.179-1.406-1.162-.938-1.743-2.261-1.743-3.97,0-1.512.357-2.751,1.071-3.717s1.645-1.707,2.793-2.226c1.148-.519,2.387-.875,3.717-1.071,1.33-.195,2.597-.294,3.801-.294v-2.73c0-.756-.105-1.344-.315-1.764s-.54-.721-.987-.903c-.448-.182-1.022-.272-1.722-.272-.952,0-1.905.267-2.856.798-.953.532-1.792,1.078-2.52,1.638l-2.058-3.317c1.26-.868,2.61-1.519,4.053-1.953,1.442-.434,2.919-.651,4.431-.651ZM325.292,700.47c-.588,0-1.232.027-1.932.084-.7.056-1.372.196-2.016.42s-1.169.561-1.575,1.008c-.406.448-.609,1.064-.609,1.848,0,.645.259,1.142.777,1.491.518.351,1.071.525,1.659.525.784,0,1.449-.225,1.995-.673.546-.447.966-1.014,1.26-1.7s.441-1.365.441-2.037v-.966Z"/>
    <path class="st1" d="M343.393,687.743c.896,0,1.68.105,2.352.315.672.21,1.386.314,2.142.314,1.232,0,2.485-.048,3.759-.146,1.273-.098,2.513-.203,3.717-.315l-.924,3.486h-3.57c-.14,0-.301-.027-.483-.084-.182-.056-.343-.098-.483-.126.448.561.784,1.141,1.008,1.743s.336,1.267.336,1.995c0,1.456-.371,2.729-1.113,3.821-.742,1.092-1.729,1.939-2.961,2.541-1.232.603-2.562.903-3.99.903-.504,0-.959.175-1.365.525-.406.35-.609.805-.609,1.364,0,.393.174.687.525.882.35.196.791.322,1.323.379.532.056,1.064.084,1.596.084h1.932c.867,0,1.743.042,2.625.126.882.084,1.694.279,2.436.588.741.308,1.336.784,1.785,1.428.448.645.672,1.526.672,2.646,0,1.513-.351,2.814-1.05,3.906-.7,1.092-1.61,1.995-2.73,2.709-1.12.714-2.352,1.239-3.696,1.575-1.344.336-2.674.504-3.99.504-.84,0-1.743-.07-2.709-.21-.966-.141-1.883-.399-2.751-.777-.868-.378-1.575-.91-2.121-1.596-.546-.687-.819-1.575-.819-2.667,0-1.232.371-2.324,1.113-3.276.742-.952,1.603-1.651,2.583-2.1v-.168c-.476-.14-.917-.489-1.323-1.05-.406-.56-.609-1.162-.609-1.807,0-.279.153-.56.462-.84.308-.279.707-.672,1.197-1.176.49-.504,1.001-1.203,1.533-2.1-1.148-.645-2.058-1.491-2.73-2.541s-1.008-2.261-1.008-3.633c0-1.456.364-2.724,1.092-3.802.728-1.077,1.701-1.917,2.919-2.52,1.218-.602,2.526-.903,3.927-.903ZM341.419,709.247c-.561.308-1.043.791-1.449,1.449-.406.657-.609,1.323-.609,1.995,0,.644.216,1.161.651,1.554.434.392.952.665,1.554.819.602.153,1.168.23,1.701.23.644,0,1.323-.056,2.037-.168s1.372-.308,1.974-.588c.602-.28,1.092-.679,1.47-1.196.378-.519.567-1.184.567-1.995,0-.672-.231-1.155-.693-1.449-.462-.294-1.015-.477-1.659-.546-.645-.07-1.218-.105-1.722-.105h-3.822ZM343.351,690.894c-.56,0-1.036.188-1.428.566-.393.378-.693.883-.903,1.513s-.315,1.337-.315,2.121c0,.756.105,1.448.315,2.078.21.631.51,1.135.903,1.513.392.378.868.566,1.428.566.84,0,1.498-.405,1.974-1.218.476-.812.714-1.791.714-2.939,0-.784-.105-1.491-.315-2.121s-.518-1.135-.924-1.513c-.406-.378-.889-.566-1.449-.566Z"/>
    <path class="st1" d="M365.401,687.785c1.932,0,3.521.42,4.767,1.26,1.246.841,2.169,1.926,2.772,3.256.602,1.33.903,2.751.903,4.263,0,.448-.028.917-.084,1.407s-.154.973-.294,1.448h-12.768c0,2.241.532,3.956,1.596,5.146,1.064,1.19,2.45,1.785,4.158,1.785.812,0,1.687-.14,2.625-.42.938-.28,1.911-.715,2.919-1.303l1.344,2.856c-.952.756-2.149,1.316-3.591,1.68-1.442.364-2.737.546-3.885.546-1.624,0-3.087-.252-4.389-.756-1.302-.504-2.409-1.231-3.318-2.184-.91-.952-1.603-2.086-2.079-3.402-.477-1.315-.714-2.786-.714-4.41,0-1.483.224-2.891.672-4.221.447-1.329,1.105-2.52,1.974-3.57.868-1.05,1.925-1.875,3.171-2.478,1.246-.602,2.652-.903,4.221-.903ZM365.191,691.229c-.924,0-1.701.252-2.331.756-.63.504-1.113,1.134-1.449,1.89s-.532,1.498-.588,2.227h7.77c.14-.812.098-1.589-.126-2.331s-.616-1.351-1.176-1.827c-.561-.476-1.26-.714-2.1-.714Z"/>
  </g>
  <g>
    <path class="st1" d="M642.238,659.962c-2.436,0-4.571-.398-6.405-1.196-1.834-.799-3.367-1.925-4.599-3.382-1.232-1.455-2.156-3.163-2.771-5.124-.616-1.959-.925-4.087-.925-6.384,0-2.239.336-4.312,1.009-6.216.672-1.903,1.645-3.57,2.919-4.998,1.273-1.428,2.82-2.541,4.641-3.339,1.819-.798,3.878-1.197,6.174-1.197,1.008,0,2.135.105,3.381.315s2.457.532,3.634.966c1.176.435,2.155,1.001,2.939,1.701l-3.023,3.864c-.505-.589-1.135-1.093-1.891-1.513s-1.554-.734-2.394-.944-1.652-.315-2.437-.315c-1.624,0-2.996.329-4.116.987s-2.016,1.547-2.688,2.667-1.155,2.359-1.449,3.717c-.294,1.358-.44,2.751-.44,4.179,0,2.521.356,4.684,1.07,6.489s1.743,3.192,3.087,4.158c1.345.966,2.954,1.449,4.83,1.449,1.177,0,2.422-.161,3.738-.483,1.315-.321,2.702-.861,4.158-1.617l1.722,3.108c-.812.532-1.61.994-2.394,1.386-.784.393-1.583.714-2.395.966-.812.252-1.659.441-2.541.567s-1.827.188-2.835.188Z"/>
    <path class="st1" d="M660.802,638.584v13.23c0,.645.056,1.288.168,1.932.112.645.364,1.184.756,1.617.393.435.994.651,1.807.651.783,0,1.512-.168,2.184-.505.672-.336,1.218-.812,1.639-1.428.42-.615.63-1.329.63-2.142v-11.088c0-.028-.042-.217-.126-.567-.084-.35-.162-.707-.231-1.071-.07-.363-.119-.573-.146-.63h5.628v15.456c0,.784.118,1.33.356,1.639.237.308.581.462,1.029.462.392,0,.924-.112,1.596-.336l.798,2.855c-.588.28-1.267.539-2.037.777-.77.237-1.532.356-2.289.356-.868,0-1.652-.21-2.352-.63-.7-.42-1.162-1.147-1.386-2.184-.896.924-1.939,1.666-3.129,2.226-1.19.56-2.443.84-3.76.84-1.596,0-2.849-.308-3.759-.924-.91-.615-1.554-1.477-1.932-2.583-.378-1.105-.567-2.387-.567-3.843v-11.844l-.462-2.269h5.586Z"/>
    <path class="st1" d="M682.979,638.164c.615,1.4.951,2.871,1.008,4.41.699-1.176,1.68-2.205,2.939-3.087,1.261-.882,2.59-1.323,3.99-1.323l-.84,4.998c-1.232,0-2.331.315-3.297.945s-1.884,1.604-2.751,2.919v12.432h-5.04v-15.246c0-.531-.042-1.154-.126-1.869-.084-.714-.225-1.406-.42-2.078-.196-.673-.462-1.232-.798-1.681l5.334-.42Z"/>
    <path class="st1" d="M697.636,638.164c.615,1.4.951,2.871,1.008,4.41.7-1.176,1.681-2.205,2.94-3.087s2.59-1.323,3.99-1.323l-.841,4.998c-1.232,0-2.331.315-3.297.945s-1.883,1.604-2.751,2.919v12.432h-5.04v-15.246c0-.531-.042-1.154-.126-1.869-.084-.714-.225-1.406-.42-2.078-.196-.673-.462-1.232-.798-1.681l5.334-.42Z"/>
    <path class="st1" d="M716.158,637.996c1.932,0,3.521.42,4.767,1.26,1.246.841,2.17,1.926,2.772,3.256.602,1.33.902,2.751.902,4.263,0,.448-.027.917-.084,1.407-.056.49-.153.973-.294,1.448h-12.768c0,2.241.531,3.956,1.596,5.146,1.064,1.19,2.45,1.785,4.158,1.785.812,0,1.687-.14,2.625-.42.938-.28,1.911-.715,2.919-1.303l1.344,2.856c-.952.756-2.148,1.316-3.591,1.68-1.442.364-2.737.546-3.885.546-1.624,0-3.087-.252-4.389-.756-1.303-.504-2.409-1.231-3.318-2.184-.91-.952-1.604-2.086-2.079-3.402-.477-1.315-.714-2.786-.714-4.41,0-1.483.224-2.891.672-4.221.447-1.329,1.105-2.52,1.974-3.57.868-1.05,1.925-1.875,3.172-2.478,1.245-.602,2.652-.903,4.221-.903ZM715.948,641.44c-.924,0-1.701.252-2.331.756s-1.113,1.134-1.449,1.89-.532,1.498-.588,2.227h7.77c.141-.812.099-1.589-.126-2.331-.224-.742-.616-1.351-1.176-1.827-.561-.476-1.26-.714-2.1-.714Z"/>
    <path class="st1" d="M732.874,638.122c.195.42.35.861.462,1.323.111.462.195.917.252,1.365.84-.756,1.827-1.414,2.961-1.975,1.134-.56,2.274-.84,3.423-.84,1.623,0,2.884.309,3.78.924.896.616,1.525,1.478,1.89,2.583.363,1.106.546,2.388.546,3.844v14.111h-5.082v-13.607c0-.645-.049-1.261-.146-1.849-.099-.588-.336-1.07-.714-1.448s-.974-.567-1.785-.567c-.42,0-.932.126-1.533.378-.603.252-1.176.553-1.722.903-.547.351-.974.692-1.281,1.028v15.162h-5.04v-14.952c0-.504-.035-1.126-.105-1.868s-.203-1.477-.398-2.205c-.196-.729-.462-1.288-.798-1.681l5.292-.63Z"/>
    <path class="st1" d="M758.157,632.494c-.196.98-.364,1.988-.504,3.024-.141,1.036-.225,2.058-.252,3.065h5.082l-.798,3.318h-4.284v11.55c0,.309.027.687.084,1.134.056.448.21.84.462,1.177.252.336.657.504,1.218.504.476,0,.938-.042,1.386-.126.448-.084.896-.183,1.345-.294l.588,3.149c-.729.225-1.548.428-2.457.609-.91.182-1.743.272-2.499.272-1.792,0-3.115-.42-3.969-1.26-.854-.84-1.281-2.184-1.281-4.032v-12.684h-3.444v-2.772c.868-.027,1.624-.244,2.269-.65.644-.406,1.196-.938,1.659-1.597.462-.657.84-1.371,1.134-2.142.294-.77.524-1.519.692-2.247h3.57Z"/>
  </g>
</svg>