<?xml version="1.0" encoding="UTF-8"?>
<svg id="Layer_1" xmlns="http://www.w3.org/2000/svg" width="12.642in" height="18.149in" version="1.1" viewBox="0 0 910.2 1306.7">
  <!-- Generator: Adobe Illustrator 29.4.0, SVG Export Plug-In . SVG Version: 2.1.0 Build 152)  -->
  <defs>
    <style>
      .st0 {
        fill: #ab6e3e;
      }

      .st1 {
        fill: #fef4ea;
      }

      .st2 {
        fill: #db8d4f;
      }

      .st3 {
        fill: #d60000;
      }

      .st4 {
        fill: #b25b02;
      }

      .st5 {
        fill: #342513;
      }

      .st6 {
        fill: #abd1d6;
      }

      .st7 {
        fill: #5aba47;
      }

      .st8 {
        fill: #1a373a;
      }

      .st9 {
        fill: #d5bc2a;
      }

      .st10 {
        fill: #388230;
      }

      .st11 {
        fill: #000100;
      }

      .st12 {
        fill: #554109;
      }

      .st13 {
        fill: #fad5ac;
      }

      .st14 {
        fill: #352a00;
      }
    </style>
  </defs>
  <g>
    <g>
      <g>
        <path class="st9" d="M316.4,176.8c-1.1-7.1-3.7-14.2-5.1-21.4-3.8-19.9-4.4-42.1-.9-62.2,1.4-7.6,3.5-15,5.2-22.4,2.8-7.8,12.3-34,17.4-36.2,1.7-.9,4,.1,5.4,1.6,1.1,1.2,2,2.6,2.3,4.7.2,1.7-.3,3.5-.9,4.9-1.5,3.8-3.7,7-5.4,10.5-3.1,6.2-5.8,13.1-8,20.1-5.9,18.3-8.4,37.5-6.9,57.6,1.4,18.3,6.3,38.1,13.6,53.2,2.1,4.5,5.5,8.3,7.3,12.8,1.1,2.6.8,4.2-.6,6.4-1.3,2-3,3.3-4.9,3.3-2.8-.1-5.1-3.1-6.8-6-4.4-7.4-8.9-18-11.7-27h0v.1Z"/>
        <path class="st9" d="M360.2,69.3c1.4,1.9,3.5,3.9,3.5,7s-2.5,8.7-3.9,12.2c-5.8,14.2-8.3,28.1-6.5,44.6.7,5.8,1.9,11.6,3.9,16.7,2.1,5.2,6.5,11.3,7.2,17.3.3,2.5-.4,4.2-1.7,5.7-1.7,1.7-3.5,2.2-5.5,2.2-7.4-6.4-11.6-21.5-13.6-33.1-.2-1.3-.4-2.6-.6-3.9-.1-1.5-.3-2.8-.4-4.1,0-1.3-.3-2.8-.3-4.1-.2-1.3-.2-2.8-.2-4.1v-4.1c0-1.3.1-2.8.1-4.1s.2-2.8.3-4.1c.1-1.5.2-2.8.4-4.1.1-1.3.3-2.6.5-3.9s.5-2.6.7-3.9.5-2.6.8-3.9c.3-1.2.6-2.5.9-3.8.4-1.3.7-2.5,1.1-3.8.4-1.2.8-2.5,1.2-3.6.4-1.3.8-2.5,1.3-3.6.4-1.2.9-2.3,1.4-3.5,1.5-3.6,4.4-9,7.4-9.9.9-.3,1-.3,1.9-.3h.1v.2Z"/>
        <path class="st9" d="M514.9,176.7c-2.8,9-7.3,19.6-11.7,27-1.7,2.9-4,5.8-6.8,6-1.9,0-3.6-1.3-4.9-3.3-1.4-2.2-1.7-3.8-.6-6.4,1.8-4.5,5.2-8.3,7.3-12.8,7.3-15.1,12.2-34.9,13.6-53.2,1.5-20.1-1-39.2-6.9-57.6-2.2-7-4.9-13.8-8-20.1-1.7-3.5-3.9-6.7-5.4-10.5-.6-1.5-1.1-3.2-.9-4.9.3-2,1.2-3.5,2.3-4.7,1.4-1.5,3.7-2.5,5.4-1.6,5.1,2.2,14.6,28.3,17.4,36.2,1.7,7.4,3.8,14.8,5.2,22.4,3.5,20.1,2.9,42.3-.9,62.2-1.4,7.1-4,14.2-5.1,21.4h0v-.1Z"/>
        <path class="st9" d="M471.2,69.1c.9,0,1,0,1.9.3,3,.9,5.9,6.2,7.4,9.9.5,1.2,1,2.3,1.4,3.5.5,1.2.9,2.3,1.3,3.6.4,1.2.8,2.5,1.2,3.6.4,1.3.7,2.5,1.1,3.8.3,1.3.6,2.6.9,3.8.3,1.3.6,2.6.8,3.9.2,1.3.5,2.6.7,3.9s.4,2.6.5,3.9c.2,1.3.3,2.6.4,4.1.1,1.3.2,2.8.3,4.1,0,1.3.1,2.8.1,4.1v4.1c0,1.3,0,2.8-.2,4.1,0,1.3-.2,2.8-.3,4.1-.1,1.3-.3,2.6-.4,4.1-.2,1.3-.4,2.6-.6,3.9-2,11.6-6.2,26.7-13.6,33.1-2,0-3.8-.4-5.5-2.2-1.3-1.5-2-3.2-1.7-5.7.7-6,5.1-12.1,7.2-17.3,2-5.1,3.2-10.9,3.9-16.7,1.8-16.6-.7-30.4-6.5-44.6-1.4-3.5-3.9-8.1-3.9-12.2s2.1-5.1,3.5-7h.1v-.2Z"/>
      </g>
      <path class="st14" d="M425.3,223.6c8.6,5.4,10,36.7,10.3,46,14.7,2.1,13.4,16.7,14.4,27.7,7.3,11.2,7.5,37.4,2.6,49.5,3.7,8.4,3.6,15.4,3.5,24.4,20.8,1.7,17.8,26.5,22.9,41.3,9.6,24.6,23,47.7,25.9,74.4,18.3-39.1,22.7-85.6,66.8-105.6-33.9-30.3-67.4-75.8-61.3-123.6,1.9-10.3,6.7-20.8,6-31.3-5.7-33.8-13-65.8-4.6-99.9-5,4.8-17.6,29.5-24.8,25.4-6.7-21.4-.8-49.8,9-69.8-7.1,2.3-29.2,19.7-34.3,15.1,2.7-29.8,26.4-55.1,55.2-62.3-6.7-8-16-20-13.1-30.8,6.6-2.1,33,7,42.6,7.5,74.1-3.7,150.4-19.3,210.3,38.3-.5-5.9-1.8-26.4.9-30.7,18.4-.2,29.9,22.8,32.9,38.5,10.5-4.6,21.5-6.4,32.4-2.1,4.6,2.1,17.4,7.7,14,14.1-1.9,2.2-23.2,9.4-28.2,12.2,31.8,13.6,45.1,64.3,25.5,47.4,10.4,26.1,10.6,59.8-6.3,83.4,15.1,42.4-10.5,106.4-63.4,92.9-3.3,4.5-14.4,17.5-14.6,22.4,5.4,6.6,18.4,2.2,26.4,3,110.8-6.2,113.9,131.7,113,212.3,3.8,64.4-6.2,101.3-77.7,108-.2,10.8.1,21.8-.5,32.6-77.5,34.8-177.5,36.2-255.6,2.1-4.6-8.2-1.4-19.6-2.1-28.8,0-12.1-.2-24.1-.7-36.1l-8.3-4.8c-13.5,12.7-32,22-50.8,16.8-31.8-11.6-57.4-26.2-73.9-56.5-17.3-.9-35.1-7.9-45.1-22.6-21.7-3.8-47.8-11.8-60-31.5-36.4,3.9-39.2-23.7-37.2-52.6-17.4-1.8-22.4-25.9-11.5-37.7-7.8-10.8-9.9-25.9-1.4-36.8-9.8-14-6.5-37.5,13.7-38,2.4-22.4-10.6-82.2,17.2-87.4-1-12.3-1.9-28.6,15-27.8,19.8-2.4,20.1,12.4,18.8,27.7,21.2.3,42.9,1.1,64-.1.3-7.5.5-12,5-18.4,0-10.5-.7-19.6,7.3-27.6-.5-58.2,1.1-116.4,1.3-174.6-.2-10.4-4.3-20.2-4.4-30.6-1.7-15.8,12.4-26,23.5-11.9-2.6,72.9-1.5,143.7-.5,216.9h-.1Z"/>
      <path class="st10" d="M801.4,687.3c-74.3,31.6-163.8,30.3-239.4,2.1-1.3-2-2-2.5-1.5-5,6.6-16.9,2.1-38.2,3.2-56.4,39.2,20.4,107.3,59.5,143.1,15.3,18.6,16.5,41.8-1.8,51.3-19.4,14.2,9.6,25.7,21,43.5,23.3l-.2,40.2v-.1Z"/>
      <path class="st2" d="M611.8,145.6c0-.9,0-1.6-.4-2.4l-1,.9h0c2.2-2.5-2.7-13-3.2-16.6-2.2-9.5-4.2-19.4-5.3-29.1,14,17.1,32.9,32.9,54.5,38.8-4.6-10.1-7.7-19.6-9.3-30.7,14.9,16.4,31.7,36.2,52.5,45.1,1.3-4.5,2.7-9,3.6-13.6,4.3,8.6,16.2,41.2,20.2,45.2,2.3-1.5,3.7-4.6,5.1-7,1.6,9.5,3.3,18.7,3.6,28.3,1.3,10.1-5.4,37.7,8.6,39.4,12.7-6.3,23.3-54.9,56.9-43.9,8.3,2.7,13.9,8.4,17.6,16.1,20.2,36.8-20.3,106.1-61.3,68.5-21.7,56.6-93.4,114.4-156.1,100.2-38.3-18.6-72.7-68.3-76.8-111-1.2-16,5.9-29.9,5.9-45.5,1-17.5-16.9-50,2.7-59.8,13.4-5.1,27.7,7.4,35.6,4.6,3.3-12-10.2-22-20.2-25.4-9.6-3.3-19.7.8-26,8.3.6-22.1,5.4-49,26.5-60.8,12.7,25.3,36.4,49.8,66.1,50.1l.2.3Z"/>
      <path class="st14" d="M676.7,287.6c1.8,3.2,5.4,9.6,3.4,13.2l-1,.3-6.9-4.4c-1.2,41.3-44.4,84-83.2,52.6-11.1-10-16.9-23.7-23.6-36.7-3.7-2.2-7.8-4.5-9.3-8.8l.4-1.6c36.5,9.5,72.9,3.5,106.1-14.4-1.9-1.7-4-3.3-5-5.8l.6-1.1c2-.6,3.5-.5,5.6-.3,4.5,1.2,10.2,2.5,12.8,6.8l.1.2Z"/>
      <path class="st1" d="M577.8,316c28.8,3.4,57.2-5.2,83.3-16.2-2.3,23.5-74,39.8-83.3,16.2Z"/>
      <path class="st4" d="M607.6,349.3c-3.3-.7-6.5-2.3-6.7-6,3.8-4.8,38.7-13.3,46.2-14.5-4,16.6-24.1,24.3-39.6,20.5h.1Z"/>
      <path class="st1" d="M647.7,247.5c-19,6.1-24.7-16.1-20.3-30.3-2.7-1.4-4-3.5-5.6-6l-1.1-.4c-4-23,20.6-36.3,37.7-20.5,12.4,10.2,18.6,33,6.4,45.2-3.1,6.8-9.7,11.4-17.2,12h.1Z"/>
      <path class="st14" d="M627.4,217.2c17.6-20.2,30,17.1,20.3,30.4-19,6.1-24.7-16.1-20.3-30.4Z"/>
      <path class="st14" d="M621.8,211.2l-1.1-.4c-4-23,20.6-36.3,37.7-20.5,12.4,10.2,18.6,33,6.4,45.2,11.5-29.5-31.8-64.7-43.1-24.3h.1Z"/>
      <path class="st14" d="M560.8,225.9c5.3,39.8-26.8,20.2-22.1-7-4.5-.4-6.4-3.3-6.8-7.6l-.9.4c-5.8-38.7,37.7-28.6,33.9,3.5-.7,2.9-1.3,9-4.1,10.6v.1Z"/>
      <path class="st14" d="M543.7,211.9c9-1.7,15.1,6,17.2,14,5.8,48.4-37.6,7.4-17.2-14Z"/>
      <path class="st1" d="M560.8,225.9c-2.1-8-8.2-15.7-17.2-14-3.1-3.1-1.7-12-1.7-16,12.3-2.7,20.4,8.8,23,19.4-.7,2.9-1.3,9-4.1,10.6Z"/>
      <path class="st1" d="M543.7,211.9c-2.1,2.2-3.9,4.1-4.9,7-12.5-2-4.6-19.3,3.2-23,0,4-1.4,12.9,1.7,16Z"/>
      <path class="st14" d="M681.5,178.6c-11.3-4.3-26.8-17.2-42.6-13-6.8,1.1-22.2,9-28,4.4-4.3-16.9,18.4-27.3,32.6-27.1,17.4,1.3,43.1,15.2,37.9,35.7h.1Z"/>
      <path class="st14" d="M559.9,272.4c8.5,16.5,34.9,5.8,43.4,10.8-.4,4.7-5.1,6.8-8.9,8.4-10.2,3.3-21.9,4.2-31.8-.8-10.4-5.2-20.6-18.4-13.3-30,4.7-8.8,14.8-13,19.5-21.5,3.3-6,2-18.2,4.6-21.9,19.8,41.5-22.1,36-13.5,54.9v.1Z"/>
      <path class="st14" d="M808.3,243.4c-5.7-14-17.4-20.9-27.3-5.8,14,7.4,11.6,29.7-2,36.2l-1-.5c3.7-9.8,7.2-21.8-2.6-29.5-3.9,3.9-6.6,10.6-10.6,13.9-1.2-17.1,12.4-41,31.7-39.1,10.4,3.8,12.5,15,11.9,24.9l-.1-.1Z"/>
      <path class="st14" d="M605.4,368.3v-1c11-.1,21.9,0,32.6-2.5-4.6,12-24,10-32.6,3.5Z"/>
      <path class="st9" d="M440.5,298.3c-15.8,2.7-7.2,77.7-7.9,90.8.4,6,4.3,10.7,8.2,14.9-1.1,140.2,19.7,106.5-126.3,109.3-16.5.4-28.4-4.2-27.7-22.8-.3-66.8-2-134.4,1.1-201.1.6-10.4,7.9-11.1,16.5-11,40.5,0,81.5-1.5,121.9-.6,14.2-.4,15.5,8.3,14.2,20.3v.2Z"/>
      <path class="st14" d="M416,296.4c3.7,12.4,6.6,52.1-6.6,61-15.4,4.9-32.5,1.1-48.4,1.4-14.4-2.3-57.7,5.7-63.4-7-3.8-6.9-3.4-43.7-.7-51.6,1.6-6.5,7.3-10.3,13.8-9.9,31.4-.2,63.2-1.2,94.6-.4,4.2,1.1,8.4,2.4,10.6,6.5h.1Z"/>
      <path class="st6" d="M408.7,320.8c0,7.8,1.8,20-3.9,26.3-8.7,7.8-34.9,1.6-47.4,3-12.9,0-36.6,1.1-48.4-1.2-7.7-3.4-4-42.3-1.8-47.3,14.1-4.3,30.5-.7,45.3-1.7,17.2-.2,34.7-1.2,51.9-.4,6.9,4.9,4,14,4.3,21.3h0Z"/>
      <path class="st14" d="M430.5,440.2c-.7,19.3,5,41.5-2.4,59.7l-.9-.2c-1.7-6.6-1.5-100.4.6-109.1,3.5,7.9,1.5,18.1,2,26.8,1.8,6.8.5,15.8.7,22.9v-.1Z"/>
      <path class="st11" d="M427.8,390.5c3.5,7.9,1.5,18.1,2,26.8-5.2-2.4-2.2-21.3-2-26.8Z"/>
      <path class="st14" d="M309.4,393.6c-12.5-6.2-6.9-20.6,6-20.6,14.8,4.6,7.5,22-6,20.6Z"/>
      <path class="st14" d="M392,393c-11.8-4.8-4.9-23.4,7.2-19.3,13.4,4.4,5.8,24.7-7.2,19.3Z"/>
      <path class="st14" d="M363.6,392.7c-11.5-6-3-23.6,8.8-18.5,12.7,5.6,3.6,24.9-8.8,18.5Z"/>
      <path class="st14" d="M337.7,393.1c-12.7-3.8-6.4-23.6,6.1-19.4,12.6,3.8,6.4,23.5-6.1,19.4Z"/>
      <path class="st14" d="M365.2,421.9c-11.9-4.7-7.6-21.5,5-20.4,12.3,4.4,8.3,22.7-5,20.4Z"/>
      <path class="st14" d="M310.7,421.2c-12.5-2.8-7.9-22.4,4.6-19.4,12.7,2.7,8,22.7-4.6,19.4Z"/>
      <path class="st14" d="M395.4,421.4c-13.3-.9-11.3-21.3,1.9-19.5,12.1,1.5,10.3,20.5-1.9,19.5Z"/>
      <path class="st14" d="M338.3,422.1c-11.6-2.7-9.6-21.1,2.5-20.6,12.4,3.6,10.8,20.6-2.5,20.6Z"/>
      <path class="st14" d="M398.1,452.7c-10.7-2.2-7.8-18.9,2.9-17.4,12.1,1.5,9,19.9-2.9,17.4Z"/>
      <path class="st14" d="M368.5,452.8c-11.4-1.5-8.6-19.4,2.7-17.5,11.3,1.6,8.6,19.3-2.7,17.5Z"/>
      <path class="st14" d="M339,452.7c-11.7-1.3-9.1-19.1,2.5-17,10.5,1.8,8.1,18.3-2.5,17Z"/>
      <path class="st14" d="M310.4,452.4c-11.6-.5-10.2-18.3,1.4-16.9,10.5,1.1,9.1,17.5-1.4,16.9Z"/>
      <path class="st14" d="M337.2,476.5c-10.4-3.8-4.4-19.6,5.9-15.5,9.8,4,4.1,19-5.9,15.5Z"/>
      <path class="st14" d="M399.3,477.4c-10.7-1-8.8-17.9,1.9-16.4,10.6,1.1,8.7,17.8-1.9,16.4Z"/>
      <path class="st14" d="M368,476.9c-10.2-2.9-6.1-18.4,4.2-15.9,10.7,2.6,6.4,18.9-4.2,15.9Z"/>
      <path class="st14" d="M398.5,501.6c-10.4-1.9-7.2-18.2,3.1-16.1,10.5,1.8,7.3,18.3-3.1,16.1Z"/>
      <path class="st14" d="M337.7,501.5c-10.4-2.2-6.5-18.6,3.8-15.9,10.3,2.3,6.4,18.4-3.8,15.9Z"/>
      <path class="st14" d="M369.6,501.6c-10.6-1.4-8.4-17.5,2.2-16,10.3,1.6,8.2,17.2-2.2,16Z"/>
      <path class="st14" d="M309.6,476.7c-10.2-1-8.8-16.4,1.4-15.7,10.3.9,8.9,16.6-1.4,15.7Z"/>
      <path class="st14" d="M306.4,500.5c-9.2-4.4-2.1-18.7,7-14,9.1,4.4,2,18.7-7,14Z"/>
      <path class="st5" d="M764.5,74.8c3.3-12.4,3.7-30.4,1.8-43.2,23.8,35,8.1,26.8,16,49.2l1.3.3c6.2-12.6,19.5-18.6,33.3-16.2-9.6,8.2-17.4,8.7-23.1,21.5,14.5,6.8,24.1,12.5,31.2,27.4-6.1-2.7-11-4.8-17.7-5.4,23.1,27.4,26.5,63.4,13.7,96.3-26.1-32.4-57.8-17-75.3,14.5-.6-38.2,2.3-78.9-18.3-112.9.1,18.5-.3,36.8-1.4,55.3-7-13.7-16-26.3-22.4-40.4-5.4-11.8-7.9-24.6-13.4-36.3-2.3,17.1.5,34.5,2.4,51.6-20.9-14.2-40.5-34-53.2-55.9-2.8,14.4-1.2,27,2,41.1-19.2-12.3-31.3-30.6-45.1-48-4.4,22.3-.2,42.4,5.1,64-31.9-14.5-50.4-45.9-58.2-78.9-3.2,12.5-8.9,18.7-9.8,32.7-19.9,6.5-30.7,21.9-39.5,40,.1-23.3,9.9-48.8,30-62.2v-1.1c-12.2-3.3-32.4,6.4-44,11,13.1-22.1,33.5-37.1,59.4-40.1-7.8-8.3-17.3-13.1-23.4-23.3,92,24.6,162.7-37.1,248.6,58.7v.3Z"/>
      <path class="st2" d="M467.9,408.9c6.5,26.6,24.7,50,24.9,78.1,47.7,54.9,105.7,67,172.7,79.2,18.2,8.3,62.5,46.7,38,66.9-13.4,11.3-29.9,20.4-47.9,18.7-62.1-11.6-124.2-52.9-174.1-90.7l8.5-9.9c-29.6,16.6-68.9,23.1-100,6.6,11.6,0,41.8,3.6,48.9-7.5l-.7-.8c-36.7,3.8-82.3-3-112.1-26.4,145.5.5,121.3,18.5,123.4-124.5,2.7-3.7,8.2-16.8,9.7-17.6,7.6,7.4,6.3,18.4,8.8,28.1l-.1-.2Z"/>
      <path class="st10" d="M812.3,482.9c-7.9,31.8-23.9,61.3-42.6,87.9-16-32.8-43.9-58.9-81.7-61.9,3.4-11.1,10.9-19.2,16.2-29.4,18.1-32.4,35.6-92.8,79.4-96,40.6,10.6,36.6,67,28.8,99.3l-.1.1Z"/>
      <path class="st10" d="M753.1,355.7c-35.3,13.8-52.6,50.9-66.2,83.6-7.5-7.1-17-20.4-27.4-22.6-5.3,7.7-11,15.6-15.8,23.5,7.3-3.5,13.1-5.1,18.9-11,6.9,7.5,14.5,14,21.9,21-2.3,9.7-4.2,19.3-4.7,29.3-1.2,7.7,3.1,22-3.8,26.9-13,8.3-17,6.5-23.2,22.8-12.2,7.1-12.2,11.8-21.4,19.9-22.5-1.1-45.2-11.2-65.9-19.4-.1-18.2.9-69,12.3-82.8,5.7-1.2,5.2,3.6,10.3-4.1,2.8-4.2,4.7-9,7.5-13.2,6.8,6.7,13.6,14.2,13.7,24.3-.6,15.4-4.3,43-1.5,57.4h.7c1.6-12.7,10.6-60.2,3.9-72.1-4.9-9.5-14.2-24-26.4-23.3-4.5,2.8.1,8.3,2.2,11.3-1.9,2.3-4.8,6.9-7.6,7.9l-1.1-.6c-4.5-14.3,2.3-29.5,6.5-43.2,9.9,4,18.7,7,29.4,8.2-4.7,25.9,6.5,36.3,8.2,58.5.9,11.2-2.6,49.3,1.4,56.6l1-.4c4.7-23.1,0-54.5,9.3-76.5,19.7-42,68.6-29.6,111.1-96.7,2.8,4.7,5.3,9.4,7,14.6l-.3.1Z"/>
      <path class="st10" d="M745.4,552.8c10.6,13.9,27.6,40.3,13.1,56.3h-1.3c-2.7-2.3-4.7-5.3-6.9-8.1-1,12.8-2.9,21.7-13,30.4-4.5,3.6-12.4,10.1-18.7,8l-1.1-1.4c25.9-34.4-38.9-88.8-72.7-88.3,7.9-16.8,30.2-13.5,45.6-12.9-7.4-4.5-20.1-2-26.3-7.8,1-9.9,13.9-11.3,21.9-10.8,24.1,2.3,44.2,16.5,59.3,34.8l.1-.2Z"/>
      <path class="st3" d="M874.5,474.5c-13.5,2.6-27,6.1-40.8,4.6-.8-24.3-2.1-51.9-9.8-75-9.5-22.2-31-33.7,7.1-32.5,41.5,7.8,41,70,43.6,102.9h-.1Z"/>
      <path class="st8" d="M877.3,567.6c-14.4,2-27.7,6.9-42.4,7.2-.9-28.8-.7-57.5-1.3-86.3,13.1,1.3,28.8-2.8,41.3-6.4,3.3,28.3,1.8,57.1,2.4,85.5Z"/>
      <path class="st8" d="M794.3,374.7c-59.3-6.3-80.9,66.5-102.5,108.5l-1.2-.2c-3.6-8.2.4-27.5,3.7-35.8,13.4-35.4,36.2-86.5,81.2-84.5,9.4,2.2,12.5,5,18.8,12Z"/>
      <path class="st2" d="M489.9,580.2c6.1,5.4,17.1,8.9,18.5,17.7-13.1,39.9-63.6,3.2-75.2-20.6,14.9-1.8,27.9-4.3,41.6-10.9,4.9,4.9,9.7,9.6,15.2,13.8h-.1Z"/>
      <path class="st8" d="M827.9,637.5c3.6-17.7,5.5-35.5,6.4-53.5,13.7-2.5,30-4.4,42.9-9.8,4.7,34.3-16.5,57-49.3,63.3h0Z"/>
      <path class="st10" d="M801.3,638.4c-11.9-4.5-23.5-10.2-33.1-18.6,8.4-12,7.8-23,5.6-37,12.4-10.5,18.1-27,25.6-40.5,1.9,31.8,1.5,64.3,1.9,96.2v-.1Z"/>
      <path class="st8" d="M811.9,636.9c-1.7-21.5-1.4-43.1-1.7-64.7-1.4-25-1.4-50.3,8.2-73.7,1.1-3.4,2.1-10.2,4.8-12.4.2,19.8,10.5,150.7-11.3,150.8Z"/>
      <path class="st10" d="M545.5,518.1c-10.9-7.1-22.1-14.3-31.8-23,5.8-15.4,26.4-80.4,38.9-87.2-8.2,28.1-13.5,82.6-7.1,110.2h0Z"/>
      <path class="st3" d="M844.4,369.4c-13.1-6.3-30.5-13.1-41.2,1-9.4-14.9-25.5-18.8-42.3-16.6-.7-2.6-4.6-11.9-4-13.9h0c29.9-.2,69.2,2.2,87.5,29.5Z"/>
      <path class="st0" d="M672,394c-19.4,8.4-35.9,18.9-43.3,39.6h-.8c-5-11.4-2.7-22.5.2-34.3,45.9-2.8,64.3-31.8,101.9-52.6-15.9,20.6-34.8,35.3-57.9,47.3h-.1Z"/>
      <path class="st3" d="M417.2,221.3c-1.4.2-2.8.3-4.2.3.2-16-2.4-178.1,1-180.7,1.2-.2,2.5-.4,3.7-.5-.6,59,3.5,122.7-.5,180.9Z"/>
      <path class="st8" d="M569.1,434c-2.4,13.8-6.6,27.3-9.3,41.1-2.6,10.6-1.8,22.8-4.2,33.2-6.6-29.9-5.4-95.3,19.1-116.9-4.4,13.8-3.8,28.4-5.6,42.6h0Z"/>
      <path class="st12" d="M423.9,232.3c6.3,22.2-1.8,17.1-18.9,17-.7-8-2.1-21.2,10-18.6,3,.4,6,.7,8.9,1.5v.1Z"/>
      <path class="st10" d="M532.4,610.4c-10.3,12-24.6,17.4-39.8,11.7,14.4-4.3,18.4-8.3,26.1-20.5,4.9,2.6,9.3,5.4,13.7,8.8Z"/>
      <path class="st12" d="M424.9,269.2c-6.6-.4-13.2,0-19.8.3-1.9-3-1-9.4-.9-13.1,7-.4,13.9-.9,20.9-.3.7,4.5.6,8.6-.2,13.1Z"/>
      <path class="st12" d="M444.4,343.5h-4.3c-1-3.1-1.8-32.1.6-36.3l2.3-1.2c6.1,3.3,6.2,34.1,1.4,37.5Z"/>
      <path class="st12" d="M303.6,267.7c-.6-4.1-.7-8-.7-12.1,6.4-1.3,12.9-1.5,19.4-1.1,2.8,17.4-5.4,14.6-18.7,13.2h0Z"/>
      <path class="st12" d="M446.2,358.3c2,5.7,3.9,27.2-.2,32.7l-5.3-2c-.9-5.3-2.6-30.9.6-34.2,2.3.9,3.8,1.2,4.9,3.5Z"/>
      <path class="st7" d="M413.5,38.7c-.8-8.7-11.7-30.9,3.7-31.4,8,10.3.3,21.5-3.7,31.4Z"/>
      <path class="st13" d="M276.6,390.9c-2.1,1.7-4.5,1.1-6.7-.3-3.2-8.4-4.4-22.9,7.6-24.1.3,7.2,2.1,17.9-.9,24.5v-.1Z"/>
      <path class="st13" d="M277.5,426.4l-6.6-1.8c-3.9-7.4-5.8-23.5,6.6-22.6.3,7.3,1.8,17.3,0,24.4Z"/>
      <path class="st13" d="M277.2,459.8c-1.9.9-3.1.2-4.8-.7-3.9-7.1-6.8-21.6,4.5-22.9,1.7,5.8,2.9,18,.3,23.7v-.1Z"/>
      <g>
        <g>
          <path d="M325.5,327.6v-3.4l2.5-2.5v6.6l-1,1-1.6-1.6.1-.1ZM328.1,331.1v6.6l-2.5-2.5v-3.4l1.6-1.6,1,1-.1-.1Z"/>
          <path d="M332,328.2v-6.6l2.5,2.5v3.4l-1.6,1.6-1-1,.1.1ZM340.2,328.4l1.3,1.3-1.3,1.3h-5.4l-1.3-1.3,1.3-1.3h5.4ZM340.3,327.6v-3.4l2.5-2.5v6.6l-1,1-1.6-1.6.1-.1ZM342.9,331.1v6.6l-2.5-2.5v-3.4l1.6-1.6,1,1-.1-.1Z"/>
          <path d="M345.7,328.2v-6.6l2.5,2.5v3.5l-1.6,1.6-1-1h.1ZM348.3,331.8v3.5l-2.5,2.5v-6.6l1-1,1.6,1.6h-.1ZM356.1,321.1l-2.5,2.5h-4.8l-2.5-2.5h9.9-.1ZM356.1,338.2h-9.9l2.5-2.5h4.8l2.5,2.5h.1ZM353.9,328.4l1.3,1.3-1.3,1.3h-5.4l-1.3-1.3,1.3-1.3h5.4ZM356.5,331.1v6.6l-2.5-2.5v-3.4l1.6-1.6,1,1-.1-.1Z"/>
          <path d="M359.1,338.2v-2.5h2.5v2.5h-2.5Z"/>
          <path d="M374.6,321.1l-2.5,2.5h-4.8l-2.5-2.5h9.9-.1ZM372.5,327.6v-3.5l2.5-2.5v6.6l-1,1-1.6-1.6h.1ZM375.1,331.1v6.6l-2.5-2.5v-3.4l1.6-1.6,1,1-.1-.1Z"/>
          <path d="M377.9,328.2v-6.6l2.5,2.5v3.5l-1.6,1.6-1-1h.1ZM380.4,331.8v3.5l-2.5,2.5v-6.6l1-1,1.6,1.6h-.1ZM388.3,321.1l-2.5,2.5h-4.8l-2.5-2.5h9.9-.1ZM388.3,338.2h-9.9l2.5-2.5h4.8l2.5,2.5h.1ZM386,328.4l1.3,1.3-1.3,1.3h-5.4l-1.3-1.3,1.3-1.3h5.4ZM386.2,327.6v-3.5l2.5-2.5v6.6l-1,1-1.6-1.6h.1ZM388.7,331.1v6.6l-2.5-2.5v-3.4l1.6-1.6,1,1-.1-.1Z"/>
          <path d="M391.6,328.2v-6.6l2.5,2.5v3.5l-1.6,1.6-1-1h.1ZM394.1,331.8v3.5l-2.5,2.5v-6.6l1-1,1.6,1.6h-.1ZM401.9,321.1l-2.5,2.5h-4.8l-2.5-2.5h9.9-.1ZM401.9,338.2h-9.9l2.5-2.5h4.8l2.5,2.5h.1ZM399.9,327.6v-3.5l2.5-2.5v6.6l-1,1-1.6-1.6h.1ZM402.4,331.1v6.6l-2.5-2.5v-3.4l1.6-1.6,1,1-.1-.1Z"/>
        </g>
        <g>
          <path d="M310.1,311.9v-2.4l.9.9v1.2l-.6.6-.3-.3h0ZM311,313.1v1.2l-.9.9v-2.4l.3-.3.6.6h0ZM313.9,309.3l-.9.9h-1.9l-.9-.9h3.7,0ZM313,311.9l.5.5-.5.5h-1.9l-.5-.5.5-.5h1.9Z"/>
          <path d="M315,311.9v-2.4l.9.9v1.2l-.6.6-.3-.3h0ZM315.9,313.1v1.4l-.9.9v-2.5l.3-.3.6.6v-.1ZM318.7,309.3l-.9.9h-1.7l-.9-.9h3.5ZM316.5,310.9l.5-.5.4.5v1.8l-.4.5-.5-.5v-1.8ZM317.9,311.6v-1.2l.9-.9v2.4l-.3.3-.6-.6h0ZM318.8,312.9v2.5l-.9-.9v-1.4l.6-.6.3.3v.1Z"/>
        </g>
        <g>
          <path d="M340.8,309.8l-.5.5h-3.4l-.5-.5.5-.4h3.4l.5.4ZM339.1,311.9l-.3.4-.6-.6v-.7l.5-.5.5.5v.9h-.1ZM339.1,315l-.5.5-.5-.5v-1.9l.6-.6.3.3v2.1l.1.1Z"/>
          <path d="M342.5,311.6l-.6.6-.3-.3v-1.5l.5-.5.5.5v1.2h-.1ZM342.1,315.4l-.5-.5.5-.5h2.3l.5.5-.5.5h-2.3ZM344.5,311.9l.5.5-.5.5h-1.9l-.5-.5.5-.5h1.9ZM345.5,309.8l-.5.5h-2.3l-.5-.5.5-.4h2.3l.5.4ZM345.5,314.3l-.5.5-.5-.5v-1.2l.6-.6.3.3v1.5h.1Z"/>
          <path d="M347.4,311.5l-.6.6-.3-.3v-1.3l.5-.5.5.5v1.1l-.1-.1ZM346.5,314.3l.5.5.5-.5v-1.4l-.6-.6-.3.3v1.6l-.1.1ZM349.7,309.8l-.5.5h-1.7l-.5-.5.5-.4h1.7l.5.4ZM347.6,315.4l-.5-.5.5-.5h.9l.5.5-.5.5h-.9ZM348.6,314.3v-.7h.7l1.1,1.1v.7h-.6l-1.1-1.1h-.1ZM350.4,311.7l-.3.3-.6-.6v-1.1l.5-.5.5.5v1.3l-.1.1ZM350.4,313.5l-.5.5-.5-.5v-.5l.6-.6.3.3v.8h.1Z"/>
          <path d="M373.1,312.4l-.5.5h-2.8l-.5-.5.5-.5h2.8l.5.5Z"/>
        </g>
      </g>
    </g>
    <g>
      <path d="M77.1,77.6l7.5,21.9c.3,1,.6,2,.8,3,.2,1,.5,2,.7,3,.3-1.2.6-2.4.9-3.6s.7-2.4,1.1-3.6l7.1-20.7h5.8l-13.2,38.4h-5.1l-13.2-38.4s7.6,0,7.6,0Z"/>
      <path d="M111.5,89.1c2.4,0,4.4.5,5.9,1.6,1.6,1,2.7,2.4,3.5,4.1s1.1,3.4,1.1,5.3,0,1.1-.1,1.8c0,.6-.2,1.2-.4,1.8h-15.9c0,2.8.7,4.9,2,6.4s3.1,2.2,5.2,2.2,2.1-.2,3.3-.5c1.2-.3,2.4-.9,3.6-1.6l1.7,3.6c-1.2.9-2.7,1.6-4.5,2.1s-3.4.7-4.8.7c-2,0-3.8-.3-5.5-.9-1.6-.6-3-1.5-4.1-2.7s-2-2.6-2.6-4.2-.9-3.5-.9-5.5.3-3.6.8-5.3c.6-1.7,1.4-3.1,2.5-4.4s2.4-2.3,4-3.1c1.6-.8,3.3-1.1,5.3-1.1l-.1-.3ZM111.2,93.4c-1.2,0-2.1.3-2.9.9s-1.4,1.4-1.8,2.4c-.4.9-.7,1.9-.7,2.8h9.7c.2-1,.1-2-.2-2.9-.3-.9-.8-1.7-1.5-2.3-.7-.6-1.6-.9-2.6-.9Z"/>
      <path d="M132,89.3c.8,1.7,1.2,3.6,1.3,5.5.9-1.5,2.1-2.7,3.7-3.8,1.6-1.1,3.2-1.6,5-1.6l-1,6.2c-1.5,0-2.9.4-4.1,1.2-1.2.8-2.3,2-3.4,3.6v15.5h-6.3v-19c0-.7,0-1.4-.2-2.3-.1-.9-.3-1.8-.5-2.6-.2-.8-.6-1.5-1-2.1l6.6-.5-.1-.1Z"/>
      <path d="M154.7,82.3c-.2,1.2-.5,2.5-.6,3.8-.2,1.3-.3,2.6-.3,3.8h6.3l-1,4.1h-5.3v14.4c0,.4,0,.9.1,1.4,0,.6.3,1,.6,1.5.3.4.8.6,1.5.6s1.2,0,1.7-.2c.6-.1,1.1-.2,1.7-.4l.7,3.9c-.9.3-1.9.5-3.1.8s-2.2.3-3.1.3c-2.2,0-3.9-.5-4.9-1.6-1.1-1-1.6-2.7-1.6-5v-15.8h-4.3v-3.5c1.1,0,2-.3,2.8-.8s1.5-1.2,2.1-2,1-1.7,1.4-2.7.7-1.9.9-2.8h4.4v.2Z"/>
      <path d="M170.7,80.4c0,1.1-.4,2-1.2,2.8s-1.7,1.2-2.8,1.2-2-.4-2.8-1.2c-.8-.8-1.2-1.7-1.2-2.8s.4-2.1,1.2-2.8c.8-.8,1.7-1.2,2.8-1.2s2.1.4,2.8,1.2c.8.8,1.2,1.7,1.2,2.8ZM169.8,89.8v26h-6.3v-23.2l-.6-2.8h6.9Z"/>
      <path d="M188.1,89.2c1.3,0,2.7.2,4.1.7,1.5.5,2.7,1.1,3.8,1.8l-3.1,4c-.8-.6-1.7-1.1-2.5-1.5s-1.8-.5-2.9-.5-2.1.3-2.8.9c-.8.6-1.4,1.4-1.8,2.3s-.8,1.9-1,3-.3,2-.3,2.9c0,3,.6,5.3,1.8,6.9s2.9,2.5,5.1,2.5,1.8-.1,2.8-.4c.9-.3,2-.8,3-1.4l1.6,3.8c-1.5.8-2.8,1.4-4.1,1.8s-2.7.6-4.5.6c-2.8,0-5.1-.6-7-1.8s-3.3-2.8-4.3-4.8c-1-2.1-1.5-4.4-1.5-7.1s.6-5.1,1.7-7.1c1.1-2,2.7-3.6,4.7-4.8,2-1.2,4.4-1.7,7.1-1.7l.1-.1Z"/>
      <path d="M210.1,89.2c2.8,0,4.9.7,6.5,2.1,1.5,1.4,2.3,3.5,2.3,6.4v11.5c0,1,.2,1.7.5,2s.7.5,1.2.5.7,0,1-.1c.3,0,.7-.2,1-.3l1,3.6c-.8.4-1.6.8-2.6,1-1,.3-1.9.4-2.7.4-1.3,0-2.3-.3-3-.8-.8-.5-1.3-1.4-1.6-2.7-1,1.4-2.1,2.3-3.4,2.9-1.3.5-2.8.8-4.4.8s-3.8-.6-5.2-1.8c-1.4-1.2-2.2-2.8-2.2-4.9s.4-3.4,1.3-4.6,2-2.1,3.5-2.8c1.4-.6,3-1.1,4.6-1.3,1.7-.2,3.2-.4,4.7-.4v-3.4c0-.9-.1-1.7-.4-2.2s-.7-.9-1.2-1.1c-.6-.2-1.3-.3-2.1-.3s-2.4.3-3.6,1c-1.2.7-2.2,1.3-3.1,2l-2.6-4.1c1.6-1.1,3.3-1.9,5.1-2.4s3.6-.8,5.5-.8l-.1-.2ZM212.6,104.9c-.7,0-1.5,0-2.4.1-.9,0-1.7.2-2.5.5s-1.5.7-2,1.3c-.5.6-.8,1.3-.8,2.3s.3,1.4,1,1.9c.6.4,1.3.7,2.1.7s1.8-.3,2.5-.8c.7-.6,1.2-1.3,1.6-2.1.4-.9.5-1.7.5-2.5v-1.4Z"/>
      <path d="M232.4,75.6v40.3h-6.4v-37.4l-.6-2.8h7v-.1Z"/>
      <path d="M23,140.4h12.1c2.5,0,4.9.4,7,1.1,2.1.7,3.8,1.9,5.1,3.6,1.3,1.7,1.9,3.9,1.9,6.8s-.7,4.8-2,6.5-3,2.9-5.1,3.7-4.4,1.2-6.7,1.2h-4.3v15.4h-7.2v-35.1l-.8-3.2h0ZM31,145.5v12.7h4.4c2,0,3.4-.6,4.5-1.8,1-1.2,1.5-2.7,1.5-4.6s-.5-3.4-1.5-4.6c-1-1.1-2.5-1.7-4.5-1.7h-4.4Z"/>
      <path d="M64.3,179.3c-2.6,0-4.9-.6-6.7-1.8-1.9-1.2-3.3-2.8-4.3-4.9-1-2-1.5-4.3-1.5-6.8s.3-3.7.9-5.3c.6-1.7,1.5-3.1,2.6-4.4,1.1-1.3,2.5-2.3,4.1-3s3.3-1.1,5.3-1.1,4.9.6,6.8,1.8c1.8,1.2,3.3,2.8,4.3,4.9,1,2,1.5,4.3,1.5,6.8s-.3,3.7-.9,5.3c-.6,1.7-1.4,3.1-2.6,4.4-1.1,1.3-2.5,2.3-4,3s-3.3,1.1-5.3,1.1h-.2ZM64.3,175.1c1.2,0,2.2-.3,3-.9.8-.6,1.4-1.4,1.8-2.4s.7-2,.9-3.1c.2-1.1.2-2.1.2-3.1s0-2-.2-3.1-.4-2.1-.8-3.1-1-1.7-1.7-2.3c-.8-.6-1.8-.9-3-.9s-2.2.3-2.9.9c-.8.6-1.4,1.4-1.8,2.4-.4,1-.7,2-.9,3.1s-.3,2.1-.3,3,0,2,.2,3c.1,1.1.4,2.1.8,3.1.4,1,1,1.8,1.7,2.4.8.6,1.7.9,3,.9v.1Z"/>
      <path d="M88.1,138.4v40.3h-6.4v-37.4l-.6-2.8h7v-.1Z"/>
      <path d="M104.9,152c2.8,0,4.9.7,6.5,2.1,1.5,1.4,2.3,3.5,2.3,6.4v11.5c0,1,.2,1.7.5,2s.7.5,1.2.5.7,0,1-.1c.3,0,.7-.2,1-.3l1,3.6c-.8.4-1.6.8-2.6,1-1,.3-1.9.4-2.7.4-1.3,0-2.3-.3-3-.8-.8-.5-1.3-1.4-1.6-2.7-1,1.4-2.1,2.3-3.4,2.9-1.3.5-2.8.8-4.4.8s-3.8-.6-5.2-1.8c-1.4-1.2-2.2-2.8-2.2-4.9s.4-3.4,1.3-4.6,2-2.1,3.5-2.8c1.4-.6,3-1.1,4.6-1.3,1.7-.2,3.2-.4,4.7-.4v-3.4c0-.9-.1-1.7-.4-2.2s-.7-.9-1.2-1.1c-.6-.2-1.3-.3-2.1-.3s-2.4.3-3.6,1-2.2,1.3-3.1,2l-2.6-4.1c1.6-1.1,3.3-1.9,5.1-2.4,1.8-.5,3.6-.8,5.5-.8l-.1-.2ZM107.3,167.7c-.7,0-1.5,0-2.4.1-.9,0-1.7.2-2.5.5s-1.5.7-2,1.3-.8,1.3-.8,2.3.3,1.4,1,1.9c.6.4,1.3.7,2.1.7s1.8-.3,2.5-.8c.7-.6,1.2-1.3,1.6-2.1.4-.9.5-1.7.5-2.5v-1.4Z"/>
      <path d="M126,152.1c.8,1.7,1.2,3.6,1.3,5.5.9-1.5,2.1-2.7,3.7-3.8,1.6-1.1,3.2-1.6,5-1.6l-1,6.2c-1.5,0-2.9.4-4.1,1.2-1.2.8-2.3,2-3.4,3.6v15.5h-6.3v-19c0-.7,0-1.4-.2-2.3-.1-.9-.3-1.8-.5-2.6s-.6-1.5-1-2.1l6.6-.5-.1-.1Z"/>
      <path d="M146.3,143.2c0,1.1-.4,2-1.2,2.8s-1.7,1.2-2.8,1.2-2-.4-2.8-1.2-1.2-1.7-1.2-2.8.4-2.1,1.2-2.8c.8-.8,1.7-1.2,2.8-1.2s2.1.4,2.8,1.2c.8.8,1.2,1.7,1.2,2.8ZM145.4,152.7v26h-6.3v-23.2l-.6-2.8h6.9Z"/>
      <path d="M151.1,152.7h19.5v3.2l-12.4,18.4h13.1l-.7,4.3h-20.8v-3.2l12.2-18.5h-10.9v-4.3.1Z"/>
      <path d="M185.4,152c2.8,0,4.9.7,6.5,2.1,1.5,1.4,2.3,3.5,2.3,6.4v11.5c0,1,.2,1.7.5,2s.7.5,1.2.5.7,0,1-.1c.3,0,.7-.2,1-.3l1,3.6c-.8.4-1.6.8-2.6,1-1,.3-1.9.4-2.7.4-1.3,0-2.3-.3-3-.8-.8-.5-1.3-1.4-1.6-2.7-1,1.4-2.1,2.3-3.4,2.9-1.3.5-2.8.8-4.4.8s-3.8-.6-5.2-1.8-2.2-2.8-2.2-4.9.4-3.4,1.3-4.6,2-2.1,3.5-2.8c1.4-.6,3-1.1,4.6-1.3,1.7-.2,3.2-.4,4.7-.4v-3.4c0-.9-.1-1.7-.4-2.2s-.7-.9-1.2-1.1c-.6-.2-1.3-.3-2.1-.3s-2.4.3-3.6,1c-1.2.7-2.2,1.3-3.1,2l-2.6-4.1c1.6-1.1,3.3-1.9,5.1-2.4s3.6-.8,5.5-.8l-.1-.2ZM187.9,167.7c-.7,0-1.5,0-2.4.1-.9,0-1.7.2-2.5.5s-1.5.7-2,1.3-.8,1.3-.8,2.3.3,1.4,1,1.9c.6.4,1.3.7,2.1.7s1.8-.3,2.5-.8c.7-.6,1.2-1.3,1.6-2.1.4-.9.5-1.7.5-2.5v-1.4Z"/>
      <path d="M209.7,145.1c-.2,1.2-.5,2.5-.6,3.8-.2,1.3-.3,2.6-.3,3.8h6.3l-1,4.1h-5.3v14.4c0,.4,0,.9.1,1.4,0,.6.3,1,.6,1.5.3.4.8.6,1.5.6s1.2,0,1.7-.2c.6-.1,1.1-.2,1.7-.4l.7,3.9c-.9.3-1.9.5-3.1.8s-2.2.3-3.1.3c-2.2,0-3.9-.5-4.9-1.6-1.1-1-1.6-2.7-1.6-5v-15.8h-4.3v-3.5c1.1,0,2-.3,2.8-.8s1.5-1.2,2.1-2,1-1.7,1.4-2.7.7-1.9.9-2.8h4.4v.2Z"/>
      <path d="M225.7,143.2c0,1.1-.4,2-1.2,2.8s-1.7,1.2-2.8,1.2-2-.4-2.8-1.2-1.2-1.7-1.2-2.8.4-2.1,1.2-2.8c.8-.8,1.7-1.2,2.8-1.2s2.1.4,2.8,1.2c.8.8,1.2,1.7,1.2,2.8ZM224.8,152.7v26h-6.3v-23.2l-.6-2.8h6.9Z"/>
      <path d="M242.1,179.3c-2.6,0-4.9-.6-6.7-1.8-1.9-1.2-3.3-2.8-4.3-4.9-1-2-1.5-4.3-1.5-6.8s.3-3.7.9-5.3c.6-1.7,1.5-3.1,2.6-4.4,1.1-1.3,2.5-2.3,4.1-3s3.3-1.1,5.3-1.1,4.9.6,6.8,1.8c1.8,1.2,3.3,2.8,4.3,4.9,1,2,1.5,4.3,1.5,6.8s-.3,3.7-.9,5.3c-.6,1.7-1.4,3.1-2.6,4.4-1.1,1.3-2.5,2.3-4,3s-3.3,1.1-5.3,1.1h-.2ZM242.2,175.1c1.2,0,2.2-.3,3-.9.8-.6,1.4-1.4,1.8-2.4.4-1,.7-2,.9-3.1s.2-2.1.2-3.1,0-2-.2-3.1-.4-2.1-.8-3.1c-.4-1-1-1.7-1.7-2.3-.8-.6-1.8-.9-3-.9s-2.2.3-2.9.9c-.8.6-1.4,1.4-1.8,2.4-.4,1-.7,2-.9,3.1s-.3,2.1-.3,3,0,2,.2,3c.1,1.1.4,2.1.8,3.1.4,1,1,1.8,1.7,2.4.8.6,1.7.9,3,.9v.1Z"/>
      <path d="M265.2,152.1c.2.5.4,1.1.6,1.6.1.6.2,1.1.3,1.7,1-.9,2.3-1.8,3.7-2.5,1.4-.7,2.8-1,4.3-1s3.6.4,4.7,1.2,1.9,1.8,2.4,3.2.7,3,.7,4.8v17.6h-6.3v-17c0-.8,0-1.6-.2-2.3-.1-.7-.4-1.3-.9-1.8s-1.2-.7-2.2-.7-1.2.2-1.9.5c-.8.3-1.5.7-2.1,1.1-.7.4-1.2.9-1.6,1.3v18.9h-6.3v-18.6c0-.6,0-1.4-.1-2.3,0-.9-.3-1.8-.5-2.7s-.6-1.6-1-2.1l6.6-.8-.2-.1Z"/>
    </g>
  </g>
  <g>
    <path class="st14" d="M149.3,636.5c60.9-37.1,131.5-33.4,197.3-13.1,27.7,7.5,62.7,19.1,71.8,49.8-13.2-.3-25.6-6.1-38.6-7.4,15.7,15.4,22.1,41.1,16.3,62.2-.7,1.9-1.1,2.4-2.9,3.2-7.5-4-12-13.2-19.1-18.1,4.4,20.7,2.7,42.5-7,61.4l-9.6,53.6c-2.2,11.8,4.2,23.2,5.3,34.8,3.1,40.2-28.2,84.7-58.3,108.6,42.1,17.3,56.4,81.8,74.8,112.4,4.9,4,12.3,8.2,18.1,11.3,1.9-31.4-8.8-146.3,7.8-162.6,15.1-15.2,66.9-2.3,87.9-7.8,4.1-14.6,26.5-10.5,37.1-6.4,3.5,1.7,3,4.4,5.2,6.6,2.3,1.1,15.5.9,17.9-1.1-1.7-17.6,1.2-26.7,20.8-25.4,16.6-.6,15.8,13.7,15.2,26.1,16,3.4,22.6-2.7,29.9,18.7,8.4,2.9,17.3-2.4,24.5,4.7,11.4-.5,16.3,0,26.1,4.9,29.4,2.2,59.6-.8,89.1-.6,38.6-2.4,79,3.3,116.7-3.5,4.6-2.5,13.6-3.4,18.5-1.8,23.4,14.4-5.4,37.1-21.7,21.1-33,4.3-101.5,2.2-135.8,4.2-22.1-.1-46,3.8-67.8,1-4.5,7.4-16.6,8.7-24.1,5.5-4.7,7.6-16.9,9.9-24.8,6.1,0,9.1.5,18.3-.1,27.4,10.5,8.2,14.7,12.3,13.5,26.7-.1,7.9-4.3,18.9-13.8,18.3,3.1,52.4-21.2,94.5-72.4,110.9-28.7,18.3-63.1,31.9-97.2,22.5-20.8,24.6-73.7,47.6-96.6,14.1-3.7,3-22.4,13.4-26.6,13-1.7,13.4,5.6,52-15.1,49.5-60.6,25.9-154.1,20.7-215.8-1.4-3.7,1.5-13.5-3.2-16.4-5.5.2-16.2.6-32.5-.8-48.7-22.4.3-50.4-10.9-62.4-31-17.8-31.9-6.3-166.9,4.7-205.9,13.6-48.2,50.2-63.7,97.4-58.2,6,.7,21.1,4.8,26,2.1-.2-3.3-10.6-19.5-12.4-24.7-48.3,18.3-80.7-49.2-63.4-88.4-19.3-34.8-15.5-79.2,4.7-112.4l-1.2-1.1c-6.2-1-12.3,3.7-18.3,2.5-3.1-11.2,12.7-20.2,20.9-24.8,6-1.9,12-2.7,18.3-3.1-6.2-6.5-13.4-10.4-20.6-15.7,8.8-8.8,21.7-5.6,30.3,2,4.2-12.9,19-36.1,34.3-35,3.6,9-6.5,20.6-3.9,30l.9.4c5-4,10.2-7.8,15.2-11.7l.2-.2Z"/>
    <path class="st10" d="M92.5,1119.5c2.9,7.2,17.4,32.7,24.5,35.3-.9,12.1-1,33.8,15.7,34,3.1,19.2,24,36,43.1,27,32.2,45.3,97.9,26.5,140.1,7.7-.9,7.7,4.7,42.8-4.1,43.6-59,25.3-135.5,19.1-197.4,4.9-8.4-1.5-18.6-4.8-25.2-9.6,2.8-47.6-.7-95.4,3.3-142.9Z"/>
    <path class="st2" d="M304.9,701.1c3,2.7-6.4,45.7-7.4,52.2,22-9.2,35.8-31.2,45.3-51.9,13,16.7,14.3,39.2,14.3,59.5-14.1-18.3-42.2-8.4-42.2,14.4,3.6,2.7,19-6.9,30.4-3.5,20.4,7.3,3.2,39.9,2.6,55.5-2,21.4,9.2,34.7,2.5,58.4-8.1,28.5-35.5,70.1-61.7,84.6-45.3,21.6-96.3-21.4-125-53.5-10.4-7-20.4-28.9-23.2-41-6,8.8-17.7,11.2-27.6,8.6-27.6-7.3-42.5-40.8-36-67.3,3.3-13.9,16.2-26.6,31.3-23.5,28.5,4.3,33.7,41.5,44.7,44,11.9-.3,6.7-31.9,8.3-40.6,1-15.7,3.3-31.4,5.3-47,2.4,9.3,3.1,18.5,6.7,27.6,9.8-17.8,17.8-36.8,30.3-53-.7,9.2-1.9,18.3-1.7,27.5,18-11.5,37.8-31.8,54.2-46-1.7,12-5.9,23-9,34.6,23.6-5.7,42.5-21.6,58-39.5l-.1-.1Z"/>
    <path class="st14" d="M211.9,878.4c2.6,1,6,.5,8.8,1.1l.8,1.4c-.5,2.5-3.4,4.6-5.6,5.2,21.4,17.5,50.8,22.8,77.8,23,5.1,0,21.5-2.9,24.7-1.4l.3,1.5c-2.9,4.8-9.8,8.4-15.3,6.5-4.3,22.1-24,39.5-47.2,34.1-25-5.7-41-31.1-47.6-54.1-2.1-.4-4.3,1.9-6.1,3.1-3.9-8.2,2.6-16.4,9.5-20.5l-.1.1Z"/>
    <path class="st1" d="M223.6,901.2c20,12.8,44.3,14.8,67.6,15.6l.3,1.1c-8.8,19.1-67.4,2.8-67.8-16.7h-.1Z"/>
    <path class="st4" d="M239.1,926.6c6.9,5.7,31.8,3.1,31.9,13.6-9.7,6.5-28.8-2.8-31.9-13.6Z"/>
    <path class="st1" d="M222.9,839.1c-11.1-11.9-6.1-36.7,7.2-45.5,20.4-15.6,48.4,7.8,29,27.7,6.5,11.7-3.5,41.7-19.1,28.2-7.5,2.2-13.5-4.6-17.1-10.3v-.1Z"/>
    <path class="st14" d="M240,849.4c-10.5-11.5,3.8-44.8,19.1-28.2,6.5,11.7-3.5,41.7-19.1,28.2Z"/>
    <path class="st14" d="M222.9,839.1c-11.1-11.9-6.1-36.7,7.2-45.5,16-12,39.5-1.4,34.9,19.8-17-35.4-51.8-2.9-42.1,25.7Z"/>
    <path class="st1" d="M311.4,822c-6.6-16,20.1-42.7,31.4-22.4,1.8,3.9,4.3,13.4.2,16.3l-1.2-3.4c-.5,3.5-.5,11.5-3.7,13.3,2.9,22.8-24.5,41.7-21.7,7-2.9-3.4-3.9-6.6-5-10.8h0Z"/>
    <path class="st14" d="M316.3,832.8c1.9-6.6,7.3-15.7,15.3-13.9,22.1,12.5-18.2,59.2-15.3,13.9Z"/>
    <path class="st14" d="M311.4,822c-6.6-16,20.1-42.7,31.4-22.4,1.8,3.9,4.3,13.4.2,16.3-5.2-26.1-27.8-12.3-31.6,6.1h0Z"/>
    <path class="st14" d="M243.7,749.5c13.1-2.2,33.6,6.9,31.3,22.3-21.1,9.4-25.3-17-68.3,14.8,1-20.1,17.1-35.6,37-37.1Z"/>
    <path class="st14" d="M302.7,824.8c2.7,3.3,1.9,14.5,4.4,19.6,5.2,10.6,20.5,13.3,21.5,26.7,1.5,18.3-21.4,30.7-36.6,21.9-3.4.5-7.5-2-8-5.5,4.6-3.9,31.4,1.5,35.3-12.6-.8-21.2-31.1-8.7-16.7-50.1h.1Z"/>
    <path class="st14" d="M101.2,812.3c20-.8,29.7,20.2,33.1,36.9-5.3-2.5-5.9-10.2-12.4-11.9-10.3,2.3-4.3,18-2.9,24.9-10.4-1-11.3-15.1-11-23.2,1.7-3.1,4.2-5.8,6.1-8.9-.1-6.4-8.5-7.9-13.3-5.9-6.3,2.5-8.3,7.9-10.7,13.6-1.2-10,.4-21.8,11.3-25.6l-.2.1Z"/>
    <path class="st14" d="M251.2,956.4c7.5,3.5,19.3,1.8,27.4,1.2l.6.7c-2.4,1.3-3.5,3.6-6.4,4.1-6.6,1.8-19.7,2.8-21.5-6h-.1Z"/>
    <path class="st9" d="M420.9,933.9c32.3,5,144.9-4.7,183.5,2.8,13.3,6.9,5.3,69.2,7,85.7-.1,20.1.7,40.8-.8,60.7.6,12.3-11,23-23.1,18.8-6.2,2-80.8,4.7-91.4,2,3.6-12.7-.6-18.6-10.2-26.2-14.1,3.7-30.3,1.2-44.8,3.3-5.6.8-29.2,5.9-32.6,5.3-3.4-10.3-1.7-116.4-.7-132.4-.3-9.5,3.2-17.5,13-20h.1Z"/>
    <path class="st14" d="M547.9,954.2c10.5,3.5,23.6-2.1,34.4,1.6,17.1,3.5,7.7,54.9,9.5,70-2.1,13.2,8.2,70.9-14.7,64.3-5.2,3.5-23.1,2.7-29.2,1.6-10-1.2-14.1-8.3-13.5-17.8-.5-11.4-.6-101.2,1.2-107.9,1.5-5.7,7.6-8.8,12.4-11.7l-.1-.1Z"/>
    <path class="st6" d="M551.4,963.1c11.8,4.9,32.6-8.3,30.8,13.9.9,16,0,32.5,0,48.5-1.5,9.6,6.4,60.8-8.8,56.3-7.3,2.2-23.5,3.2-29.7-2-2.5-9.4-2.4-100.2.1-109.8,1-3.8,4.5-5.2,7.6-6.8v-.1Z"/>
    <path class="st14" d="M503.6,957.4c8.4,5.3,2.9,36,4.1,46.4,0,19.8,1.2,40.4-.5,60-.4,3-.3,6.6-2.9,8.6l-1.2-.4c-3.6-15.2-4.8-96.1.5-114.7v.1Z"/>
    <path class="st14" d="M519.8,957.9c.8.3,1.5.8,2.2,1.3,4,10.2,2.2,38.6,2.2,50.3-1,9.9,2.9,58.8-3.2,60.7l-1.2-.6c-4.9-15.5-1.6-32.8-2.3-48.9.5-20.8-2.4-42.3,2.2-62.8h.1Z"/>
    <path class="st14" d="M427.1,961.7c9.6-.9,15.2,16.5,3.7,17.1-10.4,5.5-11.8-13.7-3.7-17.1Z"/>
    <path class="st14" d="M453.3,1045.6c9.1-.9,15.1,14.6,5.3,17.5-11.2,4.9-13.2-12.8-5.3-17.5Z"/>
    <path class="st14" d="M427.6,1045.6c8.9-.2,13.6,17.3,2.9,17.3-11.5,5.2-11.1-13.9-2.9-17.3Z"/>
    <path class="st14" d="M480.2,961.6c9.4-1,15.9,14.3,5.4,17.1-10.2,6-12.8-12.8-5.4-17.1Z"/>
    <path class="st14" d="M426.8,1017.9c7.1-.3,12.4,7.3,9.4,13.8-1.4,2.8-4.5,2.6-6.7,4.3-10.1.8-9.2-13.8-2.7-18.1h0Z"/>
    <path class="st14" d="M425.8,990.2c8.9-2.3,17.1,13.6,6.5,16.1-.7.6-1.5,1-2.3,1.5-9.1,1.2-10.5-13.2-4.2-17.6Z"/>
    <path class="st14" d="M453.5,961.7c8-.4,12.1,9.2,8.4,15.6-12.9,9.2-18-7.9-8.4-15.6Z"/>
    <path class="st14" d="M453.4,990.2c9.3-1.2,13.9,15.4,3.7,16.6-10.8,5.2-11.3-12.7-3.7-16.6Z"/>
    <path class="st14" d="M480.1,990.1c8.7-1,13.8,15.4,4,16.8-11.1,5.2-11.9-12.6-4-16.8Z"/>
    <path class="st14" d="M479.2,1046.4c8.7-1.3,14.6,15.1,4.5,16.5-11,6.1-11.7-12.1-4.5-16.5Z"/>
    <path class="st14" d="M455,1017.2c8.5,1,11.9,18,1.3,17.5-11.3,2.9-9.2-14.4-1.3-17.5h0Z"/>
    <path class="st14" d="M481.3,1017.1c6.7,1.6,9.9,10.5,6,16.1-2.2,1.7-4,.9-6.5,2-9.8-.7-6.6-15.1.4-18l.1-.1Z"/>
    <path class="st5" d="M239.3,619.9c29.2-2.6,58.3.8,86.4,9,25.3,5.7,53.5,9.3,72.3,28.8-18.6-5.6-31.4-4-50.1-2.6,25,10.3,41,31.2,42.3,58.2-17.6-14.3-17.2-19.1-41-27.1l-5.1-10.1c-9,19.2-19.4,44.2-35,58.6,3.5-22.1,7.1-44.7,2.5-67-15,29.5-22.4,42.2-52.1,58.9,4-16.1,9.5-31.1,9.9-48-19.1,18.9-38.2,37.9-59.4,54.5,1.7-9.8,3.7-19.6,5.9-29.3.6-4.1,4.9-11.6,2.8-15.2-13.8,9.2-29.2,44.7-41.8,59.1-.2-15.6.4-30.9,1.4-46.5-25,26.5-26.4,75.8-30.3,110.8-5.1-4.6-7.8-10.4-12-15.7-15.7-19.5-42.5-19.5-59.7-2-14.1-45.2-10.2-71.9,18.2-108.9-4.5-7.5-13.4-1.9-19.3-5,7.4-8,20.4-4.2,28.4,1-.5-7.3-.5-15,1.2-22.2l1.1-.4-.5-.3c1.9.5,2.6,1.9,3.8,3.4v-.9l.8,2.1v-1.6c1.5-.8,2.7-8.4,3.4-10.5,2.6-7.9,8.3-14.1,14.5-19.3-5.2,15.5-6.1,29.1-5.7,45.3,26.4-35.3,74-54.3,117.3-57.2l-.2.1Z"/>
    <path class="st2" d="M472.8,1086.9c8.9,1.4,18.4-.3,15,12.9-4.5,12.6-37.8,22.4-49,20.4,23.3,11.6,67.7,12.8,92.9,5.7,8.7-2.7,15.9-9.1,24.8-11.4,7.7-2,17.5-.6,24.6-3.4-9.3,33.7-55.8,42-84.6,49.3l.5,1.1c17.1,3.9,44.4-1.8,56.8-14.3-5,10.5-21.7,20-32.8,22.6-5.2,1.2-14.4.8-18.5,4.1,4.1,2.6,10.1,1.9,14.3,0-29.4,17.6-89.7,7.8-119-7.9-3.5,4.7-33.5,22.3-39.1,23-24.5,16.3-52.9,27.3-81.1,36.1-37.5,13.3-89.6,5.7-106.4-34.7,5.3-19.5,22-36.4,40.5-44,6.5-2.7,18.1-5.7,21.9,2.2-.8.8-13.7,8.3-15.2,8.3,50.5-4.8,104.4-8.9,150.8-32.3,41.6-24.8,45.5-34.8,96.7-36.2.8,3.5,1.5,9.1,5.9,9.5l.8-.7c-1.9-2.5-4.4-4.9-3.5-8.3l3.7-2h0Z"/>
    <path class="st10" d="M148.6,929.8c10.9,13.2,19.2,29.7,33.8,39.9,21.7,19,52.4,23.5,67.7,49.5,10.5,18.4,6.9,66.3,12.6,73.2,3-14.9-.3-31.4,1.2-46.7,4.6-24.4,14-32.1,9.8-59.9,5.7,1.4,19.4-5.7,23.6-9.4,4.7,12.1,11.7,35.5,6.3,47.8-3.6-3-7.2-6.3-10.7-9.6,2.5-2.2,7.1-6.9,7.3-10.4-2.5-2.6-7.2.2-9.7,1.8-8,5.6-17.2,19.8-18.7,29.5-1,6.4,2.7,51.6,5.9,56.1,4.5-27.1-8.2-51,9.9-73.6,1.8,3.2,11.3,18.7,13.6,19.8,19.5,1.1,12.6,77.8,14,94.5-6.3,5-62.3,10.6-68.4,8.8-4.1-17.3-3.4-18.1-16.4-30.7-2.3-4.6-2.7-10.4-5.2-15.3-4.9-9.6-13.6-6.5-19.2-12.1-1.9-15.5,1.2-31.6-2.8-47,6.6-1.3,20.8-10.4,24.9-15.7,4.7,4.8,13.4,8.6,20.1,8-12.3-4.2-10-14-14.8-20-9.1-1.2-23.6,16.8-31.9,17.2-9.2-34.7-28.6-64.7-62.9-78.1,4.1-4.6,7.1-12.2,10.1-17.7l-.1.1Z"/>
    <path class="st10" d="M106.9,975.1c48,7.2,71.2,69.7,87.2,109-10.9,4.2-23.5,5.8-33.7,12.2-8,4.6-16.3,16.7-23.3,19.9-5.9,8.5-11.2,18.1-16.5,27-28.6-31.4-76.9-150.6-13.7-168.1Z"/>
    <path class="st10" d="M193.9,1094.4c15.8,2.8,15.8-2.6,26.6,12.6-4.2,3-14,2.8-19.6,4.5-3.1,1-5.7,3.3-9.2,3.1,17.6,5,32.8-5.6,44.3,18.7-7.3,2.2-18.9-1.6-26.4,2.6-26.2,9.8-59.5,40.2-44.6,70.3l-.7,1.2c-17.6-1.3-22.9-24.5-24-39.1-1.2,2.8-2.8,5.8-4.9,7.9-3.2-1.5-7.1-5.1-8.9-8.2,0-27.7,23.5-56,48-67.2,6-2.6,14-2.9,19.3-6.5l.1.1Z"/>
    <path class="st8" d="M23.9,1033.7c7.8,1.1,31.3,7.4,37.5,4.3-2.4,29.3-2.5,61.4-3.4,90.4-.2.4-.6.6-.9.9-5.4.3-34.5-4.3-38.5-7.6,0-29.3.8-59,5.2-88h.1Z"/>
    <path class="st3" d="M55.9,951.1c6,2.1,13.2-.6,19.3,2.8,3.6,2,5,7.5,8.9,8.8-10.9,21.7-20.6,43.2-22.3,67.7-2.9,1.7-6.4,1.4-9-.7-4.3,1.7-24.6-2.9-28.3-4.9.7-12.8,2.4-25.5,5.2-38,3.5-18.2,8.1-29.2,26.3-35.7h-.1Z"/>
    <path class="st8" d="M20.5,1129.7c8.1,1.6,31.1,9,37.9,7.3.7,20.4,4.6,40.3,7.8,60.4-14.7,1.4-35.8-11.5-41.5-25.4-3.9-9.1-7.9-33-4.3-42.2l.1-.1Z"/>
    <path class="st10" d="M322.7,997.9c19.3,14.1,33,65.1,45,87.3-2.7,3.4-14.8,9.5-19,10.7-3.1,5.1-16.6,13.5-22,14.2,8.7-37.1,7.1-75.7-4-112.2h0Z"/>
    <path class="st8" d="M118.3,953.3c54.5,6.6,79.1,63,77.8,112.9-4.6-7.1-5.9-19.6-10.7-27-16.8-35.8-45.7-82.4-91.4-71.4,3-9.8,17.2-9.2,24.4-14.5h-.1Z"/>
    <path class="st3" d="M90.9,925.6c6.3,2.4,18.5,0,25.7.6,6.9.7,13.6,4,20.7,3.4-1.4,4.2-3.3,10.2-6,13.7-6.6,2.6-16-.1-23.2,2.1-5.6,1.7-11.1,8.2-16.4,9.1-19-17-24.3-8.6-45.6-8.4,2.9-.7,12.4-9.1,16.9-11.2,8.8-4.3,20.2-5,27.9-9.3h0Z"/>
    <path class="st2" d="M399.5,1177c8.1.7,27.9,14.1,37.8,11-4.2,6.4-28.3,21.5-35.8,20.4-9.3,5.3-31.3,2.4-34.1-9.3,3.2-7.4,25.8-13.8,32.1-22v-.1Z"/>
    <path class="st8" d="M71.4,1069.3c16.3,20.6,10.6,49.7,9.3,74-1,17.7-1.4,35.5-1.3,53.3l-1,1.2-1.3-.3c-13.6-18.2-5.5-102-5.7-128.2Z"/>
    <path class="st3" d="M875.2,956.6c1.8,1.7,2.1,4,.4,5.9-66.6,1.7-138.8,5.1-205.7,3.5-1-1.3-.8-1.8-.7-3.3,37.2-7.1,170.2-1.1,206.1-6l-.1-.1Z"/>
    <path class="st0" d="M167.6,939.2c29.4,17,57.7,54.1,94.9,48.4,1.8,9.6,3.5,24-2.1,32.3-4.5-8.6-9.8-17.6-17.2-24-24.2-17.7-62.6-26.6-75.6-56.6v-.1Z"/>
    <path class="st10" d="M376.5,1092.8c4.5,1.1,10.5,2.1,11.9,7.2-11.9,11.8-36.9,24.5-53.6,26.5-2.6,2.5-6.2,3.4-9.7,2.9,6-11.8,18.1-19.4,29.3-26.1,6.9-4.3,16-5.6,22.2-10.3l-.1-.2Z"/>
    <path class="st12" d="M629.6,948.9c1.7.5,3.5.8,5.3,1,4.5,5.3,3.8,24.7-2.5,28.7-2.1,0-3.2-.3-5.1-1.3-12.6,7-6.7-18.7-7.6-25.1,3.7,1,7.9,0,9.8-3.4l.1.1Z"/>
    <path class="st8" d="M309.9,991.3c12,17.4,17.5,59.7,13.9,80.4l-.3.3-.7-.4c0-15.4-6.2-28.5-10-43.1-1.9-12.5,0-24.7-2.8-37.3l-.1.1Z"/>
    <path class="st12" d="M578.8,904.8c5.4,3.5,3.2,13.6,2.1,18.8-4.5,2.6-16.5,2.1-21.2-.2-.5-5.9-.4-13.1,3.7-17.8,4.6,1.7,11.1,1.8,15.4-.8Z"/>
    <path class="st2" d="M487.1,1114c6.6.3,13.2.4,19.8.9,9.9.3,21.2,4.3,30.5-.4-3.5,2.8-8.1,5.9-12.8,4.8-10.9,5-37.9,5.4-48.1,0,3.5,0,8.1-2.9,10.6-5.2v-.1Z"/>
    <path class="st2" d="M597.6,1110.1l2.1.5c2.7,11-25.7,39.3-36.9,39.5-.9.7-1,1.1-2.2,1,11.9-12.5,25.1-22.2,30.2-39.6,2.2,1.2,4.9-.1,6.8-1.4h0Z"/>
    <path class="st12" d="M645.7,956.4c12.3,1.7,19.9-3.4,15.7,13.6-4.1,3.6-11.7,2.7-16.6,1,.6-4.8,0-9.7.9-14.6h0Z"/>
    <path class="st7" d="M886.2,952.7c11.8,0,12.5,14.5,2.2,13.1-10.8,5.5-12.5-11.1-2.2-13.1Z"/>
    <path class="st12" d="M621,1021c6.5,2.6,6.6,12.3,6.3,18.2.1,4.4-1.4,7.7-4.7,10.4h-1.6c-3.7-4.8-1.4-23.2,0-28.6Z"/>
    <path class="st12" d="M502.5,923.3c7,3.1,18.4-2.3,24.6,2.9l-.7,1.6c-3.7,2.8-28,4.4-23.9-4.5h0Z"/>
    <g>
      <g>
        <path d="M558.5,992.5h3.4l2.5,2.5h-6.6l-1-1,1.6-1.6.1.1ZM554.9,995h-6.6l2.5-2.5h3.4l1.6,1.6-1,1,.1-.1Z"/>
        <path d="M557.8,999h6.6l-2.5,2.5h-3.4l-1.6-1.6,1-1-.1.1ZM557.7,1007.1l-1.3,1.3-1.3-1.3v-5.4l1.3-1.3,1.3,1.3v5.4ZM558.5,1007.3h3.4l2.5,2.5h-6.6l-1-1,1.6-1.6.1.1ZM554.9,1009.8h-6.6l2.5-2.5h3.4l1.6,1.6-1,1,.1-.1Z"/>
        <path d="M557.8,1012.7h6.6l-2.5,2.5h-3.5l-1.6-1.6,1-1v.1ZM554.3,1015.2h-3.5l-2.5-2.5h6.6l1,1-1.6,1.6v-.1ZM564.9,1023l-2.5-2.5v-4.8l2.5-2.5v9.9-.1ZM547.8,1023v-9.9l2.5,2.5v4.8l-2.5,2.5v.1ZM557.7,1020.8l-1.3,1.3-1.3-1.3v-5.4l1.3-1.3,1.3,1.3v5.4ZM554.9,1023.5h-6.6l2.5-2.5h3.4l1.6,1.6-1,1,.1-.1Z"/>
        <path d="M547.8,1026.1h2.5v2.5h-2.5v-2.5Z"/>
        <path d="M564.9,1041.5l-2.5-2.5v-4.8l2.5-2.5v9.9-.1ZM558.5,1039.5h3.5l2.5,2.5h-6.6l-1-1,1.6-1.6v.1ZM554.9,1042h-6.6l2.5-2.5h3.4l1.6,1.6-1,1,.1-.1Z"/>
        <path d="M557.8,1044.9h6.6l-2.5,2.5h-3.5l-1.6-1.6,1-1v.1ZM554.3,1047.4h-3.5l-2.5-2.5h6.6l1,1-1.6,1.6v-.1ZM564.9,1055.2l-2.5-2.5v-4.8l2.5-2.5v9.9-.1ZM547.8,1055.2v-9.9l2.5,2.5v4.8l-2.5,2.5v.1ZM557.7,1053l-1.3,1.3-1.3-1.3v-5.4l1.3-1.3,1.3,1.3v5.4ZM558.5,1053.1h3.5l2.5,2.5h-6.6l-1-1,1.6-1.6v.1ZM554.9,1055.7h-6.6l2.5-2.5h3.4l1.6,1.6-1,1,.1-.1Z"/>
        <path d="M557.8,1058.5h6.6l-2.5,2.5h-3.5l-1.6-1.6,1-1v.1ZM554.3,1061.1h-3.5l-2.5-2.5h6.6l1,1-1.6,1.6v-.1ZM564.9,1068.9l-2.5-2.5v-4.8l2.5-2.5v9.9-.1ZM547.8,1068.9v-9.9l2.5,2.5v4.8l-2.5,2.5v.1ZM558.5,1066.8h3.5l2.5,2.5h-6.6l-1-1,1.6-1.6v.1ZM554.9,1069.4h-6.6l2.5-2.5h3.4l1.6,1.6-1,1,.1-.1Z"/>
      </g>
      <g>
        <path d="M574.2,977h2.4l-.9.9h-1.2l-.6-.6.3-.3h0ZM573,977.9h-1.2l-.9-.9h2.4l.3.3-.6.6h0ZM576.8,980.9l-.9-.9v-1.9l.9-.9v3.7h0ZM574.2,979.9l-.5.5-.5-.5v-1.9l.5-.5.5.5v1.9Z"/>
        <path d="M574.2,981.9h2.4l-.9.9h-1.2l-.6-.6.3-.3h0ZM573,982.8h-1.4l-.9-.9h2.5l.3.3-.6.6h.1ZM576.8,985.6l-.9-.9v-1.7l.9-.9v3.5h0ZM575.2,983.4l.5.5-.5.4h-1.8l-.5-.4.5-.5h1.8ZM574.4,984.9h1.2l.9.9h-2.4l-.3-.3.6-.6h0ZM573.2,985.8h-2.5l.9-.9h1.4l.6.6-.3.3h-.1Z"/>
      </g>
      <g>
        <path d="M576.3,1007.7l-.5-.5v-3.4l.5-.5.4.5v3.4l-.4.5ZM574.2,1006.1l-.4-.3.6-.6h.7l.5.5-.5.5h-.9v-.1ZM571.1,1006.1l-.5-.5.5-.5h1.9l.6.6-.3.3h-2.1l-.1.1Z"/>
        <path d="M574.4,1009.5l-.6-.6.3-.3h1.5l.5.5-.5.5h-1.2v-.1ZM570.6,1009l.5-.5.5.5v2.3l-.5.5-.5-.5v-2.3ZM574.2,1011.5l-.5.5-.5-.5v-1.9l.5-.5.5.5v1.9ZM576.3,1012.4l-.5-.5v-2.3l.5-.5.4.5v2.3l-.4.5ZM571.7,1012.4l-.5-.5.5-.5h1.2l.6.6-.3.3h-1.5v.1Z"/>
        <path d="M574.6,1014.3l-.6-.6.3-.3h1.3l.5.5-.5.5h-1.1l.1-.1ZM571.7,1013.4l-.5.5.5.5h1.4l.6-.6-.3-.3h-1.6l-.1-.1ZM576.3,1016.7l-.5-.5v-1.7l.5-.5.4.5v1.7l-.4.5ZM570.6,1014.5l.5-.5.5.5v.9l-.5.5-.5-.5v-.9ZM571.7,1015.6h.7v.7l-1.1,1.1h-.7v-.6l1.1-1.1v-.1ZM574.3,1017.3l-.3-.3.6-.6h1.1l.5.5-.5.5h-1.3l-.1-.1ZM572.5,1017.3l-.5-.5.5-.5h.5l.6.6-.3.3h-.8v.1Z"/>
        <path d="M573.7,1040.1l-.5-.5v-2.8l.5-.5.5.5v2.8l-.5.5Z"/>
      </g>
    </g>
    <g>
      <path class="st9" d="M718.2,1060.8c-9-2.8-19.6-7.3-27-11.7-2.9-1.7-5.8-4-6-6.8,0-1.9,1.3-3.6,3.3-4.9,2.2-1.4,3.8-1.7,6.4-.6,4.5,1.8,8.3,5.2,12.8,7.3,15.1,7.3,34.9,12.2,53.2,13.6,20.1,1.5,39.2-1,57.6-6.9,7-2.2,13.8-4.9,20.1-8,3.5-1.7,6.7-3.9,10.5-5.4,1.5-.6,3.2-1.1,4.9-.9,2,.3,3.5,1.2,4.7,2.3,1.5,1.4,2.5,3.7,1.6,5.4-2.2,5.1-28.3,14.6-36.2,17.4-7.4,1.7-14.8,3.8-22.4,5.2-20.1,3.5-42.3,2.9-62.2-.9-7.1-1.4-14.2-4-21.4-5.1h.1Z"/>
      <path class="st9" d="M825.8,1017.1c0,.9,0,1-.3,1.9-.9,3-6.2,5.9-9.9,7.4-1.2.5-2.3,1-3.5,1.4-1.2.5-2.3.9-3.6,1.3-1.2.4-2.5.8-3.6,1.2-1.3.4-2.5.7-3.8,1.1-1.3.3-2.6.6-3.8.9-1.3.3-2.6.6-3.9.8-1.3.2-2.6.5-3.9.7s-2.6.4-3.9.5c-1.3.2-2.6.3-4.1.4-1.3.1-2.8.2-4.1.3-1.3,0-2.8.1-4.1.1h-4.1c-1.3,0-2.8,0-4.1-.2-1.3,0-2.8-.2-4.1-.3-1.3-.1-2.6-.3-4.1-.4-1.3-.2-2.6-.4-3.9-.6-11.6-2-26.7-6.2-33.1-13.6,0-2,.4-3.8,2.2-5.5,1.5-1.3,3.2-2,5.7-1.7,6,.7,12.1,5.1,17.3,7.2,5.1,2,10.9,3.2,16.7,3.9,16.6,1.8,30.4-.7,44.6-6.5,3.5-1.4,8.1-3.9,12.2-3.9s5.1,2.1,7,3.5h.1l.1.1Z"/>
      <path class="st9" d="M718.1,862.3c7.1-1.1,14.2-3.7,21.4-5.1,19.9-3.8,42.1-4.4,62.2-.9,7.6,1.4,15,3.5,22.4,5.2,7.8,2.8,34,12.3,36.2,17.4.9,1.7-.1,4-1.6,5.4-1.2,1.1-2.6,2-4.7,2.3-1.7.2-3.5-.3-4.9-.9-3.8-1.5-7-3.7-10.5-5.4-6.2-3.1-13.1-5.8-20.1-8-18.3-5.9-37.5-8.4-57.6-6.9-18.3,1.4-38.1,6.3-53.2,13.6-4.5,2.1-8.3,5.5-12.8,7.3-2.6,1.1-4.2.8-6.4-.6-2-1.3-3.3-3-3.3-4.9.1-2.8,3.1-5.1,6-6.8,7.4-4.4,18-8.9,27-11.7h-.1Z"/>
      <path class="st9" d="M825.7,906.1c-1.9,1.4-3.9,3.5-7,3.5s-8.7-2.5-12.2-3.9c-14.2-5.8-28.1-8.3-44.6-6.5-5.8.7-11.6,1.9-16.7,3.9-5.2,2.1-11.3,6.5-17.3,7.2-2.5.3-4.2-.4-5.7-1.7-1.7-1.7-2.2-3.5-2.2-5.5,6.4-7.4,21.5-11.6,33.1-13.6,1.3-.2,2.6-.4,3.9-.6,1.5-.1,2.8-.3,4.1-.4,1.3,0,2.8-.3,4.1-.3,1.3-.2,2.8-.2,4.1-.2h4.1c1.3,0,2.8.1,4.1.1s2.8.2,4.1.3c1.5.1,2.8.2,4.1.4,1.3.1,2.6.3,3.9.5s2.6.5,3.9.7c1.3.2,2.6.5,3.9.8,1.2.3,2.5.6,3.8.9,1.3.4,2.5.7,3.8,1.1,1.2.4,2.5.8,3.6,1.2,1.3.4,2.5.8,3.6,1.3,1.2.4,2.3.9,3.5,1.4,3.6,1.5,9,4.4,9.9,7.4.3.9.3,1,.3,1.9h-.1l-.1.1Z"/>
    </g>
  </g>
  <g>
    <path d="M627.4,1195.6h-14.4v15.4h-6.5v-31.5s0-.3-.2-.7c-.1-.4-.2-.9-.3-1.4,0-.5-.2-.7-.2-.8h7.1v14.4h14.4v-14.4h6.5v34.4h-6.5v-15.4h.1Z"/>
    <path d="M649.3,1211.5c-2.3,0-4.4-.5-6-1.6-1.7-1.1-3-2.5-3.9-4.4s-1.3-3.9-1.3-6.1.3-3.3.8-4.8,1.3-2.8,2.3-3.9,2.2-2,3.6-2.7c1.4-.7,3-1,4.7-1s4.4.5,6.1,1.6c1.7,1.1,2.9,2.5,3.8,4.4.9,1.8,1.3,3.9,1.3,6.1s-.3,3.3-.8,4.8-1.3,2.8-2.3,3.9-2.2,2-3.6,2.7-3,1-4.8,1h.1ZM649.4,1207.8c1.1,0,2-.3,2.7-.8s1.2-1.3,1.6-2.1c.4-.9.6-1.8.8-2.8.1-1,.2-1.9.2-2.7s0-1.8-.2-2.8c-.1-1-.3-1.9-.7-2.8-.3-.9-.9-1.6-1.5-2.1s-1.6-.8-2.7-.8-1.9.3-2.6.8c-.7.6-1.2,1.3-1.6,2.2s-.6,1.8-.8,2.8-.2,1.9-.2,2.7,0,1.8.2,2.7c.1,1,.4,1.9.7,2.8s.9,1.6,1.5,2.1c.7.5,1.6.8,2.7.8h-.1Z"/>
    <path d="M669.7,1187.1c.7,1.6,1.1,3.2,1.1,4.9.8-1.3,1.9-2.5,3.3-3.5,1.4-1,2.9-1.5,4.5-1.5l-.9,5.6c-1.4,0-2.6.4-3.7,1.1-1.1.7-2.1,1.8-3.1,3.3v13.9h-5.6v-17.1c0-.6,0-1.3-.1-2.1,0-.8-.3-1.6-.5-2.3-.2-.8-.5-1.4-.9-1.9l6-.5-.1.1Z"/>
    <path d="M688,1179.1c0,1-.3,1.8-1,2.5s-1.5,1.1-2.5,1.1-1.8-.4-2.5-1.1-1.1-1.6-1.1-2.5.4-1.8,1.1-2.5,1.6-1,2.5-1,1.8.3,2.5,1,1,1.5,1,2.5ZM687.2,1187.6v23.4h-5.6v-20.8l-.5-2.5h6.2l-.1-.1Z"/>
    <path d="M692.3,1187.6h17.5v2.9l-11.1,16.5h11.8l-.7,3.9h-18.7v-2.9l11-16.6h-9.8v-3.9.1Z"/>
    <path d="M723.7,1211.5c-2.3,0-4.4-.5-6-1.6-1.7-1.1-3-2.5-3.9-4.4s-1.3-3.9-1.3-6.1.3-3.3.8-4.8,1.3-2.8,2.3-3.9,2.2-2,3.6-2.7c1.4-.7,3-1,4.7-1s4.4.5,6.1,1.6c1.7,1.1,2.9,2.5,3.8,4.4.9,1.8,1.3,3.9,1.3,6.1s-.3,3.3-.8,4.8-1.3,2.8-2.3,3.9-2.2,2-3.6,2.7-3,1-4.8,1h.1ZM723.7,1207.8c1.1,0,2-.3,2.7-.8s1.2-1.3,1.6-2.1c.4-.9.6-1.8.8-2.8.1-1,.2-1.9.2-2.7s0-1.8-.2-2.8c-.1-1-.3-1.9-.7-2.8-.3-.9-.9-1.6-1.5-2.1s-1.6-.8-2.7-.8-1.9.3-2.6.8c-.7.6-1.2,1.3-1.6,2.2s-.6,1.8-.8,2.8-.2,1.9-.2,2.7,0,1.8.2,2.7c.1,1,.4,1.9.7,2.8s.9,1.6,1.5,2.1c.7.5,1.6.8,2.7.8h-.1Z"/>
    <path d="M744.3,1187.1c.2.5.4,1,.5,1.5s.2,1,.3,1.5c.9-.8,2-1.6,3.3-2.2s2.5-.9,3.8-.9,3.2.3,4.2,1,1.7,1.7,2.1,2.9c.4,1.2.6,2.7.6,4.3v15.8h-5.7v-15.2c0-.7,0-1.4-.2-2.1-.1-.7-.4-1.2-.8-1.6s-1.1-.6-2-.6-1,.1-1.7.4-1.3.6-1.9,1c-.6.4-1.1.8-1.4,1.2v17h-5.6v-16.7c0-.6,0-1.3-.1-2.1s-.2-1.7-.4-2.5-.5-1.4-.9-1.9l5.9-.7v-.1Z"/>
    <path d="M772.6,1180.8c-.2,1.1-.4,2.2-.6,3.4-.2,1.2-.3,2.3-.3,3.4h5.7l-.9,3.7h-4.8v14.2c0,.5.2.9.5,1.3s.7.6,1.4.6,1,0,1.6-.1c.5,0,1-.2,1.5-.3l.7,3.5c-.8.3-1.7.5-2.8.7-1,.2-2,.3-2.8.3-2,0-3.5-.5-4.4-1.4-1-.9-1.4-2.4-1.4-4.5v-14.2h-3.9v-3.1c1,0,1.8-.3,2.5-.7.7-.5,1.3-1,1.9-1.8.5-.7.9-1.5,1.3-2.4.3-.9.6-1.7.8-2.5h4v-.1Z"/>
    <path d="M790.1,1187c2.5,0,4.4.6,5.8,1.9,1.4,1.3,2,3.2,2,5.7v10.3c0,.9.1,1.5.4,1.8.3.3.6.5,1.1.5h.9c.3,0,.6-.2.9-.3l.9,3.2c-.7.4-1.5.7-2.3.9-.9.2-1.7.4-2.4.4-1.1,0-2-.2-2.7-.7s-1.2-1.3-1.5-2.4c-.9,1.2-1.9,2.1-3.1,2.6s-2.5.7-4,.7-3.4-.5-4.7-1.6c-1.3-1-2-2.5-2-4.4s.4-3.1,1.2-4.2,1.8-1.9,3.1-2.5,2.7-1,4.2-1.2,2.9-.3,4.3-.3v-3.1c0-.8-.1-1.5-.4-2-.2-.5-.6-.8-1.1-1s-1.1-.3-1.9-.3-2.1.3-3.2.9c-1.1.6-2,1.2-2.8,1.8l-2.3-3.7c1.4-1,2.9-1.7,4.5-2.2s3.3-.7,5-.7l.1-.1ZM792.3,1201.1h-2.2c-.8,0-1.5.2-2.3.5-.7.3-1.3.6-1.8,1.1s-.7,1.2-.7,2.1.3,1.3.9,1.7c.6.4,1.2.6,1.9.6s1.6-.3,2.2-.8c.6-.5,1.1-1.1,1.4-1.9s.5-1.5.5-2.3v-1.1l.1.1Z"/>
    <path d="M810.1,1174.8v36.1h-5.7v-33.6l-.5-2.5h6.3-.1Z"/>
    <path d="M591.8,1233h10.9c2.3,0,4.4.3,6.3,1s3.4,1.7,4.5,3.2,1.7,3.5,1.7,6.1-.6,4.3-1.8,5.9c-1.2,1.5-2.7,2.6-4.6,3.4-1.9.7-3.9,1.1-6,1.1h-3.9v13.8h-6.4v-31.5l-.7-2.9v-.1ZM599,1237.6v11.4h3.9c1.8,0,3.1-.5,4-1.6s1.4-2.5,1.4-4.1-.4-3.1-1.3-4.1c-.9-1-2.2-1.5-4-1.5h-4v-.1Z"/>
    <path d="M628.9,1267.9c-2.3,0-4.4-.5-6-1.6-1.7-1.1-3-2.5-3.9-4.4s-1.3-3.9-1.3-6.1.3-3.3.8-4.8,1.3-2.8,2.3-3.9,2.2-2,3.6-2.7,3-1,4.7-1,4.4.5,6.1,1.6c1.7,1.1,2.9,2.5,3.8,4.4.9,1.8,1.3,3.9,1.3,6.1s-.3,3.3-.8,4.8-1.3,2.8-2.3,3.9-2.2,2-3.6,2.7c-1.4.7-3,1-4.8,1h.1ZM629,1264.2c1.1,0,2-.3,2.7-.8s1.2-1.3,1.6-2.1c.4-.9.6-1.8.8-2.8.1-1,.2-1.9.2-2.7s0-1.8-.2-2.8c-.1-1-.3-1.9-.7-2.8-.3-.9-.9-1.6-1.5-2.1-.7-.5-1.6-.8-2.7-.8s-1.9.3-2.6.8c-.7.6-1.2,1.3-1.6,2.2-.4.9-.6,1.8-.8,2.8s-.2,1.9-.2,2.7,0,1.8.2,2.7c.1,1,.4,1.9.7,2.8s.9,1.6,1.5,2.1c.7.5,1.6.8,2.7.8h-.1Z"/>
    <path d="M650.4,1231.2v36.1h-5.7v-33.6l-.5-2.5h6.3-.1Z"/>
    <path d="M665.4,1243.4c2.5,0,4.4.6,5.8,1.9,1.4,1.3,2,3.2,2,5.7v10.3c0,.9.1,1.5.4,1.8.3.3.6.5,1.1.5h.9c.3,0,.6-.2.9-.3l.9,3.2c-.7.4-1.5.7-2.3.9-.9.2-1.7.4-2.4.4-1.1,0-2-.2-2.7-.7s-1.2-1.3-1.5-2.4c-.9,1.2-1.9,2.1-3.1,2.6s-2.5.7-4,.7-3.4-.5-4.7-1.6c-1.3-1-2-2.5-2-4.4s.4-3.1,1.2-4.2,1.8-1.9,3.1-2.5,2.7-1,4.2-1.2,2.9-.3,4.3-.3v-3.1c0-.8-.1-1.5-.4-2-.2-.5-.6-.8-1.1-1s-1.1-.3-1.9-.3-2.1.3-3.2.9c-1.1.6-2,1.2-2.8,1.8l-2.3-3.7c1.4-1,2.9-1.7,4.5-2.2s3.3-.7,5-.7l.1-.1ZM667.6,1257.5h-2.2c-.8,0-1.5.2-2.3.5s-1.3.6-1.8,1.1-.7,1.2-.7,2.1.3,1.3.9,1.7,1.2.6,1.9.6,1.6-.2,2.2-.8c.6-.5,1.1-1.1,1.4-1.9.3-.8.5-1.5.5-2.3v-1.1l.1.1Z"/>
    <path d="M684.3,1243.5c.7,1.6,1.1,3.2,1.1,4.9.8-1.3,1.9-2.5,3.3-3.5s2.9-1.5,4.5-1.5l-.9,5.6c-1.4,0-2.6.4-3.7,1.1-1.1.7-2.1,1.8-3.1,3.3v13.9h-5.6v-17.1c0-.6,0-1.3-.1-2.1,0-.8-.3-1.6-.5-2.3-.2-.8-.5-1.4-.9-1.9l6-.5-.1.1Z"/>
    <path d="M702.6,1235.5c0,1-.3,1.8-1,2.5s-1.5,1.1-2.5,1.1-1.8-.4-2.5-1.1-1.1-1.6-1.1-2.5.4-1.8,1.1-2.5c.7-.7,1.6-1,2.5-1s1.8.3,2.5,1,1,1.5,1,2.5ZM701.8,1244v23.4h-5.6v-20.8l-.5-2.5h6.2l-.1-.1Z"/>
    <path d="M706.8,1244h17.5v2.9l-11.1,16.5h11.8l-.7,3.9h-18.7v-2.9l11-16.6h-9.8v-3.9.1Z"/>
    <path d="M737.7,1243.4c2.5,0,4.4.6,5.8,1.9,1.4,1.3,2,3.2,2,5.7v10.3c0,.9.1,1.5.4,1.8.3.3.6.5,1.1.5h.9c.3,0,.6-.2.9-.3l.9,3.2c-.7.4-1.5.7-2.3.9-.9.2-1.7.4-2.4.4-1.1,0-2-.2-2.7-.7s-1.2-1.3-1.5-2.4c-.9,1.2-1.9,2.1-3.1,2.6s-2.5.7-4,.7-3.4-.5-4.7-1.6c-1.3-1-2-2.5-2-4.4s.4-3.1,1.2-4.2,1.8-1.9,3.1-2.5,2.7-1,4.2-1.2,2.9-.3,4.3-.3v-3.1c0-.8-.1-1.5-.4-2-.2-.5-.6-.8-1.1-1s-1.1-.3-1.9-.3-2.1.3-3.2.9c-1.1.6-2,1.2-2.8,1.8l-2.3-3.7c1.4-1,2.9-1.7,4.5-2.2s3.3-.7,5-.7l.1-.1ZM739.9,1257.5h-2.2c-.8,0-1.5.2-2.3.5s-1.3.6-1.8,1.1-.7,1.2-.7,2.1.3,1.3.9,1.7,1.2.6,1.9.6,1.6-.2,2.2-.8c.6-.5,1.1-1.1,1.4-1.9.3-.8.5-1.5.5-2.3v-1.1l.1.1Z"/>
    <path d="M759.5,1237.2c-.2,1.1-.4,2.2-.6,3.4-.2,1.2-.3,2.3-.3,3.4h5.7l-.9,3.7h-4.8v14.2c0,.5.2.9.5,1.3s.7.6,1.4.6,1,0,1.6-.1c.5,0,1-.2,1.5-.3l.7,3.5c-.8.3-1.7.5-2.8.7-1,.2-2,.3-2.8.3-2,0-3.5-.5-4.4-1.4-1-.9-1.4-2.4-1.4-4.5v-14.2h-3.9v-3.1c1,0,1.8-.3,2.5-.7s1.3-1,1.9-1.8c.5-.7.9-1.5,1.3-2.4.3-.9.6-1.7.8-2.5h4v-.1Z"/>
    <path d="M773.9,1235.5c0,1-.3,1.8-1,2.5s-1.5,1.1-2.5,1.1-1.8-.4-2.5-1.1-1.1-1.6-1.1-2.5.4-1.8,1.1-2.5c.7-.7,1.6-1,2.5-1s1.8.3,2.5,1,1,1.5,1,2.5ZM773.1,1244v23.4h-5.6v-20.8l-.5-2.5h6.2l-.1-.1Z"/>
    <path d="M788.6,1267.9c-2.3,0-4.4-.5-6-1.6-1.7-1.1-3-2.5-3.9-4.4s-1.3-3.9-1.3-6.1.3-3.3.8-4.8,1.3-2.8,2.3-3.9,2.2-2,3.6-2.7,3-1,4.7-1,4.4.5,6.1,1.6c1.7,1.1,2.9,2.5,3.8,4.4.9,1.8,1.3,3.9,1.3,6.1s-.3,3.3-.8,4.8-1.3,2.8-2.3,3.9-2.2,2-3.6,2.7c-1.4.7-3,1-4.8,1h.1ZM788.7,1264.2c1.1,0,2-.3,2.7-.8s1.2-1.3,1.6-2.1c.4-.9.6-1.8.8-2.8.1-1,.2-1.9.2-2.7s0-1.8-.2-2.8c-.1-1-.3-1.9-.7-2.8-.3-.9-.9-1.6-1.5-2.1-.7-.5-1.6-.8-2.7-.8s-1.9.3-2.6.8c-.7.6-1.2,1.3-1.6,2.2-.4.9-.6,1.8-.8,2.8s-.2,1.9-.2,2.7,0,1.8.2,2.7c.1,1,.4,1.9.7,2.8s.9,1.6,1.5,2.1c.7.5,1.6.8,2.7.8h-.1Z"/>
    <path d="M809.3,1243.5c.2.5.4,1,.5,1.5s.2,1,.3,1.5c.9-.8,2-1.6,3.3-2.2s2.5-.9,3.8-.9,3.2.3,4.2,1,1.7,1.7,2.1,2.9c.4,1.2.6,2.7.6,4.3v15.8h-5.7v-15.2c0-.7,0-1.4-.2-2.1-.1-.7-.4-1.2-.8-1.6s-1.1-.6-2-.6-1,.1-1.7.4-1.3.6-1.9,1c-.6.4-1.1.8-1.4,1.2v17h-5.6v-16.7c0-.6,0-1.3-.1-2.1,0-.8-.2-1.7-.4-2.5s-.5-1.4-.9-1.9l5.9-.7v-.1Z"/>
  </g>
</svg>