<?xml version="1.0" encoding="UTF-8"?>
<svg id="Layer_1" xmlns="http://www.w3.org/2000/svg" version="1.1" viewBox="0 0 1536 1024">
  <!-- Generator: Adobe Illustrator 29.1.0, SVG Export Plug-In . SVG Version: 2.1.0 Build 142)  -->
  <defs>
    <style>
      .st0 {
        fill: #d60000;
      }

      .st1 {
        fill: #181916;
      }

      .st2 {
        fill: #968064;
      }

      .st3 {
        fill: #d89b7e;
      }

      .st4 {
        fill: #cdba9b;
      }

      .st5 {
        fill: #464642;
      }

      .st6 {
        fill: #5aba47;
      }

      .st7 {
        fill: #64625b;
      }

      .st8 {
        fill: #6d6759;
      }

      .st9 {
        fill: #efe2ce;
      }

      .st10 {
        fill: #d5bc2a;
      }

      .st11 {
        fill: #40403b;
      }

      .st12 {
        fill: #d5cea8;
      }
    </style>
  </defs>
  <path class="st1" d="M250.6,43.7c304.6.6,747.3-1.6,1051.6.7,39,18.4,73.9,45.8,111.2,67.7,10,6.2,33.7,18.4,40.6,25.1,22.7,16.9,7.7,157.4,11.5,194.9-1.1,145,1.3,398.6-.5,541.5-5,40.7-37.4,46.2-72.6,43.3-15.5,0-31,0-46.5.2-20.7,49.3-18.2,54.7-75,51.4-17.3-.6-83.5,1-99.6-.5-24.8-4-25-34.2-37.8-51-211.9.9-519-1-730.6,0-24.9,63.9-32,51.2-93.8,51.5-26.6-1.5-70.5,3.3-96.2-2-12.9-3.9-24.2-37.6-30.5-49.5-25.6-1.6-51.7,2.3-77.2-1.1-17.1-3.8-31.2-18.8-34.5-35.9-2-46.1.3-192.7-.5-241.4.5-108.5-.7-368.5.3-473.6.3-7.5,2.5-15.7,6.9-21.8,7-10.2,18.9-14.6,29.3-20.4,0,0,41-23.8,41-23.8s55.5-32,55.5-32c15.4-8.3,29.9-19.9,47.4-23.4Z"/>
  <path class="st5" d="M83.9,165.2c1.5-14.1,14-25.9,28.6-24.1,224.7-.6,449.5-.3,674.2,0,164.8-.5,342.6,0,507.8,0,30.7-.2,61.5-.2,92.2-.1,16.8,1.4,45.8-6.9,55.3,10.6,10.8,9.4,5.3,27.4,6.3,40.2-.2,20.7,2,42.3-1.1,62.6,3.6,29.2-.1,97.3,1.1,127.9,0,0,0,41.2,0,41.2-.2,6.6,1.6,15.2-1.3,21.2,4,132.6,0,291.9,1.2,425,3.4,40.5-49.1,32.2-76.3,31.9-260.3,0-1004.7-.7-1263.7-.7-28-8.9-25.1-29.2-24.4-54.1-3.1-129.3,2.2-546.1,0-681.6Z"/>
  <path class="st8" d="M83.9,165.2c2.1.9,4,1.3,6.3,1.5.7.9,1.3,1.8,1.9,2.8l2.1.7c-.2,236.3,0,486.4-.1,723.1-14.6-11-9.7-30.6-10.2-46.5-.1-129.2,0-546.2,0-681.6Z"/>
  <path class="st7" d="M94.1,487c-5.3-5.1-5.3-12.2-1.6-18.3-.4-2.1-1.7-1.7-2.4-3.4,2.4,0,2.6-.1,4.3,1.4-.4,6.5,1,14.1-.3,20.3Z"/>
  <path class="st7" d="M94.2,242.8c-2-6.8.2-14.7-.7-21.7l-3-1.7-.2-1.2c1.2-.3,2.2-.7,3.2-1.2,0-1.7,0-2.9.8-4.5.3,10.1.2,20.2-.1,30.3Z"/>
  <path class="st7" d="M94,879.3c-1.3-.3-1.8-.7-2.8-1.6.5-2.1,1.8-2.9,3.4-4.3l-.6,5.9Z"/>
  <path class="st7" d="M648.9,141.1c212.5-.4,432.8-.2,645.6,0,.3,2,.3,3.3-.2,5.2-3.4,3.2-7.5-1.1-11.4.2l-.5.7c1.3.8,2,.5,3.4.4-1.2,2-2.8,1.8-3.5,3.9-6,1.6-19.7.7-26.3,0-13.2.7-39.7,1.5-54.5,0-171,1.2-342.5.6-513.1,0-7,1.9-33.8.3-42-.4,0-3.4.3-6.7,1.5-10h1Z"/>
  <path class="st8" d="M1242.1,151.5c1.2-1.1,1.7-1.2,1.8-2.9l-1.7-2.1.2-1c4.1,6.5,15.2-2.5,21,1.8l.5,1.5c-.9,1.5-1.6,2.4-3,3.5-.7,0-4.2-.4-4.9-.5-3,1.2-10.6.2-13.9-.1Z"/>
  <path class="st7" d="M1256,151.6v-1.9c.1,0,1.4-.8,1.4-.8,1.5.6,2.5,1.4,2.5,3.1l-3.9-.5Z"/>
  <path class="st8" d="M647.9,141.1h1s-.5,4.3-.5,4.3l1.6-.7c2.8,1.5,3.1,3.7,4,6.7-2.5,0-5.4.9-7.6-.3,0-3.4.3-6.7,1.5-10Z"/>
  <path class="st5" d="M1034.6,141.2c11.8-.1,24.3-.9,36.1,0v1.5c-1.5,1.6-9.9-.4-13-.3-5-.5-19.9,1.8-23.1-1.2Z"/>
  <path class="st8" d="M1194.9,151.5c1.2-2.4.5-3.9,1.7-6.1,1.8-.2,2.9,0,4.6.6,1,1.8.5,3.6.3,5.5-1.6.8-4.8,0-6.6,0Z"/>
  <path class="st5" d="M786.6,141.1c7.9,0,16-.3,23.9.1-4.3,1.5-20,3.8-23.9-.1Z"/>
  <path class="st8" d="M1083.4,151.6c.4-3.4,3.2-6.7,6.8-4.9l.8,1.4c-1,3.3-4.5,3.8-7.6,3.5Z"/>
  <path class="st8" d="M839.8,151.5c2.3-2.7,7-6.1,9.5-1.9v2.1c-.1,0-9.5-.3-9.5-.3Z"/>
  <path class="st8" d="M688.4,151.5c1.7-2.5,2.2-1.6,3.5-2.8,1.2-1.2-1.4-2.8,1.5-3.4l1.2,1c.2,1.5.4,2.6-.3,4l.9,1.7-6.8-.4Z"/>
  <path class="st8" d="M796.8,151.8c1.4-2.6,3.8-5.2,7-5,.3,2.2-1.2,3.9-2.9,5.1h-4.1Z"/>
  <path class="st8" d="M992.9,151.5c1.9-1.5,3-3.1,5.4-2.8,1.2,1.1,2.7,1.8,3.9,2.9h-9.3Z"/>
  <path class="st8" d="M1044.9,151.6c1-2.3,2-5,4.9-5.1.7,1.7.3,2.2,0,4-1.4,1.1-3.1.9-4.8,1.1Z"/>
  <path class="st8" d="M904.4,143.3c3.3.5,4.5,4,5.5,6.8v-.5c-2.4.5-6-.2-7.9-1.8,1.4-.8,2.1-1.2,3-2.6l-.6-2Z"/>
  <path class="st8" d="M1123,142.2c2.1.5,3.3,1.6,4.8,3.1l-.8.9-2.3-.2c-1.5,1.3-2.2,1.2-4.1,1.5l-.8-.8c1.6-1.5,2.6-2.2,3.3-4.4Z"/>
  <path class="st8" d="M1291.2,142.2l1.5.4v1.7s-1.5,1.4-1.5,1.4c-.9-.3-3-1.1-3.9-1.5l.2-.9,3.7-1.2Z"/>
  <path class="st8" d="M1014.1,141.6c1.4.1,3,0,4.2.9v3.1c-1.5,0-2.8.1-4.1-.9v-3.2Z"/>
  <path class="st8" d="M686.3,144.3c1.5.5,2.5.6,3.5,1.9l-1.2,2.1c-1.6-.8-2.7-1-3.6-2.5l1.3-1.5Z"/>
  <path class="st8" d="M805.2,145.4c1.1.7,2.4,1.1,3.6,1.7l-.8,1.3-1.1.4-1.1-.6-.6-2.8Z"/>
  <path class="st8" d="M1222.1,142.2l2.5.4-1.9,1.1-.4-.2-.2-1.3Z"/>
  <path class="st7" d="M83.9,165.2c1.5-14.1,14.1-25.9,28.6-24.1,178.4-.3,357-.7,535.4,0-1.2,3.2-1.5,6.6-1.5,10l1.4.6c-27.4,1.8-63.6-.5-91.5.3-35.2-.5-70.2.8-105.4-.4h-.2c-29.9.2-66-.2-97.2.5-40.2-2.2-81.3,1.1-121.6-.2-27.1-.2-63.9,0-94-.4-15.7,1.6-46.6-6.5-43.8,18.6l-2.1-.7c-.6-1-1.2-1.9-1.9-2.8-2.2-.2-4.2-.6-6.3-1.5Z"/>
  <path class="st8" d="M521.8,151.5c2.6-2.9,4.3-.8,4.2-5.5l-1.2-1.4c-1,.7-1.6,1.4-2.3,2.3l-.9-.8c4.2-6.6,4.9-2.5,9.4-1.6l1.2,1-.7,1.7,1,1h2.7s1,1.9,1,1.9c1.3-.4,1.7-1.1,2.7-2.1l.9.6.3,2.8-.6.8c-5.9-.1-11.8-.3-17.6-.7Z"/>
  <path class="st8" d="M450.9,151.6c1.8-1.5,2.2-1.6,4.5-1.9l-1.7-3.3.8-.6c2.1,1.5,3.2,3.9,5.6,4.6,2.2-1.5,2.8-4.7,5.1-5.6l1.2.5c0,2-.4,3.9.7,5.7,2,.6,3,.1,5-.3l.2,1c-6.1,1.5-15.1.2-21.4,0Z"/>
  <path class="st8" d="M611.9,151.6c-1.6-3.7,1-7.3,4.7-8.2l2.2.8c-.6.6-1.2.9-2,1.2,1.3,2.2,2.8,4.1,4.3,6.2-3.1.6-6.1.2-9.2-.1Z"/>
  <path class="st8" d="M487.6,151.5l.4-1.2c2.8-.1,6,0,8.1-2-.7-2.2-1.6-4.1-1-6.4h.7c0-.1,2.1,1.9,2.1,1.9-.2,2-1.7,1,.3,3.5.6.7,1.3,1.3,1.9,1.9-.6,1-1.2,1.9-1.9,2.8-3.5,0-7.2-.3-10.8-.5Z"/>
  <path class="st8" d="M432.7,152c-.2-2.1.3-3.8,1-5.8l-1.5-1c1.3-1.4,1.8-1.5,3.5-2.1,1.9.5,1.8.5,2.9,2.1-.5,2.2-1.2,4.4-.7,6.6h-5.3Z"/>
  <path class="st8" d="M138,151.5c.7-.6,1.5-1.2,2.2-1.8,0-1.3,0-2.5,0-3.8-1.1.5-1.9,1-2.9,1.9l-.9-.8v-1.4c1.4-1,2.7-1.8,4.2-2.5.2,2.5,2.3,3.4,4.4,4.2l.3.9c-.9,1.4-1.8,2.5-3,3.7l-4.4-.4Z"/>
  <path class="st8" d="M512.5,151.6l1-.7-.2-.8c1.9-.8,2.3-2.5,3.6-3.8,2.3.4,3.3,1.8,3.6,4.1l-.9,1.6c-2.4,0-4.7.1-7.1-.4Z"/>
  <path class="st8" d="M125.9,151.5c-1.3-1.6-2.3-2.4-2.6-4.5,1.5-1.5,3.1-2.5,5-3.5-.9,2.1-2.2,4.1-1.5,6.4l2.1,1.9-2.9-.3Z"/>
  <path class="st8" d="M250.3,145.4l1.1.5c.5,2.4.8,3.5,0,5.9-1.4-1.3-2.8-2.5-4.3-3.6l.2-1.3,3-1.5Z"/>
  <path class="st8" d="M198.1,152c0-3-.8-5.6-.3-8.5l.5.3-.6.3.3-.6-.3,2.6,1.2-.7c1.6,2,1.3,4.2,1.7,6.5l-2.4.2Z"/>
  <path class="st8" d="M353.5,152.1c.5-1.6.8-3.9,2.1-5,.7,1.5,1.4,3.5,2.6,4.7l-4.6.3Z"/>
  <path class="st8" d="M281.9,151.6c2-1.4,2.8-2.8,3.4-5.1.7,1.8,1.5,3.6,2.1,5.4l-5.5-.3Z"/>
  <path class="st5" d="M112.5,141.1c2.9,0,5.8,0,8.7,0l-4.8,1.1c1.1.4,1.4.7,2.1,1.6l-1.1.3-3.5-2.5-.8.3-.5-.8Z"/>
  <path class="st8" d="M390,152.1c-.2-1.4-.6-2.6-1.3-3.8v-1.7c1.6,1.2,2.5,3.1,3.5,4.8l-2.2.7Z"/>
  <path class="st8" d="M153.6,143.9l1.1-.3c1.1,1.4,1.6,2.2,1.7,4-1.2-1.2-2.6-1.8-4.1-2.6-.6,1.1-1,2.2-2.1,3l-1.4-.4v-1.3c1.5-2,2.6-1.9,4.9-2.4Z"/>
  <path class="st8" d="M637.7,146.7l.2.2c1.4-.2,2.7,0,4.1.1l.4.7c-3.3,1-3.2,4.3-7.4,3.7l-.7-.7c2.3-1.5,2.5-1.5,3.3-4.1Z"/>
  <path class="st8" d="M204,145.4c1.6,1.1,3.7,1.8,5.5,2.7l-1.5.6,1.5-.5c-1.2.8-3,.6-4.4.5-1.3-.2-1.6,1.1-3.3,1.1l-.9-1.6,3.1-2.8Z"/>
  <path class="st8" d="M634.5,145.5l.6.4c-.2,1-.1,1.2-.8,2-1.3.2-2.3.8-3.5,1.4l-.3.9-.7-.9c1.2-2.3,2.5-2.6,4.7-3.7Z"/>
  <path class="st8" d="M166,145.8l1.2-.7c1.2,1.5.9,2.5,1.1,4.4-1.4-.8-2.4-1.5-3.5-2.7l1.3-1Z"/>
  <path class="st8" d="M568.3,147.4c2.1.3,2.7.2,4.3,1.5l-.4.8-1.2-.5-4.5,1.3c-.1-1.3.9-2.1,1.7-3.1Z"/>
  <path class="st8" d="M543.5,142.4c.9,1,1.2,1.5,1.3,2.9l-1.4,1.6-2.4-.6-.4-1,2.8-2.9Z"/>
  <path class="st8" d="M472,145.2l2.3.7.4,1c-.7.4-2.3,1.1-3.1,1.4l-.7-.4,1-2.7Z"/>
  <path class="st7" d="M1298.8,141.2c29.3-.4,58.6-.1,87.9-.2,16.7,1.4,45.9-6.9,55.3,10.6-2.2,1.4-21.3,1.2-24.7.6-8.1.7-17.7.6-25.9,0-18.7-.3-50.1.9-68.5-.6-3.4,1.5-16.5.9-20.4-.2-5.4,1.2-14.5.5-20.3,0,.7-2.1,2.3-1.9,3.5-3.9-1.4,0-2.2.3-3.4-.4l.5-.7c3.9-1.3,8.1,3,11.4-.2.5-1.9.6-3.3.2-5.2h4.4Z"/>
  <path class="st8" d="M1322.9,151.7l-1.3-.7c.9-.4.5-.3,1.4,0l-2.3-3.3.6-.9h1.4s.8-2.1.8-2.1l1.4.2.9-1.5c3.6,1.1,5,5.1,9.4,4.2l-2.5-2,.3-.9,2.8-.9c1.4,1,2,2.5,2.7,4.1,3.2-2.4-1.5-3.7,5.9-3.8l.8.9-.4,2.1,1.1.4c1.3-.9,1.9-2,2.8-3.3,5.9-1.3,10.4,3.8,14.6,7.1v.9c-4.1.5-37.2.3-40.2-.4Z"/>
  <path class="st8" d="M1294.5,141.2c.2,0,4.8,0,4.7.2,2.3,1.1,6.1.9,7.5,2.8-.8,1.3-1.3,1.9-2.5,2.8,2,0,3.5.2,5.4.6l.6,1.1c-5.1,5.1-20.8,3.1-27.9,2.8.7-2.1,2.3-1.9,3.5-3.9-1.4,0-2.2.3-3.4-.4l.5-.7c3.9-1.3,8.1,3,11.4-.2.5-1.9.6-3.3.2-5.2Z"/>
  <path class="st8" d="M1386.6,152.1l-1.5-1.1c2.1-1.9,5-4.8,8.1-4,.1,1.2-.8,4.3-1.7,5.2-1.5-.3-3.3-.2-4.9-.2Z"/>
  <path class="st8" d="M1414.5,152.2l-.7-2.1c1.4-1.4,1.5-1.3,3.4-1.5l1.7,1.2c0,1.4-.5,1.4-1.5,2.4h-2.9Z"/>
  <path class="st8" d="M1363.1,146.7c2.8-.6,6.8-2.1,8.6.9l-.5,1.7h-1c0,.1-.6-1.8-.6-1.8-2.6,1.7-4.4,1-7.4.7l-.3-.7,1.2-.8Z"/>
  <path class="st8" d="M1311.9,145.2h1.7c1.1,1,2.1,2,3,3.1l-.7.8-3.3-.2c1,.5,1.6.9,2.3,1.9l-.8.5c-1.9-2.1-1.8-3.4-2.3-6.1Z"/>
  <path class="st8" d="M1414.1,142.2l1.7.6v.9c-.1,0-2.6.9-2.6.9l-1.1-.8,2-1.6Z"/>
  <path class="st11" d="M94.3,464c-.2-3.6-.7-7.3,0-10.8.7,5.1,3.3,6,3.6,9.1-1.2,1.3-1.9,1.3-3.6,1.8Z"/>
  <path class="st11" d="M94.2,452c-1-3.7-.4-8.8.3-12.6.1,2.4.2,4.8.6,7.2l2.9,1.7-.2,1.5-1,.7-1.6-.4-.9,1.8Z"/>
  <path class="st11" d="M1366.8,901.6c1.6-1.3,3.1-3.3,5.1-3.6.8,1.6.4,2,0,3.6h-5.2Z"/>
  <path class="st11" d="M1447.3,254.4c-1.1.7-1.1.4-2.3.3l-.7-1.2.6-1.2,2.3-.4v2.5Z"/>
  <path class="st11" d="M1447.3,447.9c-.5,1-.2,1.6-1,2.6h-.6c-.2-2.5.2-3.7,1.3-5.8l.2,3.2Z"/>
  <path class="st11" d="M1201.3,901.6c2.4-.9,3.4-3.2,6-3.6-.5,1.5-.9,2.3-2,3.6h-3.9Z"/>
  <path class="st11" d="M304.3,901.2c1-1.8,1.2-2.7,3-3.8,1,1.3.7,1.9.6,3.5l-3.7.3Z"/>
  <path class="st1" d="M111.7,643.3c0-139.9-.2-318.4,0-458.2,0-3.7-.2-12.3,2.7-14.7,242.1-7.3,564.5,0,807.1-2.8,2.9,2.3,5.6,5,8.4,7.5.4,18.5-.2,37.1.4,55.5.3,2.7,3.3,7.6,3.4,9.8-6.1,11.4-1.1,11.2-3.4,21.9-.6,39.1-1.2,79.3,1.2,117.7,1.5.4,2.4.3,3.8,0l.7,1.1c-1.3.8-2.3,1-3.8,1.1-4.6,101.8-2.5,260.5-.9,360.8,1.4-.3,1.9-.8,3.2,0-.9,3.6-3.2,1.8-4.4,8.2,0,0,0,3.8,0,3.8,2.2,6.6,2.1,18.4.5,25.2l-.5.5c-.5,24.7,1.3,72-1,96.1-9,9.2-13.1,8.7-25.3,8.8-137.6.3-487.9,0-620.5.4-4.5,2-5.8,0-8.2,5.8h-1c-1.3-1.3-2.4-2.5-3.5-4l.5-1.9c-47.3-2.3-95.3,1.8-142.6-1.1-21-1.7-17.6-27.3-16.9-42.4,0-19.7,0-154,0-176.6-.3-3.6-2.9-6-4.1-9.3,1.3-.5,1.4.5,2.9.5,1.4-3.2.3-7.3-1.6-10.1.5-2.1,1.2-2.3,2.8-3.6Z"/>
  <path class="st11" d="M930.2,230.6c2.5,8.9,5.5,7.7.4,16.5-1.1,4.9,1.5,9.9-.4,15.2-.2-10.6-.3-21.1,0-31.7Z"/>
  <path class="st11" d="M271.1,885.9c4-.3,8.3-.8,12.2,0-4.5,2-5.8,0-8.2,5.8h-1c-1.3-1.3-2.4-2.5-3.5-4l.5-1.9Z"/>
  <path class="st11" d="M111.6,665.9c-.3-3.6-2.9-6-4.1-9.3,1.3-.5,1.4.5,2.9.5,1.4-3.2.3-7.3-1.6-10.1.5-2.1,1.2-2.3,2.8-3.6v22.6Z"/>
  <path class="st11" d="M930.2,719c2.5,7.6-1.2,16.9,1.1,24,1.4-.3,1.9-.8,3.2,0-.9,3.6-3.2,1.8-4.4,8.2,0-10.7,0-21.5.1-32.2Z"/>
  <path class="st11" d="M930.2,366.4c2.7,5.9,1.4,8,1.3,13.7,1.5.4,2.4.3,3.8,0l.7,1.1c-1.3.8-2.3,1-3.8,1.1-1,2.5-1.2,5.1-2,7.7-.2-7.8-.2-15.6,0-23.5Z"/>
  <path class="st11" d="M930.2,755c2.2,6.6,2.1,18.4.5,25.2l-.5.5c-.2-8.6-.2-17.2,0-25.8Z"/>
  <path class="st12" d="M144.4,183.4c210.3-.2,547.3.5,754.7,0-.2,97.9,0,361.1,0,462.5h-282.6c-23-52.4-99.9-63-138.2-21.5-75.9-65.5-176.2-152.7-252.5-217.8-5-4.9-14.1-5.2-15,3.4-.1,7.8,14.7,16.6,19.6,21.7,79.8,66.8,159,137.3,238.2,204.9-2.3,2.7-4.9,5.3-5.9,8.8-74.8,2.3-241.3,0-318.3.7V183.4Z"/>
  <path class="st10" d="M144.4,183.4c210.3-.2,547.3.5,754.7,0-.2,93.2,0,357.9,0,454.8-2.5-76.5.2-352.5-.7-433.7-164.7.2-563.8-3.1-733,1.1-3.2,2.6-2.8,13.6-2.8,17.7-.1,127.8.4,294.4,0,421.8,81.8,1.3,206.3-1.5,287.9.8-68.1.5-235.8-.1-306,0V183.4Z"/>
  <path class="st10" d="M230.4,431.5c79.8,66.8,159,137.3,238.2,204.9-2.3,2.7-4.9,5.3-5.9,8.8-75.8-71.2-161.4-137.8-232.3-213.6Z"/>
  <path class="st1" d="M567.3,255.4c12.6-.3,3.2,26,3.8,34,20.7.5,41.4,4.4,61.6,8.8,1.5-6.5,1.5-15.1,7.1-19.5l1.2.7c2.1,6.7-.3,13.7-1.8,20.2,22.9,5,44.6,12.8,66.1,22.1,3.2-6.1,5.2-15.1,12.2-17.8l.9,1.2c-.1,7-4.1,12.9-7.2,18.9,14.6,6.8,28.7,14.2,42.4,22.7,3.5-5.4,7.9-14.3,14-16.9l1.1.5c.7,6.1-6.5,14.7-9.9,19.6,5.6,3.8,10.9,7.9,16.2,12.1,3.4-3.5,16.8-19.2,20.7-19.6,4.8,9.6-15.6,24.4-22,29.8-142.7-110.3-364.2-98.6-500.5,17.1-5.8-5-29.9-23.4-26.8-31,8.3-1.2,20.4,15.1,26,20.4,13.9-10.8,27.8-20.8,42.5-30.4-3.2-4.9-9.8-13.2-8.6-19.3l1.3-.4c5.9,2.9,9.5,11.1,12.6,16.5,10.4-6.2,21.2-11.8,32.2-17-4.2-7.9-13.9-21.8-15.1-30,.8-1.8.9-2.3,2.5-3.4,8.9,3.3,14.1,22.3,18.9,30.4,5.7-2.7,11.5-5.2,17.3-7.6-2.1-4.8-6.2-11.5-4.2-16.9l1.4-.2c4.9,4.1,6.2,9.3,8.3,15.1,6-2.4,12-4.4,18.1-6.5-.9-5.1-11.6-21.3-3.1-22.7,4.8,3.2,7.5,15.3,9.8,20.8,6.1-2.2,12.2-3.8,18.4-5.4-1.2-5.6-4.9-12.4-1.4-17.7l1.2.4c4.1,4.8,4.7,10,5.9,16,7.4-1.8,14.8-3.4,22.2-5.1-1.4-5.9-8.4-28.6-6.2-32.9,1.7-1,1.8-1.2,3.8-1.1,4.5,3.7,7.9,26.2,9.4,33,5-1.3,10.3-1.8,15.5-2.5-.4-5.6-2.9-12.2.8-17.2l1.2.2c3.7,5,3.5,10.3,4,16.3,6-1,11.9-1.7,17.9-2.1,0-6.5-2.6-14.3,1.6-19.9l1.2.5c3.4,5.5,2.9,13,3.1,19.3,19.4-1.5,39.6-1.8,59,0,.2-10.1,0-24.1,3.5-33.6Z"/>
  <path class="st1" d="M474.7,362.6c9.7.4,8.1,22.7,10.1,30,13.5-2.3,27-3.6,40.7-3.4-.3-3.9-2.3-11.4,2.8-12.6,3.6,2.5,2.9,8.2,2.9,12,13.1,0,25.9.4,38.9,1.6,1.1-8.8,1.2-20.7,7.1-27.8l2.1.3c3.5,8.5,0,19.9-1.7,28.6,13.5.8,27,3.9,40.1,7,1.5-4.1,2.5-13.1,8.1-12.7,2.6,3.7-.6,10.3-1.9,14.1,17.3,4.3,33.9,11,50.5,17.5,3.9-4.6,12.2-29.9,19.7-20.4,1.2,5.9-9.8,17.9-12.3,24,11.8,6.2,23.5,12.5,34.6,19.9,3.4-4.3,6.4-9.6,12-11.1l.9.8c-.4,5.7-4.2,9.5-7.5,13.9,9.3,6.2,17.8,13.1,26.4,20.3,6.9-6.5,15.6-17.8,25-20l1.8,1.5c-1.5,7.9-20.8,24.3-27.7,28.7-115.2-102.7-305.5-104.8-419,1.5-4.8-6.1-24.5-23.2-23-31,6.3-6.2,19.2,15.2,23.5,19.2,20.4-17.5,41.1-31.4,65.1-43.3-1.7-6-18.9-27.5-8.9-30,6.9,2.9,12.7,19.5,16,26.5,11.2-5,22.6-9.4,34.2-13.2-1.7-4.8-4.7-10.1-2.5-15.1l1.3-.2c4.4,3.4,5.3,8.5,6.8,13.6,11.9-3.8,23.9-6.4,36.2-8.7-.7-10.2-7.2-21.9-2.4-31.5Z"/>
  <path class="st0" d="M530.8,402.5c73.6-2.8,162.1,24.8,213.5,79.7-7.2,7.1-15.8,19.2-26.6,19.3.5-7.7,9.6-12.9,14.7-17.9-18.7-17.5-38.7-29.6-60.8-42.3-4.5,5.3-10.4,22.9-18,22-5.6-5.7,8.3-19.5,11.3-25-27.7-12.3-59.9-21.8-90.1-24.5-1.6,8.6.8,19.6-5.1,26.6-2,0-2-.2-3.5-1.4-2.2-6.8,1-19,1.8-26.2-25.9-1.5-53-2.8-78.5,3,1.1,8.8,4.3,18.4,1.6,27.1l-1.8.6c-5.1-5-5.8-19.4-6.9-26.4-23.4,4.6-47.6,10.7-69,21.4,1.3,7.4,11.9,19.9,8.2,26.5-8,2.5-12.1-17.8-15-23.3-23,10.9-42.3,23.7-61.8,40,4.3,5.3,16.1,14.2,16.8,20.6-.8,1.8-.9,2.1-2.6,3.3-4.4-.2-21.7-20.5-26-25.2,51.8-50.6,126.4-75.6,197.9-77.8Z"/>
  <path class="st5" d="M576.7,661.1c73.4,1.2,262.1-.3,338.2.2.3,47.9-.4,162.8.1,209-244.4-.3-545.8.9-787.6,0,1.5-69.5-1.2-139.2.5-208.7h373.8c-5.4,63.9,83,64.2,74.9-.4Z"/>
  <path class="st11" d="M422.6,870.2l-.2-1.7c1.5-1,3-1.1,4.8-1.3l.2.9c-1.3,1.2-3,2.2-4.8,2.2Z"/>
  <path class="st1" d="M469.7,773.9c9-1.2,15.1.7,23.5,3.7,25.7-9.5,24.7,7.6,35.6-2.5,7.5-1.1,15.7-1,22.1,3.1,1.7.5,3.5-1.1,5-1.9,6.8-3.8,16.1-.7,23.6-.6,14,.5,29.1-3.9,41.8,4.4,15.4,10.3,14.1,31.7,3.4,44.9,4.8,8.9,8.8,18.3,7.6,28.6-5.9,7.8-17.2,6.5-25.8,5.2l-4.4-3.7c-2.3.2-3,1.6-4.5,3.2-9.6,3.1-20,2.6-27.1-5.1-11.4,13.4-25.1,4.4-34.3,3.5-13.7,4.6-24.7,7.3-33.5-7.6-16.1,22.2-62.4,13.7-58.1-17.8.4-6.5,3.5-5,7.3-8.5-.2-3.2-7-10.9-8.1-20-2.6-15.6,10.5-28.7,25.7-28.9Z"/>
  <path class="st9" d="M502.9,784.8c2.7,0,7.1-.5,9.5.8,2.7,1.5,8.1,34,9.6,39.6,3.1-13.3,6.4-26.7,9.9-39.9,3.5-.2,7.1-.2,10.6-.3,4.4,12.6,6.8,27.2,9.5,40.4,3.3-13.3,5.4-26.8,8.8-40.1,17-3.7,10.4,12.6,7.7,22.3-2.8,14.1-5.3,28.4-9.1,42.2-4.6.1-9.2,0-13.9-.3-3.4-12.2-4.6-24.9-8.4-37-3.6,12.4-5.7,25.2-9.7,37.4-3.9.1-9,.8-12.5-1-3.2-8.7-16.2-58-12.1-64.2Z"/>
  <path class="st9" d="M581.8,785.7c12.1-.6,27.6-2.7,37,6.7,7.5,9.9,3.9,24.6-6.4,31.1,3.8,7.1,19.2,30,.7,26.3-2.3-.4-2.8-1.1-4.1-2.7-3-6.6-4.7-26.6-15.2-20.7-5.1,6.2,2.5,17.1-3,23-2.9.7-7.2,1.2-9.9-.4-2.4-10.7-2.6-55.9.9-63.3Z"/>
  <path class="st1" d="M592.6,796.7c11.1-1.5,21.9,4.4,14.5,16.3-4.7,1.9-9.5,1.6-14.4,1.5-.4-5.9,0-11.9,0-17.9Z"/>
  <path class="st9" d="M472,783.5c10.9-1.9,25.3,6.1,20.6,18.6-5.6,3.7-10.3-6.8-15.7-7.4-4-.7-9.7,1-9.9,5.8-.1,9.8,20.1,10.9,25.9,16.9,6,7.1,5.8,19,.4,26.4-9.9,15.2-47.4,6.8-37.6-13.7,4.4-.5,10,6.2,13.6,8.6,7.6,6.3,17.9-.3,14.9-9.8-2.8-8.3-15.2-7.8-21.7-11.5-9.4-4.4-9.7-17.7-5.3-25.7,3.2-5.3,9.3-6.9,15-8.2Z"/>
  <path class="st1" d="M211.3,797c33.5-5.9,42.9,43.9,9.5,50.5-33.1,5.4-42.3-43.6-9.5-50.5Z"/>
  <path class="st11" d="M213.1,812.2c12.1-3.8,18.5,14.8,6.7,19.4-13.1,5.2-20.2-15.3-6.7-19.4Z"/>
  <path class="st1" d="M824.6,797.9c33.2-7.1,44.4,42.2,11.4,50.1-32.9,6.7-43.9-42-11.4-50.1Z"/>
  <path class="st11" d="M827.3,811.6c12.6-2.1,19.5,16.8,5.8,20.5-13.7,3.5-16.3-14.6-5.8-20.5Z"/>
  <path class="st11" d="M215.9,669.1v1.2c-1.2,1.8-4.2,2.3-6.2,2.9v-1.1c1.4-1.7,4.2-2.3,6.2-3Z"/>
  <path class="st11" d="M674.5,865.9l1.3.7c-.7,1.3-1.7,1.8-2.9,2.6-.6-.7-.9-1.3-1.3-2.1l3-1.1Z"/>
  <path class="st8" d="M130.1,183.1c2.3,0,4.2.2,6.3,1.1,1.7,58.6-.3,379.8.4,446.1.3,5.8,1.6,21.5-8.2,13.7-2.1-127.3.3-300.3-.6-428.3.8-7.2-2.4-28.7,2-32.6Z"/>
  <path class="st8" d="M908.2,182.8c1.4.2,2.8.4,4.2.6,5.4,3.9,2.1,13.2,2.6,19,0,0,0,47.9,0,47.9-1.1,107.8,2.1,289.6-1.1,395.4-2.4,0-4.7.1-6.9-1,.6-141.2-3-321.3,1.2-462.1Z"/>
  <path class="st2" d="M513.7,666.6c-5.2-43.8,53-44.8,52.5-2.9,5.4,42.3-54,45.3-52.5,2.9Z"/>
  <path class="st9" d="M563.4,683.6c-2.6-.1-3.9,0-5.6-2-1.5-7.1.3-16.4,8.4-17.9,0,7.3,0,13-2.8,19.9Z"/>
  <path class="st4" d="M565.4,653.5l-1,1.4c-9,3.6-11.4-9.8-11.5-16.1l1.4-1.1c5.7,4.5,9,8.8,11.1,15.7Z"/>
  <path class="st4" d="M513.7,666.6c2.4,3,7.1,5.1,8.9,8.3-.2,3.6-3.1,6-5.6,8.5-2.3-5.8-3.3-10.6-3.2-16.8Z"/>
  <path class="st4" d="M539.3,657c14,1.3,16,20.4,1.7,23-14.4-.8-16.2-20.1-1.7-23Z"/>
  <path class="st9" d="M528.9,639c7.4-.6,9,6.5,2.3,9.5-8.6,0-10.5-5.7-2.3-9.5Z"/>
  <path class="st11" d="M481.7,648.1c18.1-29.4,57.9-38.7,88.3-23.8-2.9,3.2-1.1,6.7-3.1,9.7-19.5-17.1-56-12.6-64.1,14.2h-21Z"/>
  <path class="st5" d="M566.8,634c2-3.1.2-6.6,3.1-9.7,11.3,5.1,20.6,13.8,27.6,23.9h-21.2c-2.8-5.1-5.6-10-9.6-14.1Z"/>
  <path class="st1" d="M1221.6,474.6c-67.4-40.2-70-141.3-4.7-184.9,73.1-51,175.6,4.6,172.7,93.7-1.4,84-96.8,135.9-168,91.1Z"/>
  <path class="st11" d="M1282.3,338.3c2.8-.7,5.5-1.7,8.4-1.2.8,3,.9,34.7-.7,37.2,2.1,1.7,6.5,6,7,8.5,5.2.1,14.7,1.2,18.8-2.4,6.5-5.3,6.1-32.9,3.1-40.1,35,10.9,50.8,63.8,26.4,91.2,0,2.4-1.4,3.5-3.5,4.4-12.6,19-39.8,24.3-61.3,19.9-18.5-4-30.2-17.8-40.1-32.8.2-3.1-1.9-7.2-3.7-9.8-7.4-34.4,10.5-66.6,45.5-74.9Z"/>
  <path class="st7" d="M1282.3,338.3c-.6,2.1-1,2.4-2.9,3.5-17.4,7.5-30.1,26.5-36.3,44-3,8.1.7,22.3-4.1,27.9l-2.3-.4c-7.4-34.4,10.5-66.6,45.5-74.9Z"/>
  <path class="st5" d="M1236.8,413.2l2.3.4,1-1.2c1.2,3,1.9,6,1.5,9.2l-1.1,1.3c.2-3.1-1.9-7.2-3.7-9.8Z"/>
  <path class="st11" d="M1232.8,299.9c34.1-19.3,89.1-17.3,113.3,15.6,16.3,10.3,31.9,49.3,25.5,67.8-.2-37.8-32.8-72.4-68.6-81.3-21.5-6.1-43.2-.2-63.6,7.1.9-2.3,2.7-3.7,3.2-6.2l2-1.3,1.6-2.4-.3-1.4c-3.8-2-9.4,1.6-13.3,2Z"/>
  <path class="st5" d="M1232.8,299.9c34.1-19.3,89.1-17.3,113.3,15.6-21.6-18.2-54.2-30.3-82.2-21.6l-1-1.4c-5.7,2-12.2,8.8-18.1,9.1l1.6-2.4-.3-1.4c-3.8-2-9.4,1.6-13.3,2Z"/>
  <path class="st7" d="M1232.8,299.9c3.9-.4,9.5-4,13.3-2l.3,1.4-1.6,2.4-2,1.3c-1.5,4.7-4.8,8.8-9.9,9.9-3.3,5.7-16.7,12.8-22.1,21.6-4.7,7.7-9.8,16.6-12.6,25.2-2.1,5.4-.6,14.6-5.1,18.3-.1.5.4,1.9.6,2.4-6,8.6,0,21.4-2.1,30.9v-2c-.5,1.5-.9,3.5-2.1,4.7,1-5.4-3.2-14.4-4.2-20.1-5.6-37.9,14.7-75.4,47.6-94Z"/>
  <path class="st11" d="M1232.9,312.8l-.2-1.5c2.4-3.6,6.5-6.2,10.1-8.4-1.5,4.7-4.8,8.8-9.9,9.9Z"/>
  <path class="st8" d="M1193.1,378.7c-3.1,1.3-3.6,4.5-6.1,6.4l-1.3-1.1c1.8-2.7,3.6-4.8,4.4-8.1,1.1,1.4,1.3,1.5,3,2.1v.7Z"/>
  <path class="st11" d="M1194.1,377.4c-.2,53.5,24.5,81,72.9,97.7-36.3-4.6-63.4-28-77.6-61.1,1.2-1.1,1.6-3.1,2.1-4.7v2c2.1-9.5-3.9-22.3,2.1-30.9-.2-.5-.7-1.9-.6-2.4l1.1-.7Z"/>
  <path class="st11" d="M1219.3,347c3.4-.9,12.2,5.3,14.6,7.5-.1,1.9-9.7,22.5-11.1,25.3l-.8.3c-4.2-2.5-8.4-5.1-12.8-7.3.7-.9,9.8-24.1,10.1-25.8Z"/>
  <path class="st5" d="M1248,321.5l2.1.2c3.5,2.6,8.5,6.2,10.3,10.1-1.9,2.6-17.2,12.7-19.7,13.2-2.3-3.7-9.2-7.7-13.1-9.5,6.8-4.4,13-10.5,20.4-14.1Z"/>
  <path class="st9" d="M1302.6,338c2.3,0,6.1-.9,7.1,1.9,1.5,3.9,1.2,28.8-.7,32.4-1.5,2.3-4.8,1.7-7,.9-2.1-3.3-4.1-32.1.7-35.2Z"/>
  <path class="st11" d="M1208.2,386c3.5-.6,10.1,3.4,12.6,5.6,2.1,3.8,2.4,12.5,1.1,16.7l-.8.3c-3.9-2.1-7.8-4.3-11.7-6.5,1.2-3.2-.4-12.5-1.3-16Z"/>
  <path class="st11" d="M1276.3,313.2c4.1,1.3,9.5,6.7,10.8,10.7-16.5,2.3-13.7,4.8-25.9-8.2,5-.3,10.2-1.6,15.2-2.5Z"/>
  <path class="st5" d="M1295.6,314.7c9.1.7,21.5,4.4,27.3,12-9.4-.4-21.2-4.5-27.3-12Z"/>
  <path class="st5" d="M1215.9,421.2c8.6.6,17.1,9.9,18.6,18-9-4.6-11.6-12-18.6-18Z"/>
  <path class="st1" d="M1278.3,521.1c77.5-7,137.3,73.9,108,145.9-32.1,83.7-149.9,91.8-193.3,13.4-38.6-66.7,8.4-154.4,85.3-159.3Z"/>
  <path class="st11" d="M1293.4,588c13.6-2.4,34.1.5,43.7,11.2-4.3,11.8-35.2,25.5-31.9,40,4.4,10,38.9-29.7,41.6-32.4,55.2,63.7-44.2,136-92.8,70.5-19.8-37.1-3.8-81,39.5-89.3Z"/>
  <path class="st7" d="M1293.4,588l3.6.3.4,1c-29.3,12.2-48.2,41.3-44.8,73.3.1,4,4,12.3,1.3,14.8-19.8-37.1-3.8-81,39.5-89.3Z"/>
  <path class="st7" d="M1198.3,658c-15.1-47.4,13.9-101.7,61.8-116,27.5-8.2,64.4-4.9,84.6,16.9-.2.8-.4.7-1,1.1-8-.8-15.5-9.4-24-7.1-38.3-15.5-87,4.5-105.1,41.3-2.6,5.2-5.5,18.5-8.8,21.7-4.9,11.5-6.5,19.3-6.2,32,3,2.5,1.6,6.3,1.9,9.7-1.1.2-2.2.4-3.3.4Z"/>
  <path class="st5" d="M1201.7,604.3c1.4-.1,2,0,3.3.7-.1,2.2-2,3-2.9,4.9.1-1.9,0-3.7-.4-5.6Z"/>
  <path class="st11" d="M1201.2,650.5c0-1.3-.7-1.6-1.6-2.6-.3-12.6,1.3-20.4,6.2-32,1.1,2.6-.3,27.1-1.3,30.1,2.7,3.8,3.2,10.8,4.3,15.4,7.5,28.6,36.4,51,64.1,56.9-30.3-.7-57.7-25.6-71-51.3,0-2.8-2.3-6.6-3.7-9,1.1,0,2.2-.2,3.3-.4-.3-2.5.6-4.6-.3-7.1Z"/>
  <path class="st5" d="M1201.4,655.7c3.6,1.5,3.4,9.1.5,11.3,0-2.8-2.3-6.6-3.7-9,1.1,0,2.2-.2,3.3-.4l-.2-1.9Z"/>
  <path class="st7" d="M1251.7,572.7c4.8,3.2,9.2,8.5,13.2,12.6-2.7,2.7-14.1,12.9-17.1,14.8,0,2.5-1.7,4.1-3.5,5.4-4.5-3.7-10.3-7-14.9-10.7,7.5-7.2,14-15.6,22.3-22Z"/>
  <path class="st5" d="M1234.4,598.6c3-.5,6.1-1.2,9.2-.7l-4.1,1.5-.2.8c2.6.9,4.4.2,6.8-.8l1.8.6c0,2.5-1.7,4.1-3.5,5.4-2.4-2.6-7-4.7-10-6.8Z"/>
  <path class="st5" d="M1319.8,552.9c8.5-2.3,16,6.3,24,7.1.6-.4.8-.4,1-1.1,4.4,1.8,9.6,6.6,11.1,11.2,15.4,11.2,22.9,40,20.9,58.6h-.7c-1.7-33.2-25.5-63.8-56.3-75.7Z"/>
  <path class="st11" d="M1344.7,558.8c4.4,1.8,9.6,6.6,11.1,11.2-6.5-2.1-11.8-7.3-17.3-11.1l5.2,1c.6-.4.8-.4,1-1.1Z"/>
  <path class="st11" d="M1223.6,606.5c4.8-.8,11.5,4.9,14.6,8.1.6,3.3-4.7,18-6.1,21.7-2,.1-12-6.6-14.4-7.9,1.6-2.8,6-18.9,5.9-21.9Z"/>
  <path class="st7" d="M1279,562.3c5.9-.5,12.8,6.4,14.6,11.7-5.9,1.6-11.7,3.7-17.7,5.3-5.4-3.9-9.2-8.9-15.4-11.8,6.2-1.5,12.3-3.5,18.5-5.1Z"/>
  <path class="st11" d="M1218.6,641.8c4.2,0,10.7,3.6,12.7,7.4,1.5,2.7,5.4,20.6,4.6,23.4-12.8-6-14.6-18.3-17.3-30.8Z"/>
  <path class="st5" d="M1299.9,563c12.3,1.2,30.7,7.5,37.8,18-8.5-2.5-17.4-6.1-26.5-6.6-1.6-3.4-8.4-8.6-11.3-11.4Z"/>
  <path class="st11" d="M1376.1,628.6h.7c.4,1.9.2,3.8,0,5.8-1-1.3-.7-4.1-.8-5.8Z"/>
  <path class="st1" d="M1165.2,834.2c-1.5-2.3-4.9-2.9-6.2-5.7-2.5-5.4-1.6-41.4.8-47.5,5.1-12.6,45.4-2.1,52.2-5.3,4.2-2,20.9-.8,26.2-.7,4.7,3.3,10.3,0,16.4-.4,4.1-.3,6.6,3.4,9.9,3.2,8.4-2.1,16.7-3.9,25.5-2.4,22.2-1.5,44.3,2.5,66.3-1,9.6,1.8,9.2,5.3,19.5.6,6.3.1,32.6-2,34.2,6.6,2.9,8.7,3.6,39.8-.7,47.9-1.3,2.4-3,3.5-5.6,4.2-5.8-.4-30.7,2.4-35.2-2.9-11.1,4.7-17.9,3.9-29,.3-9.3,6.4-16.1.2-21.5.2-12.2,3.6-11.6,4.5-23.2-1-3.6-.7-8.8,3.9-12.8,4.3-5.7.6-10.8-2.2-16.4-2.4-7.8.5-15.4,4-22.6-.3-12.7,4.2-12.3-.9-20.6-.2-11.8,5.4-24.3,3-34-5.5-2.8.5-4.6,2.7-7.2,3.7-2.6,5.6-10.8,4.1-16,4.4Z"/>
  <path class="st11" d="M1181.2,829.8c1.6-2.2,3.2-5.7,5.7-6.9,1.3,1.1,1.2,1.5,1.5,3.2-2.8.5-4.6,2.7-7.2,3.7Z"/>
  <path class="st9" d="M1351,784.3c19-3.5,23.1,24.1,13.7,35.7-5.4,6.9-17.4,6.6-22.8,0-6.3-8.1-2.7-20.5-1.4-29.5,3.6-1.9,6.7-4.4,10.5-6.1Z"/>
  <path class="st1" d="M1352.4,791.8c12.1-1.9,11.6,24.7,1.5,25.9-10-.5-9.8-23-1.5-25.9Z"/>
  <path class="st9" d="M1228.4,785.1c2.6-.6,5.8-1.2,7.6,1.3,4.2,4.4,11.1,16.2,11,22.3,4.1-7.6-1.7-18.3,4.5-25.1,8.8-1.3,5.3,33.1,5.4,38.4-8.5,12.6-15.4-16.3-21.3-20.5,1.6,7.2,3.1,19.2-3.1,24.6-8.6-9.4-2.3-28.8-4.1-41Z"/>
  <path class="st9" d="M1375.3,785.1c8.7-4.3,17.6,16.9,17.9,23,3.6-6.2.2-16.1,2.8-23.1,1.4-.6,2.2-.4,3.7-.3,6.4,3.9,2.1,33.4,2.4,38.3-8.7,9.2-14.4-18.4-21.8-23.2,2.6,4.3,5.9,29.7-4.2,24.5-2.5-4.4-2.1-33.6-.8-39.1Z"/>
  <path class="st9" d="M1217.5,784.3c1.3,0,1.8.1,2.8.7,2.1,3.8,1.8,26.3.6,31.1-1.7,8.4-11.7,10.8-18.8,8.2-12.5-4.4-3.4-20.7-8.4-28.8,2.1-3.3.5-7.7,2.7-10.5,1.8-.5,2.8-.5,4.6-.2,7.2,4.8-4.8,35.4,8.7,32.9,12-3.5-3.8-30.1,7.8-33.5Z"/>
  <path class="st9" d="M1275.2,784.3c7.5-2,17.8,5.3,14,13.3-5.2,0-9.5-6.9-14.9-4.4-4.8,3.5-5.4,25.1,2.3,24.9,6.3-.5,7-10.1,13.8-5.4,2.5,8.3-9.5,14.5-16.4,12-17.1-5.5-14.8-35,1.3-40.5Z"/>
  <path class="st9" d="M1167.2,785.1c6.7-.4,17.9-3.6,22.5,2.6-.1,7.2-10.7,4.2-15.5,4.9,1.7,3.1,1.4,6.3-.1,9.3,4.8.2,14.9-2.4,13.9,5.3-3.5,3.4-9.4,1.6-13.9,2.1,2.6,4.5,3,17.6-4.9,15.3-4.2-5.7-.6-30.9-1.9-39.5Z"/>
  <path class="st9" d="M1300.7,784.3c6.5-.3,14.8-1.5,19.5,4-.2,4.7-7.4,4-10.8,4.1,1.6,5.3,2.4,27.7-.7,32.3-2.1.4-3.2.6-5.2-.2-3.4-4.7-.4-24.6-2.1-31.9-2.6-1.2-5.3.6-7.8-1.6-.4-2-.4-3.3.1-5.2,2.1-1.7,4.3-1.3,6.9-1.5Z"/>
  <path class="st9" d="M1326.2,784.3c2.5,0,4.2,0,5.8,1.9,0,5.8,4.3,37.6-2.9,38.7-9.5,2.5-5.5-35.5-4.7-39.9l1.7-.8Z"/>
  <path class="st1" d="M1008.4,617.6c-13.3-70.6,86.9-100.3,112-34.1,17.6,13,18.3,43.3,8.6,61.5-5.1,9.4-22.4,24.6-32.6,27.6-9.5,2.8-18.4.8-28,1.1-7.1,5.2-13.2-3.7-19.7-6-4.7-3-15.5-12.3-18.4-15.8-5.8-7.6-19-19.9-20.6-31.1-1.4,0-2.8-.2-4.2-.4l-.2-.9,3.1-2Z"/>
  <path class="st11" d="M1120.4,583.5c17.6,13,18.3,43.3,8.6,61.5-5.1,9.4-22.4,24.6-32.6,27.6-9.5,2.8-18.4.8-28,1.1-7.1,5.2-13.2-3.7-19.7-6-4.7-3-15.5-12.3-18.4-15.8,21.6,7.3,40.4,16.5,64,4.2,24.7-13.1,37.7-46.8,26.1-72.6Z"/>
  <path class="st11" d="M1008.4,617.6l1.3,3.2c-1.4,0-2.8-.2-4.2-.4l-.2-.9,3.1-2Z"/>
  <path class="st11" d="M1060.3,582.1c19.3-8,40.5,7.8,39.1,28.5-1.7,27.8-37.4,38.8-53.9,15.8-8.1-16-3.7-38.4,14.8-44.4Z"/>
  <path class="st7" d="M1045.4,626.4c-8.1-16-3.7-38.4,14.8-44.4,1.8,1,3.1,1.2,5.2,1.4.6.5,1.4.8,1.7,1.6-16.7,13.8-19.3,19.6-20.1,40.5,0,0-1.5.8-1.5.8Z"/>
  <path class="st5" d="M1060.3,582.1c4.1-1.8,9.9-2.7,14.3-1.4l.2,1.7c-2.5,1.5-4.8,2.1-7.7,2.7-.3-.8-1-1.1-1.7-1.6-2-.2-3.4-.4-5.2-1.4Z"/>
  <path class="st7" d="M1023.4,614.4c-6.6-26,17.9-57.9,45.4-51.5-1,2.2-3.5,3.5-5.4,4.9-24.1,5.4-33.5,25.2-39.9,46.5Z"/>
  <path class="st11" d="M1061.9,561.8c14.3-2.7,35.6,5.3,40.4,19.6-9.3-11.2-25-14.2-39-13.5,1.9-1.4,4.4-2.8,5.4-4.9-2-1.3-4.5-1-6.8-1.1Z"/>
  <path class="st11" d="M1028.2,599.7c1.2,7.3-.9,15,1.3,22.1,1.7,5.3,7.7,12.5,7.7,17.6-5.4-8.2-11.8-15.1-13.8-25,2.8-4.4,2.4-10,4.8-14.7Z"/>
  <path class="st1" d="M1050,313c15.5.2,50.9-3.2,62.1,7.2,11,11.1,12.3,32.1,1.1,43.5-7.9,8.1-18.2,8.4-28.8,8.4l1.3,2.3-.4.9c-18.3-8.5-44.5.8-64.3-4.4-10.2-11.5-4.8-36.2-5.1-51.3,1.9-2.2,4.1-4,6.2-6,7.3-.8,18.6-1.2,20.4,8,2.5-2.4,5.8-5.6,7.5-8.7Z"/>
  <path class="st11" d="M1078.2,372.7c2.1-.5,4.1-.5,6.3-.5l1.3,2.3-.4.9c-2.9,0-4.4-2.3-7.2-2.7Z"/>
  <path class="st9" d="M1082,323.7c9.6-1.4,21.8-.9,26.7,8.9,4.1,7.9,3.5,20.7-4.8,25.6-4.1,5.8-16.8,4.1-23,3.8,2-5.6-.8-28.9,1.1-38.4Z"/>
  <path class="st1" d="M1088.7,331.2c13.5-3.9,19.5,16.3,8.5,22.8-13.1,5.6-7.3-15.7-8.5-22.8Z"/>
  <path class="st9" d="M1053.1,323.7c5.6-.6,17.1-2,22,1.1.6,1.7.4,2.4,0,4.1-3.4,3.6-7,.9-11.3,1.3-3.1.2-5.1,3.7-4.2,6.5,2.6,3.2,10.5,1.9,14.3,3.5.3,1.7.1,2.6-.4,4.2-4.7,3.3-12.2-1.4-14.3,5.5,2.3,8.5,9.8,3.6,15.7,6.3,1,2,.9,2.6.8,4.9-5.5,2.7-17.4,1.1-23.7,1,2.3-4.5,0-30.7,1.1-38.5Z"/>
  <path class="st9" d="M1025.1,323.5c2.5-.1,6.9-1.3,7.8,1.9,1.3,4.2,1.2,25.8-1,29.3,4.9.4,13.7-2,16.2,3.6-.5,1.8-1.8,2.8-3.1,3.9-7,.1-13.9,0-20.8,0,2.4-7-.5-28.9,1-38.6Z"/>
  <path class="st1" d="M1222.4,233.3c1.4-21.2,12-37.5,35.2-29.5,5,2.6,9.3-.2,14-1.8,7.1-1.3,22-.3,29.9-.3,6.8.2,22.8-1.3,27.1,4.8,2.5,3,3.1,7.1,2.8,11-1.5,9.4-.2,29.5-13.2,28.9-2,13.8-10.1,14.4-21.9,12.1-1.8-.7-6.5-4.5-7.9-4.6-.6,0-4.6,4.4-6.3,4.8-10.7,2.4-13.6-2.8-19.8-2.9-9.5,4.1-22.6,5.3-30.5-3-5.1-5.3-5.2-10.6-8.9-15.8.6-1.9.8-1.9-.2-3.8Z"/>
  <path class="st9" d="M1243,212.7c22.1-6.5,29.2,32.6,8.1,36.4-20.9,4.1-24.3-28.7-8.1-36.4Z"/>
  <path class="st1" d="M1244.7,219.4c10.3-3.1,13.3,11.2,10,18.4-1.1,2.7-2.4,3.2-4.9,4.1-11.8,3.9-9.7-17-5-22.5Z"/>
  <path class="st9" d="M1303.1,212.7c5.8,0,11.5-.2,17.3.2,1.8,1.3,1.6,1.7,2,3.8-1.7,5-9.2,1.1-13.4,4.1-4.9,9.8,4.5,7.2,10.5,8.5.9,2,.6,2.4.2,4.5-2.3,2.6-6.4,1.8-9.6,2-4.4,3.8-.7,8.5-3,13-2.4,1.2-5.3.8-6.7-1.6-.7-3.3-3.6-34.6,2.7-34.5Z"/>
  <path class="st9" d="M1273.1,212.7c5.4-.5,15.8-1.2,20.1,2.2,0,2.2-.4,2.6-1.6,4.4-4,1.9-9.8-1.9-12.9,1.6,0,2.4-.3,4.8.2,7.2,2.3,1.6,7.6,0,10.8,1.2,1.1,1.6,1.2,1.9,1.3,3.8-1.7,3.9-10.2,2.2-13.3,2.6,1.1,3.9,3.1,12.5-2.2,14.2-7.8,1.7-6.5-34.8-2.4-37.2Z"/>
  <path class="st1" d="M1065.8,227.9c48.9-5.7,60.2,65.4,11.9,75.1-50.5,7.5-62.3-66.6-11.9-75.1Z"/>
  <path class="st0" d="M1067.4,241c34.1-4.1,38.8,47.3,4.5,49.4-30.9.8-35-44.6-4.5-49.4Z"/>
  <path class="st3" d="M1055.3,247.9c11-1.7,15.6,15.9,3.8,17.8-8,3.2-8.3-7.8-10.2-12.5,2.4-1.2,4.8-3.1,6.4-5.3Z"/>
  <path class="st11" d="M1221.6,474.6c3.6,2.2,7.4,4.2,11.2,6-.5,1.5,9.4,6.8,10.1,10.3-.9-.6-1.8-1.2-2.7-1.8-.8.7-1.5,1-2.5,1.3-1.5-1.2-1.9-3.4-2.5-5.2-1.5-.7-2.2-.5-3.8-.4.2-1.1.4-1.7,0-2.7h-2.8c-1-3.7-4.1-5.2-6.9-7.5Z"/>
  <path class="st11" d="M1222.6,237.2c-3.4,0-1.9-1.8-2-4.3-2.2.1-5,.7-6.5-1.3-1.4-2.2-2.2-6.8.5-8.2,4.9,1.8,7.4,8.6,8.3,13.2l-.5-3.3c1,1.9.8,1.9.2,3.8Z"/>
  <path class="st11" d="M1037.6,425.7c3.8-.3,5.8,1.8,9.4,0l.7.6-2.4,1.6c0,1.6-.2,3.2,0,4.8-.9-.5-1.7-1.5-2.5-2.2-.2,1.2-.3,2.5-.6,3.7l.4-.2c-3.3-1.7-2.6-6-5-8.4Z"/>
  <path class="st11" d="M1330.7,865.4c2.8.9,5.7.7,8.3,2,.5,2,0,2.1-1,3.8l1.1.9-.8,1.6,1.3,1.1c-1.9.4-5.4-7.1-8.2-7.3l-.7-2Z"/>
  <path class="st11" d="M1224.5,510.5c1.6.6,3,1.7,3.8,3.2-1.7,4.4-4.6,6-8.4,8.3l-1-.5.3-2.8c2.6,1.9,6.8-2.5,8.3-4.4l-.5-.9-1.5.8c-.7-.6-.7-1-1.1-1.8h-2.3c.8-.7,1.6-1.2,2.4-1.8Z"/>
  <path class="st11" d="M1258.6,744.6c4.4-1.2,8.4,2.8,12.5,4.1l-.5,1.9c-.7-.9-1.1-1.2-2.1-1.7l-2.8,1.1c-2.3-1.9-4.5-3.8-7.1-5.4Z"/>
  <path class="st11" d="M1348.3,862.3l1.7.3.6,1.5c-.5,1.6-1.1,2.9-.6,4.5l3.3,1.7v.8s-3.2,1.4-3.2,1.4c.3,1.2.3,1.4,0,2.6l-1.1-.7.5-1.4c-.7-.4-.5-5.5-.9-6.8-.4-1.3-.4-2.4-.3-3.8Z"/>
  <path class="st11" d="M1006.3,764c1.5,1.4,3,2.2,4.8,3.1-.1.8-2.1,2.3-2.8,3.5l.5,1-.4.8c-1.5-2.7-3.2-5.2-2-8.5Z"/>
  <path class="st11" d="M971.4,327.6l.6.3c.4,2.6,2.9,4.3,2,7l-2.4,1.4-1.2-1.3c.3-1.5,0-2.9-.3-4.4h-.5c0,0-.3-1.4-.3-1.4l2.1-1.5Z"/>
  <path class="st11" d="M1226.3,489.1c-1.1-.8-3-1.8-3.4-3.2l2.6-.8,1,.7h.8c0,0,.3,1,.3,1h2c0-.1.9.9.9.9l-.8,1.2c-1.1.2-2.2.5-3.3.1Z"/>
  <path class="st11" d="M1227.6,486.9h2c0-.1.9.9.9.9l-.8,1.2c-1.1.2-2.2.5-3.3.1l1.3-2.3Z"/>
  <path class="st11" d="M1137.2,356h1.4c0,1.7.7,3,.7,4.6l-6.5.3c0-.9,0-1.2.5-2.1l2.4,1,.9-.6-.5-1.7,1.2-1.5Z"/>
  <path class="st11" d="M1372.2,277.9c1.7.4,3.1.2,4.8.6l.7,1.2-.7,1.6-2.8,1,.3-1.9c-1.3-.5-2.7-.5-4.1-.7l-.4-.7,2.2-1.2Z"/>
  <path class="st11" d="M1017.3,251.8c1.8,0,3.6,0,5.3-.2,1.3,1.5,1,2.8,1.1,4.8-2.7-1.5-4.9-1.9-6.5-4.6Z"/>
  <path class="st11" d="M1008.7,182.9c1.1,0,2.3.3,3.4.5l1,2.2-.6-.2c.5,1.5.7,2.6,0,4-1,.5-1,.5-2.1.4.2-2.7-.4-4.5-1.6-6.9Z"/>
  <path class="st11" d="M1421.6,548h1.1c0,2.7,1,5.2,2.7,7.1l-1.3,1.9c-2-2.9-3.9-5.4-2.5-9Z"/>
  <path class="st11" d="M1209.2,485.7c1.7-.2,3.5.4,3.8,2.2-1.7,2-4.7,2.4-6.8.7l2.6-1.3.5-1.6Z"/>
  <path class="st11" d="M1126.5,429.5h2.4c1.7,1.1,2.8,2,3.9,3.7l-.7.8c-1.7-.6-3.8-.9-5.5-.2.6-.8,1.1-1.6,1.6-2.5l-1.7-1.8Z"/>
  <path class="st11" d="M1367.9,215.7c.8,0,1.5,0,2.3,0,.5,2.4,1.3,4.2-.2,6.4h-.9c-.8-2.3-1.2-4.1-1.2-6.4Z"/>
  <path class="st11" d="M975.9,755.7l.6.4c-1.1,1.1-1,2.8-1.3,4.3l-1.4-.3c-.9-1-1.9-2.1-2.8-3.1v-.8c1.7,0,3.3-.1,4.9-.4Z"/>
  <path class="st11" d="M1267.1,502.2c2.4,2.1,4.7,2.3,7.8,2.7-1.8,1.5-4.4.9-6.3,2.3,0-2-.5-3.2-1.4-5Z"/>
  <path class="st11" d="M981.7,795.6c2,1.2,7,3.1,5.1,6.1-1.8-2.5-6.2-2.2-5.1-6.1Z"/>
  <path class="st11" d="M1229.6,742.3h2.3s.4.9.4.9c-.8,2-1.4,3.6-3,5.1l.2-1.9c-.5-.8-1.1-1.5-1.9-2l1.7-.2.3-1.8Z"/>
  <path class="st11" d="M1040.3,457c2.8.2,6,.6,8.7,1.5,0,.5-.4.8-.7,1.1-3,.6-5.8-.4-7.9-2.7Z"/>
  <path class="st11" d="M958.8,154.4c2.8,2.4.8,4.2,5.1,6.4-1.5.4-2.6.6-4.2.4-1.5-2.1-1-4.3-1-6.8Z"/>
  <path class="st11" d="M1069.7,520.6l2.1.6c1,1.6,1.8,2.2,1.5,4.1-2.9,0-3.4-2.2-3.7-4.7Z"/>
  <path class="st11" d="M1142.2,419c2.4-.1,4.7-.1,7.1,0l.2.9-3.1,2.5c-.3-.7-.9-.9-1.5-1.3-.6.3-.2.2-1,.2l-1.7-2.2Z"/>
  <path class="st11" d="M1086.2,415.2c1.6,0,2.9-.2,4,1-1.5,1.4-2.2,1.5-4.2,2-.8-.6-1.5-1.2-2.1-2l2.2-1Z"/>
  <path class="st11" d="M1304.2,863.8l1.8.4c-.8,1.8-1.5,3.6-2.3,5.4h.6s-1,1.8-1,1.8c-.7-1.3-1.1-2.8-1.5-4.2,1.1-.9,2.2-1.9,2.4-3.4Z"/>
  <path class="st11" d="M1158.9,254.7c1.9.2,3.7.4,5.6.7l-.3.6-3.3.3c-.5,1.3-.7,1.4-1.9,2.2l-1.2-1-.2-1.9,1.3-.9Z"/>
  <path class="st11" d="M1192.7,723.6l1.2.2c1.6,2.4,2.8,2.9,3.1,5.8-2.5-.7-3.9-3.6-4.3-6Z"/>
  <path class="st11" d="M1267.3,193.9c1.3-.1,2,0,3.2.5v1.2c0,0-1.8,1.3-1.8,1.3l-2.6-.5-.3,1.1h-.8c0,0,.6-2.3.6-2.3,1.2-.2,1-.4,1.8-1.3Z"/>
  <path class="st11" d="M1149.2,548c2,0,3.8-.5,5.5.7,0,.3-.5,3.4-.7,3.5l-.8-.3c-1.2-1.7-2.1-2.8-4-3.8Z"/>
  <path class="st11" d="M970.9,231.8c.7,1.3.8,2.5.9,3.9l-.7.4-1.1-1.4c-1.4,0-2.1-.2-3.4-.7l.2-.6c1.5-.2,2.8-.6,4-1.5Z"/>
  <path class="st11" d="M1397.9,253.9c1.8-.2,3.5,1,5.1,1.9l-1.1,2-3.2-.8.4-1.4-1.2-1.6Z"/>
  <path class="st11" d="M981.4,589.5c.8.8.9,1.5,1.2,2.6-1.3,1-1.8.6-3.3.4l-1,.6-.5-.8c1.1-2,1.5-1.9,3.6-2.7Z"/>
  <path class="st11" d="M982,569.5c2.5,1.1,3.2,2.5,3.4,5.1l-.8.2c-1.4-1.9-2.8-2.9-2.5-5.3Z"/>
  <path class="st11" d="M987.3,217.9c2.9,1,5,2.3,6.6,4.9-3.5-.8-5-1.6-6.6-4.9Z"/>
  <path class="st11" d="M1336.9,879.6l.9.2c.8,1.2,1.7,2.3,2.6,3.5l-.3,1-2.3-.2-.3-1.5-2.2-.2-.5-1.5h2c0-.1,0-1.3,0-1.3Z"/>
  <path class="st11" d="M1052.6,415.2c1.9.3,3.2,1.6,3.8,3.3l-2.1.8-.2-.2-1.4.3-.8-.5c.8-1.6.9-1.9.7-3.7Z"/>
  <path class="st11" d="M1414.8,351.5c2.1,0,2.6-.3,4.4.9-.9,1.2-1.5,1.2-2.9,1.6l-2.7-1.4,1.3-1.1Z"/>
  <path class="st11" d="M966.6,835.1c2.2,1.9,2.4,4.5,2.5,7.2-2.8-2.3-2.7-3.8-2.5-7.2Z"/>
  <path class="st11" d="M1327.8,205.7c2.4-.6,4.3-1.6,6.6-.6-1.2,2.1-3.9,1.7-6,1.5l-.6-.9Z"/>
  <path class="st11" d="M1169.3,189.4h2.3c0,1.4-.4,2-1.1,3-1.5.4-3.1.2-4.4-.5,1.3-.6,2.4-1.3,3.2-2.5Z"/>
  <path class="st11" d="M1120.9,881c1.5-.2,3.1-.1,4.6,0l.5.8-1.7,1.6c-1.1-.7-1.4-.5-2.6-.4l-.7-1.9Z"/>
  <path class="st11" d="M969.1,675.5c1,.2,1.4.4,2.3.9,0,1.8-.7,2.1-1.9,3.4-1.1-.7-1.7-1.1-2.3-2.2l1.9-2Z"/>
  <path class="st11" d="M1152.1,775.3l1.4.4c1,1.7,1,1.9.9,3.8l-1.4,1.3c-.3-1,0-.6-.8-1.4-.5-.5,0-2.9-.2-4.1Z"/>
  <path class="st11" d="M994.7,786.4l.8.6c.4,2.1.5,3.5,0,5.7-1,0-.5.1-1.4-.5.5-1.9.7-3.8.7-5.8Z"/>
  <path class="st11" d="M1381.9,495.5c1.7.4,2,.4,3.2,1.5v1.5c-.6.5-1.1.7-1.7,1.1-.5-1.4-1-2.7-1.5-4.1Z"/>
  <path class="st11" d="M1402.7,844.4c1.5,0,2.9.4,4.3.7l.4,1-1.3,2-.2-1.6-2.5-.5-.7-1.7Z"/>
  <path class="st11" d="M973.4,881.5c3.2,0,4.8.5,7.6,2-2.8.2-5.9,1-7.6-2Z"/>
  <path class="st11" d="M1158.2,154.1c1.6-.2,3.6-.3,4,1.7-.8,1.9-1.1,2.2-2.7,3.5-.6-.8.8-2.3.9-3.8l-2.1-1.4Z"/>
  <path class="st11" d="M1024.5,792l1.4-.7c1.3.5,1.9,1,2.9,2l-.9.9c-1.5-.5-2.2-1.1-3.3-2.2Z"/>
  <path class="st11" d="M950.9,255.5c2.3,1.3,2.2,3.9,2.1,6.2-2.6-1.1-2.4-3.8-2.1-6.2Z"/>
  <path class="st11" d="M1244.8,863.1c1.3.9,2.9.4,4.2,1.4-.6.5-2.1,1.9-2.8,2.3l-1.9-2.8.5-.8Z"/>
  <path class="st11" d="M1400.7,195.4c1.9-.4,3.4-.4,5.3-.2l.7,1.1-1.3,2.1c-1.8-2.4-1.8-2.3-4.7-3Z"/>
  <path class="st11" d="M1168.4,608c1.6,1.1,3.3,1.7,5.1,2.4v1.4c-1.7-.7-2.1-.5-3.8-.2l-1.3-3.5Z"/>
  <path class="st11" d="M943.7,495c1.6,0,2.9,0,4.4.6-.6,1-.6,2.1-2,2.4l-2.4-2.9Z"/>
  <path class="st11" d="M1435.8,220.9c2-.7,3.9-.1,5.9.3l-.3.6-3.5.7.2,3c-.6-1.6-1.3-3-2.3-4.5Z"/>
  <path class="st11" d="M1176,202.7c1.5-.2,1.6-.2,2.9.4l-.5,2.6c-.8-.4-1.6-.8-2.4-1.2v-1.8Z"/>
  <path class="st11" d="M1358.7,206.7c1.9-1.4,3.9,1.7,1.9,2.9-1.8,1.2-3.8-1.6-1.9-2.9Z"/>
  <path class="st11" d="M1151,247.6c1,.1,1.8.4,2.8.6.7,1.7.5,2,.2,3.8l-.6.2c-.8-1.6-1.6-3.1-2.4-4.6Z"/>
  <path class="st11" d="M989.2,274.5l3.8.2,1.5,2.2c-2.4,1.5-4.2-.1-5.3-2.4Z"/>
  <path class="st11" d="M966.6,751.2c.8-.4,1.1-.4,1.9-.3-.5.5-1.6,1.6-2.1,2l-.8-.5,1-1.2Z"/>
  <path class="st11" d="M1423,599.8h2.1c0,0,.7,1,.7,1l-1.8,2.7c-1.2,0-1,0-1.8-.7l.8-3.1Z"/>
  <path class="st11" d="M1123.4,444.5l2,1.5v1.3s-1.7,1.7-1.7,1.7c-1-1.7-.6-2.5-.4-4.5Z"/>
  <path class="st11" d="M1412.4,311.6h3.2s.5.6.5.6l-1.7,2.5h-.9s-1-3.2-1-3.2Z"/>
  <path class="st11" d="M1398.8,734.9c1.3-.3,2.5-.2,3.8,0l.5.9-1.2,1c-1.6-.5-2-.5-3.2-1.8Z"/>
  <path class="st11" d="M1409.2,495.5c1.7.3,2.1.5,3.4,1.6l-.7.8-2.7-.2-1.4,1.1v-.9c0,0-.2,0-.2,0,1.3-.9,1.2-1,1.6-2.6Z"/>
  <path class="st11" d="M1357.2,868.1h1.7c0,.1.6,1.2.6,1.2l-1.3,3.6c-.2-1.7-.5-3.2-1-4.8Z"/>
  <path class="st11" d="M1158.4,623.8c1.3-.2,2.4-.5,3.8-.2-.3.6-1,2.3-1.7,2.5l-2.1-2.3Z"/>
  <path class="st11" d="M983.3,459c1.4,0,2.7-.2,4.1-.2l-.3,1.5c-1.4.5-2.6,1-4,.9l.2-2.1Z"/>
  <path class="st11" d="M1414.3,540.5h2.4c0,.1.8,1,.8,1l-1.5,2.3h-.5c0-1.5-.4-2.1-1.2-3.3Z"/>
  <path class="st11" d="M934.3,397.7c1.4,0,2.4-.1,3.8.3l-.2,1.3c-.7.3-1.5.4-2.2.5l-1.4-2.2Z"/>
  <path class="st11" d="M1203.7,849.6c1.4,0,2.9,0,4.2.7l-2.5.9c-.6.8-1,.9-1.9,1.1l.2-2.8Z"/>
  <path class="st11" d="M1172.3,222.4c2,.2,4.1,0,6.1.5l-2.2-.3c-.2.6-.5,1-.9,1.5-.9.4-1.6.3-2.6.3l-.4-2Z"/>
  <path class="st11" d="M1005.3,595.3l2.1-.7c-.6.6-2,1.7-2.8,2.1l.7-1.4Z"/>
  <path class="st11" d="M935.9,620.9c1.2,1,1.3.9,1.5,2.4l-1.9.8-1.4-.2-.5-.8,2.3-2.2Z"/>
  <path class="st11" d="M1103.4,871.3c.9-2,4-.3,2.7,1.5-1,1.6-3.5.1-2.7-1.5Z"/>
  <path class="st11" d="M1357.7,189.5l1,1c-.4,1.2-1,2.3-1.6,3.5-.8-1.4-.7-1.8-.7-3.4l1.3-1Z"/>
  <path class="st11" d="M1398.9,219.4c1.3.2,1.5.3,2.4,1.2l-.8,1.8-1.6-1.4v-1.6Z"/>
  <path class="st11" d="M1418.1,220.9c1.3,0,2.6,0,3.8.1-1,.7-1.8,1.5-2.6,2.3l.3,1.4-1.5-3.9Z"/>
  <path class="st11" d="M1010.9,297.5c.3.7.4,1.3.6,2-.8,0-2.8.2-3.6.3l3-2.3Z"/>
  <path class="st11" d="M1163.4,666.4l1.5.4.4.9-2.4,2-.7-1.6,1.3-1.7Z"/>
  <path class="st11" d="M948.8,360.6l1.7-1c-.7,1.3-1.2,2.4-2.5,3.3h-1c.2-.5.6-1.3.7-1.9l1.1-.4Z"/>
  <path class="st11" d="M1429.5,341c1.2-.2,1.9-.3,3.1,0l-.3,2.3c-1.1,0-2-1.4-2.8-2.2Z"/>
  <path class="st11" d="M948.6,563.8c3.3,0,3.9,2.4,3.7,5.3l-1-.9c-.6-1.9-1.3-3-2.7-4.5Z"/>
  <path class="st11" d="M1138.7,262.7c1.4,0,2.4,0,3.7,1l-.9,1.5c-1.6-.8-1.9-.8-2.8-2.4Z"/>
  <path class="st11" d="M1142.9,195.3c1.8.4,1.8.2,2.8,1.7-1,.7-2.1.9-3.2.5l.5-2.3Z"/>
  <path class="st11" d="M1177.3,231.4l.9.2.5,1.1-1.7,2.6-.7-1.3,1-2.7Z"/>
  <path class="st11" d="M1136.6,326.8l1.3.2.6,1.9c-.4.4-1.2,1.3-1.8,1.4,0-1.2,0-2.3-.2-3.5Z"/>
  <path class="st11" d="M1016.5,711.7l1.3-.2.5.8-1.6.8-1.7-.5-.4-1,1.9.2Z"/>
  <path class="st11" d="M97.6,828.7l3.3,1.4v1.3c0,0-1.8,0-1.8,0l-1.4-2.6Z"/>
  <path class="st11" d="M999.2,177.4c1-1.3,3.1-.1,2.6,1.4-.7,2.2-4,.4-2.6-1.4Z"/>
  <path class="st11" d="M1377.1,203.7c1.2.2,1.2.2,2.1,1l-1,2.4-.6-.2-.5-3.2Z"/>
  <path class="st11" d="M1346.8,515l2.8.6c-1.2.9-4.8.8-6.4.9l-.5-.6,4.1-.9Z"/>
  <path class="st11" d="M954.5,331.6l.7,1-.5.9c-1,0-3.6.2-4.5-.4,1.4-1.2,2.7-1.1,4.4-1.5Z"/>
  <path class="st11" d="M359.5,162.5l1.4-.3-.9,1.7-1.2.2.6-1.6Z"/>
  <path class="st11" d="M1402,242.7l1.4.7.4,1.2-1.7,2.1h-.3c-.2-1.4,0-2.7.2-4Z"/>
  <path class="st11" d="M1124.3,873.5c1.3,1.4,1.5,1.3,1.7,3.3l-1.5,1.7c.2-1.7,0-3.3-.1-5Z"/>
  <path class="st11" d="M962.8,649.9c2.5.3,2.7.3,4.6,1.9-1.1.4-2,.4-3.1.5l-1.5-2.4Z"/>
  <path class="st11" d="M1420.2,541.3l1.8.7v2.3c0,0-.5-.2-.5-.2l-1.2-2.8Z"/>
  <path class="st11" d="M1291.2,177.4h2.2c0,0,.8.9.8.9l-.6,1.9c-.2.1-1.9,1-2.2.9.8-.7.9-1,1.2-2.1l-1.6-1.7Z"/>
  <path class="st11" d="M1258.5,171.4c1.7-.9,2.9,2,1,2.5-1.5.4-2.4-1.8-1-2.5Z"/>
  <path class="st11" d="M989.9,166.1c.9,0,.4-.1,1.4.4l-2.2,1.9c-.8-.8-.9-.9-1.1-2l1.8-.3Z"/>
  <path class="st11" d="M1383.2,160.1l2.8.2-.2,2.1c-.9-.4-1.9-1.6-2.6-2.3Z"/>
  <path class="st11" d="M1124.7,323.7c.8.5,1.4,1.1,2.1,1.8-.5.5-1.3,1.7-2.2,1.3v-3.1Z"/>
  <path class="st11" d="M1369.1,549.5c.7,0,1.4.2,2.1.3l-.9,3.3c-.8-1.1-.9-2.3-1.1-3.6Z"/>
  <path class="st11" d="M936.1,551.9l1,2.9-.8,1.2-.7-.8.4-3.3Z"/>
  <path class="st11" d="M1178.6,686.8l2.4.5v1.7c0,0-.6,0-.6,0l-1.8-2.2Z"/>
  <path class="st11" d="M1119.8,528.5l1.7.9-1.6,2.1h-.3c-.5-1.2-.1-1.8.1-3Z"/>
  <path class="st11" d="M978.1,764l1,.8-1.4,1.3c0-.7.2-1.4.4-2.1Z"/>
  <path class="st11" d="M1202.6,214.2c1.3,0,2.2.8,3.2,1.5-.5.4-1.1.6-1.7.8l-1.5-2.3Z"/>
  <path class="st11" d="M938.5,341.9l1.6-.4v1.2c0,0-1.3.6-1.3.6l-.3-1.3Z"/>
  <path class="st11" d="M1092,162.4h2.2c0,0-.5,1.7-.5,1.7-.8-.4-1.2-1.1-1.7-1.7Z"/>
  <path class="st11" d="M1037.2,237.2c1.6.2,1.3,2.6-.3,2.4-1.5-.2-1.3-2.6.3-2.4Z"/>
  <path class="st11" d="M1047.5,461.9c.7,0,1.2.3,1.9.5l-2.3,1.3-.6-.4,1-1.4Z"/>
  <path class="st11" d="M1316.8,163.9c.7.1,1.4.5,2.1.8l-1.6.7h-1.8c0-.1,1.2-1.5,1.2-1.5Z"/>
  <path class="st11" d="M1186.1,691.3c2.3,1.2,1.6,3.4.9,5.3.6-1.6-.4-3.8-.9-5.3Z"/>
  <path class="st11" d="M1162.3,359.7l1.6.7-.6,1.1-1.8-.8.8-1.1Z"/>
  <path class="st5" d="M357.6,59.2c183.9,0,732.1.1,906.9,0,10.6,0,21.8-.8,32.2.5,5.5,1.2,32.6,17.2,36.7,22.3,1.4.6,2.3.8,3.1,2,3.8,1.1,13,6.5,15.2,9.7,6.2,2.5,44.1,26.2,49.6,31.2-232.6,0-468.2-.1-700.8.3l-1.2-.7c-188,1.4-375.1-.2-563.2.5,11.8-7.6,105.7-63.8,113-65.4,35.7-2.4,72.5.3,108.5-.6Z"/>
  <path class="st6" d="M204.2,917.1c44.3-.6,134.9.5,180.4,0-5.9,10.8-7.5,26.1-17.6,33.8-10.2,1.3-132.8,4.3-150.3-1.2-3.6-5.4-14-26.4-14.4-31.8l1.9-.8Z"/>
  <path class="st6" d="M1165.7,917.1h161.2c1.2,5.9-10.4,26-13.9,30.8-1,3.9-6.3,3.8-9.6,4.2-20.6.7-41.7,0-62.3,0-19.5,0-39.3.9-58.7.2-5.5.1-11.2-.9-15.8-3.9-.2-5.1-10.8-28-14-31.1,4.4.2,8.8.3,13.2,0Z"/>
  <path d="M213.5,342c-4.8-5.7-4.1-12.5,2.4-18s13.2-5,18.1.7l8.4,9.9c4.9,5.8,4.2,12.5-2.3,18s-13.3,5.1-18.2-.7l-8.4-9.9ZM229.1,328.8c-2.6-3.1-6-3.1-9.4-.2-3.4,2.9-3.9,6.3-1.3,9.3l8.4,9.9c2.6,3.1,6.1,3.2,9.5.3,3.4-2.9,3.9-6.3,1.3-9.4l-8.4-9.9Z"/>
  <g>
    <path d="M320.5,277.7c3.7-.3,6.6,1.4,8.6,5,3.3,5.9,1.4,11.8-6,15.9-6.2,3.5-11.6,3.2-16.1-.8-.8-.8-.9-1.6-.1-2.5l1.9-2.2c.9-.9,1.4-.9,2.5-.2,2.7,2.3,4.9,2.7,9,.4,3.7-2.1,4.7-4.6,3.1-7.6-1.6-3-4-3.6-7.1-1.9l-4.6,2.6c-1.1.6-1.7.5-2.3-.7l-1.1-2c-.6-1.1-.4-1.7.7-2.3l3.8-2.1c2.8-1.6,3.7-4.2,2.3-6.7-1.6-2.9-4-3.4-7.3-1.5-3.8,2.1-4.6,4-4,7.6.2,1.3-.1,1.8-1.4,2l-2.9.5c-1.2.2-1.8-.3-2.1-1.4-1-5.9,1.2-10.3,7.6-13.9,6.6-3.7,12.3-2.4,15.4,3.2,1.7,3.1,1.8,6,.3,8.6Z"/>
    <path d="M325.9,268.2c-3.6-6.5-1.6-13.1,5.8-17.2s14-2.4,17.6,4.2l6.3,11.4c3.7,6.6,1.7,13.1-5.7,17.2s-14,2.4-17.7-4.2l-6.3-11.4ZM343.7,258.2c-1.9-3.5-5.3-4.2-9.2-2.1-3.9,2.2-5,5.4-3.1,8.9l6.3,11.4c1.9,3.5,5.3,4.3,9.2,2.1,3.9-2.2,5-5.5,3.1-9l-6.3-11.4Z"/>
  </g>
  <g>
    <path d="M422.1,237.5c2.2-1.1,4.8-1.8,7.5-2.3,8.6-1.5,13.6,1.5,14.9,9.1,1.2,7-3,12.3-11.4,13.8-8.7,1.5-14.3-2.5-15.7-10.7l-1.9-10.9c-1.4-8.2,2.5-13.8,11.2-15.4,6.6-1.2,11.4.7,14.2,5.6.7,1.1.5,1.6-.7,2.4l-2.5,1.4c-1.1.7-1.6.5-2.3-.7-1.6-2.5-4.2-3.5-7.8-2.9-4.8.8-6.8,3.7-5.9,8.4l.4,2.1ZM423.6,246.4c.8,4.7,3.6,6.7,8.4,5.9,4.6-.8,6.8-3.2,6.2-6.8-.7-3.7-3.1-5.2-8.1-4.3-3.3.6-5.6,1.4-7,2.4l.5,2.8Z"/>
    <path d="M446.9,230c-1.3-7.4,2.8-12.9,11.1-14.3s14,2.3,15.3,9.7l2.2,12.8c1.3,7.4-2.7,12.9-11,14.4s-14-2.3-15.3-9.7l-2.2-12.8ZM467.1,226.5c-.7-3.9-3.6-5.7-8-5-4.4.8-6.5,3.5-5.8,7.4l2.2,12.8c.7,3.9,3.6,5.8,8,5s6.5-3.5,5.8-7.5l-2.2-12.8Z"/>
  </g>
  <g>
    <path d="M544.1,210.3c3.7.2,6.6,1.5,8.8,3.8,2.1,2.4,3.1,5.1,2.9,8.2-.2,3.6-1.4,6.4-3.5,8.2-2.1,1.9-5.9,3.7-11.4,5.5-.2,0-1.3.4-1.5.5s-.4.1-.7.3c-.8.3-.9.4-1.5.7-.9.5-1.5,1.3-1.6,2.3v.9c0,0,16.8,1,16.8,1,1.3,0,1.7.6,1.6,1.8v2.5c-.2,1.3-.7,1.7-2,1.6l-21.8-1.2c-1.3,0-1.7-.6-1.6-1.8l.2-3.8c.2-3.3,1.3-5.7,3.6-7.3,2.3-1.6,3.8-2.3,7-3.3,3.4-1.1,5.6-2,6.7-2.8,1.8-1.3,2.9-2.9,3-5.1.2-3.2-2.1-5.8-5.5-6-3.3-.2-5.7,1.2-7.2,4.1-.6,1.2-1.1,1.5-2.3,1l-2.7-1.2c-1.1-.5-1.4-1.2-1-2.2,2.6-5.4,7.2-8,13.8-7.6Z"/>
    <path d="M560.1,223.4c.4-7.5,5.6-11.9,14.1-11.4,8.4.5,13.1,5.5,12.6,12.9l-.7,13c-.4,7.5-5.6,12-14,11.5-8.4-.5-13.1-5.5-12.7-13l.7-13ZM580.5,224.6c.2-4-2.2-6.4-6.7-6.7-4.4-.3-7.2,1.9-7.4,5.9l-.7,13c-.2,4,2.2,6.5,6.7,6.7,4.4.3,7.2-1.9,7.4-5.9l.7-13Z"/>
    <path d="M592.1,225.2c.4-7.5,5.6-11.9,14.1-11.4,8.4.5,13.1,5.5,12.6,12.9l-.7,13c-.4,7.5-5.6,12-14,11.5-8.4-.5-13.1-5.5-12.7-13l.7-13ZM612.6,226.4c.2-4-2.2-6.4-6.7-6.7-4.4-.3-7.2,1.9-7.4,5.9l-.7,13c-.2,4,2.2,6.5,6.7,6.7s7.2-1.9,7.4-5.9l.7-13Z"/>
  </g>
  <g>
    <path d="M803.8,302.2c1.1.7,1.2,1.3.5,2.4l-1.2,1.8c-.7,1.1-1.2,1.3-2.4.5l-3-1.9-3.5,5.6c-.7,1.1-1.3,1.2-2.4.5l-2.1-1.3c-1.1-.7-1.2-1.3-.5-2.4l3.5-5.6-14.1-8.9c-1.1-.7-1.2-1.3-.5-2.4l1-1.5c.5-.7,1-1.2,1.6-1.4l25.3-8.7c1-.3,1.9-.2,2.7.3l2.4,1.5c1.1.7,1.3,1.2.5,2.4l-10.8,17.2,3,1.9ZM803.1,285.7l-16.5,5.6,9.3,5.8,7.2-11.5Z"/>
    <path d="M814.2,296.3c4-6.3,10.7-7.7,17.9-3.2s8.8,11.1,4.8,17.4l-6.9,11c-4,6.4-10.7,7.8-17.8,3.3s-8.9-11.1-4.8-17.5l6.9-11ZM831.5,307.2c2.1-3.4,1.2-6.7-2.6-9.1-3.8-2.4-7.2-1.8-9.3,1.6l-6.9,11c-2.1,3.4-1.2,6.7,2.6,9.1,3.8,2.4,7.2,1.8,9.3-1.6l6.9-11Z"/>
    <path d="M841.4,313.4c4-6.3,10.7-7.7,17.9-3.2,7.2,4.5,8.8,11.1,4.8,17.4l-6.9,11c-4,6.4-10.7,7.8-17.8,3.3-7.2-4.5-8.9-11.1-4.8-17.5l6.9-11ZM858.7,324.3c2.1-3.4,1.2-6.7-2.6-9.1-3.8-2.4-7.2-1.8-9.3,1.6l-6.9,11c-2.1,3.4-1.2,6.7,2.6,9.1,3.8,2.4,7.2,1.8,9.3-1.6l6.9-11Z"/>
  </g>
  <g>
    <path d="M773.5,215.7c1.2,0,1.5.5,1.1,1.7l-8.4,32.8c-.3,1.2-.9,1.4-2.1,1.4h-2.8c-1.2,0-1.9-.5-2.1-1.4l-5.3-20.1c-.5-2-.8-3.8-.8-5.7h-.4c0,1.8-.3,3.7-.9,5.7l-5.4,20.1c-.3,1.2-.9,1.4-2.1,1.4h-2.7c-1.3,0-1.9-.3-2.2-1.4l-8.3-32.9c-.4-1.2,0-1.7,1.1-1.7h3.5c1.5,0,2,.3,2.3,1.5l4.1,18.9c.1.5.4,2.7.8,6.8h.3c.1-2.3.5-4.6,1-6.8l5.1-18.7c.4-1.2.9-1.5,2.3-1.5h2.7c1.4,0,2,.3,2.3,1.5l5,18.7c.6,2.3,1,4.6,1.1,6.8h.3c.2-2.2.5-4.5.9-6.7l4.1-18.9c.3-1.2.8-1.5,2.3-1.5h3.1Z"/>
    <path d="M806.6,250c.4,1.1,0,1.7-1.2,1.7h-2.6c-2.1,0-2.7-.3-3.1-1.5l-2.3-6.5h-14s-2.4,6.5-2.4,6.5c-.4,1.2-1.1,1.5-3.1,1.5h-2.3c-1.2,0-1.6-.6-1.2-1.7l12.7-32.9c.5-1.2.9-1.4,2.1-1.4h2.7c1.2,0,1.7.3,2.1,1.4l12.6,33ZM791.8,227.7c-.6-1.8-1-4.2-1.2-5.3v-.9h-.4c0,1.9-.4,3.9-1.1,6.1l-3.9,10.7h10.4s-3.8-10.7-3.8-10.7Z"/>
    <path d="M829,215.8c1.3,0,1.7.5,1.7,1.7v2.5c0,1.3-.5,1.7-1.7,1.7h-8.7s0,28.3,0,28.3c0,1.3-.5,1.7-1.7,1.7h-2.9c-1.3,0-1.7-.5-1.7-1.7v-28.3s-8.7,0-8.7,0c-1.3,0-1.7-.5-1.7-1.7v-2.5c0-1.3.5-1.7,1.7-1.7h23.8Z"/>
    <path d="M857.7,215.8c1.3,0,1.7.5,1.7,1.7v2.5c0,1.3-.5,1.7-1.7,1.7h-8.7s0,28.3,0,28.3c0,1.3-.5,1.7-1.7,1.7h-2.9c-1.3,0-1.7-.5-1.7-1.7v-28.3s-8.7,0-8.7,0c-1.3,0-1.7-.5-1.7-1.7v-2.5c0-1.3.5-1.7,1.7-1.7h23.8Z"/>
    <path d="M876.4,215.1c7,0,10.8,2.4,13.3,7.7.5,1.1.2,1.8-1,2.3l-2.8,1.2c-1.2.5-1.6.3-2.2-.9-1.4-2.8-3.5-4.3-7.4-4.3-4.9,0-7.3,1.6-7.3,4.6-.3,2.7,2.7,3.9,5.4,4.3,1.6.3,5.2.7,7.1,1.1,2,.4,4.8,1.4,6.4,2.8,1.6,1.4,2.8,4,2.8,7.2,0,6.9-5.3,11.3-14.4,11.3-7.6,0-11.7-2.8-13.9-8.5-.5-1.3-.2-1.8,1.1-2.2l2.8-1c1.2-.4,1.6-.1,2.2,1.1,1.3,3.1,3.9,4.7,7.9,4.7,5.4,0,8.1-1.8,8.1-5.3,0-2.2-1.9-3.6-3.9-4.1-1-.3-2.4-.5-4-.6-2.3-.3-3.2-.4-5.4-.8s-3.2-1-4.9-2.1c-2.3-1.5-3.3-3.9-3.5-7.6,0-6.6,5-11.1,13.9-11.1Z"/>
  </g>
  <g>
    <path d="M471.6,526.8c12.4,0,19.1,4.3,23.5,13.5.9,1.9.4,3.2-1.7,4.1l-4.9,2.1c-2.1.8-2.8.5-3.8-1.5-2.5-5-6.2-7.5-13-7.5-8.7,0-13,2.8-13,8.2-.5,4.7,4.7,6.9,9.5,7.6,2.8.5,9.2,1.3,12.5,1.9,3.6.7,8.5,2.5,11.3,5,2.8,2.5,4.9,7,4.9,12.7,0,12.2-9.4,20-25.5,20-13.5,0-20.7-4.9-24.6-15-.8-2.2-.3-3.2,1.9-3.9l4.9-1.8c2.1-.7,2.9-.3,3.8,1.9,2.3,5.5,7,8.3,13.9,8.3,9.5,0,14.2-3.1,14.2-9.3,0-3.9-3.4-6.4-7-7.3-1.8-.4-4.2-.8-7.2-1.1-4-.5-5.7-.6-9.6-1.4-3.8-.8-5.7-1.8-8.6-3.7-4-2.6-5.9-6.8-6.2-13.4,0-11.7,8.9-19.6,24.5-19.6Z"/>
    <path d="M575.7,528.2c2.1,0,2.6.9,2,3l-14.8,58c-.4,2.1-1.5,2.5-3.8,2.5h-4.9c-2.1,0-3.4-.8-3.8-2.4l-9.3-35.5c-.9-3.5-1.3-6.8-1.4-10.1h-.6c0,3.1-.5,6.5-1.5,10l-9.5,35.5c-.4,2.1-1.5,2.5-3.8,2.5h-4.8c-2.2,0-3.4-.5-3.8-2.4l-14.6-58.1c-.6-2.1-.2-3,2-2.9h6.3c2.6,0,3.6.5,4,2.7l7.3,33.4c.2.8.6,4.7,1.4,12h.5c.2-4.1.8-8.1,1.8-12l9.1-33.1c.6-2.1,1.6-2.7,4-2.7h4.8c2.5,0,3.6.5,4,2.7l8.8,33.1c1.1,4.1,1.7,8.1,1.9,12h.5c.3-3.8.8-7.9,1.6-11.9l7.2-33.4c.5-2.1,1.4-2.7,4-2.7h5.5Z"/>
    <path d="M613.1,528.3c12.5,0,20.1,7.4,20.1,19.7,0,9.2-4.3,15.6-11.8,18,1.1.9,2.1,2.1,2.9,3.8l9.8,18.9c1.1,2.1.5,3-1.5,3h-5.2c-3.9,0-5-.5-6.1-2.7l-7.5-15.2c-2.4-5-4.6-6.3-10.6-6.3h-6.6s0,21.1,0,21.1c0,2.2-.8,3-3,3h-5.1c-2.2,0-3.1-.8-3.1-3.1v-57.4c0-2.2,1-3,3.2-3h24.7ZM621.4,548c0-3-.8-5.3-2.4-6.9-1.6-1.5-3.9-2.3-7-2.3h-15.5s0,18.4,0,18.4h15.5c3,0,5.3-.8,7-2.4,1.6-1.5,2.4-3.8,2.4-6.8Z"/>
  </g>
</svg>