<?xml version="1.0" encoding="UTF-8"?>
<svg id="Layer_1" xmlns="http://www.w3.org/2000/svg" xmlns:xlink="http://www.w3.org/1999/xlink" version="1.1" viewBox="0 0 978 1024">
  <!-- Generator: Adobe Illustrator 29.1.0, SVG Export Plug-In . SVG Version: 2.1.0 Build 142)  -->
  <defs>
    <linearGradient id="linear-gradient" x1="477.4" y1="881.1" x2="495.1" y2="885.9" gradientTransform="translate(0 1538) scale(1 -1)" gradientUnits="userSpaceOnUse">
      <stop offset="0" stop-color="#161407"/>
      <stop offset="1" stop-color="#2d2111"/>
    </linearGradient>
    <linearGradient id="linear-gradient1" x1="413.8" y1="1421.1" x2="427" y2="1419.9" gradientTransform="translate(0 1538) scale(1 -1)" gradientUnits="userSpaceOnUse">
      <stop offset="0" stop-color="#1b130b"/>
      <stop offset="1" stop-color="#2e281a"/>
    </linearGradient>
    <linearGradient id="linear-gradient2" x1="420.3" y1="1448.5" x2="442.2" y2="1446.8" gradientTransform="translate(0 1538) scale(1 -1)" gradientUnits="userSpaceOnUse">
      <stop offset="0" stop-color="#131410"/>
      <stop offset="1" stop-color="#3a2815"/>
    </linearGradient>
    <linearGradient id="linear-gradient3" x1="346.7" y1="1163.8" x2="371.7" y2="1163.3" gradientTransform="translate(0 1538) scale(1 -1)" gradientUnits="userSpaceOnUse">
      <stop offset="0" stop-color="#16110a"/>
      <stop offset="1" stop-color="#2c1d13"/>
    </linearGradient>
    <linearGradient id="linear-gradient4" x1="433.8" y1="1035.1" x2="422.9" y2="1017" gradientTransform="translate(0 1538) scale(1 -1)" gradientUnits="userSpaceOnUse">
      <stop offset="0" stop-color="#180d0a"/>
      <stop offset="1" stop-color="#2d2315"/>
    </linearGradient>
    <linearGradient id="linear-gradient5" x1="964.8" y1="1080" x2="764.5" y2="1063.3" gradientTransform="translate(0 1538) scale(1 -1)" gradientUnits="userSpaceOnUse">
      <stop offset="0" stop-color="#18140e"/>
      <stop offset="1" stop-color="#342819"/>
    </linearGradient>
    <linearGradient id="linear-gradient6" x1="71.3" y1="932.9" x2="81.1" y2="934.8" gradientTransform="translate(0 1538) scale(1 -1)" gradientUnits="userSpaceOnUse">
      <stop offset="0" stop-color="#281c0f"/>
      <stop offset="1" stop-color="#14120a"/>
    </linearGradient>
    <linearGradient id="linear-gradient7" x1="7.2" y1="1013.3" x2="87.1" y2="1016.4" gradientTransform="translate(0 1538) scale(1 -1)" gradientUnits="userSpaceOnUse">
      <stop offset="0" stop-color="#000"/>
      <stop offset="1" stop-color="#211a11"/>
    </linearGradient>
    <linearGradient id="linear-gradient8" x1="868.2" y1="771.6" x2="867.3" y2="778.5" gradientTransform="translate(0 1538) scale(1 -1)" gradientUnits="userSpaceOnUse">
      <stop offset="0" stop-color="#090706"/>
      <stop offset="1" stop-color="#271e14"/>
    </linearGradient>
    <linearGradient id="linear-gradient9" x1="294" y1="973.3" x2="310.8" y2="972.8" gradientTransform="translate(0 1538) scale(1 -1)" gradientUnits="userSpaceOnUse">
      <stop offset="0" stop-color="#130f0c"/>
      <stop offset="1" stop-color="#2d2416"/>
    </linearGradient>
    <linearGradient id="linear-gradient10" x1="130.2" y1="699.4" x2="67.2" y2="708.9" gradientTransform="translate(0 1538) scale(1 -1)" gradientUnits="userSpaceOnUse">
      <stop offset="0" stop-color="#000001"/>
      <stop offset="1" stop-color="#1f190f"/>
    </linearGradient>
  </defs>
  <path d="M450.8,17.8c41.4-22,86-12.6,116,22.7,7.4,12.6,5.2,35.4,2.7,49.4,18.4,10.7,14.8,46.1-6.2,51.8.2,10.4-1.5,20.5-4.6,30.4l8.7,18.4c85,27.1,98.8,46.8,126.3,129.2,2.2-4.2,4.2-8.7,7.3-12.3.8,1.2,1.6,2.1,1.5,3.6-9.8,21.1-32.4,78.6-34.8,100.6,10.5,4.3,20.6,11.4,32,12.8v3.9c-7.4-2.1-14.9-4.3-21.7-7.9-.6,25.3-9.5,49.7-10.5,75.1-1.6-.2-2-.2-3.4-1.3-1.9,9.1-.4,20.1-.3,29.3-7.5.3-13.9-6-19.4,1.6l-2.2-2c-1,.5-2.2,4.2-2.7,5.2,1.2,3.4,0,10.3-1.5,13.3-2.8,0-4.2-.2-6.6,1.2-4.2.3-9.9-2.2-14-3.6-2.4,5.5-6.1,9.7-9.5,14.6-5.9,15.3-9.1,31-12.3,47l-1.5.5c3,8.3,11.6,5.4,15.8-.3-3.2,9.1-17.3,31.1-.2,33v1.1c.1,0,2.5,1.8,2.5,1.8-.9,14.4-6.7,74.1-3.8,83.2,3.7,9.5.9,20,1.4,29.9.4,15.9,2.2,32.2,1.4,48.1.5,11.1,4.6,61.5-1.7,68.6-.7-.2-1.2-.8-1.8-1.3-1.4,2-2.5,3.7-5,4.2,2.5,1.8,1.8,5,3.1,7.3l1.2-.6c.6.4,1,.7,1.6.7,3,14.6.5,33.7-11.2,44.2-4.9,10.9-26.8,23.3-38.7,20.8-15.9,6.3-60.7.5-54.4-24.9,1.1-21.7,26.7-36.4,16.8-50.4l-1.3-.8c-5.2-10.3,1-22.7.3-33.6-6.8-61.4-22.4-121.8-31.8-182.9-2.8,20.7-.6,42.1-3.2,62.8-.4,9.2,4.9,17.4,4.4,26.8-4.8,7.9.5,15.9,0,24.3,2.2,28.4.4,57,.9,85.4-.2,6.5-4.7,11.5-3.9,17.7-.3,6.4,5.4,22.1-3.1,24.3-3.4,4.6-14.3,10.8-20.2,10.3-4.3,4.7-10.4.5-15.6,3.4-14.6,20.4-107.8,32.2-104-6.9,6.8-21.8,36.3-23.9,51.4-39.2-1.7-3.2-2.8-6.4-4-9.7,6.8-23,8.2-25.8,5.3-50.7-1-36.8-8.2-72.9-12.4-109.3-10.8-64-14.2-129.1-15.5-193.9-1.9-3-4-6.5-6.5-9.1-3.4,11.8-5.7,22.9-2.1,35.1,4.2,11,5,22.5,4.8,34.2,1.1,7.8,7.2,26.1-3.5,29.5-9.1-.4-14.7-8.6-17.8-16.4-.5,13.5,12.1,25.8,9.6,38-2,6.4-9.8,4.5-14.3,2.1-9.7-7.7-22.2-11.8-27.2-24.1,1.3-.8,2.1-.3,3.6-.7-11.8-13.2-4.2-49.2-1.7-65.5l-1.6,1.8c-2.3-2.6-3.3-7.1-2.3-10.4-3.1-10.1-3.2-23.4-2.9-33.9,3.6,1.8,1.3,6,2.8,9,1.8-9.1-.2-23.3,1-33.6,3.8-3,7.3-6.1,10.7-9.5-2.6-13-7.9-24.9-5.1-38.3l-3.8,2c3.4-18.1,8.7-36.2,13.9-53.9-7-3.7-17.1-9.9-14-19.2,2.9-10.7,8.4-21,13-31,30-69.4,38.9-73.9,103.1-105.6,2.6-2.1,4.7-5.4,6.8-8.1-9.5-10.8-15.2-27.8-12-42.1.4-9.1-2.9-7.3-6.9-13.7-5.7-12.5-3.2-34.1,9.8-41.2-7.6-25.8,1.7-57.5,25.1-72.1ZM616.3,530.9c2.8-15.6,2.7-31,2.3-46.8-3.9,15-3.9,35.4-4.5,51.1l2.2-4.3Z" fill="#8f4533"/>
  <path d="M364.7,488.8c0-1.2-.4-2.4-.7-3.6,1.2,0,2.3.6,3.4,1,11.1,15.6,29.7,20.5,47,26l.2,2.4c10.1,3.7,19.5,6.5,30.3,7.9-1.1,4.6-4.2,12.5,1.8,14.6l1.1-2c1.9,4.9,8.4,4.5,12.8,5.1,5,.4,13.5,2,18.1.8,6.6-1.6,8.5-14.1,2.1-16.9,1.5,0,2.7,0,4.1-.8l-.5-1.4c11.9.6,23.9-3.3,35.5-.2,6.8-1,22.7-7,19.8,5.4l1.9.8c.2-2.9.4-5.9.5-8.8,4.2-1.1,8.5-2.1,12.7-3.2.2,6.3.5,13.4,0,19.8l.8.4v.4c4-7.4,11.7-6.5,19.2-8.7,5.3,11,14.4,20.9,27.6,19.5l.4-.9c-12.9-.5-20.3-8.1-27.2-18.3,7.8-.8,15.3-3.2,22.1-7.1,3.1-1.8,7.7-8.5,10.8-8.3,2,5.8,1,14.9,1.6,21.2.6-6-1.5-18.3,1.2-23.1l.8.7c-2.4,6.3.4,15.9,0,22.9l1.9.6,2.2-4.3c1.6,2.8.4,5.2,1.1,8.3-2.4,5.5-6.1,9.7-9.5,14.6-5.9,15.3-9.1,31-12.3,47l-1.5.5c3,8.3,11.6,5.4,15.8-.3-3.2,9.1-17.3,31.1-.2,33v1.1c.1,0,2.5,1.8,2.5,1.8-.9,14.4-6.7,74.1-3.8,83.2,3.7,9.5.9,20,1.4,29.9.4,15.9,2.2,32.2,1.4,48.1.5,11.1,4.6,61.5-1.7,68.6-.7-.2-1.2-.8-1.8-1.3-1.4,2-2.5,3.7-5,4.2,2.5,1.8,1.8,5,3.1,7.3l1.2-.6c.6.4,1,.7,1.6.7,3,14.6.5,33.7-11.2,44.2-4.9,10.9-26.8,23.3-38.7,20.8-15.9,6.3-60.7.5-54.4-24.9,1.1-21.7,26.7-36.4,16.8-50.4l-1.3-.8c-5.2-10.3,1-22.7.3-33.6-6.8-61.4-22.4-121.8-31.8-182.9-2.8,20.7-.6,42.1-3.2,62.8-.4,9.2,4.9,17.4,4.4,26.8-4.8,7.9.5,15.9,0,24.3,2.2,28.4.4,57,.9,85.4-.2,6.5-4.7,11.5-3.9,17.7-.3,6.4,5.4,22.1-3.1,24.3-3.4,4.6-14.3,10.8-20.2,10.3-4.3,4.7-10.4.5-15.6,3.4-14.6,20.4-107.8,32.2-104-6.9,6.8-21.8,36.3-23.9,51.4-39.2-1.7-3.2-2.8-6.4-4-9.7,6.8-23,8.2-25.8,5.3-50.7-1-36.8-8.2-72.9-12.4-109.3-10.8-64-14.2-129.1-15.5-193.9-1.2-1.9-2.4-3.8-3.6-5.8Z" fill="#756137"/>
  <path d="M393.4,863.4c2.1-1.7,3.7-3.9,5.4-6,8.9,1.1,18,1.8,26.5,4.9l.4-.9c2.1.6,4.2,1.2,6.4,1.6v-.6s-3.8-1.5-3.8-1.5v-1.1c16.9,6,38,10.2,54.3.4.9,3.1.9,6.3,1.1,9.5,2.1-2.9-.2-6.2.8-9.2.9,2.3-.3,5.4.5,8l1.7.4c0,5.7,4.6,20.2-3.3,21.8-3.4,4.6-14.3,10.8-20.2,10.3-4.3,4.7-10.4.5-15.6,3.4-14.6,20.3-107.8,32.2-104-6.9,5.9-20.7,32.2-22.3,46.4-35.5l3.5,1.4Z" fill="#614326"/>
  <path d="M393.4,863.4c2.1-1.7,3.7-3.9,5.4-6,9.1,1.1,18.3,1.9,27,5.1-6.2,5.1-9.6,12.5-17.3,16.2-6.3-5.9-14.9-7.7-22.6-10.6,2.1-2.1,5-3.3,7.5-4.6Z" fill="#614326"/>
  <path d="M398.8,861c4.6,2.1,12.9,3.8,15.4,8.1-5.5-.5-12.8-2.6-18.2-4.8l-.2-.8,2.9-2.5Z" fill="#261c12"/>
  <path d="M343.6,897.5c1.7,1.6,1.3,3,2.6,4.4,7.5,30.2,83.5,17.3,100.4.2l.9,2.4c-14.6,20.3-107.8,32.2-104-6.9Z" fill="#261c12"/>
  <path d="M483.8,869.7c2.1-2.9-.2-6.2.8-9.2.9,2.3-.3,5.4.5,8l1.7.4c0,6,5,21.6-4.5,22l-1-2.4c5.4-1.8,2.5-9.9,2.9-14.2-6.2,8.3-17.9,11-26.9,15.3-29.9,13.6-79.1,32.9-106.8,6.8l.2-.4c31.2,21.1,73.5,8.7,104.1-7.6,9-5.1,26.6-7.4,29-18.7Z" fill="#261c12"/>
  <path d="M389.9,861.9l3.5,1.4c-2.6,1.3-5.5,2.5-7.5,4.6l.6.5-1.4,1.6.8.7c-14.2,5.5-38.3,13-39.7,31-1.3-1.4-1-2.8-2.6-4.4,5.9-20.7,32.2-22.3,46.4-35.5Z" fill="#2f2516"/>
  <path d="M425.4,862.3l.4-.9c2.1.6,4.2,1.2,6.4,1.6v-.6s-3.8-1.5-3.8-1.5v-1.1c16.9,6,38,10.2,54.3.4l.5,2.2c-18.1,12-38.8,6.6-57.8,0Z" fill="#261c12"/>
  <path d="M425.9,862.4l1.6,1c-3.1,5.2-13.6,17-20.2,17.7-3.5-6.5-16.4-6.7-22.1-10.9l1.4-1.6c7.9,2,15.7,4.7,22,10.1,7.7-3.7,11.1-11.1,17.3-16.2Z" fill="#271b12"/>
  <path d="M462.7,898.2c4.1-.2,15.7-6.8,18.6-9.7l1,2.4h1.1c-3.4,4.4-14.3,10.7-20.2,10.2l2.8-1.6h-.4s1.8-.9,1.8-.9l-3.3,1.1-1.4-1.3Z" fill="#271b12"/>
  <path d="M462.7,898.2l1.4,1.3,3.3-1.1-1.8,1h.4c-9.7,7.4-9,1.5-18.4,5l-.9-2.4c4.9-3.2,10.6-1.8,16-3.8Z" fill="#271b12"/>
  <path d="M523.3,866.6c15.3,3.9,34.6-5,50.4,1.2,10.2,3.3,18.5,9.5,28.9,2,2.5,1.8,1.8,5,3.1,7.3l1.2-.6c.6.4,1,.7,1.6.7,3,14.6.5,33.7-11.2,44.2-4.9,10.9-26.8,23.3-38.7,20.8-15.9,6.3-60.7.5-54.4-24.9,1.1-21.7,26.7-36.4,16.8-50.4l2.2-.2Z" fill="#614326"/>
  <path d="M523.3,866.6c15.3,3.9,34.6-5,50.4,1.2,10.2,3.3,18.5,9.5,28.9,2l1.8,2.1c-6.9,6.7-17.9,6-26.6,3.4-10.1-12.5-36.3-3.1-50.5-3.1-.7,2.9-1.6,7.4-3.9,9.4l-1.4-2.2c3.1-4.3,1-8.3-1-12.5l2.2-.2Z" fill="#271b12"/>
  <path d="M522.2,879.3l1.4,2.2c-4.3,14.8-21.1,28.1-14.7,47.6,8.1,12.6,36.7,14.4,49.6,10.3,1.1,1,2,1.9,3.5,2.2-13.1,4.7-29.6,3.1-42.9-1.6-30.9-10.3-6.9-43.2,3.1-60.7Z" fill="#1b160d"/>
  <path d="M595.4,919.6c.8,1.1.8,1.2,2,1.7-4.9,10.9-26.8,23.3-38.7,20.8,1.1-.7,2-.8,3.3-.6-1.6-.4-2.4-1.2-3.5-2.2,13.8-.2,29.2-8.1,36.9-19.7Z" fill="#271b12"/>
  <path d="M606.7,891.1c.9,0,1.9.1,2.9,0,.4,9.8-4.3,23.8-12.1,30.2-1.2-.5-1.3-.6-2-1.7,7.5-6.7,11.1-18.9,11.3-28.6Z"/>
  <path d="M605.8,877.1l1.2-.6c.6.4,1,.7,1.6.7.9,4.5,1.5,9.4.9,14-.9,0-1.9,0-2.9,0-1.2-4.4-.8-9.4-.9-14Z" fill="#1b160d"/>
  <path d="M520,521.7c6.8-1,22.7-7,19.8,5.4l1.9.8c-.2,4,.2,9.4-1.4,13l-.8.2-.8-3.4c-21.1,2.9-39.6,5.8-61,6.1,0,6.5,2.6,38.6-.8,41.9-3,2.9-8.7,4.5-12.4,6.5-12.3-2.8-2.8-41.8-9.5-50.6v-.8c7.1-1.9,17,1.6,23.8,0,6.6-1.6,8.5-14.1,2.1-16.9,1.5,0,2.7,0,4.1-.8l-.5-1.4c11.9.6,23.9-3.3,35.5-.2Z" fill="#271b12"/>
  <path d="M520,521.7c15.3-3.2,24-6.5,18.6,13.4-15.5,3.5-36.5,5.3-52.6,5.1,0-5.1-.1-10.2-.2-15.2,11.6.4,22.8-1,34.1-3.2Z" fill="#614326"/>
  <path d="M456.7,542.6c6.1.9,12.4,1,18.6,1.4.4,11.7,2.3,23.9,1.6,35.5,0,7.6-9.1,8.9-14.1,12.7-3.6-16.4-2.1-33.3-6.1-49.5Z" fill="#756137"/>
  <path d="M476.7,605.2c-17.3-4.8-36.5-8.7-52.6-16.7l-.3-.6c19.5,6.9,40.1,11.1,59.9,17.2,8.9,42.2,14.8,85,22.8,127.4h-3.2c-6.2-27.6-9.4-55.6-15-83.1-1.7,12.5-1.6,25.9-1.8,38.5l-1.9-2.6-1.4,3.8c-.1-15.1.3-30.2,2.3-45.2,0-7,.3-46.5-13.4-34.6.8,37.2-1.1,74.5-1.9,111.7.4,6.5,5.7,12.4,6.1,18.8l-.4.7-.3-1.5h-1c0,0,.2-.9.2-.9-8.8-15.3-6.2-32.7-4.6-49.7.9-26.6,1.5-53.7.9-80.3-8.8.5-17.7.9-26.5.4l-.3-1.2-1.4.2-.2.8-.9-.3c11.5-1.8,23.4-.8,35.1-2.9Z" fill="url(#linear-gradient)"/>
  <path d="M609.8,635.2l2.4,1.8c-.9,14.4-6.7,74.1-3.8,83.2,3.7,9.5.9,20,1.4,29.9.4,15.9,2.2,32.2,1.4,48.1.5,11.1,4.6,61.5-1.7,68.6-.7-.2-1.2-.8-1.8-1.3,4.1-25.9-.5-52.8,0-78.9-1-46.1-6-104.1,2-151.3Z"/>
  <path d="M404.6,526.8c-5.3-27.3,14.1-5.9,40.3-4.2-1.1,4.6-4.2,12.5,1.8,14.6-15.1-.6-27.8-6.9-42.1-10.4Z" fill="#614326"/>
  <path d="M390.3,710.7c5.3,30.6,9.1,61.4,9.9,92.4,1.5,13.3,1.9,26.4-4.4,38.5-1.2-.3-2-1-2.9-1.8,7.2-12.7,4.4-28.1,3.4-41.9-.6-28.9-5.7-57.3-9.2-85.9l3.2-1.2Z" fill="#1b160d"/>
  <path d="M373.4,553.2c2.7,45.4,7.8,90.7,13.5,135.8-1.3-1.5-1.6-2.9-2-4.9l-1.1,4.4c-7-42.2-11.1-84.9-13.4-127.6.8.6.9.4,1.9.4,1.4-2.2,1-5.6,1.1-8.2Z" fill="#1b160d"/>
  <path d="M364.7,488.8c0-1.2-.4-2.4-.7-3.6,1.2,0,2.3.6,3.4,1,7,9.2,17.2,15.6,27.3,20.8-1.6.9-3.9,1.1-5.7.5-3.6,3.5,1.9,17.8-2.7,22.3l.4.3h0s-.6-.6-.6-.6c.1-4,1.3-9.2-3-11.5l1.8-.9c-13.7-6.4-10.8-1.5-15.1-16.4l-.6.3-.6,5c-.5-3.8-.3-7.7-.3-11.5-1.2-1.9-2.4-3.8-3.6-5.8Z" fill="#271b12"/>
  <path d="M371.7,506.5c0-2.5-.5-4.4.8-6.6,5.2-1.4,9.1,4.5,13.2,6.9.1,2.7,1,8.4-.3,10.7-5.1-3.3-14.1-3.1-13.8-11Z" fill="#614326"/>
  <path d="M511.9,777.5l3.8.9c3.1,17.6,6.3,35.5,7.5,53.3.9,14.1-4.7,20,.2,34.8l-2.2.2-1.3-.8c-5.2-10.3,1-22.7.3-33.6-1.2-18-4.6-37.2-8.2-54.9Z"/>
  <path d="M390,504.3c8.2,2.4,16.3,5.3,24.4,7.9l.2,2.4c-12.7-5.3-11.2,2.5-10.1,12.1,14.3,3.5,27.1,9.8,42.1,10.4l1.1-2c1.9,4.9,8.4,4.5,12.8,5.1l-5.6.8v.8c-12.7,1-37.2-8.4-49.4-12.6l-1,.9v4.2c-.1,0-.8.2-.8.2-2.6-5.7-1.8-16.1-2-22.4-3.1-1.6-6.6-2.8-9.8-4,.9-.2,1.8-.7,2.8-1-2-.8-3.4-.9-4.7-2.8Z" fill="#261c12"/>
  <path d="M392.9,839.8c.9.8,1.7,1.6,2.9,1.8-5.2,21.5,20,8.5,32.5,18.2v1.1s3.9,1.5,3.9,1.5v.6c-2.2-.5-4.3-1-6.4-1.6l-.4.9c-8.5-3.1-17.6-3.8-26.5-4.9-1.7,2.1-3.3,4.4-5.4,6l-3.5-1.4c1.6-1.4,3.4-2.5,5.1-3.7-1.7-3.2-2.8-6.4-4-9.7.6-2.9,1.3-5.8,1.9-8.7Z" fill="#2f2516"/>
  <path d="M486.3,764l3.3-.6c1.1,16.8,1.6,34.1.9,50.9l-3.3,2c.5-17.2.5-35.1-.9-52.3Z"/>
  <path d="M604.8,552.6c1.1.4,2.1.7,3.1,1.3-5.9,15.3-9.1,31-12.3,47l-1.5.5c-2.7-9.9,6.1-39.2,10.8-48.8Z"/>
  <path d="M485.1,712.3c.6,15.8,7.3,18.7,2.1,35.9l-1.6.5c-.5,1.9-.5,3.8-.6,5.7-1.3-6.6,0-13.4-.9-20-.6-6.6-4-15.8-2.3-22.1,1.2.1,2.1.3,3.2,0Z" fill="#2f2516"/>
  <path d="M484.5,746.5c.9-3.1-.3-7,1.2-9.7,2,.4,2.4.9,3.8,2.3-1.1,2.9-2.5,6-2.3,9.1l-1.6.5c-.5,1.9-.5,3.8-.6,5.7-.7-2.7-.6-5.2-.6-8Z" fill="#261c12"/>
  <path d="M503.3,732.5h3.2c3.3,15.4,6.3,30.7,9.2,46l-3.8-.9c-3.2-15-5.5-30.1-8.5-45.1Z" fill="#1b160d"/>
  <path d="M369.2,517.3l2.5.5c2.4,5.3.8,13.5.7,19.3,1.3,1.2.9,9.6,1,11.2-.2,4,.9,9.5-1,13.1-1,0-1.1.2-1.9-.4-.8-14.2-1.1-29.5-1.3-43.7Z"/>
  <path d="M490.4,814.3c0,11.5,0,23,0,34.4-.8.6-1.3.8-2.2,1.1-2.5-4.3-.5-18.7-1-24.5-.1-.2-.1-8.6-.1-9.1l3.3-2Z" fill="#1b160d"/>
  <path d="M368.7,506.2l.6-5,.6-.3c4.3,14.9,1.4,10,15.1,16.4l-1.8.9c-3.3-1.2-6.6-2.4-9.9-3.8v24.7c-2.3-6.1,1.7-15.3-1.6-21.3l-2.5-.5c-.4-3.7-.5-7.4-.5-11.1Z" fill="#1b160d"/>
  <path d="M616.3,530.9c1.6,2.8.4,5.2,1.1,8.3-2.4,5.5-6.1,9.7-9.5,14.6-1-.6-2-.9-3.1-1.3,2.3-4,5.1-7.7,7.8-11.4,0-2.2-.3-4.4-.4-6.6l1.9.6,2.2-4.3Z" fill="#1b160d"/>
  <path d="M482.7,860.2c7-6.3,3.4-26.7,4.5-35.8.8,6.2-1.5,20.7,1.1,25.4.9-.3,1.4-.5,2.2-1.1-.5,7.3-5.4,13-3.7,20.2l-1.7-.4c-.7-2.6.4-5.7-.5-8-1,3,1.3,6.3-.8,9.2-.2-3.1-.3-6.4-1.1-9.5Z" fill="#2f2516"/>
  <path d="M483.1,689.2l1.4-3.8,1.9,2.6c-.3,8-.1,16.4-1.4,24.3-1.1.4-2.1.2-3.2,0,.8-7.6,1.1-15.5,1.2-23.2Z"/>
  <path d="M383.9,688.5l1.1-4.4c3.3,8.4,3.8,17.6,5.3,26.6l-3.2,1.2c-1.3-7.7-2.5-15.6-3.2-23.4Z"/>
  <path d="M485.1,754.5c0-2,.1-3.8.6-5.7l1.6-.5c1.3,5,2.5,10,2.4,15.1l-3.3.6c-.5-3.2-.8-6.3-1.2-9.5Z" fill="#1b160d"/>
  <path d="M450.8,17.8c41.4-22,86-12.6,116,22.7,7.4,12.6,5.2,35.4,2.7,49.4,18.4,10.7,14.8,46.1-6.2,51.8,0,3.5.3,7.5-.7,10.9-1.4,1.5-1.6,3-2,5l-1-6.6c-.4,9.8-2.4,21.2-8.9,28.9.8,2.3,2.7,1.9,2.2,4-6.9,4.7-10.6,14-17.9,18.7-23.6,23.4-66,22.5-87.2-3.5l.4-1.6h.7c-.5-.9-.6-1.6-.6-2.5-5.2-8.2-5.2-4-10.2-9-11.7-11.8-12.9-28.1-12.8-43.7l-1.1-.8-1.3,3.4c.4-9.1-2.9-7.3-6.9-13.7-5.7-12.5-3.2-34.1,9.8-41.2-7.6-25.8,1.7-57.5,25.1-72.1Z" fill="#efba91"/>
  <path d="M554,108.3c2.6,23.3,12.3,50.7-3.3,71.4.8,2.3,2.7,1.9,2.2,4-6.9,4.7-10.6,14-17.9,18.7-23.6,23.4-66,22.5-87.2-3.5l.4-1.6h.7c-2.4-8.7-6.5-7.2-10.8-11.5-11.7-11.8-12.9-28.1-12.8-43.7,1-3,.4-11.6,4.8-11.3,5.9,3.7,3.5,12.1,9.9,15.5,11.1-.9,12.1-14.6,29.5-14.2,6.1,10.1,18.4,8.6,28.3,6.7,3.3-2.8,6.3-6.1,9.4-9.2,8.6-.2,16.1,1.3,24.2,3.9,2.7,4.3,4.9,8.8,7.2,13.3l.4-.4c-.6-1.5-1.3-2.9-.8-4.5,12.7-5,14.8-21.6,15.8-33.6Z" fill="#614326"/>
  <path d="M550.6,179.8c.8,2.3,2.7,1.9,2.2,4-6.9,4.7-10.6,14-17.9,18.7-23.6,23.4-66,22.5-87.2-3.5l.4-1.6h.7c-.5-.9-.6-1.6-.6-2.5,6.5,3.9,11.4,9.5,17.3,14,11.7,7.6,33.5,7.7,45.7,1.1,5.7-5.9,16.2-6.2,19.4-13.7,0,1.3,0,2.1.3,3.4l2.2.3c7-5.7,11.2-14,17.6-20.2Z" fill="#271b12"/>
  <path d="M512.5,208.8c6.1-.9,10.9-6.2,17.5-6.3l.4.9c-4.2,3.9-13.3,9.6-19.2,6.6l1.4-1.2Z" fill="#261c12"/>
  <path d="M523.7,146.8l1.5-1.8.6.5c-3.9,10.9-7.3,25-18.5,30.9,0,2.6-2.3,3.9-4.5,4.8-18.5,7.4-47.7-2.4-43.6-25.9l2.4,3.6,3.9,2.5,1.2-2.1c-2.6-2.7-4.2-4.7-5.1-8.4,9.3-5.3,20.6,3.5,30.4,2.4,5,.2,14.4-6,17.2-2.2,4.7-1.6,9.6-3.6,14.6-4.2Z" fill="#fefdfe"/>
  <path d="M522.4,154.9c-1.2,7.9-8.2,17.6-15.1,21.5,0,2.6-2.3,3.9-4.5,4.8-18.5,7.4-47.7-2.4-43.6-25.9,15,20.8,46.6,16.4,63.2-.4Z" fill="#efba91"/>
  <path d="M507.3,176.4c0,2.6-2.3,3.9-4.5,4.8-18.5,7.4-47.7-2.4-43.6-25.9.2.4,2.7,3.8,2.5,4.2,1.9,22.7,28.8,25.2,45.6,16.9Z" fill="#271b12"/>
  <path d="M523.7,146.8l1.5-1.8.6.5c-1.1,3.1-2.6,6.2-3.4,9.4-14.7,14.2-40.3,21-57,6.5l1.2-2.1c17.1,13.2,47.1,6.8,57.1-12.4Z"/>
  <path d="M465,149c9.1-.5,18.1,4.5,27,4.2,5,.2,14.4-6,17.2-2.2-16.8,6.1-30.9,3.4-47.6-.2l3.4-1.7Z" fill="#2f2516"/>
  <path d="M459.2,155.3c1.3-1.3-3.4-7.4-2.8-10.1,2.2,2.7,5.4,3.1,8.6,3.8l-3.4,1.7c.9,3.7,2.5,5.7,5.1,8.4l-1.2,2.1-3.9-2.5-2.4-3.6Z" fill="#1b160d"/>
  <path d="M450.8,17.8c41.4-22,86-12.6,116,22.7,7.4,12.6,5.2,35.4,2.7,49.4,18.4,10.7,14.8,46.1-6.2,51.8,0,3.5.3,7.5-.7,10.9-1.4,1.5-1.6,3-2,5-2-16.4-3.7-32.9-6.5-49.2-1,12-3.1,28.5-15.8,33.6-.5,1.6.3,3,.8,4.5l-.4.4c-2.3-4.5-4.6-9-7.2-13.3-8.1-2.7-15.7-4.2-24.2-3.9-3.1,3.1-6,6.4-9.4,9.2-10,2-22.3,3.4-28.3-6.7-19.4-1.4-25.3,25.5-34.4,8.6l1.8-2.3c.8,1.9,1.6,3.2,3.1,4.6,4.9.7,9.1-7.5,13.1-10.3,4.6-3.3,11.5-1.1,16.2-3.8l3.1-.6c3.6,11.5,20.7,11.5,28.1,4,2.3-2.7,3.4-7.2,6.5-9,6.6,12.7,23.5-2.9,31.7,16.4,27.6-26.9,1.9-65.7.5-97.6l-6.4-5.2c-9.5,5.3-22,11.7-33.1,9.5l-.3-1.7c2.4-3.1,5.6-5.9,8.2-8.9-15.3,9.5-33,15.3-50.9,17.5,1.4-1.8,2.7-3.9,4.7-5.2l-.2-1.5c1.7-.6,5.1-1.2,6.3-2.3-1.1-1.1-1.7-1.4-3.3-1.3-29.1,0-17.8,30.4-31.8,43.6v1.2c0,0,2.4,1.3,2.4,1.3l.2.6-1.3,1.9c-2.4-.3-5.9-.2-7.8-1.8-7.6-25.8,1.7-57.5,25.1-72.1Z" fill="#614326"/>
  <path d="M450.8,17.8c41.4-22,86-12.6,116,22.7,7.4,12.6,5.2,35.4,2.7,49.4,18.4,10.7,14.8,46.1-6.2,51.8,0,3.5.3,7.5-.7,10.9-1.4,1.5-1.6,3-2,5-2-16.4-3.7-32.9-6.5-49.2-1,12-3.1,28.5-15.8,33.6-.5,1.6.3,3,.8,4.5l-.4.4c-2.3-4.5-4.6-9-7.2-13.3-8.1-2.7-15.7-4.2-24.2-3.9-3.1,3.1-6,6.4-9.4,9.2-10,2-22.3,3.4-28.3-6.7-19.4-1.4-25.3,25.5-34.4,8.6l1.8-2.3c.8,1.9,1.6,3.2,3.1,4.6,4.9.7,9.1-7.5,13.1-10.3,4.6-3.3,11.5-1.1,16.2-3.8l3.1-.6c3.6,11.5,20.7,11.5,28.1,4,2.3-2.7,3.4-7.2,6.5-9,6.6,12.7,23.5-2.9,31.7,16.4,27.6-26.9,1.9-65.7.5-97.6l-6.4-5.2c-9.5,5.3-22,11.7-33.1,9.5l-.3-1.7,2.1-2.5c8.5,5.4,27.4-3.4,31.2-12.3l.8-.3c1.1,5.8,2.9,6.4,7.7,9.7,1.9,18.6,13,40.7,13.3,61,2.9-4,6.5-7.2,10.3-10.3,3.6-15.7,3.2-29.4.8-45.3-8-8.8-21.8-22.4-32.5-27.5-27.4-11.9-64.6-9.2-88.3,9.4-1.1-.5-1.6-1.4-2.3-2.3,2.5-2.7,5.3-4.6,8.4-6.6Z" fill="#271b12"/>
  <path d="M575.5,126.1c-2.3,4.5-5.2,9.9-10.6,10.7-6.7-2.1-7.3-27.5-7.2-33.1,2.2-9.5,14.1-12.4,17.7-2.1.5-1.2,1.6-2.1,2.5-3.1,4.6,9.5,4,20.8-.1,30.4-1.4-.8-1.7-1.4-2.3-2.8Z" fill="#efba91"/>
  <path d="M575.4,101.6c.5-1.2,1.6-2.1,2.5-3.1,4.6,9.5,4,20.8-.1,30.4-1.4-.8-1.7-1.4-2.3-2.8,2.6-8.6,2.4-15.9,0-24.5Z"/>
  <path d="M461.3,48.1c8.6-1.9,15.3-8,23.3-10.9l1,.8c-1.7,1.5-5.4,3.9-6,6.1,1.4.7,2.7.2,4.2,0l-2,1.9.2,1.5c-7.8,3.3-17,4.7-25.4,5.9,1.4-1.8,2.7-3.9,4.7-5.2Z" fill="#261c12"/>
  <path d="M428.7,44.3l2.7-2.3c-2.3,16.3-8.6,30.9-2.7,47.7-1.2.4-1.7.4-2.9.1-4.4-14.8-3-31.4,3-45.5Z" fill="#2f2516"/>
  <path d="M483.8,44.1c12.1-4.6,22.4-6.5,29.2-18.4h.8c.3,6.5-5.3,14.4-10.7,17.7l-1.7-1.2c2-2.1,4.2-4.2,6.1-6.4-7.9,5.2-16.5,8.7-25.5,11.6l-.2-1.5,2-1.9Z" fill="#261c12"/>
  <path d="M442.4,24.4c.7.9,1.3,1.8,2.3,2.3-6.3,7.1-10.7,12.1-13.7,21.3,0-2.1-.1-4,.3-6.1l-2.7,2.3c2-6.6,8.7-15.3,13.8-19.9Z" fill="#2f2516"/>
  <path d="M422.7,144.7c.4-9.1-2.9-7.3-6.9-13.7-5.4-11.8-3.4-32.9,8.5-40.2l-3.5,5.2c2.6-1.7,4.6-2.2,7.7-2.1,5.4,3.9,2.1,11.2,2.1,16.7-2-3.2-4-6.5-6.3-9.5,1.5,4.4,5.6,12.8,4.6,17.1-1.3,6.6,3.4,10.5,4.8,16.6-1.2-1.4-2.4-2.8-3.8-4-4.3-.3-3.8,8.3-4.8,11.3l-1.1-.8-1.3,3.4Z" fill="#efba91"/>
  <path d="M422.7,144.7c.4-9.1-2.9-7.3-6.9-13.7-5.4-11.8-3.4-32.9,8.5-40.2l-3.5,5.2c2.6-1.7,4.6-2.2,7.7-2.1-20.6,2.2-8.6,63.6.5,24.3-1.3,6.6,3.4,10.5,4.8,16.6-1.2-1.4-2.4-2.8-3.8-4-4.3-.3-3.8,8.3-4.8,11.3l-1.1-.8-1.3,3.4Z" fill="url(#linear-gradient1)"/>
  <path d="M425.7,89.8c1.9,1.6,5.4,1.4,7.8,1.8l1.3-1.9-.2-.6-2.5-1.3v-1.2c14.1-13.3,2.8-43.6,31.9-43.6,1.6,0,2.3.2,3.3,1.3-5.9,2.9-13.1,3.9-19.5,5.5-2.5,29.1-21.9,59.5-11,88.6l-1.8,2.3c-.8-4.2-1.5-8.6-3.8-12.3-2.7-3.7-2.2-5.7-2.2-10.1,1-4.3-3.1-12.7-4.6-17.1,2.3,3,4.3,6.3,6.3,9.5,0-5.6,3.3-12.8-2.1-16.7-3.1,0-5.1.4-7.7,2.1.8-1,3.5-5.9,4.9-6.2Z" fill="url(#linear-gradient2)"/>
  <path d="M482.7,110c.1-3.8-.6-10.7,2.3-13.5,2.4,4.3,1.8,11.2.2,15.8l-2.5-2.2Z" fill="#271b12"/>
  <path d="M470.2,118.4c2.8-5.2,7.3-6.6,12.5-8.4l2.5,2.2c-4.3,2.6-9.4,3.1-12.3,7.4-1.5,0-1.6-.4-2.7-1.3Z"/>
  <path d="M470.2,118.4c1.1.9,1.3,1.2,2.7,1.3-.4,2.9-.6,5.6-.6,8.6l-3.1.6c-.9-3.9-.3-6.7.9-10.5Z" fill="#261c12"/>
  <path d="M509.6,71.1c8.3-.8,24.2,2.4,25.6,12.2l-1.4.3c-8.4-6.9-18-5.8-28-6.9-.9-.1-.8-.4-1.4-1.1,1-2.3,3.1-3.2,5.2-4.5Z" fill="#261c12"/>
  <path d="M463.6,71.9c4.6-.3,11.1-.5,14.7,2.9-.3.5-.9,1.9-1.3,2.2-.8.6-13.3.7-16.6,1.8-4.4,1.9-8.6,4.3-13,6.2,4.5-6.7,8.9-9.9,16.3-13.1Z" fill="#261c12"/>
  <path d="M516,91.6c7.6,1.7,5.9,13.5,1.6,17.9-8.5-1.9-5.3-12.9-1.6-17.9Z" fill="#261c12"/>
  <path d="M465,91.6c8.1,1.3,6.1,12.6,3.3,17.9-8.4-1.4-6.7-12.5-3.3-17.9Z" fill="#261c12"/>
  <path d="M328.9,352.3c10.7,6.9,24.4,8.4,36.7,11-9.8,39.5-17,81.8-7.6,121.6,1.7,1,2.1,1.1,3.1,3-8.8,29.3,5.3,38.4,3.5,66.9,1.1,7.8,7.2,26.1-3.5,29.5-9.1-.4-14.7-8.6-17.8-16.4-.5,13.5,12.1,25.8,9.6,38-2,6.4-9.8,4.5-14.3,2.1-9.7-7.7-22.2-11.8-27.2-24.1,1.3-.8,2.1-.3,3.6-.7-11.8-13.2-4.2-49.2-1.7-65.5l-1.6,1.8c-2.3-2.6-3.3-7.1-2.3-10.4-3.1-10.1-3.2-23.4-2.9-33.9,3.6,1.8,1.3,6,2.8,9,1.8-9.1-.2-23.3,1-33.6,3.8-3,7.3-6.1,10.7-9.5-2.6-13-7.9-24.9-5.1-38.3l-3.8,2c2.6-14.4,6.8-28.4,10.5-42.5l3.7,1.5c.7-3.9,1.5-7.6,2.7-11.3Z" fill="#efba91"/>
  <path d="M320.4,559.9c4.6,15.7,6.5,32.5,18.7,44.7l-.6,3.5c-9.7-7.7-22.2-11.8-27.2-24.1,1.3-.8,2.1-.3,3.6-.7-.9-6.5-1.2-12.7-.4-19.3,3,13.5,3.3,29,16.6,36.8-7.6-12.8-11-26-10.6-40.9Z" fill="#1b160d"/>
  <path d="M358,484.9c1.7,1,2.1,1.1,3.1,3-10.2,29.8,10.2,50.6-.4,53.5-5-31.6-11.4-22.5-2.6-56.5Z"/>
  <path d="M361.2,560.3c0-2.1-.2-4,.9-5.8l2.4.4c3.1,10.7,6.6,40-12.9,25.8l2.4-1c13.7,6.2,9.4-12.2,7.2-19.3Z"/>
  <path d="M340.5,565.2c0-6.2.3-12.3.7-18.5,2.9,2.9,4.9,24.1,12.8,32.8l-2.4,1c-5-4.2-7-9.1-9.4-15l-1.8-.4Z" fill="#261c12"/>
  <path d="M340.5,565.2l1.8.4c2.1,8.3,3.4,17.6,7.6,25.4l-2.7,1.5c-6.2-6.9-6.9-18.4-6.7-27.2Z" fill="#1b160d"/>
  <path d="M306.4,475.2c3.6,1.8,1.3,6,2.8,9,0,0,2.8,21.6,2.8,21.6-.9,1-2.1,2.2-2.7,3.4-3.1-10.1-3.2-23.4-2.9-33.9Z"/>
  <path d="M347.2,592.5l2.7-1.5c6.8,11.1,3.6,25-11.4,17.1l.6-3.5c12.3,6.5,13.6-3,8.1-12.1Z"/>
  <path d="M317.3,382.2c1.2-6.7,3.4-13.5,5.2-20.1l3.7,1.5-5.5,19.6-3.4-1Z" fill="#1b160d"/>
  <path d="M317.3,382.2l3.4,1c-1.8,6.4-3.4,12.9-4.9,19.4l-3.8,2c1.1-7.6,3.2-15.1,5.4-22.5Z"/>
  <path d="M364,537.6c.3,5.7.5,11.5.5,17.2l-2.4-.4c-1.1,1.8-.8,3.7-.9,5.8-1.5-5.8-.8-12.8-.6-18.8,2.3-.5,2.8-1.8,3.4-3.8Z" fill="#271b12"/>
  <path d="M312,505.8c.5,3.8,1.5,8.1,1.2,11.9l-1.6,1.8c-3.2-3.8-4-10.5.4-13.8Z" fill="#261c12"/>
  <path d="M614.6,375.4c22.4-.5,41.2-3.9,62.4-11.3-2.9,9.6-13.6,38.4-12.4,47.4,1.9,3.4,5.9,4.9,9.3,6.5-.5,9-.9,17.7-2.4,26.6,1.4,1.1,2.5,1.9,3.1,3.6-3.6,15.4-6.1,31.5-7.2,47.3-1.6-.2-2-.2-3.4-1.3-1.9,9.1-.4,20.1-.3,29.3-7.5.3-13.9-6-19.4,1.6l-2.2-2-1,1.1c-5.9.1-12.9-2.9-18.4-4.9-2-47.8,3-97-8.2-143.8Z" fill="#efba91"/>
  <path d="M671.6,444.6c1.4,1.1,2.5,1.9,3.1,3.6-3.6,15.4-6.1,31.5-7.2,47.3-1.6-.2-2-.2-3.4-1.3.9-16.7,4.5-33.2,7.5-49.6Z"/>
  <path d="M642.2,523.1c5.8-6.2,14.3-3.9,21.6-2.6v3.1c-7.4.3-13.9-6-19.4,1.6l-2.2-2Z" fill="#261c12"/>
  <path d="M611.2,375.3c-14.8,1.1-9.8-26.5-12.3-36.6-3-22.2-7.2-39.8-8-63.2,2,7.5,7.3,46.5,7.8,47.5.9-12.2,1.6-24.8,5.2-36.7l1.8,2.9c-5,26.4-5.9,53.2.2,79.4,13.6,10.9,58.4-3.5,72.9-9.5,4.8-10.7,7.8-21.9,12.6-32.5-2.4-7-5.9-14.7-7.2-21.9.5-.9,1-1.5,1.7-2.2l.6,1,.9-.6c2.5,5.4,4,11.2,6.4,16.7,2.2-4.2,4.2-8.7,7.3-12.3.8,1.2,1.6,2.1,1.5,3.6-9.8,21.1-32.4,78.6-34.8,100.6,10.5,4.3,20.6,11.4,32,12.8v3.9c-7.4-2.1-14.9-4.3-21.7-7.9-.3,9.5-1.2,18.5-3.2,27.8-.6-1.7-1.7-2.5-3.1-3.6,1.4-8.9,1.8-17.6,2.4-26.6-3.3-1.7-7.4-3.2-9.3-6.5-1.2-9,9.4-37.8,12.4-47.4-21.2,7.4-40,10.9-62.4,11.3,11.2,46.8,6.3,96,8.2,143.8,5.5,2,12.5,5,18.4,4.9l-1.7,4.1c1.2,3.4,0,10.3-1.5,13.3-2.8,0-4.2-.2-6.6,1.2-4.2.3-9.9-2.2-14-3.6-.7-3.1.5-5.6-1.1-8.3,2.8-15.6,2.7-31,2.3-46.8-3.9,15-3.9,35.4-4.5,51.1l-1.9-.6c.5-7-2.4-16.5,0-22.9l-.8-.7c-2.7,4.7-.6,17.1-1.2,23.1-.5-6.3.5-15.4-1.6-21.2-3.1-.2-7.8,6.5-10.8,8.3-6.8,3.8-14.4,6.2-22.1,7.1,6.9,10.2,14.3,17.7,27.2,18.3l-.4.9c-13.2,1.4-22.3-8.5-27.6-19.5-7.5,2.2-15.2,1.2-19.3,8.7v-.4c.1,0-.7-.4-.7-.4,0-4.5.9-10.2,1-14.7l1.2-.8c0-1.7,0-3,.5-4.6,14.6-4.2,29.1-8.5,42.4-16.5,3.8-1.9,9.4-5.1,13.8-3.6-.6-.9-1.9-1.8-2.8-2.5l.2-3c2.8-1.6,4.8-4.4,6.8-6.7,1-36.1.7-72.5-6.8-108Z" fill="#271b12"/>
  <path d="M557.1,520.3c0-1.7,0-3,.5-4.6,14.6-4.2,29.1-8.5,42.4-16.5,3.8-1.9,9.4-5.1,13.8-3.6-.7,4.9-2.3,9.5-3.4,14.3-23.8,15.2-25.5,14.9-52.9,20.4l-.3-10Z" fill="#614326"/>
  <path d="M616.8,527.2c1.7-1.4,2.7-2.6,3.4-4.8l1.3-.7c3.4,1.1,16,4.5,18,6.5,1.2,3.4,0,10.3-1.5,13.3-2.8,0-4.2-.2-6.6,1.2-4.2.3-9.9-2.2-14-3.6-.7-3.1.5-5.6-1.1-8.3l.5-3.7Z" fill="#614326"/>
  <path d="M545.4,191.7c2-2.4,4.6-6.8,7.5-7.9-2.7,11.3-11,20.5-19.1,28.5l-.4,4.9c-7.9,6.8-16,13.2-24.4,19.2-6.2,4.6-16.8,14.7-24.3,15.8-14-15.5-29.7-31.5-35.9-52,26.1,29.6,74.9,22.6,96.7-8.6Z" fill="#efba91"/>
  <path d="M508.2,232.6c.3,1.3.7,2.5.7,3.8-6.2,4.6-16.8,14.7-24.3,15.8l-.9-.6c2.5-4.6,19.4-15.7,24.5-19Z" fill="#271b12"/>
  <path d="M508.2,232.6c3.4-3.8,9.4-7.3,13.5-10.4l2.7,2.4c-5.1,4-10.2,8-15.5,11.7,0-1.3-.4-2.5-.7-3.8Z" fill="#261c12"/>
  <path d="M533.7,212.3l-.4,4.9c-3,2.5-5.9,5-8.9,7.5l-2.7-2.4,11.9-10Z" fill="#271b12"/>
  <path d="M422.7,144.7l1.3-3.4,1.1.8c-.1,15.6,1.1,31.9,12.8,43.7,5,5,4.9.8,10.2,9,0,1,.2,1.6.6,2.5h-.7c0,0-.4,1.6-.4,1.6,6.6,19.8,21,35.2,34.2,51-11.2-2.5-27.5-27.4-32.6-37.8-4-8.1-5.4-17-11.6-23.8-9.6,18.7-13.8,31.5-17.3,52.5,6-2.2,11.9-4.2,18-6l.9,3c-6.7,2.1-14.1,6.2-20.9,7.1-4.9-10,5.5-34.3,9.6-44.5-16.2,8-34.6,14.1-49.4,24.6-33.8,26.9-48.5,73.2-64.6,111.8l-.5-2.2-.3,2.1-1.4-5.2c16.7-39.3,32.5-89.2,70.2-113.4,16.5-10,43.5-15.8,52.7-31.3-9.5-10.8-15.2-27.8-12-42.1Z" fill="#271b12"/>
  <path d="M370.4,289.8l1.1-.3c3.1-9,5.4-20.5,10.7-28.4l1.3-.5.5.9c-11,31.2-20,61.1-11.7,94.1-9.5,29-26.4,104.8-4.9,130.6-1.1-.4-2.2-1-3.4-1,.3,1.2.7,2.4.7,3.6l-2.8-3.3c-.9.9-.7,1.2-.8,2.4-.9-1.9-1.3-2-3.1-3-9.4-39.8-2.3-82.1,7.6-121.6-8-1-15.9-3.4-23.6-5.5l2.7-2.6c6.5,2,15.4,4.4,22.1,4.3,2.1-3.4,0-12.8-.5-16.7-2.1-19.8,3.1-36.1,1.4-55,1,1,1.2,1.7,2.7,2Z" fill="url(#linear-gradient3)"/>
  <path d="M466.4,320.4c4.4,4.3-1.8,30.7-1.7,38.8,5,.8,9.7,2.1,14.5,3.5-5,0-10.3-2.6-14.7.3-.6,1.9-.7,1.8.2,3.5,1.9,1.4,16.7,3.3,20.7,4.5-7.2-.4-14.4-.8-21.7-1.3-4,47.6-18.4,98.4-3.9,145.4h-.4c0,.1.5,1.3.5,1.3l-.7-.2h1c0-.1-1.5-.7-1.5-.7-16.9-38.2-2.1-103.7,2.5-145.7-6.1-1.1-12.4-.5-18.5-1.9,5.5-1.6,13.6,1.6,18.4-2,.6-1.8.5-2.8.2-4.6-12.8-3.6-27.5-3.7-39.6-10.1,13.3,3.1,26.7,6.8,40.4,7.6.3-10.5,2.4-27.7,4.2-38.2Z" fill="#271b12"/>
  <path d="M448.7,523.2l15.3.6c5.1,1.4,18.5-2.2,20,3.3,4.6,17.3-11.9,14.7-23.3,13.1-4.4-.5-10.9-.1-12.8-5.1.9-3.8.7-8.1.8-12Z" fill="#756137"/>
  <path d="M511.7,520.2c16.3-3.1,31.6-7,45.9-15.8,7.9-4.9,15.7-11,24.3-14.5h-.2c0,.1.8-.2.8-.2-2.4,4.2-29.5,20.3-35.3,24.4,23.4-4.9,43-12.5,63.9-24.1l-.2,3c.9.7,2.2,1.6,2.8,2.5-4.3-1.4-9.9,1.7-13.8,3.6-13.2,8-27.7,12.3-42.4,16.5-.5,1.6-.6,2.9-.5,4.6l-1.2.8c-.1,2.6,0,5.4-.7,7.9,0-4.3-.2-8.7-.3-13-4.2,1.1-8.4,2.2-12.7,3.2,0,2.9-.3,5.9-.5,8.8l-1.9-.8c2.8-15.5-18.2-2.1-28.1-6.9Z" fill="#261c12"/>
  <path d="M559.5,150.9l1,6.6c.4-1.9.6-3.5,2-5-.3,6.8-2,13-3.9,19.5l8.7,18.4c17.4,5.8,43,14.3,58.1,24.2l-.3,1.2c-18.7-5.7-38.3-14-57-21.5-.7,1.4-1.3,3-2.1,4.3-1.1-6.9-5.2-13.2-8.5-19.3-1.7,5.6-3.3,11-5.9,16.2l-3.2-.9c1.9-3.6,3.5-6.9,4.4-10.9.5-2.1-1.4-1.7-2.2-4,6.5-7.7,8.5-19.1,8.9-28.9Z" fill="#271b12"/>
  <path d="M564.4,231.4c2.5,8,.9,15.9-1.5,23.8-5.9-5.5-24.9-14-33.1-18.5-4.9,20.9-36.9,7.8-45.4,23.5,2.5,1.8,6.3-.4,9.3,1.1,2.6,10.3-13.6,16.8-10.6-6.5,13.2-5,26.7-7.8,40.5-10.4,1.2-3.1,2.5-6.3,3.8-9.4,4.8-2.3,28,11.9,33.7,14.4.7-6,2.2-12,3.3-17.9Z" fill="#271b12"/>
  <path d="M486.1,262.4c2,.1,3.2.3,4.9,1.2.5,2.1,0,2.5-1,4.4-2.2.2-3,.4-4.8-1-.2-1.9,0-2.9.8-4.6Z" fill="#8f4533"/>
  <path d="M438.5,234.8c3.5-1.1,6.5-2.5,9.8-4.3,6.4,13.1,20.6,17.8,33.9,20.9-5.7,9.9-6.3,21.7-8.1,32.8-2.2,13.7-4.5,27.5-5.7,41.3,0-2.3-.5-3.3-1.9-5.1-1.3-9.8,8.2-54.7,10.1-67.6-11.6-3.1-23-7.2-29.8-17.6l-7.5,2.5-.9-3Z" fill="#261c12"/>
  <path d="M393.6,497c18.5,6.5,32.9,22.6,53.7,22.6,5,.9,15.8-1.2,18.6,2.8-1,.3-1.5.3-2.5.2l.6,1.2-15.3-.6c-.3,4.6.7,10-2,14-6-2.2-2.9-10.1-1.8-14.6-10.7-1.4-20.1-4.2-30.3-7.9l-.2-2.4c-6.6-5.6-14.3-9.7-20.9-15.3Z" fill="url(#linear-gradient4)"/>
  <path d="M654.5,236.6c13,14.3,21.4,34.7,28.2,52.6l-3.7,1c-7.2-18.4-15.2-36.5-27.7-51.9l3.2-1.7Z" fill="#271b12"/>
  <path d="M603.8,286.4c4.4-18.9,14-50.5,34-57.4-18.7,13.5-26,39.3-32.1,60.4l-1.8-2.9Z" fill="#261c12"/>
  <path d="M311.8,331.6l1.4,5.2.3-2.1c4.1,10.7,20.7,16.9,31,20.5l-2.7,2.6c-5.1-1-9-2.2-13.1-5.5-1.2,3.7-2,7.5-2.7,11.3l-3.7-1.5,3.4-11.4c-7-3.7-17.1-9.9-14-19.2Z"/>
  <path d="M566,198.7c.8-1.4,1.5-2.9,2.1-4.3,2.6,15.3,1.2,30.8-2.1,45.8-3.2-13.7,1.3-27.5,0-41.5Z" fill="#261c12"/>
  <path d="M367.7,287.8c.1-14-1.3-31.6,4.9-44.3h.4c-3.1,15.2-.5,31.4-2.7,46.3-1.4-.2-1.7-.9-2.7-2Z" fill="#271b12"/>
  <path d="M548.4,194.7l3.2.9c-4,9.2-10.8,15.3-18.3,21.5l.4-4.9c5.8-5.1,10.2-11.4,14.7-17.6Z" fill="#261c12"/>
  <path d="M612.7,211.8c4.5-.9,8.5,4.7,12.5,4l.3-1.2c5.2,2.1,13.6,6.6,17.5,10.8l-1.3,1.2,1,2.8c-8.9-7.4-19.8-12.2-29.9-17.7Z" fill="#261c12"/>
  <path d="M642.9,225.5c4.5,3.2,8.4,6.7,11.7,11.1l-3.2,1.7-8.7-8.8-1-2.8,1.3-1.2Z"/>
  <path d="M679.1,290.3l3.7-1c1.5,4.5,3.3,9.1,4.5,13.7l-.9.6-.6-1c-.7.7-1.2,1.3-1.7,2.2-1.9-4.7-3.4-9.7-5-14.5Z"/>
  <path d="M464.5,520.9c6.6.9,13.4.9,20,1l.5,1.4c-6.7,1.9-14.1.5-21,.5l-.6-1.2c1,0,1.5,0,2.5-.2l-1.4-1.5Z"/>
  <path d="M507.1,332c.3-10.2-.7-23.2,2.1-32.9l.9-.5c4.5,16.4-3.5,43.2-.2,60.1,10,4.7,20.1,9.7,30.6,13.2,11.7-4.1,23.8-7.9,34.9-13.4l1-11.4,2.3,1.3c-.5,4-1.3,8-2.1,12-11.5,6.1-24,9.7-36.5,13-7.1-1.5-24.8-7.2-29.7-12.4-6-6.3-3.6-20.8-3.3-29Z" fill="#261c12"/>
  <path d="M558.7,306.7c7.1.3,13.7.5,20.8-.3.2,9,1.6,34.8-.9,42l-2.3-1.3c.7-12.5,1.2-24.9,1-37.4-6.3-.2-13,.5-19.1-.6l1.3-.8-.7-1.6Z" fill="#271b12"/>
  <path d="M558.1,309.1c-9.1-.4-20.8,1.1-29.4-2,6.9-1.9,22-.5,30-.4l.7,1.6-1.3.8Z" fill="#261c12"/>
  <path d="M770.4,49.9c11.7-19.1,21.5-6.6,31.9,1.3,2.6-1.9,6.2-4.8,9.7-4.2,3,.6,39.8,22.1,41.6,24.1,22.4,13.6,28,43.1,19.9,66.7-.5,2.3-1.2,3.7,0,5.7,21.3,7.3,14,44.7-.3,56.4-3.6,3.1-12.6,2.1-13.2,2.6-11.8,46.1,3.6,18,11.6,58.1,22.4,14.7,49,24.7,67.5,44.4,21.8,34.7,24.2,77.9,36.1,116.5-5.7,5.1-14.9,5.7-11.9,15.4.2,12.2.9,25.7.2,37.8.7,29-9.9,75.2-17.3,104.4,0,9.7-.4,21-7.8,28.2,2.4,32.8,7.6,54.3-22.3,75.7,2.2,6.1,3.2,62.4,1.2,66.9-1.8,4-8.6,6.5-12.4,8.1l-2.1-2.3c-22.7,8.1-42.3,11.2-66.3,8.1-2.1.3-4.6.3-6.4,1.4-6.9.8-17.9-5.1-23.4-8.8-2.5-13.1-7.6-43.3-10.4-56.8-1.9,11.4-3.8,34.4-7.9,44.3-1-.8-1.4-1.7-2.1-2.8-2,3.5-11.3,5.9-15.2,6.9-22.7,5.9-50,6.5-70.9-5.1l1.2,3.6c-10.2-4.5-19.7-11.5-16.5-24,2-19,2.7-38.5,3.8-57.7-6.2,8-14.5,6.7-20.4-.9-12.8-15.1-15.6-35-12.7-54.1-5.8,9.7-15.9,18.9-27,21.7-5.2,1.4-10.1-1.7-15.4,0l-.9,5.5-2.4-1.8v-1.1c-17.3-2-3.2-23.9,0-33-4.2,5.7-12.7,8.6-15.8.3l1.5-.5c3.2-15.9,6.5-31.7,12.3-47,3.4-4.9,7.1-9.1,9.5-14.6,4,1.4,9.7,3.9,14,3.6,2.4-1.5,3.8-1.2,6.6-1.2,1.6-3,2.7-9.9,1.5-13.3.4-1,1.7-4.6,2.7-5.2l2.2,2c5.6-7.6,12-1.3,19.4-1.6-.1-9.3-1.6-20.2.3-29.3,1.3,1.1,1.7,1.1,3.4,1.3,1-25.4,9.8-49.7,10.5-75.1,6.9,3.5,14.4,5.7,21.8,7.9v-3.9c-11.5-1.4-21.5-8.5-32-12.8,2.4-22,25-79.5,34.8-100.6,0-1.5-.8-2.4-1.5-3.6,9-12.7,27.2-18.9,39.5-27.9,7.6-6,9.2-16.4,16.7-22.8-18.8-13-30.8-43.5-31.1-65.6,0-6.1,3.1-20.8,1.1-24.9-5.1-9.4-8.9-32.6,5.2-35.2,1.7-22.7,5.6-48.8,19.3-67.5,3.5-6.7,9.6-22.9,18.7-13.6Z" fill="#474646"/>
  <path d="M912.3,589.3c2.5,3.7.9,8.2,1.3,12.3l-1.5,2c-2.4-2.5-2.4-4.5-2.7-7.7l-1.3-1c2.2-1.4,3.4-3.2,4.2-5.6Z" fill="#1b160d"/>
  <path d="M699.7,424.5c.4-19.1,0-84.7,8.6-99.6-5.9,82.3-5.6,165.4-13.2,247.7,25.3,11.6,51.8,19.7,79.3,23.7l-.4,1.3-2.3.8c41.4,6.4,80.7,4.4,121-7.4-5,10.9-20.2,16.6-18.4,29.8h.4s1-3,1-3l.8,1.2c4.1-10.3,14.5-15.5,18.7-25.8,4.3,1.1,9.8,3.2,14.2,2.7.3,3.3.4,5.2,2.7,7.7l1.5-2c8,1.9,16.3,1.9,24.2,2.8,2.4,21.6,7.3,47.5-7.4,66-3.5,5.5-10.9,7.1-14.2,12.5,2.2,6.1,3.2,62.4,1.2,66.9-1.8,4-8.6,6.5-12.4,8.1l-2.1-2.3c-22.7,8.1-42.3,11.2-66.3,8.1-2.1.3-4.6.3-6.4,1.4-6.9.8-17.9-5.1-23.4-8.8-2.5-13.1-7.6-43.3-10.4-56.8-1.9,11.4-3.8,34.4-7.9,44.3-1-.8-1.4-1.7-2.1-2.8-2,3.5-11.3,5.9-15.2,6.9-22.7,5.9-50,6.5-70.9-5.1l1.2,3.6c-10.2-4.5-19.7-11.5-16.5-24,2-19,2.7-38.5,3.8-57.7-6.2,8-14.5,6.7-20.4-.9-12.8-15.1-15.6-35-12.7-54.1-5.8,9.7-15.9,18.9-27,21.7-5.2,1.4-10.1-1.7-15.4,0l-.9,5.5-2.4-1.8v-1.1c-17.3-2-3.2-23.9,0-33-4.2,5.7-12.7,8.6-15.8.3l1.5-.5c3.2-15.9,6.5-31.7,12.3-47,3.4-4.9,7.1-9.1,9.5-14.6,4,1.4,9.7,3.9,14,3.6,2.4-1.5,3.8-1.2,6.6-1.2,1.6-3,2.7-9.9,1.5-13.3.4-1,1.7-4.6,2.7-5.2l2.2,2c5.6-7.6,12-1.3,19.4-1.6-.1-9.3-1.6-20.2.3-29.3,1.3,1.1,1.7,1.1,3.4,1.3,1-25.4,9.8-49.7,10.5-75.1,6.9,3.5,14.4,5.7,21.8,7.9v-3.9Z" fill="#7b6b56"/>
  <path d="M677.9,420.5c6.9,3.5,14.4,5.7,21.8,7.9-1.5,47.6-4.1,95.2-8.5,142.7,3.5,6.5,1,33.4-.3,41.8-.8,5-2.6,9.9-3.3,15-.9,6.1,1.2,14.3-4.8,18.2-15.4-.4-7.4-27.7-10.4-36.8h-.4c-3.1,11-7.5,35.3,6.9,40.4,2.9,5.2,9,14.1,2,18.6l3.6.3c-5.5,4.5-12.8.1-16.6-4.6-12.8-15.1-15.6-35-12.7-54.1-5.8,9.7-15.9,18.9-27,21.7-5.2,1.4-10.1-1.7-15.4,0l-.9,5.5-2.4-1.8v-1.1c-17.3-2-3.2-23.9,0-33-4.2,5.7-12.7,8.6-15.8.3l1.5-.5c3.2-15.9,6.5-31.7,12.3-47,3.4-4.9,7.1-9.1,9.5-14.6,4,1.4,9.7,3.9,14,3.6,2.4-1.5,3.8-1.2,6.6-1.2,1.6-3,2.7-9.9,1.5-13.3.4-1,1.7-4.6,2.7-5.2l2.2,2c5.6-7.6,12-1.3,19.4-1.6-.1-9.3-1.6-20.2.3-29.3,1.3,1.1,1.7,1.1,3.4,1.3,1-25.4,9.8-49.7,10.5-75.1Z" fill="#efba91"/>
  <path d="M663.8,520.5c-.6-8.1-1.3-18.2.3-26.2,1.3,1.1,1.7,1.1,3.4,1.3-.4,23.1,2.5,46.4.6,69.4-2.9,20.4-9.1,40-10.3,60.6-.4-3.2.8-7.4-3-8.9.2-2.3.4-4.6.7-6.9-5.8,9.7-15.9,18.9-27,21.7-5.2,1.4-10.1-1.7-15.4,0l-.9,5.5-2.4-1.8v-1.1c-17.3-2-3.2-23.9,0-33-4.2,5.7-12.7,8.6-15.8.3l1.5-.5c3.2-15.9,6.5-31.7,12.3-47,3.4-4.9,7.1-9.1,9.5-14.6,4,1.4,9.7,3.9,14,3.6,2.4-1.5,3.8-1.2,6.6-1.2,1.6-3,2.7-9.9,1.5-13.3.4-1,1.7-4.6,2.7-5.2l2.2,2c5.6-7.6,12-1.3,19.4-1.6v-3.1Z" fill="#efba91"/>
  <path d="M663.8,520.5c-.6-8.1-1.3-18.2.3-26.2,1.3,1.1,1.7,1.1,3.4,1.3-.4,23.1,2.5,46.4.6,69.4-2.9,20.4-9.1,40-10.3,60.6-.4-3.2.8-7.4-3-8.9.2-2.3.4-4.6.7-6.9-5.8,9.7-15.9,18.9-27,21.7-5.2,1.4-10.1-1.7-15.4,0l-1.4-1.8c14.7-8.6,17.2-26,23.8-40,.3,13.3-6.1,24.6-12.3,36.1l.5.8c18.1,5.3,21.5-34.1,24.6-36.6,1.5,12.1-4,22.4-8.8,33.3,19.1-15.7,23.2-46.2,25.6-69.4l.5,5.1c.4-2.9.4-5.6.4-8.5l1.1.2.7-.6c.6-3.2.3-5.7-.2-8.9l-1.7-1.2c-.7-6.5-2-13-2-19.5Z" fill="#1b160d"/>
  <path d="M649.3,521.3c4.8-.4,9.5,2.5,14.5,2.3.6,5.5,1.3,10.9,2,16.4l1.7,1.2c.5,3.2.8,5.7.2,8.9l-.7.6-1.1-.2c0,2.9,0,5.7-.4,8.5-.3-2.7-.6-6.8-.7-9.4-9.9,6.1-14.1,6.2-24.9,1.5-.4-6.4-2-8.1-8.6-8.3,2.4-1.5,3.8-1.2,6.6-1.2,1.6-3,2.7-9.9,1.5-13.3.4-1,1.7-4.6,2.7-5.2l2.2,2c1.5-1.7,3-2.7,4.9-3.8Z" fill="#614326"/>
  <path d="M640.2,529.9l2,.2c-.5,6.6-.9,12.5.4,19.1,6.8,1.9,12,2.3,18.8.1,1.1-1.4,2.1-2,3.7-2.8.9-.7.7-5.5.8-6.6l1.7,1.2c.5,3.2.8,5.7.2,8.9l-.7.6-1.1-.2c0,2.9,0,5.7-.4,8.5-.3-2.7-.6-6.8-.7-9.4-9.9,6.1-14.1,6.2-24.9,1.5-.4-6.4-2-8.1-8.6-8.3,2.4-1.5,3.8-1.2,6.6-1.2,1.7-2.4,1.8-8.6,2.2-11.7Z"/>
  <path d="M649.3,521.3c-4.2,15.6-13.3,28.6,10.9,28.1-6.2,2.6-11.4,1.2-17.6-.2-1.3-6.6-.9-12.5-.4-19.1l-2-.2-.6-1.7c.4-1,1.7-4.6,2.7-5.2l2.2,2c1.5-1.7,3-2.7,4.9-3.8Z" fill="#7b6b56"/>
  <path d="M642.2,523.1l2.2,2-2.2,4.9-2-.2-.6-1.7c.4-1,1.7-4.6,2.7-5.2Z" fill="#1b160d"/>
  <path d="M649.3,521.3c2-.5,2.6,0,4.5.6-4.2,5-6.7,16.9-4.7,23.4,2.9,2.4,12.1,1.3,16,1.2-1.7.8-2.6,1.3-3.7,2.8-24.9,1.1-16.7-11.6-12-28Z" fill="#2f2516"/>
  <path d="M596.3,596.3c.6,2.6.7,3.9,2.5,6,9.6.3,13.8-14.7,15.4-22.3.4-1.6-.2-5.3,1.8-5.7,8,18.6-23.7,59.1-4.3,55.5l1.4,1.8-.9,5.5-2.4-1.8v-1.1c-17.3-2-3.2-23.9,0-33-4.2,5.7-12.7,8.6-15.8.3l1.5-.5c.2-1.5.4-3.1.7-4.6Z" fill="#261c12"/>
  <path d="M654.7,616.6c3.8,1.5,2.6,5.7,3,8.9,1.2,16,7.5,41.7,26.9,42.9-20.8,10.5-33.4-37-29.9-51.8Z"/>
  <path d="M699.7,424.5c.4-19.1,0-84.7,8.6-99.6-5.9,82.3-5.6,165.4-13.2,247.7,25.3,11.6,51.8,19.7,79.3,23.7l-.4,1.3-2.3.8h-3c-2.1,8.2,0,29,4.4,37.1,1.1,1.3,4.9,3.3,4.9,4.7-3.1-.1-6.7-3.3-8.9-5.3-1.6-11.5-3.8-25.2-2.6-36.8-15.9-3.3-31.9-6.1-47.2-11.7-5-1.8-16.5-10.3-21.3-9.2-6.1,48.1-3.5,98.4-9.5,146.7,27.6,17.3,57.4,18.5,88.2,9.9,1-27.5,5.2-54.8,5.9-82.4-9.3-3.6-37.2-13-42.9-18.2l.5-1c4.7-.3,12.6,5,17.2,6.8,8.3,4.7,29.4,6.3,32.2,14.4,10.3,32.5,13.7,67.6,20.2,101.1,8.8,4.3,17.3,6.8,26.8,9.1-10.3,3.5-21.3-1.5-29.9-7.4-2.5-13.1-7.6-43.3-10.4-56.8-1.9,11.4-3.8,34.4-7.9,44.3-1-.8-1.4-1.7-2.1-2.8-2,3.5-11.3,5.9-15.2,6.9-22.7,5.9-50,6.5-70.9-5.1l1.2,3.6c-10.2-4.5-19.7-11.5-16.5-24,2-19,2.7-38.5,3.8-57.7-1.3,1.2-2.8,2.4-3.9,3.7l-3.6-.3c7-4.6.8-13.4-2-18.6-14.4-5-10-29.4-6.9-40.5h.4c2.9,9.3-5,36.5,10.4,36.9,6-3.9,3.9-12.1,4.8-18.2.7-5,2.5-9.9,3.3-15,1.3-8.5,3.7-35.2.3-41.8,4.3-48.7,7.4-97.6,8.4-146.6Z" fill="#261c12"/>
  <path d="M778.1,734.6c1.8-27.3,6.5-55,5.2-82.1l1-.6c9.9,10.7,8.9,43.6,7.4,57.5l3.4-2.4c-1.2,8.2-3.7,30.3-6.9,36.7-1-.8-1.4-1.7-2.1-2.8-2,3.5-11.3,5.9-15.2,6.9-22.7,5.9-50,6.5-70.9-5.1l1.2,3.6c-10.2-4.5-19.7-11.5-16.5-24,4.5,2,2.5,6.6,2.9,10.4.3-2.4.8-4.5,1.4-6.8,23.6,15.5,53.1,16.8,80.1,11.4,5-.9,14.4-2.1,17.3-6.3-2.4,0-6.1,2.4-8.3,3.5Z" fill="#7b6b56"/>
  <path d="M795.3,707c-1.2,8.2-3.7,30.3-6.9,36.7-1-.8-1.4-1.7-2.1-2.8,1.1-10.5,3.8-21.1,5.5-31.5l3.4-2.4Z"/>
  <path d="M684.8,722.4c8.6,6.8-5.9,9.3,15.4,20.4l1.2,3.6c-10.2-4.5-19.7-11.5-16.5-24Z"/>
  <path d="M683.4,657.6c.3-2.2-.7-4.1-.6-6.2.6,1.4,1.3,3.8,2.5,4.6l.8-1.3c-.6-1.7-1.1-3.2-1.3-5,1-1.4,1.6-1.5,3.2-2.1,2.4,4.4-.8,11.8.5,17.1-1.3,1.2-2.8,2.4-3.9,3.7l-3.6-.3c3.6-2.5,3.8-6.6,2.4-10.5Z" fill="#1b160d"/>
  <path d="M876.4,619.1c4.1-10.3,14.5-15.5,18.7-25.8,4.3,1.1,9.8,3.2,14.2,2.7.3,3.3.4,5.2,2.7,7.7l1.5-2c8,1.9,16.3,1.9,24.2,2.8.7,1.6.9,5.3.9,7.1l-3.1,1.7c1.5,22.2,3.4,38.8-9.2,58.8,2.1-8.2,6-19.1,5.2-27.5-6.9,9.5-3.6,28.3-16.5,33.9-1.1,1.5-2.5,2.6-2.3,4.6l1.2.7c-6.1.2-9.4,5.6-14.5,8.3-36.1,3.3-29.8-5-17.7-32.6-9.7,5.1-16.4,6.2-18.4-6.7,1.2-2.5,2.4-4.4,4.1-6.6-.3,2.9-2.8,6.7-2.2,9.6.4,1.7,1.5,1.5.8,3.4l1.2.6c0-4.5-2.4-10.1,2.9-12.6,5.1-8.3,4.1-18.6,6.3-27.8Z" fill="#efba91"/>
  <path d="M870.1,646.9c-5.8,9.3,1.1,18.1,9,8,5.2-7.3,2.8-17.4,6-25.3l.7.2c4.9,37.3-10.2,39.1-9.4,57.5,6.7,9.2,15.4-5,18.7-10.7,1.8,0,3-.4,4.7-1.2-2.5,4.9-6.2,9.3-9.3,13.8,12.2.6,19.3-10.2,23.3-20.2,1,1,1.6,1.5,3,2-.8,2.4-1.9,4.9-1.7,7.4-1.1,1.5-2.5,2.6-2.3,4.6l1.2.7c-6.1.2-9.4,5.6-14.5,8.3-36.1,3.3-29.8-5-17.7-32.6-9.7,5.1-16.4,6.2-18.4-6.7,1.2-2.5,2.4-4.4,4.1-6.6-.3,2.9-2.8,6.7-2.2,9.6.4,1.7,1.5,1.5.8,3.4l1.2.6c0-4.5-2.4-10.1,2.9-12.6Z" fill="#1b160d"/>
  <path d="M895,676.6c5.5-11.3,6.9-21,8.3-33.3,3.9,9.2.8,23.3-3.6,32.1-1.6.8-2.9,1.1-4.7,1.2Z"/>
  <path d="M913.6,601.6c7.5,1.6,15.4,2.2,22.8,2.5-.7,1-1.4,1.9-1.6,3.1-8.3.7-15-.4-22.8-3.5l1.5-2Z" fill="#261c12"/>
  <path d="M913.7,669c2.3-6.9,4.1-14.3,6.8-21.1-.3,8-.7,15.5-3.8,23-1.4-.5-2-1-3-2Z"/>
  <path d="M936.4,604.2l1.4.3c.7,1.6.9,5.3.9,7.1l-3.1,1.7c-.5-3-1.6-6.6.8-9Z" fill="#1b160d"/>
  <path d="M935.6,613.2l3.1-1.7c3.5,30.9,5,52-22.4,71.5,2.2,6.1,3.2,62.4,1.2,66.9-1.8,4-8.6,6.5-12.4,8.1l-2.1-2.3c10.4-2.9,13.4-7.7,11.9-18.4-23.1,18.8-76.9,23.3-102.4,7.6,28.2,12.7,64.8,10.1,92.7-2.7.9-17.3,2.1-35.2,1.4-52.5,2.7,16.9-1.6,34.2.4,50.9l.7.5c2.1-2.1,4.4-2.8,7.1-3.7-.6-17.9,1-36-.9-53.8l-1.2-.7c-.2-2,1.2-3.1,2.3-4.6,12.9-5.6,9.6-24.4,16.5-33.9.9,8.4-3.1,19.3-5.2,27.5,12.7-20,10.8-36.6,9.2-58.8Z"/>
  <path d="M874,616.2l.2,4.6h.4s1-3,1-3l.8,1.2c-2.2,9.2-1.2,19.5-6.3,27.8-5.3,2.6-2.9,8.1-2.9,12.6l-1.2-.6c.7-1.9-.4-1.7-.8-3.4-.6-2.7,1.7-6.4,2.1-9.1,2.8-10,3.3-20.3,6.7-30.2Z"/>
  <path d="M770.4,49.9c11.7-19.1,21.5-6.6,31.9,1.3,2.6-1.9,6.2-4.8,9.7-4.2,3,.6,39.8,22.1,41.6,24.1,22.4,13.6,28,43.1,19.9,66.7-.5,2.3-1.2,3.7,0,5.7,21.3,7.3,14,44.7-.3,56.4-3.6,3.1-12.6,2.1-13.2,2.6-1.6,7.8-5.7,21.5-3.9,29.3,1.7,1.7,3.4,3,5.5,4.4l-3.2.2-.8,1.3-1.2-.6c-2.1,2.7-2.4,12.6-4.3,16.9-6.3,11.4-32,33.2-45.1,37.1l-.2-2.1c-8.4,6.7-16.6,13.7-24.6,20.8-3.2-3.5-5.3-7.1-7.9-10.9-1.5.7-2,.4-3.6.2-9.1-16.9-4.7-25.2-10.5-39.1-19.7-14.7-34.6-44.2-34.4-69.1,0-6.1,3.1-20.8,1.1-24.9-5.1-9.4-8.9-32.6,5.2-35.2,1.7-22.7,5.6-48.8,19.3-67.5,3.5-6.7,9.6-22.9,18.7-13.6Z" fill="#271b12"/>
  <path d="M839.6,144.9c3.8,1.6,7.7,2.7,11.7,3.9.9,4.9-1.1,13.9,3,17,7.1-5.7,15.3-25.9,25.9-12.9,1.5-.6,1.6-1.5,2.3-2.9,8.6,15.9,4,37.7-9.1,50l-2.2-2.7c-4.6,3.6-11.5,2.2-12.9-3.8-3.1-1.1-5.3,17.2-7.1,20.4-5.4,13.7-18.7,27.4-30.8,35.6-54.7,39.3-100.5-26.8-88.5-79.1,9.9,2.5,18.5,1.9,28.5,2l-2.5,3.6,2.8-.9c.3,1.4.1,2.8,0,4.3,3.2-6.4,6.6-12.9,9.1-19.6,1.4-3.6,1.9-10,4.2-12.8,12-3.3,8.5,11.2,12.1,18.2,8.7,9.8,30.2,12.6,41.4,5.9,8.4-5.8,10.2-16.8,11.9-26.1Z" fill="#efba91"/>
  <path d="M757.9,176l2.8-.9c.9,3.2-1,5.8-1.5,8.8,13.8,18.2,26.1,2.7,35.3-.3v1.7s.7.6.7.6c-8.3,15.1-49.3,11.8-37.4-9.9Z"/>
  <path d="M880.1,152.9c1.5-.6,1.6-1.5,2.3-2.9,8.6,15.9,4,37.7-9.1,50l-2.2-2.7c11.4-11.7,14.8-29.3,9-44.3Z"/>
  <path d="M749.7,200.5c39.5,21.7,78-17.4,77.8.6-2-.3-4-3-5.5-4.5-7.2,18.3-26.2,31.4-46.2,27.4-13-2.6-19.4-13.3-26.2-23.5Z"/>
  <path d="M759.2,208.7c21.7,2.1,35.9.6,56.4-6.8-10.2,19.9-43.7,28.6-56.4,6.8Z" fill="#fefdfe"/>
  <path d="M773.2,82c20.1-3.8,59.3-1.3,71.1,18.1,1.3,6.4-.6,13.3.2,19.7,1,8.1,4.8,15.8,6.2,23.9-16.9-7.3-42.8-15.2-60.6-7.9-6.1,3.4-4.1,8.4-12.9,6.2-15.8-9.8-23.1-11.2-42-7.9,1.5-9.3,2.3-20.9,7.2-29.1,8.2-12.3,16.1-19.9,30.8-23Z" fill="#efba91"/>
  <path d="M804.5,119.9c7.5.3,19.2,2.8,20.7,11.4l-1.1.4c-6.9-5.8-23.8-4.4-28.6-7.5l.5-1.2c2.6-1.6,5.6-2.3,8.5-3.1Z" fill="#261c12"/>
  <path d="M753.4,120.6c4-.3,8.6-.5,12.1,1.8.7,1.6.8,1.6.3,3.3-11.8-.4-18.8.7-28.3,8.1,4.4-7.5,7.5-10.5,15.9-13.3Z" fill="#261c12"/>
  <path d="M770.4,49.9c11.7-19.1,21.5-6.6,31.9,1.3,2.6-1.9,6.2-4.8,9.7-4.2,3,.6,39.8,22.1,41.6,24.1,22.4,13.6,28,43.2,19.9,66.7-2.3-1.3-2-5.2-2.1-7.6-.6,13.1-13.2,19.9-14.5,28.1l-.7.3c-1.7-5.2-1.2-11.2-2.1-16.6-4.6-14.5-8.1-29.2-6.6-44.7-15.7-18.7-53.2-21.8-75.6-18.4l1.3,2.9c-14.7,3.1-22.7,10.8-30.8,23-3.6-3.3-2-7.9.4-11.4,1.4-4.9,2.5-9.9,3.8-14.9-.4,0-.9-.2-1.3-.1,0-1.1-.4-1.9-1-2.8,1.6-4.9,4-8.5,7.4-12.3,3.5-6.7,9.6-22.9,18.7-13.6Z" fill="#614326"/>
  <path d="M787,40c5.6,2.3,13.4,10.8,15.3,11.2,2.7-1.9,6.2-4.8,9.7-4.2,3,.6,39.8,22.1,41.6,24.1l-1,1.1c.8,1.3,1.7,2.5,2.3,3.8-6-5.3-13.1-9-20-12.8,3.5,5,5.3,9.9,7,15.8-4.2-8.1-24.8-35.2-35.1-27.7-2.9,5.5,2.7,18.7,2.7,25.3-6.6-18-8.5-26.6-27.1-35.3,1.6-.3,3.1-.9,4.6-1.4Z" fill="#261c12"/>
  <path d="M853.6,71.1c22.4,13.6,28,43.1,19.9,66.7-2.3-1.3-2-5.3-2.1-7.6,5.1-26.1-2.6-38.8-18.8-58l1-1.1Z" fill="#261c12"/>
  <path d="M751.6,63.4c3.8-6,6.9-19.2,16.3-15.7-14.3,8.5-6.1,14.6-9.2,26-1.9-2.4-2.3-10.6-3.3-11.2-4.9,3.9-5.2,11.6-9,16.1-.4,0-.9-.2-1.3-.1,0-1.1-.4-1.9-1-2.8,1.6-4.9,4-8.5,7.4-12.3Z" fill="#2f2516"/>
  <path d="M770.4,49.9c3.6-6,9.1-11.4,16.6-9.9-1.5.5-3,1.1-4.6,1.4.7.3,1.6.5,2.2,1-14.5,3.5-8.2,21.1-2.3,29.8-3.2-2.4-6.3-4.9-9.6-7.2l-2.6-14.8.2-.2Z" fill="#271b12"/>
  <path d="M748.2,91.4c7.2-6.2,14.3-10.4,23.7-12.3l1.3,2.9c-13.7,3-19.4,8.4-28.2,19-1.8-3.6,1.2-6.8,3.2-9.6Z" fill="#261c12"/>
  <path d="M765.3,261.1c34.2,14.7,70.8-10.4,86.8-40.3-.5,8,0,16.5-1,24.4-6.1,24.6-51.2,45-68.8,64.7-12.4-13.3-14.3-31.6-17.1-48.8Z" fill="#efba91"/>
  <path d="M723.3,139.3c1.2-1.2,2.4-2.4,3.7-3.4-.6,2.3-.9,4.2-.4,6.5.7-2.4,1-4.3,2.8-6.1,4.2,1.9,1,21.7-.1,25.6-.4.7-1.9,3.4-2.3,4.2-5-9.2-4.7-16.8-3.8-26.9Z" fill="#efba91"/>
  <path d="M723.3,139.3c1.2-1.2,2.4-2.4,3.7-3.4-1,8.9-1.6,18.5,1.7,27l-1.7,3.2c-5-9.2-4.7-16.8-3.8-26.9Z"/>
  <path d="M799.6,138c11.3.3,38.1-4.2,34.6,14.1-2.8,19.4-23.8,22.5-38.8,14.6-12-6.8-11.8-28.2,4.2-28.8Z" fill="#efba91"/>
  <path d="M808.4,144.1c7.5,3.8,5.7,15.3.3,20.2-8.1-3.3-4.9-15.1-.3-20.2Z" fill="#271b12"/>
  <path d="M737,138c9.1,0,28.2-4.9,31.4,6.9.2,25.9-13.1,27.1-34.6,21.9-.3-6.3,0-23.7,3.2-28.8Z" fill="#efba91"/>
  <path d="M756,143.4c8.7,1.7,6,12.2,2.1,17.3-9.5,0-6.6-12.7-2.1-17.3Z" fill="#261c12"/>
  <path d="M902.9,441.6c19-.4,38.6-5.3,56.9-10l.5,23.8c2.5-4.8-1.5-13.9,1.2-18.3l2-.2c3.4,45-4.8,97.7-17.1,142.2,0,9.7-.4,21-7.8,28.2l-.7-2.9c-7.9-.9-16.3-.9-24.2-2.8-.4-4.2,1.2-8.6-1.3-12.3.7-3.5,1.1-6.9,1.4-10.4-5.1-.7-10.8-1.1-15-4.1,11-23.3,7.6-104,4.2-133.1Z" fill="#efba91"/>
  <path d="M898.6,574.8c.9-.6,1.6-1.2,2.4-2,15.2,6,30.1-4.8,44.1,7.8l1.3-1.5c0,9.7-.4,21-7.8,28.2l-.7-2.9c-7.9-.9-16.3-.9-24.2-2.8-.4-4.2,1.2-8.6-1.3-12.3.7-3.5,1.1-6.9,1.4-10.4-5.1-.7-10.8-1.1-15-4.1Z" fill="#614326"/>
  <path d="M898.6,574.8c.9-.6,1.6-1.2,2.4-2,15.2,6,30.1-4.8,44.1,7.8l-1.8,1.3c-6.8-2.2-14.4-3.4-20.8-6.4-1.2-.6-1.8,0-3.1.3-3.2,3.9-5,13.8-5.6,18.7-.1-2.1-.4-3.4-1.5-5.2.7-3.5,1.1-6.9,1.4-10.4-5.1-.7-10.8-1.1-15-4.1Z" fill="#261c12"/>
  <path d="M919.4,575.8c.7.8,2.2,2,3.2,2.5,0,6.9-2.2,14.1-3.1,21,2.1,1,6.8,2.6,8,4.5-4.6-.1-9.3-1.6-13.9-2.1-.2-7.9,1.3-19.2,5.8-25.9Z" fill="#756137"/>
  <path d="M920.9,577.2l1.7,1c0,6.9-2.2,14.1-3.1,21h-1.4c-2.3-4.3.5-18.3,2.8-22Z" fill="#2f2516"/>
  <path d="M945.1,580.6l1.3-1.5c0,9.7-.4,21-7.8,28.2l-.7-2.9c1.8-7.6,2.7-15.3,5.5-22.6l1.8-1.3Z" fill="#271b12"/>
  <path d="M945.1,580.6l1.3-1.5c1,6-1.6,10.8-4.2,16-1.8-3.9,0-9.3,1.1-13.2l1.8-1.3Z" fill="#2f2516"/>
  <path d="M961.4,451.6c-.3-3.5-1.8-11.8.1-14.4l2-.2c3.3,41.6-4,91.1-14.5,132.6-.4.8-2.5,10.8-3.9,11-1-.4-1.4-.7-2.1-1.5,3.2-17.1,7.9-33.8,11.2-50.9,4.5-25.5,5.1-51.2,7.2-76.6Z"/>
  <path d="M883.1,388.5c-1.2-31.6,9.3-69.1,40.4-82.3-44.2,29-38.8,86-33.1,132.4,24.8,0,53.8-3.8,76.3-14.7l.7,2.9c-4.7,1.8-4.8,5.8-3.9,10.1l-2,.2c-2.7,4.4,1.2,13.5-1.2,18.3l-.5-23.8c-18.4,4.6-37.9,9.6-56.9,10,1.1,8.9,2.4,17.8,2.8,26.8-.7,19.8,2.9,93.4-7,106.4,4.3,3,10,3.4,15,4.1-.8,5.6-.1,12.7-5.6,16.1l1.3,1c-4.4.6-9.9-1.5-14.2-2.7-4.2,10.3-14.7,15.5-18.7,25.8l-.8-1.2-1,3h-.4c-1.7-13.3,13.4-18.9,18.4-29.8-40.3,11.8-79.6,13.8-121,7.4l2.3-.8.4-1.3c41.8,2.6,78,6.5,118.1-9.8,7.5-21.9,8.8-44.6,8.4-67.5.4-26.1.7-51.1-1.7-77.2-3.9.3-7.5.2-11.4-.2-2.9-13.7-2.9-27.9-4.1-41.8-1.9-14.7-11.4-32.7-7.3-47.5,3.5,11.4,2.7,24.7,6.9,36.2Z" fill="url(#linear-gradient5)"/>
  <path d="M898.6,574.8c4.3,3,10,3.4,15,4.1-.8,5,0,11.2-4.1,14.9-4.6-1-8.9-2.5-13.4-3.9,1-5,1.7-10,2.4-15Z" fill="#614326"/>
  <path d="M757.1,256.7c10.4,7.1,2.6,32.3,20.5,53.2-6.6.2-13.7-5.2-17.8-10.1-1-1.2-1.5-1.6-3.1-2-6.8,4.6-12.5,11.3-19.5,15.2h.1s-2.1.2-2.1.2c-4.6-6.8,4.8-20.8,5.4-28.8h-1.2c0-.1-2.4-2.6-2.4-2.6,10.2-5.4,11.8-17.7,20.1-25.2Z" fill="#474646"/>
  <path d="M747.9,269.4l2.2,2.9c-4.7,11.6-8.8,22.6-11.7,34.8,5.4-3.7,11.1-12.2,18.3-9.3-6.8,4.6-12.5,11.3-19.5,15.2h.1s-2.1.2-2.1.2c-4.6-6.8,4.8-20.8,5.4-28.8h-1.2c0-.1-2.4-2.6-2.4-2.6,5-3.2,8.8-6.8,10.9-12.5Z" fill="#261c12"/>
  <path d="M751.4,297.2c3.1-2.1,6.7-5.1,10.4-6-1.4,1.7-2.1,2-2,4.2,4.1,6,13.6,8.9,17.8,14.4-13.8,0-15.4-13.9-26.1-12.7Z" fill="#2f2516"/>
  <path d="M757.1,256.7c1.5,1,2.7,1.7,3.3,3.5-4.7,1.8-8,7.9-10.3,12.1l-2.2-2.9c2.6-4.8,5.5-8.8,9.2-12.7Z" fill="#2f2516"/>
  <path d="M857.8,237.8l.8-1.3,3.2-.2c5.6,7.4,7.9,15.5,10,24.4,15,8.7,30,17.6,44.8,26.6-1.3.4-2.5.8-3.7,1.5-14.4-7.9-28.1-17-42.5-24.8-2.2,16.9-8,41.6-20.1,53.5l-1.3-.5c-1-4.5,7.9-16.4,9.8-21,7.3-20.2,12.4-39.7-.9-58.3Z" fill="#261c12"/>
  <path d="M939.3,305.1c21.8,34.7,24.2,77.9,36.1,116.5-2.6,1.8-5.1,3.9-8,5.2l-.7-2.9c1.8-.8,3.2-1.3,4.4-2.9-11-38.7-14.8-77.1-34.1-113l2.3-3Z" fill="#1b160d"/>
  <path d="M778.8,313.2l1.7,2.5c-17,20.4-10.7,57-15.4,63.3l-1-.8c.2-21-1.4-49.1,14.8-65Z" fill="#261c12"/>
  <path d="M807,289.1l.2,2.1c2.5,0,4.6-2.5,7.1-3.2-11.7,8.7-22.9,18.1-33.9,27.6l-1.7-2.5c0-2.4-2-4.5-3.6-6.2,0,0-4.3-7.7-4.3-7.7,1.6.2,2.1.5,3.6-.2,2.6,3.8,4.7,7.4,7.9,10.9,8.1-7.1,16.3-14,24.6-20.8Z" fill="#261c12"/>
  <path d="M700.9,307.4c4.8-7.9,17.6-14.8,25.7-19.3l2.4,2.3c-8.5,6.1-21,11.4-26.5,20.6,0-1.5-.8-2.4-1.5-3.6Z" fill="#261c12"/>
  <path d="M912.8,288.8c1.2-.7,2.4-1.1,3.7-1.5,8.5,5.1,16.6,9.8,22.7,17.8l-2.3,3c-5.7-8.7-15.7-13.6-24.2-19.3Z" fill="#271b12"/>
  <path d="M726.6,288.2c3.3-2.3,6.9-4.2,10.4-6.3l2.4,2.4c-3.4,2.1-6.8,4.5-10.4,6.1l-2.4-2.3Z" fill="#271b12"/>
  <path d="M811.2,294.6c5.1-1,25.9,9.3,30.5,12.3.2,1.7.5,2.5-.5,4-9.4-4.4-18.6-9.8-28.1-13.6-1.6,2.2-1.6,7.8-2,10.7-5.3,2.4-14.8,6.1-20.7,5,3.1-3.4,14.3-5,18.9-6.1.8-4,1.3-8.2,1.9-12.2Z" fill="#2f2516"/>
  <path d="M112.1,178.5l4.1-1.4c1.9-2.6-1.2-8.9-1.7-12.1-3-13.5-4.3-31.4,1-44.4,20.2-41.7,78-58.8,119.8-42.2,12.3,4.4,26.1,16.9,19.2,31,9.9,23.8,3.8,41.3.8,64.6,14.5,5.8,11.3,24.6,7,36.4-1.5,4.1-6.9,7.2-8,9.9-3.4,8.5-2.7,17.5-7,26-5.1,12.1-13.4,22.5-20.1,33.4,2.4,5.3,6.1,10.9,10,15.2,63.3,34,53.1,54.1,74.9,110.7v-1.1c0,0,3.8-2,3.8-2-2.8,13.4,2.5,25.3,5.1,38.3-3.4,3.4-6.9,6.5-10.7,9.5-1.1,10.4.9,24.5-1,33.6-1.4-2.9.8-7.1-2.8-9-1.8-6.1-.7-16.1-.8-22.7l-7.7,3.1c-2.2-1.6-4.8,1-7.7,0l.9,1.4-1.3.6h2.2c-6.8,3.6-15.3,4.3-22.9,4.2-.7,14-.1,27.7,1.1,41.7,1.4,16.5,5.3,34.2-2,49.8.8,4.6,1.4,9.1,1.6,13.8l-3.6-2.4-1-10c-4.7,7.3-2.5,14.7-2.6,22.8,1,15.8,2.3,31.7,2.4,47.5.2,16.8-2.2,34.2,1,50.7l.9.7c.5,5.3,3.1,10.2,5.8,14.7h-4c0,.1-.9-1-.9-1,.8,19.2,3.7,39.3-.3,58.6-3.3,9-2.3,18.6-5.2,27.5-7.7,7.6-15.6,7.1-18.5,9.4-.8,2.2-2.8,3.9-4.5,5.5l.2-4.2c-16,2.9-32.2,2.6-48.2-.3l.2-3.5c-6.2-1.8-11.9-3.7-17.2-7.4.3-10.2,1.3-20.4,1-30.7h-3.2c0,0,0-19.9,0-19.9.2-4.1,1.3-13.4-.8-16.6-1.1,14.4-5.3,33.3-7.7,48.3-3.2,21,.4,35.8-26,38.1-1.1-1.4-1.7-1.6-3.3-2.3-22.9,4.9-48.9,1.4-69.1-10.3l-3.7.6c-1.7-9.3,1.6-20-3.2-28.2-3.4-12.5,0-36.1,1.4-48.9-1.3-1.9-2-1.9-4.1-2.7-5.7-2-11.4-4.9-16.8-7.6-28.3-24.6-12.7-53.8-10.5-84.5-6.3-48.3-12.6-100.6,1.2-148.4-9.9-2.9-18.2-7-26.8-12.6,5.8-27.9,16.5-54.4,25.9-81.2,7.2-18.2,13.7-36.6,30.2-48.5,16.6-14.8,44.9-19.4,62.5-32.3,1.6-9.9,7.4-22.5,17.5-26.1,1.2-10.1-1.4-22.2-6.1-31.3-2.4-2.3-6.3-2-9.4-2.2-19.2-2.4-28.6-39.5-11.2-49.6ZM65.6,537.6c1.1,25.5-6.8,54.2,6.9,77.3h.4c2.5-1.9,2.8-24.1,3.3-28.6.2-8.5.9-17.2,2.6-25.5-.3-3.8-4.6-7.2-7-10.2-2.3-6.4-1.8-14.8-1-21.5.5-18.8,3.2-37.7,2.4-56.5l-.7.2c-6.2,21.3-5.6,42.8-7,64.7Z" fill="#7b6b56"/>
  <path d="M75.1,549.6c26.2,20.2,86,22.7,118.3,17.9,7.4,2.5,19.4,3.1,23.4-4.9l1,1.2c.9-.6,1.8-1.1,2.6-1.8-.8,1.9-2.2,3.6-3.4,5.3,16.6-1.9,37.7-4.3,48.7-18.4-.3,1.9-.5,3.5,0,5.3-7.9,14.3,1.2,51.8-.5,70.8.2,16.8-2.2,34.2,1,50.7l.9.7c.5,5.3,3.1,10.2,5.8,14.7h-4c0,.1-.9-1-.9-1,.8,19.2,3.7,39.3-.3,58.6-3.3,9-2.3,18.6-5.2,27.5-7.7,7.6-15.6,7.1-18.5,9.4-.8,2.2-2.8,3.9-4.5,5.5l.2-4.2c-16,2.9-32.2,2.6-48.2-.3l.2-3.5c-6.2-1.8-11.9-3.7-17.2-7.4.3-10.2,1.3-20.4,1-30.7h-3.2c0,0,0-19.9,0-19.9.2-4.1,1.3-13.4-.8-16.6-1.1,14.4-5.3,33.3-7.7,48.3-3.2,21,.4,35.8-26,38.1-1.1-1.4-1.7-1.6-3.3-2.3-22.9,4.9-48.9,1.4-69.1-10.3l-3.7.6c-1.7-9.3,1.6-20-3.2-28.2-3.4-12.5,0-36.1,1.4-48.9-1.3-1.9-2-1.9-4.1-2.7l1.7-1.4.3-1.7,2.1,2.3c.7-.6,1.2-1.1,1.8-1.9,2.3,3.4,6.7,5.4,10.6,3.9,3.6-4.7.7-10.7-.9-15.8-4.9-15.6-3.8-33.7-.6-49.7,3.5,12.3-3.5,37.3,15.3,38.3,3.2-7.9-3.2-34.6-5.3-43.4-1.8-7-6.6-12.3-10.6-18.1.3,0,2.5-.7,2.8-.4,2.5-2,2.8-24.2,3.3-28.7.2-8.5.9-17.2,2.6-25.5-.3-3.8-4.6-7.2-7-10.2l3.2-1Z" fill="#af8148"/>
  <path d="M179.9,579.3l1.7,3c-1.9,11.5.9,13.1,11.9,12.8-3.5.5-6.9.9-10.5,1l3.8.4,1.3,1.7c-6.8,0-12.7-4.3-19.9-4.7,2.1-.9,4.6-.9,6.9-1.1-1.5-.4-3-.4-4.5-.5l4.3-.7c1.5.3,2.1.4,3.5-.3,1.6-3.3,1.3-8,1.6-11.7Z" fill="#1b160d"/>
  <path d="M75.1,549.6c26.2,20.2,86,22.7,118.3,17.9,7.4,2.5,19.4,3.1,23.4-4.9l1,1.2c.9-.6,1.8-1.1,2.6-1.8-.8,1.9-2.2,3.6-3.4,5.3,16.6-1.9,37.7-4.3,48.7-18.4-.3,1.9-.5,3.5,0,5.3-4.9,7.4-2.8,15-2.9,23.3l-1.5.5c-1.3,6.4-.3,19.9-.2,26.5.9,1.9.3,2.7-.7,4.3-14-12.4-13.8-26.7-12.4-44-2.8.9-5.5,1.6-8.4,2.2-.7,6.8-.3,15.4-2.4,21.8l-.8.2c-.7-1.4-.6-3.2-1.2-4.7-4.8,2.2-10.4,3.1-15.6,4,.5-3.7.5-7.4.5-11.2-6.3,13.5,3.6,17.6-18.2,18.2-11.1-1.5-24.3,4.2-20.5-13l-1.7-3c-.3,3.7,0,8.4-1.6,11.7-1.4.7-2,.6-3.5.3l-4.3.7c1.5.1,3.1.1,4.5.5-11.3,2.4-22.7.2-33.8-2.2-1.1,3.5-2.3,6.9-3.5,10.3-1.1-9.7,1.5-19.4.7-28.9-3.6-1.2-7.4-1.5-11.1-2.3-.2,5.2-.4,10.4-.8,15.6l-1,.5-1-1.6c-.2.8-.4,1-1,1.6-11.3-2.7-22.8-6.2-33.7-10.3,0-4.6-.7-9.2-.8-13.8-1.1-.4-3.9-1.2-5-1.5l-1.3.7-.7,3.7c-.7-1.9-1.6-2.6-3.1-3.8-.3-3.8-4.6-7.2-7-10.2l3.2-1Z" fill="#261c12"/>
  <path d="M181.6,582.3c.2-3,.3-5.9,1.6-8.7,4.1-3,28.2-2.1,34.7-2.4-.4,15.3,4.6,25.1-15.9,24.2-11.1-1.5-24.3,4.2-20.5-13Z" fill="#7b6b56"/>
  <path d="M200.2,574.8c4.1-1.1,9.3-.5,13.5-.5,0,5.3.2,10.8-.8,16-7,2.9-19.9,4.4-26.1-.9-2.1-13,0-15.9,13.4-14.6Z" fill="#614326"/>
  <path d="M212.9,590.4c-7,2.9-19.9,4.4-26.1-.9-2.1-13,0-15.9,13.4-14.6l.9.9c-1.8,2.2-8.3,1.5-10.7,1.6-1.2,4.2-1.8,8.1-2,12.5,8.1,1.1,16.5-.8,24.4.5Z"/>
  <path d="M200.2,574.8c4.1-1.1,9.3-.5,13.5-.5,0,5.3.2,10.8-.8,16-1.6-.5-3.1-.5-4.8-.6,3.9-2.9,3.3-8,3.2-12.3-4.3-.1-8.7,0-13,0,1-.5,2-1,2.9-1.6l-.9-.9Z" fill="#1b160d"/>
  <path d="M140.3,574.1l.9-1.5c3.3-.5,37.6.5,39.3,1.4-.9,5.5-.2,11.9-2.2,17.1-1.4.7-2,.6-3.5.3l-4.3.7c1.5.1,3.1.1,4.5.5-11.3,2.4-22.7.2-33.8-2.2-1-5.4.2-10.9-.9-16.3Z" fill="#614326"/>
  <path d="M140.8,587.7c11.3,1.6,22.7,2.1,34,3.7l-4.3.7c1.5.1,3.1.1,4.5.5-11.3,2.4-22.7.2-33.8-2.2l-.5-2.7Z" fill="#261c12"/>
  <path d="M89,561.7c12.2,4.2,24.2,6.3,36.8,8.4-.9,5,.2,11.2-2.3,15.6-11.3-2.7-22.8-6.2-33.7-10.3,0-4.6-.7-9.2-.8-13.8Z" fill="#614326"/>
  <path d="M220.2,577.2c-1.6-10.2,10.8-7.8,17.4-9.6.5,17.7-1.1,18.2-18,20.8.5-3.7.5-7.4.5-11.2Z" fill="#614326"/>
  <path d="M260,578.2c0,7.1,2.2,21,.5,28-6.8-7.1-10.7-15.1-10.1-24.9,3.3-.8,6.5-2,9.6-3.1Z" fill="#af8148"/>
  <path d="M249.5,564.2c3.3-1.5,6.4-3.1,9.5-5,1.1,8.9,2.6,18.1-8.9,19.4l-1-1.3h-1.5c.5-4.1.6-8.2.6-12.3l1.3-.7Z" fill="#614326"/>
  <path d="M248.1,564.9l1.3-.7c5.6,2.6.4,9.8.6,14.4l-1-1.3h-1.5c.5-4.1.6-8.2.6-12.3Z" fill="#2f2516"/>
  <path d="M82,564.6l.7-3.7,1.3-.7c1.2.3,3.9,1.1,5,1.5.1,4.6.7,9.2.8,13.8,4.8,1.8,9.5,3.7,14.4,4.9l-5.9,1.5,11.1,3.1c-1.8,5.4-3,11.3-5.1,16.6-6.2,8.1-16.6,25-28.4,21.8-2.1-2.5-3.9-5.2-5.7-7.8.3,0,2.5-.7,2.8-.4,4.8-14,1.9-39,5.9-54.2,1.6,1.2,2.5,1.9,3.1,3.8Z" fill="#af8148"/>
  <path d="M76.2,586.4l3.7-3.1c-1,11.4-4.9,30.1.2,40.4l-4.1-.3c-2.1-2.5-3.9-5.2-5.7-7.8.3,0,2.5-.7,2.8-.4,2.5-2,2.8-24.2,3.3-28.7Z" fill="url(#linear-gradient6)"/>
  <path d="M87.2,561.1l1.8.6c.1,4.6.7,9.2.8,13.8,4.8,1.8,9.5,3.7,14.4,4.9-6.6,2.4-8.7.9-14.8-1.5l-.9.8c-.2,1.8-.3,3.6-1.4,5.1-3.3-4.4-.5-18.3,0-23.6Z" fill="#2f2516"/>
  <path d="M78.8,560.8c6.5,3.9,0,15.7,1.1,22.4l-3.7,3.1c.2-8.5.9-17.2,2.6-25.5Z"/>
  <path d="M261.3,766.2c.8-2.4.5-6.1,3.5-6.7,1.3,21.2-8.2,21-20.7,26-.8,2.2-2.8,3.9-4.5,5.5l.2-4.2c-16,2.9-32.2,2.6-48.2-.3l.2-3.5c-6.2-1.8-11.9-3.7-17.2-7.4,0-3.9.4-7.8.6-11.8,24,17.4,60.5,7.7,86.2,2.3Z" fill="#af8148"/>
  <path d="M261.3,766.2c.8-2.4.5-6.1,3.5-6.7,1.3,21.2-8.2,21-20.7,26-.8,2.2-2.8,3.9-4.5,5.5l.2-4.2c-16,2.9-32.2,2.6-48.2-.3l.2-3.5c15.8,3,31.9,3.7,47.7,0,10.3-1.7,21.4-4.6,21.9-16.9Z"/>
  <path d="M261.5,664.6c.9,0,1.7-.3,2.5-.5l1.1-3.2c-.2,4.8-.7,10.2,1.1,14.7l.9.7c.5,5.3,3.1,10.2,5.8,14.7h-4c0,.1-.9-1-.9-1,.8,19.2,3.7,39.3-.3,58.6-1.2.1-1.2.1-2.3-.6,0-1.9-.1-3.9-.2-5.8-.6,2.8-.9,5.7-1.3,8.5-3,1.4-6.2,2.6-9.2,3.8v-11.9c0,0-.7.5-.7.5-2-10.4-1.4-52.7,2.4-60.2,0,0,3-1.3,3-1.3,2.7-5.3,2.1-11.2,2.1-17Z"/>
  <path d="M255.7,693.3c2.4,7.5,6.1,12.7,10.2,19.4,0,12.8,0,25.5-1.9,38-3,1.4-6.2,2.6-9.2,3.8-.3-20.3,1-41,.9-61.2Z" fill="#af8148"/>
  <path d="M261.5,664.6c.9,0,1.7-.3,2.5-.5l1.1-3.2c-.2,4.8-.7,10.2,1.1,14.7l.9.7c.5,5.3,3.1,10.2,5.8,14.7h-4c0,.1-.9-1-.9-1-.8,2.7,0,6.9.6,9.6-.8,1.7-1.5,3.3-2,5.1l.7-.4-.6-.7,1.4.3c-.5-.5-1.3-.8-1.5-1.3v2c-3.3-6.2-2.1-19.3-4.9-23.3l-2.2.2c2.7-5.3,2.1-11.2,2.1-17Z" fill="#2f2516"/>
  <path d="M259.4,681.6l2.2-.2c2.8,3.9,1.6,17.1,4.8,23.3-.2,1.1-.2,1.7-1,2.5l-1.3-.7c-4.6-7.4-6.2-15.2-7.7-23.6l3-1.3Z" fill="#efba91"/>
  <path d="M104.3,601.5l.8,1.6c-6.6,8.6-13.5,18.2-23.8,22.5,3.7,10.6,15.2,45.6,5.5,54.6-2.1.4-4.2.9-6.3.8l-2.1,2c10.1,1.6,20.3,2.1,30.3,4.4-.8,10.9-3.7,72.4-9.4,77.3-8,5.1-26.5,1.8-33.3-4.2l.2-1.3c8.4-.6,25.3,11.6,32.5,2.5,4.7-5.9,4.1-49.8,7.1-60.9-4.4,5.7-3.5,14-12.7,15.3-3,.4-20.8-2-22.7-3.6,6.6-3.7,18.4,4.9,25.5,1.4,6.8-6.1,6.6-17.6,9.8-25.7-10.5-.5-21.1-3-31.6-4.1,1.3,5.6,2.7,11.2,3.5,16.9-3.3,6.7-8.1,7.6-14.7,4.9-.5,5-.6,10.5-1.7,15.4-.3-2.6-.2-5.2-.7-7.8l-1.8-.8c.2-2.5.9-4.7.9-7.2-1.3-1.9-2-1.9-4.1-2.7l1.7-1.4.3-1.7,2.1,2.3c.7-.6,1.2-1.1,1.8-1.9,2.3,3.4,6.7,5.4,10.6,3.9,3.6-4.7.7-10.7-.9-15.8-4.9-15.6-3.8-33.7-.6-49.7,3.5,12.3-3.5,37.3,15.3,38.3,2.5-12.8-3-42-10.2-53.7,11.8,3.2,22.2-13.7,28.4-21.8Z" fill="#1b160d"/>
  <path d="M71.9,673.3c2.8,2.7,5.8,5.2,8.7,7.7l-2.1,2c-1.6.1-2.7,0-4.2-.5-1.9-2.3-2-6.3-2.4-9.2Z" fill="#af8148"/>
  <path d="M190.3,598.5c6.2,0,12.7.1,18.9-.9-2.7,17.3-1.2,41.8-20.1,49.9,1.2-16.3,1.8-32.7,1.2-49Z" fill="#af8148"/>
  <path d="M174.8,762.6c5.4,1.2,12.2,4.8,18.5,6.3,16.6,2.7,60.5,6.5,68.8-11.9-1.1-1.8-5.2,0-7.8-1.2-3.7-4.7-1.7-13.6-1.1-19.2.1,1.8-.2,5.1.9,6.4l.6-.5v11.9c3.1-1.3,6.3-2.4,9.3-3.8.4-2.8.7-5.8,1.3-8.5,0,2,0,3.9.2,5.8,1.1.7,1,.7,2.3.6-.9,3.5-1.6,7.7-3,10.9-3,.7-2.7,4.4-3.5,6.7-25.7,5.4-62.3,15.1-86.2-2.3l-.3-1.2Z" fill="#2f2516"/>
  <path d="M174.1,681.8c.9-5.4,2-19.5,6.3-22.8,2.3-1.8,4.9-.9,7.5-.8,2,0,42.1-19.7,48.3-17.5l-.8-.4-.5,1.4c-15,6.9-31.6,11.9-47.2,17.6,8.3.7,16.4,1.1,24.7.5,5.6-.4,13.3-3.2,18.6-2.4v.8c-7.2,4-22.8,4.7-31.2,4.4-21.3-4.5-19.1,2.3-22.5,20.1l-1.9.5-1.3-1.5Z" fill="#1b160d"/>
  <path d="M134.4,792.5c9.7-2,26.5-4.4,22.6-18-16.8,5.9-36.3,10.2-54.3,7.6-10.9-1.4-30.5-4.5-37.5-13.5,18.2,9.3,38.5,14.2,59.2,11.7,6.8-.8,29.7-4.1,33.8-9.3l1.9.5c4,15-9,22.8-22.3,23.3-1.1-1.4-1.7-1.6-3.3-2.3Z"/>
  <path d="M260.7,587.9c.3-3.3-.1-6.6.7-9.9l1.5-.5c2.1,28.7,3.5,58.2,1.2,86.6-.9.2-1.6.4-2.5.5,0-11,2.2-47.9-1-55.8,1-1.7,1.6-2.4.7-4.3,0,0-.4-16.6-.4-16.6Z"/>
  <path d="M174.1,681.8l1.3,1.5,1.9-.5c-2.8,14.6-.6,28.1-1.6,42.6l-2.1.8-1.3-1.1c.2-4.1,1.3-13.4-.8-16.6l-.6,1.7-2.9.6c1.8-9.7,3.8-19.3,6.2-28.9Z" fill="#261c12"/>
  <path d="M193.5,595.1c2.8,0,5.8-.2,8.6.2,2.3,2.2,4,1.9,7.1,2.2-6.2,1-12.6.9-18.9.9.6,16.3,0,32.7-1.2,49,1.3-.7,2.7-1.4,3.9-2.3l2.7.7c-3,1.9-6.3,3.6-9.4,5.4-.1-14.7,6.9-42.7.4-54.7l-3.8-.4c3.5-.1,7-.6,10.5-1Z" fill="#271b12"/>
  <path d="M167.9,710.7l2.9-.6c.1,13.9-5.4,32.3-7.1,46.6l-3.1-1.6,7.4-44.4Z"/>
  <path d="M104.2,580.4c6.4,1.6,12.8,4.3,19.3,5.4.5-.6.8-.8,1-1.6l1,1.6,1-.5c-.1,4.2-.4,8.5-.7,12.7l-2.8-9.6c-3.7-.9-7.4-1.6-11-2.6-2.1,5.7-4,12.2-7,17.5l-.8-1.6c2.1-5.3,3.2-11.1,5.1-16.6l-11.1-3.1,5.9-1.5Z" fill="#271b12"/>
  <path d="M58.9,712.8l1.8.8c1.2,5.3,0,27.4,0,33.2-.2,2.6.3,6.2-2.2,7.7-2.9-8.9-.8-32.3.5-41.6Z"/>
  <path d="M218,582c.5-1.7,1.5-3.2,2.2-4.8,0,3.8,0,7.4-.5,11.2,5.2-.8,10.8-1.8,15.6-4,.4,1,.7,1.5.5,2.6-9.1,2.5-17.3,6.2-25,11.5l-.7,2.3-1.4,1.3.4-4.5c-3.1-.4-4.8,0-7.1-2.2,10.5-.1,17.6-.8,15.9-13.4Z"/>
  <path d="M208.8,602.1l1.4-1.3c-1.2,13.6.6,38.6-14.4,45.1l-2.7-.7c14.2-8.4,13-28.6,15.7-43Z" fill="#261c12"/>
  <path d="M60.6,746.8c.5,5.2,3.1,9.3,3.8,14.1,1,6.8-2.7,15,.9,21.2l-3.7.6c-1.7-9.3,1.6-20-3.2-28.2,2.5-1.5,2-5.1,2.2-7.7Z" fill="#261c12"/>
  <path d="M172.1,725l1.3,1.1,2.1-.8-.2,19.6h-3.2c0,0,0-19.9,0-19.9Z"/>
  <path d="M158.2,770.9l2.4-15.8,3.1,1.6c-.7,4.8-1.2,15.8-3.2,19.9,0-1.8,0-3.4-.5-5.2l-1.9-.5Z" fill="#1b160d"/>
  <path d="M112.1,178.5l4.1-1.4c1.9-2.6-1.2-8.9-1.7-12.1-3-13.5-4.3-31.4,1-44.4,20.2-41.7,78-58.8,119.8-42.2,12.3,4.4,26.1,16.9,19.2,31,9.9,23.8,3.8,41.3.8,64.6,14.5,5.8,11.3,24.6,7,36.4-1.5,4.1-6.9,7.2-8,9.9-3.4,8.5-2.7,17.5-7,26-5.1,12.1-13.4,22.5-20.1,33.4.5,1.3,1,2.4,1.7,3.6-1.6,0-2.5-.4-3.8.6l-1.4-1c-3.1,3.2-3.6,11.7-4.4,16-2.2,5.3-4.3,11.9-7.6,16.5l-.5-.2-.9.4-1.8-.8c-4,9.7-9.4,19-12.9,28.8-2.5-5.7-5-11.5-7.8-17.2l-.6,1.2.9,2.8h-.8s-2.3-4.3-2.3-4.3h-.9c-2-3.5-3.4-7.6-5.1-11.3-17.1-12-39.4-23.9-43.6-46.2-.2-1-.2-.8-.9-1.5,0,0-1.4-2.5-1.4-2.5l5.7-3c1.2-10.1-1.4-22.2-6.1-31.3-2.4-2.3-6.3-2-9.4-2.2-19.2-2.4-28.6-39.5-11.2-49.6Z" fill="#efba91"/>
  <path d="M134,191.7c-.2-6-.4-12.4.7-18.2.1,5.2-.3,10.5.4,15.7l.6.4c.3-3.1-.5-11,.9-13.4-.7,14.7,4.2,43.3,13.3,54.4,11.7-22.6,16.8-15.4,38-15,9.7,6.5,25.4,9.5,34.3.2,3.8.9,8.1.5,11.9.5,5.5,5,9.4,16.8,12.8,18-.8,3.1-2.2,6.5-2.6,9.6,1.5.8,1.8.9,2.7,2.5-5.1,12.1-13.4,22.5-20.1,33.4.5,1.3,1,2.4,1.7,3.6-1.6,0-2.5-.4-3.8.6l-1.4-1c-3.1,3.2-3.6,11.7-4.4,16-2.2,5.3-4.3,11.9-7.6,16.5l-.5-.2-.9.4-1.8-.8c-4,9.7-9.4,19-12.9,28.8-2.5-5.7-5-11.5-7.8-17.2l-.6,1.2.9,2.8h-.8s-2.3-4.3-2.3-4.3h-.9c-2-3.5-3.4-7.6-5.1-11.3-17.1-12-39.4-23.9-43.6-46.2-.2-1-.2-.8-.9-1.5,0,0-1.4-2.5-1.4-2.5l5.7-3c1.2-10.1-1.4-22.2-6.1-31.3-2.4-2.3-6.3-2-9.4-2.2-19.2-2.4-28.6-39.5-11.2-49.6l.9,2.8c4.7-.1,9,1.1,13.3,3.1l.9-1c2.4,2.6,4.6,5.5,6.8,8.3Z" fill="#af8148"/>
  <path d="M134,191.7c-.2-6-.4-12.4.7-18.2.1,5.2-.3,10.5.4,15.7l.6.4c.3-3.1-.5-11,.9-13.4,1.3,16.1-.7,34.1-.2,50,8.2,40.1,59.4,93.6,93.6,43.4l4.4-.4c-2.5,3.3-6,6.7-7.3,10.6.5,1.3,1,2.4,1.7,3.6-1.6,0-2.5-.4-3.8.6l-1.4-1c-3.1,3.2-3.6,11.7-4.4,16-2.2,5.3-4.3,11.9-7.6,16.5l-.5-.2-.9.4-1.8-.8c-4,9.7-9.4,19-12.9,28.8-2.5-5.7-5-11.5-7.8-17.2l-.6,1.2.9,2.8h-.8s-2.3-4.3-2.3-4.3h-.9c-2-3.5-3.4-7.6-5.1-11.3-17.1-12-39.4-23.9-43.6-46.2-.2-1-.2-.8-.9-1.5,0,0-1.4-2.5-1.4-2.5l5.7-3c1.2-10.1-1.4-22.2-6.1-31.3-2.4-2.3-6.3-2-9.4-2.2-19.2-2.4-28.6-39.5-11.2-49.6l.9,2.8c4.7-.1,9,1.1,13.3,3.1l.9-1c2.4,2.6,4.6,5.5,6.8,8.3Z" fill="#271b12"/>
  <path d="M142.4,279.8c.1-8.1.7-16.1,1.5-24.2,17,22.8,42.7,50.4,72.9,33.7,2.1,3.1,1,6.5,2.4,9.8-2.2,5.3-4.3,11.9-7.6,16.5l-.5-.2-.9.4-1.8-.8c-4,9.7-9.4,19-12.9,28.8-2.5-5.7-5-11.5-7.8-17.2l-.6,1.2.9,2.8h-.8s-2.3-4.3-2.3-4.3h-.9c-2-3.5-3.4-7.6-5.1-11.3-8.5-5.2-16.4-11.3-24.3-17.4l2.1-2.6c-5.6-4.5-10.1-9.3-14.4-15.1Z" fill="#efba91"/>
  <path d="M156.8,294.9c16,11.3,24.2,12.6,31,31.7l-.6,1.2.9,2.8h-.8s-2.3-4.3-2.3-4.3h-.9c-2-3.5-3.4-7.6-5.1-11.3-8.5-5.2-16.4-11.3-24.3-17.4l2.1-2.6Z" fill="#2f2516"/>
  <path d="M216.9,289.3c2.1,3.1,1,6.5,2.4,9.8-2.2,5.3-4.3,11.9-7.6,16.5l-.5-.2-.9.4-1.8-.8c3.6-8.7,8.2-16,8.4-25.7Z" fill="#261c12"/>
  <path d="M103.6,202.9c-1.7-8.7,0-19.9,8.5-24.3l.9,2.8c3.7,0,6.4.4,9.8,1.8,6.2,8.3,16.3,21.7,12.9,32.9-4.2,12.7-16.4,9.2-23.5,1.1-.5,1-1.1,2.2-1.7,3.1-4.2-5.1-5.9-11-7-17.4Z" fill="#efba91"/>
  <path d="M103.6,202.9c-1.7-8.7,0-19.9,8.5-24.3l.9,2.8c-9.6,9.7-6.9,24.9-.7,35.8-.5,1-1.1,2.2-1.7,3.1-4.2-5.1-5.9-11-7-17.4Z"/>
  <path d="M244.4,243.9c1.5.8,1.8.9,2.7,2.5-3.8,7.9-8,15.5-12.8,22.9l-4.4.4c4.8-8.1,11.2-16.8,14.4-25.7Z" fill="#1b160d"/>
  <path d="M166.7,234.7c-1.1-2.3-2.6-4.9-.9-7.2,16.5,4.1,32.7,9.8,50.2,6.7,4.1-.9,9.5-4.3,13.4-1.8.1,1.8-.8,3-1.7,4.5,4.6,11.1-5,26-17,26.6-7.2,0-15.1-2.2-20.8,3.3-13.9,2-28-19.4-23.1-32.2Z" fill="#fefdfe"/>
  <path d="M227.6,237c4.6,11.1-5,26-17,26.6-7.2,0-15.1-2.2-20.8,3.3-13.9,2-28-19.4-23.1-32.2,15,25.9,44.2,27.7,60.9,2.3Z" fill="#efba91"/>
  <path d="M166.7,234.7c-1.1-2.3-2.6-4.9-.9-7.2,16.5,4.1,32.7,9.8,50.2,6.7l2.3,2c-20.1,3.4-31.6,0-50.6-5.2,3.3,5.8,7,10.1,12,14.5l-3.3,1.3c-4-3.7-7.2-7.4-9.8-12.1Z"/>
  <path d="M220.9,240.6l1.7,2.6c-8.1,9.2-19.4,14.6-31.7,10.7,13.2-5.6,17.6.1,30-13.3Z"/>
  <path d="M216,234.2c4.1-.9,9.5-4.3,13.4-1.8.3,3.5-5,8.1-6.7,10.7l-1.7-2.6c1.1-1.4,1.9-2.7,2.6-4.3-1.6-.9-3.4-.3-5.2,0l-2.3-2Z" fill="#271b12"/>
  <path d="M179.7,245.5c6.6,3.9,11.4,5.9,19.1,5.9-2.6.6-5.7.8-7.9,2.5-5.7-.7-10.2-3.3-14.5-7.1l3.3-1.3Z" fill="#1b160d"/>
  <path d="M112.1,178.5l4.1-1.4c1.9-2.6-1.2-8.9-1.7-12.1-3-13.5-4.3-31.4,1-44.4,20.2-41.7,78-58.8,119.8-42.2,12.3,4.4,26.1,16.9,19.2,31,9.9,23.8,3.8,41.3.8,64.6,14.5,5.8,11.3,24.6,7,36.4-1.5,4.1-6.9,7.2-8,9.9-3.4,8.5-2.7,17.5-7,26-.9-1.5-1.2-1.7-2.7-2.5,6.6-20.4,4.9-34.4,5.1-54.1.7-14.8,3-29.2,2.5-44.2h1.4c0,0,1.1-1.7,1.1-1.7-.5-9.8-5.8-23.7-13.8-29.7,1.8-.6,3.3-1.3,5-2.2l-1.4-2.5c-6,4.3-10.7,3.2-17.7,2.6,2.2.9,3.6,1.1,5.1,3.1-30.1,2.5-77.3-19.5-95.5,14.8,9.6,38.8,0,26.1-.5,59.6l-.6-.4c-.7-5.2-.3-10.5-.4-15.7-1.1,5.9-.9,12.3-.7,18.2-2.2-2.8-4.4-5.7-6.8-8.3l-.9,1c-4.3-2-8.5-3.2-13.3-3.1l-.9-2.8Z" fill="#af8148"/>
  <path d="M112.1,178.5l4.1-1.4c1.9-2.6-1.2-8.9-1.7-12.1-3-13.5-4.3-31.4,1-44.4,20.2-41.7,78-58.8,119.8-42.2,12.3,4.4,26.1,16.9,19.2,31,9.9,23.8,3.8,41.3.8,64.6,14.5,5.8,11.3,24.6,7,36.4-1.5,4.1-6.9,7.2-8,9.9-3.4,8.5-2.7,17.5-7,26-.9-1.5-1.2-1.7-2.7-2.5,6.6-20.4,4.9-34.4,5.1-54.1.7-14.8,3-29.2,2.5-44.2h1.4c0,0,1.1-1.7,1.1-1.7-.5-9.8-5.8-23.7-13.8-29.7,1.8-.6,3.3-1.3,5-2.2l-1.4-2.5c27.1-23.5-30.7-36.2-47.3-33.6-59.4,6-95.8,39.8-75.7,101.4,2,1.9,4.3,3.8,5.9,6l-.9,1c-4.3-2-8.5-3.2-13.3-3.1l-.9-2.8Z" fill="#261c12"/>
  <path d="M256.5,174.8c13.4,6.1,9.7,24.5,5.7,35.7-1.6-.3-2.1-.3-3.4-1.3-1.1,2.2-1.4,3.9-3.5,5.1l-1.2-1c-1.3-4.9-.9-10.5-1-15.5,1.9-2.2,5-7.1,5.5-9.9-3.3.8-3.1,4.3-5.6,5.9-1.6-4.7-.7-11.7,3.7-14.6l3,.7c-.4-2.3-1.8-3.4-3.2-5.1Z" fill="#efba91"/>
  <path d="M256.5,174.8c13.4,6.1,9.7,24.5,5.7,35.7-1.6-.3-2.1-.3-3.4-1.3,3.6-11.7,5.8-24.2-2.3-34.4Z"/>
  <path d="M245.7,112.1c1.9-1.7,3.9-4.1,6.5-4.4l1.7.9c-.6,1-1.4,1.5-2.3,2.2-.3,1.6,3.1,9.7,3.5,12.6,1.1,8,.9,17.1.2,25.2h-.3c0,0,0,1.7,0,1.7,0-12.1-4.5-28.2-14.3-36.1,1.8-.6,3.3-1.3,5-2.2Z" fill="#614326"/>
  <path d="M198.7,82.4c9,7.1,11.7,18.4,7.9,29.1l15.4.3c9.4-6.3,11.2-16.7,7.9-27h0s.4,0,.4,0c4.3,4.1,3.3,11.8,3.5,17.4-2.2,3.8-5.7,6.3-8.5,9.6,2.5.9,4.7,1.3,6.4,3.5-30.1,2.5-77.3-19.5-95.5,14.8,9.6,38.8,0,26.1-.5,59.6l-.6-.4c-1.9-11.7,1.2-23.1,2.6-34.6-15.9-50.5,31.2-48.8,66.7-43.5,2.8-12.4.5-18-5.6-28.7Z"/>
  <path d="M212.4,184.2c4.6,12.5,22.8,33.2-.3,37l-.3-1.5c-1.3-.5-2.2-.1-3.5.2l-1.3-.9c24.5-5.7,9.2-14.9,2.7-31.2.8-.3,1.4-.7,2.2-1.2l.5-2.4Z" fill="#261c12"/>
  <path d="M244.3,109.6l1.4,2.5c-1.6.8-3.2,1.6-5,2.2,7.9,6.1,13.3,20,13.8,29.7l-1.1,1.6h-1.4c-2.4-11.9-6-28.3-20.3-30.3-1.5-1.9-2.9-2.2-5.1-3.1,7,.6,11.7,1.7,17.7-2.6Z" fill="#271b12"/>
  <path d="M188,215.7c-3.1-3.1-5.5-7.9-2.3-11.7l1.2.2c1.4,2.5-.3,5.5,2.4,7.5,5.2,5.6,12.9,4.7,19,8.1,1.3-.3,2.2-.6,3.5-.2l.3,1.5c-8.6,1.6-17-.6-24.1-5.5Z" fill="#271b12"/>
  <path d="M209.7,187.7c-.8-4.8-3.3-12.3,1.6-15.5,1.5,3.3,1.3,10.6.6,14.4-.7.4-1.4.9-2.2,1.2Z"/>
  <path d="M175.7,157.4c6.2-.6,10.6,0,16.5,2.1l.5,2,1.2-.7c-3.4,3.1-13.2,1.1-17.4.9-5.9,1.1-11.8,3.1-17.5,4.8,5.4-5.3,9.2-7.5,16.7-9Z" fill="#af8148"/>
  <path d="M223.6,171.7c8,2.7,6,14.1,2.2,19.6-9.2-1.8-6-14-2.2-19.6Z" fill="#261c12"/>
  <path d="M174.7,171.1c8.1,1.9,7.4,13.3,3,18.5-8.1-1.8-7.1-13.2-3-18.5Z" fill="#261c12"/>
  <path d="M220.5,156.6c7.8-.3,17.9.7,22.1,8.1l-.9.6c-3.9-1.3-8.1-3-12.1-3.6-4.2-.6-11.4.9-14.9-1.5,1.2-2.1,3.7-2.7,5.9-3.5Z" fill="#af8148"/>
  <path d="M219.2,299.1c.7-4.4,1.3-12.9,4.4-16l1.4,1c1.3-.9,2.2-.6,3.8-.6,2.6,3.6,5,8.5,8.2,11.6,63.3,34,53.1,54.1,74.9,110.7v-1.1c0,0,3.8-2,3.8-2-2.8,13.4,2.5,25.3,5.1,38.3-3.4,3.4-6.9,6.5-10.7,9.5-1.1,10.4.9,24.5-1,33.6-1.4-2.9.8-7.1-2.8-9-1.8-6.1-.7-16.1-.8-22.7l-7.7,3.1c-2.2-1.6-4.8,1-7.7,0l.9,1.4-1.3.6h2.2c-6.8,3.6-15.3,4.3-22.9,4.2-.7,14-.1,27.7,1.1,41.7,1.4,16.5,5.3,34.2-2,49.8.8,4.6,1.4,9.1,1.6,13.8l-3.6-2.4-1-10,.3-.5c-.5-1.9-.3-3.4,0-5.3-11,14.2-32.1,16.6-48.7,18.4,1.2-1.7,2.6-3.4,3.4-5.3-.9.6-1.8,1.2-2.6,1.8l-1-1.2c-3.2,7.1-12.1,6.7-18.8,6.3,6.2-16.2-3.4-38.4-4.5-55.4l-2.5-1c0-53.6-.2-107.3,1.7-160.9,2.1-9.6-5.2-17-8.6-25.5h.9c0,0,2.3,4.3,2.3,4.3h.8s-.9-2.8-.9-2.8l.6-1.2c2.8,5.6,5.3,11.4,7.8,17.2,3.5-9.8,8.9-19.1,12.9-28.8l1.8.8.9-.4.5.2c3.3-4.6,5.4-11.3,7.6-16.5Z" fill="#7b6b56"/>
  <path d="M219.2,299.1c.7-4.4,1.3-12.9,4.4-16,15.2,18,12.8,30.7,10.7,52.9h-1.2c-2.8-2.7-4.5-7.7-6.2-11.3-.7,1.3-.7,1.7-2,2.4-.8-2-1.4-4.5-3.1-5.9-2.7,4.3-1.8,11-4,15.7-2.3,5.4-6.2,9.9-5.8,16.1l-1.3.7c-1.7,53.7,5.8,109.3,5.7,161,.8,14.9,7.1,32.8,3.9,47.4-.9.6-1.8,1.2-2.6,1.8l-1-1.2c-3.2,7.1-12.1,6.7-18.8,6.3,6.2-16.2-3.4-38.4-4.5-55.4l-2.5-1c0-53.6-.2-107.3,1.7-160.9,2.1-9.6-5.2-17-8.6-25.5h.9c0,0,2.3,4.3,2.3,4.3h.8s-.9-2.8-.9-2.8l.6-1.2c2.8,5.6,5.3,11.4,7.8,17.2,3.5-9.8,8.9-19.1,12.9-28.8l1.8.8.9-.4.5.2c3.3-4.6,5.4-11.3,7.6-16.5Z" fill="#7b6b56"/>
  <path d="M208.5,315l1.8.8.9-.4.5.2c-4.6,12.4-12.7,23.8-16.3,36.3-1.3,53.6-1.6,107.8-1.8,161.5l-2.5-1c0-53.6-.2-107.3,1.7-160.9,2.1-9.6-5.2-17-8.6-25.5h.9c0,0,2.3,4.3,2.3,4.3h.8s-.9-2.8-.9-2.8l.6-1.2c2.8,5.6,5.3,11.4,7.8,17.2,3.5-9.8,8.9-19.1,12.9-28.8Z"/>
  <path d="M212.6,437.5c.9,1.4,1.9,2.8,2.3,4.4,0,24.1.3,48.5,1.5,72.7.7,14.9,7.1,32.8,3.9,47.4-.9.6-1.8,1.2-2.6,1.8l-1-1.2c4.8-9.5-2.6-36.5-3.2-48.4-1.2-25.4-.9-51.2-.9-76.6Z"/>
  <path d="M210.4,371.4c-3-22.6,4.1-35.6,10.5-56.3,2.4,3.1,4.3,6.1,6.1,9.6-.7,1.3-.7,1.7-2,2.4-.8-2-1.4-4.5-3.1-5.9-2.7,4.3-1.8,11-4,15.7-2.3,5.4-6.2,9.9-5.8,16.1l-1.3.7c-1.2,5.9.1,11.9-.4,17.8Z" fill="#261c12"/>
  <path d="M202.1,410.4c5.2,0,8.4,6.4,5.4,10.6-1.5,1-1.5,1.2-3.4,1-1.9.3-2.1,1.5-4.2,1.5-3.8-3.7-.9-9.9,2.2-13.1Z" fill="#756137"/>
  <path d="M208.1,527.9c4.1,3.2,2.5,11.7-3.6,10.8-6.3-4-4-11.5,3.6-10.8Z" fill="#756137"/>
  <path d="M198.6,355.5c6.5,1.3,11.5,4.1,6.4,10.9-6.8.6-8.5-5.5-6.4-10.9Z" fill="#756137"/>
  <path d="M273.7,385.9c3.2-9.3,5.7-47.8,6.3-48.5,4,18-.5,37.8-5.3,55-.4,22-2.1,43.9-4.7,65.7,7.1,0,13.4-1.1,20.3-2.6l.9,1.4-1.3.6h2.2c-6.8,3.6-15.3,4.3-22.9,4.2-.7,14-.1,27.7,1.1,41.7,1.4,16.5,5.3,34.2-2,49.8.8,4.6,1.4,9.1,1.6,13.8l-3.6-2.4-1-10,.3-.5c6.9-30-3.1-63.5.2-94.2-12.5,1.4-28.4,6.7-39-2.4-6.9-13.4-2.3-49.6-2.6-65.4l.5.4c4.2,17.5,1.3,44.1,2.9,63.4,12.4,6.9,24.1,4,37.5,3.6.6-10.6,8.4-41.1,5.4-49.1-1.4.2-3.3,2.3-4.4,3.2l-2.5-1.5,7.6-4.8c.2-5.9,2.3-16.4-3.3-19.9l.5-.5,1.8.3c3.3-5-1.5-25.5,1.4-27.6,3.7,6.2,1.6,19,1.8,26.2Z" fill="#1b160d"/>
  <path d="M292.3,346.9c4.8,10.7,16.8,54.8,19.7,58.8v-1.1c0,0,3.8-2,3.8-2-2.8,13.4,2.5,25.3,5.1,38.3-3.4,3.4-6.9,6.5-10.7,9.5-1.1,10.4.9,24.5-1,33.6-1.4-2.9.8-7.1-2.8-9-1.8-6.1-.7-16.1-.8-22.7l-7.7,3.1c-2.2-1.6-4.8,1-7.7,0,10.7-4.7,30.9-9.4,24.7-25.2-6.4-28.2-17.2-55.7-26.2-83.1l3.5-.3Z" fill="#1b160d"/>
  <path d="M225,284.1c1.3-.9,2.2-.6,3.8-.6,7,16.4,25.8,19.7,35.9,29.2l-.3,3.5c-8.3-5.7-17.2-10.3-26.2-14.8,1.1,12.2.7,25.7-1.6,37.7-4.4-23,4.3-34.5-11.7-55Z" fill="#261c12"/>
  <path d="M210.4,371.4c.5-5.9-.9-11.9.4-17.8l1.3-.7c1.1,29.7,2.8,59.4,2.9,89.1-4.7-3.6-3.9-61.1-4.6-70.6Z" fill="#1b160d"/>
  <path d="M264.7,312.7c14.1,9.1,21.6,18.8,27.6,34.3l-3.5.3c-4.9-13.8-12.8-22.3-24.4-31l.3-3.5Z"/>
  <path d="M226.5,410.3c9,1,17.4,4.9,26.2,7.1,3.6-2,7.4-3.5,11.1-5.2l2.5,1.5c-10.8,10.7-29.1,4-39.8-3.4Z" fill="#261c12"/>
  <path d="M226.9,324.7c1.7,3.6,3.3,8.6,6.2,11.4h1.2c.7-1.7.8-3.4.9-5.2.2,2.7,0,5.8,1.5,8.1,0,1-.3,1.7-.6,2.7l-1.1.4c-5.5-3.5-8.3-8.9-10.1-15.1,1.3-.7,1.4-1.1,2-2.4Z" fill="#2f2516"/>
  <path d="M248.2,405.4c1.5-.2,2.7,0,4.2.1,1.5,1.4,1.8,1.7,2.3,3.7-.6,2.3-.7,2.8-2.3,4.5-2.8-.6-6.6-.2-7.9-3.3.6-2.2,2-3.4,3.6-5Z" fill="#756137"/>
  <path d="M269.2,385.4c-7.8,5.1-14.6,5.8-23.6,6.1-.5-.8-.6-1.5-.9-2.4,8.5-.5,16.2-1.6,24.5-3.7Z" fill="#271b12"/>
  <path d="M245.6,391.6c-3.8,1.5-10.5,1.5-14.4,0l-.3-.8c3.6-2.2,9.8-1.6,13.8-1.7.2.9.3,1.7.9,2.4Z" fill="#271b12"/>
  <path d="M28.5,368.6l3.1,2.7c-10.1,24.9-18.5,50.4-25.1,76.4,20.2,13.4,48.7,20.5,72.8,19.4,1.8-5.2,3.4-10.5,5-15.7l2.3,3.5c-1.3,5.7-1.6,15.9-8.9,16.6-.5,7.4-.9,14.8-1.3,22.3l-3.3.3c.4-7,.9-14.3.4-21.3l-.7.2c-6.2,21.3-5.6,42.8-7,64.7,1.1,25.5-6.8,54.2,6.9,77.3l-2.4.6c4,5.8,8.8,11.1,10.6,18.1,2.1,8.9,8.5,35.5,5.3,43.4-18.8-1.1-11.8-26-15.3-38.3-3.3,16-4.3,34,.6,49.7,1.6,5,4.5,11.1.9,15.8-3.9,1.5-8.4-.5-10.6-3.9-.6.8-1.1,1.3-1.8,1.9l-2.1-2.3-.3,1.7-1.7,1.4c-15.8-5.4-20.7-9.5-29.2-23.7-12-18.8,1.9-48.3,1.8-68.4-6.3-48.3-12.6-100.6,1.2-148.5-9.9-2.9-18.2-7-26.8-12.6,5.8-27.9,16.5-54.4,25.9-81.2Z" fill="#efba91"/>
  <path d="M28.5,368.6l3.1,2.7c-10.1,24.9-18.5,50.4-25.1,76.4,20.2,13.4,48.7,20.5,72.8,19.4,1.8-5.2,3.4-10.5,5-15.7l2.3,3.5c-1.3,5.7-1.6,15.9-8.9,16.6-.5,7.4-.9,14.8-1.3,22.3l-3.3.3c.4-7,.9-14.3.4-21.3l-.7.2-1.2,4.7-4-.6,2-5.8c-12.4-1.9-24.4-4-36.4-7.5-11.9,48.2-7.9,97.3-.9,145.8-.3,24.3-12,41.4-4.1,67.2l-1.5,2.4c-12-18.8,1.9-48.3,1.8-68.4-6.3-48.3-12.6-100.6,1.2-148.5-9.9-2.9-18.2-7-26.8-12.6,5.8-27.9,16.5-54.4,25.9-81.2Z" fill="url(#linear-gradient7)"/>
  <path d="M67.4,477.1l4,.6c-5.2,20-4.4,39.6-5.8,60l-1.6.9-1-.4c-1.6-18.7-1-42.9,4.3-61.1Z"/>
  <path d="M61.4,574.9c2.4-3.5-.8-10.4,1.3-14.2,5.3,17.3-2.1,38.4,9.8,54.3l-2.4.6c-9.2-13.3-9.1-25-8.8-40.6Z"/>
  <path d="M41.7,694.3l1.7.2c-3.6-9.4-8-25.1-3.6-34.8l.4.4c.6,12.4,2,25.9,8.5,36.7,3.2,1.1,6.1,2.4,8.5,4.8l-1.7,1.4c-5.7-2-11.4-4.9-16.8-7.6l2.9-1Z"/>
  <path d="M50.9,660.9c2.7,14,4.8,26.1,10.6,39.4-.6.8-1.1,1.3-1.8,1.9-9.4-11.6-10.3-26.9-8.8-41.2Z"/>
  <path d="M62.7,532.1c.1,2,.3,4,.4,6l1,.4,1.6-.9c0,10.3-.4,20.5-1.1,30.8-.3-2.3-.3-6-1.8-7.7-2.1,3.8,1,10.7-1.3,14.2-.5-13.7-.6-29.1,1.3-42.7Z" fill="#1b160d"/>
  <path d="M28,676.8l.9-.4.7-3c1,1.7,1.8,3.6,3.4,4.8,1.8,5.9,3.7,12.3,8.8,16.2l-2.9,1c-5.1-3.7-8.3-11.1-12.3-16.1l1.5-2.4Z" fill="#1b160d"/>
  <path d="M31.3,653.8c.8,8.1,1.5,16.2,1.6,24.3-1.6-1.2-2.4-3.1-3.4-4.8.2-6.6.6-13,1.8-19.5Z"/>
  <path d="M84.2,451.4c8.9-41.8,11.9-94.7-24-125v-.7c28.3,16.7,34.7,58.3,33.1,88.1l.5.9c4.6-5.5,9.8-29.4,14.3-38-3.5,27.1-18.7,50.9-21.6,78.1l-2.3-3.5Z" fill="#2f2516"/>
  <path d="M121.3,287.7c.8-.7,1.5-1.3,2.1-2.2.8,19.8,13.4,35.6,20.9,52.8-13.1-9.3-20.4-30.2-23.2-45.3-20.6,8.6-40.7,18.5-60,29.6l-2.3-2.6c16.6-14.8,44.9-19.4,62.5-32.3Z" fill="#261c12"/>
  <path d="M28.5,368.6c7.2-18.2,13.7-36.6,30.2-48.5l2.3,2.6c-17.9,15.8-21.4,27.1-29.4,48.7l-3.1-2.7Z" fill="#1b160d"/>
  <path d="M73,494l3.3-.3c-.5,18.5-4.1,37.5-1.2,55.9l-3.2,1c-2.3-6.4-1.8-14.8-1-21.5.6-11.7,1.1-23.5,2.1-35.2Z"/>
  <path d="M191,512.6l2.5,1c1.1,17,10.8,39.1,4.5,55.4-1.6-.3-3.1-.9-4.7-1.4,11.5-13.1-4.6-38.2-2.4-54.9Z" fill="#1b160d"/>
  <path d="M150.8,344c4.6-6.7,15.3-24.5,22-28.1l.4.5c-4.1,10.7-14.2,21.8-21.7,30.2-4.8-3.1-8-6.2-11.3-11,1.4.7,2.7,1.7,4,2.6-.6-1-.7-2.1-.8-3.3,2.8,2.6,5,6,7.3,9Z" fill="#2f2516"/>
  <path d="M133.1,264.6l1.4,2.5c-4.4,7.5-8.7,14.3-10.7,22.9l-.4-4.5c-.6.8-1.3,1.5-2.1,2.2,1.1-7.6,5.9-18,11.8-23.1Z" fill="#261c12"/>
  <path d="M110.9,390.3c19.5,2.8,43.1-.9,62.3.9,3.1,9.9,1.6,21.1,3.2,31.4-.1,13.2,2.1,27.1-2.7,39.7-11.3,6.9-29.9,8.8-42.6,5.7-7.6-1.9-14-5.2-19.9-10.3-3.5-4.8-.9-57.7-.3-67.4Z" fill="#7b6b56"/>
  <path d="M110.9,390.3c19.5,2.8,43.1-.9,62.3.9,1.3,1.9,1.2,3.3,1.3,5.5.5,8.6,1.2,17.3,1.9,25.9-.3,1.4-.3,2.5-1.3,3.6-1.6-3.8-1.5-8.4-2.3-12.4-28.7,16.4-29.9,12.3-59.8.8-.1,13.7-.1,27.4,0,41.2l-1.4,2.3c-4.3-4.9-1.1-57.8-.6-67.9Z" fill="#7b6b56"/>
  <path d="M110.9,390.3c11.6,1.7,24.9-.2,36,2.7-10.7,2-23.1.1-33.9-1.3,0,7,0,14,0,21.1,11.5,3.4,23.2,8.1,34.8,10.7,8.1-4.4,16-8,24.7-10.9,0-6.2-.5-12.8,0-19l2.1,3.2c.5,8.6,1.2,17.3,1.9,25.9-.3,1.4-.3,2.5-1.3,3.6-1.6-3.8-1.5-8.4-2.3-12.4-28.7,16.4-29.9,12.3-59.8.8-.1,13.7-.1,27.4,0,41.2l-1.4,2.3c-4.3-4.9-1.1-57.8-.6-67.9Z"/>
  <path d="M139.4,391.6c8.9-.2,25.7-2,33.7-.3,1.3,1.9,1.2,3.3,1.3,5.5l-2.1-3.2c-9.2-.2-18.5.4-27.7.2l2.2-.8c-1-1.2-5.7-.5-7.4-1.4Z" fill="#261c12"/>
  <path d="M173.8,435.8c.6,1.1.6,1.3,1.7,1.9.3-1.9.6-3.7,1.1-5.6.1,10.1,1,20.6-2.9,30.2-18.4,10.3-45.8,10.2-62.1-4.2l1.4-2.3c13.4,12.6,43,14.8,57.9,4.4,4.2-4.3,2.9-18.7,2.9-24.5Z" fill="#261c12"/>
  <path d="M173.8,421.9l1.3,4.4c1-1.1,1-2.2,1.3-3.6.4,5.1.2,10.1-.9,15.1-1.1-.6-1.1-.9-1.7-1.9v-13.9Z" fill="#1b160d"/>
  <path d="M836.6,763.6c24,3.2,43.7,0,66.3-8.1l2.1,2.3c-2.4,1.1-5.1,2.4-3.9,5.4,12.1,35.7,10.4,74.2,3.2,110.7.9,9-5.2,18.5.7,26.4,3.4,10.3,12.3,38.5,6.8,47.7-2.2,7.3-17,26.4-24.8,28.7-10.7,17-45.1,22.9-61.5,12-3,1.2-6.1-.9-8.1-2.9-10.7-2.1-12.7-15.7-9.7-24.5,6.3-14.6,20.6-22.2,29.1-35,3.6-3.9,7.1-7.8,8.3-13.1.3-6.8,5.7-11.2,5.4-18.2-3.7-39.6-13-90.7-20.5-130.1,1.8-1,4.3-1.1,6.4-1.4Z" fill="#efba91"/>
  <path d="M903,901.3l2.1-.9c3.4,10.3,12.3,38.5,6.8,47.7-2.2,7.3-17,26.4-24.8,28.7-10.7,17-45.1,22.9-61.5,12-3,1.2-6.1-.9-8.1-2.9-10.7-2.1-12.7-15.7-9.7-24.5,6.3-14.6,20.6-22.2,29.1-35,3.6-3.9,7.1-7.8,8.3-13.1l2.2-.2c3.3,3.5,9.1-.2,11.9-2.7,6.3,3.4,14.3,3,19.6,8.3l-1.6.2c1.1,1.4,2.2,2.7,3.4,4.1,0,.5-.1,1.2-.4,1.7l1,1.3c2.9-1.5,5.9-7.1,7.5-10,9.3,2.5,10.7-7.3,14-13.4,0,0,.2-1.3.2-1.3Z" fill="#614326"/>
  <path d="M909.3,934.5c.8,5.1-.1,10.1.8,15.2.7-.5,1.3-.8,1.8-1.5-2.2,7.3-17,26.4-24.8,28.7-10.7,17-45.1,22.9-61.5,12-3,1.2-6.1-.9-8.1-2.9-10.7-2.1-12.7-15.7-9.7-24.5.6,1.1,1.3,2.7,2.1,3.6l1.8-.9c9.1,16.6,35,17.2,51.3,13.4,19.2-4.3,36.1-27.2,46.3-42.9Z" fill="#614326"/>
  <path d="M827.3,987c19.2,6.6,45,4.4,58.3-12.4.5.9.8,1.6,1.6,2.3-10.7,17-45.1,22.9-61.5,12l1.7-.2v-1.7Z" fill="#271b12"/>
  <path d="M885.6,974.6c5.4-2.5,21.5-22,24-27.9l.5,2.9c.7-.5,1.3-.8,1.8-1.5-2.2,7.3-17,26.4-24.8,28.7-.8-.7-1.1-1.4-1.6-2.3Z" fill="#261c12"/>
  <path d="M807.8,961.4c.6,1.1,1.3,2.7,2.1,3.6-.7,7.7,1.3,19.3,11.2,19.3-1.6.7-3.2,2.2-5,1.5-9.5-3.6-11.1-15.7-8.3-24.3Z" fill="#2f2516"/>
  <path d="M821.2,984.3c2,1.3,3.8,2.1,6.1,2.8v1.7c-4,1-6.8.3-9.8-2.7,1.1-.3,2.5-1.2,3.6-1.7Z" fill="#2f2516"/>
  <path d="M859.4,910.4c6.3,3.4,14.3,3,19.6,8.3l-1.6.2c1.1,1.4,2.2,2.7,3.4,4.1,0,.5-.1,1.2-.4,1.7l1,1.3c-1.6,4-8,15.4-11.9,17.2-5-13.9-22.1-9.1-30.3-12.8.7.2,19.5-.9,21-1.2,2,2.8,7.5,8.6,10.6,9.9,18.5-15.6-19-15.5-27.4-17.7-1.3,2-2.3,3.5-4.4,4.8l-1.3-.4c3.3-3.9,6.5-7.4,7.6-12.5l2.2-.2c3.3,3.5,9.1-.2,11.9-2.7Z" fill="#271b12"/>
  <path d="M872.2,923c-3.3.4-7.1-2.2-10.4-2.9-4.8-1-11.3,2.3-15.7-.2,7.1-10.4,21.9-4.5,31.3-1.1,1.1,1.4,2.2,2.7,3.4,4.1-.3,2.4-1.8,4.4-3.2,6.3h-1.6c-1.7-1.9-2.6-4-3.7-6.3Z" fill="#614326"/>
  <path d="M903,901.3l2.1-.9c2.9,9.4,14.5,42.9,5,49.2-.9-5,0-10.1-.8-15.2-10.3,15.7-27,38.6-46.3,42.9-14.6,3.2-41.2,4-49.4-11.4l.7-.5c9,14,32.2,14,46.8,10.8,19.6-5.1,21.3-12,33.5-25.7,20-16.3,12.8-28,8.4-49.3Z" fill="#1b160d"/>
  <path d="M822,941.9l.8,1.6c-4.1,5.9-12.6,14.4-8.4,22l-.7.5-1.9-1.9-1.8.9c-.9-.9-1.5-2.5-2.1-3.6,3.8-7.5,8.7-13.3,14.2-19.5Z" fill="#2f2516"/>
  <path d="M837.8,935.3c8.5,2.8,17.9,1.8,24,10.1-5.4.2-11.2-3.2-14.4-7.5-2.8,1.8-7.5,2.8-10.6,1.5l-.4-1.6,1.5-2.5Z" fill="#261c12"/>
  <path d="M847.5,913.1c1.8-14.7,23.4-18.3,32.6-8,3.1,3.9,6.4,12.3,3.6,17-2.3-.2-3.3-1.7-4.6-3.4-5.3-5.3-13.3-4.9-19.6-8.3-2.8,2.6-8.6,6.3-11.9,2.7Z" fill="#614326"/>
  <path d="M831.6,770c1.1-.4,1.7-1.3,2.5-2.2,3.1,12.1,9.9,25.4,22.9,28.9-6,4.2-15-8.7-18.7-12.6,4.5,27.5,8,55.3,13.4,82.7-.8,1.7-2.3,3.2-3.4,5-4-27.1-12.6-74.1-16.7-101.8Z"/>
  <path d="M854.3,894.5l.6,2.9c7.3,1.5,19.4-7.4,28,5.2,2.2,3.2,4.5,10.8,8.3,11.9,5.9-2.4,6.4-10.1,7.2-15.6.2,1.2.4,2.5.6,3.7h1s1.4-1.6,1.4-1.6c.6,0,1.2,0,1.7.4-1.4,4.5-3.5,8.9-5.8,13.3-2.1,1.3-5.9,2.1-8.3,1.4-1.6,2.9-4.6,8.5-7.5,10l-1-1.3c.2-.5.3-1.2.4-1.7-1.2-1.3-2.3-2.7-3.4-4.1l1.6-.2c1.3,1.7,2.3,3.2,4.6,3.4,2.8-4.8-.5-13.2-3.6-17-9.1-10.2-30.8-6.7-32.6,8.1l-2.2.2c.3-6.8,5.7-11.2,5.4-18.2,2.3,2.5,1,5.9,0,8.7,1.7-1.2,3.3-2.3,4.7-3.9l-1.5-.9c-.1-1.5.2-2.9.6-4.4Z" fill="#2f2516"/>
  <path d="M836.6,763.6c24,3.2,43.7,0,66.3-8.1l2.1,2.3c-2.4,1.1-5.1,2.4-3.9,5.4l-2.6,1.7-1.2-2.6c-4.7-.7-18.1,4.4-24.2,5.3-12.8,2-26.1.4-38.9,0-.8.9-1.4,1.8-2.5,2.2l-1.5-5c1.8-1,4.3-1.1,6.4-1.4Z" fill="url(#linear-gradient8)"/>
  <path d="M906.2,808.2h1c.6-1.6,1.2-3.1,2.2-4.6,1.6,23.6-.5,47.4-5,70.5-1.4,0-2.3-.5-3.4-1.2,3.5-21.6,5.8-42.8,5.3-64.6Z" fill="#1b160d"/>
  <path d="M898.5,765l2.6-1.7c3.9,13.6,7.4,26,8.3,40.2-1,1.5-1.7,3-2.2,4.8h-1c-.5-15.2-4.3-28.7-7.7-43.3Z"/>
  <path d="M851.8,866.8c1.3,10,4,22.7,1.9,32.2l1.5.9c-1.3,1.6-3,2.7-4.7,3.9,1.1-2.8,2.3-6.2,0-8.7-.8-7.8-1.5-15.6-2.2-23.4,1.1-1.7,2.6-3.2,3.4-5Z" fill="#271b12"/>
  <path d="M898.4,898.9c.2-4.6.8-9.1,1.5-13.6l.8,2.6c1,0,1.3,0,2.2-.4-.3,5.3-1,8.7,2.3,13.1l-2.1.9c-.6-.3-1.1-.3-1.7-.4l-1.4,1.7h-1c-.1-1.3-.4-2.5-.6-3.8Z" fill="#261c12"/>
  <path d="M900.9,872.9c1.2.7,2,1.3,3.4,1.2-.2,4.2,0,9.4-1.6,13.3-.9.4-1.2.4-2.2.4-1.8-4.7.1-10.1.3-14.9Z"/>
  <path d="M786.3,740.9c.7,1.1,1,1.9,2.1,2.8-2.7,3.1-10.7,4.4-10.7,8.2,3,11.8,5.6,23.6,7,35.7,2.4,17.6,0,35.2-3.2,52.5-1.2,12.9-4.4,27.7-6.8,39.5,6.7,5.2,18.2,51.4,3.8,50.9-2.5,4.6-47.4,21.3-55.2,23.6-18,4.3-55.4,8.9-64.2-12.6-4.9-8.4,3.1-18.3,9-23.9,4.7-1.8,15.5-8,19.3-11.3,13.2-5.3,27-17.8,33.8-30.3,2.9-7.5-1.3-16.2-.5-24.1-3.7-24.1-3.8-49.2-7.2-73.4-1.4-9.5-4.8-19-5.1-28.5l-7.1-3.6-1.2-3.6c20.9,11.6,48.3,11,70.9,5.1,3.9-1,13.2-3.4,15.2-6.9Z" fill="#efba91"/>
  <path d="M775,855.8l.9,1.7c.8-2.2.5-5.2,2.1-6.7,1.2,3.8-3.7,12.6-1,15.1-.5,4.7-1.4,9.2-2.4,13.8,6.7,5.2,18.2,51.4,3.8,50.9-2.5,4.6-47.4,21.3-55.2,23.6-18,4.3-55.4,8.9-64.2-12.6-4.9-8.4,3.1-18.3,9-23.9,4.7-1.8,15.5-8,19.3-11.3,12.3-4.7,37.9-24.7,34.7-39.6,1.7.6,1.7.8,3.4,0,.2,2,0,5.9.8,7.7,15.6,4.4,20.8,1.2,28.9,17,3.6.8,7.8,1.1,11.1-.7,5.4-4.1,7.4-27.7,8.8-35Z" fill="#614326"/>
  <path d="M775,855.8l.9,1.7c.8-2.2.5-5.2,2.1-6.7,1.2,3.8-3.7,12.6-1,15.1-.5,4.7-1.4,9.2-2.4,13.8,7,3.9,19.1,59,1.6,49.5,4.5-1.3,5.8-8,3.9-11.7h-1.1c-25.7,10.6-67,31.2-94.9,25.2-7-2.5-16.6-1.1-21.5-7.6l.3-1.5c32.9,21.4,86.8-4,116.1-18.5,4.2-7-2.1-23.6-3.9-30.8-1.9,6.3-8.3,14.5-14.7,7.6,13.3,2.4,11.8-27.4,14.5-36Z" fill="#261c12"/>
  <path d="M661.4,940.8c5.7,13.5,23.9,11.7,36.1,12,31.4.2,50.3-12.9,78.8-23.6.6.4,1.5,1.3,2.2,1.4-2.5,4.6-47.4,21.3-55.2,23.6-18,4.3-55.4,8.9-64.2-12.6l2.3-.8Z" fill="#271b12"/>
  <path d="M722,866.8c1.7.6,1.7.8,3.4,0,.2,2,0,5.9.8,7.7,8.3,2.7,21.6,2.4,25.9,11.6-1.2,1.1-1.2,1.3-2.8,1.4-10.2-10.5-25.1-11.1-33.9,1.4,3,.5,18.5,4,19.4,4,3.3-.2,5.7-2.6,8.1-4.5-.2,1.7-4.5,5.8-5.7,7.4h1.3c0,0-.2,0-.2,0l2.6-1.4.3.9c-.7,1.4-1.6,4-2.6,5l-1.9.3c-6.8-5-14.9-6.8-22.2-10.8-1.9,1.9-4.2,3.6-6.9,4.1l-.5-1.2c7.6-5.4,16.8-15.7,14.8-25.8Z" fill="#271b12"/>
  <path d="M721.3,905.5c-4.1,0-8.3-6.1-13.5-6.2,2.4,0,4.8,0,7-1l-1.5-1.8h.6c5.2,2.3,11.2,4.6,15,9.1,2.9.2,4.1-2.8,6.8-2.8v.8c-4.7,5.5-17,12.5-23.4,14.6-2.8.2-16.3-7.6-18.7-9.8l.8-1.3c16.9,5.6,14.3,16.3,27.6,2.7,0-1.5-.4-2.9-.7-4.3Z" fill="#261c12"/>
  <path d="M721.3,905.5l1.4-.8c2,1,2.3,1.2,3.4,3.1l-.2,1.5c-1.8.9-2,.8-3.9.5,0-1.5-.4-2.9-.7-4.3Z" fill="#2f2516"/>
  <path d="M687.3,906.4c4-.7,8.5-4.2,11.5-6.8.7.8,1.2,1.7,2.2,1.9,4,1.1,13.3,4.9,14.8,9l-.6.9c-6.4-3.1-16-12.1-21.6-3l-2.6.6c-2.1-.7-2.2-.9-3.6-2.7Z" fill="#2f2516"/>
  <path d="M659.1,941.5c-4.9-8.4,3.1-18.3,9-23.9.6,7.7-9.9,13.7-6.7,23.1l-2.3.8Z" fill="#2f2516"/>
  <path d="M749.3,887.6c1.6-.1,1.6-.3,2.8-1.4.7,4.2,4.1,7.2,8.4,5.7.8.9,1,1.3,2.2,1.8-4.7,4.3-16.8,2-13.5-6.1Z" fill="#2f2516"/>
  <path d="M786.3,740.9c.7,1.1,1,1.9,2.1,2.8-2.7,3.1-10.7,4.4-10.7,8.2l-3.3,1.3-.9-1.9c-6.1-.4-14,2.8-20.2,3.8-11.6,1.8-29.2,0-40.6-2.6-1.2,3.1,2.2,10.5,3.6,13.6,4.6,9.9,8.8,9,12.2,14.1-5,2.2-10-6.2-12.8-9.5,2.6,13.3,5,28.8,4.8,42.5l-2.2,1.1-1,3.2c-1.1-23.2-5.2-44.8-8.9-67.5l-7.1-3.6-1.2-3.6c20.9,11.6,48.3,11,70.9,5.1,3.9-1,13.2-3.4,15.2-6.9Z" fill="#1b160d"/>
  <path d="M717.3,817.5l1-3.2,2.2-1.1c1.6,17.9,4.2,35.7,5,53.7-1.7.8-1.7.5-3.4,0-2.1-16.1-3.3-33-4.7-49.3Z"/>
  <path d="M781.3,818.5l3.3.5c-.9,7-1.6,14.3-3.2,21.2-.8,5.4-2.2,21.8-4.3,25.7-2.7-2.6,2.2-11.3,1-15.1-1.7,1.6-1.3,4.5-2.1,6.7l-.9-1.7c1.7-12.5,4.6-24.8,6.2-37.3Z"/>
  <path d="M777.7,751.9c3,11.8,5.6,23.6,7,35.7l-3.4.7c-1.3-12.1-5.1-23.3-6.9-35.1l3.3-1.3Z"/>
  <path d="M784.7,787.6c1.4,10.7,1.4,20.7,0,31.4l-3.3-.5c.8-10.2,1.2-19.9,0-30.1l3.4-.7Z" fill="#1b160d"/>
  <path d="M184.3,784.4c17.8,5.7,37,5.5,55.4,2.5l-.2,4.2c1.5-1.3,2.8-2.9,4.1-4.4-6.3,23.5-7.6,47.5-11.2,71.5-.9,5.1-.5,11.8-2.9,16.3-1.8,1.9-2.3,3.1-2.9,5.6l-.4-2.9c-1.1,7-2.1,14.1-.6,21.1l.6.4c.9-.7,1.7-2.3,2.1-3.4,6.1,8.4,14.8,24,24.9,27.9,5,5.4,15.4,11.4,22.7,13.4,12.4,10,16.1,8.9,20.1,25.6,2.4,7.1-.9,18.5-9.7,17.8-7.3,7.4-44.1,9.3-51.6,2.9-6.3,2.5-24-9.4-29.4-13v-.3c-7.5.5-17.3,1.2-23.2-4.5-19.7-.6-9.6-37.9-7.8-49.9.7-4.7,3.3-5.4,6.2-8.4-2-4.8-2-31.1-2-37.6-4.8-26.8-6.1-52.9.7-79.4,1.3,1.4,2.4,2.5,2.8,4.4l2.5-9.5Z" fill="#614326"/>
  <path d="M184.3,784.4c17.8,5.7,37,5.5,55.4,2.5l-.2,4.2c1.5-1.3,2.8-2.9,4.1-4.4-6.3,23.5-7.6,47.5-11.2,71.5-.9,5.1-.5,11.8-2.9,16.3-1.8,1.9-2.3,3.1-2.9,5.6l-.4-2.9c-1.1,7-2.1,14.1-.6,21.1l.6.4c.9-.7,1.7-2.3,2.1-3.4.3,1.2,11.3,16,12.2,16.7l-1.3,3.8-1.6-.3c-2-12.5-15-14.9-25.6-11.9-4.1,4.3-5.8,9.9-2.2,15.2l-.7,1.3c-1.7-.2-3.4-.9-4.5-2.2-9.1,1.9-21.7-.6-20.9-12.2-.3,2.2-.6,4.4-.8,6.7-5.3-8.2-4.2-32.8-4.4-43.4-4.8-26.8-6.1-52.9.7-79.4,1.3,1.4,2.4,2.5,2.8,4.4l2.5-9.5Z" fill="#efba91"/>
  <path d="M179.1,789.5c1.3,1.4,2.4,2.5,2.8,4.4-6.6,24.6-4.1,48.8-.3,73.8l-1.5,1.7-1.7-.4c-4.8-26.8-6.1-52.9.7-79.4Z"/>
  <path d="M234.7,808.3l3.2,4c-.7,15.3-3.7,30.5-5.5,45.7-.9,5.1-.5,11.8-2.9,16.3-1.8,1.9-2.3,3.1-2.9,5.6-.6-23.8,7.4-47.8,8.2-71.7Z"/>
  <path d="M181.5,867.7c1.3,14.7,3.1,30,1.3,44.6-5.3-8.2-4.2-32.8-4.4-43.4l1.7.4,1.5-1.7Z" fill="#1b160d"/>
  <path d="M224.7,890c.1,2.8.3,5.4.8,8.1l.6.4c.9-.7,1.7-2.3,2.1-3.4.3,1.2,11.3,16,12.2,16.7l-1.3,3.8-1.6-.3c-2-14.2-20.9-16.6-30.6-8.7,2.2-3.7,7.1-4.4,8.3-8.4,2.4,0,4.6.2,6.9-.2,2.4-2.1,2.3-5,2.6-8Z" fill="#261c12"/>
  <path d="M243.7,786.6c-1,8.8-5.1,17.1-5.7,25.8l-3.2-4c.6-5.8,3.1-11.7,4.8-17.3,1.5-1.3,2.8-2.9,4.1-4.4Z" fill="#1b160d"/>
  <path d="M204.6,917.8c.8-1.3-1.2-6.6-.7-8.8,1.1-4.7,7.6-8.5,11.4-10.8-1.2,4-6.1,4.7-8.3,8.4,1.6-1.1,3.3-2.3,5.1-3.1-4.1,4.3-5.8,9.9-2.2,15.2l-.7,1.3c-1.7-.2-3.4-.9-4.5-2.2Z" fill="#271b12"/>
  <path d="M212,903.5c10.5-3.1,23.5-.6,25.6,11.9-6.8,2.6-16.9,3-21.2,9.7,0,2.1.4,2.1,1.7,3.6.7,2.7,2.5,4.9,4.4,6.9l-.7.6c-4.9-3.1-9-11.6-12.7-16.2l.7-1.3c-3.6-5.3-1.9-10.9,2.2-15.2Z" fill="#614326"/>
  <path d="M214.9,922c5.2-4.8,18-7.4,21.8-10.4l.9,3.8c-6.8,2.6-16.9,3-21.2,9.7,0,2.1.4,2.1,1.7,3.6.7,2.7,2.5,4.9,4.4,6.9l-.7.6c-4.9-3.1-9-11.6-12.7-16.2l.7-1.3c1.6,1.4,3,3.1,5.1,3.3Z" fill="#1b160d"/>
  <path d="M240.5,911.8c2.2,3.8,8.3,10.1,12.7,11.2-2,1.5-4.2,2.1-6.7,2-9,5.4-12.4,2.4-20.2,12.9-3.9-1.1-6.8-5.5-8.1-9.2-1.3-1.5-1.7-1.6-1.7-3.6,4.1-6.6,13.9-7.1,20.5-9.5.4-.4,1.8,0,2.3,0l1.3-3.8Z" fill="#614326"/>
  <path d="M243.6,921.6c2.4.3,4.2.2,6.1,1.8v1.1c-1.3.6-1.9.7-3.2.5-9,5.4-12.4,2.4-20.2,12.9-3.6-.8-5.5-4.5-7.5-7.3,7.7-.9,16.5-8.5,24.9-8.9Z" fill="#614326"/>
  <path d="M240.5,911.8c2.2,3.8,8.3,10.1,12.7,11.2-1.4,1-1.8,1.4-3.5,1.5v-1.1c-10-6.2-21.6,6.4-31,7.1l-.6-1.8c12.1-5.4,8.2-7.2,24.8-7.9l.5-.8.8.3c-1.4-1.7-4.7-3.5-6.6-5l1.6.3,1.3-3.8Z" fill="#271b12"/>
  <path d="M253.2,923c5,5.4,15.4,11.4,22.7,13.4-4.9,2.6-11.4-1.4-15.2-4.6-3.5,3.5-13.7,5.3-18.6,7.6-8.1,6-14.3,5-20.1-3.2l.7-.6c1.4,1.3,1.8,2,3.7,2.3,7.7-10.4,11.3-7.5,20.2-12.9,2.5,0,4.7-.5,6.7-2Z" fill="#261c12"/>
  <path d="M248.6,926.1c3.1.5,6,1.2,8.3,3.4l-.3,1.4c-7.3,4.4-17.5,4.3-23.5,11.2-2.2.1-4.6-.3-5.1-2.7,2.6-8.4,14.7-8.4,20.6-13.3Z" fill="#614326"/>
  <path d="M292.9,961.3c-5.4,8.1-20.1,8.8-28.8,10-25.5,3.5-36.8-5.5-58.8-13.5-9.1-4-27-5-29.8-16.1h.8c6.2,9.8,20.3,10.8,30.2,15,16.6,6.9,33.7,15.1,52.2,13.1,10.1-1.1,26.9-2.4,32.8-11.8l1.4,3.2Z" fill="#261c12"/>
  <path d="M182,964.9c-19.7-.6-9.6-37.9-7.8-49.9,1-4.1,2.1-5.4,5.6-7.5l.8,2.6c-5.3,4.5-6.4,23.3-7,30.5-1.1,8.8-1,20.5,10,22.2l-1.6,2.2Z" fill="#271b12"/>
  <path d="M183.6,962.7c9.2,5.8,13.5.9,19.9,2.9,10.5,3.3,21,15.7,32.6,15l-1.4,2.2c-6.3,2.5-24-9.4-29.4-13v-.3c-7.5.5-17.3,1.2-23.2-4.5l1.6-2.2Z" fill="#261c12"/>
  <path d="M236.1,980.5c12.2,4.3,37.3,3.6,47.9-3l2.4,1.2c-2.6,8.9-46.5,10.2-51.8,4l1.4-2.2Z" fill="#271b12"/>
  <path d="M275.9,936.4c12.4,10,16.1,8.9,20.1,25.6l-2.2.6c-.6-.8-1.8-3.6-2.2-4.5-3.2-14.2-12.2-12.3-19.3-21.1,1.8.2,2.1.2,3.7-.6Z" fill="#271b12"/>
  <path d="M183.6,905.7c-.8,11.5,11.8,14.1,20.9,12.2l1.4,1.2c-9,8.1-24.6-.4-26.2-11.6l.6-.9c.8,1.9,1.6,3.9,2.4,5.8.2-2.2.5-4.4.8-6.7Z" fill="#261c12"/>
  <path d="M293.7,962.6l2.2-.6c2.4,7.1-.9,18.5-9.7,17.8l.2-1.1-2.4-1.2c7.7-.3,10.8-8.2,9.7-14.9Z" fill="#1b160d"/>
  <path d="M290.3,455.6c2.9,1.1,5.5-1.6,7.7,0,2.3,17.8,6.8,35.2,9.8,52.9,1.1,3.4,1.4,8.3,3.9,11l1.6-1.8c-2.6,16.4-10.1,52.3,1.7,65.5-1.5.4-2.3,0-3.6.7-2.8-3.1-4-5.9-4.4-10.1-4,10.7,2.1,22.8,1.8,33.6-.1,4.9-2.8,7.7-1.9,12.9,4.6,22.8,5.5,48.7-7.9,68.9-10.2,15.9-17.1,12.7-30,1.8h4c-2.4-3.7-3.8-7.7-5.4-11.7.8-3.3,1.4-6.3,3.4-9.2l.9-.2c1.7-6,1.6-14.4.4-20.6-.3,3.4.2,5.1-2.2,7.6-2.1-17.4-1.4-34.5.2-52,.3-13.8-1.9-26.8-3.7-40.4l3.6,2.4c-.2-4.7-.8-9.2-1.6-13.8,7.3-15.6,3.4-33.3,2-49.8-1.2-14-1.8-27.6-1.1-41.7,7.6.1,16.1-.5,22.9-4.3h-2.2c0,0,1.3-.6,1.3-.6l-.9-1.4Z" fill="#efba91"/>
  <path d="M296.8,609.9c6,0,6.8,7,7.3,11.7l2.8-1.2c4.6,22.8,5.5,48.7-7.9,68.9-10.3,15.9-17.1,12.7-30,1.8h4c-2.4-3.7-3.8-7.7-5.4-11.7.8-3.3,1.4-6.3,3.4-9.2l.9-.2c1.7-6,1.6-14.4.4-20.6-.9-13.1-.3-24.4,1.7-37.3,7.7-.5,15.3-1,22.9-2.3Z" fill="#efba91"/>
  <path d="M306.8,620.4c5.3,26.4,5.9,60.8-17.4,79l-1.2-1.9c21-20.8,19.9-49,15.9-75.9l2.8-1.2Z"/>
  <path d="M272.8,663.4c1.1,4.6,3.6,11.3,8.8,12.6.5.6,1.8,2,1.8,2.8-1.7,5.4-2.6,15-10.5,12.3-2.4-3.6-3.8-7.6-5.4-11.6.8-3.3,1.4-6.3,3.4-9.2l.9-.2c1.1-1.6.8-4.7,1-6.7Z" fill="#efba91"/>
  <path d="M272.8,663.4c1.1,4.6,3.6,11.3,8.8,12.6.5.6,1.8,2,1.8,2.8-7.7-.5-4.1,2.8-8.9,5.1-.6-3.1-.4-6.6-3.9-7.7v-1.1c0,0,1.9.5,1.9.5.5-1.9-.7-3.6-1.4-5.3l.9-.2c1.1-1.6.8-4.7,1-6.7Z" fill="#2f2516"/>
  <path d="M281.6,676c2.8-2.4,3.9-4.6,5.1-8l3.6-.6c-.2,7.7-15.3,28.5-2.2,30.1l1.2,1.9c-5.9,4.1-16.1-4.7-20.4-8.3h4c7.8,2.7,8.8-7,10.5-12.4,0-.8-1.3-2.3-1.8-2.8Z" fill="#1b160d"/>
  <path d="M286.7,668c.7-7,0-23.4,5.4-28.1,0,.2-1.7,24.6-1.8,27.6l-3.6.6Z"/>
  <path d="M266.4,564.7l3.6,2.4c2.1,9.6,3.2,19.3,4.6,29,6-.1,12.6-1.2,18.5-2.5l.4,2.9,8.8-1.3c.9,2.9,3,7.7,2.1,10.6-2.2,1.8-4.2,1.4-6.9,1.3l-.7,2.7c-7.6,1.2-15.2,1.7-22.9,2.3-2,12.9-2.6,24.3-1.7,37.3-.3,3.4.2,5.1-2.2,7.6-2.1-17.4-1.4-34.5.2-52,.3-13.8-1.9-26.8-3.7-40.4Z"/>
  <path d="M293.6,596.6l8.8-1.3c.9,2.9,3,7.7,2.1,10.6-2.2,1.8-4.2,1.4-6.9,1.3-8,0-16.1,1.3-23.7,3.4-.9-3.1-.6-7.4.7-10.4,6.2-1.9,12.8-2,19.1-3.6Z" fill="#939390"/>
  <path d="M307.8,508.5c1.1,3.4,1.4,8.3,3.9,11l1.6-1.8c-2.6,16.4-10.1,52.3,1.7,65.5-1.5.4-2.3,0-3.6.7-2.8-3.1-4-5.9-4.4-10.1-4,10.7,2.1,22.8,1.8,33.6-.1,4.9-2.8,7.7-1.9,12.9l-2.8,1.2c-.5-4.7-1.3-11.6-7.3-11.7l.7-2.7c2.8,0,4.7.4,6.9-1.3.9-2.9-1.2-7.7-2.1-10.6l-8.8,1.3-.4-2.9c2.6-.8,5.5-1.1,8.2-1.6.8-27.4,5.1-54.6,3-82.1l3.4-1.4Z" fill="url(#linear-gradient9)"/>
  <path d="M301.3,476.2c2.3,10.7,4.9,21.5,6.5,32.3l-3.4,1.4c-1.6-11.1-3.9-21.9-6.2-32.8,1,.7,1.5,1.8,2.1,2.8l.2-2.3v1.1c0,0-.4-2.1-.4-2.1l1.3-.3Z"/>
  <path d="M290.3,455.6c2.9,1.1,5.5-1.6,7.7,0,1.4,6.8,1.9,13.8,3.3,20.6l-1.3.3.5,2.1v-1.1c0,0-.3,2.3-.3,2.3-.6-1-1.1-2.1-2.1-2.8-2.7-6-1-13.9-4-19.3-1-.3-3.1-.3-4.2-.2l1.3-.6-.9-1.4Z" fill="#271b12"/>
  <path d="M61.5,782.7l3.7-.6c20.2,11.7,46.2,15.3,69.1,10.3,1.6.7,2.2.8,3.3,2.3-4.5,4.3-7.4,38.4-8.8,47.1-2.9,13.7-4.4,28.9-8.3,42.1-1.8,15.6-3.7,31.9-4.8,47.1-5.6-4.6-15.2-6-22.2-8.3-4.1,3.9-9.4,6.1-13.5,9.9l-1.5-2.1c-1.3,1.4-3.1,1.7-4.5.4-1.8-3.5-1.1-8.9-1-12.8-.6,1.4-1.1,2.7-1.8,4l-2-2.8c-.2-31.7-7.8-64-4.7-95.8.9-11.2,5-22,7-32.9-.2-2.1-8.2-6.6-10.1-8.1Z" fill="#efba91"/>
  <path d="M61.5,782.7l3.7-.6c20.2,11.7,46.2,15.3,69.1,10.3,1.6.7,2.2.8,3.3,2.3-4.5,4.3-7.4,38.4-8.8,47.1-2.9,13.7-4.4,28.9-8.3,42.1-6.6-.4,5.2-35.8,4.9-42.7,2.4-15.2,3.7-29.8,7.5-44.9-18.9,3.8-39.5,1.1-57.8-4.5l-1.2,6-2.7-4c3-4.9-6.6-8.5-9.6-11.1Z" fill="url(#linear-gradient10)"/>
  <path d="M71.2,793.8l2.7,4c-13.8,45.5-.3,69.5-1.7,114.1l-.7.4-1.9-.9c-3.3-39-11.3-79.5,1.6-117.6Z"/>
  <path d="M118.2,879.4c.3,1.9.2,4.1,2.4,4.6-1.4,15.4-4.3,31.1-4.3,46.4-4.1-1.6-1.9-13.1-2.6-17.4-.3-10.9,2.3-22.9,4.5-33.6Z" fill="#1b160d"/>
  <path d="M113.1,923c0-3.4.2-6.7.5-10,.8,4.3-1.5,15.7,2.6,17.4l-.4.8c-8.4-7.2-20.7-5-23.8-10.4,3.5.7,18.6,3.1,21.1,2.3Z" fill="#271b12"/>
  <path d="M78.6,930.7c4.1-4.7,7.8-7.3,13.5-10,.5.7.9,1.5,1.5,2.1-4.1,3.9-9.4,6.1-13.5,9.9l-1.5-2.1Z" fill="#261c12"/>
  <path d="M72.6,907.9c.4,4.9,1.6,10.1-1.3,14.5l-2-2.8.2-8.1,1.9.9.7-.4.4-4.1Z" fill="#1b160d"/>
  <path d="M69.4,919.5l2,2.8c.7-1.3,1.2-2.7,1.8-4-.1,3.9-.8,9.2,1,12.8,1.5,1.3,3.2.9,4.5-.4l1.5,2.1c4.1-3.9,9.5-6,13.5-9.9,7,2.3,16.7,3.7,22.2,8.3,1.2-2.4-.6-4.1,1-6.7,5.8,21.1,5.2,33.8,21.9,50.2,3.6,6.6,8.5,19.4,5.9,26.9-6.1,21.9-55.8,19.8-69.8,6.3-6.1-5.2-8.5-12-9.2-19.8-5.8-10-6.2-22.5-4.5-33.6.5-8.2,1.9-16.6,3.3-24.7,1.3-2.1,4.4-7.8,5-10.1Z" fill="#614326"/>
  <path d="M93.6,922.8c7,2.3,16.7,3.7,22.2,8.3,1.2-2.4-.6-4.1,1-6.7,5.8,21.1,5.2,33.8,21.9,50.2-.6,1.3-.6,1.6-1.8,2.4-3.1-1.1-6.2-6.5-8-9.2-11.1,3.2-29.9-6-39,5.4v-.3c-6.7-8.8-10.4-15.9-10.1-27.3l1.8-1.8c-2.1-2.3-1.6-8.2-1.6-11.1,4.1-3.9,9.5-6,13.5-9.9Z" fill="#261c12"/>
  <path d="M93.6,922.8c7,2.3,16.7,3.7,22.2,8.3.4,2.2,1.2,4.5.2,6.6-14,3.1-16.6-6-32.8,5.7-.8.5-.5.3-1.5.4-2.1-2.3-1.6-8.2-1.6-11.1,4.1-3.9,9.5-6,13.5-9.9Z" fill="#614326"/>
  <path d="M97.8,947.9c6.6,1.5,14.9,1.3,21.6,3.1.7,4.2,7.6,9.9,3.9,13.5-4.2,1.3-13.5,1.4-17.4-.5-2,1.4-12.9,5-15.4,5.5-1.6-.5-2.9-1.9-3.7-3.3-9.1-14,.1-13.9,11-18.3Z" fill="#614326"/>
  <path d="M95.8,938.9c10.2,4.6,20.8-5.3,23.9,10.6-4.7-1.3-11.2-2.8-15.4-5.1-2.6,1.7-19.3,6-22.2,5.3l-.4-1.1c2.1-4.9,10.1-6.5,14-9.8Z" fill="#614326"/>
  <path d="M65.7,988c1.2,1.2,1.2,1.4,3,1.5,2.3,35.2,76.1,29.6,73.5,7.5.7,2.2.2,4.7,1.3,6.3,0-1,.3-1.9.4-2.9l.4-.2c.7,24.3-79.3,26.9-78.6-12.2Z" fill="#271b12"/>
  <path d="M76.2,994.5c-2.6-2.5-6.5-21.8-7.2-26.2,5.6,5.8,3.5,27.9,18.5,30.9,15,6.1,67,5.7,49.5-22.1,1.2-.8,1.2-1.1,1.8-2.4,3.6,6.6,8.5,19.4,5.9,26.9l-.3-1.3-.4.2c-.1,1-.4,1.9-.4,2.9-1.1-1.6-.6-4-1.3-6.3-20.6,7.2-48.1,14-66-2.5Z" fill="#2f2516"/>
  <path d="M61.2,954.4l1.6.7,1.3-.7c-.9,6.6,3,12.5,4.6,18.7,1.6,6,2.1,12.2,3.3,18.3l1.6.4-1.6.4.3,1.4.5-.8c-4.5-2.7-4.1-22.2-9-29.1l-.6.5c-.5,3.7-1.3,7.3,1.4,10.3v-5.2c2.7,5.5,2.8,14,4,20.2-9.3-3-9-26.8-7.6-35.1Z" fill="#2f2516"/>
  <path d="M69.4,919.5l2,2.8c.7-1.3,1.2-2.7,1.8-4-.1,3.9-.8,9.2,1,12.8,1.5,1.3,3.2.9,4.5-.4l1.5,2.1c0,3-.5,8.8,1.6,11.1l-1.8,1.8c-3.6-2.2-1-5-2.1-8.1-2.4-2.7-6.8-2.8-8.2-6.6-.9,1.6-1.9,4.1-3,5.4l-2.1-6.6c1.2-2.3,4.5-7.6,5-10.1Z" fill="#271b12"/>
  <path d="M68.1,922.9c3.2,4,1.4,9.7-1.5,13.4l-2.1-6.6,3.7-6.8Z" fill="#2f2516"/>
  <path d="M64.4,929.7c3.8,7.8.5,16.6-.3,24.7l-1.3.7-1.6-.7c.5-8.2,1.9-16.6,3.3-24.7Z" fill="#261c12"/>
  <path d="M172.2,745h3.2c.3,10.2-.7,20.3-1,30.6,5.3,3.8,11,5.6,17.2,7.4l-.2,3.5-7.2-2.2-2.5,9.5c-.3-2-1.5-3-2.8-4.4l1.8-5.7c-14.9-3.3-8.7-27.6-8.7-38.8Z" fill="#1b160d"/>
  <path d="M272.2,649.5c1.2,6.2,1.4,14.6-.4,20.6l-.9.2c-2,2.8-2.6,5.9-3.4,9.2l-.4-3.1-.9-.7c1.1-6.2,2.6-12.4,3.8-18.6,2.4-2.5,1.9-4.2,2.2-7.6Z" fill="#261c12"/>
  <path d="M226.2,877.1l.4,2.9c.6-2.6,1.4-4.2,3.4-6.1-1.6,7.3.6,18.8-3.8,24.6l-.6-.4c-1.5-7-.4-14.1.6-21.1Z" fill="#1b160d"/>
  <path d="M602.7,869.7c2.5-.5,3.6-2.2,5-4.2.6.5,1.1,1.1,1.8,1.3.7,3.6-1.6,6.4-.9,10.4-.6,0-1-.4-1.6-.7l-1.2.6c-1.3-2.3-.7-5.5-3.1-7.3Z" fill="#261c12"/>
</svg>