<?xml version="1.0" encoding="UTF-8"?>
<svg xmlns="http://www.w3.org/2000/svg" width="6.288in" height="8in" version="1.1" viewBox="0 0 452.736 576">
  <!-- Generator: Adobe Illustrator 29.4.0, SVG Export Plug-In . SVG Version: 2.1.0 Build 152)  -->
  <defs>
    <style>
      .st0 {
        fill: none;
      }

      .st1 {
        fill: #493915;
      }

      .st2 {
        fill: #695218;
      }

      .st3 {
        fill: #ecbc80;
      }

      .st4 {
        opacity: .6;
      }

      .st4, .st5 {
        fill: #362804;
      }

      .st6 {
        fill: #585c47;
      }

      .st7 {
        fill: #998d60;
      }

      .st8 {
        fill: #65420b;
      }

      .st9, .st10, .st11 {
        fill: #b46f1f;
      }

      .st12, .st13 {
        fill: #0d0d0d;
      }

      .st14 {
        fill: #624426;
      }

      .st15, .st16 {
        fill: #513d06;
      }

      .st16 {
        opacity: .8;
      }

      .st13, .st10 {
        opacity: .6;
      }

      .st13, .st10, .st11 {
        isolation: isolate;
      }

      .st17 {
        fill: #fff;
      }

      .st18 {
        fill: #513d06;
      }

      .st19 {
        fill: #0ebbd5;
      }

      .st20 {
        fill: #382509;
      }

      .st21 {
        fill: #5b5c56;
      }

      .st22 {
        fill: #a5823b;
      }

      .st11 {
        opacity: .7;
      }

      .st23 {
        opacity: .8;
      }

      .st24 {
        opacity: .5;
      }

      .st25 {
        fill: #9b512a;
      }

      .st26 {
        fill: #4a3705;
      }

      .st27 {
        fill: #eebe81;
      }

      .st28 {
        fill: #70722d;
      }

      .st29 {
        fill: #442e07;
      }
    </style>
  </defs>
  <g id="Layer_1">
    <path class="st5" d="M149.859,359.254c-4.675-27.757.481-56.438-2.21-84.257-2.196-.586-5.434.608-8.153.125,5.126-.569,9.673-2.116,14.006-4.913-.34-11.835-5.906-23.342-6.294-34.876l1.28.883c-1.661-5.378-1.039-13.491-6.278-16.702-3.584-12.269-13.147-17.655-22.962-24.407l1.261.067.441-.73c-5.405-3.475-5.428-7.338-9.184-11.882,11.623-11.983,18.816-27.872,18.204-44.715,1.036-7.21,5.579-17.643-1.743-22.92,5.075-13.812,5.779-28.896-3.303-41.217,1.876-28.457-52.514-19.738-65.225-6.084-3.281,4.398-5.433,9.186-10.275,12.19-6.559,9.084-3.999,22.538-2.764,32.943-11.521,8.152-5.174,33.898,9.731,33.429.842,8.621,7.325,16.05,5.751,24.9-5.741,3.292-7.072,10.908-8.724,16.816-35.849,14.596-42.293,38.059-46.055,73.835-1.196,6.042-3.407,14.292,4.419,16.603-.419,15.592.381,33.571,3.629,53.237,1.283,7.767,2.833,15.103,4.548,21.983-.082,2.507-.35,10.842-.496,19.141-.028,1.565-.067,4.112.137,7.489.072,1.194.238,3.936.619,6.319,0,0,.624,5.844,4.053,11.645,16.017,27.094,73.917,28.38,107.596,8.693.615-.36,1.788-1.047,3.292-2.029.379-.967.804-2.512.889-4.455.044-1.013-.132-2.141-.632-4.271,1.068-1.473,4.094-.021,6.23-.599,10.878-6.08,10.458-25.374,9.672-36.411-.487.057-.973.113-1.46.17ZM21.412,355.03l20.536-4.134s-20.536,4.134-20.536,4.134ZM99.823,185.701c-21.506,2.2-39.415-21.56-41.729-41.128l-.49-.667-.76.019c-1.084-4.864.004-14.759-.428-20.532l5.93,8.744c.674,4.583,4.228,17.205,10.613,12.819,2.518.846,3.244-1.117,5.257-1.984,3.793-1.633,8.716.054,12.772-1.159,5.609,4.894,18.989,6.024,22.038-2.311,6.611.625,7.081,8.46,10.638,5.119,1.712-2.005,4.147-7.01,3.968-9.606,2.891,19.436-7.44,45.372-27.81,50.687h0Z"/>
    <path class="st6" d="M383.775,162.488c5.128,3.157,8.457,8.147,9.494,14.074,18.239,9.042,32.443,17.179,39.27,37.445,2.036,6.046,15.72,49.687,14.016,53.406-1.575,3.428-6.755,5.349-10.002,6.731-.447,18.53-2.994,36.159-6.642,54.308-2.235,12.625-7.115,24.902-4.765,37.895-.204,10.775,2.763,38.122-9.942,42.184-3.772,6.36,3.323,22.86-9.399,23.489.79,12.546,3.199,25.064,1.891,37.685-.503,7.284-4.21,33.556-2.962,38.48,3.433,7.475,5.788,17.418,4.55,25.741-4.219,12.116-15.585,22.466-28.924,22.46-8.12.211-23.305-.098-23.253-11.154-.071-9.913,7.775-14.725,12.558-22.161,3.983-5.255,5.087-12.356,9.428-17.14,1.284-6.823-3.404-23.849-3.805-31.544.63-1.12.066-2.232.991-3.553l-.904-5.454-.202,1.245-.18.018c-2.178-3.584-2.694-10.801-2.732-15.332-1.066-1.759-1.731-12.917-2.046-15.917-16.456-.534-15.057-7.462-17.077-21.033-.313,5.812.453,13.473-6.955,14.6l-1.028,1.558-.518-1.071c-8.494.377-23.956,1.839-31.345-2.392.671,5.535,1.547,11.333,1.682,16.894-1.024,1.852.389,7.28-.639,7.766-.971-1.768-2.459-21.059-2.701-24.585-2.953.088-7.308-1.452-9.091-3.914-3.802-.485.059-23.703-2.466-26.865-1.084-.767-2.098-.357-3.298-.661l.038-.87c2.022-2.29-.413-6.43-.211-9.257,2.158-.669,3.138-2.102,3.677-4.177-.593-.11-.678-.15-1.132-.547.42-4.231-.1-9.16,1.408-13.168,2.007-2.733,2.484-10.663,2.345-14.36-1.117-1.41-2.933-1.583-3.878-3.248.179-26.286,2.791-52.563,2.24-78.901l-5.406-.607c-.993-.834-1.492-1.099-1.874-2.376-2.898-.924-5.659-1.797-8.211-3.509,2.794-16.54,5.585-33.302,10.132-49.45,5.18-15.013,14.482-20.287,27.88-26.83-4.608,13.564-8.109,24.251,9.389,11.504,2.508,2.338,4.99,7.337,8.282,8.37l.261-.402c-.485-2.168-6.126-8.086-7.949-9.478-4.001,1.03-7.436,4.078-11.263,5.343-1.636-8.617,4.869-19.308,9.402-26.352l-.55-1.087c17.472-4.6,34.944-9.201,52.416-13.801Z"/>
    <path class="st5" d="M397.842,104.304c8.176-34.933-10.077-50.614-41.048-60.372-.585.39-.984.667-1.708.739-3.918-1.584-4.692-8.427-8.896-9.258-2.894,1.698-2.221,6.834-4.118,9.373-1.664.378-2.989-5.899-4.901-6.722-2.766,1.474-4.779,7.379-6.627,10.046-15.043,13.178-23.981,27.987-18.427,48.611h0c.121,1.589.418,3.144.71,4.708-7.646,2.472-4.04,16.158-.572,21.381-1.425,21.099,4.689,38.529,19.102,53.482l.55,1.087.799-.285c.447.288.89.573,1.314.895-.355,9.137,3.139,23.449,10.327,29.627-1.255,1.784-2.31,3.568-3.021,5.639l1.108.692c1.139-1.74,2.288-3.253,3.756-4.733,3.979-.913,11.596-2.323,14.977-3.716,2.102-1.047,3.412-3.729,5.919-1.705-.354-.462-.769-.864-1.177-1.278l.725-.498c4.25,2.509,8.546,4.672,13.189,6.349,7.116-11.512,16.123-27.526,7.991-40.49l.498-.474c.734.383,1.346.83,1.998,1.339-1.665-2.71-4.017-4.411-6.535-6.253-.204-8.089,3.967-15.189,4.883-23.207,14.962,3.555,22.356-31.33,9.184-34.977ZM312.278,118.47c-1.16-3.542-3.416-12.23.91-14.33,1.206,2.907.511,11.291-.91,14.33Z"/>
    <path class="st2" d="M397.842,104.304c8.176-34.933-10.077-50.614-41.048-60.372-.585.39-.984.667-1.708.739-3.918-1.584-4.692-8.427-8.896-9.258-2.894,1.698-2.221,6.834-4.118,9.373-1.664.378-2.989-5.899-4.901-6.722-2.766,1.474-4.779,7.379-6.627,10.046-15.043,13.178-23.981,27.987-18.427,48.611h0l.002.002c.008-10.081-2.872-25.628,6.417-34.722l.714.075c-9.146,14.622-7.524,21.787-5.101,37.899,2.468-17.566-.13-35.517,22.787-36.112-.569-2.255-2.588-6.854-1.851-8.995l.334.07c.997,3.137,1.645,6.159,3.154,9.127.693.072,1.531.105,2.477.028.816-.066,1.536-.198,2.143-.348-.62-1.127-1.342-2.707-1.829-4.69-.497-2.025-.582-3.795-.548-5.096h0c.634,1.338,1.275,2.883,1.847,4.625.628,1.914,1.05,3.691,1.335,5.261,1.015.1,2.089.176,3.217.219,1.234.047,2.408.05,3.514.02-1.026-1.902-3.04-6.858-2.439-8.998,1.527,2.12,2.425,6.483,3.182,9.051l8.002.333c-1.219-2.075-2.799-6.215-2.283-8.615,1.11,1.312,2.224,6.734,2.789,8.645,7.626.209,17.219,2.61,20.249,9.443.601,1.354,1.247,3.696.794,6.977.266,3.305.603,7.019,1.037,11.092.255,2.394.5,4.506,1.378,7.193.6,1.837,1.286,3.298,1.803,4.293,1.634,3.039,4.306,1.332,6.855,1.613l.472.878c1.4-.478,2.964-2.119,4.13-3.074l.203.53c-1.28,1.376-2.784,2.919-4.224,4.109l.296.392c11.891-6.662,10.173,12.942,7.991,19.755l.512.025c.945-2.307,1.17-6.329,2.868-7.906.148-5.595.425-14.102-6.502-15.517Z"/>
    <path class="st27" d="M62.346,132.137c.623-43.323-18.109-63.377,40.407-54.609,10.065-.752,16.786-2.311,21.684,8.371,4.516,15.955-.728,32.949,3.197,49.116.178,2.596-2.257,7.602-3.969,9.605-3.55,3.358-4.032-4.504-10.638-5.118-3.051,8.335-16.427,7.204-22.038,2.311-4.056,1.214-8.979-.474-12.772,1.159-2.012.867-2.738,2.83-5.257,1.984-6.388,4.38-9.934-8.227-10.613-12.819h0Z"/>
    <path class="st27" d="M131.736,120.025c-.397-2.553-1.525-3.637-3.507-5.098l1.73-4.742-.782-.611c1.329-12.55,2.573-24.871-5.611-35.54,1.791-27.317-55.106-18.216-65.023-2.346-1.808,4.147-5.203,6.852-8.402,9.757-5.136,7.289-2.832,22.82-2.151,31.316,4.477.68,10.434,5.838,8.428,10.632l5.93,8.744c.613-43.369-18.091-63.365,40.407-54.609,30.654-6.351,22.039,25.519,23.425,44.514.231-1.672.122-3.372.349-5.067.495.805.301,3.801.348,4.881.348-1.696.451-3.589,1.294-5.088.726.535,1.124,1.256,1.593,2.005.841.386,1.277,1.07,2.02,1.599-.016-.116-.029-.233-.047-.348h-.001Z"/>
    <path class="st5" d="M176.879,62.311c-5.631-18.959-4.7-44.307,18.437-49.602,17.203-4.377,49.36-8.065,58.816,10.987,14.716,6.182,11.339,28.792,9.378,41.472,8.051,6.741,5.289,35.355-8.94,30.791-.363,6.414-3.07,12.171-4.836,18.162,4.689,1.626,6.589,7.113,8.46,11.274,34.79,10.286,48.509,32.281,55.136,66.576,9.147-3.524,12.736-8.008,18.025-15.683l.55,1.087c-4.525,7.023-11.045,17.756-9.402,26.352,3.828-1.265,7.261-4.313,11.263-5.343,1.823,1.392,7.464,7.31,7.949,9.478l-.261.402c-3.297-1.04-5.768-6.026-8.282-8.37-17.541,12.781-13.969,1.992-9.389-11.504-13.398,6.543-22.7,11.818-27.879,26.83-4.548,16.148-7.336,32.91-10.132,49.45,2.552,1.712,5.313,2.585,8.211,3.509.382,1.277.881,1.543,1.874,2.376l5.406.607c.552,26.337-2.062,52.616-2.24,78.901.944,1.665,2.76,1.838,3.878,3.248.142,3.68-.34,11.645-2.345,14.36-1.508,4.009-.988,8.937-1.408,13.168.454.396.54.437,1.132.547-.537,2.074-1.52,3.508-3.677,4.177-.203,2.828,2.233,6.967.211,9.257l-.038.87.864.18c-13.114,3.742-17.853-26.038-14.933-34.645-2.478,1.123-4.984,1.335-7.336-.178,2.15,50.139-4.681,100.462-3.39,150.515-2.784,22.42-34.147,25.714-50.299,16.341-8.41-8.347-.738-22.044,4.276-30.311-.67-32.965-6.525-65.643-10.805-98.273-1.162,21.553-1.895,46.977-3.44,68.467-2.173,10.363,1.089,20.704.994,30.932-1.994,9.468-14.443,7.416-21.559,9.27-10.816,4.369-22.367,8.662-34.248,6.016-10.9-1.49-15.481-7.679-12.15-18.421,5.145-10.418,16.823-8.94,22.029-16.256,1.053-46.749-5.563-93.939-7.796-140.752-4.202,2.611,2.57,17.734-8.535,12.634.689,2.585.741,5.218.877,7.875l-1.466.169c-4.675-27.757.481-56.438-2.21-84.257-2.196-.586-5.434.608-8.153.125,5.126-.569,9.673-2.116,14.006-4.913-.34-11.835-5.906-23.342-6.294-34.876l1.28.883c-1.661-5.378-1.039-13.491-6.278-16.702-3.584-12.269-13.147-17.655-22.962-24.407l1.261.067.44-.73c3.983,2.221,7.629,5.196,11.421,7.744,4.605-23.442,14.493-52.509,37.033-64.081,5.42-3.228,13.191-5.46,15.832-11.684-8.855-10.573-11.253-22.522-10.527-37.226-4.513-6.865-5.163-16.819-.72-23.839l2.644-1.281c.082-.589.163-1.178.245-1.767h.003v.002Z"/>
    <path class="st28" d="M166.092,293.453c1.575.624,3.179,1.059,4.813,1.499-.084,3.595-.856,9.045.409,12.351,3.361,2.308,10.331,2.935,14.411,4.233,2.707.926,5.194,2.54,8.128,2.578.247,6.775.646,28.528,3.198,33.375l-.002-.686.215-.186-.229-.15c-.94-10.65-1.999-21.415-1.856-32.116,5.687.619,11.348.264,17.015-.272,5.35-.215,20.387.458,24.577-1.697,1.503-3.121.693-9.442.666-12.985,2.125-.241,4.248-.496,6.369-.766.029,4.325-.054,8.65-.249,12.97,9.891-1.309,19.642-3.386,28.994-6.931-2.219,8.454-7.485,15.639-8.895,24.366l1.692-.002c-.612,4.066-3.405,15.042.633,17.507,2.952-1.256,4.406-4.751,5.129-7.677l.363.042.47-.761c1.52,4.134-8.194,29.398,3.52,19.954,1.872,50.968-4.559,102.46-3.484,153.465-2.783,22.419-34.146,25.714-50.299,16.341-8.41-8.348-.738-22.044,4.276-30.311-.67-32.965-6.525-65.643-10.805-98.273-1.16,21.557-1.896,46.974-3.44,68.467-.878,4.223-1.757,8.446-2.635,12.668-3.479,1.059-7.839,1.994-12.899,2.205-12.214.508-21.757-3.491-26.816-6.112-.137-.055-.273-.11-.41-.165-.896-58.035-7.447-117.521-11.721-175.528,2.86,1.806,5.672,3.402,8.823,4.645.013-4.016.025-8.032.038-12.048Z"/>
    <path class="st27" d="M118.357,171.931c7.275-10.51,11.598-24.13,9.275-36.916.179,2.596-2.256,7.602-3.968,9.605-3.557,3.342-4.027-4.493-10.638-5.118-3.051,8.335-16.427,7.204-22.038,2.311-4.056,1.214-8.979-.474-12.772,1.159-2.012.867-2.738,2.83-5.257,1.984-6.388,4.38-9.934-8.227-10.613-12.818l-5.93-8.745c.432,5.773-.657,15.668.428,20.532l.76-.019.49.667c2.08,27.944,40.522,60.142,60.264,27.357h0Z"/>
    <path class="st9" d="M126.594,154.327c.663-2.632,1.487-5.984,1.636-10.533.117-3.57-.223-6.58-.598-8.779-.141,1.29-.422,3.078-1.275,5.025-.8,1.826-1.837,3.579-2.693,4.58-3.557,3.342-4.027-4.493-10.638-5.118-3.051,8.335-16.427,7.204-22.038,2.311-4.056,1.214-8.979-.474-12.772,1.159-2.012.867-2.738,2.83-5.257,1.984-6.388,4.38-9.934-8.227-10.613-12.818l-5.93-8.745c.432,5.773-.657,15.668.428,20.532l.76-.019.49.667c.179,1.928.561,4.692,1.468,7.908,2.336,8.285,6.517,13.778,8.843,16.774,2.303,2.966,5.287,6.81,10.505,10.39,3.671,2.519,9.299,6.381,17.245,6.401,2.221.005,6.655-.284,11.369-2.687,5.625-2.868,8.711-7.248,10.625-9.963,1.362-1.933,2.151-3.445,3.176-5.409,3.335-6.389,4.78-11.719,5.269-13.659Z"/>
    <path class="st2" d="M168.796,477.506c7.218,6.304,32.003,8.043,40.685,3.396.544,4.597,3.121,16.841.413,20.416-4.428,4.689-12.326,3.422-18.035,4.78-11.264,4.048-22.916,9.262-35.171,6.319-5.522-.967-13.802-4.346-11.287-11.319,15.434,10.502,35.559,3.242,51.364-2.299l.408-.616-.262.545.343-.37v.004c-3.571-.448-12.075,4.085-16.167,5.186-9.562,2.633-20.092,2.799-29.598-.152-2.178-.643-5.391-1.559-6.099-3.808-.18-.572-.171-1.151-.046-1.785.821-4.172,6.346-7.828,8.558-9.262,4.666-3.025,9.083-5.707,13.185-8.078.223-.132.524-.361.816-.7.739-.859.865-1.84.893-2.259v.002Z"/>
    <path class="st2" d="M226.302,498.168c17.775-11.328,30.193,1.725,43.318-1.794,4.146,13.79-1.734,30.829-17.224,33.515-8.73,2.053-22.447,1.415-30.243-3.369-3.637-3.023-2.209-8.095-1.875-12.185,11.651,14.54,39.176,11.885,48.834-3.539-11.752,14.452-36.261,17.396-48.71,2.442.505-4.082,4.908-8.549,2.919-11.351,1.03-1.326,1.816-2.83,2.638-4.294l.342.576h0Z"/>
    <path class="st15" d="M223.322,501.886c1.03-1.326,1.816-2.83,2.638-4.294l.342.576c-.35,1.918-.279,3.944-2.264,5.043-.018-.576-.369-.902-.716-1.326h0Z"/>
    <path class="st5" d="M263.658,329.035l1.692-.002c-.612,4.066-3.405,15.042.633,17.507,2.952-1.256,4.406-4.751,5.129-7.677l.363.042.47-.761c1.52,4.134-8.194,29.398,3.52,19.954.851,45.857-1.852,92.255-4.244,138.222.203,8.535,2.83,18.081-3.239,25.464-9.966,13.279-32.857,13.654-46.299,6.121-7.304-6.659-2.238-18.725,1.638-26.018,1.989,2.798-2.415,7.273-2.919,11.351,12.46,14.954,36.945,12.011,48.71-2.442-9.661,15.423-37.177,18.081-48.834,3.539-.337,4.088-1.761,9.163,1.875,12.185,7.796,4.785,21.513,5.423,30.244,3.37,15.481-2.687,21.379-19.729,17.223-33.516-13.074,3.515-25.605-9.525-43.318,1.794l-.342-.576c-.671-32.965-6.525-65.642-10.806-98.273-1.16,21.557-1.896,46.974-3.44,68.467-2.173,10.364,1.089,20.703.994,30.932-1.992,9.471-14.443,7.414-21.559,9.27-10.816,4.369-22.367,8.662-34.248,6.016-10.884-1.476-15.487-7.69-12.149-18.421.805-1.689,1.71-2.875,2.349-3.614,2.021-2.337,4.292-3.558,6.37-4.651,1.527-.804,2.542-1.187,3.445-1.571,2.331-.992,5.624-2.722,9.495-5.93.225.216.451.433.676.649-5.252,8.279-18.651,7.036-21.743,17.34-.783,3.598,3.465,4.801,6.145,5.593,9.506,2.95,20.036,2.785,29.598.152,4.096-1.102,12.586-5.633,16.166-5.186v-.004l-.341.37.262-.545-.408.616c-15.888,5.537-35.778,12.822-51.364,2.299-2.502,6.975,5.756,10.351,11.287,11.32,12.259,2.942,23.904-2.271,35.171-6.32,5.704-1.355,13.618-.094,18.035-4.779,2.708-3.575.131-15.819-.413-20.416-8.675,4.64-33.426,2.921-40.685-3.396l.569-.96c11.163,4.419,28.715,8.435,39.602,2.332,2.467-24.246,8.424-96.31-2.267-122.186-5.532-1.669-22.793-4.794-24.799-10.623l.753.132-.678.021.554.491.584-.523c13.123,8.594,28.119,9.947,43.102,7.468l.111.457.075-.203c-2.855,3.45-13.835,2.703-18.027,2.694,10.309,45.426,16.194,91.907,19.488,138.366.719.107,10.8-3.468,13.904-3.638,6.553-.353,23.948,5.856,27.359,4.16,4.644-43.399,3.486-90.142,5.169-134.047-9.464,2.402-6.337-9.823-4.722-15.057-2.84,1.505-4.332,1.11-5.018.777-3.146-1.529-3.674-8.738-.898-18.136Z"/>
    <path class="st8" d="M175.645,40.692c.341-6.156,1.459-11.132,2.333-14.332,1.919-2.641,5.861-7.327,12.458-10.804,5.751-3.031,11.048-3.841,14.185-4.079,5.561-.478,11.122-.955,16.683-1.433,6.651,1.323,13.303,2.646,19.954,3.969,2.162.488,5.119,1.502,7.713,3.859,1.914,1.738,2.042,2.763,4.193,5.402,3.579,4.39,5.615,4.484,7.896,7.298,1.689,2.083,3.466,5.599,3.348,11.774.373,3.458.524,7.833-.082,12.826-.445,3.668-1.202,6.879-2.013,9.553-.512-.086-2.611-.376-4.656.941-2.481,1.597-2.895,4.281-2.95,4.682-.505,3.112-1.143,7.693-1.413,12.598-.175,3.181-.128,5.272-.083,6.449.091,2.358.287,3.998.338,4.525.61,6.321-4.142,14.484-5.457,16.861-3.762,6.799-8.42,11.182-11.411,13.601-5.224,4.225-14.91,12.284-28.34,11.077-1.156-.104-12.598-1.3-21.115-10.294-2.3-2.429-3.659-4.658-4.548-6.135-4.673-7.763-6.068-15.697-6.367-21.647-.041-2.618-.083-5.237-.124-7.855,2.217-11.459,1.962-20.48,1.32-26.594-.78-7.439-2.378-12.962-1.864-22.242Z"/>
    <path class="st27" d="M179.533,62.277s1.324-25.697,6.863-29.821c.531-.395,1.984-1.478,2.756-.992.482.303.515,1.101.496,1.571,3.863,1.74,6.822,1.799,8.792,1.543,2.642-.343,9.108-1.98,12.154-3.5.319-.159,1.263-.648,2.398-.467,1.074.171,1.773.855,1.957,1.018,2.611,2.321,14.941.683,18.769.248,2.871-.326,7.163-.682,12.54-.606-.26,9.245-.037,12.874.276,14.277.038.172.234,1.008.393,2.165.233,1.691.237,2.959.241,3.265.067,5.408,4.022,19.41,0,31.006-.834,2.404-2.442,5.948-5.843,9.812-2.035-1.311-4.831-2.789-8.351-3.803-7.064-2.036-13.162-1.087-16.371-.331-.696.693-3.893,3.726-8.866,3.814-6.313.112-10.092-4.617-10.507-5.156l-.068.387c-1.254.054-3.317.235-5.746.927-5.356,1.527-7.473,4.114-10.064,3.307-1.01-.314-2.442-1.254-3.597-4.426.991-10.489,1.501-18.857,1.778-24.238Z"/>
    <path class="st5" d="M246.986,30.926c-3.945-4.121-26.27,3.628-31.719-1.075,0,0,0,0,0,0,2.277-1.603,4.37-3.152,6.827-4.493-5.766,2.197-7.485,3.213-8.856,4.156,0,0,0,0,0,0h-.001c-7.363,2.598-15.921,6.513-23.417,3.195.859-3.727,5.294-5.137,8.252-6.941-2.285.237-7.754,1.133-12.317,5.469-.704.669-3.009,2.962-4.592,6.684-1.504,3.536-1.31,5.9-1.86,19.224-.066,1.606-.124,2.907-.16,3.693.008.029.188.715-.309,1.227-.322.332-.804.462-1.252.337-.234-.03-.467-.06-.701-.09-.082.589-.163,1.178-.245,1.767-.724.188-1.704.545-2.644,1.281-3.632,2.844-3.225,8.651-2.992,11.984.352,5.026,2.098,9.069,3.712,11.855l1.149.247c.455-1.312.483-1.931,1.526-2.979l.37.051c2.715,9.086,7.995,4.186,13.802,1.697,1.882-.622,4.537.82,6.165-.47l-.56-1.036c-6.241-1.648-12.646,4.906-16.702,2.712-2.74-7.942-.071-16.148.541-24.224,1.558-8.601-2.193-30.574,7.953-33.581-.494.974-.644,1.21-.576,2.283,7.466,4.401,17.147.496,24.655-2.732,9.511,5.513,22.321-.903,32.788.497-5.068,20.448,11.607,41.311-4.529,59.631-6.343-5.673-15.041-4.584-22.793-4.8l.096-1.1c-9.471,8.605-27.999,3.604-15.321-9.82,0,0,.002,0,.003,0,2.431-3.214,4.557-7.972,3.784-12.088-1.507,3.274-2.206,7.667-5.046,10.667,0,0,0,0,0,0,0,0-.001-.001-.002-.001-1.129,1.113-2.41,2.67-3.423,4.732,0,0-1.143,2.326-1.53,5.724-.046.405-.091,1.023.168,1.712.179.477.437.811.707,1.121,1.065,1.221,2.237,1.971,2.38,2.062,1.533.966,2.595,1.636,4.152,2.011,1.874.451,3.322.201,5.685-.207,2.274-.393,3.809-.999,4.752-1.378,1.891-.76,2.91-1.624,3.351-1.991.311-.26.558-.492.73-.661,1.102.141,2.749.345,4.754.565,4.05.444,5.7.531,6.821.675,2.526.325,6.088,1.42,10.403,4.92,11.228-7.226,6.349-19.925,10.766-29.612-5.66-10.069-5.57-21.927-4.746-32.897Z"/>
    <path class="st27" d="M173.905,84.086c-.705-4.646-3.691-19.085,4.446-17.725.711,5.905-1.25,13.532-2.805,19.309l-.519.223c-.628-.504-.822-1.075-1.121-1.807h-.001Z"/>
    <path class="st10" d="M131.736,120.025c-.397-2.553-1.525-3.637-3.507-5.098l1.73-4.742-.782-.611c1.329-12.55,2.573-24.871-5.611-35.54,1.791-27.317-55.106-18.216-65.023-2.346-1.808,4.147-5.203,6.852-8.402,9.757-5.136,7.289-2.832,22.82-2.151,31.316,4.477.68,10.434,5.838,8.428,10.632l5.93,8.744c.613-43.369-18.091-63.365,40.407-54.609,30.654-6.351,22.039,25.519,23.425,44.514.231-1.672.122-3.372.349-5.067.495.805.301,3.801.348,4.881.348-1.696.451-3.589,1.294-5.088.726.535,1.124,1.256,1.593,2.005.841.386,1.277,1.07,2.02,1.599-.016-.116-.029-.233-.047-.348h-.001Z"/>
    <path class="st15" d="M224.178,46.084c4.486-.415,9.716.043,12.907,3.61,1.233,1.335,2.778,4.361.551,5.478-5.166-2.71-9.901-3.4-15.759-3.209-1.212-.058-2.111-.267-2.958-1.184-.542-2.991,2.911-4.233,5.26-4.696h0Z"/>
    <path class="st15" d="M195.269,46.718c3.453-.308,8.555,1.139,8.814,5.19-7.675,2.3-7.113-2.929-17.165,4.205-5.49-2.967,5.078-9.289,8.351-9.395Z"/>
    <path class="st15" d="M226.615,61.569c5.867.008,5.591,8.832,1.844,11.618-5.953.089-5.006-8.64-1.844-11.617h0Z"/>
    <path class="st15" d="M195.585,61.611c5.291.345,4.75,7.882,1.549,10.55-5.699.382-5.076-8.088-1.549-10.549h0Z"/>
    <path class="st5" d="M176.879,62.311c-5.631-18.959-4.7-44.307,18.437-49.602,17.203-4.377,49.36-8.065,58.816,10.987,14.716,6.182,11.339,28.792,9.378,41.472,8.051,6.741,5.289,35.355-8.94,30.791.534-.437,1.184-.66,1.812-.937l-2.075-1.078c-.635-4.695.008-23.055,2.784-27.814,1.255-1.31,3.634-1.282,4.71-2.617,2.722-3.381,1.568-20.805.934-25.124-1.315-8.948-4.689-8.787-9.822-14.631-1.776-2.022-2.887-4.572-5.125-6.18-18.907-10.093-54.112-9.986-68.335,8.006-5.958,9.08-2.1,26.868-1.874,36.816-.542.029-.314.086-.701-.09h.001Z"/>
    <path class="st27" d="M255.957,70.559c.163-.512.789-2.267,2.597-3.337.413-.245,2.268-1.342,3.907-.632.397.172,1.249.653,2.48,4.093.477,1.334,1.152,3.232,1.509,6.057.222,1.752.507,4.159-.021,7.235-.145.842-.369,2.112-.972,3.659-.793,2.037-2.342,6.033-6.001,7.262-.748.251-2.362.649-4.644.022-.01-.289-.025-.717-.041-1.235-.042-1.358-.222-7.13-.11-11.107.079-2.797.362-6.859,1.295-12.017Z"/>
    <path class="st0" d="M226.192,105.858h0c2.188-2.144,6.167-5.14,5.166-8.564l-.252-.124-.158.206c-14.138,3.357-22.992,5.298-37.487,1.311.128,6.367,6.566,10.902,12.435,11.717,4.368,1.245,9.065-1.174,13.159.824-1.097-.652-1.985-.772-3.222-.892,3.804-.768,7.212-2.214,10.359-4.478Z"/>
    <path class="st0" d="M222.337,108.164c1.512-.732,2.789-1.536,3.841-2.296.005-.004.01-.007.014-.011,2.188-2.143,6.167-5.139,5.166-8.563l-.252-.124-.158.206c-14.138,3.357-22.992,5.298-37.487,1.311.128,6.367,6.566,10.902,12.435,11.717,3.059.872,6.279-.049,9.341.004-.007-.002-.013-.003-.02-.004,1.916-.309,4.418-.931,7.12-2.24Z"/>
    <path class="st26" d="M203.033,116.935c4.469.557,9.341.443,13.767.522l-.25.527c-4.521,1.396-9.442,1.71-13.517-1.049Z"/>
    <path class="st27" d="M278.019,226.015c1.282-1.322,11.083-1.497,13.886-2.194-2.697,13.671-6.281,27.353-7.718,41.219,1.754,1.634,3.632,2.873,5.785,3.925l-.316,5.289.84.457c.621-.795.141-1.573.615-2.353l.274.495c.35-.86.315-1.99.655-2.94.991-.41,2.743.349,3.817.643l5.406.607c.552,26.338-2.062,52.616-2.24,78.901.944,1.665,2.76,1.838,3.878,3.248.142,3.68-.34,11.645-2.345,14.36-1.508,4.009-.988,8.937-1.408,13.168.454.396.54.437,1.132.547-.537,2.074-1.52,3.508-3.677,4.177-.203,2.828,2.233,6.967.211,9.257l-.038.87.864.18c-13.114,3.742-17.853-26.038-14.933-34.645-2.478,1.123-4.984,1.335-7.336-.178-.46-1.078-.171-1.847.094-2.95-11.713,9.426-2.005-15.777-3.52-19.954l-.47.761-.363-.042c-.722,2.923-2.179,6.424-5.129,7.677-4.04-2.44-1.241-13.458-.634-17.507,1.23-7.065,4.936-12.732,7.378-19.316,5.942-26.863,5.869-56.236,5.292-83.703h0Z"/>
    <path class="st27" d="M291.386,272.853c.35-.86.315-1.99.655-2.94.991-.41,2.743.349,3.817.643l5.406.607c.552,26.338-2.062,52.616-2.24,78.901.944,1.665,2.76,1.838,3.878,3.248.142,3.68-.34,11.645-2.345,14.36-1.508,4.009-.988,8.937-1.408,13.168.454.396.54.437,1.132.547-.537,2.074-1.52,3.508-3.677,4.177-.203,2.828,2.233,6.967.211,9.257l-.038.87.864.18c-13.114,3.742-17.853-26.038-14.933-34.645-2.478,1.123-4.984,1.335-7.336-.178-.706-2.026.283-4.642,2.439-5.25l.49.632c-1.065,2.165.441,4.795,2.846,3.13,1.612-1.73,1.77-4.2,2.599-6.332,4.326-26.288,2.324-52.55,5.911-78.974l.84.457c.621-.795.141-1.573.615-2.353l.274.495h0Z"/>
    <path class="st5" d="M288.597,288.032l.771-.097c.109,1.257-.414,2.084-.027,3.334l.567.222c-1.829,20.684-.885,41.697-4.627,62.168l-.328-.106-.191-.482c-.362.021-.669.057-1.017.157,4.241-21.748,1.701-43.306,4.852-65.197h0Z"/>
    <path class="st15" d="M283.744,353.229c.349-.1.656-.136,1.017-.157l.191.482.328.106c-1.772,8.97-2.268,17.441.064,26.353.687,3.526,3.334,7.138,2.424,10.73-4.631-7.648-7.594-20.846-5.06-29.516-2.478,1.123-4.984,1.335-7.336-.178-.706-2.026.283-4.642,2.439-5.25l.49.632c-1.068,2.185.443,4.78,2.846,3.13,1.612-1.731,1.77-4.199,2.599-6.332h-.002Z"/>
    <path class="st29" d="M292.531,383.071c-1.551-3.565-3.705-16.098-2.75-19.592,1.007.624,2.544,16.321,4.452,19.494l-1.702.097h0Z"/>
    <path class="st5" d="M289.657,274.254l.84.457c.621-.795.141-1.573.615-2.353l.274.495c-.262,6.223-1.342,12.425-1.478,18.638l-.567-.222c-.387-1.249.136-2.076.027-3.334l-.771.097c-.121-4.449.778-9.302,1.059-13.777h.001Z"/>
    <path class="st26" d="M287.792,387.749c1.87,3.344,4.442,8.132,9.024,7.071l-.038.87.864.18c-4.245,1.925-8.109-1.466-9.873-5.129.494-.816.163-2.107.023-2.994v.002h0Z"/>
    <path class="st26" d="M301.476,352.191c.747.128.934.564,1.426,1.12.142,3.68-.34,11.645-2.345,14.36.693-4.979,1.217-10.472.918-15.481h.001Z"/>
    <path class="st26" d="M294.231,382.974c2.046,1.921,4.151-.048,4.917-2.133.454.396.54.437,1.132.547-.563,4.115-5.751,5.723-7.752,1.684l1.702-.097h.001Z"/>
    <path class="st26" d="M282.732,336.25c-.014,6.976-1.904,13.727-4.433,20.18l-.49-.632c-.497.229-.982.476-1.469.726,2.901-6.504,4.22-13.545,6.392-20.274h0Z"/>
    <path class="st20" d="M271.111,338.863c.272-2.575.233-7.884,1.617-10.052,1.397,3.046.12,9.616-.611,12.87-.206-1.176.035-2.349-.172-3.537l-.47.761s-.363-.042-.364-.042Z"/>
    <path class="st27" d="M149.767,332.82c1.268,3.637,2.351,5.034,5.763,6.882,1.293,4.021.887,14.776-5.463,8.986-1.224-5.212-.612-10.58-.3-15.868h0Z"/>
    <path class="st27" d="M144.409,221.03l-.343-1.556.373-.471c1.711-.183,3.948,1.094,5.577,1.687-.124,6.608-.752,13.19-.812,19.799-1.239-6.421-1.987-13.501-4.795-19.46h0Z"/>
    <path class="st15" d="M156.056,342.472l.572-.096c-.245-1.269-.333-1.654.125-2.911-.127.481-.189.934-.251,1.426.244-1.135.836-2.834,2.18-2.928l.302.612c-4.202,2.611,2.57,17.734-8.535,12.634.453-.199.859-.186,1.346-.214-.557-.524-1.146-1.007-1.733-1.497l.007-.811c5.035,4.909,6.609-2.113,5.989-6.216h-.002,0Z"/>
    <path class="st25" d="M243.87,130.695c3.703-2.904,4.083-9.701,7.195-12.523,11.559,5.928,1.389,31.188-2.381,38.839-5.896.041-14.324-9.754-20.494-7.226.744.67.855.801,1.833.946,7.102,1.855,13.063,9.12,19.289,8.257,6.66-7.348,7.9-22.014,9.289-31.69,31.926,9.662,47.929,32.907,52.958,65.273-12.083,7.774-15.904,15.861-19.406,29.279-4.343,1.019-15.654,2.751-19.445.474-1.597-6.253.029-34.184-1.372-36.414l-.414.111c-1.48,2.865-1.21,33.398-.086,36.85.842,2.054,3.487,2.067,5.362,2.347.748,21.132.129,42.296-2.068,63.311-10.942,8.103-45.005,10.317-58.61,10.047-3.27-.065-19.648-.048-21.233-1.934-6.821-8.117-.93-73.937.472-85.61,8.398-66.962,9.673-41.463,49.11-80.337h.001Z"/>
    <path class="st29" d="M228.189,149.787c.744.67.855.801,1.833.946-3.576,4.96-12.578,5.844-18.5,5.754,5.037-1.775,10.176-3.519,15.36-4.8.511-.583.897-1.244,1.307-1.899h0Z"/>
    <path class="st5" d="M223.043,182.228c12.304,1.275,24.464.51,36.763,1.061.342,4.08-.74,28.611-1.57,31.278-.544,1.749-2.898,2.588-4.43,3.389-11.379,7.43-21.168,5.651-30.698-3.654-.69-4.978-1.204-27.986-.064-32.074h-.001Z"/>
    <path class="st25" d="M224.438,183.867c11.331,1.282,22.693.343,34.038.953-.245,4.288-.804,26.624-1.595,28.827-.526,1.467-1.937,2.061-3.22,2.737-9.564,6.466-19.521,5.747-28.074-1.95-2.349-2.668-1.404-25.42-1.15-30.566h0Z"/>
    <path class="st5" d="M194.957,260.502c4.107-1.888,6.912,4.661,2.711,6.33-4.051,1.753-6.777-4.609-2.711-6.33Z"/>
    <path class="st5" d="M195.952,287.992c4.518-.888,5.802,5.07,2.285,7.229-4.369.394-5.55-4.87-2.284-7.228h-.001Z"/>
    <path class="st5" d="M207.883,163.664c4.012.799,3.998,6.381.503,7.923-5.273-.252-3.538-5.747-.504-7.923h0Z"/>
    <path class="st5" d="M200.939,194.275c3.966.55,4.32,5.376,1.402,7.525-4.345.569-5.741-6.593-1.402-7.525Z"/>
    <path class="st5" d="M197.243,228.4c4.399-.119,5.011,5.216,1.416,7.055-4.462.745-4.955-5.473-1.416-7.056h0Z"/>
    <path class="st25" d="M179.665,134.302c.179-.005.455.134.626.195-.857,6.496-6.118,15.076-3.589,21.794,16.144-2.36,10.017-13.599,29.373,2.594-14.979,26.93-20.458,107.281-13.968,138.123-13.715-2.237-43.201-3.653-39.653-23.81.949-.815,1.989-1.56,2.98-2.326-7.738-35.939-3.214-73.246,4.472-108.916l-.283.437.093-.32.107.276-.217.041c-7.354,17.485-7.814,37.287-9.508,55.996-2.533-.472-5.01-1.212-7.387-2.207-2.242-5.066-4.432-9.791-9.055-13.132,7.411-30.149,15.831-55.292,46.012-68.744h-.003Z"/>
    <path class="st27" d="M191.416,130.823c21.199,16.291,45.598,1.577,55.143-13.555,1.301-1.142,1.98-1.865,2.566.096-3.944,16.22-23.421,26.111-41.638,39.983-5.558-7.087-12.132-17.815-16.07-26.524h0Z"/>
    <path class="st27" d="M149.92,275.98l.189-1.401.221-.148c1.066,6.545.13,8.5,4.928,13.774.282,12.325.791,24.683,2.288,36.919-.062,2.705,2.907,11.967-1.075,12.632-10.181-2.956-5.774-18.211-6.449-26.289.001,0-.102-35.487-.102-35.487h0Z"/>
    <path class="st2" d="M233.485,299.882c.943-.101,1.292-.221,2.17.179,1.47,2.546.48,8.021.345,10.905-7.683,1.97-19.514,1.975-27.511,1.186-.877-2.892-.265-8.616-.269-11.754,8.425.142,16.853-.03,25.265-.517h0Z"/>
    <path class="st2" d="M273.131,291.002l.571.158c.665,2.513-.578,8.21-.886,10.986-7.636,4.776-18.462,6.288-27.175,7.497-.85-1.638-.185-8.59-.241-11.027,9.426-2.177,19.099-2.82,27.731-7.614h0Z"/>
    <path class="st25" d="M186.348,128.25c5.14,2.298,5.937,8.078,8.02,12.707,2.45,4.934,6.103,9.562,9.233,14.088-9.204-9.027-16.007-6.452-25.91-.127.871-9.69,3.027-18.576,8.657-26.668h0Z"/>
    <path class="st7" d="M188.702,298.349c5.925.723,11.785,1.473,17.744,1.869.161,4.345.075,8.685.008,13.031-6.03.169-11.724-.708-17.619-1.872-.13-4.341-.174-8.685-.132-13.028h0Z"/>
    <path class="st2" d="M172.395,295.218c4.922,1.315,9.753,2.509,14.829,3.037-.436,3.988-.326,7.746.123,11.729-3.444-.022-11.544-2.715-14.935-4.02-.071-3.581-.077-7.165-.017-10.746Z"/>
    <path class="st2" d="M156.79,289.465c2.549.501,5.507,2.653,8.043,3.648.044,3.407-.005,6.815-.149,10.22-2.941-1.28-5.211-2.708-7.608-4.84-.064-3.014-.446-6.009-.287-9.027h.001Z"/>
    <path class="st26" d="M312.117,96.721c-5.554-20.624,3.384-35.433,18.427-48.611,1.848-2.667,3.861-8.572,6.627-10.046,1.912.823,3.237,7.1,4.901,6.722,1.897-2.539,1.224-7.675,4.118-9.373,4.204.831,4.978,7.674,8.896,9.258.724-.072,1.123-.349,1.708-.739,30.971,9.758,49.224,25.439,41.048,60.372,6.927,1.415,6.65,9.922,6.502,15.517-1.698,1.577-1.923,5.599-2.868,7.906l-.512-.025c2.182-6.813,3.9-26.417-7.991-19.755l-.296-.392c1.44-1.19,2.944-2.733,4.224-4.109l-.203-.53c5.705-34.698-9.392-46.668-39.571-57.279-.66.519-1.181,1.004-2.023,1.157-3.933-2.184-5.718-6.57-8.427-9.943-2.097,7.344-5.193,14.724-9.652,3.437-3.933,8.625-11.194,15.124-17.776,21.788l-.714-.075c-9.289,9.094-6.409,24.641-6.417,34.722v-.002h-.001Z"/>
    <path class="st26" d="M379.964,88.577c.577-3.019-.596-6.51.46-9.358,1.903,8.038,1.034,16.574,4.814,24.28l-.595.393c-1.81-4.599-4.653-10.355-4.679-15.315Z"/>
    <path class="st27" d="M316.193,100.194c-.032-8.114.915-22.594,5.934-29.409,1.193-.931,3.013-2.177,5.432-3.205,2.259-.96,4.638-1.558,9.122-1.984,2.053-.195,5.586-.453,12.069-.277,6.555.177,10.604.306,15.955,1.384,3.488.702,6.304,1.561,8.192,2.201,1.623,1.213,3.772,3.179,5.243,6.143.994,2.003,1.084,3.263,1.809,9.409,1.074,9.103,1.512,11.723,2.652,14.861.727,2.001,1.507,3.572,2.044,4.575-.084.096-.168.193-.252.289-2.4.815-7.319-1.254-9.738-2.115-3.074-7.062-15.648-6.033-21.501-3.73-2.994,1.408-2.336,4.092-4.573,5.744-1.834,1.354-7.306,1.122-9.455.628-2.449-.562-2.216-2.681-3.41-4.485-.975-.804-4.431-3.455-9.59-3.518-5.366-.066-8.983,2.711-9.933,3.49Z"/>
    <path class="st27" d="M392.971,107.945c16.221-9.501,10.278,34.43-4.331,29.373-1.198-16.197-10.319,6.509-14.95,10.5-.656-13.485-12.879-11.37-22.698-11.798-6.213,4.592-18.5,5.365-20.353-4.002.984.335,1.523-.349,2.071-1.065-.451-5.244,4.747-10.703,6.5-16.238.91-5.379,1.369-6.648,7.113-5.733-.105,1.532-.107,4.604,1.443,7.982.493,1.074,1.664,3.553,4.279,5.613,3.229,2.544,6.669,2.882,9.04,3.114,2.447.24,6.371.625,10.556-1.612,3.78-2.021,5.724-5.087,6.523-6.578,2.536-4.735,1.921-9.258,1.668-10.682,7.476-.506,7.197,5.448,7.14,11.225,2.243-3.231,3.588-7.035,6.001-10.098h-.002Z"/>
    <g>
      <polygon class="st5" points="348.027 135.635 348.028 135.635 348.027 135.634 348.027 135.635"/>
      <path class="st5" d="M352.39,132.969c-1.167.07-3.311,1.981-4.362,2.666-.024,0-.047,0-.071,0-5.483,2.82-11.108,2.312-13.676-.721-.521-.615-1.441-1.953-1.593-4.331-.651.267-1.302.533-1.954.8-.005.921.125,2.694,1.262,4.351,1.486,2.165,3.774,2.793,5.573,3.259,3.655.947,10.279,1.219,13.423-2.972.85-1.134,1.221-2.293,1.398-3.051Z"/>
    </g>
    <path class="st6" d="M383.959,164.527c14.702,10.818,3.463,31.747-4.137,43.838-20.051-8.829-10.134-7.595-31.755-.825,1.99-2.934,11.252-8.267,14.504-10.627,9.531-7.978,22.277-18.788,21.387-32.385h.001Z"/>
    <path class="st27" d="M356.081,122.737c-.868-.445-4.484-2.425-6.182-6.904-1.78-4.697-.168-8.759.191-9.607,6.886-5.685,18.601-2.524,26.584-.674,1.222,6.428-.41,12.632-4.58,15.725-2.884,2.139-6.564,2.479-7.772,2.591-3.679.34-6.624-.521-8.241-1.13Z"/>
    <path class="st15" d="M361.667,107.844c5.813-.284,5.309,8.082,1.972,10.92-5.547-.285-5.264-7.967-1.973-10.921h.001Z"/>
    <path class="st27" d="M314.107,123.773c5.433,2.878,11.198,2.567,17.081,1.726-.498,3.487-1.054,7.048.808,10.234-7.057-.006-10.524,3.297-12.456,10.013-1.536,4.945-1.968,6.184-2.015,6.17-.001,0-.005-.009-.013-.025-.059-.131-.083-.243-.084-.245-.029-.138-.523-1.565-.85-2.673-.871-2.951-1.516-6.441-1.516-6.441-.247-1.339-.512-2.994-.725-4.907-.201-2.145-.341-4.458-.382-6.919-.041-2.463.021-4.781.151-6.933Z"/>
    <path class="st2" d="M353.153,98.335c4.994-2.296,14.499-2.341,19.26.668.108,1.105,1.115,1.668,1.139,2.91-7.781.336-14.971-1.574-23.842,1.003.25-1.218,2.057-3.822,3.443-4.581Z"/>
    <path class="st27" d="M335.77,179.098c18.112,7.191,36.149-4.854,46.248-19.926,4.084,22.668-22.104,36.181-36.484,47.791-6.927-9.559-8.915-16.089-9.764-27.865Z"/>
    <path class="st27" d="M316.1,102.921c7.003.079,16.338-.732,21.756,4.322-.306,10.693-3.846,18.46-15.907,16.546-2.077-.186-5.092-.613-6.429-2.424-1.501-2.032.012-15.471.579-18.444h0Z"/>
    <path class="st15" d="M327.916,107.529c5.481-.442,5.077,7.684,1.929,10.32-5.558.719-5.096-7.724-1.928-10.32h-.001,0Z"/>
    <path class="st2" d="M385.998,107.648c.626-.071,1.498-.101,2.513.077.89.156,1.615.425,2.145.667-.499,1.175-.995,2.37-1.488,3.583-.537,1.319-1.055,2.625-1.556,3.917.118-1.03.173-2.537-.18-4.303-.342-1.711-.944-3.046-1.433-3.941Z"/>
    <path class="st7" d="M302.902,353.311c31.783,10.728,64.548,10.886,96.882,2.914-2.884,4.081-6.082,8.184-8.372,12.633-3.477,6.802-12.978,41.701,4.756,23.652-.678,5.9-3.64,11.486-2.316,17.445l.362-.341c2.977,6.669,6.24-2.391,9.383-3.51-.503,2.234-3.374,4.672-1.915,6.874,4.705.774,7.084-4.149,8.61-7.794.553.084,1.063.191,1.621.083-.737,1.456-1.69,2.893-1.76,4.554l.404.435c3.595-1.283,4.996-5.508,6.431-8.698.428.547.899,1.091,1.266,1.68l-.273,1.808.344.336.686-.223.693,1.065c-12.682,2.335,1.644,24.893-13.9,25.797.79,12.546,3.199,25.064,1.891,37.685-.503,7.284-4.21,33.556-2.962,38.48,3.433,7.475,5.789,17.418,4.55,25.741-4.219,12.116-15.585,22.466-28.924,22.46-8.12.211-23.305-.098-23.253-11.154-.071-9.913,7.775-14.725,12.558-22.161,3.983-5.255,5.087-12.356,9.428-17.14,1.284-6.823-3.404-23.849-3.805-31.544.63-1.12.066-2.232.991-3.553l-.904-5.454-.202,1.245-.18.018c-2.178-3.584-2.694-10.801-2.732-15.332-1.066-1.759-1.731-12.917-2.046-15.917-16.456-.534-15.057-7.462-17.077-21.033-.313,5.812.453,13.473-6.955,14.6l-1.028,1.558-.518-1.071c-8.494.377-23.956,1.839-31.345-2.392.671,5.535,1.547,11.333,1.682,16.894-1.024,1.852.389,7.28-.639,7.766-.971-1.768-2.459-21.059-2.701-24.585-2.953.088-7.308-1.452-9.091-3.914-3.802-.485.059-23.703-2.466-26.865-1.084-.767-2.098-.357-3.298-.661l.038-.87c2.022-2.29-.413-6.43-.211-9.257,2.158-.669,3.138-2.102,3.677-4.177-.593-.11-.678-.15-1.132-.547.42-4.231-.1-9.16,1.408-13.168,2.006-2.736,2.486-10.663,2.344-14.362h0Z"/>
    <path class="st27" d="M372.188,435.469c6.446,3.3,25.933,0,32.134-3.022,2.179,20.562,2.401,41.055-.637,61.551-1.33,3.754,2.146,26.409-5.586,20.112-.279-10.324-9.378-9.833-17.116-9.744-.799-7.418-1.399-14.901-2.931-22.237l-.177,1.223-.217.071c-.144-.781-.213-1.723-.499-2.459-.059.643.005,1.643-.432,2.093-1.035-2.062-1.292-6.298-1.441-8.673.63-1.12.066-2.232.991-3.553l-.904-5.454-.202,1.245-.18.018c-2.179-3.591-2.693-10.795-2.733-15.332.579-.42.946-1.134,1.339-1.732-.551-4.691-1.193-9.387-1.408-14.109v.002h-.001Z"/>
    <path class="st29" d="M372.257,451.31c.579-.42.946-1.134,1.339-1.732.218,5.669,1.676,11.431,1.574,17.046l-.18.018c-2.179-3.591-2.693-10.795-2.733-15.332Z"/>
    <path class="st26" d="M376.275,470.834c.507,4.102,2.044,8.397,1.599,12.52l-.217.071c-.144-.781-.213-1.723-.499-2.459-.059.643.005,1.643-.432,2.093-1.035-2.062-1.292-6.298-1.441-8.673.63-1.12.066-2.232.991-3.553h0Z"/>
    <path class="st2" d="M378.636,506.166l.264,1.049c5.597-.597,10.734-4.214,17.144,3.066.31,1.027.762,1.879.503,2.933-.571.321-.874.254-1.501.187-.602,1.433-1.105,2.419-2.26,3.486-.254-.007-.877.33-1.099.446-.412.92-.939,1.581-1.861,2.031l-2.221-1.491-.471.103-.103.705.823,1-.056.281-.744.701c.875,1.192,1.69,2.468,2.888,3.365l.451-.21c.033-.973-.033-1.915-.11-2.883.646-.713,2.546.966,5.421.63.673-.536.801-.585,1.067-1.442-1.29.243-2.557-.762-2.878-1.977.554-1.205,1.495-3.178,2.695-3.754.264.696.543,1.192.993,1.785.854.333,1.373.252,2.244-.009,4.404,2.338,4.104-2.049,5.498-4.588l.327.446c2.937,20.244,6.128,24.162-11.55,38.859-6.42,5.813-36.476,6.591-35.018-5.776,16.637,6.068,40.343,4.12,48.512-14.355-1.073-.201-1.822,1.41-2.346,2.232-3.778,5.914-9.001,10.427-15.703,12.721-6.853,2.326-25.914,3.06-30.521-2.789.433.228.864.464,1.292.705-2.721-5.192,3.06-9.946,5.863-13.814,3.847-5.532,12.213-14.476,10.789-21.366.617-.616,1.148-1.562,1.668-2.276h0Z"/>
    <path class="st26" d="M391.688,517.334c-4.514-2.72-8.357-6.275-14.339-3.214,2.572-4.852,12.811-1.158,15.082,2.839l-.743.375Z"/>
    <path class="st26" d="M387.054,520.664c-3.093.388-4.141-2.401-10.093-.754l-.186-.348c3.572-2.471,7.359-.996,11.023.401l-.744.701h0Z"/>
    <path class="st26" d="M374.965,522.048c4.319,1.129,9.269.692,12.991,3.812l.021.487c-2.006.798-4.252-1.201-5.787-2.303-8.132-.279-6.397.009-13.135,3.687,2.004-1.68,3.319-4.443,5.91-5.682h0Z"/>
    <path class="st5" d="M300.557,367.672c1.584-1.224,1.985-8.57,2.397-10.879.342,8.298-2.186,63.93.951,66.013,6.312,4.986,30.593,6.003,38.873,5.115,17.1.532,5.152-35.907,4.677-46.055-3.961-1.24-10.721-3.002-13.329-6.27l.136-.242c1.617.061,12.442,4.172,14.665,4.944,1.922,10.984,4.148,21.955,5.98,32.942.808,4.3.635,13.182,2.789,16.569,12.918,8.011,40.199,5.663,52.745-1.494,2.932-3.185,1.725-12.248,2.2-16.498l-.34-.312c-.631.402-1.152.665-1.872.875-3.551-1.214-4.26,2.839-7.782,2.87-1.089-.353-1.693-1.299-2.399-2.151-7.496.168-8.35.561-6.943-7.695.214,1.516.413,3.026.544,4.552l.362-.341c2.977,6.669,6.24-2.391,9.383-3.51-.503,2.234-3.374,4.672-1.915,6.874,4.705.774,7.084-4.149,8.61-7.794.553.084,1.063.191,1.621.083-.737,1.456-1.69,2.893-1.76,4.554l.404.435c3.595-1.283,4.996-5.508,6.431-8.698.428.547.899,1.091,1.266,1.68l-.273,1.808.344.336.686-.223.693,1.065c-12.682,2.335,1.644,24.893-13.9,25.797.79,12.546,3.199,25.064,1.891,37.685-.503,7.284-4.21,33.556-2.962,38.48,3.432,7.475,5.789,17.418,4.55,25.741-4.218,12.116-15.585,22.466-28.924,22.46-8.12.211-23.305-.097-23.253-11.154-.071-9.913,7.775-14.725,12.558-22.161,2.988-4.646,5.149-9.556,7.307-14.627,1.428,6.881-6.945,15.841-10.788,21.366-2.806,3.869-8.584,8.622-5.864,13.814-.428-.241-.859-.478-1.292-.705,4.566,5.843,23.681,5.116,30.521,2.79,6.702-2.295,11.925-6.808,15.703-12.722.523-.821,1.272-2.433,2.346-2.232-8.176,18.481-31.872,20.418-48.512,14.355-1.488,12.37,28.63,11.578,35.019,5.777,17.689-14.706,14.481-18.634,11.549-38.86l-.327-.446c-1.393,2.541-1.098,6.927-5.498,4.588-.872.261-1.39.342-2.244.009-.45-.594-.729-1.089-.993-1.785-1.201.576-2.141,2.549-2.695,3.754.322,1.216,1.587,2.22,2.878,1.977-.266.857-.395.906-1.067,1.442-2.881.337-4.769-1.341-5.421-.63.077.969.143,1.91.11,2.883l-.451.21c-1.197-.897-2.012-2.174-2.888-3.365l.744-.701.056-.281-.823-1,.103-.705.471-.103,2.221,1.491c.923-.451,1.448-1.11,1.861-2.031.225-.117.842-.451,1.099-.446,1.155-1.067,1.658-2.053,2.26-3.486.627.067.93.134,1.501-.187.258-1.053-.194-1.906-.503-2.933-6.41-7.287-11.574-3.655-17.144-3.066l-.264-1.049.453-.237c1.168-2.058-1.959-19.322-2.364-22.871.437-.451.373-1.451.432-2.093.286.736.356,1.678.499,2.459l.217-.071.177-1.223c1.531,7.337,2.132,14.817,2.931,22.237,7.734-.093,16.844-.572,17.116,9.744,7.722,6.318,4.262-16.376,5.589-20.112,3.037-20.495,2.814-40.992.634-61.551-6.206,3.022-25.657,6.322-32.134,3.022.215,4.722.857,9.418,1.408,14.109-.393.598-.76,1.312-1.339,1.732-1.065-1.759-1.73-12.917-2.045-15.917-16.456-.534-15.057-7.462-17.077-21.033-.313,5.812.453,13.473-6.955,14.6l-1.028,1.558-.518-1.071c-8.494.377-23.956,1.839-31.345-2.392.671,5.535,1.547,11.333,1.682,16.894-1.024,1.852.389,7.28-.639,7.766-.971-1.768-2.459-21.059-2.701-24.585-2.953.088-7.308-1.452-9.091-3.914-3.802-.485.059-23.703-2.466-26.865-1.084-.767-2.098-.357-3.298-.661l.038-.87c2.022-2.29-.413-6.43-.211-9.257,2.158-.669,3.138-2.102,3.677-4.177-.593-.11-.678-.15-1.132-.547.422-4.231-.103-9.165,1.411-13.171h0Z"/>
    <path class="st27" d="M300.282,381.387l.484-.454c.523,3.267.529,9.467-.07,12.714l-.377.322c-1.544-1.984-1.625-7.45-3.689-8.285l-.025-.12c2.158-.669,3.138-2.102,3.677-4.177h0Z"/>
    <path class="st5" d="M387.813,167.875l.498-.474c3.511,1.622,3.947,5.829,4.957,9.16,18.239,9.042,32.443,17.179,39.27,37.445,2.036,6.046,15.72,49.687,14.016,53.406-1.575,3.428-6.755,5.349-10.002,6.731-.198,27.378-6.919,53.665-11.967,80.303.064,14.137,3.523,39.695-4.881,51.776l-.693-1.065-.686.223-.344-.336.273-1.808c-.367-.588-.838-1.132-1.266-1.68-1.434,3.189-2.836,7.416-6.431,8.698l-.404-.435c.07-1.661,1.023-3.098,1.76-4.554-.558.108-1.068.001-1.621-.083-1.524,3.643-3.907,8.57-8.61,7.794-1.457-2.204,1.41-4.64,1.915-6.874-3.133,1.112-6.413,10.182-9.383,3.51l-.362.341c-1.324-5.959,1.638-11.545,2.316-17.445-17.739,18.051-8.226-16.861-4.756-23.652,2.29-4.45,5.488-8.552,8.372-12.633-32.327,7.972-65.105,7.813-96.882-2.914-1.117-1.41-2.933-1.583-3.878-3.248.179-26.286,2.791-52.563,2.24-78.901l-5.406-.607c-.993-.834-1.492-1.099-1.874-2.376,2.402.663,4.872.989,7.35,1.177.009-9.005.483-41.718,2.677-48.513l.233.197.654-.207c-.867,25.675-2.26,51.657-1.963,77.476-.345,13.364-2.525,38.102-1.902,51.199,29.158,13.773,67.871,12.798,98.743,4.504,4.642-25.204,4.015-51.211,3.535-76.754-8.542.435-7.29-6.455-7.18-12.593.174-9.905-1.936-20.678-.084-30.212,1.868,3.331,2.034,33.971,2.387,40.19,13.61,3.272,35.958,2.543,46.11-8.048,1.521-3.538-13.151-50.94-15.734-57.086-6.145-14.623-21.323-24.764-35.534-30.569-2.313,8.542-5.323,27.268-14.169,31.064-3.265-.411-11.064-4.742-13.199-7.49l.725-.498c4.25,2.509,8.546,4.672,13.189,6.349,6.984-10.929,16.212-28.336,7.991-40.489h0Z"/>
    <path class="st15" d="M131.736,120.025c-.397-2.553-1.525-3.637-3.507-5.098l1.73-4.742-.782-.611c-2.698,4.565-4.143,6.966-2.997,12.468.263-.021.527-.042.79-.063.508-1.651.398-3.715,1.2-5.211.726.535,1.124,1.256,1.593,2.005.841.386,1.277,1.07,2.02,1.599-.016-.116-.029-.233-.047-.348h0Z"/>
    <path class="st13" d="M128.243,111.067c-.7-12.766,2.455-34.277-15.238-36.125,3.035-1.988,5.022-6.051,2.818-9.383l-.373.102c.658,4.033-.334,7.346-3.943,9.63-1.904.104-3.811.233-5.718.275,3.456-2.465,3.463-7.514,1.079-10.744-.312,5.943,2.869,5.907-2.465,11.133-27.29-2.653-52.349-9.33-45.072,28.914.49,8.827-1.44,19.199,3.014,27.269l-1.352-28.215c-.068-8.091-3.544-18.999,3.594-24.972,14.332-7.658,35.124.29,50.684-1.757,15.13,5.419,10.38,25.638,10.655,38.29l2.52-4.585c-.061.059-.129.115-.206.169h.003Z"/>
    <path class="st27" d="M393.499,392.923c-1.261,1.407-2.761,3.263-4.852,2.766-4.212-5.098,3.26-23.412,5.882-28.997,4.865-7.194,7.879-9.334,8.132-18.273,3.666-5.187,6.322.91,10.046,1.422,3.458-.029,4.811-5.687,7.636-5.041,5.169,3.367,3.199,4.526,2.701,12.174.667,15.787,2.611,33.182-4.036,48.185l-.686.223-.344-.336.273-1.808c-.367-.588-.838-1.132-1.266-1.68-1.434,3.189-2.836,7.416-6.431,8.698l-.404-.435c.07-1.661,1.023-3.098,1.76-4.554-.558.108-1.068.001-1.621-.083-1.524,3.643-3.907,8.57-8.61,7.794-1.457-2.204,1.41-4.64,1.915-6.874-3.133,1.112-6.413,10.181-9.383,3.51l-.362.341c-1.324-5.959,1.638-11.545,2.316-17.445-1.025.291-1.813,1.746-2.431,2.583-.078-.723-.157-1.446-.235-2.169h0Z"/>
    <path class="st26" d="M396.167,392.51c1.026-.488.873-3.255,1.4-4.351l.32.536c-.4,7.562-2.536,13.63-3.674,20.919l-.362.341c-1.324-5.959,1.638-11.545,2.316-17.445h0Z"/>
    <path class="st26" d="M401.229,407.846c3.041-5.905,3.74-12.821,5.992-18.935.117.169.247.329.374.49l-.264.208c-.385,5.665-1.346,11.301-3.736,16.494-1.207.328-1.417,1.108-2.366,1.743h0Z"/>
    <path class="st26" d="M410.291,405.184c1.704-6.012,2.109-13.241,4.833-18.805-.294,6.239-1.621,12.841-3.212,18.888-.558.108-1.068.001-1.621-.083Z"/>
    <path class="st15" d="M393.499,392.923c2.703-4.167,3.622-9.272,4.79-14.014.264,3.167.157,6.65-.401,9.786l-.32-.536c-.803,5.256-1.315,3.247-3.831,6.934l-.238-2.171h0Z"/>
    <path class="st29" d="M416.986,401.557c.85-2.239,2.254-13.794,3.128-13.644.851,3.767-.867,11.527-1.862,15.323-.367-.588-.838-1.132-1.266-1.68h0Z"/>
    <path class="st27" d="M434.046,275.016l.497.162c-.567,24.991-3.948,52.095-12.219,75.511-4.994,2.271-14.672-.358-19.662-2.27,2.14-23.448,3.3-46.936,2.399-70.481,10.036.261,19.293-.152,28.985-2.922h0Z"/>
    <path class="st5" d="M341.325,213.252l1.108.692c-3.59,8.498-1.731,18.083-4.106,25.788-.816-8.02.251-18.888,2.997-26.48h0Z"/>
    <path class="st5" d="M344.355,231.641c3.122.713,3.632,4.386,1.088,6.166-3.749-.227-4.513-4.671-1.088-6.167h0Z"/>
    <path class="st6" d="M344.339,232.876c.946.317,1.294.596,1.8,1.448-.024,1.165-.508,1.677-1.195,2.547-.871-.117-1.376-.452-1.755-1.239.024-1.14.557-1.83,1.15-2.757h0Z"/>
    <path class="st21" d="M93.693,259.271c-.713-15.364.103-30.967-.616-46.196-6.357-10.849-30.311-21.4-31.117-36.725,1.453,5.717,4.287,11.024,9.668,13.883-11.279-13.303-5.794-9.656-7.707-24.269-2.266,2.031.118,6.709-5.494,8.605-2.722,3.425-3.806,9.168-5.008,13.334-35.849,14.596-42.293,38.059-46.055,73.835-1.196,6.042-3.407,14.292,4.419,16.603,9.831,15.691,19.662,31.383,29.493,47.074,3.965,1.497,9.529,3.291,16.364,4.528,6.417,1.162,11.335,1.358,16.698,1.572,4.763.19,11.011.243,18.367-.236,1.223-23.946.886-48.03.989-72.012,0,.001,0,.003,0,.004ZM21.412,355.03l20.536-4.134s-20.536,4.134-20.536,4.134Z"/>
    <path class="st20" d="M12.004,291.833c.521-3.996-.198-8.311.583-12.258l.626-.251c.491,15.474.827,31.079,3.16,46.443-.668,1.224-.92,2.138-1.072,3.516-2.076-11.42-3.533-25.839-3.296-37.45h-.001Z"/>
    <path class="st5" d="M77.736,203.325c-4.659,2.943-6.714,6.361-12.319,8.744-9.828-10.25-14.039-28.386-3.241-39.521-.892,7.048,3.327,14.243,9.453,17.685-11.279-13.303-5.794-9.656-7.707-24.269-2.266,2.031.118,6.709-5.494,8.605-2.722,3.425-3.806,9.168-5.008,13.334-35.849,14.596-42.293,38.059-46.055,73.835-1.196,6.042-3.407,14.292,4.419,16.603-.038,4.379-.41,9.165.22,13.491.521-3.996-.198-8.311.583-12.258,1.998-1.148,6.669.967,9.012,1.379,5.666,1.106,12.073,1.338,17.84,1.068-1.264,22.936-1.061,46.146,2.51,68.876.573.51,1.152,1.115,1.79,1.54-.02-.799-1.118-5.239-.402-5.879l1.062.46c-.189-2.619-.236-5.677.039-9.073.25-3.087.717-5.85,1.252-8.23.056-.32.112-.641.168-.961.14-.198.34-.441.615-.681.245-.213.482-.365.679-.473-1.982-.673-3.927-1.422-5.875-2.185-1.399-13.163.487-30.885-.406-43.479,2.41-.4,5.378-.674,6.48-3.238,1.685-8.743,1.684-28.233.394-37.455l-.248.11c-1.403,12.575.493,25.475-1.428,37.995-8.513,2-32.75.968-38.142-6.443-.503-12.175,6.045-44.604,12.386-56.832,6.897-12.854,20.334-20.407,33.352-25.961,3.366,14.125,8.45,34.77,23.712,15.327,3.973,2.753,7.715,4.477,12.305,5.88-1.712-1.333-3.579-2.697-5.603-4.06-2.193-1.476-4.318-2.781-6.342-3.935Z"/>
    <path class="st2" d="M42.279,341.85c-.266-1.211-.505-2.521-.696-3.921-.152-1.117-.259-2.185-.331-3.197-.104-1.137-.182-2.333-.225-3.584-.054-1.572-.047-3.063.004-4.464l3.721,1.791c-.354,2.415-.682,4.9-.976,7.45-.237,2.057-.444,4.076-.622,6.055-.292-.043-.583-.087-.875-.13Z"/>
    <path class="st5" d="M45.857,328.624c.368-.423.836-.704,1.292-1.024,1.761.573,3.649,1.12,5.661,1.612,3.371.825,6.53,1.363,9.404,1.706-1.816.22-3.632.441-5.448.661-1.441-.202-3.012-.493-4.68-.909-2.358-.589-4.442-1.312-6.229-2.046Z"/>
    <path class="st22" d="M126.012,342.779c.07-.041.131-.079.187-.114-.086-.158-.164-.318-.233-.477l.046.592h0Z"/>
    <path class="st22" d="M135.306,407.053l-.14-2.231-.576-.323c-.163.314-.334.613-.45.947l-.323-.444c-2.235.081-3.474.071-5.233-1.389.047-4.447.006-9.007-.361-13.449l-1.504-.728c2.12-.775,3.673-1.618,5.333-3.167-1.785-12.382-.098-25.128-.975-37.584-1.257-2.018-3.763-3.975-4.879-6.02-.056.035-.117.074-.187.114-.01-.074-.03-.631-.085-.682l.028-.055c0,.227.147.418.244.622.206-.129.352-.217.654-.222,1.568,1.685,3.131,3.324,4.419,5.241l-.041-10.357c-1.911,1.35-3.901,2.489-5.938,3.631-.226-4.256-.056-8.602-.078-12.869-1.711.657-4.747.359-5.392,2.394.058,3.687.05,7.375-.022,11.062-7.052,3.264-16.297,5.651-24.098,5.81.075,6.749.494,20.001-.912,26.141-.615-8.39-.887-16.829-.713-25.571-7.628-.569-15.275-1.625-22.953-1.913.224-4.226.268-8.476.38-12.707-2.251-.386-4.581-.362-6.86-.437.038,3.868.447,8.223-.445,12.01-.814.952-1.311-.197-2.246.619-.594,1.882-2.084,5.651-5.738,8.734-1.67,1.409-3.34,2.293-4.672,2.853,1.983-1.619,4.338-3.881,6.548-6.925,1.247-1.718,2.224-3.378,2.992-4.881l-4.327-1.419.008-.566c-.091-.54-4.382-1.037-4.785-1.166.401-3.673.635-7.797.107-11.456-1.153-.41-2.365-.81-3.634-1.19-.885-.265-1.75-.506-2.595-.726-.485,2.784-.931,5.669-1.325,8.651-.25,1.89-.469,3.746-.661,5.567-.775-.107-1.551-.215-2.326-.322.453,2.262.906,4.523,1.359,6.785.672,1.331,1.769,3.333,3.39,5.593,2.185,3.049,3.429,3.928,4.796,6.276.892,1.533,1.954,3.89,2.398,7.272,1.391,3.285,2.221,6.124,2.729,8.186,1.678,6.813.937,9.585.62,10.583-.416,1.312-.973,2.312-1.364,2.935-.877-.004-2.577-.138-4.341-1.158-2.973-1.719-3.894-4.665-4.093-5.366,1.116,5.234,2.232,10.468,3.349,15.702.091.767.145,2.081-.331,3.597-.354,1.127-.876,1.972-1.282,2.522-.943-.097-1.911-.204-3.018-.331-.44-.05-.892-.108-1.364-.413-.519-.337-.802-.806-.951-1.116.038.339.055.813-.041,1.364-.106.609-.311,1.086-.478,1.406-.633.145-2.482.482-4.524-.413-2.544-1.116-3.548-3.337-3.762-3.845.025.112.183.867-.289,1.406-.397.453-.994.471-1.212.478-.399.012-1.533-.072-3.17-2.173-1.921-2.464-2.953-5.333-2.853-4.92.217.898-.152,1.74-.785,2.026-.494.223-.999.04-1.146-.019-.234.301-.469.603-.703.904.024,8.869.047,17.738.071,26.607.184,3.666.279,6.522.331,8.31.119,4.107.11,6.173,1.364,8.558.712,1.354,1.572,2.318,2.187,2.92.612.605,1.723,1.596,3.407,2.225,1.411.527,2.934.801,4.073.707l-.458,5.12c.571-.148.756-.451,1.161-.843l.267.428c.553-1.308.586-3.008.749-4.423,5.246,3.508,23.695,4.958,30.077,3.147-.348,3.035-1.051,6.356-1.058,9.391.537.411.858.723,1.237,1.285.608-3.553,1.12-7.119,1.535-10.694,14.725.37,16.711-7.018,16.361-20.103l.424-.187c.648,3.192-.13,8.896,2.76,10.891,1.086.749,2.363.709,2.363.709.449.036.787.009.86.004,3.801-.268,10.645,1.626,10.645,1.626,8.304,2.298,18.968-.05,20.222-.336,4.425-1.01,9.321-2.099,10.845-6.018.584-1.502.748-3.239.344-5.16.726-3.871,1.321-8.403,1.521-13.48.2-5.079-.038-9.644-.458-13.561Z"/>
    <path class="st27" d="M92.593,443.981c5.68,3.574,22.443,4.33,28.802,1.665-1.604,10.547-2.663,21.358-4.796,31.793.928,2.098-.832,4.013.635,5.972-.35,5.928-1.118,15.463-3.111,21.174-1.127,2.232-4.327,7.769-10.739,10.207-1.474.56-2.883.868-4.154,1.024-1.605-.161-3.923-.652-5.942-2.28-3.915-3.158-4.214-8.589-4.413-13.478-.626-15.339-.939-23.008-.788-25.632.401-6.955,1.095-15.897,2.374-26.338.314.464.537.861.998,1.187.759-1.527,1.003-3.598,1.135-5.294h-.001Z"/>
    <path class="st22" d="M126.72,389.435l1.504.728c.367,4.442.408,9.002.361,13.449,1.759,1.46,2.999,1.47,5.233,1.389l.323.444c.116-.334.287-.633.45-.947l.576.323c1.117,9.568.923,19.781-.916,29.273l-.419.246c-.142-1.026-.256-2.047-.279-3.08-3.916,1.792-6.365,2.036-6.387-3.192-.283-12.836.353-25.781-.446-38.633h0Z"/>
    <polygon class="st29" points="23.761 396.563 23.762 396.566 23.762 396.563 23.761 396.563"/>
    <polygon class="st29" points="23.76 396.563 23.761 396.563 23.76 396.562 23.76 396.563"/>
    <path class="st5" d="M134.251,434.094l-.419.246c-.142-.938-.217-1.866-.279-2.808.302,11.629-7.038,12.709-16.817,13.663-6.382.527-21.962.263-27.044-3.901-4.652-16.503-.243-35.485,1.492-52.526,3.575-1.03,12.664-2.851,15.119-4.874-5.57-.856-11.369,2.518-16.886,3.449-.791,7.463-1.575,14.943-2.351,22.442-.776,7.499-1.54,14.982-2.293,22.45-1.041,4.367-.133,12.932-3.607,15.806-13.663,6.723-38.19,3.77-51.676-2.694,0,0-.001,0-.002,0-4.123-.59-4.181-5.568-4.027-8.824-.037-.052-.064-.116-.096-.174.118.187.262.354.458.469,12.432,7.344,23.772,8.402,27.883,3.639.841-.974,1.817-2.698,1.833-5.835.014-.699.028-1.399.043-2.098-.002-.005-.005-.01-.007-.016.618-12.046,1.05-24.148.952-36.209-2.372-.458-4.744-.917-7.116-1.375.117.54.234,1.081.351,1.621,2.026.324,4.052.649,6.078.973-.09,4.368-.289,8.736-.497,13.104-5.578,4.003-12.623,3.2-18.879,1.297-6.047-.635-10.221-5.398-11.029-11.249,0,0,0-.002,0-.003l-.253-1.643c-.473-.82-.947-1.639-1.42-2.459.508,7.349-3.771,50.427,4.616,49.76,1.666,1.926,5.185,3.077,7.537,2.93l-.458,5.12c.572-.148.756-.45,1.161-.843l.267.428c.553-1.307.586-3.008.749-4.423,5.22,3.505,23.72,4.96,30.077,3.147-.348,3.035-1.051,6.356-1.058,9.391.537.41.858.723,1.237,1.285.608-3.552,1.119-7.119,1.535-10.694,14.708.367,16.713-6.992,16.361-20.103l.424-.187c.785,3.865-.522,11.41,5.123,11.6-.142.684-.281,1.371-.416,2.06-3.628,18.519-4.822,39.696-1.569,63.544.443-.314.885-.627,1.328-.941-.214-1.207-.429-2.414-.643-3.621-.274-3.408-.67-8.452-1.116-14.635-.438-6.071-.494-7.266-.526-8.61-.137-5.776.302-10.009.865-15.958.634-6.698,1.477-12.332,2.202-16.541.758-1.527,1.003-3.598,1.135-5.294,5.679,3.576,22.462,4.328,28.802,1.665-1.708,10.32-3.314,20.921-4.796,31.793-1.301,9.544-2.453,18.91-3.47,28.09.344-.193.689-.386,1.034-.579.393-1.435.766-2.964,1.101-4.583.381-1.84.673-3.595.894-5.248.138-1.297.352-3.274.634-5.678,1.098-9.377,2.094-15.683,3.348-24.05.699-4.662,1.716-11.549,2.922-20.12,6.51.452,12.672-4.136,11.19-11.177ZM24.776,419.406c.143-3.899.267-8.989.325-16.122,0,0,0-.001,0-.002l.218-.003c1.093,3.275,1.848,5.538,4.098,8.283.971,8.213.189,16.68,1.917,24.768.712-1.441-.497-21.032-.433-24.531,1.376.585,2.761,1.241,4.202,1.643h-.001c7.086,2.295,13.224,2.215,20.139-.632-.282,5.893-.54,11.785-.56,17.678l-.013-.03c-.019,1.484-.003,2.756.023,3.782.004.144.006.227.008.29.001.062,0,.124,0,.186-.034,1.728-.768,2.982-1.171,3.653,0,0-.704,1.171-1.654,2.026-3.131,2.818-11.944.689-12.94.44-3.254-.813-8.038-2.415-13.312-5.816-.031-.309-.062-.618-.093-.927-.137-.862-.324-2.143-.485-3.702-.513-4.941-.354-8.626-.268-10.983ZM27.833,445.557s.001,0,.002,0c.127.234.287.456.465.672-.273-.193-.327-.264-.467-.672Z"/>
    <path class="st5" d="M51.212,330.365c.292.102.584.205.876.307.528,3.66.294,7.783-.107,11.456.791.169,1.626.326,2.503.464.83.131,1.63.235,2.397.316.013.334.025.669.038,1.003-.933-.088-1.992-.242-3.14-.506-1.103-.254-2.086-.562-2.938-.876.044-1.995.096-4.004.158-6.028.063-2.061.134-4.106.214-6.136Z"/>
    <path class="st26" d="M94.154,364.813c.798,4.966,1.197,12.454-.867,17.054-.36-5.522.498-11.508.867-17.054Z"/>
    <path class="st21" d="M109.778,182.86c6.172,7.403,8.363,17.107,9.126,26.511-2.998-2.334-6.15-4.875-9.784-6.124-1.722,1.313-8.361,7.127-8.347,9.177l.711.22c3.021-2.109,5.204-4.983,7.989-7.304,3.393,1.885,6.319,4.599,9.759,6.307,4.18-3.323-1.686-12.549-1.018-17.059,10.266,6.598,20.26,12.423,23.998,24.927,5.239,3.212,4.616,11.322,6.278,16.702l-1.28-.883c.389,11.532,5.953,23.043,6.294,34.876-4.334,2.797-8.88,4.344-14.006,4.913,2.718.483,5.956-.711,8.153-.125-3.245,1.305-6.803,1.969-10.297,2.14-1.773,12.803,3.536,37.086-3.65,46.684l.094-2.594c-6.231,8.116-29.84,9.558-39.79,10.235,2.047-37.095,1.072-74.382.579-111.49,5.772-14.473,13.902-18.083,15.191-37.114h0Z"/>
    <path class="st5" d="M133.796,321.229c4.036-12.798.746-26.953,1.814-40.234-.015-18.556,2.129-37.435.089-55.886,4.04,1.884.921,48.257,2.261,49.919,3.1.611,7.046-.515,9.69-.029-3.245,1.305-6.803,1.969-10.297,2.14-1.773,12.803,3.536,37.086-3.65,46.684l.094-2.594h-.001Z"/>
    <path class="st5" d="M142.212,219.515c5.239,3.212,4.616,11.322,6.278,16.702l-1.28-.883-.345,1.713c-1.308-5.976-2.646-11.737-4.653-17.532Z"/>
    <path class="st5" d="M109.923,233.298c7.578-.497,15.413.209,22.993.62.202,6.323,1.35,31.582-.15,36.124-5.744,5.974-17.38,4.86-24.158,1.027-.601-12.243-.701-25.451.072-37.591l1.244-.181h-.001Z"/>
    <path class="st21" d="M109.775,234.497c7.25-.265,14.575.631,21.789-.051l.061,22.778c.329,10.478,1.795,14.813-10.735,15.34-4.005.148-11.708.137-11.431-5.575-.283-10.776.587-21.684.317-32.495v.002h0Z"/>
    <path class="st11" d="M81.542,102.639c3.298-.433,11.039.046,9.214,5.081-2.76.784-6.981-.607-10.384.372-2.374.482-4.507,2.935-6.989,2.271.771-4.409,4.117-6.42,8.159-7.723h0Z"/>
    <path class="st11" d="M112.345,102.976c4.96-1.008,11.612,1.82,12.24,7.32l-.332.349c-5.457-3.068-10.652-2.1-14.038-3.604-.772-1.675.7-3.315,2.132-4.064h-.002Z"/>
    <path class="st15" d="M81.426,116.209c5.692-.663,5.752,7.899,2.065,10.447-5.428.181-5.425-7.744-2.065-10.447Z"/>
    <path class="st15" d="M114.264,116.176c5.065.782,4.856,8.882.602,10.694-5.309-.812-4.73-8.582-.603-10.695h0Z"/>
    <g>
      <path class="st15" d="M105.847,126.561l.6-.527c-1.204-2.719-2.271-5.353-2.955-8.262l-.379-.277c-1.713,3.357,1.162,7.926,2.886,10.887l-.152-1.822h0Z"/>
      <path class="st15" d="M106.447,126.034l-.6.527c.103.571-.004,1.557.287,2.065,14.214,15.186-2.899,18.367-14.95,11.898-4.021,3.525-10.528-4.277-18.226,4.432,2.518.846,3.244-1.117,5.257-1.984,3.793-1.633,8.716.054,12.772-1.159,14.037,9.547,32.085.124,15.458-15.78h.002,0Z"/>
    </g>
    <path class="st15" d="M77.579,148.722c31.022,9.418,41.916-7.939,41.13,6.782-.661-1.279-1.485-3.552-2.885-4.022-5.326,13.599-25.026,15.708-34.337,4.906-.879-1.061-2.416-4.632-3.401-5.073-.378.663-.693,1.141-1.272,1.644-.637-1.458.144-2.881.763-4.238h.002Z"/>
    <path class="st17" d="M80.838,151.049c11.824,3.357,20.141,3.279,32.106.545-5.018,12.301-27.523,11.914-32.106-.545Z"/>
    <path class="st2" d="M91.058,167.765c4.224,1.695,8.62,1.559,12.842.258l-.004.517c-3.768,2.69-9.859,3.445-12.839-.775h0Z"/>
    <path class="st27" d="M147.649,274.998c2.69,27.821-2.465,56.498,2.21,84.257.192,1.073.431,2.589.612,4.416.141,1.424.572,6.344-.248,13.229,0,0-.785,6.552-2.425,9.674-.738,1.404-1.511,2.472-2.06,3.167-7.987,10-7.679,2.281-5.623-5.379,1.824-1.534,2.953-2.546,3.557-4.919l1.684-15.585c.402-2.472.352-3.03.225-3.063-.21-.054-.751,1.287-.949,1.822-.166.448-.33.976-.531,1.879-.266,1.197-.392,2.13-.445,2.529-.152,1.146-.34,2.684-.527,4.556-.228,2.411-.457,4.823-.685,7.234-.061.391-.495,1.376-1.296,2.528-.56.806-1.277,1.389-2.235,1.19-1.903-1.924-1.86-6.772-2.162-9.37-.102-1.349-.334-3.506-.935-6.095-.783-3.372-1.791-5.746-1.965-6.18-1.244-3.093-2.084-11.923-.851-35.656,1.202-2.5,3.45-4.27,3.6-7.327,1.605-13.422-.02-27.252.754-40.768,1.502-.06,3.278-.236,5.242-.645,1.96-.407,3.655-.952,5.054-1.494Z"/>
    <path class="st27" d="M63.921,165.964c10.773,13.982,24.508,27.61,43.423,19.435-.444,10.18-5.549,19.856-11.847,27.723-2.723-4.552-20.681-20.145-23.869-22.889-11.281-13.305-5.794-9.655-7.707-24.269Z"/>
    <path class="st27" d="M56.843,143.926c-11.866,1.937-15.992-15.513-13.401-24.388,3.095-9.219,11.496-2.604,12.974,3.857.433,5.772-.656,15.667.429,20.531h-.002Z"/>
    <path class="st2" d="M52.088,330.672c3.75.616,7.44,1.606,11.206,2.142.034,3.512-.129,7.001-.313,10.507-3.472-.102-7.574-.438-11-1.193.401-3.673.635-7.797.107-11.456h0Z"/>
    <path class="st22" d="M132.279,388.909c3.553,7.139,3.791,13.057,1.381,14.693-.442.3-1.847,1.049-5.082-.307.05-2.096.051-4.292-.011-6.58-.062-2.281-.181-4.468-.343-6.553,1.352-.418,2.704-.835,4.056-1.253Z"/>
    <path class="st27" d="M136.149,381.853c.3.019,1.016.109,1.639.648.785.679,1.108,1.799.868,2.912-.304,1.706-.609,3.413-.913,5.119-.065.178-.13.356-.195.534-.432,1.317-.997,2.314-1.979,3.324-.52-.857-1.737-3.121-1.628-6.232.115-3.26,1.617-5.508,2.208-6.305Z"/>
    <path class="st27" d="M127.886,117.12l.284-.352c.726.535,1.124,1.256,1.593,2.005.841.386,1.277,1.07,2.02,1.599.428,2.039.457,4.054.438,6.128-1.044,1.671-1.312,3.584-2.618,4.891-1.797-2.538-1.71-11.011-1.717-14.272h0Z"/>
    <path class="st26" d="M129.713,118.558c.847.384,1.298,1.075,2.045,1.623.914,3.516.706,7.436-1.498,10.448-.09-4.329.57-7.72-.547-12.071h0Z"/>
    <path class="st27" d="M133.399,363.243c1.141,5.904,3.589,13.272.917,18.895l-.472-.071c-1.318-2.408-1.287-16.101-.445-18.824h0Z"/>
    <path class="st7" d="M105.217,332.351c.793-.075,1.147-.208,1.866.162,1.072,2.603.091,8.506.062,11.609-5.518,1.473-11.698,2.035-17.386,1.566-1.089-1.403-.458-9.908-.419-12.15,5.289-.462,10.587-.664,15.877-1.188h0Z"/>
    <path class="st2" d="M72.997,333.326c4.854.295,9.9.699,14.751.352.006,3.845.176,7.682-.526,11.478-3.016.807-10.563-.104-13.962-.248-.135-3.86-.291-7.719-.263-11.582Z"/>
    <path class="st2" d="M118.479,329.995c1.071,3.231.395,6.547.718,9.857-2.154,1.989-7.515,2.739-10.334,3.457.034-3.852.136-7.704.304-11.552,3.173-.302,6.225-.997,9.312-1.762Z"/>
    <path class="st27" d="M313.288,427.056c7.428,4.236,22.813,2.766,31.345,2.392l.518,1.071,1.028-1.558c4.336,23.464-.1,46.368-4.054,69.287.806.522,1.606,1.053,2.398,1.598,2.109,5.598,4.681,20.171,1.698,25.544-1.841,2.549-14.344,6.49-17.785,7.914-13.213,7.138-32.269,12.426-46.254,4.794-10.458-10.836,5.618-20.956,14.099-25.815,8.203-5.083,12.862-13.394,19.136-20.412.721-.004.783.036,1.348-.397,1.152-3.781-.288-10.895-.334-15.091l.449-.058c1.912-2.915.489-7.058.237-10.324-2.466-3.168-2.295-10.042-2.787-14.283,1.027-.487-.385-5.914.639-7.766-.134-5.561-1.011-11.36-1.682-16.894v-.002h0Z"/>
    <path class="st2" d="M316.452,492.722c6.315,1.655,8.426,4.035,11.809,9.147,1.156,6.679,11.391,6.529,13.255.37.758-.192,1.097-1.018,1.991-1.366.269-.491.585-.692,1.017-1.027,2.109,5.601,4.68,20.169,1.698,25.544-1.841,2.549-14.344,6.49-17.785,7.914-6.047,2.5-12.15,6.227-18.653,7.396-8.63,1.013-27.269,3.443-30.609-7.198-1.543-17.362,21.151-18.874,28.268-31.78.205.331.404.68.559,1.031,3.689-.761,5.341-7.664,8.451-10.029v-.002h0Z"/>
    <path class="st26" d="M304.663,506.854c7.874-1.443,12.027,8.462,14.001,1.518-1.661-3.651-7.068-3.055-9.502-4.82,3.923-1.514,7.114,1.348,10.567,2.468-.195-2.338-3.995-4.009-4.673-5.967,2.704.132,3.969,3.073,5.876,4.589,1.337.354,3.448-.887,4.771-1.312l.141.598c-1.471.928-3.383,1.044-4.646,2.223.152.54.331,1.062.328,1.629l-.726.228c-.146.795.086,1.071.4,1.794-.685.009-1.215-.121-1.87-.312-2.542.541-1.108,3.188-1.645,4.664-.66-.121-1.044-.482-1.548-.888-2.074.293-1.708,3.067-2.777,4.481-1.787-.884-2.585-2.933-4.234-3.946-2.374-1.46-5.552-1.884-7.738-3.629-1.118,1.379-2.108,2.567-3.783,3.285,4.239,1.583,9.085,2.146,12.342,5.852-.299.004-.928.089-1.189.004-3.736-2.623-8.076-4.328-12.553-5.239-4.168,4.847-13.018,4.937-15.328,13.913-3.625,15.371,22.285,12.36,31.42,10.616,5.493-1.416,10.585-4.79,15.788-7.022,6.033-3.693,20.143-3.308,17.636-13.203l-.41-.232c-2.416,1.384-10.878,6.455-13.684,4.82-.776.15-1.565.293-2.354.161.096.031,1.016-.308,1.184-.362l-.268.201c4.36.018,12.504-3.293,15.504-6.49.08-5.32-1.022-10.44-2.186-15.6.269-.491.585-.692,1.017-1.027,2.109,5.601,4.68,20.169,1.698,25.544-1.841,2.549-14.344,6.49-17.785,7.914-6.047,2.5-12.15,6.227-18.653,7.396-8.63,1.013-27.269,3.443-30.609-7.198-1.543-17.362,21.151-18.874,28.268-31.78.205.331.404.68.559,1.031l.424-.08c-.882,1.741-2.17,3.066-3.763,4.182v-.004h0Z"/>
    <path class="st2" d="M302.256,508.831c.839-.17,1.792-1.379,2.408-1.977l.27,1.236c4.908.598,6.074.861,10.151,3.714-.467,1.044-.941,2.084-1.422,3.124l-.422.058-.012.286c-3.942-2.799-4.09-3.415-8.88-4.821-1.045-.256-2.012-.349-2.091-1.62h-.002,0Z"/>
    <path class="st15" d="M317.785,473.463c.779,5.803.748,11.855.947,17.711,2.761,3.307,6.553,2.397,10.067,8.61,1.32,7.247,9.168,6.583,12.357,1-.315-2.771-.576-4.949.307-7.7l.191,1.455.262.12.871-1.29c-.096,1.085-.919,4.089-.662,4.879.806.522,1.606,1.053,2.398,1.598-.432.335-.748.536-1.017,1.027-.893.348-1.232,1.174-1.991,1.366-1.865,6.159-12.098,6.308-13.254-.371-3.36-5.094-5.532-7.508-11.81-9.146-3.112,2.366-4.761,9.267-8.451,10.029-.155-.351-.354-.701-.559-1.031,3.156-2.87,4.594-6.981,7.975-9.851.721-.004.783.036,1.348-.397,1.152-3.781-.288-10.895-.334-15.091l.449-.058c.826-.853.796-1.736.903-2.861h.003,0Z"/>
    <path class="st2" d="M342.126,498.248c.806.522,1.606,1.053,2.398,1.598-.432.335-.748.536-1.017,1.027-.893.348-1.232,1.174-1.991,1.366-.038-1.331.56-2.651.609-3.99h0Z"/>
    <path class="st26" d="M345.508,467.12c1.177-.741.276-1.946,1.121-2.91l.523.79c-1.268,9.779-1.809,20.511-5.236,29.66l-.262-.12c.324-9.113,2.493-18.359,3.854-27.42h0Z"/>
    <path class="st26" d="M346.137,440.928l.263-.536c.727,1.138.579,2.464.819,3.754l.534-.455c.231,6.472.733,15.02-.6,21.309l-.523-.79c-.844.964.057,2.169-1.121,2.91.691-8.697,1.042-17.454.628-26.192h0Z"/>
    <path class="st29" d="M314.331,451.716c1.027-.487-.385-5.914.639-7.766.842,7.267,1.874,14.747,2.148,22.05-2.466-3.171-2.295-10.04-2.787-14.284h0Z"/>
    <path class="st26" d="M346.18,428.962c1.418,5.008.509,10.498,1.573,14.729l-.534.455c-.24-1.29-.092-2.616-.819-3.754l-.263.536c-.887-1.678-.883-8.204-.985-10.409l1.028-1.558h0Z"/>
    <path class="st27" d="M37.631,449.538c5.246,3.508,23.695,4.958,30.077,3.147-.348,3.035-1.051,6.356-1.058,9.391.537.411.858.723,1.237,1.285-1.704,18.683-8.077,37.109-8.825,55.847.494.531.862.835,1.521,1.138-.306.33-.582.701-.979.92-6.953-2.625-13.597-2.217-20.36.702-.813.119-1.626.237-2.439.356-.208-.051-.448-.136-.694-.278-.889-.515-1.212-1.413-1.309-1.731.111-3.226.254-8.146.322-14.152.129-11.346-.116-17.302-.151-26.301-.024-6.036.041-14.763.479-25.485.12-.033.259-.078.399-.158.291-.165.469-.402.762-.685l.267.428c.553-1.308.586-3.008.749-4.423,0,0,.001,0,.002-.001Z"/>
    <path class="st5" d="M66.65,462.032c.214.127.499.329.775.636.218.243.367.481.468.673-.286,2.944-.778,7.296-1.633,12.533-1.213,7.428-2.506,12.642-3.143,15.39-1.463,6.307-3.163,15.522-4.054,27.944.494.531.862.835,1.521,1.138-.306.33-.582.701-.979.92-6.953-2.625-13.597-2.217-20.36.702-.601-.276-1.142-.247-1.742-.555,6.112-3.861,13.114-4.316,19.995-3.102.521-7.499,1.407-13.635,2.175-18.059.734-4.227,1.534-7.899,2.019-10.115,1.848-8.44,2.639-10.206,3.576-15.399.519-2.877,1.16-7.227,1.382-12.705Z"/>
    <path class="st5" d="M35.474,454.181c.316-.342.632-.684.947-1.026.223.061.446.121.669.182-.061.211-.121.422-.182.633-.285,2.409-.597,5.297-.888,8.569,0,0-.403,4.523-.657,8.872-.374,6.394-.448,14.228-.212,25.285.144,6.776.418,15.354.959,25.351-.154.007-.487-.002-.794-.215-.439-.305-.642-.903-.515-1.516-.657-10.534-.916-19.456-1.014-26.266-.097-6.651-.172-12.497.165-20.34.341-7.921.963-14.59,1.522-19.529Z"/>
    <path class="st5" d="M103.806,510.264c3.438-1.893,6.877-3.785,10.315-5.678.06-.342.184-.458.28-.503.348-.163.808.375,2.204,1.358.314.221.573.411.923.613.658.38,1.202.578,1.79.858,3.275,1.564,15.78,11.267,23.127,18.359,4.492,4.923,6.084,16.639-1.479,19.156-13.769,10.034-42.42-1.233-54.422-9.867-3.695-8.248-1.241-19.19,2.812-27.011.44.364.88.727,1.32,1.091.157.809.676,2.894,2.514,4.679,2.403,2.334,5.336,2.48,6.036,2.496.77-.785,1.574-1.665,2.386-2.648.83-1.004,1.558-1.981,2.194-2.903Z"/>
    <path class="st22" d="M85.08,525.489c.573.25.654.473,1.003.977,16.457,11.055,43.715,23.922,58.502,7.878.038,3.409-.64,7.732-4.324,9.016l.935.598c-11.761,11.131-43.842-1.124-54.651-9.399-2.073-2.545-1.701-6.022-1.466-9.071h.001Z"/>
    <path class="st26" d="M85.08,525.489c.573.25.654.473,1.003.977-.826,5.346,2.652,9.046,7.471,10.811,13.197,5.74,32.925,14.069,46.707,6.084l.935.598c-11.761,11.131-43.842-1.124-54.651-9.399-2.073-2.545-1.701-6.022-1.466-9.071h.001Z"/>
    <path class="st22" d="M109.508,536.286c-1.972-.451-6.305-.631-5.728-3.521.361-4.048,5.657-14.462,8.992-17.122,8.901-8.951,14.048-1.019,21.892,4.379l-.012.861c-.557.138-.832.116-1.384-.04-7.969,2.992-14.203,9.448-15.355,18.148-2.074.027-5.71-.96-7.271-2.317,1.665-6.423,5.981-14.359,15.062-19.286-7.384,2.541-10.729,2.509-16.195,18.898h-.001Z"/>
    <path class="st22" d="M134.883,521.793c3.965,2.186,8.921,5.37,9.504,10.56-3.392,6.411-18.003,11.816-24.653,5.5,1.622-8.038,8.477-13.489,15.15-16.059h-.001,0Z"/>
    <path class="st22" d="M132.877,538.295c-2.21,3.969-10.528,2.704-13.145-.442l.416-1.553c2.797,3.737,8.686,1.798,12.729,1.995Z"/>
    <path class="st22" d="M107.843,508.911c2.928-2.283,6.009-4.077,9.259-1.938,1.366.793,6.67,3.161,2.631,3.365-8.712,1.797-16.665,16.472-17.059,23.759-1.42-.051-4.596-1.379-5.867-2.79-.144-2.001,4.659-19.235,11.036-22.398,0,0,0,.002,0,.002Z"/>
    <path class="st22" d="M89.348,509.581c1.212,4.389,4.66,7.647,9.376,7.86-2.201,4.2-2.985,9.206-3.661,13.649-11.505-2.826-8.471-12.909-5.716-21.509h.001Z"/>
    <path class="st5" d="M39.245,521.967c6.766-2.919,13.406-3.325,20.36-.701.396-.219.673-.589.979-.92,2.969,4.263,8.356,23.902,9.358,29.754,4.345,15.691-15.422,18.769-26.496,15.429-20.456-3.774-12.275-31.353-8.644-45.214.098.318.42,1.215,1.309,1.73.246.142.485.227.694.278l.697-.911c.6.308,1.14.278,1.742.554h.001Z"/>
    <path class="st22" d="M39.245,521.967c6.766-2.919,13.406-3.325,20.36-.701,1.992,4.981,3.195,10.503,5.387,15.332-8.496-3.925-21.13-3.764-28.701,2.201,12.199-3.78,17.347-6.011,29.089-.86.365,1.75.634,3.986,1.596,5.503-11.28-3.707-23.516-1.872-33.767,3.794-.689-7.191-.357-14.783,1.646-21.755,1.423-.848,3.645-2.013,4.391-3.513h0Z"/>
    <path class="st29" d="M61.527,528.493c.525.474.395.481.465,1.103-4.853-2.716-18.64-2.739-25.976,2.938,6.728-9.757,24.142-5.859,25.511-4.04h0Z"/>
    <path class="st22" d="M33.705,548.726c9.945-5.68,22.077-7.467,33.019-3.574,7.839,16.359-29.218,15.856-33.018,3.574h0Z"/>
    <path class="st22" d="M31.347,547.387c4.473,13.588,28.513,15.204,37.506,5.238,1.044,8.244-6.677,12.389-13.915,12.412-11.078,1.116-25.072-4.511-23.592-17.648v-.002h.001Z"/>
    <path class="st26" d="M315.109,460.246c.566,1.087.917,5.767,2.01,5.753.253,3.264,1.675,7.41-.237,10.324l-.449.058c-.792-2.544-1.198-12.891-1.325-16.135h.001Z"/>
    <path class="st15" d="M373.693,464.022c.904.817.963,1.477,1.296,2.62l.18-.018.202-1.245.904,5.454c-.925,1.321-.361,2.433-.991,3.553-1.081-1.611-1.517-8.266-1.591-10.364h0Z"/>
    <path class="st22" d="M44.23,361.304"/>
    <path class="st3" d="M42.314,350.96c-.011.006-.023.012-.035.018l.175.279-.14-.297Z"/>
    <path class="st1" d="M20.219,352.389h0Z"/>
    <g>
      <path class="st17" d="M165.519,174.091c2.081-.039,2.186,2.815.374,3.145.111.177,1.323,2.24.761,2.204-.294-.047-.967-.01-1.008-.322-.425-1.076-.588-2.104-2.053-1.951-.216.611.181,2.318-.999,1.874-.657.272.457-4.741.339-4.884-.039-.523,2.346.031,2.587-.064v-.002h-.001ZM166.08,175.758c.195-1.109-1.554-.792-2.188-.927l-.19,1.49c.68-.025,2.291.538,2.38-.562h-.002Z"/>
      <path class="st17" d="M168.741,175.768c.582-.172-.303,3.461-.196,3.631.016.355-1.056.247-.954-.096l.423-3.371c-.008-.347.526-.147.727-.164h0ZM169.061,174.418c.214.253.094.706-.207.859-.2.101-.479.07-.633-.103-.217-.245-.117-.696.179-.859.208-.114.505-.08.661.103Z"/>
      <path class="st17" d="M169.624,177.272c.067-2.287,3.828-1.201,3.712-.309-.026.197-.367.428-.592.483-.128.031-.202.004-.233-.01-.116-.052-.164-.166-.177-.202-.045-.068-.436-.654-.926-.629-.536.028-1.126.784-1.009,1.858.081.378.367.679.735.772.402.102.834-.062,1.077-.411.096-.173.19-.195.38-.114,2.198,1.091-4.341,2.865-2.966-1.438Z"/>
      <path class="st17" d="M175.099,174.596c.507-.063-.03,1.501.042,1.715,1.061-.222,2.89.221,2.522,1.695-.26.634.195,2.996-1.007,2.491-.853-.92,1.438-4.006-1.615-3.367l-.353,2.911c.008.365-.521.151-.727.161-.634.187.543-5.264.402-5.426-.004-.361.526-.165.736-.179h0Z"/>
      <path class="st17" d="M180.386,176.683c2.249.043,1.443,2.456,1.328,3.846-.19.741-1.023.452-1.852.449-3.027-.227-1.615-3.508,1.116-2.404.269-1.635-1.236-.958-1.979-.709-1.222-.518.488-1.388,1.386-1.18v-.002h.001ZM180.891,179.32c-1.37-.545-2.663.491-1.031.897.959.196.996-.104,1.03-.896h.001Z"/>
      <path class="st17" d="M185.118,177.142c.36-.012.191.416.186.629-.127.562-1.211-.113-1.465.295l-.345,2.965c.01.379-.515.156-.727.164-.573.134.262-3.378.158-3.569.2-.785,1.436-.48,2.193-.485h0Z"/>
      <path class="st17" d="M185.507,178.882c.112-1.563,1.553-1.766,2.877-1.303.18-.551-.18-2.166.902-1.73.632-.187-.506,5.325-.364,5.493-.179.725-1.31.475-1.946.479-1.808-.114-1.713-1.624-1.47-2.939h.001ZM188.286,178.443c-.763-.286-1.753-.383-1.828.566-.057.731-.469,1.916.708,1.965,1.361.507.866-1.873,1.121-2.532h-.001,0Z"/>
      <path class="st17" d="M163.972,187.696c.232.479-1.234.104-1.179-.138-.399-.892-.658-2.424-1.975-2.241-.147.204-.007,2.322-.56,2.101-.206-.064-.814.011-.725-.344.155-.142.342-5.107.914-4.726,1.302-.189.405,1.512.477,2.162.078.01.363.045.435.055.424-.235,1.903-2.067,2.482-1.827,2.029-.182-1.384,1.802-1.47,2.136.755.317,1.239,2.146,1.6,2.823h.001Z"/>
      <path class="st17" d="M167.439,183.163c3.373.097,2.668,5.991-.657,5.191-.215-.148-2.245-.059-2.097-.556l.595-4.642c-.024-.517,1.92.084,2.16.006h-.001ZM168.552,185.267c.247-1.194-1.416-1.299-2.313-1.383l-.441,3.46c2.152.504,2.699.023,2.754-2.079v.002h0Z"/>
      <path class="st17" d="M174.208,184.001c1.113.33-2.412,4.345-2.512,4.859-.113.173-.191.199-.545.146-.163-.062-.836.007-.56-.342l2.605-3.894c-.21-.149-3.087-.111-2.893-.632.049-.225-.023-.672.355-.583l3.55.446h0Z"/>
      <path class="st17" d="M177.748,184.458c1.636.033,2.081,2.157.747,2.76l-.003.031c1.459.809.494,3.199-1.351,2.683-.219-.163-2.757-.138-2.582-.666l.595-4.88c-.049-.56,2.356.163,2.595.074v-.002h0ZM177.396,187.599l-1.553-.226-.172,1.419,1.553.237c1.056.257,1.211-1.389.172-1.43h0ZM177.353,186.7c1.009.238,1.18-1.32.163-1.356l-1.405-.189-.163,1.346,1.405.198h0Z"/>
      <path class="st17" d="M183.087,185.173c1.636.038,2.082,2.219.747,2.833l-.004.032c1.451.817.509,3.282-1.352,2.751-.223-.167-2.763-.147-2.581-.688l.595-5.009c-.054-.575,2.354.17,2.595.08h0ZM182.735,188.395l-1.553-.235-.172,1.457,1.553.246c1.059.262,1.207-1.425.173-1.467h-.001ZM182.692,187.472c1.013.245,1.178-1.355.163-1.391l-1.405-.197-.163,1.382,1.405.206h0Z"/>
      <path class="st17" d="M185.471,187.496c.247-3.735,6.719-.575,3.99.351-.597-.156-.486-1.193-1.505-1.158-1.739-.382-1.464,1.698-1.652,2.729-.317,1.28,2.009,1.944,2.526.816.114-.188.192-.217.382-.112,2.573,1.588-5.547,3.629-3.739-2.626h-.002Z"/>
    </g>
    <g>
      <path class="st17" d="M65.271,220.989c2.025-.227,2.807,2.448,1.305,3.42v.041c1.893.773,1.045,4.006-1.244,3.723-.299-.166-3.371.381-3.217-.344v-6.495c-.159-.717,2.865-.191,3.156-.344h0ZM65.119,223.953c1.247.126,1.248-1.906,0-1.78h-1.73v1.781h1.73ZM65.302,225.106h-1.912v1.882h1.912c1.297.128,1.278-2.014,0-1.882Z"/>
      <path class="st17" d="M68.402,224.964c-.162-3.299,5.51-2.605,4.684.526.147.874-3.129.262-3.511.435-.372,1.419,1.683,1.841,2.347.85.162-.233.273-.253.516-.122,2.346,1.397-5.052,3.6-4.037-1.69h.001ZM71.912,224.802c.096-1.507-2.695-1.296-2.337.223h2.337v-.223Z"/>
      <path class="st17" d="M76.388,222.779c2.865-.206,1.969,3.359,2.104,5.078.113.471-1.29.468-1.173,0-.09-1.483.682-4.968-2.074-3.874-.195.05-.008,3.76-.071,3.874.111.476-1.281.464-1.174,0v-4.158c.117-.958,1.526-.821,2.388-.921h0Z"/>
      <path class="st17" d="M61.24,239.976c.374.602-1.471.4-1.447.041-.615-1.052-1.065-3.235-2.742-2.762-.151.286.368,3.231-.344,3.065-.291-.044-.988.163-.931-.344.169-.172-.406-7.28.354-6.839.29.045.983-.165.921.344v2.62h.536c.462-.368,1.956-3.196,2.722-2.964.209.034,1.148-.15.809.334l-2.256,2.883c.986.333,1.846,2.785,2.377,3.622h0Z"/>
      <path class="st17" d="M64.786,233.137c.737-.478.181,6.71.344,6.839,0,.253-.091.344-.344.344-.289-.042-.983.164-.921-.344v-5.301c-.338.051-1.717,1.326-1.932.657-.12-.275-.567-.732-.091-.921.638-.302,2.18-1.5,2.944-1.275h0Z"/>
      <path class="st17" d="M69.736,233.137c2.025-.227,2.807,2.448,1.305,3.42v.041c1.893.773,1.045,4.006-1.244,3.723-.299-.166-3.371.381-3.217-.344v-6.495c-.159-.717,2.865-.191,3.156-.344h0ZM69.584,236.102c1.247.126,1.248-1.906,0-1.78h-1.73v1.781h1.73ZM69.766,237.255h-1.912v1.882h1.912c1.297.128,1.278-2.014,0-1.882Z"/>
      <path class="st17" d="M77.531,233.137c.486-.057.329.548.354.84.171.719-3.163.191-3.45.344v1.77c.827.208,3.372-.636,2.964.84.16.707-2.675.198-2.964.344v1.862c.286.149,3.733-.374,3.551.344-.032.284.139.899-.344.84h-4.127c-.762.463-.184-6.693-.354-6.839-.219-.743,4.105-.175,4.37-.344h0Z"/>
      <path class="st17" d="M84.313,233.137c.739-.477.18,6.709.344,6.839.059.529-1.043.428-1.254.172-.577-.882-3.214-4.553-3.309-5.361h-.061c.247.549.244,4.246.223,5.19.059.493-.592.311-.88.344-.759.467-.186-6.696-.354-6.839-.056-.503.641-.307.931-.344.965.615,3.36,4.671,3.641,5.524h.061c-.244-.53-.246-4.239-.223-5.179-.059-.493.592-.311.88-.344v-.002h0Z"/>
    </g>
    <g>
      <path class="st17" d="M369.184,225.604c2.358-.17,2.721,3.166.666,3.673.27.175,1.03,1.971,1.211,2.26.258.461-.525.23-.724.259-1.599-.261-.472-2.82-3.118-2.47-.22.744.423,2.688-.994,2.265-.729.358.155-5.611.009-5.768-.089-.612,2.681-.096,2.95-.221v.002ZM369.951,227.53c.148-1.297-1.819-.85-2.571-.966l-.104,1.763c.78-.063,2.664.493,2.674-.797h.001Z"/>
      <path class="st17" d="M374.027,227.286c2.558-.106,1.824,2.607,1.785,4.19-.173.845-1.137.572-2.08.627-3.496-.1-2.143-3.747,1.103-2.755.143-1.899-1.469-.951-2.308-.655-1.429-.498.461-1.579,1.5-1.407ZM374.788,230.186c-1.667-.511-2.97.741-1.111,1.069,1.091.149,1.131-.164,1.111-1.069Z"/>
      <path class="st17" d="M380.942,227.658c.645-.312-.108,4.707.023,4.855.188,2.167-3.249,2.39-4.099.864-.316-.419.808-.891.981-.471.659.993,2.321.495,2.043-.822-3.319.736-3.151-2.006-2.861-4.295-.032-.412.591-.209.827-.239,1.005,1.021-1.309,4.385,2.088,3.579l.18-3.228c-.032-.413.58-.213.817-.242h.001Z"/>
      <path class="st17" d="M359.99,240.975c.302.534-1.396.191-1.351-.087-.522-.99-.93-2.728-2.419-2.442-.151.238.174,2.655-.473,2.432-.241-.061-.925.057-.85-.352.166-.17-.013-5.845.669-5.446.24.056.919-.085.841.331l-.13,2.107c.089.007.417.031.5.037.769-.617,2.053-2.703,3.288-2.188.877.033-2.157,2.325-2.112,2.482.883.318,1.574,2.375,2.036,3.127h.001Z"/>
      <path class="st17" d="M363.593,235.596c3.825-.132,3.486,6.671-.356,5.957-.257-.155-2.558.071-2.426-.505l.322-5.329c-.066-.587,2.195-.02,2.46-.123h0ZM365.016,237.923c.194-1.373-1.706-1.391-2.737-1.431l-.239,3.972c2.486.441,3.069-.141,2.976-2.541Z"/>
      <path class="st17" d="M371.364,236.12c1.29.296-2.426,5.103-2.502,5.696-.087.352-.803.165-1.127.153-.808.149,2.628-4.776,2.532-4.909-.249-.156-3.522.074-3.341-.532.04-.26-.077-.764.362-.686,0,0,4.075.279,4.076.278h0Z"/>
      <path class="st17" d="M375.417,236.404c2.308-.083,2.765,3.333.666,3.801.27.192,1.03,2.071,1.211,2.375.258.484-.521.214-.724.234-1.606-.346-.471-2.914-3.119-2.676-.231.758.446,2.766-.993,2.28-.727.337.154-5.754.009-5.921-.092-.633,2.683.026,2.95-.091v-.002h0ZM376.184,238.416c.159-1.307-1.793-.963-2.571-1.11l-.104,1.805c.774-.029,2.669.627,2.674-.696h.001Z"/>
      <path class="st17" d="M384.641,237.073c.71-.381-.162,6.083-.018,6.223.044.484-1.227.338-1.123-.111.099-1.26.064-3.342.479-4.581l-.066-.005c-2.19,4.41-2.785,4.349-4.403-.35l-.066-.005c.238,1.19-.013,3.335-.054,4.539.041.476-1.201.329-1.104-.107.344-3.979-.361-10.235,3.298-2.207.549-.491,2.007-3.98,3.057-3.394v-.002h0Z"/>
      <path class="st17" d="M391.167,243.945c.33.511-.628.234-.829.245-.749.14-1.564-2.283-1.942-2.675l-1.504,2.044c-.207.395-.869.157-1.25.152-.884.036,2.143-2.995,2.096-3.162.067-.155-2.5-3.543-1.665-3.369,1.451-.28,1.847,1.657,2.478,2.517.754-.788,1.296-2.604,2.719-2.12.837-.049-2.092,2.943-2.041,3.096l1.939,3.272h-.001Z"/>
    </g>
    <g class="st23">
      <path class="st15" d="M47.806,120.761c-.2.034-.243.039-.385.182,1.628,3.031,4.693,4.972,4.937,8.808,1.763-2.468-1.869-8.009-4.552-8.99Z"/>
      <path class="st15" d="M49.436,126.355c.239-.344.781-.691,1.096-.254-.937,2.961-.762,6.115-.25,9.193-1.55-2.121-2.148-6.532-.846-8.939Z"/>
    </g>
    <g class="st23">
      <path class="st15" d="M259.29,71.423c-.214,0-.26-.003-.434.121,1.153,3.451,3.998,6.024,3.565,10.066,2.302-2.108-.557-8.792-3.131-10.187Z"/>
      <path class="st15" d="M259.986,77.546c.312-.317.937-.579,1.188-.068-1.51,2.917-1.891,6.239-1.911,9.537-1.235-2.488-1.065-7.194.723-9.469h0Z"/>
    </g>
    <g class="st24">
      <path d="M394.712,113.624c-.214,0-.26-.003-.434.121,1.153,3.451,3.998,6.024,3.565,10.066,2.302-2.108-.557-8.792-3.131-10.187Z"/>
      <path d="M395.408,119.748c.312-.317.937-.579,1.188-.068-1.51,2.917-1.891,6.238-1.911,9.537-1.235-2.488-1.065-7.194.723-9.469h0Z"/>
    </g>
    <path class="st27" d="M55.79,382.11c-.278-1.7-.641-3.509-1.112-5.406-.691-2.782-1.503-5.3-2.345-7.539-.164-1.294-.535-3.061-1.417-4.998-.633-1.392-1.364-2.507-2.01-3.351-1.289-1.628-2.642-3.503-3.976-5.634-1.273-2.033-2.324-3.976-3.201-5.774-3.35-22.255-3.526-44.952-2.29-67.388-5.767.27-12.173.038-17.84-1.068-2.348-.412-7.008-2.526-9.012-1.379-.445,24.7,2.3,50.249,8.501,74.182-.136,7.076-.246,13.712-.372,20.375,0,0-.104,5.518.827,12.568.247,1.873.674,4.612,2.033,7.852.603,1.437,1.228,2.587,1.703,3.391.184.079.62.238.874.042.323-.249.165-.932.038-1.485-.106-.461-.173-.463-.564-1.621-.052-.153-.172-.489-.265-.945-.009-.045-.035-.171-.066-.33-.564-2.843-1.329-6.823-1.12-11.637.006-.143.017-.376.035-.667.133.219.267.439.4.658.356,1.643.712,3.286,1.067,4.928l1.35,7.338c.416,1.34.878,2.409,1.24,3.163.739,1.538,1.46,2.419,2.873,4.196.743.934,1.301,1.546,1.908,1.455.315-.047.641-.284.777-.595.198-.453-.056-.955-.191-1.232-.457-.935-.736-1.948-1.171-2.893-.241-.524-.51-1.531-1.051-3.542-.42-1.561-.728-2.867-.855-3.431-.99-4.415-1.479-10.827-1.531-11.526,1.016,3.422,2.032,6.843,3.048,10.265.211,1.379.468,2.82.782,4.315.261,1.242.542,2.432.836,3.57.569,1.915,1.604,4.12,3.542,5.93.181.169.364.329.547.48.359.297,1.073.808,2.112,1.054.903.214,1.665.137,2.107.058.098-.096.32-.351.416-.751.045-.188.032-.4-.03-.748-.052-.304-.154-.78-.37-1.331-.296-.755-.596-1.12-1.003-1.857-.229-.416-.546-1.046-.843-1.879-.418-1.053-.836-2.106-1.253-3.159-.186-.652-.365-1.316-.536-1.992-.962-3.805-1.533-7.44-1.834-10.837l-.255-.201c.122-.156.248-.31.361-.473,1.523,7.507,3.513,12.93,5.042,16.469,1.24,2.87,2.703,5.716,4.711,5.76.932.02,1.72-.569,2.262-1.11.157-.323.314-.646.471-.969-.028-1.916-.185-4.119-.581-6.533-.488-2.972-1.222-5.545-1.973-7.657-.811-3.344-1.427-7.326-1.442-11.815-.004-1.322.044-2.59.131-3.798.415,1.942.91,3.971,1.498,6.074.37,1.32.756,2.595,1.153,3.823.618,1.642,1.39,2.845,1.975,3.63,1.326,1.779,2.344,2.282,2.811,2.477.527.219,1.259.511,1.868.192.533-.279.75-.911.948-2.046.189-1.081.368-2.658.26-4.646Z"/>
    <path class="st2" d="M335.124,99.617c-3.289-2.261-14.065-5.011-17.389.973,6.558,1.041,12.55-.019,19.648,3.057-.39-1.239-1.438-3.09-2.26-4.03h.001Z"/>
    <path class="st2" d="M349.709,102.916"/>
    <path class="st14" d="M412.046,347.132c1.114.069,2.252.157,3.411.269,3.437.33,6.669.819,9.681,1.408.373,1.353.884,3.896.338,7.017-.494,2.823-1.477,5.534-2.596,6.346l-.446-1.402c-3.918-.165-8.05.131-12.003-.526-.228-1.507-.373-3.41-.201-5.592.25-3.18,1.08-5.749,1.816-7.52Z"/>
    <path class="st12" d="M412.673,348.112l.843.484c.036,3.403-1.012,6.964-1.421,10.372l-.691.007c-1.157-2.108.152-9.027,1.267-10.864h0Z"/>
    <path class="st12" d="M425.522,349.675c-.119-.385-.254-.693-.355-.905-2.621-.991-4.896-1.527-6.592-1.835-1.397-.254-2.618-.476-4.287-.502-2.807-.044-3.671.345-6.093.596-1.567.163-3.074.155-4.833-.444-.218-.087-.435-.173-.653-.26-.01,0-.02,0-.03-.001-.034-.014-.067-.024-.102-.039-.007.01-.014.025-.02.035-.506-.017-1.012-.034-1.518-.051-.211,1.541-.453,3.123-.727,4.743-.272,1.604-.563,3.161-.868,4.672,1.152.509,2.64,1.048,4.42,1.416,1.652.341,3.126.447,4.324.452.494,1.262.989,2.523,1.483,3.785,3.24,1.27,10.033,1.647,13.211.835,0,0,0,0,0,0,.092-.078.234-.203.394-.369.462-.478,1.112-1.331,1.813-4.138.138-.555.353-1.424.521-2.599.139-.965.227-2.007.21-3.152-.015-1.001-.105-1.617-.297-2.238ZM423.689,355.54c-.305,2.008-.771,3.754-1.251,5.194l-2.472-.048c-3.193-.13-6.386-.26-9.579-.39-.102-.923-.187-2.132-.156-3.548.021-.967.153-2.66.556-4.848.329-1.791.823-3.532,1.541-4.548,1.77.134,3.753.38,5.897.804,2.159.427,4.098.959,5.795,1.514.062,1.64.009,3.633-.331,5.87Z"/>
    <path class="st5" d="M402.06,347.592c2.524.495,5.048.991,7.572,1.486.113.916.177,2.304-.17,3.936-.332,1.561-.916,2.761-1.372,3.541-2.298-.33-4.466-.917-6.729-1.447.233-2.505.466-5.011.699-7.516Z"/>
    <path class="st6" d="M408.712,352.285"/>
    <g>
      <path class="st19" d="M415.835,353.259l2.279,1.485-2.653.485.374-1.97ZM413.644,356.421l5.648-1.22c1.376,1.464,2.041-1.43.105-.487-.277-.015-5.214-3.989-5.381-3.3-.382.477.895,1.041,1.114,1.303l-.495,2.667c-.27.123-1.451.129-1.47.563-.058.303.21.504.476.442"/>
      <path class="st19" d="M421.866,353.344c.116.107-.06.211-.154.125-.681-.659-1.958-.508-2.613-.769,1.176-.265,1.675.034,2.767.643h0Z"/>
      <path class="st19" d="M419.353,353.699c.108.269.653-.012.92.142.319.002.664.38.96.351-.167-.477-1.441-.726-1.881-.485"/>
      <path class="st19" d="M418.837,356.122c.193-.227.589.23.896.168.292.1.761-.167,1.032-.052-.335.415-1.61.291-1.926-.124"/>
      <path class="st19" d="M420.949,357.287c.139-.061.066-.239-.08-.175-.874.48-1.981-.091-2.677-.078.876.694,1.588.556,2.758.254Z"/>
    </g>
    <path class="st16" d="M177.629,69.735c.136.043.166.05.251.163-1.418,1.959-3.734,3.025-4.264,5.675-1.041-1.795,2.103-5.465,4.013-5.838Z"/>
    <path class="st22" d="M373.688,147.817c4.627-3.987,13.756-26.7,14.95-10.5-1.02.19-1.397.12-2.122.894-.147,12.764-7.399,24.293-17.16,32.123-25.718,22.336-49.355-.187-54.293-27.802.443-.735.76-1.368,1.514-1.814,1.028,1.651,2.016,3.326,2.962,5.025,1.938-6.725,5.398-10.015,12.456-10.013,5.123,5.411,13.336,4.134,18.993.286,9.819.424,22.049-1.676,22.7,11.801h0Z"/>
    <path class="st27" d="M324.497,148.345c-.765-7.641,8.011-2.913,12.201-2.47,9.651,1.317,19.884.227,28.919-2.501.535.832.465.899.376,1.837l-.764.63.822.453c4.836,33.172-40.839,33.963-41.554,2.051Z"/>
    <path class="st17" d="M360.835,147.22c-9.651.229-20.047,2.245-29.798.087.385,4.981,6.021,7.335,10.507,8.401,0,0,0,0,0,0,3.086.264,6.161.22,9.145-.666,4.084-1.255,8.569-3.647,10.145-7.821Z"/>
    <path class="st18" d="M365.617,143.374c-9.035,2.728-19.268,3.818-28.919,2.501-4.19-.443-12.966-5.171-12.201,2.47h0c.891-.998,1.764-2.039,2.707-2.987,1.655,4.912,4.683,9.899,9.866,11.587,1.626-.535,3.349.272,4.474-1.237h0c-4.486-1.066-10.122-3.42-10.507-8.401,9.751,2.158,20.147.142,29.798-.087-1.576,4.174-6.061,6.566-10.145,7.821l-.158,1.299c.453.537,1.077.611,1.726.777,7.45-2.322,8.809-7.644,13.735-11.906.089-.938.159-1.005-.376-1.837Z"/>
    <path class="st18" d="M341.542,155.708c3.086.263,6.161.22,9.145-.666l-.158,1.299c.453.537,1.076.61,1.726.777-4.672,1.658-10.549,1.505-15.187-.173,1.628-.536,3.347.273,4.474-1.237h0Z"/>
    <path class="st26" d="M337.615,161.767c4.464,2.144,8.706,1.721,13.371.813l.129.578c-3.715,2.551-10.988,3.002-13.5-1.391Z"/>
    <path class="st5" d="M126.72,389.435l1.504.728c1.246,10.251-1.076,31.558.898,40.552.71.264,1.684.483,2.618.124.538-.206,2.813-1.274,3.285-11.025.168-3.468.125-8.399-.886-14.368-.024-.12-.094-.552.169-.901.056-.074.118-.133.179-.179.051-.011.207-.04.372.041.246.121.3.382.306.413.507,4.209.806,9.148.65,14.665-.139,4.936-.647,9.862-1.566,14.608l-.419.246c-.142-1.026-.256-2.047-.279-3.08-2.228,1.02-3.981,1.538-5.083.833-1.375-.88-1.317-3.152-1.304-4.025.068-4.85-.156-19.079-.446-38.633Z"/>
  </g>
  <g id="Layer_3">
    <path class="st4" d="M234.128,95.554c-1.685-2.636-7.819,1.282-10.29,1.68-8.918,2.54-21.554,3.791-29.999-.899-.53-2.759-4.255-2.1-5.765-.569l-.068.487c.967.479,1.942.571,2.996.718h0c.023,1.543.282,4.133,1.75,6.803,2.306,4.194,6.126,5.906,8.284,6.874,4.531,2.034,8.587,1.923,10.771,1.863,3.727-.102,7.069-.991,8.144-1.283.93-.253,1.701-.501,2.253-.688,1.232-.372,6.454-2.098,9.319-7.408,1.499-2.779,1.75-5.422,1.768-6.946l.836-.632Z"/>
  </g>
  <g id="Layer_2">
    <path class="st17" d="M195.06,100.315c12.474,2.786,21.136,2.31,33.478-.995-4.663,12.529-28.13,13.221-33.478.995Z"/>
  </g>
</svg>