<?xml version="1.0" encoding="UTF-8"?>
<svg id="Layer_1" xmlns="http://www.w3.org/2000/svg" width="1024" height="1024" version="1.1" viewBox="0 0 1024 1024">
  <!-- Generator: Adobe Illustrator 29.4.0, SVG Export Plug-In . SVG Version: 2.1.0 Build 152)  -->
  <defs>
    <style>
      .st0 {
        fill: #483a25;
      }

      .st1 {
        fill: #d60000;
      }

      .st2 {
        fill: #cbdad7;
      }

      .st3 {
        fill: #dffad9;
      }

      .st4 {
        fill: #9d6b39;
      }

      .st5 {
        fill: #cadbdd;
      }

      .st6 {
        fill: #5aba47;
      }

      .st7 {
        fill: #d5bc2a;
      }

      .st8 {
        fill: #3d5d57;
      }

      .st9 {
        fill: #af7a44;
      }

      .st10 {
        fill: #fef7ea;
      }
    </style>
  </defs>
  <rect class="st3" x="0" width="1024" height="1024" rx="64" ry="64"/>
  <path class="st9" d="M178.1,457.6l5.4-34.7c.7-4.7,1-11.5,2.9-15.7.6-1.3,1.5-2,2.8-2.5,1,0,1.7,0,2.6.4,1.1.6,1.6,1.5,2.1,2.7,1.8,5.3,2.1,11.7,3,17.3,1.6,10.9,3.2,21.8,5,32.7,1.1,0,2.2-.1,3.3-.2,2.3,0,4.2-.2,5.9,1.5.6,1.4.8,2.3.7,3.9-.8,1.6-2,2.1-3.5,2.9l-.9.4c-.5,1.2-.4,2.7-.3,4,.4,4.6,1.3,9.1,1.8,13.6l4.3,37.5,13.2,111c39.8-2.6,75.6,5.2,112,21.3,13.8,6.1,27.3,13.4,41.5,18.5,3.6,1.3,7.2,2.5,10.9,3.7,3.7,1.1,7.3,2.2,11.1,3.1,3.7.9,7.4,1.8,11.2,2.5,3.8.8,7.5,1.4,11.3,2s7.6,1,11.4,1.4,7.6.6,11.5.8,7.7.2,11.5.2,7.7-.2,11.5-.4c34.2-1.7,63.9-12.3,94.4-27.4,17.9-8.9,35.2-18.8,53-27.9,64.6-33.1,109.2-41.8,180.1-23.5l16.7-140c-1.8-.9-4.4-1.9-5-3.9-.3-1.2,0-2.7.6-3.7.6-.9,1.9-1.4,3-1.6,2.2-.3,4.6-.1,6.8,0,1-6.9,6.8-49.6,9.9-52.1.7-.6,1.6-.7,2.5-.9,1.4.4,2.1.5,2.9,1.8,2,3.3,7.6,43.8,8.8,51.1,2.6,0,6.9-.6,9,1.1,1,.9,1.5,2.1,1.5,3.4s-.3,1.5-.8,2.2c-1.1,1.2-4.1,1.6-4.2,3-.5,5.5,1.5,14.4,2.2,20.3l3.8,33,8.5,73.9c1.4,12.5,2.5,25.3,4.5,37.8,6.5,3.8,28.2,12.9,35.5,14.7,1.1-1.9,2.2-3.9,4.4-4.7,1.3-.5,2.4-.2,3.5.5,2.7,1.7,3.7,4.8,4.7,7.7,5.8,1.7,11.5,3.8,17.2,5.8,1.9-8,7.2-31.2,13.7-35.4,1-.6,2.1-1,3.3-.8,2.2.4,3.8,2.3,4.8,4.1,5.7,9.8,9,25.6,11.2,36.6,5,2.7,10.5,4.2,15.7,6.6,0,16.2-.4,32.5,0,48.6v.5c.4,8.7,0,17.6,0,26.3v90.6c0,6.7.5,13.8-.4,20.4-.5,3.9-2.2,7.2-4.9,10.1-4,4.3-9.1,5.8-14.8,6-20.2.6-40.6,0-60.8,0H96.6c-14.7,0-29.7.7-44.4,0-4.8-.3-9.1-2-12.5-5.4-2.6-2.5-4.5-5.8-5.1-9.4-1.1-6.5-.6-13.3-.6-19.9v-123.9c.3-22.5,0-45,0-67.4s-.5-21,.2-31.3c.2-2.3.3-5.1,1.4-7.1,5.5-1.3,17,2.2,23,3.2,1.9-5.3,5.2-18.7,10.8-21.1,1.2-.5,2.4-.4,3.5.2,5.1,2.4,11.3,23,13.5,28.9,15.8,2.9,34.5,11.8,49.5,17.9,5.1,2.1,11.2,5.4,16.6,6.2,1.7-12.1,2.9-24.3,4.3-36.4l7.8-67.1,5-43.9c1-8.9,2.4-17.8,3.1-26.7-.3-.1-.7-.3-1-.4-1.6-.8-3.2-1.9-3.6-3.7-.3-1.4,0-2.2.6-3.4,2.6-2.2,6.3-1.6,9.5-1.5v.2Z"/>
  <path class="st0" d="M178.1,457.6l5.4-34.7c.7-4.7,1-11.5,2.9-15.7.6-1.3,1.5-2,2.8-2.5,1,0,1.7,0,2.6.4,1.1.6,1.6,1.5,2.1,2.7,1.8,5.3,2.1,11.7,3,17.3,1.6,10.9,3.2,21.8,5,32.7,1.1,0,2.2-.1,3.3-.2,2.3,0,4.2-.2,5.9,1.5.6,1.4.8,2.3.7,3.9-.8,1.6-2,2.1-3.5,2.9l-.9.4c-.5,1.2-.4,2.7-.3,4,.4,4.6,1.3,9.1,1.8,13.6l4.3,37.5,13.2,111c39.8-2.6,75.6,5.2,112,21.3,13.8,6.1,27.3,13.4,41.5,18.5,3.6,1.3,7.2,2.5,10.9,3.7,3.7,1.1,7.3,2.2,11.1,3.1,3.7.9,7.4,1.8,11.2,2.5,3.8.8,7.5,1.4,11.3,2s7.6,1,11.4,1.4,7.6.6,11.5.8,7.7.2,11.5.2,7.7-.2,11.5-.4c34.2-1.7,63.9-12.3,94.4-27.4,17.9-8.9,35.2-18.8,53-27.9,64.6-33.1,109.2-41.8,180.1-23.5l16.7-140c-1.8-.9-4.4-1.9-5-3.9-.3-1.2,0-2.7.6-3.7.6-.9,1.9-1.4,3-1.6,2.2-.3,4.6-.1,6.8,0,1-6.9,6.8-49.6,9.9-52.1.7-.6,1.6-.7,2.5-.9,1.4.4,2.1.5,2.9,1.8,2,3.3,7.6,43.8,8.8,51.1,2.6,0,6.9-.6,9,1.1,1,.9,1.5,2.1,1.5,3.4s-.3,1.5-.8,2.2c-1.1,1.2-4.1,1.6-4.2,3-.5,5.5,1.5,14.4,2.2,20.3l3.8,33,8.5,73.9c1.4,12.5,2.5,25.3,4.5,37.8,6.5,3.8,28.2,12.9,35.5,14.7,1.1-1.9,2.2-3.9,4.4-4.7,1.3-.5,2.4-.2,3.5.5,2.7,1.7,3.7,4.8,4.7,7.7,5.8,1.7,11.5,3.8,17.2,5.8,1.9-8,7.2-31.2,13.7-35.4,1-.6,2.1-1,3.3-.8,2.2.4,3.8,2.3,4.8,4.1,5.7,9.8,9,25.6,11.2,36.6,5,2.7,10.5,4.2,15.7,6.6,0,16.2-.4,32.5,0,48.6l-.4-.2v7.8c-34.6-5.2-69.1-8.1-104.2-7.2,1.1,10.2,1.8,20.7,3.6,30.7,0,3.3,0,5-2.4,7.5l-.3.3h-2.9c-3.2-2.6-3-5.4-3.7-9.3l-.7,1.2c-7.5.8-69.4,1.2-73.1-.7-4.3,2.6-8.2,5.6-12.1,8.7l-3.4.2c0-.2-.3-.3-.4-.5-2.1-2.4-2-4.1-1.7-7.2l2.5-21.7c-6.9.5-13.9,2-20.7,3.1-12,2-24.1,4-36.1,6.2-52.5,9.4-104.4,22-157.2,29.7-12.1,1.8-24.2,3.6-36.4,4.7,15.5,3,34.8,4.8,50.5,6.2,11.1.9,22.2,1.7,33.3,2.5,5.1.3,10.3.2,15.3.9,1.2.2,1.9.4,2.8,1.1.6,1.1,1.3,2.2,1.1,3.5,0,.7-.5,1.3-1,1.8-3.9,3.2-22.6.8-28.4.5-68.8-4-136.8-17.5-203.1-36.1-22.3-6.3-44.3-13.9-66.6-20.3-32.8-9.5-67-16.8-101-20.3.5,10.1,2.7,28.1,4.5,37.9.3,3.8,0,5.5-2.4,8.4h-3.2c-2.4-2.5-2.7-4.7-3.2-8-9.6-.6-68.5,1-72.7-.8-.3,0-.5-.5-.8-.8-4.6,2.8-8.9,5.9-13.2,9.2-1.5,0-2.4,0-3.8-.5-1.3-2.5-1-4.5-.7-7.1,1.7-13.9,3.6-27.9,4.7-41.9-4.7,0-9.3,0-14,.2-4.7,0-9.3.3-14,.6s-9.3.7-14,1.1c-4.6.4-9.3,1-13.9,1.6s-9.2,1.3-13.9,2c-4.6.7-9.2,1.6-13.8,2.5-4.6.9-9.1,1.9-13.7,2.9-4.5,1.1-9.1,2.2-13.6,3.4v-8.5h-.3c.3-22.5,0-45,0-67.4s-.5-21,.2-31.3c.2-2.3.3-5.1,1.4-7.1,5.5-1.3,17,2.2,23,3.2,1.9-5.3,5.2-18.7,10.8-21.1,1.2-.5,2.4-.4,3.5.2,5.1,2.4,11.3,23,13.5,28.9,15.8,2.9,34.5,11.8,49.5,17.9,5.1,2.1,11.2,5.4,16.6,6.2,1.7-12.1,2.9-24.3,4.3-36.4l7.8-67.1,5-43.9c1-8.9,2.4-17.8,3.1-26.7-.3-.1-.7-.3-1-.4-1.6-.8-3.2-1.9-3.6-3.7-.3-1.4,0-2.2.6-3.4,2.6-2.2,6.3-1.6,9.5-1.5h.1Z"/>
  <path class="st2" d="M226.5,632.5c39.8-2.6,75.6,5.2,112,21.3,13.8,6.1,27.3,13.4,41.5,18.5,3.6,1.3,7.2,2.5,10.9,3.7,3.7,1.1,7.3,2.2,11.1,3.1,3.7.9,7.4,1.8,11.2,2.5,3.8.8,7.5,1.4,11.3,2s7.6,1,11.4,1.4,7.6.6,11.5.8,7.7.2,11.5.2,7.7-.2,11.5-.4c34.2-1.7,63.9-12.3,94.4-27.4,17.9-8.9,35.2-18.8,53-27.9,64.6-33.1,109.2-41.8,180.1-23.5l-9,73c-1.5,12.2-3.2,24.5-4.3,36.8-11.8,1.9-23.7,3.8-35.4,6.2-1.9-6.3-11.4-40.6-16.9-42.7-1.1-.4-2.1-.2-3.1.4-6.4,3.5-12.9,36.5-14.2,44.5-.2,1.3-.4,2.6-.5,3.9-36.3,5.9-72.1,14.8-108.4,21.1-4.5-9.8-10.4-19.4-21-23.5-6.8-2.6-14.1-2.2-20.6.8-.9.4-1.8.9-2.7,1.4-6.3-7.3-13.2-13.2-23.3-13.9-6.9-.5-13.8,2.2-18.9,6.8-3.7,3.4-6.2,7.6-8.4,12-7.6-.8-13.5.2-20.5,3.4-6.7-4.7-14.1-7.8-22.5-6.4-6.8,1.1-12.3,5.1-16.1,10.7-2.4,3.5-3.9,7.4-5.1,11.4-16.4-4.7-32.9-8.7-49.2-13.6-54.5-16.3-105.7-33.2-163-38.4-2-13.4-3.3-26.9-4.9-40.4-1.1-9.2-2.6-18.5-3.3-27.8h0Z"/>
  <path class="st2" d="M86.4,616.8c15.8,2.9,34.5,11.8,49.5,17.9,5.1,2.1,11.2,5.4,16.6,6.2-2.3,18.8-4.1,37.7-6.6,56.5-23.3,0-47,1.2-70,5.2,0-5.1,0-10.3,0-15.5,7.1-2.1,13.4-5.6,17-12.4,7.8-14.6-1.5-42.9-6.4-57.9Z"/>
  <path class="st2" d="M34.1,711.4c.3-22.5,0-45,0-67.4s-.5-21,.2-31.3c.2-2.3.3-5.1,1.4-7.1,5.5-1.3,17,2.2,23,3.2-5.7,16.1-17.1,46.8-9.6,62.7,3.5,7.5,9.5,12.3,17.3,15.1.6.2,1.1.4,1.7.5l.3,16.5c-7.8,1.3-27.9,4.3-34,7.8,0,0-.3,0-.3,0Z"/>
  <path class="st2" d="M868.3,632.3c6.5,3.8,28.2,12.9,35.5,14.7-3.6,10.6-10.8,33.1-7.6,43.3,1.5,4.6,4.3,7.2,8.4,9.4l.3,8.5c-9.4-.6-18.9-.4-28.3-.3-.6-8.9-1.9-17.8-2.9-26.7l-5.4-49h0Z"/>
  <path class="st9" d="M216.9,707.5c3.3.3,6.8.4,10,1.1,1.4,12.9,3,25.9,4.7,38.8-9.6-.6-68.5,1-72.7-.8-.3,0-.5-.5-.8-.8,12-8.1,24.2-15.8,36.3-23.8,7.4-4.8,14.8-10.5,22.6-14.6h-.1Z"/>
  <path class="st9" d="M798.4,746.2c6.6-5,38.1-26,44-27.8,7.1-2.2,19.1-1.6,26.9-1.9.4,9.7,2.1,19.4,2.9,29.1l-.7,1.2c-7.5.8-69.4,1.2-73.1-.7h0Z"/>
  <path class="st2" d="M966.7,660.9c5,2.7,10.5,4.2,15.7,6.6,0,16.2-.4,32.5,0,48.6l-.4-.2c-8.5-2.8-19.1-3.3-28-4.4v-14.4c3.7-1.6,6.7-3.5,9.1-6.7,6.3-8.4,4.9-19.8,3.6-29.5h0Z"/>
  <path class="st2" d="M916.5,650.4c5.8,1.7,11.5,3.8,17.2,5.8l-1,6.5c-1,7.7-1.8,16.7,1.6,23.9,2.6,5.6,6.6,8.1,12.1,10.2v13.8c-11.2-1-22.5-2.1-33.8-2.2v-7.8c3.9-1.8,7-3.6,9.2-7.5,5.1-8.9-.6-25.4-3-34.9l-2.2-7.8h0Z"/>
  <path class="st8" d="M533.2,722.6c4.1-.6,8.1,0,12,1.6,6.9,3,11,8.4,13.7,15.2,2.2-1.4,4.4-2.8,6.6-4,4.9-2.8,10.5-4,16-2.4,8.7,2.5,12.9,10.8,16.9,18.1-16.5,3.8-33.1,6.1-49.9,8.2-11.3,1.5-22.7,3.1-34.1,3.8-3.9.4-7.7.8-11.7.6-11.8-.6-36.1-6.3-48.1-9.6,1.2-3.6,2.7-7.2,5.2-10.1,3.1-3.6,7.3-5.8,12-6,7.4-.3,13.3,4.1,18.4,9,2.1-1.5,4.2-3,6.5-4,6.1-2.8,12-2.2,18.1,0,4.6-9.9,7.3-16.2,18.3-20.4h.1Z"/>
  <path class="st2" d="M800.5,656.2c6.8,3.5,13.3,8.5,19.7,12.7,13.6,9,27.2,17.9,40.9,26.7l-15.9,10.4c-1.8,1.2-3.7,2.8-5.8,3.4-5.8,1.9-12.6,2-18.7,2.7-9.1,1-18.3,2.1-27.4,3.3,2.5-19.7,4.4-39.6,7.2-59.3h0Z"/>
  <path class="st2" d="M843,622.4c4.6-3.4,9.2-7.2,14-10.3.8,5.6,1.5,11.2,2.1,16.8,2.9,20,4.2,40.2,7,60.1-19.8-13.5-40.1-26.3-60.1-39.6,12.2-9.2,24.5-18.3,37.1-27h0Z"/>
  <path class="st10" d="M843,622.4c4.6-3.4,9.2-7.2,14-10.3.8,5.6,1.5,11.2,2.1,16.8-3.9-.6-13-3.9-16-6.5h0Z"/>
  <path class="st2" d="M180.8,637.7c11-9,22.9-17.2,34.2-25.7,1.1,6.9,1.8,13.9,2.7,20.8l6.4,56.5-59.1-39.9c4-3,11.7-9.8,15.7-11.7h.1Z"/>
  <path class="st3" d="M180.8,637.7c11-9,22.9-17.2,34.2-25.7,1.1,6.9,1.8,13.9,2.7,20.8-7.2.6-14.3,1.7-21.4,2.9-4.8.8-10.6,2.5-15.5,2.1h0Z"/>
  <path class="st3" d="M810.2,573.2c13.9,10.6,28,21.1,41.6,32-5.8,4.3-11.6,8.8-17.5,12.9-10.2,8.4-21.5,15.9-32.2,23.6,1.4-10.9,2.6-21.9,4.2-32.7,1.4-11.9,3.3-23.9,4-35.8h0Z"/>
  <path class="st2" d="M802.1,641.8c1.4-10.9,2.6-21.9,4.2-32.7,9.3,3,18.7,6.2,28.1,9.1-10.2,8.4-21.5,15.9-32.2,23.6h0Z"/>
  <path class="st3" d="M169.3,573.6c5.2,3.4,10.1,7.5,15,11.3l26.1,20.2-25.5,19c-7.6,5.7-15.2,12-23.3,17,1.4-22.4,5.1-45,7.7-67.4h0Z"/>
  <path class="st2" d="M159.7,656.2c6.8,3.9,13.2,8.7,19.8,13.1,13.3,8.8,26.4,17.7,39.6,26.7l-5.2,3.2c-19.5-1.4-39.3-2.3-58.8-2.1,1.3-13.6,2.6-27.4,4.7-40.9h-.1Z"/>
  <path class="st8" d="M70.7,598.3c.7.7.5.4.9,1.3,6.3,13.7,21.1,56.7,15.2,70.6-2,4.8-6.3,7.1-10.8,9-.3-7.9-.2-15.9,0-23.9,0-4,.4-8.3,0-12.2,0-1.1-.5-2.6-1.3-3.5-.9-1-1.5-1-2.7-1-.9.4-1.7.7-2.4,1.5-1.7,1.9-1.4,4.4-1.4,6.8s.8,10.8-.2,12c-1.1-1.4-2.3-2.9-4.1-3.3-.9-.2-1.3.2-2,.7-6.8,4.7,7.2,15.8,6.1,22.6-.8.3-.4.3-1.3,0-4.3-1.6-8.6-6.8-10.3-10.8-7.5-17,7.9-53,14.4-69.8h0Z"/>
  <path class="st3" d="M848.4,540c1.4,1.4,6.2,51.4,6.7,57.6l-18.8-14.7c-7-5.4-14.2-10.6-20.8-16.5,10.3-9.3,21.8-18,32.8-26.4h0Z"/>
  <path class="st3" d="M206.4,539.5c1.3,2.7,6.2,50,6.8,57.6-6-4.9-12-9.7-18.1-14.4l-20.8-16.3c10.7-9,21.1-18.4,32.2-27h0Z"/>
  <path class="st9" d="M154,705.5c16.2-.2,32.3,1.1,48.5,1.6-8,5-15.7,10.3-23.6,15.5l-28.8,18.7c1.5-11.9,2.4-23.8,3.9-35.7h0Z"/>
  <path class="st3" d="M818.2,507.2c5.2,2.9,21.1,20.4,26.2,25.5-5.7,4.4-11.4,8.9-17.1,13.5-5,4-10,8-15,12.1,2.6-16.9,3.5-34.1,5.9-51h0Z"/>
  <path class="st8" d="M949.5,630.3c5.9,11.4,10.7,29.5,11,42.1.2,6.6-1.7,11.8-6.1,16.6-.5-3.4,0-6.9-.6-10.2-.5-2.3-1.3-3.4-3.2-4.7-1.1.3-2.2.7-3,1.6-2.5,2.7-1.6,8.3-1.6,11.8l-.6.4c-.2,0-.4,0-.6-.2-1.4-.5-2.1-1.6-2.7-2.9-6.9-13.9,2.7-40.4,7.5-54.4h-.1Z"/>
  <path class="st3" d="M177,508c8.5,7.9,16.9,15.9,25.1,24-5.4,4.8-11,9.3-16.5,13.9-4.7,4.1-9.5,8-14.4,11.9.9-16.5,3.3-33.6,5.7-49.9h0Z"/>
  <path class="st3" d="M841,475.9c.3.3.6.6.7,1.1,1.1,3.5.9,8.4,1.3,12.1,1.2,11.5,2.1,23.4,4.1,34.8l-10.1-10.3-15.9-15.6,19.8-22.1h.1Z"/>
  <path class="st3" d="M198.7,477.4c1.6,2.2,5,39.6,5.8,45.3l-9.7-9.3c-4.9-4.8-10-9.4-14.8-14.2l18.8-21.9h-.1Z"/>
  <path class="st8" d="M730.4,692.7c3.5,5.9,8.9,24.2,11,31.5-3.2.3-6.4.8-9.5,1.3l-9.9,2c1.9-11.8,5-23.2,8.4-34.7h0Z"/>
  <path class="st8" d="M909.3,654.9c.4.5.2.2.7,1.1,2.4,4.8,7.6,27,6,31.7-1,2.7-3.1,3.9-5.6,5-.8-.2-1.7-.4-2.5-.7-1.8-.6-3.1-1.6-3.9-3.3-3.7-7.7,2.7-25.7,5.3-33.8Z"/>
  <path class="st9" d="M821.1,720.8h0v.6l-30.6,20.2-.4-.4c-.4-5.1,1.1-11.6,1.9-16.6,9.3-1.9,19.5-3,29-3.8Z"/>
  <path class="st3" d="M181.3,465.9h16.1l-10.6,12.4c-2.8,3.1-5.4,6.2-8,9.4,1.2-7.2,1.8-14.6,2.5-21.9h0Z"/>
  <path class="st3" d="M823.2,465.9c5.1-.1,10.3,0,15.5,0l-10.5,11.8-7.4,8.3,2.4-20h0Z"/>
  <path class="st2" d="M866.9,702.2c.9,1.4.8,4.2,1,5.9-3,.3-6,.4-9,.5h-.5v-.7c2.7-2.1,5.7-3.9,8.6-5.7h0Z"/>
  <path class="st4" d="M872.2,745.7c.6,3.9.5,6.7,3.7,9.4-10.2,1.5-21.4.7-31.7.7-19.1,0-38.3.5-57.3-.8h-.6c3.9-3.1,7.8-6.1,12.1-8.7,3.7,1.9,65.6,1.5,73.1.7l.7-1.2h0Z"/>
  <path class="st4" d="M144.9,755.1c4.2-3.3,8.6-6.4,13.2-9.2.3.3.5.6.8.8,4.2,1.8,63.1.2,72.7.8.5,3.3.8,5.5,3.2,8-15.6.7-31.3.2-46.9.3-14.2,0-28.8.8-43-.6h0Z"/>
  <path class="st4" d="M141.1,754.6c-8.8,2.6-36,1.1-46.7,1-4.5,0-9.1.4-13.6,0-1.3,0-2.3-.4-3.5-.9-.9-1-1.3-1.3-1.1-2.8.2-1.4,1.4-2.8,2.4-3.7,2.2-1.8,55-1,61.8-.8-.3,2.7-.6,4.7.7,7.1h0Z"/>
  <path class="st4" d="M881.4,747.2c8.3.3,22.9-1.4,30.1.5.7,1.2.9,1.9.6,3.4-.2,1.3-.8,2.3-1.9,3-5.1,3.4-24.7,1-31.5.9l.3-.3c2.3-2.4,2.5-4.2,2.4-7.5h0Z"/>
  <path class="st4" d="M240.4,747h.7c7.4.8,22.4-1.8,28,2.6.5,1.1.7,1.5.2,2.8-.7,1.7-2.7,2.6-4.2,3.5-9,0-18.1-.3-27.1-.5,2.4-3,2.6-4.6,2.4-8.4h0Z"/>
  <path class="st4" d="M780.7,747.4c-.3,3.1-.4,4.7,1.7,7.2,0,.2.3.3.4.5-6.1-.2-20.9,2.7-25.9-.8-1.1-.8-1-1.1-1.2-2.3.5-1,.9-1.8,1.7-2.6,3.5-3.4,17.7-1.9,23.1-1.9h.2Z"/>
  <path class="st4" d="M162.9,794.3c11.8-.6,23.8.4,35.7.2.5,1.3,1.2,2.6,1.8,3.9l-3.5,4.4c-7.9-.9-16.5-.2-24.5-.2-13.2,0-26.3-.2-39.5,0-5.2,0-32.5.9-35.1-1.1-1.1-.8-1.1-1.1-1.2-2.4.4-1,.8-1.9,1.6-2.8.9-1,1.9-1.6,3.2-1.8,5-.9,11.2,0,16.3,0,15.1,0,30.2.2,45.3-.2h-.1Z"/>
  <path class="st4" d="M823.3,835.3c10.2-.6,20.5,0,30.7,0s19.7-.9,29.1,0c1.6.2,4.1.5,5.3,1.7,1.1,1,1.1,1.3,1.2,2.7-.4.8-.7,1.5-1.3,2.1-2.1,2-4.5,1.7-7.2,1.7h-36.3c-7.4,0-24.1,1.1-30.4-.5-1.6-.4-2.7-1-3.6-2.4,0-1.1,0-1.6.8-2.6,2.4-3.1,8.2-2.7,11.7-2.9h0Z"/>
  <path class="st4" d="M773.7,779.3c5.3-.4,20.5-1.3,24.6,1.5.6,1.6-.2,4.4-.5,6.1-17,.3-34-.2-50.9.3-5.3.2-17.3,1.2-21.6-1.3-.5-.6-.8-1-1-1.8,0-.8-.3-1.3.2-1.9.9-1.1,2.3-2,3.7-2.4,4.6-1.5,37.7,0,45.6-.5h0Z"/>
  <path class="st4" d="M902.1,791.5c6.1,0,48.5-.8,51.4,1.1.5,1.1.7,1.5.6,2.7-.2,1.7-1,2.5-2.3,3.6-.2,0-.4,0-.6,0-7.7,1.4-16.8.6-24.6.7-7,0-14.7.7-21.6,0-1.5-.2-4.2-.6-5.4-1.8-1.1-1-1-1.4-1-2.8.8-1.8,2-2.4,3.6-3.5h-.1Z"/>
  <path class="st5" d="M489.7,36.8c10.9-.3,21.9-.4,32.8-.4s21.9.2,32.8.6c10.9.3,21.9.9,32.8,1.5,10.9.7,21.8,1.5,32.8,2.5,10.9,1,21.8,2.1,32.7,3.4,10.9,1.3,21.7,2.8,32.6,4.4,10.8,1.6,21.6,3.4,32.4,5.3,10.8,1.9,21.5,4,32.2,6.3,25.5,5.4,50.7,11.9,75.7,19.6,13.5,4.3,26.8,9.1,40,14.3,13.2,5.2,26.2,10.8,39,16.9,25.8,12.1,55.2,28,77.4,45.9-.7,17.8,0,35.8,0,53.6v88.8c0,0,0,28.4,0,28.4,0,4.5.5,9.6-.3,14-3.7,2.5-11.2-6.7-13.6-9.2-29.2-29.4-64.2-52.5-101-71.2-83.2-42.4-173.6-63.4-266.3-71.5-23.4-2.2-46.9-3.5-70.4-4-144.1-4.5-308.2,20.8-430,101.9-8.3,5.5-16.4,11.3-24.3,17.4-7.8,6.2-15.4,12.6-22.7,19.5-2.7,2.6-16.6,17.7-19,18.2-1-1.1-1-2.4-1.1-3.8-.3-6.7,0-13.7,0-20.4v-160.9c.2-.2.3-.4.5-.6,8.6-9.3,41.9-28.5,53.7-34.8,69.4-37.1,145.4-57.6,222.6-70.3,33.7-5.8,67.6-9.9,101.7-12.2,25.7-1.6,51.4-2.6,77.2-3l-.2-.2Z"/>
  <path class="st2" d="M712.2,253.2c9.5-1.7,20.8.6,29.3,4.9,13.7,7,19.9,18.3,24.5,32.4,4.7-2.9,9.7-5,15.2-5.2,11.1-.5,22.5,5.9,28.1,15.5,1.4,2.3,3.3,8.9,5.4,10.1,4.5,2.4,11.5-1.5,20.1,6.5,3.2,2.9,5.5,7.1,5.5,11.5s-.8,4.6-2.5,6.3c-2.2,2.2-5.4,3-8.4,3.3-8.3.9-17.5,0-25.8-.1h-51.6l-83.1.2c-9.5,0-19.3.5-28.8,0-2.8-.2-5.5-.5-8.1-1.5-3.7-1.5-6.9-4.1-8.4-7.8-2-5-.9-11.2,1.2-15.9.2-.5.4-1,.7-1.5.2-.5.5-1,.8-1.4.3-.5.5-.9.8-1.4s.6-.9.9-1.3.6-.9,1-1.3c.3-.4.7-.8,1-1.2.4-.4.7-.8,1.1-1.2.4-.4.8-.8,1.1-1.1.4-.4.8-.7,1.2-1.1s.8-.7,1.2-1,.9-.7,1.3-1c.4-.3.9-.6,1.3-.9.5-.3.9-.6,1.4-.8.5-.3.9-.5,1.4-.8.5-.2,1-.5,1.5-.7s1-.4,1.5-.6c8.5-3.2,17.6-3.3,25.9.5,1.5-9.6,3.7-17.8,10-25.5,8.6-10.3,19.8-16.2,33-17.5l.3-.4Z"/>
  <path class="st6" d="M487.4,391.8c5.2-.3,10.5-.2,15.7-.2s8.9,0,13.3.1c4.4,0,8.9.2,13.3.4,4.4.2,8.9.4,13.3.7,4.4.3,8.9.6,13.3,1,4.4.4,8.8.8,13.3,1.3,4.4.5,8.8,1,13.2,1.6s8.8,1.2,13.2,1.9c4.4.7,8.8,1.4,13.1,2.2,4.4.8,8.7,1.7,13.1,2.6,4.3.9,8.7,1.9,13,2.9s8.6,2.1,12.9,3.2c4.3,1.1,8.6,2.3,12.9,3.5,4.3,1.2,8.5,2.4,12.8,3.7,4.2,1.3,8.5,2.6,12.7,4s8.4,2.8,12.6,4.3c4.2,1.5,8.3,3,12.5,4.6,6.2,2.4,21.7,7.1,26,11.7,1.3,1.4,2,3,1.9,5,0,3-2.7,7.8-5,9.7-.9.7-2.1,1.3-3.3,1.2-2.9-.3-10.7-4.3-13.7-5.6-6.9-2.9-13.8-5.7-20.8-8.4-7-2.6-14.1-5.2-21.2-7.5-7.1-2.4-14.3-4.6-21.4-6.7-7.2-2.1-14.4-4-21.7-5.8s-14.6-3.4-21.9-4.9c-7.3-1.5-14.7-2.9-22.1-4.1-7.4-1.2-14.8-2.3-22.2-3.2-7.4-.9-14.9-1.7-22.3-2.3-4.3-.3-8.5-.6-12.8-.9-4.3-.2-8.6-.4-12.8-.6-4.3-.1-8.6-.2-12.8-.3h-12.8c-4.3,0-8.6.2-12.8.3-4.3.2-8.6.4-12.8.6-4.3.3-8.5.6-12.8.9-4.3.4-8.5.8-12.8,1.2s-8.5,1-12.7,1.5c-4.2.6-8.5,1.2-12.7,1.8-4.2.7-8.4,1.4-12.7,2.1-4.2.8-8.4,1.6-12.6,2.4-4.2.9-8.4,1.8-12.5,2.7-4.2,1-8.3,2-12.5,3-4.1,1.1-8.3,2.2-12.4,3.3-4.1,1.1-8.2,2.3-12.3,3.6-10.1,3.1-20.1,6.5-30,10.2-6,2.3-12,5-18.1,6.8-1.7.5-3.1,1-4.7,0-2.2-1.3-3.6-3.7-4.1-6.2-.4-2-.7-4.5.7-6.2,1.9-2.6,17.8-7.7,21.9-9.2,7.2-2.7,14.5-5.2,21.9-7.5,7.4-2.4,14.7-4.6,22.2-6.7,7.4-2.1,14.9-4,22.4-5.7,7.5-1.8,15.1-3.4,22.7-4.8s15.2-2.8,22.8-3.9c7.6-1.1,15.3-2.1,23-3,7.7-.8,15.4-1.5,23.1-2s15.4-.9,23.1-1.1l-.6.8Z"/>
  <path class="st2" d="M179.1,306.2c5.5-.7,12-.8,17.4.5,15.4,3.7,21.2,14.1,28.9,26.7.8-.5,1.7-1,2.6-1.5,6.4-3.1,15.5-3.5,22.2-1.2,7.9,2.7,12.5,8.1,16.2,15.3h2.4c7.8-.3,15.5,1,21.3,6.7,3.8,3.6,7.1,8.6,7.1,14s-.7,4.5-2.3,6c-1,.9-2.2,1.6-3.6,1.8-6.2,1-13.6.1-19.9.1h-46c-24.6.2-49.3,0-73.9-.1-12.7,0-25.4.3-38,.1-3.3,0-5.9-.9-8.2-3.4-2.4-2.6-3-6.2-2.7-9.7.6-7.7,5.2-14.9,11-19.8,10.7-9,20.1-9.2,33.4-8,2.2-5,4.5-10.2,7.8-14.6,5.9-7.8,14.9-11.5,24.4-12.8h0Z"/>
  <path class="st2" d="M433.4,502.7c3.9-.6,9.3.4,13,1.9,11.6,4.8,16,13.5,20.8,24.3,2.6-.3,5.3-.7,8-.8,6.3,0,13.1,2.2,17.6,6.7,2.9,2.9,5.4,7.5,5.3,11.7,0,1.7-.6,3.4-1.9,4.5-1.5,1.4-3.5,1.9-5.4,2.2-6,.8-12.7.2-18.8,0-14.1,0-28.2-.2-42.3,0-11.3-.2-53,1.3-59.8-.9-1.5-.5-2.6-1.6-3.2-3.1-1.3-3-.1-7.4,1.2-10.2,3-6,8.8-9.6,15-11.7,6.3-2.1,14.2-3.4,20.4-.2.2,0,.3.2.4.2.8-.8.6-.5.9-1.4,1.5-4.5,2.4-8.2,5.4-12,6-7.7,14-10.3,23.4-11.4v.2Z"/>
  <path class="st7" d="M138,409c1.2.2,2.2.6,3.2,1.3,1,.7,1.5,2,1.4,3.2-.2,4.1-9.5,11-12.2,14.2-2.4,2.8-4.2,6.2-5.8,9.5-8.6,17.5-6.6,37.5,3.8,53.8,3.9,6,8.2,9.1,12.4,14.3.8,1,1.4,2.1,1.3,3.3,0,2-1.8,3.3-3.2,4.5-.2,0-.3,0-.5,0-7.9-2.5-16-14.4-19.7-21.4-.5-.9-1-1.9-1.5-2.8-.5-1-.9-1.9-1.3-2.9s-.8-2-1.2-3-.7-2-1-3-.6-2-.9-3.1c-.3-1-.5-2.1-.7-3.1s-.4-2.1-.6-3.2-.3-2.1-.4-3.2-.2-2.1-.3-3.2v-6.4c0-1.1,0-2.1.2-3.2s.2-2.1.4-3.2c.2-1.1.3-2.1.5-3.2.2-1,.4-2.1.7-3.1.3-1,.5-2.1.9-3.1,3.6-11.7,13.5-27,24.5-32.8h0Z"/>
  <path class="st7" d="M153.2,432.1c1.6,0,2.9,0,4.1,1.2,3.6,3.4-4.5,11.5-6.3,14.4-1.9,3.1-3.8,6.8-4.1,10.4-1.5,15.5,12.3,23.7,11.6,28.2-.3,1.7-1.4,2.7-2.7,3.8-4.1-.8-7.8-4.5-10.2-7.7-5.5-7.4-8.1-17.2-6.7-26.4,1.4-9.4,6.6-18.3,14.3-23.9h0Z"/>
  <path class="st7" d="M240.6,408.8c7.6,2.6,16.9,14.6,21,21.4,8.5,14.3,10.8,30.6,6.6,46.7-3.4,13.2-12.8,29.5-24.9,36.5-1,0-2.1-.5-3-1.1-1.2-.8-1.6-1.5-1.9-2.9.4-4.2,5.5-8.1,8.4-11,9.9-10.3,15.3-25,15-39.2-.4-17.2-9.2-28.8-21-40.2-1.3-1.2-3.7-3.3-3.6-5.2.1-2.4,1.8-3.6,3.6-5h-.2Z"/>
  <path class="st7" d="M225,431.9c4,1.2,7.1,4.2,9.5,7.4,5.8,7.6,8.8,17.6,7.4,27.1-1.4,9.9-6.7,17.8-14.6,23.7-1.1,0-2-.2-3-.7-1.3-.7-1.9-1.8-2.4-3.1,0-5,5.5-7.7,8-11.5,1.9-2.8,2.9-6.2,3.4-9.5,2.8-17.2-10.9-21.7-11.2-28.9,0-2.1,1.4-3.4,2.8-4.6h.1Z"/>
  <path class="st7" d="M778.5,409c1.2.2,2.2.6,3.2,1.3,1,.7,1.5,2,1.4,3.2-.2,4.1-9.5,11-12.2,14.2-2.4,2.8-4.2,6.2-5.8,9.5-8.6,17.5-6.6,37.5,3.8,53.8,3.9,6,8.2,9.1,12.4,14.3.8,1,1.4,2.1,1.3,3.3,0,2-1.8,3.3-3.2,4.5-.2,0-.3,0-.5,0-7.9-2.5-16-14.4-19.7-21.4-.5-.9-1-1.9-1.5-2.8-.5-1-.9-1.9-1.3-2.9-.4-1-.8-2-1.2-3s-.7-2-1-3-.6-2-.9-3.1c-.3-1-.5-2.1-.7-3.1s-.4-2.1-.6-3.2c-.2-1.1-.3-2.1-.4-3.2,0-1.1-.2-2.1-.3-3.2v-6.4c0-1.1,0-2.1.2-3.2,0-1.1.2-2.1.4-3.2s.3-2.1.5-3.2c.2-1,.4-2.1.7-3.1s.5-2.1.9-3.1c3.6-11.7,13.5-27,24.5-32.8h0Z"/>
  <path class="st7" d="M793.7,432.1c1.6,0,2.9,0,4.1,1.2,3.6,3.4-4.5,11.5-6.3,14.4-1.9,3.1-3.8,6.8-4.1,10.4-1.5,15.5,12.3,23.7,11.6,28.2-.3,1.7-1.4,2.7-2.7,3.8-4.1-.8-7.8-4.5-10.2-7.7-5.5-7.4-8.1-17.2-6.7-26.4,1.4-9.4,6.6-18.3,14.3-23.9h0Z"/>
  <path class="st7" d="M881.2,408.8c7.6,2.6,16.9,14.6,21,21.4,8.5,14.3,10.8,30.6,6.6,46.7-3.4,13.2-12.8,29.5-24.9,36.5-1,0-2.1-.5-3-1.1-1.2-.8-1.6-1.5-1.9-2.9.4-4.2,5.5-8.1,8.4-11,9.9-10.3,15.3-25,15-39.2-.4-17.2-9.2-28.8-21-40.2-1.3-1.2-3.7-3.3-3.6-5.2,0-2.4,1.8-3.6,3.6-5h-.2Z"/>
  <path class="st7" d="M865.5,431.9c4,1.2,7.1,4.2,9.5,7.4,5.8,7.6,8.8,17.6,7.4,27.1-1.4,9.9-6.7,17.8-14.6,23.7-1.1,0-2-.2-3-.7-1.3-.7-1.9-1.8-2.4-3.1,0-5,5.5-7.7,8-11.5,1.9-2.8,2.9-6.2,3.4-9.5,2.8-17.2-10.9-21.7-11.2-28.9,0-2.1,1.4-3.4,2.8-4.6h0Z"/>
  <g>
    <path class="st1" d="M441,86.9c5.9,10.8,11.5,21.6,16.9,32.6.7,1.5,1.3,3,1.9,4.5s1.1,3,1.6,4.6c.3-2,.6-3.9.9-5.8.4-1.9.8-3.8,1.3-5.7,2.9-11.1,6-22.3,9.4-33.4,3.4-.2,6.9-.5,10.3-.6-6.8,20.5-12.7,41-17.7,61.7-2.7.3-5.4.5-8,.8-9.2-19.2-19.2-38.1-30.1-56.7,4.5-.7,9-1.4,13.5-2h0Z"/>
    <path class="st1" d="M529.6,115.8c-8.9-.3-17.8-.4-26.8-.3.1,9,.3,17.9.4,26.9-3.8,0-7.6.2-11.4.3-.7-18.4-1.5-36.7-2.2-55.1,0,0-.1-.5-.4-1.2-.2-.8-.5-1.5-.7-2.4-.2-.8-.4-1.3-.4-1.4,4.7-.2,9.4-.3,14.1-.4.1,8.4.3,16.8.4,25.1,9.1,0,18.1,0,27.2.3.3-8.4.6-16.8.9-25.1,4.3.2,8.5.4,12.8.6-1.2,20-2.5,40-3.7,60-3.8-.2-7.6-.4-11.4-.6.3-9,.7-17.9,1-26.9l.2.2Z"/>
    <path class="st1" d="M554.5,84c13.3,1.1,26.5,2.7,39.7,4.8-.4,2.7-.8,5.4-1.3,8-8.3-1.3-16.7-2.4-25.1-3.4-.6,5.6-1.2,11.3-1.8,16.9,6.3.7,12.5,1.5,18.8,2.4-.4,2.7-.8,5.4-1.2,8-6.1-.9-12.3-1.7-18.4-2.4-1,8.9-1.9,17.8-2.9,26.7-3.8-.4-7.6-.8-11.4-1.1,1.6-18.3,3.1-36.6,4.7-54.9-.3-1.7-.6-3.4-.9-5.1h-.2Z"/>
  </g>
  <g>
    <path d="M241.9,921.9l10.4,30.5c.4,1.4.8,2.7,1.2,4.1.3,1.4.7,2.8.9,4.2.4-1.7.8-3.4,1.3-5,.5-1.7,1-3.3,1.6-5l9.8-28.8h8.1l-18.5,53.5h-7.1l-18.4-53.5h10.7Z"/>
    <path d="M312.6,951.3h-22.4v23.8h-10.1v-48.9s0-.4-.3-1.1c-.2-.7-.3-1.4-.5-2.1-.1-.7-.2-1.1-.3-1.2h11.1v22.3h22.4v-22.3h10.1v53.4h-10.1v-23.8h0Z"/>
    <path d="M331.2,921.8h31.3v7.2h-20.1v15.1h15.5v7.2h-15.5v23.8h-10.1v-48.9l-1-4.4h0Z"/>
    <path d="M397.8,985.8c-4.1-4.5-7.4-9.5-10-15-2.6-5.4-3.9-11.3-3.9-17.4s1.3-12.1,3.9-17.5,5.9-10.4,10-15l6.9,1.2c-2.7,3.3-5,6.5-6.8,9.7s-3.1,6.5-4,10-1.3,7.4-1.3,11.6.4,8,1.3,11.6c.9,3.5,2.2,6.9,4,10,1.8,3.2,4.1,6.4,6.8,9.6l-6.9,1.2h0Z"/>
    <path d="M420.8,937.8c3,0,5.5.6,7.5,1.9,2,1.3,3,3.3,3,6.1s-.5,3.8-1.5,5.7c-1,1.8-2.3,3.5-3.9,5.1-1.7,1.6-3.5,2.9-5.5,4.1,1.8,0,3.5.4,5.4,1.1,1.8.7,3.4,1.8,4.7,3.3,1.3,1.5,1.9,3.4,1.9,5.7s-.3,3.7-.9,5.4-1.6,3.2-2.8,4.6c-1.2,1.4-2.7,2.6-4.5,3.7-1.8,1.1-3.9,2-6.2,2.8-2.3.8-4.9,1.4-7.7,1.8-2.8.4-5.9.6-9.1.6l-.4-4.3c3-.2,5.8-.5,8.5-1,2.6-.5,5-1.2,7-2.2s3.6-2.4,4.8-4.2c1.1-1.8,1.7-4,1.7-6.8s-.7-3.7-2-4.7c-1.4-1-3-1.5-4.9-1.5s-1.4,0-2.2.2c-.8,0-1.5.4-2.2.7l-2.2-4.2c1.2-.5,2.5-1.3,3.9-2.2,1.5-.9,2.9-1.9,4.2-3.1,1.4-1.2,2.5-2.5,3.4-3.9s1.3-2.9,1.3-4.4-.3-2-.8-2.5c-.6-.6-1.3-.8-2.4-.8s-3,.4-4.9,1.3c-1.8.9-3.4,2-4.5,3.4l-4.4-6c2.4-1.8,5-3.2,7.8-4.1,2.8-.9,5.5-1.3,8-1.3v-.3Z"/>
    <path d="M455.3,938c3.8,0,7,.8,9.7,2.4,2.6,1.6,4.7,3.8,6.1,6.7s2.1,6.2,2.1,10-.8,7-2.3,9.8c-1.6,2.9-3.7,5.1-6.5,6.7-2.8,1.6-6,2.4-9.8,2.4s-6.9-.8-9.6-2.4c-2.7-1.6-4.7-3.9-6.2-6.7-1.4-2.9-2.2-6.2-2.2-9.8s.8-7.2,2.3-10,3.7-5.1,6.5-6.6c2.8-1.6,6.1-2.4,9.9-2.4h0ZM454.9,943.9c-1.8,0-3.2.4-4.3,1.2-1.1.8-2,1.9-2.6,3.2s-1.1,2.7-1.3,4.3c-.3,1.5-.4,3-.4,4.4s.1,3,.3,4.5c.2,1.6.6,3,1.2,4.3s1.5,2.3,2.6,3.1,2.6,1.2,4.5,1.2,3.3-.4,4.5-1.2c1.1-.8,2-1.8,2.6-3.1s1-2.7,1.2-4.3.3-3.1.3-4.5-.1-2.9-.4-4.4c-.2-1.5-.7-3-1.3-4.3-.6-1.3-1.5-2.4-2.6-3.2s-2.6-1.2-4.3-1.2h0Z"/>
    <path d="M479,952.9h16.1v6.9h-16.1v-6.9Z"/>
    <path d="M515.4,937.8c3,0,5.5.6,7.5,1.9,2,1.3,3,3.3,3,6.1s-.5,3.8-1.5,5.7c-1,1.8-2.3,3.5-3.9,5.1-1.7,1.6-3.5,2.9-5.5,4.1,1.8,0,3.5.4,5.4,1.1,1.8.7,3.4,1.8,4.7,3.3s1.9,3.4,1.9,5.7-.3,3.7-.9,5.4c-.6,1.7-1.6,3.2-2.8,4.6-1.2,1.4-2.7,2.6-4.5,3.7-1.8,1.1-3.9,2-6.2,2.8s-4.9,1.4-7.7,1.8c-2.8.4-5.9.6-9.1.6l-.4-4.3c3-.2,5.8-.5,8.5-1,2.6-.5,5-1.2,7-2.2s3.6-2.4,4.8-4.2c1.1-1.8,1.7-4,1.7-6.8s-.7-3.7-2-4.7c-1.4-1-3-1.5-4.9-1.5s-1.4,0-2.2.2c-.8,0-1.5.4-2.2.7l-2.2-4.2c1.2-.5,2.5-1.3,3.9-2.2,1.5-.9,2.9-1.9,4.2-3.1,1.4-1.2,2.5-2.5,3.4-3.9s1.3-2.9,1.3-4.4-.3-2-.8-2.5-1.3-.8-2.4-.8-3,.4-4.9,1.3c-1.8.9-3.4,2-4.5,3.4l-4.4-6c2.4-1.8,5-3.2,7.8-4.1,2.8-.9,5.5-1.3,8-1.3v-.3Z"/>
    <path d="M549.9,938c3.8,0,7,.8,9.7,2.4,2.6,1.6,4.7,3.8,6.1,6.7,1.4,2.9,2.1,6.2,2.1,10s-.8,7-2.3,9.8c-1.6,2.9-3.7,5.1-6.5,6.7-2.8,1.6-6,2.4-9.8,2.4s-6.9-.8-9.6-2.4c-2.7-1.6-4.7-3.9-6.2-6.7-1.4-2.9-2.2-6.2-2.2-9.8s.8-7.2,2.3-10,3.7-5.1,6.5-6.6c2.8-1.6,6.1-2.4,9.9-2.4h0ZM549.6,943.9c-1.8,0-3.2.4-4.3,1.2s-2,1.9-2.6,3.2-1.1,2.7-1.3,4.3c-.3,1.5-.4,3-.4,4.4s0,3,.3,4.5c.2,1.6.6,3,1.2,4.3.6,1.3,1.5,2.3,2.6,3.1s2.6,1.2,4.5,1.2,3.3-.4,4.5-1.2c1.1-.8,2-1.8,2.6-3.1s1-2.7,1.2-4.3.3-3.1.3-4.5,0-2.9-.4-4.4c-.2-1.5-.7-3-1.3-4.3s-1.5-2.4-2.6-3.2-2.6-1.2-4.3-1.2Z"/>
    <path d="M591.1,938c3.8,0,7,.8,9.7,2.4,2.6,1.6,4.7,3.8,6.1,6.7,1.4,2.9,2.1,6.2,2.1,10s-.8,7-2.3,9.8c-1.6,2.9-3.7,5.1-6.5,6.7-2.8,1.6-6,2.4-9.8,2.4s-6.9-.8-9.6-2.4c-2.7-1.6-4.7-3.9-6.2-6.7-1.4-2.9-2.2-6.2-2.2-9.8s.8-7.2,2.3-10,3.7-5.1,6.5-6.6c2.8-1.6,6.1-2.4,9.9-2.4h0ZM590.7,943.9c-1.8,0-3.2.4-4.3,1.2s-2,1.9-2.6,3.2-1.1,2.7-1.3,4.3c-.3,1.5-.4,3-.4,4.4s0,3,.3,4.5c.2,1.6.6,3,1.2,4.3.6,1.3,1.5,2.3,2.6,3.1s2.6,1.2,4.5,1.2,3.3-.4,4.5-1.2c1.1-.8,2-1.8,2.6-3.1s1-2.7,1.2-4.3.3-3.1.3-4.5,0-2.9-.4-4.4c-.2-1.5-.7-3-1.3-4.3s-1.5-2.4-2.6-3.2-2.6-1.2-4.3-1.2Z"/>
    <path d="M645.9,921.8l11.4,30.6c.5,1.5.9,2.9,1.2,4.4s.6,2.9.9,4.4c.4-1.6.7-3,.9-4.4s.6-2.7,1.1-4.2l11.2-30.9h12.8v53.3h-9.8v-36.2c0-.9,0-1.8,0-2.7,0-.9.2-1.8.2-2.6-.3.9-.6,1.8-.8,2.6-.3.9-.6,1.8-.9,2.6l-13.1,36.2h-5.4l-13.4-36.2c-.3-.9-.6-1.8-.9-2.6-.3-.9-.5-1.8-.8-2.6,0,.8,0,1.7.2,2.6,0,.9,0,1.8,0,2.7v36.2h-8v-48.9l-1-4.4h14Z"/>
    <path d="M726.5,951.3h-22.4v23.8h-10.1v-48.9s0-.4-.3-1.1c-.2-.7-.3-1.4-.5-2.1,0-.7-.2-1.1-.3-1.2h11.1v22.3h22.4v-22.3h10.1v53.4h-10.1v-23.8h0Z"/>
    <path d="M743.1,937.8h25.7v3.7l-18.3,28.6h19.2l-.6,5.1h-27.2v-4.2l17.9-28.2h-16.7v-5h0Z"/>
    <path d="M792.1,953.4c0,6.2-1.3,12-3.9,17.4-2.6,5.4-5.9,10.4-10,15l-6.9-1.2c2.7-3.3,5-6.5,6.8-9.6,1.8-3.2,3.1-6.5,4-10s1.3-7.4,1.3-11.6-.4-8.1-1.3-11.6c-.9-3.5-2.2-6.8-4-10s-4.1-6.4-6.8-9.7l6.9-1.2c4.1,4.5,7.4,9.5,10,15,2.6,5.4,3.9,11.3,3.9,17.5h0Z"/>
  </g>
</svg>