<?xml version="1.0" encoding="utf-8" ?><svg xmlns="http://www.w3.org/2000/svg" xmlns:xlink="http://www.w3.org/1999/xlink" width="2816" height="1536" viewBox="0 0 2816 1536"><path fill="#89944D" d="M384.816 236.985C392.278 235.132 406.67 235.703 414.512 236.052C461.95 237.875 508.157 251.666 548.834 276.143C689.959 361.044 727.862 554.585 644.827 693.261C630.721 716.818 612.71 740.06 593.191 759.413C584.939 767.595 574.982 774.517 566.744 782.479C590.298 810.036 635.034 849.899 661.883 874.147C721.325 928.421 783.26 979.899 847.489 1028.41C886.53 1058.95 926.736 1087.98 968.018 1115.41C965.862 1107 964.386 1100.71 965.622 1091.97C967.692 1089.97 968.313 1088.95 971.146 1088.52C979.823 1091.65 988.668 1127.92 989.616 1136.58C986.553 1141.39 969.415 1142.82 963.521 1143.39C955.687 1144.16 938.617 1148.24 935.036 1139.37C938.17 1130.01 956.708 1131.2 965.514 1130.65C917.526 1099.52 867.603 1061.11 822.268 1026.04C729.664 954.393 634.859 874.727 553.565 790.51C515.237 819.145 444.432 842.622 396.846 837.494C320.412 832.967 265.187 807.779 211.041 753.203C153.048 693.994 120.655 614.36 120.851 531.481C121.566 397.484 208.619 272.085 342.623 242.718C356.111 239.762 370.998 236.855 384.816 236.985ZM396.449 815.868C527.226 817.414 624.358 725.627 656.828 603.193C697.207 450.935 605.407 287.977 446.665 261.043C428.715 257.998 413.636 259.173 396.39 257.433L395.237 257.311C133.745 277.538 59.8544 597.472 248.475 758.717C279.261 785.035 319.522 804.03 359.214 811.565C371.636 813.823 385.417 813.888 396.449 815.868Z"/><path fill="#57341A" d="M480.736 397.522C533.848 392.814 619.537 416.063 614.701 483.435C614.086 491.999 612.439 500.592 612.837 509.167C613.221 513.802 616.83 518.117 618.192 522.441C631.17 563.655 612.793 605.873 579.498 631.441C573.728 635.872 558.546 644.281 555.923 650.476C549.48 665.7 548.591 705.041 539.549 717.202C523.054 728.074 494.067 714.031 474.839 711.596C464.645 710.306 431.185 703.134 424.804 698.605C408.017 686.692 430.446 639.625 429.719 622.493C428.892 616.283 426.239 609.64 424.757 603.564C415.486 565.558 431.755 530.948 436.173 493.98C436.395 492.119 429.377 482.226 428.957 478.521C424.454 438.804 439.976 406.4 480.736 397.522Z"/><path fill="#AF5E2E" d="M485.785 407.259C494.635 405.978 506.396 406.767 515.207 408.306C568.423 417.6 613.799 435.79 602.6 500.165C594.272 494.243 590.815 492.79 580.882 490.302L581.239 489.217C583.335 482.687 590.572 466.178 580.233 464.527C574.64 468.193 573.633 483.194 569.431 490.57C568.023 491.106 566.622 491.664 565.231 492.242C551.853 497.848 548.578 505.607 543.379 518.452C540.767 519.218 538.118 519.852 535.441 520.348C511.674 524.735 479.887 517.896 459.766 504.602C429.898 484.866 433.763 436.829 460.73 416.537C468.524 410.672 476.35 408.7 485.785 407.259Z"/><path fill="#81542F" d="M446.266 507.206C448.177 508.137 450.459 509.863 452.323 511.103C480.041 529.552 510.346 535.265 542.873 528.72C542.958 538.187 544.552 544.871 547.501 553.852C522.437 576.827 515.58 602.116 522.483 635.016C512.093 632.776 501.686 630.616 491.263 628.535L494.576 619.751C497.349 611.472 510.532 580.096 501.042 574.129C468.693 553.792 472.316 606.907 471.878 624.65C460.99 622.582 451.253 620.375 440.476 617.763C428.499 584.715 435.684 540.024 446.266 507.206Z"/><path fill="#AF5E2E" d="M573.326 500.027C606.967 500.772 615.158 536.626 609.856 564.045C604.133 593.643 585.968 617.048 560.76 632.936C554.151 637.102 551.06 641.019 542.753 639.404L532.091 637.418C524.36 604.503 527.901 587.331 550.906 562.43C554.034 567.101 557.46 573.527 562.557 575.484C565.829 574.721 564.344 575.466 566.891 572.71C567.999 563.524 529.213 514.271 573.326 500.027Z"/><path fill="#81542F" d="M489.875 637.938C498.309 641.021 533.885 647.891 544.824 650.205C542.894 660.699 535.87 702.495 531.94 710.274C521.6 713.48 490.076 704.291 477.937 701.465C485.371 684.165 491.202 656.799 489.875 637.938Z"/><path fill="#CC743A" d="M436.416 645.424C449.987 647.697 466.626 651.705 480.354 654.543C478.178 664.002 476.334 673.855 474.433 683.403C464.461 680.201 441.491 675.854 430.81 673.722C431.676 666.188 434.754 653.288 436.416 645.424Z"/><path fill="#81542F" d="M440.463 628.167C451.216 630.482 469.402 632.139 479.004 637.566C481.136 638.771 481.128 642.85 481.439 645.304C470.648 643.244 449.846 639.827 440.586 636.272C439.15 632.848 439.895 632.211 440.463 628.167Z"/><path fill="#81542F" d="M428.499 683.408C434.751 683.99 466.767 688.914 469.8 693.068L469.305 696.087C461.13 700.638 443.153 695.231 434.564 691.715C430.483 690.044 429.804 687.303 428.499 683.408Z"/><path fill="#57341A" d="M266.312 652.582C263.024 641.447 262.713 621.818 257.697 610.705C255.4 605.616 250.094 600.376 246.58 596.323C215.813 560.837 181.174 470.994 206.311 427.384C242.003 365.459 378.219 352.158 380.139 449.533C393.729 455.164 404.834 462.151 410.135 476.412C423.362 511.999 403.994 556.825 385.465 585.739L385.415 586.992C384.954 601.763 404.351 652.247 393.323 659.258C369.212 674.588 314.661 678.497 284.971 683.663C278.256 684.832 272.389 677.897 270.226 672.374C268.208 669.986 266.479 656.399 266.312 652.582Z"/><path fill="#936A40" d="M269.697 612.681C302.171 606.845 344.536 600.197 376.15 592.335C378.078 603.737 390.996 653.091 380.618 655.333C368.138 658.029 289.325 677.746 281.148 670.907C278.555 665.087 275.209 646.88 274.971 640.081L273.441 635.298C272.959 631.223 271.965 626.17 271.258 622.039L269.697 612.681Z"/><path fill="#57341A" d="M350.603 606.315C353.563 605.662 353.432 605.639 356.412 606.074C363.246 611.333 369.06 645.973 364.679 648.171C348.819 656.126 315.94 660.006 298.159 663.208C287.682 665.376 287.64 653.791 286.55 646.41C285.405 638.665 281.292 628.916 283.625 621.359C288.197 617.519 340.862 608.182 350.603 606.315Z"/><path fill="#89944D" d="M349.766 615.281C351.385 615.162 350.79 615.172 352.427 615.771C354.789 621.361 356.149 634.764 358.171 642.184L358.468 643.253C338.709 646.864 318.975 650.608 299.266 654.487C298.237 654.717 298.265 654.475 296.967 654.082C295.362 650.206 292.546 632.166 291.485 626.564C310.638 622.305 330.444 618.868 349.766 615.281Z"/><path fill="#57341A" d="M274.971 640.081C275.209 646.88 278.555 665.087 281.148 670.907C278.266 671.551 277.921 671.951 275.929 674.132C273.242 674.035 272.6 673.529 270.226 672.374C268.208 669.986 266.479 656.399 266.312 652.582C267.76 648.426 267.557 644.432 267.697 639.992C268.836 641.633 269.514 642.163 270.948 643.533L273.401 643.388L274.971 640.081Z"/><path fill="#4C2912" d="M273.441 635.298L272.626 636.792C271.578 634.071 269.512 635.188 267.246 630.086C267.38 626.514 269.072 624.973 271.258 622.039C271.965 626.17 272.959 631.223 273.441 635.298Z"/><path fill="#CC743A" d="M300.368 389.411C363.697 385.191 374.202 433.922 369.84 484.613C369.14 492.753 364.911 503.533 371.764 508.147C381.866 506.987 380.058 467.276 379.998 459.107C416.288 476.262 403.785 529.004 390.881 557.605C387.149 565.875 381.859 574.183 377.147 581.955C367.669 584.85 356.975 586.46 347.161 588.223C320.671 593.271 292.459 599.192 265.952 603.361C236.045 577.415 220.741 532.129 211.761 494.601C195.506 426.664 236.588 395.05 300.368 389.411Z"/><path fill="#E0A06A" d="M265.64 408.822C271.221 408.65 275.122 409.519 276.951 415.225C275.072 421.872 255.458 430.687 248.051 437.581C234.242 450.434 240.746 477.182 232.731 486.148C214.376 486.314 222.279 456.023 225.641 445.705C232.575 424.421 246.676 417.405 265.64 408.822Z"/><path fill="#CC743A" d="M396.846 837.494C320.412 832.967 265.187 807.779 211.041 753.203C153.048 693.994 120.655 614.36 120.851 531.481C121.566 397.484 208.619 272.085 342.623 242.718C356.111 239.762 370.998 236.855 384.816 236.985C391.427 237.335 397.858 237.4 404.468 237.482C404.215 242.531 403.902 247.115 404.185 252.174C400.938 258.425 398.279 255.505 395.237 257.311C133.745 277.538 59.8544 597.472 248.475 758.717C279.261 785.035 319.522 804.03 359.214 811.565C371.636 813.823 385.417 813.888 396.449 815.868C399.349 816.48 402.45 816.434 403.21 818.884C405.575 826.502 404.551 829.184 402.096 835.811C399.905 837.382 399.504 837.193 396.846 837.494Z"/><path fill="#936A40" d="M2395.42 236.381C2399.37 235.603 2415.76 235.759 2420.24 235.909C2464.12 237.495 2506.93 249.062 2545.5 270.178C2710.55 360.546 2740.28 592.627 2622.75 733.418C2586.64 776.677 2541.4 809.42 2487.08 826.102C2431.02 843.418 2370.73 841.012 2316.23 819.285C2298.27 812.128 2277.93 800.929 2260.66 791.8C2254.87 798.686 2247.41 805.91 2240.93 812.229C2143.52 907.267 2034.78 998.776 1924.39 1077.98C1914.52 1085.65 1855.99 1123.85 1854.13 1130.04C1860.79 1134.74 1877.26 1129.6 1880.58 1139.2C1874.4 1150.35 1836.75 1142.05 1829.95 1140.32C1824.62 1138.96 1835.5 1088.65 1846.62 1088.59C1854.12 1094.58 1848.94 1109.42 1847.48 1118.03C1861.8 1106.93 1877.72 1096.19 1892.44 1085.39C1924.22 1061.84 1955.88 1038.12 1987.4 1014.22C2048.57 967.355 2098.2 925.016 2155.77 873.923C2174.43 857.208 2192.87 840.249 2211.09 823.051C2215.32 819.077 2251.21 786.595 2248.48 783.05C2240.8 773.089 2226.26 762.66 2217.15 753.271C2184.47 719.92 2163.07 680.787 2146.64 637.506C2134.92 606.618 2131.73 586.176 2129.11 553.534C2122.77 474.029 2147.91 395.216 2199.13 334.071C2250.88 273.437 2316.79 242.737 2395.42 236.381ZM2434.24 815.266C2497.88 806.642 2540.58 786.26 2586.61 741.295C2709.76 620.983 2702.15 414.066 2564.56 307.953C2513.89 268.874 2450.77 254.316 2387.4 258.497C2327.17 266.769 2277.51 285.682 2233.27 328.195C2107.68 448.872 2127.67 663.158 2263.81 765.951C2302.23 794.972 2348.23 812.245 2396.25 815.68C2403.71 816.267 2427.66 817.213 2434.24 815.266Z"/><path fill="#57341A" d="M2311.95 399.271C2341.15 397.164 2355.25 405.025 2373.7 426.677C2375.33 426.518 2376.96 426.423 2378.59 426.39C2392.34 426.175 2408.13 431.698 2417.98 441.452C2430.79 454.146 2431.14 468.841 2431.5 485.571C2443.92 492.019 2452.3 499.058 2459.38 511.512C2466.98 524.638 2469 540.266 2464.99 554.894C2455.34 589.589 2420.64 608.784 2385.95 598.938C2371.37 613.82 2365.36 617.548 2344.7 622.472C2315.58 625.684 2296.81 621.741 2275.7 601.129C2229.18 615.73 2188.94 586.974 2191.23 537.073C2192.14 517.337 2202.4 504.482 2216.74 491.855C2213.95 459.948 2235.64 436.489 2267.17 434.285C2282.78 414.766 2283.67 405.13 2311.95 399.271Z"/><path fill="#936A40" d="M2273.93 444.345C2279.29 432.451 2284.11 424.031 2295.56 416.785C2306.83 409.767 2320.47 407.616 2333.35 410.824C2350.97 415.058 2359.39 424.825 2368.27 439.499C2402.41 429.598 2425.43 453.141 2421.68 487.481C2421.36 490.462 2423.52 491.699 2425.38 493.323C2435.54 496.45 2445.63 505.869 2450.59 515.205C2457.01 527.506 2458.34 541.835 2454.31 555.11C2450.06 568.839 2441.23 579.852 2428.37 586.412C2416.51 592.464 2402.72 593.548 2390.05 589.427C2387.89 588.694 2385.74 587.917 2383.6 587.097C2351.68 622.67 2311.02 622.095 2277.42 588.972C2270.23 591.625 2263.6 594.523 2255.92 594.713C2213.95 595.748 2195.36 563.999 2203.57 526.827C2209.45 511.448 2216.41 505.78 2229.53 496.7C2222.88 462.472 2240.79 445.442 2273.93 444.345Z"/><path fill="#81542F" d="M2425.38 493.323C2435.54 496.45 2445.63 505.869 2450.59 515.205C2457.01 527.506 2458.34 541.835 2454.31 555.11C2450.06 568.839 2441.23 579.852 2428.37 586.412C2416.51 592.464 2402.72 593.548 2390.05 589.427C2387.89 588.694 2385.74 587.917 2383.6 587.097C2351.68 622.67 2311.02 622.095 2277.42 588.972C2270.23 591.625 2263.6 594.523 2255.92 594.713C2213.95 595.748 2195.36 563.999 2203.57 526.827C2215.18 562.774 2243.74 570.732 2276.73 557.161C2311.21 587.244 2350.16 581.071 2373.48 541.779C2382.13 542.213 2390.34 543.178 2398.69 540.685L2400.56 540.727C2404.12 539.265 2404.2 538.722 2406.45 535.367C2424.34 525.131 2426.83 512.224 2425.38 493.323Z"/><path fill="#57341A" d="M2398.69 540.685C2397.6 539.429 2396.47 538.209 2395.29 537.028C2384.21 525.99 2373.7 535.182 2364.61 535.189C2362.01 532.929 2362.94 534.304 2361.97 530.756C2364.51 523.444 2376.49 521.872 2383.36 522.373C2393.94 523.145 2399.76 527.601 2406.45 535.367C2404.2 538.722 2404.12 539.265 2400.56 540.727L2398.69 540.685Z"/><path fill="#57341A" d="M2285.23 467.241C2289.55 467.266 2295.83 468.769 2300.84 469.058C2308.77 469.516 2318.38 469.596 2320.16 478.757C2314.72 483.704 2292.63 475.356 2283.18 477.145C2270.33 483.474 2273.28 494.08 2264.24 497.263C2261.99 495.542 2262.68 496.067 2261.41 493.175C2261.44 488.357 2264.62 482.784 2267.04 478.57C2271.41 470.958 2277.35 469.147 2285.23 467.241Z"/><path fill="#57341A" d="M2239.28 531.444C2241.7 529.928 2244.88 530.556 2246.55 532.878C2248.21 535.2 2247.78 538.415 2245.57 540.219C2244.01 541.489 2241.87 541.788 2240.02 540.996C2238.17 540.203 2236.92 538.449 2236.76 536.443C2236.61 534.438 2237.58 532.512 2239.28 531.444Z"/><path fill="#57341A" d="M2319.21 552.481C2321.91 552.227 2324.34 554.142 2324.71 556.827C2325.09 559.513 2323.28 562.019 2320.62 562.517C2318.78 562.86 2316.91 562.166 2315.74 560.712C2314.57 559.257 2314.29 557.277 2315.01 555.557C2315.74 553.837 2317.35 552.655 2319.21 552.481Z"/><path fill="#57341A" d="M2350.95 450.694C2353.35 450.198 2355.69 451.719 2356.22 454.104C2356.74 456.49 2355.25 458.854 2352.87 459.406C2351.3 459.77 2349.66 459.263 2348.58 458.082C2347.49 456.9 2347.12 455.224 2347.61 453.695C2348.11 452.167 2349.38 451.02 2350.95 450.694Z"/><path fill="#57341A" d="M2538.26 378.035C2549.81 377.742 2615.05 396.789 2622.4 404.754C2627.68 418.316 2615.93 440.262 2607.09 450.467C2599.42 459.316 2588.7 463.846 2578.16 468.298C2560.24 509.395 2549.32 561.166 2535.16 604.121C2531.37 615.624 2538.31 620.419 2532.65 636.24C2545.49 642.172 2556.19 643.362 2570.43 651.237C2571.27 653.235 2573.53 658.311 2573 660.15C2568.35 676.432 2563.47 694.836 2559.69 711.23C2553.29 739.049 2533.73 756.202 2509.84 769.84C2497.73 775.999 2475.01 782.548 2461.22 781.436C2414.72 733.957 2409.24 706.509 2429.38 645.366C2438.53 607.67 2446.41 610.694 2479.16 622.67C2487.25 625.628 2487.36 607.275 2497.6 600.217C2505.01 568.554 2517.84 534.093 2526.57 502.326C2530.65 487.479 2536.72 471.57 2539.03 456.3C2522.11 440.143 2518.3 422.189 2523.3 399.267C2525.53 389.039 2529.33 383.552 2538.26 378.035ZM2583.65 432.397C2587.14 428.862 2586.92 430.123 2587.75 425.993C2584.16 418.96 2559.54 415.223 2551.45 413.504C2552.57 432.116 2567.11 445.822 2583.65 432.397Z"/><path fill="#A7A5A0" d="M2527.5 646.695C2538.21 650.048 2554.6 654.217 2564.23 657.915C2553.04 696.678 2546.41 741.244 2508.85 759.384C2499.45 763.923 2474.87 773.867 2464.97 771.73C2468.58 768.071 2483.99 707.153 2488.47 696.965C2507.32 697.131 2521.54 662.201 2527.5 646.695Z"/><path fill="#DADCD8" d="M2446.95 623.137C2458.91 626.075 2471.55 630.173 2483.4 633.794C2479.99 650.111 2472.43 686.589 2488.47 696.965C2483.99 707.153 2468.58 768.071 2464.97 771.73C2408.76 722.428 2428.87 682.319 2446.95 623.137Z"/><path fill="#A7A5A0" d="M2539.78 387.486C2542.87 387.846 2559.94 393.052 2564.28 394.367C2580.94 399.41 2598.64 404.062 2615.07 409.588C2609.3 432.663 2604.6 447.662 2581.15 456.857C2565.08 460.831 2567.58 461.472 2563.49 477.65L2545.08 472.147C2547.47 467.087 2549.32 460.393 2551.01 454.931C2540.89 444.784 2534.88 438.549 2532.4 423.308C2530.74 413.186 2533.68 395.562 2539.78 387.486ZM2583.65 432.397C2587.14 428.862 2586.92 430.123 2587.75 425.993C2584.16 418.96 2559.54 415.223 2551.45 413.504C2552.57 432.116 2567.11 445.822 2583.65 432.397Z"/><path fill="#57341A" d="M2545.59 400.384C2552 401.306 2594 414.249 2599.11 416.732C2604.39 423.863 2594.42 435.02 2589.62 440.304C2563.61 463.641 2532.92 433.78 2545.59 400.384ZM2583.65 432.397C2587.14 428.862 2586.92 430.123 2587.75 425.993C2584.16 418.96 2559.54 415.223 2551.45 413.504C2552.57 432.116 2567.11 445.822 2583.65 432.397Z"/><path fill="#D08B52" d="M2543.46 481.93L2560.55 487.018C2548.1 525.636 2536.51 568.039 2525.06 607.187C2519.44 605.171 2512.89 603.223 2507.14 601.359C2519.68 562.092 2531.38 521.5 2543.46 481.93Z"/><path fill="#A7A5A0" d="M2500.33 609.71L2514.41 614.037C2518.01 615.164 2522.64 616.463 2526.08 617.801C2520.34 639.271 2509.55 671.823 2492.82 686.967C2483.79 684.074 2491.34 644.665 2493.28 636.469C2493.51 630.559 2498.35 615.522 2500.33 609.71Z"/><path fill="#DADCD8" d="M2500.33 609.71L2514.41 614.037C2510.07 616.513 2508.04 622.664 2507.05 627.599C2505.11 637.321 2497.18 649.59 2495.94 658.491C2493.32 668.233 2489.51 677.511 2492.82 686.967C2483.79 684.074 2491.34 644.665 2493.28 636.469C2493.51 630.559 2498.35 615.522 2500.33 609.71Z"/><path fill="#57341A" d="M2260.86 620.12C2291.17 622.818 2306.56 656.518 2264.54 660.972C2247.29 659.539 2238.45 661.817 2232.65 643.498C2238.66 627.777 2244.8 623.589 2260.86 620.12Z"/><path fill="#936A40" d="M2258.09 630.115C2265.77 628.872 2278.15 633.143 2279.81 641.835C2281.41 650.227 2271.16 650.671 2265.29 651.259C2257.99 650.594 2244.2 651.481 2244.44 641.801C2247.35 636.063 2252.65 633.462 2258.09 630.115Z"/><path fill="#57341A" d="M1354.87 1436.06C1261.97 1433.83 1172.75 1399.36 1102.48 1338.57C1089.17 1327.26 1075.26 1310.61 1061.93 1298.3C1047.93 1285.37 1025.36 1273.97 1012.97 1261.16C1002.94 1250.8 997.536 1236.82 997.984 1222.41C999.052 1182.49 1041.81 1171.2 1064.62 1147.12C1088 1122.45 1106.52 1098.03 1131.91 1074.73C1210.63 1002.49 1329.62 979.685 1433.01 984.257C1499.31 986.594 1564.43 1002.55 1624.31 1031.13C1664.95 1050.36 1695.22 1072.53 1725.25 1106.7C1740.69 1124.28 1753.04 1144.12 1768.75 1161.45C1781.97 1176.81 1801.13 1186.82 1811.77 1203.26C1822.29 1219.5 1817.79 1240.57 1806.71 1255.08C1794.83 1270.63 1780.66 1281.63 1767.26 1295.65C1753.14 1311.82 1744.21 1324 1728.22 1338.96C1655.45 1407.01 1567.31 1427.29 1470.42 1436.42C1446.89 1439.47 1377.86 1439.54 1354.87 1436.06Z"/><path fill="#4C2912" d="M1354.87 1436.06C1363.09 1435.2 1465.97 1435.16 1470.42 1436.42C1446.89 1439.47 1377.86 1439.54 1354.87 1436.06Z"/><path fill="#D08B52" d="M1018.2 1200.59C1034.38 1181.73 1056.49 1172.85 1075.22 1153.61C1095.49 1132.78 1112.45 1110.66 1133.15 1090.66C1196.17 1029.76 1279.14 1004.91 1365.28 998.272C1474.82 989.834 1599.42 1013.18 1686.15 1084.83C1714.2 1108.01 1734.4 1140.81 1758.42 1168.45C1772.55 1184.7 1782.57 1189.01 1795.03 1201.35C1800.8 1206.09 1802.44 1210.23 1805.4 1216.85C1807.02 1229.17 1805.29 1238.53 1797.37 1248.41C1787.17 1261.12 1773.09 1270.9 1762.27 1283.06C1744.73 1302.76 1727.92 1323.02 1707.76 1340.17C1650.12 1390.18 1567.86 1413.71 1493.17 1421.98C1373.93 1435.17 1228.52 1423.29 1131.2 1346.42C1109.17 1329.02 1090.16 1307.75 1069.24 1288.95C1054.22 1275.46 1035.35 1266.64 1021.46 1252.61C1015.72 1246.81 1011.53 1238.03 1010.48 1229.88C1010 1226.22 1010.13 1222.51 1010.85 1218.9C1012.26 1211.18 1014.13 1207.16 1018.2 1200.59Z"/><path fill="#CC743A" d="M1805.4 1216.85C1807.02 1229.17 1805.29 1238.53 1797.37 1248.41C1787.17 1261.12 1773.09 1270.9 1762.27 1283.06C1744.73 1302.76 1727.92 1323.02 1707.76 1340.17C1650.12 1390.18 1567.86 1413.71 1493.17 1421.98C1373.93 1435.17 1228.52 1423.29 1131.2 1346.42C1109.17 1329.02 1090.16 1307.75 1069.24 1288.95C1054.22 1275.46 1035.35 1266.64 1021.46 1252.61C1015.72 1246.81 1011.53 1238.03 1010.48 1229.88C1010 1226.22 1010.13 1222.51 1010.85 1218.9C1010.96 1221.56 1010.7 1226.8 1012.83 1228.52C1021.05 1235.15 1032.02 1239.56 1041.69 1243.93C1067.26 1255.48 1089.37 1273 1112.23 1288.98C1115.73 1291.43 1123.5 1297.74 1127.4 1297.56C1128.77 1295.57 1128.64 1293.93 1128.85 1291.5C1128.86 1300.75 1131.23 1323.09 1143.34 1324.94C1149.31 1321.13 1146.47 1315.46 1145.87 1310.39C1157.7 1315.14 1170.55 1322.52 1182.23 1326.95C1220.8 1341.54 1275.27 1356.77 1316.04 1359.89L1317.74 1359.1C1318.09 1353.06 1317.31 1344.34 1324.6 1343.41C1330.8 1347.12 1326.76 1354 1327.11 1361.64C1433.84 1373.3 1580.78 1363.6 1675.84 1311.55C1673.68 1318.05 1669.66 1325.57 1676.89 1329.87C1687.48 1328.72 1691.34 1311.52 1692.28 1302.66C1697.66 1297.74 1711.64 1291.28 1718.58 1286.18C1746.75 1265.49 1774.33 1244.58 1803.74 1225.63C1805.33 1224.61 1805.29 1218.83 1805.4 1216.85Z"/><path fill="#AF5E2E" d="M1317.74 1359.1C1318.09 1353.06 1317.31 1344.34 1324.6 1343.41C1330.8 1347.12 1326.76 1354 1327.11 1361.64C1328.21 1368.87 1336.04 1381.12 1330.52 1385.61C1321.35 1384.96 1317.24 1366.74 1317.74 1359.1Z"/><path fill="#AF5E2E" d="M1543.38 1365.51C1558.32 1373.76 1543.57 1396.6 1532.89 1403.59C1530.18 1401.11 1529.01 1400.57 1528.34 1397.2C1531.45 1391.64 1534.69 1384.49 1536.83 1378.46C1539.29 1371.55 1536.76 1370.73 1543.38 1365.51Z"/><path fill="#E0A06A" d="M1018.2 1200.59C1034.38 1181.73 1056.49 1172.85 1075.22 1153.61C1095.49 1132.78 1112.45 1110.66 1133.15 1090.66C1196.17 1029.76 1279.14 1004.91 1365.28 998.272C1474.82 989.834 1599.42 1013.18 1686.15 1084.83C1714.2 1108.01 1734.4 1140.81 1758.42 1168.45C1772.55 1184.7 1782.57 1189.01 1795.03 1201.35C1775.23 1203.54 1737.17 1166.16 1724.17 1151.76C1682.65 1105.71 1627.92 1075.93 1569.16 1057.8C1561.58 1055.46 1552.15 1052.75 1544.3 1051.8C1542.79 1042.61 1539.03 1026.74 1528.23 1024.57C1520.48 1028.27 1526.48 1039.42 1528.7 1045.27L1527.37 1046.78C1517.3 1045.27 1507.28 1042.64 1497.36 1041.26C1378.6 1024.82 1245.79 1038.66 1147.01 1112.12C1123.15 1129.87 1103.02 1151.47 1080.14 1170.08C1068.19 1179.8 1034.69 1200.05 1019.52 1200.54L1018.2 1200.59Z"/><path fill="#AF5E2E" d="M1675.84 1311.55C1680.49 1300.34 1671.21 1282.13 1680.75 1277.87C1691.13 1279.85 1691.57 1294.1 1692.28 1302.66C1691.34 1311.52 1687.48 1328.72 1676.89 1329.87C1669.66 1325.57 1673.68 1318.05 1675.84 1311.55Z"/><path fill="#AF5E2E" d="M1528.7 1045.27C1526.48 1039.42 1520.48 1028.27 1528.23 1024.57C1539.03 1026.74 1542.79 1042.61 1544.3 1051.8C1543.55 1061.79 1544.46 1069.73 1535.22 1075.89C1533.45 1077.06 1533.19 1076.55 1531.48 1075.95C1526.75 1068.82 1530.46 1057.01 1528.9 1046.59L1528.7 1045.27Z"/><path fill="#AF5E2E" d="M1128.85 1291.5C1129.32 1285.93 1129.88 1279.44 1134.14 1275.54C1137.72 1274.28 1135.99 1274.27 1139.52 1275.49C1146.29 1284.3 1134.84 1298.62 1145.87 1310.39C1146.47 1315.46 1149.31 1321.13 1143.34 1324.94C1131.23 1323.09 1128.86 1300.75 1128.85 1291.5Z"/><path fill="#57341A" d="M1363.61 1210.25C1375.35 1209.92 1392.44 1213.27 1405.58 1213.2C1419.17 1215.1 1434.34 1210.26 1447.04 1210.25C1473.25 1210.25 1450.62 1243.15 1444.1 1250.13C1432.28 1259.76 1417.06 1264.18 1401.93 1262.39C1387.44 1260.79 1374.21 1253.43 1365.21 1241.96C1357.62 1232.27 1352.03 1219.44 1363.61 1210.25Z"/><path fill="#EE886E" d="M1405.29 1231.39C1419.64 1231.46 1426.78 1232.59 1437.88 1241.81C1429.51 1249 1423.78 1251.16 1413.24 1253.33C1398.1 1253.33 1389.75 1251.77 1378.08 1241.43C1388.32 1233.97 1392.77 1232.29 1405.29 1231.39Z"/><path fill="#57341A" d="M1192.75 1258.49C1202.51 1260.28 1203.51 1272.72 1209.54 1281.15C1222.12 1298.75 1236.08 1304.58 1256.42 1308.28C1261.7 1301.96 1271.56 1288.66 1280.54 1289.61C1289.57 1294.73 1282.43 1300.52 1282.42 1303.4C1288.89 1303.93 1298.23 1300 1299.01 1311.61C1296.92 1314.54 1294.58 1314.45 1290.64 1316.51L1290.58 1317.77C1292.95 1319.36 1294.35 1319.92 1296.97 1321.1C1298.02 1324.46 1297.97 1324.94 1297.58 1328.45C1292.97 1335.16 1289.87 1329.18 1284.41 1331.81L1286.11 1336.48C1285.86 1339.57 1285.59 1339.75 1283.91 1342.48C1273.93 1347.99 1259.87 1328.68 1254.67 1321.52C1224.25 1315.01 1197.83 1300.2 1188.76 1266.96C1187.87 1263.72 1190.68 1260.62 1192.75 1258.49Z"/><path fill="#57341A" d="M1618.74 1258.62C1621.79 1258.92 1622.1 1259.11 1624.99 1260.3C1631.48 1268.06 1623.94 1278.8 1619.13 1286C1604.36 1308.11 1587.39 1316.32 1561.97 1321.32C1555.97 1329.22 1541.48 1350.54 1531.07 1339.58C1529.97 1335.04 1530 1336.95 1531.77 1331.9C1527.1 1329.71 1527.25 1332.98 1521.69 1331.43C1518.81 1328.76 1518.85 1327.88 1517.63 1323.94C1520.56 1320.41 1521.66 1319.87 1525.88 1318.08C1521.95 1315.83 1519.71 1314.85 1518.01 1310.81C1518.16 1306.86 1517.82 1308.36 1520.04 1304.87C1524.24 1302.72 1529.2 1303.31 1534.06 1303.44C1532.25 1300.11 1531.96 1299.38 1531.02 1295.71C1531.98 1291.07 1532.15 1289.86 1536.89 1288.87C1546.64 1291.4 1553.72 1301.14 1559.68 1308.76C1583.03 1304.31 1599.4 1296.29 1610.36 1274.95C1613.08 1269.65 1615.36 1263.27 1618.74 1258.62Z"/><path fill="#57341A" d="M1320.81 1162.48C1331.42 1162.01 1340.4 1170.24 1340.87 1180.85C1341.34 1191.46 1333.12 1200.44 1322.5 1200.91C1311.89 1201.39 1302.9 1193.16 1302.43 1182.54C1301.96 1171.93 1310.19 1162.94 1320.81 1162.48Z"/><path fill="#57341A" d="M1493.21 1162.47C1503.56 1161.64 1512.7 1169.17 1513.86 1179.49C1515.01 1189.81 1507.77 1199.19 1497.49 1200.67C1490.55 1201.67 1483.62 1198.81 1479.4 1193.21C1475.18 1187.61 1474.34 1180.15 1477.21 1173.76C1480.09 1167.36 1486.22 1163.04 1493.21 1162.47Z"/><path fill="#E0A06A" d="M1508.74 1212.3C1534.27 1210.81 1552.77 1230.01 1521.81 1239.24C1489.41 1241.65 1475.91 1219.08 1508.74 1212.3Z"/><path fill="#E0A06A" d="M1299.13 1212.29C1328 1210.67 1338.29 1234.33 1306.73 1239.57C1274.07 1240.06 1268.09 1216.72 1299.13 1212.29Z"/><path fill="#AF5E2E" d="M1182.57 1092.73C1197.65 1093.46 1185.09 1109.95 1184.96 1118.76C1184.8 1129.24 1190.9 1133.13 1184.46 1142.39C1181.33 1142.34 1181.1 1142.42 1178.32 1141.17C1167.6 1130.28 1172.36 1102.71 1182.57 1092.73Z"/><path fill="#AF5E2E" d="M1668.1 1109.41C1682.58 1115.29 1676.46 1143.84 1668.38 1153.79C1665.19 1152.24 1665 1152.22 1662.76 1149.57C1662.1 1144.37 1665.57 1142.26 1666.3 1136.12C1667.44 1126.5 1662.95 1117.55 1668.1 1109.41Z"/><path fill="#AF5E2E" d="M1757.6 1211.35C1759.66 1211.9 1763.4 1213.22 1763.42 1215.7C1763.52 1224.98 1766.8 1236.83 1762.01 1244.79C1750.4 1241.55 1752.03 1218.04 1757.6 1211.35Z"/><path fill="#AF5E2E" d="M1059.93 1204.28C1070.13 1205.89 1065.82 1216.18 1066.71 1224.06C1067.21 1228.42 1068.14 1232.38 1066.25 1236.4C1051.27 1236.05 1056.69 1213.12 1059.93 1204.28Z"/><path fill="#AF5E2E" d="M1304.02 1049.49L1307.56 1049.97C1312.82 1055.04 1308.4 1073.69 1304.33 1078.07C1302.32 1077.9 1301.69 1077.38 1299.88 1076.46C1294.99 1069.54 1299.33 1055.6 1304.02 1049.49Z"/><path fill="#68ADC4" d="M1051.14 237.398C1059.18 235.958 1073.54 236.242 1081.93 236.562C1312.62 245.357 1437.82 511.267 1293.77 693.474C1285.68 703.706 1276.2 712.233 1266.82 721.119C1284.81 745.124 1309.19 796.134 1319.15 824.367C1327.86 849.75 1335.54 875.477 1342.16 901.485C1343.64 907.379 1348.49 933.109 1351.2 935.748C1356.3 932.041 1355.46 917.061 1365.92 913.751C1369.39 913.959 1369.61 913.868 1372.25 915.908C1374.14 923.025 1370.97 923.568 1368.35 929.919C1365.24 937.45 1355.58 960.926 1348.09 963.536C1339.3 960.597 1329.95 951.112 1322.67 945.243C1317.05 940.716 1307.83 934.163 1308.54 926.398L1310.68 924.832C1324.31 922.567 1324.36 932.219 1336.45 940.276C1332.12 915.435 1321.72 874.791 1313.9 850.32C1309.28 826.854 1274.71 754.988 1259.47 733.205C1258.99 732.908 1258.5 732.612 1258.02 732.315C1207.76 768.799 1164.95 791.811 1101.38 797.682C852.297 820.684 694.159 533.98 858.861 337.067C906.832 279.202 976.203 243.243 1051.14 237.398ZM1083.48 778.141C1226.85 772.558 1338.7 652.08 1333.64 508.694C1328.57 365.307 1208.5 253.021 1065.09 257.568C920.956 262.138 807.968 382.961 813.059 527.081C818.15 671.202 939.38 783.752 1083.48 778.141Z"/><path fill="#4B8599" d="M1159.83 668.456C1145.36 684.39 1113.87 696.051 1092.8 699.22C1058.16 704.289 1022.93 695.341 994.912 674.359C950.538 641.073 930.813 583.846 949.306 530.815C971.976 467.353 1010.99 410.191 1047.97 354.297C1051.55 348.891 1071.58 313.218 1078.77 323.996C1085.01 333.359 1094.64 346.425 1100.72 355.934C1134.72 409.06 1182.48 473.475 1200.37 534.276C1204.09 547.182 1205.99 560.541 1206.03 573.971C1206.21 607.203 1188.99 639.878 1165.93 663.027C1163.97 664.787 1161.83 666.789 1159.83 668.456Z"/><path fill="#B3DDEA" d="M1074.02 336.527C1109.5 389.61 1190.37 503.14 1194.02 564.512C1196.02 598.011 1183.77 627.316 1161.73 651.976C1158.01 655.501 1153.54 659.97 1149.68 663.176C1133.25 675.304 1120.47 682.566 1099.99 686.909C1068.52 693.877 1035.56 687.917 1008.52 670.367C981.135 652.737 962.036 624.788 955.562 592.868C952.474 577.573 952.783 561.787 956.467 546.625C969.957 490.135 1039.67 387.26 1074.02 336.527Z"/><path fill="#936A40" d="M991.624 552.754C1003.81 528.229 1017.96 511.331 1045.18 502.306C1068.71 494.535 1094.39 496.56 1116.42 507.923C1139.32 519.788 1145.55 532.385 1158.23 553.242C1160.94 557.69 1170.69 561.727 1171.75 568.32C1176.17 585.16 1164.78 588.754 1155.88 598.907C1152.42 602.855 1148.22 612.497 1144.81 617.363C1129.76 638.836 1110.84 644.491 1087.09 650.645C1074.56 651.802 1067.27 651.018 1055 649.68C1037.89 644.629 1020.18 637.525 1008.78 623.217C1002.66 615.548 997.612 607.421 991.954 599.237C986.033 590.673 971.468 582.376 974.936 570.002C977.759 561.848 984.896 557.325 991.624 552.754Z"/><path fill="#F9DD5D" d="M1064.36 507.333C1096.32 504.384 1129.93 517.001 1144.74 548.953C1151.36 563.226 1159.5 561.677 1163.72 572.772C1167 581.383 1152.12 588.24 1148.33 593.452C1133.98 623.136 1117.23 637.06 1082.32 642.014C1053.27 645.579 1019.21 630.338 1005.45 603.673C1003.67 600.218 1000.97 595.208 998.715 592.099C994.202 586.39 985.966 584.979 984.543 576.993C982.543 565.768 992.595 565.021 997.378 558.911C1001.7 553.384 1006.19 544.938 1010.36 538.691C1024.07 518.163 1040.87 511.468 1064.36 507.333Z"/><path fill="#57341A" d="M1072.62 579.489C1079.73 579.196 1084.48 577.532 1089.54 582.826C1092.51 591.716 1083.97 596.975 1076.68 599.713C1068 599.284 1060.14 595.958 1057.95 586.64C1058.72 582.484 1058 584.032 1060.66 580.755C1064.22 578.754 1068.34 579.395 1072.62 579.489Z"/><path fill="#F5E3BE" d="M1058.47 518.322C1062.77 517.956 1064.2 517.659 1067.58 519.55L1067.71 521.048C1064.96 524.479 1047.61 529.425 1040.88 532.629C1038.13 533.879 1035.58 535.133 1033.22 532.72L1033.51 530.522C1038.9 522.472 1049.8 520.364 1058.47 518.322Z"/><path fill="#EE886E" d="M1030.57 579.031C1036.04 578.599 1043.05 578.055 1045.64 583.886C1044.12 587.67 1044.59 586.495 1040.88 589.313C1035.43 589.84 1029.07 589.838 1026.26 584.555C1027.29 580.948 1027.17 581.949 1030.57 579.031Z"/><path fill="#81542F" d="M1042.62 559.515C1045.09 558.48 1047.94 558.895 1050.02 560.595C1052.1 562.295 1053.07 565.002 1052.55 567.636C1052.02 570.27 1050.09 572.401 1047.52 573.178C1043.82 574.298 1039.89 572.319 1038.58 568.677C1037.27 565.035 1039.05 561.007 1042.62 559.515Z"/><path fill="#57341A" d="M1100.58 559.471C1103.09 558.602 1105.89 559.197 1107.83 561.017C1109.78 562.836 1110.56 565.582 1109.86 568.153C1109.16 570.723 1107.1 572.697 1104.5 573.283C1100.78 574.121 1097.05 571.904 1096 568.233C1094.96 564.562 1096.97 560.715 1100.58 559.471Z"/><path fill="#EE886E" d="M1107.63 578.968C1112.98 578.666 1119.91 578.437 1121.98 584.329C1120.15 587.741 1120.52 586.771 1116.81 589.141C1111.53 589.864 1105.61 589.911 1103.05 584.584C1104.23 580.806 1103.96 581.928 1107.63 578.968Z"/><path fill="#DADCD8" d="M1049.12 408.382C1060.54 411.81 1038.8 460.302 1033.43 466.937C1027.21 474.615 1025.88 478.727 1015.52 480.693C1000.29 466.021 1037.4 419.159 1049.12 408.382Z"/><path fill="#DADCD8" d="M1001.61 488.553C1004.62 487.341 1008.06 487.881 1010.56 489.959C1013.07 492.037 1014.23 495.318 1013.59 498.507C1012.95 501.695 1010.61 504.277 1007.51 505.232C1002.97 506.625 998.143 504.194 996.561 499.721C994.978 495.247 997.204 490.322 1001.61 488.553Z"/><path fill="#EEBC5B" d="M1717.38 237.356C1870.96 228.587 1998.59 328.683 2020.28 482.124C2041.52 632.338 1932.74 774.453 1782.53 795.429C1693.11 807.916 1627.75 783.717 1556.58 731.416C1541.63 757.351 1528.09 784.08 1516.04 811.484C1509.88 826.135 1505.36 842.959 1500.46 858.176C1491.42 886.191 1483.87 911.051 1478.51 940.087C1485.69 934.005 1494.36 927.379 1502.37 922.532L1507.6 931.928C1502.58 937.624 1472.62 965.08 1466.21 964.024C1458.62 957.292 1454.86 944.756 1450.47 935.67C1447.54 929.62 1442.08 920.427 1446.37 914.332C1458.45 911.605 1461.7 930.221 1466.28 939.426C1476.95 875.558 1510.36 774.305 1548.31 722.127C1503.84 672.939 1474.02 627.611 1463.87 560.788C1448.3 458.334 1489.57 357.393 1571.99 294.592C1617.39 260.001 1661.02 245.241 1717.38 237.356ZM1746.5 778.652C1890.39 776.231 2005.13 657.718 2002.89 513.824C2000.65 369.93 1882.28 255.043 1738.39 257.099C1594.23 259.159 1479.09 377.785 1481.34 521.937C1483.58 666.089 1602.35 781.076 1746.5 778.652Z"/><path fill="#57341A" d="M1776.1 512.614C1778.03 506.281 1777.54 507.434 1778.02 501.101C1785.11 503.889 1802.24 503.557 1810.49 504.812C1826.35 507.224 1875.47 513.466 1883.16 527.894C1884.38 530.17 1884.56 532.856 1883.66 535.276C1882.98 537.084 1880.08 540.725 1878.82 542.33C1878.67 547.003 1878.14 553.919 1879.28 558.223C1884.18 560.163 1924.85 540.175 1926.93 565.869C1927.6 574.027 1926.88 575.987 1923.74 583.281C1908.4 592.645 1894.46 593.772 1877.88 600.266C1877.76 613.759 1877.06 630.433 1878.15 644.614C1880.19 671.404 1867.12 703.317 1837.94 708.931C1817.72 712.821 1790.01 708.936 1768.96 710.345C1732.3 710.624 1696.49 710.272 1659.89 710.659C1643.6 710.831 1632.14 705.52 1620.46 694.137C1598.57 672.813 1606.34 631.724 1605.52 600.896C1594.93 594.893 1559.29 589.923 1557.28 577.846C1551.2 541.347 1585.77 552.695 1605.46 561.136C1605.28 557.676 1605.44 542.19 1603.5 540.233C1601.03 537.744 1599.64 538.797 1597.88 534.195C1600.53 508.03 1687.52 503.935 1708.6 502.342C1707.27 507.788 1707.64 506.897 1708.95 512.031L1708.3 512.74C1710.91 515.945 1709.89 524.612 1709.34 528.664C1709.33 532.249 1708.88 534.592 1710.84 537.472C1713.3 539.238 1713.25 539.296 1716.08 540.227C1732.03 540.498 1751.7 545.403 1769.04 539.142C1772.08 538.73 1771.91 538.718 1774.46 536.932C1776.42 533.733 1776.08 530.997 1776.2 527.16C1776.38 521.815 1776.49 517.938 1776.1 512.614Z"/><path fill="#B3DDEA" d="M1776.2 527.16C1794.5 527.946 1842.68 530.984 1857.29 541.072C1799.29 557.216 1684.64 556.822 1626.51 540.855C1636.03 533.559 1701.41 524.394 1709.34 528.664C1709.33 532.249 1708.88 534.592 1710.84 537.472C1713.3 539.238 1713.25 539.296 1716.08 540.227C1732.03 540.498 1751.7 545.403 1769.04 539.142C1772.08 538.73 1771.91 538.718 1774.46 536.932C1776.42 533.733 1776.08 530.997 1776.2 527.16Z"/><path fill="#EEBC5B" d="M1708.3 512.74C1710.91 515.945 1709.89 524.612 1709.34 528.664C1701.41 524.394 1636.03 533.559 1626.51 540.855C1621.97 539.499 1613.68 537.783 1611.07 533.98C1611.37 519.36 1695.33 513.839 1708.3 512.74Z"/><path fill="#EEBC5B" d="M1776.1 512.614C1804 515.192 1851.99 517.441 1875.68 532.482C1869.25 536.893 1864.92 539.03 1857.29 541.072C1842.68 530.984 1794.5 527.946 1776.2 527.16C1776.38 521.815 1776.49 517.938 1776.1 512.614Z"/><path fill="#EEBC5B" d="M1615.16 548.017C1669.17 568.346 1814.79 568.364 1868.69 547.994L1868.67 619.451C1868.64 658.957 1875.32 685.081 1832.27 700.563L1824.79 701.113C1785.37 700.294 1745.77 701.443 1706.35 701.025C1687.71 700.827 1667.11 702.279 1648.84 699.331C1634.96 697.091 1618.94 679.892 1616.72 666.143C1614.49 652.244 1615.3 635.552 1615.29 621.332L1615.16 548.017Z"/><path fill="#57341A" d="M1716.59 631.384C1722.47 632.615 1728.38 640.245 1735.43 644.005C1750.4 651.995 1760.3 628.611 1769.18 633.972C1769.85 636.985 1769.43 637.512 1768.4 640.584C1763.53 646.08 1760.5 649.272 1753.23 652.126C1740.77 657.023 1719.99 652.232 1714.99 638.744C1713.78 635.489 1715.09 634.191 1716.59 631.384Z"/><path fill="#57341A" d="M1786.67 600.48C1792.82 599.061 1798.97 602.799 1800.55 608.904C1802.12 615.01 1798.54 621.258 1792.48 622.988C1788.42 624.147 1784.04 623.011 1781.06 620.021C1778.08 617.032 1776.95 612.659 1778.11 608.599C1779.28 604.539 1782.56 601.431 1786.67 600.48Z"/><path fill="#57341A" d="M1692.23 600.505C1698.34 599.297 1704.31 603.148 1705.73 609.213C1707.15 615.279 1703.5 621.378 1697.49 623.006C1693.41 624.11 1689.06 622.901 1686.13 619.852C1683.2 616.803 1682.17 612.401 1683.44 608.371C1684.71 604.34 1688.08 601.324 1692.23 600.505Z"/><path fill="#EE886E" d="M1804.03 630.184C1810.88 630.906 1817.07 631.422 1820.47 638.214C1820.4 645.747 1814.54 646.468 1808.4 648.028C1800.98 647.764 1793.92 647.663 1791.03 639.62C1792.05 632.182 1797.63 631.474 1804.03 630.184Z"/><path fill="#EE886E" d="M1678.48 630.334C1685.6 631.159 1694.77 632.657 1692.97 641.991C1689.27 646.926 1685.5 647.07 1679.55 648.162C1672.68 647.246 1665.62 647.072 1663.87 639.089C1665.33 631.817 1672.27 631.167 1678.48 630.334Z"/><path fill="#EEBC5B" d="M1572.81 561.957C1582.63 563.625 1595.26 567.613 1605.11 570.442C1604.96 575.378 1606.93 585.507 1603.52 588.782L1600.78 588.037C1591.07 584.766 1548.83 577.712 1572.81 561.957Z"/><path fill="#EEBC5B" d="M1908.3 562.178C1913.57 562.628 1916.11 565.3 1918.17 569.889C1917.53 581.412 1895.82 584.451 1886.37 586.927L1878.83 589.667C1878.98 583.166 1878.86 576.372 1878.84 569.847C1888.68 567.357 1898.5 564.8 1908.3 562.178Z"/><path fill="#4C2912" d="M1824.79 701.113L1832.27 700.563L1833.56 701.632C1832.21 702.516 1810.31 704.432 1807.78 704.33C1759.56 702.376 1709.38 705.778 1661.4 703.604L1661.85 702.355C1667.69 701.245 1695.31 701.938 1702.71 701.947L1798.15 701.939C1803.19 701.932 1821.23 702.442 1824.79 701.113Z"/><path fill="#F5E3BE" d="M1680.17 468.329C1680.79 470.486 1681.65 474.431 1680.18 476.193C1668.29 490.43 1639.27 486.228 1626.43 478.511C1614.18 471.271 1605.46 459.301 1602.33 445.424C1597.07 423.041 1607.48 399.008 1629.26 390.176C1631.03 389.46 1629.87 383.698 1629.5 382.495C1622.91 361.18 1642.52 344.612 1660.68 338.395C1666.26 336.385 1684.08 342.185 1687.7 338.771C1690.17 336.436 1694.76 325.233 1697.6 322.47C1730.04 290.882 1776.5 297.476 1796.67 338.651C1813.76 336.06 1827.78 335.3 1842.63 346.38C1853.19 354.126 1860.19 365.795 1862.06 378.759C1862.73 383.477 1862.08 389.6 1861.68 394.399C1871.23 399.665 1877.39 404.19 1880.74 415.324C1883.35 424.255 1882.36 433.849 1877.99 442.061C1872.06 453.05 1861.28 457.864 1849.7 460.892C1845.42 471.918 1841.17 480.364 1829.49 485.381C1821.35 488.937 1812.09 488.946 1803.93 485.406C1801.73 484.43 1800.25 483.095 1798.5 481.47C1798.55 473.932 1804.67 473.617 1800.97 458.792C1796.79 460.406 1798.27 459.608 1794.92 463.679C1788.32 478.867 1783.8 482.747 1778.02 501.101C1777.54 507.434 1778.03 506.281 1776.1 512.614C1776.49 517.938 1776.38 521.815 1776.2 527.16C1776.08 530.997 1776.42 533.733 1774.46 536.932C1771.91 538.718 1772.08 538.73 1769.04 539.142C1751.7 545.403 1732.03 540.498 1716.08 540.227C1713.25 539.296 1713.3 539.238 1710.84 537.472C1708.88 534.592 1709.33 532.249 1709.34 528.664C1709.89 524.612 1710.91 515.945 1708.3 512.74L1708.95 512.031C1707.64 506.897 1707.27 507.788 1708.6 502.342C1704.6 490.238 1694.12 463.675 1680.42 461.583L1680.17 468.329Z"/><path fill="#57341A" d="M1680.17 468.329C1680.79 470.486 1681.65 474.431 1680.18 476.193C1668.29 490.43 1639.27 486.228 1626.43 478.511C1614.18 471.271 1605.46 459.301 1602.33 445.424C1597.07 423.041 1607.48 399.008 1629.26 390.176C1631.03 389.46 1629.87 383.698 1629.5 382.495C1622.91 361.18 1642.52 344.612 1660.68 338.395C1666.26 336.385 1684.08 342.185 1687.7 338.771C1690.17 336.436 1694.76 325.233 1697.6 322.47C1730.04 290.882 1776.5 297.476 1796.67 338.651C1813.76 336.06 1827.78 335.3 1842.63 346.38C1853.19 354.126 1860.19 365.795 1862.06 378.759C1862.73 383.477 1862.08 389.6 1861.68 394.399C1871.23 399.665 1877.39 404.19 1880.74 415.324C1883.35 424.255 1882.36 433.849 1877.99 442.061C1872.06 453.05 1861.28 457.864 1849.7 460.892C1845.42 471.918 1841.17 480.364 1829.49 485.381C1821.35 488.937 1812.09 488.946 1803.93 485.406C1801.73 484.43 1800.25 483.095 1798.5 481.47C1799.18 480.748 1801.33 477.284 1802.66 475.67C1813.51 471.751 1837.35 490.5 1841.58 450.958C1854.5 449.909 1866.79 446.971 1871.66 433.09C1873.69 427.418 1873.35 421.168 1870.73 415.746C1866.34 406.741 1859.94 403.915 1851.24 400.717C1853.17 391.154 1854.01 384.995 1851.43 375.297C1846.69 357.305 1829.54 345.46 1811.03 347.402C1805.3 347.997 1798.5 349.859 1792.8 350.798C1791.29 351.046 1782.29 333.372 1780.54 331.098C1776.7 326.158 1771.94 322.011 1766.52 318.887C1744.36 306.326 1711.91 314.45 1700.74 338.171C1699.29 341.243 1693.89 354.917 1692.13 354.385C1681.4 351.147 1672.54 347.163 1660.74 350.254C1644.91 354.399 1638.62 365.966 1638.5 381.609C1638.47 386.619 1640.01 391.369 1641.33 396.223C1629.02 401.466 1619.81 407.01 1614.12 420.069C1609.98 429.708 1609.96 440.619 1614.07 450.27C1619.2 462.542 1627.95 468.917 1639.77 473.738C1640.88 473.277 1670.7 470.298 1671.25 470.447C1675.84 468.93 1673.92 469.138 1679.68 471.189L1680.17 468.329Z"/><path fill="#F6F2E1" d="M1639.77 473.738C1640.88 473.277 1670.7 470.298 1671.25 470.447C1660.38 475.819 1651.73 477.35 1639.77 473.738Z"/><path fill="#81542F" d="M1680.42 461.583C1682.39 459.891 1682.41 457.983 1682.92 455.562C1699.78 443.369 1730.43 516.669 1716.08 540.227C1713.25 539.296 1713.3 539.238 1710.84 537.472C1708.88 534.592 1709.33 532.249 1709.34 528.664C1709.89 524.612 1710.91 515.945 1708.3 512.74L1708.95 512.031C1707.64 506.897 1707.27 507.788 1708.6 502.342C1704.6 490.238 1694.12 463.675 1680.42 461.583Z"/><path fill="#81542F" d="M1793.87 454.154L1795.43 452.691C1798.94 453.32 1800.14 455.404 1800.97 458.792C1796.79 460.406 1798.27 459.608 1794.92 463.679C1788.32 478.867 1783.8 482.747 1778.02 501.101C1777.54 507.434 1778.03 506.281 1776.1 512.614C1776.49 517.938 1776.38 521.815 1776.2 527.16C1776.08 530.997 1776.42 533.733 1774.46 536.932C1771.91 538.718 1772.08 538.73 1769.04 539.142C1760.65 518.497 1775.49 467.989 1793.87 454.154Z"/><path fill="#81542F" d="M1793.87 454.154L1795.43 452.691C1798.94 453.32 1800.14 455.404 1800.97 458.792C1796.79 460.406 1798.27 459.608 1794.92 463.679C1792.78 463.507 1792.8 463.179 1791.1 461.733C1790.85 458.364 1792.05 457.516 1793.87 454.154Z"/><path fill="#81542F" d="M1726.6 443.515C1738.66 452.566 1755.25 515.957 1744.44 527.399C1738.14 524.031 1740 519.034 1739.91 513.062C1739.57 490.71 1732.15 469.742 1723.29 449.496C1722.34 447.34 1725.22 445.08 1726.6 443.515Z"/><path fill="#57341A" d="M995.172 872.09C980.182 872.803 986.024 868.677 975.643 862.377C970.857 859.472 967.824 869.188 960.889 872.604C956.648 872.59 958.342 873.006 954.426 870.579C955.036 865.984 967.994 853.831 965.846 847.394C963.88 841.506 956.612 835.95 954.879 828.98C956.413 827.225 956.323 827.676 958.786 826.795C966.472 827.472 967.959 834.637 974.772 839.106C978.347 837.346 979.929 832.78 981.978 828.812C989.467 824.468 987.481 828.901 994.007 830.559L998.297 827.423C1001.37 826.796 1002.06 827.239 1005.21 828.118C1007.76 833.931 1001.35 851.343 1006.96 857.649L1009.5 857.445C1013.59 852.472 1002.77 808.49 1046.92 832.658C1048.52 835.31 1050.5 839.296 1052.03 842.119C1054.35 842.571 1056.4 843.009 1058.7 843.571L1059.06 845.443C1056.77 846.042 1056.24 845.973 1054.42 847.498L1055.11 849.99L1056.21 850.334C1066.21 845.017 1066.12 825.6 1079.03 827.636C1083.64 831.046 1086.69 849.705 1091.35 857.37C1095.12 863.066 1094.82 866.692 1098.29 870.73C1088.01 872.783 1087.5 870.198 1082.33 862.08C1065.13 861.983 1072.66 861.448 1061.12 870.851C1057.84 871.541 1057.59 871.741 1054.63 870.507C1052.86 867.121 1053.97 864.456 1054.71 860.223L1053.4 859.381C1040.83 862.673 1036.89 885.477 1011.8 864.271C1008.11 861.156 1008.59 870.314 1002.31 872.342C999.583 871.331 999.091 871.327 997.307 868.963C995.708 858.894 992.868 845.998 995.451 836.896L994.725 835.552C987.319 836.301 980.057 842.635 980.042 850.548C984.544 859.292 990.836 860.806 995.172 872.09ZM1037.19 860.502C1053.67 849.041 1038.01 836.124 1026.24 835.299C1023.65 837.737 1021.31 838.76 1021.26 842.713C1021.11 855.706 1020.25 865.013 1037.19 860.502Z"/><path fill="#57341A" d="M312.683 951.743C326.579 956.026 340.079 966.464 333.363 981.569C321.748 1007.69 285.384 1001.94 285.542 970.033C282.338 974.261 281.54 975.48 277.341 978.82C275.506 985.371 283.475 987.776 285.464 995.041L284.446 996.812C277.161 998.557 268.122 990.431 264.626 984.501L264.282 982.524C263.571 982.38 262.657 982.24 262.08 981.869C250.456 974.408 254.54 978.9 250.449 967.791L247.925 967.945C246.143 970.07 246.724 968.825 246.618 971.989C245.348 976.118 245.016 977.919 242.287 981.409C233.926 984.663 229.579 984.259 220.527 984.013C220.655 987.894 221.35 992.562 219.598 995.736C216.815 997.364 218.019 996.977 214.442 996.643C212.137 994.902 211.788 995.356 211.602 991.991C210.928 979.784 211.503 966.055 211.745 953.791C220.479 952.973 231.848 951.229 239.633 955.787C242.691 959.999 243.226 962.973 246.92 964.623L248.191 963.82C249.097 959.638 249.02 956.516 251.795 954.027C258.326 952.167 272.051 952.149 278.23 954.527C282.078 957.987 284.627 962.871 287.343 967.338C290.722 965.424 290.941 957.766 299.637 955.589C303.032 954.74 308.423 952.55 312.683 951.743ZM313.7 989.946C322.051 986.561 321.667 983.981 324.966 976.092C320.823 966.974 319.489 962.474 308.534 961.875C289.102 971.116 295.201 987.281 313.7 989.946ZM234.237 975.133C236.019 971.942 236.705 971.386 236.223 968C233.44 963.012 227.249 962.517 221.962 961.826C219.79 967.534 218.677 972.421 223.962 976.107C227.742 976.793 230.49 976.063 234.237 975.133ZM274.273 971.644C275.969 967.322 275.871 969.018 275.288 964.875C270.958 960.47 264.513 961.985 258.63 962.378C258.191 974.724 263.184 976.622 274.273 971.644Z"/><path fill="#57341A" d="M1577.9 56.0701C1596.92 52.6953 1615.04 65.4559 1618.27 84.4932C1621.5 103.53 1608.6 121.554 1589.54 124.639C1570.68 127.69 1552.89 114.96 1549.7 96.1269C1546.5 77.2936 1559.1 59.4087 1577.9 56.0701ZM1569.48 73.4187C1564.81 83.5663 1562.75 89.8729 1566.83 101.018C1567.51 102.858 1568.23 104.683 1568.99 106.491C1575.89 110.674 1577.67 111.947 1585.97 112.27C1592.45 110.591 1595.64 109.591 1599.32 103.177C1602.77 97.0962 1603.56 89.8629 1601.51 83.1801C1598.75 74.205 1592.03 69.1157 1582.81 68.1593C1576.35 69.3366 1575.31 69.7655 1569.48 73.4187Z"/><path fill="#57341A" d="M1890.05 57.3388C1905.73 54.9041 1925.65 55.3367 1937.31 67.3106C1951.86 82.2578 1945.95 104.427 1932.22 117.34C1927.76 121.713 1922.63 123.32 1916.55 123.943C1909.56 124.66 1894.11 126.349 1888.68 121.193C1884.69 117.405 1885.68 71.4406 1886.48 63.4418C1886.83 60.01 1887.58 59.4326 1890.05 57.3388ZM1923.41 106.504C1936.88 85.1519 1927.98 68.3144 1902.1 69.1761C1900.52 74.3677 1900.29 103.837 1901.14 109.669C1906.89 115.068 1918.01 111.034 1923.41 106.504Z"/><path fill="#57341A" d="M1178.27 910.447C1181.16 895.17 1192.69 890.839 1206.92 892.983C1219.17 894.829 1220.46 907.992 1225.77 909.676C1227.66 901.861 1224.91 897.173 1230.24 892.37C1240.81 891.205 1243.81 907.652 1251.6 914.307L1252.85 913.929C1254.59 905.913 1251.61 900.855 1256.66 893.931L1258.57 893.004C1266.64 895.815 1265.29 903.616 1265.1 910.643C1265.1 917.422 1264.71 930.075 1266 936.259C1262.52 937.962 1262.29 938.221 1258.52 938.242C1251.46 935.446 1243.08 920.242 1238.35 913.199C1238.62 920.917 1240.69 932.571 1236.46 937.926C1233.3 939.254 1234.73 939.33 1232.03 938.469C1229.01 935.136 1227.93 928.84 1226.53 924.157L1224.8 923.915C1220.75 925.95 1219.84 931.284 1217.39 933.115C1198.43 947.31 1178.09 936.026 1176.45 913.892L1178.27 910.447ZM1201.64 930.893C1209 926.422 1209.18 924.703 1212.74 916.615C1209.65 908.335 1209.05 902.882 1199.68 900.98C1183.46 908.655 1185.59 925.594 1201.64 930.893Z"/><path fill="#57341A" d="M1345.34 57.2146C1356.14 56.9221 1375.05 55.1027 1384.55 59.6573C1393.2 63.8069 1394.73 70.0483 1397.33 78.2477C1393.83 89.1254 1393.47 93.0541 1384.21 99.6723C1392.28 109.141 1407.17 122.628 1385.32 125.725C1380.25 119.849 1375.43 110.689 1369.55 104.984C1366.55 102.076 1364.7 102.936 1360.37 103.036C1354.33 107.386 1358.5 112.931 1355.9 121.795C1352.49 125.821 1348.6 124.998 1344.46 122.249C1342.49 117.678 1341.76 107.247 1342.25 102.334C1343.3 91.8092 1339.58 64.5834 1345.34 57.2146ZM1357.95 69.8986L1358.05 88.6873L1373.57 88.8424C1376.99 88.2879 1378.86 87.9868 1381.07 85.1195C1382.66 83.0796 1383.28 80.447 1382.78 77.9086C1381.33 70.8496 1376.23 69.5832 1370.02 69.4666L1357.95 69.8986Z"/><path fill="#57341A" d="M1105.54 56.3919C1129.61 56.7792 1147.35 49.0423 1154.66 78.6153C1150.94 91.4243 1150.24 93.459 1138.72 100.15C1144 105.197 1154.64 113.5 1153.97 120.923C1150.99 126.102 1146.73 126.172 1141.94 123.486C1137.06 118.143 1123.79 96.8911 1115.9 101.902C1113.04 110.133 1119.46 126.078 1106.92 125.659C1103.66 123.676 1100.34 118.877 1100.47 115.105C1101.06 98.2648 1098.39 76.4086 1100.63 60.1386C1103.07 56.9123 1101.77 57.9036 1105.54 56.3919ZM1116.06 89.864C1123.43 89.9972 1129.36 90.6547 1136.25 87.7713C1146.63 71.4984 1127.63 68.5534 1116.02 68.8606L1116.06 89.864Z"/><path fill="#57341A" d="M944.831 56.0199C959.724 57.8432 957.257 78.041 970.199 85.4348C977.922 82.819 981.639 54.9554 996.47 56.0888C1003.5 61.0267 1005.76 119.641 996.395 124.397C988.009 123.426 988.271 116.228 987.277 109.21C987.303 102.541 987.439 96.7865 986.594 90.1178L985.692 89.7288C980.913 96.1563 976.725 106.754 969.384 107.517C962.896 105.457 958.763 92.9971 953.195 86.4089C946.636 91.5108 961.482 120.681 945.128 125.636C933.279 122.146 937.749 72.2031 938.419 60.2394C940.607 57.4029 941.336 57.3988 944.831 56.0199Z"/><path fill="#57341A" d="M1633.16 54.9154C1646.69 57.049 1659.06 85.4367 1668.55 97.9878L1669.34 99.02C1669.24 90.7887 1668.49 66.9127 1669.67 59.7911C1672.44 57.0761 1672.83 56.6354 1676.54 55.5958C1681.72 56.8139 1684.35 61.2034 1684.38 66.4822C1684.47 84.43 1684.53 102.552 1683.76 120.49C1683.65 122.968 1681.21 123.869 1679.39 125.034C1666.23 122.875 1649.65 94.8283 1641.8 83.4848C1641.82 91.461 1642.35 113.457 1641.38 120.296C1638.69 123.063 1638.4 123.716 1634.89 124.889C1621.77 120.205 1627 72.6749 1626.85 60.5907C1626.82 58.1615 1631.24 56.0708 1633.16 54.9154Z"/><path fill="#57341A" d="M1746.76 55.4902C1757.2 54.904 1774.55 55.7739 1779.05 67.3915C1776.88 76.7531 1760.33 70.3629 1754.08 68.4909C1735.69 74.3178 1729.39 93.8329 1741.41 107.351C1748.45 115.263 1769.64 116.633 1767.68 98.9768C1764.34 96.7108 1757.06 100.437 1751.53 96.1056C1749.75 90.2941 1753.85 87.3391 1758.3 84.909L1759.41 84.3134C1767.59 83.2853 1773.78 85.9865 1781.64 88.3903C1782.21 101.367 1782.31 103.541 1778.24 115.776C1731.07 154.477 1690.16 73.2572 1746.76 55.4902Z"/><path fill="#57341A" d="M893.124 55.7576C900.926 55.7412 904.76 54.9465 907.573 63.8018C911.403 75.8559 933.491 111.668 929.482 123.14C918.498 129.836 916.272 117.941 911.142 111.441C909.801 109.741 906.447 110.168 904.25 110.065L884.392 110.124C883.921 112.045 883.431 113.961 882.924 115.873C881.548 121.009 881.469 121.967 877.251 124.424C872.736 124.577 871.964 124.678 867.785 123.067C866.481 121.629 865.447 121.225 865.942 119.27C868.539 109.003 887.736 60.1917 893.124 55.7576Z"/><path fill="#57341A" d="M1041.96 58.8203C1049.54 55.362 1069.96 55.4601 1077.9 58.459C1095.03 64.9294 1095.22 81.7148 1087.86 95.8924C1075.61 104.743 1070.93 103.735 1056.14 103.605C1056.13 110.691 1056.83 119.358 1051.9 124.769C1047.95 126.404 1044.33 124.923 1041.76 121.38C1042.69 100.055 1042.29 80.1095 1041.96 58.8203ZM1056.03 90.0313C1061.39 89.9964 1067.44 90.0919 1072.72 89.7667C1077.51 85.299 1078.93 77.7059 1073.46 73.4341C1068.29 69.3984 1064.89 70.0503 1058.75 70.4031C1054.47 73.266 1055.99 84.6936 1056.03 90.0313Z"/><path fill="#F6F2E1" fill-opacity="0.0078431377" d="M1058.75 70.4031C1064.89 70.0503 1068.29 69.3984 1073.46 73.4341C1078.93 77.7059 1077.51 85.299 1072.72 89.7667C1067.44 90.0919 1061.39 89.9964 1056.03 90.0313C1055.99 84.6936 1054.47 73.266 1058.75 70.4031Z"/><path fill="#57341A" d="M1228.33 55.9366C1244.27 57.3212 1270.88 52.117 1272.63 79.0757C1273.71 95.6007 1262.91 102.615 1247.25 103.021C1243.18 102.954 1241.91 102.734 1237.99 103.927C1233.49 108.823 1239.51 118.845 1231.51 125.235C1227.85 125.783 1227.42 125.378 1223.81 124.008C1218.91 115.255 1223.22 77.3544 1223.49 65.5006C1223.59 61.0158 1224.96 58.7953 1228.33 55.9366ZM1253.24 90.3668C1264.6 81.5676 1254.27 67.7095 1238.35 68.9161C1229.47 83.1453 1234.34 95.9003 1253.24 90.3668Z"/><path fill="#57341A" d="M1299.3 55.2734C1303.81 55.2043 1310.2 55.4781 1312.28 60.3662C1317.77 73.2954 1335.85 110.97 1333.22 123.373C1323.33 129.956 1319.75 116.849 1315.54 111.169C1314.2 109.356 1310.6 109.785 1308.24 109.676L1288.07 109.618C1286.53 114.751 1285.27 121.319 1281.48 124.747C1277.5 125.833 1279.03 125.656 1274.73 124.486C1273.38 122.544 1272 118.743 1272.93 116.687C1277.85 105.794 1291.19 60.8661 1299.3 55.2734ZM1306.02 96.698L1308.35 96.0227C1309.82 91.3428 1305.48 81.6216 1302.21 78.1624C1299.83 82.3461 1295.48 89.3001 1296.22 93.9935C1299.18 97.8652 1301.18 96.9033 1306.02 96.698Z"/><path fill="#57341A" d="M1428.79 55.0647C1432.19 55.0348 1439.09 54.6094 1440.72 58.1439C1447.02 71.7597 1464.63 108.014 1462.03 122.084C1460.02 124.978 1461.12 124.067 1457.26 125.172C1446.95 122.113 1455.39 109.024 1433.45 109.684C1428.76 109.6 1419.04 108.388 1417.71 112.85C1415.48 120.35 1413.79 127.069 1402.71 123.507C1401.73 122.596 1399.98 121.411 1400.28 119.945C1401.45 114.051 1406.04 103.917 1409.23 99.3453C1418.25 86.4557 1419.8 68.995 1428.79 55.0647ZM1434 97.8389L1438.45 97.1139C1440.59 92.5533 1436.57 80.4311 1433.61 77.6524C1430.32 82.2655 1425.93 91.0085 1427.81 96.6555C1430.03 97.9047 1431.46 97.7274 1434 97.8389Z"/><path fill="#57341A" d="M1961.6 56.1461C1970.49 56.6231 1996.98 54.3336 2002.15 60.3474C2003.04 63.0519 2003.33 63.1591 2002.49 65.9298C1993.48 75.9825 1962.7 59.7281 1968.79 80.0725C1976.05 86.2811 2006.46 77.06 1998.02 94.8344C1989.95 100.76 1973.15 94.0844 1969.49 99.2499L1969.77 111.176C1978.37 111.112 1999.33 108.611 2003.94 115.991C2004.08 120.018 2004.23 118.553 2002.05 122.429C1996.13 126.116 1962.5 126.878 1957.73 121.969C1954.25 111.376 1954.34 75.3536 1955.72 62.9457C1956.12 59.3718 1958.71 57.9342 1961.6 56.1461Z"/><path fill="#57341A" d="M1168.17 55.6806C1180.53 56.0976 1196.32 54.9337 1208.5 57.1752C1210.52 57.5483 1211.38 59.8091 1212.48 61.6231C1212.35 65.7704 1212.95 64.2798 1210.6 67.4822C1204.12 71.1396 1189.47 68.7462 1179.93 68.9568L1179.91 83.4723C1184.87 83.562 1189.83 83.621 1194.78 83.6493C1201.19 83.7186 1205.36 82.7318 1209.71 87.1735C1212.76 105.02 1191.74 90.6929 1180.27 98.1151C1178.21 101.989 1178.92 102.541 1178.97 107.246C1181.11 118.371 1210.4 105.707 1216.2 116.759C1212.81 128.439 1194.68 123.641 1185.75 124.135C1178.93 124.513 1172.55 126.404 1166.7 122.218C1164.68 118.331 1164.5 112.35 1164.64 107.968C1165.17 91.394 1164.58 74.5437 1166.09 58.0544C1166.09 58.0543 1167.98 55.8942 1168.17 55.6806Z"/><path fill="#57341A" d="M1796.27 56.8342C1806.77 57.1595 1805.73 62.3603 1804.99 71.6065C1803.43 91.0398 1800.81 131.705 1831.72 104.164C1831.57 96.0183 1830.1 65.5764 1832.87 59.7993C1835.49 57.2427 1835.58 57.1795 1839.1 56.6709C1847.52 59.0014 1846.09 67.5591 1845.84 74.5C1845.85 82.4988 1846.3 90.3939 1846.06 98.4248C1845.56 115.527 1832.2 127.503 1814.9 125.478C1807.19 124.562 1800.21 120.519 1795.58 114.298C1785.74 101.096 1792.28 83.3327 1790.15 67.8279C1789.44 62.6082 1792.13 59.6967 1796.27 56.8342Z"/><path fill="#57341A" d="M965.435 895.646C970.88 890.337 999.662 890.411 1005.65 895.976C1011.39 901.307 1013 911.386 1018.37 916.703L1019.72 916.365C1023.38 908.241 1027.95 902.371 1028.83 893.943C1031.8 892.289 1037.88 893.024 1041 894.324C1041.56 897.994 1030.15 916.326 1027.85 921.011C1024.76 927.304 1024.49 937.175 1017.17 938.68C1006.65 933.499 1006.69 908.353 997.388 899.924C987.491 904.858 977.552 899.736 973.463 905.153C973.476 908.481 973.036 907.618 974.493 910.246C982.458 912.866 990.562 908.832 993.268 913.451C992.894 917.78 993.604 916.652 991.252 919.609C983.268 922.216 979.29 916.108 974.013 922.346C973.392 925.75 973.196 926.082 973.932 929.368C977.899 931.28 993.449 927.969 995.74 933.678C989.239 940.239 974.805 938.927 966.203 938.504C959.057 931.331 963.149 905.144 965.435 895.646Z"/><path fill="#57341A" d="M929.073 826.204C951.997 829.177 961.197 844.695 950.32 865.075C942.301 870.726 940.52 871.209 930.755 872.248C922.779 872.257 921.19 871.254 914.341 867.672C902.43 849.425 906.793 831.183 929.073 826.204ZM931.935 863.802C949.387 857.1 947.174 838.072 930.3 835.867C914.641 843.465 916.727 864.705 931.935 863.802Z"/><path fill="#57341A" d="M506.524 966.749C510.057 957.857 518.683 952.042 528.251 952.104C537.819 952.166 546.37 958.091 549.788 967.028C551.642 971.876 551.818 977.206 550.288 982.166C547.779 990.301 541.018 996.411 532.671 998.086C524.323 999.761 515.729 996.734 510.274 990.196C504.82 983.659 503.381 974.661 506.524 966.749ZM533.018 988.546C547.58 975.888 542.53 960.306 521.838 961.828C508.952 971.435 515.986 994.043 533.018 988.546Z"/><path fill="#57341A" d="M2314.28 887.764C2331.2 889.582 2318.77 908.933 2322.75 920.951C2327.29 925.86 2332.42 924.21 2338.67 925.19C2343.12 925.887 2346.84 926.952 2351.11 928.353C2351.13 917.129 2350.86 905.298 2351.13 894.082C2351.22 890.8 2351.48 890.731 2353.32 889.242C2361.05 888.809 2379.3 886.222 2381.9 894.104C2378.83 900.962 2366.9 895.38 2360.73 900.128C2360.33 903.411 2360.46 902.39 2362.39 905.907C2364.96 907.641 2369.52 907.324 2372.84 907.437C2377.49 908.37 2378.97 909.023 2381.47 913.158L2380.94 914.772C2374.27 917.444 2367.07 913.516 2360.91 916.604C2359.84 919.54 2360.17 918.619 2360.83 922.111C2368.27 930.471 2379.16 920.375 2382.37 929.133C2381.71 933.027 2382.45 932.366 2380.1 934.434C2373.09 935.046 2360.44 933.923 2352.65 933.933C2339.88 933.95 2326.3 936.286 2314.1 933.268C2311.58 930.4 2311.58 891.404 2314.28 887.764Z"/><path fill="#57341A" d="M1152.83 838.935C1162.08 826.075 1173.86 822.489 1187.14 832.56C1192.04 836.253 1195.14 841.852 1195.68 847.964C1196.24 854.003 1194.26 860.004 1190.23 864.531C1180.59 875.146 1155.78 872.557 1152.25 861.296C1147.39 852.242 1148.4 847.575 1152.83 838.935ZM1172.66 863.353C1192.09 860.229 1185.73 838.834 1171.75 834.889C1154.42 842.116 1153.69 857.683 1172.66 863.353Z"/><path fill="#57341A" d="M1590.83 825.272C1604.69 825.013 1610.35 828.547 1617.5 840.124C1617.91 855.999 1617.82 863.663 1601.55 870.025C1597.93 870.26 1591.06 870.803 1587.67 869.351C1575.82 864.271 1568.89 848.868 1574.74 836.934C1578.26 829.756 1583.57 827.501 1590.83 825.272ZM1599.56 861.547C1609.75 852.187 1607.48 833.684 1590.24 834.186C1578.04 842.859 1582.6 860.156 1596.38 861.367C1597.43 861.469 1598.5 861.529 1599.56 861.547Z"/><path fill="#57341A" d="M817.535 54.8755C829.448 54.4002 832.555 79.3305 841.183 81.8916C849.328 75.6113 852.872 55.5894 865.265 56.6822C874.731 63.4314 859.284 82.0889 854.564 89.3875C851.858 94.0534 850.885 95.1923 847.301 99.2203C847.041 108.176 851.411 119.828 843.58 124.416C839.911 124.579 839.43 124.591 836.214 122.859C829.683 115.707 835.316 105.111 832.647 97.9776C828.677 87.3641 813.088 72.6638 811.544 61.5236C812.284 58.4042 814.863 57.0109 817.535 54.8755Z"/><path fill="#57341A" d="M411.838 930.726C387.401 929.934 401.21 922.089 385.787 915.656C381.703 919.453 384.444 926.11 377.894 930.687C374.83 931.248 374.702 931.103 371.74 929.8C370.867 926.386 370.523 894.26 371.512 890.197C373.804 887.641 375.384 885.397 378.879 886.946C382.46 891.477 381.855 899.94 385.587 901.634C391.034 898.633 391.758 897.597 394.085 891.954C395.791 887.817 409.12 887.636 412.85 886.979C418.23 886.031 420.418 885.744 424.925 888.685C424.293 896.399 423.623 923.058 424.841 930.474L412.499 929.891C413.227 916.249 413.482 904.006 412.274 890.364C405.648 894.993 399.544 901.868 393.77 907.715C402.83 916.096 406.36 919.664 411.838 930.726Z"/><path fill="#57341A" d="M1538.35 825.144C1546.33 824.668 1555.02 824.94 1562.34 828.551C1567.18 830.937 1570.28 836.716 1567.12 841.677C1564.59 843.082 1562.34 843.995 1560.76 846.37C1562.07 850.438 1577.15 850.805 1567.28 864.092C1560.83 869.528 1542.48 873.163 1535.29 868.62C1531.37 862.183 1530.91 838.082 1532.58 830.193C1533.18 827.332 1535.86 826.536 1538.35 825.144ZM1555.41 841.843C1556.38 838.099 1556.71 839.2 1555.27 836.548C1551.5 834.711 1547.26 835.202 1542.92 835.208C1542.99 839.138 1542.35 839.704 1544.33 842.575C1547.85 843.749 1551.59 842.556 1555.41 841.843Z"/><path fill="#57341A" d="M1467.79 57.1021C1480.33 55.8601 1498.88 56.5661 1511.53 57.8463C1513.07 58.0019 1516.09 60.6154 1517.27 61.7352C1518.55 65.388 1518.72 64.1701 1517.7 67.2729C1512.52 71.2835 1503.28 69.8516 1496.52 69.5171C1496.72 83.5246 1496.71 97.5345 1496.49 111.542C1496.79 114.27 1497.73 118.856 1495.86 121.036C1492.25 125.25 1488.08 126.551 1483.67 122.8C1480.4 115.508 1482.07 80.6302 1482.22 69.9291C1476.02 70.1898 1461.78 71.4531 1460.88 63.271C1462.49 59.8081 1464.47 59.1134 1467.79 57.1021Z"/><path fill="#57341A" d="M1798.23 828.752C1806.23 823.768 1817.89 823.065 1826.59 826.289C1830.53 827.75 1831.45 830.801 1833.07 834.313C1833.7 840.554 1833 840.344 1829.73 845.469C1838.2 853.326 1833.16 850.875 1835.31 859.514C1824.57 873.232 1814.69 870.653 1798.97 870.206C1799.69 853.522 1798.09 843.807 1798.23 828.752ZM1822.07 860.51C1824.31 856.245 1824.25 857.722 1824.08 853.394C1820.31 849.616 1816.88 850.793 1811.93 851.419C1809.71 853.026 1809.87 852.925 1808.65 855.405C1810.17 863.293 1815.85 862.376 1822.07 860.51ZM1819.8 842.281C1820.92 838.322 1821.14 839.531 1820.28 835.915C1817.37 832.917 1813.68 832.916 1809.49 832.759C1809.24 836.35 1808.43 839.922 1810.28 842.699C1813.25 844.028 1816.39 842.918 1819.8 842.281Z"/><path fill="#57341A" d="M1857.92 825.297C1863.83 825.057 1880.28 823.738 1884.9 825.925L1890.34 828.459L1891.44 826.939C1897.72 824.112 1921.31 822.186 1925.39 829.125L1924.62 831.998C1922.14 834.47 1918.51 834.619 1914.85 835.306C1914.91 844.241 1917.77 865.792 1910.54 870.689C1906.76 870.599 1907.89 871.174 1905.43 869.087C1903.77 864.9 1904.38 859.159 1904.5 854.433C1901.44 829.271 1904.93 832.876 1878.26 834.298C1878.14 843.248 1881.74 867.144 1873.32 870.699C1869.78 870.127 1870.2 870.725 1867.8 868.769C1866.29 860.736 1867.01 843.69 1867.03 834.691C1862.43 834.424 1858.18 835.067 1855.67 830.86C1856.16 827.763 1856.15 827.925 1857.92 825.297Z"/><path fill="#57341A" d="M957.258 916.313C948.841 923.678 952.412 927.109 957.03 936.471L956.209 937.962C945.536 941.345 944.555 930.643 937.355 924.48C929.287 923.297 936.23 934.608 928.371 940.431C918.978 940.573 922.176 923.182 921.395 916.951C920.465 909.535 919.652 895.24 929.186 893.173C940.336 890.757 953.577 891.751 957.486 904.518C957.425 907.923 957.488 913.049 957.258 916.313Z"/><path fill="#57341A" d="M1699.94 891.323C1721.53 888.739 1747.07 897.18 1726.38 920.286C1724.88 921.961 1734.86 930.543 1734.52 935.26C1731.01 936.785 1727.5 936.143 1723.56 935.913C1716.94 931.237 1715.63 920.516 1706.22 922.163C1704.8 927.36 1709.85 930.706 1706.05 935.824C1702.61 936.556 1702.79 936.6 1699.42 935.671C1694.01 929.525 1695.56 898.699 1699.94 891.323ZM1721.24 911.698C1722.01 909.984 1723.12 908.81 1722.31 907.232C1719.59 901.923 1713.9 899.064 1708.26 899.623C1707.87 903.591 1706.9 907.788 1708.54 911.168C1712.36 913.349 1716.46 912.19 1721.24 911.698Z"/><path fill="#57341A" d="M1978.51 825.318C1988.3 824.54 2004.22 825.033 2005.41 838.582C2005.98 845.052 2003.99 846.483 2000.32 850.759C1996.14 855.641 2006.39 865.487 2000.94 870.826C1995.61 871.497 1994.26 869.223 1991.64 865.537C1990.04 861.819 1987.71 855.596 1983.41 855.304C1979.52 859.769 1980.78 866.49 1976.6 871.758L1974.82 871.902C1968.44 866.969 1967.98 835.357 1970.6 828.753C1972.93 825.96 1974.84 826.042 1978.51 825.318ZM1992.59 844.5C1993.73 841.106 1994.09 840.744 1993.07 837.516C1989.45 833.322 1985.42 833.813 1980.28 833.785C1980.1 838.098 1979.5 840.79 1981.58 844.481C1985.82 847.443 1987.93 846.165 1992.59 844.5Z"/><path fill="#57341A" d="M2458.35 912.874C2458.5 905.628 2456.6 891.116 2465.07 888.95C2472.64 893.294 2470.29 925.065 2468.19 933.419C2467.9 934.572 2464.99 934.858 2463.85 935.126C2452.71 928.923 2446.69 919.015 2439.56 908.839C2439.45 916.326 2440.71 927.472 2440.45 933.035L2438.3 934.394C2436.12 934.389 2435.64 934.896 2433.94 933.218C2431.84 931.15 2430.87 926.555 2430.68 923.109C2430.1 912.975 2431.17 901.729 2432.02 891.56C2433.13 890.272 2434.04 889.214 2434.76 888.387C2442.7 889.77 2452.43 905.781 2458.35 912.874Z"/><path fill="#57341A" d="M582.826 976.404C582.739 968.888 580.195 954.928 588.113 952.413C597.072 956.228 596.274 991.554 588.984 997.87C587.252 998.107 585.318 998.387 583.926 996.592C578.992 990.227 569.744 978.6 566.188 972.1C565.836 980.01 567.379 991.63 562.781 996.696C559.81 998.366 558.331 997.671 554.722 997.087C555.952 990.665 556.207 960.092 554.272 953.328C571.585 952.376 572.454 964.541 582.826 976.404Z"/><path fill="#57341A" d="M1078.75 892.104C1079.58 892.044 1083.99 891.776 1084.44 892.071C1092.32 897.295 1099.89 907.119 1103.33 915.863L1104.31 916.179C1106.98 909.248 1102.5 899.158 1106.95 893.548C1110.37 892.732 1109 892.759 1112.67 894.312C1115.08 903.887 1119.05 925.75 1114.6 934.916C1113.18 937.838 1111.36 937.677 1108.44 938.498C1100.11 932.816 1097.11 919.938 1091.02 914.097C1087.54 918.318 1091.4 933.451 1085.39 938.364C1080.65 939.14 1076.93 937.542 1077.78 932.84C1078.95 926.415 1076.96 895.994 1078.75 892.104Z"/><path fill="#57341A" d="M2522.05 914.756C2521.83 908.292 2519.92 894.867 2523.55 890.373C2526.2 889.471 2526.45 889.362 2529.2 889.037C2529.89 890.847 2532.01 896.55 2532.03 898.176C2532.1 906.338 2534.16 930.307 2529.35 936.274C2519.62 932.777 2507.8 914.706 2503.67 913.126C2497.8 915.819 2505.06 927.579 2501.56 933.287L2499.15 933.565C2496.12 932.387 2495.82 931.342 2493.89 928.48C2493.42 916.424 2494.12 902.015 2494.31 889.702C2509.22 889.207 2514.87 903.375 2522.05 914.756Z"/><path fill="#57341A" d="M1730.01 862.674L1729.4 867.985C1726.78 870.479 1728.29 869.73 1724.72 870.313C1716.06 867.22 1710.28 852.695 1704.89 846.433L1703.5 846.483C1701.61 851.81 1703.66 860.594 1702.14 867.975C1698.62 871.037 1694.98 871.332 1691.9 867.441C1690.82 860.156 1690.14 829.095 1697.23 825.999C1706.15 827.727 1708.2 839.149 1716.14 845.598L1717.84 845.25C1719.43 841.139 1718.85 833.808 1719.28 828.584C1722.52 824.181 1725.15 824.022 1728.93 827.808C1730.65 832.229 1729.99 838.521 1729.83 843.436L1730.01 862.674Z"/><path fill="#57341A" d="M2437.97 952.508C2449.43 954.885 2451.02 969.146 2459.43 978.727L2460.61 978.365C2461.2 972.254 2460.97 955.398 2467.53 953.251L2469.85 954.55C2474.92 961.374 2472.72 987.683 2472.45 997.828C2457.77 1004.85 2455.79 985.915 2447.16 979.311C2443.31 983.594 2447.86 995.326 2441.59 1000.94C2438.42 1000.98 2439.48 1001.02 2436.35 998.46C2435.21 990.714 2434.78 957.954 2437.97 952.508Z"/><path fill="#57341A" d="M886.435 893.164C898.419 892.734 919.363 892.164 919.904 909.632C919.974 912.969 918.714 916.197 916.402 918.604C910.744 924.592 905.301 924.199 897.752 924.302L895.023 924.387C892.501 927.869 894.387 930.836 891.77 936.766C889.01 938.782 890.3 938.296 886.255 937.945C879.491 933.422 881.741 903.662 882.782 895.557C882.976 894.047 885.104 893.703 886.435 893.164ZM903.641 914.273C904.972 911.007 905 910.893 904.852 907.329C901.946 901.929 899.277 901.692 893.146 901.341C892.831 905.523 891.917 910.26 893.603 913.835C897.283 916.071 898.987 915.17 903.641 914.273Z"/><path fill="#57341A" d="M1144.54 903.018C1144.71 911.826 1147.07 932.564 1140.52 937.936C1136.78 937.808 1138.49 938.296 1135.23 936.323C1130.26 928.409 1134.84 915.337 1133.61 906.233C1132.61 898.902 1124.57 907.024 1117.87 901.922C1117.35 898.498 1118.93 896.173 1121.38 893.993C1135.96 888.679 1154.31 897.947 1165.74 893.225L1166.98 892.705C1169.83 894.839 1171.32 895.197 1171.39 899.396C1171.54 909.358 1173.8 931.823 1168.45 939.495C1166.81 938.618 1165.27 937.688 1163.67 936.748C1160.86 932.584 1162.69 908.637 1162.37 901.063C1156.21 902.047 1150.77 902.499 1144.54 903.018Z"/><path fill="#57341A" d="M1734.53 844.618C1740.1 814.732 1777.3 825.204 1776.07 834.588C1768.64 838.776 1732.53 826.898 1749.95 857.045C1752.31 861.128 1757.95 861.726 1762.13 860.404C1766.5 853.75 1755.43 852.279 1755.02 845.021C1757.7 842.792 1772.25 841.614 1773.37 844.737C1784.22 874.927 1745.85 880.307 1735.75 855.755C1735.22 853.785 1734.75 847.015 1734.53 844.618Z"/><path fill="#57341A" d="M1232.74 826.98C1233.92 827.562 1236.46 828.386 1236.65 829.673C1238.03 838.826 1242.1 867.33 1232.29 871.71C1224.03 870.32 1219.19 854.699 1212.4 851.281L1211.04 852.054C1209.58 856.546 1210.12 864.284 1210.2 869.325C1207.29 870.627 1205.82 870.949 1202.71 871.752C1201.9 871.071 1200.63 870.164 1200.64 868.97C1200.68 862.239 1200.19 831.927 1202.43 827.975C1210.87 823.029 1222.18 847.955 1226.22 854.493C1226.25 847.636 1225.07 837.379 1226.84 830.964C1227.59 828.223 1230.34 827.835 1232.74 826.98Z"/><path fill="#57341A" d="M2538.53 901.81C2543.84 886.419 2573.51 882.29 2574.94 898.757C2572.87 900.653 2571.99 900.475 2568.99 900.259C2561.89 899.749 2554.21 897.796 2548.3 903.145C2539.8 910.83 2550.75 926.52 2560.38 925.808C2562.14 925.678 2562.83 924.775 2564.24 923.743C2565.71 921.029 2565.91 920.89 2565.55 917.965C2561.82 914.159 2557.1 916.992 2553.41 913.19C2558.56 907.79 2569.84 908.511 2576.71 908.725L2576.78 927.702C2565.52 938.118 2554.82 936.43 2542.44 929.924C2541.31 928.257 2538.54 924.809 2538.5 923.207L2538.1 922.237C2534.47 913.09 2534.85 910.485 2538.53 901.81Z"/><path fill="#57341A" d="M457.872 913.172C458.239 907.054 458.237 892.289 459.752 887.584C462.438 886.14 462.387 886.308 465.533 886.462C470.195 889.465 469.782 895.141 468.942 900.147C467.409 909.28 469.293 920.046 467.499 928.802L465.817 930.964C457.763 931.032 446.406 914.437 445.266 907.547C438.703 910.415 447.048 924.286 439.393 930.372C435.925 930.878 435.761 930.739 432.348 929.604C430.894 924.783 432.062 906.043 431.796 898.907C431.508 895.146 431.213 893.278 431.785 889.492C434.351 886.529 433.896 887.417 438.485 886.202C444.529 893.569 452.604 905.07 457.872 913.172Z"/><path fill="#57341A" d="M1756.98 891.175C1763.59 890.951 1790.87 887.913 1792.61 895.172C1787.66 904.007 1772.68 898.848 1768.48 901.356C1767.67 903.816 1767.98 904.395 1768.52 906.893C1774.76 913.759 1782.41 904.615 1787.64 911.56C1787.61 913.757 1788.07 914.957 1786.84 916.194C1784.04 919.024 1772.49 918.041 1768.08 917.955C1768.06 920.69 1767.61 924.737 1768.99 926.862C1777.18 929.814 1784.1 923.057 1790.5 931.244C1789.74 939.186 1763.71 936.115 1756.5 935.981C1756.47 927.036 1755.66 897.837 1756.98 891.175Z"/><path fill="#57341A" d="M2375.02 960.033C2377.08 956.937 2377.53 956.465 2380.36 954.035C2387.55 953.267 2386.48 965.976 2386.84 971.326C2392.23 964.891 2402.29 948.909 2411.69 956.374C2411.79 963.56 2400.85 969.654 2397.3 975.673C2400.13 978.987 2410.84 992.476 2411.51 996.026C2410.26 999.27 2411.29 998.04 2408.28 999.824C2396.37 1000.93 2396.42 988.026 2388.66 983.244L2387.21 984.069C2386.97 989.157 2387.43 995.411 2384.75 999.15C2381.27 1000.43 2378.86 999.453 2375.14 998.658C2375.97 986.534 2375.76 972.16 2375.02 960.033Z"/><path fill="#57341A" d="M1855.96 891.118C1862.99 890.886 1881.4 888.293 1882.74 897.434C1877.26 905.741 1867.7 899 1860.14 901.014L1859.07 902.95C1861 914.626 1874.26 906.088 1879.93 912.098C1879.6 914.862 1878.73 915.5 1876.96 917.644C1870.13 920.162 1865.58 919.106 1858.62 917.952C1858.82 920.319 1859.2 922.401 1859.6 924.73C1864.62 929.987 1875.96 924.075 1881.99 928.057C1884.13 931.551 1883.78 930.017 1883.89 934.008L1882.37 935.561C1874.98 936.518 1858.51 935.896 1850.36 935.778C1849.23 926.397 1847.52 904.154 1847.79 894.918C1850.11 892.53 1852.7 892.133 1855.96 891.118Z"/><path fill="#57341A" d="M1670.73 889.58C1672.18 889.866 1674.03 890.422 1675.5 890.814C1677.93 893.167 1694.09 932.553 1694.41 935.081C1692.51 937.106 1693.03 936.481 1689.87 937.275C1684.14 935.79 1682.38 931.596 1679.39 926.574L1677.77 926.567C1664.15 928.904 1667.55 924.84 1659.9 936.05C1656.31 937.144 1657.35 936.778 1653.22 935.886C1649.51 929.215 1664.12 894.604 1670.73 889.58Z"/><path fill="#57341A" d="M1532.1 55.9035C1535.6 56.8712 1539.04 58.0323 1539.11 62.4599C1539.4 81.7596 1540.16 101.163 1539.69 120.458C1539.59 124.699 1531.4 124.993 1528.66 125.216C1527.65 124.583 1525 122.546 1524.8 121.74C1522.29 111.658 1522.49 68.9725 1524.68 61.2179C1526.95 57.9076 1528.47 57.5938 1532.1 55.9035Z"/><path fill="#57341A" d="M1681.34 824.624C1683.59 825.567 1683.51 825.415 1685.01 827.307C1686.35 835.535 1685.37 861.436 1680.66 868.564C1677.06 870.477 1647.98 870.039 1641.74 869.921C1640.9 860.3 1640.95 851.895 1640.94 842.249C1640.78 836.433 1639.6 829.803 1643.26 825.708C1646.97 826.014 1645.55 825.548 1648.58 827.777C1652.46 834.332 1650.68 851.146 1650.82 860.467C1656.84 860.917 1667.21 862.233 1672.78 860.609C1680.28 852.94 1666.81 832.14 1681.34 824.624Z"/><path fill="#57341A" d="M1933.01 825.352C1939.38 825.097 1960.49 823.014 1963.61 827.168C1963.6 831.401 1964.26 830.646 1962.23 833.437C1957.41 835.348 1950.74 833.581 1944.27 834.478C1942.19 836.698 1942.83 835.868 1942.86 839.924C1948.39 845.675 1956.81 840.201 1961.69 843.589C1963.15 856.961 1951.04 847.29 1944.59 851.969C1942.63 853.389 1942.83 856.328 1942.48 858.805C1946.38 864.807 1957.98 858.906 1964.34 862.542C1966.35 865.54 1966.85 866.589 1964.31 869.325C1960.08 870.792 1935.6 871.673 1932.59 868.095C1930.63 859.973 1931.62 833.535 1933.01 825.352Z"/><path fill="#57341A" d="M2400.91 888.869C2404.59 889.097 2404.89 889.096 2408.3 890.354C2412.9 897.78 2428.34 925.929 2426.72 933.61C2424.43 935.439 2425.19 934.862 2421.39 934.709C2417.32 932.395 2415.32 929.222 2413.73 924.869C2407.38 924.721 2401.44 923.591 2396.84 927.628C2396.23 930.155 2396.23 931.048 2394.47 932.999C2390.69 934.43 2389.21 935.393 2386.63 931.956C2385.52 923.542 2398.16 899.601 2400.91 888.869Z"/><path fill="#57341A" d="M1860.07 57.1883C1863.29 56.8143 1872.93 56.1701 1872.99 60.9884C1873.15 73.3743 1875.99 115.692 1871.12 124.5C1857.33 128.797 1857.62 112.359 1858.52 103.443C1859.41 94.5496 1856.4 61.9901 1860.07 57.1883Z"/><path fill="#57341A" d="M2489.26 954.13C2495.85 953.468 2509.41 954.473 2509.29 963.341C2503.56 969.591 2492.73 961.029 2488.82 966.814C2490.65 971.169 2534.19 988.217 2498.37 1000.88C2490.28 1001.77 2476.34 999.753 2478.4 988.823C2485.1 987.694 2493.09 992.001 2499.58 989.708L2499.75 988.191C2493.71 980.18 2466.83 975.535 2480.27 961.25C2483.53 957.794 2485.12 956.403 2489.26 954.13Z"/><path fill="#57341A" d="M376.601 953.175C387.041 953.313 397.482 953.245 407.92 952.972L403.284 962.478C398.2 962.416 388.856 961.805 384.461 963.356C382.987 965.858 383.531 965.345 384.008 969.001C389.394 975.622 393.944 969.586 402.359 972.177C404.292 974.581 403.73 973.561 404.013 977.014C401.004 983.341 391.531 977.065 383.932 980.819L383.166 983.339C383.471 994.098 395.582 986.849 403.572 989.972C406.506 992.883 406.232 991.754 406.831 995.171L405.032 997.085C399.75 999.312 380.851 997.759 374.471 997.223C374.81 983.392 373.762 969.007 374.384 955.317C374.431 954.285 375.26 954.147 376.601 953.175Z"/><path fill="#57341A" d="M2341.51 977.233C2328.29 953.825 2354.55 947.03 2371.77 961.205C2369.99 964.774 2371 963.935 2367.94 965.807C2358.21 966.608 2354.78 960.036 2348.83 965.002L2348.09 967.757C2353.57 976.436 2377.57 973.19 2368.79 993.529C2359.47 1004.27 2336.3 1002.64 2336.85 989.305C2342.65 986.959 2350.54 993.573 2358.56 990.44C2359.72 987.948 2359.49 988.968 2358.33 985.581C2354.76 981.826 2346.62 979.279 2341.51 977.233Z"/><path fill="#57341A" d="M1895.03 891.143C1901.5 890.83 1912.15 890.51 1917.64 894.062C1919.23 897.337 1919.06 895.685 1918.27 899.182C1911.87 907.745 1907.4 898.877 1899.64 900.781C1897.79 903.164 1898.33 901.791 1898.46 905.191C1901.87 908.126 1910.6 910.91 1915.85 913.548C1920.28 924.364 1920.54 931.047 1908.46 936.214C1901.73 936.462 1884.31 936.528 1887.86 925.405C1896.61 920.394 1902.13 935.663 1908.54 924.987C1906.21 919.291 1896.65 916.468 1889.86 912.463C1884.44 902.936 1885.07 897.413 1895.03 891.143Z"/><path fill="#57341A" d="M1615.55 892.279C1618.35 892.074 1619.81 892.085 1622.62 892.207C1632.42 899.038 1627.06 915.688 1634.49 918.451C1637.29 915.237 1641.46 896.97 1645.2 892.88C1646.5 891.459 1652.85 890.982 1655.01 894.051C1654.95 898.233 1651.35 904.358 1649.45 908.634C1645.07 914.214 1645.56 932 1637.26 937.06C1635.03 937.202 1633.72 937.443 1631.71 935.842C1625.76 931.122 1611.44 897.41 1615.55 892.279Z"/><path fill="#57341A" d="M2288.67 888.123C2295.14 887.758 2309.68 890.654 2306.64 899.506C2300.94 902.488 2296.68 899.269 2291.02 896.793C2269.98 908.895 2283.82 935.068 2302.75 920.618C2306.91 923.381 2308.23 924.471 2307.91 929.462C2299.47 941.1 2280.76 931.573 2272.22 925.021C2265.17 906.995 2270.33 894.229 2288.67 888.123Z"/><path fill="#57341A" d="M350.321 885.257C356.514 885.943 363.68 887.717 366.415 893.96C366.202 897.545 366.695 895.885 364.652 899.05C358.293 900.136 347.489 889.694 345.019 897.119C341.336 908.189 361.215 902.057 365.853 913.508C365.122 920.004 366.809 920.282 365.933 925.052C362.262 930.023 357.27 930.366 351.28 931.598C344.823 931.07 338.31 929.938 334.429 924.28C333.953 920.956 333.644 922.427 335.042 919.664C342.933 918.695 347.827 926.045 355.495 921.481C356.365 913.948 307.62 895.049 350.321 885.257Z"/><path fill="#57341A" d="M429.553 952.369C435.28 952.121 449.964 953.79 448.177 962.001C441.303 965.86 424.095 958.364 419.086 968.428C416.34 973.944 421.251 985.988 427.461 987.98C434.63 990.279 437.694 987.817 443.938 984.715C447.568 987.506 448.327 988.091 446.722 992.435C431.609 1007.47 396.774 992.022 413.559 958.819C419.969 954.898 422.268 954.344 429.553 952.369Z"/><path fill="#57341A" d="M347.238 952.415C355.04 952.436 364.196 951.549 369.591 958.122C367.071 962.118 362.006 961.808 357.753 962.092C357.854 971.749 358.071 981.919 357.731 991.582C357.585 995.725 357.129 995.46 354.597 997.501C350.391 997.429 351.51 998.01 348.282 996.07C345.331 989.612 346.878 971.297 346.386 962.18C341.55 961.891 333.159 962.587 333.178 956.308C337.418 952.101 341.2 952.673 347.238 952.415Z"/><path fill="#57341A" d="M1104.97 837.814C1103.77 837.755 1102.57 837.68 1101.37 837.588C1097.28 837.236 1096.57 837.302 1094.4 834.779C1096.62 823.284 1118.62 827.313 1128.55 827.118C1128.79 831.912 1128.57 833.062 1127.77 837.655C1124.84 837.823 1120.93 837.578 1117.92 837.48C1115.49 849.297 1117.4 865.07 1112.48 870.507C1108.79 871.276 1110.48 871.538 1107.22 869.774C1103.78 863.889 1105.25 846.667 1104.97 837.814Z"/><path fill="#57341A" d="M453.749 952.776L466.975 952.507C471.128 952.433 481.303 951.571 484.055 954.227C484.159 957.024 484.316 957.779 483.541 960.55C480.614 962.545 476.37 961.919 472.551 961.874L472.818 991.25C472.814 993.175 472.68 993.359 472.312 995.27C468.652 997.557 467.622 998 463.781 995.833C459.835 989.015 461.623 970.615 461.795 961.81C457.717 961.907 453.426 962.719 450.55 959.698C450.966 956.137 451.522 955.791 453.749 952.776Z"/><path fill="#57341A" d="M1792.98 891.244C1804.2 890.807 1815.43 890.798 1826.64 891.215C1826.44 895.784 1827.11 897.331 1824.44 900.054C1821.56 899.939 1820.89 899.718 1818.26 901.011C1814.18 907.436 1815.55 918.589 1815.79 926.397C1815.85 930.305 1816.29 933.055 1814.32 935.971C1810.56 936.721 1811.9 936.995 1808.77 935.546C1804.29 928.713 1804.75 909.003 1804.84 900.253C1799.88 900.155 1796.5 900.82 1792.77 898.112C1791.82 895.215 1792.3 894.367 1792.98 891.244Z"/><path fill="#57341A" d="M1049.84 908.852C1057.51 909.597 1065.35 909.674 1070.7 915.693L1070.32 917.318C1063.68 921.189 1052.44 919.171 1049.08 925.183C1050.42 928.488 1049.36 927.238 1052.28 929.132C1057.81 928.998 1067.38 930.603 1073.23 931.298C1074.63 931.071 1074.49 931.266 1076.01 931.663C1075.73 937.625 1068.33 938.37 1063.47 938.489C1042.95 938.991 1039.56 937.686 1039.72 916.932C1042.93 912.66 1044.9 910.755 1049.84 908.852Z"/><path fill="#57341A" d="M2422.85 952.394L2425.16 953.745C2428.61 959.431 2428.83 991.296 2427.35 998.003C2425.26 1000.28 2422.32 1000.24 2419.16 1000.73L2416.3 998.675C2413.28 991.503 2417.32 970.958 2417.39 962.425C2417.42 958.109 2419.66 955.167 2422.85 952.394Z"/><path fill="#57341A" d="M1831.51 891.09C1833.59 891.038 1838.06 890.935 1839.15 892.518C1844.84 900.763 1842.77 925.741 1843.05 936.278C1838.09 936.235 1833.01 936.3 1832.11 930.535C1830.22 918.531 1831.48 903.235 1831.51 891.09Z"/><path fill="#57341A" d="M1623.54 825.876C1627.47 825.747 1628.59 825.415 1632.07 826.918C1634.98 830.939 1633.22 856.432 1633.53 862.894C1633.72 866.939 1633.65 868.724 1631.12 871.157C1628.21 870.608 1624.55 870.375 1622.84 868.467C1622.73 861.304 1621.48 830.366 1623.54 825.876Z"/><path fill="#57341A" d="M1740.63 891.078C1744.46 891.292 1745.52 890.737 1748.43 892.656C1749.15 899.29 1749.28 930.862 1746.28 935.762C1742.83 936.044 1742.49 936.049 1739.1 935.445C1736.48 931.004 1736.72 895.442 1740.63 891.078Z"/><path fill="#57341A" d="M2489.26 931.599C2484.93 933.976 2482.35 935.268 2478.1 932.455L2477.61 891.807L2479.41 890.055C2482.99 889.211 2483.56 889.439 2487.14 890.4C2490.12 902.447 2487.04 919.727 2489.26 931.599Z"/><path fill="#57341A" d="M1841.96 828.993C1843.42 826.877 1843.68 826.304 1845.77 824.674C1848.65 824.646 1847.34 824.227 1849.71 826.324C1851.95 833.038 1851.37 861.941 1849.96 869.259C1847.11 871.116 1843.28 870.295 1839.81 869.708C1841.42 864.084 1840.31 839.313 1841.96 828.993Z"/><path fill="#57341A" d="M488.988 952.508C492.744 952.612 493.244 952.53 496.743 953.683C499.852 957.065 498.522 991.228 498.511 997.403C494.996 997.418 492.728 997.85 489.866 995.956C487.303 991.034 488.83 959.9 488.988 952.508Z"/><path fill="#4A4946" fill-opacity="0.011764706" d="M2371.77 961.205L2375.02 960.033C2375.76 972.16 2375.97 986.534 2375.14 998.658C2373.12 997.491 2372.83 996.572 2371.67 994.552L2371.25 993.817L2368.79 993.529C2377.57 973.19 2353.57 976.436 2348.09 967.757L2348.83 965.002C2354.78 960.036 2358.21 966.608 2367.94 965.807C2371 963.935 2369.99 964.774 2371.77 961.205Z"/><path fill="#57341A" d="M1132.1 827.954C1137.79 827.226 1139.34 827.541 1144.45 830.203L1144.38 872.618C1141.36 872.015 1138.08 871.524 1135.02 871.003C1135.81 854.698 1137.21 843.791 1132.1 827.954Z"/><path fill="#F6F2E1" fill-opacity="0.023529412" d="M995.172 872.09C990.836 860.806 984.544 859.292 980.042 850.548C980.057 842.635 987.319 836.301 994.725 835.552L995.451 836.896C992.868 845.998 995.708 858.894 997.307 868.963C996.085 870.483 996.034 870.373 995.172 872.09Z"/><path fill="#57341A" d="M1053.54 892.343C1058.81 892.025 1067.24 892.312 1070.48 897.006L1069.53 899.324C1065.98 902.233 1054.87 905.443 1050.3 905.638L1048.96 904.539C1047.03 907.611 1046.73 908.136 1043.9 910.365C1040.58 910.322 1042.13 910.781 1039.25 908.478C1037.22 900.919 1047.26 894.535 1053.54 892.343Z"/><path fill="#4A4946" fill-opacity="0.019607844" d="M1833.07 834.313L1833.89 833.271C1837.82 832.315 1839.56 832.25 1841.96 828.993C1840.31 839.313 1841.42 864.084 1839.81 869.708C1837.77 866.78 1837.88 863.567 1837.29 859.814L1835.31 859.514C1833.16 850.875 1838.2 853.326 1829.73 845.469C1833 840.344 1833.7 840.554 1833.07 834.313Z"/><path fill="#F6F2E1" fill-opacity="0.047058824" d="M2487.14 890.4C2490.8 891.519 2489.91 891.048 2494.31 889.702C2494.12 902.015 2493.42 916.424 2493.89 928.48L2490.82 927.293L2489.26 931.599C2487.04 919.727 2490.12 902.447 2487.14 890.4Z"/><path fill="#F6F2E1" fill-opacity="0.011764706" d="M1041.76 121.38C1039.48 119.128 1038.53 119.024 1038.6 114.268C1038.86 97.1646 1037.5 78.6312 1039.22 61.6911C1040.33 60.5342 1041.24 59.5772 1041.96 58.8203C1042.29 80.1095 1042.69 100.055 1041.76 121.38Z"/><path fill="#F6F2E1" fill-opacity="0.011764706" d="M424.925 888.685C429.844 889.359 428.399 883.837 438.485 886.202C433.896 887.417 434.351 886.529 431.785 889.492C431.213 893.278 431.508 895.146 431.796 898.907L429.359 897.736C423.905 905.468 432.577 925.267 424.841 930.474C423.623 923.058 424.293 896.399 424.925 888.685Z"/><path fill="#F6F2E1" fill-opacity="0.050980393" d="M1166.98 892.705C1168.29 892.729 1171.2 892.478 1171.57 893.272C1173.07 896.442 1177.37 907.65 1178.27 910.447L1176.45 913.892C1175.18 921.59 1178.73 939.51 1168.45 939.495C1173.8 931.823 1171.54 909.358 1171.39 899.396C1171.32 895.197 1169.83 894.839 1166.98 892.705Z"/><path fill="#F6F2E1" fill-opacity="0.074509807" d="M1128.55 827.118L1131.42 828.328L1132.1 827.954C1137.21 843.791 1135.81 854.698 1135.02 871.003C1127.11 868.034 1135.71 845.21 1130.51 837.722L1127.77 837.655C1128.57 833.062 1128.79 831.912 1128.55 827.118Z"/><path fill="#F6F2E1" fill-opacity="0.10588235" d="M1144.45 830.203C1148.21 834.26 1147.55 835.325 1147.31 841.402C1147.28 842.223 1147.25 843.043 1147.21 843.863C1149.13 842.181 1149.1 842.237 1150.46 840.081L1152.83 838.935C1148.4 847.575 1147.39 852.242 1152.25 861.296L1148.16 858.953L1147.05 859.965C1147.36 863.942 1148 867.038 1146.61 870.707L1144.38 872.618L1144.45 830.203Z"/><path fill="#57341A" d="M251.004 979.185C262.022 982.81 256.244 987.788 258.171 997.867C253.799 997.669 252.048 997.929 248.167 995.868C248.408 991.84 250.163 983.419 251.004 979.185Z"/><path fill="#F6F2E1" fill-opacity="0.13333334" d="M2529.2 889.037C2538.32 898.062 2531.73 901.391 2535.29 904.764L2538.53 901.81C2534.85 910.485 2534.47 913.09 2538.1 922.237L2538.5 923.207L2535.18 920.158L2534.09 921.024C2534.22 925.194 2534.75 931.138 2532.81 934.623L2529.35 936.274C2534.16 930.307 2532.1 906.338 2532.03 898.176C2532.01 896.55 2529.89 890.847 2529.2 889.037Z"/><path fill="#F6F2E1" fill-opacity="0.12156863" d="M957.486 904.518L959.054 906.035C963.286 906.518 958.263 900.851 965.435 895.646C963.149 905.144 959.057 931.331 966.203 938.504C963.809 937.771 963.895 937.888 961.953 936.345C960.105 930.594 962.187 918.997 958.882 916.101L957.258 916.313C957.488 913.049 957.425 907.923 957.486 904.518Z"/><path fill="#F6F2E1" fill-opacity="0.086274512" d="M549.788 967.028L552.453 968.324C554.835 964.293 552.524 958.913 554.272 953.328C556.207 960.092 555.952 990.665 554.722 997.087C551.892 991.835 554.772 988.779 552.34 982.586L550.288 982.166C551.818 977.206 551.642 971.876 549.788 967.028Z"/><path fill="#57341A" fill-opacity="0.79607844" d="M246.618 971.989C246.724 968.825 246.143 970.07 247.925 967.945L250.449 967.791C254.54 978.9 250.456 974.408 262.08 981.869C262.657 982.24 263.571 982.38 264.282 982.524L264.626 984.501L260.843 984.277L259.444 985.603C259.767 991.056 262.122 994.187 258.171 997.867C256.244 987.788 262.022 982.81 251.004 979.185C251.152 976.933 250.294 971.199 248.476 969.744L246.618 971.989Z"/><path fill="#F6F2E1" fill-opacity="0.086274512" d="M246.618 971.989L248.476 969.744C250.294 971.199 251.152 976.933 251.004 979.185C250.163 983.419 248.408 991.84 248.167 995.868C244.067 991.441 248.749 986.662 246.199 981.679L242.287 981.409C245.016 977.919 245.348 976.118 246.618 971.989Z"/><path fill="#F6F2E1" fill-opacity="0.011764706" d="M1729.83 843.436C1731.4 843.92 1732.93 844.541 1734.53 844.618C1734.75 847.015 1735.22 853.785 1735.75 855.755C1733.24 857.719 1733.27 857.965 1732.17 861.085L1730.01 862.674L1729.83 843.436Z"/><path fill="#F6F2E1" fill-opacity="0.011764706" d="M1265.1 910.643C1267.86 916.417 1271.39 931.779 1266 936.259C1264.71 930.075 1265.1 917.422 1265.1 910.643Z"/><path fill="#F6F2E1" fill-opacity="0.011764706" d="M1091.35 857.37C1095.29 857.567 1097.43 856.924 1099.9 859.075C1099.54 863.865 1098.18 865.189 1098.29 870.73C1094.82 866.692 1095.12 863.066 1091.35 857.37Z"/></svg>