<?xml version="1.0" encoding="utf-8" ?><svg xmlns="http://www.w3.org/2000/svg" xmlns:xlink="http://www.w3.org/1999/xlink" width="2816" height="1536" viewBox="0 0 2816 1536"><path fill="#9B5E36" d="M0 0L92.093 0L531.061 0L2135.7 0L2816 0L2816 113.301L2816 317.945L2816 337.285L2816 393.377L2816 484.234L2816 486.49L2816 886.029L2816 936.906L2816 939.281L2816 978.086L2816 1032.34L2816 1132.22L2816 1330.65L2816 1536L1711.78 1536L590.239 1536L0 1536L0 1446.98L0 1330.94L0 1131.67L0 1032.88L0 885.981L0 586.246L0 561.064L0 484.026L0 393.562L0 0Z"/><path fill="#E7C3A8" d="M0 0L92.093 0L531.061 0L2135.7 0L2816 0L2816 113.301L2816 317.945L2816 337.285L2816 393.377L2632.15 393.336C2608.16 393.3 2565.63 391.902 2543.33 393.769C2543.87 399.527 2542.84 416.652 2542.85 423.596L2542.78 484.362C2523.29 485.757 2488.92 484.693 2468.37 484.53C2434.24 483.785 2398.21 484.324 2363.91 484.334L2172.4 484.437L2056.95 484.305C2038.01 484.284 2010.92 483.506 1992.77 484.816C1984.59 471.328 1970.62 452.597 1961.4 438.98C1952.63 426.043 1939.12 405.315 1929.84 393.83C1923.07 392.857 1900.76 393.206 1893.18 393.191L1817.45 393.211C1740.5 393.277 1661.67 392.251 1584.91 393.521C1562.82 349.493 1533.24 306.159 1487.97 283.411C1417.32 247.903 1329.13 262.412 1270.5 314.471C1244 338 1228.92 363.037 1212.84 394.157C1206.85 392.984 1183.5 393.303 1176.1 393.297L1104.37 393.27L954.216 393.243C924.837 393.239 892.947 392.7 863.709 393.71C863.007 398.803 813.461 473.87 807.831 484.064C795.489 502.091 783.454 522.048 771.632 540.56L691.583 666.579L656.369 721.591C653.896 725.453 642.129 743.401 640.722 746.729L635.608 754.69L453.297 756.393L386.133 757.095C374.755 757.223 359.303 756.953 348.319 757.77C367.468 768.688 387.976 778.091 407.408 788.551C411.071 790.523 415.325 792.764 419.129 794.377L427.943 798.752C436.768 803.558 445.644 808.27 454.568 812.888C443.316 819.178 425.441 828.562 415.532 835.915L369.37 860.855C363.487 864.033 347.076 872.827 342.269 876.235C353.796 877.919 385.833 876.884 399.334 876.744L503.283 875.636C520.748 875.734 538.214 875.683 555.678 875.482L549.925 885.996L0 885.981L0 586.246L0 561.064L0 484.026L0 393.562L0 0Z"/><path fill="#6D7745" d="M272.738 393.648C272.362 394.871 272.864 478.517 273.056 484.267L507.041 484.772L577.736 484.743C586.149 484.732 606.862 485.136 614.416 484.131C677 484.347 745.604 485.595 807.831 484.064C795.489 502.091 783.454 522.048 771.632 540.56L691.583 666.579L656.369 721.591C653.896 725.453 642.129 743.401 640.722 746.729L635.608 754.69L453.297 756.393L386.133 757.095C374.755 757.223 359.303 756.953 348.319 757.77C367.468 768.688 387.976 778.091 407.408 788.551C411.071 790.523 415.325 792.764 419.129 794.377L427.943 798.752C436.768 803.558 445.644 808.27 454.568 812.888C443.316 819.178 425.441 828.562 415.532 835.915L369.37 860.855C363.487 864.033 347.076 872.827 342.269 876.235C353.796 877.919 385.833 876.884 399.334 876.744L503.283 875.636C520.748 875.734 538.214 875.683 555.678 875.482L549.925 885.996L0 885.981L0 586.246L0 561.064L0 484.026L0 393.562C11.5409 393.253 24.205 393.253 35.7375 393.512C114.21 395.274 194.393 391.265 272.738 393.648Z"/><path fill="#B9623F" d="M272.738 393.648C272.362 394.871 272.864 478.517 273.056 484.267C183.127 484.303 89.7325 485.445 0 484.026L0 393.562C11.5409 393.253 24.205 393.253 35.7375 393.512C114.21 395.274 194.393 391.265 272.738 393.648Z"/><path fill="#C58336" d="M181.625 816.259C231.423 795.782 284.163 779.206 334.691 760.494C338.593 759.049 344.462 756.341 348.319 757.77C367.468 768.688 387.976 778.091 407.408 788.551C411.071 790.523 415.325 792.764 419.129 794.377L427.943 798.752C436.768 803.558 445.644 808.27 454.568 812.888C443.316 819.178 425.441 828.562 415.532 835.915L369.37 860.855C363.487 864.033 347.076 872.827 342.269 876.235C339.102 873.942 314.656 866.015 309.036 863.89C266.245 847.714 224.254 833.175 181.625 816.259Z"/><path fill="#999F60" d="M0 561.064L421.138 561.068C421.172 569.224 421.049 578.126 421.292 586.226L0 586.246L0 561.064Z"/><path fill="#999F60" d="M478.851 561.004C511.499 561.905 548.509 561.066 581.489 561.051C581.179 569.02 581.462 577.925 581.542 585.966C573.115 586.714 555.432 586.227 546.696 586.218L478.927 586.121L478.851 561.004Z"/><path fill="#999F60" d="M2135.7 0L2816 0L2816 113.301L2816 317.945L2816 337.285L2816 393.377L2632.15 393.336C2608.16 393.3 2565.63 391.902 2543.33 393.769C2543.87 399.527 2542.84 416.652 2542.85 423.596L2542.78 484.362C2523.29 485.757 2488.92 484.693 2468.37 484.53C2469.87 477.225 2469.64 401.605 2468.1 393.799C2470.64 385.303 2468.88 302.843 2468.83 288.042C2429.94 239.835 2387.42 186.068 2350.38 136.953C2344.57 136.532 2331.94 136.938 2325.54 136.941C2268.79 136.962 2224.12 143.22 2178.22 100.248C2148.86 72.7586 2136.9 39.3662 2135.7 0Z"/><path fill="#E7C3A8" d="M2657.2 137.146C2659.8 136.398 2680.92 137.112 2684.92 137.015C2738.76 135.708 2767.5 144.626 2816 113.301L2816 317.945L2816 337.285L2816 393.377L2632.15 393.336C2608.16 393.3 2565.63 391.902 2543.33 393.769C2542.19 387.402 2542.65 358.038 2542.65 350.444L2542.56 258.02C2579.58 218.583 2619.58 175.61 2657.2 137.146Z"/><path fill="#B9623F" d="M2608.11 317.901L2816 317.945L2816 337.285L2608.15 337.534L2608.11 317.901Z"/><path fill="#9B5E36" d="M2616.77 137.195C2629.68 137.009 2644.31 136.828 2657.2 137.146C2619.58 175.61 2579.58 218.583 2542.56 258.02L2542.65 350.444C2542.65 358.038 2542.19 387.402 2543.33 393.769C2543.87 399.527 2542.84 416.652 2542.85 423.596L2542.78 484.362C2523.29 485.757 2488.92 484.693 2468.37 484.53C2469.87 477.225 2469.64 401.605 2468.1 393.799C2470.64 385.303 2468.88 302.843 2468.83 288.042C2429.94 239.835 2387.42 186.068 2350.38 136.953C2361.74 137.007 2375.18 137.388 2386.37 136.76C2411.61 137.36 2445.44 135.618 2469.01 137.069L2542.36 137.093C2542.35 158.064 2541.36 190.209 2542.75 210.328L2543.29 212.937C2547.23 212.03 2608.01 146.519 2616.77 137.195Z"/><path fill="#E7C3A8" d="M2386.37 136.76C2411.61 137.36 2445.44 135.618 2469.01 137.069L2469.02 240.967C2441.4 206.486 2414.34 170.772 2386.37 136.76Z"/><path fill="#E7C3A8" d="M2542.93 136.909C2565.38 137.205 2595.24 135.839 2616.77 137.195C2608.01 146.519 2547.23 212.03 2543.29 212.937L2542.75 210.328C2543.96 189.733 2542.94 158.33 2542.93 136.909Z"/><path fill="#E7C3A8" d="M0 0L92.093 0C98.8365 62.0579 124.311 113.93 173.619 153.428C195.18 171.022 219.998 184.191 246.655 192.181C250.715 193.417 271.136 198.251 273.228 199.424C272.598 243.653 273.52 288.166 273.132 332.364C272.983 349.264 274.151 378.017 272.738 393.648C194.393 391.265 114.21 395.274 35.7375 393.512C24.205 393.253 11.5409 393.253 0 393.562L0 0Z"/><path fill="#6D7745" d="M92.093 0L531.061 0C521.533 78.6771 482.407 141.115 410.697 178.52C388.304 190.201 371.398 193.487 347.359 199.48C312.428 203.141 307.153 201.767 273.228 199.424C271.136 198.251 250.715 193.417 246.655 192.181C219.998 184.191 195.18 171.022 173.619 153.428C124.311 113.93 98.8365 62.0579 92.093 0Z"/><path fill="#B9623F" d="M273.228 199.424C307.153 201.767 312.428 203.141 347.359 199.48L347.371 330.832C347.371 345.804 346.278 380.091 347.582 393.78C373.264 392.576 407.27 393.492 433.367 393.493L606.989 393.265C607.022 377.62 606.853 361.484 607.376 345.885L607.917 346.001C608.169 362.15 607.863 377.916 607.948 393.982C613.423 394.064 618.656 394.144 624.131 393.982C634.187 392.298 683.597 393.582 696.433 393.595L863.709 393.71C863.007 398.803 813.461 473.87 807.831 484.064C745.604 485.595 677 484.347 614.416 484.131C606.862 485.136 586.149 484.732 577.736 484.743L507.041 484.772L273.056 484.267C272.864 478.517 272.362 394.871 272.738 393.648C274.151 378.017 272.983 349.264 273.132 332.364C273.52 288.166 272.598 243.653 273.228 199.424Z"/><path fill="#9B5E36" d="M273.228 199.424C307.153 201.767 312.428 203.141 347.359 199.48L347.371 330.832C347.371 345.804 346.278 380.091 347.582 393.78C345.723 421.8 348.749 454.968 347.201 483.792L526.65 483.727C548.349 483.737 594.446 482.414 614.416 484.131C606.862 485.136 586.149 484.732 577.736 484.743L507.041 484.772L273.056 484.267C272.864 478.517 272.362 394.871 272.738 393.648C274.151 378.017 272.983 349.264 273.132 332.364C273.52 288.166 272.598 243.653 273.228 199.424Z"/><path fill="#B9623F" d="M2295.23 352.975C2296.95 359.01 2296.03 386.36 2295.87 393.663L2309.17 393.888C2316.17 392.822 2330.45 393.228 2338.01 393.24L2388.39 393.271L2440.29 393.313C2447.78 393.323 2461.39 392.956 2468.1 393.799C2469.64 401.605 2469.87 477.225 2468.37 484.53C2434.24 483.785 2398.21 484.324 2363.91 484.334L2172.4 484.437L2056.95 484.305C2038.01 484.284 2010.92 483.506 1992.77 484.816C1984.59 471.328 1970.62 452.597 1961.4 438.98C1952.63 426.043 1939.12 405.315 1929.84 393.83C1944 393.019 1962.59 393.389 1976.97 393.381L2057.17 393.398L2295.13 393.373L2295.23 352.975Z"/><path fill="#999F60" d="M607.376 345.885L607.069 342.89C604.961 340.342 591.114 338.791 585.994 336.931C580.104 334.735 574.471 331.901 569.197 328.48C550.799 316.205 538.115 297.044 534.002 275.313C529.721 253.299 533.762 229.688 546.469 211.041C559.077 192.778 578.46 180.311 600.308 176.412C621.882 172.446 644.941 176.944 663.025 189.492C681.603 202.296 694.232 222.052 698.054 244.289C701.813 266.599 696.58 289.489 683.501 307.949C668.339 329.269 649.233 337.833 624.325 341.965L623.948 343.072C624.681 359.174 624.193 377.702 624.131 393.982C618.656 394.144 613.423 394.064 607.948 393.982C607.863 377.916 608.169 362.15 607.917 346.001L607.376 345.885Z"/><path fill="#9B5E36" d="M607.391 246.85L624.266 246.705C624.163 272.813 622.752 317.619 624.325 341.965L623.948 343.072C624.681 359.174 624.193 377.702 624.131 393.982C618.656 394.144 613.423 394.064 607.948 393.982C607.863 377.916 608.169 362.15 607.917 346.001C607.166 334.048 607.415 318.057 607.222 305.706C593.678 292.411 580.381 278.867 567.338 265.079L575.84 256.501C585.633 265.667 596.088 278.014 606.17 286.402L607.837 286.125C607.548 273.242 607.856 259.53 607.391 246.85Z"/><path fill="#999F60" d="M2295.01 352.279C2228.88 342.466 2208.04 261.849 2262.26 222.693C2277.3 211.838 2299.17 208.16 2317.29 211.619C2335.65 215.036 2351.87 225.68 2362.32 241.164C2373.14 257.286 2377.1 277.053 2373.33 296.101C2369.7 314.535 2358.71 330.693 2342.9 340.839C2333.74 346.758 2320.42 351.642 2309.49 352.402C2308.67 365.238 2309.23 380.699 2309.17 393.888L2295.87 393.663C2296.03 386.36 2296.95 359.01 2295.23 352.975L2295.01 352.279Z"/><path fill="#9B5E36" d="M2295.49 271.157L2309.33 271.292L2309.36 306.916L2336.95 278.473L2344.86 286.081C2335.26 295.812 2317.44 312.684 2309.45 322.111C2309.42 331.419 2309.83 343.393 2309.49 352.402C2308.67 365.238 2309.23 380.699 2309.17 393.888L2295.87 393.663C2296.03 386.36 2296.95 359.01 2295.23 352.975L2295.01 352.279C2296.23 327.406 2295.22 296.627 2295.49 271.157Z"/><path fill="#B26B40" d="M1878.11 352.769L2011.8 352.759C2020.67 352.742 2062.81 352.17 2068.28 353.346C2069.94 356.997 2069.41 360.906 2069.33 365.047L1878.24 365.015L1878.11 352.769Z"/><path fill="#B26B40" d="M764.078 354.111C767.921 352.087 900.314 352.666 915.163 353.086C919.699 353.044 918.768 352.333 921.422 354.617C922.417 358.349 921.902 361.353 921.635 365.227L808.781 365.04C802.241 365.04 768.839 365.52 764.55 364.684C763.131 361.718 763.668 357.478 764.078 354.111Z"/><path fill="#B9623F" d="M915.163 353.086C919.699 353.044 918.768 352.333 921.422 354.617C922.417 358.349 921.902 361.353 921.635 365.227L808.781 365.04C802.241 365.04 768.839 365.52 764.55 364.684C763.131 361.718 763.668 357.478 764.078 354.111C765.723 354.371 765.062 354.007 766.128 355.072C766.438 357.502 766.347 359.369 767.908 361.159C788.446 363.523 828.932 361.779 851.065 361.983C866.35 362.124 905.346 362.868 918.299 361.38L919.805 358.75L918.854 356.146C916.803 355.248 916.478 354.894 915.163 353.086Z"/><path fill="#B26B40" d="M697.014 353.091C704.405 352.745 743.786 351.746 748.027 354.028C748.624 356.77 748.586 362.268 748.678 365.305C731.263 365.04 713.845 365.023 696.43 365.253C696.102 359.865 696.258 358.425 697.014 353.091Z"/><path fill="#B9623F" d="M697.014 353.091L699.304 354.254L698.32 358.911C702.66 363.981 743.168 362.951 746.859 360.222C746.437 357.489 745.907 356.592 744.811 354.124C745.851 354.067 747.019 353.941 748.027 354.028C748.624 356.77 748.586 362.268 748.678 365.305C731.263 365.04 713.845 365.023 696.43 365.253C696.102 359.865 696.258 358.425 697.014 353.091Z"/><path fill="#B26B40" d="M2084.21 352.616L2122.65 352.906L2122.67 364.882L2084.39 365.001L2084.21 352.616Z"/><path fill="#4E2B22" d="M549.925 885.996L828.296 885.891L900.287 885.854C922.459 885.807 946.191 884.706 967.786 889.162C992.802 894.421 1015.77 906.778 1033.95 924.753C1057.78 952.814 1070.63 979.139 1087.3 1011.51C1089.43 1015.64 1098.3 1029.76 1098.61 1032.81C1104.47 1038.56 1113.92 1055.38 1119.58 1062.85C1135.1 1083.33 1163.52 1116.61 1183.22 1132.06L1184.22 1132.22L1473.97 1132.4L1579.03 1132.31C1595.07 1132.26 1617.19 1131.46 1632.88 1132.2L1633.64 1131.96C1666.21 1132.97 1701.54 1132.31 1734.3 1132.3L1911.38 1132.27L2133.59 1132.34C2173.36 1132.36 2214.54 1132.91 2254.2 1132.19C2290.85 1132.13 2329.05 1131.65 2365.58 1132.3L2487.35 1132.36C2505.2 1132.37 2532.91 1133.25 2549.86 1132.07L2551.95 1131.77C2563.59 1132.26 2575.19 1132.05 2586.84 1132.14C2663.17 1132.72 2739.69 1131.39 2816 1132.22L2816 1330.65L2816 1536L1711.78 1536L590.239 1536L0 1536L0 1446.98L0 1330.94L0 1131.67L0 1032.88L0 885.981L549.925 885.996Z"/><path fill="#A9BF8C" d="M2549.86 1132.07L2551.95 1131.77C2563.59 1132.26 2575.19 1132.05 2586.84 1132.14C2663.17 1132.72 2739.69 1131.39 2816 1132.22L2816 1330.65L2816 1536L1711.78 1536C1728.9 1507.02 1756.41 1472.63 1778.26 1447.7L1796.16 1429.66C1830.16 1400.28 1862.38 1374.89 1904.71 1358.16C1916.39 1353.54 1928.26 1349.98 1939.95 1345.57C1990.82 1331.85 2022.17 1330.58 2074.09 1330.67L2152.17 1330.67L2340.62 1330.76C2344.57 1329.76 2353.82 1319.91 2357.07 1316.6C2371.97 1304.65 2549.01 1134.09 2549.86 1132.07Z"/><path fill="#B9623F" d="M2549.86 1132.07L2551.95 1131.77C2563.59 1132.26 2575.19 1132.05 2586.84 1132.14C2663.17 1132.72 2739.69 1131.39 2816 1132.22L2816 1330.65C2758.82 1332.2 2694.8 1330.85 2637.11 1330.84L2340.62 1330.76C2344.57 1329.76 2353.82 1319.91 2357.07 1316.6C2371.97 1304.65 2549.01 1134.09 2549.86 1132.07Z"/><path fill="#D4DFC6" d="M2702.97 1375.27C2704.26 1376.05 2715.47 1396.72 2717.43 1400.95C2722.39 1411.63 2750.93 1421.8 2751.86 1424.43C2749.47 1427.33 2743.54 1427.83 2739.68 1429.82C2718.98 1440.53 2712.29 1452.34 2704.99 1472.74C2701.23 1469.79 2696.56 1457.24 2693.53 1451.72C2684.57 1435.36 2670.79 1432.68 2656.57 1425.01L2656.35 1423.22C2659.12 1420.41 2663.83 1420.85 2667.44 1418.95C2687.78 1408.24 2695.54 1396.21 2702.97 1375.27Z"/><path fill="#E2A247" d="M549.925 885.996L828.296 885.891L900.287 885.854C922.459 885.807 946.191 884.706 967.786 889.162C992.802 894.421 1015.77 906.778 1033.95 924.753C1057.78 952.814 1070.63 979.139 1087.3 1011.51C1089.43 1015.64 1098.3 1029.76 1098.61 1032.81L0 1032.88L0 885.981L549.925 885.996Z"/><path fill="#B9623F" d="M426.839 947.655C428.546 951.164 427.705 983.325 427.681 989.186L310.78 989.214C310.724 976.705 310.169 959.71 311.13 947.567C322.24 949.329 415.369 949.76 426.839 947.655Z"/><path fill="#B26B40" d="M0 1032.88L1098.61 1032.81C1104.47 1038.56 1113.92 1055.38 1119.58 1062.85C1135.1 1083.33 1163.52 1116.61 1183.22 1132.06C1127.13 1133.65 1064.19 1132.36 1007.71 1132.36L674.161 1132.34L467.165 1132.31L404.877 1132.42C394.281 1132.46 377.539 1132.92 367.472 1132.06C357.124 1132.47 347.656 1132.31 337.296 1132.12C321.933 1133.05 284.799 1132.97 269.316 1132.24C266.24 1131.17 217.074 1131.71 210.677 1131.7L0 1131.67L0 1032.88Z"/><path fill="#B9623F" d="M337.296 1132.12C348.401 1128.01 355.967 1127.77 367.472 1132.06C357.124 1132.47 347.656 1132.31 337.296 1132.12Z"/><path fill="#B9623F" d="M1167 1447.4C1217.12 1446.51 1268.75 1447.15 1319.05 1447.16L1591.33 1447.2L1720.08 1447.2C1731.23 1447.19 1769.58 1446.32 1778.26 1447.7C1756.41 1472.63 1728.9 1507.02 1711.78 1536L590.239 1536C569.168 1514.83 540.633 1492.73 518.972 1471.69C511.708 1464.64 498.274 1454.36 492.151 1447.11L935.728 1447.11L1087.05 1447.15C1112.14 1447.17 1142.2 1446.42 1167 1447.4Z"/><path fill="#A9BF8C" d="M0 1330.94C119.178 1330.9 242.039 1332.36 360.984 1330.7C366.333 1337.69 394.592 1361.06 402.618 1368.32C431.663 1394.63 462.204 1420.34 491.017 1446.92L492.151 1447.11C498.274 1454.36 511.708 1464.64 518.972 1471.69C540.633 1492.73 569.168 1514.83 590.239 1536L0 1536L0 1446.98L0 1330.94Z"/><path fill="#999F60" d="M491.017 1446.92L492.151 1447.11C498.274 1454.36 511.708 1464.64 518.972 1471.69C540.633 1492.73 569.168 1514.83 590.239 1536L0 1536L0 1446.98L317.578 1447.13L431.034 1447.18C448.806 1447.19 473.719 1447.92 491.017 1446.92Z"/><path fill="#C58336" d="M0 1131.67L210.677 1131.7C217.074 1131.71 266.24 1131.17 269.316 1132.24C323.25 1181.51 379.721 1228.94 433.715 1278.15C443.584 1287.15 479.816 1317.62 486.564 1325.47L486.538 1326.83L489.072 1329.49L488.268 1330.55C477.964 1331.43 461.576 1330.73 450.873 1330.63L390.068 1330.47C384.457 1330.47 365.795 1330.09 360.984 1330.7C242.039 1332.36 119.178 1330.9 0 1330.94L0 1131.67Z"/><path fill="#E2A247" d="M486.564 1325.47C488.611 1327.05 490.159 1328.54 492.534 1329.45L493.136 1331.45C500.337 1330.13 522.506 1330.62 531.001 1330.64L601.955 1330.77L736.539 1330.74C762.493 1330.73 792.419 1330.03 818.056 1331.5C881.201 1335.38 929.001 1344.46 989 1362.9C1015.88 1372.96 1039.79 1381.95 1066.04 1393.85C1088.23 1403.92 1108.09 1414.93 1129.68 1425.66C1139.68 1431.46 1158.48 1441.3 1167 1447.4C1142.2 1446.42 1112.14 1447.17 1087.05 1447.15L935.728 1447.11L492.151 1447.11L491.017 1446.92C462.204 1420.34 431.663 1394.63 402.618 1368.32C394.592 1361.06 366.333 1337.69 360.984 1330.7C365.795 1330.09 384.457 1330.47 390.068 1330.47L450.873 1330.63C461.576 1330.73 477.964 1331.43 488.268 1330.55L489.072 1329.49L486.538 1326.83L486.564 1325.47Z"/><path fill="#D1AC54" d="M493.136 1331.45C500.337 1330.13 522.506 1330.62 531.001 1330.64L601.955 1330.77L736.539 1330.74C762.493 1330.73 792.419 1330.03 818.056 1331.5C814.105 1334.62 797.116 1333.47 791.363 1333.47L734.954 1333.45L535.354 1333.7C523.666 1333.78 512.297 1332.13 500.761 1332.66C496.905 1332.83 496.746 1334.16 493.136 1331.45Z"/><path fill="#B9623F" d="M1184.22 1132.22L1473.97 1132.4L1579.03 1132.31C1595.07 1132.26 1617.19 1131.46 1632.88 1132.2L1629.89 1134.5C1568.72 1190.07 1476.06 1221.18 1393.69 1217.3C1317.89 1213.4 1245.5 1184.54 1187.82 1135.21L1184.22 1132.22Z"/><path fill="#442318" d="M1129.68 1425.66C1133.43 1425.28 1163.66 1441.16 1168.31 1443.99C1207.44 1443.03 1245.22 1443.91 1284.18 1444.12L1409.47 1444.35L1685.15 1443.58C1715.14 1443.53 1749.38 1445.06 1778.5 1444.51C1782.29 1440.66 1790.78 1431.54 1794.76 1428.79L1796.16 1429.66L1778.26 1447.7C1769.58 1446.32 1731.23 1447.19 1720.08 1447.2L1591.33 1447.2L1319.05 1447.16C1268.75 1447.15 1217.12 1446.51 1167 1447.4C1158.48 1441.3 1139.68 1431.46 1129.68 1425.66Z"/><path fill="#442318" d="M1939.95 1345.57L1939.7 1344.36C1942.28 1341.97 1953.63 1339.65 1957.76 1338.65C1982.84 1332.55 2008.44 1328.84 2034.22 1327.59C2044.53 1327.07 2076.21 1327.92 2083.87 1327.25C2108.32 1325.1 2337.03 1330.19 2342.74 1325.8L2342.5 1322.4C2344.74 1318.94 2343.79 1321.96 2345.61 1321.25C2349.13 1319.86 2352.47 1318.13 2355.51 1315.87L2357.07 1316.6C2353.82 1319.91 2344.57 1329.76 2340.62 1330.76L2152.17 1330.67L2074.09 1330.67C2022.17 1330.58 1990.82 1331.85 1939.95 1345.57Z"/><path fill="#442318" d="M492.534 1329.45C497.613 1327.34 776.085 1328.03 806.543 1328.59C815.624 1328.75 824.74 1329.53 833.797 1330.21C865.494 1332.6 935.772 1340.77 963.898 1352.18C970.748 1354.96 985.837 1357.76 989 1362.9C929.001 1344.46 881.201 1335.38 818.056 1331.5C792.419 1330.03 762.493 1330.73 736.539 1330.74L601.955 1330.77L531.001 1330.64C522.506 1330.62 500.337 1330.13 493.136 1331.45L492.534 1329.45Z"/><path fill="#E7C3A8" d="M577.923 1185.21C603.225 1181.33 626.905 1198.64 630.882 1223.92C634.86 1249.21 617.637 1272.95 592.364 1277.02C566.961 1281.11 543.069 1263.78 539.071 1238.36C535.073 1212.95 552.491 1189.12 577.923 1185.21Z"/><path fill="#4E2B22" d="M581.931 1199.36C623.762 1200.61 624.684 1256.77 587.411 1262.58C547.973 1261.44 544.06 1207.21 581.931 1199.36Z"/><path fill="#E7C3A8" d="M1212.02 1275.29C1237.23 1270.06 1261.89 1286.34 1266.98 1311.58C1272.08 1336.82 1255.66 1361.39 1230.39 1366.34C1205.32 1371.25 1180.99 1354.99 1175.93 1329.95C1170.88 1304.91 1187 1280.49 1212.02 1275.29Z"/><path fill="#4E2B22" d="M1217.12 1289.38C1231.61 1288.2 1244.06 1294.62 1249.07 1308.84C1252.03 1317.25 1251.5 1326.49 1247.62 1334.51C1243 1344.11 1236.43 1348.87 1226.67 1352.16C1220.07 1352.47 1215.22 1352.45 1209.03 1349.34C1201.76 1345.71 1196.25 1339.32 1193.74 1331.58C1190.91 1322.82 1191.74 1313.29 1196.05 1305.15C1200.99 1295.93 1207.62 1292.34 1217.12 1289.38Z"/><path fill="#E7C3A8" d="M680.076 1185.24C705.563 1181.71 729.058 1199.58 732.472 1225.08C735.885 1250.58 717.916 1274 692.399 1277.3C667.041 1280.58 643.801 1262.75 640.409 1237.41C637.017 1212.06 654.748 1188.74 680.076 1185.24Z"/><path fill="#4E2B22" d="M679.19 1200.12C721.946 1196.82 728.918 1249.08 692.92 1262.01C655.892 1267.26 641.315 1216.82 679.19 1200.12Z"/><path fill="#E7C3A8" d="M1938.95 1196.26C1964.14 1191.98 1988.05 1208.87 1992.43 1234.05C1996.82 1259.22 1980.04 1283.2 1954.89 1287.7C1929.58 1292.23 1905.41 1275.31 1901 1249.98C1896.58 1224.65 1913.6 1200.56 1938.95 1196.26Z"/><path fill="#4E2B22" d="M1930.1 1215.64C1938.91 1209.45 1948.69 1209.09 1958.31 1213.52C1974.66 1221.66 1980.34 1241.89 1972.25 1257.76C1968.59 1264.83 1962.16 1270.07 1954.5 1272.24C1947.13 1274.33 1939.23 1273.38 1932.57 1269.6C1913.64 1258.71 1912.65 1228.14 1930.1 1215.64Z"/><path fill="#442318" d="M1930.1 1215.64C1938.91 1209.45 1948.69 1209.09 1958.31 1213.52C1949.44 1214.08 1937.82 1215.4 1930.1 1215.64Z"/><path fill="#E7C3A8" d="M1839.05 1213.17C1864.37 1209.11 1888.17 1226.39 1892.15 1251.73C1896.12 1277.06 1878.76 1300.8 1853.41 1304.69C1828.19 1308.57 1804.58 1291.31 1800.62 1266.09C1796.67 1240.88 1813.85 1217.22 1839.05 1213.17Z"/><path fill="#4E2B22" d="M1871.99 1273.96C1869.77 1278.68 1863.71 1285.87 1858.89 1287.83C1823.06 1302.35 1798.34 1246.28 1834.78 1230.34C1850.42 1223.5 1866 1230.32 1872.4 1245.81C1876.26 1254.77 1877.24 1265.3 1871.99 1273.96Z"/><path fill="#442318" d="M1872.4 1245.81C1876.26 1254.77 1877.24 1265.3 1871.99 1273.96C1872.07 1274.22 1872.26 1246.4 1872.4 1245.81Z"/><path fill="#E7C3A8" d="M1314.18 1289.35C1339.34 1285.12 1363.18 1302.03 1367.51 1327.17C1371.83 1352.31 1355 1376.22 1329.88 1380.63C1304.62 1385.06 1280.57 1368.14 1276.23 1342.87C1271.88 1317.6 1288.9 1293.61 1314.18 1289.35Z"/><path fill="#4E2B22" d="M1315.03 1305.27C1331.47 1301.51 1347.83 1311.84 1351.51 1328.29C1355.19 1344.75 1344.78 1361.06 1328.3 1364.65C1311.95 1368.22 1295.78 1357.9 1292.13 1341.56C1288.48 1325.23 1298.72 1309.01 1315.03 1305.27Z"/><path fill="#E7C3A8" d="M2158.26 1182.01C2159.41 1181.96 2160.56 1181.94 2161.71 1181.95C2168.15 1182.07 2171.89 1185.62 2173.69 1191.34C2177.86 1204.62 2204.02 1261.37 2203.12 1270.72C2202.07 1273.13 2201.06 1274.89 2198.44 1275.85C2187.85 1279.72 2183.26 1259.92 2180.82 1252.81L2167.75 1252.85L2146.26 1252.97C2143.83 1261.21 2141.09 1277.09 2130.92 1276.98C2127.2 1275.21 2123.83 1272.2 2124.8 1267.62C2125.93 1262.26 2127.97 1256.77 2129.84 1251.61C2137.55 1230.29 2143.9 1208.33 2152.53 1187.38C2153.34 1185.4 2156.56 1183.18 2158.26 1182.01Z"/><path fill="#4E2B22" d="M2158.23 1216.99C2158.55 1214.08 2160.36 1206.32 2162.6 1204.35C2164.85 1206.34 2164.57 1207.73 2165.41 1211.09C2168.54 1219.41 2172.37 1230.2 2175.99 1238.24L2151.02 1238.2C2153.21 1231.74 2155.85 1223.22 2158.23 1216.99Z"/><path fill="#442318" d="M2154.81 1234.66C2159.47 1234.95 2166.53 1236.16 2170.06 1232.72C2171.92 1226.38 2165.85 1223.09 2164.26 1212.62L2165.41 1211.09C2168.54 1219.41 2172.37 1230.2 2175.99 1238.24L2151.02 1238.2C2153.21 1231.74 2155.85 1223.22 2158.23 1216.99C2159.02 1221.93 2156.26 1229.51 2154.81 1234.66Z"/><path fill="#E7C3A8" d="M2267.74 1221.3C2269.24 1210.07 2265.32 1191.78 2270.98 1183.64C2275.96 1180.64 2280 1181.56 2283.46 1186.31C2285.26 1193.88 2285.04 1260.24 2283.1 1271.77C2282.77 1273.74 2279.72 1275.4 2277.45 1276.15C2262.94 1275.81 2267.96 1246.82 2268.16 1235.85C2256.09 1236.18 2244.01 1236.26 2231.93 1236.08C2231.85 1247.04 2233.01 1258.12 2231.54 1269.01C2230.06 1279.94 2216.51 1275.88 2216.51 1271.08C2216.53 1254.38 2212.11 1198.83 2217.43 1185.12C2220.9 1181.98 2219.26 1182.77 2223.58 1181.81C2227.86 1182.62 2229.27 1184.13 2232.6 1186.78L2233.8 1186.99C2235.02 1191.05 2234.51 1212.71 2234.49 1218.56C2245.13 1217.27 2259.21 1219 2265.63 1217.95C2265.68 1216.3 2265.7 1214.66 2265.69 1213.01L2266.27 1212.85L2267.74 1221.3Z"/><path fill="#442318" d="M2232.6 1186.78L2233.8 1186.99C2235.02 1191.05 2234.51 1212.71 2234.49 1218.56C2245.13 1217.27 2259.21 1219 2265.63 1217.95C2265.68 1216.3 2265.7 1214.66 2265.69 1213.01L2266.27 1212.85L2267.74 1221.3C2255.8 1221.19 2243.86 1221.23 2231.92 1221.42C2231.86 1211.83 2231.4 1195.76 2232.6 1186.78Z"/><path fill="#E7C3A8" d="M911.191 1198.08C914.233 1197.88 917.085 1197.75 920.006 1198.78C922.312 1199.6 924.28 1201.22 925.273 1203.49C928.754 1211.45 944.788 1287.26 942.698 1291.71C941.694 1293.84 939.31 1295.46 937.06 1296.06C934.97 1296.61 932.866 1296.1 931.212 1294.72C925.664 1290.12 924.911 1277 923.805 1270.23L906.762 1267.78L889.915 1264.99C886.036 1272.34 881.157 1283.91 873.478 1286.75C868.581 1286.04 864.405 1280.32 865.802 1277.69C873.026 1264.05 900.838 1205.79 911.191 1198.08Z"/><path fill="#4E2B22" d="M913.696 1219.82C915.156 1221.23 920.09 1250.21 921.143 1255.4L906.041 1252.84L896.482 1251.48C901.818 1243.16 908.861 1228.92 913.696 1219.82Z"/><path fill="#E7C3A8" d="M1529.79 1283.12C1534.7 1283.11 1539.26 1283.73 1541.87 1288.61C1554.9 1312.96 1567.96 1337.54 1579.72 1362.51C1581.05 1365.35 1579.13 1369.92 1576.37 1371.39C1565.55 1376.74 1559.72 1358 1556.66 1351.04L1546.76 1352.11L1521.88 1355.06C1520.32 1363.52 1519.31 1379.16 1509.51 1380.75C1506.46 1379.77 1503.82 1378.39 1502.48 1375.29C1501.32 1372.6 1518.68 1299.49 1521.46 1291.08C1522.97 1286.52 1525.73 1285.16 1529.79 1283.12Z"/><path fill="#4E2B22" d="M1533.48 1303.88C1536.07 1306.62 1547.16 1331.56 1548.76 1336.19C1546.24 1338 1542.27 1338.04 1539.04 1338.42L1525.35 1340.04C1528.3 1329.32 1531.05 1314.97 1533.48 1303.88Z"/><path fill="#E7C3A8" d="M2059.22 1223.92C2058.82 1216.84 2055.52 1197.55 2058.18 1189.52C2060.78 1181.67 2072.03 1183.61 2073.13 1191.63C2073.93 1197.44 2073.8 1205.34 2074.75 1212.01L2074.92 1213.12C2075.07 1210.11 2074.98 1204.95 2076.05 1202.47C2076.63 1221.16 2082.59 1242.14 2078.15 1259.2C2077.69 1267.77 2082.07 1276.82 2069.91 1278.55C2058.8 1274.96 2060.94 1249.52 2060.6 1238.73C2048.56 1239.21 2035.97 1240.15 2023.89 1240.87C2024.07 1250.61 2031.78 1287.31 2014.44 1280.4C2009.73 1278.52 2009.69 1272.9 2009.45 1268.69C2008.05 1244.11 2005.79 1219.52 2005.04 1194.93C2004.29 1187.98 2015.49 1185.12 2018.36 1189.79C2022.79 1196.99 2022.47 1217.79 2022.93 1226C2035.02 1225.15 2047.12 1224.46 2059.22 1223.92Z"/><path fill="#442318" d="M2074.92 1213.12C2075.07 1210.11 2074.98 1204.95 2076.05 1202.47C2076.63 1221.16 2082.59 1242.14 2078.15 1259.2C2076.75 1246.14 2075.14 1226.04 2074.92 1213.12Z"/><path fill="#E7C3A8" d="M762.772 1273.8C758.551 1278.23 755.574 1280.15 750.137 1276.73C742.731 1265.99 750.827 1210.55 748.696 1195C747.475 1186.09 760.091 1181.93 763.421 1187.85C766.877 1194 764.521 1215.98 764.22 1224.13C775.811 1224 789.113 1224.63 800.826 1224.91C800.952 1215.05 798.605 1193.75 805.501 1186.95C810.668 1185.14 816.882 1188.05 816.831 1192.26C816.699 1202.97 817.952 1271.33 814.396 1275.09C795.082 1295.52 799.939 1246.39 800.2 1239.72L783.286 1239.35L783.91 1240.52C779.678 1241.37 771.876 1241.49 767.341 1241.49C766.719 1249.14 767.836 1268.21 765.742 1272.49L762.772 1273.8Z"/><path fill="#442318" d="M763.764 1238.8L783.286 1239.35L783.91 1240.52C779.678 1241.37 771.876 1241.49 767.341 1241.49C766.719 1249.14 767.836 1268.21 765.742 1272.49L762.772 1273.8C763.296 1262.3 763.454 1250.34 763.764 1238.8Z"/><path fill="#E7C3A8" d="M977.508 1263.62C975.751 1271.58 972.165 1296.95 966.546 1300.13C964.813 1301.12 962.758 1301.39 960.832 1300.86C959.508 1300.5 955.579 1297.77 955.637 1296.62C956.895 1271.71 965.911 1246.49 970.159 1221.79C971.109 1216.26 975.092 1210.02 980.734 1209.19C984.031 1210.16 984.181 1210.72 986.479 1213.53C988.38 1219.98 982.5 1241.27 980.676 1249.16L1006.77 1254.51C1007.9 1254.2 1013.96 1253.44 1014.15 1252.9C1016.16 1247.18 1016.62 1227.45 1022.76 1224.16C1025.41 1222.05 1027.74 1220.09 1031.33 1220.36C1041.53 1221.13 1037.88 1232.65 1036.34 1239.32C1031.16 1261.75 1027.18 1284.68 1020.96 1306.83C1020.55 1308.3 1017.53 1312.43 1016.16 1312.89C1007.2 1315.91 1006.03 1300.02 1007.25 1294.92C1009.24 1286.63 1011.37 1279.18 1013.14 1271.21C1001.24 1268.79 989.361 1266.26 977.508 1263.62Z"/><path fill="#442318" d="M1006.77 1254.51C1007.9 1254.2 1013.96 1253.44 1014.15 1252.9C1016.16 1247.18 1016.62 1227.45 1022.76 1224.16C1021.47 1231.9 1018.6 1249.51 1015.88 1256.24C1012.53 1256.43 1010.02 1255.43 1006.77 1254.51Z"/><path fill="#E7C3A8" d="M1637.95 1264.94C1641.19 1265.06 1647.09 1265.84 1648 1269.79C1653.56 1294.09 1657.94 1319 1661.89 1343.62C1662.81 1349.31 1661.9 1356.26 1656.17 1358.77C1643.46 1357.08 1643.28 1331.1 1641.51 1319.61C1629.88 1322.26 1617.06 1324.3 1605.23 1326.4C1606.94 1337.42 1614.29 1357.86 1607.56 1366.56C1604.35 1367.23 1597.68 1368.18 1596.46 1364.17C1589.93 1342.72 1588.4 1317.95 1582.99 1295.86C1581.26 1288.78 1580.44 1279.12 1586.59 1275.07C1600.74 1272.95 1600.76 1301.12 1602.46 1311.94C1614.46 1309.5 1626.52 1307.31 1638.62 1305.38C1636.8 1294.56 1633.11 1282.89 1633.37 1272.01C1633.45 1268.75 1635.58 1267.07 1637.95 1264.94Z"/><path fill="#E7C3A8" d="M1440.97 1289.75C1445.71 1290.67 1447.63 1291.35 1450.13 1295.6C1451.33 1309.19 1453.16 1370.52 1448.8 1380.36C1447.44 1383.41 1446.06 1384.47 1443.04 1385.53C1432.95 1383.38 1434.7 1374.01 1434.62 1366.06C1434.56 1358.98 1434.69 1351.86 1434.76 1344.78C1422.66 1344.94 1410.28 1344.78 1398.16 1344.75C1398.37 1353.89 1398.93 1364 1398.54 1373.05C1398.26 1379.61 1397.79 1381.12 1393.01 1385.17C1390.7 1385.09 1387.78 1384.79 1385.86 1383.41C1384.21 1382.22 1383.31 1380.43 1382.95 1378.47C1381.35 1369.71 1380.81 1298.14 1384.3 1293.91C1385.64 1292.3 1387.72 1291.32 1389.81 1291.22C1392.04 1291.12 1394.35 1292.05 1395.96 1293.59C1400.79 1298.17 1398.46 1322.92 1398.38 1329.77C1410.31 1329.58 1422.8 1329.79 1434.77 1329.8C1434.58 1319.45 1433.77 1307.49 1435.15 1297.36C1435.71 1293.26 1437.62 1292.12 1440.97 1289.75Z"/><path fill="#E7C3A8" d="M516.605 1182.99C520.663 1184.44 520.998 1184.45 523.073 1187.59C522.9 1192.99 517.529 1194.56 515.766 1201.96C516.524 1210.94 533.931 1214.28 515.225 1225.73C491.012 1222.89 502.195 1191.38 516.605 1182.99Z"/><path fill="#E7C3A8" d="M2314.25 1181.82C2314.85 1181.84 2315.45 1181.87 2316.05 1181.9C2339.76 1183.47 2326.14 1214.7 2312.39 1224.42C2309.53 1222.97 2309.53 1222.93 2307.13 1220.75C2305.88 1214.84 2311.51 1210.21 2315.66 1203.55C2306.69 1195.23 2302.91 1189.91 2314.25 1181.82Z"/><path fill="#E7C3A8" d="M1049.32 1301.6C1054.87 1301.16 1059.77 1305.22 1060.35 1310.76C1060.94 1316.3 1057 1321.3 1051.48 1322.03C1047.78 1322.52 1044.1 1320.96 1041.88 1317.96C1039.66 1314.96 1039.24 1310.99 1040.78 1307.59C1042.33 1304.19 1045.6 1301.9 1049.32 1301.6Z"/><path fill="#E7C3A8" d="M1081.3 1311.56C1086.43 1309.64 1092.15 1312.09 1094.3 1317.12C1096.45 1322.16 1094.25 1327.99 1089.32 1330.36C1085.93 1331.99 1081.91 1331.62 1078.87 1329.41C1075.83 1327.19 1074.24 1323.49 1074.75 1319.76C1075.26 1316.03 1077.78 1312.88 1081.3 1311.56Z"/><path fill="#E7C3A8" d="M1691.13 1328.55C1696.74 1327.89 1701.81 1331.92 1702.46 1337.53C1703.1 1343.14 1699.07 1348.21 1693.46 1348.84C1687.86 1349.47 1682.81 1345.46 1682.17 1339.86C1681.53 1334.27 1685.53 1329.21 1691.13 1328.55Z"/><path fill="#E7C3A8" d="M1725.79 1319.47C1731.26 1318.47 1736.51 1322.08 1737.53 1327.55C1738.54 1333.02 1734.94 1338.27 1729.48 1339.31C1723.99 1340.34 1718.71 1336.73 1717.69 1331.24C1716.67 1325.75 1720.3 1320.47 1725.79 1319.47Z"/><path fill="#E7C3A8" d="M1760.58 1309.58C1764.1 1308.6 1767.88 1309.6 1770.44 1312.2C1773.01 1314.8 1773.97 1318.59 1772.94 1322.09C1771.92 1325.6 1769.07 1328.27 1765.51 1329.08C1760.18 1330.28 1754.87 1327.02 1753.54 1321.73C1752.2 1316.44 1755.33 1311.05 1760.58 1309.58Z"/><path fill="#E7C3A8" d="M1116.41 1321.55C1121.57 1319.67 1127.29 1322.3 1129.22 1327.44C1131.16 1332.58 1128.6 1338.33 1123.48 1340.33C1120.12 1341.64 1116.3 1341.04 1113.5 1338.76C1110.7 1336.48 1109.34 1332.87 1109.94 1329.31C1110.54 1325.74 1113.01 1322.78 1116.41 1321.55Z"/><path fill="#9B5E36" d="M1212.84 394.157C1228.92 363.037 1244 338 1270.5 314.471C1329.13 262.412 1417.32 247.903 1487.97 283.411C1533.24 306.159 1562.82 349.493 1584.91 393.521C1661.67 392.251 1740.5 393.277 1817.45 393.211L1893.18 393.191C1900.76 393.206 1923.07 392.857 1929.84 393.83C1939.12 405.315 1952.63 426.043 1961.4 438.98C1970.62 452.597 1984.59 471.328 1992.77 484.816L1994.08 485.916C1999.24 495.459 2017.63 520.561 2024.84 530.96L2085.92 619.287L2140.31 698.291C2146.55 707.415 2163.68 733.453 2170.01 739.987C2161.63 739.996 2134.44 739.616 2127.52 740.916L1996.2 741.953C1983.44 742.048 1942.05 741.484 1931.67 742.816C1928.51 742.282 1914.33 742.603 1910.08 742.634L1862.98 743.056L1688.45 744.771C1680.81 744.844 1642.54 745.767 1637.59 744.211L1635.84 746.668C1627.08 744.476 1601.72 745.346 1591.27 745.499L1523.89 746.49L1249.61 749.362C1245.64 749.404 1184.51 749.373 1184.01 749.55C1179.15 749.793 1175.61 750.122 1170.77 749.435L1169.99 750.316C1164.65 749.243 1149.39 749.968 1143.46 749.838C1121.73 749.361 1096.51 751.36 1074.97 750.175C1040.94 752.18 996.265 751.21 961.377 751.501L751.076 753.57C714.723 753.954 672.905 753.501 637.018 755.045L635.608 754.69L640.722 746.729C642.129 743.401 653.896 725.453 656.369 721.591L691.583 666.579L771.632 540.56C783.454 522.048 795.489 502.091 807.831 484.064C813.461 473.87 863.007 398.803 863.709 393.71C892.947 392.7 924.837 393.239 954.216 393.243L1104.37 393.27L1176.1 393.297C1183.5 393.303 1206.85 392.984 1212.84 394.157Z"/><path fill="#A9BF8C" d="M863.709 393.71C892.947 392.7 924.837 393.239 954.216 393.243L1104.37 393.27L1176.1 393.297C1183.5 393.303 1206.85 392.984 1212.84 394.157C1179.81 464.474 1166.83 548.17 1166.2 625.55C1142.2 618.502 1125.09 607.907 1110.8 586.56C1116.44 577.042 1127.26 559.153 1124.05 548.525C1120.87 538.001 1108.68 541.023 1102.19 547.374C1095.06 526.706 1083.63 505.763 1057.69 518.085C1056.04 521.973 1048.54 527.174 1044.63 531.365C1043.89 537.555 1043.41 542.035 1043.18 548.187C1043.04 552.023 1044.06 563.914 1043.52 566.27C1049.31 585.764 1057.72 597.82 1077.74 603.105C1096.55 633.187 1123.06 654.045 1156.99 661.975C1160.84 662.873 1164.86 663.162 1166.05 666.974C1167.85 670.368 1170.84 694.628 1171.3 699.858C1174.83 712.915 1181.26 737.074 1184.01 749.55C1179.15 749.793 1175.61 750.122 1170.77 749.435L1169.99 750.316C1164.65 749.243 1149.39 749.968 1143.46 749.838C1121.73 749.361 1096.51 751.36 1074.97 750.175C1040.94 752.18 996.265 751.21 961.377 751.501L751.076 753.57C714.723 753.954 672.905 753.501 637.018 755.045L635.608 754.69L640.722 746.729C642.129 743.401 653.896 725.453 656.369 721.591L691.583 666.579L771.632 540.56C783.454 522.048 795.489 502.091 807.831 484.064C813.461 473.87 863.007 398.803 863.709 393.71Z"/><path fill="#814728" d="M1168.27 722.538C1170.36 717.167 1169.07 705.264 1168.7 699.084L1169.52 698.169L1170.06 700.047L1171.3 699.858C1174.83 712.915 1181.26 737.074 1184.01 749.55C1179.15 749.793 1175.61 750.122 1170.77 749.435C1170.57 741.341 1168.58 731.413 1168.27 722.538Z"/><path fill="#814728" d="M1166.05 666.974C1167.85 670.368 1170.84 694.628 1171.3 699.858L1170.06 700.047L1169.52 698.169L1168.7 699.084C1169.07 705.264 1170.36 717.167 1168.27 722.538C1166.08 704.66 1165.65 684.945 1166.05 666.974Z"/><path fill="#9B5E36" d="M1057.69 518.085C1056.04 521.973 1048.54 527.174 1044.63 531.365C1043.89 537.555 1043.41 542.035 1043.18 548.187C1043.04 552.023 1044.06 563.914 1043.52 566.27C1035.79 547.927 1038.62 527.64 1057.69 518.085Z"/><path fill="#A9BF8C" d="M1584.91 393.521C1661.67 392.251 1740.5 393.277 1817.45 393.211L1893.18 393.191C1900.76 393.206 1923.07 392.857 1929.84 393.83C1939.12 405.315 1952.63 426.043 1961.4 438.98C1970.62 452.597 1984.59 471.328 1992.77 484.816L1994.08 485.916C1999.24 495.459 2017.63 520.561 2024.84 530.96L2085.92 619.287L2140.31 698.291C2146.55 707.415 2163.68 733.453 2170.01 739.987C2161.63 739.996 2134.44 739.616 2127.52 740.916L1996.2 741.953C1983.44 742.048 1942.05 741.484 1931.67 742.816C1928.51 742.282 1914.33 742.603 1910.08 742.634L1862.98 743.056L1688.45 744.771C1680.81 744.844 1642.54 745.767 1637.59 744.211C1641.97 728.55 1641.08 672.086 1640.29 655.288C1640.95 655.17 1641.61 655.041 1642.27 654.902C1680.55 646.81 1704.58 624.749 1725.15 593.189C1726.7 592.631 1728.23 592.04 1729.76 591.415C1742.71 586.089 1750.18 576.427 1755.41 563.663C1760.08 550.778 1764.36 535.977 1758.89 522.651C1749.14 498.9 1716.45 496.261 1706.11 521.143C1704.94 523.944 1704.01 526.942 1702.94 529.847C1702.32 531.542 1701.36 534.163 1699.93 535.594C1685.85 530.334 1672.93 531.454 1678.33 550.277C1681.26 560.265 1685.85 567.472 1691.37 576.306C1689.23 579.922 1688.47 581.193 1685.7 584.317C1681.77 589.601 1676.53 595.762 1671.32 599.797C1663.17 607.745 1648.79 613.257 1638.19 617.494L1634.98 581.622C1633.66 579.058 1628.6 540.377 1627.44 533.711C1626.71 531.694 1625.29 523.613 1624.83 521.074C1616.69 475.832 1603.13 435.62 1584.91 393.521Z"/><path fill="#4E2B22" d="M1490.02 546.114C1499.93 544.152 1501.99 550.669 1499.13 559.059C1478.03 620.874 1402.34 628.274 1353.54 595.568C1336.69 581.537 1305.34 544.573 1352.42 552.527C1402.36 560.964 1441.39 557.991 1490.02 546.114Z"/><path fill="#E7C3A8" d="M1482.35 561.251L1483.46 561.398C1483.7 564.391 1479.32 571.035 1477.39 573.553C1448.21 611.469 1394.42 608.878 1358.85 582.825C1351.58 576.596 1347.83 571.38 1342.49 563.488C1394.13 573.497 1431.68 572.05 1482.35 561.251Z"/><path fill="#4E2B22" d="M1493.36 465.359C1511.49 463.617 1531.18 469.732 1540.25 487.35C1541.58 489.924 1543.03 494.563 1542.01 497.316C1536 498.586 1524.15 488.362 1512.71 485.256L1511.43 484.914C1478.74 480.115 1476.56 495.539 1462.56 496.139L1461.33 494.963C1460.25 479.688 1480.89 468.82 1493.36 465.359Z"/><path fill="#4E2B22" d="M1316.54 470.489C1332.9 469.418 1348.02 472.034 1358 486.693C1360.48 490.333 1363.43 493.658 1362.68 498.234C1356.72 500.737 1344.67 491.454 1336.62 490.02C1330.1 488.86 1328.85 488.807 1321.92 488.81C1317.14 489.551 1313.86 490.031 1309.33 491.682C1301.96 494.366 1289.73 503.833 1282.34 503.297L1281.13 501.693C1281.42 498.851 1282.3 497.193 1283.75 494.767C1292.18 480.647 1300.96 474.548 1316.54 470.489Z"/><path fill="#814728" d="M1454.18 631.209L1455.84 631.067L1456.99 632.449C1455.11 644.57 1435.39 651.617 1425.11 652.978C1409.77 655.009 1399.15 653.021 1386.38 644.386C1382.99 641.744 1380.86 639.874 1379.21 635.992C1381.04 632.539 1387.99 635.575 1391.58 636.7C1412.76 643.343 1433.83 637.805 1454.18 631.209Z"/><path fill="#814728" d="M1229.02 699.825C1239.76 700.772 1254 705.29 1265.96 706.328C1277.95 707.367 1285.35 706.976 1297.27 706.423C1300.19 706.288 1301.66 706.447 1303.35 708.255C1302.79 711.631 1302.28 711.11 1299.26 714.13C1280.15 726.45 1239.39 722.772 1229.02 699.825Z"/><path fill="#814728" d="M1301.33 392.341C1307.13 391.402 1321.98 392.072 1325.73 397.266C1322.22 402.552 1292.1 407.939 1281.75 411.431C1276.59 413.569 1263.52 420.458 1259.57 416.09C1260.23 410.531 1269.91 403.713 1274.4 400.83C1282.9 395.365 1291.52 393.73 1301.33 392.341Z"/><path fill="#814728" d="M1493.77 359.501C1517.12 360.238 1533.38 366.175 1542.68 388.524C1537.25 385.793 1531.76 382.833 1526.01 380.915C1517.33 376.682 1476.84 369.95 1475.95 363.496C1480.37 360.35 1488.42 359.891 1493.77 359.501Z"/><path fill="#814728" d="M1594.37 698.047L1595.33 698.283L1596.33 699.961C1594.41 707.316 1583.7 715.521 1577.04 718.677C1565.86 723.978 1555.42 724.606 1543.75 720.61C1540.36 719.346 1538.82 719.063 1536.19 716.708L1536.86 715.086C1545.41 711.737 1556.58 710.046 1565.68 707.555C1575.63 704.828 1584.65 701.558 1594.37 698.047Z"/><path fill="#814728" d="M1388.96 294.628C1396.16 293.953 1420.87 293.549 1420.96 303.944C1416.86 308.193 1411.13 308.021 1405.14 308.722C1397.75 308.196 1379.26 309.139 1375.06 301.387L1376.13 299.265C1379.87 296.46 1384.38 295.762 1388.96 294.628Z"/><path fill="#814728" d="M1568.23 554.196C1573.51 552.807 1591.61 553.169 1592.95 560.6C1589.77 565.567 1584.94 565.948 1579.14 567.374C1572.73 567.747 1553.41 568.799 1552.84 559.61C1556.61 554.741 1561.96 555.011 1568.23 554.196Z"/><path fill="#E2A247" d="M2278.03 885.819C2323.53 886.818 2371.8 885.975 2417.47 885.943L2674.62 885.955C2721.24 885.95 2769.5 885.323 2816 886.029L2816 936.906L2816 939.281L2816 978.086L2816 1032.34L2816 1132.22C2739.69 1131.39 2663.17 1132.72 2586.84 1132.14C2575.19 1132.05 2563.59 1132.26 2551.95 1131.77L2549.86 1132.07C2532.91 1133.25 2505.2 1132.37 2487.35 1132.36L2365.58 1132.3C2329.05 1131.65 2290.85 1132.13 2254.2 1132.19C2214.54 1132.91 2173.36 1132.36 2133.59 1132.34L1911.38 1132.27L1734.3 1132.3C1701.54 1132.31 1666.21 1132.97 1633.64 1131.96C1652.46 1117.65 1681.71 1084.2 1696.18 1064.75C1703.41 1055.02 1710.2 1043.03 1718.03 1032.82C1718.87 1029.5 1730.89 1010.85 1733.52 1005.79C1750.48 973.193 1758.73 952.77 1783.33 924.639C1786.11 922.886 1792.76 916.889 1795.56 914.559C1834.97 881.813 1879 885.705 1927.09 885.766L2005.35 885.855L2278.03 885.819Z"/><path fill="#B9623F" d="M2356.87 1032.72C2365.03 1030.21 2459.27 1030.66 2465.74 1034.1C2432.54 1067.02 2399.15 1099.75 2365.58 1132.3C2329.05 1131.65 2290.85 1132.13 2254.2 1132.19C2214.54 1132.91 2173.36 1132.36 2133.59 1132.34L1911.38 1132.27L1734.3 1132.3C1701.54 1132.31 1666.21 1132.97 1633.64 1131.96C1652.46 1117.65 1681.71 1084.2 1696.18 1064.75C1703.41 1055.02 1710.2 1043.03 1718.03 1032.82L2146.68 1032.75L2286.53 1032.74C2308.63 1032.75 2335.1 1033.49 2356.87 1032.72Z"/><path fill="#D1AC54" d="M2356.87 1032.72C2365.03 1030.21 2459.27 1030.66 2465.74 1034.1C2432.54 1067.02 2399.15 1099.75 2365.58 1132.3C2329.05 1131.65 2290.85 1132.13 2254.2 1132.19C2288.07 1098.54 2322.81 1066.18 2356.87 1032.72Z"/><path fill="#B9623F" d="M2816 939.281L2816 978.086L2081.98 978.145C2081.94 966.957 2082.55 950.904 2081.48 940.164C2091.36 938.997 2131.14 940.079 2142.67 940.139L2265.21 940.341C2387.38 940.644 2512.07 938.616 2633.95 940.246C2672.43 940.566 2710.92 940.662 2749.4 940.534C2764.02 940.551 2802.51 941.337 2816 939.281Z"/><path fill="#999F60" d="M2816 1032.34L2816 1132.22C2739.69 1131.39 2663.17 1132.72 2586.84 1132.14C2575.19 1132.05 2563.59 1132.26 2551.95 1131.77C2560.51 1122.26 2578.26 1106.3 2588.02 1096.98L2655.17 1032.82C2662.2 1031.71 2697.37 1032.25 2706.34 1032.26L2816 1032.34Z"/><path fill="#B26B40" d="M2465.74 1034.1C2471.16 1030.9 2633.37 1032.88 2655.17 1032.82L2588.02 1096.98C2578.26 1106.3 2560.51 1122.26 2551.95 1131.77L2549.86 1132.07C2532.91 1133.25 2505.2 1132.37 2487.35 1132.36L2365.58 1132.3C2399.15 1099.75 2432.54 1067.02 2465.74 1034.1Z"/><path fill="#B26B40" d="M2081.48 940.164L2082.37 937.731C2087.54 936.048 2134.49 936.802 2143.7 936.828L2237.29 936.779L2816 936.906L2816 939.281C2802.51 941.337 2764.02 940.551 2749.4 940.534C2710.92 940.662 2672.43 940.566 2633.95 940.246C2512.07 938.616 2387.38 940.644 2265.21 940.341L2142.67 940.139C2131.14 940.079 2091.36 938.997 2081.48 940.164Z"/><path fill="#999F60" d="M2543.33 393.769C2565.63 391.902 2608.16 393.3 2632.15 393.336L2816 393.377L2816 484.234L2816 486.49L2816 886.029C2769.5 885.323 2721.24 885.95 2674.62 885.955L2417.47 885.943C2371.8 885.975 2323.53 886.818 2278.03 885.819C2272.63 877.712 2268.02 870.376 2261.96 862.698C2317.35 860.408 2372.03 861.312 2427.43 859.553C2427.43 859.553 2429.99 858.028 2430.24 857.876C2432.34 857.068 2451.58 857.068 2454.75 857.041L2528.04 856.55C2548.16 856.416 2572.93 860.005 2588.93 846.828C2593.37 841.996 2596.1 839.084 2598.53 832.994C2602.65 822.658 2601.29 815.842 2600.86 804.648C2600.32 801.682 2600.16 786.566 2600 782.474L2600.21 777.372C2600.2 766.776 2598.63 760.406 2592.89 751.642L2587.75 746.326C2572.3 733.257 2547.86 736.818 2528.48 737.022L2459.55 737.69L2231.93 739.858C2199.94 740.148 2158.49 742.173 2127.52 740.916C2134.44 739.616 2161.63 739.996 2170.01 739.987C2163.68 733.453 2146.55 707.415 2140.31 698.291L2085.92 619.287L2024.84 530.96C2017.63 520.561 1999.24 495.459 1994.08 485.916L1992.77 484.816C2010.92 483.506 2038.01 484.284 2056.95 484.305L2172.4 484.437L2363.91 484.334C2398.21 484.324 2434.24 483.785 2468.37 484.53C2488.92 484.693 2523.29 485.757 2542.78 484.362L2542.85 423.596C2542.84 416.652 2543.87 399.527 2543.33 393.769Z"/><path fill="#B9623F" d="M2543.33 393.769C2565.63 391.902 2608.16 393.3 2632.15 393.336L2816 393.377L2816 484.234C2786.08 485.071 2752.41 484.352 2722.27 484.351L2542.78 484.362L2542.85 423.596C2542.84 416.652 2543.87 399.527 2543.33 393.769Z"/><path fill="#A09F62" d="M2468.37 484.53C2488.92 484.693 2523.29 485.757 2542.78 484.362L2722.27 484.351C2752.41 484.352 2786.08 485.071 2816 484.234L2816 486.49L2213.61 486.487L2058.38 486.517C2048.75 486.519 2000.32 487.124 1994.08 485.916L1992.77 484.816C2010.92 483.506 2038.01 484.284 2056.95 484.305L2172.4 484.437L2363.91 484.334C2398.21 484.324 2434.24 483.785 2468.37 484.53Z"/><path fill="#6D7745" d="M2598.18 542.61L2599.05 542.942C2600.31 545.532 2599.8 564.105 2599.78 568.312C2579.65 567.889 2558.48 567.971 2538.35 568.232C2404.78 569.963 2270.25 566.06 2136.75 568.421L2135.45 567.754C2134.54 563.547 2134.97 548.03 2135.02 542.795L2598.18 542.61Z"/><path fill="#6D7745" d="M2639.69 542.52C2663.47 543.033 2688.04 542.623 2711.88 542.5C2711.53 550.945 2711.73 559.713 2711.79 568.189C2688.41 568.807 2662.51 568.252 2638.93 568.261C2638.91 562.125 2638.45 547.888 2639.69 542.52Z"/><path fill="#C58336" d="M1222.94 923.945C1253.4 979.556 1297.57 1021.14 1359.36 1038.41C1453.13 1064.62 1529.72 1031.34 1578.54 948.274C1581.5 944.142 1588.64 929.981 1591.31 924.968L1717.13 924.764C1738.3 924.778 1762.36 925.343 1783.33 924.639C1758.73 952.77 1750.48 973.193 1733.52 1005.79C1730.89 1010.85 1718.87 1029.5 1718.03 1032.82C1710.2 1043.03 1703.41 1055.02 1696.18 1064.75C1681.71 1084.2 1652.46 1117.65 1633.64 1131.96L1632.88 1132.2C1617.19 1131.46 1595.07 1132.26 1579.03 1132.31L1473.97 1132.4L1184.22 1132.22L1183.22 1132.06C1163.52 1116.61 1135.1 1083.33 1119.58 1062.85C1113.92 1055.38 1104.47 1038.56 1098.61 1032.81C1098.3 1029.76 1089.43 1015.64 1087.3 1011.51C1070.63 979.139 1057.78 952.814 1033.95 924.753C1054.39 925.353 1215.53 926.36 1222.94 923.945Z"/><path fill="#B26B40" d="M2127.52 740.916C2158.49 742.173 2199.94 740.148 2231.93 739.858L2459.55 737.69L2528.48 737.022C2547.86 736.818 2572.3 733.257 2587.75 746.326L2592.89 751.642C2571.88 753.074 2548.97 756.867 2527.48 758.698C2491.1 761.437 2454.62 762.699 2418.13 762.48C2313.32 762.412 2208.03 753.337 2102.98 753.4C1969.85 753.48 1837.65 766.575 1704.88 775.411C1546.24 786.927 1387.34 794.484 1228.33 798.076C1044.39 802.14 860.41 803.655 676.433 802.622C620.732 802.284 565.034 801.64 509.341 800.69C484.18 800.227 452.307 798.123 427.943 798.752L419.129 794.377C415.325 792.764 411.071 790.523 407.408 788.551C387.976 778.091 367.468 768.688 348.319 757.77C359.303 756.953 374.755 757.223 386.133 757.095L453.297 756.393L635.608 754.69L637.018 755.045C672.905 753.501 714.723 753.954 751.076 753.57L961.377 751.501C996.265 751.21 1040.94 752.18 1074.97 750.175C1096.51 751.36 1121.73 749.361 1143.46 749.838C1149.39 749.968 1164.65 749.243 1169.99 750.316L1170.77 749.435C1175.61 750.122 1179.15 749.793 1184.01 749.55C1184.51 749.373 1245.64 749.404 1249.61 749.362L1523.89 746.49L1591.27 745.499C1601.72 745.346 1627.08 744.476 1635.84 746.668L1637.59 744.211C1642.54 745.767 1680.81 744.844 1688.45 744.771L1862.98 743.056L1910.08 742.634C1914.33 742.603 1928.51 742.282 1931.67 742.816C1942.05 741.484 1983.44 742.048 1996.2 741.953L2127.52 740.916Z"/><path fill="#9B5E36" d="M419.129 794.377C421.479 792.851 482.841 793.105 492.071 792.978L668.463 790.306C776.298 787.783 884.153 786.257 992.016 785.728C1154.31 785.656 1316.51 788.496 1478.72 782.32C1555.87 779.199 1632.96 774.595 1709.94 768.511C1817.61 760.063 1924.68 750.48 2032.74 748.162C2128.35 746.112 2221.29 749.724 2316.72 752.86C2372.56 755.237 2428.46 755.851 2484.34 754.701C2515.28 753.993 2557.65 752.437 2587.75 746.326L2592.89 751.642C2571.88 753.074 2548.97 756.867 2527.48 758.698C2491.1 761.437 2454.62 762.699 2418.13 762.48C2313.32 762.412 2208.03 753.337 2102.98 753.4C1969.85 753.48 1837.65 766.575 1704.88 775.411C1546.24 786.927 1387.34 794.484 1228.33 798.076C1044.39 802.14 860.41 803.655 676.433 802.622C620.732 802.284 565.034 801.64 509.341 800.69C484.18 800.227 452.307 798.123 427.943 798.752L419.129 794.377Z"/><path fill="#B26B40" d="M2592.89 751.642C2598.63 760.406 2600.2 766.776 2600.21 777.372L2600 782.474C2600.16 786.566 2600.32 801.682 2600.86 804.648C2594.67 802.464 2559.17 812.712 2549.8 813.481C2516.87 816.187 2483.3 815.234 2450.26 815.598L2310.95 817.306C2290.1 817.358 2262.99 813.342 2241.78 810.506L2132.13 794.771C2063.88 784.816 1995 779.797 1926.03 779.752C1783.53 779.533 1645.59 803.531 1504.88 821.307C1455.88 827.498 1399.52 825.45 1349.5 826.035L1138.36 828.354L690.746 832.761L517.5 834.596C484.606 834.95 448.162 834.59 415.532 835.915C425.441 828.562 443.316 819.178 454.568 812.888C445.644 808.27 436.768 803.558 427.943 798.752C452.307 798.123 484.18 800.227 509.341 800.69C565.034 801.64 620.732 802.284 676.433 802.622C860.41 803.655 1044.39 802.14 1228.33 798.076C1387.34 794.484 1546.24 786.927 1704.88 775.411C1837.65 766.575 1969.85 753.48 2102.98 753.4C2208.03 753.337 2313.32 762.412 2418.13 762.48C2454.62 762.699 2491.1 761.437 2527.48 758.698C2548.97 756.867 2571.88 753.074 2592.89 751.642Z"/><path fill="#9B5E36" d="M2098.15 780.07C2105.33 778.075 2136.63 778.76 2146.11 778.782L2225.43 778.927C2309.05 779.296 2392.66 779.098 2476.27 778.332C2517.19 778.107 2559.35 778.416 2600.21 777.372L2600 782.474C2567.04 785.018 2532.97 789.109 2499.91 789.621C2414.43 790.944 2328.37 794.757 2242.93 793.365C2194.85 792.581 2146.14 784.165 2098.15 780.07Z"/><path fill="#814728" d="M1197.68 869.118C1201.59 869.763 1235.81 868.673 1241.92 868.618C1282.74 868.455 1323.55 868.062 1364.36 867.44L1527.99 865.623C1554.05 865.395 1580.42 865.371 1606.49 864.664C1610.28 864.561 1613.58 862.913 1616.81 864.682C1614.3 866.678 1605.11 894.47 1602.65 900.31C1598.95 908.482 1595.25 916.926 1591.31 924.968C1588.64 929.981 1581.5 944.142 1578.54 948.274C1529.72 1031.34 1453.13 1064.62 1359.36 1038.41C1297.57 1021.14 1253.4 979.556 1222.94 923.945C1214.08 908.29 1206.68 888.541 1199.6 876.329L1197.68 869.118Z"/><path fill="#9B5E36" d="M1273.52 903.253C1296.89 903.534 1321.56 902.699 1345 902.463L1523.88 900.662C1539.82 900.508 1555.77 900.233 1571.71 899.84C1579.42 899.688 1595.7 899.131 1602.65 900.31C1598.95 908.482 1595.25 916.926 1591.31 924.968C1588.64 929.981 1581.5 944.142 1578.54 948.274C1577.3 947.641 1559.36 958.86 1556.57 960.31C1520.54 979.408 1480.06 988.506 1439.32 986.661C1371.14 984.055 1318.73 951.968 1273.52 903.253Z"/><path fill="#814728" d="M1349.02 923.228C1357.43 922.732 1383.35 920.77 1390.75 926.328C1391.91 927.204 1391.43 927.83 1391.31 929.67C1388.89 933.08 1386.19 933.827 1382.34 935.623C1374.43 937.882 1343.36 939.093 1342.14 927.51C1344.69 924.235 1344.88 924.883 1349.02 923.228Z"/><path fill="#814728" d="M1530.07 930.054C1530.72 930.56 1530.7 930.989 1531.11 931.959C1523.18 957.005 1503.53 955.396 1481.34 954.723L1480.79 953.983C1481.26 952.245 1482.32 951.817 1484.2 951.203C1501.33 945.595 1514.94 939.971 1530.07 930.054Z"/><path fill="#A9BF8C" d="M1694.36 864.081C1708.41 865.007 1732.55 864.083 1747.05 863.926L1844.27 862.937C1958.53 861.91 2074.9 859.68 2188.98 859.91C2198.91 861.286 2214.98 860.369 2225.53 860.759C2237.24 861.193 2250.03 861.973 2261.61 861.868L2261.96 862.698C2268.02 870.376 2272.63 877.712 2278.03 885.819L2005.35 885.855L1927.09 885.766C1879 885.705 1834.97 881.813 1795.56 914.559C1792.76 916.889 1786.11 922.886 1783.33 924.639C1762.36 925.343 1738.3 924.778 1717.13 924.764L1591.31 924.968C1595.25 916.926 1598.95 908.482 1602.65 900.31C1605.11 894.47 1614.3 866.678 1616.81 864.682C1626.01 865.971 1677.02 864.826 1687.51 864.195C1689.54 864.225 1692.46 864.382 1694.36 864.081Z"/><path fill="#A9BF8C" d="M903.061 872.041C932.29 870.029 977.848 871.093 1007.83 870.925L1197.68 869.118L1199.6 876.329C1206.68 888.541 1214.08 908.29 1222.94 923.945C1215.53 926.36 1054.39 925.353 1033.95 924.753C1015.77 906.778 992.802 894.421 967.786 889.162C946.191 884.706 922.459 885.807 900.287 885.854L828.296 885.891L549.925 885.996L555.678 875.482C559.322 874.833 575.422 874.939 579.5 874.918L625.708 874.615L803.661 872.785C835.731 872.46 871.21 871.321 903.061 872.041Z"/><path fill="#9B5E36" d="M1723.68 858.91C1839.68 845.915 1947.68 838.233 2064.81 841.397C2124.52 843.009 2182.49 847.801 2241.97 850.53C2287.88 852.559 2333.84 853.432 2379.8 853.15C2449.19 853.136 2519 851.171 2587.96 842.811L2589.25 843.99L2588.93 846.828C2572.93 860.005 2548.16 856.416 2528.04 856.55L2454.75 857.041C2451.58 857.068 2432.34 857.068 2430.24 857.876C2429.99 858.028 2427.43 859.553 2427.43 859.553C2372.03 861.312 2317.35 860.408 2261.96 862.698L2261.61 861.868C2250.03 861.973 2237.24 861.193 2225.53 860.759C2214.98 860.369 2198.91 861.286 2188.98 859.91C2074.9 859.68 1958.53 861.91 1844.27 862.937L1747.05 863.926C1732.55 864.083 1708.41 865.007 1694.36 864.081C1700.21 862.208 1717.67 858.866 1723.68 858.91Z"/><path fill="#A09F62" d="M2268.42 858.987C2320.16 860.77 2377.63 856.794 2430.24 857.876C2429.99 858.028 2427.43 859.553 2427.43 859.553C2372.03 861.312 2317.35 860.408 2261.96 862.698L2261.61 861.868C2250.03 861.973 2237.24 861.193 2225.53 860.759C2214.98 860.369 2198.91 861.286 2188.98 859.91C2204.79 858.014 2251.39 858.981 2268.42 858.987Z"/><path fill="#814728" d="M1687.51 864.195C1674.65 862.687 1630.26 865.577 1623.66 863.621L1623.21 862.183C1649.54 858.103 1674.44 853.686 1701.32 850.047C1796.91 836.9 1893.25 829.971 1989.74 829.304C2063.75 829.287 2137.36 835.388 2211.28 837.723C2281.34 839.935 2351.69 842.98 2421.79 842.657C2460.3 842.423 2498.8 840.883 2537.21 838.04C2541.41 837.763 2598.47 832.982 2598.53 832.994C2596.1 839.084 2593.37 841.996 2588.93 846.828L2589.25 843.99L2587.96 842.811C2519 851.171 2449.19 853.136 2379.8 853.15C2333.84 853.432 2287.88 852.559 2241.97 850.53C2182.49 847.801 2124.52 843.009 2064.81 841.397C1947.68 838.233 1839.68 845.915 1723.68 858.91C1717.67 858.866 1700.21 862.208 1694.36 864.081C1692.46 864.382 1689.54 864.225 1687.51 864.195Z"/><path fill="#B26B40" d="M1914.25 786.499C1964.01 786.069 2013.74 788.812 2063.15 794.711C2085.62 797.415 2108.62 801.528 2131.13 804.597L2196.84 814.033C2204.61 815.178 2214.04 815.807 2221.4 817.28C2215.36 818.192 2195.07 817.91 2187.68 818.013C2160.84 818.433 2133.99 818.699 2107.14 818.81L1878.75 821.056C1860.29 822.06 1836.28 821.633 1817.45 821.851L1685.12 823.138L1603 824.099C1597.33 824.129 1579.07 825.064 1575.36 824.71L1574.95 823.864C1580.77 821.851 1590.44 821.778 1596.84 820.934C1659.64 812.653 1722.73 801.272 1785.66 794.473C1828.39 790.012 1871.29 787.352 1914.25 786.499Z"/></svg>