<?xml version="1.0" encoding="utf-8" ?><svg xmlns="http://www.w3.org/2000/svg" xmlns:xlink="http://www.w3.org/1999/xlink" width="2048" height="2048" viewBox="0 0 2048 2048"><path fill="#7D4829" d="M605.606 599.946C608.952 599.189 621.225 598.502 622.225 597.998C675.374 571.228 713.141 603.201 769.121 606.243C774.508 602.699 776.965 600.966 783.515 600.954C797.95 600.928 811.893 604.369 823.457 613.125C849.521 612.324 846.433 616.02 868.173 628.593C880.996 636.009 880.662 628.497 892.411 644.633C902.202 646.338 907.759 646.436 915.795 652.217C919.869 655.965 922.907 658.172 925.434 663.09L925.486 664.509C926.242 666.636 927.796 671.504 929.771 672.545C964.44 690.831 990.771 712.268 1019.39 738.778C1060.78 723.791 1115.55 732.687 1155.08 750.181C1211.87 775.318 1234.47 820.556 1278.68 858.568C1298.52 875.621 1332.32 891.154 1355.98 904.461L1369.31 911.401C1420.02 936.815 1465.72 966.216 1505.75 1006.26C1512.14 1012.65 1525.52 1023.36 1530.6 1030.46C1533.98 1033.8 1536.69 1036.38 1539.71 1040.09C1566.69 1067.2 1592.12 1107.97 1610.78 1141.11C1613.19 1145.41 1622.74 1161.46 1623.79 1164.99C1625.76 1168.65 1627.86 1172.4 1629.66 1176.13C1640.64 1194.65 1649.65 1219.86 1657.38 1240.03C1681.88 1303.98 1703.23 1372 1745.24 1427.22C1772.85 1463.53 1784.54 1488.34 1779.67 1535.35C1778.53 1540.77 1777.68 1546.58 1774.83 1551.25C1767.18 1578.71 1738.1 1606.57 1715.66 1623.02L1708.84 1627.42C1663.77 1659.97 1596.98 1676.05 1544.77 1694.55C1445.44 1729.74 1343.6 1764.02 1238.91 1779.4C1133.52 1794.88 1023.25 1796.72 917.009 1790.17C863.823 1786.89 810.202 1786.1 757.595 1777.89C718.554 1771.42 680.861 1760.47 660.256 1723.94C606.431 1722.06 541.074 1709.4 490.972 1689.11C485.7 1687.46 482.777 1686.08 477.862 1683.78C471.473 1682.8 449.089 1671.28 442.525 1668.2C385.667 1641.46 339.369 1601.92 312.657 1544.09C287.226 1534.4 255.895 1503.21 240.461 1480.93C213.8 1442.82 203.255 1395.74 211.118 1349.9C213.566 1334.95 218.243 1320.48 220.927 1305.51C214.49 1293.71 207.094 1282.13 200.889 1270.04C185.377 1239.83 171.722 1207.03 162.403 1174.35C157.486 1157.11 154.563 1137.78 150.445 1120.3C144.47 1081.65 143.398 1024.37 149.995 985.695C149.826 976.546 160.084 924.898 162.306 912.775C162.392 905.873 164.949 891.749 166.133 884.562C166 881.788 166.887 871.235 167.331 868.503C172.129 838.965 158.301 808.688 157.94 780.497C157.659 758.055 166.478 736.456 182.386 720.624C218.885 683.759 260.856 707.876 305.3 698.491C343.151 690.498 375.505 673.865 409.571 657.127C462.207 631.266 520.613 609.468 579.267 604.034C587.951 603.229 597.71 599.955 605.606 599.946Z"/><path fill="#DA9C6C" d="M605.606 599.946C608.952 599.189 621.225 598.502 622.225 597.998C675.374 571.228 713.141 603.201 769.121 606.243C774.508 602.699 776.965 600.966 783.515 600.954C797.95 600.928 811.893 604.369 823.457 613.125C849.521 612.324 846.433 616.02 868.173 628.593C880.996 636.009 880.662 628.497 892.411 644.633C902.202 646.338 907.759 646.436 915.795 652.217C912.682 652.287 910.685 651.836 907.846 653.055C908.648 655.632 910.41 656.853 912.41 658.753L912.547 659.896C915.237 664.742 916.776 666.808 917.783 672.306C889.295 697.999 853.934 727.756 834.395 761.564C834.619 768.252 834.276 765.083 837.983 770.882C841.419 767.022 842.523 765.199 845.246 760.756C849.373 762.895 859.847 769.67 862.166 770.652C866.839 771.159 868.426 773.35 871.568 773.392C872.451 772.151 873.113 771.264 874.087 770.07L874.961 769.013C898.347 785.585 930.201 808.816 950.74 828.842C964.309 839.256 974.696 851.106 983.482 817.64C985.615 809.517 967.023 792.736 961.081 786.65C955.079 780.504 944.366 770.995 936.862 764.23C941.368 764.528 941.251 766.638 945.494 766.033C946.165 762.58 945.722 763.22 944.243 759.327C956.504 770.14 966.408 779.056 977.311 791.46C977.486 789.807 977.601 788.148 977.656 786.486C978.2 766.849 961.067 750.983 948.397 737.673L948.703 734.423C951.619 733.706 953.276 733.747 956.226 733.63L955.816 732.625L948.862 726.325C933.847 713.165 923.485 705.105 907.082 693.653C910.217 689.964 914.006 686.68 917.577 683.38C938.834 695.954 959.07 707.354 977.95 723.539C979.76 724.837 981.728 726.17 983.432 727.579C999.353 739.83 1014.43 753.134 1028.58 767.402C1027.97 768.604 1027.36 769.806 1026.75 771.007C1028.3 781.85 1031.26 792.461 1033.14 803.273C1034.82 813.11 1036.12 823.008 1037.05 832.945C1039.02 854.265 1039.33 875.707 1037.96 897.074C1026.33 1100.58 852.913 1305.43 664.868 1372.04C543.107 1415.17 396.828 1386.18 280.382 1341.55C276.446 1340.04 271.07 1335.52 268.218 1336.28C268.087 1339.26 268.164 1338.75 268.715 1341.77C235.142 1306.65 199.118 1237.65 184.474 1191.86C158.867 1111.78 156.343 1038.24 171.064 956.017C174.933 934.408 183.666 886.568 184.146 865.978C184.36 852.871 183.236 839.777 180.793 826.898C175.979 801.041 166.223 776.03 179.495 751.584C187.025 737.714 199.392 723.347 214.756 718.456C231.671 712.049 258.302 716.898 276.869 716.584C287.875 716.398 296.024 715.741 306.959 714.704C312.346 712.938 319.893 711.621 325.659 710.11C336.212 707.342 346.555 703.825 356.608 699.585C383.382 688.398 408.425 673.58 434.245 662.164C468.331 647.092 524.221 625.278 561.563 622.299C569.789 625.099 574.602 619.612 580.104 625.287L576.034 629.479C579.821 631.468 584.822 630.75 587.958 627.809C597.208 612.922 598.804 613.541 614.723 607.498C625.651 604.571 630.083 611.224 638.767 609.73L638.528 607.91L635.724 605.805C629.207 599.168 617.315 601.179 605.606 599.946Z"/><path fill="#764A25" d="M605.606 599.946C608.952 599.189 621.225 598.502 622.225 597.998C675.374 571.228 713.141 603.201 769.121 606.243C774.508 602.699 776.965 600.966 783.515 600.954C797.95 600.928 811.893 604.369 823.457 613.125C849.521 612.324 846.433 616.02 868.173 628.593C880.996 636.009 880.662 628.497 892.411 644.633C902.202 646.338 907.759 646.436 915.795 652.217C912.682 652.287 910.685 651.836 907.846 653.055C908.648 655.632 910.41 656.853 912.41 658.753L912.547 659.896C915.237 664.742 916.776 666.808 917.783 672.306C889.295 697.999 853.934 727.756 834.395 761.564C825.907 773.191 809.318 799.755 803.721 812.96C798.052 824.209 791.403 836.981 787.827 849.015C781.143 871.505 771.264 876.407 748.719 869.098C747.032 868.623 743.661 867.051 741.904 866.3C741.044 856.097 743.04 863.248 737.923 854.847C732.615 857.222 723.596 852.568 716.816 852.104L715.06 851.944C709.567 851.417 707.891 849.35 703.402 853.551C694.976 844.381 669.615 841.652 664.817 824.127C661.504 812.028 665.677 804.714 670.632 794.254C665.327 792.713 661.339 791.762 656.735 788.7C644.092 782.952 644.316 771.94 647.384 760.083C647.815 758.009 648.922 755.007 649.61 752.908C654.917 752.654 653.126 757.781 658.712 754.194L664.146 742.053C661.845 735.094 670.007 736.977 660.915 728.071C664.248 720.578 666.657 716.306 670.874 709.211C660.548 704.927 650.839 700.159 640.202 696.61L640.213 698.169C642.99 699.813 643.116 699.953 644.425 702.903L643.885 705.698C642.733 704.841 641.559 704.014 640.364 703.219C627.973 695.073 615.924 695.025 602.062 697.732C601.656 696.039 601.55 696.233 600.604 694.675C593.536 692.128 586.262 688.774 587.16 680.471L590.386 677.946C589.266 677.559 588.15 677.16 587.039 676.749C577.815 673.329 571.786 669.107 567.424 659.925C562.853 650.304 564.97 633.731 576.034 629.479C579.821 631.468 584.822 630.75 587.958 627.809C597.208 612.922 598.804 613.541 614.723 607.498C625.651 604.571 630.083 611.224 638.767 609.73L638.528 607.91L635.724 605.805C629.207 599.168 617.315 601.179 605.606 599.946Z"/><path fill="#A7A858" d="M748.719 869.098C746.614 866.777 746.54 866.731 745.062 863.986C744.395 854.938 755.279 830.942 760.215 820.543C786.724 764.688 837.836 684.959 893.51 656.04C899.856 652.744 906.876 657.052 912.547 659.896C915.237 664.742 916.776 666.808 917.783 672.306C889.295 697.999 853.934 727.756 834.395 761.564C825.907 773.191 809.318 799.755 803.721 812.96C798.052 824.209 791.403 836.981 787.827 849.015C781.143 871.505 771.264 876.407 748.719 869.098Z"/><path fill="#A7A858" d="M664.146 742.053C680.089 708.749 700.86 677.981 725.789 650.744C738.622 636.936 767.108 609.117 787.282 609.126C793.878 609.129 806.796 611.935 811.597 616.661L811.212 618.08C795.037 627.541 776.09 645.827 762.558 658.747C752.934 668.277 736.704 687.013 729.138 698.501C715.278 719.082 703.341 738.577 693.902 761.55C691.655 767.018 681.063 785.063 675.719 785.013C650.581 784.776 653.57 768.735 658.712 754.194L664.146 742.053Z"/><path fill="#A7A858" d="M729.138 698.501C736.704 687.013 752.934 668.277 762.558 658.747C760.991 662.582 760.142 662.882 760.582 666.399C764.002 667.495 762.214 667.177 766.516 666.043C786.3 678.324 808.255 687.694 828.623 700.185C825.547 703.81 812.171 720.845 808.878 721.147C807.814 722.723 806.734 724.094 806.004 725.824C805.579 729.989 794.371 743.442 790.929 747.635C787.95 745.992 784.395 743.889 781.35 742.504C773.38 737.166 757.091 730.925 747.797 727.157C740.417 724.751 732.964 722.122 725.607 719.608C728.293 715.904 730.702 711.781 733.107 707.87C733.439 704.465 734.582 703.603 734.719 699.889C731.905 697.665 733.569 698.45 729.138 698.501Z"/><path fill="#A7A858" d="M733.107 707.87C736.639 702.883 739.973 697.982 743.973 693.356C748.634 695.352 753.809 698.001 758.429 700.226C766.804 704.853 780.079 712.201 788.829 716.032L792.576 711.206C798.683 714.62 803.173 717.136 808.878 721.147C807.814 722.723 806.734 724.094 806.004 725.824C805.579 729.989 794.371 743.442 790.929 747.635C787.95 745.992 784.395 743.889 781.35 742.504C773.38 737.166 757.091 730.925 747.797 727.157C740.417 724.751 732.964 722.122 725.607 719.608C728.293 715.904 730.702 711.781 733.107 707.87Z"/><path fill="#7D4829" d="M792.576 711.206C798.683 714.62 803.173 717.136 808.878 721.147C807.814 722.723 806.734 724.094 806.004 725.824C800.301 722.521 794.576 719.257 788.829 716.032L792.576 711.206Z"/><path fill="#7D4B2A" d="M729.138 698.501C736.704 687.013 752.934 668.277 762.558 658.747C760.991 662.582 760.142 662.882 760.582 666.399C764.002 667.495 762.214 667.177 766.516 666.043C760.418 673.239 754.248 680.372 748.006 687.442C749.99 688.495 755.19 691.083 756.78 692.303C764.816 695.779 784.582 706.392 792.576 711.206L788.829 716.032C780.079 712.201 766.804 704.853 758.429 700.226C753.809 698.001 748.634 695.352 743.973 693.356C739.973 697.982 736.639 702.883 733.107 707.87C733.439 704.465 734.582 703.603 734.719 699.889C731.905 697.665 733.569 698.45 729.138 698.501Z"/><path fill="#A7A858" d="M636.729 604.751C652.193 610.694 668.531 614.669 684.389 619.587C699.114 624.265 713.695 629.382 728.114 634.932C725.334 636.953 725.512 636.78 724.131 639.939L722.984 640.515C721.368 643.735 713.686 651.118 710.715 654.156C699.795 660.151 697.401 653.637 691.036 655.608C658.653 646.878 621.987 629.448 587.958 627.809C597.208 612.922 598.804 613.541 614.723 607.498C625.651 604.571 630.083 611.224 638.767 609.73L638.528 607.91L635.724 605.805L636.729 604.751Z"/><path fill="#7D4B2A" d="M636.729 604.751C652.193 610.694 668.531 614.669 684.389 619.587C699.114 624.265 713.695 629.382 728.114 634.932C725.334 636.953 725.512 636.78 724.131 639.939L722.984 640.515C699.937 632.205 676.661 624.544 653.183 617.541C643.539 614.595 624.481 608.758 614.723 607.498C625.651 604.571 630.083 611.224 638.767 609.73L638.528 607.91L635.724 605.805L636.729 604.751Z"/><path fill="#A7A858" d="M722.52 725.271C727.852 727.295 733.259 729.112 738.731 730.717C743.582 729.854 743.786 729.853 747.797 727.157C757.091 730.925 773.38 737.166 781.35 742.504C782.807 746.54 782.694 746.431 782.729 750.789L786.362 753.382C786.688 755.696 772.848 777.771 770.477 781.78C746.926 768.951 732.284 763.386 707.715 752.967C711.459 743.654 717.41 734.014 722.52 725.271Z"/><path fill="#7D4B2A" d="M747.797 727.157C757.091 730.925 773.38 737.166 781.35 742.504C782.807 746.54 782.694 746.431 782.729 750.789C768.267 743.661 753.594 736.967 738.731 730.717C743.582 729.854 743.786 729.853 747.797 727.157Z"/><path fill="#A7A858" d="M741.077 776.674C748.538 780.114 759.054 785.284 766.2 789.482C755.822 805.448 742.811 836.552 737.923 854.847C732.615 857.222 723.596 852.568 716.816 852.104C714.577 850.718 708.59 847.316 708.801 844.739C710.089 829.019 733.094 787.05 741.077 776.674Z"/><path fill="#A7A858" d="M636.729 604.751L635.457 602.519C669.255 590.094 689.068 595.853 722.596 607.843C731.194 610.919 742.116 613.988 750.118 617.52C747 620.088 730.592 633.837 728.114 634.932C713.695 629.382 699.114 624.265 684.389 619.587C668.531 614.669 652.193 610.694 636.729 604.751Z"/><path fill="#C7754F" d="M590.386 677.946C600.299 681.365 632.967 691.975 640.202 696.61L640.213 698.169C642.99 699.813 643.116 699.953 644.425 702.903L643.885 705.698C642.733 704.841 641.559 704.014 640.364 703.219C627.973 695.073 615.924 695.025 602.062 697.732C601.656 696.039 601.55 696.233 600.604 694.675C593.536 692.128 586.262 688.774 587.16 680.471L590.386 677.946Z"/><path fill="#734023" d="M647.384 760.083C650.674 765.963 646.485 768.037 647.243 773.665C649.047 772.726 648.24 773.32 649.667 771.886C651.452 775.59 652.752 781.192 654.13 785.114C655.148 788.014 656.023 783.627 656.735 788.7C644.092 782.952 644.316 771.94 647.384 760.083Z"/><path fill="#A7A858" d="M691.036 655.608C697.401 653.637 699.795 660.151 710.715 654.156L704.258 662.043C700.125 660.189 694.744 658.017 691.036 655.608Z"/><path fill="#A7A858" d="M581.15 634.956C607.981 635.945 673.833 656.478 699.563 667.881C693.749 675.454 688.204 682.565 682.91 690.54L675.146 702.053C660.698 694.23 644.671 687.672 629.18 681.402C613.698 674.869 593.873 671.903 580.021 662.509C570.145 655.812 574.938 642.304 581.15 634.956Z"/><path fill="#7D4829" d="M636.978 662.678C646.415 664.612 668.052 673.607 675.819 680.232C678.079 682.16 677.484 682.633 677.457 685.242C671.408 683.317 639.1 669.909 636.297 665.923L636.978 662.678Z"/><path fill="#A7A858" d="M703.91 761.236C713.63 765.167 724.283 769.201 733.587 773.875C722.159 790.015 713.673 807.962 706.09 826.128C704.43 830.104 702.169 837.173 698.639 839.226C694.258 838.905 689.193 837.195 689.026 832.13C687.34 828.819 691.663 821.796 693.212 818.007L692.208 817.137L688.538 819.373C686.232 824.248 685.548 827.472 681.115 829.561C674.996 828.424 670.532 819.619 671.91 814.827C677.466 795.5 692.344 777.324 703.91 761.236Z"/><path fill="#7D4829" d="M688.538 819.373C691.88 811.132 692.294 807.98 698.967 802.292L700.424 802.338C701.346 808.921 692.372 825.992 689.026 832.13C687.34 828.819 691.663 821.796 693.212 818.007L692.208 817.137L688.538 819.373Z"/><path fill="#A7A858" d="M795.395 640.545C805.113 640.76 847.335 664.011 857.797 669.707C848.678 677.931 841.314 685.484 832.781 694.297C831.464 694.275 777.937 666.127 771.052 662.793C778.958 654.8 786.949 647.936 795.395 640.545Z"/><path fill="#A7A858" d="M859.759 633.952C869.78 636.302 879.103 642.771 886.569 649.665C878.026 654.6 873.424 657.282 865.547 663.247C857.126 658.449 847.634 653.868 838.933 649.461C845.682 643.41 851.653 638.093 859.759 633.952Z"/><path fill="#A7A858" d="M806.397 634.422C806.971 633.925 807.554 633.438 808.146 632.963C817.435 625.529 826.308 620.479 838.356 621.921C843.336 624.151 847.788 626.101 852.591 628.749C845.114 634.318 839.427 640 832.734 646.421C828.863 644.603 827.143 644.701 825.547 641.712C826.715 639.126 826.794 639.213 828.748 637.096L827.995 635.177C824.923 634.033 824.813 634.984 820.723 636.641L817.861 638.531C813.635 638.764 810.332 636.432 806.397 634.422Z"/><path fill="#7D4B2A" d="M820.723 636.641C823.976 633.115 830.5 627.287 835.361 626.542L836.994 628.116C835.026 631.788 832.438 635.002 828.748 637.096L827.995 635.177C824.923 634.033 824.813 634.984 820.723 636.641Z"/><path fill="#764A25" d="M948.397 737.673L948.703 734.423C951.619 733.706 953.276 733.747 956.226 733.63C978.499 755.372 988.62 767.174 984.379 799.326C989.779 804.683 994.045 809.442 993.414 817.42C991.964 835.75 979.625 847.474 962.928 850.873C936.587 885.213 899.312 857.611 871.615 841.521C876.855 861.659 873.047 879.295 866.244 898.841C864.451 903.99 862.15 908.206 856.695 909.883C841.869 909.167 812.204 874.944 810.136 858.874C805.382 851.259 806.275 847.856 805.971 838.738L805.818 840.007L805.239 839.425C804.981 836.346 804.965 836.54 803.535 833.769C803.954 832.599 804.982 830.829 805.597 829.664L809.522 820.018C807.444 819.652 807.333 819.68 805.36 820.058C803.224 818.122 803.962 816.934 803.721 812.96C809.318 799.755 825.907 773.191 834.395 761.564C834.619 768.252 834.276 765.083 837.983 770.882C841.419 767.022 842.523 765.199 845.246 760.756C849.373 762.895 859.847 769.67 862.166 770.652C866.839 771.159 868.426 773.35 871.568 773.392C872.451 772.151 873.113 771.264 874.087 770.07L874.961 769.013C898.347 785.585 930.201 808.816 950.74 828.842C964.309 839.256 974.696 851.106 983.482 817.64C985.615 809.517 967.023 792.736 961.081 786.65C955.079 780.504 944.366 770.995 936.862 764.23C941.368 764.528 941.251 766.638 945.494 766.033C946.165 762.58 945.722 763.22 944.243 759.327C956.504 770.14 966.408 779.056 977.311 791.46C977.486 789.807 977.601 788.148 977.656 786.486C978.2 766.849 961.067 750.983 948.397 737.673Z"/><path fill="#A7A858" d="M845.246 760.756C849.373 762.895 859.847 769.67 862.166 770.652C866.839 771.159 868.426 773.35 871.568 773.392C872.451 772.151 873.113 771.264 874.087 770.07L874.961 769.013C898.347 785.585 930.201 808.816 950.74 828.842C947.853 828.064 947.488 827.944 944.529 827.759L943.658 829.192C944.363 831.774 944.605 832.403 945.711 834.846C948.389 838.042 951.218 838.796 954.221 843.673C954.71 860.162 928.468 859.708 917.65 855.469C898.641 848.022 881.522 836.598 863.996 826.203C849.378 817.513 834.454 809.349 819.254 801.725C822.017 797.07 829.178 784.042 832.807 781.691C836.827 779.159 836.055 780.481 837.148 776.759C836.667 774.446 837.327 773.373 837.983 770.882C841.419 767.022 842.523 765.199 845.246 760.756Z"/><path fill="#7D4B2A" d="M874.961 769.013C898.347 785.585 930.201 808.816 950.74 828.842C947.853 828.064 947.488 827.944 944.529 827.759L943.658 829.192C944.363 831.774 944.605 832.403 945.711 834.846C938.05 828.343 930.277 821.973 922.692 815.38C903.691 798.864 882.644 785.251 862.166 770.652C866.839 771.159 868.426 773.35 871.568 773.392C872.451 772.151 873.113 771.264 874.087 770.07L874.961 769.013Z"/><path fill="#7D4B2A" d="M837.148 776.759C846.127 780.294 861.549 786.96 867.813 794.175L867.987 796.106C861.9 799 839.039 785.325 832.807 781.691C836.827 779.159 836.055 780.481 837.148 776.759Z"/><path fill="#764A25" d="M905.235 833.593C901.729 830.573 897.426 828.268 898.197 823.436L900.551 822.994C904.767 824.218 906.957 826.848 910.268 829.859C914.926 833.988 925.316 842.115 926.248 847.84C920.75 849.153 909.217 837.268 905.235 833.593Z"/><path fill="#DA9C6C" d="M809.522 820.018C811.594 816.077 812.55 812.822 815.982 810.703C819.055 811.289 819.445 811.956 821.923 813.88L822.38 815.72C819.489 819.619 816.07 823.901 813.758 828.103C812.374 827.783 810.988 827.472 809.599 827.17C808.854 827.647 806.227 829.403 805.597 829.664L809.522 820.018Z"/><path fill="#C7754F" d="M805.597 829.664C806.227 829.403 808.854 827.647 809.599 827.17C810.988 827.472 812.374 827.783 813.758 828.103C808.229 840.996 808.337 844.948 810.136 858.874C805.382 851.259 806.275 847.856 805.971 838.738L805.818 840.007L805.239 839.425C804.981 836.346 804.965 836.54 803.535 833.769C803.954 832.599 804.982 830.829 805.597 829.664Z"/><path fill="#89893E" d="M826.856 821.554C836.988 827.434 837.847 866.964 846.775 871.935L848.49 870.919C852.297 861.837 840.051 832.268 836.176 822.347C849.893 827.686 860.744 833.434 864.898 848.197C867.022 868.873 864.051 882.975 854.63 901.273C829.522 880.452 801.984 855.704 826.856 821.554Z"/><path fill="#89893E" d="M602.062 697.732C615.924 695.025 627.973 695.073 640.364 703.219C641.559 704.014 642.733 704.841 643.885 705.698C656.552 716.737 657.413 717.994 650.354 733.623C640.605 755.206 620.649 764.542 597.735 760.762C588.939 760.438 555.22 749.437 552.494 740.577C554.936 735.633 557.506 732.971 561.03 728.826C567.05 722.025 575.466 712.102 583.088 707.57C589.707 701.946 594.09 700.479 602.062 697.732Z"/><path fill="#7D4B2A" d="M602.062 697.732C615.924 695.025 627.973 695.073 640.364 703.219C641.559 704.014 642.733 704.841 643.885 705.698C656.552 716.737 657.413 717.994 650.354 733.623C640.605 755.206 620.649 764.542 597.735 760.762C600.546 757.562 604.411 757.112 608.492 756.773L609.462 756.703L607.813 755.449L607.416 756.058L607.054 755.08C605.099 755.11 604.815 754.361 602.545 752.986C626.754 753.518 637.352 742.935 646.273 721.752C632.507 723.424 598.547 735.725 593.656 734.367C591.076 723.752 634.912 717.253 642.229 715.926C630.525 703.898 617.835 701.309 602.045 706.159C592.424 704.713 592.062 704.189 583.088 707.57C589.707 701.946 594.09 700.479 602.062 697.732Z"/><path fill="#764A25" d="M583.088 707.57C592.062 704.189 592.424 704.713 602.045 706.159C582.88 715.156 576.311 725.047 561.412 740.031C575.378 746.298 587.457 750.505 602.545 752.986C604.815 754.361 605.099 755.11 607.054 755.08L607.416 756.058L607.813 755.449L609.462 756.703L608.492 756.773C604.411 757.112 600.546 757.562 597.735 760.762C588.939 760.438 555.22 749.437 552.494 740.577C554.936 735.633 557.506 732.971 561.03 728.826C567.05 722.025 575.466 712.102 583.088 707.57Z"/><path fill="#7D4B2A" d="M561.03 728.826C563.507 732.834 563.11 730.777 562.717 735.114C560.446 738.944 559.604 739.041 555.492 741.259L552.494 740.577C554.936 735.633 557.506 732.971 561.03 728.826Z"/><path fill="#7D4829" d="M803.721 812.96C803.962 816.934 803.224 818.122 805.36 820.058C807.333 819.68 807.444 819.652 809.522 820.018L805.597 829.664C804.982 830.829 803.954 832.599 803.535 833.769C792.127 859.72 787.404 894.316 746.917 877.66C743.206 876.134 740.304 873.229 737.518 870.386C741.572 868.725 740.22 870.104 741.904 866.3C743.661 867.051 747.032 868.623 748.719 869.098C771.264 876.407 781.143 871.505 787.827 849.015C791.403 836.981 798.052 824.209 803.721 812.96Z"/><path fill="#854C2B" d="M703.402 853.551C707.891 849.35 709.567 851.417 715.06 851.944L716.816 852.104C723.596 852.568 732.615 857.222 737.923 854.847C743.04 863.248 741.044 856.097 741.904 866.3C740.22 870.104 741.572 868.725 737.518 870.386C732.946 861.475 722.262 864.59 713.66 860.145C709.444 857.968 707.132 856.406 703.402 853.551Z"/><path fill="#E2B270" d="M214.756 718.456C231.671 712.049 258.302 716.898 276.869 716.584C287.875 716.398 296.024 715.741 306.959 714.704L306.86 716.201C298.219 717.218 289.364 720.414 281.5 720.299C261.275 720.003 236.176 713.756 216.323 719.336L214.756 718.456Z"/><path fill="#7D4B2A" d="M660.915 728.071C670.007 736.977 661.845 735.094 664.146 742.053L658.712 754.194C653.126 757.781 654.917 752.654 649.61 752.908C651.579 747.042 658.044 734.188 660.915 728.071Z"/><path fill="#E2B270" d="M948.862 726.325C953.674 725.462 954.202 725.082 958.448 726.962L959.854 728.634C959.194 731.224 958.448 731.536 955.816 732.625L948.862 726.325Z"/><path fill="#E2B270" d="M977.95 723.539C979.76 724.837 981.728 726.17 983.432 727.579C978.794 728.91 976.825 728.73 972.205 726.732L972.273 725.145C974.438 724.282 975.665 724.062 977.95 723.539Z"/><path fill="#7D4829" d="M388.448 1145.27C421.735 1139.2 453.616 1161.34 459.544 1194.66C465.472 1227.97 443.188 1259.75 409.849 1265.54C376.715 1271.28 345.169 1249.17 339.278 1216.06C333.386 1182.95 355.366 1151.31 388.448 1145.27Z"/><path fill="#F9E8CE" d="M405.285 1162.63C415.345 1159.76 425.847 1165.49 428.873 1175.5C431.899 1185.52 426.329 1196.11 416.363 1199.29C409.777 1201.39 402.568 1199.78 397.503 1195.08C392.438 1190.37 390.301 1183.3 391.913 1176.58C393.526 1169.85 398.636 1164.52 405.285 1162.63Z"/><path fill="#F9E8CE" d="M375.237 1225.53C380.348 1224.14 385.638 1227.05 387.219 1232.1C388.801 1237.15 386.11 1242.55 381.123 1244.33C377.719 1245.55 373.922 1244.8 371.23 1242.39C368.538 1239.97 367.382 1236.28 368.218 1232.76C369.054 1229.25 371.748 1226.47 375.237 1225.53Z"/><path fill="#7D4829" d="M715.085 1116.96C706.555 1085.24 724.709 1052.47 756.124 1042.88C787.538 1033.29 820.897 1050.34 831.532 1081.42C842.166 1112.49 826.246 1146.4 795.544 1158.07C764.842 1169.74 730.417 1154.97 717.726 1124.67L714.917 1126.2L713.735 1125.84C712.843 1123.14 714.255 1119.91 715.085 1116.96Z"/><path fill="#E2B270" d="M715.085 1116.96C715.792 1119.58 716.674 1122.16 717.726 1124.67L714.917 1126.2L713.735 1125.84C712.843 1123.14 714.255 1119.91 715.085 1116.96Z"/><path fill="#F9E8CE" d="M732.307 1082.1C740.396 1062.22 764.275 1063.75 768.996 1079.87C770.625 1085.59 769.82 1091.73 766.771 1096.83C756.816 1113.69 740.284 1107.82 732.431 1092.22C732.132 1088.94 732.267 1085.4 732.307 1082.1Z"/><path fill="#F9E8CE" d="M803.341 1104.61C806.536 1103.3 810.188 1103.81 812.904 1105.94C815.621 1108.07 816.983 1111.49 816.471 1114.91C815.96 1118.32 813.654 1121.2 810.432 1122.44C805.523 1124.34 800.004 1121.92 798.061 1117.03C796.117 1112.14 798.472 1106.6 803.341 1104.61Z"/><path fill="#734023" d="M732.431 1092.22L729.794 1093.53C725.952 1090.38 726.549 1084.57 728.988 1080.63L732.307 1082.1C732.267 1085.4 732.132 1088.94 732.431 1092.22Z"/><path fill="#D3815B" d="M367.295 1271.52C376.351 1271.36 387.842 1274.2 395.248 1279.49C405.528 1286.83 403.962 1299.29 396.728 1308.34C385.15 1322.82 367.622 1328.07 350.007 1330.71C327.658 1331.27 294.836 1321.6 316.531 1292.2C327.699 1277.06 349.247 1272.81 367.295 1271.52Z"/><path fill="#D3815B" d="M877.444 1125.5C898.832 1123.95 922.688 1138.54 905.01 1161.65C894.589 1175.27 872.279 1184.04 855.524 1185.98C835 1185.43 805.166 1177.19 824.556 1150.23C836.092 1134.19 858.355 1127.61 877.444 1125.5Z"/><path fill="#89893E" d="M599.697 798.923C606.265 785.647 642.726 779.023 651.359 791.054C650.366 799.88 649.657 806.259 647.722 814.864C645.304 820.298 644.517 822.547 640.638 827.253C631.178 837.762 624.803 838.739 612.135 842.351C605.55 843.8 595.098 846.059 589.011 843.196C581.146 834.403 593.463 807.126 599.697 798.923Z"/><path fill="#7D4B2A" d="M599.697 798.923C606.265 785.647 642.726 779.023 651.359 791.054C647.681 798.212 647.076 791.63 639.975 799.205C630.182 802.53 619.265 819.245 611.799 819.641L610.001 818.541C609.834 810.629 629.709 797.568 635.825 792.603C615.773 792.86 611.453 796.465 600.572 813.366C599.249 807.914 598.727 804.488 599.697 798.923Z"/><path fill="#764A25" d="M599.697 798.923C598.727 804.488 599.249 807.914 600.572 813.366C598.468 819.181 595.188 826.3 595.916 832.217C600.157 838.795 608.696 834.966 615.466 833.415C616.532 835.54 616.407 834.477 616.078 836.568C614.021 837.435 613.166 837.736 611.017 838.335C610.528 840.793 610.542 839.505 612.135 842.351C605.55 843.8 595.098 846.059 589.011 843.196C581.146 834.403 593.463 807.126 599.697 798.923Z"/><path fill="#854C2B" d="M651.359 791.054C650.366 799.88 649.657 806.259 647.722 814.864C645.304 820.298 644.517 822.547 640.638 827.253C638.362 826.52 639.408 827.048 637.492 825.687C636.191 822.583 637.17 820.621 638.043 817.287C640.49 809.182 641.034 810.707 641.708 801.455L639.975 799.205C647.076 791.63 647.681 798.212 651.359 791.054Z"/><path fill="#764A25" d="M641.708 801.455C646.105 805.974 640.65 811.044 642.337 816.592C645.914 816.826 644.113 817.096 647.722 814.864C645.304 820.298 644.517 822.547 640.638 827.253C638.362 826.52 639.408 827.048 637.492 825.687C636.191 822.583 637.17 820.621 638.043 817.287C640.49 809.182 641.034 810.707 641.708 801.455Z"/><path fill="#734023" d="M638.043 817.287C637.17 820.621 636.191 822.583 637.492 825.687C639.408 827.048 638.362 826.52 640.638 827.253C631.178 837.762 624.803 838.739 612.135 842.351C610.542 839.505 610.528 840.793 611.017 838.335C613.166 837.736 614.021 837.435 616.078 836.568C616.407 834.477 616.532 835.54 615.466 833.415C626.804 829.375 630.037 825.705 638.043 817.287Z"/><path fill="#7D4829" d="M591.842 1221.87C579.915 1228.55 572.23 1236.83 562.833 1246.62C558.965 1250.66 554.317 1254.32 548.449 1253.38C545.43 1250.99 546.467 1252.44 545.128 1248.93C545.783 1238.86 559.364 1226.16 566.616 1219.56C582.35 1205.23 602.855 1198.98 623.937 1201.19C633.637 1202.24 664.317 1204.78 664.526 1217.95C660.282 1224.97 654.983 1223.4 648.358 1221.4C629.083 1217.62 610.22 1213.24 591.842 1221.87Z"/><path fill="#C7754F" d="M280.257 957.522C285.014 958.116 288.704 959.643 290.226 964.472C290.109 969.75 288.109 972.813 284.637 976.912C268.43 996.047 249.456 1009.76 224.086 1012.51C218.236 1012.02 213.458 1010.06 212.424 1003.71C214.691 996.255 222.29 995.945 229.474 995.091C251.356 992.488 266.738 973.628 280.257 957.522Z"/><path fill="#7D4B2A" d="M731.937 985.943C734.066 986.434 747.745 995.539 751.116 997.321C769.787 1007.19 786.128 1001.67 805.505 999.634C808.21 999.349 810.709 999.991 812.828 1001.9C814.616 1008.21 811.164 1011.34 806.337 1014.54C781.505 1022.57 750.513 1019.37 729.927 1002.62C722.848 996.863 725.379 990.481 731.937 985.943Z"/><path fill="#7D4829" d="M370.853 1085.45C386.772 1086.19 382.924 1099.82 377.929 1109.51C366.665 1131.38 350.248 1142.84 327.28 1150.21C322.001 1149.95 319.276 1150.16 316.516 1144.79C315.42 1132.29 334.234 1133.14 346.038 1124.23C363.004 1111.42 362.157 1097.36 370.853 1085.45Z"/><path fill="#C7754F" d="M488.746 689.35C492.496 690.035 492.719 689.898 496.175 691.793C498.319 695.673 497.675 693.571 497.518 698.496C486.14 715.223 475.108 730.893 470.265 750.902C468.018 760.185 471.316 766.449 463.427 773.127C446.086 771.322 456.41 745.159 458.862 734.363C461.42 723.099 477.969 692.806 488.746 689.35Z"/><path fill="#C7754F" d="M1002.35 869.74C1021.31 871.884 1000.2 911.609 996.576 920.053C993.943 926.19 990.945 931.575 984.686 934.312C981.602 933.742 980.415 933.55 978.352 931.129C976.944 929.474 976.349 927.276 976.729 925.137C977.541 920.333 994.676 884.632 996.797 875.453C997.158 873.891 1000.88 870.892 1002.35 869.74Z"/><path fill="#C7754F" d="M474.59 1342.11C478.451 1341.67 478.599 1341.43 482.453 1342.55C485.125 1344.72 485.437 1344.64 486.611 1347.97C486.492 1360.85 452.192 1372.38 441.668 1374.95C435.913 1375.03 431.338 1373.54 429.797 1367.37C432.986 1357.34 449.491 1357.87 459.179 1352.69C467.408 1348.3 467.669 1348.16 474.59 1342.11Z"/><path fill="#C7754F" d="M556.381 905.029C572.985 904.408 569.08 920.006 555.763 925.648C550.632 925.589 548.255 925.588 545.237 920.927C543.452 912.488 550.407 908.577 556.381 905.029Z"/><path fill="#E2B270" d="M816.633 1000.33L818.312 1001.54C820.12 1004.36 819.402 1007.28 819.178 1010.8L817.638 1009.77C815.941 1007.11 816.545 1003.7 816.633 1000.33Z"/><path fill="#C7754F" d="M1028.58 767.402C1041.45 780.585 1053.95 793.6 1065.59 807.884C1068.75 811.761 1072.36 816.186 1075.83 819.723C1092.78 931.217 1047.32 1055.29 980.867 1143.52C900.642 1250.03 795.65 1333.1 728.413 1449.92C685.384 1437 647.731 1426.03 602.2 1424.81C503.874 1422.16 400.266 1442.37 313.258 1382.63C298.867 1372.74 278.651 1356.48 268.715 1341.77C268.164 1338.75 268.087 1339.26 268.218 1336.28C271.07 1335.52 276.446 1340.04 280.382 1341.55C396.828 1386.18 543.107 1415.17 664.868 1372.04C852.913 1305.43 1026.33 1100.58 1037.96 897.074C1039.33 875.707 1039.02 854.265 1037.05 832.945C1036.12 823.008 1034.82 813.11 1033.14 803.273C1031.26 792.461 1028.3 781.85 1026.75 771.007C1027.36 769.806 1027.97 768.604 1028.58 767.402Z"/><path fill="#A7A858" d="M877.841 721.4C900.692 735.051 916.464 747.421 936.862 764.23C944.366 770.995 955.079 780.504 961.081 786.65C967.023 792.736 985.615 809.517 983.482 817.64C974.696 851.106 964.309 839.256 950.74 828.842C930.201 808.816 898.347 785.585 874.961 769.013C866.758 763.491 859.38 759.061 850.906 754.065C859.416 742.799 868.403 731.9 877.841 721.4Z"/><path fill="#7D4829" d="M903.919 762.523C905.369 759.578 904.281 760.501 906.987 759.339C913.883 760.844 924.302 774.464 926.449 781.237L925.957 782.681C920.099 780.665 915.627 774.992 911.524 770.419C908.753 768.478 906.19 765.163 903.919 762.523Z"/><path fill="#764A25" d="M903.919 762.523L907.512 761.287C911.479 763.417 914.624 765.477 916.669 769.589L915.807 771.204C914.462 770.753 913.456 770.391 912.107 769.874L911.524 770.419C908.753 768.478 906.19 765.163 903.919 762.523Z"/><path fill="#A7A858" d="M884.083 715.174C889.242 710.551 895.289 704.165 900.281 699.176C917.641 710.262 933.771 723.168 948.397 737.673C961.067 750.983 978.2 766.849 977.656 786.486C977.601 788.148 977.486 789.807 977.311 791.46C966.408 779.056 956.504 770.14 944.243 759.327C929.062 745.234 901.26 726.681 884.083 715.174Z"/><path fill="#734023" d="M149.995 985.695C152.859 992.687 152.68 1109.52 150.445 1120.3C144.47 1081.65 143.398 1024.37 149.995 985.695Z"/><path fill="#7D4B2A" d="M912.547 659.896L912.41 658.753C910.41 656.853 908.648 655.632 907.846 653.055C910.685 651.836 912.682 652.287 915.795 652.217C919.869 655.965 922.907 658.172 925.434 663.09L925.486 664.509L924.764 668.641C923.889 668.942 923.296 669.565 922.583 670.14L918.49 669.424L917.783 672.306C916.776 666.808 915.237 664.742 912.547 659.896Z"/><path fill="#734023" d="M166.133 884.562C169.673 894.146 165.187 917.835 167.611 926.018L165.228 926.828C165.262 921.553 166.281 916.492 162.306 912.775C162.392 905.873 164.949 891.749 166.133 884.562Z"/><path fill="#734023" d="M477.862 1683.78C483.858 1683.67 503.851 1681.73 507.57 1683.8C499.449 1687.5 494.458 1684.81 490.972 1689.11C485.7 1687.46 482.777 1686.08 477.862 1683.78Z"/><path fill="#734023" d="M1774.83 1551.25C1774.98 1544.5 1775.08 1537.74 1775.11 1530.98L1776.15 1529.29L1775.92 1528.83L1775.16 1529.77L1775.44 1528.44C1778.22 1531.23 1774.64 1531.49 1779.67 1535.35C1778.53 1540.77 1777.68 1546.58 1774.83 1551.25Z"/><path fill="#E2B270" d="M561.563 622.299C567.528 621.128 575.468 619.373 581.339 620.404L582.526 621.666C581.353 624.066 581.899 623.392 580.104 625.287C574.602 619.612 569.789 625.099 561.563 622.299Z"/><path fill="#D3815B" d="M1033.51 750.261C1062.05 744.173 1091.65 745.261 1119.66 753.43C1182.76 772.267 1211.04 810.372 1252.47 856.26C1262.67 867.552 1284.2 882.035 1297.08 890.02C1325.26 905.99 1354.72 920.537 1382.93 936.067C1401.9 946.524 1420.28 958.04 1437.96 970.562C1441.21 972.941 1446.48 976.534 1449.42 979.013C1463.71 989.777 1477.43 1000.38 1490.27 1012.88C1563.75 1078.29 1610.6 1160.3 1645.35 1251.6C1665.22 1303.81 1683.36 1356.74 1711.98 1404.96L1745.71 1453.65C1746.7 1454.86 1747.53 1455.73 1748.33 1457.07C1749.97 1459.93 1752.11 1463.94 1753.96 1466.53C1764.39 1488.24 1768.23 1507.11 1764.84 1531.33C1763.86 1551.9 1739.24 1583.71 1724.02 1597.12C1667.2 1647.2 1580.58 1665.65 1509.61 1690.46C1506.64 1691.53 1504.58 1692.13 1501.79 1693.62L1502.14 1695L1499.16 1696.59L1499 1698.06L1501.59 1699.82C1499.62 1701.74 1486.75 1701.05 1483.75 1700.39C1480.16 1701.43 1476.24 1702.49 1472.73 1703.66C1467.56 1705.57 1463.3 1707.13 1457.96 1708.64L1454.41 1709.88C1442.38 1714.04 1431.54 1717.64 1419.32 1721.16C1311.79 1754.58 1208.65 1774.72 1095.91 1777.44C1080.72 1777.81 1045.38 1779.78 1031.97 1778.11C1021.63 1779.43 983.448 1777.7 972.303 1776.99C964.637 1777.73 943.536 1776.35 935.117 1775.91C909.854 1774.5 884.601 1772.92 859.359 1771.16C850.844 1771.04 841.991 1771.11 833.564 1770.1C788.245 1767.47 720.887 1764.74 686.134 1732.92C656.086 1705.41 671.854 1647.83 679.21 1613.52C696.417 1533.25 736.374 1458.02 785.204 1392.58C804.753 1366.37 827.226 1341.81 848.929 1317.37C876.216 1286.74 904.021 1256.58 932.332 1226.89L944.954 1212.4C1046.37 1102.68 1110.68 965.966 1091.56 814.388C1090.41 805.224 1090.94 783.084 1079.22 782.485C1075.92 783.921 1075.36 785.434 1073.37 788.462L1072.64 789.588C1066.19 784.685 1041.69 758.125 1033.51 750.261Z"/><path fill="#C7754F" d="M1033.51 750.261C1062.05 744.173 1091.65 745.261 1119.66 753.43C1182.76 772.267 1211.04 810.372 1252.47 856.26C1262.67 867.552 1284.2 882.035 1297.08 890.02C1293.91 892.669 1294.27 891.294 1293.98 894.575C1293.43 900.687 1295.43 907.762 1298.08 913.233C1300.86 919.36 1300.84 930.146 1301.42 937.486C1306.21 997.581 1291.53 1064.74 1272.47 1121.4C1269.28 1130.9 1249.09 1178.9 1244.52 1182.79C1240.63 1190.25 1236.89 1197.49 1232.61 1204.74C1231.03 1207.41 1225.1 1218.57 1223.69 1219.49C1217.15 1226.34 1203.96 1245.29 1197.79 1253.69L1188.94 1263.94C1187.63 1265.39 1184.14 1269.4 1182.84 1270.41C1180.65 1273.21 1173.36 1282.18 1170.67 1284.16C1165.49 1290.3 1160.2 1296.36 1154.81 1302.33C1138.87 1317.94 1121.69 1335.74 1105.56 1350.43C1075.44 1377.86 1043.97 1404.78 1015.01 1433.22C936.333 1510.47 884.311 1597.99 868.699 1708.34C865.743 1729.23 860.961 1749.39 859.359 1771.16C850.844 1771.04 841.991 1771.11 833.564 1770.1C788.245 1767.47 720.887 1764.74 686.134 1732.92C656.086 1705.41 671.854 1647.83 679.21 1613.52C696.417 1533.25 736.374 1458.02 785.204 1392.58C804.753 1366.37 827.226 1341.81 848.929 1317.37C876.216 1286.74 904.021 1256.58 932.332 1226.89L944.954 1212.4C1046.37 1102.68 1110.68 965.966 1091.56 814.388C1090.41 805.224 1090.94 783.084 1079.22 782.485C1075.92 783.921 1075.36 785.434 1073.37 788.462L1072.64 789.588C1066.19 784.685 1041.69 758.125 1033.51 750.261Z"/><path fill="#AE5C3D" d="M833.564 1770.1C834.848 1770.06 841.614 1770.04 841.86 1769.12C850.582 1736.49 853.593 1701.46 860.566 1668.03C883.349 1558.81 950.47 1470.46 1031.09 1396.2C1047.38 1381.21 1064.4 1367.42 1080.69 1352.67C1107.31 1328.69 1132.67 1303.35 1156.66 1276.74C1208.09 1219.7 1244.35 1165.78 1265.78 1091.22C1277.88 1049.09 1284.28 1008.84 1286.51 964.938C1287.34 948.661 1284.49 933.039 1284.96 916.98C1285.14 910.511 1293.94 911.601 1298.08 913.233C1300.86 919.36 1300.84 930.146 1301.42 937.486C1306.21 997.581 1291.53 1064.74 1272.47 1121.4C1269.28 1130.9 1249.09 1178.9 1244.52 1182.79C1240.63 1190.25 1236.89 1197.49 1232.61 1204.74C1231.03 1207.41 1225.1 1218.57 1223.69 1219.49C1217.15 1226.34 1203.96 1245.29 1197.79 1253.69L1188.94 1263.94C1187.63 1265.39 1184.14 1269.4 1182.84 1270.41C1180.65 1273.21 1173.36 1282.18 1170.67 1284.16C1165.49 1290.3 1160.2 1296.36 1154.81 1302.33C1138.87 1317.94 1121.69 1335.74 1105.56 1350.43C1075.44 1377.86 1043.97 1404.78 1015.01 1433.22C936.333 1510.47 884.311 1597.99 868.699 1708.34C865.743 1729.23 860.961 1749.39 859.359 1771.16C850.844 1771.04 841.991 1771.11 833.564 1770.1Z"/><path fill="#854C2B" d="M1170.67 1284.16L1170.17 1283.59C1170.53 1278.89 1168.18 1283.2 1168.78 1276.64C1170.53 1275.13 1180.36 1271.22 1182.84 1270.41C1180.65 1273.21 1173.36 1282.18 1170.67 1284.16Z"/><path fill="#F2D6AC" d="M1430.79 1670.53C1418.08 1644.42 1405.24 1605.73 1421.57 1579.94C1437.96 1554.06 1469.6 1613.01 1470.51 1627.6C1471.12 1637.27 1472.62 1649.88 1473.93 1658.33L1474.14 1659.6C1478.29 1654.15 1505.37 1617.18 1515.25 1634.75C1519.36 1642.07 1517.36 1664.41 1515.57 1672.73C1514.87 1675.99 1510.93 1686.25 1509.61 1690.46C1506.64 1691.53 1504.58 1692.13 1501.79 1693.62L1502.14 1695L1499.16 1696.59L1499 1698.06L1501.59 1699.82C1499.62 1701.74 1486.75 1701.05 1483.75 1700.39C1480.16 1701.43 1476.24 1702.49 1472.73 1703.66C1467.56 1705.57 1463.3 1707.13 1457.96 1708.64L1454.41 1709.88C1442.38 1714.04 1431.54 1717.64 1419.32 1721.16C1378.94 1697.25 1353.29 1636 1430.79 1670.53Z"/><path fill="#DA9C6C" d="M1455.55 1699.55C1452.46 1689.62 1433.28 1630.16 1444.03 1627.46C1456.54 1632.05 1466.46 1700.59 1472.73 1703.66C1467.56 1705.57 1463.3 1707.13 1457.96 1708.64L1455.55 1699.55Z"/><path fill="#734023" d="M1483.75 1700.39C1489.94 1697.91 1495.46 1695.72 1501.79 1693.62L1502.14 1695L1499.16 1696.59L1499 1698.06L1501.59 1699.82C1499.62 1701.74 1486.75 1701.05 1483.75 1700.39Z"/><path fill="#E9C397" d="M1455.55 1699.55L1457.96 1708.64L1454.41 1709.88C1451.75 1707.76 1451.62 1707.99 1450.47 1704.87C1451.89 1701.21 1451.69 1702.24 1455.55 1699.55Z"/><path fill="#F2D6AC" d="M1223.69 1219.49C1235.87 1221.12 1248.09 1227.42 1258.38 1233.9C1303.57 1262.34 1262.31 1271.56 1233.56 1273.22C1253.92 1292.54 1273.94 1314.11 1275.07 1343.42C1276.01 1367.63 1257.76 1363.23 1242.93 1355.1C1220.31 1342.7 1209.07 1323.19 1197.4 1301.52C1194.4 1312.82 1188.89 1332.81 1178.47 1339.52C1170.31 1344.78 1163.8 1337.04 1160.75 1330C1156.92 1321.27 1154.9 1311.86 1154.81 1302.33C1160.2 1296.36 1165.49 1290.3 1170.67 1284.16C1173.36 1282.18 1180.65 1273.21 1182.84 1270.41C1184.14 1269.4 1187.63 1265.39 1188.94 1263.94L1197.79 1253.69C1203.96 1245.29 1217.15 1226.34 1223.69 1219.49Z"/><path fill="#DA9C6C" d="M1188.94 1263.94L1197.79 1253.69C1205.21 1262.21 1245.13 1308.75 1236.16 1316.49C1231.76 1316.4 1228.23 1313.3 1225.48 1310.06C1213.17 1295.59 1201.63 1277.83 1188.94 1263.94Z"/><path fill="#F2D6AC" d="M1414.85 969.765C1403.75 966.708 1373.48 960.077 1373.59 945.668C1375.43 940.626 1378.28 938.588 1382.93 936.067C1401.9 946.524 1420.28 958.04 1437.96 970.562C1441.21 972.941 1446.48 976.534 1449.42 979.013C1463.71 989.777 1477.43 1000.38 1490.27 1012.88C1483.07 1039.17 1455.57 1074.66 1446 1025.68C1444.46 1017.77 1445.55 1009.33 1446.46 1001.36C1427.79 1024.4 1405.53 1049.71 1373.53 1048.44C1344.86 1047.3 1367.95 1006.33 1378.27 995.834C1392.61 981.228 1398.33 980.075 1414.85 969.765Z"/><path fill="#DA9C6C" d="M1437.96 970.562C1441.21 972.941 1446.48 976.534 1449.42 979.013C1439.1 988.296 1425.92 998.155 1415.47 1007.92C1412.38 1010.8 1409.76 1011.38 1405.65 1010.78C1402.71 1008.24 1403.79 1009.77 1402.53 1005.86C1403.86 995.79 1428.44 978.79 1437.96 970.562Z"/><path fill="#F2D6AC" d="M1711.98 1404.96L1745.71 1453.65C1746.7 1454.86 1747.53 1455.73 1748.33 1457.07C1749.97 1459.93 1752.11 1463.94 1753.96 1466.53C1764.39 1488.24 1768.23 1507.11 1764.84 1531.33C1757.65 1538.61 1746.56 1544.05 1738.35 1535.22C1727.64 1525.18 1741.19 1501.42 1734.99 1496.86C1732.38 1498.55 1731.27 1499.75 1727.99 1499.48C1709.99 1507.59 1678.51 1517.86 1658.93 1508.25C1637.53 1497.74 1668.43 1469.2 1679.96 1462.57C1692.56 1455.31 1702.49 1452.42 1717.08 1448.93C1715.99 1438.99 1709.84 1441.71 1704.89 1433.01C1692.3 1418.25 1688.92 1408.11 1711.98 1404.96Z"/><path fill="#DA9C6C" d="M1748.33 1457.07C1749.97 1459.93 1752.11 1463.94 1753.96 1466.53C1744.39 1470.48 1711.31 1486.62 1703.28 1479.87L1703.5 1477.68C1710.04 1469.02 1730.25 1463.24 1740.95 1459.38C1743.34 1458.53 1745.89 1457.81 1748.33 1457.07Z"/><path fill="#C7754F" d="M1727.99 1499.48C1731.24 1496.4 1739.14 1491.82 1743.23 1489.52C1737.68 1506.64 1734 1516.7 1738.35 1535.22C1727.64 1525.18 1741.19 1501.42 1734.99 1496.86C1732.38 1498.55 1731.27 1499.75 1727.99 1499.48Z"/><path fill="#C7754F" d="M1704.89 1433.01C1712.35 1437.96 1719.97 1442.67 1727.73 1447.12L1717.08 1448.93C1715.99 1438.99 1709.84 1441.71 1704.89 1433.01Z"/><path fill="#E9C397" d="M1740.95 1459.38C1739.62 1455.88 1738.52 1455.91 1738.87 1452.28L1741.38 1451.95C1742.9 1452.79 1744.03 1453.24 1745.71 1453.65C1746.7 1454.86 1747.53 1455.73 1748.33 1457.07C1745.89 1457.81 1743.34 1458.53 1740.95 1459.38Z"/><path fill="#C7754F" d="M972.303 1776.99C979.984 1774.19 1026.86 1774.39 1031.97 1778.11C1021.63 1779.43 983.448 1777.7 972.303 1776.99Z"/><path fill="#E9C397" d="M1244.52 1182.79C1252.29 1191.86 1241.68 1203.99 1232.61 1204.74C1236.89 1197.49 1240.63 1190.25 1244.52 1182.79Z"/><path fill="#F2D6AC" d="M1444.64 1271.32C1436.73 1256.36 1424.47 1246.05 1418.07 1228.34C1412.6 1213.22 1408.7 1167.68 1437.56 1182.39C1466.16 1196.96 1476.63 1221.74 1486.09 1250.59C1490.77 1239.8 1498.76 1222.76 1508.62 1215.96C1520.67 1207.65 1527.43 1234.74 1529.86 1241.95L1531.28 1241.94C1531.65 1249.31 1534.52 1270.63 1531.09 1276.54L1527.5 1278.15C1525.39 1285.23 1522.84 1297.97 1521.73 1305.47L1522.77 1304.58C1530.26 1298.05 1556.64 1262.26 1567.45 1278.63C1574.23 1288.89 1571.29 1314.99 1568.29 1326.64C1563.45 1347.21 1549.5 1363.22 1536.11 1378.69C1541.28 1387.44 1555.62 1426.83 1554.64 1438.12C1554.47 1440.02 1553.28 1440.58 1551.72 1442.16C1536.81 1444.65 1533.76 1389.67 1522.05 1384.52C1489.92 1396.43 1442.38 1384.89 1420.63 1358.12C1418.3 1355.26 1418.09 1354.06 1418.48 1350.62C1420.98 1346.35 1425.69 1344.5 1429.64 1341.47C1435.28 1335.27 1451.9 1336.34 1460.35 1332.12C1456.6 1329.25 1453.38 1328.17 1449.62 1324.93C1434.79 1318.47 1411.94 1307.21 1402.76 1293.67C1383.67 1265.5 1431.98 1269.61 1444.64 1271.32Z"/><path fill="#DA9C6C" d="M1522.05 1384.52C1525.51 1376.41 1485.73 1304.42 1479.69 1293.47C1472.94 1281.22 1446.68 1243.53 1445.45 1232.75C1446.81 1229.02 1445.66 1230.39 1448.86 1228.35C1450.18 1228.41 1450.45 1228.35 1451.84 1228.81C1460.57 1231.68 1501.89 1305.24 1507.67 1316.6C1517.8 1336.98 1527.29 1357.69 1536.11 1378.69C1541.28 1387.44 1555.62 1426.83 1554.64 1438.12C1554.47 1440.02 1553.28 1440.58 1551.72 1442.16C1536.81 1444.65 1533.76 1389.67 1522.05 1384.52Z"/><path fill="#C7754F" d="M1449.62 1324.93C1458.12 1327.62 1466.66 1330.15 1474.7 1334.03C1459.6 1335.92 1444.34 1337.49 1429.64 1341.47C1435.28 1335.27 1451.9 1336.34 1460.35 1332.12C1456.6 1329.25 1453.38 1328.17 1449.62 1324.93Z"/><path fill="#C7754F" d="M1529.86 1241.95L1531.28 1241.94C1531.65 1249.31 1534.52 1270.63 1531.09 1276.54L1527.5 1278.15C1530.07 1263.61 1530.25 1256.81 1529.86 1241.95Z"/><path fill="#F2D6AC" d="M1134.58 1530.08C1152.68 1502.3 1161.79 1478.03 1197.98 1468.28C1209.37 1465.22 1214.41 1473.09 1214.55 1483.36C1214.89 1508.73 1201.93 1525.42 1185.47 1542.98C1179.74 1547.6 1175.81 1550.74 1170.71 1556L1185.62 1556.63C1250.16 1566.63 1196.66 1601.64 1166.43 1605.95C1156.66 1607.35 1144.97 1607.33 1136.4 1611.93L1136.07 1613.19C1143.66 1619.64 1185.96 1624.48 1182.26 1639.69C1176.91 1661.63 1124.88 1669.13 1106.03 1664.25C1092.03 1660.63 1085.45 1659.83 1075.16 1653.69C1061.26 1667.51 1056.06 1685.61 1046.28 1701.95C1044.92 1704.21 1042.37 1704.63 1039.95 1705.02C1036.24 1703.92 1037.54 1704.99 1035.62 1702.1C1034.98 1692.4 1057.04 1656.32 1062.51 1646.08C1052.95 1633.28 1051.77 1630.46 1044.27 1612.65C1037.6 1596.82 1035.49 1549.15 1054.05 1540.38C1065.11 1535.16 1078.26 1567.92 1087.76 1575.56C1090.38 1572.66 1088 1547.13 1089.46 1538.95C1091.45 1527.01 1094.59 1510.95 1100.82 1500.36C1119.64 1468.36 1131.1 1517.28 1134.58 1530.08Z"/><path fill="#DA9C6C" d="M1062.51 1646.08C1068.86 1639.52 1077.57 1624.6 1082.22 1619.18C1092.68 1606.98 1161.36 1515.83 1172.75 1512.95C1176.39 1513.9 1175.07 1512.9 1177.07 1515.7C1177.18 1519.4 1175.96 1522.72 1173.63 1525.6C1144.51 1561.71 1113.71 1596.79 1087.35 1635.05C1085 1638.47 1076.12 1650.22 1075.16 1653.69C1061.26 1667.51 1056.06 1685.61 1046.28 1701.95C1044.92 1704.21 1042.37 1704.63 1039.95 1705.02C1036.24 1703.92 1037.54 1704.99 1035.62 1702.1C1034.98 1692.4 1057.04 1656.32 1062.51 1646.08Z"/><path fill="#D3815B" d="M232.397 1322.58C244.088 1337.56 257.212 1355.1 270.496 1368.26C313.868 1411.21 371.154 1432.39 430.832 1439.61C477.378 1445.24 523.046 1441.13 569.417 1440.15C618.882 1439.12 673.802 1447.37 720.326 1464.27C686.375 1519.87 642.46 1644.67 655.223 1709.28C640.141 1708.12 591.728 1703.47 578.019 1699.29C536.333 1688.34 492.845 1677.24 454.419 1657.08C408.057 1638.79 360.312 1598.41 335.28 1555.39C330.63 1548.63 328.814 1540.1 323.463 1532.36C291.346 1516.34 270.038 1500.31 250.576 1469.34C221.622 1423.26 218.841 1374.26 232.397 1322.58Z"/><path fill="#F2D6AC" d="M454.419 1657.08C453.478 1644.3 453.492 1625.64 470.776 1626.14C497.339 1626.92 517.639 1656.73 530.89 1675.93C533.631 1662.41 548.829 1604.31 568.365 1638.18C578.744 1656.18 578.963 1679.03 578.019 1699.29C536.333 1688.34 492.845 1677.24 454.419 1657.08Z"/><path fill="#AE5C3D" d="M323.463 1532.36C386.619 1560.23 441.509 1570.88 511.231 1567.35C522.942 1566.76 546.095 1560.53 552.683 1569.09C558.628 1598.87 390.726 1578.67 370.972 1567C368.922 1565.79 336.178 1554.8 335.28 1555.39C330.63 1548.63 328.814 1540.1 323.463 1532.36Z"/><path fill="#F9E8CE" d="M1683.91 911.067C1692 903.609 1689.14 889.604 1689.06 878.764L1689.14 838.939C1689.49 767.999 1689.48 697.058 1689.09 626.119L1689.27 566.52C1689.28 555.943 1688.86 544.982 1689.49 534.458C1693.77 462.227 1786.11 440.079 1817.05 511.073C1812.73 511.558 1812.81 511.385 1809.1 513.446C1805.96 519.15 1812.44 524.846 1809.85 531.072L1809.34 535.042C1806.59 537.123 1804.92 536.296 1801.74 536.939C1797.23 542.654 1800.89 541.459 1798.91 547.115C1797.54 551.205 1797.88 555.624 1797.85 560.017C1798.2 562.62 1799.31 568.891 1798.22 571.064C1798.04 576.615 1797.81 581.663 1798.17 587.234C1798.61 589.67 1799.16 592.836 1798.86 595.264L1797.9 596.044C1797.92 600.915 1797.74 608.502 1798.17 613.098C1798.55 615.421 1798.92 617.747 1799.27 620.075L1797.98 621.874L1797.98 636.961C1805.68 638.631 1821.22 634.834 1826.23 639.314C1827.67 650.935 1802.59 646.046 1799.02 648.132C1796.89 653.14 1798.11 655.277 1797.39 660.386C1808.16 659.827 1831.03 657.504 1838.95 663.95C1840.03 666.282 1839.86 666.369 1839.99 668.989L1846.71 672.315C1847.54 676.582 1847.7 676.712 1850.28 680.322L1849.9 681.046C1845.36 692.418 1845.47 766.237 1845.93 782.042L1847.73 783.383C1847.83 786.117 1848.18 784.884 1846.24 787.024C1842.92 787.911 1841.52 788.596 1838.14 788.576C1837.04 787.546 1834.09 784.526 1832.62 784.468C1823.82 784.118 1814.94 784.619 1806.14 784.94C1799.92 784.415 1793.49 782.919 1788.67 786.737C1787.87 789.162 1787.79 789.113 1787.78 791.633L1788.32 792.501L1790.98 793.916C1793.88 794.597 1795 794.577 1797.53 796.036L1797.16 797.12C1797.08 801.136 1796.52 806.371 1798.07 809.873C1805.11 809.788 1818.42 808.562 1823.53 812.367C1824.6 815.28 1824.49 813.753 1823.3 817.105C1817.98 820.023 1804.43 818.774 1797.21 819.468L1797.39 834.014C1805.08 833.709 1819.15 831.951 1824.96 835.965C1826.21 839.083 1826.1 837.517 1825.18 840.832C1821.19 844.472 1804.81 842.827 1797.61 843.423L1797.68 858.105C1804.49 862.342 1819.9 853.465 1826.51 862.467C1826.89 865.825 1827.25 864.273 1825.06 867.193C1818.31 870.663 1805.63 869.73 1797.92 869.031L1798 884.659C1798.48 885.733 1800.16 892.307 1800.13 893.197L1798.91 894.163C1797.19 898.282 1797.61 903.879 1797.88 908.434C1808.15 910.328 1817.72 909.253 1827.93 909.844C1832.7 906.545 1850.01 908.388 1847.42 917.175C1843.1 920.97 1840.23 920.321 1834.35 920.492C1847.99 944.807 1853.96 978.61 1839.78 1004.1C1824.22 1048.42 1768.82 1071.18 1724.95 1055.61C1707.3 1049.33 1691.98 1037.82 1681.04 1022.62C1680.19 1021.28 1679.16 1019.27 1678.37 1017.84C1674.64 1012.57 1671.97 1006.22 1669.21 1000.35C1663.26 982.474 1660.45 958.394 1668.04 940.686C1669.12 931.317 1677.61 918.1 1683.91 911.067Z"/><path fill="#D3815B" d="M1774.54 664.631L1776.16 665.118L1778.37 665.753C1779.61 670.773 1779.31 693.532 1779.25 700.008C1779.08 718.738 1779.72 738.728 1779.14 757.368C1779.3 764.043 1779.32 769.231 1778.98 775.887C1779.09 802.684 1779.01 829.482 1778.73 856.278C1778.85 866.482 1777.56 917.823 1779.61 923.998C1783.17 927.475 1788.25 932.313 1791.47 936.048C1800.37 946.179 1804.68 959.548 1803.35 972.969C1800.64 1000.5 1776.44 1019.69 1748.78 1016.66C1713.2 1012.76 1694.15 971.795 1713.67 942.152C1718.63 934.614 1723.92 930.766 1731.01 925.513C1732.05 883.343 1731.27 838.434 1731.2 796.061C1730.42 753.516 1731.32 708.348 1731.54 665.633C1745.29 664.113 1761.17 666.048 1774.54 664.631Z"/><path fill="#C7754F" d="M1778.73 856.278C1776.48 863.476 1779.94 900.866 1776.97 916.218C1776.43 905.151 1774.88 780.212 1777.16 775.327L1778.98 775.887C1779.09 802.684 1779.01 829.482 1778.73 856.278Z"/><path fill="#C7754F" d="M1776.16 665.118L1778.37 665.753C1779.61 670.773 1779.31 693.532 1779.25 700.008C1779.08 718.738 1779.72 738.728 1779.14 757.368C1778.66 757.697 1779.07 757.494 1777.36 757.851C1772.64 748.371 1777.06 701.547 1776.2 688.951C1775.98 685.818 1775.86 667.31 1776.16 665.118Z"/><path fill="#E2B270" d="M1764.26 520.067C1783.4 530.265 1779.62 555.059 1779.48 573.837C1779.37 592.695 1779.38 611.552 1779.52 630.409C1779.64 641.471 1779.89 652.7 1779.55 663.744L1787.43 663.956C1790.75 661.693 1793.41 661.391 1797.39 660.386C1808.16 659.827 1831.03 657.504 1838.95 663.95C1840.03 666.282 1839.86 666.369 1839.99 668.989L1846.71 672.315C1847.54 676.582 1847.7 676.712 1850.28 680.322L1849.9 681.046C1845.36 692.418 1845.47 766.237 1845.93 782.042L1847.73 783.383C1847.83 786.117 1848.18 784.884 1846.24 787.024C1842.92 787.911 1841.52 788.596 1838.14 788.576C1837.04 787.546 1834.09 784.526 1832.62 784.468C1823.82 784.118 1814.94 784.619 1806.14 784.94C1799.92 784.415 1793.49 782.919 1788.67 786.737C1787.87 789.162 1787.79 789.113 1787.78 791.633C1785.02 789.701 1786.64 790.262 1782.44 790.936C1779.31 794.1 1779.97 796.623 1779.99 801.78L1779.69 887.445C1779.68 893.327 1780.27 920.471 1779.61 923.998C1777.56 917.823 1778.85 866.482 1778.73 856.278C1779.01 829.482 1779.09 802.684 1778.98 775.887C1779.32 769.231 1779.3 764.043 1779.14 757.368C1779.72 738.728 1779.08 718.738 1779.25 700.008C1779.31 693.532 1779.61 670.773 1778.37 665.753L1776.16 665.118L1774.54 664.631C1761.17 666.048 1745.29 664.113 1731.54 665.633C1734.43 659.767 1732.94 644.013 1732.79 636.503C1732.54 617.585 1732.4 598.666 1732.37 579.747C1732.32 564.192 1729.86 539.929 1739.98 527.03C1745.14 520.445 1756.56 520.361 1764.26 520.067Z"/><path fill="#7D4829" d="M1797.39 660.386C1808.16 659.827 1831.03 657.504 1838.95 663.95C1840.03 666.282 1839.86 666.369 1839.99 668.989C1839.85 668.984 1839.71 668.979 1839.56 668.974C1830.13 672.341 1799.32 673.066 1790.27 670.331C1787.37 667.662 1788.28 668.658 1787.43 663.956C1790.75 661.693 1793.41 661.391 1797.39 660.386Z"/><path fill="#E9C397" d="M1779.52 630.409C1778.07 636.863 1779.02 648.819 1777.64 651.219C1775.28 638.443 1775.67 586.873 1777.27 573.681L1779.55 572.866L1777.45 572.52L1778.2 569.703L1779.48 573.837C1779.37 592.695 1779.38 611.552 1779.52 630.409Z"/><path fill="#854C2B" d="M1803 686.189C1809 686.112 1826.78 684.124 1827.06 691.567C1824.71 695.176 1826.27 693.975 1822.25 695.356C1816.3 695.543 1800.12 697.48 1797.87 690.877C1799.44 688.061 1800.26 687.917 1803 686.189Z"/><path fill="#7D4829" d="M1800.5 761.141C1807.99 760.89 1820.85 759.045 1826.08 763.529C1826.71 767.128 1826.73 765.302 1825.37 769.167C1818.19 769.282 1800.71 771.922 1798.67 764.201L1800.5 761.141Z"/><path fill="#854C2B" d="M1803.22 736.132C1809.73 735.932 1823.33 734.58 1827.28 740.436L1826.99 740.418L1826.92 742.541L1823.18 744.202C1817.46 744.353 1800.35 745.9 1797.85 739.926C1799.43 737.355 1800.39 737.346 1803.22 736.132Z"/><path fill="#854C2B" d="M1802.92 711.388C1807.95 711.24 1826.47 709.738 1826.77 716.691C1824.97 718.862 1823.24 718.927 1820.46 719.619C1814.34 719.687 1802.11 720.614 1798.24 715.779C1799.77 712.644 1799.45 713.551 1802.92 711.388Z"/><path fill="#7D4829" d="M1683.91 911.067C1692 903.609 1689.14 889.604 1689.06 878.764L1689.14 838.939C1689.49 767.999 1689.48 697.058 1689.09 626.119L1689.27 566.52C1689.28 555.943 1688.86 544.982 1689.49 534.458C1693.77 462.227 1786.11 440.079 1817.05 511.073C1812.73 511.558 1812.81 511.385 1809.1 513.446C1805.96 519.15 1812.44 524.846 1809.85 531.072C1805.11 513.875 1803.02 506.668 1790 493.207C1771.68 474.268 1735.97 475.431 1718.76 495.266C1698.35 517.341 1700.54 537.359 1701.11 565.643C1700.46 595.074 1700.95 625.926 1700.94 655.458L1700.92 818.336C1700.93 846.675 1701.88 880.584 1700.78 908.446C1697.83 912.277 1695.65 915.348 1692.12 918.699C1692.54 915.045 1692.79 916.757 1691.34 913.37C1688.4 911.132 1687.55 911.34 1683.91 911.067Z"/><path fill="#E2B270" d="M1711.51 664.959C1718.49 664.607 1723.57 664.786 1730.56 665.101L1731.54 665.633C1731.32 708.348 1730.42 753.516 1731.2 796.061C1727.59 792.822 1716.91 793.6 1711.71 793.552C1710.6 774.275 1711.57 751.704 1711.45 732.178C1711.33 710.24 1710.63 686.731 1711.51 664.959Z"/><path fill="#7D4B2A" d="M1834.23 985.335C1836.44 991.873 1833.11 999.922 1839.78 1004.1C1824.22 1048.42 1768.82 1071.18 1724.95 1055.61C1707.3 1049.33 1691.98 1037.82 1681.04 1022.62L1681.67 1020.07C1685.7 1017.09 1686.29 1015.6 1690.72 1015.32C1735.71 1072.34 1814.82 1054.39 1834.23 985.335Z"/><path fill="#854C2B" d="M1797.88 908.434C1808.15 910.328 1817.72 909.253 1827.93 909.844C1832.7 906.545 1850.01 908.388 1847.42 917.175C1843.1 920.97 1840.23 920.321 1834.35 920.492C1847.99 944.807 1853.96 978.61 1839.78 1004.1C1833.11 999.922 1836.44 991.873 1834.23 985.335C1837.1 955.1 1834.79 945.912 1820.8 919.068C1814.4 920.189 1804.79 921.901 1799.89 917.382C1798.59 914.049 1798.52 913.837 1799.39 910.366L1797.88 908.434Z"/><path fill="#734023" d="M1797.88 908.434C1808.15 910.328 1817.72 909.253 1827.93 909.844C1820.62 914.583 1810.38 908.116 1803.7 915.992C1804.7 916.695 1817.8 917.46 1820.55 917.797L1821.01 918.793L1820.8 919.068C1814.4 920.189 1804.79 921.901 1799.89 917.382C1798.59 914.049 1798.52 913.837 1799.39 910.366L1797.88 908.434Z"/><path fill="#854C2B" d="M1683.91 911.067C1687.55 911.34 1688.4 911.132 1691.34 913.37C1692.79 916.757 1692.54 915.045 1692.12 918.699C1678.2 936.776 1673.01 956.377 1675.66 978.995C1676.49 986.118 1681.18 996.993 1681.4 999.756C1684.04 1004.34 1687.75 1011.24 1690.72 1015.32C1686.29 1015.6 1685.7 1017.09 1681.67 1020.07L1681.04 1022.62C1680.19 1021.28 1679.16 1019.27 1678.37 1017.84C1674.64 1012.57 1671.97 1006.22 1669.21 1000.35C1663.26 982.474 1660.45 958.394 1668.04 940.686C1669.12 931.317 1677.61 918.1 1683.91 911.067Z"/><path fill="#734023" d="M1669.21 1000.35C1663.26 982.474 1660.45 958.394 1668.04 940.686C1668.94 950.375 1670.31 962.337 1670.39 971.93C1670.46 981.036 1669.35 990.922 1669.21 1000.35Z"/><path fill="#734023" d="M1678.37 1017.84L1680.47 1016.59C1684.2 1008.24 1682.12 1009.19 1681.52 1001.45L1681.4 999.756C1684.04 1004.34 1687.75 1011.24 1690.72 1015.32C1686.29 1015.6 1685.7 1017.09 1681.67 1020.07L1681.04 1022.62C1680.19 1021.28 1679.16 1019.27 1678.37 1017.84Z"/><path fill="#7D4B2A" d="M1798.07 809.873C1805.11 809.788 1818.42 808.562 1823.53 812.367C1824.6 815.28 1824.49 813.753 1823.3 817.105C1817.98 820.023 1804.43 818.774 1797.21 819.468L1797.39 834.014C1805.08 833.709 1819.15 831.951 1824.96 835.965C1826.21 839.083 1826.1 837.517 1825.18 840.832C1821.19 844.472 1804.81 842.827 1797.61 843.423L1797.68 858.105L1796.65 858.378C1795.97 850.012 1794.97 848.967 1799.39 841.438C1799.34 837.452 1798.47 836.824 1796.18 833.838C1795.6 827.963 1797.62 817.441 1799.39 811.7L1798.07 809.873Z"/><path fill="#E9C397" d="M1730.56 665.101L1730.61 589.303C1730.6 579.978 1730.49 570.704 1730.61 561.29C1730.78 547.017 1729.14 528.889 1744.36 521.35C1751.5 517.815 1756.86 517.903 1764.26 520.067C1756.56 520.361 1745.14 520.445 1739.98 527.03C1729.86 539.929 1732.32 564.192 1732.37 579.747C1732.4 598.666 1732.54 617.585 1732.79 636.503C1732.94 644.013 1734.43 659.767 1731.54 665.633L1730.56 665.101Z"/><path fill="#7D4829" d="M1796.65 858.378L1797.68 858.105C1804.49 862.342 1819.9 853.465 1826.51 862.467C1826.89 865.825 1827.25 864.273 1825.06 867.193C1818.31 870.663 1805.63 869.73 1797.92 869.031L1798 884.659C1796.45 881.236 1796.13 872.492 1797.23 868.905L1800.56 868.228L1800.4 866.49C1797.63 863.336 1797.56 862.507 1796.65 858.378Z"/><path fill="#7D4B2A" d="M1797.98 636.961C1805.68 638.631 1821.22 634.834 1826.23 639.314C1827.67 650.935 1802.59 646.046 1799.02 648.132C1796.89 653.14 1798.11 655.277 1797.39 660.386C1794.97 648.513 1800.59 643.387 1797.98 636.961Z"/><path fill="#F2D6AC" d="M1718.76 495.266C1715.44 507.624 1709.42 512.001 1706.21 528.35C1705.59 527.744 1704.97 527.137 1704.35 526.531C1703.02 536.138 1702.98 560.216 1701.11 565.643C1700.54 537.359 1698.35 517.341 1718.76 495.266Z"/><path fill="#F2D6AC" d="M1790.98 793.916C1793.88 794.597 1795 794.577 1797.53 796.036L1797.16 797.12L1795.2 798.132C1792.43 802.655 1794.78 803.045 1792.83 807.298C1790.44 808.145 1791.7 807.897 1788.31 806.322C1785.7 802.73 1786.2 804.614 1786.05 800.714C1787.92 796.969 1787.97 796.691 1790.98 793.916Z"/><path fill="#854C2B" d="M1584.73 707.922C1588.24 698.228 1582.86 682.672 1592.05 677.254C1609.58 676.768 1639.3 708.933 1654.9 718.333C1659.71 721.234 1665.49 728.458 1667.29 734.008C1666.77 738.734 1663.28 742.72 1659.46 745.423C1640.84 758.608 1623.24 772.673 1605.48 786.893C1601.02 790.464 1592.18 791.599 1588.94 785.994C1585.53 780.392 1587.7 770.48 1588.57 764.253C1578.89 761.156 1548.12 763.84 1534.4 763.598C1522.31 764.176 1507.69 764.546 1504.6 749.771C1502.67 740.533 1504.08 725.757 1505.68 716.454C1508.45 709.038 1509.4 708.35 1516.24 704.216C1532.87 703.785 1568.08 706.112 1584.73 707.922Z"/><path fill="#D3815B" d="M1571.46 715.081C1577.9 715.56 1588.56 716.945 1594.32 714.62C1600.85 706.697 1590.83 690.592 1598.95 686.485C1607.13 691.9 1619.11 701.803 1627.29 708.156C1636.59 715.383 1650.67 725.599 1658.94 733.347C1651.32 741.905 1633.08 753.595 1623.32 761.389C1614.61 768.345 1605.35 776.008 1596.6 782.753C1595.96 774.673 1598.29 764.684 1596.36 757.016C1593.26 744.676 1529.54 759.952 1516.63 751.977C1514.21 748.816 1512.25 744.11 1512.57 740.146C1514.33 718.142 1507.9 713.27 1531.71 713.64C1543.43 714.258 1560.25 715.541 1571.46 715.081Z"/><path fill="#7D4829" d="M1516.24 704.216C1532.87 703.785 1568.08 706.112 1584.73 707.922C1578.44 711.216 1577.18 707.801 1573.3 709.899C1575.8 711.202 1575.66 711.065 1578.51 711.138L1578.14 712.102L1577.12 712.408C1574.68 713.155 1573.26 713.314 1571.46 715.081C1560.25 715.541 1543.43 714.258 1531.71 713.64C1525.25 709.676 1520.43 716.078 1513.57 710.552C1510.9 711.983 1511.13 712.32 1509.24 714.918L1505.68 716.454C1508.45 709.038 1509.4 708.35 1516.24 704.216Z"/><path fill="#7D4829" d="M1534.4 763.598C1544.08 761.097 1580.82 756.315 1588.3 759.633L1588.57 764.253C1578.89 761.156 1548.12 763.84 1534.4 763.598Z"/><path fill="#E2B270" d="M1107.76 446.522C1122.78 446.558 1120.27 464.213 1130.15 469.508C1136.79 473.066 1152.86 469.58 1159.25 475.896C1163.77 489.048 1147.25 492.478 1145.02 502.061C1142.83 511.503 1151.89 524.881 1147.51 535.337C1140.71 540.92 1127.16 531.459 1121.01 527.267C1109.44 527.366 1102.85 543.51 1088.59 538.932C1081.88 532.097 1088.41 515.801 1085.22 508.46C1081.58 500.071 1063.41 496.993 1068.62 483.996C1073.7 478.86 1087.74 476.783 1095.3 475.074C1100.33 465.426 1100.7 455.836 1107.76 446.522Z"/><path fill="#E2B270" d="M820.253 309.841C833.584 310.341 830.101 325.739 839.226 332.798C847.331 339.069 861.001 332.455 868.713 339.177C873.569 350.044 859.864 356.822 856.78 365.716C856.239 370.898 857.924 379.176 858.408 384.051C861.486 415.041 838.143 391.219 827.135 390.783C820.924 395.263 806.644 406.763 799.385 401.44C795.688 394.647 797.818 382.164 797.426 373.125C791.431 366.169 778.938 358.509 777.344 350.816C780.437 340.044 801.214 341.73 805.384 337.346C812.63 329.726 809.959 320.371 820.253 309.841Z"/><path fill="#D3815B" d="M609.814 277.785C626.649 282.071 616.883 291.713 628.077 300.153C634.82 305.237 653.426 299.965 654.825 309.465C651.986 317.901 645.253 323.491 638.962 329.889C640.535 336.526 644.733 346.279 642.628 352.762C639.091 363.659 622.86 352.916 617.782 350.065C606.861 348.881 595.694 363.103 588.866 357.424C585.658 349.896 587.745 339.818 588.725 331.57C583.206 326.063 570.351 317.291 572.99 309.173C578.714 303.881 590.47 303.548 598.914 301.804C602.333 293.092 603.219 284.323 609.814 277.785Z"/><path fill="#A7A858" d="M1006.19 356.439C1019.49 358.82 1013.34 369.166 1023.22 383.078C1040.23 388.209 1052.49 393.16 1027.61 406.174C1012.55 414.057 1026.41 428.332 1015.53 433.612C1008.91 432.646 1004.01 426.575 999.041 421.802C990.552 418.161 977.79 430.639 970.203 421.978C967.872 413.818 973.342 410.93 975.764 403.483C979.635 391.577 961.566 387.258 965.095 376.414C970.264 372.152 981.709 374.724 988.601 373.991C995.79 373.225 1000.94 362.624 1006.19 356.439Z"/><path fill="#E2B270" d="M975.861 168.849C986.042 169.939 989.542 180.174 993.362 188.361C1001.13 189.751 1010.26 188.632 1016.81 192.438C1022.2 202.982 1006.31 206.535 1005.68 215.552C1005.16 222.983 1013.6 235.157 1006.04 240.931C998.492 242.393 992.808 236.577 985.578 234.172C976.775 237.103 969.73 247.029 960.843 242.648C955.156 236.319 960.249 226.1 957.766 219.984C955.449 214.275 944.049 212.371 942.28 203.94C944.494 191.594 959.305 197.465 964.788 191.697C971.583 184.549 966.576 177.85 975.861 168.849Z"/><path fill="#7D4B2A" d="M1831.72 356.397C1866.41 354.712 1863.17 394.453 1854.86 417C1849.16 421.585 1846.92 423.288 1840.06 425.718C1807.54 426.866 1804.07 387.59 1816.09 365.387C1819.53 359.044 1825.03 357.651 1831.72 356.397ZM1839.21 412.976C1852.36 403.338 1854.74 368.104 1832.85 368.217C1821.06 374.334 1821.29 394.537 1826.08 405.344C1828.75 411.365 1833.23 412.321 1839.21 412.976Z"/><path fill="#A7A858" d="M525.173 405.584C533.044 406.1 539.487 413.864 546.547 419.498C552.663 417.431 556.748 415.442 563.017 416.794C569.391 422.151 562.923 429.913 559.534 435.682C562.206 440.802 569.776 453.018 567.999 458.095C563.001 462.091 552.44 460.189 545.106 460.573C541.403 465.158 534.79 474.454 528.847 474.618C526.562 472.71 523.671 461.086 521.252 456.599C517.061 448.825 503.725 447.491 503.673 441.031C507.93 434.778 513.552 432.151 520.048 428.125C520.062 419.514 519.755 412.33 525.173 405.584Z"/><path fill="#E2B270" d="M1168.51 299.577C1180.64 299.046 1177.34 309.734 1179.52 318.067C1182.42 329.163 1195.83 321.78 1197.28 334.482C1194.62 341.819 1186.12 341.037 1180.35 345.075C1172.26 350.731 1180.66 362.04 1171.5 366.77C1165.24 365.865 1163.46 361.912 1159.48 356.7C1152.46 348.996 1135.86 360.458 1131.74 350.426C1132.91 343.273 1136.42 340.653 1141.34 335.398C1138.33 328.786 1132.69 319.413 1133.7 312.303C1137.82 308.672 1146.87 312.818 1154.12 311.11C1163.13 308.991 1163.37 306.988 1168.51 299.577Z"/><path fill="#E2B270" d="M1198.25 619.77C1206.88 622.721 1206.8 632.349 1214.98 635.749C1220.35 637.981 1232.31 633.356 1234.02 641.125C1231.17 648.545 1228.74 650.099 1223.23 655.818C1224.77 661.957 1228.52 674.29 1225.72 679.765C1218.74 682.125 1211.36 675.147 1203.44 675.443C1198.22 680.019 1189.41 688.505 1183.03 682.148C1181.68 676.823 1183.5 673.944 1183.71 668.957C1184.19 657.883 1167.69 658.61 1168.29 646.523C1170.88 641.899 1179.11 641.501 1185.93 638.916C1190.39 631.406 1191.23 624.569 1198.25 619.77Z"/><path fill="#A7A858" d="M1290.41 432.289C1300.27 434.377 1296.47 446.84 1300.9 453.064C1305.47 459.489 1323.5 461.451 1326.51 469.007C1323.73 475.405 1310.55 477.713 1303.42 482.934C1299.05 491.468 1297.25 500.949 1291 507.699C1280.79 503.249 1285.09 481.477 1269.91 478.554C1265.56 477.714 1255.8 472.924 1253.97 468.599C1258.33 460.385 1270.64 462.622 1277.68 454.934C1284.61 447.355 1283.48 440.31 1290.41 432.289Z"/><path fill="#A7A858" d="M728.768 401.989C738.988 405.788 733.143 414.587 741.33 423.98C747.548 431.114 760.01 432.137 764.023 437.257C763.315 444.084 750.067 446.634 744.517 452.673C737.83 459.948 736.517 466.851 731.834 475.747C720.941 475.021 722.376 463.05 717.606 454.964C712.774 446.773 696.588 447.451 695.008 438.58C698.079 433.434 710.685 430.8 716.737 427.167C722.957 416.651 722.674 406.782 728.768 401.989Z"/><path fill="#A7A858" d="M1076.12 592.416C1088.96 594.225 1083.19 608.728 1090.81 616.211C1096.32 621.623 1111.49 622.113 1115.68 628.734C1114.65 632.91 1096.78 637.572 1091.44 641.027C1087.5 647.583 1084.09 656.838 1081.14 664.081C1080.04 664.572 1078.09 665.236 1076.99 665.641C1072.74 663.504 1072.32 655.252 1069.53 649.586C1064.44 639.27 1046.78 636.435 1043.58 628.477C1045.59 622.442 1060 619.875 1066.85 615.081C1070.92 608.475 1072.41 600.264 1076.12 592.416Z"/><path fill="#E2B270" d="M904.308 427.415C914.875 429.845 910.372 442.648 917.636 451.466C923.517 458.605 935.25 457.257 941.447 463.753C942.182 473.013 922.46 471.681 917.943 476.96C911.315 484.707 914.462 492.798 907.588 502.087C896.864 499.733 900.886 487.451 890.194 475.029C884.356 472.903 872.339 471.886 870.502 465.131C873.427 460.401 887.037 456.96 893.229 452.497C898.295 444.563 898.83 435.617 904.308 427.415Z"/><path fill="#854C2B" d="M1937.72 676.349C1934.24 680.869 1930.38 686.796 1924.13 686.704L1923.21 684.515C1923.97 676.932 1929.26 669.101 1934.58 663.858C1942.88 655.675 1947.91 662.032 1952.44 669.018C1957.48 674.556 1965.82 680.451 1959.75 686.985L1957.66 687.102C1952.59 682.346 1952.75 681.377 1945.95 678.915C1944.72 683.151 1946.02 776.618 1946.86 784.347C1950.8 780.959 1955.15 776.306 1960.33 776.342L1961.32 777.842C1960.2 785.442 1947.88 802.218 1939.41 801.596C1934.13 797.339 1923.53 782.917 1921.36 776.07L1923.45 774.251C1930.9 777.761 1932.59 780.154 1938.16 786.198C1938.89 750.314 1936.44 712.151 1937.72 676.349Z"/><path fill="#7D4B2A" d="M1952.44 669.018C1957.48 674.556 1965.82 680.451 1959.75 686.985L1957.66 687.102C1952.59 682.346 1952.75 681.377 1945.95 678.915C1949.53 678.637 1951.47 679.188 1953.64 677.33C1952.28 673.634 1952.3 672.984 1952.44 669.018Z"/><path fill="#E2B270" d="M395.705 432.054C406.204 435.567 398.234 443.687 400.706 450.531C402.778 456.271 413.883 459.894 412.425 467.052C408.315 471.003 402.704 471.073 397.256 471.507C392.732 477.076 391.118 485.744 383.539 486.307C380.156 484.742 379.279 482.275 377.342 478.98C369.254 462.152 342.06 482.748 366.475 451.9C365.288 446.504 362.707 439.899 366.141 435.211C372.397 432.554 378.21 436.031 385.027 438.549C388.643 436.138 391.968 434.212 395.705 432.054Z"/><path fill="#7D4829" d="M1773.76 356.444C1781.27 356.31 1784.75 357.282 1792.08 358.87C1803.6 370.3 1799.73 377.037 1790.69 387.792C1796.42 392.169 1798 393.364 1802.61 399.005C1802.62 404.077 1801.81 408.627 1801.11 413.64C1782.44 437.282 1752.64 422.904 1758.5 408.136C1762.02 405.562 1760.05 406.456 1764.83 405.926L1765.39 406.497L1766.32 407.437C1775.18 416.503 1790.83 417.748 1790.28 403.839C1785 394.766 1771.45 397.336 1768.63 389.59C1772.28 381.989 1783.16 382.688 1786.97 376.908C1788.71 358.282 1765.86 374.373 1759.51 373.44C1755.15 367.963 1760.36 362.753 1764.06 358.834C1767.3 358.059 1770.53 357.263 1773.76 356.444Z"/><path fill="#D3815B" d="M646.848 517.913C639.965 520.717 636.961 526.831 630.246 525.419C626.671 520.292 628.23 513.065 625.743 509.087C623.874 506.098 618.261 506.525 615.286 500.982C616.771 493.666 620.928 496.117 628.729 490.829C632.581 485.248 628.663 479.113 634.508 474.642C639.963 475.869 643.153 482.426 646.527 487.384C653.306 485.909 659.593 483.676 664.105 490.559C663.357 494.835 660.635 497.356 657.082 499.873C658.168 507.856 661.674 515.225 658.366 520.554C653.435 521.718 651.645 520.27 646.848 517.913Z"/><path fill="#C7754F" d="M646.848 517.913C649.317 517.65 649.827 517.745 652.091 516.82C654.597 509.626 648.604 505.006 657.082 499.873C658.168 507.856 661.674 515.225 658.366 520.554C653.435 521.718 651.645 520.27 646.848 517.913Z"/><path fill="#A7A858" d="M1369.6 511.429C1380.39 516.113 1375.35 528.052 1383.1 533.654C1387.85 537.084 1396.14 535.046 1400.16 542.115C1400.08 543.099 1400 544.083 1399.91 545.068C1393.66 549.576 1385.17 550.875 1379.97 556.955C1379.69 557.236 1379.42 557.518 1379.14 557.799C1377.42 564.479 1376.74 569.214 1372.24 574.382C1364.79 570.403 1367.05 563.734 1362.98 556.555C1357.4 546.738 1347.45 552.687 1342.48 543.773C1343.99 536.241 1357.14 535.874 1361.48 531.555C1365.52 527.528 1366.2 517.89 1369.6 511.429Z"/><path fill="#7D4829" d="M1690.03 409.944C1693.55 368.253 1651.8 420.736 1657.85 371.524C1658.5 366.196 1656.54 363.524 1660.73 358.161C1668.23 355.768 1694.53 354.986 1699.56 362.102C1699.19 365.785 1699.72 364.024 1697.35 367.383C1692.05 370.289 1677.74 368.209 1670.52 368.293C1670.4 372.122 1669.83 375.941 1671.58 379.222C1677.97 384.098 1681.07 375.291 1696.46 385.397C1704.25 398.212 1706.64 412.23 1694.29 423.032C1692.43 420.734 1692.17 420.392 1690.77 417.793C1691.79 414.653 1691.17 416.114 1693.95 413.524L1693.86 412.172L1690.03 409.944Z"/><path fill="#7D4B2A" d="M1845.93 782.042C1851.8 777.893 1859.53 773.838 1866.53 776.053C1891.18 783.86 1865.38 804.316 1858.57 810.224C1865.75 810.081 1871.05 808.8 1876.09 813.544L1876.14 815.255C1870.55 821.085 1856.62 819.965 1849.49 817.602C1841.43 808.78 1874.32 798.931 1866.26 785.494C1860.44 782.177 1857.59 785.972 1853.1 789.971C1847.75 789.881 1842.91 788.438 1839.09 790.07C1838.14 791.824 1837.43 794.117 1835.91 794.427C1825.08 796.632 1808.58 795.969 1797.53 796.036C1795 794.577 1793.88 794.597 1790.98 793.916L1788.32 792.501L1787.78 791.633C1787.79 789.113 1787.87 789.162 1788.67 786.737C1793.49 782.919 1799.92 784.415 1806.14 784.94C1814.94 784.619 1823.82 784.118 1832.62 784.468C1834.09 784.526 1837.04 787.546 1838.14 788.576C1841.52 788.596 1842.92 787.911 1846.24 787.024C1848.18 784.884 1847.83 786.117 1847.73 783.383L1845.93 782.042Z"/><path fill="#854C2B" d="M1787.78 791.633C1787.79 789.113 1787.87 789.162 1788.67 786.737C1793.49 782.919 1799.92 784.415 1806.14 784.94C1812.97 789.317 1821.83 782.992 1835.02 788.115C1830.63 793.332 1795.81 785.918 1788.32 792.501L1787.78 791.633Z"/><path fill="#7D4B2A" d="M1912.05 423.565C1893.13 411.35 1890.98 362.76 1918.71 357.609C1927.65 355.947 1934.73 356.51 1942.63 360.938C1946.3 364.376 1947.5 365.068 1949.59 369.469C1949.54 374.017 1950.27 372.194 1948.25 375.491C1941.97 377.769 1934.45 368.859 1927.32 366.463C1908.73 374.137 1906.56 396.231 1918.07 410.343C1914.09 412.487 1912 419.144 1912.05 423.565Z"/><path fill="#7D4829" d="M1942.63 360.938C1946.3 364.376 1947.5 365.068 1949.59 369.469C1949.54 374.017 1950.27 372.194 1948.25 375.491C1941.97 377.769 1934.45 368.859 1927.32 366.463L1928.36 365.702C1933.51 365.095 1935.3 366.352 1940.03 366.158C1942.64 363.452 1941.63 365.031 1942.63 360.938Z"/><path fill="#AC939F" d="M469.009 494.764C476.537 497.151 475.15 503.066 478.707 506.827C482.393 510.724 490.511 517.005 494.91 520.557L494.967 521.875C488.082 525.887 483.195 528.356 477.748 534.181L476.756 535.261C475.646 541.614 476.222 542.59 472.708 548.364C462.76 546.74 465.585 537.185 461.058 530.445C457.516 525.171 449.606 525.728 446.189 520.389C446.844 513.701 459.59 513.526 462.652 508.436C465.776 503.241 464.578 500.295 469.009 494.764Z"/><path fill="#7D4B2A" d="M1892.2 642.135C1918.1 640.537 1917.35 676.799 1900.02 683.288C1878.71 685.681 1879.56 668.453 1879.76 652.75C1883.69 645.951 1884.92 645.117 1892.2 642.135ZM1898.14 676.947C1904.75 669.373 1907.45 656.055 1898.99 648.736C1896.82 648.176 1896.38 648.007 1894.16 647.759C1889.7 652.083 1887.2 658.039 1887.22 664.253C1887.23 671.861 1890.87 675.635 1898.14 676.947Z"/><path fill="#E2B270" d="M865.31 545.458C871.069 547.998 872.37 552.763 875.052 558.433C879.512 558.343 881.665 557.916 885.677 559.548C887.961 561.933 887.384 560.534 887.363 563.922C885.607 567.961 882.549 569.949 879.133 572.884C880.461 577.709 883.291 584.077 877.88 586.803C873.957 586.583 872.532 585.031 869.318 582.722L868.39 582.455C863.661 583.529 857.1 591.799 852.174 585.147C851.161 579.995 852.32 577.112 853.54 571.992C850.306 568.976 845.7 566.076 846.843 561.52C866.201 553.524 854.986 554.671 865.31 545.458Z"/><path fill="#7D4B2A" d="M1635.09 383.037C1639.6 383.806 1638 384.449 1640.81 382.616L1642.39 375.551C1645.73 381.416 1642.65 385.178 1646.99 388.054C1644.34 394.699 1624.55 408.276 1618.2 413.032C1626.59 413.208 1643.13 412.084 1649.55 415.889C1651.79 419.794 1650.18 420.608 1647.34 423.771C1644 424.34 1643.84 424.493 1640.34 424.107C1631.52 425.627 1605.93 427.492 1602.1 417.96C1602.67 412.318 1605.62 410.056 1609.76 406.355C1618.54 399.458 1629.6 392.37 1635.09 383.037Z"/><path fill="#734023" d="M1609.76 406.355C1608.6 412.715 1608.19 416.138 1607.8 422.594C1618.42 422.697 1629.78 423.027 1640.34 424.107C1631.52 425.627 1605.93 427.492 1602.1 417.96C1602.67 412.318 1605.62 410.056 1609.76 406.355Z"/><path fill="#D3815B" d="M1368.8 363.4C1375.59 368.919 1371.73 373.038 1376.94 379.08C1380.53 383.234 1387.66 384.657 1391.3 388.886L1391 390.981C1387.76 394.439 1383.99 395.253 1379.44 396.923C1375.42 402.808 1373.2 412.541 1368.89 414.902C1363.37 409.608 1363.71 404.505 1358.95 396.998C1353.25 395.727 1348.47 395.159 1345.85 389.593L1346.88 386.773C1350.14 383.385 1354.03 382.655 1358.61 381.112C1364.82 373.896 1362.83 369.594 1368.8 363.4Z"/><path fill="#7D4829" d="M1809.85 531.072C1812.44 524.846 1805.96 519.15 1809.1 513.446C1812.81 511.385 1812.73 511.558 1817.05 511.073C1817.46 513.577 1817.97 516.001 1817.98 518.534C1819.84 523.739 1819.68 532.976 1821.1 535.757C1829.18 536.489 1843.88 534.867 1849.3 538.582L1849.98 540.259C1848.27 544.246 1844.78 546.156 1841.03 548.125C1833.31 547.844 1805.21 546.188 1798.91 547.115C1800.89 541.459 1797.23 542.654 1801.74 536.939C1804.92 536.296 1806.59 537.123 1809.34 535.042L1809.85 531.072Z"/><path fill="#854C2B" d="M1809.85 531.072C1812.44 524.846 1805.96 519.15 1809.1 513.446C1812.81 511.385 1812.73 511.558 1817.05 511.073C1817.46 513.577 1817.97 516.001 1817.98 518.534C1817.61 523.932 1818.16 532.84 1816.54 536.435C1811.87 539.471 1807.51 537.536 1801.74 536.939C1804.92 536.296 1806.59 537.123 1809.34 535.042L1809.85 531.072Z"/><path fill="#E2B270" d="M1216.49 410.827C1224.91 409.114 1233.11 414.581 1234.77 423.012C1236.43 431.443 1230.92 439.615 1222.48 441.224C1214.11 442.819 1206.02 437.359 1204.38 429.002C1202.73 420.644 1208.14 412.526 1216.49 410.827Z"/><path fill="#E2B270" d="M855.861 229.308C878.139 230.726 874.774 257.692 855.419 260.95C836.379 256.961 834.371 233.629 855.861 229.308Z"/><path fill="#E2B270" d="M1005.13 508.743C1013.01 505.525 1022 509.302 1025.21 517.178C1028.42 525.053 1024.63 534.041 1016.76 537.246C1008.89 540.448 999.913 536.669 996.704 528.802C993.496 520.935 997.269 511.957 1005.13 508.743Z"/><path fill="#A7A858" d="M1044.87 282.365C1066.81 283.717 1067.83 306.148 1048.06 313.754C1032.01 314.299 1022.41 290.451 1044.87 282.365Z"/><path fill="#A7A858" d="M824.85 474.928C832.983 472.799 841.301 477.669 843.427 485.802C845.553 493.936 840.681 502.252 832.547 504.376C824.416 506.498 816.104 501.629 813.979 493.499C811.854 485.369 816.721 477.055 824.85 474.928Z"/><path fill="#7D4829" d="M1611.59 358.878C1623.76 356.261 1625.42 356.415 1637.6 358.905C1645.11 365.958 1652.61 377.566 1646.99 388.054C1642.65 385.178 1645.73 381.416 1642.39 375.551L1640.81 382.616C1638 384.449 1639.6 383.806 1635.09 383.037C1636.44 368.851 1629.71 367.395 1617.7 369.514C1613.59 372.39 1611.51 382.252 1604.34 380.608C1601.52 376.242 1602.03 371.536 1603.98 366.993C1606.97 362.919 1607.73 362.149 1611.59 358.878Z"/><path fill="#854C2B" d="M1603.98 366.993C1608.7 365.616 1612.85 364.231 1617.73 365.249L1619.32 366.655L1617.7 369.514C1613.59 372.39 1611.51 382.252 1604.34 380.608C1601.52 376.242 1602.03 371.536 1603.98 366.993Z"/><path fill="#A7A858" d="M1226.06 540.819C1233.96 539.32 1241.62 544.366 1243.36 552.214C1245.1 560.062 1240.29 567.873 1232.5 569.854C1227.24 571.191 1221.67 569.56 1217.97 565.599C1214.26 561.638 1213.01 555.974 1214.69 550.818C1216.37 545.662 1220.73 541.83 1226.06 540.819Z"/><path fill="#7D4B2A" fill-opacity="0.98431373" d="M1846.71 672.315C1851.95 675.468 1864.1 676.048 1868.56 670.918C1867.6 664.902 1858.56 665.968 1854.86 661.439C1856.11 657.094 1862.99 656.815 1866.53 652.552L1866.75 650.796C1861.34 644.973 1853.78 652.721 1847.43 650.425C1846.92 647.506 1846.96 649 1848.69 645.659C1852.73 642.755 1855.59 641.087 1860.72 641.478C1888.64 643.608 1869.71 656.102 1870.83 663.421C1874.67 668.208 1876.91 668.077 1877.85 672.514C1876.05 677.504 1872.87 679.206 1868.56 682.159C1861.42 682.961 1855.58 684.816 1849.9 681.046L1850.28 680.322C1847.7 676.712 1847.54 676.582 1846.71 672.315Z"/><path fill="#7D4B2A" d="M1900.99 775.461C1904.96 775.816 1906.24 776.125 1908.13 779.352C1904.59 783.925 1900.5 783.778 1894.7 784.684C1892.17 787.301 1892.91 785.768 1892.54 789.506C1895.41 793.717 1904.65 789.588 1907.44 794.606C1915.82 809.698 1903.17 820.569 1889 818.02C1885.8 815.981 1883.4 814.895 1881.38 811.707L1881.9 809.852C1886.45 808.274 1890.8 813.671 1897.84 811.304C1902.03 807.856 1902.9 804.329 1899.71 800.045C1893.2 797.149 1891.32 797.857 1884.21 799.561C1885.18 779.875 1876.66 775.39 1900.99 775.461Z"/><path fill="#7D4B2A" d="M1876.89 343.099C1898.62 343.536 1901.14 365.957 1882.86 373.977C1865.9 370.6 1858.37 349.702 1876.89 343.099ZM1881.8 366.358C1886.17 362.263 1888.66 358.235 1885.27 352.389C1882.84 350.615 1883.52 350.73 1880.82 349.884C1872.09 355.224 1873.25 364.399 1881.8 366.358Z"/><path fill="#F2D6AC" fill-opacity="0.0078431377" d="M1880.82 349.884C1883.52 350.73 1882.84 350.615 1885.27 352.389C1888.66 358.235 1886.17 362.263 1881.8 366.358C1873.25 364.399 1872.09 355.224 1880.82 349.884Z"/><path fill="#E2B270" d="M942.899 549.891C949.845 547.995 957.003 552.128 958.833 559.09C960.663 566.053 956.463 573.172 949.484 574.936C942.597 576.677 935.593 572.545 933.786 565.675C931.98 558.804 936.047 551.762 942.899 549.891Z"/><path fill="#E2B270" d="M1273.84 322.46L1276.79 323.412C1279.84 326.192 1280.8 329.508 1282.46 333.372L1294.12 337.419C1288.95 342.303 1286.61 343.337 1280.4 346.739C1278.32 352.474 1278.72 354.933 1275.2 360.253C1270.5 356.948 1272.29 355.092 1271.22 350.064C1270.09 344.693 1262.16 343.413 1257.47 340.004L1257.19 338.201C1259.84 335.565 1264.72 334.099 1268.35 332.668L1273.84 322.46Z"/><path fill="#E2B270" d="M1100.44 222.8C1104.79 221.138 1109.69 221.944 1113.27 224.911C1116.86 227.877 1118.56 232.543 1117.74 237.121C1116.92 241.699 1113.69 245.478 1109.3 247.01C1102.65 249.331 1095.36 245.882 1092.95 239.266C1090.53 232.65 1093.87 225.318 1100.44 222.8Z"/><path fill="#E2B270" d="M453.8 324.408C460.8 326.021 458.578 331.361 462.99 335.725C465.366 338.075 470.816 337.75 473.712 340.677L473.362 342.562C460.833 352.22 462.6 342.64 457.561 360.846L454.605 359.725C452.374 357.277 451.881 353.229 451.097 349.837C446.815 347.779 438.895 345.746 439.176 340.739C441.921 338.058 444.438 337.986 448.244 337.173C449.992 332.874 451.844 328.617 453.8 324.408Z"/><path fill="#A7A858" d="M1228.36 209.335C1241.33 211.33 1243.82 232.634 1225.2 234.97C1207.98 231.703 1210.35 210.897 1228.36 209.335Z"/><path fill="#7D4B2A" d="M1744.79 398.595C1735.6 398.802 1718.21 400.582 1711.63 394.69C1708.03 382.1 1742.6 383.489 1750.09 387.781C1751.52 390.984 1751.95 391.143 1751.19 394.589C1748.74 397.489 1749.27 397.376 1744.79 398.595Z"/><path fill="#7D4829" d="M1750.09 387.781C1751.52 390.984 1751.95 391.143 1751.19 394.589C1748.74 397.489 1749.27 397.376 1744.79 398.595L1744.69 394.659C1740.99 391.716 1734.03 391.746 1729.41 391.976C1738.56 388.894 1744.76 392.186 1750.09 387.781Z"/><path fill="#854C2B" d="M1918.07 410.343L1919.22 410.898C1935.7 418.665 1936.06 404.825 1946.85 406.639C1952.06 411.517 1948.25 418.932 1943.44 422.275C1934.01 428.821 1922.35 425.43 1912.05 423.565C1912 419.144 1914.09 412.487 1918.07 410.343Z"/><path fill="#854C2B" d="M1694.29 423.032C1682.64 427.065 1655.08 428.059 1657.16 410.34C1661.77 404.954 1666.24 409.357 1670.41 412.81L1671.56 413.772C1679.17 413.358 1683.25 413.667 1690.03 409.944L1693.86 412.172L1693.95 413.524C1691.17 416.114 1691.79 414.653 1690.77 417.793C1692.17 420.392 1692.43 420.734 1694.29 423.032Z"/><path fill="#A7A858" d="M1102.71 392.104C1120.65 390.639 1121.31 405.819 1109.37 413.799C1094.1 414.848 1089.38 400.949 1102.71 392.104Z"/><path fill="#A7A858" d="M933.082 306.817C950.184 306.405 949.733 321.934 936.5 327.711C922.575 327.675 918.951 313.198 933.082 306.817Z"/><path fill="#A7A858" d="M749.488 268.616C754.667 266.025 760.967 268.054 763.661 273.18C766.354 278.306 764.452 284.646 759.381 287.441C756.009 289.301 751.896 289.192 748.626 287.157C745.357 285.123 743.443 281.48 743.622 277.634C743.801 273.788 746.044 270.338 749.488 268.616Z"/><path fill="#A7A858" d="M995.768 624.625C1001.33 623.075 1007.1 626.299 1008.7 631.847C1010.3 637.395 1007.12 643.194 1001.59 644.837C995.985 646.501 990.101 643.279 988.485 637.665C986.869 632.05 990.14 626.194 995.768 624.625Z"/><path fill="#E2B270" d="M1150.74 582.864C1154.23 581.274 1158.31 581.733 1161.36 584.057C1164.42 586.381 1165.94 590.194 1165.33 593.981C1164.73 597.768 1162.09 600.915 1158.46 602.17C1153.21 603.991 1147.46 601.362 1145.39 596.201C1143.33 591.04 1145.68 585.168 1150.74 582.864Z"/><path fill="#E2B270" d="M775.349 533.979C790.789 538.328 786.427 549.392 775.598 556.106C773.842 556.08 772.581 556.122 770.895 555.418C768.476 554.386 766.602 552.383 765.734 549.899C762.902 541.904 768.433 536.532 775.349 533.979Z"/><path fill="#A7A858" d="M918.241 606.067C931.467 605.45 939.187 611.516 928.482 623.652C914.488 626.38 906.665 614.209 918.241 606.067Z"/><path fill="#7D4B2A" d="M1798 884.659C1804.35 883.577 1826.3 880.45 1827.27 888.924C1819.85 894.896 1808.19 894.032 1798.91 894.163L1800.13 893.197C1800.16 892.307 1798.48 885.733 1798 884.659Z"/><path fill="#7D4B2A" d="M1798.17 587.234C1806.57 586.696 1818.71 584.655 1825.42 589.994L1826.08 592.024C1821.57 598.723 1805.38 597.012 1797.9 596.044L1798.86 595.264C1799.16 592.836 1798.61 589.67 1798.17 587.234Z"/><path fill="#7D4B2A" d="M1797.85 560.017C1805.66 566.275 1823.09 555.524 1826.76 567.115C1824.35 573.842 1804.8 571.284 1798.22 571.064C1799.31 568.891 1798.2 562.62 1797.85 560.017Z"/><path fill="#7D4B2A" d="M1798.17 613.098C1806.82 611.485 1817.52 610.776 1825.37 615.145L1826.6 617.028C1822.78 623.98 1805.39 622.073 1797.98 621.874L1799.27 620.075C1798.92 617.747 1798.55 615.421 1798.17 613.098Z"/></svg>