<svg xmlns="http://www.w3.org/2000/svg" width="744" height="250" viewBox="0 0 744 250" role="img" aria-labelledby="title"><title id="title">Characteristic low-pass filter response shapes</title><style>svg{--ink:#263445;--muted:#586777;--blue:#1672ac;--orange:#b35c00;--green:#267c67;--red:#be2d42} text{font-family:Arial,Helvetica,sans-serif;font-size:18px;fill:var(--ink)} .axis{stroke:var(--ink);stroke-width:1.6;fill:none}.guide{stroke:var(--muted);stroke-width:1.2;stroke-dasharray:5 5;fill:none}.blue{stroke:var(--blue);fill:none;stroke-width:3.4}.orange{stroke:var(--orange);fill:none;stroke-width:3.4;stroke-dasharray:9 5}.muted{fill:var(--muted)}.small{font-size:16px}@media(prefers-color-scheme:dark){svg{--ink:#e6edf3;--muted:#a2b5c9;--blue:#64b4ed;--orange:#f5a851;--green:#70c4ad;--red:#ff8190}}@media print{svg{--ink:#263445;--muted:#586777;--blue:#1672ac;--orange:#b35c00;--green:#267c67;--red:#be2d42}}</style><defs><marker id="arrow" markerWidth="8" markerHeight="8" refX="6" refY="4" orient="auto-start-reverse" markerUnits="userSpaceOnUse"><path d="M1,1 L7,4 L1,7" fill="none" stroke="var(--ink)" stroke-width="1.6"/></marker></defs><text x="143" y="28" text-anchor="middle">Butterworth</text><line x1="52" y1="217" x2="244" y2="217" class="axis" marker-end="url(#arrow)"/><line x1="52" y1="217" x2="52" y2="48" class="axis" marker-end="url(#arrow)"/><line x1="52" y1="63" x2="238" y2="63" class="guide" /><text x="44" y="69" text-anchor="end" class="small">0</text><text x="246" y="242" font-style="italic">f</text><path d="M52,63 C93,63 114,63 128,68 C164,80 182,132 236,191" class="blue"/><text x="385" y="28" text-anchor="middle">Chebyshev</text><line x1="294" y1="217" x2="486" y2="217" class="axis" marker-end="url(#arrow)"/><line x1="294" y1="217" x2="294" y2="48" class="axis" marker-end="url(#arrow)"/><line x1="294" y1="63" x2="480" y2="63" class="guide" /><text x="286" y="69" text-anchor="end" class="small">0</text><text x="488" y="242" font-style="italic">f</text><path d="M294,74 C304,74 308,63 318,63 S331,74 341,74 S354,63 364,63 S379,76 388,94 C404,134 426,168 478,203" class="blue"/><text x="627" y="28" text-anchor="middle">Elliptic</text><line x1="536" y1="217" x2="728" y2="217" class="axis" marker-end="url(#arrow)"/><line x1="536" y1="217" x2="536" y2="48" class="axis" marker-end="url(#arrow)"/><line x1="536" y1="63" x2="722" y2="63" class="guide" /><text x="528" y="69" text-anchor="end" class="small">0</text><text x="730" y="242" font-style="italic">f</text><path d="M536,74 C546,74 550,63 560,63 S573,74 583,74 S596,63 605,63 C619,63 624,118 644,205 C651,184 657,157 666,157 C679,157 682,185 690,205 C699,180 707,167 720,168" class="blue"/><text x="17" y="176" transform="rotate(-90 17 176)" text-anchor="middle" class="small">Gain (dB)</text></svg>