<svg xmlns="http://www.w3.org/2000/svg" width="720" height="165" viewBox="0 0 720 165" role="img" aria-labelledby="title"><title id="title">Ordinary and folded dipole connections</title><style>svg{--ink:#263445;--muted:#586777;--wire:#1672ac;--feed:#b35c00}text{font:26px Arial,Helvetica,sans-serif;fill:var(--ink)}.wire{fill:none;stroke:var(--wire);stroke-width:3.5;stroke-linecap:round;stroke-linejoin:round}.feed{fill:none;stroke:var(--feed);stroke-width:2.5}.dimension{fill:none;stroke:var(--muted);stroke-width:1.5}.port{fill:none;stroke:var(--feed);stroke-width:2.5}@media(prefers-color-scheme:dark){svg{--ink:#e6edf3;--muted:#a2b5c9;--wire:#64b4ed;--feed:#f5a851}}@media print{svg{--ink:#263445;--muted:#586777;--wire:#1672ac;--feed:#b35c00}}</style><path d="M35 37V20M35 28H325M325 20V37" class="dimension"/><text x="180.0" y="22" text-anchor="middle">λ/2</text><path d="M395 37V20M395 28H685M685 20V37" class="dimension"/><text x="540.0" y="22" text-anchor="middle">λ/2</text><path d="M35 85H168M192 85H325" class="wire"/><path d="M528 85H413Q395 85 395 67.5Q395 50 413 50H667Q685 50 685 67.5Q685 85 667 85H552" class="wire"/><path d="M168 85V141" class="feed"/><circle cx="168" cy="146" r="5" class="port"/><path d="M192 85V141" class="feed"/><circle cx="192" cy="146" r="5" class="port"/><path d="M528 85V141" class="feed"/><circle cx="528" cy="146" r="5" class="port"/><path d="M552 85V141" class="feed"/><circle cx="552" cy="146" r="5" class="port"/></svg>
