<?xml version="1.0" encoding="UTF-8"?>
<svg id="Layer_1" xmlns="http://www.w3.org/2000/svg" width="80" height="115" version="1.1" viewBox="0 0 80 115">
  <!-- Generator: Adobe Illustrator 29.4.0, SVG Export Plug-In . SVG Version: 2.1.0 Build 152)  -->
  <defs>
    <style>
      .st0 {
        fill: #d60000;
      }

      .st1 {
        fill: #414042;
      }

      .st2 {
        fill: #fff;
      }

      .st3 {
        fill: #f8bd8a;
      }

      .st4 {
        fill: #d5bc2a;
      }

      .st5 {
        fill: #99591a;
      }

      .st6 {
        fill: #7b756a;
      }

      .st7 {
        fill: #d79f4d;
      }

      .st8 {
        fill: #6a959a;
      }

      .st9 {
        fill: #c9601f;
      }
    </style>
  </defs>
  <polygon class="st2" points="48.493 62.614 21.679 67.785 33.171 75.156 60.692 71.681 48.493 62.614"/>
  <polygon class="st2" points="30.465 33.288 46.439 34.142 38.534 38.792 30.465 33.288"/>
  <rect class="st2" x="28.579" y="30.171" width="17.598" height="10.233"/>
  <path class="st1" d="M33.268,1.53c.866-.056,1.788-.022,2.654.011,3.733.157,9.929,1.417,12.527,4.296.585.641.596,1.406.562,2.215,1.113.9,1.81,2.013,2.047,3.441.315,1.867-.112,3.891-.382,5.746-.337,2.305-.753,4.622-.99,6.938-.36,3.475-.169,6.949-.978,10.368-.484,2.069-1.282,4.127-2.541,5.859,3.452,1.462,6.601,7.388,8.411,10.559.529.933,1.214,1.855,1.653,2.834.439.99-.169.877-.382,1.428.124.304.349.529.529.798,1.102,1.608,1.394,3.52,1.046,5.409.843.54,2.294,1.147,3.261,1.631,3.508,1.732,6.994,3.486,10.469,5.274l2.845,1.451c.551.281,1.147.551,1.664.888.315.202.495.405.697.72.067.967.124,3.632-.337,4.464-.416.753-1.372,1.001-2.137,1.237,0,1.035.045,3.666-.191,4.554-.146.529-.529.731-.978.978.157,1.439.191,2.901.292,4.341l.607,8.625c.169,2.463.349,4.925.551,7.377.101,1.327.259,2.665.292,3.992,0,.292-.022.585-.202.832-.259.36-.731.54-1.158.607-.54.079-1.226.011-1.664-.337-.27-.214-.337-.45-.394-.787-.146-.765-.169-1.563-.225-2.339-.101-1.237-.202-2.474-.315-3.711l-1.068-13.415c-.124-1.473-.214-2.957-.371-4.43-2.62.236-5.229.495-7.849.787-1.372.157-2.789.405-4.161.427-.349,2.879-.765,5.735-1.147,8.614-.146,1.08-.27,3.171-.607,4.116-.214.191-.382.337-.675.382h-.045v.079c.326.349.63.742,1.001,1.046.663.562,2.002,1.023,2.834,1.529,1.451.888,2.721,2.092,3.115,3.801.18.776.191,1.552-.27,2.249-.731,1.091-2.474,1.631-3.688,1.878-3.452.697-6.668-.405-9.524-2.305-.765.079-1.518-.146-2.215-.461-.911-.416-2.08-1.192-2.418-2.182-.63-1.844.337-4.79,1.158-6.455-.112-.09-.236-.191-.326-.315-.169-.225-.135-.596-.124-.866.045-1.372.281-2.777.427-4.138.191-1.912.326-3.857.585-5.757-1.507.135-3.014.292-4.509.472l-1.035,8.411-.349,2.721c-.045.405-.045.821-.135,1.214-.101.405-.292.753-.472,1.124h.045l-.079.067c.405,1.518,2.867,3.047,3.969,4.183.652.675,1.158,1.406,1.529,2.26.281.72.439,1.597.349,2.361-.079.652-.394,1.181-.911,1.586-1.765,1.383-4.959,1.541-7.118,1.282-2.35-.281-4.869-1.428-6.365-3.317-.146-.034-.292-.067-.45-.112-.933-.259-1.867-.911-2.328-1.765-1.001-1.844.259-5.364.821-7.275-.202-.202-.349-.382-.495-.63-.045-1.687.157-3.385.259-5.071.124-1.934.191-3.868.349-5.791-.956.101-1.912.191-2.856.281-.101,1.844-.315,3.688-.472,5.532l-.888,10.165-.472,5.566c-.079,1.035-.09,2.159-.292,3.182-.079.405-.259.742-.618.967-.484.304-1.158.337-1.687.191-.562-.157-.933-.45-1.226-.945-.101-1.192.079-2.496.146-3.7l.461-7.377.551-9.266c.056-1.012.124-2.035.191-3.047.045-.63.045-1.282.18-1.9-.866-.686-1.912-1.259-2.822-1.878l-4.813-3.306c-1.091-.753-2.215-1.496-3.261-2.316-.079,1.451-.36,3.205-.54,4.667l-.832,7.062-.888,7.444c-.135,1.091-.191,2.283-.394,3.351-.067.326-.191.652-.45.877-.349.304-.99.405-1.428.371-.427-.034-.888-.202-1.169-.54-.259-.315-.247-.765-.225-1.147.034-.72.169-1.462.247-2.182l.529-5.308c.54-5.645,1.046-11.301,1.687-16.923-.225-.191-.484-.36-.686-.573-.191-.191-.281-.439-.337-.697-.191-.922-.022-3.283-.011-4.374-.517-.281-1.091-.585-1.552-.945-.427-.326-.551-.585-.618-1.113-.101-.832-.146-3.508.371-4.093.472-.517,2.047-.495,2.744-.54.056-1.631.056-3.261.09-4.903-.798-.18-1.529-.405-2.137-.967-.787-.72-.967-1.597-1.001-2.598-.09-2.137-.022-4.296-.022-6.421,0-1.338-.157-3.216.09-4.487.079-.382.281-.708.551-.99.472-.506,1.102-.866,1.743-1.08,1.136-.382,2.44-.427,3.632-.551,1.439-.146,2.879-.304,4.318-.371,1.226-1.012,2.384-1.957,3.79-2.71.742-.405,3.531-1.619,3.891-1.934.439-.382.765-1.035,1.124-1.518.337-.461.708-.877,1.102-1.293-.292-1.158-.596-2.35-.663-3.542-1.338.18-2.699,0-3.879-.675-1.586-.9-2.699-2.508-3.16-4.262-.337-1.293-.349-2.643.349-3.823.529-.9,1.349-1.372,2.339-1.631-.663-2.294-.81-6.769-.382-9.176.315-1.777,1.012-3.711,2.564-4.768.472-.326,1.023-.517,1.496-.843.011,0,.034-.022.045-.034.202-.439.439-.821.753-1.181,2.294-2.654,6.623-3.475,9.974-3.722l-.112-.011ZM43.062,34.635c-.54-.079-1.091,0-1.631.022-.798.034-1.619.056-2.418,0-1.169-.112-2.328-.304-3.475-.585-.618-.146-1.248-.382-1.878-.484.708,1.394,2.283,2.474,3.733,2.946,1.259.405,2.676.394,3.868-.225.27-.135.517-.315.753-.495.405-.337.731-.753,1.035-1.181h.011ZM40.566,65.446c.607,1.608,1.496,4.228,1.372,5.915.135.157.292.315.337.517-.045.202-.135.349-.315.45-.112.056-.236.079-.349.034-.124-.056-.225-.146-.259-.281-.124-.461.27-.405-.281-.81-1.023-.765-1.642-1.259-2.496-2.226-.472.315-.888.394-1.439.427-1.113.81-.911.933-2.418.945-.45.292-.866.405-1.406.281-.81-.169-1.529-.731-2.181-1.203-1.406.09-2.508.09-3.823-.495-.371-.169-.742-.484-1.124-.585-.517-.135-2.35-.191-3.025-.225,1.035.506,2.002,1.192,2.957,1.822l4.757,3.194c.618.416,1.698,1.282,2.361,1.484.416.135,1.046-.022,1.473-.101l15.709-1.923c3.16-.394,6.308-.843,9.468-1.169-.933-.596-1.9-1.102-2.867-1.642l-3.643-2.058c-.832.618-1.518,1.192-2.541,1.428-.349-.09-.663-.214-.99-.382-.439.225-.866.45-1.349.596-.337-.124-.675-.259-1.012-.405-.484.326-.99.652-1.597.54-.495-.09-.776-.416-1.046-.81-.495.067-.99.112-1.417-.214-.247-.191-.349-.461-.371-.765-.034-.54.045-1.068.191-1.586.056-.191.326-.832.27-.978-.978.045-1.99.124-2.957.247l.011-.022ZM47.324,60.206c-.416-.326-.922-.641-1.462-.708-.146.506-.484,1.631-.304,2.125.067.045.079.079.169.067.292-.034.54-.326.731-.529.315-.304.585-.63.866-.956Z"/>
  <path class="st3" d="M28.489,8.952c2.946-.191,5.769,1.158,8.692.54.382.191.765.382,1.158.551.956.394,1.799.405,2.755,0,1.293.405,2.305.27,3.542-.202.787.236,1.619.09,2.418,0,1.158.708,1.698,1.968,2.047,3.227.36,1.304.506,2.643.495,3.992-.011,2.361-.551,4.712-.765,7.062-.214,2.373-.124,4.802-.529,7.152-.169.945-.427,1.844-.9,2.676-.124-.27-.236-.54-.349-.81-.618-1.428-1.529-2.092-2.957-2.654.011-2.103-1.091-3.969-1.945-5.836-.101-.225-.236-.573-.427-.742-.135-.112-.259-.157-.439-.157-.079.056-.135.067-.169.157-.067.157-.056.36,0,.517.112.382.337.765.506,1.136.461,1.012.978,2.035,1.338,3.092.18.54.394,1.361.101,1.889-.169.304-.506.484-.832.585-1.698.529-3.227-.191-4.7-.978-.798.247-1.394.101-2.193.034-.855-.067-1.743,0-2.553.315-1.597.596-2.35,1.754-3.036,3.227-.124-.045-.259-.101-.382-.157-1.518-.708-2.789-2.013-3.351-3.587-.585-1.619-1.507-7.309-.978-8.816.439-1.259,1.237-1.855,1.439-3.407.112-.832,0-1.675-.067-2.508-.112-1.349.011-2.766.585-4.003.202-.461.472-.877.686-1.327-.247-.236-.506-.472-.765-.708.529-.112,1.035-.202,1.574-.247v-.011Z"/>
  <path class="st9" d="M35.124,19.072c.641-.045,1.316,0,1.923.225.281.101.54.225.663.506,0,.112,0,.18-.056.281-.067.112-.214.281-.337.315-.36.101-1.214-.09-1.631-.09-.821,0-1.586.18-2.361.439-.641.214-1.248.618-1.923.742-.157-.045-.157-.056-.259-.18-.034-.259.079-.495.236-.697.753-.967,2.564-1.439,3.733-1.552l.011.011Z"/>
  <path class="st9" d="M44.805,19.353c.315,0,.652.022.956.079.798.135,1.9.495,2.373,1.192.146.214.202.405.157.663-.056.079-.09.135-.18.157-.27.079-.517-.112-.731-.247-1.147-.663-1.9-.529-3.137-.663-.281-.034-.506-.045-.686-.27-.045-.18-.056-.36.067-.529.236-.326.832-.349,1.192-.394l-.011.011Z"/>
  <path class="st1" d="M34.561,23.784c.315-.022.63-.022.933.067.45.135.821.495,1.035.911.157.292.259.63.135.956-.067.169-.157.225-.315.292-.472-.09-.551-.922-1.181-1.203-.022,0-.034-.011-.056-.022h-.686c-.517.281-.663.81-1.124,1.102-.124.079-.191.09-.326.056-.045-.056-.09-.112-.112-.191-.079-.304-.034-.641.112-.9.326-.573.956-.9,1.574-1.08l.011.011Z"/>
  <path class="st1" d="M44.952,24.008c.079,0,.169-.011.247-.011.562-.011.978.09,1.383.495.27.259.54.63.517,1.023,0,.169-.101.371-.236.472-.304.214-.798-.72-1.012-.888-.101-.079-.236-.112-.36-.146-.022,0-.045-.011-.067-.022-.866.191-1.226,1.147-1.81,1.237-.101.011-.101,0-.169-.067-.101-.27.022-.787.146-1.035.247-.529.832-.866,1.361-1.057Z"/>
  <path class="st9" d="M33.662,2.43c.45-.022.888-.034,1.338-.022,3.677.022,7.984.911,11.155,2.8.573.337,1.169.72,1.631,1.214.439.472.247,1.136.259,1.709,0,.439.63.708.911.978,1.383,1.361,1.439,3.171,1.428,4.981-.405-1.091-.484-1.923-1.08-3.002-.506-.922-1.136-1.979-2.204-2.283-.675.169-1.293.304-2.002.292.157-.652.169-1.428-.067-2.069-.079-.225-.281-.551-.529-.63-.18-.056-.337-.034-.484.067-.067.394.529,1.181.326,2.103-.056.259-.191.495-.416.641-.596.36-1.664.18-2.305,0-.124-1.001-.146-1.822-.742-2.676-.315-.439-.81-.933-1.383-.978-.157-.011-.225.011-.349.101,0,.371.663.821.9,1.124.45.562.798,1.518.663,2.238-.022.146-.124.27-.247.337-.236.124-.529.124-.787.101-1.855-.191-3.418-2.283-4.296-2.418-.146-.022-.225.022-.337.101-.045.09-.067.124-.056.225.056.461.99,1.102,1.338,1.406-.978.067-1.968-.112-2.924-.247-1.192-.18-2.373-.371-3.576-.461-1.259-.101-3.149-.034-4.138.855-.146.135-.225.247-.236.45.146.349.81.54,1.136.72-1.158,1.957-1.169,3.43-1.001,5.645.056.708.112,1.417-.022,2.125-.225,1.158-.967,2.092-1.372,3.182-.562,1.552.54,8.108,1.282,9.693.877,1.867,2.35,3.227,4.318,3.902.225.079.405.124.63.011.146-.146.169-.371.214-.573.079-.416.247-.843.461-1.203.753-1.293,2.215-1.867,3.655-1.844.99.011,1.698.191,2.688-.056.573.551,1.372.81,2.137.99.911.225,2.08.337,2.98-.022.259-.101.495-.292.742-.427.281-.157.551-.202.855-.101,1.08.36,1.945,1.316,2.249,2.406.101.36.146.855.337,1.158.09.135.146.157.304.191.427-.112.686-.506.967-.821-.798,3.081-2.755,6.747-5.431,8.58-1.653,1.136-3.643,1.529-5.622,1.147-2.62-.506-5.049-1.912-7.152-3.508-1.619-1.226-3.733-3.025-4.734-4.802-.281-.495-.427-1.102-.54-1.653-.753-3.497.371-7.815-1.732-10.919-.843-1.248-1.653-1.687-3.104-1.968-.135-.652-.202-1.338-.281-2.002-.371-2.811-.596-5.757.315-8.501.427-1.282,1.203-2.361,2.406-3.002.337-.18.708-.304,1.057-.472.326-.439.439-.956.81-1.383,2.249-2.519,6.488-3.261,9.704-3.43h-.045ZM42.017,35.816c.405-.337.731-.753,1.035-1.181-.54-.079-1.091,0-1.631.022-.798.034-1.619.056-2.418,0-1.169-.112-2.328-.304-3.475-.585-.618-.146-1.248-.382-1.878-.484.708,1.394,2.283,2.474,3.733,2.946,1.259.405,2.676.394,3.868-.225.27-.135.517-.315.753-.495h.011Z"/>
  <path class="st1" d="M32.897,32.543c1.192.146,2.373.607,3.553.843,2.271.461,4.385.529,6.702.371.382-.022.765-.101,1.147-.135.202-.011.427.022.562.18.09.112.09.169.067.292-.214.292-.461.382-.798.472-.45.495-.798,1.08-1.248,1.574-.124.146-.281.292-.439.416-1.057.866-2.485,1.226-3.846,1.091-1.552-.157-3.306-.922-4.43-2.002-.45-.427-.81-.933-1.203-1.406-.101.067-.202.112-.315.157-.135-.045-.191-.067-.27-.214-.157-.326-.022-1.08.135-1.394.079-.169.202-.202.36-.27l.022.022ZM42.017,35.816c.405-.337.731-.753,1.035-1.181-.54-.079-1.091,0-1.631.022-.798.034-1.619.056-2.418,0-1.169-.112-2.328-.304-3.475-.585-.618-.146-1.248-.382-1.878-.484.708,1.394,2.283,2.474,3.733,2.946,1.259.405,2.676.394,3.868-.225.27-.135.517-.315.753-.495h.011Z"/>
  <path class="st6" d="M24.092,36.074c.067.079.056.045.09.124.439.967,1.181,1.664,1.81,2.496.99,1.327,1.709,2.654,2.89,3.868,1.001,1.035,2.17,1.765,3.239,2.699.877.765,2.328,2.676,2.856,3.7-.506,1.316-.585,2.643-.686,4.037-.045.618-.067,1.226-.214,1.833-.585-1.012-1.046-2.08-1.608-3.104-.214-.382-.495-.731-.945-.843-.54-.135-1.091.124-1.541.394-.506.304-.686.652-.821,1.203.225.922.776,1.72,1.237,2.53.922,1.619,2.339,3.801,3.036,5.499-.81.169-1.608.326-2.395.596-.776.27-1.507.618-2.283.866-1.338-.349-2.631-.708-3.913-1.214-1.304-.517-2.575-1.158-3.902-1.631.54-2.924,1.237-6.556.573-9.491-.022-.079-.034-.146-.056-.225s-.045-.146-.056-.225-.045-.146-.067-.214-.045-.146-.067-.214-.045-.146-.079-.214c-.022-.067-.056-.146-.079-.214-.034-.067-.056-.146-.09-.214s-.056-.135-.09-.214c-.034-.067-.067-.135-.101-.202-.034-.067-.067-.135-.101-.202-.034-.067-.067-.135-.112-.202-.034-.067-.079-.135-.112-.202-.034-.067-.079-.135-.112-.191-.045-.067-.079-.135-.124-.191-.045-.067-.079-.124-.124-.191s-.09-.124-.135-.191c-.045-.067-.09-.124-.135-.18s-.09-.124-.135-.18c-.045-.056-.101-.124-.146-.18s-.101-.112-.146-.169-.101-.112-.157-.169-.101-.112-.157-.169-.101-.112-.157-.157c-.056-.056-.112-.101-.169-.157s-.112-.101-.169-.157-.112-.101-.169-.146-.112-.101-.18-.146c-.056-.045-.124-.09-.18-.146-.056-.045-.124-.09-.18-.135-.056-.045-.124-.09-.191-.135-.067-.045-.124-.09-.191-.124-.067-.045-.124-.079-.191-.124-.371-.236-.922-.641-1.383-.495-.09.022-.056.022-.101.112.146.585,1.833,1.608,2.361,2.08.281.247.54.573.787.866,1.698,2.069,2.08,4.757,1.81,7.343v.067c-.135,1.417-.36,2.811-.484,4.217-.034-.045-.067-.09-.101-.135-1.192-1.541-2.856-2.238-4.757-2.474-2.103-.259-4.487.101-6.196,1.439.394-2.564,1.462-6.106,2.429-8.535.855-2.125,2.013-4.385,3.79-5.881.708-.596,1.529-1.08,2.316-1.552,1.226-.731,2.541-1.406,3.857-1.979.09.382.191.753.304,1.136.63,2.069,2.721,7.489,4.138,8.985.157.169.326.27.529.371.933-.315,1.754-.866,2.553-1.428.382-.27.765-.573,1.203-.753.394.292,1.754,1.406,2.181,1.383.157,0,.191-.056.281-.169,0-.056,0-.09-.011-.157-.157-.529-1.484-1.484-1.957-1.765.124-.112.247-.236.371-.349.18-.18.506-.484.461-.765-.022-.146-.079-.169-.191-.247-.214-.011-.326.045-.495.157-.495.326-.933.765-1.394,1.136-.922.765-1.855,1.462-2.901,2.058-1.529-2.069-3.745-7.467-4.194-10.03.371-.877.888-1.765,1.563-2.451l-.034.034Z"/>
  <path class="st8" d="M6.528,72.26c1.192.686,2.35,1.496,3.508,2.249l7.68,5.038c1.675,1.102,3.306,2.271,5.116,3.126.034.652-.112,2.8.045,3.25.067.202.169.304.349.416.079,0,.112.011.18-.045.371-.36.27-2.924.281-3.508,2.26-.214,4.52-.461,6.781-.742l6.859-.776,35.781-4.048-.056.686c-.034,1.136.034,2.339-.124,3.463-.09.112-.169.214-.27.315-.382.36-.753.461-1.248.529-1.113.169-2.238.259-3.362.371l-5.814.607-20.229,2.035-12.043,1.259c-1.327.146-2.665.281-4.003.416-.787.079-1.597.191-2.384.157-.697-.034-1.563-.427-2.159-.765-1.304-.753-2.519-1.664-3.756-2.508l-5.769-3.936-3.508-2.373c-.607-.405-1.372-.821-1.867-1.361-.067-1.259-.124-2.586-.011-3.846l.022-.011Z"/>
  <path class="st4" d="M57.22,62.252c.877.371,1.732.855,2.586,1.271l7.399,3.7c1.878.933,3.745,1.889,5.611,2.867.753.394,1.698.787,2.35,1.327-.202.09-.394.169-.607.214-.697.157-1.428.202-2.137.281l-3.722.416c-3.767.439-7.534.855-11.301,1.259l-22.647,2.53c-1.822.202-10.581,1.271-11.773.99-.945-.214-4.52-2.665-5.6-3.351l-5.128-3.239c-1.282-.765-2.53-1.597-3.812-2.373-1.046-.641-2.294-1.259-3.216-2.069.731-.169,1.529-.214,2.271-.292l3.902-.427c.405.202.787.495,1.192.731.967.551,2.035.945,3.115,1.203,1.091.27,2.204.439,3.317.573.776.09,2.193.034,2.856.326.675.304,1.327.877,1.945,1.282,2.271,1.462,4.498,2.969,6.747,4.464.798.529,1.619,1.237,2.485,1.642,2.069-.18,4.138-.506,6.207-.753,3.992-.461,7.984-.945,11.976-1.451l7.095-.866c.922-.124,1.945-.124,2.822-.484.214-.09.326-.157.416-.371-.236-.495-6.567-3.834-7.613-4.498,1.316-1.518,2.485-3.036,3.283-4.903h-.022Z"/>
  <path class="st4" d="M4.403,66.75c.663.439,1.372.81,2.058,1.214,1.169.697,2.339,1.417,3.497,2.125l7.523,4.757c1.181.753,3.733,2.553,4.914,2.912.798.247,1.732.225,2.564.18,2.508-.112,5.038-.45,7.534-.72,3.216-.337,6.432-.686,9.637-1.046l26.403-2.957c1.529-.169,3.07-.315,4.599-.506.742-.101,1.529-.326,2.26-.349.157.259.09.787.067,1.08-.022.484-.022,1.653-.236,2.047-.056.101-.157.191-.247.259-.394.247-.765.394-1.226.472-2.294.382-4.644.573-6.961.843l-13.258,1.473-23.547,2.654c-2.148.236-4.296.506-6.455.72-.472.045-1.023-.36-1.417-.585-1.349-.787-2.643-1.687-3.947-2.541l-7.095-4.644-4.194-2.699c-.81-.517-1.675-.99-2.429-1.586-.034-1.035-.045-2.069-.056-3.104h.011Z"/>
  <path class="st1" d="M23.305,78.838c.045.011.079.022.124.045.169.09.225.259.27.427.135.607,0,1.338-.337,1.855-.079-.022-.101-.011-.169-.056-.135-.101-.191-.281-.214-.439-.112-.585,0-1.327.326-1.822v-.011Z"/>
  <path class="st6" d="M45.604,41.123c.056.011.112.034.157.056,3.07,1.147,5.769,6.23,7.388,8.985.731,1.237,1.563,2.463,2.148,3.767-.675-.101-1.349-.169-2.035-.135-1.979.09-4.149,1.181-5.532,2.564-.596.596-1.102,1.316-1.675,1.934.236-1.282.427-2.564.585-3.846.157-1.293.259-2.586.326-3.879.034-.652.124-1.372.056-2.013-.022-.191-.067-.394-.225-.517-.101,0-.124-.022-.214.045-.382.259-.405,2.451-.45,2.98-.191,2.294-.472,4.577-.832,6.848-.202,1.259-.472,2.496-.652,3.767-1.451.202-2.946.236-4.408.394-.742.079-1.518.157-2.26.124-.506-.877-.922-1.844-1.372-2.755.281-.157.742-.36.922-.652.09-.146.045-.36-.011-.506-.112-.292-.292-.54-.573-.675-.427-.022-.765.191-1.136.394-.371-.618-.686-1.282-1.023-1.912.146-.596.259-1.192.315-1.81.135-1.552-.034-3.43.652-4.858.247-.517.911-.956,1.304-1.361.776-.798,1.462-1.9,1.833-2.957,1.484-.225,2.406-.506,3.733-1.203.146,1.068.247,2.103.259,3.182-.484-.349-1.012-.686-1.428-1.124-.157-.169-.292-.405-.529-.439-.551.214-.866,1.012-1.271,1.451-.585.641-1.518,1.113-1.979,1.844-.101.157-.09.247-.056.416.112.056.135.067.259.045.877-.191,2.496-1.709,2.991-2.474l.045-.079c.506.337,1.777,1.496,2.35,1.473.135,0,.225-.067.304-.169.472-.585,0-3.767-.135-4.565.686-.798,1.552-1.451,2.182-2.305l-.011-.034Z"/>
  <path class="st1" d="M36.765,51.154c.112.011.225.022.326.067.202.079.382.259.472.45.011.022.022.045.034.079,0,.022.011.056.022.079,0,.022,0,.056.011.079v.236c0,.022,0,.056-.022.079,0,.022-.011.056-.022.079-.112.27-.281.382-.54.495h-.067c-.259-.045-.495-.157-.641-.394-.011-.022-.022-.045-.045-.067-.011-.022-.022-.045-.034-.079s-.022-.056-.022-.079-.011-.056-.022-.079v-.236c0-.022,0-.056.011-.079.079-.315.27-.461.54-.618v-.011Z"/>
  <path class="st3" d="M13.027,56.292c1.642-.191,3.801.022,5.218.922.596.382.843.776.99,1.451-.72-.202-1.496-.472-2.249-.427-.236.011-.394.056-.551.236-.034.112-.056.18-.022.292.022.101.079.146.169.191.281.135.72.045,1.035.101.675.112,1.361.315,2.013.529,2.474.798,6.781,3.182,9.165,3.194.686,0,1.484-.506,2.114-.753.461-.169.922-.304,1.406-.416,1.563-.326,3.295-.034,4.633.866,1.518,1.023,2.845,2.541,3.205,4.363-.236.202-.495.349-.753.506-.866-.708-2.901-3.801-3.947-3.767-.157,0-.18.056-.259.169-.011.214.011.326.157.484.337.394.821.686,1.192,1.057.798.776,1.428,1.709,2.024,2.643-.056.056-.124.112-.18.169-.225.202-.517.427-.832.394-.27-.022-.405-.214-.562-.405-.686-.911-1.844-2.305-2.856-2.834-.157-.079-.281-.124-.45-.067-.112.112-.124.191-.157.337.011.056.022.112.045.157.135.292,1.001.888,1.282,1.147.394.382.843.81,1.158,1.259.18.259.394.607.337.933-.169.27-.54.349-.821.439-.506-.439-.877-1.012-1.394-1.451-.439-.371-1.304-1.057-1.9-1.001q-.101.079-.135.214c.169.495,1.642,1.484,2.092,1.957.146.157.259.281.247.495-.157.169-.371.225-.573.304-.945-.259-1.743-.81-2.564-1.327-.573,0-1.136.079-1.709.067-.99-.011-1.687-.382-2.541-.832-.27-.146-.529-.292-.832-.349-.753-.124-2.148-.079-2.991-.124-3.283-.18-9.254-.618-11.605-3.092-1.293-1.361-1.507-3.092-1.316-4.892.079-.697.214-1.394.225-2.103v-.09c.731-.573,1.597-.798,2.508-.933l-.011-.011Z"/>
  <path class="st7" d="M38.947,86.429c.247-.034.517-.022.765-.022-.259,2.822-.663,5.656-1.023,8.467l-.304,2.395c-.056.472-.079.978-.214,1.439-.056.18-.214.292-.382.371-1.226.63-4.037.753-5.454.607-.416-.045-.832-.112-1.237-.191s-.81-.191-1.214-.304c-.416-.146-.99-.371-1.293-.686-.135-.135-.169-.27-.18-.45-.079-.9.056-1.867.101-2.777.112-2.586.349-5.173.382-7.759,1.214-.27,2.53-.326,3.767-.45l6.275-.63.011-.011Z"/>
  <path d="M50.214,70.461h.225c.011,0,.022,0,.045.011.011,0,.022,0,.045.011s.022.011.034.022c.011,0,.022.011.034.022.011,0,.022.022.034.022s.022.022.034.034c0,0,.022.022.022.034,0,0,.022.022.022.034s.011.022.022.034.011.022.022.034c0,.011,0,.022.011.045v.27c0,.011,0,.022-.011.045,0,.011,0,.022-.022.034,0,.011-.011.022-.022.034,0,.011-.011.022-.022.034,0,0-.022.022-.022.034l-.034.034s-.022.022-.034.022-.022.011-.034.022c-.011,0-.022.011-.034.022-.011,0-.022.011-.045.011s-.034.011-.056.011h-.169c-.022,0-.034,0-.056-.011-.022,0-.034-.011-.056-.022-.022,0-.034-.022-.056-.034-.011-.011-.034-.022-.045-.034-.011-.011-.034-.022-.045-.045-.011-.011-.022-.034-.034-.045s-.022-.034-.034-.056c0-.022-.011-.034-.022-.056,0-.022,0-.034-.011-.056v-.169c0-.011,0-.034.022-.056,0-.022.011-.034.022-.056,0-.022.022-.034.034-.045.011-.011.022-.034.045-.045.011-.011.034-.022.045-.045.011-.011.034-.022.045-.034.022,0,.034-.022.056-.022s.034-.011.056-.022l-.011-.022Z"/>
  <path d="M34.314,71.046c.146.034.349.079.439.214.056.09.067.157.045.247-.034.259-.225.382-.427.529-.124-.101-.27-.214-.371-.337s-.112-.202-.101-.349c.112-.169.236-.225.416-.304h0Z"/>
  <path d="M31.244,70.236c.022,0,.034-.011.056-.022h.169c.022,0,.045,0,.056.011s.034.011.056.022.034.022.056.034c.022,0,.034.022.045.034s.034.022.045.045c.011.011.022.034.034.045.011.022.022.034.034.056,0,.022.011.034.022.056,0,.022,0,.034.011.056v.169c0,.011,0,.034-.022.056,0,.022-.011.034-.022.056,0,.022-.022.034-.034.056-.011.011-.022.034-.045.045-.011.011-.034.022-.045.045-.011.011-.034.022-.056.034-.022,0-.034.022-.056.022s-.034.011-.056.022h-.225c-.011,0-.022,0-.045-.011-.011,0-.022,0-.034-.011-.011,0-.022-.011-.034-.022-.011,0-.022-.011-.034-.022-.011,0-.022-.011-.034-.022,0,0-.022-.022-.034-.022s-.022-.022-.022-.034c0,0-.011-.022-.022-.034,0-.011-.011-.022-.022-.034,0-.011-.011-.022-.022-.034,0-.011,0-.022-.011-.034v-.27c0-.011,0-.022.011-.045,0-.011,0-.022.011-.034,0-.011.011-.022.022-.034,0-.011.011-.022.022-.034,0,0,.011-.022.022-.034l.034-.034s.022-.022.034-.022c0,0,.022-.011.034-.022.011,0,.022-.011.034-.022.011,0,.022-.011.034-.022l.034.011Z"/>
  <path d="M38.767,72.058c.135.011.247.022.349.112.112.09.169.202.169.349,0,.236-.135.36-.304.506-.18,0-.304-.034-.45-.146-.056-.101-.079-.135-.079-.259,0-.259.135-.394.315-.562h0Z"/>
  <path d="M43.726,69.797h.18c.011,0,.022,0,.045.011.011,0,.022,0,.034.022.011,0,.022.011.034.022.011,0,.022.011.034.022,0,0,.022.022.034.022l.034.034s.022.022.022.034.011.022.022.034.011.022.022.034c0,.011,0,.022.011.045v.27c0,.011,0,.022-.011.045,0,.011,0,.022-.022.034,0,.011-.011.022-.022.034,0,.011-.011.022-.022.034,0,0-.022.022-.022.034l-.034.034s-.022.022-.034.022-.022.011-.034.022c-.011,0-.022.011-.034.022-.011,0-.022,0-.045.011-.011,0-.022,0-.045.011h-.214c-.022,0-.034,0-.056-.022-.022,0-.034-.011-.056-.022-.011,0-.034-.022-.045-.034-.011-.011-.034-.022-.045-.034-.011-.011-.022-.034-.034-.045s-.022-.034-.034-.045c0-.011-.022-.034-.022-.056s-.011-.034-.022-.056,0-.034,0-.056v-.112c0-.022,0-.034.011-.056,0-.022.011-.034.022-.056,0-.022.011-.034.022-.056,0-.011.022-.034.034-.045.011-.011.022-.034.034-.045.011-.011.034-.022.045-.034.011-.011.034-.022.045-.034.022,0,.034-.022.056-.022s.034-.011.056-.022h.056Z"/>
  <path d="M52.486,70.236c.011,0,.034-.022.056-.022s.034-.011.056-.022h.169c.022,0,.034,0,.056.011.022,0,.034.011.056.022.022,0,.034.011.056.022s.034.022.045.034c.011.011.034.022.045.045.011.011.022.034.034.045,0,.011.022.034.034.045,0,.022.011.034.022.056,0,.022.011.034.011.056v.169c0,.022,0,.034-.011.056,0,.022-.011.034-.022.056,0,.022-.022.034-.034.045,0,.011-.022.034-.034.045s-.022.034-.045.045c-.011.011-.034.022-.045.034-.011,0-.034.022-.045.034-.011,0-.022.011-.034.011s-.022,0-.045.011h-.27c-.011,0-.022,0-.034-.011-.011,0-.022-.011-.034-.022-.011,0-.022-.011-.034-.022-.011,0-.022-.011-.034-.022l-.034-.034s-.022-.022-.022-.034c0,0-.011-.022-.022-.034,0-.011-.011-.022-.022-.034,0-.011-.011-.022-.022-.034,0-.011,0-.022-.011-.034v-.27c0-.011,0-.022.011-.045,0-.011,0-.022.022-.034,0-.011.011-.022.022-.034,0-.011.011-.022.022-.034,0,0,.022-.022.022-.034l.034-.034s.022-.022.034-.022.022-.011.034-.022l.011.011Z"/>
  <path d="M35.618,72.541c.011,0,.022,0,.045-.011h.225c.011,0,.022,0,.045.011.011,0,.022,0,.034.011.011,0,.022.011.034.022.011,0,.022.011.034.022,0,0,.022.022.034.022l.034.034s.022.022.022.034c0,0,.011.022.022.034,0,.011.011.022.022.034,0,.011.011.022.011.034s0,.022.011.045v.225c0,.011,0,.022-.011.045,0,.011,0,.022-.011.034,0,.011-.011.022-.022.034,0,.011-.011.022-.022.034,0,0-.022.022-.022.034l-.034.034s-.022.022-.034.022-.022.011-.034.022c-.011,0-.022.011-.034.022-.011,0-.022,0-.034.011-.011,0-.022,0-.045.011h-.225c-.011,0-.022,0-.045-.011-.011,0-.022,0-.034-.011-.011,0-.022-.011-.034-.022-.011,0-.022-.011-.034-.022,0,0-.022-.022-.034-.022l-.034-.034s-.022-.022-.022-.034c0,0-.011-.022-.022-.034s-.011-.022-.022-.034c0-.011,0-.022-.011-.034,0-.011,0-.022-.011-.045v-.225c0-.011,0-.022.011-.045,0-.011,0-.022.011-.034,0-.011.011-.022.022-.034,0-.011.011-.022.022-.034,0,0,.022-.022.022-.034l.034-.034s.022-.022.034-.022c0,0,.022-.011.034-.022.011,0,.022-.011.034-.022.011,0,.022-.011.034-.011Z"/>
  <path d="M44.569,71.259c.112.022.27.079.36.169.124.124.124.169.124.326-.067.191-.191.247-.349.349-.191,0-.304-.034-.45-.157-.045-.135-.079-.236-.034-.371.056-.169.202-.236.349-.315Z"/>
  <path d="M47.369,70.911h.247c.011,0,.022,0,.034.011.011,0,.022,0,.034.011.011,0,.022.011.034.022.011,0,.022.011.034.022,0,0,.022.011.034.022l.034.034s.022.022.022.034c0,0,.011.022.022.034s.011.022.022.034c0,.011,0,.022.011.034,0,.011,0,.022.011.034v.259c0,.011,0,.022-.011.034,0,.011-.011.022-.022.034,0,.011-.011.022-.022.034,0,0-.011.022-.022.034,0,0-.022.022-.022.034,0,0-.022.022-.034.022,0,0-.022.011-.034.022-.011,0-.022.011-.034.022s-.022.011-.034.011c-.022,0-.034.011-.056.022h-.169c-.022,0-.034,0-.056-.011-.022,0-.034-.011-.056-.022-.022,0-.034-.011-.045-.022-.011,0-.034-.022-.045-.034-.011-.011-.022-.022-.045-.034-.011-.011-.022-.022-.034-.045,0-.011-.022-.034-.034-.045,0-.011-.011-.034-.022-.056,0-.022-.011-.034-.011-.056v-.169c0-.022,0-.034.011-.056,0-.022.011-.034.022-.056s.022-.034.022-.045.022-.034.034-.045l.045-.045c.011-.011.034-.022.045-.034s.034-.022.045-.022.034-.011.056-.022h-.011Z"/>
  <path d="M36.968,70.708c.101.034.27.09.337.169.112.112.101.169.09.315-.09.169-.169.236-.315.349-.146-.022-.304-.056-.405-.169-.112-.112-.09-.18-.079-.315.101-.18.202-.247.371-.349h0Z"/>
  <path class="st7" d="M55.657,84.686c.191-.034.382-.034.573-.045-.191,1.102-.304,2.226-.461,3.34l-.742,5.443c-.112.866-.225,2.62-.484,3.373-.079.202-.315.337-.506.416-.484.202-1.057.281-1.563.349-2.069.281-4.329.214-6.286-.596-.529-.27-.967-.573-1.372-1.001.472-3.396.787-6.859,1.068-10.278,3.25-.36,6.522-.607,9.761-1.023l.011.022Z"/>
  <path class="st3" d="M53.318,54.606c.36-.034.742-.022,1.113-.022.787.967,1.934,2.89,2.17,4.093.371,1.844-.157,3.632-1.181,5.161-.663,1.001-3.272,4.352-4.363,4.43-.146,0-.169,0-.27-.09-.157-.798,1.451-2.024,1.799-2.699.079-.157.079-.27.034-.439-.067-.045-.101-.09-.191-.09-.607,0-2.103,2.182-2.564,2.71-.281.326-.697.72-1.147.731-.191,0-.281-.079-.405-.202-.225-.911,2.339-3.351,2.395-3.981,0-.124,0-.146-.079-.236-1.282-.146-3.059,4.037-3.924,4.487-.281.146-.596.236-.911.146-.079-.067-.124-.09-.157-.191-.09-.281.135-.585.27-.832.36-.877.945-1.754,1.518-2.519.416-.54.956-1.113,1.214-1.743,0-.146,0-.214-.101-.337-.596-.191-2.182,2.182-2.474,2.631-.326.495-1.046,2.058-1.574,2.226-.079.022-.157.022-.236-.022-.169-.101-.236-.292-.27-.484-.18-1.023.888-2.867,1.462-3.677,1.383-1.934,2.879-3.733,4.993-4.903.382-.214.753-.439,1.192-.506.315-.056.866-.146,1.136-.326.112-.079.135-.09.157-.214-.056-.101-.124-.157-.236-.225-.843-.461-2.564.427-3.261.9-.36.236-.731.697-1.158.787-.214.045-.394-.09-.562-.202-.191-.124-.36-.259-.382-.506-.045-.371.247-.753.461-1.023,1.293-1.563,3.542-2.688,5.544-2.879l-.011.045Z"/>
  <path class="st5" d="M28.804,99.652c2.08.956,4.599,1.169,6.848.81.641-.101,1.271-.292,1.912-.439.292.371.54.776.798,1.169-1.439-.191-2.598.124-3.823.877-.349.214-.978.573-1.023,1.012-.022.146.022.236.112.349.506.191,1.462-.798,1.957-1.046.135-.067.259-.124.405-.169.135-.056.27-.09.416-.135s.281-.067.427-.09.292-.034.439-.045c.472-.022.99.022,1.428.202.877.36,2.271,1.631,3.014,2.294.922.9,1.552,1.653,1.855,2.924-.135.157-.281.281-.45.405-1.597,1.136-4.723,1.327-6.589.99-3.441-.63-6.578-2.834-8.535-5.69.157-1.181.472-2.283.843-3.418h-.034Z"/>
  <path class="st5" d="M45.188,97.392c.517.169.99.472,1.507.641,2.058.663,4.802.765,6.871.112.337.214.551.484.81.776-.978.045-1.653.214-2.463.765-.371.259-1.091.753-1.113,1.237,0,.157.011.191.112.304.63.191,1.777-1.473,3.272-1.496,1.619-.034,4.296,1.552,5.398,2.643.506.54.776,1.012,1.046,1.698-1.304,1.124-2.463,1.541-4.183,1.675-2.463.18-4.88-.517-7.107-1.552-.45-.214-.866-.461-1.316-.675-1.417-.652-2.766-1.181-3.969-2.226.09-1.349.618-2.688,1.124-3.924l.011.022Z"/>
  <path class="st8" d="M21.821,87.508c.922.247,1.765.405,2.71.405-.585,5.6-1.035,11.234-1.518,16.845-.202,2.384-.315,4.79-.618,7.163-.022.146-.056.326-.157.45-.135.169-.315.247-.529.27-.315.022-.9-.045-1.136-.281-.067-.067-.079-.135-.09-.225-.112-.922.056-1.968.101-2.89.079-1.406.124-2.822.225-4.228l.686-11.177c.124-2.103.304-4.228.326-6.342v.011Z"/>
  <path class="st8" d="M71.725,82.943h.135l.079.112c.281,3.047.394,6.117.618,9.165.304,3.958.596,7.916.855,11.875.045.753.315,2.541.157,3.182-.214.304-.551.326-.9.394-.236-.067-.461-.157-.686-.247-.101-.079-.135-.202-.157-.326-.101-.573-.124-1.192-.169-1.777l-.315-3.553-1.046-12.695c-.157-1.934-.225-3.913-.472-5.836.63-.124,1.271-.202,1.9-.292h0Z"/>
  <path class="st8" d="M7.506,77.939c.652.292,1.439.877,1.979,1.338-.371,3.801-.911,7.602-1.349,11.402l-.855,7.107c-.18,1.484-.326,2.98-.562,4.453-.214.247-.551.349-.866.371-.191.011-.461,0-.596-.157-.022-.022-.09-.135-.101-.169-.079-.247.304-3.317.36-3.891l1.428-14.528c.112-1.147.225-2.283.326-3.43.067-.832.112-1.675.236-2.496Z"/>
  <path class="st3" d="M18.953,22.153h.416c.9.011,1.653.394,2.26,1.046,1.394,1.473,1.462,3.137,1.597,5.049.056.776.146,1.574.124,2.361-.663.382-1.282.315-2.013.202-.585-.135-1.147-.349-1.664-.663-.079-.056-.169-.101-.247-.157s-.157-.112-.236-.169-.157-.124-.236-.18c-.079-.067-.146-.124-.225-.191-.067-.067-.146-.135-.214-.202-.067-.067-.135-.146-.202-.214-.067-.079-.124-.146-.191-.225-.056-.079-.124-.157-.18-.236-.056-.079-.112-.157-.169-.247-.056-.079-.101-.169-.157-.247-.045-.09-.101-.169-.146-.259s-.09-.18-.135-.27c-.045-.09-.079-.18-.112-.27-.034-.09-.067-.18-.101-.281-.034-.09-.056-.191-.09-.281-.022-.09-.056-.191-.079-.281-.236-1.001-.247-2.226.326-3.115.382-.607.956-.99,1.653-1.147l.022-.022Z"/>
  <path class="st1" d="M19.122,24.233c.562-.034,1.057.124,1.507.45.641.472,1.124,1.271,1.214,2.058.034.259.011.472-.157.675-.169.079-.225.056-.405.045-.247-.461-.304-.99-.573-1.451-.551-.956-1.406-.641-2.148-1.181-.034-.067-.067-.112-.045-.191.079-.225.382-.326.585-.416l.022.011Z"/>
  <path class="st8" d="M11.734,45.385c.135-.011.214-.034.349.022v.112c-.281.427-.472.933-.675,1.406-1.203,2.71-2.069,5.679-2.71,8.569-.124.573-.405,1.608-.045,2.125.225.315.562.427.922.495-.034.472-.079.945-.157,1.417-.315.011-.63,0-.945,0-.326-.056-.753-.067-1.023-.281-.349-.27-.371-.866-.416-1.271-.225-1.923-.135-3.857-.124-5.78,0-1.473-.067-3.025.09-4.498.034-.337.101-.888.326-1.136.967-1.102,3.047-1.08,4.408-1.169v-.011Z"/>
  <path class="st8" d="M12.342,43.586c.326-.034.675-.022,1.001-.022-.191.259-.36.54-.529.821-1.484.18-3.014.169-4.487.484-.742.157-1.349.562-1.743,1.203-.259.427-.394.922-.461,1.417-.169,1.417-.056,2.957-.045,4.385,0,1.923-.191,5.409.259,7.14l-.056.034-.337-.112c-.169-.079-.36-.18-.517-.292-.495-.349-.81-.911-.9-1.507-.112-.753-.067-1.563-.056-2.316v-3.486c0-1.046,0-2.092-.034-3.137-.011-.573-.079-1.181-.022-1.754.034-.416.191-.832.461-1.158.315-.382.81-.652,1.282-.821,1.394-.495,4.577-.697,6.196-.877h-.011Z"/>
  <path class="st5" d="M43.906,102.261c.461.214.843.618,1.304.855,3.868,2.002,7.905,4.048,12.392,3.34.652-.101,1.293-.281,1.9-.562.382-.18.855-.652,1.248-.697l.079.079c.022.247-.101.472-.247.663-.63.596-1.372.978-2.193,1.237-2.676.821-5.622.427-8.108-.81-.821-.416-1.586-.956-2.406-1.383l-.112.022c-.933.18-1.889-.259-2.643-.787-.708-.495-1.068-1.113-1.214-1.945v-.011Z"/>
  <path class="st5" d="M27.848,104.263c.079.056.101.101.146.191.225.394.585.72.9,1.046,1.552,1.619,3.418,2.879,5.566,3.565.708.225,1.428.45,2.159.562,1.765.281,4.003.112,5.679-.529.394-.146.72-.484,1.102-.663.112-.056.124-.067.247-.034.034.236-.067.484-.135.697-.225.247-.484.439-.776.607-2.204,1.248-5.589,1.226-7.973.573-1.428-.394-2.732-1.181-3.812-2.17-.304-.281-.562-.641-.877-.9-.236-.191-.472-.281-.753-.371-.776-.247-1.091-.787-1.484-1.462,0-.371.022-.753.022-1.124l-.011.011Z"/>
  <path class="st3" d="M28.579,40.966c.596.191,1.158.765,1.687,1.113,2.226,1.439,5.026,2.957,7.725,2.946-.326.753-.708,1.406-1.214,2.058-.349.405-.731.765-1.136,1.113-.911-1.001-1.574-2.226-2.541-3.16-.585-.573-1.293-1.046-1.934-1.552-.933-.731-1.855-1.574-2.586-2.508v-.011Z"/>
  <path class="st8" d="M7.54,60.318c.618.056,1.226.112,1.855.045,0,.675,0,1.349.169,2.013.101.439.821,1.889.731,2.215l-.18.056c-.731.112-1.541.259-2.283.259-.124,0-.202.022-.292-.056-.18-.945-.011-3.441,0-4.532h0Z"/>
  <path class="st0" d="M33.189,55.134h.045c.259.259,3.059,5.42,3.396,6.185-.27-.079-.529-.18-.787-.281-.45-.191-.956-.304-1.439-.427-.36-.573-.618-1.248-.933-1.855-.484-.922-.99-1.833-1.529-2.721.394-.337.81-.63,1.237-.911l.011.011Z"/>
  <path class="st7" d="M44.333,62.477c.101-.011.135-.011.225,0,.034.056.045.067.067.146.124.573-.337,1.271-.618,1.72-1.192.214-2.44.214-3.643.349l-.439-.54c-.292-.416-.686-.765-1.057-1.113.72-.157,1.484-.191,2.226-.259,1.091-.09,2.17-.202,3.261-.326l-.022.022Z"/>
  <path class="st9" d="M31.345,51.66l.079.034c.382.371.607,1.046.832,1.541-.405.349-.821.607-1.293.855-.337-.236-.63-.776-.798-1.158-.09-.191-.124-.416-.022-.618.202-.371.832-.529,1.203-.652h0Z"/>
  <path class="st7" d="M40.307,67.785l.067.034c.349.618.484,1.698.607,2.406l-.652-.472c-.382-.337-.765-.686-1.102-1.08.337-.337.686-.607,1.068-.888h.011Z"/>
  <path class="st0" d="M32.56,53.796c.214.146.349.461.461.686-.45.326-.967.596-1.439.877h-.079c-.169-.169-.236-.371-.326-.573.461-.315.933-.63,1.383-.978v-.011Z"/>
</svg>