<?xml version="1.0" encoding="UTF-8"?>
<svg id="Layer_1" xmlns="http://www.w3.org/2000/svg" version="1.1" viewBox="0 0 80 115">
  <!-- Generator: Adobe Illustrator 29.1.0, SVG Export Plug-In . SVG Version: 2.1.0 Build 142)  -->
  <g>
    <rect x="19.4" y="64.1" width="25.8" height="11.7" transform="translate(-7.7 4.1) rotate(-6.4)" fill="#fff"/>
    <rect x="37.6" y="65.4" width="24.1" height="11.7" transform="translate(-7.7 6) rotate(-6.4)" fill="#fff"/>
  </g>
  <rect x="28.6" y="30.2" width="17.6" height="10.2" fill="#fff"/>
  <path d="M33.3,1.5c.9,0,1.8,0,2.7,0,3.7.2,9.9,1.4,12.5,4.3.6.6.6,1.4.6,2.2,1.1.9,1.8,2,2,3.4.3,1.9-.1,3.9-.4,5.7-.3,2.3-.8,4.6-1,6.9-.4,3.5-.2,6.9-1,10.4-.5,2.1-1.3,4.1-2.5,5.9,3.4,1.5,6.6,7.4,8.4,10.6.5.9,1.2,1.9,1.6,2.8.4,1-.2.9-.4,1.4.1.3.4.5.5.8,1.1,1.6,1.4,3.5,1,5.4.8.5,2.3,1.2,3.3,1.6,3.5,1.7,7,3.5,10.5,5.3l2.8,1.5c.6.3,1.1.5,1.7.9.3.2.5.4.7.7,0,1,.1,3.6-.3,4.5-.4.7-1.4,1-2.1,1.2,0,1,0,3.7-.2,4.6-.1.5-.5.7-1,1,.2,1.4.2,2.9.3,4.3l.6,8.6c.2,2.5.4,4.9.6,7.4.1,1.3.3,2.7.3,4,0,.3,0,.6-.2.8-.3.4-.7.5-1.2.6-.5,0-1.2,0-1.7-.3-.3-.2-.3-.5-.4-.8-.1-.8-.2-1.6-.2-2.3,0-1.2-.2-2.5-.3-3.7l-1.1-13.4c-.1-1.5-.2-3-.4-4.4-2.6.2-5.2.5-7.8.8-1.4.2-2.8.4-4.2.4-.3,2.9-.8,5.7-1.1,8.6-.1,1.1-.3,3.2-.6,4.1-.2.2-.4.3-.7.4,0,0,0,0,0,0h0c.3.4.6.8,1,1.1.7.6,2,1,2.8,1.5,1.4.9,2.7,2.1,3.1,3.8.2.8.2,1.6-.3,2.2-.7,1.1-2.5,1.6-3.7,1.9-3.5.7-6.7-.4-9.5-2.3-.8,0-1.5-.1-2.2-.5-.9-.4-2.1-1.2-2.4-2.2-.6-1.8.3-4.8,1.2-6.4-.1,0-.2-.2-.3-.3-.2-.2-.1-.6-.1-.9,0-1.4.3-2.8.4-4.1.2-1.9.3-3.9.6-5.8-1.5.1-3,.3-4.5.5l-1,8.4-.3,2.7c0,.4,0,.8-.1,1.2,0,.4-.3.8-.5,1.1h0s0,0,0,0c.4,1.5,2.9,3,4,4.2.7.7,1.2,1.4,1.5,2.3.3.7.4,1.6.3,2.4,0,.7-.4,1.2-.9,1.6-1.8,1.4-5,1.5-7.1,1.3-2.4-.3-4.9-1.4-6.4-3.3-.1,0-.3,0-.4-.1-.9-.3-1.9-.9-2.3-1.8-1-1.8.3-5.4.8-7.3-.2-.2-.4-.4-.5-.6,0-1.7.2-3.4.3-5.1.1-1.9.2-3.9.4-5.8-1,.1-1.9.2-2.9.3-.1,1.8-.3,3.7-.5,5.5l-.9,10.2-.5,5.6c0,1,0,2.2-.3,3.2,0,.4-.3.7-.6,1-.5.3-1.2.3-1.7.2-.6-.2-.9-.4-1.2-.9-.1-1.2,0-2.5.1-3.7l.5-7.4.6-9.3c0-1,.1-2,.2-3,0-.6,0-1.3.2-1.9-.9-.7-1.9-1.3-2.8-1.9l-4.8-3.3c-1.1-.8-2.2-1.5-3.3-2.3,0,1.5-.4,3.2-.5,4.7l-.8,7.1-.9,7.4c-.1,1.1-.2,2.3-.4,3.4,0,.3-.2.7-.5.9-.3.3-1,.4-1.4.4-.4,0-.9-.2-1.2-.5-.3-.3-.2-.8-.2-1.1,0-.7.2-1.5.2-2.2l.5-5.3c.5-5.6,1-11.3,1.7-16.9-.2-.2-.5-.4-.7-.6-.2-.2-.3-.4-.3-.7-.2-.9,0-3.3,0-4.4-.5-.3-1.1-.6-1.6-.9-.4-.3-.6-.6-.6-1.1,0-.8-.2-3.5.4-4.1.5-.5,2.1-.5,2.7-.5,0-1.6,0-3.3,0-4.9-.8-.2-1.5-.4-2.1-1-.8-.7-1-1.6-1-2.6,0-2.1,0-4.3,0-6.4,0-1.3-.2-3.2,0-4.5,0-.4.3-.7.5-1,.5-.5,1.1-.9,1.7-1.1,1.1-.4,2.4-.4,3.6-.6,1.4-.1,2.9-.3,4.3-.4,1.2-1,2.4-2,3.8-2.7.7-.4,3.5-1.6,3.9-1.9.4-.4.8-1,1.1-1.5.3-.5.7-.9,1.1-1.3-.3-1.2-.6-2.3-.7-3.5-1.3.2-2.7,0-3.9-.7-1.6-.9-2.7-2.5-3.2-4.3-.3-1.3-.3-2.6.3-3.8.5-.9,1.4-1.4,2.3-1.6-.7-2.3-.8-6.8-.4-9.2.3-1.8,1-3.7,2.6-4.8.5-.3,1-.5,1.5-.8,0,0,0,0,0,0,.2-.4.4-.8.8-1.2,2.3-2.7,6.6-3.5,10-3.7ZM43.1,34.6c-.5,0-1.1,0-1.6,0-.8,0-1.6,0-2.4,0-1.2-.1-2.3-.3-3.5-.6-.6-.2-1.3-.4-1.9-.5.7,1.4,2.3,2.5,3.7,2.9,1.3.4,2.7.4,3.9-.2.3-.1.5-.3.8-.5.4-.3.7-.8,1-1.2ZM40.6,65.4c.6,1.6,1.5,4.2,1.4,5.9.1.2.3.3.3.5,0,.2-.1.3-.3.4-.1,0-.2,0-.3,0-.1,0-.2-.1-.3-.3-.1-.5.3-.4-.3-.8-1-.8-1.6-1.3-2.5-2.2-.5.3-.9.4-1.4.4-1.1.8-.9.9-2.4.9-.5.3-.9.4-1.4.3-.8-.2-1.5-.7-2.2-1.2-1.4,0-2.5,0-3.8-.5-.4-.2-.7-.5-1.1-.6-.5-.1-2.4-.2-3-.2,1,.5,2,1.2,3,1.8l4.8,3.2c.6.4,1.7,1.3,2.4,1.5.4.1,1,0,1.5,0l15.7-1.9c3.2-.4,6.3-.8,9.5-1.2-.9-.6-1.9-1.1-2.9-1.6l-3.6-2.1c-.8.6-1.5,1.2-2.5,1.4-.4,0-.7-.2-1-.4-.4.2-.9.4-1.3.6-.3-.1-.7-.3-1-.4-.5.3-1,.7-1.6.5-.5,0-.8-.4-1-.8-.5,0-1,.1-1.4-.2-.3-.2-.3-.5-.4-.8,0-.5,0-1.1.2-1.6,0-.2.3-.8.3-1-1,0-2,.1-3,.2ZM47.4,60.2c-.4-.3-.9-.6-1.5-.7-.1.5-.5,1.6-.3,2.1,0,0,0,0,.2,0,.3,0,.5-.3.7-.5.3-.3.6-.6.9-1Z" fill="#414042"/>
  <path d="M28.5,9c2.9-.2,5.8,1.2,8.7.5.4.2.8.4,1.2.5,1,.4,1.8.4,2.8,0,1.3.4,2.3.3,3.5-.2.8.2,1.6,0,2.4,0,1.2.7,1.7,2,2,3.2.4,1.3.5,2.6.5,4,0,2.4-.6,4.7-.8,7.1-.2,2.4-.1,4.8-.5,7.2-.2.9-.4,1.8-.9,2.7-.1-.3-.2-.5-.4-.8-.6-1.4-1.5-2.1-3-2.7,0-2.1-1.1-4-1.9-5.8-.1-.2-.2-.6-.4-.7-.1-.1-.3-.2-.4-.2,0,0-.1,0-.2.2,0,.2,0,.4,0,.5.1.4.3.8.5,1.1.5,1,1,2,1.3,3.1.2.5.4,1.4.1,1.9-.2.3-.5.5-.8.6-1.7.5-3.2-.2-4.7-1-.8.2-1.4.1-2.2,0-.9,0-1.7,0-2.6.3-1.6.6-2.3,1.7-3,3.2-.1,0-.3,0-.4-.2-1.5-.7-2.8-2-3.4-3.6-.6-1.6-1.5-7.3-1-8.8.4-1.3,1.2-1.9,1.4-3.4.1-.8,0-1.7,0-2.5-.1-1.3,0-2.8.6-4,.2-.5.5-.9.7-1.3-.2-.2-.5-.5-.8-.7.5-.1,1-.2,1.6-.2Z" fill="#f8bd8a"/>
  <path d="M35.2,19.1c.6,0,1.3,0,1.9.2.3.1.5.2.7.5,0,.1,0,.2,0,.3,0,.1-.2.3-.3.3-.4.1-1.2,0-1.6,0-.8,0-1.6.2-2.4.4-.6.2-1.3.6-1.9.7-.2,0-.2,0-.3-.2,0-.3,0-.5.2-.7.8-1,2.6-1.4,3.7-1.6Z" fill="#c9601f"/>
  <path d="M44.9,19.3c.3,0,.6,0,1,0,.8.1,1.9.5,2.4,1.2.1.2.2.4.2.7,0,0,0,.1-.2.2-.3,0-.5-.1-.7-.2-1.1-.7-1.9-.5-3.1-.7-.3,0-.5,0-.7-.3,0-.2,0-.4,0-.5.2-.3.8-.3,1.2-.4Z" fill="#c9601f"/>
  <path d="M34.6,23.8c.3,0,.6,0,.9,0,.4.1.8.5,1,.9.2.3.3.6.1,1,0,.2-.2.2-.3.3-.5,0-.6-.9-1.2-1.2,0,0,0,0,0,0-.2,0-.5,0-.7,0-.5.3-.7.8-1.1,1.1-.1,0-.2,0-.3,0,0,0,0-.1-.1-.2,0-.3,0-.6.1-.9.3-.6,1-.9,1.6-1.1Z" fill="#414042"/>
  <path d="M45,24c0,0,.2,0,.2,0,.6,0,1,0,1.4.5.3.3.5.6.5,1,0,.2-.1.4-.2.5-.3.2-.8-.7-1-.9-.1,0-.2-.1-.4-.1,0,0,0,0,0,0-.9.2-1.2,1.1-1.8,1.2-.1,0-.1,0-.2,0,0-.3,0-.8.1-1,.2-.5.8-.9,1.4-1.1Z" fill="#414042"/>
  <path d="M33.7,2.4c.4,0,.9,0,1.3,0,3.7,0,8,.9,11.2,2.8.6.3,1.2.7,1.6,1.2.4.5.2,1.1.3,1.7,0,.4.6.7.9,1,1.4,1.4,1.4,3.2,1.4,5-.4-1.1-.5-1.9-1.1-3-.5-.9-1.1-2-2.2-2.3-.7.2-1.3.3-2,.3.2-.7.2-1.4,0-2.1,0-.2-.3-.6-.5-.6-.2,0-.3,0-.5,0,0,.4.5,1.2.3,2.1,0,.3-.2.5-.4.6-.6.4-1.7.2-2.3,0-.1-1-.1-1.8-.7-2.7-.3-.4-.8-.9-1.4-1-.2,0-.2,0-.4.1,0,.4.7.8.9,1.1.4.6.8,1.5.7,2.2,0,.1-.1.3-.3.3-.2.1-.5.1-.8,0-1.9-.2-3.4-2.3-4.3-2.4-.1,0-.2,0-.3.1,0,0,0,.1,0,.2,0,.5,1,1.1,1.3,1.4-1,0-2-.1-2.9-.3-1.2-.2-2.4-.4-3.6-.5-1.3,0-3.1,0-4.1.9-.1.1-.2.2-.2.4.1.3.8.5,1.1.7-1.2,2-1.2,3.4-1,5.6,0,.7.1,1.4,0,2.1-.2,1.2-1,2.1-1.4,3.2-.6,1.5.5,8.1,1.3,9.7.9,1.9,2.4,3.2,4.3,3.9.2,0,.4.1.6,0,.1-.1.2-.4.2-.6,0-.4.2-.8.5-1.2.7-1.3,2.2-1.9,3.7-1.8,1,0,1.7.2,2.7,0,.6.5,1.4.8,2.1,1,.9.2,2.1.3,3,0,.3-.1.5-.3.7-.4.3-.2.5-.2.9,0,1.1.4,1.9,1.3,2.3,2.4.1.4.1.9.3,1.2,0,.1.1.2.3.2.4-.1.7-.5,1-.8-.8,3.1-2.8,6.7-5.4,8.6-1.7,1.1-3.6,1.5-5.6,1.1-2.6-.5-5.1-1.9-7.2-3.5-1.6-1.2-3.7-3-4.7-4.8-.3-.5-.4-1.1-.5-1.7-.8-3.5.4-7.8-1.7-10.9-.8-1.2-1.6-1.7-3.1-2-.1-.6-.2-1.3-.3-2-.4-2.8-.6-5.8.3-8.5.4-1.3,1.2-2.4,2.4-3,.3-.2.7-.3,1.1-.5.3-.4.4-1,.8-1.4,2.2-2.5,6.5-3.3,9.7-3.4ZM42.1,35.8c.4-.3.7-.8,1-1.2-.5,0-1.1,0-1.6,0-.8,0-1.6,0-2.4,0-1.2-.1-2.3-.3-3.5-.6-.6-.2-1.3-.4-1.9-.5.7,1.4,2.3,2.5,3.7,2.9,1.3.4,2.7.4,3.9-.2.3-.1.5-.3.8-.5Z" fill="#c9601f"/>
  <path d="M32.9,32.5c1.2.1,2.4.6,3.6.8,2.3.5,4.4.5,6.7.4.4,0,.8-.1,1.2-.1.2,0,.4,0,.6.2,0,.1,0,.2,0,.3-.2.3-.5.4-.8.5-.4.5-.8,1.1-1.2,1.6-.1.1-.3.3-.4.4-1.1.9-2.5,1.2-3.8,1.1-1.5-.2-3.3-.9-4.4-2-.4-.4-.8-.9-1.2-1.4-.1,0-.2.1-.3.2-.1,0-.2,0-.3-.2-.2-.3,0-1.1.1-1.4,0-.2.2-.2.4-.3ZM42.1,35.8c.4-.3.7-.8,1-1.2-.5,0-1.1,0-1.6,0-.8,0-1.6,0-2.4,0-1.2-.1-2.3-.3-3.5-.6-.6-.2-1.3-.4-1.9-.5.7,1.4,2.3,2.5,3.7,2.9,1.3.4,2.7.4,3.9-.2.3-.1.5-.3.8-.5Z" fill="#414042"/>
  <path d="M24.2,36.1c0,0,0,0,0,.1.4,1,1.2,1.7,1.8,2.5,1,1.3,1.7,2.7,2.9,3.9,1,1,2.2,1.8,3.2,2.7.9.8,2.3,2.7,2.9,3.7-.5,1.3-.6,2.6-.7,4,0,.6,0,1.2-.2,1.8-.6-1-1-2.1-1.6-3.1-.2-.4-.5-.7-.9-.8-.5-.1-1.1.1-1.5.4-.5.3-.7.6-.8,1.2.2.9.8,1.7,1.2,2.5.9,1.6,2.3,3.8,3,5.5-.8.2-1.6.3-2.4.6-.8.3-1.5.6-2.3.9-1.3-.4-2.6-.7-3.9-1.2-1.3-.5-2.6-1.2-3.9-1.6.5-2.9,1.2-6.6.6-9.5,0,0,0-.1,0-.2,0,0,0-.1,0-.2s0-.1,0-.2c0,0,0-.1,0-.2,0,0,0-.1,0-.2,0,0,0-.1,0-.2,0,0,0-.1,0-.2,0,0,0-.1,0-.2,0,0,0-.1,0-.2,0,0,0-.1-.1-.2,0,0,0-.1-.1-.2,0,0,0-.1-.1-.2,0,0,0-.1-.1-.2,0,0,0-.1-.1-.2,0,0,0-.1-.1-.2,0,0,0-.1-.1-.2,0,0,0-.1-.1-.2s0-.1-.1-.2c0,0,0-.1-.1-.2,0,0,0-.1-.1-.2,0,0-.1-.1-.2-.2,0,0-.1-.1-.2-.2,0,0-.1-.1-.2-.2,0,0-.1-.1-.2-.2,0,0-.1-.1-.2-.2,0,0-.1-.1-.2-.2,0,0-.1,0-.2-.1,0,0-.1,0-.2-.1,0,0-.1,0-.2-.1,0,0-.1,0-.2-.1,0,0-.1,0-.2-.1,0,0-.1,0-.2-.1-.4-.2-.9-.6-1.4-.5,0,0,0,0-.1.1.1.6,1.8,1.6,2.4,2.1.3.3.5.6.8.9,1.7,2.1,2.1,4.8,1.8,7.3h0c-.1,1.5-.4,2.9-.5,4.3,0,0,0,0-.1-.1-1.2-1.5-2.9-2.2-4.8-2.5-2.1-.3-4.5,0-6.2,1.4.4-2.6,1.5-6.1,2.4-8.5.8-2.1,2-4.4,3.8-5.9.7-.6,1.5-1.1,2.3-1.5,1.2-.7,2.5-1.4,3.9-2,0,.4.2.8.3,1.1.6,2.1,2.7,7.5,4.1,9,.2.2.3.3.5.4.9-.3,1.8-.9,2.5-1.4.4-.3.8-.6,1.2-.8.4.3,1.8,1.4,2.2,1.4.2,0,.2,0,.3-.2,0,0,0,0,0-.2-.2-.5-1.5-1.5-2-1.8.1-.1.2-.2.4-.4.2-.2.5-.5.5-.8,0-.1,0-.2-.2-.2-.2,0-.3,0-.5.2-.5.3-.9.8-1.4,1.1-.9.8-1.9,1.5-2.9,2.1-1.5-2.1-3.7-7.5-4.2-10,.4-.9.9-1.8,1.6-2.4Z" fill="#7b756a"/>
  <path d="M6.6,72.3c1.2.7,2.3,1.5,3.5,2.2l7.7,5c1.7,1.1,3.3,2.3,5.1,3.1,0,.7-.1,2.8,0,3.2,0,.2.2.3.3.4,0,0,.1,0,.2,0,.4-.4.3-2.9.3-3.5,2.3-.2,4.5-.5,6.8-.7l6.9-.8,35.8-4v.7c0,1.1,0,2.3-.2,3.5,0,.1-.2.2-.3.3-.4.4-.7.5-1.3.5-1.1.2-2.2.3-3.4.4l-5.8.6-20.2,2-12,1.3c-1.3.1-2.7.3-4,.4-.8,0-1.6.2-2.4.2-.7,0-1.6-.4-2.2-.8-1.3-.7-2.5-1.7-3.8-2.5l-5.8-3.9-3.5-2.4c-.6-.4-1.4-.8-1.9-1.4,0-1.3-.1-2.6,0-3.8Z" fill="#6a959a"/>
  <path d="M57.3,62.2c.9.4,1.7.9,2.6,1.3l7.4,3.7c1.9.9,3.7,1.9,5.6,2.9.8.4,1.7.8,2.4,1.3-.2,0-.4.2-.6.2-.7.2-1.4.2-2.1.3l-3.7.4c-3.8.4-7.5.9-11.3,1.3l-22.6,2.5c-1.8.2-10.6,1.3-11.8,1-.9-.2-4.5-2.7-5.6-3.4l-5.1-3.2c-1.3-.8-2.5-1.6-3.8-2.4-1-.6-2.3-1.3-3.2-2.1.7-.2,1.5-.2,2.3-.3l3.9-.4c.4.2.8.5,1.2.7,1,.6,2,.9,3.1,1.2,1.1.3,2.2.4,3.3.6.8,0,2.2,0,2.9.3.7.3,1.3.9,2,1.3,2.3,1.5,4.5,3,6.7,4.5.8.5,1.6,1.2,2.5,1.6,2.1-.2,4.1-.5,6.2-.8,4-.5,8-.9,12-1.4l7.1-.9c.9-.1,1.9-.1,2.8-.5.2,0,.3-.2.4-.4-.2-.5-6.6-3.8-7.6-4.5,1.3-1.5,2.5-3,3.3-4.9Z" fill="#d5bc2a"/>
  <path d="M4.5,66.7c.7.4,1.4.8,2.1,1.2,1.2.7,2.3,1.4,3.5,2.1l7.5,4.8c1.2.8,3.7,2.6,4.9,2.9.8.2,1.7.2,2.6.2,2.5-.1,5-.4,7.5-.7,3.2-.3,6.4-.7,9.6-1l26.4-3c1.5-.2,3.1-.3,4.6-.5.7,0,1.5-.3,2.3-.4.2.3,0,.8,0,1.1,0,.5,0,1.7-.2,2,0,.1-.2.2-.2.3-.4.2-.8.4-1.2.5-2.3.4-4.6.6-7,.8l-13.3,1.5-23.5,2.7c-2.2.2-4.3.5-6.5.7-.5,0-1-.4-1.4-.6-1.3-.8-2.6-1.7-3.9-2.5l-7.1-4.6-4.2-2.7c-.8-.5-1.7-1-2.4-1.6,0-1,0-2.1,0-3.1Z" fill="#d5bc2a"/>
  <path d="M23.4,78.8s0,0,.1,0c.2,0,.2.3.3.4.1.6,0,1.3-.3,1.9,0,0-.1,0-.2,0-.1-.1-.2-.3-.2-.4-.1-.6,0-1.3.3-1.8Z" fill="#414042"/>
  <path d="M45.7,41.1c0,0,.1,0,.2,0,3.1,1.1,5.8,6.2,7.4,9,.7,1.2,1.6,2.5,2.1,3.8-.7-.1-1.4-.2-2-.1-2,0-4.1,1.2-5.5,2.6-.6.6-1.1,1.3-1.7,1.9.2-1.3.4-2.6.6-3.8.2-1.3.3-2.6.3-3.9,0-.7.1-1.4,0-2,0-.2,0-.4-.2-.5-.1,0-.1,0-.2,0-.4.3-.4,2.5-.5,3-.2,2.3-.5,4.6-.8,6.8-.2,1.3-.5,2.5-.7,3.8-1.5.2-2.9.2-4.4.4-.7,0-1.5.2-2.3.1-.5-.9-.9-1.8-1.4-2.8.3-.2.7-.4.9-.7,0-.2,0-.4,0-.5-.1-.3-.3-.5-.6-.7-.4,0-.8.2-1.1.4-.4-.6-.7-1.3-1-1.9.2-.6.3-1.2.3-1.8.1-1.5,0-3.4.7-4.9.2-.5.9-1,1.3-1.4.8-.8,1.5-1.9,1.8-3,1.5-.2,2.4-.5,3.7-1.2.1,1.1.2,2.1.3,3.2-.5-.3-1-.7-1.4-1.1-.2-.2-.3-.4-.5-.4-.6.2-.9,1-1.3,1.4-.6.6-1.5,1.1-2,1.8,0,.2,0,.2,0,.4.1,0,.1,0,.3,0,.9-.2,2.5-1.7,3-2.5h0c.5.3,1.8,1.4,2.4,1.4.1,0,.2,0,.3-.2.5-.6,0-3.8-.1-4.6.7-.8,1.5-1.5,2.2-2.3Z" fill="#7b756a"/>
  <path d="M36.8,51.1c.1,0,.2,0,.3,0,.2,0,.4.3.5.5,0,0,0,0,0,0,0,0,0,0,0,0,0,0,0,0,0,0,0,0,0,0,0,0,0,0,0,0,0,0,0,0,0,0,0,0,0,0,0,0,0,0,0,0,0,0,0,0-.1.3-.3.4-.5.5,0,0,0,0,0,0-.3,0-.5-.2-.6-.4,0,0,0,0,0,0,0,0,0,0,0,0s0,0,0,0c0,0,0,0,0,0,0,0,0,0,0,0,0,0,0,0,0,0,0,0,0,0,0,0,0,0,0,0,0,0,0-.3.3-.5.5-.6Z" fill="#414042"/>
  <path d="M13.1,56.3c1.6-.2,3.8,0,5.2.9.6.4.8.8,1,1.4-.7-.2-1.5-.5-2.2-.4-.2,0-.4,0-.5.2,0,.1,0,.2,0,.3,0,0,0,.1.2.2.3.1.7,0,1,0,.7.1,1.4.3,2,.5,2.5.8,6.8,3.2,9.2,3.2.7,0,1.5-.5,2.1-.7.5-.2.9-.3,1.4-.4,1.6-.3,3.3,0,4.6.9,1.5,1,2.8,2.5,3.2,4.4-.2.2-.5.3-.8.5-.9-.7-2.9-3.8-3.9-3.8-.2,0-.2,0-.3.2,0,.2,0,.3.2.5.3.4.8.7,1.2,1.1.8.8,1.4,1.7,2,2.6,0,0-.1.1-.2.2-.2.2-.5.4-.8.4-.3,0-.4-.2-.6-.4-.7-.9-1.8-2.3-2.9-2.8-.2,0-.3-.1-.5,0-.1.1-.1.2-.2.3,0,0,0,.1,0,.2.1.3,1,.9,1.3,1.1.4.4.8.8,1.2,1.3.2.3.4.6.3.9-.2.3-.5.3-.8.4-.5-.4-.9-1-1.4-1.5-.4-.4-1.3-1.1-1.9-1-.1,0-.1,0-.1.2.2.5,1.6,1.5,2.1,2,.1.2.3.3.2.5-.2.2-.4.2-.6.3-.9-.3-1.7-.8-2.6-1.3-.6,0-1.1,0-1.7,0-1,0-1.7-.4-2.5-.8-.3-.1-.5-.3-.8-.3-.8-.1-2.1,0-3-.1-3.3-.2-9.3-.6-11.6-3.1-1.3-1.4-1.5-3.1-1.3-4.9,0-.7.2-1.4.2-2.1h0c.7-.7,1.6-.9,2.5-1Z" fill="#f8bd8a"/>
  <path d="M39,86.4c.3,0,.5,0,.8,0-.3,2.8-.7,5.7-1,8.5l-.3,2.4c0,.5,0,1-.2,1.4,0,.2-.2.3-.4.4-1.2.6-4,.8-5.4.6-.4,0-.8-.1-1.2-.2-.4,0-.8-.2-1.2-.3-.4-.1-1-.4-1.3-.7-.1-.1-.2-.3-.2-.5,0-.9,0-1.9.1-2.8.1-2.6.3-5.2.4-7.8,1.2-.3,2.5-.3,3.8-.4l6.3-.6Z" fill="#d79f4d"/>
  <path d="M50.3,70.5s0,0,0,0c0,0,0,0,0,0,0,0,0,0,0,0,0,0,0,0,0,0,0,0,0,0,0,0,0,0,0,0,0,0,0,0,0,0,0,0s0,0,0,0c0,0,0,0,0,0,0,0,0,0,0,0s0,0,0,0c0,0,0,0,0,0,0,0,0,0,0,0,0,0,0,0,0,0s0,0,0,0c0,0,0,0,0,0,0,0,0,0,0,0,0,0,0,0,0,0,0,0,0,0,0,0,0,0,0,0,0,0,0,0,0,0,0,0,0,0,0,0,0,0,0,0,0,0,0,0,0,0,0,0,0,0,0,0,0,0,0,0,0,0,0,0,0,0,0,0,0,0,0,0,0,0,0,0,0,0,0,0,0,0,0,0,0,0,0,0,0,0,0,0,0,0,0,0,0,0,0,0,0,0,0,0,0,0,0,0,0,0,0,0,0,0,0,0,0,0,0,0,0,0,0,0,0,0,0,0,0,0,0,0,0,0,0,0,0,0,0,0,0,0,0,0,0,0,0,0,0,0,0,0,0,0,0,0,0,0,0,0,0,0s0,0,0,0c0,0,0,0,0,0,0,0,0,0,0,0,0,0,0,0,0,0,0,0,0,0,0,0,0,0,0,0,0,0s0,0,0,0c0,0,0,0,0,0,0,0,0,0,0,0,0,0,0,0,0,0,0,0,0,0,0,0,0,0,0,0,0,0,0,0,0,0,0,0,0,0,0,0,0,0Z" fill="#624116"/>
  <path d="M34.4,71c.2,0,.3,0,.4.2,0,0,0,.2,0,.3,0,.3-.2.4-.4.5-.1-.1-.3-.2-.4-.3-.1-.1-.1-.2-.1-.4.1-.2.2-.2.4-.3Z" fill="#624116"/>
  <path d="M31.3,70.2s0,0,0,0c0,0,0,0,0,0,0,0,0,0,0,0s0,0,0,0c0,0,0,0,0,0s0,0,0,0,0,0,0,0c0,0,0,0,0,0,0,0,0,0,0,0,0,0,0,0,0,0,0,0,0,0,0,0,0,0,0,0,0,0,0,0,0,0,0,0,0,0,0,0,0,0,0,0,0,0,0,0,0,0,0,0,0,0s0,0,0,0c0,0,0,0,0,0,0,0,0,0,0,0,0,0,0,0,0,0,0,0,0,0,0,0,0,0,0,0,0,0,0,0,0,0,0,0,0,0,0,0,0,0,0,0,0,0,0,0,0,0,0,0,0,0,0,0,0,0,0,0,0,0,0,0,0,0,0,0,0,0,0,0,0,0,0,0,0,0,0,0,0,0,0,0,0,0,0,0,0,0,0,0,0,0,0,0,0,0,0,0,0,0,0,0,0,0,0,0s0,0,0,0c0,0,0,0,0,0,0,0,0,0,0,0,0,0,0,0,0,0,0,0,0,0,0,0,0,0,0,0,0,0,0,0,0,0,0,0,0,0,0,0,0,0,0,0,0,0,0,0s0,0,0,0c0,0,0,0,0,0,0,0,0,0,0,0,0,0,0,0,0,0,0,0,0,0,0,0,0,0,0,0,0,0,0,0,0,0,0,0,0,0,0,0,0,0,0,0,0,0,0,0,0,0,0,0,0,0,0,0,0,0,0,0,0,0,0,0,0,0Z" fill="#624116"/>
  <path d="M38.8,72c.1,0,.2,0,.4.1.1,0,.2.2.2.3,0,.2-.1.4-.3.5-.2,0-.3,0-.5-.1,0-.1,0-.1,0-.3,0-.3.1-.4.3-.6Z" fill="#624116"/>
  <path d="M43.8,69.8s0,0,0,0c0,0,0,0,0,0,0,0,0,0,0,0,0,0,0,0,0,0,0,0,0,0,0,0,0,0,0,0,0,0,0,0,0,0,0,0,0,0,0,0,0,0,0,0,0,0,0,0,0,0,0,0,0,0,0,0,0,0,0,0,0,0,0,0,0,0s0,0,0,0c0,0,0,0,0,0,0,0,0,0,0,0,0,0,0,0,0,0s0,0,0,0c0,0,0,0,0,0,0,0,0,0,0,0,0,0,0,0,0,0,0,0,0,0,0,0,0,0,0,0,0,0,0,0,0,0,0,0,0,0,0,0,0,0,0,0,0,0,0,0,0,0,0,0,0,0,0,0,0,0,0,0,0,0,0,0,0,0,0,0,0,0,0,0,0,0,0,0,0,0,0,0,0,0,0,0,0,0,0,0,0,0,0,0,0,0,0,0,0,0,0,0,0,0,0,0,0,0,0,0,0,0,0,0,0,0,0,0,0,0,0,0,0,0,0,0,0,0,0,0,0,0,0,0,0,0,0,0,0,0s0,0,0,0c0,0,0,0,0,0,0,0,0,0,0,0s0,0,0,0c0,0,0,0,0,0,0,0,0,0,0,0,0,0,0,0,0,0,0,0,0,0,0,0,0,0,0,0,0,0,0,0,0,0,0,0,0,0,0,0,0,0,0,0,0,0,0,0,0,0,0,0,0,0,0,0,0,0,0,0,0,0,0,0,0,0,0,0,0,0,0,0Z" fill="#624116"/>
  <path d="M52.5,70.2s0,0,0,0c0,0,0,0,0,0,0,0,0,0,0,0,0,0,0,0,0,0,0,0,0,0,0,0,0,0,0,0,0,0,0,0,0,0,0,0,0,0,0,0,0,0s0,0,0,0c0,0,0,0,0,0,0,0,0,0,0,0,0,0,0,0,0,0,0,0,0,0,0,0,0,0,0,0,0,0,0,0,0,0,0,0,0,0,0,0,0,0s0,0,0,0,0,0,0,0c0,0,0,0,0,0,0,0,0,0,0,0,0,0,0,0,0,0s0,0,0,0c0,0,0,0,0,0,0,0,0,0,0,0,0,0,0,0,0,0,0,0,0,0,0,0,0,0,0,0,0,0,0,0,0,0,0,0,0,0,0,0,0,0,0,0,0,0,0,0,0,0,0,0,0,0,0,0,0,0,0,0,0,0,0,0,0,0,0,0,0,0,0,0,0,0,0,0,0,0,0,0,0,0,0,0,0,0,0,0,0,0,0,0,0,0,0,0,0,0,0,0,0,0,0,0,0,0,0,0,0,0,0,0,0,0,0,0,0,0,0,0,0,0,0,0,0,0,0,0,0,0,0,0,0,0,0,0,0,0s0,0,0,0c0,0,0,0,0,0,0,0,0,0,0,0,0,0,0,0,0,0,0,0,0,0,0,0,0,0,0,0,0,0,0,0,0,0,0,0,0,0,0,0,0,0,0,0,0,0,0,0,0,0,0,0,0,0,0,0,0,0,0,0Z" fill="#624116"/>
  <path d="M35.7,72.5s0,0,0,0c0,0,0,0,0,0,0,0,0,0,0,0,0,0,0,0,0,0,0,0,0,0,0,0,0,0,0,0,0,0,0,0,0,0,0,0,0,0,0,0,0,0,0,0,0,0,0,0,0,0,0,0,0,0,0,0,0,0,0,0,0,0,0,0,0,0,0,0,0,0,0,0,0,0,0,0,0,0,0,0,0,0,0,0,0,0,0,0,0,0,0,0,0,0,0,0,0,0,0,0,0,0,0,0,0,0,0,0,0,0,0,0,0,0,0,0,0,0,0,0,0,0,0,0,0,0,0,0,0,0,0,0,0,0,0,0,0,0,0,0,0,0,0,0,0,0,0,0,0,0,0,0,0,0,0,0,0,0,0,0,0,0,0,0,0,0,0,0,0,0,0,0,0,0,0,0,0,0,0,0,0,0,0,0,0,0,0,0,0,0,0,0,0,0,0,0,0,0,0,0,0,0,0,0,0,0,0,0,0,0,0,0,0,0,0,0,0,0,0,0,0,0,0,0,0,0,0,0,0,0,0,0,0,0,0,0,0,0,0,0,0,0,0,0,0,0,0,0,0,0,0,0,0,0,0,0,0,0,0,0,0,0,0,0,0,0,0,0,0,0s0,0,0,0c0,0,0,0,0,0,0,0,0,0,0,0,0,0,0,0,0,0,0,0,0,0,0,0,0,0,0,0,0,0,0,0,0,0,0,0,0,0,0,0,0,0,0,0,0,0,0,0,0,0,0,0,0,0,0,0,0,0,0,0,0,0,0,0,0,0,0,0,0,0,0,0,0,0,0,0,0,0,0,0,0,0,0,0,0,0,0,0,0,0,0,0,0,0,0,0,0,0,0,0,0,0Z" fill="#624116"/>
  <path d="M44.6,71.3c.1,0,.3,0,.4.2.1.1.1.2.1.3,0,.2-.2.2-.4.4-.2,0-.3,0-.4-.2,0-.1,0-.2,0-.4,0-.2.2-.2.3-.3Z" fill="#624116"/>
  <path d="M47.4,70.9s0,0,0,0c0,0,0,0,0,0,0,0,0,0,0,0,0,0,0,0,0,0,0,0,0,0,0,0,0,0,0,0,0,0,0,0,0,0,0,0,0,0,0,0,0,0,0,0,0,0,0,0,0,0,0,0,0,0,0,0,0,0,0,0,0,0,0,0,0,0,0,0,0,0,0,0,0,0,0,0,0,0s0,0,0,0c0,0,0,0,0,0,0,0,0,0,0,0,0,0,0,0,0,0,0,0,0,0,0,0s0,0,0,0c0,0,0,0,0,0,0,0,0,0,0,0,0,0,0,0,0,0,0,0,0,0,0,0,0,0,0,0,0,0,0,0,0,0,0,0,0,0,0,0,0,0,0,0,0,0,0,0,0,0,0,0,0,0,0,0,0,0,0,0,0,0,0,0,0,0s0,0,0,0c0,0,0,0,0,0,0,0,0,0,0,0,0,0,0,0,0,0,0,0,0,0,0,0,0,0,0,0,0,0,0,0,0,0,0,0,0,0,0,0,0,0,0,0,0,0,0,0,0,0,0,0,0,0,0,0,0,0,0,0,0,0,0,0,0,0,0,0,0,0,0,0,0,0,0,0,0,0,0,0,0,0,0,0,0,0,0,0,0,0,0,0,0,0,0,0,0,0,0,0,0,0,0,0,0,0,0,0s0,0,0,0c0,0,0,0,0,0,0,0,0,0,0,0,0,0,0,0,0,0s0,0,0,0c0,0,0,0,0,0Z" fill="#624116"/>
  <path d="M37,70.7c0,0,.3,0,.3.2.1.1,0,.2,0,.3,0,.2-.2.2-.3.4-.1,0-.3,0-.4-.2-.1-.1,0-.2,0-.3,0-.2.2-.2.4-.4Z" fill="#624116"/>
  <path d="M55.7,84.7c.2,0,.4,0,.6,0-.2,1.1-.3,2.2-.5,3.3l-.7,5.4c-.1.9-.2,2.6-.5,3.4,0,.2-.3.3-.5.4-.5.2-1.1.3-1.6.4-2.1.3-4.3.2-6.3-.6-.5-.3-1-.6-1.4-1,.5-3.4.8-6.9,1.1-10.3,3.3-.4,6.5-.6,9.8-1Z" fill="#d79f4d"/>
  <path d="M53.4,54.6c.4,0,.7,0,1.1,0,.8,1,1.9,2.9,2.2,4.1.4,1.8-.2,3.6-1.2,5.2-.7,1-3.3,4.4-4.4,4.4-.1,0-.2,0-.3,0-.2-.8,1.4-2,1.8-2.7,0-.2,0-.3,0-.4,0,0-.1,0-.2,0-.6,0-2.1,2.2-2.6,2.7-.3.3-.7.7-1.1.7-.2,0-.3,0-.4-.2-.2-.9,2.3-3.4,2.4-4,0-.1,0-.1,0-.2-1.3-.1-3.1,4-3.9,4.5-.3.1-.6.2-.9.1,0,0-.1,0-.2-.2,0-.3.1-.6.3-.8.4-.9.9-1.8,1.5-2.5.4-.5,1-1.1,1.2-1.7,0-.2,0-.2,0-.3-.6-.2-2.2,2.2-2.5,2.6-.3.5-1,2.1-1.6,2.2,0,0-.2,0-.2,0-.2-.1-.2-.3-.3-.5-.2-1,.9-2.9,1.5-3.7,1.4-1.9,2.9-3.7,5-4.9.4-.2.8-.4,1.2-.5.3,0,.9-.1,1.1-.3.1,0,.1,0,.2-.2,0-.1-.1-.2-.2-.2-.8-.5-2.6.4-3.3.9-.4.2-.7.7-1.2.8-.2,0-.4,0-.6-.2-.2-.1-.4-.3-.4-.5,0-.4.2-.8.5-1,1.3-1.6,3.5-2.7,5.5-2.9Z" fill="#f8bd8a"/>
  <path d="M28.9,99.6c2.1,1,4.6,1.2,6.8.8.6-.1,1.3-.3,1.9-.4.3.4.5.8.8,1.2-1.4-.2-2.6.1-3.8.9-.3.2-1,.6-1,1,0,.1,0,.2.1.4.5.2,1.5-.8,2-1,.1,0,.3-.1.4-.2.1,0,.3,0,.4-.1s.3,0,.4,0c.1,0,.3,0,.4,0,.5,0,1,0,1.4.2.9.4,2.3,1.6,3,2.3.9.9,1.6,1.7,1.9,2.9-.1.2-.3.3-.5.4-1.6,1.1-4.7,1.3-6.6,1-3.4-.6-6.6-2.8-8.5-5.7.2-1.2.5-2.3.8-3.4Z" fill="#99591a"/>
  <path d="M45.2,97.4c.5.2,1,.5,1.5.6,2.1.7,4.8.8,6.9.1.3.2.6.5.8.8-1,0-1.7.2-2.5.8-.4.3-1.1.8-1.1,1.2,0,.2,0,.2.1.3.6.2,1.8-1.5,3.3-1.5,1.6,0,4.3,1.6,5.4,2.6.5.5.8,1,1.1,1.7-1.3,1.1-2.5,1.5-4.2,1.7-2.5.2-4.9-.5-7.1-1.5-.4-.2-.9-.5-1.3-.7-1.4-.7-2.8-1.2-4-2.2,0-1.4.6-2.7,1.1-3.9Z" fill="#99591a"/>
  <path d="M21.9,87.5c.9.2,1.8.4,2.7.4-.6,5.6-1,11.2-1.5,16.8-.2,2.4-.3,4.8-.6,7.2,0,.2,0,.3-.2.5-.1.2-.3.2-.5.3-.3,0-.9,0-1.1-.3,0,0,0-.1,0-.2-.1-.9,0-2,.1-2.9,0-1.4.1-2.8.2-4.2l.7-11.2c.1-2.1.3-4.2.3-6.3Z" fill="#6a959a"/>
  <path d="M71.8,82.9h.1s0,.1,0,.1c.3,3,.4,6.1.6,9.2.3,4,.6,7.9.9,11.9,0,.8.3,2.5.2,3.2-.2.3-.6.3-.9.4-.2,0-.5-.2-.7-.2-.1,0-.1-.2-.2-.3-.1-.6-.1-1.2-.2-1.8l-.3-3.6-1-12.7c-.2-1.9-.2-3.9-.5-5.8.6-.1,1.3-.2,1.9-.3Z" fill="#6a959a"/>
  <path d="M7.6,77.9c.7.3,1.4.9,2,1.3-.4,3.8-.9,7.6-1.3,11.4l-.9,7.1c-.2,1.5-.3,3-.6,4.4-.2.3-.6.3-.9.4-.2,0-.5,0-.6-.2,0,0,0-.1-.1-.2,0-.2.3-3.3.4-3.9l1.4-14.5c.1-1.1.2-2.3.3-3.4,0-.8.1-1.7.2-2.5Z" fill="#6a959a"/>
  <path d="M19,22.2c.1,0,.3,0,.4,0,.9,0,1.6.4,2.3,1,1.4,1.5,1.5,3.1,1.6,5,0,.8.1,1.6.1,2.4-.7.4-1.3.3-2,.2-.6-.1-1.1-.3-1.7-.7,0,0-.2-.1-.2-.2,0,0-.2-.1-.2-.2,0,0-.2-.1-.2-.2,0,0-.1-.1-.2-.2,0,0-.1-.1-.2-.2,0,0-.1-.1-.2-.2,0,0-.1-.1-.2-.2,0,0-.1-.2-.2-.2,0,0-.1-.2-.2-.2,0,0-.1-.2-.2-.3,0,0,0-.2-.1-.3,0,0,0-.2-.1-.3,0,0,0-.2-.1-.3,0,0,0-.2-.1-.3,0,0,0-.2,0-.3,0,0,0-.2,0-.3-.2-1-.2-2.2.3-3.1.4-.6,1-1,1.7-1.1Z" fill="#f8bd8a"/>
  <path d="M19.2,24.2c.6,0,1.1.1,1.5.5.6.5,1.1,1.3,1.2,2.1,0,.3,0,.5-.2.7-.2,0-.2,0-.4,0-.2-.5-.3-1-.6-1.4-.5-1-1.4-.6-2.1-1.2,0,0,0-.1,0-.2,0-.2.4-.3.6-.4Z" fill="#414042"/>
  <path d="M11.8,45.4c.1,0,.2,0,.3,0h0c-.3.5-.5,1-.7,1.5-1.2,2.7-2.1,5.7-2.7,8.6-.1.6-.4,1.6,0,2.1.2.3.6.4.9.5,0,.5,0,.9-.2,1.4-.3,0-.6,0-.9,0-.3,0-.8,0-1-.3-.3-.3-.4-.9-.4-1.3-.2-1.9-.1-3.9-.1-5.8,0-1.5,0-3,0-4.5,0-.3.1-.9.3-1.1,1-1.1,3-1.1,4.4-1.2Z" fill="#6a959a"/>
  <path d="M12.4,43.6c.3,0,.7,0,1,0-.2.3-.4.5-.5.8-1.5.2-3,.2-4.5.5-.7.2-1.3.6-1.7,1.2-.3.4-.4.9-.5,1.4-.2,1.4,0,3,0,4.4,0,1.9-.2,5.4.3,7.1h0s-.3,0-.3,0c-.2,0-.4-.2-.5-.3-.5-.3-.8-.9-.9-1.5-.1-.8,0-1.6,0-2.3,0-1.2,0-2.3,0-3.5,0-1,0-2.1,0-3.1,0-.6,0-1.2,0-1.8,0-.4.2-.8.5-1.2.3-.4.8-.7,1.3-.8,1.4-.5,4.6-.7,6.2-.9Z" fill="#6a959a"/>
  <path d="M44,102.3c.5.2.8.6,1.3.9,3.9,2,7.9,4.1,12.4,3.3.7-.1,1.3-.3,1.9-.6.4-.2.9-.7,1.2-.7h0c0,.3-.1.6-.3.7-.6.6-1.4,1-2.2,1.2-2.7.8-5.6.4-8.1-.8-.8-.4-1.6-1-2.4-1.4h-.1c-.9.2-1.9-.2-2.6-.8-.7-.5-1.1-1.1-1.2-1.9Z" fill="#99591a"/>
  <path d="M27.9,104.3c0,0,.1.1.1.2.2.4.6.7.9,1.1,1.6,1.6,3.4,2.9,5.6,3.6.7.2,1.4.4,2.2.6,1.8.3,4,.1,5.7-.5.4-.2.7-.5,1.1-.7.1,0,.1,0,.2,0,0,.2,0,.5-.1.7-.2.2-.5.4-.8.6-2.2,1.2-5.6,1.2-8,.6-1.4-.4-2.7-1.2-3.8-2.2-.3-.3-.6-.6-.9-.9-.2-.2-.5-.3-.8-.4-.8-.2-1.1-.8-1.5-1.5,0-.4,0-.8,0-1.1Z" fill="#99591a"/>
  <path d="M28.6,41c.6.2,1.2.8,1.7,1.1,2.2,1.4,5,3,7.7,2.9-.3.8-.7,1.4-1.2,2.1-.4.4-.7.8-1.1,1.1-.9-1-1.6-2.2-2.5-3.2-.6-.6-1.3-1.1-1.9-1.6-.9-.7-1.8-1.6-2.6-2.5Z" fill="#f8bd8a"/>
  <path d="M7.6,60.3c.6,0,1.2.1,1.9,0,0,.7,0,1.4.2,2,.1.4.8,1.9.7,2.2h-.2c-.7.2-1.5.3-2.3.3-.1,0-.2,0-.3,0-.2-.9,0-3.4,0-4.5Z" fill="#6a959a"/>
  <path d="M33.2,55.1h0c.3.3,3.1,5.4,3.4,6.2-.3,0-.5-.2-.8-.3-.5-.2-1-.3-1.4-.4-.4-.6-.6-1.2-.9-1.9-.5-.9-1-1.8-1.5-2.7.4-.3.8-.6,1.2-.9Z" fill="#d60000"/>
  <path d="M44.4,62.5c0,0,.1,0,.2,0,0,0,0,0,0,.1.1.6-.3,1.3-.6,1.7-1.2.2-2.4.2-3.6.4l-.4-.5c-.3-.4-.7-.8-1.1-1.1.7-.2,1.5-.2,2.2-.3,1.1,0,2.2-.2,3.3-.3Z" fill="#d79f4d"/>
  <path d="M31.4,51.7h0c.4.4.6,1.1.8,1.6-.4.3-.8.6-1.3.9-.3-.2-.6-.8-.8-1.2,0-.2-.1-.4,0-.6.2-.4.8-.5,1.2-.7Z" fill="#c9601f"/>
  <path d="M40.4,67.8h0c.3.6.5,1.7.6,2.4l-.6-.5c-.4-.3-.8-.7-1.1-1.1.3-.3.7-.6,1.1-.9Z" fill="#d79f4d"/>
  <path d="M32.6,53.8c.2.1.3.5.5.7-.5.3-1,.6-1.4.9h0c-.2-.2-.2-.4-.3-.6.5-.3.9-.6,1.4-1Z" fill="#d60000"/>
</svg>