<?xml version="1.0" encoding="UTF-8"?>
<svg id="Layer_1" xmlns="http://www.w3.org/2000/svg" version="1.1" viewBox="0 0 80 115">
  <!-- Generator: Adobe Illustrator 29.1.0, SVG Export Plug-In . SVG Version: 2.1.0 Build 142)  -->
  <path d="M36.6,3.7h0c6-.3,13.2,1.6,17.7,5.7,1.8,1.7,3.5,3.7,4.4,6.1.2.5.4,1.1.4,1.6s0,.4-.2.6c-.6.2-2.7-1-3.4-1.3.3.4.5.8.7,1.2s.4.8.6,1.2c.3.7,1.2,2.9.9,3.6,0,.1-.2.2-.3.3-.5.1-1.4-.5-1.9-.7-.3,2.3-1.1,4.8-1.7,7-.3.9-.6,1.8-.8,2.7-.2.8,0,1.8-.2,2.6-.4,3.7-2,6.5-4.9,8.8,2.1,1.6,5.8,7.1,7,9.4-.2.4-.4.8-.6,1.2.7.8,1.4,1.6,1.9,2.6.7,1.2,1.1,2.7.6,4.1v.4h0c.4,0,.6,0,.9.2,1.1.5,2.1,1.2,3.2,1.9,1.5,1,3.1,1.9,4.6,2.9,1.5.9,2.9,1.9,4.4,2.8.9.5,1.8,1.1,2.6,1.7.4.3.9.6,1.1,1.1.4,1.1.3,3.7-.2,4.7-.5,1.1-1.4,1.6-2.4,2,0,1.6,0,4-.8,5.3l-.3.4v5.6c0,0,.5,11.7.5,11.7,0,1.6.3,3.8.2,5.3,0,.4,0,.8-.4,1.1-.4.4-.9.6-1.5.6s-1.2,0-1.6-.5c-.3-.3-.4-.5-.4-.9,0-1.1,0-2.2,0-3.3v-4.4c0,0-.7-14.6-.7-14.6-1.4.2-2.9.2-4.3.3-3,.2-6.1.4-9.1.6-.2.8-.3,1.7-.5,2.5-.4,2.4-.8,4.9-1.4,7.3.2,0,.3,0,.5.2.7.5.8,1.8.9,2.6,1.1,1.2,2.6,1.8,4,2.6,1.4.8,2.4,1.7,2.9,3.3.3.9.3,2.1,0,3-.5.9-1.5,1.3-2.5,1.6-3.5,1-7.7.2-11-1.2-1-.4-2-1-3-1.5.2,1.1.4,2.3,0,3.4-.4.9-1.4,1.5-2.3,1.8-3.6,1.2-7.6,0-10.8-1.6-1.4-.8-3.2-1.9-3.9-3.4-.7-1.4.3-5.1.6-6.7.2-.9.3-1.9.6-2.7.2-.5.6-.7,1-.9,0-1.6.1-3.2.2-4.8,0-1.3.2-2.6.3-3.8-1.1,0-2.1,0-3.2.2l-.6,16.7v5.8c0,.4-.2.7-.5,1-.4.4-1,.5-1.5.5s-1.2-.2-1.6-.7h0v-.2h0v-.2h0v-3c0-1.5.1-3.1.2-4.6l.2-8.5c0-2.4,0-4.8.3-7.2-.4-.4-.9-.7-1.3-1-.7-.6-1.5-1.2-2.2-1.8-1.7-1.4-3.3-2.9-5.1-4.2,0,1.2-.2,2.4-.4,3.6l-.8,6.9-.7,6.3c0,1.1-.2,2.1-.3,3.2,0,.4,0,.8-.4,1.1-.3.3-.7.5-1.1.5-.6,0-1.3,0-1.8-.5-.3-.3-.4-.8-.4-1.3s0-1.3.1-1.9l.3-3,1.2-12.4.3-3.4c0-.7.2-1.4.2-2.1h0c-.2-.3-.5-.6-.6-1-.3-.9.2-4.1.3-5.2-1-.7-2.1-1.5-2.4-2.7-.2-1,0-3.1.5-4,.5-.7,1.5-.8,2.3-1,0-.7.2-1.5.2-2.2-.6,0-1.3-.2-1.8-.6-.7-.4-1.1-1.1-1.3-1.9-.2-.9,0-9,0-9.9,0-.6.3-1.3.6-1.8.3-.4.7-.8,1.2-1,1-.4,2.2-.4,3.3-.5,1.6,0,3.2-.3,4.8-.4.8,0,1.6,0,2.4-.2h0c2.3-3,4.3-4,7.9-4.6-1-1.2-1.6-2.6-2.1-4.1-.3,0-.6,0-.9,0-1.6,0-3.1-.6-4.3-1.7-1.5-1.4-2.1-3.3-2.2-5.3,0-1.8.4-3.2,1.7-4.6-.3-1.7-.5-3.3-.4-5.1.3-3.8,1.5-6.9,4.5-9.4-.2-.2-.5-.4-.7-.6-.2-.2-.4-.5-.4-.8s.2-.4.4-.6c.8-.5,1.9-.2,2.7,0,0-.7,0-1.3.3-2,.2-.5.4-1.1.9-1.3h.5c.7.3,1.1,1.6,1.3,2.2,2.8-1.9,5.7-2.5,9-2.8h0ZM33.2,69.1c-.7.5-1.5,1-2.4.8-.7,0-1.3-.6-1.9-1-1,0-1.6-.2-2.5-.6,1.2,1.2,2.5,2.3,3.7,3.4.9.8,1.9,1.9,2.9,2.4,1.1,0,2.2-.2,3.3-.2l12.8-.9,4.7-.4c.9,0,1.8-.2,2.7-.2-.7-.4-5.1-3.5-5.5-3.4-.4,0-.7.4-1.1.5-.3,0-.5-.2-.8-.3-.5.3-.9.4-1.4.5-.4,0-.7-.3-1-.5-.4,0-1.1.2-1.5,0-.3-.2-.6-.5-.8-.8-.5,0-.9,0-1.3-.2-.4-.3-.4-.8-.5-1.2,0-.5,0-1,0-1.5h0c-.5,0-2,0-2.3.5,0,1,1.5,2.9.7,4,0,0-.2.2-.4.2-.6,0-1.5-1-1.9-1.4-.3-.3-.7-.7-1-1-.2.2-.3.3-.5.4s-2.1,1.1-2.3,1.2h-.6c-.4,0-.8-.2-1.2-.3ZM37.4,86.5c-.4,1.7-.6,3.5-.9,5.3-.2,1.6-.5,3.3-.8,4.9.5.3.8.6,1,1.2s0,1.5.4,2.1c.2.3.6.6.8,1,.6.6,1.1,1.2,1.7,1.7,0-1.7.4-3.3.7-5,.2-.9.3-1.8.5-2.6,0-.2.2-.4.4-.6s.6-.4.9-.5c0-1.9.3-3.8.5-5.7,0-.7.2-1.4.2-2-.2,0-.4,0-.6,0-1.6,0-3.2,0-4.7.3h-.1ZM41.1,109.1c.2-.3.4-.5.5-.8-.7.2-1.3.4-2,.5-3.1.5-6.2,0-9.1-1.3-1.2-.6-2.3-1.3-3.3-2.1-.4-.3-.8-.8-1.2-1.1.2,1.3.9,2.1,1.9,2.9,3,2.2,7.1,3.6,10.8,2.9.9,0,1.8-.4,2.4-1ZM50.8,102.2c1.3-.9,2.1-1.1,3.5-1.5-.6-.2-1.2-.6-1.8-.6-.8.2-2.6.8-3,1.5v.4c.2.3.6.4.9.6l.5-.4h-.1ZM48.1,59.4c0-.2-.2-.4-.4-.6-.2-.2-1.8-1.2-2.1-1.3,0,1.1,0,2.2-.4,3.3.5,0,.9,0,1.3.2.2-.2.4-.4.6-.5.4-.3.7-.7,1-1.1ZM34.2,101.8c.9-.5,1.8-.7,2.8-.8-.9-.7-1.5-.6-2.5-.6-.6.2-1.5.4-1.9,1,0,.2-.1.3,0,.5,0,.2.3.4.5.5h.5c.3-.2.5-.4.8-.5h-.2ZM12.4,62.6h1c0-.3-.2-.5-.2-.8s0-.7,0-1c-.2,0-.3,0-.6,0,0,.7,0,1.3-.2,2h0ZM48.4,101.2c.2-.2.4-.5.6-.6.6-.5,1.3-.9,2.1-1,.3,0,.6,0,.9-.2h0c-.2-.2-.4-.4-.6-.5h-1.2c-.6.2-1.9.6-2.3,1.2,0,.2,0,.4,0,.5,0,.2.3.4.5.6h0ZM40.6,101.9v1.1c1.7,1.9,5.4,3.5,7.9,4.1.7.2,1.4.3,2.1.4.7,0,1.4.2,2.1.2,1.4,0,3.8,0,4.9-1.1,0,0,0,0,.2-.2l.5-.7h0c-1.1.2-2,.6-3.1.8-3.3.4-6.5-.2-9.6-1.5-1-.4-2-.8-2.8-1.4-.4-.3-.9-.7-1.2-1-.2-.2-.4-.5-.7-.7h-.3ZM35.3,103.8c1.1-.5,2.1-.9,3.3-1-.7-.5-1.2-.9-2.1-.8-.8.2-2.1.5-2.6,1.3-.1.2-.2.4-.1.6,0,.2.3.4.4.6.4-.2.7-.4,1-.6h.1Z" fill="#704823"/>
  <path d="M31.3,16.7c.7.7,1.4,1.3,2.2,1.8.8.6,4.2,2.5,5.1,2.2,0,0,.2-.1.3-.3.2-.5-.5-1.7-.6-2.1,1.4,1.2,6.6,4.1,8.5,4.2.2,0,.4,0,.6-.2.2-.5-.2-1.5-.4-2.1,1.1.6,4.9,2.8,5.9,2.4,0,0,.2-.1.3-.3.2-.5-.3-1.5-.5-2,.7.3,1.3.7,1.9,1-.4,2.5-1.1,4.8-1.8,7.2-.3,1-.7,2-.9,3,0,.6,0,1.4-.2,2,0,.3,0,.7,0,1,0,.3,0,.6-.2,1,0,.3-.2.6-.3,1,0,.3-.2.6-.3.9-1.3,3.2-3.7,5.2-6.8,6.5-.2,0-.3,0-.5.2-.2,0-.3,0-.5.2-.2,0-.4,0-.5,0-.2,0-.4,0-.5,0s-.4,0-.5,0h-4.9c-.1,0-.4,0-.5,0-.2,0-.4,0-.5,0-4.1-1.2-7.6-3.8-9.4-7.7-.2-.4-.3-.7-.4-1.1-.1-.5-.1-1.2-.4-1.6h-.2c-.2,0-.4,0-.6,0-.7.2-1.4.3-2.1.2-1.3-.3-2.5-1.1-3.2-2.2-.9-1.4-1.3-3.4-.9-5,.2-1,.8-2.1,1.7-2.6.7-.4,1.5-.5,2.2-.3,1.1.3,2.2,1.3,2.8,2.3.2.4.4.9.6,1.3.1.2.2.4.5.4s.2,0,.2-.1c.5-.4.9-1.2,1.2-1.7,2-3.1,3.3-6.1,3.9-9.8h-.2Z" fill="#ffd499"/>
  <path d="M33.6,36.1c.5.2.8,1.1,1.1,1.6.4.5.9.9,1.4,1.3,1.5,1.1,3.6,1.6,5.4,1.4.5,0,1-.3,1.6-.4.2,0,.4,0,.6,0v.3c0,.3-.3.4-.6.6-1.6.7-3.4.7-5,.2-1.9-.5-3.8-1.8-4.7-3.5-.2-.3-.3-.7-.2-1.1,0-.2.3-.3.5-.4h0Z" fill="#704823"/>
  <path d="M43.6,33.1h.4c.7,0,1.4.4,1.8,1,.4.5.7,1.3.6,2,0,.7-.5,1.4-1.1,1.8-.7.5-1.6.6-2.5.5-.2,0-.4,0-.5-.3,0,0-.2-.2-.2-.4.3-.3,1-.2,1.3-.2.6,0,1.3-.3,1.7-.8.2-.3.3-.7.3-1.1-.2-1.2-1.5-1.1-2.3-1.7v-.3c.2-.2.3-.3.5-.4h0Z" fill="#704823"/>
  <path d="M33.2,30.1c.8,0,.8,1.3,1.6,1.7.4.2.8.3,1.2.1.7-.2,1-.9,1.3-1.5.1-.2.2-.3.4-.3s.2.1.3.2c.2.3.2.7,0,1,0,.2-.2.4-.3.6-.4.6-1.1.9-1.8,1-.8.1-1.6-.1-2.2-.6-.4-.4-.9-.9-.9-1.5s0-.6.3-.9v.2Z" fill="#704823"/>
  <path d="M35.7,23.4h1.3c.6,0,1.4.3,1.7.8,0,.2,0,.3,0,.5-.3.4-1.8-.1-2.3-.1h-.8c-.3,0-.5,0-.7.1h0c-.5.2-1.6,1.1-2.2,1,0,0-.1,0-.2-.1,0-.3.1-.6.3-.8.6-.8,1.9-1.3,2.9-1.4h0Z" fill="#704823"/>
  <path d="M45.4,30.7c.6.2.7,1.2,1.3,1.5.3.2.9.3,1.3.2.6-.2.7-.9,1-1.4,0-.2.2-.3.4-.3,0,0,0,0,.2.1.2.4.2.9,0,1.4,0,.2-.3.4-.4.6-.4.5-1.1.8-1.7.8s-1.4-.3-1.9-.8-.6-.8-.6-1.3,0-.5.4-.8Z" fill="#704823"/>
  <path d="M20.7,26.5h.7c.8.1,1.5.7,2,1.3.5.7.8,1.7.6,2.5,0,.3-.2.6-.4.8h-.3c-.4-4.7-2.7-2.8-3.4-3.6v-.3c.2-.4.5-.5.9-.7h-.1Z" fill="#704823"/>
  <path d="M48.5,24.8h.3c.8,0,1.6.3,2.1.9.2.2.5.6.4.9q0,.2-.2.3c-.5,0-.7-.3-1.1-.6-1.4-.8-2.2,0-3.1-.3q0,0-.2-.2v-.2c.4-.5,1-.8,1.6-.8h.2Z" fill="#704823"/>
  <path d="M36.6,5h3c.5,0,1,0,1.5,0,.5,0,1,0,1.5.2.5,0,1,.2,1.5.3s1,.2,1.5.4c.5,0,1,.3,1.4.5.5.2,1,.3,1.4.5,4.1,1.7,7.6,4.9,9.3,9.1-1-.6-3.1-1.5-4.2-1.8-.2,0-.5-.1-.8,0,0,.4,1.4,1.9,1.7,2.4.9,1.3,1.6,2.8,2,4.3-1.1-.4-5.2-2.9-5.9-2.9h0c0,.9,1,2.3,1.3,3.1h0c-1.9-.4-3.8-1.6-5.4-2.7-.5-.3-1-.9-1.6-1.1h-.3c0,.5,1.2,3,1.4,3.6-2.5-.8-5-2.3-7.2-3.9-.5-.3-1.8-1.6-2.2-1.6h0c-.2,1.2.7,2.5,1,3.6h0c-1.8-.4-3.8-1.9-5.1-3.2-.5-.5-.9-1-1.4-1.5-.2-.2-.4-.4-.7-.4-.1.3,0,.8,0,1.1,0,.5,0,1-.1,1.5-.6,3.7-2,6.6-4.1,9.7-.8-1.2-1.6-2.4-3-3-1.2-.5-2.3-.5-3.5,0-.4-1.7-.4-3.8,0-5.5.4-2.5,1.5-5,3.4-6.7.4-.4.9-.7,1.3-1,.1-.1.2-.2.2-.4-.1-.4-.7-.5-1-.8,0,0-.1,0-.1-.2h0c.3-.3,1.8,0,2.2,0,.2-1,.2-1.9.6-2.9.5.7.8,1.6,1.2,2.4h0c.7-.3,1.3-.9,1.9-1.2,2.3-1.3,4.8-1.7,7.4-1.9h-.1Z" fill="#fbd273"/>
  <path d="M26.2,40.8h1c.3.7.5,1.4.8,2.1.6,1.6,1.6,3,2.9,4.1,1.5,1.2,3.6,2,5.6,1.8,1.9-.2,3.2-1.2,4.4-2.7.7-.2,1.4-.3,2.1-.5,1.4-.4,2.7-1.1,4-1.8.6.6,1.2,1.1,1.7,1.6,1.9,2.1,3.5,4.7,5,7.2-1.5,1.9-4.4,3.7-6.7,4.4-.5-.3-.9-.6-1.2-1.1,0-1.7.3-3.5.2-5.2,0-.3,0-.8-.3-1h-.2c-.2.2-.2.4-.3.7-.2.9-.2,1.9-.3,2.9,0,1.5-.3,3-.4,4.6,0,1-.2,2-.5,3h-2.1c-1,0-2.9.3-3.8,0-.4,0-.7-.3-.9-.6-.5-.6-.9-1.4-1.3-2l-1.4-2.4c-.6-.9-3.3-5.9-4-6.1-.2,0-.5,0-.7,0-.5.3-1.2.8-1.3,1.3-.3,1.2,2.9,6.4,3.6,7.6-1.6.5-2.9,1.1-4.3,2-1.5-.6-3-1.3-4.5-1.9l.3-.7c.3,0,.9,0,1.1-.3.6-.6,1.3-5.9,1.4-7,0-.4.1-1.3-.2-1.6h-.1c-.2.2-.3.4-.4.7-.3.8-.4,1.7-.5,2.5-.3,1.5-.5,3-.9,4.5-.5-.4-1-.8-1.5-1.1-2.2-1.2-5.5-1.6-7.9-.9.7-3,3.3-8.8,5.2-11.1,1.6-2,3.8-3.1,6.4-3.3v.2Z" fill="#95d7e5"/>
  <path d="M56.5,61.7c.5,0,.9.3,1.3.5.7.4,1.4.8,2.1,1.3l3.9,2.5c1.7,1.1,3.5,2.2,5.2,3.3,1,.6,2,1.2,2.9,1.9.3.2.6.5.7.9v.6c-.3.4-1,.5-1.5.5-1,0-2,0-3,.2l-6,.4-13,.9c-5.6.4-11.2.8-16.9,1.2l-5,.3c-1,0-1.9.2-2.9.2s-1.2,0-1.8-.2c-.4,0-.9-.4-1.2-.6-1.1-.8-2.2-1.7-3.2-2.6l-4.7-3.8c-1.3-1-2.5-2-3.8-3.1-.8-.6-1.6-1.3-2.3-2,1.5-.6,4.7-.5,6.5-.6.5.5,1,1.1,1.6,1.5,2.4,1.7,5.8,2.1,8.6,2.5,0,0,.1.2.2.3.8.9,2.2,2,3.2,2.9,1.1,1,2.1,1.9,3.2,2.9.5.4,1,.9,1.6,1.3.3.2.5.2.8.2.9,0,1.8,0,2.7,0l5.2-.4c3.4-.2,6.8-.5,10.2-.8,1.7,0,3.4-.2,5-.4.5,0,1.4,0,1.8-.5v-.3c-.5-1-4.7-3.4-5.8-4.3h0c.4-.5.8-1,1.1-1.6.3-.5.5-.9.7-1.4.3-.5.7-.8,1.1-1.3.5-.7,1-1.6,1.4-2.4h0Z" fill="#99ba93"/>
  <path d="M9.2,71.3c.6.4,1.3,1.1,1.8,1.5,1.2,1.1,2.5,2.1,3.8,3.2,1.6,1.3,5.3,4.8,7.1,5.5.5.2,1.3.2,1.8.2,1.7,0,3.4-.2,5.1-.3l7-.5,34.2-2.5c0,1.3,0,3-.7,4.2,0,0-.2.2-.4.3-.4.3-.8.4-1.3.4-2.3.3-4.7.4-7.1.6l-12.3.8-14,.9c-1.9,0-10.6.9-11.6.6-.5,0-1-.5-1.4-.8-.8-.6-1.6-1.2-2.3-1.9l-4.1-3.4c-1.6-1.3-3.4-2.5-4.9-3.9-.4-.4-.7-.7-1-1.2,0-1.3.3-2.5.4-3.8h-.1Z" fill="#915e29"/>
  <path d="M22.5,81.9s.2,0,.2.2c.4.6.4,2.7.3,3.4-.1,0-.2,0-.3,0-.4-.6-.3-2.8-.2-3.5Z" fill="#704823"/>
  <path d="M7,65c.6.3,1.5,1.4,2.1,1.9l8,6.5c1.1.9,3.6,3.2,4.8,3.6.9.3,2,.4,3,.3,2.9,0,5.7-.3,8.6-.5,6.3-.4,12.7-.9,19-1.4l12.3-.9c2.1,0,4.3-.2,6.4-.5.6,0,1.2-.3,1.8-.6,0,.9,0,1.8-.5,2.5-.4.6-1.1.9-1.8,1-5.3.4-10.6.8-16,1.2l-31.9,2.3c0-.8,0-1.9-.3-2.6h0c-.4.6-.3,1.7-.3,2.4-1.5-1-2.9-2.3-4.3-3.5-2.5-2.1-5.1-4.2-7.6-6.4-.8-.7-2.3-1.8-2.9-2.5-.6-.7-.3-2.2-.2-3.1l-.2.3Z" fill="#99ba93"/>
  <path d="M16.3,56h.9c1.6,0,4.3.4,5.5,1.5,0,.4-.2.8-.3,1.2-.8-.2-1.8-.5-2.7-.4-.2,0-.4,0-.6.3v.4c.3.2,2.9.8,3.6,1.1,1.7.6,3.5,1.5,5.2,2,1.7-.8,3.6-2.3,5.6-2,.3,0,.7.2,1,.3,1.8.7,3.3,2.1,4.4,3.6.2.3.5.7.4,1.1,0,.2-.3.4-.5.5-.3.2-.7.2-1,0-1-.6-2.6-3.2-3.8-3.5h-.5c.2,1,2.7,3.2,3.4,4,.1,0,.3.4.3.6,0,.3-.4.6-.7.8h-.4c-.4-.3-.8-.8-1.1-1.2-.5-.6-1.1-1.1-1.7-1.6-.4-.3-1.1-1-1.6-.9q-.1,0-.2,0c0,.8,2.9,3,3.5,3.9.1.2.1.3.1.5-.1.2-.2.3-.4.4-1.1.5-3.2-2.4-4.3-2.8h-.5c-.2.9,2,1.9,2.1,2.9q0,.2-.2.3c-.9.5-2-.6-2.8-.8-.6-.2-1.2,0-1.7-.3-.7-.3-1.2-.8-1.9-1-.8-.2-1.6-.2-2.3-.4-1.5-.2-3-.5-4.5-1-1.6-.6-3.2-1.2-3.9-2.9-.8-1.8,0-4.5.6-6.3.4,0,.8,0,1.1-.2v-.2Z" fill="#ffd499"/>
  <path d="M46.8,71.2h0c.2,0,.4,0,.5.3v.4c0,.2-.3.3-.5.4-.2,0-.4,0-.5-.3,0,0,0-.2,0-.4,0-.3.3-.3.5-.4Z" fill="#704823"/>
  <path d="M49.2,70.9c.2,0,.5,0,.6.2,0,0,0,.2,0,.3,0,.2-.2.3-.4.5h-.2c-.2,0-.4,0-.5-.2,0,0,0-.3,0-.4,0-.2.2-.3.4-.4Z" fill="#704823"/>
  <path d="M51.7,70.6c.3,0,.5,0,.7.2v.3c0,.3-.2.4-.4.5-.2,0-.5,0-.6-.2,0,0,0-.2,0-.3,0-.2.2-.4.3-.6h0Z" fill="#704823"/>
  <path d="M42.3,69.9c.2,0,.5,0,.7.2,0,0,0,.2,0,.4,0,.2-.2.3-.4.4-.2,0-.4,0-.6-.2s0-.3,0-.4c0-.2.2-.3.3-.4h0Z" fill="#704823"/>
  <path d="M43.7,71.6h.8c0,0,.2.2.2.3,0,.2-.2.3-.3.5h-.6c0,0-.2-.2-.2-.4s0-.3.2-.5h-.1Z" fill="#704823"/>
  <path d="M33.4,70.6c.2,0,.4,0,.6.2s.2.2.2.3c0,.2-.2.3-.3.5-.2,0-.5,0-.7-.2s-.1-.2-.1-.4.2-.3.4-.4h-.1Z" fill="#704823"/>
  <path d="M40.8,71.7c.2,0,.5,0,.7.2,0,0,.2.2,0,.4,0,.2-.2.3-.3.4-.2,0-.5,0-.6,0s0-.2,0-.4.2-.3.3-.4h-.1Z" fill="#704823"/>
  <path d="M38,71.9c.2,0,.5,0,.6.2,0,0,0,.3,0,.4,0,.2-.2.3-.4.4-.2,0-.5,0-.6-.3-.1,0,0-.2,0-.4.1-.2.2-.3.4-.4h0Z" fill="#704823"/>
  <path d="M45.1,69.4c.2,0,.5,0,.7,0,0,0,.2,0,.2.3s0,.3-.3.4h-.7c0,0-.2-.2-.2-.3,0-.2,0-.4.3-.5Z" fill="#704823"/>
  <path d="M39,70h.6c0,0,0,.2.2.3,0,.2-.2.3-.3.5h0c-.2,0-.4,0-.6,0,0,0-.2-.2,0-.4,0-.2.2-.3.3-.4h-.1Z" fill="#704823"/>
  <path d="M34.6,72.3h0Z" fill="#704823"/>
  <path d="M36.2,70.5h.6c.2,0,.2.2.3.4,0,.2-.1.3-.3.4h-.6c-.2,0-.2-.2-.2-.3,0-.2,0-.3.2-.4h0Z" fill="#704823"/>
  <path d="M53.4,54.5h.2c.9.7,1.9,2.3,2.2,3.4.9,3.1-1.8,5.4-3.2,7.8-.4.7-1.8,2.6-2.5,2.7q-.2,0-.3,0v-.2c0-.3,1-1.8,1.2-2.2,0-.2.2-.5,0-.8h-.2c0,0-.2,0-.3,0-.8.8-1.3,2.4-2.1,3.3,0,0-.3.3-.5.3s-.3,0-.4-.2c-.5-.7,1.4-3,1.5-3.9q0-.2,0-.3c-1.2,0-2,3.7-2.9,4.1-.2,0-.3,0-.5-.2,0,0-.2-.2-.2-.3,0-.8,2-3.3,1.9-4.2,0,0,0,0-.2,0-.7.3-1.6,1.9-1.9,2.7-.2.4-.3.8-.6,1.1-.2.2-.3.3-.5.3,0,0,0,0-.2-.2-.2-.3,0-.7,0-1,.5-2.4,2.7-3.7,4.3-5.2.7-.7,1.4-1.5,2.2-2,.3-.2.7-.4,1-.6.5-.2,1.1-.4,1.5-.7,0,0,0-.2,0-.3,0,0-.2-.2-.4-.2-1.1-.2-2.7.9-3.6,1.5-.3-.3-.5-.7-.7-1,1.9-.8,3.5-2,5.1-3.3v-.2Z" fill="#ffd499"/>
  <path d="M16.2,47.2h.4c-.1.6-.6,1.4-.9,2-.6,1.4-2.4,5.3-2.3,6.8,0,.3.3.5.5.7-.3,1-.5,2-.7,3h-3.2c-.2,0-.6,0-.8,0s-.2-.4-.3-.6c-.2-1.7,0-3.6,0-5.3s0-2.8,0-4.1c0-.4,0-.7.4-1,.3-.3.7-.5,1.1-.6,1.3-.4,4.3-.5,5.8-.6v-.2Z" fill="#99ba93"/>
  <path d="M50.7,85.5h.6l-1.2,7.1h0c-1.5.8-4.1.8-5.7.4-.4,0-.7-.3-1.1-.4,0-.9.2-1.8.2-2.6,0-1.3.2-2.7.4-4,2.2,0,4.5-.3,6.7-.5h0Z" fill="#ffd499"/>
  <path d="M35.6,86.6h.6c-.1,1.3-.4,2.6-.6,4-.2,1.1-.2,2.3-.5,3.3h-.2c-1.5.8-3.4.6-5,.2-.4,0-.8-.4-1.2-.6,0-2.2.4-4.3.5-6.5,2.1,0,4.3-.3,6.4-.4Z" fill="#ffd499"/>
  <path d="M21.9,87c.7,0,1.3.3,2,.4,0,1.6,0,3.3-.1,4.9,0,2.2-.2,4.5-.2,6.7-.1,3.4,0,6.9-.3,10.3,0,.2,0,.4-.2.6-.3,0-.5.2-.8.2s-.6,0-.8-.2c-.3-.7.4-20.6.5-23h0Z" fill="#915e29"/>
  <path d="M68.8,84.1c0,.2,1,22,.8,22.5q0,0-.2.2c-.4.2-1.1,0-1.5,0,0-.2,0-.4,0-.6-.2-2.4-.2-4.8-.3-7.2l-.6-14.6c.6,0,1.2,0,1.9-.3Z" fill="#915e29"/>
  <path d="M41.9,95.3c.4.4.2,1,1,1.7,1,.7,2.2.9,3.3.8.2.5.4,1.1.6,1.6,0,.4-.2.8,0,1.2,0,.3.2.5.4.7.3.3.8.6,1.2.8.6.5,1,1,1.7,1.4-.4.6-.6,1.2-.8,1.9-.4,0-.8-.2-1.2-.3-2.3-.7-5.8-2.1-7-4.3,0-1,.7-4.6,1-5.5h-.1Z" fill="#d61f26"/>
  <path d="M27.4,97c.2.2.4.4.7.6.9.8,1.9,1.2,3.1,1.2.1.6.3,1.2.5,1.8-.2.3-.3.6-.3,1-.1,1,.7,1.4,1.2,2.1.3.5.5,1,.8,1.4-.5.6-.8,1.2-1.1,2v.2h-.2c-.4,0-.8-.3-1.2-.5-1.8-.8-3.6-1.9-4.8-3.6.1-1.7.7-4.4,1.2-6.1h0Z" fill="#d61f26"/>
  <path d="M9.6,77.5c.6.3,1.2.9,1.7,1.4-.3,4.4-.9,9-1.4,13.4-.2,1.4-.5,6.4-.9,7.5-.3.2-.6.2-.9.2s-.4,0-.6-.2c-.2-.2,0-2.5.1-2.9l1.9-19.4h0Z" fill="#915e29"/>
  <path d="M38.5,103.8h1.1c1.2,1,1.7,2,1.9,3.5-1.6.6-3.4.8-5.1.8s-2.7-.2-3.2-.6h0c0-.5.3-1,.6-1.3,1.1-1.3,3-2.2,4.7-2.4Z" fill="#d61f26"/>
  <path d="M54.6,101.7c.7,0,1.3,0,1.9.5.9.6,1.3,1.5,1.4,2.5-1.3.8-3,.9-4.5,1-1.2,0-2.3,0-3.5-.2,0,0,0-.3,0-.4,0,0,0-.3.2-.4,0,0,0-.3.2-.4,0,0,.2-.2.2-.4,1-1.3,2.3-2,3.8-2.3h.2Z" fill="#d61f26"/>
  <path d="M17,45.4h.7c-.1.3-.3.6-.4.8h-.8c-1.5,0-5.3.3-6.6.8-.5.2-.9.4-1.2.8-.3.3-.5.7-.6,1.2-.2,1.1,0,2.4,0,3.5v6.6q-.2,0-.4,0c-.5-.5-.7-.9-.8-1.6-.1-1.5,0-3.2,0-4.7s-.1-3.3.1-4.6c0-.4.2-.9.5-1.2.3-.4.8-.6,1.3-.7,1-.3,2.2-.3,3.2-.4l5.1-.4h0Z" fill="#99ba93"/>
  <path d="M29,42.6c.6.3,1.2.8,1.8,1.2,2.6,1.6,5.5,2.5,8.6,2.4-.3.2-.5.5-.8.7-.2,0-.5.2-.7.4-1.4.6-2.9.5-4.3,0-2.2-.8-3.6-2.6-4.6-4.6h0Z" fill="#ffd499"/>
  <path d="M43.3,93.8c2.4.6,4.3.6,6.6,0,0,.4,0,.9-.2,1.3-.4,0-.8,0-1.2,0-.5,0-1.1.3-1.6.7-.3.3-.5.7-1,.9-.5.2-1.2,0-1.7-.2-.7-.3-1.1-.7-1.3-1.4,0-.5.2-.9.3-1.4h.1Z" fill="#909090"/>
  <path d="M28.6,94.6c2.1,1.1,4.1,1.1,6.3.5l-.2,1.3h-.8c-1.7.3-1.7.8-2.9,1.3h-.4c-.9-.2-1.7-.6-2.2-1.4,0-.6,0-1.2.2-1.8h0Z" fill="#909090"/>
  <path d="M44.7,61.8h.9c-.9.9-1.7,1.6-2.3,2.7-.6,0-2.3.3-2.8,0,0,0,0-.2-.2-.3-.3-.8-.9-1.5-1.4-2.2,1.9,0,3.8,0,5.8-.2Z" fill="#5aba47"/>
  <path d="M34.4,97.4c.4,0,.8,0,1.2.2.5.4.4,1.3.4,1.8-.9,0-1.6,0-2.5,0-.3,0-.6.2-1,.4-.1-.3-.3-.7-.3-1s0-.7.1-.9c.4-.5,1.4-.7,2-.7h0Z" fill="#d61f26"/>
  <path d="M32.7,55.1c.4,0,2.6,3.9,2.8,4.5-.4,0-.7-.3-1.1-.4-.4,0-.8-.2-1.3-.4-.7-.9-1.3-2-1.8-3.1.5-.2.9-.4,1.4-.6Z" fill="#d7787c"/>
  <path d="M49.6,96.1h0c.3,0,.6,0,.8.2.4.3.4,1,.5,1.5-1,.2-1.8.3-2.7.7l-.7.4c0-.6-.4-1.2-.5-1.8.6-.7,1.6-.9,2.5-1h.1Z" fill="#d61f26"/>
  <path d="M30.1,51h.2c.5.4.9,1.4,1.2,2-.3.2-.6.4-.8.5l-.4.2h0c-.3-.4-.8-1.6-.7-2.1.2-.2.4-.4.6-.5h-.1Z" fill="#bf6328"/>
  <path d="M9.9,60.7h1.6c0,.6,0,1.3-.2,1.9h-1.6c0-.7,0-1.3.2-2h0Z" fill="#915e29"/>
  <path d="M39.3,66.4h.2c.3.4.6,1.3.7,1.8q0,.2,0,.4t-.4-.2c-.5-.5-.9-1-1.3-1.7.3,0,.6-.2.9-.3Z" fill="#ffcc7b"/>
  <path d="M31.9,53.6c.3.2.5.6.6.9-.4.3-.8.5-1.3.8-.3-.2-.5-.8-.7-1.1.4-.2.8-.4,1.3-.6h.1Z" fill="#d7787c"/>
</svg>