<?xml version="1.0" encoding="UTF-8"?>
<svg id="Layer_1" xmlns="http://www.w3.org/2000/svg" width="80" height="115" version="1.1" viewBox="0 0 80 115">
  <!-- Generator: Adobe Illustrator 29.4.0, SVG Export Plug-In . SVG Version: 2.1.0 Build 152)  -->
  <defs>
    <style>
      .st0 {
        fill: #fcd272;
      }

      .st1 {
        fill: #704722;
      }

      .st2 {
        fill: #d60000;
      }

      .st3 {
        fill: #5aba47;
      }

      .st4 {
        fill: #bf6328;
      }

      .st5 {
        fill: #636363;
      }

      .st6 {
        fill: #fff;
      }

      .st7 {
        fill: #3e87c1;
      }

      .st8 {
        fill: #262626;
      }

      .st9 {
        fill: #905d2a;
      }

      .st10 {
        fill: #fecc7a;
      }

      .st11 {
        opacity: .6;
      }

      .st12 {
        fill: #a8a8a8;
      }

      .st13 {
        fill: #fed398;
      }
    </style>
  </defs>
  <path class="st6" d="M25.155,106.041l1.481,3.287,4.907,2.649,4.919.997,4.415-.869,1.396-1.837-.428-3.631c-1.19-1.042-4.255-3.949-5.439-5.076l-3.503.203-7.747,4.277Z"/>
  <path class="st6" d="M40.336,104.959l3.389,2.766,7.633,2.458,6.124-.236,2.136-2.374-1.367-3.811-6.124-4.145-9.513,2.763c-2.009.277-2.369,1.323-2.279,2.58Z"/>
  <polygon class="st6" points="32.546 75.169 22.606 65.998 47.057 64.844 58.151 73.289 32.546 75.169"/>
  <path class="st8" d="M36.652,1.539c8.88-.409,19.529,3.466,23.058,12.233.218.685.713,1.618.22,2.273-.594.22-2.842-1.046-3.565-1.343,1.153,1.474,4.665,8.785.013,5.774-.406,3.393-1.783,6.837-2.674,10.114-.153,4.671-1.4,9.02-5.309,11.897,2.17,1.641,6.007,7.389,7.285,9.817-.168.426-.375.84-.581,1.253,1.845,1.932,3.5,4.564,2.584,7.311l.103.065c1.582-.005,2.91,1.388,4.263,2.105,4.012,2.567,8.047,5.1,12.026,7.712,1.925.983,1.465,4.352.891,6.02-.53,1.098-1.421,1.64-2.532,2.028.052,1.859.12,4.456-1.175,5.916.163,3.918.505,14.035.659,18.097-.101,2.074.753,4.822-.232,6.665-.989,1.096-3.455.839-3.604-.84-.203-2.108-.17-5.834-.297-7.996,0,0-.594-15.139-.594-15.139-4.645.386-9.313.557-13.951.956-.71,3.371-1.045,6.883-1.886,10.218,1.199.338,1.253,1.887,1.434,2.906,2.135,2.353,6.26,2.619,7.13,6.084,1.746,8.616-13.393,4.783-17.232,1.95,1.931,10.003-15.04,5.483-17.826.117-.698-1.486.336-5.322.658-6.924.349-1.285.167-3.235,1.705-3.72.058-2.993.303-6.011.581-8.991-1.098.078-2.196.129-3.294.207l-.633,17.387c-.338,2.307.529,5.074-.684,7.105-.936.761-2.668.641-3.359-.388-.614-2.683.16-5.658.013-8.435.19-4.615.225-11.853.543-16.392-3.044-2.335-5.912-4.933-8.9-7.337-.46,5.088-1.379,12.343-1.899,17.452-.239,1.462-.04,3.132-.723,4.457-1.088,1.163-3.646.561-3.462-1.253.479-6.524,1.731-17.189,2.196-23.704-1.33-1.307-.346-4.582-.271-6.42-1.02-.762-2.183-1.511-2.48-2.842-.336-2.268-.056-5.108,2.842-5.128.129-.762.155-1.524.207-2.286-1.486-.118-2.952-.966-3.203-2.545-.181-.904-.142-9.326,0-10.321.135-2.877,3.1-3.395,5.426-3.397,2.532-.235,5.067-.424,7.595-.685,2.364-3.1,4.469-4.159,8.241-4.805-1.059-1.214-1.692-2.726-2.196-4.237-6.236,1.327-10.166-7.655-5.916-11.897-1.033-5.397-.209-11.385,4.289-15.01-2.715-1.844.152-2.875,2.08-2.106-.036-3.126,1.895-5.248,3.126-1.137,2.868-1.963,5.916-2.584,9.301-2.881l.013.039ZM33.113,69.524c-1.382,1.209-3.119.927-4.457-.194-1.059,0-1.679-.181-2.609-.659,2.264,2.005,4.425,4.372,6.911,6.058,6.713-.447,17.759-1.294,24.427-1.783-.71-.465-5.296-3.63-5.71-3.539-.4.09-.762.362-1.175.478-.284-.09-.568-.181-.84-.31-.478.284-.904.452-1.447.555-.388-.129-.723-.284-1.085-.478-.931.301-1.875-.103-2.364-.93-1.86.473-2.026-1.65-1.692-2.958-.575-.017-2.089.024-2.48.465.103.995,1.55,3.049.698,4.134-1.101.931-2.643-1.651-3.436-2.299-.447.553-2.323,1.427-2.919,1.731-.616.239-1.266-.019-1.834-.271h.013ZM37.531,87.544c-.687,3.484-1.121,7.036-1.705,10.541,1.418.564.881,2.316,1.421,3.384.764.984,1.704,1.886,2.584,2.777.447-2.262.327-8.246,2.622-9.055-.04-2.647.54-5.34.659-7.983-1.8-.087-3.747.152-5.58.323v.013ZM41.315,111.053c.207-.284.375-.543.53-.853-5.661,1.829-12.131.051-16.25-4.159,1.438,5.118,11.465,7.945,15.734,5.012h-.013ZM51.378,103.91c1.305-.956,2.131-1.098,3.63-1.524-.568-.22-1.24-.646-1.86-.62-.911.228-3.144.823-3.229,1.938.258.297.607.439.969.594l.491-.388h0ZM48.575,59.409c-.297-.831-1.873-1.612-2.622-2.015-.026,1.124-.116,2.299-.413,3.397.478.039.93.142,1.408.233.574-.514,1.165-1.001,1.628-1.628v.013ZM34.133,103.432c.917-.491,1.834-.762,2.881-.801-1.321-1.03-3.51-.824-4.599.426-.265.366.044.874.413,1.021.502.135.869-.442,1.292-.646h.013ZM11.541,62.755c.347-.042.723-.013,1.059-.116-.213-.595-.153-1.235-.31-1.821-.194-.142-.349-.116-.581-.103-.065.672-.116,1.356-.155,2.028l-.013.013ZM48.924,102.812c.893-1.175,2.335-1.654,3.694-1.963v-.065c-.233-.155-.452-.31-.672-.452-1.288-.279-5.053.919-2.997,2.454l-.026.026ZM40.786,103.587c0,.388-.039.775,0,1.163,3.413,3.479,14.729,7.63,18.252,2.894-6.13,1.951-13.663.622-18.24-4.069l-.013.013ZM35.348,105.564c1.111-.555,2.144-.891,3.384-.995-.685-.543-1.214-.93-2.131-.865-1.083.182-3.882,1.141-2.338,2.519.375-.207.723-.426,1.085-.659Z"/>
  <path class="st13" d="M31.136,14.999c1.203,1.396,10.385,7.614,7.273,1.757,1.752,1.196,7.266,4.951,9.391,4.185.22-.568-.258-1.589-.452-2.157,1.688.832,8.436,5.208,5.942.142.698.284,1.343.698,2.002,1.085-.597,3.626-1.766,7.123-2.777,10.644.032,5.557-2.751,10.881-8.164,12.853-7.346,2.975-16.626-1.235-19.273-8.693-.198-.48-.018-1.551-.594-1.718-2.25.876-4.817.12-6.11-1.977-2.054-2.731-1.274-9.143,3.165-8.215,1.188.336,2.286,1.356,2.893,2.403.408.587.452,1.553,1.175,1.847,3.045-3.26,4.828-7.684,5.555-12.143l-.026-.013Z"/>
  <path class="st11" d="M33.565,35.15c.555.207.775,1.188,1.137,1.641,1.62,2.032,4.496,3.132,7.066,2.816.724-.028,1.539-.691,2.222-.271-.453,1.959-4.249,1.489-5.8,1.059-1.578-.217-6.784-3.646-4.612-5.245h-.013Z"/>
  <path class="st11" d="M43.938,32.076c2.663-.282,4.139,3.414,1.834,4.922-.852.599-3.037,1.081-3.345-.258.9-.478,2.392-.019,3.087-1.046,1.119-1.757-.951-2.319-2.118-2.906-.078-.168-.078-.155-.013-.323.181-.181.336-.258.568-.362l-.013-.026Z"/>
  <path class="st11" d="M33.087,29.001c.788,0,.865,1.318,1.692,1.796,1.19.693,2.245-.328,2.661-1.408.116-.207.181-.284.401-.349,1.356,1.079-.538,3.057-1.847,3.1-1.581.351-4.118-1.52-2.881-3.139h-.026Z"/>
  <path class="st11" d="M35.696,22.013c1.082-.09,3.177-.057,3.268,1.356-1.066.45-2.928-.607-4.108.065-.658.173-1.934,1.525-2.493.956.099-1.472,2.091-2.137,3.32-2.351l.013-.026Z"/>
  <path class="st11" d="M45.837,29.57c.853.597,1.227,2.219,2.726,1.757.896-.207.678-1.547,1.511-1.782,1.165,1.204-.601,3.121-2.002,3.023-1.376.096-3.499-1.709-2.209-2.997h-.026Z"/>
  <path class="st11" d="M20.195,25.165c2.269-.309,4.462,3.027,2.906,4.818-.181.013-.194.013-.349-.065-.439-4.883-2.777-2.945-3.552-3.759-.064-.549.541-.849.982-1.008l.013.013Z"/>
  <path class="st11" d="M49.092,23.434c1.176-.069,2.834.561,2.958,1.899-.039.181-.078.194-.233.271-.504,0-.749-.271-1.111-.594-1.554-.93-2.549.322-3.397-.504.264-.707,1.106-.984,1.783-1.072h0Z"/>
  <path class="st0" d="M36.691,2.895c8.604-.32,18.552,3.091,22.011,11.626-1.299-.625-3.69-2.024-5.167-1.834,1.35,2.013,3.346,4.412,3.862,6.975-1.163-.452-5.4-2.997-6.162-2.971l-.078.09c.041.854,1.111,2.305,1.395,3.229-2.666-.671-5.01-2.586-7.247-4.03-.155-.052-.22-.052-.362.013-.142.504,1.201,3.152,1.473,3.746-3.613-1.051-6.819-3.692-9.804-5.735l-.078.078c-.222,1.233.719,2.576,1.085,3.72-3.09-.682-5.169-3.728-7.531-5.4.1,4.69-1.77,8.903-4.444,12.698-1.284-2.393-3.931-4.418-6.717-3.216-1.171-5.3.683-10.969,5.025-14.145-.129-.549-.96-.527-1.15-1.008.336-.436,1.839-.064,2.364-.039.207-1.046.207-1.989.607-3.01.543.762.827,1.615,1.214,2.454h.026c2.858-2.047,6.129-3.145,9.675-3.242h0Z"/>
  <path class="st7" d="M25.892,40.033c.362-.039.723-.026,1.072-.026,1.152,6.371,9.327,11.954,14.132,5.58,2.251-.439,4.43-1.194,6.394-2.39,2.917,2.499,4.993,5.904,6.95,9.171-1.576,2.015-4.612,3.824-7.001,4.612-.504-.271-.93-.62-1.24-1.111-.244-1.429.968-6.015-.284-6.562-1.027,3.7-.506,7.822-1.498,11.587-2.199-.217-5.256,1.025-7.092-.439-2.096-2.753-4.722-8.684-6.975-10.955-.837-.136-1.81.762-2.08,1.498-.284,1.214,2.984,6.601,3.772,7.919-1.653.478-3.023,1.175-4.457,2.093-1.55-.672-3.087-1.331-4.663-1.925l.297-.685c.336-.052.891-.078,1.163-.31.772-1.365,1.858-7.225,1.279-8.952l-.129.026c-1.186,2.403-.978,5.356-1.808,7.931-2.518-2.228-6.615-2.926-9.817-2.028,1.786-5.79,4.835-14.665,12-15.049l-.013.013Z"/>
  <path class="st3" d="M57.359,61.747c1.321.232,2.433,1.144,3.552,1.821,2.893,1.898,6.605,4.147,9.468,6.033,1.047.961,4.164,1.833,3.734,3.488-1.235.978-3.144.504-4.638.763,0,0-6.226.439-6.226.439l-13.525.969c-9.101.48-18.491,1.8-27.579,1.589-1.782-.675-3.129-2.194-4.625-3.333-3.394-2.842-7.893-6.24-11.148-9.184,1.576-.594,4.883-.504,6.704-.633,2.506,3.111,6.91,3.642,10.618,4.147,2.018,2.255,4.651,4.168,6.859,6.265.762.586,1.428,1.552,2.454,1.602.93.052,1.912-.09,2.829-.155,5.137-.378,10.817-.758,15.914-1.175,1.493-.33,6.787.139,7.182-1.24-.596-1.113-4.919-3.495-6.136-4.586,1.566-2.23,3.181-4.43,4.521-6.82l.039.013Z"/>
  <path class="st9" d="M8.234,71.758c1.953,1.554,3.81,3.346,5.787,4.896,2.478,1.857,6.044,6.308,9.262,5.865,8.738-.437,38.898-2.811,48.092-3.436-.078,1.483.184,3.64-1.098,4.65-2.682,1.061-5.82.664-8.668,1.021-6.744.429-20.528,1.345-27.308,1.808-1.963.142-11.031.943-12.091.633-.517-.142-1.072-.53-1.498-.84-1.709-1.233-5.038-4.136-6.743-5.451-2.023-1.743-4.552-3.031-6.123-5.232.026-1.305.297-2.609.362-3.914h.026Z"/>
  <path class="st1" d="M21.991,82.79c.848.472.65,2.937.581,3.772-.155,0-.22-.026-.349-.103-.388-.646-.31-2.894-.233-3.669Z"/>
  <path class="st3" d="M5.921,65.235c1.361,1.199,8.848,7.436,10.463,8.706,2.312,1.945,4.881,4.651,8.035,4.12,9.551-.442,19.116-1.243,28.651-1.937,0,0,12.737-.904,12.737-.904,2.799-.306,5.847.073,8.474-1.085.156,1.654-.501,3.533-2.377,3.707-5.529.439-11.057.84-16.586,1.214l-33.133,2.377c-.026-.84.052-1.925-.284-2.7h-.09c-.388.646-.31,1.77-.336,2.519-4.314-3.16-8.266-6.828-12.401-10.231-2.225-1.827-3.973-2.564-3.152-5.787Z"/>
  <path class="st13" d="M15.622,55.857c2.03-.134,5.089.122,6.665,1.563-.078.452-.181.865-.31,1.292-1.026-.185-2.502-.929-3.41-.168-.039.181-.052.207.013.375,2.685.732,6.432,2.148,9.12,3.165,1.757-.865,3.759-2.441,5.852-2.131,1.758-.174,9.297,6.327,4.379,5.736-1.195-.561-2.864-3.976-4.469-3.553l-.039.142c.194.891,2.816,3.178,3.565,4.004.681.496.054,1.278-.543,1.473-1.232-.612-2.003-2.219-3.204-3.022-.409-.34-1.326-1.308-1.86-.853.023,1.163,3.616,3.186,3.759,4.508-1.413,1.882-3.733-2.86-5.374-2.493-.194.956,2.028,1.976,2.17,3.01-.697,1.212-2.293-.294-3.139-.555-1.419-.062-2.51-.806-3.772-1.383-6.847-.923-14.367-2.061-10.605-10.928.388-.078.801-.116,1.188-.168l.013-.013Z"/>
  <path class="st5" d="M47.257,71.655c.039,0,.065,0,.103.026.233.052.375.142.504.349.113.387-.218.663-.555.749-.813-.08-.835-.937-.052-1.124h0Z"/>
  <path class="st5" d="M49.763,71.397c.764-.07,1.054.58.4,1.02-.737.19-1.129-.747-.388-1.033l-.013.013Z"/>
  <path class="st5" d="M52.36,71.009c.729-.118,1.167.643.452,1.059-.699.11-1.064-.663-.439-1.059h-.013Z"/>
  <path class="st5" d="M42.633,70.286c.759-.072,1.167.632.413,1.033-.681.169-1.036-.684-.426-1.033h.013Z"/>
  <path class="st5" d="M44.093,72.043c.708-.126,1.374.312.646.93-.637.257-1.208-.445-.646-.93Z"/>
  <path class="st5" d="M33.345,70.996c.336.039.757.17.788.568-.039.233-.181.349-.349.504-.711.143-1.164-.703-.439-1.059v-.013Z"/>
  <path class="st5" d="M40.992,72.172c.711-.11,1.171.572.452,1.008-.69.159-1.092-.606-.465-1.008h.013Z"/>
  <path class="st5" d="M38.151,72.417c.725.022.944.757.245,1.072-.74-.06-1.009-.771-.233-1.072h-.013Z"/>
  <path class="st5" d="M45.552,69.769c.347-.007.856.019.956.426-.065.245-.155.297-.323.465-.674.261-1.235-.356-.62-.891h-.013Z"/>
  <path class="st5" d="M39.119,70.428c.334-.061.828-.022.827.413-.065.22-.168.336-.323.504-.633.207-1.207-.53-.517-.93l.013.013Z"/>
  <path class="st5" d="M34.65,72.856c.013,0,.026-.013.052-.026.013,0,.026-.013.052-.026.013,0,.039,0,.052-.013.102.009.214-.019.31.013.013,0,.039,0,.052.026.013,0,.026.013.052.026.013,0,.026.013.039.026.028.015.041.048.078.078,0,.013.026.026.039.039.022.032.027.045.052.09,0,.013.013.026.026.052,0,.013,0,.039.013.052-.009.102.019.214-.013.31,0,.013,0,.039-.026.052,0,.013-.013.026-.026.052,0,.013-.013.026-.026.039-.015.028-.048.041-.078.078-.013,0-.026.026-.039.039-.069.052-.173.016-.271.026-.102-.01-.229.021-.336-.013,0,0-.013,0-.026-.013,0,0-.013,0-.026-.013,0,0-.013,0-.026-.013,0,0-.013,0-.026-.013l-.013-.013c-.012-.006-.019-.029-.026-.039,0,0,0-.013-.013-.026,0,0,0-.013-.013-.026,0,0,0-.013-.013-.026.011-.181-.022-.384.013-.568,0,0,0-.013.013-.026,0,0,0-.013.013-.026,0,0,0-.013.013-.026,0,0,0-.013.013-.026l.013-.013.013-.013s.013,0,.026-.013c0,0,.013,0,.026-.013,0,0,.013,0,.026-.013,0,0,.013,0,.026-.013l-.013.013Z"/>
  <path class="st5" d="M36.213,70.893c.365-.05.825.015.93.439-.065.22-.129.258-.284.413-.374.093-.79.003-.891-.413.026-.22.078-.284.233-.452l.013.013Z"/>
  <path class="st13" d="M54.104,54.333l.168.026c4.626,4.191,1.763,7.553-.969,11.613-.444.666-2.017,3.279-2.945,2.713-.426-.717,2.109-2.818,1.15-3.475-1.276.138-1.978,4.736-3.449,3.565-.592-.94,2.023-3.338,1.498-4.379-1.518-.249-1.993,5.017-3.552,4.043-.824-.977,1.929-3.622,1.77-4.754-.116-.129-.103-.09-.258-.103-.736.323-1.641,2.002-2.028,2.764-.302.52-.453,1.347-1.137,1.473-1.777-2.621,4.791-6.941,6.497-8.694.77-.603,1.858-.778,2.648-1.304.129-.103.103-.155.116-.323-1.14-.894-3.121.705-4.108,1.292-.271-.336-.504-.698-.749-1.046,1.989-.865,3.656-2.067,5.348-3.397v-.013Z"/>
  <path class="st3" d="M15.493,46.75c.168,0,.297-.052.439.052-.459,1.897-4.543,8.357-2.829,9.83-.258,1.008-.491,2.041-.672,3.061-1.385-.022-2.876.172-4.211-.168-.811-1.793-.216-4.182-.362-6.149-.692-7.272,1.621-6.022,7.635-6.627Z"/>
  <path class="st13" d="M51.314,86.536c.22-.026.452-.026.672-.026l-1.201,7.415c-1.974,1.067-5.117,1.04-7.105.026.173-2.311.452-4.603.659-6.911,2.325-.078,4.676-.323,7.001-.504h-.026Z"/>
  <path class="st13" d="M35.632,87.634l.646-.039c-.385,2.505-.616,5.116-1.175,7.583-2.017,1.118-4.75.819-6.665-.362.052-2.248.413-4.495.543-6.743,2.209-.026,4.457-.284,6.665-.439h-.013Z"/>
  <path class="st9" d="M21.345,88.034c.685.129,1.356.297,2.041.452-.379,7.77-.125,15.685-.891,23.394-.503.235-1.201.382-1.679.026-.362-.723.452-21.378.517-23.884l.013.013Z"/>
  <path class="st9" d="M70.16,85.115c.129.258,1.033,22.864.84,23.368-.278.531-1.238.348-1.718.245-.622-5.351-.666-17.748-1.033-23.303.659-.039,1.279-.142,1.925-.323l-.013.013Z"/>
  <path class="st2" d="M42.207,96.754c.558,1.925,2.413,2.84,4.508,2.519.181.555.4,1.098.607,1.653-.541,1.305.382,2.271,1.473,2.829.659.517.994.995,1.769,1.499-.413.633-.646,1.24-.878,1.951-2.896-.704-6.936-2.093-8.513-4.767.039-1.008.685-4.779,1.033-5.671v-.013Z"/>
  <path class="st2" d="M27.106,98.498c1.089,1.077,2.373,1.884,3.953,1.834.142.62.336,1.214.543,1.821-.857,1.354.031,2.253.956,3.178.336.478.491.995.865,1.46-.614.684-.889,1.422-1.227,2.248-2.384-.648-4.802-2.176-6.317-4.172.129-1.796.762-4.586,1.227-6.381v.013Z"/>
  <path class="st9" d="M8.608,78.191c.633.31,1.279.982,1.796,1.473-.653,6.917-1.324,14.959-2.403,21.727-2.316,1.16-1.401-1.789-1.343-3.062,0,0,1.963-20.151,1.963-20.151l-.013.013Z"/>
  <path class="st2" d="M38.629,105.525c.375-.039.762-.013,1.137-.013,1.309.95,1.873,2.033,2.08,3.617-2.546.879-6.278,1.334-8.655.104.536-2.232,3.39-3.417,5.451-3.708h-.013Z"/>
  <path class="st2" d="M55.344,103.329c1.834-.245,3.287,1.446,3.449,3.165-2.485,1.274-5.536,1.244-8.241.827.609-2.187,2.591-3.685,4.792-3.992h0Z"/>
  <path class="st3" d="M16.307,44.812l.685-.026c-.142.31-.31.607-.465.891-12.917.098-9.163,2.961-9.611,13.395-2.224-.101-1.13-9.549-1.176-11.497.356-2.445,3.39-2.15,5.245-2.351,0,0,5.296-.452,5.296-.452l.026.039Z"/>
  <path class="st13" d="M28.811,41.932c3.135,2.298,6.829,3.946,10.812,3.746-3.644,3.486-9.263.367-10.812-3.746h0Z"/>
  <path class="st12" d="M43.589,95.204c2.454.659,4.431.646,6.885.039-.09.439-.142.891-.207,1.343-1.583-.124-2.81.687-3.888,1.705-1.2.3-2.715-.495-3.126-1.667.078-.491.194-.956.336-1.434v.013Z"/>
  <path class="st12" d="M28.359,95.953c2.144,1.098,4.263,1.188,6.549.568l-.168,1.408c-1.779-.094-2.563.862-3.837,1.421-1.113-.09-2.092-.541-2.726-1.473.011-.65.108-1.287.181-1.925Z"/>
  <path class="st3" d="M45.036,61.928c.31-.039.646-.039.956-.052-.891.93-1.731,1.679-2.416,2.79-3.994.518-2.309.049-4.534-2.493,1.989-.129,4.004-.129,5.994-.245h0Z"/>
  <path class="st2" d="M34.379,98.937c1.454-.253,1.721.988,1.641,2.157-1.246-.16-2.462-.067-3.578.555-1.001-1.83.134-2.651,1.938-2.739v.026Z"/>
  <path class="st2" d="M32.648,54.979c.388.155,2.661,4.069,2.932,4.624-.787-.325-1.603-.616-2.428-.814-.736-.956-1.369-2.131-1.925-3.204.478-.207.956-.413,1.421-.62v.013Z"/>
  <path class="st2" d="M50.177,97.516c1.054-.221,1.396.856,1.395,1.705-1.247.176-2.436.466-3.462,1.214-.142-.633-.388-1.24-.555-1.873.672-.736,1.679-.943,2.635-1.033l-.013-.013Z"/>
  <path class="st4" d="M29.961,50.651h.181c.568.452.956,1.434,1.279,2.054-.383.286-.862.502-1.266.762-.404-.437-.881-1.696-.865-2.273.168-.233.439-.388.672-.555v.013Z"/>
  <path class="st9" d="M8.931,60.791c.543.013,1.098,0,1.641,0-.052.672-.103,1.343-.181,2.015-.543.052-1.085.039-1.615.039.116-.685.155-1.382.155-2.08v.026Z"/>
  <path class="st10" d="M39.455,66.682h.181c.336.509.95,1.633.594,2.235-.8-.318-1.249-1.245-1.757-1.925.336-.078.659-.207.982-.31Z"/>
  <path class="st2" d="M31.744,53.377c.362.181.517.594.672.943-.413.323-.878.568-1.343.801-.323-.181-.53-.788-.698-1.111.443-.256.885-.464,1.369-.633Z"/>
</svg>