<?xml version="1.0" encoding="UTF-8"?>
<svg id="Layer_1" xmlns="http://www.w3.org/2000/svg" version="1.1" viewBox="0 0 80 115">
  <!-- Generator: Adobe Illustrator 29.1.0, SVG Export Plug-In . SVG Version: 2.1.0 Build 142)  -->
  <path d="M24.1,6.7c2.5-2,4.8-3.2,7.9-3.9,5.6-1.2,12,0,16.8,3,2.2,1.3,4.1,3.4,5.3,5.6.3.5.5,1.1.7,1.6,1.3,4.2,1,7.5-.4,11.6-.4,1.4-1,2.8-1.3,4.2-.7,3-.5,5.2-2.1,8.2s-2,3.2-3.5,4.1c2.1,1.3,5.2,5.9,6.6,8.1.4.6,1,1.4,1.2,2,0,.2,0,.4,0,.5,0,.2-.3.3-.4.5,1.5,1.5,2.8,3.9,2.8,6s0,.8-.2,1.3c.4,0,.8.3,1.2.5.9.5,1.8,1.1,2.6,1.6l4.6,2.9c1.9,1.2,3.7,2.3,5.6,3.5.7.5,1.5.9,2.2,1.4.4.3.8.6,1.1,1,.5.8.3,3.9,0,4.8-.2.9-.8,1.6-1.6,2-.3.2-.6.3-.9.4,0,1.9.3,3.9-1.1,5.5,0,0,0,0,0,.2,0,1,0,2,.2,3l.2,4.4c0,1,0,2,0,2.9v3.4l.3,6.7c0,1,.2,2.1,0,3.1,0,.4-.2.7-.5,1-.5.5-1.2.6-1.8.5-.5,0-.9-.2-1.2-.5-.4-.5-.4-1.1-.4-1.7-.2-5.6-.4-11.2-.7-16.7,0-1.8,0-3.6-.2-5.4-1.7.2-3.5.2-5.2.4l-5.1.3c-1.3,0-2.5.2-3.8.2-.3,2.3-.7,4.6-1.1,6.8-.2,1.3-.5,2.7-.6,4,.4.2.7.3.9.8.3.7,0,1.8.5,2.4.3.4.8.6,1.2.8,2.4,1.3,4.9,2.3,5.5,5.2.2.8.2,1.7,0,2.5-.4,1-1.4,1.5-2.4,1.9-3.6,1.2-8.2,0-11.4-1.7-1.3-.7-2.6-1.4-3.8-2.3.4,1.3.9,2.9.2,4.3s-1.6,1.6-2.7,1.9c-3.4,1-7.3,0-10.3-1.7-1.1-.6-2.1-1.3-3-2.2l-.4-.4c-.9-1.3-1-2-.7-3.5.2-1.6.6-3.2,1-4.7.2-.7.3-1.4.6-2.1,0-.2.2-.4.4-.5.2,0,.4-.2.7-.3,0-3.2.4-6.4.6-9.6-1.1.2-2.2,0-3.3.3-.2,1.9-.2,3.8-.3,5.7l-.5,13.3c0,1.2,0,2.3-.1,3.5v2.2c0,.3-.2.6-.4.8-.3.3-.7.4-1.2.4s-1.3-.2-1.8-.6c-.2-.2-.3-.4-.4-.7-.2-.8,0-1.9,0-2.7v-3.2c.1-.9,0-1.8,0-2.7.1-.9.1-1.8.1-2.6v-4.3c.1,0,.3-6.8.3-6.8,0-.9,0-1.8.1-2.7-1.6-1.2-3.1-2.5-4.7-3.8-1.3-1.1-2.6-2.2-3.8-3.3,0,1.6-.3,3.2-.5,4.8l-1.1,10.7c0,1.5-.4,3-.4,4.5,0,.6,0,1.3-.5,1.7-.4.4-.9.5-1.4.5s-1.2-.2-1.6-.7c-.2-.3-.3-.6-.3-1,0-.6,0-1.2.1-1.7l.3-3,.9-9.5c.2-1.6.4-3.2.5-4.9,0-.4,0-.8,0-1.2,0-1.1.2-2.3.4-3.3-.3-.4-.7-.8-.9-1.2-.2-.3-.3-.6-.4-.9-.2-1.1,0-3.5.2-4.6v-.3c-.3-.6-1.7-1.1-2-2.4-.2-.7-.2-2.8,0-3.6,0-.3.1-.6.3-.9.5-.7,1.6-.8,2.4-1v-2.5c-.6,0-1.1-.4-1.5-.8-.4-.5-.9-1.1-1-1.7-.3-1.1-.2-2.4-.2-3.6-.5-1.8-.5-3.9-.5-5.9s0-1.9.9-2.6c.4-.4.8-.6,1.3-.7,1.4-.4,3.1-.4,4.6-.5,1.9-.2,3.9-.4,5.9-.4.5-.5.9-1.1,1.5-1.6,1.8-1.8,4.1-2.9,6.7-3.1-.9-1.4-1.6-2.8-2.1-4.4-1,0-1.9,0-2.9-.2-1.6-.5-2.8-1.7-3.6-3.2-.9-1.7-1.1-4.2-.5-6,.5-1.4,1.4-2.4,2.8-3-.2-1.2-.1-2.4,0-3.6.1-.8.2-1.6.3-2.3.6-3.5,2.1-5.9,4.5-8.4h-.2ZM25.1,67.2c1.6,1.3,3.1,2.8,4.6,4.2.8.8,1.6,1.6,2.5,2.2,1.1,0,2.3,0,3.4-.3,4.8-.2,9.7-.7,14.5-1l4.1-.3c.7,0,1.5,0,2.2-.2-1.7-1.3-3.4-2.6-5.2-3.7-.5.2-.9.4-1.4.2,0,0-.2,0-.3,0-.2,0-1,.7-1.6.8-.4,0-.8-.3-1.2-.6-.6,0-1.2,0-1.6-.4-.2-.2-.3-.3-.4-.5-.6,0-1.2,0-1.7-.5-.3-.3-.4-.7-.4-1.1s.4-1.1.4-1.3h-.2c-.7,0-2,0-2.6.2v.3c.2.7.6,1.3.8,2,0,.5.6.9.2,1.5,0,0-.2.2-.4.2-1,.2-1.9-1.3-2.9-1.4h-.2c-.6.3-1.1.3-1.8.3-1,.7-1.5,1-2.8.8h-.2c-1,.5-1.5.8-2.6.5-.6-.2-1.1-.5-1.7-.7-.5-.2-1.1-.3-1.6-.4-.6-.2-1.2-.4-1.8-.7h0ZM35.7,97.1l.5.3c.9,1.6-.3,2.4,1.6,4.1.8.7,1.6,1.4,2.4,2.1.2-1.8.5-3.6.9-5.4s.4-1.8.7-2.7c.3-.3.5-.4,1-.5,0-1.2.9-8.9.8-9.4h0c-1.2,0-2.4.2-3.7.2s-1.5,0-2.3,0c-.2.9-.3,1.7-.4,2.6-.2,1.2-.4,2.4-.6,3.6l-.5,3.1c-.1.6-.3,1.2-.3,1.8h-.1ZM41.2,103.5c2.5,2.4,6.7,4.3,10,4.8,1,.2,2,.2,3,.2s2.9-.3,3.8-1.3h0c.2-.3.3-.6.4-.9-2.8,1.6-6.3,1.2-9.3.4-2.1-.6-4.2-1.6-6-2.7-.6-.4-1.2-1-1.8-1.4v.9h-.1ZM34.9,100.7c-.7,0-2.2.4-2.6.9,0,0-.1,0,0,.3,0,.2.3.5.4.7.3,0,.6-.2.9-.4,1-.4,2-.7,3.1-.7-.2-.3-.5-.5-.7-.8h-1.1ZM33.1,103.6l.3.4c0,.2.2.3.4.3.4,0,1-.3,1.3-.5,1.1-.4,2.1-.5,3.2-.5-.4-.5-.8-.8-1.4-.9h-.9c-1.1.2-2,.5-2.9,1.1h0ZM50.3,102c.3.2.6.5.9.8l.5-.3c.9-.6,1.9-1,3-1.2-.5-.3-1.2-.7-1.7-.6-1.1.3-1.7.8-2.6,1.4h-.1ZM49.4,101.2l.4-.2c.8-.6,1.5-1,2.5-1.3-.4-.3-.7-.4-1.2-.3s-1.9.6-2.2,1.1h0c0,.4.4.5.7.7h-.2ZM11.5,61.4h1v-.4c-.2-.4,0-1.3-.3-1.6h0s-.3,0-.3,0c-.3.4,0,1.4-.2,1.8h0ZM45.5,55.7c0,1.3-.2,2.6-.5,3.9h2.1c.2-.2.4-.3.7-.5s.6-.4.8-.7c-.2-.4-.5-.9-.7-1.3-.4.2-.8.3-1.2,0-.6-.3-.8-1.2-1.2-1.7v.2ZM40.6,109.3c0-.2.4-.5.3-.8-.3,0-.6.3-.8.4-.5.2-1,.3-1.4.5-3.1.7-6.8-.3-9.5-1.9-.8-.5-1.7-1-2.3-1.6-.4-.4-.8-1.1-1.3-1.4,0,.9.1,1.4.8,2.1,2.1,2.3,6,3.9,9.1,4.1,1.5,0,3.7,0,4.9-1.1,0,0,.2-.2.3-.3h0Z" fill="#69431f"/>
  <path d="M30.3,13.2c2.7,1,5.4,1.7,8.3,2.2,3.7.6,9.4,1.3,13,0,.6-.2,1.1-.5,1.7-.9.7,1.3,1.1,2.9,1.1,4.4,0,3.6-1.4,6.6-2.2,10-.5,2.2-.5,4.3-1.3,6.5-.6,1.4-1.4,2.7-2.5,3.9-2.6,2.8-6,3.9-9.8,4-1.3,0-2.6,0-3.8-.5-4.2-1.1-7.6-3.8-9.4-7.7-.4-.9-.7-2.2-1.1-2.9-.4-.2-1.5.4-2,.4-1.3,0-2.5-.8-3.4-1.8-1.1-1.2-1.5-3.1-1.3-4.7,0-1.2.6-2.3,1.5-3.1.6-.5,1.4-.8,2.2-.7,1.4.1,2.5,1.2,3.1,2.4.3.5.6,1.2,1,1.7.2,0,.3,0,.4-.1.4-.4.7-.9,1-1.4,1.4-2.2,2.6-4.7,3.1-7.3.3-1.4.3-2.7.5-4.1v-.3Z" fill="#9f5e2c"/>
  <path d="M33.1,34.2c.2,0,.4,0,.5.2.3.3.5.8.7,1.2.7,1,2,1.9,3.1,2.3,1.1.5,2.4.7,3.6.5.4,0,1.5-.5,1.8-.3,0,0,0,0,0,.3,0,.3-.3.5-.5.6-.7.5-1.7.6-2.6.6-2.1,0-4.5-1.2-6-2.7s-1.2-1.3-1.1-2c0-.3.2-.5.4-.6h0Z" fill="#010101" isolation="isolate" opacity=".5"/>
  <path d="M32.6,27.1h.3c.3.2.3.6.4.9.1.6.4,1,.9,1.3.3.2.9.3,1.2.2.9-.3,1.1-1.1,1.5-1.8,0-.2.2-.4.5-.4,0,0,0,0,.2.2.2.4,0,.8,0,1.2,0,.3-.2.6-.4.8-.4.6-1,1.1-1.7,1.2h-1.6c-.6-.4-1.1-1.1-1.2-1.8,0-.5,0-1,.3-1.5l-.4-.3Z" fill="#010101" isolation="isolate" opacity=".5"/>
  <path d="M35.2,20.4c1-.1,2.2,0,3,.5.2.1.5.4.6.7,0,.1,0,.3-.2.4-.2.2-1.8-.3-2.1-.4h-1.2c-1.1.1-1.8.7-2.8,1h-.5v-.2c0-.3.2-.7.4-.9.7-.7,1.9-1.1,2.8-1.2h0Z" fill="#010101" isolation="isolate" opacity=".5"/>
  <path d="M43.9,31.9h1c0,.2,0,.1,0,.2h0q0,.1,0,.2h0c.3.6.3,1.1.2,1.7-.2.6-.7,1.1-1.3,1.4-.9.4-1.9.4-2.8,0-.2,0-.4-.2-.5-.4s-.3-.4-.3-.7c.3-.3,1.2,0,1.7.2h1c.5,0,1-.4,1.3-.8.6-.9-.7-1.3-.9-1.9,0-.2,0-.2.3-.3v.4Z" fill="#010101" isolation="isolate" opacity=".5"/>
  <path d="M45.2,28.2h.2c.3.4.2,1.1.3,1.5h0c0,.1.3.3.4.4,1.6.9,2.3-1.4,3.1-1.5h.2c.2.5,0,.8,0,1.3-.2.4-.5.7-.8.9-.5.4-1.2.6-1.9.5-.6,0-1.2-.4-1.6-.9-.3-.4-.5-1-.4-1.5,0-.4.2-.7.5-.9v.2Z" fill="#010101" isolation="isolate" opacity=".5"/>
  <path d="M48.2,21.6h1c.8.2,1.7.6,2.2,1.3.2.3.3.7.2,1.1q0,.1-.2.2c-.3,0-.6-.4-.9-.6-.6-.4-1.3-.7-2-.7s-1.3.4-1.7.2h0c0-.3,0-.6.2-.8.3-.4.9-.5,1.4-.6h-.2Z" fill="#010101" isolation="isolate" opacity=".5"/>
  <path d="M20.6,24.4c.4,0,.8,0,1.1.3.8.5,1.3,1.4,1.6,2.3.1.4.3,1.1,0,1.5q0,.1-.2.1c-.3-.1-.4-.4-.5-.7-.2-.6-.5-1.2-.9-1.6-1.1-1.3-1.4-.2-2-.4-.2,0-.3-.2-.4-.4,0-.2,0-.3.1-.4.3-.4.7-.6,1.2-.7Z" fill="#6a431f"/>
  <path d="M25.2,39.1c.5,0,1.1,0,1.5.2.7.5.8,1.9,1.2,2.6.8,1.7,2.1,3.2,3.8,4.2,1.6.9,3.4,1.3,5.2.8,1.5-.4,2.8-1.4,3.5-2.7,2.4-.2,4.5-1.1,6.5-2.4,2,1.7,3.6,3.7,5.1,5.8.8,1.2,1.7,2.3,2.4,3.6-.7.5-1.4,1-2.1,1.4-1.7,1.2-3.4,2.5-5.2,3.4-.4-.7-1-1.6-1.2-2.4-.2-.7,0-1.7,0-2.4s0-1.7,0-2.5,0-.6-.3-.8h-.3c0,.2-.2.3-.2.5-.2,1.1-.2,2.2-.3,3.3-.3,2.6-.5,5.2-.9,7.8-1.6,0-3.1.2-4.7.2h-2.3c-1-.9-2-2.9-2.7-4-.8-1.4-1.7-2.8-2.5-4.1-.4-.7-.8-1.6-1.4-2.2-.1-.2-.3-.3-.5-.3-.5-.2-1,0-1.5.4-.5.3-.8.6-.9,1.2.4,1.5,3,5.8,4,7.3-1.8.2-2.8,1.1-4.3,1.9-.8-.3-1.5-.7-2.3-1s-1.7-.6-2.5-.9c.1-.4.3-.8.5-1.2.2,0,.4.3.6.3,0,0,.1,0,.2-.2.3-.6.4-1.4.6-2.1.5-1.8,1-3.6,1.2-5.4v-1.4c0,0,0-.2-.2-.2h0c-.2,0-.3.4-.3.6-.3.9-.5,2-.7,3-.3,1.3-.8,2.6-1,4-.7-.3-1.3-.8-2-1.1-2.7-1.3-5-1.2-7.8-.6,1.3-3.7,3-7.9,5.5-11,1.5-1.9,3.8-3.3,6.2-3.6Z" fill="#51b55e"/>
  <path d="M8.2,70.2c.4.2,1.9,1.7,2.4,2.1l8.4,7.3c.8.7,1.8,1.4,2.9,1.5,1.2,0,2.6,0,3.9-.2l8.3-.6c12.4-.8,24.7-1.7,37.1-2.7,0,1.5.3,3-.6,4.3,0,0-.2.2-.4.3-.5.4-1,.4-1.5.5-4.1.4-8.3.6-12.4.8-7.4.5-14.8,1-22.2,1.4l-7.4.4c-1.3,0-4,.4-5.2.2-1,0-11.1-9-12.5-10.4-.3-.3-.5-.5-.7-.8-.6-.9-.4-3.3-.2-4.3v.2Z" fill="#b3b5b8"/>
  <path d="M21.7,81.6s.2,0,.2,0c.2,0,.2.5.2.7,0,.5,0,2.5-.3,2.9h-.2s-.1,0-.2,0c-.1-.4,0-2.6,0-3.2s0-.3.1-.4h.2Z" fill="#6a431f"/>
  <path d="M57.1,60.7c.7,0,1.3.5,1.9.8,3.1,1.9,6.3,3.9,9.4,5.9l3.2,2c.6.4,1.2.7,1.7,1.1.2.2.5.4.6.6v.6c-.3.4-.9.5-1.4.5-.8,0-1.7,0-2.5.2l-6.3.4-18.1,1.2-14.2.9c-2.6.2-5.2.4-7.7.5-.6,0-1.3,0-1.9-.2-.4,0-.8-.3-1.1-.6-.9-.6-1.7-1.4-2.6-2l-5.6-4.6-4.1-3.3c-.6-.5-1.2-.9-1.8-1.4-.1,0-.2-.2-.2-.3.6-.5,5.5-.6,6.6-.7.4.5.8,1,1.3,1.4,2.5,2,6,2.4,9.1,3,2.1,2,4.2,4,6.3,6,.7.7,1.4,1.5,2.2,2.1,2.3-.3,4.7-.4,7.1-.6l13.2-1,3.2-.2c.6,0,1.2,0,1.8,0,.3,0,.6,0,.8-.3.2,0,.2-.2.3-.4,0-.2-.3-.4-.5-.6-.5-.5-1.2-.9-1.8-1.3l-3.6-2.6c.4-.4.9-.8,1.3-1.3.5-.6.8-1.3,1.2-1.9.3-.4.7-.8,1-1.3.6-.8,1-1.6,1.4-2.5h-.2Z" fill="#77bfe2"/>
  <path d="M6.1,64.3c.8.4,2.2,1.7,2.9,2.3l7.2,5.9c1.2,1,2.5,2.2,3.8,3,.6.4,1.1.6,1.8.8,1.4.4,3.8,0,5.3,0l6.2-.4,20.8-1.4,12.3-.8c2.2-.2,4.4-.2,6.5-.5.4,0,.8-.2,1.1-.5,0,1,0,2.2-.6,3-.4.5-.9.6-1.5.7-4,.2-8,.6-12,.9l-21,1.5c-5.6.4-11.2.9-16.7,1.1,0-.7,0-1.9-.1-2.6q0-.2-.2-.3h-.1c-.4.6-.3,2-.3,2.7-1.1-.5-2.7-2.1-3.7-2.9-2.3-1.9-4.5-3.8-6.7-5.8-1.3-1.1-2.7-2.2-4-3.5-.9-.9-.7-2-.7-3.2h-.3Z" fill="#77bfe2"/>
  <path d="M16,54.3h.1c2.1,0,4.5.5,6.1,1.9-.2.5-.5,1.1-.7,1.6-.6-.2-1.6-.5-2.3-.4-.3,0-.6,0-.8.4v.4c.8.3,2.1.4,3,.7,2,.7,3.9,1.6,5.9,2.2.9-.3,1.6-.9,2.5-1.3,1.3-.6,2.8-.7,4.2-.2,1.7.6,4.2,2.6,5,4.3,0,.3.3.7,0,1,0,.2-.3.3-.5.4h-.7c-.3-.2-.4-.5-.7-.8-.8-.9-2.2-2.4-3.2-2.9h-.5c0,0-.2.3-.1.4,0,.4,1.5,1.4,1.8,1.7.5.5,2,1.6,2,2.3s-.2.5-.3.7h-.2c-.2,0-.4,0-.5-.2-.4-.3-.8-.7-1.1-1-.4-.4-.9-.8-1.4-1.1-.5-.4-1.4-1.2-2.1-1.1-.1,0-.2,0-.3.2,0,.6,2.3,1.9,2.8,2.4.4.4.7.7,1,1.2-.3.3-.6.4-1,.6-.2,0-.3,0-.5-.2-.7-.4-2.7-2.4-3.4-2.3,0,0-.1,0-.2.2-.2.9,1.8,1.8,2.3,2.5h0c-.5.2-1,.4-1.5.3-.7,0-1.4-.6-2-.8-.4-.2-.9-.3-1.4-.4-.7-.2-1.4-.5-2.2-.7-2.7-.8-5.5-.9-8.1-2-1.4-.6-2.9-1.5-3.5-3-.8-2,0-4.7.9-6.6.5,0,1-.2,1.6-.3h0Z" fill="#9f5e2c"/>
  <path d="M46.7,70.5h.3c.2,0,.4,0,.5.3,0,0,0,.2,0,.4,0,.2-.2.4-.4.5-.3,0-.6,0-.8-.3,0,0,0-.2,0-.4s.2-.4.4-.5h0Z" fill="#6a431f"/>
  <path d="M40.9,71h.2c.2,0,.5.2.6.4v.4c0,.2-.3.3-.6.4h0c-.2,0-.5-.2-.6-.4v-.4c0-.2.3-.3.5-.4h-.1Z" fill="#6a431f"/>
  <path d="M45.2,68.9h0c.3,0,.7,0,.9.2,0,0,0,0,0,.2,0,.2-.2.4-.3.5-.3,0-.6,0-.9-.2,0,0-.2-.2-.2-.3,0-.2.2-.4.3-.5h.1Z" fill="#6a431f"/>
  <path d="M49.3,70h0c.2,0,.5.2.6.5v.3c0,.2-.3.3-.4.4h-.2c-.2,0-.4-.2-.5-.3v-.4c0-.2.3-.3.5-.4h0Z" fill="#6a431f"/>
  <path d="M37.7,71.2h0c.2,0,.5,0,.7,0,0,0,.2.2.2.4s-.2.4-.3.6c-.3,0-.5,0-.8-.2,0,0-.2-.2-.2-.4,0-.3.2-.4.4-.6h0Z" fill="#6a431f"/>
  <path d="M34.8,71.4c.3,0,.5,0,.7.3,0,0,.1.3,0,.4,0,.2-.3.3-.5.4h-.2c-.2,0-.4,0-.5-.3v-.4c0-.2.3-.3.5-.4Z" fill="#6a431f"/>
  <path d="M38.7,69.3c.3,0,.6,0,.8.2,0,0,.2.2.2.3,0,.3-.2.4-.3.5-.3,0-.5,0-.8-.2,0,0-.2-.2-.2-.4s.2-.4.3-.5h0Z" fill="#6a431f"/>
  <path d="M42,69c.2,0,.5,0,.7.3h0c0,.2-.3.3-.5.4-.3,0-.5,0-.7-.3,0,0,0-.3,0-.4,0-.3.3-.3.5-.5v.5Z" fill="#6a431f"/>
  <path d="M35.9,69.6c.3,0,.6,0,.8.2.1,0,.2.2.2.4s-.2.4-.4.5c-.3,0-.5,0-.7-.2s-.2-.2-.2-.4c0-.3.2-.4.4-.5h0Z" fill="#6a431f"/>
  <path d="M43.7,70.8c.3,0,.6,0,.8.2,0,0,0,.2,0,.3,0,.3-.2.4-.3.5h0c-.3,0-.5,0-.7-.2,0,0-.2-.2-.2-.4s.2-.4.3-.5h0Z" fill="#6a431f"/>
  <path d="M33,69.8c.3,0,.7,0,.9.2v.2c0,.3-.2.4-.3.6-.3,0-.5,0-.7,0-.1,0-.2-.2-.2-.4s.2-.4.3-.5Z" fill="#6a431f"/>
  <path d="M51.8,69.9h0c.2,0,.4,0,.5.3v.4c0,.2-.3.3-.5.4h0c-.2,0-.5-.2-.6-.4v-.4c0-.2.3-.3.6-.4h0Z" fill="#6a431f"/>
  <path d="M54.1,52.8h0c.9.7,2.3,3.5,2.4,4.6.2,1.6-.5,3.5-1.4,4.8-.3.5-.8.8-1.1,1.3-.5.7-.8,1.5-1.3,2.2-.6.7-1.4,1.6-2.4,1.7,0,0-.2,0-.3,0,0-.6,1.2-2,1.3-2.8v-.3h-.2c-.7,0-1.4,1.9-1.7,2.4-.2.3-.4.6-.6.8-.3.3-.7.6-1.1.7q-.2,0-.2-.2c0-.9,1.5-3.2,1.9-4.2v-.4q0,0-.3,0c-1.3.9-1.6,2.8-2.4,4.1h-1c-1-.9,1.7-3.4,1.8-4.4,0,0,0,0,0,0-.7,0-1.7,1.6-2,2.1-.2.4-.5,1.4-.9,1.6h-.4c-.2,0-.3-.3-.4-.4-.8-1.8,5.9-7.1,7.4-8.1.5-.3,2.3-1.1,2.4-1.5h0q0-.2-.2-.2c-1.1-.3-2.6.8-3.5,1.3-.3-.4-.6-.9-.8-1.4.6-.5,1.4-1,2-1.4l3.2-2.1h-.1Z" fill="#9f5e2c"/>
  <path d="M15.5,45.6h0c0,.4-.9,2.1-1.1,2.6-.5,1.1-2.5,5.6-2.1,6.5,0,.3.4.4.7.5-.2,1.1-.5,2.1-.7,3.2-.9,0-2.4.2-3.2,0h0c-.5-.4-.7-1.1-.8-1.7-.2-1.8,0-3.6-.2-5.4,0-1-.2-2.7,0-3.6,0-.2.2-.5.3-.6.3-.3.7-.6,1.2-.7,1.2-.4,4.4-.5,5.8-.6v-.2Z" fill="#77bfe2"/>
  <path d="M36.2,86h.2c-.1,1.6-.4,3.2-.7,4.7s-.2,2.2-.5,3.1c-.2,0-.5.3-.7.4-1.6.7-3.8.5-5.4,0l-.8-.4c.1-.9.1-1.8.2-2.7.1-1.5.2-3,.3-4.5.8,0,1.8,0,2.6-.2,1.6,0,3.2-.2,4.8-.3Z" fill="#9f5e2c"/>
  <path d="M50.9,85.1h1c-.5,2.6-.7,5.2-1.1,7.8h0c-1.6.9-3.6.7-5.3.2-.5-.2-1-.4-1.4-.7.2-2.3.4-4.5.5-6.8.7,0,1.5,0,2.3-.2l4.2-.3h-.1Z" fill="#9f5e2c"/>
  <path d="M22.2,86.9h1.2c0,1.5-.1,3.1-.2,4.7l-.3,7.1-.4,8.6v3.4c0,.2,0,.5-.2.6-.2.2-.4.2-.7.2s-.7-.3-1-.6c0-2,0-3.9.2-5.9,0-2.9.2-5.8.3-8.7l.2-6c0-1.1,0-2.2.1-3.3h.9-.1Z" fill="#b3b5b8"/>
  <path d="M70,83.7h0c0,.2.8,19.8.8,21.7v1.2c0,.2-.2.4-.4.5-.4.2-.8.2-1.1,0-.2-.2-.3-.4-.3-.6,0-.9,0-1.9,0-2.9l-.2-4.3-.7-15.3c.6,0,1.3-.2,1.9-.3Z" fill="#b3b5b8"/>
  <path d="M9.2,77.1c.7.5,1.3,1.1,1.8,1.6,0,1.4-.3,2.8-.4,4.2l-.7,6.6-.6,6.3c0,1.3-.2,3.2-.6,4.5-.3,0-.6.2-.9,0-.2,0-.5,0-.7-.3,0-.2,0-.8,0-1,0-1.3.2-2.6.4-4,.3-3.4.6-6.8,1-10.2l.5-5.1c0-.9,0-1.9.3-2.7h-.1Z" fill="#b3b5b8"/>
  <path d="M42.6,96.4s0,0,.2.2c1.1,1.5,2.5,2,4.4,2.2.2.3.3.7.5,1,0,.4.2.9.4,1.3s2.2,1.9,2.6,2.3c-.7.7-.9,1.4-1.1,2.3h0c-.5,0-1.1-.3-1.5-.5-2.3-.9-4.5-2.1-6.3-3.8.3-1.7.6-3.4,1.1-5h-.2Z" fill="#2b907f"/>
  <path d="M27.1,97.3h.1c.1.3.2.5.3.6.7,1,2.1,1.3,3.2,1.5.2.4.3.8.4,1.3.2,1.7-.2,1.4,1.1,2.8.1.8.2,1.2.7,1.7-.7.7-1.1,1.4-1.3,2.3-2.1-.8-4.9-2.6-5.9-4.6,0-1.1.9-4.8,1.3-5.7h0Z" fill="#2b907f"/>
  <path d="M37.5,104.2h0c.7,0,1.7,0,2.2.4.6.5,1.2,1.6,1.2,2.4s0,.3-.2.5c-.9.9-3.4,1.1-4.6,1.1s-2.5-.3-3.8-.7c.2-.5.5-1,.8-1.5,1-1.3,2.7-2,4.2-2.2h.2Z" fill="#2b907f"/>
  <path d="M16.3,43.7h.3c0,.3-.3.7-.4.9-1.3,0-2.5.2-3.8.3-1.1,0-2.3.2-3.3.5,0,0-.2,0-.3,0,0,0-.2,0-.3.2,0,0-.2,0-.3.2,0,0-.2,0-.3.2-.4.4-.6.8-.7,1.4-.2,1,0,2.3,0,3.3v7.1c-.2,0-.3-.3-.5-.4-.5-.6-.8-1.3-.8-2.1-.2-1.8-.1-4-.1-5.8s-.2-2.3,0-3.4c0-.4.2-.8.5-1.1s.5-.5.9-.6c1.1-.3,2.3-.3,3.4-.4,1.9-.2,3.7-.3,5.6-.4h.1Z" fill="#77bfe2"/>
  <path d="M55.1,102.1c.6,0,1.2,0,1.7.3,1,.6,1.4,1.8,1.6,2.9-1.5.9-3,1.1-4.7,1.1s-2.3,0-3.5-.6c.2-.5.3-.9.6-1.3.9-1.3,2.7-2.2,4.2-2.5h.1Z" fill="#2b907f"/>
  <path d="M28.7,41.1c.7.2,1.5.9,2.2,1.3,2.7,1.4,5.2,1.7,8.2,1.8l-.9.9c-.3.2-.6.3-.9.5-1.4.6-2.8.5-4.2,0-2-.8-3.5-2.4-4.4-4.4h0Z" fill="#9f5e2c"/>
  <path d="M43.9,93.6c2.3.9,4.1,1,6.5.5,0,.5,0,1-.2,1.5-.5,0-1,0-1.4.2-.5.2-1.1.3-1.5.8-.3.4-.4.7-.4,1.2-.2,0-.5,0-.7,0-1-.2-1.9-.6-2.4-1.4,0-.9,0-1.7.2-2.6h0Z" fill="#21706c"/>
  <path d="M45.3,60.7h.7c-.5.5-.9.9-1.4,1.5-.4.4-.7.9-1.1,1.3-1.2,0-2.4,0-3.5.2,0-.2-.2-.4-.3-.6-.4-.7-1-1.3-1.5-1.9.9,0,1.8,0,2.8-.2,1.4,0,2.9,0,4.3-.2h0Z" fill="#77bfe2"/>
  <path d="M28.3,94.8c.4,0,.8.3,1.2.4,1.8.5,3.8.6,5.6,0l-.3,1.7h-1.2c-.7,0-1.4,0-1.9.5-.4.3-.6.7-.7,1.2h-.2c-.9-.2-1.9-.6-2.4-1.4v-2.3h-.1Z" fill="#21706c"/>
  <path d="M33.6,97.8c.5,0,1.3-.2,1.7.2.4.4.3,1.1.4,1.7-.8,0-1.5,0-2.3.3-.5,0-.9.3-1.4.6,0-.5-.3-1-.3-1.5s0-.5.2-.7c.4-.4,1.3-.4,1.8-.5h-.1Z" fill="#2b907f"/>
  <path d="M50.2,96.5c.3,0,.6,0,.8,0,.4.3.4,1.2.4,1.7-.9.2-1.8.4-2.6.9,0,0-.3.2-.4.2-.3-.4-.5-1-.6-1.5,0-.2,0-.5,0-.7.4-.6,1.6-.7,2.3-.8h0Z" fill="#2b907f"/>
  <path d="M32.9,55.3c.1,0,.2.2.3.4.3.4,1.6,2.5,1.5,2.8-.3,0-.6,0-.9-.2-.3,0-.7,0-1-.2-.5-.6-.9-1.4-1.3-2,.4-.3.9-.5,1.3-.7h.1Z" fill="#c88a2b"/>
  <path d="M29.8,50.1c.3.2,1.2,1.9,1.4,2.3-.4.3-.8.5-1.2.7h0c-.4-.2-1.1-1.9-1.3-2.3.4-.3.8-.5,1.2-.7h-.1Z" fill="#c88a2b"/>
  <path d="M10.4,59.4h0c0,.4,0,1.5,0,2-.5,0-1,0-1.5,0,0-.7,0-1.3-.2-2h1.7Z" fill="#b3b5b8"/>
  <path d="M31.6,53.1c.3,0,.8,1.1,1,1.5-.4.2-.9.5-1.3.7h0c-.2-.3-.3-.5-.5-.7-.1-.2-.3-.5-.4-.7.4-.3.8-.5,1.2-.7h0Z" fill="#c88a2b"/>
  <path d="M39.2,65.7c0,0,.2,0,.3.2.3.3.4.8.4,1.2s0,.2-.2.3h-.4c-.3-.2-.7-.5-.9-.9v-.4c0-.3.5-.3.8-.4Z" fill="#9f5e2c"/>
</svg>