<?xml version="1.0" encoding="UTF-8"?>
<svg id="Layer_1" xmlns="http://www.w3.org/2000/svg" width="80" height="115" version="1.1" viewBox="0 0 80 115">
  <!-- Generator: Adobe Illustrator 29.4.0, SVG Export Plug-In . SVG Version: 2.1.0 Build 152)  -->
  <defs>
    <style>
      .st0 {
        opacity: .75;
      }

      .st0, .st1 {
        fill: #434345;
      }

      .st2 {
        fill: #50b55e;
      }

      .st3 {
        fill: #fff;
      }

      .st4 {
        fill: #c7c8ca;
      }

      .st5 {
        fill: #9e5d2c;
      }

      .st6 {
        fill: #76bfe3;
      }

      .st7 {
        fill: #1e6f6b;
      }

      .st8 {
        fill: #ca8906;
      }

      .st9 {
        fill: #2b907f;
      }
    </style>
  </defs>
  <polygon class="st3" points="40.73 104.277 44.699 107.235 48.942 109.186 53.381 109.868 56.916 109.517 58.785 108.368 59.417 105.693 56.895 102.293 52.079 99.616 40.937 102.675 40.73 104.277"/>
  <polygon class="st3" points="24.855 105.9 27.894 109.682 31.578 111.15 37.402 112.245 40.916 110.819 41.556 108.752 41.064 105.9 35.79 100.567 25.227 103.957 24.855 105.9"/>
  <rect class="st3" x="21.902" y="63.48" width="36.171" height="11.593"/>
  <path class="st1" d="M23.937,5.969c2.541-2.037,4.858-3.296,8.052-3.984,5.649-1.216,12.143-.125,17.001,3.018,2.232,1.361,4.122,3.457,5.411,5.715.299.524.464,1.113.749,1.64,1.32,4.251.973,7.634-.36,11.798-.454,1.417-.99,2.816-1.317,4.269-.69,3.061-.515,5.277-2.1,8.272-.81,1.53-2.078,3.262-3.567,4.192,2.171,1.362,5.252,5.953,6.725,8.229.383.592,1.007,1.372,1.184,2.059.05.193.006.36-.107.519-.126.178-.289.336-.448.483,1.484,1.57,2.877,3.92,2.815,6.138-.013.45-.075.842-.196,1.276.424.094.839.336,1.214.547.906.51,1.782,1.095,2.663,1.647l4.671,2.929c1.895,1.169,3.778,2.357,5.649,3.564.73.466,1.482.896,2.195,1.388.386.267.862.559,1.109.968.476.788.293,3.985.041,4.898-.246.894-.78,1.577-1.588,2.033-.272.154-.574.271-.871.369.055,1.97.339,3.99-1.122,5.54-.049.052-.098.103-.148.154.11,1.01.121,2.032.16,3.046l.165,4.455c.035.99.009,1.995.134,2.979-.027,1.152.057,2.301.101,3.452l.262,6.793c.03,1.016.192,2.128.057,3.137-.057.428-.178.759-.497,1.062-.507.481-1.2.599-1.875.552-.463-.032-.889-.186-1.19-.553-.412-.502-.388-1.072-.434-1.677-.204-5.661-.439-11.321-.707-16.979-.079-1.83-.121-3.663-.215-5.492-1.738.222-3.531.248-5.28.375l-5.19.343c-1.281.086-2.569.203-3.852.236-.325,2.316-.681,4.628-1.067,6.935-.22,1.338-.493,2.695-.63,4.043.41.163.697.342.875.763.301.714.011,1.79.46,2.398.274.37.857.628,1.256.844,2.404,1.302,4.948,2.378,5.581,5.322.172.8.197,1.732-.151,2.488-.454.988-1.453,1.562-2.441,1.9-3.619,1.239-8.282-.103-11.616-1.756-1.364-.676-2.61-1.445-3.871-2.297.44,1.362.864,2.992.153,4.345-.553,1.052-1.644,1.609-2.744,1.926-3.412.985-7.421-.077-10.454-1.765-1.089-.606-2.131-1.329-3-2.226l-.397-.448c-.934-1.275-.971-2.011-.738-3.532.247-1.609.633-3.202,1.011-4.784.16-.669.279-1.463.567-2.085.086-.186.223-.36.392-.478.2-.139.438-.212.672-.266.077-3.237.379-6.49.56-9.725-1.071.253-2.272.107-3.375.257-.214,1.91-.218,3.868-.312,5.788l-.557,13.471c-.05,1.173-.088,2.356-.115,3.53-.017.72.025,1.477-.084,2.19-.052.338-.206.592-.428.847-.355.284-.758.427-1.212.451-.619.033-1.357-.186-1.808-.626-.207-.202-.328-.431-.384-.713-.172-.853-.011-1.906.028-2.778.045-.871.06-1.743.044-2.616.036-.196.036-.384.037-.583.134-.875.101-1.833.075-2.718.135-.865.11-1.789.133-2.663l.119-4.341.229-6.867c.033-.908.101-1.813.102-2.722-1.624-1.215-3.181-2.54-4.732-3.847-1.298-1.093-2.629-2.186-3.869-3.345-.041,1.618-.312,3.276-.472,4.89l-1.101,10.893c-.146,1.487-.428,3.041-.425,4.531-.122.606-.039,1.311-.534,1.775-.378.355-.945.474-1.449.461-.588-.015-1.238-.22-1.635-.677-.248-.285-.305-.601-.315-.969-.015-.571.078-1.172.13-1.741l.27-3.005.925-9.681c.16-1.639.373-3.291.465-4.935.088-.372.087-.808.122-1.192.103-1.125.155-2.289.359-3.399-.343-.39-.682-.781-.933-1.238-.184-.274-.3-.575-.356-.9-.189-1.105.03-3.517.242-4.663-.002-.096-.005-.248-.046-.334-.288-.607-1.757-1.072-2.041-2.42-.154-.73-.166-2.86-.058-3.609.046-.32.14-.633.328-.899.518-.732,1.589-.818,2.404-.975-.047-.855-.078-1.711-.094-2.567-.633-.111-1.12-.387-1.57-.84-.455-.457-.876-1.081-1.038-1.711-.296-1.152-.16-2.441-.186-3.624-.046-2.06-.119-4.124-.114-6.185.003-1.023.089-1.908.866-2.667.39-.381.775-.576,1.3-.714,1.394-.365,3.181-.371,4.639-.488,1.96-.158,3.976-.415,5.941-.398.526-.509.963-1.118,1.489-1.636,1.852-1.821,4.159-2.938,6.749-3.153-.951-1.391-1.625-2.813-2.112-4.423-.975.045-1.961.133-2.901-.184-1.616-.544-2.884-1.72-3.636-3.236-.88-1.774-1.118-4.228-.465-6.111.505-1.455,1.454-2.43,2.819-3.09-.173-1.23-.143-2.462-.06-3.697.123-.785.157-1.581.301-2.368.65-3.544,2.119-5.969,4.583-8.529ZM24.908,67.322c1.635,1.343,3.161,2.833,4.694,4.291.806.767,1.61,1.599,2.493,2.272,1.146-.147,2.308-.148,3.455-.285,4.883-.238,9.834-.66,14.708-1.053l4.167-.303c.726-.054,1.492-.064,2.206-.203-1.676-1.305-3.437-2.599-5.238-3.727-.491.191-.91.377-1.434.172-.086-.034-.253-.119-.348-.115-.187.008-1.057.7-1.66.82-.453-.135-.805-.334-1.188-.611-.582.036-1.192.035-1.659-.375-.175-.154-.31-.351-.445-.54-.634-.016-1.228-.043-1.693-.544-.288-.31-.396-.698-.379-1.115.017-.412.388-1.158.364-1.357h-.2c-.689.083-2.072-.039-2.623.249-.069.108-.072.126-.038.259.183.703.638,1.307.778,2.048.102.542.587.932.228,1.537-.083.14-.209.22-.368.245-1.053.166-1.912-1.291-2.922-1.406-.074-.008-.147-.021-.221-.031-.649.296-1.161.354-1.868.318-1.045.742-1.521,1.002-2.844.772-.053-.009-.106-.02-.159-.031-.983.544-1.496.786-2.61.466-.601-.173-1.15-.487-1.745-.676-.544-.172-1.112-.257-1.662-.407-.612-.167-1.211-.416-1.791-.67ZM35.705,97.657l.491.3c.917,1.589-.264,2.48,1.621,4.193.791.729,1.592,1.454,2.432,2.128.23-1.85.544-3.686.94-5.507.191-.914.363-1.851.661-2.737.313-.299.553-.403.974-.5.099-1.21.936-8.997.814-9.499l-.04-.02c-1.235.091-2.471.173-3.708.244-.77.051-1.557.139-2.328.134-.183.866-.284,1.751-.417,2.626-.188,1.207-.383,2.413-.586,3.617l-.531,3.152c-.109.616-.265,1.248-.323,1.869ZM41.305,104.213c2.519,2.414,6.763,4.323,10.17,4.917.996.174,1.994.227,3.004.202,1.355-.033,2.9-.349,3.881-1.356.014-.014.026-.029.039-.043.192-.288.28-.566.386-.89-2.864,1.617-6.395,1.258-9.442.408-2.104-.587-4.266-1.583-6.087-2.788-.639-.423-1.213-1-1.875-1.372-.044.31-.067.609-.076.921ZM34.901,101.37c-.661.062-2.212.357-2.656.871-.08.093-.111.151-.083.276.052.23.306.531.445.727.297-.121.595-.238.881-.385,1.034-.443,2-.678,3.127-.695-.238-.261-.471-.536-.728-.777-.317-.032-.671-.08-.985-.017ZM33.028,104.326l.291.45c.098.152.218.282.402.325.37.087,1.001-.345,1.361-.477,1.091-.361,2.125-.527,3.274-.555-.407-.48-.809-.846-1.468-.91-.289-.028-.623-.016-.913.013-1.104.166-2.018.549-2.947,1.155ZM50.513,102.649c.311.254.62.506.913.78l.517-.291c.954-.566,1.921-1.03,3.014-1.251-.509-.263-1.183-.699-1.768-.65-1.067.289-1.759.848-2.676,1.412ZM49.622,101.884l.36-.198c.776-.582,1.56-1.043,2.51-1.273-.419-.254-.752-.417-1.258-.335-.54.134-1.965.588-2.238,1.081-.041.074-.038.08-.055.152.104.271.439.428.681.574ZM11.126,61.426l.691-.012.27-.023-.097-.365c-.098-.356,0-1.364-.228-1.579l-.106.01c-.098.017-.286.019-.35.096-.293.356-.142,1.4-.18,1.872ZM45.648,55.644c-.148,1.33-.25,2.687-.475,4.006.705-.029,1.46-.079,2.16.018.217-.17.438-.335.662-.495.289-.227.574-.454.844-.704-.227-.452-.477-.869-.756-1.291-.357.164-.807.297-1.191.143-.657-.263-.82-1.177-1.244-1.678ZM40.693,110.036c.148-.231.396-.524.338-.805-.287.071-.561.256-.835.377-.468.206-.972.35-1.471.46-3.176.697-6.91-.273-9.641-1.914-.792-.476-1.7-1.037-2.378-1.667-.426-.395-.847-1.114-1.331-1.394-.068.957.134,1.433.768,2.154,2.087,2.374,6.14,4.008,9.248,4.19,1.572.092,3.753.041,4.998-1.086.109-.098.209-.203.303-.316Z"/>
  <path class="st5" d="M30.178,12.56c2.756,1.059,5.523,1.74,8.43,2.237,3.763.642,9.505,1.315,13.158-.008.619-.224,1.147-.529,1.683-.908.723,1.283,1.108,2.958,1.146,4.424.092,3.612-1.46,6.706-2.237,10.143-.509,2.25-.492,4.338-1.368,6.55-.581,1.466-1.467,2.777-2.551,3.915-2.681,2.816-6.137,3.939-9.946,4.041-1.318-.014-2.593-.141-3.872-.476-4.228-1.109-7.663-3.823-9.579-7.775-.436-.9-.707-2.271-1.126-2.987-.373-.18-1.49.421-2.057.39-1.37-.074-2.541-.858-3.417-1.871-1.082-1.25-1.501-3.181-1.363-4.792.101-1.179.578-2.361,1.51-3.127.63-.518,1.395-.774,2.213-.684,1.379.15,2.52,1.239,3.196,2.386.325.55.582,1.185.981,1.683.187.02.305-.034.449-.15.442-.355.76-.953,1.053-1.433,1.375-2.253,2.611-4.814,3.179-7.406.304-1.386.337-2.754.519-4.152Z"/>
  <path class="st0" d="M33.057,33.869c.195.045.361.076.511.219.318.302.48.811.725,1.176.692,1.034,2.036,1.878,3.161,2.353,1.139.48,2.389.69,3.618.517.428-.06,1.475-.459,1.819-.353.121.105.123.098.143.256-.109.304-.257.465-.525.643-.711.491-1.767.653-2.613.643-2.17-.024-4.571-1.177-6.062-2.732-.487-.508-1.195-1.335-1.153-2.08.017-.298.155-.457.375-.642Z"/>
  <path class="st0" d="M32.497,26.71c.113.019.216.033.314.097.272.176.324.656.399.954.139.56.366,1.061.891,1.357.343.194.865.311,1.251.204.914-.256,1.103-1.132,1.516-1.851.126-.219.225-.376.477-.443.1.047.15.092.207.185.246.402.114.801.008,1.224-.11.29-.24.568-.413.826-.41.61-1.007,1.078-1.743,1.205-.045.008-.089.014-.134.02-.045.006-.09.01-.135.013-.045.003-.09.006-.136.007-.045.001-.091.001-.136,0-.045-.001-.091-.003-.136-.007s-.09-.008-.135-.014c-.045-.006-.09-.012-.134-.02-.045-.008-.089-.017-.133-.027-.044-.01-.088-.021-.132-.034-.044-.012-.087-.026-.13-.04-.043-.014-.086-.03-.128-.046-.042-.017-.084-.034-.125-.053-.041-.019-.082-.038-.122-.059-.04-.021-.08-.042-.119-.065-.039-.023-.078-.046-.116-.071-.038-.025-.076-.05-.112-.076-.585-.413-1.072-1.076-1.186-1.794-.085-.534.016-1.062.343-1.493Z"/>
  <path class="st0" d="M35.14,19.838c1.007-.11,2.203-.027,3.074.539.232.151.538.392.567.692.014.151-.07.304-.179.404-.21.194-1.816-.335-2.154-.384-.419-.061-.827-.059-1.247-.029-1.165.117-1.785.687-2.817.996-.186.056-.293.078-.466-.015-.02-.054-.038-.091-.041-.153-.012-.274.206-.677.385-.875.677-.751,1.909-1.088,2.879-1.176Z"/>
  <path class="st0" d="M44.045,31.509h.054c.133-.004.262-.006.391.032.056.017.112.036.167.058.055.022.108.047.16.074.052.027.103.057.152.09.049.032.097.067.143.104s.09.076.132.118c.042.041.082.085.12.13.038.045.073.092.107.141.033.049.064.099.092.151.261.477.349,1.058.183,1.581-.206.649-.748,1.15-1.354,1.432-.956.444-1.911.41-2.89.063-.186-.095-.382-.208-.515-.372-.141-.174-.309-.432-.279-.662.343-.35,1.255.086,1.696.167.163.03.327.045.493.044.166,0,.33-.017.492-.049.467-.096,1.012-.414,1.273-.822.569-.891-.724-1.279-.87-1.952.052-.175.119-.208.254-.327Z"/>
  <path class="st0" d="M45.346,27.778l.189.079c.276.281.232,1.046.354,1.441.007.023.014.045.022.067.132.15.261.286.434.389,1.606.963,2.339-1.433,3.112-1.555.088-.014.11.032.174.083.209.483.083.856-.072,1.33-.219.36-.476.694-.811.954-.553.429-1.249.6-1.94.509-.618-.081-1.206-.378-1.587-.879-.305-.4-.516-1.003-.421-1.509.074-.395.216-.683.547-.91Z"/>
  <path class="st0" d="M48.391,21.105c.331-.018.637-.022.965.042.796.154,1.741.621,2.193,1.309.221.336.323.702.241,1.097-.097.125-.095.134-.247.172-.337-.05-.643-.39-.911-.602-.588-.415-1.276-.761-2.012-.761-.476,0-1.34.421-1.752.163-.048-.03-.053-.046-.064-.102-.044-.22.093-.513.216-.69.285-.407.912-.549,1.371-.628Z"/>
  <path class="st0" d="M20.36,23.962c.41.008.774.091,1.132.294.831.471,1.344,1.438,1.59,2.332.115.42.262,1.082.017,1.472-.072.114-.097.117-.22.148-.319-.15-.392-.448-.503-.755-.246-.581-.493-1.176-.904-1.663-1.118-1.325-1.4-.236-2.071-.38-.198-.042-.326-.186-.415-.357-.011-.164.011-.265.111-.395.325-.422.753-.613,1.263-.696Z"/>
  <path class="st2" d="M25.004,38.809c.457-.039,1.117-.134,1.507.155.685.51.843,1.907,1.186,2.668.785,1.742,2.155,3.295,3.811,4.253,1.597.924,3.464,1.331,5.273.842,1.53-.413,2.796-1.381,3.586-2.743,2.481-.239,4.518-1.087,6.593-2.427,2.06,1.743,3.624,3.754,5.185,5.936.837,1.17,1.678,2.377,2.4,3.622-.665.522-1.418.977-2.111,1.468-1.697,1.202-3.44,2.491-5.267,3.486-.42-.717-.988-1.598-1.203-2.398-.203-.754.01-1.691.072-2.461.068-.838.14-1.71.111-2.551-.01-.292-.042-.579-.266-.786-.168-.037-.16-.045-.308.042-.104.172-.155.327-.187.526-.18,1.1-.24,2.253-.35,3.366-.262,2.627-.487,5.294-.863,7.906-1.575.038-3.152.153-4.727.225-.761.035-1.532.093-2.294.057-.992-.899-2.011-2.914-2.746-4.093-.843-1.397-1.678-2.799-2.506-4.205-.442-.745-.844-1.582-1.394-2.249-.149-.181-.279-.277-.503-.343-.533-.159-1.042.121-1.504.365-.51.269-.767.633-.936,1.173.365,1.486,3.083,5.842,4.01,7.433-1.838.206-2.854,1.106-4.411,1.905-.804-.286-1.572-.695-2.367-1.011-.832-.331-1.696-.574-2.522-.918.149-.397.32-.784.492-1.172.177.089.452.285.65.256.068-.061.12-.12.162-.202.324-.625.415-1.432.59-2.113.463-1.8,1.028-3.646,1.24-5.497.052-.453.085-.977-.059-1.415-.044-.133-.07-.191-.202-.25-.019.01-.039.017-.057.029-.177.118-.264.394-.328.586-.32.954-.499,2.014-.747,2.995-.339,1.343-.766,2.683-.998,4.049-.688-.346-1.322-.798-2.02-1.14-2.706-1.328-5.026-1.207-7.891-.608,1.347-3.796,3.044-7.992,5.615-11.127,1.548-1.887,3.81-3.398,6.281-3.636Z"/>
  <path class="st4" d="M7.749,70.402c.388.164,1.968,1.752,2.432,2.156l8.557,7.377c.831.702,1.877,1.388,2.984,1.489,1.258.115,2.665-.086,3.931-.166l8.409-.564c12.545-.834,25.085-1.73,37.621-2.69.037,1.5.333,3.041-.619,4.333-.115.12-.231.242-.363.344-.466.36-.97.428-1.535.489-4.176.453-8.424.579-12.617.854-7.501.539-15.006,1.025-22.514,1.459l-7.469.439c-1.339.09-4.02.412-5.231.229-1-.152-11.288-9.153-12.67-10.514-.264-.26-.517-.544-.727-.849-.625-.907-.382-3.301-.188-4.386Z"/>
  <path class="st0" d="M21.421,81.956c.07.027.172.058.237.103.177.122.205.493.224.69.053.556.024,2.584-.285,2.958-.063-.004-.169-.001-.232-.021-.084-.027-.143-.051-.171-.137-.136-.421,0-2.686.087-3.206.023-.136.081-.263.141-.386Z"/>
  <path class="st6" d="M57.391,60.714c.713.113,1.31.491,1.917.86,3.195,1.943,6.344,3.972,9.508,5.966l3.291,2.052c.583.365,1.196.714,1.749,1.122.214.158.509.368.565.638.044.207.039.453-.09.63-.297.407-.96.508-1.428.556-.852.086-1.717.107-2.572.167l-6.386.441-18.329,1.267-14.417.897c-2.604.164-5.233.455-7.841.5-.612.011-1.303.01-1.894-.173-.411-.128-.802-.344-1.156-.587-.904-.621-1.756-1.384-2.61-2.076l-5.669-4.671-4.12-3.389c-.602-.494-1.261-.954-1.839-1.47-.117-.104-.212-.174-.236-.329.571-.525,5.569-.634,6.668-.705.431.49.82.972,1.332,1.386,2.517,2.033,6.13,2.446,9.208,3.004,2.168,1.998,4.249,4.097,6.401,6.112.737.691,1.438,1.478,2.238,2.091,2.365-.315,4.781-.425,7.161-.601l13.353-.968,3.268-.251c.604-.041,1.222-.046,1.821-.125.288-.038.596-.102.835-.278.166-.123.226-.253.263-.451-.073-.251-.291-.446-.481-.615-.556-.496-1.219-.922-1.821-1.362l-3.657-2.668c.438-.423.9-.802,1.293-1.27.505-.603.822-1.292,1.26-1.936.301-.442.663-.848.986-1.274.59-.781,1.044-1.589,1.428-2.489Z"/>
  <path class="st6" d="M5.644,64.461c.852.403,2.184,1.706,2.97,2.356l7.28,6.015c1.255,1.032,2.513,2.202,3.868,3.094.576.379,1.136.638,1.805.807,1.435.362,3.851.038,5.376-.053l6.257-.398,21.096-1.411,12.45-.859c2.187-.152,4.433-.222,6.605-.495.438-.055.764-.238,1.134-.461.016,1.023.06,2.23-.631,3.071-.425.517-.924.633-1.553.708-4.071.185-8.146.585-12.211.879l-21.338,1.474c-5.649.399-11.317.874-16.976,1.089-.006-.749.101-1.975-.113-2.675-.05-.162-.081-.216-.23-.295l-.125.041c-.43.565-.282,1.951-.342,2.668-1.096-.496-2.733-2.122-3.705-2.949-2.285-1.944-4.56-3.899-6.824-5.867-1.337-1.163-2.768-2.281-4.037-3.513-.901-.874-.74-2.067-.755-3.227Z"/>
  <path class="st5" d="M15.719,54.232c.048-.007.096-.009.144-.013,2.158-.14,4.585.509,6.232,1.956-.252.536-.494,1.076-.726,1.62-.639-.198-1.665-.521-2.333-.453-.339.035-.645.087-.862.367-.029.174-.026.202.038.367.805.315,2.094.4,3.029.715,2.024.681,3.978,1.641,6.026,2.239.903-.293,1.665-.931,2.521-1.333,1.353-.636,2.816-.738,4.227-.221,1.775.65,4.268,2.614,5.067,4.367.127.279.27.686.125.986-.103.212-.285.333-.503.407-.239.082-.457.067-.665-.087-.264-.194-.446-.542-.663-.79-.77-.881-2.215-2.466-3.281-2.932-.204-.089-.337-.096-.542-.009-.101.131-.16.277-.143.447.037.369,1.519,1.395,1.855,1.698.543.49,1.986,1.644,1.992,2.379.002.29-.154.466-.349.66-.076.028-.153.051-.235.055-.173.007-.357-.075-.499-.17-.414-.275-.797-.722-1.167-1.059-.453-.414-.938-.789-1.425-1.162-.499-.381-1.421-1.211-2.096-1.071-.15.031-.206.08-.291.201-.053.632,2.286,1.97,2.821,2.428.417.356.723.721.995,1.196-.286.279-.608.453-.971.606-.173-.052-.35-.105-.507-.197-.71-.415-2.758-2.42-3.489-2.302-.086.014-.122.101-.172.164-.159.891,1.812,1.842,2.287,2.562.012.019.024.037.036.056-.48.199-.965.369-1.492.258-.723-.152-1.374-.567-2.056-.834-.449-.176-.926-.285-1.383-.439-.741-.249-1.469-.531-2.222-.744-2.716-.771-5.626-.9-8.252-1.981-1.428-.588-2.918-1.502-3.525-2.997-.842-2.071.066-4.724.875-6.684.52-.122,1.051-.198,1.581-.256Z"/>
  <path class="st1" d="M46.797,70.682c.087-.006.175-.014.262-.011.203.009.426.105.553.267.098.124.113.248.087.399-.044.248-.251.38-.444.506-.263-.003-.589-.075-.774-.276-.092-.1-.139-.238-.118-.373.04-.25.244-.38.435-.513Z"/>
  <path class="st1" d="M40.922,71.198c.054.01.109.02.163.033.231.056.462.165.566.393.06.13.056.264-.012.39-.12.224-.343.294-.567.37-.024-.004-.049-.007-.073-.013-.238-.053-.484-.167-.592-.4-.06-.129-.059-.269.003-.397.105-.215.303-.295.512-.375Z"/>
  <path class="st1" d="M45.324,69.116c.021-.002.041-.005.062-.007.281-.021.724-.004.921.24.064.079.108.15.103.252-.009.235-.162.379-.329.524-.33.041-.607.039-.883-.174-.112-.086-.192-.193-.191-.341.002-.227.158-.361.315-.495Z"/>
  <path class="st1" d="M49.495,70.205c.034.007.068.013.101.022.248.061.545.204.642.46.048.127.037.223-.014.344-.084.198-.259.28-.447.358-.082-.003-.166-.003-.247-.018-.191-.035-.402-.172-.503-.339-.074-.123-.089-.264-.044-.4.08-.245.297-.326.512-.426Z"/>
  <path class="st1" d="M37.7,71.437l.055-.005c.238-.023.48-.005.676.151.113.09.17.228.168.371-.003.247-.178.42-.327.597-.292.012-.547.017-.781-.184-.115-.098-.176-.215-.17-.37.01-.263.197-.402.38-.561Z"/>
  <path class="st1" d="M34.816,71.605c.255.063.509.115.661.353.078.123.102.265.051.403-.09.241-.286.343-.507.441-.069-.006-.114-.008-.184-.022-.191-.04-.401-.14-.5-.318-.078-.139-.1-.265-.043-.418.091-.243.303-.338.523-.439Z"/>
  <path class="st1" d="M38.749,69.523c.275-.01.578-.024.796.178.112.103.169.203.164.355-.009.259-.173.398-.354.557-.289.022-.557.003-.782-.197-.114-.101-.184-.225-.172-.383.018-.242.173-.37.348-.51Z"/>
  <path class="st1" d="M42.045,69.151c.251.025.512.096.671.311.011.015.021.03.03.046.009.016.018.033.025.05.007.017.014.034.019.052.005.018.01.036.013.054.003.018.005.037.006.055.001.019,0,.037,0,.056-.001.019-.003.037-.007.055-.003.018-.008.036-.013.054-.074.25-.277.344-.491.452-.254-.029-.526-.112-.683-.33-.085-.119-.109-.256-.071-.397.067-.255.287-.346.501-.458Z"/>
  <path class="st1" d="M35.902,69.801c.263-.02.564.013.763.208.114.111.17.209.163.373-.012.253-.197.377-.374.526-.27.016-.485.011-.703-.167-.13-.106-.219-.247-.212-.421.01-.255.18-.377.363-.519Z"/>
  <path class="st1" d="M43.817,71.025c.295-.025.574-.031.813.175.093.08.147.193.145.314-.005.255-.165.379-.337.542-.015.003-.031.006-.046.008-.254.033-.549.024-.748-.16-.11-.102-.175-.207-.172-.361.005-.246.176-.37.346-.517Z"/>
  <path class="st1" d="M32.988,69.986c.299-.015.664-.046.889.202.067.073.097.152.093.249-.011.254-.177.398-.345.567-.259.034-.535.062-.752-.115-.116-.095-.195-.201-.199-.357-.007-.242.155-.392.314-.547Z"/>
  <path class="st1" d="M51.979,70.096c.032.003.065.005.097.01.202.031.424.125.527.311.069.124.066.262.017.392-.092.248-.286.335-.514.432-.018-.003-.036-.005-.054-.008-.221-.043-.503-.169-.613-.381-.071-.136-.089-.255-.023-.398.109-.238.333-.29.563-.358Z"/>
  <path class="st5" d="M54.342,52.743c.017.01.037.018.052.031.88.703,2.348,3.559,2.474,4.633.19,1.615-.485,3.548-1.44,4.837-.347.468-.819.862-1.137,1.347-.479.731-.807,1.509-1.36,2.2-.598.746-1.398,1.641-2.432,1.692-.141.007-.191-.023-.286-.12-.069-.636,1.193-2.034,1.339-2.798.027-.143-.015-.174-.09-.291-.075-.041-.132-.095-.221-.086-.708.064-1.39,1.918-1.695,2.484-.164.299-.357.577-.579.836-.3.346-.678.66-1.15.694-.158-.061-.154-.057-.233-.207-.03-.901,1.538-3.275,1.934-4.23.072-.174.063-.231-.003-.404-.142-.102-.135-.102-.308-.084-1.32.881-1.636,2.885-2.474,4.142l-.634.125c-.139-.051-.256-.098-.364-.203-.984-.959,1.763-3.473,1.78-4.481-.05-.076-.05-.117-.145-.137-.694-.148-1.749,1.626-2.037,2.182-.22.426-.457,1.464-.902,1.673-.11.052-.272.096-.39.049-.168-.067-.311-.254-.383-.417-.813-1.854,6.014-7.197,7.501-8.177.527-.347,2.297-1.077,2.476-1.512l-.048-.111c-.076-.042-.085-.051-.179-.08-1.114-.35-2.684.819-3.564,1.358-.302-.444-.577-.926-.812-1.409.618-.538,1.377-.972,2.064-1.42l3.245-2.116Z"/>
  <path class="st6" d="M15.216,45.446l.077.014c.014.357-.927,2.118-1.138,2.602-.472,1.084-2.525,5.639-2.129,6.551.14.323.429.4.73.517-.232,1.069-.501,2.132-.746,3.198-.891,0-2.432.214-3.229.09-.016-.013-.033-.025-.048-.039-.497-.437-.734-1.089-.79-1.734-.159-1.825-.11-3.681-.153-5.511-.024-1.031-.191-2.768-.027-3.699.042-.235.189-.467.343-.644.311-.355.732-.588,1.177-.732,1.193-.385,4.513-.51,5.933-.612Z"/>
  <path class="st5" d="M36.178,86.479c.058-.008.142-.002.201-.002l.056.081c-.115,1.555-.432,3.157-.667,4.701-.155,1.018-.227,2.192-.543,3.171-.218.148-.465.278-.711.375-1.663.663-3.862.537-5.493-.151l-.848-.401c.109-.891.131-1.808.189-2.704.105-1.538.201-3.077.288-4.616.854-.148,1.783-.139,2.649-.192,1.625-.11,3.252-.197,4.88-.262Z"/>
  <path class="st5" d="M51.14,85.484c.328-.047.692-.026,1.025-.035-.534,2.593-.697,5.278-1.159,7.889-.042.023-.084.046-.126.068-1.646.873-3.649.731-5.375.204-.507-.186-.982-.431-1.455-.689.215-2.303.399-4.608.552-6.916.749-.135,1.556-.147,2.316-.206l4.222-.316Z"/>
  <path class="st4" d="M22.027,87.354l1.202-.061c.02,1.588-.12,3.204-.189,4.793l-.269,7.188-.358,8.713c-.03.811-.072,1.625-.084,2.437-.005.337.027.681.005,1.017-.015.219-.059.468-.207.64-.176.204-.455.161-.698.157-.455-.008-.755-.275-1.065-.572-.006-1.998.095-3.998.163-5.995.085-2.935.186-5.868.302-8.802l.187-6.132c.032-1.12.031-2.249.119-3.366.298.006.595-.005.893-.017Z"/>
  <path class="st4" d="M70.456,84.074l.13-.002c.009.014.02.026.028.041.107.208.833,20.095.856,22.01.004.366.032.83-.064,1.184-.055.206-.246.415-.427.52-.368.214-.774.154-1.161.042-.19-.21-.265-.361-.298-.646-.11-.962-.1-1.955-.134-2.922l-.183-4.344-.668-15.528c.648-.094,1.282-.215,1.921-.354Z"/>
  <path class="st4" d="M8.764,77.405c.679.476,1.286,1.067,1.86,1.662-.086,1.431-.277,2.868-.431,4.294l-.693,6.647-.624,6.349c-.128,1.35-.153,3.265-.593,4.53-.298.132-.575.173-.901.146-.246-.021-.534-.098-.68-.316-.145-.217-.074-.763-.058-1.015.085-1.34.236-2.684.359-4.021.311-3.445.647-6.887,1.009-10.327l.474-5.174c.081-.911.102-1.879.279-2.774Z"/>
  <path class="st9" d="M42.653,97.022c.073.059.115.118.172.193,1.166,1.514,2.583,1.993,4.423,2.233.169.343.349.689.465,1.055.135.426.205.897.39,1.305.184.405,2.194,1.931,2.631,2.297-.706.696-.921,1.415-1.153,2.353-.053.014-.053.017-.116.014-.489-.029-1.099-.307-1.555-.483-2.297-.886-4.602-2.102-6.353-3.862.31-1.71.63-3.427,1.097-5.102Z"/>
  <path class="st9" d="M26.951,97.882c.08.072.062.045.111.124.111.18.21.367.328.542.703,1.052,2.102,1.333,3.252,1.559.168.42.346.853.407,1.305.229,1.689-.228,1.438,1.159,2.834.105.763.185,1.186.737,1.753-.698.725-1.082,1.394-1.342,2.369-2.092-.821-4.952-2.667-6.01-4.668.052-1.075.93-4.837,1.359-5.818Z"/>
  <path class="st9" d="M37.465,104.918c.018-.003.037-.007.055-.008.742-.062,1.692-.124,2.278.394.598.528,1.255,1.604,1.266,2.416.003.194-.06.342-.199.478-.904.884-3.458,1.138-4.676,1.153-1.324-.056-2.576-.267-3.831-.693.231-.535.46-1.059.813-1.528.984-1.308,2.72-1.999,4.295-2.213Z"/>
  <path class="st6" d="M15.981,43.467c.116-.012.217-.011.333-.006l.061.076c-.015.269-.259.585-.394.817-1.291.08-2.581.186-3.868.318-1.088.101-2.305.154-3.35.484-.112.034-.222.074-.329.121-.107.046-.212.099-.314.157-.102.058-.2.122-.294.191-.095.069-.185.143-.271.223-.417.39-.635.844-.742,1.4-.2,1.041-.016,2.289.013,3.353.037,1.366.024,2.732.058,4.098.026,1.053.1,2.106.083,3.16-.176-.123-.338-.27-.503-.408-.548-.605-.777-1.357-.846-2.156-.157-1.835-.113-4.031-.147-5.899-.02-1.099-.186-2.353-.017-3.436.064-.408.251-.782.523-1.091.257-.292.539-.461.911-.567,1.068-.306,2.317-.311,3.424-.401,1.889-.156,3.779-.3,5.669-.433Z"/>
  <path class="st9" d="M55.322,102.819c.648-.043,1.181-.02,1.738.352.967.646,1.435,1.808,1.659,2.902-1.523.87-3.078,1.123-4.814,1.163-1.217-.019-2.364-.132-3.504-.578.171-.471.346-.911.642-1.321.948-1.317,2.696-2.267,4.279-2.518Z"/>
  <path class="st5" d="M28.569,40.909c.717.22,1.521.964,2.217,1.322,2.758,1.418,5.299,1.76,8.354,1.797-.307.315-.608.613-.96.877-.275.181-.571.349-.871.483-1.427.637-2.87.543-4.307-.015-2.07-.805-3.554-2.47-4.433-4.464Z"/>
  <path class="st7" d="M43.997,94.156c2.344.958,4.147,1.004,6.603.458-.035.519-.109,1.029-.185,1.543-.496.043-.976.115-1.461.226-.556.172-1.156.351-1.572.783-.354.367-.422.702-.408,1.191-.231-.034-.463-.067-.692-.113-.99-.199-1.887-.584-2.464-1.448.016-.883.076-1.762.179-2.639Z"/>
  <path class="st6" d="M45.428,60.751c.244-.019.496-.012.741-.016-.474.483-.963.962-1.408,1.472-.382.438-.722.908-1.133,1.322-1.194-.006-2.395.087-3.586.176-.08-.213-.183-.422-.275-.631-.412-.735-.97-1.322-1.531-1.944.92-.127,1.874-.127,2.802-.168,1.463-.063,2.927-.133,4.389-.212Z"/>
  <path class="st7" d="M28.148,95.338c.394.137.767.31,1.17.429,1.835.539,3.825.605,5.636-.049l-.284,1.737c-.411-.01-.823-.006-1.234-.008-.661.024-1.411.088-1.969.48-.437.307-.621.694-.703,1.21l-.227-.048c-.957-.205-1.909-.514-2.461-1.374.007-.79.039-1.586.071-2.376Z"/>
  <path class="st9" d="M33.57,98.403c.511-.026,1.312-.166,1.72.207.414.379.351,1.163.368,1.679-.79.069-1.549.139-2.319.344-.491.138-.945.343-1.404.563-.073-.522-.286-1.018-.347-1.542-.031-.266-.001-.534.18-.743.374-.429,1.272-.454,1.8-.509Z"/>
  <path class="st9" d="M50.354,97.121c.289-.03.617-.052.859.139.444.352.399,1.211.438,1.733-.943.174-1.793.434-2.648.874-.146.088-.299.166-.449.247-.261-.431-.55-1.047-.638-1.544-.042-.236-.028-.465.116-.665.414-.575,1.672-.701,2.322-.785Z"/>
  <path class="st8" d="M32.824,55.306c.145.097.238.226.334.369.274.406,1.624,2.559,1.561,2.883-.302.007-.618-.135-.904-.227-.341-.06-.672-.136-1.006-.223-.518-.605-.918-1.375-1.306-2.069.424-.272.877-.499,1.321-.734Z"/>
  <path class="st8" d="M29.738,50.006c.278.168,1.225,1.977,1.46,2.383-.389.273-.814.488-1.233.711-.022-.007-.045-.01-.065-.021-.356-.197-1.158-1.92-1.36-2.351.38-.278.783-.502,1.198-.722Z"/>
  <path class="st5" d="M10.029,59.473l.068.012c.125.359-.019,1.544-.025,1.971-.518.056-1.034.086-1.555.111-.066-.691-.148-1.368-.182-2.062.566.003,1.128-.002,1.694-.032Z"/>
  <path class="st8" d="M31.485,53.093c.34.11.816,1.158,1,1.489-.439.233-.876.47-1.311.71l-.096-.032c-.165-.225-.318-.458-.458-.698-.14-.241-.267-.489-.381-.743.408-.257.821-.496,1.245-.726Z"/>
  <path class="st5" d="M39.28,65.792c.129.03.247.068.335.174.257.31.43.827.369,1.229-.025.162-.092.248-.22.348-.179.057-.267.025-.435-.034-.307-.232-.735-.502-.865-.884-.047-.139-.053-.264.022-.395.149-.262.528-.351.794-.438Z"/>
</svg>