<?xml version="1.0" encoding="UTF-8"?>
<svg id="Layer_1" xmlns="http://www.w3.org/2000/svg" version="1.1" viewBox="0 0 80 115">
  <!-- Generator: Adobe Illustrator 29.1.0, SVG Export Plug-In . SVG Version: 2.1.0 Build 142)  -->
  <path d="M33.8,2.8c2.8,0,5.3.4,7.8,1.6,1.5.8,2.9,1.7,4.6,1.8.6,0,1.4,0,2,0,.4,0,.8-.4,1.2-.4s.4,0,.5.2c.3.3.4.7.4,1,0,.8-.5,1.4-1.1,2,1.2.5,2.3,1,3.3,1.9,2,1.7,3.7,4.2,3.9,6.9.3,3.1-.9,5.1-2.8,7.5-.2,2.2-1,3.9-2.1,5.7,0,1.5,0,2.9-.2,4.4-.6,4.6-2.2,7.3-5.8,10.1,2.8,2.2,5.3,5.1,7.2,8.2.4.6.9,1.4,1,2.1,0,.3,0,.5-.3.7.9,1.6,1.7,3.6,1.5,5.4.7,0,1.4,0,2.1.2.8.3,1.5.9,2.2,1.4l3.6,2.4,6.8,4.5c.9.6,1.9,1.2,2.8,1.8.3.2.9.6,1.1,1h0c0,.2,0,.4.2.6.2.9,0,3.1-.2,4,0,.4-.2.7-.5,1.1-.5.7-1.2,1.1-2,1.2,0,1,0,2.1,0,3.1,0,.9-.5,1.6-1.3,2.1,0,1.4.2,2.8.3,4.2.2,3.3.4,6.6.6,9.9l.3,4.8c0,.8.2,1.6,0,2.4,0,.4,0,.8-.4,1.1-.4.5-1,.7-1.6.7s-1.2,0-1.7-.5c-.3-.3-.4-.6-.5-.9-.2-.8-.2-1.7-.2-2.5l-.3-4.2-.9-14.2c-2.7,0-5.4.3-8.1.5-1.2,0-2.5.2-3.7.2,0,1.4-.2,2.7-.2,4.1v2c0,.2,0,.5-.2.7-.5,1-3.5,1.7-4.6,2,0,.5,0,1,0,1.6,1.7,1.5,5.5,3.8,6.6,5.4.4.6.6,1.4.5,2.1,0,.6-.6,1-1.1,1.3-1.4,1-4.5,2-6.3,1.7-2.1-.4-3.3-2.1-4.8-3.3-.9-.7-2-.9-2.6-2-.5-.8-.5-2.6-.2-3.6,0-.6.5-1.1.6-1.8h0c-.8,0-1.6,0-2.4.2-.9,0-1.8,0-2.7.3l-.2,1.8c1.8,1.4,3.5,2.9,5,4.6h0c.7.7,1.4,1.9,1.4,3s-.3,1.1-.7,1.4c-.7.6-1.6.8-2.4,1-.9.2-4.3.7-5.2.6-2.1-.2-3.1-2.1-4.3-3.5-.5-.5-1.1-.9-1.6-1.5-.9-1.1-.9-2.7-.4-4,.3-.6.7-1.1.9-1.8.2-.6.3-1.1.3-1.7-.9,0-1.8-.2-2.7-.3l-.6,9c0,1.4,0,2.9-.3,4.3,0,.5-.3,1.1-.6,1.4-.4.4-1,.5-1.5.5s-1.2-.2-1.6-.6c-.3-.3-.3-.6-.3-1v-2.2l.2-3.4.6-10.5c-.9-.4-2-.9-2.7-1.7-.2-.2-.4-.5-.4-.8-.2-1.1.3-5.1.3-6.4-1.7-1.3-3.4-2.7-5.1-4l-1.3,13-.4,4.5c0,1-.2,2-.4,3,0,.4-.2.8-.5,1.1-.4.4-1,.6-1.5.6s-1.2-.3-1.6-.7c-.3-.3-.4-.8-.4-1.2,0-.7,0-1.3.1-2l.3-3.6,1-11.4c.2-2.2.5-4.5.5-6.7,0,0-.1,0-.2-.2-.4-.4-.8-.9-1-1.4-.3-.9-.1-3.8-.1-4.9-1-.8-1.9-1.4-2.1-2.9-.2-1.1-.2-3.6.5-4.5s2.1-.9,3.1-1v-1.2c-.8,0-1.5-.3-2.1-1-.3-.3-.7-.8-.8-1.2-.3-1.3-.2-3.2-.2-4.6v-5.4c0-.9.2-1.8,1-2.5.3-.3.7-.5,1.2-.7.8-.2,1.6-.3,2.4-.3,1.7-.2,3.3-.3,5-.2,2.1-2.1,4.1-3.1,6.9-3.9-1.3-1.2-2.3-2.8-2.8-4.5-1,.3-2,.5-3,.2-1.5-.4-2.7-1.5-3.4-2.8-1.2-2.1-1.5-4.5-.9-6.9-.9-2.2-.9-4.5-.4-6.8-.3-.1-.6-.3-.8-.5-.6-.5-.9-1.1-1-1.9,0-.4-.1-1,.2-1.3s1-.2,1.4-.2.9-.2,1.1-.6c.4-.7.6-1.6.7-2.4.5-2.1,1.2-4.2,2.6-5.8,1.7-2,4-2.9,6.5-3.2.7,0,1.6,0,2.3-.3.5-.2,1-.7,1.6-1,2-1.1,4.1-1.6,6.4-1.8l-.2.3Z" fill="#412f20"/>
  <path d="M31,16.4c.2.2.4.6.6.9.5.7.9,1.3,1.5,1.8,2.1,1.9,5,2.8,7.8,2.7.6,0,1.8-.1,2.2-.6.3-.4-.6-1.2-.7-1.7,0-.3,0-.6,0-.9.2,0,.3,0,.4.2,2.4,2.1,4.2,3.2,7.5,3.2.5,2.2.6,4.5.3,6.8,0,.8-.3,1.6-.4,2.4,0,1.5,0,2.9-.3,4.4-.6,3.6-2.5,6.6-5.4,8.7-3.3,2.4-6.6,2.9-10.6,2.3-1.1-.2-2.1-.5-3.2-.9-3.2-1.2-6.6-3.4-8.2-6.5-.5-1-.6-1.8-1-2.7-.6-.4-2,.9-3.8.3-1.2-.4-2-1.4-2.5-2.5-.8-1.6-1.1-3.6-.6-5.3.3-1,1-1.8,1.9-2.2h1.6c1.8.7,2.4,2.3,3,3.9h.2c.1,0,.3,0,.4-.2.2-.2.4-.5.6-.7,2.4-2.4,3.3-4.3,3.4-7.7.6-.2,1.1-.3,1.6-.6,2.1-1.1,2.8-2.9,3.5-5h.2Z" fill="#c66f2c"/>
  <path d="M32.8,23.2c.6,0,1.2,0,1.8.1.5.1.9.5,1.2,1,0,.2.2.4,0,.6-.4.9-2.7.4-3.5.5-.6,0-1.1.3-1.6.6-.5.3-.9.7-1.5.9h-.6c-.2,0-.2-.2-.3-.4,0-.4.2-.9.4-1.1.9-1.2,2.6-1.8,4-2v-.2Z" fill="#412f20"/>
  <path d="M32.5,38.4h.4c.3.2.7.7,1,.9.3.3.7.6,1,.8.7.4,1.5.7,2.3.8.7,0,1.8.3,2.5,0,.8-.2,1.5-1.1,2.3-1,.2,0,.3,0,.4.2v.4c0,.3-.2.5-.4.6-1.4.9-3.1,1.3-4.8,1.1-1.6-.2-4-1.3-5-2.6-.2-.2-.3-.6-.3-.9s.2-.4.5-.5v.2Z" fill="#412f20"/>
  <path d="M45,23.5c.6,0,1.3,0,1.9.3,1,.4,2.1,1.2,2.6,2.3,0,.3.2.8,0,1.1,0,.1-.2.2-.3.2-.5,0-.9-.4-1.2-.7-2-1.7-4-.6-4.8-1.1-.2-.1-.3-.4-.3-.6s0-.5.2-.7c.5-.6,1.3-.8,2-.9h-.1Z" fill="#412f20"/>
  <path d="M29.4,31c.8.3.9,1.4,2,1.7,1.4.4,1.9-.7,2.8-1.2h.5c0,.1.2.3.2.4,0,.4-.2.8-.5,1.1s-.6.6-1,.8c-.7.4-1.6.6-2.5.3-.8-.2-1.5-.9-1.9-1.7-.2-.3-.3-.7-.2-1.1,0-.2.3-.3.5-.4h0Z" fill="#412f20"/>
  <path d="M46.5,31.5h.5c0,.1.2.3.2.4,0,.5-.3,1-.6,1.4-.5.6-1.2,1-2,1s-2-.3-2.7-1c0-.2-.2-.3-.3-.5,0-.3-.2-.8,0-1.1,0-.1.2-.2.4-.2.4,0,.8.7,1.1,1,.3.3.7.5,1.2.4,1,0,1.6-.8,2.2-1.5h0Z" fill="#412f20"/>
  <path d="M40.4,34.6c.5,0,.8.2,1.2.5.5.4.9,1,.9,1.7v1.2s0,0,0,.2c0,0,0,0,0,.2-.6.7-1.6.9-2.5.9s-.8,0-1.1-.2h0c0-.6,2.1-.3,2.7-1,.7-.9-.7-1.6-.8-2.4,0-.2,0-.3.2-.5l-.4-.6Z" fill="#412f20"/>
  <path d="M16.9,29.1c.6,0,.9,0,1.4.4.7.5,1.4,1.8,1.6,2.7,0,.2,0,.5-.1.7s-.3.2-.5.2c-.6-.5-.5-1.8-1.2-2.4-.5-.4-1.2-.2-1.7-.6-.1-.1-.1-.2-.1-.3.1-.3.4-.4.7-.6h0Z" fill="#412f20"/>
  <path d="M24.5,43.6c.2,0,2,1.4,2.4,1.7,1,2.4,2.4,4,4.8,5,.9.4,1.8.6,2.6,1.2,1.6-.4,3.7-2.1,4.6-3.5,2-.2,3.7-1,5.3-2,3.1,2.3,6,5.6,7.9,8.9-.5,0-1,0-1.6,0-2.4.4-4.5,2-5.9,4l-.9-.7c.2-1.2.7-4.8.5-5.9,0-.2,0-.3-.3-.4h-.4c-.2.2-.3.4-.3.7-.2,1-.3,2-.4,3-.3,2.1-.7,4.2-1.1,6.2-1.5,0-3,0-4.5.3-.7-.7-1.4-1.2-2.3-1.8-.2-.3-.4-.7-.5-1-1.1-1.8-2.3-3.7-3.4-5.5-.5-.8-.9-1.7-1.5-2.4-.2-.3-.5-.6-.9-.8-.5,0-1,0-1.4.2-.5.3-.8.7-.9,1.2s0,.9.2,1.3c.4.9,1,1.8,1.5,2.7.7,1.1,1.3,2.1,2,3.2-1.4.4-2.7,1-4,1.6-1.1-.4-2.2-.7-3.3-1,.7-1,1.9-6.3,1.8-7.5,0-.2,0-.3-.2-.5h-.4c-.1,0-.2.2-.3.4-.2.6-.3,1.3-.5,1.9-.3,1.4-.7,2.8-1,4.2-.1,0-.3-.3-.4-.4-.1,0-.3-.2-.4-.4-.2,0-.3-.2-.5-.3-.2,0-.3-.2-.5-.3-2.2-1.1-4.4-1.1-6.7-.3.4-1.9,1-4.6,1.9-6.3.3-.6.7-1.1,1-1.7,2.2-3.3,4.3-4.2,8-5.3v.2Z" fill="#d6a5a5"/>
  <path d="M54.5,62.7c.4,0,.9,0,1.3,0,.4,0,.8.2,1.1.5.9.5,1.7,1.1,2.6,1.7l4.3,2.9,5,3.3c1,.7,2,1.3,3,2,.2.2.4.3.6.5,0,.2,0,.4-.2.5-.5.6-1.6.7-2.3.8-3.6.4-7.2.5-10.7.7l-15.6,1-11.7.7c-2.1,0-4.2.3-6.3.3s-1.7,0-2.6-.3c-.3,0-.6-.2-.8-.3-.3,0-.5-.3-.8-.5-.9-.6-1.7-1.3-2.5-2l-4.7-3.9c-1.6-1.3-3.1-2.6-4.6-3.9-.5-.5-1.1-.9-1.6-1.5h0c.6-.7,4.2-.7,5.1-.8.2.3.4.7.7,1,2,2.1,6.2,2.2,8.9,2.3.3.4.6.8,1,1.2,1.3,1.4,2.7,2.6,4.1,3.9,1.1,1.1,2.2,2.3,3.4,3.3.2.2.5.4.7.5.7.2,3.7-.2,4.7-.2,3.8-.2,7.7-.5,11.5-.7,2.4-.2,4.9-.2,7.4-.5.4,0,.8,0,1.1-.3,0,0,.2-.2.2-.3,0-.3-.3-.6-.5-.8-.8-.9-1.9-1.7-2.8-2.5-1-.9-2-1.8-3-2.6.3-.5.7-1,1-1.5s.5-1,.8-1.4c.8-1.2,1.7-1.9,2.4-3.2h-.2Z" fill="#7fbfc7"/>
  <path d="M68.6,80h1c0,1,0,3.2-.6,3.9-.3.4-1,.5-1.5.6-1.8.2-3.8.2-5.6.3l-11.1.7-16.6,1c-3.2.2-6.4.4-9.7.5-.2,0-.3,0-.5-.2-.6-.6-.4-3.3-.4-4.2,1.7.2,3.4,0,5.1-.2,2.4-.2,4.7-.3,7.1-.5l32.6-2h.2Z" fill="#ffd89a"/>
  <path d="M7.6,66.5c.8.5,1.5,1.3,2.3,2,2.2,1.9,4.5,3.7,6.8,5.6,1.3,1.1,2.7,2.4,4.1,3.4.5.4,1.1.7,1.7.9.2,0,.5,0,.7.2.2,0,.5,0,.7,0h1.4c2.2,0,4.4-.2,6.5-.4l13.2-.8,16.1-1c3-.2,6.1-.3,9.1-.6.8,0,1.4-.3,2.1-.6,0,.8,0,1.6-.4,2.4s-.2.3-.4.5h0c-.4.4-2,.4-2.5.5-2.7.2-5.5.3-8.3.5l-17.2,1-12.5.8c-2.1,0-4.2.4-6.2.4s-2,0-3-.6c-1.1-.6-2.1-1.6-3-2.4l-4.5-3.7-3.8-3.1c-.7-.6-1.6-1.2-2.3-1.9-.7-.7-.5-2.3-.5-3.3h0Z" fill="#7fbfc7"/>
  <path d="M15.8,57.6h1.5c1.6,0,2.9.9,3.9,2.1-.8-.2-2.2-.7-2.9-.7s-.4,0-.5.3c-.1.2,0,.2,0,.4.2.3.4.4.7.5.8.3,1.7.5,2.6.7,1.6.5,3.1,1,4.7,1.4.5,0,.9-.4,1.3-.6,1.2-.6,2.5-1.1,3.9-1.1s3.8,1,5.1,2.3.9,1,.9,1.6,0,.5-.3.7c0,0-.3,0-.4,0-.6,0-1.1-1-1.5-1.5-.5-.5-1.4-1.5-2.2-1.5s-.4,0-.5,0c0,.2,0,.4.2.6.3.4.7.6,1.1.9.6.5,1.2,1.2,1.6,1.9.3.5.3.8.2,1.3-.2.2-.3.4-.6.4-.7-.2-1-1.3-1.4-1.9h0c-.3-.4-1.4-1.2-1.9-1.3q-.2,0-.4,0c-.3.8,1.2,1.4,1.6,2,.3.4.5,1,.7,1.4-.2.2-.4.4-.6.5-.8,0-1.5-1.7-2.3-2.3-.2-.2-.5-.3-.7-.2,0,0-.1,0-.1.2,0,.6.6,1.1.9,1.5.2.3.4.7.7,1.1-.2.2-.5.3-.8.4-1-.3-1.2-.9-2-1.3-.6-.3-1.3,0-1.9-.3-.6-.2-1-.7-1.6-.8-.9-.2-1.9,0-2.8,0-1.5,0-3.1-.2-4.5-.5-1.2-.3-2.4-.8-3-1.9-1.1-1.9-.2-4.3.3-6.2.5,0,.9-.2,1.4-.2l-.4-.2Z" fill="#c66f2c"/>
  <path d="M38.5,66.1h1.2c0,.7-.4,1.3-.5,1.9.2.5.4.9.9,1.1.2,0,.5.2.7.2,0,.5.3,1,.8,1.3.3.2.8,0,1.1,0s.5-.3.8-.4c.3.4.6.7,1.1.7s1.1-.2,1.6-.6c.7.3,1.4.3,2.1,0,.4-.2.8-.4,1.1-.7,1.8,1.6,3.7,3.1,5.4,4.7l-12.5.8c-3.4.2-6.7.4-10.1.6l-5.4-5.1c-1-.9-2-2-3.1-2.7,1.6,0,1.9,1,3.8.7.6.7,1.2,1.4,2.1,1.4s1.2-.2,1.7-.6c1,0,1.6,0,2.4-.6.6,0,1,0,1.5-.3h0c1.3,1.1,2.8,2.1,4.3,3,0-.6-.3-1.2-.3-1.8-.4-1.2-.3-2.4-.8-3.6h.1Z" fill="#fefef6"/>
  <path d="M42.5,73.2c.2,0,.5,0,.6.3,0,0,0,.2.2.4,0,.2-.2.2-.4.3h-.3c-.2,0-.4,0-.5-.3v-.4c0-.2.3-.2.5-.3h0Z" fill="#412f20"/>
  <path d="M34.5,73.9c.2,0,.6,0,.8,0,0,0,0,.2,0,.3,0,.2-.2.3-.3.4-.3,0-.5,0-.7,0-.2,0-.2-.2-.2-.3,0-.2,0-.3.3-.4Z" fill="#412f20"/>
  <path d="M37.3,73.6c.3,0,.5,0,.7.4v.4c0,.2-.2.2-.4.3-.3,0-.6,0-.8-.3,0-.2,0-.2,0-.4,0-.2.2-.2.4-.3h0Z" fill="#412f20"/>
  <path d="M39.5,73.6c.2,0,.5,0,.7,0,.2,0,.3.2.3.4s0,.3-.3.4c-.3,0-.5,0-.8-.2,0,0-.2-.2-.2-.3,0-.2,0-.2.3-.3h0Z" fill="#412f20"/>
  <path d="M32.9,72.4h.7c.2,0,.3,0,.4.3,0,.2,0,.3-.2.5h-.7c-.2,0-.3-.2-.4-.3,0-.2,0-.3,0-.4h.1Z" fill="#412f20"/>
  <path d="M47.3,73h.7c.2,0,.3.2.3.4s0,.2-.3.4h-.7c-.2,0-.3-.2-.4-.4q0-.2.2-.3h.2Z" fill="#412f20"/>
  <path d="M40.3,71.7h.6c.2,0,.3.2.4.4q0,.2,0,.4h-.9c0,0-.2,0-.2-.3s0-.3.2-.4h0Z" fill="#412f20"/>
  <path d="M36.1,70.5c.3,0,.5,0,.7,0,.2,0,.3.2.3.4s0,.2-.2.3h-.7c-.2,0-.3,0-.4-.3,0-.2,0-.3.2-.5h.1Z" fill="#412f20"/>
  <path d="M43.1,71.5c.3,0,.5,0,.7.2,0,0,.2.2.2.4s-.2.2-.3.3c-.2,0-.5,0-.7-.2,0,0-.2-.2-.2-.3,0-.2.2-.3.3-.4Z" fill="#412f20"/>
  <path d="M38.1,71.9c.3,0,.5,0,.7.3,0,0,0,.2,0,.4,0,0-.2.2-.4.2s-.4,0-.6-.2c0,0-.2-.2-.2-.3,0-.2.2-.3.4-.4Z" fill="#412f20"/>
  <path d="M35.4,72.2h.4c.3,0,.4.2.6.4,0,.2,0,.2-.3.3h-.7c-.2,0-.2-.2-.3-.4q0-.2.2-.4h0Z" fill="#412f20"/>
  <path d="M45,73.2h.3c.3,0,.4.3.5.5,0,.2,0,.2-.3.3-.3,0-.5,0-.7-.3,0,0,0-.2-.2-.4,0-.2.2-.2.4-.3v.2Z" fill="#412f20"/>
  <path d="M33.6,70.7c.2,0,.4,0,.6,0,.2,0,.2,0,.3.3,0,.2,0,.3-.2.4h-.5c-.2,0-.4-.2-.4-.4s0-.3,0-.4h.1Z" fill="#412f20"/>
  <path d="M45.8,71.5c.3,0,.5,0,.7.3,0,0,0,.2,0,.4,0,.2-.2.2-.4.3-.2,0-.4,0-.6-.3,0,0-.2-.2-.2-.3,0-.2.2-.2.4-.3h0Z" fill="#412f20"/>
  <path d="M31.3,70.8h.4c.2,0,.4.2.5.4,0,.2,0,.2-.3.4-.2,0-.4,0-.6,0-.2,0-.2,0-.3-.3,0-.2.1-.3.3-.4Z" fill="#412f20"/>
  <path d="M49.9,72.7c.3,0,.5,0,.6.4,0,0,0,.2,0,.4,0,0,0,.2-.2.3-.2,0-.3,0-.5-.2s-.2-.2-.3-.4c0-.2,0-.2.3-.4h.1Z" fill="#412f20"/>
  <path d="M47.9,71.4h.6c.2,0,.3,0,.4.3v.5h-.2c-.3,0-.6,0-.8-.3v-.4h0Z" fill="#412f20"/>
  <path d="M51.5,56h0c.9.6,1.7,3.2,1.9,4.2.5,2.4-1.3,3.4-2.4,5-.4.6-.6,1.3-1,1.9-.5.8-1.6,2-2.6,2.1h-.3c0-.7,1.2-1.6,1.5-2.2,0-.2,0-.4,0-.6,0,0,0-.2-.3-.3-.8,0-1.9,2-2.4,2.6-.2.3-.7.9-1.1.9s-.2,0-.3-.2c-.2-.9,1.5-2.5,1.8-3.5v-.5h-.2c-.8,0-1.9,2.3-2.3,2.9-.2.3-.5.6-.8.8-.2.2-.4.3-.7.3q0-.2,0-.4c.3-1.3,2.3-3.1,2.1-4.2,0,0,0,0-.2,0-.9,0-2.2,2.8-2.9,3.3h-.2c0,0-.2-.2-.3-.4-.2-.5,0-1.1.3-1.6.4-1,1.4-1.9,2.3-2.5.6-.4,1.3-.7,1.8-1.2.8-.8,1.5-1.8,2.5-2.4.5-.3,1.2-.5,1.8-.7.3,0,.7-.3.8-.6,0,0,0-.3,0-.4,0,0-.2-.2-.3-.2-1.6,0-3.3,1.1-4.4,2.1.2-.4.4-.7.6-1.1,1.4-1.8,3.3-2.9,5.6-3.2l-.2.2Z" fill="#c66f2c"/>
  <path d="M34.2,97.4h.2c.2.3,0,1.5,0,2h0c.5.9,1.6,1.5,2.4,2.2,1.3,1.1,4.1,3.5,4.2,5.2,0,.2,0,.5-.2.6-.2.2-.5.2-.8.2-.4-.3-.6-1.6-.9-2.1-.2-.3-.5-.7-.9-.7s-.2,0-.3,0c0,0,0,.2,0,.3,0,.5,1.1,1.7,1.1,2.5s0,.3-.2.4c-.3.3-.8.2-1.2.2,0-.8-.3-1.6-.8-2.2-.2-.2-.5-.5-.8-.5s-.2,0-.3.2c0,.4,0,.6.3.9.3.4.5.7.5,1.2s0,.5,0,.7c0,0-.2.2-.4.2h-.4c-.2,0-.8-1.9-1.6-2.5-.2,0-.3-.2-.5,0q-.2,0-.3.2c0,.6.9,1.3,1.1,1.8,0,.2,0,.3,0,.5h-.3c-1.7-.2-2.7-2-3.7-3.1-.4-.5-1-.8-1.4-1.3-1.5-1.8.1-3.3.7-4.9.2-.6.3-1.2.3-1.9h4.4Z" fill="#c66f2c"/>
  <path d="M42.3,96.7c1.5-.4,3.2-.6,4.7-1v1.7c0,.2.3.4.4.6.6.6,1.4,1.1,2.1,1.7,1.3.9,2.6,1.8,3.7,2.9.5.4.9.9.9,1.6v.2c-.3-.2-.5-.7-.7-1s-.4-.5-.6-.7h-.4c-.2,0-.2.2-.3.4,0,.5.6.9.8,1.3s.2.4,0,.7c0,.3-.4.5-.7.7h0c0-.9-.8-2.2-1.5-2.7,0,0-.3,0-.5,0q-.2,0-.2.2c0,.7.9,1.4,1.1,2,0,.2,0,.4,0,.6s-.7.3-1,.4c0-.4-.2-.8-.4-1.2-.3-.5-1-1.3-1.6-1.4q-.2,0-.3,0c-.2.7,1,1.5,1.2,2.2v.4c-.3.2-.7,0-1,0-2.1-.4-3.1-2.1-4.6-3.2-.7-.5-1.7-.7-2.2-1.5-.4-.7-.4-2,0-2.7.2-.7.6-1.4.8-2.1l.3-.2Z" fill="#c66f2c"/>
  <path d="M47.4,88.9c.4-.3.8-.6,1.2-.9.5-.3,1-.6,1.5-.9.4.5,1.8,1.7,2,2.2v.2c-.7,0-6.6.7-6.9.9-.2.3,0,.7,0,1,1,0,2-.2,2.9-.3,1.3,0,2.6-.2,3.9-.2v.7c-1.7,0-3.4.2-5.1.4-.5,0-1.1,0-1.5,0-.2,0-.4,0-.5.4,0,.4.2.6.4.8,2-.3,4-.5,6-.6h.6c-.7.5-1.5.8-2.2,1-2.5.8-5,1.3-7.6,1.8l-.3-8.2c1.1,0,2.2,0,3.2-.2.8.3,1.6,1.3,2.5,1.7h-.1Z" fill="#d5bc2a"/>
  <path d="M9.9,72.7l6.8,5.6c1.2,1,2.5,2.2,3.8,3.1.7.4,1.4.7,2.1,1v4.5c-2.3-1.8-4.5-3.6-6.8-5.4l-2.9-2.3c-.9-.7-1.8-1.3-2.5-2.2-.2-.2-.3-.4-.4-.7-.3-.9-.2-2.6,0-3.5h-.1Z" fill="#ffd89a"/>
  <path d="M23.5,87.8s.1,0,.2,0c.6.3,1.1.3,1.7.4-.2,4.3-.5,8.7-.8,13l-.3,5.4c0,1.1-.1,2.1-.2,3.2,0,.3-.1.6-.2.8-.2.2-.4.3-.8.3s-.5,0-.7-.2-.2-.3-.2-.4c0-.8,0-1.6.1-2.3l.3-4.4.6-9.9c.1-2,.3-4,.3-6Z" fill="#b6b5b5"/>
  <path d="M11.2,79.3c.6.4,1.1.9,1.7,1.3-.3,4.5-.8,9-1.2,13.5l-.5,4.9c0,.9-.1,1.8-.3,2.7,0,.2-.1.4-.3.6-.2,0-.5.2-.8.2s-.5-.3-.8-.5c0-1.1.2-2.2.3-3.3l.6-5.9.8-8.8c.1-1.6.2-3.1.5-4.7Z" fill="#b6b5b5"/>
  <path d="M68.3,85.6h0c.3,4.3.5,8.5.8,12.7l.3,4.8c0,.9,0,1.8,0,2.7s0,.6,0,.8c-.2.2-.4.4-.7.4s-.4,0-.7-.2c0-.2-.3-.3-.3-.6,0-.8,0-1.7-.2-2.5l-.3-4.8c-.3-4.4-.7-8.9-.8-13.3.6,0,1.2,0,1.8-.2v.2Z" fill="#b6b5b5"/>
  <path d="M14.4,49.5h0v.2c-.2.5-.4,1-.6,1.4-.5,1.2-2,5.9-1.6,6.9.1.3.5.4.8.5-.2.8-.4,1.6-.5,2.5h-1.2c-.3,0-.5,0-.8,0-.2-.5-.3-1-.3-1.5-.1-1.6,0-3.2,0-4.7s-.1-2.4,0-3.4c0-.4.2-.7.5-1,.8-.9,2.5-.8,3.7-.9h0Z" fill="#7fbfc7"/>
  <path d="M39.5,94.3h1.1v1.2c-1.3.3-2.6.4-3.9.5-3.1.3-6.1.3-9.2,0-.5,0-.9,0-1.4-.2v-1.4c4.4.2,8.9,0,13.3,0h.1Z" fill="#d5bc2a"/>
  <path d="M15.1,47.7h.3c0,.3-.3.6-.4.8-1.1,0-2.3,0-3.4.3-.8.2-1.5.6-1.9,1.3-.3.4-.4.9-.5,1.4-.2,1.3,0,2.7,0,4.1s-.2,3.7.1,4.9v.3h-.1c-.5-.5-.9-.8-1-1.5-.1-1.6,0-3.2,0-4.8s-.1-3.3,0-4.6c0-.4.2-.7.5-1s.6-.5,1-.6c1.1-.4,4-.4,5.4-.5h0Z" fill="#7fbfc7"/>
  <path d="M26.4,92.1h14.1v.8h0l-8.1.3c-2,0-4.1,0-6.1,0v-1.1h.2Z" fill="#d5bc2a"/>
  <path d="M28.6,46.2c.6,0,1.1.5,1.7.7,2,.8,4.6,1.3,6.8,1.1-.3.4-.7.7-1.1,1l-1.5,1.2c-.6-.4-1.3-.6-1.9-.9-1.5-.7-3-1.8-3.9-3.2h-.1Z" fill="#c66f2c"/>
  <path d="M29.5,54.2c.4.2,3,4.7,3.5,5.5-.3,0-.6-.2-.8-.2-.4,0-.7,0-1.1,0-.9-1.5-1.8-3-2.7-4.4.4-.2.7-.5,1.1-.7h0Z" fill="#5aba47"/>
  <path d="M33.1,87.9h0c-.7,1-1.4,2-2.2,2.9-.3-.3-.6-.7-.9-1l-1.3-1.6,4.3-.3h0Z" fill="#d5bc2a"/>
  <path d="M38.5,87.5h1.4c-.6.9-1.3,1.9-2,2.8l-.6-.6-1.8-1.9c1,0,2,0,3-.2h0Z" fill="#d5bc2a"/>
  <path d="M40.8,63.2h1.1c-.6.5-1,1-1.5,1.6h-1.4c0,0-.8.2-.8.2,0-.5,0-1-.3-1.5,1,0,2,0,2.9-.2h0Z" fill="#7fbfc7"/>
  <path d="M20.4,86.6c.6.4,1.2.9,1.8,1.4,0,.7,0,1.4-.1,2-.7-.4-1.2-1.2-1.8-1.7,0-.6,0-1.1.1-1.7Z" fill="#d5bc2a"/>
  <path d="M34.3,89c.6.5,1.1,1.3,1.6,1.9h-3.3c.6-.7,1.2-1.3,1.8-1.9h0Z" fill="#d5bc2a"/>
  <path d="M20.1,89.8c.5.6,1.2,1.1,1.8,1.5v1.6c-.6-.5-1.3-.9-1.9-1.4,0-.6,0-1.2.1-1.7Z" fill="#d5bc2a"/>
  <path d="M27.8,51.9h.3c.4.2.7.9.9,1.3l-.7.4-.5.3c-.2-.4-.6-1-.5-1.6,0-.3.2-.4.4-.6v.2Z" fill="#c66f2c"/>
  <path d="M43.5,59.7c.5.4.8.8,1.1,1.3-.3.3-.5.5-.8.7-.2.2-.5.3-.8.5.2-.8.3-1.7.4-2.5h0Z" fill="#fefef6"/>
  <path d="M37.2,66.1c.2.3.3.7.5,1-.3,0-.6.2-1,.3h-.4c0-.3,0-.7,0-1,.3,0,.6-.2.9-.3Z" fill="#5aba47"/>
  <path d="M11.4,62.3h1c0,.3,0,.7.1,1.1h-1.2v-1.1h0Z" fill="#b6b5b5"/>
  <path d="M40.4,89.5c0,.4,0,.9,0,1.4h-1c0-.4.7-1,1-1.3h0Z" fill="#d5bc2a"/>
  <path d="M26.5,88.2h1l-.6.5-.4.4v-1h0Z" fill="#d5bc2a"/>
  <path d="M51.9,86.7h.2v.7h0c-.2-.2-.4-.4-.5-.6h0l.3-.2h0Z" fill="#d5bc2a"/>
  <path d="M37.7,68.2c0,0,0,.3,0,.4v.3h-.2c0-.2-.3-.3-.4-.4,0,0,.3-.2.5-.3Z" fill="#e8bd73"/>
</svg>