<?xml version="1.0" encoding="UTF-8"?>
<svg id="Layer_1" xmlns="http://www.w3.org/2000/svg" version="1.1" viewBox="0 0 80 115">
  <!-- Generator: Adobe Illustrator 29.1.0, SVG Export Plug-In . SVG Version: 2.1.0 Build 142)  -->
  <path d="M16.4,21.9c-.9-3.7-1.4-8.1.7-11.5.5-.8,1-1.4,1.7-1.9.3-.2.6-.4.8-.6.5-.5.9-1.1,1.4-1.7,1.6-1.7,3.9-2.7,6.1-3.3,4-1,8.7-.6,12.5.8,1.3.5,2.6,1.1,3.8,1.8,2.3,1.4,3.2,2.6,5,4.5,1.2,1.3,2.5,2.5,3,4.3,0,.3.2.6,0,.9,0,0,0,0-.2,0-.5-.1-1.5-1.2-1.9-1.6.4,1.3.6,2.5.4,3.9-.2,1.8-.8,3.6-1.3,5.3-.2.7-.5,1.4-.7,2.2-.2.8-.2,1.7-.3,2.5-.2,2.2-.3,4.3-1.4,6.3-.8,1.4-1.9,2.5-3.1,3.5.8.6,1.7,1.3,2.4,2,.8.9,7.1,8.8,7.2,9.4,0,.4-.3.6-.3,1,0,.1.6.8.6.9.6.9,1.2,2.2,1.4,3.3,0,.5.1,1,0,1.4,0,.3-.2,1-.1,1.1.8.4,1.7.6,2.5.9,3.6,1.6,7.2,3.3,10.7,5,1.2.6,2.5,1.2,3.7,1.8.6.3,1.3.6,1.8,1,.4.2.7.5.8,1,.2.8,0,3.1-.3,3.9-.3.5-.7.7-1.3.9-.2,0-.3,0-.5.1-.1,1.4-.2,3.9-.6,5.1-.1.4-.4.7-.7,1-.4.3-.8.4-1.2.6.1,2.2.4,4.4.5,6.6l1,13.6.3,4.2c0,.6.1,1.3.1,1.9,0,.4,0,1-.3,1.3-.4.4-1,.7-1.6.7-.5,0-1,0-1.3-.4-.3-.3-.4-.6-.4-1-.1-.7-.1-1.5-.2-2.2l-.2-3.1-.7-9.3-.6-7.8c0-1.3-.3-2.6-.3-3.9h0c0,0-.2,0-.3,0-.9.2-10.6,1.8-11,1.7,0,0,0,0,0,0-.2,2.5-.5,4.9-.8,7.3-.2,1.4-.3,3.1-.6,4.4,0,.3-.1.6-.4.8-.4.4-2.2,1-2.7,1,0,0,0,0-.1,0,0,.6,0,1.1-.1,1.7.3.4,1.3.8,1.8,1.3.4.4.7,1,1,1.4,0,0,0,0,0,0,.3.3.8.3,1.1.5.4.2.7.6,1.1.8.3.2.7.3,1,.4,1,.4,1.6,1.1,1.9,2.2.7.6,1.2,1.5,1.2,2.4,0,.8-.3,1.5-.8,2.1-1,1.1-2.8,1.7-4.3,1.8-3.8.2-6-1.9-9-3.7-.8-.5-2.4-1.2-3-1.7,0,0,0,0-.1-.1,0,0,0,0,0,0,.3.5.8.7,1.1,1.1.2.2,1.8,3.3,1.9,3.5.1.4.1.9,0,1.3-.2.7-.6,1.2-1.2,1.5-2,1.2-5.6,1.4-7.8.8-2.7-.7-4.8-3-6.2-5.3-.7-1.2-1.4-2.8-1.1-4.2.1-.5.5-.8.8-1.3,0-1,.1-1.8.7-2.6.2-.3.4-.6.5-1,.1-.5,0-1.1,0-1.6-.4,0-.9-.2-1.2-.5-.3-.3-.5-.6-.6-1,0-.6,0-1.3,0-1.9,0-1.2,0-2.4-.1-3.6,0-.7,0-1.4,0-2,0-.6,0-1.2-.1-1.8h0c0,.6,0,1.1-.1,1.7-.3,5.9-.8,11.9-1.3,17.8l-.4,4.9c0,.9,0,1.8-.2,2.6,0,.4-.3.9-.6,1.2-.4.3-1,.4-1.4.4-.5,0-1-.2-1.3-.6-.2-.3-.3-.6-.3-.9,0-.7,0-1.5.1-2.2,0-1.5.2-3,.3-4.5l.9-14.1.3-4.6c0-.9.2-1.9.1-2.9-.5,0-8.5-5.4-9.8-6.3-.4,2.2-.6,4.4-.8,6.7-.4,3.5-.8,6.9-1.2,10.4-.1,1.1-.3,2.3-.4,3.4,0,.9-.1,1.8-.3,2.6,0,.4-.2.8-.6,1.1-.4.3-1.1.4-1.6.3-.5,0-.9-.3-1.2-.7-.2-.3-.2-.6-.2-1,0-1.4.3-2.9.4-4.4l1.1-9.3.7-6.7c.1-1.3.2-2.6.5-3.9,0-.3.1-.5.2-.7-.7-.5-1.3-1-1.5-1.9,0-.3,0-.6,0-.9-.8-.8-1.1-1.5-1.1-2.7,0-.8,0-1.6,0-2.3-.9-.5-1.5-1-1.7-2-.2-1-.2-2.6.3-3.4.3-.4.6-.6,1.1-.8v-6.1c-.7-.3-1.5-.5-1.9-1.3-.2-.3-.2-.8-.2-1.1-.1-1.7,0-3.5-.1-5.2,0-1.3,0-2.7,0-4,0-.3.1-.6.2-.9.3-.7.7-1.1,1.3-1.4,1.1-.5,6.9-1.2,8.3-1.3,1.3-1.2,2.7-2.1,4.3-2.9.6-.3,1.3-.5,1.9-.9.6-.4,1.1-1.1,1.5-1.6-.5-.8-.9-1.5-1.3-2.4-1,.5-2,.5-3,.1-1.5-.5-2.7-1.7-3.4-3.1-.7-1.4-.9-3.4-.3-4.9.2-.5.5-.9.7-1.4ZM40.2,82.1l-.4,7.2c0,1.2,0,2.7-.3,3.9,0,.3-.2.5-.4.7-.4.4-1,.6-1.6.8,0,.7-.2,1.9.1,2.5,0,0,0,0,0,0,.4.6,1,1,1.4,1.6.2.4.6,1.8.9,1.9,0,0,0,.2.2.3,0-.6-.1-1.2.1-1.7.1-.2.2-.4.3-.6,0-1.3.1-2.7,1.1-3.6.1-.1.3-.3.4-.4.3-.5.3-1.6.4-2.2-.3,0-.8-.2-1-.4-.3-.2-.7-.6-.7-1,0-.8,0-1.6.2-2.4l.5-4.9c0-.5.2-1.2.1-1.7-.1,0-.3,0-.4,0-.2.1-.7.2-1,.2,0,0,0,0-.1,0ZM11.3,59.9l2.2-.3c.2,0,.5,0,.7,0-1.3-1.7-1.5-3.1-1.5-5.1-.4,0-.8,0-1.2,0h-.2c-.1.6,0,1.4,0,2,0,1.2,0,2.4,0,3.5Z" fill="#3f2009"/>
  <path d="M53.9,57c1.2.2,4.8,1.9,6.1,2.6,2.6,1.2,5.2,2.4,7.8,3.7,1.5.7,3,1.4,4.4,2.2.4.2.9.5,1,1,.2.6,0,2.8-.4,3.3-.1.2-.6.3-.8.4-.7.2-1.5.2-2.2.3l-4.2.6-11.6,1.7-16.1,2.4c-3,.5-6,1-9,1.4-.7,0-1.4.2-2.1,0-.4,0-.8-.3-1.2-.5-1.1-.6-2.1-1.4-3.2-2l-6.4-4c-1.7-1-3.3-2.1-5-3.1-.9-.5-1.7-1-2.6-1.6-.5-.4-.8-.6-.9-1.3-.1-.7-.2-2.1.2-2.6.2-.3.5-.4.9-.5.8-.2,1.6-.3,2.4-.4,1.3-.2,2.6-.3,3.9-.6,2.1,1.2,4.4,1.6,6.7,1.9.6,0,1.3,0,1.9.3.9.5,1.8,1.1,2.7,1.7,1.7,1.1,3.4,2.2,5.1,3.4.9.6,1.9,1.4,2.9,1.9.5.2.9.2,1.4.2,1.5-.1,3.1-.5,4.6-.7,3.1-.5,6.2-1,9.4-1.5l5.9-1c.6-.1,1.4-.1,2-.4.2,0,.3-.2.4-.4-.2-.6-7.2-4.5-8.1-5.1.6-.6,1.3-1,2-1.4.8-.5,1.5-1.2,2.1-2Z" fill="#89cdd6"/>
  <path d="M8.7,62c.7,0,1.9,1,2.6,1.4l8,4.8c1.6,1,3.2,2,4.8,2.9.9.5,2,1.3,3,1.6.5.2,1.1.1,1.7,0,1.4-.1,2.7-.4,4.1-.6l8.8-1.3,23.8-3.5,4-.6c.8-.1,1.6-.3,2.4-.3.2,0,.4,0,.5.1,0,.2,0,.2,0,.3-.5.1-1.1.2-1.6.3l-3.1.5c-4.1.6-8.3,1.3-12.4,1.8l-19.1,2.9-4.4.7c-1.3.2-2.8.5-4.2.4-.5,0-1-.3-1.5-.5-2-1.1-3.9-2.4-5.9-3.5l-5.5-3.3c-1.7-1-3.4-2-5.1-3.1-.2-.1-.6-.3-.7-.6,0-.1,0-.3,0-.4Z" fill="#3f2009"/>
  <path d="M26.1,12.6c1,.9,1.9,1.5,3.1,2.1,2.1.9,5.4,1.5,7.6.7-.6-.8-1.9-1-2.4-1.9,0,0,1.6.7,1.9.8.9.3,4.3,1.2,5,.8,0,0,0,0,0-.2-.1-.3-.8-.7-1-.9-.2-.2-.3-.3-.5-.5-.1-.2-.3-.4-.4-.5,1.4,1.3,4.1,1.9,5.9,2,.7,0,1.4,0,2.1,0,.7,2.1.5,5.1,0,7.2-.2,1.1-.6,2.2-.7,3.3-.2,2-.2,4-.7,5.9-.9,2.9-3,5.1-5.6,6.6-.5.3-1,.5-1.6.6-3.2,1-6.6.3-9.6-1.3-3.2-1.7-5.5-4.1-6.5-7.6-.9.6-1.6,1-2.7.8-1.2-.2-2.2-1-2.9-2-.9-1.3-1.2-2.9-.9-4.5.2-.9.5-1.8,1.3-2.4.5-.4,1.2-.5,1.8-.4,1.2.2,2.1,1.5,2.6,2.5.2.4.3.9.6,1.2,0,.1.1.2.2.2,0,0,0,0,.1-.2.4-.6.6-1.6.9-2.3,1.6-3.9,2.7-5.8,2.1-10.2Z" fill="#dc8247"/>
  <path d="M32.7,18.6c.5,0,1,0,1.5.1.6.2,1.1.5,1.4,1,.1.2.2.4,0,.6-.1.2-.2.2-.5.2-.4,0-1-.1-1.4-.2-.9-.1-1.8,0-2.7.1-.6.2-1.2.5-1.7.7-.2,0-.5.2-.7,0,0,0,0,0-.1-.2,0-.3.2-.6.5-.9.9-1.1,2.3-1.6,3.6-1.7Z" fill="#3f2009"/>
  <path d="M43.3,18.9c.6,0,1.1,0,1.7.2.6.2,1.3.6,1.6,1.2.1.3.2.6,0,.9,0,.1-.1.2-.3.2-.4,0-.8-.4-1.1-.6-1.3-.5-3,0-3.6-.1,0,0-.1-.2-.2-.2,0-.2,0-.4,0-.5.4-.6,1-.9,1.7-1.1Z" fill="#3f2009"/>
  <path d="M29.1,25.3c.5,0,.8.5,1.1.8.8.8,2.1,1.1,3.1.6.4-.2.9-.9,1.4-.9h0c0,.4,0,.6-.1,1-.4.5-.9.9-1.5,1.1-1,.3-2,.2-2.9-.3-.5-.3-1.1-.8-1.3-1.4,0-.3,0-.5.1-.7Z" fill="#3f2009"/>
  <path d="M32.7,33c.3.1.6.5.9.7.4.3,1,.5,1.5.7,1.1.4,2.4.5,3.5.2.5-.1,1.4-.8,1.9-.7h0c0,.3-.2.4-.3.6-.5.5-1.2.7-1.9.8-1.8.3-3.9-.2-5.4-1.3-.3-.2-.5-.4-.6-.7,0-.2.1-.2.3-.4Z" fill="#3f2009"/>
  <path d="M18.5,23.2c.1,0,.2,0,.3,0,.5,0,1,.5,1.4.9.6.7,1.3,1.9,1.1,2.8,0,.2,0,.3-.2.4-.4-.1-.3-1-.6-1.3-.1,0-.2,0-.3,0-.2.2-.3.4-.3.6,0,.4,0,.8.2,1.1,0,0,.2.2.3.4,0,0,0,0,0,.2,0,0-.1,0-.2,0-.2,0-.5-.3-.7-.6-.2-.4-.4-.8-.3-1.3.1-.5.4-.8.9-1.1-.5-.8-.7-1.2-1.6-1.5-.2,0-.4.2-.5.3-.1,0-.2,0-.4,0,0-.1,0-.2,0-.4.2-.3.5-.5.8-.6Z" fill="#3f2009"/>
  <path d="M39.4,27.5c.6.3,1,.8,1.3,1.4.3.6.5,1.3.3,1.9-.1.5-.5.9-.9,1.1-.8.4-1.7.3-2.5,0-.2,0-.3-.1-.4-.3,0-.1,0-.1,0-.3.4-.2,1.1,0,1.5,0,.2,0,.5,0,.7,0,.3,0,.8-.2,1-.5.7-1-1-2.4-1.1-3,0-.2,0-.2.2-.4Z" fill="#3f2009"/>
  <path d="M45.2,25.6s0,0,.1,0c0,0,0,0,0,0,0,0,0,0,0,0,0,0,0,0,0,0,0,0,0,0,0,0,0,0,0,0,0,0s0,0,0,0c0,0,0,0,0,0,0,0,0,0,0,0,0,.3-.2.6-.5.8-.5.5-1.2.8-1.9.7-.7,0-1.3-.3-1.8-.9,0,0,0-.2-.1-.3,0-.3,0-.6,0-.8,0,0,0,0,.2,0,.3,0,.5.4.7.6.3.3.7.5,1.1.5.8,0,1.4-.6,1.9-1.1Z" fill="#3f2009"/>
  <path d="M10.3,67.5c.5.2,1,.6,1.5.9l2.7,1.7,7.9,4.9c1.3.8,2.6,1.8,4,2.3.6.2,1.3.2,1.9.2,1.8-.2,3.7-.5,5.5-.8l9.6-1.5,27.6-4.1c-.3,1.6-.1,3.4-.7,4.9,0,.1-.2.3-.3.4-.4.4-.9.5-1.4.7-2.5.6-5.2.9-7.7,1.3-5.5.9-11,1.7-16.5,2.5l-10.6,1.6c-2,.3-4,.7-6,.7-.7,0-1.3,0-2-.4-1.4-.6-2.7-1.5-3.9-2.4l-5.3-3.4-3.1-2c-.9-.6-2-1.2-2.8-2-.7-.7-.5-4.4-.5-5.4Z" fill="#f67a4c"/>
  <path d="M26.5,78c0,0,.1.1.1.3,0,.5,0,3.8-.1,4,0,0,0,0-.1,0-.1-.6,0-3.7.1-4.3Z" fill="#210702"/>
  <path d="M15.1,52.2c2-.3,3.8.4,5.6,1-.7,0-1.9-.3-2.5.1-.1,0-.1,0-.2.2.3.2,1.3.1,1.7.2.9.1,1.7.4,2.5.7,1.8.7,5.4,2.5,7.2,2.5,1.4,0,2.5-1.4,4.5-1.3,1.7,0,3.6,1.2,4.7,2.5.5.6.9,1.4.9,2.2,0,.2,0,.3-.2.4-1,.3-1.9-1.2-2.5-1.8-.3-.4-.8-.7-1.2-1-.4-.2-1.2-.6-1.6-.5.5,1,3,1.5,3.7,4,0,.2,0,.4,0,.6-.2.1-.3.1-.5.1-1.1-.4-2.6-2.2-3.7-2.9-.1,0-.2-.1-.3-.1,0,0,0,0,0,0-.1.9,2.5,2.4,3,3.1,0,.1,0,.2,0,.4,0,.2-.2.3-.3.4-1.1.7-2.7-1.6-3.7-1.8,0,0,0,0-.1,0,0,.9,1.6,1.3,2,2,0,0,0,0,0,.2-.3.1-.5.2-.8.2-.5,0-1.1-.4-1.6-.5-.9-.3-1.7-.4-2.6-.9-.4-.2-.8-.7-1.3-.8-.7-.2-2.8,0-3.6-.2-2.4-.2-7.7-.7-9.3-2.6-1.4-1.7-1.3-4.4-1.1-6.5.5-.1,1-.1,1.4-.2Z" fill="#dc8247"/>
  <path d="M11.7,52.3c.3-1.5.8-3,1.2-4.4.5-1.6.9-3.2,1.4-4.8,1.5-4.1,4.1-5.2,7.9-7,.3,2.1,1.1,7,2.7,8.3,0,2.2,0,4.3,0,6.5,0,1.3,0,2.5,0,3.8-.7-.4-1.5-.6-2.2-.9-.2-4.3.7-8-1.5-12.1-.6-1.1-1.5-2.3-2.8-2.7-.2,0-.5-.1-.7,0,0,.3,1.1.6,1.4.9,2.7,2.5,2.9,6.3,2.9,9.8,0,1.1-.1,2.3,0,3.4-.6-.4-1.3-.7-1.9-.9-1.9-.7-4.5-1-6.4-.5-.7.2-1.3.4-1.9.7Z" fill="#feefcd"/>
  <path d="M18.7,48.8c.3,0,.8.1,1.1.3.1,0,0,.2.1.3-.3,0-.8-.1-1.1-.3-.1,0-.1-.2-.1-.3Z" fill="#bb8f5e"/>
  <path d="M20.2,49.4c.3,0,.7,0,.9.2.2.1.2.2.3.4-.1,0-.2,0-.4,0-.4,0-.6-.3-.8-.6Z" fill="#bb8f5e"/>
  <path d="M16.7,48.5c.3,0,.9,0,1.1.2,0,0,0,.1,0,.2-.3,0-.9,0-1.1-.1,0,0,0-.2,0-.3Z" fill="#bb8f5e"/>
  <path d="M15.2,48.6c.3,0,.7-.1.9,0,0,.1,0,.1,0,.3-.3,0-.7,0-1,0,0-.1,0-.1,0-.3Z" fill="#bb8f5e"/>
  <path d="M14,48.6c.2,0,.3,0,.5,0h0c-.2.3-.3.3-.5.3-.2,0-.3,0-.4,0h0c.2-.2.3-.3.5-.3Z" fill="#bb8f5e"/>
  <path d="M24.2,34.2c.5.6,1,1.1,1.5,1.7.9,1.1,1.5,2.2,2.6,3.3.8.9,1.8,1.7,2.7,2.5,1,.9,2.1,1.9,3.1,2.8-.6,1.6-.9,2.9-.7,4.6-.4-.9-1-1.9-1.6-2.7-.6,0-1.3,0-1.8.4-.2.2-.3.6-.3.9,0,.8.6,1.6,1,2.3h0c.5.9.9,1.7,1.4,2.5.4.8.9,1.6,1.4,2.3-1.5,0-2.7,1-4.1,1.4-.1,0-.2,0-.3,0h-.4c-.1-.1-.2-.2-.3-.2-.3,0-.6-.2-.9-.3-.2,0-.4-.2-.7-.2-.2-.1-.5-.2-.7-.3h-.3c0-.1-.5-.3-.5-.3h-.2c0-1.3,0-2.6,0-3.8,0-2.2,0-4.3,0-6.5h.4s.3,0,.3,0h.3c0-.1.3-.3.3-.3.1,0,.1,0,.3,0,.1-.1.3-.2.5-.3h.3c.1-.2.4-.3.5-.4h.2c.2-.2.4-.3.5-.4l.3-.2c.1-.1.2-.2.3-.2.2.2.3.6.5.7.6.4,1.3.7,1.9,1,.4.2.8.5,1.2.7.2,0,.3.1.5.1h0c-.6-1.1-2.4-1.8-3.4-2.4-.1-.5-.2-1-.3-1.4-1.3,1-2.6,2.1-4.3,2.5-1.4-2-2.2-5.6-2.4-8.1.4-.5.8-.9,1.2-1.4Z" fill="#feefcd"/>
  <path d="M26.3,44c0,.4.5,1.1.3,1.5-.1.4-.2.8,0,1.2,0,0,.1.2.2.3,0,.2,0,.2,0,.4,0,.2-.2.4-.2.6,0,.3.1.6.3.8.1.4-.2.8-.2,1.3,0,.4.3.6.3.9-.2.4-.5.8-.3,1.3,0,.2.1.3.2.5v.2c.1,0,.2.3.2.3-.2.4-.4.7-.2,1.2,0,0,0,0,0,0h-.2c.1.4.2.4,0,.7,0,.1,0,.2-.1.3-.2-.1-.5-.2-.7-.3h-.3c0-.1-.5-.3-.5-.3h-.2c0-1.3,0-2.6,0-3.8,0-2.2,0-4.3,0-6.5h.4s.3,0,.3,0h.3c0-.1.3-.3.3-.3Z" fill="#feefcd"/>
  <path d="M25.7,44.3c0,.8,0,1.6.1,2.5,0,.9,0,1.9,0,2.8,0,1.3,0,2.5-.1,3.8,0,.4,0,1.3,0,1.6l-.5-.2h-.2c0-1.3,0-2.6,0-3.8,0-2.2,0-4.3,0-6.5h.4s.3,0,.3,0Z" fill="#feefcd"/>
  <path d="M25,44.4h.4c-.1.1-.1.2-.1.4,0,1.1,0,2.3,0,3.4,0,2.2,0,4.4,0,6.6h-.2c0-1.3,0-2.6,0-3.8,0-2.2,0-4.3,0-6.5Z" fill="#a96c34"/>
  <path d="M25.7,44.3h.3c0,1.6.1,3.2.1,4.9,0,2,0,3.9-.1,5.9h-.3c.1-.5,0-1.3,0-1.7,0-1.3,0-2.5.1-3.8,0-.9,0-1.9,0-2.8,0-.8,0-1.6-.1-2.5Z" fill="#a96c34"/>
  <path d="M27,52.9v.3c0,.4-.3.7,0,1.2,0,0,0,0,0,0h-.2c0,0-.2-.2-.2-.4,0-.4.2-.8.4-1.1Z" fill="#a25620"/>
  <path d="M27.9,43.3c.2,1.6.7,12.2.4,12.6-.3,0-.6-.2-.9-.3-.2,0-.4-.2-.7-.2,0,0,0-.2.1-.3,0-.3,0-.3,0-.6h.2c0-.1,0-.2,0-.2-.2-.5,0-.7.2-1.2v-.3c0,0-.2-.2-.2-.2,0-.1-.2-.3-.2-.5-.1-.5.1-.9.3-1.3,0-.3-.3-.6-.3-.9,0-.4.4-.8.2-1.3-.2-.2-.2-.5-.3-.8,0-.2.1-.4.2-.6,0-.2.1-.2,0-.4,0,0-.1-.2-.2-.3-.2-.4-.2-.8,0-1.2.2-.4-.2-1.1-.3-1.5.1,0,.1,0,.3,0,.1-.1.3-.2.5-.3h.3c.1-.2.4-.3.5-.4Z" fill="#feefcd"/>
  <path d="M26.8,45.7c0-.1,0-.2.2-.3.1.1.2.3.3.4,0,0,.1-.1.2-.2.1.5,0,.8-.2,1.3.2.5.5,1.1.3,1.6,0,0,0,.2-.2.2,0,.3.1.5.2.7,0,.4,0,.7-.2,1.1,0,.2,0,.2,0,.4.2.4.3.7.2,1.2,0,.1-.1.2-.2.4h-.2c0,0-.1,0-.1,0h-.2c0,0-.2-.2-.2-.3-.1-.5.1-.9.3-1.3,0-.3-.3-.6-.3-.9,0-.4.4-.8.2-1.3-.2-.2-.2-.5-.3-.8,0-.2.1-.4.2-.6,0-.2.1-.2,0-.4,0,0-.1-.2-.2-.3-.2-.4-.2-.8,0-1.2l.2.2Z" fill="#a25620"/>
  <path d="M27,52.6s0,0,0,0c-.2-.5,0-.8.1-1.4.2.3.3.6.2,1,0,.2-.1.3-.2.5,0,0-.1,0-.1,0Z" fill="#efc481"/>
  <path d="M26.8,45.7c0-.1,0-.2.2-.3.1.1.2.3.3.4,0,.3,0,.7-.2.9,0,0,0,0,0,0-.2-.4-.2-.6-.2-1.1Z" fill="#efc481"/>
  <path d="M27.2,50.5s0,0-.1,0c-.2-.2-.2-.6-.2-.9,0-.2,0-.2.2-.3.2,0,.2.1.3.3,0,.3,0,.6-.2.9Z" fill="#efc481"/>
  <path d="M27.1,47.3c.2.6.3.8.1,1.4h-.2c-.2-.5-.2-.8,0-1.4Z" fill="#efc481"/>
  <path d="M27,52.6s.1,0,.1,0h.2c-.2,1,.7,1-.1,2.3,0,.2.1.5.1.8-.2,0-.4-.2-.7-.2,0,0,0-.2.1-.3,0-.3,0-.3,0-.6h.2c0-.1,0-.2,0-.2-.2-.5,0-.7.2-1.2v-.3c0,0-.2-.2-.2-.2h.2Z" fill="#885827"/>
  <path d="M27.1,53.2c.2.3.3.6.2,1,0,.2,0,.3-.2.4-.1,0-.1,0-.2-.2,0,0,0,0,0,0-.2-.5,0-.7.2-1.2Z" fill="#efc481"/>
  <path d="M27.1,43.7h.3c0,.2,0,.5,0,.8,0,.2-.1.3-.2.5.1.2.2.5.3.7,0,0-.1.1-.2.2,0-.2-.1-.3-.3-.4-.1,0-.1.2-.2.3l-.2-.2c.2-.4-.2-1.1-.3-1.5.1,0,.1,0,.3,0,.1-.1.3-.2.5-.3Z" fill="#885827"/>
  <path d="M27.1,43.7c0,.2,0,.5,0,.7,0,.1-.1.3-.3.3-.2-.1-.2-.5-.2-.8.1-.1.3-.2.5-.3Z" fill="#efc481"/>
  <path d="M28.6,42.9c.4,1,.2,5,.5,6.3,0,.4,0,.8,0,1.3,0,1.8.1,3.7,0,5.6h0c0,0-.4,0-.4,0-.1,0-.2,0-.3,0,.3-.5-.2-11.1-.4-12.6h.2c.2-.2.4-.3.5-.4Z" fill="#feefcd"/>
  <path d="M27.9,43.3h.2c.4,1.1.3,2.7.4,4,.1,2.9.3,5.8.2,8.7-.1,0-.2,0-.3,0,.3-.5-.2-11.1-.4-12.6Z" fill="#a96c34"/>
  <path d="M28.6,42.9l.3-.2c.1,1.3.2,2.6.3,3.9,0,.6.1,1.3,0,1.9-.1.1-.1.2-.2.4,0,.1,0,.2,0,.3-.3-1.4,0-5.4-.5-6.3Z" fill="#a96c34"/>
  <path d="M29.1,50.5c0-.2,0-.4,0-.6,0,0,0,.3,0,.4h0c0,.4,0,.9,0,1.3,0,.9,0,1.8,0,2.7,0,.6,0,1.3,0,1.9-.1,0-.2,0-.3,0h0c.1-1.9,0-3.8,0-5.6Z" fill="#a96c34"/>
  <path d="M29.1,49.2c0-.1,0-.2,0-.3,0-.2,0-.2.2-.4,0,.6,0,1.1,0,1.7h0c0,0,0-.4,0-.4,0,.2,0,.4,0,.6,0-.4,0-.8,0-1.3Z" fill="#a25620"/>
  <path d="M30.7,50h0c0,.3,0,.4,0,.6,0,.2,0,.3-.2.4h0c0-.3,0-.5,0-.7,0-.2,0-.2.2-.2Z" fill="#bb8f5e"/>
  <path d="M30.5,53.9c0,0,.1,0,.1.1.2.3.1.9,0,1.2-.1,0-.2-.2-.3-.4,0-.3,0-.7,0-.9Z" fill="#bb8f5e"/>
  <path d="M31.2,44.2s0,0,0,0c.2.3.4.8.3,1.3,0,0,0,0-.1-.1-.3-.3-.3-.8-.3-1.2Z" fill="#bb8f5e"/>
  <path d="M30.6,52.4s0,0,0,0c.1.1.1.3.1.4,0,.2,0,.5-.2.7,0,0,0-.1-.1-.2-.2-.3,0-.7.1-1Z" fill="#bb8f5e"/>
  <path d="M30.2,45c0,0,.1,0,.2.1.2.3.1.5,0,.8,0,0-.2-.1-.2-.2-.1-.2,0-.4,0-.7Z" fill="#bb8f5e"/>
  <path d="M30.5,51.2c.1,0,.2,0,.2.2,0,.2,0,.4,0,.6,0,0-.1,0-.2-.1-.1-.2,0-.5,0-.7Z" fill="#bb8f5e"/>
  <path d="M42.6,81.8c.1,0,.2,0,.3,0,2.1-.3,4.3-.7,6.4-1,.8-.1,3.2-.4,3.9-.6,0,0,.2,0,.2-.1-.2,2.1-.5,4.2-.7,6.3-.1,1.1-.2,2.1-.4,3.2,0,.1,0,.2,0,.4,0,.4,0,1-.2,1.4,0,.4-.3.6-.6.8-1.9,1.1-5.1.7-7.1.2-.8-.2-2.2-.6-2.6-1.3,0-.7,0-1.4.1-2.1,0-.1,0-.2,0-.4.2-2.2.6-4.5.7-6.7Z" fill="#efc481"/>
  <path d="M41.9,88.5c.4,0,.9.3,1.1.7,0,0,0,.1,0,.2h0c-.4,0-.8-.3-1.1-.5h0c0,0,0-.2,0-.3Z" fill="#bb8f5e"/>
  <path d="M52.3,90s0,0,0,0c-.3.1-.7.3-1,.1.2-.4.8-.3,1.1-.5,0,0,0,0,0,0,0,.1,0,.2,0,.4Z" fill="#bb8f5e"/>
  <path d="M47.3,90.2c.4,0,1,0,1.4.1h0c0,.1-.1.2-.1.2,0,0,0,0-.1,0-.3,0-1,.1-1.3,0,0-.2,0-.2,0-.3Z" fill="#bb8f5e"/>
  <path d="M50.1,90c.1,0,.3,0,.4,0,.1,0,.2,0,.3.2h0c0,.1-.1.1-.2.2-.2,0-.4.1-.6,0-.2.1-.4,0-.6,0h0c.1-.4.4-.3.7-.5,0,0,0,0,0,0Z" fill="#bb8f5e"/>
  <path d="M45.4,90c.3,0,.8,0,1.1.1,0,0,0,0,.1.1h0c0,0-.2.2-.2.2-.4,0-.6,0-1-.2,0-.1,0-.2,0-.3Z" fill="#bb8f5e"/>
  <path d="M43.6,89.5c.4.2.9.1,1.1.5,0,0-.1,0-.2,0-.3,0-.7-.1-.9-.3,0,0,0-.2,0-.3Z" fill="#bb8f5e"/>
  <path d="M49.6,60.9c.6.2,1.6.9,2.2,1.3,1.7,1,3.5,2,5.2,3.2-.8.2-1.7.3-2.5.5l-4.8.7c-3.4.6-6.7,1.1-10.1,1.6-1.5.2-3.1.6-4.7.7-.6-.3-1.3-.8-1.9-1.2-1.3-.9-2.6-1.8-4-2.6-1.4-1-2.8-1.9-4.3-2.7h2.8c.5.5,1,.8,1.6,1.1.6.3,1.3.4,1.9.6.5.2,1,.4,1.5.5.3,0,.6.1.8,0,.6,0,1-.3,1.4-.7l.7.2c.7-.2,1-.5,1.4-1.2.4,0,.8,0,1.2,0,.6,0,1.6,1.7,2.5,1.7.2,0,.4,0,.5-.1.2-.4-.3-.5-.4-.8,0-.2.4-.4.4-.7,0-.2-.2-.4-.4-.5,0-.3-.2-.8-.2-1.2h0c.3,0,.4.4.6.6.2.2.3.4.6.4.9,0,.7.6,1.3.7.5.1.9-.1,1.3-.2.3,0,.6.2.9.2.4,0,.8-.1,1.1-.3.6-.2,1.1-.6,1.6-.9.6-.3,1.2-.5,1.7-1Z" fill="#feefcd"/>
  <path d="M42.9,64.5c.2,0,.3,0,.5,0,.2,0,.3.2.5.3,0,.1,0,.2,0,.3,0,.2-.3.2-.4.3-.3,0-.6,0-.8-.3-.1-.1,0-.2,0-.3,0-.2.2-.3.4-.4Z" fill="#885827"/>
  <path d="M42.9,64.8c.2,0,.3,0,.5,0,.1.2.1.2.1.4-.2,0-.3,0-.5,0-.1-.1,0-.2,0-.4Z" fill="#efc481"/>
  <path d="M41.3,63.6c.2-.1.3-.2.5-.2.2,0,.4.1.5.3,0,.1.1.3.1.4,0,.2-.2.3-.3.4-.2,0-.3,0-.5,0-.2,0-.4-.3-.4-.5,0-.2,0-.3,0-.4Z" fill="#885827"/>
  <path d="M41.3,63.6c.2-.1.3-.2.5-.2.2,0,.4.1.5.3,0,.1.1.3.1.4,0,.2-.2.3-.3.4v-.2c0-.2,0-.3-.1-.5-.1-.1-.2-.1-.4-.2-.1,0-.2,0-.3,0Z" fill="#885827"/>
  <path d="M41.7,63.6c.2,0,.3,0,.4.2,0,.2,0,.3,0,.5,0,0-.1,0-.1,0-.1,0-.2-.1-.3-.2,0-.2,0-.3,0-.4Z" fill="#efc481"/>
  <path d="M44.2,65.6c.2-.1.4-.1.7,0,.2,0,.3.1.4.3,0,.1,0,.2,0,.3,0,0,0,0,0,.1,0,0,0,0,0,0,0,0,0,0,0,0,0,0,0,0-.1,0-.2.1-.5,0-.7,0-.1,0-.2-.2-.3-.3,0-.2,0-.3.1-.5Z" fill="#885827"/>
  <path d="M44.2,65.6c.2-.1.4-.1.7,0,.2,0,.3.1.4.3,0,.1,0,.2,0,.3,0,0,0,0,0,.1h-.2c-.2-.5-.4-.6-.7-.7h-.2Z" fill="#885827"/>
  <path d="M44.4,65.6c.3.1.5.2.7.5-.2,0-.4,0-.6,0-.1-.2,0-.3,0-.5Z" fill="#efc481"/>
  <path d="M34.8,64.7c.3,0,.6,0,.8.2,0,.1,0,.2,0,.3,0,.2-.3.3-.5.4-.3,0-.6,0-.8-.2,0-.1,0-.1,0-.3,0-.2.3-.3.5-.4Z" fill="#a25620"/>
  <path d="M34.7,64.9c.1,0,.3,0,.4,0,0,0,0,0,.1.1v.2c-.3,0-.5,0-.6,0,0-.2,0-.2,0-.3Z" fill="#efc481"/>
  <path d="M40.9,66.1c.3,0,.7,0,.9.2.1,0,0,.1.1.3,0,.2-.2.3-.4.4-.3,0-.6,0-.8-.1-.1,0-.2-.2-.2-.3,0-.2.2-.3.3-.4Z" fill="#885827"/>
  <path d="M40.9,66.3c.2,0,.4,0,.6.1v.2c-.1,0-.3,0-.4,0-.1,0,0,0-.2-.1v-.2Z" fill="#efc481"/>
  <path d="M51.2,64.2c.2,0,.5,0,.6.2.1,0,.1.2.1.3,0,.2-.2.3-.4.4-.2,0-.5,0-.7-.2-.1-.1-.1-.2,0-.4,0-.2.2-.2.4-.3Z" fill="#885827"/>
  <path d="M36.2,65.7c.3,0,.5,0,.7.3.1.1,0,.2,0,.3-.1.2-.2.2-.4.3-.2,0-.5,0-.7-.3-.1-.1,0-.2,0-.3.1-.2.2-.2.4-.3Z" fill="#885827"/>
  <path d="M37.5,66.7s0,0,.1,0c.2,0,.5,0,.6.2,0,0,0,.1,0,.3,0,.2-.2.2-.4.3,0,0-.2,0-.2,0-.2,0-.4,0-.5-.1-.1,0,0-.1,0-.3,0-.2.2-.3.4-.4Z" fill="#885827"/>
  <path d="M38.7,64.5c0,0,.1,0,.2,0,.2,0,.2.1.3.3,0,0,0,.1,0,.2-.2.2-.4.3-.6.4,0,0-.1,0-.2,0-.2,0-.2-.1-.3-.2,0,0,0-.2,0-.2.2-.3.4-.3.7-.4Z" fill="#a25620"/>
  <path d="M49.4,64.1c0,0-.2,0-.3-.2-.1,0-.2-.2-.2-.4,0-.1,0-.2.2-.2.2-.1.4,0,.6,0,.2,0,.3,0,.4.2,0,.1,0,.2,0,.3,0,0-.2.2-.2.2-.2,0-.3,0-.4,0Z" fill="#885827"/>
  <path d="M49.4,64.1c0,0-.2,0-.3-.2-.1,0-.2-.2-.2-.4,0-.1,0-.2.2-.2.2-.1.4,0,.6,0,0,0,0,.1-.2.2,0,0-.1,0-.2,0,0,0,0,.2,0,.2h0c0,0,0,.3,0,.3Z" fill="#a25620"/>
  <path d="M37.3,64.4c-.1,0-.3,0-.3-.2,0,0,0-.2-.1-.3,0-.1,0-.2.2-.3.2-.1.4,0,.6,0,.1,0,.2,0,.3.2,0,.1,0,.2,0,.3,0,.2-.2.2-.4.3,0,0-.1,0-.2,0Z" fill="#a25620"/>
  <path d="M45.4,65c0,0-.1-.1-.2-.2,0-.2,0-.2,0-.3.3-.2.5-.2.8-.2.1,0,.2,0,.2.2,0,.2,0,.2-.1.4-.2.1-.5.1-.8.1Z" fill="#885827"/>
  <path d="M45.4,65c0,0-.1-.1-.2-.2,0-.2,0-.2,0-.3.3-.2.5-.2.8-.2,0,0-.1.1-.2.2-.2.1-.3.3-.4.4,0,0,0,0,0,0Z" fill="#a25620"/>
  <path d="M39.5,65.4c.2,0,.5,0,.8,0,0,0,0,0,0,.2,0,.2-.2.3-.3.4-.2,0-.4,0-.5,0-.1,0-.2-.1-.2-.2,0-.2.1-.2.2-.4Z" fill="#885827"/>
  <path d="M47.8,62.5c.1,0,.3,0,.4,0,.2,0,.2,0,.3.2,0,.2-.1.2-.3.3-.2,0-.4,0-.6,0-.1,0-.1,0-.2-.2,0-.2.2-.2.3-.3Z" fill="#a25620"/>
  <path d="M47.3,63.8c.1,0,.2,0,.3,0,.2,0,.3,0,.5.2,0,.2,0,.2-.2.4,0,0-.1,0-.2,0-.2,0-.4,0-.5-.1,0-.2,0-.3,0-.4Z" fill="#885827"/>
  <path d="M46.3,62.9c0,0,.2,0,.3,0,.1,0,.2,0,.3.2h0c-.1.3-.2.3-.4.4-.1,0-.3,0-.4,0,0,0,0,0,0-.2,0-.2.2-.2.4-.3Z" fill="#885827"/>
  <path d="M48.8,64.9c0,0,.2,0,.3,0,.2,0,.2,0,.3.2,0,.2,0,.2-.2.4-.2,0-.5,0-.6-.2,0-.2,0-.3.2-.4Z" fill="#885827"/>
  <path d="M29.1,83.7c.1,0,.2,0,.3,0,.8,0,9.5-1.3,9.8-1.5,0,0,0,0,0,0,0,0,0,0,0,0,0,1.6-.2,3.3-.3,4.9,0,1.2-.1,2.5-.2,3.7,0,.3,0,1.6-.1,1.8,0,0,0,.2,0,.3,0,.2-.2.4-.4.5-1.4,1.1-4.3,1.3-5.9,1.1-.7,0-2.5-.5-3-1.1-.1-.7-.1-1.4-.1-2.1,0-.3,0-.7,0-1.1-.1-2.2-.2-4.3-.2-6.5Z" fill="#efc481"/>
  <path d="M29.3,90.2c0,.2,0,.4,0,.6.2.1.8.4.9.7,0,0,0,0,0,0-.1,0-.2,0-.3,0-.2,0-.4-.2-.6-.3h0c0-.4,0-.8,0-1.1Z" fill="#bb8f5e"/>
  <path d="M32.7,91.7c.2,0,.5,0,.7,0,.2,0,.3,0,.4.2,0,.1,0,.1-.2.2h-.2c-.2,0-.5,0-.8,0-.2,0-.2,0-.3-.1,0-.2.2-.2.3-.4Z" fill="#bb8f5e"/>
  <path d="M37.6,91.3c0,0,0,0,.1.1h0c0,.2,0,.2-.2.2-.3.1-.7.2-.9,0h-.1s0,0,0,0c.2-.3.9-.2,1.2-.4Z" fill="#bb8f5e"/>
  <path d="M34.9,91.6c.2,0,.5,0,.7,0,.1,0,.2,0,.3.1h0c-.1.1-.2.2-.4.1,0,0,0,0-.2.1-.2,0-.5.1-.7,0h0c0-.3.2-.3.4-.4Z" fill="#bb8f5e"/>
  <path d="M30.8,91.5c.2,0,.4,0,.6.1.1,0,.2,0,.3.2h0c0,.1,0,.1,0,.1-.1,0-.5,0-.7,0-.1,0-.2,0-.2-.2v-.2Z" fill="#bb8f5e"/>
  <path d="M38.6,91.2c-.1,0-.2.2-.4.1h0c0-.2,0-.2,0-.3.1-.2.4-.2.6-.3,0,.2,0,.3-.2.4,0,0,0,0,0,0Z" fill="#bb8f5e"/>
  <path d="M36.7,39.9c1.4,0,2.5-.4,3.8-.9.5,1.1.8,2.2,1.2,3.2-1.1-.3-2.3-.6-3.4-1.1-.1.3-.2.7-.4,1-.8,1.2-3,2.6-3.1,4h0c.3-.1,1.5-1.5,2-1.9l.2-.2c.3-.3.6-.5.9-.8l.2-.2c.2-.2.3-.3.5-.5h0c0-.2,0-.3,0-.4h.1c.2,0,.3.2.5.2.3,0,.6.2.9.3.2,0,.4,0,.6.2h.5c0,.1.4.3.4.3,0,3.9.3,7.7,0,11.6,0,.6,0,1.4-.2,1.9h-.4s-.4.1-.4.1c-.2,0-.3,0-.5,0-.2,0-.5.1-.7.1h-.5c-.2,0-.3.1-.5.2h0c0,0-.4-.5-.4-.5l-.2-.2c-.2-.1-.4-.3-.6-.5-.5-.7-.9-1.6-1.3-2.4-.5-1-1.1-1.9-1.7-2.9-.3-.6-.4-1.2-.4-1.9,0-2.5.9-3.7,1.8-5.8.4-.9.7-1.9,1-2.8Z" fill="#feefcd"/>
  <path d="M36.7,39.9c1.4,0,2.5-.4,3.8-.9.5,1.1.8,2.2,1.2,3.2-1.1-.3-2.3-.6-3.4-1.1-.1.3-.2.7-.4,1-.8,1.2-3,2.6-3.1,4h0c.3-.1,1.5-1.5,2-1.9l.2-.2c.3-.3.6-.5.9-.8,0,.6,0,1.2.1,1.8,0,2.3.1,4.7,0,7,0,1.4-.1,2.8-.2,4.3-.2-.1-.4-.3-.6-.5-.5-.7-.9-1.6-1.3-2.4-.5-1-1.1-1.9-1.7-2.9-.3-.6-.4-1.2-.4-1.9,0-2.5.9-3.7,1.8-5.8.4-.9.7-1.9,1-2.8Z" fill="#feefcd"/>
  <path d="M36.7,44.2l.2-.2c0,.3.2.8,0,1.1h-.1c-.1,0-.1,0-.2-.3,0-.1,0-.6,0-.7Z" fill="#bb8f5e"/>
  <path d="M34.8,47.2c0,0,.1,0,.2,0,.2,0,.3.1.5.3.1.2.1.4,0,.7,0,.3-.2.5-.5.6,0,0,0,0,0,0-.2,0-.4,0-.5-.3-.1-.2-.2-.4-.1-.7,0-.3.2-.5.4-.7Z" fill="#3f2009"/>
  <path d="M34.8,47.5c0,0,.2,0,.3,0,0,0,.1.1.1.2,0,.2,0,.4-.2.6h-.2s-.1,0-.1,0c-.1-.3,0-.6,0-.9Z" fill="#efc481"/>
  <path d="M37,47.6c.1,0,.2,0,.3.2.1.3,0,.6-.1.9-.1,0-.2-.1-.3-.3-.1-.3,0-.6.1-.9Z" fill="#bb8f5e"/>
  <path d="M36.8,45.9c0,0,.1,0,.2.1.2.3.2.8.2,1.1-.1,0-.3,0-.3-.2-.2-.3-.1-.7,0-1Z" fill="#bb8f5e"/>
  <path d="M36.9,52.2c0,0,0,0,.1.2.2.3.1.6,0,1-.1,0-.2,0-.3,0-.2-.3,0-.7,0-1Z" fill="#bb8f5e"/>
  <path d="M36.8,53.9c0,0,.2.1.2.2.1.3,0,.7,0,1,0,0-.2-.2-.2-.3,0-.3,0-.7,0-.9Z" fill="#bb8f5e"/>
  <path d="M36.9,49.1h.2c.2.4.1.7,0,1h-.1s0,0,0,0c0-.3,0-.6,0-1Z" fill="#bb8f5e"/>
  <path d="M37,50.8c.1.1.2.3.2.5,0,.2,0,.4-.2.5,0,0-.1-.1-.2-.2,0-.3,0-.5.2-.8Z" fill="#bb8f5e"/>
  <path d="M38.5,42.4h0c0-.2,0-.3,0-.4h.1c.2,0,.3.2.5.2,0,.4.3.8.3,1.2-.1.5-.2,1,0,1.4.2.5.1.4,0,.9,0,.4-.1.9.1,1.3,0,0,0,0,0,0,0,.1,0,.1,0,.2-.2.5-.3.9-.1,1.4,0,0,0,.1,0,.2v.3c.1,0,.2,0,.2,0v.2c-.2.5-.2,1-.1,1.6h-.2c.1.4,0,.6-.1,1-.1.5-.2,1,0,1.5,0,0,0,0,.1.1,0,.4-.3.7-.4,1.1.1.3.2.6.4.9,0,.2-.1.9-.2,1h-.5c-.2,0-.3.1-.5.2h0c0,0-.4-.5-.4-.5l-.2-.2c0-1.4.2-2.8.2-4.3,0-2.3,0-4.7,0-7-.1-.6,0-1.2-.1-1.8l.2-.2c.2-.2.3-.3.5-.5Z" fill="#feefcd"/>
  <path d="M38.5,42.4c.2,2.6.4,5.2.3,7.9,0,1.7-.3,3.5-.2,5.2h0c0,.2,0,.7.1.9h0c0,0,0,.2,0,.3,0,0,.1,0,.2,0-.2,0-.3,0-.5.2h0c0,0-.4-.5-.4-.5l-.2-.2c0-1.4.2-2.8.2-4.3,0-2.3,0-4.7,0-7-.1-.6,0-1.2-.1-1.8l.2-.2c.2-.2.3-.3.5-.5Z" fill="#feefcd"/>
  <path d="M38,42.9c0,.4.1.8,0,1.2.1,1.3.1,2.6.2,4,0,1.8,0,3.6,0,5.5,0,1-.1,1.9-.2,2.9l-.2-.2c0-1.4.2-2.8.2-4.3,0-2.3,0-4.7,0-7-.1-.6,0-1.2-.1-1.8l.2-.2Z" fill="#a96c34"/>
  <path d="M38.6,55.5h0c0,.2,0,.7.1.9h0c0,0,0,.2,0,.3,0,0,.1,0,.2,0-.2,0-.3,0-.5.2h0c0-.5,0-.9.1-1.4Z" fill="#a96c34"/>
  <path d="M38.5,42.4h0c0-.2,0-.3,0-.4h.1c0,1.4.2,2.9.3,4.3,0,1.7,0,3.3,0,5,0,1.7-.1,3.3-.3,5h0c-.1-.1-.1-.6-.1-.8h0c0-1.8.2-3.5.2-5.3,0-2.6-.1-5.2-.3-7.9Z" fill="#a96c34"/>
  <path d="M39.8,49.2h.1c0,0,0,.3,0,.3-.2.5-.3,1-.1,1.6h-.2c0,0,0,0,0,0-.3-.7,0-1.3.2-1.9Z" fill="#885827"/>
  <path d="M41.2,42.8l.4.2c0,3.9.3,7.7,0,11.6,0,.6,0,1.4-.2,1.9h-.4c0,0,0,0,0-.2,0-.4,0-.7.1-1.1,0-.7.1-1.4.1-2.2.1-2.4.2-4.9.1-7.3,0-.3-.2-2.6-.1-2.8,0,0,0,0,0-.1Z" fill="#feefcd"/>
  <path d="M39.2,42.2c.3,0,.6.2.9.3,0,.3,0,.5-.1.8.3.8.4,1.2.1,2,0,.2.2.4.2.7.1.5,0,.9-.1,1.4.2.5.4.9.2,1.3l-.2-.2c0,.2-.1.3-.3.4h0s-.2,0-.2,0c0,0,0-.1,0-.2-.2-.5,0-.9.1-1.4,0-.1,0-.1,0-.2,0,0,0,0,0,0-.3-.4-.2-.9-.1-1.3,0-.5.2-.4,0-.9-.2-.5-.1-1,0-1.4,0-.4-.2-.8-.3-1.2Z" fill="#885827"/>
  <path d="M39.9,48.9h0c-.1-.4-.2-.8,0-1.1,0,0,0,0,.2-.1,0,0,0,0,0,0,.2.2.2.6.2.8,0,.2-.1.3-.3.4h0Z" fill="#efc481"/>
  <path d="M39.6,44c0-.1,0-.2.1-.3.2.1.2.4.2.6,0,.2,0,.5,0,.7,0,0,0,0,0,0h0c0,0-.2-.2-.2-.3v-.7Z" fill="#efc481"/>
  <path d="M39.8,46c0-.2,0-.3.2-.4.1.1.1.2.2.4,0,.4,0,.7-.2,1-.1-.3-.2-.7-.2-1Z" fill="#efc481"/>
  <path d="M40.7,42.7h.5c0,.2,0,.2,0,.2,0,.1.1,2.4.1,2.8,0,2.4,0,4.9-.1,7.3,0,.7,0,1.4-.1,2.2,0,.4-.1.8-.1,1.1,0,.1,0,.1,0,.2h-.4c.2-1.5.3-3.1.4-4.7,0-1.6,0-3.2,0-4.8,0-1.4,0-2.9-.2-4.2Z" fill="#a96c34"/>
  <path d="M39.7,52.3c0-.2,0-.3.2-.4.1,0,.2.2.2.4,0,.1,0,.3,0,.4,0-.3,0-.3.2-.6.1.6,0,1.1-.3,1.7.2.7.3,1.1,0,1.8,0,.3.1.7.1,1-.2,0-.5.1-.7.1,0-.1.2-.8.2-1-.1-.3-.3-.6-.4-.9,0-.4.3-.7.4-1.1,0,0,0,0-.1-.1-.3-.5-.2-1,0-1.5l.2.2Z" fill="#885827"/>
  <path d="M39.7,52.3c0-.2,0-.3.2-.4.1,0,.2.2.2.4,0,.1,0,.3,0,.4,0,.3-.1.6-.3.9,0,0,0,0,0,0-.3-.4-.2-.8-.1-1.2Z" fill="#efc481"/>
  <path d="M39.8,54.2c0,0,.2.2.2.3.1.3,0,.6-.1.9,0,0-.1-.2-.2-.3-.1-.4,0-.6,0-.9Z" fill="#efc481"/>
  <path d="M39.9,48.9h0c.1,0,.2-.2.3-.4l.2.2-.3.6c.3.7.4,1.3,0,2,0,0,0,.2-.1.2,0,.2.2.4.2.6-.1.2-.1.3-.2.6,0-.1,0-.3,0-.4,0-.2,0-.3-.2-.4-.1.1-.2.3-.2.4l-.2-.2c.1-.3.2-.5.1-.9h.2c-.1-.6,0-1.1.1-1.6v-.2s-.1,0-.1,0v-.3c-.1,0,0-.1,0-.1Z" fill="#a25620"/>
  <path d="M39.9,49.6c.2.4.3,1,.1,1.5,0,0,0,0,0,.1,0,0,0,0-.2,0-.1-.6,0-1,.1-1.6Z" fill="#efc481"/>
  <path d="M51.1,49.4h.1c.6.4,2.1,3.3,2.3,4.1.3.9.2,2.1-.2,3-.7,1.4-2,1.8-3.1,2.6-.4.3-.7.8-1.1,1.1-.4.3-.9.5-1.4.8-.7.4-1.4,1-2.2,1.3-.2,0-.5.1-.7,0,0,0,0-.1,0-.2,0-1.1,1.2-2,1.9-2.7.1-.1.2-.2.2-.4-.1,0-.1,0-.2,0-1.4.3-2,2.1-2.7,3.1-.2.2-.4.3-.7.4-.1,0-.2,0-.3,0-.4-.7.5-2.2.9-2.7.3-.4,1.3-1.1,1.3-1.6h0c-.2,0-.3,0-.4,0-1.2.7-2.1,2.4-2.5,3.6h0c-.1,0-.3,0-.4,0-.2-.1-.3-.3-.4-.5-.4-1.5,1.5-2.7,2.1-3.8v-.2c-.1,0-.2,0-.2,0-1.1.5-2.1,1.9-2.4,3,0,0,0,.1,0,.2,0,.1,0,.1-.2.2,0,0-.2,0-.2,0-.1,0-.2-.2-.2-.3,0-.6.6-1.7,1-2.2.6-.8,1.6-1.7,2.6-2,.3,0,.6-.1.9-.2.2,0,.3,0,.4-.2.2-.2.3-.6.5-.8.4-.6.9-1.2,1.5-1.6.4-.3.8-.7,1.3-.9.4-.2,1.5-.2,1.8-.5,0,0,0,0,0,0-.2-.1-.6-.2-.8-.2-1.7,0-2.9,1.4-4,2.5,0-.3.1-.6.2-.8.7-1.8,3.8-3.3,5.5-4Z" fill="#dc8247"/>
  <path d="M41.1,38.7c.5-.3.9-.5,1.4-.8,2.5,1.8,3.9,3.7,5.7,6.1l3.5,4.5c-2.4.5-5.5,2.3-6.9,4.4-.2.3-.3.6-.4.9-.4-.4-.6-.9-.9-1.3.4-3.3.7-7.2.3-10.5,0-.4,0-1.1-.3-1.4,0,0,0,0,0,0-.1,0-.2.1-.2.3-.2.7,0,3.2,0,4.1,0,1.7-.1,3.3-.3,5-.2,1.7-.4,3.3-.7,5,0,.5,0,1.2-.3,1.5h-.2c-.1,0-.2,0-.4,0,.2-.5.2-1.3.2-1.9.3-3.9,0-7.7,0-11.6h.2c.2,0,.3,0,.4-.2.3-.8-.7-3.3-1.1-4Z" fill="#feefcd"/>
  <path d="M41.6,42.9h.2c.2,1.4.2,2.8.2,4.2,0,1.9,0,3.9,0,5.8,0,1-.3,2.6-.2,3.5-.1,0-.2,0-.4,0,.2-.5.2-1.3.2-1.9.3-3.9,0-7.7,0-11.6Z" fill="#a96c34"/>
  <path d="M44.9,49s0,0,0,0c0,0,0,.1,0,.2,0,.3-.5.6-.8.7-.1,0-.1-.1-.1-.2.1-.3.5-.5.8-.7Z" fill="#bb8f5e"/>
  <path d="M46.2,47.9c.1,0,.2,0,.3.1h0c-.1.3-.3.4-.5.6-.1,0-.2,0-.3,0h0c.1-.3.3-.5.5-.6Z" fill="#bb8f5e"/>
  <path d="M47.9,47h0s0,.2,0,.2c-.1.3-.5.5-.8.6,0,0,0,0-.1-.1,0-.3.5-.5.8-.7Z" fill="#bb8f5e"/>
  <path d="M49.2,46.5c.1,0,.2,0,.3,0h0c-.2.3-.4.3-.6.4,0,0-.1,0-.2,0h0c.2-.3.3-.3.6-.4Z" fill="#bb8f5e"/>
  <path d="M25.2,83.3c.4.2.7.4,1.1.5.3.1.9.2,1.2,0,0,1.6-.2,3.2-.3,4.8-.2,3.3-.5,6.7-.7,10l-.6,8.5c0,1.2-.1,2.5-.3,3.7,0,.3,0,.5-.3.7,0,0,0,.1-.1.2-.2.2-.6.3-.9.2-.3,0-.6-.1-.8-.4-.2-.2-.1-.6-.1-.9,0-2,.3-4,.4-5.9l.6-9.4.5-7.9c0-1.3.1-2.7.3-4.1Z" fill="#c4c6c8"/>
  <path d="M68.3,77.9c0,0,.1,0,.2,0,0,0,0,.2,0,.3.1.6,0,1.2.1,1.8.2,2.2.4,4.5.6,6.7.3,3.8.6,7.7.9,11.5.1,1.9.3,3.8.4,5.8,0,.3,0,.6,0,.8-.2.3-.5.4-.8.4-.3,0-.5,0-.8-.1,0,0-.2,0-.2,0-.2-.2-.3-.5-.3-.8-.1-.8-.1-1.7-.2-2.5l-.4-5.6-1.4-17.9c.3.2,1.5-.2,1.9-.3Z" fill="#c4c6c8"/>
  <path d="M12,74.9c.6.3,1.2.8,1.8,1.2-.3,1.1-.5,3.5-.6,4.8l-1.5,12.8c-.2,1.8-.4,3.7-.6,5.5,0,.2,0,.5-.2.7,0,.1-.1.1-.3.2-.1.2-.3.2-.5.2-.3,0-.7,0-1-.3-.1-.1-.2-.3-.2-.5,0-1,.1-2.1.3-3.1l.8-7.4,1-8.9c.2-1.4.2-2.9.4-4.3,0-.4.3-.6.5-.9Z" fill="#c4c6c8"/>
  <path d="M14.2,41.2h0c0,.1,0,.2,0,.3-.9,2.1-1.5,4.3-2.1,6.5-.4,1.5-1,3-1.2,4.5,0,.4,0,.7,0,1.1-.5,0-1.1,0-1.6-.2-.3-.5-.4-.9-.5-1.5-.2-1.6,0-3.3,0-4.8,0-1.3-.1-2.7,0-3.9,0-.3.2-.6.4-.9.6-.7,3.9-1.1,4.9-1.1Z" fill="#89cdd6"/>
  <path d="M15.1,39.7h0c0,0-.5.8-.5.8-.9,0-1.8.2-2.6.4-.6,0-1.2.2-1.8.3-.6.2-1.2.5-1.5,1.1-.2.3-.3.7-.3,1.1-.1,1.1,0,2.4,0,3.5,0,2-.2,4.4.4,6.4-.4,0-.7-.2-1.1-.3,0,0,0,0,0,0-.4-.3-.5-.7-.6-1.1-.1-.9,0-1.9,0-2.9,0-1.8-.2-4.9,0-6.5,0-.4.3-.8.5-1.1.2-.3.5-.4.8-.5,1-.3,2.2-.4,3.2-.6,1.2-.2,2.5-.4,3.7-.5Z" fill="#89cdd6"/>
  <path d="M36,97.9s0,0,0,0c.2.1,1,.1,1.3,0,.3.4.7.7,1,1.1.3.4.3.9.6,1.2-.1,0-.2,0-.4,0-2.1-.5-4,.2-5.7,1.5-.3.3-.6.8-1,.9,0,0,0,0,0,0-.2.5-.6,1-.8,1.5-.5-.5-.8-1.3-1-1.9.2-.5.4-.9.6-1.4.8-1.3,2.4-2.3,3.8-2.7.4-.1,1-.1,1.4-.3,0,0,0,0,0,0Z" fill="#a25620"/>
  <path d="M40.2,105c.6.3,1.7-.2,2.7.6.4.3.5.8.6,1.3,0,.2,0,.4-.2.6-.3.3-.9.5-1.3.6,0-.6,0-1.1-.4-1.6-.2-.3-.7-.7-1.1-.8h0c.2.7,1,1.1,1.1,2,0,.2,0,.5-.2.7-.2.2-.5.3-.8.3-.1,0-.4,0-.4-.2,0,0,0-.3,0-.4,0-.5-.1-1-.5-1.4-.1-.2-.4-.5-.6-.5,0,.4.6,1.2.6,1.8h0c0,.2,0,.4,0,.6,0,.2-.3.3-.4.3-.2,0-.7,0-.9-.2,0-.2,0-.5,0-.7,0-.4-.4-1.1-.8-1.3-.1,0-.2,0-.3,0,0,.6.8,1.2.7,1.9,0,0,0,.2-.1.2-.2.1-.6.1-.8,0-.7-.1-.5-.9-.8-1.3,0-.1-.2-.2-.3-.2-.1,0-.1,0-.2,0,0,.4.5.6.4,1,0,0-.1,0-.2,0-.4,0-.8-.2-1.1-.4,0,0,0,0,0-.1.8-1.2,2.6-2.2,4-2.5.5-.1,1.3-.1,1.7-.4Z" fill="#dc8247"/>
  <path d="M48.6,96.1c.4.1.8,0,1.2.2.8.3,1,1,1.5,1.3,0,0,0,0,0,0-.3.2-1.4.2-2,.5-1.7.8-2.9,2.1-3.6,3.9,0,0,0,.1,0,.2,0,.1,0,.3-.2.4-.5-.2-1.8-.9-2.1-1.2.2-.5.3-1,.5-1.5.5-1,1.9-2.5,3-3,.5-.2,1.2-.3,1.6-.6,0,0,0,0,0,0Z" fill="#a25620"/>
  <path d="M43.3,93c.3.2.8.3,1.2.3.8.2,3.7.7,4.4.3,0,.6-.1,1.1,0,1.7-.2.2-.6.2-.8.3-.4.1-1.4.6-1.7.7-.2.3-.6.5-.8.7-.3.3-1.3,1.4-1.5,1.5,0,0-.1,0-.2-.1-.2-.3-.4-.7-.6-1.1-.2-.4-.4-.8-.4-1.2,0-.5.2-1.3.3-1.8,0-.4.1-.8.2-1.2Z" fill="#dc8247"/>
  <path d="M40.8,99.8c.2.2.3.4.5.6,1.3,1.4,3.6,2.3,5.2,3.3.4.3.8.6,1.2.9.7.5,1.4.9,2.1,1.2,1,.4,2,.7,3.1.7,1.3,0,3.5-.7,4.4-1.5.3-.2.4-.6.7-.8h0c0,.3,0,.5,0,.6-.2.7-.6,1.2-1.1,1.6-1.4,1-3.3,1.2-4.9.9-.9-.2-1.8-.4-2.6-.8-1.5-.7-2.9-1.8-4.3-2.6-1-.6-2.1-1.1-3.1-1.8-.3-.2-.7-.5-1-.9-.3-.4-.3-.9-.2-1.4Z" fill="#a25620"/>
  <path d="M29.1,101.4c.2.2.3,1.2.5,1.5.2.6.6,1.1,1,1.7.9,1.4,1.6,2.7,3,3.6,2.1,1.3,5.3,1.4,7.6.9,1-.2,2.3-.5,2.9-1.4,0,.3,0,.9-.2,1.1-.1.3-.4.6-.7.7-.4.2-.9.4-1.4.5-2,.5-4.2.7-6.2.1-2.7-.8-4.5-3-5.8-5.4-.6-1-1-2.1-.7-3.3Z" fill="#a25620"/>
  <path d="M39.2,102.8c.3.1.9,0,1.2.2,1,.2,1.6.9,2.2,1.7-.2,0-.6-.1-.8-.2-.4,0-.8,0-1.2,0-1.5,0-2.9.4-4.2,1.1-.4.2-.8.6-1.2.7,0,0,0,0,0,0-.2.2-.4.5-.6.7-.2.2-.4.5-.6.7,0,0-.1,0-.2,0-.4-.1-.8-.5-1-.8,1-2.1,2.9-3.2,5.1-3.8.5-.1,1,0,1.5-.3,0,0,0,0,0,0Z" fill="#a25620"/>
  <path d="M27.8,37.2c2.3,1.5,4.7,2.2,7.4,2.6h.9c-.5,1.4-1,2.8-1.6,4.1-.9-1-1.9-2-2.9-2.9-1.4-1.2-2.6-2.4-3.8-3.8Z" fill="#dc8247"/>
  <path d="M27.8,37.2c2.3,1.5,4.7,2.2,7.4,2.6-.4.5-1.2.7-1.7.8-.5,0-1.5,0-1.9.5-1.4-1.2-2.6-2.4-3.8-3.8Z" fill="#a96c34"/>
  <path d="M36.6,94.9h.2c.2.5,0,1.7.1,2.3-.4.2-.9,0-1.3.1-.2,0-.3,0-.5,0-.2,0-.3,0-.5.1-.2,0-.3,0-.5.1-.2,0-.3.1-.5.2-.6.2-1.1.6-1.6.9-.2.2-.8.7-1,.8,0,0-.1,0-.2,0,0-.2,0-.4,0-.6,0-.6.2-1.2.3-1.9,0-.7.1-1.4.1-2.1.2.2.6.2.9.2.9.1,3.8.2,4.5-.3Z" fill="#dc8247"/>
  <path d="M50.8,98.3c.4.1.8,0,1.2.2.4.2,1,.7,1.5.7-.2.1-.3.2-.6.2-2.2.7-3.6,2-4.7,4,0,.2-.1.4-.2.7-.1,0-1.7-1.3-1.8-1.5,0,0,0-.1,0-.2,0,0,0-.1,0-.2,0,0,0,0,0-.1,0,0,0,0,0-.1,0,0,0,0,0-.1,0,0,0,0,0-.1,0,0,0,0,0-.1,0,0,0,0,0-.1,0,0,0,0,0-.1,0,0,0,0,0-.1,0,0,0,0,0-.1,0,0,0,0,0-.1,0,0,0,0,0-.1,0,0,0,0,0-.1,0,0,0,0,0-.1,0,0,0,0,0-.1,0,0,0,0,.1-.1,0,0,0,0,.1-.1,0,0,0,0,.1-.1s0,0,.1-.1c0,0,0,0,.1-.1,0,0,0,0,.1-.1,0,0,0,0,.1-.1,0,0,0,0,.1-.1,0,0,0,0,.1,0,0,0,0,0,.1,0,0,0,0,0,.1,0,0,0,0,0,.1,0,0,0,0,0,.1,0,0,0,0,0,.1,0,0,0,0,0,.1,0s0,0,.1,0c.4-.2,1-.3,1.4-.6,0,0,0,0,0,0Z" fill="#dc8247"/>
  <path d="M36.9,100.7c.3.1.8,0,1.1,0,1,0,1.6.8,2.2,1.5h-.1c-1.8-.2-4,.5-5.5,1.4-.4.3-.8.7-1.2.9,0,0,0,0,0,0-.1.3-.4.5-.6.8-.2.2-.3.5-.5.8-.2,0-.4-.4-.5-.6-.2-.3-.3-.7-.2-1,.4-1.5,2.5-3,3.9-3.5.4-.2,1.1-.2,1.4-.4,0,0,0,0,0,0Z" fill="#dc8247"/>
  <path d="M55.9,101.8c.4.2.8,0,1.3.3.3.2.4.4.5.7,0,.2.1.4,0,.6-.5-.2-.7-1-1.3-1.1h0c0,.5.5.7.8,1.2.1.2.2.5,0,.8,0,.2-.3.4-.5.4-.2-.6-.3-1.1-.8-1.4-.3-.2-.8-.4-1.1-.3.2.4.8.6,1.1,1,.2.2.3.6.3.9,0,.2-.2.4-.4.5-.2.1-.4.2-.7.2,0-.2,0-.5,0-.7,0-.1,0-.2-.1-.3-.2-.4-.8-1-1.2-1.1-.1,0-.2,0-.3,0,0,.2.6.5.8.7.3.3.4.6.4,1,0,.2,0,.4-.2.5-.5.4-1.4.4-1.9.3-.4,0-1.2-.2-1.5-.5.5-1.6,2.1-2.7,3.6-3.3.4-.1.9-.2,1.3-.4,0,0,0,0,0,0Z" fill="#dc8247"/>
  <path d="M53.7,100c.4.2,1,0,1.4,0,.6.2,1,.8,1.5,1.1,0,0,0,0,0,0-.3.2-1,.1-1.4.2-1.3.2-2.7,1-3.7,2-.3.3-.6.7-.9,1-.1.3-.3.7-.4,1,0,0,0,0-.1,0-.3,0-1.1-.4-1.3-.7-.1-.2-.2-.4-.1-.7.3-1.3,2.3-3,3.5-3.6.4-.2,1-.2,1.4-.5,0,0,0,0,0,0Z" fill="#a25620"/>
  <path d="M9,54.4c.5.1,1.1.1,1.6.1v3.6c0,.6,0,1.2,0,1.8h0c-.5.1-.9.2-1.4.3v-5.9Z" fill="#89cdd6"/>
  <path d="M31.7,50.6c.5-.1.9-.5,1.4-.7.2.5.5,1,.8,1.5.7,1.2,1.8,2.8,2.3,4.1-.7-.4-1.3-.5-2.1-.6-.3-.6-2.4-3.9-2.4-4.3Z" fill="#5aba47"/>
  <path d="M42.1,96.1s0,0,0,0c.1.7.9,2.5,1.4,2.8-.2.7-.5,1.2-.6,1.9h-.1c0,0-.1,0-.2-.1-.5-.2-1.1-.8-1.3-1.3-.1-1.3.1-2.3.7-3.4Z" fill="#a25620"/>
  <path d="M30.3,48.1c-.1-.2-.2-.3-.1-.6,0-.2.3-.4.5-.5.2-.1.5-.2.8-.3.3.5.7,1,.9,1.6-.1.1-.3.2-.4.3-.3.3-.7.5-1,.7-.2-.3-.3-.6-.5-.9l-.2-.3Z" fill="#f67a4c"/>
  <path d="M30.3,48.1c0-.2.2-.3.3-.4.1-.1.3-.2.5-.1h0c0,.2.1.2.2.2.1,0,.2,0,.3.1,0,0,0,.1.1.2-.2.1-.4.3-.6.2l-.2-.2c-.1.1-.3.2-.4.3l-.2-.3Z" fill="#dc8247"/>
  <path d="M38.3,61.1c.5.2,1,.2,1.5.2.2.8.2,1.5.2,2.3-.6-.4-1.2-1-1.7-1.5v-1.1Z" fill="#5aba47"/>
  <path d="M31.2,49.8c0,0,0-.2,0-.3.2-.1.3-.3.5-.4.2-.2.6-.4.9-.4.1.1.1.2.2.3h0c0,.2.1.2.2.2l.3.2c0,0,.1.2.1.3-.5.2-.9.6-1.4.7h0c0,0,.5-.3.5-.3h0c0,0,0,0,0,0,0,0,0,0-.1,0-.2.1-.4.2-.6.2v-.2c-.1,0-.4-.3-.4-.3Z" fill="#699460"/>
  <path d="M31.2,49.8c0,0,0-.2,0-.3.2-.1.3-.3.5-.4.2-.2.6-.4.9-.4.1.1.1.2.2.3h0c-.4,0-1,.6-1.4.7Z" fill="#699460"/>
  <path d="M31.2,49.8c.4-.2,1-.7,1.4-.6,0,0,.1,0,.2.1-.4.4-.9.5-1.3.8l-.2-.3Z" fill="#5f6d48"/>
  <path d="M33,49.5c0,0,.1.2.1.3-.5.2-.9.6-1.4.7h0c0,0,.5-.3.5-.3h0c0,0,0,0,0,0,0,0,0,0-.1,0-.2.1-.4.2-.6.2.4-.4,1-.4,1.5-.9Z" fill="#3f2009"/>
  <path d="M41.2,57c0,.3-.7.9-.8,1.2-.1.2-.2.4-.3.7l-.4-.5c-.2-.3-.5-.7-.7-1,.8,0,1.6-.2,2.3-.3Z" fill="#89cdd6"/>
  <path d="M43.3,54c.3.2.5.4.8.6,0,0,0,0,0,0,.3.1.6,0,.9,0,0,.2-.1.3-.2.5-.1.2-.4.2-.6.3-.5,0-.9.2-1.3.4.2-.6.2-1.2.4-1.8Z" fill="#feefcd"/>
  <path d="M30.2,98.2c.1.6,0,1.4.1,2.1,0,.3-.2.6-.4.8h0c0,0,0,0,0,0-.2-.9,0-2.2.4-3Z" fill="#a25620"/>
  <path d="M9.3,67h.2c.2.4,0,2.9,0,3.4-.4-.9-.3-2.4-.2-3.4Z" fill="#89cdd6"/>
  <path d="M12.8,52.6h0c0,.4.1.6,0,.9-.2,0-.3,0-.4,0,0,0-.2-.1-.2-.2,0-.1,0-.1,0-.3.2-.2.4-.2.6-.3Z" fill="#feefcd"/>
</svg>