<?xml version="1.0" encoding="UTF-8"?>
<svg id="Layer_1" xmlns="http://www.w3.org/2000/svg" width="80" height="115" version="1.1" viewBox="0 0 80 115">
  <!-- Generator: Adobe Illustrator 29.4.0, SVG Export Plug-In . SVG Version: 2.1.0 Build 152)  -->
  <defs>
    <style>
      .st0 {
        fill: #efc481;
      }

      .st1 {
        fill: #feefcd;
      }

      .st2 {
        fill: #dc8247;
      }

      .st3 {
        fill: #292929;
      }

      .st4 {
        fill: #885827;
      }

      .st5 {
        fill: #c4c6c8;
      }

      .st6 {
        fill: #5aba47;
      }

      .st7 {
        fill: #210702;
      }

      .st8 {
        fill: #fff;
      }

      .st9 {
        fill: #89cdd6;
      }

      .st10 {
        fill: #bb8f5e;
      }

      .st11 {
        fill: #a96c34;
      }

      .st12 {
        fill: #f67a4c;
      }

      .st13 {
        fill: #a25620;
      }

      .st14 {
        fill: #699460;
      }

      .st15 {
        fill: #5f6d48;
      }

      .st16 {
        fill: #3f2009;
      }
    </style>
  </defs>
  <path class="st16" d="M16.031,21.335c-1.133-4.468-1.549-10.424,2.446-13.617.961-.573,1.551-1.504,2.262-2.342,1.652-1.748,3.914-2.759,6.223-3.328,7.768-1.804,16.671.81,21.597,7.186,1.372,1.508,3.198,3.067,3.096,5.293-.555.227-1.603-1.234-2.061-1.604,1.391,3.913-.558,7.806-1.58,11.556-.479,4.561-.561,9.688-4.852,12.495,2.544,1.516,8.448,9.489,9.752,11.58.08.441-.289.642-.345.987.835,1.189,1.839,2.719,2.061,4.242.229.804-.049,1.856-.04,2.598,6.464,2.52,12.826,5.599,18.975,8.853,1.519.793.938,3.665.489,4.924-.357.664-1.095.891-1.789,1.026-.323,2.249.323,6.216-2.59,6.761.355,4.482,1.28,15.892,1.612,20.546.08,1.368.434,4.875.465,6.199.317,1.75-1.985,2.598-3.208,1.58-.73-.873-.466-2.188-.618-3.256,0,0-.248-3.168-.248-3.168-.422-6.154-1.273-15.241-1.644-21.348-.976.381-10.926,1.908-11.468,1.901-.024,0-.04-.008-.064-.016-.399,3.936-.842,7.983-1.435,11.877-.064.289-.128.585-.353.794-.456.375-2.264,1.127-2.895.978-.016.577-.056,1.163-.112,1.74.321.449,1.323.842,1.812,1.299.468.4.696,1.095,1.091,1.5.86.46,1.487.582,2.285,1.291,1.309.534,2.692,1.096,2.951,2.646,3.262,3.045-.426,6.496-3.922,6.424-3.825.185-6.095-1.949-9.174-3.777-.885-.54-2.494-1.198-3.168-1.893.265.499.833.77,1.179,1.211.168.209,1.82,3.32,1.885,3.537.679,4.365-6.248,4.26-9.07,3.657-3.543-.732-9.614-7.509-6.616-10.963-.195-2.047,1.63-3.246,1.299-5.309-.781-.015-1.688-.642-1.756-1.476-.211-3.146-.131-6.312-.409-9.455l-.032.016c-.433,6.568-.864,13.155-1.412,19.72,0,0-.361,5.012-.361,5.012-.153,1.28.144,2.849-.818,3.857-.783.646-2.139.571-2.831-.184-.249-.289-.297-.594-.313-.962.048-2.276.299-4.556.441-6.825.297-5.177,1.149-16.841,1.379-21.878-.497-.096-8.597-5.493-9.976-6.368-1.07,7.797-1.888,15.65-2.847,23.457-.194,2.076-3.89,1.751-3.609-.353.171-3.004,1.198-10.806,1.5-13.914.464-3.021.654-8.593,1.468-11.484-1.012-.622-1.657-1.531-1.548-2.759-1.507-1.316-1.115-3.333-1.035-5.125-.866-.537-1.532-1.018-1.764-2.069-.285-1.42-.31-3.868,1.46-4.282v-6.223c-1.198-.292-2.214-1.09-2.157-2.422-.032-3.375-.491-6.954.144-10.273.257-.666.682-1.163,1.34-1.46,1.083-.481,6.993-1.259,8.453-1.363,2.188-2.459,5.948-2.712,7.779-5.461-.521-.794-.962-1.572-1.315-2.454-5.077,2.108-9.097-5.459-6.007-9.335h0ZM40.234,82.493l-.433,7.314c-.164,2.104.462,5.013-2.302,5.509-.024.73-.168,1.877.12,2.55.458.602,1.076,1.031,1.46,1.7.217.369.618,1.804.866,1.965.056.096.096.225.209.257-.128-.826-.014-1.621.489-2.302.016-1.331.152-2.695,1.147-3.681.831-.538.759-1.841.882-2.727-.75-.038-1.585-.752-1.724-1.492-.072-.778.096-1.66.176-2.438.087-1.283.625-5.545.65-6.753-.136-.056-.265-.008-.393-.072-.27.161-.845.298-1.147.16v.008ZM10.898,59.909c.522-.064,2.459-.364,2.951-.377-1.299-1.708-1.476-3.16-1.508-5.213-.409,0-.826,0-1.235.016l-.2.056c-.144,1.818.075,3.685,0,5.518h-.008Z"/>
  <path class="st9" d="M54.092,56.982c6.074,2.18,12.63,5.674,18.51,8.581.433.249.93.49,1.066,1.003.16.618-.048,2.855-.393,3.376-.847.611-2.085.486-3.08.706,0,0-4.25.617-4.25.617l-11.773,1.74-16.32,2.446c-3.743.448-7.506,1.607-11.276,1.436-1.629-.493-2.974-1.691-4.427-2.55-3.137-1.979-8.444-5.22-11.54-7.154-1.177-.886-3.132-1.309-3.497-2.895-.12-.714-.192-2.093.249-2.687,2.038-1.363,4.91-.888,7.258-1.508,2.647,1.605,5.82,1.603,8.717,2.253,3.748,2.114,7.184,4.849,10.883,7.025,1.979.551,4.119-.368,6.127-.553,3.168-.497,6.336-1.011,9.503-1.548l6.015-1.002c.751-.202,1.922-.003,2.39-.73-.152-.585-7.29-4.547-8.268-5.149,1.332-1.214,3.074-1.873,4.106-3.424v.016Z"/>
  <path class="st16" d="M8.188,62.026c.754.088,1.957,1.043,2.63,1.452,4.784,2.668,11.186,7.185,16.031,9.488,1.922.325,3.905-.331,5.814-.537,0,0,8.982-1.323,8.982-1.323,5.183-.564,26.374-4.285,31.132-4.379.032.168,0,.2-.056.353-10.334,1.611-26.385,3.896-36.906,5.51-2.515.261-6.19,1.204-8.685,1.051-2.762-.697-5.023-2.766-7.507-4.098,0,0-5.59-3.401-5.59-3.401-1.933-1.238-4.098-2.233-5.87-3.673-.096-.144-.016-.281.032-.433l-.008-.008Z"/>
  <path class="st2" d="M25.839,11.896c2.72,2.528,7.314,3.974,10.915,2.823-.634-.77-1.893-1.051-2.422-1.877,1.514.708,5.294,2.105,7.001,1.604.088-.048.072-.064.104-.152-.545-.64-1.506-1.195-1.941-2.005,2.115,1.722,5.485,2.227,8.148,2.077,1.1,3.432.034,7.292-.642,10.682-.047,5.213-1.401,10.181-6.448,12.655-6.783,3.257-15.83-1.337-17.899-8.404-3.547,2.92-7.628-2.036-6.656-5.678.18-1.559,1.479-3.183,3.192-2.815,1.211.249,2.149,1.5,2.646,2.558.267.441.341,1.221.834,1.436,1.882-4.483,3.978-7.795,3.152-12.912l.016.008Z"/>
  <path class="st16" d="M32.615,18.055c1.178-.115,3.173.337,3.08,1.82-.128.176-.249.233-.465.249-1.388-.139-2.787-.388-4.194-.056-.855.149-1.599.909-2.47.786-.088-.048-.08-.088-.112-.177.514-1.698,2.535-2.451,4.154-2.614l.008-.008Z"/>
  <path class="st16" d="M43.346,18.335c1.372-.17,3.847.604,3.416,2.366-.056.152-.128.16-.265.217-.361-.048-.818-.401-1.147-.569-1.331-.553-3.055.096-3.633-.144-.736-.876.912-1.702,1.628-1.869Z"/>
  <path class="st16" d="M28.966,24.807c.505,0,.794.521,1.139.842.802.762,2.101,1.139,3.12.561.433-.249.962-.938,1.452-.954l.088.104c.114,2.165-3.165,2.559-4.627,1.636-.703-.399-1.717-1.328-1.171-2.189Z"/>
  <path class="st16" d="M32.631,32.61c1.651,1.338,3.894,2.131,6.031,1.636.553-.136,1.419-.818,1.949-.69l.04.12c-1.475,2.438-6.975,1.514-8.284-.698.056-.192.112-.225.257-.369h.008Z"/>
  <path class="st16" d="M18.22,22.666c1.533-.218,3.501,2.98,2.663,4.21-.481-.107-.21-1.468-.898-1.307-.501.463-.455,1.212-.088,1.748.119.128.399.378.192.529-1.37-.226-1.49-2.393-.225-2.927-.465-.762-.746-1.235-1.612-1.54-.278.147-.602.448-.914.233-.137-.518.469-.807.866-.946h.016Z"/>
  <path class="st16" d="M39.36,27.085c3.327,2.171,1.258,6.178-2.302,4.146-.04-.136-.048-.152.008-.289.625-.274,1.487.265,2.157.016,2.524-.376.255-2.655-.104-3.529.048-.176.104-.217.233-.353l.008.008Z"/>
  <path class="st16" d="M45.278,25.112c.069.025.129.074.184.12.108.088.149.221.176.353-.321,1.863-3.161,2.196-4.258.81-.21-.315-.267-.768-.104-1.115.364-.273.649.291.874.521,1.008.992,2.366.206,3.12-.698l.008.008Z"/>
  <path class="st12" d="M9.872,67.688c2.772,1.603,9.416,5.807,12.254,7.522,1.283.802,2.59,1.861,4.05,2.334,2.485.554,5.066-.422,7.547-.681,0,0,9.776-1.484,9.776-1.484l28.029-4.17c-.305,1.644-.136,3.408-.674,5.004-.363.62-1.039.894-1.716,1.026-2.582.593-5.245.914-7.859,1.331-5.574.874-11.155,1.724-16.745,2.542l-10.802,1.588c-5.26.955-7.602,1.459-12.069-2.037-1.927-1.282-6.597-4.264-8.493-5.509-.922-.593-2.029-1.195-2.799-1.981-.674-.682-.505-4.451-.497-5.485h0Z"/>
  <path class="st7" d="M26.28,78.338c.398.491.14,3.955.008,4.331-.064.024-.072,0-.128-.016-.144-.609-.056-3.737.12-4.315h0Z"/>
  <path class="st2" d="M14.748,52.098c2.013-.289,3.825.377,5.686,1.018-.782.02-2.242-.406-2.767.321.265.241,1.363.152,1.748.2,2.997.442,6.842,3.086,9.816,3.208,1.419-.016,2.526-1.419,4.563-1.331,2.103.008,6.682,2.799,5.437,5.221-.994.281-1.949-1.235-2.51-1.82-.713-.714-1.838-1.563-2.887-1.492.296.938,4.112,2.115,3.633,4.716-.16.144-.305.136-.505.152-1.255-.421-2.719-2.607-4.05-3.055,0,.016,0,.04-.008.056-.126,1.107,3.074,2.414,3.12,3.505-.94,1.948-3.162-1.541-4.162-1.299-.12,1.042,2.022,1.365,2.029,2.246-.789.537-1.674-.051-2.454-.321-1.448-.325-2.698-.893-3.897-1.732-3.733-.361-10.264-.034-13.152-2.839-1.435-1.732-1.283-4.467-1.083-6.568.481-.104.97-.136,1.46-.176l-.016-.008Z"/>
  <path class="st1" d="M11.315,52.258c2.367-7.981,1.912-13.175,10.65-16.472.297,2.101,1.115,7.081,2.791,8.429.058,3.476-.046,6.94-.008,10.418-.714-.361-1.492-.618-2.213-.962-.16-4.403.69-8.076-1.508-12.246-.684-1.255-1.935-3.052-3.561-2.743,5.17,2.703,4.286,9.327,4.25,14.299-3.03-1.818-7.204-2.378-10.418-.714l.016-.008Z"/>
  <path class="st10" d="M18.332,48.69c.385.064,1.227.093,1.203.626-.391-.029-1.205-.116-1.203-.634v.008Z"/>
  <path class="st10" d="M19.856,49.291c.429.061,1.135.109,1.219.642-.513.104-.96-.22-1.219-.642Z"/>
  <path class="st10" d="M16.376,48.409c.359.022,1.222-.12,1.235.401-.352.011-1.274.148-1.235-.401h0Z"/>
  <path class="st10" d="M14.78,48.433c.305-.032.682-.112.962.032.056.144.048.144,0,.289-.297.024-.698.096-.978-.04-.064-.144-.04-.136.008-.281h.008Z"/>
  <path class="st10" d="M13.577,48.473c.192-.016.321-.024.473.08l-.032.112c-.255.235-.711.282-1.018.12l.024-.088c.176-.152.329-.176.545-.225h.008Z"/>
  <path class="st1" d="M24.002,33.837c1.596,1.569,2.605,3.316,4.114,5.004,1.885,1.906,3.962,3.584,5.878,5.453-.609,1.604-.962,2.967-.738,4.691-.441-.898-.97-1.965-1.588-2.751-2.887-.305-2.431,1.917-1.155,3.609.966,1.625,1.869,3.302,2.871,4.908-1.564.096-2.727.986-4.178,1.395-1.556-.267-3.018-.924-4.459-1.54-.037-3.465.059-6.949.008-10.418h.361c.315-.037.72-.226,1.002-.377.128.032.152.016.273-.032.191-.219.494-.327.762-.417.498-.331,1.077-.606,1.596-.914.128-.112.168-.168.337-.2.479.973,1.53,1.265,2.438,1.748.564.287,1.071.796,1.732.834l.032-.096c-.569-.994-2.478-1.764-3.456-2.334-.128-.481-.168-.986-.321-1.452-1.331,1.051-2.663,2.085-4.347,2.502-1.436-2.077-2.262-5.726-2.406-8.22.401-.481.842-.93,1.251-1.411l-.008.016Z"/>
  <path class="st1" d="M26.128,43.838c.088.417.481,1.099.305,1.484-.112.441-.2.81.048,1.227.396.41.006.834-.104,1.283.064.273.104.593.289.81.136.433-.217.834-.225,1.283,0,.369.297.618.321.938-.354.527-.556,1.211-.112,1.756.079.117.188.377.224.513-.192.417-.361.714-.192,1.179,0,.016.008.032.016.04l-.168.128c.209.302.083.571-.032.89-.57-.249-1.184-.508-1.756-.746-.037-3.465.059-6.949.008-10.418h.361c.315-.037.72-.226,1.002-.377l.016.008Z"/>
  <path class="st1" d="M25.478,44.127c.21,3.576.219,7.273.016,10.81-.155-.071-.589-.271-.746-.321-.037-3.465.059-6.949.008-10.418h.361c0,.008.353-.08.353-.08l.008.008Z"/>
  <path class="st11" d="M24.764,44.207h.361c-.265,3.406.057,7.027-.144,10.506l-.233-.088c-.037-3.465.059-6.949.008-10.418h.008Z"/>
  <path class="st11" d="M25.478,44.127l.297-.12c.187,3.682.129,7.373.008,11.051l-.289-.12c.201-3.548.196-7.234-.016-10.81h0Z"/>
  <path class="st13" d="M26.777,52.844l.096.281c-.192.417-.361.714-.192,1.179,0,.016.008.032.016.04l-.168.128c-.391-.553-.184-1.168.241-1.628h.008Z"/>
  <path class="st1" d="M27.699,43.068c.168,1.612.722,12.35.385,12.831-.524-.176-1.073-.295-1.572-.529.121-.319.237-.589.032-.89l.168-.128c0-.016-.016-.024-.016-.04-.168-.465,0-.754.192-1.179-.037-.138-.146-.395-.225-.513-.445-.534-.24-1.235.112-1.756-.024-.321-.329-.569-.321-.938,0-.449.353-.85.225-1.283-.184-.217-.225-.537-.289-.81.11-.449.501-.873.104-1.283-.249-.417-.16-.786-.048-1.227.176-.385-.217-1.067-.305-1.484.128.032.152.016.273-.032.191-.219.494-.327.762-.417.144-.136.361-.225.537-.321h-.016Z"/>
  <path class="st13" d="M26.641,45.554c.04-.128.048-.241.168-.313.128.128.192.281.281.441.04-.064.112-.112.168-.168.136.553.032.85-.217,1.339.236.536.666,1.368.144,1.853.04.273.136.497.249.754.217.638-.398,1.037-.217,1.588.264.512.337,1.066-.056,1.532l-.176-.08c-.032.016-.112.008-.152.008l-.168.12c-.446-.534-.24-1.235.112-1.756-.024-.321-.329-.569-.321-.938,0-.449.353-.85.225-1.283-.184-.217-.225-.537-.289-.81.053-.349.383-.678.265-1.027-.365-.45-.38-.954-.209-1.484l.2.233-.008-.008Z"/>
  <path class="st0" d="M26.825,52.499c-.236-.561-.145-.923.112-1.46.329.451.298.967.032,1.444-.032.016-.112.008-.152.008l.008.008Z"/>
  <path class="st0" d="M26.641,45.554c.04-.128.048-.241.168-.313.128.128.192.281.281.441-.006.314.003.766-.281.97-.2-.401-.233-.658-.16-1.099h-.008Z"/>
  <path class="st0" d="M27.01,50.446c-.024.016-.088.016-.112.024-.239-.317-.317-.935.008-1.219.168.04.217.152.313.289.008.345-.056.585-.209.906h0Z"/>
  <path class="st0" d="M26.905,47.142c.249.561.321.818.136,1.419l-.168.072c-.249-.593-.176-.898.024-1.492h.008Z"/>
  <path class="st4" d="M26.825,52.499c.04,0,.112,0,.152-.008l.176.08c-.176.89.722.922-.12,2.278.056.249.12.513.136.77-.225-.056-.449-.16-.658-.249.121-.319.237-.589.032-.89l.168-.128c0-.016-.016-.024-.016-.04-.168-.465,0-.754.192-1.179-.037-.137-.146-.396-.225-.513l.168-.12h-.008Z"/>
  <path class="st0" d="M26.881,53.133c.296.399.423,1.02.024,1.395-.104-.04-.136-.096-.2-.184,0-.016-.016-.024-.016-.04-.168-.465,0-.754.192-1.179v.008Z"/>
  <path class="st4" d="M26.865,43.485l.297-.104c.091.511-.018.96-.233,1.419.104.225.249.465.321.706-.056.056-.12.104-.168.168-.08-.16-.152-.313-.281-.441-.12.072-.12.176-.168.313l-.2-.233c.176-.385-.217-1.067-.305-1.484.128.032.152.016.273-.032.128-.152.297-.225.465-.313h0Z"/>
  <path class="st0" d="M26.865,43.485c.088.233.072.505.056.754-.072.136-.136.281-.281.329-.152-.152-.192-.553-.241-.77.128-.152.297-.225.465-.313Z"/>
  <path class="st1" d="M28.429,42.643c.48,3.872.661,9.312.497,13.385l-.064.064c-.218-.052-.574-.128-.786-.192.345-.473-.209-11.219-.385-12.831.257-.108.502-.27.73-.425h.008Z"/>
  <path class="st11" d="M27.699,43.068l.184-.088c.638,4.214.582,8.722.537,13.008-.112-.024-.225-.056-.337-.088.345-.473-.209-11.219-.385-12.831Z"/>
  <path class="st11" d="M28.429,42.643l.329-.168c.14,1.969.309,3.959.329,5.935-.221.158-.143.428-.184.674-.265-1.403-.08-5.461-.473-6.44Z"/>
  <path class="st11" d="M28.966,50.358c.08-.2.08-.409.088-.626.04.04.04.337.04.409h.064c.231,1.977.007,4.009.048,5.999-.12,0-.233-.04-.345-.072l.064-.064c.144-1.869.048-3.785.04-5.662v.016Z"/>
  <path class="st13" d="M28.902,49.083c.031-.244-.036-.516.184-.674.048.585.072,1.163.08,1.74h-.064c0-.072,0-.361-.04-.401-.016.209-.008.425-.088.626-.064-.425-.064-.85-.064-1.283l-.008-.008Z"/>
  <path class="st10" d="M30.514,49.845l.056.112c-.035.271.043.634-.2.826l-.072-.072c-.065-.295-.136-.749.225-.874l-.008.008Z"/>
  <path class="st10" d="M30.346,53.902c.376.229.28.961.168,1.315-.392-.274-.361-.944-.168-1.323v.008Z"/>
  <path class="st10" d="M31.068,44.054c.306.351.473.913.401,1.371-.404-.295-.439-.919-.401-1.371Z"/>
  <path class="st10" d="M30.426,52.283c.341.224.229.88.024,1.179-.316-.34-.171-.81-.016-1.179h-.008Z"/>
  <path class="st10" d="M30.057,44.832c.064.032.128.072.184.112.168.265.136.489.088.786-.345-.161-.375-.573-.273-.898Z"/>
  <path class="st10" d="M30.338,51.08c.343.12.288.522.192.794-.346-.088-.247-.538-.192-.802v.008Z"/>
  <path class="st0" d="M42.664,82.14c2.276-.061,4.574-.716,6.857-.97.963-.18,3.41-.298,4.138-.714-.334,3.335-.77,6.676-1.211,9.992-.048.789-.016,1.83-.826,2.245-2.403,1.283-7.904.74-9.816-1.179.018-3.115.746-6.242.866-9.367l-.008-.008Z"/>
  <path class="st10" d="M41.966,88.988c.406.124,1.146.372,1.171.866l-.056.096c-.393-.088-.77-.441-1.123-.634l-.048.032c0-.112.032-.241.048-.353l.008-.008Z"/>
  <path class="st10" d="M52.44,90.448c-.322.162-.736.303-1.091.184.216-.387.829-.297,1.139-.545,0,.128,0,.249-.04.361h-.008Z"/>
  <path class="st10" d="M47.428,90.649c.449.056,1.035-.048,1.444.136l.04.104c-.364.259-1.124.251-1.516.08-.056-.152-.024-.176.032-.321Z"/>
  <path class="st10" d="M50.203,90.512c.225.112.523-.04.682.217l-.024.08c-.214.164-.496.229-.746.128-.192.104-.361.096-.577.088l-.072-.072c.134-.396.455-.241.738-.449v.008Z"/>
  <path class="st10" d="M45.487,90.456c.37.074,1.048-.06,1.259.289l-.064.096-.16.12c-.385,0-.65,0-.994-.184-.096-.144-.072-.152-.048-.321h.008Z"/>
  <path class="st10" d="M43.675,89.943c.369.16.922.144,1.155.505-.305.238-1.293-.017-1.155-.505Z"/>
  <path class="st8" d="M49.697,60.904c2.488,1.399,5.121,2.997,7.555,4.547-7.365,1.286-15.022,2.571-22.415,3.553-3.444-2.19-6.786-4.599-10.305-6.688l2.879.12c1.032.834,2.249,1.258,3.521,1.54,1.192.446,2.764,1.129,3.745-.072l.674.16c.754-.217.986-.505,1.379-1.171.401.072.802-.024,1.171.032.719.085,1.974,2.332,3.023,1.62.16-.409-.305-.481-.361-.778-.04-.2.393-.401.409-.698-.096-.241-.241-.369-.433-.537-.096-.353-.233-.834-.192-1.195l.096-.016c.465.216.615.97,1.195,1.027.882.032.746.561,1.275.69.489.12.89-.136,1.355-.16.709.161,1.322.362,2.029-.056,1.13-.64,2.333-1.192,3.4-1.917Z"/>
  <path class="st3" d="M42.905,64.649c.357-.052.737-.006.954.313.151.333-.147.589-.441.674-.36.015-.986-.144-.874-.618.096-.176.209-.257.369-.369h-.008Z"/>
  <path class="st8" d="M42.937,64.873c.176,0,.313,0,.481.056.12.152.104.184.112.385-.184,0-.337,0-.505-.064-.106-.145-.088-.2-.088-.377Z"/>
  <path class="st3" d="M41.365,63.654c.589-.628,1.654.315.866.866-.501.267-1.129-.382-.866-.874v.008Z"/>
  <path d="M41.365,63.654c.589-.628,1.654.315.866.866l-.064-.2c.032-.184.048-.313-.04-.481-.136-.12-.241-.144-.417-.176-.115.025-.23-.002-.345-.008Z"/>
  <path class="st8" d="M41.702,63.67c.176.032.281.056.417.176.088.168.072.297.04.481-.366.099-.641-.352-.457-.658h0Z"/>
  <path class="st3" d="M44.252,65.691c.48-.331,1.434.079,1.083.714-.008,0-.024.016-.032.016-.525.422-1.595-.029-1.051-.73Z"/>
  <path d="M44.252,65.691c.48-.331,1.434.079,1.083.714l-.2-.152c-.199-.375-.496-.478-.89-.561h.008Z"/>
  <path class="st8" d="M44.436,65.731c.345.112.521.184.706.521-.217.032-.417.064-.609-.056-.112-.16-.096-.273-.096-.465Z"/>
  <path class="st3" d="M34.692,64.825c.321,0,.561,0,.81.233.209.319-.174.563-.441.658-.313,0-.561-.016-.818-.225-.217-.315.202-.565.457-.674l-.008.008Z"/>
  <path class="st8" d="M34.644,65.05c.191.03.498-.002.545.217l-.088.16c-.184,0-.369.032-.537-.048-.04-.16,0-.184.088-.329h-.008Z"/>
  <path class="st3" d="M40.868,66.213c.36-.044,1.034-.059,1.051.433-.072.192-.2.281-.361.393-.36.048-.96.045-1.01-.425.064-.2.168-.281.321-.401h0Z"/>
  <path class="st8" d="M40.932,66.437c.225,0,.401-.016.569.136v.16c-.213.009-.491.106-.618-.104l.048-.192Z"/>
  <path class="st3" d="M51.349,64.328c.298.067.798.121.778.529-.088.2-.233.281-.409.401-.334-.004-.861-.176-.77-.593.096-.176.233-.241.401-.337h0Z"/>
  <path class="st3" d="M36.112,65.796c.342.014.886.19.786.626-.104.152-.217.209-.385.273-.325-.022-.876-.159-.786-.585.104-.168.225-.233.393-.321l-.008.008Z"/>
  <path class="st3" d="M37.451,66.814c.31-.057.863-.021.842.401-.072.176-.2.249-.353.353-.318.091-.892.061-.858-.385.08-.192.2-.265.369-.369h0Z"/>
  <path class="st3" d="M38.702,64.601c.217.01.378.104.465.305-.011.539-.932.828-1.187.321.001-.403.385-.549.722-.609v-.016Z"/>
  <path class="st3" d="M49.545,64.16c-.234-.092-.46-.242-.465-.521.166-.492.887-.243,1.171.024.17.415-.389.562-.706.497h0Z"/>
  <path d="M49.545,64.16c-.234-.092-.46-.242-.465-.521.091-.352.5-.296.77-.209-.068.153-.216.188-.377.168-.016.096-.024.152,0,.249v-.072c0,.011.075.373.072.385Z"/>
  <path class="st3" d="M37.251,64.48c-.228-.077-.485-.196-.465-.473.132-.455.808-.446,1.099-.152.128.384-.292.646-.634.626Z"/>
  <path class="st3" d="M45.463,65.09c-.072-.064-.128-.136-.192-.209-.024-.168-.032-.184.048-.337.273-.2.481-.217.794-.176.152.064.152.056.233.217,0,.16-.016.233-.112.361-.233.144-.505.12-.77.152v-.008Z"/>
  <path class="st3" d="M45.463,65.09c-.072-.064-.128-.136-.192-.209-.024-.168-.032-.184.048-.337.273-.2.481-.217.794-.176-.408.337-.368.279-.658.722h.008Z"/>
  <path class="st3" d="M39.464,65.491c.279-.029.831-.112.842.273-.072.184-.176.265-.329.385-.271.01-.656.021-.754-.289.032-.168.12-.249.241-.361v-.008Z"/>
  <path class="st3" d="M47.949,62.604c.279.002.632-.005.786.281-.072.176-.12.2-.273.321-.281.02-.706.062-.818-.273.064-.168.168-.225.313-.321l-.008-.008Z"/>
  <path class="st3" d="M47.42,63.919c.294.013.617-.09.842.144-.016.184-.064.233-.168.393-.272.036-.54.11-.762-.088-.032-.184.024-.281.088-.449h0Z"/>
  <path class="st3" d="M46.353,63.021c.207-.037.434-.06.553.152l-.016.136c-.104.152-.225.184-.393.241-.186.004-.526.053-.545-.2.088-.176.233-.233.401-.321v-.008Z"/>
  <path class="st3" d="M48.959,65.002c.223.036.468.027.585.257-.008.176-.048.249-.16.385-.249-.032-.473-.04-.634-.241.016-.184.088-.265.209-.401Z"/>
  <path class="st0" d="M28.934,84.129c1.086.009,9.877-1.184,10.45-1.572-.205,3.49-.324,7.145-.601,10.586-.568,2.478-7.924,2.312-9.439.754-.128-.666-.136-1.403-.128-2.085-.165-2.553-.205-5.121-.281-7.683Z"/>
  <path class="st10" d="M29.159,90.713c.032.217.056.433.072.65.257.144.818.409.89.706,0,.024.008.04.016.064-.311.156-.701-.101-.922-.321-.08-.353-.056-.746-.056-1.099h0Z"/>
  <path class="st10" d="M32.567,92.196c.359.178.835-.085,1.123.241-.04.136-.048.128-.168.2l-.184-.064c-.314.136-.806.254-1.075-.016.064-.192.16-.241.305-.361h0Z"/>
  <path class="st10" d="M37.515,91.795c.048.04.096.088.144.136l-.016.128c-.291.247-.766.301-1.115.16l-.136.024-.056-.08c.241-.257.866-.233,1.187-.385l-.008.016Z"/>
  <path class="st10" d="M34.829,92.14c.281.137.716-.08.954.16l-.064.072c-.152.072-.233.072-.401.048-.227.187-.585.226-.85.112l-.032-.112c.096-.168.225-.209.393-.289v.008Z"/>
  <path class="st10" d="M30.683,92.06c.277.166.737.012.954.289-.172.298-.915.258-1.035-.088l.08-.2h0Z"/>
  <path class="st10" d="M38.582,91.699c-.128.096-.233.152-.393.144l-.048-.104c.071-.293.384-.357.642-.409-.04.176-.024.265-.184.361h-.016v.008Z"/>
  <path class="st1" d="M36.601,39.66c1.371-.096,2.574-.393,3.841-.922.457,1.075.834,2.181,1.227,3.28-1.147-.313-2.334-.609-3.424-1.075-.479,1.862-3.358,3.176-3.657,4.996l.056.056c.329-.2,1.476-1.58,1.981-2.013.625-.558,1.232-1.15,1.796-1.764l.056-.032c.008-.136,0-.265.088-.385h.112c.932.396,1.941.566,2.887.938.023,4.554.446,9.152-.257,13.665-.619.05-1.307.265-1.909.305l-.497.032c-.16.048-.321.096-.473.168-.022-.006-.448-.436-.481-.465-1.155-.604-1.496-2.002-2.125-3.064-4.214-5.801-.995-8.023.746-13.706l.032-.016Z"/>
  <path class="st1" d="M36.601,39.66c1.371-.096,2.574-.393,3.841-.922.457,1.075.834,2.181,1.227,3.28-1.147-.313-2.334-.609-3.424-1.075-.479,1.862-3.358,3.176-3.657,4.996l.056.056c.753-.674,2.163-2.275,3.08-3.039.23,4.428.285,8.885-.008,13.321-1.615-1.558-2.295-4.015-3.561-5.886-1.588-3.923,1.596-7.059,2.43-10.722l.016-.008Z"/>
  <path class="st10" d="M36.641,43.982l.233-.2c.064.353.168.818.048,1.163l-.104.024c-.324-.179-.049-.771-.176-.986Z"/>
  <path class="st16" d="M34.676,47.062c.94-.01,1.018,1.327.241,1.66-.879-.006-.9-1.284-.241-1.652v-.008Z"/>
  <path class="st0" d="M34.684,47.391c.096.016.176.056.265.096.279.25.128.625-.072.874l-.16.024-.104-.088c-.12-.297-.032-.609.064-.906h.008Z"/>
  <path class="st10" d="M36.914,47.471c.496.158.335.815.144,1.163-.47-.219-.319-.801-.144-1.171v.008Z"/>
  <path class="st10" d="M36.794,45.714c.438.124.404.861.369,1.219-.55-.124-.484-.799-.369-1.219Z"/>
  <path class="st10" d="M36.834,52.114c.365.295.311.746.241,1.163-.136-.008-.152-.024-.265-.096-.163-.332-.036-.726.024-1.067Z"/>
  <path class="st10" d="M36.794,53.806c.353.262.295.879.168,1.243-.34-.297-.352-.865-.168-1.251v.008Z"/>
  <path class="st10" d="M36.802,49.027l.168.104c.192.305.128.609.08.946h-.144c0,.008-.088-.08-.088-.08-.088-.305-.04-.658-.016-.97Z"/>
  <path class="st10" d="M36.986,50.735c.238.286.204.748-.048,1.01-.064-.056-.12-.128-.176-.192-.072-.329.064-.545.225-.818h0Z"/>
  <path class="st1" d="M38.454,42.218l.056-.032c.008-.136,0-.265.088-.385h.112c.152.064.329.152.489.176.088.409.297.85.313,1.259-.136.473-.241,1.002,0,1.46.391.756-.327,1.502.217,2.254,0,.008.016.024.024.032-.013.548-.433,1.047-.144,1.644.05.135.164.354.224.489l.104.096v.249c-.176.545-.249,1.035-.112,1.596l-.192.072c.21.839-.667,1.757.048,2.542-.096.377-.289.706-.369,1.099.104.313.217.618.361.914-.056.2-.136.866-.217,1.002l-.497.032c-.16.048-.321.096-.473.168-.182-.163-.506-.52-.73-.626.293-4.436.238-8.893.008-13.321.231-.237.472-.504.698-.738l-.008.016Z"/>
  <path class="st1" d="M38.454,42.218c.497,4.434.283,8.891.08,13.321.056.2.04.682.16.818l.04-.016c.024.12.032.233.04.353.064.016.12.04.176.048-.16.048-.321.096-.473.168-.182-.163-.506-.52-.73-.626.293-4.436.238-8.893.008-13.321.231-.237.472-.504.698-.738v-.008Z"/>
  <path class="st11" d="M37.965,42.731c.388,4.552.281,9.145.016,13.706l-.249-.16c.293-4.436.238-8.893.008-13.321l.217-.225h.008Z"/>
  <path class="st11" d="M38.534,55.49v.048c.056.2.04.682.16.818l.04-.016c.024.12.032.233.04.353.064.016.12.04.176.048-.16.048-.321.096-.473.168l-.072-.064c.04-.449.072-.898.136-1.347l-.008-.008Z"/>
  <path class="st11" d="M38.454,42.218l.056-.032c.008-.136,0-.265.088-.385h.112c.425,4.844.445,9.696.008,14.54l-.04.016c-.122-.149-.114-.646-.144-.866.18-4.405.414-8.865-.088-13.273h.008Z"/>
  <path class="st4" d="M39.825,49.123l.104.096v.249c-.176.545-.249,1.035-.112,1.596l-.192.072c0-.016-.016-.032-.016-.04-.273-.682-.048-1.323.225-1.965l-.008-.008Z"/>
  <path class="st1" d="M41.229,42.587l.377.152c.023,4.554.446,9.152-.257,13.665l-.361.032c.029-3.554.476-7.309.272-10.947.027-.436-.294-2.759-.032-2.903h0Z"/>
  <path class="st4" d="M39.2,41.977c.321.056.585.249.898.305-.048.257-.08.529-.144.786.273.81.401,1.203.12,2.029.312.69.425,1.368.08,2.069.192.457.385.866.217,1.363l-.176-.16c-.072.16-.104.321-.257.409l-.056-.04-.192.128c-.445-.792.012-1.192.048-1.861-.596-.775.17-1.544-.24-2.286-.241-.457-.136-.986,0-1.46-.008-.409-.217-.85-.313-1.259l.016-.024Z"/>
  <path class="st0" d="M39.881,48.722c-.112-.363-.32-1.006.112-1.211.227.15.197.602.209.842-.072.16-.104.321-.257.409l-.056-.04h-.008Z"/>
  <path class="st0" d="M39.625,43.766c.032-.136.024-.241.136-.329.273.298.372.951.184,1.307h-.096c-.088-.096-.152-.176-.217-.289v-.69h-.008Z"/>
  <path class="st0" d="M39.761,45.875c.048-.16.064-.273.192-.393.291.418.296.993,0,1.419-.144-.337-.184-.674-.184-1.027h-.008Z"/>
  <path class="st11" d="M40.755,42.458l.473.128c-.262.13.059,2.483.032,2.903.207,3.638-.25,7.393-.273,10.947l-.417.104c.414-4.665.714-9.418.184-14.083Z"/>
  <path class="st4" d="M39.697,52.266c.048-.16.08-.305.2-.417.219.173.182.513.209.77.024-.257.016-.353.16-.569.104.626-.032,1.115-.281,1.684.241.738.297,1.147-.04,1.869.056.329.128.666.152.994-.168.016-.513.144-.666.112.08-.136.16-.802.217-1.002-.144-.297-.257-.601-.361-.914.08-.393.273-.722.369-1.099-.398-.459-.293-1.07-.16-1.62l.192.2.008-.008Z"/>
  <path class="st0" d="M39.697,52.266c.048-.16.08-.305.2-.417.219.173.182.513.209.77-.08.305-.144.626-.265.914-.016-.016-.032-.032-.04-.056-.265-.361-.176-.802-.112-1.211h.008Z"/>
  <path class="st0" d="M39.753,54.159c.38.321.271.874.072,1.267-.3-.398-.292-.839-.072-1.267h0Z"/>
  <path class="st13" d="M39.881,48.722l.056.04c.152-.088.184-.249.257-.409l.176.16-.257.618c.329.793.407,1.56-.032,2.326.08.184.184.385.2.577-.152.217-.144.313-.16.569-.019-.256.006-.598-.209-.77-.128.112-.152.265-.2.417l-.192-.2c.152-.353.257-.553.112-.922l.192-.072c-.136-.561-.056-1.059.12-1.596v-.249l-.104-.096-.128-.273.192-.128-.024.008Z"/>
  <path class="st0" d="M39.929,49.468c.235.467.349,1.185.056,1.644q-.096.008-.184-.048c-.136-.561-.056-1.059.12-1.596h.008Z"/>
  <path class="st2" d="M51.221,49.243h.128c.65.361,2.085,3.36,2.35,4.21.947,2.762-1.293,4.52-3.401,5.694-.722.786-1.437,1.547-2.478,1.941-.889.465-1.789,1.544-2.863,1.315-.238-1.433,1.634-2.284,2.141-3.344-1.539-.074-2.236,2.068-2.959,3.088-.212.288-.718.516-1.043.281-.409-.666.473-2.221.898-2.783.321-.425,1.291-1.107,1.299-1.628l-.056-.048c-1.534.44-2.462,2.445-2.903,3.833l-.08.064c-.37.045-.723-.183-.802-.553-.401-1.5,1.492-2.711,2.109-3.841l-.064-.184c-1.229.515-2.281,2.063-2.663,3.304-.064.128-.08.12-.208.16-1.096-.388.182-2.044.569-2.638.626-.858,1.636-1.692,2.663-2.013.442-.174.994-.057,1.379-.353.775-1.361,1.886-2.669,3.328-3.376.441-.168,1.532-.168,1.788-.521-.008-.016-.016-.024-.024-.04-1.897-.811-3.665,1.103-4.892,2.318.282-2.445,3.793-3.994,5.79-4.868l-.008-.016Z"/>
  <path class="st1" d="M41.108,38.425c.465-.281.938-.545,1.387-.858,3.73,2.715,6.457,7.283,9.359,10.835-2.757.6-6.291,2.586-7.386,5.309-.369-.409-.577-.914-.914-1.339.371-3.836,1.001-8.414-.008-12.118-.593.715-.135,3.37-.257,4.451-.164,3.887-.428,7.92-1.363,11.685l-.209.072c-.12-.024-.249-.04-.369-.056.71-4.507.267-9.122.257-13.665l.184.016c.192-.064.257-.08.393-.225.265-.834-.674-3.304-1.075-4.106h0Z"/>
  <path class="st11" d="M41.605,42.739l.184.016c.451,4.507.175,9.231-.072,13.706-.12-.024-.249-.04-.369-.056.71-4.507.267-9.122.257-13.665Z"/>
  <path class="st10" d="M44.974,48.874c.016.008.032.016.04.032.276.368-.467.742-.698.946-.104-.096-.104-.104-.128-.249.136-.345.489-.537.778-.738l.008.008Z"/>
  <path class="st10" d="M46.297,47.783c.144,0,.217.008.321.112l-.024.144c-.152.2-.297.305-.505.433-.136-.008-.184-.024-.297-.096l-.016-.12c.12-.209.337-.337.529-.473h-.008Z"/>
  <path class="st10" d="M47.997,46.893l.088.048.032.112c-.128.289-.513.489-.77.642-.064-.048-.08-.072-.128-.136.096-.353.473-.497.778-.666h0Z"/>
  <path class="st10" d="M49.288,46.292c.128.008.2,0,.305.08l-.04.112c-.176.168-.377.225-.601.305-.088,0-.152-.016-.233-.048l.016-.096c.16-.168.353-.249.561-.345l-.008-.008Z"/>
  <path class="st5" d="M24.957,83.671c.69.321,1.568.809,2.342.521-.225,5.006-.696,10.001-1.042,15.005,0,0-.602,8.629-.602,8.629-.223,1.42.103,3.131-.561,4.395-.366.607-1.446.518-1.877.024-.334-2.238.247-4.656.296-6.945.451-6.254.99-15.429,1.452-21.637l-.008.008Z"/>
  <path class="st5" d="M68.696,78.162c.08.016.144.032.225.056.7,6.798,1.12,13.702,1.66,20.546.054,2.208.606,4.531.345,6.704-.364.44-1.116.601-1.596.281-.096.024-.168-.016-.257-.048-.648-.916-.32-2.226-.489-3.296,0,0-.441-5.702-.441-5.702l-1.427-18.213c.345.16,1.556-.217,1.965-.313l.016-.016Z"/>
  <path class="st5" d="M11.628,75.171c.642.297,1.267.786,1.845,1.187-.589,3.206-1.696,14.42-2.19,17.86-.294,2.086-.305,4.266-.786,6.304-.072.12-.136.144-.265.184-2.53,1.22-1.585-2.326-1.46-3.649,0,0,.858-7.514.858-7.514l1.018-9.038c.336-1.739-.139-3.89.986-5.341l-.008.008Z"/>
  <path class="st9" d="M13.825,40.975h.048c-.82,2.203-1.594,4.542-2.189,6.865-.482,1.85-1.441,3.787-1.123,5.726-.553.032-1.083.064-1.596-.16-.994-1.911-.432-4.313-.57-6.4,0-1.283-.144-2.743.08-4.002.183-1.871,3.938-1.79,5.357-2.029h-.008Z"/>
  <path class="st9" d="M14.772,39.475l.024.064-.513.794c-1.977.468-4.745.02-6.087,1.788-.688,1.418-.323,3.126-.377,4.652.016,2.077-.176,4.491.361,6.496-.385-.08-.73-.176-1.083-.345-1.154-.953-.576-2.771-.738-4.09-.04-1.78-.248-5.012.064-6.64.14-.705.572-1.448,1.307-1.636,2.284-.585,4.71-.716,7.049-1.083h-.008Z"/>
  <path class="st13" d="M35.976,98.524c.245.148,1.061.158,1.331.072.77.687,1.244,1.442,1.644,2.358-2.754-.639-5.319.485-7.146,2.518-.257.513-.577,1.01-.85,1.516-.489-.465-.826-1.331-.97-1.981.822-2.584,3.42-4.117,5.967-4.459.008,0,.024-.008.032-.016l-.008-.008Z"/>
  <path class="st2" d="M40.226,105.725c.618.313,1.756-.233,2.719.593,1.053,1.064.643,2.472-.914,2.558.101-1.046-.523-2.197-1.58-2.47l-.072.056c.241.698,1.01,1.018,1.091,1.997.141.746-1.009,1.296-1.484.73.06-.859-.247-1.945-1.131-2.254-.064.457.609,1.179.65,1.788.153.888-.801,1.076-1.411.69.029-.728-.27-2.092-1.155-2.133.105.692,1.635,2.525-.233,2.237-.899-.086-.366-1.841-1.395-1.452.024.361.465.626.441,1.01-.394.252-1.048-.079-1.371-.337.812-1.277,2.626-2.329,4.114-2.622.497-.104,1.307-.128,1.732-.385v-.008Z"/>
  <path class="st13" d="M48.743,96.711c.361.136.794.008,1.179.168.77.313,1.002.978,1.516,1.299.016.016.04.024.056.032-2.45.292-4.821,1.98-5.614,4.451-.018.183-.022.402-.168.521-.473-.176-1.861-.874-2.149-1.243.362-1.81,1.846-3.745,3.505-4.595.507-.237,1.268-.34,1.684-.634h-.008Z"/>
  <path class="st2" d="M43.362,93.488c1.291.465,4.351,1.086,5.654.634-.04.577-.112,1.163-.072,1.74-.209.192-.577.225-.85.305-.433.136-1.395.626-1.732.666-.786.622-1.71,1.672-2.31,2.181-.626-.628-1.005-1.61-1.179-2.47.009-.99.466-2.044.497-3.064l-.008.008Z"/>
  <path class="st13" d="M40.82,100.465c1.387,1.833,3.859,2.733,5.79,3.922,3.103,2.913,8.778,4.452,11.677.521l.048.064c.024.892-.493,1.686-1.219,2.189-4.017,2.639-8.576-.198-11.941-2.574-1.509-1.133-4.753-1.711-4.347-4.114l-.008-.008Z"/>
  <path class="st13" d="M28.926,102.036c.2.176.337,1.219.465,1.54,1.114,1.975,2.069,4.052,4.034,5.333,2.728,1.631,8.366,1.832,10.634-.594-.024.337,0,.874-.2,1.147-1.517,1.976-6.144,1.99-8.412,1.388-3.145-.911-7.126-5.425-6.52-8.814h0Z"/>
  <path class="st13" d="M39.224,103.512c.273.144.89.088,1.219.152,1.035.192,1.636.866,2.205,1.692-2.656-.637-5.4.171-7.635,1.668-.401.459-.859.896-1.219,1.403-.444-.038-.984-.455-1.211-.826,1.165-2.673,3.949-3.699,6.616-4.074.008,0,.024-.008.032-.016h-.008Z"/>
  <path class="st2" d="M27.571,36.949c2.565,1.573,5.406,2.609,8.429,2.671-.521,1.395-1.002,2.831-1.628,4.178-2.162-2.41-4.749-4.351-6.817-6.849h.016Z"/>
  <path class="st11" d="M27.571,36.949c2.334,1.492,4.82,2.278,7.546,2.671-.846,1.09-2.71.47-3.673,1.235-1.387-1.251-2.679-2.462-3.873-3.906h0Z"/>
  <path class="st2" d="M36.505,95.508l.184.072c.152.457.04,1.652.128,2.246-1.747.132-3.569.415-4.996,1.588-.315.192-.802.844-1.131.802-.208-1.503.5-3.064.345-4.619,1.218.5,4.324.506,5.477-.088h-.008Z"/>
  <path class="st2" d="M50.972,98.941c.377.136.802.064,1.195.241.457.2,1.043.706,1.524.754-2.344.806-4.165,1.991-5.293,4.299-.048.225-.104.449-.168.666-.128-.04-1.756-1.355-1.845-1.5.329-1.298,1.116-2.47,2.181-3.28.676-.598,1.614-.781,2.374-1.179.008,0,.016-.016.024-.016l.008.016Z"/>
  <path class="st2" d="M36.898,101.403c.313.128.802.04,1.155.064.97.064,1.596.818,2.205,1.484l-.104.056c-2.46-.388-5.049.875-6.873,2.358-.371.508-.779,1.044-1.083,1.604-2.228-1.905,1.524-4.481,3.216-5.133.449-.168,1.075-.176,1.468-.417.008,0,.016-.016.032-.016h-.016Z"/>
  <path class="st2" d="M56.169,102.478c.377.176.818.064,1.275.345.407.256.631.853.489,1.299-.505-.152-.69-1.043-1.275-1.147l-.088.088c-.096.401.521.609.762,1.163.24.449.099,1.061-.409,1.235-.162-.947-.859-1.864-1.901-1.78.184.369.81.618,1.083.994.629.687.109,1.686-.802,1.564.024-.233.008-.489.008-.722-.14-.527-1.09-1.674-1.684-1.307.337.549,1.348.888,1.243,1.724-.135,1.336-3.066.954-3.753.305.699-2.132,3.038-3.163,5.02-3.713.008,0,.024-.016.032-.016v-.032Z"/>
  <path class="st13" d="M53.884,100.617c.369.184.962-.048,1.379.088.65.22,1.012.876,1.604,1.139-2.433.194-4.571,1.144-6.007,3.24-.136.329-.265.69-.449.994-3.691-.622.471-4.257,2.061-4.948.433-.201.994-.225,1.379-.481.008,0,.024-.016.032-.024v-.008Z"/>
  <path class="st9" d="M8.508,54.336c.545.112,1.075.144,1.628.144-.044,1.288.089,4.258-.04,5.493l-.096.056c-.481.072-.954.16-1.436.257l-.064-5.951h.008Z"/>
  <path class="st6" d="M31.605,50.454c.537-.12.93-.529,1.427-.73.809,1.905,2.405,3.812,3.168,5.71-.714-.401-1.299-.553-2.109-.609-.337-.569-2.438-3.994-2.478-4.363l-.008-.008Z"/>
  <path class="st13" d="M42.151,96.687c.125.714.914,2.574,1.484,2.959-.249.69-.481,1.203-.561,1.957l-.12-.08c-.58-.145-1.289-.864-1.532-1.403-.12-1.307.104-2.286.73-3.432h0Z"/>
  <path class="st12" d="M30.113,47.992c-.564-.794.582-1.216,1.195-1.363.353.497.682,1.051.938,1.596-.112.136-.257.2-.417.273-.337.257-.682.505-1.018.754-.262-.395-.448-.857-.69-1.267l-.008.008Z"/>
  <path class="st2" d="M30.113,47.992c.122-.317.433-.609.794-.561l.04.144c.222.168.545.078.626.433-.184.112-.369.265-.593.233l-.241-.168c-.136.112-.273.2-.433.281l-.192-.345v-.016Z"/>
  <path class="st6" d="M38.221,61.176c.513.16.986.217,1.524.217.176.794.217,1.556.249,2.366-.634-.417-1.195-.986-1.748-1.516l-.016-1.075-.008.008Z"/>
  <path class="st14" d="M31.044,49.7c-.056-.096-.088-.152-.096-.273.427-.308.873-.819,1.436-.802.136.12.136.152.176.321l-.088.112c.093.101.321.247.433.329.048.104.112.217.136.329-.497.2-.89.609-1.427.73l.032-.088.505-.241-.064-.088.08.016c-.273.029-.442.286-.738.2-.079-.143-.277-.429-.377-.561l-.008.016Z"/>
  <path class="st14" d="M31.044,49.7c-.056-.096-.088-.152-.096-.273.427-.308.873-.819,1.436-.802.136.12.136.152.176.321l-.088.112c-.409-.024-1.018.465-1.419.634l-.008.008Z"/>
  <path class="st15" d="M31.044,49.7c.409-.168,1.01-.658,1.419-.634.048.048.104.096.16.136-.425.377-.93.489-1.363.81l-.225-.313h.008Z"/>
  <path class="st16" d="M32.896,49.395c.048.104.112.217.136.329-.497.2-.89.609-1.427.73l.032-.088.505-.241-.064-.088.08.016c-.273.029-.442.286-.738.2.401-.361,1.043-.417,1.484-.866l-.008.008Z"/>
  <path class="st9" d="M41.237,57.038c-.251.537-1.029,1.216-1.179,1.869-.399-.479-.791-1.055-1.187-1.532.794-.064,1.58-.209,2.366-.329v-.008Z"/>
  <path class="st1" d="M43.346,53.983c.507.459,1.086.788,1.796.658-.208.981-1.436.734-2.149,1.139.16-.585.249-1.195.361-1.796h-.008Z"/>
  <path class="st13" d="M30.017,98.788c.136.601-.032,1.411.12,2.173-.088.281-.233.609-.417.842l-.072.056-.08-.048c-.168-.906.088-2.189.449-3.023Z"/>
  <path class="st9" d="M8.805,67.127l.176.064c.2.337.096,2.887.056,3.416-.441-.938-.321-2.47-.233-3.481h0Z"/>
  <path class="st1" d="M12.35,52.499l.064.064c.048.305.112.537-.072.802-.16.056-.257-.016-.409-.064-.16-.117-.33-.279-.217-.481.176-.176.409-.241.634-.321Z"/>
</svg>