<?xml version="1.0" encoding="UTF-8"?>
<svg id="Layer_1" xmlns="http://www.w3.org/2000/svg" version="1.1" viewBox="0 0 80 115">
  <!-- Generator: Adobe Illustrator 29.1.0, SVG Export Plug-In . SVG Version: 2.1.0 Build 142)  -->
  <path d="M35.6,1.6c.4,0,.9,0,1.3,0,.3,0,.7,0,1,0,.3,0,.7,0,1,0,.3,0,.7,0,1,.1.3,0,.7,0,1,.1.3,0,.7.1,1,.2.3,0,.7.1,1,.2s.6.2,1,.3c.3,0,.6.2,1,.3,4.6,1.6,8.8,5.2,10.9,9.6.9,1.8,1.7,5,.9,6.9-.2.6-.5.8-1.1,1.1-.3,1.8-.9,3.5-2.3,4.8-.4,1.8-.8,3.6-1.1,5.4-.5,3.1-.9,6.2-3,8.6-.5.6-1,1-1.6,1.5.7.5,1.5,1.1,2.1,1.7,1.4,1.5,4.6,6.3,5.3,8.3.2.6.1,1.1-.2,1.7,1.1,1.9,2.1,3.6,1.7,5.9.7.3,1.5.7,2.2,1.1l3.8,2c2.7,1.4,5.3,2.8,7.9,4.3,1.2.6,2.5,1.2,3.6,2,.5.4.8.8.8,1.4.1.8-.2,3.5-.4,4.2,0,.3-.2.7-.5,1-.5.6-1.2.8-2,.9,0,1-.2,3.7-.5,4.6-.2.6-.7.7-1.3.9,0,.8.1,1.7.2,2.5l.4,4.6,1.2,12.2.4,4c0,.8.2,1.6.2,2.4,0,.4,0,.9-.3,1.2-.3.4-.7.7-1.2.7-.5,0-1,0-1.4-.3-.4-.3-.6-.8-.7-1.3-.2-.8-.1-1.6-.2-2.4l-.6-5.4-1.8-17.9c-3.1.4-6.4.5-9.4,1,0,.7,0,1.4,0,2.1-.2,1.6-1.8,13.4-2.2,14-.1.2-.4.4-.6.4.2.3.6.6.8.8,1.4,1.4,2.1,1.8,3.7,2.9,1.1.7,2,1.6,2.3,2.9.2.7.1,1.5-.3,2.2-.7,1-2,1.5-3.2,1.7-3.9.8-6.9-.5-10.4-1.9-1.1-.5-2.4-.9-3.4-1.6-.5-.3-.9-.7-1-1.3-.2-1.1.3-4.1.6-5.1.1-.3.3-.6.5-.8-.2-.2-.3-.5-.4-.8-.1-1.2,0-2.6.2-3.8l.6-6.8c.1-1.2.3-2.5.3-3.6-1.2,0-2.5.2-3.8.4-.1,3.2-.5,6.4-.8,9.6-.2,2-.3,4.1-.6,6,0,.3-.1.6-.3.8-.1.2-.4.4-.6.5.3.3.6.5.8.8.7.9,1.5,2.7,2.8,3,.3.6,1.6,1.2,2.1,2.4.4.9.6,2.2.2,3.1-.3.8-1,1.3-1.8,1.7-2.4,1-5.8.6-8.2-.4-2.2-.9-4.1-2.3-5.8-3.8-.4-.4-.9-.8-1.1-1.3-.4-1,0-3.7.4-4.7.2-.5.4-1,.6-1.5-.1,0-.2-.1-.3-.2-.3-.3-.3-.7-.4-1.1,0-1.6.1-3.2.2-4.7l.4-8.8c0,0-.1,0-.2,0-.4.1-2.2.2-2.5,0-.2,1.9-.3,3.7-.4,5.6l-1,13c-.2,2.6-.3,5.3-.7,7.9,0,.3,0,.6-.3.9-.2.4-.6.6-1,.6-.6.1-1.3,0-1.8-.3-.4-.3-.5-.7-.6-1.1,0-.7,0-1.6,0-2.3l.3-4.6,1.1-15.8c0-1.2.4-4.3.3-5.3,0-.2-.1-.2-.3-.3-1-.8-2.1-1.4-3.1-2.1-2.2-1.5-4.5-3.1-6.6-4.7,0,1.2-.3,2.4-.5,3.6-.4,2.7-.8,5.4-1.2,8.1l-1.2,7.7c-.2,1.3-.3,2.7-.6,4,0,.4-.2.7-.5,1-.4.3-.9.4-1.4.4-.4,0-.9-.2-1.2-.5-.3-.4-.3-.8-.3-1.2,0-1,.2-2,.4-2.9.2-1.5.4-3,.6-4.5.8-6,1.7-12,2.3-18-.2-.2-.5-.4-.7-.6-.2-.2-.3-.5-.3-.8-.1-1.1.2-3.6.2-4.8-.5-.3-1-.6-1.4-1-.5-.4-.7-.8-.7-1.4,0-1.1-.2-3.9.5-4.7.5-.5,1.9-.4,2.6-.4,0-1.4.1-2.7,0-4.1-.9-.4-1.9-.7-2.5-1.6-.3-.4-.4-.9-.4-1.4-.1-1.5,0-3.1,0-4.6v-3.4c.1-1,0-2,.3-2.9.1-.6.6-1.2,1.1-1.5,1.3-.7,6.9-.9,8.6-1.1.7,0,1.5,0,2.1-.2.6-.2,1.7-.9,2.3-1.3,1.1-.6,2.3-.9,3.4-1.5.5-.3,1-.8,1.5-1.2-.3-.5-.6-1.1-.9-1.6-.2,0-.4-.2-.6-.3-1.2-.6-1.9-1.7-2.3-3-.7-.5-1.4-1-1.9-1.8-1.1-1.8-1.2-3.8-.8-5.8-.5-1-.7-2.1-.8-3.2-.4-4.5.8-9.5,3.7-13,1.4-1.6,3.4-3.4,5.6-3.9.7-.1,1.5,0,2.1-.2.5-.2,1-.5,1.5-.8,1.5-.7,3.1-1,4.8-1.2ZM36.7,67.2c-.4.5-.9,1.1-1.6,1.2-.2,0-.5,0-.7,0-.5.3-1,.6-1.6.4-.8-.2-1.5-.8-2.2-1.2-.5,0-1.1.1-1.6.1,1.3.9,2.6,1.7,3.9,2.6.7.5,1.4,1,2.2,1.4,1.8,0,3.6-.4,5.3-.6,2.3-.3,4.6-.5,6.9-.8,4.3-.6,8.7-1,13-1.6-1.4-.7-2.8-1.6-4.1-2.4-1.3-.8-2.8-1.5-4.1-2.4-.7,1.1-3.1,3.9-4.3,4.2-.4,0-.6,0-.9-.2,0,0-.1,0-.2-.1-.5.2-1,.3-1.5.1-.2,0-.4-.2-.6-.3-.4,0-.9.2-1.2,0-.3-.2-.5-.4-.8-.5-.7-.3-1.5-.2-1.7-1.2-.2-.8.1-1.8.5-2.5,0-.2.3-.4.3-.6-.9,0-1.9.1-2.8.3.3.7.3,1.4.5,2.2.2.8,1.2,2.7.8,3.4,0,.1-.1.2-.2.2-.7.1-1.5-.5-2-.9l-1.2-.8ZM12.1,57.1c0,1.2,0,2.3,0,3.5.3,0,.7,0,1,0-.3-.6-.4-1.3-.5-2,0-.3,0-1.2-.1-1.4,0,0,0,0-.1,0,0,0-.2,0-.3,0ZM45.5,54.7c-.2,1.2-.4,2.4-.8,3.6l1.9-.2c.2,0,.3,0,.4-.3.2-.2.4-.5.5-.7-1.8-.9-1.1-1-2-2.3Z" fill="#414042"/>
  <path d="M34.2,15.9c.7.7,1.2,1.5,2,2.2.5.4,1.4,1.1,2.1,1,.1,0,.3,0,.4-.2.3-.4,0-1.3,0-1.8.9,1.1,3.2,3,4.6,3.1.2,0,.4,0,.6-.1.5-.5.4-2.5.4-3.1.7.9,2.3,3.4,3.3,3.7.3,0,.5,0,.7-.1.9-.6,1.1-2,1.3-2.9.6,1,.8,2.4,1.4,3.1.2.2.4.4.7.4.5,0,1-.4,1.4-.7-.2,2.8-1,5.6-1.5,8.4-.3,1.8-.5,3.7-1,5.5-.2.8-.5,1.7-.9,2.4-1.6,3.1-4.9,5.1-8,6.1-3.3.8-5.7.2-8.7-1.4-3.2-1.7-6.5-4.4-7.9-7.9-.4-.9-.5-1.8-.8-2.7-1.2,0-2.3-.2-3.1-1.1-1.1-1.1-1.5-2.7-1.5-4.2,0-1,.3-2.1,1-2.8.4-.4,1.1-.7,1.7-.7,1.6,0,1.8,2.4,2.7,3.3,0,0,1.2.6,1.3.6.7-.3.6-2.1,1.1-3,.4-.8.9-1.5,1.4-2.2.5-.7.9-1.5,1.3-2.3,0,.3.1.6.2.9,0,.2.2.5.4.6.1,0,.3,0,.4,0,1.1-.4,2.6-2.9,3.1-4Z" fill="#f4c890"/>
  <path d="M35.5,34.5c.7,0,1.4.9,2,1.3.2,0,.3.2.5.3.2,0,.3.2.5.2.2,0,.3.1.5.2.2,0,.3.1.5.1.7.2,1.5.2,2.2.2.5,0,1.7-.6,2.1-.4,0,.1.1.1.1.3,0,.3-.2.4-.3.6-.4.2-.8.4-1.2.5-2,.4-4.1-.1-5.8-1.2-.5-.3-1.3-.8-1.4-1.4,0-.2,0-.4.2-.6Z" fill="#414042"/>
  <path d="M41.8,29.9c.3,0,.7,0,1,0,.6,0,1.2.2,1.6.7.4.4.6,1,.6,1.7,0,.6-.2,1.2-.7,1.6-.6.6-1.4.7-2.2.7,0,0,0,0-.1,0-.1,0-.3,0-.4-.1-.2-.1-.4-.4-.4-.6.3-.5,1.5-.1,2.1-.4.3-.2.5-.5.6-.8,0,0,0,0,0-.1,0,0,0,0,0-.1,0,0,0,0,0-.1,0,0,0,0,0-.1,0,0,0,0,0-.1,0,0,0,0,0-.1,0,0,0,0,0-.1,0,0,0,0,0-.1-.5-.9-1.3-.5-2.1-.8-.1-.1-.2-.2-.2-.4,0-.2.1-.3.2-.5Z" fill="#414042"/>
  <path d="M35.3,21.5c.8,0,1.7,0,2.5.3.5.1.9.4,1.1.8,0,.2,0,.3,0,.5-.5.4-1.6-.2-2.1-.3-.3,0-.6,0-.9-.1-.5,0-1,0-1.5.2-.5.1-1.3.8-1.8.6-.2,0-.2-.1-.3-.3,0-.3,0-.4.2-.6.6-.7,1.8-1,2.7-1.1Z" fill="#414042"/>
  <path d="M47.6,22.6c.3,0,.7,0,1,0,.8,0,1.8.4,2.3,1.1.2.2.3.5.3.8,0,.1,0,.2-.2.2-.5.2-1.2-.5-1.7-.7-1.2-.4-1.7-.2-2.8,0-.3,0-.6.2-.9,0,0,0-.1-.2-.1-.3,0-.2,0-.4,0-.5.4-.5,1.6-.7,2.2-.7Z" fill="#414042"/>
  <path d="M33.7,26.3c.9,0,1.3,1,2.5.8.4,0,.8-.3,1.2-.4.2,0,.4,0,.6,0,0,.1.1.3.1.4,0,.2-.1.4-.3.5-.5.3-1.1.4-1.7.5-.8,0-1.9-.1-2.6-.7-.1-.1-.2-.3-.3-.5,0-.3.1-.5.3-.7Z" fill="#414042"/>
  <path d="M45.7,27.4c.5,0,.8.5,1.2.7,1,.5,1.5,0,2.4-.2.2,0,.3,0,.5,0,0,.1.2.2.2.4,0,.2-.2.4-.3.6-.7.5-1.6.6-2.4.5-.6-.1-1.5-.5-1.9-1,0-.1-.1-.3,0-.5,0-.2.2-.4.4-.5Z" fill="#414042"/>
  <path d="M21.2,23.8c.1,0,.2,0,.3,0,.5,0,.8.2,1.2.5.7.7,1.2,2.2,1.2,3.2,0,.3,0,.4-.3.6-.1,0-.2,0-.3-.1-.3-.3-.4-2.3-1.4-3.3-.4,0-.6,0-.9-.1,0-.1-.1-.1,0-.3,0-.1.2-.2.3-.3Z" fill="#414042"/>
  <path d="M35.4,2.6c1.9-.3,5.3.2,7.2.7,4.6,1.1,9,4.2,11.4,8.2,1.1,1.9,2,4,1.8,6.3,0,.4,0,.8-.1,1.1,0,.2-.1.3-.3.4-.1,0-.3,0-.4,0-.2,0-.3.2-.3.3-.1.3-.1.8-.2,1.1-.2,1-.5,1.8-1,2.7.2-.9.3-1.8.3-2.6,0-.6,0-1.3.2-1.9.1-.5.5-1.4.3-1.8,0-.2-.2-.2-.3-.3-.7.2-.5,2.5-2.3,3.5-.3-.7-.6-1.5-.9-2.3-.3-.7-1-2-1.7-2.2-.2,0-.2,0-.4,0-.4.6-.3,1.7-.4,2.4,0,.4-.2,1.1-.5,1.3-1.1.2-2.7-3.9-4.2-4.2-1,.3,0,3-.6,3.7,0,0,0,0-.1,0-.7,0-2.4-1.4-2.9-1.9-.7-.7-1.3-1.9-2-2.4h-.2c-.4.9-.1,2.2,0,3.1-1-.5-1.8-1.4-2.5-2.3-.3-.5-.7-.9-1.1-1.2-.2,0-.4.5-.5.7-.6,1.3-1.3,2.7-2.5,3.6h0c0-.6,0-1.6-.4-2.2-.1-.2-.2-.2-.3-.2,0,0-.2,0-.2,0-.5.4-1,2.1-1.3,2.7-.7,1.3-1.7,2.3-2.3,3.6-.3.7-.5,1.4-.6,2.1-.9-.9-1.1-2.1-1.9-3-.4-.4-.9-.8-1.5-.8-1.3,0-2.3.8-3.2,1.6-.5-1.6-.5-3.4-.4-5,.3-4.1,1.9-8.3,5.1-10.9,1.7-1.4,3.1-2.1,5.4-1.9,2-1.2,3.7-1.9,6-2.1Z" fill="#b97e2b"/>
  <path d="M23.8,38.5h0c.2.3.2,1.7.2,2.2,0,.5.2.9.3,1.4.3,1.3,1.9,5.7,3.1,6.4.3.2.6,0,.8-.2.4-.3.8-.8,1.2-1.1.8-.6,2.1-.9,3-1.2.8.8,1.6,1.4,2.4,2.2,0,1-.4,5-.2,5.5,0,.2.2.3.3.3,0,0,.1,0,.2,0,.2-.1.2-.3.3-.5.2-.9.1-3.5.2-4.6.4-.4.8-.7,1.2-1.1,1-.9,1.9-2.1,2.3-3.5,1.2-.2,2.5-.4,3.6-.9.2,1.3.3,2.5.4,3.8-.3-.1-.5-.3-.8-.4-1-.5-2.2-.7-3.3-.3-.6.3-1.4.9-1.7,1.5,0,.2,0,.3,0,.5.1.1.2.2.4.2.4-.2.7-.7,1.1-1,1.2-.9,2.3-.5,3.5,0,.4.2.7.4,1.1.4.2,0,.2,0,.3-.1.4-.9,0-4.1-.2-5.1,1-.4,1.9-1,2.8-1.6.9.4,1.7,1,2.4,1.8,1.7,1.7,4.2,5.7,5.1,7.9-.4,0-.7,0-1.1,0-2.6.3-4.7,1.9-6.2,3.9-.4-.6-.7-1.2-1-1.8.3-1.6.5-3.3.4-5,0-.3,0-.5-.3-.8-.2,0-.2,0-.3,0-.3.4-.2,1.9-.2,2.5-.3,2.8-.8,5.5-1.5,8.3-2.6.3-5.1.6-7.7.8-.5-.9-.9-1.8-1.4-2.6-.8-1.5-1.6-2.9-2.3-4.3-.5-.8-1-1.9-1.6-2.6-.3-.3-.7-.4-1-.6-.2,0-.3.1-.5.2-.8.4-1.2.9-1.4,1.8.3,1.2,1.6,3.1,2.2,4.2.8,1.3,1.5,2.7,2.2,4.1-1,.1-4.4.3-5.3.1-.7-.1-2.6-1.3-3.5-1.6-.3-.1-.9-.3-1-.5,0,0,0,0,0,0,0,0,0,0,0,0,0,0,0,0,0,0,0,0,0,0,0,0,0,0,0,0,0,0,0,0,0,0,0,0,0,0,0,0,0,0s0,0,0,0c.1-.3.6-.5.9-.6.5-1.8.8-5.5.7-7.3,0-.4,0-.9-.3-1.1-.2,0-.2,0-.3,0-.1.1-.2.2-.2.4,0,.6,0,1.2,0,1.8,0,1.8-.2,3.6-.6,5.3,0-.2-.2-.3-.3-.5-.7-.9-2.4-1.4-3.5-1.5-2-.3-4.4,0-6.2,1.1.3-2.7.7-5.3,1.8-7.8,2-4.6,4.9-6.3,9.4-8.1Z" fill="#414d56"/>
  <path d="M37,49.9c.1,0,.2,0,.4,0,.3,0,.5.3.6.5.1.2.1.5,0,.7-.1.3-.3.4-.6.5,0,0,0,0-.1,0-.3,0-.5-.1-.7-.4-.2-.2-.2-.4-.1-.7,0-.4.3-.6.7-.8Z" fill="#414042"/>
  <path d="M8.5,68.8c.8.3,3.2,2.1,4.1,2.7l11.7,7.9c.7.4,1.3.7,2.1.7.9,0,1.9-.1,2.8-.2l4.7-.5,14.2-1.5c5.2-.5,10.4-1,15.6-1.6,2.4-.3,5.2-.4,7.6-.9-.1,1,0,3.5-.5,4.2-.3.2-.5.3-.8.3-4.3.6-8.7,1-13.1,1.4-6.2.7-12.5,1.4-18.7,2l-8,.8c-1.4.2-3.2.5-4.6.4-.6,0-1.2-.2-1.6-.5-1.1-.7-2.2-1.5-3.3-2.3-2-1.4-4-2.8-6-4.2l-4-2.8c-.7-.5-1.6-1-2.1-1.6-.4-.4,0-3.7,0-4.5Z" fill="#d5bc2a"/>
  <path d="M25,80.5c0,0,.1,0,.2,0,.2,0,.3.1.4.3,0,.7,0,2.7-.2,3.3,0,0-.2,0-.3,0-.1,0-.1,0-.2-.2,0-.9,0-2.6.2-3.4Z" fill="#5c3603"/>
  <path d="M6.6,62.9c1.1.6,2.4,1.6,3.6,2.3,3.2,2,6.4,4,9.5,6,1.6,1.1,4.3,3.1,6.1,3.6.7.2,1.5.3,2.3.3,2.1,0,4.2-.4,6.2-.6l14.7-1.5,15-1.6c2.8-.3,5.6-.5,8.4-.9.6,0,1.1-.3,1.6-.5,0,1-.1,2.8-.5,3.6,0,0,0,0,0,0,0,0,0,0-.1.1,0,0,0,0-.1.1,0,0,0,0-.1.1,0,0-.1,0-.2,0,0,0-.1,0-.2,0s-.1,0-.2,0-.1,0-.2,0c0,0-.1,0-.2,0-1,.2-2.1.3-3.2.4-2.1.2-4.1.5-6.2.7l-15.2,1.6-13.5,1.4c-2.3.2-5,.6-7.3.7-.7,0-1.1,0-1.7-.3-1-.6-2-1.3-3-2l-5.4-3.7-6.4-4.4c-1.1-.7-2.4-1.5-3.4-2.4-.4-.4-.2-2.8-.2-3.5Z" fill="#add1d6"/>
  <path d="M25.6,75.5s.1,0,.1,0c.2,0,.2.2.3.3.2.6,0,2-.3,2.5h-.2c-.1-.2-.1-.3-.2-.5,0-.6,0-2,.3-2.5Z" fill="#5c3603"/>
  <path d="M56.3,59.2c.6.3,1.1.6,1.7.9,1.6.8,3.2,1.7,4.7,2.5,2.3,1.2,4.6,2.4,6.8,3.7,1.2.6,2.4,1.3,3.6,1.9.2.1.5.3.6.5,0,.2,0,.2,0,.4-.2.3-.6.4-1,.5-1.5.4-3.3.4-4.9.6l-9.6,1-20.2,2-5.7.5c-1.4.1-2.7.3-4.1.4-.6,0-1.4,0-1.9,0-1.6-.4-3-1.5-4.3-2.4l-3.6-2.3c-1.9-1.2-3.9-2.5-5.8-3.7-1.7-1-3.4-2-5-3.1-.3-.2-.6-.4-.7-.7.7-.3,5.4-.4,6.5-.4h0c1.7,2.2,3.8,3.1,6.4,3.8,1,.3,2.1.6,3.1.8.8.2,1.9.2,2.7.5.7.3,1.3.8,1.9,1.3,1.2.8,6.6,4.8,7.6,4.9,1.3.1,4.1-.4,5.5-.6,4.9-.5,9.8-1.1,14.7-1.8,1.8-.2,3.7-.4,5.5-.7.3,0,.6-.1.8-.3,0,0,.1-.2.1-.3,0-.2-.2-.4-.3-.5-.6-.5-1.4-.9-2.1-1.3-1.6-.9-3.2-1.9-4.8-2.8-.6-.4-1.5-.8-2-1.3,0-.2,0-.3.1-.5.2-.3.7-.5,1-.7,1.2-.7,2.1-1.5,2.8-2.8Z" fill="#add1d6"/>
  <path d="M55.9,82.4h.2s0,0,0,0c0,.2,0,.4,0,.7,0,2.1-.6,4.9-.9,7-.2,1.6-.5,3.3-.8,4.9-.1.8-.2,1.6-.4,2.4,0,.2,0,.4-.2.5-1.1,1-4.4,1.2-5.8,1.1-.7,0-2.1-.2-2.6-.7,0,0,0,0-.1,0-.3,0-.8-.5-1-.8,0-1.2.1-2.5.2-3.8l.5-5.5c.1-1.6.3-3.2.3-4.7,1.1,0,2.3-.2,3.4-.3,2.3-.3,4.6-.5,7-.7Z" fill="#b97e2b"/>
  <path d="M39.3,84.2c.2,0,.4,0,.6,0,0,.1,0,.2,0,.4,0,3.2-.5,6.4-.8,9.5-.2,1.6-.2,3.9-.5,5.5,0,.2,0,.3-.2.5-1.1.9-3.2,1-4.5.9-.8,0-2.8-.3-3.3-.9,0,0,0,0-.1,0-.4,0-1-.5-1.2-.7,0,0-.2-.2-.2-.4-.2-1.3,0-3.6.2-5,.2-2.9.3-5.9.4-8.8.3,0,8.8-.8,9.7-.9Z" fill="#b97e2b"/>
  <path d="M16.4,54.1c1.6-.2,3.7.1,5,1.1,0,.6,0,1.2,0,1.7-.7-.2-1.7-.4-2.3-.2-.2,0-.2,0-.3.2,0,0,0,.1,0,.2,0,0,.1.2.2.2.2.2,2.7.7,3.3.9,1.5.5,3,1.3,4.4,2.1.7.4,1.4.8,2.1,1.2,1.8-.8,4.1-2.1,6.1-1.3,1.3.5,2.5,1.9,3,3.1.2.4.4,1,.2,1.5,0,.2-.1.2-.3.2-.4-.1-1-1.4-1.3-1.8-.2-.2-.3-.4-.5-.6-.2-.2-.4-.4-.6-.6-.3-.2-.8-.6-1.1-.5-.2,0-.2,0-.3.2.1.4,1,.8,1.3,1.1.6.6,1.5,1.7,1.5,2.6,0,.3-.1.5-.3.8,0,0,0,0-.2,0-.3-.5-.5-1-.8-1.4-.3-.4-.7-.8-1.2-1.2-.3-.3-.8-.7-1.2-.6-.1,0-.2,0-.2.3,0,.4.8.7,1.1,1,.6.6,1.6,1.6,1.6,2.4,0,.1,0,.3-.1.4-.2.2-.5.2-.7.2-.2,0-.9-1.1-1.1-1.4-.4-.4-1.3-1.4-1.9-1.4-.1,0-.1,0-.2.2,0,0,0,.2,0,.2,0,.2,1.8,1.6,2.1,2.1.1.2.2.3.1.5-.1.1-.2.2-.4.2-.6.1-1.9-.9-2.4-1.3-.2,0-.4,0-.5.1-1.2.2-2.1.1-3.1-.6-.4-.2-.7-.5-1.1-.6-.8-.2-1.7-.3-2.5-.4-2.4-.4-5.7-1.2-7.7-2.6-1.2-.9-2-2.1-2.3-3.6-.1-.7-.3-3.5.1-4.1.4-.6,2-.6,2.7-.7Z" fill="#f4c890"/>
  <path d="M41.3,67.8s0,0,0,0c0,0,0,0,0,0,0,0,0,0,0,0,0,0,0,0,0,0,0,0,0,0,0,0,0,0,0,0,0,0,0,0,0,0,0,0,0,0,0,0,0,0,0,0,0,0,0,0,0,0,0,0,0,0,0,0,0,0,0,0,0,0,0,0,0,0,0,0,0,0,0,0,0,0,0,0,0,0,0,0,0,0,0,0,0,0,0,0,0,0,0,0,0,0,0,0,0,0,0,0,0,0,0,0,0,0,0,0s0,0,0,0c0,0,0,0,0,0,0,0,0,0,0,0,0,0,0,0,0,0,0,0,0,0,0,0,0,0,0,0,0,0,0,0,0,0,0,0,0,0,0,0,0,0,0,0,0,0,0,0,0,0,0,0,0,0,0,0,0,0,0,0,0,0,0,0,0,0,0,0,0,0,0,0,0,0,0,0,0,0,0,0,0,0,0,0,0,0,0,0,0,0,0,0,0,0,0,0,0,0,0,0,0,0,0,0,0,0,0,0,0,0,0,0,0,0,0,0,0,0,0,0,0,0,0,0,0,0,0,0,0,0,0,0,0,0,0,0,0,0,0,0,0,0,0,0,0,0,0,0,0,0,0,0,0,0,0,0s0,0,0,0c0,0,0,0,0,0,0,0,0,0,0,0,0,0,0,0,0,0,0,0,0,0,0,0,0,0,0,0,0,0,0,0,0,0,0,0,0,0,0,0,0,0,0,0,0,0,0,0,0,0,0,0,0,0,0,0,0,0,0,0,0,0,0,0,0,0,0,0,0,0,0,0,0,0,0,0,0,0,0,0,0,0,0,0,0,0,0,0,0,0,0,0,0,0,0,0,0,0,0,0,0,0,0,0,0,0,0,0,0,0,0,0,0,0,0,0,0,0,0,0,0,0,0,0,0,0,0,0,0,0,0,0,0,0,0,0,0,0,0,0,0,0,0,0,0,0,0,0,0,0,0,0,0,0,0,0,0,0,0,0,0,0,0,0,0,0,0,0,0,0,0,0,0,0,0,0,0,0,0,0,0,0,0,0,0,0,0,0,0,0,0,0,0,0,0,0,0,0,0,0,0,0,0,0,0,0,0,0,0,0,0,0,0,0,0,0s0,0,0,0c0,0,0,0,0,0,0,0,0,0,0,0s0,0,0,0c0,0,0,0,0,0Z" fill="#5c3603"/>
  <path d="M38.1,70.1s0,0,0,0c0,0,0,0,0,0,0,0,0,0,0,0,0,0,0,0,0,0,0,0,0,0,0,0,0,0,0,0,0,0s0,0,0,0c0,0,0,0,0,0,0,0,0,0,0,0,0,0,0,0,0,0,0,0,0,0,0,0,0,0,0,0,0,0s0,0,0,0c0,0,0,0,0,0,0,0,0,0,0,0,0,0,0,0,0,0,0,0,0,0,0,0,0,0,0,0,0,0,0,0,0,0,0,0,0,0,0,0,0,0,0,0,0,0,0,0,0,0,0,0,0,0,0,0,0,0,0,0s0,0,0,0c0,0,0,0,0,0s0,0,0,0c0,0,0,0,0,0s0,0,0,0c0,0,0,0,0,0,0,0,0,0,0,0,0,0,0,0,0,0,0,0,0,0,0,0,0,0,0,0,0,0,0,0,0,0,0,0,0,0,0,0,0,0,0,0,0,0,0,0,0,0,0,0,0,0,0,0,0,0,0,0,0,0,0,0,0,0,0,0,0,0,0,0,0,0,0,0,0,0,0,0,0,0,0,0,0,0,0,0,0,0s0,0,0,0c0,0,0,0,0,0,0,0,0,0,0,0,0,0,0,0,0,0,0,0,0,0,0,0,0,0,0,0,0,0,0,0,0,0,0,0,0,0,0,0,0,0,0,0,0,0,0,0,0,0,0,0,0,0,0,0,0,0,0,0,0,0,0,0,0,0,0,0,0,0,0,0Z" fill="#5c3603"/>
  <path d="M50.4,67s0,0,0,0c0,0,0,0,0,0,0,0,0,0,0,0,0,0,0,0,0,0,0,0,0,0,0,0,0,0,0,0,0,0s0,0,0,0c0,0,0,0,0,0s0,0,0,0c0,0,0,0,0,0,0,0,0,0,0,0,0,0,0,0,0,0,0,0,0,0,0,0,0,0,0,0,0,0,0,0,0,0,0,0,0,0,0,0,0,0s0,0,0,0c0,0,0,0,0,0,0,0,0,0,0,0,0,0,0,0,0,0,0,0,0,0,0,0,0,0,0,0,0,0,0,0,0,0,0,0s0,0,0,0c0,0,0,0,0,0,0,0,0,0,0,0,0,0,0,0,0,0,0,0,0,0,0,0,0,0,0,0,0,0,0,0,0,0,0,0,0,0,0,0,0,0s0,0,0,0c0,0,0,0,0,0,0,0,0,0,0,0,0,0,0,0,0,0,0,0,0,0,0,0,0,0,0,0,0,0,0,0,0,0,0,0,0,0,0,0,0,0,0,0,0,0,0,0,0,0,0,0,0,0,0,0,0,0,0,0,0,0,0,0,0,0,0,0,0,0,0,0,0,0,0,0,0,0,0,0,0,0,0,0,0,0,0,0,0,0,0,0,0,0,0,0,0,0,0,0,0,0,0,0,0,0,0,0,0,0,0,0,0,0,0,0,0,0,0,0,0,0,0,0,0,0s0,0,0,0c0,0,0,0,0,0,0,0,0,0,0,0Z" fill="#5c3603"/>
  <path d="M42.5,69.4s0,0,0,0c0,0,0,0,0,0s0,0,0,0c0,0,0,0,0,0s0,0,0,0c0,0,0,0,0,0,0,0,0,0,0,0,0,0,0,0,0,0s0,0,0,0c0,0,0,0,0,0,0,0,0,0,0,0,0,0,0,0,0,0s0,0,0,0c0,0,0,0,0,0,0,0,0,0,0,0,0,0,0,0,0,0,0,0,0,0,0,0,0,0,0,0,0,0,0,0,0,0,0,0,0,0,0,0,0,0,0,0,0,0,0,0,0,0,0,0,0,0,0,0,0,0,0,0,0,0,0,0,0,0,0,0,0,0,0,0,0,0,0,0,0,0,0,0,0,0,0,0,0,0,0,0,0,0,0,0,0,0,0,0,0,0,0,0,0,0,0,0,0,0,0,0s0,0,0,0,0,0,0,0c0,0,0,0,0,0,0,0,0,0,0,0,0,0,0,0,0,0,0,0,0,0,0,0,0,0,0,0,0,0,0,0,0,0,0,0,0,0,0,0,0,0,0,0,0,0,0,0,0,0,0,0,0,0,0,0,0,0,0,0,0,0,0,0,0,0,0,0,0,0,0,0s0,0,0,0c0,0,0,0,0,0,0,0,0,0,0,0,0,0,0,0,0,0,0,0,0,0,0,0,0,0,0,0,0,0,0,0,0,0,0,0,0,0,0,0,0,0,0,0,0,0,0,0,0,0,0,0,0,0s0,0,0,0Z" fill="#5c3603"/>
  <path d="M36.4,69s0,0,0,0c0,0,0,0,0,0,0,0,0,0,0,0,0,0,0,0,0,0,0,0,0,0,0,0,0,0,0,0,0,0,0,0,0,0,0,0,0,0,0,0,0,0s0,0,0,0c0,0,0,0,0,0,0,0,0,0,0,0,0,0,0,0,0,0,0,0,0,0,0,0,0,0,0,0,0,0,0,0,0,0,0,0,0,0,0,0,0,0s0,0,0,0c0,0,0,0,0,0,0,0,0,0,0,0,0,0,0,0,0,0,0,0,0,0,0,0,0,0,0,0,0,0,0,0,0,0,0,0,0,0,0,0,0,0,0,0,0,0,0,0,0,0,0,0,0,0,0,0,0,0,0,0,0,0,0,0,0,0,0,0,0,0,0,0,0,0,0,0,0,0,0,0,0,0,0,0,0,0,0,0,0,0,0,0,0,0,0,0,0,0,0,0,0,0,0,0,0,0,0,0,0,0,0,0,0,0,0,0,0,0,0,0,0,0,0,0,0,0s0,0,0,0c0,0,0,0,0,0,0,0,0,0,0,0,0,0,0,0,0,0,0,0,0,0,0,0,0,0,0,0,0,0,0,0,0,0,0,0,0,0,0,0,0,0,0,0,0,0,0,0,0,0,0,0,0,0,0,0,0,0,0,0,0,0,0,0,0,0s0,0,0,0c0,0,0,0,0,0,0,0,0,0,0,0,0,0,0,0,0,0,0,0,0,0,0,0,0,0,0,0,0,0Z" fill="#5c3603"/>
  <path d="M48.7,68.8s0,0,0,0c0,0,0,0,0,0,0,0,0,0,0,0,0,0,0,0,0,0s0,0,0,0c0,0,0,0,0,0,0,0,0,0,0,0,0,0,0,0,0,0,0,0,0,0,0,0,0,0,0,0,0,0,0,0,0,0,0,0,0,0,0,0,0,0,0,0,0,0,0,0,0,0,0,0,0,0,0,0,0,0,0,0,0,0,0,0,0,0,0,0,0,0,0,0,0,0,0,0,0,0,0,0,0,0,0,0,0,0,0,0,0,0,0,0,0,0,0,0,0,0,0,0,0,0s0,0,0,0c0,0,0,0,0,0,0,0,0,0,0,0,0,0,0,0,0,0,0,0,0,0,0,0,0,0,0,0,0,0,0,0,0,0,0,0,0,0,0,0,0,0,0,0,0,0,0,0,0,0,0,0,0,0,0,0,0,0,0,0,0,0,0,0,0,0,0,0,0,0,0,0,0,0,0,0,0,0,0,0,0,0,0,0,0,0,0,0,0,0,0,0,0,0,0,0,0,0,0,0,0,0,0,0,0,0,0,0s0,0,0,0c0,0,0,0,0,0,0,0,0,0,0,0,0,0,0,0,0,0,0,0,0,0,0,0,0,0,0,0,0,0,0,0,0,0,0,0,0,0,0,0,0,0,0,0,0,0,0,0,0,0,0,0,0,0,0,0,0,0,0,0,0,0,0,0,0,0,0,0,0,0,0,0,0,0,0,0,0,0,0,0,0,0,0,0Z" fill="#5c3603"/>
  <path d="M52.2,68.1s0,0,0,0c0,0,0,0,0,0,0,0,0,0,0,0,0,0,0,0,0,0,0,0,0,0,0,0,0,0,0,0,0,0,0,0,0,0,0,0,0,0,0,0,0,0,0,0,0,0,0,0,0,0,0,0,0,0,0,0,0,0,0,0,0,0,0,0,0,0,0,0,0,0,0,0,0,0,0,0,0,0,0,0,0,0,0,0s0,0,0,0c0,0,0,0,0,0,0,0,0,0,0,0,0,0,0,0,0,0,0,0,0,0,0,0s0,0,0,0c0,0,0,0,0,0s0,0,0,0c0,0,0,0,0,0,0,0,0,0,0,0,0,0,0,0,0,0s0,0,0,0c0,0,0,0,0,0,0,0,0,0,0,0,0,0,0,0,0,0,0,0,0,0,0,0,0,0,0,0,0,0,0,0,0,0,0,0,0,0,0,0,0,0,0,0,0,0,0,0,0,0,0,0,0,0,0,0,0,0,0,0,0,0,0,0,0,0,0,0,0,0,0,0,0,0,0,0,0,0,0,0,0,0,0,0,0,0,0,0,0,0,0,0,0,0,0,0,0,0,0,0,0,0,0,0,0,0,0,0,0,0,0,0,0,0,0,0,0,0,0,0,0,0,0,0,0,0,0,0,0,0,0,0,0,0,0,0,0,0,0,0,0,0,0,0,0,0,0,0,0,0,0,0,0,0,0,0,0,0,0,0,0,0s0,0,0,0c0,0,0,0,0,0,0,0,0,0,0,0,0,0,0,0,0,0,0,0,0,0,0,0,0,0,0,0,0,0s0,0,0,0c0,0,0,0,0,0,0,0,0,0,0,0,0,0,0,0,0,0Z" fill="#5c3603"/>
  <path d="M45.3,69.2s0,0,0,0,0,0,0,0c0,0,0,0,0,0,0,0,0,0,0,0,0,0,0,0,0,0,0,0,0,0,0,0,0,0,0,0,0,0,0,0,0,0,0,0,0,0,0,0,0,0,0,0,0,0,0,0,0,0,0,0,0,0,0,0,0,0,0,0,0,0,0,0,0,0,0,0,0,0,0,0,0,0,0,0,0,0,0,0,0,0,0,0,0,0,0,0,0,0,0,0,0,0,0,0,0,0,0,0,0,0,0,0,0,0,0,0,0,0,0,0,0,0,0,0,0,0,0,0,0,0,0,0,0,0,0,0,0,0,0,0,0,0,0,0,0,0,0,0,0,0,0,0,0,0,0,0,0,0,0,0,0,0,0,0,0,0,0,0,0,0,0,0,0,0,0,0,0,0,0,0,0,0,0,0,0,0,0,0,0,0,0,0,0,0,0,0,0,0,0,0,0,0,0,0,0,0,0,0,0,0,0,0,0,0,0,0,0,0s0,0,0,0c0,0,0,0,0,0,0,0,0,0,0,0,0,0,0,0,0,0,0,0,0,0,0,0,0,0,0,0,0,0,0,0,0,0,0,0,0,0,0,0,0,0,0,0,0,0,0,0,0,0,0,0,0,0,0,0,0,0,0,0,0,0,0,0,0,0,0,0,0,0,0,0,0,0,0,0,0,0,0,0,0,0,0,0,0,0,0,0,0,0,0,0,0,0,0,0,0,0,0,0,0,0,0,0,0,0,0,0Z" fill="#5c3603"/>
  <path d="M53,51.9c.2,0,.3,0,.5,0,.2.1.2.3.3.5,1,1.7,2.3,3.8,1.7,5.9-.6,1.9-2.3,2.9-3.9,3.7,0,.6-.1,1.1-.4,1.6-.4.8-2.6,3.4-3.5,3.6-.2,0-.2,0-.4,0-.4-.9,1.6-2.2,1.8-3.1,0-.2,0-.2,0-.3,0,0-.2,0-.3,0-.6,0-1.9,2.5-2.4,3-.2.3-.4.4-.8.5-.1,0-.2,0-.3-.1-.8-.9,2.1-3.2,2.1-4,0-.1-.1-.1-.3-.2-.7.1-1.9,1.9-2.3,2.6-.2.4-.4,1.1-.8,1.4,0,0,0,0,0,0,0,0-.1,0-.2,0-.2,0-.4,0-.6-.2-.8-1.1,2.2-3.6,2.3-4.4,0-.1,0-.1,0-.2,0,0-.2,0-.3,0-.8.2-1.9,1.8-2.3,2.5-.3.5-.4,1.1-.7,1.7,0,0-.1,0-.2,0-.2-.1-.3-.3-.4-.5-.4-1.8,2.1-4.3,3.4-5.2.5-.3,1.1-.5,1.6-.8.5-.4,1-1.1,1.4-1.7.4-.5.9-1.1,1.3-1.5.2-.2.5-.5.8-.7.3-.2.8-.4,1-.7,0,0,0,0,0,0,0-.2,0-.2-.1-.3,0,0-.2,0-.3,0-.8,0-2.1,1.4-2.6,2-.3-.3-.6-.6-.8-.9h0c1.3-1.9,3.3-3.3,5.5-3.7Z" fill="#f4c890"/>
  <path d="M29.5,100.6c.3.1,1.2,2,3,2.6.2,0,.3.1.5.1.2,0,.4,0,.6-.1.4-.3.5-.9,1-1.2.9-.5,2.8-.2,3.4-.5.3.4.7.9,1.1,1.3-.3.2-1.8.2-2.7.6-.5.2-1.2.6-1.4,1.1,0,.2,0,.2.2.3.7.2,1.9-.8,2.7-1,.4,0,1.3-.3,1.6,0,.2.2.3.4.4.7,0,.2-.4.2-.6.2-.8.1-1.4.4-2.1.8-.3.2-.8.4-.9.8,0,0,0,0,0,0,.1.1.4.1.6.1.3,0,.6,0,.9-.3,1,0,1.7-1.1,3.2-.5.8.3,2,1.2,2.4,2,.2.4.3.9.1,1.3-.2.5-.8.8-1.3,1-2.2.8-4.8.4-6.9-.5-1.3-.6-6.2-3.6-6.7-4.8,0-1.3.3-2.5.8-3.6Z" fill="#5aba47"/>
  <path d="M44.7,99.1s0,0,0,0c0,0,0,0,0,0,.7.3,1,1.1,1.7,1.4.6.3,2.6.9,3.2.7.4-.3.5-1,.6-1.5,0,0,0,0,.1,0,.6,0,2.8-.3,3.2-.7.1.3.7.9.9,1-.3.2-.6.2-.9.3-.7.2-1.8.6-2.2,1.2,0,.1-.2.3-.1.5,0,.2.1.2.3.3.5,0,.9-.6,1.3-.9.8-.5,1.7-.4,2.5-.7.2.3.5.6.7.7-.5.4-1.7.4-2.6,1.2-.2.2-.5.5-.5.8,0,.2,0,.2.3.2.5,0,1-.5,1.4-.9,0,0,0,0,0,0,.4,0,1.1-.5,1.9-.4,1.1,0,2.3.8,3,1.6.3.3.5.7.5,1.2,0,.3-.2.5-.4.6-1.2,1-4.1,1.2-5.7,1-1.4-.2-9.3-3.3-10-4.2,0-1.2,0-2.7.7-3.8Z" fill="#5aba47"/>
  <path d="M22.9,84.7c.3.2.7.4,1,.5.3.1.8.3,1.1.2-.1,3.3-.5,6.6-.7,9.9l-.9,11.8c-.1,1.5-.2,3-.4,4.5,0,.2,0,.4-.1.6,0,0,0,.2-.1.2-.2.2-.5.2-.7.2-.2,0-.6,0-.7-.3-.2-.3-.2-.7-.2-1.1,0-1.7.2-3.5.4-5.2l.6-8.9c.2-2.5.4-5,.5-7.6,0-1.7.1-3.4.3-5Z" fill="#e6e7e8"/>
  <path d="M69.3,81h0c0,0,0,.1,0,.2l1.5,15.5.6,6.1c.1,1.1.3,2.3.3,3.5,0,.3,0,.8-.2,1-.2.2-.5.3-.7.3-.3,0-.4,0-.6-.2-.2-.2-.2-.5-.2-.7-.4-2.6-.6-5.3-.8-7.9-.6-5.8-1.2-11.7-1.8-17.5.6-.1,1.2-.2,1.8-.2Z" fill="#e6e7e8"/>
  <path d="M14.9,43c.1,0,.2,0,.3,0h0c-.2.5-.5.8-.7,1.2-.3.5-.6,1.1-.8,1.7-1.2,2.5-2.7,7.9-1.8,10.6-.7,0-1.4-.1-2.1-.3-.2,0-.4-.2-.6-.3-.3-.2-.4-.6-.4-.9,0-.8,0-1.7,0-2.5l.2-4.3c0-1.1,0-2.4.2-3.6,0-.3.2-.5.3-.7.7-.8,4.3-.7,5.4-.8Z" fill="#add1d6"/>
  <path d="M9.4,75.1c.6.4,1.2.9,1.8,1.3-.4,2.1-.6,4.2-.9,6.3l-2.1,13.8c-.1.7-.3,3.3-.6,3.8,0,0,0,.2-.1.3-.1.1-.3.2-.5.2-.3,0-.6,0-.8-.3-.1-.3,0-.6,0-.9.1-1.2.3-2.3.5-3.5l1.2-8.4c.6-4.2,1-8.4,1.7-12.6Z" fill="#e6e7e8"/>
  <path d="M25.9,37.1c1.2.7,2.1,3.7,3,5,.8,1.2,1.9,2.2,2.9,3.2-.8.2-1.6.5-2.4.9-.6.4-1.1.8-1.5,1.4-.3-.3-.5-.7-.7-1.1-1.1-1.8-2.8-6.5-2.2-8.5.1-.4.6-.6.9-.8Z" fill="#414d56"/>
  <path d="M16.8,41.2h0s0,0,0,0c-.3.3-.6.5-.9.8-1,0-1.9.1-2.9.2-.9,0-2,0-2.9.3-.4.1-.8.3-1.1.6-.3.3-.5.7-.6,1.2-.3,1.3-.2,3-.3,4.3-.1,2.2-.3,4.5-.3,6.7-.2-.1-.4-.2-.6-.4-.3-.4-.4-.7-.5-1.2-.1-1.6,0-3.2,0-4.8,0-1.6,0-3.7.2-5.3,0-.4.1-.7.4-1.1,0,0,0,0,0,0,0,0,0,0,0,0,0,0,0,0,.1,0,0,0,0,0,.1,0,0,0,0,0,.1,0,0,0,0,0,.1,0,0,0,0,0,.1,0,0,0,0,0,.1,0,1-.3,2.2-.3,3.2-.4l5.2-.4Z" fill="#add1d6"/>
  <path d="M28.7,39.9c.5.3,1,.8,1.6,1.2,2.4,1.6,5.2,3,8.2,3.1-.3.8-.8,1.5-1.3,2.1-.4.5-.9.9-1.4,1.2-2.1-2-6.2-4.9-7-7.6Z" fill="#f4c890"/>
  <path d="M45,59c.2,0,.2,0,.4,0,0,.1,0,.2,0,.3-.4.3-.8.6-1.2.9-.6.5-1.2,1-1.7,1.5-1.4.2-2.8.3-4.1.5-.2-.2-.4-.5-.6-.8-.4-.5-.9-1-1.4-1.4,1.1,0,2.1-.2,3.2-.3,1.8-.2,3.7-.4,5.5-.6Z" fill="#add1d6"/>
  <path d="M43.7,103.7s0,0,0,0c1.2,1,7.9,3.6,9.6,4,.3,0,.5.1.8.1.3,0,.5,0,.8,0,.3,0,.5,0,.8,0,.3,0,.5,0,.8,0,1.2-.1,3.2-.5,3.9-1.5,0,.2-.2.7-.4.9,0,.1-.1.2-.2.3-1.3,1.1-3.8,1.3-5.5,1.2-.9,0-1.7-.3-2.5-.5-1.2-.4-7.5-2.8-8.1-3.6-.2-.2,0-.6,0-.8Z" fill="#5f533c"/>
  <path d="M28.5,105.4c.6.3,1,.9,1.5,1.3,1.8,1.4,3.9,2.8,6.2,3.6,1.9.6,4.4.8,6.3,0,.5-.2.8-.5,1.2-.7h0c0,.3,0,.4-.2.5,0,.2-.1.3-.3.4-.9.9-2.8,1-4,1-1.2,0-2.5-.2-3.6-.6-2.2-.7-4.9-2.5-6.5-4.2-.4-.4-.7-.7-.7-1.3Z" fill="#5f533c"/>
  <path d="M32,53.6c.4.3,2.8,5.2,3.2,6-.3-.1-.7-.2-1-.3-.3,0-.6,0-.9,0-.2-.6-.6-1.1-.9-1.6-.6-1.1-1.2-2.1-1.8-3.2l1.4-.8Z" fill="#d60000"/>
  <path d="M9.7,57c.5,0,1.1.1,1.6.2,0,1.2-.1,2.3-.2,3.5h-1.5c0-1.2,0-2.4.1-3.7Z" fill="#e6e7e8"/>
  <path d="M29.3,50.2c.2,0,.4,0,.5,0,.5.2.8.9,1,1.3l-.9.5-.5.3c-.2-.4-.7-1-.6-1.5,0-.3.3-.4.5-.6Z" fill="#de7934"/>
  <path d="M31.1,52.1c.2.1.5.7.6.9-.5.3-.9.6-1.4.9-.2-.3-.4-.7-.6-1,.5-.2.9-.5,1.4-.8Z" fill="#d60000"/>
  <path d="M31,101.1s0,0,0,0c.5.2,2.2.6,2.7.4,0,.2-.2.4-.4.6,0,.2,0,.3-.2.4-.1,0-.3,0-.4,0-.6-.2-1.5-.8-1.8-1.4Z" fill="#5f533c"/>
  <path d="M46.9,99.6c.7.2,1.9,0,2.5.3,0,.1,0,.2,0,.3,0,0,0,0-.2.1-.6,0-1.6,0-2.1-.5-.2-.1-.1-.2-.2-.4Z" fill="#5f533c"/>
  <path d="M22.5,31.7c.4,0,.7,0,1,0,0,.5.2,1.1.3,1.6,0,0,0,0,0,0-.6-.2-1-1-1.3-1.6Z" fill="#b97e2b"/>
  <path d="M38.3,65.9c0,.3.3.6.3.9,0,.2,0,.2,0,.3-.2,0-.3,0-.5-.1-.2-.1-.5-.3-.6-.4,0-.1,0-.1,0-.3.2-.2.5-.3.7-.4Z" fill="#b97e2b"/>
</svg>