<?xml version="1.0" encoding="UTF-8"?>
<svg id="Layer_1" xmlns="http://www.w3.org/2000/svg" width="80" height="115" version="1.1" viewBox="0 0 80 115">
  <!-- Generator: Adobe Illustrator 29.4.0, SVG Export Plug-In . SVG Version: 2.1.0 Build 152)  -->
  <defs>
    <style>
      .st0 {
        fill: #5f533c;
      }

      .st1 {
        fill: #d60000;
      }

      .st2 {
        fill: #414042;
      }

      .st3 {
        fill: #f4c890;
      }

      .st4 {
        fill: #677d80;
      }

      .st5 {
        fill: #5aba47;
      }

      .st6 {
        fill: #636363;
      }

      .st7 {
        fill: #1a373a;
      }

      .st8 {
        fill: #fff;
      }

      .st9 {
        fill: #30666b;
      }

      .st10 {
        fill: #add1d6;
      }

      .st11 {
        fill: #7a6c18;
      }

      .st12 {
        fill: #add1d6;
      }

      .st13 {
        fill: #d5bc2a;
      }

      .st14 {
        fill: #de7934;
      }

      .st15 {
        fill: #e6e7e8;
      }

      .st16 {
        fill: #b97e2b;
      }
    </style>
  </defs>
  <rect class="st8" x="26.406" y="62.228" width="34.752" height="10.718"/>
  <path class="st2" d="M35.592,1.556c.4-.078.905-.052,1.313-.052.339,0,.67,0,1.009.017.339.017.67.035,1.009.061.331.026.67.061,1,.104s.67.087,1,.148c.331.052.661.122.992.191.331.07.652.148.983.226s.652.174.974.27.644.2.957.313c4.558,1.635,8.803,5.158,10.882,9.577.861,1.827,1.661,4.949.922,6.915-.209.565-.513.835-1.053,1.079-.252,1.801-.905,3.514-2.288,4.758-.4,1.792-.757,3.592-1.07,5.393-.522,3.062-.948,6.193-3.044,8.646-.47.548-1.044,1.044-1.566,1.548.748.47,1.514,1.087,2.114,1.731,1.435,1.548,4.645,6.289,5.35,8.324.217.635.122,1.061-.157,1.653,1.122,1.931,2.079,3.627,1.661,5.95.739.278,1.461.722,2.166,1.096l3.775,2.001c2.653,1.383,5.289,2.801,7.907,4.254,1.174.644,2.496,1.226,3.558,2.035.505.383.765.757.844,1.392.104.818-.148,3.453-.357,4.236-.096.348-.226.67-.452.948-.496.609-1.209.809-1.948.896-.061,1.026-.165,3.714-.513,4.567-.235.574-.748.713-1.27.931.026.835.148,1.687.226,2.523l.444,4.619,1.183,12.213.409,4.019c.078.774.2,1.583.191,2.357,0,.435-.052.852-.313,1.218-.278.391-.739.652-1.209.731s-.974,0-1.357-.287c-.4-.304-.583-.783-.678-1.261-.148-.765-.148-1.574-.226-2.349l-.565-5.436-1.809-17.884c-3.079.426-6.367.513-9.394,1.018.017.705.026,1.418-.043,2.122-.157,1.635-1.792,13.439-2.192,13.987-.148.209-.357.374-.609.426.2.287.574.574.835.826,1.418,1.357,2.079,1.827,3.732,2.853,1.131.705,1.992,1.566,2.288,2.905.165.748.122,1.54-.304,2.192-.678,1.035-2.018,1.505-3.175,1.748-3.879.835-6.889-.496-10.395-1.94-1.113-.461-2.418-.887-3.427-1.557-.461-.304-.887-.713-1-1.279-.217-1.087.261-4.08.644-5.149.104-.296.278-.557.452-.826-.2-.235-.322-.461-.357-.774-.148-1.2.087-2.583.2-3.784l.583-6.767c.104-1.192.296-2.453.261-3.645-1.253.078-2.514.217-3.749.391-.113,3.184-.505,6.385-.8,9.551-.191,1.992-.252,4.062-.583,6.028-.052.296-.113.574-.278.826-.148.235-.357.426-.635.487.287.261.565.505.809.818.713.922,1.548,2.697,2.749,2.992.331.609,1.601,1.218,2.131,2.418.409.922.574,2.166.2,3.123-.313.8-1.018,1.331-1.783,1.653-2.444,1.018-5.767.6-8.15-.383-2.157-.887-4.062-2.253-5.767-3.819-.391-.357-.948-.783-1.148-1.287-.391-.992.061-3.662.391-4.723.165-.531.4-1,.626-1.514-.122-.035-.226-.113-.304-.2-.296-.313-.348-.731-.374-1.139-.096-1.548.122-3.192.2-4.749l.444-8.811c-.052.035-.104.061-.165.087-.444.148-2.175.226-2.549.07-.183,1.861-.278,3.749-.418,5.61l-.957,12.995c-.191,2.618-.278,5.306-.652,7.907-.043.322-.096.635-.278.913-.235.348-.591.557-1,.635-.557.104-1.322,0-1.783-.339-.357-.261-.539-.67-.591-1.105-.087-.731.043-1.566.087-2.305l.322-4.567,1.053-15.788c.078-1.218.409-4.332.252-5.271-.026-.165-.148-.244-.27-.339-.966-.765-2.079-1.427-3.097-2.14-2.227-1.54-4.454-3.097-6.637-4.706-.096,1.2-.348,2.418-.522,3.61-.374,2.688-.774,5.376-1.192,8.055l-1.166,7.681c-.2,1.322-.304,2.697-.591,4.001-.078.365-.191.748-.478,1.009-.374.339-.87.4-1.348.374-.452-.026-.905-.174-1.2-.531-.304-.365-.348-.783-.331-1.235.026-.983.226-1.975.365-2.949.217-1.496.426-2.992.626-4.488.809-5.976,1.714-11.969,2.34-17.971-.226-.209-.487-.4-.696-.626-.2-.217-.296-.496-.331-.792-.148-1.105.174-3.575.244-4.802-.478-.313-.983-.618-1.427-.992-.461-.383-.652-.765-.696-1.366-.078-1.061-.174-3.871.531-4.654.487-.539,1.914-.409,2.601-.444.035-1.357.122-2.714.078-4.071-.922-.365-1.914-.67-2.479-1.548-.278-.418-.357-.922-.4-1.418-.13-1.487.026-3.062.061-4.558l.104-3.366c.026-.957-.026-1.983.191-2.914.139-.6.574-1.166,1.122-1.461,1.279-.678,6.907-.922,8.646-1.061.67-.052,1.461-.035,2.096-.209.618-.165,1.67-.931,2.314-1.261,1.079-.557,2.305-.913,3.349-1.531.548-.322.992-.818,1.548-1.166-.339-.513-.609-1.07-.931-1.592-.209-.078-.409-.157-.6-.261-1.209-.635-1.922-1.705-2.305-2.984-.739-.505-1.366-1.044-1.853-1.801-1.139-1.757-1.235-3.793-.826-5.776-.539-1.044-.731-2.096-.844-3.253-.418-4.488.783-9.464,3.706-12.961,1.374-1.644,3.401-3.445,5.567-3.888.705-.148,1.461,0,2.14-.244.522-.183.992-.531,1.505-.748,1.505-.67,3.114-1.009,4.749-1.157h-.052ZM36.706,67.151c-.426.531-.913,1.096-1.635,1.174-.235.026-.478,0-.713,0-.522.339-.974.557-1.609.435-.8-.157-1.522-.757-2.209-1.157-.539.061-1.087.113-1.627.148,1.322.852,2.627,1.722,3.923,2.61.696.47,1.418,1.026,2.166,1.4,1.766-.061,3.575-.348,5.332-.557,2.305-.27,4.619-.487,6.915-.809,4.341-.583,8.707-1.026,13.048-1.609-1.409-.687-2.766-1.583-4.132-2.366-1.348-.774-2.801-1.487-4.088-2.357-.67,1.105-3.053,3.906-4.288,4.21-.357.087-.591-.052-.879-.235-.07-.043-.13-.087-.191-.122-.513.209-.974.331-1.505.104-.2-.087-.391-.226-.565-.348-.365.096-.905.244-1.253.035-.278-.165-.522-.409-.826-.548-.661-.313-1.47-.165-1.722-1.2-.2-.826.122-1.774.478-2.514.087-.183.27-.435.304-.626-.939.052-1.922.122-2.844.296.27.713.331,1.427.522,2.157.209.792,1.174,2.67.844,3.392-.061.139-.122.165-.244.244-.687.122-1.479-.548-2.009-.922l-1.166-.826-.026-.009ZM12.046,57.13c0,1.174-.035,2.331-.07,3.505.339-.017.687-.035,1.035-.043-.278-.609-.4-1.313-.461-1.983-.026-.27-.035-1.183-.122-1.366-.009-.026-.087-.07-.104-.078-.078-.026-.191-.035-.278-.043v.009ZM45.474,54.738c-.244,1.174-.444,2.427-.809,3.566l1.931-.244c.2-.026.278-.096.4-.252.183-.235.357-.487.522-.739-1.774-.861-1.131-1.026-2.035-2.331h-.009Z"/>
  <path class="st3" d="M34.175,15.926c.705.696,1.244,1.514,2.009,2.166.47.4,1.418,1.122,2.088,1.044.148-.017.27-.078.357-.2.331-.452.087-1.287,0-1.792.939,1.07,3.184,2.992,4.636,3.131.2.017.409,0,.557-.148.505-.47.357-2.479.357-3.123.661.905,2.314,3.445,3.34,3.679.261.061.513.009.739-.13.852-.565,1.079-2.009,1.27-2.931.626.983.844,2.366,1.374,3.088.165.226.4.4.687.426.548.052,1.009-.383,1.383-.713-.157,2.827-.957,5.619-1.487,8.394-.348,1.809-.531,3.679-.992,5.463-.217.826-.505,1.661-.896,2.418-1.566,3.062-4.854,5.054-8.029,6.089-3.305.8-5.732.226-8.707-1.348-3.245-1.722-6.506-4.436-7.942-7.898-.365-.896-.496-1.792-.774-2.705-1.209-.026-2.253-.226-3.14-1.122-1.087-1.105-1.548-2.67-1.522-4.193.017-.983.287-2.07,1.018-2.766.444-.418,1.113-.739,1.731-.713,1.566.07,1.827,2.349,2.74,3.288.096.096,1.2.618,1.331.618.748-.287.635-2.105,1.07-2.992.383-.774.931-1.453,1.418-2.166.505-.748.913-1.531,1.287-2.349.087.304.148.626.235.931.061.217.183.487.4.591.13.061.27.043.409,0,1.139-.418,2.583-2.923,3.053-4.01v-.026Z"/>
  <path class="st2" d="M35.471,34.454c.67.009,1.418.948,2.009,1.313.157.096.313.183.47.261.165.078.322.157.496.226.165.07.339.13.505.191.174.052.348.104.522.148.705.174,1.487.235,2.218.165.531-.052,1.679-.565,2.105-.409.087.113.122.148.13.296,0,.261-.157.435-.322.618-.357.217-.757.365-1.166.452-2.001.418-4.097-.139-5.784-1.244-.478-.313-1.27-.835-1.366-1.453-.035-.235.061-.383.191-.565h-.009Z"/>
  <path class="st2" d="M41.768,29.852c.331-.026.661-.052.983-.043.609,0,1.2.244,1.627.678.426.444.644,1.044.626,1.653-.009.609-.244,1.183-.696,1.601-.626.583-1.374.678-2.192.652-.052,0-.096-.017-.139-.026-.122-.026-.261-.043-.365-.104-.191-.113-.357-.4-.4-.609.27-.513,1.461-.104,2.079-.435.313-.174.548-.452.635-.809.009-.043.017-.078.026-.122,0-.043.009-.087.017-.122v-.13c0-.043,0-.087-.009-.13,0-.043-.009-.087-.026-.122-.009-.043-.017-.078-.035-.122s-.026-.078-.043-.122c-.017-.035-.035-.078-.061-.113-.505-.87-1.313-.539-2.088-.757-.104-.122-.174-.183-.174-.357,0-.191.113-.331.226-.47l.009.009Z"/>
  <path class="st2" d="M35.279,21.45c.826-.061,1.731.009,2.523.261.452.139.922.374,1.131.826.087.191.087.296.009.487-.539.391-1.557-.165-2.14-.313-.27-.07-.574-.078-.861-.104-.531,0-1.035.043-1.548.174-.522.139-1.296.757-1.809.626-.165-.043-.2-.113-.278-.252-.017-.261.07-.435.235-.635.6-.731,1.844-.983,2.731-1.079l.009.009Z"/>
  <path class="st2" d="M47.596,22.624c.322-.035.661-.017.983.009.8.078,1.766.426,2.279,1.07.191.244.304.487.278.809-.078.122-.096.157-.226.209-.487.165-1.244-.47-1.687-.67-1.183-.391-1.714-.244-2.836.087-.322.096-.609.183-.922.017-.061-.078-.113-.157-.139-.261-.043-.174-.017-.4.096-.539.409-.522,1.583-.678,2.183-.739l-.009.009Z"/>
  <path class="st2" d="M33.653,26.295c.922.087,1.331,1.009,2.549.844.426-.061.8-.278,1.218-.365.226-.043.365-.052.557.078.096.148.113.252.113.426,0,.244-.104.357-.278.522-.531.304-1.087.435-1.696.478-.835.052-1.931-.13-2.557-.731-.148-.139-.244-.304-.252-.513,0-.339.122-.513.348-.739h0Z"/>
  <path class="st2" d="M45.639,27.347c.452.096.835.496,1.244.705.957.505,1.487.035,2.409-.244.191-.061.339-.043.513.052.096.122.157.217.165.374,0,.244-.157.426-.304.6-.731.513-1.557.644-2.436.496-.635-.113-1.548-.461-1.914-1.026-.087-.139-.139-.304-.087-.47.07-.226.209-.365.409-.478v-.009Z"/>
  <path class="st2" d="M21.214,23.842c.113,0,.226,0,.348-.009.487,0,.826.183,1.157.522.705.705,1.192,2.166,1.174,3.158,0,.27-.096.383-.278.565-.113-.026-.226-.061-.313-.139-.331-.296-.365-2.34-1.427-3.305-.357.009-.583.017-.913-.148-.096-.13-.113-.13-.096-.304.096-.148.2-.226.348-.331v-.009Z"/>
  <path class="st16" d="M35.401,2.6c1.914-.313,5.35.183,7.237.652,4.575,1.148,8.977,4.167,11.412,8.246,1.148,1.922,1.966,4.036,1.844,6.306-.017.365-.035.783-.13,1.139-.052.2-.104.27-.278.374-.13-.017-.278-.043-.409-.017-.174.035-.278.183-.339.348-.122.339-.148.748-.209,1.105-.183.966-.522,1.818-1.026,2.662.2-.861.27-1.757.322-2.644.035-.626,0-1.331.183-1.94.148-.478.539-1.357.278-1.835-.087-.157-.183-.235-.348-.287-.713.2-.531,2.462-2.27,3.471-.348-.731-.548-1.531-.861-2.27-.278-.661-.983-1.992-1.687-2.218-.157-.052-.226,0-.348.078-.409.574-.27,1.731-.391,2.444-.07.426-.157,1.079-.531,1.348-1.131.157-2.697-3.897-4.184-4.193-.983.261-.096,2.957-.626,3.671-.052.009-.061.017-.113.017-.696,0-2.366-1.366-2.888-1.853-.687-.678-1.287-1.879-2.018-2.375l-.2.07c-.418.87-.104,2.105-.087,3.044-1.044-.539-1.774-1.418-2.479-2.331-.348-.452-.67-.913-1.148-1.235-.244.035-.418.487-.531.705-.644,1.27-1.322,2.74-2.479,3.636l-.07.052c-.07-.635-.07-1.696-.383-2.262-.104-.183-.157-.191-.348-.244-.087.017-.157.026-.235.087-.478.348-.983,2.07-1.296,2.679-.652,1.279-1.696,2.305-2.305,3.61-.322.687-.461,1.383-.583,2.122-.861-.861-1.113-2.096-1.931-2.984-.409-.444-.922-.765-1.54-.783-1.313-.043-2.27.792-3.166,1.635-.461-1.574-.487-3.418-.357-5.045.322-4.062,1.931-8.255,5.097-10.943,1.67-1.418,3.149-2.088,5.376-1.905,1.983-1.174,3.723-1.879,6.028-2.131l.017-.009Z"/>
  <path class="st9" d="M23.78,38.516l.07.017c.183.287.157,1.679.226,2.157.061.47.183.948.296,1.409.339,1.331,1.94,5.732,3.105,6.367.304.165.6,0,.844-.191.426-.348.783-.774,1.218-1.105.809-.626,2.07-.896,3.027-1.226.774.757,1.635,1.453,2.444,2.166.026.992-.409,5.002-.191,5.489.07.165.165.27.331.339.061-.017.13-.017.183-.061.157-.139.235-.322.287-.531.209-.87.148-3.532.217-4.645.365-.4.818-.731,1.218-1.096.983-.905,1.922-2.149,2.27-3.453,1.244-.2,2.47-.383,3.627-.887.226,1.27.339,2.514.374,3.801-.252-.13-.513-.261-.774-.374-1.044-.452-2.244-.705-3.331-.261-.635.261-1.418.861-1.67,1.522-.07.191-.052.296.026.47.139.113.209.148.383.174.383-.174.713-.739,1.079-1.009,1.166-.879,2.322-.487,3.523.087.357.174.739.391,1.139.435.165.017.183,0,.313-.104.452-.887.07-4.106-.235-5.097,1.009-.435,1.905-.974,2.801-1.601.905.435,1.67,1.044,2.366,1.766,1.653,1.705,4.193,5.706,5.071,7.889-.365.017-.739.026-1.105.07-2.601.322-4.688,1.922-6.245,3.949-.383-.548-.687-1.166-.992-1.766.322-1.583.522-3.34.4-4.949-.026-.304-.07-.548-.313-.757-.183-.052-.174-.043-.331.026-.278.391-.2,1.931-.235,2.47-.27,2.792-.844,5.532-1.461,8.263-2.557.252-5.106.591-7.663.844-.505-.852-.948-1.766-1.409-2.644-.765-1.453-1.548-2.897-2.349-4.332-.47-.844-.948-1.914-1.618-2.618-.287-.296-.67-.418-1.044-.557-.165.07-.322.148-.478.226-.792.435-1.157.905-1.418,1.766.331,1.174,1.592,3.079,2.235,4.184.792,1.34,1.54,2.697,2.244,4.08-1.044.113-4.393.331-5.332.148-.713-.139-2.636-1.261-3.471-1.618-.252-.113-.913-.261-1.053-.487,0-.017-.017-.026-.026-.043,0-.017-.017-.026-.017-.043s-.009-.035-.017-.043v-.209c0-.017,0-.035.009-.043.113-.331.6-.496.887-.635.452-1.809.765-5.454.713-7.333-.009-.391-.026-.861-.331-1.148-.157-.052-.174-.07-.348-.035-.139.148-.157.226-.183.426-.061.583-.017,1.183-.052,1.766-.096,1.774-.235,3.549-.557,5.306-.087-.165-.174-.331-.287-.478-.678-.922-2.392-1.357-3.488-1.54-2.035-.331-4.445-.087-6.15,1.139.331-2.662.739-5.306,1.818-7.776,2.001-4.619,4.871-6.289,9.42-8.098l.009.043Z"/>
  <path class="st7" d="M36.941,49.859c.122.009.244.026.365.07.261.096.452.27.565.522.104.235.104.496,0,.731-.13.313-.348.418-.644.531h-.122c-.287-.035-.539-.148-.713-.383-.157-.2-.191-.444-.139-.696.087-.409.348-.574.678-.774h.009Z"/>
  <path class="st13" d="M8.471,68.795c.818.322,3.218,2.122,4.088,2.714l11.691,7.916c.652.435,1.322.661,2.114.661.913,0,1.853-.139,2.766-.235l4.654-.478,14.17-1.47c5.21-.505,10.421-1.044,15.631-1.618,2.409-.261,5.21-.409,7.55-.87-.104.974-.061,3.453-.548,4.175-.27.165-.487.261-.809.304-4.341.591-8.716.966-13.074,1.435-6.245.696-12.482,1.366-18.736,2.001l-7.985.844c-1.4.157-3.175.496-4.558.444-.565-.017-1.148-.226-1.635-.513-1.139-.678-2.227-1.548-3.314-2.314-1.992-1.383-3.975-2.775-5.95-4.175l-3.958-2.757c-.67-.47-1.574-.966-2.122-1.574-.383-.426,0-3.697.026-4.48v-.009Z"/>
  <path class="st11" d="M24.963,80.477c.052,0,.104.017.148.026.183.043.278.113.374.27.061.678.009,2.688-.209,3.262-.096.017-.2.035-.296.017-.13-.035-.139-.07-.209-.174-.07-.852-.017-2.575.183-3.392l.009-.009Z"/>
  <path class="st10" d="M6.583,62.88c1.122.6,2.436,1.583,3.558,2.279,3.201,1.975,6.385,3.984,9.533,6.037,1.618,1.053,4.297,3.071,6.054,3.592.739.217,1.487.304,2.253.27,2.07-.087,4.167-.409,6.237-.6l14.735-1.479,15.005-1.548c2.775-.287,5.61-.461,8.368-.887.591-.087,1.087-.252,1.609-.531-.07.974-.139,2.81-.531,3.627-.026.035-.052.061-.087.096-.043.043-.087.087-.13.122-.043.043-.087.078-.139.113-.043.035-.096.07-.148.104-.052.035-.104.061-.157.096-.052.026-.104.052-.157.078s-.113.043-.165.07-.113.035-.174.052c-.061.017-.113.026-.174.043-1.044.2-2.131.287-3.184.409-2.07.235-4.149.461-6.219.67l-15.17,1.592-13.535,1.392c-2.322.235-5.002.609-7.307.687-.687.026-1.053-.017-1.67-.339-1.035-.548-2.009-1.322-2.984-1.983l-5.436-3.688-6.437-4.358c-1.087-.739-2.427-1.487-3.349-2.427-.435-.435-.209-2.818-.191-3.505l-.009.017Z"/>
  <path class="st4" d="M25.537,75.484c.052.017.104.026.148.052.157.078.209.165.252.331.157.618.061,2.001-.287,2.54l-.226-.087c-.104-.113-.139-.209-.157-.365-.061-.548-.07-2.044.27-2.462v-.009Z"/>
  <path class="st12" d="M56.242,59.209c.574.27,1.131.6,1.696.896,1.583.826,3.166,1.661,4.732,2.505,2.279,1.209,4.558,2.436,6.811,3.688,1.183.644,2.409,1.253,3.558,1.94.191.113.531.331.644.539.078.148.07.226.017.374-.252.252-.626.374-.966.452-1.514.357-3.288.418-4.854.583l-9.638,1.009-20.154,2.044-5.741.548c-1.348.139-2.705.304-4.062.391-.583.035-1.348.061-1.922-.078-1.566-.4-3.001-1.522-4.332-2.383l-3.61-2.349c-1.931-1.235-3.871-2.462-5.819-3.662-1.67-1.026-3.392-2.044-5.01-3.131-.278-.183-.6-.391-.67-.739.696-.348,5.384-.418,6.454-.435l.043.052c1.67,2.149,3.827,3.001,6.367,3.74,1.035.304,2.062.583,3.123.792.809.157,1.914.157,2.653.478.652.287,1.296.844,1.888,1.253,1.209.835,6.611,4.749,7.55,4.854,1.253.139,4.123-.409,5.48-.557,4.915-.548,9.82-1.139,14.726-1.774,1.818-.235,3.688-.374,5.497-.678.261-.043.618-.113.818-.287.096-.087.139-.174.13-.304-.017-.174-.148-.357-.278-.461-.583-.505-1.435-.879-2.105-1.27-1.601-.939-3.201-1.879-4.81-2.792-.635-.365-1.54-.765-2.044-1.279,0-.174,0-.348.113-.487.217-.27.652-.487.948-.67,1.174-.739,2.114-1.54,2.775-2.783l-.009-.017Z"/>
  <path class="st16" d="M55.903,82.391l.2-.017.087.07c.07.209.07.435.07.652-.017,2.096-.583,4.88-.896,7.002-.235,1.627-.487,3.253-.757,4.88-.122.783-.191,1.601-.365,2.375-.043.209-.07.383-.235.531-1.07,1.018-4.41,1.183-5.828,1.105-.696-.043-2.105-.174-2.566-.696h-.113c-.348-.07-.792-.505-.966-.8,0-1.244.139-2.505.252-3.749l.496-5.515c.148-1.583.331-3.158.331-4.741,1.105-.026,2.253-.226,3.349-.348,2.314-.27,4.636-.513,6.95-.748h-.009Z"/>
  <path class="st16" d="M39.289,84.139c.209-.017.418-.017.626-.026v.357c-.078,3.166-.496,6.393-.792,9.551-.148,1.627-.209,3.914-.513,5.454-.035.191-.096.339-.252.478-1.053.922-3.166.966-4.506.861-.765-.061-2.844-.322-3.305-.861-.061.017-.07.026-.139.017-.374-.043-.966-.461-1.226-.731-.096-.096-.2-.226-.217-.365-.183-1.287.096-3.619.174-5.01.165-2.931.296-5.863.4-8.794.304.096,8.751-.818,9.742-.913l.009-.017Z"/>
  <path class="st3" d="M16.395,54.129c1.627-.165,3.679.148,5.002,1.139.043.583,0,1.166-.043,1.748-.652-.148-1.67-.409-2.322-.235-.165.043-.217.078-.296.217,0,.061,0,.122.035.174.035.061.113.174.165.217.226.183,2.714.731,3.279.939,1.531.548,3.001,1.331,4.419,2.122.696.391,1.374.818,2.096,1.157,1.827-.792,4.097-2.07,6.098-1.296,1.287.496,2.496,1.87,3.053,3.131.183.409.357,1.035.148,1.47-.078.157-.122.183-.287.226-.409-.122-.992-1.435-1.287-1.835-.165-.226-.348-.435-.539-.635s-.4-.391-.618-.565c-.252-.209-.792-.6-1.148-.531-.165.035-.217.096-.304.235.113.435.983.809,1.331,1.148.652.635,1.54,1.687,1.531,2.636,0,.296-.104.548-.322.748-.087.078-.087.096-.2.087-.252-.505-.478-.957-.818-1.418-.348-.452-.739-.844-1.166-1.209-.331-.278-.757-.661-1.218-.626-.148.096-.165.087-.226.261.096.418.765.696,1.079.983.609.557,1.609,1.592,1.609,2.444,0,.148-.035.261-.139.365-.174.157-.461.217-.678.209-.165,0-.931-1.122-1.139-1.348-.409-.444-1.331-1.374-1.94-1.4-.104.043-.148.061-.191.174-.009.035-.035.2-.026.226.061.183,1.809,1.574,2.14,2.088.104.165.157.296.113.496-.113.13-.183.183-.365.209-.609.104-1.931-.939-2.418-1.279-.174.035-.357.07-.531.104-1.235.217-2.062.113-3.088-.609-.357-.252-.678-.461-1.105-.574-.809-.217-1.696-.287-2.523-.444-2.383-.444-5.732-1.183-7.715-2.592-1.235-.879-2.027-2.062-2.279-3.558-.122-.748-.313-3.505.139-4.08.435-.565,2.018-.626,2.705-.705l-.009-.017Z"/>
  <path class="st6" d="M41.281,67.812h.191s.009,0,.017.009c0,0,.009,0,.017.009,0,0,.009,0,.017.009,0,0,.009,0,.017.009,0,0,.009,0,.017.009,0,0,.009,0,.017.017,0,0,0,.009.009.017,0,0,0,.009.009.017s0,.009.009.017c0,0,0,.009.009.017,0,0,0,.009.009.017,0,0,0,.009.009.017v.348s0,.009-.009.017c0,0,0,.009-.009.017,0,0,0,.009-.009.017s0,.009-.009.017c0,0,0,.009-.009.017,0,0,0,.009-.009.017,0,0-.009.009-.017.009,0,0-.009,0-.017.009,0,0-.009,0-.017.009,0,0-.009,0-.017.009,0,0-.009,0-.017.009,0,0-.009,0-.017.009h-.261c-.017,0-.035,0-.052-.017-.017,0-.035-.009-.043-.017-.017,0-.026-.017-.043-.026s-.026-.017-.043-.035l-.035-.035c-.009-.009-.017-.026-.026-.043s-.017-.026-.026-.043c0-.017-.017-.035-.017-.043,0-.017-.009-.035-.009-.052v-.157c0-.017,0-.035.017-.052,0-.017.009-.035.017-.043,0-.017.017-.026.026-.043s.017-.026.035-.043l.035-.035c.009-.009.026-.017.043-.026s.026-.017.043-.026c.017,0,.035-.017.043-.017s.035-.009.052-.009h.052v.096Z"/>
  <path class="st6" d="M38.106,70.048c.009,0,.026-.009.035-.017.009,0,.026,0,.035-.009h.174c.009,0,.026,0,.035.009.009,0,.026,0,.035.017.009,0,.026.009.035.017.009,0,.017.009.035.017.009,0,.017.017.026.026l.026.026.026.026c0,.009.017.017.017.026s.009.017.017.035c0,.009.009.017.017.035,0,.009,0,.026.009.035,0,.009,0,.026.009.035v.174c0,.009,0,.026-.009.035s-.009.026-.017.035c0,.009-.009.017-.017.035s-.017.017-.017.026-.017.017-.026.026l-.026.026c-.009,0-.017.017-.026.026-.009,0-.017.017-.035.017s-.026.017-.043.026c-.017,0-.035.009-.052.017-.017,0-.035,0-.052.009h-.104c-.017,0-.035,0-.052-.009-.017,0-.035-.009-.043-.017-.017,0-.026-.017-.043-.026s-.026-.017-.043-.026-.026-.026-.035-.035-.026-.026-.035-.043-.017-.026-.026-.043c0-.017-.017-.035-.017-.043,0-.017-.009-.035-.017-.052v-.157c0-.017,0-.035.009-.052,0-.017.009-.035.017-.043,0-.017.017-.026.026-.043s.017-.026.035-.043l.035-.035c.009-.009.026-.017.043-.026s.026-.017.043-.026v-.009Z"/>
  <path class="st6" d="M50.345,66.994c.017-.009.026-.017.043-.026.017,0,.026-.017.043-.017s.035-.009.052-.009h.157c.017,0,.035,0,.043.017.017,0,.035.009.043.017s.026.017.043.026.026.017.035.035l.035.035c.009.009.017.026.026.043,0,.017.017.026.026.043,0,.017.009.035.017.043,0,.017,0,.035.009.052v.104c0,.017,0,.035-.009.052,0,.017-.009.035-.017.043,0,.017-.017.026-.026.043,0,.017-.017.026-.026.043-.009.009-.017.026-.035.035l-.035.035c-.009.009-.026.017-.043.026-.009,0-.017.009-.035.017-.009,0-.017,0-.035.009h-.209c-.009,0-.026,0-.035-.009-.009,0-.017-.009-.035-.017-.009,0-.017-.009-.026-.017-.009,0-.017-.009-.026-.017-.009,0-.017-.017-.026-.026l-.026-.026-.026-.026c0-.009-.017-.017-.017-.026s-.009-.017-.017-.026c0-.009-.009-.017-.017-.035,0-.009,0-.026-.009-.035v-.174c0-.009,0-.026.009-.035,0-.009,0-.026.009-.035,0-.009.009-.017.017-.035,0-.009.009-.017.017-.026,0-.009.017-.017.017-.026s.017-.017.026-.026l.026-.026c.009,0,.017-.017.026-.017l.009-.009Z"/>
  <path class="st6" d="M42.499,69.404c.009-.009.026-.017.043-.026.017,0,.026-.017.043-.017s.035-.009.043-.017h.157c.017,0,.035,0,.043.009.017,0,.035.009.043.017s.026.017.043.026.026.017.043.026l.035.035c.009.009.017.026.026.035s.017.026.026.043c0,.017.017.026.017.043s.009.035.009.043v.157c0,.017,0,.035-.017.043,0,.017-.009.026-.017.043,0,.017-.017.026-.026.043s-.017.026-.035.035l-.035.035c-.009.009-.026.017-.043.026-.009,0-.017.009-.026.017-.009,0-.017.009-.035.009-.009,0-.017,0-.035.009h-.174c-.009,0-.026,0-.035-.009-.009,0-.017,0-.035-.009-.009,0-.017-.009-.026-.017-.009,0-.017-.009-.026-.017-.009,0-.017-.017-.026-.017l-.026-.026-.026-.026c0-.009-.017-.017-.017-.026s-.009-.017-.017-.026c0-.009-.009-.017-.017-.035,0-.009,0-.017-.009-.035v-.209c0-.009,0-.017.009-.035,0-.009,0-.017.017-.035,0-.009.009-.017.017-.026,0-.009.009-.017.017-.026,0-.009.017-.017.017-.026l.026-.026c.009-.009.017-.017.026-.017v.009Z"/>
  <path class="st6" d="M36.393,69.012h.174c.009,0,.017,0,.035.009.009,0,.017,0,.035.009.009,0,.017.009.026.017s.017.009.026.017c.009,0,.017.009.026.017l.026.026.026.026s.017.017.017.026.009.017.017.026c0,.009.009.017.017.026,0,.009,0,.017.009.035s0,.017.009.035v.174c0,.009,0,.017-.009.035,0,.009,0,.017-.009.035,0,.009-.009.017-.017.026,0,.009-.009.017-.017.026,0,.009-.009.017-.017.026l-.026.026-.026.026s-.017.017-.026.017-.017.009-.026.017c-.009,0-.017.009-.026.017-.017,0-.035.009-.043.017-.017,0-.035,0-.052.009h-.104c-.017,0-.035,0-.052-.009-.017,0-.035-.009-.043-.017s-.026-.017-.043-.026-.026-.017-.043-.026c-.009-.009-.026-.026-.035-.035-.009-.009-.017-.026-.026-.035-.009-.017-.017-.026-.026-.043,0-.017-.017-.026-.017-.043s-.009-.035-.009-.043v-.157c0-.017.009-.035.017-.043,0-.017.009-.026.017-.043s.017-.026.026-.043c.009-.009.017-.026.035-.035.009-.009.026-.026.035-.035.017-.009.026-.017.043-.026.017,0,.026-.017.043-.017s.035-.009.043-.017l-.009-.026Z"/>
  <path class="st6" d="M48.701,68.76c.017,0,.026-.017.043-.017s.026-.009.043-.017h.13c.017,0,.035,0,.043.009.017,0,.026.009.043.017.017,0,.026.017.043.026.017,0,.026.017.035.026.009.009.026.017.035.035.009.009.017.026.026.035.009.009.017.026.026.043,0,.017.017.026.017.043s.009.026.009.043v.13c0,.017,0,.035-.009.043,0,.017-.009.026-.017.043,0,.017-.017.026-.026.043-.009.009-.017.026-.026.035l-.035.035c-.009.009-.026.017-.035.026-.017,0-.026.017-.043.026-.009,0-.017.009-.035.009-.009,0-.017,0-.035.009h-.174c-.009,0-.017,0-.035-.009-.009,0-.017,0-.035-.009-.009,0-.017-.009-.026-.017-.009,0-.017-.009-.026-.017-.009,0-.017-.017-.026-.017l-.026-.026-.026-.026c0-.009-.017-.017-.017-.026s-.009-.017-.017-.026c0-.009-.009-.017-.017-.035s0-.017-.009-.035v-.209c0-.009,0-.017.009-.035,0-.009.009-.017.017-.026,0-.009.009-.017.017-.026,0-.009.009-.017.017-.026l.026-.026.026-.026s.017-.017.026-.017.017-.009.026-.017l.035.009Z"/>
  <path class="st6" d="M52.206,68.09c.009,0,.017-.009.026-.017.009,0,.017-.009.035-.017.009,0,.017,0,.035-.009h.209c.009,0,.017,0,.035.009.009,0,.017.009.035.017.009,0,.017.009.026.017.009,0,.017.017.026.017s.017.017.026.026l.026.026c.009.009.017.017.017.026s.009.017.017.026c0,.009.009.017.017.035,0,.009,0,.017.009.035v.209c0,.009,0,.017-.009.035s-.009.017-.017.035c0,.009-.009.017-.017.026,0,.009-.017.017-.017.026s-.017.017-.026.026l-.026.026c-.009,0-.017.017-.026.017s-.017.009-.026.017c-.009,0-.017.009-.035.017-.009,0-.017,0-.035.009h-.209c-.009,0-.017,0-.035-.009-.009,0-.017-.009-.035-.017-.009,0-.017-.009-.026-.017-.009,0-.017-.017-.026-.017s-.017-.017-.026-.026l-.026-.026c0-.009-.017-.017-.017-.026s-.009-.017-.017-.026c0-.009-.009-.017-.017-.035,0-.009,0-.017-.009-.035v-.209c0-.009,0-.017.009-.035,0-.009.009-.017.017-.035,0-.009.009-.017.017-.026s.017-.017.017-.026.017-.017.026-.026l.026-.026c.009,0,.017-.017.026-.017Z"/>
  <path class="st6" d="M45.256,69.143c.009-.009.026-.017.035-.026s.026-.017.035-.026c.009,0,.026-.017.043-.017s.026-.009.043-.017h.13c.017,0,.026,0,.043.009.017,0,.026.009.043.017.017,0,.026.017.043.017.009,0,.026.017.035.026.009.009.026.017.035.035.009.009.017.026.026.035,0,.009.017.026.026.035,0,.017.009.026.017.043,0,.017.009.026.009.043v.13c0,.017,0,.026-.009.043,0,.017-.009.026-.017.043,0,.017-.017.026-.026.035-.009.009-.017.026-.026.035l-.035.035s-.017.009-.026.017c-.009,0-.017.009-.026.017-.009,0-.017.009-.026.017-.009,0-.017,0-.026.009h-.2c-.009,0-.017,0-.026-.009-.009,0-.017,0-.026-.009-.009,0-.017-.009-.026-.017s-.017-.009-.026-.017c0,0-.017-.009-.026-.017l-.026-.026s-.017-.017-.017-.026c0,0-.009-.017-.017-.026,0-.009-.009-.017-.017-.026,0-.009,0-.017-.009-.026,0-.009,0-.017-.009-.026v-.2c0-.009,0-.017.009-.026,0-.009,0-.017.017-.026,0-.009.009-.017.017-.026,0-.009.009-.017.017-.026,0,0,.017-.017.017-.026h0Z"/>
  <path class="st3" d="M52.989,51.911c.165-.017.304-.017.47,0,.157.13.244.331.348.513.948,1.722,2.322,3.845,1.714,5.889-.557,1.853-2.296,2.87-3.888,3.714-.061.574-.13,1.096-.391,1.618-.4.8-2.618,3.384-3.497,3.627-.157.043-.217.009-.348-.07-.357-.887,1.583-2.218,1.827-3.071.043-.157,0-.217-.078-.348-.096-.035-.165-.078-.261-.061-.609.087-1.948,2.453-2.392,2.992-.217.261-.452.444-.792.47-.113-.026-.209-.061-.287-.148-.774-.861,2.053-3.21,2.079-4.019-.096-.139-.113-.139-.261-.191-.705.104-1.914,1.922-2.262,2.583-.226.418-.409,1.139-.765,1.418-.017.009-.026.017-.043.035-.052,0-.104,0-.148-.009-.217-.017-.418-.052-.557-.244-.826-1.131,2.149-3.601,2.279-4.393.017-.104,0-.113-.07-.2-.096-.017-.191-.026-.287,0-.765.209-1.922,1.809-2.27,2.496-.278.539-.444,1.131-.739,1.67-.078,0-.13-.017-.209-.052-.2-.104-.304-.27-.357-.496-.426-1.766,2.105-4.28,3.445-5.184.487-.322,1.113-.47,1.557-.835.548-.444.948-1.148,1.374-1.705.418-.539.861-1.053,1.348-1.54.244-.244.496-.496.765-.713.296-.244.757-.391.957-.722,0-.009.017-.026.017-.035.009-.183,0-.183-.104-.331-.087-.043-.174-.078-.27-.078-.792-.017-2.053,1.418-2.627,1.966-.331-.261-.6-.557-.835-.905l.035-.052c1.27-1.809,3.34-3.236,5.523-3.601v.009Z"/>
  <path class="st5" d="M29.443,100.588c.339.122,1.209,1.975,3.01,2.627.174.061.348.122.531.139.217.017.426,0,.609-.148.426-.313.531-.922,1.018-1.226.87-.548,2.757-.209,3.418-.531.296.391.739.931,1.096,1.253-.322.174-1.835.183-2.697.574-.487.226-1.183.574-1.383,1.113.017.174,0,.174.148.296.739.183,1.888-.818,2.723-1.009.4-.087,1.287-.331,1.627-.096.217.157.339.418.383.67-.087.165-.418.157-.6.191-.792.13-1.444.348-2.131.783-.27.174-.783.444-.861.757.017.017.026.026.043.043.13.113.409.113.565.104.348-.009.618-.07.861-.331.974-.017,1.705-1.079,3.201-.531.792.287,2.009,1.209,2.366,2.001.165.374.27.931.113,1.313-.209.496-.818.774-1.287.957-2.157.818-4.81.391-6.863-.513-1.331-.583-6.228-3.575-6.715-4.836.061-1.253.313-2.479.835-3.619l-.009.017Z"/>
  <path class="st5" d="M44.665,99.083c.009,0,.026.009.035.017.017.009.035.017.061.035.696.339,1.026,1.053,1.687,1.409.635.339,2.575.939,3.236.722.409-.313.496-1.026.583-1.496.052.026.087.043.148.052.557.07,2.757-.331,3.184-.661.139.278.652.87.939.992-.252.2-.626.226-.931.313-.705.2-1.783.609-2.227,1.226-.096.139-.157.313-.113.478.052.183.13.217.287.313.47.026.887-.626,1.261-.861.809-.505,1.731-.365,2.505-.705.148.252.478.574.748.696-.505.418-1.696.365-2.575,1.209-.244.235-.478.496-.478.844.087.165.096.165.278.235.531-.026,1.018-.505,1.374-.879.009-.009.017-.026.035-.035.409.035,1.07-.513,1.896-.444,1.07.096,2.322.809,3.018,1.635.27.322.539.739.487,1.174-.035.27-.2.478-.409.644-1.235,1-4.132,1.218-5.689,1.035-1.435-.174-9.29-3.279-10.012-4.201-.035-1.244.035-2.67.696-3.749h-.026Z"/>
  <path class="st15" d="M22.884,84.652c.339.165.661.365,1,.531.304.148.792.348,1.122.235-.113,3.288-.505,6.602-.739,9.881l-.905,11.812c-.13,1.487-.209,2.992-.374,4.48-.026.2-.035.4-.148.574-.035.096-.061.165-.139.235-.183.174-.461.226-.705.209-.183-.009-.557-.096-.678-.252-.217-.27-.226-.731-.217-1.061.017-1.722.244-3.471.365-5.193l.591-8.864c.191-2.523.357-5.045.496-7.568.096-1.67.139-3.366.322-5.028l.009.009Z"/>
  <path class="st15" d="M69.247,80.955h.087c.035.078.052.139.061.217l1.487,15.509.583,6.08c.113,1.139.278,2.305.313,3.453.009.331.052.757-.174,1.018-.191.226-.461.331-.748.331-.27,0-.383-.061-.565-.244-.174-.157-.191-.478-.226-.705-.383-2.61-.557-5.289-.826-7.916-.565-5.837-1.174-11.673-1.809-17.501.583-.13,1.209-.165,1.801-.244h.017Z"/>
  <path class="st12" d="M14.838,42.978c.104-.017.209-.017.313-.017l.061.087c-.174.383-.47.722-.696,1.079-.322.522-.583,1.096-.844,1.653-1.157,2.488-2.731,7.933-1.766,10.569-.696-.052-1.392-.104-2.07-.27-.217-.078-.426-.157-.618-.304-.27-.217-.418-.557-.452-.896-.078-.818,0-1.679.026-2.496l.165-4.271c.052-1.148-.035-2.436.157-3.558.043-.261.157-.522.331-.722.687-.774,4.271-.739,5.367-.835l.026-.017Z"/>
  <path class="st15" d="M9.323,75.084c.609.418,1.209.852,1.809,1.287-.357,2.096-.626,4.201-.939,6.298l-2.096,13.804c-.104.696-.331,3.288-.609,3.766-.035.087-.07.183-.122.261-.113.148-.331.191-.505.2-.331.009-.557-.035-.8-.27-.122-.261-.087-.574-.061-.852.122-1.166.339-2.331.505-3.497l1.157-8.429c.574-4.184,1.009-8.403,1.661-12.569h0Z"/>
  <path class="st9" d="M25.833,37.124c1.174.739,2.122,3.688,3.01,4.958.844,1.209,1.879,2.235,2.931,3.245-.844.217-1.635.461-2.401.887-.618.374-1.087.818-1.548,1.366-.27-.339-.487-.731-.696-1.096-1.061-1.835-2.801-6.463-2.218-8.542.122-.435.557-.609.922-.818h0Z"/>
  <path class="st12" d="M16.769,41.23h.035v.043c-.296.278-.591.548-.905.809-.966.026-1.94.122-2.914.191-.948.07-1.966.07-2.897.304-.418.104-.835.252-1.139.574-.296.313-.513.748-.609,1.157-.278,1.279-.209,3.001-.27,4.323-.104,2.218-.304,4.471-.252,6.689-.191-.122-.383-.244-.565-.374-.331-.391-.452-.722-.487-1.235-.122-1.574.052-3.236.096-4.819.043-1.627-.035-3.688.209-5.254.061-.409.148-.739.426-1.061.026-.035.061-.07.096-.096.035-.035.061-.061.096-.096.035-.026.07-.061.104-.087s.07-.052.113-.078c.035-.026.078-.043.113-.07.043-.017.078-.043.122-.061s.078-.035.122-.052c.043-.017.087-.026.13-.043.992-.287,2.183-.296,3.21-.383l5.167-.4v.017Z"/>
  <path class="st3" d="M28.703,39.864c.548.313,1.044.809,1.566,1.166,2.453,1.653,5.149,3.044,8.159,3.105-.331.765-.809,1.453-1.34,2.096-.4.47-.879.861-1.357,1.253-2.079-2.001-6.176-4.906-7.046-7.611l.017-.009Z"/>
  <path class="st12" d="M44.987,59.027c.165-.017.244-.043.391.043,0,.13.009.157-.096.252-.357.331-.835.6-1.226.896-.609.452-1.148.966-1.687,1.505-1.366.235-2.775.278-4.14.505-.217-.244-.391-.531-.574-.8-.4-.539-.887-.983-1.374-1.435,1.07-.017,2.149-.209,3.21-.322,1.835-.191,3.662-.409,5.497-.635v-.009Z"/>
  <path class="st0" d="M43.699,103.719c.009.009.026.017.035.035,1.226.974,7.942,3.636,9.551,3.966.261.061.522.104.792.139.261.035.531.061.8.07.27.009.531.009.8,0,.27-.009.531-.035.8-.07,1.166-.148,3.184-.539,3.914-1.479-.061.226-.157.739-.365.87-.061.113-.122.191-.217.27-1.322,1.122-3.784,1.34-5.463,1.192-.87-.078-1.714-.278-2.549-.531-1.218-.374-7.455-2.792-8.063-3.61-.165-.226-.087-.574-.035-.835v-.017Z"/>
  <path class="st0" d="M28.425,105.407c.557.313,1.026.887,1.531,1.279,1.835,1.418,3.94,2.844,6.167,3.549,1.905.6,4.436.774,6.332.052.452-.174.792-.452,1.209-.67l.043.087c-.043.165-.078.261-.2.391-.061.165-.139.287-.27.409-.905.913-2.801,1.044-4.036,1.035-1.192-.009-2.479-.2-3.601-.583-2.235-.748-4.862-2.531-6.498-4.219-.409-.418-.687-.731-.678-1.331h0Z"/>
  <path class="st1" d="M32.009,53.573c.365.339,2.775,5.149,3.21,5.984-.339-.13-.67-.244-1.026-.322-.296-.043-.609-.043-.913-.052-.235-.557-.583-1.096-.879-1.627-.6-1.061-1.183-2.122-1.766-3.184l1.366-.8h.009Z"/>
  <path class="st15" d="M9.689,56.974c.531.061,1.061.13,1.592.209-.017,1.157-.104,2.305-.148,3.462l-1.54.026c-.026-1.226.061-2.47.104-3.697h-.009Z"/>
  <path class="st14" d="M29.295,50.198c.174-.026.374-.043.539.017.513.165.757.852.966,1.305l-.905.539-.487.252c-.226-.4-.696-1.035-.644-1.496.035-.304.296-.444.522-.609l.009-.009Z"/>
  <path class="st1" d="M31.069,52.077c.226.113.452.687.574.922-.461.278-.913.565-1.348.87-.244-.261-.418-.67-.591-.983.478-.252.922-.513,1.366-.809h0Z"/>
  <path class="st0" d="M30.939,101.057c.026.017.061.035.087.052.461.217,2.209.583,2.688.452-.087.209-.191.426-.365.583-.07.2-.052.252-.244.365-.139,0-.278-.017-.409-.07-.557-.2-1.496-.835-1.748-1.374l-.009-.009Z"/>
  <path class="st0" d="M46.909,99.587c.713.226,1.922.035,2.505.339.026.148,0,.183-.052.322-.052.07-.078.096-.157.148-.635.035-1.574-.087-2.114-.452-.157-.104-.148-.183-.191-.357h.009Z"/>
  <path class="st16" d="M22.432,31.722c.348.026.696.017,1.053.009.078.531.235,1.053.331,1.583-.026-.009-.052-.017-.087-.026-.635-.252-1.026-.983-1.296-1.566h0Z"/>
  <path class="st16" d="M38.263,65.864c.078.313.252.591.339.905.043.148.052.209-.026.339-.174.026-.304-.061-.452-.13-.174-.113-.461-.261-.574-.435-.078-.122-.052-.148-.017-.27.191-.217.47-.296.731-.4v-.009Z"/>
</svg>