<?xml version="1.0" encoding="UTF-8"?>
<svg id="Layer_1" xmlns="http://www.w3.org/2000/svg" width="3.319in" height="1.581in" version="1.1" viewBox="0 0 239 113.8">
  <!-- Generator: Adobe Illustrator 29.4.0, SVG Export Plug-In . SVG Version: 2.1.0 Build 152)  -->
  <defs>
    <style>
      .st0 {
        fill: #d60000;
        stroke: #fff;
        stroke-linecap: round;
        stroke-linejoin: round;
      }
    </style>
  </defs>
  <path class="st0" d="M49.781,50.499c-2.796,0-5.246-.458-7.351-1.374-2.105-.916-3.864-2.209-5.278-3.88-1.415-1.67-2.475-3.631-3.181-5.88-.707-2.249-1.061-4.691-1.061-7.326,0-2.571.386-4.948,1.157-7.134.771-2.185,1.888-4.097,3.35-5.736,1.462-1.639,3.237-2.916,5.326-3.832,2.088-.916,4.45-1.374,7.085-1.374,1.157,0,2.45.121,3.88.361,1.429.241,2.82.611,4.169,1.109,1.35.499,2.474,1.149,3.374,1.952l-3.47,4.434c-.578-.675-1.301-1.253-2.169-1.735s-1.783-.844-2.748-1.084c-.964-.241-1.896-.362-2.795-.362-1.864,0-3.438.378-4.724,1.133-1.286.755-2.313,1.776-3.084,3.061-.771,1.286-1.326,2.708-1.663,4.266-.337,1.559-.506,3.157-.506,4.796,0,2.892.41,5.375,1.229,7.447.819,2.072,2,3.663,3.542,4.771s3.39,1.663,5.543,1.663c1.35,0,2.779-.185,4.29-.555,1.51-.369,3.101-.988,4.771-1.855l1.976,3.567c-.932.611-1.848,1.141-2.747,1.59-.9.451-1.816.819-2.748,1.109-.932.289-1.904.506-2.916.65s-2.097.217-3.253.217Z"/>
  <path class="st0" d="M74.266,25.386c2.57,0,4.555.651,5.953,1.952s2.097,3.253,2.097,5.856v10.556c0,.932.145,1.559.434,1.88.289.321.658.482,1.108.482.321,0,.634-.032.94-.097.305-.064.618-.16.94-.289l.916,3.277c-.707.386-1.511.699-2.41.94-.9.241-1.72.362-2.458.362-1.157,0-2.089-.241-2.795-.723-.707-.482-1.205-1.317-1.494-2.506-.9,1.253-1.952,2.129-3.157,2.627-1.205.498-2.563.747-4.073.747-1.864,0-3.463-.538-4.796-1.615-1.334-1.076-2-2.595-2-4.555,0-1.735.41-3.157,1.229-4.266.819-1.108,1.887-1.959,3.205-2.554,1.317-.594,2.739-1.004,4.266-1.229,1.526-.225,2.98-.337,4.362-.337v-3.133c0-.868-.121-1.542-.362-2.024-.241-.482-.619-.827-1.133-1.036-.514-.208-1.173-.313-1.976-.313-1.093,0-2.186.306-3.277.916-1.093.611-2.057,1.237-2.892,1.88l-2.362-3.808c1.446-.996,2.996-1.743,4.651-2.241,1.655-.498,3.35-.747,5.085-.747ZM76.531,39.846c-.675,0-1.415.032-2.217.096-.804.065-1.575.226-2.313.482-.74.257-1.342.643-1.808,1.157-.466.514-.699,1.221-.699,2.121,0,.74.296,1.31.892,1.711.594.402,1.229.603,1.904.603.899,0,1.663-.257,2.29-.771.626-.514,1.108-1.165,1.446-1.952.337-.787.506-1.566.506-2.338v-1.108Z"/>
  <path class="st0" d="M93.689,25.435c.161.45.305.924.434,1.422.128.499.224.988.289,1.47.707-.964,1.711-1.711,3.012-2.242,1.302-.53,2.514-.795,3.639-.795,1.735,0,3.245.346,4.531,1.036,1.285.691,2.354,1.631,3.206,2.82.851,1.189,1.494,2.523,1.928,4,.434,1.479.651,2.988.651,4.531,0,1.735-.233,3.366-.699,4.892-.466,1.527-1.174,2.876-2.121,4.049-.948,1.173-2.121,2.097-3.519,2.771s-3.029,1.012-4.892,1.012c-.804,0-1.728-.129-2.771-.386-1.045-.257-1.904-.642-2.579-1.157.064.451.096.94.096,1.47v7.399l.675,2.65h-6.507v-27.667c0-.61-.041-1.325-.121-2.145-.081-.819-.225-1.631-.434-2.434-.209-.803-.491-1.462-.844-1.976l6.025-.723ZM99.474,29.58c-.868,0-1.728.233-2.579.699-.852.466-1.519,1.069-2,1.808v7.856c0,1.061.136,2.081.41,3.061.272.98.755,1.776,1.446,2.386.691.611,1.663.916,2.917.916,1.06,0,1.936-.273,2.626-.82.691-.546,1.245-1.253,1.663-2.121.417-.868.707-1.783.868-2.748.16-.964.241-1.863.241-2.699,0-.867-.089-1.783-.265-2.747-.177-.964-.482-1.872-.916-2.723-.434-.851-1.012-1.542-1.735-2.073-.723-.53-1.615-.795-2.675-.795Z"/>
  <path class="st0" d="M115.765,28.567c0-.032-.041-.249-.12-.65-.081-.402-.162-.812-.241-1.229-.081-.417-.137-.658-.169-.723h6.314v23.955h-5.784v-21.353ZM121.501,14.493h6.988l-7.277,7.953h-4.965l5.254-7.953Z"/>
  <path class="st0" d="M135.526,18.976c-.226,1.125-.418,2.282-.578,3.471-.161,1.189-.258,2.362-.29,3.519h5.833l-.916,3.808h-4.917v13.255c0,.354.032.788.097,1.301.064.515.241.964.53,1.35.289.386.755.579,1.397.579.547,0,1.076-.048,1.591-.145.514-.097,1.028-.209,1.543-.337l.675,3.615c-.836.258-1.776.49-2.82.699-1.044.209-2,.313-2.867.313-2.058,0-3.575-.482-4.556-1.446-.98-.964-1.47-2.506-1.47-4.627v-14.556h-3.952v-3.181c.995-.032,1.863-.281,2.603-.747.739-.465,1.374-1.076,1.904-1.832.529-.755.964-1.574,1.301-2.458.338-.883.603-1.743.796-2.579h4.097Z"/>
  <path class="st0" d="M149.553,25.965v15.183c0,.74.064,1.479.192,2.217.129.74.418,1.358.868,1.855.449.499,1.14.748,2.072.748.899,0,1.735-.193,2.507-.579.771-.386,1.397-.932,1.88-1.639.481-.707.723-1.526.723-2.458v-12.725c0-.032-.048-.249-.145-.65s-.186-.812-.266-1.229c-.08-.417-.137-.658-.168-.723h6.458v17.737c0,.9.137,1.526.41,1.88.272.354.666.53,1.181.53.45,0,1.061-.128,1.832-.386l.916,3.277c-.675.322-1.455.619-2.338.892-.885.272-1.76.41-2.627.41-.996,0-1.896-.241-2.699-.723-.804-.482-1.334-1.317-1.591-2.506-1.028,1.061-2.226,1.912-3.591,2.555-1.366.642-2.804.964-4.313.964-1.832,0-3.271-.354-4.314-1.061-1.044-.706-1.783-1.694-2.217-2.964-.434-1.269-.65-2.739-.65-4.41v-13.592l-.53-2.603h6.41Z"/>
  <path class="st0" d="M176.062,12.854v37.065h-5.881V15.457l-.529-2.603h6.41Z"/>
  <path class="st0" d="M192.016,50.499c-2.409,0-4.475-.555-6.193-1.663s-3.036-2.603-3.952-4.482c-.916-1.88-1.374-3.977-1.374-6.29,0-1.735.272-3.366.819-4.893.546-1.526,1.342-2.875,2.386-4.049,1.044-1.172,2.29-2.097,3.736-2.771,1.445-.675,3.067-1.012,4.868-1.012,2.441,0,4.514.555,6.218,1.663,1.702,1.108,3.012,2.603,3.928,4.482s1.374,3.977,1.374,6.29c0,1.735-.273,3.367-.819,4.893-.547,1.526-1.334,2.876-2.362,4.049-1.028,1.173-2.265,2.097-3.711,2.771s-3.085,1.012-4.917,1.012ZM192.064,46.643c1.124,0,2.04-.281,2.747-.844.707-.562,1.253-1.285,1.639-2.169.386-.883.651-1.832.796-2.844s.217-1.952.217-2.82c0-.899-.057-1.855-.169-2.868-.113-1.012-.346-1.96-.699-2.844s-.876-1.598-1.566-2.145c-.691-.546-1.614-.819-2.771-.819-1.093,0-1.992.289-2.699.868-.707.578-1.253,1.318-1.639,2.217-.386.9-.659,1.849-.819,2.844-.161.996-.241,1.912-.241,2.747,0,.868.064,1.8.193,2.796.128.996.369,1.944.723,2.844.354.9.875,1.631,1.566,2.193.69.562,1.599.844,2.724.844Z"/>
  <path class="st0" d="M7.799,67.206c.161.45.305.924.434,1.422.128.498.224.988.289,1.47.707-.964,1.711-1.711,3.012-2.241,1.302-.53,2.514-.795,3.639-.795,1.735,0,3.245.346,4.531,1.036,1.285.691,2.354,1.631,3.206,2.819.851,1.189,1.494,2.523,1.928,4.001.434,1.479.651,2.988.651,4.53,0,1.735-.233,3.367-.699,4.893-.466,1.526-1.174,2.876-2.121,4.049-.948,1.174-2.121,2.097-3.519,2.771s-3.029,1.013-4.892,1.013c-.804,0-1.728-.129-2.771-.386-1.045-.257-1.904-.643-2.579-1.157.064.45.096.94.096,1.471v7.398l.675,2.65H3.172v-27.666c0-.61-.041-1.326-.121-2.146-.081-.819-.225-1.63-.434-2.434-.209-.803-.491-1.462-.844-1.977l6.025-.723ZM13.583,71.352c-.868,0-1.728.233-2.579.698-.852.467-1.519,1.069-2,1.808v7.856c0,1.061.136,2.081.41,3.061.272.98.755,1.776,1.446,2.386.691.611,1.663.916,2.917.916,1.06,0,1.936-.272,2.626-.819.691-.546,1.245-1.253,1.663-2.12.417-.868.707-1.784.868-2.748.16-.964.241-1.863.241-2.699,0-.867-.089-1.783-.265-2.747-.177-.964-.482-1.871-.916-2.724-.434-.851-1.012-1.542-1.735-2.072-.723-.53-1.615-.795-2.675-.795Z"/>
  <path class="st0" d="M38.984,67.158c2.57,0,4.555.65,5.953,1.951,1.398,1.302,2.097,3.254,2.097,5.856v10.556c0,.933.145,1.56.434,1.88.289.322.658.482,1.108.482.321,0,.634-.032.94-.097.305-.063.618-.16.94-.289l.916,3.277c-.707.386-1.511.699-2.41.94-.9.24-1.72.361-2.458.361-1.157,0-2.089-.241-2.795-.723-.707-.482-1.205-1.317-1.494-2.507-.9,1.253-1.952,2.129-3.157,2.627s-2.563.747-4.073.747c-1.864,0-3.463-.538-4.796-1.615-1.334-1.076-2-2.594-2-4.555,0-1.735.41-3.157,1.229-4.266.819-1.108,1.887-1.959,3.205-2.555,1.317-.594,2.739-1.004,4.266-1.229,1.526-.225,2.98-.338,4.362-.338v-3.133c0-.867-.121-1.542-.362-2.024s-.619-.827-1.133-1.036c-.514-.209-1.173-.313-1.976-.313-1.093,0-2.186.306-3.277.916-1.093.61-2.057,1.237-2.892,1.88l-2.362-3.808c1.446-.996,2.996-1.743,4.651-2.241,1.655-.498,3.35-.747,5.085-.747ZM41.25,81.617c-.675,0-1.415.033-2.217.097-.804.065-1.575.226-2.313.482-.74.258-1.342.643-1.808,1.156-.466.515-.699,1.222-.699,2.121,0,.739.296,1.31.892,1.711.594.402,1.229.603,1.904.603.899,0,1.663-.257,2.29-.771.626-.514,1.108-1.164,1.446-1.952.337-.786.506-1.566.506-2.337v-1.109Z"/>
  <path class="st0" d="M58.408,67.254c.707,1.607,1.092,3.294,1.157,5.062.803-1.35,1.928-2.531,3.374-3.543,1.446-1.012,2.972-1.519,4.579-1.519l-.964,5.736c-1.415,0-2.675.361-3.784,1.084-1.109.724-2.162,1.84-3.157,3.35v14.268h-5.784v-17.496c0-.61-.048-1.326-.145-2.146-.096-.819-.257-1.614-.482-2.386-.225-.771-.53-1.413-.916-1.928l6.121-.482Z"/>
  <path class="st0" d="M78.893,67.158c2.57,0,4.555.65,5.953,1.951,1.398,1.302,2.097,3.254,2.097,5.856v10.556c0,.933.145,1.56.434,1.88.289.322.658.482,1.108.482.321,0,.634-.032.94-.097.305-.063.618-.16.94-.289l.916,3.277c-.707.386-1.511.699-2.41.94-.9.24-1.72.361-2.458.361-1.157,0-2.089-.241-2.795-.723-.707-.482-1.205-1.317-1.494-2.507-.9,1.253-1.952,2.129-3.157,2.627s-2.563.747-4.073.747c-1.864,0-3.463-.538-4.796-1.615-1.334-1.076-2-2.594-2-4.555,0-1.735.41-3.157,1.229-4.266.819-1.108,1.887-1.959,3.205-2.555,1.317-.594,2.739-1.004,4.266-1.229,1.526-.225,2.98-.338,4.362-.338v-3.133c0-.867-.121-1.542-.362-2.024s-.619-.827-1.133-1.036c-.514-.209-1.173-.313-1.976-.313-1.093,0-2.186.306-3.277.916-1.093.61-2.057,1.237-2.892,1.88l-2.362-3.808c1.446-.996,2.996-1.743,4.651-2.241,1.655-.498,3.35-.747,5.085-.747ZM81.159,81.617c-.675,0-1.415.033-2.217.097-.804.065-1.575.226-2.313.482-.74.258-1.342.643-1.808,1.156-.466.515-.699,1.222-.699,2.121,0,.739.296,1.31.892,1.711.594.402,1.229.603,1.904.603.899,0,1.663-.257,2.29-.771.626-.514,1.108-1.164,1.446-1.952.337-.786.506-1.566.506-2.337v-1.109Z"/>
  <path class="st0" d="M109.403,67.254c.707,1.607,1.092,3.294,1.157,5.062.803-1.35,1.928-2.531,3.374-3.543,1.446-1.012,2.972-1.519,4.579-1.519l-.964,5.736c-1.415,0-2.675.361-3.784,1.084-1.109.724-2.162,1.84-3.157,3.35v14.268h-5.784v-17.496c0-.61-.048-1.326-.145-2.146-.096-.819-.257-1.614-.482-2.386-.225-.771-.53-1.413-.916-1.928l6.121-.482Z"/>
  <path class="st0" d="M130.659,67.062c2.217,0,4.041.481,5.471,1.446,1.43.964,2.49,2.209,3.182,3.735.689,1.526,1.035,3.157,1.035,4.892,0,.515-.031,1.053-.096,1.615s-.178,1.116-.338,1.663h-14.652c0,2.57.609,4.539,1.832,5.904,1.221,1.366,2.811,2.048,4.771,2.048.932,0,1.936-.16,3.012-.481s2.193-.819,3.35-1.494l1.543,3.277c-1.092.867-2.467,1.511-4.121,1.928-1.654.418-3.141.627-4.459.627-1.863,0-3.541-.289-5.035-.867-1.494-.579-2.766-1.414-3.809-2.507-1.045-1.092-1.84-2.394-2.386-3.904-.547-1.51-.819-3.197-.819-5.061,0-1.703.256-3.317.771-4.845.514-1.525,1.268-2.892,2.266-4.097.994-1.205,2.209-2.152,3.639-2.844,1.43-.69,3.043-1.036,4.844-1.036ZM130.419,71.014c-1.061,0-1.953.289-2.676.867-.723.579-1.277,1.302-1.662,2.17-.387.867-.611,1.719-.676,2.554h8.918c.16-.932.111-1.823-.146-2.675-.256-.851-.707-1.55-1.348-2.097-.645-.546-1.447-.819-2.41-.819Z"/>
  <path class="st0" d="M147.817,67.736l4.387,12.628c.257.675.458,1.342.603,2.001.145.658.28,1.342.409,2.048.128-.675.241-1.357.338-2.048.096-.691.257-1.357.481-2.001l4.482-12.628h5.206l-8.483,24.147h-5.205l-8.436-24.147h6.218Z"/>
  <path class="st0" d="M173.363,59.012c0,.997-.354,1.864-1.061,2.604s-1.574,1.108-2.603,1.108c-.996,0-1.864-.369-2.603-1.108-.74-.739-1.109-1.606-1.109-2.604,0-1.027.369-1.896,1.109-2.603.738-.706,1.606-1.061,2.603-1.061,1.028,0,1.896.354,2.603,1.061.707.707,1.061,1.575,1.061,2.603ZM172.544,67.736v23.955h-5.784v-21.353l-.53-2.603h6.314Z"/>
  <path class="st0" d="M187.293,67.109c1.124,0,2.337.121,3.639.361,1.302.241,2.45.619,3.446,1.133l-2.024,4.049c-.644-.514-1.391-.916-2.241-1.205-.852-.289-1.695-.434-2.53-.434-.804,0-1.551.193-2.241.578-.691.386-1.037,1.045-1.037,1.977,0,.547.137,1.005.41,1.374.272.369.65.683,1.133.939.481.258,1.012.515,1.591.771.771.289,1.573.61,2.409.964s1.623.788,2.362,1.302c.738.514,1.333,1.197,1.783,2.048.45.852.675,1.937.675,3.254,0,1.703-.45,3.165-1.35,4.386-.899,1.222-2.065,2.153-3.494,2.796-1.431.643-2.948.964-4.555.964-1.286,0-2.66-.192-4.121-.578-1.463-.386-2.756-.884-3.881-1.494l2.073-3.953c.835.482,1.702.925,2.603,1.326.899.402,1.848.603,2.844.603.964,0,1.808-.249,2.53-.747.724-.498,1.085-1.277,1.085-2.338,0-.707-.186-1.277-.555-1.711-.37-.434-.86-.812-1.47-1.133-.611-.321-1.286-.61-2.024-.868-.996-.385-1.977-.811-2.94-1.277-.964-.465-1.768-1.132-2.41-2-.643-.867-.964-2.056-.964-3.566,0-1.703.458-3.109,1.374-4.218s2.08-1.936,3.494-2.482c1.414-.546,2.876-.819,4.387-.819Z"/>
  <path class="st0" d="M208.693,67.158c2.57,0,4.555.65,5.952,1.951,1.397,1.302,2.097,3.254,2.097,5.856v10.556c0,.933.145,1.56.434,1.88.289.322.658.482,1.108.482.321,0,.635-.032.94-.097.305-.063.618-.16.939-.289l.916,3.277c-.707.386-1.511.699-2.41.94-.899.24-1.719.361-2.458.361-1.156,0-2.089-.241-2.796-.723-.707-.482-1.204-1.317-1.494-2.507-.899,1.253-1.952,2.129-3.156,2.627-1.205.498-2.563.747-4.073.747-1.864,0-3.463-.538-4.796-1.615-1.334-1.076-2-2.594-2-4.555,0-1.735.409-3.157,1.229-4.266s1.888-1.959,3.205-2.555c1.317-.594,2.739-1.004,4.267-1.229,1.525-.225,2.979-.338,4.361-.338v-3.133c0-.867-.12-1.542-.361-2.024-.241-.481-.619-.827-1.133-1.036s-1.173-.313-1.976-.313c-1.093,0-2.186.306-3.278.916s-2.057,1.237-2.892,1.88l-2.361-3.808c1.445-.996,2.995-1.743,4.65-2.241s3.351-.747,5.086-.747ZM210.958,81.617c-.675,0-1.414.033-2.217.097-.804.065-1.575.226-2.313.482-.74.258-1.342.643-1.808,1.156-.466.515-.699,1.222-.699,2.121,0,.739.297,1.31.892,1.711.595.402,1.229.603,1.904.603.899,0,1.663-.257,2.289-.771.627-.514,1.109-1.164,1.446-1.952.338-.786.506-1.566.506-2.337v-1.109Z"/>
  <path class="st0" d="M228.116,67.254c.706,1.607,1.092,3.294,1.157,5.062.803-1.35,1.928-2.531,3.374-3.543,1.445-1.012,2.972-1.519,4.578-1.519l-.964,5.736c-1.414,0-2.675.361-3.783,1.084-1.108.724-2.161,1.84-3.157,3.35v14.268h-5.784v-17.496c0-.61-.048-1.326-.145-2.146s-.258-1.614-.481-2.386c-.226-.771-.53-1.413-.916-1.928l6.121-.482Z"/>
</svg>