<?xml version="1.0" encoding="UTF-8"?>
<svg id="Layer_1" xmlns="http://www.w3.org/2000/svg" version="1.1" viewBox="0 0 239 113.8">
  <!-- Generator: Adobe Illustrator 29.1.0, SVG Export Plug-In . SVG Version: 2.1.0 Build 142)  -->
  <defs>
    <style>
      .st0 {
        fill: #d60000;
        stroke: #00bcd6;
        stroke-miterlimit: 10;
      }
    </style>
  </defs>
  <path class="st0" d="M34.4,57.5c-3.6,0-6.7-.6-9.4-1.8-2.7-1.2-4.9-2.8-6.7-5-1.8-2.1-3.2-4.6-4.1-7.5-.9-2.9-1.4-6-1.4-9.4s.5-6.3,1.5-9.1c1-2.8,2.4-5.2,4.3-7.3,1.9-2.1,4.1-3.7,6.8-4.9,2.7-1.2,5.7-1.8,9.1-1.8s3.1.2,5,.5c1.8.3,3.6.8,5.3,1.4,1.7.6,3.2,1.5,4.3,2.5l-4.4,5.7c-.7-.9-1.7-1.6-2.8-2.2s-2.3-1.1-3.5-1.4-2.4-.5-3.6-.5c-2.4,0-4.4.5-6,1.4-1.6,1-3,2.3-3.9,3.9-1,1.6-1.7,3.5-2.1,5.5s-.6,4-.6,6.1c0,3.7.5,6.9,1.6,9.5,1,2.6,2.6,4.7,4.5,6.1,2,1.4,4.3,2.1,7.1,2.1s3.6-.2,5.5-.7,4-1.3,6.1-2.4l2.5,4.6c-1.2.8-2.4,1.5-3.5,2-1.2.6-2.3,1-3.5,1.4s-2.4.6-3.7.8-2.7.3-4.2.3l-.2.2Z"/>
  <path class="st0" d="M61.7,9.3v19.7c1.2-1,2.6-1.9,4.1-2.6,1.6-.8,3.1-1.1,4.7-1.1,2.4,0,4.2.5,5.5,1.4s2.2,2.2,2.8,3.8c.5,1.6.8,3.5.8,5.6v20.7h-7.5v-20c0-.9,0-1.8-.2-2.7,0-.9-.5-1.6-1-2.1s-1.4-.8-2.6-.8-1.4.2-2.2.6c-.9.4-1.7.8-2.5,1.3-.8.5-1.4,1-1.9,1.5v22.2h-7.3V12.6l-.7-3.3h8.1-.1Z"/>
  <path class="st0" d="M99.4,25.3c3.3,0,5.8.8,7.6,2.5,1.8,1.7,2.7,4.2,2.7,7.5v13.5c0,1.2.2,2,.6,2.4s.8.6,1.4.6.8,0,1.2,0c.4,0,.8-.2,1.2-.4l1.2,4.2c-.9.5-1.9.9-3.1,1.2s-2.2.5-3.1.5c-1.5,0-2.7-.3-3.6-.9-.9-.6-1.5-1.7-1.9-3.2-1.2,1.6-2.5,2.7-4,3.4-1.5.6-3.3,1-5.2,1s-4.4-.7-6.1-2.1c-1.7-1.4-2.6-3.3-2.6-5.8s.5-4,1.6-5.5,2.4-2.5,4.1-3.3,3.5-1.3,5.5-1.6,3.8-.4,5.6-.4v-4c0-1.1-.2-2-.5-2.6-.3-.6-.8-1.1-1.4-1.3-.7-.3-1.5-.4-2.5-.4s-2.8.4-4.2,1.2c-1.4.8-2.6,1.6-3.7,2.4l-3-4.9c1.8-1.3,3.8-2.2,5.9-2.9,2.1-.6,4.3-1,6.5-1h-.2ZM102.3,43.8c-.9,0-1.8,0-2.8,0-1,0-2,.3-3,.6-.9.3-1.7.8-2.3,1.5-.6.7-.9,1.6-.9,2.7s.4,1.7,1.1,2.2c.8.5,1.6.8,2.4.8s2.1-.3,2.9-1,1.4-1.5,1.8-2.5.6-2,.6-3v-1.4h.2Z"/>
  <path class="st0" d="M124.3,25.4c.2.6.4,1.2.6,1.8.2.6.3,1.3.4,1.9.9-1.2,2.2-2.2,3.9-2.9,1.7-.7,3.2-1,4.7-1,2.2,0,4.1.4,5.8,1.3,1.6.9,3,2.1,4.1,3.6s1.9,3.2,2.5,5.1c.6,1.9.8,3.8.8,5.8s-.3,4.3-.9,6.3c-.6,2-1.5,3.7-2.7,5.2s-2.7,2.7-4.5,3.5c-1.8.9-3.9,1.3-6.3,1.3s-2.2-.2-3.5-.5-2.4-.8-3.3-1.5c0,.6,0,1.2,0,1.9v9.5l.9,3.4h-8.3v-35.4c0-.8,0-1.7-.2-2.7,0-1-.3-2.1-.6-3.1-.3-1-.6-1.9-1.1-2.5l7.7-.9h-.1ZM131.7,30.7c-1.1,0-2.2.3-3.3.9-1.1.6-1.9,1.4-2.6,2.3v10c0,1.4.2,2.7.5,3.9.3,1.3,1,2.3,1.8,3.1.9.8,2.1,1.2,3.7,1.2s2.5-.3,3.4-1,1.6-1.6,2.1-2.7c.5-1.1.9-2.3,1.1-3.5.2-1.2.3-2.4.3-3.5s-.1-2.3-.3-3.5-.6-2.4-1.2-3.5c-.6-1.1-1.3-2-2.2-2.6-.9-.7-2.1-1-3.4-1h0Z"/>
  <path class="st0" d="M162.3,17.1c-.3,1.4-.5,2.9-.7,4.4s-.3,3-.4,4.5h7.5l-1.2,4.9h-6.3v16.9c0,.5,0,1,.1,1.7,0,.7.3,1.2.7,1.7s1,.7,1.8.7,1.4,0,2-.2c.7,0,1.3-.3,2-.4l.9,4.6c-1.1.3-2.3.6-3.6.9-1.3.3-2.6.4-3.7.4-2.6,0-4.6-.6-5.8-1.8-1.3-1.2-1.9-3.2-1.9-5.9v-18.6h-5.1v-4.1c1.3,0,2.4-.4,3.3-1,.9-.6,1.8-1.4,2.4-2.3.7-1,1.2-2,1.7-3.1.4-1.1.8-2.2,1-3.3h5.3Z"/>
  <path class="st0" d="M185,25.2c2.8,0,5.2.6,7,1.8,1.8,1.2,3.2,2.8,4.1,4.8.9,2,1.3,4,1.3,6.3s0,1.3-.1,2.1c0,.7-.2,1.4-.4,2.1h-18.7c0,3.3.8,5.8,2.3,7.5,1.6,1.7,3.6,2.6,6.1,2.6s2.5-.2,3.9-.6c1.4-.4,2.8-1,4.3-1.9l2,4.2c-1.4,1.1-3.2,1.9-5.3,2.5-2.1.5-4,.8-5.7.8s-4.5-.4-6.4-1.1c-1.9-.7-3.5-1.8-4.9-3.2-1.3-1.4-2.4-3.1-3.1-5-.7-1.9-1-4.1-1-6.5s.3-4.2,1-6.2,1.6-3.7,2.9-5.2c1.3-1.5,2.8-2.8,4.7-3.6,1.8-.9,3.9-1.3,6.2-1.3h-.2ZM184.7,30.3c-1.4,0-2.5.4-3.4,1.1-.9.7-1.6,1.7-2.1,2.8-.5,1.1-.8,2.2-.9,3.3h11.4c.2-1.2.1-2.3-.2-3.4-.3-1.1-.9-2-1.7-2.7s-1.8-1-3.1-1h0Z"/>
  <path class="st0" d="M209.1,25.5c.9,2.1,1.4,4.2,1.5,6.5,1-1.7,2.5-3.2,4.3-4.5s3.8-1.9,5.9-1.9l-1.2,7.3c-1.8,0-3.4.5-4.8,1.4-1.4.9-2.8,2.4-4,4.3v18.2h-7.4v-22.4c0-.8,0-1.7-.2-2.7-.1-1-.3-2.1-.6-3.1s-.7-1.8-1.2-2.5l7.8-.6h-.1Z"/>
  <path class="st0" d="M32.6,58.6h15.5c2.8,0,5.3.4,7.6,1.1,2.3.8,4.1,2,5.5,3.8s2.1,4.2,2.1,7.4-.5,3.4-1.4,5-2.1,3-3.5,4.1c-1.5,1.1-3,1.9-4.7,2.3l13.8,21.4h-9.6l-12.5-20.1h-3.4v20.1h-8.4v-41.4l-.9-3.8h0ZM42,64.8v12.8h3.9c1.6,0,3-.2,4.3-.6s2.3-1.1,3-2.1,1.1-2.3,1.1-4.1-.3-2.5-1-3.4-1.5-1.6-2.6-2c-1.1-.5-2.2-.7-3.5-.7h-5.3,0Z"/>
  <path class="st0" d="M82.2,72.2c2.8,0,5.2.6,7,1.8,1.8,1.2,3.2,2.8,4.1,4.8s1.3,4,1.3,6.3,0,1.3,0,2.1c0,.7-.2,1.4-.4,2.1h-18.7c0,3.3.8,5.8,2.3,7.5,1.6,1.7,3.6,2.6,6.1,2.6s2.5-.2,3.9-.6,2.8-1,4.3-1.9l2,4.2c-1.4,1.1-3.2,1.9-5.3,2.5-2.1.5-4,.8-5.7.8s-4.5-.4-6.4-1.1-3.5-1.8-4.9-3.2c-1.3-1.4-2.4-3.1-3.1-5s-1-4.1-1-6.5.3-4.2,1-6.2,1.6-3.7,2.9-5.2,2.8-2.8,4.7-3.6c1.8-.9,3.9-1.3,6.2-1.3h-.2ZM81.9,77.3c-1.4,0-2.5.4-3.4,1.1s-1.6,1.7-2.1,2.8c-.5,1.1-.8,2.2-.9,3.3h11.4c.2-1.2,0-2.3-.2-3.4-.3-1.1-.9-2-1.7-2.7-.8-.7-1.8-1-3.1-1h0Z"/>
  <path class="st0" d="M104.1,73.1l5.6,16.1c.3.9.6,1.7.8,2.6.2.8.4,1.7.5,2.6.2-.9.3-1.7.4-2.6s.3-1.7.6-2.6l5.7-16.1h6.7l-10.8,30.9h-6.7l-10.8-30.9h8Z"/>
  <path class="st0" d="M136.8,64.9c0,1.3-.5,2.4-1.4,3.3s-2,1.4-3.3,1.4-2.4-.5-3.3-1.4c-.9-.9-1.4-2.1-1.4-3.3s.5-2.4,1.4-3.3c.9-.9,2.1-1.4,3.3-1.4s2.4.5,3.3,1.4c.9.9,1.4,2,1.4,3.3ZM135.8,73.1v30.6h-7.4v-27.3l-.7-3.3h8.1,0Z"/>
  <path class="st0" d="M156.2,72.2c2.8,0,5.2.6,7,1.8,1.8,1.2,3.2,2.8,4.1,4.8.9,2,1.3,4,1.3,6.3s0,1.3-.1,2.1c0,.7-.2,1.4-.4,2.1h-18.7c0,3.3.8,5.8,2.3,7.5,1.6,1.7,3.6,2.6,6.1,2.6s2.5-.2,3.9-.6,2.8-1,4.3-1.9l2,4.2c-1.4,1.1-3.2,1.9-5.3,2.5-2.1.5-4,.8-5.7.8s-4.5-.4-6.4-1.1-3.5-1.8-4.9-3.2c-1.3-1.4-2.4-3.1-3.1-5-.7-1.9-1-4.1-1-6.5s.3-4.2,1-6.2,1.6-3.7,2.9-5.2c1.3-1.5,2.8-2.8,4.7-3.6,1.8-.9,3.9-1.3,6.2-1.3h-.2ZM155.9,77.3c-1.4,0-2.5.4-3.4,1.1s-1.6,1.7-2.1,2.8c-.5,1.1-.8,2.2-.9,3.3h11.4c.2-1.2.1-2.3-.2-3.4s-.9-2-1.7-2.7-1.8-1-3.1-1h0Z"/>
  <path class="st0" d="M177.3,73.1l4.1,13.9c.3,1,.5,2,.6,3s.2,2,.3,3.1c.2-1.1.3-2.1.4-3.1.1-1,.3-2,.6-3l4.4-13.9h6.8l4.1,13.9c.3,1,.5,2,.6,3,0,1,.2,2,.4,3.1.1-1.1.2-2.1.4-3.1.1-1,.3-2,.6-3l4.4-13.9h6.3l-9.7,30.9h-5.7c-.7-2.3-1.4-4.6-2.1-6.8-.7-2.2-1.4-4.5-2-6.8s-1.1-4.6-1.5-6.9c-.4,2.3-.9,4.7-1.5,6.9-.7,2.3-1.4,4.5-2.1,6.8-.8,2.2-1.5,4.5-2.2,6.8h-5.9l-9.1-30.9h7.8,0Z"/>
  <path class="st0" d="M217,58.6h9.1l-1.8,31.6h-5.5l-1.8-31.6ZM226.2,99.9c0,1.3-.5,2.4-1.4,3.2-.9.9-2,1.3-3.3,1.3s-2.3-.4-3.2-1.3-1.4-2-1.4-3.2.5-2.3,1.4-3.2c.9-.9,2-1.4,3.2-1.4s2.4.4,3.3,1.3c.9.9,1.4,2,1.4,3.2h0Z"/>
</svg>