<?xml version="1.0" encoding="UTF-8"?>
<svg id="Layer_1" xmlns="http://www.w3.org/2000/svg" version="1.1" viewBox="0 0 80 115">
  <!-- Generator: Adobe Illustrator 29.1.0, SVG Export Plug-In . SVG Version: 2.1.0 Build 142)  -->
  <path d="M38.1,1.5c.9,0,1.8,0,2.6.2,3.5.5,6.7,1.9,8.9,4.8,2.5,3.5,1.9,8.1,1.3,12.1.2.2.3.4.5.5.4.4.7.8.7,1.4,0,1.1-.8,2.5-1.6,3.2-.3,4.6-2.6,8.5-5.7,11.9.2,0,.3.2.5.2.9.4,1.7.9,2.3,1.6,1.1,1.2,5.8,9,6.4,10.6-.1.2-.3.4-.4.6,1.1,2,2.2,4.1,2.8,6.4.3,1.2.4,2.3-.2,3.4,3.3,1.5,6.5,3.2,9.7,4.8,1.3.6,2.6,1.3,3.9,2,.7.4,1.5.7,2.1,1.1.4.3.7.5.8,1,.2.8,0,3.7-.3,4.5,0,.3-.2.5-.3.7-.5.7-1.2.9-2,1-.2,1.3,0,2.7-.3,3.9-.2.8-.6,1.1-1.2,1.5,0,2.3.4,4.7.5,7l.9,12.7.3,4.5c0,.9.2,1.8.2,2.7,0,.2-.1.3-.2.4-.2.3-.5.5-.9.6-.4,0-.9,0-1.2-.3-.3-.2-.4-.6-.5-.9-.2-.9-.2-1.9-.3-2.8l-.5-5.1c-.6-6.1-1.1-12.3-1.8-18.4-2.9.4-5.8.5-8.7,1-.3,1.5-.3,3.1-.5,4.6l-1.1,9.4c-.1,1.2-.2,3.2-.5,4.3-.2.2-.4.4-.7.5.2.3.6.6.9.9.7.7,1.5,1.4,2.3,2,1.3,1,3.5,2.3,4.3,3.7.4.8.6,1.8.3,2.6-.2.6-.7,1.1-1.3,1.4-1,.5-2.1.7-3.2.8-2.2.2-4.2-.3-5.9-1.6-.6-.4-1.2-1-1.8-1.3-.6-.3-1.2-.5-1.8-.7-1.1-.4-2.6-.9-3.1-2-.5-1.1,0-4.1.5-5.2.2-.4.5-.8.6-1.3h0c0,0,0,0,0,0-.2,0-.4-.4-.5-.6,0-.8,0-1.8.2-2.7l.5-5.1.4-5.3c0-1.1.1-2.2.4-3.2-.9,0-5.1.7-5.6.5,0,1.3-.2,2.6-.4,3.8l-.8,7.8-.5,5c0,.7,0,1.6-.3,2.3-.2.2-.3.3-.6.3,0,0,0,0,0,.1.3.8,2.1,3.5,2.8,3.8.2.3.6.6.8.9,1.1,1,2.3,1.9,2.7,3.4.2.7.3,1.6,0,2.3-.5.8-1.5,1.2-2.4,1.4-2.5.6-5.6.2-7.8-1.1-1.1-.7-2-1.5-3-2.3-.7-.5-1.4-1-2-1.6-.3-.3-.5-.7-.6-1.1-.2-1,.2-3.5.5-4.6.2-.5.4-1,.7-1.5-.4-.3-.6-.5-.7-.9,0-1.4.1-2.8.2-4.2,0-1.6.6-11.5.3-12.1-.4-.7-1.5-.2-2-.4,0,0,0,0,0,0,0,1.5-.2,3.1-.3,4.6-.2,2.8-.4,5.6-.7,8.4-.2,3.4-.5,6.7-.8,10.1-.1,1.5-.1,3-.4,4.4,0,.4-.2.8-.5,1.1-.3.3-.6.4-1,.4-.4,0-.9-.1-1.2-.4-.3-.3-.4-.7-.4-1.1,0-.7,0-1.5.1-2.3.1-1.6.2-3.1.3-4.7.4-7,.9-14,1.2-21-.4,0-9.3-6.2-10.1-6.8-.7,5.5-1.4,11-2.2,16.4-.2,1.6-.5,3.2-.7,4.8-.1,1-.2,2.1-.4,3.1,0,.4-.2.7-.5.9-.3.3-.9.3-1.3.3-.3,0-.6-.2-.8-.5-.2-.4-.3-.8-.3-1.2,0-1.5.4-3.1.5-4.7l1-9.4c.3-2.3.5-4.5.8-6.8.2-1.7.3-3.5.6-5.2-.1-.1-.2-.2-.4-.4-.3-.3-.4-.6-.5-1-.2-1,0-3.2,0-4.3-.4-.3-1-.5-1.3-.9-.2-.2-.3-.4-.4-.7-.2-1,0-3.3,0-4.4,0-.1.2-.3.3-.4.4-.5.9-.6,1.5-.6,0-1.2,0-2.4,0-3.6-.6-.3-1.2-.5-1.7-.9-.6-.5-.7-1.1-.8-1.8-.2-1.6,0-3.3,0-4.9,0-1.5-.1-3.2.1-4.7,0-.4.2-.8.5-1.1,1-1.1,4.8-1.2,6.3-1.4.3-1.1.6-2.1,1.2-3.2.5-.9,1.1-1.7,1.9-2.3,2.1-1.7,7.9-4.2,10.6-4.9,1.1-2.4.4-4-.1-6.3,0,0,0,0-.1,0-1.2.2-2.3,0-3.3-.8-1.4-1.1-2.2-2.8-2.4-4.5-.2-1.3,0-2.9.7-4,.5-.7,1.3-1,2.1-1.1,0-3.7.4-7.4,3-10.2,2.7-2.9,6.5-4.1,10.3-4.2ZM42.6,58.7c1.1-.2,2.3-.4,3.4-.5.8-.9,1.5-2,2.5-2.8-.6-1-1.2-2-1.7-3.1-.4,0-.9.2-1.3,0-.4-.3-.6-1.1-.8-1.5-.7,2.6-1.3,5.3-2.1,7.9Z" fill="#414042"/>
  <path d="M26.4,34.1h0c.2,0,.2.7.3,1,.2,1,.7,1.9,1.3,2.8,1.5,2,3.8,3.6,6.3,4,1.4.2,3,0,4.1-.8,1-.8,1.6-1.9,1.7-3.1,1.6-.1,2.6-.7,3.8-1.6,1,.4,1.9.8,2.7,1.5,1.1,1,1.9,2.5,2.6,3.8,1.3,2.1,2.5,4.2,3.7,6.3-1.7,2.1-4.6,3.5-7.2,3.9-.4-.7-.6-1.5-.9-2.2.2-.9,1.3-6.6.8-7.2,0-.1-.1,0-.3-.1-.3.2-.3.5-.4.8-.2,1.5-.3,3-.6,4.5-.7,3.8-1.8,7.6-2.8,11.3-1,.2-2.1.2-3.1.4-1.5-2.6-2.9-5.3-4.4-8-.7-1.3-1.4-2.7-2.3-4-.1,0-.2-.2-.3-.2-.3-.1-.7,0-1,.1-.4.2-.8.5-.9.9,0,.2,0,.4,0,.6.4,1,1,1.9,1.6,2.9.9,1.6,1.7,3.2,2.6,4.7-1.4.1-2.5.9-3.7,1.5-.6.3-1.3.8-1.9.9-1.3.2-6.3-1.3-7.9-1.5.4-1,.6-2.2.8-3.3.3.1.6.3.9.3.1,0,.2,0,.3-.1.6-.6,1.5-6.1,1.7-7.3,0-.7.1-1.5,0-2.2,0-1.6-.8-3.3-2-4.4-.2-.2-.4-.4-.8-.4h-.1c0,.5,1.1,1.7,1.3,2.1,1.4,2.6.6,5.9,0,8.6-.2,1-.4,1.9-.7,2.9-2.2-.8-4.5-1.6-6.9-1.6-.7,0-1.4,0-2.2,0,.3-1.4.6-2.7.9-4.1.3-1.2.6-2.3.9-3.5.3-1,.5-2.1.9-3,1.2-2.8,3.7-4,6.4-5.2,1.4-.6,2.9-1.2,4.4-1.8Z" fill="#d5bc2a"/>
  <path d="M24.7,16.8c.3,0,.6,0,.9.2,1.7.5,1.7,1.7,2.4,3,.1.2.3.5.6.6.1,0,.3,0,.4,0,.4-.3.5-.9.6-1.4,1.2.2,2.3.6,3.5.7,0,1.1,0,2.3.8,3.2.7.8,1.8,1.3,2.8,1.4,1.2.1,2.6-.2,3.5-1,1-.9,1.3-2,1.4-3.2.7-.1,1.3-.1,2,0,0,.7,0,1.4.2,2.1.3,1.3,1.5,3.2.9,4.6-.6,1.5-2.8-.6-3.7-.1h0c.1.4.3.6.6.7.8.4,2.1.8,2.9.6.4-.1.6-.3.8-.7.5-1,.2-2.3-.1-3.2.9.5,2.1.9,3.2.7.4,0,.8-.3,1.2-.3h0c-.3,1.9-.7,3.5-1.5,5.1-1.2,2.4-3.8,6.5-6.5,7.4-1.6.5-3.4,0-4.9-.7-3.1-1.6-6.5-4.8-7.7-8.1-.3-.9-.2-1.9-.5-2.7,0-.2,0-.2-.3-.3-.4,0-.6.4-1,.5-.6.2-1.5-.2-2-.5-1.2-.7-2-2-2.3-3.4-.3-1.3-.4-2.9.3-4,.4-.6.9-.9,1.6-1Z" fill="#f2c18a"/>
  <path d="M36.5,27.9c.1,0,.2,0,.4.1.1.2,0,.4,0,.7,0,0,0,.1.2.2,1.7,1.2,3.7,1.8,5.8,1.5.5,0,1-.4,1.5-.4.1,0,.1,0,.2,0,0,.1,0,.2,0,.3-.1.3-.3.4-.6.5-.2,0-.5.1-.7.2-2.6.5-4.7-.3-6.8-1.7,0,0-.2,0-.3,0-.2,0-.4,0-.5-.1,0,0,0-.1,0-.2,0-.4.6-.8,1-1Z" fill="#414042"/>
  <path d="M24.3,18.4c.4,0,.8,0,1.1.2.7.3,1.1,1,1.4,1.7.1.3.2.9,0,1.2,0,.1,0,.1-.2.2,0,0,0,0,0,0-.3-.2-.3-.6-.4-.9-.2.3-.5.6-.5.9,0,.5.2.9.5,1.3,0,0,0,0,0,0,0,.1,0,.3,0,.4-.1,0-.2,0-.3,0-.3,0-.5-.4-.7-.6-.2-.4-.3-1-.2-1.4.2-.6.5-.9,1-1.1-.2-.3-.4-.6-.6-.9-.3-.3-.6-.2-1-.2-.2,0-.4,0-.6-.2,0,0,0,0,0-.1,0-.2.3-.3.5-.5Z" fill="#414042"/>
  <path d="M39,32.1c.5,0,1.1.2,1.6.2.4,0,1,0,1.4,0,0,0,.1.1.1.1,0,.2,0,.2-.1.4-.4.1-.8.1-1.2.2-.6,0-1.4,0-1.8-.4,0-.2,0-.3,0-.5Z" fill="#414042"/>
  <path d="M8.9,63.1c4.2,2.5,8.4,5,12.6,7.6,1,.6,3.6,2.4,4.5,2.7.3,0,.8,0,1.1,0,2.5-.2,5-.5,7.5-.8l19.5-2.1,11.5-1.3c2.1-.2,4.2-.4,6.3-.8,0,1.1,0,2.9-.5,3.8-.4.3-.7.5-1.2.6-2,.4-4.5.5-6.6.8-5.3.6-10.5,1.3-15.8,1.8-4.9.6-9.8,1.1-14.7,1.6-2.2.2-4.4.6-6.5.7-.3,0-.7,0-1,0-.9-.4-1.7-1-2.5-1.5l-4.6-3-6.3-4c-1.1-.7-2.5-1.5-3.5-2.4,0-1.2,0-2.4,0-3.6Z" fill="#add1d6"/>
  <path d="M25.9,73.9h.2c.1.3.1.5.1.8,0,.5,0,2-.3,2.4,0,0-.1,0-.2-.1-.2-.2-.2-.5-.2-.7,0-.6,0-1.8.3-2.3Z" fill="#414042"/>
  <path d="M10.5,68.9c1.3.6,2.5,1.6,3.7,2.3,2.6,1.7,5.3,3.3,7.9,5,.8.5,2.7,1.9,3.5,2.2.4.1.9,0,1.2,0,1.9-.1,3.8-.4,5.7-.6,4.3-.5,8.7-.9,13-1.5,7.9-.9,15.9-1.8,23.8-2.8,0,1.3-.1,2.7-.3,4,0,.2-.2.3-.3.4-.3.2-.6.3-.9.3-2.1.3-4.3.5-6.4.7l-11.7,1.3c-5.8.7-11.6,1.3-17.4,1.9-1.1.1-6.1.8-6.9.6-1-.2-12.9-8.4-14.3-9.6-.2-.2-.4-.4-.5-.6,0-1.2,0-2.5,0-3.8Z" fill="#967734"/>
  <path d="M25.8,79.1c.1,0,.2,0,.3.1.2.4,0,2.1,0,2.6,0,.2,0,.2-.2.4h-.1c0,.1-.1,0-.1,0,0,0,0-.1,0-.2-.2-.7,0-2.4.2-2.9Z" fill="#414042"/>
  <path d="M55.8,59.1c2,.9,4,2,6,3l6.3,3.1c1.1.5,2.1,1,3.2,1.6.2.1.5.3.6.4h0c-.1.3-.3.3-.4.4-.7.2-1.6.2-2.3.3l-4.5.5-29.5,3.2-5.3.5c-1,.1-2.8.4-3.7.3-.7-.1-8.6-5.2-9.8-5.9-1.5-.9-2.9-1.8-4.4-2.6-1-.6-2.1-1.1-3-1.8,1.2-.3,2.4-.3,3.7-.5h0c2.2,2.2,8.3,2.4,11.3,2.4.9.9,2.1,1.6,3.1,2.3,2,1.4,3.9,2.7,5.9,4.1,1,0,2-.1,3-.3l3.7-.4c4.4-.4,8.8-.9,13.2-1.5,1.1-.1,3.7-.4,4.6-.8.2,0,.3-.1.4-.3-.5-.6-5.1-3-6-3.6,1.4-1.5,2.6-3,3.8-4.6Z" fill="#add1d6"/>
  <path d="M35.2,5.6c1.9-.2,3.8.5,5.7.8,1.8.3,3.6.2,5.4,0,.9.5,1.7,1.4,2.3,2.2,2.2,3,2.1,6,1.6,9.5-.8-.4-1.7-.7-2.6-.7-1.4,0-2.5.3-3.3,1.4-.2.3-.3.6-.5.8h-.2c-.7-.2-1.3-.2-2,0,0,0,0,0,0,0-.4-1-1-1.6-1.9-2-1.4-.6-3.2-.5-4.6,0-.8.3-1.4.9-1.8,1.7-1.1-.3-2.3-.5-3.4-.7.2-2.6,1.8-3.9,2.1-6,.2-1.7-.9-3.6.1-5.1.7-1,2.1-1.5,3.2-1.7Z" fill="#f2c18a"/>
  <path d="M37.3,14.5c.4,0,.9,0,1.3,0,.5.1,1.3.4,1.6.9,0,0,0,.1,0,.2-.4.4-1.3-.1-1.8-.3-.3,0-.6,0-.9,0-.5,0-1,.1-1.4.3-.4.1-.7.4-1.1.4-.2,0-.2,0-.2-.2,0-.2,0-.3.2-.4.5-.6,1.6-.8,2.4-.9Z" fill="#414042"/>
  <path d="M46.8,14.7c.3,0,.5,0,.8,0,.7,0,1.5.4,1.9.9.1.2.2.3.2.5h-.1c-.5.2-1-.3-1.4-.5-1.3-.4-1.7.3-2.8.3,0,0-.1-.1-.1-.2,0-.1,0-.3,0-.4.3-.4,1.1-.6,1.6-.7Z" fill="#414042"/>
  <path d="M14,52.3c2.3-.1,4.4.5,6.6,1.2-.3,1.1-.5,2.2-.8,3.4-.5,0-1.1-.2-1.6-.2-.3,0-.7,0-1,.2,0,.1,0,.2,0,.3.9.3,2.5.5,3.5.7,2.2.5,4.4,1.1,6.7,1.5.4,0,.8.1,1.2,0,1.3-.3,3-1.6,4.4-2.1.7-.3,1.3-.3,1.9,0,2.3,1,4,3.2,4.9,5.5-.2.2-.5.3-.7.4-.5-.5-.8-1.1-1.3-1.7-.6-.8-2.5-2.9-3.5-3-.1,0-.1,0-.2,0,0,.2.1.4.3.5.4.4.9.7,1.3,1.1.8.7,2.6,2.5,2.7,3.5,0,.2,0,.4-.2.6-.1.1-.2.2-.4.2-.8-1.4-2.7-3.2-4.2-3.9-.2-.1-.4-.2-.7,0h0c0,.3.1.4.2.6.3.2.6.4.9.6.5.4,1,.8,1.5,1.3.4.3,1.5,1.3,1.5,1.8,0,.1,0,.2-.1.3-.3.1-.6,0-.9,0-.9-.7-2.5-2.7-3.7-2.7-.2,0-.2,0-.4.1,0,.1,0,.2.2.3.8.7,2,1.2,2.8,2.1.1.1.2.3.2.5,0,0,0,0-.1.1-.9.3-2.1-.7-2.8-1.1h0c-1.4,0-2.8.5-4.1,0-.6-.2-.9-.7-1.5-.7-.7,0-1.9.1-2.6.1-2.6,0-7.5-.2-9.6-1.6-.7-.4-1.2-1.1-1.4-1.9-.4-1.9.2-4.1.6-6,0-.4.2-1.2.4-1.6,0-.1.2,0,.3-.1Z" fill="#f2c18a"/>
  <path d="M39.1,82.3s0,0,0,0c.3,0,.6,0,.9-.1,0,1.9-.4,4.1-.6,6l-.7,7.1c-.2,1.8-.4,3.5-.6,5.3,0,0,0,0,0,0-.6.5-3.1.6-3.9.6-.7,0-2.5,0-3.1-.6,0,0-.1,0-.2,0-.4,0-.8-.4-1-.8,0-.6,0-1.3,0-1.9,0-1,.1-2.1.2-3.1l.4-11.2c-.1,0-.3-.3-.4-.4.7,0,8.4-.7,8.9-.9Z" fill="#6e837e"/>
  <path d="M55,80.6h.7c-.4,4.1-.9,8.3-1.4,12.4-.2,1.7-.3,3.6-.6,5.3-.6.5-2.2.6-2.9.6-.8,0-3.3,0-3.8-.6,0,0,0,0,0,0-.3,0-.9-.3-1.1-.5-.1-.1-.1-.3-.1-.4,0-1.6.3-3.6.4-5.2l1-10.8c2.6-.3,5.3-.6,7.9-.9Z" fill="#6e837e"/>
  <path d="M42.5,61h0c0,.4-.4.7-.6,1.1,0,.3,0,.5,0,.8.2.4.6.6,1,.7,0,.2,0,.4,0,.5.2.8.9.6,1.4.8.3,0,.5.3.7.4.4.2.8.1,1.2,0,.2,0,.4.1.5.2.6.2,1.2,0,1.7-.4.1,0,.3.2.5.2.9.1,1.6-.5,2.3-1,1.6,1,3.4,1.9,5,3-1.9.4-3.8.5-5.7.7-4.8.6-9.7,1-14.5,1.6-1,.1-1.9.2-2.9.3-2-1.3-3.9-2.6-5.8-4-.8-.6-1.7-1.1-2.5-1.7.5,0,1,0,1.5,0,.2.1.4.3.5.4,1.4.9,3.1.7,4.6.4.9.4,1.8,1.1,2.8,1.1.5,0,.8-.2,1.2-.5.3,0,.6,0,.9,0,.5,0,1.4-.3,1.8-.6.2-.1.3-.3.4-.5.4.3,1.8,1.6,2.1,1.6h.1c.3-1-.7-3.8-1.1-4.7.9-.1,1.7-.2,2.6-.3Z" fill="#fff"/>
  <path d="M40.6,67.2c.1,0,.3,0,.4,0,.2,0,.2,0,.3.2,0,.2,0,.3-.2.4-.2,0-.4,0-.5,0-.1,0-.1,0-.2-.2,0-.2.1-.3.2-.4Z" fill="#231f20"/>
  <path d="M38.7,65.9c.1,0,.2,0,.3,0,.2,0,.2.1.3.3,0,.2,0,.3-.2.4-.1,0-.2,0-.4,0-.2,0-.2,0-.3-.2,0-.2,0-.3.2-.5Z" fill="#231f20"/>
  <path d="M44,66.9c.1,0,.2,0,.3.1.1.1.1.1.1.3-.1.2-.2.2-.4.3h-.3c-.1-.2-.1-.2-.2-.4,0-.2.2-.2.4-.3Z" fill="#231f20"/>
  <path d="M51.5,66.2s0,0,0,0c0,0,0,0,0,0,0,0,0,0,0,0,0,0,0,0,0,0,0,0,0,0,0,0,0,0,0,0,0,0,0,0,0,0,0,0,0,0,0,0,0,0,0,0,0,0,0,0,0,0,0,0,0,0,0,0,0,0,0,0,0,0,0,0,0,0,0,0,0,0,0,0,0,0,0,0,0,0,0,0,0,0,0,0,0,0,0,0,0,0,0,0,0,0,0,0,0,0,0,0,0,0,0,0,0,0,0,0,0,0,0,0,0,0,0,0,0,0,0,0,0,0,0,0,0,0,0,0,0,0,0,0,0,0,0,0,0,0,0,0,0,0,0,0,0,0,0,0,0,0,0,0,0,0,0,0,0,0,0,0,0,0,0,0,0,0,0,0,0,0,0,0,0,0,0,0,0,0,0,0,0,0,0,0,0,0,0,0,0,0,0,0,0,0,0,0,0,0,0,0,0,0,0,0,0,0,0,0,0,0,0,0,0,0,0,0,0,0,0,0,0,0s0,0,0,0c0,0,0,0,0,0,0,0,0,0,0,0,0,0,0,0,0,0,0,0,0,0,0,0,0,0,0,0,0,0,0,0,0,0,0,0s0,0,0,0c0,0,0,0,0,0s0,0,0,0c0,0,0,0,0,0s0,0,0,0c0,0,0,0,0,0,0,0,0,0,0,0,0,0,0,0,0,0,0,0,0,0,0,0,0,0,0,0,0,0,0,0,0,0,0,0,0,0,0,0,0,0s0,0,0,0c0,0,0,0,0,0,0,0,0,0,0,0,0,0,0,0,0,0,0,0,0,0,0,0,0,0,0,0,0,0,0,0,0,0,0,0Z" fill="#231f20"/>
  <path d="M42.4,65.5s0,0,0,0c0,0,0,0,0,0,0,0,0,0,0,0,0,0,0,0,0,0,0,0,0,0,0,0,0,0,0,0,0,0,0,0,0,0,0,0,0,0,0,0,0,0,0,0,0,0,0,0,0,0,0,0,0,0,0,0,0,0,0,0,0,0,0,0,0,0,0,0,0,0,0,0,0,0,0,0,0,0,0,0,0,0,0,0,0,0,0,0,0,0s0,0,0,0c0,0,0,0,0,0s0,0,0,0c0,0,0,0,0,0,0,0,0,0,0,0,0,0,0,0,0,0,0,0,0,0,0,0,0,0,0,0,0,0,0,0,0,0,0,0,0,0,0,0,0,0,0,0,0,0,0,0,0,0,0,0,0,0,0,0,0,0,0,0,0,0,0,0,0,0,0,0,0,0,0,0,0,0,0,0,0,0,0,0,0,0,0,0,0,0,0,0,0,0,0,0,0,0,0,0,0,0,0,0,0,0,0,0,0,0,0,0,0,0,0,0,0,0,0,0,0,0,0,0,0,0,0,0,0,0,0,0,0,0,0,0,0,0,0,0,0,0,0,0,0,0,0,0,0,0,0,0,0,0,0,0,0,0,0,0,0,0,0,0,0,0,0,0,0,0,0,0,0,0,0,0,0,0s0,0,0,0c0,0,0,0,0,0,0,0,0,0,0,0s0,0,0,0c0,0,0,0,0,0,0,0,0,0,0,0,0,0,0,0,0,0,0,0,0,0,0,0Z" fill="#231f20"/>
  <path d="M34.7,68s0,0,0,0c0,0,0,0,0,0,0,0,0,0,0,0,0,0,0,0,0,0,0,0,0,0,0,0,0,0,0,0,0,0,0,0,0,0,0,0,0,0,0,0,0,0,0,0,0,0,0,0,0,0,0,0,0,0,0,0,0,0,0,0,0,0,0,0,0,0,0,0,0,0,0,0,0,0,0,0,0,0,0,0,0,0,0,0,0,0,0,0,0,0,0,0,0,0,0,0,0,0,0,0,0,0,0,0,0,0,0,0,0,0,0,0,0,0,0,0,0,0,0,0,0,0,0,0,0,0,0,0,0,0,0,0s0,0,0,0c0,0,0,0,0,0,0,0,0,0,0,0,0,0,0,0,0,0,0,0,0,0,0,0,0,0,0,0,0,0,0,0,0,0,0,0,0,0,0,0,0,0,0,0,0,0,0,0,0,0,0,0,0,0,0,0,0,0,0,0,0,0,0,0,0,0,0,0,0,0,0,0,0,0,0,0,0,0,0,0,0,0,0,0s0,0,0,0c0,0,0,0,0,0,0,0,0,0,0,0,0,0,0,0,0,0,0,0,0,0,0,0,0,0,0,0,0,0,0,0,0,0,0,0,0,0,0,0,0,0,0,0,0,0,0,0,0,0,0,0,0,0,0,0,0,0,0,0,0,0,0,0,0,0,0,0,0,0,0,0,0,0,0,0,0,0,0,0,0,0,0,0,0,0,0,0,0,0,0,0,0,0,0,0,0,0,0,0,0,0Z" fill="#231f20"/>
  <path d="M37.7,67.7s0,0,0,0c0,0,0,0,0,0,0,0,0,0,0,0,0,0,0,0,0,0,0,0,0,0,0,0,0,0,0,0,0,0,0,0,0,0,0,0,0,0,0,0,0,0,0,0,0,0,0,0,0,0,0,0,0,0,0,0,0,0,0,0,0,0,0,0,0,0,0,0,0,0,0,0,0,0,0,0,0,0,0,0,0,0,0,0,0,0,0,0,0,0,0,0,0,0,0,0,0,0,0,0,0,0,0,0,0,0,0,0,0,0,0,0,0,0,0,0,0,0,0,0,0,0,0,0,0,0,0,0,0,0,0,0,0,0,0,0,0,0,0,0,0,0,0,0,0,0,0,0,0,0,0,0,0,0,0,0,0,0,0,0,0,0,0,0,0,0,0,0,0,0,0,0,0,0,0,0,0,0,0,0,0,0,0,0,0,0,0,0,0,0,0,0,0,0,0,0,0,0,0,0,0,0,0,0,0,0,0,0,0,0,0,0,0,0,0,0,0,0,0,0,0,0,0,0,0,0,0,0,0,0,0,0,0,0s0,0,0,0c0,0,0,0,0,0,0,0,0,0,0,0,0,0,0,0,0,0,0,0,0,0,0,0,0,0,0,0,0,0,0,0,0,0,0,0,0,0,0,0,0,0,0,0,0,0,0,0,0,0,0,0,0,0,0,0,0,0,0,0,0,0,0,0,0,0,0,0,0,0,0,0,0,0,0,0,0,0s0,0,0,0c0,0,0,0,0,0Z" fill="#231f20"/>
  <path d="M33,66.7s0,0,0,0c0,0,0,0,0,0,0,0,0,0,0,0s0,0,0,0c0,0,0,0,0,0,0,0,0,0,0,0,0,0,0,0,0,0,0,0,0,0,0,0,0,0,0,0,0,0,0,0,0,0,0,0,0,0,0,0,0,0,0,0,0,0,0,0,0,0,0,0,0,0,0,0,0,0,0,0s0,0,0,0c0,0,0,0,0,0,0,0,0,0,0,0,0,0,0,0,0,0,0,0,0,0,0,0,0,0,0,0,0,0,0,0,0,0,0,0,0,0,0,0,0,0,0,0,0,0,0,0,0,0,0,0,0,0,0,0,0,0,0,0,0,0,0,0,0,0,0,0,0,0,0,0,0,0,0,0,0,0,0,0,0,0,0,0,0,0,0,0,0,0,0,0,0,0,0,0,0,0,0,0,0,0,0,0,0,0,0,0,0,0,0,0,0,0,0,0,0,0,0,0,0,0,0,0,0,0,0,0,0,0,0,0,0,0,0,0,0,0,0,0,0,0,0,0,0,0,0,0,0,0,0,0,0,0,0,0,0,0,0,0,0,0,0,0,0,0,0,0,0,0,0,0,0,0,0,0,0,0,0,0,0,0,0,0,0,0s0,0,0,0c0,0,0,0,0,0,0,0,0,0,0,0s0,0,0,0c0,0,0,0,0,0,0,0,0,0,0,0,0,0,0,0,0,0,0,0,0,0,0,0,0,0,0,0,0,0,0,0,0,0,0,0Z" fill="#231f20"/>
  <path d="M49.1,66.4s0,0,0,0c0,0,0,0,0,0,0,0,0,0,0,0,0,0,0,0,0,0,0,0,0,0,0,0,0,0,0,0,0,0,0,0,0,0,0,0,0,0,0,0,0,0,0,0,0,0,0,0,0,0,0,0,0,0,0,0,0,0,0,0,0,0,0,0,0,0,0,0,0,0,0,0,0,0,0,0,0,0,0,0,0,0,0,0,0,0,0,0,0,0,0,0,0,0,0,0,0,0,0,0,0,0,0,0,0,0,0,0,0,0,0,0,0,0,0,0,0,0,0,0,0,0,0,0,0,0,0,0,0,0,0,0,0,0,0,0,0,0,0,0,0,0,0,0,0,0,0,0,0,0,0,0,0,0,0,0,0,0,0,0,0,0,0,0,0,0,0,0,0,0,0,0,0,0s0,0,0,0c0,0,0,0,0,0,0,0,0,0,0,0,0,0,0,0,0,0,0,0,0,0,0,0,0,0,0,0,0,0,0,0,0,0,0,0,0,0,0,0,0,0,0,0,0,0,0,0,0,0,0,0,0,0,0,0,0,0,0,0,0,0,0,0,0,0,0,0,0,0,0,0,0,0,0,0,0,0,0,0,0,0,0,0,0,0,0,0,0,0,0,0,0,0,0,0,0,0,0,0,0,0,0,0,0,0,0,0,0,0,0,0,0,0,0,0,0,0,0,0,0,0,0,0,0,0,0,0,0,0,0,0,0,0,0,0,0,0,0,0,0,0,0,0,0,0,0,0,0,0Z" fill="#231f20"/>
  <path d="M35.7,66.4s0,0,0,0c0,0,0,0,0,0,0,0,0,0,0,0,0,0,0,0,0,0,0,0,0,0,0,0,0,0,0,0,0,0,0,0,0,0,0,0,0,0,0,0,0,0,0,0,0,0,0,0,0,0,0,0,0,0,0,0,0,0,0,0,0,0,0,0,0,0,0,0,0,0,0,0,0,0,0,0,0,0,0,0,0,0,0,0,0,0,0,0,0,0s0,0,0,0c0,0,0,0,0,0,0,0,0,0,0,0,0,0,0,0,0,0,0,0,0,0,0,0,0,0,0,0,0,0,0,0,0,0,0,0,0,0,0,0,0,0,0,0,0,0,0,0,0,0,0,0,0,0,0,0,0,0,0,0,0,0,0,0,0,0,0,0,0,0,0,0,0,0,0,0,0,0,0,0,0,0,0,0,0,0,0,0,0,0,0,0,0,0,0,0,0,0,0,0,0,0,0,0,0,0,0,0,0,0,0,0,0,0,0,0,0,0,0,0,0,0,0,0,0,0,0,0,0,0,0,0,0,0,0,0,0,0,0,0,0,0,0,0,0,0,0,0,0,0,0,0,0,0,0,0,0,0,0,0,0,0,0,0,0,0,0,0,0,0,0,0,0,0,0,0,0,0,0,0,0,0,0,0,0,0,0,0,0,0,0,0,0,0,0,0,0,0,0,0,0,0,0,0,0,0,0,0,0,0,0,0,0,0,0,0,0,0,0,0,0,0,0,0,0,0,0,0,0,0,0,0,0,0Z" fill="#231f20"/>
  <path d="M46.6,66.8s0,0,0,0c0,0,0,0,0,0,0,0,0,0,0,0,0,0,0,0,0,0,0,0,0,0,0,0,0,0,0,0,0,0,0,0,0,0,0,0,0,0,0,0,0,0s0,0,0,0c0,0,0,0,0,0,0,0,0,0,0,0,0,0,0,0,0,0,0,0,0,0,0,0,0,0,0,0,0,0,0,0,0,0,0,0,0,0,0,0,0,0,0,0,0,0,0,0,0,0,0,0,0,0,0,0,0,0,0,0,0,0,0,0,0,0,0,0,0,0,0,0,0,0,0,0,0,0,0,0,0,0,0,0,0,0,0,0,0,0,0,0,0,0,0,0,0,0,0,0,0,0,0,0,0,0,0,0,0,0,0,0,0,0,0,0,0,0,0,0,0,0,0,0,0,0,0,0,0,0,0,0,0,0,0,0,0,0,0,0,0,0,0,0,0,0,0,0,0,0,0,0,0,0,0,0,0,0,0,0,0,0,0,0,0,0,0,0,0,0,0,0,0,0,0,0,0,0,0,0,0,0,0,0,0,0s0,0,0,0c0,0,0,0,0,0,0,0,0,0,0,0,0,0,0,0,0,0,0,0,0,0,0,0s0,0,0,0c0,0,0,0,0,0s0,0,0,0c0,0,0,0,0,0,0,0,0,0,0,0,0,0,0,0,0,0,0,0,0,0,0,0,0,0,0,0,0,0,0,0,0,0,0,0,0,0,0,0,0,0s0,0,0,0Z" fill="#231f20"/>
  <path d="M53,49.2s0,0,0,0c.3.4.6,1.1.8,1.6.8,1.7,2.1,4.1,2,6-.1,1.9-3.8,5.9-5.2,7.1-.3.2-1,.8-1.4.8-.1,0-.1,0-.2-.1,0-.7,1.9-2.3,2.3-3.1,0-.1,0-.2,0-.3,0,0,0,0,0,0-.8-.2-2.7,3.2-3.6,3.7-.1,0-.3,0-.4,0-.7-.8,2.6-3.7,2.6-4.4,0-.1,0-.1-.1-.2,0,0-.1,0-.2,0-.7.2-2.8,3.3-3.1,4.1,0,.1-.2.2-.3.3-.2,0-.5,0-.7,0-.6-1,2.7-4.3,2.7-4.9,0,0,0,0,0,0,0,0,0,0-.1,0-1.3.2-2.6,3.4-3.4,4.4-.1.1-.2.2-.4.2-.2,0-.2,0-.4-.2,0-.4,0-.8.2-1.1.9-2.3,3.9-6.1,6-7.4.5-.3,1.1-.5,1.6-.7.3-.1.5-.2.6-.5-.1-.1-.2-.2-.4-.2-.7-.2-2.1.7-2.7,1.1l-1.6-2.9c2.1-.6,3.8-1.5,5.5-2.9Z" fill="#f2c18a"/>
  <path d="M37.6,2.3c2.6-.2,5.9.5,8.1,1.8,1.7,1,3.4,2.6,4.2,4.4.3.6.4,1.2.6,1.8h0c0,0,0,0,0,0h.1c0,.1,0,0,0,0h0c-.6-1.6-2.3-4.1-3.9-4.9-1,0-2,.2-3.1.2-2.1,0-4-.5-6.1-.9-1.9-.3-3.7,0-5.3,1.1-.6.6-1.1,1.1-1.3,2-.4,1.5.5,3,.2,4.6-.2,1.1-.8,2.1-1.3,3.1-.4.8-.6,1.7-.7,2.6-.3,0-.5,0-.8-.1-.7-1.2-1.4-1.6-2.6-2.1,0,0,0,0,0,0-.2-3.3.3-6.9,2.6-9.4,2.4-2.7,5.9-4,9.5-4.2Z" fill="#967734"/>
  <path d="M37.3,101.8c.3.2,1.8,2.6,2.3,3.2,1.1,1.3,2.6,2.2,3.6,3.5.3.5.4,1,.7,1.5h0c0,.1,0,.1,0,.2-1,.9-3.7,1.1-5,1-.8,0-3.3-.5-3.8-1.1,0,0,0,0,0,0-.7,0-2.2-1.7-2.8-2.1-.6-.5-1.2-.9-1.8-1.4-.3-.3-.6-.6-.8-.9-.4-.6.2-2.9.4-3.6.3.6.7,1.1,1.3,1.5.6.4,1.5.7,2.3.5.8-.2,1.7-1.2,2.1-1.9,0,0,0,0,0,0,.3,0,1.3-.2,1.6-.4Z" fill="#325700"/>
  <path d="M52.6,99.5c.1,0,.4,0,.5,0,.2.1.4.5.5.7.4.4.9.8,1.4,1.2.6.6,1.2,1.1,1.8,1.7.9.7,1.9,1.3,2.8,2,.4.4,1.1,1,1.1,1.6,0,.2,0,.4-.2.6-.8.8-2.9,1.1-4,1.1-1,0-3.2-.3-3.9-1-.4,0-1.1-.6-1.4-.9-1.6-1.3-3-1.5-4.7-2.4-.6-.3-1.1-.8-1.4-1.5,0-.9.2-1.7.5-2.6h0c.5.9,1.3,1.5,2.2,1.8.8.2,1.7,0,2.3-.6.3-.4.5-.9.9-1.2.5-.3,1.1-.2,1.6-.5Z" fill="#325700"/>
  <path d="M29.3,30.6c.3.2,1,1.3,1.4,1.7,2,2.2,4.3,4.1,7.1,5.1,0,.2-.2.3-.2.5-.1.3-.3.7-.2,1,.2,0,.2,0,.4,0,.3-.3.5-.9.7-1.3l1.2.2c-.3.9-.5,1.5-1.1,2.2-.5.4-1,.7-1.7.9-1.9.5-3.8-.2-5.3-1.2-2.2-1.3-3.4-3-4-5.5.1,0,.3-.2.4-.3,1-.8,1.3-2.2,1.5-3.4Z" fill="#f2c18a"/>
  <path d="M24.6,83.5c.2.1.4.2.6.2.4,0,1.2.2,1.6,0,0,1.9-.3,3.8-.4,5.8-.3,4-.6,7.9-1,11.8l-.5,6.3c0,1.1-.1,2.4-.4,3.5,0,.2,0,.4-.2.5-.2.2-.4.3-.7.3-.2,0-.3-.1-.4-.2-.2-.3-.2-.7-.2-1,0-1.5.2-3,.3-4.4.2-3.4.4-6.8.6-10.2l.5-8c0-1.5,0-3,.2-4.4Z" fill="#d8d9da"/>
  <path d="M67.6,79.3h.2c.3.4.6,6.8.7,7.7l.9,12.4c.1,1.4.2,2.8.3,4.2,0,.7.2,1.5,0,2.2,0,.2-.1.3-.3.3-.1,0-.4.1-.5,0-.2,0-.2-.2-.3-.3-.2-.2-.2-.5-.2-.8-.2-1.4-.3-2.9-.4-4.4l-.8-8.1c-.3-3-.6-6-.8-8.9-.1-1.4-.3-2.8-.4-4.2.5,0,1.1,0,1.6-.2Z" fill="#d8d9da"/>
  <path d="M11.3,74.5c.6.3,1.2.8,1.7,1.3-.2,2.3-.6,4.7-.9,7l-1.4,10.5-.7,4.9c0,.7-.1,1.6-.3,2.3,0,.1,0,.2-.1.3-.1.1-.4.3-.6.3-.2,0-.3,0-.4-.2-.2-.3-.2-.7-.2-1,0-1.3.3-2.6.5-3.9l.9-8.4.8-7.3c.2-1.9.3-3.8.6-5.7Z" fill="#d8d9da"/>
  <path d="M36.6,17.8c1,0,2,0,2.9.4.6.3,1,.8,1.2,1.4.2.8,0,1.8-.3,2.5-.5.9-1.4,1.3-2.3,1.6-1,.1-2.1,0-3-.5-.7-.5-1.1-1.2-1.2-2-.1-.7-.1-1.5.3-2.1.6-.8,1.6-1,2.5-1.2Z" fill="#f2c18a"/>
  <path d="M39,20.2c.1,0,.2,0,.3.2,0,0,.1.2.1.3,0,.3-.2.5-.4.7,0,0,0,0,0,0,0,0,0,0,0,0,0,0,0,0,0,0,0,0,0,0,0,0,0,0,0,0-.1,0,0,0,0,0-.1,0,0,0,0,0-.1,0,0,0,0,0-.1,0,0,0,0,0-.1,0,0,0,0,0-.1,0,0,0,0,0-.1,0,0,0,0,0-.1,0,0,0,0,0-.1,0,0,0,0,0-.1,0,0,0,0,0-.1,0,0,0,0,0-.1,0-.6,0-1.1-.3-1.6-.7,0,0,0,0,0,0-.1-.2-.2-.5-.2-.8,0-.1,0,0,.1-.1.4,0,.5.3.7.6.3.3.7.5,1,.5.8,0,1.1-.7,1.5-1.2h0Z" fill="#414042"/>
  <path d="M46.9,18.1c1.1-.1,2.1.2,3.1.7,0,.7-.2,4.5-.5,4.8-.4.4-1.4.5-1.9.5-.8,0-1.5-.2-2.1-.6-.6-.5-.9-1.1-1.1-1.9-.1-.8,0-1.8.5-2.5.5-.7,1.2-.9,2-1Z" fill="#f2c18a"/>
  <path d="M45.3,20.5c.6,0,.8.9,1.4,1.2,1.4.5,1.1-.8,1.9-1.1.1,0,.2,0,.2.2.1.2.1.4,0,.7-.3.5-.5.8-1.1,1-.6.2-1.2.1-1.7-.2-.4-.2-.7-.5-.9-.9,0-.3,0-.5,0-.8Z" fill="#414042"/>
  <path d="M13.3,45.3h.2c0,0,0,.2,0,.3,0,.4-.2.8-.3,1.2-.4,1.6-.8,3.2-1,4.9-.1.8.2.4.5.9,0,.1-.8,4.2-.9,4.8-.2,0-.2,0-.4,0-.3,0-.6,0-.8-.1,0,0,0,0,0-.1-.2-1.2-.5-10.5,0-11.2.4-.5,2.1-.5,2.7-.6Z" fill="#add1d6"/>
  <path d="M13.8,43.9h.1c0,.2,0,.3,0,.4-.2.2-.5.2-.8.3-.9,0-2.4.1-3.1.8-.2.2-.3.5-.4.8-.2,1.2-.2,2.5-.2,3.7,0,2.3,0,4.6.2,6.8l-.8-.4c0,0-.2-.1-.3-.2-.4-.3-.4-.6-.5-1.1-.1-1.6,0-3.3,0-5,0-1.4,0-2.9.1-4.3,0-.3,0-.5.3-.7.9-1,4-1,5.3-1.1Z" fill="#add1d6"/>
  <path d="M45,103.9c.3.2.5.6.7.8.8.7,2.4,1,3.4,1.5.8.4,1.4,1.1,2.1,1.6,1.5,1.1,3.8,1.5,5.6,1.4,1.2,0,3.1-.3,3.9-1.2,0,.3,0,.6-.3.8,0,0,0,.2-.2.2-.8.8-3.1,1.1-4.2,1.1-1.7,0-3.5-.6-4.8-1.7-.5-.4-.9-.9-1.5-1.2-1.4-.7-3.4-.9-4.6-2.1-.3-.3-.2-.8-.2-1.1Z" fill="#1a373a"/>
  <path d="M29.4,106.3c0,0,0,0,0,0,.8,1.3,1.9,1.8,3,2.8.6.6,1.3,1.1,2,1.5,2.1,1.2,5.2,1.5,7.5,1,.3,0,.6-.1.8-.2.3-.1.8-.5,1.1-.6,0,0,0,0,0,.1,0,.2,0,.3-.2.4,0,.2-.2.3-.4.4-1.9,1.1-4.6,1.1-6.7.6-.8-.2-1.6-.5-2.3-1-1-.6-1.7-1.5-2.6-2.2-.6-.5-1.3-.8-1.9-1.3-.2-.2-.4-.4-.6-.6-.1-.3-.1-.6-.1-1Z" fill="#1a373a"/>
  <path d="M33,50.8c0,0,.1,0,.2.1.6.8,1,1.8,1.5,2.7l2.3,4.2-.6-.5c-.4-.3-1-.5-1.4-.9-.5-.5-2.3-4.1-2.8-5h0c.2-.4.5-.5.8-.6Z" fill="#e9a228"/>
  <path d="M46.2,98.9c.3,0,.7.3,1,.4.8.3,2.3.6,3.1.2-.1.3-.3.7-.6.9-.1.2-.2.4-.4.5-.3.2-.7.2-1,.2-.7-.1-1.4-.5-1.8-1-.2-.4-.3-.7-.2-1.1Z" fill="#4a462f"/>
  <path d="M44.7,59.2c0,0,0,0,.2,0,0,0,0,0,0,.1-.2.3-.9.7-1.3.8-1.1.3-2.7.2-3.9.4h0c-.2-.2-.3-.5-.5-.8,1.8,0,3.8-.4,5.6-.6Z" fill="#add1d6"/>
  <path d="M31,101.6c.8.2,3.1.6,3.8.4-.1.3-.3.6-.6.7,0,.1-.1.2-.2.3-.3.3-.8.3-1.2.3-.6,0-1.3-.4-1.7-.8,0,0,0-.2-.1-.3,0-.2,0-.4,0-.6Z" fill="#4a462f"/>
  <path d="M10.5,58.1h1.2c0,.6,0,1.3,0,1.9,0,.3.4.8.3,1-.5,0-1,.1-1.6.2,0-1,0-2.1,0-3.1Z" fill="#d8d9da"/>
  <path d="M30.8,47.8c.1,0,.3,0,.4,0,.4.1.7.9.9,1.3-.2.2-.3.3-.5.4-.1,0-.3.2-.4.2-.4-.4-.7-.9-.7-1.5,0-.2.2-.2.4-.4Z" fill="#6e837e"/>
  <path d="M44.3,60.6h0c0,0,0,.1,0,.2,0,.2-1,2-1.2,2.1,0,0-.1,0-.2,0,0,0-.1-.1-.2-.2,0-.2,0-.3,0-.5.2-.6.9-1.4,1.5-1.7Z" fill="#f2c18a"/>
  <path d="M50.7,19.7c.1.1.3.3.3.5.2.7,0,1.5-.4,2.2,0,0,0,0-.1,0-.2-.4,0-2.2.2-2.7Z" fill="#f2c18a"/>
  <path d="M39.8,63.4s0,0,0,0c.1.3.3.8.2,1.1-.2,0-.2,0-.3,0-.2-.2-.5-.5-.7-.7.3-.1.5-.3.8-.4Z" fill="#f2c18a"/>
  <path d="M32.4,49.7s0,0,0,0c.1.1.2.2.1.3-.2.2-.6.4-.8.5,0,0,0,0,0,0-.1-.1-.2-.2-.2-.3.2-.2.6-.3.9-.5Z" fill="#6e837e"/>
</svg>