<?xml version="1.0" encoding="UTF-8"?>
<svg id="Layer_1" xmlns="http://www.w3.org/2000/svg" width="80" height="115" version="1.1" viewBox="0 0 80 115">
  <!-- Generator: Adobe Illustrator 29.4.0, SVG Export Plug-In . SVG Version: 2.1.0 Build 152)  -->
  <defs>
    <style>
      .st0 {
        fill: #414042;
      }

      .st1 {
        fill: #231f20;
      }

      .st2 {
        fill: #4a462f;
      }

      .st3 {
        fill: #f2c18a;
      }

      .st4 {
        fill: #fff;
      }

      .st5 {
        fill: #afd1d6;
      }

      .st6 {
        fill: #d5bc2a;
      }

      .st7 {
        fill: #6e837e;
      }

      .st8 {
        fill: #967734;
      }

      .st9 {
        fill: #325700;
      }

      .st10 {
        fill: #e9a228;
      }

      .st11 {
        fill: #d8d9da;
      }
    </style>
  </defs>
  <path class="st0" d="M38.041,1.537c10.751.193,15.078,6.933,12.791,17.095,1.984,1.399,1.032,3.736-.445,5.121-.297,4.589-2.61,8.535-5.666,11.888,1.033.471,2.065.962,2.845,1.806,1.101,1.175,5.839,9.043,6.395,10.601-.124.235-.285.433-.445.643,1.378,2.926,4.07,6.453,2.66,9.76,4.545,2.2,9.061,4.515,13.57,6.791.983.619,2.547.883,2.944,2.09.161.829-.074,3.686-.272,4.54-.192,1.114-1.282,1.608-2.288,1.757-.352,1.794.44,4.407-1.522,5.443.498,7.919,1.553,18.985,1.967,26.905-.387,1.418-2.674,1.293-2.808-.21-.288-1.816-.555-5.972-.767-7.855-.569-6.123-1.064-12.283-1.781-18.394-2.882.408-5.839.482-8.696.977-.718,5.14-1.337,13.149-2.14,18.246-.173.235-.371.421-.668.482,1.981,2.512,5.633,4.062,7.459,6.581,1.65,3.262-1.25,4.677-4.107,4.787-3.013.387-5.494-1.133-7.768-2.895-1.614-.835-3.974-.95-4.911-2.721-.605-1.754.209-4.877,1.113-6.47v-.049c-.236-.056-.389-.409-.495-.619.28-5.051.866-11.243,1.41-16.279-.891.062-5.084.717-5.591.544-.57,5.735-1.281,13.233-2.041,18.926-.173.173-.334.309-.594.309.345.816,2.093,3.599,2.857,3.921,1.136,1.44,3.014,2.366,3.513,4.268.731,1.935-.609,3.401-2.499,3.686-3.927,1.049-7.992-.623-10.774-3.39-.966-.796-2.291-1.439-2.647-2.733-.238-1.758.24-4.517,1.249-6.049-.359-.26-.581-.47-.742-.878-.022-3.531.846-13.359.445-16.205-.359-.693-1.46-.173-2.016-.396-.012,0-.025,0-.037-.012-.458,7.695-1.162,15.372-1.831,23.058-.281,1.86.342,7.613-3.019,5.517-.284-.297-.383-.73-.396-1.138.09-2.305.353-4.638.445-6.952.371-7.001.915-13.991,1.225-20.992-.383-.037-9.302-6.16-10.106-6.816-1.032,8.126-2.154,16.251-3.266,24.357-.369,1.896-3.24,1.446-2.882-.544.936-8.267,1.965-17.801,2.944-26.039-1.538-1.212-.787-3.867-.841-5.616-2.521-.9-1.695-3.882-1.732-6,.319-.723,1.027-1.004,1.769-1.027-.025-1.212-.025-2.437,0-3.649-1.23-.454-2.511-1.19-2.486-2.672-.092-3.138-.266-6.418.074-9.537.342-2.56,4.812-2.196,6.791-2.474.789-6.19,8.602-8.575,13.632-10.341,1.126-2.387.433-3.996-.111-6.333-5.4,1.365-8.699-9.206-2.994-10.379-.743-8.394,4.961-14.429,13.323-14.473l-.037.037ZM42.544,58.736c1.126-.173,2.251-.371,3.389-.507.755-.915,1.546-2.029,2.474-2.759-.619-.977-1.175-2.016-1.707-3.055-1.377.445-1.677-.456-2.091-1.546-.656,2.635-1.348,5.245-2.066,7.867Z"/>
  <path class="st6" d="M26.352,34.108h.087c.455,1.221.702,2.686,1.608,3.748,2.523,4.142,11.209,6.486,12.197.05,1.559-.111,2.635-.668,3.835-1.62,4.882,1.759,6.247,7.676,9.018,11.603-1.707,2.066-4.577,3.525-7.224,3.884-.359-.705-.594-1.509-.928-2.239.077-.883,1.628-7.153.581-7.274-.285.173-.346.482-.396.792-.463,5.36-1.968,10.592-3.439,15.747-1.014.21-2.103.247-3.13.371-2.321-3.915-4.246-8.077-6.68-11.925-.682-.652-1.933-.062-2.214.73-.01,1.254,1.09,2.345,1.608,3.451.866,1.571,1.695,3.179,2.623,4.701-2.08.202-3.626,1.828-5.567,2.363-1.274.21-6.321-1.262-7.917-1.497.383-1.027.581-2.19.829-3.266.37.117.858.462,1.2.186.581-.606,1.546-6.098,1.682-7.249.356-2.46-.151-5.957-2.684-7.039l-.111.124c-.025.408,1.076,1.546,1.324,2.004,1.758,3.588.143,7.806-.68,11.442-2.912-1.05-5.944-1.921-9.067-1.509,2.392-11.119,1.995-13.598,13.446-17.578h0Z"/>
  <path class="st3" d="M24.706,16.789c2.07.009,2.63,1.632,3.266,3.179.678,1.355,1.57.185,1.546-.817,1.175.223,2.338.557,3.513.73-.708,5.993,8.62,6.121,8.548.309.717-.148,1.274-.099,1.979.087-.305,2.239,1.761,4.439,1.114,6.63-.594,1.484-2.808-.557-3.736-.148l-.037.124c.661.989,2.414,1.379,3.538,1.126,1.589-.565,1.071-2.709.693-3.921,1.308.851,2.924.911,4.342.346l.049.136c-.88,5.553-6.058,15.528-12.914,11.665-3.956-2.045-7.957-6.205-8.238-10.812-.062-.173-.099-.21-.26-.284-4.327,2.947-8.133-7.284-3.402-8.35Z"/>
  <path class="st0" d="M36.446,27.935c.136.012.223.062.346.124.124.21.037.421.062.656,1.561,1.379,3.86,1.966,5.925,1.658.565-.024,1.214-.623,1.695-.346.082.434-.285.681-.643.816-2.699.857-5.282-.024-7.521-1.559-.284.058-.557.116-.804-.074-.204-.533.58-1.01.94-1.274h0Z"/>
  <path class="st0" d="M24.249,18.447c1.191-.128,2.174.805,2.499,1.893.124.386.325,1.207-.186,1.373-.339-.177-.384-.579-.445-.915-.677.644-.632,1.57.025,2.214,0,.012.025.037.025.049.049.148.025.247-.025.396-.429.184-.817-.273-1.014-.606-.568-.921-.138-2.157.841-2.573-.161-.297-.359-.606-.606-.854-.436-.486-1.14.053-1.571-.433-.037-.273.257-.442.458-.557v.012Z"/>
  <path class="st0" d="M38.932,32.091c.954.269,2.058.173,3.018.235.025,0,.111.111.136.136,0,.186-.025.235-.111.396-.944.199-2.24.339-3.055-.272-.087-.21-.037-.285,0-.495h.012Z"/>
  <path class="st5" d="M8.848,63.153c5.68,3.202,11.484,7.122,17.132,10.23,13.867-1.144,32.115-3.355,45.93-4.948-.087,1.051.037,2.882-.52,3.773-2.19,1.293-5.25.865-7.731,1.361-5.257.643-10.515,1.261-15.772,1.843-7.39.63-14.876,2.104-22.229,2.215-1.743-.882-5.314-3.434-7.026-4.466-2.296-1.592-7.698-4.623-9.785-6.383-.062-1.2-.049-2.437,0-3.637v.012Z"/>
  <path class="st0" d="M25.857,73.927l.223.111c.223.753.241,2.415-.148,3.055-.326-.144-.394-.532-.408-.854-.05-.643-.087-1.818.334-2.313h0Z"/>
  <path class="st8" d="M10.505,68.967c5.049,2.935,10.017,6.628,15.042,9.525,14.57-1.006,29.163-3.219,43.716-4.837-.074,1.336-.124,2.697-.297,4.02-.188.504-.749.684-1.237.755-2.128.309-4.305.482-6.445.717-9.159.956-20.031,2.229-29.107,3.117-1.101.111-6.123.804-6.915.606-1.266-.592-13.415-8.492-14.77-10.143-.087-1.249-.062-2.524,0-3.773l.012.012Z"/>
  <path class="st0" d="M25.795,79.11c.124.025.173.049.272.124.235.433.087,2.128,0,2.635.002.233-.142.342-.334.458l-.111-.062c-.311-.735-.192-2.473.161-3.167l.012.012Z"/>
  <path class="st5" d="M55.768,59.132c3.544,1.642,8.69,4.442,12.284,6.148,1.24.699,2.724,1.147,3.798,2.054l-.049.136c-.765.531-1.87.394-2.771.544,0,0-4.503.519-4.503.519-6.705.615-32.173,3.73-38.397,4.021-4.469-2.393-12.473-7.51-17.17-10.23,1.225-.346,2.437-.285,3.674-.495,2.2,2.248,8.292,2.42,11.343,2.437,2.837,2.32,6.039,4.255,9.055,6.358,6.61-.539,13.341-1.292,19.916-2.115,1.247-.282,4.151-.193,4.973-1.126-.495-.594-5.059-3.031-6-3.6,1.416-1.462,2.626-3.043,3.847-4.651Z"/>
  <path class="st3" d="M35.171,5.607c3.707.023,7.331,1.479,11.084.792,3.952,2.588,4.722,7.334,3.872,11.69-2.21-1.218-5.404-1.075-6.47,1.497-.728-.226-1.39-.232-2.128-.074,0-.025-.025-.062-.025-.087-1.146-3.225-6.967-3.277-8.337-.235-1.138-.272-2.288-.495-3.427-.742.223-2.598,1.843-3.897,2.091-6-.182-3.694-1.41-5.865,3.34-6.841Z"/>
  <path class="st0" d="M37.287,14.501c.995-.063,2.25.166,2.857,1.027-.07.774-1.37.053-1.806-.062-1.196-.338-2.311.292-3.402.581-.148-.074-.161-.062-.235-.223.192-1.036,1.712-1.216,2.573-1.311l.012-.012Z"/>
  <path class="st0" d="M46.775,14.748c1.002-.093,2.791.229,2.857,1.46l-.111.074c-.495.074-.965-.371-1.41-.569-1.348-.359-1.707.272-2.833.285-.655-.806.95-1.192,1.497-1.249h0Z"/>
  <path class="st3" d="M13.957,52.341c2.264-.099,4.441.482,6.581,1.175-.285,1.113-.532,2.239-.816,3.352-.836-.061-1.848-.519-2.622-.049-.049.136-.062.148-.012.297,3.708.575,7.588,1.921,11.356,2.178,1.324-.273,3.031-1.596,4.367-2.116,3.218-.831,5.724,2.98,6.804,5.542-.223.148-.47.272-.717.396-1.161-1.521-2.857-4.157-4.8-4.688q-.111,0-.198.074c.138.766,1.036,1.108,1.546,1.621.692.694,4.072,3.576,2.14,4.231-1.004-1.44-3.003-3.864-4.849-4.008l-.037.148c.567.996,1.914,1.401,2.659,2.301.354.402,1.898,1.449,1.311,2.029-.272.111-.606.025-.891-.012-.942-.723-2.789-3.187-4.095-2.499.682,1.15,2.777,1.418,3.216,2.82-.89.606-2.242-.679-3.043-1.014-1.398.099-2.771.544-4.144,0-.557-.223-.891-.705-1.522-.755-.705-.049-1.856.111-2.635.124-2.573.025-7.447-.235-9.649-1.608-2.564-1.698-1.223-5.407-.767-7.855.173-.516.097-1.686.817-1.682Z"/>
  <path class="st7" d="M39.031,82.302c.283.124.648.035.915-.099-.356,5.742-1.382,12.657-1.868,18.407-.556.607-3.121.656-3.946.656-.742-.012-2.536-.074-3.055-.606-.442.026-.96-.406-1.2-.755.05-3.411.52-12.679.606-16.23-.136-.074-.285-.297-.371-.433.742.062,8.424-.717,8.919-.915v-.025Z"/>
  <path class="st7" d="M54.964,80.644l.73-.062c-.655,5.934-1.259,11.877-2.041,17.788-.594.507-2.152.581-2.919.594-.792.012-3.253-.037-3.798-.557-.471-.02-1.339-.375-1.262-.965,0-1.621.297-3.563.445-5.208l.952-10.762c2.61-.334,5.257-.581,7.88-.854l.012.025Z"/>
  <path class="st4" d="M42.445,61.037l.099.025c-.624,1.149-1.164,2.002.52,2.548-.094,1.095.673,1.17,1.497,1.336.589.349,1.218.717,1.917.371.759.388,1.539.281,2.239-.173.982.559,1.97-.227,2.721-.829,1.645,1.027,3.352,1.942,4.998,2.969-7.677,1.137-15.428,1.778-23.144,2.598-2.748-1.877-5.534-3.743-8.226-5.678.495,0,.99-.025,1.484-.074,1.424,1.247,3.411,1.159,5.134.742,1.192.543,2.813,1.85,3.971.581,1.021.12,2.446-.073,3.043-1.002.359.309,1.806,1.596,2.14,1.633l.099-.111c.297-.94-.68-3.662-1.076-4.626.854-.148,1.732-.223,2.598-.322l-.012.012Z"/>
  <path class="st1" d="M40.602,67.259c.265-.02.55-.042.68.235-.012.186-.074.272-.198.421-.25-.007-.642.058-.742-.247.025-.186.124-.272.247-.408h.012Z"/>
  <path class="st1" d="M38.635,65.911c.259-.01.551.023.656.297,0,.186-.049.26-.148.421-.251.002-.544-.002-.68-.247,0-.198.062-.309.173-.47h0Z"/>
  <path class="st1" d="M43.954,66.888c.124.025.223.062.346.111.099.136.136.148.136.322-.124.161-.173.173-.371.247l-.297-.062c-.124-.111-.148-.111-.173-.285.087-.186.186-.235.359-.334Z"/>
  <path class="st1" d="M51.512,66.27s.025,0,.025-.012c.062.009.274-.019.322.012,0,0,.025,0,.025.012,0,0,.025.012.025.025.018.018.044.044.074.074l.012.025s0,.025.012.025c-.009.062.019.274-.012.322,0,0,0,.025-.012.025,0,0-.012.025-.025.025-.018.018-.044.044-.074.074l-.025.012s-.025,0-.025.012c0,0-.025,0-.037.012-.091-.009-.202.019-.297-.012,0,0-.025,0-.025-.012,0,0-.025-.012-.025-.025-.065-.061-.115-.105-.099-.198.009-.075-.019-.18.012-.26,0,0,0-.025.012-.025,0,0,.012-.025.025-.025.018-.018.044-.044.074-.074l.025-.012h.012Z"/>
  <path class="st1" d="M42.383,65.552s.025,0,.025-.012c.057.009.268-.019.309.012,0,0,.025,0,.025.012.026.026.06.06.099.099,0,.005.024.054.025.049-.009.06.019.266-.012.309,0,0,0,.025-.012.025,0,0,0,.012-.025.025-.03.038-.086.08-.136.111-.012,0-.025,0-.049.012-.076-.007-.162.016-.247-.012-.012,0-.025-.012-.037-.025-.055-.018-.086-.087-.124-.136,0-.012-.012-.025-.025-.037,0-.012,0-.025-.012-.049.009-.083-.028-.201.037-.272.018-.055.087-.086.136-.124l.025.012Z"/>
  <path class="st1" d="M34.714,68.002s.025,0,.025-.012c0,0,.025,0,.025-.012.057.009.268-.019.309.012,0,0,.025,0,.025.012.026.026.06.06.099.099,0,0,0,.012.012.025,0,0,0,.025.012.025-.01.082.02.236-.012.309,0,0,0,.025-.012.025-.008.034-.053.06-.087.099,0,0-.025.012-.037.025-.012,0-.025.012-.037.025-.012,0-.025,0-.049.012-.077-.007-.164.016-.247-.012-.012,0-.025-.012-.037-.025-.055-.018-.086-.087-.124-.136-.019-.085-.023-.186,0-.285,0-.012,0-.025.025-.037,0-.012.012-.025.025-.037,0-.012.025-.025.025-.037.013-.01.044-.054.074-.062l-.012-.012Z"/>
  <path class="st1" d="M37.707,67.742c.012,0,.025-.012.037-.025.093-.018.219-.025.322,0,.012,0,.025.012.037.025.013.006.056.032.062.062,0,0,.012.025.025.037,0,.012.012.025.025.037,0,.012,0,.025.012.037-.008.068.018.163-.012.235,0,.012-.012.025-.025.037-.002.028-.041.04-.049.074,0,0-.025.025-.037.025,0,0-.025.012-.037.025,0,0-.025,0-.025.012-.053-.008-.28.018-.309-.012-.034-.008-.06-.053-.099-.087-.001-.011-.021-.04-.025-.049,0,0,0-.025-.012-.025.008-.052-.018-.251.012-.285,0,0,0-.012.012-.025,0,0,0-.012.025-.025.021-.021.045-.045.074-.074h-.012Z"/>
  <path class="st1" d="M32.932,66.715c.048.008.264-.017.285.012.044.019.1.081.124.136,0,0,0,.025.012.025-.008.049.018.244-.012.272,0,0,0,.012-.012.025-.008.034-.053.06-.087.099,0,0-.012,0-.025.012-.012,0-.025.012-.037.025-.012,0-.025,0-.037.012-.062-.008-.158.018-.223-.012-.012,0-.025-.012-.037-.025-.028-.002-.04-.041-.074-.049,0,0-.025-.025-.025-.037,0,0-.012-.025-.025-.037-.018-.085-.025-.207,0-.297,0-.012.012-.025.025-.037.006-.013.032-.056.062-.062,0,0,.025-.012.037-.025.016,0,.035-.024.049-.037Z"/>
  <path class="st1" d="M49.026,66.443s.012,0,.025-.012c.06.007.218-.016.26.012.034.008.06.053.099.087,0,0,0,.012.012.025,0,0,0,.012.012.025-.007.046.016.243-.012.26,0,0,0,.012-.012.025,0,0,0,.012-.025.025-.019.013-.042.055-.074.062,0,0-.025.012-.037.025-.012,0-.025,0-.037.012-.075-.008-.164.018-.235-.012-.012,0-.025-.012-.037-.025-.013-.006-.056-.032-.062-.062,0,0-.012-.025-.025-.037,0,0-.012-.025-.025-.037,0-.012,0-.025-.012-.037.007-.061-.017-.13.012-.186,0-.012,0-.025.025-.037,0-.012.012-.025.025-.037.006-.013.032-.056.062-.062,0,0,.025-.012.037-.025l.025.012Z"/>
  <path class="st1" d="M35.666,66.406s.025-.012.037-.025c.012,0,.025,0,.037-.012.073.008.156-.018.223.012.012,0,.025.012.037.025.013.006.056.032.062.062,0,0,.012.025.025.037,0,0,.012.025.025.037,0,.012,0,.025.012.037-.007.061.017.13-.012.186,0,.012,0,.025-.025.037,0,.012-.012.025-.025.037-.006.013-.032.056-.062.062,0,0-.025.012-.037.025,0,0-.012,0-.025.012-.059-.007-.209.016-.247-.012-.034-.008-.06-.053-.099-.087,0,0,0-.012-.012-.025,0,0,0-.012-.012-.025.007-.044-.016-.231.012-.247,0,0,0-.012.012-.025.008-.025.047-.071.087-.087l-.012-.025Z"/>
  <path class="st1" d="M46.589,66.789c.009-.014.028-.006.049-.025,0,0,.012,0,.025-.012.059.007.209-.016.247.012.034.008.06.053.099.087,0,0,0,.012.012.025,0,0,0,.012.012.025-.007.059.016.209-.012.247,0,0,0,.012-.012.025,0,0,0,.012-.025.025,0,0-.012.012-.025.025,0,0-.025.012-.037.025,0,0-.025.012-.037.025,0,0-.025,0-.037.012-.073-.008-.156.018-.223-.012-.012,0-.025-.012-.037-.025-.008,0-.052-.036-.062-.049-.006-.013-.037-.056-.049-.074-.016-.075-.027-.179,0-.26,0,0,.012-.025.025-.037-.003-.004.045-.061.049-.062l.037.025Z"/>
  <path class="st3" d="M52.96,49.249s.012.025.025.025c4.241,7.49,3.697,8.689-2.35,14.696-.315.232-1.178,1.124-1.546.631-.127-.821,2.343-2.375,2.251-3.34-1.085-.448-2.826,3.926-4.082,3.649-.761-.939,3.09-3.802,2.524-4.589-.96-.14-2.903,3.287-3.365,4.082-.215.336-.713.413-1.051.235-.671-1.072,2.964-4.3,2.672-5.035-1.694.057-2.589,3.896-3.921,4.54-.186-.062-.223-.087-.359-.235.259-2.918,3.905-6.917,6.172-8.585.649-.489,1.773-.459,2.215-1.187-.746-.757-2.394.475-3.117.854l-1.596-2.87c2.115-.569,3.835-1.534,5.505-2.919l.025.049Z"/>
  <path class="st8" d="M37.584,2.366c5.297-.355,11.779,2.418,12.902,8.09l-.099.087v-.025c-.012,0,.087.099.087.099l-.037-.148v.074c-.557-1.682-2.313-4.169-3.921-5.01-3.073.443-6.116.011-9.129-.656-2.505-.451-5.791.338-6.606,3.056-.421,1.534.458,3.006.198,4.552-.461,2-1.902,3.664-2.016,5.777-.26-.062-.532-.099-.804-.148-.73-1.163-1.348-1.596-2.598-2.091-.877-7.685,4.39-13.431,12.036-13.669l-.012.012Z"/>
  <path class="st9" d="M37.299,101.797c.346.21,1.818,2.598,2.301,3.179,1.461,1.726,3.653,2.831,4.268,5.084-2.072,1.704-6.68,1.338-8.857.049-.743-.018-2.247-1.649-2.858-2.14-.581-.47-1.212-.891-1.757-1.398-1.512-.856-.757-3.122-.421-4.503,1.314,2.538,4.338,2.744,5.703.111.333.074,1.314-.224,1.633-.383h-.012Z"/>
  <path class="st9" d="M52.564,99.484c.148.049.371,0,.507.087,1.069,1.294,2.458,2.427,3.723,3.575,1.272,1.149,3.459,1.824,3.934,3.624-.762,2.25-6.634,1.966-8.214.718-.383.087-1.126-.631-1.423-.878-1.906-1.838-4.919-1.433-6.037-3.921.087-.903.198-1.744.47-2.61.764,1.519,3.251,2.715,4.527,1.163.297-.396.495-.94.903-1.237.482-.346,1.113-.247,1.608-.52h0Z"/>
  <path class="st3" d="M29.258,30.681c2.163,2.82,5.012,5.529,8.436,6.804-.186.471-.604.986-.445,1.509.161.049.198.049.359,0,.309-.334.507-.903.742-1.311l1.175.198c-1.943,6.89-11.601,1.698-12.185-3.563,1.308-.718,1.732-2.282,1.905-3.662l.012.025Z"/>
  <path class="st11" d="M24.595,83.539c.571.344,1.52.458,2.115.148-.483,7.816-1.275,16.009-1.905,23.837-.208.968.179,5.244-1.62,4.008-.484-1.708.137-3.634.111-5.406.403-7.196.877-15.393,1.299-22.6v.012Z"/>
  <path class="st11" d="M67.606,79.296h.173c.639,4.246,1.138,15.485,1.596,20.064.111,1.41.21,2.808.309,4.218-.024.81.665,2.691-.693,2.573-.198-.074-.235-.173-.334-.346-.553-1.598-.398-3.482-.643-5.171-.625-6.717-1.417-14.497-1.967-21.165.544-.012,1.051-.099,1.583-.186l-.025.012Z"/>
  <path class="st11" d="M11.285,74.558c.594.309,1.175.841,1.719,1.249-.395,4.446-1.752,12.96-2.301,17.504-.344,1.691-.556,5.962-1.138,7.472-.821.737-1.265-.164-1.151-.965.964-7.894,1.913-17.377,2.87-25.26h0Z"/>
  <path class="st3" d="M36.619,17.816c4.705-.818,5.946,4.62,1.46,5.814-4.385,1.034-6.436-5.319-1.46-5.814h0Z"/>
  <path class="st0" d="M39.018,20.265c1.027.297.031,1.393-.532,1.658-.144.068-.292.127-.445.173-.073.019-.148.025-.223.049-.037,0-.074.012-.111.025-.037,0-.074,0-.124.012-.888.075-2.216-.516-2.029-1.571.037-.111.05-.087.149-.136.383.037.482.322.717.569,1.032,1.029,1.968.148,2.585-.779h.012Z"/>
  <path class="st3" d="M46.836,18.15c1.126-.124,2.152.161,3.13.693-.049.68-.21,4.466-.47,4.762-.396.433-1.398.458-1.93.47-3.711.356-4.634-5.696-.73-5.938v.012Z"/>
  <path class="st0" d="M45.29,20.513c.594.012.779.94,1.385,1.175,1.385.52,1.15-.804,1.88-1.138.377.088.374.56.285.866-.647,1.795-4.264,1.076-3.575-.891l.025-.012Z"/>
  <path class="st5" d="M13.227,45.377l.186-.025c-.172,2.041-1.066,4.207-1.274,6.321-.124.804.247.433.519.878.062.099-.792,4.231-.903,4.775-.385.155-.848-.04-1.249-.087-.271-1.314-.535-10.514.025-11.294.408-.507,2.066-.52,2.721-.581l-.025.012Z"/>
  <path class="st5" d="M13.734,43.967l.124.025c.012.148-.012.235-.062.371-1.027.615-2.985.035-3.859,1.076-.814,1.285-.439,3.056-.52,4.515,0,2.288,0,4.565.198,6.841-.228-.144-.891-.413-1.064-.619-1.08-1.651-.334-4.155-.557-6.086-.194-5.728-.083-5.885,5.728-6.136l.012.012Z"/>
  <path class="st2" d="M45.006,103.924c.881,1.375,2.666,1.638,4.107,2.251.779.384,1.398,1.076,2.078,1.608,2.557,1.739,6.987,2.016,9.513.161-.161,1.891-3.237,1.946-4.676,2.041-2.488.132-4.493-1.396-6.309-2.845-1.511-.876-4.972-.891-4.738-3.228l.025.012Z"/>
  <path class="st2" d="M29.333,106.361c1.354,1.788,3.24,3.046,5.059,4.367,2.788,1.468,6.75,1.772,9.5.235-.454,2.765-7.733,1.948-9.451.544-.965-.594-1.683-1.497-2.561-2.202-.965-.837-2.829-1.36-2.548-2.944Z"/>
  <path class="st10" d="M33.007,50.844c1.262,1.611,2.842,5.184,3.958,6.977-.585-.555-1.414-.926-2.016-1.41-.458-.458-2.326-4.144-2.771-4.985l.049-.124c.235-.223.507-.334.792-.458h-.012Z"/>
  <path class="st2" d="M46.181,98.915c1.144.503,2.851,1.097,4.082.581-.124.309-.346.73-.631.915-.854,1.598-3.833.153-3.439-1.497h-.012Z"/>
  <path class="st5" d="M44.709,59.244q.099-.025.173.025c-1.143,1.56-3.563.913-5.332,1.336-.198-.223-.334-.495-.495-.755,1.831-.037,3.785-.445,5.628-.619l.025.012Z"/>
  <path class="st2" d="M30.978,101.599c.755.247,3.068.631,3.81.346-.111.26-.334.619-.594.755-.656,1.22-3.766.352-3.216-1.101Z"/>
  <path class="st11" d="M10.518,58.167h1.212c-.111,1.223.114,1.843.396,2.919-.52.087-1.027.124-1.546.161-.049-1.027-.062-2.053-.062-3.08h0Z"/>
  <path class="st7" d="M30.792,47.826c.712-.156,1.061.777,1.324,1.274-.285.219-.568.531-.94.569-.359-.408-.693-.915-.742-1.472.087-.21.173-.247.346-.371h.012Z"/>
  <path class="st3" d="M44.226,60.604l.062.025c-.088.32-1.015,2.326-1.385,2.313-.737-.805.657-1.963,1.311-2.35l.012.012Z"/>
  <path class="st3" d="M50.708,19.696c.715.694.374,2.05-.186,2.721-.186-.408.099-2.202.173-2.721h.012Z"/>
  <path class="st3" d="M39.785,63.425c.18.261.38.855.285,1.175-.449.035-.718-.514-1.051-.767.247-.148.52-.272.767-.396v-.012Z"/>
  <path class="st7" d="M32.376,49.743c.124.118.232.23.21.408-.186.235-.557.346-.829.47-.148-.093-.245-.217-.26-.383.186-.21.619-.334.878-.482v-.012Z"/>
</svg>