<?xml version="1.0" encoding="UTF-8"?>
<svg id="Layer_1" xmlns="http://www.w3.org/2000/svg" width="80" height="115" xmlns:xlink="http://www.w3.org/1999/xlink" version="1.1" viewBox="0 0 80 115">
  <!-- Generator: Adobe Illustrator 29.4.0, SVG Export Plug-In . SVG Version: 2.1.0 Build 152)  -->
  <defs>
    <style>
      .st0 {
        fill: #c4a39a;
      }

      .st1 {
        fill: url(#linear-gradient2);
      }

      .st2 {
        fill: url(#linear-gradient1);
      }

      .st3 {
        fill: #007787;
      }

      .st4 {
        fill: #feab86;
      }

      .st5 {
        fill: #323230;
      }

      .st6 {
        fill: #eeeced;
      }

      .st7 {
        fill: url(#linear-gradient);
      }

      .st8 {
        fill: #2b4854;
      }

      .st9 {
        fill: #2d0502;
      }

      .st10 {
        fill: #5d3218;
      }

      .st11 {
        fill: #c7c8ca;
      }

      .st12 {
        fill: #cf8b6d;
      }

      .st13 {
        fill: #db6f00;
      }

      .st14 {
        fill: #370200;
      }

      .st15 {
        fill: #d5bc2a;
      }

      .st16 {
        fill: #166f83;
      }

      .st17 {
        fill: #d7c9c8;
      }

      .st18 {
        fill: #6f0000;
      }

      .st19 {
        fill: #feab86;
      }

      .st20 {
        fill: #200000;
      }

      .st21 {
        fill: #be8f7b;
      }

      .st22 {
        fill: #964800;
      }
    </style>
    <linearGradient id="linear-gradient" x1="-483.445" y1="218.396" x2="-490.129" y2="204.769" gradientTransform="translate(764.4 347.8) scale(1.5 -1.5)" gradientUnits="userSpaceOnUse">
      <stop offset="0" stop-color="#b88369"/>
      <stop offset="1" stop-color="#ba938a"/>
    </linearGradient>
    <linearGradient id="linear-gradient1" x1="-481.168" y1="186.068" x2="-482.162" y2="187.426" gradientTransform="translate(764.4 347.8) scale(1.5 -1.5)" gradientUnits="userSpaceOnUse">
      <stop offset="0" stop-color="#c21500"/>
      <stop offset="1" stop-color="#d83b00"/>
    </linearGradient>
    <linearGradient id="linear-gradient2" x1="-488.325" y1="158.494" x2="-489.163" y2="157.759" gradientTransform="translate(764.4 347.8) scale(1.5 -1.5)" gradientUnits="userSpaceOnUse">
      <stop offset="0" stop-color="#120000"/>
      <stop offset="1" stop-color="#320000"/>
    </linearGradient>
  </defs>
  <path class="st14" d="M33.495,3.397c2.593-.456,5.443-1.141,7.97-.26,1.75.228,4.406.813,5.135,2.627,11.406,8.453,4.015,14.43,5.573,24.883.231,1.526-.174,3.082-.356,4.579-.068.381.422.51.683.668,3.952,3.119,6.215,8.056,8.869,12.252.713,1.449,2.518,3.344,1.016,4.846,1.129,2.21,1.371,4.95.007,7.109,3.488,1.722,6.931,3.547,10.367,5.373l3.161,1.677c.947.586,2.255.946,2.842,1.952.274.779.067,4.238-.334,4.95-.424.746-1.298.911-2.063,1.106-.084,1.598.292,4.64-1.388,5.41.386,3.657.695,9.928,1.009,13.67.27,3.8.574,7.622.772,11.421.102,1.403-1.913,2.09-2.857,1.18-.625-.795-.415-1.977-.572-2.931l-.297-3.547c-.458-4.851-1.223-14.402-1.699-19.132-3.524.455-7.209.776-10.746,1.002-.519,2.501-.891,5.054-1.291,7.577-.171,1.069-.653,4.891-1.054,5.618-.312.542-.816.609-1.314.891,1.23,1.452,3.617,2.036,4.831,3.421,1.166.986,1.449,2.585,1.788,3.993-.085,3.158-4.674,3.564-7.072,3.369-2.519.069-5.41-1.642-7.533-2.805-1.044-.043-2.123-.489-2.991-1.113-.609-.371-1.447-.927-1.61-1.67-.223-1.024.468-5.15,1.032-6.033.022-.141.089-.26.148-.393-.624-1.301-.161-2.794-.015-4.156.197-1.691.78-5.797.935-7.436-1.351.401-3.748.156-5.083.557-.76,3.43-.783,7.364-1.247,10.894-.116,1.027-.014,2.412-1.105,2.931.68,1.349,1.684,2.565,3.08,3.302,5.755,4.805,3.628,9.146-3.599,9.061l-.378-.178c-1.135,0-3.013-.356-4-.876l.015-.067c.134-.015.252-.015.349-.111-.008-.112-.044-.197-.126-.275-1.593-.46-2.847-1.8-4.208-2.657-.304,0-.43-.045-.683.163-.193.015-.393.045-.586.074-1.535-.559-3.003-1.843-2.887-3.614.059-1.514.475-4.467,1.588-5.492-.343-.351-.623-.804-.69-1.299-.045-3.484.099-7.001.141-10.493-.707.048-1.471.032-2.16.163-.223.215-.223,1.44-.252,1.774-.543,6.921-1.185,14.106-1.766,21.039-.165,1.122.077,2.459-.638,3.406-.618.633-1.807.696-2.464.097-.808-.949-.373-2.372-.379-3.51l.245-4.104c.284-6.31.688-13.235,1.054-19.555-.215-.312-12.26-8.987-12.987-9.328-.46,5.651-1.514,14.134-2.056,19.844-.318,1.416.165,3.262-.861,4.393-.719.514-1.896.397-2.427-.334-.599-1.556.124-3.476.141-5.135l.868-9.633c.319-2.849.661-8.516,1.091-11.288-1.865-.919-.954-3.769-.891-5.425-.408-.245-.913-.482-1.121-.942-.338-1.321-.94-4.797,1.002-5.21-.094-2.155.314-4.373.045-6.501-.41-.347-1.894-.984-2.093-1.774-.476-2.048-.203-4.704-.193-6.835.015-1.469-.141-4.275.156-5.558.58-2.423,3.777-2.257,5.722-2.212,2.604-5.621,9.155-7.338,14.464-9.358.319-.579.623-1.098,1.091-1.573.176-.305-.325-.454-.519-.609-2.747-1.964-3.626-7.935.163-9.232.579-2.545.223-5.647,1.766-7.866.549-.787,1.365-1.039,2.078-1.61,1.473-1.614,3.782-3.502,5.974-3.978.14-.694.785-1.041,1.432-1.165h-.015.003ZM50.623,57.445c.193-.134.401-.252.519-.468-.019-.293-.342-.354-.534-.512-.096.341-.349.965-.289,1.306.156-.067.215-.193.312-.327h-.008Z"/>
  <path class="st19" d="M36.249,5.163c.652.166,3.488.034,4.386.096.416.096.853.163,1.284.2.223.096.378.141.631.074l.067-.074c.17.385,2.595.685,3.147.898,6.723,3.454,7.442,11.81,5.439,18.338-.075,2.661.016,5.216-.949,7.688-.427.01-.939.124-1.091.579.083.465.426,1.374-.089,1.677-.134-.022-.2-.015-.289-.141-.498-1.523-.719-3.291-2.323-4.134-3.6,3.453-7.085-2.202-10.939.542-.727.46-1.967,1.818-2.145,2.635-.041.283-.23.648-.557.601-.248-.267-.18-.67-.082-.987-1.312-.789-2.232-2.2-3.376-3.117-.074-.022-.149-.007-.23-.015-.148-1.054-.208-2.026-.735-2.976l-.126.801c-.178-.059-.349-.119-.527-.186-.163-.208-.096-2.249-.245-2.724.246-1.965.277-3.996.557-5.967.142-.333.379-1.875.245-2.182.289-.549.512-1.083.49-1.722l-.015-.03c.186-.601.371-2.07.26-2.664.045-.215.074-.393.052-.616l-.089-.015c.096-.275.096-.594.059-.876l-.022.096-.03-.134h.022l.022.111v-.045c.007,0-.104,0-.104,0l-.037.045-.111-.037c.111-.171.186-.252.178-.46-.104-.289.096-.712.193-.994-.462-.589-1.185-.635-1.788-.994,1.106-1.224,3.673-3.065,5.328-3.265,1.039-.126,2.649.49,3.525-.052l.015.022v.004Z"/>
  <path class="st14" d="M38.512,29.289c-.002-.635.537-1.818,1.314-1.469.201.497-.964,1.135-.319,1.67,1.861.835,6.451,2.655,6.597-.913.052-1.707-1.633-1.692-2.108-3.117-.176-.569-.113-1.501.505-1.774.388.283.108.887.23,1.291.134.772,1.195,1.262,1.67,1.855.646.809.49,1.833.378,2.79,1.505,1.068,2.808,3.001,2.457,4.883-.06.089-.074.089-.163.141-.134-.022-.2-.015-.289-.141-.498-1.523-.719-3.291-2.323-4.134-3.6,3.453-7.085-2.202-10.939.542-.727.46-1.967,1.818-2.145,2.635-.041.283-.23.648-.557.601-.744-2.493,3.439-5.075,5.692-4.876v.015h0Z"/>
  <path class="st14" d="M36.768,19.827c1.018.003,3.128-.203,3.473,1.009-.986.478-2.515-.475-3.614-.163-1.045-.07-2.133,1.056-3.109.638.292-1.074,2.314-1.346,3.25-1.484Z"/>
  <path class="st14" d="M47.996,20.68c1.184-.14,2.939.396,3.169,1.722-.052.141-.045.134-.178.193-.512-.037-.913-.475-1.328-.757-1.506-.742-3.139.186-3.644-.045l-.067-.193c.095-.759,1.453-.83,2.048-.928v.007h0Z"/>
  <path class="st14" d="M37.072,23.589c.843-.116,2.61.266,2.375,1.38-.43.186-1.291-.386-1.737-.542-.942-.156-1.581.534-2.449.534-.126-.126-.141-.148-.186-.319.257-.74,1.323-.933,1.996-1.054h.001Z"/>
  <path class="st14" d="M47.618,24.168c.708.016,1.547.347,1.796,1.061-.23.673-1.176-.102-1.64-.126-.589-.049-1.748.683-2.019-.045.135-.652,1.324-.819,1.863-.891h0Z"/>
  <path class="st12" d="M33.792,25.081c.141.037.252.126.341.237-.154.617-1.24.897-1.788.987-.178-.104-.245-.267-.341-.445.586-.408,1.061-.683,1.781-.787l.007.007h0Z"/>
  <path class="st7" d="M27.039,8.866l.356-.386c.599.359,1.331.405,1.788.994-.096.282-.289.705-.193.994,0,.208-.067.289-.178.46l.111.037.037-.045h.119l-.007.045-.022-.111h-.022l.03.134.022-.096c.037.282.037.601-.059.876l.089.015c.022.223,0,.401-.052.616.111.594-.074,2.07-.26,2.664l.015.03c.022.631-.2,1.173-.49,1.722.135.309-.105,1.844-.245,2.182-.285,1.973-.31,3.997-.557,5.967.148.475.082,2.516.245,2.724.171.067.349.134.527.186l.126-.801c.534.95.586,1.922.735,2.976.074,0,.156-.015.23.015,1.15.912,2.056,2.33,3.377,3.117-.11.317-.15.715.082.987.326.045.513-.32.557-.601.178-.816,1.417-2.174,2.145-2.635,3.856-2.749,7.344,2.912,10.939-.542,1.6.838,1.823,2.612,2.323,4.134.082.126.149.111.29.141.51-.302.17-1.213.089-1.677.152-.458.664-.561,1.091-.579-.015.2-.022.334.067.519l.104.067c.647-.446.749-1.431,1.002-2.13.045,1.232-.052,3.8-.675,4.846-.289.193-.327.237-.408.579-.644.248-.923-.436-1.113-.928-.111.134-.208.26-.341.371-.197.063-.334-.069-.534-.03-.235.452-.285.97-.594,1.388-.312.082-.705.393-.987.334-.361.849-.901,2.532-2.152,1.922-.186.393-.371.69-.653,1.024-.356-.534-.646-1.091-.942-1.662-.691.951-1.681,2.06-2.961,2.085-1.328,0-1.276-1.069-1.848-1.625-.416-.007-.705.594-1.158.623-.386.022-.312-.698-.586-.92-.43.074-.824.126-1.239-.03-.356-.349-.148-1.024-.312-1.484-.301-.355-.722.165-.95.378-.097-.65.279-1.784-.586-1.922-.384.2-.673.749-1.165.616-.23-.312-.186-.972-.208-1.358-.096-.163-.178-.275-.327-.393-.186-.052-.297-.022-.482.022l-.015.03-.074.015c-.73-.627-.863-1.395-1.239-2.226-.497-.312-.623.341-.987.386-.064-.184-.121-.261-.289-.364-.349-.757-.519-1.61-.609-2.427-.045-.045-.141-.022-.2-.022-.2-.119-.356-.371-.497-.557l-.096.015v.215c-.007,0-.067.03-.067.03-.037-.312.134-.987-.007-1.224-.141-.074-.2-.119-.356-.119l.067.111c-.751.243-.43-1.066-.824-1.395-.171.141-.275.223-.49.267l-.089-.089c-.223.037-.393.067-.616.015.768-3.04,2.945-8.344-1.499-9.492.341-3.673-.073-7.1,3.718-9.002h-.015l-.006-.002Z"/>
  <path class="st14" d="M27.514,24.962c-.141.076-.301.174-.43.045-.661-1.846-.33-4.513.994-6.011-.285,1.973-.31,3.997-.557,5.967h-.007Z"/>
  <path class="st14" d="M28.286,27.879l.126-.801c.634,1.182.663,2.482.831,3.785,0,.156-.015.23-.119.341-.883-.203-.737-2.579-.839-3.325h.001Z"/>
  <path class="st9" d="M29.058,12.398c-.497.645-1.014,2.001-1.863,2.182-.016-.977,1.073-2.351,1.907-2.805.022.223,0,.401-.052.616l.007.007h.001Z"/>
  <path class="st9" d="M28.323,16.821c-.275.334-.519.727-.95.861l-.082-.052c.016-.864.819-2.069,1.529-2.523.022.631-.2,1.173-.49,1.722l-.007-.007h0Z"/>
  <path class="st9" d="M28.367,10.617c.215-.096.386-.148.623-.148-.082.625-1.514,1.82-2.056,1.915-.096-.082-.067-.119-.074-.237.321-.628.943-1.117,1.499-1.529h.008Z"/>
  <path class="st0" d="M48.241,35.931c-.052-.096-.082-.186-.111-.289.049-.414.45-.68.853-.586.408.074.505.638.705.942l.074-.111c.084.002.14.073.223.126.275-.03.341-.349.69-.401l.089.082c-.289.193-.327.237-.408.579-.644.248-.923-.436-1.113-.928-.111.134-.208.26-.341.371-.197.063-.334-.069-.534-.03l-.126.245h-.001Z"/>
  <path class="st21" d="M27.039,8.866l.356-.386c.599.359,1.331.405,1.788.994-.096.282-.289.705-.193.994-.237,0-.408.059-.623.148l-.03-.059c.062-.274.327-.265.505-.393.344-.466-.524-.858-.772-1.091-.335-.081-.709-.061-1.024-.208h-.007Z"/>
  <path class="st0" d="M25.05,26.491c.156.275.156.646.386.853-.223.037-.393.067-.616.015l.23-.868Z"/>
  <path class="st17" d="M31.217,34.706c-.007-.186,0-.178.111-.327.436-.267.712.325.69.69-.096-.163-.178-.275-.327-.393-.186-.052-.297-.022-.482.022l.007.007h.001Z"/>
  <path class="st4" d="M35.788,33.972c-.178.067-.312.134-.505.119l-.119-.074c.005-.817,1.257-1.309,1.967-1.254.553.885,1.495,1.124,2.479.935.865.655,1.775.408,2.724.096.907-.052,1.869.294,2.634-.363.564.245.98.327,1.596.327.009-.241.009-.453.178-.631l.156-.037c.388.311.475.926.341,1.388-.126.126-.178.134-.349.178-.186-.03-.289-.104-.438-.215l-.134-.015c.251.826-1.033,1.931-1.863,1.922-1.508,1.015-4.086.839-5.647.007-.409-.217-.815-.329-1.262-.468-.957-.312-1.217-1.15-1.759-1.922v.007h0Z"/>
  <path class="st9" d="M35.788,33.972c-.178.067-.312.134-.505.119l-.119-.074c.005-.817,1.257-1.309,1.967-1.254.553.885,1.495,1.124,2.479.935.865.655,1.775.408,2.724.096.907-.052,1.869.294,2.634-.363.564.245.98.327,1.596.327.009-.241.009-.453.178-.631l.156-.037c.388.311.475.926.341,1.388-.126.126-.178.134-.349.178-.186-.03-.289-.104-.438-.215-1-.173-1.558-.062-2.493.23-.52.022-1.054-.141-1.573-.082-.692.074-1.381.518-2.1.252-1.405-.568-2.761.005-3.688-1.336l-.809.46v.007h0Z"/>
  <path class="st14" d="M38.809,36.361c-.03-.171-.082-.327-.007-.497.371-.178,1.38.186,1.788.275,1.243.312,2.364-.099,3.599-.186.156.096.2.245.275.408-1.508,1.015-4.086.839-5.647.007l-.007-.007h0Z"/>
  <path class="st22" d="M27.781,85.341c4.189-.466,8.397-.842,12.594-1.224-.499,4.263-.573,8.725-1.403,12.92-2.661,2.016-8.224,1.493-10.827-.356-.312-.319-.408-.869-.453-1.299-.155-3.332.214-6.711.089-10.056,0,0,0,.015,0,.015Z"/>
  <path class="st6" d="M25.436,27.352l.089.089c.215-.052.327-.126.49-.267.393.337.074,1.646.824,1.395l-.067-.111c.163,0,.215.045.356.119.141.23-.03.905.007,1.224l.052-.03v-.215c.007,0,.104-.015.104-.015.148.186.304.43.497.557.059,0,.156-.015.2.022.089.824.26,1.677.609,2.427.174.103.226.18.289.364.371-.045.497-.698.987-.386.372.825.512,1.614,1.239,2.226l.074-.015.015-.03c.186-.052.289-.082.482-.022.148.119.23.23.327.393.022.386-.03,1.046.208,1.358.488.133.783-.416,1.165-.616.866.133.477,1.267.586,1.922.225-.221.662-.735.95-.378.163.453-.045,1.135.312,1.484.416.163.809.104,1.239.03.267.223.2.95.586.92.46-.03.742-.631,1.158-.623.571.557.519,1.618,1.848,1.625,1.288-.027,2.264-1.13,2.961-2.085.297.571.586,1.128.942,1.662.289-.327.468-.631.653-1.024,1.249.61,1.79-1.073,2.152-1.922.289.059.675-.252.987-.334.305-.426.356-.934.594-1.388.186-.033.342.079.534.03.134-.111.23-.237.341-.371.181.492.473,1.175,1.113.928-.15.54-.494,2.035-1.009,2.323-.111-.111-.156-.2-.312-.245-.2.119-.245.252-.304.475-.253,1.68-1.7,2.947-3.035,3.852.059-.2.163-.43.104-.638-.574-.235-1.079.974-1.514,1.262-.543.313-1.059.659-1.544,1.032l-.104-.015c-.111-.2-.141-.304-.371-.371-.26.119-.416.393-.712.364-1.489.988-3.11.988-4.378-.356-2.672.059-3.362-2.07-4.23-2.145-.119.126-.052.356-.111.527-1.315-.142-2.335-2.104-3.013-2.33-.215.03-.282.119-.453.252-.519-.438-1.173-1.299-1.469-1.915-.288-.476-.299-1.24-.861-1.492-.2.037-.304.186-.43.327-.86-.806-.791-2.918-1.098-3.777-.215.074-.393.356-.557.519-.943-1.374.126-3.152-.015-4.549-.126-.015-.215-.015-.319-.089-.186-.579.059-1.343.208-1.915.223.052.393.022.616-.015l.007-.022v-.002Z"/>
  <path class="st9" d="M41.555,44.294c.141-.23.965-.72,1.224-.905-.015.215-.126.49-.052.69.163.059.245-.007.401-.067-.126.119-.23.223-.393.297l-.104-.015c-.111-.2-.141-.304-.371-.371-.26.119-.416.393-.712.364l.007.007Z"/>
  <path class="st18" d="M45.525,99.478c-.096-1.061.096-2.917.801-3.77,3.036,1.419,6.438,1.378,9.707,1.046.203-.033.425.003.438.245.067.015.134,0,.208,0,.082-.126.052-.186.037-.334.576-.112.807.651,1.343.698,1.069.683,2.924,1.395,3.688,2.382,1.187,1.127,1.809,3.024,1.737,4.623l-.141-.289c.009-.447.016-.932-.341-1.254l-.111.126h-.111l-.015-.096h-.104l.074-.037c-.171.289-.23.401-.542.534l-.074-.052c-5.391,3.024-12.21-.459-16.601-3.822,0,0,.007,0,.007,0Z"/>
  <path class="st9" d="M56.723,96.673c.576-.112.807.651,1.343.698,1.069.683,2.924,1.395,3.688,2.382,1.187,1.127,1.809,3.024,1.737,4.623l-.141-.289c.009-.447.016-.932-.341-1.254l-.111.126h-.111l-.015-.096h-.104l.074-.037c-.171.289-.23.401-.542.534l-.074-.052c1.294-1.828-1.864-3.811-3.295-4.49-1.63-.942-3.2-1.28-4.913-.274-.509.263-1.048.968-1.655.838.247-1.781,2.823-1.996,4.208-2.382.067.015.134,0,.208,0,.082-.126.052-.186.037-.334,0,0,.007.007.007.007Z"/>
  <path d="M61.755,99.752c1.186,1.127,1.809,3.024,1.737,4.623l-.141-.289c.009-.447.016-.932-.341-1.254l-.111.126c-.215-.549-.022-1.158-.23-1.714-.193-.527-.816-.957-.92-1.484l.007-.007h-.001Z"/>
  <path class="st18" d="M45.369,95.485c-.445,2.936-2.269,6.794,1.714,8.03.245-.045.074-.208.341-.052.015.388.601.499.809.2v-.089c-.176-.117-.338.029-.549-.156l-.193.045c-.71-.541-2.046-.766-2.249-1.685v-.037h.052c-.141-.304.037-.408-.163-.586-.172-.149-.196-.415-.074-.601l.126-.059c2.401,1.514,4.916,2.737,7.466,3.993,3.286.903,7.125,1.121,10.093-.564l.067-.037c.022.223-.156.534-.045.712.141.059.223.104.371.082.168-.211.062-.464.03-.705l.037-.037c.045.074.052.119.141.141l.141.289c-.828,2.614-4.711,2.911-7.02,2.739-2.521.07-5.408-1.643-7.533-2.805-1.044-.043-2.123-.489-2.991-1.113-.609-.371-1.447-.927-1.61-1.67-.223-1.024.468-5.15,1.032-6.033h.007v-.002Z"/>
  <path class="st20" d="M45.369,95.485c-.445,2.936-2.269,6.794,1.714,8.03.245-.045.074-.208.341-.052.015.388.601.499.809.2v-.089c-.176-.117-.338.029-.549-.156l-.193.045c-.71-.541-2.046-.766-2.249-1.685v-.037h.052c.913.945,1.848,1.28,2.961,1.826.254.249.661.228.853-.082,3.68,2.562,9.208,4.278,13.247,1.506.119-.364.282-.69.378-1.069l.067-.037c.022.223-.156.534-.045.712.141.059.223.104.371.082.168-.211.062-.464.03-.705l.037-.037c.045.074.052.119.141.141l.141.289c-.828,2.614-4.711,2.911-7.02,2.739-2.521.07-5.408-1.643-7.533-2.805-1.044-.043-2.123-.489-2.991-1.113-.609-.371-1.447-.927-1.61-1.67-.223-1.024.468-5.15,1.032-6.033h.016Z"/>
  <path class="st9" d="M48.249,103.56c.015-.089.015-.134.067-.215.26.045.534.067.787.134-.192.318-.598.322-.853.082h0Z"/>
  <path class="st18" d="M27.083,103.908c-.208-.468-.49-.994-.356-1.514l.067-.022c.067.119.134.23.208.334.295-.115,1.335,1.043,1.64,1.254,3.578,3.526,8.781,5.632,13.789,3.941.586-.223,1.15-.438,1.633-.846.227-.199.787-.833.853-.223l.126-.067c.104.015.126.015.215-.007l.134-.341c.131,3.294-4.489,3.765-6.916,3.837l-.378-.178c-1.135,0-3.013-.356-4-.876l.015-.067c.134-.015.252-.015.349-.111-.008-.112-.044-.197-.126-.275-1.593-.46-2.847-1.8-4.208-2.657v-.082c.007,0-.045-.104-.045-.104-.564.059-.527-.341-.831-.445-.683-.141-1.476-.364-1.937-.957l.312-.052c-.166-.225-.259-.451-.549-.542h.007-.002Z"/>
  <path class="st9" d="M45.399,106.417c.131,3.294-4.489,3.765-6.916,3.837l-.378-.178c-1.135,0-3.013-.356-4-.876l.015-.067c.134-.015.252-.015.349-.111-.008-.112-.044-.197-.126-.275,3.096.927,8.707,1.384,10.59-1.915l.126-.067c.104.015.126.015.215-.007l.134-.341h-.009Z"/>
  <path class="st20" d="M45.399,106.417c.131,3.294-4.489,3.765-6.916,3.837l-.378-.178c1.974-.149,7.043-.201,6.753-3.08l.067-.171.126-.067c.104.015.126.015.215-.007l.134-.341v.007h0Z"/>
  <path class="st21" d="M33.607,4.05c.774.049,1.512-.2,2.249-.349.74.065,1.42-.007,2.137-.23,1.506-.109,8.021.832,7.777,2.902-.563-.214-2.973-.512-3.147-.898l-.067.074c-.245.067-.401.022-.631-.074-.423-.037-.868-.104-1.284-.2-.888-.063-3.752.069-4.386-.096-.505-.853-2.508-.46-3.169-.742.148-.223.275-.275.527-.371l-.007-.015h0Z"/>
  <path class="st9" d="M41.295,4.302c.649.139,1.141.561,1.254,1.239-.245.067-.401.022-.631-.074-.252-.378-.475-.727-.623-1.165h0Z"/>
  <path class="st9" d="M39.9,4.309c.386.26.616.49.742.95-.208.022-.43-.007-.638-.022-.059-.104-.119-.208-.178-.312.119-.193.089-.393.082-.616h-.008Z"/>
  <path class="st20" d="M39.818,4.933c-.104-.163-.215-.319-.245-.512l.067-.089.26-.015c0,.223.037.423-.082.616h0Z"/>
  <path class="st20" d="M47.492,96.161c.244-.236,1.689.334,2.085.371,1.958.481,4.383.005,6.278.074l-.26.089c.148.015.297.022.445.052-2.894.304-5.766.356-8.549-.586h0Z"/>
  <path class="st20" d="M39.61,97.118c.349-1.076.267-4.601.794-5.299l-.297,3.139c-.116,1.026-.014,2.412-1.106,2.931-.089-.015-.134-.045-.215-.089-.024-.307.224-.786.282-1.106.037.2.059.505.193.668.171-.015.237-.141.356-.252l-.007.007h0Z"/>
  <path class="st20" d="M22.609,27.849c-.076.424-.826,1.881-1.135,2.063-1.09-.351-2.444.891-3.607.853,1.195-.475,2.486-.831,3.651-1.336.319-.579.623-1.098,1.091-1.573,0,0,0-.007,0-.007Z"/>
  <path class="st20" d="M56.352,96.339c.403-.521,1.379-.456,1.892-.898-.312.542-.816.609-1.314.891.393.334.772.675,1.143,1.039-.535-.051-.773-.811-1.343-.698-.215-.074-.252-.148-.371-.334h-.007Z"/>
  <path class="st20" d="M32.063,4.562c.14-.694.785-1.041,1.432-1.165-.228.201-.506.286-.735.475.193.126.601.141.839.171-.245.096-.378.148-.527.371-.156-.151-.368-.258-.586-.171l.134-.082c-.136.023-.27.082-.327.223l.082-.03c-.074.126-.082.156-.208.223l-.104-.022v.007Z"/>
  <path d="M52.182,30.654c.111.705.052,1.469,0,2.182-.349-.456-.265-1.72,0-2.182Z"/>
  <path class="st3" d="M21.132,30.506c-.201,2.536-1.085,9.609-.245,11.822,1.039.646,5.135-.831,6.642-.839.08.013.313-.037.312.089.356.779-.2,1.017.764,1.915.416.393,4.453,2.724,4.846,2.709.156-.074.163-.074.245-.223,0-.156-.022-.267-.126-.386-1.281-1.351-5.651-1.995-4.757-4.386.245-.148.579.371.816.482,1.543.345,2.005,1.434,3.696,1.506l-.015-.022c1.492,1.195,2.263,1.18,3.154,3.087-1.197,2.044-1.454,5.01-1.455,7.354-.383-1.24-1.665-4.1-2.82-4.876-3.101,0-3.004,2.074-1.484,4.134.66,1.236,1.857,3.169,2.456,4.408-1.625.215-3.109.898-4.698,1.254-2.77-1.037-5.726-3.808-8.453-4.705-.473-6.45-.244-14.67-6.761-18.219-.323-.148-.837-.552-1.173-.252-.052.49.623.794.972,1.024,5.906,3.376,5.228,10.521,6.286,16.289-1.044-2.044-3.551-2.244-5.588-2.1-3.296.123-6.408,1.94-8.067,4.764-.126-.067-.119-.089-.178-.23.852-14.293.39-20.026,15.644-24.608l-.015.007.002.002Z"/>
  <path class="st5" d="M27.069,41.675c.178-.022.334-.037.512-.007.119.082.163.126.223.252l-.045.126-.067.03-.134-.186c-.104-.059-.453.074-.601.096l-.067-.059c.052-.148.059-.156.186-.252h-.007Z"/>
  <path class="st16" d="M5.466,69.103c5.247,3.177,11.919,8.174,17.172,11.31.123,1.094-.61,3.101.289,3.837.642-.03.393-3.212.475-3.755,9.728-.718,42.88-4.498,52.126-5.232.056,1.352.01,2.842-.364,4.171-1.819,1.232-4.33.771-6.434,1.195-5.499.541-10.998,1.031-16.505,1.477-8.83.833-18.951,1.849-27.785,2.709-1.99.507-3.444-1.112-4.957-2.108l-3.339-2.39c-3.532-2.624-7.283-5.011-10.731-7.718-.126-1.121,0-2.375.03-3.503l.022.007h0Z"/>
  <path class="st3" d="M51.388,36.317c3.927,2.259,6.098,7.316,8.527,11.013.694,1.177,1.651,2.389,1.892,3.755-3.756-2.275-8.77.461-10.456,4.126-.457,0-.529-.454-.43-.824.711-3.866,1.389-7.781,1.202-11.725l-.349-.2.059.059-.126-.089c-.282.26-.349,2.976-.386,3.473-.274,4.319-1.287,8.532-2.019,12.787-3.369.133-6.759.861-10.137.801-.534-.445-1.417-.787-1.788-1.365-.252-.393-1.38-2.902-1.447-3.295-.26-1.499.074-4.876.423-6.419.206-1.156.941-2.188,2.048-2.62,1.275.494,2.643-.419,3.859-.764-.779.868-2.315,1.469-3.414,1.878-.608.247-1.457.358-1.662,1.083l.059.082c.917.163,4.193-1.523,5.128-1.996,2.121-1.404,4.108-3.097,6.093-4.623.306.436-.399.853-.727,1.054.126.267.378.364.631.482.23-.082.475-.156.698-.282.468-.898.237-1.121.045-2.048.892-1.383,1.804-2.768,2.301-4.364l-.022.022h-.002Z"/>
  <path class="st8" d="M52.122,42.662l.015-.045c.35.731.226,2.683.052,3.436-.154-1.096.032-2.273-.067-3.391Z"/>
  <path class="st5" d="M47.952,41.89c.134-.148.304-.401.505-.43.306.436-.399.853-.727,1.054h-.045c-.022.082-.052.156-.082.23l-.119-.045c-.119-.252.408-.527.475-.809h-.007Z"/>
  <path class="st9" d="M49.77,50.528c.237-.037.408,0,.638.067-2.193,1.806-5.537,1.424-8.223,1.314-.332,1.588-.338,3.217-.609,4.801-.074.067-.134.096-.223.126-.881-.25.079-3.798.081-4.542.082-.549,0-.757.468-1.113,2.68.321,5.28-.062,7.874-.646l-.007-.007h0Z"/>
  <path class="st9" d="M37.703,49.534c.62-.004,1.05.445,1.069,1.054-.141.557-.319.839-.764,1.187-1.352.188-1.186-1.729-.304-2.241h0Z"/>
  <path class="st15" d="M61.985,60.895c5.383,2.716,11.042,5.311,16.067,8.594-15.958,1.578-38.868,4.424-54.909,5.359-6.515-3.373-13.247-8.716-19.651-12.32,2.203-.286,4.515-.575,6.731-.616.816.082,2.56,1.039,3.503,1.351,2.998,1.146,6.459,1.227,9.143,3.094,3.411,2.149,6.728,4.734,10.152,6.791,2.128.148,4.3-.363,6.427-.534,3.911-.394,12.94-1.368,16.928-1.789,2.037-.449,5.019.056,6.642-1.232-.059-.635-.895-.875-1.343-1.21-1.533-1.101-3.336-1.89-4.794-3.057,1.097-.561,1.887-1.463,2.709-2.345.861-.638,1.766-1.181,2.397-2.07v-.015h-.002Z"/>
  <path class="st15" d="M3.217,63.218c3.237,2.11,9.049,5.844,12.371,8.007,2.837,1.591,5.38,4.375,8.779,4.527,16.637-1.647,37.033-3.515,53.618-5.499,0,1.076.163,2.642-.356,3.614-6.177,1.479-12.875,1.394-19.228,2.219-10.015.903-25.478,2.87-35.369,3.547-1.847-.809-7.693-5.134-9.521-6.234-2.9-2.114-7.823-4.797-10.456-7.162-.052-1.002-.037-2.026.141-3.02h.022,0Z"/>
  <path class="st14" d="M22.891,76.146c1.117.072.558,2.22.43,2.894-1.05.044-.536-2.311-.43-2.887,0,0,0-.007,0-.007Z"/>
  <path class="st4" d="M13.911,51.389c1.57-.149,3.912-.015,4.549,1.699-.429-.068-2.38-.63-1.885.282,1.058.612,2.643.762,3.726,1.44,2.452,1.112,5.661,3.992,8.267,4.564,1.755-.282,3.46-1.32,5.291-1.284,3.034.125,6.478,2.71,6.917,5.788.018.478-.545.651-.943.586-.542-.089-1.113-1.217-1.432-1.647-.562-.626-2.489-3.017-3.384-2.427-.053.672.765.91,1.187,1.291.935.735,2.278,2.078,2.456,3.295.163.581-.282,1.362-.935.965-1.336-1.344-2.454-3.492-4.423-4-.991.647,3.735,2.833,3.295,4.438-1.12,1.686-3.132-2.549-4.809-2.137-.104.134-.119.148-.134.312.784.914,2.196,1.381,2.931,2.404-1.007,1.299-3.186-.225-4.371-.609-1.551.636-3.178-.727-4.623-1.076-.831-.2-1.699-.289-2.538-.46-3.599-.727-8.527-1.759-11.807-3.414-2.979-1.185-2.969-4.532-3.725-7.184,1.548-1.866,4.06-2.552,6.39-2.805v-.022h0Z"/>
  <path class="st6" d="M46.846,62.083c.111,0,.119-.03.215.045-.369,1.535-1.098,3.689,1.603,3.087.335,1.009,1.54,1.112,2.323.564.596.844,1.695.837,2.486.282.807.658,1.837.226,2.649-.186,2.008.978,3.768,2.415,5.699,3.532-6.939.899-21.513,2.427-28.66,3.006-3.115-2.395-6.649-4.281-9.714-6.746,1.705.06,3.133.808,4.705,1.358.727.17,1.492.029,2.212.193,1.438.341,3.518,1.893,4.72.267.847.098,1.732-.093,2.16-.905.66.119,1.054.156,1.67-.134,5.657,5.723,3.155-.394,2.345-3.859,1.87-.03,3.74-.341,5.603-.497l-.015-.007h0Z"/>
  <path class="st10" d="M40.219,69.571c.434.201.357,1.003-.163,1.024-.156-.096-.171-.119-.26-.275,0-.334.215-.519.423-.75h0Z"/>
  <path class="st10" d="M50.831,67.211c.133-.004.257-.017.304.134-.009.358-.324.529-.646.512-.104-.045-.171-.096-.26-.163-.052-.134-.045-.119,0-.252.165-.171.376-.189.601-.23h0Z"/>
  <path class="st10" d="M36.375,70.209c.232.107.467.275.468.557-.115.218-.282.335-.527.356-.363-.159-.065-.664.067-.913h-.008Z"/>
  <path class="st10" d="M44.634,67.701c.218.018.513.013.601.26-.037.186-.178.267-.312.386-.184.057-.47.108-.519-.134.022-.215.111-.341.23-.519,0,0,0,.007,0,.007Z"/>
  <path class="st10" d="M52.493,68.458c.015-.007.03-.015.045-.03.015-.007.03-.015.045-.022.015,0,.03-.007.045-.015.062-.002.139-.027.2.007.042.011.095.032.126.067.015.007.022.022.037.037.021.024.039.051.052.082,0,.015.015.03.022.045,0,.015.007.03.015.045-.006.06.015.138-.015.2-.026.073-.085.15-.148.193-.018.011-.041.015-.059.03-.026.006-.048.02-.074.022-.062-.005-.125.01-.186-.007-.015,0-.022-.007-.037-.015-.007,0-.022-.007-.03-.015-.035-.028-.088-.055-.111-.096-.033-.04-.047-.078-.067-.126,0-.015,0-.022-.007-.037.005-.062-.01-.125.007-.186,0-.015,0-.022.015-.037,0-.015.007-.022.015-.03.01-.02.018-.042.037-.059,0-.007.015-.015.022-.03.017-.016.027-.032.052-.045v.022h0Z"/>
  <path class="st10" d="M49.317,68.858c.126,0,.237.022.364.052.126.111.148.126.2.282-.03.171-.045.252-.156.386-.259.013-.547-.075-.601-.356.037-.2.052-.208.193-.356v-.007h0Z"/>
  <path class="st10" d="M43.083,65.304c.074.007.156.03.23.045.141.134.171.156.223.334-.052.215-.089.215-.26.349-.202-.085-.509-.141-.505-.408.067-.163.178-.223.319-.312l-.007-.007h0Z"/>
  <path class="st10" d="M32.375,69.133c.228-.022.475.063.542.297-.052.171-.082.178-.23.282-.141.037-.252.052-.393.052-.141-.082-.141-.074-.186-.23.045-.193.126-.267.26-.401,0,0,.007,0,.007,0Z"/>
  <path class="st10" d="M37.666,68.517c.252-.007.438-.045.631.134.052.186,0,.334-.059.505-.223-.037-.438-.052-.609-.208-.059-.2-.03-.237.03-.43h.007Z"/>
  <path class="st10" d="M46.297,69.244c.2.096.416.193.527.393,0,.163-.022.163-.134.289-.258-.009-.593-.04-.668-.334.045-.171.141-.237.275-.349h0Z"/>
  <path class="st10" d="M53.703,66.899h.327c.299.142.166.511.067.75-.215-.037-.349-.067-.482-.252-.045-.186.022-.334.082-.505l.007.007h-.001Z"/>
  <path class="st10" d="M47.937,67.122c.32.227.314.777-.111.876-.447-.214-.258-.704.111-.883v.007Z"/>
  <path class="st10" d="M45.636,64.888c.202.023.349.126.423.319-.015.2-.052.223-.178.378-.209-.062-.418-.095-.527-.297.059-.2.141-.252.289-.401h-.007Z"/>
  <path class="st22" d="M58.913,82.38c.26-.03.542-.015.809-.022-.842,4.192-1.279,8.486-2.078,12.668-2.795,2.032-9.036,1.524-11.607-.772.154-3.633.874-7.235,1.224-10.857,3.889-.267,7.77-.72,11.659-1.024,0,0-.007.007-.007.007Z"/>
  <path class="st4" d="M58.527,51.1c3.418-.658,4.265,4.537,3.852,6.991-.408,1.585-1.57,3.867-3.414,3.889-.022.007-.082.111-.089.111-.347,1.248-1.608,2.065-2.642,2.768-.512.364-1.291.95-1.952.831-.067-.052-.119-.067-.126-.163-.089-.857,2.428-2.524,2.479-3.495-1.732-.625-3.132,4.846-4.92,3.488-.299-1.288,2.745-3.477,2.672-4.705-1.105-.207-2.863,3.226-3.458,4.096-.296.466-1.138.89-1.462.23-.416-.779.98-2.701,1.44-3.295.287-.432,1.262-1.154,1.121-1.677-1.696.194-2.662,2.901-3.362,4.193-1.481.909-1.408-.615-.98-1.596.839-2.249,3.176-4.475,4.913-6.078,1.358-1.462,3.074-2.491,4.972-2.968.074-.134.082-.126.052-.275-1.325-.898-3.12.753-4.186,1.454-.21.159-.69.458-.839.104.583-2.42,3.713-3.572,5.937-3.896l-.007-.007h0Z"/>
  <path class="st18" d="M27.959,97.778c3.25,1.493,6.97,1.507,10.382.809l.119-.126.111.03.319.586c.033-.123.071-.24.141-.349l.067.03c.03.193-.096.297-.082.43.017.437,1.003.782.861,1.187l.03-.022-.141.03c.664.38,1.373.757,1.885,1.328l.037-.015c.089.104.074.111.074.252,1.157,1.001,2.546,2.131,2.486,3.837-1.878,2.514-6.715,1.937-9.343,1.225-2.854-.824-4.886-3.109-7.147-4.891-1.323-.96-.169-3.115.215-4.356l-.015.015h0Z"/>
  <path class="st9" d="M38.994,99.611l.089.111-.082.252c.059.096.074.119.163.178-.356.156-3.176-.163-3.577.527l.015.067c-.497.193-1.581.994-2.011.913l-.045-.126c.912-1.918,3.593-2.051,5.447-1.922h.001Z"/>
  <path class="st20" d="M38.341,98.595l.119-.126.111.03.319.586c.033-.123.071-.24.141-.349l.067.03c.03.193-.096.297-.082.43.017.437,1.003.782.861,1.187l.03-.022-.141.03c.664.38,1.373.757,1.885,1.328l.037-.015c.089.104.074.111.074.252-1.695-1.536-3.982-2.115-6.145-1.217l-.015-.067c.401-.69,3.221-.371,3.577-.527-.089-.067-.104-.082-.163-.178l.082-.252c-.33-.346-.569-.682-.742-1.128l-.015.007h0Z"/>
  <path class="st11" d="M21.495,85.229c.809.297,1.573.453,2.427.527-.002,1.168-1.237,15.282-1.343,16.824-.226,2.595-.422,5.182-.66,7.77-.038.599-.436,1.24-1.121,1.128-1.568-.207-.415-3.665-.564-4.838.319-4.246.489-10.533.854-14.724.119-2.219.106-4.486.408-6.686h-.001Z"/>
  <path class="st11" d="M72.13,81.222c.69-.245,1.373-.364,2.1-.408.571,6.39.951,13.113,1.418,19.51.027,1.862.502,3.847.2,5.67-.253.302-.886.546-1.232.245-.736-1.3-.436-3.067-.661-4.527l-.519-5.751c-.41-4.552-.944-10.24-1.306-14.746,0,0,0,.007,0,.007Z"/>
  <path class="st11" d="M5.154,73.689c.638.386,1.291.764,1.848,1.276-.899,7.388-1.589,16.448-2.657,23.8-2.598,1.991-.876-4.44-.995-5.558.593-6.202,1.138-13.37,1.803-19.518h0Z"/>
  <path class="st3" d="M21.384,37.638c.161-2.309-.175-8.532,2.315-9.514.408.49.007,3.933.156,4.853.156.972.757,1.714,1.106,2.62.468,1.21.794,2.226,2.019,2.835.445.712.928,1.388,1.417,2.063-2.348-.161-4.505,1.299-6.842,1.098-.312-.475-.178-3.258-.163-3.97l-.007.015h-.001Z"/>
  <path class="st8" d="M21.384,37.638c.46.75-.045,3.362.312,3.889.126.015.223,0,.341-.022.096.089.074.037.104.134-.208.015-.386.037-.594-.03-.312-.475-.178-3.258-.163-3.97h0Z"/>
  <path class="st4" d="M22.876,18.781c4.036.066,1.839,6.194,1.024,8.386-3.366.022-5.035-7.854-1.032-8.393l.007.007h0Z"/>
  <path class="st14" d="M22.616,20.606c1.704-.384,2.427,2.623,1.276,3.481-.772-.534-.163-1.603-.534-2.323-.252-.475-.994-.289-1.276-.646l.022-.126c.148-.171.319-.275.519-.386,0,0-.007,0-.007,0Z"/>
  <path class="st15" d="M6.074,39.56c.186-.007.445-.074.609.03.03.186-.096.401-.178.571-1.813.248-2.913.8-3.013,2.776-.288,3.795-.182,7.679-.082,11.488-2.409-1.241-1.256-4.575-1.477-6.775.123-2.286-.478-5.065.534-7.161.817-.92,2.471-.868,3.614-.928h-.007Z"/>
  <path class="st15" d="M6.119,41.036l.022.015c-.892,4.137-1.187,9.044-1.417,13.328-.141.082-.312.022-.46,0-.439-.588-.085-2.694-.156-3.51v-4.438c.148-1.824-.643-5.267,2.019-5.395h-.008Z"/>
  <path class="st15" d="M48.404,59.508l.26-.015.067.059c-.213.461-.837,1.575-1.41,1.714-.43.089-6.071.66-6.263.631-.513-.345-.702-1.104-1.121-1.588,2.805-.393,5.655-.423,8.468-.801h0Z"/>
  <path class="st16" d="M4.315,55.463c.74-.204.669.635.801,1.143.208.668.846,1.106,1.432,1.417-.142,1.096.229,2.396-.148,3.399-.727.059-1.462.141-2.197.134.015-2.033.104-4.067.111-6.1v.007h0Z"/>
  <path class="st13" d="M33.911,53.408l.096.045c.527.638,2.033,3.54,2.323,4.393-.594-.234-1.486-.527-2.115-.601-.646-.928-1.299-1.915-1.774-2.946.482-.304.972-.594,1.462-.891h.008Z"/>
  <path class="st13" d="M31.596,49.615l.527.096c.297.423.594.905.801,1.38-.666.164-1.166.484-1.655.957l-.104-.03c-.785-.996-1.324-2.23.43-2.412v.009Z"/>
  <path class="st2" d="M40.946,64.858l.067.045c.327.534.542,2.041.594,2.694-.778-.504-1.498-1.082-2.167-1.722.304-.95.69-.378,1.499-1.017,0,0,.007,0,.007,0Z"/>
  <path class="st3" d="M7.432,58.758c.737.535,1.079,1.657,1.788,2.256v.082c-.007,0-.193.082-.193.082-.557.037-1.165.156-1.714.074-.015-.846,0-1.655.126-2.493h-.007Z"/>
  <path class="st13" d="M33.147,51.701c.215.148.386.75.49,1.002-.468.341-.972.653-1.447.987-.275-.319-.416-.742-.564-1.128.46-.408.957-.623,1.521-.861Z"/>
  <path class="st1" d="M29.451,106.268c.252-.208.378-.171.683-.163,1.366.854,2.607,2.188,4.208,2.657.08.083.125.159.126.275-.096.096-.215.096-.349.111l-.015.067c.98.519,2.865.868,4,.876l.378.178c-3.392-.004-6.737-1.537-9.032-4.022v.022h0Z"/>
</svg>