<?xml version="1.0" encoding="UTF-8"?>
<svg id="Layer_1" xmlns="http://www.w3.org/2000/svg" xmlns:xlink="http://www.w3.org/1999/xlink" version="1.1" viewBox="0 0 80 115">
  <!-- Generator: Adobe Illustrator 29.1.0, SVG Export Plug-In . SVG Version: 2.1.0 Build 142)  -->
  <defs>
    <linearGradient id="linear-gradient" x1="-239.6" y1="512.5" x2="-246.2" y2="499" gradientTransform="translate(410.6 805.8) scale(1.5 -1.5)" gradientUnits="userSpaceOnUse">
      <stop offset="0" stop-color="#b88369"/>
      <stop offset="1" stop-color="#ba938a"/>
    </linearGradient>
    <linearGradient id="linear-gradient1" x1="-239.5" y1="479.3" x2="-240.5" y2="480.7" gradientTransform="translate(410.6 805.8) scale(1.5 -1.5)" gradientUnits="userSpaceOnUse">
      <stop offset="0" stop-color="#c21500"/>
      <stop offset="1" stop-color="#d83b00"/>
    </linearGradient>
    <linearGradient id="linear-gradient2" x1="-244.5" y1="452.9" x2="-245.3" y2="452.1" gradientTransform="translate(410.6 805.8) scale(1.5 -1.5)" gradientUnits="userSpaceOnUse">
      <stop offset="0" stop-color="#120000" stop-opacity="1"/>
      <stop offset="1" stop-color="#320000"/>
    </linearGradient>
  </defs>
  <path d="M33.6,3.8c.6,0,1.2-.3,1.8-.4.4,0,.8,0,1.2,0,.5,0,.9-.2,1.4-.2.5,0,.9,0,1.4,0,.3,0,.7,0,1.1,0,.3,0,.6.3,1,.3.4,0,.8,0,1.2.2.8.2,2.5.9,3.1,1.3.4.3.6.6.8,1.1.9.6,1.7,1.2,2.5,2,1.5,1.5,3.4,4.2,3.8,6.3.4,2.3.3,5.2-.2,7.5-.2,1.1-.6,2.2-.7,3.3-.2,1.5,0,4.1.3,5.7.1.7,0,1.5,0,2.2,0,.8-.3,1.6-.4,2.4,0,.1,0,.2,0,.3.1.2.4.3.6.4.9.5,2,1.8,2.6,2.6,1,1.3,1.9,2.7,2.8,4,1.2,1.8,2.3,3.7,3.4,5.5.5,1,1.3,2,1.6,3.1.1.4,0,.8-.1,1.1-.1.2-.3.4-.4.6.8,1.7,1.3,3.8.6,5.7-.2.5-.4.9-.6,1.4,3.5,1.7,6.9,3.5,10.3,5.3l3.1,1.7c.7.4,1.4.7,2,1.1.3.2.7.5.8.8.3.8,0,4.2-.3,4.9-.4.7-1.1.9-1.8,1,0,0-.2,0-.3,0,0,1.3.1,4.1-.8,5-.2.1-.4.3-.5.4.2,2,.3,4,.5,6l.5,7.6c.2,2.7.4,5.3.5,8,0,1.1.2,2.2.2,3.3,0,.4,0,.7-.3.9-.3.4-.9.6-1.4.6-.4,0-.9-.1-1.2-.4-.2-.2-.3-.4-.3-.6-.2-.7-.2-1.5-.2-2.3l-.3-3.5-1-11.8c-.1-1.6-.3-3.2-.4-4.7,0-.8-.1-1.7-.2-2.5-1.7.3-3.5.4-5.2.5-1.8.2-3.7.5-5.5.5-.5,2.5-.9,5-1.3,7.5-.2,1.1-.6,4.9-1,5.6-.3.5-.8.6-1.3.9.4.3.8.7,1.1,1,1.1.7,2.9,1.4,3.7,2.4.9.7,1.2,1.8,1.5,2.8.1.4.2.7.3,1.1,0,.2,0,.4,0,.6-.1.6-.5,1.1-1.1,1.5-1.6,1.1-4.1,1.4-5.9,1.2-1.5.1-4.1-.9-5.4-1.6-.7-.4-1.4-.9-2.1-1.2-.3-.1-.6,0-.9,0-.7-.1-1.5-.6-2.1-1-.6-.4-1.4-.9-1.6-1.7-.2-1,.5-5.1,1-6,0-.1,0-.3.1-.4-.2-.4-.3-.8-.3-1.3,0-.9.2-1.9.3-2.9l.6-5c0-.8.2-1.6.3-2.4-1.3.4-3.7.2-5,.5-.1.1-.1.2-.2.4-.2.8-.2,1.7-.3,2.6-.2,1.6-.3,3.2-.5,4.7l-.3,3.1c0,.6,0,1.2-.2,1.8,0,.3-.3.7-.5.9-.1,0-.2.2-.3.2.5.6.7,1.4,1.3,2,.5.5,1.2.9,1.8,1.3,1.9,1.4,2.8,2.9,3.3,5.2,0,.7-.1,1.4-.6,1.9-1.3,1.5-4.2,1.8-6,1.9,0,0-.1,0-.2,0l-.4-.2c-1.1,0-3-.4-4-.9h0c.1,0,.2,0,.3-.2,0,0,0-.1,0-.2,0,0,0,0,0,0-.8-.2-1.8-.9-2.4-1.3-.6-.4-1.1-.9-1.7-1.3-.3,0-.4,0-.7.2-.2,0-.4,0-.6,0-.7-.3-1.4-.7-2-1.2-.6-.7-.9-1.4-.9-2.4,0-1.5.5-4.4,1.6-5.5,0,0,0,0,0,0h0c0-.1,0-.1,0-.1-.3-.3-.5-.7-.5-1.1,0-.5,0-1,0-1.5,0-1.4,0-2.8.1-4.2,0-1.6,0-3.2,0-4.7-.6,0-1.2,0-1.8.1,0,0-.4,0-.4,0-.2.2-.2,1.4-.2,1.8-.4,5.3-.9,10.5-1.3,15.8l-.4,5.1c0,.8,0,1.7-.2,2.5,0,.3-.2.6-.4.9-.3.4-.8.5-1.3.5-.4,0-.8,0-1.2-.4-.3-.3-.4-.7-.4-1,0-.8,0-1.6,0-2.4l.2-4.1c.2-3.6.3-7.2.5-10.7l.4-6.1c0-.8.1-1.7.1-2.5-.2-.3-12.2-8.9-12.9-9.3,0,1.4-.2,2.8-.4,4.1l-.7,6.1-1,9.4c-.1,1-.2,2.1-.3,3.1,0,.5-.1.9-.6,1.2-.4.3-.9.4-1.4.3-.4,0-.8-.3-1-.6-.2-.3-.2-.7-.2-1,0-1.3.3-2.8.4-4l.9-9.6.6-6.9c.1-1.4.2-2.9.4-4.3-.3-.2-.6-.4-.8-.7-.2-.2-.2-.5-.3-.7,0-.8,0-3,.2-3.9-.4-.2-.9-.5-1.1-.9-.4-.8-.4-3.5,0-4.4.2-.5.6-.6,1.1-.8,0-2,.2-4,.1-6,0-.1,0-.3,0-.4,0-.1-1.2-.7-1.5-1-.2-.2-.5-.5-.6-.8-.3-.8-.2-2.8-.3-3.8,0-1,0-2,0-3,0-1.5-.1-4.2.2-5.5,0-.1,0-.2.1-.3,0-.1,0-.2.1-.3,0,0,.1-.2.2-.3,0,0,.1-.2.2-.3,1.2-1.2,3.5-1,5-1h0c2-4.3,6.5-6.4,10.7-8,1.2-.5,2.5-.8,3.6-1.3.3-.6.6-1.1,1.1-1.6,0-.1,0-.1,0-.2,0-.1-.4-.3-.5-.4-.7-.5-1.2-1.1-1.6-1.9-.7-1.6-1-3.7-.3-5.4.4-1,1.2-1.5,2.1-1.9.6-2.5.2-5.6,1.8-7.8.5-.8,1.4-1,2.1-1.6.5-.4.8-.9,1.2-1.3,1.1-1,3.2-2.4,4.7-2.7,0-.2.1-.3.2-.5.2-.4.8-.6,1.2-.7ZM50.5,57.4c.2-.1.4-.3.5-.5,0-.1,0-.2-.2-.3-.1,0-.2-.1-.4-.2,0,.3-.3,1-.3,1.3.2,0,.2-.2.3-.3Z" fill="#370200"/>
  <path d="M36.3,5.6c.3.1,3.1,0,3.7,0,.2,0,.4,0,.6,0,.4,0,.8.2,1.3.2.2,0,.4.1.6,0h0s0,0,0,0c.2.2,2.6.6,3,.8,0,0,0,0,0,0,.2.1.4.2.6.4.5.3.9.6,1.4,1,2.2,1.9,3.8,5,4.2,7.9.3,2.1,0,4.4-.4,6.5-.2.8-.4,1.6-.5,2.4-.2,1.2,0,2.4,0,3.6,0,1.7-.5,2.5-.9,4-.3,0-.7,0-.9.3,0,0,0,.2-.1.2,0,.4.3,1.1,0,1.5,0,0,0,0-.2.1-.1,0-.2,0-.3-.1-.2-.2-.2-.7-.3-1-.3-1.3-.8-2.4-2-3.1-.4.3-.8.6-1.2.8-.7.4-1.8.4-2.6.2-2.8-.6-4.2-2.3-7-.5-.7.5-1.9,1.8-2.1,2.6,0,0,0,0,0,0,0,.2-.1.4-.3.5,0,0,0,0-.2,0-.1-.1-.2-.3-.2-.5,0-.2,0-.3,0-.4-.3-.2-.6-.4-.8-.6-.5-.4-1-.9-1.4-1.4-.2-.3-.8-1-1.1-1.1,0,0-.2,0-.2,0-.1-1-.2-2-.7-3v.8c-.3,0-.5-.1-.6-.2-.2-.2,0-2.2-.2-2.7.2-.7.1-1.5.2-2.3,0-1.2.2-2.4.4-3.6,0,0,0,0,0,0,0-.3.3-1.8.2-2.1.3-.5.5-1.1.5-1.7h0c.2-.6.4-2.1.3-2.7,0-.2,0-.4,0-.6h0c0-.3,0-.6,0-.9h0c0,0,0,0,0,0h0s0,.1,0,.1h0s-.1,0-.1,0h0s-.1,0-.1,0c.1-.2.2-.3.2-.5-.1-.3,0-.7.2-1-.2-.2-.4-.3-.5-.5-.1,0-.3-.1-.4-.1-.3,0-.5-.3-.8-.4,1.1-1.2,3.6-3,5.3-3.2,1-.1,2.6.5,3.5,0Z" fill="#feab86"/>
  <path d="M38.5,29.5c0-.2,0-.5.1-.6.1-.3.4-.8.8-.9.2,0,.3,0,.4,0,.2.4-.5.8-.5,1.3,0,.1,0,.3.2.4.2.2,3.1,1.1,3.4,1.2.4,0,.7,0,1.1,0,.1,0,.2,0,.4,0,.7-.2,1.2-.6,1.5-1.2.1-.2.1-.6.2-.9,0-1.7-1.6-1.7-2.1-3.1-.2-.5-.1-1,.1-1.4,0-.2.2-.3.4-.3.1,0,.2.1.2.3,0,.3,0,.7,0,1,.1.8,1.2,1.2,1.7,1.8.6.8.5,1.8.4,2.8,1.2.9,1.9,1.9,2.4,3.3,0,.4.3,1.1,0,1.5,0,0,0,0-.2.1-.1,0-.2,0-.3-.1-.2-.2-.2-.7-.3-1-.3-1.3-.8-2.4-2-3.1-.4.3-.8.6-1.2.8-.7.4-1.8.4-2.6.2-2.8-.6-4.2-2.3-7-.5-.7.5-1.9,1.8-2.1,2.6,0,0,0,0,0,0,0,.2-.1.4-.3.5,0,0,0,0-.2,0-.1-.1-.2-.3-.2-.5,0-.2,0-.3,0-.4.2-.7.7-1.4,1.2-1.9,1.3-1.3,2.7-1.9,4.5-2Z" fill="#370200"/>
  <path d="M36.8,20.1c.3,0,.6,0,.9,0,.7,0,1.9.1,2.4.7,0,.1.1.2,0,.3-.5.4-1.8-.1-2.4-.2-.4,0-.8,0-1.2,0-.3,0-.6,0-.9.2-.6.2-1.2.6-1.9.6-.1,0-.2,0-.3-.1,0-.2,0-.2.1-.3.6-.7,2.2-1.1,3.1-1.1Z" fill="#370200"/>
  <path d="M47.9,21s0,0,0,0c.8,0,1.8.2,2.5.7.3.3.5.6.6,1,0,.1,0,.1-.2.2-.5,0-.9-.5-1.3-.7-1.5-.7-3.1.2-3.6,0v-.2c0-.1,0-.2,0-.3.3-.4,1.4-.6,1.9-.7Z" fill="#370200"/>
  <path d="M37.1,23.8c.5,0,1,0,1.5.2.3.2.8.5.9.9,0,.1,0,.2,0,.3-.4.2-1.3-.4-1.7-.5-.9-.2-1.6.5-2.4.5-.1-.1-.1-.1-.2-.3,0,0,0-.2.1-.2.4-.5,1.3-.7,1.9-.8Z" fill="#370200"/>
  <path d="M47.6,24.4c.4,0,.7,0,1,.3.3.2.6.4.8.8,0,0,0,.1,0,.2-.4.3-1-.2-1.5-.3,0,0,0,0,0,0-.5,0-1.3.4-1.8.2-.1,0-.2-.1-.2-.3,0,0,0-.1,0-.2.3-.4,1.3-.6,1.8-.7Z" fill="#370200"/>
  <path d="M33.8,25.3c.1,0,.3.1.3.2,0,0,0,.1,0,.2-.3.4-1.2.7-1.7.8-.2-.1-.2-.3-.3-.4.6-.4,1.1-.7,1.8-.8Z" fill="#db6f00"/>
  <path d="M27.1,9.2l.4-.4c.3.1.5.3.8.4.2,0,.3,0,.4.1.2.2.4.3.5.5,0,.3-.3.7-.2,1,0,.2,0,.3-.2.5h.1s0,0,0,0h.1s0,0,0,0h0c0-.1,0-.1,0-.1h0c0,.1,0,0,0,0,0,.3,0,.6,0,.9h0c0,.2,0,.4,0,.6.1.6,0,2.1-.3,2.6h0c0,.7-.2,1.2-.5,1.7.1.3-.1,1.8-.2,2.1,0,0,0,0,0,0-.1,1.2-.3,2.4-.4,3.6,0,.7,0,1.6-.2,2.3.1.5,0,2.5.2,2.7.2,0,.3.1.5.2v-.8c.6.9.7,1.9.9,3,0,0,.2,0,.2,0,.3.1.8.8,1.1,1.1.5.5.9,1,1.4,1.4.3.2.6.4.8.6,0,.1,0,.3,0,.4,0,.2,0,.4.2.5.1,0,.1,0,.2,0,.2-.1.3-.3.3-.5,0,0,0,0,0,0,.2-.8,1.4-2.2,2.1-2.6,2.9-1.8,4.3-.1,7,.5.8.2,1.8.2,2.6-.2.4-.2.8-.6,1.2-.8,1.2.7,1.7,1.9,2,3.1,0,.3.1.7.3,1,0,.1.2.1.3.1,0,0,.1,0,.2-.1.2-.4,0-1.1,0-1.5,0,0,0-.2.1-.2.2-.3.6-.3.9-.3,0,.2,0,.3,0,.5h.1c.2,0,.3-.3.5-.5.2-.5.4-1,.5-1.6,0,1.2,0,3.8-.7,4.8-.3.2-.3.2-.4.6-.2,0-.4,0-.5,0-.3-.1-.4-.6-.6-.9-.1.1-.2.3-.3.4,0,0-.2,0-.3,0-.1,0-.1,0-.3,0v.2c-.2.4-.4.8-.6,1.1-.3,0-.7.4-1,.3-.1.2-.2.5-.3.7-.2.4-.6,1.1-1,1.3-.2,0-.4,0-.6,0,0,0-.1,0-.2,0-.2.4-.4.7-.7,1-.4-.5-.6-1.1-.9-1.6-.3.3-.4.6-.7.8-.6.6-1.4,1.2-2.3,1.2-1.3,0-1.3-1.1-1.8-1.6-.4,0-.7.6-1.2.6-.4,0-.3-.7-.6-.9-.4,0-.8.1-1.2,0-.4-.3-.1-1-.3-1.5,0,0,0-.1-.2-.1-.3,0-.6.3-.8.5,0-.4,0-1.3-.1-1.6,0-.2-.3-.2-.5-.3-.1,0-.2.1-.3.2-.2.1-.3.3-.5.4-.2,0-.2.1-.4,0-.2-.3-.2-1-.2-1.3,0-.2-.2-.3-.3-.4-.2,0-.3,0-.5,0h0s0,0,0,0c-.5-.5-.8-.9-1-1.6,0-.2-.1-.4-.3-.6-.5-.3-.6.3-1,.4,0-.2,0-.2-.2-.3h0c-.3-.8-.5-1.6-.6-2.4,0,0-.1,0-.2,0-.2-.1-.3-.4-.5-.6h0s0,.2,0,.2h0c0-.3.1-.9,0-1.2-.1,0-.2-.1-.4-.1h0c0,.1,0,.1,0,.1-.7,0-.4-1.1-.8-1.4-.2.1-.3.2-.5.3h0c-.2,0-.4,0-.6,0l.2-.9c.1-.9.5-1.8.7-2.7.4-1.3.4-3.1-.3-4.3-.5-.9-1.2-1.3-2.2-1.5.3-2.2,0-5.8,1.7-7.5.6-.6,1.4-.9,2-1.4Z" fill="url(#linear-gradient)"/>
  <path d="M27.6,25.2c0,0-.1,0-.2.1,0,0-.1,0-.2,0-.1-.2-.2-.4-.2-.6-.2-1-.1-2.9.3-3.9.2-.5.6-1,.9-1.5-.1,1.2-.3,2.4-.4,3.6,0,.7,0,1.6-.2,2.3Z" fill="#370200"/>
  <path d="M28.4,28.1v-.8c.6.9.7,1.9.9,3,0,.3,0,.5,0,.8,0,.2,0,.2-.1.3-.1,0-.2,0-.3-.1-.4-.4-.5-2.5-.5-3.2Z" fill="#370200"/>
  <path d="M29.1,12.7c-.4.6-1,1.7-1.6,2.1,0,0-.1,0-.2,0,0-.2,0-.4.1-.6.3-.7,1.1-1.9,1.8-2.2,0,.2,0,.4,0,.6Z" fill="#2d0502"/>
  <path d="M28.4,17.1c-.3.3-.5.7-.9.9h0c0-.2,0-.3,0-.4.2-.7.8-1.8,1.5-2.2,0,.6-.2,1.2-.5,1.7Z" fill="#2d0502"/>
  <path d="M28.5,11c.2,0,.4-.1.6-.2,0,.2,0,.3-.2.5-.4.4-1.3,1.4-1.9,1.4,0,0,0-.1,0-.2.3-.5.8-1,1.2-1.3,0,0,.2-.1.2-.2Z" fill="#2d0502"/>
  <path d="M48.2,36.1c0,0,0-.2-.1-.3,0-.2,0-.3.2-.5.2-.1.4-.2.6-.1.4,0,.5.6.7.9h0c0,0,0-.1.1,0,0,0,0,0,0,0,.3,0,.3-.3.7-.4h0c-.3.3-.3.3-.4.7-.2,0-.4,0-.5,0-.3-.1-.4-.6-.6-.9-.1.1-.2.3-.3.4,0,0-.2,0-.3,0-.1,0-.1,0-.3,0v.2Z" fill="#c4a39a"/>
  <path d="M27.1,9.2l.4-.4c.3.1.5.3.8.4.2,0,.3,0,.4.1.2.2.4.3.5.5,0,.3-.3.7-.2,1-.2,0-.4,0-.6.2h0c0,0,0-.1,0-.1,0-.1.2-.2.3-.3,0,0,0,0,.2,0,0,0,.1-.2,0-.3,0-.2-.5-.6-.7-.7,0,0,0,0-.1-.1h-.2c-.3,0-.6,0-.8-.2Z" fill="#be8f7b"/>
  <path d="M25.2,26.7c.2.3.2.6.4.8-.2,0-.4,0-.6,0l.2-.9Z" fill="#c4a39a"/>
  <path d="M31.3,34.9c0-.2,0-.2.1-.3.2,0,.2-.1.4,0,.2,0,.3.3.3.5,0,0,0,.2,0,.2,0-.2-.2-.3-.3-.4-.2,0-.3,0-.5,0Z" fill="#d7c9c8"/>
  <path d="M35.8,34.1c-.2,0-.3.1-.5.1h-.1c0-.3,0-.3.1-.5.3-.4,1-.8,1.5-.8.1,0,.2,0,.4,0,.4.5.8.9,1.5,1,.3,0,.7,0,1,0,.4.2.7.4,1.2.5.5,0,1-.3,1.5-.4.7,0,1.3.2,1.9,0,.2,0,.5-.2.7-.3.6.2,1,.3,1.6.3h0c0-.3,0-.5.2-.6h.2c.2.1.3.5.4.7,0,.2,0,.4,0,.6-.1.1-.2.1-.3.2-.2,0-.3-.1-.4-.2h-.1c0,0,.1,0,0,.2-.1.6-.7,1.2-1.2,1.5-.2.1-.5.2-.8.2-.2.2-.5.3-.7.4-1.3.4-3.4.4-4.6-.2l-.3-.2s0,0,0,0c-.4-.2-.8-.3-1.2-.5-1-.3-1.2-1.1-1.7-1.9Z" fill="#feab86"/>
  <path d="M35.8,34.1c-.2,0-.3.1-.5.1h-.1c0-.3,0-.3.1-.5.3-.4,1-.8,1.5-.8.1,0,.2,0,.4,0,.4.5.8.9,1.5,1,.3,0,.7,0,1,0,.4.2.7.4,1.2.5.5,0,1-.3,1.5-.4.7,0,1.3.2,1.9,0,.2,0,.5-.2.7-.3.6.2,1,.3,1.6.3h0c0-.3,0-.5.2-.6h.2c.2.1.3.5.4.7,0,.2,0,.4,0,.6-.1.1-.2.1-.3.2-.2,0-.3-.1-.4-.2h-.1c-.4,0-.8-.1-1.2,0-.4,0-.7.3-1.2.3-.5,0-1-.1-1.6,0-.6,0-1.1.3-1.7.3-.1,0-.3,0-.4,0-1-.4-1.2-.2-2.2-.4-.6-.1-1.1-.4-1.5-.9l-.8.5Z" fill="#2d0502"/>
  <path d="M38.8,36.5c0-.2,0-.3,0-.5.4-.2,1.4.2,1.8.3.9.2,1.7.1,2.6,0,.3,0,.6-.1,1-.1.2,0,.2.2.3.4-.2.2-.5.3-.7.4-1.3.4-3.4.4-4.6-.2l-.3-.2Z" fill="#370200"/>
  <path d="M27.9,85.1c2.6-.3,5.2-.5,7.8-.8,1.6-.1,3.1-.3,4.7-.4,0,1.1-.2,2.1-.3,3.2-.2,1.6-.3,3.2-.4,4.8-.1,1.4-.2,3.2-.5,4.5v.3c-1.2,1.1-3.4,1.2-4.8,1.2-1.5,0-5-.5-6-1.6-.3-.3-.4-.9-.5-1.3-.1-1.3,0-2.7,0-4,0-2,0-4,0-6Z" fill="#964800"/>
  <path d="M25.6,27.6h0c.2,0,.3,0,.5-.2.4.3,0,1.5.8,1.4,0,0,0,0,0,0h0c.2-.1.2,0,.4,0,.1.2,0,.9,0,1.2h0s0-.2,0-.2h0c.1.2.3.4.5.5,0,0,.2,0,.2,0,0,.8.3,1.7.6,2.4h0c.2.1.2.2.2.4.4,0,.5-.7,1-.4.1.2.2.4.3.6.2.7.5,1.1,1,1.6h0s0,0,0,0c.2,0,.3,0,.5,0,.1.1.2.2.3.4,0,.4,0,1,.2,1.3.2,0,.3,0,.4,0,.2,0,.3-.2.5-.4,0,0,.2-.1.3-.2.2,0,.4.1.5.3.2.3,0,1.2.1,1.6.2-.2.5-.5.8-.5.1,0,.1,0,.2.1.2.5,0,1.1.3,1.5.4.2.8.1,1.2,0,.3.2.2.9.6.9.5,0,.7-.6,1.2-.6.6.6.5,1.6,1.8,1.6.9,0,1.7-.6,2.3-1.2.2-.3.4-.6.7-.8.3.6.6,1.1.9,1.6.3-.3.5-.6.7-1,.1,0,.1,0,.2,0,.2,0,.4.1.6,0,.4-.2.9-.9,1-1.3,0-.2.1-.5.3-.7.3,0,.7-.2,1-.3.2-.4.4-.7.5-1.1v-.2c.3,0,.3,0,.4,0,0,0,.2,0,.3,0,.1-.1.2-.2.3-.4.1.3.3.8.6.9.2,0,.4,0,.5,0-.1.5-.5,2-1,2.3,0,0,0,0,0,0-.1-.1-.2-.2-.3-.2-.2.1-.2.3-.3.5,0,.3-.1.6-.2.8-.5,1.2-1.7,2.2-2.8,3,0-.2.2-.4.1-.6,0,0,0,0-.2,0-.5,0-.9,1-1.3,1.3-.3.3-.8.4-1.1.7-.1.1-.2.2-.4.3h0c-.1-.2-.1-.3-.4-.4-.3.1-.4.4-.7.4-.6.3-1.3.7-2,.7-.9,0-1.7-.5-2.4-1.1-2.6,0-3.3-2.1-4.2-2.1-.1.1,0,.4-.1.5-.2,0-.3,0-.4-.1-1.2-.5-1.9-2-2.6-2.2-.2,0-.3.1-.4.2-.5-.4-1.2-1.3-1.5-1.9-.2-.3-.3-.7-.4-1.1,0-.2-.2-.3-.4-.4-.2,0-.3.2-.4.3,0-.1-.2-.2-.2-.3,0-.1-.1-.2-.2-.3,0-.1-.1-.2-.2-.4,0-.1,0-.2-.1-.4-.1-.4-.2-2.2-.4-2.4-.2,0-.4.4-.5.5-.7-1.2-.2-2.7,0-4,0-.2,0-.4,0-.5-.1,0-.2,0-.3,0-.2-.6,0-1.3.2-1.9.2,0,.4,0,.6,0Z" fill="#eeeced"/>
  <path d="M41.5,44.4c.1-.2,1-.7,1.2-.9,0,.2-.1.5,0,.7.2,0,.2,0,.4,0-.1.1-.2.2-.4.3h0c-.1-.2-.1-.3-.4-.4-.3.1-.4.4-.7.4Z" fill="#2d0502"/>
  <path d="M45.5,99.1c0-1.1,0-2.9.8-3.7.4.2.7.3,1.1.5,2.8.9,5.6.9,8.5.6,0,0,.3,0,.3,0,0,0,0,.1,0,.2,0,0,.1,0,.2,0,0-.1,0-.2,0-.3.2,0,.3,0,.5.1.2.1.3.2.4.4.2.1.2.2.4.2,1.1.7,2.9,1.4,3.7,2.4.9.7,1.2,1.8,1.5,2.8.1.4.2.7.3,1.1,0,.2,0,.4,0,.6v-.3c-.1-.1-.1-.2-.1-.4,0-.3,0-.6-.3-.9h-.1c0,.1-.1.1-.1.1h0c0-.1-.1-.1-.1-.1h0c-.2.3-.2.4-.5.5h0c-1.4,1-3.6,1.1-5.2,1-1.2,0-2.6-.3-3.7-.6-1.1-.4-2.1-1-3.1-1.5-1.3-.7-3.5-1.6-4.4-2.7Z" fill="#6f0000"/>
  <path d="M56.6,96.3c.2,0,.3,0,.5.1.2.1.3.2.4.4.2.1.2.2.4.2,1.1.7,2.9,1.4,3.7,2.4.9.7,1.2,1.8,1.5,2.8.1.4.2.7.3,1.1,0,.2,0,.4,0,.6v-.3c-.1-.1-.1-.2-.1-.4,0-.3,0-.6-.3-.9h-.1c0,.1-.1.1-.1.1h0c0-.1-.1-.1-.1-.1h0c-.2.3-.2.4-.5.5h0c0-.2.2-.3.3-.4,0-.2,0-.6,0-.9-.5-1.5-2.1-2.6-3.5-3.2-1.4-.7-2.2-1.2-3.8-.7-.4.1-.8.2-1.1.5-.4.3-.9.7-1.4.9-.1,0-.1,0-.2,0,0-.2,0-.3,0-.5.3-.8,1.7-1.4,2.5-1.6.5-.1,1-.1,1.5-.3,0,0,0,0,0,0,0,0,.1,0,.2,0,0-.1,0-.2,0-.3Z" fill="#2d0502"/>
  <path d="M61.6,99.4c.9.7,1.2,1.8,1.5,2.8.1.4.2.7.3,1.1,0,.2,0,.4,0,.6v-.3c-.1-.1-.1-.2-.1-.4,0-.3,0-.6-.3-.9h-.1c-.2-.4,0-1-.2-1.6-.2-.5-.8-1-.9-1.5Z"/>
  <path d="M45.3,95.2c0,.5-.2,1.1-.3,1.6-.3,1.3-1,4.2.1,5.2.5.4,1.3,1,1.9,1.2.2,0,0-.2.3,0,0,0,0,0,0,.1,0,.1,0,.1.2.2.1,0,.3,0,.4,0,.1,0,.1,0,.2-.1h0c-.1-.2,0-.1-.2-.1-.2,0-.2,0-.4-.1h-.2s0,0,0,0c-.5-.3-1.6-.7-1.9-1.1-.1-.1-.2-.4-.3-.5h0s0,0,0,0c-.1-.3,0-.4-.2-.6-.1-.1-.1-.2-.1-.4,0-.1,0-.1,0-.2h.1c.8.3,1.4.9,2.1,1.3.7.4,1.4.6,2.1,1,1.1.6,2,1.2,3.1,1.7.6.2,1.2.3,1.8.4,2,.3,4.4.5,6.4-.1.6-.2,1.1-.7,1.6-.8,0,0,0,0,0,0,0,0,0,0,.1,0h0c0,.2-.2.5,0,.7.1,0,.2.1.4,0,.1-.1.1-.3,0-.4,0,0,0-.2,0-.3h0s0,0,.1.1v.3c0,.6-.4,1.1-.9,1.5-1.6,1.1-4.1,1.4-5.9,1.2-1.5.1-4.1-.9-5.4-1.6-.7-.4-1.4-.9-2.1-1.2-.3-.1-.6,0-.9,0-.7-.1-1.5-.6-2.1-1-.6-.4-1.4-.9-1.6-1.7-.2-1,.5-5.1,1-6Z" fill="#6f0000"/>
  <path d="M45.3,95.2c0,.5-.2,1.1-.3,1.6-.3,1.3-1,4.2.1,5.2.5.4,1.3,1,1.9,1.2.2,0,0-.2.3,0,0,0,0,0,0,.1,0,.1,0,.1.2.2.1,0,.3,0,.4,0,.1,0,.1,0,.2-.1h0c-.1-.2,0-.1-.2-.1-.2,0-.2,0-.4-.1h-.2s0,0,0,0c-.5-.3-1.6-.7-1.9-1.1-.1-.1-.2-.4-.3-.5h0s0,0,0,0c0,0,0,0,0,0,.1.1,0,0,0,.1.1.1.3.2.5.4.9.7,1.4.8,2.3,1.3.2.1.3.2.5.2.2,0,.2-.1.3-.2,0,0,0,0,0,0,.7.3,1.3.9,2,1.3,1.7.9,3.9,1.5,5.9,1.6.6,0,1.1,0,1.7,0,1.4-.3,2.4-.5,3.5-1.3.1-.4.3-.7.4-1.1h0c0,.2-.2.5,0,.7.1,0,.2.1.4,0,.1-.1.1-.3,0-.4,0,0,0-.2,0-.3h0s0,0,.1.1v.3c0,.6-.4,1.1-.9,1.5-1.6,1.1-4.1,1.4-5.9,1.2-1.5.1-4.1-.9-5.4-1.6-.7-.4-1.4-.9-2.1-1.2-.3-.1-.6,0-.9,0-.7-.1-1.5-.6-2.1-1-.6-.4-1.4-.9-1.6-1.7-.2-1,.5-5.1,1-6Z" fill="#200000"/>
  <path d="M48.2,103.2c0,0,0-.1,0-.2.3,0,.5,0,.8.1-.1.1-.2.2-.3.2-.2,0-.3,0-.5-.2Z" fill="#2d0502"/>
  <path d="M27.2,103.5c-.2-.5-.5-1-.4-1.5h0c0,0,.1.2.2.3,0,0,.1,0,.2,0,.1,0,1.2,1.1,1.5,1.2,2.4,2,4.1,3.6,7.5,4.2,2,.4,4.3.4,6.2-.3.6-.2,1.1-.4,1.6-.8.1,0,.6-.6.7-.5,0,0,.1.2.1.3h.1c0,0,.1,0,.2,0v-.3c.2.7,0,1.4-.5,1.9-1.3,1.5-4.2,1.8-6,1.9,0,0-.1,0-.2,0l-.4-.2c-1.1,0-3-.4-4-.9h0c.1,0,.2,0,.3-.2,0,0,0-.1,0-.2,0,0,0,0,0,0-.8-.2-1.8-.9-2.4-1.3-.6-.4-1.1-.9-1.7-1.3h0c0,0,0-.2,0-.2-.6,0-.5-.3-.8-.4,0,0-.2,0-.3,0-.3,0-.7-.3-1.1-.4-.2-.1-.4-.4-.6-.5h.3c0-.1-.1-.2-.2-.3-.1-.2-.2-.2-.4-.3Z" fill="#6f0000"/>
  <path d="M45.4,106c0,.7-.1,1.4-.6,1.9-1.3,1.5-4.2,1.8-6,1.9,0,0-.1,0-.2,0l-.4-.2c-1.1,0-3-.4-4-.9h0c.1,0,.2,0,.3-.2,0,0,0-.1,0-.2,0,0,0,0,0,0,.5,0,1.2.4,1.7.5,1.3.3,3.4.2,4.7,0,1.1-.2,2.4-.5,3.2-1.2.3-.3.6-.6.8-1v-.2c0,0,.2,0,.2,0,0,0,.1,0,.2,0v-.3Z" fill="#2d0502"/>
  <path d="M45.4,106c0,.7-.1,1.4-.6,1.9-1.3,1.5-4.2,1.8-6,1.9,0,0-.1,0-.2,0l-.4-.2c1.3,0,2.4,0,3.8-.4.9-.3,2.3-.7,2.8-1.6.2-.3.2-.7.1-1v-.2c0,0,.2,0,.2,0,0,0,.1,0,.2,0v-.3Z" fill="#200000"/>
  <path d="M33.7,4.5h.6c.6,0,1.1-.3,1.7-.3.4,0,.7,0,1.1,0,.4,0,.7-.2,1-.3,1.8-.2,6.1.8,7.5,2,.2.2.3.3.3.5,0,.1,0,.3,0,.4-.5-.1-2.8-.6-3-.8,0,0,0,0,0-.1h0c-.2.1-.4,0-.6,0-.4,0-.9-.1-1.3-.2-.2,0-.4,0-.6,0-.6,0-3.4,0-3.7,0-.5-.8-2.5-.5-3.1-.7.1-.2.3-.3.5-.4Z" fill="#be8f7b"/>
  <path d="M41.3,4.7c.5.1.8.3,1.1.7,0,.2.1.3.2.5-.2,0-.4,0-.6,0-.3-.4-.5-.7-.6-1.2Z" fill="#2d0502"/>
  <path d="M39.9,4.7c.4.3.6.5.7.9-.2,0-.4,0-.6,0,0-.1-.1-.2-.2-.3.1-.2,0-.4,0-.6Z" fill="#2d0502"/>
  <path d="M39.8,5.3c-.1-.2-.2-.3-.2-.5h0c0,0,.3-.1.3-.1,0,.2,0,.4,0,.6Z" fill="#200000"/>
  <path d="M47.4,95.8s0,0,.1,0c.2,0,1.6.4,1.9.4,1.2.2,2.8.3,4.1.2.5,0,1.7-.3,2.1-.2,0,0,0,0,0,0h-.3c.1.1.3.1.4.1-2.9.3-5.7.4-8.5-.6Z" fill="#200000"/>
  <path d="M39.6,96.8c.3-1.1.3-4.6.8-5.3l-.3,3.1c0,.6,0,1.2-.2,1.8,0,.3-.3.7-.5.9-.1,0-.2.2-.3.2,0,0-.1,0-.2,0,0-.2.1-.6.2-.8v-.3c.1.2.1.5.3.7.2,0,.2-.1.4-.3Z" fill="#200000"/>
  <path d="M22.8,28.1c0,.1,0,.2,0,.3-.2.3-.7,1.7-1.1,1.8h0c-1-.3-2.4.9-3.5.8,1.2-.5,2.5-.8,3.6-1.3.3-.6.6-1.1,1.1-1.6Z" fill="#200000"/>
  <path d="M56.2,96c.3-.5,1.1-.4,1.6-.7l.3-.2c-.3.5-.8.6-1.3.9.4.3.8.7,1.1,1-.2,0-.3,0-.4-.2-.1-.1-.3-.3-.4-.4-.2-.1-.3-.1-.5-.1-.2,0-.2-.1-.4-.3Z" fill="#200000"/>
  <path d="M32.1,5c0-.2.1-.3.2-.5.2-.4.8-.6,1.2-.7,0,0,0,0,0,0-.2.2-.5.3-.7.4.2.1.6.1.8.2-.2,0-.4.1-.5.4-.1-.1-.2-.2-.4-.2,0,0,0,0-.1,0h.1c-.1,0-.2,0-.3,0,0,0,0,0,0,0h0c0,0,0,.1-.2.2h-.1Z" fill="#200000"/>
  <path d="M52.1,30.9c.1.7,0,1.5,0,2.2,0,0-.1,0-.1-.2,0-.5-.1-1.5.1-1.9Z"/>
  <path d="M21.3,30.7c0,.5-.2,1.9-.3,2.5-.1,1.4-.6,8.4,0,9.2,1,.6,5.1-.8,6.6-.8,0,0,.2,0,.3,0,0,0,0,0,0,0,.3.8-.2,1,.8,1.9.4.4,4.4,2.7,4.8,2.7.2,0,.2,0,.2-.2,0-.2,0-.3-.1-.4-.7-.8-4.3-2.1-4.6-2.8-.2-.4-.3-1.1-.1-1.5.2-.1.6.4.8.5.3.1.7.2.9.3,1.1.6,1.3,1.1,2.7,1.2h0c1.5,1.2,2.2,1.2,3.1,3-.3.6-.6,1.1-.8,1.8-.5,1.4-.7,4-.7,5.5,0,0,0-.1,0-.2,0,0,0,0,0,0-.2-.8-1.6-3.5-2.2-4.2-.1-.2-.3-.3-.5-.4-.5,0-.9,0-1.3.2-.5.2-.9.5-1.1.9-.1.3-.1.7,0,1,.2.7.6,1.3,1,2l1.4,2.4c.4.6.8,1.2,1,1.9h0c-1.6.3-3.1,1-4.7,1.3-.7-.3-1.4-.6-2.1-1-1.8-1-4.5-3.1-6.3-3.7,0-1.2-.2-2.4-.2-3.6,0-1-.2-2.1-.3-3-.4-2.9-.7-5.6-2.4-8-1-1.4-2.2-2.6-3.7-3.4-.2-.1-.6-.3-.9-.4-.2,0-.2,0-.3.1,0,.5.6.8,1,1,1.7,1.1,3,2.5,3.9,4.2,1.3,2.4,1.5,5.2,1.7,7.9.1,1.4.2,2.7.6,4.1-.2-.3-.4-.6-.7-.9-1.3-1.2-3.2-1.3-4.9-1.2-2.5.1-5.1,1.2-6.8,3.1-.5.5-.8,1.2-1.2,1.7-.1,0-.1,0-.2-.2.3-1.1.2-2.5.2-3.6,0-2,.3-4,.5-5.9.9-7.6,3.6-10.6,10.7-13.4.9-.3,1.7-.7,2.6-1,.5-.1,1.2-.2,1.5-.5Z" fill="#007787"/>
  <path d="M27.2,41.8c.2,0,.3,0,.5,0,.1,0,.2.1.2.3h0c0,.1,0,.2,0,.2v-.2c-.2,0-.6,0-.7,0h0c0-.2,0-.2.2-.3Z" fill="#323230"/>
  <path d="M5.7,69c1.3.7,2.5,1.6,3.8,2.4l7.9,5.3c1.8,1.2,3.5,2.5,5.4,3.5,0,.9-.2,2.6,0,3.4,0,.2.2.3.4.4,0,0,.1,0,.2,0,.3-.3.3-3.2.3-3.7.7,0,1.5,0,2.2-.1l38.7-4,7.1-.7c.9-.1,2.9-.4,3.7-.3,0,.2,0,.4,0,.6-.1,1.2,0,2.4-.4,3.6-.3.2-.6.4-.9.5-.5.2-1.1.2-1.7.2-1.3.1-2.5.3-3.8.4-5.5.5-10.9,1-16.4,1.5-3.4.3-6.8.7-10.2,1l-9.8.9c-2.5.3-5.1.6-7.6.8-.5,0-1.4.2-1.9,0-1.1-.6-2.1-1.3-3-2l-3.3-2.4c-2.2-1.6-4.4-3.1-6.6-4.7-.7-.5-1.4-1-2.1-1.5-.6-.4-1.4-.9-1.9-1.4-.1-1.1,0-2.4,0-3.5Z" fill="#166f83"/>
  <path d="M51.3,36.5c.8.3,1.5.9,2.1,1.5,2.4,2.5,4.6,6.4,6.4,9.4.6.9,1.3,2,1.7,3,0,.2.1.5.2.7-1.6-1-2.9-1-4.8-.5-1.9.5-3.9,1.8-4.9,3.5-.2.4-.4.8-.7,1.1-.1,0-.3,0-.4-.2-.1-.1,0-.5,0-.6.2-1.6.6-3.1.8-4.7.2-1.3.2-2.6.4-3.9,0-1,0-2,0-3l-.3-.2h0c0,0-.1,0-.1,0-.3.3-.3,2.9-.4,3.4-.2,2.9-.7,5.7-1.2,8.6-.3,1.4-.6,2.7-.8,4.1-.9,0-1.7.1-2.6.2-2.5.2-5,.6-7.5.6-.5-.4-1.4-.8-1.8-1.4-.3-.4-1.4-2.9-1.4-3.3-.3-1.5,0-4.8.4-6.4.1-.6.5-1.5,1-1.9.3-.3.7-.4,1.1-.7.2,0,.5.1.7.1,1,0,2.2-.6,3.1-.9-.8.9-2.3,1.5-3.4,1.9-.4.1-.7.2-1.1.4-.3.2-.5.3-.6.7h0c0,.1,0,.1.2.1.8,0,4.1-1.5,4.9-2,.4-.2.7-.5,1.1-.7.7-.5,1.4-1.2,2.1-1.7.8-.6,1.6-1.1,2.3-1.7.1-.1.3-.4.5-.4,0,0,0,0,0,.2,0,.3-.2.5-.4.6-.1,0-.3.2-.4.3.1.3.4.4.6.5.2,0,.5-.2.7-.3.5-.9.2-1.1,0-2h0c.3-.7.8-1.2,1.1-1.8.5-.8.8-1.7,1.1-2.5Z" fill="#007787"/>
  <path d="M52,42.8h0c0,0,.1.2.1.4,0,0,0,0,0,0,0,.5,0,2.4-.1,2.9,0-.1,0-.2,0-.3,0-1,0-2,0-3Z" fill="#2b4854"/>
  <path d="M47.9,42c.1-.1.3-.4.5-.4,0,0,0,0,0,.2,0,.3-.2.5-.4.6-.1,0-.3.2-.4.3h0c0,0,0,.2,0,.2h-.1c-.1-.3.4-.6.5-.9Z" fill="#323230"/>
  <path d="M49.7,50.6c.2,0,.4,0,.6,0-.1.1-.2.2-.3.3-.4.3-1,.5-1.5.6-2.1.5-4.2.6-6.3.4-.1.9-.3,1.8-.4,2.8,0,.7,0,1.3-.2,2,0,0-.1,0-.2.1-.1,0-.2,0-.3-.2-.3-.5.2-3.7.3-4.3,0-.5,0-.8.5-1.1,1.6,0,3.2.2,4.8,0,1-.1,1.9-.5,2.9-.6h0Z" fill="#2d0502"/>
  <path d="M37.7,49.6c.2,0,.5,0,.7.2.3.2.3.5.4.8-.1.6-.3.8-.8,1.2,0,0-.2,0-.3,0-.2,0-.4-.2-.5-.3-.2-.2-.2-.5-.2-.8,0-.5.3-.9.7-1.2Z" fill="#2d0502"/>
  <path d="M61.8,60.9c.4.2.9.4,1.4.6.8.4,1.5.8,2.3,1.2,2.2,1.1,4.4,2.3,6.5,3.4,1.3.7,2.6,1.3,3.9,2,.5.3,1,.5,1.4.8.2.1.3.3.4.4,0,0-.1,0-.2,0-.9.2-1.8.2-2.7.3-1.5.2-2.9.3-4.4.4l-11.8,1.2-26,2.6c-2.5.2-5,.6-7.5.8-.6,0-1.3,0-1.9,0-.4,0-.8-.3-1.2-.5-.6-.4-1.3-.8-1.9-1.2-.9-.6-1.9-1.2-2.8-1.8l-6.8-4.4c-1.4-.9-2.8-1.8-4.1-2.7-.9-.6-1.7-1.2-2.7-1.6,1.2-.2,2.5-.3,3.8-.4.9,0,2-.3,2.9-.2.8,0,2.5,1,3.5,1.3,1.6.5,3.2.9,4.8,1.3.9.2,1.8.4,2.6.8.6.2,1.1.6,1.7,1,1.6,1,3.1,2.1,4.6,3.1,1.1.7,2.2,1.4,3.3,2.2.6.4,1.6,1.3,2.2,1.4.3,0,.9,0,1.2,0,1.7-.1,3.5-.4,5.2-.6l6.4-.7,10.4-1.1c1.6-.2,3.2-.3,4.8-.5.5,0,1-.2,1.4-.4.2,0,.3-.1.3-.3,0-.2,0-.3-.1-.4-.3-.3-.8-.6-1.2-.8-.9-.6-1.8-1.1-2.7-1.7-.6-.4-1.5-.7-2-1.2,0,0,0,0,0,0,.6-.4,1.2-.7,1.7-1.2.3-.4.6-.8,1-1.1.3-.3.6-.5,1-.7.6-.4,1-.8,1.4-1.4Z" fill="#d5bc2a"/>
  <path d="M3.5,63.2c.7.4,1.3.9,2,1.3,1.1.7,2.2,1.4,3.3,2.1l7,4.5c1.8,1.2,3.6,2.4,5.5,3.5,1,.6,2,1,3.2,1,1.4,0,2.8-.2,4.1-.4l7.2-.7,18.9-2,14.5-1.4c1.7-.2,3.5-.3,5.2-.5,1.1-.1,2.2-.2,3.2-.5,0,1.1.2,2.6-.4,3.6,0,0,0,0,0,0-.3.2-.7.3-1,.3-6,.7-12,1.2-18,1.8l-16.4,1.7-12.9,1.3c-1.3.1-4.7.7-5.9.5-.3,0-.7-.3-1-.5-.5-.3-1-.7-1.5-1l-7-4.7-5.5-3.6c-1.4-.9-2.9-1.9-4.3-2.9-.2-.2-.4-.3-.6-.6,0-1,0-2,.1-3Z" fill="#d5bc2a"/>
  <path d="M23,76c0,0,.2,0,.2,0,.1,0,.2.1.3.3.2.5,0,2-.1,2.6,0,0-.1,0-.2,0-.1,0-.2,0-.3-.2-.3-.4-.1-2.2,0-2.7Z" fill="#370200"/>
  <path d="M14.1,51.4c1.1-.1,2.3,0,3.3.4.6.3.9.6,1.2,1.2-.4,0-1.5-.4-1.9-.1,0,0,0,.1,0,.2,0,0,0,.2.1.2.4.3,1.5.5,2.1.7.5.2,1.1.4,1.6.7,1,.5,1.9,1.1,2.8,1.6,1,.6,4.2,2.9,5.4,2.9.5,0,.9-.2,1.4-.4,1.2-.4,2.5-.9,3.8-.9,1.7,0,3.8,1.1,5,2.3.7.7,1.9,2.4,1.9,3.4,0,.2,0,.3-.2.4-.2.1-.5.2-.7.1-.5,0-1.1-1.2-1.4-1.6-.5-.7-2.3-2.5-3.1-2.5-.2,0-.2,0-.3.1,0,.2,0,.4.2.5.3.3.7.5,1,.7.9.7,2.3,2.1,2.4,3.3,0,.3,0,.7-.2.9,0,.1-.2.1-.3.2-.1,0-.3,0-.4,0-.5-.3-.8-1-1.2-1.5-.6-.7-1.2-1.3-1.9-1.8-.3-.3-.8-.7-1.3-.7,0,0-.1,0-.1.1,0,0,0,.2,0,.3.1.3,2.8,2.2,3.4,3.4,0,.2.1.4,0,.6,0,.2-.3.3-.5.4-.2,0-.5,0-.7-.1-.3-.2-.6-.5-.9-.8-.6-.6-1.3-1.2-2.1-1.5-.2,0-.4-.2-.6,0-.1.1-.1.1-.1.3.3.5,1.1.8,1.5,1.2.5.3,1,.7,1.3,1.2,0,0,0,0,0,0-.1.1-.2.3-.4.4-1.1.6-2.9-.6-3.9-1,0,0,0,0,0,0-1.5.5-3.1-.8-4.5-1.1-.8-.2-1.7-.3-2.5-.5-3.6-.7-8.5-1.7-11.7-3.4-1.5-.7-2.1-1.4-2.7-3-.3-.8-.5-1.6-.6-2.5-.1-.5-.2-1.1-.4-1.6h0c0-.2.1-.3.2-.4.3-.3.7-.6,1-.8,1.6-1,3.2-1.5,5.1-1.7Z" fill="#feab86"/>
  <path d="M46.8,62c.1,0,.1,0,.2,0,0,.7-.5,1.3-.4,2.2,0,.3.1.6.4.8.5.3,1.1.2,1.6.1,0,0,0,.1.1.2.2.3.4.6.8.6.5.1,1,0,1.4-.3.3.3.5.5.9.6.6.2,1.1,0,1.6-.4.1,0,.3.2.4.2.8.3,1.5-.1,2.2-.4.7.3,1.4.8,2,1.2,1.2.8,2.4,1.6,3.6,2.3-1.1.3-2.3.3-3.4.4-2.1.2-4.3.5-6.4.7l-17.8,1.9h-.9c-.9-.7-1.8-1.3-2.8-2-2.3-1.5-4.7-3-6.9-4.7.7.2,1.5.1,2.2.4.9.3,1.6.8,2.5,1,.7.2,1.5,0,2.2.2,1.3.3,2.4,1.2,3.8.9.4,0,.7-.3.9-.6.3,0,.7,0,1,0,.5-.1.9-.4,1.1-.9.7.1,1,.2,1.7-.1.5.4,2.6,2.4,3.1,2.4.1,0,.2,0,.3-.2.5-.8-.9-5.1-1.1-6,1.9,0,3.7-.3,5.6-.5Z" fill="#eeeced"/>
  <path d="M40.2,69.5c.1,0,.2,0,.2.2,0,.2,0,.4,0,.6,0,.2-.2.2-.4.2-.2,0-.2-.1-.3-.3,0-.3.2-.5.4-.7Z" fill="#5d3218"/>
  <path d="M50.7,67.1c.1,0,0,0,.2,0,.1,0,0,0,.1.1,0,.1,0,.2-.1.4-.1.1-.3.1-.5.2-.1,0-.2,0-.3-.2,0-.1,0-.1,0-.3.2-.2.4-.2.6-.2Z" fill="#5d3218"/>
  <path d="M36.4,70.1c.1,0,.2.1.3.2.1.1.2.2.2.4,0,.2-.2.2-.3.3,0,0-.1,0-.2,0,0,0-.1,0-.2-.1,0-.3,0-.5.2-.8Z" fill="#5d3218"/>
  <path d="M44.6,67.6c.1,0,.2,0,.3,0,.1,0,.2,0,.3.2,0,.2-.2.3-.3.4-.1,0-.3,0-.4,0,0,0,0,0-.1-.2,0-.2.1-.3.2-.5Z" fill="#5d3218"/>
  <path d="M52.4,68.4s0,0,0,0c0,0,0,0,0,0,0,0,0,0,0,0,0,0,0,0,0,0s0,0,0,0c0,0,0,0,0,0,0,0,0,0,0,0,0,0,0,0,0,0s0,0,0,0,0,0,0,0c0,0,0,0,0,0,0,0,0,0,0,0,0,0,0,0,0,0,0,0,0,0,0,0,0,0,0,0,0,0,0,0,0,0,0,0,0,0,0,0,0,0,0,0,0,0,0,0,0,0,0,0,0,0,0,0,0,0,0,0,0,0,0,0,0,0,0,0,0,0,0,0,0,0,0,0,0,0s0,0,0,0c0,0,0,0,0,0,0,0,0,0,0,0,0,0,0,0,0,0s0,0,0,0c0,0,0,0,0,0,0,0,0,0,0,0,0,0,0,0,0,0,0,0,0,0,0,0,0,0,0,0,0,0,0,0,0,0,0,0,0,0,0,0,0,0,0,0,0,0,0,0s0,0,0,0c0,0,0,0,0,0s0,0,0,0c0,0,0,0,0,0s0,0,0,0c0,0,0,0,0,0s0,0,0,0c0,0,0,0,0,0,0,0,0,0,0,0,0,0,0,0,0,0,0,0,0,0,0,0,0,0,0,0,0,0s0,0,0,0c0,0,0,0,0,0,0,0,0,0,0,0,0,0,0,0,0,0,0,0,0,0,0,0,0,0,0,0,0,0,0,0,0,0,0,0,0,0,0,0,0,0Z" fill="#5d3218"/>
  <path d="M49.2,68.8c.1,0,.2,0,.4,0,.1.1.1.1.2.3,0,.2,0,.2-.2.4-.1,0-.3,0-.4,0-.1,0-.2-.2-.2-.3,0-.2,0-.2.2-.4Z" fill="#5d3218"/>
  <path d="M43.1,65.2c0,0,.2,0,.2,0,.1.1.2.2.2.3,0,.2,0,.2-.3.3-.1,0-.3,0-.4-.2,0,0,0-.1-.1-.2,0-.2.2-.2.3-.3Z" fill="#5d3218"/>
  <path d="M32.4,69c0,0,.2,0,.3,0,.1,0,.2.1.3.3,0,.2,0,.2-.2.3-.1,0-.3,0-.4,0-.1,0-.1,0-.2-.2,0-.2.1-.3.3-.4Z" fill="#5d3218"/>
  <path d="M37.7,68.4c.3,0,.4,0,.6.1,0,.2,0,.3,0,.5-.2,0-.4,0-.6-.2,0-.2,0-.2,0-.4Z" fill="#5d3218"/>
  <path d="M46.3,69.1c.2,0,.4.2.5.4,0,.2,0,.2-.1.3-.1,0-.3,0-.4,0-.1,0-.2-.1-.2-.3,0-.2.1-.2.3-.3Z" fill="#5d3218"/>
  <path d="M53.6,66.8c.1,0,.2,0,.3,0,0,0,.1,0,.2.2,0,.2,0,.4,0,.6-.2,0-.3,0-.5-.2,0-.2,0-.3,0-.5Z" fill="#5d3218"/>
  <path d="M47.9,67c0,0,0,0,.1.1,0,.1.1.3,0,.5,0,.2-.2.2-.3.3,0,0-.1,0-.2-.1,0-.1-.1-.2,0-.3,0-.2.2-.3.4-.4Z" fill="#5d3218"/>
  <path d="M45.6,64.8c0,0,0,0,.2,0,.1,0,.2.1.3.3,0,.2,0,.2-.2.4h-.1c-.2,0-.3-.1-.4-.3,0-.2.1-.3.3-.4Z" fill="#5d3218"/>
  <path d="M58.8,82.2c.3,0,.5,0,.8,0-.4,1.7-.6,3.4-.8,5-.2,1.3-.5,2.7-.7,4-.2,1.2-.2,2.4-.6,3.5-.2.2-.3.3-.5.4-1.7.9-4.6.9-6.4.7-1-.1-1.9-.4-2.8-.7-.7-.3-1.2-.6-1.8-1.1,0-1.2.2-2.4.3-3.5.1-1.2.3-2.4.4-3.7.2-1.2.4-2.4.4-3.6,3.9-.3,7.7-.7,11.6-1Z" fill="#964800"/>
  <path d="M58.4,51.1c.5,0,1,0,1.4,0,.5.1.9.4,1.1.9,1,1.6,1.7,4.1,1.2,6-.3,1.4-1.2,2.9-2.4,3.7,0,0,0,0,0,0-.3.2-.6,0-.9.1,0,0,0,.1,0,.1-.1.3-.2.6-.4.8-.5.8-1.5,1.4-2.3,1.9-.5.4-1.3.9-1.9.8,0,0-.1,0-.1-.2,0-.6,1.9-2.4,2.4-3.1,0-.1.1-.2,0-.4,0,0-.1,0-.2,0-1.1,0-2.5,2.7-3.3,3.4-.3.3-.6.3-1,.3-.2,0-.3,0-.4-.2-.2-1.1,2.3-3.4,2.7-4.3,0-.1,0-.2,0-.3-.1,0-.2,0-.3,0-.8.3-2.6,3.2-3.1,4.1,0,.1-.2.2-.3.3-.2.2-.5.3-.8.2-.2,0-.3-.2-.4-.3-.4-.8,1-2.7,1.4-3.3.3-.4,1.1-1.1,1.1-1.5,0,0,0,0,0-.1,0,0-.2,0-.2,0-1.5.5-2.5,2.9-3.1,4.1-.3.1-.7.4-1,.2-.1,0-.2-.1-.2-.2-.2-.4,0-1.2.2-1.6.8-2.2,3.2-4.4,4.9-6,.8-.8,1.6-1.5,2.6-2.1.8-.5,1.6-.5,2.4-.9,0-.1,0-.1,0-.3-.1-.1-.3-.2-.5-.2-1.3-.2-2.7,1-3.7,1.7-.2.1-.4.3-.7.2,0,0,0,0-.1-.1,0-.4.3-.8.5-1.2,1.3-1.5,3.4-2.5,5.4-2.7Z" fill="#feab86"/>
  <path d="M28.1,97.4c.2,0,.4.2.6.3,2.2.8,4.6,1.2,6.9,1,.5,0,1.1-.2,1.6-.3.4,0,.9,0,1.2-.1h.1c0-.1.1,0,.1,0l.3.6h0c0-.2,0-.3.1-.3h0c0,.2,0,.3,0,.5,0,.4.9.8.9,1.1,0,0,0,0,0,0h0s-.1,0-.1,0c.6.3,1.3.7,1.7,1.2,0,0,0,0,.1.1h0c0,0,0,0,0,.2.4.4.9.8,1.3,1.2.7.7,1.2,1.7,1.1,2.6-.3.4-.7.8-1.2,1-2,1.1-6,.9-8.1.2-.8-.3-1.7-.6-2.4-1.1-1.1-.7-2.1-1.6-3.1-2.5-.5-.4-1.1-.8-1.6-1.3-.2-.2-.4-.4-.5-.6-.4-.9.4-2.8.7-3.7Z" fill="#6f0000"/>
  <path d="M39,99.3h0c0,.1,0,.4,0,.4,0,0,0,.1.2.2-.4.2-3.1-.2-3.5.5h0c-.5.3-1.6,1.1-2,1h0c0-.5.5-.8.8-1.1,1.2-1,3.2-1,4.6-1Z" fill="#2d0502"/>
  <path d="M38.4,98.2h.1c0-.1.1,0,.1,0l.3.6h0c0-.2,0-.3.1-.3h0c0,.2,0,.3,0,.5,0,.4.9.8.9,1.1,0,0,0,0,0,0h0s-.1,0-.1,0c.6.3,1.3.7,1.7,1.2,0,0,0,0,.1.1h0c0,0,0,0,0,.2-.6-.4-1.3-.9-2-1.3-1.2-.6-2.9-.4-4.1,0h0c.4-.8,3.2-.4,3.5-.6,0,0-.1,0-.2-.2v-.2c0,0,0-.1,0-.1-.3-.3-.5-.6-.7-1Z" fill="#200000"/>
  <path d="M21.6,85c.8.3,1.6.5,2.4.5,0,.8,0,1.5-.1,2.3l-1.2,14.4c-.1,1.8-.3,3.6-.5,5.5,0,.7,0,1.5-.2,2.3,0,.3-.1.7-.4.9-.2.2-.5.2-.7.2-.2,0-.5-.1-.6-.3-.2-.2-.2-.4-.2-.6,0-1.3.1-2.6.2-3.9l.4-6.8.2-4.9c0-.9,0-2,.2-2.9,0,0,0,0,0,0,0-.6,0-1.1,0-1.7.1-1.6,0-3.3.3-4.9Z" fill="#c7c8ca"/>
  <path d="M71.9,81c.7-.2,1.4-.4,2.1-.4.2.9.2,1.8.2,2.7l.3,4.9c.3,3.9.6,7.8.8,11.8,0,1.5.2,3.1.3,4.6,0,.3,0,.8,0,1-.1.2-.5.3-.7.4-.2,0-.3,0-.5-.1-.2-.2-.3-.5-.3-.7-.2-1.2-.2-2.5-.3-3.7l-.5-5.7-.6-6.4c0-.9-.2-1.9-.2-2.8-.2-1.4-.3-2.8-.4-4.1,0-.4,0-.9-.1-1.3Z" fill="#c7c8ca"/>
  <path d="M5.4,73.5c.6.4,1.3.8,1.8,1.3-.1,1.7-.4,3.4-.6,5.1l-.9,8.6-.6,6.1c-.1,1.3-.2,2.6-.5,3.8,0,0-.1.1-.2.2-.2.1-.5.2-.7.2-.2,0-.3-.1-.4-.3-.1-.2-.1-.6-.1-.9,0-1.6.3-3.2.4-4.7l.7-7.3c.2-2.6.5-5.2.7-7.9.1-1.4.2-2.8.4-4.2Z" fill="#c7c8ca"/>
  <path d="M21.5,37.8c0-2.2.1-7.6,1.8-9.2.1-.1.3-.2.5-.2,0,0,0,0,0,0,.4.5,0,3.9.2,4.8.2,1,.8,1.7,1.1,2.6.5,1.2.8,2.2,2,2.8.4.7.9,1.4,1.4,2-.6,0-1.2,0-1.8.1-.6.1-1.1.3-1.7.5-.6.2-1.3.3-1.9.4-.2,0-.5.1-.8.1-.2,0-.4,0-.6,0-.3-.5-.2-3.2-.2-3.9Z" fill="#007787"/>
  <path d="M21.5,37.8c.5.7,0,3.3.3,3.9.1,0,.2,0,.3,0,0,0,0,0,.1.1-.2,0-.4,0-.6,0-.3-.5-.2-3.2-.2-3.9Z" fill="#2b4854"/>
  <path d="M23,19.1c.6,0,1.1,0,1.5.5.7.6.8,1.6.8,2.4,0,.5,0,1-.1,1.4-.1.6-.4,1.1-.5,1.6-.2.6-.2,1.3-.5,2,0,.2-.1.3-.2.4-.3.1-.5,0-.8,0-1.2-.8-2-1.9-2.3-3.3-.3-1.2-.4-2.8.3-3.9.4-.7,1.1-.9,1.8-1.1Z" fill="#feab86"/>
  <path d="M22.8,20.9c.2,0,.4,0,.6,0,.3,0,.6.3.8.6.4.6.5,1.6.3,2.3,0,.3-.2.4-.4.6-.8-.5-.2-1.6-.5-2.3-.2-.5-1-.3-1.3-.6h0c.1-.3.3-.4.5-.5Z" fill="#370200"/>
  <path d="M6.4,39.7c.2,0,.4,0,.6,0,0,.2,0,.4-.2.6-.7.2-2,.3-2.4.9-.4.5-.5,1.2-.6,1.8-.2,1.8-.1,3.6-.1,5.4,0,1.2,0,2.5,0,3.7,0,.8,0,1.5,0,2.3l-.5-.3c-.5-.4-.8-.9-.9-1.6-.1-1.4,0-3.3,0-4.8,0-1.8-.1-4,0-5.7,0-.4.2-1.1.4-1.4.8-.9,2.5-.9,3.6-.9Z" fill="#d5bc2a"/>
  <path d="M6.4,41.2h0c0,.1-.5,2.9-.6,3.4-.3,2.3-.5,4.6-.6,6.9,0,1,0,2-.2,3-.1,0-.3,0-.5,0,0,0-.1,0-.1-.2-.1-.6,0-2.6,0-3.3v-4.4c0-1.1,0-2.2.1-3.3,0-.5.2-1,.5-1.4.4-.5.9-.5,1.4-.6Z" fill="#d5bc2a"/>
  <path d="M48.3,59.5h.3s0,0,0,0c0,.3-.8,1.2-1,1.4-.1.1-.3.2-.4.3-.4,0-6,.7-6.2.6-.1,0-.2-.2-.3-.3-.3-.4-.5-.9-.8-1.3,2.8-.4,5.6-.4,8.4-.8Z" fill="#db6f00"/>
  <path d="M4.6,55.5c.1,0,.3,0,.5,0,.2,0,.3.9.3,1.1.2.7.8,1.1,1.4,1.4,0,1,0,2.1,0,3.1,0,.1,0,.1-.1.2-.7,0-1.4.1-2.2.1,0-2,.1-4,.1-6Z" fill="#166f83"/>
  <path d="M34,53.4h0c.5.7,2,3.6,2.3,4.4l-1.1-.4c-.3,0-.7-.1-1-.2-.6-.9-1.3-1.9-1.8-2.9.5-.3,1-.6,1.5-.9Z" fill="#db6f00"/>
  <path d="M31.7,49.7h.5c.3.5.6,1,.8,1.5-.6.2-1,.4-1.5.8,0,0-.1.1-.2.2h-.1c-.3-.4-.6-.9-.7-1.4,0-.2,0-.4,0-.5.2-.4.7-.4,1.1-.5Z" fill="#db6f00"/>
  <path d="M40.9,64.8h0c.3.6.5,2.1.6,2.7-.4-.2-.7-.5-1-.7-.4-.3-.8-.6-1.2-1,.3-.9.7-.4,1.5-1Z" fill="url(#linear-gradient1)"/>
  <path d="M7.7,58.7c.5.3.9,1.2,1.3,1.7.2.2.3.4.5.6h0c0,0-.2.2-.2.2-.6,0-1.2.2-1.7,0,0-.8,0-1.6.1-2.5Z" fill="#007787"/>
  <path d="M33.2,51.7c.2.1.4.7.5,1-.5.3-1,.6-1.4,1-.3-.3-.4-.7-.6-1.1.5-.4,1-.6,1.5-.9Z" fill="#db6f00"/>
  <path d="M29.5,105.9c.3-.2.4-.2.7-.2.6.3,1.2.9,1.7,1.3.6.5,1.7,1.1,2.4,1.3,0,0,0,0,0,0,0,0,0,.1,0,.2,0,0-.2,0-.3.1h0c1,.6,2.8.9,4,.9l.4.2s0,0-.1,0c-.1,0-.2,0-.3,0-.1,0-.2,0-.3,0-.1,0-.2,0-.3,0-.1,0-.2,0-.3,0-.1,0-.2,0-.3,0-.1,0-.2,0-.3,0-.1,0-.2,0-.3,0-.1,0-.2,0-.3,0-.1,0-.2,0-.3,0-.1,0-.2,0-.3,0,0,0-.2,0-.3,0,0,0-.2,0-.3,0,0,0-.2,0-.3-.1,0,0-.2,0-.3-.1,0,0-.2,0-.3-.1s-.2,0-.3-.1c0,0-.2,0-.3-.1,0,0-.2,0-.3-.1,0,0-.2,0-.3-.1,0,0-.2,0-.3-.2,0,0-.2-.1-.3-.2,0,0-.2-.1-.3-.2,0,0-.2-.1-.3-.2,0,0-.2-.1-.3-.2,0,0-.2-.1-.3-.2,0,0-.2-.1-.2-.2,0,0-.2-.1-.2-.2s-.2-.1-.2-.2c0,0-.2-.1-.2-.2,0,0-.2-.1-.2-.2,0,0-.1-.1-.2-.2,0,0-.1-.1-.2-.2Z" fill="url(#linear-gradient2)"/>
</svg>