<?xml version="1.0" encoding="UTF-8"?>
<svg id="Layer_1" xmlns="http://www.w3.org/2000/svg" width="80" height="115" version="1.1" viewBox="0 0 80 115">
  <!-- Generator: Adobe Illustrator 29.4.0, SVG Export Plug-In . SVG Version: 2.1.0 Build 152)  -->
  <defs>
    <style>
      .st0 {
        fill: #c82526;
      }

      .st1 {
        fill: #d60000;
      }

      .st2 {
        fill: #59b1a0;
      }

      .st3 {
        fill: #efac33;
      }

      .st4 {
        fill: #327b2c;
      }

      .st5 {
        fill: #257c5d;
      }

      .st6 {
        fill: #fff;
      }

      .st7 {
        fill: #d5bc2a;
      }

      .st8 {
        fill: #feedc3;
      }

      .st9 {
        fill: #462311;
      }

      .st10 {
        fill: #00bcd6;
      }

      .st11 {
        fill: #f9704a;
      }

      .st12 {
        fill: #a95427;
      }

      .st13 {
        fill: #ee471b;
      }
    </style>
  </defs>
  <path class="st9" d="M19.02,1.567h.042c1.679-.133,2.826.283,4.107,1.355.549-.274,1.131-.49,1.737-.574.067-.008.133-.017.2-.025.067,0,.133-.008.2-.008h.399c.067,0,.133.008.2.017.067,0,.133.017.2.025s.133.025.2.042l.2.05c.067.017.133.033.191.058.067.025.125.042.191.067s.125.05.183.075.125.058.183.083c.058.033.116.058.175.091s.116.067.175.108c.058.033.108.075.166.116s.108.083.158.125c1.18.923,1.571,2.161,1.746,3.591,3.683-1.072,7.274-1.139,10.998-.2,3.359.848,7.141,2.76,8.97,5.828,1.654.466,3.126,1.588,4.132,2.984.042.058.083.116.125.175.042.058.075.116.116.175.042.058.075.116.116.183s.075.125.108.183c.033.058.067.125.1.183s.067.125.1.191.067.125.091.191c.033.067.058.125.091.191.033.067.058.133.083.191.025.067.058.133.083.2s.05.133.075.2c.025.067.05.133.075.2.025.067.042.133.067.2s.042.133.058.2.042.133.058.208c.017.067.033.141.05.208.017.067.033.141.05.208.017.067.025.141.042.208s.025.141.033.208c.008.067.025.141.033.208.008.067.017.141.025.208,0,.067.017.141.017.208s.008.141.017.208,0,.141.008.216v.648c0,.075,0,.141-.008.216,0,.075-.008.141-.017.208,0,.067-.017.141-.025.208,0,.067-.017.141-.025.208s-.017.141-.033.208c-.324,1.97-1.355,3.749-2.984,4.913-.15,1.538-.648,3.026-.798,4.564-.15,1.513.116,3.001-.125,4.522-.482,3.059-2.07,6.027-4.614,7.864l.083.083c1.513,1.679,7.74,9.544,7.565,11.381-.042.424-.357.665-.665.906.582,1.347,1.197,2.802,1.147,4.298,1.322.49,2.594,1.205,3.849,1.854,2.436,1.264,4.863,2.569,7.266,3.891l3.674,2.003c.765.416,1.613.815,2.286,1.363.441.357.615.74.665,1.305.1.998.033,2.851-.632,3.641-.49.574-1.355.723-2.062.781-.166,1.53-.216,4.24-1.097,5.47-.175.249-.524.615-.84.665.357,4.547.457,9.136.723,13.692.133,2.336.258,4.672.374,7.008.058,1.197.2,2.444.158,3.641-.017.407-.067.781-.324,1.114-.324.407-.881.69-1.397.74-.582.067-1.18-.075-1.638-.457-.374-.316-.565-.707-.648-1.18-.116-.657-.067-1.363-.1-2.028l-.241-4.306-.574-11.456c-.1-1.937-.158-3.882-.324-5.819-.424.224-6.908,1.006-7.332.923.341,1.313,1.388,5.212,1.064,6.368-.224.79-.931,1.264-1.613,1.646-.74.416-3.708,1.804-4.472,1.596-.133.424-.274.848-.457,1.255-.407.906-1.064,1.879-1.172,2.885-.249,2.344,4.339,5.196,4.622,7.232.1.698-.224.831-.599,1.338-.125.166-.2.366-.333.524-.316.382-.89.657-1.372.682-.15.15-.316.324-.499.432-.399.233-1.929.781-2.378.798h-.15c-.05,0-.1-.008-.15-.017s-.1-.017-.15-.033c-.05-.017-.1-.033-.141-.05-.457-.191-.873-.532-1.313-.773-.407-.224-.873-.374-1.255-.632-.125-.083-.241-.175-.341-.274s-.208-.208-.291-.333c-.499-.673-.657-1.555-1.172-2.203-.457-.59-1.114-1.014-1.646-1.538-1.164-1.122-1.496-2.718-.765-4.182.316-.632.765-1.197.973-1.879.224-.756.141-1.629.125-2.411-.1.067-5.013.964-5.154.948-.316,1.347-.881,2.885-.973,4.256-.033.532.033,1.247.407,1.663.382,1.197,2.294,3.525,3.167,4.539.382.449.84.881,1.172,1.372.158.233.299.499.333.781.042.316-.075.69-.274.939-.249.316-.665.499-1.064.532-.316.017-.607-.058-.84-.274-.141.299-.291.607-.582.781-.025.017-.05.025-.075.042-.025.008-.05.025-.075.033-.025.008-.05.017-.083.025-.025,0-.05.017-.083.017-.025,0-.058,0-.083.008h-.166c-.025,0-.058,0-.083-.017-.274.025-.457-.116-.665-.266-.599.898-1.205.058-1.912.291-.15.05-.316.116-.474.125-.291.017-.59-.175-.873-.241-.258-.058-.54-.008-.806-.05-.64-.1-1.363-.765-1.821-1.205-.69-.665-1.106-1.588-1.663-2.353-1.338-1.854-2.278-2.818-1.322-5.237.291-.723.599-1.422.74-2.195.183-.998-.017-2.12-.042-3.134-.033.017-.091.042-.133.05-.416.083-1.995-.091-2.294-.308-.233,3.915-.49,7.831-.765,11.746l-.224,3.516c-.042.582-.042,1.197-.15,1.762-.091.466-.274.898-.632,1.222-.449.407-1.047.532-1.646.499-.557-.025-1.139-.274-1.505-.698-.274-.316-.349-.682-.374-1.097-.1-1.696.191-4.032.299-5.786l.74-11.705c-.158.025-.266,0-.424-.05-1.696-.466-4.755-1.812-5.645-3.425-.208-.374-.241-.798-.208-1.222.133-1.829,1.322-5.038,1.846-6.9-.258,0-3.658-2.527-4.14-2.885-.05,1.372-.274,2.76-.399,4.123l-.939,9.51-.49,4.83c-.1,1.014-.116,2.186-.432,3.159-.008.042-.025.075-.042.116s-.033.075-.05.108c-.017.033-.033.075-.058.108-.017.033-.042.067-.067.1-.025.033-.05.067-.075.1-.025.033-.05.067-.083.091-.025.033-.058.058-.083.083-.033.025-.058.05-.091.083-.449.357-1.072.474-1.638.399-.549-.067-1.072-.308-1.405-.756-.233-.308-.366-.707-.357-1.089,0-1.172.208-2.411.324-3.583.233-2.469.482-4.93.748-7.399l.806-8.604c.125-1.33.216-2.685.407-4.007-.108-.091-.216-.191-.316-.291-.308-.316-.49-.723-.582-1.156-.249-1.139-.108-3.891-.116-5.204-.507-.333-1.064-.657-1.521-1.056-.515-.457-.756-.998-.798-1.679-.058-.914-.208-2.851.416-3.525.615-.673,2.153-.565,3.009-.615l-.042-5.196c-.732-.166-1.455-.341-2.078-.79-.74-.532-1.031-1.289-1.172-2.161-.233-1.455-.158-2.993-.158-4.464,0-1.496-.083-3.159.2-4.63.083-.457.258-.923.54-1.305.366-.49.873-.773,1.455-.939,1.156-.333,2.519-.341,3.716-.449l6.177-.557c1.147-.1,2.328-.158,3.458-.333.715-.108,1.363-.466,2.045-.707.732-.266,1.463-.407,2.228-.515-.939-.981-1.629-1.92-2.236-3.134-.116.075-.241.141-.366.2-.973.474-2.136.449-3.142.1-1.446-.507-2.61-1.671-3.25-3.043-.025-.058-.05-.108-.075-.166s-.05-.108-.075-.166-.042-.108-.067-.166-.042-.116-.067-.166c-.017-.058-.042-.116-.058-.175s-.033-.116-.05-.175-.033-.116-.05-.175-.033-.116-.042-.175c-.017-.058-.025-.116-.042-.175s-.025-.116-.033-.175-.025-.116-.033-.175-.017-.116-.025-.183c-.008-.058-.017-.116-.025-.183,0-.058-.017-.116-.017-.183,0-.058-.008-.116-.017-.183s0-.125-.008-.183,0-.125,0-.183v-.549c0-.058,0-.125.017-.183,0-.058.008-.116.017-.183,0-.058.017-.116.025-.183,0-.058.017-.116.025-.183.008-.058.017-.116.033-.183.008-.058.025-.116.033-.175s.025-.116.042-.175.025-.116.042-.175.033-.116.05-.175.033-.116.05-.175.033-.116.058-.175c.017-.058.042-.116.058-.175-.673-2.145-.74-4.522-.457-6.742-.698-.208-1.422-.515-1.945-1.039-.715-.715-.79-1.555-.781-2.511-.1-.042-.191-.083-.291-.133-.964-.474-1.729-1.289-2.078-2.311-.366-1.106-.266-2.203.249-3.242-.05-.042-.1-.083-.15-.125s-.091-.083-.141-.133c-.042-.042-.091-.091-.133-.141-.042-.05-.083-.091-.125-.141-.042-.05-.083-.1-.125-.15s-.075-.1-.116-.158c-.033-.05-.075-.108-.108-.158-.033-.058-.067-.108-.1-.166s-.067-.108-.091-.166c-.033-.058-.058-.116-.083-.175-.025-.058-.05-.116-.075-.175-.025-.058-.05-.116-.067-.183-.025-.058-.042-.125-.058-.183s-.033-.125-.05-.183c-.017-.058-.033-.125-.042-.191-.017-.067-.025-.125-.033-.191-.175-1.189.108-2.444.831-3.408.798-1.072,1.829-1.521,3.117-1.704-.017-.948.191-1.879.698-2.693.748-1.197,1.87-1.762,3.209-2.078l.008.067ZM14.514,63.308c.382-.058.756-.1,1.147-.108,0-.274-.216-.623-.291-.898-.308-1.047-.308-2.087-.125-3.159-.183-.075-.357-.15-.54-.208-.075,1.455-.058,2.926-.183,4.373h-.008Z"/>
  <path class="st12" d="M47.775,17.179c.773.515,1.43,1.247,1.962,2.003,1.538,2.22,1.995,4.996,1.638,7.64-.183,1.313-.524,2.602-.756,3.907-.241,1.363,0,3.25-.141,4.763-.141.308-.141.831-.216,1.172-.017.083-.042.175-.067.258s-.05.175-.075.258-.05.166-.075.258c-.025.083-.058.166-.083.249s-.058.166-.091.249c-.033.083-.067.166-.091.249-.033.083-.067.166-.1.241-.033.083-.067.166-.108.241-.033.083-.075.158-.116.241s-.075.158-.116.241c-.042.075-.083.158-.125.233-.042.075-.083.158-.133.233-.042.075-.091.15-.133.224-.05.075-.091.15-.141.224-.05.075-.1.15-.15.224s-.1.15-.15.216c-.05.075-.1.141-.158.216-.05.075-.108.141-.158.208-.058.067-.108.141-.166.208s-.116.133-.175.2c-.058.067-.116.133-.175.2-.058.067-.116.133-.183.191-.058.067-.125.125-.183.191-.067.067-.125.125-.191.183s-.133.125-.191.183c-.067.058-.133.116-.2.175-.067.058-.133.116-.2.166-.067.058-.141.108-.208.166s-.141.108-.208.158c-.075.05-.141.108-.216.158-.075.05-.141.1-.216.15-.075.05-.15.1-.224.141-2.993,1.912-6.493,2.486-9.951,1.721-3.458-.765-7.025-2.951-8.962-5.969-.299-.466-.607-.998-.815-1.513-.116-.274-.15-.64-.308-.89-.058-.091-.067-.083-.175-.108-.249.158-.366.49-.557.715-.349.399-.831.599-1.355.623-1.097.067-2.261-.416-3.068-1.156-1.164-1.064-1.696-2.602-1.762-4.148-.042-.923-.025-2.053.648-2.768.416-.441,1.097-.698,1.704-.707,2.103-.033,2.81,2.328,4.065,3.508,1.197-.989,2.269-3.043,2.71-4.522.224,0,.449,0,.673-.05.665-.116,1.289-.532,1.671-1.081.657-.964.557-2.053.349-3.134,2.087-.374,4.065-.998,5.811-2.236.441-.308.798-.748,1.23-1.031.075.05.091.091.125.166-.116.341-.391.648-.557.973-.233.466-.615,1.264-.457,1.771.166.216.349.258.607.308,2.436.532,5.138-.1,7.216-1.446,1.97-1.272,3.034-2.984,3.516-5.262l-.042.017Z"/>
  <path class="st9" d="M35.014,24.893c.665-.1,1.48,0,2.095.266.357.15,1.014.466,1.147.856.042.125.033.266-.025.382-.058.116-.15.249-.283.274-.224.042-.723-.091-.964-.116-1.305-.15-2.328.025-3.541.49-.59.283-1.438,1.139-1.962,1.264-.133.033-.15.025-.266-.042-.017-.05-.025-.091-.033-.141-.075-.49.241-.931.507-1.313.806-1.122,1.97-1.704,3.317-1.92h.008Z"/>
  <path class="st9" d="M35.364,38.693c.748-.017,1.247.956,1.796,1.397.507.407,1.106.69,1.729.856.973.258,2.336.241,3.284-.133.507-.2,1.214-.873,1.762-.806.125.1.125.108.158.258-.025.216-.116.316-.258.466-.507.507-1.18.873-1.854,1.097-1.496.499-3.176.324-4.572-.382-.798-.399-1.821-1.114-2.103-2.012-.091-.283-.075-.49.058-.756v.017Z"/>
  <path class="st9" d="M47.218,24.394c.333,0,.682.033.998.133.79.249,1.53.79,1.904,1.546.15.308.233.698.108,1.023-.058.141-.091.141-.224.191-.191-.033-1.147-.74-1.521-.906-.607-.216-1.239-.333-1.887-.291-.49.033-1.28.416-1.729.233-.042-.067-.083-.125-.091-.208-.033-.316.158-.673.357-.898.515-.582,1.338-.773,2.078-.823h.008Z"/>
  <path class="st9" d="M31.698,31.818c.632.091,1.081,1.555,2.727,1.729,1.513.158,1.621-.466,2.652-1.255.166-.133.258-.175.466-.15.042.042.075.075.091.133.125.349.033.698-.091,1.031-.382.59-.84,1.023-1.505,1.289-.881.357-1.846.333-2.718-.05-.665-.291-1.347-.823-1.604-1.53-.141-.382-.183-.815-.017-1.189v-.008Z"/>
  <path class="st9" d="M48.565,31.195c.141.017.208.058.316.15.067.108.108.2.108.333,0,.599-.424,1.272-.84,1.688-.507.507-1.18.831-1.904.831-.732,0-1.33-.324-1.829-.831-.133-.166-.233-.349-.291-.557-.075-.283-.15-.599,0-.865.532-.091,1.047.981,2.02.973,1.097-.008,1.729-.998,2.411-1.704l.008-.017Z"/>
  <path class="st9" d="M42.513,35.035c.141,0,.266.025.399.067.033.008.058.017.091.033.033.008.058.025.083.033.025.017.058.025.083.042s.058.025.083.042.058.033.083.05.05.033.075.05c.025.017.05.033.075.058.025.017.05.042.075.058.025.017.05.042.067.067l.067.067c.025.025.042.05.067.067s.042.05.058.075.042.05.058.075.033.05.05.075c.017.025.033.05.05.083.017.025.033.058.042.083.233.482.308,1.047.116,1.555-.191.524-.615.923-1.114,1.156-.856.399-1.804.341-2.677.025-.266-.116-.499-.291-.64-.549-.083-.158-.116-.233-.075-.407.299-.208,1.28.183,1.654.224.499.05,1.147,0,1.538-.341,1.205-1.064-.366-1.796-.316-2.685h.008Z"/>
  <path class="st9" d="M20.441,31.12c.432-.05.79,0,1.18.191.831.424,1.388,1.388,1.654,2.253.108.357.283.748.1,1.106-.441.158-.831-1.355-1.313-1.505-.017.008-.033.025-.042.033-.158.15-.15.615-.166.823,0,.391.258,1.205.108,1.521-.042.083-.058.067-.141.1-.058-.025-.108-.042-.158-.083-.324-.299-.507-.973-.557-1.397-.083-.698.058-1.189.49-1.737-.341-.241-.673-.457-1.047-.64-.125.1-.258.224-.399.299-.15.083-.224.075-.382.033-.075-.133-.083-.183-.025-.333.116-.341.399-.499.698-.648v-.017Z"/>
  <path class="st2" d="M54.8,61.247c1.821.79,16.41,8.355,16.834,8.987.075.116.083.183.05.316-.1.075-.191.116-.316.15-.382.091-.781.083-1.172.133-.765.091-1.538.191-2.303.266-2.203.216-4.414.457-6.617.715l-23.776,2.826c-2.311.266-4.614.515-6.925.732-1.729.166-3.94.565-5.636.183-1.197-.266-4.406-2.669-5.57-3.442-1.629-1.097-3.259-2.195-4.93-3.234-.582-.382-5.919-3.807-6.002-3.949-.025-.033-.025-.083-.033-.125.1-.108.183-.15.324-.191.69-.183,1.555-.175,2.269-.241l5.046-.424c.125.158.249.316.391.457,2.078,2.153,5.387,2.993,8.28,3.051.865.549,1.671,1.264,2.477,1.887,1.496,1.147,2.976,2.303,4.448,3.475.756.599,1.513,1.28,2.336,1.787.823-.025,1.671-.183,2.486-.291l4.148-.532,12.935-1.613c.698-.091,3.442-.333,3.94-.574.191-.091.233-.2.299-.382-.191-.499-6.335-4.722-7.124-5.254,1.929-1.347,3.359-2.386,4.14-4.722v.008Z"/>
  <path class="st1" d="M55.041,83.41c.241-.025.574-.025.781-.166.091.407.532,1.563.416,1.904.1.349.54,1.821.432,2.103.15.258.216.648.233.948.116.524.141.898-.15,1.363-.499.79-1.646,1.297-2.477,1.629-.075,0-.108,0-.175-.042-.241.341-1.347.723-1.746.798-.091.017-.15,0-.224-.033-.233.249-.973.474-1.313.466-.083,0-.166-.042-.249-.075-.175.2-.482.241-.74.258-.175.017-.341.033-.482-.083-.017-.008-.025-.025-.033-.042-.266.258-.665.258-1.023.249-.125,0-.233-.025-.341-.091-.357.216-1.638.266-2.028.141-.042-.008-.091-.042-.125-.058-.067.042-.108.075-.183.091-.64.141-1.43.058-2.087.125-.532.05-1.563.274-2.053.208-.091-.017-.116-.042-.183-.1-.05.042-.116.116-.166.15-.116.058-3.417.798-3.708.815l-.15-.083c-.249.299-.665.291-1.039.324-.856.075-6.127.308-6.609-.083-.141.075-.299.091-.457.083-.216,0-.316-.075-.457-.216l-.158.116c-.341.058-.69.067-.981-.141.283-2.444.291-5.029.441-7.498.025.017.067.033.091.042.308.075,1.064-.042,1.33-.2.033.017.042.017.083.033.324.116,2.178-.15,2.477-.291.274.083.615-.017.873-.116.249.108.441.042.682-.033.216.033.357,0,.565-.067.515.05,3.234-.241,3.724-.449.707.133,1.488-.216,2.22-.15-.258.091-.532.058-.781.158l.05.091c.249.116.507.108.781.091.249-.017.574-.017.748-.216-.1-.075-.283-.058-.407-.067l-.042-.05c.582-.308,1.322-.166,1.929-.391.682.083,2.228-.175,2.935-.324.341.025.732-.033,1.056-.141.449.083,1.43-.067,1.879-.183.266.042.673-.042.931-.116.274.025.582-.033.856-.067.798-.083,1.588-.208,2.386-.291.89-.1,1.804-.158,2.685-.324h-.017Z"/>
  <path class="st4" d="M49.122,84.1c.274.025.582-.033.856-.067,0,.008.008.025.017.033.15.249.441.457.665.648.773.682,1.43,1.338,1.879,2.294.166.357.324.748.216,1.147-.025.108-.058.166-.141.241-.224.042-.557,0-.748-.133-.15-.1-.249-.274-.416-.341-.042.15-.025.258,0,.407-.266.125-1.33-.208-1.638-.324-.956-.366-1.047-1.38-1.513-2.17-.175-.299-.482-.507-.615-.831,0-.008-.008-.025-.017-.033-.116.183-.299.532-.49.632,0,.407.05.765.175,1.147.133.407.707,1.313.698,1.654-.183.116-.474.05-.673,0-.441-.1-1.031-.466-1.28-.865-.49-.798.133-2.278.2-3.151.449.083,1.43-.067,1.879-.183.266.042.673-.042.931-.116l.017.008Z"/>
  <path class="st0" d="M48.191,84.216c.266.042.673-.042.931-.116,0,.017,0,.025.008.042.233.74,1.397,1.131,1.663,1.887l-.033.067c-.2-.025-1.488-1.139-1.771-1.33-.249-.166-.607-.324-.798-.54v-.008Z"/>
  <path class="st7" d="M34.092,85.845c.515.05,3.234-.241,3.724-.449.116.283.249.54.133.848-.058.158-.183.241-.333.299-.549.224-2.253.781-2.752.582-.05-.116-.067-.141-.008-.258.108-.233.424-.457.457-.707-.091-.05-.166-.017-.258.017-.241.067-.391.283-.499.49-.258.515-.291,1.413-.74,1.787l-.15.017c-.116-.108-.133-.15-.141-.316-.042-.781.449-1.555.565-2.311h0Z"/>
  <path class="st4" d="M42.313,84.864c.682.083,2.228-.175,2.935-.324,0,.017,0,.025-.008.042-.133.49-.515.856-.59,1.388-.075.54.175,1.081.1,1.663-.441-.091-.981-1.164-1.313-1.513-.291-.299-.748-.582-.973-.923-.075-.108-.116-.216-.15-.341v.008Z"/>
  <path class="st7" d="M31.972,86.061c.333.324.607.964.623,1.43l-.033.058-.05-.05c-.249-.249-.765-.599-1.131-.582h-.067c.058.274.665.781.914.931.042.025.058.033.108.042-.632.158-1.771-.025-2.328-.357-.266-.158-.524-.399-.582-.707-.033-.166-.017-.349,0-.515.033.017.042.017.083.033.324.116,2.178-.15,2.477-.291l-.017.008Z"/>
  <path class="st4" d="M56.662,87.259c.15.258.216.648.233.948-.017.025-.025.042-.042.067-.283.449-1.097.931-1.604,1.047-.241.058-.632.083-.84-.067-.1-.075-.1-.1-.116-.216.191-.607,1.131-1.222,1.688-1.471.216-.1.466-.125.657-.283.008,0,.017-.017.025-.025Z"/>
  <path class="st4" d="M37.251,93.884c.166-.141.283-.341.441-.49.623-.59,1.513-.931,2.378-.89.457.025.881.166,1.197.515-.05.042-.116.116-.166.15-.116.058-3.417.798-3.708.815l-.15-.083.008-.017Z"/>
  <path class="st4" d="M49.296,92.446c.366-.773.756-1.638,1.546-2.07.166-.091.349-.175.54-.125.025.05.033.058.042.108.125.507-.582,1.538-.865,1.954-.175.2-.482.241-.74.258-.175.017-.341.033-.482-.083-.017-.008-.025-.025-.033-.042h-.008Z"/>
  <path class="st4" d="M52.115,91.914c0-.515.391-1.114.732-1.488.175-.2.474-.474.756-.457.125,0,.216.058.291.141.216.233.2.74.2,1.047-.241.341-1.347.723-1.746.798-.091.017-.15,0-.224-.033l-.008-.008Z"/>
  <path class="st4" d="M28.879,93.161c.299-.258.665-.623,1.089-.574.158.017.191.083.283.2.067.391-.116.698-.333,1.006-.083.108-.183.291-.316.341-.141.075-.299.091-.457.083-.216,0-.316-.075-.457-.216.075-.274.15-.557.2-.84h-.008Z"/>
  <path class="st4" d="M55.041,83.41c.241-.025.574-.025.781-.166.091.407.532,1.563.416,1.904-.532-.15-.898-1.305-1.189-1.746l-.008.008Z"/>
  <path class="st10" d="M45.772,92.695c.033-.075.091-.125.158-.158.407-.241,1.255-.382,1.713-.216.158.058.224.15.283.299-.357.216-1.638.266-2.028.141-.042-.008-.091-.042-.125-.058v-.008Z"/>
  <path class="st7" d="M32.845,85.945c.249.108.441.042.682-.033-.058.333-.108.673-.341.923l-.133.033c-.175-.158-.183-.341-.191-.565,0-.116-.017-.233-.008-.349l-.008-.008Z"/>
  <path class="st7" d="M34.582,88.855c.756.341,1.463,1.106,1.812,1.846.274.59.499,1.455.249,2.095-.075.183-.216.349-.399.424-.349.141-.856.033-1.189-.116-.058.091-.125.166-.208.241-.2.166-.466.216-.723.183-.291-.033-.632-.183-.815-.416h-.042c-.1-.033-.183-.133-.241-.224-.283-.449-.191-1.139-.091-1.638.091-.457.424-1.704.806-1.97l.116.042c.249.324.349.873.499,1.255.075.208.141.374.357.466.341-.474-.258-1.588-.141-2.145,0-.008,0-.025.008-.033v-.008Z"/>
  <path class="st7" d="M30.791,88.414c.008,0,.025.017.033.017.283.125,1.496.133,1.796.042-.216.341-.648.615-.923.931-.224.258-.357.557-.574.806.258-.017,1.779-.989,1.995-1.214-.15.482-.607,1.879-.881,2.253-.017.067-.042.133-.067.2-.141.366-.382.698-.765.848-.665.258-1.38-.141-1.97-.407-.067-.15.108-.399-.008-.59-.133-.208-.416-.299-.532-.532-.15-.308-.183-.74-.058-1.064.341-.89,1.205-.939,1.92-1.289.008,0,.025-.008.033-.017v.017Z"/>
  <path class="st7" d="M36.478,87.225c.391.166.906.067,1.338.191.449.133.856.466,1.081.881.216.416.274.964.133,1.405-.125.391-.407.698-.773.881-.291.15-.632.208-.948.1-.382-.141-.582-.474-.748-.823-.316-.141-.69-.831-.964-1.106-.133-.133-.341-.233-.507-.324.374-.158,1.156.258,1.621-.108v-.141c-.1-.075-.1-.067-.216-.058,0,.075.017.042-.033.108-.357-.1-1.255-.224-1.513-.449-.025-.017-.042-.042-.067-.058.466-.125,1.189-.308,1.596-.515v.017Z"/>
  <path class="st10" d="M41.324,89.345c.208.033.441.033.632.1.532.175.989.648,1.222,1.147.158.341.374,1.064.241,1.422-.374.05-.84-.466-1.172-.648l.05.042-.15.025.042.091.025-.158-.05.125c.075.141.141.283.291.357.15.258.316.549.615.657-.316.116-.64.133-.973.1-.499-.05-.973-.341-1.28-.723-.316-.382-.499-.881-.441-1.38.083-.707.441-.74.923-1.122.008-.008.025-.017.033-.025l-.008-.008Z"/>
  <path class="st10" d="M46.004,88.93c.266.133.441.075.657.341.017.017.033.042.05.067.017.025.033.042.042.067.017.025.025.042.042.067s.025.042.042.067c.008.025.025.05.033.067.008.025.025.05.033.075.008.025.017.05.025.075,0,.025.017.05.025.075,0,.025.017.05.017.075s.008.05.017.075c0,.025,0,.05.008.075v.299c0,.025,0,.05-.008.075-.083.607-.49,1.097-.973,1.455-.258.191-.732.549-1.072.49.216-.407.308-.84.333-1.297l-.083-.058c-.299.158-.549.615-.773.881-.1.116-.191.249-.349.266-.042-.05-.083-.1-.108-.158-.166-.382.042-1.313.208-1.688.357-.848,1.056-1.089,1.837-1.405v.017Z"/>
  <path class="st4" d="M39.395,85.854c.399.191.981.183,1.43.316.623.191,1.338.756,1.613,1.363.075.158.075.224.017.382-.042.025-.058.042-.1.058-.191.075-.399-.008-.565-.091-.025,0-.05.017-.067.017-.466.108-2.311-.64-2.71-.923-.191-.133-.366-.274-.407-.515.208-.249.54-.399.798-.607h-.008Z"/>
  <path class="st4" d="M54.758,86.111c.382.183.939-.017,1.363.191.15.075.2.116.249.274-.067.125-.091.175-.216.249-.191.116-.499.191-.715.133-.166.15-.391.15-.599.141-.283,0-.823-.133-1.006-.357-.058-.075-.033-.091-.025-.183.233-.224.607-.283.898-.432l.05-.025v.008Z"/>
  <path class="st4" d="M53.819,84.083c.291.166.59.183.881.324.091.042.083.058.116.158-.075.125-.15.191-.274.266-.216.141-.474.274-.732.216-.091.067-.166.133-.283.15-.233.025-.524-.067-.698-.224-.033-.108-.05-.133,0-.233.158-.382.64-.507.998-.657h-.008Z"/>
  <path class="st2" d="M8.188,65.545c.407.216.798.515,1.18.765l2.378,1.563,8.039,5.312c1.239.823,2.444,1.762,3.724,2.519.973.574,2.078.698,3.192.673,1.131-.025,2.269-.183,3.4-.291,1.829-.175,3.658-.357,5.487-.557,7.083-.798,14.157-1.638,21.223-2.536,2.91-.341,5.828-.715,8.745-1.006,1.804-.183,4.581-.308,6.26-.74.008.856,0,1.837-.416,2.602-.042.05-.05.067-.091.108-.349.366-.923.424-1.397.507-2.261.366-4.589.532-6.858.806l-17.715,2.037c-4.215.515-8.43.981-12.653,1.413-2.053.216-4.157.59-6.218.59-.981,0-1.912-.175-2.802-.607-.981-.474-1.937-1.197-2.843-1.796l-6.085-4.057-3.641-2.411c-.865-.574-1.929-1.147-2.635-1.904-.432-.466-.291-2.344-.258-2.993h-.017Z"/>
  <path class="st11" d="M10.557,71.023c2.71,1.746,5.387,3.566,8.064,5.362,1.754,1.18,3.525,2.602,5.487,3.4-.091,1.097-.191,3.899-.042,4.913.091.125.108.116.249.158.067-.025.15-.042.191-.1.091-.1.133-.2.15-.333.116-.806.075-3.425.008-4.306-.108-.141-.2-.133-.366-.166v-.025l-.042-.025c.324-.083.998.166,1.363.2.723.067,1.455.042,2.178-.025,5.786-.499,11.539-1.397,17.316-1.904-.482.316-1.305.732-1.43,1.355-.042.224.017.416.15.59.083.108.183.249.308.316.224.208.698.399,1.006.399,0,.008-.017.017-.025.033-.366.457-.881.549-.798,1.28.033.291.2.532.432.707.258.183.557.233.865.175.366-.075.931-.424,1.156-.723.025.366,0,.84.208,1.156-.083.075-.141.108-.249.125-1.23.224-2.552.299-3.807.449-2.851.366-5.711.69-8.579.973l-4.98.54c-1.081.116-2.211.283-3.309.283-.524,0-1.18-.042-1.654-.274-1.239-.607-2.419-1.496-3.541-2.294l-5.246-3.766c-1.264-.898-3.699-2.353-4.689-3.375-.648-.665-.407-4.123-.399-5.096h.025Z"/>
  <path class="st13" d="M39.595,79.311c2.319-.274,3.134,1.546,3.965,1.604-.017.017-.025.042-.042.067-.191.291-.64.565-.906.823-.474.466-.865,1.056-1.372,1.48-.2.166-.424.333-.682.391-.025-.05-.033-.067-.042-.125-.033-.457.2-.607.49-.881.108-.108.183-.183.183-.333-.657-.15-1.422.707-2.095.549-.2.141-.432.183-.673.191-.64.017-1.596-.208-2.053-.69-.125-.125-.216-.299-.2-.482.025-.258.224-.532.424-.682.914-.698,2.436-.058,3.433.067.424.05.84.033,1.18-.249.008-.008.025-.017.033-.033-.1-.017-.183-.05-.274-.1-.74-.374-2.003-.416-2.536-.79.067-.05.116-.091.166-.158.283-.349.557-.499.981-.657l.017.008Z"/>
  <path class="st1" d="M28.555,46.749l.274.249c.765.665,1.521,1.33,2.411,1.829,1.172.599,2.386.998,3.691,1.156,2.319.283,5.005-.166,6.875-1.629.382-.357.707-.773,1.039-1.18.673.008,2.203.083,2.66.615.042.05.058.1.083.158-.025.091-.033.125-.116.175-.224.141-.64.216-.906.191h-.067c.191,1.463.623,2.993.773,4.373.116.964.515,2.344.374,3.275.091.698.1,1.397.15,2.095.033.466.125.956.083,1.43-.017.233-.075.482-.233.673-.333.399-1.222.474-1.721.499l-.557.017c-.399.067-.79.125-1.189.166-1.239.208-2.602.175-3.791.565-.532-1.405-4.847-9.593-5.778-10.258-.2-.141-.474-.141-.707-.083-.715.158-1.28.723-1.638,1.33-.017.299-.033.574.05.865.391,1.43,2.203,4.472,3.092,5.769-1.405.008-2.386.599-3.55,1.297-.357.216-.732.449-1.139.557-.798.216-1.488-.258-2.153-.632.1-.715.158-1.48.357-2.17.357-1.796.881-3.566,1.264-5.362-.091-.549-.025-1.214-.025-1.779-.008-1.305-.2-2.427-.582-3.674.316-.175.64-.341.964-.507l.008-.008Z"/>
  <path class="st4" d="M40.293,50.814c.241.033.474.091.707.15,1.771,1.812,1.596,4.489,2.278,5.179.532-.033.141-2.161.574-2.552.05.025.091.042.133.083.166.175.274.499.366.723.599,1.488.407,2.718.233,4.248.59-1.097.291-2.569.673-3.217h.116c.166.15.216.324.291.524.091.698.1,1.397.15,2.095.033.466.125.956.083,1.43-.017.233-.075.482-.233.673-.333.399-1.222.474-1.721.499l-.557.017c-.399.067-.79.125-1.189.166-.324-.224-.657-.432-.989-.64-.507,0-1.114.15-1.613.058-.64-.116-1.156-.507-1.496-1.039-.183-.291-.316-.748-.241-1.089.283-.175,1.056.2,1.397.249.391.058.84.067,1.23,0,.191-.033.333-.075.449-.241-.033-1.23-2.893-.59-3.791-1.754-.158-.2-.341-.632-.283-.89.017-.075.042-.1.108-.141.407-.266,1.43.033,1.887.125-.349-.549-.873-.964-1.28-1.471-.615-.765-.79-1.696-1.147-2.594.091,0,.183.017.283.025,1.313.108,2.361.141,3.134,1.338.291.449.565.914.914,1.322-.091-1.089-.324-2.186-.457-3.275h-.008Z"/>
  <path class="st0" d="M38.373,53.025c1.538.773,4.049,4.29,4.863,5.836.299.574.507,1.18.707,1.787l-.557.017c-.848-2.461-3.359-5.595-5.021-7.648l.008.008Z"/>
  <path class="st13" d="M42.845,47.173c.673.008,2.203.083,2.66.615.042.05.058.1.083.158-.025.091-.033.125-.116.175-.224.141-.64.216-.906.191h-.067c.191,1.463.623,2.993.773,4.373l-.091.083c-.382-.042-.74-.249-1.064-.432-.091-.183-.183-.357-.274-.54.175-.54.333-1.006.682-1.463-.249.175-.499.349-.773.482s-.657.274-.956.15c-.557-.224-.2-.707-.366-1.072-.125-.033-.283-.067-.382-.166-.299-.299-.241-.973-.249-1.372.382-.357.707-.773,1.039-1.18h.008Z"/>
  <path class="st4" d="M29.137,51.196c.416.823.515,1.538.216,2.436-.266.798-.823,1.463-1.247,2.178-.349.59-.582,1.214-.79,1.862.732-.931.748-1.663,1.904-2.286.266-.141.582-.299.89-.341.125-.017.216,0,.333.05.108.125.158.183.15.357-.025.615-.69,1.322-1.131,1.688-.781.648-1.53.865-2.527.931.357-1.796.881-3.566,1.264-5.362.324-.499.632-.998.931-1.505l.008-.008Z"/>
  <path class="st4" d="M28.829,46.998c.765.665,1.521,1.33,2.411,1.829-.416.64-.623,1.38-1.089,2.003-.033-.033-.067-.058-.1-.091-.981-.948-1.197-2.452-1.222-3.741h0Z"/>
  <path class="st4" d="M30.949,57.996c.175-.008.258-.033.424.05l.025.133c-.108.216-.291.382-.474.54-1.156.973-1.821,1.604-3.383,1.455-.283-.05-.549-.133-.823-.208,1.131-1.23,2.644-1.713,4.24-1.97h-.008Z"/>
  <path class="st12" d="M16.883,57.173c.258-.017.515-.017.765-.017.258,0,.515.017.765.033.258.017.507.05.765.083.249.033.507.083.756.133.632.141,3.151.865,3.458,1.347-.274-.033-.54-.2-.798-.283-.69-.216-2.826-.324-3.433.075-.125.083-.158.15-.191.291.033.042.067.083.108.116.116.091,1.729.058,2.053.108,2.319.407,3.749,1.289,5.769,2.419,2.178,1.222,3.558-.898,5.512-1.422,1.255-.341,2.652.033,3.749.69.948.565,2.702,2.511,2.91,3.6.042.208,0,.291-.116.449-.274.158-.823.175-1.106.017-.524-.291-1.114-1.222-1.555-1.679-.391-.407-.84-.781-1.297-1.114-.191-.141-.466-.357-.707-.382-.133-.017-.15.017-.249.1,0,.116,0,.183.075.274.266.291.607.54.898.806.54.499.981,1.047,1.388,1.654.083.141.15.299.208.449.141.374.274,1.031.083,1.397-.091.175-.283.299-.474.357-.183.058-.357.017-.499-.108-.258-.224-.74-1.53-1.147-2.012-.507-.607-1.122-.998-1.821-1.338-.166,0-.175,0-.316.108,0,.141-.008.158.083.266.175.2.424.374.632.54.59.499,1.139,1.031,1.538,1.704.216.366.432.831.299,1.255-.075.249-.299.532-.54.648-.166.083-.357.042-.49-.083-.59-.565-.515-1.638-1.846-2.12-.224-.083-.615-.183-.84-.083.033.357,1.064,1.023,1.33,1.347.258.316.507.748.449,1.172-.025.2-.133.308-.283.424-.798.175-1.106-.623-1.779-.84-.391-.125-.765-.116-1.164-.1-1.214.05-1.879-.349-2.876-.973-.698-.025-1.397.058-2.095.058-1.688,0-3.541-.349-5.096-1.014-1.372-.59-2.818-1.488-3.383-2.943-.715-1.846-.233-3.649.515-5.379l-.008-.033Z"/>
  <path class="st11" d="M48.473,77.807l13.75-1.604,4.356-.524c.84-.108,1.679-.266,2.519-.333-.116,1.189-.216,3.309-.665,4.348-.175.391-.416.707-.748.981-.324.266-.69.449-1.097.54-1.38.299-2.851.399-4.248.582-2.901.366-5.803.707-8.712,1.023-.698.083-3.94.54-4.439.457-.05,0-.091-.025-.141-.042-.258.208-1.471.324-1.837.291-.075,0-.141-.033-.216-.067-.208-.316-.183-.79-.208-1.156-.224.299-.781.648-1.156.723-.308.067-.607.017-.865-.175-.241-.166-.399-.407-.432-.707-.083-.732.432-.831.798-1.28,0-.008.017-.017.025-.033-.308,0-.781-.191-1.006-.399-.125-.067-.224-.208-.308-.316-.133-.175-.2-.366-.15-.59.125-.623.948-1.039,1.43-1.355,1.106-.166,2.236-.299,3.35-.374v.008Z"/>
  <path class="st13" d="M45.123,78.181c1.106-.166,2.236-.299,3.35-.374.249.2.557.416.59.756.042.441-.466.923-.723,1.247.648-.299,1.214-.299,1.92-.308l.05-.05c.482-.466.898-1.505,1.588-1.646.116.05.141.058.183.175.116.316.017.773-.125,1.064-.067.133-.141.266-.216.407-.391.308-.906.574-1.405.64.141.266.482.648.748.781-.083.224-.249.798-.474.906-.291.283-.707.366-1.106.366-.341,0-.632-.091-.931-.241-.058.249.258.715.249,1.047v.258c.1.067.116.033.233.017-.258.208-1.471.324-1.837.291-.075,0-.141-.033-.216-.067-.208-.316-.183-.79-.208-1.156-.224.299-.781.648-1.156.723-.308.067-.607.017-.865-.175-.241-.166-.399-.407-.432-.707-.083-.732.432-.831.798-1.28,0-.008.017-.017.025-.033-.308,0-.781-.191-1.006-.399-.125-.067-.224-.208-.308-.316-.133-.175-.2-.366-.15-.59.125-.623.948-1.039,1.43-1.355l-.008.017Z"/>
  <path class="st11" d="M46.902,80.309c.1.008.191.025.291.05.158.042.266.183.341.316.1.175.108.291.058.482-.1.116-.158.166-.308.208-.05.067-.1.116-.158.175-.083,0-.125.033-.2-.017-.183-.133-.233-.457-.258-.665-.025-.249.083-.357.233-.54v-.008Z"/>
  <path class="st13" d="M54.55,78.064c1.014-.075,1.737.1,2.693.432-.166.416-.366.707-.69,1.014-.856.831-1.87,1.064-3.026,1.031-.457.008-.981.083-1.405.266-.208.091-.374.266-.599.291l-.083-.108c0-.266.166-.549.299-.765.657-1.056,1.571-1.887,2.802-2.161h.008Z"/>
  <path class="st1" d="M20.209,46.674c0-.017.008-.025.017-.042.125-.241.374-.49.549-.707,1.313-1.563,3.051-2.511,4.93-3.242.499.648.931,1.355,1.372,2.045-.175.216-.399.441-.499.698-.224-.366-.856-1.114-1.297-1.222.025.499.973,1.338,1.131,1.979.283.615.59,1.272.74,1.937.067.283.125.565.166.856.1.615.166,1.214.166,1.837.075,1.654-.341,3.483-.881,5.038-.116.54-.274,1.064-.424,1.588-.025.333-.125.648-.216.973-.042.441-.166.84-.283,1.264l-.449-.416c-.632-.308-1.18-.914-1.754-1.33-.856-.623-1.796-.898-2.768-1.264-.391-.1-.781-.158-1.172-.224-.424-.058-.848-.108-1.272-.158-.366,0-.723,0-1.089-.025-.848.116-1.704.249-2.519.532.249-.524.457-1.072.682-1.604l.299-.54c.158-.773,1.987-4.065,2.494-4.971.599-1.047,1.363-2.02,2.07-3.001h.008Z"/>
  <path class="st11" d="M22.935,49.617c.258-.308.524-.59.873-.798,1.147-.682,2.344-.15,3.508.158.1.615.166,1.214.166,1.837-.258.208-.574.391-.865.54-.407.2-.831.249-1.264.091-.391-.141-1.837-.906-1.995-1.247.233-.324,1.38-.125,1.787-.291.05-.025.05-.058.075-.108-.033-.033-.042-.05-.075-.075-.499-.382-1.596-.183-2.195-.108h-.017Z"/>
  <path class="st11" d="M20.209,46.674l.175.108c.216.981.457,1.895,1.031,2.743l-.067-.033c-.308-.133-1.047-.698-1.347-.665.083.391.54.856.798,1.18-.79-.067-1.92-.05-2.652-.341.599-1.047,1.363-2.02,2.07-3.001l-.008.008Z"/>
  <path class="st4" d="M15.636,54.646c.54-.133,1.164-.058,1.638.224.49.291.831.79.973,1.338,0,.025.008.042.017.067-.366,0-.723,0-1.089-.025-.848.116-1.704.249-2.519.532.249-.524.457-1.072.682-1.604l.299-.54v.008Z"/>
  <path class="st0" d="M15.337,55.186c.698.15,1.322.59,1.837,1.072-.848.116-1.704.249-2.519.532.249-.524.457-1.072.682-1.604h0Z"/>
  <path class="st4" d="M25.23,59.26c-.407-.524-.715-1.097-1.081-1.654-.266-.399-.574-.773-.848-1.172l.017-.075c.266-.042.59.05.823.175.848.432,1.521.948,1.821,1.879-.042.441-.166.84-.283,1.264l-.449-.416h0Z"/>
  <path class="st4" d="M19.535,56.442c.466-.865.956-1.563,1.821-2.053-.058.407-.125.79-.266,1.18-.125.349-.333.74-.382,1.097-.391-.1-.781-.158-1.172-.224h0Z"/>
  <path class="st5" d="M25.529,54.895c.441.258.756.557,1.064.956-.116.54-.274,1.064-.424,1.588-.291-.823-.441-1.696-.64-2.544h0Z"/>
  <path class="st4" d="M26.41,46.192c.283.615.59,1.272.74,1.937-.183,0-.407.033-.59,0-.141-.025-.266-.15-.333-.274-.241-.441.05-1.214.191-1.654l-.008-.008Z"/>
  <path class="st11" d="M19.693,50.448c.416-.033,1.097-.1,1.471.091v.075l-.058.025c-.732.349-.989,1.023-1.247,1.746.59-.54,1.18-1.122,1.862-1.546-.208.756-.333,1.53-.582,2.278-.033.091-.075.166-.125.249-.274.449-.698.748-1.214.865-.524.125-1.214.05-1.679-.241-.274-.175-.399-.374-.457-.69-.116-.632-.108-1.347.274-1.887.407-.582,1.089-.848,1.762-.964h-.008Z"/>
  <path class="st11" d="M23.168,50.706c.333.067.707.241.981.441.549.399.89,1.023.981,1.688.091.615.058,1.438-.341,1.954-.2.249-.49.391-.806.416-.532.033-1.023-.233-1.413-.565-.141-.158-.249-.316-.349-.499-.59-1.122-.366-2.319,0-3.467.249.507.357,1.222.765,1.629.108.108.166.141.308.133.191-.241-.108-1.355-.125-1.729h0Z"/>
  <path class="st11" d="M23.06,44.762c.341.017.69.125.964.341.333.258.54.64.582,1.064.141,1.289-.881,1.804-1.613,2.627-.116.125-.183.291-.291.424-.075.091-.067.083-.183.091-.033-.033-.05-.05-.075-.091-.241-.366.067-1.38.15-1.787l-.075-.133h-.091c-.482.532-.648,1.837-.756,2.519-.316-.964-.64-1.87-.341-2.885.283-.981.84-1.688,1.729-2.17h0Z"/>
  <path class="st6" d="M41.017,64.057c.116-.025.175-.025.283,0,.025.274-.125.615-.208.881-.125.399-.216.923.017,1.305.15.249.432.266.698.341.599.158.515.333.815.79.407.648,1.047.258,1.563.532.291.166.482.549.831.607.515.083,1.18-.416,1.563-.698.042.067.075.125.125.183.2.241.549.399.856.407.948.025,1.812-1.338,2.427-1.945,1.496.939,2.943,1.987,4.381,3.009.79.557,1.571,1.172,2.419,1.629-.698.15-1.438.2-2.145.291l-4.04.515-12.129,1.521c-1.388.166-2.777.341-4.165.54-1.131-.79-2.195-1.746-3.275-2.602-1.638-1.297-3.309-2.544-4.963-3.824l.898-.083c1.197.923,2.294.89,3.724.939.557.416,1.18.923,1.912.906.582-.017.939-.349,1.313-.748.249-.017.515-.033.765-.091.549-.133.798-.449,1.081-.914.274-.008.549-.025.815-.125.449-.175.648-.49.831-.914.366.524.773,1.039,1.239,1.48.308.291,1.471,1.205,1.829,1.38.116.058.233.067.357.058.133-.075.216-.108.274-.258.116-.299.042-.715.008-1.023-.166-1.463-.582-2.652-1.197-3.982l1.097-.108h0Z"/>
  <path class="st9" d="M51.084,69.768c.241-.008.515-.017.715.125.116.083.133.158.15.291-.058.191-.15.283-.291.416-.183.017-.366.042-.54-.042-.183-.083-.216-.183-.274-.357.025-.208.1-.299.241-.441v.008Z"/>
  <path class="st9" d="M36.054,70.441c.208.008.416.017.582.158.15.125.166.191.191.374-.075.191-.158.258-.324.366-.208-.008-.424-.017-.599-.158-.141-.116-.15-.183-.175-.349.075-.191.166-.274.333-.399l-.008.008Z"/>
  <path class="st9" d="M40.002,71.455c.166-.008.374-.042.532.033.191.083.233.175.291.357-.025.208-.1.299-.233.449-.2.008-.416.025-.607-.075-.166-.091-.191-.158-.241-.324.033-.208.116-.299.258-.441Z"/>
  <path class="st9" d="M43.361,71.073c.216,0,.432-.008.607.133.141.116.15.191.166.366-.05.183-.15.258-.299.382-.208,0-.441.008-.615-.125-.133-.1-.141-.175-.166-.333.05-.2.158-.291.299-.416l.008-.008Z"/>
  <path class="st9" d="M48.557,70.266c.2-.017.416-.042.599.067.158.091.183.158.233.324-.033.208-.108.308-.258.457-.2,0-.432.017-.607-.1-.158-.1-.166-.175-.208-.341.042-.191.108-.274.241-.407h0Z"/>
  <path class="st9" d="M37.35,71.763c.183,0,.407-.017.574.075.166.091.191.158.249.316-.025.2-.083.308-.208.466-.208.008-.432.025-.615-.083-.158-.091-.175-.166-.224-.333.033-.191.1-.299.224-.449v.008Z"/>
  <path class="st9" d="M46.046,70.757c.2,0,.416,0,.574.141.108.1.166.2.158.349-.017.166-.15.291-.266.399-.216,0-.449,0-.632-.158-.133-.116-.133-.183-.15-.349.067-.183.158-.266.316-.391v.008Z"/>
  <path class="st9" d="M38.614,70.009c.208,0,.449-.008.623.125.141.108.141.175.166.333-.05.191-.166.283-.308.416-.2,0-.407,0-.574-.125-.141-.1-.15-.175-.183-.333.05-.191.133-.283.274-.416h0Z"/>
  <path class="st9" d="M37.001,68.629c.175,0,.349,0,.515.083.175.091.216.183.266.357-.033.191-.116.274-.249.407-.208,0-.449.017-.632-.091-.15-.1-.158-.15-.191-.316.05-.191.158-.299.299-.432l-.008-.008Z"/>
  <path class="st9" d="M44.225,69.194c.208,0,.432-.017.607.125.141.116.15.175.166.349-.058.183-.125.258-.266.382-.2,0-.432.008-.607-.108-.141-.091-.15-.166-.175-.316.05-.191.141-.291.274-.432Z"/>
  <path class="st9" d="M41.615,69.635c.183-.017.399-.042.574.025.175.067.208.141.283.291,0,.191-.058.291-.158.449-.191.033-.399.067-.582,0-.175-.067-.216-.133-.291-.291,0-.208.058-.308.175-.474Z"/>
  <path class="st9" d="M49.388,68.388c.175,0,.341,0,.507.067.191.083.233.175.299.357-.025.208-.116.291-.266.432-.183.008-.399.042-.557-.075-.108-.075-.166-.15-.183-.283-.033-.2.091-.357.208-.499h-.008Z"/>
  <path class="st9" d="M42.571,68.005c.183,0,.374.025.532.133.141.1.158.175.183.333-.058.191-.15.258-.308.382-.191.017-.391.042-.557-.083-.141-.108-.141-.191-.166-.349.05-.208.15-.291.316-.424v.008Z"/>
  <path class="st9" d="M34.374,69.069c.183.033.382.058.524.2.125.125.125.2.125.366-.091.183-.183.233-.357.324-.175-.025-.382-.042-.515-.175-.125-.116-.125-.191-.125-.349.083-.183.183-.258.349-.366h0Z"/>
  <path class="st9" d="M46.894,69.069c.191-.008.441-.042.607.067.141.091.175.141.216.299-.033.191-.083.283-.216.424-.191,0-.399,0-.582-.091-.15-.075-.183-.133-.241-.283.017-.191.091-.274.208-.424l.008.008Z"/>
  <path class="st12" d="M36.636,94.832c.108.033.216.067.316.108.058.216-.042.565-.091.781-.466,2.012-1.097,3.392-.091,5.387.657,1.305,2.186,3.267,3.151,4.406.399.466.848.906,1.23,1.388.058.075.108.166.133.258.042.175.033.258-.067.407-.133.191-.341.382-.582.407-.898.091-1.264-1.38-1.862-1.771-.116-.075-.233-.083-.366-.05-.116.391.632,1.239.79,1.654.091.241.058.366-.042.599l-.166.042.125.017c-.083.075-.125.075-.233.1-.682-.191-.806-1.455-1.613-2.078-.116-.091-.15-.067-.283-.05-.191.441.831,1.264.69,1.92-.083.141-.175.233-.341.274-.183.05-.266,0-.424-.083-.191-.2-.258-.582-.333-.848-.175-.175-.308-.382-.474-.565-.216-.241-.474-.524-.815-.549-.1.299.765,1.222.84,1.638.025.166,0,.216-.091.341-.166.067-.324.083-.499.058-.457-.067-.623-.79-.873-1.131-.175-.241-.441-.623-.756-.673l-.075.075c.067.424.474.765.532,1.197.017.133,0,.191-.075.291h-.067c-.308,0-.765-.474-.981-.665-.931-.856-1.156-1.471-1.862-2.411-1.363-1.821-2.245-2.544-1.28-4.88.249-.599.515-1.189.64-1.829.233-1.189.025-2.486-.025-3.691l.067.033c.067.042.133.067.208.083.748.15,5.171.133,5.661-.208l-.017.017Z"/>
  <path class="st12" d="M49.928,93.302c.208.042.441.042.648.05.017.424-1.214,2.519-1.372,3.25-.549,2.585,3.242,5.246,4.522,7.249.166.266.424.648.349.964l-.091.05c-.208-.042-.324-.324-.432-.499-.474-.748-.856-.931-1.38-1.555.216.806.998,1.405,1.122,2.228.025.158.008.216-.083.333-.374-.058-.84-1.18-1.313-1.496-.15-.1-.191-.141-.374-.1l-.017.116c.191.416.599.765.873,1.139.166.224.308.457.258.748-.1.141-.133.158-.291.233-.125-.008-.224,0-.324-.091-.166-.166-.241-.482-.382-.69-.308-.441-.831-.756-1.247-1.089.166.582.615,1.023.989,1.488.017.05.033.1.058.15.017.042.033.083.05.133.091.266-.033.466-.15.698-.1.025-.116.05-.191-.025-.141-.141-.258-.432-.366-.607-.249-.424-.781-1.064-1.272-1.205-.15-.042-.224,0-.349.067-.15.374,1.072.981,1.156,1.488.033.208,0,.507-.133.682-.108.133-.274.183-.432.191-.607.033-1.106-.374-1.596-.673-1.255-.765-1.679-.665-2.294-2.103-.158-.382-.316-.781-.565-1.114-.49-.648-1.172-1.106-1.754-1.663-2.22-2.128-.266-3.475.308-5.57.208-.773.116-1.688.108-2.486.091.058.175.083.283.1.69.1,5.37-.158,5.703-.391h-.017Z"/>
  <path class="st12" d="M52.322,55.619l.15.025c.075.075.133.15.183.241.856,1.638,1.688,3.658,1.081,5.512-.723,2.228-2.752,3.026-4.339,4.481-.524.474-1.031,1.388-1.654,1.679-.183.083-.324.075-.507.017-.091-.1-.116-.125-.133-.258-.108-.89,1.023-2.112,1.488-2.802.091-.141.125-.216.091-.382l-.15-.042c-1.114.266-1.821,2.835-2.91,3.467-.175.1-.291.125-.482.075-.075-.083-.108-.108-.133-.224-.116-.59.515-2.003.898-2.477.316-.382.856-.781,1.097-1.205.067-.116.033-.15,0-.266l-.125-.058c-.84.2-1.704,1.563-2.078,2.311-.158.308-.399,1.089-.665,1.28-.166.125-.524.091-.723.067-.067-.075-.133-.15-.183-.233-.357-.615.54-2.128.914-2.627s1.131-.989,1.264-1.604l-.1-.067c-.806.233-1.629,1.413-2.07,2.095-.208.324-.399.707-.673.973-.166.158-.324.258-.557.258-.091-.05-.166-.067-.216-.158-.108-.175-.083-.424-.025-.607.416-1.455,1.796-2.727,3.076-3.45.565-.316,1.205-.582,1.713-.989.964-.773,1.264-1.48,2.494-2.195.308-.183.632-.341.973-.449.283-.091.815-.166,1.056-.324.091-.058.083-.1.1-.2-.075-.067-.125-.091-.216-.116-1.513-.391-2.868.981-4.032,1.713.05-.108.108-.208.175-.308,1.139-1.721,3.259-2.752,5.229-3.151h-.008Z"/>
  <path class="st2" d="M24.565,86.419c.707.2,1.945.382,2.652.075l-1.197,18.987-.266,3.965c-.05.756-.033,1.613-.224,2.353-.05.208-.141.399-.324.507-.033.058-.058.108-.108.15-.233.224-.59.299-.906.299-.399,0-.815-.15-1.089-.449-.224-.249-.191-.732-.191-1.056,0-1.072.125-2.153.2-3.226l.299-4.464,1.156-17.142h0Z"/>
  <path class="st2" d="M19.76,45.285c.141-.017.233-.017.374.025-.474.648-1.006,1.264-1.455,1.937-1.413,2.112-4.938,8.039-5.088,10.441-.831.1-1.804.299-2.594-.058-.025-.017-.05-.042-.075-.058-.407-.341-.499-.707-.549-1.214-.125-1.338-.05-2.743-.05-4.09,0-1.555-.141-3.3.133-4.83.058-.316.183-.59.391-.831.175-.208.382-.407.648-.49.84-.291,1.929-.283,2.81-.366,1.812-.166,3.625-.324,5.445-.457l.008-.008Z"/>
  <path class="st2" d="M67.087,81.88c.025.008.058.025.083.042.175.158.432,6.202.482,7.158l.599,11.356c.083,1.688.308,3.45.258,5.138-.008.349-.058.632-.333.873-.274.233-.657.357-1.014.333-.266-.017-.49-.083-.673-.283-.1-.017-.183-.042-.258-.108-.191-.183-.249-.482-.283-.732-.083-.648-.058-1.33-.091-1.979l-.233-4.439c-.299-5.678-.474-11.364-.848-17.034.042.017.083.033.125.042.466.091,1.779-.108,2.186-.357v-.008Z"/>
  <path class="st2" d="M11.463,77.624c.79.357,1.729,1.139,2.469,1.629-.224,1.787-.349,3.591-.532,5.387l-1.047,10.574-.382,3.816c-.067.615-.067,1.347-.241,1.937-.067.208-.141.324-.333.424-.042.05-.083.1-.133.15-.224.208-.64.274-.939.249-.349-.033-.698-.191-.914-.482-.141-.183-.208-.391-.2-.623.017-1.338.224-2.71.357-4.04.249-2.635.515-5.271.798-7.906l.715-7.432c.116-1.23.208-2.469.391-3.691l-.008.008Z"/>
  <path class="st1" d="M45.847,44.23c.266.224.466.474.682.74.499.557.981,1.131,1.455,1.704l.316.374.69.873.208.283.291.366c.574.748,1.072,1.538,1.604,2.319.748.939,1.862,2.519,2.294,3.633-.316.058-.632.116-.948.183-2.403.374-4.024,1.422-5.628,3.209-.008-.474-.141-1.031-.1-1.488-.1-.175-.1-.299-.091-.499-.042-.357-.075-.723-.116-1.081-.075-.291-.108-.607-.15-.906-.266-1.172-.374-2.394-.815-3.525-.166-.249-.274-.507-.374-.781l-.208-.64c-.108-.241-.233-.449-.382-.665.266.017.682-.05.906-.191.083-.058.091-.091.116-.175-.025-.058-.042-.108-.083-.158-.466-.532-1.987-.607-2.66-.615l.399-.798.457-.964c.682-.432,1.438-.756,2.136-1.189v-.008Z"/>
  <path class="st4" d="M46.512,54.837c.582-.648,1.189-1.372,2.045-1.654.756-.241,1.588-.033,2.278.324.466.241,1.446.682,1.604,1.18-2.403.374-4.024,1.422-5.628,3.209-.008-.474-.141-1.031-.1-1.488-.1-.175-.1-.299-.091-.499-.042-.357-.075-.723-.116-1.081l.008.008Z"/>
  <path class="st0" d="M46.628,55.918c.765-.84,1.313-1.713,2.61-1.754.175,0,.324,0,.457.125-.083.175-.224.241-.399.299-.266.1-.557.158-.823.258-.715.283-1.264.998-1.754,1.571-.1-.175-.1-.299-.091-.499h0Z"/>
  <path class="st13" d="M46.703,47.671c.017,0,.033.008.05.017.931.274,1.613,1.089,2.577,1.405l.058-.067c-.033-.125-.067-.15-.166-.233l-.091-.15c-.108-.05-.191-.1-.283-.166l.017-.091.333-.2.291.366c.574.748,1.072,1.538,1.604,2.319l-.224.698c-.299.258-.623.466-.989.623-1.979-1.006-1.156-1.604-2.012-3.209-.283-.524-.79-.865-1.172-1.313h.008Z"/>
  <path class="st13" d="M46.146,49.06c.15.283.274.623.524.831l.108-.025c.125-.399.017-.906-.033-1.322.74.74,1.239,1.596,1.23,2.677,0,.923-.49,1.413-1.064,2.07-.116.133-.166.316-.291.441-.075.075-.166.133-.249.2-.266-1.172-.374-2.394-.815-3.525.208-.441.457-.89.599-1.355l-.008.008Z"/>
  <path class="st13" d="M45.847,44.23c-.033.939.133,1.862.083,2.802-.956-.083-1.787-.316-2.677-.648l.457-.964c.682-.432,1.438-.756,2.136-1.189h0Z"/>
  <path class="st13" d="M46.52,44.97c.499.557.981,1.131,1.455,1.704-.449.141-.815.673-1.289.615-.067-.05-.116-.091-.158-.175-.258-.532-.208-1.596,0-2.145h-.008Z"/>
  <path class="st13" d="M48.291,47.048l.69.873c-.249,0-.499,0-.748.025-.116-.091-.299-.216-.357-.357-.033-.091-.008-.1.025-.175.091-.058.175-.133.283-.15.017,0,.042,0,.058-.008l.042-.2.008-.008Z"/>
  <path class="st13" d="M44.957,48.985c.341-.291.707-.557,1.081-.806-.208.382-.507,1.214-.856,1.43,0,0-.017.008-.017.017l-.208-.64Z"/>
  <path class="st12" d="M48.981,47.912l.208.283-.333.2-.017.091c.091.067.175.125.283.166l.091.15c-.673-.175-.357-.607-.981-.856.249-.017.499-.017.748-.025v-.008Z"/>
  <path class="st4" d="M19.253,83.958l.216-.823c.183.208.374.357.607.515.524.374,1.039.781,1.588,1.122.407.258.906.432,1.289.715l-.025.033c.366.158.657.366.865.715v.125l-.1.05c.075.283.033.698-.017.989.017.191.042.341-.058.515.058.258-.05,2.394-.15,2.577,0,.008-.017.017-.025.025.075.732-.017,2.153-.166,2.893-.366.05-1.555-.382-1.862-.623-.033-.025-.067-.067-.091-.1-.116.042-.233.008-.349-.042-.166-.075-.266-.158-.333-.324l-.15.025c-.898-.308-2.186-1.33-2.594-2.178-.158-.333-.125-.565,0-.898l-.025-.042c.025-.299.108-.574.2-.865.075-.441.324-1.538.565-1.879-.033-.033-.025-.075-.033-.116.05-.042.1-.091.15-.133-.017-.1.017-.133.067-.224l-.058-.017c-.108-.324.366-1.688.507-2.053l-.017.017Z"/>
  <path class="st1" d="M19.253,83.958l.216-.823c.183.208.374.357.607.515.524.374,1.039.781,1.588,1.122.407.258.906.432,1.289.715l-.025.033c.366.158.657.366.865.715v.125l-.1.05c-.69.033-1.413-.05-1.92.54-.441.507-.499,1.629-.798,1.92-.424-.258-.54-1.322-.914-1.737-.341-.391-1.039-.241-1.422-.632-.033-.033-.025-.075-.033-.116.05-.042.1-.091.15-.133-.017-.1.017-.133.067-.224l-.058-.017c-.108-.324.366-1.688.507-2.053h-.017Z"/>
  <path class="st4" d="M20.076,83.651c.524.374,1.039.781,1.588,1.122.407.258.906.432,1.289.715l-.025.033c-.374.15-.798.274-1.131.49-.316.2-.474.623-.865.698-.083-.374-.158-.765-.291-1.122-.166-.449-.507-1.014-.582-1.48-.025-.15.008-.316.033-.457h-.017Z"/>
  <path class="st4" d="M19.253,83.958c.615.507.665,1.164.973,1.438-.05.333-.067.632-.357.84-.125.083-.266.116-.416.091-.208-.042-.482-.158-.648-.299l-.058-.017c-.108-.324.366-1.688.507-2.053h0Z"/>
  <path class="st4" d="M23.6,87.924c.058.258-.05,2.394-.15,2.577,0,.008-.017.017-.025.025.075.732-.017,2.153-.166,2.893-.366.05-1.555-.382-1.862-.623-.033-.025-.067-.067-.091-.1-.091-.05-.183-.1-.266-.166l.033-.208c-.125-.133-.116-.432-.141-.599.283-.391.449-.939.623-1.38.424-1.056,1.214-1.688,2.053-2.419h-.008Z"/>
  <path class="st1" d="M23.426,90.526c.075.732-.017,2.153-.166,2.893-.366.05-1.555-.382-1.862-.623-.033-.025-.067-.067-.091-.1-.091-.05-.183-.1-.266-.166l.033-.208c.05.008.067.017.116.017.723,0,1.746-1.347,2.245-1.812h-.008Z"/>
  <path class="st1" d="M23.659,87.4c.017.191.042.341-.058.515-.831.732-1.621,1.355-2.053,2.419-.183.449-.341.989-.623,1.38.017.175.017.474.141.599l-.033.208c.091.067.175.116.266.166-.116.042-.233.008-.349-.042-.166-.075-.266-.158-.333-.324.075-.274.042-.623.075-.914.175-1.33.574-2.702,1.854-3.359.382-.191.815-.249,1.072-.623.008-.017.017-.025.025-.042l.017.017Z"/>
  <path class="st1" d="M18.056,88.381c.017.008.025.017.042.025.648.382,1.846.058,2.369.906l-.033.133c-.574.324-1.754.075-2.369-.091-.067-.017-.125-.033-.183-.067l-.025-.042c.025-.299.108-.574.2-.865Z"/>
  <path class="st12" d="M27.965,42.284c1.122.948,2.17,1.771,3.492,2.419,2.918,1.43,5.728,2.112,8.962,1.58.59-.1,1.214-.175,1.779-.374.083-.033.133-.033.216-.017l.042.15c-.191.732-1.114,1.48-1.704,1.904-.224.15-.457.291-.707.416-1.995,1.006-4.822.931-6.917.241-2.959-.973-4.955-3.4-6.318-6.094.391-.058.773-.141,1.156-.224h0Z"/>
  <path class="st2" d="M21.73,43.731l.05.033c-.299.283-.632.532-.948.79-2.07.233-4.165.374-6.243.565-.998.091-2.103.108-3.068.357-.033.008-.067.017-.1.033-.033.008-.067.025-.1.033-.033.008-.067.025-.1.042s-.067.025-.1.042-.067.033-.091.05c-.033.017-.058.033-.091.058-.033.017-.058.042-.091.058-.033.017-.058.042-.083.067s-.058.042-.083.067-.058.05-.083.075c-.025.025-.05.05-.075.075-.025.025-.05.05-.075.083-.025.025-.05.058-.067.083-.025.025-.042.058-.067.083-.025.033-.042.058-.058.091-.017.033-.042.058-.058.091-.208.357-.299.781-.341,1.189-.15,1.405-.058,2.926-.05,4.339,0,1.513-.083,3.092.058,4.589.025.258.083.507.158.756-.366-.15-.698-.308-1.014-.549-.499-.524-.673-1.172-.748-1.887-.175-1.646-.1-3.342-.075-4.988.017-.989-.033-2.062.125-3.034.075-.457.2-.948.499-1.305.291-.357.715-.599,1.156-.723,1.239-.333,2.702-.324,3.982-.441l7.798-.715-.017-.008Z"/>
  <path class="st8" d="M22.678,19.432c-1.064-.682-1.929-1.696-2.386-2.876-.391-1.006-.524-2.311-.058-3.309.216-.457.574-.84,1.056-1.006.532-.183,1.114-.058,1.604.175.856.416,1.496,1.247,1.796,2.136.515,1.505.091,2.627-.582,3.974-.233.515-.432.989-.474,1.563-.316-.208-.69-.399-.973-.648l.017-.008Z"/>
  <path class="st10" d="M22.678,19.432c.274-.557-.249-1.762,0-2.427.532-.042.956,1.289,1.413,1.496.008,0,.025.008.033.017-.233.515-.432.989-.474,1.563-.316-.208-.69-.399-.973-.648h0Z"/>
  <path class="st8" d="M24.631,19.365c.657-1.613,1.471-2.918,3.159-3.625.707-.299,1.58-.441,2.311-.125.025.008.058.025.083.042s.05.025.083.042c.025.017.05.033.075.05.025.017.05.033.075.05.025.017.05.033.075.05.025.017.05.042.067.058.025.017.042.042.067.058.025.025.042.042.067.067s.042.042.058.067.042.05.058.067c.017.025.033.05.05.075s.033.05.05.075.033.05.05.075.025.05.042.083c.017.025.025.058.042.083.008.025.025.058.033.083.258.682.075,1.471-.233,2.112-.49,1.031-1.471,1.887-2.544,2.261-.091.033-.191.067-.283.091-.657-.216-1.322-.466-2.012-.549-.549-.067-1.114-.042-1.671-.033.075-.399.166-.765.299-1.156h0Z"/>
  <path class="st10" d="M24.631,19.365c.083.125.141.274.283.308.74-.324,1.422-.657,2.253-.698-.175.357-1.156,1.48-1.164,1.58-.549-.067-1.114-.042-1.671-.033.075-.399.166-.765.299-1.156h0Z"/>
  <path class="st8" d="M24.465,22.857c-.017-.075-.042-.15-.05-.233-.05-.283-.2-1.064,0-1.305.067-.075.2-.067.299-.075,1.38,0,2.777.233,3.791,1.255.723.723,1.18,1.746,1.172,2.777,0,.599-.166,1.23-.607,1.663-.333.324-.79.474-1.247.466-.881-.017-1.87-.574-2.461-1.205-.973-1.039-.698-2.062-.89-3.342h-.008Z"/>
  <path class="st10" d="M24.465,22.857c-.017-.075-.042-.15-.05-.233-.05-.283-.2-1.064,0-1.305.067-.075.2-.067.299-.075.482.64,1.613,1.671,1.671,2.461l-.058.158c-.224.058-.49-.125-.673-.241-.399-.241-.773-.599-1.189-.781v.017Z"/>
  <path class="st8" d="M21.747,21.468c-1.272.682-2.677,1.264-4.148.973-.632-.125-1.247-.457-1.596-1.006-.291-.457-.366-1.023-.258-1.546.15-.69.623-1.239,1.214-1.604.948-.582,1.987-.607,3.034-.357.366.291.665.715.981,1.064.357.391.732.732,1.131,1.072.299.233.582.474.856.732-.399.258-.798.466-1.222.673h.008Z"/>
  <path class="st10" d="M22.104,20.063c.299.233.582.474.856.732-.399.258-.798.466-1.222.673-.407-.424-1.156-.482-1.58-.89l.05-.158c.416-.407,1.347-.366,1.895-.366v.008Z"/>
  <path class="st8" d="M22.104,22.142c.432-.308.881-.582,1.347-.848.091.507.166,1.014.216,1.53.141.856.133,1.796-.108,2.627-.299,1.031-.981,1.995-1.937,2.511-.449.241-.973.374-1.471.216-.416-.133-.732-.424-.931-.806-.399-.781-.349-1.87-.075-2.685.657-1.929,1.347-1.762,2.959-2.552v.008Z"/>
  <path class="st10" d="M22.104,22.142c.432-.308.881-.582,1.347-.848.091.507.166,1.014.216,1.53-.316.05-.906.981-1.156,1.255-.116.133-.274.324-.466.333-.549-.499.266-1.613.083-2.211,0-.025-.017-.05-.025-.067v.008Z"/>
  <path class="st11" d="M13.808,58.453l.042.025c.091.324-.083,4.182-.1,4.913-.673.058-1.355.108-2.028.15-.175-.233-.083-4.298-.083-4.971.732-.017,1.446-.05,2.178-.116h-.008Z"/>
  <path class="st3" d="M34.025,54.912c.299.166,2.635,4.705,2.943,5.345-.316-.208-.64-.382-.964-.565-.549-.249-1.072-.457-1.671-.565-.54-.956-1.355-2.444-1.779-3.433.515-.233.998-.482,1.471-.781Z"/>
  <path class="st2" d="M43.527,61.43c.033,0,0,0,.058.033-.648.515-1.156,1.089-1.688,1.721-.549.05-1.762.349-2.253.175-.133-.05-.175-.191-.241-.308-.216-.366-.466-.715-.707-1.064,1.604-.15,3.242-.291,4.83-.565v.008Z"/>
  <path class="st12" d="M31.872,51.878c.133-.008.283-.025.407.025.407.158.565.781.715,1.156-.283.191-.582.333-.89.474-.133.05-.308.1-.449.083-.175-.025-.382-.125-.482-.274-.125-.175-.125-.391-.083-.599.1-.474.399-.632.781-.865Z"/>
  <path class="st4" d="M27.075,44.737c.499.657.931,1.397,1.48,2.02-.324.166-.64.333-.964.507-.366-.59-.665-1.23-1.014-1.829.1-.258.324-.482.499-.698h0Z"/>
  <path class="st3" d="M39.445,65.42c.15.15.249.374.274.582-.042.2-.125.341-.308.449-.233.15-.607.224-.873.166-.233-.316-.399-.648-.54-1.023.482-.017.973-.058,1.438-.183l.008.008Z"/>
  <path class="st5" d="M33.235,53.723l.108.025c.183.15.241.391.333.607-.457.249-.931.466-1.388.707-.191-.183-.333-.407-.482-.623.457-.266.964-.482,1.438-.715h-.008Z"/>
  <path class="st12" d="M39.944,66.758c.191.133.274.432.316.648.042.191.008.308-.091.466-.15.058-.258.017-.407-.033-.249-.191-.432-.382-.623-.64l.806-.449v.008Z"/>
  <path class="st0" d="M15.728,57.256l.05.067c-.108.299-.224.599-.357.898-.125.017-.333-.166-.441-.241-.141-.116-.191-.141-.258-.316l.075-.133c.258-.175.632-.216.939-.283l-.008.008Z"/>
</svg>