<?xml version="1.0" encoding="UTF-8"?>
<svg id="Layer_1" xmlns="http://www.w3.org/2000/svg" width="80" height="115" version="1.1" viewBox="0 0 80 115">
  <!-- Generator: Adobe Illustrator 29.4.0, SVG Export Plug-In . SVG Version: 2.1.0 Build 152)  -->
  <defs>
    <style>
      .st0 {
        fill: #f8c78d;
      }

      .st1 {
        fill: #d60000;
      }

      .st2 {
        fill: #522306;
      }

      .st3 {
        fill: #5aba47;
      }

      .st4 {
        fill: #643a1b;
      }

      .st5 {
        fill: #f8b15e;
      }

      .st6 {
        fill: #fff;
      }

      .st7 {
        fill: #c0621b;
      }

      .st8 {
        fill: #908f8f;
      }

      .st9 {
        fill: #ed9121;
      }
    </style>
  </defs>
  <path class="st2" d="M15.306,1.54c3.352-.362,6.396,1.803,7.339,4.992C29.666-.1,41.761.353,48.919,6.532c.643-.435,1.214-2.111,1.957-2.057.48.942-.063,2.002-.707,2.727,5.708.48,8.634,7.076,7.683,12.204-.118.589-.145,1.459-.77,1.73-.281-.199-.281-.915-.326-1.25-.19-1.35-.779-2.691-1.386-3.905.852,3.434,0,7.411-2.881,9.649-1.875,6.36-.408,9.776-6.55,14.369,2.629,1.39,9.386,9.213,8.743,12.005,1.214,1.622,1.894,3.615,1.93,5.635,2.89.29,5.454,2.827,7.937,4.276,2.147,1.413,6.405,4.014,8.453,5.472.689.498,1.114.834,1.241,1.712.145.997.172,3.597-.453,4.412-.562.743-1.504.87-2.365.978-.172,1.966.118,5.228-1.431,6.65.308,2.029,1.368,26.02,1.187,26.6-.607,1.178-3.18,1.214-3.633-.127-.635-6.288-.22-18.994-1.314-25.296-3.47.1-6.985.516-10.428.924-.027,4.276-.208,8.553-.308,12.829-.091.988.181,2.156-.39,3.026-.942.852-3.407.689-3.379-.924-.1-4.802.344-9.812.308-14.641-.48.109-.997.127-1.486.109-.417,4.131-.815,8.263-1.296,12.385.906.625,1.332,1.205,1.413,2.328.886.836,2.922,1.972,3.162,3.18,2.319.589,4.177,2.763,3.941,5.228-.761,4.847-10.301,3.08-12.938,1.015.281,1.694-.091,2.899-1.794,3.542-.525.236-1.649.707-2.183.498-3.76,1.287-12.041-2.6-12.929-6.569-.227-1.839.471-3.769.924-5.518.254-1.042.417-2.183,1.259-2.935.489-3.796.87-7.601,1.341-11.398-.815.136-4.149-.181-4.104.988-.263,7.031-.1,14.088-.036,21.128,0,.988.181,4.349-.082,5.128-.317.707-1.178.861-1.875.852-2.618.136-1.948-2.265-2.02-4.032-.136-7.81-.127-16.308.091-24.154-.797.027-1.667.082-2.428-.19-1.06-.381-5.019-3.905-5.971-4.793-.77,6.505-1.033,13.789-1.812,20.204-.562,1.323-3.171,1.006-3.687-.199.245-5.572,1.268-13.762,1.631-19.407.281-2.156.118-4.476,1.015-6.496-.625-1.431-.399-4.757-.417-6.433-.761-.824-1.821-1.169-2.029-2.41-.082-2.419-.707-4.648,2.492-4.874-.109-1.223-.082-2.455-.082-3.687-2.383-.426-3.071-2.138-2.963-4.367.027-3.08-.263-6.26.136-9.323.587-4.106,9.094-3.311,12.249-3.678,1.843-1.625,4.15-2.134,6.179-3.443-.77-.96-1.567-2.238-1.83-3.461-5.345,2.664-9.576-4.757-7.583-9.314-.689-2.573-.67-5.481-.317-8.118-1.942,3.854-1.358,8.881-.535,12.874-1.069.362-2.428-1.894-3.053-2.636.072.716.625,2.165.444,2.781l-.154.063c-2.609-.96-4.693-3.524-5.681-6.061,0,1.205.408,2.501.299,3.687l-.172.063c-5.323-5.492-4.744-17.604,2.519-21.391-1.32.188-2.145,1.231-3.325,1.549-.426-.48.335-1.223.625-1.604,1.631-1.957,3.841-2.908,6.333-3.135v.027ZM40.067,84.647c-.843,4.285-1.323,8.661-2.283,12.929,1.457.886,1.374,2.87,2.066,4.204.843-1.006.353-5.074,1.794-5.862.308-3.823.417-7.674.834-11.488-.806.045-1.604.172-2.41.217h0ZM44.063,58.473c1.015-.417,1.649-1.332,2.473-2.002-.806-.299-1.268-.788-1.794-1.45-.208,1.151-.462,2.301-.68,3.452Z"/>
  <path class="st0" d="M50.912,14.323c2.899,4.481,1.23,9.724-.218,14.387-.667,15.785-19.536,16.283-24.48,2.6-4.421,3.57-8.77-2.881-7.103-7.067.598-1.604,2.473-2.79,4.131-1.993,2.596,1.227,2.62,4.54,4.15,6.514l.127-.054c.299-.562.326-2.863.525-3.742.308-1.377.815-2.664,1.341-3.968,1.576-.689,3.434-1.604,4.621-2.881-.555,1.343-2.083,2.296-2.546,3.425.634.525,2.075-.39,2.781-.589,2.147-.915,4.131-2.211,5.835-3.805-.664,1.354-2.003,2.42-2.845,3.579.018.163.018.245.172.344,4.131.516,7.891-2.609,9.821-6.061-.389,1.915-1.455,3.648-2.464,5.246.236.426.843.127,1.178-.027,2.482-1.151,4.077-3.416,4.983-5.916l-.009.009Z"/>
  <path class="st2" d="M21.512,24.416c2.135-.393,3.454,2.481,2.926,4.222-.507-.072-.535-.834-.924-1.087-.317-.19-.589.245-.707.489-.371.698.362,1.25.208,1.903l-.181.036c-1.151-.806-1.377-3.044.208-3.479-1.604-2.247-1.441-.725-2.646-.118l-.145-.118c-.1-.824.571-1.513,1.259-1.848Z"/>
  <path class="st2" d="M35.927,34.083c.507.018.643.562.834.942.779,1.567,2.646,2.156,4.294,1.993.571-.045,1.73-.48,2.202-.236v.109c-1.767,1.758-4.938,1.142-6.686-.362-.689-.544-1.576-1.712-.652-2.446h.009Z"/>
  <path class="st2" d="M35.782,21.571c1.105-.181,3.832.199,3.769,1.676-.381.281-.852-.145-1.25-.227-1.54-.571-3.171-.227-4.521.625-.408.208-.815.634-1.296.562l-.045-.136c.507-1.413,1.939-2.238,3.352-2.51l-.009.009Z"/>
  <path class="st2" d="M33.698,28.049c.788-.045,1.241,1.151,2.392,1.25,1.042.163,2.029-1.287,2.573-.716-.063,1.504-1.903,2.337-3.243,2.048-1.105-.181-2.618-1.422-1.721-2.582Z"/>
  <path class="st2" d="M48.439,21.698c1.222-.274,3.516,1.433,2.437,2.618-.507-.254-.897-.77-1.422-1.06-1.567-.643-2.31.317-3.361.236-.399-.879,1.721-1.631,2.347-1.794h0Z"/>
  <path class="st2" d="M43.148,30.858c1.694-.009,2.827,2.401,1.468,3.57-.788.734-2.591,1.033-3.171-.045.299-.544,1.903-.1,2.51-.734,1.142-1.187-.815-1.794-.806-2.79Z"/>
  <path class="st2" d="M48.602,28.258c1.16.435-.263,2.039-1.042,2.129-.852.344-2.79-.616-2.12-1.631.444-.154,1.06.208,1.477.371.689-.163,1.114-.471,1.694-.879l-.009.009Z"/>
  <path class="st4" d="M12.624,68.674c2.356,1.712,4.512,3.796,6.804,5.608,1.866,1.495,3.542,3.742,5.98,4.231,14.073-.596,30.887-2.783,45.11-3.832,0,1.105-.045,4.892-.815,5.608-.607.562-1.921.67-2.7.788-10.265,1.287-24.372,2.274-34.709,3.262-7.112.834-6.904.707-12.113-4.095-1.749-1.604-5.228-4.258-6.877-5.907-1.296-1.024-.562-4.168-.67-5.672l-.009.009Z"/>
  <path class="st2" d="M25.29,78.912h.371c.063,1.142.725,4.149.082,5.074-.652-.426-.426-4.222-.453-5.074Z"/>
  <path class="st7" d="M56.502,58.591c3.089.435,5.527,3.035,8.19,4.548,2.582,1.667,5.282,3.225,7.783,5.001.353.29.997.652.951,1.169-1.803.689-3.887.48-5.789.734l-8.834.779c-11.225.806-22.55,2.736-33.776,2.646-3.914-2.455-10.383-8.308-14.288-11.361,1.377-.698,4.747-.915,6.351-1.015,2.037,1.363,4.899,1.823,7.031,2.781,3.742,2.655,7.393,6.433,11.325,8.725,3.869-.163,11.733-1.123,15.683-1.441,1.839-.181,3.687-.317,5.518-.544.344-.027.806-.127.834-.553l-.1-.063.072-.045c-.217,0-6.541-4.693-7.248-5.2.67-.67,1.105-1.422,1.241-2.365,2.057-.797,3.687-2.057,5.056-3.778v-.018Z"/>
  <path class="st7" d="M10.631,62.867c1.323,1.259,4.793,3.896,6.224,5.137,2.899,2.039,5.971,6.161,9.64,6.288,15.157-1.178,31.728-2.655,46.886-4.222-.091.969.29,2.138-.362,2.926-1.205,1.033-4.204.752-5.78.978-11.941.924-27.968,2.609-39.855,3.542-2.183.263-3.796-.924-5.318-2.337l-4.077-3.352c-1.794-1.567-5.028-4.041-6.786-5.599-.87-.68-.661-2.428-.589-3.379l.018.018Z"/>
  <path class="st3" d="M26.541,38.079c.731,3.552,3.475,10.963,8.217,9.432l.471.897c-.525.797-.915,1.74-1.531,2.455-.888-1.241-1.133-3.062-2.981-2.011-.399.208-.924.625-1.051,1.069-.199.734,3.633,6.405,4.149,7.266-1.314.027-2.763,1.069-4.05.969-1.024-.317-1.912-.978-2.881-1.441-.498-.29-1.912-.752-2.156-1.123l.054-.118c.39-.236.879-.054,1.259-.317.96-.652,1.296-2.854,1.513-3.923.217-1.051.843-4.213.254-5.11l-.136-.027c-1.214,2.156-.553,5.173-1.83,7.493-2.211-2.41-5.898-3.361-8.997-2.292,1.966-5.327,3.542-11.615,9.712-13.228l-.018.009Z"/>
  <path class="st0" d="M19.003,51.886c1.74-.127,4.104.462,5.373,1.703l-.779,1.749c-.752-.136-2.029-.68-2.6.018.571.589,1.567.553,2.31.824,1.961.627,3.703,1.707,5.509,2.664,2.482,1.196,4.838-2.102,8.136-.208,1.477.879,3.669,2.917,2.917,4.82-.562.725-1.06-.58-1.341-.978-.326-.516-.68-.997-1.087-1.441-.353-.417-2.22-1.966-2.6-1.105.045.489.933.716,1.296,1.006.924.897,3.117,2.99,1.83,4.258-1.1-.992-2.036-3.344-3.887-3.425-.163.082-.172.091-.254.236.082.426.58.525.888.743.888.652,2.419,1.812,2.039,3.053-.969.498-2.609-2.591-3.86-2.147-.181.689,2.374,1.576,1.894,2.555-.861.29-1.332-.661-2.057-.888-.942-.299-1.921.136-2.899-.263-.997-.408-1.576-1.45-2.301-1.776-3.28-.815-8.408-1.051-10.673-4.032-1.223-1.866.634-5.237.951-7.194.399-.1.779-.154,1.187-.19l.009.018Z"/>
  <path class="st6" d="M25.562,63.882c.507.072,1.006.127,1.522.163,1.441,1.667,3.198,2.591,5.382,2.02.951.924,2.274,1.694,3.289.408.163-.091.562.127.752.163.598.1,1.794-.861,2.301-1.214.553.489,2.265,1.803,2.981,1.758.371-.254-.308-1.649.027-2.183.381-.036.58.299.77.58.824,1.169,1.051.399,1.93.471.299.027.489.29.761.371.453.136,1.114-.263,1.495-.48.988.843,2.147.091,2.945-.634,2.229,1.504,4.294,3.298,6.559,4.766-6.786.661-13.581,1.332-20.367,1.93-3.669-2.383-6.967-5.354-10.356-8.118h.009Z"/>
  <path class="st4" d="M48.149,68.584c.888-.208,1.894.933.707,1.35-.988.172-1.848-.761-.707-1.35Z"/>
  <path class="st5" d="M48.357,68.847c.299.036.68.154.689.498-.118.199-.199.236-.39.353-.643.036-1.078-.598-.299-.852Z"/>
  <path class="st4" d="M40.547,68.765c-1.105-.263-1.169-1.468.109-1.35,1.078.217,1.06,1.404-.109,1.35Z"/>
  <path class="st5" d="M40.475,67.623c.281.082.752.254.616.625-.19.19-.381.208-.643.227-.208-.118-.39-.227-.462-.462.1-.208.29-.281.489-.381v-.009Z"/>
  <path class="st4" d="M45.014,70.061c-1.314-1.151,1.839-1.622,1.413-.254-.272.516-.969.544-1.413.254Z"/>
  <path class="st5" d="M45.485,69.191c1.214.181.435,1.105-.399.643l-.054-.272c.118-.208.245-.254.444-.371h.009Z"/>
  <path class="st4" d="M34.088,68.067c.48-.217,1.006-.091,1.386.263.58,1.622-2.781.734-1.386-.263Z"/>
  <path class="st5" d="M34.269,68.249c.39-.036.834.018.988.426-.281.263-.462.263-.834.245-.109-.082-.199-.181-.29-.281-.018-.199.018-.217.127-.39h.009Z"/>
  <path class="st4" d="M49.091,66.745c.988-.172,1.803.571.761,1.287-.861.163-1.866-.734-.761-1.287Z"/>
  <path class="st5" d="M49.145,67.08c.299-.027.752-.054.87.299-.054.199-.118.245-.263.381-.299-.018-.598-.045-.788-.299,0-.208.054-.227.19-.381h-.009Z"/>
  <path class="st4" d="M42.169,69.118c.942-.199,1.776.625.761,1.287-.888.19-1.848-.698-.761-1.287Z"/>
  <path class="st5" d="M42.187,69.39c.39-.072,1.296.136.806.652-.326.054-.734.1-.951-.199,0-.217.027-.263.145-.453Z"/>
  <path class="st4" d="M37.068,67.696c.408-.045.924.045,1.196.381.58,1.567-3.035.698-1.196-.381Z"/>
  <path class="st5" d="M37.005,68.049c.326-.036.67-.091.942.136.063.208.045.217-.036.417-.399.127-1.187.036-.906-.553Z"/>
  <path class="st4" d="M36.244,69.599c.879-.181,1.993.58.834,1.223-.779.154-1.957-.689-.834-1.223Z"/>
  <path class="st5" d="M36.298,69.87c.317-.027.716-.054.933.227,0,.236-.045.245-.19.417-.308.027-.634.054-.852-.199-.036-.227,0-.245.118-.444h-.009Z"/>
  <path class="st4" d="M51.193,68.312c.881-.191,1.836.699.734,1.25-.852.163-1.839-.725-.734-1.25h0Z"/>
  <path class="st5" d="M51.419,68.557c.263.009.598.1.625.408-.054.199-.163.272-.317.39-.263-.063-.598-.127-.661-.435.1-.199.172-.236.362-.371l-.009.009Z"/>
  <path class="st4" d="M43.311,67.225c.797-.245,1.93.598.888,1.205-.788.181-1.875-.562-.888-1.205Z"/>
  <path class="st5" d="M43.682,67.406c.254.072.553.145.607.444-.063.199-.19.263-.353.381-.281-.063-.643-.145-.67-.48.127-.19.227-.227.426-.335l-.009-.009Z"/>
  <path class="st4" d="M39.098,69.463c.873-.12,1.865.644.716,1.214-.87.172-1.812-.67-.716-1.214h0Z"/>
  <path class="st5" d="M39.315,69.734c.254.036.535.118.652.371-.045.217-.109.217-.281.344-.29-.018-.788-.072-.77-.453.109-.154.236-.19.408-.263h-.009Z"/>
  <path class="st4" d="M45.793,67.324c1.74-1.495,2.292,2.12.009.535-.072-.208-.072-.317-.009-.535Z"/>
  <path class="st5" d="M46.029,67.415c.344-.154.824-.199,1.006.208-.009.417-.489.326-.761.236-.137-.146-.223-.242-.245-.444Z"/>
  <path class="st3" d="M44.778,40.715c3.099.371,7.23,7.275,8.806,9.866-2.99-.236-6.288,1.64-7.592,4.34-1.586-.806-.698-3.189-.707-4.648.036-.87.045-3.642-.525-4.267h-.109c-.367,4.154-.568,8.414-1.413,12.548-1.033.091-2.066.163-3.089.272-.689.109-1.45.426-1.948-.254-.227-.725-.48-1.404-.806-2.084.227-.661.435-1.314.652-1.975.489.815,1.866,4.476,3.089,3.08,2.084-2.709,1.749-7.103-.915-9.314.091-.208.172-.426.254-.634,2.818,1.142,2.655-4.521,2.6-6.161.58-.236,1.142-.507,1.703-.77h0Z"/>
  <path class="st0" d="M52.353,51.469c1.776-.281,3.253,4.294,3.253,5.69,0,1.903-2.754,4.086-4.539,3.986-.525,1.277-.507,2.238-1.576,3.262-.362.353-1.431,1.486-1.948,1.024-.018-.96,1.35-1.803,1.142-2.79l-.127-.063c-1.078.263-1.649,3.243-3.144,3.008-.507-.997,1.749-2.809,1.422-3.832-1.123-.018-1.948,3.216-2.89,3.606-2.111-.29,1.033-3.243.77-4.267-1.323.227-1.803,2.174-2.229,3.262l-.118.036c-.589-.054-.788-.634-.67-1.151.254-2.265,2.464-3.243,4.032-4.503,1.277-1.123,2.274-2.473,3.669-3.488.589-.516,1.884-.625,2.12-1.413-1.042-.553-2.854.924-3.715,1.477l-.743-.535c1.142-1.758,3.253-2.99,5.3-3.307h-.009Z"/>
  <path class="st7" d="M19.392,41.975c.109-.027.091-.018.19.027-.861,2.165-4.023,8.217-4.014,10.41.145.371.58.507.915.643-.163.734-.371,2.039-.906,2.582-.67.634-2.673.779-3.361.091-.58-2.618-.127-6.242-.299-8.969.045-1.06-.227-2.283.371-3.216,1-1.26,5.396-1.352,7.103-1.567Z"/>
  <path class="st4" d="M24.312,84.973c.734.417,1.604.444,2.374.761-.281,7.176-.208,14.704-.199,21.934-.054.67.208,1.939-.118,2.464-.553.689-1.694.471-2.193-.181-.054-8.317-.163-16.67.136-24.979h0Z"/>
  <path class="st0" d="M38.889,84.783h.072l.072.1c-.072.978-1.214,8.417-1.495,8.815-1.105.716-4.032.625-5.065-.236-.408,0-.725-.399-.924-.716.408-2.437.525-4.92.942-7.366,2.129-.254,4.258-.453,6.396-.607v.009Z"/>
  <path class="st0" d="M48.756,83.904c.254-.036.507-.082.761-.027.118,1.069-.462,7.529-.96,8.761-.879.643-3.706.87-4.584.19-.444.054-.915-.353-1.142-.698l.58-7.764c1.776-.199,3.57-.299,5.345-.462h0Z"/>
  <path class="st4" d="M12.778,75.379c.643.227,1.223.861,1.694,1.341-.507,6.976-1.087,13.952-1.785,20.911-.045.335-.118.933-.58.87-.516.335-1.341.199-1.676-.335.951-6.27.924-16.906,2.356-22.795l-.009.009Z"/>
  <path class="st4" d="M69.195,81.63h.208c.217,4.584.77,18.473.978,23.284-.535.281-1.359.371-1.857-.018h-.118c-.734-4.843-.256-10.617-.734-15.701-.245-2.313.178-4.843-.598-7.04.716-.109,1.431-.353,2.129-.535l-.009.009Z"/>
  <path class="st3" d="M28.38,36.91c3.261,2.392,5.405,5.925,8.797,8.127-1.604-.018-2.265,1.477-3.588,1.857-3.769-1.042-5.681-5.735-6.116-9.305.29-.236.607-.453.906-.68Z"/>
  <path class="st1" d="M30.237,98.047c.427,1.324,2.152,2.455,3.57,2.265.163.263.308.516.525.734-.072.371-.217.661-.236,1.06-.063,1.259.399.562.824,1.16.19.236.045.516.082.788.109,1.232,1.74.362,1.966,1.114-.87.806-1.712,1.613-2.075,2.763-1.957-.652-5.155-3.008-5.934-4.983.317-1.649.897-3.253,1.287-4.892l-.009-.009Z"/>
  <path class="st1" d="M41.734,97.159c.408,1.984,3.135,1.604,4.566,2.256-.915,1.622,0,2.029.933,2.365.208.236.018.834.544,1.114.426.227,1.096.027,1.404.417-.371.933-1.468,1.613-1.685,2.627-1.314-.063-5.916-3.28-6.641-4.331.444-.997.761-3.334.87-4.458l.009.009Z"/>
  <path class="st4" d="M55.016,83.288c.308.525-.217,13.164-.39,13.581-.48.535-1.422.516-1.984.145-.245-.489.109-12.05.145-13.527.743-.072,1.495-.136,2.238-.199h-.009Z"/>
  <path class="st6" d="M52.615,102.631c2.165.072,3.443.716,4.276,2.963-.553.852-3.597,1.567-4.485,1.25-1.06.326-3.452.027-4.294-.607.915-2.084,2.428-2.954,4.503-3.606Z"/>
  <path class="st6" d="M39.37,104.806c.725.236,1.341-.172,2.446.39,1.069.544,1.812,1.576,2.174,2.7-.489.634-3.243,1.314-3.941,1.006-1.006.417-3.597-.072-4.43-.67-.018-1.739,2.434-2.834,3.76-3.434l-.009.009Z"/>
  <path class="st8" d="M31.442,93.879c1.622,1.142,4.267,1.64,6.034.607-.091.997-.308,2.002-.48,2.981-.272.181-.852.299-1.169.236-1.096.77-1.232.353-2.075,1.703-3.524.308-2.727-3.207-2.31-5.527h0Z"/>
  <path class="st7" d="M20.081,40.679c.1-.009.19,0,.281,0l.045.091c-.308,1.386-6.759.181-8.571,2.283-1.078,1.993-.399,4.929-.498,7.166.063,1.866-.145,3.778.281,5.599-2.211-.199-1.341-4.693-1.531-6.315-.751-9.966,1.824-7.741,9.993-8.834v.009Z"/>
  <path class="st6" d="M28.796,104.072c3.425,4.367,9.74,7.194,15.076,4.675l.072.063c.045.344.018.797-.335.96-3.162,3.597-15.357-.806-14.813-5.699h0Z"/>
  <path class="st8" d="M42.686,93.272c1.676.87,4.294,1.087,5.934.118-.082.888-.181,1.776-.308,2.655-.208.181-.924.281-1.187.263-.698.661-1.604.707-1.83,1.975-.707.145-1.948-.263-2.482-.743-.516-.643-.109-1.676-.136-2.446.027-.607,0-1.214,0-1.821h.009Z"/>
  <path class="st6" d="M40.71,102.532c4.421,3.905,10.356,6.659,16.118,4.077.227.444-.19.96-.498,1.268-3.316,2.129-8.834.824-11.851-1.268-.616-.607-1.015-1.377-1.685-1.939-.68-.661-2.31-.933-2.084-2.138Z"/>
  <path class="st1" d="M39.243,49.014c2.763.707,3.017,6.27,1.142,7.955-1.887-2.024-1.882-4.903-1.803-7.619.227-.109.444-.227.661-.335h0Z"/>
  <path class="st7" d="M15.188,77.363c.761.399,2.564,2.102,3.334,2.745,1.59,1.521,3.615,2.737,5.074,4.304-3.032.599-6.388-3.509-8.535-5.345,0-.571.054-1.151.127-1.712v.009Z"/>
  <path class="st1" d="M35.936,48.905c.535.29,1.033.399,1.622.498-.062,2.241.265,4.25-.87,6.251-.824-1.277-1.658-2.582-2.356-3.941.489-.942,1.015-1.921,1.595-2.818l.009.009Z"/>
  <path class="st3" d="M42.205,41.748h.063l.063.118c-.018,1.576-.254,3.678-1.268,4.929-.834-.924-1.386-1.694-2.736-1.812.426-.96.915-1.875,1.323-2.845.888-.063,1.703-.172,2.564-.39h-.009Z"/>
  <path class="st4" d="M14.772,56.842c.263-.045.553-.045.824-.063-.036,1.169.036,2.292.136,3.452-.834.136-1.658.263-2.501.335.009-1.196-.109-2.374,0-3.579.516-.027,1.033-.082,1.549-.145h-.009Z"/>
  <path class="st9" d="M33.68,52.466c.381.317,2.954,4.503,3.289,5.219-.698-.435-1.495-.598-2.31-.625-.779-.933-1.676-2.682-2.337-3.787.507-.181.942-.489,1.359-.806h0Z"/>
  <path class="st1" d="M38.165,45.907c3.089,0,.824,3.986-1.694,2.328-1.848-1.604.054-2.41,1.694-2.328Z"/>
  <path class="st1" d="M20.099,6.894c.68-.018,1.178.154,1.758.489-1.033,1.015-1.749,2.319-2.51,3.542-1.531-1.024-1.277-3.851.761-4.032h-.009Z"/>
  <path class="st1" d="M48.312,96.779c.96.109,1.413.779,1.694,1.631-.045.018-2.328.281-2.337.281-.806.752-1.287.127-1.513-.707.635-.63,1.296-.916,2.156-1.196v-.009Z"/>
  <path class="st1" d="M36.57,98.21c1.033,0,1.549.897,1.785,1.785-.721,0-1.547.031-2.265.072-.236.208-.788.48-1.105.498-.199-.245-.299-.779-.371-1.096.589-.498,1.268-.897,1.957-1.259Z"/>
  <path class="st0" d="M33.961,41.032c1.495.652,3.017,1.105,4.657,1.16-.371.661-.607,1.395-1.006,2.048-1.359-.752-2.655-2.029-3.651-3.198v-.009Z"/>
  <path class="st7" d="M42.994,59.234l.063.091c-.317.761-1.25,1.314-1.567,2.12h-1.006c-.281-.661-.661-1.35-1.133-1.894,1.187-.172,2.437-.199,3.642-.308v-.009Z"/>
  <path class="st4" d="M68.235,105.25c.317.58,1.667.435,2.147.163,0,.806.381,2.301-.815,2.356-1.558.127-1.45-1.395-1.323-2.51l-.009-.009Z"/>
  <path class="st6" d="M50.323,100.511c1.622.208.96-.082,2.365.834-.85.228-2.051.213-2.935.48-.408.462-1.767.978-1.812,0,.435-.915,1.83-.915,2.383-1.314h0Z"/>
  <path class="st6" d="M36.887,100.584c.525.217,1.178-.109,1.667.326.217.199.263.535.507.707-.711.146-1.994.074-2.763.299-.335.408-1.649,1.069-1.622.1.19-.888,1.595-1.015,2.211-1.431Z"/>
  <path class="st6" d="M48.792,99.089c.362.227,1.685-.1,2.274.698-.878.11-1.892.347-2.745.544-.417.408-1.287,1.06-1.758.426-.109-1.16,1.486-1.241,2.22-1.658l.009-.009Z"/>
  <path class="st4" d="M24.266,110.55c.806.607,1.767.217,2.211.562.091.362.136,1.042-.263,1.25-.326.58-1.395.661-1.857.208-.362-.408-.154-1.513-.1-2.011l.009-.009Z"/>
  <path class="st6" d="M38.156,102.287c.535.29,1.785.1,1.749.978-.978-.041-1.932.15-2.863.362-.317.453-1.513.815-1.341-.091.326-.915,1.866-.888,2.446-1.232l.009-.018Z"/>
  <path class="st7" d="M31.669,49.268c.507.018.661,1.078.843,1.468-.399.254-.806.498-1.223.734-.371-.163-.734-1.006-.933-1.359.426-.462.716-.643,1.305-.852l.009.009Z"/>
  <path class="st4" d="M54.618,97.359l.082.072c.417,1.305-1.223,2.256-2.093,1.169-.1-.371-.072-.761-.063-1.142.625.308,1.486.308,2.075-.091v-.009Z"/>
  <path class="st4" d="M10.414,98.835c.607.498,1.531.661,2.165.118-.063.426-.091.861-.254,1.268-.598.408-1.513.091-2.002-.362,0-.014.092-1.012.091-1.024Z"/>
  <path class="st5" d="M40.556,63.999c.661.254.344,1.413.471,1.993-.525-.317-1.386-.652-1.649-1.25.127-.39.824-.553,1.178-.743Z"/>
  <path class="st9" d="M32.973,51.18c.19.181.335.544.471.779-.48.272-.861.661-1.368.897-1.015-1.178-.018-1.042.897-1.667v-.009Z"/>
  <path class="st1" d="M39.179,103.773c.245.136.571.109.852.19l-.045.082c-.39.199-1.205.462-1.64.417-.154.136-.29.181-.48.172-.136-.091-.19-.1-.227-.263.317-.453,1.142-.272,1.558-.607l-.018.009Z"/>
  <path class="st1" d="M51.492,102.006c.199.109.435.063.643.172-.426.181-1.223.525-1.676.444-.154.145-.381.272-.571.127.236-.607,1.133-.453,1.604-.743h0Z"/>
  <path class="st7" d="M40.72,62.097c.136,0,.245-.009.362.063.109.317-.082.761-.181,1.069-.163-.208-.154-.852-.181-1.133Z"/>
</svg>