<?xml version="1.0" encoding="UTF-8"?>
<svg id="Layer_1" xmlns="http://www.w3.org/2000/svg" width="80" height="115" version="1.1" viewBox="0 0 80 115">
  <!-- Generator: Adobe Illustrator 29.4.0, SVG Export Plug-In . SVG Version: 2.1.0 Build 152)  -->
  <defs>
    <style>
      .st0 {
        fill: #5e9fa6;
      }

      .st1 {
        fill: #c7392a;
      }

      .st2 {
        fill: #7c9e42;
      }

      .st3 {
        fill: #0d0a03;
      }

      .st4 {
        fill: #fff;
      }

      .st5 {
        fill: #563d1e;
      }

      .st6 {
        fill: #e7b483;
      }

      .st7 {
        fill: #e6ac30;
      }

      .st8 {
        fill: #914025;
      }

      .st9 {
        fill: #8b6a3a;
      }
    </style>
  </defs>
  <polygon class="st4" points="59.624 74.749 34.068 77.442 22.686 69.556 47.186 65.925 59.624 74.749"/>
  <path class="st5" d="M25.14,4.931c.015-.007.03-.013.044-.02.437-.202.82-.528,1.219-.795.488-.327,1.015-.627,1.533-.904,2.723-1.456,5.961-2.047,9.006-1.526.774.133,1.501.498,2.269.603.638.087,1.305.088,1.949.123,1.339.073,2.764.235,4.032.68,1.47.517,2.47,1.39,3.529,2.489,2.524.262,4.661.784,6.338,2.86.814,1.007,1.305,2.271,1.499,3.544.392.225.756.46,1.115.734l.514.447c1.041,1.096,1.709,2.615,1.675,4.144-.02.882-.297,1.723-.75,2.476-.552.918-1.397,1.348-1.249,2.562.041.335.156.636.384.889.542.602,1.653.666,1.605,1.67-.035.714-.72,1.422-1.237,1.865-.785.671-1.692.991-2.68,1.233-.199,1.013-.51,1.884-1.411,2.495-.475.322-.996.442-1.5.685l-.017.069c-.206.868-.281,1.794-.411,2.678-.422,2.863-1.167,5.443-2.907,7.818-.726.991-1.663,2.048-2.69,2.74,1.16.699,2.233,1.489,3.183,2.458,2.681,2.733,6.415,8.844,7.337,12.537.322,1.292.305,2.665-.165,3.918,2.569,1.296,5.168,2.668,7.62,4.174l1.186.655,1.459.84c1.466.833,2.949,1.642,4.394,2.51.703.422,1.463.839,2.074,1.39.302.273.558.579.672.977.207.719.046,1.566-.033,2.296-.081.615-.15,1.231-.206,1.849l-.092.577c-.337,1.321-1.249,1.807-2.311,2.503.024,1.51.4,3.914-.711,5.075-.247.258-.543.441-.853.613-.014,2.484.294,5.002.442,7.484.057.954,0,2.568.192,3.419.092,2.088.214,4.175.364,6.26.057.918.235,1.999.113,2.906-.007.051-.017.102-.028.153-.011.051-.024.101-.039.15-.015.05-.032.099-.05.147-.019.048-.039.096-.061.143-.022.047-.046.093-.072.138-.026.045-.053.089-.082.132s-.059.085-.091.126c-.032.041-.065.08-.1.119-.346.379-.817.62-1.333.644-.491.022-.972-.147-1.324-.492-.758-.744-.622-1.788-.731-2.749-.053-2.002-.226-4.006-.363-6.004-.11-1.608-.185-3.22-.282-4.83l-.274-4.574c-.048-.835-.05-1.7-.165-2.528-1.076.17-2.173.237-3.257.347-2.345.223-4.688.469-7.028.739.167.975.533,3.043.394,3.954-.034.225-.123.429-.255.613-.942,1.311-3.991,2.21-5.531,2.681-.197.801-.831,2.574-.389,3.265.564.884,2.969,2.56,3.913,3.202.606.412,1.326.806,1.811,1.361.361.414.599.962.509,1.519-.115.71-.633.899-1.092,1.345-.21.204-.401.493-.645.653-.171.112-.413.169-.608.228-.17.23-.341.481-.588.634-.323.199-.754.238-1.102.396-.429.195-.815.538-1.286.618-.815.138-1.668-.36-2.294-.827-.97-.723-1.816-1.601-2.782-2.319-1.416-1.053-4.049-1.856-4.307-3.823-.204-1.557.921-3.135.967-4.789-1.541.145-3.09.196-4.628.34-.14,1.162-.54,2.805.229,3.785.816,1.04,1.797,1.997,2.762,2.899,1.103,1.031,3.734,2.809,3.557,4.519-.047.451-.316.813-.673,1.077-.414.307-.848.419-1.36.317-.101-.02-.2-.052-.298-.083-.39.426-.714.759-1.326.795-.254.015-.468-.025-.71-.1-.735.492-1.178.584-2.05.409-.099-.02-.197-.043-.295-.068-.762.313-1.365.206-2.1-.103-1.372-.577-2.338-2.46-3.409-3.482-.743-.708-1.678-1.203-2.39-1.927-.236-.24-.422-.504-.545-.818-.609-1.554.325-3.243.452-4.803.082-1.007-.058-1.991-.071-2.995-1.04-.17-2.086-.391-3.09-.716-.073,3.883-.554,7.768-.596,11.65-.108,1.251.084,4.003-.776,4.923-.378.405-.902.582-1.449.573-.459-.007-1.018-.212-1.335-.553-.255-.275-.397-.636-.455-1.003-.113-.712.007-1.53.048-2.249.066-1.08.117-2.16.154-3.241.141-.639.087-1.43.106-2.092l.01-.414c.128-.538.077-1.196.107-1.754.055-.802.07-1.597.074-2.401.036-.12.025-.283.033-.41.078-.866.096-1.742.134-2.611-.518-.005-.974-.03-1.443-.284-.616-.333-.91-.88-1.088-1.53-.1-.941-.006-1.86.037-2.799.059-1.284.087-2.565.215-3.845-2.85-2.05-5.799-3.968-8.66-6.005-.227,1.829-.345,3.681-.512,5.517-.122,1.345-.32,2.723-.343,4.072-.208,1.511-.3,3.055-.423,4.576-.072.894-.18,1.783-.253,2.676-.088,1.073-.071,2.279-.337,3.321-.1.392-.266.778-.553,1.07-.327.331-.76.469-1.219.457-.531-.014-1.006-.162-1.372-.561-.341-.373-.454-.801-.474-1.296-.03-.722.087-1.474.155-2.195.117-1.149.221-2.3.313-3.451l.824-9.777c.161-1.89.362-3.784.47-5.677.064-.365.088-.74.123-1.108-.146-.138-.305-.265-.459-.394-.569-.488-.844-.948-1.071-1.647l.016-.838c.107-1.231.189-2.463.319-3.692-.414-.309-.869-.56-1.263-.897-.71-.608-.974-1.375-1.032-2.28-.06-.933-.058-2.807.199-3.668.023-.08.051-.158.083-.234.032-.076.069-.151.109-.223.041-.072.085-.142.134-.209s.101-.132.156-.193c.889-.967,3.027-.799,4.245-.838-.348-.921-.37-1.689-.361-2.661-.175-.035-.35-.071-.524-.109-.938-.203-1.796-.594-2.319-1.445-.061-.099-.117-.202-.167-.307-.05-.106-.094-.214-.132-.324-.038-.11-.07-.223-.096-.337-.026-.114-.045-.229-.058-.345-.141-1.237-.028-2.982-.024-4.267l-.003-3.369c-.003-.947-.088-1.967.147-2.892.729-2.87,3.314-3.026,5.794-3.257,1.226-.114,2.453-.243,3.681-.336.518-.039,1.094.002,1.598-.119.528-.127,1.21-.623,1.729-.87,1.22-.58,2.535-1.032,3.692-1.731.63-.381.758-1.36.927-2.031.067-.193.175-.455.107-.655l-.121-.048-.212.096c-.472.261-1.033.462-1.565.555-.487.085-1.04.081-1.45-.233-.329-.251-.447-.615-.497-1.011l-.008-.068c-.749-.059-1.384-.012-2.102-.311-.585-.244-1.315-.759-1.539-1.367-.062-.169-.069-.347.025-.507.186-.315.589-.373.902-.488.207-.076.494-.21.562-.443.044-.15.004-.218-.06-.347-.199-.447-.645-.752-.968-1.109-.759-.838-1.1-1.917-1.404-2.982-.044-.24-.089-.554-.202-.768-.504-.957-1.565-1.121-2.015-2.625-.345-1.149-.081-2.191.453-3.223-.758-.537-1.435-1.151-1.869-1.985-.263-.505-.746-1.925-.527-2.451.227-.545,1.344-.125,1.814-.156.322-.021.597-.141.885-.273-.544-.293-1.054-.69-1.437-1.178-.521-.664-.788-1.678-.662-2.52.03-.199.097-.472.286-.581.336-.193.791.146,1.119.238.495.139,1.059-.04,1.492-.282,1.785-.998,1.671-2.732,2.157-4.45.769-2.717,2.827-4.896,5.561-5.658.778-.217,1.655-.213,2.363-.616l.068-.04ZM35.517,70.196c-.67.291-1.214.775-1.859,1.091-.359.176-.765.283-1.148.391-1.852.524-3.664.377-5.46-.324-.858-.335-1.616-1.006-2.53-1.178l-.073.046c.089.159.223.261.366.369,1.679,1.268,3.459,2.431,5.189,3.63,1.129.783,2.238,1.646,3.394,2.381.2.127.422.256.653.313.381.095,3.372-.159,3.831-.29.908-.052,1.814-.172,2.72-.256l7.462-.738c2.394-.208,4.786-.44,7.176-.696,1.093-.112,2.217-.176,3.301-.349-1.663-.928-3.255-1.987-4.88-2.98-.61-.373-1.228-.793-1.867-1.114-.862.615-2.643,2.138-3.694,1.975-.302-.047-.457-.247-.638-.473-.501.133-.934.167-1.45.135-.289-.176-.525-.353-.77-.589-.59.125-1.164.274-1.713-.069-.267-.167-.492-.443-.69-.684-.584-.034-1.215-.081-1.633-.551-.269-.302-.352-.71-.32-1.104.047-.584.281-1.116.528-1.64-.111-.028-.187-.033-.301-.021-.704.037-1.915-.042-2.514.254l-.032.056c.061.04.178.094.224.145.408.456.834,2.058.966,2.678.095.445.388,1.801.142,2.183-.097.151-.161.167-.322.229-.856-.07-3.315-2.192-4.06-2.821Z"/>
  <path class="st6" d="M49.419,14.027c1.291.749,2.113,2.104,2.616,3.472.443,1.206.684,2.535.747,3.817.14,2.846-.311,5.741-.666,8.559-.256,2.034-.459,4.101-.926,6.099-.114.49-.253.974-.415,1.451-.162.477-.347.944-.556,1.403-1.493,3.206-4.46,6.073-7.807,7.267-3.396,1.211-7.196.627-10.388-.907-3.157-1.517-6.042-3.886-7.608-7.075-.529-1.078-.859-2.199-1.254-3.327-.044-.111-.092-.221-.144-.329-.274-.578-.705-1.322-1.352-1.521-.24-.074-.498-.06-.714.075-.358.224-.522.611-.619,1.003-.614-.291-1.11-.687-1.509-1.237-.866-1.196-1.288-3.311-1.025-4.755.056-.307.175-.709.468-.873.59-.329,1.324.768,1.762,1.071.199.138.467.192.699.254-.172.683-.348,1.471-.137,2.165.081.266.264.593.537.702.153.061.284.08.437.012.516-.227-.071-1.119-.092-1.487-.019-.328.188-.774.29-1.087.537-.112,1.046-.233,1.55-.455,2.597-1.146,3.924-3.441,4.912-5.97.867-.254,1.772-.411,2.603-.776.587-.258,1.113-.762,1.723-.938.081.174.137.422.284.544.638.532,2.085.489,2.867.404,2.586-.282,5.3-1.756,6.923-3.787-.182.538-.457,1.04-.636,1.577-.076.228-.165.481-.04.708.079.142.209.232.363.273.927.244,2.732-.587,3.51-1.071,1.956-1.215,3.08-3.044,3.595-5.258Z"/>
  <path class="st8" d="M33.525,37.084c.174-.014.439-.026.534.16.071.139.071.423.127.587.181.529.902,1.023,1.344,1.336,1.954,1.384,4.89,2.201,7.113.989.487-.266.951-.858,1.485-.951.079.037.167.059.22.132.089.123.116.305.091.453-.075.448-.565.757-.897,1.015-1.438.97-3.155,1.157-4.839.854-2.139-.385-4.055-1.355-5.319-3.163-.052.071-.103.143-.16.211-.117.14-.318.273-.51.261-.14-.008-.245-.081-.311-.204-.064-.12-.057-.283-.029-.412.129-.58.684-.96,1.148-1.268Z"/>
  <path class="st5" d="M41.974,32.158c.118.003.233.015.351.026.096.049.145.096.199.187.19.321.297.708.459,1.046.231.484.525.938.766,1.417.328.653.494,1.409.234,2.116-.196.532-.66.886-1.162,1.114-1.042.473-2.356.431-3.41.026-.143-.082-.301-.168-.431-.268-.107-.082-.193-.207-.2-.346-.007-.151.034-.198.122-.307.581-.284,1.608.266,2.283.275.501.006,1.356-.2,1.699-.572.929-1.008-1.101-2.962-1.14-4.133-.008-.253.067-.396.231-.582Z"/>
  <path class="st5" d="M34.87,23.25c1.103-.159,2.469-.007,3.442.563.284.167.625.364.7.709.04.187-.011.298-.114.449-.159.104-.279.132-.464.096-.287-.055-.574-.262-.836-.391-.826-.405-1.716-.434-2.615-.345-1.198.166-1.792.68-2.809,1.214-.226.119-.473.246-.729.137-.148-.063-.174-.114-.235-.25.004-.15.01-.256.101-.385.647-.915,2.463-1.639,3.56-1.799Z"/>
  <path class="st5" d="M31.774,29.35c.647.126,1.102.907,1.711,1.211.889.443,2.177.571,2.994-.064.287-.223.64-.758.984-.843.08-.02.214.041.284.086.134.086.209.183.247.338.075.308-.119.589-.284.827-.062.07-.123.139-.19.204-.699.685-1.668.958-2.629.935-1.161-.028-2.35-.469-3.145-1.34-.203-.222-.363-.489-.333-.8.025-.263.166-.395.361-.555Z"/>
  <path class="st5" d="M44.437,29.915c.118.003.249.002.351.071.478.321.633.899,1.301,1.242.274.14.611.192.914.226,1.593.178,1.432-.698,2.415-.942.181-.045.282,0,.433.097.069.109.108.19.124.32.034.276-.096.421-.253.629-.077.081-.156.16-.241.233-.704.609-1.641.851-2.558.788-.956-.066-1.88-.473-2.502-1.215-.222-.265-.366-.532-.329-.886.029-.276.133-.394.343-.563Z"/>
  <path class="st5" d="M46.856,23.867c.458-.039.902-.019,1.351.079.934.205,2.557,1.023,3.035,1.867.094.165.076.274.022.448-.138.15-.311.288-.527.293-.37.007-.799-.496-1.062-.735l-.045-.036c-.744-.59-1.868-1.034-2.812-.738-.444.14-.89.416-1.361.451-.192.014-.326-.012-.47-.144-.041-.177-.034-.288.06-.448.355-.607,1.171-.861,1.807-1.037Z"/>
  <path class="st1" d="M24.91,40.945c.599.684,1.189,1.368,1.863,1.98,2.937,2.662,6.883,4.513,10.849,4.783,1.18.081,2.297-.041,3.459-.225.342-.103.849-.323,1.206-.251-.017.107-.037.139-.088.231-.053.097-.087.152-.078.267.153-.194.29-.401.432-.604.709-.27,1.403-.57,2.067-.938.548-.303,1.072-.65,1.637-.921,1.252.501,2.366,1.524,3.309,2.475,2.486,2.508,7.188,9.843,7.153,13.449-.017,1.751-.914,3.503-2.149,4.714-.111-.351-.223-.703-.382-1.035-.592-1.236-1.756-2.167-3.043-2.6-1.215-.409-2.429-.373-3.582.192.676-1.309,1.584-2.196,2.875-2.909.369-.204.777-.349,1.133-.575.164-.104.23-.195.268-.39-.038-.104-.037-.138-.124-.215-.951-.831-3.29,1.742-3.916,1.771-.263-.327.018-1.688.013-2.18-.015-1.412-.515-2.607-.861-3.946-.163-.631-.246-1.319-.46-1.931-.087-.249-.193-.454-.437-.574-.151.016-.185.024-.29.149-.609.726.729,3.965.931,4.894.414,1.9-.308,3.268-1.192,4.896-.399.736-.793,1.484-1.242,2.19-1.838.084-4.485.212-6.27.594-.786-1.358-1.317-1.879-2.785-2.461-.549-.628-.942-1.458-1.362-2.177l-2.451-4.198c-.627-1.097-1.595-2.998-2.416-3.884-.055-.061-.114-.118-.176-.171-.062-.054-.127-.103-.195-.149-.068-.046-.138-.087-.211-.124-.073-.037-.148-.07-.225-.098-.058-.022-.118-.04-.178-.056-.06-.016-.121-.028-.182-.038-.061-.01-.123-.016-.185-.019-.062-.003-.124-.004-.186,0-.062.003-.124.009-.185.018-.062.009-.122.021-.183.037-.06.015-.12.034-.178.055-.058.021-.116.045-.172.072-.44.211-.878.63-1.032,1.103-.139.431-.017.969.133,1.383.426,1.178,1.215,2.314,1.843,3.398.839,1.454,1.652,2.923,2.438,4.406-.824.194-1.592.522-2.388.803-1.473-.759-3.771-1.389-5.381-1.932-.553-.187-1.123-.354-1.654-.598.507-1.507,2.146-5.343,2.051-6.709-.013-.19-.056-.309-.207-.435-.148-.032-.262-.052-.41-.005-.178.057-.224.172-.285.329-.202.522-.295,1.142-.447,1.686-.31,1.108-.72,2.185-1.101,3.27-.181.514-.328,1.104-.593,1.58-.008.015-.017.03-.026.045-.732-.184-1.485-.33-2.242-.346-.701-.015-1.807.083-2.303.632-.11.122-.11.193-.101.35.287.48.556.328,1.025.221.521-.119,1.002-.239,1.541-.211,1.564.08,3.093.697,4.567,1.18,1.436.471,2.871.953,4.313,1.403-.968.606-1.645,1.177-2.139,2.233-.701,1.498-.658,2.892-.1,4.417-1.869-.273-3.728-.598-5.579-.976-.928-.185-1.867-.353-2.78-.604-1.842-.507-3.702-1.251-4.673-3.003-1.131-2.04-.413-5.254.202-7.408.695-2.437,2.615-7.125,4.141-9.057.175-.219.36-.43.554-.632.194-.202.397-.395.609-.579.212-.184.431-.358.659-.522.227-.164.462-.317.703-.46,1.742-1.03,3.698-1.658,5.466-2.638.197-.191.397-.379.6-.564.459-.564.705-1.129.783-1.855Z"/>
  <path class="st1" d="M24.91,40.945c.599.684,1.189,1.368,1.863,1.98,2.937,2.662,6.883,4.513,10.849,4.783,1.18.081,2.297-.041,3.459-.225.043.004.089.028.129.044l-.025.065c-.604.309-1.231.761-1.873.97-4.593,1.493-10.096-.305-13.415-3.702-.362-.37-1.34-1.909-1.688-2.034-.027-.01-.054-.017-.082-.025.459-.564.705-1.129.783-1.855Z"/>
  <path class="st8" d="M23.527,43.364c.197-.191.397-.379.6-.564.027.008.055.015.082.025.348.126,1.326,1.664,1.688,2.034,3.319,3.397,8.821,5.195,13.415,3.702.642-.209,1.269-.661,1.873-.97l.025-.065c-.04-.016-.086-.04-.129-.044.342-.103.849-.323,1.206-.251-.017.107-.037.139-.088.231-.053.097-.087.152-.078.267-.568.992-2.148,1.719-3.204,2.007-3.618.986-7.433.154-10.637-1.675-.652-.372-1.295-.779-1.885-1.244-.694-.546-2.654-2.476-2.823-3.268-.005-.024-.004-.049-.01-.073-.009-.038-.024-.074-.036-.111Z"/>
  <path class="st9" d="M34.343,2.522c.951-.069,2.021.07,2.939.317.56.15,1.11.365,1.687.443.789.107,1.615.101,2.411.151.974.069,1.935.218,2.884.448,1.557.377,2.97,1.163,3.825,2.557.387.085.798.092,1.191.15,1.275.189,2.456.529,3.559,1.214,1.147.712,2.128,1.835,2.485,3.159.153.567.204,1.162.34,1.735,1.264.536,2.37,1.519,2.89,2.809.503,1.249.321,3.023-.492,4.117-.387.519-1.03,1.037-1.265,1.641-.135.346.258,1.732.432,2.085.389.788.922,1.154,1.728,1.426-.172.336-.347.632-.61.908-.611.64-1.555,1.145-2.45,1.176-.311.011-.619-.046-.932-.04-.073.052-.135.075-.172.161-.107.257.108.611.211.848-.033.233-.061.472-.136.696-.289.861-1.044,1.343-1.813,1.73.203-.779.259-1.614.353-2.413.208-1.76.381-3.507.435-5.28.301-.082.568-.193.843-.337.952-.5,1.468-1.117,1.78-2.153.269-.894.31-1.762-.155-2.607-.252-.458-.796-1.232-1.331-1.343-.157-.033-.219-.003-.349.079-.168.515.776,1.275,1.005,1.815.255.6.222,1.319-.021,1.918-.301.739-.989,1.37-1.714,1.68l-.077.032c.054-1.062-.099-2.191-.376-3.216-.461-1.707-1.321-3.632-2.723-4.778-.393-.321-.867-.567-1.307-.82-.077-.538-.247-1.009-.392-1.526-.026-.093-.046-.193-.094-.278-.126-.222-.391-.424-.642-.477-.177-.037-.292,0-.435.1-.166.378.33,1.258.429,1.723.302,1.417-.238,2.904-1.011,4.081-.916,1.394-2.381,2.526-4.024,2.87.214-.701.812-1.864.58-2.595-.058-.181-.2-.224-.353-.319.006-.08.016-.145.057-.215.05-.085.104-.168.152-.254.428-.755.775-2.801.512-3.65-.053-.172-.15-.338-.326-.409-.128-.051-.229-.038-.356.001-.085.088-.106.159-.13.276-.082.411-.074.852-.111,1.27-.048.539-.171,1.076-.319,1.595-.549,1.933-2.269,3.471-3.978,4.406-1.504.823-3.679,1.554-5.389,1.049.995-1.04,2.038-1.905,2.525-3.31.113-.33.314-1.074.137-1.388-.08-.142-.135-.148-.28-.2-.41.076-.511.638-.664.983-.47,1.062-1.392,1.99-2.317,2.668-1.27.93-2.5,1.492-4.028,1.845-.425.098-.899.21-1.337.206-.465-.004-.963-.181-1.427-.25-.152-.023-.369-.058-.508.025-.321.19-.734,1.426-1.471,1.953-.79.566-1.923.704-2.777.221-.36-.203-.761-.563-1.17-.633-.142.085-.139.081-.19.238.062.348.181.646.456.882.552.475,1.546.579,2.25.537,1.882-.113,2.481-1.053,3.636-2.37.264.035.528.066.793.093-.045.159-.094.316-.147.472-.053.156-.111.311-.172.464-.062.153-.127.304-.197.454-.07.15-.143.297-.221.443-.078.146-.159.289-.244.43s-.174.28-.267.417c-.093.137-.189.27-.289.402-.1.131-.203.26-.31.386-.909,1.08-2.287,2.184-3.754,2.282-.428.029-.913-.033-1.243-.326-.181-.463.34-.621.368-1.046l-.108-.107c-.284-.102-2.11-.153-2.486-.112-.396.044-.633.154-.875.481-.658.891-.588,2.614-.421,3.652.179,1.121.517,2.488,1.319,3.328.385.404.843.741,1.248,1.126.448.426.882.96,1.393,1.308.561.381,1.06.493,1.724.355l.542,1.419c.127.336.238.725.068,1.067-.129.26-.378.422-.649.507-.316.099-.684.179-.99.022-.301-.455.133-.905-.014-1.373-.021-.065-.096-.134-.16-.158-.518-.192-2.096.402-3.034-.091-.137-.072-.253-.181-.288-.337-.049-.214.704-.695.851-.958.293-.525.102-1.062-.061-1.59-1.412-1.364-1.73-1.907-2.337-3.79-.132-.411-.177-.882-.393-1.26-.366-.638-1.139-.821-1.533-1.421-.23-.349-.307-.784-.331-1.195-.12-2.04,1.155-2.004,1.343-2.849-.173-.201-.996-.358-1.276-.505-.975-.513-1.552-1.575-1.847-2.593l.059.002c1.105.029,2.075-.092,2.897-.909.191-.19.318-.371.32-.648-.047-.101-.053-.138-.144-.21-.228-.179-.453-.149-.727-.123-.084-.045-.166-.089-.246-.14-.85-.548-1.365-1.351-1.574-2.33.377.007.762.026,1.138-.001,1.583-.114,2.939-1.317,3.419-2.799.289-.89.33-1.858.61-2.761.296-.957.758-1.843,1.419-2.6.935-1.07,2.322-2.006,3.734-2.267.67-.124,1.338-.168,1.969-.442.744-.323,1.335-.885,2.018-1.31,2.161-1.345,4.492-2.056,7.025-2.224Z"/>
  <path class="st5" d="M35.14,5.385c.407-.023.81-.03,1.217-.002.521.036,2.032.302,2.319.748.074.115.109.226.064.362-.089.268-.311.278-.547.242-2.079-.324-3.332-.652-5.355.222-3.33,1.438-3.244,4.956-6.71,6.21-.727.212-2.737.6-3.394.194-.11-.068-.2-.156-.215-.292-.015-.139.026-.296.122-.4.259-.282,1.363-.101,1.769-.133,1.789-.141,3.137-1.097,4.061-2.604.418-.681.751-1.404,1.274-2.016,1.347-1.573,3.36-2.38,5.394-2.531Z"/>
  <path class="st5" d="M38.521,9.051c.288-.024.58-.027.867.011.144.019.299.062.379.195.067.112.104.268.06.395-.055.158-.169.21-.321.25-.391.103-.806.066-1.205.109-.947.103-1.879.932-2.517,1.589-2.16,2.225-2.043,4.858-5.133,6.729-1.399.847-3.028,1.189-4.625.804-.004-.003-.009-.006-.014-.009-.247-.158-.408-.298-.515-.578-.079-.208-.183-.573-.047-.777.098-.147.271-.152.428-.161.288.117.335.47.548.674.226.217.768.176,1.066.154.768-.057,1.522-.321,2.203-.672,2.953-1.523,3.239-4.591,5.241-6.877.968-1.105,2.115-1.744,3.586-1.837Z"/>
  <path class="st7" d="M8.374,73.934c1.36.821,2.675,1.724,4.009,2.588,3.142,2.052,6.298,4.083,9.469,6.09,1.245.778,2.486,1.856,3.892,2.309.664.214,1.436.222,2.125.189,2.664-.131,5.342-.44,8-.671l17.215-1.533,12.526-1.081c1.841-.167,3.747-.208,5.566-.522-.004,1.054.149,2.259-.012,3.293-.1.639-.356,1.036-.872,1.417-.299.143-.602.256-.932.302-2.709.372-5.471.564-8.194.833l-15.192,1.559c-4.408.486-8.82.942-13.235,1.368l-3.489.33c-.775.069-1.614.192-2.389.116-.588-.057-1.244-.289-1.752-.588-2.431-1.434-4.718-3.2-7.048-4.796l-4.849-3.322c-1.319-.888-2.668-1.747-3.951-2.688-.308-.226-.69-.494-.922-.801-.392-.52-.04-3.601.035-4.391Z"/>
  <path class="st5" d="M26.156,85.641c.028,0,.055-.002.083-.001.223.003.288.035.435.191.188.616.082,2.552-.006,3.253-.039.309-.091.449-.342.641-.184-.046-.322-.09-.483-.192-.12-.146-.118-.283-.117-.464.007-.754.009-2.42.197-3.089.04-.142.129-.238.231-.339Z"/>
  <path class="st2" d="M6.272,67.363c.237.18.431.404.677.581.722.519,1.497.979,2.248,1.455,1.339.861,2.689,1.706,4.049,2.533l4.968,3.135,3.605,2.271c1.377.869,2.829,1.98,4.414,2.404.907.242,1.893.217,2.825.181,2.49-.097,4.994-.369,7.478-.569l16.403-1.408,11.979-1.017c2.21-.188,4.48-.281,6.671-.623.846-.132,1.502-.378,2.242-.805-.156,1.178-.095,2.558-.662,3.625-.116.168-.253.318-.411.448-.564.471-1.26.711-1.978.82-.854.13-1.734.165-2.594.234-1.327.107-2.653.222-3.979.344-4.979.454-9.959.88-14.943,1.28l-15.268,1.373-3.548.326c-1.268.121-2.671.357-3.934.164-.563-.086-1.249-.498-1.736-.784-1-.587-1.965-1.262-2.94-1.891l-5.319-3.418c-2.125-1.354-4.242-2.719-6.352-4.096-.907-.589-1.847-1.143-2.731-1.766-.325-.229-.732-.518-.961-.848-.611-.887-.373-2.938-.204-3.946Z"/>
  <path class="st5" d="M26.799,80.424c.131.013.258.032.367.114.191.145.21.519.216.737.018.632.036,1.942-.391,2.404-.175-.011-.33-.016-.449-.168-.168-.215-.17-.581-.166-.844.009-.645-.061-1.78.424-2.243Z"/>
  <path class="st2" d="M56.854,64.272c.057.016.11.034.164.058,1.479.642,2.899,1.488,4.299,2.286l4.602,2.605,4.884,2.784c.801.46,1.665.894,2.424,1.419.195.135.552.392.611.64.036.151.026.237-.056.369-.276.443-1.138.696-1.625.809-1.401.324-3.733.388-5.245.52-4.051.355-8.104.69-12.158,1.005l-19.176,1.661c-1.653.135-7.563.753-8.803.46-1.589-.376-6.094-3.446-7.728-4.472l-6.681-4.17c-1.706-1.086-3.453-2.115-5.147-3.217-.245-.159-.601-.406-.664-.707.022-.045.029-.068.071-.105.537-.478,3.253-.431,3.989-.453,3.043,3.359,7.707,3.277,11.821,4.175.616.715,1.546,1.256,2.315,1.802l4.48,3.109c1.297.9,2.836,2.154,4.196,2.851.029.015.057.03.086.045.362.177,1,.11,1.399.084,1.775-.117,3.549-.322,5.32-.486,4.375-.41,8.748-.844,13.118-1.302l4.449-.439c.639-.066,1.535-.059,2.125-.292.144-.057.306-.236.352-.385.042-.139-.004-.26-.083-.373-.329-.469-5.192-3.265-6.017-3.767-.361-.22-.751-.539-1.129-.713-.108-.05-.205-.043-.31-.078-.074-.025-.128-.044-.159-.114.083-.243.917-.813,1.143-1.081.426-.504.672-1.112.918-1.717,1.058-.803,1.56-1.672,2.215-2.809Z"/>
  <path class="st6" d="M55.172,88.721c.123-.011.124-.034.231.041.263.582.465,2.918.436,3.603-.273.391-.65.669-1.055.911-.99.593-2.11.98-3.2,1.343-6.355,2.118-16.095,2.791-22.616,1.18-.578-.127-1.145-.279-1.714-.44.111-1.276.159-2.573.195-3.853.831-.01,1.681-.105,2.51-.172,2.098-.187,4.195-.394,6.289-.621l18.923-1.993Z"/>
  <path class="st5" d="M42.921,74.355c.168.012.357.037.511.109.142.066.177.128.218.271-.052.167-.139.234-.267.341-.154.022-.281.041-.425-.044-.15-.09-.166-.156-.219-.311.015-.179.071-.235.182-.367Z"/>
  <path class="st5" d="M52.686,73.066c.013-.003.025-.005.038-.006.013-.002.026-.002.039-.003.013,0,.026,0,.039.001.013,0,.026.002.038.005s.025.005.038.008c.012.003.025.007.037.012.012.005.024.01.036.016.012.006.023.012.034.019.011.007.022.014.032.022.01.008.02.016.03.025.009.009.018.018.027.028.009.01.017.02.024.03.008.01.015.021.021.032.006.011.012.023.018.034.005.012.01.024.015.036s.008.025.011.037c.003.013.006.025.007.038.002.013.003.026.004.039,0,.013,0,.026,0,.039,0,.013-.002.026-.004.039-.002.013-.004.026-.007.038-.003.013-.007.025-.011.037-.004.012-.009.024-.015.036-.006.012-.011.023-.018.034-.007.011-.014.022-.021.032-.008.011-.016.021-.024.03-.009.01-.018.019-.027.028-.009.009-.019.017-.03.025-.01.008-.021.015-.032.022-.011.007-.022.013-.034.019s-.023.011-.036.016c-.012.005-.024.009-.037.012-.017.005-.035.008-.052.011-.018.002-.036.004-.053.004s-.036-.001-.053-.003c-.018-.002-.035-.006-.052-.011-.017-.005-.034-.01-.051-.017-.016-.007-.032-.015-.048-.024-.015-.009-.03-.019-.044-.03-.014-.011-.027-.023-.04-.036-.013-.013-.024-.026-.035-.041-.011-.014-.02-.029-.029-.045-.009-.016-.016-.032-.023-.048-.007-.017-.012-.034-.016-.051-.004-.017-.007-.035-.009-.053-.002-.018-.003-.036-.002-.053,0-.018.002-.036.005-.053.003-.018.007-.035.012-.052s.011-.034.019-.05c.007-.016.016-.032.025-.047.009-.015.02-.03.031-.043.011-.014.024-.027.037-.039.013-.012.027-.023.042-.034.015-.01.03-.02.046-.028.016-.008.032-.015.049-.022.017-.006.034-.011.051-.015Z"/>
  <path class="st5" d="M50.939,73.619c.124.033.209.075.317.145.077.14.077.16.067.321-.098.169-.163.236-.325.345-.107-.028-.266-.083-.347-.165-.112-.114-.108-.156-.109-.305.094-.191.214-.244.397-.341Z"/>
  <path class="st5" d="M48.067,73.966c.126.002.29.002.41.042.142.048.187.112.244.243-.023.185-.096.267-.211.403-.101.008-.217.023-.318.01-.145-.019-.202-.094-.279-.207-.017-.21.049-.313.153-.491Z"/>
  <path class="st5" d="M40.099,74.665c.152-.017.365-.048.512.004.144.051.161.078.221.206-.032.185-.096.265-.214.401-.094.027-.198.054-.296.041-.143-.019-.222-.111-.304-.217-.026-.216-.007-.246.081-.436Z"/>
  <path class="st5" d="M34.806,74.995c.107.004.269.006.365.055.148.074.161.116.211.262-.035.187-.126.266-.255.393-.114-.003-.291-.012-.394-.07-.132-.075-.15-.114-.196-.248.06-.202.122-.246.269-.392Z"/>
  <path class="st5" d="M50.938,71.895c.107.036.245.085.322.171.103.114.082.194.066.331-.112.166-.178.202-.364.278-.087-.029-.235-.064-.305-.128-.121-.108-.117-.155-.119-.305.097-.187.219-.247.4-.348Z"/>
  <path class="st5" d="M37.601,74.784c.016-.007.031-.013.048-.018.016-.005.033-.009.05-.012.017-.003.034-.005.051-.005.017,0,.034,0,.051.002.017.002.034.005.05.008.017.004.033.009.049.015.016.006.031.013.046.022.015.008.029.017.043.028.014.01.027.021.039.033s.024.025.034.038c.011.013.02.028.029.042.009.015.016.03.023.046.007.016.012.032.016.048s.008.033.01.05.003.034.003.051c0,.017-.001.034-.004.051-.002.017-.006.034-.011.05-.005.016-.01.032-.017.048-.007.016-.015.031-.024.045-.009.015-.019.029-.029.042-.011.013-.022.026-.035.038-.012.012-.026.023-.04.033-.014.01-.028.019-.043.027-.015.008-.031.015-.047.021-.011.004-.023.008-.035.011-.012.003-.024.006-.036.008-.012.002-.024.003-.036.004-.012,0-.024,0-.036,0-.012,0-.024-.001-.036-.003-.012-.001-.024-.004-.036-.006s-.024-.006-.035-.01c-.012-.004-.023-.008-.034-.013-.011-.005-.022-.01-.033-.016-.011-.006-.021-.012-.031-.019-.01-.007-.02-.014-.029-.022-.009-.008-.018-.016-.027-.025-.009-.009-.017-.018-.024-.027-.008-.009-.015-.019-.022-.029-.007-.01-.013-.02-.019-.031-.006-.011-.011-.022-.016-.033-.005-.011-.009-.023-.012-.034-.004-.012-.007-.023-.009-.035-.003-.012-.004-.024-.006-.036-.001-.012-.002-.024-.002-.036s0-.024.001-.036c0-.012.003-.024.005-.036.002-.012.005-.024.008-.035.003-.012.007-.023.011-.035.004-.011.009-.022.015-.033.005-.011.011-.021.018-.032.006-.01.013-.02.021-.03.007-.01.015-.019.023-.028.008-.009.017-.017.026-.025.009-.008.019-.016.028-.023.01-.007.02-.014.03-.02s.021-.012.032-.017Z"/>
  <path class="st5" d="M45.448,74.2c.122-.003.283-.011.398.03.142.051.153.118.191.246-.04.194-.14.301-.262.447-.107.008-.229.005-.327-.044-.134-.067-.15-.142-.195-.272.024-.195.069-.258.194-.409Z"/>
  <path class="st5" d="M36.084,73.015c.015-.008.031-.015.047-.021.016-.006.032-.01.049-.014.017-.004.033-.006.051-.007.017-.001.034-.001.051,0,.017,0,.034.003.051.006.017.003.033.008.049.013.016.006.032.012.047.02.015.008.03.016.044.026.014.01.027.02.04.032.013.011.024.024.035.037.011.013.021.027.03.041.009.014.017.029.024.045.007.015.013.031.018.048.005.016.009.033.011.05.003.017.004.034.005.051,0,.017,0,.034-.002.051-.002.017-.005.034-.009.05-.004.016-.009.033-.016.048-.006.016-.014.031-.022.046-.008.015-.018.029-.028.043-.01.014-.021.026-.034.038-.012.012-.025.023-.039.033-.014.01-.028.02-.043.028-.015.008-.03.016-.046.022-.011.004-.022.008-.034.012-.012.003-.023.006-.035.008-.012.002-.024.004-.035.005-.012.001-.024.002-.036.002-.012,0-.024,0-.036-.002-.012-.001-.024-.003-.035-.005-.012-.002-.023-.005-.035-.009-.011-.003-.023-.007-.034-.012-.011-.005-.022-.01-.032-.015-.011-.005-.021-.011-.031-.018-.01-.006-.02-.013-.029-.021-.009-.007-.018-.015-.027-.023-.009-.008-.017-.017-.025-.026-.008-.009-.015-.018-.022-.028-.007-.01-.013-.02-.019-.03-.006-.01-.011-.021-.016-.032s-.009-.022-.013-.033c-.004-.011-.007-.023-.01-.034-.003-.012-.005-.023-.007-.035-.002-.012-.003-.024-.003-.036,0-.012,0-.024,0-.036,0-.012.002-.024.003-.036.002-.012.004-.024.007-.035.003-.012.006-.023.01-.034.004-.011.008-.022.013-.033.005-.011.01-.021.016-.032.006-.01.012-.02.019-.03.007-.01.014-.019.022-.028.008-.009.016-.018.025-.026.009-.008.018-.016.027-.023.009-.007.019-.014.029-.021.01-.006.02-.012.031-.018Z"/>
  <path class="st5" d="M41.542,72.572c.086.023.216.056.289.111.111.085.113.128.128.256-.062.206-.202.324-.35.474-.077-.031-.194-.067-.257-.12-.126-.106-.127-.167-.141-.317.075-.196.169-.274.332-.403Z"/>
  <path class="st5" d="M44.022,72.702c.1.001.24-.006.335.029.143.052.155.134.194.262-.04.204-.129.305-.262.461-.086-.023-.18-.044-.26-.082-.144-.068-.189-.14-.249-.281.047-.194.11-.244.242-.389Z"/>
  <path class="st5" d="M33.861,73.218c.142.024.238.061.365.128.071.115.121.164.076.306-.053.167-.217.256-.356.342-.071-.027-.163-.071-.225-.118-.122-.09-.148-.158-.174-.302.083-.195.15-.23.314-.357Z"/>
  <path class="st5" d="M46.605,72.76c.08.024.159.07.234.107.074.113.13.168.088.311-.046.155-.169.229-.295.309-.113-.037-.253-.079-.341-.164-.114-.11-.11-.159-.099-.302.103-.16.244-.196.412-.262Z"/>
  <path class="st3" d="M38.311,73.097c.065.003.169,0,.234.02.134.04.166.078.243.185-.021.171-.033.195-.139.331-.161-.041-.225-.082-.341-.201-.052-.166-.054-.172.003-.336Z"/>
  <path class="st6" d="M31.181,97.25c2.06.362,4.257.44,6.347.439-.107.764-.231,1.537-.246,2.309-.01.49.035.986.254,1.432.311.633.851,1.154,1.33,1.661.914.969,1.845,1.897,2.826,2.798.584.536,1.237,1.038,1.777,1.614.273.291.661.813.609,1.238-.019.158-.1.286-.227.379-.96.698-1.487-1.323-2.38-1.456-.158-.023-.28-.005-.409.087-.033.615.928,1.058.913,1.729-.003.159-.048.249-.169.353-.152.13-.383.173-.575.151-.175-.09-.237-.209-.334-.371-.218-.397-.486-.836-.858-1.105-.216-.156-.607-.325-.878-.26-.095.023-.106.076-.159.151.013.523.658.721.882,1.162.088.173.135.416.057.601-.058.138-.162.208-.299.255-.786.272-.995-1.187-1.74-1.536-.191-.09-.521-.147-.718-.056-.07.032-.058.079-.075.147.081.238.236.407.39.599.19.235.444.47.409.791-.122.107-.203.138-.366.153-1.408.13-3.39-2.922-4.346-3.84-.571-.549-1.284-.91-1.868-1.437-1.415-1.277-.177-3.116-.046-4.627.099-1.137-.022-2.229-.1-3.359Z"/>
  <path class="st6" d="M49.827,96.155c.132.11-.521,2.07-.348,2.845.068.307.215.575.412.818.737.909,2.747,2.438,3.748,3.115.483.327,1.006.592,1.489.917.29.195.699.54.73.917.014.172-.033.358-.152.477-.277-.097-.534-.537-.754-.751-.185-.181-.431-.335-.7-.313-.174.014-.311.079-.418.218.013.492.789.74,1.015,1.194.066.132.105.343.036.48-.076.152-.28.273-.44.301-.424-.307-.646-.981-1.205-1.379-.154-.11-.357-.216-.551-.161-.21.059-.316.257-.418.431.088.296,1.032.831,1.255,1.358.059.14.069.297-.001.436-.126.251-.417.318-.661.404-.221-.437-.455-.794-.798-1.145-.275-.226-.632-.471-1.003-.468-.175.001-.297.047-.419.169.079.673,1.304,1.018,1.329,1.733.003.086-.044.159-.111.212-.122.096-.342.138-.495.14-.469.006-.95-.264-1.338-.508-1.249-.787-2.249-1.915-3.458-2.764-.941-.661-2.162-1.119-2.964-1.94-.252-.258-.467-.601-.508-.967-.105-.935.451-2.025.677-2.939.146-.589.209-1.135.214-1.741,1.822-.086,4.065-.628,5.836-1.086Z"/>
  <path class="st6" d="M31.012,62.082c.17-.023.358-.021.53-.025,1.278-.024,2.764,1.07,3.634,1.918.663.646,2.08,2.33,2.054,3.286-.008.308-.216.656-.445.854-.141.122-.25.139-.431.128-.46-.483-.732-1.209-1.173-1.739-.562-.676-1.68-1.95-2.628-2-.178-.009-.276.03-.407.146-.045.189.057.335.178.471.309.349.759.616,1.115.918.663.562,1.729,1.675,1.817,2.584.028.292-.072.574-.272.789-.101.109-.234.175-.386.161-.357-.033-.775-.739-1.001-1.018-.454-.561-1.9-2.162-2.658-2.156-.169.001-.203.033-.328.134-.041.103-.061.181-.047.292.036.29.234.409.45.576.781.556,2.16,1.54,2.417,2.497.04.148.038.3-.043.434-.092.151-.243.272-.421.303-.138.024-.231.021-.359-.042-.635-.311-1.721-1.446-2.542-1.913-.255-.145-.452-.231-.742-.155-.136.111-.158.127-.214.291.032.21.094.332.239.489.41.443,1.725,1.315,2.264,1.726-1.749.317-3.988-.232-5.435-1.249-.695-.488-1.238-1.129-1.379-1.992-.177-1.089.122-2.305.775-3.191.071-.098.146-.192.227-.282.08-.09.165-.176.253-.258.089-.082.181-.159.278-.232.096-.073.196-.14.299-.203.655-.391,3.61-1.424,4.379-1.541Z"/>
  <path class="st6" d="M48.962,63.001c.834-.034,1.555.046,2.316.407.994.472,1.908,1.259,2.259,2.333.206.629.11,1.301-.205,1.877-.574,1.049-3.891,3.588-5.01,3.925-.078-.402.901-1.944,1.173-2.324.305-.426.854-.818.93-1.359.025-.181-.021-.259-.125-.393-.106-.028-.14-.049-.252-.023-.809.182-1.829,2.035-2.244,2.746-.211.361-.698,1.014-1.14,1.07-.131.016-.237.001-.337-.093-.112-.106-.154-.285-.159-.434-.046-1.207,1.378-2.34,2.101-3.185.255-.297.433-.557.396-.962-.002-.017-.004-.035-.006-.052-.158-.078-.279-.132-.461-.074-.719.227-2.101,2.034-2.499,2.664-.198.313-.346.655-.523.98-.134.246-.396.642-.697.697-.188.035-.408-.01-.555-.139-.101-.089-.149-.211-.158-.343-.082-1.194,1.866-2.935,2.575-3.849.142-.183.228-.481.17-.71-.036-.144-.09-.194-.211-.269-.163,0-.263.042-.391.139-.511.387-1.704,1.894-2.098,2.464-.336.486-.603,1.036-.973,1.495-.073.09-.149.153-.264.185-.139.038-.285.014-.409-.059-.165-.098-.255-.264-.284-.45-.113-.738.644-1.826,1.086-2.38.397-.499.856-.932,1.294-1.392.357-.375.693-.803,1.094-1.131.961-.786,2.39-1.221,3.605-1.359Z"/>
  <path class="st2" d="M24.399,90.657c.712.314,1.291.644,2.062.83-.096.692-.094,1.416-.132,2.115l-.21,3.984-.516,9.169c-.059,1.125-.052,4.523-.463,5.364-.033.037-.066.073-.1.108-.204.21-.417.296-.711.293-.236-.002-.463-.076-.629-.25-.201-.21-.24-.46-.248-.739-.021-.658.067-1.342.102-2l.185-3.775c.24-5.027.575-10.068.66-15.1Z"/>
  <path class="st2" d="M9.517,80.582c.62.282,1.251.796,1.834,1.163-.271,1.926-.373,3.905-.541,5.843l-.78,8.633c-.109,1.282-.32,5.506-.728,6.46-.033.03-.067.059-.102.087-.18.147-.401.264-.641.233-.346-.045-.553-.296-.765-.548-.066-1.059.068-2.155.155-3.211l.38-4.458c.437-4.731.834-9.466,1.189-14.204Z"/>
  <path class="st2" d="M69.517,87.232l.047.022c.16.473.25,3.728.295,4.481l.497,8.663c.106,1.8.258,3.608.314,5.41.012.382.064.968-.093,1.321-.107.241-.275.43-.53.514-.358.119-.633.019-.956-.143-.175-.243-.229-.441-.267-.737-.115-.898-.132-1.827-.186-2.731l-.289-4.69c-.248-3.956-.58-7.931-.726-11.891.632-.059,1.264-.146,1.895-.219Z"/>
  <path class="st2" d="M13.839,47.997l.64-.026c-.612.954-1.074,1.978-1.56,2.999-1.425,2.997-2.476,5.736-3.049,9.016-.014.131-.035.232-.083.355l.014-.043-.047-.022c-.122-2.114-.072-4.234-.078-6.351-.004-1.237-.13-2.628.061-3.848.068-.434.212-.884.496-1.226.694-.833,2.634-.78,3.606-.855Z"/>
  <path class="st2" d="M16.206,46.055l.053-.004.018.052c-.274.244-.56.53-.899.678-.385.168-.841.171-1.255.205-1.441.118-3.619.031-4.652,1.221-.356.41-.575.905-.666,1.438-.233,1.363-.1,3.144-.1,4.565,0,2.257-.082,4.547.065,6.797-.282-.195-.547-.385-.798-.62-.351-.37-.545-.716-.594-1.229-.142-1.501-.011-3.085-.01-4.596l-.007-3.197c-.002-.696-.056-1.479.077-2.16.099-.505.372-1.004.702-1.396.383-.455.835-.775,1.395-.977.832-.3,1.791-.297,2.663-.387,1.335-.146,2.671-.276,4.009-.391Z"/>
  <path class="st7" d="M30.068,55.081c.429.48,1.073,1.846,1.428,2.462.845,1.467,1.76,2.906,2.572,4.39-.377-.251-.761-.453-1.174-.636-.627-.184-1.157-.264-1.812-.271-.453-.732-.832-1.53-1.251-2.283-.498-.894-1.043-1.771-1.5-2.686.602-.288,1.182-.605,1.738-.975Z"/>
  <path class="st2" d="M21.782,88.897c.58.373,1.174.786,1.704,1.228,0,1.885-.115,3.855-.239,5.738-.156,0-.313-.002-.469-.007-.336-.01-.621-.077-.852-.341-.207-.236-.272-.581-.308-.883-.089-.746.005-1.553.037-2.305l.128-3.431Z"/>
  <path class="st2" d="M43.272,64.606c.128-.022.209-.022.336.008-.446.596-1.223,1.567-1.85,1.96-1.013.037-2.041.09-3.049.189l-.205-.025c-.095-.167-.114-1.285-.221-1.683,1.634-.043,3.349-.318,4.989-.449Z"/>
  <path class="st0" d="M27.265,51.871c.172-.011.358-.033.523.028.594.221.901.872,1.157,1.406-.284.254-.586.442-.912.636-.244.122-.513.206-.769.3-.058-.078-.112-.155-.161-.239-.256-.438-.617-1.019-.457-1.544.092-.3.365-.44.619-.587Z"/>
  <path class="st6" d="M38.413,69.556c.416.525.497,1.451.577,2.092l-.459-.296c-.371-.271-.731-.545-1.081-.842.4-.275.668-.575.963-.954Z"/>
  <path class="st6" d="M37.65,68.236c.139.179.279.329.277.567-.002.222-.101.421-.266.567-.274.242-.623.312-.977.298-.136-.086-.228-.154-.334-.278.006-.293.605-.504.829-.681.171-.135.322-.313.471-.473Z"/>
  <path class="st7" d="M21.392,33.74c.056.038.054.035.114.088.294.259.639.827.604,1.238-.016.191-.044.197-.189.305-.127-.037-.255-.074-.376-.127-.199-.088-.372-.225-.44-.439-.121-.379.113-.746.287-1.065Z"/>
  <path class="st2" d="M29.395,53.929c.048.037.127.088.166.138.099.128.098.158.074.307-.355.453-1.117.694-1.649.873-.118-.018-.08.002-.171-.063-.087-.062-.056-.03-.078-.153.248-.409,1.195-.744,1.602-1.058.019-.014.037-.029.056-.044Z"/>
  <path class="st6" d="M46.941,60.773l.195.142c.059.138.06.235.036.38-.103.61-.492,1.032-.981,1.363l-.075.053-.059-.045c-.023-.535.606-1.447.884-1.892Z"/>
</svg>