<?xml version="1.0" encoding="UTF-8"?>
<svg id="Layer_1" xmlns="http://www.w3.org/2000/svg" version="1.1" viewBox="0 0 80 115">
  <!-- Generator: Adobe Illustrator 29.1.0, SVG Export Plug-In . SVG Version: 2.1.0 Build 142)  -->
  <path d="M15.5,1.7c3.3-.4,6.4,1.8,7.3,5C29.8.1,41.9.6,49,6.7c.6-.4,1.2-2.1,1.9-2.1.5.9,0,2-.7,2.7,5.7.5,8.6,7.1,7.7,12.2,0,.6,0,1.5-.8,1.7-.3-.2-.3-.9-.3-1.2-.2-1.3-.8-2.7-1.4-3.9.9,3.4,0,7.4-2.9,9.6-1.9,6.3-.4,9.8-6.5,14.3,1,.6,1.9,1.3,2.8,2.2,1.4,1.7,6.8,7.8,5.9,9.8,1.2,1.6,1.9,3.6,1.9,5.6,2.9.3,5.4,2.8,7.9,4.3,2.1,1.4,6.4,4,8.4,5.5.7.5,1.1.8,1.2,1.7,0,1,.2,3.6-.4,4.4-.6.7-1.5.9-2.4,1-.2,2,0,5.2-1.4,6.6.3,2,1.4,26,1.2,26.5-.6,1.2-3.2,1.2-3.6,0-.3-2.4-.6-15.6-.7-18.4-.2-2.3,0-4.7-.6-6.9-3.5,0-7,.5-10.4.9,0,4.3-.2,8.5-.3,12.8,0,1,.2,2.2-.4,3-.9.8-3.4.7-3.4-.9,0-4.8.3-9.8.3-14.6h-1.5c-.4,4.1-.8,8.2-1.3,12.4.9.6,1.3,1.2,1.4,2.3.2.2.5.4.7.6.7.6,2.3,1.7,2.4,2.6,2.3.6,4.2,2.8,3.9,5.2-.8,4.8-10.3,3.1-12.9,1,.3,1.7,0,2.9-1.8,3.5-.5.2-1.6.7-2.2.5-3.7,1.3-12-2.6-12.9-6.6-.2-1.8.5-3.8.9-5.5.2-1,.4-2.2,1.3-2.9.5-3.8.9-7.6,1.3-11.4-.8,0-4.1-.2-4.1,1-.3,7,0,14.1,0,21.1s.2,4.3,0,5.1c-.3.7-1.2.9-1.9.9-2.6,0-1.9-2.3-2-4-.1-7.8-.1-16.3,0-24.1-.8,0-1.7,0-2.4-.2-1.1-.4-5-3.9-6-4.8-.8,6.5-1,13.8-1.8,20.2-.6,1.3-3.2,1-3.7-.2.2-5.6,1.3-13.7,1.6-19.4.3-2.2,0-4.5,1-6.5-.6-1.4-.4-4.7-.4-6.4-.8-.8-1.8-1.2-2-2.4,0-2.4-.7-4.6,2.5-4.9v-3.7c-2.4-.4-3.1-2.1-3-4.4,0-3.1-.3-6.2,0-9.3.2-1.3,1.3-2.3,2.6-2.7,2.1-.6,7.4-1,9.7-1,.8-.5,1.5-1.1,2.3-1.6,1.3-.7,2.6-.9,3.8-1.9-.8-1-1.6-2.2-1.8-3.5-5.3,2.7-9.6-4.7-7.6-9.3-.7-2.6-.7-5.5-.3-8.1-1.4,2.9-1.6,7.1-1,10.2.1.7.6,2,.5,2.6-1.1.4-2.4-1.9-3-2.6,0,.7.6,2.2.4,2.8h-.2c-2.6-.9-4.7-3.5-5.7-6,0,1.2.4,2.5.3,3.7h-.2c-.5,0-1-.8-1.2-1.3-3.1-5.9-2.8-15.9,4.2-19.7-1.2.3-2.1,1-3.1,1.6h-.2c-.4-.5.3-1.2.6-1.6,1.6-2,3.8-2.9,6.3-3.1ZM40.2,84.6c-.8,4.3-1.3,8.6-2.3,12.9,1.2.7,1.3,2.1,1.7,3.2,0,.2,0,.8.3,1,.8-1,.4-5.1,1.8-5.8.3-3.8.4-7.7.8-11.5-.8,0-1.6.2-2.4.2,0,0,0,0,.1,0ZM44.2,58.4c1-.4,1.6-1.3,2.5-2-.8-.3-1.3-.8-1.8-1.4-.2,1.1-.5,2.3-.7,3.4Z" fill="#512611"/>
  <path d="M51,14.4c1.7,2.8,2.1,6.5,1.2,9.6-.5,1.6-1.1,3-1.4,4.7,0,10.7-11.7,16.6-19.8,9.1-1.5-1.2-2.9-2.6-3.7-4.4-.2-.5-.5-2-.9-2.1-4.4,3.6-8.7-2.9-7.1-7.1.6-1.6,2.5-2.8,4.1-2,2.1,1.1,2.7,3.5,3.5,5.5.1.3.3.9.6,1h.1c.3-.6.3-2.9.5-3.8.3-1.4.8-2.7,1.3-4,1.6-.7,3.4-1.6,4.6-2.9-.4.8-1,1.5-1.6,2.2-.3.4-.9.7-1,1.3.6.5,2.1-.4,2.8-.6,2.1-.9,4.1-2.2,5.8-3.8-.5.8-1,1.5-1.6,2.2-.3.3-1.1,1-1.2,1.4,0,.1,0,.2.2.3,4.1.5,7.9-2.6,9.8-6-.3,1.2-.8,2.5-1.4,3.6-.3.5-.9,1.1-1.1,1.6.2.4.8.1,1.2,0,2.5-1.1,4.1-3.4,5-5.9h0Z" fill="#f7b15f"/>
  <path d="M21.7,24.5c1.7-.3,2.8,1.4,3,2.9,0,.4.2,1,0,1.3-.5,0-.5-.8-.9-1.1-.3-.2-.6.2-.7.5-.4.7.4,1.2.2,1.9h-.2c-1.2-.8-1.4-3,.2-3.4-1.6-2.2-1.4-.7-2.6-.1h-.1c-.1-.9.6-1.6,1.3-2,0,0-.2,0-.2,0Z" fill="#512611"/>
  <path d="M36.1,34.1c.5,0,.6.6.8.9.8,1.6,2.6,2.2,4.3,2,.6,0,1.7-.5,2.2-.2h0c-1.8,1.9-4.9,1.3-6.7-.2-.7-.5-1.6-1.7-.7-2.4h.1Z" fill="#512611"/>
  <path d="M35.9,21.6c1.1-.2,3.8.2,3.8,1.7-.4.3-.9-.1-1.2-.2-1.5-.6-3.2-.2-4.5.6-.4.2-.8.6-1.3.6h0c.5-1.5,1.9-2.4,3.3-2.6h0Z" fill="#512611"/>
  <path d="M33.9,28.1c.8,0,1.2,1.1,2.4,1.2,1,.2,2-1.3,2.6-.7,0,1.5-1.9,2.3-3.2,2-1.1-.2-2.6-1.4-1.7-2.6h0Z" fill="#512611"/>
  <path d="M48.6,21.8c1.1-.1,2.2.6,2.6,1.6,0,.3,0,.9-.2,1-.5-.3-.9-.8-1.4-1.1-1.6-.6-2.3.3-3.4.2-.4-.9,1.7-1.6,2.3-1.8h.1Z" fill="#512611"/>
  <path d="M43.3,30.9c1.7,0,2.8,2.4,1.5,3.6-.8.7-2.6,1-3.2,0,.3-.5,1.9,0,2.5-.7,1.1-1.2-.8-1.8-.8-2.8h0Z" fill="#512611"/>
  <path d="M48.7,28.3c1.2.4-.3,2-1,2.1-.8.3-2.8-.6-2.1-1.6.4-.2,1.1.2,1.5.4.7-.2,1.1-.5,1.7-.9h-.1Z" fill="#512611"/>
  <path d="M12.8,68.6c2.4,1.7,4.5,3.8,6.8,5.6,1.9,1.5,3.5,3.7,6,4.2,1.5.2,3.2,0,4.7-.2,12.2-1.2,27.9-2.5,40.3-3.7,0,1.1,0,4.9-.8,5.6-.6.6-1.9.7-2.7.8-10.2,1.3-24.3,2.3-34.6,3.3-7.1.8-6.9.7-12.1-4.1-1.7-1.6-5.2-4.2-6.9-5.9-1.3-1-.6-4.2-.7-5.7h0Z" fill="#653b1c"/>
  <path d="M25.5,78.8h.4c0,1.1.7,4.1,0,5.1-.6-.4-.4-4.2-.5-5.1h.1Z" fill="#512611"/>
  <path d="M56.6,58.6c3.1.4,5.5,3,8.2,4.5,2.6,1.7,5.3,3.2,7.8,5,.4.3,1,.6,1,1.2-1.8.7-3.9.5-5.8.7l-8.8.8c-11.2.8-22.5,2.7-33.7,2.6-3.9-2.4-10.4-8.3-14.3-11.3,1.4-.7,4.7-.9,6.3-1,1.1.6,2.1,1.1,3.3,1.5,1,.3,2.9.7,3.7,1.2,3.7,2.6,7.4,6.4,11.3,8.7,3.9-.2,11.7-1.1,15.6-1.4,1.8-.2,3.7-.3,5.5-.5.3,0,.8,0,.8-.6h0c-.2,0-6.5-4.8-7.2-5.3.7-.7,1.1-1.4,1.2-2.4,2-.8,3.7-2.1,5-3.8h.2-.1Z" fill="#8ce1ed"/>
  <path d="M10.9,62.8c1.3,1.3,4.8,3.9,6.2,5.1,2.9,2,6,6.1,9.6,6.3,15.1-1.2,31.7-2.7,46.8-4.2,0,1,.3,2.1-.4,2.9-1.2,1-4.2.8-5.8,1-11.9.9-27.9,2.6-39.8,3.5-2.2.3-3.8-.9-5.3-2.3l-4.1-3.3c-1.8-1.6-5-4-6.8-5.6-.9-.7-.7-2.4-.6-3.4,0,0,.2,0,.2,0Z" fill="#8ce1ed"/>
  <path d="M26.7,38.1c.4,1.3.6,2.7,1.2,4,1.2,2.5,3.8,6.8,7,5.4l.5.9c-.5.8-.9,1.7-1.5,2.5-.9-1.2-1.1-3.1-3-2-.4.2-.9.6-1,1.1-.2.7,3.6,6.4,4.1,7.2-1.3,0-2.8,1.1-4,1-1-.3-1.9-1-2.9-1.4-.5-.3-1.9-.8-2.2-1.1h0c.4-.3.9-.2,1.3-.4,1-.6,1.3-2.8,1.5-3.9.2-1,.8-4.2.3-5.1h-.1c-1.2,2.1-.5,5.1-1.8,7.4-2.2-2.4-5.9-3.4-9-2.3,2-5.3,3.5-11.6,9.7-13.2h0Z" fill="#5aba47"/>
  <path d="M19.2,51.9c1.7,0,4.1.5,5.4,1.7l-.8,1.7c-.8,0-2-.7-2.6,0,.6.6,1.6.5,2.3.8.6.2,1.2.5,1.8.7,1.3.6,2.5,1.3,3.7,1.9,2.5,1.2,4.8-2.1,8.1-.2,1.5.9,3.7,2.9,2.9,4.8-.6.7-1.1-.6-1.3-1-.3-.5-.7-1-1.1-1.4s-2.2-2-2.6-1.1c0,.5.9.7,1.3,1,.9.9,3.1,3,1.8,4.2-.4-.2-1.2-1.6-1.6-2-.6-.6-1.4-1.3-2.3-1.4-.1,0-.2,0-.3.2,0,.4.6.5.9.7.9.7,2.4,1.8,2,3-1,.5-2.6-2.6-3.8-2.1-.2.7,2.4,1.6,1.9,2.5-.9.3-1.3-.7-2.1-.9-.9-.3-1.9,0-2.9-.3s-1.6-1.4-2.3-1.8c-3.3-.8-8.4-1.1-10.6-4-1.2-1.9.6-5.2,1-7.2.4,0,.8,0,1.2-.2,0,0,0,.4,0,.4Z" fill="#f7b15f"/>
  <path d="M25.7,63.8c.5,0,1,0,1.5.2,1.4,1.7,3.2,2.6,5.4,2,.9.9,2.3,1.7,3.3.4.2,0,.6,0,.8.2.6,0,1.8-.9,2.3-1.2.6.5,2.3,1.8,3,1.8.4-.3-.3-1.6,0-2.2.4,0,.6.3.8.6.8,1.2,1.1.4,1.9.5.3,0,.5.3.8.4.4,0,1.1-.3,1.5-.5,1,.8,2.1,0,2.9-.6,2.2,1.5,4.3,3.3,6.5,4.8-6.8.7-13.5,1.3-20.3,1.9-3.7-2.4-7-5.3-10.3-8.1v-.2h-.1Z" fill="#fff"/>
  <path d="M48.3,68.5c.9-.2,1.9.9.7,1.3-1,.2-1.8-.8-.7-1.3Z" fill="#653b1c"/>
  <path d="M48.5,68.8c.3,0,.7.2.7.5s-.2.2-.4.4c-.6,0-1.1-.6-.3-.9Z" fill="#969696"/>
  <path d="M40.7,68.7c-1.1-.3-1.2-1.5,0-1.3,1.1.2,1.1,1.4,0,1.3Z" fill="#653b1c"/>
  <path d="M40.6,67.6c.3,0,.7.2.6.6-.2.2-.4.2-.6.2s-.4-.2-.5-.5c0-.2.3-.3.5-.4h0Z" fill="#969696"/>
  <path d="M45.1,70c-1.3-1.1,1.8-1.6,1.4-.3-.3.5-1,.5-1.4.3Z" fill="#653b1c"/>
  <path d="M45.6,69.1c1.2.2.4,1.1-.4.6v-.3c0-.2.2-.3.4-.4h0Z" fill="#969696"/>
  <path d="M34.3,68c.5-.2,1,0,1.4.3.6,1.6-2.8.7-1.4-.3Z" fill="#653b1c"/>
  <path d="M34.4,68.2c.4,0,.8,0,1,.4-.3.3-.5.3-.8.2-.1,0-.2-.2-.3-.3,0-.1,0-.3.1-.4h0Z" fill="#969696"/>
  <path d="M49.2,66.7c1-.2,1.8.6.8,1.3-.9.2-1.9-.7-.8-1.3Z" fill="#653b1c"/>
  <path d="M49.3,67c.3,0,.8,0,.9.3q0,.2-.3.4c-.3,0-.6,0-.8-.3,0-.1,0-.3.2-.4Z" fill="#969696"/>
  <path d="M42.3,69.1c.9-.2,1.8.6.8,1.3-.9.2-1.8-.7-.8-1.3Z" fill="#653b1c"/>
  <path d="M42.3,69.3c.4,0,1.3,0,.8.6-.3,0-.7,0-.9-.2v-.5h.1Z" fill="#969696"/>
  <path d="M37.2,67.6c.4,0,.9,0,1.2.4.6,1.6-3,.7-1.2-.4Z" fill="#653b1c"/>
  <path d="M37.2,68h.9v.4c-.4,0-1.2,0-.9-.5h0Z" fill="#969696"/>
  <path d="M36.4,69.5c.9-.2,2,.6.8,1.2-.8.2-2-.7-.8-1.2Z" fill="#653b1c"/>
  <path d="M36.5,69.8c.3,0,.7,0,.9.2,0,.1,0,.3-.2.4-.3,0-.6,0-.8-.2,0-.1,0-.3.1-.4Z" fill="#969696"/>
  <path d="M51.3,68.3c.4,0,.9,0,1.2.4.2.4,0,.7-.4.9-.8.2-1.8-.7-.7-1.2h0Z" fill="#653b1c"/>
  <path d="M51.5,68.5c.3,0,.6,0,.6.4s-.2.3-.3.4c-.3,0-.6,0-.7-.4,0-.2.2-.2.4-.4Z" fill="#969696"/>
  <path d="M43.5,67.2c.8-.2,1.9.6.9,1.2-.8.2-1.9-.6-.9-1.2Z" fill="#653b1c"/>
  <path d="M43.8,67.4c.3,0,.6,0,.6.4s-.2.3-.4.4c-.3,0-.6,0-.7-.5,0-.2.2-.2.4-.3h.1Z" fill="#969696"/>
  <path d="M39.2,69.4c.4,0,.9,0,1.1.4.3.4,0,.7-.4.9-.9.2-1.8-.7-.7-1.2h0Z" fill="#653b1c"/>
  <path d="M39.5,69.7c.3,0,.5,0,.6.4q0,.2-.3.3c-.3,0-.8,0-.8-.5s.2-.2.4-.3h0Z" fill="#969696"/>
  <path d="M45.9,67.3c1.7-1.5,2.3,2.1,0,.5v-.5Z" fill="#653b1c"/>
  <path d="M46.2,67.4c.3-.2.8-.2,1,.2,0,.4-.5.3-.8.2,0,0-.2-.2-.2-.4Z" fill="#969696"/>
  <path d="M44.9,40.7c3.1.4,7.2,7.3,8.8,9.8-3-.2-6.3,1.6-7.6,4.3-1.6-.8-.7-3.2-.7-4.6s0-3.6-.5-4.3h0c-.4.9,0,2-.2,3,0,3.2-.7,6.4-1.2,9.5-1,0-2.1.2-3.1.3-.7,0-1.4.4-1.9-.3-.2-.7-.5-1.4-.8-2.1.2-.7.4-1.3.6-2,.5.8,1.9,4.5,3.1,3.1,2.1-2.7,1.7-7.1-.9-9.3,0-.2.2-.4.3-.6,2.8,1.1,2.6-4.5,2.6-6.1.6-.2,1.1-.5,1.7-.8h-.2Z" fill="#5aba47"/>
  <path d="M52.5,51.5c1.8-.3,3.2,4.3,3.2,5.7s-2.7,4.1-4.5,4c-.5,1.3-.5,2.2-1.6,3.3s-1.4,1.5-1.9,1c0-1,1.3-1.8,1.1-2.8h0c-1.1.2-1.6,3.2-3.1,2.9-.5-1,1.7-2.8,1.4-3.8-1.1,0-1.9,3.2-2.9,3.6-2.1-.3,1-3.2.8-4.3-1.3.2-1.8,2.2-2.2,3.3h0c-.6,0-.8-.6-.7-1.1.3-2.3,2.5-3.2,4-4.5,1.3-1.1,2.3-2.5,3.7-3.5.6-.5,1.9-.6,2.1-1.4-1-.6-2.8.9-3.7,1.5l-.7-.5c1.1-1.8,3.2-3,5.3-3.3h-.3Z" fill="#f7b15f"/>
  <path d="M19.6,42h.2c-.9,2.2-4,8.2-4,10.4.1.4.6.5.9.6-.2.7-.4,2-.9,2.6-.7.6-2.7.8-3.3,0-.6-2.6,0-6.2-.3-8.9,0-1.1-.2-2.3.4-3.2,1-1.3,5.4-1.3,7.1-1.6h0Z" fill="#8ce1ed"/>
  <path d="M24.5,84.9c.7.4,1.6.4,2.4.8-.3,7.2-.2,14.7-.2,21.9s.2,1.9-.1,2.5c-.6.7-1.7.5-2.2-.2,0-8.3-.2-16.6.1-24.9h0Z" fill="#653b1c"/>
  <path d="M39,84.7h0c0,1.1-1.2,8.5-1.5,8.9-1.1.7-4,.6-5.1-.2-.4,0-.7-.4-.9-.7.4-2.4.5-4.9.9-7.3,2.1-.3,4.3-.5,6.4-.6h.2Z" fill="#f7b15f"/>
  <path d="M48.9,83.8h.8c0,1.1-.5,7.5-1,8.7-.9.6-3.7.9-4.6.2-.4,0-.9-.3-1.1-.7l.6-7.7c1.8-.2,3.6-.3,5.3-.5Z" fill="#f7b15f"/>
  <path d="M13,75.3c.6.2,1.2.9,1.7,1.3-.5,7-1.1,13.9-1.8,20.9,0,.3,0,.9-.6.9-.5.3-1.3.2-1.7-.3.9-6.3.9-16.9,2.3-22.7h0Z" fill="#653b1c"/>
  <path d="M69.3,81.6h.2c.2,4.6.8,18.4,1,23.2-.5.3-1.4.4-1.9,0h0q-.2,0-.2-.3c0-5-.2-10.3-.5-15.4,0-1.3,0-2.7-.2-4,0-1,0-2.1-.4-3,.7,0,1.4-.3,2.1-.5h0Z" fill="#653b1c"/>
  <path d="M28.6,36.9c1,1,2.1,1.8,3.2,2.7,1.8,1.9,3.3,4.1,5.6,5.4-1.6,0-2.3,1.5-3.6,1.8-3.8-1-5.7-5.7-6.1-9.3.3-.2.6-.5.9-.7h0Z" fill="#5aba47"/>
  <path d="M30.4,97.9c.1,0,.2.4.3.6.6,1,2.2,1.8,3.3,1.7.2.3.3.5.5.7,0,.4-.2.7-.2,1.1,0,1.3.4.6.8,1.2.2.2,0,.5,0,.8.1,1.2,1.7.4,2,1.1-.9.8-1.7,1.6-2.1,2.8-2-.6-5.1-3-5.9-5,.3-1.6.9-3.2,1.3-4.9h0Z" fill="#d61f26"/>
  <path d="M41.9,97c.4,2,3.1,1.6,4.6,2.3-.9,1.6,0,2,.9,2.4.2.2,0,.8.5,1.1.4.2,1.1,0,1.4.4-.4.9-1.5,1.6-1.7,2.6-1.3,0-5.9-3.3-6.6-4.3.4-1,.8-3.3.9-4.4h0Z" fill="#d61f26"/>
  <path d="M55.1,83.2c.3.5-.2,13.1-.4,13.5-.5.5-1.4.5-2,0-.2-.5,0-12,0-13.5.7,0,1.5,0,2.2-.2h0v.2Z" fill="#653b1c"/>
  <path d="M52.7,102.5c2.2,0,3.4.7,4.3,3-.5.9-3.6,1.6-4.5,1.2-1.1.3-3.4,0-4.3-.6.9-2.1,2.4-2.9,4.5-3.6Z" fill="#fff"/>
  <path d="M39.5,104.7c.7.2,1.3-.2,2.4.4,1.1.5,1.8,1.6,2.2,2.7-.5.6-3.2,1.3-3.9,1-1,.4-3.6,0-4.4-.7-.2-1.2,1.7-2.4,2.6-2.9.4-.2.8-.3,1.1-.5Z" fill="#fff"/>
  <path d="M31.6,93.8c1.6,1.1,4.3,1.6,6,.6,0,1-.3,2-.5,3-.3.2-.8.3-1.2.2-1.1.8-1.2.3-2.1,1.7-3.5.3-2.7-3.2-2.3-5.5,0,0,.1,0,.1,0Z" fill="#908f8f"/>
  <path d="M20.3,40.7h.3c-.3,1.5-6.7.3-8.5,2.4-1.1,2-.4,4.9-.5,7.1,0,1.9,0,3.8.3,5.6-2.2-.2-1.3-4.7-1.5-6.3,0-1.8-.2-4.3.2-6,.6-2.4,3.7-2.1,5.7-2.4,1.4,0,2.7-.3,4.1-.4,0,0-.1,0-.1,0Z" fill="#8ce1ed"/>
  <path d="M29,103.9c3.4,4.4,9.7,7.2,15,4.7h0c0,.4,0,.9-.3,1-3.1,3.6-15.3-.8-14.8-5.7h.1Z" fill="#fff"/>
  <path d="M42.8,93.2c1.7.9,4.3,1.1,5.9,0,0,.9-.2,1.8-.3,2.6-.2.2-.9.3-1.2.3-.7.7-1.6.7-1.8,2-.7,0-1.9-.3-2.5-.7-.5-.6,0-1.7,0-2.4v-1.8h-.1Z" fill="#908f8f"/>
  <path d="M40.9,102.4c4.4,3.9,10.3,6.6,16.1,4.1.2.4-.2,1-.5,1.3-3.3,2.1-8.8.8-11.8-1.3-.6-.6-1-1.4-1.7-1.9-.7-.7-2.3-.9-2.1-2.1h0Z" fill="#fff"/>
  <path d="M39.4,49c2.8.7,3,6.3,1.1,7.9-.3-.2-.6-.9-.8-1.2-1.4-1.7-1-4.3-1-6.4.2,0,.4-.2.7-.3Z" fill="#d61f26"/>
  <path d="M15.4,77.3c.8.4,2.6,2.1,3.3,2.7,1.6,1.4,3.2,2.7,4.8,4,.1,0,.2,0,.2.3-.8,0-1.6,0-2.4-.2-1.3-.6-5-3.9-6.2-5.1,0-.6,0-1.1.1-1.7,0,0,.2,0,.2,0Z" fill="#8ce1ed"/>
  <path d="M36.1,48.9c.5.3,1,.4,1.6.5,0,2.3.1,3.9-.7,6.1h-.2c-.8-1.2-1.7-2.5-2.3-3.8.5-.9,1-1.9,1.6-2.8Z" fill="#d61f26"/>
  <path d="M42.3,41.8h0c0,1.7-.2,3.8-1.3,5-.8-.9-1.4-1.7-2.7-1.8.4-1,.9-1.9,1.3-2.8.9,0,1.7-.2,2.6-.4h.1Z" fill="#5aba47"/>
  <path d="M15,56.8h.8c0,1.2,0,2.3.1,3.4-.8,0-1.7.3-2.5.3v-3.6h1.6Z" fill="#653b1c"/>
  <path d="M33.8,52.5c.4.3,2.9,4.5,3.3,5.2-.7-.4-1.5-.6-2.3-.6-.8-.9-1.7-2.7-2.3-3.8.5-.2.9-.5,1.4-.8,0,0-.1,0-.1,0Z" fill="#ee9222"/>
  <path d="M38.3,45.9c3.1,0,.8,4-1.7,2.3-1.8-1.6,0-2.4,1.7-2.3Z" fill="#d61f26"/>
  <path d="M20.3,7c.7,0,1.2.2,1.8.5-1,1-1.7,2.3-2.5,3.5-1.5-1-1.3-3.8.8-4h0Z" fill="#d61f26"/>
  <path d="M48.4,96.7c1,0,1.4.8,1.7,1.6l-2.3.3c-.8.8-1.3,0-1.5-.7h0c.6-.7,1.2-.8,2-1.1h0Z" fill="#d61f26"/>
  <path d="M36.7,98.1c1,0,1.5.9,1.8,1.8h-2.2c-.2.2-.8.5-1.1.5-.2-.2-.3-.8-.4-1.1.6-.5,1.3-.9,1.9-1.3h0Z" fill="#d61f26"/>
  <path d="M34.1,41.1c1.5.6,3,1.1,4.6,1.2-.4.7-.6,1.4-1,2-1.4-.7-2.6-2-3.6-3.2Z" fill="#f7b15f"/>
  <path d="M43.1,59.2h0c-.3.8-1.2,1.4-1.6,2.2h-1c-.3-.7-.7-1.3-1.1-1.9,1.2-.2,2.4-.2,3.6-.3h0Z" fill="#8ce1ed"/>
  <path d="M68.3,105.1c.3.6,1.7.4,2.1.2,0,.8.4,2.3-.8,2.3s-1.4-1.4-1.3-2.5Z" fill="#653b1c"/>
  <path d="M50.4,100.4c1.6.2,1,0,2.4.8-.5.2-1.4.2-2,.3-.3,0-.6.2-1,.2-.4.5-1.8,1-1.8,0,.4-.9,1.8-.9,2.4-1.3Z" fill="#fff"/>
  <path d="M37,100.5c.5.2,1.2,0,1.7.3.2.2.3.5.5.7h-1.8c-.3,0-.6.2-.9.2-.3.4-1.6,1.1-1.6,0,.2-.9,1.6-1,2.2-1.4h-.1v.2Z" fill="#fff"/>
  <path d="M48.9,99c.4.2,1.7,0,2.3.7-.3,0-.8,0-1.2.2-.5,0-1.1.4-1.6.4-.4.4-1.3,1.1-1.8.4,0-1.2,1.5-1.2,2.2-1.7h0Z" fill="#fff"/>
  <path d="M24.4,110.4c.8.6,1.8.2,2.2.6,0,.4.1,1-.3,1.2-.3.6-1.4.7-1.8.2-.4-.4-.2-1.5,0-2,0,0-.1,0-.1,0Z" fill="#653b1c"/>
  <path d="M38.3,102.2c.5.3,1.8,0,1.7,1h-1.5c-.4,0-.9.3-1.3.3-.3.5-1.5.8-1.3,0,.3-.9,1.9-.9,2.4-1.2h0Z" fill="#fff"/>
  <path d="M31.8,49.3c.5,0,.7,1.1.8,1.5-.4.3-.8.5-1.2.7-.4-.2-.7-1-.9-1.4.4-.5.7-.6,1.3-.8Z" fill="#bf6328"/>
  <path d="M54.7,97.2h0c.4,1.4-1.2,2.3-2.1,1.2v-1.1c.6.3,1.5.3,2.1,0h0Z" fill="#653b1c"/>
  <path d="M10.6,98.7c.6.5,1.5.7,2.2,0,0,.4,0,.9-.2,1.3-.6.4-1.5,0-2-.4v-1h0Z" fill="#653b1c"/>
  <path d="M40.7,64c.7.3.3,1.4.5,2-.5-.3-1.4-.6-1.6-1.2,0-.4.8-.5,1.2-.7h-.1Z" fill="#f8d9b6"/>
  <path d="M33.1,51.2c.2.2.3.5.5.8-.5.3-.9.7-1.4.9-1-1.2,0-1,.9-1.7Z" fill="#ee9222"/>
  <path d="M39.3,103.6c.2,0,.6,0,.8.2h0c-.4.3-1.2.5-1.6.5,0,0-.3.2-.5.2s-.2,0-.2-.3c.3-.5,1.1-.3,1.6-.6h0Z" fill="#d61f26"/>
  <path d="M51.6,101.9c.2,0,.4,0,.6.2-.4.2-1.2.5-1.7.4,0,0-.4.3-.6,0,.2-.6,1.1-.4,1.6-.7h.1Z" fill="#d61f26"/>
  <path d="M40.9,62.1h.4c0,.3,0,.8-.2,1.1-.2-.2,0-.9-.2-1.1Z" fill="#fff"/>
</svg>