<?xml version="1.0" encoding="UTF-8"?>
<svg id="Layer_1" xmlns="http://www.w3.org/2000/svg" width="80" height="115" version="1.1" viewBox="0 0 80 115">
  <!-- Generator: Adobe Illustrator 29.4.0, SVG Export Plug-In . SVG Version: 2.1.0 Build 152)  -->
  <defs>
    <style>
      .st0 {
        fill: #be722d;
      }

      .st1 {
        fill: #bec0c2;
      }

      .st2 {
        fill: #d60000;
      }

      .st3 {
        fill: #fef1d4;
      }

      .st4 {
        fill: #918ca8;
      }

      .st5 {
        fill: #fff;
      }

      .st6 {
        fill: #e27472;
      }

      .st7 {
        fill: #5e3f25;
      }

      .st8 {
        fill: #d5bc2a;
      }

      .st9 {
        fill: #798083;
      }

      .st10 {
        fill: #00bcd6;
      }

      .st11 {
        fill: #553614;
      }

      .st12 {
        fill: #333;
      }

      .st13 {
        fill: #f0b25b;
      }
    </style>
  </defs>
  <path class="st12" d="M33.159,1.582h.038c1.113-.175,2.514-.038,3.64.1,3.064.375,5.991,1.263,8.63,2.889.6.363,1.126.825,1.713,1.213.538.35,1.126.638,1.663,1.001,2.464,1.726,4.002,4.665,4.528,7.579.038.225.075.45.113.688.038.225.063.463.088.688s.038.463.05.688.025.463.025.688v.688c0,.225-.013.463-.025.688s-.038.463-.063.688-.05.463-.088.688c-.238,1.476-.688,2.827-1.376,4.152-.4.775-.888,1.226-1.051,2.126-.388,2.151-.713,4.353-.938,6.516-.313,2.977.1,6.566-1.701,9.13,1.351,1.789,4.353,6.179,4.965,8.255.1.338-.025.538-.188.838,1.151,1.701,2.001,3.79,1.989,5.866,1.351.938,2.802,1.776,4.19,2.664l7.642,4.89c1.513.976,3.152,1.914,4.54,3.064.35.288.725.613.888,1.063.313.876.25,3.965-.163,4.79-.388.788-1.326,1.001-2.101,1.251-.025,1.251.05,3.49-.2,4.628-.175.813-.638,1.188-1.313,1.626.2,1.901.325,3.827.475,5.741l.8,10.018.463,5.741c.088,1.051.225,2.126.213,3.177,0,.363-.038.688-.25.988-.225.338-.6.538-1.001.6-.463.075-.951-.038-1.326-.313-.313-.25-.488-.588-.575-.976-.113-.5-.088-1.051-.15-1.551l-.5-4.94-1.176-11.819c-.2-2.026-.35-4.077-.6-6.104-3.214.225-6.466.688-9.668,1.101-.038,1.026-.163,2.051-.263,3.077l-.45,5.303-.325,3.565c-.063.625-.075,1.288-.2,1.901-.038.2-.113.325-.263.463-.175.15-.388.25-.625.238.75,1.276,2.314,1.201,2.952,3.239.013.05.025.088.05.138l.038.113c.25.3.65.525.976.75,1.188.838,2.214,1.764,2.539,3.239.188.825.15,1.764-.325,2.476-.625.963-1.864,1.438-2.939,1.663-3.527.75-5.641-.775-8.455-2.564-.775-.488-1.601-.901-2.364-1.401-.688-.45-1.388-1.013-1.563-1.864-.175-.913.15-4.265.5-5.153.138-.35.413-.638.625-.951-.263-.063-.575-.25-.763-.45-.138-.163-.238-.363-.25-.575-.075-1.026.225-3.052.313-4.177.225-2.627.388-5.266.65-7.88,0,0-.025,0-.038.013-.388.15-2.326.375-2.689.225-.125,2.777-.4,5.566-.6,8.342-.15,2.101-.2,4.24-.438,6.316-.025.188-.038.463-.163.6-.213.275-.7.588-1.051.613.4.763,1.326,1.101,1.839,1.764.4.513.713,1.288.625,1.951,0,.063-.013.125-.025.188.363.263.938.788,1.351.901.138.2.388.363.563.525.688.613,1.251,1.238,1.563,2.126.3.85.413,1.876,0,2.702-.488.963-1.576,1.576-2.564,1.901-2.164.713-4.378.513-6.404-.5-1.713-.85-5.803-3.79-6.379-5.628-.438-1.351.3-4.94.976-6.216-.488-.188-.8-.488-1.013-.951-.075-1.363,0-2.752.038-4.127.075-2.902.225-5.816.213-8.73-.088.063-.163.125-.263.163-.563.188-2.164.4-2.689.138-.388,6.016-.825,12.019-1.313,18.023l-.425,5.478c-.063.863-.075,1.776-.213,2.627-.063.363-.175.7-.425.976-.3.325-.738.525-1.176.538-.438.025-.888-.125-1.201-.438-.063-.063-.125-.138-.175-.213-.188-.263-.25-.55-.275-.863-.075-.926.063-1.939.125-2.877.113-1.713.225-3.439.313-5.153.063-1.338.175-2.702.188-4.04.038-2.314-.075-4.653-.138-6.967l-.238-9.168c-.4-.05-8.08-5.816-9.118-6.566-.35,2.089-.5,4.24-.738,6.341l-1.013,9.105c-.213,1.976-.375,3.965-.638,5.928-.075.588-.213,1.051-.713,1.413-.338.25-.788.338-1.201.275-.438-.063-.825-.3-1.076-.663-.2-.275-.263-.55-.263-.888,0-1.651.263-3.364.413-5.015.238-2.727.5-5.453.775-8.192l.713-7.567c.113-1.088.15-2.201.338-3.277-.1-.1-.213-.2-.313-.313-.288-.313-.45-.663-.538-1.076-.225-1.051-.063-4.052-.025-5.241-.513-.413-1.088-.738-1.601-1.163-.438-.35-.663-.763-.713-1.326-.063-.713-.05-2.864.1-3.527.063-.3.188-.575.388-.8.7-.813,2.326-.763,3.314-.838l-.05-3.49c-.625-.188-1.276-.325-1.801-.725-.625-.463-.825-1.163-.938-1.901-.188-1.288-.088-2.702-.088-4.002,0-2.001-.163-4.665.225-6.616.088-.45.263-.863.538-1.226.313-.4.75-.75,1.213-.938.951-.388,2.089-.438,3.089-.538,1.814-.188,3.665-.275,5.466-.525-.75-.563-1.201-1.076-1.676-1.889.013.325.1.788,0,1.088-.075.2-.163.275-.35.375-.238,0-.4-.075-.575-.225-.951-.75-1.663-2.226-1.789-3.414-.325-3.014.688-6.166,1.138-9.13.7-4.603,1.001-9.418,2.464-13.858.088-.275.188-.55.288-.825.1-.275.213-.55.325-.813.113-.275.238-.538.363-.8.125-.263.263-.525.4-.788.138-.263.288-.513.438-.763s.313-.5.463-.738c.163-.25.325-.488.5-.725.175-.238.35-.463.538-.7,2.927-3.577,7.217-5.266,11.719-5.716l.05.075ZM45.404,109.595c.175-.125.238-.363.3-.563-.913.988-2.789,1.401-4.102,1.451-3.339.138-6.028-2.151-8.342-4.277-.663-.613-1.288-1.263-1.926-1.914.025,1.163.813,2.014,1.613,2.764,2.189,2.076,5.128,4.353,8.292,4.252,1.213-.038,3.127-.438,3.952-1.376.088-.1.15-.225.213-.35v.013ZM44.916,102.716c.188.35.5.625.813.863.825.613,1.776,1.076,2.652,1.601,1.001.613,1.951,1.301,3.002,1.851.263.138.525.263.8.375.275.113.55.213.838.3,1.526.45,3.577.288,4.978-.5.325-.175.75-.475.901-.825.138-.113.163-.2.2-.375l-.038-.088c-.4.125-.863.563-1.351.738-2.376.901-4.49.45-6.641-.688-1.638-.876-3.227-1.939-4.778-2.964-.5-.325-.988-.788-1.513-1.063.025.263.038.55.138.788v-.013ZM14.736,60.191l1.188-.15.063-.088c-.188-.325-.463-.713-.575-1.063-.125-.363-.225-1.651-.413-1.864-.025-.025-.163-.05-.2-.063-.188.988-.05,2.201-.05,3.227h-.013Z"/>
  <path class="st13" d="M44.353,11.226c.763.7,1.551,1.338,2.264,2.101,2.602,2.714,3.977,5.441,3.89,9.268-.075,2.939-1.176,9.005-2.451,11.569-.538,1.076-1.313,2.064-2.176,2.877-.075.063-.138.125-.213.2-.075.063-.15.125-.213.188-.075.063-.15.125-.225.188-.075.063-.15.125-.225.175-.075.063-.15.113-.225.175-.075.063-.15.113-.238.163-.075.05-.163.113-.238.163s-.163.1-.238.15c-.088.05-.163.1-.25.15-.088.05-.163.1-.25.138-.088.05-.163.088-.25.138s-.175.088-.263.125-.175.088-.263.125-.175.075-.263.113-.175.075-.263.113-.175.075-.263.1c-.088.038-.175.063-.275.1-.088.038-.188.063-.275.088s-.188.063-.275.088-.188.05-.275.075-.188.05-.275.075-.188.05-.275.063c-.088.025-.188.038-.288.063-.1.013-.188.038-.288.05s-.188.025-.288.038c-.1.013-.188.025-.288.038-.1,0-.188.025-.288.025s-.188.013-.288.025c-.1,0-.188,0-.288.013h-.863c-4.115-.113-8.417-1.989-11.257-4.978-.788-1.013-1.426-1.901-1.926-3.102-.225-.538-.65-2.476-.901-2.727-.388-.1-.888.15-1.288.213-.638.088-1.251-.138-1.739-.538-1.076-.863-1.563-2.151-1.713-3.477-.138-1.138-.063-2.814.688-3.74.338-.413.876-.725,1.413-.775,1.726-.125,2.026,2.727,2.614,3.252.175.038.238.063.4-.025.938-.463,1.739-2.189,2.101-3.164,6.904-1.226,13.658-4.815,18.461-9.918l.025.025Z"/>
  <path class="st12" d="M35.11,33.013h.025c.388.15.613.575.888.863.588.613,1.626,1.001,2.439,1.138,1.413.238,2.514-.1,3.665-.913.238-.175.363-.238.65-.188.125.125.175.188.188.375,0,.2-.138.35-.25.5-.988.813-2.114,1.238-3.402,1.226-1.426,0-3.152-.588-4.152-1.638-.213-.225-.438-.538-.413-.863.025-.25.175-.363.35-.5h.013Z"/>
  <path class="st12" d="M34.397,20.031c.725-.05,1.626,0,2.314.225.325.1.763.3.913.613.05.1.025.1,0,.213-.6.425-1.864-.05-2.564-.113-.413-.038-.825.013-1.238.063-.8.163-2.026.926-2.539.963q-.188-.075-.275-.25c0-.175.013-.325.125-.463.65-.838,2.264-1.163,3.264-1.251Z"/>
  <path class="st12" d="M20.439,22.57h.075c.475-.025.813.1,1.163.425.625.588.926,1.551.951,2.401,0,.25,0,.588-.175.775-.188.038-.2.025-.363-.05-.138-.213-.113-.4-.138-.663-.025-.188-.013-.275-.163-.388l-.163.038c-.175.175-.263.388-.313.613-.2.788.1,1.151.488,1.789-.15.088-.288.188-.475.138-.25-.075-.425-.313-.538-.538-.25-.488-.288-1.201-.1-1.726.2-.538.525-.738,1.013-.976-.113-.35-.238-.725-.488-1.001-.138-.15-.3-.275-.513-.288-.225.088-.313.413-.488.575-.175.025-.263-.038-.4-.125-.075-.125-.125-.188-.075-.35.113-.35.4-.525.713-.675l-.013.025Z"/>
  <path class="st12" d="M44.803,20.218c.7-.063,1.401.013,2.076.25.65.225,1.939.901,2.214,1.588.05.125.05.238,0,.363-.088.175-.313.263-.488.325-.213-.038-.225-.088-.363-.238-.025-.025-.05-.063-.075-.088-.713-.863-2.051-1.338-3.139-1.213-.363.038-.7.213-1.076.175-.138-.088-.238-.175-.275-.338-.038-.138-.038-.288.063-.4.238-.288.75-.363,1.101-.413l-.038-.013Z"/>
  <path class="st12" d="M32.083,25.221c.55,0,1.576.938,2.576.988s2.114-.738,2.401-.625c.163.063.2.15.263.3,0,.225-.088.363-.2.55-.563.425-1.176.613-1.876.663-.951.063-2.401-.175-3.139-.838-.163-.15-.288-.325-.288-.563,0-.213.138-.338.263-.488v.013Z"/>
  <path class="st12" d="M47.192,25.696c.25.063.45.2.588.425.013.15.025.213-.05.363-.2.413-.813.725-1.226.863-1.076.363-2.201.175-3.189-.313-.075-.05-.15-.113-.213-.175-.163-.15-.275-.388-.275-.613,0-.15.025-.163.125-.25.725-.163,1.563.575,2.326.613.775.038,1.363-.425,1.914-.913Z"/>
  <path class="st12" d="M41.139,29.324c.313.05.525.188.725.425.2.225.275.463.263.763-.025.413-.263.8-.588,1.051-.538.438-1.176.488-1.839.425-.2-.063-.325-.125-.488-.263-.075-.175-.113-.275-.088-.463.313-.388,1.026-.163,1.488-.25.2-.038.388-.125.5-.3.25-.388-.163-.613-.2-.963-.025-.188.1-.3.213-.438l.013.013Z"/>
  <path class="st7" d="M33.334,2.596c.45-.075,1.001-.038,1.463-.038,3.289.025,6.654.938,9.543,2.514.575.313,1.038.775,1.576,1.138.425.288.913.513,1.363.763,2.339,1.276,4.09,3.59,4.828,6.141.951,3.302.876,7.117-.813,10.156.475-4.428-1.113-7.579-4.127-10.706-.325-.35-2.339-2.051-2.414-2.226-.075-.213-.05-.375-.188-.575-.163-.038-.15-.013-.275.088-.35.288-.638.75-.951,1.101-.488.525-1.013,1.013-1.538,1.501-2.539,2.389-5.578,4.152-8.755,5.528-.788.338-1.576.7-2.389.963-.976.313-1.976.6-2.977.85-.8.2-1.613.35-2.389.625-.413.938-.725,1.801-1.351,2.639-.413-.575-.7-1.201-1.088-1.789-.438-.688-.888-.913-1.663-1.076-.263-.025-.525-.013-.788.025-.763.113-1.401.625-1.851,1.238-.825,1.151-.988,3.039-.75,4.415.238,1.426.951,3.189,2.164,4.052.85.6,1.914.663,2.902.488.6,2.789,1.526,4.015,3.227,6.216-1.288.375-2.514.725-3.715,1.326-.6.288-2.614,1.638-2.939,1.713-1.088.238-1.513-2.952-2.276-3.439-.088,0-.15,0-.225.038-.55.25-.538,1.201-.7,1.701l-.1.05c-.025-.013-.05-.038-.075-.05-.525-.438-.638-1.363-.688-2.001-.175-2.101.425-4.34.838-6.391.2-1.038.363-2.064.525-3.102.45-2.927.688-5.878,1.276-8.78.275-1.351.825-3.427,1.301-4.715.775-2.126,1.926-3.902,3.389-5.616.513-.6,1.138-1.088,1.764-1.551.55-.413,1.101-.838,1.701-1.176,2.076-1.188,4.79-1.826,7.154-2.014l.013-.025Z"/>
  <path class="st4" d="M26.367,37.503h.125c.088.113.275,1.826.4,2.226.288.913.963,1.851,1.638,2.526,1.576,1.563,3.927,2.426,6.141,2.414,1.401,0,2.927-.388,3.927-1.426.613-.638.85-1.338.838-2.201,1.701-.2,3.214-.85,4.74-1.588.75.488,1.501.976,2.164,1.588,2.389,2.201,4.465,5.778,5.903,8.693-.588-.075-1.176-.025-1.751.088-.063,0-.125.025-.2.038-.063.013-.125.025-.2.05-.063.013-.125.038-.188.05s-.125.038-.188.05c-.063.025-.125.038-.188.063s-.125.038-.188.063-.125.05-.188.063c-.063.025-.125.05-.188.075s-.125.05-.188.075-.125.05-.188.088c-.063.025-.125.063-.175.088-.063.025-.113.063-.175.088s-.113.063-.175.1-.113.063-.175.1-.113.063-.175.1-.113.075-.163.113-.113.075-.163.113-.113.075-.163.113-.113.075-.163.125-.1.088-.15.125c-.05.038-.1.088-.15.125-.05.038-.1.088-.15.138-.05.05-.1.088-.15.138-.05.05-.1.088-.138.138-.05.05-.088.1-.138.138-.05.05-.088.1-.138.15-.05.05-.088.1-.138.15-.038.05-.088.1-.125.15-.038.05-.088.1-.125.15-.038.05-.075.1-.125.163-.038.05-.075.113-.113.163s-.075.113-.113.163c.25-2.126.263-4.753.088-6.879-.025-.313-.075-.901-.338-1.101-.113-.088-.175-.05-.313-.038-.088.063-.15.113-.188.225-.1.275.05,3.377.038,4.04-.038,2.877-.313,5.653-1.026,8.442-1.814.238-3.665.363-5.478.513-1.301-2.526-2.889-4.953-4.353-7.392-.6-1.051-1.251-2.076-1.876-3.114-.4-.663-.775-1.426-1.263-2.014-.188-.238-.413-.475-.725-.55-.4-.1-.863.05-1.213.25-.363.213-.663.525-.763.938-.075.338-.013.675.113.988.463,1.113,1.251,2.189,1.876,3.214l3.352,5.703c-.938.15-1.889.538-2.752.65-2.076.263-4.74-1.576-6.641-2.314v-.85c.363-.113.65-.2.863-.525.65-.938.926-6.491.713-7.642-.038-.225-.088-.413-.288-.55-.188-.038-.213-.038-.4.025-.3.4-.15,1.026-.113,1.501.138,1.726-.163,4.177-.475,5.878-1.188-1.163-2.802-1.713-4.428-1.826-1.939-.138-3.377.388-4.828,1.651.363-3.002,1.226-6.291,2.714-8.943,1.964-3.49,5.04-4.99,8.755-6.041h0Z"/>
  <path class="st8" d="M54.947,57.728c3.177,1.989,6.341,3.99,9.48,6.016,2.114,1.351,4.353,2.652,6.341,4.19.338.263.75.588.938.976-.125.138-.263.175-.438.213-2.251.488-4.59.663-6.879.963-4.49.613-8.993,1.176-13.495,1.676l-14.358,1.651-4.978.575c-1.013.113-2.039.263-3.064.313-.675.025-1.376-.088-2.026-.263-1.576-.438-4.29-2.539-5.703-3.502l-6.766-4.578c-.963-.7-5.065-3.202-5.503-3.752,0-.138,0-.188.075-.3.163-.238.6-.338.876-.388.775-.163,1.613-.175,2.401-.238,1.651-.138,3.314-.275,4.94-.525,1.251.963,2.764,1.538,4.315,1.864.563.113,1.313.163,1.801.45.988.588,1.889,1.501,2.789,2.226,2.677,2.176,5.266,4.478,7.992,6.604,2.326-.163,25.277-2.952,25.64-3.189.15-.1.188-.175.225-.35-.438-.588-7.267-4.953-8.417-5.728.35-.6.475-1.138.6-1.826.1-.038.2-.075.3-.113,1.401-.538,2.289-1.638,2.889-2.977l.025.013Z"/>
  <path class="st0" d="M10.558,68.746c.8.388,1.576,1.076,2.301,1.588,1.501,1.076,3.064,2.089,4.578,3.152,1.463,1.038,2.939,2.064,4.415,3.064,1.301.901,2.777,2.164,4.315,2.589.7.2,1.438.225,2.151.188,2.451-.138,4.903-.513,7.342-.788l12.82-1.501,13.258-1.551c2.501-.288,5.04-.513,7.517-.913-.025,1.076.138,4.09-.488,4.903-.2.15-.4.3-.638.4-.863.363-2.927.463-3.927.575l-6.741.788-18.01,2.164c-3.615.438-7.242.963-10.881,1.313-.625.063-1.739.2-2.314-.038-.525-.213-1.013-.463-1.488-.763-2.627-1.676-5.266-3.765-7.805-5.616l-3.352-2.451c-.85-.625-1.789-1.251-2.526-2.001-.15-.15-.35-.338-.425-.55-.288-.738-.113-3.602-.113-4.565l.013.013Z"/>
  <path class="st12" d="M26.668,80.053c.1.013.225.038.3.1.363.313.213,2.789.175,3.277-.013.163-.038.238-.15.35-.063.063-.138.088-.225.125l-.138-.075c-.238-.513-.138-3.239.038-3.765v-.013Z"/>
  <path class="st8" d="M8.345,63.168c1.451.75,3.139,2.051,4.528,2.989l7.592,5.153c1.401.951,2.789,1.964,4.24,2.827,1.101.663,2.164.976,3.452.988,1.951.013,4.152-.388,6.104-.613l10.631-1.213c6.041-.688,12.069-1.426,18.098-2.189,2.889-.375,5.891-.588,8.705-1.288-.013.963.1,2.276-.313,3.152-.063.05-.125.1-.188.15-.7.525-2.114.6-2.964.725-2.964.438-5.966.738-8.943,1.088l-16.384,1.901-10.419,1.201c-1.326.15-4.465.663-5.666.45-.638-.113-1.413-.575-1.964-.913-1.138-.7-2.214-1.488-3.302-2.239l-4.878-3.377c-1.638-1.138-3.264-2.289-4.878-3.452-1.001-.713-2.051-1.388-2.989-2.176-.188-.163-.338-.35-.475-.55-.063-.863-.025-1.739,0-2.602l.013-.013Z"/>
  <path class="st12" d="M26.88,75.338l.213.063c.138.15.175.238.2.45.075.613.138,1.876-.238,2.351l-.3-.138c-.113-.15-.138-.288-.15-.475-.075-.625-.138-1.739.263-2.251h.013Z"/>
  <path class="st13" d="M18.625,51.724c1.663-.113,3.202.288,4.59,1.226l-.138,1.476c-.775-.138-2.739-.575-3.414-.2-.088.05-.175.188-.188.275-.025.15,0,.175.063.3.475.313,1.176.15,1.726.213.475.05.963.163,1.426.288,2.264.663,4.528,2.526,6.879,2.702,1.638.113,2.964-.813,4.728-.588,1.814.238,3.289,1.676,4.365,3.064.313.4.951,1.088.85,1.613-.05.263-.288.388-.488.525-.725-.876-2.939-3.439-4.027-3.702-.175-.038-.3-.038-.45.05,0,.025-.025.075-.013.088.038.463,1.764,1.789,2.164,2.164.45.425,1.638,1.426,1.626,2.076,0,.325-.4.613-.625.813-.563-.45-1.051-1.051-1.551-1.576-.463-.438-1.914-1.851-2.464-2.001-.125-.038-.175,0-.288.075-.088.163-.138.313-.038.488.188.338.888.775,1.213,1.038.45.388,2.339,2.064,2.439,2.551-.088.175-.15.25-.325.338-.225.025-.388-.013-.588-.125-.475-.25-.876-.7-1.288-1.038-.575-.463-1.188-.901-1.814-1.313-.25-.163-.563-.425-.876-.35-.125.025-.15.038-.213.138.1.75,2.476,2.064,3.102,2.702l.063.063c-1.413.088-1.401-.338-2.564-.688-.513-.15-1.076-.2-1.601-.3-1.388-.263-2.414-.913-3.502-1.776-2.039.088-3.977-.1-5.966-.563-1.776-.413-3.927-1.138-4.928-2.777-1.163-1.901-.55-4.603-.063-6.629.688-.438,1.388-.588,2.189-.688l-.013.05Z"/>
  <path class="st9" d="M41.151,84.093c.138-.025.225-.025.363-.013.113.138.125.288.125.45,0,.475-.1.951-.138,1.426l-.225,3.352-.388,5.328c-.075,1.176-.113,2.364-.238,3.54-.025.188-.038.525-.188.675-.838.8-3.139,1.088-4.277,1.051-.838-.025-2.714-.238-3.264-.825-.05,0-.088.013-.138,0-.288-.025-.788-.35-.976-.575-.163-.188-.163-.425-.188-.65-.088-1.238.025-2.551.05-3.802l.2-8.868c.3.1,8.205-.976,9.28-1.101v.013Z"/>
  <path class="st12" d="M32.559,85.756c.125.013.25.025.363.088.125.075.1.275.1.413-.013,2.802,0,5.616.05,8.417,0,.463-.075,1.263.063,1.688,0,.013.013.038.025.05l-.113.038c.025.188,0,.413.05.6,0,.013,0,.025.013.038-.038.125-.025.15-.125.225-.163.063-.2.088-.388.063l-.088-.138c-.225-1.776-.088-3.852-.088-5.666,0-1.776-.113-3.615,0-5.378,0-.163.05-.288.125-.425l.013-.013Z"/>
  <path class="st12" d="M32.709,97.876c1.651.513,2.977.85,4.728.675.613-.063,2.226-.613,2.576-.463.075.15.1.163.063.35l-.113.063c-.05.063-.1.125-.163.175-.988.688-3.927.663-5.115.463-.588-.1-1.688-.238-2.051-.763-.05-.2,0-.313.075-.488v-.013Z"/>
  <path class="st5" d="M41.364,60.617l.888-.063c-.288.463-.625.863-.988,1.276-.075.4-.15.8-.163,1.201-.025.663.1,1.376.575,1.876.675.7,1.989,1.013,2.939,1.001.438,0,.863-.088,1.288-.1.275,0,.55.038.825.038,1.163,0,3.064-1.764,3.865-2.589,2.501,1.626,4.965,3.327,7.479,4.94-2.164.175-4.353.525-6.504.788l-12.857,1.526c-1.588.188-3.177.413-4.778.538-3.177-2.551-6.279-5.191-9.418-7.78.901.075,1.751.05,2.652-.025,1.063.825,2.114,1.513,3.477,1.751.463.088.976.075,1.426.2.538.163,1.026.513,1.576.675.725.225,1.351.163,2.014-.188.313.075.65.163.976.138.738-.05,1.163-.613,1.613-1.126.675.513,1.901,1.638,2.752,1.688.15-.088.188-.125.225-.288.138-.55-.675-3.815-.901-4.49-.1-.313-.263-.6-.425-.888.488-.025.976-.063,1.463-.1h0Z"/>
  <path class="st11" d="M37.211,68.984h.475l.013.013.013.013.013.013.013.013.013.013.013.013.013.013v.588l-.013.013-.013.013-.013.013-.013.013-.013.013-.013.013-.013.013h-.075c-.013,0-.038.013-.05.025-.025,0-.038,0-.063.013h-.188c-.025,0-.038,0-.05-.013-.013,0-.038-.013-.05-.025-.013,0-.038-.025-.05-.038-.013,0-.025-.025-.05-.038-.013-.013-.025-.025-.038-.05,0-.013-.025-.038-.038-.05,0-.013-.013-.038-.025-.05,0-.013-.013-.038-.025-.05v-.25c0-.025,0-.038.025-.05,0-.013.013-.038.025-.05,0-.013.025-.038.038-.05,0-.013.025-.025.038-.05s.025-.025.05-.038c.013,0,.038-.025.05-.038.013,0,.038-.013.05-.025l-.05.063Z"/>
  <path class="st11" d="M49.794,67.383c.163,0,.35,0,.5.038.175.063.225.113.288.275-.05.213-.138.275-.288.438-.138,0-.313,0-.45-.05-.175-.063-.238-.125-.313-.288.05-.2.1-.25.25-.413h.013Z"/>
  <path class="st11" d="M33.171,67.846c.013,0,.038-.025.05-.025s.038-.013.05-.025c.013,0,.038,0,.063-.013h.188c.025,0,.038,0,.063.013.013,0,.038.013.05.025.013,0,.038.025.05.025s.038.025.05.038.025.025.038.038c.013.013.025.025.038.05,0,.013.025.038.025.05s.013.038.025.05c0,.025,0,.038.013.063v.188c0,.025,0,.038-.013.05,0,.013-.013.038-.025.05,0,.013-.025.038-.038.05,0,.013-.025.025-.038.05-.013.013-.025.025-.038.038-.013,0-.038.025-.05.038h-.55l-.013-.013-.013-.013-.013-.013-.013-.013-.013-.013-.013-.013-.013-.013v-.575l.013-.013.013-.013.013-.013.013-.013.013-.013.013-.013h.013l.05-.013Z"/>
  <path class="st11" d="M35.648,67.358c.113.013.25.038.363.075.175.063.25.138.325.3-.013.225-.05.288-.175.475-.15,0-.325-.013-.463-.063-.175-.063-.225-.125-.3-.288.013-.225.113-.325.238-.5h.013Z"/>
  <path class="st11" d="M46.917,67.896c.013,0,.038-.025.05-.025s.038-.013.05-.025c.013,0,.038,0,.063-.013h.188c.025,0,.038,0,.063.013.013,0,.038.013.05.025.013,0,.038.013.05.025.013,0,.038.025.05.038s.025.025.038.038c.013.013.025.025.038.05,0,.013.025.038.025.05s.013.038.025.05c0,.013,0,.038.013.063v.188c0,.025,0,.038-.013.05,0,.013-.013.038-.025.05,0,.013-.025.038-.025.05s-.025.025-.038.05c-.013.013-.025.025-.038.038-.013,0-.025.025-.05.038h-.55l-.013-.013-.013-.013-.013-.013-.013-.013-.013-.013-.013-.013v-.575l.013-.013.013-.013.013-.013.013-.013.013-.013.013-.013.013-.013.025-.013Z"/>
  <path class="st11" d="M37.799,67.095h.113c.1,0,.213,0,.325.025.175.038.275.138.375.288.025.225,0,.275-.075.488-.113.013-.25.038-.363.013-.2-.038-.288-.125-.413-.275-.063-.213-.038-.325.038-.525v-.013Z"/>
  <path class="st11" d="M48.343,65.945c.1,0,.225,0,.313.025.15.05.213.175.275.3,0,.2-.05.288-.163.45-.138,0-.325.025-.45-.025-.15-.05-.188-.138-.238-.275.038-.213.125-.313.263-.475h0Z"/>
  <path class="st11" d="M52.345,66.883c.113,0,.238.025.35.05.175.05.288.1.388.263.038.2,0,.3-.088.488-.063,0-.125,0-.188.013-.225,0-.338-.075-.475-.225-.088-.225-.038-.375.025-.588h-.013Z"/>
  <path class="st11" d="M44.228,68.071h.263s.025,0,.038.013c0,0,.025,0,.038.013,0,0,.025.013.038.025,0,0,.025.013.025.025,0,0,.025.013.025.025,0,0,.013.025.025.025,0,0,.013.025.025.025,0,0,.013.025.025.038,0,0,0,.025.013.038,0,0,0,.025.013.038v.263s0,.025-.013.038c0,0,0,.025-.013.038,0,0-.013.025-.025.038,0,0-.013.025-.025.025,0,0-.013.025-.025.025,0,0-.025.013-.025.025,0,0-.025.013-.038.025,0,0-.025.013-.038.025-.013,0-.038.013-.05.025-.013,0-.038,0-.05.013h-.15c-.013,0-.038,0-.05-.013-.013,0-.038-.013-.05-.025-.013,0-.038-.013-.05-.025s-.025-.025-.038-.038c-.013-.013-.025-.025-.038-.038,0-.013-.025-.025-.038-.05,0-.013-.013-.038-.025-.05,0-.013-.013-.038-.013-.05v-.2c0-.013,0-.038.025-.05,0-.013.013-.038.025-.05,0-.013.025-.025.038-.05,0-.013.025-.025.038-.038.013-.013.025-.025.038-.038.013,0,.025-.025.05-.025.013,0,.038-.013.05-.025l-.038-.037Z"/>
  <path class="st11" d="M40.1,68.671h.463l.013.013.013.013.013.013.013.013v.513l-.013.013-.013.013-.013.013-.013.013h-.063c-.013,0-.038.013-.05.025-.013,0-.038,0-.05.013h-.15c-.013,0-.038,0-.05-.013-.013,0-.038-.013-.05-.025-.013,0-.038-.013-.05-.025-.013,0-.025-.025-.038-.038-.013,0-.025-.025-.038-.038,0-.013-.025-.025-.038-.038,0-.013-.025-.025-.025-.05,0-.013-.013-.038-.025-.05,0-.013,0-.038-.013-.05v-.15c0-.013,0-.038.013-.05,0-.013.013-.038.025-.05,0-.013.013-.038.025-.05,0-.013.025-.025.038-.038,0-.013.025-.025.038-.038l.038-.038c.013,0,.025-.013.05-.025l-.05.113Z"/>
  <path class="st11" d="M42.589,66.745c.013,0,.025-.025.05-.038.013,0,.038-.013.05-.025.013,0,.038-.013.05-.025h.2c.013,0,.038,0,.05.013s.038.013.05.025c.013,0,.025.025.05.025.013,0,.025.025.038.038.013.013.025.025.038.038,0,.013.025.025.025.05,0,.013.013.038.025.05,0,.013,0,.038.013.05v.2c0,.013,0,.038-.025.05,0,.013-.013.038-.025.05,0,.013-.025.025-.038.05,0,.013-.025.025-.038.038-.013,0-.025.025-.038.038,0,0-.025.013-.038.025,0,0-.025,0-.038.013,0,0-.025,0-.038.013h-.263s-.025,0-.038-.013c0,0-.025,0-.038-.013,0,0-.025-.013-.038-.025,0,0-.025-.013-.025-.025,0,0-.025-.013-.025-.025,0,0-.013-.025-.025-.025,0,0-.013-.025-.025-.038,0,0-.013-.025-.013-.038,0,0,0-.025-.013-.038v-.263s0-.025.013-.038c0,0,0-.025.013-.038,0,0,.013-.025.025-.038,0,0,.013-.025.025-.025,0,0,.013-.025.025-.025,0,0,.013-.013.025-.025l.012.012Z"/>
  <path class="st11" d="M45.378,66.47c.013,0,.025-.025.038-.038.013,0,.025-.025.05-.025.013,0,.038-.013.05-.025.013,0,.038,0,.05-.013h.15c.013,0,.038,0,.05.013.013,0,.038.013.05.025.013,0,.038.013.05.025.013,0,.025.025.038.038.013,0,.025.025.038.038,0,.013.025.025.038.038,0,.013.013.025.025.05,0,.013.013.038.025.05,0,.013,0,.038.013.05s0,.038,0,.05v.1c0,.013,0,.038-.013.05,0,.013-.013.038-.025.05,0,.013-.013.025-.025.05,0,.013-.025.025-.038.038-.013.013-.025.025-.038.038h-.5l-.013-.013-.013-.013-.013-.013-.013-.013v-.525l.013-.013.013-.013.013-.013-.012.012Z"/>
  <path class="st11" d="M40.438,67.008h.475l.013.013.013.013.013.013.013.013.013.013v.513l-.013.013-.013.013-.013.013-.013.013h-.525l-.013-.013-.013-.013-.013-.013-.013-.013-.013-.013v-.525l.013-.013.013-.013.013-.013.013-.013.013-.013h.025l.013.025Z"/>
  <path class="st11" d="M50.456,65.595h.263s.025,0,.038.013c0,0,.025,0,.038.013,0,0,.025.013.025.025,0,0,.025.013.025.025,0,0,.013.013.025.025,0,0,.013.013.025.025,0,0,.013.025.025.025l.013.025s0,.025.013.038v.3s0,.025-.013.038c0,0,0,.025-.013.038,0,0-.013.025-.025.025,0,0-.013.025-.025.025,0,0-.013.013-.025.025,0,0-.013.013-.025.025,0,0-.025.013-.025.025,0,0-.025,0-.038.013-.013,0-.038.013-.05.025-.013,0-.038,0-.05.013h-.15c-.013,0-.038,0-.05-.013-.013,0-.038-.013-.05-.025-.013,0-.025-.013-.05-.025-.013,0-.025-.025-.038-.038-.013,0-.025-.025-.038-.038,0-.013-.025-.025-.025-.05,0-.013-.013-.025-.025-.05,0-.013,0-.038-.013-.05v-.2c0-.013,0-.038.013-.05,0-.013.013-.038.025-.05,0-.013.025-.025.038-.038,0-.013.025-.025.038-.038.013,0,.025-.025.038-.038.013,0,.025-.013.05-.025.013,0,.038-.013.05-.025l-.012-.012Z"/>
  <path class="st9" d="M54.184,82.554c.138-.025.138-.038.275.013.075,1.051-.25,3.089-.338,4.24-.15,1.964-.313,3.915-.5,5.878-.088.951-.125,1.914-.238,2.852-.025.163-.05.488-.163.613-.738.763-2.814.888-3.827.901-.85,0-2.514-.138-3.152-.763h-.088c-.275-.013-.775-.375-.976-.563-.213-.475.813-10.931.901-12.295.363.2,7.029-.775,8.105-.888v.012Z"/>
  <path class="st12" d="M45.941,94.924c1.201.45,2.301.8,3.602.8.438,0,.901-.013,1.338-.075.463-.063,1.476-.438,1.876-.188.063.15.05.188.013.338l-.15.063c-.05.063-.1.1-.175.138-1.338.663-4.315.388-5.741-.063-.325-.1-.738-.25-.901-.575-.025-.2.038-.288.138-.45v.012Z"/>
  <path class="st13" d="M51.094,50.636c.325-.038.675-.025,1.001-.013.188.55.55,1.038.838,1.538.175.313.338.625.475.951.15.325.275.65.388.988.438,1.238.688,2.602.088,3.827-.575,1.176-1.638,1.801-2.839,2.214-.363,1.401-.463,2.064-1.601,3.089-.475.438-2.201,1.864-2.839,1.801-.125-.013-.1-.038-.175-.125.05-.788,1.026-1.488,1.426-2.126.138-.225.238-.475.188-.725-1.138-.188-2.001,2.526-2.777,3.002-.15.088-.238.075-.388.038-.638-.75,1.588-2.877,1.651-3.69-.063-.163-.05-.188-.213-.263-.05,0-.1.013-.15.038-.888.413-1.976,3.027-2.301,3.902-.113-.013-.25-.025-.35-.063-.163-.063-.263-.188-.3-.363-.263-.901.85-2.289,1.276-3.014.15-.25.35-.6.275-.901-.05-.013-.05-.025-.1-.013-.725.138-1.713,2.026-1.939,2.677-.113.3-.125.85-.313,1.076l-.113-.063c-.375-.638-.35-1.163-.15-1.864.738-2.476,3.577-3.752,3.802-4.302.025-.05.013-.113.025-.163-.088-.113-.188-.213-.275-.325.575-.876,2.114-2.401,3.064-2.852.638-.3,1.613-.425,2.101-.938q.063-.175,0-.35c-.1-.088-.2-.175-.35-.2-1.026-.175-2.426.938-3.214,1.501-.3-.575-.675-1.113-1.038-1.638,1.363-1.426,2.852-2.351,4.828-2.639v-.013Z"/>
  <path class="st2" d="M32.446,99.864c.163.2.113,1.063.375,1.501.35.563,1.426,1.213,2.076,1.338,1.013.2,1.001-1.288,1.663-1.789.825-.613,2.089-.288,2.914-.85.175.275.5.65.8.763-.263.175-.613.15-.926.213-.926.188-2.139.625-2.814,1.301-.2.2-.338.463-.325.75.025.425.425,1.051.75,1.326.225.188.463.288.75.263.263.038,1.989-.876,2.614-1.013.725-.15,1.388-.138,1.951.4.163.15.325.363.513.475.025.013.038.025.063.038-.388.2-.951.125-1.388.213-.588.113-1.163.3-1.713.538-.363.163-1.001.413-1.151.8.05.15.05.188.175.3l.2-.05c.425.025,1.551-.713,2.064-.876.688-.213,1.476.025,2.164-.275.025,0,.038-.013.05-.025.125,0,.225.025.338.075.713.3,1.538,1.251,1.814,1.964.113.3.15.625,0,.913-.263.55-1.001.85-1.538,1.026-2.064.675-3.927.625-5.866-.375-1.526-.788-5.803-4.052-6.229-5.641-.2-.763.275-2.639.675-3.314v.013Z"/>
  <path class="st2" d="M51.77,97.4h.025c.475.1.738.35,1.126.613-.963.338-1.901.35-2.714,1.113-.3.288-.513.65-.513,1.076,0,.388.188.788.463,1.038.225.2.813.5,1.113.475.463,0,1.976-1.126,3.002-1.213.85-.075,1.326.425,1.914.938-.138.013-.263.038-.4.05-.788.113-2.789.625-3.214,1.313-.088.15-.088.225-.063.388.1.075.125.125.263.1.5-.088,1.363-.7,1.926-.888.55-.188,1.726-.188,1.901-.263.163-.075.138-.2.35-.188.575.375,1.276,1.101,1.613,1.701.175.313.45.85.325,1.213-.063.175-.15.213-.3.288-.088.125-.225.225-.35.313-1.338.863-3.139,1.051-4.665.688-1.663-.4-7.717-3.877-8.555-5.253,0-1.138.163-2.264.363-3.377.113.388.225.763.463,1.088.4.575,1.163,1.213,1.876,1.313.088.013.175.025.263.013,1.076-.063.951-1.338,1.676-1.864.613-.45,1.538-.275,2.089-.675h.025Z"/>
  <path class="st9" d="M25.417,85.281c.475.225,1.351.638,1.876.463-.275,2.464-.363,4.953-.538,7.429l-.976,12.57c-.1,1.288-.238,5.328-.588,6.341-.025.1-.063.2-.113.275-.125.175-.388.263-.6.275-.2.013-.4-.025-.538-.175-.213-.225-.175-.65-.175-.938.013-1.113.125-2.226.2-3.339.113-1.889.238-3.765.375-5.653.4-5.753.763-11.507,1.063-17.26l.013.013Z"/>
  <path class="st8" d="M16.749,43.182c0,.35-.7,1.551-.876,1.976-.55,1.388-2.301,6.929-1.663,8.255.188.388.575.488.951.613-.113.675-.188,1.338-.25,2.026-.825.175-1.651.2-2.489.225-.163,0-.313-.025-.463-.075-.338-.263-.425-.75-.488-1.163-.188-1.301-.05-2.889-.05-4.227,0-1.538-.1-4.065.113-5.503.05-.388.175-.763.413-1.063.75-.951,3.577-.926,4.79-1.051l.013-.013Z"/>
  <path class="st9" d="M67.779,80.928c.188.413.388,4.69.45,5.466.5,6.154,1.101,12.32,1.476,18.473.013.225.038.5-.025.713-.05.188-.213.35-.375.438-.2.1-.438.075-.638-.025-.175-.088-.263-.2-.338-.375-.175-.313-2.201-21.925-2.451-24.427.638-.05,1.276-.163,1.901-.263h0Z"/>
  <path class="st9" d="M11.434,75.238l1.751,1.351c-.238,2.064-2.289,21.988-2.551,22.425-.038.088-.075.188-.15.25-.15.138-.375.175-.575.163-.2-.013-.4-.1-.525-.263-.163-.213-.138-.588-.125-.838.063-1.363.25-2.739.388-4.09l.788-8.117c.225-2.301.438-4.603.638-6.904.113-1.313.188-2.664.388-3.965l-.025-.012Z"/>
  <path class="st13" d="M27.443,37.653c.7.288,1.313.863,2.001,1.201,2.964,1.488,5.853,2.276,9.18,2.264-.163.725-.35,1.163-.901,1.676-.675.55-1.538.813-2.389.901-.063,0-.125,0-.188.013h-.988c-.063,0-.125,0-.188-.013-.063,0-.125,0-.188-.013-.063,0-.125-.013-.188-.025-.063,0-.125-.013-.188-.025-.063,0-.125-.025-.188-.038-.063,0-.125-.025-.188-.038-.063-.013-.125-.025-.188-.038-.063-.013-.125-.025-.188-.05s-.125-.038-.188-.05-.125-.038-.188-.05c-.063-.025-.125-.038-.188-.063s-.125-.038-.188-.063-.125-.05-.188-.063c-.063-.025-.125-.05-.175-.075-.063-.025-.125-.05-.175-.075-.063-.025-.113-.05-.175-.088-.063-.025-.113-.063-.175-.088s-.113-.063-.175-.088-.113-.063-.175-.1c-.05-.038-.113-.063-.163-.1s-.113-.063-.163-.1-.113-.075-.163-.113-.113-.075-.163-.113-.1-.075-.163-.113c-.05-.038-.1-.075-.15-.113-.05-.038-.1-.075-.15-.125-1.351-1.151-1.964-2.526-2.114-4.265v.025Z"/>
  <path class="st8" d="M17.512,41.556c.138-.025.188-.05.313.025-.063.275-.338.563-.513.788-1.401.038-3.277.138-4.628.488-.675.175-1.251.563-1.601,1.176-.225.388-.338.825-.388,1.276-.2,1.551-.088,3.214-.088,4.778,0,1.613-.113,3.302.025,4.915.025.325.113.638.2.951-.213-.075-.413-.175-.625-.275-.05-.038-.1-.063-.15-.113-.538-.438-.663-.775-.725-1.463-.15-1.413-.075-2.902-.075-4.328,0-1.789-.138-3.815.15-5.578.075-.438.213-.888.5-1.238.313-.388.788-.6,1.251-.725.788-.225,1.701-.25,2.514-.325l3.84-.363v.013Z"/>
  <path class="st2" d="M31.971,49.935c.313.163,4.077,6.704,4.528,7.454-.263-.2-.538-.35-.838-.5-.488-.225-1.026-.288-1.551-.375-.85-2.026-2.214-3.902-3.302-5.816.35-.35.713-.575,1.163-.788v.025Z"/>
  <path class="st10" d="M39.938,101.503c.35.138.85.038,1.238.15.325.1.6.85.738,1.151-.375.25-1.201.125-1.663.188-.575.075-1.201.538-1.764.538,0,0-.013.013-.025.025-.213.213-.475.4-.788.413-.163,0-.338-.113-.45-.225-.175-.188-.313-.363-.313-.625.338-1.113,2.376-1.176,3.002-1.601,0,0,.025-.013.025-.025v.013Z"/>
  <path class="st9" d="M12.034,57.077c.663.075,1.326.05,2.001.025,0,1.038-.013,2.089-.038,3.127-.65,0-1.313.088-1.951.175v-3.327h-.013Z"/>
  <path class="st10" d="M52.933,98.601c.275.125.563.038.825-.05.038.05.075.088.138.125.5.3.838.713,1.288,1.063-.425.263-1.163.138-1.651.263-.463.125-.913.463-1.401.5-.225.25-.5.425-.838.488h-.038c-.175,0-.613-.275-.725-.4-.113-.138-.15-.3-.125-.475.188-1.088,1.839-1.026,2.489-1.488,0,0,.025-.013.038-.025h0Z"/>
  <path class="st13" d="M43.803,58.716h.15l.05.063c-.263.363-.675.675-1.001.976-.563.063-3.327.363-3.665.175-.2-.263-.438-.513-.663-.75,1.701-.188,3.427-.275,5.128-.463h0Z"/>
  <path class="st3" d="M45.328,53.438c.488.675,1.026,1.326,1.276,2.126-.513.513-1.013,1.026-1.476,1.588-.225.238-.425.5-.638.75.35-1.488.538-2.977.838-4.465h0Z"/>
  <path class="st6" d="M29.257,46.158h.288c.563.088,1.113,1.238,1.451,1.701-.338.113-.663.263-.988.4l-.525.375-.951-1.651c.188-.35.425-.575.725-.838v.013Z"/>
  <path class="st13" d="M46.154,97.2h.038c.713.25,2.126.788,2.814.438-.125.288-.375.613-.588.838-.063.225-.125.45-.263.65-.488-.038-1.026-.263-1.388-.575-.425-.375-.575-.788-.613-1.351h0Z"/>
  <path class="st13" d="M33.234,100.052c.738.4,1.889.588,2.739.525-.075.238-.4.588-.588.75-.075.213-.15.488-.325.65-.063,0-.063.013-.138,0-.525-.05-1.188-.538-1.488-.951-.238-.325-.263-.575-.2-.963v-.013Z"/>
  <path class="st13" d="M23.941,84.355c.225.138.375.325.625.4-.038,1.826-.213,3.652-.238,5.491,0,.113,0,.188-.063.288-.225-.8-.288-4.99-.338-6.166l.013-.013Z"/>
  <path class="st1" d="M39.775,62.855c.288.575.388,1.764.513,2.426l-.6-.45c-.275-.238-.575-.45-.876-.675.113-.225.188-.463.288-.7.25-.175.463-.388.688-.6h-.013Z"/>
  <path class="st2" d="M31.12,48.535c.238.1.463.538.613.75-.488.213-.838.45-1.213.838-.25-.288-.438-.625-.638-.938.413-.263.788-.488,1.238-.663v.013Z"/>
</svg>