<?xml version="1.0" encoding="UTF-8"?>
<svg id="Layer_1" xmlns="http://www.w3.org/2000/svg" version="1.1" viewBox="0 0 80 115">
  <!-- Generator: Adobe Illustrator 29.1.0, SVG Export Plug-In . SVG Version: 2.1.0 Build 142)  -->
  <path d="M18.8,1s0,0,0,0c1.7-.1,2.9.3,4.1,1.4.6-.3,1.1-.5,1.8-.6,0,0,.1,0,.2,0,0,0,.1,0,.2,0,0,0,.1,0,.2,0,0,0,.1,0,.2,0,0,0,.1,0,.2,0,0,0,.1,0,.2,0s.1,0,.2,0c0,0,.1,0,.2,0,0,0,.1,0,.2,0,0,0,.1,0,.2,0,0,0,.1,0,.2,0,0,0,.1,0,.2,0,0,0,.1,0,.2,0,0,0,.1,0,.2.1,0,0,.1,0,.2.1,0,0,.1,0,.2.1,1.2.9,1.6,2.2,1.8,3.6,3.7-1.1,7.3-1.1,11.1-.2,3.4.9,7.2,2.8,9.1,5.9,1.7.5,3.2,1.6,4.2,3,0,0,0,.1.1.2,0,0,0,.1.1.2,0,0,0,.1.1.2s0,.1.1.2c0,0,0,.1.1.2,0,0,0,.1.1.2,0,0,0,.1,0,.2,0,0,0,.1,0,.2,0,0,0,.1,0,.2,0,0,0,.1,0,.2s0,.1,0,.2c0,0,0,.1,0,.2,0,0,0,.1,0,.2,0,0,0,.1,0,.2,0,0,0,.1,0,.2,0,0,0,.1,0,.2,0,0,0,.1,0,.2,0,0,0,.1,0,.2,0,0,0,.1,0,.2,0,0,0,.1,0,.2,0,0,0,.1,0,.2,0,0,0,.1,0,.2,0,0,0,.1,0,.2s0,.1,0,.2c0,0,0,.1,0,.2,0,0,0,.1,0,.2,0,0,0,.1,0,.2,0,0,0,.1,0,.2,0,0,0,.1,0,.2,0,0,0,.1,0,.2,0,0,0,.1,0,.2,0,0,0,.1,0,.2-.3,2-1.4,3.8-3,5-.2,1.6-.7,3.1-.8,4.6-.1,1.5.1,3-.1,4.6-.5,3.1-2.1,6.1-4.7,7.9,0,0,0,0,0,0,1.5,1.7,7.8,9.6,7.6,11.5,0,.4-.4.7-.7.9.6,1.4,1.2,2.8,1.2,4.3,1.3.5,2.6,1.2,3.9,1.9,2.5,1.3,4.9,2.6,7.3,3.9l3.7,2c.8.4,1.6.8,2.3,1.4.4.4.6.8.7,1.3,0,1,0,2.9-.6,3.7-.5.6-1.4.7-2.1.8-.2,1.5-.2,4.3-1.1,5.5-.2.3-.5.6-.8.7.4,4.6.5,9.2.7,13.8.1,2.4.3,4.7.4,7.1,0,1.2.2,2.5.2,3.7,0,.4,0,.8-.3,1.1-.3.4-.9.7-1.4.8-.6,0-1.2,0-1.7-.5-.4-.3-.6-.7-.7-1.2-.1-.7,0-1.4,0-2l-.2-4.3-.6-11.6c-.1-2-.2-3.9-.3-5.9-.4.2-7,1-7.4.9.3,1.3,1.4,5.3,1.1,6.4-.2.8-.9,1.3-1.6,1.7-.7.4-3.7,1.8-4.5,1.6-.1.4-.3.9-.5,1.3-.4.9-1.1,1.9-1.2,2.9-.3,2.4,4.4,5.2,4.7,7.3,0,.7-.2.8-.6,1.3-.1.2-.2.4-.3.5-.3.4-.9.7-1.4.7-.2.2-.3.3-.5.4-.4.2-2,.8-2.4.8,0,0-.1,0-.2,0,0,0-.1,0-.2,0,0,0,0,0-.1,0,0,0,0,0-.1,0-.5-.2-.9-.5-1.3-.8-.4-.2-.9-.4-1.3-.6-.1,0-.2-.2-.3-.3s-.2-.2-.3-.3c-.5-.7-.7-1.6-1.2-2.2-.5-.6-1.1-1-1.7-1.6-1.2-1.1-1.5-2.7-.8-4.2.3-.6.8-1.2,1-1.9.2-.8.1-1.6.1-2.4-.1,0-5.1,1-5.2,1-.3,1.4-.9,2.9-1,4.3,0,.5,0,1.3.4,1.7.4,1.2,2.3,3.6,3.2,4.6.4.5.8.9,1.2,1.4.2.2.3.5.3.8,0,.3,0,.7-.3.9-.3.3-.7.5-1.1.5-.3,0-.6,0-.9-.3-.1.3-.3.6-.6.8,0,0,0,0,0,0,0,0,0,0,0,0,0,0,0,0,0,0,0,0,0,0,0,0,0,0,0,0,0,0,0,0,0,0,0,0,0,0,0,0,0,0,0,0,0,0,0,0-.3,0-.5-.1-.7-.3-.6.9-1.2,0-1.9.3-.2,0-.3.1-.5.1-.3,0-.6-.2-.9-.2-.3,0-.5,0-.8,0-.6,0-1.4-.8-1.8-1.2-.7-.7-1.1-1.6-1.7-2.4-1.4-1.9-2.3-2.8-1.3-5.3.3-.7.6-1.4.7-2.2.2-1,0-2.1,0-3.2,0,0,0,0-.1,0-.4,0-2,0-2.3-.3-.2,4-.5,7.9-.8,11.9l-.2,3.6c0,.6,0,1.2-.2,1.8,0,.5-.3.9-.6,1.2-.5.4-1.1.5-1.7.5-.6,0-1.1-.3-1.5-.7-.3-.3-.4-.7-.4-1.1,0-1.7.2-4.1.3-5.8l.7-11.8c-.2,0-.3,0-.4,0-1.7-.5-4.8-1.8-5.7-3.5-.2-.4-.2-.8-.2-1.2.1-1.8,1.3-5.1,1.9-7-.3,0-3.7-2.6-4.2-2.9,0,1.4-.3,2.8-.4,4.2l-.9,9.6-.5,4.9c-.1,1-.1,2.2-.4,3.2,0,0,0,0,0,.1,0,0,0,0,0,.1,0,0,0,0,0,.1,0,0,0,0,0,.1,0,0,0,0,0,0,0,0,0,0,0,0,0,0,0,0,0,0,0,0,0,0,0,0-.5.4-1.1.5-1.7.4-.6,0-1.1-.3-1.4-.8-.2-.3-.4-.7-.4-1.1,0-1.2.2-2.4.3-3.6.2-2.5.5-5,.8-7.5l.8-8.7c.1-1.3.2-2.7.4-4-.1,0-.2-.2-.3-.3-.3-.3-.5-.7-.6-1.2-.3-1.2-.1-3.9-.1-5.3-.5-.3-1.1-.7-1.5-1.1-.5-.5-.8-1-.8-1.7,0-.9-.2-2.9.4-3.6.6-.7,2.2-.6,3-.6v-5.2c-.8-.2-1.5-.3-2.1-.8-.7-.5-1-1.3-1.2-2.2-.2-1.5-.2-3-.2-4.5,0-1.5,0-3.2.2-4.7,0-.5.3-.9.5-1.3.4-.5.9-.8,1.5-.9,1.2-.3,2.5-.3,3.8-.5l6.2-.6c1.2-.1,2.3-.2,3.5-.3.7-.1,1.4-.5,2.1-.7.7-.3,1.5-.4,2.3-.5-.9-1-1.6-1.9-2.3-3.2-.1,0-.2.1-.4.2-1,.5-2.2.5-3.2,0-1.5-.5-2.6-1.7-3.3-3.1,0,0,0-.1,0-.2s0-.1,0-.2c0,0,0-.1,0-.2,0,0,0-.1,0-.2,0,0,0-.1,0-.2,0,0,0-.1,0-.2,0,0,0-.1,0-.2,0,0,0-.1,0-.2,0,0,0-.1,0-.2,0,0,0-.1,0-.2,0,0,0-.1,0-.2,0,0,0-.1,0-.2,0,0,0-.1,0-.2,0,0,0-.1,0-.2,0,0,0-.1,0-.2s0-.1,0-.2,0-.1,0-.2c0,0,0-.1,0-.2,0,0,0-.1,0-.2,0,0,0-.1,0-.2,0,0,0-.1,0-.2,0,0,0-.1,0-.2,0,0,0-.1,0-.2,0,0,0-.1,0-.2,0,0,0-.1,0-.2,0,0,0-.1,0-.2,0,0,0-.1,0-.2,0,0,0-.1,0-.2s0-.1,0-.2c0,0,0-.1,0-.2,0,0,0-.1,0-.2,0,0,0-.1,0-.2-.7-2.2-.7-4.6-.5-6.8-.7-.2-1.4-.5-2-1-.7-.7-.8-1.6-.8-2.5,0,0-.2,0-.3-.1-1-.5-1.8-1.3-2.1-2.3-.4-1.1-.3-2.2.2-3.3,0,0,0,0-.1-.1,0,0,0,0-.1-.1,0,0,0,0-.1-.1,0,0,0,0-.1-.1,0,0,0,0-.1-.2,0,0,0-.1-.1-.2,0,0,0-.1-.1-.2,0,0,0-.1-.1-.2,0,0,0-.1,0-.2,0,0,0-.1,0-.2,0,0,0-.1,0-.2,0,0,0-.1,0-.2,0,0,0-.1,0-.2,0,0,0-.1,0-.2,0,0,0-.1,0-.2,0,0,0-.1,0-.2-.2-1.2.1-2.5.8-3.4.8-1.1,1.8-1.5,3.1-1.7,0-1,.2-1.9.7-2.7.8-1.2,1.9-1.8,3.2-2.1ZM14.3,63.3c.4,0,.8-.1,1.2-.1,0-.3-.2-.6-.3-.9-.3-1.1-.3-2.1-.1-3.2-.2,0-.4-.2-.5-.2,0,1.5,0,3-.2,4.4Z" fill="#462311"/>
  <path d="M47.8,16.8c.8.5,1.4,1.3,2,2,1.6,2.2,2,5,1.7,7.7-.2,1.3-.5,2.6-.8,3.9-.2,1.4,0,3.3-.1,4.8-.1.3-.1.8-.2,1.2,0,0,0,.2,0,.3,0,0,0,.2,0,.3s0,.2,0,.3c0,0,0,.2,0,.3,0,0,0,.2,0,.3,0,0,0,.2,0,.3,0,0,0,.2-.1.2,0,0,0,.2-.1.2,0,0,0,.2-.1.2,0,0,0,.2-.1.2,0,0,0,.2-.1.2,0,0,0,.2-.1.2,0,0,0,.2-.1.2,0,0,0,.2-.1.2,0,0,0,.1-.1.2,0,0-.1.1-.2.2,0,0-.1.1-.2.2,0,0-.1.1-.2.2,0,0-.1.1-.2.2,0,0-.1.1-.2.2,0,0-.1.1-.2.2,0,0-.1.1-.2.2,0,0-.1.1-.2.2,0,0-.1.1-.2.2,0,0-.1.1-.2.2,0,0-.1.1-.2.2,0,0-.1.1-.2.2,0,0-.1.1-.2.2,0,0-.1.1-.2.2,0,0-.1.1-.2.2,0,0-.1.1-.2.2,0,0-.1,0-.2.1-3,1.9-6.6,2.5-10,1.7-3.5-.8-7.1-3-9.1-6-.3-.5-.6-1-.8-1.5-.1-.3-.1-.6-.3-.9,0,0,0,0-.2-.1-.3.2-.4.5-.6.7-.4.4-.8.6-1.4.6-1.1,0-2.3-.4-3.1-1.2-1.2-1.1-1.7-2.6-1.8-4.2,0-.9,0-2.1.7-2.8.4-.4,1.1-.7,1.7-.7,2.1,0,2.8,2.3,4.1,3.5,1.2-1,2.3-3.1,2.7-4.6.2,0,.5,0,.7,0,.7-.1,1.3-.5,1.7-1.1.7-1,.6-2.1.4-3.2,2.1-.4,4.1-1,5.9-2.3.4-.3.8-.8,1.2-1,0,0,0,0,.1.2-.1.3-.4.7-.6,1-.2.5-.6,1.3-.5,1.8.2.2.4.3.6.3,2.5.5,5.2-.1,7.3-1.5,2-1.3,3.1-3,3.6-5.3Z" fill="#a95427"/>
  <path d="M35,24.5c.7-.1,1.5,0,2.1.3.4.1,1,.5,1.2.9,0,.1,0,.3,0,.4,0,.1-.2.3-.3.3-.2,0-.7,0-1-.1-1.3-.2-2.4,0-3.6.5-.6.3-1.5,1.2-2,1.3-.1,0-.2,0-.3,0,0,0,0,0,0-.1,0-.5.2-.9.5-1.3.8-1.1,2-1.7,3.4-1.9Z" fill="#462311"/>
  <path d="M35.3,38.5c.8,0,1.3,1,1.8,1.4.5.4,1.1.7,1.7.9,1,.3,2.4.2,3.3-.1.5-.2,1.2-.9,1.8-.8.1,0,.1.1.2.3,0,.2-.1.3-.3.5-.5.5-1.2.9-1.9,1.1-1.5.5-3.2.3-4.6-.4-.8-.4-1.8-1.1-2.1-2,0-.3,0-.5,0-.8Z" fill="#462311"/>
  <path d="M47.3,24c.3,0,.7,0,1,.1.8.3,1.5.8,1.9,1.6.2.3.2.7.1,1,0,.1,0,.1-.2.2-.2,0-1.2-.7-1.5-.9-.6-.2-1.3-.3-1.9-.3-.5,0-1.3.4-1.7.2,0,0,0-.1,0-.2,0-.3.2-.7.4-.9.5-.6,1.3-.8,2.1-.8Z" fill="#462311"/>
  <path d="M31.6,31.5c.6,0,1.1,1.6,2.7,1.7,1.5.2,1.6-.5,2.7-1.3.2-.1.3-.2.5-.2,0,0,0,0,0,.1.1.4,0,.7,0,1-.4.6-.9,1-1.5,1.3-.9.4-1.9.3-2.7,0-.7-.3-1.4-.8-1.6-1.5-.1-.4-.2-.8,0-1.2Z" fill="#462311"/>
  <path d="M48.6,30.9c.1,0,.2,0,.3.1,0,.1.1.2.1.3,0,.6-.4,1.3-.8,1.7-.5.5-1.2.8-1.9.8-.7,0-1.3-.3-1.8-.8-.1-.2-.2-.4-.3-.6,0-.3-.2-.6,0-.9.5,0,1.1,1,2,1,1.1,0,1.7-1,2.4-1.7Z" fill="#462311"/>
  <path d="M42.5,34.8c.1,0,.3,0,.4,0,0,0,0,0,0,0,0,0,0,0,0,0,0,0,0,0,0,0,0,0,0,0,0,0,0,0,0,0,0,0,0,0,0,0,0,0,0,0,0,0,0,0,0,0,0,0,0,0,0,0,0,0,0,0,0,0,0,0,0,0,0,0,0,0,0,0s0,0,0,0c0,0,0,0,0,0,0,0,0,0,0,0,0,0,0,0,0,0,0,0,0,0,0,0,.2.5.3,1.1.1,1.6-.2.5-.6.9-1.1,1.2-.9.4-1.8.3-2.7,0-.3-.1-.5-.3-.6-.6,0-.2-.1-.2,0-.4.3-.2,1.3.2,1.7.2.5,0,1.2,0,1.6-.3,1.2-1.1-.4-1.8-.3-2.7Z" fill="#462311"/>
  <path d="M20.2,30.8c.4,0,.8,0,1.2.2.8.4,1.4,1.4,1.7,2.3.1.4.3.8,0,1.1-.4.2-.8-1.4-1.3-1.5,0,0,0,0,0,0-.2.1-.2.6-.2.8,0,.4.3,1.2.1,1.5,0,0,0,0-.1,0,0,0-.1,0-.2,0-.3-.3-.5-1-.6-1.4,0-.7,0-1.2.5-1.8-.3-.2-.7-.5-1.1-.6-.1,0-.3.2-.4.3-.2,0-.2,0-.4,0,0-.1,0-.2,0-.3.1-.3.4-.5.7-.7Z" fill="#462311"/>
  <path d="M54.9,61.3c1.8.8,16.6,8.4,17,9.1,0,.1,0,.2,0,.3-.1,0-.2.1-.3.1-.4,0-.8,0-1.2.1-.8,0-1.5.2-2.3.3-2.2.2-4.5.5-6.7.7l-24,2.9c-2.3.3-4.7.5-7,.7-1.7.2-4,.6-5.7.2-1.2-.3-4.5-2.7-5.6-3.5-1.6-1.1-3.3-2.2-5-3.3-.6-.4-6-3.8-6.1-4,0,0,0,0,0-.1.1-.1.2-.2.3-.2.7-.2,1.6-.2,2.3-.2l5.1-.4c.1.2.3.3.4.5,2.1,2.2,5.4,3,8.4,3.1.9.6,1.7,1.3,2.5,1.9,1.5,1.2,3,2.3,4.5,3.5.8.6,1.5,1.3,2.4,1.8.8,0,1.7-.2,2.5-.3l4.2-.5,13.1-1.6c.7,0,3.5-.3,4-.6.2,0,.2-.2.3-.4-.2-.5-6.4-4.8-7.2-5.3,2-1.4,3.4-2.4,4.2-4.8Z" fill="#59b1a0"/>
  <path d="M55.2,83.6c.2,0,.6,0,.8-.2,0,.4.5,1.6.4,1.9.1.4.5,1.8.4,2.1.1.3.2.7.2,1,.1.5.1.9-.2,1.4-.5.8-1.7,1.3-2.5,1.6,0,0-.1,0-.2,0-.2.3-1.4.7-1.8.8,0,0-.1,0-.2,0-.2.3-1,.5-1.3.5,0,0-.2,0-.2,0-.2.2-.5.2-.7.3-.2,0-.3,0-.5,0,0,0,0,0,0,0-.3.3-.7.3-1,.3-.1,0-.2,0-.3,0-.4.2-1.7.3-2.1.1,0,0,0,0-.1,0,0,0-.1,0-.2,0-.6.1-1.4,0-2.1.1-.5,0-1.6.3-2.1.2,0,0-.1,0-.2-.1,0,0-.1.1-.2.1-.1,0-3.5.8-3.7.8h-.1c-.3.2-.7.2-1.1.2-.9,0-6.2.3-6.7,0-.1,0-.3,0-.5,0-.2,0-.3,0-.5-.2h-.2c-.3.2-.7.2-1,0,.3-2.5.3-5.1.4-7.6,0,0,0,0,0,0,.3,0,1.1,0,1.3-.2,0,0,0,0,0,0,.3.1,2.2-.1,2.5-.3.3,0,.6,0,.9-.1.2.1.4,0,.7,0,.2,0,.4,0,.6,0,.5,0,3.3-.2,3.8-.5.7.1,1.5-.2,2.2-.1-.3,0-.5,0-.8.2h0c.3.2.5.2.8.2.3,0,.6,0,.8-.2-.1,0-.3,0-.4,0h0c.6-.4,1.3-.2,2-.5.7,0,2.2-.2,3-.3.3,0,.7,0,1.1-.1.5,0,1.4,0,1.9-.2.3,0,.7,0,.9-.1.3,0,.6,0,.9,0,.8,0,1.6-.2,2.4-.3.9,0,1.8-.2,2.7-.3Z" fill="#d60000"/>
  <path d="M49.2,84.3c.3,0,.6,0,.9,0,0,0,0,0,0,0,.2.3.4.5.7.7.8.7,1.4,1.4,1.9,2.3.2.4.3.8.2,1.2,0,.1,0,.2-.1.2-.2,0-.6,0-.8-.1-.1-.1-.3-.3-.4-.3,0,.2,0,.3,0,.4-.3.1-1.3-.2-1.7-.3-1-.4-1.1-1.4-1.5-2.2-.2-.3-.5-.5-.6-.8,0,0,0,0,0,0-.1.2-.3.5-.5.6,0,.4,0,.8.2,1.2.1.4.7,1.3.7,1.7-.2.1-.5,0-.7,0-.4-.1-1-.5-1.3-.9-.5-.8.1-2.3.2-3.2.5,0,1.4,0,1.9-.2.3,0,.7,0,.9-.1Z" fill="#327b2c"/>
  <path d="M48.3,84.4c.3,0,.7,0,.9-.1,0,0,0,0,0,0,.2.8,1.4,1.1,1.7,1.9h0c-.2,0-1.5-1.1-1.8-1.3-.2-.2-.6-.3-.8-.5Z" fill="#c82526"/>
  <path d="M34,86.1c.5,0,3.3-.2,3.8-.5.1.3.3.5.1.9,0,.2-.2.2-.3.3-.6.2-2.3.8-2.8.6,0-.1,0-.1,0-.3.1-.2.4-.5.5-.7,0,0-.2,0-.3,0-.2,0-.4.3-.5.5-.3.5-.3,1.4-.7,1.8h-.2c-.1,0-.1-.1-.1-.3,0-.8.5-1.6.6-2.3Z" fill="#d5bc2a"/>
  <path d="M42.3,85.1c.7,0,2.2-.2,3-.3,0,0,0,0,0,0-.1.5-.5.9-.6,1.4,0,.5.2,1.1,0,1.7-.4,0-1-1.2-1.3-1.5-.3-.3-.8-.6-1-.9,0-.1-.1-.2-.2-.3Z" fill="#327b2c"/>
  <path d="M31.9,86.3c.3.3.6,1,.6,1.4h0c0,0,0,0,0,0-.2-.2-.8-.6-1.1-.6,0,0,0,0,0,0,0,.3.7.8.9.9,0,0,0,0,.1,0-.6.2-1.8,0-2.4-.4-.3-.2-.5-.4-.6-.7,0-.2,0-.4,0-.5,0,0,0,0,0,0,.3.1,2.2-.1,2.5-.3Z" fill="#d5bc2a"/>
  <path d="M56.8,87.5c.1.3.2.7.2,1,0,0,0,0,0,0-.3.5-1.1.9-1.6,1.1-.2,0-.6,0-.8,0-.1,0-.1-.1-.1-.2.2-.6,1.1-1.2,1.7-1.5.2,0,.5-.1.7-.3,0,0,0,0,0,0Z" fill="#327b2c"/>
  <path d="M37.2,94.2c.2-.1.3-.3.4-.5.6-.6,1.5-.9,2.4-.9.5,0,.9.2,1.2.5,0,0-.1.1-.2.1-.1,0-3.5.8-3.7.8h-.1Z" fill="#327b2c"/>
  <path d="M49.4,92.8c.4-.8.8-1.7,1.6-2.1.2,0,.4-.2.5-.1,0,0,0,0,0,.1.1.5-.6,1.5-.9,2-.2.2-.5.2-.7.3-.2,0-.3,0-.5,0,0,0,0,0,0,0Z" fill="#327b2c"/>
  <path d="M52.2,92.2c0-.5.4-1.1.7-1.5.2-.2.5-.5.8-.5.1,0,.2,0,.3.1.2.2.2.8.2,1.1-.2.3-1.4.7-1.8.8,0,0-.1,0-.2,0Z" fill="#327b2c"/>
  <path d="M28.8,93.5c.3-.3.7-.6,1.1-.6.2,0,.2,0,.3.2,0,.4-.1.7-.3,1,0,.1-.2.3-.3.3-.1,0-.3,0-.5,0-.2,0-.3,0-.5-.2,0-.3.2-.6.2-.8Z" fill="#327b2c"/>
  <path d="M55.2,83.6c.2,0,.6,0,.8-.2,0,.4.5,1.6.4,1.9-.5-.2-.9-1.3-1.2-1.8Z" fill="#327b2c"/>
  <path d="M45.8,93c0,0,0-.1.2-.2.4-.2,1.3-.4,1.7-.2.2,0,.2.2.3.3-.4.2-1.7.3-2.1.1,0,0,0,0-.1,0Z" fill="#00bcd6"/>
  <path d="M32.8,86.2c.2.1.4,0,.7,0,0,.3-.1.7-.3.9h-.1c-.2-.1-.2-.3-.2-.5,0-.1,0-.2,0-.4Z" fill="#d5bc2a"/>
  <path d="M34.5,89.1c.8.3,1.5,1.1,1.8,1.9.3.6.5,1.5.3,2.1,0,.2-.2.4-.4.4-.4.1-.9,0-1.2-.1,0,0-.1.2-.2.2-.2.2-.5.2-.7.2-.3,0-.6-.2-.8-.4,0,0,0,0,0,0-.1,0-.2-.1-.2-.2-.3-.5-.2-1.2,0-1.7,0-.5.4-1.7.8-2h.1c.3.4.4.9.5,1.3,0,.2.1.4.4.5.3-.5-.3-1.6-.1-2.2,0,0,0,0,0,0Z" fill="#d5bc2a"/>
  <path d="M30.7,88.7s0,0,0,0c.3.1,1.5.1,1.8,0-.2.3-.7.6-.9.9-.2.3-.4.6-.6.8.3,0,1.8-1,2-1.2-.1.5-.6,1.9-.9,2.3,0,0,0,.1,0,.2-.1.4-.4.7-.8.9-.7.3-1.4-.1-2-.4,0-.1.1-.4,0-.6-.1-.2-.4-.3-.5-.5-.2-.3-.2-.8,0-1.1.3-.9,1.2-1,1.9-1.3,0,0,0,0,0,0Z" fill="#d5bc2a"/>
  <path d="M36.4,87.5c.4.2.9,0,1.3.2.5.1.9.5,1.1.9.2.4.3,1,.1,1.4-.1.4-.4.7-.8.9-.3.1-.6.2-1,0-.4-.1-.6-.5-.8-.8-.3-.1-.7-.8-1-1.1-.1-.1-.3-.2-.5-.3.4-.2,1.2.3,1.6-.1h0c0-.2,0-.2-.2-.2,0,0,0,0,0,.1-.4-.1-1.3-.2-1.5-.5,0,0,0,0,0,0,.5-.1,1.2-.3,1.6-.5Z" fill="#d5bc2a"/>
  <path d="M41.3,89.6c.2,0,.4,0,.6,0,.5.2,1,.7,1.2,1.2.2.3.4,1.1.2,1.4-.4,0-.8-.5-1.2-.7h0s-.2,0-.2,0h0c0,0,0,0,0,0h0c0,.3.1.4.3.5.2.3.3.6.6.7-.3.1-.6.1-1,0-.5,0-1-.3-1.3-.7-.3-.4-.5-.9-.4-1.4,0-.7.4-.7.9-1.1,0,0,0,0,0,0Z" fill="#00bcd6"/>
  <path d="M46.1,89.2c.3.1.4,0,.7.3,0,0,0,0,0,0,0,0,0,0,0,0,0,0,0,0,0,0,0,0,0,0,0,0,0,0,0,0,0,0,0,0,0,0,0,0,0,0,0,0,0,0,0,0,0,0,0,0,0,0,0,0,0,0,0,0,0,0,0,0,0,0,0,0,0,0,0,0,0,0,0,0,0,0,0,0,0,0s0,0,0,0c0,0,0,0,0,0,0,0,0,0,0,0,0,.6-.5,1.1-1,1.5-.3.2-.7.6-1.1.5.2-.4.3-.8.3-1.3h0c-.3.1-.6.6-.8.8-.1.1-.2.3-.4.3,0,0,0,0-.1-.2-.2-.4,0-1.3.2-1.7.4-.9,1.1-1.1,1.9-1.4Z" fill="#00bcd6"/>
  <path d="M39.4,86.1c.4.2,1,.2,1.4.3.6.2,1.4.8,1.6,1.4,0,.2,0,.2,0,.4,0,0,0,0-.1,0-.2,0-.4,0-.6,0,0,0,0,0,0,0-.5.1-2.3-.6-2.7-.9-.2-.1-.4-.3-.4-.5.2-.3.5-.4.8-.6Z" fill="#327b2c"/>
  <path d="M54.9,86.4c.4.2.9,0,1.4.2.2,0,.2.1.3.3,0,.1,0,.2-.2.3-.2.1-.5.2-.7.1-.2.1-.4.1-.6.1-.3,0-.8-.1-1-.4,0,0,0,0,0-.2.2-.2.6-.3.9-.4h0Z" fill="#327b2c"/>
  <path d="M53.9,84.3c.3.2.6.2.9.3,0,0,0,0,.1.2,0,.1-.2.2-.3.3-.2.1-.5.3-.7.2,0,0-.2.1-.3.2-.2,0-.5,0-.7-.2,0-.1,0-.1,0-.2.2-.4.6-.5,1-.7Z" fill="#327b2c"/>
  <path d="M7.9,65.6c.4.2.8.5,1.2.8l2.4,1.6,8.1,5.4c1.3.8,2.5,1.8,3.8,2.5,1,.6,2.1.7,3.2.7,1.1,0,2.3-.2,3.4-.3,1.8-.2,3.7-.4,5.5-.6,7.2-.8,14.3-1.7,21.4-2.6,2.9-.3,5.9-.7,8.8-1,1.8-.2,4.6-.3,6.3-.7,0,.9,0,1.9-.4,2.6,0,0,0,0,0,.1-.4.4-.9.4-1.4.5-2.3.4-4.6.5-6.9.8l-17.9,2.1c-4.3.5-8.5,1-12.8,1.4-2.1.2-4.2.6-6.3.6-1,0-1.9-.2-2.8-.6-1-.5-2-1.2-2.9-1.8l-6.1-4.1-3.7-2.4c-.9-.6-2-1.2-2.7-1.9-.4-.5-.3-2.4-.3-3Z" fill="#59b1a0"/>
  <path d="M10.3,71.1c2.7,1.8,5.4,3.6,8.1,5.4,1.8,1.2,3.6,2.6,5.5,3.4,0,1.1-.2,3.9,0,5,0,.1.1.1.3.2,0,0,.1,0,.2,0,0-.1.1-.2.2-.3.1-.8,0-3.5,0-4.3-.1-.1-.2-.1-.4-.2h0s0,0,0,0c.3,0,1,.2,1.4.2.7,0,1.5,0,2.2,0,5.8-.5,11.7-1.4,17.5-1.9-.5.3-1.3.7-1.4,1.4,0,.2,0,.4.2.6,0,.1.2.2.3.3.2.2.7.4,1,.4,0,0,0,0,0,0-.4.5-.9.6-.8,1.3,0,.3.2.5.4.7.3.2.6.2.9.2.4,0,.9-.4,1.2-.7,0,.4,0,.8.2,1.2,0,0-.1.1-.3.1-1.2.2-2.6.3-3.8.5-2.9.4-5.8.7-8.7,1l-5,.5c-1.1.1-2.2.3-3.3.3-.5,0-1.2,0-1.7-.3-1.2-.6-2.4-1.5-3.6-2.3l-5.3-3.8c-1.3-.9-3.7-2.4-4.7-3.4-.7-.7-.4-4.2-.4-5.1Z" fill="#f9704a"/>
  <path d="M39.6,79.5c2.3-.3,3.2,1.6,4,1.6,0,0,0,0,0,0-.2.3-.7.6-.9.8-.5.5-.9,1.1-1.4,1.5-.2.2-.4.3-.7.4,0,0,0,0,0-.1,0-.5.2-.6.5-.9.1-.1.2-.2.2-.3-.7-.2-1.4.7-2.1.6-.2.1-.4.2-.7.2-.6,0-1.6-.2-2.1-.7-.1-.1-.2-.3-.2-.5,0-.3.2-.5.4-.7.9-.7,2.5,0,3.5,0,.4,0,.8,0,1.2-.3,0,0,0,0,0,0-.1,0-.2,0-.3,0-.7-.4-2-.4-2.6-.8,0,0,.1,0,.2-.2.3-.4.6-.5,1-.7Z" fill="#ee471b"/>
  <path d="M28.4,46.6l.3.3c.8.7,1.5,1.3,2.4,1.8,1.2.6,2.4,1,3.7,1.2,2.3.3,5.1-.2,6.9-1.6.4-.4.7-.8,1-1.2.7,0,2.2,0,2.7.6,0,0,0,.1,0,.2,0,0,0,.1-.1.2-.2.1-.6.2-.9.2h0c.2,1.5.6,3,.8,4.4.1,1,.5,2.4.4,3.3,0,.7.1,1.4.2,2.1,0,.5.1,1,0,1.4,0,.2,0,.5-.2.7-.3.4-1.2.5-1.7.5h-.6c-.4,0-.8.1-1.2.2-1.2.2-2.6.2-3.8.6-.5-1.4-4.9-9.7-5.8-10.4-.2-.1-.5-.1-.7,0-.7.2-1.3.7-1.7,1.3,0,.3,0,.6,0,.9.4,1.4,2.2,4.5,3.1,5.8-1.4,0-2.4.6-3.6,1.3-.4.2-.7.5-1.1.6-.8.2-1.5-.3-2.2-.6.1-.7.2-1.5.4-2.2.4-1.8.9-3.6,1.3-5.4,0-.6,0-1.2,0-1.8,0-1.3-.2-2.4-.6-3.7.3-.2.6-.3,1-.5Z" fill="#d60000"/>
  <path d="M40.3,50.7c.2,0,.5,0,.7.2,1.8,1.8,1.6,4.5,2.3,5.2.5,0,.1-2.2.6-2.6,0,0,0,0,.1,0,.2.2.3.5.4.7.6,1.5.4,2.7.2,4.3.6-1.1.3-2.6.7-3.2h.1c.2.2.2.3.3.5,0,.7.1,1.4.2,2.1,0,.5.1,1,0,1.4,0,.2,0,.5-.2.7-.3.4-1.2.5-1.7.5h-.6c-.4,0-.8.1-1.2.2-.3-.2-.7-.4-1-.6-.5,0-1.1.2-1.6,0-.6-.1-1.2-.5-1.5-1.1-.2-.3-.3-.8-.2-1.1.3-.2,1.1.2,1.4.3.4,0,.8,0,1.2,0,.2,0,.3,0,.5-.2,0-1.2-2.9-.6-3.8-1.8-.2-.2-.3-.6-.3-.9,0,0,0,0,.1-.1.4-.3,1.4,0,1.9.1-.3-.6-.9-1-1.3-1.5-.6-.8-.8-1.7-1.2-2.6,0,0,.2,0,.3,0,1.3.1,2.4.1,3.2,1.3.3.5.6.9.9,1.3,0-1.1-.3-2.2-.5-3.3Z" fill="#327b2c"/>
  <path d="M38.4,53c1.6.8,4.1,4.3,4.9,5.9.3.6.5,1.2.7,1.8h-.6c-.9-2.5-3.4-5.6-5.1-7.7Z" fill="#c82526"/>
  <path d="M42.9,47c.7,0,2.2,0,2.7.6,0,0,0,.1,0,.2,0,0,0,.1-.1.2-.2.1-.6.2-.9.2h0c.2,1.5.6,3,.8,4.4h0c-.4,0-.7-.2-1.1-.4,0-.2-.2-.4-.3-.5.2-.5.3-1,.7-1.5-.3.2-.5.4-.8.5-.3.1-.7.3-1,.2-.6-.2-.2-.7-.4-1.1-.1,0-.3,0-.4-.2-.3-.3-.2-1-.2-1.4.4-.4.7-.8,1-1.2Z" fill="#ee471b"/>
  <path d="M29,51.1c.4.8.5,1.6.2,2.5-.3.8-.8,1.5-1.3,2.2-.4.6-.6,1.2-.8,1.9.7-.9.8-1.7,1.9-2.3.3-.1.6-.3.9-.3.1,0,.2,0,.3,0,.1.1.2.2.2.4,0,.6-.7,1.3-1.1,1.7-.8.7-1.5.9-2.6.9.4-1.8.9-3.6,1.3-5.4.3-.5.6-1,.9-1.5Z" fill="#327b2c"/>
  <path d="M28.7,46.9c.8.7,1.5,1.3,2.4,1.8-.4.6-.6,1.4-1.1,2,0,0,0,0,0,0-1-1-1.2-2.5-1.2-3.8Z" fill="#327b2c"/>
  <path d="M30.9,58c.2,0,.3,0,.4,0h0c-.1.4-.3.5-.5.7-1.2,1-1.8,1.6-3.4,1.5-.3,0-.6-.1-.8-.2,1.1-1.2,2.7-1.7,4.3-2Z" fill="#327b2c"/>
  <path d="M16.7,57.1c.3,0,.5,0,.8,0,.3,0,.5,0,.8,0,.3,0,.5,0,.8,0,.3,0,.5,0,.8.1.6.1,3.2.9,3.5,1.4-.3,0-.5-.2-.8-.3-.7-.2-2.9-.3-3.5,0-.1,0-.2.1-.2.3,0,0,0,0,.1.1.1,0,1.7,0,2.1.1,2.3.4,3.8,1.3,5.8,2.4,2.2,1.2,3.6-.9,5.6-1.4,1.3-.3,2.7,0,3.8.7,1,.6,2.7,2.5,2.9,3.6,0,.2,0,.3-.1.5-.3.2-.8.2-1.1,0-.5-.3-1.1-1.2-1.6-1.7-.4-.4-.8-.8-1.3-1.1-.2-.1-.5-.4-.7-.4-.1,0-.2,0-.2,0,0,.1,0,.2,0,.3.3.3.6.5.9.8.5.5,1,1.1,1.4,1.7,0,.1.1.3.2.5.1.4.3,1,0,1.4,0,.2-.3.3-.5.4-.2,0-.4,0-.5-.1-.3-.2-.7-1.5-1.2-2-.5-.6-1.1-1-1.8-1.4-.2,0-.2,0-.3.1,0,.1,0,.2,0,.3.2.2.4.4.6.5.6.5,1.1,1,1.5,1.7.2.4.4.8.3,1.3,0,.3-.3.5-.5.7-.2,0-.4,0-.5,0-.6-.6-.5-1.7-1.9-2.1-.2,0-.6-.2-.8,0,0,.4,1.1,1,1.3,1.4.3.3.5.8.5,1.2,0,.2-.1.3-.3.4-.8.2-1.1-.6-1.8-.8-.4-.1-.8-.1-1.2-.1-1.2,0-1.9-.4-2.9-1-.7,0-1.4,0-2.1,0-1.7,0-3.6-.4-5.1-1-1.4-.6-2.8-1.5-3.4-3-.7-1.9-.2-3.7.5-5.4Z" fill="#a95427"/>
  <path d="M48.6,78l13.9-1.6,4.4-.5c.8-.1,1.7-.3,2.5-.3-.1,1.2-.2,3.3-.7,4.4-.2.4-.4.7-.8,1-.3.3-.7.5-1.1.5-1.4.3-2.9.4-4.3.6-2.9.4-5.9.7-8.8,1-.7,0-4,.5-4.5.5,0,0,0,0-.1,0-.3.2-1.5.3-1.9.3,0,0-.1,0-.2,0-.2-.3-.2-.8-.2-1.2-.2.3-.8.7-1.2.7-.3,0-.6,0-.9-.2-.2-.2-.4-.4-.4-.7,0-.7.4-.8.8-1.3,0,0,0,0,0,0-.3,0-.8-.2-1-.4-.1,0-.2-.2-.3-.3-.1-.2-.2-.4-.2-.6.1-.6,1-1,1.4-1.4,1.1-.2,2.3-.3,3.4-.4Z" fill="#f9704a"/>
  <path d="M45.2,78.4c1.1-.2,2.3-.3,3.4-.4.3.2.6.4.6.8,0,.4-.5.9-.7,1.3.7-.3,1.2-.3,1.9-.3h0c.5-.5.9-1.6,1.6-1.7.1,0,.1,0,.2.2.1.3,0,.8-.1,1.1,0,.1-.1.3-.2.4-.4.3-.9.6-1.4.6.1.3.5.7.8.8,0,.2-.3.8-.5.9-.3.3-.7.4-1.1.4-.3,0-.6,0-.9-.2,0,.2.3.7.2,1.1,0,0,0,.2,0,.3.1,0,.1,0,.2,0-.3.2-1.5.3-1.9.3,0,0-.1,0-.2,0-.2-.3-.2-.8-.2-1.2-.2.3-.8.7-1.2.7-.3,0-.6,0-.9-.2-.2-.2-.4-.4-.4-.7,0-.7.4-.8.8-1.3,0,0,0,0,0,0-.3,0-.8-.2-1-.4-.1,0-.2-.2-.3-.3-.1-.2-.2-.4-.2-.6.1-.6,1-1,1.4-1.4Z" fill="#ee471b"/>
  <path d="M47,80.5c0,0,.2,0,.3,0,.2,0,.3.2.3.3.1.2.1.3,0,.5-.1.1-.2.2-.3.2,0,0-.1.1-.2.2,0,0-.1,0-.2,0-.2-.1-.2-.5-.3-.7,0-.3,0-.4.2-.5Z" fill="#f9704a"/>
  <path d="M54.7,78.2c1,0,1.8.1,2.7.4-.2.4-.4.7-.7,1-.9.8-1.9,1.1-3.1,1-.5,0-1,0-1.4.3-.2,0-.4.3-.6.3h0c0-.4.2-.7.3-.9.7-1.1,1.6-1.9,2.8-2.2Z" fill="#ee471b"/>
  <path d="M20,46.5s0,0,0,0c.1-.2.4-.5.6-.7,1.3-1.6,3.1-2.5,5-3.3.5.7.9,1.4,1.4,2.1-.2.2-.4.4-.5.7-.2-.4-.9-1.1-1.3-1.2,0,.5,1,1.3,1.1,2,.3.6.6,1.3.7,2,0,.3.1.6.2.9.1.6.2,1.2.2,1.9,0,1.7-.3,3.5-.9,5.1-.1.5-.3,1.1-.4,1.6,0,.3-.1.7-.2,1,0,.4-.2.9-.3,1.3l-.4-.4c-.6-.3-1.2-.9-1.8-1.3-.9-.6-1.8-.9-2.8-1.3-.4-.1-.8-.2-1.2-.2-.4,0-.9-.1-1.3-.2-.4,0-.7,0-1.1,0-.9.1-1.7.3-2.5.5.3-.5.5-1.1.7-1.6l.3-.5c.2-.8,2-4.1,2.5-5,.6-1.1,1.4-2,2.1-3Z" fill="#d60000"/>
  <path d="M22.8,49.5c.3-.3.5-.6.9-.8,1.2-.7,2.4-.1,3.5.2.1.6.2,1.2.2,1.9-.3.2-.6.4-.9.5-.4.2-.8.2-1.3,0-.4-.1-1.9-.9-2-1.3.2-.3,1.4-.1,1.8-.3,0,0,0,0,0-.1,0,0,0,0,0,0-.5-.4-1.6-.2-2.2-.1Z" fill="#f9704a"/>
  <path d="M20,46.5h.2c.2,1.1.5,2,1,2.9h0c-.3-.2-1.1-.7-1.4-.7,0,.4.5.9.8,1.2-.8,0-1.9,0-2.7-.3.6-1.1,1.4-2,2.1-3Z" fill="#f9704a"/>
  <path d="M15.4,54.6c.5-.1,1.2,0,1.7.2.5.3.8.8,1,1.4,0,0,0,0,0,0-.4,0-.7,0-1.1,0-.9.1-1.7.3-2.5.5.3-.5.5-1.1.7-1.6l.3-.5Z" fill="#327b2c"/>
  <path d="M15.1,55.1c.7.2,1.3.6,1.9,1.1-.9.1-1.7.3-2.5.5.3-.5.5-1.1.7-1.6Z" fill="#c82526"/>
  <path d="M25.1,59.3c-.4-.5-.7-1.1-1.1-1.7-.3-.4-.6-.8-.9-1.2h0c.3-.1.6,0,.8.1.9.4,1.5,1,1.8,1.9,0,.4-.2.9-.3,1.3l-.4-.4Z" fill="#327b2c"/>
  <path d="M19.3,56.4c.5-.9,1-1.6,1.8-2.1,0,.4-.1.8-.3,1.2-.1.3-.3.7-.4,1.1-.4-.1-.8-.2-1.2-.2Z" fill="#327b2c"/>
  <path d="M25.4,54.8c.4.3.8.6,1.1,1-.1.5-.3,1.1-.4,1.6-.3-.8-.4-1.7-.6-2.6Z" fill="#257c5d"/>
  <path d="M26.3,46.1c.3.6.6,1.3.7,2-.2,0-.4,0-.6,0-.1,0-.3-.2-.3-.3-.2-.4,0-1.2.2-1.7Z" fill="#327b2c"/>
  <path d="M19.5,50.4c.4,0,1.1,0,1.5,0h0c0,0,0,.1,0,.1-.7.4-1,1-1.3,1.8.6-.5,1.2-1.1,1.9-1.6-.2.8-.3,1.5-.6,2.3,0,0,0,.2-.1.3-.3.5-.7.8-1.2.9-.5.1-1.2,0-1.7-.2-.3-.2-.4-.4-.5-.7-.1-.6-.1-1.4.3-1.9.4-.6,1.1-.9,1.8-1Z" fill="#f9704a"/>
  <path d="M23,50.6c.3,0,.7.2,1,.4.6.4.9,1,1,1.7,0,.6,0,1.5-.3,2-.2.3-.5.4-.8.4-.5,0-1-.2-1.4-.6-.1-.2-.3-.3-.4-.5-.6-1.1-.4-2.3,0-3.5.3.5.4,1.2.8,1.6.1.1.2.1.3.1.2-.2-.1-1.4-.1-1.7Z" fill="#f9704a"/>
  <path d="M22.9,44.6c.3,0,.7.1,1,.3.3.3.5.6.6,1.1.1,1.3-.9,1.8-1.6,2.7-.1.1-.2.3-.3.4,0,0,0,0-.2,0,0,0,0,0,0,0-.2-.4,0-1.4.1-1.8h0c0-.1,0-.1,0-.1-.5.5-.7,1.9-.8,2.6-.3-1-.6-1.9-.3-2.9.3-1,.8-1.7,1.7-2.2Z" fill="#f9704a"/>
  <path d="M41,64.1c.1,0,.2,0,.3,0,0,.3-.1.6-.2.9-.1.4-.2.9,0,1.3.2.3.4.3.7.3.6.2.5.3.8.8.4.7,1.1.3,1.6.5.3.2.5.6.8.6.5,0,1.2-.4,1.6-.7,0,0,0,.1.1.2.2.2.6.4.9.4,1,0,1.8-1.4,2.5-2,1.5,1,3,2,4.4,3,.8.6,1.6,1.2,2.4,1.6-.7.1-1.5.2-2.2.3l-4.1.5-12.3,1.5c-1.4.2-2.8.3-4.2.5-1.1-.8-2.2-1.8-3.3-2.6-1.7-1.3-3.3-2.6-5-3.9h.9c1.2.8,2.3.8,3.8.9.6.4,1.2.9,1.9.9.6,0,.9-.4,1.3-.8.3,0,.5,0,.8,0,.6-.1.8-.5,1.1-.9.3,0,.6,0,.8-.1.5-.2.7-.5.8-.9.4.5.8,1.1,1.3,1.5.3.3,1.5,1.2,1.8,1.4.1,0,.2,0,.4,0,.1,0,.2-.1.3-.3.1-.3,0-.7,0-1-.2-1.5-.6-2.7-1.2-4h1.1Z" fill="#feedc3"/>
  <path d="M51.2,69.9c.2,0,.5,0,.7.1.1,0,.1.2.2.3,0,.2-.1.3-.3.4-.2,0-.4,0-.5,0-.2,0-.2-.2-.3-.4,0-.2.1-.3.2-.4Z" fill="#462311"/>
  <path d="M36,70.5c.2,0,.4,0,.6.2.2.1.2.2.2.4,0,.2-.2.3-.3.4-.2,0-.4,0-.6-.2-.1-.1-.2-.2-.2-.4,0-.2.2-.3.3-.4Z" fill="#462311"/>
  <path d="M40,71.6c.2,0,.4,0,.5,0,.2,0,.2.2.3.4,0,.2,0,.3-.2.5-.2,0-.4,0-.6,0-.2,0-.2-.2-.2-.3,0-.2.1-.3.3-.4Z" fill="#462311"/>
  <path d="M43.4,71.2c.2,0,.4,0,.6.1.1.1.2.2.2.4,0,.2-.1.3-.3.4-.2,0-.4,0-.6-.1-.1-.1-.1-.2-.2-.3,0-.2.2-.3.3-.4Z" fill="#462311"/>
  <path d="M48.6,70.4c.2,0,.4,0,.6,0,.2,0,.2.2.2.3,0,.2-.1.3-.3.5-.2,0-.4,0-.6-.1-.2,0-.2-.2-.2-.3,0-.2.1-.3.2-.4Z" fill="#462311"/>
  <path d="M37.3,71.9c.2,0,.4,0,.6,0,.2,0,.2.2.3.3,0,.2,0,.3-.2.5-.2,0-.4,0-.6,0-.2,0-.2-.2-.2-.3,0-.2.1-.3.2-.5Z" fill="#462311"/>
  <path d="M46.1,70.9c.2,0,.4,0,.6.1.1,0,.2.2.2.4,0,.2-.2.3-.3.4-.2,0-.5,0-.6-.2-.1-.1-.1-.2-.1-.4,0-.2.2-.3.3-.4Z" fill="#462311"/>
  <path d="M38.6,70.1c.2,0,.5,0,.6.1.1.1.1.2.2.3,0,.2-.2.3-.3.4-.2,0-.4,0-.6-.1-.1-.1-.2-.2-.2-.3,0-.2.1-.3.3-.4Z" fill="#462311"/>
  <path d="M37,68.7c.2,0,.4,0,.5,0,.2,0,.2.2.3.4,0,.2-.1.3-.3.4-.2,0-.5,0-.6,0-.2,0-.2-.2-.2-.3,0-.2.2-.3.3-.4Z" fill="#462311"/>
  <path d="M44.3,69.3c.2,0,.4,0,.6.1.1.1.1.2.2.3,0,.2-.1.3-.3.4-.2,0-.4,0-.6-.1-.1,0-.1-.2-.2-.3,0-.2.1-.3.3-.4Z" fill="#462311"/>
  <path d="M41.6,69.7c.2,0,.4,0,.6,0,.2,0,.2.1.3.3,0,.2,0,.3-.2.5-.2,0-.4,0-.6,0-.2,0-.2-.1-.3-.3,0-.2,0-.3.2-.5Z" fill="#462311"/>
  <path d="M49.5,68.5c.2,0,.3,0,.5,0,.2,0,.2.2.3.4,0,.2-.1.3-.3.4-.2,0-.4,0-.6,0-.1,0-.2-.2-.2-.3,0-.2,0-.4.2-.5Z" fill="#462311"/>
  <path d="M42.6,68.1c.2,0,.4,0,.5.1.1.1.2.2.2.3,0,.2-.2.3-.3.4-.2,0-.4,0-.6,0-.1-.1-.1-.2-.2-.4,0-.2.2-.3.3-.4Z" fill="#462311"/>
  <path d="M34.3,69.2c.2,0,.4,0,.5.2.1.1.1.2.1.4,0,.2-.2.2-.4.3-.2,0-.4,0-.5-.2-.1-.1-.1-.2-.1-.4,0-.2.2-.3.3-.4Z" fill="#462311"/>
  <path d="M47,69.2c.2,0,.4,0,.6,0,.1,0,.2.1.2.3,0,.2,0,.3-.2.4-.2,0-.4,0-.6,0-.1,0-.2-.1-.2-.3,0-.2,0-.3.2-.4Z" fill="#462311"/>
  <path d="M36.6,95.2c.1,0,.2,0,.3.1,0,.2,0,.6,0,.8-.5,2-1.1,3.4,0,5.4.7,1.3,2.2,3.3,3.2,4.4.4.5.9.9,1.2,1.4,0,0,.1.2.1.3,0,.2,0,.3,0,.4-.1.2-.3.4-.6.4-.9,0-1.3-1.4-1.9-1.8-.1,0-.2,0-.4,0-.1.4.6,1.3.8,1.7,0,.2,0,.4,0,.6h-.2s.1,0,.1,0c0,0-.1,0-.2,0-.7-.2-.8-1.5-1.6-2.1-.1,0-.2,0-.3,0-.2.4.8,1.3.7,1.9,0,.1-.2.2-.3.3-.2,0-.3,0-.4,0-.2-.2-.3-.6-.3-.9-.2-.2-.3-.4-.5-.6-.2-.2-.5-.5-.8-.6,0,.3.8,1.2.8,1.7,0,.2,0,.2,0,.3-.2,0-.3,0-.5,0-.5,0-.6-.8-.9-1.1-.2-.2-.4-.6-.8-.7h0c0,.5.5.8.5,1.3,0,.1,0,.2,0,.3,0,0,0,0,0,0-.3,0-.8-.5-1-.7-.9-.9-1.2-1.5-1.9-2.4-1.4-1.8-2.3-2.6-1.3-4.9.2-.6.5-1.2.6-1.8.2-1.2,0-2.5,0-3.7h0c0,0,.1.1.2.1.8.1,5.2.1,5.7-.2Z" fill="#a95427"/>
  <path d="M50,93.6c.2,0,.4,0,.7,0,0,.4-1.2,2.5-1.4,3.3-.6,2.6,3.3,5.3,4.6,7.3.2.3.4.7.4,1h0c-.2,0-.3-.3-.4-.5-.5-.8-.9-.9-1.4-1.6.2.8,1,1.4,1.1,2.3,0,.2,0,.2,0,.3-.4,0-.8-1.2-1.3-1.5-.1,0-.2-.1-.4-.1h0c.2.5.6.9.9,1.3.2.2.3.5.3.8-.1.1-.1.2-.3.2-.1,0-.2,0-.3,0-.2-.2-.2-.5-.4-.7-.3-.4-.8-.8-1.3-1.1.2.6.6,1,1,1.5,0,0,0,.1,0,.2,0,0,0,0,0,.1,0,.3,0,.5-.1.7,0,0-.1,0-.2,0-.1-.1-.3-.4-.4-.6-.3-.4-.8-1.1-1.3-1.2-.2,0-.2,0-.4,0-.1.4,1.1,1,1.2,1.5,0,.2,0,.5-.1.7-.1.1-.3.2-.4.2-.6,0-1.1-.4-1.6-.7-1.3-.8-1.7-.7-2.3-2.1-.2-.4-.3-.8-.6-1.1-.5-.7-1.2-1.1-1.8-1.7-2.2-2.1-.3-3.5.3-5.6.2-.8.1-1.7.1-2.5,0,0,.2,0,.3.1.7.1,5.4-.2,5.8-.4Z" fill="#a95427"/>
  <path d="M52.4,55.6h.2c0,.1.1.2.2.3.9,1.7,1.7,3.7,1.1,5.6-.7,2.2-2.8,3.1-4.4,4.5-.5.5-1,1.4-1.7,1.7-.2,0-.3,0-.5,0,0,0-.1-.1-.1-.3-.1-.9,1-2.1,1.5-2.8,0-.1.1-.2,0-.4h-.1c-1.1.2-1.8,2.8-2.9,3.5-.2.1-.3.1-.5,0,0,0-.1-.1-.1-.2-.1-.6.5-2,.9-2.5.3-.4.9-.8,1.1-1.2,0-.1,0-.1,0-.3h-.1c-.8.1-1.7,1.5-2.1,2.3-.2.3-.4,1.1-.7,1.3-.2.1-.5,0-.7,0,0,0-.1-.2-.2-.2-.4-.6.5-2.1.9-2.7.4-.5,1.1-1,1.3-1.6h0c-.8.2-1.6,1.4-2.1,2.1-.2.3-.4.7-.7,1-.2.2-.3.3-.6.3,0,0-.2,0-.2-.2-.1-.2,0-.4,0-.6.4-1.5,1.8-2.8,3.1-3.5.6-.3,1.2-.6,1.7-1,1-.8,1.3-1.5,2.5-2.2.3-.2.6-.3,1-.5.3,0,.8-.2,1.1-.3,0,0,0-.1.1-.2,0,0-.1,0-.2-.1-1.5-.4-2.9,1-4.1,1.7,0-.1.1-.2.2-.3,1.1-1.7,3.3-2.8,5.3-3.2Z" fill="#a95427"/>
  <path d="M24.4,86.7c.7.2,2,.4,2.7,0l-1.2,19.2-.3,4c0,.8,0,1.6-.2,2.4,0,.2-.1.4-.3.5,0,0,0,.1-.1.2-.2.2-.6.3-.9.3-.4,0-.8-.2-1.1-.5-.2-.2-.2-.7-.2-1.1,0-1.1.1-2.2.2-3.3l.3-4.5,1.2-17.3Z" fill="#59b1a0"/>
  <path d="M19.6,45.1c.1,0,.2,0,.4,0-.5.7-1,1.3-1.5,2-1.4,2.1-5,8.1-5.1,10.5-.8.1-1.8.3-2.6,0,0,0,0,0,0,0-.4-.3-.5-.7-.6-1.2-.1-1.4,0-2.8,0-4.1,0-1.6-.1-3.3.1-4.9,0-.3.2-.6.4-.8.2-.2.4-.4.7-.5.8-.3,1.9-.3,2.8-.4,1.8-.2,3.7-.3,5.5-.5Z" fill="#59b1a0"/>
  <path d="M67.4,82.1s0,0,0,0c.2.2.4,6.3.5,7.2l.6,11.5c0,1.7.3,3.5.3,5.2,0,.4,0,.6-.3.9-.3.2-.7.4-1,.3-.3,0-.5,0-.7-.3-.1,0-.2,0-.3-.1-.2-.2-.3-.5-.3-.7,0-.7,0-1.3,0-2l-.2-4.5c-.3-5.7-.5-11.5-.9-17.2,0,0,0,0,.1,0,.5,0,1.8-.1,2.2-.4Z" fill="#59b1a0"/>
  <path d="M11.2,77.8c.8.4,1.7,1.1,2.5,1.6-.2,1.8-.4,3.6-.5,5.4l-1.1,10.7-.4,3.9c0,.6,0,1.4-.2,2,0,.2-.1.3-.3.4,0,0,0,.1-.1.2-.2.2-.6.3-.9.3-.4,0-.7-.2-.9-.5-.1-.2-.2-.4-.2-.6,0-1.3.2-2.7.4-4.1.3-2.7.5-5.3.8-8l.7-7.5c.1-1.2.2-2.5.4-3.7Z" fill="#59b1a0"/>
  <path d="M45.9,44.1c.3.2.5.5.7.7.5.6,1,1.1,1.5,1.7l.3.4.7.9.2.3.3.4c.6.8,1.1,1.6,1.6,2.3.8.9,1.9,2.5,2.3,3.7-.3,0-.6.1-1,.2-2.4.4-4.1,1.4-5.7,3.2,0-.5-.1-1,0-1.5-.1-.2,0-.3,0-.5,0-.4,0-.7-.1-1.1,0-.3-.1-.6-.2-.9-.3-1.2-.4-2.4-.8-3.6-.2-.3-.3-.5-.4-.8l-.2-.6c-.1-.2-.2-.5-.4-.7.3,0,.7,0,.9-.2,0,0,0,0,.1-.2,0,0,0-.1,0-.2-.5-.5-2-.6-2.7-.6l.4-.8.5-1c.7-.4,1.5-.8,2.2-1.2Z" fill="#d60000"/>
  <path d="M46.6,54.8c.6-.7,1.2-1.4,2.1-1.7.8-.2,1.6,0,2.3.3.5.2,1.5.7,1.6,1.2-2.4.4-4.1,1.4-5.7,3.2,0-.5-.1-1,0-1.5-.1-.2,0-.3,0-.5,0-.4,0-.7-.1-1.1Z" fill="#327b2c"/>
  <path d="M46.7,55.9c.8-.8,1.3-1.7,2.6-1.8.2,0,.3,0,.5.1,0,.2-.2.2-.4.3-.3,0-.6.2-.8.3-.7.3-1.3,1-1.8,1.6-.1-.2,0-.3,0-.5Z" fill="#c82526"/>
  <path d="M46.8,47.6s0,0,0,0c.9.3,1.6,1.1,2.6,1.4h0c0-.2,0-.2-.2-.3v-.2c-.2,0-.3,0-.4-.2h0c0,0,.3-.3.3-.3l.3.4c.6.8,1.1,1.6,1.6,2.3l-.2.7c-.3.3-.6.5-1,.6-2-1-1.2-1.6-2-3.2-.3-.5-.8-.9-1.2-1.3Z" fill="#ee471b"/>
  <path d="M46.2,48.9c.1.3.3.6.5.8h.1c.1-.4,0-.9,0-1.4.7.7,1.3,1.6,1.2,2.7,0,.9-.5,1.4-1.1,2.1-.1.1-.2.3-.3.4,0,0-.2.1-.3.2-.3-1.2-.4-2.4-.8-3.6.2-.4.5-.9.6-1.4Z" fill="#ee471b"/>
  <path d="M45.9,44.1c0,.9.1,1.9,0,2.8-1,0-1.8-.3-2.7-.7l.5-1c.7-.4,1.5-.8,2.2-1.2Z" fill="#ee471b"/>
  <path d="M46.6,44.8c.5.6,1,1.1,1.5,1.7-.4.1-.8.7-1.3.6,0,0-.1,0-.2-.2-.3-.5-.2-1.6,0-2.2Z" fill="#ee471b"/>
  <path d="M48.4,46.9l.7.9c-.2,0-.5,0-.8,0-.1,0-.3-.2-.4-.4,0,0,0,0,0-.2,0,0,.2-.1.3-.2,0,0,0,0,0,0v-.2Z" fill="#ee471b"/>
  <path d="M45,48.9c.3-.3.7-.6,1.1-.8-.2.4-.5,1.2-.9,1.4,0,0,0,0,0,0l-.2-.6Z" fill="#ee471b"/>
  <path d="M49.1,47.8l.2.3-.3.2h0c0,.2.2.2.3.3v.2c-.6-.2-.3-.6-.9-.9.2,0,.5,0,.8,0Z" fill="#a95427"/>
  <path d="M19,84.2l.2-.8c.2.2.4.4.6.5.5.4,1.1.8,1.6,1.1.4.3.9.4,1.3.7h0c.4.2.7.4.9.8h0c0,.1-.1.2-.1.2,0,.3,0,.7,0,1,0,.2,0,.3,0,.5,0,.3,0,2.4-.2,2.6,0,0,0,0,0,0,0,.7,0,2.2-.2,2.9-.4,0-1.6-.4-1.9-.6,0,0,0,0,0,0-.1,0-.2,0-.3,0-.2,0-.3-.2-.3-.3h-.1c-.9-.3-2.2-1.3-2.6-2.2-.2-.3-.1-.6,0-.9h0c0-.3.1-.6.2-.9,0-.4.3-1.6.6-1.9,0,0,0,0,0-.1,0,0,.1,0,.2-.1,0-.1,0-.1,0-.2h0c-.1-.3.4-1.7.5-2.1Z" fill="#327b2c"/>
  <path d="M19,84.2l.2-.8c.2.2.4.4.6.5.5.4,1.1.8,1.6,1.1.4.3.9.4,1.3.7h0c.4.2.7.4.9.8h0c0,.1-.1.2-.1.2-.7,0-1.4,0-1.9.5-.4.5-.5,1.6-.8,1.9-.4-.3-.5-1.3-.9-1.8-.3-.4-1.1-.2-1.4-.6,0,0,0,0,0-.1,0,0,.1,0,.2-.1,0-.1,0-.1,0-.2h0c-.1-.3.4-1.7.5-2.1Z" fill="#d60000"/>
  <path d="M19.9,83.9c.5.4,1.1.8,1.6,1.1.4.3.9.4,1.3.7h0c-.4.2-.8.3-1.1.5-.3.2-.5.6-.9.7,0-.4-.2-.8-.3-1.1-.2-.5-.5-1-.6-1.5,0-.1,0-.3,0-.5Z" fill="#327b2c"/>
  <path d="M19,84.2c.6.5.7,1.2,1,1.5,0,.3,0,.6-.4.8-.1,0-.3.1-.4,0-.2,0-.5-.2-.7-.3h0c-.1-.3.4-1.7.5-2.1Z" fill="#327b2c"/>
  <path d="M23.4,88.2c0,.3,0,2.4-.2,2.6,0,0,0,0,0,0,0,.7,0,2.2-.2,2.9-.4,0-1.6-.4-1.9-.6,0,0,0,0,0,0,0,0-.2-.1-.3-.2v-.2c0-.1,0-.4-.1-.6.3-.4.5-.9.6-1.4.4-1.1,1.2-1.7,2.1-2.4Z" fill="#327b2c"/>
  <path d="M23.3,90.8c0,.7,0,2.2-.2,2.9-.4,0-1.6-.4-1.9-.6,0,0,0,0,0,0,0,0-.2-.1-.3-.2v-.2c0,0,.1,0,.1,0,.7,0,1.8-1.4,2.3-1.8Z" fill="#d60000"/>
  <path d="M23.5,87.7c0,.2,0,.3,0,.5-.8.7-1.6,1.4-2.1,2.4-.2.5-.3,1-.6,1.4,0,.2,0,.5.1.6v.2c0,0,.1.1.2.2-.1,0-.2,0-.3,0-.2,0-.3-.2-.3-.3,0-.3,0-.6,0-.9.2-1.3.6-2.7,1.9-3.4.4-.2.8-.3,1.1-.6,0,0,0,0,0,0Z" fill="#d60000"/>
  <path d="M17.8,88.7s0,0,0,0c.7.4,1.9,0,2.4.9h0c-.6.5-1.8.2-2.4,0,0,0-.1,0-.2,0h0c0-.3.1-.6.2-.9Z" fill="#d60000"/>
  <path d="M27.8,42.1c1.1,1,2.2,1.8,3.5,2.4,2.9,1.4,5.8,2.1,9,1.6.6,0,1.2-.2,1.8-.4,0,0,.1,0,.2,0h0c-.2.9-1.1,1.6-1.7,2.1-.2.2-.5.3-.7.4-2,1-4.9.9-7,.2-3-1-5-3.4-6.4-6.2.4,0,.8-.1,1.2-.2Z" fill="#a95427"/>
  <path d="M21.6,43.6h0c-.3.3-.6.6-1,.8-2.1.2-4.2.4-6.3.6-1,0-2.1.1-3.1.4,0,0,0,0-.1,0,0,0,0,0-.1,0,0,0,0,0-.1,0,0,0,0,0,0,0,0,0,0,0,0,0,0,0,0,0,0,0,0,0,0,0,0,0,0,0,0,0,0,0,0,0,0,0,0,0,0,0,0,0,0,0,0,0,0,0,0,0,0,0,0,0,0,0,0,0,0,0,0,0,0,0,0,0,0,0,0,0,0,0,0,0,0,0,0,0,0,0-.2.4-.3.8-.3,1.2-.2,1.4,0,3,0,4.4,0,1.5,0,3.1,0,4.6,0,.3,0,.5.2.8-.4-.2-.7-.3-1-.6-.5-.5-.7-1.2-.8-1.9-.2-1.7,0-3.4,0-5,0-1,0-2.1.1-3.1,0-.5.2-1,.5-1.3.3-.4.7-.6,1.2-.7,1.3-.3,2.7-.3,4-.4l7.9-.7Z" fill="#59b1a0"/>
  <path d="M22.5,19c-1.1-.7-1.9-1.7-2.4-2.9-.4-1-.5-2.3,0-3.3.2-.5.6-.8,1.1-1,.5-.2,1.1,0,1.6.2.9.4,1.5,1.3,1.8,2.2.5,1.5,0,2.6-.6,4-.2.5-.4,1-.5,1.6-.3-.2-.7-.4-1-.7Z" fill="#feedc3"/>
  <path d="M22.5,19c.3-.6-.3-1.8,0-2.5.5,0,1,1.3,1.4,1.5,0,0,0,0,0,0-.2.5-.4,1-.5,1.6-.3-.2-.7-.4-1-.7Z" fill="#00bcd6"/>
  <path d="M24.5,19c.7-1.6,1.5-2.9,3.2-3.7.7-.3,1.6-.4,2.3-.1,0,0,0,0,0,0s0,0,0,0c0,0,0,0,0,0,0,0,0,0,0,0,0,0,0,0,0,0,0,0,0,0,0,0,0,0,0,0,0,0,0,0,0,0,0,0,0,0,0,0,0,0,0,0,0,0,0,0,0,0,0,0,0,0,0,0,0,0,0,0,0,0,0,0,0,0,0,0,0,0,0,0,0,0,0,0,0,0,0,0,0,0,0,0,.3.7,0,1.5-.2,2.1-.5,1-1.5,1.9-2.6,2.3,0,0-.2,0-.3,0-.7-.2-1.3-.5-2-.6-.6,0-1.1,0-1.7,0,0-.4.2-.8.3-1.2Z" fill="#feedc3"/>
  <path d="M24.5,19c0,.1.1.3.3.3.7-.3,1.4-.7,2.3-.7-.2.4-1.2,1.5-1.2,1.6-.6,0-1.1,0-1.7,0,0-.4.2-.8.3-1.2Z" fill="#00bcd6"/>
  <path d="M24.3,22.5c0,0,0-.2,0-.2,0-.3-.2-1.1,0-1.3,0,0,.2,0,.3,0,1.4,0,2.8.2,3.8,1.3.7.7,1.2,1.8,1.2,2.8,0,.6-.2,1.2-.6,1.7-.3.3-.8.5-1.3.5-.9,0-1.9-.6-2.5-1.2-1-1.1-.7-2.1-.9-3.4Z" fill="#feedc3"/>
  <path d="M24.3,22.5c0,0,0-.2,0-.2,0-.3-.2-1.1,0-1.3,0,0,.2,0,.3,0,.5.6,1.6,1.7,1.7,2.5v.2c-.3,0-.6-.1-.7-.2-.4-.2-.8-.6-1.2-.8Z" fill="#00bcd6"/>
  <path d="M21.6,21.1c-1.3.7-2.7,1.3-4.2,1-.6-.1-1.3-.5-1.6-1-.3-.5-.4-1-.3-1.6.2-.7.6-1.3,1.2-1.6,1-.6,2-.6,3.1-.4.4.3.7.7,1,1.1.4.4.7.7,1.1,1.1.3.2.6.5.9.7-.4.3-.8.5-1.2.7Z" fill="#feedc3"/>
  <path d="M21.9,19.7c.3.2.6.5.9.7-.4.3-.8.5-1.2.7-.4-.4-1.2-.5-1.6-.9v-.2c.5-.4,1.4-.4,2-.4Z" fill="#00bcd6"/>
  <path d="M21.9,21.8c.4-.3.9-.6,1.4-.9,0,.5.2,1,.2,1.5.1.9.1,1.8-.1,2.7-.3,1-1,2-2,2.5-.5.2-1,.4-1.5.2-.4-.1-.7-.4-.9-.8-.4-.8-.4-1.9,0-2.7.7-1.9,1.4-1.8,3-2.6Z" fill="#feedc3"/>
  <path d="M21.9,21.8c.4-.3.9-.6,1.4-.9,0,.5.2,1,.2,1.5-.3,0-.9,1-1.2,1.3-.1.1-.3.3-.5.3-.6-.5.3-1.6,0-2.2,0,0,0,0,0,0Z" fill="#00bcd6"/>
  <path d="M13.6,58.4h0c0,.4,0,4.2-.1,5-.7,0-1.4.1-2.1.2-.2-.2,0-4.3,0-5,.7,0,1.5,0,2.2-.1Z" fill="#f9704a"/>
  <path d="M34,54.9c.3.2,2.7,4.7,3,5.4-.3-.2-.6-.4-1-.6-.6-.3-1.1-.5-1.7-.6-.5-1-1.4-2.5-1.8-3.5.5-.2,1-.5,1.5-.8Z" fill="#efac33"/>
  <path d="M43.6,61.4s0,0,0,0c-.7.5-1.2,1.1-1.7,1.7-.6,0-1.8.3-2.3.2-.1,0-.2-.2-.2-.3-.2-.4-.5-.7-.7-1.1,1.6-.2,3.3-.3,4.9-.6Z" fill="#59b1a0"/>
  <path d="M31.8,51.8c.1,0,.3,0,.4,0,.4.2.6.8.7,1.2-.3.2-.6.3-.9.5-.1,0-.3.1-.5,0-.2,0-.4-.1-.5-.3-.1-.2-.1-.4,0-.6.1-.5.4-.6.8-.9Z" fill="#a95427"/>
  <path d="M26.9,44.6c.5.7.9,1.4,1.5,2-.3.2-.6.3-1,.5-.4-.6-.7-1.2-1-1.8,0-.3.3-.5.5-.7Z" fill="#327b2c"/>
  <path d="M39.4,65.5c.1.2.3.4.3.6,0,.2-.1.3-.3.5-.2.1-.6.2-.9.2-.2-.3-.4-.7-.5-1,.5,0,1,0,1.5-.2Z" fill="#efac33"/>
  <path d="M33.2,53.7h.1c.2.2.2.4.3.6-.5.3-.9.5-1.4.7-.2-.2-.3-.4-.5-.6.5-.3,1-.5,1.5-.7Z" fill="#257c5d"/>
  <path d="M39.9,66.8c.2.1.3.4.3.7,0,.2,0,.3,0,.5-.2,0-.3,0-.4,0-.2-.2-.4-.4-.6-.6l.8-.5Z" fill="#a95427"/>
  <path d="M15.5,57.2h0c-.1.4-.2.7-.4,1-.1,0-.3-.2-.4-.2-.1-.1-.2-.1-.3-.3h0c.3-.3.6-.3.9-.4Z" fill="#c82526"/>
</svg>