<?xml version="1.0" encoding="UTF-8"?>
<svg id="Layer_1" xmlns="http://www.w3.org/2000/svg" version="1.1" viewBox="0 0 80 115">
  <!-- Generator: Adobe Illustrator 29.1.0, SVG Export Plug-In . SVG Version: 2.1.0 Build 142)  -->
  <path d="M25.1,4.9s0,0,0,0c.4-.2.8-.5,1.2-.8.5-.3,1-.6,1.5-.9,2.7-1.5,6-2,9-1.5.8.1,1.5.5,2.3.6.6,0,1.3,0,1.9.1,1.3,0,2.8.2,4,.7,1.5.5,2.5,1.4,3.5,2.5,2.5.3,4.7.8,6.3,2.9.8,1,1.3,2.3,1.5,3.5.4.2.8.5,1.1.7l.5.4c1,1.1,1.7,2.6,1.7,4.1,0,.9-.3,1.7-.7,2.5-.6.9-1.4,1.3-1.2,2.6,0,.3.2.6.4.9.5.6,1.7.7,1.6,1.7,0,.7-.7,1.4-1.2,1.9-.8.7-1.7,1-2.7,1.2-.2,1-.5,1.9-1.4,2.5-.5.3-1,.4-1.5.7h0c-.2.9-.3,1.9-.4,2.7-.4,2.9-1.2,5.4-2.9,7.8-.7,1-1.7,2-2.7,2.7,1.2.7,2.2,1.5,3.2,2.5,2.7,2.7,6.4,8.8,7.3,12.5.3,1.3.3,2.7-.2,3.9,2.6,1.3,5.2,2.7,7.6,4.2l1.2.7,1.5.8c1.5.8,2.9,1.6,4.4,2.5.7.4,1.5.8,2.1,1.4.3.3.6.6.7,1,.2.7,0,1.6,0,2.3,0,.6-.1,1.2-.2,1.8v.6c-.4,1.3-1.3,1.8-2.4,2.5,0,1.5.4,3.9-.7,5.1-.2.3-.5.4-.9.6,0,2.5.3,5,.4,7.5,0,1,0,2.6.2,3.4,0,2.1.2,4.2.4,6.3,0,.9.2,2,.1,2.9,0,0,0,.1,0,.2,0,0,0,.1,0,.2,0,0,0,0,0,.1,0,0,0,0,0,.1,0,0,0,0,0,.1,0,0,0,0,0,.1s0,0,0,.1c0,0,0,0-.1.1-.3.4-.8.6-1.3.6-.5,0-1-.1-1.3-.5-.8-.7-.6-1.8-.7-2.7,0-2-.2-4-.4-6-.1-1.6-.2-3.2-.3-4.8l-.3-4.6c0-.8,0-1.7-.2-2.5-1.1.2-2.2.2-3.3.3-2.3.2-4.7.5-7,.7.2,1,.5,3,.4,4,0,.2-.1.4-.3.6-.9,1.3-4,2.2-5.5,2.7-.2.8-.8,2.6-.4,3.3.6.9,3,2.6,3.9,3.2.6.4,1.3.8,1.8,1.4.4.4.6,1,.5,1.5-.1.7-.6.9-1.1,1.3-.2.2-.4.5-.6.7-.2.1-.4.2-.6.2-.2.2-.3.5-.6.6-.3.2-.8.2-1.1.4-.4.2-.8.5-1.3.6-.8.1-1.7-.4-2.3-.8-1-.7-1.8-1.6-2.8-2.3-1.4-1.1-4-1.9-4.3-3.8-.2-1.6.9-3.1,1-4.8-1.5.1-3.1.2-4.6.3-.1,1.2-.5,2.8.2,3.8.8,1,1.8,2,2.8,2.9,1.1,1,3.7,2.8,3.6,4.5,0,.5-.3.8-.7,1.1-.4.3-.8.4-1.4.3-.1,0-.2,0-.3,0-.4.4-.7.8-1.3.8-.3,0-.5,0-.7,0-.7.5-1.2.6-2,.4,0,0-.2,0-.3,0-.8.3-1.4.2-2.1-.1-1.4-.6-2.3-2.5-3.4-3.5-.7-.7-1.7-1.2-2.4-1.9-.2-.2-.4-.5-.5-.8-.6-1.6.3-3.2.5-4.8,0-1,0-2,0-3-1-.2-2.1-.4-3.1-.7,0,3.9-.6,7.8-.6,11.6-.1,1.3,0,4-.8,4.9-.4.4-.9.6-1.4.6-.5,0-1-.2-1.3-.6-.3-.3-.4-.6-.5-1-.1-.7,0-1.5,0-2.2,0-1.1.1-2.2.2-3.2.1-.6,0-1.4.1-2.1v-.4c.1-.5,0-1.2.1-1.8,0-.8,0-1.6,0-2.4,0-.1,0-.3,0-.4,0-.9,0-1.7.1-2.6-.5,0-1,0-1.4-.3-.6-.3-.9-.9-1.1-1.5,0-.9,0-1.9,0-2.8,0-1.3,0-2.6.2-3.8-2.8-2.1-5.8-4-8.7-6-.2,1.8-.3,3.7-.5,5.5-.1,1.3-.3,2.7-.3,4.1-.2,1.5-.3,3.1-.4,4.6,0,.9-.2,1.8-.3,2.7,0,1.1,0,2.3-.3,3.3,0,.4-.3.8-.6,1.1-.3.3-.8.5-1.2.5-.5,0-1-.2-1.4-.6-.3-.4-.5-.8-.5-1.3,0-.7,0-1.5.2-2.2.1-1.1.2-2.3.3-3.5l.8-9.8c.2-1.9.4-3.8.5-5.7,0-.4,0-.7.1-1.1-.1-.1-.3-.3-.5-.4-.6-.5-.8-.9-1.1-1.6v-.8c.1-1.2.2-2.5.3-3.7-.4-.3-.9-.6-1.3-.9-.7-.6-1-1.4-1-2.3,0-.9,0-2.8.2-3.7,0,0,0-.2,0-.2,0,0,0-.2.1-.2,0,0,0-.1.1-.2s.1-.1.2-.2c.9-1,3-.8,4.2-.8-.3-.9-.4-1.7-.4-2.7-.2,0-.3,0-.5-.1-.9-.2-1.8-.6-2.3-1.4,0,0-.1-.2-.2-.3,0-.1,0-.2-.1-.3,0-.1,0-.2,0-.3,0-.1,0-.2,0-.3-.1-1.2,0-3,0-4.3v-3.4c0-.9,0-2,.1-2.9.7-2.9,3.3-3,5.8-3.3,1.2-.1,2.5-.2,3.7-.3.5,0,1.1,0,1.6-.1.5-.1,1.2-.6,1.7-.9,1.2-.6,2.5-1,3.7-1.7.6-.4.8-1.4.9-2,0-.2.2-.5.1-.7h-.1s-.2,0-.2,0c-.5.3-1,.5-1.6.6-.5,0-1,0-1.4-.2-.3-.3-.4-.6-.5-1h0c-.7-.1-1.4,0-2.1-.4-.6-.2-1.3-.8-1.5-1.4,0-.2,0-.3,0-.5.2-.3.6-.4.9-.5.2,0,.5-.2.6-.4,0-.2,0-.2,0-.3-.2-.4-.6-.8-1-1.1-.8-.8-1.1-1.9-1.4-3,0-.2,0-.6-.2-.8-.5-1-1.6-1.1-2-2.6-.3-1.1,0-2.2.5-3.2-.8-.5-1.4-1.2-1.9-2-.3-.5-.7-1.9-.5-2.5.2-.5,1.3-.1,1.8-.2.3,0,.6-.1.9-.3-.5-.3-1.1-.7-1.4-1.2-.5-.7-.8-1.7-.7-2.5,0-.2,0-.5.3-.6.3-.2.8.1,1.1.2.5.1,1.1,0,1.5-.3,1.8-1,1.7-2.7,2.2-4.4.8-2.7,2.8-4.9,5.6-5.7.8-.2,1.7-.2,2.4-.6h0ZM35.5,70.2c-.7.3-1.2.8-1.9,1.1-.4.2-.8.3-1.1.4-1.9.5-3.7.4-5.5-.3-.9-.3-1.6-1-2.5-1.2h0c0,.2.2.3.4.4,1.7,1.3,3.5,2.4,5.2,3.6,1.1.8,2.2,1.6,3.4,2.4.2.1.4.3.7.3.4,0,3.4-.2,3.8-.3.9,0,1.8-.2,2.7-.3l7.5-.7c2.4-.2,4.8-.4,7.2-.7,1.1-.1,2.2-.2,3.3-.3-1.7-.9-3.3-2-4.9-3-.6-.4-1.2-.8-1.9-1.1-.9.6-2.6,2.1-3.7,2-.3,0-.5-.2-.6-.5-.5.1-.9.2-1.5.1-.3-.2-.5-.4-.8-.6-.6.1-1.2.3-1.7,0-.3-.2-.5-.4-.7-.7-.6,0-1.2,0-1.6-.6-.3-.3-.4-.7-.3-1.1,0-.6.3-1.1.5-1.6-.1,0-.2,0-.3,0-.7,0-1.9,0-2.5.3h0c0,0,.2.1.2.2.4.5.8,2.1,1,2.7,0,.4.4,1.8.1,2.2,0,.2-.2.2-.3.2-.9,0-3.3-2.2-4.1-2.8Z" fill="#563d1e"/>
  <path d="M49.4,14c1.3.7,2.1,2.1,2.6,3.5.4,1.2.7,2.5.7,3.8.1,2.8-.3,5.7-.7,8.6-.3,2-.5,4.1-.9,6.1-.1.5-.3,1-.4,1.5-.2.5-.3.9-.6,1.4-1.5,3.2-4.5,6.1-7.8,7.3-3.4,1.2-7.2.6-10.4-.9-3.2-1.5-6-3.9-7.6-7.1-.5-1.1-.9-2.2-1.3-3.3,0-.1,0-.2-.1-.3-.3-.6-.7-1.3-1.4-1.5-.2,0-.5,0-.7,0-.4.2-.5.6-.6,1-.6-.3-1.1-.7-1.5-1.2-.9-1.2-1.3-3.3-1-4.8,0-.3.2-.7.5-.9.6-.3,1.3.8,1.8,1.1.2.1.5.2.7.3-.2.7-.3,1.5-.1,2.2,0,.3.3.6.5.7.2,0,.3,0,.4,0,.5-.2,0-1.1,0-1.5,0-.3.2-.8.3-1.1.5-.1,1-.2,1.6-.5,2.6-1.1,3.9-3.4,4.9-6,.9-.3,1.8-.4,2.6-.8.6-.3,1.1-.8,1.7-.9,0,.2.1.4.3.5.6.5,2.1.5,2.9.4,2.6-.3,5.3-1.8,6.9-3.8-.2.5-.5,1-.6,1.6,0,.2-.2.5,0,.7,0,.1.2.2.4.3.9.2,2.7-.6,3.5-1.1,2-1.2,3.1-3,3.6-5.3Z" fill="#e7b483"/>
  <path d="M33.5,37.1c.2,0,.4,0,.5.2,0,.1,0,.4.1.6.2.5.9,1,1.3,1.3,2,1.4,4.9,2.2,7.1,1,.5-.3,1-.9,1.5-1,0,0,.2,0,.2.1,0,.1.1.3,0,.5,0,.4-.6.8-.9,1-1.4,1-3.2,1.2-4.8.9-2.1-.4-4.1-1.4-5.3-3.2,0,0-.1.1-.2.2-.1.1-.3.3-.5.3-.1,0-.2,0-.3-.2,0-.1,0-.3,0-.4.1-.6.7-1,1.1-1.3Z" fill="#914025"/>
  <path d="M42,32.2c.1,0,.2,0,.4,0,0,0,.1,0,.2.2.2.3.3.7.5,1,.2.5.5.9.8,1.4.3.7.5,1.4.2,2.1-.2.5-.7.9-1.2,1.1-1,.5-2.4.4-3.4,0-.1,0-.3-.2-.4-.3-.1,0-.2-.2-.2-.3,0-.2,0-.2.1-.3.6-.3,1.6.3,2.3.3.5,0,1.4-.2,1.7-.6.9-1-1.1-3-1.1-4.1,0-.3,0-.4.2-.6Z" fill="#563d1e"/>
  <path d="M34.9,23.3c1.1-.2,2.5,0,3.4.6.3.2.6.4.7.7,0,.2,0,.3-.1.4-.2.1-.3.1-.5,0-.3,0-.6-.3-.8-.4-.8-.4-1.7-.4-2.6-.3-1.2.2-1.8.7-2.8,1.2-.2.1-.5.2-.7.1-.1,0-.2-.1-.2-.2,0-.1,0-.3.1-.4.6-.9,2.5-1.6,3.6-1.8Z" fill="#563d1e"/>
  <path d="M31.8,29.4c.6.1,1.1.9,1.7,1.2.9.4,2.2.6,3,0,.3-.2.6-.8,1-.8,0,0,.2,0,.3,0,.1,0,.2.2.2.3,0,.3-.1.6-.3.8,0,0-.1.1-.2.2-.7.7-1.7,1-2.6.9-1.2,0-2.4-.5-3.1-1.3-.2-.2-.4-.5-.3-.8,0-.3.2-.4.4-.6Z" fill="#563d1e"/>
  <path d="M44.4,29.9c.1,0,.2,0,.4,0,.5.3.6.9,1.3,1.2.3.1.6.2.9.2,1.6.2,1.4-.7,2.4-.9.2,0,.3,0,.4,0,0,.1.1.2.1.3,0,.3,0,.4-.3.6,0,0-.2.2-.2.2-.7.6-1.6.9-2.6.8-1,0-1.9-.5-2.5-1.2-.2-.3-.4-.5-.3-.9,0-.3.1-.4.3-.6Z" fill="#563d1e"/>
  <path d="M46.9,23.9c.5,0,.9,0,1.4,0,.9.2,2.6,1,3,1.9,0,.2,0,.3,0,.4-.1.1-.3.3-.5.3-.4,0-.8-.5-1.1-.7h0c-.7-.6-1.9-1.1-2.8-.8-.4.1-.9.4-1.4.5-.2,0-.3,0-.5-.1,0-.2,0-.3,0-.4.4-.6,1.2-.9,1.8-1Z" fill="#563d1e"/>
  <path d="M24.9,40.9c.6.7,1.2,1.4,1.9,2,2.9,2.7,6.9,4.5,10.8,4.8,1.2,0,2.3,0,3.5-.2.3-.1.8-.3,1.2-.3,0,.1,0,.1,0,.2,0,0,0,.2,0,.3.2-.2.3-.4.4-.6.7-.3,1.4-.6,2.1-.9.5-.3,1.1-.7,1.6-.9,1.3.5,2.4,1.5,3.3,2.5,2.5,2.5,7.2,9.8,7.2,13.4,0,1.8-.9,3.5-2.1,4.7-.1-.4-.2-.7-.4-1-.6-1.2-1.8-2.2-3-2.6-1.2-.4-2.4-.4-3.6.2.7-1.3,1.6-2.2,2.9-2.9.4-.2.8-.3,1.1-.6.2-.1.2-.2.3-.4,0-.1,0-.1-.1-.2-1-.8-3.3,1.7-3.9,1.8-.3-.3,0-1.7,0-2.2,0-1.4-.5-2.6-.9-3.9-.2-.6-.2-1.3-.5-1.9,0-.2-.2-.5-.4-.6-.2,0-.2,0-.3.1-.6.7.7,4,.9,4.9.4,1.9-.3,3.3-1.2,4.9-.4.7-.8,1.5-1.2,2.2-1.8,0-4.5.2-6.3.6-.8-1.4-1.3-1.9-2.8-2.5-.5-.6-.9-1.5-1.4-2.2l-2.5-4.2c-.6-1.1-1.6-3-2.4-3.9,0,0-.1-.1-.2-.2,0,0-.1-.1-.2-.1,0,0-.1,0-.2-.1,0,0-.1,0-.2,0,0,0-.1,0-.2,0,0,0-.1,0-.2,0,0,0-.1,0-.2,0,0,0-.1,0-.2,0,0,0-.1,0-.2,0,0,0-.1,0-.2,0,0,0-.1,0-.2,0,0,0-.1,0-.2,0-.4.2-.9.6-1,1.1-.1.4,0,1,.1,1.4.4,1.2,1.2,2.3,1.8,3.4.8,1.5,1.7,2.9,2.4,4.4-.8.2-1.6.5-2.4.8-1.5-.8-3.8-1.4-5.4-1.9-.6-.2-1.1-.4-1.7-.6.5-1.5,2.1-5.3,2.1-6.7,0-.2,0-.3-.2-.4-.1,0-.3,0-.4,0-.2,0-.2.2-.3.3-.2.5-.3,1.1-.4,1.7-.3,1.1-.7,2.2-1.1,3.3-.2.5-.3,1.1-.6,1.6,0,0,0,0,0,0-.7-.2-1.5-.3-2.2-.3-.7,0-1.8,0-2.3.6-.1.1-.1.2-.1.3.3.5.6.3,1,.2.5-.1,1-.2,1.5-.2,1.6,0,3.1.7,4.6,1.2,1.4.5,2.9,1,4.3,1.4-1,.6-1.6,1.2-2.1,2.2-.7,1.5-.7,2.9,0,4.4-1.9-.3-3.7-.6-5.6-1-.9-.2-1.9-.4-2.8-.6-1.8-.5-3.7-1.3-4.7-3-1.1-2-.4-5.3.2-7.4.7-2.4,2.6-7.1,4.1-9.1.2-.2.4-.4.6-.6.2-.2.4-.4.6-.6.2-.2.4-.4.7-.5.2-.2.5-.3.7-.5,1.7-1,3.7-1.7,5.5-2.6.2-.2.4-.4.6-.6.5-.6.7-1.1.8-1.9Z" fill="#c7392a"/>
  <path d="M24.9,40.9c.6.7,1.2,1.4,1.9,2,2.9,2.7,6.9,4.5,10.8,4.8,1.2,0,2.3,0,3.5-.2,0,0,0,0,.1,0h0c-.6.4-1.2.8-1.9,1-4.6,1.5-10.1-.3-13.4-3.7-.4-.4-1.3-1.9-1.7-2,0,0,0,0,0,0,.5-.6.7-1.1.8-1.9Z" fill="#c7392a"/>
  <path d="M23.5,43.4c.2-.2.4-.4.6-.6,0,0,0,0,0,0,.3.1,1.3,1.7,1.7,2,3.3,3.4,8.8,5.2,13.4,3.7.6-.2,1.3-.7,1.9-1h0c0,0,0-.1-.1-.1.3-.1.8-.3,1.2-.3,0,.1,0,.1,0,.2,0,0,0,.2,0,.3-.6,1-2.1,1.7-3.2,2-3.6,1-7.4.2-10.6-1.7-.7-.4-1.3-.8-1.9-1.2-.7-.5-2.7-2.5-2.8-3.3,0,0,0,0,0,0,0,0,0,0,0-.1Z" fill="#914025"/>
  <path d="M34.3,2.5c1,0,2,0,2.9.3.6.2,1.1.4,1.7.4.8.1,1.6.1,2.4.2,1,0,1.9.2,2.9.4,1.6.4,3,1.2,3.8,2.6.4,0,.8,0,1.2.2,1.3.2,2.5.5,3.6,1.2,1.1.7,2.1,1.8,2.5,3.2.2.6.2,1.2.3,1.7,1.3.5,2.4,1.5,2.9,2.8.5,1.2.3,3-.5,4.1-.4.5-1,1-1.3,1.6-.1.3.3,1.7.4,2.1.4.8.9,1.2,1.7,1.4-.2.3-.3.6-.6.9-.6.6-1.6,1.1-2.5,1.2-.3,0-.6,0-.9,0,0,0-.1,0-.2.2-.1.3.1.6.2.8,0,.2,0,.5-.1.7-.3.9-1,1.3-1.8,1.7.2-.8.3-1.6.4-2.4.2-1.8.4-3.5.4-5.3.3,0,.6-.2.8-.3,1-.5,1.5-1.1,1.8-2.2.3-.9.3-1.8-.2-2.6-.3-.5-.8-1.2-1.3-1.3-.2,0-.2,0-.3,0-.2.5.8,1.3,1,1.8.3.6.2,1.3,0,1.9-.3.7-1,1.4-1.7,1.7h0c0-1,0-2.2-.4-3.2-.5-1.7-1.3-3.6-2.7-4.8-.4-.3-.9-.6-1.3-.8,0-.5-.2-1-.4-1.5,0,0,0-.2,0-.3-.1-.2-.4-.4-.6-.5-.2,0-.3,0-.4,0-.2.4.3,1.3.4,1.7.3,1.4-.2,2.9-1,4.1-.9,1.4-2.4,2.5-4,2.9.2-.7.8-1.9.6-2.6,0-.2-.2-.2-.4-.3,0,0,0-.1,0-.2,0,0,.1-.2.2-.3.4-.8.8-2.8.5-3.6,0-.2-.1-.3-.3-.4-.1,0-.2,0-.4,0,0,0-.1.2-.1.3,0,.4,0,.9-.1,1.3,0,.5-.2,1.1-.3,1.6-.5,1.9-2.3,3.5-4,4.4-1.5.8-3.7,1.6-5.4,1,1-1,2-1.9,2.5-3.3.1-.3.3-1.1.1-1.4,0-.1-.1-.1-.3-.2-.4,0-.5.6-.7,1-.5,1.1-1.4,2-2.3,2.7-1.3.9-2.5,1.5-4,1.8-.4,0-.9.2-1.3.2-.5,0-1-.2-1.4-.3-.2,0-.4,0-.5,0-.3.2-.7,1.4-1.5,2-.8.6-1.9.7-2.8.2-.4-.2-.8-.6-1.2-.6-.1,0-.1,0-.2.2,0,.3.2.6.5.9.6.5,1.5.6,2.2.5,1.9-.1,2.5-1.1,3.6-2.4.3,0,.5,0,.8,0,0,.2,0,.3-.1.5,0,.2-.1.3-.2.5,0,.2-.1.3-.2.5,0,.1-.1.3-.2.4,0,.1-.2.3-.2.4s-.2.3-.3.4c0,.1-.2.3-.3.4,0,.1-.2.3-.3.4-.9,1.1-2.3,2.2-3.8,2.3-.4,0-.9,0-1.2-.3-.2-.5.3-.6.4-1h-.1c-.3-.2-2.1-.3-2.5-.2-.4,0-.6.2-.9.5-.7.9-.6,2.6-.4,3.7.2,1.1.5,2.5,1.3,3.3.4.4.8.7,1.2,1.1.4.4.9,1,1.4,1.3.6.4,1.1.5,1.7.4l.5,1.4c.1.3.2.7,0,1.1-.1.3-.4.4-.6.5-.3,0-.7.2-1,0-.3-.5.1-.9,0-1.4,0,0,0-.1-.2-.2-.5-.2-2.1.4-3,0-.1,0-.3-.2-.3-.3,0-.2.7-.7.9-1,.3-.5.1-1.1,0-1.6-1.4-1.4-1.7-1.9-2.3-3.8-.1-.4-.2-.9-.4-1.3-.4-.6-1.1-.8-1.5-1.4-.2-.3-.3-.8-.3-1.2-.1-2,1.2-2,1.3-2.8-.2-.2-1-.4-1.3-.5-1-.5-1.6-1.6-1.8-2.6h0c1.1,0,2.1,0,2.9-.9.2-.2.3-.4.3-.6,0-.1,0-.1-.1-.2-.2-.2-.5-.1-.7-.1,0,0-.2,0-.2-.1-.8-.5-1.4-1.4-1.6-2.3.4,0,.8,0,1.1,0,1.6-.1,2.9-1.3,3.4-2.8.3-.9.3-1.9.6-2.8.3-1,.8-1.8,1.4-2.6.9-1.1,2.3-2,3.7-2.3.7-.1,1.3-.2,2-.4.7-.3,1.3-.9,2-1.3,2.2-1.3,4.5-2.1,7-2.2Z" fill="#8b6a3a"/>
  <path d="M35.1,5.4c.4,0,.8,0,1.2,0,.5,0,2,.3,2.3.7,0,.1.1.2,0,.4,0,.3-.3.3-.5.2-2.1-.3-3.3-.7-5.4.2-3.3,1.4-3.2,5-6.7,6.2-.7.2-2.7.6-3.4.2-.1,0-.2-.2-.2-.3,0-.1,0-.3.1-.4.3-.3,1.4-.1,1.8-.1,1.8-.1,3.1-1.1,4.1-2.6.4-.7.8-1.4,1.3-2,1.3-1.6,3.4-2.4,5.4-2.5Z" fill="#563d1e"/>
  <path d="M38.5,9.1c.3,0,.6,0,.9,0,.1,0,.3,0,.4.2,0,.1.1.3,0,.4,0,.2-.2.2-.3.3-.4.1-.8,0-1.2.1-.9.1-1.9.9-2.5,1.6-2.2,2.2-2,4.9-5.1,6.7-1.4.8-3,1.2-4.6.8,0,0,0,0,0,0-.2-.2-.4-.3-.5-.6,0-.2-.2-.6,0-.8,0-.1.3-.2.4-.2.3.1.3.5.5.7.2.2.8.2,1.1.2.8,0,1.5-.3,2.2-.7,3-1.5,3.2-4.6,5.2-6.9,1-1.1,2.1-1.7,3.6-1.8Z" fill="#563d1e"/>
  <path d="M8.4,73.9c1.4.8,2.7,1.7,4,2.6,3.1,2.1,6.3,4.1,9.5,6.1,1.2.8,2.5,1.9,3.9,2.3.7.2,1.4.2,2.1.2,2.7-.1,5.3-.4,8-.7l17.2-1.5,12.5-1.1c1.8-.2,3.7-.2,5.6-.5,0,1.1.1,2.3,0,3.3,0,.6-.4,1-.9,1.4-.3.1-.6.3-.9.3-2.7.4-5.5.6-8.2.8l-15.2,1.6c-4.4.5-8.8.9-13.2,1.4l-3.5.3c-.8,0-1.6.2-2.4.1-.6,0-1.2-.3-1.8-.6-2.4-1.4-4.7-3.2-7-4.8l-4.8-3.3c-1.3-.9-2.7-1.7-4-2.7-.3-.2-.7-.5-.9-.8-.4-.5,0-3.6,0-4.4Z" fill="#e6ac30"/>
  <path d="M26.2,85.6s0,0,0,0c.2,0,.3,0,.4.2.2.6,0,2.6,0,3.3,0,.3,0,.4-.3.6-.2,0-.3,0-.5-.2-.1-.1-.1-.3-.1-.5,0-.8,0-2.4.2-3.1,0-.1.1-.2.2-.3Z" fill="#563d1e"/>
  <path d="M6.3,67.4c.2.2.4.4.7.6.7.5,1.5,1,2.2,1.5,1.3.9,2.7,1.7,4,2.5l5,3.1,3.6,2.3c1.4.9,2.8,2,4.4,2.4.9.2,1.9.2,2.8.2,2.5,0,5-.4,7.5-.6l16.4-1.4,12-1c2.2-.2,4.5-.3,6.7-.6.8-.1,1.5-.4,2.2-.8-.2,1.2,0,2.6-.7,3.6-.1.2-.3.3-.4.4-.6.5-1.3.7-2,.8-.9.1-1.7.2-2.6.2-1.3.1-2.7.2-4,.3-5,.5-10,.9-14.9,1.3l-15.3,1.4-3.5.3c-1.3.1-2.7.4-3.9.2-.6,0-1.2-.5-1.7-.8-1-.6-2-1.3-2.9-1.9l-5.3-3.4c-2.1-1.4-4.2-2.7-6.4-4.1-.9-.6-1.8-1.1-2.7-1.8-.3-.2-.7-.5-1-.8-.6-.9-.4-2.9-.2-3.9Z" fill="#7c9e42"/>
  <path d="M26.8,80.4c.1,0,.3,0,.4.1.2.1.2.5.2.7,0,.6,0,1.9-.4,2.4-.2,0-.3,0-.4-.2-.2-.2-.2-.6-.2-.8,0-.6,0-1.8.4-2.2Z" fill="#563d1e"/>
  <path d="M56.9,64.3c0,0,.1,0,.2,0,1.5.6,2.9,1.5,4.3,2.3l4.6,2.6,4.9,2.8c.8.5,1.7.9,2.4,1.4.2.1.6.4.6.6,0,.2,0,.2,0,.4-.3.4-1.1.7-1.6.8-1.4.3-3.7.4-5.2.5-4.1.4-8.1.7-12.2,1l-19.2,1.7c-1.7.1-7.6.8-8.8.5-1.6-.4-6.1-3.4-7.7-4.5l-6.7-4.2c-1.7-1.1-3.5-2.1-5.1-3.2-.2-.2-.6-.4-.7-.7,0,0,0,0,0-.1.5-.5,3.3-.4,4-.5,3,3.4,7.7,3.3,11.8,4.2.6.7,1.5,1.3,2.3,1.8l4.5,3.1c1.3.9,2.8,2.2,4.2,2.9,0,0,0,0,0,0,.4.2,1,.1,1.4,0,1.8-.1,3.5-.3,5.3-.5,4.4-.4,8.7-.8,13.1-1.3l4.4-.4c.6,0,1.5,0,2.1-.3.1,0,.3-.2.4-.4,0-.1,0-.3,0-.4-.3-.5-5.2-3.3-6-3.8-.4-.2-.8-.5-1.1-.7-.1,0-.2,0-.3,0,0,0-.1,0-.2-.1,0-.2.9-.8,1.1-1.1.4-.5.7-1.1.9-1.7,1.1-.8,1.6-1.7,2.2-2.8Z" fill="#7c9e42"/>
  <path d="M55.2,88.7c.1,0,.1,0,.2,0,.3.6.5,2.9.4,3.6-.3.4-.7.7-1.1.9-1,.6-2.1,1-3.2,1.3-6.4,2.1-16.1,2.8-22.6,1.2-.6-.1-1.1-.3-1.7-.4.1-1.3.2-2.6.2-3.9.8,0,1.7-.1,2.5-.2,2.1-.2,4.2-.4,6.3-.6l18.9-2Z" fill="#e7b483"/>
  <path d="M42.9,74.4c.2,0,.4,0,.5.1.1,0,.2.1.2.3,0,.2-.1.2-.3.3-.2,0-.3,0-.4,0-.1,0-.2-.2-.2-.3,0-.2,0-.2.2-.4Z" fill="#563d1e"/>
  <path d="M52.7,73.1s0,0,0,0c0,0,0,0,0,0,0,0,0,0,0,0,0,0,0,0,0,0s0,0,0,0c0,0,0,0,0,0,0,0,0,0,0,0,0,0,0,0,0,0,0,0,0,0,0,0,0,0,0,0,0,0,0,0,0,0,0,0,0,0,0,0,0,0,0,0,0,0,0,0,0,0,0,0,0,0,0,0,0,0,0,0s0,0,0,0c0,0,0,0,0,0,0,0,0,0,0,0,0,0,0,0,0,0,0,0,0,0,0,0,0,0,0,0,0,0,0,0,0,0,0,0,0,0,0,0,0,0,0,0,0,0,0,0,0,0,0,0,0,0,0,0,0,0,0,0,0,0,0,0,0,0,0,0,0,0,0,0,0,0,0,0,0,0,0,0,0,0,0,0s0,0,0,0c0,0,0,0,0,0,0,0,0,0,0,0,0,0,0,0,0,0s0,0,0,0c0,0,0,0,0,0,0,0,0,0,0,0,0,0,0,0,0,0,0,0,0,0,0,0,0,0,0,0,0,0,0,0,0,0,0,0,0,0,0,0,0,0,0,0,0,0,0,0,0,0,0,0,0,0,0,0,0,0,0,0,0,0,0,0,0,0,0,0,0,0,0,0,0,0,0,0,0,0s0,0,0,0c0,0,0,0,0,0,0,0,0,0,0,0,0,0,0,0,0,0,0,0,0,0,0,0,0,0,0,0,0,0,0,0,0,0,0,0,0,0,0,0,0,0Z" fill="#563d1e"/>
  <path d="M50.9,73.6c.1,0,.2,0,.3.1,0,.1,0,.2,0,.3,0,.2-.2.2-.3.3-.1,0-.3,0-.3-.2-.1-.1-.1-.2-.1-.3,0-.2.2-.2.4-.3Z" fill="#563d1e"/>
  <path d="M48.1,74c.1,0,.3,0,.4,0,.1,0,.2.1.2.2,0,.2,0,.3-.2.4-.1,0-.2,0-.3,0-.1,0-.2,0-.3-.2,0-.2,0-.3.2-.5Z" fill="#563d1e"/>
  <path d="M40.1,74.7c.2,0,.4,0,.5,0,.1,0,.2,0,.2.2,0,.2,0,.3-.2.4,0,0-.2,0-.3,0-.1,0-.2-.1-.3-.2,0-.2,0-.2,0-.4Z" fill="#563d1e"/>
  <path d="M34.8,75c.1,0,.3,0,.4,0,.1,0,.2.1.2.3,0,.2-.1.3-.3.4-.1,0-.3,0-.4,0-.1,0-.2-.1-.2-.2,0-.2.1-.2.3-.4Z" fill="#563d1e"/>
  <path d="M50.9,71.9c.1,0,.2,0,.3.2.1.1,0,.2,0,.3-.1.2-.2.2-.4.3,0,0-.2,0-.3-.1-.1-.1-.1-.2-.1-.3,0-.2.2-.2.4-.3Z" fill="#563d1e"/>
  <path d="M37.6,74.8s0,0,0,0c0,0,0,0,0,0,0,0,0,0,0,0,0,0,0,0,0,0,0,0,0,0,0,0,0,0,0,0,0,0,0,0,0,0,0,0,0,0,0,0,0,0,0,0,0,0,0,0s0,0,0,0c0,0,0,0,0,0,0,0,0,0,0,0,0,0,0,0,0,0s0,0,0,0,0,0,0,0c0,0,0,0,0,0,0,0,0,0,0,0,0,0,0,0,0,0,0,0,0,0,0,0,0,0,0,0,0,0,0,0,0,0,0,0,0,0,0,0,0,0,0,0,0,0,0,0,0,0,0,0,0,0,0,0,0,0,0,0,0,0,0,0,0,0,0,0,0,0,0,0,0,0,0,0,0,0,0,0,0,0,0,0,0,0,0,0,0,0s0,0,0,0c0,0,0,0,0,0,0,0,0,0,0,0,0,0,0,0,0,0,0,0,0,0,0,0,0,0,0,0,0,0,0,0,0,0,0,0,0,0,0,0,0,0,0,0,0,0,0,0,0,0,0,0,0,0,0,0,0,0,0,0,0,0,0,0,0,0,0,0,0,0,0,0,0,0,0,0,0,0s0,0,0,0c0,0,0,0,0,0,0,0,0,0,0,0,0,0,0,0,0,0,0,0,0,0,0,0,0,0,0,0,0,0,0,0,0,0,0,0,0,0,0,0,0,0,0,0,0,0,0,0,0,0,0,0,0,0,0,0,0,0,0,0s0,0,0,0Z" fill="#563d1e"/>
  <path d="M45.4,74.2c.1,0,.3,0,.4,0,.1,0,.2.1.2.2,0,.2-.1.3-.3.4-.1,0-.2,0-.3,0-.1,0-.1-.1-.2-.3,0-.2,0-.3.2-.4Z" fill="#563d1e"/>
  <path d="M36.1,73s0,0,0,0c0,0,0,0,0,0,0,0,0,0,0,0,0,0,0,0,0,0,0,0,0,0,0,0,0,0,0,0,0,0,0,0,0,0,0,0,0,0,0,0,0,0,0,0,0,0,0,0,0,0,0,0,0,0,0,0,0,0,0,0,0,0,0,0,0,0,0,0,0,0,0,0,0,0,0,0,0,0,0,0,0,0,0,0,0,0,0,0,0,0,0,0,0,0,0,0,0,0,0,0,0,0,0,0,0,0,0,0,0,0,0,0,0,0,0,0,0,0,0,0,0,0,0,0,0,0,0,0,0,0,0,0,0,0,0,0,0,0,0,0,0,0,0,0,0,0,0,0,0,0,0,0,0,0,0,0,0,0,0,0,0,0,0,0,0,0,0,0,0,0,0,0,0,0,0,0,0,0,0,0,0,0,0,0,0,0,0,0,0,0,0,0,0,0,0,0,0,0,0,0,0,0,0,0,0,0,0,0,0,0,0,0,0,0,0,0,0,0,0,0,0,0,0,0,0,0,0,0,0,0,0,0,0,0s0,0,0,0c0,0,0,0,0,0,0,0,0,0,0,0,0,0,0,0,0,0,0,0,0,0,0,0,0,0,0,0,0,0,0,0,0,0,0,0,0,0,0,0,0,0,0,0,0,0,0,0,0,0,0,0,0,0,0,0,0,0,0,0,0,0,0,0,0,0,0,0,0,0,0,0,0,0,0,0,0,0,0,0,0,0,0,0,0,0,0,0,0,0Z" fill="#563d1e"/>
  <path d="M41.5,72.6c0,0,.2,0,.3.1.1,0,.1.1.1.3,0,.2-.2.3-.3.5,0,0-.2,0-.3-.1-.1-.1-.1-.2-.1-.3,0-.2.2-.3.3-.4Z" fill="#563d1e"/>
  <path d="M44,72.7c.1,0,.2,0,.3,0,.1,0,.2.1.2.3,0,.2-.1.3-.3.5,0,0-.2,0-.3,0-.1,0-.2-.1-.2-.3,0-.2.1-.2.2-.4Z" fill="#563d1e"/>
  <path d="M33.9,73.2c.1,0,.2,0,.4.1,0,.1.1.2,0,.3,0,.2-.2.3-.4.3,0,0-.2,0-.2-.1-.1,0-.1-.2-.2-.3,0-.2.2-.2.3-.4Z" fill="#563d1e"/>
  <path d="M46.6,72.8c0,0,.2,0,.2.1,0,.1.1.2,0,.3,0,.2-.2.2-.3.3-.1,0-.3,0-.3-.2-.1-.1-.1-.2,0-.3.1-.2.2-.2.4-.3Z" fill="#563d1e"/>
  <path d="M38.3,73.1c0,0,.2,0,.2,0,.1,0,.2,0,.2.2,0,.2,0,.2-.1.3-.2,0-.2,0-.3-.2,0-.2,0-.2,0-.3Z" fill="#0d0a03"/>
  <path d="M31.2,97.3c2.1.4,4.3.4,6.3.4-.1.8-.2,1.5-.2,2.3,0,.5,0,1,.3,1.4.3.6.9,1.2,1.3,1.7.9,1,1.8,1.9,2.8,2.8.6.5,1.2,1,1.8,1.6.3.3.7.8.6,1.2,0,.2-.1.3-.2.4-1,.7-1.5-1.3-2.4-1.5-.2,0-.3,0-.4,0,0,.6.9,1.1.9,1.7,0,.2,0,.2-.2.4-.2.1-.4.2-.6.2-.2,0-.2-.2-.3-.4-.2-.4-.5-.8-.9-1.1-.2-.2-.6-.3-.9-.3,0,0-.1,0-.2.2,0,.5.7.7.9,1.2,0,.2.1.4,0,.6,0,.1-.2.2-.3.3-.8.3-1-1.2-1.7-1.5-.2,0-.5-.1-.7,0,0,0,0,0,0,.1,0,.2.2.4.4.6.2.2.4.5.4.8-.1.1-.2.1-.4.2-1.4.1-3.4-2.9-4.3-3.8-.6-.5-1.3-.9-1.9-1.4-1.4-1.3-.2-3.1,0-4.6,0-1.1,0-2.2,0-3.4Z" fill="#e7b483"/>
  <path d="M49.8,96.2c.1.1-.5,2.1-.3,2.8,0,.3.2.6.4.8.7.9,2.7,2.4,3.7,3.1.5.3,1,.6,1.5.9.3.2.7.5.7.9,0,.2,0,.4-.2.5-.3,0-.5-.5-.8-.8-.2-.2-.4-.3-.7-.3-.2,0-.3,0-.4.2,0,.5.8.7,1,1.2,0,.1.1.3,0,.5,0,.2-.3.3-.4.3-.4-.3-.6-1-1.2-1.4-.2-.1-.4-.2-.6-.2-.2,0-.3.3-.4.4,0,.3,1,.8,1.3,1.4,0,.1,0,.3,0,.4-.1.3-.4.3-.7.4-.2-.4-.5-.8-.8-1.1-.3-.2-.6-.5-1-.5-.2,0-.3,0-.4.2,0,.7,1.3,1,1.3,1.7,0,0,0,.2-.1.2-.1,0-.3.1-.5.1-.5,0-.9-.3-1.3-.5-1.2-.8-2.2-1.9-3.5-2.8-.9-.7-2.2-1.1-3-1.9-.3-.3-.5-.6-.5-1-.1-.9.5-2,.7-2.9.1-.6.2-1.1.2-1.7,1.8,0,4.1-.6,5.8-1.1Z" fill="#e7b483"/>
  <path d="M31,62.1c.2,0,.4,0,.5,0,1.3,0,2.8,1.1,3.6,1.9.7.6,2.1,2.3,2.1,3.3,0,.3-.2.7-.4.9-.1.1-.2.1-.4.1-.5-.5-.7-1.2-1.2-1.7-.6-.7-1.7-2-2.6-2-.2,0-.3,0-.4.1,0,.2,0,.3.2.5.3.3.8.6,1.1.9.7.6,1.7,1.7,1.8,2.6,0,.3,0,.6-.3.8-.1.1-.2.2-.4.2-.4,0-.8-.7-1-1-.5-.6-1.9-2.2-2.7-2.2-.2,0-.2,0-.3.1,0,.1,0,.2,0,.3,0,.3.2.4.5.6.8.6,2.2,1.5,2.4,2.5,0,.1,0,.3,0,.4,0,.2-.2.3-.4.3-.1,0-.2,0-.4,0-.6-.3-1.7-1.4-2.5-1.9-.3-.1-.5-.2-.7-.2-.1.1-.2.1-.2.3,0,.2,0,.3.2.5.4.4,1.7,1.3,2.3,1.7-1.7.3-4-.2-5.4-1.2-.7-.5-1.2-1.1-1.4-2-.2-1.1.1-2.3.8-3.2,0,0,.1-.2.2-.3,0,0,.2-.2.3-.3,0,0,.2-.2.3-.2,0,0,.2-.1.3-.2.7-.4,3.6-1.4,4.4-1.5Z" fill="#e7b483"/>
  <path d="M49,63c.8,0,1.6,0,2.3.4,1,.5,1.9,1.3,2.3,2.3.2.6.1,1.3-.2,1.9-.6,1-3.9,3.6-5,3.9,0-.4.9-1.9,1.2-2.3.3-.4.9-.8.9-1.4,0-.2,0-.3-.1-.4-.1,0-.1,0-.3,0-.8.2-1.8,2-2.2,2.7-.2.4-.7,1-1.1,1.1-.1,0-.2,0-.3,0-.1-.1-.2-.3-.2-.4,0-1.2,1.4-2.3,2.1-3.2.3-.3.4-.6.4-1,0,0,0,0,0,0-.2,0-.3-.1-.5,0-.7.2-2.1,2-2.5,2.7-.2.3-.3.7-.5,1-.1.2-.4.6-.7.7-.2,0-.4,0-.6-.1-.1,0-.1-.2-.2-.3,0-1.2,1.9-2.9,2.6-3.8.1-.2.2-.5.2-.7,0-.1,0-.2-.2-.3-.2,0-.3,0-.4.1-.5.4-1.7,1.9-2.1,2.5-.3.5-.6,1-1,1.5,0,0-.1.2-.3.2-.1,0-.3,0-.4,0-.2,0-.3-.3-.3-.5-.1-.7.6-1.8,1.1-2.4.4-.5.9-.9,1.3-1.4.4-.4.7-.8,1.1-1.1,1-.8,2.4-1.2,3.6-1.4Z" fill="#e7b483"/>
  <path d="M24.4,90.7c.7.3,1.3.6,2.1.8,0,.7,0,1.4-.1,2.1l-.2,4-.5,9.2c0,1.1,0,4.5-.5,5.4,0,0,0,0-.1.1-.2.2-.4.3-.7.3-.2,0-.5,0-.6-.2-.2-.2-.2-.5-.2-.7,0-.7,0-1.3.1-2l.2-3.8c.2-5,.6-10.1.7-15.1Z" fill="#7c9e42"/>
  <path d="M9.5,80.6c.6.3,1.3.8,1.8,1.2-.3,1.9-.4,3.9-.5,5.8l-.8,8.6c-.1,1.3-.3,5.5-.7,6.5,0,0,0,0-.1,0-.2.1-.4.3-.6.2-.3,0-.6-.3-.8-.5,0-1.1,0-2.2.2-3.2l.4-4.5c.4-4.7.8-9.5,1.2-14.2Z" fill="#7c9e42"/>
  <path d="M69.5,87.2h0c.2.5.2,3.8.3,4.5l.5,8.7c.1,1.8.3,3.6.3,5.4,0,.4,0,1,0,1.3-.1.2-.3.4-.5.5-.4.1-.6,0-1-.1-.2-.2-.2-.4-.3-.7-.1-.9-.1-1.8-.2-2.7l-.3-4.7c-.2-4-.6-7.9-.7-11.9.6,0,1.3-.1,1.9-.2Z" fill="#7c9e42"/>
  <path d="M13.8,48h.6c-.6.9-1.1,2-1.6,3-1.4,3-2.5,5.7-3,9,0,.1,0,.2,0,.4h0s0,0,0,0c-.1-2.1,0-4.2,0-6.4,0-1.2-.1-2.6,0-3.8,0-.4.2-.9.5-1.2.7-.8,2.6-.8,3.6-.9Z" fill="#7c9e42"/>
  <path d="M16.2,46.1h0s0,0,0,0c-.3.2-.6.5-.9.7-.4.2-.8.2-1.3.2-1.4.1-3.6,0-4.7,1.2-.4.4-.6.9-.7,1.4-.2,1.4-.1,3.1-.1,4.6,0,2.3,0,4.5,0,6.8-.3-.2-.5-.4-.8-.6-.4-.4-.5-.7-.6-1.2-.1-1.5,0-3.1,0-4.6v-3.2c0-.7,0-1.5,0-2.2,0-.5.4-1,.7-1.4.4-.5.8-.8,1.4-1,.8-.3,1.8-.3,2.7-.4,1.3-.1,2.7-.3,4-.4Z" fill="#7c9e42"/>
  <path d="M30.1,55.1c.4.5,1.1,1.8,1.4,2.5.8,1.5,1.8,2.9,2.6,4.4-.4-.3-.8-.5-1.2-.6-.6-.2-1.2-.3-1.8-.3-.5-.7-.8-1.5-1.3-2.3-.5-.9-1-1.8-1.5-2.7.6-.3,1.2-.6,1.7-1Z" fill="#e6ac30"/>
  <path d="M21.8,88.9c.6.4,1.2.8,1.7,1.2,0,1.9-.1,3.9-.2,5.7-.2,0-.3,0-.5,0-.3,0-.6,0-.9-.3-.2-.2-.3-.6-.3-.9,0-.7,0-1.6,0-2.3v-3.4Z" fill="#7c9e42"/>
  <path d="M43.3,64.6c.1,0,.2,0,.3,0-.4.6-1.2,1.6-1.9,2-1,0-2,0-3,.2h-.2c0-.2-.1-1.3-.2-1.7,1.6,0,3.3-.3,5-.4Z" fill="#7c9e42"/>
  <path d="M27.3,51.9c.2,0,.4,0,.5,0,.6.2.9.9,1.2,1.4-.3.3-.6.4-.9.6-.2.1-.5.2-.8.3,0,0-.1-.2-.2-.2-.3-.4-.6-1-.5-1.5,0-.3.4-.4.6-.6Z" fill="#5e9fa6"/>
  <path d="M38.4,69.6c.4.5.5,1.5.6,2.1l-.5-.3c-.4-.3-.7-.5-1.1-.8.4-.3.7-.6,1-1Z" fill="#e7b483"/>
  <path d="M37.7,68.2c.1.2.3.3.3.6,0,.2-.1.4-.3.6-.3.2-.6.3-1,.3-.1,0-.2-.2-.3-.3,0-.3.6-.5.8-.7.2-.1.3-.3.5-.5Z" fill="#e7b483"/>
  <path d="M21.4,33.7c0,0,0,0,.1,0,.3.3.6.8.6,1.2,0,.2,0,.2-.2.3-.1,0-.3,0-.4-.1-.2,0-.4-.2-.4-.4-.1-.4.1-.7.3-1.1Z" fill="#e6ac30"/>
  <path d="M29.4,53.9s.1,0,.2.1c0,.1,0,.2,0,.3-.4.5-1.1.7-1.6.9-.1,0,0,0-.2,0,0,0,0,0,0-.2.2-.4,1.2-.7,1.6-1.1,0,0,0,0,0,0Z" fill="#7c9e42"/>
  <path d="M46.9,60.8h.2c0,.3,0,.4,0,.5-.1.6-.5,1-1,1.4h0c0,0,0,0,0,0,0-.5.6-1.4.9-1.9Z" fill="#e7b483"/>
</svg>