<?xml version="1.0" encoding="UTF-8"?>
<svg id="Layer_1" xmlns="http://www.w3.org/2000/svg" version="1.1" viewBox="0 0 80 115">
  <!-- Generator: Adobe Illustrator 29.1.0, SVG Export Plug-In . SVG Version: 2.1.0 Build 142)  -->
  <path d="M33.6,1.1h3.3c.4,0,.7,0,1.1.1.4,0,.7.1,1.1.2.4,0,.7.1,1.1.2.4,0,.7.2,1.1.3.4,0,.7.2,1.1.3,4.9,1.5,10.3,4.8,12.7,9.5,1.7,3.2,2,7,.3,10.3,0,.3-.3.6-.5.9-.5.8-.8.9-1,1.8-.2,1.2-.6,2.5-.8,3.7,0,.7,0,1.4,0,2.1v.9c0,.3,0,.6,0,.8,0,.3,0,.6-.2.8,0,.3,0,.6-.2.8-.9,2.9-2.9,5.5-5.7,6.9,2.9,1.7,5.5,5.2,7.4,8,.3.4.7.9.6,1.4-.3.4-.9.5-1.3.7h0l.3.3c1,1.3,2.6,4.2,2.4,5.9.8,0,1.5.2,2.2.5,1.2.5,2.3,1.3,3.4,2,1.8,1.2,3.6,2.3,5.4,3.5,1.7,1.1,3.4,2.2,5.1,3.4.8.6,1.7,1.1,2.4,1.7.4.4.8.7,1,1.2.4,1.1.2,3.9-.3,5-.5,1-1.3,1.3-2.3,1.6,0,1.1,0,4.2-.3,5.1-.2.5-.4.9-.8,1.3.2,6.1.5,12.1.6,18.1,0,1.3,0,2.7,0,4v2.2c0,.5-.2.9-.5,1.3-.4.4-.9.6-1.5.7-.6,0-1.2,0-1.7-.6s-.5-.7-.5-1.1c0-.8,0-1.7,0-2.6l-.2-7.4c0-4.6-.4-9.2-.5-13.8-4,.3-8,.8-12,1.2.3,2.1,1,4.2,1.2,6.3,0,.5,0,.8-.3,1.2-1,1.1-3.2,1.4-4.5,1.5-.3,1-.8,3.1-.7,4.1,0,1.4,3.9,3.9,5.1,5,.5.4,1.1,1,1.1,1.7s0,.8-.4,1.1c-.2.2-.5.4-.8.6s-.5.4-.7.6c-.7.5-1.6.7-2.4.9-.5,0-.9.3-1.4.3-1.7,0-6.9-3.5-8.1-4.7-1.6-1.6-.3-3.5.2-5.2.3-.8.4-1.7.4-2.6-2,0-3.8-.5-5.8-.6,0,.7-.2,1.5-.3,2.2-.2.8-.4,1.6-.4,2.4s0,.7.3,1c.8,1.4,3.7,3.8,5,5.1.6.6,1.2,1.3,1.1,2.2,0,.4-.2.8-.5,1.1-.5.5-1.2.5-1.8.5-.7.5-1,.7-1.8.6-.4.2-.7.4-1.1.6h0c-.5,0-1.8.2-2.4.2-1,0-2.6-1.3-3.3-2-.6-.6-1.1-1.3-1.7-2-1.3-1.5-2.6-2.7-1.9-4.9.2-.7.6-1.4.7-2.2.3-1.1.3-2.4.2-3.6-1-.2-1.8-.4-2.7-.7,0,2.1-.1,4.2-.2,6.2l-.2,6c0,1.5,0,3.6-.2,5,0,.4-.2.8-.5,1.1-.4.4-1,.6-1.6.6s-1.2-.2-1.6-.6c-.3-.3-.4-.6-.4-1v-6.7c.2-3.7.3-7.3.4-11-1.4-.4-3.1-1.2-3.9-2.6,0-1.1.5-2.2.8-3.3.3-1.2.6-2.5.8-3.8-.7-.7-1.6-1.3-2.3-1.9-1.5-1.2-2.9-2.3-4.3-3.5-.8,6.9-1.3,13.9-2,20.9,0,.8-.1,1.9-.8,2.4-.5.4-1.3.5-1.9.4-.5,0-.9-.3-1.2-.7-.2-.3-.3-.7-.3-1,0-1.2.2-2.5.3-3.8l.7-8,.7-8.6c.1-1.6.2-3.3.5-4.8-.1,0-.2-.2-.4-.4-1.3-1.5-.6-4.8-.5-6.6-.5-.4-1-.8-1.4-1.2-1-1-1.1-2-1.2-3.4-1,.4-1.5,1.1-2.4,1.7h-.4c-.3-.2-.4-.7-.5-1.1-.3-1.7,0-3.4,1.1-4.7,0,0,0-.2.2-.2,0,0,0-.2.2-.2s0,0,.2-.2c0,0,0,0,.2-.2,0,0,0,0,.2-.2,0,0,.2,0,.2-.2,0,0,.2,0,.2-.2,0,0,.2,0,.3-.2,0,0,.2,0,.3,0,0,0,.2,0,.3,0s.2,0,.3,0c0,0,.2,0,.3,0h1.2v-.9c-.8-.2-1.5-.5-2-1-.9-.8-1.1-1.9-1.2-3.1v-5.4c0-1.4,0-2.9,0-4.3v-.8s0,0,0-.2c0,0,0,0,0-.2,0,0,0,0,0-.2,0,0,0,0,0-.2.5-.5,1.2-.9,1.9-1.1,1.8-.5,4.5-.7,6.4-.9,1.3,0,2.7-.3,4-.4-.3-.7-.4-1.5-.3-2.3.2-1.3.9-2.2,2-3-1.6-.5-3.1-1.6-4.1-2.9-1.6-2.1-1.9-4.4-1.5-7-1.6,0-2.7.3-4.2-.6-.8-.5-1.5-1.3-1.7-2.3-.3-1.2,0-2.3.7-3.3-.5,0-.9-.1-1.4-.3-.9-.3-1.6-1-2-1.8-.5-1.1-.4-2.6,0-3.7.4-1.1,1.2-2,2.3-2.5,1-.4,2-.4,3,0,0,0,0-.2-.1-.3-.4-1-.3-2.3.2-3.4v-.4s0,0,.1-.2c0,0,0,0,.1-.2,0,0,0,0,.1-.2,0,0,0,0,.1-.2,0,0,0,0,.1-.2h.1c0,0,.1,0,.2-.2,0,0,.1,0,.2,0,0,0,.1,0,.2,0,0,0,.1,0,.2,0,0,0,.1,0,.2,0h.6c1.1-.4,2.5-.3,3.6.2,1.2.6,1.9,1.4,2.4,2.6,0,0,.2-.2.3-.3,3.2-3.8,8-5.3,12.8-5.7l.5-.2Z" fill="#532d12"/>
  <path d="M47.7,11.2c1.8.9,3.2,2,4.2,3.8,1.9,3.2,1.4,7,.7,10.4-.2.9-.4,1.8-.6,2.7-.2,1.6,0,3.1-.6,4.7-.9,3.2-2.9,5.6-5.7,7.2-3.4,2-7.6,2-11.3,1-3.5-1-6.9-2.9-8.9-6.1-.5-.7-.7-1.6-1.1-2.3,0,0-.1-.2-.2-.2-.2,0-1.4.5-1.7.5s-.8,0-1.2,0h-.1c-.5-.2-.9-.5-1.3-.7-1.1-.7-1.9-2.2-2.2-3.4-.3-1.3-.2-2.9.6-4,.4-.5.9-1,1.6-1.1.5,0,1,0,1.5.2,2.2.9,2,2.7,2.8,3.2h.3c.2-.2.3-.3.3-.5.4-.8,1.1-1.5,1.6-2.2,1.1-1.5,1.9-2.9,2.5-4.7,1.2,0,2.3-.4,3.5-.7,2.8-.9,5.4-2.7,7.1-5.2.5-.7.9-1.5,1.3-2.3,0,1.3-.4,2.5-.7,3.7-.2.5-.8,1.8-.8,2.3s0,.2.2.2c.6.3,2.7-.7,3.2-.9,2.5-1.2,4.2-2.9,5.1-5.5h0Z" fill="#be723a"/>
  <path d="M35,33.9c.2,0,.3,0,.4,0,.3.2.5.5.8.8.8.8,1.8,1.4,2.9,1.6.9.2,1.9.2,2.7,0,.6,0,1.5-.7,2.1-.6v.2c0,.3-.2.4-.4.6-.7.5-1.4.8-2.2.9-1.9.3-3.9-.3-5.4-1.5-.5-.4-1.1-.9-1.2-1.6,0-.3,0-.4.2-.6h.1Z" fill="#532d12"/>
  <path d="M33,26.6h.2c.2.1.7.8.9,1.1.6.5,1.2.7,2,.7,1.3-.1,1.3-.9,2-1.6,0-.1.2-.2.3-.2h0c.2.5,0,1.3,0,1.6,0,.2-.2.3-.3.4-.5.6-1.2,1-2,1.2h-2.8c-.5-.4-1-1-1-1.6s0-.8.3-1.1l.5-.5Z" fill="#532d12"/>
  <path d="M36,19.5c.9,0,1.8,0,2.6.5.3.2.7.5.7.9s0,.3,0,.5c-.2.1-.3.2-.5.1-.3,0-.7-.2-1-.4-.8-.3-1.6-.3-2.5-.2-.7.1-2.8.9-3.2.8,0,0,0-.1-.1-.2,0-.2.2-.5.3-.7.8-1,2.6-1.3,3.7-1.4h0Z" fill="#532d12"/>
  <path d="M48.1,19.6h1.4c.8.2,1.7.8,2.1,1.6.2.3.4.9.2,1.2,0,.1-.2.2-.3.2-.4,0-.9-.8-1.2-1h0c-1.1-.7-2.2-.6-3.4-.2-.3,0-.6.2-.9.2s-.2-.2-.2-.4,0-.4.2-.6c.5-.6,1.4-.9,2.1-1Z" fill="#532d12"/>
  <path d="M45.7,26.8c.5.3.6,1.1,1.3,1.3.2,0,.5.1.7.1,1.3,0,1.4-1,2.3-1.3.2,0,0,0,.2.1,0,.5,0,.9-.2,1.4,0,0,0,.2-.2.2-.4.6-1.1.9-1.7,1-.7.1-1.5,0-2.1-.5-.4-.3-.7-.7-.7-1.2s0-.8.4-1.2h0Z" fill="#532d12"/>
  <path d="M43.1,29.7c.3,0,.6.1.9.3h.3v.2h0v.2h0v.2h0c0,.6,0,1.1-.2,1.5-.4.7-1.1.9-1.8,1.1-.3,0-.7,0-.9-.2v-.2c.3-.4.9-.5,1.3-.8.4-.3.5-.7.6-1.1-.3-1-.9-1-1.2-1.7,0-.2,0-.3,0-.4l.9.9Z" fill="#532d12"/>
  <path d="M20,25.5c.4,0,.9,0,1.2.3.8.5,1.4,1.6,1.6,2.4,0,.3,0,.7-.1.9h-.2c-.2,0-.3-.2-.4-.4h0c-.2-.6-.4-1.2-.7-1.7-1-1.5-1.4-.3-2.3-.6-.1,0-.2-.1-.3-.2v-.2c.2-.4.7-.5,1.1-.6h0Z" fill="#532d12"/>
  <path d="M56,58c.8,0,1.6.3,2.3.6.9.4,1.7,1,2.5,1.5l2.9,1.9c3.3,2.1,6.9,4.4,10.1,6.7.5.3.9.7,1,1.3,0,.9,0,3.5-.6,4.2-.3.4-1,.6-1.5.7-1.7.3-3.5.4-5.1.6l-11.4,1.2-18.7,2c-3.2.4-6.4.7-9.6,1-1,0-2.2.2-3.2-.2-.4,0-.8-.3-1.1-.6-.9-.6-1.7-1.4-2.6-2l-4.3-3.6c-1.5-1.3-3.1-2.6-4.6-3.8-.9-.7-1.9-1.5-2.8-2.3-.2-.2-.4-.4-.5-.7-.4-.9-.2-2.6-.2-3.5,0,0,.1-.2.2-.2,1.1-1.3,4.9-1.4,6.5-1.5,1.6,2.1,4.4,3.2,6.9,3.9.8.2,1.6.3,2.3.8,1.5,1,9,6.9,9.9,7.1.8,0,2.4-.2,3.2-.3l4.7-.6,9.2-1.1c1.2-.2,2.5-.3,3.7-.5.3,0,.8,0,1-.3.2,0,.2-.3.2-.5s-.2-.3-.3-.5c-.4-.4-.8-.7-1.2-1-1.2-.9-2.9-2-3.9-3h0c.2-.4.6-.7.8-1,.8-.9,1.2-1.7,1.5-2.9,1.4-1.3,2.2-1.6,2.9-3.5h-.2Z" fill="#6eb0b7"/>
  <path d="M9.7,63.1c.2,0,.3,0,.5.2,1,.7,2,1.5,2.9,2.3l7,5.5c1.4,1.1,3.6,3.1,5.3,3.5,1.9.5,6-.2,8.1-.4,3.4-.3,6.8-.7,10.2-1l22.5-2.5,4.3-.5c.9,0,1.8-.3,2.7-.3s.5,0,.7,0c0,0,0,0,0,.3s-.2.3-.3.4c-.4,0-.9.2-1.3.2l-28.9,3.2c-3.3.4-6.6.7-9.8,1-2.1.2-4.2.5-6.3.5s-1.8,0-2.6-.3c-.6-.2-1.2-.5-1.7-.8-1.2-.8-2.3-1.8-3.5-2.7l-6.6-5.2c-.6-.5-3.5-2.6-3.6-3.2,0-.2.1-.3.3-.4h0Z" fill="#532d12"/>
  <path d="M25.2,76.3c.1,0,.2,0,.3,0,.2.2.3.6.3.9,0,.5,0,1.1-.3,1.5-.2,0-.3,0-.4,0-.2-.2-.2-.6-.2-.8,0-.5,0-1.1.3-1.5h0Z" fill="#532d12"/>
  <path d="M11,70c1.1.8,2.2,1.8,3.3,2.7l4.6,3.8c1.1.9,2.2,1.9,3.3,2.8,1.2.9,2.2,1.5,3.7,1.5,1.8,0,3.6-.2,5.4-.4l9.1-1,20-2.1c3.9-.4,7.8-.8,11.7-1.2,0,1.2,0,4.1-.5,5.1,0,0-.2.2-.3.3-.5.4-1.4.5-2.1.6-2,.3-4,.4-6,.6l-17.4,1.7c-4.3.5-8.5.9-12.8,1.3-2,.2-5,.7-6.9.5-1,0-1.8-.5-2.7-1-1.1-.7-2-1.5-3-2.3l-4.3-3.5-3-2.4c-.7-.6-1.6-1.2-2.1-1.9-.6-.7-.2-4.1,0-5h0Z" fill="#d5bc2a"/>
  <path d="M25.6,81.7c.2,0,.3,0,.4.2.3.4.2,2.5.1,3,0,.3,0,.4-.3.6-.2,0-.3,0-.4,0-.2-.5-.1-2.4,0-3,0-.3.1-.4.3-.6h-.1Z" fill="#532d12"/>
  <path d="M28.3,87.2c5.4-.5,10.9-1.1,16.3-1.6l6.2-.6c1.3,0,2.7-.2,4-.4.2.8.3,1.6.5,2.4.2.5.2,1.2.3,1.7.2.8.3,1.7.4,2.5-.4.5-.9.8-1.5,1-1.5.5-3.2.4-4.8.7-1.5.3-2.8.9-4.3,1.2-.5,0-.9,0-1.4.2-1.8,0-3.6-.6-5.4-.5-4,0-6.3,2.3-10.5.4v-2.6c0-.7,0-1.5.1-2.3v-2.1Z" fill="#fef4dd"/>
  <path d="M28.2,91.4c1,.2,1.9.4,2.9.5,2.3,0,5.1-.9,7.4-1,1.6,0,3.1.4,4.7.4s4.2-.7,6.3-1.1,4.2-.7,6.2-1.5c.2.8.3,1.7.4,2.5-.4.5-.9.8-1.5,1-1.5.5-3.2.4-4.8.7-1.5.3-2.8.9-4.3,1.2-.5,0-.9,0-1.4.2-1.8,0-3.6-.6-5.4-.5-4,0-6.3,2.3-10.5.4v-2.8Z" fill="#fef4dd"/>
  <path d="M55.3,86.8c.2.5.2,1.2.3,1.7-2,.8-4.1,1.1-6.2,1.5-2,.4-4.2,1.1-6.3,1.1s-3.1-.5-4.7-.4c-2.4.2-5.2,1.1-7.4,1-1,0-1.9-.3-2.9-.5v-2.3.6c.3,0,.7.2.9.2,3.2.6,5.8-.7,9-.9,1.5,0,2.8.2,4.3.4h1.4c1.7-.2,3.4-.7,5.1-1,1.5-.3,3.1-.5,4.6-.9.6,0,1.3-.3,1.8-.7v.2Z" fill="#d60000"/>
  <path d="M16.3,51.1c1.1-2.5,2.7-6.4,4.7-8.2.1,0,.3-.2.4-.4.1,0,.3-.2.5-.3.2,0,.3-.2.5-.3.2,0,.3-.2.5-.2.5-.2,1-.3,1.4-.4.7.7,1.4,1.5,2.1,2.2,2.2,2.3,4.2,3.4,7.4,3.8-.9,1-1.3,1.8-1.4,3.1-.4-.3-.7-.5-1.2-.4-.5,0-1.3.6-1.6,1.1-.1.2-.2.4,0,.6.3,1.5,2.9,4.9,3.8,6.4-.7,0-1.3.3-1.9.5-.5.2-1,.4-1.4.6-1.3.4-2.7-.6-3.8-1.2-.5-.3-1.1-.6-1.6-.9h0c.9-.6,1.6,1,2.3-1.6.6-2.2.9-4.5.8-6.8,0-.4,0-.9-.2-1.3,0-.2-.2-.2-.3-.3q-.2,0-.3.2c-.2.6-.1,2.2-.2,2.9,0,1-.1,2-.3,2.9,0,.4-.1.9-.2,1.3-.1.5-.3,1-.5,1.5-3.7-1.9-6.3-2.6-10.5-1.9.2-.6.4-1.1.6-1.7.2-.4.3-.9.6-1.3h-.2Z" fill="#fef4dd"/>
  <path d="M16.3,51.1c3.6-.3,6.9.3,10,2,0,.4-.1.9-.2,1.3-.1.5-.3,1-.5,1.5-3.7-1.9-6.3-2.6-10.5-1.9.2-.6.4-1.1.6-1.7.2-.4.3-.9.6-1.3h0Z" fill="#fef4dd"/>
  <path d="M16.3,51.1c3.6-.3,6.9.3,10,2,0,.4-.1.9-.2,1.3-3.4-2-6.5-2.2-10.4-2.1.2-.4.3-.9.6-1.3h0Z" fill="#df432f"/>
  <path d="M16.8,54.8h.7c1.9,0,3.8.3,5.5,1.1.3,0,.6.2.8.5q0,0-.1.2h-.4c-.3,0-.5-.2-.8-.3-.6-.2-1.7-.4-2.3-.3-.3,0-.5,0-.7.3v.2c0,0,.5.2.7.3,1.1.3,2.2.5,3.3.9,1.5.6,4.2,2.5,5.8,2.6.8,0,1.5-.4,2.2-.7,1-.4,2.1-.6,3.1-.5,1.7.2,3.6,2.4,4.6,3.7.2.3.5.7.4,1.1,0,.3-.7.7-1,.8-.8-1.1-1.7-2.4-2.9-3.2-.2,0-.4-.2-.7,0,0,0-.2.2-.2.3v.2c0,.2,1.6,1.5,1.8,1.8.3.3.7.7.9,1.1h0c0,.2.2.4,0,.6,0,.2-.3.4-.5.5h-.3c-.2-.2-.4-.5-.6-.7-.5-.6-1.2-1.3-1.9-1.8-.2,0-.4-.2-.7-.2-.2,0-.2.2-.2.4.4.5,1.1,1,1.6,1.5.3.3.7.8.7,1.1s0,.2-.2.3c-.9.5-2.1-1.5-3-1.6-.2,0-.3,0-.5,0,0,.8,1.5,1.2,1.8,1.9v.2c-.2,0-.4.2-.6.2-.6,0-1.2-.7-1.8-.9-.3,0-.6,0-.9-.2-1.3,0-1.8-.4-2.7-1.4-3.3,0-7.4-.9-10.1-2.8-.9-.7-1.6-1.6-1.8-2.8-.2-1.4.2-3.2,1.1-4.4h-.2Z" fill="#be723a"/>
  <path d="M45.7,41.3c2.4,1.3,4.2,3.6,6,5.7.2.2.6.7.7,1,.4.5.7,1,1.1,1.5-.6.3-1.2.5-1.8.8-1.8.8-3.1,1.7-4.6,3,0-.6,0-1.1,0-1.7,0-.4,0-1-.2-1.4,0-1-.7-4.2-1.2-4.8,0,0-.2-.2-.4-.2s-.2,0-.3.2v.3c0,.5.2,1,.3,1.4.2,1,.5,2.1.6,3.1.2,1.3.6,6.4,0,7.3,0,.2-.3.2-.5.2-.8.2-1.7.2-2.5.3l-4.8.5c-.7-1.1-1.4-2.2-2.1-3.4.4-.4.8-.8,1-1.4.6-1.4.5-3.2.8-4.7,0-.2,0-.5.3-.6,0,0,.2,0,.3,0,0,.3,0,.7,0,1,0,1.8-.2,3.8,1,5.3,0,0,0,0,0,.2h0q0,0,0,.2h0q0,0,0,.2s0,0,.2,0c0,0,0,0,.2,0,0,0,0,0,.2,0h1.6c.2,0,.6,0,.8,0,0,0,0,0,0-.2.2-.5,0-1.3,0-1.8,0-1.4.7-2.5.5-4,0-1.3-.5-2.1-1.5-3,.3-.2.5-.4.7-.6,1.5-1.3,2-2.7,2.1-4.6l1.4-.6-.3.7Z" fill="#fef4dd"/>
  <path d="M51.6,46.9c.2.2.6.7.7,1,.4.5.7,1,1.1,1.5-.6.3-1.2.5-1.8.8-1.8.8-3.1,1.7-4.6,3,0-.6,0-1.1,0-1.7,0-.4,0-1-.2-1.4,1.4-1.3,3.2-2.3,4.9-3.3h0Z" fill="#fef4dd"/>
  <path d="M51.6,46.9c.2.2.6.7.7,1-.4.2-.9.5-1.3.7-1.5.8-2.8,1.8-4.1,2.8h0c0-.3,0-.8-.2-1.3,1.4-1.3,3.2-2.3,4.9-3.3h0Z" fill="#df432f"/>
  <path d="M39.5,61.4h.3c.7,0,1.4,0,2,.6-.3.8-.7,1.7-.4,2.5.2.6.6,1,1.1,1.3.4.2,1.3.5,1.8.6.3,0,.5,0,.8,0,.3.3.6.6,1,.6.6,0,1.1-.3,1.6-.6,0,.2.3.3.5.4.7.2,1.3-.4,1.9-.7,1.6,1.1,3.2,2.4,4.9,3.5-4.3.6-8.6,1.1-12.9,1.6-1.6.2-3.1.3-4.7.5-.9,0-1.9.2-2.8.3-.9-.5-1.9-1.3-2.7-1.9l-5.8-4.3h1.2c.8.6,1.4,1.3,2.5,1.3s.8,0,1.2.2c.7.2,1.2.8,2,.9h.6c.4,0,.7-.3,1-.4.4,0,.8,0,1.2-.3.2,0,.4-.3.6-.4,1.1,0,1.4-.2,2.1-1,.5.3,1.9,1.5,2.4,1.5s.2,0,.2-.2c.5-1.1-.2-3.3-.7-4.3-.2-.4-.8-1.1-.9-1.5h0Z" fill="#fef4dd"/>
  <path d="M40,69h0Z" fill="#532d12"/>
  <path d="M45.9,68.3c.2,0,.4,0,.5.2,0,0,0,.2,0,.3,0,.2-.2.3-.4.4h0c-.2,0-.4,0-.5-.2v-.3c0-.2.2-.3.4-.4h0Z" fill="#532d12"/>
  <path d="M35.9,69.7h0Z" fill="#532d12"/>
  <path d="M35.1,67.8c.2,0,.3,0,.5,0,.2,0,.2.2.3.3,0,.2,0,.3-.2.4h-.6c0,0-.2,0-.2-.3s0-.4.2-.5Z" fill="#532d12"/>
  <path d="M48.5,67.9h.6s0,.2,0,.3c0,.2-.2.3-.3.4-.2,0-.4,0-.5,0,0,0-.2-.2,0-.3,0-.2.2-.3.3-.4h0Z" fill="#532d12"/>
  <path d="M37.9,67.4h.6c0,0,.2.2.2.3,0,.2,0,.3,0,.4h-.5c0,0-.2-.2-.2-.3,0-.2,0-.3,0-.4h0Z" fill="#532d12"/>
  <path d="M43.1,68.9c.2,0,.4,0,.5,0,0,0,0,.2,0,.3,0,.2-.2.3-.3.4-.2,0-.4,0-.5-.2,0,0,0-.2,0-.3,0-.2.2-.2.3-.3Z" fill="#532d12"/>
  <path d="M42.7,66.9c.2,0,.4,0,.5,0v.4c0,.2-.2.2-.3.3,0,0-.3,0-.4,0,0,0,0,0-.2-.3,0-.2.2-.3.3-.4h.1Z" fill="#532d12"/>
  <path d="M50.6,68.3h.4c.2,0,.3,0,.5.3v.4h-.5c-.2,0-.2,0-.3-.3,0-.2,0-.3,0-.4h-.2Z" fill="#532d12"/>
  <path d="M45.3,66.8h0q0,0,.2.2c0,.2-.2.3-.3.5,0,0,0,0-.2,0,0,0,0,0-.2-.3,0-.2.2-.2.4-.3Z" fill="#532d12"/>
  <path d="M37.5,94.7h.2c.2.9-.9,3.7-.6,5.1.4,1.5,3.3,3.9,4.4,5,.6.6,1.3,1.2,1.7,1.9,0,.2.2.5,0,.8,0,0,0,.2-.3.2-1,.5-1.5-1.2-2.5-1.6-.2,0-.4,0-.6,0,0,.6,1.2,1,1.2,1.9s0,.3-.2.5c0,0-.3,0-.4,0-.4,0-.6-.4-.8-.7-.2-.3-1-1-1.4-1.1q-.2,0-.3,0c0,.7,1.2.9,1.2,1.8,0,.2-.2.4-.5.4-.5,0-1.5-1.5-2.2-1.9-.2,0-.5-.2-.7,0h0c.2.7.9.9,1.3,1.5,0,.2,0,.3,0,.4s-.3.2-.5.2c-.7,0-2.3-1.4-2.8-1.9s-.9-1-1.3-1.5c-.6-.7-1.5-1.5-1.8-2.4-.2-.5-.2-1-.1-1.5.2-1,.7-1.9.9-2.9.2-1.1.2-2.3.2-3.4,1.9-.2,3.8-.7,5.6-1.1h.2Z" fill="#be723a"/>
  <path d="M52.2,51.1c.9.5,1.8,2.3,2.2,3.2.8,2,1,3.7-.7,5.3-.4.4-1,.8-1.3,1.2s-.4,1.1-.6,1.6c-.4,1-1.9,2.9-3,3.2h-.4c-.2-.8,1.2-1.8,1.4-2.5v-.2c-1-.5-2.3,2.8-3.4,3h-.4c0,0,0-.2,0-.4,0-1,1-2.1,1.6-2.8.2-.2.5-.6.5-.9h-.2c-.9,0-2.1,1.7-2.4,2.5-.2.3-.2.8-.5,1,0,0-.4.3-.6.3s-.3,0-.3-.2c-.2-.2,0-.6,0-.8,0-.5.4-1,.6-1.5.3-.5,1.4-1.9,1.4-2.3,0,0,0,0,0-.2h-.4c-.7.3-1.8,2.2-2.1,2.9-.2.5-.2.9-.4,1.4q0,0-.3,0s0,0-.2,0c-.2-.3-.3-.9-.2-1.2,0-2,2.6-4.2,3.9-5.5.8-.8,1.6-1.7,2.5-2.4.5-.4,1.1-.8,1.6-1.3.2,0,.4-.4.4-.6v-.2h-.6c-1,.2-2.6,1.7-3.2,2.5.2-.5.2-1.2.4-1.7.6-1.4,3.7-3,5-3.6v.2Z" fill="#be723a"/>
  <path d="M50.8,93.5h.3c0,.2,0,.6,0,.8-.2,1.2-.7,2.6-.3,3.8.4,1.3,3.1,3.3,4.2,4.1.6.4,1.3.9,1.7,1.4,0,0,0,.3,0,.4v.4h0c-.2-.3-.4-.6-.6-.8-.2-.2-.6-.5-1-.5,0,0,0,0,0,.3,0,.3.6.6.8.9,0,.2.3.4.2.6,0,.3-.3.4-.5.6-.2-.7-.5-1.3-1.2-1.6-.3,0-.5,0-.8,0-.2.3,1,.9,1.1,1.6,0,.2,0,.3-.2.5,0,.2-.3.2-.5.2-.2-.2-.3-.6-.4-.9-.2-.3-.7-.7-1.1-.8h-.4c-.2.4,1,.8,1,1.5s0,.3-.2.5c-.2,0-.4.2-.6,0-1.4,0-6.6-3.4-7.6-4.5-1.2-1.3,0-2.9.5-4.3.2-.9.3-1.8.3-2.8,1.8-.5,3.5-1.3,5.4-1.5h0Z" fill="#be723a"/>
  <path d="M25,87c.8.2,1.6.3,2.4.3-.2,2.6-.2,5.2-.3,7.7l-.3,10.1-.2,4.5c0,.8,0,1.7-.1,2.5,0,.2,0,.4-.2.6h0c-.3.3-.6.3-.9.3s-.6,0-.8-.3c-.2-.2-.2-.5-.2-.8v-8.4c.1,0,.6-16.5.6-16.5Z" fill="#6eb0b7"/>
  <path d="M11.7,77c.8.5,1.5,1.2,2.2,1.8,0,1.5-.3,3-.4,4.5l-.6,6.8-.7,7c-.1,1.3-.2,2.7-.4,4,0,.3-.1.5-.3.8-.3.2-.6.3-.9.3s-.5,0-.7-.3c-.1,0-.2-.3-.2-.5,0-1,.1-2,.2-3l.4-5.2c.4-5.4.9-10.8,1.4-16.2h0Z" fill="#6eb0b7"/>
  <path d="M71,82.8h0c.2.9,0,1.9,0,2.7v4.5c0,0,.5,12,.5,12,0,1.2,0,2.4,0,3.7s0,1,0,1.3-.4.5-.7.5-.7,0-1.1-.3c-.2-.2-.2-.4-.3-.6v-2.2l-.2-4.7-.6-16.7,2.2-.3h0Z" fill="#6eb0b7"/>
  <path d="M16.7,42.8h.2c0,.3-.2.6-.2.8-.2.9-.2,1.7,0,2.6h0c-1.2.5-2.3,1.3-2.8,2.5-.5,1.1-.3,2.2.2,3.3-1.5.6-2.7,1.7-2.8,3.4v.8h-1.1v-6.3c0-1.5,0-3,.2-4.5.1-.6.3-1.2.7-1.7.7-.8,4.8-.9,6-1h-.4Z" fill="#6eb0b7"/>
  <path d="M22.9,8.9h3.2q0,.1.1.2h.1q0,.1.1.2c.6.6,1,1.5.9,2.3,0,.7-.4,1.4-.9,1.9-1.7,1.5-4.8,1-6.8.9-.1-.1-.3-.3-.4-.4.8-.7,1.8-.9,2.6-1.6v-.3c-.7-.5-2.4,1.1-3,1h0c0-.7.7-1.9,1-2.3.8-1.2,1.9-2.2,3.4-2.5l-.3.6Z" fill="#d60000"/>
  <path d="M15.6,5.1h.6c.9,0,1.9.4,2.5,1s.8,1.4.7,2.2c0,.4,0,.7-.2,1.1-.2.6-1.4,3.6-1.7,3.9h-.3c-.4-.3-.7-2.1-.8-2.7-.1-.1-.2-.2-.4-.2-.6.5.5,2.2.1,2.8h-.1c-.4-.3-.7-.7-1.1-1.1-.8-.9-1.6-1.7-1.8-2.9-.2-.9-.1-2,.4-2.8s1.3-1.2,2.2-1.4h-.1Z" fill="#d60000"/>
  <path d="M19.1,15.8c1.1,0,2.6.2,3.6.6.9.3,1.6,1,2,1.9.4.8.4,1.9,0,2.7-.3.8-1,1.4-1.8,1.7-.9.3-1.7.2-2.5-.2-.3-.1-.6-.3-.8-.5-1.3-1.1-1.9-3-2.1-4.6.2-.1.5-.3.7-.4.5.3,1.6,1.3,2.1,1.5h.4c-.2-.8-1.2-1.5-1.7-2,0-.2-.2-.4,0-.6h0Z" fill="#d60000"/>
  <path d="M10.6,10.9c.5,0,1,0,1.4.2.7.2,2.9,2.1,3.3,2.8v.3c-.3.8-2.2-.4-2.9-.2q-.1.1-.1.3c.3.7,2,.7,2.6,1.1v.3c-.2.2-.3.2-.6.3-1.1.4-2.1,1.1-3.2,1.3-.8.1-1.6,0-2.2-.4-.6-.4-.9-1.1-1.1-1.8v-3s0-.1,0-.2c.6-.8,1.2-1.1,2.2-1.3l.5.3Z" fill="#d60000"/>
  <path d="M15,16.5h.2c.3.6-1.1,1.5-1.2,2.2q0,.1.2.2c.6-.1,1.1-1.1,1.7-1.4.1,0,.3-.1.4,0,.2,0,.3.2.3.4.5,1,.5,2.9.1,4-.3.9-.9,1.3-1.7,1.7h-2.4c-.8-.3-1.5-.8-1.9-1.6-.3-.7-.3-1.4,0-2.1.7-1.6,2.8-2.6,4.3-3.2v-.2Z" fill="#d60000"/>
  <path d="M18.5,40.8h0c0,0-.3.3-.4.3-.3.2-.5.4-.8.5-.5.2-1.1,0-1.6.2-1.7,0-4.7,0-5.9,1.5-.4.5-.6,1.1-.7,1.7-.4,1.9-.3,3.9-.2,5.8v5.2c-.4-.2-.7-.4-1-.6-.5-.5-.6-1-.7-1.7-.2-1.6,0-3.3,0-4.8s0-3.4,0-4.6c0-.5.3-1,.6-1.4.4-.4.9-.7,1.5-.8,1.2-.4,2.6-.5,3.9-.6,1.8-.2,3.6-.4,5.4-.5v-.2Z" fill="#6eb0b7"/>
  <path d="M27,38.4c.2.3.4.7.6,1,.3.4.6.8.9,1.2,1.8,2.2,4.3,3.6,7,4.3,0,.5,0,.9.3,1.3-.5,0-1.1,0-1.6,0s-.9,0-1.3,0c-2.8-.5-5.8-3.2-7.4-5.5.7-.7,1.2-1.4,1.6-2.3h-.1Z" fill="#d60000"/>
  <path d="M39.8,47.5h.9s.2,0,.2,0c.5.3.8.8,1,1.3.4,1.6-.2,3.1-.3,4.6,0,.4.2,1.3,0,1.6h-.2c-.9-.4-1.6-1-2-1.9-.2-.5-.3-.9-.3-1.4s0-4.2.2-4.3c0-.2.4-.2.6-.3v.3Z" fill="#d60000"/>
  <path d="M22.4,85.7c.5.3,1.1.6,1.6.9v4.2c0,.9,0,1.9-.1,2.8-1-.4-2.2-.9-2.9-1.9.2-.7.4-1.4.6-2.1.1-.5.3-1,.4-1.5.2-.8.4-1.5.5-2.3h-.1Z" fill="#fef4dd"/>
  <path d="M22.4,85.7c.5.3,1.1.6,1.6.9v2.4h-.1c-.7-.3-1.3-.6-2-1,.2-.8.4-1.5.5-2.3Z" fill="#fef4dd"/>
  <path d="M21.9,88.1c.6.4,1.3.7,2,1h0v-.4,2.2c-.9-.3-1.7-.7-2.4-1.2.1-.5.3-1,.4-1.5h0Z" fill="#d60000"/>
  <path d="M35.7,47.5h.5c.2,0,.4.4.5.6-.5,2,0,4.9-1.5,6.4l-.3-.5c-.5-.9-1.1-1.9-1.4-3-.2-.8,0-1.7.4-2.4s1-.9,1.8-1.1Z" fill="#d60000"/>
  <path d="M43.2,42.2h.2c0,1-.7,2.4-1.3,3-.6.6-1.3,1.2-2.1,1.3h0v-1c0-.6-.3-1.1-.8-1.5.4-.3.8-.7,1.3-1.1.8-.6,2-.7,2.9-.9l-.2.2Z" fill="#d60000"/>
  <path d="M29.3,39.9c.6.2,1.2.7,1.8.9.4.2.8.4,1.2.5.4.2.8.3,1.3.5.4,0,.9.3,1.3.4.4,0,.9.2,1.3.3.5,0,.9.2,1.4.2h1.1c0,0,.2,0,.3,0,0,.2-.3.3-.5.4-.7.4-1.6.7-2.4.7-1.6,0-3.9-1.3-5.1-2.3-.6-.5-1.2-1-1.7-1.7Z" fill="#be723a"/>
  <path d="M44.1,59h0s-1.4,1.7-1.5,1.8c-.2.2-.5,0-.7,0-1-.4-1.8-.3-2.8-.3-.2-.3-.4-.6-.6-.9,1.9-.2,3.8-.4,5.6-.6Z" fill="#6eb0b7"/>
  <path d="M37.6,44.5h.5c.3,0,.6.4.7.7.2.4.2.9,0,1.3-.2.5-.5.7-1,.8-.2,0-.4,0-.6-.2-.4-.3-.7-.8-.8-1.2,0-.4,0-.7,0-1,.2-.3.6-.4.9-.5h.2Z" fill="#d60000"/>
  <path d="M34.7,58.2c-.4-.4-1.2-1.3-1.4-1.8v-.4c.2-.4.8-.5,1.2-.6.6.6,1.7,2.4,2.1,3.3v.2c-.7-.2-1.3-.4-1.9-.6h0Z" fill="#5aba47"/>
  <path d="M16.8,14.2c.2,0,.4,0,.6.1.3.1.6.4.7.7s.1.7,0,1c-.2.4-.5.5-.9.7-.3,0-.5,0-.7-.2-.3-.2-.6-.5-.7-.9,0-.3,0-.6.1-.9.2-.4.6-.5,1-.5h-.1Z" fill="#d60000"/>
  <path d="M10.2,57.4c.3,0,.7,0,1,0,0,0,.1,0,.2,0,.2.6.7,1.1,1.2,1.5v.7c-.1,0-.2.2-.3.2-.5,0-1,0-1.4-.4-.6-.5-.6-1.4-.7-2.1Z" fill="#d60000"/>
  <path d="M31.4,50.9c.6.2,1.2,1,1.5,1.5-.4.2-.7.4-1.1.6-.1,0-.2.2-.3.2h0c-.3-.3-.9-1.3-.9-1.8.2-.3.6-.4.9-.6h-.1Z" fill="#be723a"/>
  <path d="M33.1,53.2h0c.5.2.7,1,.9,1.4-.5.2-.9.4-1.2.8h0c-.3-.2-.7-.8-.8-1.2,0,0-.1-.2,0-.3.2-.3.9-.6,1.2-.7h-.1Z" fill="#5aba47"/>
  <path d="M14.7,58.9c.2.2.2.9.3,1.3-.4,0-.9,0-1.3.2h-.2c.2-.5.8-1,1.3-1.3v-.2Z" fill="#6eb0b7"/>
  <path d="M40,64.7c.2.2.3.7.3,1s0,.2,0,.3q-.2,0-.4-.2c-.2,0-.4-.3-.6-.5.2-.2.5-.4.7-.6h0Z" fill="#bea796"/>
  <path d="M36.5,58.8v-.2c.2,0,.7.6.8.8h-.4c0,0-.4-.2-.4-.4,0,0,0-.2,0-.2Z" fill="#5aba47"/>
</svg>