<?xml version="1.0" encoding="UTF-8"?>
<svg id="Layer_1" xmlns="http://www.w3.org/2000/svg" width="80" height="115" version="1.1" viewBox="0 0 80 115">
  <!-- Generator: Adobe Illustrator 29.4.0, SVG Export Plug-In . SVG Version: 2.1.0 Build 152)  -->
  <defs>
    <style>
      .st0 {
        fill: #9e4e1d;
      }

      .st1 {
        fill: #fef4df;
      }

      .st2 {
        fill: #d60000;
      }

      .st3 {
        fill: #fda225;
      }

      .st4 {
        fill: #c27337;
      }

      .st5 {
        fill: #9e9991;
      }

      .st6 {
        fill: #5aba47;
      }

      .st7 {
        fill: #582f0f;
      }

      .st8 {
        fill: #f7ec13;
      }

      .st9 {
        fill: #6b6257;
      }

      .st10 {
        fill: #fef4de;
      }

      .st11 {
        fill: #599a26;
      }

      .st12 {
        fill: #7cc6ce;
      }
    </style>
  </defs>
  <path class="st1" d="M39.1,104.8c.4.2,1.4,0,2.2.5.6.4,1.3,1.1,1.5,1.8v.8c-.4.6-1.4.8-2,1-.5,0-1.8.4-2.3,0-.5.3-1.8,0-2.4-.2-.4,0-1.1-.2-1.3-.6v-.4c.4-1,1.8-2.2,2.8-2.5.5-.2,1.2-.2,1.7-.4h-.2Z"/>
  <path class="st1" d="M28.8,104.9c.3.3.5.6.8.9.5.5,1,1,1.5,1.4,2.5,1.9,5.8,3,8.9,2.6.9,0,2.2-.4,2.7-1.1,0,.3-.2.7-.4.9,0,.2-.3.4-.4.6-.9.8-2.4.9-3.5.9-3.3-.2-6.5-1.8-8.7-4.2-.5-.5-.9-1.1-.9-1.9h0v-.1Z"/>
  <path class="st7" d="M17.902,2.103c.981-2.118,4.275-2.14,5.302-.051,1.974-.851,3.614.463,3.539,2.538,2.451-.133,3.299,2.771,2.121,4.58,7.457-1.869,16.356.43,21.01,6.796,3.104,4.371,3.16,9.669.159,14.085-.268.922-.625,1.968-.717,2.923-.115,1.193,0,2.388-.202,3.578-.499,2.941-2.328,5.184-4.708,6.868,1.245,1.54,8.033,9.007,6.191,10.627,1.419,1.901,2.557,4.027,2.346,6.478,1.415.053,2.632.53,3.852,1.215,4.641,2.806,9.72,5.416,14.108,8.562,1.097,1.108.518,4.611.032,5.857-.42.701-1.28.862-2.01,1.052-.106,1.76.095,4.548-1.606,5.559.331,6.931.896,18.118,1.231,25.078-.021,1.014.423,2.214-.149,3.123-.867.849-3.083.847-3.373-.562-.514-8.817-.955-17.91-1.288-26.728-.552.225-10.737,1.07-12.076.972l-1.484,12.662c.018.06.165.155.21.2.643.601.491,1.847.218,2.597.671.309,1.172.782,1.606,1.37.264.255.778.326,1.101.53.643.519,1.124,1.197,1.928,1.502,1.495.991,2.425,3.063,1.718,4.791-1.934,4.675-10.908,1.823-13.822-.569,1.637,6.594-7.157,6.453-10.949,4.031-2.063-.911-4.662-2.903-5.225-5.192-.242-2.125-.071-5.984,1.616-7.566.485-4.196.979-8.566,1.629-12.736-.451.268-3.743.456-4.161.315-.171,6.673-.557,15.77-.737,22.472-.16,1.444.294,3.779-.563,4.945-1.03.926-3.446.553-3.406-1.097.319-8.854.517-17.726.901-26.581-.806-.254-6.869-5.276-7.657-6.352-.204,4.645-1.098,11.808-1.403,16.465-.23,1.215.225,4.085-1.06,4.596-.949.437-2.361.171-2.841-.824.051-4.323,1.551-18.631,1.823-23.18-.974-1.661-.339-4.299-.281-6.201-.83-.647-1.866-1.293-2.139-2.373-.235-.926-.389-3.436.118-4.273.379-.626,1.241-.782,1.898-.935v-3.707c-2.619-.648-2.014-4.005-2.12-6.105-.01-1.297-.011-2.594-.003-3.891.064-1.364-.266-3.076.723-4.171,1.469-1.472,8.302-1.715,10.585-1.709,1.672-1.325,4.365-2.882,6.536-2.983-1.144-1.238-1.904-2.682-2.458-4.26-2.515,1.532-5.255-.717-6.151-3.09-.738-1.579-.657-3.32-.617-5.014-.528-3.232-.579-6.642.685-9.719l-.033-.062c-1.098.33-2.366.067-2.88-1.049-2.017.964-3.914-.754-3.222-2.859-2.466-.569-3.136-3.493-1.09-5.013-1.016-1.778-.173-4.153,1.92-4.555.06-2.559,3.114-4.417,5.322-2.957ZM38.987,85.631c-.641,4.466-1.457,8.926-2.184,13.372.141.16.282.097.431.199.642.73.266,2.09.117,2.959.422.278.779.612,1.121.977.201.786,1.135.94,1.601,1.542.306-2.232.372-5.104,2.197-6.7.287-3.908.555-8.711,1.036-12.595-.162-.052-.317-.054-.478-.092-.271.131-3.516.496-3.84.338ZM14.324,59.588c-.167.58-.008,2.648-.026,3.397.03-.01,1.428-.08,1.395-.14-.958-.997-.813-2.035-.938-3.233-.144-.066-.279-.04-.431-.024ZM42.431,57.544c-.222,1.011-.303,2.046-.542,3.054.655-.645,1.351-1.261,2.144-1.732-.517-.432-1.046-.948-1.602-1.322Z"/>
  <path class="st0" d="M47.065,18.163c2.263,2.659,2.681,6.747,2.21,10.119-.238,1.447-.753,2.839-.978,4.285.466,15.385-19.795,15.799-23.649,2.357-.281-.19-.53.165-.746.317-1.915,1.472-4.075-.197-4.85-2.08-2.424-4.896,1.536-10.278,5.521-4.772.311.419.354,1.079.825,1.344,1.774-1.315,2.32-4.273,2.399-6.362,1.759.278,3.476-.458,4.888-1.446,1.461,2.763,5.475.337,6.92-1.333-.343,7.025,7.029,1.3,7.46-2.428Z"/>
  <path class="st7" d="M33.394,37.433c.405.048.56.483.772.776.484.699,1.054,1.235,1.813,1.633,1.607.881,3.67.895,5.213-.096.15-.035.208.003.327.077.414,1.416-2.918,1.977-3.91,1.693-1.215.069-5.895-2.829-4.215-4.082Z"/>
  <path class="st7" d="M31.855,31.329c.314.102.534.451.766.678.787.772,1.783.851,2.707.266.283-.179.746-.571,1.092-.531.372.312.027.933-.159,1.268-.47.663-1.263,1.097-2.082,1.068-.74-.02-1.465-.387-1.961-.928-.401-.444-.985-1.339-.362-1.821Z"/>
  <path class="st7" d="M34.568,25.441c.728-.02,1.732-.048,2.255.541.424.844-.58.598-1.055.493-2.258-.432-3.964,1.616-4.366,1.076.347-1.27,1.97-1.932,3.165-2.11Z"/>
  <path class="st7" d="M42.354,31.953c.675.043.636,1.075,1.882,1.022.821-.035,1.615-1.071,2.04-.995.097.017.098.063.15.139.082,1.046-1.011,1.825-1.943,1.997-1.104.244-2.875-.986-2.129-2.164Z"/>
  <path class="st7" d="M21.143,28.461c1.926-.109,3.615,4.376,2.16,4.056-.227-.27-.321-.554-.443-.878-.564-1.5-.64-1.441-1.973-2.157-.68-.299-.375-.947.256-1.021Z"/>
  <path class="st7" d="M45.06,25.668c1.132-.108,2.329.543,2.739,1.627.108.259.163.756-.227.765-.249-.006-.462-.312-.617-.481-.846-.803-1.462-.893-2.58-.772-.281.005-.773.153-.911-.176.061-.716,1.028-.881,1.597-.963Z"/>
  <path class="st7" d="M41.16,35.518c1.632-.124,1.632,1.808.483,2.504-.815.541-2.18.603-2.774-.272-.037-.084-.019-.083.009-.162.754-.399,2.141.316,2.625-.733.303-.529-.746-.837-.344-1.337Z"/>
  <path class="st12" d="M52.726,61.512c.86.037,1.667.274,2.452.615,3.85,1.859,7.618,4.385,11.314,6.55,1.212.864,6.675,3.268,2.389,3.799-4.711.482-16.198,1.282-21.079,1.728-5.761.172-18.123,1.992-23.678,1.335-2.036-.503-5.668-3.664-7.461-5.07-1.014-.795-6.635-4.985-7.002-5.538.178-1.082,5.892-.911,7.112-1.133,1.133.709,2.29,1.196,3.588,1.526.635.161,1.997.306,2.502.617,2.006,1.438,8.16,6.995,9.923,7.843,2.058.081,4.128-.375,6.177-.56,4.819-.635,10.299-1.081,15.073-1.949.899-.623-1.226-1.828-1.627-2.29-1.384-1.178-2.861-2.309-4.18-3.553,1.929-.928,3.367-2.095,4.496-3.919Z"/>
  <path class="st5" d="M11.806,71.678c3.557,2.637,6.751,5.803,10.429,8.272.616.368,1.26.644,1.967.784,3.089.381,6.218-.305,9.307-.478,10.738-1.047,23.778-1.686,34.355-3.013-.142,1.424.087,3.573-1.037,4.593-1.148.907-2.753.714-4.126.854,0,0-5.36.407-5.36.407-9.961.739-23.364,1.971-33.202,2.514-1.536-.052-2.69-1.161-3.799-2.098,0,0-2.784-2.324-2.784-2.324-1.232-1.155-4.317-3.443-5.43-4.679-.806-.921-.399-3.646-.319-4.831Z"/>
  <path class="st12" d="M9.588,66.212c3.351,2.726,7.032,5.462,10.447,8.134,1.664,1.377,3.572,2.608,5.818,2.501,6.168-.193,18.926-1.42,25.245-1.854,4.895-.566,14.636-.87,19.36-1.909-.088.893.002,1.92-.484,2.7-.319.334-1.094.407-1.543.467-4.926.585-17.136,1.402-22.261,1.873-4.754.312-15.699,1.399-20.307,1.588-2.725.287-4.766-1.748-6.7-3.367-1.581-1.342-5.988-4.822-7.526-6.122-1.746-1.28-2.214-1.708-2.049-4.012Z"/>
  <path class="st6" d="M25.556,41.957l.072.008c.018.027.046.048.053.08-.726,3.348.713,6.753,2.683,9.434.006,1.824,2.688,6.374,3.594,8.198-1.333-.042-2.479.8-3.784.886-1.128-.042-2.12-.746-3.155-1.139-.597-.277-1.294-.36-1.832-.751-.063-.677.77-.741,1.033-1.238.394-.746.935-3.471,1.168-4.434.06-.558.772-1.995.058-2.271-.769.03-.808,1.733-1.032,2.319-.284,1.185-.583,2.365-.898,3.542-2.239-1.474-5.486-2.176-7.934-.84,1.14-5.89,3.548-12.264,9.974-13.793Z"/>
  <path class="st10" d="M40.168,62.437c.082-.019.116-.019.195.01.01.204-.106.44-.181.626-.333.824-.424.388-.928.825-.196.317.192.605.443.735-.179,1.088.103,2.532,1.53,2.072.419.965,1.391,1.08,2.285.735.482.371.937,1.322,1.612.731.78-.695,1.416-1.583,2.23-2.254,1.925,1.475,3.697,3.156,5.578,4.689-6.277.746-13.594,1.85-19.837,2.366-2.918-2.171-5.595-4.73-8.521-6.902.383.051.771.075,1.156.11,1.307,1.278,3.257,2.106,4.952,1.058,1.074.604,2.298.785,3.424.227.553.292,1.125.103,1.567-.287.705.353,1.231.999,2.04,1.085l-.008.024c-.466-.007-.428.737-.03.822.8.228,1.365-.398.435-.835.427-.35.366-1.03.395-1.548.118-.137.602.054.865-.13.152-.194.128-.497-.1-.623-.338-.209-.522,0-.825.081-.312-.668.393-1.694-.479-2.072-.185-.416-.363-.83-.601-1.219.953-.021,1.869-.152,2.805-.327Z"/>
  <path class="st7" d="M48.709,69.043c.63-.108,1.337.372.635.909-.63.131-1.33-.384-.635-.909Z"/>
  <path class="st7" d="M46.614,69.372c.66-.076,1.168.598.425.958-.675.071-1.202-.595-.425-.958Z"/>
  <path class="st7" d="M34.519,70.967c.637-.026,1.182.592.431.965-.657.125-1.147-.628-.431-.965Z"/>
  <path class="st7" d="M40.057,67.9c.597-.146,1.326.388.645.885-.582.151-1.277-.396-.645-.885Z"/>
  <path class="st7" d="M44.267,69.659c.647-.1,1.18.529.457.92-.655.115-1.212-.546-.457-.92Z"/>
  <path class="st7" d="M41.924,69.893c.63-.13,1.33.479.536.887-.61.149-1.197-.46-.536-.887Z"/>
  <path class="st7" d="M42.201,67.732c.576-.137,1.447.207.747.806-.559.202-1.259-.238-.747-.806Z"/>
  <path class="st7" d="M39.679,70.232c.625-.077,1.135.398.554.905-.657.148-1.251-.428-.554-.905Z"/>
  <path class="st7" d="M32.455,68.916c.577-.114,1.244.404.616.886-.619.144-1.28-.379-.616-.886Z"/>
  <path class="st7" d="M37.061,70.643c.692-.022.883.773.165.941-.72.009-.998-.823-.165-.941Z"/>
  <path class="st7" d="M34.911,68.589c.653-.029,1.092.667.321.936-.686.012-1.043-.582-.321-.936Z"/>
  <path class="st7" d="M46.494,67.148c.502-.053,1.384.447.631.856-.568.067-1.314-.342-.631-.856Z"/>
  <path class="st0" d="M18.039,56.118c1.293-.026,3.615.25,4.565,1.164.143.218-.133.944-.203,1.192-.49-.165-2.218-.929-2.117.101,1.796.716,6.008,2.717,7.737,2.95,1.945-.126,4.093-1.705,5.855-.125,1.051.94,2.549,3.141,1.896,4.58-.291-.137-.461-.646-.649-.905-.649-.924-1.44-2.194-2.63-2.396-.691.321.769,1.204.981,1.532.353.365.641.789.932,1.203.192.277.842,1.049.385,1.312-1.511.216-2.623-2.828-3.747-2.474-.337.74,1.665,2.005,2.091,2.637-1.403.65-2.14-.555-3.08-1.288-.131-.1-.191-.127-.351-.102-.205.329.05.859.201,1.162-2.337.386-2.385-.527-4.062-1.45-2.528-.305-5.249-.495-7.543-1.749-3.224-1.361-2.931-4.395-1.586-7.09.414-.173.881-.212,1.324-.256Z"/>
  <path class="st6" d="M43.37,44.055l.099.003c1.318.865,5.603,7.128,6.381,8.634-2.678.359-5.343,1.609-6.559,4.152l-.723-.599c.154-.923.924-6.968-.551-6.791-.517.75-.051,1.805-.139,2.667-.068,3.143-.521,6.259-1.059,9.351-1.295.279-2.617.349-3.934.459-.748-1.305-1.356-2.736-2.012-4.092.192-.178.352-.396.517-.599,2.514,6.282,4.953-2.707,2.077-5.505.576-.367,1.009-.8,1.481-1.287,2.186,2.451,2.279-4.261,1.946-5.303.82-.396,1.672-.637,2.477-1.091Z"/>
  <path class="st0" d="M49.167,53.953c.636.156.891.989,1.239,1.481,3.078,4.818,1.484,7.275-3.354,9.47-.915.573-1.388,1.959-2.506,2.158-1.724-.905,2.523-3.358,1.753-4.023-.799-.107-1.925,1.502-2.369,2.085-.364.462-.775,1.965-1.537,1.669-.406-.938.21-1.995.763-2.737.348-.356,1.277-1.099,1.312-1.578.023-.183-.172-.245-.32-.239-.725.04-2.045,1.777-2.374,2.404-.246.452-.296,1.427-.998,1.305-.329-.122-.286-.578-.262-.863.034-2.939,3.592-5.181,5.785-6.691.529-.329,1.26-.563,1.725-.958.037-1.434-2.772.385-3.19.848-.345-.254-.584-.497-.811-.863.961-1.884,3.045-3.278,5.144-3.468Z"/>
  <path class="st12" d="M17.996,46.257l.068.021c-.929,2.103-5.238,9.106-2.719,10.901-.158.427-.304.846-.412,1.289-1.106.131-2.232.259-3.345.108-.396-3.428-.527-6.943-.248-10.382.073-2.252,5.037-1.667,6.657-1.938Z"/>
  <path class="st0" d="M50.05,84.719c.165.056.366.059.539.087.108.331-.871,7.509-1.015,8.39-.835.698-3.957.654-4.803-.04-.331.042-.857-.325-1.072-.547.206-2.457.447-4.911.684-7.365.423.132,5.34-.353,5.668-.524Z"/>
  <path class="st5" d="M23.209,86.602c.464.173,1.402.273,1.859.077-.306,7.557-.557,18.203-.811,25.763.098,1.08-1.356,1.138-1.912.487.172-7.983.535-18.343.864-26.327Z"/>
  <path class="st0" d="M37.805,85.7c.056.026.097.063.145.101-.259,2.412-.841,4.844-1.232,7.248-.429,1.609-4.508,1.096-5.442.231-.315.004-.74-.391-.913-.629.384-2.095.603-4.316,1.009-6.421.3.212,6.021-.367,6.433-.53Z"/>
  <path class="st5" d="M66.293,83.318c.49,3.616.966,19.717,1.275,23.707.029.518.278,2.737.034,3.094-.318.363-.986.44-1.373.15-.072,0-.112-.027-.176-.056-.598-6.419-.945-19.93-1.357-26.557.433.151,1.226-.095,1.596-.338Z"/>
  <path class="st5" d="M12.025,77.951c.579.312,1.04,1.092,1.652,1.301-.44,4.643-1.323,15.912-1.808,20.385-.047.322-.422.473-.721.449-.484.021-1.079-.196-.948-.781.035-.768.135-1.542.199-2.308.302-3.501,1.315-15.355,1.627-19.046Z"/>
  <path class="st9" d="M30.243,93.908c1.611,1.271,4.388,1.74,6.183.656-.118.776-.557,4.034-.814,4.559-.429.268-1.212.406-1.675.202-.4.266-.924.134-1.335.576-.35.376-.417,1.257-.411,1.754-.928.286-2.153-.391-2.55-1.256-.144-1.032.334-5.424.601-6.491Z"/>
  <path class="st10" d="M38.5,105.933c.399.205,1.422-.024,2.267.494.81.521,1.956,1.696,1.358,2.719-.639.925-3.453,1.457-4.423,1.069-.418.298-3.586-.326-3.807-.832.01-1.258,1.798-2.54,2.873-2.978.554-.194,1.216-.23,1.732-.472Z"/>
  <path class="st2" d="M28.62,100.654c1.04,2.532,3.146,1.527,3.767,2.022.135.359-.394.995-.485,1.38-.266.889.441,1.499,1.263,1.616-.134.725.291,1.476,1.029,1.64-.409.543-.765,1.089-1.03,1.711-1.757-.52-4.481-2.933-5.216-4.604.052-1.267.222-2.572.673-3.765Z"/>
  <path class="st2" d="M42.419,99.22c.256.131.501.797.834,1.047.61.461,1.936.878,2.718.768.027.209.069.418.105.626-.956,1.397-.628,2.771,1.267,2.638.144.547.562,1.108,1.179,1.13-.177.444-.405.83-.544,1.294-1.239.101-6.013-2.517-6.686-3.308.095-1.45.514-2.885,1.127-4.196Z"/>
  <path class="st6" d="M27.059,41.519c.394.167.852.659,1.184.94.693,2.564,2.035,4.472,4.29,5.883-1.208.7-2.386,1.448-3.4,2.415-1.827-2.505-3.614-6.208-2.074-9.239Z"/>
  <path class="st9" d="M43.67,93.952c1.632.81,4.058,1.279,5.718.428-.068,1.018-.226,2.041-.319,3.059-.354.329-1.44.347-1.89.223-.279.208-.667.07-.964.337-.498.448-.465,1.415-.502,2.027-.642.128-1.603-.224-2.044-.703-.468-.569-.06-4.446,0-5.37Z"/>
  <path class="st10" d="M52.679,103.699c.397.208,1.001.052,1.449.275.834.459,2.284,1.525,1.83,2.627-.586.853-2.952,1.145-3.83.864-.677.185-2.914-.088-3.437-.502.005-1.191,1.727-2.401,2.717-2.833.39-.155.932-.22,1.27-.432Z"/>
  <path class="st10" d="M41.278,104.532c3.611,2.523,10.798,5.467,14.869,2.859-1.292,4.988-10.827.946-13.498-1.09-.571-.426-1.611-.904-1.371-1.769Z"/>
  <path class="st12" d="M17.63,44.83c.493-.043.997-.033,1.492-.042-.158.201-.324.394-.494.586-2.127.231-7.796-.318-8.081,2.545-.285,3.432-.18,6.939.092,10.373-.643-.368-.893-.955-.893-1.673-.135-1.994-.138-4.016-.136-6.014.08-1.442-.26-3.161.456-4.465.918-.917,6.122-1.222,7.564-1.31Z"/>
  <path class="st10" d="M27.976,106.007c2.696,3.384,7.134,5.57,11.507,5.008.9-.119,2.22-.4,2.79-1.146-.093.298-.186.703-.438.909-2.578,3.944-13.487-.634-13.86-4.771Z"/>
  <path class="st0" d="M29.687,43.575c2.174,1.32,4.661,2.103,7.224,2.102-.411.698-.673,1.636-1.378,2.085-2.633.535-4.925-1.959-5.845-4.187Z"/>
  <path class="st3" d="M32.764,55.463c.331.353,2.361,4.833,2.735,5.602.183.601,1.859,3.131,1.44,3.443-.321-.085-.4-.454-.488-.732-.591-1.709-1.667-3.168-3.377-3.867-.676-1.144-1.312-2.412-1.84-3.632l1.53-.814Z"/>
  <path class="st8" d="M36.487,52.342c1.635.454,1.475,4.978.641,6.123-1.694-1.491-1.122-3.952-1.321-5.955l.681-.168Z"/>
  <path class="st6" d="M39.754,45.388c.059-.006.098.017.153.037.423,1.153.182,3.448-.369,4.517-.578-1.047-1.52-1.812-2.665-2.156.391-.672.682-1.296.893-2.045.666-.103,1.329-.208,1.988-.352Z"/>
  <path class="st2" d="M36.342,99.73c.383.495.071,1.623.038,2.222-.271.161-1.679.125-2.2.306-.28.097-.734.378-1.012.322-.838-3.335,1.331-1.739,3.174-2.85Z"/>
  <path class="st8" d="M34.549,48.691c.437-.007.839.096,1.25.234.379.701.452,1.752.103,2.481-.432.788-1.829.621-2.084-.239-.293-.817-.241-2.16.73-2.476Z"/>
  <path class="st2" d="M49.306,98.164c.707.162.337,1.361.26,1.874-.284.197-.759.14-1.093.252-.561.224-1.132.589-1.676.789l-.072-.052c-.897-3.217.67-1.961,2.581-2.863Z"/>
  <path class="st10" d="M36.68,104.277c.969.132,2.087-.014,2.623,1.01-.575.146-1.288-.01-1.897.103-.526.097-1.077.49-1.586.522-.373.342-.795.757-1.346.677-.367-.053-.682-.416-.567-.793.361-1.075,1.901-1.147,2.773-1.519Z"/>
  <path class="st10" d="M49.138,100.789c1.113.244.965-.157,1.987.706-.331.24-1.21.266-1.65.431-.661.247-1.107.752-1.693,1.107-.878,1.694-3.366-.718,1.356-2.244Z"/>
  <path class="st10" d="M50.899,102.214c1.149.2,1.146-.162,2.162.768-.618.185-1.291.153-1.9.401-.404.165-1.155.756-1.484.813-.394.784-1.631.812-1.509-.235.338-1.093,1.845-1.32,2.732-1.747Z"/>
  <path class="st10" d="M35.206,102.676c.62.235,2.211-.199,2.405.937-.134.095-.79.008-.99.024-.808.023-1.527.43-2.285.632-.313.332-.703.676-1.195.604-.344-.044-.655-.377-.554-.734.268-1.05,1.967-1.049,2.618-1.463Z"/>
  <path class="st5" d="M11.714,59.699c.506.067,1.031.09,1.539.045-.015.526.111,2.983-.056,3.268-.492.03-.981.084-1.472.137l-.011-3.45Z"/>
  <path class="st8" d="M33.862,52.608c.326.008.65,0,.976-.011.107,1.319.374,3.198-.456,4.315-.47-.804-.633-1.744-1.196-2.512.213-.608.357-1.227.676-1.792Z"/>
  <path class="st0" d="M29.996,51.311c.353.041,1.139.011,1.246.446-.095.039-.144.063-.215.142.234.34.413.667.58,1.044-.565.228-1.113.502-1.619.844-.287-.553-.505-1.132-.72-1.716.206-.318.309-.69.727-.76Z"/>
  <path class="st8" d="M33.042,49.084l.048.062c-.41.591-.256,1.542-.188,2.219-.687-.268-1.488-.52-2.193-.75.672-.602,1.519-1.14,2.333-1.531Z"/>
  <path class="st3" d="M31.767,53.63l.086.028c.236.339.405.751.592,1.121-.445.312-.938.564-1.419.814-.322-.11-.575-.875-.721-1.181.48-.273.975-.523,1.463-.782Z"/>
  <path class="st8" d="M36.734,48.826c.663.207,1.131.506,1.525,1.079-.378.506-.858.911-1.428,1.186.069-.769-.028-1.502-.097-2.265Z"/>
  <path class="st4" d="M37.133,65.15c.079-.008.109.01.177.049.179.554.422,1.335.151,1.885-.389.132-.684-.335-.991-.514.248-.467.093-1.212.663-1.421Z"/>
  <path class="st11" d="M31.945,51.848c.376.136.984.073,1.183.471-.076.167-.172.214-.315.318l-.311.413c-.131-.428-.335-.816-.557-1.202Z"/>
</svg>