<?xml version="1.0" encoding="UTF-8"?>
<svg id="Layer_1" xmlns="http://www.w3.org/2000/svg" version="1.1" viewBox="0 0 80 115">
  <!-- Generator: Adobe Illustrator 29.1.0, SVG Export Plug-In . SVG Version: 2.1.0 Build 142)  -->
  <path d="M19,3.6c.3-.5.6-.9,1.1-1.2.7-.4,1.5-.5,2.3-.3s1.4.7,1.8,1.4c.1,0,.3,0,.4,0,.6-.2,1.3,0,1.8.2.6.3,1,1,1.1,1.6v.8c.5,0,.9,0,1.4.3.6.3,1,.9,1.1,1.5.2.9,0,1.8-.4,2.7.2,0,.4,0,.5-.1.2,0,.4,0,.5-.1h7c4.6.7,9.2,3.1,11.9,6.9,2.2,3.1,3,7.4,1.6,11-.2.4-.3.8-.6,1.2-.3.5-.7,1-.9,1.6-.3.9-.6,1.9-.7,2.8,0,1.2,0,2.3-.2,3.5-.5,2.9-2.3,5.1-4.6,6.7l1,1.2c1.4,1.6,5,6.2,5.4,8.1.2.8-.4.9-.3,1.1,0,0,.4.6.5.7,1.2,1.7,2,3.5,1.8,5.6,1.4,0,2.6.5,3.8,1.2,3.1,1.8,6.1,3.6,9.1,5.4,1.4.8,3.5,1.9,4.6,3,.3.2.4.5.5.8.2.9,0,4.1-.4,4.9-.4.7-1.2.8-2,1,0,1.3,0,3.3-.6,4.4-.2.3-.5.9-.9,1,0,.8,0,1.6,0,2.3l.2,4.6.6,12.9.2,4.6c0,.7,0,1.5,0,2.3s0,.6-.3.8c-.3.4-1,.5-1.5.5s-1.1,0-1.5-.4c-.2-.2-.3-.4-.3-.6,0-1,0-2.1-.2-3.1l-.3-5.7c-.3-5.8-.6-11.5-.8-17.3h0c-.3,0-10.2.9-11.3.9h-.4l-1.4,12.3h0c0,.2.2.3.3.4.3.6.2,1.6,0,2.2.4.3.9.5,1.2.9,0,0,.2.3.3.4h0c.3.2.8.3,1.1.5.4.3.7.7,1,1,.3.2.6.3.9.5.7.4,1.3,1.2,1.6,1.9.4.8.4,1.9,0,2.7-.2.5-.7,1.3-1.2,1.5-.8.8-2.4.9-3.4.9-2.6,0-5-.8-7.3-2-.5-.2-1.1-.5-1.5-.9h0c.2,1.1.3,2.5-.4,3.5s-2,1.5-3.2,1.7c-1.9.3-3.8,0-5.5-.7-.5-.2-1-.4-1.4-.6h0c-.3,0-.9-.4-1.2-.6-1.5-1-3.6-2.6-3.9-4.5-.3-1.5,0-4.9.8-6.3.2-.4.5-.6.8-1h0c0-.4.1-.8.1-1.2l.3-3c.3-2.7.7-5.5,1.1-8.2h-.1c-.4.2-3.6.4-3.9.2h0c0,2-.1,3.9-.2,5.7l-.3,9-.2,7.1c0,1.2,0,2.5-.1,3.7,0,.4-.1.8-.4,1.1-.4.4-1,.5-1.5.5s-1.1-.2-1.5-.6c-.2-.3-.3-.6-.3-1v-2.1c0-1.9.1-3.9.2-5.8.2-6,.3-12,.6-17.9h0c-.5,0-6.4-5.1-7.1-5.8,0,0-.2-.2-.2-.3,0,1.4-.2,2.9-.3,4.4l-.8,8.4c0,1.1-.2,2.2-.3,3.3,0,.8,0,3.2-.4,3.9,0,.3-.4.5-.6.6-.6.3-1.2.2-1.8,0-.4-.2-.8-.4-1-.8,0-.8,0-1.9,0-2.7l.3-3.4,1.4-16.5c-.2-.3-.3-.6-.4-.9-.3-1.4,0-3.7,0-5.1-.8-.6-1.8-1.3-2.1-2.3-.2-.9-.4-3.3,0-4.2.4-.6,1.2-.8,1.8-.9v-3.6c-.4,0-.9-.4-1.2-.7-.2-.2-.5-.6-.6-.9-.3-1-.3-3.2-.3-4.4v-3.8c0-1,0-2.1.2-3,0-.4.3-.8.6-1,1.4-1.4,8.1-1.7,10.3-1.7,1.6-1.3,4.3-2.8,6.4-2.9-1.1-1.2-1.9-2.6-2.4-4.2-.1,0-.3,0-.4.2-.8.4-1.8.3-2.6,0-1.4-.5-2.4-1.9-3-3.2-.5-1.1-.7-2.2-.6-3.4v-1.5c0-.7-.2-1.4-.3-2.2-.2-2.5,0-5,1-7.3h0c-.5,0-1,.1-1.6,0-.6-.2-.9-.5-1.2-1.1-.6.3-1.2.3-1.8.2-.5-.1-.9-.5-1.1-.9-.3-.6-.4-1.3,0-2-.6-.2-1.2-.5-1.6-1-.5-.5-.7-1.2-.6-1.9,0-.9.5-1.5,1.2-2.1,0-.2-.2-.4-.3-.7-.2-.8-.2-1.7.2-2.4.4-.8,1.1-1.1,1.9-1.4,0-.6.2-1.1.4-1.6.5-.8,1.3-1.5,2.2-1.7.9-.2,1.7,0,2.6.4l.2.2ZM39.6,85c-.5,3.6-1.2,7.2-1.7,10.8-.1.7-.4,1.5-.4,2.2.1.2.3,0,.4.2.3.2.4,1,.3,1.4,0,.5,0,1-.2,1.5.4.3.7.5,1,.9h0c0,.2.1.4.2.5.2.2.5.3.8.5.2,0,.3.3.5.5.3-2.2.4-5,2.1-6.5,0-1,0-2.1.2-3.1l.4-5c0-.9.2-1.8.3-2.6,0-.5.2-1,.2-1.5h-.5c-.2,0-3.4.4-3.6.4h-.1v-.2ZM15.5,59.6c-.2.6,0,2.6,0,3.3h1.3c-.6-.8-.9-1.8-.8-2.8v-.5h-.5ZM42.9,57.6c-.2,1-.3,2-.5,3,.3-.3.6-.6,1-.9.4-.3.7-.6,1.1-.8-.5-.4-1-.9-1.6-1.3Z" fill="#583114"/>
  <path d="M47.4,19.3h0c.4.5.7,1.1,1,1.7s.6,1.2.8,1.8c.5,1.6.5,4.5.3,6.2-.2,1.4-.7,2.8-1,4.2,0,.9,0,1.8-.2,2.7-.2,2.5-1.5,4.8-3.4,6.4-2.2,1.9-5.3,2.8-8.3,2.6-4-.3-8.3-3.1-10.2-6.6-.2-.3-.3-.7-.5-1-.2-.5-.4-1.5-.6-1.8h-.3c-.2,0-.3.2-.5.3-.4.3-.9.4-1.4.5-.3,0-.6,0-1,0-1.1-.4-1.9-1.4-2.4-2.5-.7-1.5-1-3.5-.4-5,.3-.7.7-1.3,1.4-1.6,1.8-.8,3.4.5,4.4,2,.2.3.3.7.6,1.1,0,.1.1.2.3.2s.2,0,.3-.2c.9-.8,1.6-2.8,1.9-4,.1-.7.2-1.3.2-2,1.7.3,3.4-.4,4.8-1.4.1.2.2.5.4.7.5.4,1.1.6,1.8.5,1.7,0,3.4-1.2,4.5-2.5,0,.8,0,1.7.4,2.5s.5.6.9.7c.7.2,1.7-.2,2.3-.6,2-1.1,3.1-2.8,3.7-5v.2Z" fill="#9e5024"/>
  <path d="M34.1,38c.1,0,.2,0,.3,0,.2.2.3.4.4.6.5.7,1,1.2,1.8,1.6,1.2.6,2.8.9,4.1.4.3,0,.6-.4,1-.5h.3v.2c0,.3-.2.5-.4.6-1.1.7-2.2,1-3.5.8-1.5-.2-3.2-1.3-4.1-2.5-.2-.3-.4-.7-.4-1.1s.2-.3.3-.4l.2.2Z" fill="#583114"/>
  <path d="M32.6,32.1c.3,0,.5.4.7.7.8.8,1.7.8,2.6.3.3-.2.7-.6,1.1-.5,0,0,.1,0,.1.2,0,.4-.1.7-.3,1,0,0-.2.2-.3.4-.4.4-1.1.7-1.7.7s-1.4-.4-1.9-.9c-.3-.4-.6-.9-.6-1.4s.1-.3.3-.4h0Z" fill="#583114"/>
  <path d="M35.3,26.4h.9c.4,0,1.1.1,1.3.5,0,.1.1.3,0,.4,0,0-.1.2-.2.2-.3,0-.6,0-.9-.1-.8-.1-1.6,0-2.3.3-.4.2-1.4.9-1.8.9h-.1c0-.2.1-.4.3-.6.6-.8,1.8-1.4,2.8-1.5h0Z" fill="#583114"/>
  <path d="M42.8,32.7c.7,0,.6,1,1.8,1s1.6-1,2-1h0c0,.5,0,.6-.2.9-.4.6-1,1-1.7,1.1-.6,0-1.1,0-1.5-.4-.4-.3-.7-.6-.7-1.1s0-.4.2-.6h0Z" fill="#583114"/>
  <path d="M22.2,29.3c.5,0,.9.2,1.3.5.8.7,1.3,1.8,1.4,2.9,0,.2,0,.4-.1.5h-.4c-.2-.3-.3-.5-.4-.9-.5-1.5-.6-1.4-1.9-2.1-.2,0-.3-.2-.4-.4v-.3c.1-.2.4-.3.6-.3h-.1Z" fill="#583114"/>
  <path d="M45.5,26.6c.5,0,.9,0,1.4.2.6.3,1.1.8,1.3,1.4,0,.2,0,.4,0,.6,0,0,0,.1-.2.1-.2,0-.5-.3-.6-.5-.8-.8-1.4-.9-2.5-.8h-.7q0,0-.2-.2c0-.2,0-.3.2-.4.3-.3,1-.5,1.4-.5h-.1Z" fill="#583114"/>
  <path d="M41.7,36.2h.2c.3,0,.7.2.9.4.2.3.2.6.2.9,0,.5-.4.9-.8,1.1-.6.4-1.2.4-1.9.3-.3,0-.7-.3-.8-.6v-.2c.5-.3,1.3,0,1.8,0,.3,0,.6-.3.7-.6.2-.4-.3-.7-.4-1v-.3h0Z" fill="#583114"/>
  <path d="M52.9,61.5c.8,0,1.6.3,2.4.6,1.9.8,4.2,2.3,6,3.3,1.7,1,3.4,2,5.1,3,1,.6,2.1,1.2,3.1,1.9.3.2.8.6.9,1,0,0,0,.2,0,.3-.3.4-1,.5-1.5.5-2.3.3-4.6.4-6.9.6l-13.6,1.1-14.4,1.1c-2.2.2-6.7.7-8.7.2s-5.5-3.6-7.3-4.9c-1-.8-6.5-4.9-6.8-5.4v-.2c.2-.2.7-.4,1-.4.7-.2,1.5-.2,2.3-.2,1.2,0,2.4-.2,3.6-.3,1.1.7,2.2,1.2,3.5,1.5.6.2,1.9.3,2.4.6.6.4,1.2.9,1.8,1.4,1.1.9,7.2,6.1,7.9,6.3h1.1c1.7,0,3.3-.4,4.9-.5,2.3-.3,4.6-.5,6.9-.8l4.9-.6c.9,0,1.7-.2,2.6-.3,0,0,.2,0,.3,0,0,0,.2-.2.2-.4s-.2-.4-.4-.6c-.4-.5-1-.9-1.5-1.3-1.3-1.1-2.8-2.2-4.1-3.5,1.9-.9,3.3-2,4.4-3.8h0Z" fill="#7dc7ce"/>
  <path d="M13.1,71.4c2.3,1.7,4.5,3.7,6.8,5.5,1.1.9,2.2,1.9,3.4,2.6.6.4,1.2.6,1.9.8.8,0,1.5,0,2.3,0,2.3,0,4.5-.4,6.8-.6l13.7-1.1c4.6-.3,9.1-.7,13.7-1.1,1.9-.2,3.8-.3,5.7-.5.2,0,.3,0,.4,0,0,.8,0,1.7-.2,2.5,0,.5-.2,1.4-.5,1.6,0,0-.2.3-.3.4-.4.4-1.1.6-1.6.7-.8,0-1.6,0-2.4.2l-5.2.4-15.5,1.2c-3.9.3-7.9.6-11.8.9l-3,.2c-.7,0-1.4,0-2,0s-1.2-.2-1.8-.6c-.7-.4-1.3-1-1.9-1.5l-2.7-2.3-3.4-2.9c-.6-.5-1.3-1.1-1.9-1.7-.8-.9-.4-3.6-.3-4.7h-.2Z" fill="#9d9991"/>
  <path d="M10.9,66.1c2.4,2,4.9,3.9,7.4,5.8l2.8,2.1c.8.6,1.6,1.3,2.6,1.8s2,.7,3.1.7,2.6,0,3.8-.2c1.8,0,3.6-.3,5.4-.4l15.4-1.2,11.5-1,3.8-.3c1.2,0,2.4-.2,3.6-.6,0,.8,0,1.7-.4,2.5h0c-.3.4-1.1.5-1.5.6-2.4.3-4.9.5-7.3.7l-14.4,1.2-13.2,1.1c-2.2.2-4.4.4-6.6.5-1,0-1.9,0-2.8-.5-1.3-.7-2.5-1.8-3.7-2.8l-5.1-4.1c-.7-.6-1.5-1.2-2.3-1.8-.5-.4-1-.8-1.5-1.2-.7-.7-.5-1.8-.5-2.7v-.2Z" fill="#7dc7ce"/>
  <path d="M26.5,42.5h0c0,.2-.2,1.2-.2,1.5v1c.2,2.4,1.4,4.7,2.8,6.7,0,1.8,2.6,6.2,3.5,8-.4,0-.8,0-1.2.2-.8.2-1.6.7-2.5.7s-.5,0-.8,0c-.8-.3-1.5-.7-2.3-1-.5-.2-1-.3-1.5-.5-.1,0-.2,0-.3-.2,0-.7.8-.7,1-1.2.4-.7.9-3.4,1.1-4.3.1-.5.5-1.6.3-2.1,0,0-.1,0-.2-.2h-.2c-.2,0-.2.2-.3.4-.2.6-.3,1.2-.5,1.8-.3,1.2-.6,2.3-.9,3.5-.8-.6-1.7-1-2.7-1.2-1.6-.4-3.6-.5-5,.4.2-2.4,1.3-5.1,2.4-7.2,2-3.8,3.1-5,7.3-6.2h.2Z" fill="#5a9a43"/>
  <path d="M40.7,62.4h.2c0,.2,0,.4-.2.6-.3.8-.4.4-.9.8v.3c0,.2.3.4.5.5v1.3c0,.3.2.5.5.7s.6,0,1,0c.2.3.4.6.7.8.5.3,1.1,0,1.6,0,.4.3.6.8,1,.9.2,0,.4,0,.5-.2.3-.2.6-.6.9-.9s.8-.9,1.3-1.3c.7.5,1.3,1.1,2,1.6,1.2,1,2.3,2,3.5,3l-7.6,1c-3.7.5-7.4.9-11.1,1.3h-.6c-.8-.5-1.6-1.3-2.3-1.9-2-1.6-3.9-3.3-6-4.8.4,0,.8,0,1.1,0,.7.5,1.3,1.1,2.1,1.4,1,.3,1.8,0,2.7-.3.2,0,.5.2.7.3.9.3,1.7.3,2.6,0,.1,0,.3,0,.4,0,.5,0,.8,0,1.1-.4.7.3,1.2.9,1.9,1h0c-.1,0-.2,0-.3,0v.4c0,0,.1.2.3.2h.8v-.3c-.1-.2-.3-.3-.5-.4,0,0,.1-.2.2-.2.2-.3.2-.9.2-1.3.1,0,.6,0,.8,0,0,0,0-.2,0-.4,0,0,0-.2-.2-.3-.3-.2-.5,0-.8,0-.2-.5,0-1,0-1.5s-.2-.4-.4-.5l-.6-1.2c.9,0,1.8,0,2.7-.3h.2Z" fill="#fef4df"/>
  <path d="M49,68.8c.3,0,.6,0,.8.2,0,0,0,.2,0,.3,0,.2-.2.3-.3.4-.3,0-.6,0-.8-.2,0,0,0-.2,0-.3,0-.2.2-.3.3-.4h0Z" fill="#583114"/>
  <path d="M47,69.2h0c.2,0,.5,0,.6.2,0,0,0,.2,0,.4,0,.2-.2.3-.3.3h0c-.2,0-.5,0-.6-.2,0,0,0-.2,0-.4,0-.2.2-.2.4-.3Z" fill="#583114"/>
  <path d="M35.2,70.7c.2,0,.5,0,.7.3,0,0,.1.2,0,.3,0,.2-.2.2-.3.3h-.3c-.2,0-.3,0-.4-.2,0,0-.1-.2,0-.4,0-.2.2-.3.3-.3Z" fill="#583114"/>
  <path d="M40.6,67.7c.3,0,.5,0,.8.2,0,0,0,.2,0,.3,0,.2,0,.3-.3.4-.3,0-.5,0-.7-.2,0,0-.2-.2,0-.3,0-.2,0-.3.2-.4Z" fill="#583114"/>
  <path d="M44.7,69.4h.3c0,0,.3,0,.4.2v.3c0,.2-.2.3-.3.3h-.4c-.2,0-.3,0-.4-.3v-.3c0-.2.2-.3.3-.3h.1Z" fill="#583114"/>
  <path d="M42.4,69.7h.4c.2,0,.4,0,.4.3v.3c0,.2-.2.2-.3.3h0c-.2,0-.5,0-.6-.2,0,0,0-.2,0-.3,0-.2.2-.3.3-.4h-.1Z" fill="#583114"/>
  <path d="M42.7,67.6c.3,0,.6,0,.8,0,0,0,0,.2.2.3,0,.2,0,.3-.3.4h-.7c0,0-.2-.2-.2-.3,0-.2,0-.3.2-.4h0Z" fill="#583114"/>
  <path d="M40.2,70c.2,0,.5,0,.6,0,0,0,0,.2.2.3,0,.2,0,.3-.3.4h0c-.2,0-.5,0-.6-.2,0,0,0-.2,0-.3,0-.2.2-.3.3-.4h0Z" fill="#583114"/>
  <path d="M33.2,68.7c.3,0,.5,0,.7.2,0,0,.1.2.1.3,0,.2-.1.3-.2.4-.3,0-.5,0-.8-.2,0,0-.1-.2-.1-.3,0-.2.1-.3.3-.4Z" fill="#583114"/>
  <path d="M37.7,70.4h.3c.1,0,.2.2.3.3v.3c0,.2-.2.2-.4.3h-.3c-.1,0-.3-.2-.3-.3v-.3c0-.2.3-.2.5-.3h-.1Z" fill="#583114"/>
  <path d="M35.6,68.4h.1c.2,0,.4,0,.5.3v.3c-.1.2-.2.2-.4.3-.2,0-.5,0-.6-.2v-.3c0-.2.2-.3.4-.4Z" fill="#583114"/>
  <path d="M46.9,67c.3,0,.6,0,.8.3v.3c0,0,0,.2-.3.3-.2,0-.5,0-.7-.2,0,0,0-.2-.2-.3,0-.2,0-.3.3-.4h.1Z" fill="#583114"/>
  <path d="M19.1,56.3h1.3c.7,0,2.7.5,3.1,1.1.1.2-.1.9-.2,1.2-.5-.2-1.1-.5-1.7-.4-.1,0-.3,0-.4.2v.3c.4.3,1,.4,1.4.6,1.1.5,5.2,2.3,6.1,2.3s2.2-.7,3.4-.8c.9,0,1.6,0,2.3.7,1,.8,1.9,2.5,2,3.7,0,.3,0,.5-.2.7h0c-.2-.2-.4-.6-.5-.8-.4-.6-.8-1.1-1.2-1.6-.3-.3-.9-.8-1.3-.8s-.1,0-.2.2c0,0,0,.2.1.3.3.4.7.7,1,1,.3.4.6.8.9,1.2.2.2.5.7.5,1.1s0,0-.2.2c-1.2.2-2.6-2.3-3.3-2.4h-.4v.2c.2.8,1.6,1.8,2.1,2.4,0,0-.2,0-.3,0-1.5,0-1.7-.7-2.7-1.4-.1,0-.2,0-.3,0h0c-.1.3,0,.8.2,1.1-1.3.2-2.1,0-3.1-.8-.3-.2-.5-.5-.9-.6-.6-.2-1.4,0-2.1-.2-1.8-.2-3.7-.7-5.3-1.5-1-.5-2-1.2-2.4-2.3-.4-1.3.2-3.4.8-4.6.4-.2.9-.2,1.3-.2l.2-.2Z" fill="#9e5024"/>
  <path d="M43.8,44.5h0c1.3.8,5.5,6.9,6.2,8.4-.7.2-1.4.2-2.1.5-1.9.6-3.4,1.8-4.3,3.6l-.7-.6c.3-1.4.4-4.3.2-5.7,0-.3-.2-.8-.4-.9h-.3c-.2.2-.2.3-.2.5v2.1c0,1,0,2-.2,3,0,1-.2,2-.4,2.9-.2,1.1-.3,2.1-.5,3.2-1.3.3-2.6.3-3.8.4-.7-1.3-1.3-2.7-2-4,.2-.2.3-.4.5-.6.1.5.3.9.6,1.3.2.3.6.7,1,.8.2,0,.5,0,.7-.2.6-.5.9-1.8,1-2.5.2-1.8,0-3.3-1.2-4.7.6-.4,1-.8,1.4-1.3.1,0,.3.3.4.4,0,0,.3.2.4,0,.2,0,.3-.2.4-.3.8-1.3.9-4,.6-5.4.8-.4,1.6-.6,2.4-1.1h.3Z" fill="#5a9a43"/>
  <path d="M49.5,54.1h0q.2,0,.4.2c.3.3.6.8.8,1.2.8,1.3,1.6,2.8,1.6,4.4s-1,2.4-2,3.2c-.4.3-.7.6-1.1.8-.5.3-1.2.4-1.6.8-.6.5-1.1,1.2-1.7,1.7-.2.2-.5.4-.7.4s-.2,0-.3-.2c-.6-1.1,2-2.8,2.1-3.4q0-.2,0-.3h-.2c-.6.2-1.7,1.5-2.1,2-.2.3-.3.6-.5.9s-.5.7-.8.8h-.2s0-.2,0-.3c0-.9.3-1.7.9-2.4.3-.3,1.2-1.1,1.3-1.5v-.2h-.2c-.7,0-2,1.7-2.3,2.3-.2.3-.2.8-.5,1.1,0,0-.2.2-.4.2h0c-.2-.2,0-.5,0-.7,0-.6.3-1.5.6-2.1.8-1.4,3.6-3.6,5.1-4.4.5-.3,1.2-.5,1.7-.9v-.3c0,0-.2-.2-.4-.2-.9,0-2.1.8-2.7,1.3-.3-.2-.6-.5-.8-.8.2-.4.4-.7.7-1,1.1-1.3,2.7-2.2,4.3-2.3l-.7-.3Z" fill="#9e5024"/>
  <path d="M19.1,46.6h0c0,.2-.7,1.4-.9,1.6-.9,1.7-2.8,5.9-2.6,7.7,0,.6.3.9.8,1.3-.2.4-.3.8-.4,1.3-.9,0-1.7.2-2.6.2h-.7c0-.8-.2-1.6-.2-2.3,0-1.7,0-3.3,0-5s0-1.9,0-2.8c0-.3.2-.7.4-1,.7-.8,4.9-.9,6.1-.9h0Z" fill="#7dc7ce"/>
  <path d="M50.3,84.1h.5c0,.3-.8,7.3-1,8.2h0c-.4.4-1.7.4-2.3.4s-1.9,0-2.3-.5h0c-.3,0-.8-.3-1-.5,0-1.1.2-2.2.3-3.3,0-1.3.3-2.6.4-3.9h0c.4,0,5.2-.4,5.5-.5h-.1Z" fill="#9e5024"/>
  <path d="M24.2,86h0c.4.2,1.3.3,1.8,0-.1,2.1-.1,4.2-.2,6.3l-.4,12v4.6c-.2.8-.1,1.5-.2,2.3,0,.2,0,.5-.2.6h0c-.2.2-.5.3-.7.3-.3,0-.7,0-.9-.4-.1-.9,0-1.9,0-2.8l.2-5.9.4-10.7c0-2,0-4.2.2-6.2h0Z" fill="#9d9991"/>
  <path d="M38.4,85.1h.1v.2c0,.6-.2,1.3-.3,1.9-.2,1.1-.4,2.3-.6,3.4,0,.5-.2,1.1-.3,1.6,0,.2,0,.4-.2.5-.6.5-1.8.6-2.5.5-.7,0-2.1-.3-2.6-.8h-.1c-.2,0-.6-.4-.8-.6.2-.7.2-1.7.4-2.4.2-1.3.4-2.6.6-3.9h.1c.3,0,5.8-.4,6.1-.6v.2Z" fill="#9e5024"/>
  <path d="M66.2,82.8h0c0,.4,0,1,0,1.4l.2,3.9.9,17.8c0,.5.3,2.7,0,3,0,.2-.4.3-.6.3-.3,0-.5,0-.7,0h-.2c0-.2,0-.3,0-.5,0-.9,0-1.7,0-2.6,0-2.2-.2-4.4-.3-6.5l-.8-16.2h0c.4,0,1.1,0,1.4-.4h.2Z" fill="#9d9991"/>
  <path d="M13.3,77.5c.6.3,1,1.1,1.6,1.3l-1.2,13.4-.4,4.4c0,.7,0,1.4-.2,2.1,0,0,0,.2-.2.3h0c0,0-.3,0-.5,0-.3,0-.6,0-.9-.3v-.5c0-.7,0-1.5.2-2.2l.4-5.1,1.1-13.4h.1Z" fill="#9d9991"/>
  <path d="M31,93.1c1,.8,2.3,1.2,3.6,1.2s1.9,0,2.4-.6c-.1.8-.5,3.9-.8,4.4-.1,0-.3,0-.4.2-.3,0-.9.2-1.2,0-.4.3-.9,0-1.3.6-.3.4-.4,1.2-.4,1.7h0c-.3,0-.9,0-1.2,0-.5-.2-1-.6-1.2-1.1-.1-1,.3-5.3.6-6.3h-.1Z" fill="#6b6358"/>
  <path d="M39.1,104.8c.4.2,1.4,0,2.2.5.6.4,1.3,1.1,1.5,1.8,0,.3,0,.6,0,.8-.4.6-1.4.8-2,1-.5,0-1.8.4-2.3,0-.5.3-1.8,0-2.4-.2-.4,0-1.1-.2-1.3-.6v-.4c.4-1,1.8-2.2,2.8-2.5.5-.2,1.2-.2,1.7-.4h-.1Z" fill="#fef4df"/>
  <path d="M29.5,99.7c1,2.5,3.1,1.5,3.7,2,.1.3-.4,1-.5,1.3,0,.3,0,.7.1,1,.2.3.7.5,1.1.6,0,.4,0,.7.2,1s.5.5.8.6c-.2.3-.4.6-.7.9,0,.2-.2.5-.3.7h-.2c-1.6-.7-4.2-2.8-4.9-4.4,0-1.2.2-2.5.7-3.7Z" fill="#d93e27"/>
  <path d="M42.9,98.3c.2,0,.5.8.8,1,.6.4,1.9.9,2.6.7,0,.2,0,.4,0,.6-.2.5-.5.8-.5,1.4s0,.6.3.8c.4.4.9.4,1.4.4,0,.3,0,.5.4.7.2.2.5.4.8.4-.2.4-.4.8-.5,1.3h-.2c-1.1-.3-5.7-2.5-6.3-3.3,0-1.4.5-2.8,1.1-4.1h0Z" fill="#d93e27"/>
  <path d="M27.9,42c.4.2.8.6,1.2.9.7,2.5,2,4.4,4.2,5.7-.6.3-1.2.7-1.7,1.1-.6.4-1.1.8-1.6,1.3-1-1.2-1.9-3-2.3-4.5-.4-1.4-.4-3.2.3-4.5h0Z" fill="#5a9a43"/>
  <path d="M44.1,93.1c.9.4,1.9.8,2.9.8s2.2,0,2.7-.4c0,1-.2,2-.3,3h0c-.3.3-1.3.3-1.7.2-.3.2-.6,0-.9.3-.5.4-.5,1.4-.5,2h-.3c-.5,0-1.4-.3-1.7-.7-.5-.6,0-4.3,0-5.2h-.1Z" fill="#6b6358"/>
  <path d="M52.9,102.6c.4.2,1,0,1.4.3.7.4,1.6,1.1,1.8,1.9v.7c-.3.4-.9.6-1.4.7s-2,.4-2.4,0c-.2,0-.6,0-.9,0-.5,0-2.2-.2-2.5-.5v-.3c.3-1,1.7-2.1,2.6-2.5.4,0,.9-.2,1.2-.4h.2Z" fill="#fef4df"/>
  <path d="M41.8,103.4h0c.5.4,1.1.7,1.7,1,3,1.7,6.6,2.9,10,2.6.9,0,2.2-.2,2.8-.9,0,.3-.2.8-.4,1,0,.3-.4.5-.6.7-1.2.9-3.2.7-4.6.5-2.7-.4-5.3-1.7-7.5-3.2-.4-.3-1-.6-1.3-1.1,0-.2,0-.4,0-.7h-.1Z" fill="#fef4df"/>
  <path d="M18.7,45.3h1.5c-.2.2-.3.4-.5.6h-1.6c-1.5,0-4.9.2-5.8,1.3-.3.3-.4.7-.4,1.1-.2,1.1,0,2.2,0,3.3,0,2,0,4,0,5.9v.8s-.2-.2-.3-.3c-.4-.4-.5-.8-.5-1.4,0-1.9,0-3.9,0-5.9s0-2.3,0-3.4c0-.3,0-.8.3-1,.9-.9,6-1.2,7.4-1.3v.3Z" fill="#7dc7ce"/>
  <path d="M28.8,104.9c.3.3.5.6.8.9.5.5,1,1,1.5,1.4,2.5,1.9,5.8,3,8.9,2.6.9,0,2.2-.4,2.7-1.1,0,.3-.2.7-.4.9,0,.2-.3.4-.4.6-.9.8-2.4.9-3.5.9-3.3-.2-6.5-1.8-8.7-4.2-.5-.5-.9-1.1-.9-1.9h0Z" fill="#fef4df"/>
  <path d="M30.5,44c.6.2,1,.6,1.6.9,1.7.8,3.6,1.1,5.5,1.2-.2.4-.4.9-.7,1.3-.2.3-.3.6-.6.7-.6.2-1.5,0-2.1-.2-1.7-.7-2.9-2.2-3.6-3.9h0Z" fill="#9e5024"/>
  <path d="M33.5,55.6h0c.3.3,2.3,4.7,2.7,5.5.5.9,1,1.9,1.4,2.8,0,0,.1.3,0,.4h0c-.2,0-.3-.3-.4-.6,0,0-.1-.3-.2-.4-.6-1.5-1.6-2.7-3.1-3.3-.7-1.1-1.3-2.4-1.8-3.5l1.5-.8h-.1Z" fill="#faa227"/>
  <path d="M37.1,52.6h.2c.5.3.7,1,.8,1.6.3,1.3.3,3.3-.4,4.4,0,0-.2,0-.2-.2-1-1-.9-2.4-1-3.7v-1.8l.7-.2h-.1Z" fill="#f7ec13"/>
  <path d="M40.3,45.8h0c.3,1.2,0,3.4-.4,4.4-.3-.5-.5-.9-1-1.2-.5-.4-1-.7-1.6-.9.4-.7.7-1.3.9-2,.6,0,1.3-.2,1.9-.3h.1Z" fill="#5a9a43"/>
  <path d="M37,98.8h0c.2.6,0,1.6,0,2.2-.3.2-1.6,0-2.1.3-.3,0-.7.4-1,.3-.2-.3-.2-1.1-.1-1.5.2-1.3,2.2-.5,3.2-1.3h0Z" fill="#d93e27"/>
  <path d="M35.2,49c.4,0,.8,0,1.2.2,0,0,.1.3.2.4.2.6.2,1.5,0,2-.1.3-.3.4-.6.5h-.9c-.3,0-.5-.4-.6-.6-.2-.5-.2-1.3,0-1.8.2-.3.3-.5.7-.6h0Z" fill="#f7ec13"/>
  <path d="M49.6,97.2c0,0,.2,0,.3,0,.2.5,0,1.2,0,1.7-.3.2-.7,0-1.1.2-.5.2-1,.6-1.6.7h0c0-.5-.3-1.1-.2-1.6.2-1.1,2-.6,2.7-1.1h-.1Z" fill="#d93e27"/>
  <path d="M37.3,103.2h.5c.5,0,1.3,0,1.7.5,0,0,.2.3.3.4h0c-.6.2-1.3,0-1.8,0-.5,0-1,.5-1.5.5,0,0-.2.2-.3.3-.3.2-.6.5-1,.4-.2,0-.4-.2-.5-.3v-.4c.2-.7,1.3-1.1,2-1.3.2,0,.5,0,.7-.2h-.1Z" fill="#fef4df"/>
  <path d="M49.5,99.8c.3.2.8,0,1.2.2.3,0,.4.4.7.5h0c-.3.2-1.2.3-1.6.4-.6.2-1,.7-1.6,1h0c0,.2,0,.3-.3.4s-.4.2-.6,0c-.2,0-.3,0-.4-.3s0-.3,0-.5c0-.3.3-.5.5-.7.5-.5,1-.7,1.6-.9.2,0,.4,0,.6-.2h-.1Z" fill="#fef4df"/>
  <path d="M51.2,101.2c.4.2.9,0,1.3,0,.3,0,.5.4.8.6h0c-.6.2-1.3.2-1.9.4-.4.2-1.1.7-1.4.8,0,.2-.3.3-.4.4-.2,0-.3.2-.5,0-.2,0-.3,0-.4-.3h0c.2-.7,1.2-1.2,1.8-1.4.3,0,.6,0,.8-.3h0v-.4Z" fill="#fef4df"/>
  <path d="M35.9,101.6c.5.2,1.3,0,2,.4.2,0,.3.3.3.6h-1c-.5,0-1,.2-1.4.3-.3,0-.5.3-.8.3,0,0-.2.2-.3.3-.3.2-.5.4-.9.3-.2,0-.4,0-.5-.3h0c.3-1,1.9-1,2.5-1.4h0v-.5Z" fill="#fef4df"/>
  <path d="M13,59.7h1.5c0,.5,0,2.9,0,3.2-.5,0-1,0-1.4,0v-3.4h0Z" fill="#9d9991"/>
  <path d="M34.6,52.8h1c0,.5.1,1,.1,1.5,0,.8,0,2.1-.6,2.7-.5-.8-.6-1.7-1.2-2.4.2-.6.3-1.2.7-1.7h0Z" fill="#f7ec13"/>
  <path d="M30.8,51.6c.3,0,.8,0,1.1.2,0,0,.1,0,.2.2,0,0-.1,0-.2,0,.2.3.4.7.6,1-.3,0-.5.2-.8.4-.3,0-.5.3-.8.5-.3-.5-.5-1.1-.7-1.7,0,0,.1-.2.2-.4s.2-.3.5-.4h-.1Z" fill="#9e5024"/>
  <path d="M33.8,49.4h0c-.4.6-.2,1.6-.2,2.2-.5-.2-.9-.3-1.4-.5l-.8-.3c.7-.6,1.5-1.1,2.3-1.5h.1Z" fill="#f7ec13"/>
  <path d="M32.5,53.8h0c.2.4.4.8.6,1.1-.4.3-.9.5-1.4.8h0c-.3,0-.5-.9-.7-1.1.5-.3.9-.5,1.4-.8h.1Z" fill="#faa227"/>
  <path d="M37.4,49.1c.6.2,1.1.5,1.5,1.1-.2.2-.4.4-.6.6-.3.2-.5.4-.8.5v-2.2h-.1Z" fill="#f7ec13"/>
  <path d="M37.8,65.1h.2c0,.2.1.4.2.6,0,.3.2.9,0,1.2h-.3c-.2,0-.4-.3-.6-.5.1-.4.2-.7.3-1.1,0-.2.2-.2.3-.3h-.1Z" fill="#c27237"/>
  <path d="M32.7,52.1c.3,0,.6,0,.9.2.1,0,.2,0,.2.2s-.2.2-.3.3l-.3.4c-.1-.4-.3-.8-.5-1.2h0Z" fill="#5a9a43"/>
</svg>