<?xml version="1.0" encoding="UTF-8"?>
<svg id="Layer_1" xmlns="http://www.w3.org/2000/svg" width="80" height="115" version="1.1" viewBox="0 0 80 115">
  <!-- Generator: Adobe Illustrator 29.4.0, SVG Export Plug-In . SVG Version: 2.1.0 Build 152)  -->
  <defs>
    <style>
      .st0 {
        fill: #4e2e0d;
      }

      .st1 {
        fill: #414042;
      }

      .st2 {
        fill: #638498;
      }

      .st3 {
        fill: #513b28;
      }

      .st4 {
        fill: #5aba47;
      }

      .st5 {
        fill: #c0c2c4;
      }

      .st6 {
        fill: #fff;
      }

      .st7 {
        fill: #d5bc2a;
      }

      .st8 {
        fill: #ec9b4e;
      }

      .st9 {
        fill: #454f53;
      }
    </style>
  </defs>
  <rect class="st6" x="23.8" y="61.571" width="38.944" height="12.373"/>
  <path class="st1" d="M37.3,1.6c6.2-.8,11.4,2.1,15.7,6.2,4.8,3.4,3.9,10.2,1.9,14.9,1.7.5,1.1,2,.4,3.1-.6,5.1,1.1,10.2-2.3,14.7,5.7,4.8,11.7,12.6,9.1,20.4,4.2,2.8,9.6,4.7,13.2,8.2.2,2.5.7,6.2-3,6.1-.2,2,1.1,5.9-1.7,6.3.2,4.1,1,14.9,1.2,19.2-.1,2.2,1.9,9.1-2.4,7-1.8-7.6-1.7-17.7-2.8-25.6-2.2.5-4.7.8-6.9.8-.2,1.9-.9,6.3-1.2,8.2-.4,1.3-.1,3.9-1.1,4.9,16.9,13.4-9,15.7-15,5.1.6-5.5.3-10.9.8-16.5-.4.2-1.8.4-2.2.2-.2,2.9-.5,7.3-.7,10.2-.2,1.2.3,3.2-1.3,3.6,15,13.1-5.5,15.8-13.4,6.9h.3c-.1-.2-.2-.4-.3-.5-.9,2.5.9,7.7-2.2,8.6-.8,0-1.7-.6-1.7-1.4.4-8.7,1-17.5,1.3-26.2-.4,0-1.3-.5-1.6-.8,0,3.2.1,11.1,0,14.1-.2,1.8-3.1,1.5-3.2-.2-.1-3.5,0-12.3-.1-15.8-.3,0-6.1-4-6.4-4.4-.3,2.9-1.3,10.4-1.7,13.4-.8,2.2.4,12.1-4.1,8.9-.9-5.5,2-18.8,2.2-24.7-1.8-1.5-1-5.5-1-7.8-2.7-1.1-3-4.8-2-7.1.5-.6,3.3-.6,4.1-.7v-4.3c-4.1-.5-2.4-5.8-2.8-8.7-1.7-11.9,9.6-4.2,16.5-10.5-.4-.8-.6-1.8-.7-2.7-5.7,0-7.6-8.9-3.3-12C15.7,11,26.5,1.7,37.3,1.6ZM32.9,72.7c9.3-.9,18.8-2.1,28.1-2.9-1.6-1.2-3.2-2.4-4.8-3.6-1.1.5-2.7,2.2-3.7,2.2-1.9-.5-4.4.2-5.7-1.6-2.1-.4-2.2-2.5-1.3-4-.9.2-1.9.4-2.9.4.9,2.7,1.4,9.2-2.2,3.8-2,2.1-5.5,3.3-8.1,1.8-2.2.2-4.3,0-6.3-1.1h0c2.3,1.6,4.7,3.2,7,5h-.1Z"/>
  <path class="st8" d="M19.4,23c2.6-.1,3.4,2.5,4.5,4.3,1.4,1.5,1.9-1.6,1.7-2.6,1.2.5,2.5.8,3.8,1-1.1,9,12.6,8.8,12.5.1h1.8c.3.9.4,1.8.8,2.7-.4-.2-.8-.7-1.3-.5-.5.9,1.3,1.3,1.8,1.8,2.4,4.3-1.8,3.8-4.5,3.7.9,2.2,6.3.9,6.1-1.9,2.7,1,6.3.7,7.9-2.1,3.6,20.5-28.5,22.9-31.3,4.3-5.5.5-7.8-7.5-3.6-10.8h-.2Z"/>
  <path class="st0" d="M36.4,36.6c.4,0,.5.4.5.7,3,2,6.5,1.1,9.5.2,0,3.1-13,1.8-10-.9Z"/>
  <path class="st0" d="M44.7,43.3c1.4,2-6,2.9-6.6,1,.4-.4,1.5.2,2,.3,1.8.3,3.2-.2,4.7-1.2l-.1-.1Z"/>
  <path class="st0" d="M19.7,25.2c1.3.1,3.2,3.2,1.9,3.9-.3-.3-.3-1.5-.9-2.2-.4-.6-2.4-1.1-1-1.8v.1Z"/>
  <path class="st2" d="M22.4,38.4c.9,4,2.8,8.8,6.3,11.4,1.5,0,4.1-2.4,5.7-2.8,1.6,1.1,3.2,2.2,4.7,3.5.9-.4,4.4-2.7,4.8-2.7,1,0,2,1.8,2.8,1.9,1.7-.4,1.9-3.6,2.1-5.1,1.3-1.1,2.6-2.1,3.6-3.5,3.3,2.7,7.8,8.1,9,12.2-2.7-1.5-6.5-1.2-8.7,1,0-2,0-6.2-1.8-7.1.6,2.9,1.8,6.3.8,9.6-1.4.9-2.6,1.7-3.7,2.9-1.7.1-6.7,1.7-7.7.2,2.3-1.6-.8-2.6-.3-.5-.2.3-.5,0-.7-.2-.2-2.3.4-4.9-.2-7h-.3c-.4,1,0,4.2,0,5.4-.9-1.4-4.2-8-5.2-8.4-4.8.4,1.1,6.4,1.7,8.6-1.5.1-2.5.5-4,.9-1.8-1.1-3.5-2.2-5.3-3.2.2-2.3.3-5.2-.7-7.2q-.2,0-.3.1c0,2.1.7,4.6.3,6.9-4.3-2.1-10.5-.3-12.8,4-1.7-8.2,2.2-17.5,10.1-20.9h-.2Z"/>
  <path class="st0" d="M40.7,51.1c.7,0,.7,1.1.4,1.6-1.2.6-1.7-1.4-.4-1.6Z"/>
  <path class="st3" d="M37,2.4c5.2-.4,10.9.7,14.1,5.2,5.6,2.3,5.3,9.1,3.4,13.9.4-6.8-2.7-5.5-4.6-10-6.4,3.3-13.8-.4-20.1,2.3-1.9,1.2-.8,2.8-1.4,4.5-.7,2-2.6,3.4-3,5.4-1.4-.9-4.1-1.6-5.8-1.7-2.9-10.7,7.4-19.3,17.4-19.7v.1Z"/>
  <path class="st2" d="M7.8,69c4.3,2.7,11.4,8.3,15.8,10.7.1.8-.5,4.4.4,4.5.4-.4.2-3.5.2-4.3,15.5-.6,31.9-3,47.4-4.6-.1,1.9,1.1,5.7-1.9,5.7-8.5,1.2-17.1,2-25.6,2.9-13.3,1.1-20.6,4.6-31.6-5.5-4.8-2.6-5.3-4.1-4.8-9.4h.1Z"/>
  <path class="st7" d="M5.4,62.5c5.9,4.5,12.3,8.7,18.6,12.6.2.9-.3,2.2.3,2.9.9,0,.4-2.1.5-2.8,5.7.3,15.6-1.3,21.4-1.8,8-1.3,20.8-1.2,28.4-3.7,0,1.4.7,4.2-1.2,4.5-2.2.5-7.5.9-9.8,1.2-5.6.8-18.1,1.9-23.9,2.5-15.6,1.4-13.5,3.7-26.5-6.1-3.2-2.7-8.9-4.1-7.7-9.3h-.1Z"/>
  <path class="st8" d="M20.9,55.3c2.5-.6,8.6,2.7,9.6,4.6,1.3-.4,4.3-1.5,6-.9,2.7.4,7.8,4.5,4.4,7-.3-1.3-1.7-4.9-3.2-4.2,1,1.5,3.9,4.1,1,5.6,0-1.4-1.3-3.7-2.9-3.5.6,1.5,3.9,3.3.6,4.6,0-1.1-1.2-3-2.4-2.9-.3.5,2.1,2,1.7,3.1-1.7.7-3-1-4.6-.5-5.2-1.2-11.2-1.4-15.8-4.5-5.5-4,1.2-8.3,5.6-8.2v-.2Z"/>
  <path class="st7" d="M12.2,61.1h.2c1.8,4.3,7.9,5.9,12.2,6.3,2.6,1.8,6.4,6,9.4,5.9,4.2-.5,14.6-1.6,18.9-2,1.7-.3,7.1-.6,8.7-1,1.7-.7-4.2-3.8-4.7-4.5,1.9-1,3.9-2.3,4.9-4.3,4.2,2.3,8.7,4.7,12.6,7.4-7.6,2.8-20.7,2.4-28.9,3.8-24.9,2.8-18.8,3.9-39.7-11h0c2.1-.4,4.3-.5,6.4-.7v.1Z"/>
  <path class="st8" d="M49.5,12.3c.4,1.9,2.4,2.7,3.3,4.2,4.3,11.4-5.7,1-9,8.1h-2c-1.3-3.9-10.6-3.3-12.8-.7-6.4-.4,1.4-2.9.3-9.1,6.1-3.2,14,1,20.1-2.6l.1.1Z"/>
  <path class="st0" d="M35.7,19.9c5.1-.2,4.7,2.4-.4,1.8-5.5,1.4-3.4-1.7.4-1.8Z"/>
  <path class="st0" d="M48,19.9c1.1,0,4.4.4,3.5,2-1.7-.1-3.6-.4-5.4-.3-.9-1,1.1-1.6,1.9-1.7Z"/>
  <path class="st9" d="M39.9,84.9h.4c0,.3-.6,11.9-1,12.5-2.8,2.1-8.7,2.6-11.8,1.1-.4,0-1-.2-1.3-.4,0-2.8.6-9.3.8-12.2.7.2,11.5-.7,12.8-1.1l.1.1Z"/>
  <path class="st9" d="M58.6,83.1h.4c-.1.7-1.2,10.9-1.8,12.2-3,1.8-9.2,1.9-12.3.4-3.1-1.6-.2-8-.9-11.2,4.7-.2,9.9-.8,14.6-1.4Z"/>
  <path class="st8" d="M57.2,53.2c4.8-1,5.7,4.7,3.9,7.9-1.7,3.2-5.6,4.5-8.4,6.4-2.6-.6,1.9-3.3,2-4.5-1.5-.1-3.2,2.7-3.7,3.9-.3.6-1.6.6-1.7-.2.1-1.9,2.8-3.4,3.6-4.9-1.9-.2-3.7,3.2-4.3,4.9h0c-3-.3.6-4.6,1.8-5.5-.5-2.1-3.9,3.5-3.8,4.4-3.9-2.1,6-9.3,8.6-9.3,0-.1.1-.1.1-.3-.6-.5-2.1.2-2.8.5.4-2.2,2.7-3.2,4.7-3.4v.1Z"/>
  <path class="st3" d="M43.6,96c1.8.8,4.8,1.7,6.8,1.4.5,1,1.6,2.8,2.9,2.3,1.7-1.5,4.8-2.8,6.7-.6.8.9,2.8,2.8,2.1,4.1-5.1,4.7-15.1.8-18.7-4.3,0-1,0-1.9.2-2.9Z"/>
  <path class="st3" d="M26.2,98.9c1.5.9,3.4,1.2,5.1,1.4,1.3.6,2.1,3.4,4,2.2,3.1-3.7,8.4-.6,8.1,3.7-4.6,4.4-14.3.7-17.5-4.1,0-1,0-2.3.3-3.2Z"/>
  <path class="st8" d="M35.4,22.9c5.8-1,7,3.3,3.8,7.4-2,1.6-5.5,1.3-7.6,0-2.9-3.9-1.6-7.8,3.8-7.4Z"/>
  <path class="st0" d="M37.9,26.4c1.6.4-.6,2.2-1.5,2-1,.2-3.5-.7-2.5-1.8,1.3.8,3,1.5,4-.2Z"/>
  <path class="st8" d="M48.6,22.9c9.8-1.3,5.6,11.5-2.1,7.8-2.1-2.8-2.8-8,2.1-7.8Z"/>
  <path class="st0" d="M50.4,26.3c2.6,1.8-4.7,3.5-4,.6,1.9.4,2.4,1.4,4-.6Z"/>
  <path class="st5" d="M23.6,86.1c.5.2,2.3.2,2.8,0-.5,7.3-1.2,15.1-1.8,22.5-.3,1.2.5,4.4-1.5,4.1-1.7-1,0-8-.2-10,.3-5.5.6-11.1.8-16.6h-.1Z"/>
  <path class="st5" d="M69.7,81.7h.3c.4,4.9.8,13.6,1.2,18.5-.2,2.2,1.1,5.3,0,7.1-2.3.3-1.3-3.6-1.8-5.1-.5-5.8-1.4-14.4-1.9-20.2.4.1,1.9,0,2.3-.3h-.1Z"/>
  <path class="st5" d="M8.8,76.7c.5.3,1.9,1.4,2.3,1.5-1,2.1-1.5,27.4-4.7,21.9.3-4.8,2-18.4,2.5-23.4h-.1Z"/>
  <path class="st7" d="M15.1,42.3h.6c-3.2,3.7-4,8.6-4.5,13.2-.7.1-1.5.4-2.1,0,.5-3.9-.7-8.2.4-12,1-1,4.2-.9,5.6-1.2Z"/>
  <path class="st2" d="M23.3,38.2c2,4.1,6.3,6.6,10.5,8.2-1.8.6-3.2,1.9-4.8,2.7-3-3-5.2-6.7-5.7-10.9Z"/>
  <path class="st5" d="M18.8,83.7c.4.2,1.5,1,1.9,1v10.4c-.2,1.1.8,4.5-.8,4.5-2-.5-.7-4.7-1-6.2v-9.7h-.1Z"/>
  <path class="st7" d="M16.9,40.7h.4c-.2.3-.6.6-.9.8-12.3-.1-6.5,5.7-8.3,13.7-2.2-2.1-.8-8.5-1-11.6,1.3-3.6,6.7-2,9.7-2.8l.1-.1Z"/>
  <path class="st3" d="M43.5,99.9c3.9,4.7,14,8.9,18.9,3.5-.8,7.6-19.3,2.1-18.9-3.5Z"/>
  <path class="st3" d="M25.8,102.8c3.5,4.9,13.5,8.5,18,3.5.2,7.2-19.2,2.2-18-3.5Z"/>
  <path class="st3" d="M38.3,98.9c.5.3,1.1,1.2,1.6,1.4-1,0-1.9-.1-2.9.2-1,.3-2.3,2-3,1.4-.7,0-1.5-1.1-1.7-1.7,1.2.2,5.2-.7,6-1.3Z"/>
  <path class="st4" d="M35.3,53.6h.1c1,1.6,1.9,3.5,2.8,5.1-.6-.2-1.4-.5-2.1-.6-.8-1-1.7-2.7-2.2-3.9.4-.3.9-.5,1.4-.7v.1Z"/>
  <path class="st8" d="M35.6,46.9c2.5.4,5.2,1,7.7.4-1.3.8-2.5,1.8-4,2.3-1.1-1-2.5-1.9-3.8-2.7h.1Z"/>
  <path class="st3" d="M56.6,96.3c.6,0,1,.8,1.6.9-1.2.2-2.7.4-3.8,1.1-1.2,1.3-2.6.6-3.1-.9.9.3,4.6-.5,5.3-1.1Z"/>
  <path class="st2" d="M47.9,45.1h.1c.2.9-.8,3.2-1.2,3.9-.8-.8-1.6-1.6-2.6-2.1,1.3-.4,2.5-1.1,3.7-1.9v.1Z"/>
  <path class="st5" d="M11,56.3h.2c.4,1.4,0,2.7.9,4-.7,0-1.6.1-2.2.1v-4h1.1v-.1Z"/>
  <path class="st8" d="M46.8,60.8h.1c0,.3-.7,1-1,1.2-1.4.2-3.8,1.2-4.3-.7,1.7,0,3.5-.3,5.2-.6v.1Z"/>
  <path class="st3" d="M22.6,23.7c1.5-.2,3.6,1.9,1.9,2.9-1-.4-1.2-2.1-1.9-2.9Z"/>
  <path class="st4" d="M33.9,51.9c.7-.2,1,.6,1.2,1.1-.6,0-1,.3-1.3.8-.2-.2-.7-1.1-.7-1.4.2-.3.5-.4.9-.5h-.1Z"/>
  <path class="st8" d="M42.2,65.5c.2.4.6,2.3,0,2.6-.6-.3-.9-.9-1.3-1.5.5-.3.8-.7,1.2-1.1h.1Z"/>
  <path class="st8" d="M33,50.1c.5,0,.8.8,1.1,1.1-.5,0-1,.3-1.4.7-.2-.4-.4-.8-.6-1.2.3-.3.6-.5.9-.6Z"/>
  <path class="st3" d="M54.3,23.1c.9,0,1.2,1.1.8,1.7h0c-.2-.6-.5-1.2-.8-1.7Z"/>
</svg>