<?xml version="1.0" encoding="UTF-8"?>
<svg id="Layer_1" xmlns="http://www.w3.org/2000/svg" version="1.1" viewBox="0 0 80 115">
  <!-- Generator: Adobe Illustrator 29.1.0, SVG Export Plug-In . SVG Version: 2.1.0 Build 142)  -->
  <rect x="24.8" y="61.9" width="34.5" height="13" fill="#fff"/>
  <path d="M35.2,1.6c2.1-.3,5.4.8,7.2,1.7,6.8,3.6,9.6,10.1,10.1,17.5.1,2-.1,4.1.2,6.2.4,2.4,2.2,4.5,2.4,6.9,0,.1,0,.2,0,.3,0,.1,0,.2,0,.3,0,.1,0,.2,0,.3,0,.1,0,.2,0,.3s0,.2,0,.3c0,0,0,.2,0,.3,0,0,0,.2,0,.3s0,.2,0,.3c-.4,1.2-1.4,2.4-1.2,3.7.3,1.3,1.4,2.4,1.8,3.8.7,2.4-.7,4.1-1.7,6,1.7,3,3.1,6,2.1,9.5,2.3,1.1,4.5,2.4,6.8,3.6,2.2,1.1,4.4,2.3,6.6,3.5,1.1.6,2.2,1.2,3.3,1.8.6.4,1.1.7,1.3,1.4.2.9,0,3.7-.4,4.5-.4.7-1.2.9-1.9,1.1,0,1.1,0,2.3-.3,3.4-.2.8-.5,1.3-1.2,1.8,0,.8.1,1.5.2,2.3l.4,4.3,1.1,13.6.3,3.7c0,.8.2,1.6.2,2.4,0,.4,0,.7-.3,1-.3.3-.7.6-1.1.6,0,0,0,0,0,0,0,0,0,0,0,0,0,0,0,0,0,0,0,0,0,0,0,0,0,0,0,0,0,0,0,0,0,0,0,0s0,0,0,0c0,0,0,0,0,0,0,0,0,0,0,0,0,0,0,0,0,0,0,0,0,0,0,0,0,0,0,0,0,0s0,0,0,0c0,0,0,0,0,0,0,0,0,0,0,0,0,0,0,0,0,0-.3-.3-.5-.6-.5-1.1-.1-.8-.2-1.7-.2-2.5-.1-1.6-.3-3.2-.4-4.8l-1.7-18.4c-2.9.3-5.8.7-8.7,1.1-.4,4-.9,8-1.5,12-.2,1.4-.3,2.9-.7,4.3,0,.2-.2.4-.4.6-.2.2-.6.4-.9.4.4.6,1.2,1.1,1.7,1.6,1.2,1,2.5,1.9,3.6,3,.8.9,1.4,2,1.3,3.2,0,.7-.4,1.3-.9,1.8-1.3,1.1-3.4,1.3-5.1,1.2-.2,0-.5,0-.7,0-.2,0-.5,0-.7-.1-.2,0-.5-.1-.7-.2-.2,0-.5-.1-.7-.2-1.6-.5-6.6-2.9-7.6-4.1.3.6.8,1.1,1.2,1.6.5.8.7,1.9.5,2.8-.2.8-.8,1.4-1.4,1.8-1.9,1.2-4.4,1-6.5.5-2.1-.5-4-1.6-5.7-2.9-.4-.3-1-.7-1.3-1.2,0,0,0,0,0,0-.4-.2-.8-.9-1-1.2-.6-1.3.2-3.4.7-4.6.2-.5.5-1,.7-1.6h0c-.2,0-.4-.3-.5-.5-.2-.2-.4-.4-.4-.7-.2-1.2,0-3.8,0-5.1.1-3.2.3-6.3.3-9.5,0,0,0,0-.1,0-.4.2-3,.4-3.4.3-.3,3.3-.5,6.6-.7,9.9l-.6,8.6c-.1,1.9-.3,3.8-.4,5.7,0,.9,0,2.1-.3,2.9,0,.3-.2.6-.5.8-.3.3-.8.4-1.2.4-.5,0-.9-.2-1.2-.6-.3-.3-.4-.7-.4-1.1,0-1,.1-2.1.2-3.1l.3-5c.4-6.4.8-12.7,1.3-19.1-.4,0-10.1-6.5-11.1-7.3-.6,5.4-1.2,10.9-1.9,16.3l-.6,4.8c-.1.9-.1,1.9-.3,2.8,0,.4-.3.8-.6,1.1-.3.3-.8.3-1.2.3-.4,0-.9-.3-1.1-.6,0,0,0,0,0,0,0,0,0,0,0-.1s0,0,0-.1c0,0,0,0,0-.1,0,0,0,0,0-.1,0,0,0,0,0-.1,0,0,0,0,0-.1,0,0,0,0,0-.1,0-1.1.2-2.2.3-3.3l.6-5.5,1.9-17.2c-.1-.1-.2-.2-.3-.3-.8-1-.4-4.8-.2-6.1-.5-.3-1.2-.7-1.4-1.2-.2-.8-.2-4.1.2-4.8.2-.4.7-.4,1.1-.5,0-.9,0-1.9,0-2.8-.7-.2-1.4-.3-1.9-.8-.7-.6-.9-1.6-.9-2.5-.1-1.8,0-3.7,0-5.5,0-1.3-.1-2.9,0-4.2,0-.4.3-.9.6-1.2.9-1,3.1-1,4.4-1.1-1.9-4.1,1.5-5,1.7-7.1.1-1.1-.9-2.6-1-3.9-.2-2.3,1.7-4,2.3-6.1.5-1.8.5-3.8.6-5.7.4-4.7,1.7-9.6,4.7-13.3,2.5-3.1,6.3-5.5,10.3-6.1,1.2-.1,2.2,0,3.4,0,.7,0,1.4-.2,2.1-.3ZM39.6,63.2c.4,1,1.5,3.5,1.2,4.5,0,.2-.1.2-.3.3-.7,0-1.8-1.1-2.3-1.6-.2.2-.4.5-.7.5-.3,0-.6,0-.8.2,0,0-.2.2-.2.3-.3.2-.9,0-1.3,0-.2.3-.4.6-.8.7-.2,0-.5,0-.7,0-.6-.2-1.1-.6-1.7-.9-1.1-.4-2.2-.4-3.3-1-.7.1-1.5,0-2.2,0,.7.5,1.4.9,2.1,1.4,1,.7,2,1.4,3.1,2.1,1.1.8,2.5,1.9,3.7,2.5,2-.1,4-.5,5.9-.6l17.2-1.9-4.6-3.1c-.8-.6-1.7-1.1-2.5-1.7-1,.9-2,2-3.4,2.1l-.6-.3c-.5.2-.9.3-1.4.1-.2-.1-.4-.3-.6-.5-.3.2-.7.4-1,.3-.3-.1-.6-.5-.9-.7-.5-.3-.9.3-1.2-.5-.2-.3-.3-.7-.3-1.1-.3-.2-.7-.5-.8-.8,0-.2,0-.4,0-.5,0,0,0,0-.2,0-.6,0-1.1.1-1.7.2ZM12.6,61.7c.4,0,.8-.1,1.2-.1h0c-.5-.7-.7-1.2-.9-1.9,0-.2-.1-.5-.3-.7-.2.9,0,1.8-.1,2.7ZM45,83.5c-.4,0-1.2.3-1.5.1,0,1.2-.2,2.4-.3,3.6-.2,2.2-.4,4.3-.7,6.5l-.4,3.7c0,.8-.1,1.6-.3,2.4,0,.2-.1.4-.3.6-.2.2-.7.5-1,.6.3.6,1.8,3,2.4,3.2.2.3.9,1,1.2,1.1,0,0,0,0,0,0-.7-2.2.5-4.3,1.1-6.3-.3,0-.5-.2-.6-.5-.1-.2-.2-.4-.3-.7-.2-1.8,1.2-13.8.9-14.2h-.2Z" fill="#414042"/>
  <path d="M36.7,8.5c1.1.1,2,.4,3,.8,3.2,1.5,5.4,4.8,7.4,7.6.7,1,1.5,2.1,1.9,3.2.5,1.6.3,8.4,0,10.1-.2,1.3-.6,2.6-1.2,3.8,0,0,0,.2-.1.3,0,0,0,.2-.1.2,0,0,0,.2-.1.2,0,0,0,.2-.1.2,0,0,0,.2-.1.2,0,0-.1.2-.2.2,0,0-.1.2-.2.2,0,0-.1.2-.2.2,0,0-.1.1-.2.2,0,0-.1.1-.2.2,0,0-.1.1-.2.2,0,0-.1.1-.2.2,0,0-.1.1-.2.2,0,0-.1.1-.2.2,0,0-.1.1-.2.2,0,0-.1.1-.2.2,0,0-.1.1-.2.2,0,0-.1.1-.2.2,0,0-.1.1-.2.2,0,0-.1.1-.2.2,0,0-.2.1-.2.2,0,0-.2.1-.2.2s-.2.1-.2.2c0,0-.2,0-.2.1s-.2,0-.2.1c0,0-.2,0-.2.1,0,0-.2,0-.2.1,0,0-.2,0-.3.1,0,0-.2,0-.3.1,0,0-.2,0-.3.1,0,0-.2,0-.3.1,0,0-.2,0-.3,0-4.2,1.4-8.2.8-12.2-1.1-2.6-1.3-4.6-3.5-5.9-6-.2-.4-.3-.9-.5-1.3,0-.2-.2-.5-.4-.5h.1s0,0-.1,0c-.3,0-1.1.8-2,.5-.9-.2-1.6-1.1-2.1-1.9-.7-1.3-.8-2.8-.4-4.1.2-.6.4-1.2,1-1.5,1.3-.7,1.9,1.1,2.8,1.4,0,0,.1,0,.2,0,0,0,0,0,0,0,0-.5-.6-1.1-.9-1.4,1.3-1,2.5-2.1,3.7-3.1,2.9-2.4,10.9-8.8,12.1-12.1Z" fill="#f0d4aa"/>
  <path d="M32.7,23.3s0,0,.1,0c.4,0,.7,0,1,.4.4.4.5,1,.6,1.5,0,.6-.1,1.3-.6,1.7-.2.2-.5.4-.8.4-.4,0-.7-.2-1-.5-.3-.5-.4-.9-.5-1.5-.5-.1-1.1,0-1.5-.5,0,0,0-.1,0-.2.5-.2,1.1,0,1.5.1.2-.7.4-1.1,1.1-1.4Z" fill="#414042"/>
  <path d="M43.7,23.2c.3,0,.5,0,.7,0,.5.2.7.7.8,1.2.2,0,.4-.2.7-.2.2,0,.3,0,.4.1h0c-.3.5-.6.5-1,.6,0,.6-.1,1.1-.4,1.6-.1.1-.3.3-.4.4-.3.2-.6.2-.9.2-.4,0-.6-.4-.8-.7-.3-.6-.3-1.4-.1-2,.2-.6.5-.9,1-1.1Z" fill="#414042"/>
  <path d="M33.3,31.7c.4.1.7.7,1.1.9.3.2.7.3,1,.4,1.9.7,4.3.9,6.2,0,.5-.2,1.3-.9,1.6-1,.1,0,.1,0,.2,0,0,0,0,.2,0,.3,0,.4-.4.5-.6.7-.9.6-1.8.9-2.8,1.1-2.5.4-4.8-.2-6.9-1.7-.2.1-.4.2-.6.3h0c0-.1,0-.2,0-.2,0-.4.5-.7.9-.9Z" fill="#414042"/>
  <path d="M39.7,26.4c0,0,.1,0,.2,0,.6.2,1.2.8,1.5,1.3.3.5.4,1.1.2,1.6-.2.5-.5.9-1,1.1-.9.4-1.8.2-2.7,0,0,0-.2-.1-.3-.2-.2-.2-.2-.2-.2-.4.4-.2,1.1.2,1.5.2.5,0,1.3,0,1.7-.4.2-.2.4-.4.4-.7.1-1.1-.9-1.3-1.4-1.9,0-.2,0-.4,0-.5Z" fill="#414042"/>
  <path d="M33.3,18.4c.4,0,1.3-.1,1.7.1.2.1.2.2.2.4h0c-.1.3-.5.2-.8.2-1.8,0-2.9.4-4.4,1.5-.3.2-.6.6-.9.7-.2,0-.2,0-.4,0h0c0-.3.1-.5.3-.7.2-.2.5-.4.7-.6,1.1-.9,2.2-1.4,3.6-1.6Z" fill="#414042"/>
  <path d="M42.9,18.4c1.1,0,2.2.2,3.2.7.5.3,1.3.8,1.5,1.4v.2c-.2,0-.3,0-.4,0-1-.9-2-1.5-3.4-1.6-.3,0-.7,0-1,0-.2,0-.2,0-.3-.2,0,0,0,0,0-.1,0-.2.3-.3.4-.3Z" fill="#414042"/>
  <path d="M19.7,25.6c.3,0,.5,0,.7.2.5.3.8.9.9,1.4,0,.3,0,.6-.1.9-.6-.2-.4-1-.8-1.5-.2-.3-.7-.3-.9-.5,0-.2,0-.3.2-.4Z" fill="#414042"/>
  <path d="M35.2,2.5c2.3-.3,4.8.5,6.8,1.5,6.5,3.4,9.2,9.8,9.7,16.8.2,2.1-.1,4.3.3,6.4.4,2.3,2.1,4.4,2.3,6.7.2,2.3-1.9,4-1.4,6.1.3,1.4,1.4,2.4,1.8,3.8.6,2-.5,3.5-1.4,5.2-.4-.7-.9-1.4-1.4-2.1,2.5-3.8-1.4-5.5-1.5-8.3,0-2.1,1.5-3.2,1-5.7-.1-.5-.5-2-.9-2.3,0,0-.1,0-.2,0,0,.5.6,2.1.7,3.1,0,2.1-1.6,3.7-1,5.9.4,1.4,1.5,2.4,1.9,3.8.3,1.1.2,2.1-.4,3.1h0c-.7-.9-1.4-1.8-2.2-2.6,0-1.6-1-2.5-1.4-4-.2-.8-.1-1.5-.1-2.3,0-.2,0-.3-.2-.5h-.1s0,0,0,0c-.1.2-.2.6-.2.8-.3,2.1,1,3.6,1.5,5.5-.9-.8-1.9-1.6-3-2.2.2-1.1,0-1.9-.5-2.8.5-.6,1.1-1.1,1.6-1.7,1.9-2.4,2.7-5.3,3-8.4.1-1.7.2-6.6-.2-8-.5-1.8-4-6.4-5.3-8-1.9-2.2-4.5-4.2-7.5-4.5,0-.3,0-.6,0-.8,0-.4-.1-1.3-.5-1.6-.1,0-.2,0-.4,0-.2.3.3,1.4.2,2-.1.9-.6,1.7-1.1,2.4-1.7,2.3-4.1,4.3-6.2,6.2-1.2,1.1-2.4,2.2-3.7,3.2.8-.9,4.8-6.9,4.8-7.8,0-.1,0-.1-.1-.2,0,0,0,0,0,0-.2,0-.4.4-.5.6-.6.9-1.1,1.8-1.6,2.7-.6,1-1.3,2-2,3-1.8,2.6-3.1,3.9-5.4,5.9-.6-.3-1.2-.4-1.9-.2-.6.2-1.1.8-1.3,1.3-.6,1.3-.7,3.1-.1,4.5.4,1.2,1.4,2.4,2.5,2.9.8.4,1.6.3,2.4,0,.6,1.5,1.5,3,2.6,4.3.6.7,1.2,1.3,1.8,2,1.3,1.7,2.1,3.6,1.9,5.8,0,.3,0,.7-.1,1.1-.3,1.2-.7,2.5-.7,3.7,0,.4,0,.8.1,1.2.1.4.6,1.3.6,1.6-.2.1-.4,0-.6,0-.6-.1-.9-.5-1.2-1-.6-.9-.7-2.1-.4-3.2.1-.5.3-.9.4-1.4,0,0,0-.1,0-.2,0,0,0-.1,0-.2,0,0,0-.1,0-.2,0,0,0-.1,0-.2,0,0,0-.1,0-.2,0,0,0-.1,0-.2,0,0,0-.1,0-.2,0,0,0-.1,0-.2,0,0,0-.1,0-.2,0,0,0-.1,0-.2,0,0,0-.1,0-.2,0,0,0-.1,0-.2,0,0,0-.1,0-.2,0,0,0-.1,0-.2,0,0,0-.1-.1-.2,0,0,0-.1-.1-.2-.2-.2-.4-.6-.7-.6,0,.1,0,.2,0,.3,0,.2.2.3.3.5.3.5.5,1,.6,1.6.2,1.2-.5,2.4-.6,3.6,0,1.3.4,2.2,1.3,3.1-.3-.1-.6-.2-.9-.4-2.4-1.6-.8-4.4-1.9-6.5-.8-1.6-2.4-2.2-2.7-4.1-.3-2,.7-4,.3-5.9,0-.3-.2-.6-.4-.7,0,0,0,0-.2,0,0,.4.2,1,.1,1.6,0,1.3-.4,2.5-.6,3.8-1.7,1.2-3.5,2.9-4.4,4.8-.3-.3-.5-.6-.7-1-1-2.2,1.2-4,1.9-5.9.7-1.9-.4-3.3-1-5-.2-.5-.2-1.1-.4-1.5h0c-.2.2-.2.4-.3.7,0,.4.2.8.3,1.2.4,1,1,1.9,1.1,3,.2,2.5-2.5,4-2.3,6.6,0,.9.5,1.6,1.2,2.2-.6,1-1.1,2.1-1.5,3.2-.2.6-.3,1.3-.6,1.8,0,.2-.3.3-.4.4-.4.2-.8.2-1.2,0-.5-.2-.7-.4-1-.9.6-.2,1.2-.5,1.5-1.1.9-1.6-.2-3.2-.6-4.8-.7-2.5.7-3.1,1.7-4.9.8-1.5-.1-2.7-.5-4.2-.8-2.7,1.6-4.5,2.2-6.9.4-1.7.4-3.4.5-5.1.3-3.7,1.1-7.4,2.9-10.7,2.1-3.7,5.6-6.8,9.7-7.9,1.3-.4,3.9-.9,5.1-.2.7-.3,1.3-.5,2-.5Z" fill="#f0b865"/>
  <path d="M33.4,4.3c0,0,.1,0,.2,0,.3,0,.5,0,.7.2h0c-.3.5-1,.4-1.5.5-.4,0-.7.3-1.1.4-.2,0-.3.1-.5.2-.1,0-.3.2-.4.2s-.3.2-.4.3c-.1,0-.3.2-.4.3-.1,0-.3.2-.4.3-.1.1-.3.2-.4.3s-.2.2-.4.3c-.1.1-.2.2-.3.4-1.1,1.2-1.9,2.6-2.8,3.9-2,3.2-4,6.6-7.1,8.9,0,0-.2.1-.3.2-.2,0-.2,0-.4,0,0-.5,1.3-1.4,1.7-1.8,2.9-2.9,4.7-6.6,7.1-9.9,1.6-2.2,3.8-4.3,6.6-4.8Z" fill="#414042" opacity=".4"/>
  <path d="M36.1,3.7c3.1-.2,5.9.9,8.2,2.8,1,.8,4.5,4.3,4.5,5.6,0,.1,0,.2-.1.3-.2,0-.2,0-.3-.2-.4-.9-1.1-1.8-1.7-2.6-1.8-2.2-4.7-4.7-7.6-5.2-1.1-.2-2.1-.1-3.2-.2-.2,0-.5,0-.7-.2h0c.2-.2.5-.3.7-.3Z" fill="#414042" opacity=".4"/>
  <path d="M44.7,38.9s0,0,0,0c.3.2.5,1,.5,1.4.2,2.2-3.3,4.3-4.9,5.3-.4.2-1,.4-1.3.8,0,.2,0,.2,0,.3.2,0,.2,0,.4,0,1.6-.4,5.3-3.2,6.1-4.7,1.3.7,2.5,1.8,3.5,2.8,2.8,2.9,6.4,8.1,6.3,12.4,0,2.1-.8,3.7-2.3,5.1,0-.6,0-1.2-.3-1.8-.5-1.1-1.3-1.8-2.4-2.2-1.5-.6-3-.5-4.5.2.2-.6.6-1.1,1.1-1.6.8-.9,2.1-1.8,3.3-1.9.4,0,.9.1,1.3,0,.2,0,.2,0,.3-.2v-.2c-.1-.1-.2-.2-.4-.3-1.1-.4-2.3.2-3.3.6.2-1.2.1-2.4,0-3.6,0-.7-.5-3.2-1.1-3.6-.1,0-.1,0-.3,0-.2.2-.1.4,0,.7,0,.1,0,.3.1.4,0,.1,0,.3.1.4,0,.1,0,.3.1.4,0,.1,0,.3,0,.4,0,.1,0,.3,0,.4,0,.1,0,.3,0,.4,0,.1,0,.3,0,.4,0,.1,0,.3,0,.4,0,.1,0,.3,0,.4,0,.1,0,.3,0,.4,0,.1,0,.3,0,.4,0,.1,0,.3,0,.4s0,.3,0,.4c0,.1,0,.3,0,.4,0,.1,0,.3,0,.4,0,.1,0,.3,0,.4-.7.6-1.5,1.3-1.9,2.1-.5,1-.4,1.3-1.3,2.2l-6.5.6c-.6-1-1.2-2.1-1.8-3.2-.9-1.7-1.9-3.4-2.9-5.1-.4-.7-.7-1.5-1.2-2.1-.2-.2-.4-.4-.7-.5-.4-.1-.9,0-1.2.1-.3.1-.5.3-.6.6-.1.4,0,.9,0,1.3.3.9.9,1.6,1.3,2.4,1,1.8,2.1,3.5,3.1,5.3-1,0-1.8,0-2.7.4-.6-.6-1.3-.7-2.1-.8-.8-1.3-2.7-2.1-4.1-2.7-.3-.1-.6-.3-.9-.4,0-.9.3-2.9.2-3.7,0-.2,0-.4-.2-.5,0,0-.1,0-.2,0-.3.3-.5,3.4-.5,4-1-.3-2.1-.6-3.1-.5-.4,0-1.1.1-1.4.5,0,0,0,.1,0,.2.3.2,1.6,0,2.1,0,2.1,0,6.2,1.7,7.6,3.3-1.2.7-2.2,1.7-2.7,3-.5,1.2-.5,2.5,0,3.7-.3,0-.5,0-.8,0-.3,0-.5,0-.8,0-2.9-.2-7.4-1.7-9.4-4-1.8-2.2-1.8-5.5-1.5-8.1.5-5.5,2.6-9.9,6.8-13.4.4,3.3,2.3,3.2,3,5.3.6,1.6-.3,3.2.8,5.1.5.8,1.5,1.5,2.4,1.7.7.2,1.9.3,2.5-.1.2-.1.3-.2.3-.5,0-.3-.3-.6-.5-.9-1.2-1.7-.3-3.9,0-5.8,1.2.5,2.5,1.1,3.7,1.5.6.2,1.9.7,2.5.5,0,0,0,0,0-.1,0-.2-.4-.3-.6-.4-.9-.4-1.8-.6-2.7-1-.9-.4-1.8-.8-2.8-1.1.1-1.2,0-2.3-.3-3.4,1.3.9,2.6,1.7,3.9,2.4,1.3.8,2.7,1.5,4,2.2.2.1.7.4,1,.3.9-.4,2.6-3.9,2.9-4.9,1.6-.3,3-1.1,4.3-2Z" fill="#e78b2c"/>
  <path d="M9.9,69.1c1.2.7,2.4,1.5,3.6,2.2,2.6,1.7,5.2,3.4,7.8,5.1,1.5,1,3.3,2.4,5,3,.8.3,1.8.3,2.6.2,2-.1,4-.4,6-.6l10.5-1.1,16.3-1.8c3-.3,6-.7,9-1-.1,1.3,0,3.2-.7,4.3-.4.3-.9.4-1.5.5-2.6.4-5.2.7-7.8,1-4.7.6-9.3,1.1-14,1.6-4.2.5-8.4,1-12.7,1.4-1.9.2-7,1-8.6.6-1.1-.2-13.1-8.3-14.7-9.5-.4-.3-.7-.6-1-1,0-1.6,0-3.2.1-4.8Z" fill="#5aba47"/>
  <path d="M26.4,80c.1,0,.2,0,.2.1,0,.1,0,.2,0,.3,0,.5,0,2.6-.3,3-.1,0-.2,0-.3-.1,0,0,0-.1,0-.2-.1-.6,0-2.6.4-3.1Z" opacity=".3"/>
  <path d="M55.7,59.9c1.1.8,3.3,1.8,4.6,2.5,3,1.6,5.9,3.1,8.8,4.7,1.1.6,3.1,1.5,3.9,2.4,0,.2,0,.2,0,.4-.2.2-.6.3-.9.4-.8.2-1.6.2-2.4.3l-4.2.4-12.8,1.3-16.1,1.7c-2.5.3-5.1.6-7.7.8-.5,0-1.1,0-1.6-.1-1.7-.4-5.2-3-6.8-4l-5.3-3.4c-1.4-.8-2.8-1.7-4.2-2.6-.7-.5-1.8-.9-2.4-1.5,0-.2,0-.2,0-.4.2-.2.4-.2.6-.3.6-.1,1.3,0,1.9-.1,1.1,0,2.2-.1,3.2-.2.2.2.4.4.6.6,2.5,2.1,7.4,3.7,10.7,3.4,1.4,1.2,3.7,2.7,5.4,3.8,1.1.8,3.1,2.3,4.3,2.9,1.7-.2,3.3-.4,5-.5l12.8-1.4,4.1-.5c.6,0,1.3,0,1.9-.2.2,0,.5-.1.7-.3,0,0,0,0,0-.2-.5-.7-1.6-1.2-2.3-1.7-1.7-1.2-3.5-2.5-5.3-3.7.3-.5.6-1,.8-1.5,1.3-.7,1.9-1.9,2.7-3.1Z" fill="#d5bc2a"/>
  <path d="M8.6,63.9c2.5,1.7,5.1,3.2,7.7,4.8l4.9,3.2c1.7,1.1,4,2.9,5.9,3.4.6.2,1.4.2,2,.1,2.3-.1,4.5-.5,6.8-.7l13.3-1.4,15.2-1.6c2.4-.3,4.9-.4,7.3-.8.5,0,.9-.2,1.3-.4,0,1,0,2.4-.5,3.2-.2.2-.5.3-.7.4-.6.2-1.3.2-2,.3l-4.2.5c-5,.6-9.9,1.1-14.9,1.6l-14.6,1.6-5,.5c-1,.1-1.9.2-2.9.3-.8,0-1.7-.1-2.4-.5-2.7-1.5-5.3-3.3-7.8-5-1.7-1.1-3.3-2.2-5-3.2-1.3-.8-2.7-1.7-4-2.6-.2-.1-.5-.3-.5-.5,0,0,0,0,0,0-.1-.7,0-2.4,0-3.1Z" fill="#d5bc2a"/>
  <path d="M26.8,76c0,0,.1,0,.2,0,0,0,.1.1.2.2.2.5,0,1.5-.1,2-.2,0-.2,0-.3-.1-.2-.6,0-1.5,0-2.1Z" opacity=".3"/>
  <path d="M56.8,82.1h.2c.1.2,0,.5,0,.7-.3,3.3-.8,6.6-1.3,9.9-.2,1.7-.4,3.5-.7,5.2,0,.2,0,.5-.3.6,0,0,0,0,0,0-1.2.9-4,.8-5.5.7-.7,0-2.7-.3-3.1-.8,0,0-.1,0-.2,0-.4-.1-.8-.5-.9-.9,0-1.7.2-3.5.3-5.2l.6-9,10.9-1.3Z" fill="#7b7b70"/>
  <path d="M42.5,83.7c.2,0,.2,0,.3.2,0,.8-1.5,15.3-1.8,16-.9.9-3.6,1-4.8,1-.9,0-3.1-.2-3.8-.8,0,0-.1,0-.2,0-.4-.2-.7-.4-.9-.8-.1-1.5,0-3,0-4.5,0-3.3.2-6.6.3-9.9,0,0,.1,0,.2,0,.5,0,10.4-1.1,10.6-1.2Z" fill="#7b7b70"/>
  <path d="M40.1,70s0,0,0,0c0,0,0,0,0,0,0,0,0,0,0,0,0,0,0,0,0,0,0,0,0,0,0,0,0,0,0,0,0,0,0,0,0,0,0,0,0,0,0,0,0,0,0,0,0,0,0,0,0,0,0,0,0,0,0,0,0,0,0,0,0,0,0,0,0,0,0,0,0,0,0,0,0,0,0,0,0,0,0,0,0,0,0,0,0,0,0,0,0,0s0,0,0,0c0,0,0,0,0,0,0,0,0,0,0,0,0,0,0,0,0,0,0,0,0,0,0,0,0,0,0,0,0,0,0,0,0,0,0,0,0,0,0,0,0,0,0,0,0,0,0,0,0,0,0,0,0,0,0,0,0,0,0,0,0,0,0,0,0,0,0,0,0,0,0,0,0,0,0,0,0,0s0,0,0,0c0,0,0,0,0,0,0,0,0,0,0,0s0,0,0,0c0,0,0,0,0,0,0,0,0,0,0,0,0,0,0,0,0,0,0,0,0,0,0,0,0,0,0,0,0,0,0,0,0,0,0,0,0,0,0,0,0,0,0,0,0,0,0,0,0,0,0,0,0,0,0,0,0,0,0,0,0,0,0,0,0,0,0,0,0,0,0,0,0,0,0,0,0,0,0,0,0,0,0,0,0,0,0,0,0,0s0,0,0,0c0,0,0,0,0,0,0,0,0,0,0,0,0,0,0,0,0,0s0,0,0,0c0,0,0,0,0,0,0,0,0,0,0,0Z" fill="#414042"/>
  <path d="M51.9,68.3s0,0,0,0c0,0,0,0,0,0,0,0,0,0,0,0,0,0,0,0,0,0,0,0,0,0,0,0s0,0,0,0c0,0,0,0,0,0,0,0,0,0,0,0,0,0,0,0,0,0,0,0,0,0,0,0,0,0,0,0,0,0,0,0,0,0,0,0,0,0,0,0,0,0,0,0,0,0,0,0,0,0,0,0,0,0,0,0,0,0,0,0,0,0,0,0,0,0,0,0,0,0,0,0,0,0,0,0,0,0,0,0,0,0,0,0,0,0,0,0,0,0,0,0,0,0,0,0,0,0,0,0,0,0,0,0,0,0,0,0,0,0,0,0,0,0,0,0,0,0,0,0,0,0,0,0,0,0,0,0,0,0,0,0,0,0,0,0,0,0,0,0,0,0,0,0,0,0,0,0,0,0,0,0,0,0,0,0,0,0,0,0,0,0,0,0,0,0,0,0,0,0,0,0,0,0,0,0,0,0,0,0,0,0,0,0,0,0,0,0,0,0,0,0,0,0,0,0,0,0,0,0,0,0,0,0,0,0,0,0,0,0,0,0,0,0,0,0,0,0,0,0,0,0,0,0,0,0,0,0,0,0,0,0,0,0,0,0,0,0,0,0,0,0,0,0,0,0,0,0,0,0,0,0,0,0,0,0,0,0,0,0,0,0,0,0,0,0,0,0,0,0,0,0,0,0,0,0,0,0,0,0,0,0,0,0,0,0,0,0,0,0,0,0,0,0,0,0,0,0,0,0Z" fill="#414042"/>
  <path d="M43.7,69.6s0,0,0,0c.2,0,.3,0,.5.2,0,.2,0,.4-.2.6,0,0,0,0,0,0-.2,0-.3,0-.5-.3,0-.2,0-.3.2-.5Z" fill="#414042"/>
  <path d="M50.7,66.9s0,0,0,0c0,0,0,0,0,0,0,0,0,0,0,0,0,0,0,0,0,0s0,0,0,0c0,0,0,0,0,0,0,0,0,0,0,0,0,0,0,0,0,0,0,0,0,0,0,0,0,0,0,0,0,0,0,0,0,0,0,0,0,0,0,0,0,0,0,0,0,0,0,0,0,0,0,0,0,0,0,0,0,0,0,0s0,0,0,0c0,0,0,0,0,0,0,0,0,0,0,0,0,0,0,0,0,0,0,0,0,0,0,0,0,0,0,0,0,0,0,0,0,0,0,0,0,0,0,0,0,0,0,0,0,0,0,0,0,0,0,0,0,0,0,0,0,0,0,0,0,0,0,0,0,0,0,0,0,0,0,0,0,0,0,0,0,0,0,0,0,0,0,0,0,0,0,0,0,0s0,0,0,0c0,0,0,0,0,0,0,0,0,0,0,0,0,0,0,0,0,0,0,0,0,0,0,0,0,0,0,0,0,0,0,0,0,0,0,0,0,0,0,0,0,0,0,0,0,0,0,0s0,0,0,0c0,0,0,0,0,0,0,0,0,0,0,0,0,0,0,0,0,0s0,0,0,0c0,0,0,0,0,0,0,0,0,0,0,0,0,0,0,0,0,0,0,0,0,0,0,0,0,0,0,0,0,0,0,0,0,0,0,0,0,0,0,0,0,0,0,0,0,0,0,0,0,0,0,0,0,0s0,0,0,0c0,0,0,0,0,0Z" fill="#414042"/>
  <path d="M46.8,69.4s0,0,0,0c0,0,0,0,0,0,0,0,0,0,0,0,0,0,0,0,0,0,0,0,0,0,0,0,0,0,0,0,0,0,0,0,0,0,0,0,0,0,0,0,0,0,0,0,0,0,0,0,0,0,0,0,0,0,0,0,0,0,0,0,0,0,0,0,0,0,0,0,0,0,0,0,0,0,0,0,0,0,0,0,0,0,0,0,0,0,0,0,0,0,0,0,0,0,0,0,0,0,0,0,0,0,0,0,0,0,0,0,0,0,0,0,0,0,0,0,0,0,0,0,0,0,0,0,0,0,0,0,0,0,0,0,0,0,0,0,0,0,0,0,0,0,0,0,0,0,0,0,0,0s0,0,0,0c0,0,0,0,0,0,0,0,0,0,0,0,0,0,0,0,0,0,0,0,0,0,0,0,0,0,0,0,0,0,0,0,0,0,0,0,0,0,0,0,0,0,0,0,0,0,0,0,0,0,0,0,0,0,0,0,0,0,0,0,0,0,0,0,0,0,0,0,0,0,0,0,0,0,0,0,0,0,0,0,0,0,0,0,0,0,0,0,0,0,0,0,0,0,0,0,0,0,0,0,0,0,0,0,0,0,0,0,0,0,0,0,0,0,0,0,0,0,0,0,0,0,0,0,0,0,0,0,0,0,0,0,0,0,0,0,0,0,0,0,0,0,0,0,0,0,0,0,0,0s0,0,0,0c0,0,0,0,0,0,0,0,0,0,0,0,0,0,0,0,0,0Z" fill="#414042"/>
  <path d="M36.9,70.5s0,0,0,0c0,0,0,0,0,0s0,0,0,0c0,0,0,0,0,0,0,0,0,0,0,0,0,0,0,0,0,0,0,0,0,0,0,0,0,0,0,0,0,0,0,0,0,0,0,0,0,0,0,0,0,0,0,0,0,0,0,0,0,0,0,0,0,0,0,0,0,0,0,0,0,0,0,0,0,0s0,0,0,0c0,0,0,0,0,0,0,0,0,0,0,0,0,0,0,0,0,0,0,0,0,0,0,0,0,0,0,0,0,0,0,0,0,0,0,0,0,0,0,0,0,0,0,0,0,0,0,0,0,0,0,0,0,0,0,0,0,0,0,0,0,0,0,0,0,0,0,0,0,0,0,0,0,0,0,0,0,0,0,0,0,0,0,0,0,0,0,0,0,0,0,0,0,0,0,0,0,0,0,0,0,0,0,0,0,0,0,0,0,0,0,0,0,0,0,0,0,0,0,0,0,0,0,0,0,0,0,0,0,0,0,0,0,0,0,0,0,0,0,0,0,0,0,0,0,0,0,0,0,0,0,0,0,0,0,0,0,0,0,0,0,0s0,0,0,0c0,0,0,0,0,0s0,0,0,0c0,0,0,0,0,0,0,0,0,0,0,0,0,0,0,0,0,0,0,0,0,0,0,0,0,0,0,0,0,0,0,0,0,0,0,0,0,0,0,0,0,0,0,0,0,0,0,0,0,0,0,0,0,0,0,0,0,0,0,0,0,0,0,0,0,0Z" fill="#414042"/>
  <path d="M37.2,68.7s0,0,0,0c0,0,0,0,0,0,0,0,0,0,0,0s0,0,0,0c0,0,0,0,0,0,0,0,0,0,0,0,0,0,0,0,0,0,0,0,0,0,0,0s0,0,0,0c0,0,0,0,0,0,0,0,0,0,0,0,0,0,0,0,0,0,0,0,0,0,0,0,0,0,0,0,0,0,0,0,0,0,0,0,0,0,0,0,0,0,0,0,0,0,0,0,0,0,0,0,0,0,0,0,0,0,0,0,0,0,0,0,0,0,0,0,0,0,0,0,0,0,0,0,0,0s0,0,0,0c0,0,0,0,0,0,0,0,0,0,0,0,0,0,0,0,0,0,0,0,0,0,0,0,0,0,0,0,0,0,0,0,0,0,0,0s0,0,0,0c0,0,0,0,0,0,0,0,0,0,0,0,0,0,0,0,0,0,0,0,0,0,0,0,0,0,0,0,0,0,0,0,0,0,0,0,0,0,0,0,0,0,0,0,0,0,0,0,0,0,0,0,0,0,0,0,0,0,0,0s0,0,0,0c0,0,0,0,0,0,0,0,0,0,0,0,0,0,0,0,0,0,0,0,0,0,0,0,0,0,0,0,0,0,0,0,0,0,0,0,0,0,0,0,0,0,0,0,0,0,0,0s0,0,0,0c0,0,0,0,0,0,0,0,0,0,0,0,0,0,0,0,0,0,0,0,0,0,0,0,0,0,0,0,0,0,0,0,0,0,0,0,0,0,0,0,0,0,0,0,0,0,0,0,0,0,0,0,0,0,0,0,0,0,0,0,0,0,0,0,0,0,0,0,0,0,0,0,0,0,0,0,0,0,0,0,0,0,0,0Z" fill="#414042"/>
  <path d="M48.9,67.7s0,0,0,0c0,0,0,0,0,0,0,0,0,0,0,0,0,0,0,0,0,0,0,0,0,0,0,0,0,0,0,0,0,0,0,0,0,0,0,0,0,0,0,0,0,0,0,0,0,0,0,0,0,0,0,0,0,0s0,0,0,0c0,0,0,0,0,0,0,0,0,0,0,0s0,0,0,0c0,0,0,0,0,0,0,0,0,0,0,0,0,0,0,0,0,0,0,0,0,0,0,0,0,0,0,0,0,0,0,0,0,0,0,0,0,0,0,0,0,0,0,0,0,0,0,0,0,0,0,0,0,0,0,0,0,0,0,0,0,0,0,0,0,0,0,0,0,0,0,0,0,0,0,0,0,0,0,0,0,0,0,0,0,0,0,0,0,0,0,0,0,0,0,0,0,0,0,0,0,0,0,0,0,0,0,0,0,0,0,0,0,0,0,0,0,0,0,0,0,0,0,0,0,0,0,0,0,0,0,0,0,0,0,0,0,0,0,0,0,0,0,0,0,0,0,0,0,0,0,0,0,0,0,0,0,0,0,0,0,0,0,0,0,0,0,0,0,0,0,0,0,0,0,0,0,0,0,0,0,0,0,0,0,0s0,0,0,0c0,0,0,0,0,0,0,0,0,0,0,0,0,0,0,0,0,0,0,0,0,0,0,0,0,0,0,0,0,0,0,0,0,0,0,0,0,0,0,0,0,0,0,0,0,0,0,0,0,0,0,0,0,0,0,0,0,0,0,0Z" fill="#414042"/>
  <path d="M39.4,68.5s0,0,0,0c0,0,0,0,0,0,0,0,0,0,0,0,0,0,0,0,0,0,0,0,0,0,0,0,0,0,0,0,0,0,0,0,0,0,0,0,0,0,0,0,0,0,0,0,0,0,0,0,0,0,0,0,0,0,0,0,0,0,0,0,0,0,0,0,0,0,0,0,0,0,0,0,0,0,0,0,0,0,0,0,0,0,0,0,0,0,0,0,0,0s0,0,0,0c0,0,0,0,0,0,0,0,0,0,0,0,0,0,0,0,0,0,0,0,0,0,0,0,0,0,0,0,0,0,0,0,0,0,0,0s0,0,0,0c0,0,0,0,0,0,0,0,0,0,0,0,0,0,0,0,0,0,0,0,0,0,0,0,0,0,0,0,0,0,0,0,0,0,0,0,0,0,0,0,0,0,0,0,0,0,0,0,0,0,0,0,0,0,0,0,0,0,0,0,0,0,0,0,0,0,0,0,0,0,0,0,0,0,0,0,0,0,0,0,0,0,0,0,0,0,0,0,0,0,0,0,0,0,0,0,0,0,0,0,0,0,0,0,0,0,0,0,0,0,0,0,0,0,0,0,0,0,0,0,0,0,0,0,0,0,0,0,0,0,0,0,0,0,0,0,0,0s0,0,0,0c0,0,0,0,0,0,0,0,0,0,0,0,0,0,0,0,0,0,0,0,0,0,0,0,0,0,0,0,0,0,0,0,0,0,0,0,0,0,0,0,0,0,0,0,0,0,0,0Z" fill="#414042"/>
  <path d="M46.4,67.8s0,0,0,0c0,0,0,0,0,0,0,0,0,0,0,0,0,0,0,0,0,0,0,0,0,0,0,0,0,0,0,0,0,0,0,0,0,0,0,0,0,0,0,0,0,0,0,0,0,0,0,0,0,0,0,0,0,0s0,0,0,0c0,0,0,0,0,0,0,0,0,0,0,0,0,0,0,0,0,0,0,0,0,0,0,0,0,0,0,0,0,0,0,0,0,0,0,0,0,0,0,0,0,0,0,0,0,0,0,0,0,0,0,0,0,0,0,0,0,0,0,0,0,0,0,0,0,0,0,0,0,0,0,0,0,0,0,0,0,0,0,0,0,0,0,0,0,0,0,0,0,0,0,0,0,0,0,0,0,0,0,0,0,0s0,0,0,0c0,0,0,0,0,0,0,0,0,0,0,0,0,0,0,0,0,0,0,0,0,0,0,0s0,0,0,0c0,0,0,0,0,0,0,0,0,0,0,0,0,0,0,0,0,0,0,0,0,0,0,0,0,0,0,0,0,0,0,0,0,0,0,0,0,0,0,0,0,0,0,0,0,0,0,0,0,0,0,0,0,0,0,0,0,0,0,0,0,0,0,0,0,0,0,0,0,0,0,0,0,0,0,0,0,0,0,0,0,0,0,0,0,0,0,0,0,0,0,0,0,0,0,0,0,0,0,0,0,0,0,0,0,0,0,0,0,0,0,0,0,0,0,0,0,0,0,0,0,0,0,0,0,0,0,0,0,0,0,0Z" fill="#414042"/>
  <path d="M49.7,69s0,0,0,0c0,0,0,0,0,0,0,0,0,0,0,0,0,0,0,0,0,0,0,0,0,0,0,0,0,0,0,0,0,0,0,0,0,0,0,0,0,0,0,0,0,0,0,0,0,0,0,0,0,0,0,0,0,0,0,0,0,0,0,0,0,0,0,0,0,0,0,0,0,0,0,0,0,0,0,0,0,0,0,0,0,0,0,0,0,0,0,0,0,0,0,0,0,0,0,0,0,0,0,0,0,0,0,0,0,0,0,0,0,0,0,0,0,0,0,0,0,0,0,0,0,0,0,0,0,0,0,0,0,0,0,0,0,0,0,0,0,0,0,0,0,0,0,0,0,0,0,0,0,0,0,0,0,0,0,0,0,0,0,0,0,0,0,0,0,0,0,0,0,0,0,0,0,0,0,0,0,0,0,0s0,0,0,0c0,0,0,0,0,0,0,0,0,0,0,0,0,0,0,0,0,0,0,0,0,0,0,0s0,0,0,0c0,0,0,0,0,0,0,0,0,0,0,0,0,0,0,0,0,0,0,0,0,0,0,0,0,0,0,0,0,0,0,0,0,0,0,0,0,0,0,0,0,0,0,0,0,0,0,0,0,0,0,0,0,0,0,0,0,0,0,0,0,0,0,0,0,0,0,0,0,0,0,0,0,0,0,0,0,0,0,0,0,0,0,0,0,0,0,0,0,0,0,0,0,0,0,0,0,0,0,0,0,0,0,0,0,0,0,0,0,0,0,0,0,0Z" fill="#414042"/>
  <path d="M35.1,68.9s0,0,0,0,0,0,0,0c0,0,0,0,0,0,0,0,0,0,0,0,0,0,0,0,0,0,0,0,0,0,0,0,0,0,0,0,0,0,0,0,0,0,0,0,0,0,0,0,0,0,0,0,0,0,0,0,0,0,0,0,0,0,0,0,0,0,0,0,0,0,0,0,0,0,0,0,0,0,0,0,0,0,0,0,0,0,0,0,0,0,0,0,0,0,0,0,0,0s0,0,0,0c0,0,0,0,0,0,0,0,0,0,0,0,0,0,0,0,0,0,0,0,0,0,0,0,0,0,0,0,0,0,0,0,0,0,0,0,0,0,0,0,0,0,0,0,0,0,0,0,0,0,0,0,0,0,0,0,0,0,0,0,0,0,0,0,0,0,0,0,0,0,0,0,0,0,0,0,0,0,0,0,0,0,0,0,0,0,0,0,0,0,0,0,0,0,0,0,0,0,0,0,0,0,0,0,0,0,0,0,0,0,0,0,0,0,0,0,0,0,0,0,0,0,0,0,0,0,0,0,0,0,0,0,0,0,0,0,0,0,0,0,0,0,0,0,0,0,0,0,0,0,0,0,0,0,0,0,0,0,0,0,0,0,0,0,0,0,0,0,0,0,0,0,0,0,0,0,0,0,0,0,0,0,0,0,0,0,0,0,0,0,0,0,0,0,0,0,0,0,0,0,0,0,0,0,0,0,0,0,0,0,0,0,0,0,0,0,0,0,0,0,0,0,0,0,0,0,0,0Z" fill="#414042"/>
  <path d="M39.1,101.5c0,0,.2,0,.3,0,1,0,1,1.1,1.8,1.5-.2.1-.4.1-.7.2-1.1.2-2.1.5-2.9,1.3-.2.2-.5.5-.4.8.4,0,1.3-.8,1.7-1.1.8-.4,1.6-.3,2.4-.7,0,0,0,0,.1.1.5.3.8.7,1.2,1-.3.1-.6.1-.9.1-1,.1-2.1.3-2.9,1-.2.2-.4.3-.4.6,0,.1,0,.1.2.2.6,0,1.1-.6,1.6-.9.8-.4,1.9-.2,2.6-.5.2.2.5.4.7.6.7.6,1.9,1.9,1.9,2.8,0,.2,0,.4-.2.6-.2.4-.5.7-.9.9-1.8,1-4.5.6-6.4,0-2-.6-6-3.3-7-5.1.1-1.1.7-2.1,1-3.2,0,0,0,.2.1.2.5.9,1.7,1.4,2.7,1.6.3,0,1.1.3,1.4,0,.2-.2.3-.6.4-.9.3-.7,1.1-1.1,1.8-1.3.2,0,.5-.1.7-.2,0,0,0,0,0,0Z" fill="#cc9c3d"/>
  <path d="M52.5,99.8c.7.3,1.1-.2,1.8.5.3.3.7.8,1,.9-.4.2-1.1.2-1.5.3-.6.2-1.6.6-2,1.2-.1.2-.2.3-.1.5h.1c.6-.1,1-.8,1.6-1.1,0,0,0,0,0,0,.5-.2,1.4-.3,1.9-.3.5,0,1,.1,1.3.5,0,.1-.4,0-.6.1-.8,0-1.5.2-2.1.6-.4.3-.7.6-.8,1.1,0,.1,0,.2,0,.3.5,0,.9-.9,1.5-1.1.9-.3,1.9-.5,2.8-.1,1,.4,2,1.6,2.3,2.6.2.4.3,1,0,1.4,0,.1-.2.2-.3.3,0,0,0,.1-.2.2-.6.6-1.8.6-2.6.6-1,0-1.9,0-2.8-.2-1.7-.4-7.7-3-8.9-4.1-.2-.2-.3-.5-.3-.9,0-.4.4-2.6.7-2.9.3,0,.6.5.9.7,1,.7,2.9,1.4,4.2,1.2,0,0,0,0,0,0,.2-.9.5-1.5,1.3-2,.2-.1.4-.2.6-.3h0Z" fill="#cc9c3d"/>
  <path d="M24.7,85s0,0,.1,0c.4.2,1.5.4,1.9.2,0,2.3-.3,4.7-.5,7l-.7,9.3-.5,7c0,1.1-.1,2.2-.3,3.2,0,.2,0,.4-.2.5,0,0-.1.2-.2.2-.2.2-.5.2-.7.2-.2,0-.4-.2-.5-.3-.2-.3-.2-.7-.2-1.1,0-1.2.2-2.5.3-3.7.3-4.2.5-8.5.8-12.7l.4-6.4c0-1.1,0-2.3.3-3.4Z" fill="#d5d7d8"/>
  <path d="M69,80.6h.2c.1.2.1.3.1.5.4,3.7.6,7.4.9,11.1.4,4.5.9,9,1.1,13.5,0,.3,0,1-.2,1.3-.2.2-.4.2-.7.2-.3,0-.5,0-.7-.3h-.1c-.1-.3-.2-.5-.2-.8-.1-.8-.1-1.6-.2-2.4l-.5-5.1c-.5-6-1-12-1.6-18,.6,0,1.2-.2,1.8-.3Z" fill="#d5d7d8"/>
  <path d="M32.9,59.8c1.1,0,2.1,0,3.1.4,1.6.8,2.7,2.2,3.2,3.9-.3.2-.6.4-1,.6-.7-.9-1.3-1.8-2.2-2.6-.2-.2-.7-.7-1.1-.6,0,0-.1,0-.2.1,0,.1,0,.2,0,.4.2.3.6.5.9.7.6.6,1.7,1.7,2,2.5.1.3.1.5,0,.8,0,.2-.2.3-.4.4-.2,0-.3,0-.4-.1-.3-.3-.5-.7-.7-1.1-.6-.8-1.8-2-2.6-2.4-.2,0-.3,0-.4,0,0,0,0,0,0,.2,0,.3.2.4.4.6.8.6,2.2,1.8,2.6,2.7,0,.2,0,.3,0,.5,0,0-.1.1-.2.1-.3,0-.5,0-.8-.1-.3-.2-.5-.5-.7-.7-.4-.5-1.1-1.1-1.7-1.4-.3-.1-.5-.2-.8,0h0c0,.4,1.5,1.4,1.9,1.7.3.3.7.6.7,1,0,.1-.1.2-.3.2-.4,0-1.1-.5-1.5-.7-1-.6-2.7-.5-3.4-1.1-.4-.3-.6-.7-.7-1.2-.2-1.1.2-2.4.9-3.2.8-1.1,2-1.4,3.3-1.6Z" fill="#f0d4aa"/>
  <path d="M48.3,58.5c.9,0,1.8.2,2.6.7.7.4,1.3,1.1,1.5,2,.2.8,0,1.6-.4,2.3-.5.8-2.5,2.7-3.5,2.9-.2,0-.2,0-.4,0-.1-.8,1.7-2.3,1.7-3.1h0c-1-.2-2,2.9-2.8,3.2-.1,0-.3,0-.5,0-.1,0-.2-.2-.2-.4,0-.7,1.1-2.2,1.5-2.8.1-.2.4-.4.4-.6,0-.2,0-.2,0-.4-.6,0-1.7,1.9-2,2.4-.2.3-.3,1.1-.5,1.3-.2.1-.5.1-.8,0-.2,0-.3-.2-.3-.3-.3-.8,1.3-2.7,1.6-3.4,0-.2,0-.2,0-.4h-.1c-.9.3-1.9,3.3-2.3,3.5-.2,0-.2,0-.4,0-.2-.2-.2-.4-.2-.6-.1-1.5,1-3.4,2-4.6.9-1,1.9-1.4,3.2-1.5Z" fill="#f0d4aa"/>
  <path d="M10.5,75.6c.6.4,1.2.7,1.7,1.2l-1.7,14.6-.7,6.3c-.1,1.1-.2,2.2-.4,3.2,0,.2,0,.4-.2.5v.2c-.3,0-.5.1-.7.1-.2,0-.5-.1-.6-.3-.2-.2-.1-.6-.1-.9,0-1,.2-2,.3-3l.5-4.7,2-17.3Z" fill="#d5d7d8"/>
  <path d="M10.2,46c.4,0,1-.1,1.3,0,.2,0,.2,0,.3.2,0,.4,0,.9-.3,1.3-.2.4-.7.4-1.1.5-.2,0-.4.2-.5.3-.1.2,0,.5,0,.7.2.5.7,1.2,1.3,1.4.5.2,1.3,0,1.8-.2-.6,2.4-.8,4.8-.6,7.3,0,.3,0,.6.1.9-1,0-2.2.5-3.1.1-.3-.2-.5-.6-.7-.9-.3-.8-.2-8.6-.1-9.9,0-.3,0-.7.2-1,.3-.5.7-.6,1.2-.8Z" fill="#d5bc2a"/>
  <path d="M27.6,38.9c.8.3,1.6.8,2.4,1.1,3.1,1.3,6.4,1.8,9.7,1.1-.2.5-.4.9-.6,1.4-.2.4-.5.9-.7,1.3-.3.5-.7,1.1-1,1.6-.6-.3-1.1-.6-1.6-.9-1.3-.7-2.6-1.4-3.8-2.2-1-.6-2.6-1.4-3.4-2.2-.3-.3-.6-.8-.8-1.2Z" fill="#f0d4aa"/>
  <path d="M10.7,44.7c.2,0,.5,0,.8,0l.3.6c-1,0-2.2,0-3,.7-.4.3-.5.7-.6,1.2-.2,1.3,0,3.3,0,4.7,0,1.6,0,3.3,0,4.9,0,.5.3,1.1.2,1.6,0,0,0,0,0,0-.1,0-.3-.1-.4-.2-.6-.4-.8-.8-.9-1.4-.3-1.6-.1-4.1-.1-5.7,0-1.3-.1-2.8,0-4.1,0-.4.1-.9.4-1.3.6-.9,2.5-.9,3.4-1Z" fill="#d5bc2a"/>
  <path d="M28.9,59.4c.7,0,1.1,0,1.7.4-.3.1-.5.3-.7.5-1.3,1-1.9,2.8-1.7,4.3,0,.3.3.9.2,1.1h-.2c-.4,0-.8,0-1.1,0-.4-.2-.7-.5-.8-.8-.3-.9-.1-2,.2-2.9.5-1.1,1.3-2,2.4-2.5Z" fill="#e78b2c"/>
  <path d="M33.3,53.7c.3.2,3,5.4,3.5,6.3l-1-.5c-.4-.2-.8-.2-1.3-.3-.2-.7-.7-1.3-1-2l-1.6-2.8c.4-.3.9-.4,1.3-.7Z" fill="#00bcd6"/>
  <path d="M43.6,60.4c0,0,.1,0,.2,0,0,.1,0,.2,0,.3-.3.3-.7.5-1,.8-.4.3-.7.6-1,1-.8,0-1.6.1-2.4.2l-.3-.5c-.3-.4-.7-.8-1-1.2l5.6-.5Z" fill="#e78b2c"/>
  <path d="M32.3,100.9c.1,0,.3.1.4.2.9.3,3.3.9,4.2.5-.2.3-.5.8-.8,1-.1.3-.2.5-.4.8,0,0-.2,0-.3,0-.9,0-2.2-.6-2.8-1.3-.3-.4-.3-.7-.3-1.1Z" fill="#f0d4aa"/>
  <path d="M45.9,99.1c.4.2.9.4,1.4.5.8.2,3,.6,3.7.2-.1.3-.4.7-.6,1,0,.2-.1.5-.3.7-.1,0-.2,0-.3,0-1.2,0-2.8-.6-3.6-1.5-.3-.3-.4-.5-.4-.9Z" fill="#f0d4aa"/>
  <path d="M30.7,105.9c0,0,0,0,0,0,1,1.3,2.4,2.3,3.7,3.3,2.2,1.6,5.4,2.5,8.1,2.1.5,0,1-.2,1.5-.4.2,0,.5-.2.7-.2h-.1c0,.1,0,.2,0,.2-.3.4-2.3.8-2.8.9-1,.1-1.9,0-2.9-.2-2.9-.6-4.3-1.7-6.6-3.6-.7-.6-1.5-1.2-1.6-2.1Z" fill="#66532e"/>
  <path d="M11.6,59.3c.1,0,.2,0,.3,0,0,.3,0,2,0,2.5h-1.7c0,0-.2.1-.2.1-.3-.3-.1-2.1,0-2.5.6,0,1.1,0,1.7-.1Z" fill="#d5d7d8"/>
  <path d="M45.5,105.2c2.2,1.1,5.7,2.9,8,3.5.4.1.8.2,1.2.2.4,0,.8,0,1.2,0,1.1,0,2.1-.2,3.1-.4h0c-.2.3-.7.4-1.1.5-3,.8-6-.5-8.7-1.8-.9-.4-1.8-.9-2.7-1.4-.3-.2-.9-.4-1-.8Z" fill="#66532e"/>
  <path d="M30.6,50c.1,0,.3,0,.4,0,.6.2,1,1.2,1.2,1.7l-.8.4-.6.3s0,0,0-.1c-.3-.5-.7-1.2-.6-1.8,0-.3.2-.4.5-.6Z" fill="#e78b2c"/>
  <path d="M32.4,52.2c.3.1.5.6.6.9l-1.3.7c-.3,0-.5-.6-.7-.9l1.3-.7Z" fill="#f0b865"/>
  <path d="M39.5,64.8h.1c.2.4.3.8.3,1.1,0,.2,0,.3-.2.5-.2,0-.3,0-.5,0-.3-.3-.5-.8-.8-1.2.4-.1.6-.3,1-.5Z" fill="#f0b865"/>
  <path d="M43,62c0,.3-.4,1.2-.5,1.5,0,.1-.2.1-.3.2,0-.2-.1-.3,0-.5,0-.5.5-.8.9-1.1Z" fill="#f0d4aa"/>
</svg>