<?xml version="1.0" encoding="UTF-8"?>
<svg id="Layer_1" xmlns="http://www.w3.org/2000/svg" width="80" height="115" version="1.1" viewBox="0 0 80 115">
  <!-- Generator: Adobe Illustrator 29.4.0, SVG Export Plug-In . SVG Version: 2.1.0 Build 152)  -->
  <defs>
    <style>
      .st0 {
        opacity: .3;
      }

      .st0, .st1 {
        isolation: isolate;
      }

      .st2, .st1 {
        fill: #414042;
      }

      .st3 {
        fill: #7b7b70;
      }

      .st4 {
        fill: #f0b865;
      }

      .st5 {
        fill: #66532e;
      }

      .st6 {
        fill: #5aba47;
      }

      .st7 {
        fill: #d5d7d8;
      }

      .st8 {
        fill: #f0d4aa;
      }

      .st9 {
        fill: #fff;
      }

      .st10 {
        fill: #d5bc2a;
      }

      .st1 {
        opacity: .4;
      }

      .st11 {
        fill: #e78b2c;
      }

      .st12 {
        fill: #00bcd6;
      }

      .st13 {
        fill: #cc9c3d;
      }
    </style>
  </defs>
  <rect class="st9" x="24.809" y="61.907" width="34.517" height="12.956"/>
  <path class="st2" d="M35.219,1.564c2.054-.345,5.412.768,7.216,1.718,6.819,3.573,9.581,10.125,10.107,17.487.147,2.037-.138,4.143.199,6.154.406,2.408,2.175,4.514,2.365,6.871.009.104.017.199.017.302v.302c0,.104,0,.199-.017.302,0,.104-.017.199-.026.302s-.026.199-.043.302-.035.199-.06.293-.052.199-.078.293-.06.19-.095.285c-.423,1.208-1.45,2.356-1.148,3.703.285,1.312,1.424,2.417,1.838,3.763.734,2.434-.699,4.048-1.752,6.042,1.692,3.047,3.064,5.99,2.106,9.529,2.305,1.148,4.54,2.408,6.827,3.591,2.201,1.139,4.385,2.305,6.551,3.496,1.088.596,2.21,1.165,3.263,1.821.587.363,1.122.725,1.277,1.433.199.906.086,3.72-.406,4.497-.44.682-1.191.898-1.942,1.062-.035,1.122-.035,2.305-.259,3.401-.173.846-.509,1.295-1.234,1.761.009.751.121,1.528.181,2.279l.354,4.264,1.148,13.62.328,3.729c.069.777.164,1.571.155,2.356,0,.354-.026.699-.25.984-.268.345-.716.552-1.148.596h-.345c-.026,0-.06,0-.086-.009-.026,0-.06-.009-.086-.017s-.06-.009-.086-.017c-.026,0-.06-.017-.086-.026-.026,0-.06-.017-.086-.026-.026-.009-.06-.017-.086-.035-.026-.009-.052-.026-.086-.035-.026-.009-.052-.026-.078-.043s-.052-.026-.078-.043c-.026-.017-.052-.035-.078-.052-.026-.017-.052-.035-.069-.052-.026-.017-.052-.035-.069-.06-.337-.276-.457-.639-.535-1.053-.147-.82-.147-1.7-.216-2.529-.129-1.597-.276-3.202-.423-4.799l-1.666-18.385c-2.909.293-5.826.691-8.726,1.062-.423,4.014-.932,8.027-1.519,12.024-.207,1.398-.276,2.935-.647,4.298-.069.25-.164.423-.354.613-.233.233-.578.449-.924.449.414.596,1.174,1.131,1.735,1.58,1.208.949,2.529,1.864,3.556,3.012.768.863,1.381,2.011,1.303,3.202-.043.716-.388,1.338-.932,1.804-1.329,1.139-3.375,1.321-5.058,1.191-.242-.017-.475-.043-.716-.078-.233-.035-.475-.078-.708-.121-.233-.052-.466-.104-.699-.164-.233-.06-.457-.129-.682-.207-1.554-.518-6.603-2.909-7.596-4.074.276.596.837,1.079,1.191,1.649.501.803.742,1.908.518,2.84-.19.803-.76,1.381-1.45,1.795-1.933,1.157-4.437,1.019-6.534.492-2.115-.544-3.988-1.614-5.723-2.926-.44-.328-1.001-.725-1.286-1.2-.026,0-.043-.009-.069-.017-.354-.164-.837-.863-.993-1.217-.578-1.286.164-3.409.691-4.644.224-.527.518-1.027.725-1.562l.017-.052c-.181-.026-.423-.285-.544-.414-.207-.216-.388-.44-.449-.742-.207-1.208-.026-3.789.026-5.136.112-3.15.276-6.327.302-9.477-.026.017-.069.043-.104.06-.406.164-3.047.414-3.392.25-.276,3.28-.466,6.577-.699,9.857l-.647,8.606c-.129,1.89-.268,3.781-.414,5.662-.069.889-.104,2.072-.259,2.926-.06.328-.224.604-.475.829-.337.302-.803.432-1.243.406-.457-.026-.898-.224-1.191-.578-.276-.328-.371-.708-.38-1.122-.026-1.01.129-2.08.199-3.09l.319-4.998c.406-6.37.846-12.731,1.312-19.101-.432-.043-10.056-6.499-11.126-7.319-.604,5.438-1.243,10.884-1.908,16.313l-.578,4.816c-.104.924-.147,1.916-.345,2.822-.078.371-.25.811-.552,1.062s-.777.345-1.157.302c-.44-.043-.863-.268-1.131-.613-.026-.035-.043-.06-.069-.095s-.043-.069-.06-.104-.035-.069-.052-.104c-.017-.035-.035-.069-.043-.112-.017-.035-.026-.078-.035-.112-.009-.035-.017-.078-.026-.112,0-.035-.009-.078-.017-.112v-.121c0-1.079.216-2.218.337-3.297l.613-5.541,1.933-17.168c-.112-.104-.233-.207-.328-.328-.794-.967-.354-4.799-.233-6.128-.466-.285-1.217-.699-1.398-1.243-.25-.751-.224-4.134.155-4.799.207-.371.716-.44,1.088-.535-.095-.924-.052-1.882-.035-2.805-.682-.164-1.372-.328-1.916-.803-.691-.613-.88-1.605-.932-2.494-.104-1.804-.017-3.668-.017-5.472,0-1.303-.138-2.952.086-4.212.078-.432.259-.88.561-1.2.906-.984,3.125-1.036,4.368-1.088-1.925-4.109,1.511-4.98,1.735-7.078.121-1.113-.898-2.641-1.027-3.876-.233-2.253,1.718-4.014,2.27-6.12.475-1.83.466-3.781.613-5.654.371-4.747,1.666-9.572,4.739-13.31,2.529-3.081,6.275-5.55,10.289-6.059,1.148-.147,2.227.026,3.366-.017.682-.026,1.372-.25,2.054-.319l-.017-.009ZM39.621,63.219c.414.984,1.511,3.548,1.183,4.54-.052.164-.121.199-.259.276-.665.043-1.752-1.131-2.27-1.562-.19.207-.388.509-.691.518-.285.009-.552.017-.785.233-.095.086-.164.216-.233.328-.337.216-.932.078-1.312.026-.199.268-.406.613-.76.673-.233.043-.492,0-.716-.078-.596-.199-1.07-.647-1.657-.863-1.131-.414-2.244-.38-3.323-1.01-.691.104-1.476,0-2.175-.06.673.501,1.398.924,2.097,1.398,1.027.691,2.028,1.416,3.047,2.115,1.131.777,2.546,1.864,3.72,2.494,1.985-.121,3.962-.449,5.947-.621l17.228-1.873-4.557-3.107c-.837-.57-1.726-1.105-2.512-1.744-.975.889-1.994,1.959-3.349,2.149l-.57-.268c-.457.155-.898.337-1.364.104-.207-.104-.406-.302-.57-.475-.302.164-.682.371-1.036.25-.328-.112-.57-.483-.872-.656-.518-.311-.906.302-1.252-.475-.147-.337-.259-.725-.319-1.096-.276-.181-.751-.457-.811-.82-.026-.164,0-.363,0-.535-.086-.035-.095-.043-.19-.017-.552.052-1.113.104-1.666.155h.026ZM12.596,61.708c.414-.052.829-.104,1.243-.104l.043-.052c-.457-.604-.673-1.157-.915-1.864-.078-.216-.138-.501-.259-.682-.164.889-.017,1.813-.112,2.71v-.009ZM44.972,83.442c-.371.06-1.157.276-1.493.112-.017,1.191-.181,2.382-.302,3.565-.207,2.158-.44,4.316-.682,6.465l-.397,3.694c-.078.785-.112,1.597-.276,2.374-.052.242-.112.397-.293.57-.25.242-.699.535-1.044.552.311.604,1.813,3.004,2.365,3.202.173.276.863,1.001,1.174,1.07h.035c-.656-2.149.475-4.298,1.088-6.266-.268-.035-.483-.242-.639-.457-.138-.19-.242-.414-.259-.656-.164-1.847,1.183-13.819.889-14.233h-.164v.009Z"/>
  <path class="st8" d="M36.729,8.487c1.053.112,2.028.388,2.978.846,3.211,1.545,5.429,4.773,7.389,7.63.665.967,1.493,2.054,1.873,3.176.544,1.623.302,8.381,0,10.107-.224,1.321-.596,2.633-1.183,3.841-.043.086-.086.164-.129.25s-.086.164-.129.25c-.043.078-.095.164-.138.242s-.095.164-.147.242c-.052.078-.095.155-.147.233-.052.078-.104.155-.155.233-.052.078-.104.155-.164.233-.052.078-.112.147-.164.224-.06.078-.112.147-.173.224-.06.069-.121.147-.181.216-.06.069-.121.147-.181.216-.06.069-.121.138-.19.207-.06.069-.129.138-.19.207l-.199.199c-.069.069-.138.129-.199.19-.069.06-.138.129-.207.19-.069.06-.138.121-.207.181-.069.06-.147.121-.216.181s-.147.112-.216.173c-.078.06-.147.112-.224.164-.078.052-.155.112-.224.164-.078.052-.155.104-.233.155s-.155.104-.233.155c-.078.052-.155.095-.242.147s-.164.095-.242.138c-.078.043-.164.086-.25.129s-.164.086-.25.129-.164.078-.25.121-.173.078-.259.112c-.086.035-.173.078-.259.112-.086.035-.173.069-.259.104s-.173.069-.259.095c-4.178,1.433-8.234.803-12.144-1.096-2.589-1.286-4.618-3.453-5.878-6.042-.207-.423-.345-.872-.527-1.312-.086-.216-.19-.449-.406-.544l.121.069c-.043-.026-.069-.069-.121-.069-.311-.043-1.079.768-2.046.509-.889-.242-1.649-1.122-2.089-1.89-.725-1.26-.82-2.762-.44-4.152.181-.639.44-1.174,1.044-1.493,1.312-.716,1.89,1.113,2.814,1.381.069.017.147-.043.216-.078v-.043c.017-.501-.587-1.079-.924-1.381,1.303-.975,2.486-2.106,3.729-3.15,2.917-2.443,10.945-8.83,12.093-12.127h.017Z"/>
  <path class="st2" d="M32.715,23.29h.112c.406-.017.725.069,1.019.354.406.397.544.993.552,1.545.017.604-.138,1.303-.57,1.744-.207.216-.492.363-.803.354-.449,0-.734-.233-1.036-.527-.319-.509-.38-.915-.457-1.502-.535-.104-1.139-.069-1.536-.509.017-.06.026-.147.078-.173.466-.224,1.07,0,1.536.121.242-.682.44-1.079,1.105-1.407h0Z"/>
  <path class="st2" d="M43.729,23.169c.259-.026.492-.06.742.06.475.216.647.716.803,1.174.199-.069.44-.155.647-.181.173-.017.302,0,.432.121v.138c-.25.363-.578.38-.993.466-.026.587-.121,1.053-.423,1.562-.129.138-.259.25-.423.354-.268.164-.587.25-.898.164-.354-.095-.613-.371-.785-.682-.319-.596-.345-1.39-.138-2.028.181-.552.509-.88,1.019-1.139l.017-.009Z"/>
  <path class="st2" d="M33.277,31.679c.371.121.725.691,1.088.924.293.19.673.311.993.432,1.925.708,4.29.855,6.206.017.457-.199,1.329-.932,1.649-.984.121-.017.112.009.207.069.017.095.035.173.017.268-.069.371-.354.535-.647.742-.863.552-1.795.889-2.797,1.053-2.486.414-4.834-.216-6.871-1.666-.199.138-.371.242-.621.259l-.095-.078v-.121c.086-.414.552-.708.88-.915h-.009Z"/>
  <path class="st2" d="M39.69,26.414c.06,0,.121.017.19.035.57.147,1.191.76,1.459,1.269.25.483.363,1.079.19,1.614-.164.492-.535.872-.993,1.088-.863.414-1.821.25-2.693-.052-.095-.052-.216-.112-.302-.181-.173-.155-.19-.224-.199-.44.388-.216,1.079.164,1.493.233.544.086,1.286-.043,1.735-.38.233-.173.406-.414.432-.708.104-1.062-.898-1.338-1.407-1.942-.052-.19.035-.354.104-.527l-.009-.009Z"/>
  <path class="st2" d="M33.346,18.387c.449-.043,1.286-.121,1.666.147.155.104.199.19.224.371l-.043.069c-.147.224-.527.129-.768.121-1.795-.078-2.943.44-4.385,1.485-.268.207-.587.613-.898.725-.155.06-.242.069-.388,0l-.017-.069c.026-.233.138-.423.276-.613.173-.242.457-.423.691-.596,1.113-.855,2.227-1.424,3.634-1.631l.009-.009Z"/>
  <path class="st2" d="M42.866,18.378c1.096-.06,2.236.181,3.194.716.483.268,1.329.846,1.493,1.407l-.112.155c-.112.052-.207.06-.328.06-1.019-.924-2.002-1.528-3.409-1.64-.328-.026-.708.052-1.019,0-.155-.035-.199-.095-.285-.224,0-.06,0-.069.035-.138.078-.19.259-.259.44-.328l-.009-.009Z"/>
  <path class="st2" d="M19.665,25.611c.25.017.466.043.691.181.475.285.811.855.924,1.39.069.337.086.552-.112.855-.621-.224-.397-1.001-.768-1.476-.233-.293-.647-.268-.88-.544-.017-.173.06-.268.155-.406h-.009Z"/>
  <path class="st4" d="M35.219,2.471c2.279-.268,4.799.483,6.802,1.519,6.517,3.366,9.244,9.823,9.745,16.831.147,2.132-.104,4.307.259,6.413.406,2.339,2.106,4.376,2.305,6.689s-1.916,4.005-1.424,6.146c.311,1.355,1.433,2.417,1.847,3.763.63,2.02-.518,3.513-1.398,5.222-.423-.708-.906-1.381-1.381-2.063,2.46-3.789-1.398-5.524-1.459-8.321-.043-2.115,1.502-3.159.967-5.688-.104-.483-.457-2.037-.88-2.261-.086-.043-.112-.017-.199.017-.095.518.647,2.149.656,3.081.009,2.072-1.597,3.746-.967,5.852.406,1.372,1.519,2.408,1.925,3.781.311,1.053.164,2.141-.354,3.099l-.043.069c-.716-.941-1.441-1.847-2.253-2.719-.026-1.64-1.036-2.546-1.398-4.005-.19-.785-.129-1.476-.104-2.261,0-.207-.017-.319-.155-.466h-.129c-.026.026-.06.06-.078.086-.121.181-.155.552-.19.768-.311,2.08,1.027,3.556,1.536,5.455-.932-.837-1.882-1.623-2.986-2.236.242-1.07.035-1.916-.535-2.84.544-.552,1.105-1.079,1.588-1.683,1.933-2.4,2.745-5.326,2.978-8.355.129-1.7.233-6.56-.181-8.036-.501-1.795-3.97-6.422-5.291-7.95-1.925-2.253-4.488-4.238-7.535-4.471.035-.276.086-.57.078-.846-.009-.406-.121-1.295-.457-1.571-.121-.095-.216-.069-.354-.052-.207.285.285,1.398.199,1.977-.129.863-.596,1.657-1.105,2.356-1.683,2.305-4.057,4.298-6.171,6.215-1.191,1.088-2.382,2.244-3.677,3.202.76-.863,4.773-6.879,4.756-7.786,0-.112-.026-.104-.104-.173-.017,0-.043,0-.06.009-.199.052-.423.397-.527.552-.587.855-1.062,1.804-1.597,2.684-.613,1.01-1.303,2.002-1.968,2.986-1.769,2.572-3.09,3.91-5.446,5.93-.596-.268-1.217-.44-1.856-.216-.63.224-1.062.76-1.329,1.347-.604,1.321-.656,3.142-.138,4.497.44,1.157,1.372,2.434,2.529,2.943.837.371,1.58.259,2.408-.06.613,1.536,1.476,3.012,2.564,4.264.587.673,1.234,1.303,1.769,2.02,1.303,1.735,2.063,3.556,1.916,5.757-.026.345-.026.725-.104,1.062-.293,1.174-.725,2.451-.716,3.668,0,.38.026.811.129,1.174.112.397.647,1.277.596,1.64-.181.121-.432.104-.639.06-.587-.104-.915-.492-1.234-.958-.639-.924-.691-2.149-.423-3.202.112-.457.293-.906.371-1.372.009-.06.017-.129.026-.19,0-.06.017-.129.017-.19v-.38c0-.06,0-.129-.009-.19,0-.06-.009-.129-.017-.19,0-.06-.017-.129-.026-.19-.009-.06-.026-.129-.043-.19s-.035-.129-.052-.19-.035-.121-.06-.181c-.017-.06-.043-.121-.069-.181-.026-.06-.052-.121-.078-.181-.026-.06-.052-.121-.086-.173-.026-.06-.06-.112-.095-.173-.035-.052-.069-.112-.104-.164-.035-.052-.069-.112-.112-.164-.155-.216-.406-.552-.682-.596-.06.112-.086.173-.043.302.06.155.199.319.285.457.285.501.509,1.036.604,1.605.19,1.174-.501,2.391-.578,3.582-.095,1.312.432,2.175,1.26,3.125-.311-.112-.621-.242-.898-.423-2.425-1.588-.803-4.428-1.916-6.534-.829-1.562-2.356-2.166-2.658-4.134-.302-1.994.725-3.996.319-5.887-.052-.259-.164-.561-.406-.708-.086-.052-.095-.035-.199-.009-.035.363.173,1.036.138,1.58-.069,1.269-.414,2.529-.63,3.781-1.718,1.234-3.461,2.866-4.437,4.773-.302-.285-.535-.57-.708-.958-.993-2.218,1.157-3.962,1.847-5.861.691-1.89-.38-3.297-.984-4.989-.181-.501-.199-1.07-.423-1.545l-.095-.026c-.155.199-.207.457-.268.699.095.414.181.82.337,1.217.388.984.984,1.933,1.088,3.004.25,2.469-2.477,3.988-2.305,6.629.06.906.509,1.649,1.174,2.236-.621.958-1.113,2.123-1.476,3.211-.181.552-.319,1.26-.613,1.761-.086.155-.285.293-.44.371-.363.181-.803.164-1.183.035-.492-.173-.734-.44-.949-.906.639-.207,1.157-.527,1.493-1.131.889-1.588-.164-3.22-.596-4.756-.708-2.529.699-3.064,1.735-4.946.846-1.536-.104-2.736-.527-4.204-.751-2.65,1.58-4.454,2.166-6.94.397-1.666.388-3.418.501-5.118.25-3.677,1.079-7.44,2.883-10.677,2.054-3.677,5.559-6.758,9.659-7.906,1.321-.371,3.884-.872,5.118-.173.656-.302,1.295-.466,2.011-.544l.026-.017Z"/>
  <path class="st1" d="M33.397,4.335c.06,0,.129,0,.19-.009.268-.009.535.017.742.199v.112c-.328.388-1.019.285-1.476.414-.354.095-.716.268-1.053.423-.155.069-.302.147-.449.224s-.293.164-.44.25-.285.173-.432.268c-.138.095-.276.19-.414.285-.138.104-.268.199-.397.311-.129.104-.259.216-.38.328s-.25.224-.371.345-.233.242-.345.363c-1.07,1.174-1.925,2.555-2.762,3.893-2.011,3.194-4.031,6.551-7.078,8.873-.086.052-.173.112-.268.155-.155.069-.233.095-.388.043-.078-.518,1.277-1.407,1.666-1.795,2.917-2.866,4.747-6.603,7.078-9.909,1.554-2.201,3.832-4.298,6.594-4.782l-.017.009Z"/>
  <path class="st1" d="M36.108,3.705c3.056-.199,5.878.88,8.226,2.814,1.01.837,4.488,4.342,4.54,5.61,0,.138-.052.173-.138.268-.164-.017-.173-.069-.276-.199-.449-.932-1.079-1.778-1.744-2.564-1.847-2.158-4.678-4.652-7.57-5.196-1.079-.207-2.106-.129-3.185-.224-.216-.017-.518-.043-.656-.216l.086-.112c.25-.121.449-.155.725-.19l-.009.009Z"/>
  <path class="st11" d="M44.67,38.878c.017.009.035.026.052.035.268.207.483,1.027.518,1.355.233,2.192-3.289,4.316-4.92,5.291-.406.242-1.01.432-1.303.794-.035.164-.043.164.035.328.164.06.216.06.388.017,1.614-.423,5.257-3.237,6.128-4.739,1.321.708,2.512,1.769,3.539,2.84,2.831,2.943,6.439,8.105,6.327,12.36-.052,2.063-.829,3.66-2.296,5.075,0-.63-.035-1.183-.293-1.778-.457-1.053-1.347-1.813-2.408-2.218-1.476-.561-3.038-.475-4.462.173.224-.578.63-1.105,1.053-1.554.829-.872,2.054-1.795,3.289-1.89.432-.035.872.104,1.303.06.173-.017.207-.078.302-.207l-.026-.155c-.112-.121-.216-.199-.371-.259-1.105-.397-2.287.181-3.271.621.155-1.165.147-2.434.026-3.599-.069-.691-.518-3.159-1.062-3.556-.112-.078-.147-.06-.276-.043-.233.233-.104.44-.009.708.043.138.095.276.138.423.043.138.086.285.121.423.035.138.078.285.112.423.035.147.069.285.095.432s.06.285.086.432.052.293.069.432c.017.147.043.293.06.44.017.147.035.293.043.44.009.147.026.293.035.44,0,.147.017.293.017.44v.44c0,.147,0,.293-.009.44s-.009.293-.026.44c-.009.147-.017.293-.035.44-.017.147-.035.293-.052.44-.017.147-.043.293-.06.432-.725.57-1.467,1.295-1.899,2.115-.535,1.01-.44,1.303-1.277,2.175l-6.508.57c-.647-1.019-1.2-2.141-1.778-3.202-.915-1.726-1.873-3.427-2.857-5.118-.397-.691-.734-1.485-1.208-2.123-.173-.233-.397-.44-.682-.544-.397-.147-.863-.06-1.234.112-.285.129-.509.328-.604.639-.129.414-.052.889.095,1.286.311.863.88,1.649,1.338,2.434,1.027,1.761,2.115,3.53,3.064,5.334-.958.017-1.821.086-2.736.414-.57-.578-1.312-.734-2.089-.837-.82-1.312-2.728-2.08-4.091-2.676-.319-.138-.63-.285-.932-.432.078-.941.276-2.9.181-3.729-.017-.155-.052-.354-.181-.457-.095,0-.104-.026-.181.035-.345.276-.449,3.358-.483,3.953-.967-.302-2.08-.561-3.099-.527-.44.017-1.122.129-1.424.492-.078.095-.086.121-.078.242.302.216,1.597-.06,2.054-.035,2.106.095,6.18,1.735,7.587,3.263-1.2.673-2.166,1.692-2.65,2.986-.466,1.234-.483,2.512.069,3.703-.259.052-.527.078-.794.095-.268.017-.535.009-.794,0-2.917-.216-7.423-1.709-9.374-4.014-1.821-2.158-1.778-5.481-1.528-8.131.509-5.455,2.572-9.918,6.819-13.422.388,3.297,2.261,3.159,3.021,5.326.561,1.588-.302,3.185.777,5.075.483.846,1.459,1.493,2.382,1.735.682.181,1.864.268,2.486-.121.181-.112.293-.25.345-.449-.035-.337-.311-.587-.492-.863-1.174-1.718-.25-3.945.086-5.774,1.234.544,2.486,1.062,3.746,1.536.578.224,1.882.734,2.477.475.026-.078.043-.06,0-.138-.104-.164-.406-.311-.578-.388-.872-.397-1.838-.639-2.745-.984-.932-.354-1.813-.803-2.762-1.122.104-1.191.009-2.261-.345-3.401,1.26.855,2.546,1.657,3.867,2.425,1.312.768,2.65,1.493,4.014,2.175.199.104.751.371.967.276.872-.388,2.615-3.884,2.943-4.946,1.58-.345,2.986-1.079,4.273-2.028l-.043-.026Z"/>
  <path class="st6" d="M9.937,69.088c1.234.647,2.417,1.485,3.599,2.236,2.615,1.666,5.222,3.366,7.803,5.093,1.493.984,3.289,2.382,4.954,2.969.82.285,1.761.285,2.624.242,2.002-.104,4.04-.406,6.033-.63l10.487-1.139,16.288-1.769c3.012-.311,6.025-.656,9.037-1.027-.129,1.312.035,3.211-.734,4.333-.44.293-.941.423-1.45.509-2.572.44-5.196.665-7.794.967-4.661.561-9.331,1.088-14.009,1.58-4.212.492-8.433.949-12.654,1.381-1.908.207-7.017.975-8.562.647-1.07-.233-13.146-8.321-14.717-9.529-.397-.311-.742-.596-1.027-1.019-.086-1.58.06-3.245.121-4.825v-.017Z"/>
  <path class="st0" d="M26.432,80.024c.104.017.164.052.25.112.043.104.069.199.078.311.043.527-.017,2.624-.328,2.978-.104-.017-.181-.06-.276-.112-.035-.078-.06-.129-.078-.216-.121-.604,0-2.598.354-3.081v.009Z"/>
  <path class="st10" d="M55.71,59.913c1.139.803,3.263,1.787,4.549,2.477,2.961,1.562,5.904,3.142,8.847,4.747,1.139.621,3.116,1.476,3.936,2.417.035.181.026.207-.043.38-.224.216-.561.311-.855.38-.76.164-1.58.207-2.356.293l-4.247.449-12.835,1.347-16.115,1.666c-2.546.268-5.11.63-7.665.803-.544.035-1.079,0-1.605-.129-1.709-.414-5.248-3.004-6.81-4.022l-5.257-3.366c-1.398-.846-2.797-1.709-4.186-2.581-.734-.449-1.769-.88-2.365-1.493-.06-.164-.06-.199-.026-.371.173-.173.397-.224.63-.268.604-.121,1.26-.095,1.882-.129,1.079-.069,2.149-.121,3.228-.173.19.207.397.406.613.587,2.503,2.106,7.38,3.712,10.651,3.427,1.416,1.243,3.737,2.658,5.36,3.755,1.131.768,3.133,2.287,4.316,2.848,1.657-.224,3.34-.363,4.998-.544l12.749-1.364,4.048-.475c.621-.069,1.269-.095,1.89-.207.216-.043.552-.112.699-.285.069-.078.052-.086.043-.181-.544-.673-1.554-1.226-2.261-1.726-1.744-1.243-3.513-2.469-5.3-3.66.302-.483.587-.967.82-1.485,1.312-.725,1.951-1.873,2.667-3.125v.009Z"/>
  <path class="st10" d="M8.608,63.935c2.503,1.709,5.144,3.211,7.699,4.842l4.903,3.168c1.683,1.096,3.988,2.883,5.887,3.392.647.173,1.372.164,2.037.129,2.261-.138,4.549-.483,6.802-.725l13.344-1.381,15.226-1.588c2.434-.259,4.903-.44,7.319-.785.492-.069.863-.181,1.286-.423,0,.993.035,2.391-.501,3.245-.242.199-.449.345-.751.432-.613.19-1.347.207-1.977.276l-4.169.466c-4.963.587-9.935,1.131-14.915,1.631l-14.648,1.58-4.98.552c-.967.104-1.942.242-2.917.276-.837.026-1.683-.147-2.425-.552-2.702-1.476-5.257-3.349-7.837-5.023-1.657-1.079-3.306-2.184-4.972-3.245-1.329-.846-2.702-1.657-3.996-2.555-.164-.112-.466-.293-.518-.501,0-.017,0-.043-.009-.06-.147-.742-.086-2.382.095-3.133l.017-.017Z"/>
  <path class="st0" d="M26.76,76.002c.052,0,.121.017.173.035.086.035.138.104.173.181.216.518.086,1.476-.121,1.985-.164-.017-.173-.009-.293-.129-.181-.57-.078-1.493.078-2.072h-.009Z"/>
  <path class="st3" d="M56.789,82.104l.155-.017c.121.199.043.527.026.76-.285,3.289-.803,6.603-1.269,9.874-.242,1.692-.38,3.487-.751,5.153-.043.181-.095.475-.259.596-.017.009-.035.026-.052.035-1.234.855-3.996.811-5.464.716-.691-.043-2.658-.276-3.09-.768-.069,0-.129,0-.19-.017-.371-.121-.76-.527-.932-.863-.035-1.709.224-3.504.345-5.213l.621-8.977,10.858-1.277h0Z"/>
  <path class="st3" d="M42.486,83.641c.147.052.181.043.268.181.035.751-1.476,15.304-1.761,16.011-.915.906-3.565,1.01-4.816,1.019-.932,0-3.116-.173-3.763-.82-.086.017-.138,0-.216-.035-.406-.155-.716-.432-.906-.829-.138-1.45.043-3.012.078-4.471.052-3.306.173-6.612.345-9.918.078.026.129.052.207.06.518.017,10.366-1.113,10.548-1.191l.017-.009Z"/>
  <path class="st2" d="M40.095,70.012h.173c.009,0,.026,0,.035.009.009,0,.026.009.035.017.009,0,.017.009.035.017.009,0,.017.017.026.017s.017.017.026.026l.026.026c0,.009.017.017.026.026,0,.009.017.017.017.026s.009.017.017.035c0,.009.009.026.009.035s0,.026.009.035,0,.026,0,.035v.138c0,.009,0,.026-.009.035,0,.009-.009.026-.017.035,0,.009-.009.017-.017.035,0,.009-.017.017-.017.026s-.017.017-.026.026c0,.009-.017.017-.026.026-.009,0-.017.017-.026.026-.009,0-.017.017-.026.017s-.017.009-.035.017-.026.009-.035.017c-.009,0-.026,0-.035.009h-.155c-.017,0-.035,0-.043-.009-.017,0-.035-.009-.043-.017-.017,0-.026-.017-.043-.026-.017,0-.026-.017-.043-.026-.009-.009-.026-.017-.035-.035-.009-.009-.017-.026-.035-.035-.009-.017-.017-.026-.026-.043,0-.017-.017-.026-.017-.043s-.009-.035-.017-.043v-.155c0-.017,0-.035.009-.043,0-.017.009-.035.017-.043s.017-.026.026-.043.017-.026.026-.035l.035-.035c.009-.009.026-.017.035-.026s.026-.017.043-.026c.017,0,.026-.017.043-.017s.035-.009.043-.009h.017Z"/>
  <path class="st2" d="M51.938,68.303h.155c.017,0,.035,0,.043.017.017,0,.026.009.043.017s.026.017.043.026.026.017.035.035l.035.035c.009.009.017.026.026.043,0,.017.017.026.026.043,0,.017.009.026.017.043,0,.017,0,.035.009.043v.104c0,.017,0,.035-.009.043,0,.017-.009.035-.017.043,0,.017-.017.026-.017.043s-.017.026-.026.043c-.009.009-.017.026-.035.035l-.035.035c-.009.009-.026.017-.043.026-.017,0-.026.017-.043.017s-.035.009-.043.017h-.19c-.009,0-.026,0-.035-.009-.009,0-.017-.009-.035-.017-.009,0-.017-.009-.035-.017-.009,0-.017-.009-.026-.017-.009,0-.017-.017-.026-.026l-.026-.026c0-.009-.017-.017-.017-.026s-.017-.017-.017-.026-.009-.017-.017-.035c0-.009-.009-.017-.017-.035,0-.009,0-.026-.009-.035v-.173c0-.009,0-.026.009-.035,0-.009,0-.017.017-.035,0-.009.009-.017.017-.035,0-.009.009-.017.017-.026,0-.009.017-.017.017-.026s.017-.017.026-.026l.026-.026c.009,0,.017-.017.026-.017s.017-.009.026-.017c.009,0,.017-.009.035-.017.009,0,.026,0,.035-.009h.035Z"/>
  <path class="st2" d="M43.669,69.537h.052c.207.009.337.052.475.199.026.216-.069.371-.164.552-.026,0-.052,0-.078-.009-.216-.026-.328-.086-.457-.259-.017-.207.06-.311.164-.483h.009Z"/>
  <path class="st2" d="M50.729,66.904c.017,0,.026-.009.043-.017.017,0,.035,0,.043-.009h.147c.017,0,.035,0,.043.017.017,0,.026.009.043.017.017,0,.026.017.043.026.009.009.026.017.035.035l.035.035c.009.009.017.026.026.043,0,.017.017.026.017.043s.009.026.017.043c0,.017,0,.035.009.043v.104c0,.017,0,.035-.009.043,0,.017-.009.035-.017.043,0,.017-.017.026-.017.043s-.017.026-.026.043c-.009.009-.017.026-.035.035-.009.009-.026.017-.035.035-.009.009-.026.017-.043.026-.017,0-.026.017-.043.017-.009,0-.026,0-.035.009h-.173c-.009,0-.026,0-.035-.009s-.026,0-.035-.009c-.009,0-.017-.009-.035-.017-.009,0-.017-.009-.026-.017-.009,0-.017-.017-.026-.017s-.017-.017-.026-.026l-.026-.026c0-.009-.017-.017-.017-.026s-.009-.017-.017-.026c0-.009-.009-.017-.017-.035s0-.026-.009-.035c0-.009,0-.026-.009-.035v-.173c0-.009,0-.026.009-.035,0-.009.009-.017.017-.035,0-.009.009-.017.017-.035,0-.009.009-.017.017-.026,0-.009.017-.017.026-.026l.026-.026c.009,0,.017-.017.026-.017s.017-.017.026-.017.017-.009.035-.017l.009.009Z"/>
  <path class="st2" d="M46.767,69.407c.017,0,.026-.009.043-.017h.129c.017,0,.035,0,.043.009.017,0,.026.009.043.017.017,0,.026.017.043.026.017,0,.026.017.035.026.009.009.026.017.035.035.009.009.017.026.026.035.009.009.017.026.026.043,0,.017.017.026.017.043s.009.026.009.043v.129c0,.017,0,.026-.009.043,0,.017-.009.026-.017.043,0,.017-.017.026-.026.043-.009.009-.017.026-.026.035l-.035.035c-.009.009-.026.017-.035.026-.017,0-.026.017-.043.026-.017,0-.026.009-.043.017h-.207c-.009,0-.017,0-.035-.009-.009,0-.017-.009-.035-.017-.009,0-.017-.009-.026-.017-.009,0-.017-.009-.026-.017-.009,0-.017-.017-.026-.026l-.026-.026s-.017-.017-.017-.026-.009-.017-.017-.026c0-.009-.009-.017-.017-.026,0-.009-.009-.017-.009-.035,0-.009,0-.017-.009-.035v-.173c0-.009,0-.017.009-.035,0-.009,0-.017.009-.035,0-.009.009-.017.017-.026,0-.009.009-.017.017-.026,0-.009.017-.017.017-.026l.026-.026.026-.026c.009,0,.017-.017.026-.017s.017-.009.026-.017c.009,0,.017-.009.035-.017l.026.026Z"/>
  <path class="st2" d="M36.945,70.529c.009,0,.017-.009.035-.017.009,0,.017,0,.035-.009s.017,0,.035,0h.173c.009,0,.017,0,.035.009.009,0,.017.009.035.017.009,0,.017.009.026.017.009,0,.017.009.026.017.009,0,.017.017.026.026l.026.026c.009.009.017.017.017.026s.009.017.017.026c0,.009.009.017.017.026,0,.009.009.017.009.035,0,.009,0,.017.009.035v.173c0,.009,0,.017-.009.035,0,.009,0,.017-.009.035,0,.009-.009.017-.017.026,0,.009-.009.017-.017.026,0,.009-.017.017-.017.026l-.026.026s-.017.017-.026.017-.017.017-.026.017c-.017,0-.026.017-.043.026-.017,0-.026.009-.043.017-.017,0-.026,0-.043.009h-.129c-.017,0-.026,0-.043-.017-.017,0-.026-.009-.043-.017-.017,0-.026-.017-.035-.026s-.026-.017-.035-.035-.017-.026-.035-.035c-.009-.009-.017-.026-.026-.035s-.017-.026-.017-.043-.009-.026-.017-.043v-.129c0-.017,0-.035.009-.043,0-.017.009-.026.017-.043,0-.017.017-.026.026-.043,0-.017.017-.026.026-.035.009-.009.017-.026.035-.035.009-.009.026-.017.035-.026s.026-.017.043-.026l-.052-.035Z"/>
  <path class="st2" d="M37.187,68.708c.009,0,.017-.009.035-.009.009,0,.017,0,.035-.009h.173c.009,0,.017,0,.035.009s.017,0,.035.009c.009,0,.017.009.026.017.009,0,.017.009.026.017.009,0,.017.017.026.017l.026.026s.017.017.017.026.009.017.017.026c0,.009.009.017.017.026,0,.009.009.017.009.035,0,.009,0,.017.009.035v.173c0,.009,0,.017-.009.035,0,.009,0,.017-.009.035,0,.009-.009.017-.017.026,0,.009-.009.017-.017.026,0,.009-.017.017-.017.026l-.026.026c-.009.009-.017.017-.026.017s-.017.009-.026.017c-.009,0-.017.009-.026.017-.009,0-.017.009-.035.009-.009,0-.017,0-.035.009h-.173c-.009,0-.017,0-.035-.009s-.017,0-.035-.009c-.009,0-.017-.009-.026-.017-.009,0-.017-.009-.026-.017-.009,0-.017-.017-.026-.017l-.026-.026s-.017-.017-.017-.026-.009-.017-.017-.026c0-.009-.009-.017-.017-.026,0-.009-.009-.017-.009-.035s0-.017-.009-.035v-.173c0-.009,0-.017.009-.035,0-.009,0-.017.009-.035,0-.009.009-.017.017-.026,0-.009.009-.017.017-.026,0-.009.017-.017.017-.026l.026-.026s.017-.017.026-.017.017-.009.026-.017c.009,0,.017-.009.026-.017Z"/>
  <path class="st2" d="M48.891,67.716h.147c.009,0,.017,0,.026.009.009,0,.017,0,.026.009.009,0,.017.009.026.017,0,0,.017.009.026.017,0,0,.017.009.026.017s.017.017.026.017c0,0,.017.017.017.026,0,0,.009.017.017.026s.009.017.017.026c0,.009.009.017.009.026s0,.017.009.026v.173c0,.009,0,.017-.009.026,0,.009,0,.017-.009.026,0,.009-.009.017-.017.026,0,.009-.009.017-.017.026,0,0-.009.017-.017.026l-.017.017s-.017.017-.026.017c0,0-.017.009-.026.017-.009,0-.017.009-.026.017-.009,0-.017,0-.026.009-.017,0-.026.009-.043.017h-.129c-.017,0-.026,0-.043-.009-.017,0-.026-.009-.043-.017-.017,0-.026-.017-.035-.026-.009,0-.026-.017-.035-.026l-.035-.035c-.009-.009-.017-.026-.026-.035,0-.009-.017-.026-.017-.043s-.009-.026-.017-.043c0-.017,0-.026-.009-.043s0-.026,0-.043v-.043c0-.017,0-.026.009-.043,0-.017.009-.026.017-.043,0-.017.009-.026.017-.043,0-.009.017-.026.026-.035.009-.009.017-.026.035-.035.009-.009.026-.017.035-.026.009-.009.026-.017.035-.026.017,0,.026-.009.043-.017.017,0,.026-.009.043-.009l-.009.026Z"/>
  <path class="st2" d="M39.413,68.527c.009,0,.017,0,.026-.009h.164c.009,0,.017,0,.026.009.009,0,.017,0,.026.017.009,0,.017.009.026.017,0,0,.017.009.026.017,0,0,.017.017.026.017,0,0,.017.017.017.026,0,0,.009.017.017.026,0,0,.009.017.017.026,0,.009.009.017.017.026s0,.017.009.026v.164c0,.009,0,.017-.009.026,0,.009,0,.017-.009.026,0,.009-.009.017-.017.026,0,.009-.009.017-.017.026,0,0-.009.017-.017.026,0,0-.017.017-.017.026,0,0-.017.017-.026.017,0,0-.017.009-.026.017,0,0-.017.009-.026.017-.017,0-.026.009-.043.017-.017,0-.026.009-.043.009h-.129c-.017,0-.026,0-.043-.009-.017,0-.026-.009-.043-.017-.017,0-.026-.017-.035-.026-.009,0-.026-.017-.035-.026-.009-.009-.017-.017-.026-.035-.009-.009-.017-.026-.026-.035,0-.009-.017-.026-.017-.043s-.009-.026-.017-.043c0-.017,0-.026-.009-.043v-.086c0-.017,0-.026.009-.043,0-.017.009-.026.017-.043,0-.017.009-.026.017-.043,0-.009.017-.026.026-.035.009-.009.017-.026.026-.035.009-.009.026-.017.035-.026.009,0,.026-.017.035-.026.017,0,.026-.009.043-.017l.026.035Z"/>
  <path class="st2" d="M46.422,67.836c.009,0,.017-.009.026-.017.009,0,.017,0,.026-.009h.19c.009,0,.017,0,.026.009.009,0,.017,0,.026.009s.017.009.026.017c.009,0,.017.009.026.017,0,0,.017.017.026.017,0,0,.017.017.017.026,0,0,.017.017.017.026,0,0,.009.017.017.026,0,.009.009.017.017.026,0,.009,0,.017.009.026v.181c0,.009,0,.017-.009.026,0,.009,0,.017-.009.026,0,.009-.009.017-.017.026,0,.009-.009.017-.017.026s-.009.017-.017.026c0,0-.017.017-.017.026,0,0-.017.017-.026.017,0,0-.017.009-.026.017-.009,0-.026.017-.035.017s-.026.009-.043.017c-.017,0-.026,0-.043.009h-.129c-.017,0-.026,0-.043-.017-.017,0-.026-.009-.035-.017-.009,0-.026-.017-.035-.026-.009,0-.026-.017-.035-.026-.009-.009-.017-.017-.026-.035-.009-.009-.017-.026-.026-.035,0-.009-.017-.026-.017-.035,0-.017-.009-.026-.017-.043v-.129c0-.017,0-.026.009-.043,0-.017.009-.026.017-.043,0-.017.009-.026.017-.035,0-.009.017-.026.026-.035.009-.009.017-.017.026-.035.009-.009.017-.017.035-.026.009,0,.026-.017.035-.026l.009.017Z"/>
  <path class="st2" d="M49.745,68.941c.017,0,.026,0,.043-.009h.129c.017,0,.026,0,.043.009.017,0,.026.009.035.017.009,0,.026.017.035.026.009,0,.026.017.035.026.009.009.017.017.026.035.009.009.017.026.026.035,0,.009.017.026.017.035,0,.017.009.026.017.043v.173c0,.017,0,.026-.017.043,0,.017-.009.026-.017.035,0,.009-.017.026-.026.035-.009.009-.017.026-.026.035-.009.009-.017.017-.035.026-.009,0-.026.017-.035.026-.009,0-.026.009-.035.017-.017,0-.026.009-.043.009h-.129c-.009,0-.017,0-.026-.009-.009,0-.017,0-.026-.009s-.017-.009-.026-.017c0,0-.017-.009-.026-.017,0,0-.017-.009-.026-.017l-.017-.017s-.017-.017-.017-.026-.009-.017-.017-.026c0,0-.009-.017-.017-.026,0-.009,0-.017-.009-.026,0-.009,0-.017-.009-.026v-.155c0-.009,0-.017.009-.026,0-.009,0-.017.009-.026,0-.009.009-.017.017-.026,0,0,.009-.017.017-.026,0,0,.009-.017.017-.026,0,0,.017-.017.026-.017,0,0,.017-.009.026-.017,0,0,.017-.009.026-.017.009,0,.017-.009.026-.017.009,0,.017,0,.026-.009l-.026-.035Z"/>
  <path class="st2" d="M35.098,68.846c.017,0,.026,0,.043-.009s.026,0,.043,0h.086c.017,0,.026,0,.043.009.017,0,.026.009.035.017.009,0,.026.017.035.017s.026.017.035.026.017.017.026.035c.009.009.017.026.026.035,0,.009.017.026.017.035s.009.026.017.043c0,.017,0,.026.009.043v.129c0,.017,0,.026-.009.043s-.009.026-.017.035c0,.009-.017.026-.026.035,0,.009-.017.026-.026.035-.009.009-.017.017-.035.026-.009.009-.026.017-.035.026-.009,0-.026.017-.035.017-.017,0-.026.009-.043.017h-.155c-.009,0-.017,0-.026-.009-.009,0-.017,0-.026-.017-.009,0-.017-.009-.026-.017,0,0-.017-.009-.026-.017,0,0-.017-.017-.026-.017,0,0-.017-.017-.017-.026,0,0-.009-.017-.017-.026,0,0-.009-.017-.017-.026,0-.009-.009-.017-.017-.026,0-.009,0-.017-.009-.026v-.155c0-.009,0-.017.009-.026,0-.009,0-.017.009-.026,0-.009.009-.017.017-.026,0,0,.009-.017.017-.026,0,0,.009-.017.017-.026l.017-.017s.017-.009.026-.017c0,0,.017-.009.026-.017.009,0,.017-.009.026-.017.009,0,.017,0,.026-.009l-.017-.043Z"/>
  <path class="st13" d="M39.094,101.508c.095.043.19.052.293.06,1.044.095,1.044,1.105,1.795,1.545-.199.121-.432.112-.656.155-1.062.216-2.123.501-2.866,1.338-.173.199-.457.501-.44.777.423.069,1.303-.829,1.692-1.053.768-.449,1.64-.337,2.417-.682.035.052.069.086.129.112.449.276.768.708,1.2.975-.268.147-.578.121-.88.147-1.044.104-2.097.345-2.943.993-.207.155-.371.302-.406.57.06.147.069.138.216.216.561.017,1.053-.63,1.562-.872.829-.388,1.864-.164,2.564-.501.173.233.501.432.725.63.656.596,1.873,1.856,1.942,2.753.017.224-.078.432-.224.596-.164.406-.501.682-.88.88-1.787.949-4.532.647-6.396.052-2.046-.647-6.051-3.263-7.009-5.118.147-1.088.716-2.089.975-3.15.035.086.069.164.112.242.501.872,1.735,1.372,2.658,1.631.345.095,1.062.276,1.398.095.199-.19.293-.621.423-.872.345-.665,1.139-1.079,1.821-1.295.25-.078.501-.104.742-.216.009,0,.026-.009.035-.017v.009Z"/>
  <path class="st13" d="M52.516,99.816c.699.259,1.088-.155,1.769.509.276.268.673.803,1.027.915-.397.199-1.062.173-1.519.276-.647.155-1.631.639-1.977,1.217-.104.173-.164.337-.121.535l.121.052c.621-.164.975-.88,1.562-1.113.026-.009.052-.017.078-.026.535-.207,1.355-.328,1.933-.302.483.017.984.112,1.329.492-.078.129-.423.095-.587.104-.751.052-1.511.199-2.149.621-.388.259-.742.621-.829,1.105-.026.138-.017.164.052.276.535.017.924-.924,1.476-1.139.889-.345,1.89-.527,2.797-.129.984.432,1.959,1.562,2.339,2.555.164.432.259.967.035,1.398-.078.147-.164.25-.319.302-.043.069-.095.129-.155.19-.613.596-1.83.63-2.633.647-.958.017-1.899,0-2.84-.224-1.683-.397-7.725-2.952-8.89-4.117-.233-.242-.285-.527-.285-.855,0-.423.423-2.607.682-2.866.285.078.63.544.915.734,1.019.699,2.917,1.416,4.178,1.157.017,0,.026,0,.043-.009.242-.88.483-1.545,1.312-2.002.199-.112.406-.173.604-.285l.043-.026.009.009Z"/>
  <path class="st7" d="M24.714,84.961c.043.035.052.043.104.069.44.207,1.467.423,1.899.216-.043,2.33-.293,4.696-.466,7.017l-.665,9.296-.535,6.974c-.086,1.07-.112,2.175-.25,3.237-.026.199-.06.354-.207.501-.043.086-.112.181-.19.242-.199.155-.501.19-.742.155-.216-.035-.406-.155-.527-.345-.216-.328-.242-.751-.233-1.122.026-1.226.199-2.46.268-3.694.25-4.247.535-8.493.846-12.74l.44-6.422c.078-1.105.06-2.296.259-3.384h0Z"/>
  <path class="st7" d="M69.019,80.594h.164c.104.173.112.337.129.527.363,3.703.578,7.432.898,11.143.388,4.506.863,9.028,1.139,13.543.017.354.095,1.044-.155,1.312-.173.181-.432.233-.673.224-.276,0-.466-.052-.656-.25l-.112-.06c-.129-.216-.164-.466-.199-.716-.112-.777-.147-1.588-.216-2.374l-.466-5.067c-.535-5.99-.993-12.015-1.649-17.988.613-.052,1.2-.164,1.804-.293h-.009Z"/>
  <path class="st8" d="M32.949,59.826c1.07-.078,2.089-.035,3.073.449,1.597.794,2.676,2.192,3.228,3.867-.311.233-.604.414-.958.578-.691-.949-1.338-1.813-2.218-2.589-.224-.199-.734-.682-1.053-.63-.095.017-.112.06-.173.138-.017.147-.043.233.052.363.199.259.604.501.855.725.647.57,1.692,1.709,2.028,2.486.112.259.104.527,0,.785-.078.199-.181.319-.38.397-.155,0-.268,0-.388-.121-.268-.302-.475-.725-.725-1.053-.561-.76-1.761-2.02-2.607-2.374-.164-.069-.268-.095-.432-.026-.009.06-.017.095-.009.155.035.276.216.414.423.578.829.596,2.184,1.821,2.598,2.745.095.216.078.328,0,.527-.069.069-.129.121-.224.147-.285.095-.552.06-.794-.112-.268-.181-.475-.501-.682-.742-.449-.509-1.122-1.105-1.735-1.381-.25-.121-.501-.19-.768-.095l-.043.112c.095.302,1.528,1.26,1.873,1.571.285.259.716.604.742,1.019-.086.129-.121.19-.276.216-.432.06-1.131-.449-1.502-.656-1.027-.57-2.658-.552-3.409-1.088-.38-.276-.578-.691-.647-1.148-.164-1.088.199-2.365.863-3.228.829-1.079,2.002-1.441,3.297-1.614h-.009Z"/>
  <path class="st8" d="M48.295,58.532c.932.035,1.83.216,2.641.708.734.44,1.303,1.131,1.493,1.977.181.785.026,1.571-.406,2.253-.535.837-2.486,2.658-3.47,2.848-.164.035-.216.043-.354-.052-.121-.811,1.657-2.27,1.735-3.133l-.086-.086c-1.036-.078-1.968,2.986-2.805,3.28-.147.052-.345.052-.483-.035s-.19-.207-.216-.371c-.086-.725,1.07-2.236,1.502-2.814.138-.164.354-.388.388-.604.026-.164.009-.224-.086-.354-.587-.017-1.735,1.882-2.002,2.4-.155.293-.293,1.096-.544,1.26-.19.121-.544.121-.751.043-.164-.06-.25-.155-.311-.319-.268-.751,1.338-2.667,1.605-3.418.069-.199.06-.224-.026-.397l-.138-.043c-.915.38-1.933,3.297-2.313,3.504-.155.086-.224.095-.397.052-.164-.181-.199-.388-.216-.621-.112-1.519,1.027-3.444,2.011-4.566.915-1.036,1.873-1.433,3.22-1.511h.009Z"/>
  <path class="st7" d="M10.498,75.622c.561.388,1.183.742,1.709,1.191l-1.718,14.587-.734,6.266c-.129,1.07-.216,2.166-.406,3.228-.035.199-.06.388-.199.544l-.138.199c-.181.095-.345.138-.561.129-.242-.017-.492-.104-.647-.302-.19-.233-.129-.63-.112-.915.06-.993.216-1.994.328-2.986l.518-4.696,1.968-17.254-.009.009Z"/>
  <path class="st10" d="M10.239,46.025c.397-.026.958-.129,1.338-.026.164.043.199.086.285.224-.009.414-.035.924-.259,1.286-.242.388-.673.397-1.07.509-.199.052-.38.155-.475.345-.104.216-.052.466.035.673.207.527.742,1.2,1.286,1.407.527.199,1.329.035,1.821-.199-.561,2.374-.811,4.825-.587,7.268.017.311.078.63.129.941-.967-.086-2.244.527-3.142.121-.345-.155-.544-.561-.656-.906-.25-.768-.207-8.64-.121-9.9.026-.328.052-.699.216-.993.259-.466.699-.63,1.183-.76l.017.009Z"/>
  <path class="st8" d="M27.64,38.861c.811.268,1.58.794,2.374,1.122,3.064,1.277,6.387,1.838,9.659,1.079-.19.457-.397.915-.621,1.355-.224.44-.475.872-.734,1.295-.337.527-.673,1.062-.993,1.597-.561-.276-1.096-.621-1.64-.924-1.295-.708-2.572-1.441-3.841-2.184-.975-.578-2.572-1.416-3.392-2.158-.337-.311-.57-.794-.811-1.183h0Z"/>
  <path class="st10" d="M10.731,44.678c.242-.035.518-.017.768-.026l.285.647c-1.019-.043-2.21-.043-3.004.691-.363.337-.492.725-.578,1.2-.233,1.312-.095,3.297-.086,4.67,0,1.623-.086,3.297,0,4.911.026.501.268,1.062.224,1.554v.086c-.129-.069-.268-.147-.388-.224-.552-.371-.803-.794-.924-1.441-.293-1.571-.138-4.065-.138-5.731,0-1.329-.104-2.753.035-4.074.043-.397.147-.932.388-1.252.647-.872,2.451-.898,3.435-1.001l-.017-.009Z"/>
  <path class="st11" d="M28.909,59.421c.656-.095,1.139.06,1.718.371-.259.138-.509.285-.734.466-1.252.993-1.89,2.753-1.718,4.324.035.293.259.898.233,1.131l-.207.052c-.371,0-.794,0-1.139-.147-.38-.155-.656-.449-.803-.829-.337-.88-.138-2.046.233-2.883.492-1.113,1.277-2.037,2.417-2.494v.009Z"/>
  <path class="st12" d="M33.311,53.646c.311.199,2.961,5.36,3.522,6.275l-.993-.466c-.406-.164-.829-.25-1.252-.345-.242-.691-.673-1.347-1.027-1.985l-1.597-2.831c.423-.25.906-.449,1.347-.656v.009Z"/>
  <path class="st11" d="M43.617,60.413c.052,0,.129.009.181.017,0,.129,0,.155-.086.259-.268.302-.708.535-1.027.785-.371.285-.673.621-.984.975-.785.06-1.571.121-2.348.19l-.293-.475c-.319-.432-.665-.837-1.019-1.243l5.576-.501v-.009Z"/>
  <path class="st8" d="M32.327,100.843c.129.052.268.104.406.155.898.328,3.34.88,4.195.483-.173.319-.509.768-.811.967-.121.259-.233.544-.414.777-.095.035-.181.052-.285.043-.924-.052-2.227-.578-2.831-1.295-.319-.371-.302-.673-.259-1.139v.009Z"/>
  <path class="st8" d="M45.887,99.134c.432.233.941.397,1.416.527.811.216,3.021.587,3.729.173-.121.328-.397.725-.647.958-.078.242-.147.492-.259.725-.104.017-.199.026-.302.026-1.157-.043-2.788-.613-3.565-1.459-.268-.293-.397-.544-.38-.949h.009Z"/>
  <path class="st5" d="M30.722,105.867c.06.052.035.026.086.086.958,1.329,2.4,2.33,3.703,3.306,2.175,1.631,5.369,2.52,8.062,2.054.518-.086,1.036-.233,1.536-.388.25-.078.483-.207.742-.242l-.112.086c-.026.043-.052.086-.086.129-.345.44-2.261.811-2.831.872-.993.104-1.916-.009-2.892-.216-2.917-.604-4.342-1.735-6.612-3.582-.682-.552-1.493-1.191-1.588-2.115l-.009.009Z"/>
  <path class="st7" d="M11.568,59.309c.112-.017.224-.017.337-.009.095.302-.035,2.028-.052,2.494l-1.657.095-.233.017c-.259-.268-.104-2.08-.095-2.477.578,0,1.131-.052,1.7-.121h0Z"/>
  <path class="st5" d="M45.499,105.219c2.175,1.148,5.714,2.883,8.019,3.504.38.104.768.19,1.165.242.397.052.785.086,1.183.095,1.07.017,2.072-.25,3.133-.363h-.026c-.224.268-.742.38-1.079.475-3.012.794-6.033-.475-8.7-1.761-.906-.44-1.813-.863-2.684-1.372-.311-.181-.915-.449-1.019-.82h.009Z"/>
  <path class="st11" d="M30.592,49.952c.129,0,.25.009.38.052.587.19.975,1.165,1.226,1.683l-.811.432-.578.285c-.026-.035-.052-.069-.078-.104-.328-.457-.742-1.191-.621-1.778.06-.302.242-.414.492-.561l-.009-.009Z"/>
  <path class="st4" d="M32.413,52.214c.311.121.483.613.621.898l-1.312.682c-.276-.086-.509-.647-.656-.898l1.347-.682Z"/>
  <path class="st4" d="M39.474,64.772l.112.043c.164.328.345.716.345,1.079,0,.242-.052.311-.207.483-.173.06-.268.086-.449.052-.354-.328-.535-.76-.751-1.174.363-.121.639-.268.958-.483h-.009Z"/>
  <path class="st8" d="M42.987,62.002c.017.293-.354,1.252-.509,1.493-.086.138-.164.129-.302.164-.095-.181-.129-.328-.095-.527.095-.535.501-.837.906-1.139v.009Z"/>
</svg>