<?xml version="1.0" encoding="UTF-8"?>
<svg id="Layer_1" xmlns="http://www.w3.org/2000/svg" width="80" height="115" xmlns:xlink="http://www.w3.org/1999/xlink" version="1.1" viewBox="0 0 80 115">
  <!-- Generator: Adobe Illustrator 29.4.0, SVG Export Plug-In . SVG Version: 2.1.0 Build 152)  -->
  <defs>
    <style>
      .st0 {
        fill: #d18d67;
      }

      .st1 {
        fill: url(#linear-gradient1);
      }

      .st2 {
        fill: #764f2f;
      }

      .st3 {
        fill: #414042;
      }

      .st4 {
        fill: #92623a;
      }

      .st5 {
        fill: #684729;
      }

      .st6 {
        fill: #593c23;
      }

      .st7 {
        fill: url(#linear-gradient);
      }

      .st8 {
        fill: #9d8a74;
      }

      .st9 {
        fill: #bfa885;
      }

      .st10 {
        fill: #805d3d;
      }

      .st11 {
        fill: #fff;
      }

      .st12 {
        fill: #c38364;
      }

      .st13 {
        fill: #474951;
      }

      .st14 {
        fill: #6392a6;
      }

      .st15 {
        fill: #f1b053;
      }

      .st16 {
        fill: #7fbacc;
      }

      .st17 {
        fill: #f3b189;
      }

      .st18 {
        fill: #42546b;
      }

      .st19 {
        fill: #9b6e43;
      }
    </style>
    <linearGradient id="linear-gradient" x1="31.643" y1="2377.456" x2="33.443" y2="2376.056" gradientTransform="translate(0 -2318)" gradientUnits="userSpaceOnUse">
      <stop offset="0" stop-color="#b07039"/>
      <stop offset="1" stop-color="#cf8441"/>
    </linearGradient>
    <linearGradient id="linear-gradient1" x1="38.368" y1="2379.395" x2="38.468" y2="2378.795" gradientTransform="translate(0 -2318)" gradientUnits="userSpaceOnUse">
      <stop offset="0" stop-color="#4f464d"/>
      <stop offset="1" stop-color="#3f4a5e"/>
    </linearGradient>
  </defs>
  <polygon class="st11" points="26.3 43.273 46.5 48.2 46.5 64.88 59.666 73.246 34.252 76.897 27.252 71.85 30.95 61.573 26.3 43.273"/>
  <path class="st3" d="M41.9,1.5c1.6,0,2.9.9,4.1,1.9.9-1.5,2.7.6,3.2,1.6.9-1.3,2.2-.6,2.5.7,7.9.9,6.9,10.6,4.7,16.1-1,8,.5,17.7-5.1,24.1,4.8,3.7,10.4,10.4,9.2,16.8,4.9,3.4,11.6,5.6,15.3,10.2.4,2.2,0,6-2.7,6.5,0,2,.5,4.4-1.3,5.8-.9,3.3,4.1,28.7-2.7,23.6-1.2-7.3-.8-15.4-1.3-22.8-3.8.3-7.6.9-11.5,1.1-.9,3.6-1.2,7.5-2.7,10.9.8,3.6,6.6,4.7,5.5,8.9-3.5,6.1-13.6,1-16.8-3-.7-1.3.4-4.2.8-5.6-2.6-2.3.3-6.7.2-9.8-1.2,0-2.4.2-3.5.4-.7,3.5-.3,7.9-1.8,11,.7,3.6,3.8,3.8,5.7,6.8,2.8,8.4-10.4,6.4-13.9,2.2-3.8-1.5-3.4-5.3-2.2-8.5-2.4-2.6-.2-7.1-.4-10.4h-1c-.2,7-.2,14.9-.4,21.9-.2,2.3-3.7,2-3.7-.2,0-7.6.2-15.3.6-23-3.9-2.2-7.6-5-11.3-7.5-.3,3.3-1,10.7-1.3,14.1-.4,2.4.4,11.6-4.2,7.6-.2-7.3,1.2-17.1,1.9-24.5-.8-1.5-.4-4.1-.4-5.9-4.4-1.4-4.6-9,.7-9-5.7-1.6-2.6-8.9-3.4-13.3-.3-4.6,6-4.3,9.1-4.6,2.1-3.4,5.8-5.7,9.6-6.8-.2-.6-.3-1.1-.4-1.7-5.5-.1-8.9-12.2-2.8-13.4-.9-1.8-1.1-3.9-.7-5.8-1.2-.5-.2-2.6,0-3.4-2.4-1,1-4.6,1.9-5.7,3.4-3.5,8-5.3,12.7-5.4,0-.5,0-.9.5-1.1,1,0,1.8.2,2.7.5.1-1.9,2.5-.7,3.4-.1.2-.6.6-1,1.3-1.1l-.1-.1ZM48.2,70.7c-1.7.8-3.9-.2-4.8-1.8-.5.2-1.1.2-1.7.3v.9c.3.3.4.7.5,1.1-.5,2.5-3.5.2-1.6-1.2,0-.3,0-.6.1-.9-.9,1.5-4.1,4.9-5.9,3.9-1.8,1.8-4,0-5.8-.7,3.2,2.5,6.8,4.5,10.8,3.2,6.1-.9,12.9-1.3,18.9-2.3-2.1-1.5-4.5-2.8-6.7-4.3.2,2.1-2.5,3-4,1.9l.2-.1ZM29.3,50.7c-.2-.3-.3-.6-.6-.8,1,3.5,4.4,5.6,6.3,8.6-.2-2.4-.5-4.9.4-7.3-2.1,2.2-4.6,2.3-6.1-.6v.1ZM43.6,52c.2-.8.5-1.6.7-2.4-1.2,0-2.3.2-3.5.3.7,1,1.7,1.7,2.8,2.1ZM41.8,60c.6-2.4,1-4.8,1.6-7.2-1-.2-2.1-.8-2.7-1.7-1.1,3.3.5,6.8,1,10.2,0-.4,0-.8.1-1.2v-.1ZM26.7,44.3c1.4,2.4,2.7,6.7,5.6,7.8,1.5-.6,2.9-1.6,3.8-2.9-3.5-.5-6.8-2.6-9.4-4.9Z"/>
  <path class="st17" d="M34.9,9.8c4.1-.6,6.8,2.5,10.5,3.6,2.1.1,3.6-2,5.8-2,4.7.7,4.2,9.4,4.5,13-2.1-2.1-9.2-3.2-9.1.9,2.8.3,6,.5,8.9.8-.8,8.1,0,19.5-9.8,22.1-8.8,2.7-20.4-2.2-22.1-11.9-6.7.4-8-17.3-.5-9.8,2.5,6.9,2.7-4.2,4.9-5.9-3.3-5,1.5-10.9,6.9-10.9v.1Z"/>
  <path class="st3" d="M36.4,21.9c2.3-.1,5.6.4,6.4,2.8-1.1,1.3-4.2,0-6,.5-1.6,0-4.5.4-6,.2-.2-2.6,3.6-3.5,5.6-3.6v.1Z"/>
  <path class="st9" d="M36.8,22.7c1.8,0,3.7.3,4.8,1.7-3.3,0-6.6,0-9.9.2,1.1-1.5,3.3-1.8,5-1.9h.1Z"/>
  <path class="st3" d="M45.5,28.8c1,0,1.4,3.8,1.7,4.6,1.4,4.3-4.3,5.6-6.4,2.5.3-1.9,1.9,1.3,3.9.9,4.1-.5,0-5.8.8-8Z"/>
  <path class="st3" d="M37.6,39.6c2.9,2.8,6.7,1.4,9.9.8-.7,2.7-10.9,2.3-9.9-.8Z"/>
  <path class="st3" d="M53.5,29.1c1.5,1.1-2.4,3.7-3.7,3.1-1-.1-3-1.6-2-2.6,2,2.7,3.9,2.1,5.7-.5Z"/>
  <path class="st3" d="M39.4,29.1c1.2.9-1.2,2.5-2.1,2.6-1.3.5-4.3-1-3.2-2.4,1.7,2.5,3.7,2.1,5.3-.2Z"/>
  <path class="st3" d="M19.6,26.6c2.1.3,2.6,3.8,2.5,5.5h-.4c-1.3-1.1,0-4.6-2.2-5.6l.1.1Z"/>
  <path class="st3" d="M41.1,19.3c1.8,0,6.5-.2,8,.6-3.2-.1-6.8-.3-9.9-.5h0c.7,0,1.3-.1,2-.1h-.1Z"/>
  <path class="st3" d="M37.4,35.9h0c-1,2.2-2.6,4.1-3.3,6.5h-.1c-.2-1.8,2.1-5.1,3.3-6.4l.1-.1Z"/>
  <path class="st3" d="M49.3,37.2c.8.6.3,3.8.1,4.8h0c-.2-1.2.2-3.4,0-4.8h-.1Z"/>
  <path class="st3" d="M42.9,22.6h.1c.3.5.4,1.2.3,1.8h-.2c-.3-.4-.2-1.2-.3-1.7l.1-.1Z"/>
  <path class="st3" d="M31,30.7h.8c-.4.2-1,.5-1.5.2.2-.2.4-.2.6-.3l.1.1Z"/>
  <path class="st3" d="M31.1,29.8h.4c0,.1.1,0,.1,0h0c-.5.1-1,.2-1.5.1.3-.2.6-.3.9-.3l.1.2Z"/>
  <path class="st3" d="M44,22.7c.4.2.6.7.5,1.1-.3-.3-.7-.6-.5-1.1Z"/>
  <path class="st4" d="M16.1,43.7c.8-1,3.7-2.9,5-3.2h.2c.1,0,0-.1.2-.2,0,.3,0,.7-.2.8h.1s.1-.2.2-.2c0,.5.2,1.3,0,1.8h0c.5,0,.3,1.3.3,1.6h-.3s.2,0,.3.1c.1.3-.3.5-.5.8h0c.2,0,.3-.1.4-.3h0c0,.2-.1.3-.2.4,0,0,.1.1.2.2,0,.2-.3.4-.3.5h.3l-.3.3h-.1v-.3h0l-.1.2c0,.1.1.2.2.3,0,.2-.2,0-.2.3.2.2.6.4.6.7h-.3.2c-.4.4.6.8-.3,1.2h.1c.1-.1.2-.2.4-.2h0c0,.3-.6.8-.8.9h0c.4,0,.5-.6,1-.6-.1.2-.2.2-.3.4h0c.2-.2.4-.4.5-.7h0c-.4-.5.2-.8.4-1.2,0,0-.2.2-.4.1,0-.1.4-.3.5-.4h-.4c.1-.2.2-.1.3-.1h0l-.2-.2c0-.1.1-.2.2-.3-.2,0-.2.1-.4,0-.3-1.1,0-1,.4-1.2h0v-.1h-.1c-.5,0-.5-.6-.4-1,.1.3.4.6.7.5h0c-.1-.2-.1,0-.3,0-.2-.2-.5-.6-.5-.9.4.2.3.5.8.7-.3-.2,0-.5.1-.6h.2c.1.1.2,0,.2,0h.3l-.2-.2h0c0-.1,0-.2.2-.2.1,0,.2.1.3.1h0l-.2-.3c0-.2.1-.3.2-.5.2,0,.4-.2.7-.1,0-.1-.1-.1-.2-.2h.3c.2.4-.1.7-.3,1,.2-.2.4-.4.6-.5v.3h-.2c.1.2.3.2.5.2h0l-.1.2h0c.5,0,.2.7.5.9h.1-.1.2c.2.2.3.5.4.7h-.1c0,.5.5.9.5,1.4.6,0,.2,1.3.8,1.5h.3l-.1.1c.1.8.9,1.3,1,2.2-.3-.5-.7-.9-1-1.4,0,.3.2.6-.1.9.3-.2.5.3.5.5-.2-.2-.6-.4-.8-.4,0,.1.1.2.2.3h.3c0,.2-.3.2-.5.2h0q.1.2.3.2c.1,0,.2-.1.4-.2h.1v.3h.2c-.1.2-.4.1-.5.2h.5c-.2.2-.4.2-.6.5.2.4.1.9.1,1.4h.3v.2h-.3c.1.1.3.1.4.2-.1.1-.2.2-.3.4h.2c.1,0,0,0,.2.1.3-.1.6-.4.9-.6.5.7,1.1,1.4,1.4,2.2h0v.1c0,.4,0,1,.2,1.4h.2l.3-.6h-.2l.3-.4c1,.5,4.4,5.3,4.9,6.4-.7,0-1.4,0-2.1.2-.6-.4-1-.7-1.4-1.3-.4.3,0,1.1-.6,1.1h0c0-.2.1-.2.2-.2-.2-.3-.5-.7-.7-1h0c0-.1-.1,0-.1,0,0,.5.6.5.3,1,0,0-.2,0-.2.1.1.1.3,0,.4,0-.2.5-1.1,0-1.4.2h.4c-.1.2-1.4.4-1.7.4,0,0-.2-.1-.3-.1h0v.2c-.2.1-.4.3-.7.4-.2,0-.3-.3-.5-.3,0,.2.3.2.2.4h0c-.2,0-.3-.2-.5-.3,0,.1-.1.2-.2.3v-.2c-.1.1-.3,0-.4,0h0c0-.1-.1-.2-.1-.2h-.1c0,.2.2.3.1.4-.1,0-.3,0-.4.1h0c.2,0,.5,0,.7.1h0c-1.4,1.7-2.6,3.6-2.9,5.7h0c-.2,0-.4.2-.5.4-.2,0-.4,0-.6-.2v.2c.3.1.4,0,.6,0,.2-.2.3-.4.5-.6v.9c0,.1-.2.2-.2.4h0c.1,0,.3-.2.4-.3.2.3.3.5.5.7h-1v-.2h0v.2h-.4v-.2h-.1v.2c-.4,0-1.3,0-1.7-.2,0-.1.1-.2.1-.3-.1,0-.2.2-.3.3-.9-.2-1.5-.3-2.4-.4,0-.1.1-.3.2-.4q-.1,0-.3-.1h0l.2.2q0,.2-.1.3c-.2,0-1-.2-1.2-.3h.1c-1.9,0-4.4-1.5-5.5-2.9.1,0,0,0,.1-.1,0,0-.1,0-.2.1-.9-.7-1.9-2.5-1.8-3.6h.2c-.3,0-.3-.1-.5-.4q0-.2.2-.3h0l-.2-.3h.2c0-.3-.3-.3-.4-.5,0-.3.4-.3.5-.5h0c-.2,0-.3,0-.5-.1-.5-2.6.8-.7,2.1-1.7q.1,0,.2.2h-.2v.3h.4c0-.1.1-.2.1-.3h-.3v-.2h-.7q0-.2.2-.2h.2c.1.1.2,0,.3,0h0l.1.2c.3-.2.3-.4.6-.5h-.5c.1,0,.1.1.2.2-.2.2-2.1,0-2.5,0v.2c0,.1,0,.2.2.3,0,0-.3,0-.4.1,0-2.1.2-4.2.6-6.3.3-.2.6-.5.8-.7h0c0,.2-.5.4-.7.6.2-1.1,1.3-5.8,2.6-6.2h-.2c.5-1.2,1.5-2.4,2.4-3.5l.2-.1Z"/>
  <path class="st4" d="M21.2,64.1h1.5-.2c0-.2.2-.3.3-.5h-.4l.2-.2c-.1,0-.3-.2-.4-.1h.2c.1,0,0,0,.1-.2-.1,0-.2.1-.3.2-.2,0-.4-.3-.4-.5.2,0,.3.3.5,0h0q-.1-.1-.2-.2s.5,0,.7-.2v-.2h0l-.2.2c-.1,0-.2-.2-.3-.3h.5c-.1-.1-.2-.1-.4-.1v-.2h-.3v-.2c.2-.2.4-.4.6-.6.1,0,.2.1.3.2h.1c.3,0,.8.2,1,.5h0c-.1.1-.2.1-.3.2h.4c.2,0,.3.2.5.3h.3c.1,0,.2.1.2.3v.3h0v-.2h.3l.2.2h0v.2h.3c.2,0,.3.2.4.3h0c0,.1.2.2.2.2h0c0-.2,0-.3-.1-.5h.2c.1.2.5.5.7.5v.3c-.1,0-.3,0-.4.1h0c.2,0,.5,0,.7.1h0c-1.4,1.7-2.6,3.6-2.9,5.7h0c-.2,0-.4.2-.5.4-.2,0-.4,0-.6-.2v.2c.3.1.4,0,.6,0,.2-.2.3-.4.5-.6v.9c0,.1-.2.2-.2.4h0c.1,0,.3-.2.4-.3.2.3.3.5.5.7h-1v-.2h0v.2h-.4v-.2h-.1v.2c-.4,0-1.3,0-1.7-.2,0-.1.1-.2.1-.3-.1,0-.2.2-.3.3-.9-.2-1.5-.3-2.4-.4,0-.1.1-.3.2-.4q-.1,0-.3-.1h0l.2.2q0,.2-.1.3c-.2,0-1-.2-1.2-.3h.1c-1.9,0-4.4-1.5-5.5-2.9.1,0,0,0,.1-.1,0,0-.1,0-.2.1-.9-.7-1.9-2.5-1.8-3.6h.2v-.2s-.1,0-.3-.1h0c0-.2.2-.2.3-.3,0-.3-.2-.2,0-.4h0c-.1-.2-.2-.2-.3-.3h.4-.2v-.2h.1c.3,0,.5.2.6.4h0c0,.2-.1.2-.2.3.3,0,.6,0,.9.2.2-.3.5-.1.8,0h0c-.2.2-.3.1-.5,0h0v.2h.6l-.3.1h0c.1.1.3,0,.4,0h0v.3h.3v.2c-.1,0,0,0,0,0,.6-.5,1.5-.1,2.2-.3h-.4l.2-.2h0c-.2-.1-.2,0-.4,0q0-.1.2-.2h-.3c.3-.2.6-.2.9-.4h0l-.4-.1h0c.4-.3.7,0,.9.3,0-.3-.3-.4-.3-.6h.1l.2.1c0-.1,0-.2-.1-.2h.4c0-.2-.3-.5,0-.5v.2c.3.1.7,0,.9-.2v-.4h.2c.2,0,.2-.3.4-.2,0,.2-.3.3-.2.5.1.1.3,0,.4-.1h0q0,.2-.2.3h-.6c.4.2,1,.6,1.4.5h-.2v-.1h.4c0,.1.1.2.2.3.1,0,.2,0,.3-.2-.2,0-.4,0-.5-.2q0-.1.2-.2h1.2c0,.2,0,.3-.2.5.1,0,.2-.2.4-.2h0c-.2.2-.2.5,0,.7h-.2s.1.1.2.2c-.2.1-.5,0-.6,0,.2,0,.3.1.4.2l.2-.2v.3c.2,0,.3-.2.6-.2.2.1.2.3.1.4h0l-.1-.2h0s-.2,0-.3.1c0,0,.2,0,.3.1h0c-.2.1-.2,0-.4,0h0c.2.2.4,0,.6,0h0v.2c-.2,0-.4,0-.6.2l-.3-.1Z"/>
  <path class="st10" d="M21.2,64.1h1.5-.2c0-.2.2-.3.3-.5h-.4l.2-.2c-.1,0-.3-.2-.4-.1h.2c.1,0,0,0,.1-.2-.1,0-.2.1-.3.2-.2,0-.4-.3-.4-.5.2,0,.3.3.5,0h0q-.1-.1-.2-.2s.5,0,.7-.2v-.2h0l-.2.2c-.1,0-.2-.2-.3-.3h.5c-.1-.1-.2-.1-.4-.1v-.2h-.3v-.2c.2-.2.4-.4.6-.6.1,0,.2.1.3.2h.1c.3,0,.8.2,1,.5h0c-.1.1-.2.1-.3.2h.4c.2,0,.3.2.5.3h.3c.1,0,.2.1.2.3v.3h0v-.2h.3l.2.2h0v.2h.3c.2,0,.3.2.4.3h0c0,.1.2.2.2.2h0c0-.2,0-.3-.1-.5h.2c.1.2.5.5.7.5v.3c-.1,0-.3,0-.4.1h0c.2,0,.5,0,.7.1h0c-.8.9-1.6,2.2-2.1,3.1h-.3v.3h-.3c0,.2.2,0,.3.2-.2.1-.5,0-.8,0h0c.1-.2.3-.3.3-.5-.2,0-.2.1-.4.2-.3,0-.4-.4-.7-.4h0v.2c.3,0,.5.3.5.5-.2.2-.4,0-.6.3h0c.2,0,.5,0,.6.1q0,.1-.2.2c0-.2-.1-.2-.3-.2,0,.1,0,.2.1.3h0c-.2,0-.3-.3-.5-.3v.2h-.2c-.3-.2-.4-.5-.5-.8h.5-.2c0-.2-.2-.2-.3-.3h0c.2,0,.4.1.6.3h0c0-.2,0-.3-.2-.4h.3v-.2h-.2c0-.2.1-.1.2-.3-.3-.2-.3.2-.6.3q0-.1-.2-.2s-.2.1-.3.2h0c0-.2.2-.3.3-.4-.2,0-.3.1-.5,0h0c-.2-.4-.5-.5-.7-.7h.4s0-.2-.1-.3h.6c.1-.1.2-.3,0-.4h-.2v-.2c-.1-.5-.6-.4-1-.4,0-.2.2,0,.3-.2,0-.2-.1-.2-.1-.4v.3Z"/>
  <path class="st19" d="M24.4,43.1c.2,0,.4-.2.7-.1,0-.1-.1-.1-.2-.2h.3c.2.4-.1.7-.3,1,.2-.2.4-.4.6-.5v.3h-.2c.1.2.3.2.5.2h0l-.1.2h0c.5,0,.2.7.5.9h.1-.1.2c.2.2.3.5.4.7h-.1c0,.5.5.9.5,1.4.6,0,.2,1.3.8,1.5h.3l-.1.1c.1.8.9,1.3,1,2.2-.3-.5-.7-.9-1-1.4,0,.3.2.6-.1.9.3-.2.5.3.5.5-.2-.2-.6-.4-.8-.4,0,.1.1.2.2.3h.3c0,.2-.3.2-.5.2h0q.1.2.3.2c.1,0,.2-.1.4-.2h.1v.3h.2c-.1.2-.4.1-.5.2h.5c-.2.2-.4.2-.6.5.2.4.1.9.1,1.4h.3v.2h-.3c.1.1.3.1.4.2-.1.1-.2.2-.3.4h.2c.1,0,0,0,.2.1.3-.1.6-.4.9-.6.5.7,1.1,1.4,1.4,2.2h0v.1c0,.4,0,1,.2,1.4h.2l.3-.6h-.2l.3-.4c1,.5,4.4,5.3,4.9,6.4-.7,0-1.4,0-2.1.2-.6-.4-1-.7-1.4-1.3-.4.3,0,1.1-.6,1.1h0c0-.2.1-.2.2-.2-.2-.3-.5-.7-.7-1h0c0-.1-.1,0-.1,0,0,.5.6.5.3,1,0,0-.2,0-.2.1.1.1.3,0,.4,0-.2.5-1.1,0-1.4.2h.4c-.1.2-1.4.4-1.7.4,0,0-.2-.1-.3-.1h0v.2c-.2.1-.4.3-.7.4-.2,0-.3-.3-.5-.3,0,.2.3.2.2.4h0c-.2,0-.3-.2-.5-.3.1-.5.2-1,.3-1.5.1.2.3.3.5.2-.1-.1-.4-.3-.5-.4-.4-2.7-2.8-4.6-4-6.8l.1-.1c-.8-.9-.8-2.3,0-3.2h-.4c.3-.3.5-.9,1-1.1,0,.1-.1.3,0,.4h.2v-.2c.2,0,.4.1.6,0,.1-.1.2-.2.2-.4,0-.1-.2,0-.4,0h0c-.1-.1-.2-.1-.3-.2h0c.1,0,.2,0,.3-.1,0-.1-.1-.3-.1-.4h-.2v.1h0c0-.3.3-.4.3-.6h-.1q-.2,0-.3.2h-.2s-.1-.1-.2-.2c0,0-.2.2-.3.2h0v-.2h-.2.3l-.5-.2c0-.1-.1-.2-.2-.2v-.3h-.3v.2h-.1v-.2h-.3c0,.2.2.3.3.4h0c-.4-.2-.6.2-.9.4-.4-.4.2-.8.4-1.2,0,0-.2.2-.4.1,0-.1.4-.3.5-.4h-.4c.1-.2.2-.1.3-.1h0l-.2-.2c0-.1.1-.2.2-.3-.2,0-.2.1-.4,0-.3-1.1,0-1,.4-1.2h0v-.1h-.1c-.5,0-.5-.6-.4-1,.1.3.4.6.7.5h0c-.1-.2-.1,0-.3,0-.2-.2-.5-.6-.5-.9.4.2.3.5.8.7-.3-.2,0-.5.1-.6h.2c.1.1.2,0,.2,0h.3l-.2-.2h0c0-.1,0-.2.2-.2.1,0,.2.1.3.1h0l-.2-.3c0-.2.1-.3.2-.5v-.4Z"/>
  <path class="st7" d="M29.9,53.5c.5.7,1.1,1.4,1.4,2.2h0v.1c0,.4,0,1,.2,1.4h.2l.3-.6h-.2l.3-.4c1,.5,4.4,5.3,4.9,6.4-.7,0-1.4,0-2.1.2-2.4-2-5.5-5.5-5.7-8.7.3-.1.6-.4.9-.6h-.2Z"/>
  <path class="st6" d="M29.9,53.5c.5.7,1.1,1.4,1.4,2.2h0v.1c-.3-.7-.9-1.5-1.4-2.1-2.2,1.7,2.2,5.7,3.1,7.4-1.6-1.6-4-4.6-3.9-7,.3-.1.6-.4.9-.6h-.1Z"/>
  <path class="st2" d="M29,54.5c.4,2.5,2.7,5.2,4.3,7-.4.3,0,1.1-.6,1.1h0c0-.2.1-.2.2-.2-.2-.3-.5-.7-.7-1h0c0-.1-.1,0-.1,0,0,.5.6.5.3,1-1.8-1.2,0-1.1-1.2-2.1,0-.1,0-.2.1-.3h-.2c-.1,0-.1-.1-.2-.2h0c-.1-.2-.2-.2-.3-.2l.2-.2c-.2-.2-.2,0-.5,0h0c.1-.2.2-.2.3-.3,0-.2-.3-.3-.4-.4v-.2h0l-.2.2h0c0-.2.2-.3.3-.4h0c-.4,0-.6.5-.9.5,0-.3.6-.6.7-.8h-.4l.3-.2q0-.1-.1-.2c0,.1-.1.2-.3.2h0v-.2l.3-.2h0c0-.1-.1-.2-.2-.2v-.3h0c-.1,0-.3.2-.4.2.1-.2.3-.4.3-.7-.1,0-.3.3-.4.4-.1,0-.2,0-.3-.1.3,0,.5-.2.5-.5h0c-.3,0-.5.4-.7.6h-.1s.4-.4.4-.5h-.4l.2-.1c.2,0,.5,0,.7-.1h0c0-.1.1-.3.1-.3h-.2c0-.2.1-.2.2-.4-.1-.2-.2-.3-.4-.4.2,0,.4.2.6.1v-.5l-.8-.1Z"/>
  <path class="st2" d="M28.5,53.7h.4c-.1.1-.2.2-.3.4h.2c.1,0,0,0,.2.1-.1.3,0,.6-.2.9-.3,0-.5-.2-.7-.1,0,.2.3.3.3.5-.1,0-.3-.1-.4-.2-.2.3-.4.7-.8.7.1-.4.9-.7.9-1.2h-.5c-.1.1-.3.4-.5.3,0-.1.1-.2.3-.3h0c-.1-.1-.3-.2-.4-.2h0c.3,0,.6.3.9.1h0s-.2,0-.3-.1v-.2h-.4q0-.1.1-.3c.1.1.2.2.4.2v.2h.2l.5-.5.1-.3Z"/>
  <path class="st6" d="M26.3,44.9h.1-.1.2c.2.2.3.5.4.7h-.1c0,.5.5.9.5,1.4.6,0,.2,1.3.8,1.5h.3l-.1.1c.1.8.9,1.3,1,2.2-.3-.5-.7-.9-1-1.4-.7-1.1-1-2.6-1.7-3.8h-.3l.2-.1h0c0-.2-.2-.4-.2-.5v-.1Z"/>
  <path class="st19" d="M14.9,55c.2,0,.4.1.6,0h0c-.1,0-.2-.1-.3-.2h.3c.2,0,.3-.3.4-.4q.2,0,.3.1c.4-.3,1-.8,1.3-.1h.2v-.3h.3c-.3,0-.7,0-1-.2.4-.1,1.3,0,1.7,0q0,.2-.1.4h0c.2,0,0-.1.3-.2.2.2.5.6.8.7h0c0-.3-.3-.4-.5-.6,0-.2-.2-.3-.3-.4h0c.3,0,.5.2.7.4q0-.1-.2-.2h0c.3-.3.4-.4.8-.4q.1,0,.2.2h-.2v.1h0c-.1.2-.4.3-.6.3.3,0,.5,0,.8.1h-.3c0,.1.2.2.2.3h0c-.3,0-.4-.3-.7-.3h0c.2.2.3.4.5.5v.2c.2,0,.3-.1.4-.2h.2l-.2.1v.2c-.1.2-.2.5-.4.6h0q.2,0,.3-.1h0c-.4.6.4,1.7.2,2.1h-.1c.5.4.5,1.6-.7,1.3h0v-.2h.3v-.2c-.3.2-1.1.7-.6,1.1h-.2l-.1-.2h-.1v.2h-.4c-.3-.1-.5-.2-.7,0h.3c0,.1,0,.2.1.4h.3c-.1,0-.2,0-.2.1h0c.2,0,.4-.2.5-.1v.2h.1v-.2c.4,0,2.6.4,2.9.5h0c.2.2.3.1.4,0,.1,0,.2.1.4.2h-.1s-.1,0-.3-.1c-.2.2-.4.4-.6.6h0l.3.2v.2h.4c-.2.1-.3.1-.5,0h0c.1.2.2.3.3.3l.2-.2h0v.2c-.2.1-.6,0-.7.2h.2c-.2.3-.3,0-.5,0,0,.2.2.5.4.5,0,0,.1-.2.3-.2,0,.1,0,0-.1.2h-.2c.2,0,.3,0,.4.1h-.2v.2c.2,0,.3-.1.4,0,0,.2-.3.3-.3.4h.2c-.4.2-1.1.2-1.5.1.2-.1.4,0,.6-.2v-.2h0c-.2.1-.4.2-.6.1h0c.2-.2.2,0,.4-.1h0c-.1,0-.2-.1-.3-.2h.3v-.1h0l.1.2h0c0-.2,0-.4-.1-.5-.2,0-.3.2-.6.2v-.3l-.2.2c-.2,0-.3,0-.4-.2,0-.1.4,0,.6,0,0,0-.1-.1-.2-.2h.2c-.2-.2-.2-.4,0-.6h0q-.2,0-.4.1c0-.1.2-.2.2-.4h0c-.4-.2-.8-.1-1.2-.1-.1,0-.1.1-.2.2.1.2.3.1.5.2-.1,0-.2.1-.3.2-.1,0-.2-.1-.2-.3h-.4v.1h.2c-.4.1-1-.2-1.4-.4h.6s.1,0,.2-.2h0c-.1,0-.3.2-.4,0,0-.2.2-.3.2-.5-.2,0-.2.2-.4.2,0,0-.2-.1-.2-.2h0c0,.2.1.3,0,.4-.2.2-.7.3-.9.2v-.2c-.4,0,0,.3,0,.5h-.4s.1.1.1.2l-.2-.2h-.1c0,.2.3.4.3.6-.3-.2-.6-.5-.9-.3h.4c-.3.2-.6.3-.9.4h.3q-.1.1-.2.3h.4l-.2.1h0c.1,0,.3,0,.4.1h0c-.7.2-1.6-.2-2.2.4h0l.1-.2h-.3v-.2h-.4.3c-.2-.2-.4,0-.6,0h0v-.2h.5c-.3-.1-.6-.3-.8,0-.3-.3-.5-.2-.9-.2,0,0,.1,0,.2-.2h0c-.1-.4-.3-.5-.6-.6h-.1v.1h.2c-.1,0-.3,0-.4.1,0,.1.2.1.3.2h0c-.3.3-.1.3,0,.5-.1,0-.2.1-.3.2h0c.1.1.2.1.3.2v.2c-.3,0-.4-.1-.5-.4q0-.2.2-.3h0l-.2-.3h.2c0-.3-.3-.3-.4-.5,0-.3.4-.3.5-.5h0c-.2,0-.3,0-.5-.1-.5-2.6.8-.7,2.1-1.7q.1,0,.2.2h-.2v.3h.4c0-.1.1-.2.1-.3h-.3v-.2h-.7q0-.2.2-.2h.2c.1.1.2,0,.3,0h0l.1.2c.3-.2.3-.4.6-.5h-.4c.2-.3.5,0,.7,0-.1-.1-.2-.2-.3-.2h-.4c.1-.1.3-.2.4-.3h-.4c0-.2.2-.2.3-.2v-.2h.2v.2h.3v-.1h.5c-.1.1-.2.1-.3.2h0c0,.2-.2.2-.2.2h0c.3.1.9.1,1.1,0v-.2h-.3c.2-.2.3,0,.4,0,.2,0,.1-.3.4-.3v.3h.1q0-.2.2-.2h0c0,.2-.1.2-.2.3q0,.1.1.2c0-.1,0-.2.2-.2l.2.1h0c0-.2-.1-.2-.3-.3h0s.2,0,.3-.1v-.2h.2c-.1-.2-.3,0-.4,0h0c0-.2.6,0,.8-.2h-.4c.2-.1.3,0,.5-.1-.3-.4-.5,0-.8.2h-.1c-.1-.1-.2-.1-.3-.2h.1v-.1c-.3-.1-.5-.3-.7-.5h-.5s.3,0,.4-.1c-.2-.3-.6-.2-.9-.4,0-.1.2,0,.3-.2h-.5c.2-.2.3,0,.6,0h0l-.1-.2h-.5c.2,0,.4-.1.6-.2h-.3c.2,0,.5,0,.8-.1h0c0-.1-.1-.1-.2-.2h.2l.3-.3Z"/>
  <path class="st19" d="M16.6,52.4c.2-.2.5-.1.8-.2h0v-.2c-.2,0-.6,0-.6-.2h.2s.1-.1.2-.2c-.4-.2-.6.3-.9.3.1-.2.3-.4.5-.5h0c-.4,0-.5.3-.8.5-.2-.1-.5-.3-.6-.6.2-.2.8-.2.7-.7-.2-.1-.4-.1-.6-.2h0c0-.1.2-.2.2-.2-.2,0-.3-.2-.3-.4.2,0,.3.2.5.2h0c-.1-.2-.7-.5-.4-.8h-.4c.3-.2.6,0,.9-.2,0,0-.3,0-.4-.1.3-.2.8,0,1.1-.2h0c-.2,0-.4,0-.6-.1.2-.1.7,0,1-.1h0l-.2-.1h0c.8.1,1.3-.4,2-.7,0,0-.2.2-.3.2v.3h-.1.3c0,.3-.3.4-.5.6,0,.6,1.3.5,1.4.9,0,.1-.1.2-.2.4h.6c-.1,0-.3,0-.4.1.3.2.5.5.7.7h0c-.2,0-.5-.3-.7-.3h0v.1c.2,0,.4.2.6.3,0,.2,0,.3-.2.4.3,0,.4-.3.6-.1-.2.2-.6.3-.8.5.4.3.7.8.4,1.3,0,.2.2.2.1.3h0c-.1-.1-.2-.2-.4-.2h0q0,.1.2.2c-.5,0-.8,0-1.2.3h-.1c0-.2.4-.4.4-.5-.6,0-.8.8-1.5.4h.5c-.4,0-1.1-.2-1.4,0h.9c-.2,0-1.6.2-1.8,0h.7c-.1,0-.4,0-.5-.1.3,0,.7-.8,1.2-1.1h-.8Z"/>
  <path class="st6" d="M23.8,55c.1-.1.3,0,.5,0,1.2,2.3,3.6,4.2,4,6.8.1.1.3.3.5.4-.2,0-.4,0-.5-.2-.2.6,0,1.3-.5,1.8,0-.3-.3-.5-.4-.8h.2v-.8c-.3,0-.5,0-.8.2,0-.1.2-.2.3-.3.2,0,.5,0,.6-.1h-.3c.1-.3.3-.5.2-.8-.3-.2-.6.5-1,.6h0c.3-.2.7-.5.9-.9h-.4c-.2-.3,0-.2.3-.3h0l-.2-.2c.4-.5-.3-1-.7-1.1,0,0,.1,0,.2-.1h0c-.1-.2-.3-.2-.4-.2h0c0-.1.2-.1.2-.2h-.2c0-.1-.2,0-.2,0v-.4h0v.1h-.2s0,.1-.1.1h0c0-.2.2-.2.2-.4-.3-.5-.2-.2-.5-.4,0,0,.1,0,.2-.1-.1-.2-.3-.3-.5-.5h-.3c0-.1.1-.1.2-.2-.1-.3-.5-.3-.4-.7h0c-.1,0-.2.2-.3.3h0c0-.2.3-.3.4-.4h-.3c0-.1.2-.2.2-.2q-.2-.1-.4-.1h0l.1-.1c0-.3-.2-.6-.3-.8h-.3Z"/>
  <path class="st6" d="M22.8,61.2c-.1,0-.2-.2-.4-.2h-.4c-.3-.3-2.5-.6-2.8-.6v.2h-.2v-.2c-.2,0-.4.1-.5.2h0c0-.2.1-.1.2-.2h-.3s0-.1-.1-.3h-.3c.2-.1.4,0,.7,0h0c0,.1,0,0,0,0h.4v-.1h.1l.1.2h.4c.4,0,.9.2,1.4,0v-.2h.2c0,.1.1.2.2.3.8-.2,1.5.8,2.5.5h.1c-.2.1-.5,0-.7,0h-.1c1.1.9,2.3,1.6,3.4,2.3h-.1v-.1c-.2-.2-.7-.5-.7-.8.5,0,.9,1,1.2.4.2,0,.2.1.3.2h0c-.2,0-.5,0-.6.3h.5v.2s.2.1.2.2h-.2c-.3.2-.6-.1-.7-.3h-.2c0,.1.1.3.1.4h-.2c-.1-.3-.2-.4-.4-.5h-.3v-.2h0l-.2-.2h-.3v.2h-.2v-.3c0-.2-.1-.2-.2-.3h-.3c-.2-.1-.3-.2-.5-.3,0,0-.2,0-.3.1h-.1c0-.1.2-.2.3-.2h0c-.3-.3-.7-.5-1-.6v-.1Z"/>
  <path class="st2" d="M20.5,51.5h0c-.3.2-.3.3-.2.6h0v-.1h-.2c.1.2.3.3.3.6h0v-.4h0c.2,0,.3.1.4.2,0,0,.1,0,.2-.1h0c0,.2-.1.2-.2.3,0-.1-.1-.1-.2-.2h0c0,.1.2.2.2.3,0,.2-.2.2-.2.4.2,0,.3,0,.5.1h.2c-.2.3-.5.3-.6.6.2,0,.4,0,.5.1h0c-.2.1-.2,0-.3,0,0,.2,0,.3.2.5q0,.1-.2.2c0,.1,0,0,.1.2.2-.3.3-.2.4-.5.1,0,0,0,.1.2-.2.2-.4.3-.6.5h-.3c-.2.1-.2.2-.4.2v-.2c-.2,0-.3-.3-.5-.4h0c.3,0,.4.3.7.3h0c0-.2-.1-.3-.2-.3h0c.1,0,.2,0,.3-.1-.2-.2-.5,0-.8-.1.2,0,.4,0,.6-.2h0v-.2h.2q0-.2-.2-.2c-.4,0-.5.1-.8.3h0c0,.2.1.2.2.3-.2-.2-.4-.4-.7-.4h0c.1.2.2.3.3.4.2.1.4.3.5.5h0c-.3,0-.6-.4-.8-.6-.2,0,0,.2-.3.3h0c0-.2.1-.3.1-.5-.4,0-1.3-.1-1.7,0,.3.2.7.1,1,.1h0c0,.1-.2.1-.3.1v.3h-.2c-.3-.6-.9-.1-1.3.1q-.1-.1-.3-.1c-.1.2-.2.4-.4.4-.1,0-.2-.1-.3-.1h0c0,.1.2.2.3.2h0c-.2.2-.4,0-.6,0v-.2c.1,0,0,0,0,0h-.4v.2h-.3v-.2q-.2,0-.4.1h0v-.2c.4-.1.7,0,.9-.3h0s0,.2-.1.2c.2.1.6,0,.8,0-.2,0-.3-.1-.5-.2h.3v-.2h.3c-.2-.2-.4-.1-.5-.2h.2v-.2c-.1-.1-.3,0-.5-.1.2,0,.4,0,.6-.1h-.4c.6-.1,1-.4,1.4-1-.1,0-.3,0-.4.1h0q0-.2.2-.3c.2.1.4.1.6,0h0c-.5.3-.9,1.1-1.2,1.1.1,0,.3,0,.5.1h-.7c.2.2,1.6,0,1.8,0h0c-.3-.1-.6-.1-.9-.1h0c.3-.2,1.1-.1,1.4,0h-.5c.7.4.9-.3,1.5-.4,0,.1-.3.2-.4.4h.1c.5-.1.7-.2,1.2-.2,0,0-.1,0-.2-.1h0q.2,0,.4.2h0c0-.1-.1-.2-.1-.3.3-.5,0-1-.4-1.3.2-.2.5-.3.8-.5l.4.1Z"/>
  <path class="st5" d="M20.8,55h0c0,.2,0,.3.1.4h.3c0,.1,0,.2-.1.3h0v-.2h-.1v.2c.2.1.3.3.5.4.3,0,.1-.3.5,0,.2,0,.4-.4.6-.4-.1.6-.8.3-1.1.5.4.1.9,0,1.2.5-.4,0-.9-.7-1.4-.2h0c.1.1.2,0,.3,0q0,.1-.2.2h-.2c0-.1,0,0,0,0,.3.2.1,1,.2,1.3h.2c0,.2-.1.3-.2.5,0,.2,0,.6.2.6v.2c-.1,0-.3,0-.4.2v-.2c-.2,0-.5.3-.6.3v-.2c-.3-.2-.9-.1-1,.3h0c.2,0,.3-.1.6-.2h-.2v.3c-.2,0-.3.2-.5.2-.5-.4.3-.9.6-1.1h0v.2h-.3v.2c1.2.3,1.2-.9.7-1.2h.1c.2-.4-.5-1.5-.2-2h0c-.1,0-.2,0-.3.1h0c.2-.2.3-.5.4-.7v-.2h.2l.1-.3Z"/>
  <path class="st5" d="M23.8,55v-.2c0-.1-.1-.1-.3-.2h0c0-.1.1-.1.3-.2-.5-.5-.3-.9-.4-1.5h-.2v-.2h.2c0-.3.1-.6.1-.9h-.3c0,.1,0,0,0,0,.6-.4.5-1,.9-1.5.2,0,.1.3.3.4,0-.2,0-.4.3-.5,0,.4-.5.6-.5,1h0v-.1h0c.2,0,.4-.3.6-.4-.2.3-.5.6-.7.9h.4c-.8,1-.8,2.3,0,3.3l-.1.1h-.6Z"/>
  <path class="st9" d="M41.7,2.4c2.4-.3,3.9,2,5.3,3.4.1,0,.2,0,.3-.2,0-.6-.3-1.3-.4-1.9,1.2.5,1.6,1.5,2.3,2.5.5-.3.8-.7,1.3-1,.4.4.6,1,.9,1.5,6.6-.6,6.9,8.4,5,12.8-.4-3-.9-7.9-4.2-9-2.8-.8-4.5,2.1-6.7,1.9-3.3-1.1-6-3.8-9.8-3.6-5.9-.4-12,6-8.7,11.7-1.4,2.2-2,4.7-2.4,7.2-.4-2.1-2-3-3.5-4.2-.6-.8-1.3-4.2-1-5.1.9-.9,1.1-1.8-.5-1.5.1-1.1.6-2.3,1.4-3,0-.7-1.2-.8-1.7-.5,2.5-6.2,9.6-9.6,16-9.2l-.4-1.1c1.4,0,2.6.6,3.8,1.1h0c0-.5-.4-1.3-.6-1.7,1.5.3,2.3,1.1,3.6,1.5.2-.5-.3-1.2,0-1.7v.1Z"/>
  <path class="st8" d="M49.1,8.1h0c0,.3-.9,2.4-1.1,2.8h0c-.4-.9.5-2.1,1-2.8h.1Z"/>
  <path class="st8" d="M25.3,20.1h0c-.4.4-1.3.6-1.8.7v-.1c.3-.4,1.4-.5,1.9-.6h-.1Z"/>
  <path class="st16" d="M60.1,63.4c4.9,3.2,10.5,5.7,14.9,9.4,0,.8-1.9.9-2.5,1.1-5,.6-17.5,1.9-22.8,2.5-29.6,2.9-20.1,5.9-44.4-11,1.3-1.2,3.4-1.2,5-.8,2,7,10.8,7.1,16.8,7.6,3.5,1.5,7.8,6.1,12.5,4.2,6.5-1.2,13.9-1,20.1-2.8.8-1-6-4.3-7.1-5.2,2.6-1.4,5.7-2.3,7.4-5h.1Z"/>
  <path class="st14" d="M5,65.9c3.2,1.9,10.6,7.5,13.8,9.6,2.4,1.7,4.9,4,8,3.9,15-1.9,33.5-2.6,48.3-5.7.7,6.1-5.8,5-9.9,5.6l-12.9,1.3-17.3,1.6c-6.3,1.3-12.3.7-17.3-3.8-2.3-1.6-7-4.7-9.3-6.2-2.6-1.2-4.3-3.3-3.4-6.3Z"/>
  <path class="st15" d="M72.1,79.5h.1c.6,5.3-1.4,5.3-6,5.5l-11.1,1.1c-4.5.5-19.7,2-24,2.5-6,.7-5.9,1.2-5.7-5.1,15.5-.3,31.2-2.8,46.6-4h.1Z"/>
  <path class="st19" d="M47.4,48.4c1.2-.4,2.4-1.1,3.4-1.9h.2l-.2.2c1.1-.2,2.2,1.5,3,2.2h0c-.2,0-.3.1-.4.1h0c.2.1.4.2.6.1.2.1,1.1,1.1,1.1,1.3,0,.1-.1.2-.2.2h.5l-.4.4h-.2v-.3c-.2,0-.3.4-.6.3,0-.2.5-.6.7-.7-.5,0-.6.5-1,.7h-.1q0-.2.2-.3h0c-.5.6-1.3,1.4-2.2.9-.1,0-.2,0-.3.2-.4.1-1.4,0-1.3.5h0c.8-1.1,2.7.1,3.5-1.2h.1v.1l-.2.2c.4-.3.6-.2,1.1-.3h.1c0,.2-.2.3-.2.5h.2v-.2c.2-.2.5-.4.7-.5.2,0,.3.3.4.5-.2.2-.5.4-.7.6h.4v.2h-.3v.2c.2,0,.4-.2.6-.2h0c-.2.3-.5.4-.6.6h0c.3-.2,1.1-.3,1.5-.2h0c0,.2-.1.4-.2.5h0c.2,0,.3,0,.4.2h0c.6.1.5,1.1.9,1.5h.1c-.5.2-1.1,0-1.5.5h0c.2,0,.5-.2.6-.4.3.2.6,0,.9,0h0v.2c.9.4,0,1.5-.7,1,0-.1,0-.2-.1-.3q-.1,0-.1.2c0,.4.7.1.9.3-.3,0-.5.1-.8.1h0c.2.1.3.1.5,0,0,.1,0,.2-.1.3.3-.2.8-.6,1-.9,0,.2.1.3.2.5l-.2.4h0l.3-.1c.2,0,.2.3.3.4,0,.1-.2.1-.4.2.2,0,.4,0,.5.2h0c-.6-.2-.7.8-1.2.5,0,0,.2,0,.2-.1-.3-.1-.4.2-.5.4l-.4.3h0c.4,0,.4-.4.9-.4h0c-.1.2-.2.2-.3.4,0,.1.2.1.3.2v-.3c.1-.3.8-1.1,1.1-.6,2,1.9.2,6.3-2.3,6.8-.3.2-.5.4-.7.6.3,0,.6-.3.8-.3-.7.5-1.4.9-2.1,1.3h0c0-.3,0-.6.2-.9.1,0,.2.1.3.2,0,.2-.2.1-.3.3h0l.1.1c.2-.2.6-.5.6-.8h-.1c0,.1,0,.2-.2.3h-.1c-.1,0-.2-.1-.3-.3.1-.6,0-1.2,0-1.8-.1-.1-.3-.2-.2-.4h.4-.1v.2c.4-.2.6-.8,1.2-.8h0c-.5-.3-.7.5-1.2.4h0v-.2h.3c-.2,0-.4-.1-.5-.1,0,0,0,.1.1.2h0c-.6-.3.2-.9.6-1.1-.2,0-.4.1-.5.3h0c-.2,0-.3.2-.5.3-.1,0-.2-.2-.3-.3v-.2c-2-1.5-4.8-3.1-7.4-1.9h-.2c0-.1-.1-.1-.1-.1-.8.9-2.3,1.3-3,2.3-.1-.2-.1-.1-.3-.2h-.1c-.3-.1-.6-.3-.8-.6h0c0-.1.1-.2.1-.2h0c-.1-.2-.2-.3-.4-.4v-.2h.2c0-.5-.1-.8,0-1.2.1,0,.2-.1.3-.2h-.2c.1-.2.2,0,.4-.2h-.3c.2-.5,0-1.3.4-1.8.1,0,.2.2.3.3h.5c-.2-.1-.3,0-.5,0,0-.1.1-.2.3-.3-.2,0-.5,0-.6-.1,0-.2.2-.2.3-.3-.1,0-.2,0-.3-.1,0-.3.7-.4.5-.8-.1,0-.3.3-.4.4h0c.2-.7.4-3.5,1.4-2.2h.2c-.3-.3-.6-.6-1-.3,0-.3.1-.7.3-1h.1c.1,0,.2.1.4.2h.2c-.2-.3-.6-.4-.7-.7h0q.1-.1.2,0v.2h0c0-.4-.6-.9,0-1,.1,0,.2.2.3.3h.1c-.2-.2-.5-.3-.6-.5,0-.4.2-1.5.6-1.7.3,0,.4.2.5.4h0c0-.3-.4-.4-.4-.7.4-.3,1.3-.4,1.9-.6.4,0,.6.5.9.7h0c-.1-.3-.5-.6-.8-.8l.5.1Z"/>
  <path class="st4" d="M58.4,58.9v-.3c.1-.3.8-1.1,1.1-.6,1.4,1.1.9,4.5-.5,5.5,0-.2.2-.3.2-.5h-.2v-.1h.3c.2-.6.4-1,.5-1.6h-.3l.2.2v.2h-.2v.3c.1,0,0,0,0,0h0c-.2-.2-.4-.4-.6-.5h-.3c.2-.2.4-.1.6-.2-.2,0-.4,0-.5-.1v-.2h0c-.7-.2-.6,0-1.1.3h0c0-.2.2-.3.3-.4h0c-.2-.1-.4-.1-.6-.3h.4c-.2-.2.2-.3.3-.5-.2-.1-.9,0-1.1.1h0c0-.2.3-.4.4-.5-.3-.1-.6,0-.9,0,0-.3.5,0,.7-.1.2,0,.5-.8.8-.7v.2h.7-.3c.2,0,.4-.1.6-.2h-.5Z"/>
  <path class="st6" d="M59.5,58c1.4,1.1.9,4.5-.5,5.5,0-.2.2-.3.2-.5h-.2v-.1h.3c.4-1,.8-2.2.5-3.2h-.2.2c0-.6-.2-1.2-.4-1.7h.1Z"/>
  <path class="st10" d="M43,58c.2,0,.3-.3.2-.5h0c.1,0,.2.2.3.2,0,0,.1,0,.2-.1.1,0,.1.3.3.3h.3c0,.2-.1.2-.3.2h.6c-.1,0-.2,0-.3.1h0v.2c.1,0,.3-.1.4-.2h0c0,.2-.1.1-.2.2q0,.1.2.2.2,0,.4.1c-.5.6-.8,1.3-1.6,1.5h.4c-.2.2-.6.5-.6.7l.2.2c.1,0,.2-.1.3-.1,0,.4-.5.7-.8,1-.3-.1-.6-.3-.8-.6h0c0-.1.1-.2.1-.2h0c-.1-.2-.2-.3-.4-.4v-.2h.2c0-.5-.1-.8,0-1.2.1,0,.2-.1.3-.2h-.2c.1-.2.2,0,.4-.2h-.3c.1-.3,0-.6.2-1h.5Z"/>
  <path class="st6" d="M47.7,54.7l.2-.4c-.2-.2-.3.1-.4-.4h0v.1h.3c.2-.2.3-.7.1-1h-.4c.2-.2.3-.3.4-.5-.2,0-.5,0-.7-.2.2-.1.4,0,.6-.2h.1s0,.2-.1.3c.2.2.6,0,.9.3-.1.4,0,.6,0,1h-.2c0,.3-.2.5-.4.6h0l.1.1c.2-.1.4-.5.7-.6h0c-.3.5-1.3,1.2-1.4,1.8l.2.2h0l-.1.1h-.1c-.1,0-.2.2-.3.3h.5c-1,.4-1.4,1.5-2.1,2.2-.4,0-.7.7-1,.9.3-.5.8-1,1.1-1.5h-.2c.5-.4.9-.9,1.2-1.4h-.2v-.2h.3c.4-.5.5-1.1.8-1.6h0l.1.1Z"/>
  <path class="st2" d="M45.9,58.6c.6-.3.9-.8,1.3-1.3h0c0,.5-.8,1-1.1,1.4h0l.3.2h0l-.1.2c-.1,0-.2,0-.3-.2q-.2,0-.3.1h0q.1.2.3.2h.1q0,.1-.2.2c-.1,0-.2,0-.4-.1-.2.2-.5.5-.5.8.1.1.4.2.4.3-.2.1-.4.3-.4.5-.5.3-1,.7-1.4,1.2-.1-.2-.1-.1-.3-.2.2-.4.7-.5.7-.9-.1,0-.2,0-.3.1l-.2-.2c0-.2.4-.5.6-.7h-.4c.9-.2,1.4-1.2,2.1-1.6h.1Z"/>
  <path class="st2" d="M45.9,57.8h-.4v.2h-.2v-.2h-.2v-.1c.7.2.7-.4,1.1-.7.1,0,.2-.1.2-.3-.3,0-.3.3-.6.3h0l.2-.2h0c0-.1-.1-.2-.1-.2-.1,0-.1.1-.2.3-.2.1-.7,0-1,0,.3-.2.8,0,1-.4.2,0,.3,0,.3-.2-.2-.1-.4-.2-.4-.5,0-.1,0-.2.2-.2h.2c.3-.2.4-.5.7-.7h0c0,.3-.4.4-.5.6h0v.1l.3-.3c.2.1.4,0,.6-.2h-.1s-.2.2-.3,0c0,0,.1-.1.2-.3-.1-.1-.2-.2-.2-.3.2-.2.6,0,.8,0h0c-.3.6-.4,1.3-.8,1.7h-.3l.2.2c-.3.5-.6.9-1,1.3l.3.1Z"/>
  <path class="st4" d="M44.9,54c.2,0,.3-.3.5-.3,0,.2-.2.3-.3.4h.3l-.3.3h.4c-.1.3-.3.3-.3.6h-.4c.1,0,.2.2.3.4h0l-.1.1v-.2c-.2-.1-.5-.2-.7-.3h.3l-.2-.2h0c.2-.2.3,0,.4,0h0c-.3-.3-.7-.2-1-.3.2,0,.5-.1.7-.1h-.3c.1-.1.2,0,.3,0h.1v-.1h-.2v-.1h.7l-.2-.2Z"/>
  <path class="st6" d="M51,56.4c.7-.3,1.6-.6,2.3-1.1h-.2c.4-.4.8-.4,1.3-.4.4-.1.5-.3,1.2-.3h0v-.2c-.2,0-.4.1-.5,0,.2-.2.5-.2.7,0h0c-.2.2-.6.3-.8.3-.6.8-1.5,1.1-2.4,1.6.2,0,.3-.1.5,0h0c-.9.1-1.9,1-2.7,1.1h0l.1.1c-.4,0-.8.2-1.1.4,0,.2.1.2.2.4-.2,0-.5-.2-.5-.4.2-.2.4-.2.6-.3h0c.2-.3.4-.5.6-.6h0c.3-.3.6-.3.9-.5l-.2-.1Z"/>
  <path class="st2" d="M50.2,56.9h.5c-.2.3-.7.6-1,.7h0c.2-.3.4-.5.6-.6l-.1-.1Z"/>
  <path class="st5" d="M49.8,54.3c0-.2.1-.3.3-.4h.1c.1.2,0,.5,0,.8h.2c-.4.2-.4.9-.3,1.3h0v.3h0c.5,0,.9-.4,1.4-.3h0c-.2.1-.5.2-.6.4,0,.1,0,0,.1.2-.3.2-.6.2-.9.4h0l-.6.6c-.1,0-.2,0-.3-.2l.2-.2v-.3c-.2,0-.3,0-.4.2h0c0-.3.3-.5.5-.5h0l-.3-.1h0c.1,0,.3,0,.4-.1,0-.2.1-.5,0-.7h-.1c.4-.1.4-.7.4-1l-.1-.4Z"/>
  <path class="st2" d="M49.8,54.3v-.6c-.1,0-.2-.1-.3-.2.5,0,.6-.4,1-.6q.1,0,.2.1c-.1.2-.3.2-.5.3,0,.3.4.3.6.4h-.1.2-.4c0,.2.1.4.3.5h.2c.1-.2,0-.1.2-.2,0,.4-.5.4-.8.2,0,0-.1,0-.2.1v-.5h-.1c-.1.1-.2.2-.3.4v.1Z"/>
  <path class="st9" d="M28.1,89.9c3.7-.5,7.4-.7,11-1.1-1.3,4.3,1,12.1-5.6,11.8-8.7,1.1-5.5-5.1-5.5-10.6l.1-.1Z"/>
  <path class="st9" d="M55,87.1h.4c-.5,3.2-1.4,6.8-2.2,9.9-3.2,1.1-7.5,2.1-10.3-.5.2-2.8.9-5.6,1.4-8.4,2.6-.2,8-.8,10.7-1.1v.1Z"/>
  <path class="st17" d="M29.1,71.5c-4.8.2-4.1-3.3-1.6-6,2.9-3.4,14.7-3,12.3,2.9,0,.7,0,1-.5,1.6-.4-1.4-1.4-3.3-2.9-3.9-.7,1,2.4,2.2,1.9,4.2-.4.2-.7.4-1.1.4-.5-.9-1.6-3.5-2.7-3v.5c.9.5,1.8,2.1,2,3.1-.1,0-.2,0-.3.1,1.4.1-.4,1.9-.9.8v-.2s-.2-.1-.2-.2l.2-.2h-.3c-.6-.5-1.6-2.6-2.4-1.7.6,1,3.3,2.6.9,3.3-.3,0-.6,0-.9-.2h0c-.4-.2-1,0-1.2-.4-.6-.1-1.7-.8-2.4-1l.1-.1Z"/>
  <path class="st0" d="M33.1,70.5c1,.8,2.4,2.2.4,2.7-.3,0-.6,0-.9-.2h0c-.4-.2-1,0-1.2-.4-.6-.1-1.7-.8-2.4-1,1.2-.7,2.8-.7,4.1-1v-.1Z"/>
  <path class="st2" d="M34.4,71.8c.7.7-.3,1.1-.8,1.3-.3,0-.6,0-.9-.2h0c-.2-.1-.4,0-.6,0,0,0,.1-.2.1-.3.6,0,1.6-.3,2.1-.7l.1-.1Z"/>
  <path class="st19" d="M34.5,72.1c.3.6-.6.8-1,1h-.2v-.1c.6-.1.7-.7,1.2-.9Z"/>
  <path class="st2" d="M31.5,72.5h.8c0,.1,0,.2-.1.3-.3,0-.5-.1-.6-.4l-.1.1Z"/>
  <path class="st0" d="M34.6,68.2c.9.5,1.8,2.1,2,3.1-.1,0-.2,0-.3.1,1.4.1-.4,1.9-.9.8v-.2s-.2-.1-.2-.2l.2-.2h-.3c-.4-.6-1-1.1-1.4-1.6,1,.4,1.4,2.5,2.6.9-.3-.6-1.2-2.6-1.9-1.7h-.1c0-.3.2-.7.3-.9v-.1Z"/>
  <path class="st19" d="M35.9,71.8c1.7-1.4.6,2-.5.4v-.2c.2,0,.3,0,.5-.1h0v-.1Z"/>
  <path class="st0" d="M36.5,70.9c0,.2.1.2,0,.4-.3.1-.5.2-.7.5h0c-.2.2-.3.2-.5.2,0,0-.2-.1-.2-.2l.2-.2h0c.3-.2.6-.4.9-.6h.2l.1-.1Z"/>
  <path class="st4" d="M36.3,71h0c-.2.3-.8.5-.8.7.1,0,.2.1.4.1h0c-.2.2-.3.2-.5.2,0,0-.2-.1-.2-.2l.2-.2h0c.3-.2.6-.4.9-.6Z"/>
  <path class="st0" d="M36.7,67.3c1,.6,1.7,1.9,1.6,3.1-.4.2-.7.4-1.1.4-.1-.3-.2-.5-.4-.8.4-.2.6-.4,1-.1.2,0,.2-.2.3-.4,0-.4-.5-1.1-.8-1.4v.4h0c0-.4-.2-.8-.5-1.2h-.1Z"/>
  <path class="st0" d="M38.6,68.4c.5,0,1.1-.7,1.7-.4,0,.2-.2.5-.5.4,0,.7,0,1-.5,1.6,0-.6-.4-1.1-.7-1.6Z"/>
  <path class="st12" d="M39.2,69.5c.2-.3.4-.8.5-1.2h0c0,.8,0,1.1-.5,1.7v-.5Z"/>
  <path class="st4" d="M28.4,100.8c2.9,1.3,6.2.4,9.1-.3.1.4.7,1.5.7,1.7-1.1.3-3.9,1-4.2,2.3,1.5-.5,2.9-1.5,4.6-1.9.4.5.8.9,1.4,1.3-1.6.3-3.6,1.4-4.4,2.8h0c2-.7,4.1-3.2,6.1-1.4,1,.8,2.3,2.6,1.7,4-5.5,2.3-11.6-1.2-15.8-4.7,0-1.3.3-2.5.7-3.7l.1-.1Z"/>
  <path class="st6" d="M39,74c.6-.2.7.8.1.7-.4,0-.5-.6-.1-.7Z"/>
  <path class="st6" d="M49.4,72.9c.5-.1.6.7,0,.7-.4,0-.5-.6,0-.7Z"/>
  <path class="st6" d="M41.5,73.6c.4-.1.6.4.3.6-.4.3-.8-.5-.3-.6Z"/>
  <path class="st6" d="M46.9,73.1c.5-.2.7.6.2.6-.4,0-.5-.5-.2-.6Z"/>
  <path class="st6" d="M52.1,72.6c.4-.2.7.4.3.6s-.7-.4-.3-.6Z"/>
  <path class="st15" d="M8.1,72.9c5.1,3.1,11.1,8.2,16.6,10.5,0,1.7.1,3.5,0,5.2-5.8-2.7-10.9-6.8-16.1-10.5-.9-.9-.6-4-.5-5.2Z"/>
  <path class="st4" d="M52.8,98.2h.2c.2.4.4.9.6,1.3-1.2.3-2.9.7-3.5,2h0c1.1-.3,2.4-1.5,3.6-1.6.5.5.8,1.2,1.4,1.6-.9,0-2.6.5-2.5,1.6,2.3-2,5.1-.7,5.8,2.2-4.1,4.1-12.4-.5-15.5-3.9.1-1,.6-2,.8-3,3.5,1.1,5.6.6,9-.2h.1Z"/>
  <path class="st17" d="M42.6,65.6c4.9-12.6,19.6.7,7.1,2.7v-.5c.4-.4,1.3-1,.9-1.6-.8,0-1.5,1.2-2,1.8-.6,0-1.2-.2-1.7-.7,4.5-4.6-1.2-.9-1.7,1.4-.3,0-.6-.2-.9-.2,0,0-.1.1-.2.2-.9-2.4,1.8-3.6,2.8-5.1-1.3-.3-2.6,1.5-3.2,2.5-.4-.3-1,0-1.2-.5h.1Z"/>
  <path class="st0" d="M44.7,66.3v.2h0v.2c.5,0,1.1.4,1.7.4-.4.5-.7,1.1-.9,1.7-.3,0-.6-.2-.9-.2,0,0-.1.1-.2.2-.3-.8-.1-1.8.4-2.5h-.1Z"/>
  <path class="st14" d="M70.9,85.5c.4,2.4.5,11.9.7,14.6-.3,2.6,1.3,6.4-.5,8.4-3.2.3-1.3-8.7-2-11.1,0-2.7-.5-9-.5-11.6.7,0,1.6,0,2.3-.3Z"/>
  <path class="st14" d="M8.3,79.1c.8.5,1.6,1.1,2.3,1.7-.4,4.9-1.1,11.9-1.5,16.8-.5,1.6.6,5.2-1.8,5.3-.8,0-1-.9-.9-1.6.5-6.8,1.2-15.5,1.8-22.2h.1Z"/>
  <path class="st14" d="M23.4,89.1c.7.4,1.3.6,2.1.7,0,3.2-.2,9.8-.2,13.1-.7,2,1.5,11.4-2.2,9.4-.7-7.2.2-15.9.3-23.2Z"/>
  <path class="st14" d="M11.9,48.2h.3-.1c-2,4.9-2.5,10.1-2.2,15.3-.7-.2-1.6-.9-2.2-1.3.7-4.6-2.8-13.6,4.1-14h.1Z"/>
  <path class="st18" d="M35.7,58.9c0-.8-.3-4.3,0-4.8.9.4,2.9.6,3.8.2.7,2.6,1,5.9,1.7,8.7-2.9.5-4.8-1.6-5.5-4v-.1Z"/>
  <path class="st1" d="M36.6,60.8c1.2.4,2.5.2,3.7.2h0c-1.1.5-2.4.3-3.5.3,0-.2-.2-.3-.2-.5Z"/>
  <path class="st13" d="M35.7,58.9q.2,0,.4.1c0,.2,0,.4-.2.5-.2-.2-.2-.4-.2-.6Z"/>
  <path class="st13" d="M36.8,58.7c.4,0,.6,0,1,.2h0c-.3.1-.9.1-1.2,0h0l.2-.2Z"/>
  <path class="st16" d="M12.8,46.4h.3c0,.3-.3.7-.5,1-8.2,0-5,9.4-5.5,14.7-2.9-1-1.3-5.5-1.7-7.8-.4-7.1.3-7.7,7.4-8v.1Z"/>
  <path class="st4" d="M42.8,102.3c3.8,3.3,11.2,7.7,15.8,3.7-2.4,5.8-14.5.8-15.8-3.7Z"/>
  <path class="st4" d="M42.4,110.6c-5,2.9-12-1.1-14.9-5.2h0c4.2,3.3,10,6.5,15.5,4.7l-.7.5h.1Z"/>
  <path class="st18" d="M36.8,50.3h2.9c0,1,0,2.2-.3,3.2-1.2.3-2.3,0-3.5-.3-.1-.9.3-2.3.9-3.1v.2Z"/>
  <path class="st13" d="M36.3,53.4h-.3c-.1-.6.2-1.9.5-2.5.2.6-.2,1.9-.2,2.6v-.1Z"/>
  <path class="st4" d="M23.2,44.1c-.2,0-.2.2-.4.3h-.1v-.2h.2v-.2c-.1,0-.3-.2-.3-.3h0c0-.1.2-.2.2-.2h0c-.2-.1-.2-.3-.4-.4h0v.1h.2v.2c-.1.1-.2.1-.3.2h0v-.4c0-.8-.3-2.5,0-3.2.5.2.6-.2,1-.4h0c.6.9.9,2.1,1.6,2.8,0,.2-.4.5-.6.6,0,.2-.2.4-.2.6l.2.2h-.3s-.1,0-.2.1h0l.2.1h-.3s-.1.2-.2.2h0c0-.1-.1-.2-.2-.1h-.1Z"/>
  <path class="st9" d="M50,23.3c2,0,4.1.6,5.5,2.1-2.6-.8-5.5-.6-8.2-.9.8-.8,1.6-1.1,2.7-1.2Z"/>
  <path class="st12" d="M47,67.3c.4.5,1,.7,1.7.7-.4.5-.4,1.8-1.1,2.2-2.2.3-1.5-1.7-.6-2.9Z"/>
  <path class="st0" d="M46.5,70c.6.1,1.1,0,1.5-.5h-.2c0-.5.5-1,.7-1.2-.2,1-.7,2.5-2,1.6v.1Z"/>
  <path class="st0" d="M47,67.3c.4.5.7.5,1.2.7-.5,0-1-.1-1.5-.2,0-.2.2-.3.3-.5Z"/>
  <path class="st16" d="M38.7,63.6c1.3,0,2.7.2,4,.1-.5,1.1-.9,2-2.3,1.9-.4-.8-1.1-1.5-1.8-2h.1Z"/>
  <path class="st12" d="M49.7,67.9v.5c.3.1.8,0,1.1,0,1.8.8-.8,2.7-1.8,1.7-.2-.8,0-1.7.6-2.3l.1.1Z"/>
  <path class="st19" d="M49,69.7c.8-.2,1.6,0,2.4-.1-.4.7-1.7,1.1-2.3.6v-.4l-.1-.1Z"/>
  <path class="st0" d="M49.7,67.9v.5c.2.2.5,0,.8,0-.2.1-1.1.1-1.4,0,.2-.2.4-.5.6-.7v.2Z"/>
  <path class="st0" d="M40.6,66.1c.4,0,.9,0,1.3.1-.5,1.2-.6,2.8-.5,4.2-.2,0-.4,0-.6-.1h0c0-1.5.8-2.9-.1-4.1l-.1-.1Z"/>
  <path class="st2" d="M40.9,69.2c0-.1.2-.2.3-.4,0,.4,0,1.2-.3,1.4h0c0-.4,0-.7.1-1h-.1Z"/>
  <path class="st2" d="M41.1,67.6c0,.5.2,1.2-.3,1.6,0-.5.3-1,.3-1.6Z"/>
  <path class="st12" d="M42.6,65.6c.2.5.8.3,1.2.5-.3.6-.4,1.1-.5,1.7h-.8c-.2-.6.1-1.6.2-2.2h-.1Z"/>
  <path class="st2" d="M43.9,62.1c-.2.3-.6.9-1,1-.2,0-.3,0-.5-.2h0c0-.1-.1-.1-.1-.1l-.2.2c-.1-.4,0-1.5.4-1.9.1,0,.1.1.2.3h0c.2.4.5.5.8.7h.1q.2,0,.3.2v-.2Z"/>
  <path class="st0" d="M41.4,70.5h.3c.4.8-.3,2-1.1,1.3,0-.6-.1-1.5.7-1.3h.1Z"/>
  <path class="st2" d="M40.7,71.4c.2.2.4.4.7.6-.4.1-.9-.1-.7-.6Z"/>
  <path class="st6" d="M41.8,70.2c.3.3.4.7.5,1.1-.3,2.1-3.1.9-1.9-.9-.4,1.3.7,2.7,1.6,1.1.1-.5-.4-.9-.2-1.4v.1Z"/>
  <path class="st19" d="M44.2,68.8c0-.1.1-.2.2-.2h.3c.5,0,.6.5.5,1-.4-.2-.7-.5-1-.8Z"/>
</svg>