<?xml version="1.0" encoding="UTF-8"?>
<svg id="Layer_1" xmlns="http://www.w3.org/2000/svg" version="1.1" viewBox="0 0 239 113.8">
  <!-- Generator: Adobe Illustrator 29.1.0, SVG Export Plug-In . SVG Version: 2.1.0 Build 142)  -->
  <path d="M73.6,66.2c-1.9.6-3.4,1.1-4.7,1.6-1.3.4-2.4.8-3.5,1-1.1.2-2.1.4-3.3.5-1.1.1-2.4.2-3.9.2s-3.9-.2-6-.7c-2.1-.5-4.4-1.1-6.6-2-2.3-.8-4.5-1.7-6.7-2.7-2.2-1-4.4-1.9-6.4-2.9-2.1-1-3.9-1.8-5.6-2.5-1.2-.6-2.5-1-3.9-1.3-1.4-.3-2.7-.5-4-.8-4.2-.9-7.6-2.5-10.2-4.7-2.6-2.3-4.4-5-5.6-8.2-1.2-3.2-1.7-6.6-1.7-10.2s.4-6,1.3-8.8c.9-2.8,2.2-5.3,4-7.6,1.8-2.2,4-4,6.8-5.3,2.7-1.3,5.9-1.9,9.6-1.9s6.9.7,9.6,2c2.7,1.3,5,3.1,6.8,5.3,1.8,2.2,3.1,4.7,4,7.5.9,2.8,1.3,5.7,1.3,8.8s-.4,5.3-1.1,7.9c-.8,2.6-2,5.1-3.7,7.4-1.7,2.3-3.9,4.2-6.7,5.6.2,0,.3,0,.5.1.2,0,.3.1.4.2,1.4.7,2.9,1.4,4.6,2.2,1.7.8,3.4,1.6,5.3,2.4,1.9.8,3.8,1.5,5.7,2.2,1.9.7,3.8,1.2,5.7,1.6,1.9.4,3.6.6,5.3.6s1.9,0,3.1-.3c1.3-.2,2.6-.4,4.1-.8,1.5-.3,2.9-.7,4.2-1.1l1.4,4.7ZM23.1,50.9c2.3,0,4.2-.5,5.8-1.5,1.6-1,2.9-2.3,3.9-4,1-1.7,1.7-3.5,2.2-5.5.5-2,.7-4.1.7-6.3s-.2-4.3-.7-6.4c-.5-2.1-1.2-4-2.2-5.7-1-1.7-2.3-3-3.9-4.1-1.6-1-3.5-1.5-5.8-1.5s-4.2.5-5.8,1.5c-1.6,1-2.9,2.4-3.9,4.1-1,1.7-1.7,3.6-2.2,5.7-.5,2.1-.7,4.2-.7,6.4s.2,4.2.7,6.2c.5,2,1.2,3.9,2.2,5.5,1,1.7,2.3,3,3.9,4,1.6,1,3.5,1.5,5.8,1.5Z" fill="#d51f26" stroke="#fff" stroke-miterlimit="10"/>
  <path d="M57.6,25.3v19.5c0,1,0,1.9.2,2.9.2,1,.5,1.7,1.1,2.4.6.6,1.5,1,2.7,1s2.2-.2,3.2-.7c1-.5,1.8-1.2,2.4-2.1.6-.9.9-2,.9-3.2v-16.4s0-.3-.2-.8c-.1-.5-.2-1-.3-1.6-.1-.5-.2-.8-.2-.9h8.3v22.8c0,1.2.2,2,.5,2.4.4.5.9.7,1.5.7s1.4-.2,2.4-.5l1.2,4.2c-.9.4-1.9.8-3,1.1-1.1.4-2.3.5-3.4.5s-2.4-.3-3.5-.9c-1-.6-1.7-1.7-2-3.2-1.3,1.4-2.9,2.5-4.6,3.3-1.8.8-3.6,1.2-5.5,1.2s-4.2-.5-5.5-1.4c-1.3-.9-2.3-2.2-2.9-3.8-.6-1.6-.8-3.5-.8-5.7v-17.5l-.7-3.3h8.2Z" fill="#d51f26" stroke="#fff" stroke-miterlimit="10"/>
  <path d="M96.6,24.4c2.9,0,5.2.6,7,1.9,1.8,1.2,3.2,2.8,4.1,4.8.9,2,1.3,4.1,1.3,6.3s0,1.4-.1,2.1c0,.7-.2,1.4-.4,2.1h-18.8c0,3.3.8,5.8,2.4,7.6,1.6,1.8,3.6,2.6,6.1,2.6s2.5-.2,3.9-.6c1.4-.4,2.8-1.1,4.3-1.9l2,4.2c-1.4,1.1-3.2,1.9-5.3,2.5-2.1.5-4,.8-5.7.8-2.4,0-4.6-.4-6.5-1.1-1.9-.7-3.6-1.8-4.9-3.2-1.3-1.4-2.4-3.1-3.1-5-.7-1.9-1.1-4.1-1.1-6.5s.3-4.3,1-6.2c.7-2,1.6-3.7,2.9-5.3,1.3-1.6,2.8-2.8,4.7-3.7,1.8-.9,3.9-1.3,6.2-1.3ZM96.3,29.5c-1.4,0-2.5.4-3.4,1.1-.9.7-1.6,1.7-2.1,2.8-.5,1.1-.8,2.2-.9,3.3h11.5c.2-1.2.1-2.3-.2-3.4-.3-1.1-.9-2-1.7-2.7-.8-.7-1.9-1.1-3.1-1.1Z" fill="#d51f26" stroke="#fff" stroke-miterlimit="10"/>
  <path d="M125.7,24.5c1.4,0,3,.2,4.7.5,1.7.3,3.2.8,4.4,1.5l-2.6,5.2c-.8-.7-1.8-1.2-2.9-1.5-1.1-.4-2.2-.6-3.3-.6s-2,.2-2.9.7c-.9.5-1.3,1.3-1.3,2.5s.2,1.3.5,1.8c.4.5.8.9,1.5,1.2.6.3,1.3.7,2,1,1,.4,2,.8,3.1,1.2,1.1.5,2.1,1,3,1.7,1,.7,1.7,1.5,2.3,2.6.6,1.1.9,2.5.9,4.2s-.6,4.1-1.7,5.6c-1.2,1.6-2.7,2.8-4.5,3.6-1.8.8-3.8,1.2-5.9,1.2s-3.4-.2-5.3-.7c-1.9-.5-3.5-1.1-5-1.9l2.7-5.1c1.1.6,2.2,1.2,3.3,1.7,1.2.5,2.4.8,3.7.8s2.3-.3,3.3-1c.9-.6,1.4-1.6,1.4-3s-.2-1.6-.7-2.2c-.5-.6-1.1-1-1.9-1.5-.8-.4-1.7-.8-2.6-1.1-1.3-.5-2.5-1-3.8-1.6-1.2-.6-2.3-1.5-3.1-2.6-.8-1.1-1.2-2.6-1.2-4.6s.6-4,1.8-5.4c1.2-1.4,2.7-2.5,4.5-3.2,1.8-.7,3.7-1.1,5.6-1.1Z" fill="#d51f26" stroke="#fff" stroke-miterlimit="10"/>
  <path d="M152.3,16.3c-.3,1.4-.5,2.9-.7,4.5-.2,1.5-.3,3-.4,4.5h7.5l-1.2,4.9h-6.3v17c0,.5,0,1,.1,1.7,0,.7.3,1.2.7,1.7s1,.7,1.8.7,1.4,0,2-.2c.7-.1,1.3-.3,2-.4l.9,4.6c-1.1.3-2.3.6-3.6.9-1.3.3-2.6.4-3.7.4-2.6,0-4.6-.6-5.9-1.9-1.3-1.2-1.9-3.2-1.9-6v-18.7h-5.1v-4.1c1.3,0,2.4-.4,3.3-1,1-.6,1.8-1.4,2.4-2.4.7-1,1.2-2,1.7-3.2.4-1.1.8-2.2,1-3.3h5.3Z" fill="#d51f26" stroke="#fff" stroke-miterlimit="10"/>
  <path d="M171.2,14.1c0,1.3-.5,2.4-1.4,3.3-.9,1-2,1.4-3.3,1.4s-2.4-.5-3.3-1.4c-1-1-1.4-2.1-1.4-3.3s.5-2.4,1.4-3.3c1-.9,2.1-1.4,3.3-1.4s2.4.5,3.3,1.4c.9.9,1.4,2,1.4,3.3ZM170.2,25.3v30.8h-7.4v-27.5l-.7-3.3h8.1Z" fill="#d51f26" stroke="#fff" stroke-miterlimit="10"/>
  <path d="M190.7,56.9c-3.1,0-5.8-.7-8-2.1-2.2-1.4-3.9-3.3-5.1-5.8-1.2-2.4-1.8-5.1-1.8-8.1s.4-4.3,1.1-6.3c.7-2,1.7-3.7,3.1-5.2,1.3-1.5,2.9-2.7,4.8-3.6,1.9-.9,3.9-1.3,6.3-1.3s5.8.7,8,2.1c2.2,1.4,3.9,3.3,5.1,5.8,1.2,2.4,1.8,5.1,1.8,8.1s-.4,4.3-1.1,6.3c-.7,2-1.7,3.7-3,5.2-1.3,1.5-2.9,2.7-4.8,3.6-1.9.9-4,1.3-6.3,1.3ZM190.7,51.9c1.4,0,2.6-.4,3.5-1.1.9-.7,1.6-1.7,2.1-2.8.5-1.1.8-2.4,1-3.7.2-1.3.3-2.5.3-3.6s0-2.4-.2-3.7c-.1-1.3-.4-2.5-.9-3.7-.5-1.1-1.1-2.1-2-2.8-.9-.7-2.1-1.1-3.6-1.1s-2.6.4-3.5,1.1c-.9.7-1.6,1.7-2.1,2.9-.5,1.2-.8,2.4-1.1,3.7-.2,1.3-.3,2.5-.3,3.5s0,2.3.2,3.6c.2,1.3.5,2.5.9,3.7.5,1.2,1.1,2.1,2,2.8.9.7,2.1,1.1,3.5,1.1Z" fill="#d51f26" stroke="#fff" stroke-miterlimit="10"/>
  <path d="M218,24.6c.3.6.5,1.3.7,2,.2.7.3,1.4.4,2,1.2-1.1,2.7-2.1,4.4-2.9,1.7-.8,3.4-1.2,5.1-1.2s4.3.5,5.6,1.4c1.3.9,2.3,2.2,2.8,3.8.5,1.6.8,3.5.8,5.7v20.8h-7.5v-20.1c0-1,0-1.9-.2-2.7-.1-.9-.5-1.6-1.1-2.1s-1.4-.8-2.6-.8-1.4.2-2.3.6c-.9.4-1.7.8-2.5,1.3-.8.5-1.4,1-1.9,1.5v22.4h-7.4v-22.1c0-.7,0-1.7-.2-2.8-.1-1.1-.3-2.2-.6-3.3-.3-1.1-.7-1.9-1.2-2.5l7.8-.9Z" fill="#d51f26" stroke="#fff" stroke-miterlimit="10"/>
  <path d="M22.5,58.7h15.6c2.8,0,5.3.4,7.6,1.1,2.3.8,4.2,2,5.6,3.8,1.4,1.8,2.1,4.3,2.1,7.4s-.5,3.4-1.4,5c-.9,1.6-2.1,3-3.6,4.1-1.5,1.1-3,1.9-4.7,2.3l13.9,21.5h-9.7l-12.6-20.2h-3.4v20.2h-8.5v-41.6l-.9-3.8ZM32,64.9v12.9h4c1.6,0,3.1-.2,4.3-.6,1.3-.4,2.3-1.1,3-2.1.7-1,1.1-2.4,1.1-4.1s-.3-2.5-1-3.4c-.7-.9-1.5-1.6-2.6-2-1.1-.5-2.3-.7-3.5-.7h-5.3Z" fill="#d51f26" stroke="#fff" stroke-miterlimit="10"/>
  <path d="M72.4,72.4c2.9,0,5.2.6,7,1.9,1.8,1.2,3.2,2.8,4.1,4.8.9,2,1.3,4.1,1.3,6.3s0,1.4-.1,2.1c0,.7-.2,1.4-.4,2.1h-18.8c0,3.3.8,5.8,2.4,7.6,1.6,1.8,3.6,2.6,6.1,2.6s2.5-.2,3.9-.6c1.4-.4,2.8-1.1,4.3-1.9l2,4.2c-1.4,1.1-3.2,1.9-5.3,2.5-2.1.5-4,.8-5.7.8-2.4,0-4.6-.4-6.5-1.1-1.9-.7-3.6-1.8-4.9-3.2-1.3-1.4-2.4-3.1-3.1-5-.7-1.9-1.1-4.1-1.1-6.5s.3-4.3,1-6.2c.7-2,1.6-3.7,2.9-5.3,1.3-1.6,2.8-2.8,4.7-3.7,1.8-.9,3.9-1.3,6.2-1.3ZM72.1,77.5c-1.4,0-2.5.4-3.4,1.1-.9.7-1.6,1.7-2.1,2.8-.5,1.1-.8,2.2-.9,3.3h11.5c.2-1.2.1-2.3-.2-3.4-.3-1.1-.9-2-1.7-2.7-.8-.7-1.9-1.1-3.1-1.1Z" fill="#d51f26" stroke="#fff" stroke-miterlimit="10"/>
  <path d="M94.5,73.3l5.6,16.2c.3.9.6,1.7.8,2.6.2.8.4,1.7.5,2.6.2-.9.3-1.7.4-2.6.1-.9.3-1.7.6-2.6l5.8-16.2h6.7l-10.9,31.1h-6.7l-10.9-31.1h8Z" fill="#d51f26" stroke="#fff" stroke-miterlimit="10"/>
  <path d="M127.4,62.1c0,1.3-.5,2.4-1.4,3.3-.9,1-2,1.4-3.3,1.4s-2.4-.5-3.3-1.4c-1-1-1.4-2.1-1.4-3.3s.5-2.4,1.4-3.3c1-.9,2.1-1.4,3.3-1.4s2.4.5,3.3,1.4c.9.9,1.4,2,1.4,3.3ZM126.3,73.3v30.8h-7.4v-27.5l-.7-3.3h8.1Z" fill="#d51f26" stroke="#fff" stroke-miterlimit="10"/>
  <path d="M146.8,72.4c2.9,0,5.2.6,7,1.9,1.8,1.2,3.2,2.8,4.1,4.8.9,2,1.3,4.1,1.3,6.3s0,1.4-.1,2.1c0,.7-.2,1.4-.4,2.1h-18.8c0,3.3.8,5.8,2.4,7.6,1.6,1.8,3.6,2.6,6.1,2.6s2.5-.2,3.9-.6c1.4-.4,2.8-1.1,4.3-1.9l2,4.2c-1.4,1.1-3.2,1.9-5.3,2.5-2.1.5-4,.8-5.7.8-2.4,0-4.6-.4-6.5-1.1-1.9-.7-3.6-1.8-4.9-3.2-1.3-1.4-2.4-3.1-3.1-5-.7-1.9-1.1-4.1-1.1-6.5s.3-4.3,1-6.2c.7-2,1.6-3.7,2.9-5.3,1.3-1.6,2.8-2.8,4.7-3.7,1.8-.9,3.9-1.3,6.2-1.3ZM146.5,77.5c-1.4,0-2.5.4-3.4,1.1-.9.7-1.6,1.7-2.1,2.8-.5,1.1-.8,2.2-.9,3.3h11.5c.2-1.2.1-2.3-.2-3.4-.3-1.1-.9-2-1.7-2.7-.8-.7-1.9-1.1-3.1-1.1Z" fill="#d51f26" stroke="#fff" stroke-miterlimit="10"/>
  <path d="M168.1,73.3l4.2,14c.3,1,.5,2,.7,3,.1,1,.2,2,.3,3.1.2-1.1.3-2.1.4-3.1.1-1,.3-2,.7-3l4.5-14h6.9l4.2,14c.3,1,.5,2,.6,3,0,1,.2,2,.4,3.1.1-1.1.2-2.1.4-3.1.1-1,.3-2,.6-3l4.4-14h6.4l-9.8,31.1h-5.8c-.7-2.3-1.4-4.6-2.1-6.9-.7-2.3-1.4-4.5-2-6.8-.6-2.3-1.1-4.6-1.6-7-.4,2.4-.9,4.7-1.5,7-.7,2.3-1.4,4.6-2.1,6.8-.8,2.3-1.5,4.5-2.3,6.9h-5.9l-9.2-31.1h7.8Z" fill="#d51f26" stroke="#fff" stroke-miterlimit="10"/>
  <path d="M208,58.7h9.2l-1.8,31.8h-5.6l-1.8-31.8ZM217.3,100.3c0,1.3-.5,2.4-1.4,3.3-.9.9-2,1.3-3.3,1.3s-2.3-.4-3.2-1.3c-.9-.9-1.4-2-1.4-3.3s.5-2.3,1.4-3.2,2-1.4,3.2-1.4,2.4.4,3.3,1.3c.9.9,1.4,2,1.4,3.3Z" fill="#d51f26" stroke="#fff" stroke-miterlimit="10"/>
</svg>