<?xml version="1.0" encoding="UTF-8"?>
<svg id="Layer_1" xmlns="http://www.w3.org/2000/svg" width="3.319in" height="1.581in" version="1.1" viewBox="0 0 238.968 113.832">
  <!-- Generator: Adobe Illustrator 29.4.0, SVG Export Plug-In . SVG Version: 2.1.0 Build 152)  -->
  <defs>
    <style>
      .st0 {
        fill: #d60000;
        stroke: #fff;
        stroke-linecap: round;
        stroke-linejoin: round;
        stroke-width: 1px;
      }
    </style>
  </defs>
  <path class="st0" d="M18.16,14.66h11.182c2.345,0,4.481.33,6.41.988,1.928.659,3.478,1.751,4.65,3.277,1.173,1.527,1.759,3.624,1.759,6.289,0,2.442-.603,4.442-1.807,6-1.205,1.559-2.78,2.708-4.723,3.446-1.945.74-4.008,1.108-6.193,1.108h-3.951v14.169h-6.603V17.599s-.723-2.94-.723-2.94ZM25.533,19.431v11.662h4.048c1.799,0,3.173-.554,4.12-1.663s1.422-2.514,1.422-4.217c0-1.767-.458-3.173-1.374-4.216s-2.29-1.566-4.12-1.566c0,0-4.096,0-4.096,0Z"/>
  <path class="st0" d="M51.268,25.503c.707,1.607,1.092,3.294,1.157,5.06.803-1.35,1.928-2.53,3.374-3.542s2.972-1.518,4.578-1.518l-.964,5.734c-1.415,0-2.675.362-3.783,1.084-1.109.723-2.162,1.84-3.157,3.35v14.265h-5.783v-17.495c0-.61-.048-1.325-.145-2.145-.096-.819-.257-1.614-.482-2.386-.225-.771-.53-1.414-.916-1.928l6.12-.482h.001Z"/>
  <path class="st0" d="M72.522,25.31c2.217,0,4.04.482,5.47,1.446,1.429.964,2.49,2.209,3.181,3.735.69,1.527,1.036,3.157,1.036,4.892,0,.514-.032,1.053-.096,1.615-.065.562-.177,1.117-.337,1.663h-14.651c0,2.571.61,4.538,1.832,5.904,1.221,1.366,2.812,2.048,4.771,2.048.932,0,1.936-.161,3.012-.482,1.076-.321,2.193-.819,3.35-1.494l1.542,3.277c-1.093.868-2.467,1.511-4.12,1.928-1.655.417-3.142.626-4.457.626-1.864,0-3.543-.289-5.036-.868s-2.764-1.414-3.807-2.506-1.84-2.394-2.386-3.903c-.547-1.51-.819-3.197-.819-5.06,0-1.703.256-3.317.771-4.843.514-1.526,1.269-2.892,2.265-4.096s2.209-2.152,3.639-2.844c1.43-.69,3.044-1.036,4.843-1.036ZM72.28,29.262c-1.06,0-1.952.289-2.675.868s-1.277,1.301-1.663,2.169c-.386.868-.611,1.719-.675,2.555h8.916c.161-.932.112-1.823-.145-2.675-.258-.851-.707-1.55-1.35-2.097-.643-.546-1.446-.819-2.41-.819h.001Z"/>
  <path class="st0" d="M94.063,25.262c1.028,0,1.928.121,2.699.361.771.241,1.591.362,2.458.362,1.414,0,2.851-.056,4.313-.169,1.461-.112,2.883-.232,4.265-.361l-1.061,3.999h-4.096c-.161,0-.346-.032-.554-.096-.209-.064-.394-.112-.554-.145.514.644.899,1.31,1.157,2,.257.691.386,1.454.386,2.29,0,1.671-.426,3.133-1.277,4.385-.852,1.253-1.984,2.226-3.398,2.916-1.415.691-2.94,1.036-4.578,1.036-.579,0-1.101.201-1.566.603-.466.402-.699.924-.699,1.566,0,.451.201.788.603,1.012.401.225.908.37,1.519.434.61.064,1.221.096,1.832.096h2.217c.996,0,2,.048,3.012.145s1.944.322,2.796.675c.851.354,1.534.9,2.048,1.639.514.74.771,1.752.771,3.037,0,1.735-.402,3.229-1.205,4.481-.803,1.254-1.848,2.29-3.133,3.109-1.286.819-2.699,1.422-4.241,1.808-1.542.386-3.069.578-4.578.578-.964,0-2-.081-3.109-.241-1.109-.161-2.162-.458-3.157-.892-.997-.434-1.808-1.045-2.434-1.831-.626-.788-.94-1.808-.94-3.062,0-1.414.425-2.667,1.277-3.758.851-1.093,1.839-1.896,2.964-2.41v-.193c-.547-.161-1.053-.562-1.519-1.205-.466-.643-.699-1.333-.699-2.073,0-.321.176-.642.53-.964.353-.321.811-.771,1.374-1.35.562-.579,1.148-1.381,1.759-2.41-1.318-.739-2.362-1.711-3.133-2.916s-1.157-2.594-1.157-4.168c0-1.67.417-3.125,1.253-4.361.835-1.237,1.952-2.201,3.35-2.892,1.397-.69,2.899-1.036,4.505-1.036h.001ZM91.799,49.937c-.643.353-1.197.908-1.663,1.663-.466.754-.699,1.519-.699,2.289,0,.739.249,1.333.747,1.783s1.092.764,1.783.94c.691.176,1.341.265,1.952.265.739,0,1.519-.064,2.338-.192.819-.129,1.574-.354,2.265-.675s1.253-.779,1.687-1.374.651-1.357.651-2.289c0-.771-.265-1.326-.795-1.663s-1.165-.547-1.904-.626c-.74-.081-1.398-.121-1.976-.121h-4.385ZM94.015,28.876c-.643,0-1.189.217-1.639.651s-.795,1.012-1.036,1.735c-.241.723-.361,1.535-.361,2.434,0,.868.121,1.663.361,2.386.241.723.586,1.301,1.036,1.735.45.434.996.65,1.639.65.964,0,1.718-.465,2.265-1.397.546-.932.819-2.056.819-3.374,0-.899-.12-1.711-.361-2.434s-.595-1.302-1.061-1.735-1.021-.651-1.663-.651h0Z"/>
  <path class="st0" d="M115.606,25.985v15.181c0,.74.064,1.479.193,2.217.128.74.417,1.358.868,1.855.45.499,1.14.748,2.072.748.899,0,1.735-.193,2.506-.579.771-.386,1.397-.932,1.88-1.639.482-.707.723-1.526.723-2.458v-12.723c0-.032-.047-.249-.145-.65-.096-.402-.186-.812-.266-1.229s-.137-.658-.168-.723h6.458v17.735c0,.9.137,1.526.41,1.88.271.354.666.53,1.18.53.451,0,1.061-.128,1.832-.386l.916,3.277c-.674.322-1.455.619-2.338.892-.885.272-1.76.41-2.627.41-.996,0-1.896-.241-2.699-.723s-1.334-1.317-1.59-2.506c-1.029,1.061-2.227,1.912-3.592,2.555-1.366.642-2.803.964-4.312.964-1.832,0-3.27-.354-4.313-1.061-1.044-.706-1.783-1.694-2.217-2.964-.434-1.269-.651-2.739-.651-4.409v-13.59l-.53-2.603s6.41,0,6.41,0Z"/>
  <path class="st0" d="M142.063,25.455c.225.482.401.988.53,1.518.128.53.225,1.053.289,1.566.964-.867,2.097-1.622,3.398-2.265,1.302-.643,2.61-.964,3.927-.964,1.863,0,3.31.354,4.338,1.06,1.027.708,1.751,1.695,2.169,2.964.417,1.27.626,2.74.626,4.409v16.193h-5.831v-15.615c0-.739-.057-1.446-.169-2.121s-.385-1.229-.819-1.663-1.116-.651-2.048-.651c-.482,0-1.069.145-1.76.434s-1.35.635-1.976,1.036c-.627.402-1.117.795-1.471,1.181v17.398h-5.783v-17.157c0-.578-.04-1.293-.12-2.145-.081-.851-.233-1.694-.458-2.53-.225-.835-.53-1.478-.916-1.928l6.072-.723v.002Z"/>
  <path class="st0" d="M171.075,18.997c-.226,1.125-.418,2.282-.578,3.471-.161,1.189-.258,2.362-.29,3.519h5.832l-.916,3.807h-4.916v13.253c0,.354.032.788.097,1.301.064.515.241.964.53,1.35.289.386.755.579,1.397.579.547,0,1.076-.048,1.591-.145.514-.097,1.028-.209,1.543-.337l.675,3.615c-.836.258-1.776.49-2.82.699s-2,.313-2.867.313c-2.058,0-3.575-.482-4.555-1.446-.98-.964-1.47-2.506-1.47-4.626v-14.554h-3.951v-3.181c.995-.032,1.863-.281,2.603-.747.739-.465,1.374-1.076,1.904-1.832.529-.755.964-1.574,1.301-2.458.338-.883.603-1.743.796-2.579h4.096v-.002Z"/>
  <path class="st0" d="M189.004,25.406c2.57,0,4.554.651,5.951,1.952s2.097,3.253,2.097,5.855v10.555c0,.932.145,1.559.434,1.88s.658.482,1.108.482c.321,0,.635-.032.94-.097.305-.064.618-.16.939-.289l.916,3.277c-.707.386-1.511.699-2.41.94-.899.241-1.719.362-2.458.362-1.156,0-2.089-.241-2.796-.723s-1.204-1.317-1.494-2.506c-.899,1.253-1.952,2.129-3.156,2.627-1.205.498-2.563.747-4.072.747-1.864,0-3.463-.538-4.795-1.615-1.334-1.076-2-2.595-2-4.554,0-1.735.409-3.157,1.229-4.265.819-1.108,1.888-1.959,3.205-2.554,1.317-.594,2.739-1.004,4.266-1.229,1.525-.225,2.979-.337,4.36-.337v-3.133c0-.868-.12-1.542-.361-2.024s-.619-.827-1.133-1.036c-.514-.208-1.173-.313-1.976-.313-1.093,0-2.186.306-3.278.916-1.093.611-2.057,1.237-2.892,1.88l-2.361-3.807c1.445-.996,2.995-1.743,4.649-2.241s3.351-.747,5.085-.747v-.002ZM191.267,39.864c-.675,0-1.414.032-2.217.096-.804.065-1.575.226-2.313.482-.74.257-1.342.643-1.808,1.157s-.699,1.221-.699,2.121c0,.74.297,1.31.892,1.711.595.402,1.229.603,1.904.603.899,0,1.663-.257,2.289-.771.627-.514,1.109-1.165,1.446-1.952.338-.787.506-1.566.506-2.338v-1.108h0Z"/>
  <path class="st0" d="M212.136,25.358c1.124,0,2.337.121,3.639.362s2.45.619,3.446,1.133l-2.024,4.047c-.644-.514-1.391-.916-2.241-1.205-.852-.29-1.695-.434-2.53-.434-.804,0-1.551.193-2.241.579-.691.385-1.037,1.044-1.037,1.976,0,.547.137,1.004.41,1.374.272.37.65.683,1.133.94.481.258,1.012.515,1.591.771.771.289,1.573.61,2.409.964s1.623.788,2.362,1.301c.738.515,1.333,1.197,1.783,2.048.45.852.675,1.937.675,3.253,0,1.704-.45,3.166-1.35,4.385-.899,1.222-2.065,2.153-3.494,2.796-1.431.642-2.948.964-4.554.964-1.286,0-2.66-.193-4.12-.579-1.463-.385-2.756-.883-3.88-1.494l2.073-3.951c.835.482,1.702.924,2.603,1.325.899.402,1.848.603,2.844.603.964,0,1.808-.249,2.53-.747.724-.498,1.085-1.277,1.085-2.337,0-.707-.186-1.277-.555-1.711-.37-.434-.86-.811-1.47-1.132-.611-.321-1.286-.61-2.024-.868-.996-.386-1.977-.811-2.94-1.277-.964-.465-1.768-1.133-2.41-2-.643-.867-.964-2.056-.964-3.566,0-1.703.458-3.109,1.374-4.217.916-1.108,2.08-1.936,3.494-2.482s2.876-.82,4.386-.82h0Z"/>
  <path class="st0" d="M7.799,67.221c.161.45.305.924.434,1.422.128.498.224.988.289,1.47.707-.964,1.711-1.711,3.012-2.241,1.302-.53,2.514-.795,3.639-.795,1.735,0,3.245.346,4.53,1.036,1.285.691,2.354,1.631,3.206,2.819.851,1.189,1.494,2.523,1.928,4,.434,1.479.651,2.988.651,4.529,0,1.735-.233,3.367-.699,4.892s-1.174,2.876-2.121,4.048c-.948,1.174-2.121,2.097-3.519,2.771s-3.029,1.013-4.891,1.013c-.804,0-1.728-.129-2.771-.386-1.045-.257-1.904-.643-2.579-1.157.064.45.096.94.096,1.471v7.397l.675,2.65H3.173v-27.662c0-.61-.041-1.326-.121-2.146-.081-.819-.225-1.63-.434-2.434-.209-.803-.491-1.462-.844-1.977l6.024-.723v.002ZM13.582,71.366c-.868,0-1.728.233-2.579.698-.852.467-1.519,1.069-2,1.808v7.855c0,1.061.136,2.081.41,3.061.272.98.755,1.776,1.446,2.386.691.611,1.663.916,2.917.916,1.06,0,1.936-.272,2.626-.819.691-.546,1.245-1.253,1.663-2.12.417-.868.707-1.784.868-2.748.16-.964.241-1.863.241-2.699,0-.867-.089-1.783-.265-2.747-.177-.964-.482-1.871-.916-2.724-.434-.851-1.012-1.542-1.735-2.072-.723-.53-1.615-.795-2.675-.795h-.001Z"/>
  <path class="st0" d="M38.98,67.173c2.57,0,4.554.65,5.952,1.951,1.398,1.302,2.097,3.254,2.097,5.855v10.555c0,.933.145,1.56.434,1.88.289.322.658.482,1.108.482.321,0,.634-.032.94-.097.305-.063.618-.16.94-.289l.916,3.277c-.707.386-1.511.699-2.41.94-.9.24-1.72.361-2.458.361-1.157,0-2.089-.241-2.795-.723-.707-.482-1.205-1.317-1.494-2.507-.9,1.253-1.952,2.129-3.157,2.627s-2.563.747-4.072.747c-1.864,0-3.463-.538-4.795-1.615-1.334-1.076-2-2.594-2-4.554,0-1.735.41-3.157,1.229-4.265.819-1.108,1.887-1.959,3.205-2.555,1.317-.594,2.739-1.004,4.265-1.229,1.526-.225,2.98-.338,4.361-.338v-3.133c0-.867-.121-1.542-.362-2.024s-.619-.827-1.133-1.036-1.173-.313-1.976-.313c-1.093,0-2.186.306-3.277.916-1.093.61-2.057,1.237-2.892,1.88l-2.362-3.807c1.446-.996,2.996-1.743,4.65-2.241,1.655-.498,3.35-.747,5.084-.747v.003ZM41.244,81.63c-.675,0-1.415.033-2.217.097-.804.065-1.575.226-2.313.482-.74.258-1.342.643-1.808,1.156-.466.515-.699,1.222-.699,2.121,0,.739.296,1.31.892,1.711.594.402,1.229.603,1.904.603.899,0,1.663-.257,2.29-.771.626-.514,1.108-1.164,1.446-1.952.337-.786.506-1.566.506-2.337v-1.109h0Z"/>
  <path class="st0" d="M58.401,67.269c.707,1.607,1.092,3.294,1.157,5.061.803-1.35,1.928-2.531,3.374-3.543s2.972-1.519,4.578-1.519l-.964,5.735c-1.415,0-2.675.361-3.783,1.084-1.109.724-2.162,1.84-3.157,3.35v14.266h-5.783v-17.494c0-.61-.048-1.326-.145-2.146-.096-.819-.257-1.614-.482-2.386-.225-.771-.53-1.413-.916-1.928l6.12-.482h0Z"/>
  <path class="st0" d="M78.882,67.173c2.57,0,4.554.65,5.952,1.951,1.398,1.302,2.097,3.254,2.097,5.855v10.555c0,.933.145,1.56.434,1.88.289.322.658.482,1.108.482.321,0,.634-.032.94-.097.305-.063.618-.16.94-.289l.916,3.277c-.707.386-1.511.699-2.41.94-.9.24-1.72.361-2.458.361-1.157,0-2.089-.241-2.795-.723-.707-.482-1.205-1.317-1.494-2.507-.9,1.253-1.952,2.129-3.157,2.627s-2.563.747-4.072.747c-1.864,0-3.463-.538-4.795-1.615-1.334-1.076-2-2.594-2-4.554,0-1.735.41-3.157,1.229-4.265.819-1.108,1.887-1.959,3.205-2.555,1.317-.594,2.739-1.004,4.265-1.229,1.526-.225,2.98-.338,4.361-.338v-3.133c0-.867-.121-1.542-.362-2.024s-.619-.827-1.133-1.036-1.173-.313-1.976-.313c-1.093,0-2.186.306-3.277.916-1.093.61-2.057,1.237-2.892,1.88l-2.362-3.807c1.446-.996,2.996-1.743,4.65-2.241,1.655-.498,3.35-.747,5.084-.747v.003ZM81.148,81.63c-.675,0-1.415.033-2.217.097-.804.065-1.575.226-2.313.482-.74.258-1.342.643-1.808,1.156-.466.515-.699,1.222-.699,2.121,0,.739.296,1.31.892,1.711.594.402,1.229.603,1.904.603.899,0,1.663-.257,2.29-.771.626-.514,1.108-1.164,1.446-1.952.337-.786.506-1.566.506-2.337v-1.109h0Z"/>
  <path class="st0" d="M109.388,67.269c.707,1.607,1.092,3.294,1.157,5.061.803-1.35,1.928-2.531,3.374-3.543s2.972-1.519,4.578-1.519l-.964,5.735c-1.415,0-2.675.361-3.783,1.084-1.109.724-2.162,1.84-3.157,3.35v14.266h-5.783v-17.494c0-.61-.048-1.326-.145-2.146-.096-.819-.257-1.614-.482-2.386-.225-.771-.53-1.413-.916-1.928l6.12-.482h0Z"/>
  <path class="st0" d="M130.642,67.077c2.217,0,4.04.481,5.47,1.446,1.43.964,2.49,2.209,3.182,3.735.689,1.526,1.035,3.157,1.035,4.891,0,.515-.031,1.053-.096,1.615s-.178,1.116-.338,1.663h-14.65c0,2.57.609,4.538,1.832,5.903,1.221,1.366,2.811,2.048,4.77,2.048.932,0,1.936-.16,3.012-.481s2.193-.819,3.35-1.494l1.543,3.277c-1.092.867-2.467,1.511-4.12,1.928-1.654.418-3.141.627-4.458.627-1.863,0-3.541-.289-5.034-.867-1.494-.579-2.766-1.414-3.808-2.507-1.045-1.092-1.84-2.394-2.386-3.903-.547-1.51-.819-3.197-.819-5.06,0-1.703.256-3.317.771-4.844.514-1.525,1.268-2.892,2.266-4.096.994-1.205,2.209-2.152,3.639-2.844,1.43-.69,3.043-1.036,4.843-1.036h-.001ZM130.402,71.028c-1.061,0-1.953.289-2.676.867-.723.579-1.277,1.302-1.662,2.17-.387.867-.611,1.719-.676,2.554h8.917c.16-.932.111-1.823-.146-2.675-.256-.851-.707-1.55-1.348-2.097-.645-.546-1.447-.819-2.41-.819h0Z"/>
  <path class="st0" d="M147.798,67.751l4.386,12.626c.257.675.458,1.342.603,2.001.145.658.28,1.342.409,2.048.128-.675.241-1.357.338-2.048.096-.691.257-1.357.481-2.001l4.481-12.626h5.205l-8.482,24.144h-5.204l-8.435-24.144h6.217Z"/>
  <path class="st0" d="M173.341,59.028c0,.997-.354,1.864-1.061,2.604s-1.574,1.108-2.603,1.108c-.996,0-1.864-.369-2.603-1.108-.74-.739-1.109-1.606-1.109-2.604,0-1.027.369-1.896,1.109-2.603.738-.706,1.606-1.061,2.603-1.061,1.028,0,1.896.354,2.603,1.061s1.061,1.575,1.061,2.603ZM172.521,67.751v23.952h-5.783v-21.35l-.53-2.603h6.313Z"/>
  <path class="st0" d="M187.268,67.124c1.124,0,2.337.121,3.639.361,1.302.241,2.45.619,3.446,1.133l-2.024,4.048c-.644-.514-1.391-.916-2.241-1.205-.852-.289-1.695-.434-2.53-.434-.804,0-1.551.193-2.241.578-.691.386-1.037,1.045-1.037,1.977,0,.547.137,1.005.41,1.374.272.369.65.683,1.133.939.481.258,1.012.515,1.591.771.771.289,1.573.61,2.409.964s1.623.788,2.362,1.302c.738.514,1.333,1.197,1.783,2.048.45.852.675,1.937.675,3.254,0,1.703-.45,3.165-1.35,4.385-.899,1.222-2.065,2.153-3.494,2.796-1.431.643-2.948.964-4.554.964-1.286,0-2.66-.192-4.12-.578-1.463-.386-2.756-.884-3.88-1.494l2.073-3.952c.835.482,1.702.925,2.603,1.326.899.402,1.848.603,2.844.603.964,0,1.808-.249,2.53-.747.724-.498,1.085-1.277,1.085-2.338,0-.707-.186-1.277-.555-1.711-.37-.434-.86-.812-1.47-1.133-.611-.321-1.286-.61-2.024-.868-.996-.385-1.977-.811-2.94-1.277-.964-.465-1.768-1.132-2.41-2-.643-.867-.964-2.056-.964-3.566,0-1.703.458-3.109,1.374-4.217s2.08-1.936,3.494-2.482c1.414-.546,2.876-.819,4.386-.819v-.002Z"/>
  <path class="st0" d="M208.666,67.173c2.57,0,4.554.65,5.951,1.951,1.397,1.302,2.097,3.254,2.097,5.855v10.555c0,.933.145,1.56.434,1.88.289.322.658.482,1.108.482.321,0,.635-.032.94-.097.305-.063.618-.16.939-.289l.916,3.277c-.707.386-1.511.699-2.41.94-.899.24-1.719.361-2.458.361-1.156,0-2.089-.241-2.796-.723s-1.204-1.317-1.494-2.507c-.899,1.253-1.952,2.129-3.156,2.627-1.205.498-2.563.747-4.072.747-1.864,0-3.463-.538-4.795-1.615-1.334-1.076-2-2.594-2-4.554,0-1.735.409-3.157,1.229-4.265s1.888-1.959,3.205-2.555c1.317-.594,2.739-1.004,4.266-1.229,1.525-.225,2.979-.338,4.36-.338v-3.133c0-.867-.12-1.542-.361-2.024-.241-.481-.619-.827-1.133-1.036s-1.173-.313-1.976-.313c-1.093,0-2.186.306-3.278.916s-2.057,1.237-2.892,1.88l-2.361-3.807c1.445-.996,2.995-1.743,4.649-2.241s3.351-.747,5.085-.747v.003ZM210.93,81.63c-.675,0-1.414.033-2.217.097-.804.065-1.575.226-2.313.482-.74.258-1.342.643-1.808,1.156-.466.515-.699,1.222-.699,2.121,0,.739.297,1.31.892,1.711.595.402,1.229.603,1.904.603.899,0,1.663-.257,2.289-.771.627-.514,1.109-1.164,1.446-1.952.338-.786.506-1.566.506-2.337v-1.109h0Z"/>
  <path class="st0" d="M228.086,67.269c.706,1.607,1.092,3.294,1.157,5.061.803-1.35,1.928-2.531,3.374-3.543,1.445-1.012,2.972-1.519,4.577-1.519l-.964,5.735c-1.414,0-2.675.361-3.782,1.084-1.108.724-2.161,1.84-3.157,3.35v14.266h-5.783v-17.494c0-.61-.048-1.326-.145-2.146s-.258-1.614-.481-2.386c-.226-.771-.53-1.413-.916-1.928l6.12-.482h0Z"/>
</svg>