<?xml version="1.0" encoding="UTF-8"?>
<svg id="Layer_1" xmlns="http://www.w3.org/2000/svg" width="80" height="115" version="1.1" viewBox="0 0 80 115">
  <!-- Generator: Adobe Illustrator 29.4.0, SVG Export Plug-In . SVG Version: 2.1.0 Build 152)  -->
  <defs>
    <style>
      .st0 {
        fill: #cf763b;
      }

      .st1, .st2 {
        fill: #414042;
      }

      .st3 {
        fill: #b47442;
      }

      .st4 {
        fill: #7f5428;
      }

      .st5 {
        fill: #eba512;
      }

      .st6 {
        fill: #505257;
      }

      .st7 {
        fill: #fff;
      }

      .st8 {
        fill: #e8a976;
      }

      .st2 {
        isolation: isolate;
        opacity: .8;
      }

      .st9 {
        fill: #604628;
      }

      .st10 {
        fill: #649398;
      }

      .st11 {
        fill: #976135;
      }
    </style>
  </defs>
  <polygon class="st7" points="60.852 74.323 34.402 77.535 23.526 69.569 51.074 67.782 60.852 74.323"/>
  <path class="st1" d="M40.544,1.523c.811.185,1.39.718,2.003,1.251.069-.255.104-.695.289-.892.104-.116.243-.151.382-.139.95.035,2.212,1.575,2.779,2.258.382.116.706.255,1.019.509.602.475,1.042,1.123,1.575,1.667.683.706,1.436,1.343,2.119,2.061,1.992,2.107,2.86,4.122,2.849,7.052,0,.753-.139,1.517-.116,2.27.046,1.853.289,3.624.232,5.5.648.151,1.517.232,2.061.637.174.127.313.301.336.521.035.394-.243.695-.509.95-.22.845-.22,1.737-.463,2.594-.324,1.181-.66,1.98-1.76,2.605-.035,4.389-1.031,8.221-3.404,11.95.973.498,1.922,1.413,2.721,2.165,1.308,1.251,2.385,2.686,3.439,4.145,1.297,1.783,2.513,3.59,3.659,5.477.394.648,1.135,1.482,1.123,2.27,0,.336-.162.567-.382.799.452.845.787,1.702.973,2.64.313,1.575.162,3.045-.741,4.4,2.976,1.644,5.871,3.474,8.742,5.28,1.332.834,4.713,2.779,5.558,3.856.127.162.185.394.232.591.208,1.007-.139,4.145-.706,5.002-.475.718-1.355,1.088-2.177,1.251-.035,1.112-.058,2.235-.162,3.346-.093.961-.347,1.494-1.077,2.107.023.127.046.266.058.394.127,1.61.162,3.231.243,4.84l.521,10.306c.058,1.401.151,2.791.243,4.192.046.753.139,1.528.093,2.281-.023.521-.069.892-.428,1.297-.371.405-.915.648-1.471.66-.521.012-1.007-.162-1.366-.533-.278-.278-.417-.614-.475-.996-.139-.915-.127-1.899-.185-2.825l-.324-5.998-.475-8.719c-.069-1.32-.208-2.652-.197-3.972-2.93.289-5.848.741-8.777.926-.324,1.146-.509,2.351-.753,3.52-.405,1.841-.799,3.694-1.181,5.547-.127.66-.185,1.332-.347,1.98-.127.521-.417.648-.845.915,1.83,2.212,4.771,2.084,5.651,5.257.255.903.475,1.83-.035,2.686-.591,1.007-1.899,1.598-2.987,1.876-3.659.973-6.508-.428-9.576-2.235l-.706.243c-1.019-.417-3.15-1.471-3.613-2.478-.44-.984.069-2.27.266-3.254.208-1.019.232-1.714.637-2.71-.255-.185-.405-.394-.567-.648-.012-1.274.289-2.594.486-3.856l.915-5.558c-.672,0-1.355.104-2.026.174l-3.37.336-.614,6.288c-.127,1.482-.197,3.011-.452,4.47-.104.602-.405.787-.88,1.123.66,1.135,1.598,2.038,2.617,2.849.834.672,1.702,1.274,2.281,2.189.382.602.579,1.239.776,1.911.104.336.185.683.232,1.031.069.683-.093,1.297-.533,1.83-.938,1.1-2.895,1.563-4.261,1.679-3.81.324-6.288-.868-9.136-3.289-.162-.012-.324-.023-.486-.058-.799-.151-1.887-1.088-2.327-1.76-.208-.324-.313-.648-.347-1.031-.116-1.32.614-4.296.903-5.72-.208-.127-.428-.289-.579-.475-.127-.162-.197-.336-.22-.544-.116-1.158.035-2.455.069-3.613.035-.973.104-1.945.139-2.918.035-.973.035-1.945.104-2.918h-1.065c-.232,2.339-.324,4.713-.452,7.04l-.579,10.433c-.081,1.251-.116,2.524-.232,3.775-.058.579-.22,1.17-.695,1.54-.428.336-1.019.428-1.54.347-.058,0-.127-.023-.185-.035s-.116-.035-.174-.058-.116-.046-.174-.069c-.058-.023-.116-.058-.162-.093-.058-.035-.104-.069-.151-.104-.046-.035-.093-.081-.139-.116-.046-.046-.093-.081-.127-.127-.046-.046-.081-.093-.116-.139-.243-.347-.313-.706-.324-1.123-.023-.973.104-1.98.162-2.953l.405-6.681c.162-3.045.278-6.079.486-9.125.081-1.1.081-2.258.243-3.346-.868-.486-1.679-1.088-2.501-1.656-2.652-1.841-5.141-3.891-7.781-5.732-.012.232-.035.463-.058.695-.44,4.481-.915,8.962-1.413,13.432l-.382,3.705c-.081.787-.127,1.598-.301,2.374-.093.44-.232.776-.591,1.065-.382.301-.903.405-1.378.336-.498-.069-.973-.324-1.274-.729-.278-.371-.359-.822-.359-1.285,0-1.007.22-2.073.336-3.08.162-1.505.313-3.022.452-4.528l1.042-10.306c.151-1.413.255-2.825.44-4.238-.208-.174-.428-.347-.614-.544-.289-.301-.521-.648-.637-1.054-.324-1.077-.116-3.184-.104-4.365-.475-.313-.961-.602-1.401-.961-.706-.556-1.042-1.239-1.135-2.131-.069-.672-.046-2.571.104-3.184.069-.301.197-.591.405-.834.567-.672,1.644-.625,2.443-.672.023-.845-.023-1.691.069-2.536-1.019-.266-2.015-.764-2.733-1.563-.359-.394-.579-.811-.706-1.332-.394-1.633-.22-3.543-.22-5.211,0-1.378-.046-2.791.023-4.169.069-1.251.336-2.455,1.297-3.323,1.436-1.285,3.821-.984,5.616-.88,1.482-2.93,4.921-4.574,7.793-5.836.984-.44,2.096-.811,2.976-1.436.417-1.251,1.042-1.922,2.05-2.721-.104-.382-.185-.764-.266-1.158-.081-.382-.151-.776-.197-1.17-.058-.394-.104-.787-.127-1.181-.035-.394-.058-.787-.058-1.181-.428-.046-.822-.116-1.216-.266-1.204-.463-2.05-1.552-2.536-2.698-.822-1.911-1.112-4.493-.313-6.461.475-1.17,1.181-1.83,2.339-2.304.012-1.007.104-2.026.174-3.034.116-1.795.093-3.59.857-5.257.579-1.274,1.586-2.246,2.895-2.733,1.76-2.802,4.713-4.423,7.804-5.384,1.031-.324,2.131-.533,3.138-.95.695-.289,1.193-.845,1.864-1.146.255.174.509.371.753.556.347-.324.533-.753.984-.938l-.023.023ZM41.216,68.649c.301.648,1.436,4.678,1.505,4.736.162,0,.336-.058.463.035,0,.035.023.069.023.104v.104c0,.035,0,.069-.012.104,0,.035-.023.069-.035.104-.058.127-.151.22-.289.255-.718.185-2.547-1.158-3.138-1.598-.359-.278-.718-.567-1.065-.857-.579.544-.926.776-1.725.892-.197.44-.336.868-.834,1.054-.475.174-1.031.116-1.517.058-.695.452-1.401.741-2.246.533-.799-.185-1.366-.776-2.107-1.065-.556-.22-1.227-.22-1.818-.359.544.591,4.886,3.763,5.662,4.145.22.104.428.127.672.139.973.023,2.003-.185,2.976-.313,1.355-.162,2.71-.313,4.064-.452,3.81-.405,7.619-.834,11.429-1.297,2.316-.266,4.632-.486,6.936-.776-.892-.602-1.911-1.077-2.837-1.621-1.031-.602-2.026-1.308-3.069-1.876-.764.729-1.76,1.633-2.895,1.586-.475-.012-.811-.197-1.158-.509-.417.336-.868.533-1.413.486-.475-.046-.903-.255-1.332-.452-.521.116-1.088.255-1.575-.035-.382-.22-.567-.591-.718-.984-.579,0-1.123,0-1.575-.428-.498-.475-.533-1.123-.579-1.76-.266.035-.521.035-.787.012l-1.007.058v-.023ZM48.789,59.802c-.289.926-.394,2.015-.834,2.872.336-.185.672-.382,1.007-.579.371-.243.729-.463,1.065-.764l.012-.012c-.382-.533-.822-1.007-1.251-1.517h0ZM54.474,24.416c-.301-.058-.602-.127-.903-.162-.104,1.633-.139,3.254-.197,4.875.116-.232.266-.463.347-.706.567-1.251.787-2.652.753-4.006h0Z"/>
  <path class="st6" d="M22.284,40.731l.035.046c.035.834.208,1.667.394,2.478.579,2.397,2.026,4.921,3.312,7.006.313.521.764,1.413,1.308,1.714.313.174,3.729-1.864,4.331-2.165.544-.266,1.1-.475,1.679-.66.926.475,2.71,1.957,3.346,2.802-.614.973-.984,1.968-1.112,3.115-.069.602-.266,2.721.104,3.173.162.058.197.058.359.023.104-.093.151-.151.162-.301.023-.289,0-.591,0-.88.012-1.123.058-2.27.417-3.346.081-.266.197-.521.313-.764s.266-.475.428-.706c.405-.544,3.798-4.064,4.192-4.25.556-.255,1.251-.255,1.841-.382.66-.139,1.251-.417,1.841-.706-.093,1.285-.371,2.466-.753,3.682-.764-.602-1.934-1.61-2.941-1.644-.834-.035-.533,1.1-.938,1.563-.741.845-1.945,1.193-2.767,1.957-.22.208-.452.44-.463.753l.081.093c.185,0,.301-.035.463-.116.475-.255.88-.625,1.332-.915.556-.359,1.216-.625,1.679-1.1.208-.22.741-1.239.973-1.285.567-.093,1.737.938,2.177,1.239.208.151.452.324.718.289.938-.799,1.158-3.844,1.308-5.049.417-.359.868-.648,1.274-1.019.764-.706,1.413-1.528,2.084-2.316.741.567,1.482,1.112,2.177,1.748,2.189,2.003,3.949,4.539,5.57,7.006.834,1.274,1.691,2.547,2.339,3.925-1.436-.486-3.161-.151-4.551.371-1.934.729-4.006,1.853-4.886,3.798-.347-.475-.672-.95-.973-1.447.093-1.112.452-2.212.648-3.312.139-.764.544-4.296.208-4.852h-.116c0-.012.058-.046.058-.046-.046-.035-.116-.046-.174-.069l-.127.069c-.266.463-.208,1.702-.278,2.316-.382,3.52-1.366,7.063-2.374,10.456l.035-.023s0,.023-.012.023c-.162.139-.417.289-.625.336-.857.22-1.795.278-2.675.417-1.795.266-3.624.625-5.442.706-.648-.787-1.17-1.61-1.725-2.455-.718-1.077-1.424-2.154-2.119-3.242-.741-1.158-1.54-2.27-2.281-3.404-.498-.764-.868-1.644-1.459-2.351-.185-.22-.405-.347-.683-.428-.452-.139-.903-.046-1.308.185-.683.394-1.077.996-1.262,1.737.058.232.116.452.22.672.602,1.262,1.482,2.432,2.246,3.601.88,1.332,1.725,2.71,2.686,3.983-1.424.069-2.721.961-4.041,1.424-1.737-.614-3.404-1.401-5.095-2.131-.66-.289-1.378-.509-2.003-.868.394-2.478.845-5.025.718-7.538-.081-1.575-.347-3.092-.903-4.574-.093-.255-.232-.672-.463-.834-.139-.093-.185-.081-.336-.081-.324.289.012.95.139,1.297.359,1.042.648,2.061.776,3.15.243,2.154-.185,5.57-.706,7.689-.151-.162-.301-.313-.475-.452-1.725-1.413-4.192-1.667-6.334-1.436-1.505.162-3.427.753-4.412,1.98.301-3.138.764-6.137,1.621-9.171,1.54-5.489,3.173-6.878,8.279-9.159.984-.44,2.026-.787,2.964-1.32l-.023-.023Z"/>
  <path class="st1" d="M37.406,53.63c.382,0,.672.093,1.007.232.127.139.266.301.336.463.162.347.185.799.046,1.158-.162.382-.394.544-.764.695-.313.023-.579.012-.868-.116-.255-.104-.463-.313-.567-.567-.127-.347-.093-.764.069-1.1.151-.324.394-.637.741-.764Z"/>
  <path class="st6" d="M37.626,54.325h.174c.174.012.324.093.428.243.104.162.104.336.058.509-.093.313-.255.417-.533.556h-.058c-.174,0-.347-.081-.452-.208-.116-.139-.116-.347-.069-.509.069-.278.22-.463.463-.602l-.012.012Z"/>
  <path class="st0" d="M24.715,32.579c-.035-.347,0-.718-.035-1.065-.069-.556-1.135-.382-1.54-.475-.336-.069-.625-.197-.903-.405-1.135-.868-1.737-2.594-1.922-3.96-.197-1.471-.174-3.173.776-4.4.382-.486.868-.88,1.505-.95.533-.058,1.227.139,1.633.498.591.521.926,1.343,1.355,1.992.116.174.336.371.405.567.023.069,0,.208,0,.278,0,.301,0,.614.023.915.127.208.255.428.509.498.151.046.301,0,.417-.093.197-.139.313-.382.428-.602.197-.706.208-1.424.324-2.142,1.042.116,2.142.417,3.161.683-.208,1.401-.197,3.624.672,4.805.764,1.054,2.594,1.447,3.798,1.61,1.505.197,4.562.463,5.767-.486,1.077-.857,1.528-2.455,1.667-3.775.035-.382.046-.764.046-1.158.625.023,1.251.023,1.876.093.035.903.058,1.806.278,2.698.359,1.447,2.003,4.389.799,5.755-.336.382-.868.533-1.366.544-.533.023-1.158-.058-1.679-.185-.359-.093-.799-.313-1.181-.289-.162,0-.22.058-.336.162-.023.104-.046.197-.058.301,1.366.66,2.964,1.077,4.446.544.243-.093.463-.22.683-.347.602-.579.834-1.17.857-2.003,0-.278,0-.544-.046-.822-.035-.278-.081-.544-.151-.811,1.911.301,3.671.185,5.57-.069-.139,2.362-.405,4.655-1.158,6.913-.811,2.304-2.107,4.655-3.798,6.427-1.471,1.54-3.219,2.976-5.442,3.034-1.181.035-2.397.104-3.566-.035-3.173-.371-5.952-2.246-8.21-4.389-1.505-1.436-4.041-3.983-4.852-5.882-.521-1.216-.706-2.71-.741-4.018l-.012.046Z"/>
  <path class="st8" d="M27.691,23.258c1.042.116,2.142.417,3.161.683-.208,1.401-.197,3.624.672,4.805.764,1.054,2.594,1.447,3.798,1.61,1.505.197,4.562.463,5.767-.486,1.077-.857,1.528-2.455,1.667-3.775.035-.382.046-.764.046-1.158.625.023,1.251.023,1.876.093.035.903.058,1.806.278,2.698.359,1.447,2.003,4.389.799,5.755-.336.382-.868.533-1.366.544-.533.023-1.158-.058-1.679-.185-.359-.093-.799-.313-1.181-.289-.162,0-.22.058-.336.162-.023.104-.046.197-.058.301-.463.116-1.158-.035-1.621-.116-1.575-.278-4.088-.892-5.558-.081-1.181.66-1.424,2.073-1.737,3.265-.093-.012-.197-.035-.289-.046-.232-.035-.324-.058-.463-.243-.012-.116-.012-.266-.081-.371-.127-.208-.486-.278-.706-.336-.116-.324-.185-.66-.255-.984-.174-.139-.544-.313-.66-.463-.151-.197-.093-.509-.289-.729h-.104c-.069.093-.116.162-.22.22-.301.174-.151.185-.324.382-.266-.382.093-1.17-.208-1.586-.185-.243-.428-.174-.695-.243-.046-.301.023-.614-.035-.926-.151-.961-.509-1.911-.556-2.895-.058-1.112.255-2.339.046-3.427v-.046c.197-.706.208-1.424.324-2.142l-.012.012Z"/>
  <path class="st8" d="M24.715,32.579c-.035-.347,0-.718-.035-1.065-.069-.556-1.135-.382-1.54-.475-.336-.069-.625-.197-.903-.405-1.135-.868-1.737-2.594-1.922-3.96-.197-1.471-.174-3.173.776-4.4.382-.486.868-.88,1.505-.95.533-.058,1.227.139,1.633.498.591.521.926,1.343,1.355,1.992.116.174.336.371.405.567.023.069,0,.208,0,.278-.104,1.054-.452,2.026-.614,3.057-.151,1.031-.174,2.096-.232,3.138-.023.394,0,.903-.104,1.274-.046.151-.139.197-.232.301-.035.035-.058.081-.081.116l-.012.035Z"/>
  <path class="st1" d="M22.064,23.107c.648.046,1.216.359,1.644.845.243.278.428.614.498.984.232,1.17-.695,1.088-.857,1.83-.093.428.289.95.232,1.413-.023.22-.127.278-.289.405-.035-.023-.058-.046-.093-.058-.382-.278-.706-.88-.753-1.343-.093-.857.509-1.308.996-1.899-.382-1.401-1.181-1.135-1.505-1.783,0-.208,0-.22.127-.382v-.012Z"/>
  <path class="st8" d="M46.925,30.576c1.911.301,3.671.185,5.57-.069-.139,2.362-.405,4.655-1.158,6.913-.081-.151-.116-.22-.278-.301-.405.023-.637.475-.973.695-.012,0-.035.023-.046.023v-.104c.069-.915.058-2.131-.602-2.849-.892-.984-2.003-.602-3.138-.683h-.046c.602-.579.834-1.17.857-2.003,0-.278,0-.544-.046-.822-.035-.278-.081-.544-.151-.811l.012.012Z"/>
  <path class="st8" d="M34.743,36.064c0-.023,0-.046.012-.058l.023-.093c.046-.208.116-.382.278-.544.139-.127.301-.185.486-.151.289.058.44.266.602.486,2.131-.116,5.037,1.378,7.376,1.39,1.563,0,2.906-.811,4.446-1.007.22-.023.567-.058.753.081.324.232.417.834.417,1.193.023,1.459-.903,3.242-1.934,4.25-1.806,1.772-4.064,2.003-6.484,1.957-1.216-.023-2.351-.313-3.532-.556-.139-.22-.278-.428-.382-.672-.371.255-.718.486-1.135.66-.012-.289-.046-.567-.162-.834-.058.232-.116.452-.185.683h-.046c0,.012-.069-.243-.069-.243-.069.081-.069.139-.081.243-.035.139-.058.185-.162.289-.069,0-.127.035-.174-.023-.151-.174-.162-.567-.127-.787.046-.301.116-.475.347-.66.127-.023.058,0,.197-.069l-.035-.069c-.127-.046-.232-.093-.347-.162l-.093-.058-.093-.035c-.139-.162-.903-2.663-.984-2.976-.104-.44-.174-.88-.197-1.32-.023-.382-.046-.88.22-1.181.347-.127.729.127,1.042.266h.023Z"/>
  <path class="st1" d="M34.743,36.064c0-.023,0-.046.012-.058l.023-.093c.046-.208.116-.382.278-.544.139-.127.301-.185.486-.151.289.058.44.266.602.486l.046.046c1.644,1.494,5.153,2.246,7.33,2.142.475-.023.903-.069,1.355-.208.533-.162,1.992-1.007,2.42-.787.046.127.046.197-.012.324-.301.614-1.679,1.042-2.304,1.193-2.281.567-5.848.069-7.839-1.17-.637-.394-1.181-.868-1.922-1.054l-.475-.127h0Z"/>
  <path class="st11" d="M35.137,42.85c-.035.139-.058.185-.162.289-.069,0-.127.035-.174-.023-.151-.174-.162-.567-.127-.787.046-.301.116-.475.347-.66,0,.394.058.787.116,1.181Z"/>
  <path class="st3" d="M34.755,41.31c.243,0,.428.012.591.232.127.162.174.428.162.625-.058.232-.116.452-.185.683h-.046c0,.012-.069-.243-.069-.243-.069.081-.069.139-.081.243-.058-.394-.104-.787-.116-1.181.127-.023.058,0,.197-.069l-.035-.069c-.127-.046-.232-.093-.347-.162l-.093-.058h.023Z"/>
  <path class="st0" d="M39.201,40.685c-.151-.058-.324-.116-.394-.289-.069-.151-.058-.208-.012-.359.185-.127.266-.139.486-.093,1.378.266,2.652.521,4.076.301.347-.058.776-.22,1.007.093.023.197,0,.359-.139.509-.012.012-.035.035-.046.046-.197.521-.521,1.042-.926,1.413-.035.023-.058.058-.093.081s-.069.058-.104.081c-.035.023-.069.046-.104.069-.035.023-.069.046-.104.069-.035.023-.069.046-.116.058-.035.023-.081.035-.116.058s-.081.035-.116.046-.081.035-.116.046-.081.023-.116.035c-.046.012-.081.023-.127.035-.046,0-.081.023-.127.023s-.081.012-.127.023c-.046,0-.081,0-.127.012h-.382c-.776-.058-1.366-.44-1.841-1.031-.22-.266-.567-.729-.509-1.088.012-.093.116-.116.197-.162l-.023.023Z"/>
  <path class="st2" d="M39.201,40.685c-.151-.058-.324-.116-.394-.289-.069-.151-.058-.208-.012-.359.185-.127.266-.139.486-.093,1.378.266,2.652.521,4.076.301.347-.058.776-.22,1.007.093.023.197,0,.359-.139.509-.012.012-.035.035-.046.046-1.482.486-3.497.208-4.968-.208h-.012Z"/>
  <path class="st11" d="M26.985,35.717c.058.093.104.162.174.243h.023c.035,0,.069,0,.104-.012v-.104l.093.058c.301.811-.151,1.957-.22,2.791v.069l-.081.046c-.185-.151-.301-.382-.428-.579,0-.88.035-1.644.324-2.49l.012-.023Z"/>
  <path class="st11" d="M28.78,40.719c-.093-.139-.174-.232-.139-.405.023-.139.093-.278.127-.428.081-.371.035-.729.289-1.054.081-.023.116-.069.197-.023.185.116.255.405.278.614.035.301-.046,1.586-.185,1.783l-.069.023c-.174-.162-.324-.347-.486-.521l-.012.012Z"/>
  <path class="st4" d="M28.78,40.719c.012-.405.012-.811.208-1.181l.104-.081c.139.081.174.197.22.359.116.463.012.961-.046,1.424-.174-.162-.324-.347-.486-.521h0Z"/>
  <path class="st11" d="M27.402,31.085c.035.069.035.081.046.174.046.278-.058,2.825-.104,3.219-.012.139-.081.255-.162.359l-.069-.058c-.162,0-.174.012-.278-.093-.185-.753.301-2.837.567-3.59v-.012Z"/>
  <path class="st11" d="M29.301,34.941c-.069.926-.162,1.899-.324,2.802-.174.035-.255-.035-.417-.093-.046-.081-.081-.174-.104-.266-.093-.289-.116-1.204.162-1.413.185-.139.243-.023.371-.266-.023-.151-.035-.22.023-.371.151-.104.197-.185.266-.347,0-.023.012-.035.023-.058v.012Z"/>
  <path class="st11" d="M32.126,39.411c.452.417.486,1.436.521,2.015.012.266.046.625-.127.822-.081-.139-.116-.208-.104-.371v-.139c-.046-.232-.197-.093-.359-.197-.243-.579-.139-1.552.069-2.131h0Z"/>
  <path class="st11" d="M25.92,34.258c.139.104.243.197.289.371.139.591.023,1.853-.313,2.362-.127-.058-.197-.151-.255-.289-.22-.556.069-1.899.278-2.443h0Z"/>
  <path class="st11" d="M30.679,37.419c.174.255.139,1.876.104,2.188l-.347.104c-.093-.104-.116-.208-.127-.347-.046-.614-.058-1.459.382-1.945h-.012Z"/>
  <path class="st11" d="M41.413,45.085c.023,0,.058.023.081.035.139.081.197.127.22.289.069.336-.035,1.158-.22,1.424-.162-.023-.243,0-.371-.104-.069-.208-.116-.428-.116-.648.023-.382.104-.741.405-.996h0Z"/>
  <path class="st11" d="M39.201,44.633c.116.023.139.046.22.116.093.22.127.463.104.706-.035.382-.058.591-.371.845-.081-.023-.116-.035-.185-.081-.104-.22-.116-.533-.104-.776.023-.359.046-.556.336-.811h0Z"/>
  <path class="st11" d="M26.128,30.344c.104,0,.22-.023.324.012.069.023.104.139.127.208.116.428,0,1.077-.22,1.459-.127.058-.104.046-.232.035-.22-.382-.116-1.297,0-1.725v.012Z"/>
  <path class="st11" d="M30.447,41.032c.058.012.127.046.185.069.243.371.347.915.405,1.355.023.185.023.289-.093.428-.278-.359-.591-.764-.66-1.227-.035-.266,0-.405.162-.614v-.012Z"/>
  <path class="st11" d="M43.428,44.818c.139.069.232.081.289.243.081.243-.035.533-.162.741-.127.197-.232.255-.452.313l-.035.035c-.058-.197-.162-.371-.197-.579.093-.336.289-.544.567-.741l-.012-.012Z"/>
  <path class="st11" d="M46.867,42.421c.151.081.197.093.289.243.012.486-.289.984-.602,1.332-.116.023-.174.069-.278,0-.069-.417.417-1.193.591-1.586v.012Z"/>
  <path class="st11" d="M33.493,43.475c.127,0,.243,0,.359.081.069.452.22,1.135.069,1.563-.174-.093-.313-.185-.394-.371-.151-.336-.151-.926-.023-1.262l-.012-.012Z"/>
  <path class="st11" d="M37.383,43.857c.093,0,.208.012.289.046.116.035.174.139.208.255.093.301-.069.706-.185.984-.081.046-.127.046-.22.058l-.116-.104c-.151-.405-.058-.822,0-1.239h.023Z"/>
  <path class="st11" d="M45.257,43.522c.035,0,.069.023.093.035.069.035.127.081.139.162.058.382-.301.95-.521,1.251l-.151-.035c-.069-.069-.081-.069-.104-.174-.058-.417.301-.926.556-1.239h-.012Z"/>
  <path class="st11" d="M33.527,40.997c.081.035.162.069.243.116.046.127.093.255.104.394.035.289-.012.544-.197.764-.162-.046-.197-.046-.301-.174-.046-.359.069-.741.139-1.1h.012Z"/>
  <path class="st11" d="M28.073,33.841c.046.046.093.069.139.127.266.313.093.903.046,1.285-.069.023-.116.012-.185.012l-.081-.116c-.069-.452-.023-.88.093-1.32l-.012.012Z"/>
  <path class="st11" d="M48.314,41.391l.22.046c.069.081.093.093.116.208.058.243,0,.556-.139.776-.208-.093-.313-.139-.428-.347,0-.243.127-.475.232-.695v.012Z"/>
  <path class="st11" d="M35.947,44.286c.093,0,.035,0,.151.058.012.127.023.255.023.371,0,.313-.046.452-.278.672l-.012-.012c-.139-.127-.289-.289-.278-.498.023-.255.232-.417.394-.591Z"/>
  <path class="st4" d="M27.529,38.762c.208.046.347.081.475.266.139.197.104.463.046.672-.185-.046-.382-.081-.509-.243-.151-.208-.058-.463-.012-.695h0Z"/>
  <path class="st3" d="M49.576,38.89c0,.012.023.035.023.046.116.255.046.811-.035,1.077-.081.278-.162.371-.417.498-.116-.428.266-1.204.417-1.621h.012Z"/>
  <path class="st11" d="M26.522,29.279l-.058.058c-.058-.081-.058-.046-.058-.116,0-.232.023-.579.185-.741l.081.046c.139.162.232.266.301.475-.023.151-.046.151-.151.266-.104,0-.208,0-.301.023v-.012Z"/>
  <path class="st3" d="M26.672,28.515c.139.162.232.266.301.475-.023.151-.046.151-.151.266-.104,0-.208,0-.301.023.185-.278.185-.44.162-.764h-.012Z"/>
  <path class="st0" d="M8.794,74.242l10.167,7.133c1.366.95,2.999,2.374,4.539,2.918.961.336,2.084.463,3.092.475,1.505,0,3.011-.162,4.504-.301l6.901-.672c7.179-.695,14.347-1.424,21.526-2.189l8.048-.88c1.308-.139,2.617-.347,3.925-.428,0,.996-.023,3.451-.452,4.261-.104.116-.208.22-.336.313-.359.278-.764.394-1.204.475-2.64.463-5.373.637-8.036.926-6.427.672-12.865,1.308-19.303,1.887-3.335.324-6.67.637-10.016.915-2.131.185-4.435.567-6.554.289-.892-.116-1.76-.359-2.536-.811-.868-.486-1.667-1.123-2.466-1.702l-3.566-2.629c-1.193-.88-2.385-1.783-3.59-2.652-1.077-.764-2.188-1.505-3.231-2.316-.394-.301-.915-.683-1.204-1.088-.394-.556-.347-3.231-.22-3.949l.012.023Z"/>
  <path class="st1" d="M24.739,84.976c.069,0,.139,0,.197.023.093.012.22.046.266.139.151.266,0,2.941-.093,3.3h-.116c-.127-.023-.22-.069-.289-.185-.243-.405-.139-2.779.023-3.265l.012-.012Z"/>
  <path class="st10" d="M60.264,65.013c.718.232,2.71,1.528,3.497,2.015,2.918,1.76,5.894,3.485,8.696,5.419.486.336,1.714,1.088,1.945,1.61.058.139.046.255-.012.382-.208.382-.729.509-1.123.567-.764.127-1.54.185-2.304.266l-4.771.498-12.135,1.285-17.508,1.806c-3.069.301-6.172.695-9.252.822-.868.035-1.806.023-2.64-.22-1.586-.475-4.157-2.571-5.593-3.578-2.362-1.667-4.713-3.346-7.052-5.037-1.76-1.355-3.648-2.571-5.454-3.856,1.112-.428,2.49-.405,3.682-.498,2.443,3.335,7.978,4.169,11.823,4.62.88.104,2.652.162,3.404.475.394.162.729.602,1.042.88.498.452,1.077.845,1.621,1.251,1.494,1.123,3.034,2.177,4.528,3.277.475.347,1.146.88,1.748.926.961.069,2.825-.278,3.844-.394l7.237-.834,9.958-1.123c1.563-.174,3.173-.255,4.724-.498.313-.046.787-.162.961-.475.069-.127.081-.347.035-.486-.058-.185-.255-.336-.417-.44-.533-.371-1.123-.683-1.691-1.019-1.355-.799-2.744-1.586-4.076-2.432.648-.533,1.251-1.112,1.691-1.83.278-.452.521-1.007.903-1.378.324-.324.834-.521,1.227-.764.556-.347.996-.764,1.447-1.227l.012-.012Z"/>
  <path class="st8" d="M35.009,10.578c3.207-.162,5.859.73,8.951,1.065,1.158.127,2.258.023,3.416-.012,1.17-.035,2.223.417,3.069,1.216,1.957,1.864,2.258,6.288,2.339,8.916-.289-.278-.614-.486-.973-.66-1.216-.579-3.52-.799-4.771-.301-.289.116-.544.313-.672.602-.093.232-.116.567,0,.799.127.232.359.324.602.359.509.093,1.1,0,1.621.012.845.012,2.964.174,3.763.359.116.023.174.023.232.127-.232.069-.475.012-.718-.012-1.459-.081-4.365-.162-5.709.255-.301.093-.579.266-.845.428-.834,0-1.667-.012-2.501-.069.012.139.035.081-.023.174-.023-.023-.058-.035-.081-.058-.035-.046-.058-.093-.093-.139-.127-.174-.336-.347-.533-.44-1.621-.753-6.82-.973-8.719-.845-.672.046-1.32.382-1.992.371-1.123-.023-2.304-.394-3.416-.579.278-.753.729-1.32,1.216-1.957,1.737-2.246,1.285-4.713.938-7.353,1.343-1.39,2.987-2.107,4.898-2.293v.035Z"/>
  <path class="st1" d="M36.781,20.015c1.077.023,3.37.081,4.226.811.208.174.313.417.336.683.012.243-.046.509-.232.683-.417.394-3.115-.093-3.821-.116-.868-.058-1.737-.069-2.605-.012-.452.035-.926.139-1.378.104-.174,0-.394-.046-.533-.174-.104-.093-.139-.185-.151-.313-.023-.232.174-.486.324-.648.915-.996,2.594-.973,3.844-1.007l-.012-.012Z"/>
  <path class="st10" d="M6.316,67.746c.405.208.764.533,1.135.811.591.44,1.193.88,1.795,1.32l9.298,6.658c1.355.961,3.891,2.987,5.327,3.543,1.088.417,2.339.475,3.497.428,2.003-.069,4.018-.289,6.021-.498l5.547-.533,19.384-2.026,9.078-.961c1.552-.162,5.674-.44,6.924-1.007-.058.95-.023,2.131-.556,2.941-.313.301-.637.544-1.042.718-.973.394-3.844.591-5.049.729-4.84.544-9.692,1.065-14.532,1.552-6.137.66-12.274,1.274-18.423,1.841-2.42.22-5.002.625-7.399.706-1.251.046-2.501-.046-3.671-.521-1.019-.428-1.853-1.1-2.756-1.737l-2.779-1.957c-2.27-1.575-4.539-3.173-6.786-4.782-1.32-.926-2.686-1.818-3.972-2.802-.266-.208-.776-.533-.892-.868,0-.023-.012-.046-.023-.069-.347-1.007-.243-2.409-.127-3.462v-.023Z"/>
  <path class="st8" d="M14.109,59.327h.046c2.073-.139,4.134.081,5.755,1.482-.938-.22-2.142-.764-3.115-.591-.174.035-.336.069-.44.232,0,.452.729.475,1.065.544,1.783.382,9.507,3.126,10.537,4.192,2.258-.208,3.393-1.876,5.917-1.424,2.061.371,4.099,1.401,5.315,3.161.394.579.961,1.586.799,2.304-.046.232-.185.405-.382.521-.22.127-.544.197-.787.081-.185-.081-.729-1.158-.892-1.401-.394-.579-2.142-2.27-2.814-2.385-.151-.023-.174-.023-.289.069-.023.127-.058.174,0,.289.174.336.591.614.868.868,1.1.984,2.246,2.119,2.409,3.671-.347.463-.637.602-1.193.729-.289-.371-.521-.787-.764-1.181-.579-.822-1.482-1.841-2.374-2.327-.185-.104-.486-.232-.706-.185-.255.567,2.629,2.513,2.941,4.006.046.197.046.428-.104.591-.116.127-.289.185-.452.208-.22.035-.498.035-.706-.069-.486-.243-.996-.973-1.401-1.355s-.834-.764-1.285-1.077c-.243-.174-.591-.428-.892-.371l-.058.104c0,.22.081.405.208.591.185.255.509.44.741.648.452.371.892.787,1.262,1.239.162.197.347.417.313.683-.104.127-.162.162-.324.185-1.691.208-1.818-.857-2.987-1.17-.741-.197-1.517-.012-2.246-.347-.637-.278-1.088-.88-1.772-1.088-.614-.185-2.27-.301-3.022-.394-3.566-.417-8.198-.915-11.105-3.184-1.216-.95-1.806-2.327-1.98-3.844-.093-.834-.162-2.084.405-2.756.753-.892,2.409-1.123,3.485-1.239l.023-.012Z"/>
  <path class="st4" d="M40.463,2.623c.672.116,1.401.405,1.853.938.463.556.278,1.285.232,1.945-.023.301-.104.729.116.973h.069c.127-.012.22-.069.301-.162.66-.741.591-2.571.567-3.509,1.251.915,2.281,2.327,2.455,3.902.046.452-.035.973.058,1.401.035.139.058.139.174.208.151-.023.22-.023.324-.139.428-.452.208-2.119.127-2.686.822.845,1.563,1.725,2.351,2.582.486.533,1.031,1.019,1.54,1.528,1.447,1.447,1.992,3.335,1.98,5.35-.116-.405-.232-.822-.417-1.204-.637-1.355-1.795-2.351-3.207-2.837-1.447-.498-3.092-.058-4.597-.185-3.752-.336-8.823-2.061-12.413-.324-.602.289-1.193.683-1.691,1.123-1.181,1.031-1.065,1.621-.903,3.045.069.625.104,1.262.093,1.887,0,.533-.012,1.077-.174,1.586-.289.95-1.042,1.61-1.552,2.432-.278.44-.44.961-.614,1.447-1.216-.208-1.471-.533-2.524-1.065-.475-.243-.961-.394-1.471-.544-.104-1.227.093-5.35.359-6.473.116-.521.347-1.007.614-1.471.753-1.332,1.424-1.378,2.397-2.316.301-.289.533-.695.799-1.031.266-.324.591-.614.903-.903,1.413-1.297,3.752-2.536,5.581-3.126,1.065-.336,2.154-.567,3.207-.961.289-.104.567-.22.822-.394s.428-.475.718-.556c.162.046.243.093.336.232.382.556-.058,1.471-.127,2.073-.023.151-.012.255.081.371.116,0,.174-.035.266-.093.88-.533,1.123-2.131,1.343-3.045h.023Z"/>
  <path class="st8" d="M57.705,56.49c.428-.035.961-.081,1.343.139.706.394,1.158,1.992,1.355,2.733.405,1.459.417,2.918-.359,4.261-.058.104-.127.208-.197.313-.069.104-.139.197-.22.301-.069.093-.151.185-.232.278-.081.093-.162.185-.255.266s-.174.174-.266.255-.185.162-.289.232c-.093.069-.197.151-.301.208-.104.069-.208.127-.313.197-.359.208-.787.394-1.077.695-.44.44-.729,1.146-1.112,1.644-.706.95-2.918,3.103-4.064,3.381-.255.058-.486.104-.718-.046-.058-.093-.093-.151-.104-.278-.093-.845,1.528-2.629,2.073-3.323.116-.151.151-.255.139-.44q-.116-.104-.278-.127c-.637.255-1.783,1.795-2.165,2.362-.336.509-.614,1.158-1.077,1.563-.208.185-.521.382-.811.336-.185-.035-.324-.162-.417-.313-.463-.753.695-2.362,1.193-2.953.324-.382,1.135-.996,1.227-1.459.023-.116.023-.069-.046-.174-.127-.046-.232-.023-.359.012-1.007.301-2.038,2.061-2.547,2.953-.197.405-.289.903-.521,1.274-.093.151-.232.22-.405.255-.232.046-.521.012-.706-.151-.672-.591.289-2.513.66-3.103.347-.556,1.343-1.459,1.343-2.119l-.093-.046c-.996.301-1.957,1.841-2.374,2.721-.232.498-.371,1.227-.822,1.575-.127.104-.301.185-.475.139-.139-.035-.243-.151-.324-.266-.313-.463-.232-1.158-.116-1.667.44-1.876,1.911-3.485,3.59-4.354.787-.405,1.621-.695,2.339-1.216.787-.556,1.355-1.332,2.096-1.934.637-.521,1.355-.799,2.038-1.227.081-.127.081-.185.081-.336-.093-.116-.139-.151-.289-.162-1.112-.081-2.316,1.088-3.069,1.783.104-.521.289-.915.625-1.332,1.366-1.679,4.145-2.652,6.23-2.849h.069Z"/>
  <path class="st8" d="M39.305,89.318c.127-.023.208-.023.336.023.058.637-.116,1.424-.185,2.061l-.475,4.632c-.081.811-.162,1.621-.232,2.432-.046.463-.046.973-.151,1.424-.058.208-.208.347-.394.452-.313.174-.718.278-1.054.382-2.432.718-5.176.486-7.561-.278-.44-.174-.822-.382-1.193-.672,0-1.065.093-2.142.127-3.219.058-2.096.069-4.215.208-6.311,1.297-.035,2.605-.185,3.902-.301,2.235-.185,4.458-.382,6.693-.614l-.023-.012Z"/>
  <path class="st8" d="M57.323,87.581c.104-.012.197,0,.289,0,.081.208-.382,1.968-.463,2.362l-1.39,6.38c-.127.591-.127,1.366-.347,1.911-.069.185-.278.313-.44.394-.359.174-.811.255-1.204.347-.151.035-.289.069-.44.104-.151.035-.289.058-.44.081s-.289.046-.44.069c-.151.023-.301.035-.44.046-.151.012-.301.023-.452.035-.151,0-.301.012-.452.012h-.452c-.151,0-.301,0-.452-.023-.151,0-.301-.023-.452-.035-.151-.012-.301-.035-.44-.046-.151-.023-.301-.046-.44-.069-.151-.023-.289-.058-.44-.081-.151-.035-.289-.069-.44-.104-.151-.035-.289-.081-.428-.116-.139-.046-.289-.081-.428-.139-.139-.046-.278-.093-.417-.151-.475-.208-.903-.382-1.274-.753.498-3.069.903-6.137,1.459-9.182,1.088-.197,2.27-.22,3.37-.324l7.052-.706v-.012Z"/>
  <path class="st4" d="M45.199,72.875c.22.058.394.151.509.336-.023.232-.104.289-.255.463-.069,0-.185,0-.255-.035-.162-.058-.174-.104-.243-.255.012-.232.104-.336.243-.521v.012Z"/>
  <path class="st4" d="M38.032,73.871c.081.023.185.058.255.104.139.081.151.116.185.266-.058.197-.174.266-.324.371-.104,0-.243-.023-.336-.069-.139-.081-.139-.151-.151-.289.104-.208.174-.243.371-.371v-.012Z"/>
  <path class="st4" d="M41.691,74.902h.243s.023,0,.035.012c0,0,.023,0,.035.012,0,0,.023.012.023.023,0,0,.023.012.023.023l.023.023s.012.023.023.023c0,0,.012.023.023.035,0,0,0,.023.012.035,0,0,0,.023.012.035v.243s0,.023-.012.035c0,0,0,.023-.012.035,0,0-.012.023-.023.035,0,0-.012.023-.023.023s-.012.023-.023.023l-.023.023s-.023.012-.023.023c0,0-.023.012-.035.023,0,0-.023,0-.035.012-.012,0-.035.012-.046.012h-.185c-.012,0-.035,0-.046-.012-.012,0-.035-.012-.046-.023-.012,0-.023-.023-.046-.035-.012,0-.023-.023-.035-.035l-.035-.035c0-.012-.023-.023-.023-.046s-.012-.035-.023-.046c0-.012,0-.035-.012-.046v-.139c0-.012,0-.035.012-.046,0-.012.012-.035.023-.046,0-.012.012-.035.023-.046l.035-.035c0-.012.023-.023.035-.035.012,0,.023-.023.046-.035.012,0,.035-.012.046-.023.012,0,.035-.012.046-.012l-.012-.012Z"/>
  <path class="st4" d="M35.449,74.381s.023,0,.035-.012c0,0,.023,0,.035-.012h.243s.023,0,.035.012c0,0,.023,0,.035.023,0,0,.023.012.035.023,0,0,.023.012.023.023,0,0,.012.012.023.023,0,0,.012.023.023.023s.012.023.023.035c0,0,0,.023.012.035,0,0,0,.023.012.035v.243s0,.023-.012.035c0,0,0,.023-.012.035,0,0-.012.023-.023.035,0,0-.012.023-.023.023,0,0-.012.012-.023.023,0,0-.023.012-.023.023,0,0-.023.012-.035.023,0,0-.023.012-.035.012,0,0-.023,0-.035.012h-.243s-.023,0-.035-.012c0,0-.023,0-.035-.023,0,0-.023-.012-.035-.023,0,0-.023-.012-.023-.023,0,0-.023-.012-.023-.023,0,0-.012-.023-.023-.023,0,0-.012-.023-.023-.035,0,0-.012-.023-.012-.035,0,0,0-.023-.012-.035v-.243s0-.023.012-.035c0,0,0-.023.023-.035,0,0,.012-.023.023-.035,0,0,.012-.023.023-.023,0,0,.012-.012.023-.023,0,0,.023-.012.023-.023s.023-.012.035-.023h-.012Z"/>
  <path class="st9" d="M49.634,74.022c.012,0,.023-.012.046-.023.012,0,.035-.012.046-.012h.185c.012,0,.035,0,.046.012.012,0,.035.012.046.023.012,0,.023.012.046.023.012,0,.023.023.035.035.012,0,.023.023.035.035,0,.012.023.023.023.035s.012.023.023.046c0,.012.012.035.012.046v.185c0,.012,0,.035-.012.046s-.012.035-.023.046c0,.012-.012.023-.023.035s-.023.023-.035.035l-.035.035c-.012,0-.023.023-.035.023,0,0-.023,0-.035.012,0,0-.023,0-.035.012h-.243c-.012,0-.023,0-.035-.012,0,0-.023,0-.035-.012,0,0-.023-.012-.035-.023,0,0-.023-.012-.023-.023l-.023-.023s-.012-.023-.023-.023c0,0-.012-.023-.023-.035,0,0-.012-.023-.012-.035,0,0,0-.023-.012-.035v-.243s0-.023.012-.035c0,0,0-.023.012-.035,0,0,.012-.023.023-.035s.012-.023.023-.023l.023-.023s.023-.012.023-.023c0,0,.023-.012.035-.023v.012Z"/>
  <path class="st4" d="M52.541,73.466h.243c.012,0,.023,0,.035.012,0,0,.023,0,.035.012,0,0,.023.012.023.023,0,0,.023.012.023.023l.023.023s.012.023.023.023c0,0,.012.023.023.035,0,0,0,.023.012.035s0,.023.012.035v.243s0,.023-.012.035c0,0,0,.023-.012.035,0,0-.012.023-.023.035,0,0-.012.023-.023.023s-.012.012-.023.023l-.023.023s-.023.012-.023.023c0,0-.023.012-.035.023,0,0-.023,0-.035.012-.012,0-.035,0-.046.012h-.185c-.012,0-.035,0-.046-.012-.012,0-.035-.012-.046-.023-.012,0-.023-.023-.035-.023s-.023-.023-.035-.035c0-.012-.023-.023-.035-.035,0-.012-.023-.023-.023-.046,0-.012-.012-.035-.023-.046,0-.012,0-.035-.012-.046v-.139c0-.012,0-.035.012-.046,0-.012,0-.035.023-.046,0-.012.012-.023.023-.046,0-.012.023-.023.035-.035,0-.012.023-.023.035-.035.012,0,.023-.023.035-.035.012,0,.023-.012.046-.023.012,0,.035-.012.046-.023l-.012-.012Z"/>
  <path class="st4" d="M36.793,75.608c.069,0,.185.012.255.046.151.069.174.093.22.232-.035.208-.139.313-.278.463-.104-.023-.208-.058-.289-.116-.139-.104-.151-.127-.185-.289.069-.197.139-.22.301-.347l-.023.012Z"/>
  <path class="st4" d="M47.006,74.114c.232.046.417.081.567.278-.023.208-.093.255-.22.417-.104,0-.243,0-.347-.035-.151-.058-.174-.127-.22-.266.023-.185.093-.266.208-.405l.012.012Z"/>
  <path class="st9" d="M39.838,73.663c.139,0,.336-.023.463.035s.127.081.174.208c-.035.185-.151.278-.278.417-.081,0-.162-.012-.243-.035-.139-.046-.197-.116-.266-.232,0-.185.046-.243.139-.382l.012-.012Z"/>
  <path class="st4" d="M44.342,74.601c.012,0,.035-.012.046-.023.012,0,.035,0,.046-.012h.139c.012,0,.035,0,.046.012.012,0,.035.012.046.023.012,0,.023.012.046.023.012,0,.023.023.035.035.012,0,.023.023.035.035,0,.012.023.023.023.035s.012.023.023.046c0,.012.012.035.012.046v.185c0,.012,0,.035-.012.046,0,.012-.012.035-.023.046,0,.012-.023.023-.023.035s-.023.023-.035.035c-.012,0-.023.023-.035.035-.012,0-.023.023-.046.023-.012,0-.035.012-.046.023h-.243s-.023,0-.035-.012c0,0-.023,0-.035-.012,0,0-.023,0-.023-.023,0,0-.023-.012-.023-.023l-.023-.023-.023-.023s-.012-.023-.023-.023l-.012-.023s0-.023-.012-.035v-.278s0-.023.012-.035c0,0,0-.023.012-.035,0,0,.012-.023.023-.023,0,0,.012-.023.023-.023l.023-.023.023-.023c.012-.012.023-.012.023-.023s.023,0,.035-.012v.023Z"/>
  <path class="st4" d="M43.242,71.451c.093,0,.185.012.278.035.151.035.22.081.301.208-.035.208-.093.266-.232.428-.058,0-.151.023-.208.012-.162-.023-.197-.093-.278-.208-.012-.208.035-.301.139-.475Z"/>
  <path class="st4" d="M39.178,75.318c.197.046.359.069.498.208.023.185-.058.313-.139.475-.104,0-.22,0-.313-.035-.139-.035-.185-.127-.255-.243,0-.197.081-.266.208-.405h0Z"/>
  <path class="st4" d="M47.77,72.713c.046.012.069.023.127.046.127.081.174.151.208.289-.081.185-.139.197-.313.301-.046-.012-.069-.023-.116-.058-.139-.093-.197-.185-.232-.336.081-.174.151-.174.324-.255v.012Z"/>
  <path class="st4" d="M29.011,101.152c1.864.741,4.145.88,6.114.66.903-.104,1.806-.289,2.698-.452.289.371.533.776.799,1.158-.706-.116-1.308-.255-2.015-.035-.683.22-2.872,1.262-3.115,1.853-.035.081,0,.127.035.208.151.093.232.116.394.058.301-.104.567-.336.834-.498,1.112-.637,2.154-1.204,3.474-1.031.822.104,1.17.486,1.656,1.112-.509-.069-1.054-.058-1.552.035-.672.116-2.258.706-2.594,1.308-.081.139-.081.174-.035.313.058.035.069.046.151.058.394.069.915-.324,1.227-.509,0,0,.023-.023.035-.023.046-.035.093-.058.139-.081.046-.023.093-.058.151-.081.046-.023.104-.046.151-.069.046-.023.104-.046.151-.069.046-.023.104-.035.151-.058.058-.023.104-.035.162-.046.058-.012.104-.035.162-.046.058-.012.104-.023.162-.035.058,0,.104-.023.162-.035s.104-.012.162-.023c.058,0,.116,0,.162-.012h.486c.058,0,.116,0,.162.012.058,0,.104.012.162.023,1.17.185,2.293.868,2.976,1.841.313.452.787,1.216.66,1.772-.081.371-.394.648-.695.845-1.598,1.019-4.088,1.112-5.882.718-1.795-.394-6.936-3.393-7.886-4.944-.625-1.019-.104-2.825.162-3.925h.035Z"/>
  <path class="st4" d="M45.79,99.218c2.605,1.262,6.102.996,8.823.336.255.428.509.799.857,1.158-.521-.162-1.054-.301-1.61-.278-.984.035-1.586.521-2.327,1.077-.208.162-.475.336-.637.544-.104.127-.116.185-.093.347l.127.093c.787,0,1.656-.973,2.351-1.308.984-.475,2.316.023,3.265.359-1.146.22-2.304.556-3.207,1.355-.197.174-.359.359-.382.625.046.069.046.104.139.127.463.081,1.007-.44,1.343-.718.081-.058.162-.104.255-.151.903-.498,1.934-.637,2.93-.336.88.266,1.934.973,2.351,1.806.174.347.255.741.127,1.123-.174.498-.637.845-1.1,1.077-1.667.845-4.238.753-5.975.174s-6.044-2.663-7.307-3.925c-.185-.185-.289-.382-.405-.614,0-.961.22-1.945.475-2.872h0Z"/>
  <path class="st8" d="M41.529,27.206c-.255.637-.579,1.378-1.088,1.853-.729.66-2.385.509-3.335.475-1.436-.058-3.671-.174-4.69-1.343-.625-.718-.614-2.582-.533-3.474.035-.359.116-.799.417-1.031,1.007-.776,5.547-.208,6.913-.035l.035-.116c.787.023,1.691.208,2.397.556.452.648.371,1.482.232,2.235-.058.289-.116.614-.255.88h-.093Z"/>
  <path class="st4" d="M39.213,23.651l.035-.116c.787.023,1.691.208,2.397.556.452.648.371,1.482.232,2.235-.058.289-.116.614-.255.88h-.093c.058-.73.544-2.212.069-2.86-.394-.544-1.748-.602-2.397-.695h.012Z"/>
  <path class="st1" d="M36.515,25.689c.151-.012.289-.012.44,0,.66.035,1.494.174,1.945.706.162.197.266.475.22.741-.023.151-.069.197-.197.278-.533.023-.926-.498-1.459-.614h-.069c-.417-.035-.903-.093-1.32,0-.405.081-.857.475-1.274.417-.151-.023-.185-.081-.255-.197,0-.232.081-.405.232-.591.428-.521,1.088-.672,1.725-.73l.012-.012Z"/>
  <path class="st10" d="M70.188,86.122h.081c.035.046.046.058.058.116.116.428.058,1.088.081,1.54l.208,3.96.533,10.468c.093,1.667.232,3.335.289,5.002,0,.301.046.729-.081,1.007-.104.22-.301.382-.521.463-.382.139-.776.058-1.135-.104-.185-.208-.243-.359-.289-.637-.139-.776-.139-1.621-.185-2.409l-.22-3.983-.556-9.935c-.081-1.702-.162-3.404-.266-5.118.695-.069,1.355-.174,2.026-.359l-.023-.012Z"/>
  <path class="st10" d="M23.777,89.955l2.038.405c-.081,1.077-.104,2.154-.162,3.231l-.637,12.251-.232,3.856c-.046.683-.058,1.413-.174,2.084-.046.243-.116.417-.266.614-.266.162-.509.232-.799.313-.289-.093-.614-.162-.822-.405-.127-.139-.174-.324-.185-.509-.035-.834.069-1.714.116-2.547.104-1.968.22-3.937.347-5.905.162-3.289.359-6.577.567-9.866.069-1.17.104-2.351.208-3.52h0Z"/>
  <path class="st10" d="M10.056,80.344c.625.382,1.227.845,1.841,1.251-.336,4.319-.857,8.638-1.308,12.946l-.486,4.643c-.093.95-.162,1.911-.324,2.849-.046.243-.127.428-.266.637-.266.151-.509.208-.811.151-.301-.046-.591-.174-.753-.44-.162-.255-.104-.579-.081-.868.104-1.528.301-3.08.475-4.609.278-2.605.556-5.199.799-7.804l.544-5.547c.104-1.054.151-2.177.382-3.207h-.012Z"/>
  <path class="st6" d="M24.623,37.755c.22.081.475,1.436.544,1.725.984,3.786,4.145,6.82,7.133,9.136-.857.313-1.644.753-2.443,1.181l-2.2,1.239c-.069-.081-.139-.151-.208-.232-1.378-1.656-3.37-5.894-3.914-8.048-.22-.892-.336-1.818-.255-2.744.093-1.007.591-1.633,1.343-2.258h0Z"/>
  <path class="st8" d="M47.99,24.068c1.563-.104,3.161-.023,4.713.174-.116,1.783-.174,3.566-.185,5.35-.648.139-1.297.22-1.957.255-.811.058-3.092.104-3.717-.359-.683-.509-.973-2.084-1.042-2.872-.058-.556-.127-1.667.278-2.107.382-.417,1.401-.382,1.934-.428l-.023-.012Z"/>
  <path class="st1" d="M48.395,26.141h.208c.672-.023,1.424.093,1.922.579.174.162.359.44.336.683-.023.162-.081.208-.197.301-.44.093-.88-.266-1.297-.405l-.069-.023c-.289-.035-.602-.069-.88-.023-.428.081-.834.556-1.285.533-.151,0-.162-.046-.243-.151-.058-.266.023-.556.174-.776.313-.452.834-.602,1.343-.706l-.012-.012Z"/>
  <path class="st8" d="M26.059,39.191c.22.116,1.783,2.026,2.142,2.397,3.462,3.485,6.959,6.253,12.124,6.264-.602.556-1.17,1.123-1.702,1.748-.475.533-.95,1.054-1.401,1.61-.926-.903-1.899-1.783-2.941-2.536-.868-.614-1.806-1.146-2.652-1.795-2.513-1.911-4.748-4.597-5.558-7.689h-.012Z"/>
  <path class="st10" d="M8.62,47.69c.88-.093,1.795,0,2.675.046-.081.208-.162.405-.255.614-1.112.069-2.316.371-3.138,1.181-.394.382-.637.857-.753,1.39-.255,1.17-.139,2.513-.139,3.705v5.697c0,.463,0,.926.058,1.39-.174-.116-.347-.243-.509-.371-.66-.544-.834-1.077-.915-1.911-.116-1.285-.035-2.652-.035-3.937,0-1.586-.151-3.798.151-5.315.116-.567.324-1.054.695-1.494.579-.672,1.297-.915,2.142-.984l.023-.012Z"/>
  <path class="st10" d="M10.577,49.08h.023c.035,0,.069.012.081.035.058.058-.301,1.146-.347,1.308-.88,2.872-1.413,5.824-1.737,8.823-.046.475-.255,1.482-.012,1.911.069.104.151.139.266.174.197.058.359.081.463.278.127.232.035.533-.058.753-.174.116-.266.081-.463.081-.347-.058-.625-.139-.938-.289-.046-.116-.081-.22-.104-.347-.243-1.32-.104-3.381-.104-4.782,0-1.656-.104-4.076.116-5.651.058-.394.151-.753.394-1.065.591-.799,1.494-1.077,2.42-1.216v-.012Z"/>
  <path class="st4" d="M44.863,103.028c.637.347,1.158.95,1.772,1.355,1.725,1.146,5.072,2.791,7.029,3.231,1.748.405,3.914.371,5.535-.452.382-.197.695-.463,1.054-.695.069-.046.035-.035.127,0,0,.197-.081.371-.151.556-.197.255-.417.452-.695.625-2.547,1.667-5.871,1.031-8.453-.139-.695-.313-1.714-.95-2.397-1.146-.255-.069-.533-.046-.787-.116-.915-.22-2.571-1.227-3.069-2.026-.035-.405-.023-.787.035-1.193h0Z"/>
  <path class="st4" d="M28.085,105.297c.104.069.069.035.139.127.255.359.533.706.834,1.042.521.602,1.274,1.031,1.922,1.482,2.165,1.482,4.261,2.86,6.959,3.045,1.517.104,3.346-.058,4.69-.845.324-.197.625-.486.915-.741l.046.035c.012.232,0,.428-.058.648-.081.162-.208.301-.336.428-1.17,1.088-3.671,1.378-5.199,1.332-1.945-.058-3.879-.915-5.489-1.98-.567-.371-1.088-.811-1.656-1.17-.741-.463-1.575-.787-2.177-1.459-.544-.602-.602-1.193-.567-1.968l-.023.023Z"/>
  <path class="st10" d="M44.748,64.538c.093-.023.151-.012.232,0-.127.371-.579.753-.799,1.1-.44.706-.718,1.447-.984,2.235l-1.297.035c-.046-.232-.104-.452-.151-.683-.22-.776-.648-1.586-1.239-2.142l4.238-.544h0Z"/>
  <path class="st5" d="M31.744,56.676h.093c.509.324,4.18,6.137,4.585,6.948h-.058c0,.012-.139-.069-.139-.069-.278-.127-.729-.266-.95-.486-.648-.637-1.32-1.841-1.841-2.629-.741-1.1-1.528-2.177-2.223-3.312.162-.162.347-.313.533-.452h0Z"/>
  <path class="st5" d="M30.864,57.394c.428.463.787,1.077,1.146,1.598.892,1.262,1.737,2.559,2.536,3.891-.127.035-.324-.023-.452-.046l-.521-.139c-.591-.648-1.065-1.436-1.552-2.165l-1.737-2.594c.174-.197.394-.371.591-.544h-.012Z"/>
  <path class="st0" d="M29.324,53.41c.255-.023.521-.046.741.093.463.301.614.926.741,1.424-.428.266-.857.521-1.262.822-.151.139-.324.255-.498.382-.232-.301-.463-.648-.625-.996-.139-.301-.208-.648-.069-.961.174-.405.591-.602.973-.776v.012Z"/>
  <path class="st8" d="M40.811,69.888c.417.567.753,2.235.95,2.941-.313-.162-.579-.359-.845-.567-.567-.405-1.123-.799-1.702-1.193.614-.347,1.1-.683,1.598-1.181h0Z"/>
  <path class="st11" d="M31.188,55.471c.104.035.266.081.347.174.116.116.093.174.093.313-.313.509-1.193,1.065-1.714,1.355l-.058.023c-.185-.081-.289-.278-.417-.428.544-.521,1.065-1.1,1.76-1.424l-.012-.012Z"/>
  <path class="st10" d="M9.164,63.554c.023,0,.035.012.058.023.127.081.521,1.83.602,2.142l-.73.023c0-.729.023-1.459.069-2.189Z"/>
  <path class="st4" d="M26.487,23.026h.185c.116.023.232.104.289.208.081.162.046.313,0,.486-.093,0-.22,0-.301-.023-.151-.046-.185-.104-.266-.232-.012-.197.012-.278.093-.452v.012Z"/>
</svg>