<?xml version="1.0" encoding="UTF-8"?>
<svg id="Layer_1" xmlns="http://www.w3.org/2000/svg" width="80" height="115" xmlns:xlink="http://www.w3.org/1999/xlink" version="1.1" viewBox="0 0 80 115">
  <!-- Generator: Adobe Illustrator 30.1.0, SVG Export Plug-In . SVG Version: 2.1.1 Build 136)  -->
  <defs>
    <style>
      .st0 {
        fill: #111;
      }

      .st1 {
        fill: #413e3e;
      }

      .st2 {
        fill: #c26624;
      }

      .st3 {
        fill: #af5a21;
      }

      .st4 {
        fill: url(#linear-gradient2);
      }

      .st5 {
        fill: url(#linear-gradient1);
      }

      .st6 {
        fill: url(#linear-gradient3);
      }

      .st7 {
        fill: url(#linear-gradient5);
      }

      .st8 {
        fill: url(#linear-gradient4);
      }

      .st9 {
        fill: #1c5d2f;
      }

      .st10 {
        fill: #6c4a1a;
      }

      .st11 {
        fill: #a3acaa;
      }

      .st12 {
        fill: #6a8c86;
      }

      .st13 {
        fill: #759892;
      }

      .st14 {
        fill: url(#linear-gradient);
      }

      .st15, .st16 {
        fill: #d5bc29;
      }

      .st15, .st17 {
        fill-rule: evenodd;
      }

      .st18 {
        fill: #606060;
      }

      .st19 {
        fill: #49665d;
      }

      .st17, .st20 {
        fill: #39b54a;
      }

      .st21 {
        fill: #fdc185;
      }

      .st22 {
        fill: #fff;
      }

      .st23 {
        fill: #eae9ea;
      }

      .st24 {
        fill: #bc8b4c;
      }

      .st25 {
        fill: #838080;
      }

      .st26 {
        fill: #eeaf74;
      }

      .st27 {
        fill: #fefefe;
      }

      .st28 {
        fill: #54564c;
      }

      .st29 {
        fill: #ef6471;
      }

      .st30 {
        fill: #00bcd6;
      }

      .st31 {
        fill: #f9b319;
      }

      .st32 {
        fill: #302317;
      }

      .st33 {
        fill: #fec608;
      }

      .st34 {
        fill: #2b1e0a;
      }

      .st35 {
        fill: #d3d2d2;
      }

      .st36 {
        fill: #5e7c76;
      }

      .st37 {
        fill: #332c24;
      }
    </style>
    <linearGradient id="linear-gradient" x1="36.33" y1="46.56" x2="32.29" y2="47.22" gradientTransform="translate(0 115) scale(1 -1)" gradientUnits="userSpaceOnUse">
      <stop offset="0" stop-color="#9f9c9c"/>
      <stop offset="1" stop-color="#cccbcc"/>
    </linearGradient>
    <linearGradient id="linear-gradient1" x1="72.09" y1="53.95" x2="67.35" y2="54.34" gradientTransform="translate(0 115) scale(1 -1)" gradientUnits="userSpaceOnUse">
      <stop offset="0" stop-color="#587972"/>
      <stop offset="1" stop-color="#669287"/>
    </linearGradient>
    <linearGradient id="linear-gradient2" x1="56.23" y1="17.31" x2="53.98" y2="17.38" gradientTransform="translate(0 115) scale(1 -1)" gradientUnits="userSpaceOnUse">
      <stop offset="0" stop-color="#5f7d77"/>
      <stop offset="1" stop-color="#73968f"/>
    </linearGradient>
    <linearGradient id="linear-gradient3" x1="53.4" y1="51.72" x2="53.11" y2="51.44" gradientTransform="translate(0 115) scale(1 -1)" gradientUnits="userSpaceOnUse">
      <stop offset="0" stop-color="#342e2a"/>
      <stop offset="1" stop-color="#515355"/>
    </linearGradient>
    <linearGradient id="linear-gradient4" x1="70.52" y1="46.66" x2="72.88" y2="48.58" gradientTransform="translate(0 115) scale(1 -1)" gradientUnits="userSpaceOnUse">
      <stop offset="0" stop-color="#50716b"/>
      <stop offset="1" stop-color="#5e8a7d"/>
    </linearGradient>
    <linearGradient id="linear-gradient5" x1="38.88" y1="20.4" x2="36.59" y2="10.03" gradientTransform="translate(0 115) scale(1 -1)" gradientUnits="userSpaceOnUse">
      <stop offset="0" stop-color="#fff" stop-opacity="0"/>
      <stop offset="1" stop-color="#c9cac8" stop-opacity=".02"/>
    </linearGradient>
  </defs>
  <path class="st32" d="M74.44,55.76c-.28-3.1-2.83-3.64-5.47-3.8-1.41-7.97-4.46-11.42-12.35-13.4-.03-1.79-1.24-2.98-2.93-3.38.05-1.65.51-3.32.94-4.91,4.23,1.37,7.3-7.26,3.93-9.51.89-3.63,1.27-10.58-3.17-12.05-.06-.67-.45-2.29-1.34-1.42-.51-.26-1.12-1.22-1.78-1.48-1.89-.75-3.88-1.29-5.75-2.1-.81-.38-1.95-1.64-2.03,0-1.54-.34-2.96-3.03-3.97-2.74-.22.37-.14,1.3-.49,2.1-1.99-3.22-1.35-1.35-2.46.7-.92-2.42-1.53.73-2.14,1.52-.91,1.15-2.25,1.74-2.79,3.17-3.1,2.59-2.29,7.99-1.4,11.35-1.04.25-1.74.43-1.49,1.75.25,1.33.53,3.28,1.7,4.11-.52,5.35,1.36,11.06,5.91,14.21-4.16.88-6.8,3.87-9.2,7.17-1.71,2.15-3.35,4.36-4.86,6.67-.29.44,0,.75-.54,1.27-2.12,2.09-2.13,5.74-.59,8.17-1.46.37-4.33,1.69-5.78,2.22-2.72,1.32-8.23,2.83-10.56,4.67-.59.65-.48,2.35-.3,3.15.29,1.54,1.19,1.84,2.55,2.1.07,1.87.02,5.02,1.94,5.98-.61,7.8-1.11,15.61-1.64,23.42-.06.81-.15,1.72-.17,2.53-.03,1.21,2.35,1.4,3.04.75.18-.17.23-.31.25-.54.14-1.44.25-2.91.37-4.36.45-6.17,1.29-15.15,1.71-21.29,3.15.59,6.75.83,9.95,1.33.45,4.48,1.99,8.44,2.87,12.71-.86.42-.97.99-1.52,1.72-1.81,3.23-7.83,3.58-6,8.3.3.77,1.31,1.26,2.05,1.5,4.23,1.31,8.81-.16,12.28-2.59,2.98-.84,4.01-2.05,3.53-5.2,2.09.03,1.58-1.46,1.84-3.12.27-2.93.61-6.06.97-8.98.66,3.41,1.77,7.25,1.94,10.68-1.21.64-.77.7-1.33,1.77-1.18,2.12-3.26,3.46-5.26,4.74-2.43,2.76-1.51,5.84,2.26,6.23,5.49,1.2,9.81-1.33,14.11-4.45.12,1.6.22,5.71.41,7.23.31,1.19,3.32,1.2,3.45-.09.06-2.06-.21-4.24-.21-6.31.27-.13.91-.41.95-.75.56-5.93.81-11.91,1.29-17.86,1.66-.11,4.16-.61,5.74-1.16.22,2.25,1.32,13.64,1.56,15.63.17,1.58-.12,2.62,1.99,2.5,1.97-.12,1.14-2.58.99-4.04.77.44,2.03.57,2.56-.3.12-.24-1.17-14.66-1.31-16.42,1.87-1.15,2.36-4.89-.09-5.62.23-2.03,1.09-4.38,1.22-6.59.98-1.11,1.07-2.31.87-3.75,4.72-.39,3.9-9.77,3.72-13.14ZM31.37,24.43c-.05.01-.07,0-.13-.01-.55-.74-.7-2.2-.62-3.11l.77.18c-.15,1.06-.08,1.89-.02,2.94ZM35.97,95.43c-.02.36,0,.52-.14.85h-.06c-.31-3.48-.31-7.12-.76-10.61.57.16,1.13.28,1.71.41-.14,2.17-.59,7.11-.74,9.36Z"/>
  <path class="st28" d="M56.61,39.29c2.44.83,6.19,2.03,8.03,3.87,4.01,4.57,4.18,11.91,5.41,17.6-3.73-1.51-7.95-1.99-11.83-.74-.52-.31-.16-3.15-.29-3.84-.19-2.01-.38-3.95-.53-5.92-.53.55.18,8.21.14,9.47-.02.76.96,1.01,1.62,1.22-1.45.29-2.93.79-4.37,1.13-.31-.22-.49-.26-.85-.38-1.16.26-2.39.41-3.25,1.24-3.14.28-6.36.05-8.66,2.43-1.15-.17-2.3-.3-3.46-.41.18-2.39-1.23-3.7-3.28-4.59-.28-.54-1.03-1.9-1.03-2.4.01-1.17-.43-2.15-.59-3.21-.29-1.96-.11-4.04-.25-6.03-.55,2.21-.14,4.6-.19,6.81.17.39.21.58.31.99-.32-.46-.79-1.49-1.05-2.02-.21-.34-.76-1.25-.85-1.5-.34-.98-1.97-.23-2.05.41-.06.47,1.24,2.77,1.43,3.21-2.62-1.7-4.1-2.44-7.3-2.25,4.18-5.28,6.94-11.95,13.92-13.78-.83,1.57-1.5,3.29-1.72,5.06-.45,3.56,2.58.43,3.81.04.91,1.25,1.74,1.43,3.04,2.22-.57-.7-1.19-1.12-1.89-1.66-.5-.39-.57-.73-1.19-.84-.88-.15-2.64,1.76-3.26,1.31-.31-1.6.86-4.79,1.71-6.22.78.37,1.07.45,1.92.6,0,2.63,1.53,4.42,3.03,6.43-1.2,2.02-1.01,4.56-1.22,6.81.06-.07.03-.03.08-.12l.05-.02c.26-2.08-.04-5.21,1.96-6.49.81-.47,2.07-.61,3.03-.91.6-.18,1.37-.85,2.02-.66,1.09.33,2.73,1.98,4.01,1.58,1.97-1.76,3.09-5.9,3.61-8.45Z"/>
  <path class="st31" d="M32.41,54.27c.62.34.87,1.34,1.05,2.02-.32-.46-.79-1.49-1.05-2.02Z"/>
  <path class="st37" d="M43.26,51.91c.9-.07,1.03.88.4,1.34-.93-.02-1.03-.77-.4-1.34Z"/>
  <path class="st28" d="M43.39,52c.57.11.59.8.17,1.11-.66-.09-.66-.78-.17-1.11Z"/>
  <path class="st13" d="M21.84,63.75l.63-.17c1.11,1.42,2.7,2.06,4.4,2.35.12.02.27.2.33.3-.1.25-1.08.71-1.36.86-1.74.94-4,2.12-5.67,3.13,5.43,1.3,19.85,2.77,25.76,3.73,1.48-1.43,3.4-2.71,4.83-4.23,1.2-.12,1.73-.25,2.67-1,.54,0,1.73-.25,2.03-.2,3.45.55,6.84.8,10.09-.73,1.48.34,4-.3,4.65,1.45-.02.67.11,2.31-.5,2.75-2.6,1.81-7.56,4.3-10.33,5.98-2.41,1.36-4.34,2.67-7.23,2.46-13.46-1.58-30.78-4.1-44.27-5.72-1.89-.15-2.05-2.09-1.91-3.62.29-1.02.68-1.15,1.61-1.56,2.56-1.17,11.53-4.63,14.27-5.8Z"/>
  <path class="st36" d="M70.2,69.22c-.03.69.12,2.33-.5,2.79-1.3.95-3.18,1.92-4.59,2.72-3.96,1.83-8.4,5.97-12.97,5.71-4.54-.38-14.17-1.88-18.82-2.44-5.4-.72-20.24-2.62-25.45-3.28-1.89-.15-2.05-2.09-1.91-3.62,1.31.79,2.3.76,3.78.97,9.19,1.23,23.31,3,32.52,4.29,3.1.45,6.25.92,9.37,1.24.9.09,1.93.03,2.81-.18.49-.11,1.13-.39,1.58-.38,4.72-2.33,9.88-4.76,14.18-7.84Z"/>
  <path class="st12" d="M5.96,71.11c1.31.79,2.3.76,3.78.97,9.19,1.23,23.31,3,32.52,4.29,3.1.45,6.25.92,9.37,1.24.9.09,1.93.03,2.81-.18.49-.11,1.13-.39,1.58-.38-.23.08-.54.23-.77.33-.06.45.03,1.28-.35,1.54-1.08.74-3.24.42-4.44.24-5.99-.98-24.04-3.01-29.99-4.01,0,0-9.22-1.1-9.22-1.1-2.15-.27-3.4,0-5.25-1.32-.14-.36-.08-1.21-.05-1.61Z"/>
  <path class="st36" d="M65.55,67.81c.28.05.93.09,1.26.13-3.82,2.6-8.56,1.64-12.86,1.92-1.52.28-3.04,1-4.59,1.18.47-.41.98-.83,1.4-1.3,1.2-.12,1.73-.25,2.67-1,.54,0,1.73-.25,2.03-.2,3.45.55,6.84.8,10.09-.73Z"/>
  <path class="st36" d="M21.84,63.75l.63-.17c1.11,1.42,2.7,2.06,4.4,2.35.12.02.27.2.33.3-.1.25-1.08.71-1.36.86,0-.06-.03-.17-.1-.2-1.6-.76-2.73-.84-3.88-2.39.01-.22-.01-.54-.02-.76Z"/>
  <path class="st32" d="M69.32,69.02c-.67,1.11-10.26,5.88-11.95,6.77-1.43.75-3.81,1.21-5.44.93-13.87-1.77-30.69-3.75-44.48-5.88l.18-.14c10.09,1.24,35.49,4.76,45.21,5.81,4.62.31,11.99-5.5,16.48-7.47Z"/>
  <path class="st37" d="M7.45,70.82c-.4-.12-.64-.38-.39-.79-.19.48.15.62.57.65l-.18.14Z"/>
  <path class="st2" d="M8.55,75.31c11.31,1.37,33.18,4.54,44.24,5.7-.25,1.75-.06,3.36-.51,5.08-12.55-1.4-28.44-3.53-40.99-5.12-2.82-.03-2.51-3.64-2.74-5.66Z"/>
  <path class="st3" d="M8.55,75.31c11.31,1.37,33.18,4.54,44.24,5.7-.05.36-.09.72-.12,1.08-12.33-1.69-31.76-4.18-44.05-5.79-.02-.33-.06-.67-.07-1Z"/>
  <path class="st24" d="M32.06,29.56c-.16-.67-.13-2.88-.12-3.61,1.42.77,3.57.7,5.03.07-1.64,2.01-.31,4.18,2.2,4.01.95-.02,1.61-.35,2.46-.67.29-.11.5-.03.75-.28,2.76.15,5.79-.79,6.9,2.52,1.41-1.14,2.05-2.91,3.44-4.03,2.17-1.74,1.35,1.05,1.63,1.84-1.06,5.71-5.2,9.66-10.87,10.85-6.25,1.54-11.05-5.08-11.43-10.7Z"/>
  <path class="st21" d="M32.06,29.56c-.16-.67-.13-2.88-.12-3.61,1.42.77,3.57.7,5.03.07-.74,1.11-1.05,1.83-.35,3.07-1.8.29-2.59.72-3.01,2.57-.61-.69-.98-1.49-1.54-2.1Z"/>
  <path class="st21" d="M35.12,32.48l-.11-.06c-.1-.34.04-.97.4-1.09l.06.16c3.48.92,7.4.68,10.83-.37.47-.14.84.21.7.69.6,3.57-2.53,7.83-6.35,6.41-3.33,1.05-5.53-2.83-5.53-5.74Z"/>
  <path class="st32" d="M35.12,32.48l-.11-.06c-.1-.34.04-.97.4-1.09l.06.16c2.81.82,5.94.6,8.8.17.73.05,2.97-1.36,2.72.15-.23-.52-.55-.3-.78.09-1.74,2.88-5.98,3.9-8.84,2.13-.78-.5-1.31-1.91-1.87-2.1-.31.09-.3.26-.38.55Z"/>
  <path class="st27" d="M45.58,31.76s.04.04.06.1c-1.7,3.09-7.65,3.78-9.25.26,2.71.71,6.46.18,9.18-.36Z"/>
  <path class="st32" d="M38.92,36.21l-.09-.19.09-.05c1.46.54,2.08.44,3.62,0-.32.28-.54.42-.94.58-.3.83-2.21.45-2.67-.35Z"/>
  <path class="st26" d="M38.92,36.21c.97.49,1.58.62,2.67.35-.3.83-2.21.45-2.67-.35Z"/>
  <path class="st21" d="M32.21,19.63l-.14.07-.1-.05c.12-7.33,1.46-10.36,9.32-9.92,3.16.16,8.79-.8,10.32,2.91.48,1.14.23,3.32.52,4.65.24,1.26.91,2.07.94,3.38-3.57-.83-7.11-1.81-10.7-.65-1,.47-1.29.76-2.48.73-1.09-.02-1.1-.22-1.98-.6-2.1-.73-3.52-.65-5.69-.52Z"/>
  <path class="st10" d="M42.36,20.02c-.11-1.91,3.94-1.67,5.2-1.5.92.15,1.65.6,2.15,1.35-2.44-.42-4.95-.63-7.35.15Z"/>
  <path class="st10" d="M32.21,19.63c1.08-1.25,5.5-1.66,5.69.52-2.1-.73-3.52-.65-5.69-.52Z"/>
  <path class="st26" d="M48.8,10.24c1.33.42,2.32,1.01,2.8,2.4-.23-.05-.28-.15-.43-.32-.62-.68-1.42-1.2-2.19-1.69-.17-.11-.14-.19-.18-.39Z"/>
  <path class="st10" d="M40.9,1.51c.74.42,3.49,4.22,4.19,1.95,2.88,2.02,6.6,1.66,8.88,4.56l.54-.53c.33.61.4.87.45,1.56,4.39,1.51,3.9,7.94,3.07,11.57-1.18-.14-1.26.18-2.28.56-.15.06-1.98-.4-2.25-.46-.05-.25-.07-.34-.08-.61l.13-.08c-2.97-5.38,1.7-10.07-7.65-10.72-.56-.78-.86-1.8-1.32-2.66.09,1.24.3,1.58.94,2.62h-2.42c-.67-.78-1.05-1.85-1.67-2.6.22,1.12.54,1.69,1.21,2.57-.57.03-1.2.02-1.77.03-.74-.74-1.1-1.94-1.54-2.91.05,1.4.27,1.91,1.16,2.89-.58.03-1.05.06-1.63.05-.83-1.16-.98-1.58-1.23-2.98-.26,1.35.1,1.87.78,3.03-5.82-.08-6.55,4.45-6.91,9.2-.71-3.06-1.11-7.53,1.53-9.79.27-.35.52-.88.83-1.18,1.7-1.64,2.17-1.91,3.03-4.16.23.42.41.75.7,1.13.75-.9.88-1.37,1.2-2.47.45.7.73,1.17,1.31,1.77.58-.99.67-1.21.8-2.36Z"/>
  <path class="st21" d="M39.75,85.12c2.77.4,7.69.94,10.52,1.31.22,4.02.37,8,.54,12.02-.89,1.73-2.53,1.85-4.26,1.55-1.16-1.41-2.71-1.94-4.48-1.88-.25-3.84-1.76-9.05-2.32-13Z"/>
  <path class="st26" d="M39.75,85.12c2.77.4,7.69.94,10.52,1.31.03.56.04,1.39.1,1.93-3.13-1.34-7.09-1-10.39-1.81-.07-.45-.15-.99-.24-1.42Z"/>
  <path class="st21" d="M23.77,54.56c2.29-.29,6.48,1.17,7.72,3.13-.41.4-.74.8-1.18,1.22-.6-1.15-.88-1.62-1.96-2.33l-.09.14c.86.68,1.31,1.4,1.83,2.34-.5.07-.81.1-1.23.37,3.22-.01,3.31-.03,5.65,2.3.98,1.06,2.48,2.52,2.87,3.91-.35,1.13-1.56.29-2.06-.28-1.17-1.18-1.91-1.95-3.29-2.92.57.76,4.18,4.11,4.2,4.49-1.06,1.3-4.32-1.62-5.19-2.27.91,1.26,2.07,2.04,3.4,2.78-1.8.76-3.22-.44-4.69-1.36.69.78,1.58,1.3,2.5,1.76-3,.4-4.62-1.45-6.01-3.66l.58,1.26c-5.36-.72-6.83-7.41-3.03-10.88Z"/>
  <path class="st26" d="M36.93,64.66c.19.31.36.63.44.99-.35,1.13-1.56.29-2.06-.28.79,0,.94-.34,1.62-.71Z"/>
  <path class="st21" d="M37.19,65.15c.1.14.13.34.18.5-.18.4-.26.59-.75.56-.35-.68-.18-.96.57-1.06Z"/>
  <path class="st10" d="M27.29,56.18c.48.13.63.17,1.07.4l-.09.14c-.29-.14-.68-.38-.97-.54Z"/>
  <path class="st21" d="M24.03,83.15c3.29.52,6.97.91,10.3,1.32.65,3.98.55,8.1.92,12.12-.94,1.26-2.53,1.47-3.97,1.12-1.1-1.36-2.67-1.93-4.37-1.88-.77-4.16-2.35-8.45-2.88-12.68Z"/>
  <path class="st21" d="M53.28,21.73c.03.39.11,1.95.18,2.21.75.48,1.9-1.49,2.34-1.98,5.32-3.93,4.22,7.38.08,7.92-.52.12-1.15-.07-1.52-.47-.29-.79.54-3.58-1.63-1.84-1.4,1.12-2.03,2.89-3.44,4.03-1.11-3.31-4.14-2.37-6.9-2.52.17-.27.33-.44.27-.76-.05.23-.23.49-.43.62-1.53.16-3.66,1.24-4.91.13-1.86-1.63,1.19-3.65,1.4-5.39.03-.26.35-1.39.51-1.67,1.72-1.01,1.86.72,2.03,1.41.68,2.81,3.34,3.36,5.82,3.1,3.41-.33,3.47-2.27,4.23-4.97.07-.26,1.74.11,2,.18Z"/>
  <path class="st21" d="M55.4,25.61c.11-1.23.94-3.3,2.51-2.83-.29.16-.59.02-.88.34.69.14.9.82,1.04,1.44l-.11.1c-.18-.1-.2-.13-.34-.29-.63.9-1.01,2.39-1.62,2.95-.23-.33.18-1.57.19-2.11-.22-.17-.25-.23-.4-.45-.13.35-.22.52-.4.84Z"/>
  <path class="st26" d="M55.4,25.61c.11-1.23.94-3.3,2.51-2.83-.29.16-.59.02-.88.34.37.11.54.2.73.56-.67.32-.78.22-1.27.78-.05-.02-.38-.2-.45-.24-.24.48-.36.93-.64,1.39Z"/>
  <path class="st32" d="M55.4,25.61c.11-1.23.94-3.3,2.51-2.83-.29.16-.59.02-.88.34-.95.52-1.14,1.6-1.63,2.48Z"/>
  <path class="st24" d="M56.04,24.22c.07.04.4.22.45.24.58,1.21-.39,1.43-.43,2.8l-.06.06c-.23-.33.18-1.57.19-2.11-.22-.17-.25-.23-.4-.45.05-.16.17-.39.24-.55Z"/>
  <path class="st3" d="M56.19,25.22l.09-.09c.18.64-.16,1.47-.23,2.13l-.06.06c-.23-.33.18-1.57.19-2.11Z"/>
  <path class="st3" d="M57.03,23.13c.13-.11.24-.17.39-.25,1.01.83,1.03,1.82.65,3,.01-.97.13-2.44-1.04-2.75Z"/>
  <path class="st27" d="M37.29,65.34c.19-.01.38.17.54.31.99.05,2.41.28,3.45.39-.59.85-1.81,3.29-.94,4.16.91.26,1.03-.33,1.42.73.74.47,1.06.08,1.72.06,1.03,1.14,1.4.18,2.32.12.86.97,1.72.11,2.81.12-.91.8-1.98,1.56-2.84,2.38-7.84-1.14-17.14-2.29-24.99-3.43,2.25-1.18,4.45-2.34,6.63-3.61,2.49,2.74,5.91,1.65,9,.79.14.05.18.17.28.33l.15-.13c-.05-.34-.23-.69-.4-.99l.05-.04c.23.01.37.14.51.1.35-.45.37-.21.56-.85l-.18-.13c-.04-.1-.05-.2-.08-.31Z"/>
  <path class="st34" d="M37.29,65.34c1.17.28,1.33,2.77,1.31,3.75l-.1.08c-.21-.04-.23-.09-.38-.25-.45-.47-1.02-.73-1.44-1.23l.15-.13c-.05-.34-.23-.69-.4-.99l.05-.04c.23.01.37.14.51.1.35-.45.37-.21.56-.85l-.18-.13c-.04-.1-.05-.2-.08-.31Z"/>
  <path class="st31" d="M38.06,67.04c.15.28.27,1.08.07,1.35-.31.04-.81-.59-1.05-.82.51-.35.26-.4.98-.54Z"/>
  <path class="st37" d="M36.77,67.28c-.07-.22-.22-.5-.34-.71l.05-.04c.23.01.37.14.51.1l.04.16.16.13c.41-.15.53-.12.87.11-.72.14-.47.19-.98.54l-.24-.02-.07-.28Z"/>
  <path class="st31" d="M36.77,67.28c-.07-.22-.22-.5-.34-.71l.05-.04c.23.01.37.14.51.1.06.31.15.52-.22.64Z"/>
  <path class="st31" d="M37.55,65.78c.15.29.34.6.4.93-.05.12-.03.09-.11.19-.35-.11-.26-.08-.65.03l-.16-.13-.04-.16c.35-.45.37-.21.56-.85Z"/>
  <path class="st14" d="M34.04,68.02c.72-.43,1.63-.29,2.37-.66.14.05.18.17.28.33.3.35.52.5.9.77-.84.51-.75-.03-1.2.03l-.04.05c-1.55.04-3.42.21-4.94.2l-.04-.07c.16-.17.25-.16.47-.17-.09-.04-.85-.04-1.03-.05.98-.13,2.25-.2,3.22-.42Z"/>
  <path class="st35" d="M34.04,68.02c.72-.43,1.63-.29,2.37-.66.14.05.18.17.28.33.3.35.52.5.9.77-.84.51-.75-.03-1.2.03-.31-.28-2-.22-2.35-.46Z"/>
  <path class="st35" d="M27.41,66.57c1.34,1.3,2.1,1.61,3.95,1.78l-.55.08c-.27-.09-.64-.15-.92-.1.15.03.26.01.35.11-.11.07-.23.15-.37.1-1.14-.36-2.43-.52-3.18-1.53.23-.14.5-.3.72-.45Z"/>
  <path class="st35" d="M40.34,70.2c.91.26,1.03-.33,1.42.73-.47.02-1.16-.34-1.42-.73Z"/>
  <path class="st23" d="M36.39,68.48c.46-.06.36.49,1.2-.03.15.13.4.34.53.47-.66.15-1.21-.08-1.77-.39l.04-.05Z"/>
  <path class="st35" d="M40.1,68.88c-.23-.02-.83-.06-.99-.21l.11.08-.09-.03.21-.06h-.06s.84.12.84.12l-.03.11Z"/>
  <path class="st28" d="M39.39,67.79c.24.02.41.01.64.11-.24.08-.65,0-.91-.03l.27-.07Z"/>
  <path class="st35" d="M38.52,67.76c.28,0,.6-.03.87.03-.24.11-.57.07-.84.04l-.03-.07Z"/>
  <path class="st1" d="M32.11,70.49c4.07.65,8.62,1.25,12.75,1.75-2.39.07-10.08-1.08-12.75-1.75Z"/>
  <path class="st25" d="M26.45,68.21c1.66,0,3.63.6,5.27.8l-.04.08c-.94.08-4.19-.52-5.25-.76v-.12Z"/>
  <path class="st1" d="M24.49,69.57c.91-.18,2.49.31,3.45.36.43.02,1.45.07,1.79.28-.71.11-4.59-.44-5.25-.64Z"/>
  <path class="st25" d="M36.96,69.78c-.52-.01-3.84-.45-4.25-.64.6-.06,3.63.41,4.28.55l-.03.09Z"/>
  <path class="st28" d="M38.8,70.08c.86.06.93,0,1.72.37-.42-.04-1.39-.11-1.73-.27v-.1Z"/>
  <path class="st35" d="M36.98,69.69c.64.04,1.25.09,1.81.4v.1c-.59-.35-1.16-.32-1.84-.41l.03-.09Z"/>
  <path class="st1" d="M39.05,66.68c.21-.07,1.27.16,1.52.25-.28.03-1.31-.06-1.52-.25Z"/>
  <path class="st23" d="M29.98,70.24c.27-.04.67.04.93.15-.33.03-.63,0-.93-.15Z"/>
  <path class="st21" d="M62.04,60.37c-1.07-.33-2.24.41-2.66.14-.45-1.81,8.27-.58,9.25.04.93,7.64-7.02,8.71-12.71,7.52.77-.92.82-2.13.6-3.26.7-.88-.81-2.08-1.42-2.54.27-.19,6.14-1.69,6.94-1.9Z"/>
  <path class="st26" d="M62.04,60.37c-1.07-.33-2.24.41-2.66.14-.45-1.81,8.27-.58,9.25.04.93,7.64-7.02,8.71-12.71,7.52.36-.45.45-.66.61-1.22,4.04,1.16,11.09.38,11.29-4.95-1.18-1.25-4.13-1.93-5.75-1.64l-.02.12Z"/>
  <path class="st10" d="M50.82,99.32c.23.24.29,3.04.31,3.58-.66.69-1.31.91-2.03,1.45-.68.51-1.38,1.12-2.05,1.65-2.89,2.41-10.02,3.93-12.84.93.34-2.28,3.28-2.79,4.54-4.39,2.26-.27,3.41.49,5.11,1.54l.07-.06c-1.03-1.64-3.08-2.01-4.85-1.77.41-.54.82-1.07,1.23-1.6,3.36-.48,4.77,1.89,5.12,1.88.44-.57,1.1-1.21,1.22-1.96,1.71-.03,2.91.15,4.16-1.25Z"/>
  <path class="st10" d="M35.65,96.79c.46.51.56,2.46.58,3.17-.83.86-2.02,1.32-3.02,1.94-.96.61-1.86,1.27-2.86,1.83-2.88,1.65-8.75,2.68-11.22,0,.52-2.23,3.04-2.55,4.48-3.98,1.85-.21,3.27.62,4.72,1.64l.07-.07c-1.04-1.62-2.72-1.88-4.45-1.86.41-.45.81-.9,1.22-1.36,2.12-.18,3.31.52,4.81,1.84.42-.13,1.29-1.28,1.37-1.77,1.73.3,3.19.11,4.29-1.38Z"/>
  <path class="st21" d="M40.53,68.62c1.63-5.61,6.19-5.22,10.99-5.49.1.6.78,1.09,1.19,1.51.35.39.76.65,1.27.67.36.51.24,1.82-.04,2.36-.21.21-.62.65-.83.81-.94.7-2.02.71-3.12.93-1.16.32-2.19,1.82-3.46,1.73-1.37-.57,2.14-3.22,2.49-3.7-2.47,1.15-2.7,3.13-4.39,3.64-1.06.03-.83-.76-.42-1.39.65-1.5,1.75-2.32,2.87-3.41-3.03,1.26-2.93,4.48-4.67,4.49-.69-.32-.57-.61-.36-1.23.38-1.23.99-2.34,1.95-3.21.31-.28.88-.81,1.1-1.13l-.02-.08c-.92.84-1.84,1.29-2.53,2.48-.4.73-.63,1.4-1.01,2.12-.09.16-.6.19-.8.19-.59-.37-.25-.74-.21-1.3Z"/>
  <path class="st26" d="M40.53,68.62c1.17-.09.63.25.94.47.27-.27.77-1.46,1.09-1.9.45-.62,1.61-1.81,2.35-1.96-.83.85-1.72,1.21-2.36,2.37-.4.73-.63,1.4-1.01,2.12-.09.16-.6.19-.8.19-.59-.37-.25-.74-.21-1.3Z"/>
  <path class="st21" d="M40.54,68.72c.9-.17.89,1.02.21,1.21-.53-.35-.33-.66-.21-1.21Z"/>
  <path class="st26" d="M49.21,69.76c.4-1.03,3.77-.82,4.48-2.62.09.19.16.35.24.54-1.44,1.86-2.94,1.21-4.72,2.08Z"/>
  <path class="st26" d="M42.05,69.56c1.22-.04,1,.56.36,1.23-.69-.32-.57-.61-.36-1.23Z"/>
  <path class="st26" d="M43.13,70.58c.28-.91,1.3-2.75,2.21-3.11-.74.92-1.28,1.82-1.88,2.83-.07.12-.21.21-.33.28Z"/>
  <path class="st12" d="M53.45,86.25h.08c.33,6.44,1.03,21.03,1.03,27.42-.59.62-1.68.39-2.33-.02-.17-.32-1.37-25.11-1.47-27.15,1.19.13,1.58.22,2.68-.25Z"/>
  <path class="st12" d="M10.43,81.36c.83.19,1.83.3,2.68.41-.44,5.22-1.43,17.14-1.82,22.23-.05.55-.2,3.37-.41,3.61-.74.43-1.5.26-2.2-.19.53-8.05,1.27-18.03,1.75-26.06Z"/>
  <path class="st36" d="M10.43,81.36c.83.19,1.83.3,2.68.41-.44,5.21-1.43,17.14-1.82,22.23-.05.55-.2,3.37-.41,3.61-.23.15-.52.22-.8.25.7-.99.51-3.4.73-4.69.52-6.53,1.2-13.5,1.33-20.05-.47-.25-1.37-1.01-1.76-.99l.05-.76Z"/>
  <path class="st2" d="M68.54,73.33c.19,4.26-2.1,5.2-5.51,6.94-3.46,1.92-6.95,4.12-10.5,5.82.31-1.7.42-3.41.54-5.13,4.77-.4,11.2-5.6,15.48-7.63Z"/>
  <path class="st3" d="M68.54,73.33l-.05.94c-3.37,1.56-6.54,3.81-9.82,5.59-1.81.95-3.61,2.17-5.7,2.37,0-.39.05-.88.08-1.27,4.77-.4,11.2-5.6,15.48-7.63Z"/>
  <path class="st12" d="M65.07,79.66c.08.14,1.95,22.78,2.24,25.13-.75.48-1.28.51-2.08.14-.19-.23-.26-1.57-.3-1.94-.68-6.11-1.47-15.92-2.18-21.97.77-.46,1.55-.91,2.33-1.35Z"/>
  <path class="st21" d="M53.2,34.19c-.1.67-.18,3.16-.33,3.56-1.73,4.22-6.4,6.27-9.57,9.12-1.65-1.82-2.74-3.47-2.9-5.95,5.1.49,10.11-2.47,12.8-6.73Z"/>
  <path class="st28" d="M53.57,35.71c5.29,1.15.86,9.04-.84,11.48-2.58-.8-3.38-2.51-6.09-1.06-1.08.31-2.13.64-3.11,1.21,1.66-1.85,3.8-2.71,5.63-4.4,2.01-1.76,4.63-4.31,4.41-7.23Z"/>
  <path class="st21" d="M45.13,20.11c1.1-.14,3.84.11,4.78.65.99.56.25,3.33-.37,4.05-1.4,1.54-4.83,1.51-6.49.43-1.02-.75-1.84-3.19-.98-4.26.5-.62,2.27-.81,3.05-.87Z"/>
  <path class="st32" d="M45.76,21.56c1.46.24,1.41,2.46.28,3.06-1.47-.09-1.5-2.51-.28-3.06Z"/>
  <path class="st5" d="M69.26,53.61c.87.07,1.78.3,2.31,1.04,1.27,2.13.9,11.91-1.52,13.45-.76-.51-2.6-.58-3.48-.71,1.93-1.44,2.52-3.35,2.55-5.66.39-.13.99-.33,1.23-.68.41-.58-.9-6.45-1.09-7.44Z"/>
  <path class="st10" d="M51.12,103.2c.1.56.13,1.98.15,2.59-.67.66-1.63,1.05-2.42,1.5-2.51,2.13-5.49,3.33-8.82,3.3-1.81-.01-6.79-.29-5.7-3.18,4.88,2.77,10.79,1.08,14.68-2.6.57-.51,1.46-1.02,2.11-1.62Z"/>
  <path class="st21" d="M33.32,20.19c1.02-.25,3.52.12,4.42.62,1.13.64.38,3.12-.17,3.94-1.03,1.53-4.28,1.4-5.63.46-.03-1.92-.2-2.79.06-4.75.23-.25.96-.24,1.32-.27Z"/>
  <path class="st26" d="M31.95,20.78c0-.11.03-.21.05-.32.23-.25.96-.24,1.32-.27-.24.2-1.05.59-1.37.59Z"/>
  <path class="st32" d="M35.73,21.55c1.38.08,1.24,2.25.26,2.98-1.28.05-1.37-2.24-.26-2.98Z"/>
  <path class="st12" d="M66.85,85.93c.49-.25.98-.49,1.44-.78.3,4.28.88,11.45,1.27,15.63.1.93-1.82.91-1.9.07-.48-4.87-1.1-9.73-1.56-14.6l.74-.32Z"/>
  <path class="st36" d="M66.1,86.25l.74-.32c.47,4.13.96,11.32,1.52,15.53-.33-.12-.67-.22-.71-.61-.48-4.87-1.1-9.73-1.56-14.6Z"/>
  <path class="st10" d="M36.19,100.31c.23.43,0,1.88-.15,2.35-.87.96-2.17,1.26-3.29,1.76-3.15,2.26-7.12,3.48-10.97,2.59-1.47-.22-2.92-1.09-2.65-2.77,3.43,2.02,8.11,1.61,11.53-.37.91-.53,1.81-1.16,2.71-1.73.9-.57,2.09-1.11,2.83-1.83Z"/>
  <path class="st4" d="M54.22,88.65c.82.06,1.64.07,2.47.05-.27,5.49-.75,11.37-1.19,16.87-.02.47.03,1.04-.54,1.09-.3-3.96-.59-13.48-.74-18.01Z"/>
  <path class="st12" d="M37.09,86.12c.68.11,1.48.27,2.15.35-.51,4.02-.88,8.06-1.33,12.08-.04.6-.8.66-1.21.39-.88-4.28.39-8.52.39-12.83Z"/>
  <path class="st36" d="M37.91,86.26c.43.07.9.16,1.33.21-.35,2.86-.67,5.71-.96,8.58-.13,1.17-.22,2.34-.37,3.51-.06.46-.31.49-.73.55.35-2.67.68-5.4.93-8.08.11-1.4.44-3.18.14-4.54l-.34-.21Z"/>
  <path class="st13" d="M69.05,52.5c1.39.11,2.94.31,4.03,1.23,1.66,2,.96,10.13.09,12.59-.44.16-1.1.5-1.52.44l-.09-.1c.52-3.1,3.1-13.52-2.39-13.36-.02-.27-.07-.53-.12-.8Z"/>
  <path class="st19" d="M62.53,84.65l.11.04c.12.5.21,1.71.27,2.27-3.17.94-5.5,1.46-8.73,1.11-.16-.32-.11-1.67-.12-2.15,3.28.12,5.32-.16,8.47-1.27Z"/>
  <path class="st36" d="M54.67,85.63c1.89-1.12,5.72-3.23,7.67-4.36.06.9.23,2.1.29,2.99-2.63,1.02-5.16,1.43-7.96,1.37Z"/>
  <path class="st12" d="M59.13,83.99c1.09-.55,2.25-1,3.3-1.63l.13,1.17c-1.22.21-2.19.69-3.43.47Z"/>
  <path class="st34" d="M31.23,53.76c.25-.02.51-.07.67.19v.13s-.15.09-.15.09l.03.12.16-.03c1.2,1.74,3.37,6.87,4.44,9.04-.58-.7-1.29-1.51-1.91-2.16-.28-.19-.47-.31-.55-.66h-.19c-.2-.11-.61-.48-.71-.66-.35-.79-2.29-4.38-2.38-4.9l.17-.22-.1-.03c-.14.07-.17.04-.29-.02-.14-.54.41-.72.83-.91Z"/>
  <path class="st33" d="M30.97,54.68l.66-.32c1.12,2.18,2.34,4.28,3.25,6.56l.11.03c.06-.1.1-.19.15-.29.43.89.86,1.75,1.25,2.66-.58-.7-1.29-1.51-1.91-2.16-.28-.19-.47-.31-.55-.66-.86-1.76-2.02-4.1-2.94-5.82Z"/>
  <path class="st31" d="M34.88,60.92l.11.03c.06-.1.1-.19.15-.29.43.89.86,1.75,1.25,2.66-.58-.7-1.29-1.51-1.91-2.16.3-.07.38.3.71.5-.06-.31-.28-.52-.29-.74Z"/>
  <path class="st31" d="M30.8,54.71c.21.22,2.92,5.7,2.93,5.8-.2-.12-.61-.49-.71-.68-.35-.79-2.29-4.38-2.38-4.9l.17-.22Z"/>
  <path class="st31" d="M31.79,54.3l.16-.03c.46.33,2.73,5.46,3.19,6.38-.05.11-.09.19-.15.29l-.11-.03c-.02-.76-2.53-5.61-3.09-6.61Z"/>
  <path class="st33" d="M31.23,53.76c.25-.02.51-.07.67.19v.13s-.15.09-.15.09c-.32.07-.88.26-1.06.51-.14.07-.17.04-.29-.02-.14-.54.41-.72.83-.91Z"/>
  <path class="st31" d="M31.23,53.76c.25-.02.51-.07.67.19v.13s-.15.09-.15.09l-.17.03c-.1-.14-.24-.31-.35-.45Z"/>
  <path class="st19" d="M68.52,79.73c.78.37,1.32.72,1.12,1.69.01.96.04,1.93-.71,2.65-.67.64-2.01,1.3-2.87,1.67-.1-.86-.15-1.88-.21-2.73,1.35-.72,2.4-1.74,2.67-3.28Z"/>
  <path class="st36" d="M68.52,79.73c3.16,1.24-1.08,3.87-2.59,4.29-.05-.3-.06-.7-.09-1.01,1.35-.72,2.4-1.74,2.67-3.28Z"/>
  <path class="st10" d="M41.85,98.6c1.81-.12,3.57.45,4.51,2.08-.15.34-.67,1.18-.97,1.36-1.46-1.43-2.75-2.07-4.81-1.75.33-.77.4-1.43,1.27-1.68Z"/>
  <path class="st1" d="M54.03,61.84c.37.18.53.28.86.54l.2-.11c.61.46,2.12,1.66,1.42,2.54-.18-.3-.12-.04-.3-.25.13-.21.11.09.39-.05.06-.32.03-.63-.28-.77-.44.63-1.63.55-2.34.8,0,.08,0,.16,0,.23.2.05.52-.08.72-.16-.32.19-.67.65-.9.16-.57.45-1.64-1.12-2.01-1.48-.01-.38.18-.35.15-.66-.13-.14-.13-.14-.19-.32.76-.1,1.42-.41,2.28-.48Z"/>
  <path class="st37" d="M55.09,62.27c.61.46,2.12,1.66,1.42,2.54-.18-.3-.12-.04-.3-.25.13-.21.11.09.39-.05.06-.32.03-.63-.28-.77-.44.63-1.63.55-2.34.8,0,.08,0,.16,0,.23.2.05.52-.08.72-.16-.32.19-.67.65-.9.16l-.06.04c-.06-.81-1.02-1.35-1.63-1.81l-.03-.14h.1s.54.44.54.44c-.12-.2-.2-.58-.24-.82.56.4,1.05.87,1.52,1.37.29-.1,1-.22,1.34-.28.09-.09.05-.05.08-.21l.09-.05c.11.05.17.08.3.1-.27-.37-.66-.61-.93-1.04l.2-.11Z"/>
  <path class="st6" d="M52.72,63.31c-.12-.2-.2-.58-.24-.82.63.49,1.31.99,1.71,1.69l-.12.07c-.33,0-1.02-.67-1.36-.94Z"/>
  <path class="st28" d="M55.43,63.36l.09-.05c.11.05.17.08.3.1.1.12.22.25.25.39-.41.13-1.49.45-1.88.37l-.19-.32c.29-.1,1-.22,1.34-.28.09-.09.05-.05.08-.21Z"/>
  <path class="st28" d="M53.65,62.25c.25.08.28.08.54.06l.07.07c.03.7.5.94,1.1,1.19-.34.06-1.05.18-1.34.28-.47-.5-.96-.97-1.52-1.37.43-.03.75-.11,1.16-.23Z"/>
  <path class="st28" d="M53.65,62.25c.92-.22,1.25.45,1.79,1.11-.03.16,0,.13-.08.21-.59-.24-1.07-.48-1.1-1.19l-.07-.07c-.26.02-.29.01-.54-.06Z"/>
  <path class="st10" d="M27.09,96.27c1.73,0,2.98.58,3.98,1.99-.19.31-.79,1.22-1.13,1.28-1.18-1.46-2.69-1.89-4.47-1.8.46-.81.6-1.41,1.62-1.47Z"/>
  <path class="st12" d="M67.31,78.38c2.04,1.2,0,3.52-1.5,4.13-.08-.9-.16-2.24-.3-3.1.59-.35,1.21-.67,1.81-1.03Z"/>
  <path class="st36" d="M66.23,82.28c.23-.47,1.15-1.41,1.65-1.55-.36.61-1.02,1.24-1.65,1.55Z"/>
  <path class="st1" d="M55.91,64.81h.19c.49.65.11,2.57-.5,3.16-.49.12-.88.28-1.4.25.44-1.28.52-1.72.2-3.13l1.51-.28Z"/>
  <path class="st21" d="M35.5,60.76c1.74.65,2.66,2.1,2.66,3.91-1.05.46-2.12-3.13-2.66-3.91Z"/>
  <path class="st36" d="M34.9,84.52c1.45.2,2.91.35,4.37.57,0,.29.06.59.1.88-.67-.12-4.83-.37-4.46-1.44Z"/>
  <path class="st8" d="M71.57,66.66l.09.1c.42.06,1.08-.28,1.52-.44-.36,1.18-1.42,2.15-2.71,2.08l-.05-.09c.25-.54.75-.6,1.15-1.65Z"/>
  <path class="st10" d="M53.62,21.8c.5.06.99.13,1.49.21-.38.65-.59,1.44-1.38,1.72,0-.64-.05-1.29-.11-1.93Z"/>
  <path class="st29" d="M30.85,52.64c.39-.01.55.51.69.82-.31.07-.8.17-1.04.36-.11.1-.14.15-.28.17-.8-.49-.05-1.3.64-1.35Z"/>
  <path class="st28" d="M38.06,65.1c.33-.01,3.41.32,3.56.43l-.1.26c-.39,0-3.31-.3-3.5-.48l.04-.22Z"/>
  <path class="st35" d="M47.67,71.35c1.09-.69,1.42-1.29,2.76-1.65-.38.35-1.41,1.28-1.8,1.54-.3.03-.69.11-.95.11Z"/>
  <path class="st11" d="M69.15,72.93c-.15.91-.15,1.72-.28,2.61-.26,1.18-.44,1.7-1.26,2.67.25.2.39.33.61.56.24-1,.48-2.23.79-3.18.24-.72.47-2.03.62-2.8-.16.04-.33.09-.49.15Z"/>
  <path class="st27" d="M31.75,58.11c.21.18.43.82.55,1.1-.41-.08-1.11-.13-1.54-.17.27-.3.68-.65.98-.93Z"/>
  <path class="st37" d="M51.94,62.64c-.2,0-.59.05-.73-.04.13-.16.33-.21.54-.28.06.18.06.19.19.32Z"/>
  <path class="st7" d="M38.59,96.45c.24-.09.24-.07.36-.25-.06-.16-.02-.1-.19-.21.24-.15.86.12,1.19-.08.28-.18.2-.76.51-.96.2.14-.17.38.17.76.09-.12.06-.08.05-.27.28.12.42.29.61.52.06.37.36,1.93.23,2.19-1.21.64-.77.7-1.33,1.77-1.18,2.12-3.26,3.46-5.26,4.74l-.08-.05-.08.07-.07-.04c-.32.13-.27.37-.6.45l-.03-.07.12-.18c-.26-.07-.54.29-.89.07l-.07-.17c2.98-.84,4.01-2.05,3.53-5.2,2.09.03,1.58-1.46,1.84-3.12Z"/>
  <g>
    <g>
      <path class="st22" d="M50.37,52.97s0,.05-.03.05h-.08c-.06-.01-.08-.02-.09-.06l-.12-.3s-.04-.07-.06-.08c-.02-.01-.06-.02-.1-.03h-.07s-.03.37-.03.37c0,.04-.02.05-.05.04h-.08s-.05-.02-.05-.06l.07-.91s.02-.05.05-.04h.08s.05.02.04.06l-.03.37h.06s.02,0,.02,0l.31-.35s.04-.04.1-.03h.09s.04.03.02.06l-.35.38c.06.03.11.09.14.17l.15.36Z"/>
      <path class="st22" d="M50.93,52.06c.26.02.4.17.38.41l-.02.26c-.02.23-.18.36-.44.34l-.32-.03s-.05-.02-.05-.05l.07-.91s.02-.05.05-.04l.32.03ZM51.14,52.45c.01-.13-.07-.21-.21-.22l-.19-.02-.05.67.19.02c.15.01.24-.05.25-.19l.02-.26Z"/>
      <path class="st22" d="M52.1,52.15s.05.02.04.05v.05s-.01.04-.02.07l-.42.77s-.03.04-.09.04h-.08s-.04-.03-.02-.06l.42-.76-.45-.04s-.05-.02-.04-.05v-.07s.02-.05.06-.04l.61.05Z"/>
      <path class="st22" d="M52.7,52.2c.2.02.31.14.29.34-.01.15-.09.24-.21.27.02.02.03.04.04.06l.13.31s0,.05-.03.05h-.08c-.06-.01-.08-.02-.09-.06l-.1-.25c-.03-.08-.06-.1-.16-.11h-.1s-.03.32-.03.32c0,.04-.02.05-.05.04h-.08s-.05-.02-.05-.06l.07-.91s.02-.05.05-.04l.39.03ZM52.81,52.52s0-.08-.03-.11c-.02-.03-.06-.04-.11-.05l-.24-.02-.02.29.24.02s.08,0,.11-.03c.03-.02.04-.06.05-.1Z"/>
      <path class="st22" d="M54.08,52.31s.05.02.04.05l-.07.91s-.02.05-.05.04h-.07s-.05-.02-.04-.06l.03-.43c0-.08.03-.18.06-.28h0c-.03.08-.08.16-.14.25l-.16.23s-.04.03-.06.03h-.05s-.04-.01-.05-.04l-.12-.26c-.04-.08-.07-.17-.09-.27h0c.01.1.01.19,0,.28l-.03.43s-.02.05-.05.04h-.07s-.05-.02-.05-.06l.07-.91s.02-.05.05-.04h.06s.05.02.06.05l.25.55.34-.5s.03-.04.07-.03h.07Z"/>
      <path class="st22" d="M55.03,53.35s0,.05-.03.05h-.1c-.06-.01-.07-.02-.09-.06l-.19-.35-.23.31s-.04.04-.1.03h-.09s-.04-.03-.02-.06l.35-.44-.26-.47s0-.05.03-.04h.09c.06.01.07.02.09.05l.18.33.23-.3s.04-.04.09-.03h.1s.04.03.02.06l-.34.42.28.49Z"/>
      <path class="st22" d="M51.44,53.8c.2.02.31.14.29.34-.01.15-.09.24-.21.27.02.02.03.04.04.06l.13.31s0,.05-.03.05h-.08c-.06-.01-.08-.02-.09-.06l-.1-.25c-.03-.08-.06-.1-.16-.11h-.1s-.03.32-.03.32c0,.04-.02.05-.05.04h-.08s-.05-.02-.05-.06l.07-.91s.02-.05.05-.04l.39.03ZM51.54,54.12s0-.08-.03-.11c-.02-.03-.06-.04-.11-.05l-.24-.02-.02.29.24.02s.08,0,.11-.03c.03-.02.04-.06.05-.1Z"/>
      <path class="st22" d="M52.67,54.86s0,.05-.04.04h-.07c-.06-.01-.08-.02-.08-.06l-.05-.19-.39-.03-.08.18s-.03.04-.09.04h-.06s-.04-.02-.03-.05l.43-.89s.03-.04.06-.03h.07s.05.02.06.05l.28.95ZM52.31,54.21c-.01-.05-.02-.12-.02-.15v-.02s0,0,0,0c0,.05-.02.11-.04.17l-.13.29.29.02-.08-.31Z"/>
      <path class="st22" d="M53.5,53.97s.04.02.02.05l-.39.53-.03.35s-.02.05-.05.04h-.08s-.05-.02-.04-.06l.03-.35-.3-.58s0-.05.03-.05h.1c.06.01.07.02.09.06l.19.4.25-.36s.04-.04.1-.03h.09Z"/>
    </g>
    <g>
      <g>
        <g id="Signal">
          <path id="Path" class="st17" d="M50.2,49.97l.04.14.02-.04h.12s.02-.02.05-.02.05.02.05.06-.02.05-.06.05c-.02,0-.04-.01-.05-.04h-.1s-.05.08-.05.08l-.04-.15-.06.13-.05-.14-.06.13-.05-.14-.02.04h-.12s-.02,0-.03.02v.07s.09.04.09.04l-.14.03.13.05-.14.04.13.05-.14.03h.03s0,.11,0,.11c.01,0,.02.02.03.03h.1s.05-.08.05-.08l.04.14.06-.13.04.14.06-.13.04.14.02-.04h.12s.02-.02.05-.02.05.02.05.06c0,.02-.01.04-.04.05v.07s.09.04.09.04l-.14.03.13.05-.14.03.13.05-.14.03h.03s0,.11,0,.11c.02.01.03.02.03.05s-.02.05-.06.05c-.02,0-.04-.01-.05-.04h-.1s-.05.08-.05.08l-.04-.14-.06.13-.04-.14-.06.13-.04-.14-.02.04h-.12s-.02.02-.05.02-.05-.02-.05-.06.02-.05.06-.05c.02,0,.04.01.05.04h.1s.05-.08.05-.08l.04.14.06-.13.04.14.06-.13.04.14.02-.04h.12s.02,0,.03-.02v-.07s-.09-.04-.09-.04l.14-.03-.13-.05.14-.03-.13-.05.14-.03h-.03s0-.11,0-.11c-.01,0-.03-.02-.03-.03h-.1s-.05.08-.05.08l-.04-.14-.06.13-.04-.14-.06.13-.04-.14-.02.04h-.12s-.02.02-.05.02-.05-.02-.05-.06c0-.02.01-.04.04-.05v-.07s-.09-.04-.09-.04l.14-.03-.12-.05.14-.03-.13-.05.14-.03h-.03s0-.11,0-.11c-.02-.01-.03-.02-.03-.05s.02-.05.06-.05c.02,0,.04.01.05.04h.1s.05-.08.05-.08l.04.14.06-.13.04.14.07-.13Z"/>
          <path id="Shape" class="st20" d="M50.7,50.45h0s-.01.04-.04.04h-.01s-.04-.01-.04-.05h0s.01-.04.04-.04h.01s.04.01.04.05ZM50.68,50.62l-.04.51s-.01.02-.02.02h-.03s-.02,0-.02-.02l.04-.51s0-.02.02-.02h.03s.02.01.02.02Z"/>
          <path id="Shape1" data-name="Shape" class="st20" d="M51.03,50.62c.06,0,.12.02.17.05.03.01.04.02.04.07l-.04.5c-.01.13-.08.22-.25.21-.08,0-.16-.05-.2-.13,0,0,0-.01,0-.02,0-.01.01,0,.01,0h.02s.01-.02.02,0c.01,0,0,.01,0,.01.03.05.07.1.14.09.1,0,.16-.05.17-.14v-.06s-.11.02-.16.02c-.14-.01-.2-.09-.19-.22v-.14c.02-.14.1-.21.26-.2ZM51.02,50.68c-.11,0-.16.04-.17.14v.13s0,.08.02.11c.03.03.07.05.1.04.05,0,.1,0,.16-.02l.03-.34s0-.02-.02-.03c-.04-.01-.08-.03-.12-.03h0Z"/>
          <path id="Shape2" data-name="Shape" class="st20" d="M51.62,50.67c.14.01.2.09.19.22l-.03.33s-.01.02-.02.02h-.03s-.02,0-.02-.02l.03-.33c0-.09-.03-.15-.13-.16-.05,0-.09,0-.15,0-.01,0-.02,0-.02.03l-.03.42s0,.02-.02.02h-.03s-.02,0-.02-.02l.04-.44s.01-.04.05-.06c.07-.01.15-.02.21-.01h0Z"/>
          <path id="Shape3" data-name="Shape" class="st20" d="M52.16,50.71c.17.01.2.11.19.22l-.02.28s-.01.05-.05.06c-.05.02-.12.02-.18.02-.19-.02-.22-.08-.21-.18.01-.12.08-.16.24-.15.04,0,.09,0,.13.02v-.05c.01-.08-.02-.15-.13-.16-.06-.02-.12.01-.15.06t-.03,0h-.02s-.02-.02,0-.04c.06-.07.14-.1.24-.08h0ZM52.13,51.01c-.11,0-.16.02-.16.09s.02.11.15.12c.04,0,.08,0,.13-.01t.02-.03v-.14s-.08-.02-.13-.02h0Z"/>
          <path id="Shape4" data-name="Shape" class="st20" d="M52.51,51.29h-.03s-.02,0-.02-.02l.06-.73s0-.02.02-.02h.03s.02,0,.02.02l-.06.74s-.01,0-.02,0Z"/>
        </g>
        <g id="Stuff">
          <path id="Path1" data-name="Path" class="st17" d="M53.28,50.22l.04.14.02-.04h.12s.02-.02.05-.02.05.02.05.06-.02.05-.06.05c-.02,0-.04-.01-.05-.04h-.1s-.05.08-.05.08l-.04-.15-.06.13-.05-.14-.06.13-.05-.14v.04s-.14-.01-.14-.01c0,.01-.02.02-.03.03v.07s.09.04.09.04l-.14.03.13.05-.15.04.13.05-.14.03.03.02v.09s.01.02.02.03h.1s.05-.08.05-.08l.04.14.06-.13.04.14.06-.13.04.14.04-.04h.12s.02-.02.05-.02.05.02.05.06c0,.02-.01.04-.04.05v.07s.09.04.09.04l-.14.03.13.05-.14.03.13.05-.14.04h.03s0,.11,0,.11c.02.01.03.02.03.05s-.02.05-.06.05c-.02,0-.04-.01-.05-.04h-.1s-.05.08-.05.08l-.04-.14-.06.13-.04-.14-.06.13-.04-.14-.03.04h-.12s-.02.02-.05.02-.05-.02-.05-.06.02-.05.06-.05c.02,0,.04.01.05.04h.1s.05-.08.05-.08l.04.14.06-.13.04.14.06-.13.04.14.02-.04h.12s.02,0,.03-.02v-.07s-.09-.04-.09-.04l.14-.03-.13-.05.14-.03-.13-.05.14-.03h-.03s0-.11,0-.11c-.01,0-.03-.02-.03-.03h-.1s-.05.08-.05.08l-.04-.14-.06.13-.04-.14-.06.13-.04-.14-.02.02h-.12s-.02.02-.05.02-.05-.02-.05-.06c0-.02.01-.04.04-.05v-.07s-.09-.04-.09-.04l.14-.03-.13-.05.14-.03-.13-.05.14-.03h-.03s0-.11,0-.11c-.02-.01-.03-.02-.03-.05s.02-.05.06-.05c.02,0,.04.01.05.04h.1s.05-.08.05-.08l.04.14.06-.13.04.14.07-.13Z"/>
          <path id="Shape5" data-name="Shape" class="st20" d="M53.85,50.77v.1s.15.01.15.01c.01,0,.02,0,.02.02v.03s0,.02-.02.02h-.15s-.02.26-.02.26c-.01.12.03.15.14.16.01,0,.02.01.02.02v.03s0,.02-.02.02c-.17-.01-.21-.06-.2-.23l.02-.27h-.1s-.02-.01-.02-.03v-.02s0-.02.02-.02h.1s0-.11,0-.11c0-.01.01-.02.02-.02h.02s.02.01.02.02Z"/>
          <path id="Shape6" data-name="Shape" class="st20" d="M54.53,50.96l-.04.44s-.01.04-.05.06c-.06.02-.14.03-.2.02-.14-.01-.2-.09-.19-.22l.03-.33s0-.02.02-.02h.03s.02,0,.02.02l-.03.33s0,.08.03.12.07.05.11.04c.05,0,.09,0,.14,0,.01,0,.02-.02.02-.03l.03-.41s0-.02.02-.02h.03s.01,0,0,.01Z"/>
          <path id="Shape7" data-name="Shape" class="st20" d="M54.99,50.75v.03s0,.02-.02.02c-.11,0-.16.02-.17.13v.03s.15.01.15.01c.01,0,.02,0,.02.02v.03s0,.02-.02.02h-.15s-.04.44-.04.44c0,.01,0,.02-.02.02h-.03s-.02,0-.02-.02l.04-.47h-.09s-.02,0-.02-.03v-.02s0-.02.02-.02h.09s0-.02,0-.02c.01-.14.08-.2.23-.19h.01s.02,0,.02.02Z"/>
          <path id="Shape8" data-name="Shape" class="st20" d="M55.36,50.79v.03s0,.02-.02.02c-.11,0-.16.02-.17.13v.03s.15.01.15.01c.01,0,.02,0,.02.02v.03s0,.02-.02.02h-.15s-.04.44-.04.44c0,.01,0,.02-.02.02h-.03s-.02,0-.02-.02l.04-.47h-.09s-.02,0-.02-.03v-.02s0-.02.02-.02h.09s0-.02,0-.02c.01-.14.08-.2.23-.19h.01s.02,0,.02.02Z"/>
        </g>
      </g>
      <g>
        <rect class="st9" x="52.55" y="49.2" width=".03" height="5.07" transform="translate(-3.25 99.94) rotate(-85.36)"/>
        <polygon class="st18" points="49.68 51.45 49.63 51.45 49.62 51.54 49.68 51.55 49.68 51.45 49.68 51.45"/>
        <path class="st18" d="M55.06,51.93h0s0-.03.02-.03h.09s.03.02.03.04h0s-.02.03-.03.03h-.09s-.02-.02-.02-.04Z"/>
        <path class="st0" d="M50.03,51.49l-.02-.02s-.01,0-.02,0h-.07s-.02-.01-.03-.01l-.05-.03s0,0-.01,0h-.14s0-.01,0,0v.18s-.01,0-.01,0h.14s0,.01.01,0l.06-.02s.02,0,.03,0h.07s.01,0,.02,0h.02s.01-.03.02-.04v-.03s0-.02,0-.02Z"/>
      </g>
    </g>
  </g>
  <g>
    <g>
      <path class="st30" d="M37.31,50.77l.02-.02c.06.06.12.1.21.1.1,0,.17-.04.18-.12h0c0-.07-.03-.11-.17-.15-.14-.04-.19-.09-.19-.17h0c0-.08.09-.15.2-.14.08,0,.14.04.19.08l-.02.02c-.05-.05-.11-.07-.18-.08-.1,0-.16.05-.17.11h0c0,.07.03.11.17.15.14.04.19.09.19.17h0c0,.09-.09.15-.21.14-.09,0-.16-.04-.22-.11"/>
      <polygon class="st30" points="38.05 50.35 37.85 50.34 37.85 50.31 38.29 50.34 38.29 50.37 38.08 50.35 38.04 50.91 38.02 50.91 38.05 50.35"/>
      <path class="st30" d="M38.38,50.68l.02-.33h.03s-.02.33-.02.33c-.01.15.07.24.19.25s.21-.06.22-.22l.02-.33h.03s-.02.33-.02.33c-.01.17-.11.26-.25.25s-.23-.1-.22-.28"/>
      <path class="st30" d="M39.04,50.4h.19c.18.03.3.16.29.33h0c-.01.17-.15.28-.33.27h-.19s.04-.59.04-.59ZM39.06,50.42l-.04.53h.16c.17.02.29-.08.3-.23h0c.01-.15-.09-.27-.26-.29h-.16Z"/>
      <polygon class="st30" points="39.79 50.79 39.56 50.43 39.6 50.44 39.8 50.77 40.05 50.47 40.08 50.47 39.81 50.8 39.8 51.04 39.77 51.03 39.79 50.79"/>
      <polygon class="st30" points="35.22 50.12 35.33 50.13 35.31 50.37 35.59 50.39 35.6 50.15 35.71 50.16 35.66 50.74 35.56 50.73 35.58 50.49 35.3 50.47 35.28 50.71 35.18 50.71 35.22 50.12"/>
      <polygon class="st30" points="36.65 50.23 36.76 50.23 36.92 50.52 37.11 50.26 37.22 50.27 37.18 50.85 37.08 50.84 37.11 50.42 36.91 50.69 36.9 50.68 36.74 50.4 36.71 50.81 36.61 50.81 36.65 50.23"/>
      <path class="st30" d="M36.48,50.72l-.25-.7s.05-.04.06-.08c0-.05-.03-.09-.08-.1s-.09.03-.1.08c0,.04.02.07.04.08l-.35.66s0,.06.02.07c.02.01.06,0,.07-.02l.07-.14.37.03.05.15s.02.03.04.03c0,0,.01,0,.02,0,.03,0,.04-.04.03-.06M36.01,50.49l.16-.31.12.33-.28-.02Z"/>
      <path class="st30" d="M35.85,49.73s.01,0,.02,0c0,0,0,.01,0,.02-.03.05-.05.1-.06.16,0,.05,0,.11.03.16,0,0,0,0,0,.01,0,0,0,0,0,0,0,0,0,0,0,0,0,0-.01,0-.01,0-.02-.05-.03-.11-.03-.17,0-.06.03-.12.06-.18"/>
      <path class="st30" d="M35.98,50.04s0,0,0,0c0,0,.01-.01,0-.02-.01-.03-.02-.06-.02-.1,0-.04.02-.08.04-.11,0,0,0-.02,0-.02,0,0-.02,0-.02,0-.03.04-.04.08-.04.12,0,.04,0,.08.02.11,0,0,0,0,.01,0"/>
      <path class="st30" d="M36.56,49.78s-.01-.01-.02,0c0,0-.01.01,0,.02.03.05.04.11.03.17,0,.05-.02.11-.05.15,0,0,0,0,0,.01,0,0,0,0,0,0,0,0,0,0,0,0,0,0,.01,0,.01,0,.03-.05.05-.11.05-.17,0-.06,0-.13-.04-.18"/>
      <path class="st30" d="M36.38,50.07s0,0,0,0c0,0,0-.01,0-.02.02-.03.03-.06.03-.09,0-.04,0-.08-.02-.11,0,0,0-.02,0-.02,0,0,.02,0,.02,0,.02.04.03.08.03.13,0,.04-.02.08-.04.11,0,0,0,0-.01,0"/>
    </g>
    <g>
      <polygon id="Fill-114" class="st15" points="36.81 51.61 36.92 51.62 37.08 51.9 37.28 51.64 37.38 51.65 37.34 52.24 37.24 52.23 37.27 51.81 37.06 52.07 37.06 52.07 36.9 51.78 36.87 52.2 36.76 52.2 36.81 51.61"/>
      <g>
        <path id="Fill-116" class="st15" d="M36.17,51.88l.17-.31.12.33-.29-.02ZM36.64,52.11l-.25-.71s.05-.04.06-.08c0-.05-.03-.09-.08-.1s-.09.03-.1.08c0,.03.02.07.04.09l-.35.66s0,.05.02.07c.03.01.05,0,.07-.02l.07-.14.37.03.05.15s.02.03.04.03c0,0,.01,0,.02,0,.02-.01.04-.04.03-.07h0Z"/>
        <path id="Fill-118" class="st15" d="M36,51.11s.01,0,.02,0c0,0,0,.01,0,.02-.03.05-.05.1-.06.17,0,.05,0,.11.03.16,0,0,0,0,0,.01,0,0,0,0-.01,0,0,0,0,0,0,0,0,0-.01,0-.01-.01-.03-.05-.04-.12-.03-.18.01-.06.03-.13.07-.18"/>
        <path id="Fill-120" class="st15" d="M36.14,51.42s0,0,0,0c0,0,.01-.01,0-.02-.02-.03-.02-.07-.02-.1,0-.04.02-.08.04-.11,0,0,0-.02,0-.02,0,0-.02,0-.02,0-.03.04-.04.08-.05.13,0,.04,0,.08.02.11,0,0,0,0,.01,0"/>
        <path id="Fill-122" class="st15" d="M36.72,51.16s-.01-.01-.02,0c0,0-.01.01,0,.02.03.05.04.11.03.17,0,.05-.02.11-.05.15,0,0,0,0,0,.01,0,0,0,0,0,.01,0,0,0,0,0,0,0,0,.01,0,.01,0,.03-.05.05-.11.06-.17,0-.06-.02-.13-.04-.19"/>
        <path id="Fill-124" class="st15" d="M36.54,51.45s0,0,0,0c0,0-.01-.01,0-.02.02-.03.03-.06.03-.1,0-.04,0-.08-.03-.11,0,0,0-.02,0-.02,0,0,.02,0,.02,0,.02.04.03.08.03.13,0,.04-.02.08-.04.11,0,0,0,0-.01,0"/>
      </g>
      <polygon class="st16" points="35.21 52.09 35.22 51.99 34.88 51.97 34.89 51.81 35.19 51.83 35.19 51.74 34.89 51.71 34.91 51.56 35.24 51.58 35.25 51.49 34.81 51.46 34.77 52.05 35.21 52.09"/>
      <polygon class="st16" points="35.41 52.1 35.58 51.88 35.73 52.12 35.85 52.13 35.65 51.81 35.89 51.53 35.76 51.52 35.6 51.73 35.47 51.5 35.34 51.49 35.53 51.8 35.29 52.09 35.41 52.1"/>
      <polygon id="T" class="st16" points="37.78 52.27 37.82 51.76 38.01 51.77 38.01 51.73 37.59 51.7 37.59 51.74 37.78 51.75 37.74 52.27 37.78 52.27"/>
      <path id="O" class="st16" d="M38.31,52.31c.17.01.29-.11.3-.26h0c.01-.15-.09-.29-.25-.3s-.29.11-.3.26h0c-.01.16.09.29.25.3ZM38.32,52.27c-.14,0-.23-.13-.22-.26h0c0-.14.11-.24.25-.23s.23.13.22.26h0c-.01.14-.12.24-.25.23Z"/>
      <path id="O1" data-name="O" class="st16" d="M38.99,52.35c.17.01.29-.11.3-.26h0c.01-.15-.09-.29-.25-.3s-.29.11-.3.26h0c-.01.16.09.29.25.3ZM38.99,52.32c-.14,0-.23-.13-.22-.26h0c0-.14.11-.24.25-.23s.23.13.22.26h0c0,.14-.12.24-.25.23Z"/>
      <polygon id="L" class="st16" points="39.77 52.41 39.78 52.37 39.45 52.35 39.49 51.84 39.45 51.83 39.41 52.38 39.77 52.41"/>
      <path id="S" class="st16" d="M40.08,52.43c.11,0,.18-.05.19-.14h0c0-.08-.04-.13-.17-.17-.13-.04-.16-.07-.15-.13h0c0-.06.06-.1.14-.1.06,0,.11.03.16.07l.03-.03c-.05-.05-.1-.08-.18-.08-.1,0-.18.05-.19.13h0c0,.09.04.14.17.17.12.04.15.07.15.13h0c0,.07-.06.11-.15.1s-.13-.04-.19-.1l-.03.03c.07.07.14.1.22.11Z"/>
    </g>
  </g>
</svg>