<?xml version="1.0" encoding="UTF-8"?>
<svg id="Layer_1" xmlns="http://www.w3.org/2000/svg" version="1.1" viewBox="0 0 80 115">
  <!-- Generator: Adobe Illustrator 29.1.0, SVG Export Plug-In . SVG Version: 2.1.0 Build 142)  -->
  <path d="M40.5,1.5c.8.2,1.4.7,2,1.2,0-.3.1-.7.3-.9.1-.1.2-.1.4-.1.9,0,2.2,1.6,2.8,2.3.4.1.7.3,1,.5.6.5,1,1.1,1.6,1.7.7.7,1.4,1.3,2.1,2.1,2,2.1,2.9,4.1,2.8,7.1,0,.8-.1,1.5-.1,2.3,0,1.9.3,3.6.2,5.5.6.2,1.5.2,2.1.6.2.1.3.3.3.5,0,.4-.2.7-.5.9-.2.8-.2,1.7-.5,2.6-.3,1.2-.7,2-1.8,2.6,0,4.4-1,8.2-3.4,11.9,1,.5,1.9,1.4,2.7,2.2,1.3,1.2,2.4,2.7,3.4,4.1,1.3,1.8,2.5,3.6,3.7,5.5.4.6,1.1,1.5,1.1,2.3,0,.3-.2.6-.4.8.5.8.8,1.7,1,2.6.3,1.6.2,3-.7,4.4,3,1.6,5.9,3.5,8.7,5.3,1.3.8,4.7,2.8,5.6,3.9.1.2.2.4.2.6.2,1-.1,4.1-.7,5-.5.7-1.4,1.1-2.2,1.2,0,1.1,0,2.2-.2,3.3,0,1-.3,1.5-1.1,2.1,0,.1,0,.3,0,.4.1,1.6.2,3.2.2,4.8l.5,10.3c0,1.4.2,2.8.2,4.2,0,.8.1,1.5,0,2.3,0,.5,0,.9-.4,1.3-.4.4-.9.6-1.5.7-.5,0-1-.2-1.4-.5-.3-.3-.4-.6-.5-1-.1-.9-.1-1.9-.2-2.8l-.3-6-.5-8.7c0-1.3-.2-2.7-.2-4-2.9.3-5.8.7-8.8.9-.3,1.1-.5,2.4-.8,3.5-.4,1.8-.8,3.7-1.2,5.5-.1.7-.2,1.3-.3,2-.1.5-.4.6-.8.9,1.8,2.2,4.8,2.1,5.7,5.3.3.9.5,1.8,0,2.7-.6,1-1.9,1.6-3,1.9-3.7,1-6.5-.4-9.6-2.2l-.7.2c-1-.4-3.2-1.5-3.6-2.5-.4-1,0-2.3.3-3.3.2-1,.2-1.7.6-2.7-.3-.2-.4-.4-.6-.7,0-1.3.3-2.6.5-3.9l.9-5.6c-.7,0-1.4.1-2,.2l-3.4.3-.6,6.3c-.1,1.5-.2,3-.5,4.5-.1.6-.4.8-.9,1.1.7,1.1,1.6,2,2.6,2.9.8.7,1.7,1.3,2.3,2.2.4.6.6,1.2.8,1.9,0,.3.2.7.2,1,0,.7,0,1.3-.5,1.8-.9,1.1-2.9,1.6-4.3,1.7-3.8.3-6.3-.9-9.1-3.3-.2,0-.3,0-.5,0-.8-.2-1.9-1.1-2.3-1.8-.2-.3-.3-.6-.3-1-.1-1.3.6-4.3.9-5.7-.2-.1-.4-.3-.6-.5-.1-.2-.2-.3-.2-.5-.1-1.2,0-2.5,0-3.6,0-1,.1-1.9.1-2.9,0-1,0-1.9.1-2.9h-1.1c-.2,2.3-.3,4.7-.4,7l-.6,10.4c0,1.3-.1,2.5-.2,3.8,0,.6-.2,1.2-.7,1.5-.4.3-1,.4-1.5.3,0,0-.1,0-.2,0,0,0-.1,0-.2,0,0,0-.1,0-.2,0,0,0-.1,0-.2,0,0,0-.1,0-.2-.1,0,0,0,0-.1-.1,0,0,0,0-.1-.1,0,0,0,0-.1-.1-.2-.3-.3-.7-.3-1.1,0-1,.1-2,.2-3l.4-6.7c.2-3,.3-6.1.5-9.1,0-1.1,0-2.3.2-3.3-.9-.5-1.7-1.1-2.5-1.7-2.6-1.8-5.1-3.9-7.8-5.7,0,.2,0,.5,0,.7-.4,4.5-.9,9-1.4,13.4l-.4,3.7c0,.8-.1,1.6-.3,2.4,0,.4-.2.8-.6,1.1-.4.3-.9.4-1.4.3-.5,0-1-.3-1.3-.7-.3-.4-.4-.8-.4-1.3,0-1,.2-2.1.3-3.1.2-1.5.3-3,.4-4.5l1-10.3c.1-1.4.3-2.8.4-4.2-.2-.2-.4-.4-.6-.5-.3-.3-.5-.7-.6-1.1-.3-1.1-.1-3.2-.1-4.4-.5-.3-1-.6-1.4-1-.7-.6-1-1.2-1.1-2.1,0-.7,0-2.6,0-3.2,0-.3.2-.6.4-.8.6-.7,1.6-.6,2.4-.7,0-.8,0-1.7,0-2.5-1-.3-2-.8-2.7-1.6-.4-.4-.6-.8-.7-1.3-.4-1.6-.2-3.5-.2-5.2,0-1.4,0-2.8,0-4.2,0-1.2.3-2.5,1.3-3.3,1.4-1.3,3.8-1,5.6-.9,1.5-2.9,4.9-4.6,7.8-5.8,1-.4,2.1-.8,3-1.4.4-1.2,1-1.9,2-2.7-.1-.4-.2-.8-.3-1.2,0-.4-.1-.8-.2-1.2,0-.4,0-.8-.1-1.2,0-.4,0-.8,0-1.2-.4,0-.8-.1-1.2-.3-1.2-.5-2-1.5-2.5-2.7-.8-1.9-1.1-4.5-.3-6.5.5-1.2,1.2-1.8,2.3-2.3,0-1,.1-2,.2-3,.1-1.8,0-3.6.9-5.3.6-1.3,1.6-2.2,2.9-2.7,1.8-2.8,4.7-4.4,7.8-5.4,1-.3,2.1-.5,3.1-.9.7-.3,1.2-.8,1.9-1.1.3.2.5.4.8.6.3-.3.5-.7,1-.9ZM41.2,68.6c.3.6,1.4,4.7,1.5,4.7.2,0,.3,0,.5,0,0,0,0,0,0,.1,0,0,0,0,0,.1s0,0,0,.1c0,0,0,0,0,0,0,.1-.2.2-.3.2-.7.2-2.6-1.2-3.1-1.6-.4-.3-.7-.6-1.1-.9-.6.5-.9.8-1.7.9-.2.4-.3.9-.8,1.1-.5.2-1,.1-1.5,0-.7.4-1.4.7-2.2.5-.8-.2-1.4-.8-2.1-1.1-.6-.2-1.2-.2-1.8-.4.5.6,4.9,3.8,5.7,4.1.2.1.4.1.7.1,1,0,2-.2,3-.3,1.4-.2,2.7-.3,4.1-.4,3.8-.4,7.6-.8,11.4-1.3,2.3-.3,4.6-.5,6.9-.8-.9-.6-1.9-1.1-2.8-1.6-1-.6-2-1.3-3.1-1.9-.8.7-1.8,1.6-2.9,1.6-.5,0-.8-.2-1.2-.5-.4.3-.9.5-1.4.5-.5,0-.9-.3-1.3-.5-.5.1-1.1.3-1.6,0-.4-.2-.6-.6-.7-1-.6,0-1.1,0-1.6-.4-.5-.5-.5-1.1-.6-1.8-.3,0-.5,0-.8,0h-1ZM48.8,59.8c-.3.9-.4,2-.8,2.9.3-.2.7-.4,1-.6.4-.2.7-.5,1.1-.8,0,0,0,0,0,0-.4-.5-.8-1-1.2-1.5ZM54.5,24.4c-.3,0-.6-.1-.9-.2-.1,1.6-.1,3.3-.2,4.9.1-.2.3-.5.4-.7.6-1.2.8-2.6.7-4Z" fill="#414042"/>
  <path d="M22.3,40.7h0c0,.9.2,1.7.4,2.5.6,2.4,2,4.9,3.3,7,.3.5.8,1.4,1.3,1.7.3.2,3.7-1.9,4.3-2.2.5-.3,1.1-.5,1.7-.7.9.5,2.7,2,3.3,2.8-.6,1-1,2-1.1,3.1,0,.6-.3,2.7,0,3.2.2,0,.2,0,.4,0,.1,0,.1-.2.2-.3,0-.3,0-.6,0-.9,0-1.1,0-2.3.4-3.3,0-.3.2-.5.3-.8s.3-.5.4-.7c.4-.5,3.8-4.1,4.2-4.2.6-.3,1.3-.3,1.8-.4.7-.1,1.2-.4,1.8-.7,0,1.3-.4,2.5-.8,3.7-.8-.6-1.9-1.6-2.9-1.6-.8,0-.5,1.1-.9,1.6-.7.8-1.9,1.2-2.8,2-.2.2-.5.4-.5.8h0c.2,0,.3,0,.5,0,.5-.3.9-.6,1.3-.9.6-.4,1.2-.6,1.7-1.1.2-.2.7-1.2,1-1.3.6,0,1.7.9,2.2,1.2.2.1.4.3.7.3.9-.8,1.2-3.8,1.3-5,.4-.4.9-.7,1.3-1,.8-.7,1.4-1.5,2.1-2.3.7.6,1.5,1.1,2.2,1.7,2.2,2,3.9,4.5,5.6,7,.8,1.3,1.7,2.5,2.3,3.9-1.4-.5-3.2-.2-4.6.4-1.9.7-4,1.8-4.9,3.8-.3-.5-.7-.9-1-1.4,0-1.1.5-2.2.7-3.3.1-.8.5-4.3.2-4.9h-.1s0,0,0,0c0,0-.1,0-.2,0h-.1c-.3.5-.2,1.8-.3,2.4-.4,3.5-1.4,7.1-2.4,10.5h0s0,0,0,0c-.2.1-.4.3-.6.3-.9.2-1.8.3-2.7.4-1.8.3-3.6.6-5.4.7-.6-.8-1.2-1.6-1.7-2.5-.7-1.1-1.4-2.2-2.1-3.2-.7-1.2-1.5-2.3-2.3-3.4-.5-.8-.9-1.6-1.5-2.3-.2-.2-.4-.4-.7-.4-.4-.1-.9,0-1.3.2-.7.4-1.1,1-1.3,1.7,0,.2.1.5.2.7.6,1.3,1.5,2.4,2.2,3.6.9,1.3,1.7,2.7,2.7,4-1.4,0-2.7,1-4,1.4-1.7-.6-3.4-1.4-5.1-2.1-.7-.3-1.4-.5-2-.9.4-2.5.8-5,.7-7.5,0-1.6-.3-3.1-.9-4.6,0-.3-.2-.7-.5-.8-.1,0-.2,0-.3,0-.3.3,0,.9.1,1.3.4,1,.6,2.1.8,3.2.2,2.2-.2,5.6-.7,7.7-.1-.2-.3-.3-.5-.5-1.7-1.4-4.2-1.7-6.3-1.4-1.5.2-3.4.8-4.4,2,.3-3.1.8-6.1,1.6-9.2,1.5-5.5,3.2-6.9,8.3-9.2,1-.4,2-.8,3-1.3Z" fill="#505257"/>
  <path d="M37.4,53.6c.4,0,.7,0,1,.2.1.1.3.3.3.5.2.3.2.8,0,1.2-.2.4-.4.5-.8.7-.3,0-.6,0-.9-.1-.3-.1-.5-.3-.6-.6-.1-.3,0-.8,0-1.1.2-.3.4-.6.7-.8Z" fill="#414042"/>
  <path d="M37.6,54.3c0,0,.1,0,.2,0,.2,0,.3,0,.4.2.1.2.1.3,0,.5,0,.3-.3.4-.5.6,0,0,0,0,0,0-.2,0-.3,0-.4-.2-.1-.1-.1-.3,0-.5,0-.3.2-.5.5-.6Z" fill="#505257"/>
  <path d="M24.7,32.6c0-.4,0-.7,0-1.1,0-.6-1.1-.4-1.5-.5-.3,0-.6-.2-.9-.4-1.1-.9-1.7-2.6-1.9-4-.2-1.5-.2-3.2.8-4.4.4-.5.9-.9,1.5-.9.5,0,1.2.1,1.6.5.6.5.9,1.3,1.4,2,.1.2.3.4.4.6,0,0,0,.2,0,.3,0,.3,0,.6,0,.9.1.2.3.4.5.5.2,0,.3,0,.4,0,.2-.1.3-.4.4-.6.2-.7.2-1.4.3-2.1,1,.1,2.1.4,3.2.7-.2,1.4-.2,3.6.7,4.8.8,1.1,2.6,1.4,3.8,1.6,1.5.2,4.6.5,5.8-.5,1.1-.9,1.5-2.5,1.7-3.8,0-.4,0-.8,0-1.2.6,0,1.3,0,1.9,0,0,.9,0,1.8.3,2.7.4,1.4,2,4.4.8,5.8-.3.4-.9.5-1.4.5-.5,0-1.2,0-1.7-.2-.4,0-.8-.3-1.2-.3-.2,0-.2,0-.3.2,0,.1,0,.2,0,.3,1.4.7,3,1.1,4.4.5.2,0,.5-.2.7-.4.6-.6.8-1.2.9-2,0-.3,0-.5,0-.8,0-.3,0-.5-.2-.8,1.9.3,3.7.2,5.6,0-.1,2.4-.4,4.7-1.2,6.9-.8,2.3-2.1,4.7-3.8,6.4-1.5,1.5-3.2,3-5.4,3-1.2,0-2.4.1-3.6,0-3.2-.4-5.9-2.2-8.2-4.4-1.5-1.4-4-4-4.9-5.9-.5-1.2-.7-2.7-.7-4Z" fill="#cf763b"/>
  <path d="M27.7,23.2c1,.1,2.1.4,3.2.7-.2,1.4-.2,3.6.7,4.8.8,1.1,2.6,1.4,3.8,1.6,1.5.2,4.6.5,5.8-.5,1.1-.9,1.5-2.5,1.7-3.8,0-.4,0-.8,0-1.2.6,0,1.3,0,1.9,0,0,.9,0,1.8.3,2.7.4,1.4,2,4.4.8,5.8-.3.4-.9.5-1.4.5-.5,0-1.2,0-1.7-.2-.4,0-.8-.3-1.2-.3-.2,0-.2,0-.3.2,0,.1,0,.2,0,.3-.5.1-1.2,0-1.6-.1-1.6-.3-4.1-.9-5.6,0-1.2.7-1.4,2.1-1.7,3.3,0,0-.2,0-.3,0-.2,0-.3,0-.5-.2,0-.1,0-.3,0-.4-.1-.2-.5-.3-.7-.3-.1-.3-.2-.7-.3-1-.2-.1-.5-.3-.7-.5-.1-.2,0-.5-.3-.7h-.1c0,0-.1.2-.2.2-.3.2-.1.2-.3.4-.3-.4,0-1.2-.2-1.6-.2-.2-.4-.2-.7-.2,0-.3,0-.6,0-.9-.2-1-.5-1.9-.6-2.9,0-1.1.3-2.3,0-3.4,0,0,0,0,0,0,.2-.7.2-1.4.3-2.1Z" fill="#e8a976"/>
  <path d="M24.7,32.6c0-.4,0-.7,0-1.1,0-.6-1.1-.4-1.5-.5-.3,0-.6-.2-.9-.4-1.1-.9-1.7-2.6-1.9-4-.2-1.5-.2-3.2.8-4.4.4-.5.9-.9,1.5-.9.5,0,1.2.1,1.6.5.6.5.9,1.3,1.4,2,.1.2.3.4.4.6,0,0,0,.2,0,.3-.1,1.1-.5,2-.6,3.1-.2,1-.2,2.1-.2,3.1,0,.4,0,.9-.1,1.3,0,.1-.1.2-.2.3,0,0,0,0,0,.1Z" fill="#e8a976"/>
  <path d="M22.1,23.1c.6,0,1.2.4,1.6.9.2.3.4.6.5,1,.2,1.2-.7,1.1-.9,1.8,0,.4.3.9.2,1.4,0,.2-.1.3-.3.4,0,0,0,0,0,0-.4-.3-.7-.9-.8-1.3,0-.9.5-1.3,1-1.9-.4-1.4-1.2-1.1-1.5-1.8,0-.2,0-.2.1-.4Z" fill="#414042"/>
  <path d="M46.9,30.6c1.9.3,3.7.2,5.6,0-.1,2.4-.4,4.7-1.2,6.9,0-.2-.1-.2-.3-.3-.4,0-.6.5-1,.7,0,0,0,0,0,0h0c0-1,0-2.2-.6-2.9-.9-1-2-.6-3.1-.7,0,0,0,0,0,0,.6-.6.8-1.2.9-2,0-.3,0-.5,0-.8,0-.3,0-.5-.2-.8Z" fill="#e8a976"/>
  <path d="M34.7,36s0,0,0,0h0c0-.3.1-.5.3-.6.1-.1.3-.2.5-.2.3,0,.4.3.6.5,2.1-.1,5,1.4,7.4,1.4,1.6,0,2.9-.8,4.4-1,.2,0,.6,0,.8,0,.3.2.4.8.4,1.2,0,1.5-.9,3.2-1.9,4.2-1.8,1.8-4.1,2-6.5,2-1.2,0-2.4-.3-3.5-.6-.1-.2-.3-.4-.4-.7-.4.2-.7.5-1.1.7,0-.3,0-.6-.2-.8,0,.2-.1.5-.2.7h0s0-.2,0-.2c0,0,0,.1,0,.2,0,.1,0,.2-.2.3,0,0-.1,0-.2,0-.2-.2-.2-.6-.1-.8,0-.3.1-.5.4-.7.1,0,0,0,.2,0h0c-.1-.1-.2-.2-.3-.2h0c0,0,0,0,0,0-.1-.2-.9-2.7-1-3-.1-.4-.2-.9-.2-1.3,0-.4,0-.9.2-1.2.3-.1.7.1,1,.3Z" fill="#e8a976"/>
  <path d="M34.7,36s0,0,0,0h0c0-.3.1-.5.3-.6.1-.1.3-.2.5-.2.3,0,.4.3.6.5,0,0,0,0,0,0,1.6,1.5,5.2,2.2,7.3,2.1.5,0,.9,0,1.4-.2.5-.2,2-1,2.4-.8,0,.1,0,.2,0,.3-.3.6-1.7,1-2.3,1.2-2.3.6-5.8,0-7.8-1.2-.6-.4-1.2-.9-1.9-1.1h-.5Z" fill="#414042"/>
  <path d="M35.1,42.8c0,.1,0,.2-.2.3,0,0-.1,0-.2,0-.2-.2-.2-.6-.1-.8,0-.3.1-.5.4-.7,0,.4,0,.8.1,1.2Z" fill="#976135"/>
  <path d="M34.8,41.3c.2,0,.4,0,.6.2.1.2.2.4.2.6,0,.2-.1.5-.2.7h0s0-.2,0-.2c0,0,0,.1,0,.2,0-.4-.1-.8-.1-1.2.1,0,0,0,.2,0h0c-.1-.1-.2-.2-.3-.2h0Z" fill="#b47442"/>
  <path d="M39.2,40.7c-.2,0-.3-.1-.4-.3,0-.1,0-.2,0-.4.2-.1.3-.1.5,0,1.4.3,2.7.5,4.1.3.3,0,.8-.2,1,0,0,.2,0,.4-.1.5,0,0,0,0,0,0-.2.5-.5,1-.9,1.4,0,0,0,0,0,0,0,0,0,0-.1,0,0,0,0,0-.1,0,0,0,0,0-.1,0,0,0,0,0-.1,0,0,0,0,0-.1,0,0,0,0,0-.1,0,0,0,0,0-.1,0,0,0,0,0-.1,0,0,0,0,0-.1,0,0,0,0,0-.1,0,0,0,0,0-.1,0,0,0,0,0-.1,0,0,0,0,0-.1,0,0,0,0,0-.1,0,0,0,0,0-.1,0-.8,0-1.4-.4-1.8-1-.2-.3-.6-.7-.5-1.1,0,0,.1-.1.2-.2Z" fill="#cf763b"/>
  <path d="M39.2,40.7c-.2,0-.3-.1-.4-.3,0-.1,0-.2,0-.4.2-.1.3-.1.5,0,1.4.3,2.7.5,4.1.3.3,0,.8-.2,1,0,0,.2,0,.4-.1.5,0,0,0,0,0,0-1.5.5-3.5.2-5-.2Z" fill="#414042" opacity=".8"/>
  <path d="M27,35.7c0,0,.1.2.2.2,0,0,0,0,0,0,0,0,0,0,.1,0h0c0-.1,0,0,0,0,.3.8-.2,2-.2,2.8h0c0,0,0,.1,0,.1-.2-.2-.3-.4-.4-.6,0-.9,0-1.6.3-2.5Z" fill="#976135"/>
  <path d="M28.8,40.7c0-.1-.2-.2-.1-.4,0-.1,0-.3.1-.4,0-.4,0-.7.3-1.1,0,0,.1,0,.2,0,.2.1.3.4.3.6,0,.3,0,1.6-.2,1.8h0c-.2-.1-.3-.3-.5-.5Z" fill="#976135"/>
  <path d="M28.8,40.7c0-.4,0-.8.2-1.2h.1c.1,0,.2.1.2.3.1.5,0,1,0,1.4-.2-.2-.3-.4-.5-.5Z" fill="#7f5428"/>
  <path d="M27.4,31.1c0,0,0,0,0,.2,0,.3,0,2.8-.1,3.2,0,.1,0,.2-.2.4h0c-.2,0-.2,0-.3-.2-.2-.8.3-2.8.6-3.6Z" fill="#976135"/>
  <path d="M29.3,34.9c0,.9-.2,1.9-.3,2.8-.2,0-.3,0-.4,0,0,0,0-.2-.1-.3,0-.3-.1-1.2.2-1.4.2-.1.2,0,.4-.3,0-.2,0-.2,0-.4.1-.1.2-.2.3-.4,0,0,0,0,0,0Z" fill="#976135"/>
  <path d="M32.1,39.4c.4.4.5,1.4.5,2,0,.3,0,.6-.1.8,0-.1-.1-.2-.1-.4,0,0,0-.1,0-.1,0-.2-.2,0-.4-.2-.2-.6-.1-1.5,0-2.1Z" fill="#976135"/>
  <path d="M25.9,34.2c.1.1.2.2.3.4.1.6,0,1.9-.3,2.4-.1,0-.2-.2-.3-.3-.2-.6,0-1.9.3-2.4Z" fill="#976135"/>
  <path d="M30.7,37.4c.2.3.1,1.9.1,2.2h-.3c0,0-.1-.1-.1-.2,0-.6,0-1.5.4-1.9Z" fill="#976135"/>
  <path d="M41.4,45.1s0,0,0,0c.1,0,.2.1.2.3,0,.3,0,1.2-.2,1.4-.2,0-.2,0-.4-.1,0-.2-.1-.4-.1-.7,0-.4.1-.7.4-1Z" fill="#976135"/>
  <path d="M39.2,44.6c.1,0,.1,0,.2.1,0,.2.1.5.1.7,0,.4,0,.6-.4.8,0,0-.1,0-.2,0-.1-.2-.1-.5-.1-.8,0-.4,0-.6.3-.8Z" fill="#976135"/>
  <path d="M26.1,30.3c.1,0,.2,0,.3,0,0,0,.1.1.1.2.1.4,0,1.1-.2,1.5-.1,0-.1,0-.2,0-.2-.4-.1-1.3,0-1.7Z" fill="#976135"/>
  <path d="M30.5,41c0,0,.1,0,.2,0,.2.4.3.9.4,1.4,0,.2,0,.3,0,.4-.3-.4-.6-.8-.7-1.2,0-.3,0-.4.2-.6Z" fill="#976135"/>
  <path d="M43.4,44.8c.1,0,.2,0,.3.2,0,.2,0,.5-.2.7-.1.2-.2.3-.5.3h0c0-.2-.2-.3-.2-.5,0-.3.3-.5.6-.7Z" fill="#976135"/>
  <path d="M46.9,42.4c.2,0,.2,0,.3.2,0,.5-.3,1-.6,1.3-.1,0-.2,0-.3,0,0-.4.4-1.2.6-1.6Z" fill="#976135"/>
  <path d="M33.5,43.5c.1,0,.2,0,.4,0,0,.5.2,1.1,0,1.6-.2,0-.3-.2-.4-.4-.2-.3-.1-.9,0-1.3Z" fill="#976135"/>
  <path d="M37.4,43.8c0,0,.2,0,.3,0,.1,0,.2.1.2.3,0,.3,0,.7-.2,1,0,0-.1,0-.2,0h-.1c-.1-.5,0-.9,0-1.3Z" fill="#976135"/>
  <path d="M45.3,43.5s0,0,0,0c0,0,.1,0,.1.2,0,.4-.3.9-.5,1.2h-.2c0-.1,0,0-.1-.2,0-.4.3-.9.6-1.2Z" fill="#976135"/>
  <path d="M33.5,41c0,0,.2,0,.2.1,0,.1,0,.3.1.4,0,.3,0,.5-.2.8-.2,0-.2,0-.3-.2,0-.4,0-.7.1-1.1Z" fill="#976135"/>
  <path d="M28.1,33.8c0,0,0,0,.1.1.3.3,0,.9,0,1.3,0,0-.1,0-.2,0h0c0-.6,0-1,0-1.4Z" fill="#976135"/>
  <path d="M48.3,41.4h.2c0,.1,0,.1.1.3,0,.2,0,.6-.1.8-.2,0-.3-.1-.4-.3,0-.2.1-.5.2-.7Z" fill="#976135"/>
  <path d="M35.9,44.3c0,0,0,0,.2,0,0,.1,0,.2,0,.4,0,.3,0,.5-.3.7,0,0,0,0,0,0-.1-.1-.3-.3-.3-.5,0-.3.2-.4.4-.6Z" fill="#976135"/>
  <path d="M27.5,38.7c.2,0,.3,0,.5.3.1.2.1.5,0,.7-.2,0-.4,0-.5-.2-.1-.2,0-.5,0-.7Z" fill="#7f5428"/>
  <path d="M49.6,38.9s0,0,0,0c.1.3,0,.8,0,1.1,0,.3-.2.4-.4.5-.1-.4.3-1.2.4-1.6Z" fill="#b47442"/>
  <path d="M26.5,29.3h0c0,0,0,0,0,0,0-.2,0-.6.2-.7h0c.1.2.2.3.3.5,0,.1,0,.2-.1.3-.1,0-.2,0-.3,0Z" fill="#976135"/>
  <path d="M26.7,28.5c.1.2.2.3.3.5,0,.1,0,.2-.1.3-.1,0-.2,0-.3,0,.2-.3.2-.4.2-.8Z" fill="#b47442"/>
  <path d="M8.8,74.2l10.2,7.1c1.4.9,3,2.4,4.5,2.9,1,.3,2.1.5,3.1.5,1.5,0,3-.2,4.5-.3l6.9-.7c7.2-.7,14.4-1.4,21.5-2.2l8-.9c1.3-.1,2.6-.3,3.9-.4,0,1,0,3.5-.4,4.3-.1.1-.2.2-.3.3-.4.3-.8.4-1.2.5-2.6.5-5.4.6-8,.9-6.4.7-12.9,1.3-19.3,1.9-3.3.3-6.7.6-10,.9-2.1.2-4.4.6-6.6.3-.9-.1-1.8-.4-2.5-.8-.9-.5-1.7-1.1-2.5-1.7l-3.6-2.6c-1.2-.9-2.4-1.8-3.6-2.6-1.1-.8-2.2-1.5-3.2-2.3-.4-.3-.9-.7-1.2-1.1-.4-.6-.4-3.2-.2-3.9Z" fill="#cf763b"/>
  <path d="M24.7,85c0,0,.1,0,.2,0,0,0,.2,0,.3.1.2.3,0,2.9,0,3.3,0,0,0,0-.1,0-.1,0-.2,0-.3-.2-.2-.4-.1-2.8,0-3.3Z" fill="#414042"/>
  <path d="M60.3,65c.7.2,2.7,1.5,3.5,2,2.9,1.8,5.9,3.5,8.7,5.4.5.3,1.7,1.1,1.9,1.6,0,.1,0,.3,0,.4-.2.4-.7.5-1.1.6-.8.1-1.5.2-2.3.3l-4.8.5-12.1,1.3-17.5,1.8c-3.1.3-6.2.7-9.2.8-.9,0-1.8,0-2.6-.2-1.6-.5-4.2-2.6-5.6-3.6-2.4-1.7-4.7-3.3-7.1-5-1.8-1.4-3.7-2.6-5.5-3.9,1.1-.4,2.5-.4,3.7-.5,2.4,3.3,8,4.2,11.8,4.6.9.1,2.6.2,3.4.5.4.2.7.6,1,.9.5.5,1.1.8,1.6,1.2,1.5,1.1,3,2.2,4.5,3.3.5.3,1.1.9,1.7.9,1,0,2.8-.3,3.8-.4l7.2-.8,10-1.1c1.6-.2,3.2-.2,4.7-.5.3,0,.8-.2,1-.5,0-.1,0-.4,0-.5,0-.2-.3-.3-.4-.4-.5-.4-1.1-.7-1.7-1-1.4-.8-2.7-1.6-4.1-2.4.7-.5,1.2-1.1,1.7-1.8.3-.5.5-1,.9-1.4.3-.3.8-.5,1.2-.8.6-.3,1-.8,1.4-1.2Z" fill="#649398"/>
  <path d="M35,10.6c3.2-.2,5.9.7,8.9,1.1,1.2.1,2.3,0,3.4,0,1.2,0,2.2.4,3.1,1.2,2,1.9,2.3,6.3,2.3,8.9-.3-.3-.6-.5-1-.7-1.2-.6-3.5-.8-4.8-.3-.3.1-.5.3-.7.6,0,.2-.1.6,0,.8.1.2.4.3.6.4.5,0,1.1,0,1.6,0,.8,0,3,.2,3.8.4.1,0,.2,0,.2.1-.2,0-.5,0-.7,0-1.5,0-4.4-.2-5.7.3-.3,0-.6.3-.8.4-.8,0-1.7,0-2.5,0,0,.1,0,0,0,.2,0,0,0,0,0,0,0,0,0,0,0-.1-.1-.2-.3-.3-.5-.4-1.6-.8-6.8-1-8.7-.8-.7,0-1.3.4-2,.4-1.1,0-2.3-.4-3.4-.6.3-.8.7-1.3,1.2-2,1.7-2.2,1.3-4.7.9-7.3,1.3-1.4,3-2.1,4.9-2.3Z" fill="#e8a976"/>
  <path d="M36.8,20c1.1,0,3.4,0,4.2.8.2.2.3.4.3.7,0,.2,0,.5-.2.7-.4.4-3.1,0-3.8-.1-.9,0-1.7,0-2.6,0-.5,0-.9.1-1.4.1-.2,0-.4,0-.5-.2-.1,0-.1-.2-.2-.3,0-.2.2-.5.3-.7.9-1,2.6-1,3.8-1Z" fill="#414042"/>
  <path d="M6.3,67.7c.4.2.8.5,1.1.8.6.4,1.2.9,1.8,1.3l9.3,6.7c1.4,1,3.9,3,5.3,3.5,1.1.4,2.3.5,3.5.4,2,0,4-.3,6-.5l5.5-.5,19.4-2,9.1-1c1.6-.2,5.7-.4,6.9-1,0,.9,0,2.1-.6,2.9-.3.3-.6.5-1,.7-1,.4-3.8.6-5.1.7-4.8.5-9.7,1.1-14.5,1.5-6.1.7-12.3,1.3-18.4,1.8-2.4.2-5,.6-7.4.7-1.2,0-2.5,0-3.7-.5-1-.4-1.9-1.1-2.8-1.7l-2.8-2c-2.3-1.6-4.5-3.2-6.8-4.8-1.3-.9-2.7-1.8-4-2.8-.3-.2-.8-.5-.9-.9,0,0,0,0,0,0-.3-1-.2-2.4-.1-3.5Z" fill="#649398"/>
  <path d="M14.1,59.3s0,0,0,0c2.1-.1,4.1,0,5.8,1.5-.9-.2-2.1-.8-3.1-.6-.2,0-.3,0-.4.2,0,.5.7.5,1.1.5,1.8.4,9.5,3.1,10.5,4.2,2.3-.2,3.4-1.9,5.9-1.4,2.1.4,4.1,1.4,5.3,3.2.4.6,1,1.6.8,2.3,0,.2-.2.4-.4.5-.2.1-.5.2-.8,0-.2,0-.7-1.2-.9-1.4-.4-.6-2.1-2.3-2.8-2.4-.2,0-.2,0-.3,0,0,.1,0,.2,0,.3.2.3.6.6.9.9,1.1,1,2.2,2.1,2.4,3.7-.3.5-.6.6-1.2.7-.3-.4-.5-.8-.8-1.2-.6-.8-1.5-1.8-2.4-2.3-.2-.1-.5-.2-.7-.2-.3.6,2.6,2.5,2.9,4,0,.2,0,.4,0,.6-.1.1-.3.2-.5.2-.2,0-.5,0-.7,0-.5-.2-1-1-1.4-1.4-.4-.4-.8-.8-1.3-1.1-.2-.2-.6-.4-.9-.4h0c0,.3,0,.5.2.7.2.3.5.4.7.6.4.4.9.8,1.3,1.2.2.2.3.4.3.7-.1.1-.2.2-.3.2-1.7.2-1.8-.9-3-1.2-.7-.2-1.5,0-2.3-.3-.6-.3-1.1-.9-1.8-1.1-.6-.2-2.3-.3-3-.4-3.6-.4-8.2-.9-11.1-3.2-1.2-.9-1.8-2.3-2-3.8,0-.8-.2-2.1.4-2.8.7-.9,2.4-1.1,3.5-1.2Z" fill="#e8a976"/>
  <path d="M40.5,2.6c.7.1,1.4.4,1.9.9.5.6.3,1.3.2,1.9,0,.3,0,.7.1,1,0,0,0,0,0,0,.1,0,.2,0,.3-.2.7-.7.6-2.6.6-3.5,1.3.9,2.3,2.3,2.5,3.9,0,.5,0,1,0,1.4,0,.1,0,.1.2.2.2,0,.2,0,.3-.1.4-.5.2-2.1.1-2.7.8.8,1.6,1.7,2.4,2.6.5.5,1,1,1.5,1.5,1.4,1.5,2,3.3,2,5.3-.1-.4-.2-.8-.4-1.2-.6-1.4-1.8-2.4-3.2-2.8-1.4-.5-3.1,0-4.6-.2-3.8-.3-8.8-2.1-12.4-.3-.6.3-1.2.7-1.7,1.1-1.2,1-1.1,1.6-.9,3,0,.6.1,1.3,0,1.9,0,.5,0,1.1-.2,1.6-.3,1-1,1.6-1.6,2.4-.3.4-.4,1-.6,1.4-1.2-.2-1.5-.5-2.5-1.1-.5-.2-1-.4-1.5-.5,0-1.2,0-5.3.4-6.5.1-.5.3-1,.6-1.5.8-1.3,1.4-1.4,2.4-2.3.3-.3.5-.7.8-1,.3-.3.6-.6.9-.9,1.4-1.3,3.8-2.5,5.6-3.1,1.1-.3,2.2-.6,3.2-1,.3-.1.6-.2.8-.4.3-.2.4-.5.7-.6.2,0,.2,0,.3.2.4.6,0,1.5-.1,2.1,0,.2,0,.2,0,.4.1,0,.2,0,.3,0,.9-.5,1.1-2.1,1.3-3Z" fill="#7f5428"/>
  <path d="M57.7,56.5c.4,0,1,0,1.3.1.7.4,1.2,2,1.4,2.7.4,1.5.4,2.9-.4,4.3,0,.1-.1.2-.2.3,0,.1-.1.2-.2.3,0,0-.2.2-.2.3,0,0-.2.2-.3.3,0,0-.2.2-.3.2,0,0-.2.2-.3.2,0,0-.2.1-.3.2-.1,0-.2.1-.3.2-.4.2-.8.4-1.1.7-.4.4-.7,1.1-1.1,1.7-.7,1-2.9,3.1-4.1,3.4-.3,0-.5.1-.7,0,0,0,0-.2-.1-.3,0-.8,1.5-2.6,2.1-3.3.1-.2.2-.2.1-.4-.1-.1-.1-.1-.3-.1-.6.3-1.8,1.8-2.2,2.4-.3.5-.6,1.2-1.1,1.6-.2.2-.5.4-.8.3-.2,0-.3-.2-.4-.3-.5-.8.7-2.4,1.2-2.9.3-.4,1.1-1,1.2-1.5,0-.1,0,0,0-.2-.1,0-.2,0-.4,0-1,.3-2,2.1-2.5,3-.2.4-.3.9-.5,1.3,0,.2-.2.2-.4.3-.2,0-.5,0-.7-.1-.7-.6.3-2.5.7-3.1.3-.6,1.3-1.5,1.3-2.1h0c-1,.2-2,1.8-2.4,2.7-.2.5-.4,1.2-.8,1.6-.1.1-.3.2-.5.1-.1,0-.2-.1-.3-.3-.3-.5-.2-1.2-.1-1.7.4-1.9,1.9-3.5,3.6-4.4.8-.4,1.6-.7,2.3-1.2.8-.6,1.4-1.3,2.1-1.9.6-.5,1.4-.8,2-1.2,0-.1,0-.2,0-.3,0-.1-.1-.2-.3-.2-1.1,0-2.3,1.1-3.1,1.8.1-.5.3-.9.6-1.3,1.4-1.7,4.1-2.7,6.2-2.9Z" fill="#e8a976"/>
  <path d="M39.3,89.3c.1,0,.2,0,.3,0,0,.6-.1,1.4-.2,2.1l-.5,4.6c0,.8-.2,1.6-.2,2.4,0,.5,0,1-.2,1.4,0,.2-.2.3-.4.4-.3.2-.7.3-1.1.4-2.4.7-5.2.5-7.6-.3-.4-.2-.8-.4-1.2-.7,0-1.1,0-2.1.1-3.2,0-2.1,0-4.2.2-6.3,1.3,0,2.6-.2,3.9-.3,2.2-.2,4.5-.4,6.7-.6Z" fill="#e8a976"/>
  <path d="M57.3,87.6c0,0,.2,0,.3,0,0,.2-.4,2-.5,2.4l-1.4,6.4c-.1.6-.1,1.4-.4,1.9,0,.2-.3.3-.4.4-.4.2-.8.3-1.2.3-.1,0-.3,0-.4,0-.1,0-.3,0-.4,0-.1,0-.3,0-.4,0-.1,0-.3,0-.4,0-.1,0-.3,0-.4,0-.1,0-.3,0-.4,0-.1,0-.3,0-.4,0-.1,0-.3,0-.4,0-.1,0-.3,0-.4,0-.1,0-.3,0-.4,0-.1,0-.3,0-.4,0-.1,0-.3,0-.4,0-.1,0-.3,0-.4-.1-.1,0-.3,0-.4-.1-.1,0-.3,0-.4-.1-.1,0-.3,0-.4-.1-.5-.2-.9-.4-1.3-.7.5-3.1.9-6.1,1.5-9.2,1.1-.2,2.3-.2,3.4-.3l7-.7Z" fill="#e8a976"/>
  <path d="M45.2,72.9c.2,0,.4.2.5.3,0,.2-.1.3-.3.5,0,0-.2,0-.3,0-.2,0-.2-.1-.2-.3,0-.2.1-.3.2-.5Z" fill="#7f5428"/>
  <path d="M38,73.9c0,0,.2,0,.3.1.1,0,.1.1.2.3,0,.2-.2.3-.3.4-.1,0-.2,0-.3,0-.1,0-.1-.2-.1-.3.1-.2.2-.2.4-.4Z" fill="#7f5428"/>
  <path d="M41.7,74.9s0,0,0,0c0,0,0,0,0,0,0,0,0,0,0,0,0,0,0,0,0,0,0,0,0,0,0,0,0,0,0,0,0,0,0,0,0,0,0,0,0,0,0,0,0,0,0,0,0,0,0,0,0,0,0,0,0,0,0,0,0,0,0,0,0,0,0,0,0,0,0,0,0,0,0,0,0,0,0,0,0,0,0,0,0,0,0,0,0,0,0,0,0,0,0,0,0,0,0,0,0,0,0,0,0,0,0,0,0,0,0,0,0,0,0,0,0,0,0,0,0,0,0,0,0,0,0,0,0,0,0,0,0,0,0,0,0,0,0,0,0,0,0,0,0,0,0,0,0,0,0,0,0,0,0,0,0,0,0,0s0,0,0,0c0,0,0,0,0,0,0,0,0,0,0,0,0,0,0,0,0,0,0,0,0,0,0,0,0,0,0,0,0,0,0,0,0,0,0,0,0,0,0,0,0,0,0,0,0,0,0,0,0,0,0,0,0,0,0,0,0,0,0,0,0,0,0,0,0,0,0,0,0,0,0,0,0,0,0,0,0,0,0,0,0,0,0,0,0,0,0,0,0,0s0,0,0,0c0,0,0,0,0,0,0,0,0,0,0,0,0,0,0,0,0,0,0,0,0,0,0,0,0,0,0,0,0,0,0,0,0,0,0,0,0,0,0,0,0,0s0,0,0,0c0,0,0,0,0,0,0,0,0,0,0,0,0,0,0,0,0,0,0,0,0,0,0,0Z" fill="#7f5428"/>
  <path d="M35.5,74.4s0,0,0,0c0,0,0,0,0,0,0,0,0,0,0,0,0,0,0,0,0,0,0,0,0,0,0,0,0,0,0,0,0,0s0,0,0,0c0,0,0,0,0,0,0,0,0,0,0,0,0,0,0,0,0,0,0,0,0,0,0,0,0,0,0,0,0,0,0,0,0,0,0,0,0,0,0,0,0,0,0,0,0,0,0,0s0,0,0,0c0,0,0,0,0,0,0,0,0,0,0,0,0,0,0,0,0,0,0,0,0,0,0,0,0,0,0,0,0,0s0,0,0,0c0,0,0,0,0,0,0,0,0,0,0,0,0,0,0,0,0,0,0,0,0,0,0,0,0,0,0,0,0,0,0,0,0,0,0,0,0,0,0,0,0,0,0,0,0,0,0,0,0,0,0,0,0,0,0,0,0,0,0,0,0,0,0,0,0,0,0,0,0,0,0,0,0,0,0,0,0,0,0,0,0,0,0,0,0,0,0,0,0,0,0,0,0,0,0,0,0,0,0,0,0,0,0,0,0,0,0,0,0,0,0,0,0,0,0,0,0,0,0,0,0,0,0,0,0,0,0,0,0,0,0,0,0,0,0,0,0,0,0,0,0,0,0,0,0,0,0,0,0,0,0,0,0,0,0,0,0,0,0,0,0,0,0,0,0,0,0,0,0,0,0,0,0,0s0,0,0,0c0,0,0,0,0,0,0,0,0,0,0,0,0,0,0,0,0,0,0,0,0,0,0,0,0,0,0,0,0,0,0,0,0,0,0,0,0,0,0,0,0,0,0,0,0,0,0,0,0,0,0,0,0,0,0,0,0,0,0,0,0,0,0,0,0,0s0,0,0,0Z" fill="#7f5428"/>
  <path d="M49.6,74s0,0,0,0c0,0,0,0,0,0,0,0,0,0,0,0,0,0,0,0,0,0,0,0,0,0,0,0,0,0,0,0,0,0,0,0,0,0,0,0,0,0,0,0,0,0,0,0,0,0,0,0,0,0,0,0,0,0,0,0,0,0,0,0,0,0,0,0,0,0,0,0,0,0,0,0,0,0,0,0,0,0,0,0,0,0,0,0,0,0,0,0,0,0,0,0,0,0,0,0,0,0,0,0,0,0,0,0,0,0,0,0s0,0,0,0c0,0,0,0,0,0s0,0,0,0c0,0,0,0,0,0,0,0,0,0,0,0,0,0,0,0,0,0,0,0,0,0,0,0,0,0,0,0,0,0,0,0,0,0,0,0,0,0,0,0,0,0,0,0,0,0,0,0,0,0,0,0,0,0,0,0,0,0,0,0,0,0,0,0,0,0s0,0,0,0c0,0,0,0,0,0,0,0,0,0,0,0,0,0,0,0,0,0,0,0,0,0,0,0,0,0,0,0,0,0,0,0,0,0,0,0,0,0,0,0,0,0,0,0,0,0,0,0,0,0,0,0,0,0s0,0,0,0c0,0,0,0,0,0,0,0,0,0,0,0,0,0,0,0,0,0s0,0,0,0,0,0,0,0c0,0,0,0,0,0,0,0,0,0,0,0,0,0,0,0,0,0s0,0,0,0c0,0,0,0,0,0,0,0,0,0,0,0,0,0,0,0,0,0Z" fill="#604628"/>
  <path d="M52.5,73.4s0,0,0,0c0,0,0,0,0,0,0,0,0,0,0,0,0,0,0,0,0,0,0,0,0,0,0,0s0,0,0,0c0,0,0,0,0,0s0,0,0,0c0,0,0,0,0,0,0,0,0,0,0,0,0,0,0,0,0,0,0,0,0,0,0,0,0,0,0,0,0,0,0,0,0,0,0,0,0,0,0,0,0,0s0,0,0,0c0,0,0,0,0,0,0,0,0,0,0,0,0,0,0,0,0,0,0,0,0,0,0,0,0,0,0,0,0,0,0,0,0,0,0,0,0,0,0,0,0,0,0,0,0,0,0,0,0,0,0,0,0,0,0,0,0,0,0,0,0,0,0,0,0,0s0,0,0,0c0,0,0,0,0,0,0,0,0,0,0,0,0,0,0,0,0,0,0,0,0,0,0,0,0,0,0,0,0,0,0,0,0,0,0,0,0,0,0,0,0,0,0,0,0,0,0,0,0,0,0,0,0,0,0,0,0,0,0,0,0,0,0,0,0,0,0,0,0,0,0,0,0,0,0,0,0,0,0,0,0,0,0,0,0,0,0,0,0,0,0,0,0,0,0,0,0,0,0,0,0,0,0,0,0,0,0,0,0,0,0,0,0,0,0,0,0,0,0,0,0,0,0,0,0,0,0,0,0,0,0,0,0,0,0,0,0,0,0,0,0,0,0,0,0,0,0,0,0,0,0,0,0,0,0,0,0,0,0,0,0,0,0,0,0,0,0,0Z" fill="#7f5428"/>
  <path d="M36.8,75.6c0,0,.2,0,.3,0,.1,0,.2,0,.2.2,0,.2-.1.3-.3.5,0,0-.2,0-.3-.1-.1-.1-.2-.1-.2-.3,0-.2.1-.2.3-.3Z" fill="#7f5428"/>
  <path d="M47,74.1c.2,0,.4,0,.6.3,0,.2,0,.3-.2.4-.1,0-.2,0-.3,0-.1,0-.2-.1-.2-.3,0-.2,0-.3.2-.4Z" fill="#7f5428"/>
  <path d="M39.8,73.7c.1,0,.3,0,.5,0,.1,0,.1,0,.2.2,0,.2-.2.3-.3.4,0,0-.2,0-.2,0-.1,0-.2-.1-.3-.2,0-.2,0-.2.1-.4Z" fill="#604628"/>
  <path d="M44.3,74.6s0,0,0,0c0,0,0,0,0,0,0,0,0,0,0,0,0,0,0,0,0,0,0,0,0,0,0,0,0,0,0,0,0,0,0,0,0,0,0,0,0,0,0,0,0,0,0,0,0,0,0,0,0,0,0,0,0,0,0,0,0,0,0,0,0,0,0,0,0,0,0,0,0,0,0,0,0,0,0,0,0,0,0,0,0,0,0,0,0,0,0,0,0,0,0,0,0,0,0,0,0,0,0,0,0,0,0,0,0,0,0,0,0,0,0,0,0,0,0,0,0,0,0,0,0,0,0,0,0,0,0,0,0,0,0,0,0,0,0,0,0,0,0,0,0,0,0,0,0,0,0,0,0,0,0,0,0,0,0,0,0,0,0,0,0,0,0,0,0,0,0,0,0,0,0,0,0,0,0,0,0,0,0,0,0,0,0,0,0,0,0,0,0,0,0,0,0,0,0,0,0,0,0,0,0,0,0,0,0,0,0,0,0,0,0,0,0,0,0,0,0,0,0,0,0,0,0,0,0,0,0,0,0,0,0,0,0,0,0,0,0,0,0,0,0,0,0,0,0,0,0,0,0,0,0,0,0,0,0,0,0,0,0,0,0,0,0,0,0,0,0,0,0,0,0,0,0,0,0,0,0,0,0,0,0,0,0,0,0,0,0,0,0,0,0,0,0,0,0,0,0,0,0,0,0,0,0,0,0,0,0,0,0,0,0,0,0,0,0,0,0,0s0,0,0,0,0,0,0,0Z" fill="#7f5428"/>
  <path d="M43.2,71.4c0,0,.2,0,.3,0,.2,0,.2,0,.3.2,0,.2,0,.3-.2.4,0,0-.2,0-.2,0-.2,0-.2,0-.3-.2,0-.2,0-.3.1-.5Z" fill="#7f5428"/>
  <path d="M39.2,75.3c.2,0,.4,0,.5.2,0,.2,0,.3-.1.5-.1,0-.2,0-.3,0-.1,0-.2-.1-.3-.2,0-.2,0-.3.2-.4Z" fill="#7f5428"/>
  <path d="M47.8,72.7c0,0,0,0,.1,0,.1,0,.2.2.2.3,0,.2-.1.2-.3.3,0,0,0,0-.1,0-.1,0-.2-.2-.2-.3,0-.2.2-.2.3-.3Z" fill="#7f5428"/>
  <path d="M29,101.1c1.9.7,4.1.9,6.1.7.9-.1,1.8-.3,2.7-.4.3.4.5.8.8,1.2-.7-.1-1.3-.3-2,0-.7.2-2.9,1.3-3.1,1.9,0,0,0,.1,0,.2.1,0,.2.1.4,0,.3-.1.6-.3.8-.5,1.1-.6,2.2-1.2,3.5-1,.8.1,1.2.5,1.7,1.1-.5,0-1.1,0-1.6,0-.7.1-2.3.7-2.6,1.3,0,.1,0,.2,0,.3,0,0,0,0,.1,0,.4,0,.9-.3,1.2-.5,0,0,0,0,0,0,0,0,0,0,.1,0,0,0,0,0,.1,0,0,0,0,0,.1,0,0,0,.1,0,.2,0,0,0,.1,0,.2,0,0,0,.1,0,.2,0,0,0,.1,0,.2,0,0,0,.1,0,.2,0,0,0,.1,0,.2,0s.1,0,.2,0c0,0,.1,0,.2,0,0,0,.1,0,.2,0,0,0,.1,0,.2,0s.1,0,.2,0c0,0,.1,0,.2,0,0,0,.1,0,.2,0,1.2.2,2.3.9,3,1.8.3.4.8,1.2.7,1.8,0,.4-.4.6-.7.8-1.6,1-4.1,1.1-5.9.7-1.8-.4-6.9-3.4-7.9-4.9-.6-1-.1-2.8.2-3.9Z" fill="#7f5428"/>
  <path d="M45.8,99.2c2.6,1.3,6.1,1,8.8.3.3.4.5.8.9,1.2-.5-.2-1.1-.3-1.6-.3-1,0-1.6.5-2.3,1.1-.2.2-.5.3-.6.5-.1.1-.1.2,0,.3h.1c.8,0,1.7-.9,2.4-1.2,1-.5,2.3,0,3.3.4-1.2.2-2.3.6-3.2,1.4-.2.2-.4.4-.4.6,0,0,0,.1.1.1.5,0,1-.4,1.3-.7,0,0,.2-.1.3-.2.9-.5,1.9-.6,2.9-.3.9.3,1.9,1,2.4,1.8.2.4.3.7.1,1.1-.2.5-.6.8-1.1,1.1-1.7.9-4.2.8-6,.2-1.7-.6-6-2.7-7.3-3.9-.2-.2-.3-.4-.4-.6,0-1,.2-1.9.5-2.9Z" fill="#7f5428"/>
  <path d="M41.5,27.2c-.2.6-.6,1.4-1.1,1.8-.7.7-2.4.5-3.3.5-1.4,0-3.7-.2-4.7-1.3-.6-.7-.6-2.6-.5-3.5,0-.4.1-.8.4-1,1-.8,5.6-.2,6.9,0h0c.8,0,1.7,0,2.4.4.5.7.4,1.5.2,2.2,0,.3-.1.6-.2.9h0Z" fill="#e8a976"/>
  <path d="M39.2,23.6h0c.8,0,1.7,0,2.4.4.5.7.4,1.5.2,2.2,0,.3-.1.6-.2.9h0c0-.7.5-2.2,0-2.9-.4-.5-1.8-.6-2.4-.7Z" fill="#7f5428"/>
  <path d="M36.5,25.7c.1,0,.3,0,.4,0,.7,0,1.5.2,1.9.7.2.2.3.5.2.7,0,.2,0,.2-.2.3-.5,0-.9-.5-1.5-.6h0c-.4,0-.9,0-1.3,0-.4,0-.9.5-1.3.4-.2,0-.2,0-.3-.2,0-.2,0-.4.2-.6.4-.5,1.1-.7,1.7-.7Z" fill="#414042"/>
  <path d="M70.2,86.1h0s0,0,0,.1c.1.4,0,1.1,0,1.5l.2,4,.5,10.5c0,1.7.2,3.3.3,5,0,.3,0,.7,0,1-.1.2-.3.4-.5.5-.4.1-.8,0-1.1,0-.2-.2-.2-.4-.3-.6-.1-.8-.1-1.6-.2-2.4l-.2-4-.6-9.9c0-1.7-.2-3.4-.3-5.1.7,0,1.4-.2,2-.4Z" fill="#649398"/>
  <path d="M23.8,89.9l2,.4c0,1.1-.1,2.2-.2,3.2l-.6,12.3-.2,3.9c0,.7,0,1.4-.2,2.1,0,.2-.1.4-.3.6-.3.2-.5.2-.8.3-.3,0-.6-.2-.8-.4-.1-.1-.2-.3-.2-.5,0-.8,0-1.7.1-2.5.1-2,.2-3.9.3-5.9.2-3.3.4-6.6.6-9.9,0-1.2.1-2.4.2-3.5Z" fill="#649398"/>
  <path d="M10.1,80.3c.6.4,1.2.8,1.8,1.3-.3,4.3-.9,8.6-1.3,13l-.5,4.6c0,.9-.2,1.9-.3,2.9,0,.2-.1.4-.3.6-.3.1-.5.2-.8.2-.3,0-.6-.2-.8-.4-.2-.3-.1-.6,0-.9,0-1.5.3-3.1.5-4.6.3-2.6.6-5.2.8-7.8l.5-5.5c.1-1.1.1-2.2.4-3.2Z" fill="#649398"/>
  <path d="M24.6,37.7c.2,0,.5,1.4.5,1.7,1,3.8,4.1,6.8,7.1,9.1-.9.3-1.6.8-2.4,1.2l-2.2,1.2c0,0-.1-.2-.2-.2-1.4-1.7-3.4-5.9-3.9-8-.2-.9-.3-1.8-.2-2.7,0-1,.6-1.6,1.3-2.3Z" fill="#505257"/>
  <path d="M48,24c1.6-.1,3.2,0,4.7.2-.1,1.8-.2,3.6-.2,5.3-.6.1-1.3.2-2,.3-.8,0-3.1.1-3.7-.4-.7-.5-1-2.1-1-2.9,0-.6-.1-1.7.3-2.1.4-.4,1.4-.4,1.9-.4Z" fill="#e8a976"/>
  <path d="M48.4,26.1c0,0,.1,0,.2,0,.7,0,1.4,0,1.9.6.2.2.4.4.3.7,0,.2,0,.2-.2.3-.4,0-.9-.3-1.3-.4h0c-.3,0-.6,0-.9,0-.4,0-.8.6-1.3.5-.1,0-.2,0-.2-.2,0-.3,0-.6.2-.8.3-.5.8-.6,1.3-.7Z" fill="#414042"/>
  <path d="M26.1,39.2c.2.1,1.8,2,2.1,2.4,3.5,3.5,7,6.2,12.1,6.3-.6.6-1.2,1.1-1.7,1.7-.5.5-1,1.1-1.4,1.6-.9-.9-1.9-1.8-2.9-2.5-.9-.6-1.8-1.1-2.7-1.8-2.5-1.9-4.7-4.6-5.6-7.7Z" fill="#e8a976"/>
  <path d="M8.6,47.7c.9,0,1.8,0,2.7,0,0,.2-.2.4-.3.6-1.1,0-2.3.4-3.1,1.2-.4.4-.6.9-.8,1.4-.3,1.2-.1,2.5-.1,3.7v5.7c0,.5,0,.9,0,1.4-.2-.1-.3-.2-.5-.4-.7-.5-.8-1.1-.9-1.9-.1-1.3,0-2.6,0-3.9,0-1.6-.2-3.8.2-5.3.1-.6.3-1.1.7-1.5.6-.7,1.3-.9,2.1-1Z" fill="#649398"/>
  <path d="M10.6,49.1s0,0,0,0c0,0,0,0,0,0,0,0-.3,1.1-.3,1.3-.9,2.9-1.4,5.8-1.7,8.8,0,.5-.3,1.5,0,1.9,0,.1.1.1.3.2.2,0,.4,0,.5.3.1.2,0,.5,0,.8-.2.1-.3,0-.5,0-.3,0-.6-.1-.9-.3,0-.1,0-.2-.1-.3-.2-1.3-.1-3.4-.1-4.8,0-1.7-.1-4.1.1-5.7,0-.4.2-.7.4-1.1.6-.8,1.5-1.1,2.4-1.2Z" fill="#649398"/>
  <path d="M44.9,103c.6.3,1.2.9,1.8,1.4,1.7,1.1,5.1,2.8,7,3.2,1.7.4,3.9.4,5.5-.5.4-.2.7-.5,1-.7,0,0,0,0,.1,0,0,.2,0,.4-.2.6-.2.3-.4.5-.7.6-2.5,1.7-5.9,1-8.5-.1-.7-.3-1.7-.9-2.4-1.1-.3,0-.5,0-.8-.1-.9-.2-2.6-1.2-3.1-2,0-.4,0-.8,0-1.2Z" fill="#7f5428"/>
  <path d="M28.1,105.3c.1,0,0,0,.1.1.3.4.5.7.8,1,.5.6,1.3,1,1.9,1.5,2.2,1.5,4.3,2.9,7,3,1.5.1,3.4,0,4.7-.8.3-.2.6-.5.9-.7h0c0,.3,0,.5,0,.7,0,.2-.2.3-.3.4-1.2,1.1-3.7,1.4-5.2,1.3-2,0-3.9-.9-5.5-2-.6-.4-1.1-.8-1.7-1.2-.7-.5-1.6-.8-2.2-1.5-.5-.6-.6-1.2-.6-2Z" fill="#7f5428"/>
  <path d="M44.7,64.5c0,0,.1,0,.2,0-.1.4-.6.7-.8,1.1-.4.7-.7,1.4-1,2.2h-1.3c0-.2-.1-.4-.2-.6-.2-.8-.6-1.6-1.2-2.1l4.2-.5Z" fill="#649398"/>
  <path d="M31.8,56.7h0c.5.3,4.2,6.1,4.6,7h0s-.1,0-.1,0c-.3-.1-.7-.3-1-.5-.6-.6-1.3-1.8-1.8-2.6-.7-1.1-1.5-2.2-2.2-3.3.2-.2.4-.3.5-.5Z" fill="#eba512"/>
  <path d="M30.9,57.4c.4.5.8,1.1,1.1,1.6.9,1.3,1.7,2.6,2.5,3.9-.1,0-.3,0-.5,0h-.5c-.6-.8-1.1-1.6-1.6-2.3l-1.7-2.6c.2-.2.4-.4.6-.5Z" fill="#eba512"/>
  <path d="M29.3,53.4c.3,0,.5,0,.7,0,.5.3.6.9.7,1.4-.4.3-.9.5-1.3.8-.2.1-.3.3-.5.4-.2-.3-.5-.6-.6-1-.1-.3-.2-.6,0-1,.2-.4.6-.6,1-.8Z" fill="#cf763b"/>
  <path d="M40.8,69.9c.4.6.8,2.2.9,2.9-.3-.2-.6-.4-.8-.6-.6-.4-1.1-.8-1.7-1.2.6-.3,1.1-.7,1.6-1.2Z" fill="#e8a976"/>
  <path d="M31.2,55.5c.1,0,.3,0,.3.2.1.1,0,.2,0,.3-.3.5-1.2,1.1-1.7,1.3h0c-.2,0-.3-.3-.4-.4.5-.5,1.1-1.1,1.8-1.4Z" fill="#976135"/>
  <path d="M9.2,63.5s0,0,0,0c.1,0,.5,1.8.6,2.1h-.7c0-.7,0-1.4,0-2.2Z" fill="#649398"/>
  <path d="M26.5,23c0,0,.1,0,.2,0,.1,0,.2.1.3.2,0,.2,0,.3,0,.5,0,0-.2,0-.3,0-.2,0-.2-.1-.3-.2,0-.2,0-.3,0-.5Z" fill="#7f5428"/>
</svg>