<?xml version="1.0" encoding="UTF-8"?>
<svg id="Layer_1" xmlns="http://www.w3.org/2000/svg" width="80" height="115" version="1.1" viewBox="0 0 80 115">
  <!-- Generator: Adobe Illustrator 29.4.0, SVG Export Plug-In . SVG Version: 2.1.0 Build 152)  -->
  <defs>
    <style>
      .st0 {
        fill: #eeb552;
      }

      .st1 {
        fill: #dcddde;
      }

      .st2 {
        fill: #fff;
      }

      .st3 {
        fill: #654b30;
      }

      .st4 {
        fill: #d5bc2a;
      }

      .st5 {
        fill: #7f5330;
      }

      .st6 {
        fill: #b6593b;
      }

      .st7 {
        fill: #e5aa82;
      }

      .st8 {
        fill: #8e403c;
      }

      .st9 {
        fill: #7ab2c3;
      }
    </style>
  </defs>
  <polygon class="st2" points="60.237 73.889 33.864 76.834 24.146 68.612 49.921 65.581 60.237 73.889"/>
  <path class="st3" d="M35.901,1.582c4.339-.223,10.531.762,14.107,3.307,1.091.774,1.642,1.489,2.556,2.357.387.364.856.633,1.266.962,1.325,1.067,2.369,2.486,2.65,4.198.387,2.369-.645,5.007-2.005,6.884-.035,2.076-.563,4.057-.751,6.11-.129,1.384-.07,2.779-.094,4.163-.059,3.33-.751,6.52-2.381,9.452.844.305,1.677.657,2.392,1.184,2.439,1.794,4.057,5.054,5.512,7.657.727,1.313,1.466,2.615,2.123,3.964.41.833.739,1.7,1.161,2.521.152.305.457.539.668.809.516.657.727,1.583.844,2.392.152,1.044-.188,1.9-.469,2.885-.281.985-.504,1.923-1.126,2.756,2.568,1.372,5.019,3.002,7.482,4.562,1.958,1.243,3.964,2.427,5.887,3.741.633.434,1.079.739,1.22,1.56.141.833.082,2.85-.106,3.67-.082.328-.199.645-.41.926-.598.786-1.7.973-2.615,1.114,0,.973.047,1.958-.035,2.932-.082,1.126-.41,1.865-1.266,2.615,0,.657.059,1.302.094,1.947l.223,4.292.598,11.211.176,3.483c.047.786.129,1.595.07,2.381-.035.469-.129.844-.446,1.208-.035.047-.082.082-.117.129s-.082.082-.129.117c-.047.035-.094.07-.141.106-.047.035-.094.059-.152.082-.047.023-.106.047-.152.07-.059.023-.106.035-.164.059-.059.012-.117.023-.164.035-.059,0-.117.012-.176.023-.457.035-.95-.117-1.29-.422-.305-.281-.457-.657-.528-1.067-.164-.95-.129-2.005-.176-2.979l-.328-5.476-.598-10.495c-.07-1.266-.176-2.521-.235-3.788-.926.199-1.876.281-2.814.387l-3.6.434c-.786.082-1.595.141-2.381.258-.27.962-.352,2.205-.504,3.213-.328,2.087-.668,4.163-1.032,6.239-.141.809-.176,1.759-.446,2.521-.106.305-.387.575-.598.821,1.266,1.372,3.084,1.865,4.491,3.002.95.762,1.7,2.005,1.818,3.213.07.774-.152,1.489-.645,2.087-1.114,1.313-3.237,1.689-4.855,1.806-3.26.246-6.274-.657-8.772-2.791-.117.035-.246.059-.375.07-.868.106-2.744-1.055-3.436-1.583-.563-.422-.903-.903-.985-1.618-.07-.539,0-1.091.047-1.63.106-1.349.246-2.334,1.114-3.401-.047-.059-.082-.117-.117-.176-.164-.27-.281-.563-.27-.879,0-.516.117-1.055.176-1.571l.434-3.119c.223-1.583.364-3.307.692-4.867-1.806.328-3.741.387-5.57.563-.223,2.498-.469,4.996-.739,7.493-.129,1.337-.188,2.709-.41,4.034-.082.516-.27.774-.704,1.079,1.466,1.7,3.553,2.58,4.796,4.491.528.938.938,1.982.973,3.061.023.727-.281,1.419-.786,1.935-1.431,1.466-4.21,1.9-6.145,1.9-3.354-.012-5.981-1.454-8.291-3.776-.833-.07-1.395-.551-1.958-1.126-.34-.352-.61-.774-.739-1.243-.34-1.208.059-3.412.375-4.655.07-.281.34-.821.305-1.091-.035-.352-.481-.704-.539-1.102-.094-.727.047-2.697.082-3.53.07-2.064.117-4.151.152-6.215-.762.106-1.524.129-2.298.152-.188,2.674-.352,5.359-.493,8.044l-.493,7.4-.293,4.515c-.047.774-.035,1.583-.176,2.345-.082.457-.258.915-.622,1.22-.352.305-.856.41-1.313.364-.059,0-.117-.012-.176-.023-.059-.012-.117-.023-.164-.047-.059-.012-.106-.035-.164-.059s-.106-.047-.152-.07c-.047-.023-.106-.059-.152-.094s-.094-.07-.141-.106c-.047-.035-.082-.082-.129-.117-.035-.047-.082-.082-.117-.129-.211-.27-.364-.61-.387-.962-.07-1.208.07-2.463.129-3.682.117-2.31.235-4.609.375-6.919l.469-8.314c.07-1.313.094-2.627.223-3.94-1.008-.528-1.935-1.302-2.85-1.982-2.427-1.806-4.761-3.788-7.247-5.523v.094c-.094,1.759-.293,3.518-.469,5.277l-.833,8.49c-.129,1.325-.258,2.65-.387,3.987-.082,1.044-.106,2.146-.328,3.166-.094.457-.27.821-.633,1.137-.352.305-.762.422-1.231.387-.059,0-.117-.012-.176-.023-.059,0-.117-.023-.164-.035-.059-.012-.106-.035-.164-.059s-.106-.047-.152-.07c-.047-.023-.106-.059-.152-.082s-.094-.07-.141-.106c-.047-.035-.082-.07-.129-.117-.035-.035-.082-.082-.117-.129-.305-.364-.387-.751-.399-1.22-.023-.962.117-1.947.211-2.896.117-1.266.223-2.533.317-3.788l1.478-16.664c-.305-.211-.633-.41-.891-.657-.305-.293-.539-.645-.668-1.055-.281-.962-.07-3.319-.106-4.456-.879-.751-2.205-1.325-2.873-2.287-.047-.059-.082-.129-.117-.199-.035-.07-.07-.141-.106-.211-.035-.07-.059-.141-.082-.223-.023-.07-.047-.152-.059-.223-.141-.68-.129-2.967.012-3.659.293-1.442,1.982-1.255,3.131-1.337.199-.012.469-.012.633-.129-.762-1.677-1.255-2.275-1.243-4.21-.434-.164-.833-.375-1.173-.692-.622-.575-.774-1.243-.809-2.04-.082-1.548-.012-3.119-.012-4.667,0-1.911-.117-4.644.258-6.473.094-.457.293-.973.622-1.313,1.126-1.173,3.624-.985,5.136-.973,1.876-3.612,4.397-4.632,7.915-6.18,1.372-.598,2.721-1.255,4.139-1.736.094-.352.141-.704.258-1.044.34-.938,1.067-1.442,1.595-2.24.012-.023.023-.035.035-.059-.176-.809-.34-1.56-.328-2.392-.235.023-.481.023-.715.012-1.079-.059-1.958-.551-2.674-1.349-1.454-1.63-1.853-3.835-1.712-5.957.117-1.653.809-2.556,2.017-3.612-.059-.434-.106-.868-.117-1.302-.188-3.706.352-8.044,2.967-10.894,1.372-1.489,3.237-2.521,5.289-2.615,2.416-2.181,4.315-2.861,7.517-3.201l.082.082ZM41.283,67.028c-.106.281-.328.657-.328.95,0,.774.528,1.9.739,2.685.246.938.481,1.888.715,2.838-1.571-.762-3.119-1.876-4.233-3.213-.223.364-.586.926-1.032,1.008-.211.035-.469-.023-.657.059-1.067.457-.809,1.184-2.463.985-.973.575-1.7.692-2.791.41-.938-.246-1.841-.61-2.791-.833l.082.059c1.22.797,2.803,2.322,3.975,3.307.446.375.891.809,1.395,1.079.129.07.258.094.399.094,1.888.023,3.799-.457,5.687-.551,6.532-.797,13.11-1.325,19.63-2.24-1.02-.493-1.958-1.137-2.92-1.736-.797-.493-1.63-.962-2.369-1.536-.797.41-1.782,1.067-2.709.751-.176-.059-.305-.176-.446-.305-.481.293-1.032.575-1.607.41-.352-.094-.598-.481-.903-.551-.293-.07-1.618.879-2.404-.622-.07-.141-.117-.317-.152-.469-.516-.082-1.044-.223-1.384-.668-.446-.598-.281-1.372-.176-2.04l.023-.152c-.211,0-.422.012-.633.035-.891.07-1.794.117-2.685.246h.035ZM50.289,57.858c-.199.715-.95,2.967-.774,3.588.059.047.082.094.164.082.152-.023.293-.141.422-.223.504-.328,1.126-.668,1.255-1.302.082-.422-.047-.879-.293-1.231-.223-.317-.481-.657-.774-.903v-.012Z"/>
  <path class="st7" d="M31.972,11.796c.352.293.715.539,1.126.739,1.36.657,2.803.645,4.21.152.199.129.399.258.61.375,1.923,1.149,4.151.926,6.239.399.504.246.997.457,1.548.563,2.123.399,4.198-.68,5.887-1.853,1.22,2.205,1.9,3.799,1.97,6.379.07,2.298-.504,4.585-.715,6.872-.235,2.427.059,4.867-.645,7.235-.328,1.091-.879,1.865-1.653,2.697-.07-.833-.258-1.63-.833-2.275-.856-.973-2.064-1.091-3.272-1.184.317-.387.575-.774.727-1.255.493-1.642-.493-2.943-1.196-4.315-.141-.293-.27-.598-.364-.915-.152-.516-.164-1.419-.575-1.794-.129-.012-.223,0-.328.094-.281.246-.246.668-.199.997.164,1.161.68,2.076,1.243,3.072.164.293.364.598.493.915.152.375.235.821.199,1.231,0,.035,0,.082-.012.117,0,.035,0,.082-.023.117,0,.035-.012.082-.023.117,0,.035-.023.07-.035.117,0,.035-.023.07-.035.117-.012.035-.023.07-.035.106s-.035.07-.047.106c-.012.035-.035.07-.047.106-.023.035-.035.07-.059.106s-.035.07-.059.094c-.023.035-.047.07-.07.094-.023.035-.047.059-.07.094-.023.035-.047.059-.082.094l-.082.082-.082.082c-.023.023-.059.047-.094.07-1.079.891-3.201.833-4.409.199-.41-.211-.786-.903-1.243-.938-.188.059-.211.059-.328.199-.07.34.047.539.235.821-.539-.094-1.091-.152-1.63-.246-1.243-.211-2.439-.575-3.659-.094-1.407.551-2.216,1.759-2.791,3.096-.152-.07-.305-.152-.446-.235-.152-.082-.293-.164-.434-.258-.141-.094-.281-.176-.422-.281-.141-.094-.27-.199-.41-.293-.129-.106-.258-.211-.387-.317-.129-.106-.258-.223-.375-.34s-.246-.235-.352-.352c-.117-.117-.235-.246-.34-.375-3.119-3.659-.809-8.232-.469-12.383,2.545-2.627,3.084-4.526,3.858-7.939l-.012-.012Z"/>
  <path class="st3" d="M37.613,18.351c1.091,0,2.322.223,3.154.985.293.258.551.633.563,1.044,0,.199-.07.387-.211.528-.129.129-.317.211-.504.199-.469-.023-1.008-.223-1.478-.34-.739-.176-1.478-.223-2.24-.199-.539.07-1.055.152-1.571.293-.457.129-.903.305-1.36.399-.199.047-.34.059-.516-.047-.047-.07-.094-.141-.106-.223-.059-.399.152-.821.399-1.114.903-1.055,2.545-1.442,3.87-1.524h0Z"/>
  <path class="st3" d="M48.53,19.512c.375-.035.774-.035,1.149,0,.915.07,1.947.528,2.545,1.243.281.34.434.797.364,1.243-.023.164-.094.258-.223.364-.399.106-.833-.188-1.184-.352-.856-.375-1.689-.481-2.615-.481-.539,0-1.067.035-1.595-.129-.094-.094-.176-.223-.199-.352-.035-.188.023-.364.129-.528.364-.586.973-.856,1.618-.997l.012-.012Z"/>
  <path class="st3" d="M36.733,24.73c.281-.023.551-.035.833-.012.563.035,1.302.211,1.677.668.176.211.281.598.211.868-.035.152-.07.176-.199.258-.551.082-1.102-.469-1.63-.61-.023,0-.047,0-.07-.012-.364-.047-.727-.07-1.091,0-.551.129-1.067.68-1.642.586-.07-.059-.117-.07-.141-.176-.047-.258.082-.575.235-.786.375-.528,1.196-.692,1.794-.786h.023Z"/>
  <path class="st3" d="M48.8,25.493c.598-.012,1.149.094,1.607.516.235.223.305.528.305.844,0,.152-.035.211-.141.317-.446.094-1.055-.446-1.524-.539h-.059c-.422,0-.856.012-1.22.235-.141.082-.293.211-.434.27-.082.035-.152.059-.235.012-.141-.082-.27-.305-.305-.457-.035-.141.012-.27.094-.387.364-.551,1.313-.739,1.911-.809h0Z"/>
  <path class="st8" d="M21.735,36.973l.035.035c.293,2.216.95,4.351,1.548,6.497.34,1.22.61,2.486,1.091,3.647.129.305.281.704.61.833,1.102-.012,4.62-1.888,5.816-2.486.293.422.551.856.891,1.243,1.29,1.489,3.342,1.595,5.054,2.357-.164,1.02-.481,2.005-.692,3.025-.27,1.313-.352,2.685-.551,4.022-.164,1.102-.457,2.205-.551,3.319-.586-.938-1.22-1.841-1.818-2.767-.516-.797-.985-1.63-1.501-2.427-.34-.516-.715-.997-1.067-1.501-.281-.41-.481-.95-.833-1.302-.176-.176-.528-.293-.751-.387-.586.152-1.266.305-1.794.61-.281.164-.516.387-.598.704-.117.493.07,1.044.293,1.478.516,1.02,1.36,1.911,2.017,2.85,1.126,1.595,2.193,3.225,3.272,4.843-.622.152-1.255.258-1.876.422-.645.176-1.278.422-1.911.622-.246.082-.575.199-.833.152-.504-.082-1.02-.364-1.501-.551-1.771-.715-3.53-1.466-5.23-2.334l-.575-.293c0-.844-.023-1.712.047-2.568.258-2.814.95-5.676.504-8.514-.399-2.533-1.513-4.562-3.588-6.063-.246-.176-.586-.446-.891-.399-.082.164-.035.293.059.446.211.34.68.668.973.95,1.102,1.044,1.724,2.099,2.228,3.518.868,2.427.586,5.101.235,7.611-.094.668-.305,1.524-.223,2.181,0,.035,0,.059.012.094l-.059.07c-.399-.504-1.231-.962-1.829-1.184-3.6-1.337-6.837-.563-10.179.985.117-1.137.152-2.275.305-3.412.281-2.111.856-4.198,1.501-6.215,2.287-7.071,6.672-7.224,12.372-10.132l-.012.023Z"/>
  <path class="st4" d="M7.206,73.326c.668.27,1.911,1.372,2.556,1.829l6.989,5.089c1.161.844,2.322,1.818,3.577,2.51.715.399,1.454.645,2.24.856.023.739-.129,3.002.047,3.518.047.117.094.164.223.211.141.047.258,0,.375-.07.258-.493.106-2.908.106-3.635,1.888.223,3.952-.094,5.84-.246,3.178-.258,6.344-.551,9.51-.879,5.547-.528,11.105-1.079,16.652-1.677,5.898-.575,11.785-1.231,17.672-1.994v1.571c0,.962.023,2.181-.727,2.896-.668.633-1.724.821-2.603.973-3.459.622-7.095.891-10.589,1.278-6.649.727-13.298,1.407-19.959,2.017-2.709.258-5.429.516-8.138.809-2.263.235-4.597.528-6.884.457-.751-.023-1.595-.141-2.275-.504-.786-.422-1.548-1.091-2.263-1.63l-4.667-3.565-4.89-3.682c-.797-.598-1.9-1.266-2.545-2.005-.551-.633-.317-3.283-.27-4.151l.023.023Z"/>
  <path class="st8" d="M50.758,39.87c.34.07.668.152.985.281,1.173.457,2.181,1.313,2.99,2.263,1.091,1.278,1.923,2.896,2.767,4.339.891,1.501,1.747,3.025,2.58,4.562.469.868.962,1.736,1.36,2.638-1.829-.246-3.753-.082-5.476.598-1.677.668-3.541,1.958-4.268,3.67-.422-.528-.786-1.208-1.032-1.829.129-.938.375-1.876.551-2.803.375-1.97.622-3.928.668-5.934.012-.598.082-1.478-.235-1.994-.176.199-.246.539-.293.797-.211,1.243-.235,2.556-.375,3.811-.176,1.548-.504,3.084-.809,4.609-.516,2.31-1.102,4.655-1.771,6.93-.891.082-1.771.199-2.662.27-2.85.223-5.699.469-8.549.751-.457-.774-1.091-1.536-1.313-2.427-.27-1.02.328-3.131.481-4.292.188-1.454.235-3.835.809-5.089.833-1.794,5.652-2.064,7.118-4.632.786.246,2.298,1.595,3.002,1.478.164-.023.258-.07.364-.211.375-.493-.246-3.366-.375-4.057,1.161-1.255,2.427-2.369,3.483-3.717v-.012Z"/>
  <path class="st3" d="M37.413,57.729c.152-.012.317-.023.469,0,.246.047.481.211.61.422.129.211.164.481.094.715-.106.364-.328.528-.645.704h-.258c-.317-.035-.61-.094-.809-.375-.141-.199-.176-.446-.129-.68.082-.41.317-.598.657-.809l.012.023Z"/>
  <path class="st8" d="M37.625,58.222c.059,0,.129.012.176.035.152.07.164.141.211.293-.035.223-.129.352-.258.528-.07,0-.176-.023-.235-.07-.117-.07-.176-.176-.176-.317,0-.211.129-.328.27-.469h.012Z"/>
  <path class="st3" d="M37.976,51.362h.457c.012,0,.023,0,.035.012.012,0,.023,0,.035.012.012,0,.023,0,.035.012.012,0,.023.012.035.023.012,0,.023.012.035.023.012,0,.023.012.035.023.012,0,.023.012.035.023,0,0,.023.012.035.023,0,0,.023.023.035.023,0,0,.023.023.035.023l.035.035s.023.023.023.035c0,0,.023.023.023.035,0,0,.012.023.023.035,0,0,.012.023.023.035,0,.012.012.023.023.035,0,.012.012.023.023.035,0,.012.012.023.023.035,0,.012,0,.023.012.035,0,.012,0,.023.012.035,0,.012,0,.023.012.035v.516c0,.012,0,.023-.012.035,0,.012,0,.023-.012.035,0,.012,0,.023-.012.035,0,.012,0,.023-.012.035,0,.012-.012.023-.023.035,0,.012-.012.023-.023.035s-.012.023-.023.035c0,.012-.012.023-.023.035,0,0-.012.023-.023.035,0,0-.023.023-.023.035,0,0-.023.023-.023.035,0,0-.023.023-.035.023,0,0-.023.023-.035.023,0,0-.023.023-.035.023,0,0-.023.012-.035.023-.012,0-.023.012-.035.023-.012,0-.023.012-.035.023-.012,0-.023.012-.035.023s-.023.012-.035.012-.023,0-.035.012c-.012,0-.023,0-.035.012h-.035c-.023,0-.035,0-.059.012h-.352c-.023,0-.035,0-.059-.012-.023,0-.035,0-.059-.023-.023,0-.035-.012-.059-.023-.023,0-.035-.012-.059-.023s-.035-.023-.047-.023-.035-.023-.047-.035c-.012,0-.035-.023-.047-.035-.012-.012-.035-.023-.047-.035l-.047-.047c-.012-.012-.023-.023-.035-.047-.012-.012-.023-.035-.035-.047,0-.012-.023-.035-.035-.047,0-.012-.023-.035-.035-.047,0-.012-.023-.035-.023-.059s-.012-.035-.023-.059c0-.023-.012-.035-.023-.059,0-.023,0-.035-.012-.059v-.352c0-.023,0-.035.012-.059,0-.023,0-.035.012-.059,0-.023.012-.035.023-.059,0-.023.012-.035.023-.059,0-.023.023-.035.023-.047s.023-.035.035-.047c0-.012.023-.035.035-.047.012-.012.023-.035.035-.047.012-.012.023-.023.035-.047s.023-.023.047-.035c.012-.012.035-.023.047-.035.012-.012.035-.023.047-.035.012,0,.035-.023.047-.035.012,0,.035-.023.047-.023.023,0,.035-.012.059-.023.023,0,.035-.012.059-.023.023,0,.035,0,.059-.012.023,0,.035,0,.059-.012l-.047.035Z"/>
  <path class="st8" d="M37.976,51.889c.012,0,.023-.012.047-.023.012,0,.035,0,.047-.012h.188c.012,0,.035,0,.047.012.012,0,.023.012.047.023.012,0,.023.023.035.023s.023.023.035.035c0,.012.023.023.035.035,0,.012.023.023.023.047,0,.012.012.023.023.047,0,.012,0,.035.012.047v.141c0,.012,0,.035-.012.047,0,.012,0,.035-.023.047,0,.012-.012.023-.023.047,0,.012-.023.023-.035.035,0,.012-.023.023-.035.035-.012,0-.023.023-.035.023s-.023.012-.047.023c0,0-.023,0-.035.012h-.246s-.023,0-.035-.012c0,0-.023,0-.035-.012,0,0-.023-.012-.023-.023,0,0-.023-.012-.023-.023l-.023-.023-.023-.023s-.012-.023-.023-.023c0,0-.012-.023-.012-.035s0-.023-.012-.035v-.281s0-.023.012-.035c0,0,0-.023.012-.035,0,0,.012-.023.023-.023s.012-.023.023-.023l.023-.023.023-.023s.023-.012.023-.023l.023.035Z"/>
  <path class="st9" d="M61.91,63.968c.106.023.211.059.317.094.997.34,1.982,1.079,2.873,1.642l3.354,2.111c2.322,1.466,4.831,2.885,7.059,4.468.211.152.539.387.633.633q.023.059-.012.117c-.281.469-2.134.786-2.662.879-2.627.481-5.347.692-8.009.997-5.875.68-11.774,1.255-17.66,1.829l-14.084,1.442c-2.767.27-5.558.586-8.338.68-.809.023-1.642.012-2.427-.199-2.076-.563-5.429-3.225-7.271-4.538-1.947-1.419-3.917-2.814-5.887-4.198-.891-.645-5.429-3.717-5.641-4.198l.047-.117c.727-.293,2.791-.305,3.659-.364.176.328.387.645.633.915,2.803,3.154,12.794,3.612,16.816,3.858.997,1.102,2.275,2.04,3.412,3.002,1.454,1.243,3.483,3.201,5.066,4.128.903.035,1.853-.117,2.756-.211,1.97-.199,3.928-.434,5.887-.645l10.484-1.137c1.747-.188,3.495-.387,5.242-.61.586-.07,1.173-.094,1.759-.188.199-.035.41-.082.586-.188.176-.094.258-.211.317-.399-.152-.622-5.007-3.377-5.734-3.893.364-.317.844-.539,1.243-.797,1.173-.762,2.017-1.853,2.603-3.108,1.278-.668,1.911-1.055,2.99-2.04l-.012.035Z"/>
  <path class="st9" d="M3.911,66.653c.27.176.516.41.786.61.762.551,1.548,1.091,2.322,1.642l8.033,5.734c2.123,1.524,5.394,4.21,7.88,4.796.997.235,2.005.258,3.025.211,3.483-.152,6.966-.551,10.425-.903l14.951-1.536,14.529-1.536c2.756-.317,5.547-.575,8.267-1.067.727-.129,1.407-.281,2.04-.668,0,1.008.07,2.123-.258,3.084-.082.117-.164.223-.258.317-.563.551-2.076.645-2.838.762-3.964.622-8.009.973-12.008,1.395l-17.367,1.794-12.09,1.161c-2.322.211-4.679.493-7.013.504-1.196,0-2.193-.129-3.272-.68-1.478-.762-2.943-2.005-4.292-2.99l-6.942-5.054-3.565-2.545c-.633-.457-1.384-.903-1.935-1.466-.164-.164-.328-.364-.399-.598-.199-.657-.047-2.193-.035-2.943l.012-.023Z"/>
  <path class="st7" d="M14.089,59.101c.598-.07,1.278-.047,1.888.023.797.082,1.548.317,2.31.598,1.771.657,3.401,1.583,5.125,2.334.739.328,1.489.622,2.252.891.434.164.915.293,1.337.481.164.07.281.235.387.364,1.208-.328,2.345-.856,3.565-1.137,2.099-.481,3.776-.106,5.57,1.032,1.513.962,3.084,2.439,3.495,4.257-.106.246-.235.457-.422.657-.176.188-.434.399-.715.387-.41-.012-1.091-1.079-1.372-1.407-.598-.704-2.451-2.627-3.389-2.709-.141.082-.152.106-.223.258.012.129,0,.188.094.281.235.246.657.41.938.633.844.657,2.205,1.923,2.615,2.885.117.281.176.598.047.891-.164.375-.539.586-.903.727-1.36-1.278-2.416-2.967-4.28-3.717-.211-.012-.223-.012-.41.106-.035.129-.059.141.023.258.223.317.692.575,1.008.821.633.481,2.533,1.947,2.627,2.638.023.176-.047.328-.164.446-.152.164-.469.375-.704.364-.633-.023-3.295-2.744-4.245-2.65-.117,0-.199.023-.27.129.059.751,2.967,1.841,3.143,2.615.012.059.012.07-.023.117-.152.211-.539.375-.797.422-.856.129-4.597-1.137-5.418-1.595-.586-.328-1.137-1.02-1.794-1.184-.997-.246-2.205-.141-3.225-.235-3.225-.281-10.038-.985-12.583-2.955-.657-.504-1.055-1.114-1.161-1.947-.106-.891-.352-2.123.27-2.861,1.255-1.489,3.565-2.064,5.418-2.228l-.012.012Z"/>
  <path class="st7" d="M28.361,89.45c1.349-.199,2.767-.246,4.116-.387,2.662-.27,5.312-.575,7.974-.809-.211,1.759-.352,3.53-.516,5.289-.07.751-.117,1.524-.235,2.275-.047.516-.082,1.044-.164,1.56-.094.809-.106,1.665-.317,2.463-.012.012-.035.035-.047.047-1.419,1.255-4.069,1.407-5.875,1.349-1.384-.047-3.882-.551-4.843-1.642-.188-.211-.223-.422-.246-.692-.129-1.149,0-2.416.035-3.577.035-1.958.035-3.917.129-5.863l-.012-.012Z"/>
  <path class="st7" d="M59.026,86.366c.141-.023.07-.035.199.035,0,.633-1.653,11.07-1.9,11.574-.211.422-.715.68-1.137.833-2.451.868-6.332.739-8.666-.364-.528-.258-.903-.563-1.266-1.02.129-1.313.352-2.615.539-3.928.27-1.958.539-3.928.833-5.887,1.302-.094,2.592-.27,3.893-.41,2.51-.27,5.007-.539,7.505-.833h0Z"/>
  <path class="st7" d="M58.31,57.108c.973-.129,2.169,0,3.025.516.598.364.973.903,1.114,1.583.399,1.911-.751,4.081-2.287,5.171-.563.399-1.313.645-1.818,1.126-.305.281-.434.797-.68,1.149-.387.575-.938,1.114-1.478,1.56-.774.645-2.873,2.017-3.835,2.169-.188.035-.293.012-.457-.094-.223-.821,2.334-2.803,2.322-3.553,0-.164-.035-.188-.141-.281-1.032-.012-2.65,3.342-3.612,3.893-.199.117-.422.176-.645.106-.176-.059-.34-.188-.399-.364-.258-.727,1.184-2.533,1.642-3.096.328-.41.833-.868,1.032-1.349-.035-.188-.094-.223-.223-.352-1.384.762-2.451,2.885-3.295,4.186-.188.281-.387.551-.739.61-.199.035-.481-.023-.633-.164-.141-.117-.199-.27-.211-.446-.106-1.102,1.137-2.709,1.818-3.495.293-.34.633-.645.903-.997.129-.176.223-.317.188-.539l-.094-.07c-.106-.012-.223-.047-.317,0-.539.199-2.017,2.087-2.357,2.638-.281.446-.446.985-.762,1.407-.094.129-.27.293-.434.328-.129.035-.235.023-.34-.059-.211-.164-.293-.504-.317-.762-.106-1.055.739-2.427,1.384-3.213,1.278-1.56,2.732-2.017,4.292-3.143.797-.575,1.442-1.278,2.158-1.958,1.466-1.407,3.166-2.287,5.207-2.498l-.012-.012Z"/>
  <path class="st5" d="M43.523,73.889c.07.012.152.023.211.047.141.059.188.117.246.258-.035.199-.141.281-.281.41-.117-.023-.293-.082-.387-.152-.117-.094-.129-.129-.152-.27.106-.176.188-.199.364-.293h0Z"/>
  <path class="st5" d="M45.739,73.654c.094.023.223.035.305.07.152.082.152.129.188.281-.047.188-.152.27-.281.399-.059-.023-.117-.047-.164-.07-.176-.082-.258-.152-.328-.317.059-.188.141-.235.281-.375v.012Z"/>
  <path class="st5" d="M48.683,72.012l.246.07c.117.117.106.117.117.27-.082.199-.176.317-.328.469-.059-.035-.117-.07-.176-.106-.141-.106-.211-.176-.246-.352.082-.176.235-.246.387-.352h0Z"/>
  <path class="st3" d="M50.735,73.197s.023,0,.035-.012h.281s.023,0,.035.012c0,0,.023,0,.035.012,0,0,.023.012.023.023l.023.023.023.023s.012.023.023.023c0,0,.012.023.023.023,0,0,0,.023.012.035,0,0,0,.023.012.035s0,.023,0,.035v.211s0,.023-.012.035c0,0,0,.023-.012.035,0,0-.012.023-.023.023,0,0-.012.023-.023.023l-.023.023s-.023.012-.023.023c0,0-.023.012-.023.023-.012,0-.023.012-.047.023-.012,0-.023,0-.047.012h-.188c-.012,0-.035,0-.047-.012-.012,0-.023-.012-.047-.023s-.023-.012-.035-.023c-.012,0-.023-.023-.035-.035l-.035-.035c0-.012-.023-.023-.023-.035s-.012-.023-.023-.047c0-.012,0-.023-.012-.047v-.188c0-.012,0-.035.012-.047,0-.012.012-.023.023-.047,0-.012.012-.023.023-.035,0-.012.023-.023.035-.035l.035-.035c.012-.012.023-.012.035-.023h-.012Z"/>
  <path class="st5" d="M36.217,74.756c.082.012.164.023.246.047.152.047.199.082.281.211-.012.188-.106.305-.223.446-.082,0-.188,0-.258-.035-.152-.059-.199-.152-.258-.281.035-.211.07-.235.211-.387h0Z"/>
  <path class="st5" d="M38.61,74.627h.246s.023,0,.035.012c0,0,.023,0,.035.012,0,0,.023.012.023.023,0,0,.023.012.023.023,0,0,.012.012.023.023,0,0,.012.012.023.023s.012.023.023.023c0,0,.012.023.012.035,0,0,0,.023.012.035v.246s0,.023-.012.035c0,0,0,.023-.012.035,0,0-.012.023-.023.023,0,0-.012.023-.023.023,0,0-.012.012-.023.023,0,0-.012.012-.023.023,0,0-.023.012-.023.023,0,0-.023.012-.035.012,0,0-.023,0-.035.012h-.246s-.023,0-.035-.012c0,0-.023,0-.035-.012,0,0-.023-.012-.023-.023,0,0-.023-.012-.023-.023,0,0-.012-.012-.023-.023,0,0-.012-.012-.023-.023,0,0-.012-.023-.023-.023,0,0,0-.023-.012-.035s0-.023-.012-.035v-.246s0-.023.012-.035c0,0,0-.023.012-.035,0,0,0-.023.023-.023,0,0,.012-.023.023-.023,0,0,.012-.012.023-.023,0,0,.012-.012.023-.023,0,0,.023-.012.023-.023,0,0,.023-.012.035-.012,0,0,.023,0,.035-.012Z"/>
  <path class="st5" d="M40.568,74.428c.106,0,.211,0,.305.012.188.023.293.059.41.199-.012.188-.07.223-.188.364-.059.012-.141.047-.211.035-.117,0-.281-.082-.34-.188-.082-.152-.023-.27.023-.422Z"/>
  <path class="st5" d="M39.043,72.939s.023,0,.035-.012.023,0,.035,0h.211s.023,0,.035.012c0,0,.023,0,.023.012,0,0,.023,0,.023.023l.023.023.023.023.023.023.023.023s0,.023.012.023c0,0,0,.023.012.035v.281s0,.023-.012.023c0,0,0,.023-.012.023,0,0-.012.023-.023.023l-.023.023-.023.023-.023.023s-.023,0-.023.012c-.012,0-.023.012-.035.023-.012,0-.023,0-.047.012h-.188c-.012,0-.023,0-.047-.012-.012,0-.023-.012-.035-.023-.012,0-.023-.012-.035-.023l-.035-.035s-.023-.023-.023-.035-.012-.023-.023-.035c0-.012-.012-.023-.012-.047s0-.023-.012-.047v-.188c0-.012,0-.023.012-.047,0-.012.012-.023.023-.035,0-.012.012-.023.023-.035l.035-.035s.023-.023.035-.023.023-.012.035-.023l-.012-.012Z"/>
  <path class="st5" d="M34.752,73.466h.211s.023,0,.023.012c0,0,.023,0,.023.012,0,0,.012,0,.023.012,0,0,.012.012.023.023,0,0,.012.012.023.023,0,0,.012.012.023.023,0,0,.012.012.023.023,0,0,0,.012.012.023,0,0,0,.023.012.023v.27s0,.023-.012.023c0,0,0,.023-.012.023,0,0,0,.012-.012.023,0,0-.012.012-.023.023,0,0-.012.012-.023.023,0,0-.012.012-.023.023,0,0-.012.012-.023.023,0,0-.023,0-.023.012,0,0-.023,0-.023.012-.012,0-.023,0-.047.012h-.188c-.012,0-.023,0-.047-.012-.012,0-.023-.012-.035-.023-.012,0-.023-.023-.035-.023l-.035-.035s-.023-.023-.023-.035-.012-.023-.023-.035c0-.012-.012-.023-.012-.047v-.188c0-.012,0-.035.012-.047s.012-.023.023-.047c0-.012.012-.023.023-.035,0-.012.023-.023.035-.035l.035-.035c.012,0,.023-.012.035-.023.012,0,.023-.012.047-.023.012,0,.023,0,.047-.012l-.035.012Z"/>
  <path class="st5" d="M42.714,69.385c.246.035.446.059.61.258-.012.164-.035.188-.129.317-.094,0-.188.023-.281.023-.152-.012-.223-.07-.328-.188,0-.199.035-.246.129-.41h0Z"/>
  <path class="st5" d="M42.644,70.992c.012,0,.023,0,.035-.012h.188c.012,0,.023,0,.035.012.012,0,.023.012.035.023.012,0,.023.012.035.023l.035.035s.023.023.023.035c0,0,.012.023.023.035,0,.012.012.023.023.035,0,.012,0,.023.012.047v.188c0,.012,0,.023-.012.035,0,.012-.012.023-.023.035,0,.012-.012.023-.023.035l-.035.035s-.023.023-.035.023-.023.012-.035.023c-.012,0-.023,0-.035.012h-.235s-.023,0-.023-.012c0,0-.023,0-.023-.012,0,0-.012,0-.023-.012l-.023-.023-.023-.023-.023-.023s0-.012-.012-.023c0,0,0-.023-.012-.023,0,0,0-.023-.012-.023v-.258s0-.023.012-.023c0,0,0-.012.012-.023l.023-.023.023-.023.023-.023.023-.023s.012,0,.023-.012c0,0,.023,0,.023-.012v-.023Z"/>
  <path class="st5" d="M44.074,72.364h.082c.199.012.328.07.457.211,0,.211-.035.246-.152.41h-.047c-.188-.012-.328-.106-.446-.246-.035-.211,0-.211.106-.387v.012Z"/>
  <path class="st5" d="M46.361,72.223c.164.059.293.094.41.235,0,.199-.047.258-.141.422h-.223c-.152-.035-.176-.047-.258-.164,0-.211.106-.328.223-.481l-.012-.012Z"/>
  <path class="st5" d="M28.677,100.848c.434.152.833.399,1.29.551,3.037,1.02,5.629.797,8.654-.094,1.384,1.431,3.964,3.072,4.878,4.585.317.528.622,1.29.457,1.911-.117.446-.375.598-.751.821-.305.176-.598.317-.926.434-2.674.938-5.863.856-8.42-.387-1.384-.668-2.486-1.747-3.706-2.662-.516-.387-1.091-.715-1.536-1.173-.199-.199-.375-.422-.469-.692-.293-.938.094-2.451.528-3.295h0Z"/>
  <path class="st5" d="M46.49,98.913c3.424,1.607,6.672,1.642,10.249.598.457.457.985,1.008,1.524,1.349,1.466.938,3.19,1.384,4.175,2.955.223.352.375.751.27,1.173-.117.434-.715.715-1.067.938-.528.223-1.114.399-1.665.539-2.439.598-5.289.551-7.575-.563-.751-.364-1.407-.903-2.158-1.278-1.091-.551-2.263-.915-3.307-1.56-.575-.352-1.149-.844-1.29-1.536-.176-.856.364-1.935.844-2.627v.012Z"/>
  <path class="st1" d="M22.216,89.356c.774.223,1.548.317,2.345.399-.223,1.876-.258,3.799-.375,5.687l-.715,11.457c-.07,1.032-.152,4.503-.469,5.312q-.047.059-.106.129c-.199.223-.481.399-.786.399-.364,0-.575-.176-.833-.41-.106-.305-.152-.575-.164-.891-.023-.715.059-1.442.094-2.158.059-1.431.141-2.85.235-4.268l.469-8.666c.129-2.322.317-4.655.328-6.977l-.023-.012Z"/>
  <path class="st1" d="M71.632,84.642c.047.035.012,0,.082.106.141,1.642.188,3.307.281,4.949l.469,8.443.305,5.746c.059,1.114.176,2.263.152,3.377,0,.328-.059.575-.246.856-.164.246-.422.434-.727.481-.27.035-.434-.094-.645-.235-.152-.176-.258-.305-.293-.528-.152-.962-.152-2.005-.211-2.979l-.34-5.84-.528-8.678c-.106-1.736-.258-3.495-.281-5.23.68-.059,1.337-.246,1.994-.434l-.012-.035Z"/>
  <path class="st1" d="M8.742,79.564c.704.457,1.36,1.008,2.029,1.513-.27,3.952-.762,7.915-1.137,11.867l-.586,6.051c-.106,1.114-.176,2.24-.352,3.342-.035.235-.094.399-.211.598-.246.188-.457.317-.774.305-.27,0-.516-.106-.692-.305-.152-.176-.235-.41-.246-.645-.035-.797.106-1.642.176-2.439l.328-3.694.973-10.847c.164-1.911.375-3.823.481-5.746h.012Z"/>
  <path class="st8" d="M23.646,34.194c.176.211.528,1.302.68,1.653.352.739.739,1.442,1.184,2.134.317.481.645.938,1.008,1.384s.739.868,1.149,1.266c.586.586,1.266,1.137,1.736,1.806.493.692.844,1.595,1.091,2.392-.739.152-1.571.668-2.275.973-.985.41-1.829,1.008-2.85,1.313-.504-1.055-.774-2.228-1.102-3.354-.633-2.169-1.384-4.409-1.618-6.661-.141-1.349.176-1.888.997-2.908Z"/>
  <path class="st7" d="M21.583,19.981h.305c.692.035,1.349.328,1.818.856.868.985.903,2.275.797,3.506-.082,1.032-.293,3.401-.598,4.28-.094.281-.235.528-.469.704-.387.317-.821.317-1.302.27-.27-.07-.516-.164-.762-.328-1.161-.739-1.865-2.134-2.146-3.448-.328-1.513-.27-3.248.598-4.585.422-.657.973-1.102,1.747-1.266l.012.012Z"/>
  <path class="st3" d="M21.125,21.775c.328-.012.598.023.891.176.539.281.985.774,1.149,1.372.235.797-.117,1.126-.446,1.782-.235.457.023.704.152,1.126.07.223-.023.375-.129.563-.141.035-.27.047-.41,0-.211-.082-.352-.199-.434-.41-.293-.739.07-1.489.34-2.169.61-1.571-.95-1.278-1.266-1.982,0-.176.059-.293.141-.446l.012-.012Z"/>
  <path class="st9" d="M9.176,44.912h.141c.023.246-.692,1.876-.833,2.275-.668,2.005-1.184,4.128-1.431,6.239-.141,1.196-.188,2.404-.281,3.612l-.258.352c-.481.633-.657,1.208-.809,1.994-.223-.094-.41-.211-.622-.352-.446-.446-.563-.938-.598-1.56-.106-1.665-.012-3.377,0-5.042,0-1.607-.141-4.057.164-5.582.082-.434.281-.856.575-1.173.833-.891,2.803-.692,3.952-.739v-.023Z"/>
  <path class="st7" d="M35.08,34.593c.457.27.856.657,1.325.938,1.22.739,2.873,1.137,4.28,1.325,2.31.305,4.796-.023,6.672-1.478.023.094.059.188.07.281.012.07.035.129.047.199.012.07.023.141.035.199,0,.07.012.141.023.211,0,.07,0,.141.012.211v.422c0,.07,0,.141-.023.211s-.012.141-.023.211c0,.07-.023.141-.035.199-.012.07-.035.129-.047.199-.023.07-.035.129-.059.199s-.047.129-.07.199c-.023.07-.047.129-.082.188-.023.059-.059.129-.082.188-.035.059-.059.117-.094.188s-.07.117-.106.176c-.493.786-1.173,1.349-2.087,1.56-.317,0-.657-.035-.938-.199-.668-.387.41-1.208.305-1.7-.34-.223-1.196.141-1.607.188-.375.047-.774.023-1.149,0-.493-.035-.997-.117-1.466-.281-.387-.129-1.008-.493-1.395-.504-.152,0-.199.059-.305.152-.094.469.375.657.493,1.055.047.152.047.293-.035.434-.152.281-.751.586-1.067.668s-.762-.176-1.008-.34c-.786-.516-1.56-1.419-1.747-2.357-.235-1.126-.152-1.865.199-2.955l-.035.012Z"/>
  <path class="st8" d="M13.339,55.935c.692-.023,1.407-.012,2.099.07,1.22.141,2.158.563,3.143,1.255.223.164.504.328.668.551.293.41.141.985.07,1.442-.645-.281-1.372-.528-2.052-.727-2.334-.657-5.312-.223-7.411.962-.481.258-.95.516-1.384.856-.997.797-1.255,1.7-1.395,2.92-.223-.751-.575-1.419-.657-2.205-.082-.891-.094-2.298.528-3.002.704-.797,3.495-1.677,4.526-1.9.61-.129,1.22-.188,1.841-.223h.023Z"/>
  <path class="st9" d="M47.498,62.678h.129c-.141.293-1.032.915-1.325,1.266-.493.586-.844,1.266-1.22,1.935-1.266.223-2.627.246-3.905.352-.258-.739-.575-1.313-1.22-1.782-.751-.422-1.29-.364-2.181-.962,1.137,0,2.275-.152,3.401-.246l6.321-.563Z"/>
  <path class="st0" d="M29.932,56.838c-.012,0-.023-.023-.047-.035-.152-.117-.246-.199-.258-.399-.023-.246.094-.504.246-.692.082-.094.164-.129.281-.176.352-.164.516-.539.962-.493.164.082.258.211.364.352.387.516,3.201,4.714,3.295,5.031.023.082.023.106,0,.176.328.61.751,1.161,1.102,1.759-.704-.106-.997-.188-1.431-.786-.106-.141-.211-.364-.34-.481-.41-.164-.563-.903-.938-1.184h.012l-.059.129c.258.375.938,1.126.962,1.583,0,.059,0,.023-.047.117-.258.059-.563-.023-.821-.059-.399-.422-.692-.962-1.02-1.442l-1.571-2.369c-.199-.305-.446-.821-.715-1.055l.023.023Z"/>
  <path class="st0" d="M30.249,55.583c.047.176.106.352.199.516.751,1.349,1.689,2.638,2.545,3.928.328.493.692,1.208,1.102,1.618,0,.059,0,.023-.047.117-.258.059-.563-.023-.821-.059-.399-.422-.692-.962-1.02-1.442l-1.571-2.369c-.199-.305-.446-.821-.715-1.055-.117-.246-.246-.434-.152-.715.059-.176.317-.375.446-.504l.035-.035h0Z"/>
  <path class="st5" d="M29.932,56.838c-.012,0-.023-.023-.047-.035-.152-.117-.246-.199-.258-.399-.023-.246.094-.504.246-.692.082-.094.164-.129.281-.176.352-.164.516-.539.962-.493.164.082.258.211.364.352.387.516,3.201,4.714,3.295,5.031.023.082.023.106,0,.176l-.035-.059c-.903-1.231-1.689-2.592-2.533-3.87-.293-.434-.586-.997-.95-1.372-.07-.07-.129-.094-.211-.106-.246.023-.422.129-.633.246,1.29,1.829,2.545,3.741,3.694,5.652-.41-.164-.563-.903-.938-1.184h.012l-.059.129c.258.375.938,1.126.962,1.583-.41-.41-.774-1.126-1.102-1.618-.856-1.29-1.794-2.58-2.545-3.928-.094-.164-.152-.328-.199-.516l-.035.035c-.129.129-.387.34-.446.504-.094.281.035.469.152.715l.023.023Z"/>
  <path class="st7" d="M58.897,54.692c1.243-.07,2.193.129,3.354.528.41.879.528,1.7.457,2.662-.399-.563-.879-.962-1.513-1.231-1.689-.704-3.928-.352-5.57.34-1.313.575-2.275,1.395-3.389,2.275.199-.61.469-1.114.868-1.618,1.419-1.771,3.577-2.697,5.793-2.943v-.012Z"/>
  <path class="st7" d="M31.046,43.352c.61.328,1.161.774,1.771,1.126,2.111,1.22,4.304,1.759,6.708,2.017l-.938,1.184c-.27.352-.528.68-.844.985-1.841-.938-5.582-3.553-6.684-5.312h-.012Z"/>
  <path class="st8" d="M43.464,45.885h.07c.047.141,0,.223-.035.352-.434,1.032-3.811,2.322-4.878,2.756l-.07-.023c.106-.469,1.642-1.97,2.064-2.439.926-.293,1.911-.352,2.85-.633v-.012Z"/>
  <path class="st6" d="M28.712,51.925c.117,0,.235,0,.352.012.469.281.762,1.02,1.032,1.489-.598.399-1.173.891-1.513,1.524h0c0,.012-.07,0-.07,0-.34-.399-.692-.95-.95-1.407-.141-.258-.293-.586-.176-.891.188-.457.915-.61,1.325-.751v.023Z"/>
  <path class="st8" d="M46.478,44.232h.07c.317.598.352,1.935.422,2.638-.375-.246-.751-.504-1.161-.68-.434-.246-.903-.41-1.325-.68.668-.41,1.325-.856,1.994-1.278h0Z"/>
  <path class="st7" d="M40.169,68.905l.364.598c-.094.094-.176.199-.27.293-.281.27-.586.328-.962.317-.152-.094-.27-.117-.364-.281.141-.27.539-.364.786-.528.152-.106.305-.258.446-.399h0Z"/>
  <path class="st7" d="M30.225,54.141c.152,0,.188,0,.317.094-.059.34-.926.962-1.196,1.266-.059.07-.012.047-.129.059-.094-.117-.117-.164-.094-.328.07-.504.715-.868,1.114-1.102l-.012.012Z"/>
  <path class="st7" d="M39.079,64.976c.281.012.481.059.704.235.434.34.622.926.68,1.454-.387-.223-1.008-1.29-1.384-1.689Z"/>
</svg>