<?xml version="1.0" encoding="UTF-8"?>
<svg id="Layer_1" xmlns="http://www.w3.org/2000/svg" version="1.1" viewBox="0 0 80 115">
  <!-- Generator: Adobe Illustrator 29.4.0, SVG Export Plug-In . SVG Version: 2.1.0 Build 152)  -->
  <defs>
    <style>
      .st0 {
        fill: none;
      }

      .st1 {
        fill: #eeb552;
      }

      .st2 {
        fill: #111;
      }

      .st3 {
        fill: #fefdfd;
      }

      .st4 {
        opacity: .5;
      }

      .st4, .st5 {
        fill: #402f1e;
      }

      .st6 {
        fill: #ff9106;
      }

      .st7 {
        fill: #dcddde;
      }

      .st8 {
        fill: #06cd0f;
      }

      .st9 {
        fill: #606060;
      }

      .st10 {
        fill: #1a373a;
      }

      .st11 {
        fill: #19130c;
        opacity: .6;
      }

      .st12 {
        fill: #fff;
      }

      .st13 {
        fill: #eb9700;
      }

      .st14 {
        fill: #d5bc2a;
      }

      .st15 {
        fill: #7f5330;
      }

      .st16 {
        fill: #654b30;
      }

      .st17 {
        fill: #ad6f00;
      }

      .st18 {
        opacity: .8;
      }

      .st19 {
        fill: #e5b797;
      }

      .st20 {
        fill: #858585;
      }

      .st21 {
        fill: #5e5e5e;
      }

      .st22 {
        fill: #abaaaa;
      }

      .st23 {
        fill: #b6593b;
      }

      .st24 {
        fill: #e5aa82;
      }

      .st25 {
        fill: #8e403c;
      }

      .st26 {
        fill: #7ab2c3;
      }
    </style>
  </defs>
  <path class="st16" d="M56.5,12.4c-.3-1.7-1.3-3.1-2.6-4.2-.4-.3-.9-.6-1.3-1-.9-.9-1.5-1.6-2.6-2.4-3.6-2.5-9.8-3.5-14.1-3.3h0s0,0,0,0c-3.2.3-5.1,1-7.5,3.2-2.1,0-3.9,1.1-5.3,2.6-2.6,2.8-3.2,7.2-3,10.9,0,.4,0,.9.1,1.3-1.2,1.1-1.9,2-2,3.6-.1,2.1.3,4.3,1.7,6,.7.8,1.6,1.3,2.7,1.3.2,0,.5,0,.7,0,0,.8.2,1.6.3,2.4,0,0,0,0,0,0l.3,4.1c.9.9,2.1,2.1,3.6,3.5,2.2,2,3.7,3,4.3,3.4,0,0,3.2,2.2,5.3,2.4.5,0,1,0,1,0,.7,0,1.3,0,1.4,0,1.2,0,3.1-.3,3.8-.5,1.9-.5,5.2-2.8,8-7,1.6-2.9,2.3-6.1,2.3-9.4,0-1.4,0-2.8,0-4.2.2-2.1.7-4,.8-6.1,1.4-1.9,2.4-4.5,2-6.9ZM47.9,30.2c-.2.4-.7,1.1-1.3,1.6,0,0,0,0,0,0-.6.5-1.3.7-1.8.8-.7.2-1.4.2-1.8.1-.2,0-1,0-2-.5-.4-.2-.8-.4-1-.5-.9-.6-1.1-1-1.1-1.3.1-1.3,4.6-1.2,5.1-3.2.3-.9-.6-1.5-.1-2.8.3-.7.9-1.5,1.3-1.4.3,0,.4.4.5.8.3,1,.7,1.9,1,2.8.8,2.3,1.6,2.6,1.3,3.3Z"/>
  <path class="st5" d="M45.6,24c-.1-.4-.2-.8-.5-.8-.4-.1-1.1.6-1.3,1.4-.5,1.3.4,1.9.1,2.8-.6,2-5,1.8-5.1,3.2,0,.3.2.7,1.1,1.3.2.2.6.4,1,.5,1,.4,1.8.5,2,.5.5,0,1.1,0,1.8-.1.4-.1,1.1-.3,1.8-.8,0,0,0,0,0,0,.6-.5,1.2-1.2,1.3-1.6.3-.8-.5-1.1-1.3-3.3-.3-1-.7-1.9-1-2.8Z"/>
  <polygon class="st12" points="60.2 73.9 33.9 76.8 24.1 68.6 49.9 65.6 60.2 73.9"/>
  <path class="st0" d="M54.3,70.4c-.8.4-1.8,1.1-2.7.8-.2,0-.3-.2-.4-.3-.5.3-1,.6-1.6.4-.4,0-.6-.5-.9-.6-.3,0-1.6.9-2.4-.6,0-.1-.1-.3-.2-.5-.5,0-1-.2-1.4-.7-.4-.6-.3-1.4-.2-2v-.2c-.2,0-.4,0-.6,0-.9,0-1.8.1-2.7.2h0c-.1.3-.3.7-.3.9,0,.8.5,1.9.7,2.7.2.9.5,1.9.7,2.8-1.6-.8-3.1-1.9-4.2-3.2-.2.4-.6.9-1,1-.2,0-.5,0-.7,0-1.1.5-.8,1.2-2.5,1-1,.6-1.7.7-2.8.4-.9-.2-1.8-.6-2.8-.8h0c1.2.9,2.8,2.4,4,3.4.4.4.9.8,1.4,1.1.1,0,.3,0,.4,0,1.9,0,3.8-.5,5.7-.6,6.5-.8,13.1-1.3,19.6-2.2-1-.5-2-1.1-2.9-1.7-.8-.5-1.6-1-2.4-1.5Z"/>
  <path class="st0" d="M49.7,61.5c.2,0,.3-.1.4-.2.5-.3,1.1-.7,1.3-1.3,0-.4,0-.9-.3-1.2-.2-.3-.5-.7-.8-.9h0c-.2.7-1,3-.8,3.6,0,0,0,0,.2,0Z"/>
  <path class="st5" d="M76.9,73c-.1-.8-.6-1.1-1.2-1.6-1.9-1.3-3.9-2.5-5.9-3.7-2.5-1.6-4.9-3.2-7.5-4.6.6-.8.8-1.8,1.1-2.8s.6-1.8.5-2.9c-.1-.8-.3-1.7-.8-2.4-.2-.3-.5-.5-.7-.8-.4-.8-.8-1.7-1.2-2.5-.7-1.3-1.4-2.7-2.1-4-1.5-2.6-3.1-5.9-5.5-7.7-.7-.5-1.5-.9-2.4-1.2,0,0,0,0,0,0-2.8,4.2-6.2,6.5-8,7-.7.2-2.6.6-3.8.5-.1,0-.7,0-1.4,0,0,0-.6,0-1,0-2.1-.2-5.3-2.4-5.3-2.4-.6-.4-2-1.4-4.3-3.4-1.5-1.4-2.8-2.6-3.6-3.5l-.3-4.1c-.5.8-1.3,1.3-1.6,2.2-.1.3-.2.7-.3,1-1.4.5-2.8,1.1-4.1,1.7-3.5,1.5-6,2.6-7.9,6.2-1.5,0-4-.2-5.1,1-.3.3-.5.9-.6,1.3-.4,1.8-.3,4.6-.3,6.5s0,3.1,0,4.7c0,.8.2,1.5.8,2,.3.3.7.5,1.2.7,0,1.9.5,2.5,1.2,4.2-.2.1-.4.1-.6.1-1.1,0-2.8-.1-3.1,1.3-.1.7-.2,3,0,3.7,0,0,0,.2,0,.2,0,0,0,.2,0,.2,0,0,0,.1.1.2,0,0,0,.1.1.2.7,1,2,1.5,2.9,2.3,0,1.1-.2,3.5.1,4.5.1.4.4.8.7,1.1.3.2.6.4.9.7l-1.5,16.7c0,1.3-.2,2.5-.3,3.8,0,.9-.2,1.9-.2,2.9,0,.5,0,.9.4,1.2,0,0,0,0,.1.1s0,0,.1.1c0,0,0,0,.1.1,0,0,.1,0,.2,0,0,0,0,0,.2,0,0,0,.1,0,.2,0,0,0,.1,0,.2,0,0,0,.1,0,.2,0,.5,0,.9,0,1.2-.4.4-.3.5-.7.6-1.1.2-1,.2-2.1.3-3.2.1-1.3.3-2.7.4-4l.8-8.5c.2-1.8.4-3.5.5-5.3h0c2.5,1.6,4.8,3.6,7.2,5.4.9.7,1.8,1.5,2.9,2-.1,1.3-.2,2.6-.2,3.9l-.5,8.3c-.1,2.3-.3,4.6-.4,6.9,0,1.2-.2,2.5-.1,3.7,0,.4.2.7.4,1,0,0,0,0,.1.1,0,0,0,0,.1.1,0,0,0,0,.1.1,0,0,.1,0,.2,0,0,0,0,0,.2,0s.1,0,.2,0c0,0,.1,0,.2,0,0,0,.1,0,.2,0,.5,0,1,0,1.3-.4.4-.3.5-.8.6-1.2.1-.8.1-1.6.2-2.3l.3-4.5.5-7.4c.1-2.7.3-5.4.5-8,.8,0,1.5,0,2.3-.2,0,2.1,0,4.2-.2,6.2,0,.8-.2,2.8,0,3.5,0,.4.5.8.5,1.1,0,.3-.2.8-.3,1.1-.3,1.2-.7,3.4-.4,4.7.1.5.4.9.7,1.2.6.6,1.1,1.1,2,1.1,2.3,2.3,4.9,3.8,8.3,3.8,1.9,0,4.7-.4,6.1-1.9.5-.5.8-1.2.8-1.9,0-1.1-.4-2.1-1-3.1-1.2-1.9-3.3-2.8-4.8-4.5.4-.3.6-.6.7-1.1.2-1.3.3-2.7.4-4,.3-2.5.5-5,.7-7.5,1.8-.2,3.8-.2,5.6-.6-.3,1.6-.5,3.3-.7,4.9l-.4,3.1c0,.5-.2,1.1-.2,1.6,0,.3.1.6.3.9,0,0,0,.1.1.2-.9,1.1-1,2.1-1.1,3.4,0,.5-.1,1.1,0,1.6,0,.7.4,1.2,1,1.6.7.5,2.6,1.7,3.4,1.6.1,0,.3,0,.4,0,2.5,2.1,5.5,3,8.8,2.8,1.6-.1,3.7-.5,4.9-1.8.5-.6.7-1.3.6-2.1-.1-1.2-.9-2.5-1.8-3.2-1.4-1.1-3.2-1.6-4.5-3,.2-.2.5-.5.6-.8.3-.8.3-1.7.4-2.5.4-2.1.7-4.2,1-6.2.2-1,.2-2.3.5-3.2.8-.1,1.6-.2,2.4-.3l3.6-.4c.9-.1,1.9-.2,2.8-.4,0,1.3.2,2.5.2,3.8l.6,10.5.3,5.5c0,1,0,2,.2,3,0,.4.2.8.5,1.1.3.3.8.5,1.3.4,0,0,.1,0,.2,0,0,0,.1,0,.2,0,0,0,.1,0,.2,0,0,0,.1,0,.2,0,0,0,.1,0,.2,0,0,0,0,0,.1-.1,0,0,0,0,.1-.1s0,0,.1-.1c.3-.4.4-.7.4-1.2,0-.8,0-1.6,0-2.4l-.2-3.5-.6-11.2-.2-4.3c0-.6,0-1.3,0-1.9.9-.8,1.2-1.5,1.3-2.6,0-1,0-2,0-2.9.9-.1,2-.3,2.6-1.1.2-.3.3-.6.4-.9.2-.8.2-2.8.1-3.7ZM50.3,57.9h0s0,0,0,0h0c.3.3.6.6.8.9.2.4.4.8.3,1.2-.1.6-.8,1-1.3,1.3-.1,0-.3.2-.4.2,0,0-.1,0-.2,0-.2-.6.6-2.9.8-3.6ZM40,75.9c-1.9,0-3.8.6-5.7.6-.1,0-.3,0-.4,0-.5-.3-.9-.7-1.4-1.1-1.2-1-2.8-2.5-4-3.3h0c1,.2,1.9.5,2.8.8,1.1.3,1.8.2,2.8-.4,1.7.2,1.4-.5,2.5-1,.2,0,.4,0,.7,0,.4,0,.8-.6,1-1,1.1,1.3,2.7,2.5,4.2,3.2-.2-1-.5-1.9-.7-2.8-.2-.8-.7-1.9-.7-2.7s.2-.7.3-.9h0c.9-.1,1.8-.2,2.7-.2.2,0,.4,0,.6,0v.2c-.1.7-.3,1.4.2,2,.3.4.9.6,1.4.7,0,.2,0,.3.2.5.8,1.5,2.1.6,2.4.6.3,0,.6.5.9.6.6.2,1.1-.1,1.6-.4.1.1.3.2.4.3.9.3,1.9-.3,2.7-.8.7.6,1.6,1,2.4,1.5,1,.6,1.9,1.2,2.9,1.7-6.5.9-13.1,1.4-19.6,2.2Z"/>
  <path class="st19" d="M32,11.8c.4.3.7.5,1.1.7,1.4.7,2.8.6,4.2.2.2.1.4.3.6.4,1.9,1.1,4.2.9,6.2.4.5.2,1,.5,1.5.6,2.1.4,4.2-.7,5.9-1.9,1.2,2.2,1.9,3.8,2,6.4,0,2.3-.5,4.6-.7,6.9-.2,2.4,0,4.9-.6,7.2-.3,1.1-.9,1.9-1.7,2.7,0-.8-.3-1.6-.8-2.3-.9-1-2.1-1.1-3.3-1.2.3-.4.6-.8.7-1.3.5-1.6-.5-2.9-1.2-4.3-.1-.3-.3-.6-.4-.9-.2-.5-.2-1.4-.6-1.8-.1,0-.2,0-.3,0-.3.2-.2.7-.2,1,.2,1.2.7,2.1,1.2,3.1.2.3.4.6.5.9.2.4.2.8.2,1.2,0,0,0,0,0,.1,0,0,0,0,0,.1,0,0,0,0,0,.1,0,0,0,0,0,.1,0,0,0,0,0,.1,0,0,0,0,0,.1s0,0,0,.1c0,0,0,0,0,.1,0,0,0,0,0,.1s0,0,0,0c0,0,0,0,0,0,0,0,0,0,0,0s0,0,0,0h0c0,0,0,.2,0,.2,0,0,0,0,0,0-1.1.9-3.2.8-4.4.2-.4-.2-.8-.9-1.2-.9-.2,0-.2,0-.3.2,0,.3,0,.5.2.8-.5,0-1.1-.2-1.6-.2-1.2-.2-2.4-.6-3.7,0-1.4.6-2.2,1.8-2.8,3.1-.2,0-.3-.2-.4-.2-.2,0-.3-.2-.4-.3-.1,0-.3-.2-.4-.3-.1,0-.3-.2-.4-.3-.1-.1-.3-.2-.4-.3-.1-.1-.3-.2-.4-.3s-.2-.2-.4-.4c-.1-.1-.2-.2-.3-.4-3.1-3.7-.8-8.2-.5-12.4,2.5-2.6,3.1-4.5,3.9-7.9h0s0,0,0,0Z"/>
  <path class="st11" d="M37.6,18.4c1.1,0,2.3.2,3.2,1,.3.3.6.6.6,1,0,.2,0,.4-.2.5-.1.1-.3.2-.5.2-.5,0-1-.2-1.5-.3-.7-.2-1.5-.2-2.2-.2-.5,0-1.1.2-1.6.3-.5.1-.9.3-1.4.4-.2,0-.3,0-.5,0,0,0,0-.1-.1-.2,0-.4.2-.8.4-1.1.9-1.1,2.5-1.4,3.9-1.5h0Z"/>
  <path class="st11" d="M48.5,19.5c.4,0,.8,0,1.1,0,.9,0,1.9.5,2.5,1.2.3.3.4.8.4,1.2,0,.2,0,.3-.2.4-.4.1-.8-.2-1.2-.4-.9-.4-1.7-.5-2.6-.5s-1.1,0-1.6-.1c0,0-.2-.2-.2-.4,0-.2,0-.4.1-.5.4-.6,1-.9,1.6-1h0s0,0,0,0Z"/>
  <path class="st5" d="M36.7,24.7c.3,0,.6,0,.8,0,.6,0,1.3.2,1.7.7.2.2.3.6.2.9,0,.2,0,.2-.2.3-.6,0-1.1-.5-1.6-.6,0,0,0,0,0,0-.4,0-.7,0-1.1,0-.6.1-1.1.7-1.6.6,0,0-.1,0-.1-.2,0-.3,0-.6.2-.8.4-.5,1.2-.7,1.8-.8h0Z"/>
  <path class="st5" d="M48.8,25.5c.6,0,1.1,0,1.6.5.2.2.3.5.3.8s0,.2-.1.3c-.4,0-1.1-.4-1.5-.5h0c-.4,0-.9,0-1.2.2-.1,0-.3.2-.4.3,0,0-.2,0-.2,0-.1,0-.3-.3-.3-.5,0-.1,0-.3,0-.4.4-.6,1.3-.7,1.9-.8h0Z"/>
  <path class="st25" d="M21.7,37h0c.3,2.3,1,4.4,1.5,6.5.3,1.2.6,2.5,1.1,3.6.1.3.3.7.6.8,1.1,0,4.6-1.9,5.8-2.5.3.4.6.9.9,1.2,1.3,1.5,3.3,1.6,5.1,2.4-.2,1-.5,2-.7,3-.3,1.3-.4,2.7-.6,4-.2,1.1-.5,2.2-.6,3.3-.6-.9-1.2-1.8-1.8-2.8-.5-.8-1-1.6-1.5-2.4-.3-.5-.7-1-1.1-1.5-.3-.4-.5-1-.8-1.3-.2-.2-.5-.3-.8-.4-.6.2-1.3.3-1.8.6-.3.2-.5.4-.6.7-.1.5,0,1,.3,1.5.5,1,1.4,1.9,2,2.8,1.1,1.6,2.2,3.2,3.3,4.8-.6.2-1.3.3-1.9.4-.6.2-1.3.4-1.9.6-.2,0-.6.2-.8.2-.5,0-1-.4-1.5-.6-1.8-.7-3.5-1.5-5.2-2.3l-.6-.3c0-.8,0-1.7,0-2.6.3-2.8,1-5.7.5-8.5-.4-2.5-1.5-4.6-3.6-6.1-.2-.2-.6-.4-.9-.4,0,.2,0,.3,0,.4.2.3.7.7,1,1,1.1,1,1.7,2.1,2.2,3.5.9,2.4.6,5.1.2,7.6,0,.7-.3,1.5-.2,2.2,0,0,0,0,0,0h0c-.4-.4-1.2-.9-1.8-1.1-3.6-1.3-6.8-.6-10.2,1,.1-1.1.2-2.3.3-3.4.3-2.1.9-4.2,1.5-6.2,2.3-7.1,6.7-7.2,12.4-10.1h0s0,0,0,0Z"/>
  <path class="st14" d="M7.2,73.3c.7.3,1.9,1.4,2.6,1.8l7,5.1c1.2.8,2.3,1.8,3.6,2.5.7.4,1.5.6,2.2.9,0,.7-.1,3,0,3.5,0,.1,0,.2.2.2.1,0,.3,0,.4,0,.3-.5.1-2.9.1-3.6,1.9.2,4,0,5.8-.2,3.2-.3,6.3-.6,9.5-.9,5.5-.5,11.1-1.1,16.7-1.7,5.9-.6,11.8-1.2,17.7-2v1.6c0,1,0,2.2-.7,2.9-.7.6-1.7.8-2.6,1-3.5.6-7.1.9-10.6,1.3-6.6.7-13.3,1.4-20,2-2.7.3-5.4.5-8.1.8-2.3.2-4.6.5-6.9.5-.8,0-1.6-.1-2.3-.5-.8-.4-1.5-1.1-2.3-1.6l-4.7-3.6-4.9-3.7c-.8-.6-1.9-1.3-2.5-2-.6-.6-.3-3.3-.3-4.2h0s0,0,0,0Z"/>
  <path class="st25" d="M50.8,39.9c.3,0,.7.2,1,.3,1.2.5,2.2,1.3,3,2.3,1.1,1.3,1.9,2.9,2.8,4.3.9,1.5,1.7,3,2.6,4.6.5.9,1,1.7,1.4,2.6-1.8-.2-3.8,0-5.5.6-1.7.7-3.5,2-4.3,3.7-.4-.5-.8-1.2-1-1.8.1-.9.4-1.9.6-2.8.4-2,.6-3.9.7-5.9,0-.6,0-1.5-.2-2-.2.2-.2.5-.3.8-.2,1.2-.2,2.6-.4,3.8-.2,1.5-.5,3.1-.8,4.6-.5,2.3-1.1,4.7-1.8,6.9-.9,0-1.8.2-2.7.3-2.8.2-5.7.5-8.5.8-.5-.8-1.1-1.5-1.3-2.4-.3-1,.3-3.1.5-4.3.2-1.5.2-3.8.8-5.1.8-1.8,5.7-2.1,7.1-4.6.8.2,2.3,1.6,3,1.5.2,0,.3,0,.4-.2.4-.5-.2-3.4-.4-4.1,1.2-1.3,2.4-2.4,3.5-3.7h0Z"/>
  <path class="st5" d="M37.4,57.7c.2,0,.3,0,.5,0,.2,0,.5.2.6.4.1.2.2.5,0,.7-.1.4-.3.5-.6.7h-.3c-.3,0-.6,0-.8-.4-.1-.2-.2-.4-.1-.7,0-.4.3-.6.7-.8h0s0,0,0,0Z"/>
  <path class="st25" d="M37.6,58.2c0,0,.1,0,.2,0,.2,0,.2.1.2.3,0,.2-.1.4-.3.5,0,0-.2,0-.2,0-.1,0-.2-.2-.2-.3,0-.2.1-.3.3-.5,0,0,0,0,0,0Z"/>
  <path class="st5" d="M38,51.4h.5s0,0,0,0c0,0,0,0,0,0,0,0,0,0,0,0,0,0,0,0,0,0,0,0,0,0,0,0,0,0,0,0,0,0,0,0,0,0,0,0,0,0,0,0,0,0,0,0,0,0,0,0,0,0,0,0,0,0h0s0,0,0,0c0,0,0,0,0,0,0,0,0,0,0,0,0,0,0,0,0,0,0,0,0,0,0,0,0,0,0,0,0,0,0,0,0,0,0,0,0,0,0,0,0,0,0,0,0,0,0,0,0,0,0,0,0,0v.5s0,0,0,0c0,0,0,0,0,0,0,0,0,0,0,0,0,0,0,0,0,0,0,0,0,0,0,0,0,0,0,0,0,0s0,0,0,0c0,0,0,0,0,0,0,0,0,0,0,0,0,0,0,0,0,0,0,0,0,0,0,0,0,0,0,0,0,0,0,0,0,0,0,0,0,0,0,0,0,0,0,0,0,0,0,0,0,0,0,0,0,0,0,0,0,0,0,0,0,0,0,0,0,0s0,0,0,0,0,0,0,0c0,0,0,0,0,0h0s0,0,0,0h-.4s0,0,0,0c0,0,0,0,0,0,0,0,0,0,0,0,0,0,0,0,0,0s0,0,0,0,0,0,0,0c0,0,0,0,0,0s0,0,0,0h0c0,0,0,0,0,0,0,0,0,0,0,0,0,0,0,0,0,0,0,0,0,0,0,0,0,0,0,0,0,0s0,0,0,0c0,0,0,0,0,0,0,0,0,0,0,0v-.4s0,0,0,0c0,0,0,0,0,0,0,0,0,0,0,0,0,0,0,0,0,0,0,0,0,0,0,0s0,0,0,0c0,0,0,0,0,0s0,0,0,0,0,0,0,0,0,0,0,0c0,0,0,0,0,0s0,0,0,0c0,0,0,0,0,0,0,0,0,0,0,0,0,0,0,0,0,0,0,0,0,0,0,0,0,0,0,0,0,0,0,0,0,0,0,0h0s0,0,0,0Z"/>
  <path class="st25" d="M38,51.9s0,0,0,0c0,0,0,0,0,0h.2s0,0,0,0c0,0,0,0,0,0,0,0,0,0,0,0s0,0,0,0c0,0,0,0,0,0,0,0,0,0,0,0s0,0,0,0c0,0,0,0,0,0h0c0,.2,0,.2,0,.2,0,0,0,0,0,0,0,0,0,0,0,0,0,0,0,0,0,0,0,0,0,0,0,0,0,0,0,0,0,0s0,0,0,0c0,0,0,0,0,0h-.2s0,0,0,0c0,0,0,0,0,0,0,0,0,0,0,0,0,0,0,0,0,0h0s0,0,0,0c0,0,0,0,0,0,0,0,0,0,0,0s0,0,0,0v-.3s0,0,0,0c0,0,0,0,0,0,0,0,0,0,0,0s0,0,0,0h0s0,0,0,0c0,0,0,0,0,0h0s0,0,0,0Z"/>
  <path class="st26" d="M61.9,64c.1,0,.2,0,.3,0,1,.3,2,1.1,2.9,1.6l3.4,2.1c2.3,1.5,4.8,2.9,7.1,4.5.2.2.5.4.6.6,0,0,0,0,0,.1-.3.5-2.1.8-2.7.9-2.6.5-5.3.7-8,1-5.9.7-11.8,1.3-17.7,1.8l-14.1,1.4c-2.8.3-5.6.6-8.3.7-.8,0-1.6,0-2.4-.2-2.1-.6-5.4-3.2-7.3-4.5-1.9-1.4-3.9-2.8-5.9-4.2-.9-.6-5.4-3.7-5.6-4.2h0c.7-.4,2.8-.4,3.7-.5.2.3.4.6.6.9,2.8,3.2,12.8,3.6,16.8,3.9,1,1.1,2.3,2,3.4,3,1.5,1.2,3.5,3.2,5.1,4.1.9,0,1.9-.1,2.8-.2,2-.2,3.9-.4,5.9-.6l10.5-1.1c1.7-.2,3.5-.4,5.2-.6.6,0,1.2,0,1.8-.2.2,0,.4,0,.6-.2.2,0,.3-.2.3-.4-.2-.6-5-3.4-5.7-3.9.4-.3.8-.5,1.2-.8,1.2-.8,2-1.9,2.6-3.1,1.3-.7,1.9-1.1,3-2h0s0,0,0,0Z"/>
  <path class="st26" d="M3.9,66.7c.3.2.5.4.8.6.8.6,1.5,1.1,2.3,1.6l8,5.7c2.1,1.5,5.4,4.2,7.9,4.8,1,.2,2,.3,3,.2,3.5-.2,7-.6,10.4-.9l15-1.5,14.5-1.5c2.8-.3,5.5-.6,8.3-1.1.7-.1,1.4-.3,2-.7,0,1,0,2.1-.3,3.1,0,.1-.2.2-.3.3-.6.6-2.1.6-2.8.8-4,.6-8,1-12,1.4l-17.4,1.8-12.1,1.2c-2.3.2-4.7.5-7,.5-1.2,0-2.2-.1-3.3-.7-1.5-.8-2.9-2-4.3-3l-6.9-5.1-3.6-2.5c-.6-.5-1.4-.9-1.9-1.5-.2-.2-.3-.4-.4-.6-.2-.7,0-2.2,0-2.9h0s0,0,0,0Z"/>
  <path class="st19" d="M14.1,59.1c.6,0,1.3,0,1.9,0,.8,0,1.5.3,2.3.6,1.8.7,3.4,1.6,5.1,2.3.7.3,1.5.6,2.3.9.4.2.9.3,1.3.5.2,0,.3.2.4.4,1.2-.3,2.3-.9,3.6-1.1,2.1-.5,3.8-.1,5.6,1,1.5,1,3.1,2.4,3.5,4.3-.1.2-.2.5-.4.7-.2.2-.4.4-.7.4-.4,0-1.1-1.1-1.4-1.4-.6-.7-2.5-2.6-3.4-2.7-.1,0-.2.1-.2.3,0,.1,0,.2,0,.3.2.2.7.4.9.6.8.7,2.2,1.9,2.6,2.9.1.3.2.6,0,.9-.2.4-.5.6-.9.7-1.4-1.3-2.4-3-4.3-3.7-.2,0-.2,0-.4.1,0,.1,0,.1,0,.3.2.3.7.6,1,.8.6.5,2.5,1.9,2.6,2.6,0,.2,0,.3-.2.4-.2.2-.5.4-.7.4-.6,0-3.3-2.7-4.2-2.7-.1,0-.2,0-.3.1,0,.8,3,1.8,3.1,2.6,0,0,0,0,0,.1-.2.2-.5.4-.8.4-.9.1-4.6-1.1-5.4-1.6-.6-.3-1.1-1-1.8-1.2-1-.2-2.2-.1-3.2-.2-3.2-.3-10-1-12.6-3-.7-.5-1.1-1.1-1.2-1.9-.1-.9-.4-2.1.3-2.9,1.3-1.5,3.6-2.1,5.4-2.2h0s0,0,0,0Z"/>
  <path class="st10" d="M28.4,89.4c1.3-.2,2.8-.2,4.1-.4,2.7-.3,5.3-.6,8-.8-.2,1.8-.4,3.5-.5,5.3,0,.8-.1,1.5-.2,2.3,0,.5,0,1-.2,1.6,0,.8-.1,1.7-.3,2.5,0,0,0,0,0,0-1.4,1.3-4.1,1.4-5.9,1.3-1.4,0-3.9-.6-4.8-1.6-.2-.2-.2-.4-.2-.7-.1-1.1,0-2.4,0-3.6,0-2,0-3.9.1-5.9h0s0,0,0,0Z"/>
  <path class="st10" d="M59,86.4c.1,0,0,0,.2,0,0,.6-1.7,11.1-1.9,11.6-.2.4-.7.7-1.1.8-2.5.9-6.3.7-8.7-.4-.5-.3-.9-.6-1.3-1,.1-1.3.4-2.6.5-3.9.3-2,.5-3.9.8-5.9,1.3,0,2.6-.3,3.9-.4,2.5-.3,5-.5,7.5-.8h0Z"/>
  <path class="st19" d="M58.3,57.1c1-.1,2.2,0,3,.5.6.4,1,.9,1.1,1.6.4,1.9-.8,4.1-2.3,5.2-.6.4-1.3.6-1.8,1.1-.3.3-.4.8-.7,1.1-.4.6-.9,1.1-1.5,1.6-.8.6-2.9,2-3.8,2.2-.2,0-.3,0-.5,0-.2-.8,2.3-2.8,2.3-3.6,0-.2,0-.2-.1-.3-1,0-2.7,3.3-3.6,3.9-.2.1-.4.2-.6.1-.2,0-.3-.2-.4-.4-.3-.7,1.2-2.5,1.6-3.1.3-.4.8-.9,1-1.3,0-.2,0-.2-.2-.4-1.4.8-2.5,2.9-3.3,4.2-.2.3-.4.6-.7.6-.2,0-.5,0-.6-.2-.1-.1-.2-.3-.2-.4-.1-1.1,1.1-2.7,1.8-3.5.3-.3.6-.6.9-1,.1-.2.2-.3.2-.5h0c-.1,0-.2-.1-.3,0-.5.2-2,2.1-2.4,2.6-.3.4-.4,1-.8,1.4,0,.1-.3.3-.4.3-.1,0-.2,0-.3,0-.2-.2-.3-.5-.3-.8-.1-1.1.7-2.4,1.4-3.2,1.3-1.6,2.7-2,4.3-3.1.8-.6,1.4-1.3,2.2-2,1.5-1.4,3.2-2.3,5.2-2.5h0s0,0,0,0Z"/>
  <path class="st5" d="M43.5,73.9c0,0,.2,0,.2,0,.1,0,.2.1.2.3,0,.2-.1.3-.3.4-.1,0-.3,0-.4-.2-.1,0-.1-.1-.2-.3.1-.2.2-.2.4-.3h0Z"/>
  <path class="st5" d="M45.7,73.7c0,0,.2,0,.3,0,.2,0,.2.1.2.3,0,.2-.2.3-.3.4,0,0-.1,0-.2,0-.2,0-.3-.2-.3-.3,0-.2.1-.2.3-.4h0s0,0,0,0Z"/>
  <path class="st5" d="M48.7,72h.2c.1.2.1.2.1.3,0,.2-.2.3-.3.5,0,0-.1,0-.2-.1-.1-.1-.2-.2-.2-.4,0-.2.2-.2.4-.4h0Z"/>
  <path class="st5" d="M50.7,73.2s0,0,0,0h.3s0,0,0,0c0,0,0,0,0,0,0,0,0,0,0,0h0s0,0,0,0c0,0,0,0,0,0,0,0,0,0,0,0,0,0,0,0,0,0,0,0,0,0,0,0s0,0,0,0v.2s0,0,0,0c0,0,0,0,0,0,0,0,0,0,0,0,0,0,0,0,0,0h0s0,0,0,0c0,0,0,0,0,0,0,0,0,0,0,0,0,0,0,0,0,0h-.2s0,0,0,0c0,0,0,0,0,0s0,0,0,0c0,0,0,0,0,0h0s0,0,0,0,0,0,0,0c0,0,0,0,0,0v-.2s0,0,0,0c0,0,0,0,0,0,0,0,0,0,0,0,0,0,0,0,0,0h0s0,0,0,0h0,0Z"/>
  <path class="st5" d="M36.2,74.8c0,0,.2,0,.2,0,.2,0,.2,0,.3.2,0,.2-.1.3-.2.4,0,0-.2,0-.3,0-.2,0-.2-.2-.3-.3,0-.2,0-.2.2-.4h0Z"/>
  <path class="st5" d="M38.6,74.6h.2s0,0,0,0c0,0,0,0,0,0,0,0,0,0,0,0,0,0,0,0,0,0,0,0,0,0,0,0,0,0,0,0,0,0s0,0,0,0c0,0,0,0,0,0,0,0,0,0,0,0v.2s0,0,0,0c0,0,0,0,0,0,0,0,0,0,0,0,0,0,0,0,0,0,0,0,0,0,0,0,0,0,0,0,0,0,0,0,0,0,0,0,0,0,0,0,0,0,0,0,0,0,0,0h-.2s0,0,0,0c0,0,0,0,0,0,0,0,0,0,0,0,0,0,0,0,0,0,0,0,0,0,0,0,0,0,0,0,0,0,0,0,0,0,0,0,0,0,0,0,0,0s0,0,0,0v-.2s0,0,0,0c0,0,0,0,0,0,0,0,0,0,0,0,0,0,0,0,0,0,0,0,0,0,0,0,0,0,0,0,0,0,0,0,0,0,0,0,0,0,0,0,0,0,0,0,0,0,0,0Z"/>
  <path class="st5" d="M40.6,74.4c.1,0,.2,0,.3,0,.2,0,.3,0,.4.2,0,.2,0,.2-.2.4,0,0-.1,0-.2,0-.1,0-.3,0-.3-.2,0-.2,0-.3,0-.4h0Z"/>
  <path class="st5" d="M39,72.9s0,0,0,0,0,0,0,0h.2s0,0,0,0c0,0,0,0,0,0,0,0,0,0,0,0h0s0,0,0,0h0s0,0,0,0c0,0,0,0,0,0,0,0,0,0,0,0v.3s0,0,0,0c0,0,0,0,0,0,0,0,0,0,0,0h0s0,0,0,0h0s0,0,0,0c0,0,0,0,0,0,0,0,0,0,0,0h-.2s0,0,0,0c0,0,0,0,0,0,0,0,0,0,0,0h0s0,0,0,0,0,0,0,0c0,0,0,0,0,0s0,0,0,0v-.2s0,0,0,0c0,0,0,0,0,0,0,0,0,0,0,0h0s0,0,0,0,0,0,0,0h0s0,0,0,0Z"/>
  <path class="st5" d="M34.8,73.5h.2s0,0,0,0c0,0,0,0,0,0,0,0,0,0,0,0,0,0,0,0,0,0,0,0,0,0,0,0,0,0,0,0,0,0,0,0,0,0,0,0,0,0,0,0,0,0,0,0,0,0,0,0v.3s0,0,0,0c0,0,0,0,0,0,0,0,0,0,0,0,0,0,0,0,0,0,0,0,0,0,0,0,0,0,0,0,0,0,0,0,0,0,0,0,0,0,0,0,0,0,0,0,0,0,0,0,0,0,0,0,0,0h-.2s0,0,0,0c0,0,0,0,0,0,0,0,0,0,0,0h0s0,0,0,0,0,0,0,0c0,0,0,0,0,0v-.2s0,0,0,0,0,0,0,0c0,0,0,0,0,0,0,0,0,0,0,0h0s0,0,0,0c0,0,0,0,0,0,0,0,0,0,0,0h0s0,0,0,0Z"/>
  <path class="st5" d="M42.7,69.4c.2,0,.4,0,.6.3,0,.2,0,.2-.1.3,0,0-.2,0-.3,0-.2,0-.2,0-.3-.2,0-.2,0-.2.1-.4h0Z"/>
  <path class="st5" d="M42.6,71s0,0,0,0h.2s0,0,0,0c0,0,0,0,0,0,0,0,0,0,0,0h0s0,0,0,0c0,0,0,0,0,0,0,0,0,0,0,0,0,0,0,0,0,0v.2s0,0,0,0c0,0,0,0,0,0,0,0,0,0,0,0h0s0,0,0,0,0,0,0,0c0,0,0,0,0,0h-.2s0,0,0,0c0,0,0,0,0,0,0,0,0,0,0,0h0s0,0,0,0h0s0,0,0,0c0,0,0,0,0,0,0,0,0,0,0,0v-.3s0,0,0,0c0,0,0,0,0,0h0s0,0,0,0h0s0,0,0,0c0,0,0,0,0,0,0,0,0,0,0,0h0s0,0,0,0Z"/>
  <path class="st5" d="M44.1,72.4h0c.2,0,.3,0,.5.2,0,.2,0,.2-.2.4h0c-.2,0-.3-.1-.4-.2,0-.2,0-.2.1-.4h0Z"/>
  <path class="st5" d="M46.4,72.2c.2,0,.3,0,.4.2,0,.2,0,.3-.1.4h-.2c-.2,0-.2,0-.3-.2,0-.2.1-.3.2-.5h0s0,0,0,0Z"/>
  <path class="st15" d="M28.7,100.8c.4.2.8.4,1.3.6,3,1,5.6.8,8.7,0,1.4,1.4,4,3.1,4.9,4.6.3.5.6,1.3.5,1.9-.1.4-.4.6-.8.8-.3.2-.6.3-.9.4-2.7.9-5.9.9-8.4-.4-1.4-.7-2.5-1.7-3.7-2.7-.5-.4-1.1-.7-1.5-1.2-.2-.2-.4-.4-.5-.7-.3-.9,0-2.5.5-3.3h0Z"/>
  <path class="st15" d="M46.5,98.9c3.4,1.6,6.7,1.6,10.2.6.5.5,1,1,1.5,1.3,1.5.9,3.2,1.4,4.2,3,.2.4.4.8.3,1.2-.1.4-.7.7-1.1.9-.5.2-1.1.4-1.7.5-2.4.6-5.3.6-7.6-.6-.8-.4-1.4-.9-2.2-1.3-1.1-.6-2.3-.9-3.3-1.6-.6-.4-1.1-.8-1.3-1.5-.2-.9.4-1.9.8-2.6,0,0,0,0,0,0Z"/>
  <path class="st7" d="M22.2,89.4c.8.2,1.5.3,2.3.4-.2,1.9-.3,3.8-.4,5.7l-.7,11.5c0,1-.2,4.5-.5,5.3,0,0,0,0-.1.1-.2.2-.5.4-.8.4s-.6-.2-.8-.4c-.1-.3-.2-.6-.2-.9,0-.7,0-1.4,0-2.2,0-1.4.1-2.8.2-4.3l.5-8.7c.1-2.3.3-4.7.3-7h0s0,0,0,0Z"/>
  <path class="st7" d="M71.6,84.6s0,0,0,.1c.1,1.6.2,3.3.3,4.9l.5,8.4.3,5.7c0,1.1.2,2.3.2,3.4,0,.3,0,.6-.2.9-.2.2-.4.4-.7.5-.3,0-.4,0-.6-.2-.2-.2-.3-.3-.3-.5-.2-1-.2-2-.2-3l-.3-5.8-.5-8.7c-.1-1.7-.3-3.5-.3-5.2.7,0,1.3-.2,2-.4h0s0,0,0,0Z"/>
  <path class="st7" d="M8.7,79.6c.7.5,1.4,1,2,1.5-.3,4-.8,7.9-1.1,11.9l-.6,6.1c-.1,1.1-.2,2.2-.4,3.3,0,.2,0,.4-.2.6-.2.2-.5.3-.8.3-.3,0-.5-.1-.7-.3-.2-.2-.2-.4-.2-.6,0-.8.1-1.6.2-2.4l.3-3.7,1-10.8c.2-1.9.4-3.8.5-5.7h0,0Z"/>
  <path class="st25" d="M23.6,34.2c.2.2.5,1.3.7,1.7.4.7.7,1.4,1.2,2.1.3.5.6.9,1,1.4s.7.9,1.1,1.3c.6.6,1.3,1.1,1.7,1.8.5.7.8,1.6,1.1,2.4-.7.2-1.6.7-2.3,1-1,.4-1.8,1-2.9,1.3-.5-1.1-.8-2.2-1.1-3.4-.6-2.2-1.4-4.4-1.6-6.7-.1-1.3.2-1.9,1-2.9h0Z"/>
  <path class="st19" d="M21.6,20h.3c.7,0,1.3.3,1.8.9.9,1,.9,2.3.8,3.5,0,1-.3,3.4-.6,4.3,0,.3-.2.5-.5.7-.4.3-.8.3-1.3.3-.3,0-.5-.2-.8-.3-1.2-.7-1.9-2.1-2.1-3.4-.3-1.5-.3-3.2.6-4.6.4-.7,1-1.1,1.7-1.3h0s0,0,0,0Z"/>
  <path class="st4" d="M21.1,21.8c.3,0,.6,0,.9.2.5.3,1,.8,1.1,1.4.2.8-.1,1.1-.4,1.8-.2.5,0,.7.2,1.1,0,.2,0,.4-.1.6-.1,0-.3,0-.4,0-.2,0-.4-.2-.4-.4-.3-.7,0-1.5.3-2.2.6-1.6-1-1.3-1.3-2,0-.2,0-.3.1-.4,0,0,0,0,0,0Z"/>
  <path class="st26" d="M9.2,44.9h.1c0,.2-.7,1.9-.8,2.3-.7,2-1.2,4.1-1.4,6.2-.1,1.2-.2,2.4-.3,3.6l-.3.4c-.5.6-.7,1.2-.8,2-.2,0-.4-.2-.6-.4-.4-.4-.6-.9-.6-1.6-.1-1.7,0-3.4,0-5,0-1.6-.1-4.1.2-5.6,0-.4.3-.9.6-1.2.8-.9,2.8-.7,4-.7h0s0,0,0,0Z"/>
  <path class="st19" d="M35.1,34.6c.5.3.9.7,1.3.9,1.2.7,2.9,1.1,4.3,1.3,2.3.3,4.8,0,6.7-1.5,0,0,0,.2,0,.3,0,0,0,.1,0,.2s0,.1,0,.2c0,0,0,.1,0,.2,0,0,0,.1,0,.2v.4c0,0,0,.1,0,.2s0,.1,0,.2c0,0,0,.1,0,.2,0,0,0,.1,0,.2,0,0,0,.1,0,.2s0,.1,0,.2,0,.1,0,.2c0,0,0,.1,0,.2,0,0,0,.1,0,.2s0,.1-.1.2c-.5.8-1.2,1.3-2.1,1.6-.3,0-.7,0-.9-.2-.7-.4.4-1.2.3-1.7-.3-.2-1.2.1-1.6.2-.4,0-.8,0-1.1,0-.5,0-1-.1-1.5-.3-.4-.1-1-.5-1.4-.5-.2,0-.2,0-.3.2,0,.5.4.7.5,1.1,0,.2,0,.3,0,.4-.2.3-.8.6-1.1.7s-.8-.2-1-.3c-.8-.5-1.6-1.4-1.7-2.4-.2-1.1-.2-1.9.2-3h0s0,0,0,0Z"/>
  <path class="st25" d="M13.3,55.9c.7,0,1.4,0,2.1,0,1.2.1,2.2.6,3.1,1.3.2.2.5.3.7.6.3.4.1,1,0,1.4-.6-.3-1.4-.5-2.1-.7-2.3-.7-5.3-.2-7.4,1-.5.3-.9.5-1.4.9-1,.8-1.3,1.7-1.4,2.9-.2-.8-.6-1.4-.7-2.2,0-.9,0-2.3.5-3,.7-.8,3.5-1.7,4.5-1.9.6-.1,1.2-.2,1.8-.2h0Z"/>
  <path class="st26" d="M47.5,62.7h.1c-.1.3-1,.9-1.3,1.3-.5.6-.8,1.3-1.2,1.9-1.3.2-2.6.2-3.9.4-.3-.7-.6-1.3-1.2-1.8-.8-.4-1.3-.4-2.2-1,1.1,0,2.3-.2,3.4-.2,0,0,6.3-.6,6.3-.6Z"/>
  <path class="st1" d="M29.9,56.8s0,0,0,0c-.2-.1-.2-.2-.3-.4,0-.2,0-.5.2-.7,0,0,.2-.1.3-.2.4-.2.5-.5,1-.5.2,0,.3.2.4.4.4.5,3.2,4.7,3.3,5,0,0,0,.1,0,.2.3.6.8,1.2,1.1,1.8-.7-.1-1-.2-1.4-.8-.1-.1-.2-.4-.3-.5-.4-.2-.6-.9-.9-1.2h0,0c.3.5.9,1.3,1,1.7,0,0,0,0,0,.1-.3,0-.6,0-.8,0-.4-.4-.7-1-1-1.4l-1.6-2.4c-.2-.3-.4-.8-.7-1.1h0s0,0,0,0Z"/>
  <path class="st1" d="M30.2,55.6c0,.2.1.4.2.5.8,1.3,1.7,2.6,2.5,3.9.3.5.7,1.2,1.1,1.6,0,0,0,0,0,.1-.3,0-.6,0-.8,0-.4-.4-.7-1-1-1.4l-1.6-2.4c-.2-.3-.4-.8-.7-1.1-.1-.2-.2-.4-.2-.7,0-.2.3-.4.4-.5h0s0,0,0,0Z"/>
  <path class="st5" d="M29.9,56.8s0,0,0,0c-.2-.1-.2-.2-.3-.4,0-.2,0-.5.2-.7,0,0,.2-.1.3-.2.4-.2.5-.5,1-.5.2,0,.3.2.4.4.4.5,3.2,4.7,3.3,5,0,0,0,.1,0,.2h0c-.9-1.3-1.7-2.7-2.5-3.9-.3-.4-.6-1-1-1.4,0,0-.1,0-.2-.1-.2,0-.4.1-.6.2,1.3,1.8,2.5,3.7,3.7,5.7-.4-.2-.6-.9-.9-1.2h0,0c.3.5.9,1.3,1,1.7-.4-.4-.8-1.1-1.1-1.6-.9-1.3-1.8-2.6-2.5-3.9,0-.2-.2-.3-.2-.5h0c-.1.2-.4.4-.4.5,0,.3,0,.5.2.7h0s0,0,0,0Z"/>
  <path class="st19" d="M58.9,54.7c1.2,0,2.2.1,3.4.5.4.9.5,1.7.5,2.7-.4-.6-.9-1-1.5-1.2-1.7-.7-3.9-.4-5.6.3-1.3.6-2.3,1.4-3.4,2.3.2-.6.5-1.1.9-1.6,1.4-1.8,3.6-2.7,5.8-2.9h0Z"/>
  <path class="st24" d="M31,43.4c.6.3,1.2.8,1.8,1.1,2.1,1.2,4.3,1.8,6.7,2l-.9,1.2c-.3.4-.5.7-.8,1-1.8-.9-5.6-3.6-6.7-5.3h0Z"/>
  <path class="st25" d="M43.5,45.9h0c0,.1,0,.2,0,.4-.4,1-3.8,2.3-4.9,2.8h0c.1-.5,1.6-2,2.1-2.5.9-.3,1.9-.4,2.8-.6h0s0,0,0,0Z"/>
  <path class="st23" d="M28.7,51.9c.1,0,.2,0,.4,0,.5.3.8,1,1,1.5-.6.4-1.2.9-1.5,1.5h0s0,0,0,0c-.3-.4-.7-1-1-1.4-.1-.3-.3-.6-.2-.9.2-.5.9-.6,1.3-.8h0s0,0,0,0Z"/>
  <path class="st25" d="M46.5,44.2h0c.3.6.4,1.9.4,2.6-.4-.2-.8-.5-1.2-.7-.4-.2-.9-.4-1.3-.7.7-.4,1.3-.9,2-1.3h0Z"/>
  <path class="st24" d="M40.2,68.9l.4.6c0,0-.2.2-.3.3-.3.3-.6.3-1,.3-.2,0-.3-.1-.4-.3.1-.3.5-.4.8-.5.2-.1.3-.3.4-.4h0Z"/>
  <path class="st24" d="M30.2,54.1c.2,0,.2,0,.3,0,0,.3-.9,1-1.2,1.3,0,0,0,0-.1,0,0-.1-.1-.2,0-.3,0-.5.7-.9,1.1-1.1h0s0,0,0,0Z"/>
  <path class="st24" d="M39.1,65c.3,0,.5,0,.7.2.4.3.6.9.7,1.5-.4-.2-1-1.3-1.4-1.7Z"/>
  <g>
    <g>
      <rect class="st6" x="67.2" y="2.2" width=".3" height="52.4"/>
      <polygon class="st9" points="66.9 58.4 66.9 58.9 67.9 58.9 67.9 58.3 66.9 58.4 66.9 58.4"/>
      <path class="st8" d="M67.3,2.6h0c-.2,0-.3,0-.3-.2v-.9c0-.2.1-.3.3-.3h0c.2,0,.3.1.3.3v.9c0,.2-.1.2-.3.2Z"/>
      <path class="st2" d="M66.9,54.8v.2c-.2,0-.2.1-.2.2v.7c0,.1,0,.2,0,.3l-.2.6s0,.1,0,.1v1.4s0,0,0,0h1.8s0,0,0,0v-1.4s0-.1,0-.1l-.2-.6c0-.1,0-.2,0-.3v-.7c0,0,0-.1,0-.2v-.2c-.2-.1-.3-.1-.4-.1h-.3c0,0-.2,0-.2.1h0Z"/>
    </g>
    <g>
      <path d="M75.2,61.8c0-.5,0-1.1-.5-1.3,0-.5,0-1.4-.5-1.8-.3-.2-.7-.3-.9-.5,0-.8.1-2.4-1.1-2.3-1.1,0-1,1.3-1,2.1-.1,0-.5,0-.6,0-.2-.5,0-1.2-.2-1.7,0-.1-.2-.2-.3-.3-.2,0-.3,0-.5,0-1.1,0-.9,1.1-.9,1.9,0,0-.3,0-.4,0,0,0,0,0,0,0,0,.2-.2.1-.3.2h0c-.3,0-.7.2-.9,0,0,0,0,0,0,0,0,0,0,0,0,0,0,0,0,0,0,0h0s0,0,0,0c0,0,0,0,0,0s0,0,0,0c-.1,0-.3,0-.5,0h0c-.1.1-.3.1-.5.2-.5.2-.9.5-.9,1.1,0,.2,0,.4,0,.6,0,.1,0,.2,0,.4,0,0-.1,0-.1.1,0,.1,0,.5,0,.6,0,.3,0,.8.2.9v.3c-.3.3-.2,1-.2,1.4,0,.1,0,.2.1.3,0,.4,0,.3-.1.7,0,.3-.1,1.2.2,1.4,0,.2,0,.3.1.4,0,2,0,4,0,5.9.2,1.3,3.1,1.7,4.2,1.5,1.1,0,2.2-.2,3.3-.3.6,0,1.5,0,1.9-.4.2-.2.3-.6.3-.9,0-2.3,0-4.5,0-6.8.2,0,.3-.2.4-.4.2-1.1.1-2.3.1-3.5h0Z"/>
      <path class="st13" d="M73.2,59.1c0,0,.5,0,.6,0,0,0,.2,0,.3,0,.3.7.3,1.5.3,2.2,0,1.1,0,2.2,0,3.4,0,2.5,0,4.9,0,7.4,0,.2,0,.5-.2.7-.3.4-1,.3-1.5.4-1,.1-2.2.3-3.2.3-.3,0-.7.1-1.1,0-.1,0-.5,0-.7,0-.6-.3-.5-1.4-.5-1.9.1-4-.1-8,.2-11.9.1-.9,4.9-.6,5.7-.8h0Z"/>
      <path d="M72.6,59.7c0,0,.6,0,.7,0,.2.2.3.4.3.6,0,.3,0,2.1,0,2.2-.1,0-.2,0-.3,0-.2,0-.3,0-.5,0-.2,0-.4,0-.6,0-1,0-2.1.2-3.1.3,0,0-.2,0-.3,0-.2,0-.4.1-.6.1,0,0,0-.2-.1-.3,0-.8,0-1.7,0-2.5,0,0,.1-.1.2-.2.7-.1,3.7-.2,4.2-.3h0Z"/>
      <path class="st3" d="M73,59.9c.2,0,.3.2.4.4,0,.6,0,1.3,0,1.9,0,0-.8,0-1,0-.4,0-.9,0-1.3,0-.7,0-1.4.1-2.1.2-.1,0-.3,0-.4,0,0,0-.3,0-.3,0h0c0-.5,0-1.8,0-2.4,0,0,.2,0,.2-.1.9,0,1.8-.1,2.7-.2h1.3c.2,0,.3,0,.5,0h0Z"/>
      <path d="M71.8,63.1c.1,0,.5,0,.6,0,.4,0,.7,0,1.2,0,.1,0,.2,0,.3,0,.2.2-.1.4-.3.1-.1,0-.3,0-.4,0-.3.1-.6,0-.9,0-.1,0-.3,0-.4,0s-.3,0-.4,0c0,0-.2,0-.3,0-.4,0-.7.1-1.1,0,0,0,0,0,0,0-.4,0-1.5,0-1.9.2,0,0-.1-.2,0-.3,0,0,0,0,.1,0,0,0,.2,0,.2,0,.1,0,.4,0,.6,0,.2,0,.4,0,.6,0,.5,0,1.2-.1,1.7-.1.2,0,.4,0,.6,0h0Z"/>
      <path d="M72.3,63.8c.4.1.8,0,1.2,0,0,0,.2,0,.3,0,.2.2-.2.3-.3.1-.1,0-.3,0-.4,0-.2,0-.3,0-.5,0-.2,0-.1,0-.4,0,0,0-.8,0-.8,0-.4,0-1.7.2-2,0-.2.1-.7,0-1,.1-.1,0-.3.1-.4,0,0,0-.1-.2,0-.3,0,0,.1,0,.2,0,.1-.2.4,0,.6,0,.2-.1,1.1,0,1.2-.1,0,0,0,0,0,0,.1,0,.2,0,.3,0,0,0,0,0,.1,0,.3,0,.9,0,1.3,0,.2,0,.3,0,.5,0h0Z"/>
      <path d="M72.3,64.6c.1,0,.4,0,.5,0,.2,0,.9,0,1,.1.1.2-.2.3-.3,0,0,0-.1,0-.2,0,0,0-.1,0-.2,0-.2,0-.2.1-.4,0,0,0-.1,0-.2,0-.1,0-.2,0-.3,0-.1,0-.2,0-.3,0-.1,0-.2,0-.3,0,0,.1-.3,0-.4,0,0,0-.2,0-.3,0-.2,0-.5,0-.7,0-.2,0-.4,0-.5,0,0,0-.2,0-.3,0-.2,0-.4,0-.6,0-.2,0-.6.3-.6-.1,0-.2.5,0,.7-.1,0,0,.1,0,.2,0,.1,0,.3,0,.5,0,.2,0,.4,0,.7,0,0-.1.3,0,.5,0,.3,0,.6-.1.9,0,.1,0,.2,0,.4,0,.1,0,.3,0,.4,0h0Z"/>
      <path d="M68.9,67.4c.4,0,.9.3.7.8,0,.3-.4.5-.7.5-.8.2-1.2-1,0-1.2h0Z"/>
      <path class="st20" d="M68.8,67.7c.2,0,.5,0,.6.2.1.2-.3.5-.5.5-.2.2-.7,0-.6-.4,0-.2.3-.3.5-.4Z"/>
      <path d="M71.7,65.5c.2,0,.9,0,1.1,0,.2,0,.4,0,.6,0,.1,0,.4,0,.3.2,0,.1-.2,0-.3,0-.1,0-.3,0-.4,0,0,0-.2,0-.2,0-.1,0-.1-.1-.3,0,0,0-.2,0-.3,0-.2,0-.4.1-.6,0,0,0-.2,0-.2,0-.3,0-.9.1-1.2,0-.5.2-1.1,0-1.6.2,0,0-.4,0-.4,0,0,0-.1-.2,0-.3,0,0,.1,0,.2,0,.1,0,.2,0,.4,0,.1-.1.4,0,.5,0,0,0,.1,0,.2,0,.1,0,.6,0,.6,0,0,0,0,0,0,0,.1,0,.2,0,.3,0,.1,0,.3,0,.4,0,.2,0,.4,0,.7,0,0,0,0,0,.1,0h0Z"/>
      <path d="M72.3,66.2c.2,0,.4,0,.6,0s.8,0,1,.1c.2.2-.2.3-.3,0-.1,0-.3,0-.4,0-.2.1-.7,0-.9,0-.7,0-1.4.1-2.2.2-.1,0-.3,0-.4,0-.1,0-.2,0-.3,0,0,0-.2,0-.3,0-.2,0-.6.1-.8.1,0,0-.1-.2,0-.2,0,0,.1,0,.2,0,0,0,0,0,.1,0,0,0,.2,0,.3,0,.1-.1.2,0,.3,0,.7,0,1.5-.2,2.2-.2.2,0,1,0,1.1,0h0Z"/>
      <path d="M70.8,67.3c0,0,.3,0,.4,0,.7.2.4,1.1-.2,1.1-.7.3-1.3-.8-.2-1.2Z"/>
      <path class="st20" d="M70.9,67.6c.2,0,.4,0,.6.2.1.2-.2.5-.4.5,0,0-.2,0-.3,0-.6-.2-.3-.6.1-.7Z"/>
      <path d="M72.8,67.2c0,0,.3,0,.4,0,.7.2.4,1.1-.2,1.1-.7.3-1.3-.8-.3-1.2h0Z"/>
      <path class="st20" d="M72.8,67.4c.4,0,.4,0,.7.3,0,.2-.2.4-.4.4-.2.2-.6,0-.7-.3,0-.2.2-.3.4-.4h0Z"/>
      <path d="M73.1,69.8c.5,0,.5.7,0,.7-.2.2-.4-.2-.4-.4,0-.1.3-.2.4-.3Z"/>
      <path d="M68.8,72.2c.6,0,.5.6,0,.6-.2.2-.4-.2-.4-.4,0-.2.3-.2.4-.3h0Z"/>
      <path d="M73.1,68.8c.5,0,.5.6,0,.7-.2.1-.4-.2-.4-.3,0-.2.3-.2.4-.3h0Z"/>
      <path d="M73.1,71.9c.5,0,.5.6,0,.7-.2.2-.4-.1-.4-.3,0-.2.2-.2.4-.3h0Z"/>
      <path d="M71.7,69c.1,0,.3,0,.4.1.1.2-.1.5-.3.5-.2.1-.4-.1-.4-.3,0-.2.3-.2.4-.3Z"/>
      <path d="M68.8,71.2c0,0,.2,0,.2,0,0,0,.1,0,.2.2.1.2-.1.5-.4.5-.2.2-.4-.2-.4-.3,0-.2.3-.2.4-.3h0Z"/>
      <path d="M73.2,70.9c.5,0,.5.7,0,.7-.2.2-.4-.2-.3-.4,0-.1.3-.2.4-.3h0Z"/>
      <path d="M71.8,69.9c.3,0,.4.5,0,.6,0,0-.2,0-.2,0-.2,0-.3-.2-.3-.4,0-.2.3-.2.5-.3h0Z"/>
      <path d="M71.7,72c.1,0,.3,0,.4.1.2.2,0,.5-.3.5-.2.2-.4-.1-.4-.3,0-.2.2-.2.4-.3h0Z"/>
      <path d="M71.8,71c.5.1.3.8-.2.6-.2,0-.3-.2-.3-.4,0-.2.3-.2.5-.3h0Z"/>
      <path d="M68.8,70.2c.1,0,.3,0,.4.1.2.2,0,.5-.3.5-.2.2-.4-.1-.4-.3,0-.1.2-.2.4-.3h0Z"/>
      <path d="M70.2,71.1c.6,0,.4.7,0,.7-.2.1-.4-.2-.4-.4,0-.2.3-.2.4-.3h0Z"/>
      <path d="M70.3,69.1c.6,0,.4.6,0,.6-.2.1-.4-.2-.4-.4,0-.1.3-.2.4-.3h0Z"/>
      <path d="M70.3,72.1c.5,0,.4.7-.1.7-.2.1-.4-.2-.3-.4,0-.1.3-.2.4-.3h0Z"/>
      <path d="M70.3,70.1c.5,0,.4.7,0,.7-.2.1-.3-.2-.3-.4,0-.2.3-.2.4-.3h0Z"/>
      <path d="M68.8,69.2c.1,0,.3,0,.4.2.1.2-.1.5-.4.4-.2.2-.4-.2-.4-.3,0-.1.3-.2.4-.3h0Z"/>
      <path d="M71.6,59.5c.1,0,.3,0,.4,0h0c-.1.1-.3,0-.5,0-.3,0-.6,0-.8,0,0,0-.3,0-.4,0,.2-.1,1.1,0,1.3,0h0Z"/>
      <path d="M73.9,59.4c.2.2.3.8.3,1.1h0c0-.1,0-.3,0-.4,0-.2-.2-.5-.2-.7h0Z"/>
      <path d="M67.5,72.3c.2.4-.1.6.3,1.1,0,0,0,0,0,0-.4-.1-.3-.8-.3-1.2h0Z"/>
      <path d="M73.8,59.9c.1,0,.2.6.1.7,0-.1-.1-.5-.1-.7Z"/>
      <path d="M74.2,72.1c0,.1,0,.8-.1.9h0c0,0,.1-.7.1-.9h0Z"/>
      <path class="st17" d="M68.6,58.4c.5.4,1.2.2,1.8.2.3,0,.6,0,1,0,.1.2.7.2.9.2-.2.1-.5,0-.7,0-.8,0-1.7,0-2.5.2-.6,0-1.3,0-1.7.5-.3.6-.1,1.4-.2,2,0,.5,0,1,0,1.5,0,1.7,0,4.8,0,6.5,0,1.3-.2,2.7.2,4h0c-.2-.1-.2-.5-.3-.7,0,0,0,0,0,0-.1.2,0,.5,0,.7-.2,0-1.4-.6-1.6-.7-.1-.1-.2-.4-.2-.5,0-1.9,0-3.7,0-5.6,0,.1,1,.2,1.1.2.2,0,.4-.3.4-.5.2-1.1,0-2.2,0-3.3,0-.7,0-1.4,0-2.1,0-.2,0-.5-.1-.6-.2-.3-1.1,0-1.4-.4-.3-.8.3-1.2,1.1-1.3,0,0,.2,0,.3,0,.3.3,1.6.2,1.7-.3,0,0,.2,0,.3,0h0Z"/>
      <path d="M67.2,59.4s0,0,0,0c0,.1-.2.6-.2.8,0-.3,0-.5.2-.8h0Z"/>
      <path class="st21" d="M65.2,60.5c.4.2.8.2,1.2.2,0,0,.1,0,.2,0,.2.8,0,1.7.1,2.6,0,.7,0,1.4,0,2.1,0,.3.1,1.4-.4,1.3-.2,0-.9-.2-1-.3,0-.1,0-.3,0-.4,0,.3.5.4.8.3,0-.5.1-.9,0-1.4,0,0-.8-.2-.9-.2,0-.2,0-.5,0-.7.1.3.6.4.9.3,0-.4.1-.8,0-1.2,0-.3-.8-.2-1-.4,0-.2,0-.5,0-.7,0,.3.6.4.9.3,0-.5.2-1,0-1.4-.2,0-.7,0-.8-.2,0,0,0-.1,0-.2h0Z"/>
      <path class="st20" d="M74.7,61c.5,0,.3,3.8,0,4.1,0-.6-.1-3.3,0-4.1Z"/>
      <path class="st21" d="M65,62.8c.2,0,.6,0,.6.3,0,.2.2,1.2-.3.9-.2,0-.2-.3-.2-.4h0c0,0,0,.2-.2.2-.1-.1,0-.7,0-.9,0,0,0-.1.1-.2h0Z"/>
      <path class="st21" d="M65.1,60.8c.2,0,.4.1.5.1,0,.3.3,1.4-.3,1-.1,0,0-.3-.2-.4,0,0,0,.2-.1.2-.2,0,0-.5,0-.6,0-.2,0-.2.2-.4h0Z"/>
      <path class="st21" d="M65.1,64.9c.1,0,.5.2.5.1,0,.4,0,.7,0,1.1,0,0-.2,0-.3,0-.2,0-.1-.3-.2-.3,0,0,0,.1-.1.2h0c-.1-.1,0-.7,0-.9,0,0,0-.1.1-.2h0Z"/>
      <path class="st20" d="M71.6,58.1c.2.1.8.2,1.1.1,0,0,.2-.1.3,0,0,0,0,.2,0,.2-.1.3-.9.2-1.1,0-.2,0-.3-.2-.2-.4h0Z"/>
      <path class="st20" d="M69,58c.1,0,.7,0,.8,0,0,0,.3,0,.4,0,0,0,0,.2,0,.2-.2.2-.9.2-1.2,0,0,0,0-.2,0-.3h0Z"/>
      <path class="st20" d="M70,56.5c.2.2.3.8.2,1.1,0,0,0,0-.1.1h0c0-.1,0-.2,0-.3,0-.2-.2-.8,0-.9h0Z"/>
      <path class="st20" d="M69.7,56.5c.2,0,.2,1.1.2,1.2,0,0,0,0-.1,0-.2-.2,0-1,0-1.2h0Z"/>
      <path class="st22" d="M72.3,56.5c.1,0,.1,1.3.1,1.4,0,0,0,0,0,0-.2-.2-.1-1.2,0-1.4h0Z"/>
      <path class="st20" d="M71.7,56.6c.1.1,0,1.1,0,1.2-.3,0,0-1.1,0-1.2Z"/>
      <path class="st22" d="M72,56.5h0c0,.2,0,1.2,0,1.3h0s0,0,0,0c-.2-.2,0-1.1,0-1.3h0Z"/>
      <path class="st21" d="M65.9,61c.1,0,0,1,0,1.1h0s0,0,0,0c0-.3,0-.6,0-.9,0,0,.1,0,.2,0h0Z"/>
      <path class="st21" d="M65.9,63c.1.1,0,.9,0,1h0s0,0,0,0h0s0-.8,0-1c0,0,.1,0,.2,0h0Z"/>
      <path class="st22" d="M69.4,56.6s0,0,0,0c0,0,0,1,0,1.1,0,0,0,0-.1,0,0-.2,0-.9,0-1.1Z"/>
      <path class="st22" d="M72.5,56.5c0,0,.1,1.2.1,1.3,0,0,0,0,0,0,0-.2-.1-1.1,0-1.4Z"/>
      <path class="st20" d="M72.7,56.5c.1,0,.3,1.2.1,1.2h0c0,0-.1-1.1-.1-1.2Z"/>
      <path class="st22" d="M69.2,56.6c0,.2,0,.4,0,.6,0,.2,0,.3,0,.5,0,0,0,0-.1,0,0-.3,0-.8.2-1.1h0Z"/>
      <path class="st21" d="M65.8,65.1h0c0,.2,0,.9,0,1h0c0,0,0-.8,0-.9,0,0,0,0,.1,0h0Z"/>
      <g>
        <path d="M68.9,61.4v-.3s0-.1,0-.1v.4s0,0,0,0h0ZM69,61.5v.4s0,0,0,0v-.3s0,0,0,0h0Z"/>
        <path d="M69.2,61.4v-.4s0,0,0,0v.3s0,0,0,0h0s0,0,0,0ZM69.7,61.4h0s0,0,0,0h-.3s0,0,0,0h0c0,0,.3,0,.3,0h0ZM69.7,61.3v-.3s0-.1,0-.1v.4s0,0,0,0h0c0,0,0,0,0,0ZM69.8,61.5v.4s0,0,0,0v-.3s0,0,0,0h0s0,0,0,0Z"/>
        <path d="M69.9,61.3v-.4s0,0,0,0v.3s0,0,0,0h0s0,0,0,0ZM70.4,60.9h0c0,.1-.3.1-.3.1h-.1c0,0,.5-.1.5-.1ZM70,61.5v.3s0,.1,0,.1v-.4s0,0,0,0h0c0,0,0,0,0,0ZM70.5,61.8h-.5s0,0,0,0h.3s.1,0,.1,0ZM70.4,61.3h0s0,0,0,0h-.3s0,0,0,0h0c0,0,.3,0,.3,0h0ZM70.5,61.4v.4s0,0,0,0v-.3s0,0,0,0h0Z"/>
        <path d="M70.7,61.8h0c0,0,0-.1,0-.1h0c0,0,0,.1,0,.1Z"/>
        <path d="M70.9,61.3v-.4s0,0,0,0v.3s0,0,0,0h0s0,0,0,0ZM71.4,60.8h0c0,.1-.3.1-.3.1h-.1c0,0,.5-.1.5-.1ZM71.5,61.7h-.5s0,0,0,0h.3s.1,0,.1,0ZM71.3,61.2h0s0,0,0,0h-.3s0,0,0,0h0c0,0,.3,0,.3,0h0ZM71.4,61.3v.4s0,0,0,0v-.3s0,0,0,0h0Z"/>
        <path d="M72.1,60.8h0c0,.1-.3.1-.3.1h-.1c0,0,.5-.1.5-.1ZM71.7,61.3v.3s0,.1,0,.1v-.4s0,0,0,0h0c0,0,0,0,0,0ZM72.2,61.7h-.5s0,0,0,0h.3s.1,0,.1,0ZM72,61.2h0s0,0,0,0h-.3s0,0,0,0h0c0,0,.3,0,.3,0h0ZM72,61.2v-.3s0-.1,0-.1v.4s0,0,0,0h0c0,0,0,0,0,0Z"/>
        <path d="M72.4,61.1h0c0,0,0,0,0,0v-.4s0,0,0,0v.3s0,0,0,0ZM72.8,60.7h0c0,.1-.3.1-.3.1h-.1c0,0,.5-.1.5-.1ZM72.4,61.6h0c0,.1,0-.3,0-.3h0s0,0,0,0v.3s0,0,0,0ZM72.9,61.6h-.5s0,0,0,0h.3s.1,0,.1,0ZM72.8,61.1h0s0,0,0,0v-.3s0-.1,0-.1v.4s0,0,0,0ZM72.9,61.6h-.1c0,0,0-.4,0-.4h0c0,0,0,0,0,0v.4s0,0,0,0Z"/>
      </g>
    </g>
  </g>
  <path class="st25" d="M22.8,32.4"/>
  <g class="st18">
    <path class="st12" d="M43.4,53s0,0,0,0h0c0,0,0,0-.1,0l-.2-.3s0,0,0,0c0,0,0,0-.1,0h0s0,.4,0,.4c0,0,0,0,0,0h0s0,0,0,0v-1.1s0,0,.1,0h0s0,0,0,0v.4s0,0,0,0h0s.3-.4.3-.4c0,0,0,0,.1,0h.1s0,0,0,0l-.4.5c0,0,.1,0,.2.2l.2.4Z"/>
    <path class="st12" d="M44,51.9c.3,0,.5.2.5.5v.3c0,.3-.2.4-.5.4h-.4s0,0,0,0v-1.1s0,0,.1,0h.4ZM44.3,52.4c0-.2,0-.2-.3-.3h-.2s0,.8,0,.8h.2c.2,0,.3,0,.3-.2v-.3Z"/>
    <path class="st12" d="M45.4,52s0,0,0,0h0c0,0,0,.1,0,.1l-.5.9s0,0-.1,0h0s0,0,0,0l.5-.9h-.5s0,0,0,0h0c0-.1,0-.1,0-.1h.7Z"/>
    <path class="st12" d="M46.1,52c.2,0,.3.1.3.3,0,.1,0,.2-.1.2h0c.1,0,.2.1.2.3,0,.2-.2.3-.4.3h-.5s0,0,0,0v-1.1s0,0,.1,0h.5ZM46.1,52.7h-.3s0,.3,0,.3h.3c.1,0,.2,0,.2-.1,0-.1,0-.2-.1-.2ZM46.1,52.5c0,0,.2,0,.2-.1,0,0,0-.1-.1-.2h-.3s0,.3,0,.3h.3Z"/>
    <path class="st12" d="M47.2,52c.2,0,.3.1.3.3,0,.1,0,.2-.1.2h0c.1,0,.2.1.2.3,0,.2-.2.3-.4.3h-.5s0,0,0,0v-1.1s0,0,.1,0h.5ZM47.2,52.7h-.3s0,.3,0,.3h.3c.1,0,.2,0,.2-.1,0-.1,0-.2-.1-.2ZM47.1,52.5c0,0,.2,0,.2-.1,0,0,0-.1-.1-.2h-.3s0,.3,0,.3h.3Z"/>
    <path class="st12" d="M47.7,52.5c0-.3.2-.4.5-.4.2,0,.4.1.4.3,0,0,0,0,0,0h0s0,0,0,0c0-.1-.1-.2-.2-.2-.2,0-.3,0-.3.2v.4c0,.2,0,.2.2.2.1,0,.2,0,.3-.1,0,0,0,0,0,0h0s0,0,0,.1c0,.2-.2.3-.5.3-.3,0-.5-.2-.5-.4v-.4Z"/>
  </g>
</svg>