<?xml version="1.0" encoding="UTF-8"?>
<svg id="Layer_1" xmlns="http://www.w3.org/2000/svg" version="1.1" viewBox="0 0 80 115">
  <!-- Generator: Adobe Illustrator 29.4.0, SVG Export Plug-In . SVG Version: 2.1.0 Build 152)  -->
  <defs>
    <style>
      .st0 {
        fill: none;
      }

      .st1 {
        fill: #eeb552;
      }

      .st2 {
        fill: #111;
      }

      .st3 {
        fill: #fefdfd;
      }

      .st4 {
        opacity: .5;
      }

      .st4, .st5 {
        fill: #402f1e;
      }

      .st6 {
        fill: #ff9106;
      }

      .st7 {
        fill: #dcddde;
      }

      .st8 {
        fill: #06cd0f;
      }

      .st9 {
        fill: #606060;
      }

      .st10 {
        fill: #1a373a;
      }

      .st11 {
        fill: #19130c;
        opacity: .6;
      }

      .st12 {
        fill: #fff;
      }

      .st13 {
        fill: #eb9700;
      }

      .st14 {
        fill: #d5bc2a;
      }

      .st15 {
        fill: #7f5330;
      }

      .st16 {
        fill: #654b30;
      }

      .st17 {
        fill: #ad6f00;
      }

      .st18 {
        opacity: .8;
      }

      .st19 {
        fill: #e5b797;
      }

      .st20 {
        fill: #858585;
      }

      .st21 {
        fill: #5e5e5e;
      }

      .st22 {
        fill: #abaaaa;
      }

      .st23 {
        fill: #b6593b;
      }

      .st24 {
        fill: #e5aa82;
      }

      .st25 {
        fill: #8e403c;
      }

      .st26 {
        fill: #7ab2c3;
      }
    </style>
  </defs>
  <path class="st16" d="M56.48,12.406c-.281-1.712-1.325-3.131-2.65-4.198-.41-.329-.879-.598-1.266-.962-.914-.868-1.465-1.583-2.556-2.357-3.576-2.545-9.768-3.53-14.107-3.307v.002l-.082-.082c-3.202.34-5.101,1.02-7.517,3.201-2.052.094-3.917,1.126-5.289,2.615-2.615,2.85-3.155,7.188-2.967,10.894.011.434.058.868.117,1.302-1.208,1.056-1.9,1.959-2.017,3.612-.141,2.122.258,4.327,1.712,5.957.716.798,1.595,1.29,2.674,1.349.234.011.48.011.715-.012-.012.832.152,1.583.328,2.392-.012.024-.023.036-.035.059l.297,4.085c.858.886,2.085,2.104,3.631,3.483,2.249,2.006,3.687,3.026,4.288,3.441,0,0,3.181,2.198,5.292,2.439.458.052,1.02.096,1.02.096.716.055,1.271.076,1.389.079,1.192.033,3.096-.32,3.802-.522,1.861-.531,5.229-2.84,8.032-7.039,1.598-2.91,2.281-6.072,2.34-9.371.024-1.384-.035-2.779.094-4.163.188-2.053.716-4.034.751-6.11,1.36-1.877,2.392-4.515,2.005-6.884ZM47.851,30.177c-.169.406-.738,1.124-1.329,1.649-.03.026-.053.047-.088.076-.649.546-1.335.722-1.777.83-.736.18-1.384.182-1.84.145-.164-.013-.982-.087-1.964-.51-.424-.183-.764-.381-1.01-.542-.926-.577-1.12-1.005-1.089-1.306.134-1.302,4.571-1.176,5.127-3.152.264-.94-.583-1.524-.115-2.801.275-.749.916-1.499,1.333-1.395.258.064.359.438.475.829.286.964.698,1.886,1.013,2.84.752,2.278,1.578,2.577,1.262,3.337Z"/>
  <path class="st5" d="M45.576,23.999c-.116-.391-.217-.765-.475-.829-.417-.104-1.058.646-1.333,1.395-.468,1.276.379,1.861.115,2.801-.556,1.976-4.994,1.85-5.127,3.152-.031.301.164.729,1.089,1.306.246.161.585.359,1.01.542.982.423,1.799.496,1.964.51.456.037,1.104.035,1.84-.145.442-.108,1.128-.284,1.777-.83.034-.029.058-.05.088-.076.591-.525,1.16-1.243,1.329-1.649.316-.761-.509-1.059-1.262-3.337-.315-.954-.727-1.877-1.013-2.84Z"/>
  <polygon class="st12" points="60.237 73.889 33.864 76.834 24.146 68.612 49.921 65.581 60.237 73.889"/>
  <path class="st0" d="M54.321,70.393c-.797.41-1.782,1.067-2.709.751-.176-.059-.305-.176-.446-.305-.481.293-1.032.575-1.607.41-.352-.094-.598-.481-.903-.551-.293-.07-1.618.879-2.404-.622-.07-.141-.117-.317-.152-.469-.516-.082-1.044-.223-1.384-.668-.446-.598-.281-1.372-.176-2.04l.023-.152c-.211,0-.422.012-.633.035-.891.07-1.794.117-2.685.246h.038c-.106.281-.328.657-.328.95,0,.774.528,1.9.739,2.685.246.938.481,1.888.715,2.838-1.571-.762-3.119-1.876-4.233-3.213-.223.364-.586.926-1.032,1.008-.211.035-.469-.023-.657.059-1.067.457-.809,1.184-2.463.985-.973.575-1.7.692-2.791.41-.938-.246-1.841-.61-2.791-.833l.082.059c1.22.797,2.803,2.322,3.975,3.307.446.375.891.809,1.395,1.079.129.07.258.094.399.094,1.888.023,3.799-.457,5.687-.551,6.532-.797,13.11-1.325,19.63-2.24-1.02-.493-1.958-1.137-2.92-1.736-.797-.493-1.63-.962-2.369-1.536Z"/>
  <path class="st0" d="M49.679,61.528c.152-.023.293-.141.422-.223.504-.328,1.126-.668,1.255-1.302.082-.422-.047-.879-.293-1.231-.223-.317-.481-.657-.774-.903v-.011c-.199.715-.95,2.967-.774,3.588.059.047.082.094.164.082Z"/>
  <path class="st5" d="M76.943,73.046c-.141-.821-.587-1.126-1.22-1.56-1.923-1.314-3.929-2.498-5.887-3.741-2.463-1.56-4.914-3.19-7.482-4.562.622-.833.845-1.771,1.126-2.756s.621-1.841.469-2.885c-.117-.809-.328-1.735-.844-2.392-.211-.27-.516-.504-.668-.809-.422-.821-.751-1.688-1.161-2.521-.657-1.349-1.396-2.651-2.123-3.964-1.455-2.603-3.073-5.863-5.512-7.657-.715-.527-1.548-.879-2.392-1.184.015-.027.027-.054.041-.081-2.804,4.198-6.172,6.507-8.032,7.039-.706.202-2.61.555-3.802.522-.119-.003-.673-.024-1.389-.079,0,0-.562-.044-1.02-.096-2.111-.241-5.292-2.439-5.292-2.439-.601-.415-2.038-1.435-4.288-3.441-1.546-1.379-2.773-2.597-3.631-3.483l-.297-4.085c-.528.798-1.255,1.302-1.595,2.24-.117.34-.164.692-.258,1.044-1.418.481-2.767,1.138-4.139,1.736-3.518,1.548-6.039,2.568-7.915,6.18-1.512-.012-4.01-.2-5.136.973-.329.34-.528.856-.622,1.313-.375,1.829-.258,4.562-.258,6.473,0,1.548-.07,3.119.012,4.667.035.797.187,1.465.809,2.04.34.317.739.528,1.173.692-.012,1.935.481,2.533,1.243,4.21-.164.117-.434.117-.633.129-1.149.082-2.838-.105-3.131,1.337-.141.692-.153,2.979-.012,3.659.012.071.036.153.059.223.023.082.047.153.082.223.036.07.071.141.106.211.035.07.07.14.117.199.668.962,1.994,1.536,2.873,2.287.036,1.137-.175,3.494.106,4.456.129.41.363.762.668,1.055.258.247.586.446.891.657l-1.478,16.664c-.094,1.255-.2,2.522-.317,3.788-.094.949-.234,1.934-.211,2.896.012.469.094.856.399,1.22.035.047.082.094.117.129.047.047.082.082.129.117.047.036.095.083.141.106.046.023.105.059.152.082.046.023.094.046.152.07.058.024.105.047.164.059.047.012.105.035.164.035.059.011.117.023.176.023.469.035.879-.082,1.231-.387.363-.316.539-.68.633-1.137.222-1.02.246-2.122.328-3.166.129-1.337.258-2.662.387-3.987l.833-8.49c.176-1.759.375-3.518.469-5.277v-.094c2.486,1.735,4.82,3.717,7.247,5.523.915.68,1.842,1.454,2.85,1.982-.129,1.313-.153,2.627-.223,3.94l-.469,8.314c-.14,2.31-.258,4.609-.375,6.919-.059,1.219-.199,2.474-.129,3.682.023.352.176.692.387.962.035.047.082.082.117.129.047.035.082.082.129.117.047.036.095.071.141.106.046.035.105.071.152.094.046.023.094.046.152.07s.105.047.164.059c.047.024.105.035.164.047.059.011.117.023.176.023.457.046.961-.059,1.313-.364.364-.305.54-.763.622-1.22.141-.762.129-1.571.176-2.345l.293-4.515.493-7.4c.141-2.685.305-5.37.493-8.044.774-.023,1.536-.046,2.298-.152-.035,2.064-.082,4.151-.152,6.215-.035.833-.176,2.803-.082,3.53.058.398.504.75.539,1.102.035.27-.235.81-.305,1.091-.316,1.243-.715,3.447-.375,4.655.129.469.399.891.739,1.243.563.575,1.125,1.056,1.958,1.126,2.31,2.322,4.937,3.764,8.291,3.776,1.935,0,4.714-.434,6.145-1.9.505-.516.809-1.208.786-1.935-.035-1.079-.445-2.123-.973-3.061-1.243-1.911-3.33-2.791-4.796-4.491.434-.305.622-.563.704-1.079.222-1.325.281-2.697.41-4.034.27-2.497.516-4.995.739-7.493,1.829-.176,3.764-.235,5.57-.563-.328,1.56-.469,3.284-.692,4.867l-.434,3.119c-.059.516-.176,1.055-.176,1.571-.011.316.106.609.27.879.035.059.07.117.117.176-.868,1.067-1.008,2.052-1.114,3.401-.047.539-.117,1.091-.047,1.63.082.715.422,1.196.985,1.618.692.528,2.568,1.689,3.436,1.583.129-.011.258-.035.375-.07,2.498,2.134,5.512,3.037,8.772,2.791,1.618-.117,3.741-.493,4.855-1.806.493-.598.715-1.313.645-2.087-.118-1.208-.868-2.451-1.818-3.213-1.407-1.137-3.225-1.63-4.491-3.002.211-.246.492-.516.598-.821.27-.762.305-1.712.446-2.521.364-2.076.704-4.152,1.032-6.239.152-1.008.234-2.251.504-3.213.786-.117,1.595-.176,2.381-.258l3.6-.434c.938-.106,1.888-.188,2.814-.387.059,1.267.165,2.522.235,3.788l.598,10.495.328,5.476c.047.974.012,2.029.176,2.979.071.41.223.786.528,1.067.34.305.833.457,1.29.422.059-.011.117-.023.176-.023.047-.012.105-.023.164-.035.058-.024.105-.036.164-.059.046-.023.105-.047.152-.07.058-.023.105-.047.152-.082.047-.036.094-.071.141-.106.047-.035.094-.07.129-.117s.082-.082.117-.129c.317-.364.411-.739.446-1.208.059-.786-.023-1.595-.07-2.381l-.176-3.483-.598-11.211-.223-4.292c-.035-.645-.094-1.29-.094-1.947.856-.75,1.184-1.489,1.266-2.615.082-.974.035-1.959.035-2.932.915-.141,2.017-.328,2.615-1.114.211-.281.328-.598.41-.926.188-.82.247-2.837.106-3.67ZM50.289,57.858h0s0,0,0,0v.011c.293.246.551.586.774.903.246.352.375.809.293,1.231-.129.634-.751.974-1.255,1.302-.129.082-.27.2-.422.223-.082.012-.105-.035-.164-.082-.176-.621.575-2.873.774-3.588ZM39.98,75.905c-1.888.094-3.799.574-5.687.551-.141,0-.27-.024-.399-.094-.504-.27-.949-.704-1.395-1.079-1.172-.985-2.755-2.51-3.975-3.307l-.082-.059c.95.223,1.853.587,2.791.833,1.091.282,1.818.165,2.791-.41,1.654.199,1.396-.528,2.463-.985.188-.082.446-.024.657-.059.446-.082.809-.644,1.032-1.008,1.114,1.337,2.662,2.451,4.233,3.213-.234-.95-.469-1.9-.715-2.838-.211-.785-.739-1.911-.739-2.685,0-.293.222-.669.328-.95h-.038c.891-.129,1.794-.176,2.685-.246.211-.023.422-.035.633-.035l-.023.152c-.105.668-.27,1.442.176,2.04.34.445.868.586,1.384.668.035.152.082.328.152.469.786,1.501,2.111.552,2.404.622.305.07.551.457.903.551.575.165,1.126-.117,1.607-.41.141.129.27.246.446.305.927.316,1.912-.341,2.709-.751.739.574,1.572,1.043,2.369,1.536.962.599,1.9,1.243,2.92,1.736-6.52.915-13.098,1.443-19.63,2.24Z"/>
  <path class="st19" d="M31.972,11.796c.352.293.715.539,1.126.739,1.36.657,2.803.645,4.21.152.199.129.399.258.61.375,1.923,1.149,4.151.926,6.239.399.504.246.997.457,1.548.563,2.123.399,4.198-.68,5.887-1.853,1.22,2.205,1.9,3.799,1.97,6.379.07,2.298-.504,4.585-.715,6.872-.235,2.427.059,4.867-.645,7.235-.328,1.091-.879,1.865-1.653,2.697-.07-.833-.258-1.63-.833-2.275-.856-.973-2.064-1.091-3.272-1.184.317-.387.575-.774.727-1.255.493-1.642-.493-2.943-1.196-4.315-.141-.293-.27-.598-.364-.915-.152-.516-.164-1.419-.575-1.794-.129-.012-.223,0-.328.094-.281.246-.246.668-.199.997.164,1.161.68,2.076,1.243,3.072.164.293.364.598.493.915.152.375.235.821.199,1.231,0,.035,0,.082-.012.117,0,.035,0,.082-.023.117,0,.035-.012.082-.023.117,0,.035-.023.07-.035.117,0,.035-.023.07-.035.117-.012.035-.023.07-.035.106s-.035.07-.047.106c-.012.035-.035.07-.047.106-.023.035-.035.07-.059.106s-.035.07-.059.094c-.023.035-.047.07-.07.094-.023.035-.047.059-.07.094s-.047.059-.082.094l-.082.082-.082.082c-.023.023-.059.047-.094.07-1.079.891-3.201.833-4.409.199-.41-.211-.786-.903-1.243-.938-.188.059-.211.059-.328.199-.07.34.047.539.235.821-.539-.094-1.091-.152-1.63-.246-1.243-.211-2.439-.575-3.659-.094-1.407.551-2.216,1.759-2.791,3.096-.152-.07-.305-.152-.446-.235-.152-.082-.293-.164-.434-.258-.141-.094-.281-.176-.422-.281-.141-.094-.27-.199-.41-.293-.129-.106-.258-.211-.387-.317-.129-.106-.258-.223-.375-.34s-.246-.235-.352-.352c-.117-.117-.235-.246-.34-.375-3.119-3.659-.809-8.232-.469-12.383,2.545-2.627,3.084-4.526,3.858-7.939l-.012-.012h-.003Z"/>
  <path class="st11" d="M37.613,18.351c1.091,0,2.322.223,3.154.985.293.258.551.633.563,1.044,0,.199-.07.387-.211.528-.129.129-.317.211-.504.199-.469-.023-1.008-.223-1.478-.34-.739-.176-1.478-.223-2.24-.199-.539.07-1.055.152-1.571.293-.457.129-.903.305-1.36.399-.199.047-.34.059-.516-.047-.047-.07-.094-.141-.106-.223-.059-.399.152-.821.399-1.114.903-1.055,2.545-1.442,3.87-1.524h0Z"/>
  <path class="st11" d="M48.53,19.512c.375-.035.774-.035,1.149,0,.915.07,1.947.528,2.545,1.243.281.34.434.797.364,1.243-.023.164-.094.258-.223.364-.399.106-.833-.188-1.184-.352-.856-.375-1.689-.481-2.615-.481-.539,0-1.067.035-1.595-.129-.094-.094-.176-.223-.199-.352-.035-.188.023-.364.129-.528.364-.586.973-.856,1.618-.997l.012-.012h0Z"/>
  <path class="st5" d="M36.733,24.73c.281-.023.551-.035.833-.012.563.035,1.302.211,1.677.668.176.211.281.598.211.868-.035.152-.07.176-.199.258-.551.082-1.102-.469-1.63-.61-.023,0-.047,0-.07-.012-.364-.047-.727-.07-1.091,0-.551.129-1.067.68-1.642.586-.07-.059-.117-.07-.141-.176-.047-.258.082-.575.235-.786.375-.528,1.196-.692,1.794-.786h.023v.002Z"/>
  <path class="st5" d="M48.8,25.493c.598-.012,1.149.094,1.607.516.235.223.305.528.305.844,0,.152-.035.211-.141.317-.446.094-1.055-.446-1.524-.539h-.059c-.422,0-.856.012-1.22.235-.141.082-.293.211-.434.27-.082.035-.152.059-.235.012-.141-.082-.27-.305-.305-.457-.035-.141.012-.27.094-.387.364-.551,1.313-.739,1.911-.809h0v-.002Z"/>
  <path class="st25" d="M21.735,36.973l.035.035c.293,2.216.95,4.351,1.548,6.497.34,1.22.61,2.486,1.091,3.647.129.305.281.704.61.833,1.102-.012,4.62-1.888,5.816-2.486.293.422.551.856.891,1.243,1.29,1.489,3.342,1.595,5.054,2.357-.164,1.02-.481,2.005-.692,3.025-.27,1.313-.352,2.685-.551,4.022-.164,1.102-.457,2.205-.551,3.319-.586-.938-1.22-1.841-1.818-2.767-.516-.797-.985-1.63-1.501-2.427-.34-.516-.715-.997-1.067-1.501-.281-.41-.481-.95-.833-1.302-.176-.176-.528-.293-.751-.387-.586.152-1.266.305-1.794.61-.281.164-.516.387-.598.704-.117.493.07,1.044.293,1.478.516,1.02,1.36,1.911,2.017,2.85,1.126,1.595,2.193,3.225,3.272,4.843-.622.152-1.255.258-1.876.422-.645.176-1.278.422-1.911.622-.246.082-.575.199-.833.152-.504-.082-1.02-.364-1.501-.551-1.771-.715-3.53-1.466-5.23-2.334l-.575-.293c0-.844-.023-1.712.047-2.568.258-2.814.95-5.676.504-8.514-.399-2.533-1.513-4.562-3.588-6.063-.246-.176-.586-.446-.891-.399-.082.164-.035.293.059.446.211.34.68.668.973.95,1.102,1.044,1.724,2.099,2.228,3.518.868,2.427.586,5.101.235,7.611-.094.668-.305,1.524-.223,2.181,0,.035,0,.059.012.094l-.059.07c-.399-.504-1.231-.962-1.829-1.184-3.6-1.337-6.837-.563-10.179.985.117-1.137.152-2.275.305-3.412.281-2.111.856-4.198,1.501-6.215,2.287-7.071,6.672-7.224,12.372-10.132l-.012.023v-.002Z"/>
  <path class="st14" d="M7.206,73.326c.668.27,1.911,1.372,2.556,1.829l6.989,5.089c1.161.844,2.322,1.818,3.577,2.51.715.399,1.454.645,2.24.856.023.739-.129,3.002.047,3.518.047.117.094.164.223.211.141.047.258,0,.375-.07.258-.493.106-2.908.106-3.635,1.888.223,3.952-.094,5.84-.246,3.178-.258,6.344-.551,9.51-.879,5.547-.528,11.105-1.079,16.652-1.677,5.898-.575,11.785-1.231,17.672-1.994v1.571c0,.962.023,2.181-.727,2.896-.668.633-1.724.821-2.603.973-3.459.622-7.095.891-10.589,1.278-6.649.727-13.298,1.407-19.959,2.017-2.709.258-5.429.516-8.138.809-2.263.235-4.597.528-6.884.457-.751-.023-1.595-.141-2.275-.504-.786-.422-1.548-1.091-2.263-1.63l-4.667-3.565-4.89-3.682c-.797-.598-1.9-1.266-2.545-2.005-.551-.633-.317-3.283-.27-4.151l.023.023h0Z"/>
  <path class="st25" d="M50.758,39.87c.34.07.668.152.985.281,1.173.457,2.181,1.313,2.99,2.263,1.091,1.278,1.923,2.896,2.767,4.339.891,1.501,1.747,3.025,2.58,4.562.469.868.962,1.736,1.36,2.638-1.829-.246-3.753-.082-5.476.598-1.677.668-3.541,1.958-4.268,3.67-.422-.528-.786-1.208-1.032-1.829.129-.938.375-1.876.551-2.803.375-1.97.622-3.928.668-5.934.012-.598.082-1.478-.235-1.994-.176.199-.246.539-.293.797-.211,1.243-.235,2.556-.375,3.811-.176,1.548-.504,3.084-.809,4.609-.516,2.31-1.102,4.655-1.771,6.93-.891.082-1.771.199-2.662.27-2.85.223-5.699.469-8.549.751-.457-.774-1.091-1.536-1.313-2.427-.27-1.02.328-3.131.481-4.292.188-1.454.235-3.835.809-5.089.833-1.794,5.652-2.064,7.118-4.632.786.246,2.298,1.595,3.002,1.478.164-.023.258-.07.364-.211.375-.493-.246-3.366-.375-4.057,1.161-1.255,2.427-2.369,3.483-3.717v-.012Z"/>
  <path class="st5" d="M37.413,57.729c.152-.012.317-.023.469,0,.246.047.481.211.61.422.129.211.164.481.094.715-.106.364-.328.528-.645.704h-.258c-.317-.035-.61-.094-.809-.375-.141-.199-.176-.446-.129-.68.082-.41.317-.598.657-.809l.012.023h-.001Z"/>
  <path class="st25" d="M37.625,58.222c.059,0,.129.012.176.035.152.07.164.141.211.293-.035.223-.129.352-.258.528-.07,0-.176-.023-.235-.07-.117-.07-.176-.176-.176-.317,0-.211.129-.328.27-.469,0,0,.012,0,.012,0Z"/>
  <path class="st5" d="M37.976,51.362h.457c.012,0,.023,0,.035.012.012,0,.023,0,.035.012.012,0,.023,0,.035.012.012,0,.023.012.035.023.012,0,.023.012.035.023.012,0,.023.012.035.023.012,0,.023.012.035.023,0,0,.023.012.035.023,0,0,.023.023.035.023,0,0,.023.023.035.023l.035.035s.023.023.023.035c0,0,.023.023.023.035,0,0,.012.023.023.035,0,0,.012.023.023.035,0,.012.012.023.023.035,0,.012.012.023.023.035,0,.012.012.023.023.035,0,.012,0,.023.012.035,0,.012,0,.023.012.035,0,.012,0,.023.012.035v.516c0,.012,0,.023-.012.035,0,.012,0,.023-.012.035,0,.012,0,.023-.012.035,0,.012,0,.023-.012.035,0,.012-.012.023-.023.035,0,.012-.012.023-.023.035s-.012.023-.023.035c0,.012-.012.023-.023.035,0,0-.012.023-.023.035,0,0-.023.023-.023.035,0,0-.023.023-.023.035,0,0-.023.023-.035.023,0,0-.023.023-.035.023,0,0-.023.023-.035.023,0,0-.023.012-.035.023-.012,0-.023.012-.035.023-.012,0-.023.012-.035.023-.012,0-.023.012-.035.023s-.023.012-.035.012-.023,0-.035.012c-.012,0-.023,0-.035.012h-.035c-.023,0-.035,0-.059.012h-.352c-.023,0-.035,0-.059-.012-.023,0-.035,0-.059-.023-.023,0-.035-.012-.059-.023-.023,0-.035-.012-.059-.023s-.035-.023-.047-.023-.035-.023-.047-.035c-.012,0-.035-.023-.047-.035s-.035-.023-.047-.035l-.047-.047c-.012-.012-.023-.023-.035-.047-.012-.012-.023-.035-.035-.047,0-.012-.023-.035-.035-.047,0-.012-.023-.035-.035-.047,0-.012-.023-.035-.023-.059s-.012-.035-.023-.059c0-.023-.012-.035-.023-.059,0-.023,0-.035-.012-.059v-.352c0-.023,0-.035.012-.059,0-.023,0-.035.012-.059,0-.023.012-.035.023-.059,0-.023.012-.035.023-.059,0-.023.023-.035.023-.047s.023-.035.035-.047c0-.012.023-.035.035-.047s.023-.035.035-.047.023-.023.035-.047.023-.023.047-.035c.012-.012.035-.023.047-.035s.035-.023.047-.035c.012,0,.035-.023.047-.035.012,0,.035-.023.047-.023.023,0,.035-.012.059-.023.023,0,.035-.012.059-.023.023,0,.035,0,.059-.012.023,0,.035,0,.059-.012l-.047.035v.009Z"/>
  <path class="st25" d="M37.976,51.889c.012,0,.023-.012.047-.023.012,0,.035,0,.047-.012h.188c.012,0,.035,0,.047.012.012,0,.023.012.047.023.012,0,.023.023.035.023s.023.023.035.035c0,.012.023.023.035.035,0,.012.023.023.023.047,0,.012.012.023.023.047,0,.012,0,.035.012.047v.141c0,.012,0,.035-.012.047,0,.012,0,.035-.023.047,0,.012-.012.023-.023.047,0,.012-.023.023-.035.035,0,.012-.023.023-.035.035-.012,0-.023.023-.035.023s-.023.012-.047.023c0,0-.023,0-.035.012h-.246s-.023,0-.035-.012c0,0-.023,0-.035-.012,0,0-.023-.012-.023-.023,0,0-.023-.012-.023-.023l-.023-.023-.023-.023s-.012-.023-.023-.023c0,0-.012-.023-.012-.035s0-.023-.012-.035v-.281s0-.023.012-.035c0,0,0-.023.012-.035,0,0,.012-.023.023-.023s.012-.023.023-.023l.023-.023.023-.023s.023-.012.023-.023l.023.035v-.004Z"/>
  <path class="st26" d="M61.91,63.968c.106.023.211.059.317.094.997.34,1.982,1.079,2.873,1.642l3.354,2.111c2.322,1.466,4.831,2.885,7.059,4.468.211.152.539.387.633.633.015.039.011.078-.012.117-.281.469-2.134.786-2.662.879-2.627.481-5.347.692-8.009.997-5.875.68-11.774,1.255-17.66,1.829l-14.084,1.442c-2.767.27-5.558.586-8.338.68-.809.023-1.642.012-2.427-.199-2.076-.563-5.429-3.225-7.271-4.538-1.947-1.419-3.917-2.814-5.887-4.198-.891-.645-5.429-3.717-5.641-4.198l.047-.117c.727-.293,2.791-.305,3.659-.364.176.328.387.645.633.915,2.803,3.154,12.794,3.612,16.816,3.858.997,1.102,2.275,2.04,3.412,3.002,1.454,1.243,3.483,3.201,5.066,4.128.903.035,1.853-.117,2.756-.211,1.97-.199,3.928-.434,5.887-.645l10.484-1.137c1.747-.188,3.495-.387,5.242-.61.586-.07,1.173-.094,1.759-.188.199-.035.41-.082.586-.188.176-.094.258-.211.317-.399-.152-.622-5.007-3.377-5.734-3.893.364-.317.844-.539,1.243-.797,1.173-.762,2.017-1.853,2.603-3.108,1.278-.668,1.911-1.055,2.99-2.04l-.012.035h.001Z"/>
  <path class="st26" d="M3.911,66.653c.27.176.516.41.786.61.762.551,1.548,1.091,2.322,1.642l8.033,5.734c2.123,1.524,5.394,4.21,7.88,4.796.997.235,2.005.258,3.025.211,3.483-.152,6.966-.551,10.425-.903l14.951-1.536,14.529-1.536c2.756-.317,5.547-.575,8.267-1.067.727-.129,1.407-.281,2.04-.668,0,1.008.07,2.123-.258,3.084-.082.117-.164.223-.258.317-.563.551-2.076.645-2.838.762-3.964.622-8.009.973-12.008,1.395l-17.367,1.794-12.09,1.161c-2.322.211-4.679.493-7.013.504-1.196,0-2.193-.129-3.272-.68-1.478-.762-2.943-2.005-4.292-2.99l-6.942-5.054-3.565-2.545c-.633-.457-1.384-.903-1.935-1.466-.164-.164-.328-.364-.399-.598-.199-.657-.047-2.193-.035-2.943l.012-.023h.002Z"/>
  <path class="st19" d="M14.089,59.101c.598-.07,1.278-.047,1.888.023.797.082,1.548.317,2.31.598,1.771.657,3.401,1.583,5.125,2.334.739.328,1.489.622,2.252.891.434.164.915.293,1.337.481.164.07.281.235.387.364,1.208-.328,2.345-.856,3.565-1.137,2.099-.481,3.776-.106,5.57,1.032,1.513.962,3.084,2.439,3.495,4.257-.106.246-.235.457-.422.657-.176.188-.434.399-.715.387-.41-.012-1.091-1.079-1.372-1.407-.598-.704-2.451-2.627-3.389-2.709-.141.082-.152.106-.223.258.012.129,0,.188.094.281.235.246.657.41.938.633.844.657,2.205,1.923,2.615,2.885.117.281.176.598.047.891-.164.375-.539.586-.903.727-1.36-1.278-2.416-2.967-4.28-3.717-.211-.012-.223-.012-.41.106-.035.129-.059.141.023.258.223.317.692.575,1.008.821.633.481,2.533,1.947,2.627,2.638.023.176-.047.328-.164.446-.152.164-.469.375-.704.364-.633-.023-3.295-2.744-4.245-2.65-.117,0-.199.023-.27.129.059.751,2.967,1.841,3.143,2.615.012.059.012.07-.023.117-.152.211-.539.375-.797.422-.856.129-4.597-1.137-5.418-1.595-.586-.328-1.137-1.02-1.794-1.184-.997-.246-2.205-.141-3.225-.235-3.225-.281-10.038-.985-12.583-2.955-.657-.504-1.055-1.114-1.161-1.947-.106-.891-.352-2.123.27-2.861,1.255-1.489,3.565-2.064,5.418-2.228l-.012.012-.002-.002Z"/>
  <path class="st10" d="M28.361,89.45c1.349-.199,2.767-.246,4.116-.387,2.662-.27,5.312-.575,7.974-.809-.211,1.759-.352,3.53-.516,5.289-.07.751-.117,1.524-.235,2.275-.047.516-.082,1.044-.164,1.56-.094.809-.106,1.665-.317,2.463-.012.012-.035.035-.047.047-1.419,1.255-4.069,1.407-5.875,1.349-1.384-.047-3.882-.551-4.843-1.642-.188-.211-.223-.422-.246-.692-.129-1.149,0-2.416.035-3.577.035-1.958.035-3.917.129-5.863l-.012-.012h.001Z"/>
  <path class="st10" d="M59.026,86.366c.141-.023.07-.035.199.035,0,.633-1.653,11.07-1.9,11.574-.211.422-.715.68-1.137.833-2.451.868-6.332.739-8.666-.364-.528-.258-.903-.563-1.266-1.02.129-1.313.352-2.615.539-3.928.27-1.958.539-3.928.833-5.887,1.302-.094,2.592-.27,3.893-.41,2.51-.27,5.007-.539,7.505-.833h0Z"/>
  <path class="st19" d="M58.31,57.108c.973-.129,2.169,0,3.025.516.598.364.973.903,1.114,1.583.399,1.911-.751,4.081-2.287,5.171-.563.399-1.313.645-1.818,1.126-.305.281-.434.797-.68,1.149-.387.575-.938,1.114-1.478,1.56-.774.645-2.873,2.017-3.835,2.169-.188.035-.293.012-.457-.094-.223-.821,2.334-2.803,2.322-3.553,0-.164-.035-.188-.141-.281-1.032-.012-2.65,3.342-3.612,3.893-.199.117-.422.176-.645.106-.176-.059-.34-.188-.399-.364-.258-.727,1.184-2.533,1.642-3.096.328-.41.833-.868,1.032-1.349-.035-.188-.094-.223-.223-.352-1.384.762-2.451,2.885-3.295,4.186-.188.281-.387.551-.739.61-.199.035-.481-.023-.633-.164-.141-.117-.199-.27-.211-.446-.106-1.102,1.137-2.709,1.818-3.495.293-.34.633-.645.903-.997.129-.176.223-.317.188-.539l-.094-.07c-.106-.012-.223-.047-.317,0-.539.199-2.017,2.087-2.357,2.638-.281.446-.446.985-.762,1.407-.094.129-.27.293-.434.328-.129.035-.235.023-.34-.059-.211-.164-.293-.504-.317-.762-.106-1.055.739-2.427,1.384-3.213,1.278-1.56,2.732-2.017,4.292-3.143.797-.575,1.442-1.278,2.158-1.958,1.466-1.407,3.166-2.287,5.207-2.498l-.012-.012v.003Z"/>
  <path class="st5" d="M43.523,73.889c.07.012.152.023.211.047.141.059.188.117.246.258-.035.199-.141.281-.281.41-.117-.023-.293-.082-.387-.152-.117-.094-.129-.129-.152-.27.106-.176.188-.199.364-.293h0Z"/>
  <path class="st5" d="M45.739,73.654c.094.023.223.035.305.07.152.082.152.129.188.281-.047.188-.152.27-.281.399-.059-.023-.117-.047-.164-.07-.176-.082-.258-.152-.328-.317.059-.188.141-.235.281-.375v.012h0Z"/>
  <path class="st5" d="M48.683,72.012l.246.07c.117.117.106.117.117.27-.082.199-.176.317-.328.469-.059-.035-.117-.07-.176-.106-.141-.106-.211-.176-.246-.352.082-.176.235-.246.387-.352h0Z"/>
  <path class="st5" d="M50.735,73.197s.023,0,.035-.012h.281s.023,0,.035.012c0,0,.023,0,.035.012,0,0,.023.012.023.023l.023.023.023.023s.012.023.023.023c0,0,.012.023.023.023,0,0,0,.023.012.035,0,0,0,.023.012.035s0,.023,0,.035v.211s0,.023-.012.035c0,0,0,.023-.012.035,0,0-.012.023-.023.023,0,0-.012.023-.023.023l-.023.023s-.023.012-.023.023c0,0-.023.012-.023.023-.012,0-.023.012-.047.023-.012,0-.023,0-.047.012h-.188c-.012,0-.035,0-.047-.012-.012,0-.023-.012-.047-.023s-.023-.012-.035-.023c-.012,0-.023-.023-.035-.035l-.035-.035c0-.012-.023-.023-.023-.035s-.012-.023-.023-.047c0-.012,0-.023-.012-.047v-.188c0-.012,0-.035.012-.047,0-.012.012-.023.023-.047,0-.012.012-.023.023-.035,0-.012.023-.023.035-.035l.035-.035c.012-.012.023-.012.035-.023h-.012l.002.004Z"/>
  <path class="st5" d="M36.217,74.756c.082.012.164.023.246.047.152.047.199.082.281.211-.012.188-.106.305-.223.446-.082,0-.188,0-.258-.035-.152-.059-.199-.152-.258-.281.035-.211.07-.235.211-.387h.001Z"/>
  <path class="st5" d="M38.61,74.627h.246s.023,0,.035.012c0,0,.023,0,.035.012,0,0,.023.012.023.023,0,0,.023.012.023.023,0,0,.012.012.023.023,0,0,.012.012.023.023s.012.023.023.023c0,0,.012.023.012.035,0,0,0,.023.012.035v.246s0,.023-.012.035c0,0,0,.023-.012.035,0,0-.012.023-.023.023,0,0-.012.023-.023.023,0,0-.012.012-.023.023,0,0-.012.012-.023.023,0,0-.023.012-.023.023,0,0-.023.012-.035.012,0,0-.023,0-.035.012h-.246s-.023,0-.035-.012c0,0-.023,0-.035-.012,0,0-.023-.012-.023-.023,0,0-.023-.012-.023-.023,0,0-.012-.012-.023-.023,0,0-.012-.012-.023-.023,0,0-.012-.023-.023-.023,0,0,0-.023-.012-.035s0-.023-.012-.035v-.246s0-.023.012-.035c0,0,0-.023.012-.035,0,0,0-.023.023-.023,0,0,.012-.023.023-.023,0,0,.012-.012.023-.023,0,0,.012-.012.023-.023,0,0,.023-.012.023-.023,0,0,.023-.012.035-.012,0,0,.023,0,.035-.012Z"/>
  <path class="st5" d="M40.568,74.428c.106,0,.211,0,.305.012.188.023.293.059.41.199-.012.188-.07.223-.188.364-.059.012-.141.047-.211.035-.117,0-.281-.082-.34-.188-.082-.152-.023-.27.023-.422h0Z"/>
  <path class="st5" d="M39.043,72.939s.023,0,.035-.012.023,0,.035,0h.211s.023,0,.035.012c0,0,.023,0,.023.012,0,0,.023,0,.023.023l.023.023.023.023.023.023.023.023s0,.023.012.023c0,0,0,.023.012.035v.281s0,.023-.012.023c0,0,0,.023-.012.023,0,0-.012.023-.023.023l-.023.023-.023.023-.023.023s-.023,0-.023.012c-.012,0-.023.012-.035.023-.012,0-.023,0-.047.012h-.188c-.012,0-.023,0-.047-.012-.012,0-.023-.012-.035-.023-.012,0-.023-.012-.035-.023l-.035-.035s-.023-.023-.023-.035-.012-.023-.023-.035c0-.012-.012-.023-.012-.047s0-.023-.012-.047v-.188c0-.012,0-.023.012-.047,0-.012.012-.023.023-.035,0-.012.012-.023.023-.035l.035-.035s.023-.023.035-.023.023-.012.035-.023l-.012-.012.002.004Z"/>
  <path class="st5" d="M34.752,73.466h.211s.023,0,.023.012c0,0,.023,0,.023.012,0,0,.012,0,.023.012,0,0,.012.012.023.023,0,0,.012.012.023.023,0,0,.012.012.023.023,0,0,.012.012.023.023,0,0,0,.012.012.023,0,0,0,.023.012.023v.27s0,.023-.012.023c0,0,0,.023-.012.023,0,0,0,.012-.012.023,0,0-.012.012-.023.023,0,0-.012.012-.023.023,0,0-.012.012-.023.023,0,0-.012.012-.023.023,0,0-.023,0-.023.012,0,0-.023,0-.023.012-.012,0-.023,0-.047.012h-.188c-.012,0-.023,0-.047-.012-.012,0-.023-.012-.035-.023-.012,0-.023-.023-.035-.023l-.035-.035s-.023-.023-.023-.035-.012-.023-.023-.035c0-.012-.012-.023-.012-.047v-.188c0-.012,0-.035.012-.047s.012-.023.023-.047c0-.012.012-.023.023-.035,0-.012.023-.023.035-.035l.035-.035c.012,0,.023-.012.035-.023.012,0,.023-.012.047-.023.012,0,.023,0,.047-.012l-.035.012v.002Z"/>
  <path class="st5" d="M42.714,69.385c.246.035.446.059.61.258-.012.164-.035.188-.129.317-.094,0-.188.023-.281.023-.152-.012-.223-.07-.328-.188,0-.199.035-.246.129-.41h-.001Z"/>
  <path class="st5" d="M42.644,70.992c.012,0,.023,0,.035-.012h.188c.012,0,.023,0,.035.012.012,0,.023.012.035.023.012,0,.023.012.035.023l.035.035s.023.023.023.035c0,0,.012.023.023.035,0,.012.012.023.023.035,0,.012,0,.023.012.047v.188c0,.012,0,.023-.012.035,0,.012-.012.023-.023.035,0,.012-.012.023-.023.035l-.035.035s-.023.023-.035.023-.023.012-.035.023c-.012,0-.023,0-.035.012h-.235s-.023,0-.023-.012c0,0-.023,0-.023-.012,0,0-.012,0-.023-.012l-.023-.023-.023-.023-.023-.023s0-.012-.012-.023c0,0,0-.023-.012-.023,0,0,0-.023-.012-.023v-.258s0-.023.012-.023c0,0,0-.012.012-.023l.023-.023.023-.023.023-.023.023-.023s.012,0,.023-.012c0,0,.023,0,.023-.012v-.025Z"/>
  <path class="st5" d="M44.074,72.364h.082c.199.012.328.07.457.211,0,.211-.035.246-.152.41h-.047c-.188-.012-.328-.106-.446-.246-.035-.211,0-.211.106-.387v.012Z"/>
  <path class="st5" d="M46.361,72.223c.164.059.293.094.41.235,0,.199-.047.258-.141.422h-.223c-.152-.035-.176-.047-.258-.164,0-.211.106-.328.223-.481l-.012-.012h0Z"/>
  <path class="st15" d="M28.677,100.848c.434.152.833.399,1.29.551,3.037,1.02,5.629.797,8.654-.094,1.384,1.431,3.964,3.072,4.878,4.585.317.528.622,1.29.457,1.911-.117.446-.375.598-.751.821-.305.176-.598.317-.926.434-2.674.938-5.863.856-8.42-.387-1.384-.668-2.486-1.747-3.706-2.662-.516-.387-1.091-.715-1.536-1.173-.199-.199-.375-.422-.469-.692-.293-.938.094-2.451.528-3.295h0Z"/>
  <path class="st15" d="M46.49,98.913c3.424,1.607,6.672,1.642,10.249.598.457.457.985,1.008,1.524,1.349,1.466.938,3.19,1.384,4.175,2.955.223.352.375.751.27,1.173-.117.434-.715.715-1.067.938-.528.223-1.114.399-1.665.539-2.439.598-5.289.551-7.575-.563-.751-.364-1.407-.903-2.158-1.278-1.091-.551-2.263-.915-3.307-1.56-.575-.352-1.149-.844-1.29-1.536-.176-.856.364-1.935.844-2.627,0,0,0,.012,0,.012Z"/>
  <path class="st7" d="M22.216,89.356c.774.223,1.548.317,2.345.399-.223,1.876-.258,3.799-.375,5.687l-.715,11.457c-.07,1.032-.152,4.503-.469,5.312-.031.039-.067.082-.106.129-.199.223-.481.399-.786.399-.364,0-.575-.176-.833-.41-.106-.305-.152-.575-.164-.891-.023-.715.059-1.442.094-2.158.059-1.431.141-2.85.235-4.268l.469-8.666c.129-2.322.317-4.655.328-6.977l-.023-.012h0Z"/>
  <path class="st7" d="M71.632,84.642c.047.035.012,0,.082.106.141,1.642.188,3.307.281,4.949l.469,8.443.305,5.746c.059,1.114.176,2.263.152,3.377,0,.328-.059.575-.246.856-.164.246-.422.434-.727.481-.27.035-.434-.094-.645-.235-.152-.176-.258-.305-.293-.528-.152-.962-.152-2.005-.211-2.979l-.34-5.84-.528-8.678c-.106-1.736-.258-3.495-.281-5.23.68-.059,1.337-.246,1.994-.434l-.012-.035h0Z"/>
  <path class="st7" d="M8.742,79.564c.704.457,1.36,1.008,2.029,1.513-.27,3.952-.762,7.915-1.137,11.867l-.586,6.051c-.106,1.114-.176,2.24-.352,3.342-.035.235-.094.399-.211.598-.246.188-.457.317-.774.305-.27,0-.516-.106-.692-.305-.152-.176-.235-.41-.246-.645-.035-.797.106-1.642.176-2.439l.328-3.694.973-10.847c.164-1.911.375-3.823.481-5.746h.012,0Z"/>
  <path class="st25" d="M23.646,34.194c.176.211.528,1.302.68,1.653.352.739.739,1.442,1.184,2.134.317.481.645.938,1.008,1.384s.739.868,1.149,1.266c.586.586,1.266,1.137,1.736,1.806.493.692.844,1.595,1.091,2.392-.739.152-1.571.668-2.275.973-.985.41-1.829,1.008-2.85,1.313-.504-1.055-.774-2.228-1.102-3.354-.633-2.169-1.384-4.409-1.618-6.661-.141-1.349.176-1.888.997-2.908v.002Z"/>
  <path class="st19" d="M21.583,19.981h.305c.692.035,1.349.328,1.818.856.868.985.903,2.275.797,3.506-.082,1.032-.293,3.401-.598,4.28-.094.281-.235.528-.469.704-.387.317-.821.317-1.302.27-.27-.07-.516-.164-.762-.328-1.161-.739-1.865-2.134-2.146-3.448-.328-1.513-.27-3.248.598-4.585.422-.657.973-1.102,1.747-1.266l.012.012h0Z"/>
  <path class="st4" d="M21.125,21.775c.328-.012.598.023.891.176.539.281.985.774,1.149,1.372.235.797-.117,1.126-.446,1.782-.235.457.023.704.152,1.126.07.223-.023.375-.129.563-.141.035-.27.047-.41,0-.211-.082-.352-.199-.434-.41-.293-.739.07-1.489.34-2.169.61-1.571-.95-1.278-1.266-1.982,0-.176.059-.293.141-.446,0,0,.012-.012.012-.012Z"/>
  <path class="st26" d="M9.176,44.912h.141c.023.246-.692,1.876-.833,2.275-.668,2.005-1.184,4.128-1.431,6.239-.141,1.196-.188,2.404-.281,3.612l-.258.352c-.481.633-.657,1.208-.809,1.994-.223-.094-.41-.211-.622-.352-.446-.446-.563-.938-.598-1.56-.106-1.665-.012-3.377,0-5.042,0-1.607-.141-4.057.164-5.582.082-.434.281-.856.575-1.173.833-.891,2.803-.692,3.952-.739v-.023h0Z"/>
  <path class="st19" d="M35.08,34.593c.457.27.856.657,1.325.938,1.22.739,2.873,1.137,4.28,1.325,2.31.305,4.796-.023,6.672-1.478.023.094.059.188.07.281.012.07.035.129.047.199s.023.141.035.199c0,.07.012.141.023.211,0,.07,0,.141.012.211v.422c0,.07,0,.141-.023.211s-.012.141-.023.211c0,.07-.023.141-.035.199-.012.07-.035.129-.047.199-.023.07-.035.129-.059.199s-.047.129-.07.199-.047.129-.082.188c-.023.059-.059.129-.082.188-.035.059-.059.117-.094.188s-.07.117-.106.176c-.493.786-1.173,1.349-2.087,1.56-.317,0-.657-.035-.938-.199-.668-.387.41-1.208.305-1.7-.34-.223-1.196.141-1.607.188-.375.047-.774.023-1.149,0-.493-.035-.997-.117-1.466-.281-.387-.129-1.008-.493-1.395-.504-.152,0-.199.059-.305.152-.094.469.375.657.493,1.055.047.152.047.293-.035.434-.152.281-.751.586-1.067.668s-.762-.176-1.008-.34c-.786-.516-1.56-1.419-1.747-2.357-.235-1.126-.152-1.865.199-2.955l-.035.012h-.001Z"/>
  <path class="st25" d="M13.339,55.935c.692-.023,1.407-.012,2.099.07,1.22.141,2.158.563,3.143,1.255.223.164.504.328.668.551.293.41.141.985.07,1.442-.645-.281-1.372-.528-2.052-.727-2.334-.657-5.312-.223-7.411.962-.481.258-.95.516-1.384.856-.997.797-1.255,1.7-1.395,2.92-.223-.751-.575-1.419-.657-2.205-.082-.891-.094-2.298.528-3.002.704-.797,3.495-1.677,4.526-1.9.61-.129,1.22-.188,1.841-.223h.024Z"/>
  <path class="st26" d="M47.498,62.678h.129c-.141.293-1.032.915-1.325,1.266-.493.586-.844,1.266-1.22,1.935-1.266.223-2.627.246-3.905.352-.258-.739-.575-1.313-1.22-1.782-.751-.422-1.29-.364-2.181-.962,1.137,0,2.275-.152,3.401-.246,0,0,6.321-.563,6.321-.563Z"/>
  <path class="st1" d="M29.932,56.838c-.012,0-.023-.023-.047-.035-.152-.117-.246-.199-.258-.399-.023-.246.094-.504.246-.692.082-.094.164-.129.281-.176.352-.164.516-.539.962-.493.164.082.258.211.364.352.387.516,3.201,4.714,3.295,5.031.023.082.023.106,0,.176.328.61.751,1.161,1.102,1.759-.704-.106-.997-.188-1.431-.786-.106-.141-.211-.364-.34-.481-.41-.164-.563-.903-.938-1.184h.012l-.059.129c.258.375.938,1.126.962,1.583,0,.059,0,.023-.047.117-.258.059-.563-.023-.821-.059-.399-.422-.692-.962-1.02-1.442l-1.571-2.369c-.199-.305-.446-.821-.715-1.055l.023.023h0Z"/>
  <path class="st1" d="M30.249,55.583c.047.176.106.352.199.516.751,1.349,1.689,2.638,2.545,3.928.328.493.692,1.208,1.102,1.618,0,.059,0,.023-.047.117-.258.059-.563-.023-.821-.059-.399-.422-.692-.962-1.02-1.442l-1.571-2.369c-.199-.305-.446-.821-.715-1.055-.117-.246-.246-.434-.152-.715.059-.176.317-.375.446-.504l.035-.035h0Z"/>
  <path class="st5" d="M29.932,56.838c-.012,0-.023-.023-.047-.035-.152-.117-.246-.199-.258-.399-.023-.246.094-.504.246-.692.082-.094.164-.129.281-.176.352-.164.516-.539.962-.493.164.082.258.211.364.352.387.516,3.201,4.714,3.295,5.031.023.082.023.106,0,.176l-.035-.059c-.903-1.231-1.689-2.592-2.533-3.87-.293-.434-.586-.997-.95-1.372-.07-.07-.129-.094-.211-.106-.246.023-.422.129-.633.246,1.29,1.829,2.545,3.741,3.694,5.652-.41-.164-.563-.903-.938-1.184h.012l-.059.129c.258.375.938,1.126.962,1.583-.41-.41-.774-1.126-1.102-1.618-.856-1.29-1.794-2.58-2.545-3.928-.094-.164-.152-.328-.199-.516l-.035.035c-.129.129-.387.34-.446.504-.094.281.035.469.152.715l.023.023v.002Z"/>
  <path class="st19" d="M58.897,54.692c1.243-.07,2.193.129,3.354.528.41.879.528,1.7.457,2.662-.399-.563-.879-.962-1.513-1.231-1.689-.704-3.928-.352-5.57.34-1.313.575-2.275,1.395-3.389,2.275.199-.61.469-1.114.868-1.618,1.419-1.771,3.577-2.697,5.793-2.943v-.012h0Z"/>
  <path class="st24" d="M31.046,43.352c.61.328,1.161.774,1.771,1.126,2.111,1.22,4.304,1.759,6.708,2.017l-.938,1.184c-.27.352-.528.68-.844.985-1.841-.938-5.582-3.553-6.684-5.312h-.013Z"/>
  <path class="st25" d="M43.464,45.885h.07c.047.141,0,.223-.035.352-.434,1.032-3.811,2.322-4.878,2.756l-.07-.023c.106-.469,1.642-1.97,2.064-2.439.926-.293,1.911-.352,2.85-.633v-.012h0Z"/>
  <path class="st23" d="M28.712,51.925c.117,0,.235,0,.352.012.469.281.762,1.02,1.032,1.489-.598.399-1.173.891-1.513,1.524h0c0,.012-.07,0-.07,0-.34-.399-.692-.95-.95-1.407-.141-.258-.293-.586-.176-.891.188-.457.915-.61,1.325-.751v.023h0Z"/>
  <path class="st25" d="M46.478,44.232h.07c.317.598.352,1.935.422,2.638-.375-.246-.751-.504-1.161-.68-.434-.246-.903-.41-1.325-.68.668-.41,1.325-.856,1.994-1.278h0Z"/>
  <path class="st24" d="M40.169,68.905l.364.598c-.094.094-.176.199-.27.293-.281.27-.586.328-.962.317-.152-.094-.27-.117-.364-.281.141-.27.539-.364.786-.528.152-.106.305-.258.446-.399h0Z"/>
  <path class="st24" d="M30.225,54.141c.152,0,.188,0,.317.094-.059.34-.926.962-1.196,1.266-.059.07-.012.047-.129.059-.094-.117-.117-.164-.094-.328.07-.504.715-.868,1.114-1.102l-.012.012h0Z"/>
  <path class="st24" d="M39.079,64.976c.281.012.481.059.704.235.434.34.622.926.68,1.454-.387-.223-1.008-1.29-1.384-1.689Z"/>
  <g>
    <g>
      <rect class="st6" x="67.171" y="2.188" width=".308" height="52.433"/>
      <polygon class="st9" points="66.862 58.395 66.862 58.909 67.857 58.909 67.857 58.291 66.862 58.36 66.862 58.395"/>
      <path class="st8" d="M67.343,2.565h0c-.171,0-.308-.035-.308-.206v-.926c0-.171.137-.308.308-.308h0c.171,0,.308.137.308.308v.926c0,.171-.137.206-.308.206Z"/>
      <path class="st2" d="M66.931,54.757l-.137.241c-.035.069-.069.137-.069.206v.72c0,.102-.035.206-.069.308l-.241.583c-.035.035-.035.102-.035.137v1.44c0,.023.012.035.035.035h1.818c.023,0,.035-.012.035-.035v-1.44c0-.035,0-.102-.035-.137l-.241-.583c-.035-.102-.069-.206-.069-.308v-.72c0-.069-.035-.137-.069-.206l-.137-.241c-.069-.102-.171-.137-.275-.137h-.308c-.069,0-.171.035-.206.137h.004Z"/>
    </g>
    <g>
      <path d="M75.199,61.824c.002-.472-.009-1.072-.525-1.265-.011-.538-.057-1.424-.469-1.82-.253-.244-.748-.304-.901-.463-.02-.786.146-2.418-1.059-2.259-1.13-.051-1.014,1.32-1.045,2.104-.117.053-.483.049-.605-.018-.175-.54.016-1.178-.235-1.696-.073-.133-.239-.193-.31-.315-.162.055-.315-.011-.478-.016-1.096-.024-.892,1.138-.893,1.905-.086.046-.275.084-.37.04,0,.002-.002.005-.004.007-.036.164-.219.146-.346.182v.073c-.31-.018-.656.146-.948,0,0,0-.018.036-.036.055-.018-.018-.018-.036-.036-.055,0,.018-.018.036-.018.055l-.055-.055c-.018.018-.018.036-.036.055-.018-.018-.036-.055-.055-.055s-.036.055-.055.055c-.146-.055-.326-.055-.489-.018h0c-.106.109-.337.129-.481.171-.545.157-.913.547-.941,1.127-.029.19.038.376.06.562.002.111-.057.211-.044.361-.042.042-.113.066-.15.109-.086.102-.088.489-.095.624-.005.253-.051.764.193.912l.004.323c-.328.255-.182,1.014-.175,1.402.015.135.038.244.146.339-.011.434.024.288-.14.665-.022.272-.14,1.233.182,1.357.005.157-.033.335.111.443.064,1.976-.075,3.969.098,5.938.221,1.291,3.125,1.73,4.197,1.526,1.105-.078,2.204-.219,3.306-.332.589-.091,1.459-.044,1.92-.449.224-.237.284-.573.297-.888.08-2.272.038-4.547.029-6.821.173-.084.288-.21.35-.394.202-1.138.124-2.317.106-3.47l-.005-.002Z"/>
      <path class="st13" d="M73.212,59.091c.091.049.456.058.589.082.086.015.177.064.263.053.317.687.281,1.475.29,2.217.029,1.119.027,2.233.035,3.351.013,2.469.093,4.941-.031,7.408-.018.241-.022.523-.153.735-.339.434-.995.337-1.484.423-.99.106-2.224.259-3.207.341-.346.013-.722.115-1.057.026-.128.084-.509-.004-.651-.046-.589-.257-.456-1.393-.511-1.933.148-3.956-.108-7.966.21-11.9.117-.932,4.941-.589,5.714-.755l-.005-.002Z"/>
      <path d="M72.577,59.678c.098.047.591.055.711.022.164.168.308.361.317.609.026.286.035,2.062-.031,2.223-.109.042-.233,0-.348-.007-.17-.013-.348-.024-.518-.024-.191.027-.383.009-.576,0-1.014.015-2.058.177-3.056.31-.075.067-.184.029-.275.049-.199.04-.387.119-.593.12-.078-.042-.089-.173-.1-.253-.024-.846-.042-1.701.067-2.542.08-.026.146-.128.181-.199.737-.14,3.652-.164,4.223-.308h-.002Z"/>
      <path class="st3" d="M73.031,59.936c.237.047.345.159.37.405.069.631-.007,1.274.011,1.909-.088.051-.791-.009-.968-.002-.439.007-.877.027-1.316.058-.686.051-1.371.122-2.051.232-.128.011-.27.095-.394.051-.073.049-.252.077-.343.095l-.016-.011c-.078-.538-.097-1.796.067-2.357.084.007.16-.078.206-.139.877.029,1.803-.142,2.689-.153l1.262-.046c.155-.016.346.053.481-.042h.002Z"/>
      <path d="M71.823,63.117c.148.073.476.038.642.027.416-.024.742.015,1.152.06.102.011.23-.027.314.051.151.213-.129.363-.304.128-.128.058-.299.077-.408-.027-.277.115-.636.018-.935.026-.135-.004-.268.022-.403.022-.124,0-.277-.053-.372.047-.071.033-.233-.029-.317-.024-.372.018-.717.108-1.092.067-.009.009-.035.04-.044.046-.359.046-1.473.088-1.882.232-.08-.051-.109-.166-.077-.253.027-.038.073-.035.117-.031.08,0,.153-.053.226-.047.144.013.425,0,.563-.049.182-.064.423-.058.616-.075.454-.035,1.211-.111,1.657-.148.184-.016.396.066.554-.053l-.007.002Z"/>
      <path d="M72.35,63.835c.368.109.85-.044,1.223.091.098.009.201-.022.286.046.17.201-.153.341-.304.115-.12.078-.263.031-.394.022-.155-.004-.319.038-.456-.042-.226.084-.142.086-.397.029-.071.009-.799,0-.811.078-.377-.064-1.663.162-1.951.093-.168.115-.731.097-.957.128-.146.005-.295.119-.438.08-.044-.08-.102-.193-.033-.273.062-.022.139.02.204.026.115-.164.439-.046.622-.077.155-.131,1.09-.097,1.189-.142.018-.011.046-.049.064-.066.106-.009.202.036.306.051.093.013.067-.018.137-.046.304-.038.923-.053,1.251-.075.151-.009.328.064.461-.038h-.002Z"/>
      <path d="M72.275,64.605c.15.055.381.011.543.013.168.002.892.042,1.006.142.146.184-.191.301-.33.086-.067.04-.146.073-.222.04-.071.016-.119-.04-.186-.042-.202.02-.222.104-.423-.011-.077-.004-.108.049-.177.058-.102.015-.188-.047-.288-.049-.113-.002-.221.057-.334.062-.109.005-.215-.04-.325-.024-.067.128-.264.055-.377.035-.082.053-.181.047-.275.053-.241.026-.483.038-.724.06-.173,0-.366.095-.532.027-.091.064-.226.033-.33.047-.204.071-.43.033-.642.064-.204.033-.582.266-.573-.104.095-.188.529-.053.687-.148.08-.047.117.024.188.026.14-.097.343-.071.511-.086.217-.018.432-.046.651-.058.071-.129.323-.029.458-.046.312.009.609-.113.921-.086.126-.002.25-.016.376-.018.106,0,.317.022.401-.042h-.004Z"/>
      <path d="M68.882,67.436c.405.04.864.281.72.758-.093.259-.388.503-.669.483-.779.232-1.187-.968-.051-1.243v.002Z"/>
      <path class="st20" d="M68.836,67.703c.177.055.472.027.571.239.131.233-.259.498-.461.478-.23.162-.651-.053-.58-.352.047-.221.317-.253.47-.365Z"/>
      <path d="M71.697,65.467c.175.091.901.004,1.149.015.217.009.419.049.633.078.137,0,.401.035.332.23-.091.102-.23.022-.339-.005-.133-.031-.299-.066-.434-.078-.082-.007-.168.044-.25.044-.148-.031-.142-.102-.301-.011-.08.022-.217-.031-.304-.033-.177-.004-.396.106-.558.015-.049-.027-.166.073-.226.082-.315-.086-.904.108-1.194.02-.523.155-1.092.088-1.625.186-.071.013-.361.098-.41.066-.073-.058-.111-.184-.053-.264.057-.027.137.004.201.005.12-.093.237-.029.376-.031.115-.12.39-.036.543-.067.084-.067.122-.055.228-.051.129-.005.56-.022.649-.049.035-.011.031-.047.082-.051.1-.005.204.036.306.033.139-.005.284-.042.423-.055.219-.02.43-.015.651-.011.062,0,.08-.026.124-.067l-.002.002Z"/>
      <path d="M72.262,66.166c.153.06.394.015.556.015.166,0,.841.031.954.131.151.188-.204.315-.317.086-.128.082-.31.086-.421-.026-.23.15-.66.04-.939.058-.717.084-1.449.102-2.164.213-.102.018-.295.064-.388.005-.1.064-.213.013-.308.066-.095.053-.202,0-.303.013-.221.024-.554.126-.751.12-.075-.051-.117-.157-.08-.242.062-.044.124-.016.197-.029.042-.007.075-.042.119-.044.088-.004.199.031.283.015.137-.142.186.06.303-.064.717-.071,1.473-.155,2.208-.224.173-.031,1.006.007,1.056-.093h-.002Z"/>
      <path d="M70.845,67.311c.095.044.288.016.414.057.662.215.416,1.143-.213,1.147-.709.284-1.305-.822-.201-1.203Z"/>
      <path class="st20" d="M70.865,67.562c.188.046.447.015.556.226.131.239-.186.503-.41.485-.062.067-.197.046-.277.024-.569-.164-.268-.596.131-.735Z"/>
      <path d="M72.794,67.185c.093.046.306.011.43.049.651.204.439,1.116-.177,1.134-.724.328-1.311-.764-.252-1.183h-.002Z"/>
      <path class="st20" d="M72.798,67.436c.35.071.388-.062.662.281-.044.191-.208.428-.425.418-.239.151-.602-.018-.651-.295.075-.199.224-.321.414-.403h0Z"/>
      <path d="M73.144,69.801c.523.073.487.687-.038.682-.222.153-.396-.215-.356-.399.031-.142.281-.21.394-.283Z"/>
      <path d="M68.818,72.217c.589.029.459.645-.044.647-.206.16-.394-.179-.357-.359.031-.157.283-.202.399-.288h.002Z"/>
      <path d="M73.135,68.833c.527.049.494.647-.015.669-.211.142-.405-.155-.376-.348.026-.177.266-.221.388-.319l.002-.002Z"/>
      <path d="M73.104,71.9c.525-.022.54.642.035.653-.204.162-.412-.139-.392-.332.015-.201.241-.204.356-.321h.002Z"/>
      <path d="M71.68,68.957c.126.027.283.02.357.15.146.226-.102.52-.346.483-.204.15-.421-.126-.392-.326.026-.206.253-.197.381-.306Z"/>
      <path d="M68.781,71.212c.069.033.162.02.233-.002.036.064.119.098.16.162.129.222-.139.494-.366.459-.21.171-.419-.151-.394-.346.022-.155.257-.188.366-.273h0Z"/>
      <path d="M73.152,70.855c.509.069.459.682-.042.664-.221.162-.399-.199-.348-.385.033-.139.277-.206.388-.277l.002-.002Z"/>
      <path d="M71.799,69.947c.346.086.399.521.033.622-.064.026-.164.069-.232.042-.195.091-.328-.222-.286-.377.064-.193.339-.204.485-.286h0Z"/>
      <path d="M71.671,72.024c.126.026.283-.004.361.133.151.219-.075.529-.325.496-.211.151-.436-.14-.397-.346.031-.175.237-.197.361-.284v.002Z"/>
      <path d="M71.781,70.984c.527.104.277.751-.181.647-.195.089-.328-.215-.279-.374.062-.224.304-.173.459-.273h0Z"/>
      <path d="M68.763,70.157c.133.036.303-.004.396.129.162.211-.093.52-.332.483-.213.184-.419-.133-.418-.328.022-.144.246-.208.352-.284h.002Z"/>
      <path d="M70.249,71.087c.556.02.43.655-.027.658-.208.146-.383-.201-.35-.377.029-.171.257-.193.376-.281h.002Z"/>
      <path d="M70.262,69.066c.556.033.449.638-.038.645-.208.146-.387-.221-.352-.392.035-.14.284-.179.392-.252l-.002-.002Z"/>
      <path d="M70.289,72.111c.509.088.356.676-.102.653-.211.106-.374-.226-.317-.399.047-.139.303-.195.419-.253h0Z"/>
      <path d="M70.284,70.067c.538.084.361.682-.098.66-.193.12-.343-.242-.312-.396.033-.155.295-.181.408-.264h.002Z"/>
      <path d="M68.78,69.172c.129.038.315.015.387.17.115.217-.142.465-.357.434-.211.177-.405-.157-.388-.345.029-.131.255-.188.359-.259h0Z"/>
      <path d="M71.609,59.463c.102.058.273-.007.396.046v.057c-.135.064-.332.013-.48.024-.266-.007-.563.082-.82.004-.086.058-.341.067-.392-.035.182-.131,1.116.024,1.295-.095h.002Z"/>
      <path d="M73.927,59.421c.242.21.337.786.273,1.076l-.016.004c-.073-.117-.036-.279-.077-.41-.036-.166-.213-.521-.181-.667v-.002Z"/>
      <path d="M67.496,72.299c.171.388-.131.605.29,1.065.026.038.027.053.018.097-.447-.113-.321-.813-.31-1.161h.002Z"/>
      <path d="M73.815,59.881c.131.055.242.616.12.693-.058-.122-.115-.542-.12-.693Z"/>
      <path d="M74.16,72.117c.058.131-.018.777-.126.866l-.007-.004c-.04-.088.104-.731.133-.862h0Z"/>
      <path class="st17" d="M68.632,58.391c.463.438,1.191.219,1.756.191.343-.004.645.064.994.011.15.201.675.228.893.195-.241.108-.485.015-.733.027-.833.036-1.666.093-2.494.21-.551.078-1.347-.026-1.659.538-.263.645-.148,1.364-.179,2.044-.009.511-.047,1.025-.049,1.535.071,1.71-.002,4.779-.009,6.525-.018,1.322-.159,2.687.188,3.966l-.036.009c-.222-.122-.25-.476-.268-.7-.005-.016-.011-.02-.024-.031-.111.19-.035.474.057.658-.166.051-1.402-.593-1.555-.713-.137-.126-.195-.365-.219-.542-.071-1.854-.007-3.714-.062-5.57.097.1,1.032.226,1.109.226.244-.042.352-.306.396-.523.166-1.078.049-2.182.055-3.267-.011-.682.018-1.377-.049-2.057-.016-.17-.051-.474-.148-.616-.242-.277-1.118-.082-1.415-.416-.294-.819.343-1.198,1.067-1.287.098-.018.241-.022.319-.084.273.348,1.595.166,1.736-.264.038-.031.221.027.332-.062v-.004Z"/>
      <path d="M67.19,59.432c.02.007.029.016.042.031.005.126-.16.629-.199.762-.049-.292-.007-.549.157-.795v.002Z"/>
      <path class="st21" d="M65.151,60.468c.366.151.758.221,1.154.201.073.005.12.058.197.04.16.839.091,1.707.102,2.558.004.713.035,1.428.018,2.141-.049.325.111,1.357-.403,1.282-.173-.007-.941-.171-1.043-.288-.093-.106-.06-.261-.051-.39.088.317.549.356.802.264-.029-.454.15-.923.036-1.375-.089.024-.835-.182-.906-.23-.005-.246-.007-.489.027-.733.124.332.62.37.904.263-.02-.401.115-.791.064-1.198-.036-.263-.777-.188-.955-.354-.044-.188-.005-.503,0-.704.098.339.607.352.877.264-.026-.454.175-.961.015-1.391-.151.02-.715-.057-.837-.153-.024-.06-.009-.133-.002-.195v-.002Z"/>
      <path class="st20" d="M74.667,61.042c.481-.022.275,3.783.089,4.099-.057-.642-.111-3.306-.089-4.099Z"/>
      <path class="st21" d="M65.015,62.82c.217.049.624.026.647.321.024.211.186,1.191-.273.881-.188.035-.179-.288-.248-.401l-.029-.005c-.08.062-.078.208-.171.253-.115-.128-.033-.695-.042-.888.051-.038.086-.108.117-.162v.002Z"/>
      <path class="st21" d="M65.071,60.849c.159.044.383.117.545.117.062.252.27,1.358-.281,1.017-.135-.049-.091-.266-.21-.35-.071.036-.06.16-.133.219-.186.04-.078-.529-.093-.647.007-.197.029-.226.17-.357l.002.002Z"/>
      <path class="st21" d="M65.058,64.858c.122.018.469.155.549.148.038.365.069.711.042,1.078-.082.038-.206.013-.275-.042-.173,0-.122-.268-.244-.341-.069.035-.071.142-.14.19l-.033-.009c-.119-.139-.044-.664-.036-.859.051-.047.095-.111.139-.166v.002Z"/>
      <path class="st20" d="M71.58,58.059c.197.117.826.177,1.054.133.089-.016.233-.113.314-.086.047.069.035.181-.022.239-.133.268-.919.162-1.149.097-.184-.053-.281-.202-.197-.385v.002Z"/>
      <path class="st20" d="M68.989,57.979c.109.064.687.06.844.055.082-.004.299-.053.366-.026.073.031.055.213-.027.222-.25.191-.935.201-1.194.026-.002-.093-.007-.184.011-.275v-.002Z"/>
      <path class="st20" d="M69.957,56.513c.239.175.279.822.221,1.088-.018.066-.082.078-.129.119l-.036-.016c-.051-.089-.053-.211-.062-.312-.002-.191-.155-.762.005-.879h.002Z"/>
      <path class="st20" d="M69.655,56.531c.184.033.186,1.105.159,1.187-.04-.007-.086.009-.126.013-.17-.155-.098-1.026-.033-1.2h0Z"/>
      <path class="st22" d="M72.257,56.48c.142.055.148,1.269.146,1.386-.018.013-.058.024-.08.026-.181-.201-.142-1.198-.067-1.411h.002Z"/>
      <path class="st20" d="M71.742,56.592c.137.106.016,1.087-.022,1.238-.295.015-.086-1.101.022-1.238Z"/>
      <path class="st22" d="M72.003,56.546l.033.016c.053.173.069,1.194.029,1.295l-.053-.02-.033.009c-.166-.191-.057-1.07.024-1.298v-.002Z"/>
      <path class="st21" d="M65.921,60.977c.124.086-.011.983-.049,1.059l-.051-.026c-.029.002-.031.004-.055-.015.018-.312-.005-.625-.002-.937.036-.042.113-.038.159-.082h-.002Z"/>
      <path class="st21" d="M65.919,63.02c.126.133.013.879-.022,1.037l-.024.007-.055-.036h-.042c-.011-.024-.007-.83-.026-.965.053.022.12-.016.166-.044h.002Z"/>
      <path class="st22" d="M69.401,56.568c.02.007.038.02.055.031.031.088.031,1.012.007,1.105-.051-.013-.095.016-.144-.004-.082-.16.016-.948.082-1.132Z"/>
      <path class="st22" d="M72.541,56.501c.082.055.139,1.191.117,1.324-.009.038-.051.042-.082.027-.095-.21-.124-1.143-.035-1.351Z"/>
      <path class="st20" d="M72.743,56.548c.148-.007.312,1.236.137,1.236l-.036-.018c-.029-.064-.104-1.088-.1-1.218Z"/>
      <path class="st22" d="M69.177,56.572c.091.157-.013.434-.013.614-.009.166-.005.332-.016.496-.036.013-.089-.004-.122-.026-.013-.334-.036-.789.151-1.085h0Z"/>
      <path class="st21" d="M65.837,65.055l.051.026c.067.159-.024.899-.067,1.005h-.053c-.022-.055-.035-.808-.044-.935.026-.051.066-.066.113-.093v-.002Z"/>
      <g>
        <path d="M68.916,61.378l-.018-.261.091-.104.027.385-.035.038-.066-.057v-.002ZM69.024,61.507l.027.383-.104-.091-.018-.261.057-.066.038.035h0Z"/>
        <path d="M69.234,61.38l-.027-.385.104.091.018.261-.057.066-.038-.035v.002ZM69.677,61.356l.053.046-.046.053-.341.024-.051-.046.046-.053.341-.024h-.002ZM69.68,61.325l-.018-.261.091-.104.027.385-.033.038-.066-.057-.002-.002ZM69.788,61.454l.027.383-.104-.091-.018-.261.058-.066.038.035h-.002Z"/>
        <path d="M69.937,61.332l-.027-.385.104.091.018.261-.057.066-.038-.035v.002ZM70.439,60.895l-.089.104-.317.022-.104-.091.511-.035ZM70.045,61.46l.018.261-.091.104-.026-.383.035-.04.066.057-.002.002ZM70.501,61.808l-.511.035.089-.104.317-.022.104.091ZM70.382,61.308l.053.046-.046.053-.341.024-.051-.046.046-.053.341-.024h-.002ZM70.492,61.405l.026.383-.104-.091-.018-.261.058-.066.038.035h0Z"/>
        <path d="M70.676,61.795l-.007-.098.098-.007.007.098-.098.007Z"/>
        <path d="M70.895,61.266l-.027-.385.104.091.018.261-.057.066-.038-.035v.002ZM71.396,60.829l-.089.104-.317.022-.104-.091.511-.035ZM71.458,61.741l-.511.035.089-.104.317-.022.104.091ZM71.339,61.241l.053.046-.046.053-.341.024-.051-.046.046-.053.341-.024h-.002ZM71.449,61.339l.026.383-.104-.091-.018-.261.058-.066.038.035h0Z"/>
        <path d="M72.1,60.78l-.089.104-.317.022-.104-.091.511-.035ZM71.706,61.345l.018.261-.091.104-.026-.383.035-.04.066.057-.002.002ZM72.162,61.693l-.511.035.089-.104.317-.022.104.091ZM72.043,61.194l.053.046-.046.053-.341.024-.051-.046.046-.053.341-.024h-.002ZM72.045,61.161l-.018-.261.091-.104.027.385-.033.038-.066-.057-.002-.002Z"/>
        <path d="M72.399,61.137l-.057.066-.038-.035-.027-.385.104.091.018.261v.002ZM72.804,60.73l-.089.104-.317.022-.104-.091.511-.035ZM72.428,61.558l-.091.104-.026-.383.035-.04.066.057.018.261-.002.002ZM72.867,61.644l-.511.035.089-.104.317-.022.104.091ZM72.849,61.132l-.033.038-.066-.057-.018-.261.091-.104.027.385-.002-.002ZM72.884,61.624l-.104-.091-.018-.261.058-.066.038.035.026.383h0Z"/>
      </g>
    </g>
  </g>
  <path class="st25" d="M22.803,32.367"/>
  <g class="st18">
    <path class="st12" d="M43.414,53.008c.018.038.008.056-.03.055l-.096-.004c-.072-.004-.091-.013-.111-.055l-.153-.34c-.021-.046-.044-.078-.068-.095-.026-.016-.068-.026-.123-.029l-.084-.003-.018.443c-.001.042-.016.056-.057.054l-.093-.004c-.042-.002-.058-.017-.057-.058l.043-1.058c.001-.041.019-.056.061-.053l.093.004c.041.002.055.017.053.058l-.018.427.067.003h.021s.349-.423.349-.423c.03-.038.048-.044.114-.042l.106.004c.038.001.046.028.024.056l-.386.455c.07.034.126.099.17.195l.194.41Z"/>
    <path class="st12" d="M44.032,51.918c.303.012.471.184.46.454l-.011.3c-.011.27-.192.428-.495.416l-.368-.014c-.042-.002-.058-.017-.056-.059l.042-1.057c.002-.041.019-.056.061-.053l.368.014ZM44.287,52.362c.006-.157-.089-.244-.261-.252l-.22-.009-.031.783.22.009c.172.007.273-.073.28-.229l.012-.303Z"/>
    <path class="st12" d="M45.392,51.973c.04.001.055.016.053.057l-.002.058c0,.024-.007.051-.019.079l-.454.91c-.02.04-.035.048-.107.045l-.089-.003c-.037-.001-.047-.02-.027-.057l.456-.904-.531-.021c-.041-.002-.056-.018-.054-.059l.003-.08c.002-.041.017-.055.058-.053l.712.029Z"/>
    <path class="st12" d="M46.105,52.001c.212.008.333.123.325.321-.005.117-.048.198-.134.243v.007c.109.044.162.141.156.291-.008.203-.161.316-.384.306l-.466-.018c-.041-.002-.057-.017-.056-.059l.043-1.057c.001-.041.019-.056.06-.053l.456.018ZM46.083,52.671l-.311-.013-.012.306.311.013c.103.004.158-.045.162-.145.004-.104-.047-.157-.15-.162ZM46.061,52.483c.1.003.153-.043.157-.139.004-.098-.046-.148-.145-.151l-.282-.012-.012.29.282.012Z"/>
    <path class="st12" d="M47.178,52.044c.213.009.334.124.326.322-.005.117-.049.198-.135.243v.007c.11.044.162.141.156.291-.008.203-.161.315-.384.306l-.466-.019c-.041-.001-.057-.017-.055-.058l.042-1.058c.002-.041.019-.055.06-.053l.456.018ZM47.157,52.714l-.311-.013-.012.306.311.013c.103.004.158-.045.162-.145.004-.104-.047-.157-.15-.162ZM47.135,52.525c.1.004.153-.042.157-.139.004-.097-.045-.147-.145-.151l-.282-.011-.012.29.282.011Z"/>
    <path class="st12" d="M47.69,52.469c.01-.265.186-.422.487-.41.234.009.379.109.437.294.012.035,0,.059-.037.071l-.093.027c-.04.012-.056.003-.069-.038-.033-.101-.114-.155-.247-.161-.168-.006-.267.072-.273.223l-.014.364c-.006.152.085.24.254.246.13.006.216-.043.259-.143.02-.04.034-.047.074-.032l.088.035c.036.014.047.04.034.074-.072.182-.225.269-.461.259-.302-.011-.464-.18-.454-.448l.015-.36Z"/>
  </g>
</svg>