<?xml version="1.0" encoding="UTF-8"?>
<svg id="Layer_1" xmlns="http://www.w3.org/2000/svg" version="1.1" viewBox="0 0 80 115">
  <!-- Generator: Adobe Illustrator 29.1.0, SVG Export Plug-In . SVG Version: 2.1.0 Build 142)  -->
  <rect x="24.5" y="66.2" width="36.9" height="11.9" fill="#fff"/>
  <path d="M35.9,1.5c4.3-.2,10.5.8,14.1,3.3,1.1.8,1.6,1.5,2.6,2.4.4.4.9.6,1.3,1,1.3,1.1,2.4,2.5,2.6,4.2.4,2.4-.6,5-2,6.9,0,2.1-.6,4.1-.8,6.1-.1,1.4,0,2.8,0,4.2,0,3.3-.8,6.5-2.4,9.4.8.3,1.7.7,2.4,1.2,2.4,1.8,4.1,5.1,5.5,7.7.7,1.3,1.5,2.6,2.1,4,.4.8.7,1.7,1.2,2.5.2.3.5.5.7.8.5.7.7,1.6.8,2.4.2,1-.2,1.9-.5,2.9-.3,1-.5,1.9-1.1,2.8,2.6,1.4,5,3,7.5,4.6,2,1.2,4,2.4,5.9,3.7.6.4,1.1.7,1.2,1.6.1.8,0,2.9-.1,3.7,0,.3-.2.6-.4.9-.6.8-1.7,1-2.6,1.1,0,1,0,2,0,2.9,0,1.1-.4,1.9-1.3,2.6,0,.7,0,1.3,0,2l.2,4.3.6,11.2.2,3.5c0,.8.1,1.6,0,2.4,0,.5-.1.8-.4,1.2,0,0,0,0-.1.1s0,0-.1.1c0,0,0,0-.1.1,0,0,0,0-.1,0,0,0-.1,0-.2,0,0,0-.1,0-.2,0,0,0-.1,0-.2,0,0,0-.1,0-.2,0-.5,0-.9-.1-1.3-.4-.3-.3-.5-.7-.5-1.1-.2-.9-.1-2-.2-3l-.3-5.5-.6-10.5c0-1.3-.2-2.5-.2-3.8-.9.2-1.9.3-2.8.4l-3.6.4c-.8,0-1.6.1-2.4.3-.3,1-.4,2.2-.5,3.2-.3,2.1-.7,4.2-1,6.2-.1.8-.2,1.8-.5,2.5-.1.3-.4.6-.6.8,1.3,1.4,3.1,1.9,4.5,3,.9.8,1.7,2,1.8,3.2,0,.8-.1,1.5-.6,2.1-1.1,1.3-3.2,1.7-4.9,1.8-3.3.3-6.3-.7-8.8-2.8-.1,0-.2,0-.4,0-.9.1-2.7-1.1-3.4-1.6-.6-.4-.9-.9-1-1.6,0-.5,0-1.1,0-1.6.1-1.3.2-2.3,1.1-3.4,0,0,0-.1-.1-.2-.2-.3-.3-.6-.3-.9,0-.5.1-1.1.2-1.6l.4-3.1c.2-1.6.4-3.3.7-4.9-1.8.3-3.7.4-5.6.6-.2,2.5-.5,5-.7,7.5-.1,1.3-.2,2.7-.4,4,0,.5-.3.8-.7,1.1,1.5,1.7,3.6,2.6,4.8,4.5.5.9.9,2,1,3.1,0,.7-.3,1.4-.8,1.9-1.4,1.5-4.2,1.9-6.1,1.9-3.3,0-6-1.5-8.3-3.8-.8,0-1.4-.6-2-1.1-.3-.3-.6-.8-.7-1.2-.3-1.2,0-3.4.4-4.7,0-.3.3-.8.3-1.1,0-.4-.5-.7-.5-1.1,0-.7,0-2.7,0-3.5,0-2.1.1-4.1.2-6.2-.8.1-1.5.1-2.3.2-.2,2.7-.4,5.4-.5,8l-.5,7.4-.3,4.5c0,.8,0,1.6-.2,2.4,0,.5-.3.9-.6,1.2-.3.3-.9.4-1.3.4,0,0-.1,0-.2,0,0,0-.1,0-.2,0,0,0-.1,0-.2,0,0,0-.1,0-.2,0,0,0,0,0-.1,0,0,0,0,0-.1-.1,0,0,0,0-.1-.1,0,0,0,0-.1-.1-.2-.3-.4-.6-.4-1,0-1.2,0-2.5.1-3.7.1-2.3.2-4.6.4-6.9l.5-8.3c0-1.3,0-2.6.2-3.9-1-.5-1.9-1.3-2.8-2-2.4-1.8-4.8-3.8-7.2-5.5h0c0,1.9-.3,3.6-.5,5.4l-.8,8.5c-.1,1.3-.3,2.7-.4,4,0,1-.1,2.1-.3,3.2,0,.5-.3.8-.6,1.1-.3.3-.8.4-1.2.4,0,0-.1,0-.2,0,0,0-.1,0-.2,0,0,0-.1,0-.2,0,0,0-.1,0-.2,0,0,0-.1,0-.1,0s0,0-.1-.1c0,0,0,0-.1-.1,0,0,0,0-.1-.1-.3-.4-.4-.8-.4-1.2,0-1,.1-1.9.2-2.9.1-1.3.2-2.5.3-3.8l1.5-16.7c-.3-.2-.6-.4-.9-.7-.3-.3-.5-.7-.7-1.1-.3-1,0-3.3-.1-4.5-.9-.8-2.2-1.3-2.9-2.3,0,0,0-.1-.1-.2,0,0,0-.1-.1-.2,0,0,0-.1,0-.2,0,0,0-.1,0-.2-.1-.7-.1-3,0-3.7.3-1.4,2-1.2,3.1-1.3.2,0,.5,0,.6-.1-.8-1.7-1.3-2.3-1.2-4.2-.4-.2-.8-.4-1.2-.7-.6-.6-.8-1.2-.8-2,0-1.5,0-3.1,0-4.7,0-1.9-.1-4.6.3-6.5,0-.5.3-1,.6-1.3,1.1-1.2,3.6-1,5.1-1,1.9-3.6,4.4-4.6,7.9-6.2,1.4-.6,2.7-1.3,4.1-1.7,0-.3.1-.7.3-1,.3-.9,1.1-1.4,1.6-2.2,0,0,0,0,0,0-.2-.8-.3-1.6-.3-2.4-.2,0-.5,0-.7,0-1.1,0-2-.6-2.7-1.3-1.5-1.6-1.9-3.8-1.7-6,.1-1.6.8-2.6,2-3.6,0-.4-.1-.9-.1-1.3-.2-3.7.4-8,3-10.9,1.4-1.5,3.2-2.5,5.3-2.6,2.4-2.2,4.3-2.9,7.5-3.2ZM41.3,67c-.1.3-.3.7-.3,1,0,.8.5,1.9.7,2.7.2.9.5,1.9.7,2.8-1.6-.8-3.1-1.9-4.2-3.2-.2.4-.6.9-1,1-.2,0-.5,0-.7,0-1.1.5-.8,1.2-2.5,1-1,.6-1.7.7-2.8.4-.9-.2-1.8-.6-2.8-.8h0c1.2.8,2.8,2.4,4,3.4.4.4.9.8,1.4,1.1.1,0,.3,0,.4,0,1.9,0,3.8-.5,5.7-.6,6.5-.8,13.1-1.3,19.6-2.2-1-.5-2-1.1-2.9-1.7-.8-.5-1.6-1-2.4-1.5-.8.4-1.8,1.1-2.7.8-.2,0-.3-.2-.4-.3-.5.3-1,.6-1.6.4-.4,0-.6-.5-.9-.5-.3,0-1.6.9-2.4-.6,0-.1-.1-.3-.2-.5-.5,0-1-.2-1.4-.7-.5-.6-.3-1.4-.2-2h0c-.2-.1-.4-.1-.6-.1-.9,0-1.8.1-2.7.2ZM50.3,57.8c-.2.7-.9,3-.8,3.6,0,0,0,0,.2,0,.2,0,.3-.1.4-.2.5-.3,1.1-.7,1.3-1.3,0-.4,0-.9-.3-1.2-.2-.3-.5-.7-.8-.9Z" fill="#654b30"/>
  <path d="M31.9,11.7c.3.3.7.5,1.1.7,1.4.7,2.8.6,4.2.2.2.1.4.3.6.4,1.9,1.2,4.1.9,6.2.4.5.2,1,.5,1.5.6,2.1.4,4.2-.7,5.9-1.8,1.2,2.2,1.9,3.8,2,6.4,0,2.3-.5,4.6-.7,6.9-.2,2.4,0,4.9-.6,7.2-.3,1.1-.9,1.9-1.7,2.7,0-.8-.3-1.6-.8-2.3-.9-1-2.1-1.1-3.3-1.2.3-.4.6-.8.7-1.3.5-1.6-.5-2.9-1.2-4.3-.1-.3-.3-.6-.4-.9-.1-.5-.2-1.4-.6-1.8-.1,0-.2,0-.3,0-.3.2-.2.7-.2,1,.2,1.2.7,2.1,1.2,3.1.2.3.4.6.5.9.2.4.2.8.2,1.2,0,0,0,0,0,.1,0,0,0,0,0,.1,0,0,0,0,0,.1,0,0,0,0,0,.1,0,0,0,0,0,.1,0,0,0,0,0,.1,0,0,0,0,0,.1,0,0,0,0,0,.1,0,0,0,0,0,.1,0,0,0,0,0,0,0,0,0,0,0,0,0,0,0,0,0,0,0,0,0,0,0,0,0,0,0,0,0,0,0,0,0,0,0,0,0,0,0,0,0,0-1.1.9-3.2.8-4.4.2-.4-.2-.8-.9-1.2-.9-.2,0-.2,0-.3.2,0,.3,0,.5.2.8-.5,0-1.1-.2-1.6-.2-1.2-.2-2.4-.6-3.7,0-1.4.6-2.2,1.8-2.8,3.1-.2,0-.3-.2-.4-.2-.1,0-.3-.2-.4-.3-.1,0-.3-.2-.4-.3-.1,0-.3-.2-.4-.3-.1-.1-.3-.2-.4-.3-.1-.1-.3-.2-.4-.3-.1-.1-.2-.2-.4-.4-.1-.1-.2-.2-.3-.4-3.1-3.7-.8-8.2-.5-12.4,2.5-2.6,3.1-4.5,3.9-7.9Z" fill="#e5aa82"/>
  <path d="M37.6,18.3c1.1,0,2.3.2,3.2,1,.3.3.6.6.6,1,0,.2,0,.4-.2.5-.1.1-.3.2-.5.2-.5,0-1-.2-1.5-.3-.7-.2-1.5-.2-2.2-.2-.5,0-1.1.1-1.6.3-.5.1-.9.3-1.4.4-.2,0-.3,0-.5,0,0,0,0-.1-.1-.2,0-.4.2-.8.4-1.1.9-1.1,2.5-1.4,3.9-1.5Z" fill="#654b30"/>
  <path d="M48.5,19.5c.4,0,.8,0,1.2,0,.9,0,2,.5,2.5,1.2.3.3.4.8.4,1.2,0,.2,0,.3-.2.4-.4.1-.8-.2-1.2-.4-.9-.4-1.7-.5-2.6-.5-.5,0-1.1,0-1.6-.1,0,0-.2-.2-.2-.4,0-.2,0-.4.1-.5.4-.6,1-.9,1.6-1Z" fill="#654b30"/>
  <path d="M36.7,24.7c.3,0,.6,0,.8,0,.6,0,1.3.2,1.7.7.2.2.3.6.2.9,0,.2,0,.2-.2.3-.6,0-1.1-.5-1.6-.6,0,0,0,0,0,0-.4,0-.7,0-1.1,0-.5.1-1.1.7-1.6.6,0,0-.1,0-.1-.2,0-.3,0-.6.2-.8.4-.5,1.2-.7,1.8-.8Z" fill="#654b30"/>
  <path d="M48.8,25.4c.6,0,1.2,0,1.6.5.2.2.3.5.3.8,0,.2,0,.2-.1.3-.4,0-1.1-.5-1.5-.5,0,0,0,0,0,0-.4,0-.9,0-1.2.2-.1,0-.3.2-.4.3,0,0-.2,0-.2,0-.1,0-.3-.3-.3-.5,0-.1,0-.3,0-.4.4-.6,1.3-.7,1.9-.8Z" fill="#654b30"/>
  <path d="M21.7,36.9h0c.3,2.3,1,4.4,1.5,6.5.3,1.2.6,2.5,1.1,3.7.1.3.3.7.6.8,1.1,0,4.6-1.9,5.8-2.5.3.4.6.9.9,1.2,1.3,1.5,3.3,1.6,5.1,2.4-.2,1-.5,2-.7,3-.3,1.3-.4,2.7-.6,4-.2,1.1-.5,2.2-.5,3.3-.6-.9-1.2-1.8-1.8-2.8-.5-.8-1-1.6-1.5-2.4-.3-.5-.7-1-1.1-1.5-.3-.4-.5-.9-.8-1.3-.2-.2-.5-.3-.8-.4-.6.2-1.3.3-1.8.6-.3.2-.5.4-.6.7-.1.5,0,1,.3,1.5.5,1,1.4,1.9,2,2.8,1.1,1.6,2.2,3.2,3.3,4.8-.6.2-1.3.3-1.9.4-.6.2-1.3.4-1.9.6-.2,0-.6.2-.8.2-.5,0-1-.4-1.5-.6-1.8-.7-3.5-1.5-5.2-2.3l-.6-.3c0-.8,0-1.7,0-2.6.3-2.8,1-5.7.5-8.5-.4-2.5-1.5-4.6-3.6-6.1-.2-.2-.6-.4-.9-.4,0,.2,0,.3,0,.4.2.3.7.7,1,1,1.1,1,1.7,2.1,2.2,3.5.9,2.4.6,5.1.2,7.6,0,.7-.3,1.5-.2,2.2,0,0,0,0,0,0h0c-.4-.4-1.2-.9-1.8-1.1-3.6-1.3-6.8-.6-10.2,1,.1-1.1.2-2.3.3-3.4.3-2.1.9-4.2,1.5-6.2,2.3-7.1,6.7-7.2,12.4-10.1Z" fill="#8e403c"/>
  <path d="M7.2,73.3c.7.3,1.9,1.4,2.6,1.8l7,5.1c1.2.8,2.3,1.8,3.6,2.5.7.4,1.5.7,2.2.9,0,.7-.1,3,0,3.5,0,.1,0,.2.2.2.1,0,.3,0,.4,0,.3-.5.1-2.9.1-3.6,1.9.2,3.9,0,5.8-.3,3.2-.3,6.3-.6,9.5-.9,5.6-.5,11.1-1.1,16.6-1.7,5.9-.6,11.8-1.2,17.7-2v1.5s0,.1,0,.1c0,1,0,2.2-.7,2.9-.7.6-1.7.8-2.6,1-3.5.6-7.1.9-10.6,1.3-6.6.7-13.3,1.4-20,2-2.7.3-5.4.5-8.1.8-2.3.2-4.6.5-6.9.5-.8,0-1.6-.1-2.3-.5-.8-.4-1.5-1.1-2.3-1.6l-4.7-3.6-4.9-3.7c-.8-.6-1.9-1.3-2.5-2-.6-.6-.3-3.3-.3-4.1Z" fill="#d5bc2a"/>
  <path d="M50.7,39.8c.3,0,.7.2,1,.3,1.2.5,2.2,1.3,3,2.3,1.1,1.3,1.9,2.9,2.8,4.3.9,1.5,1.8,3,2.6,4.6.5.9,1,1.7,1.4,2.6-1.8-.2-3.8,0-5.5.6-1.7.7-3.5,2-4.3,3.7-.4-.5-.8-1.2-1-1.8.1-.9.4-1.9.6-2.8.4-2,.6-3.9.7-5.9,0-.6,0-1.5-.2-2-.2.2-.2.5-.3.8-.2,1.2-.2,2.6-.4,3.8-.2,1.5-.5,3.1-.8,4.6-.5,2.3-1.1,4.7-1.8,6.9-.9,0-1.8.2-2.7.3-2.9.2-5.7.5-8.6.7-.5-.8-1.1-1.5-1.3-2.4-.3-1,.3-3.1.5-4.3.2-1.4.2-3.8.8-5.1.8-1.8,5.7-2.1,7.1-4.6.8.2,2.3,1.6,3,1.5.2,0,.3,0,.4-.2.4-.5-.3-3.4-.4-4.1,1.2-1.3,2.4-2.4,3.5-3.7Z" fill="#8e403c"/>
  <path d="M37.4,57.7c.2,0,.3,0,.5,0,.2,0,.5.2.6.4.1.2.2.5,0,.7-.1.4-.3.5-.6.7,0,0-.2,0-.3,0-.3,0-.6,0-.8-.4-.1-.2-.2-.4-.1-.7,0-.4.3-.6.7-.8Z" fill="#654b30"/>
  <path d="M37.6,58.2c0,0,.1,0,.2,0,.1,0,.2.1.2.3,0,.2-.1.3-.3.5,0,0-.2,0-.2,0-.1,0-.2-.2-.2-.3,0-.2.1-.3.3-.5Z" fill="#8e403c"/>
  <path d="M38,51.3s0,0,0,0,0,0,0,0c0,0,0,0,0,0,0,0,0,0,0,0s0,0,0,0c0,0,0,0,0,0,0,0,0,0,0,0,0,0,0,0,0,0,0,0,0,0,0,0,0,0,0,0,0,0,0,0,0,0,0,0,0,0,0,0,0,0,0,0,0,0,0,0,0,0,0,0,0,0,0,0,0,0,0,0,0,0,0,0,0,0,0,0,0,0,0,0,0,0,0,0,0,0,0,0,0,0,0,0,0,0,0,0,0,0,0,0,0,0,0,0,0,0,0,0,0,0,0,0,0,0,0,0,0,0,0,0,0,0,0,0,0,0,0,0,0,0,0,0,0,0,0,0,0,0,0,0,0,0,0,0,0,0,0,0,0,0,0,0,0,0,0,0,0,0,0,0,0,0,0,0,0,0,0,0,0,0,0,0,0,0,0,0,0,0,0,0,0,0,0,0,0,0,0,0,0,0,0,0,0,0,0,0,0,0,0,0s0,0,0,0c0,0,0,0,0,0,0,0,0,0,0,0,0,0,0,0,0,0,0,0,0,0,0,0,0,0,0,0,0,0,0,0,0,0,0,0,0,0,0,0,0,0,0,0,0,0,0,0,0,0,0,0,0,0,0,0,0,0,0,0s0,0,0,0c0,0,0,0,0,0,0,0,0,0,0,0,0,0,0,0,0,0,0,0,0,0,0,0,0,0,0,0,0,0,0,0,0,0,0,0,0,0,0,0,0,0,0,0,0,0,0,0,0,0,0,0,0,0,0,0,0,0,0,0,0,0,0,0,0,0s0,0,0,0c0,0,0,0,0,0,0,0,0,0,0,0,0,0,0,0,0,0,0,0,0,0,0,0,0,0,0,0,0,0s0,0,0,0c0,0,0,0,0,0,0,0,0,0,0,0,0,0,0,0,0,0,0,0,0,0,0,0,0,0,0,0,0,0,0,0,0,0,0,0,0,0,0,0,0,0,0,0,0,0,0,0s0,0,0,0c0,0,0,0,0,0,0,0,0,0,0,0,0,0,0,0,0,0,0,0,0,0,0,0,0,0,0,0,0,0,0,0,0,0,0,0,0,0,0,0,0,0,0,0,0,0,0,0,0,0,0,0,0,0,0,0,0,0,0,0,0,0,0,0,0,0,0,0,0,0,0,0,0,0,0,0,0,0,0,0,0,0,0,0,0,0,0,0,0,0,0,0,0,0,0,0,0,0,0,0,0,0,0,0,0,0,0,0,0,0,0,0,0,0,0,0,0,0,0,0,0,0,0,0,0,0,0,0,0,0,0,0,0,0,0,0,0,0,0,0,0,0,0,0,0,0,0,0,0,0,0,0,0,0,0,0,0,0,0,0,0,0s0,0,0,0c0,0,0,0,0,0,0,0,0,0,0,0,0,0,0,0,0,0,0,0,0,0,0,0,0,0,0,0,0,0,0,0,0,0,0,0,0,0,0,0,0,0,0,0,0,0,0,0Z" fill="#654b30"/>
  <path d="M37.9,51.8s0,0,0,0c0,0,0,0,0,0,0,0,0,0,0,0s0,0,0,0c0,0,0,0,0,0s0,0,0,0c0,0,0,0,0,0,0,0,0,0,0,0,0,0,0,0,0,0,0,0,0,0,0,0,0,0,0,0,0,0,0,0,0,0,0,0,0,0,0,0,0,0,0,0,0,0,0,0,0,0,0,0,0,0,0,0,0,0,0,0s0,0,0,0c0,0,0,0,0,0,0,0,0,0,0,0,0,0,0,0,0,0,0,0,0,0,0,0,0,0,0,0,0,0,0,0,0,0,0,0,0,0,0,0,0,0,0,0,0,0,0,0,0,0,0,0,0,0,0,0,0,0,0,0,0,0,0,0,0,0,0,0,0,0,0,0,0,0,0,0,0,0,0,0,0,0,0,0,0,0,0,0,0,0,0,0,0,0,0,0,0,0,0,0,0,0,0,0,0,0,0,0,0,0,0,0,0,0,0,0,0,0,0,0,0,0,0,0,0,0,0,0,0,0,0,0,0,0,0,0,0,0s0,0,0,0c0,0,0,0,0,0,0,0,0,0,0,0,0,0,0,0,0,0,0,0,0,0,0,0s0,0,0,0c0,0,0,0,0,0,0,0,0,0,0,0,0,0,0,0,0,0,0,0,0,0,0,0,0,0,0,0,0,0,0,0,0,0,0,0s0,0,0,0c0,0,0,0,0,0,0,0,0,0,0,0,0,0,0,0,0,0Z" fill="#8e403c"/>
  <path d="M61.9,63.9c.1,0,.2,0,.3,0,1,.3,2,1.1,2.9,1.6l3.4,2.1c2.3,1.5,4.8,2.9,7.1,4.5.2.1.5.4.6.6,0,0,0,0,0,.1-.3.5-2.1.8-2.7.9-2.6.5-5.4.7-8,1-5.9.7-11.8,1.3-17.7,1.8l-14.1,1.4c-2.8.3-5.6.6-8.3.7-.8,0-1.6,0-2.4-.2-2.1-.6-5.4-3.2-7.3-4.5-2-1.4-3.9-2.8-5.9-4.2-.9-.6-5.4-3.7-5.6-4.2h0c.7-.4,2.8-.4,3.7-.5.2.3.4.6.6.9,2.8,3.2,12.8,3.6,16.8,3.9,1,1.1,2.3,2,3.4,3,1.5,1.2,3.5,3.2,5.1,4.1.9,0,1.9-.1,2.8-.2,2-.2,3.9-.4,5.9-.6l10.5-1.1c1.7-.2,3.5-.4,5.2-.6.6,0,1.2,0,1.8-.2.2,0,.4,0,.6-.2.2,0,.3-.2.3-.4-.2-.6-5-3.4-5.7-3.9.4-.3.8-.5,1.2-.8,1.2-.8,2-1.9,2.6-3.1,1.3-.7,1.9-1.1,3-2Z" fill="#7ab2c3"/>
  <path d="M3.9,66.6c.3.2.5.4.8.6.8.6,1.5,1.1,2.3,1.6l8,5.7c2.1,1.5,5.4,4.2,7.9,4.8,1,.2,2,.3,3,.2,3.5-.2,7-.6,10.4-.9l14.9-1.5,14.5-1.5c2.8-.3,5.5-.6,8.3-1.1.7-.1,1.4-.3,2-.7,0,1,0,2.1-.3,3.1,0,.1-.2.2-.3.3-.6.5-2.1.6-2.8.8-4,.6-8,1-12,1.4l-17.4,1.8-12.1,1.2c-2.3.2-4.7.5-7,.5-1.2,0-2.2-.1-3.3-.7-1.5-.8-2.9-2-4.3-3l-6.9-5.1-3.6-2.5c-.6-.5-1.4-.9-1.9-1.5-.2-.2-.3-.4-.4-.6-.2-.7,0-2.2,0-2.9Z" fill="#7ab2c3"/>
  <path d="M14.1,59c.6,0,1.3,0,1.9,0,.8,0,1.6.3,2.3.6,1.8.7,3.4,1.6,5.1,2.3.7.3,1.5.6,2.2.9.4.2.9.3,1.3.5.2,0,.3.2.4.4,1.2-.3,2.3-.9,3.6-1.1,2.1-.5,3.8-.1,5.6,1,1.5,1,3.1,2.4,3.5,4.3-.1.2-.2.5-.4.7-.2.2-.4.4-.7.4-.4,0-1.1-1.1-1.4-1.4-.6-.7-2.4-2.6-3.4-2.7-.1,0-.1.1-.2.3,0,.1,0,.2,0,.3.2.2.7.4.9.6.8.7,2.2,1.9,2.6,2.9.1.3.2.6,0,.9-.2.4-.5.6-.9.7-1.4-1.3-2.4-3-4.3-3.7-.2,0-.2,0-.4.1,0,.1,0,.1,0,.3.2.3.7.6,1,.8.6.5,2.5,2,2.6,2.6,0,.2,0,.3-.2.4-.2.2-.5.4-.7.4-.6,0-3.3-2.7-4.2-2.6-.1,0-.2,0-.3.1,0,.7,3,1.8,3.1,2.6,0,0,0,0,0,.1-.2.2-.5.4-.8.4-.9.1-4.6-1.1-5.4-1.6-.6-.3-1.1-1-1.8-1.2-1-.2-2.2-.1-3.2-.2-3.2-.3-10-1-12.6-3-.7-.5-1.1-1.1-1.2-1.9-.1-.9-.4-2.1.3-2.9,1.3-1.5,3.6-2.1,5.4-2.2Z" fill="#e5aa82"/>
  <path d="M28.3,89.4c1.3-.2,2.8-.2,4.1-.4,2.7-.3,5.3-.6,8-.8-.2,1.8-.3,3.5-.5,5.3,0,.8-.1,1.5-.2,2.3,0,.5,0,1-.2,1.6,0,.8-.1,1.7-.3,2.5,0,0,0,0,0,0-1.4,1.3-4.1,1.4-5.9,1.3-1.4,0-3.9-.6-4.8-1.6-.2-.2-.2-.4-.3-.7-.1-1.1,0-2.4,0-3.6,0-2,0-3.9.1-5.9Z" fill="#e5aa82"/>
  <path d="M59,86.3c.1,0,0,0,.2,0,0,.6-1.7,11.1-1.9,11.6-.2.4-.7.7-1.1.8-2.5.9-6.3.7-8.7-.4-.5-.3-.9-.6-1.3-1,.1-1.3.4-2.6.5-3.9.3-2,.5-3.9.8-5.9,1.3,0,2.6-.3,3.9-.4,2.5-.3,5-.5,7.5-.8Z" fill="#e5aa82"/>
  <path d="M58.3,57.1c1-.1,2.2,0,3,.5.6.4,1,.9,1.1,1.6.4,1.9-.7,4.1-2.3,5.2-.6.4-1.3.6-1.8,1.1-.3.3-.4.8-.7,1.1-.4.6-.9,1.1-1.5,1.6-.8.6-2.9,2-3.8,2.2-.2,0-.3,0-.5,0-.2-.8,2.3-2.8,2.3-3.5,0-.2,0-.2-.1-.3-1,0-2.6,3.3-3.6,3.9-.2.1-.4.2-.6.1-.2,0-.3-.2-.4-.4-.3-.7,1.2-2.5,1.6-3.1.3-.4.8-.9,1-1.3,0-.2,0-.2-.2-.4-1.4.8-2.5,2.9-3.3,4.2-.2.3-.4.5-.7.6-.2,0-.5,0-.6-.2-.1-.1-.2-.3-.2-.4-.1-1.1,1.1-2.7,1.8-3.5.3-.3.6-.6.9-1,.1-.2.2-.3.2-.5h0c-.1,0-.2-.1-.3,0-.5.2-2,2.1-2.4,2.6-.3.5-.4,1-.8,1.4,0,.1-.3.3-.4.3-.1,0-.2,0-.3,0-.2-.2-.3-.5-.3-.8-.1-1,.7-2.4,1.4-3.2,1.3-1.6,2.7-2,4.3-3.1.8-.6,1.4-1.3,2.2-2,1.5-1.4,3.2-2.3,5.2-2.5Z" fill="#e5aa82"/>
  <path d="M43.5,73.8c0,0,.2,0,.2,0,.1,0,.2.1.2.3,0,.2-.1.3-.3.4-.1,0-.3,0-.4-.2-.1,0-.1-.1-.1-.3.1-.2.2-.2.4-.3Z" fill="#7f5330"/>
  <path d="M45.7,73.6c0,0,.2,0,.3,0,.2,0,.2.1.2.3,0,.2-.2.3-.3.4,0,0-.1,0-.2,0-.2,0-.3-.1-.3-.3,0-.2.1-.2.3-.4Z" fill="#7f5330"/>
  <path d="M48.6,72h.2c.1.2.1.2.1.3,0,.2-.2.3-.3.5,0,0-.1,0-.2-.1-.1-.1-.2-.2-.2-.3,0-.2.2-.3.4-.4Z" fill="#7f5330"/>
  <path d="M50.7,73.1s0,0,0,0c0,0,0,0,0,0,0,0,0,0,0,0,0,0,0,0,0,0,0,0,0,0,0,0,0,0,0,0,0,0,0,0,0,0,0,0,0,0,0,0,0,0,0,0,0,0,0,0,0,0,0,0,0,0,0,0,0,0,0,0,0,0,0,0,0,0,0,0,0,0,0,0,0,0,0,0,0,0,0,0,0,0,0,0,0,0,0,0,0,0,0,0,0,0,0,0,0,0,0,0,0,0s0,0,0,0c0,0,0,0,0,0,0,0,0,0,0,0,0,0,0,0,0,0,0,0,0,0,0,0,0,0,0,0,0,0,0,0,0,0,0,0,0,0,0,0,0,0,0,0,0,0,0,0,0,0,0,0,0,0,0,0,0,0,0,0,0,0,0,0,0,0,0,0,0,0,0,0,0,0,0,0,0,0,0,0,0,0,0,0,0,0,0,0,0,0,0,0,0,0,0,0,0,0,0,0,0,0s0,0,0,0c0,0,0,0,0,0,0,0,0,0,0,0,0,0,0,0,0,0s0,0,0,0c0,0,0,0,0,0,0,0,0,0,0,0,0,0,0,0,0,0,0,0,0,0,0,0,0,0,0,0,0,0,0,0,0,0,0,0,0,0,0,0,0,0,0,0,0,0,0,0,0,0,0,0,0,0,0,0,0,0,0,0,0,0,0,0,0,0,0,0,0,0,0,0,0,0,0,0,0,0,0,0,0,0,0,0s0,0,0,0Z" fill="#654b30"/>
  <path d="M36.2,74.7c0,0,.2,0,.2,0,.2,0,.2,0,.3.2,0,.2-.1.3-.2.4,0,0-.2,0-.3,0-.1,0-.2-.1-.3-.3,0-.2,0-.2.2-.4Z" fill="#7f5330"/>
  <path d="M38.6,74.6s0,0,0,0c0,0,0,0,0,0,0,0,0,0,0,0,0,0,0,0,0,0,0,0,0,0,0,0,0,0,0,0,0,0,0,0,0,0,0,0,0,0,0,0,0,0,0,0,0,0,0,0,0,0,0,0,0,0,0,0,0,0,0,0,0,0,0,0,0,0,0,0,0,0,0,0s0,0,0,0c0,0,0,0,0,0,0,0,0,0,0,0,0,0,0,0,0,0,0,0,0,0,0,0,0,0,0,0,0,0,0,0,0,0,0,0,0,0,0,0,0,0,0,0,0,0,0,0s0,0,0,0c0,0,0,0,0,0,0,0,0,0,0,0,0,0,0,0,0,0,0,0,0,0,0,0,0,0,0,0,0,0,0,0,0,0,0,0,0,0,0,0,0,0,0,0,0,0,0,0,0,0,0,0,0,0,0,0,0,0,0,0,0,0,0,0,0,0,0,0,0,0,0,0,0,0,0,0,0,0,0,0,0,0,0,0,0,0,0,0,0,0,0,0,0,0,0,0,0,0,0,0,0,0,0,0,0,0,0,0,0,0,0,0,0,0,0,0,0,0,0,0,0,0,0,0,0,0,0,0,0,0,0,0,0,0,0,0,0,0,0,0,0,0,0,0s0,0,0,0c0,0,0,0,0,0,0,0,0,0,0,0,0,0,0,0,0,0,0,0,0,0,0,0,0,0,0,0,0,0,0,0,0,0,0,0,0,0,0,0,0,0,0,0,0,0,0,0,0,0,0,0,0,0,0,0,0,0,0,0,0,0,0,0,0,0,0,0,0,0,0,0,0,0,0,0,0,0,0,0,0,0,0,0,0,0,0,0,0,0,0,0,0,0,0,0Z" fill="#7f5330"/>
  <path d="M40.5,74.4c.1,0,.2,0,.3,0,.2,0,.3,0,.4.2,0,.2,0,.2-.2.4,0,0-.1,0-.2,0-.1,0-.3,0-.3-.2,0-.2,0-.3,0-.4Z" fill="#7f5330"/>
  <path d="M39,72.9s0,0,0,0,0,0,0,0c0,0,0,0,0,0,0,0,0,0,0,0,0,0,0,0,0,0,0,0,0,0,0,0,0,0,0,0,0,0,0,0,0,0,0,0,0,0,0,0,0,0,0,0,0,0,0,0,0,0,0,0,0,0,0,0,0,0,0,0,0,0,0,0,0,0,0,0,0,0,0,0,0,0,0,0,0,0,0,0,0,0,0,0,0,0,0,0,0,0,0,0,0,0,0,0,0,0,0,0,0,0,0,0,0,0,0,0s0,0,0,0c0,0,0,0,0,0,0,0,0,0,0,0,0,0,0,0,0,0,0,0,0,0,0,0,0,0,0,0,0,0,0,0,0,0,0,0,0,0,0,0,0,0,0,0,0,0,0,0,0,0,0,0,0,0,0,0,0,0,0,0,0,0,0,0,0,0,0,0,0,0,0,0,0,0,0,0,0,0,0,0,0,0,0,0,0,0,0,0,0,0,0,0,0,0,0,0,0,0,0,0,0,0,0,0,0,0,0,0,0,0,0,0,0,0,0,0,0,0,0,0,0,0,0,0,0,0,0,0,0,0,0,0,0,0,0,0,0,0,0,0,0,0,0,0s0,0,0,0c0,0,0,0,0,0,0,0,0,0,0,0,0,0,0,0,0,0,0,0,0,0,0,0,0,0,0,0,0,0,0,0,0,0,0,0,0,0,0,0,0,0,0,0,0,0,0,0,0,0,0,0,0,0,0,0,0,0,0,0Z" fill="#7f5330"/>
  <path d="M34.7,73.4s0,0,0,0c0,0,0,0,0,0,0,0,0,0,0,0,0,0,0,0,0,0,0,0,0,0,0,0,0,0,0,0,0,0,0,0,0,0,0,0,0,0,0,0,0,0,0,0,0,0,0,0,0,0,0,0,0,0,0,0,0,0,0,0,0,0,0,0,0,0,0,0,0,0,0,0,0,0,0,0,0,0,0,0,0,0,0,0,0,0,0,0,0,0s0,0,0,0,0,0,0,0c0,0,0,0,0,0,0,0,0,0,0,0,0,0,0,0,0,0,0,0,0,0,0,0,0,0,0,0,0,0,0,0,0,0,0,0,0,0,0,0,0,0,0,0,0,0,0,0,0,0,0,0,0,0,0,0,0,0,0,0,0,0,0,0,0,0,0,0,0,0,0,0,0,0,0,0,0,0,0,0,0,0,0,0,0,0,0,0,0,0,0,0,0,0,0,0,0,0,0,0,0,0,0,0,0,0,0,0,0,0,0,0,0,0,0,0,0,0,0,0,0,0,0,0,0,0,0,0,0,0,0,0,0,0,0,0,0,0,0,0,0,0,0,0,0,0,0,0,0,0,0,0,0,0,0,0,0,0,0,0,0,0,0,0,0,0,0,0,0,0,0,0,0,0,0,0,0,0,0,0,0,0,0,0,0,0s0,0,0,0c0,0,0,0,0,0,0,0,0,0,0,0,0,0,0,0,0,0,0,0,0,0,0,0,0,0,0,0,0,0,0,0,0,0,0,0Z" fill="#7f5330"/>
  <path d="M42.7,69.3c.2,0,.4,0,.6.3,0,.2,0,.2-.1.3,0,0-.2,0-.3,0-.2,0-.2,0-.3-.2,0-.2,0-.2.1-.4Z" fill="#7f5330"/>
  <path d="M42.6,70.9s0,0,0,0c0,0,0,0,0,0,0,0,0,0,0,0,0,0,0,0,0,0,0,0,0,0,0,0,0,0,0,0,0,0,0,0,0,0,0,0,0,0,0,0,0,0,0,0,0,0,0,0,0,0,0,0,0,0,0,0,0,0,0,0,0,0,0,0,0,0,0,0,0,0,0,0,0,0,0,0,0,0s0,0,0,0c0,0,0,0,0,0,0,0,0,0,0,0,0,0,0,0,0,0,0,0,0,0,0,0,0,0,0,0,0,0,0,0,0,0,0,0,0,0,0,0,0,0,0,0,0,0,0,0,0,0,0,0,0,0,0,0,0,0,0,0,0,0,0,0,0,0s0,0,0,0c0,0,0,0,0,0,0,0,0,0,0,0,0,0,0,0,0,0,0,0,0,0,0,0,0,0,0,0,0,0,0,0,0,0,0,0,0,0,0,0,0,0,0,0,0,0,0,0,0,0,0,0,0,0,0,0,0,0,0,0,0,0,0,0,0,0,0,0,0,0,0,0,0,0,0,0,0,0,0,0,0,0,0,0,0,0,0,0,0,0,0,0,0,0,0,0,0,0,0,0,0,0,0,0,0,0,0,0,0,0,0,0,0,0,0,0,0,0,0,0,0,0,0,0,0,0,0,0,0,0,0,0,0,0,0,0,0,0,0,0,0,0,0,0,0,0,0,0,0,0,0,0,0,0,0,0,0,0,0,0,0,0,0,0,0,0,0,0,0,0,0,0,0,0Z" fill="#7f5330"/>
  <path d="M44,72.3s0,0,0,0c.2,0,.3,0,.5.2,0,.2,0,.2-.2.4,0,0,0,0,0,0-.2,0-.3-.1-.4-.2,0-.2,0-.2.1-.4Z" fill="#7f5330" fill-opacity="1"/>
  <path d="M46.3,72.2c.2,0,.3,0,.4.2,0,.2,0,.3-.1.4,0,0-.2,0-.2,0-.2,0-.2,0-.3-.2,0-.2.1-.3.2-.5Z" fill="#7f5330"/>
  <path d="M28.6,100.8c.4.2.8.4,1.3.6,3,1,5.6.8,8.7,0,1.4,1.4,4,3.1,4.9,4.6.3.5.6,1.3.5,1.9-.1.4-.4.6-.7.8-.3.2-.6.3-.9.4-2.7.9-5.9.9-8.4-.4-1.4-.7-2.5-1.7-3.7-2.7-.5-.4-1.1-.7-1.5-1.2-.2-.2-.4-.4-.5-.7-.3-.9,0-2.4.5-3.3Z" fill="#7f5330"/>
  <path d="M46.5,98.9c3.4,1.6,6.7,1.6,10.3.6.5.5,1,1,1.5,1.4,1.5.9,3.2,1.4,4.2,3,.2.4.4.8.3,1.2-.1.4-.7.7-1.1.9-.5.2-1.1.4-1.7.5-2.4.6-5.3.6-7.6-.6-.7-.4-1.4-.9-2.2-1.3-1.1-.6-2.3-.9-3.3-1.6-.6-.4-1.1-.8-1.3-1.5-.2-.9.4-1.9.8-2.6Z" fill="#7f5330"/>
  <path d="M22.2,89.3c.8.2,1.5.3,2.3.4-.2,1.9-.3,3.8-.4,5.7l-.7,11.5c0,1-.2,4.5-.5,5.3,0,0,0,0-.1.1-.2.2-.5.4-.8.4-.4,0-.6-.2-.8-.4-.1-.3-.2-.6-.2-.9,0-.7,0-1.4,0-2.2,0-1.4.1-2.8.2-4.3l.5-8.7c.1-2.3.3-4.7.3-7Z" fill="#dcddde"/>
  <path d="M71.6,84.6c0,0,0,0,0,.1.1,1.6.2,3.3.3,4.9l.5,8.4.3,5.7c0,1.1.2,2.3.1,3.4,0,.3,0,.6-.2.9-.2.2-.4.4-.7.5-.3,0-.4,0-.6-.2-.1-.2-.3-.3-.3-.5-.2-1-.2-2-.2-3l-.3-5.8-.5-8.7c-.1-1.7-.3-3.5-.3-5.2.7,0,1.3-.2,2-.4Z" fill="#dcddde"/>
  <path d="M8.7,79.5c.7.5,1.4,1,2,1.5-.3,4-.8,7.9-1.1,11.9l-.6,6.1c-.1,1.1-.2,2.2-.3,3.3,0,.2,0,.4-.2.6-.2.2-.5.3-.8.3-.3,0-.5-.1-.7-.3-.2-.2-.2-.4-.2-.6,0-.8.1-1.6.2-2.4l.3-3.7,1-10.8c.2-1.9.4-3.8.5-5.7Z" fill="#dcddde"/>
  <path d="M23.6,34.1c.2.2.5,1.3.7,1.7.3.7.7,1.4,1.2,2.1.3.5.6.9,1,1.4.4.4.7.9,1.1,1.3.6.6,1.3,1.1,1.7,1.8.5.7.8,1.6,1.1,2.4-.7.2-1.6.7-2.3,1-1,.4-1.8,1-2.9,1.3-.5-1.1-.8-2.2-1.1-3.4-.6-2.2-1.4-4.4-1.6-6.7-.1-1.3.2-1.9,1-2.9Z" fill="#8e403c"/>
  <path d="M21.6,19.9c.1,0,.2,0,.3,0,.7,0,1.4.3,1.8.9.9,1,.9,2.3.8,3.5,0,1-.3,3.4-.6,4.3,0,.3-.2.5-.5.7-.4.3-.8.3-1.3.3-.3,0-.5-.2-.8-.3-1.2-.7-1.9-2.1-2.1-3.4-.3-1.5-.3-3.3.6-4.6.4-.7,1-1.1,1.8-1.3Z" fill="#e5aa82"/>
  <path d="M21.1,21.7c.3,0,.6,0,.9.2.5.3,1,.8,1.2,1.4.2.8-.1,1.1-.4,1.8-.2.5,0,.7.2,1.1,0,.2,0,.4-.1.6-.1,0-.3,0-.4,0-.2,0-.3-.2-.4-.4-.3-.7,0-1.5.3-2.2.6-1.6-.9-1.3-1.3-2,0-.2,0-.3.1-.4Z" fill="#654b30"/>
  <path d="M9.2,44.9h.1c0,.2-.7,1.9-.8,2.3-.7,2-1.2,4.1-1.4,6.2-.1,1.2-.2,2.4-.3,3.6l-.3.3c-.5.6-.7,1.2-.8,2-.2,0-.4-.2-.6-.3-.4-.5-.6-.9-.6-1.6,0-1.7,0-3.4,0-5,0-1.6-.1-4.1.2-5.6,0-.4.3-.9.6-1.2.8-.9,2.8-.7,3.9-.7Z" fill="#7ab2c3"/>
  <path d="M35,34.5c.5.3.9.7,1.3.9,1.2.7,2.9,1.1,4.3,1.3,2.3.3,4.8,0,6.7-1.5,0,0,0,.2,0,.3,0,0,0,.1,0,.2,0,0,0,.1,0,.2,0,0,0,.1,0,.2,0,0,0,.1,0,.2,0,0,0,.1,0,.2,0,0,0,.1,0,.2,0,0,0,.1,0,.2s0,.1,0,.2c0,0,0,.1,0,.2,0,0,0,.1,0,.2,0,0,0,.1,0,.2,0,0,0,.1,0,.2,0,0,0,.1,0,.2,0,0,0,.1,0,.2,0,0,0,.1,0,.2s0,.1-.1.2c-.5.8-1.2,1.4-2.1,1.6-.3,0-.7,0-.9-.2-.7-.4.4-1.2.3-1.7-.3-.2-1.2.1-1.6.2-.4,0-.8,0-1.1,0-.5,0-1-.1-1.5-.3-.4-.1-1-.5-1.4-.5-.2,0-.2,0-.3.2,0,.5.4.7.5,1.1,0,.2,0,.3,0,.4-.2.3-.8.6-1.1.7-.3,0-.8-.2-1-.3-.8-.5-1.6-1.4-1.8-2.4-.2-1.1-.2-1.9.2-3Z" fill="#e5aa82"/>
  <path d="M13.3,55.9c.7,0,1.4,0,2.1,0,1.2.1,2.2.6,3.1,1.3.2.2.5.3.7.6.3.4.1,1,0,1.4-.6-.3-1.4-.5-2.1-.7-2.3-.7-5.3-.2-7.4,1-.5.3-1,.5-1.4.9-1,.8-1.2,1.7-1.4,2.9-.2-.7-.6-1.4-.7-2.2,0-.9,0-2.3.5-3,.7-.8,3.5-1.7,4.5-1.9.6-.1,1.2-.2,1.8-.2Z" fill="#8e403c"/>
  <path d="M47.5,62.6s0,0,.1,0c-.1.3-1,.9-1.3,1.3-.5.6-.8,1.3-1.2,1.9-1.3.2-2.6.2-3.9.3-.3-.7-.6-1.3-1.2-1.8-.8-.4-1.3-.4-2.2-1,1.1,0,2.3-.1,3.4-.2l6.3-.6Z" fill="#7ab2c3"/>
  <path d="M29.9,56.8s0,0,0,0c-.1-.1-.2-.2-.3-.4,0-.2,0-.5.3-.7,0,0,.2-.1.3-.2.4-.2.5-.5,1-.5.2,0,.3.2.4.4.4.5,3.2,4.7,3.3,5,0,0,0,.1,0,.2.3.6.7,1.2,1.1,1.8-.7-.1-1-.2-1.4-.8-.1-.1-.2-.4-.3-.5-.4-.2-.6-.9-.9-1.2h0s0,.1,0,.1c.3.4.9,1.1,1,1.6,0,0,0,0,0,.1-.3,0-.6,0-.8,0-.4-.4-.7-1-1-1.4l-1.6-2.4c-.2-.3-.4-.8-.7-1Z" fill="#eeb552"/>
  <path d="M30.2,55.5c0,.2.1.3.2.5.7,1.3,1.7,2.6,2.5,3.9.3.5.7,1.2,1.1,1.6,0,0,0,0,0,.1-.3,0-.6,0-.8,0-.4-.4-.7-1-1-1.4l-1.6-2.4c-.2-.3-.4-.8-.7-1-.1-.2-.2-.4-.2-.7,0-.2.3-.4.4-.5h0Z" fill="#eeb552"/>
  <path d="M29.9,56.8s0,0,0,0c-.1-.1-.2-.2-.3-.4,0-.2,0-.5.3-.7,0,0,.2-.1.3-.2.4-.2.5-.5,1-.5.2,0,.3.2.4.4.4.5,3.2,4.7,3.3,5,0,0,0,.1,0,.2h0c-.9-1.3-1.7-2.6-2.5-3.9-.3-.4-.6-1-1-1.4,0,0-.1,0-.2-.1-.2,0-.4.1-.6.2,1.3,1.8,2.5,3.7,3.7,5.7-.4-.2-.6-.9-.9-1.2h0s0,.1,0,.1c.3.4.9,1.1,1,1.6-.4-.4-.8-1.1-1.1-1.6-.9-1.3-1.8-2.6-2.5-3.9,0-.2-.2-.3-.2-.5h0c-.1.2-.4.4-.4.5,0,.3,0,.5.2.7Z" fill="#7f5330"/>
  <path d="M58.9,54.6c1.2,0,2.2.1,3.4.5.4.9.5,1.7.5,2.7-.4-.6-.9-1-1.5-1.2-1.7-.7-3.9-.3-5.6.3-1.3.6-2.3,1.4-3.4,2.3.2-.6.5-1.1.9-1.6,1.4-1.8,3.6-2.7,5.8-2.9Z" fill="#e5aa82"/>
  <path d="M31,43.3c.6.3,1.2.8,1.8,1.1,2.1,1.2,4.3,1.8,6.7,2l-.9,1.2c-.3.3-.5.7-.8,1-1.8-.9-5.6-3.5-6.7-5.3Z" fill="#e5aa82"/>
  <path d="M43.4,45.8h0c0,.1,0,.2,0,.3-.4,1-3.8,2.3-4.9,2.8h0c.1-.5,1.6-2,2.1-2.5.9-.3,1.9-.4,2.8-.6Z" fill="#8e403c"/>
  <path d="M28.7,51.9c.1,0,.2,0,.4,0,.5.3.8,1,1,1.5-.6.4-1.2.9-1.5,1.5h0s0,0,0,0c-.3-.4-.7-.9-1-1.4-.1-.3-.3-.6-.2-.9.2-.5.9-.6,1.3-.8Z" fill="#b6593b"/>
  <path d="M46.5,44.2h0c.3.6.4,1.9.4,2.6-.4-.2-.7-.5-1.2-.7-.4-.2-.9-.4-1.3-.7.7-.4,1.3-.9,2-1.3Z" fill="#8e403c"/>
  <path d="M40.1,68.9l.4.6c0,0-.2.2-.3.3-.3.3-.6.3-1,.3-.2,0-.3-.1-.4-.3.1-.3.5-.4.8-.5.2-.1.3-.3.4-.4Z" fill="#e5aa82"/>
  <path d="M30.2,54.1c.2,0,.2,0,.3,0,0,.3-.9,1-1.2,1.3,0,0,0,0-.1,0,0-.1-.1-.2,0-.3,0-.5.7-.9,1.1-1.1Z" fill="#e5aa82"/>
  <path d="M39,64.9c.3,0,.5,0,.7.2.4.3.6.9.7,1.5-.4-.2-1-1.3-1.4-1.7Z" fill="#e5aa82"/>
</svg>