<?xml version="1.0" encoding="UTF-8"?>
<svg id="Layer_1" xmlns="http://www.w3.org/2000/svg" version="1.1" viewBox="0 0 80 115">
  <!-- Generator: Adobe Illustrator 29.1.0, SVG Export Plug-In . SVG Version: 2.1.0 Build 142)  -->
  <path d="M38.2,1.5c.6,0,1.4,0,1.9.5.1,0,.2.2.2.3-.1.5-.6.9-.9,1.2.5,0,.9,0,1.4,0,2.7,0,6,1.4,7.9,3.3.7.7,1,1.2,1,2.2.8.7,1.5,1.6,2,2.5.9,1.7,1.7,4.1,1.1,6-.2.1-.5.3-.7.3,0,0,0,0-.1,0-.1.4,0,.9,0,1.3-.3,2-.8,4-2.1,5.6.3.2.5.3.8.5.4.2.7.4.9.8,0,.1,0,.2,0,.3-.2.2-.4.3-.7.4,0,1.8-.1,3.1-1.3,4.4,0,.2,0,.3,0,.5,0,.7,0,1.5,0,2.2-.2,3-1.2,5.6-3.2,7.8,3.8,2,6.4,6.7,8.7,10.1.6.9,1.9,2.6,2.2,3.5,0,.2,0,.5-.2.7-.1.3-.4.4-.7.5,1.4,1.9,1.9,4,1.5,6.3,2.2,1,18.2,8.8,18.7,9.6.5.8.2,3.7,0,4.6-.3,1.4-1.5.9-2.1,1.4-.4.3-.2,2.9-.3,3.6-.1.8-.5,1.3-1.1,1.7,0,2.3.3,4.5.5,6.8.3,3.5.5,6.9.8,10.4.1,1.9.4,3.8.4,5.6,0,.3,0,.9-.2,1.2-.3.4-.8.6-1.2.6-.5,0-1.1,0-1.5-.4-.3-.2-.4-.6-.4-1-.1-.7-.1-1.4-.2-2.1l-.4-4.9-.6-7.4c-.2-2.8-.5-5.5-.7-8.3-1.6,0-3.3.3-4.9.5-2.3.2-4.6.4-6.8.7-.2,1.2-.3,2.4-.5,3.6l-.9,6.7c-.1.8-.3,1.1-1,1.6.3.5.8,1.1,1.2,1.5.5.4,1.1.6,1.6.9,1.4.7,2.8,1.8,3.5,3.3.4.8.8,2,.5,2.8-.3.8-1.2,1.3-2,1.6-2.9,1.3-6.3,1-9.2-.3-.8-.4-1.6-.9-2.4-1.3-.4-.2-.9,0-1.3-.3-1.2-.5-3-1.5-3.5-2.8-.6-1.6.3-4.7,1-6.2-.1-.3-.3-.6-.3-.9,0-.5,0-1,.1-1.4l.3-2.5c.2-1.7.3-3.6.6-5.3-1.5.2-3,.2-4.4.5-.2,1-.3,2.1-.4,3.1-.2,1.7-.4,3.5-.7,5.2-.1.8-.1,1.7-.3,2.5,0,.3-.2.6-.4.8,0,0-.1.2-.2.3,0,.3.2.6.4.9.2.4.4.8.7,1.2.7.9,2.3,1.6,3.2,2.5,1.2,1.2,1.8,2.7,1.8,4.4-.1.6-.4,1.1-.8,1.5-1.4,1.3-4,1.7-5.9,1.6-3-.1-6-1.2-8.1-3.5-.2,0-.4,0-.5,0-.9-.3-2.2-1.5-2.6-2.3-.7-1.4.5-5,1-6.5-.2-.3-.3-.6-.4-.9-.1-.9,0-1.8,0-2.7.1-2.4.2-4.7.4-7.1-.8.1-1.7.2-2.5.2-.4,2.9-.6,5.8-.8,8.8l-.9,9.6c-.1,1.5-.2,3.1-.4,4.6,0,.6-.2,1.2-.6,1.6-.4.3-1.1.4-1.6.3-.4,0-.9-.3-1.1-.7-.2-.3-.2-.7-.2-1.1,0-1.9.3-3.9.4-5.8l.7-10.3.3-4.7c0-1.1,0-2.2.3-3.2-1.1-.9-2.3-1.6-3.4-2.4-2.7-1.9-5.4-3.7-8.1-5.7-.4,1.3-.5,3.6-.6,4.9l-1.4,12.5c-.1,1-.2,2-.3,2.9,0,.7-.1,1.4-.3,2-.1.5-.5.7-.9,1-.3,0-.5,0-.8,0-.4,0-.9-.2-1.2-.5-.2-.3-.2-.7-.2-1.1,0-.9.2-1.8.3-2.6.2-1.7.3-3.3.5-5l1.1-10.8c.2-1.9.4-3.8.6-5.6-.1-.1-.2-.2-.3-.3-.2-.3-.3-.6-.4-.9-.2-.9,0-2.9,0-3.9-.6-.4-1.2-.7-1.7-1.2-.5-.5-.6-.9-.6-1.5,0-.8-.2-3.1.4-3.6.5-.5,1.7-.4,2.4-.4,0-1.5,0-3,0-4.4-1-.5-2.2-.9-2.6-2.1-.1-.3-.2-.6-.2-.9-.2-1.6-.4-10.3.2-11.4.3-.6,1-1.1,1.6-1.4,1.4-.5,4.6-.6,6.2-.7.6,0,1.2,0,1.7-.2,0,0,0,0,0,0,.3-.3.6-.7,1-1,.3-.3.7-.6,1-.9.4-.3.7-.6,1.1-.8.4-.3.8-.5,1.2-.7.7-.4,3.3-1.6,3.6-1.9.3-.3.8-1.7,1.1-2.3-1.1-.4-1.9-1.1-2.5-2.1-.1-.3-.3-.7-.5-.9-.2-.3-.6-.5-.8-.7-.8-.6-1.3-1.3-1.8-2.2-.7-1.4-1.1-3.3-.6-4.8.3-.9.9-1.4,1.7-1.8-.2-.4-.3-.8-.4-1.2,0,0,0,0-.2-.1-.5-.3-.7-1-.8-1.6-.7-3.6.8-9.4,2.8-12.4,2.1-3.2,4.8-4.8,8.5-5.5,0-.1-.2-.3-.2-.5,0-.2,0-.4.1-.5.3-.4.9-.5,1.4-.6,1.9-.3,3.6.2,5.1,1.3,1-1.2,2.4-1.7,3.9-1.8ZM40.5,66.6c.4,1.2,1.6,4.3,1.3,5.4,0,0,0,.1-.2.1-.6,0-2.3-1.1-2.7-1.5-.1-.1-.3-.2-.4-.4-1.4.4-4.8,1.3-6.1,1.1-.7-.1-1.4-.5-2.1-.7-.6-.2-1.3,0-1.9-.1-.9-.2-1.7-.7-2.5-1-.8-.3-1.9-.2-2.7-.2,2.4,1.4,4.6,2.9,6.9,4.4,1,.7,2,1.4,3.1,2,1.4,0,2.9-.3,4.3-.5,5.2-.4,10.4-1.1,15.6-1.7l5-.5c.9,0,1.8-.1,2.7-.3-1.8-.9-3.5-1.9-5.2-2.9-.6-.3-1.2-.7-1.7-1-.7.6-1.5,1.4-2.5,1.4-.4,0-.7-.2-1.1-.3-1.1.6-1.5.6-2.7.6-.4,0-.9.1-1.3,0-.5-.1-.8-.5-1-.9-.5,0-1,.1-1.5-.2-.3-.2-.4-.5-.4-.8-.1-.8.3-1.6.7-2.3,0,0,.2-.2,0-.3h0c-1.1.2-2.2.3-3.2.5ZM46.1,60.9c-.2.8-.2,1.5-.3,2.3.4-.4.7-.7,1.1-1.1.3-.3.7-.7,1-1-.6-.1-1.1-.1-1.7-.2Z"/>
  <path d="M37.7,2.4c.3,0,.6,0,.8,0,.2,0,.4,0,.5.2,0,.7-1.5,1.2-1.9,1.8,0,.1,0,.1,0,.3.5.3,1.8-.2,2.4-.3.4,0,.8,0,1.1,0,3,0,6,1.6,8,3.7-.3,0-.8,0-1.1.2,0,0,0,0,0,.2.1.4,1.2.8,1.5,1.1,2.1,1.9,3.2,4.3,3.3,7.1-.3-.4-.8-1.1-1.3-1.3-.1,0,0,0,0,.2,0,.3.2.6.2.8.1.4.1.9.1,1.4,0,.3,0,.5,0,.8,0,.3,0,.5,0,.8,0,.3,0,.5-.1.8,0,.3,0,.5-.2.8,0,.2-.1.5-.2.7,0,.2-.1.5-.2.7,0,.2-.2.5-.3.7,0,.2-.2.5-.3.7-.1.2-.2.5-.4.6-.5-.4.2-4.2-.3-5.2-.2-.4-1.2-1-1.6-1.3-.6-.4-1.2-.9-1.7-1.4-.4-.3-.7-.7-1.1-1-.1-.1-.2-.2-.4-.2h0c0,.5,0,1,.1,1.4,0,.4,0,.9,0,1.3-1.4-.8-2.5-2.3-3.4-3.6,0-.3,0-.5.1-.8,0-.5,0-1.2-.3-1.6,0,0,0,0-.2,0-.3.3-.5,2.1-.6,2.6-.4,1.5-1.3,3.2-2.7,4,0-1,.4-2,.3-3,0-.2,0-.3-.2-.5,0,0,0,0-.1,0-.2.1-.5.6-.7.9-.4.5-.9,1-1.4,1.5-.7.7-1.6,1.2-2.5,1.6,0,0,0,0,0-.1.2-1.3.7-1.8.7-3.3-.5.4-.8.9-1.2,1.4-1.2,1.4-2.5,2.4-4.3,2.8.2-.6.5-1.1.7-1.7,0-.3.1-.5,0-.7h-.1c-.3.2-3,2.6-3.1,2.9,0,0,0,0,0,0-.3.7-.4,1.4-.6,2.1-.3,1.1-.6,2.1-.8,3.2-.3-.1-.7-.2-1-.2-.3,0-.7-.1-1-.1-.2-.2-.4-.5-.7-.6-.7-.5-1.5-.8-2.4-.6,0,0,0,0,0-.1,0-.4-.2-.9-.3-1.3,0-.5,0-1.1,0-1.6,0-.2,0-.7-.1-.9h-.1c-.4.4-.5.9-.7,1.4,0-2.6,0-4.7.6-7.2,1.4-5.3,5-9.5,10.7-10,.5,0,2.4.1,2.6,0,0,0,0-.1,0-.2-.3-.5-2.2-.8-2.7-.9,1.5-.5,3.4-.4,4.7.6.3.2.9.8,1.3.8.2-.2.4-.5.5-.8.5-.8,1.7-1.1,2.6-1.3Z" fill="#c6b39d"/>
  <path d="M34.4,7.3c.3,0,.8,0,1.1.2h0c-.1.3-1.8.7-2.2.8-1,.4-1.8,1-2.7,1.7-.1.1-.3.3-.5.3,0,0,0,0-.2,0,0-.3.2-.6.3-.8,0,0,.1-.2.2-.2,0,0,.1-.1.2-.2,0,0,.1-.1.2-.2,0,0,.1-.1.2-.2,0,0,.2-.1.2-.2,0,0,.2-.1.2-.2,0,0,.2-.1.2-.2,0,0,.2-.1.3-.1,0,0,.2,0,.3-.1,0,0,.2,0,.3-.1,0,0,.2,0,.3-.1,0,0,.2,0,.3,0,0,0,.2,0,.3,0,0,0,.2,0,.3,0s.2,0,.3,0c0,0,.2,0,.3,0Z" fill="#684b1e"/>
  <path d="M39.9,7.2c1.5,0,3.1.4,4.3,1.4.3.2.6.6.6,1,0,0,0,0,0,.2-.2,0-.2,0-.4-.2h0c-1.3-.9-2.5-1.4-4.1-1.7-.4,0-.9,0-1.2-.2h0c.2-.4.6-.4.9-.5Z" fill="#684b1e"/>
  <path d="M22.9,37.3c.3.2.6,1,.8,1.3.2.4.5.8.8,1.2.3.4.6.8.9,1.1.8.8,1.6,1.2,2.4,1.9.5.4.9,1,1.3,1.4.8.7,1.7,1.4,2.6,2.1.8.7,1.5,1.4,2.1,2.2.4.5.9,1,1.1,1.6-.2.5-.3.9-.3,1.4-.1,1-.2,2.1-.2,3.1,0,.9-.3,1.9-.1,2.8h0c-.8-.7-1.8-3.6-2.6-4.1-.4-.2-1.2-.2-1.6,0-.4.1-.7.6-.8,1-.1.3-.1.5,0,.8.2.9.8,1.7,1.3,2.4.7,1.2,1.5,2.4,2.1,3.7-1.5.1-2.8.9-4.2,1.2-.5.1-1.1,0-1.6,0-1-.2-2-.7-2.9-1-1.1-.4-2.3-.8-3.4-1.3.7-2.5,1.3-7.2.6-9.7-.6-2-2.2-4.5-4-5.4-.2-.1-.4-.2-.6-.1,0,.1,0,.2-.1.3,0,.2,1.7,1.5,2,1.9,2.2,2.5,2.3,5,2.1,8.2,0,1.2-.2,2.4-.4,3.5-1.1-1-2.3-1.5-3.6-1.8-2.2-.5-5.6-.4-7.6.9.4-3.1,2.3-9.2,4-11.8,1.6-2.6,5.4-5.4,8.3-6,.1.7.3,1.3.5,2,.4,1.2.9,2.4,1.4,3.5.5,1.2.9,2.7,1.6,3.8.2.3.5.7.9.8.7,0,4.2-2.3,4.7-2.9.6.5,2,2.6,2.5,2.7.1,0,.2,0,.3,0,0,0,0-.1,0-.2,0-.2-.1-.5-.2-.6-.2-.3-.5-.5-.7-.8-.6-.6-1.1-1.3-1.7-1.9,0,0-.1,0-.2,0-.9.3-2.3,1.4-3.1,1.9-.5.3-1.1.6-1.6.9-.6-.6-2.6-5.9-3-7-.2-.6-.4-1.2-.5-1.8,0-.3-.1-.7-.1-1,0-.8.6-1.8,1-2.4Z" fill="#5d5f66"/>
  <path d="M6.7,72.6c.9.6,1.8,1.2,2.8,1.8l4.2,2.8,5.8,3.9c1.2.8,2.5,1.6,3.7,2.4,0,.7-.3,2.8,0,3.2.2,0,.2,0,.3,0,.5-.5.4-2.4.4-3.1,1.4,0,2.9-.2,4.3-.4l7.3-.7,24.9-2.5,8.8-.9c1.3-.1,2.7-.3,4-.4,0,.4,0,.8,0,1.2,0,.9,0,1.9-.2,2.9,0,.1-.2.2-.3.3-.4.3-.9.5-1.4.6-.8.1-1.7.2-2.5.2-1.4.1-2.7.2-4.1.4l-20.7,1.9c-4.7.5-9.4.9-14.1,1.3-2.1.2-4.3.6-6.4.4-.4,0-.8-.3-1.2-.5-1.3-.8-2.5-1.8-3.8-2.7l-6.2-4.4c-1-.7-2.1-1.4-3.1-2.2-.8-.6-1.9-1.2-2.6-1.9,0-1.2,0-2.4,0-3.6Z" fill="#69888d"/>
  <path d="M18.9,24.8c.3,0,.6,0,.8,0,1.1.3,1.7,1.2,2,2.2.1.4.2.8.4,1.2.2.3.4.4.7.4.3,0,.7.2.9,0,.5-.3.6-1.7.6-2.2,1.4.3,2.8.6,4.2.8,0,.2,0,.3,0,.5,0,1.4.6,2.8,1.6,3.8,1,1,2.5,1.4,3.9,1.4,1.2,0,2.5-.5,3.3-1.4,1.2-1.3,1.4-2.8,1.4-4.4.8,0,1.6,0,2.3-.1,0,.6,0,1.2.2,1.7.6,1.5,2.3,2.3,2.2,4.1,0,.5-.3.9-.7,1.2-.6.5-1.3.6-2,.6-.8,0-1.6,0-2.3-.4-.9-.4-1.1-.9-1.8-1.4,0,0-.2-.1-.3-.1,0,0,0,0-.1,0,0,.2,0,.4,0,.6-1.6.3-2.9.6-4.3,1.4-.6.4-1.4.9-1.6,1.7,0,.3,0,.6.1.8.1.2.3.3.6.3.6.1,1.2-.3,1.6-.6.2.4.4.7.8.8.5.2,1,0,1.5-.2.5.7,1.1.9,1.9.6.2,0,.4-.2.6-.2.3,0,.5.5.8.6.5.2,1.1-.1,1.5-.4.4.1.8.3,1.2.3.5,0,.9-.3,1.2-.6l.5.3c.3.1.7.2,1.1.1.5-.1.7-.4,1-.8.2.1.4.3.7.4.3,0,.6.1.9,0,.2-.1.3-.3.4-.5.2-.5,0-1.1-.3-1.6-.5-1-1.5-1.6-2.6-1.9.2-.5.3-1,.3-1.5h0c1.6.5,2.9.2,4.3-.5,0,1,0,2-.2,3.1-.5,3.4-1.8,5.7-4.5,7.7l-.6-.3c-.4.5-.6,1-1.1,1.4-1.2,1.1-2.9,1.7-4.5,1.6-1,0-2.5-.3-3.4-.8-.5-.3-1-.7-1.5-.9-.7-.2-1.3-.4-2-.6-4.2-1.7-6.7-4-7.6-8.5-.1-.6,0-1.5-.5-1.9,0,0-.1,0-.2,0-.3,0-.4.3-.5.6-.9,0-1.7-.2-2.5-.7-1.3-.9-2.2-2.4-2.5-3.9-.2-.9-.2-2.3.4-3.1.4-.5.9-.7,1.5-.8Z" fill="#f7c18f"/>
  <path d="M33.7,38.7c.6,0,1.2.5,1.8.7.6.2,1.3.4,2,.5,1.2.1,2.6.1,3.7-.3.4-.1.8-.5,1.2-.5.1,0,.1,0,.2.2,0,.2,0,.3-.2.5,0,0-.1.1-.2.2-1.6,1-4.2.9-6,.5-.7-.2-2.1-.5-2.6-1.2-.1-.2,0-.3,0-.5Z" fill="#414042"/>
  <path d="M18.7,26.8c.3,0,.7,0,1,.1.7.3,1.3.9,1.6,1.5.2.4.4,1,.2,1.4,0,.2-.2.2-.4.3-.2,0-.3,0-.3-.2-.3-.5-.2-1.1-.5-1.5-.5-.8-1.6-.6-1.9-.9,0,0,0-.2,0-.3,0-.2.2-.3.4-.4Z" fill="#414042"/>
  <path d="M57.4,63.6c.4.1.9.4,1.3.6,1,.5,2.1,1,3.1,1.5,3,1.5,5.9,3,8.9,4.5,1.7.9,3.5,1.7,5.1,2.8-1.4.3-2.8.3-4.2.5l-8.5.8-31.7,3.2-3.8.4c-1.3.1-2.8.5-4,.2-.5,0-.9-.3-1.3-.5-1.1-.6-2.2-1.4-3.3-2.1l-6.8-4.5-4.7-3c-.9-.6-1.8-1.1-2.6-1.8,1.8-.3,3.6-.3,5.4-.5,2,2.5,6.3,2.8,9.3,3.3.6.1,1.4.1,2,.4,1.1.5,2.2,1.4,3.2,2.1,1.5,1,3,2,4.5,2.9,1.1.7,2.2,1.5,3.3,2.1l20.8-2.2c1.5-.2,2.9-.3,4.4-.4.9,0,1.8-.1,2.7-.3.4,0,1-.2,1.3-.5,0-.1,0-.2,0-.3-.6-.5-1.4-.9-2.1-1.2l-3.6-2c-.7-.4-1.4-.7-2-1.2h0c1.3-1.5,2.5-2.9,3.2-4.8Z" fill="#d5bc2a"/>
  <path d="M4.4,66.8c.5.3,1,.7,1.5,1.1,1.1.7,2.2,1.4,3.3,2.1l5.7,3.7,4.6,3c.7.5,1.4,1,2.2,1.4.4.2.8.4,1.3.6.6.2,1.2.3,1.8.3,1.1,0,2.3-.2,3.4-.3,2.1-.2,4.3-.4,6.4-.6,6.3-.6,12.6-1.2,18.8-1.9l16.2-1.6c2.1-.2,4.2-.3,6.2-.7,0,.8,0,2.8-.4,3.4-.3.2-.7.3-1,.3-2.6.3-5.2.6-7.9.8l-26.9,2.8-11.2,1.1c-1,.1-2.1.2-3.1.3-.5,0-1.1.2-1.6.2-.3,0-.9-.4-1.2-.6-1.5-.9-2.9-2-4.4-2.9l-8.3-5.6c-.9-.6-1.8-1.2-2.7-1.8-.7-.5-1.9-1.1-2.4-1.7-.5-.5-.3-2.7-.3-3.4Z" fill="#d5bc2a"/>
  <path d="M23.6,79.4c.2,0,.3,0,.4.2.2.4.2,1.3.1,1.7,0,.4,0,.6-.3.8,0,0-.1,0-.2,0-.1-.1-.2-.3-.2-.4-.1-.6-.1-1.8.2-2.3Z" fill="#414042"/>
  <path d="M45.7,42.4c.3.1.7.5,1,.7,3,2.2,5,5.6,7,8.7.8,1.2,1.6,2.3,2.3,3.5-.7,0-1.3,0-2,0-.6,0-1.2.2-1.8.1,0-.1,0,0,0-.2,0,0,0,0,0,0h0c0,.2-.1.3-.3.4-.3.2-1,.4-1.3.6-.6.3-1.2.6-1.7,1-.4.3-.9.6-1.3,1-.3.3-.5.6-.7.8,0,0-.1,0-.2,0-.2,0-.4.6-.5.8,0,0,0,0,0,0,.5-1.6,1.7-8.8,1.1-10.1,0-.1-.1-.2-.2-.2,0,0-.1,0-.2,0-.2.1-.2.2-.2.4,0,2.4-.3,4.8-.7,7.2-.2,1.1-.4,2.3-.6,3.4,0,.6-.1,1.2-.2,1.9,0,.2,0,.3,0,.5-.6.2-1.5.2-2.2.2l-4.3.4c-.7-.4-1.5-.9-1.9-1.6-.2-.4-.3-.8-.5-1.1-.3-.7-.8-1.3-1.1-1.9,0-.6.2-1.3.2-1.9,0-1.1.2-5.5.6-6.1.4-.6,1.6-1.6,2.2-2.4.3-.4.6-.8.8-1.3.1-.3.2-.6.4-.9h.1c.4.2.6.5.8.9-.6,2.4-2.8,1.9-3.6,3,0,.1,0,0,0,.2,0,0,.1,0,.2,0,1,0,2.5-.7,3.3-1.3.6-.5.9-1.2,1-2,.9.4,1.7,1.1,2.6,1.6.4.2,1,.5,1.4.4.2,0,.3-.2.4-.4.3-.9-.7-4.4-1.1-5.4.5-.3,1-.7,1.5-1Z" fill="#5d5f66"/>
  <path d="M37.1,52.8s0,0,.1,0c.3,0,.5.3.6.6,0,.2,0,.5-.1.7-.1.3-.3.4-.6.5,0,0,0,0,0,0-.2,0-.5-.3-.6-.6,0-.2-.1-.4,0-.6.1-.3.4-.4.7-.5Z" fill="#414042"/>
  <path d="M36.6,59s0,0,0,0c.4.2.6.5.7.9-.1.3-.2.6-.4.8-.3,0-.5,0-.7-.3-.2-.2-.2-.4-.2-.6,0-.4.2-.6.5-.8Z" fill="#414042"/>
  <path d="M13.1,57.8c1.8-.2,4,.2,5.6,1.2-.1.2-.2.4-.2.5-.7-.3-1.4-.5-2.1-.3-.2,0-.4.1-.5.4h0c.3.4,1.9.6,2.5.8,2.3.8,7.5,3.2,9.7,3.1.6,0,1.1-.2,1.7-.4,1.9-.8,3-1.2,5.1-.5,2.1.6,3.6,2,4.6,3.9.2.4.6,1.2.5,1.6,0,0-.1.1-.2.2-.3.1-.5,0-.8,0-.7-.4-1.5-1.6-2.1-2.3-.2-.3-.5-.5-.8-.7-.3-.3-.6-.5-1-.6-.2,0-.4-.1-.6,0h0c.2.7.8,1,1.2,1.4.6.5,2.4,2.3,2.4,3.1,0,.2,0,.3-.2.4-.2.2-.4.3-.7.3-.3,0-.8-.8-1-1-.3-.4-.7-.7-1-1-.5-.4-1.8-1.7-2.4-1.6,0,0-.1,0-.2.1,0,.2,0,.2,0,.4.3.3.7.6,1,.9.7.6,1.9,1.6,2.4,2.3,0,0,0,0,0,0-.2.2-.4.4-.7.5-1.1.2-2.8-2.3-4.3-2.3-.1,0-.1,0-.1.2.2.7,2,1.5,2.6,2,.1.1.2.2.2.3,0,0,0,0-.1,0-.3.1-1,0-1.3,0-.6,0-1.1-.5-1.8-.6-.9-.2-1.9-.1-2.9-.4-.6-.2-1.2-.7-1.8-.8-.7-.2-1.7,0-2.5-.1-3-.3-6.5-.7-9.4-1.6-1.6-.5-3-1.2-3.8-2.8-.8-1.7-.8-4.1-.2-5.9.9-.4,1.9-.5,2.8-.6Z" fill="#f7c18f"/>
  <path d="M40.4,15.3c.7,1,2.7,3.3,3.9,3.4.2,0,.4,0,.6-.2.4-.3.3-1,.3-1.4,1,.9,2.1,1.5,3.1,2.4,0,1.4,0,2.7-.1,4v.2c-.4,0-.8-.2-1.1-.2-1.3-.2-2.6-.2-3.8.2-.1,0-.3,0-.4.2-1,.5-1.4,1.3-1.7,2.3-.8,0-1.7,0-2.5.1,0-.3-.2-.5-.3-.8-.4-1-1.1-1.5-2.1-1.9-1.9-.4-3.6-.4-5.5.4-.1,0-.2,0-.3.2-1,.6-1.4,1.3-1.8,2.4-1.3-.3-2.7-.5-4.1-.8.4-1.7.8-3.5,1.3-5.2.1-.1.3-.3.5-.4.1,0,.2,0,.4,0,.2.2.3.4.6.5,1.2.2,3.3-1.3,4.3-1.9,0,.1,0,.3,0,.4,0,.2,0,.4.2.6.1.1.3.2.4.2,1.3,0,3.1-1.6,3.9-2.4,0,.4,0,.9.1,1.3,0,.2.3.4.5.4.4.1.8,0,1.1-.1,1.3-.7,2.2-2.4,2.6-3.7Z" fill="#f7c18f"/>
  <path d="M30.4,23.7s0,0,0,0c-.1,0,0,0-.1-.2.1-.5.7-1,1.1-1.3,1-.7,2.6-.7,3.8-.5.6.1,1.2.4,1.5.9,0,.1,0,.2,0,.4,0,.1-.2.2-.3.2-.1.1-.1.1-.1.3-1.9-.4-3.6-.4-5.5.4l-.4-.2Z" fill="#414042"/>
  <path d="M30.4,23.7c.4-.1.8-.4,1.2-.7.5-.3,1.3-.5,1.9-.6,1,0,2.1.1,2.9.8-.1.1-.1.1-.1.3-1.9-.4-3.6-.4-5.5.4l-.4-.2Z" fill="#c6b39d"/>
  <path d="M43.1,23s0,0,0,0c-.1,0-.3.2-.4.2-.1,0-.2,0-.2-.2,0-.2,0-.3.2-.5.5-.6,1.6-.9,2.4-.9.9,0,1.9.1,2.6.8.1,0,.2.3.3.4,0,0,0,.2,0,.3,0,.2-.1.3,0,.4.1,0,.3,0,.5,0v.2c-.4,0-.8-.2-1.1-.2-1.3-.2-2.6-.2-3.8.2,0-.2,0-.5-.1-.7Z" fill="#414042"/>
  <path d="M43.1,23c.9-.5,1.9-.8,3-.5.5.1,1.3.7,1.4.8,0,0,.1,0,.1,0,0,0,0,0,.1,0,0,.2-.1.3,0,.4.1,0,.3,0,.5,0v.2c-.4,0-.8-.2-1.1-.2-1.3-.2-2.6-.2-3.8.2,0-.2,0-.5-.1-.7Z" fill="#c6b39d"/>
  <path d="M35.2,73.8c.2,0,.4,0,.6.2.1.1.1.1.1.3,0,.2-.2.2-.3.3-.2,0-.4,0-.6,0-.1-.1-.1-.1-.1-.3,0-.2.2-.3.3-.5Z" fill="#684b1e"/>
  <path d="M34.3,72c0,0,.2,0,.3,0,.1,0,.2,0,.2.2,0,.2,0,.3-.2.4-.1,0-.3,0-.4,0-.1,0-.1,0-.2-.2,0-.2.1-.3.2-.4Z" fill="#684b1e"/>
  <path d="M41.9,72.8c.2,0,.4,0,.5,0,.1,0,.1,0,.2.2,0,.2-.1.2-.2.4-.1,0-.3,0-.4,0-.2,0-.2,0-.3-.2,0-.2,0-.2.1-.4Z" fill="#684b1e"/>
  <path d="M38.8,73c.2,0,.4,0,.5,0,0,0,0,0,0,.2,0,.2-.1.3-.2.4,0,0-.1,0-.2,0-.1,0-.2-.1-.3-.2,0-.2,0-.3.1-.4Z" fill="#684b1e"/>
  <path d="M31.5,72.5c0,0,.1,0,.2,0,.2,0,.3,0,.4.1,0,.2,0,.3-.2.5,0,0-.2,0-.3,0-.2,0-.2-.1-.3-.2,0-.2,0-.2.1-.4Z" fill="#684b1e"/>
  <path d="M50,71.8s0,0,0,0c0,0,0,0,0,0,0,0,0,0,0,0,0,0,0,0,0,0,0,0,0,0,0,0,0,0,0,0,0,0,0,0,0,0,0,0,0,0,0,0,0,0,0,0,0,0,0,0,0,0,0,0,0,0,0,0,0,0,0,0,0,0,0,0,0,0,0,0,0,0,0,0,0,0,0,0,0,0,0,0,0,0,0,0,0,0,0,0,0,0,0,0,0,0,0,0,0,0,0,0,0,0,0,0,0,0,0,0,0,0,0,0,0,0,0,0,0,0,0,0,0,0,0,0,0,0,0,0,0,0,0,0s0,0,0,0c0,0,0,0,0,0,0,0,0,0,0,0,0,0,0,0,0,0,0,0,0,0,0,0,0,0,0,0,0,0,0,0,0,0,0,0,0,0,0,0,0,0,0,0,0,0,0,0,0,0,0,0,0,0,0,0,0,0,0,0,0,0,0,0,0,0,0,0,0,0,0,0,0,0,0,0,0,0,0,0,0,0,0,0,0,0,0,0,0,0,0,0,0,0,0,0,0,0,0,0,0,0,0,0,0,0,0,0,0,0,0,0,0,0,0,0,0,0,0,0,0,0,0,0,0,0,0,0,0,0,0,0,0,0,0,0,0,0,0,0,0,0,0,0,0,0,0,0,0,0,0,0,0,0,0,0,0,0,0,0,0,0,0,0,0,0,0,0,0,0,0,0,0,0,0,0,0,0,0,0,0,0,0,0,0,0,0,0,0,0,0,0Z" fill="#684b1e"/>
  <path d="M43.5,71s0,0,.1,0c.2,0,.4,0,.5.1,0,.2,0,.3-.2.4,0,0-.2,0-.3,0-.1,0-.2,0-.3-.2,0-.2,0-.2,0-.4Z" fill="#684b1e"/>
  <path d="M52.9,71.5c0,0,.2,0,.2,0,.1,0,.1,0,.2.2,0,.2-.2.3-.3.4,0,0-.2,0-.3-.1-.1,0-.2-.2-.2-.3.1-.1.2-.1.4-.2Z" fill="#684b1e"/>
  <path d="M44.8,72.8s0,0,0,0c0,0,0,0,0,0,0,0,0,0,0,0,0,0,0,0,0,0,0,0,0,0,0,0,0,0,0,0,0,0,0,0,0,0,0,0,0,0,0,0,0,0,0,0,0,0,0,0s0,0,0,0c0,0,0,0,0,0,0,0,0,0,0,0,0,0,0,0,0,0,0,0,0,0,0,0,0,0,0,0,0,0,0,0,0,0,0,0,0,0,0,0,0,0,0,0,0,0,0,0,0,0,0,0,0,0,0,0,0,0,0,0,0,0,0,0,0,0,0,0,0,0,0,0,0,0,0,0,0,0,0,0,0,0,0,0,0,0,0,0,0,0,0,0,0,0,0,0,0,0,0,0,0,0,0,0,0,0,0,0,0,0,0,0,0,0,0,0,0,0,0,0,0,0,0,0,0,0,0,0,0,0,0,0,0,0,0,0,0,0,0,0,0,0,0,0,0,0,0,0,0,0,0,0,0,0,0,0,0,0,0,0,0,0,0,0,0,0,0,0,0,0,0,0,0,0,0,0,0,0,0,0s0,0,0,0c0,0,0,0,0,0,0,0,0,0,0,0,0,0,0,0,0,0,0,0,0,0,0,0,0,0,0,0,0,0,0,0,0,0,0,0,0,0,0,0,0,0,0,0,0,0,0,0,0,0,0,0,0,0,0,0,0,0,0,0,0,0,0,0,0,0,0,0,0,0,0,0,0,0,0,0,0,0,0,0,0,0,0,0,0,0,0,0,0,0Z" fill="#684b1e"/>
  <path d="M47.7,72.2s0,0,0,0c0,0,0,0,0,0,0,0,0,0,0,0,0,0,0,0,0,0,0,0,0,0,0,0,0,0,0,0,0,0,0,0,0,0,0,0,0,0,0,0,0,0,0,0,0,0,0,0,0,0,0,0,0,0,0,0,0,0,0,0s0,0,0,0c0,0,0,0,0,0,0,0,0,0,0,0,0,0,0,0,0,0,0,0,0,0,0,0,0,0,0,0,0,0,0,0,0,0,0,0,0,0,0,0,0,0,0,0,0,0,0,0,0,0,0,0,0,0,0,0,0,0,0,0,0,0,0,0,0,0,0,0,0,0,0,0,0,0,0,0,0,0,0,0,0,0,0,0,0,0,0,0,0,0,0,0,0,0,0,0,0,0,0,0,0,0,0,0,0,0,0,0,0,0,0,0,0,0,0,0,0,0,0,0,0,0,0,0,0,0,0,0,0,0,0,0s0,0,0,0c0,0,0,0,0,0s0,0,0,0c0,0,0,0,0,0s0,0,0,0c0,0,0,0,0,0,0,0,0,0,0,0,0,0,0,0,0,0,0,0,0,0,0,0,0,0,0,0,0,0,0,0,0,0,0,0,0,0,0,0,0,0,0,0,0,0,0,0s0,0,0,0c0,0,0,0,0,0,0,0,0,0,0,0,0,0,0,0,0,0,0,0,0,0,0,0,0,0,0,0,0,0,0,0,0,0,0,0,0,0,0,0,0,0,0,0,0,0,0,0Z" fill="#684b1e"/>
  <path d="M36.7,72s0,0,0,0c0,0,0,0,0,0,0,0,0,0,0,0,0,0,0,0,0,0,0,0,0,0,0,0,0,0,0,0,0,0,0,0,0,0,0,0,0,0,0,0,0,0,0,0,0,0,0,0,0,0,0,0,0,0,0,0,0,0,0,0,0,0,0,0,0,0,0,0,0,0,0,0,0,0,0,0,0,0,0,0,0,0,0,0,0,0,0,0,0,0,0,0,0,0,0,0,0,0,0,0,0,0,0,0,0,0,0,0,0,0,0,0,0,0,0,0,0,0,0,0,0,0,0,0,0,0,0,0,0,0,0,0,0,0,0,0,0,0,0,0,0,0,0,0s0,0,0,0c0,0,0,0,0,0,0,0,0,0,0,0,0,0,0,0,0,0,0,0,0,0,0,0,0,0,0,0,0,0,0,0,0,0,0,0,0,0,0,0,0,0,0,0,0,0,0,0,0,0,0,0,0,0,0,0,0,0,0,0,0,0,0,0,0,0,0,0,0,0,0,0,0,0,0,0,0,0,0,0,0,0,0,0s0,0,0,0c0,0,0,0,0,0,0,0,0,0,0,0,0,0,0,0,0,0,0,0,0,0,0,0,0,0,0,0,0,0,0,0,0,0,0,0,0,0,0,0,0,0,0,0,0,0,0,0,0,0,0,0,0,0,0,0,0,0,0,0,0,0,0,0,0,0,0,0,0,0,0,0,0,0,0,0,0,0,0,0,0,0,0,0,0,0,0,0,0,0Z" fill="#684b1e"/>
  <path d="M46.8,70.9c.2,0,.4,0,.6.1,0,.1,0,.2-.1.3,0,0-.1,0-.2,0-.1,0-.2,0-.3,0,0-.2,0-.2,0-.4Z" fill="#684b1e"/>
  <path d="M39.9,87.3h0s0,0,0,0l-.9,7.7c-.1,1.1-.2,2.4-.5,3.4-.3.2-.6.4-.9.5-2.4.9-6.1.8-8.4-.2-.3-.2-.6-.4-.9-.7,0-3.3.3-6.6.5-9.8,3.7-.3,7.5-.7,11.2-1Z" fill="#d69842"/>
  <path d="M56.5,85.7h.2s0,0,0,0c0,1-.3,2-.4,3-.4,2.5-.7,5.1-1,7.6-.3.3-.5.5-.9.7-2.3,1-5.8.6-8.1-.3-.4-.2-.8-.4-1.2-.7,0-1.5.3-3,.5-4.5.2-1.6.3-3.2.6-4.8,1.3-.2,2.6-.3,3.8-.4,2.2-.2,4.4-.4,6.5-.6Z" fill="#d69842"/>
  <path d="M53.7,55.9c.3,0,.5,0,.7.1,1.2.8,2.1,2.5,2.4,3.8.4,2,0,3.7-1.1,5.4-.7,1.1-3.1,4-4.4,4.2-.2,0-.3,0-.4,0-.4-.9,1.9-2.1,2-3,0-.1,0-.2,0-.3-.1,0-.2,0-.3,0-.7.2-2.5,3.3-3.5,3.6-.3,0-.6.1-.9,0h0c.2-1.2,2.2-3.3,2.9-4.2.2-.2.2-.3.2-.5,0-.1-.1-.1-.3-.2-.8.2-2.2,2.1-2.7,2.8-.4.6-.8,1.3-1.4,1.8-.2.2-.5.4-.7.3-.2,0-.3-.3-.5-.4,0-.3.2-.6.3-.9.2-.4.4-.7.6-1.1.2-.3.4-.7.7-1,.3-.4,1.6-1.7,1.6-2.1,0-.2,0-.2-.1-.3-.8,0-2.5,2.4-2.9,3.1-.4.6-.5,1.2-1,1.7-.2.1-.3.2-.6.2-.2,0-.2-.2-.3-.4-.2-.9.9-2.6,1.5-3.3,1.3-1.7,3.8-4.5,5.8-5.4.6-.2,1.1-.3,1.7-.4.2,0,.3,0,.4-.2,0,0,0,0,0-.2,0-.2-.3-.3-.5-.4-1.3-.3-3.4,1.3-4.4,2.1-.1-.5-.3-1-.5-1.6,0-.1,0-.2.1-.3.2-.3.5-.6.8-.8,1.5-1.1,3.1-1.8,4.9-2.2Z" fill="#f7c18f"/>
  <path d="M28.6,99.5c2.2.7,4.6,1.2,6.9.8.6-.1,1.8-.6,2.3-.5.4,0,.6.9.8,1.2-1.1-.2-1.9-.4-3,0-.7.2-1.6.9-1.9,1.5,0,.1,0,.2,0,.3.2,0,.3,0,.5,0,.3-.1.6-.4.8-.6.8-.6,1.7-.8,2.7-.8.4,0,.8,0,1.1.2.9.4,2.5,1.6,3.2,2.2.7.6,1.6,1.7,1.7,2.7,0,.2,0,.4-.2.6-.8.9-3.3,1.3-4.4,1.3-2,.1-5.1-.5-6.8-1.6-.7-.5-1.4-1.2-2.1-1.7-.9-.7-1.9-1.4-2.7-2.2,0-1.1.7-2.5,1-3.6Z" fill="#965e24"/>
  <path d="M45.3,97.1c2,1.2,4.9,1.5,7.1,1.2.5,0,1.7-.5,2.2-.3.1,0,.2.1.3.2,0,.2,0,.3,0,.5h0c-.3.2-1.8.2-2.4.4-.4.1-1.2.7-1.4,1.1,0,.1,0,.2,0,.3,0,0,.3.1.4.1.3,0,.7-.5.9-.7.5-.3,1.6-.5,2.2-.5.2,0,.5,0,.7,0,.4.1.8.5,1.1.7,1.1.6,2.1,1.1,3.1,1.9.6.6,1,1.4,1.3,2.2-.5.2-.9.5-1.5.7-1.7.7-3.9.9-5.7.6-.9-.2-1.9-.5-2.8-.8-1-.4-1.8-.9-2.7-1.4-1-.5-2.1-1-3-1.6-.4-.3-.7-.6-.9-1,0-1.2.4-2.4.9-3.6Z" fill="#965e24"/>
  <path d="M33.5,24.1s0,0,0,0c1,0,2.5.2,3.3.9.7.6.9,1.6,1,2.4,0,1.2-.4,2.5-1.2,3.4-.8.8-1.7,1.2-2.8,1.2-1.1,0-2-.2-2.9-.8-.9-.7-1.4-1.7-1.6-2.8-.1-.9,0-2.2.5-2.9.8-1,2.3-1.4,3.5-1.5Z" fill="#f7c18f"/>
  <path d="M33.6,27.2c.2,0,.5,0,.7,0,.6,0,1.3.2,1.7.7.1.2.3.5.3.7,0,.1,0,.2-.2.2-.5,0-.8-.5-1.3-.7h0c-2-.4-1.5.7-2.5.7-.1,0-.2-.1-.3-.2,0-.2,0-.3.1-.5.4-.6.9-.8,1.6-.9Z" fill="#414042"/>
  <path d="M22.2,88.2c.8.3,1.6.4,2.4.5,0,1.7-.3,3.4-.4,5.1l-.7,7.1c-.4,3.8-.6,7.6-1.1,11.3,0,.1-.1.2-.2.3-.2.2-.5.2-.7.2-.3,0-.6,0-.8-.3-.1-.2-.2-.5-.2-.7,0-.6,0-1.3.1-1.9l.3-3.8.5-7.7.5-6.7c0-1.1.1-2.3.3-3.4Z" fill="#c9cacc"/>
  <path d="M44.1,31.5c-.2-.4-.4-.7-.6-1-.5-.7-1.2-1.4-1.5-2.2-.3-.8-.2-1.9.2-2.6.3-.6.9-1,1.6-1.2,1.4-.4,3.4-.3,4.7.4.6.3,1,.7,1.2,1.3.4,1.1.2,2.8-.4,3.8-.1.2-.3.4-.5.6-.4.5-1,.8-1.5,1-1.1.4-2.1.4-3.2,0Z" fill="#f7c18f"/>
  <path d="M44.5,27.2c.7,0,1.4,0,1.9.3.3.2.6.5.6.8,0,.2,0,.2-.1.4-.5.3-.8-.4-1.4-.6h0c-1.3-.1-1,0-2.1.6-.2,0-.3.1-.4,0h0c0-.4,0-.7.2-.9.3-.4.9-.6,1.4-.7Z" fill="#414042"/>
  <path d="M71.8,84.2h.1s0,0,0,.1c.1.4.2,2.7.2,3.3l.8,10.8c0,1.2.8,8.4.5,8.8-.1.2-.3.3-.5.3-.4.1-.7,0-1-.1-.1-.2-.2-.4-.2-.6-.2-1.2-.2-2.5-.3-3.7l-.6-6.9c-.3-3.9-.7-7.9-1-11.8.6,0,1.2-.1,1.8-.2Z" fill="#c9cacc"/>
  <path d="M7.3,77.7c.6.3,1.3.9,1.9,1.3-.3,1.8-.4,3.6-.6,5.5-.5,4.3-1,8.5-1.5,12.8-.1,1.1-.2,3.6-.6,4.4-.3.3-.6.4-1,.4-.2,0-.3,0-.5-.2-.2-.2-.1-.5-.1-.8,0-1.4.3-2.8.4-4.2l.6-6,.8-8.5c.1-1.5.3-3.1.4-4.7Z" fill="#c9cacc"/>
  <path d="M11.3,46.8h.2s0,0,0,0c0,0-.4,1-.5,1.1-1,2.2-3.4,8.9-3,11.1.2.2.4.3.6.5.1.1.1.2.2.3-.2.3-.6.3-.8.4-.3,0-.8,0-1.1-.3-.2-.1-.2-.3-.2-.5-.1-1.5,0-3,0-4.5v-3.5c0-1,0-2,.1-2.9,0-.3.2-.7.4-.9.7-.8,3.1-.8,4.2-.8Z" fill="#d5bc2a"/>
  <path d="M36.7,34.1c.2,0,.4.3.6.4.6.4,1.2.6,1.9.7,1.5.3,3,.1,4.2-.8.4.1.8.3,1.2.5.5.3,1.1.8,1.3,1.3,0,.2.1.5,0,.7,0,0-.1,0-.2,0-.4,0-.7-.3-1-.5-.2-.2-.4-.3-.8-.2-.2.2,0,.5,0,.8,0,.1,0,.3-.2.4-.7.7-1.4-.6-2.1-.6-.2.2-.2.4-.3.6,0,.2-.2.3-.4.4-.5.1-.7-.3-1.1-.5-.2,0-.3,0-.4,0,0,0,0,0,0,0,0,0-.1.1-.2.1-.2.1-.5.3-.8.2-.3-.3,0-.8,0-1.2,0,0-.1,0-.2,0-.3,0-1.1.7-1.4.9-.3.1-.7.2-1,0-.3-.4.3-.7.3-1.1h0c-.7-.3-1.1.6-1.7.8-.2,0-.4,0-.6,0,0,0-.1-.1-.1-.2,0-.3.1-.5.3-.7,0-.2,0-.2,0-.3-.7-.3-1.7,1-2.5.9,0,0-.1-.1-.1-.2h0c0-.1,0,0,0,0,0-.1,0-.3.2-.4.7-.9,2.8-1.6,3.9-1.9.5-.1,1-.2,1.5-.2Z" fill="#c6b39d"/>
  <path d="M12.2,45.1c.1,0,.3,0,.4,0,0,.3-.5.6-.7.8-1.4.2-4.1-.1-5.1,1-.4.4-.8,1-.9,1.6-.2,1,0,2.9,0,3.9,0,2.4,0,4.8,0,7.3-.2-.1-.5-.3-.7-.4,0,0,0,0,0,0-.4-.3-.7-.8-.7-1.3-.2-1.6-.1-3.3-.1-4.9,0-1.3,0-2.6,0-4,0-.5,0-1.1,0-1.7,0,0,0-.2,0-.2,0,0,0-.1,0-.2,0,0,0-.1.1-.2,0,0,0-.1.1-.2.3-.3.6-.6,1-.7,1.5-.6,4.8-.6,6.4-.7Z" fill="#d5bc2a"/>
  <path d="M27.5,103.9c.3.3.6.6,1,.9.5.4,1,.8,1.5,1.2.4.4.7.8,1.2,1.1,1,.8,2.4,1.4,3.7,1.7,3.7,1.1,6.1.8,9.4-1.1-.1.3-.2.7-.3,1-.2.2-.4.4-.6.5-2,1.3-4.8,1.4-7.1.9-2-.5-4.5-1.2-5.7-3.1-.3-.1-.4-.3-.7-.3-.2,0-.5,0-.7-.2-.8-.3-1.5-1.3-1.7-2,0,0,0-.1,0-.2,0-.2,0-.3,0-.6Z" fill="#965e24"/>
  <path d="M44.1,101.6c.4.2.7.6,1.1.9.7.5,1.6.9,2.3,1.3,3.2,1.8,6,3.1,9.8,2.6.4,0,.8-.1,1.2-.2.4-.1.8-.2,1.2-.4.4-.2.9-.6,1.4-.5,0,0,.1,0,.1.2,0,.2-.1.5-.3.6-.4.3-.9.5-1.3.7-2.9,1.2-6.1,1-9-.4-.8-.4-1.5-1-2.3-1.3,0,0,0,0,0,0l-.7.2c-1-.5-2-1-2.9-1.7-.6-.6-.7-1-.8-1.8Z" fill="#965e24"/>
  <path d="M29.7,43.7c.4,0,1,.4,1.4.6.5.2,1,.3,1.5.6.5.2,1.1.5,1.6.8,1.3.6,2.7.8,4.1.7-.3.7-.8,1.3-1.2,2-.4.5-.8.9-1.3,1.3-1.1-1.3-2.2-2.5-3.4-3.6-.9-.8-1.8-1.5-2.7-2.3Z" fill="#f7c18f"/>
  <path d="M8.9,61h0c.1.2.1,1.5.2,1.9.1.7.4,1.4.7,2.1h0s0,0,0,0c-.6,0-1.1,0-1.6.2h-1c0-1.4,0-2.8,0-4.1.7.1,1.1.1,1.8,0Z" fill="#69888d"/>
  <path d="M43.4,43.7c.6.7,1.1,3.8,1.1,4.8-.6-.4-1.2-.8-1.9-1.2-.8-.5-1.7-.8-2.5-1.3,1.4-.4,2.3-1.2,3.3-2.3Z" fill="#5d5f66"/>
  <path d="M44.8,63.7c.2,0,.3,0,.5,0h0c0,0,0,0,0,0h0s0,0,0,0c-.1.3-.8,1.2-1,1.4-.3.2-3.6.7-4.1.6-.2,0-.2-.2-.3-.4-.3-.5-.6-.9-.9-1.3,1.9,0,3.9-.3,5.8-.5Z" fill="#d69842"/>
  <path d="M33.5,57.9s0,0,0,0c.3.1,2,3.6,2.2,4.1-.4-.1-.8-.2-1.2-.4-.3,0-.6-.1-.9-.2-.5-.9-1.1-1.8-1.6-2.8.4-.3,1-.5,1.5-.8Z" fill="#d69842"/>
  <path d="M31.1,54.1c0,0,.1,0,.2,0,.5.2.8,1.2,1,1.7-.5.2-.9.4-1.3.7,0,0-.1,0-.2,0-.3-.2-.7-.9-.8-1.3,0-.2,0-.4.1-.6.2-.3.6-.4,1-.5Z" fill="#f08031"/>
  <path d="M20.4,33.9c.6.1,1.2.1,1.8,0,.1.7.2,1.4.4,2.1h0c0,0-.1,0-.2,0-.8-.3-1.6-1.4-2-2.1Z" fill="#c6b39d"/>
  <path d="M40.2,68.8h0c.2.2.5,1.7.6,2.1-.3-.1-.5-.2-.8-.4-.3-.2-.6-.4-.9-.7,0-.3,0-.6,0-.8.4,0,.7-.1,1-.2Z" fill="#f7c18f"/>
  <path d="M32.7,56.4c.2.3.3.6.5.9-.5.3-1,.5-1.6.7-.2-.3-.4-.6-.6-.8.5-.3,1.1-.5,1.6-.8Z" fill="#d69842"/>
  <path d="M22.2,26.1c.4.1.9.1,1.3.2-.1.4-.2.9-.3,1.3,0,0,0,.1,0,.2h-.1c-.4-.2-.7-1.2-.8-1.7Z" fill="#c6b39d"/>
</svg>