<?xml version="1.0" encoding="UTF-8"?>
<svg id="Layer_1" xmlns="http://www.w3.org/2000/svg" width="80" height="115" version="1.1" viewBox="0 0 80 115">
  <!-- Generator: Adobe Illustrator 29.4.0, SVG Export Plug-In . SVG Version: 2.1.0 Build 152)  -->
  <defs>
    <style>
      .st0 {
        fill: #69888d;
      }

      .st1 {
        fill: #f7c18f;
      }

      .st2 {
        fill: #414042;
      }

      .st3 {
        fill: #414042;
      }

      .st4 {
        fill: #d69842;
      }

      .st5 {
        fill: #965e24;
      }

      .st6 {
        fill: #fff;
        stroke: #000;
        stroke-miterlimit: 10;
      }

      .st7 {
        fill: #f08031;
      }

      .st8 {
        fill: #5d5f66;
      }

      .st9 {
        fill: #fef2d4;
      }

      .st10 {
        fill: #684b1e;
      }

      .st11 {
        fill: #c6b39d;
      }
    </style>
  </defs>
  <polygon class="st6" points="61.796 73.112 32.796 76.164 21.167 68.115 48.103 64.21 61.796 73.112"/>
  <path d="M38.202,1.5c.602.023,1.431.102,1.919.477.114.091.17.17.182.318-.102.466-.613.852-.908,1.215.454-.034.908-.057,1.374-.045,2.68.091,6.018,1.363,7.869,3.35.681.727,1.022,1.215.976,2.225.783.749,1.487,1.567,2.01,2.509.942,1.715,1.692,4.076,1.124,6.029-.204.114-.488.295-.727.273-.034,0-.068,0-.102-.011-.125.409-.034.908-.091,1.34-.273,1.998-.806,4.008-2.089,5.609.261.182.545.307.818.466.363.204.727.431.852.852-.011.114-.011.17-.079.273-.159.227-.443.318-.693.375.023,1.783-.102,3.054-1.317,4.428.034.159.057.329.068.488.045.749-.011,1.499-.079,2.248-.25,2.975-1.158,5.586-3.157,7.846,3.77,2.01,6.358,6.688,8.675,10.128.579.863,1.919,2.577,2.191,3.497-.057.238-.102.488-.216.704-.148.284-.386.397-.681.477,1.363,1.896,1.873,3.974,1.51,6.268,2.146.999,18.19,8.811,18.678,9.594s.204,3.679,0,4.599c-.318,1.374-1.533.886-2.123,1.363-.431.352-.238,2.929-.318,3.611-.102.829-.466,1.26-1.101,1.749.091,2.26.329,4.542.511,6.801.273,3.463.534,6.937.772,10.401.136,1.862.409,3.77.42,5.62,0,.329,0,.942-.193,1.215-.261.375-.761.59-1.204.636-.511.057-1.135-.023-1.533-.375-.273-.25-.363-.624-.42-.976-.102-.693-.114-1.408-.17-2.112l-.409-4.928-.602-7.358c-.238-2.77-.511-5.541-.693-8.323-1.624.079-3.304.329-4.916.5-2.271.238-4.564.443-6.835.715-.227,1.192-.329,2.43-.488,3.633l-.874,6.665c-.102.806-.329,1.135-.965,1.635.295.477.783,1.124,1.215,1.476.466.375,1.067.59,1.59.874,1.442.749,2.748,1.794,3.463,3.281.352.749.761,1.953.454,2.77-.307.806-1.215,1.272-1.953,1.59-2.873,1.26-6.336,1.022-9.152-.261-.84-.386-1.59-.942-2.418-1.317-.352-.159-.863-.079-1.294-.25-1.204-.477-3.02-1.533-3.543-2.793-.636-1.556.329-4.701.988-6.199-.148-.273-.284-.545-.295-.863-.023-.454.079-.954.136-1.408l.284-2.475c.193-1.726.273-3.565.613-5.268-1.453.159-2.975.193-4.417.5-.204,1.022-.273,2.101-.409,3.145-.204,1.737-.431,3.463-.67,5.189-.114.84-.136,1.726-.341,2.543-.079.307-.204.59-.409.818-.091.091-.148.182-.216.284.057.341.25.613.397.908.204.397.386.795.67,1.158.693.863,2.282,1.624,3.191,2.543,1.192,1.215,1.794,2.714,1.783,4.417-.125.602-.386,1.101-.84,1.533-1.397,1.317-4.019,1.658-5.859,1.59-3.02-.125-6.029-1.238-8.107-3.486-.182,0-.363-.023-.545-.068-.852-.261-2.203-1.465-2.611-2.271-.715-1.374.522-5.03.999-6.506-.148-.273-.341-.545-.375-.863-.102-.874.034-1.828.068-2.702.102-2.373.227-4.735.375-7.096-.818.136-1.658.182-2.487.238-.352,2.907-.556,5.836-.818,8.754l-.931,9.64c-.148,1.533-.238,3.088-.409,4.621-.068.568-.159,1.238-.647,1.601-.454.329-1.067.409-1.601.318-.431-.079-.863-.295-1.101-.67-.193-.307-.204-.738-.204-1.101.034-1.942.273-3.895.409-5.825l.715-10.298.341-4.655c.068-1.056.057-2.203.284-3.236-1.09-.874-2.294-1.635-3.44-2.441-2.691-1.885-5.439-3.736-8.05-5.734-.375,1.26-.488,3.554-.636,4.916l-1.408,12.524c-.114.976-.227,1.953-.341,2.929-.068.67-.102,1.385-.273,2.032-.136.511-.511.749-.942.999-.25.023-.5.023-.749,0-.443-.034-.942-.159-1.226-.522-.25-.307-.227-.715-.216-1.09.023-.863.159-1.749.25-2.611.182-1.669.341-3.35.5-5.019l1.056-10.821c.17-1.873.363-3.758.568-5.632-.114-.102-.216-.216-.318-.329-.216-.25-.352-.556-.409-.886-.182-.942-.023-2.918.034-3.917-.579-.352-1.215-.704-1.715-1.158-.488-.454-.602-.886-.624-1.533-.034-.806-.159-3.066.42-3.622.511-.488,1.692-.42,2.362-.443-.045-1.465,0-2.952.057-4.417-.965-.522-2.191-.931-2.6-2.078-.102-.284-.17-.602-.193-.908-.17-1.567-.352-10.344.204-11.388.318-.579.976-1.113,1.578-1.363,1.363-.545,4.644-.59,6.211-.693.556-.034,1.158-.034,1.692-.182.023,0,.045-.011.068-.023.307-.341.636-.659.976-.976.341-.307.681-.613,1.045-.897s.727-.556,1.113-.806.772-.5,1.169-.715c.659-.375,3.35-1.556,3.645-1.896.307-.341.783-1.68,1.135-2.248-1.056-.443-1.93-1.056-2.475-2.101-.148-.295-.25-.681-.466-.931-.216-.261-.579-.466-.852-.681-.772-.602-1.34-1.294-1.794-2.157-.738-1.397-1.067-3.259-.579-4.78.284-.886.852-1.408,1.646-1.828-.148-.397-.273-.806-.397-1.215-.068-.045-.091-.057-.17-.102-.454-.318-.693-1.045-.806-1.578-.738-3.554.795-9.367,2.793-12.354,2.123-3.168,4.814-4.757,8.504-5.495-.068-.148-.159-.295-.193-.454-.034-.17.034-.352.136-.477.307-.386.942-.488,1.408-.556,1.873-.261,3.588.17,5.098,1.317.988-1.169,2.441-1.646,3.917-1.794v-.045ZM40.473,66.617c.431,1.158,1.556,4.326,1.294,5.427-.057.068-.068.125-.17.136-.624.102-2.271-1.135-2.736-1.533-.136-.114-.261-.238-.386-.352-1.408.431-4.792,1.34-6.143,1.09-.738-.136-1.385-.511-2.101-.693-.636-.159-1.306,0-1.942-.148-.897-.193-1.658-.693-2.521-.965-.84-.261-1.862-.159-2.748-.25,2.35,1.374,4.599,2.907,6.869,4.405,1.011.67,2.032,1.419,3.1,2.01,1.419-.079,2.895-.284,4.303-.466,5.189-.431,10.378-1.113,15.555-1.658l4.962-.5c.863-.091,1.828-.114,2.668-.341-1.771-.908-3.497-1.908-5.223-2.895-.579-.329-1.147-.715-1.749-1.022-.693.647-1.453,1.385-2.475,1.374-.397,0-.704-.159-1.056-.329-1.079.647-1.544.556-2.748.613-.431.011-.874.125-1.294.023-.488-.125-.772-.5-1.045-.908-.522.068-1.033.136-1.487-.193-.25-.182-.397-.466-.431-.772-.102-.772.329-1.646.681-2.294.045-.091.159-.216.079-.295h-.079c-1.067.182-2.157.295-3.213.522l.034.011ZM46.082,60.929c-.159.761-.204,1.521-.261,2.294.352-.352.715-.704,1.056-1.067.318-.318.704-.659.954-1.033-.602-.136-1.147-.114-1.737-.193h-.011Z"/>
  <path class="st11" d="M37.657,2.397c.273-.034.568-.034.84-.034.227,0,.386.023.545.193-.068.693-1.521,1.215-1.93,1.817-.079.114-.091.136-.068.273.466.307,1.805-.17,2.373-.261.375-.057.749-.068,1.135-.068,2.975.068,5.972,1.556,8.016,3.667-.329.011-.818-.034-1.101.159-.091.057-.068.091-.091.193.148.352,1.158.795,1.499,1.101,2.066,1.885,3.157,4.349,3.27,7.119-.307-.397-.84-1.135-1.317-1.306-.114.068-.091.079-.091.216.011.284.159.568.216.84.102.431.102.92.102,1.363,0,.261,0,.511-.023.772-.011.261-.034.511-.068.761s-.068.511-.114.761-.091.5-.148.749c-.057.25-.125.5-.193.738-.068.25-.148.488-.227.727-.079.238-.17.477-.273.715s-.204.466-.307.704c-.102.216-.216.511-.443.59-.466-.363.193-4.201-.341-5.166-.204-.375-1.215-1.011-1.59-1.294-.59-.431-1.158-.886-1.703-1.351-.375-.329-.727-.693-1.124-.988-.136-.102-.238-.182-.409-.227l-.079.068c-.034.409.091.886.136,1.294.057.454.068.886.057,1.34-1.385-.795-2.543-2.305-3.429-3.611.045-.261.079-.534.102-.806.034-.488.034-1.192-.329-1.567-.068-.079-.034-.057-.148-.057-.273.273-.5,2.078-.647,2.589-.431,1.476-1.306,3.179-2.702,3.951.045-.988.363-1.964.295-2.963-.011-.17-.023-.341-.159-.466-.034.011-.079.023-.114.034-.227.136-.522.647-.704.874-.431.534-.908,1.022-1.397,1.499-.727.693-1.556,1.226-2.509,1.567,0-.034.011-.068.023-.102.216-1.272.693-1.839.693-3.281-.466.42-.84.942-1.238,1.408-1.226,1.431-2.453,2.35-4.281,2.816.238-.556.545-1.09.704-1.692.068-.261.125-.488-.011-.727l-.114-.023c-.295.193-2.986,2.657-3.077,2.884,0,.023-.023.045-.023.068-.261.67-.386,1.397-.568,2.089-.284,1.067-.602,2.112-.84,3.191-.329-.102-.659-.182-.999-.25-.341-.057-.681-.102-1.022-.125-.216-.227-.443-.466-.704-.647-.704-.511-1.521-.761-2.384-.624v-.125c.011-.42-.216-.886-.284-1.306-.091-.488-.045-1.045-.057-1.556,0-.227.034-.693-.125-.863l-.114.023c-.352.341-.511.886-.693,1.34-.023-2.611-.023-4.655.636-7.199,1.385-5.302,5.019-9.481,10.718-10.037.5-.045,2.362.102,2.577-.023.011-.079.045-.114,0-.182-.25-.488-2.169-.761-2.702-.897,1.533-.534,3.384-.363,4.735.556.329.216.886.829,1.249.84.238-.204.352-.522.522-.783.488-.761,1.749-1.147,2.566-1.328v.045Z"/>
  <path class="st3" d="M34.421,7.347c.341-.034.818-.023,1.113.159l.023.114c-.125.182-1.771.556-2.191.727-1.022.42-1.828,1.022-2.657,1.715-.148.136-.329.318-.534.341-.091,0-.068,0-.148-.068-.023-.295.17-.568.352-.795.057-.079.125-.148.193-.227.068-.068.136-.148.204-.216.068-.068.136-.136.216-.204.068-.068.148-.136.227-.193.079-.068.148-.125.227-.182s.159-.114.238-.17.159-.114.25-.159c.079-.057.17-.102.261-.148s.17-.091.261-.136c.091-.045.182-.079.273-.125.091-.034.182-.079.273-.114s.182-.068.284-.091c.091-.034.193-.057.284-.079s.193-.045.284-.068.193-.034.295-.057c.102-.011.193-.023.295-.034l-.023.011Z"/>
  <path class="st3" d="M39.905,7.223c1.465.023,3.122.443,4.281,1.385.25.204.624.636.636.976,0,.102-.023.091-.079.159-.148,0-.25-.091-.363-.182l-.057-.045c-1.306-.886-2.521-1.351-4.076-1.646-.386-.079-.852-.034-1.204-.193l-.023-.114c.193-.25.579-.295.874-.352l.011.011Z"/>
  <path class="st8" d="M22.953,37.334c.318.216.636.976.84,1.328.25.431.522.84.818,1.238s.613.772.942,1.135c.783.829,1.612,1.238,2.43,1.942.488.42.863.954,1.351,1.385.829.738,1.726,1.397,2.566,2.123.761.659,1.453,1.397,2.123,2.146.443.488.897.976,1.135,1.59-.159.477-.25.942-.318,1.442-.136,1.011-.159,2.055-.227,3.077-.068.908-.273,1.942-.148,2.839v.091c-.795-.829-1.805-3.724-2.589-4.178-.431-.25-1.192-.17-1.646,0-.375.136-.704.613-.84.965-.102.273-.148.545-.068.829.216.886.829,1.68,1.294,2.441.727,1.192,1.51,2.396,2.101,3.656-1.51.136-2.782.852-4.212,1.226-.522.136-1.09.045-1.601-.079-.988-.227-1.976-.659-2.929-1.011-1.135-.409-2.305-.795-3.406-1.272.738-2.509,1.272-7.176.568-9.719-.556-1.987-2.169-4.451-4.008-5.439-.204-.114-.386-.204-.624-.136-.091.114-.091.159-.125.307.057.227,1.692,1.544,2.01,1.908,2.225,2.521,2.328,5.019,2.123,8.209-.091,1.181-.227,2.373-.42,3.543-1.056-.965-2.248-1.499-3.645-1.783-2.237-.466-5.609-.375-7.573.92.363-3.134,2.316-9.174,3.985-11.808,1.635-2.566,5.348-5.359,8.311-6.029.114.659.273,1.317.466,1.964.375,1.204.897,2.373,1.351,3.543.488,1.238.92,2.702,1.646,3.826.182.273.511.727.874.772.738.079,4.156-2.339,4.735-2.884.59.511,1.964,2.577,2.532,2.725.125.034.159.034.273-.023.068-.091.079-.136.091-.25.011-.216-.102-.454-.227-.624-.182-.273-.454-.511-.67-.761-.556-.636-1.09-1.283-1.669-1.896-.068.023-.136.045-.216.057-.886.261-2.282,1.385-3.122,1.93-.522.341-1.079.624-1.624.931-.613-.613-2.623-5.87-3.032-7.051-.193-.579-.363-1.169-.488-1.771-.068-.318-.136-.67-.114-.988.057-.761.556-1.76.976-2.384h0Z"/>
  <path class="st0" d="M6.693,72.533c.886.636,1.839,1.215,2.759,1.817l4.19,2.805,5.802,3.86c1.226.818,2.453,1.646,3.713,2.407,0,.647-.25,2.77.102,3.179.159.045.182.045.341,0,.477-.466.363-2.43.386-3.134,1.408-.057,2.85-.25,4.258-.386l7.335-.738,24.855-2.532,8.788-.942c1.351-.148,2.702-.341,4.042-.42,0,.386-.045.772-.068,1.158-.079.954-.057,1.919-.25,2.861-.079.114-.17.227-.284.329-.375.341-.897.534-1.385.602-.829.114-1.68.159-2.509.227-1.363.114-2.736.25-4.099.375l-20.665,1.953c-4.689.5-9.379.942-14.068,1.34-2.078.182-4.303.579-6.381.431-.443-.034-.818-.261-1.181-.5-1.294-.818-2.532-1.783-3.781-2.68l-6.177-4.36c-1.033-.727-2.078-1.442-3.122-2.146-.829-.556-1.942-1.169-2.6-1.93-.079-1.181,0-2.384.011-3.577h-.011Z"/>
  <path class="st1" d="M18.911,24.776c.273-.034.556.034.806.102,1.067.284,1.669,1.192,1.976,2.203.114.375.193.829.397,1.169.159.25.397.352.681.42.295.068.67.159.942-.023.466-.318.556-1.658.636-2.203,1.374.329,2.782.59,4.178.795v.511c.023,1.419.556,2.805,1.601,3.804,1.011.965,2.498,1.408,3.872,1.363,1.238-.045,2.453-.511,3.304-1.419,1.181-1.272,1.442-2.759,1.385-4.428.772.011,1.544-.068,2.316-.136,0,.556.023,1.158.216,1.68.579,1.51,2.328,2.248,2.191,4.099-.034.5-.261.931-.647,1.249-.556.454-1.306.624-1.998.647-.761.023-1.578-.068-2.282-.363-.908-.397-1.124-.852-1.828-1.408-.091-.068-.193-.125-.307-.125-.091,0-.068,0-.136.079-.045.216,0,.409.045.613-1.556.273-2.941.59-4.315,1.408-.647.386-1.431.908-1.601,1.692-.068.284-.057.59.114.84.136.182.341.295.568.329.624.102,1.158-.25,1.635-.579.182.386.363.693.783.852.511.193,1.045,0,1.51-.227.522.659,1.101.874,1.896.556.182-.068.409-.204.613-.193.261,0,.466.511.783.602.5.159,1.056-.136,1.499-.363.386.148.783.295,1.204.307.545,0,.886-.273,1.249-.647l.454.273c.341.125.738.193,1.101.125.477-.102.738-.42.988-.818.227.148.431.295.693.375.284.091.624.136.897-.023.204-.114.329-.307.386-.534.159-.545.011-1.124-.25-1.601-.534-.954-1.521-1.612-2.555-1.896.17-.511.25-.976.295-1.499l.057.023c1.556.488,2.884.216,4.303-.522,0,1.033-.023,2.044-.159,3.066-.466,3.372-1.828,5.677-4.542,7.732l-.568-.25c-.386.466-.636.999-1.067,1.431-1.158,1.135-2.929,1.658-4.519,1.624-1.045-.023-2.498-.25-3.406-.772-.511-.295-.988-.681-1.533-.886-.647-.238-1.328-.386-1.976-.647-4.167-1.658-6.654-4.042-7.573-8.504-.125-.579-.091-1.453-.511-1.896-.079-.034-.125-.068-.216-.034-.261.079-.363.341-.477.568-.942-.011-1.726-.159-2.521-.704-1.26-.863-2.214-2.407-2.487-3.906-.17-.942-.193-2.271.397-3.077.386-.534.897-.738,1.521-.84l-.023-.011Z"/>
  <path class="st2" d="M33.717,38.651c.636,0,1.169.488,1.749.715.636.25,1.328.397,2.01.466,1.158.114,2.611.114,3.724-.318.375-.148.829-.466,1.226-.488.148.068.136.068.182.216-.023.182-.068.307-.148.466-.068.057-.136.102-.216.159-1.59,1.011-4.212.942-5.972.545-.749-.17-2.146-.522-2.555-1.238-.114-.204-.068-.318,0-.522h0Z"/>
  <path class="st2" d="M18.684,26.809c.341-.011.659,0,.976.136.715.273,1.272.852,1.578,1.544.182.397.397.999.204,1.419-.079.182-.204.193-.375.261-.159-.057-.261-.079-.352-.227-.261-.466-.227-1.056-.534-1.533-.488-.749-1.646-.556-1.93-.874-.023-.091-.045-.182-.011-.273.068-.238.238-.341.443-.443v-.011Z"/>
  <path class="st4" d="M57.413,63.62c.431.114.897.386,1.306.579,1.033.5,2.066,1.011,3.1,1.521,2.975,1.465,5.927,2.952,8.868,4.474,1.68.863,3.531,1.68,5.075,2.759-1.363.25-2.782.341-4.156.488l-8.504.829-31.667,3.202-3.747.363c-1.26.136-2.759.477-4.008.216-.466-.102-.92-.295-1.34-.522-1.135-.602-2.203-1.397-3.293-2.101l-6.835-4.462-4.678-2.986c-.852-.556-1.817-1.079-2.566-1.783,1.76-.307,3.599-.273,5.382-.534,1.987,2.521,6.336,2.782,9.288,3.27.636.102,1.442.125,2.021.409,1.124.545,2.191,1.385,3.247,2.078,1.487.988,2.986,1.976,4.485,2.941,1.09.715,2.18,1.465,3.304,2.135l20.79-2.203c1.453-.159,2.918-.295,4.383-.431.886-.079,1.771-.125,2.646-.273.375-.057,1.045-.159,1.283-.477.079-.114.102-.193.079-.329-.59-.5-1.408-.874-2.089-1.249l-3.577-1.998c-.659-.375-1.374-.727-1.998-1.181l-.068-.045c1.351-1.431,2.464-2.895,3.225-4.723l.045.034Z"/>
  <path class="st4" d="M4.445,66.821c.522.318.999.727,1.499,1.079,1.067.749,2.203,1.408,3.293,2.112l5.666,3.679,4.61,3.032c.715.477,1.419.976,2.157,1.419.409.25.806.443,1.272.568.579.159,1.158.295,1.76.273,1.147-.057,2.294-.216,3.44-.329,2.135-.204,4.258-.42,6.392-.647,6.279-.602,12.569-1.238,18.837-1.908l16.157-1.624c2.066-.227,4.167-.329,6.211-.681-.023.84.068,2.748-.397,3.395-.284.193-.647.261-.988.307-2.611.307-5.234.59-7.846.852l-26.842,2.759-11.207,1.147c-1.033.102-2.055.216-3.088.329-.511.057-1.09.182-1.601.159-.329-.011-.886-.375-1.158-.556-1.476-.942-2.929-1.964-4.394-2.941l-8.345-5.552c-.908-.602-1.817-1.204-2.736-1.794-.727-.466-1.851-1.056-2.43-1.669-.488-.534-.307-2.657-.261-3.384v-.023Z"/>
  <path class="st2" d="M23.611,79.391c.17,0,.318,0,.42.159.25.363.148,1.317.125,1.737-.023.363-.034.579-.329.829-.079,0-.148-.023-.216-.034-.148-.125-.193-.25-.227-.431-.102-.579-.114-1.771.227-2.248v-.011Z"/>
  <path class="st8" d="M45.73,42.353c.341.125.681.454.976.67,3.009,2.225,4.996,5.586,7.051,8.663.783,1.169,1.624,2.316,2.339,3.531-.727.091-1.283-.091-1.987-.079-.579,0-1.215.238-1.794.148-.057-.102-.034-.068-.068-.159,0-.023-.011-.034-.023-.057l-.102.034c-.068.136-.136.318-.25.409-.273.204-.976.409-1.317.556-.59.261-1.158.579-1.692.954-.42.295-.897.613-1.249.999-.25.273-.454.59-.715.84-.057.057-.125.034-.193.034-.148.079-.352.602-.488.783-.011.023-.034.034-.045.057.5-1.624,1.669-8.754,1.124-10.083-.057-.136-.102-.182-.238-.238-.079.011-.136.034-.204.079-.17.125-.238.227-.238.443-.045,2.441-.295,4.803-.693,7.21-.193,1.147-.431,2.282-.613,3.429-.091.624-.136,1.249-.227,1.873,0,.182,0,.341-.102.5-.647.193-1.51.17-2.18.227l-4.269.397c-.67-.397-1.521-.931-1.896-1.624-.193-.363-.318-.772-.511-1.135-.341-.659-.749-1.294-1.135-1.942.034-.636.17-1.283.227-1.919.091-1.113.193-5.461.59-6.143.363-.624,1.646-1.635,2.214-2.362.318-.397.59-.795.806-1.26.136-.295.238-.636.409-.897h.136c.352.238.59.522.806.874-.556,2.362-2.759,1.942-3.611,3.043q-.079.102-.057.227c.068.045.125.068.216.079.999.102,2.543-.727,3.293-1.351.624-.511.874-1.169.954-1.953.942.431,1.692,1.113,2.589,1.601.386.204.954.511,1.397.352.17-.057.295-.193.363-.363.352-.92-.67-4.417-1.067-5.416.488-.329.988-.659,1.476-.988v-.045Z"/>
  <path class="st2" d="M37.123,52.799h.114c.329.057.477.318.647.579-.023.227-.034.488-.125.693-.125.273-.329.352-.602.454-.023,0-.045,0-.079-.011-.25-.068-.477-.341-.59-.568-.102-.193-.102-.409-.034-.613.102-.307.409-.409.67-.545v.011Z"/>
  <path class="st2" d="M36.567,58.976c.034,0,.068.023.091.034.409.159.579.488.749.863-.102.329-.193.556-.443.806-.273-.034-.466-.057-.659-.261-.159-.17-.227-.386-.216-.624.023-.397.182-.556.466-.806l.011-.011Z"/>
  <path class="st1" d="M13.109,57.761c1.839-.182,4.031.17,5.598,1.192-.114.17-.17.352-.25.545-.659-.284-1.408-.488-2.123-.295-.238.057-.409.136-.534.352l.045.125c.318.25,1.908.466,2.509.659,2.339.772,7.494,3.191,9.731,3.122.602-.023,1.124-.216,1.669-.431,1.942-.783,3.009-1.169,5.121-.545,2.146.636,3.577,1.964,4.61,3.917.204.386.636,1.204.511,1.624-.068.057-.136.114-.216.148-.295.125-.534.091-.806-.079-.693-.42-1.476-1.635-2.055-2.271-.238-.25-.522-.477-.783-.704-.307-.261-.568-.511-.954-.647-.204-.068-.363-.102-.556,0l-.023.148c.204.534.829.897,1.249,1.272.613.545,2.407,2.316,2.418,3.134,0,.159-.068.307-.182.42-.17.159-.443.307-.681.284-.352-.034-.749-.772-.999-1.033-.307-.363-.681-.704-1.022-1.022-.454-.42-1.805-1.703-2.373-1.635-.091,0-.102.057-.159.114-.023.182-.034.238.091.386.273.341.681.624,1.022.897.715.59,1.885,1.556,2.362,2.305,0,.011.023.034.034.057-.216.216-.431.431-.749.488-1.113.193-2.839-2.35-4.292-2.328-.125.091-.114.079-.148.227.238.715,1.998,1.465,2.6,2.032.114.102.148.159.159.318-.045.045-.045.057-.114.091-.273.136-.976.068-1.272.023-.602-.091-1.147-.477-1.749-.613-.954-.227-1.908-.136-2.861-.443-.624-.204-1.204-.681-1.828-.818-.715-.159-1.692-.034-2.487-.114-3.043-.318-6.483-.67-9.39-1.624-1.567-.511-2.986-1.226-3.758-2.759-.852-1.692-.772-4.144-.17-5.904.863-.431,1.885-.522,2.839-.59l-.034-.023Z"/>
  <path class="st1" d="M40.393,15.273c.749.988,2.668,3.315,3.895,3.44.216.023.409-.023.579-.17.363-.341.318-.988.329-1.442.965.897,2.135,1.533,3.088,2.43.034,1.351,0,2.646-.114,3.997l-.045.159c-.318,0-.772-.17-1.101-.238-1.283-.238-2.555-.182-3.792.227-.125.045-.261.091-.386.159-.976.477-1.385,1.34-1.726,2.305-.806-.057-1.68.079-2.487.136-.102-.273-.193-.545-.307-.806-.42-.965-1.147-1.544-2.112-1.908-1.919-.443-3.622-.409-5.461.363-.102.045-.204.091-.307.148-1.045.568-1.419,1.272-1.749,2.373-1.34-.318-2.736-.534-4.099-.806.409-1.715.772-3.497,1.317-5.166.148-.125.329-.295.5-.386.148-.079.216-.057.363,0,.17.204.318.409.602.466,1.158.238,3.304-1.306,4.303-1.908-.023.125-.034.25-.045.386-.023.216.011.42.17.568.114.114.261.148.42.159,1.283.023,3.088-1.601,3.94-2.43-.023.42-.057.908.125,1.294.091.204.25.352.466.431.363.125.749.057,1.09-.114,1.26-.659,2.18-2.384,2.589-3.679l-.045.011Z"/>
  <path class="st3" d="M30.39,23.72h-.034c-.102-.045-.079-.034-.125-.148.114-.488.659-.976,1.079-1.249,1.022-.659,2.646-.727,3.804-.5.556.114,1.181.352,1.487.863.079.125.091.227.057.375-.091.136-.159.17-.307.238-.114.125-.125.136-.148.295-1.919-.443-3.622-.409-5.461.363l-.352-.216v-.023Z"/>
  <path class="st11" d="M30.39,23.72c.443-.102.806-.443,1.192-.67.534-.318,1.283-.511,1.908-.556,1.011-.079,2.066.125,2.85.783-.114.125-.125.136-.148.295-1.919-.443-3.622-.409-5.461.363l-.352-.216h.011Z"/>
  <path class="st2" d="M43.073,23.005c-.023.011-.034.023-.057.034-.125.091-.261.193-.431.17-.148-.011-.17-.068-.25-.182-.023-.193.045-.329.17-.477.511-.636,1.578-.886,2.362-.942.942-.068,1.896.148,2.634.749.125.102.25.273.261.431,0,.091-.011.182-.034.261-.045.159-.102.273-.057.431.148.079.307.057.477.045l-.045.159c-.318,0-.772-.17-1.101-.238-1.283-.238-2.555-.182-3.792.227-.023-.238-.057-.466-.136-.693v.023Z"/>
  <path class="st11" d="M43.073,23.005c.886-.545,1.93-.783,2.963-.545.522.114,1.306.738,1.442.749,0,0,.125-.057.136-.057.034-.023.091-.057.125-.091-.045.159-.102.273-.057.431.148.079.307.057.477.045l-.045.159c-.318,0-.772-.17-1.101-.238-1.283-.238-2.555-.182-3.792.227-.023-.238-.057-.466-.136-.693l-.011.011Z"/>
  <path class="st10" d="M35.227,73.736c.204,0,.443.045.59.193.114.102.125.148.136.295-.079.159-.182.193-.341.261-.227.034-.363.045-.579-.023q-.114-.114-.136-.273c.068-.204.182-.307.318-.454h.011Z"/>
  <path class="st10" d="M34.296,71.976c.091,0,.216,0,.295.034.148.057.17.102.227.227,0,.193-.091.295-.204.443-.136,0-.261-.011-.397-.034-.125-.102-.125-.091-.159-.25.045-.182.125-.284.238-.42h0Z"/>
  <path class="st10" d="M41.869,72.794c.159,0,.363-.034.511.011.125.045.136.068.193.182-.034.17-.102.238-.216.363-.114.034-.261.068-.386.034-.148-.034-.182-.091-.25-.216,0-.182.045-.238.148-.375h0Z"/>
  <path class="st10" d="M38.769,72.987c.159,0,.352-.023.5.057.079.045.068.091.091.17-.034.193-.125.295-.238.443h-.216c-.114-.068-.227-.102-.261-.25-.057-.193.034-.284.125-.431v.011Z"/>
  <path class="st10" d="M31.514,72.453c.068,0,.148-.011.216-.023.17,0,.261,0,.397.114.023.193-.079.329-.159.5-.091,0-.182.011-.273,0-.159-.034-.227-.102-.318-.227,0-.182.034-.216.125-.363h.011Z"/>
  <path class="st10" d="M50.033,71.783h.238s.023,0,.034.011c0,0,.023,0,.034.011,0,0,.023,0,.034.023,0,0,.023.011.023.023,0,0,.023.011.023.023l.023.023s.011.023.023.023c0,0,.011.023.023.034,0,0,0,.023.011.034,0,0,0,.023.011.034v.238s0,.023-.011.034c0,0,0,.023-.023.034,0,0-.011.023-.023.023,0,0-.011.023-.023.023l-.023.023s-.023.011-.023.023c0,0-.023.011-.034.023,0,0-.023,0-.034.011-.011,0-.034,0-.045.011h-.182c-.011,0-.034,0-.045-.011-.011,0-.023-.011-.045-.023-.011,0-.023-.011-.034-.023-.011,0-.023-.023-.034-.034l-.034-.034c0-.011-.023-.023-.023-.034s-.011-.023-.023-.045c0-.011,0-.034-.011-.045v-.182c0-.011,0-.034.011-.045,0-.011.011-.023.023-.045,0-.011.011-.023.023-.034,0-.011.023-.023.034-.034l.034-.034c.011,0,.023-.023.034-.023s.023-.011.045-.023l-.011-.011Z"/>
  <path class="st10" d="M43.504,70.966h.136c.204,0,.363,0,.511.148,0,.193-.057.25-.159.42-.102,0-.204.023-.307.011-.136-.011-.204-.079-.295-.182-.023-.182,0-.238.091-.386l.023-.011Z"/>
  <path class="st10" d="M52.928,71.431c.068.011.159.023.227.057.136.057.148.068.193.204-.068.17-.193.261-.329.375-.091-.045-.193-.091-.273-.148-.114-.079-.17-.148-.193-.284.114-.148.204-.148.386-.193l-.011-.011Z"/>
  <path class="st10" d="M44.799,72.794c.011,0,.023-.011.045-.023.011,0,.034,0,.045-.011h.182c.011,0,.034,0,.045.011.011,0,.023.011.045.023.011,0,.023.023.034.023s.023.023.034.034c0,.011.023.023.023.034s.011.023.023.045c0,.011.011.023.011.045v.182c0,.011,0,.034-.011.045,0,.011-.011.023-.023.045,0,.011-.011.023-.023.034,0,.011-.023.023-.034.034l-.034.034c-.011,0-.023.011-.034.023-.011,0-.023.011-.045.023h-.261s-.023,0-.023-.011c0,0-.023,0-.023-.011l-.023-.023-.023-.023-.023-.023-.023-.023s0-.011-.011-.023c0,0,0-.023-.011-.023s0-.023-.011-.023v-.261s0-.023.011-.023c0,0,0-.023.011-.023,0,0,0-.011.023-.023l.023-.023.023-.023.023-.023s.011-.011.023-.011l.011-.011Z"/>
  <path class="st10" d="M47.671,72.135h.261s.023,0,.023.011c0,0,.023,0,.023.011,0,0,.011,0,.023.023s.011.011.023.023l.023.023.023.023s.011.011.011.023c0,0,0,.023.011.023,0,0,0,.023.011.023v.261s0,.023-.011.023c0,0,0,.023-.011.023,0,0,0,.011-.023.023l-.023.023-.023.023-.023.023s-.011.011-.023.011-.023.011-.045.023c-.011,0-.023,0-.045.011s-.034,0-.045,0h-.136c-.011,0-.034,0-.045-.011-.011,0-.023-.011-.034-.023-.011,0-.023-.011-.034-.023-.011,0-.023-.023-.034-.034,0,0-.023-.023-.023-.034s-.011-.023-.023-.034c0-.011-.011-.023-.023-.045v-.182c0-.011,0-.034.011-.045,0-.011.011-.023.023-.045,0-.011.011-.023.023-.034,0-.011.023-.023.034-.034l.034-.034c.011,0,.023-.011.034-.023.011,0,.023-.011.045-.023h-.011Z"/>
  <path class="st10" d="M36.703,71.965s.011,0,.023-.011c0,0,.023,0,.023-.011h.261s.023,0,.023.011c0,0,.023,0,.023.011,0,0,.023,0,.023.011,0,0,.011.011.023.023,0,0,.011.011.023.023,0,0,.011.011.023.023,0,0,.011.011.023.023,0,0,0,.023.011.023,0,0,0,.023.011.023v.272s0,.023-.011.023c0,0,0,.023-.011.023,0,0-.011.011-.023.023,0,0-.011.011-.023.023,0,0-.011.011-.023.023,0,0-.023.023-.034.023s-.023.011-.034.023c-.011,0-.023,0-.045.011h-.182c-.011,0-.023,0-.045-.011s-.023-.011-.034-.023c-.011,0-.023-.011-.034-.023-.011,0-.023-.023-.034-.023l-.034-.034c0-.011-.011-.023-.023-.034,0-.011-.011-.023-.023-.034,0-.011,0-.023-.011-.045v-.182c0-.011,0-.023.011-.045,0-.011.011-.023.023-.034,0-.011.011-.023.023-.034l.034-.034s.023-.023.034-.023l.011-.011Z"/>
  <path class="st10" d="M46.854,70.852c.204,0,.42-.023.59.114,0,.148-.034.159-.125.284-.045.023-.125.057-.182.057-.148.023-.193,0-.307-.068-.045-.182-.023-.227.023-.397v.011Z"/>
  <path class="st4" d="M39.905,87.237h.057l.034.057-.942,7.676c-.136,1.067-.182,2.418-.534,3.429-.284.238-.602.397-.942.534-2.373.92-6.12.829-8.436-.204-.341-.182-.613-.409-.886-.681,0-3.247.307-6.551.454-9.81,3.736-.25,7.46-.693,11.195-.999Z"/>
  <path class="st4" d="M56.494,85.647l.159-.023.079.068c-.079.988-.295,1.987-.431,2.975-.363,2.532-.704,5.075-1.033,7.619-.273.329-.488.5-.886.67-2.339.976-5.836.636-8.13-.318-.443-.182-.84-.443-1.226-.715.068-1.499.329-3.032.5-4.53.182-1.59.284-3.236.624-4.803,1.26-.182,2.555-.25,3.815-.363,2.18-.204,4.349-.397,6.529-.579h0Z"/>
  <path class="st1" d="M53.655,55.876c.273-.034.466-.023.704.136,1.192.783,2.101,2.475,2.373,3.838.397,1.976.045,3.713-1.079,5.393-.738,1.101-3.145,3.974-4.428,4.178-.17.023-.273,0-.409-.091-.386-.931,1.896-2.055,2.032-2.975.023-.114,0-.227-.102-.295-.102-.079-.227-.091-.352-.045-.67.227-2.475,3.27-3.486,3.577-.273.079-.602.148-.863,0l-.045-.148c.216-1.079,2.191-3.111,2.929-4.008.159-.193.227-.261.204-.522-.091-.114-.114-.114-.261-.159-.761.193-2.225,2.101-2.702,2.77-.431.602-.818,1.317-1.351,1.828-.17.17-.477.375-.738.341-.238-.034-.341-.261-.454-.443.011-.318.182-.613.318-.886.17-.363.363-.715.568-1.056s.431-.681.67-.999c.273-.363,1.59-1.726,1.612-2.101,0-.148,0-.193-.102-.284-.761-.057-2.532,2.441-2.941,3.1-.352.579-.477,1.204-1.045,1.646-.182.136-.341.227-.579.204-.159-.102-.227-.204-.25-.386-.17-.92.931-2.623,1.465-3.338,1.26-1.703,3.849-4.542,5.779-5.371.568-.238,1.09-.273,1.68-.375.182-.034.307-.057.42-.204-.011-.068-.011-.091-.057-.159-.091-.193-.295-.329-.5-.375-1.34-.273-3.395,1.34-4.417,2.055-.114-.545-.329-1.033-.477-1.567.034-.114.068-.216.125-.318.193-.307.534-.556.818-.772,1.487-1.147,3.077-1.76,4.882-2.214l.057.023Z"/>
  <path class="st5" d="M28.63,99.442c2.191.738,4.61,1.158,6.926.783.613-.102,1.794-.613,2.339-.5.42.091.647.897.818,1.249-1.09-.216-1.919-.375-2.998.023-.67.25-1.646.852-1.908,1.544-.057.136-.045.193.011.329.182.057.295.045.466-.023.307-.136.568-.397.84-.59.749-.556,1.749-.761,2.668-.772.386,0,.772.057,1.124.204.874.363,2.464,1.556,3.157,2.237.693.636,1.612,1.715,1.737,2.691.034.238-.023.42-.182.59-.806.92-3.293,1.283-4.44,1.34-2.01.114-5.075-.522-6.756-1.624-.749-.488-1.363-1.158-2.066-1.703-.92-.727-1.873-1.419-2.748-2.203.068-1.067.659-2.532.988-3.554l.023-.023Z"/>
  <path class="st5" d="M45.298,97.047c2.01,1.192,4.871,1.521,7.142,1.181.534-.079,1.726-.488,2.191-.341.148.045.204.102.284.227.011.17.034.307.091.466l.023.045c-.318.125-1.794.17-2.396.352-.42.125-1.204.738-1.397,1.135-.057.125-.057.193,0,.318.102.068.284.136.409.114.307-.068.67-.522.942-.704.534-.352,1.612-.477,2.237-.5.238,0,.5-.023.715.057.386.136.772.477,1.135.681,1.079.613,2.123,1.101,3.054,1.953.636.636.976,1.374,1.26,2.214-.488.238-.954.511-1.453.704-1.715.67-3.86.92-5.666.545-.931-.193-1.908-.477-2.782-.829-.954-.386-1.817-.942-2.725-1.419-.999-.522-2.101-.954-2.998-1.635-.386-.295-.681-.613-.942-1.022-.034-1.226.409-2.441.886-3.554l-.011.011Z"/>
  <path class="st1" d="M33.49,24.095h.091c1.045-.079,2.521.182,3.327.886.681.59.942,1.567.988,2.441.057,1.215-.352,2.532-1.192,3.429-.749.806-1.715,1.169-2.805,1.192-1.067-.011-1.998-.159-2.873-.818-.886-.67-1.442-1.658-1.59-2.748-.125-.897-.057-2.169.534-2.907.818-1.033,2.282-1.351,3.52-1.476h0Z"/>
  <path class="st2" d="M33.637,27.206c.238-.011.477-.023.727,0,.602.034,1.272.216,1.669.693.148.17.307.454.25.693-.034.148-.102.17-.227.238-.5,0-.795-.522-1.294-.681l-.079-.023c-1.987-.341-1.453.715-2.487.749-.136-.068-.182-.114-.25-.25-.023-.204.011-.341.125-.511.375-.568.908-.772,1.556-.908h.011Z"/>
  <path class="st0" d="M22.169,88.134c.818.284,1.578.409,2.441.477-.079,1.692-.273,3.384-.443,5.064l-.67,7.074c-.363,3.758-.613,7.607-1.09,11.343-.068.114-.136.227-.238.318-.204.182-.466.25-.727.227-.273-.023-.602-.079-.772-.307-.148-.193-.182-.477-.17-.704,0-.624.091-1.26.136-1.896l.273-3.781.545-7.71.454-6.71c.079-1.124.114-2.271.261-3.384v-.011Z"/>
  <path class="st1" d="M44.14,31.475c-.182-.352-.375-.704-.602-1.022-.522-.704-1.226-1.351-1.521-2.203-.284-.806-.227-1.851.17-2.6.341-.636.92-1.033,1.601-1.249,1.397-.443,3.361-.318,4.667.363.602.307,1.011.67,1.226,1.328.363,1.147.193,2.759-.386,3.815-.136.238-.284.454-.488.647-.352.454-.954.806-1.487,1.011-1.056.409-2.146.375-3.179-.091h0Z"/>
  <path class="st9" d="M48.807,30.544c-.307-.772-.59-5.132-.363-5.791.602.307,1.011.67,1.226,1.328.363,1.147.193,2.759-.386,3.815-.136.238-.284.454-.488.647h.011Z"/>
  <path class="st2" d="M44.526,27.149c.659-.057,1.351-.045,1.93.318.273.17.579.477.624.806.023.159-.011.227-.102.363-.511.261-.772-.443-1.385-.613l-.068-.023c-1.328-.091-.999.057-2.055.636-.159.091-.273.114-.454.068l-.068-.114c-.023-.284.023-.556.204-.783.329-.42.863-.579,1.374-.659h0Z"/>
  <path class="st0" d="M71.845,84.159h.148c.034.045.034.057.057.102.136.443.193,2.714.238,3.338l.818,10.798c.091,1.192.806,8.357.511,8.811-.114.17-.273.273-.454.329-.375.102-.681.068-1.011-.114-.125-.204-.17-.386-.204-.624-.159-1.226-.227-2.487-.329-3.713l-.568-6.903c-.307-3.929-.727-7.857-.976-11.797.602-.057,1.192-.125,1.783-.216l-.011-.011Z"/>
  <path class="st0" d="M7.307,77.699c.647.329,1.283.852,1.873,1.26-.273,1.805-.397,3.633-.602,5.45-.466,4.269-.954,8.527-1.487,12.785-.125,1.056-.227,3.633-.556,4.44-.261.25-.579.431-.954.409-.182,0-.341-.091-.454-.227-.17-.227-.136-.534-.125-.795.057-1.385.261-2.793.409-4.167l.579-5.961.852-8.516c.148-1.544.25-3.111.454-4.655l.011-.023Z"/>
  <path class="st4" d="M11.349,46.804l.17-.023c.023.023.045.034.057.057.011.068-.443.976-.5,1.113-.988,2.225-3.384,8.89-3.032,11.07.182.204.42.341.613.534.102.114.148.182.148.329-.17.261-.556.329-.84.409-.341,0-.783-.102-1.056-.318-.17-.136-.193-.273-.204-.477-.136-1.476-.023-3.043-.034-4.53v-3.486c0-.965-.034-1.964.114-2.918.057-.341.182-.693.409-.954.704-.795,3.111-.761,4.156-.829v.023Z"/>
  <path class="st11" d="M36.748,34.087c.204.068.443.284.624.397.579.386,1.181.624,1.862.749,1.499.273,2.975.125,4.247-.749.42.148.852.329,1.226.545.454.261,1.135.818,1.26,1.351.045.216.102.522-.034.715-.045.068-.114.079-.193.079-.386.023-.704-.329-.999-.545-.25-.182-.443-.284-.749-.227-.148.216-.011.511,0,.761,0,.148-.034.307-.148.409-.738.659-1.408-.602-2.089-.613-.17.159-.159.397-.261.613-.079.182-.216.295-.409.352-.488.148-.693-.295-1.079-.454-.159-.068-.284-.057-.431,0-.034.011-.068.034-.102.045-.079.057-.148.102-.227.148-.227.136-.534.307-.806.238-.273-.341.045-.806-.023-1.204-.068-.011-.136-.057-.204-.045-.284.034-1.067.704-1.442.852-.352.136-.693.182-1.045.023-.261-.352.318-.727.329-1.101l-.079-.079c-.749-.17-1.079.704-1.726.908-.216.068-.397.045-.602-.045-.068-.091-.125-.125-.148-.238-.057-.295.148-.488.295-.715,0-.148.011-.17-.068-.295-.738-.284-1.646,1.045-2.475.92-.091-.102-.102-.114-.136-.25l.034-.102-.034.045c.023-.125.091-.25.17-.352.693-.908,2.805-1.635,3.895-1.896.5-.114,1.033-.159,1.533-.227l.034-.011Z"/>
  <path class="st4" d="M12.268,45.101c.136-.011.273-.057.397.023-.045.295-.488.624-.704.818-1.408.227-4.065-.102-5.098.954-.409.42-.761,1.022-.874,1.601-.193.965-.068,2.884-.068,3.929,0,2.418-.034,4.848.023,7.267-.238-.114-.466-.25-.693-.386-.034-.023-.068-.045-.091-.068-.431-.341-.681-.772-.749-1.317-.193-1.578-.102-3.27-.114-4.871-.023-1.317-.023-2.646,0-3.963.011-.545,0-1.135.091-1.669.011-.079.034-.159.057-.227.023-.079.057-.148.079-.216.034-.068.068-.136.114-.204.045-.068.091-.125.136-.193.273-.341.636-.556,1.045-.715,1.499-.556,4.746-.602,6.449-.738v-.023Z"/>
  <path class="st5" d="M27.517,103.814c.341.25.636.602.965.886.5.431,1.045.806,1.533,1.238.397.352.738.772,1.158,1.113.988.818,2.441,1.351,3.656,1.703,3.667,1.056,6.109.783,9.413-1.056-.148.318-.227.659-.307.999-.193.204-.386.386-.636.545-1.976,1.26-4.826,1.419-7.051.908-2.044-.466-4.485-1.169-5.677-3.066-.25-.136-.454-.273-.738-.318-.227-.034-.466-.079-.67-.17-.761-.341-1.453-1.26-1.726-2.021.011-.057.034-.114.045-.17.057-.227.102-.352.045-.59h-.011Z"/>
  <path class="st5" d="M44.083,101.543c.409.227.727.636,1.124.897.727.477,1.578.874,2.339,1.306,3.202,1.771,5.995,3.077,9.776,2.577.42-.057.829-.125,1.238-.238.409-.102.806-.238,1.192-.386.431-.17.886-.59,1.363-.534.068.057.125.079.125.17.023.238-.114.454-.261.636-.397.273-.852.5-1.294.693-2.907,1.249-6.143.999-8.947-.397-.783-.386-1.499-1.011-2.305-1.317-.011,0-.034-.011-.045-.023l-.647.159c-.988-.488-2.032-.954-2.861-1.692-.636-.568-.727-1.033-.783-1.839l-.011-.011Z"/>
  <path class="st1" d="M29.709,43.647c.443.045.976.386,1.408.556.5.204,1.011.341,1.51.556.545.238,1.056.522,1.601.772,1.317.59,2.714.818,4.144.738-.341.704-.749,1.34-1.238,1.964-.386.477-.795.931-1.26,1.328-1.079-1.283-2.191-2.509-3.44-3.645-.863-.783-1.817-1.521-2.725-2.26v-.011Z"/>
  <path class="st0" d="M8.953,60.985h.023c.136.193.125,1.544.193,1.919.136.727.409,1.431.704,2.112h-.125c-.556,0-1.101.091-1.646.148l-.976.023c-.011-1.397,0-2.782.057-4.178.67.136,1.135.136,1.783-.034l-.011.011Z"/>
  <path class="st8" d="M43.413,43.647c.59.738,1.135,3.838,1.113,4.803-.636-.375-1.238-.84-1.862-1.249-.806-.5-1.68-.829-2.521-1.294,1.363-.431,2.328-1.204,3.27-2.271v.011Z"/>
  <path class="st4" d="M44.799,63.722c.17-.023.318-.023.488,0v.091-.091l-.079.023.079.068c-.148.273-.749,1.215-.965,1.397-.25.216-3.645.727-4.065.647-.159-.034-.238-.227-.318-.352-.284-.454-.59-.874-.942-1.26,1.942-.068,3.895-.307,5.825-.511l-.023-.011Z"/>
  <path class="st4" d="M33.478,57.897c.011,0,.034,0,.045.011.261.136,2.021,3.611,2.214,4.099-.409-.102-.795-.238-1.192-.375-.284-.091-.613-.148-.908-.216-.522-.931-1.079-1.851-1.624-2.77.443-.307.965-.534,1.453-.749h.011Z"/>
  <path class="st7" d="M31.094,54.059c.057,0,.125,0,.182.023.454.216.783,1.204.976,1.658-.454.182-.874.397-1.283.67-.079.034-.125.057-.204.079-.307-.238-.681-.942-.761-1.317-.045-.227-.023-.443.102-.636.216-.318.636-.386.988-.466v-.011Z"/>
  <path class="st11" d="M20.432,33.928c.636.125,1.192.125,1.817-.011.136.715.238,1.419.42,2.123l-.034.034c-.091.023-.136,0-.238-.023-.772-.295-1.635-1.385-1.976-2.112l.011-.011Z"/>
  <path class="st1" d="M40.234,68.82h.045c.216.25.534,1.68.636,2.089-.261-.102-.511-.227-.761-.363-.318-.204-.624-.443-.931-.659,0-.273-.023-.545-.034-.829.363-.057.704-.125,1.045-.25v.011Z"/>
  <path class="st4" d="M32.718,56.353c.216.261.341.624.488.931-.511.25-1.022.488-1.556.704-.193-.273-.375-.556-.545-.84.522-.284,1.079-.534,1.612-.783v-.011Z"/>
  <path class="st11" d="M22.238,26.093c.409.102.852.148,1.283.216-.114.431-.182.874-.25,1.317,0,.045-.045.125-.068.17l-.136.045c-.443-.227-.659-1.294-.829-1.749h0Z"/>
</svg>