<?xml version="1.0" encoding="UTF-8"?>
<svg id="Layer_1" xmlns="http://www.w3.org/2000/svg" width="80" height="115" xmlns:xlink="http://www.w3.org/1999/xlink" version="1.1" viewBox="0 0 80 115">
  <!-- Generator: Adobe Illustrator 30.1.0, SVG Export Plug-In . SVG Version: 2.1.1 Build 136)  -->
  <defs>
    <style>
      .st0 {
        fill: #5c3a1f;
      }

      .st1 {
        fill: #fdfdfb;
      }

      .st2 {
        fill: #ebc38b;
      }

      .st3 {
        fill: url(#linear-gradient1);
      }

      .st4 {
        fill: #d60000;
      }

      .st5 {
        fill: #f5efe4;
      }

      .st6 {
        fill: #4c250c;
      }

      .st7 {
        fill: #fdfdfb;
      }

      .st8 {
        fill: #7a7a7a;
      }

      .st9 {
        fill: #d1bdb1;
      }

      .st10 {
        fill: #fbf2ae;
      }

      .st11 {
        fill: url(#linear-gradient);
      }

      .st12 {
        fill: #5aba47;
      }

      .st13 {
        fill: #421e08;
      }

      .st14 {
        fill: #d2644d;
      }

      .st15 {
        fill: #2f6125;
      }

      .st16 {
        fill: #391907;
      }

      .st17 {
        fill: #1a373a;
      }

      .st18 {
        fill: #fbf2ae;
      }

      .st19 {
        fill: #f6e089;
      }

      .st20 {
        fill: #532a0b;
      }

      .st21 {
        fill: #d9b663;
      }

      .st22 {
        fill: #de953c;
      }

      .st23 {
        fill: #fad5ac;
      }

      .st24 {
        fill: #50280d;
      }

      .st25 {
        fill: #50280d;
      }

      .st26 {
        fill: #f8efaa;
      }

      .st27 {
        fill: #f1d87b;
      }

      .st28 {
        fill: #e0e0e0;
      }

      .st29 {
        fill: #f1d87b;
      }
    </style>
    <linearGradient id="linear-gradient" x1="9.27" y1="106.48" x2="10.62" y2="106.87" gradientTransform="translate(16.62 315.46) scale(2.85 -2.85)" gradientUnits="userSpaceOnUse">
      <stop offset="0" stop-color="#3c2008"/>
      <stop offset="1" stop-color="#63320e"/>
    </linearGradient>
    <linearGradient id="linear-gradient1" x1="5.71" y1="102.52" x2="5.49" y2="102.15" gradientTransform="translate(16.62 315.46) scale(2.85 -2.85)" gradientUnits="userSpaceOnUse">
      <stop offset="0" stop-color="#371703"/>
      <stop offset="1" stop-color="#582e12"/>
    </linearGradient>
  </defs>
  <path class="st6" d="M34.64,3.39c8.28-2.47,17.59,2.87,19.3,13.04.38,2.29.4,4.57.21,6.89-.05,2.96,1.36,5.32.38,8.29-.5,2.48-3.49,4.15-3.71,6.57.6,2.63,1.39,4.39-.65,6.64,1.31,2.14,2.82,4.5,3.86,6.79.55,1.12.86,2.4.66,3.66,3.2.25,4.39,1.72,6.99,3.39,3.01,2.08,8.37,4.78,10.9,7.31.54.72.42,2.9.35,3.87-.04,1.55-1.6,2.25-2.88,2.44-.18,2.14.21,4.92-1.3,6.57.55,8.37.77,17.5,1.16,25.89.44,2.28-3.62,2.65-3.83.44-.16-3.8-.39-7.62-.43-11.42-.3-3.64-.17-9.89-.92-13.64-3.51.22-6.9.6-10.41.87-.13,3.23-.28,12.05-.42,15.14-.18,1.66-2.91,1.8-3.63.56-.13-.23-.18-.44-.18-.71-.08-4.81.34-9.72.22-14.5-.19-.14-.77-.03-.99,0-1.5,3.42-3.77,6.46-5.89,9.51,1.07,3.69,2.25,7.42,4.48,10.56.82,1.26,1.68,3.04,2.5,4.18,1.23,1.32,2.9,1.99,3.75,3.84.91,3.44-5.31,2.69-7.19,2.26-1.76-.43-2.26-.78-3.24-2.49-.17.4-.42.7-.77.77-1.4.3-2.18.02-2.36-1.7-.52-3.24-2.33-5.44-.37-8.63-.26-.48-1.25-2.62-1.51-2.74-.72.4-.79,2.09-.9,2.92-.13,1.25-.56,3.56-.63,4.77.09,1.91,1.12,3.93.05,5.7-2.31,2.19-6.32-2.41-7.25-4.63-.43-1-.13-2.2.17-3.18-.63.62-.99.97-1.81.39-.45-.26-.99-1.13-.63-1.75,1.75-2.93,1.96-6.77,5.95-7.34.26-.34,1.12-1.93,1.32-2.36-1.77-2.55-3.14-5.42-3.82-8.49-1.55.05-3.3.25-4.84.46-.23.03-.66.27-.89.39.01,5.39-.01,10.91-.05,16.3-.05,3.29.33,7.1,0,10.32-.66,1.45-4.03,1.68-3.98-.87-.06-4.36-.15-8.79-.12-13.16,0-4.39-.02-8.89.27-13.26-.85-.1-1.68-.04-2.48-.44-1.78-.58-4.63-3.5-6.08-4.83-.6,5.83-1.03,12.48-1.61,18.3-.11,1.03-.01,2.36-.97,2.82-1.27.39-3.36.11-3.03-1.71.36-4.65,1.1-12.26,1.5-16.93.23-2.88.23-5.66,1.22-8.45-.91-1.62-.21-4.53-.59-6.34-.63-.9-1.73-1.14-1.89-2.5-.37-3.19-.32-4.25,2.53-4.9-.02-.82.02-2.73-.06-3.45-1.77-.91-3.15-.76-3-4.54-.28-12.83-.88-12.31,12.06-13.02.15-.58.29-.92.54-1.44.06.4.05.66.16,1.05.04-.13.04-.21.14-.29.19-.01.13-.01.33.16.26-.71.63-1.29.93-1.97-.18-.12-.07-.6-.11-.84-.06-.38.07-.55-.24-.73.29-1.41-.01-2.72-.29-4.11-1.46-4.77-.94-9.73.85-14.25,1.66-4.03,5.03-8.47,9.7-8.63.95-1.21,2.04-2.33,3.46-2.81Z"/>
  <path class="st29" d="M34.64,3.39c8.28-2.47,17.59,2.87,19.3,13.04.38,2.29.4,4.57.21,6.89-.05,2.96,1.36,5.32.38,8.29-.5,2.48-3.49,4.15-3.71,6.57.6,2.63,1.39,4.39-.65,6.64,1.31,2.14,2.82,4.5,3.86,6.79-.13.47.15,1.59.02,2.14-.02.1,0,.27.02.38l-.03.05c-.16-.41-.08-.61-.28-1.03h-.05s-.04.08-.04.08c-.86-2.53-2.81-5.44-4.11-7.78-.24.23-.5.48-.74.72-.07-.53.12-.36-.29-.79-.55.63-.9,1.23-1.14,2.04-.02-.8.03-1.02.22-1.79l.15-.48c.52-.9.71-2.49.32-3.5-.04-.21-.52-.97-.66-1.13-.74-1.15-.61-2.53-.27-3.79.08-.27.16-.44.26-.7.88-.98,2.98-3.87,2.72-5.4l.05-.05.07.06c.44,1.45.54,1.74.46,3.29,2.13-2.85-.07-4.96-1.09-7.65-.88-2.32-.67-4.66-.63-6.91l.02-.03c.05-2.58-.29-5.41-1.96-7.46l-.09.29c-.24.07-.25.06-.49,0l-.08.04c.09.13.21.29.27.44l-.03.08v.16s.04.17.04.17c.23.11.21.12.34.37v.09c-.29,0-.33-.15-.64-.1h-.17c-.55-.33-2.18-.41-2.81-.3-.31,0-1.12.24-1.4.12-2.53-1.07-5.03-1.74-7.73-.9.08.3.44.36.69.34v.06c-4.09,1.52-2.96,3.36-4.66,6.56-.24.01-.27-.08-.46-.29-.34.48-.63.85-1.04,1.24-.32.26-.82.52-.66,1.01l.06.05c-.28.88-.57,1.88-.71,2.82-.37-1.6-.75-2.97-2.27-3.28.61-.4,1.16-.92,1.62-1.5l-.11-.06c-.09-.27-.1-.28-.09-.56h-.05c-.38.4-.77.77-1.17,1.12-1.49,1.25-3,1.43-3.33,3.75-.27,1.83.29,3.6,1.46,4.89.61,2.5,1.68,4.46.91,7.07l-.04-.23c-.18-.11-.08.05-.36.14,0-.09,0-.05-.07-.14-.16.43-.32.87-.47,1.31-.73.27-2.67.92-3.25,1.28-.19-.18-.13-.09-.21-.37.32-.95.79-1.86,1.23-2.75-.18-.12-.07-.6-.11-.84-.06-.38.07-.55-.24-.73.29-1.41-.01-2.72-.29-4.11-1.46-4.77-.94-9.73.85-14.25,1.66-4.03,5.03-8.47,9.7-8.63.95-1.21,2.04-2.33,3.46-2.81Z"/>
  <path class="st25" d="M34.64,3.39c8.28-2.47,17.59,2.87,19.3,13.04.38,2.29.4,4.57.21,6.89-.05,2.96,1.36,5.32.38,8.29-.57.32-.48-.46-.7-.71.98-4.66-2.67-8.11-1.61-12.7.27,1.27.5,3.53.96,4.86.49-1.48.18-4.92-.09-6.55-.02.15,0,.08-.06.2-.23-.41-.24-1.34-.42-1.6-.08.39,0,.47-.17.91-.03-.69.08-.78-.22-1.5-.17-.42-.17-1.16-.18-1.63-2.41-6.42-9.95-10.56-16.57-8.86l.03-.11c-.16-.2-.63-.01-.89-.28l.07-.12-.05-.13Z"/>
  <path class="st13" d="M54.15,23.31c-.1.54-.05,1.47-.08,1.59-.17-.26-.33-7.74-.14-8.48.38,2.29.4,4.57.21,6.89Z"/>
  <path class="st19" d="M52.05,12.88c.46,1.15.81,2.37,1.04,3.62-.02.15,0,.08-.06.2-.23-.41-.24-1.34-.42-1.6-.08.39,0,.47-.17.91-.03-.69.08-.78-.22-1.5-.17-.42-.17-1.16-.18-1.63Z"/>
  <path class="st13" d="M54.56,26.84c.28,1.12.43,2.25.25,3.42-.35-.25-.24-3.16-.25-3.42Z"/>
  <path class="st10" d="M50.06,11.06c-.34-.73-1-1.6-1.54-2.15-.3-.31-.49-.34-.8-.74v-.09s.12-.04.12-.04c.65.15,1.24.91,1.73,1.25.19-.06.1,0,.26-.19.81,1.09,1.76,2.42,2.22,3.78.01.47.01,1.21.18,1.63.31.77.19,1.06.2,1.82-.17-1.76-.81-3.26-2.1-4.38.25.74,1.37,5.45.73,5.75-.24-.4-.39-2.5-.9-2.46l-.05.12c.06.85.46,1.63.48,2.7-.08,4.45-1.01,6.04,1.23,10.29h-.08c-3.19-3.31-1.71-8.62-2.47-12.69-.54-2.64-1.71-4.85-4.09-6.01,2.49.36,4.21,3.1,5.02,5.37l.07-.06c-.23-1.86-.98-3.55-1.98-5.04.9.38,1.07.8,1.77,1.14Z"/>
  <path class="st29" d="M41.88,9.23c2.02.1,3.9,1.01,5.17,2.64l-.09.29c-.24.07-.25.06-.49,0l-.08.04c.09.13.21.29.27.44l-.03.08v.16s.04.17.04.17c.23.11.21.12.34.37v.09c-.29,0-.33-.15-.64-.1h-.17c-.55-.33-2.18-.41-2.81-.3-.31,0-1.12.24-1.4.12-1.38-.59-2.57-.96-4.02-1.21.37-.36.68-.86,1.17-1.26l.06-.28c-.06-.22,0-.12-.21-.26.76-.66,1.91-.94,2.89-.96Z"/>
  <path class="st25" d="M41.88,9.23c1.44.12,2.77.46,3.92,1.42-.52.13-.29.4-.67.43-.76-.48-1.29-.74-2.13-1.01-1.09.31-1.46.46-2.32,1.3l-.09-.18c.04-.16.06-.17.02-.32.16-.14.27-.24.41-.4-.08-.2.13-.2.09-.43l-.2.04-.04-.1c-.56.04-1.25.4-1.71.76l.06-.28c-.06-.22,0-.12-.21-.26.76-.66,1.91-.94,2.89-.96Z"/>
  <path class="st10" d="M40.86,9.98c.38-.09.82-.07,1.21-.07-.4.18-.67.34-1.06.56-.08-.2.13-.2.09-.43l-.2.04-.04-.1Z"/>
  <path class="st13" d="M39.68,9.73l.38-.15c0,.18,0,.15-.03.33-.15.15-.07.12-.24.13l-.1-.09v-.22Z"/>
  <path class="st11" d="M45.8,10.65c.39.26.94.83,1.25,1.22l-.09.29c-.24.07-.25.06-.49,0l-.08.04c-.95-1.09-2.24-.88-3.36-.33-.1-.03-.06,0-.13-.1.09-.14.11-.16.13-.34.37-.25,1.47-.44,1.9-.33.13.03.09.04.2,0,.38-.03.15-.31.67-.43Z"/>
  <path class="st0" d="M43.82,12.7c1.16-.6,1.69-.45,2.84-.06l-.03.08v.16c-.96-.43-1.83-.12-2.81-.18Z"/>
  <path class="st20" d="M43.03,11.86c-.17.17-1.01.84-1.21.85l-.04-.08c.13-.57.82-1.01,1.25-1.2-.02.18-.04.2-.13.34.08.1.03.07.13.1Z"/>
  <path class="st0" d="M40.6,10.88c.04.15.02.16-.02.32l.09.18c-.14.2-.39.6-.56.67-.12-.3.13-.67.28-.93,0,0,.2-.24.2-.24Z"/>
  <path class="st10" d="M40.14,11.58c-.09-.2-.08-.44.09-.57l.17.11-.26.47Z"/>
  <path class="st25" d="M52.74,33.33c.51.14.33.41.35.95-.75,1.07-2.36,2.61-2.27,3.89.6,2.64,1.39,4.39-.65,6.64,1.31,2.14,2.82,4.5,3.86,6.79-.13.47.15,1.59.02,2.14-.02.1,0,.27.02.38l-.03.05c-.16-.41-.08-.61-.28-1.03h-.05s-.04.08-.04.08c-.86-2.53-2.81-5.44-4.11-7.78-.24.23-.5.48-.74.72-.07-.53.12-.36-.29-.79.51-.67,1.43-1.32,1.77-2.17-.07-.32.22-.72.28-1.03.09-.57-.36-1.43-.16-1.95-.11-.63-.37-1.16-.43-1.88-.16-1.96,1.2-2.8,2.05-4.1.27-.27.47-.7.71-.92Z"/>
  <path class="st16" d="M51.22,39.98c.36.97.38,2.07.05,3.06.02-.79-.02-2.24-.05-3.06Z"/>
  <path class="st26" d="M50.3,43.21c-.07-.32.22-.72.28-1.03.09-.57-.36-1.43-.16-1.95.28.92.47,2.17-.11,2.98Z"/>
  <path class="st25" d="M21.48,14.83c.22.47-.12.91.21,1.19.15.01.13.03.26-.02l.04.08c-1.23,3.61-1.77,7.5-.9,11.26l-.06.08-.1-.03c-.35.77-.13,1.1-.29,1.69-1.46-4.77-.94-9.73.85-14.25Z"/>
  <path class="st25" d="M31.18,6.2c.24-.3.56-.72.83-.96.64-.11.57.3.35.72l.03.06c-.21.3-.45.61-.65.91-2.67.12-4.84,1.43-6.55,3.46v-.21c-.16-.28-.27-.42-.53-.49,1.61-1.96,3.98-3.45,6.53-3.5Z"/>
  <path class="st13" d="M26.09,8.27c.02.37-.26.52-.51.76l.03.04c.2,0,.51-.04.7-.02l.04-.05.05.13c-.4.39-.87.83-1.23,1.26v-.21c-.16-.28-.27-.42-.53-.49.49-.55.89-.97,1.44-1.43Z"/>
  <path class="st21" d="M29.96,17.69c.2-.23.41-.45.6-.7-.2,1.32-.82,2.32-1.77,3.23-.32.26-.82.53-.66,1.01l.06.05c-.28.88-.57,1.88-.71,2.82-.37-1.6-.75-2.97-2.27-3.28.36-.23.67-.51,1-.8.73.69,3.31-.68,3.3-1.71l-.12-.12c.19-.13.4-.34.58-.5Z"/>
  <path class="st20" d="M28.17,20.76c-.08.3-.09.19-.04.47-.33.12-.72.32-1.06.22l.02-.07c.2-.16.8-.46,1.08-.62Z"/>
  <path class="st25" d="M30.53,14.47c1.06-.74,2.57-1.76,3.74-2.15.08.3.44.36.69.34v.06c-4.09,1.52-2.96,3.36-4.66,6.56-.24.01-.27-.08-.46-.29.41-.59.58-1.28.73-1.99-.26.33-.54.66-.86.93-.06-.17-.02-.29,0-.51,1.02-1.08,1.14-1.5,1.74-2.89-.14-.03-.2.04-.36.12-.35-.23-.26.03-.56-.19Z"/>
  <path class="st25" d="M24.65,9.7c.26.06.37.21.53.49v.21c-1.41,1.65-2.43,3.67-3.2,5.69l-.04-.08c-.13.05-.11.03-.26.02-.32-.28.02-.72-.21-1.19.63-1.82,1.96-3.73,3.17-5.13Z"/>
  <path class="st20" d="M21.95,13.77l.12.06c.11-.08.13-.13.2-.26-.02.13-.05.26-.06.39.13-.21.15-.31.2-.57.02.31.01.72.14.97v.12s.06.02.06.02c-.19.49-.43,1.11-.64,1.59l-.04-.08c-.13.05-.11.03-.26.02-.32-.28.02-.72-.21-1.19.09-.28.33-.82.47-1.07Z"/>
  <path class="st20" d="M21.08,27.35c.65,2.38,1.34,5.08.18,7.41-.18-.12-.07-.6-.11-.84-.06-.38.07-.55-.24-.73.02-.22.07-.48.1-.72.24-1.83-.82-3.24-.09-5.08l.1.03.06-.08Z"/>
  <path class="st13" d="M21.69,33.48c-.18-.53-.2-1.93-.19-2.56,0-.29.14-.64.09-.94l.09-.09c.26,1.17.33,2.41.01,3.58Z"/>
  <path class="st20" d="M22.9,27.67c.06.08.64.83.63.79.61,2.5,1.68,4.46.91,7.07l-.04-.23c-.18-.11-.08.05-.36.14,0-.09,0-.05-.07-.14.73-2.84-.41-4.93-1.06-7.63Z"/>
  <path class="st19" d="M37.43,3.68c1.23-.12,3.01.02,4.22.37-.49.3-5.85.38-6.18-.02.66-.18,1.28-.33,1.96-.35Z"/>
  <path class="st27" d="M36.9,3.73c.23-.06.29-.05.53-.05.56.11.98-.01,1.57.17-.61.12-1.16.17-1.77-.03h.11c-.2-.08-.23-.08-.44-.09Z"/>
  <path class="st6" d="M32,5.24c.83-.89,1.57-1.47,2.64-1.85l.05.13-.07.12c.26.26.73.08.89.28l-.03.11c-1.43.48-1.97.84-3.1,2l-.03-.06c.22-.43.3-.83-.35-.72Z"/>
  <path class="st13" d="M53.83,30.89c.22.25.12,1.03.7.71-.36,1.17-.74,1.74-1.43,2.68-.02-.54.16-.81-.35-.95l.04-.22c.38-.15.92-1.78,1.04-2.21Z"/>
  <path class="st13" d="M26.58,18.71c.69-.79,1.17-1.72,1.72-2.33-.31,1-.78,2.23-1.47,2.94l-.11-.06c-.09-.27-.1-.28-.09-.56h-.05Z"/>
  <path class="st20" d="M26.62,18.7c.23.07.19.02.32.2,0,.22-.07.26-.23.36-.09-.27-.1-.28-.09-.56Z"/>
  <path class="st19" d="M49.01,19.33l.06-.02c0,.49-.07,1.64.08,2.04.09.02.06.03.12,0-.01.54,0,2.36-.18,2.71-.31-2.05-.05-2.89-.09-4.69l.02-.03Z"/>
  <path class="st26" d="M20.97,26.82l.06-.23.05.03c.04.24.13.89.25,1.04,0-.19-.02-.2-.09-.39l.02-.15.05-.04c.32.69.19,1.85.44,2.52.15.42.34.94.11,1.36-.16-1.33-.61-2.83-.89-4.14Z"/>
  <path class="st19" d="M49.09,19.21c0-.75-.02-1.68,0-2.42.19.96.25,3.7.17,4.56-.06.04-.02.03-.12,0-.14-.45-.1-1.62-.06-2.15Z"/>
  <path class="st26" d="M49.09,19.21l.03-.37h0s.04-.08.04-.08c.07.76.06,2.1.11,2.59-.06.04-.02.03-.12,0-.14-.45-.1-1.62-.06-2.15Z"/>
  <path class="st19" d="M21.9,32.09l.1.05c.1,1.18-.26,1.65-.56,2.7-.07.23.05.88-.04,1.2l-.08.02c-.08-.27.09-.72-.3-.77.51-.99.83-2.07.88-3.19Z"/>
  <path class="st26" d="M20.97,19.97c.07-.57.39-1.97.59-2.48.06.32-.14,2.25-.18,2.71h-.03s-.04-.28-.04-.28l-.05.2-.1.04c-.18-.1-.13-.03-.2-.19Z"/>
  <path class="st0" d="M38.03,11.94c.02-.76.5-1.3.96-1.74.21.14.15.05.21.26l-.06.28c-.47.37-.75.88-1.12,1.19Z"/>
  <path class="st13" d="M28.96,15.67c.39-.35,1.14-.88,1.57-1.2.3.22.21-.04.56.19-.63.48-1.39.77-2.13,1.02Z"/>
  <path class="st19" d="M49.32,25.24l.1-.11c.04.15.07.29.14.42,0-.17-.04-.56.03-.66.34,1.15.11,1.76.96,3.07,0,.07-.02.15-.03.22-.53-.9-.95-1.93-1.19-2.95Z"/>
  <path class="st20" d="M29.38,18.19c-.27.17-.81.53-1.12.55.1-.25,1.16-1.03,1.44-1.32-.02.22-.07.34,0,.51-.12.11-.19.16-.32.26Z"/>
  <path class="st19" d="M41.88,9.23c-.13-.09-.59-.04-.77-.05.47-.39,2.45.1,2.99.39-.04.07-.02.05-.07.08-.87-.26-1.26-.34-2.15-.42Z"/>
  <path class="st19" d="M52.04,34.25c-.05-.12-.03-.05,0-.23l-.06-.03-.04.11-.07-.02c.36-1.11.33-.59.86-.98l.05.02-.04.22c-.24.22-.43.65-.71.92Z"/>
  <path class="st19" d="M31.09,14.65c.16-.08.22-.15.36-.12-.02.17-.05.18-.13.32-.32.05-.41.22-.74.15.17-.1.34-.23.51-.34Z"/>
  <path class="st19" d="M25.4,19.82c0-.1,0-.2,0-.3.16-.17.3-.29.51-.17-.18.19-.31.31-.5.47Z"/>
  <path class="st18" d="M24.72,11.76c.18-.76,1.57-1.7,2.13-2.01-.68.93-1.7,2.21-2.13,3.35,0,0,.02.11.02.11.22,0,.39-.28.56-.46.52-.53,1.11-.88,1.72-1.22-.29.66-.72,1.66-1.05,2.27.99-.72,1.64-.75,2.61-1.35-.74,1.13-1.93,2.83-2.46,4.04,1.18-.89,2.11-2.18,3.18-3.4-.54,1.52-3.34,5.16-4.83,5.4l-.03-.09c.38-.97,1.03-1.89,1.42-2.88-.51.29-1.04,1.12-1.6,1.56.09-1.02.35-1.91.59-2.88-.82.88-1.35,2.03-2.09,2.94.1-2.19.85-3.62,1.95-5.38Z"/>
  <path class="st26" d="M29.31,13.09c-.09.33-.51,1.16-.71,1.38.05-.16.08-.18.04-.34-.16.02-.24.14-.4.22.13-.24.77-.8,1.07-1.26Z"/>
  <path class="st26" d="M49.87,35.75l.09.06c0,.12-.44,1.03-.53,1.34-.91,1.96,1.46,4.22-.12,5.9.09-.92-.17-2.46-.58-3.23-.29-1.17-.05-3.39,1.14-4.07Z"/>
  <path class="st20" d="M31.68,7.69v-.11c.73-.28,1.91,1.03,2.38,1.3.16.24.94,1.3,1.15,1.41l.03-.02c.1.15.1.18.14.36-.2.01-.33.12-.46.3-.43-.61-.78-1.06-1.25-1.62-.42.12-1.21-.07-1.64-.19l.09-.05-.11-.14.11-.04v-.06s-.33-.18-.33-.18l-.27-.04.09-.06.03-.09c.08.03.04.03.11,0h-.08s.09-.02.09-.02c-.08-.02-.05,0-.11-.06.02-.2.02-.28.19-.34l.02.1-.13.09v.06c.23-.01.35-.01.55-.07-.18-.09-.41-.3-.58-.43l-.03-.11Z"/>
  <path class="st19" d="M31.68,7.69v-.11c.26-.21.98.23,1.24.42-.32.04-.18-.03-.45-.05.08.15.09.14.19.28l-.02.08c.35.33.71.65,1.03,1-.42.12-1.21-.07-1.64-.19l.09-.05-.11-.14.11-.04v-.06s-.33-.18-.33-.18l-.27-.04.09-.06.03-.09c.08.03.04.03.11,0h-.08s.09-.02.09-.02c-.08-.02-.05,0-.11-.06.02-.2.02-.28.19-.34l.02.1-.13.09v.06c.23-.01.35-.01.55-.07-.18-.09-.41-.3-.58-.43l-.03-.11Z"/>
  <path class="st0" d="M31.8,8.65c.51.04,1.48.31,1.88.65-.42.12-1.21-.07-1.64-.19l.09-.05-.11-.14.11-.04v-.06s-.33-.18-.33-.18Z"/>
  <path class="st0" d="M31.68,7.69v-.11c.26-.21.98.23,1.24.42-.32.04-.18-.03-.45-.05.08.15.09.14.19.28l-.02.08c-.34-.19-.58-.43-.96-.61Z"/>
  <path class="st13" d="M36.15,7.14c.16-.21.36-.37.55-.53.22.08.26.08.38.34-.8.71-1.12,1.22-1.34,2.2.24.32.01,1.14.12,1.51.13.46.41.41.19.98l-.06-.1c-.39.35-.81-.3-1.07-.62.13-.17.26-.29.46-.3-.5-1.11.03-2.68.76-3.47Z"/>
  <path class="st0" d="M36.15,7.14c.16-.21.36-.37.55-.53.22.08.26.08.38.34l-.09.1c-.37.27-.53.59-.73.74-.23.02-.19.04-.3-.07,0-.22.15-.31.19-.57Z"/>
  <path class="st0" d="M34.93,10.91c.13-.17.26-.29.46-.3l.23.33h.07s.01-.12.01-.12c.09.23.21.48.29.71-.39.35-.81-.3-1.07-.62Z"/>
  <path class="st19" d="M35.75,9.14c.24.32.01,1.14.12,1.51.13.46.41.41.19.98-.45-.77-.5-1.63-.31-2.49Z"/>
  <path class="st26" d="M22.93,32.77c-.05-.33-.2-1.47-.06-1.7l.1.1c.26-.47-.1-1.17.15-1.34.78,1.29.46,3.98-.2,5.28.06-.68.03-1.62.02-2.33Z"/>
  <path class="st18" d="M22.93,32.77c-.05-.33-.2-1.47-.06-1.7l.1.1c.26-.47-.1-1.17.15-1.34.55.59.52,3.16.27,3.9-.16-1.08.26-1.69-.17-3.21-.24,1.19-.23,1.01-.28,2.26Z"/>
  <path class="st18" d="M37.62,4.4c.66-.04.87-.03,1.51.15-1.6.35-2.86.78-3.98,2.16l-.05-.05c-.04-1.31,1.61-2.12,2.52-2.27Z"/>
  <path class="st20" d="M40.05,7.26c.53-.24,2.87-.69,3.22-.14-.14.1-.14.07-.32.07-1.5.16-2.72.22-3.96,1.29-.11-.26-.15-.21-.41-.32.46-.38.89-.72,1.46-.9Z"/>
  <path class="st13" d="M38.59,8.16c.3-.25.48-.39.8-.6l-.08.35.05.07h.27c-.22.17-.43.32-.64.5-.11-.26-.15-.21-.41-.32Z"/>
  <path class="st25" d="M37.94,8.87c.23-.26.41-.47.65-.71.26.11.3.07.41.32-.76.77-1.08,1.19-1.37,2.37-.39-.18-.31,0-.35-.54l.1-.39c-.04-.58.14-.86.56-1.05Z"/>
  <path class="st19" d="M37.38,9.92c-.04-.58.14-.86.56-1.05-.23.39-.37.63-.56,1.05Z"/>
  <path class="st20" d="M34.06,8.87c-.56-1.67.19-2.95,1.43-3.69-.47.75-1.14,1.72-1.22,2.7-.02.3.06.94-.1,1.06l-.06-.02-.05-.05Z"/>
  <path class="st6" d="M32.09,10.77c.97-.36,1.83-.43,2.73.15-.52.1-1.08,0-1.62.04l-.42.07c-.37-.09-.34.09-.7-.27Z"/>
  <path class="st0" d="M33.99,10.54c.38.12.48.17.83.37-.52.1-1.08,0-1.62.04l.03-.09s.8-.36.76-.33Z"/>
  <path class="st13" d="M31.52,8.61l.27.04.33.18v.06s-.12.04-.12.04l.11.14-.09.05c-.7-.05-1-.03-1.68.12l-.18-.05c-.1-.18-.09-.16-.26-.26.67-.26.9-.26,1.62-.32Z"/>
  <path class="st20" d="M30.2,12.45c.46-.83,1.12-1.35,1.89-1.68.36.36.33.18.7.27-1.26.44-1.47.62-2.58,1.42Z"/>
  <path class="st26" d="M48.13,37.36l.06.08c-.07.48.35,2,.05,2.16-.14-.17-.24-.35-.36-.54-.03-.64-.04-1.14.26-1.71Z"/>
  <path class="st20" d="M37.26,6.24c.29-.21,1.31-.59,1.63-.46-.32.29-1,.53-1.35.81-.18-.14-.19-.12-.27-.35Z"/>
  <path class="st20" d="M30.35,9.23c-.37.08-.9.3-1.23.31l-.05-.06c.21-.34.51-.42.84-.55.16.09.16.08.26.26l.18.05Z"/>
  <path class="st13" d="M37.49,11.93c-.31-.67-.29-.89-.21-1.62.03.55-.04.36.35.54-.07.37-.1.7-.14,1.08Z"/>
  <path class="st13" d="M37.26,6.24c.09.23.09.21.27.35l-.45.35c-.13-.26-.16-.26-.38-.34.16-.12.38-.25.56-.36Z"/>
  <path class="st19" d="M37.53,6.59l.42-.27c-.08.46-.59.7-.95.72.04-.08.46-.39.53-.45Z"/>
  <path class="st2" d="M34.27,12.31c2.69-.84,5.2-.17,7.73.9.28.12,1.08-.11,1.4-.12.63-.11,2.26-.03,2.81.29-.17.33-.16.28-.42.49.92.34,1.21.52,2.03,1.11.74,2.82.45,4.99.38,7.89-.61-.23-.74-.43-1.46-.55l-.09.04c-.77-.11-1.79.06-2.51.33-.44.2-.95.68-.29,1.08,1.48-.19,3.08-1.13,4.46,0,.32,1.37.4,1.84.04,3.14-.61,3.91-1.91,7.47-5.04,9.87-2.02,1.7-3.98,2.94-6.55,2.28-4.16-1.18-8.95-6.04-9.5-10.8-.4-.2-1.18.45-1.9.27-2.55-.5-3.8-5.92-.84-7.03,2.29-.56,2.41,4.18,3.27,3.81.22-.33.51-2.42.67-3.05h-.08c-.06.1-.09.17-.16.27-.11-.29-.06-.55-.17-.75.06-.19.1-.33.15-.52l-.06-.05c-.16-.48.33-.74.66-1.01.41-.4.7-.76,1.04-1.24.19.21.23.31.46.29,1.7-3.2.57-5.04,4.67-6.56v-.06c-.26.03-.62-.04-.7-.34Z"/>
  <path class="st1" d="M43.19,26.13c.3-.11.54-.35.8-.55,1.32-1.05,2.8-.46,3.37,1.17-.25.59-.92,1.65-1.63,1.51h-.09c-.6.39-1.3.26-1.79-.28-.49-.05-1.03-1.53-.67-1.85Z"/>
  <path class="st17" d="M44.37,27c.29.04.55.03.71-.3-.03-.33-.17-.4-.27-.76l.05-.09c.45-.1.92.11,1.14.51.43.59.09,1.39-.27,1.88h-.09c-.54.33-1.09.3-1.6-.1-.11-.45-.23-1,.33-1.15Z"/>
  <path class="st17" d="M45.61,25.96c.21.16.26.17.4.41l-.08.08-.2-.17c-.26.11-.19,1.8-.09,1.98-.18.12-.24.13-.44.18l-.11-.07c.93-.33-.17-1.83.52-2.4Z"/>
  <path class="st17" d="M44.05,26.38c.11.3.13.39.32.62-.56.15-.44.7-.33,1.15-.55-.49-.29-1.24.01-1.77Z"/>
  <path class="st20" d="M34.27,12.31c2.69-.84,5.2-.17,7.73.9.28.12,1.08-.11,1.4-.12.63-.11,2.26-.03,2.81.29-.17.33-.16.28-.42.49-1.48-.42-2.41-.12-3.85-.12-.33,0-1.18-.42-1.56-.54-1.76-.62-3.58-.95-5.39-.5v-.06c-.26.03-.62-.04-.7-.34Z"/>
  <path class="st0" d="M34.33,12.45c.35-.17.87-.24,1.24-.15l.05.05-.06.11c.11.09.17.07.33.08-.22.05-.72.18-.92.17v-.06c-.21.02-.49-.01-.64-.2Z"/>
  <path class="st6" d="M43.19,26.13c-.09-.04-.04-.01-.13-.11.55-2.05,3.61-2.32,4.55-.42-.12.04-.07.05-.16,0-.4.3-.12.36-.27.71-.79-1.44-1.98-1.6-3.18-.73-.27.19-.5.44-.8.55Z"/>
  <path class="st25" d="M28.17,20.76c.14-.17.45-.4.62-.53.12.1.21.16.35.21l.08.16c-.37.54-.54,1.04-.77,1.68h-.08c-.06.1-.09.17-.16.27-.11-.29-.06-.55-.17-.75.06-.19.1-.33.15-.52l-.06-.05c-.05-.28-.04-.18.04-.47Z"/>
  <path class="st20" d="M47.61,25.6c.37.39.41-.1.8.39-.2.48-.54.74-1.05.76-.07-.14-.13-.3-.19-.44.15-.35-.12-.41.27-.71.09.05.04.04.16,0Z"/>
  <path class="st16" d="M28.79,20.22c.41-.4.7-.76,1.04-1.24.19.21.23.31.46.29-.33.48-.7.91-1.08,1.33l-.08-.16c-.14-.06-.23-.12-.35-.21Z"/>
  <path class="st27" d="M47.95,22.51c0-.42.04-.94.03-1.32l.06,1,.07.06c.01-.48,0-1.14.04-1.59,0,.43-.02,1.73.05,2.07.03.09.03.04,0,.15-.61-.23-.74-.43-1.46-.55l-.05-.07c.25-.16.91.22,1.26.25Z"/>
  <path class="st27" d="M43.85,23.78c.45-.09,1-.06,1.44.04-.33.1-1.08.12-1.4.02l-.03-.05Z"/>
  <path class="st27" d="M48.41,25.99c.04.07.08.13.09.2l-.16.73c-.18-.14-.1-.2-.37-.35.23-.2.28-.29.43-.58Z"/>
  <path class="st1" d="M32.87,23.78c1.5-1.27,3.99-1.37,5.06.5.2.29.37.71.3,1.09-.03.02-.08.06-.11.07l.1.09c.05,1-1.26,2.13-2.03,2.07-.45-.04-1.15-.01-1.55-.28-.03-.07-.05-.08-.06-.16-.66-.4-1.71-1.08-1.7-2.1-.54-.16-1.05-.49-1.11-1.18l.06-.09c.28-.05.61.03.9.07l.15-.08Z"/>
  <path class="st6" d="M32.87,23.78c1.5-1.27,3.99-1.37,5.06.5-.29-.04-.26-.26-.74-.13l-.08.16c-1.34-1.13-3.27-.72-4.24.74-.54-.16-1.05-.49-1.11-1.18l.06-.09c.28-.05.61.03.9.07l.15-.08Z"/>
  <path class="st3" d="M31.78,24.05l-.02-.18.06-.09c.28-.05.61.03.9.07l.15-.08c.16.05.22.07.37.17-.09.11-.53.19-.68.23.17.12.34.24.45.45l.18.06c-.1.12-.21.27-.32.38-.52-.17-.89-.37-1.09-1Z"/>
  <path class="st6" d="M31.78,24.05l-.02-.18.06-.09c.28-.05.61.03.9.07-.27.05-.68.11-.94.19Z"/>
  <path class="st17" d="M34.92,27.15c-.41-.47-.69-1.12-.35-1.78.34-.15.73.97,1.28.18.06-.5-.26-.51-.26-.88.13-.11.49-.13.64-.08,1.82.74.68,3.6-1.31,2.55Z"/>
  <path class="st27" d="M38.03,25.46l.1-.03.1.09c.05,1-1.26,2.13-2.03,2.07-.45-.04-1.15-.01-1.55-.28-.03-.07-.05-.08-.06-.16.22.06.15.08.34,0,.41.2,1.03.28,1.46.13l.03.08c.63-.08,1.84-1.12,1.61-1.91Z"/>
  <path class="st25" d="M37.12,24.31l.08-.16c.48-.13.45.09.74.13.2.29.37.71.3,1.09-.06.05-.14.08-.21.1-.23-.17-.51-.77-.9-1.15Z"/>
  <path class="st6" d="M35.46,20.7c-.1-.07-.13-.07-.24-.07.18-.12,1.41-.01,1.66.05l.04.06c-.14.08-.16.09-.31.13.91.34,2.19.61,2.8,1.52.14.25-.16.67-.43.6-1.84-.69-3.51-1.81-5.59-1.32-.28.05-1.24.45-1.42.25.82-1.13,2.35-1.18,3.49-1.23Z"/>
  <path class="st27" d="M35.46,20.7c-.1-.07-.13-.07-.24-.07.18-.12,1.41-.01,1.66.05l.04.06c-.14.08-.16.09-.31.13-.44-.1-.71-.14-1.15-.18Z"/>
  <path class="st25" d="M34.93,33.3c-.28.08-.36.16-.58-.07-.06-.44.72-.99,1.08-.9.31.07.03.37.12.63.71.55,1.72,1.09,2.54,1.25.16-.16.59-.29.71-.06,0,.08,0,.15,0,.22.56.15,1.42.12,1.98.02.34-.06.8-.18,1.14-.13.09.13.07.06.06.23-2.01,1.52-5.22.36-7.04-1.2Z"/>
  <path class="st27" d="M38.09,34.21c.16-.16.59-.29.71-.06,0,.08,0,.15,0,.22-.24-.05-.46-.1-.7-.16Z"/>
  <path class="st25" d="M41.83,27.12c.23.23.24,1.17.42,1.6.19.56.65,1.01.86,1.55.37.94-.24,1.61-.91,1.91-.98.46-2.06.13-2.69-.7v-.06c.35-.17,1.4.49,2.16.23,2.11-.71-.85-2.34.17-4.54Z"/>
  <path class="st25" d="M25.45,23.01c.57.46,1.43,2.64.75,3.2-.2,0-.27-.16-.31-.39-.03-.15-.04-.29-.06-.44-.12-.2-.29-.34-.51-.17-.67.53,0,1.5-.02,1.78l-.1.05c-.91-.29-1.04-1.52-.29-2.26-.05-.19.05-.81.11-1.01l.19-.07-.21-.29c.16-.33.18-.3.45-.38Z"/>
  <path class="st13" d="M25.89,25.81c0-.26,0-.28.07-.52v.08s.07-.28.07-.28c.07-.34,0-.65.13-.84.18.49.54,1.6.04,1.96-.2,0-.27-.16-.31-.39Z"/>
  <path class="st27" d="M25.21,23.68c.18.33.24.47.38.82-.27.08-.42.12-.68.26-.05-.19.05-.81.11-1.01l.19-.07Z"/>
  <path class="st13" d="M39.51,36.51c-.54.14-2.11-.04-2.24-.69.26-.13,1.26.21,1.7.25.36.02.79-.07,1.12.04v.08c-.21.18-.33.22-.58.31Z"/>
  <path class="st20" d="M39.05,36.09c.33,0,.74-.06,1.05.03v.08c-.21.18-.33.22-.58.31,0-.14,0-.17-.03-.3-.15-.06-.28-.09-.43-.13Z"/>
  <path class="st13" d="M25,23.39c-.64-.36-.84.03-1.24.61h-.08c-.36-1.23.92-1.7,1.77-.99-.27.08-.3.05-.45.38Z"/>
  <path class="st27" d="M36.4,34.9c.34.18.49-.12.82.2-.24.02-.71.1-.88-.06l.06-.14Z"/>
  <path class="st27" d="M31.43,34.97c.24.22.15.41.02.67-.15-.26-.08-.37-.02-.67Z"/>
  <path class="st27" d="M38.45,24.27c.15.15.08.33.06.54-.17-.13-.08-.34-.06-.54Z"/>
  <path class="st25" d="M33.09,86.06c1.29,3.22,3.52,6.1,5.38,8.92.8,1.19,1.73,2.53,2.3,3.9.31.76.27,1.52.66,2.21,1.14,1.99,3.67,5.36,5.5,6.27l-.03.06.24.16-.05.15c-.1.05-.21.1-.31.15.15.13.33.02.57.12l-.2.05c1.1.79,2.47.21,3.29-.92.9.48,2.59,1.85,2.91,2.99.05.38-.02.72-.04,1.1l.07.04c.03-.08.13-.4.18-.42l-.06.51.11.08c-1.12,1.18-5.2.75-6.65.4-1.76-.43-2.26-.78-3.24-2.49-.17.4-.42.7-.77.77-1.4.3-2.18.02-2.36-1.7-.52-3.24-2.33-5.44-.37-8.63-.26-.48-1.25-2.62-1.51-2.74-.72.4-.79,2.09-.9,2.92-.13,1.25-.56,3.56-.63,4.77.09,1.91,1.12,3.93.05,5.7-2.31,2.19-6.32-2.41-7.25-4.63-.43-1-.13-2.2.17-3.18-.63.62-.99.97-1.81.39-.45-.26-.99-1.13-.63-1.75,1.75-2.93,1.96-6.77,5.95-7.34.26-.34,1.12-1.93,1.32-2.36-.84-1.34-1.89-2.79-2.41-4.32.26-.37-.1-.58.29-1.09.08-.03.14-.06.22-.09Z"/>
  <path class="st4" d="M40.6,101.04c1.52,2.93,6.41,10.32,9.84,6.1.9.48,2.59,1.85,2.91,2.99-.45,1.48-3.44,1.19-4.67,1.1-1.65-.2-3.52-.56-4.21-2.34-.86-1.62-1.66-3.05-3.18-3.85-1.37-.72-1.35-2.62-.7-4.01Z"/>
  <path class="st6" d="M34.82,110.76s.07-.07.1-.11c.48-.06,1.93-.19,2.33-.21-.61.69-1.71.77-2.43.32Z"/>
  <path class="st0" d="M46.6,107.16l.32.2-.03.06.24.16-.1.11c-.18.04-.61-.13-.67-.36.12.04.06.02.19.04l-.02-.12.07-.09Z"/>
  <path class="st23" d="M35.43,92.56l.12-.13c.27.09,2.43,3.38,2.67,3.83-1.04,1.16-1.06,2.72-1.33,4.15-.04.92-.52,3.1-.69,4.13-.04.52-.23.89-.73.71-3.58-.53-2.44-7.69-1.89-10.15,1.06-.78.89-.87,1.6-2.04.1-.16.16-.33.23-.5Z"/>
  <path class="st27" d="M35.49,105.26c.08-.08.32-.11.44-.14.09-.13.15-.77.2-1.03h.03s-.02.15-.02.15l.09.05c0,.52-.13,1.21-.74.97Z"/>
  <path class="st4" d="M32.57,95.15c.13,0,.07-.03.19.05-.6,3.23-1.64,11.53,3.6,10.7.35.89.49,2.13.47,3.11-.22,3.89-6.44-2.49-6.16-4.33-.02-1.44.94-3.51.37-5.21-.24-.71-.71-1.88-.31-2.56.44-.85,1.02-1.46,1.84-1.77Z"/>
  <path class="st4" d="M40.91,105.75c.3.09.45.24.71.44.16.46.54,2.65.56,3.16-.21-.02-.26,0-.43-.13-.22-.39-.73-2.89-.83-3.47Z"/>
  <path class="st4" d="M30,98.69c.21.26.24.72.28,1.08-.52.78-1.05,1.56-1.58,2.34-.08-.01-.09-.03-.17-.07-.13-.56,1.19-2.78,1.46-3.35Z"/>
  <path class="st13" d="M35.2,93.06c-.21-.22-.18-.86-.04-1.11l-.08.06.09-.06c.18.27.14.45.27.6-.07.18-.13.35-.23.5Z"/>
  <path class="st20" d="M33.94,93.84c.31.18.34.48.18.82l-.14-.08c-.14-.27-.28-.5-.04-.74Z"/>
  <path class="st23" d="M34.57,82.78c1.39-.22,3.72-.35,5.16-.47,1.19,3.81,2.5,7.81,3.67,11.58.18.44.43,1.24.56,1.71,1.15,3.97,3.75,6.8,5.42,10.46.2.36.51.82.06,1.15-.8.62-1.66.35-2.53.15-1.82-.9-4.36-4.28-5.5-6.27-.39-.69-.35-1.45-.66-2.21-.57-1.37-1.5-2.71-2.3-3.9-2.42-3.66-5.45-7.46-6.25-11.93.17-.19,2.01-.26,2.35-.27Z"/>
  <path class="st27" d="M32.21,83.18v-.12c.45-.23,2.28-.3,2.85-.23l-.02.03c-.59.06-1.19.14-1.78.13l-.04.04c.17.06.26.08.44.11-.46.05-1.01-.03-1.44.05Z"/>
  <path class="st27" d="M42.92,92.4c.16.46.31.93.44,1.4l-.06.1c-.2-.26-.06-.39-.25-.57-.09.23.07.27-.07.5l-.05-.07c-.04-.41-.15-.99-.02-1.35Z"/>
  <path class="st27" d="M38.25,94.68c.19-.31.09-.51.24-.86.06.21,0,.92-.02,1.16l-.22-.3Z"/>
  <path class="st29" d="M49.18,27.06c1.11,2.14,2.5,3.61,1.79,6.11.15-.01.09-.04.2.03-.15.26-.27.47-.45.71.08-1.54-.01-1.84-.46-3.29l-.07-.06-.05.05c.26,1.53-1.84,4.42-2.72,5.4-.11.26-.18.42-.26.7-.34,1.26-.47,2.64.27,3.79,1.07,1.21,1.1,3.28.34,4.63l-.04-.07c-.17.05-.34.11-.51.17-.5,1.25-.49,2.33.18,3.46-1.51-.44-2.25-2.09-2.39-3.63-.07-.76.03-1.26-.3-1.97-.14-.1-.28-.24-.26-.42-.1.07-.08.05-.17.15l-.03.37c.37,1.05-.08,2.33-.6,3.21.03-.64-.09-1.14-.38-1.72-1.03-1.99-2.16-3.08-1.65-5.59,4.39-2.68,6.77-6.41,7.58-12.03Z"/>
  <path class="st27" d="M46.75,36.38l.07.07c.15-.04.08-.05.21.05l.11.23c-.34,1.26-.47,2.64.27,3.79,1.07,1.21,1.1,3.28.34,4.63l-.04-.07c-.17.05-.34.11-.51.17-.5,1.25-.49,2.33.18,3.46-2.31-.56-1.4-3.18-1.62-4.94-.59-3.33-1.11-4.13.68-7.29l.12-.07c.08.18,0,.26.01.52l.18-.54Z"/>
  <path class="st0" d="M47.66,41.62c.29.1.19.35.35.3.03-.11.04-.16.06-.27.39,1.01.2,2.6-.32,3.5l-.04-.07c-.17.05-.34.11-.51.17.54-1.28,1.06-2.19.46-3.62Z"/>
  <path class="st0" d="M46.75,36.38l.07.07c.15-.04.08-.05.21.05l.11.23c-.24.9-.29,1.46-.25,2.4l-.04.17c-.17-.02-.21-.08-.38-.03-.03-.5-.05-.98-.06-1.48.1-.44.17-.97.34-1.4Z"/>
  <path class="st24" d="M46.89,39.12c.04.43.32,1.04.52,1.4l-.07.11c-.49.18-.79-1-.87-1.37.17-.05.21,0,.38.03l.04-.17Z"/>
  <path class="st24" d="M47.42,40.52c.13.17.62.93.66,1.13-.02.12-.03.16-.06.27-.17.05-.06-.2-.35-.3-.1-.06-.61-.93-.7-1.11.19.14.2.14.38.11l.07-.11Z"/>
  <path class="st19" d="M46.45,36.47l.12-.07c.08.18,0,.26.01.52-.06.51-.25.96-.24,1.48-.06-.35-.07-.94-.32-1.1.17-.3.3-.51.43-.83Z"/>
  <path class="st24" d="M48.58,32.66c.08-.03.13-.05.2-.09.05.16.04.16.12.28l.03.09c-.3.52-1.61,3.1-1.79,3.78l-.11-.23c-.14-.1-.07-.09-.21-.05l-.07-.07c.28-.91,1.37-2.93,1.83-3.72Z"/>
  <path class="st20" d="M43.86,42.13c-.38-1.11-.53-2.29-.08-3.41.1.15.09.15.23.2l.06.1c-.2,1-.11,1.53.08,2.53-.2.39-.1-.06-.27.35l.09.14-.11.09Z"/>
  <path class="st0" d="M44.15,41.55c.15.48.42,1.13.53,1.55-.13-.1-.28-.24-.26-.42-.1.07-.08.05-.17.15l-.03.37c-.1-.34-.26-.73-.36-1.06l.11-.09-.09-.14c.17-.41.07.04.27-.35Z"/>
  <path class="st20" d="M48.58,32.66c.1-.29.3-.93.47-1.11l.08.05.04.26c-.07.34-.13.69-.26,1-.09-.13-.08-.13-.12-.28-.08.04-.12.06-.2.09Z"/>
  <path class="st20" d="M43.78,38.72c.23-.57.43-.89.78-1.36-.18.52-.4,1.11-.49,1.66l-.06-.1c-.15-.06-.14-.05-.23-.2Z"/>
  <path class="st21" d="M46.45,36.47c.03-.15.25-.46.36-.55l.06.06c-.06.23-.22.71-.29.94,0-.26.07-.34-.01-.52l-.12.07Z"/>
  <path class="st1" d="M48.82,46.18c.24-.24.49-.49.74-.72,1.3,2.36,3.24,5.24,4.11,7.78,1.06,2.56-1.65,4.69-3.35,6.06-.1-2.75-2.89-4.21-5.27-3.84,1.93-1.77,2.46-3.37,5.38-3.3-.13-.03-.28-.1-.4-.09.18-.06.11,0,.22-.15-.03-.03-.08-.08-.12-.11l.11-.09c-.71-.35-1.84.14-2.27-.22.23-.25.52-.35.66-.68l.17-.17c-.32-.4-1.72.52-2.02.88l-.55.74c-.34-.43-.6-.82-.87-1.31.01-1.3-.08-2.22-.44-3.45.43.64.86,1.19,1.51,1.51.47.23,1.73.83,2.15.39.13-.57-1.15-1.15.23-3.22Z"/>
  <path class="st13" d="M50.23,51.72c.21.05.44.08.53.35-.19.24-.52-.02-.74,0,.18-.06.11,0,.22-.15-.03-.03-.08-.08-.12-.11l.11-.09Z"/>
  <path class="st23" d="M44.87,81.88c.43-.13,2.8-.29,3.36-.33-1.1,2.69-3.49,6.04-5.2,8.39-.64-2.48-1.59-4.85-2.27-7.35-.12-.73,3.54-.58,4.11-.71Z"/>
  <path class="st27" d="M40.95,82.25c.51-.2,3.48-.35,4.17-.37l.05.06c-.23.15-1.62.08-1.86.22.21.06.73.04.98.04-.69.15-2.75-.06-3.22.15-.05-.04-.07-.05-.11-.1Z"/>
  <path class="st27" d="M41.57,85.17h.09s.13.18.13.18c.12-.22-.01-1.01.13-1.29l.06.03c.07.33.14,2.03-.02,2.27-.16-.35-.28-.81-.39-1.19Z"/>
  <path class="st29" d="M25.7,29.37c.36-.02.54-.03.89-.17.45,2.14,1.01,3.15,2.12,4.82-.53.44-.77.65-1.19,1.22-.46.12-1.11.35-1.52.45.03-.28.07-.82-.03-1.05.02-.25.07-.5.09-.75.09-.95-.11-1.87-.3-2.79.08-.48-.12-.52.25-.82l-.32-.92Z"/>
  <path class="st20" d="M26.01,30.29c.46,1.58,1.02,3.96-.02,5.41.03-.28.07-.82-.03-1.05.02-.25.07-.5.09-.75.09-.95-.11-1.87-.3-2.79.08-.48-.12-.52.25-.82Z"/>
  <path class="st29" d="M24.44,35.53c.78-2.62-.3-4.58-.91-7.07.59.46,1,.7,1.68.88.67,2.1,1.34,4.33.39,6.46-.45.29-.99.4-1.48.59.1-.27.22-.57.31-.85Z"/>
  <path class="st13" d="M50.36,81.7l.07-.05c.28,2.96-.06,6.33.05,9.34-.13,1.79.18,3.57-.22,5.32-.03.13,0,.26,0,.39-.13-.23-.18-.44-.18-.71-.03-4.75.23-9.54.27-14.28Z"/>
  <path class="st20" d="M25.29,101.01c0-.29.06-.51.11-.79-.05,3.29.33,7.1,0,10.32l-.06-.11-.15-.02c-.18-2.26-.01-4.72-.03-7l.09.04c.13-.35.03-1.91.04-2.44Z"/>
  <path class="st0" d="M25.13,108.24c.1-.92.04-1.83.14-2.55.07.63,0,1.71.14,2.19l.03-.02c0-.37-.01-.73.05-1.09.04.78.11,3.18-.09,3.78l-.06-.11-.15-.02c-.1-.37-.07-1.73-.06-2.17Z"/>
  <path class="st13" d="M7.28,40.79c.14.45-.03,2.07-.03,2.71-.01,2.48.28,6.24-.06,8.57-.15-1.57-.07-3.28-.11-4.87,0-1.33-.15-5.39.21-6.41Z"/>
  <path class="st13" d="M65.65,93.77c.05-.64.03-1.29.14-1.93.01.22.02.44.03.66.02-.28.03-.48.03-.76.34,3.2.13,6.43.09,9.64-.19-2.52-.25-5.09-.29-7.62Z"/>
  <path class="st13" d="M9.71,73.33c.19.34.01.84,0,1.26-.02.47-.05.98-.15,1.44l-.02-.15c-.14.73-.23,2.5-.4,2.93-.04-1.98.1-3.47.57-5.48Z"/>
  <path class="st20" d="M54.76,54.45c-.16.18-.18.41-.24.67-.69,0-.27-1.44-.28-1.88,0-.27-.08-.48-.09-.79.14.23.16.54.31.68l.1-.05c.13.46.22.87.19,1.37Z"/>
  <path class="st13" d="M46.77,51.53c.3-.36,1.7-1.28,2.02-.88l-.17.17c-.53.28-1.12.76-1.56,1.21,0-.15.09-.19.11-.4-.14-.11-.19-.08-.39-.1Z"/>
  <path class="st25" d="M8.16,99.02c.07-.25,0-.18.16-.28.74-.04,1.26.16,2.2.06-.07.12-.07.15-.08.3-.7.2-1.58.24-2.27-.09Z"/>
  <path class="st20" d="M59.17,80.57l.04-.16c.09-.07.26-.2.35-.2.84,0,2.45-.08,3.25.03-1.19.19-2.45.16-3.64.33Z"/>
  <path class="st13" d="M64.72,80.12c-.17-.13-.18-.08-.42-.09.11-.13.59-.13.77-.14-.01.81.32,2.95.06,3.38-.15-.97-.08-2.21-.41-3.15Z"/>
  <path class="st16" d="M69.02,83.9c-.05.37.01,1.54-.08,1.74-.21-.68-.23-2.91-.1-3.56l.08-.04c.05.54.12,1.34.1,1.87Z"/>
  <path class="st5" d="M47.05,52.03c.45-.45,1.03-.93,1.56-1.21-.13.33-.43.43-.66.68.09.16.52.12.68.14-.39.12-.72.22-1.09.4-.24.11-.53.38-.71.4.02-.17.13-.27.22-.4Z"/>
  <path class="st13" d="M48.99,19.36c-.09.23-.02.32-.12.49l-.02-.02c-.09-.79-.02-1.69-.05-2.49-.02-.43-.19-1.01-.01-1.37.22,1.24.24,2.09.23,3.36l-.02.03Z"/>
  <path class="st20" d="M48.53,45.39c.41.43.22.26.29.79l-.03.07c-.38,0-.44.25-.52.62l-.08.04.03-.1c-.09-.1-.05-.04-.13-.17l.09-.29c-.05-.2,0-.11-.2-.24.17-.3.32-.46.54-.72Z"/>
  <path class="st16" d="M21.57,83.26l.08.06c.04.71.16,1.88,0,2.56v-.06s-.14.68-.14.68c.02-1.01-.1-2.24.05-3.24Z"/>
  <path class="st0" d="M50.92,97.27c.15-.49,1-.18,1.33-.07-.09.1-.1.1-.2.17.21.01.42.02.64.03-.6.19-1.19.11-1.76-.13Z"/>
  <path class="st13" d="M44.86,22.49c.45-.12,1.34-.22,1.79-.12.15.18.26.18.47.23l-.11-.04-.06.06c-.38,0-1.85.07-2.08-.13Z"/>
  <path class="st13" d="M48,82.19c0,.21-.03.16.05.3v-.06c.02.31-.11.98.35.93l-.43.78c-.04-.64.17-.87-.34-1.26l.37-.69Z"/>
  <path class="st16" d="M42.51,91l.09-.03.08.12.16-.14-.03-.52c-.05.18-.08.3-.12.49-.05-.2-.04-.5.04-.69h.09c.1.28.23,1.7.05,2.01-.13-.4-.25-.83-.36-1.23Z"/>
  <path class="st16" d="M18.13,82.34c.35-.14.58.11.98-.04.15-.06.52.04.65.15-.13.18-.53.12-.73.12,0,.15,0,.1.06.24-.37-.15-.61-.26-.96-.47Z"/>
  <path class="st0" d="M25.16,103.41c-.01-.47-.07-2.12.07-2.47l.06.07c0,.53.09,2.09-.04,2.44l-.09-.04Z"/>
  <path class="st0" d="M69.91,75.1c-.04-.21,0-.85,0-1.08l-.03-.04-.11.17c-.06-.22-.08-1.54,0-1.78l.05.02c.11.26,0,.98.06,1.42l.09.05c0,.23-.02,1.04-.08,1.24Z"/>
  <path class="st20" d="M53.99,111.09c-.07-.9.09-.79.17-1.52.17.64.21.98-.17,1.52Z"/>
  <path class="st10" d="M46.64,12.88c.43.14.58.63.82,1.12-.39-.24-.68-.39-1.08-.59.31-.04.35.1.63.1v-.09c-.13-.26-.1-.27-.33-.37l-.04-.17Z"/>
  <path class="st13" d="M47.98,28.8c.1.3.03.81.02,1.18l-.15-.15c-.04.06-.15.61-.24.81-.06-.06-.04-.03-.07-.09.15-.58.3-1.17.44-1.75Z"/>
  <path class="st13" d="M48.79,103.05c.12.18.26.4.36.59l-.04.09c-.32.21-.12.36-.3.6l-.03-.05c-.01-.33-.1-1.03,0-1.22Z"/>
  <path class="st0" d="M47.2,45.24c.17-.06.34-.12.51-.17l.04.07-.15.48-.14-.21h-.09c-.1.12-.18.2-.31.29.05-.25.05-.25.14-.48Z"/>
  <path class="st25" d="M46.96,12.17c.07.51-.14.26-.33.55l.03-.08c-.06-.15-.18-.31-.27-.44l.08-.04c.24.07.25.08.49,0Z"/>
  <path class="st13" d="M43.24,44.68l.21.47c-.01.23-.01.3-.18.38-.19-.21-.15-.61-.02-.85Z"/>
  <path class="st16" d="M47.71,12.83c-.17.13-.34.15-.45-.07,0-.26-.01-.17.15-.41.1.16.21.32.3.48Z"/>
  <path class="st19" d="M19.74,38.26c.1-.25.19-.5.29-.75.08.28.02.19.21.37l-.5.38Z"/>
  <path class="st13" d="M49.63,26.27c.08.21.18.44.26.66l-.05.09h-.12c-.11-.24-.17-.5-.09-.75Z"/>
  <path class="st28" d="M54.4,56.21c3.07.08,5.38,2.53,7.94,4.03,0,0,6.02,3.8,6.02,3.8.65.42,3.46,2.06,3.56,2.86-.53.58-6.13.89-7.2.97-5.61.45-11.31.97-16.9,1.53.18.01.57-.01.73.09l-.02.06c-4.46.02-9.79.91-14.28,1.16-2.03.27-4.38.25-6.39.41-1.4-.05-3.54.22-4.83-.09-4.45-2.76-8.41-6.48-12.5-9.78-.3-.25-1.69-1.13-1.7-1.47.66-.66,4.98-.92,6.12-1.09,2.02,1.71,5.56,2.57,7.97,3.38,3.52,2.77,6.83,5.68,10.52,8.17l.06-.07c.36.07,1.47-.26,2,0,.13,0,.26,0,.39-.01.3-.15.59-.15.92-.25v-.03c-.5,0-.96-.01-1.45-.04.48-.15,1.97.17,2.06-.4-1.13.07-2.26.15-3.39.24-3.17-2.25-6.21-4.63-9.18-7.14.53.05.72.08,1.24-.1,1.55,1.48,2.73,1.47,4.62,1.37.93.8,2.43,1.68,3.33.32,1.09.44,1.19.02,2.09-.46.27-.15.69-.32,1.04-.51l.34.25c.32-.2.48.34.92-.23l.6.3c-.26.2-.54.07-.77.26.08.12.18.16.3.22.03.1.04.06.01.14.19.2,1.43.95,1.54.68.15-.42-.08-1.74-.13-2.18l.73.35c.66,1.11,1.2,1.05,2.23.73.3.2.53.38.87.41.13-.13.34-.21.5-.36-.19,0-.37.02-.56-.05.24-.12,1.02-.14,1.25.05.21-.09.22-.03.43.07.99.46,1.85-.11,2.63-.81.66.41,2.01,1.51,2.5,1.76-.1-.35-.35-.38-.48-.7.06-.1.08-.15.12-.26-.24-.22-.29-.18-.43-.5-.34-.26-.85-.59-1.14-.84.43-.53.84-1.13,1.1-1.81,1.5-.67,3.79-2.82,4.66-4.45Z"/>
  <path class="st1" d="M38.26,63.74c.08.12.3.22.3.22,0,0,.04.06.01.14.19.2,1.43.95,1.54.68.15-.42-.08-1.74-.13-2.18l.73.35c.66,1.11,1.2,1.05,2.23.73.3.2.53.38.87.41.13-.13.34-.21.5-.36-.19,0-.37.02-.56-.05.24-.12,1.02-.14,1.25.05.21-.09.22-.03.43.07.99.46,1.85-.11,2.63-.81,1.35.94,2.65,1.89,3.84,2.77.02-.05,0-.12,0-.19.17-.11.41-.12.64-.26.45.34,3.25,2.24,3.38,2.47,0,.24.02.12-.12.35-.56.22-1.31.22-1.9.29-3.5.31-7.35.79-10.85,1.05-.2-.02-.47.02-.66-.02-1.36-.27-2.66.08-4.03.03-.3,0-.5.04-.78-.06-1.19.1-2.4.16-3.6.27-3.17-2.25-6.21-4.63-9.18-7.14.53.05.72.08,1.24-.1,1.55,1.48,2.73,1.47,4.62,1.37.93.8,2.43,1.68,3.33.32,1.09.44,1.19.02,2.09-.46.27-.15.69-.32,1.04-.51l.34.25"/>
  <path class="st25" d="M48.97,68.34c.9-.23,2.25-.17,3.19-.05.44.04,1.1,0,1.51.09v.07c-3.39.29-7.17.77-10.58,1.03-.2-.02-.47.02-.66-.02-1.61-.33-3.21.24-4.81-.02,3.74-.39,7.61-.8,11.35-1.09Z"/>
  <path class="st13" d="M48.97,68.34c.9-.23,2.25-.17,3.19-.05.44.04,1.1,0,1.51.09v.07c-1.61.15-3.07-.1-4.67,0l-.02-.1Z"/>
  <path class="st25" d="M52.57,65.32c.45.34,3.25,2.24,3.38,2.47,0,.24.02.12-.12.35-.66.25-1.47.23-2.15.32v-.07c-.92-.12-1.97-.09-2.9-.22.9-.14,3.09-.28,4.03-.38-.65-.34-2.3-1.51-2.89-2.01.02-.05,0-.12,0-.19.17-.11.41-.12.64-.26Z"/>
  <path class="st20" d="M53.94,68.42c.12-.07.24-.15.35-.23v-.02s0-.01,0-.01c.57-.21.96-.11,1.55-.03-.56.22-1.31.22-1.9.29Z"/>
  <path class="st13" d="M38.43,63.18l.6.3c-.26.2-.54.07-.77.26.08.12.18.16.3.22.03.1.04.06.01.14-.3-.13-.81-.46-1.07-.69.32-.2.48.34.92-.23Z"/>
  <path class="st13" d="M43.82,64.09c.13-.13.34-.21.5-.36-.19,0-.37.02-.56-.05.24-.12,1.02-.14,1.25.05-.43.29-.71.4-1.2.36Z"/>
  <path class="st13" d="M46.68,66.26c.77-.03,1.61.89.52,1.38-1.05.03-1.79-.93-.52-1.38Z"/>
  <path class="st8" d="M46.57,66.61c.33,0,.67.02.83.4-.05.24,0,.13-.18.32-.48.09-1.22-.17-.65-.72Z"/>
  <path class="st13" d="M38.56,65.15c1.27-.11,1.59,1.19.48,1.26-.66.19-1.7-.79-.48-1.26Z"/>
  <path class="st8" d="M38.68,65.43c.31-.04.76.07.7.53-.11.15-.16.14-.32.18-.26,0-.77,0-.76-.44.1-.18.21-.19.38-.27Z"/>
  <path class="st13" d="M40.54,66.81c.88-.09,1.73.67.68,1.29-.88.18-1.85-.82-.68-1.29Z"/>
  <path class="st8" d="M40.67,67.1c.26-.02.77.04.68.48-.13.14-.14.14-.3.21-.25-.01-.76-.04-.74-.45.11-.16.2-.18.36-.24Z"/>
  <path class="st13" d="M35.53,65.38c1.29-.01,1.39,1.21.51,1.24-.42-.01-1.23-.09-1.16-.82.17-.32.33-.33.65-.43Z"/>
  <path class="st8" d="M35.49,65.69c.26,0,.78.05.78.47-.33.45-.83.13-1.22-.07.17-.17.26-.25.45-.4Z"/>
  <path class="st13" d="M47.58,64.37c.43-.01,1.14.2,1.09.86-.49,1.22-2.65-.25-1.09-.86Z"/>
  <path class="st8" d="M47.67,64.66c.24.05.68.13.7.49-.15.32-1.05.24-1.05-.18.09-.18.19-.21.34-.31Z"/>
  <path class="st13" d="M43.7,66.63c.44-.02,1.06.08,1.08.74-.37,1.25-2.75-.02-1.08-.74Z"/>
  <path class="st8" d="M43.74,66.94c.25,0,.75.02.72.44-.32.66-1.62-.11-.72-.44Z"/>
  <path class="st13" d="M32.52,65.73c.44-.06,1.19,0,1.24.69-.34,1.25-2.68,0-1.24-.69Z"/>
  <path class="st8" d="M32.68,65.96c.25,0,.68.04.76.38-.06.17-.1.18-.22.29-.27,0-.74,0-.85-.36.09-.21.11-.17.31-.31Z"/>
  <path class="st13" d="M37.26,67.19c.8-.14,2,.49.91,1.18-.77.12-1.91-.58-.91-1.18Z"/>
  <path class="st8" d="M37.33,67.52c.28-.03.74-.05.93.25,0,.19.02.1-.08.28-.3.06-.69.11-.91-.2-.04-.22-.05-.11.06-.32Z"/>
  <path class="st16" d="M34.75,67.28c.44-.01.87.11,1.06.63,0,.5-.42.64-.81.6-.78-.03-1.38-1.04-.25-1.23Z"/>
  <path class="st8" d="M34.58,67.63c.3-.03.73-.05.92.29-.05.22,0,.12-.15.29-.3.02-.71.06-.91-.25.01-.2.01-.14.15-.33Z"/>
  <path class="st13" d="M41.9,64.85c.79-.06,1.57.89.48,1.29-.86.1-1.67-.91-.48-1.29Z"/>
  <path class="st8" d="M41.72,65.2c.3-.03.69-.03.88.29-.04.22-.02.15-.18.33-.3.02-.65.02-.84-.29.02-.23-.02-.12.15-.33Z"/>
  <path class="st16" d="M49.7,65.97c.73-.06,1.69.69.69,1.27-.83.02-1.89-.64-.69-1.27Z"/>
  <path class="st8" d="M49.62,66.32c.31-.03.68-.06.88.27-.02.21,0,.11-.15.31-.29.04-.63.05-.83-.24-.02-.23-.04-.12.11-.34Z"/>
  <path class="st13" d="M44.57,64.66c.94-.08,1.66.86.65,1.24-.89.08-1.71-.69-.65-1.24Z"/>
  <path class="st8" d="M44.75,64.97c.24.02.72.08.63.49-.14.16-.2.15-.39.19-.25-.03-.6-.13-.58-.5.16-.17.11-.12.35-.18Z"/>
  <path class="st20" d="M37.62,69.43c1.6.26,3.2-.31,4.81.02.19.04.46,0,.66.02-2.27.3-4.92.5-7.2.7.3-.15.59-.15.92-.25v-.03c-.5,0-.96-.01-1.45-.04.48-.15,1.97.17,2.06-.4.05-.03.14-.02.2-.03Z"/>
  <path class="st13" d="M51.39,64.43c.4.28.8.58,1.18.89-.24.14-.48.15-.64.26,0,.07,0,.14,0,.19-.41-.3-.8-.56-1.18-.9h.38c.11-.13.18-.28.27-.44Z"/>
  <path class="st20" d="M49.79,63.31c.52.37,1.06.77,1.6,1.12-.09.16-.16.31-.27.45h-.38s-.13-.1-.16-.12c-.1-.35-.35-.38-.48-.7.06-.1.08-.15.12-.26-.24-.22-.29-.18-.43-.5Z"/>
  <path class="st13" d="M46.68,69.53c.49-.09,1.41-.22,1.87-.04l-.02.06c-.29.07-1.59.11-1.85-.02Z"/>
  <path class="st13" d="M33.44,70.25l.06-.07c.36.07,1.47-.26,2,0-.58.08-1.49.08-1.98.19l-.08-.13Z"/>
  <path class="st15" d="M10.52,66.42c2.62,1.9,5.28,4.3,7.79,6.4,1.64,1.41,3.37,3.28,5.55,3.38,13.51-.38,31.7-2.9,45.24-3.75-.11,1.66.14,4.27-.83,5.5-.31.37-.76.63-1.19.7-8.94,1.23-17.94,1.89-26.93,2.6-4.74.38-9.49.97-14.23,1.3-3.98.2-6.33-3.72-9.31-5.92-1.24-1.06-2.54-2.05-3.78-3.11-.62-.55-1.86-1.4-2.12-2.34-.35-1.26-.21-3.41-.19-4.76Z"/>
  <path class="st6" d="M23.53,76.57c.27.19.36.61.37.96.06,1.06.43,3.35-.11,4.22-.51-.4-.57-4.59-.27-5.18Z"/>
  <path class="st1" d="M25.28,36.89c.28-.05,1.52-.5,1.8-.63l-.15-.05c.29-.23.16-.04.41-.13-.14-.07-.2-.06-.27-.19l.03-.02.12.09c.18-.08.19-.09.38-.04.29.26.13.42.28.41.04-.15.04-.25.12-.3l.06.15c.21-.78.6-1.02,1.14-1.54.22.27.54.62.74.9-.02.68.17,1.6.37,2.24l.06-.09c.2.24.13.84.36,1.05-.06-.19-.11-.24-.09-.41h.08c.23,1.86.97,4.15,1.3,5.95,0,0,.04.24.04.24.02.49.26.89.11,1.2.17.98.35,1.96.53,2.94l.04-.3.07.09c-.02.46.34.92.2,1.39l-.13.04s0,.01-.05.09c-.27-.3-.52-.84-.77-1.19-1.26-1.76-1.39-3.41-3.54-2.03-.19-.37-.42-.94-.6-1.33-.05.4.27.82-.04,1.17.06.21.14.32.03.51.02.07.05.22.06.29l.09.1c0,.41.08.83.09,1.16,1.26,2.01,2.15,4.26,2.97,6.47-.88.24-1.84.48-2.71.75-.66-.48-3.44-1.49-4.31-1.74-.19-1.24-.38-2.25-.61-3.47.11-.26.42-.95.46-1.2-.22-.4.15-.49-.21-.97l-.1.05-.09-.06c-.6,1.36-1.3,2.93-1.84,4.34-.52-.45-1.03-.78-1.68-.84l-.08.15c-.24-.04-.87-.15-1.09-.02.35.11.2.08.45.05.17-.02.85.28,1.04.36.02.1.02.06,0,.14.29.14.53.26.8.46-1.41-.11-2.61-.21-3.87.91-.12.11-.11.12-.14.26.07.06.12.11.21.07.73-.31,1.31-.58,2.11-.65.46-.05.93-.02,1.38.09,2.08.69,4.11,1.59,6.19,2.29-.51.27-1.18.76-1.49,1.33.06.55-.14.69-.47,1.03l-.06-.09c-.46,1.1-.7,2.17-.21,3.34-.43-.13-1.58-.51-1.96-.55-.62.17-1.56-.4-2.24-.37-.14,0-.04.03-.17-.02.23-.09.34-.14.58-.18-1.91-.67-6.02-1.85-6.85-4.18l-.04.09-.11-.03c-.19-.34.02-3,.34-3.34l.11.04.15-.54-.07-.06c.02-.15.48-1.78.57-2.06l.19.05c.88-2.33,1.8-4.79,2.81-7.08l-.05-.1c0-.45-.02-.53.2-.87v.02c.13-.09.18-.13.29-.26l.07.08c1.92-3.98,1.28-3.42,5.34-4.95"/>
  <path class="st1" d="M28.06,36.17c.21-.78.6-1.02,1.14-1.54.22.27.54.62.74.9-.02.68.17,1.6.37,2.24l.06-.09c.2.24.13.84.36,1.05-.06-.19-.11-.24-.09-.41h.08c.23,1.86.97,4.15,1.3,5.95,0,0,.04.24.04.24.02.49.26.89.11,1.2.17.98.35,1.96.53,2.94l.04-.3.07.09c-.02.46.34.92.2,1.39l-.13.04s0,.01-.05.09c-.27-.3-.52-.84-.77-1.19-1.26-1.76-1.39-3.41-3.54-2.03-.39-.77-.72-1.65-1-2.53.45-.54,2.3-1.31,2.26-2.06-.15-.24-.4-.31-.65-.41-.66-.34-1.39-.6-2.03-.99.03-.44.2-1.02.27-1.5-.13-.45,0-1.72-.19-1.88l-.08.14h-.09c.06-.39.3-1,.25-1.25h-.17s-.15-.04-.15-.04c.29-.23.16-.04.41-.13-.14-.07-.2-.06-.27-.19l.03-.02.12.09c.18-.08.19-.09.38-.04.29.26.13.42.28.41.04-.15.04-.25.12-.3l.06.15Z"/>
  <path class="st13" d="M27.08,36.26l-.15-.05c.29-.23.16-.04.41-.13-.14-.07-.2-.06-.27-.19l.03-.02.12.09c.18-.08.19-.09.38-.04.29.26.13.42.28.41.04-.15.04-.25.12-.3l.06.15c-.25.93-.46,2.28-.69,3.07-.13-.45,0-1.72-.19-1.88l-.08.14h-.09c.06-.39.3-1,.25-1.25h-.17Z"/>
  <path class="st16" d="M30.3,37.78l.06-.09c.2.24.13.84.36,1.05-.06-.19-.11-.24-.09-.41h.08c.23,1.86.97,4.15,1.3,5.95,0,0,.04.24.04.24.02.49.26.89.11,1.2-.55-2.44-1.26-5.46-1.86-7.94Z"/>
  <path class="st13" d="M32.69,48.66l.04-.3.07.09c-.02.46.34.92.2,1.39l-.13.04c-.05-.4-.11-.81-.18-1.21Z"/>
  <path class="st6" d="M27.01,37.5h.09s.08-.14.08-.14c.2.16.06,1.43.19,1.88-.07.48-.24,1.06-.27,1.5.1.05.43.22.49.28l-.03.07.03.11-.06.09c-.35-.05-.61-.11-.96-.04-.74-.4.34-2.99.43-3.76Z"/>
  <path class="st6" d="M29.13,41.73c1.89.59-1.11,1.87-1.61,2.47l-.07-.09c-.1.2-.12.25-.19.47,0,.09,0,.04-.06.15-.15-.05-.12-.05-.24-.21l-.05-.5c.17-.1.53-.47.56-.7.14-.18,1.06-.71,1.28-.83.06-.06.06-.06.11-.14l-.09-.07c.15-.07.2-.16.33-.3-.08-.09-.13-.11-.23-.16l.27-.1Z"/>
  <path class="st20" d="M29.09,41.99c.17.14.22.13.42.13l.09.08c0,.43-.71.75-1.01.86-.11-.07-.06-.08-.19-.2.09-.07.16-.12.25-.18l.09-.19c.06-.06.06-.06.11-.14l-.09-.07c.15-.07.2-.16.33-.3Z"/>
  <path class="st20" d="M26.9,44.03c.13-.03.21-.05.34-.05.09.14.03.39.01.6,0,.09,0,.04-.06.15-.15-.05-.12-.05-.24-.21l-.05-.5Z"/>
  <path class="st13" d="M27.25,44.58c.07-.22.09-.27.19-.47l.07.09c.09.33.45,1.15.39,1.4.07.34.22.68-.03.97.06.21.14.32.03.51-.36-.74-.69-1.53-.96-2.31,0,0,.01-.23.01-.23.13.15.09.16.24.21.06-.12.06-.06.06-.15Z"/>
  <path class="st16" d="M27.25,44.58c.07-.22.09-.27.19-.47l.07.09c.09.33.45,1.15.39,1.4-.08-.23-.16-.33-.38-.43h-.1c-.09.17-.11.28-.05.46l-.06.13c-.14-.32-.26-.66-.38-.99v-.23c.14.15.11.16.26.21.06-.12.06-.06.06-.15Z"/>
  <path class="st20" d="M27.87,46.56c-.21-.42-.63-.83-.06-1.18l.09.22c.07.34.22.68-.03.97Z"/>
  <path class="st13" d="M27.59,41.02c.49.22,1.07.46,1.54.7l-.27.1c.1.06.16.07.23.16-.12.14-.18.24-.33.3-.65-.25-1.62-.64-2.19-1.04.35-.08.6-.01.96.04l.06-.09-.03-.11.03-.07Z"/>
  <path class="st16" d="M23.57,48.36c.18-.36.41-.96.71-1.13l.09.06c.1.57-.19,1.58-.41,2.14-.22-.4.15-.49-.21-.97l-.1.05-.09-.06v-.09Z"/>
  <path class="st13" d="M24.12,47.51c.23.26.06.9-.07,1.19-.05,0-.02,0-.1-.04-.01-.42-.06-.82.17-1.15Z"/>
  <path class="st16" d="M18.02,52.19c.66-.33,1.31-.39,2.02-.24l-.08.15c-.24-.04-.87-.15-1.09-.02.35.11.2.08.45.05.17-.02.85.28,1.04.36.02.1.02.06,0,.14-.9-.33-1.47-.22-2.35-.44Z"/>
  <path class="st5" d="M23.57,48.36c-.03-.34-.1-.45-.02-.73.19-.22.63-.71.9-.61.3.5-.05,1.88-.42,2.27.15-.53.46-1.48.34-1.99l-.09-.06c-.3.16-.54.76-.71,1.13Z"/>
  <path class="st13" d="M14.17,56.35l-.04.09-.11-.03c-.19-.34.02-3,.34-3.34l.11.04c-.27,1.06-.51,2.12-.3,3.23Z"/>
  <path class="st5" d="M19.92,39.67c.45-.81.73-1.04,1.48-1.37-.04.45-.03.4-.42.6-.4.2-.55.12-.76.61l-.3.16Z"/>
  <path class="st16" d="M21.01,60.53c.46.14,1.42.39,1.83.57-.62.17-1.56-.4-2.24-.37-.14,0-.04.03-.17-.02.23-.09.34-.14.58-.18Z"/>
  <path class="st13" d="M14.62,52.58l-.07-.06c.02-.15.48-1.78.57-2.06l.19.05c-.21.69-.45,1.39-.69,2.07Z"/>
  <path class="st16" d="M18.11,43.43l-.05-.1c0-.45-.02-.53.2-.87v.02c.13-.09.18-.13.29-.26l.07.08c-.13.29-.37.88-.51,1.13Z"/>
  <path class="st13" d="M26.94,44.76c-.33-.82-.05-1.05.52-1.43-.03.23-.39.6-.56.7l.05.5v.23Z"/>
  <path class="st13" d="M25.01,58.31c.15-.33.32-.66.53-.93.06.55-.14.69-.47,1.03l-.06-.09Z"/>
  <path class="st16" d="M27.96,47.36l.09.1c0,.41.08.83.09,1.16-.34-.37-.32-.76-.18-1.27Z"/>
  <path class="st13" d="M21.3,39.15c1.92.81,3,4.43,2.9,6.5-.54-1.56-1-3.66-1.94-5.07-.25-.39-.81-1.01-.96-1.43Z"/>
  <path class="st12" d="M8.46,60.59c2.15,1.71,4.33,3.46,6.49,5.15,2.51,1.96,5.67,5.5,8.66,6.14,2.78.28,6.14-.36,8.99-.45,3.6-.32,10.64-.95,14.2-1.27,8.35-.67,16.85-1.57,25.18-2.39,0,.75.01,1.66-.07,2.4-1.28,1.94-5.41,1.24-7.44,1.63-9.08.74-25.72,2.31-34.84,3.09-7.15,1.17-7.53-.39-12.75-4.63-1.63-1.4-5.88-4.76-7.49-6.1-1.13-.73-.87-2.37-.92-3.57Z"/>
  <path class="st15" d="M17.88,39.54l.79-.03c-1.52,4.69-4.14,9.14-5.22,14.03-.76.2-2.51.58-3.13,0-.32-.32-.35-1.24-.38-1.7-.16-2.02-.1-4.1-.1-6.13.07-1.46-.33-3.17.41-4.49.93-1.28,6.14-1.55,7.62-1.67Z"/>
  <path class="st2" d="M30.74,36.3c1.84,1.81,4.08,3.32,6.6,3.76-.28.74-.55,1.34-.52,2.14l.22.14c.45-.05.81-2.24,1.36-2.17.12.14.12.28.15.48.01.9.16,1.76.22,2.65.06.81.46,4.57.11,5.06-.43.69-1.23,1.61-1.85,2.17-.12-1.06-.21-1.42-.54-2.42-.03.26-.06.71-.18.91.05.52.1,1.04.15,1.55-.33-.21-.59-.4-.91-.64-.16.06-.37.13-.5.24l-.05.14c-.38-.27-.9-.71-1.25-1.02.33-.1.27-.11.38-.49-.06-.07-.67-.58-.77-.67l-.11-.58v.12s-.06.04-.06.04v.09c-.04-.17-.05-.24-.07-.42-.1.14-.09.17-.13.36,0-.23.02-.42-.03-.64-.06.3.02.96-.04,1.39-.07-.03-.05,0-.08-.06l-.07-.09-.04.3c-.18-.98-.36-1.96-.53-2.94.15-.32-.09-.72-.11-1.2l-.04-.24c-.17-.9-.5-2.24-.76-3.27-.02-.25-.09-.42-.04-.65.08.07.14.63.17.81.03-.07.06-.75.07-.88l.02.02c.06.21.06.22.18.41l.06-.1c-.25-1.33-.79-2.94-.96-4.3Z"/>
  <path class="st13" d="M32,44.27l.03-.15c.06.1.03.06.11.12.11-.25.06-.39.21-.55,0,.14.02.18.05.32l.02-.41c.29,1.34.61,2.72.81,4.08l-.06.04v.09c-.04-.17-.05-.24-.07-.42-.1.14-.09.17-.13.36,0-.23.02-.42-.03-.64-.06.3.02.96-.04,1.39-.07-.03-.05,0-.08-.06l-.07-.09-.04.3c-.18-.98-.36-1.96-.53-2.94.15-.32-.09-.72-.11-1.2l-.04-.24Z"/>
  <path class="st25" d="M32,44.27l.03-.15c.06.1.03.06.11.12.11-.25.06-.39.21-.55.1.42.1,1.69.08,2.2-.24-.53-.25-1.08-.38-1.38l-.04-.24Z"/>
  <path class="st13" d="M34.11,48.81c.36.27,1.1.82,1.42,1.13-.16.06-.37.13-.5.24l-.05.14c-.38-.27-.9-.71-1.25-1.02.33-.1.27-.11.38-.49Z"/>
  <path class="st25" d="M31.25,41.01c-.02-.25-.09-.42-.04-.65.08.07.14.63.17.81.03-.07.06-.75.07-.88l.02.02c.06.21.06.22.18.41l.06-.1c.12.39.2.7.29,1.11l-.12.09c-.06.44.1.72-.15,1.11-.14-.41-.33-1.39-.47-1.91Z"/>
  <path class="st13" d="M31.72,42.91c.24-.39.08-.67.15-1.11l.12-.09c.12.59.49,1.74.41,2.3-.03-.14-.05-.18-.05-.32-.15.16-.09.3-.21.55-.08-.06-.04-.02-.11-.12l-.03.15c-.08-.25-.15-.9-.28-1.36Z"/>
  <path class="st13" d="M36.29,49.03c-.07-.44-.26-1.14-.2-1.58h.07c.17.25.21.39.31.68-.03.26-.06.71-.18.91Z"/>
  <path class="st27" d="M30.74,36.3c.21.18.42.39.62.59-.61.09-.11.68-.31,1.01-.1-.4-.27-1.2-.32-1.6Z"/>
  <path class="st2" d="M31.19,55.99c1.71-.64,3.84-.17,5.12,1.13.85.69,2.78,2.8,1.69,4.06-.04.04-.27.12-.32.07-1.13-1.01-1.79-2.88-3.28-3.53-.14.06-.22.08-.32.21.02.18.13.42.19.6,1.05.8,1.42,1.57,2.17,2.63l.16.68c-.04.35-.09.75-.36.95-.12,0-.18.03-.27-.1-.68-.87-1.57-2.33-2.49-2.77-.37.36-.55.09-.93.29.37.23,3.57,2.4,2.15,3.26-.33.2-1.89-1.35-2.39-1.68l-.07.1c-.26-.09-.46-.04-.6.21.41.33,1.36.9,1.41,1.55-.28.58-1.08.05-1.41-.22-1.2-1-2.49-.14-3.83-.81-.78-.39-1.39-1.31-2.1-1.56l-.11.15c-.18.05-.18.03-.35,0-.11-.14-.07-.06-.08-.27.08-.08.12-.11.21-.18-.07-1.74.79-3.2,1.97-4.08,1.53.27,2.4-.37,3.84-.67Z"/>
  <path class="st13" d="M34.26,58.52c-.29-.16-1.11-.54-1.12-.96.27-.27.93-.02,1.23.08.04.02.02.06.02.06l-.32.21s.13.42.19.6Z"/>
  <path class="st13" d="M32.54,60.2c-.16-.11-.31-.24-.44-.39-.11-.14-.08-.06-.08-.27.34-.21,1.12.2,1.44.37-.37.36-.55.09-.93.29Z"/>
  <path class="st13" d="M31.37,61.9c-.14-.19-.31-.34-.19-.58.33-.08.48.05.77.23-.25.1-.37.17-.59.35Z"/>
  <path class="st25" d="M31.96,61.55l.35.23-.07.1c-.26-.09-.46-.04-.6.21l-.26-.19c.21-.17.34-.24.59-.35Z"/>
  <path class="st20" d="M25.37,60.74c.11.11.2.21.32.31l-.11.15c-.18.05-.18.03-.35,0-.11-.14-.07-.06-.08-.27.08-.08.12-.11.21-.18Z"/>
  <path class="st28" d="M22.37,82.74c1.04.49,1.23.57,2.33.82-.2,8.63-.1,17.69-.06,26.34-.27.9-1.76.81-2.28.06-.28-9.01-.08-18.22,0-27.22Z"/>
  <path class="st28" d="M67.8,79.35c.07-.01.02-.01.13.03.34,8.63.91,17.32.98,25.95-.32.45-1.38.34-1.75-.04-1.19-8.28-.45-16.96-1.4-25.33.75-.22,1.29-.34,2.05-.61Z"/>
  <path class="st28" d="M10.74,73.01c.38.29,1.45,1.23,1.76,1.6-.75,6.7-1.38,16.25-1.92,23.03-.29.72-1.6.68-2.16.26.67-7.67,1.04-17.31,2.33-24.89Z"/>
  <path class="st2" d="M40.2,60.12c1.61-3.5,7.74-6.13,9.26-1.14-.43.69-.49,1.27-.78,2.06l.04.09c-.15.27-.22.57-.39.82-.15.03-.16.01-.31-.04-.41.38-1.65,1.75-2.09,1,.02-.28.25-.57.4-.81-.03-.36-.02-.78-.3-.93l-.21.36c.06.19.05.21.05.41l-.07.11c-.15-.02-.09,0-.23-.11-.3.41-1.54,1.85-1.9,1.07,0-.48.17-.7.38-1.11-.42-.04-.47-.34-.37-.75-.32.51-1.54,2.63-2.11,1.49-.08-.8.66-1.76.93-2.55-.13-.04-.07-.02-.24.08-.22-.24-.11-.42-.25-.69-.64.65-.91,2.42-1.52,2.58-.53-.09-.56-.99-.46-1.47-.07-.25-.08-.34-.01-.58l.07-.02.09.13Z"/>
  <path class="st25" d="M44.68,59.67c.15-.09.25-.19.4-.15.19.8-.64,1.72-1.02,2.36-.83-.11-.21-1.17.08-1.57.19-.34.24-.44.54-.64Z"/>
  <path class="st13" d="M44.14,60.31c.19-.34.24-.44.54-.64,0,.26.02.51.03.77-.14-.02-.42-.09-.57-.13Z"/>
  <path class="st6" d="M46.24,60.86c.09-.2.56-.55.76-.52.12.14.08.05.1.27-.22.47-.48,1.04-.77,1.48-.03-.36-.02-.78-.3-.93l.2-.29Z"/>
  <path class="st13" d="M46.24,60.86c.24.37,0,.48.25.97l-.16.26c-.03-.36-.02-.78-.3-.93l.2-.29Z"/>
  <path class="st20" d="M42.03,59.47c.06-.11.17-.19.26-.27l.21.02c.12.22.07.46.07.75l-.05.11c-.13-.04-.07-.02-.24.08-.22-.24-.11-.42-.25-.69Z"/>
  <path class="st25" d="M42.29,59.2c.24-.19.4-.36.67-.29.11.37-.22.77-.4,1.07,0-.29.06-.53-.07-.75l-.21-.02Z"/>
  <path class="st13" d="M48.69,61.04l.04.09c-.15.27-.22.57-.39.82-.15.03-.16.01-.31-.04.22-.26.45-.59.66-.86Z"/>
  <path class="st16" d="M45.82,61.51c.06.19.05.21.05.41l-.07.11c-.15-.02-.09,0-.23-.11l.24-.41Z"/>
  <path class="st13" d="M40.06,60.58c-.07-.25-.08-.34-.01-.58l.07-.02.09.13-.14.46Z"/>
  <path class="st1" d="M39.12,40.09s1.48-.45,1.7-.53l.08.04c-.16,1.09-.02,1.79.36,2.8-.26.13-.67.27-.79.57.14.45,1.62,1.4,2.11,1.91-.14,1.02-.27,1.9-.43,2.9l.07.04c-.06.61-.45,2.5-.69,2.89-.06-.06-.04-.03-.07-.09-.64,1.94-1.19,3.86-2.02,5.75-.16.02-.36.07-.5.02l-.05-.07c.71-3.17.96-6.9.79-10.17-.05.33.03.84-.09,1.03.03-.07-.27-4.81-.33-5.38l.08-.04c0-.19,0-.21-.04-.4l-.04.1h-.05c0-.62-.4-.91-.09-1.38Z"/>
  <path class="st16" d="M39.68,46.16c-.05.33.03.84-.09,1.03.03-.07-.27-4.81-.33-5.38l.08-.04c.13.5.36,3.88.34,4.38Z"/>
  <path class="st16" d="M42.15,47.79l.07.04c-.06.61-.45,2.5-.69,2.89-.06-.06-.04-.03-.07-.09.24-.94.46-1.9.69-2.85Z"/>
  <path class="st16" d="M39.12,40.09c.07.35.24,1.03.14,1.38h-.05c0-.62-.4-.91-.09-1.38Z"/>
  <path class="st28" d="M52.87,81.1c.22-.03.36-.09.54.03,0,3.96-.07,8.24-.22,12.21-.03.55-.08,2.4-.21,2.84-.59.75-1.54.58-2.06-.1.08-4.92.25-9.89.32-14.8l1.63-.18Z"/>
  <path class="st7" d="M43.68,47.22c.38-.42.5-.66.74-1.2.07.36.25.68.25.96l-.07.03-.19-.13c.03.16.07.42.14.56.18.32-.08.63,0,.93.06-.13.06-.16.09-.3h.07c.02,1.16,0,3.84-.53,4.95l-.09-.02c-.26.57-.98,2.68-1.3,3.05l.09.08c-.16.24-.97.07-1.23.18l-.02.08c.27-.03.37.07.65-.02v.07s-.17.14-.17.14c-.23,0-1.26-.12-1.39-.27v-.04c-.17-.01-.51.04-.69.06.22-.37.38-.64.31-1.1l-.06-.05c-.09.05-.18.1-.27.15.03-.23.05-.13-.02-.32.52-1.38.88-2.61,1.34-3.98l.07.13c-.03.22-.11.84.02.99.46-.31.5-1.84.65-2.44.1-.43.4-.77.47-1.24.07-.46.09-1.36.36-1.71l.05.22-.03.34.2.05c.27-.03.32-.02.56-.17Z"/>
  <path class="st13" d="M41.34,51.04l.07.13c-.03.22-.11.84.02.99.46-.31.5-1.84.65-2.44.1-.43.4-.77.47-1.24.07-.46.09-1.36.36-1.71l.05.22s-.03.34-.03.34c-.53,2.45-1.52,6.34-2.57,8.34,0-.16.01-.23,0-.45l-.06-.05c-.09.05-.18.1-.27.15.03-.23.05-.13-.02-.32.52-1.38.88-2.61,1.34-3.98Z"/>
  <path class="st6" d="M40.9,54.43l-.05-.12c-.09.16-.12.2-.27.16-.12-.23-.05-.42.02-.65l.13.18h.1c-.01-.17-.07.07-.14-.2.08-.08.13-.14.21-.24-.06-.08-.05-.08-.09-.17l.06-.02.14.1s.09-.08.14-.12c0,.21-.03.12.05.28-.09.29-.15.55-.29.81Z"/>
  <path class="st13" d="M40.08,54.8l.08.08.09-.2.13-.02c.21.21-.02.54.05.87l-.08.16c0-.16.01-.23,0-.45l-.06-.05c-.09.05-.18.1-.27.15.03-.23.05-.13-.02-.32l.09-.22Z"/>
  <path class="st5" d="M43.68,47.22c.38-.42.5-.66.74-1.2.07.36.25.68.25.96l-.07.03-.19-.13c.03.16.07.42.14.56.18.32-.08.63,0,.93.06-.13.06-.16.09-.3h.07c.02,1.16,0,3.84-.53,4.95l-.09-.02c-.09.18-.12.29-.19.48-.06-.57.3-1.46.42-2.07.15-.75.04-3.82-.23-4.32-.15.06-.26.1-.42.12Z"/>
  <path class="st16" d="M44.1,53.01c.56-1.84.52-3.46.26-5.37-.04-.31-.13-.51.06-.75.03.16.07.42.14.56.18.32-.08.63,0,.93.06-.13.06-.16.09-.3h.07c.02,1.16,0,3.84-.53,4.95l-.09-.02Z"/>
  <path class="st16" d="M40.72,56.28c.6-.1,1.44-.15,2.08-.22l.09.08c-.16.24-.97.07-1.23.18l-.02.08c.27-.03.37.07.65-.02v.07s-.17.14-.17.14c-.23,0-1.26-.12-1.39-.27v-.04Z"/>
  <path class="st15" d="M18.26,38.3c.13,0,.25-.02.38-.02.18.11.1.04.22.25.01.23.03.12-.08.34-2.38.51-5.09.23-7.5.9-2.57.63-2.18,3.65-2.1,6.07.19,2.43-.14,5.26.33,7.66-.31-.12-.57-.29-.79-.54-1.11-1.18-.66-3.51-.72-5.06-1.2-10.28,2.73-9.05,10.25-9.6Z"/>
  <path class="st1" d="M33.8,51.5c-.08-.77-.25-1.57-.3-2.33l.04-.02c.5.38,1.06.92,1.58,1.26.33-.02.81-.03.78.41l.08.1-.02.08c.18.19.6.4.82.51.66-.43,1.02-.97,1.46-1.27.15-.21.47-.71.66-.75.09.14.05.24.04.48-.08,2.07-.48,4.46-.69,6.5-.4.04-.81.07-1.21.08-1.21-1.55-2.16-3.42-3.25-5.06Z"/>
  <path class="st5" d="M38.25,50.26c.15-.21.47-.71.66-.75.09.14.05.24.04.48-.02.41-.05,1.05-.11,1.44-.05-.45.08-1.12-.17-1.42l-.09.02c-.14.16-.15.17-.34.23Z"/>
  <path class="st13" d="M35.12,50.42c.33-.02.81-.03.78.41l.08.1-.02.08c-.25-.12-.62-.41-.84-.59Z"/>
  <path class="st15" d="M13.21,75.15c1.24.82,2.73,2.21,3.88,3.23,1.23,1.09,3.45,2.5,4.42,3.76l-.03.09c-3.46-.04-5.92-3.2-8.39-5.4.02-.39.05-1.35.12-1.69Z"/>
  <path class="st22" d="M30.51,51.04c.36-.32,1-.73,1.41-.97,1.21,1.74,2.24,3.59,3.41,5.33-.86-.42-1.55-.58-2.48-.61-.81-1.27-1.56-2.58-2.35-3.75Z"/>
  <path class="st0" d="M13.11,54.52h.11c-.02,1.24-.2,1.94.64,3.34-.87.13-1.8.21-2.67.31-.05-1.03.03-2.37-.06-3.43.67-.02,1.32-.12,1.98-.22Z"/>
  <path class="st15" d="M41.94,56.84l.04.05c-.85.56-1.65,1.2-2.21,2.19-.3.04-.6.04-.9.05-.33-.66-.69-1.32-1.1-1.92,1.44-.16,2.74-.3,4.18-.37Z"/>
  <path class="st14" d="M29.65,46.96c.6-.01.87.79,1.16,1.35-.52.29-.72.42-1.19.82-.14.1-.07.08-.22.08-.71-1.13-1.28-1.6.25-2.25Z"/>
  <path class="st2" d="M37.67,62.17c.51-.16.65-.16,1.04-.59.16.18.35.39.51.58.04.35.18,1.12.03,1.38-.14,0-.09.01-.22-.05-.3-.14-.9-.46-1.19-.63l-.17-.69Z"/>
  <path class="st13" d="M38.95,49.99l.09-.27h.04c0,.29,0,.33.12.57h.03s.01-.2.01-.2c.19.16.15.75.17,1.05.18-.39.04-1.41.16-1.86h.04c.04,1.58-.1,3.76-.42,5.35-.22-.35.08-1.51.1-2.01.02-.41.02-.72.01-1.13,0,.2-.01.35-.04.54-.09-.2-.13-.33-.19-.55l-.03.25-.04-.63-.04.07c0,.38-.07,1.12.09,1.42l-.04.12c.07.13.04.2.04.4l-.07.04c-.07-.09-.05-.44-.06-.6-.16.12-.02.65-.16.88l-.04-.05c.02-.23.02-.28,0-.51,0-.85.2-1.99.21-2.89Z"/>
  <path class="st22" d="M30.2,49.37c.27-.25.61-.43.93-.58.2.29.37.55.55.86-.4.2-.99.58-1.42.86-.21-.28-.33-.49-.52-.8.16-.13.29-.23.46-.34Z"/>
  <path class="st5" d="M45.14,52.32c.23.4.52.65.69,1.09-.46.46-1.14,1.16-1.65,1.65.49-1.12.66-1.53.96-2.74Z"/>
  <path class="st1" d="M45.27,53.95c-.11-.21-.09-.84.02-1.06l.23-.03c.18.21.2.27.32.54-.18.18-.38.39-.56.55Z"/>
  <path class="st1" d="M22.88,52.27c.12.07.46,1.23.13,1.43-.18-.09-.48-.2-.69-.26l.55-1.17Z"/>
  <path class="st13" d="M26.13,71.17c1.03-.04,1.85-.07,2.92.06v.03c-.72.08-2.69.09-3.32-.01.14,0,.27,0,.4-.08Z"/>
  <path class="st13" d="M38.54,40.66c0-.21-.03-.36.06-.53-.05.53.52,2.56.15,3.18-.06-.89-.21-1.76-.22-2.65Z"/>
  <path class="st20" d="M39.73,63.26c.18.2.22.75.23,1.03.01.24.03.13-.11.32-.43-.39-.32-.84-.13-1.35Z"/>
  <path class="st20" d="M72.21,69.9c.58-.04.4.56.28.94-.15.16-.08.14-.22.14-.1-.21-.06-.8-.06-1.08Z"/>
  <path class="st16" d="M38.89,56.33s-.06.05-.09.08c-.19-.23-.07-.94.15-1.09.21.2,0,.75-.06,1.01Z"/>
  <path class="st20" d="M36.19,55.7c.25.16.44.47.41.82-.55-.03-.49-.4-.41-.82Z"/>
  <path class="st5" d="M31.28,53.86c.25.14.61.77.73,1.08-.47.04-.52-.59-.73-1.08Z"/>
  <path class="st20" d="M31.55,53.92c.25-.02.67.47.52.73-.15-.08-.41-.55-.52-.73Z"/>
  <path class="st13" d="M36.44,61.15l.16-.02c.18.26.11.72.05,1.03-.02-.23-.16-.78-.21-1.01Z"/>
  <path class="st7" d="M39.1,59.8c.1.03.11.04.2.08.04.24-.02.37-.09.63h-.02s-.05-.04-.05-.04c-.04-.29-.07-.39-.04-.67Z"/>
  <path class="st5" d="M42.95,47c.03-.19.06-.41.11-.59.02.32.05.65.05.98l-.2-.05.03-.34Z"/>
  <path class="st0" d="M42.56,81.74c.21-.02.45,0,.67,0v.05c-.19.06-.42.15-.62.07l-.05-.13Z"/>
  <path class="st9" d="M41.3,42.82c.19.11.3.2.31.46-.17-.13-.21-.14-.33-.33l.03-.14Z"/>
  <path class="st0" d="M20.92,33.19c.3.18.17.35.24.73.04.23-.07.71.11.84-.3.68-.67,1.26-.93,1.97-.2-.17-.13-.17-.33-.16-.1.08-.1.16-.14.29-.11-.39-.1-.65-.16-1.05.46-.93.95-1.6,1.22-2.62Z"/>
</svg>