<?xml version="1.0" encoding="utf-8"?>
<!-- Generator: Adobe Illustrator 29.1.0, SVG Export Plug-In . SVG Version: 9.03 Build 55587)  -->
<svg version="1.1" baseProfile="basic" id="Layer_1"
	 xmlns="http://www.w3.org/2000/svg" xmlns:xlink="http://www.w3.org/1999/xlink" x="0px" y="0px" viewBox="0 0 8.64 10.5"
	 xml:space="preserve" width="20">
<g>
	<path style="fill:#07BCD6;" d="M7.58,9.52L4.68,2.95c0.28-0.14,0.48-0.43,0.48-0.77c0-0.48-0.39-0.86-0.86-0.86S3.43,1.7,3.43,2.18
		c0,0.34,0.2,0.63,0.48,0.77L1.01,9.52c-0.11,0.25,0,0.53,0.25,0.64c0.25,0.11,0.53,0,0.64-0.25l0.6-1.36h3.6l0.6,1.36
		c0.08,0.18,0.26,0.29,0.44,0.29c0.07,0,0.13-0.01,0.2-0.04C7.58,10.05,7.69,9.76,7.58,9.52 M2.93,7.58L4.3,4.49l1.37,3.09H2.93z"/>
	<path style="fill:#07BCD6;" d="M0.82,0.37c0.04-0.07,0.13-0.09,0.2-0.05c0.07,0.04,0.09,0.13,0.05,0.2C0.8,1,0.65,1.55,0.65,2.12
		c0,0.52,0.13,1.04,0.37,1.5c0.02,0.04,0.02,0.07,0.01,0.11C1.02,3.77,1,3.8,0.96,3.82C0.94,3.83,0.92,3.83,0.89,3.83
		c-0.05,0-0.1-0.03-0.13-0.08C0.5,3.25,0.35,2.69,0.35,2.12C0.35,1.5,0.52,0.9,0.82,0.37"/>
	<path style="fill:#07BCD6;" d="M2.33,3.27c0.02,0,0.05-0.01,0.07-0.02c0.07-0.04,0.1-0.12,0.06-0.19C2.3,2.77,2.22,2.45,2.22,2.13
		c0-0.37,0.1-0.73,0.3-1.05c0.04-0.07,0.02-0.15-0.04-0.2c-0.07-0.04-0.15-0.02-0.2,0.04C2.06,1.29,1.94,1.7,1.94,2.13
		c0,0.37,0.09,0.74,0.27,1.07C2.23,3.24,2.28,3.27,2.33,3.27"/>
	<path style="fill:#07BCD6;" d="M7.68,0.37C7.64,0.3,7.54,0.28,7.48,0.32c-0.07,0.04-0.09,0.13-0.05,0.2C7.7,1,7.85,1.55,7.85,2.12
		c0,0.52-0.13,1.04-0.37,1.5C7.46,3.65,7.46,3.69,7.47,3.73C7.48,3.77,7.5,3.8,7.54,3.82c0.02,0.01,0.04,0.02,0.07,0.02
		c0.05,0,0.1-0.03,0.13-0.08C8,3.25,8.15,2.69,8.15,2.12C8.15,1.5,7.98,0.9,7.68,0.37"/>
	<path style="fill:#07BCD6;" d="M6.17,3.27c-0.02,0-0.05-0.01-0.07-0.02c-0.07-0.04-0.1-0.12-0.06-0.19
		C6.2,2.77,6.28,2.45,6.28,2.13c0-0.37-0.1-0.73-0.3-1.05c-0.04-0.07-0.02-0.15,0.04-0.2c0.07-0.04,0.15-0.02,0.2,0.04
		c0.23,0.36,0.35,0.77,0.35,1.2c0,0.37-0.09,0.74-0.27,1.07C6.27,3.24,6.22,3.27,6.17,3.27"/>
</g>
</svg>
