<?xml version="1.0" encoding="UTF-8"?>
<svg id="Layer_1" xmlns="http://www.w3.org/2000/svg" xmlns:xlink="http://www.w3.org/1999/xlink" version="1.1" viewBox="0 0 684 476.1" width="600">
  <!-- Generator: Adobe Illustrator 29.1.0, SVG Export Plug-In . SVG Version: 2.1.0 Build 142)  -->
  <defs>
    <clipPath id="clippath">
      <rect x="7.2" y="25.4" width="669.6" height="443.5" fill="none"/>
    </clipPath>
    <clipPath id="clippath-1">
      <rect x="7.2" y="25.4" width="669.6" height="443.5" fill="none"/>
    </clipPath>
    <clipPath id="clippath-2">
      <rect x="7.2" y="25.4" width="669.6" height="443.5" fill="none"/>
    </clipPath>
    <clipPath id="clippath-3">
      <rect x="7.2" y="25.4" width="669.6" height="443.5" fill="none"/>
    </clipPath>
    <clipPath id="clippath-4">
      <rect x="7.2" y="25.4" width="669.6" height="443.5" fill="none"/>
    </clipPath>
    <clipPath id="clippath-5">
      <rect x="7.2" y="25.4" width="669.6" height="443.5" fill="none"/>
    </clipPath>
    <clipPath id="clippath-6">
      <rect x="7.2" y="25.4" width="669.6" height="443.5" fill="none"/>
    </clipPath>
    <clipPath id="clippath-7">
      <rect x="7.2" y="25.4" width="669.6" height="443.5" fill="none"/>
    </clipPath>
  </defs>
  <g id="Layer_11" data-name="Layer_1">
    <g id="patch_1">
      <path d="M0,476.1h684V0H0v476.1Z" fill="#fff"/>
    </g>
    <g id="axes_1">
      <g id="patch_2">
        <g clip-path="url(#clippath)">
          <path d="M475.3,216.2l-9.6,15.6-1.9-9.3L98.5,419.6h0l365.2-197.2-1.9-9.3,13.5,3.1h0Z" fill="green" stroke="green" stroke-width="2"/>
        </g>
      </g>
      <g id="patch_3">
        <g clip-path="url(#clippath-1)">
          <path d="M322.8,264l-8.8,16.8-2.4-9-213.1,147.8h0l213.1-147.9-2.4-9,13.6,1.3h0Z" fill="red" stroke="red" stroke-width="2"/>
        </g>
      </g>
      <g id="patch_4">
        <g clip-path="url(#clippath-2)">
          <path d="M118.1,133.9l4.7,20.7-6-1.1-18.3,266.1h0l18.3-266.1-6-1.1,7.4-18.5h-.1Z" fill="orange" stroke="orange" stroke-width="2"/>
        </g>
      </g>
      <g id="patch_5">
        <g clip-path="url(#clippath-3)">
          <path d="M136.4,409.6l-7.4-18.5,6-1.1-18.3-266.1h0l18.3,266.1,6-1.1-4.7,20.7h0Z" fill="orange" stroke="orange" stroke-width="2"/>
        </g>
      </g>
      <g id="line2d_1">
        <g clip-path="url(#clippath-4)">
          <path d="M-1,419.6h686" fill="none" stroke="#8b4513" stroke-linecap="square" stroke-linejoin="round" stroke-width="3"/>
        </g>
      </g>
      <g id="line2d_2">
        <g clip-path="url(#clippath-5)">
          <path d="M98.5,419.6l16.8-8.4,9.1-4.3,7.7-3.4,7-2.8,6.2-2.3,5.9-2,5.9-1.7,5.5-1.4,5.5-1.1,5.1-.8,5.1-.6,5.1-.4,5.1-.2h5.1l5.1.3,5.1.5,5.1.7,5.1,1,5.5,1.3,5.5,1.5,5.9,1.8,6.2,2.2,6.6,2.6,7,3,7.7,3.5,9.1,4.4,13.5,6.8h0" fill="none" stroke="#00008b" stroke-linecap="square" stroke-linejoin="round" stroke-width="2"/>
        </g>
      </g>
      <g id="line2d_3">
        <g clip-path="url(#clippath-6)">
          <path d="M98.5,419.6l23.1-50,12.8-27.3,10.2-21.3,9.4-19.1,8.5-16.8,7.7-14.7,7.7-14.2,6.8-12.2,6.8-11.8,6.8-11.3,6-9.5,6-9.1,6-8.6,6-8.2,5.1-6.7,5.1-6.3,5.1-6,5.1-5.6,5.1-5.2,4.3-4.1,4.3-3.8,4.3-3.5,4.3-3.3,4.3-3,4.3-2.7,4.3-2.4,4.3-2.1,4.3-1.9,4.3-1.6,4.3-1.3,3.4-.8,3.4-.6,3.4-.4,3.4-.3h6.8l3.4.3,3.4.5,3.4.7,3.4.9,3.4,1.1,4.3,1.6,4.3,1.9,4.3,2.1,4.3,2.4,4.3,2.7,4.3,3,4.3,3.3,4.3,3.5,4.3,3.8,4.3,4.1,5.1,5.2,5.1,5.6,5.1,6,5.1,6.3,5.1,6.7,5.1,7,6,8.6,6,9,6,9.4,6,9.8,6.8,11.6,6.8,12.1,6.8,12.5,7.7,14.5,8.5,16.7,8.5,17.2,9.4,19.4,11.1,23.4,13.7,29.4,15.4,33.4h0" fill="none" stroke="blue" stroke-dasharray="7.4 3.2" stroke-linejoin="round" stroke-width="2"/>
        </g>
      </g>
      <g id="line2d_4">
        <g clip-path="url(#clippath-7)">
          <path d="M-1,123.9h686" fill="none" stroke="purple" stroke-dasharray="2 3.3" stroke-linejoin="round" stroke-width="2"/>
        </g>
      </g>
      <g id="text_1">
        <g>
          <path id="DejaVuSans-47" d="M357.5,451.2v-2.3h-1.9v-1h3.1v3.8c-.5.3-1,.6-1.5.7-.5.2-1.1.2-1.8.2-1.4,0-2.4-.4-3.2-1.2s-1.2-1.9-1.2-3.3.4-2.5,1.2-3.3c.8-.8,1.8-1.2,3.2-1.2s1.1,0,1.6.2c.5.1,1,.3,1.4.6v1.3c-.4-.4-.9-.7-1.4-.8s-1-.3-1.6-.3c-1.1,0-1.9.3-2.4.9s-.8,1.5-.8,2.7.3,2.1.8,2.7,1.3.9,2.4.9.8,0,1.1-.1c.3,0,.6-.2.9-.3v-.2Z" fill="#8b4513"/>
          <path id="DejaVuSans-72" d="M364.6,446.9c-.1,0-.3-.1-.4-.2h-.5c-.6,0-1.1.2-1.4.6s-.5,1-.5,1.7v3.5h-1.1v-6.6h1.1v1c.2-.4.5-.7.9-.9.4-.2.8-.3,1.3-.3s.2,0,.2,0h.3v1.1h.1Z" fill="#8b4513"/>
          <path id="DejaVuSans-6f" d="M368,446.7c-.6,0-1,.2-1.4.7s-.5,1.1-.5,1.9.2,1.4.5,1.9.8.7,1.4.7,1-.2,1.4-.7c.3-.5.5-1.1.5-1.9s-.2-1.4-.5-1.8c-.3-.5-.8-.7-1.4-.7h0ZM368,445.8c.9,0,1.7.3,2.2.9s.8,1.5.8,2.5-.3,1.9-.8,2.5-1.3.9-2.2.9-1.7-.3-2.2-.9-.8-1.5-.8-2.5.3-1.9.8-2.5,1.3-.9,2.2-.9Z" fill="#8b4513"/>
          <path id="DejaVuSans-75" d="M372.7,449.9v-4h1.1v3.9c0,.6.1,1.1.4,1.4.2.3.6.5,1.1.5s1-.2,1.4-.6c.3-.4.5-.9.5-1.5v-3.7h1.1v6.6h-1.1v-1c-.3.4-.6.7-.9.9-.3.2-.7.3-1.2.3-.8,0-1.3-.2-1.7-.7-.4-.5-.6-1.2-.6-2.1h0ZM375.4,445.8h0Z" fill="#8b4513"/>
          <path id="DejaVuSans-6e" d="M385.9,448.5v4h-1.1v-3.9c0-.6-.1-1.1-.4-1.4-.2-.3-.6-.5-1.1-.5s-1,.2-1.4.6c-.3.4-.5.9-.5,1.5v3.7h-1.1v-6.6h1.1v1c.3-.4.6-.7.9-.9.3-.2.8-.3,1.2-.3.8,0,1.3.2,1.7.7.4.5.6,1.2.6,2.1h0Z" fill="#8b4513"/>
          <path id="DejaVuSans-64" d="M392.3,446.9v-3.6h1.1v9.1h-1.1v-1c-.2.4-.5.7-.9.9-.3.2-.8.3-1.2.3-.8,0-1.4-.3-1.9-.9s-.7-1.5-.7-2.5.2-1.9.7-2.5,1.1-.9,1.9-.9.9,0,1.2.3c.3.2.6.5.9.9h0ZM388.7,449.2c0,.8.2,1.4.5,1.9s.8.7,1.3.7,1-.2,1.3-.7.5-1.1.5-1.9-.2-1.4-.5-1.9-.8-.7-1.3-.7-1,.2-1.3.7-.5,1.1-.5,1.9Z" fill="#8b4513"/>
        </g>
      </g>
      <g id="text_2">
        <g>
          <path id="DejaVuSans-31" d="M274.2,408.9h1.6v-5.6l-1.8.4v-.9l1.7-.4h1v6.5h1.6v.8h-4.2v-.8h0Z" fill="#00008b"/>
          <path id="DejaVuSans-36" d="M282.6,405.7c-.4,0-.8.2-1.1.5-.3.3-.4.7-.4,1.2s.1.9.4,1.2c.3.3.6.5,1.1.5s.8-.2,1.1-.5c.3-.3.4-.7.4-1.2s-.1-.9-.4-1.2c-.3-.3-.6-.5-1.1-.5ZM284.6,402.6v.9c-.2-.1-.5-.2-.8-.3h-.8c-.7,0-1.1.2-1.5.7-.3.4-.5,1.1-.6,2,.2-.3.4-.5.7-.7.3-.2.6-.2,1-.2.7,0,1.3.2,1.7.7.4.4.6,1,.6,1.8s-.2,1.4-.7,1.8c-.4.5-1,.7-1.8.7s-1.5-.3-1.9-1c-.4-.6-.7-1.6-.7-2.8s.3-2.1.8-2.8c.5-.7,1.3-1,2.2-1s.5,0,.8,0,.5.1.8.2h.2Z" fill="#00008b"/>
          <path id="DejaVuSans-30" d="M288.9,403.1c-.5,0-.9.3-1.1.8-.3.5-.4,1.3-.4,2.3s.1,1.7.4,2.2.6.8,1.1.8.9-.3,1.2-.8c.3-.5.4-1.2.4-2.2s-.1-1.8-.4-2.3-.6-.8-1.2-.8ZM288.9,402.3c.8,0,1.4.3,1.9,1,.4.6.6,1.6.6,2.8s-.2,2.2-.6,2.8c-.4.6-1.1,1-1.9,1s-1.4-.3-1.9-1c-.4-.6-.6-1.6-.6-2.8s.2-2.2.6-2.8c.4-.6,1.1-1,1.9-1Z" fill="#00008b"/>
          <path id="DejaVuSans-6d" d="M297.2,405.3c.2-.4.5-.7.8-.9s.7-.3,1.1-.3,1,.2,1.3.6.5,1,.5,1.7v3.3h-.9v-3.3c0-.5,0-.9-.3-1.2-.2-.3-.5-.4-.8-.4s-.8.2-1.1.5c-.3.3-.4.7-.4,1.3v3.1h-.9v-3.3c0-.5,0-.9-.3-1.2s-.5-.4-.9-.4-.8.2-1.1.5c-.3.3-.4.7-.4,1.3v3.1h-.9v-5.5h.9v.9c.2-.3.5-.6.7-.7s.6-.2,1-.2.7.1,1,.3c.3.2.5.5.6.9h0Z" fill="#00008b"/>
          <path id="DejaVuSans-2c" d="M303,408.5h1v.8l-.8,1.6h-.6l.4-1.6v-.8Z" fill="#00008b"/>
          <path id="DejaVuSans-20" d="M305,409.7" fill="#00008b"/>
          <path id="DejaVuSans-38" d="M311.3,406.3c-.5,0-.8.1-1.1.4-.3.3-.4.6-.4,1s.1.8.4,1c.3.3.6.4,1.1.4s.8-.1,1.1-.4c.3-.3.4-.6.4-1s-.1-.8-.4-1c-.3-.3-.6-.4-1.1-.4ZM310.3,405.9c-.4-.1-.8-.3-1-.6-.2-.3-.4-.6-.4-1.1s.2-1,.6-1.4c.4-.3,1-.5,1.7-.5s1.3.2,1.7.5.6.8.6,1.4-.1.8-.4,1.1c-.2.3-.6.5-1,.6.5.1.8.3,1.1.7.3.3.4.7.4,1.2s-.2,1.3-.6,1.6c-.4.4-1,.6-1.9.6s-1.4-.2-1.9-.6c-.4-.4-.6-.9-.6-1.6s.1-.9.4-1.2c.3-.3.6-.5,1.1-.7h.2ZM310,404.3c0,.4.1.7.4.9.2.2.6.3,1,.3s.8-.1,1-.3c.2-.2.4-.5.4-.9s-.1-.7-.4-.9c-.2-.2-.6-.3-1-.3s-.8.1-1,.3c-.2.2-.4.5-.4.9Z" fill="#00008b"/>
          <path id="DejaVuSans-30-2" d="M317.7,403.1c-.5,0-.9.3-1.1.8-.3.5-.4,1.3-.4,2.3s.1,1.7.4,2.2.6.8,1.1.8.9-.3,1.2-.8c.3-.5.4-1.2.4-2.2s-.1-1.8-.4-2.3-.6-.8-1.2-.8ZM317.7,402.3c.8,0,1.4.3,1.9,1,.4.6.6,1.6.6,2.8s-.2,2.2-.6,2.8c-.4.6-1.1,1-1.9,1s-1.4-.3-1.9-1c-.4-.6-.6-1.6-.6-2.8s.2-2.2.6-2.8c.4-.6,1.1-1,1.9-1Z" fill="#00008b"/>
          <path id="DejaVuSans-6d-2" d="M326.1,405.3c.2-.4.5-.7.8-.9s.7-.3,1.1-.3,1,.2,1.3.6.5,1,.5,1.7v3.3h-.9v-3.3c0-.5,0-.9-.3-1.2-.2-.3-.5-.4-.8-.4s-.8.2-1.1.5c-.3.3-.4.7-.4,1.3v3.1h-.9v-3.3c0-.5,0-.9-.3-1.2s-.5-.4-.9-.4-.8.2-1.1.5c-.3.3-.4.7-.4,1.3v3.1h-.9v-5.5h.9v.9c.2-.3.5-.6.7-.7s.6-.2,1-.2.7.1,1,.3c.3.2.5.5.6.9h0Z" fill="#00008b"/>
          <path id="DejaVuSans-2c-2" d="M331.8,408.5h1v.8l-.8,1.6h-.6l.4-1.6v-.8Z" fill="#00008b"/>
          <path id="DejaVuSans-20-2" d="M333.8,409.7" fill="#00008b"/>
          <path id="DejaVuSans-36-2" d="M340.3,405.7c-.4,0-.8.2-1.1.5-.3.3-.4.7-.4,1.2s.1.9.4,1.2c.3.3.6.5,1.1.5s.8-.2,1.1-.5c.3-.3.4-.7.4-1.2s-.1-.9-.4-1.2c-.3-.3-.6-.5-1.1-.5ZM342.2,402.6v.9c-.2-.1-.5-.2-.8-.3h-.8c-.7,0-1.1.2-1.5.7-.3.4-.5,1.1-.6,2,.2-.3.4-.5.7-.7.3-.2.6-.2,1-.2.7,0,1.3.2,1.7.7.4.4.6,1,.6,1.8s-.2,1.4-.7,1.8c-.4.5-1,.7-1.8.7s-1.5-.3-1.9-1c-.4-.6-.7-1.6-.7-2.8s.3-2.1.8-2.8c.5-.7,1.3-1,2.2-1s.5,0,.8,0,.5.1.8.2h.2Z" fill="#00008b"/>
          <path id="DejaVuSans-30-3" d="M346.5,403.1c-.5,0-.9.3-1.1.8-.3.5-.4,1.3-.4,2.3s.1,1.7.4,2.2.6.8,1.1.8.9-.3,1.2-.8c.3-.5.4-1.2.4-2.2s-.1-1.8-.4-2.3-.6-.8-1.2-.8ZM346.5,402.3c.8,0,1.4.3,1.9,1,.4.6.6,1.6.6,2.8s-.2,2.2-.6,2.8c-.4.6-1.1,1-1.9,1s-1.4-.3-1.9-1c-.4-.6-.6-1.6-.6-2.8s.2-2.2.6-2.8c.4-.6,1.1-1,1.9-1Z" fill="#00008b"/>
          <path id="DejaVuSans-6d-3" d="M354.9,405.3c.2-.4.5-.7.8-.9s.7-.3,1.1-.3,1,.2,1.3.6.5,1,.5,1.7v3.3h-.9v-3.3c0-.5,0-.9-.3-1.2-.2-.3-.5-.4-.8-.4s-.8.2-1.1.5c-.3.3-.4.7-.4,1.3v3.1h-.9v-3.3c0-.5,0-.9-.3-1.2s-.5-.4-.9-.4-.8.2-1.1.5c-.3.3-.4.7-.4,1.3v3.1h-.9v-5.5h.9v.9c.2-.3.5-.6.7-.7s.6-.2,1-.2.7.1,1,.3c.3.2.5.5.6.9h0Z" fill="#00008b"/>
          <path id="DejaVuSans-20-3" d="M359.4,409.7" fill="#00008b"/>
          <path id="DejaVuSans-42" d="M364.6,406.3v2.7h1.6c.5,0,.9-.1,1.2-.3.3-.2.4-.6.4-1s-.1-.8-.4-1-.6-.3-1.2-.3h-1.6ZM364.6,403.3v2.2h1.5c.5,0,.8,0,1.1-.3.2-.2.4-.5.4-.8s-.1-.6-.4-.8c-.2-.2-.6-.3-1.1-.3h-1.5ZM363.6,402.5h2.5c.8,0,1.3.2,1.7.5.4.3.6.8.6,1.3s-.1.8-.3,1.1-.5.4-.9.5c.5.1.9.3,1.1.7.3.3.4.7.4,1.2s-.2,1.2-.7,1.5c-.4.4-1.1.5-1.9.5h-2.6v-7.3h0Z" fill="#00008b"/>
          <path id="DejaVuSans-61" d="M372.9,407c-.7,0-1.2,0-1.5.2s-.4.4-.4.9.1.6.3.8.5.3.9.3.9-.2,1.2-.5.5-.8.5-1.4v-.2h-1ZM374.7,406.6v3.1h-.9v-.8c-.2.3-.5.6-.8.7-.3.2-.7.2-1.1.2s-1-.2-1.3-.5-.5-.7-.5-1.3.2-1.1.6-1.4,1-.5,1.8-.5h1.3c0-.5-.1-.8-.4-1s-.7-.3-1.1-.3-.6,0-.9.1c-.3,0-.6.2-.9.3v-.8c.3-.1.6-.2,1-.3h.9c.8,0,1.4.2,1.8.6s.6,1,.6,1.9h-.1Z" fill="#00008b"/>
          <path id="DejaVuSans-6e-2" d="M381.1,406.4v3.3h-.9v-3.3c0-.5-.1-.9-.3-1.2-.2-.3-.5-.4-.9-.4s-.9.2-1.1.5c-.3.3-.4.7-.4,1.3v3.1h-.9v-5.5h.9v.9c.2-.3.5-.6.8-.7.3-.2.6-.2,1-.2.6,0,1.1.2,1.4.6s.5,1,.5,1.7h-.1Z" fill="#00008b"/>
          <path id="DejaVuSans-64-2" d="M386.5,405.1v-3h.9v7.6h-.9v-.8c-.2.3-.4.6-.7.7-.3.2-.6.2-1,.2-.7,0-1.2-.3-1.6-.8s-.6-1.2-.6-2.1.2-1.6.6-2.1,1-.8,1.6-.8.8,0,1,.2c.3.2.5.4.7.7v.2ZM383.4,407c0,.7.1,1.2.4,1.6s.6.6,1.1.6.8-.2,1.1-.6c.3-.4.4-.9.4-1.6s-.1-1.2-.4-1.6-.6-.6-1.1-.6-.8.2-1.1.6-.4.9-.4,1.6Z" fill="#00008b"/>
          <path id="DejaVuSans-73" d="M392.7,404.4v.9c-.3-.1-.5-.2-.8-.3h-.9c-.4,0-.8,0-1,.2-.2.1-.3.3-.3.6s0,.4.2.5.5.2,1,.3h.3c.6.2,1.1.4,1.4.6s.4.6.4,1-.2.9-.6,1.2c-.4.3-1,.4-1.7.4h-.9c-.3,0-.7-.1-1-.3v-.9c.3.2.7.3,1,.4.3,0,.6.1,1,.1s.7,0,1-.2c.2-.1.3-.3.3-.6s0-.4-.2-.6c-.2-.1-.5-.3-1.1-.4h-.3c-.6-.2-1-.4-1.2-.6s-.4-.6-.4-1,.2-.9.5-1.2c.4-.3.9-.4,1.6-.4h.9c.3,0,.6.1.8.2h0Z" fill="#00008b"/>
          <path id="DejaVuSans-20-4" d="M393.5,409.7" fill="#00008b"/>
          <path id="DejaVuSans-28" d="M399.8,402.2c-.4.7-.8,1.5-1,2.2s-.3,1.5-.3,2.2.1,1.5.3,2.2.5,1.5,1,2.2h-.8c-.5-.8-.9-1.5-1.1-2.3-.2-.7-.4-1.5-.4-2.2s.1-1.5.4-2.2c.2-.7.6-1.5,1.1-2.3h.8v.2Z" fill="#00008b"/>
          <path id="DejaVuSans-47-2" d="M406.5,408.7v-2h-1.6v-.8h2.6v3.1c-.4.3-.8.5-1.3.6s-.9.2-1.5.2c-1.1,0-2-.3-2.7-1-.6-.7-1-1.6-1-2.8s.3-2.1,1-2.8c.6-.7,1.5-1,2.7-1s.9,0,1.4.2c.4.1.8.3,1.2.5v1.1c-.4-.3-.8-.5-1.2-.7s-.8-.2-1.3-.2c-.9,0-1.6.2-2,.7s-.7,1.2-.7,2.2.2,1.7.7,2.2c.4.5,1.1.7,2,.7h.9c.3,0,.5-.2.7-.3h0Z" fill="#00008b"/>
          <path id="DejaVuSans-72-2" d="M412.4,405.1c-.1,0-.2-.1-.3-.1h-.4c-.5,0-.9.2-1.2.5s-.4.8-.4,1.4v2.9h-.9v-5.5h.9v.9c.2-.3.4-.6.7-.7.3-.2.7-.2,1.1-.2s.1,0,.2,0h.2v.9h0Z" fill="#00008b"/>
          <path id="DejaVuSans-6f-2" d="M415.3,404.9c-.5,0-.9.2-1.1.6s-.4.9-.4,1.5.1,1.2.4,1.5c.3.4.7.6,1.1.6s.9-.2,1.1-.6c.3-.4.4-.9.4-1.5s-.1-1.2-.4-1.5c-.3-.4-.7-.6-1.1-.6ZM415.3,404.1c.8,0,1.4.3,1.8.8s.7,1.2.7,2.1-.2,1.6-.7,2.1c-.4.5-1.1.8-1.8.8s-1.4-.3-1.8-.8-.7-1.2-.7-2.1.2-1.6.7-2.1c.4-.5,1.1-.8,1.8-.8Z" fill="#00008b"/>
          <path id="DejaVuSans-75-2" d="M419.2,407.6v-3.3h.9v3.3c0,.5.1.9.3,1.2.2.3.5.4.9.4s.9-.2,1.1-.5c.3-.3.4-.7.4-1.3v-3.1h.9v5.5h-.9v-.8c-.2.3-.5.6-.8.7-.3.2-.6.2-1,.2-.6,0-1.1-.2-1.4-.6s-.5-1-.5-1.7h.1ZM421.4,404.1h0Z" fill="#00008b"/>
          <path id="DejaVuSans-6e-3" d="M430.2,406.4v3.3h-.9v-3.3c0-.5-.1-.9-.3-1.2-.2-.3-.5-.4-.9-.4s-.9.2-1.1.5c-.3.3-.4.7-.4,1.3v3.1h-.9v-5.5h.9v.9c.2-.3.5-.6.8-.7.3-.2.6-.2,1-.2.6,0,1.1.2,1.4.6s.5,1,.5,1.7h-.1Z" fill="#00008b"/>
          <path id="DejaVuSans-64-3" d="M435.5,405.1v-3h.9v7.6h-.9v-.8c-.2.3-.4.6-.7.7-.3.2-.6.2-1,.2-.7,0-1.2-.3-1.6-.8s-.6-1.2-.6-2.1.2-1.6.6-2.1,1-.8,1.6-.8.8,0,1,.2c.3.2.5.4.7.7v.2ZM432.5,407c0,.7.1,1.2.4,1.6s.6.6,1.1.6.8-.2,1.1-.6c.3-.4.4-.9.4-1.6s-.1-1.2-.4-1.6-.6-.6-1.1-.6-.8.2-1.1.6-.4.9-.4,1.6Z" fill="#00008b"/>
          <path id="DejaVuSans-2d" d="M437.8,406.6h2.6v.8h-2.6v-.8Z" fill="#00008b"/>
          <path id="DejaVuSans-57" d="M440.9,402.5h1l1.5,6.2,1.5-6.2h1.1l1.5,6.2,1.5-6.2h1l-1.8,7.3h-1.2l-1.5-6.3-1.6,6.3h-1.2l-1.8-7.3Z" fill="#00008b"/>
          <path id="DejaVuSans-61-2" d="M453.2,407c-.7,0-1.2,0-1.5.2s-.4.4-.4.9.1.6.3.8.5.3.9.3.9-.2,1.2-.5.5-.8.5-1.4v-.2h-1ZM455,406.6v3.1h-.9v-.8c-.2.3-.5.6-.8.7-.3.2-.7.2-1.1.2s-1-.2-1.3-.5-.5-.7-.5-1.3.2-1.1.6-1.4,1-.5,1.8-.5h1.3c0-.5-.1-.8-.4-1s-.7-.3-1.1-.3-.6,0-.9.1c-.3,0-.6.2-.9.3v-.8c.3-.1.6-.2,1-.3h.9c.8,0,1.4.2,1.8.6s.6,1,.6,1.9h-.1Z" fill="#00008b"/>
          <path id="DejaVuSans-76" d="M456.2,404.3h1l1.7,4.6,1.7-4.6h1l-2.1,5.5h-1.2l-2.1-5.5Z" fill="#00008b"/>
          <path id="DejaVuSans-65" d="M467.5,406.8v.4h-4.1c0,.6.2,1.1.6,1.4.3.3.8.5,1.4.5s.7,0,1-.1.6-.2,1-.4v.9c-.3.1-.7.2-1,.3s-.7.1-1,.1c-.9,0-1.6-.3-2.1-.8s-.8-1.2-.8-2.1.2-1.6.7-2.1,1.1-.8,2-.8,1.3.2,1.7.7c.4.5.6,1.1.6,1.9h0ZM466.6,406.5c0-.5-.1-.9-.4-1.2-.3-.3-.6-.4-1.1-.4s-.9.1-1.2.4-.5.7-.5,1.2h3.2Z" fill="#00008b"/>
          <path id="DejaVuSans-29" d="M468.8,402.2h.8c.5.8.9,1.5,1.1,2.3.2.7.4,1.5.4,2.2s-.1,1.5-.4,2.2c-.2.7-.6,1.5-1.1,2.3h-.8c.4-.7.8-1.5,1-2.2s.3-1.5.3-2.2-.1-1.5-.3-2.2c-.2-.7-.5-1.5-1-2.2v-.2Z" fill="#00008b"/>
        </g>
      </g>
      <g id="patch_6">
        <path d="M222.1,393.6c5.4,1.9,10.7,3.8,16.1,5.7l1-2.8c3.3,2.6,6.6,5.2,10,7.8-4.2,0-8.4-.2-12.6-.3l1-2.8c-5.4-1.9-10.7-3.8-16.1-5.7l.7-1.9h0Z" fill="#00008b" stroke="#000" stroke-linecap="round" stroke-linejoin="round"/>
      </g>
      <g id="text_3">
        <g>
          <path id="DejaVuSans-34" d="M518,278.8l-2.5,3.9h2.5v-3.9ZM517.7,277.9h1.2v4.8h1v.8h-1v1.7h-1v-1.7h-3.3v-1l3-4.6h0Z" fill="blue"/>
          <path id="DejaVuSans-30-4" d="M523.8,278.6c-.5,0-.9.3-1.1.8-.3.5-.4,1.3-.4,2.3s0,1.7.4,2.2c.3.5.6.8,1.1.8s.9-.3,1.2-.8.4-1.2.4-2.2,0-1.8-.4-2.3c-.3-.5-.6-.8-1.2-.8ZM523.8,277.8c.8,0,1.4.3,1.9,1,.4.6.6,1.6.6,2.8s-.2,2.2-.6,2.8c-.4.6-1.1,1-1.9,1s-1.4-.3-1.9-1c-.4-.6-.6-1.6-.6-2.8s.2-2.2.6-2.8c.4-.6,1.1-1,1.9-1Z" fill="blue"/>
          <path id="DejaVuSans-6d-4" d="M532.1,280.8c.2-.4.5-.7.8-.9s.7-.3,1.1-.3,1,.2,1.3.6.5,1,.5,1.7v3.3h-.9v-3.3c0-.5,0-.9-.3-1.2-.2-.3-.5-.4-.8-.4s-.8.2-1.1.5-.4.7-.4,1.3v3.1h-.9v-3.3c0-.5,0-.9-.3-1.2s-.5-.4-.9-.4-.8.2-1.1.5-.4.7-.4,1.3v3.1h-.9v-5.5h.9v.9c.2-.3.5-.6.7-.7s.6-.2,1-.2.7.1,1,.3c.3.2.5.5.6.9h.1Z" fill="blue"/>
          <path id="DejaVuSans-2c-3" d="M537.9,284h1v.8l-.8,1.6h-.6l.4-1.6v-.8h0Z" fill="blue"/>
          <path id="DejaVuSans-20-5" d="M539.9,285.2" fill="blue"/>
          <path id="DejaVuSans-33" d="M547.1,281.3c.5.1.8.3,1.1.6.3.3.4.7.4,1.2s-.2,1.3-.7,1.7c-.5.4-1.2.6-2.1.6h-.9c-.3,0-.7-.2-1-.3v-1c.3.2.6.3.9.4.3,0,.7.1,1,.1.6,0,1.1-.1,1.4-.4s.5-.6.5-1.1-.2-.8-.5-1-.7-.4-1.3-.4h-.9v-.8h.9c.5,0,.9,0,1.1-.3s.4-.5.4-.8,0-.7-.4-.9c-.3-.2-.6-.3-1.1-.3h-.9c-.3,0-.6.1-1,.3v-.9c.4-.1.7-.2,1.1-.2h.9c.7,0,1.3.2,1.8.5.4.3.7.8.7,1.4s0,.7-.3,1-.6.5-1,.6h-.1Z" fill="blue"/>
          <path id="DejaVuSans-30-5" d="M552.6,278.6c-.5,0-.9.3-1.1.8-.3.5-.4,1.3-.4,2.3s0,1.7.4,2.2c.3.5.6.8,1.1.8s.9-.3,1.2-.8.4-1.2.4-2.2,0-1.8-.4-2.3c-.3-.5-.6-.8-1.2-.8ZM552.6,277.8c.8,0,1.4.3,1.9,1,.4.6.6,1.6.6,2.8s-.2,2.2-.6,2.8c-.4.6-1.1,1-1.9,1s-1.4-.3-1.9-1c-.4-.6-.6-1.6-.6-2.8s.2-2.2.6-2.8c.4-.6,1.1-1,1.9-1Z" fill="blue"/>
          <path id="DejaVuSans-6d-5" d="M561,280.8c.2-.4.5-.7.8-.9s.7-.3,1.1-.3,1,.2,1.3.6.5,1,.5,1.7v3.3h-.9v-3.3c0-.5,0-.9-.3-1.2-.2-.3-.5-.4-.8-.4s-.8.2-1.1.5-.4.7-.4,1.3v3.1h-.9v-3.3c0-.5,0-.9-.3-1.2s-.5-.4-.9-.4-.8.2-1.1.5-.4.7-.4,1.3v3.1h-.9v-5.5h.9v.9c.2-.3.5-.6.7-.7s.6-.2,1-.2.7.1,1,.3c.3.2.5.5.6.9h.1Z" fill="blue"/>
          <path id="DejaVuSans-2c-4" d="M566.7,284h1v.8l-.8,1.6h-.6l.4-1.6v-.8h0Z" fill="blue"/>
          <path id="DejaVuSans-20-6" d="M568.7,285.2" fill="blue"/>
          <path id="DejaVuSans-32" d="M573.8,284.4h3.4v.8h-4.6v-.8c.4-.4.9-.9,1.5-1.6s1.1-1.1,1.2-1.3c.3-.4.5-.7.7-.9,0-.2.2-.5.2-.7,0-.4,0-.7-.4-.9-.3-.2-.6-.4-1.1-.4s-.6,0-1,.2c-.3.1-.7.3-1.1.5v-1c.4-.2.8-.3,1.1-.4.3,0,.7-.1.9-.1.8,0,1.4.2,1.8.6.4.4.7.9.7,1.5s0,.6-.2.9c0,.3-.3.6-.6.9,0,0-.3.4-.8.8-.4.5-1.1,1.1-1.8,1.9h0Z" fill="blue"/>
          <path id="DejaVuSans-30-6" d="M581.4,278.6c-.5,0-.9.3-1.1.8-.3.5-.4,1.3-.4,2.3s0,1.7.4,2.2c.3.5.6.8,1.1.8s.9-.3,1.2-.8.4-1.2.4-2.2,0-1.8-.4-2.3c-.3-.5-.6-.8-1.2-.8ZM581.4,277.8c.8,0,1.4.3,1.9,1,.4.6.6,1.6.6,2.8s-.2,2.2-.6,2.8c-.4.6-1.1,1-1.9,1s-1.4-.3-1.9-1c-.4-.6-.6-1.6-.6-2.8s.2-2.2.6-2.8c.4-.6,1.1-1,1.9-1Z" fill="blue"/>
          <path id="DejaVuSans-6d-6" d="M589.8,280.8c.2-.4.5-.7.8-.9s.7-.3,1.1-.3,1,.2,1.3.6.5,1,.5,1.7v3.3h-.9v-3.3c0-.5,0-.9-.3-1.2-.2-.3-.5-.4-.8-.4s-.8.2-1.1.5-.4.7-.4,1.3v3.1h-.9v-3.3c0-.5,0-.9-.3-1.2s-.5-.4-.9-.4-.8.2-1.1.5-.4.7-.4,1.3v3.1h-.9v-5.5h.9v.9c.2-.3.5-.6.7-.7s.6-.2,1-.2.7.1,1,.3c.3.2.5.5.6.9h.1Z" fill="blue"/>
          <path id="DejaVuSans-2c-5" d="M595.5,284h1v.8l-.8,1.6h-.6l.4-1.6v-.8h0Z" fill="blue"/>
          <path id="DejaVuSans-20-7" d="M597.5,285.2" fill="blue"/>
          <path id="DejaVuSans-31-2" d="M601.9,284.4h1.6v-5.6l-1.8.4v-.9l1.7-.4h1v6.5h1.6v.8h-4.2v-.8h.1Z" fill="blue"/>
          <path id="DejaVuSans-37" d="M607.9,277.9h4.7v.4l-2.6,6.9h-1l2.5-6.5h-3.5v-.8h-.1Z" fill="blue"/>
          <path id="DejaVuSans-6d-7" d="M618.6,280.8c.2-.4.5-.7.8-.9s.7-.3,1.1-.3,1,.2,1.3.6.5,1,.5,1.7v3.3h-.9v-3.3c0-.5,0-.9-.3-1.2-.2-.3-.5-.4-.8-.4s-.8.2-1.1.5-.4.7-.4,1.3v3.1h-.9v-3.3c0-.5,0-.9-.3-1.2s-.5-.4-.9-.4-.8.2-1.1.5-.4.7-.4,1.3v3.1h-.9v-5.5h.9v.9c.2-.3.5-.6.7-.7s.6-.2,1-.2.7.1,1,.3c.3.2.5.5.6.9h.1Z" fill="blue"/>
          <path id="DejaVuSans-2c-6" d="M624.3,284h1v.8l-.8,1.6h-.6l.4-1.6v-.8h0Z" fill="blue"/>
        </g>
        <g>
          <path id="DejaVuSans-31-3" d="M486.9,295.6h1.6v-5.6l-1.8.4v-.9l1.7-.4h1v6.5h1.6v.8h-4.2v-.8h0Z" fill="blue"/>
          <path id="DejaVuSans-35" d="M493.1,289.1h3.9v.8h-3v1.8c.1,0,.3,0,.4-.1h.4c.8,0,1.5.2,1.9.7.5.4.7,1,.7,1.8s-.2,1.4-.7,1.8-1.2.7-2.1.7h-.9c-.3,0-.6-.1-1-.2v-1c.3.2.6.3.9.4s.6.1,1,.1c.6,0,1-.1,1.3-.4s.5-.7.5-1.2-.2-.9-.5-1.2c-.3-.3-.8-.4-1.3-.4h-.8c-.3,0-.5.1-.8.3v-3.9Z" fill="blue"/>
          <path id="DejaVuSans-6d-8" d="M503.6,292c.2-.4.5-.7.8-.9s.7-.3,1.1-.3,1,.2,1.3.6.5,1,.5,1.7v3.3h-.9v-3.3c0-.5,0-.9-.3-1.2-.2-.3-.5-.4-.8-.4s-.8.2-1.1.5c-.3.3-.4.7-.4,1.3v3.1h-.9v-3.3c0-.5,0-.9-.3-1.2s-.5-.4-.9-.4-.8.2-1.1.5c-.3.3-.4.7-.4,1.3v3.1h-.9v-5.5h.9v.9c.2-.3.5-.6.7-.7s.6-.2,1-.2.7.1,1,.3c.3.2.5.5.6.9h0Z" fill="blue"/>
          <path id="DejaVuSans-2c-7" d="M509.3,295.2h1v.8l-.8,1.6h-.6l.4-1.6v-.8Z" fill="blue"/>
          <path id="DejaVuSans-20-8" d="M511.3,296.4" fill="blue"/>
          <path id="DejaVuSans-31-4" d="M515.7,295.6h1.6v-5.6l-1.8.4v-.9l1.7-.4h1v6.5h1.6v.8h-4.2v-.8h.1Z" fill="blue"/>
          <path id="DejaVuSans-32-2" d="M522.8,295.6h3.4v.8h-4.6v-.8c.4-.4.9-.9,1.5-1.6s1.1-1.1,1.2-1.3c.3-.4.5-.7.7-.9,0-.2.2-.5.2-.7,0-.4,0-.7-.4-.9-.3-.2-.6-.4-1.1-.4s-.6,0-1,.2c-.3.1-.7.3-1.1.5v-1c.4-.2.8-.3,1.1-.4.3,0,.7-.1.9-.1.8,0,1.4.2,1.8.6.4.4.7.9.7,1.5s0,.6-.2.9c0,.3-.3.6-.6.9,0,0-.3.4-.8.8-.4.5-1.1,1.1-1.8,1.9h0Z" fill="blue"/>
          <path id="DejaVuSans-6d-9" d="M532.4,292c.2-.4.5-.7.8-.9s.7-.3,1.1-.3,1,.2,1.3.6.5,1,.5,1.7v3.3h-.9v-3.3c0-.5,0-.9-.3-1.2-.2-.3-.5-.4-.8-.4s-.8.2-1.1.5-.4.7-.4,1.3v3.1h-.9v-3.3c0-.5,0-.9-.3-1.2s-.5-.4-.9-.4-.8.2-1.1.5-.4.7-.4,1.3v3.1h-.9v-5.5h.9v.9c.2-.3.5-.6.7-.7s.6-.2,1-.2.7.1,1,.3c.3.2.5.5.6.9h.1Z" fill="blue"/>
          <path id="DejaVuSans-2c-8" d="M538.1,295.2h1v.8l-.8,1.6h-.6l.4-1.6v-.8h0Z" fill="blue"/>
          <path id="DejaVuSans-20-9" d="M540.1,296.4" fill="blue"/>
          <path id="DejaVuSans-31-5" d="M544.5,295.6h1.6v-5.6l-1.8.4v-.9l1.7-.4h1v6.5h1.6v.8h-4.2v-.8h.1Z" fill="blue"/>
          <path id="DejaVuSans-30-7" d="M552.8,289.8c-.5,0-.9.3-1.1.8-.3.5-.4,1.3-.4,2.3s0,1.7.4,2.2c.3.5.6.8,1.1.8s.9-.3,1.2-.8.4-1.2.4-2.2,0-1.8-.4-2.3c-.3-.5-.6-.8-1.2-.8ZM552.8,289c.8,0,1.4.3,1.9,1,.4.6.6,1.6.6,2.8s-.2,2.2-.6,2.8c-.4.6-1.1,1-1.9,1s-1.4-.3-1.9-1c-.4-.6-.6-1.6-.6-2.8s.2-2.2.6-2.8c.4-.6,1.1-1,1.9-1Z" fill="blue"/>
          <path id="DejaVuSans-6d-10" d="M561.2,292c.2-.4.5-.7.8-.9s.7-.3,1.1-.3,1,.2,1.3.6.5,1,.5,1.7v3.3h-.9v-3.3c0-.5,0-.9-.3-1.2-.2-.3-.5-.4-.8-.4s-.8.2-1.1.5-.4.7-.4,1.3v3.1h-.9v-3.3c0-.5,0-.9-.3-1.2s-.5-.4-.9-.4-.8.2-1.1.5-.4.7-.4,1.3v3.1h-.9v-5.5h.9v.9c.2-.3.5-.6.7-.7s.6-.2,1-.2.7.1,1,.3c.3.2.5.5.6.9h.1Z" fill="blue"/>
          <path id="DejaVuSans-20-10" d="M565.8,296.4" fill="blue"/>
          <path id="DejaVuSans-42-2" d="M570.9,292.9v2.7h1.6c.5,0,.9-.1,1.2-.3.3-.2.4-.6.4-1s0-.8-.4-1c-.3-.2-.6-.3-1.2-.3h-1.6ZM570.9,289.9v2.2h1.5c.5,0,.8,0,1.1-.3s.4-.5.4-.8,0-.6-.4-.8c-.2-.2-.6-.3-1.1-.3h-1.5ZM569.9,289.1h2.5c.8,0,1.3.2,1.7.5s.6.8.6,1.3,0,.8-.3,1.1-.5.4-.9.5c.5.1.9.3,1.1.7.3.3.4.7.4,1.2s-.2,1.2-.7,1.5c-.4.4-1.1.5-1.9.5h-2.6v-7.3h.1Z" fill="blue"/>
          <path id="DejaVuSans-61-3" d="M579.2,293.6c-.7,0-1.2,0-1.5.2s-.4.4-.4.9,0,.6.3.8c.2.2.5.3.9.3s.9-.2,1.2-.5.5-.8.5-1.4v-.2h-1ZM581,293.3v3.1h-.9v-.8c-.2.3-.5.6-.8.7-.3.2-.7.2-1.1.2s-1-.2-1.3-.5-.5-.7-.5-1.3.2-1.1.6-1.4c.4-.3,1-.5,1.8-.5h1.3c0-.5,0-.8-.4-1s-.7-.3-1.1-.3-.6,0-.9.1c-.3,0-.6.2-.9.3v-.8c.3-.1.6-.2,1-.3h.9c.8,0,1.4.2,1.8.6.4.4.6,1,.6,1.9h0Z" fill="blue"/>
          <path id="DejaVuSans-6e-4" d="M587.4,293.1v3.3h-.9v-3.3c0-.5,0-.9-.3-1.2-.2-.3-.5-.4-.9-.4s-.9.2-1.1.5c-.3.3-.4.7-.4,1.3v3.1h-.9v-5.5h.9v.9c.2-.3.5-.6.8-.7.3-.2.6-.2,1-.2.6,0,1.1.2,1.4.6.3.4.5,1,.5,1.7h0Z" fill="blue"/>
          <path id="DejaVuSans-64-4" d="M592.8,291.8v-3h.9v7.6h-.9v-.8c-.2.3-.4.6-.7.7-.3.2-.6.2-1,.2-.7,0-1.2-.3-1.6-.8-.4-.5-.6-1.2-.6-2.1s.2-1.6.6-2.1c.4-.5,1-.8,1.6-.8s.8,0,1,.2c.3.2.5.4.7.7v.2ZM589.8,293.7c0,.7,0,1.2.4,1.6.3.4.6.6,1.1.6s.8-.2,1.1-.6.4-.9.4-1.6,0-1.2-.4-1.6c-.3-.4-.6-.6-1.1-.6s-.8.2-1.1.6-.4.9-.4,1.6Z" fill="blue"/>
          <path id="DejaVuSans-73-2" d="M599.1,291.1v.9c-.3-.1-.5-.2-.8-.3h-.9c-.4,0-.8,0-1,.2-.2.1-.3.3-.3.6s0,.4.2.5.5.2,1,.3h.3c.6.2,1.1.4,1.4.6s.4.6.4,1-.2.9-.6,1.2c-.4.3-1,.4-1.7.4h-.9c-.3,0-.7-.1-1-.3v-.9c.3.2.7.3,1,.4.3,0,.6.1,1,.1s.7,0,1-.2c.2-.1.3-.3.3-.6s0-.4-.2-.6c-.2-.1-.5-.3-1.1-.4h-.3c-.6-.2-1-.4-1.2-.6s-.4-.6-.4-1,.2-.9.5-1.2c.4-.3.9-.4,1.6-.4h.9c.3,0,.6.1.8.2h0Z" fill="blue"/>
          <path id="DejaVuSans-20-11" d="M599.8,296.4" fill="blue"/>
          <path id="DejaVuSans-28-2" d="M606.1,288.8c-.4.7-.8,1.5-1,2.2s-.3,1.5-.3,2.2,0,1.5.3,2.2.5,1.5,1,2.2h-.8c-.5-.8-.9-1.5-1.1-2.3-.2-.7-.4-1.5-.4-2.2s0-1.5.4-2.2c.2-.7.6-1.5,1.1-2.3h.8v.2Z" fill="blue"/>
          <path id="DejaVuSans-53" d="M612.3,289.3v1c-.4-.2-.7-.3-1.1-.4-.3,0-.7-.1-1-.1-.5,0-1,.1-1.2.3-.3.2-.4.5-.4.9s0,.6.3.7c.2.2.6.3,1.1.4h.6c.7.3,1.3.5,1.6.9s.5.8.5,1.4-.2,1.2-.7,1.6-1.2.5-2.1.5-.7,0-1.1-.1c-.4,0-.8-.2-1.2-.3v-1c.4.2.8.4,1.2.5s.8.2,1.1.2c.6,0,1-.1,1.3-.3.3-.2.5-.5.5-.9s0-.6-.3-.8-.6-.4-1.1-.5h-.6c-.7-.3-1.3-.5-1.6-.8s-.5-.7-.5-1.3.2-1.2.7-1.5c.5-.4,1.1-.6,1.9-.6h1c.4,0,.7.2,1.1.3h0Z" fill="blue"/>
          <path id="DejaVuSans-6b" d="M614.2,288.8h.9v4.5l2.7-2.4h1.1l-2.9,2.6,3,2.9h-1.2l-2.8-2.7v2.7h-.9v-7.6h.1Z" fill="blue"/>
          <path id="DejaVuSans-79" d="M621.9,296.9c-.3.7-.5,1.1-.7,1.3-.2.2-.6.3-1,.3h-.7v-.8h.5c.2,0,.4,0,.6-.2s.3-.4.5-.8l.2-.4-2.2-5.4h1l1.7,4.3,1.7-4.3h1l-2.4,6h-.2Z" fill="blue"/>
          <path id="DejaVuSans-77" d="M625,290.9h.9l1.1,4.3,1.1-4.3h1.1l1.1,4.3,1.1-4.3h.9l-1.4,5.5h-1.1l-1.2-4.5-1.2,4.5h-1.1l-1.4-5.5h.1Z" fill="blue"/>
          <path id="DejaVuSans-61-4" d="M636.2,293.6c-.7,0-1.2,0-1.5.2s-.4.4-.4.9,0,.6.3.8c.2.2.5.3.9.3s.9-.2,1.2-.5.5-.8.5-1.4v-.2h-1ZM638,293.3v3.1h-.9v-.8c-.2.3-.5.6-.8.7-.3.2-.7.2-1.1.2s-1-.2-1.3-.5-.5-.7-.5-1.3.2-1.1.6-1.4c.4-.3,1-.5,1.8-.5h1.3c0-.5,0-.8-.4-1s-.7-.3-1.1-.3-.6,0-.9.1c-.3,0-.6.2-.9.3v-.8c.3-.1.6-.2,1-.3h.9c.8,0,1.4.2,1.8.6.4.4.6,1,.6,1.9h0Z" fill="blue"/>
          <path id="DejaVuSans-76-2" d="M639.2,290.9h1l1.7,4.6,1.7-4.6h1l-2.1,5.5h-1.2l-2.1-5.5h0Z" fill="blue"/>
          <path id="DejaVuSans-65-2" d="M650.5,293.4v.4h-4.1c0,.6.2,1.1.6,1.4.3.3.8.5,1.4.5s.7,0,1-.1.6-.2,1-.4v.9c-.3.1-.7.2-1,.3s-.7.1-1,.1c-.9,0-1.6-.3-2.1-.8s-.8-1.2-.8-2.1.2-1.6.7-2.1,1.1-.8,2-.8,1.3.2,1.7.7.6,1.1.6,1.9h0ZM649.6,293.2c0-.5,0-.9-.4-1.2-.3-.3-.6-.4-1.1-.4s-.9.1-1.2.4-.5.7-.5,1.2h3.2Z" fill="blue"/>
          <path id="DejaVuSans-29-2" d="M651.8,288.8h.8c.5.8.9,1.5,1.1,2.3.2.7.4,1.5.4,2.2s0,1.5-.4,2.2c-.2.7-.6,1.5-1.1,2.3h-.8c.4-.7.8-1.5,1-2.2s.3-1.5.3-2.2,0-1.5-.3-2.2-.5-1.5-1-2.2v-.2Z" fill="blue"/>
        </g>
      </g>
      <g id="text_4">
        <g>
          <path id="DejaVuSans-32-3" d="M316,320.2h3.4v.8h-4.6v-.8c.4-.4.9-.9,1.5-1.6s1.1-1.1,1.2-1.3c.3-.4.5-.7.7-.9.1-.2.2-.5.2-.7,0-.4-.1-.7-.4-.9-.3-.2-.6-.4-1.1-.4s-.6,0-1,.2c-.3.1-.7.3-1.1.5v-1c.4-.2.8-.3,1.1-.4.3,0,.7-.1.9-.1.8,0,1.4.2,1.8.6s.7.9.7,1.5,0,.6-.2.9c-.1.3-.3.6-.6.9,0,0-.3.4-.8.8-.4.5-1.1,1.1-1.8,1.9h0Z" fill="green"/>
          <path id="DejaVuSans-6d-11" d="M325.7,316.6c.2-.4.5-.7.8-.9s.7-.3,1.1-.3,1,.2,1.3.6.5,1,.5,1.7v3.3h-.9v-3.3c0-.5,0-.9-.3-1.2-.2-.3-.5-.4-.8-.4s-.8.2-1.1.5c-.3.3-.4.7-.4,1.3v3.1h-.9v-3.3c0-.5,0-.9-.3-1.2s-.5-.4-.9-.4-.8.2-1.1.5c-.3.3-.4.7-.4,1.3v3.1h-.9v-5.5h.9v.9c.2-.3.5-.6.7-.7s.6-.2,1-.2.7.1,1,.3c.3.2.5.5.6.9h0Z" fill="green"/>
          <path id="DejaVuSans-20-12" d="M330.2,321" fill="green"/>
          <path id="DejaVuSans-28-3" d="M336.5,313.5c-.4.7-.8,1.5-1,2.2s-.3,1.5-.3,2.2.1,1.5.3,2.2.5,1.5,1,2.2h-.8c-.5-.8-.9-1.5-1.1-2.3-.2-.7-.4-1.5-.4-2.2s.1-1.5.4-2.2c.2-.7.6-1.5,1.1-2.3h.8v.2Z" fill="green"/>
          <path id="DejaVuSans-56" d="M340.2,321l-2.8-7.3h1l2.3,6.1,2.3-6.1h1l-2.8,7.3h-1.1.1Z" fill="green"/>
          <path id="DejaVuSans-48" d="M345.1,313.7h1v3h3.6v-3h1v7.3h-1v-3.5h-3.6v3.5h-1v-7.3Z" fill="green"/>
          <path id="DejaVuSans-46" d="M352.7,313.7h4.2v.8h-3.2v2.1h2.9v.8h-2.9v3.5h-1v-7.3h0Z" fill="green"/>
          <path id="DejaVuSans-2c-9" d="M358.6,319.8h1v.8l-.8,1.6h-.6l.4-1.6v-.8Z" fill="green"/>
          <path id="DejaVuSans-20-13" d="M360.6,321" fill="green"/>
          <path id="DejaVuSans-4c" d="M364.8,313.7h1v6.5h3.6v.8h-4.5v-7.3h-.1Z" fill="green"/>
          <path id="DejaVuSans-69" d="M370.3,315.6h.9v5.5h-.9v-5.5ZM370.3,313.4h.9v1.1h-.9v-1.1Z" fill="green"/>
          <path id="DejaVuSans-6e-5" d="M377.6,317.7v3.3h-.9v-3.3c0-.5-.1-.9-.3-1.2-.2-.3-.5-.4-.9-.4s-.9.2-1.1.5c-.3.3-.4.7-.4,1.3v3.1h-.9v-5.5h.9v.9c.2-.3.5-.6.8-.7.3-.2.6-.2,1-.2.6,0,1.1.2,1.4.6s.5,1,.5,1.7h-.1Z" fill="green"/>
          <path id="DejaVuSans-65-3" d="M384.1,318.1v.4h-4.1c0,.6.2,1.1.6,1.4.3.3.8.5,1.4.5s.7,0,1-.1.6-.2,1-.4v.9c-.3.1-.7.2-1,.3s-.7.1-1,.1c-.9,0-1.6-.3-2.1-.8s-.8-1.2-.8-2.1.2-1.6.7-2.1,1.1-.8,2-.8,1.3.2,1.7.7c.4.5.6,1.1.6,1.9h0ZM383.2,317.8c0-.5-.1-.9-.4-1.2-.3-.3-.6-.4-1.1-.4s-.9.1-1.2.4-.5.7-.5,1.2h3.2Z" fill="green"/>
          <path id="DejaVuSans-2d-2" d="M385.1,317.9h2.6v.8h-2.6v-.8Z" fill="green"/>
          <path id="DejaVuSans-6f-3" d="M391.5,316.2c-.5,0-.9.2-1.1.6s-.4.9-.4,1.5.1,1.2.4,1.5c.3.4.7.6,1.1.6s.9-.2,1.1-.6c.3-.4.4-.9.4-1.5s-.1-1.2-.4-1.5c-.3-.4-.7-.6-1.1-.6ZM391.5,315.4c.8,0,1.4.3,1.8.8s.7,1.2.7,2.1-.2,1.6-.7,2.1c-.4.5-1.1.8-1.8.8s-1.4-.3-1.8-.8-.7-1.2-.7-2.1.2-1.6.7-2.1c.4-.5,1.1-.8,1.8-.8Z" fill="green"/>
          <path id="DejaVuSans-66" d="M398.2,313.4v.7h-.9c-.3,0-.5,0-.7.2s-.2.4-.2.7v.5h1.5v.7h-1.5v4.8h-.9v-4.8h-.9v-.7h.9v-.4c0-.6.1-1.1.4-1.3.3-.3.7-.4,1.3-.4h1Z" fill="green"/>
          <path id="DejaVuSans-2d-3" d="M398,317.9h2.6v.8h-2.6v-.8Z" fill="green"/>
          <path id="DejaVuSans-53-2" d="M406.5,314v1c-.4-.2-.7-.3-1.1-.4-.3,0-.7-.1-1-.1-.5,0-1,.1-1.2.3-.3.2-.4.5-.4.9s0,.6.3.7c.2.2.6.3,1.1.4h.6c.7.3,1.3.5,1.6.9s.5.8.5,1.4-.2,1.2-.7,1.6-1.2.5-2.1.5-.7,0-1.1-.1c-.4,0-.8-.2-1.2-.3v-1c.4.2.8.4,1.2.5.4.1.8.2,1.1.2.6,0,1-.1,1.3-.3.3-.2.5-.5.5-.9s-.1-.6-.3-.8-.6-.4-1.1-.5h-.6c-.7-.3-1.3-.5-1.6-.8-.3-.3-.5-.7-.5-1.3s.2-1.2.7-1.5c.5-.4,1.1-.6,1.9-.6h1c.4,0,.7.2,1.1.3h0Z" fill="green"/>
          <path id="DejaVuSans-69-2" d="M408.4,315.6h.9v5.5h-.9v-5.5ZM408.4,313.4h.9v1.1h-.9v-1.1Z" fill="green"/>
          <path id="DejaVuSans-67" d="M414.8,318.2c0-.7-.1-1.2-.4-1.5-.3-.4-.6-.5-1.1-.5s-.9.2-1.1.5c-.3.4-.4.9-.4,1.5s.1,1.2.4,1.5c.3.4.6.5,1.1.5s.9-.2,1.1-.5c.3-.4.4-.9.4-1.5ZM415.7,320.4c0,.9-.2,1.6-.6,2.1s-1,.7-1.9.7h-.9c-.3,0-.6-.1-.8-.2v-.9c.3.1.5.2.8.3.3,0,.5.1.8.1.6,0,1-.2,1.3-.5s.4-.8.4-1.4v-.4c-.2.3-.4.6-.7.7s-.6.2-1,.2c-.7,0-1.2-.3-1.6-.8s-.6-1.2-.6-2,.2-1.5.6-2,1-.8,1.6-.8.8,0,1,.2.5.4.7.7v-.8h.9v4.8h0Z" fill="green"/>
          <path id="DejaVuSans-68" d="M422.1,317.7v3.3h-.9v-3.3c0-.5-.1-.9-.3-1.2-.2-.3-.5-.4-.9-.4s-.9.2-1.1.5c-.3.3-.4.7-.4,1.3v3.1h-.9v-7.6h.9v3c.2-.3.5-.6.8-.7.3-.2.6-.2,1-.2.6,0,1.1.2,1.4.6s.5,1,.5,1.7h-.1Z" fill="green"/>
          <path id="DejaVuSans-74" d="M424.8,314v1.6h1.9v.7h-1.9v3c0,.4,0,.7.2.9s.4.2.7.2h.9v.8h-.9c-.7,0-1.2-.1-1.4-.4-.3-.3-.4-.7-.4-1.4v-3h-.7v-.7h.7v-1.6h.9,0Z" fill="green"/>
          <path id="DejaVuSans-29-3" d="M427.6,313.5h.8c.5.8.9,1.5,1.1,2.3.2.7.4,1.5.4,2.2s-.1,1.5-.4,2.2c-.2.7-.6,1.5-1.1,2.3h-.8c.4-.7.8-1.5,1-2.2s.3-1.5.3-2.2-.1-1.5-.3-2.2c-.2-.7-.5-1.5-1-2.2v-.2Z" fill="green"/>
        </g>
      </g>
      <g id="text_5">
        <g>
          <path id="DejaVuSans-37-2" d="M217.5,239.8h4.7v.4l-2.6,6.9h-1l2.5-6.5h-3.5v-.8h0Z" fill="red"/>
          <path id="DejaVuSans-30-8" d="M226.2,240.5c-.5,0-.9.3-1.1.8-.3.5-.4,1.3-.4,2.3s.1,1.7.4,2.2c.3.5.6.8,1.1.8s.9-.3,1.2-.8.4-1.2.4-2.2-.1-1.8-.4-2.3c-.3-.5-.6-.8-1.2-.8ZM226.2,239.7c.8,0,1.4.3,1.9,1,.4.6.6,1.6.6,2.8s-.2,2.2-.6,2.8c-.4.6-1.1,1-1.9,1s-1.4-.3-1.9-1c-.4-.6-.6-1.6-.6-2.8s.2-2.2.6-2.8c.4-.6,1.1-1,1.9-1Z" fill="red"/>
          <path id="DejaVuSans-63" d="M234.3,241.9v.8c-.3-.1-.5-.2-.8-.3s-.5-.1-.8-.1c-.6,0-1,.2-1.4.6-.3.4-.5.9-.5,1.6s.2,1.2.5,1.6c.3.4.8.6,1.4.6s.5,0,.8-.1.5-.2.8-.3v.8c-.3.1-.5.2-.8.3h-.9c-.8,0-1.5-.3-2-.8s-.7-1.2-.7-2.1.2-1.6.7-2.1,1.2-.8,2-.8h.8c.3,0,.5.1.8.3h0Z" fill="red"/>
          <path id="DejaVuSans-6d-12" d="M240.1,242.7c.2-.4.5-.7.8-.9s.7-.3,1.1-.3,1,.2,1.3.6c.3.4.5,1,.5,1.7v3.3h-.9v-3.3c0-.5,0-.9-.3-1.2-.2-.3-.5-.4-.8-.4s-.8.2-1.1.5-.4.7-.4,1.3v3.1h-.9v-3.3c0-.5,0-.9-.3-1.2s-.5-.4-.9-.4-.8.2-1.1.5-.4.7-.4,1.3v3.1h-.9v-5.5h.9v.9c.2-.3.5-.6.7-.7s.6-.2,1-.2.7.1,1,.3.5.5.6.9h0Z" fill="red"/>
          <path id="DejaVuSans-20-14" d="M244.6,247.1" fill="red"/>
          <path id="DejaVuSans-28-4" d="M250.9,239.5c-.4.7-.8,1.5-1,2.2s-.3,1.5-.3,2.2.1,1.5.3,2.2.5,1.5,1,2.2h-.8c-.5-.8-.9-1.5-1.1-2.3-.2-.7-.4-1.5-.4-2.2s.1-1.5.4-2.2c.2-.7.6-1.5,1.1-2.3h.8v.2Z" fill="red"/>
          <path id="DejaVuSans-55" d="M252.6,239.8h1v4.4c0,.8.1,1.3.4,1.7.3.3.7.5,1.4.5s1.1-.2,1.4-.5.4-.9.4-1.7v-4.4h1v4.6c0,1-.2,1.7-.7,2.2s-1.2.7-2.1.7-1.6-.2-2.1-.7-.7-1.2-.7-2.2v-4.6h0Z" fill="red"/>
          <path id="DejaVuSans-48-2" d="M260,239.8h1v3h3.6v-3h1v7.3h-1v-3.5h-3.6v3.5h-1v-7.3Z" fill="red"/>
          <path id="DejaVuSans-46-2" d="M267.5,239.8h4.2v.8h-3.2v2.1h2.9v.8h-2.9v3.5h-1v-7.3h0Z" fill="red"/>
          <path id="DejaVuSans-2c-10" d="M273.5,245.9h1v.8l-.8,1.6h-.6l.4-1.6v-.8Z" fill="red"/>
          <path id="DejaVuSans-20-15" d="M275.5,247.1" fill="red"/>
          <path id="DejaVuSans-4c-2" d="M279.6,239.8h1v6.5h3.6v.8h-4.5v-7.3h-.1Z" fill="red"/>
          <path id="DejaVuSans-69-3" d="M285.2,241.6h.9v5.5h-.9v-5.5ZM285.2,239.5h.9v1.1h-.9v-1.1Z" fill="red"/>
          <path id="DejaVuSans-6e-6" d="M292.5,243.8v3.3h-.9v-3.3c0-.5-.1-.9-.3-1.2-.2-.3-.5-.4-.9-.4s-.9.2-1.1.5c-.3.3-.4.7-.4,1.3v3.1h-.9v-5.5h.9v.9c.2-.3.5-.6.8-.7.3-.2.6-.2,1-.2.6,0,1.1.2,1.4.6.3.4.5,1,.5,1.7h-.1Z" fill="red"/>
          <path id="DejaVuSans-65-4" d="M298.9,244.2v.4h-4.1c0,.6.2,1.1.6,1.4.3.3.8.5,1.4.5s.7,0,1-.1.6-.2,1-.4v.9c-.3.1-.7.2-1,.3s-.7.1-1,.1c-.9,0-1.6-.3-2.1-.8s-.8-1.2-.8-2.1.2-1.6.7-2.1,1.1-.8,2-.8,1.3.2,1.7.7c.4.5.6,1.1.6,1.9h0ZM298,243.9c0-.5-.1-.9-.4-1.2s-.6-.4-1.1-.4-.9.1-1.2.4-.5.7-.5,1.2h3.2Z" fill="red"/>
          <path id="DejaVuSans-2d-4" d="M300,244h2.6v.8h-2.6v-.8Z" fill="red"/>
          <path id="DejaVuSans-6f-4" d="M306.3,242.3c-.5,0-.9.2-1.1.6s-.4.9-.4,1.5.1,1.2.4,1.5c.3.4.7.6,1.1.6s.9-.2,1.1-.6c.3-.4.4-.9.4-1.5s-.1-1.2-.4-1.5c-.3-.4-.7-.6-1.1-.6ZM306.3,241.5c.8,0,1.4.3,1.8.8s.7,1.2.7,2.1-.2,1.6-.7,2.1c-.4.5-1.1.8-1.8.8s-1.4-.3-1.8-.8-.7-1.2-.7-2.1.2-1.6.7-2.1c.4-.5,1.1-.8,1.8-.8Z" fill="red"/>
          <path id="DejaVuSans-66-2" d="M313.1,239.5v.7h-.9c-.3,0-.5,0-.7.2-.1.1-.2.4-.2.7v.5h1.5v.7h-1.5v4.8h-.9v-4.8h-.9v-.7h.9v-.4c0-.6.1-1.1.4-1.3.3-.3.7-.4,1.3-.4h1Z" fill="red"/>
          <path id="DejaVuSans-2d-5" d="M312.9,244h2.6v.8h-2.6v-.8Z" fill="red"/>
          <path id="DejaVuSans-53-3" d="M321.3,240.1v1c-.4-.2-.7-.3-1.1-.4-.3,0-.7-.1-1-.1-.5,0-1,.1-1.2.3-.3.2-.4.5-.4.9s0,.6.3.7c.2.2.6.3,1.1.4h.6c.7.3,1.3.5,1.6.9s.5.8.5,1.4-.2,1.2-.7,1.6c-.5.4-1.2.5-2.1.5s-.7,0-1.1-.1c-.4,0-.8-.2-1.2-.3v-1c.4.2.8.4,1.2.5.4.1.8.2,1.1.2.6,0,1-.1,1.3-.3s.5-.5.5-.9-.1-.6-.3-.8-.6-.4-1.1-.5h-.6c-.7-.3-1.3-.5-1.6-.8-.3-.3-.5-.7-.5-1.3s.2-1.2.7-1.5c.5-.4,1.1-.6,1.9-.6h1c.4,0,.7.2,1.1.3h0Z" fill="red"/>
          <path id="DejaVuSans-69-4" d="M323.3,241.6h.9v5.5h-.9v-5.5ZM323.3,239.5h.9v1.1h-.9v-1.1Z" fill="red"/>
          <path id="DejaVuSans-67-2" d="M329.6,244.3c0-.7-.1-1.2-.4-1.5-.3-.4-.6-.5-1.1-.5s-.9.2-1.1.5c-.3.4-.4.9-.4,1.5s.1,1.2.4,1.5c.3.4.6.5,1.1.5s.9-.2,1.1-.5c.3-.4.4-.9.4-1.5ZM330.5,246.4c0,.9-.2,1.6-.6,2.1s-1,.7-1.9.7h-.9c-.3,0-.6-.1-.8-.2v-.9c.3.1.5.2.8.3.3,0,.5.1.8.1.6,0,1-.2,1.3-.5s.4-.8.4-1.4v-.4c-.2.3-.4.6-.7.7s-.6.2-1,.2c-.7,0-1.2-.3-1.6-.8s-.6-1.2-.6-2,.2-1.5.6-2,1-.8,1.6-.8.8,0,1,.2.5.4.7.7v-.8h.9v4.8h0Z" fill="red"/>
          <path id="DejaVuSans-68-2" d="M336.9,243.8v3.3h-.9v-3.3c0-.5-.1-.9-.3-1.2-.2-.3-.5-.4-.9-.4s-.9.2-1.1.5c-.3.3-.4.7-.4,1.3v3.1h-.9v-7.6h.9v3c.2-.3.5-.6.8-.7.3-.2.6-.2,1-.2.6,0,1.1.2,1.4.6.3.4.5,1,.5,1.7h-.1Z" fill="red"/>
          <path id="DejaVuSans-74-2" d="M339.6,240.1v1.6h1.9v.7h-1.9v3c0,.4,0,.7.2.9s.4.2.7.2h.9v.8h-.9c-.7,0-1.2-.1-1.4-.4-.3-.3-.4-.7-.4-1.4v-3h-.7v-.7h.7v-1.6h.9,0Z" fill="red"/>
          <path id="DejaVuSans-29-4" d="M342.5,239.5h.8c.5.8.9,1.5,1.1,2.3.2.7.4,1.5.4,2.2s-.1,1.5-.4,2.2c-.2.7-.6,1.5-1.1,2.3h-.8c.4-.7.8-1.5,1-2.2s.3-1.5.3-2.2-.1-1.5-.3-2.2c-.2-.7-.5-1.5-1-2.2v-.2Z" fill="red"/>
        </g>
      </g>
      <g id="text_6">
        <g>
          <path id="DejaVuSans-38-2" d="M13.9,268.3c-.5,0-.8.1-1.1.4s-.4.6-.4,1,.1.8.4,1c.3.3.6.4,1.1.4s.8-.1,1.1-.4.4-.6.4-1-.1-.8-.4-1c-.3-.3-.6-.4-1.1-.4ZM13,267.9c-.4-.1-.8-.3-1-.6-.2-.3-.4-.6-.4-1.1s.2-1,.6-1.4c.4-.3,1-.5,1.7-.5s1.3.2,1.7.5.6.8.6,1.4-.1.8-.4,1.1c-.2.3-.6.5-1,.6.5.1.8.3,1.1.7.3.3.4.7.4,1.2s-.2,1.3-.6,1.6c-.4.4-1,.6-1.9.6s-1.4-.2-1.9-.6c-.4-.4-.6-.9-.6-1.6s.1-.9.4-1.2c.3-.3.6-.5,1.1-.7h.2ZM12.6,266.3c0,.4.1.7.4.9.2.2.6.3,1,.3s.8-.1,1-.3c.2-.2.4-.5.4-.9s-.1-.7-.4-.9c-.2-.2-.6-.3-1-.3s-.8.1-1,.3c-.2.2-.4.5-.4.9Z" fill="orange"/>
          <path id="DejaVuSans-30-9" d="M20.3,265.1c-.5,0-.9.3-1.1.8-.3.5-.4,1.3-.4,2.3s.1,1.7.4,2.2.6.8,1.1.8.9-.3,1.2-.8c.3-.5.4-1.2.4-2.2s-.1-1.8-.4-2.3-.6-.8-1.2-.8ZM20.3,264.3c.8,0,1.4.3,1.9,1,.4.6.6,1.6.6,2.8s-.2,2.2-.6,2.8c-.4.6-1.1,1-1.9,1s-1.4-.3-1.9-1c-.4-.6-.6-1.6-.6-2.8s.2-2.2.6-2.8c.4-.6,1.1-1,1.9-1Z" fill="orange"/>
          <path id="DejaVuSans-6d-13" d="M28.7,267.3c.2-.4.5-.7.8-.9s.7-.3,1.1-.3,1,.2,1.3.6c.3.4.5,1,.5,1.7v3.3h-.9v-3.3c0-.5,0-.9-.3-1.2-.2-.3-.5-.4-.8-.4s-.8.2-1.1.5c-.3.3-.4.7-.4,1.3v3.1h-.9v-3.3c0-.5,0-.9-.3-1.2s-.5-.4-.9-.4-.8.2-1.1.5c-.3.3-.4.7-.4,1.3v3.1h-.9v-5.5h.9v.9c.2-.3.5-.6.7-.7s.6-.2,1-.2.7.1,1,.3c.3.2.5.5.6.9h0Z" fill="orange"/>
          <path id="DejaVuSans-2c-11" d="M34.4,270.5h1v.8l-.8,1.6h-.6l.4-1.6s0-.8,0-.8Z" fill="orange"/>
          <path id="DejaVuSans-20-16" d="M36.4,271.8" fill="orange"/>
          <path id="DejaVuSans-34-2" d="M43.4,265.3l-2.5,3.9h2.5v-3.9ZM43.1,264.5h1.2v4.8h1v.8h-1v1.7h-1v-1.7h-3.3v-1l3-4.6h0Z" fill="orange"/>
          <path id="DejaVuSans-30-10" d="M49.1,265.1c-.5,0-.9.3-1.1.8-.3.5-.4,1.3-.4,2.3s0,1.7.4,2.2c.3.5.6.8,1.1.8s.9-.3,1.2-.8.4-1.2.4-2.2,0-1.8-.4-2.3c-.3-.5-.6-.8-1.2-.8ZM49.1,264.3c.8,0,1.4.3,1.9,1,.4.6.6,1.6.6,2.8s-.2,2.2-.6,2.8c-.4.6-1.1,1-1.9,1s-1.4-.3-1.9-1c-.4-.6-.6-1.6-.6-2.8s.2-2.2.6-2.8c.4-.6,1.1-1,1.9-1Z" fill="orange"/>
          <path id="DejaVuSans-6d-14" d="M57.5,267.3c.2-.4.5-.7.8-.9s.7-.3,1.1-.3,1,.2,1.3.6.5,1,.5,1.7v3.3h-.9v-3.3c0-.5,0-.9-.3-1.2-.2-.3-.5-.4-.8-.4s-.8.2-1.1.5-.4.7-.4,1.3v3.1h-.9v-3.3c0-.5,0-.9-.3-1.2s-.5-.4-.9-.4-.8.2-1.1.5-.4.7-.4,1.3v3.1h-.9v-5.5h.9v.9c.2-.3.5-.6.7-.7s.6-.2,1-.2.7.1,1,.3c.3.2.5.5.6.9h.1Z" fill="orange"/>
          <path id="DejaVuSans-20-17" d="M62.1,271.8" fill="orange"/>
          <path id="DejaVuSans-4e" d="M66.2,264.5h1.3l3.2,6.1v-6.1h1v7.3h-1.3l-3.2-6.1v6.1h-1v-7.3Z" fill="orange"/>
          <path id="DejaVuSans-56-2" d="M75.6,271.8l-2.8-7.3h1l2.3,6.1,2.3-6.1h1l-2.8,7.3h-1.1,0Z" fill="orange"/>
          <path id="DejaVuSans-49" d="M80.5,264.5h1v7.3h-1v-7.3Z" fill="orange"/>
          <path id="DejaVuSans-53-4" d="M87.9,264.7v1c-.4-.2-.7-.3-1.1-.4-.3,0-.7-.1-1-.1-.5,0-1,.1-1.2.3-.3.2-.4.5-.4.9s0,.6.3.7c.2.2.6.3,1.1.4h.6c.7.3,1.3.5,1.6.9s.5.8.5,1.4-.2,1.2-.7,1.6-1.2.5-2.1.5-.7,0-1.1-.1c-.4,0-.8-.2-1.2-.3v-1c.4.2.8.4,1.2.5.4.1.8.2,1.1.2.6,0,1-.1,1.3-.3.3-.2.5-.5.5-.9s0-.6-.3-.8-.6-.4-1.1-.5h-.6c-.7-.3-1.3-.5-1.6-.8-.3-.3-.5-.7-.5-1.3s.2-1.2.7-1.5c.5-.4,1.1-.6,1.9-.6h1c.4,0,.7.2,1.1.3h0Z" fill="orange"/>
        </g>
      </g>
      <g id="text_7">
        <g>
          <path id="DejaVuSans-49-2" d="M601.9,108.6h1.2v8.7h-1.2v-8.7Z" fill="purple"/>
          <path id="DejaVuSans-6f-5" d="M607.9,111.6c-.6,0-1,.2-1.4.7s-.5,1.1-.5,1.9.2,1.4.5,1.9.8.7,1.4.7,1-.2,1.4-.7c.3-.5.5-1.1.5-1.9s-.2-1.4-.5-1.8c-.3-.5-.8-.7-1.4-.7h0ZM607.9,110.7c.9,0,1.7.3,2.2.9s.8,1.5.8,2.5-.3,1.9-.8,2.5-1.3.9-2.2.9-1.7-.3-2.2-.9-.8-1.5-.8-2.5.3-1.9.8-2.5,1.3-.9,2.2-.9Z" fill="purple"/>
          <path id="DejaVuSans-6e-7" d="M618.2,113.4v4h-1.1v-3.9c0-.6,0-1.1-.4-1.4-.2-.3-.6-.5-1.1-.5s-1,.2-1.4.6c-.3.4-.5.9-.5,1.5v3.7h-1.1v-6.6h1.1v1c.3-.4.6-.7.9-.9.3-.2.8-.3,1.2-.3.8,0,1.3.2,1.7.7s.6,1.2.6,2.1h0Z" fill="purple"/>
          <path id="DejaVuSans-6f-6" d="M622.9,111.6c-.6,0-1,.2-1.4.7s-.5,1.1-.5,1.9.2,1.4.5,1.9.8.7,1.4.7,1-.2,1.4-.7c.3-.5.5-1.1.5-1.9s-.2-1.4-.5-1.8c-.3-.5-.8-.7-1.4-.7h0ZM622.9,110.7c.9,0,1.7.3,2.2.9s.8,1.5.8,2.5-.3,1.9-.8,2.5-1.3.9-2.2.9-1.7-.3-2.2-.9-.8-1.5-.8-2.5.3-1.9.8-2.5,1.3-.9,2.2-.9Z" fill="purple"/>
          <path id="DejaVuSans-73-3" d="M631.9,111v1c-.3-.2-.6-.3-.9-.4-.3,0-.7,0-1,0-.5,0-.9,0-1.2.2s-.4.4-.4.7,0,.4.3.6.6.3,1.2.4h.4c.8.2,1.3.5,1.6.8s.5.7.5,1.3-.2,1.1-.7,1.4c-.5.4-1.1.5-2,.5s-.7,0-1.1,0c-.4,0-.8-.2-1.2-.3v-1.1c.4.2.8.4,1.2.5s.8.2,1.1.2.9,0,1.2-.3c.3-.2.4-.4.4-.7s0-.5-.3-.7c-.2-.2-.6-.3-1.3-.5h-.4c-.7-.2-1.1-.4-1.4-.7-.3-.3-.4-.7-.4-1.2s.2-1.1.7-1.4c.4-.3,1.1-.5,1.9-.5h1.1c.4,0,.7,0,1,.3h-.3Z" fill="purple"/>
          <path id="DejaVuSans-70" d="M635,116.4v3.5h-1.1v-9.1h1.1v1c.2-.4.5-.7.9-.9.3-.2.8-.3,1.2-.3.8,0,1.4.3,1.9.9s.7,1.5.7,2.5-.2,1.9-.7,2.5-1.1.9-1.9.9-.9,0-1.2-.3c-.3-.2-.6-.5-.9-.9v.2ZM638.6,114.1c0-.8-.2-1.4-.5-1.9s-.8-.7-1.3-.7-1,.2-1.3.7-.5,1.1-.5,1.9.2,1.4.5,1.9.8.7,1.3.7,1-.2,1.3-.7.5-1.1.5-1.9Z" fill="purple"/>
          <path id="DejaVuSans-68-3" d="M647,113.4v4h-1.1v-3.9c0-.6,0-1.1-.4-1.4-.2-.3-.6-.5-1.1-.5s-1,.2-1.4.6c-.3.4-.5.9-.5,1.5v3.7h-1.1v-9.1h1.1v3.6c.3-.4.6-.7.9-.9.3-.2.8-.3,1.2-.3.8,0,1.3.2,1.7.7s.6,1.2.6,2.1h0Z" fill="purple"/>
          <path id="DejaVuSans-65-5" d="M654.8,113.8v.5h-5c0,.7.3,1.3.7,1.7.4.4,1,.6,1.7.6s.8,0,1.2-.2.8-.3,1.2-.5v1c-.4.2-.8.3-1.2.4s-.8,0-1.2,0c-1,0-1.9-.3-2.5-.9s-.9-1.4-.9-2.5.3-1.9.9-2.6c.6-.6,1.4-.9,2.3-.9s1.6.3,2.1.9.8,1.3.8,2.3h0ZM653.7,113.5c0-.6-.2-1.1-.5-1.4-.3-.4-.7-.5-1.3-.5s-1.1.2-1.4.5-.6.8-.6,1.4h3.8Z" fill="purple"/>
          <path id="DejaVuSans-72-3" d="M660.3,111.8c0,0-.3,0-.4-.2h-.5c-.6,0-1.1.2-1.4.6s-.5,1-.5,1.7v3.5h-1.1v-6.6h1.1v1c.2-.4.5-.7.9-.9.4-.2.8-.3,1.3-.3s.2,0,.2,0h.3v1.1h.1Z" fill="purple"/>
          <path id="DejaVuSans-65-6" d="M666.8,113.8v.5h-5c0,.7.3,1.3.7,1.7.4.4,1,.6,1.7.6s.8,0,1.2-.2.8-.3,1.2-.5v1c-.4.2-.8.3-1.2.4s-.8,0-1.2,0c-1,0-1.9-.3-2.5-.9s-.9-1.4-.9-2.5.3-1.9.9-2.6c.6-.6,1.4-.9,2.3-.9s1.6.3,2.1.9.8,1.3.8,2.3h0ZM665.7,113.5c0-.6-.2-1.1-.5-1.4-.3-.4-.7-.5-1.3-.5s-1.1.2-1.4.5-.6.8-.6,1.4h3.8Z" fill="purple"/>
        </g>
      </g>
      <g id="text_8">
        <g>
          <path id="DejaVuSans-Bold-50" d="M121.8,7.7h5c1.5,0,2.6.3,3.4,1,.8.7,1.2,1.6,1.2,2.8s-.4,2.2-1.2,2.8c-.8.7-1.9,1-3.4,1h-2v4h-3s0-11.6,0-11.6ZM124.8,9.9v3.3h1.7c.6,0,1-.1,1.4-.4s.5-.7.5-1.2-.2-.9-.5-1.2-.8-.4-1.4-.4h-1.7,0Z"/>
          <path id="DejaVuSans-Bold-72" d="M139.9,13c-.2-.1-.5-.2-.7-.3h-.7c-.7,0-1.3.2-1.7.7s-.6,1.1-.6,2v4h-2.8v-8.7h2.8v1.4c.4-.6.8-1,1.2-1.3.5-.3,1-.4,1.7-.4s.2,0,.3,0h.5v2.5h0Z"/>
          <path id="DejaVuSans-Bold-6f" d="M145.5,12.4c-.6,0-1.1.2-1.4.7s-.5,1.1-.5,1.9.2,1.5.5,1.9.8.7,1.4.7,1.1-.2,1.4-.7c.3-.4.5-1.1.5-1.9s-.2-1.5-.5-1.9-.8-.7-1.4-.7ZM145.5,10.4c1.5,0,2.7.4,3.5,1.2s1.3,1.9,1.3,3.4-.4,2.6-1.3,3.4c-.8.8-2,1.2-3.5,1.2s-2.7-.4-3.5-1.2c-.9-.8-1.3-1.9-1.3-3.4s.4-2.6,1.3-3.4c.9-.8,2-1.2,3.5-1.2Z"/>
          <path id="DejaVuSans-Bold-70" d="M155.1,18.1v4.6h-2.8v-12.1h2.8v1.3c.4-.5.8-.9,1.3-1.1.5-.2,1-.4,1.6-.4,1.1,0,2,.4,2.7,1.3.7.9,1,2,1,3.3s-.3,2.5-1,3.3c-.7.9-1.6,1.3-2.7,1.3s-1.1-.1-1.6-.4c-.5-.2-.9-.6-1.3-1.1ZM157,12.4c-.6,0-1.1.2-1.4.7-.3.4-.5,1.1-.5,1.9s.2,1.5.5,1.9.8.7,1.4.7,1.1-.2,1.4-.7c.3-.4.5-1.1.5-1.9s-.2-1.5-.5-1.9-.8-.7-1.4-.7Z"/>
          <path id="DejaVuSans-Bold-61" d="M167.7,15.4c-.6,0-1,0-1.3.3-.3.2-.4.5-.4.9s.1.6.4.8c.2.2.6.3,1,.3s1-.2,1.3-.6c.4-.4.5-.9.5-1.4v-.3s-1.5,0-1.5,0ZM172,14.4v5h-2.8v-1.3c-.4.5-.8.9-1.3,1.2-.5.2-1,.4-1.7.4s-1.6-.3-2.2-.8c-.6-.5-.8-1.2-.8-2.1s.4-1.8,1.1-2.3c.7-.5,1.8-.7,3.3-.7h1.6v-.2c0-.4-.2-.8-.5-1s-.9-.3-1.6-.3-1.2,0-1.7.2c-.5.1-1,.3-1.4.5v-2.1c.6-.1,1.2-.3,1.8-.3s1.2-.1,1.8-.1c1.6,0,2.7.3,3.4.9.7.6,1.1,1.6,1.1,3h-.1Z"/>
          <path id="DejaVuSans-Bold-67" d="M180.5,17.9c-.4.5-.8.9-1.3,1.1s-1,.4-1.6.4c-1.1,0-2-.4-2.6-1.3-.7-.8-1-1.9-1-3.2s.3-2.4,1-3.2c.7-.8,1.6-1.3,2.6-1.3s1.1.1,1.6.4c.5.2.9.6,1.3,1.1v-1.3h2.8v7.9c0,1.4-.4,2.5-1.3,3.2-.9.7-2.2,1.1-3.9,1.1s-1.1,0-1.6-.1c-.5,0-1-.2-1.5-.4v-2.2c.5.3,1,.5,1.4.6.5.1.9.2,1.4.2.9,0,1.6-.2,2-.6s.6-1,.6-1.9v-.6h.1ZM178.7,12.4c-.6,0-1,.2-1.4.6-.3.4-.5,1-.5,1.8s.2,1.4.5,1.8.8.6,1.4.6,1-.2,1.4-.6c.3-.4.5-1,.5-1.8s-.2-1.4-.5-1.8c-.3-.4-.8-.6-1.4-.6Z"/>
          <path id="DejaVuSans-Bold-61-2" d="M189.9,15.4c-.6,0-1,0-1.3.3-.3.2-.4.5-.4.9s.1.6.4.8c.2.2.6.3,1,.3s1-.2,1.3-.6c.4-.4.5-.9.5-1.4v-.3s-1.5,0-1.5,0ZM194.2,14.4v5h-2.8v-1.3c-.4.5-.8.9-1.3,1.2-.5.2-1,.4-1.7.4s-1.6-.3-2.2-.8c-.6-.5-.8-1.2-.8-2.1s.4-1.8,1.1-2.3c.7-.5,1.8-.7,3.3-.7h1.6v-.2c0-.4-.2-.8-.5-1s-.9-.3-1.6-.3-1.2,0-1.7.2c-.5.1-1,.3-1.4.5v-2.1c.6-.1,1.2-.3,1.8-.3s1.2-.1,1.8-.1c1.6,0,2.7.3,3.4.9.7.6,1.1,1.6,1.1,3h-.1Z"/>
          <path id="DejaVuSans-Bold-74" d="M199.9,8.1v2.5h2.9v2h-2.9v3.7c0,.4,0,.7.2.8s.5.2,1,.2h1.4v2h-2.4c-1.1,0-1.9-.2-2.3-.7-.5-.5-.7-1.2-.7-2.3v-3.7h-1.4v-2h1.4v-2.5s2.8,0,2.8,0Z"/>
          <path id="DejaVuSans-Bold-69" d="M204.5,10.6h2.8v8.7h-2.8s0-8.7,0-8.7ZM204.5,7.2h2.8v2.3h-2.8v-2.3Z"/>
          <path id="DejaVuSans-Bold-6f-2" d="M214.1,12.4c-.6,0-1.1.2-1.4.7s-.5,1.1-.5,1.9.2,1.5.5,1.9.8.7,1.4.7,1.1-.2,1.4-.7c.3-.4.5-1.1.5-1.9s-.2-1.5-.5-1.9-.8-.7-1.4-.7ZM214.1,10.4c1.5,0,2.7.4,3.5,1.2s1.3,1.9,1.3,3.4-.4,2.6-1.3,3.4c-.8.8-2,1.2-3.5,1.2s-2.7-.4-3.5-1.2c-.9-.8-1.3-1.9-1.3-3.4s.4-2.6,1.3-3.4c.9-.8,2-1.2,3.5-1.2Z"/>
          <path id="DejaVuSans-Bold-6e" d="M229.7,14v5.3h-2.8v-5.7c0-.3,0-.5-.2-.6-.1-.2-.3-.3-.4-.4-.2-.1-.4-.2-.6-.2-.6,0-1,.2-1.4.7-.3.4-.5,1.1-.5,1.9v4.3h-2.8v-8.7h2.8v1.3c.4-.5.9-.9,1.3-1.1.5-.2,1-.4,1.6-.4,1,0,1.8.3,2.3.9.5.6.8,1.5.8,2.7h-.1Z"/>
          <path id="DejaVuSans-Bold-20" d="M231,19.4"/>
          <path id="DejaVuSans-Bold-43" d="M247.3,18.7c-.6.3-1.1.5-1.7.6-.6.1-1.2.2-1.9.2-1.9,0-3.5-.5-4.6-1.6s-1.7-2.6-1.7-4.4.6-3.3,1.7-4.4c1.1-1.1,2.7-1.6,4.6-1.6s1.3,0,1.9.2c.6,0,1.2.4,1.7.6v2.4c-.6-.4-1.1-.7-1.6-.8s-1.1-.3-1.7-.3c-1.1,0-1.9.3-2.5,1s-.9,1.6-.9,2.8.3,2.1.9,2.8c.6.7,1.5,1,2.5,1s1.2,0,1.7-.3c.5-.2,1.1-.5,1.6-.8v2.6Z"/>
          <path id="DejaVuSans-Bold-68" d="M258.4,14v5.3h-2.8v-5.7c0-.3,0-.5-.2-.6-.1-.2-.3-.3-.4-.4-.2-.1-.4-.2-.6-.2-.6,0-1,.2-1.4.7-.3.4-.5,1.1-.5,1.9v4.3h-2.8V7.2h2.8v4.7c.4-.5.9-.9,1.3-1.1.5-.2,1-.4,1.6-.4,1,0,1.8.3,2.3.9.5.6.8,1.5.8,2.7h-.1Z"/>
          <path id="DejaVuSans-Bold-61-3" d="M265,15.4c-.6,0-1,0-1.3.3-.3.2-.4.5-.4.9s.1.6.4.8c.2.2.6.3,1,.3s1-.2,1.3-.6c.4-.4.5-.9.5-1.4v-.3s-1.5,0-1.5,0ZM269.2,14.4v5h-2.8v-1.3c-.4.5-.8.9-1.3,1.2-.5.2-1,.4-1.7.4s-1.6-.3-2.2-.8-.8-1.2-.8-2.1.4-1.8,1.1-2.3,1.8-.7,3.3-.7h1.6v-.2c0-.4-.2-.8-.5-1s-.9-.3-1.6-.3-1.2,0-1.7.2c-.5.1-1,.3-1.4.5v-2.1c.6-.1,1.2-.3,1.8-.3s1.2-.1,1.8-.1c1.6,0,2.7.3,3.4.9.7.6,1.1,1.6,1.1,3h0Z"/>
          <path id="DejaVuSans-Bold-72-2" d="M278.3,13c-.2-.1-.5-.2-.7-.3h-.7c-.7,0-1.3.2-1.7.7-.4.5-.6,1.1-.6,2v4h-2.8v-8.7h2.8v1.4c.4-.6.8-1,1.2-1.3.5-.3,1-.4,1.7-.4s.2,0,.3,0h.5v2.5h0Z"/>
          <path id="DejaVuSans-Bold-61-4" d="M283.6,15.4c-.6,0-1,0-1.3.3-.3.2-.4.5-.4.9s.1.6.4.8c.2.2.6.3,1,.3s1-.2,1.3-.6c.4-.4.5-.9.5-1.4v-.3s-1.5,0-1.5,0ZM287.9,14.4v5h-2.8v-1.3c-.4.5-.8.9-1.3,1.2-.5.2-1,.4-1.7.4s-1.6-.3-2.2-.8-.8-1.2-.8-2.1.4-1.8,1.1-2.3,1.8-.7,3.3-.7h1.6v-.2c0-.4-.2-.8-.5-1s-.9-.3-1.6-.3-1.2,0-1.7.2c-.5.1-1,.3-1.4.5v-2.1c.6-.1,1.2-.3,1.8-.3s1.2-.1,1.8-.1c1.6,0,2.7.3,3.4.9.7.6,1.1,1.6,1.1,3h0Z"/>
          <path id="DejaVuSans-Bold-63" d="M297.6,10.9v2.3c-.4-.3-.8-.5-1.1-.6s-.8-.2-1.2-.2c-.8,0-1.4.2-1.8.7s-.7,1.1-.7,1.9.2,1.5.7,1.9c.4.5,1,.7,1.8.7s.9,0,1.2-.2c.4-.1.8-.3,1.1-.6v2.3c-.4.2-.9.3-1.3.4-.4,0-.9.1-1.4.1-1.6,0-2.8-.4-3.7-1.2-.9-.8-1.3-1.9-1.3-3.4s.4-2.6,1.3-3.4c.9-.8,2.1-1.2,3.7-1.2s.9,0,1.4.1.9.2,1.3.4Z"/>
          <path id="DejaVuSans-Bold-74-2" d="M303.1,8.1v2.5h2.9v2h-2.9v3.7c0,.4,0,.7.2.8s.5.2,1,.2h1.4v2h-2.4c-1.1,0-1.9-.2-2.3-.7-.5-.5-.7-1.2-.7-2.3v-3.7h-1.4v-2h1.4v-2.5s2.8,0,2.8,0Z"/>
          <path id="DejaVuSans-Bold-65" d="M316.4,15v.8h-6.5c0,.7.3,1.1.7,1.5s1,.5,1.7.5,1.2,0,1.8-.3c.6-.2,1.3-.4,1.9-.8v2.2c-.7.2-1.3.4-2,.6-.7.1-1.3.2-2,.2-1.6,0-2.8-.4-3.7-1.2-.9-.8-1.3-1.9-1.3-3.4s.4-2.5,1.3-3.4c.9-.8,2-1.2,3.6-1.2s2.5.4,3.3,1.2,1.2,1.9,1.2,3.3ZM313.5,14c0-.5-.2-1-.5-1.3s-.7-.5-1.2-.5-1,.2-1.3.5-.5.7-.6,1.3h3.6Z"/>
          <path id="DejaVuSans-Bold-72-3" d="M325,13c-.2-.1-.5-.2-.7-.3h-.7c-.7,0-1.3.2-1.7.7-.4.5-.6,1.1-.6,2v4h-2.8v-8.7h2.8v1.4c.4-.6.8-1,1.2-1.3.5-.3,1-.4,1.7-.4s.2,0,.3,0h.5v2.5h0Z"/>
          <path id="DejaVuSans-Bold-69-2" d="M326.4,10.6h2.8v8.7h-2.8s0-8.7,0-8.7ZM326.4,7.2h2.8v2.3h-2.8v-2.3Z"/>
          <path id="DejaVuSans-Bold-73" d="M338.7,10.9v2.1c-.6-.2-1.2-.4-1.7-.6-.6-.1-1.1-.2-1.6-.2s-.9,0-1.2.2c-.3.1-.4.3-.4.6s0,.4.3.5c.2.1.5.2,1,.3h.5c1.4.3,2.4.6,2.9,1s.7,1.1.7,2-.3,1.6-1,2.1-1.7.7-3.1.7-1.2,0-1.8-.1c-.6,0-1.3-.2-1.9-.4v-2.1c.6.3,1.1.5,1.7.6s1.2.2,1.8.2,1,0,1.2-.2c.3-.2.4-.4.4-.7s0-.4-.3-.6-.6-.2-1.1-.3h-.5c-1.2-.2-2.1-.5-2.6-.9s-.7-1.1-.7-1.9.3-1.6,1-2.1c.6-.4,1.6-.7,2.9-.7s1.1,0,1.6.1c.6,0,1.2.2,1.9.4h0Z"/>
          <path id="DejaVuSans-Bold-74-3" d="M344.5,8.1v2.5h2.9v2h-2.9v3.7c0,.4,0,.7.2.8s.5.2,1,.2h1.4v2h-2.4c-1.1,0-1.9-.2-2.3-.7-.5-.5-.7-1.2-.7-2.3v-3.7h-1.4v-2h1.4v-2.5s2.8,0,2.8,0Z"/>
          <path id="DejaVuSans-Bold-69-3" d="M349.1,10.6h2.8v8.7h-2.8s0-8.7,0-8.7ZM349.1,7.2h2.8v2.3h-2.8v-2.3Z"/>
          <path id="DejaVuSans-Bold-63-2" d="M361.6,10.9v2.3c-.4-.3-.8-.5-1.1-.6s-.8-.2-1.2-.2c-.8,0-1.4.2-1.8.7s-.7,1.1-.7,1.9.2,1.5.7,1.9c.4.5,1,.7,1.8.7s.9,0,1.2-.2c.4-.1.8-.3,1.1-.6v2.3c-.4.2-.9.3-1.3.4-.4,0-.9.1-1.4.1-1.6,0-2.8-.4-3.7-1.2-.9-.8-1.3-1.9-1.3-3.4s.4-2.6,1.3-3.4c.9-.8,2.1-1.2,3.7-1.2s.9,0,1.4.1.9.2,1.3.4Z"/>
          <path id="DejaVuSans-Bold-73-2" d="M370.9,10.9v2.1c-.6-.2-1.2-.4-1.7-.6-.6-.1-1.1-.2-1.6-.2s-.9,0-1.2.2c-.3.1-.4.3-.4.6s0,.4.3.5c.2.1.5.2,1,.3h.5c1.4.3,2.4.6,2.9,1s.7,1.1.7,2-.3,1.6-1,2.1-1.7.7-3.1.7-1.2,0-1.8-.1c-.6,0-1.3-.2-1.9-.4v-2.1c.6.3,1.1.5,1.7.6s1.2.2,1.8.2,1,0,1.2-.2c.3-.2.4-.4.4-.7s0-.4-.3-.6-.6-.2-1.1-.3h-.5c-1.2-.2-2.1-.5-2.6-.9s-.7-1.1-.7-1.9.3-1.6,1-2.1c.6-.4,1.6-.7,2.9-.7s1.1,0,1.6.1c.6,0,1.2.2,1.9.4h0Z"/>
          <path id="DejaVuSans-Bold-20-2" d="M372.2,19.4"/>
          <path id="DejaVuSans-Bold-62" d="M383.8,17.6c.6,0,1.1-.2,1.4-.7.3-.4.5-1.1.5-1.9s-.2-1.5-.5-1.9-.8-.7-1.4-.7-1.1.2-1.4.7c-.3.4-.5,1.1-.5,1.9s.2,1.5.5,1.9.8.7,1.4.7ZM381.9,11.9c.4-.5.8-.9,1.3-1.1.5-.2,1-.4,1.6-.4,1.1,0,2,.4,2.7,1.3.7.9,1,2,1,3.3s-.3,2.5-1,3.3c-.7.9-1.6,1.3-2.7,1.3s-1.1-.1-1.6-.4c-.5-.2-.9-.6-1.3-1.1v1.3h-2.8V7.2h2.8v4.7Z"/>
          <path id="DejaVuSans-Bold-79" d="M389.4,10.6h2.8l2.4,5.9,2-5.9h2.8l-3.7,9.6c-.4,1-.8,1.7-1.3,2-.5.4-1.1.6-1.9.6h-1.6v-1.8h.9c.5,0,.8,0,1-.2.2-.1.4-.4.5-.8v-.2l-3.8-9.1h0Z"/>
          <path id="DejaVuSans-Bold-20-3" d="M399.7,19.4"/>
          <path id="DejaVuSans-Bold-48" d="M406.7,7.7h3v4.4h4.4v-4.4h3v11.7h-3v-4.9h-4.4v4.9h-3V7.7Z"/>
          <path id="DejaVuSans-Bold-61-5" d="M423.9,15.4c-.6,0-1,0-1.3.3-.3.2-.4.5-.4.9s.1.6.4.8c.2.2.6.3,1,.3s1-.2,1.3-.6c.4-.4.5-.9.5-1.4v-.3s-1.5,0-1.5,0ZM428.2,14.4v5h-2.8v-1.3c-.4.5-.8.9-1.3,1.2-.5.2-1,.4-1.7.4s-1.6-.3-2.2-.8-.8-1.2-.8-2.1.4-1.8,1.1-2.3,1.8-.7,3.3-.7h1.6v-.2c0-.4-.2-.8-.5-1s-.9-.3-1.6-.3-1.2,0-1.7.2c-.5.1-1,.3-1.4.5v-2.1c.6-.1,1.2-.3,1.8-.3s1.2-.1,1.8-.1c1.6,0,2.7.3,3.4.9.7.6,1.1,1.6,1.1,3h0Z"/>
          <path id="DejaVuSans-Bold-6d" d="M438.9,12.1c.4-.5.8-1,1.3-1.2.5-.3,1-.4,1.6-.4,1,0,1.8.3,2.3.9.5.6.8,1.5.8,2.7v5.3h-2.8v-5.1c0-.6,0-1.1-.3-1.3-.2-.3-.5-.4-.9-.4s-.9.2-1.2.7c-.3.4-.4,1.1-.4,1.9v4.3h-2.8v-4.6c0-1,0-1.6-.2-1.9-.2-.3-.5-.4-.9-.4s-1,.2-1.2.7-.4,1.1-.4,1.9v4.3h-2.8v-8.7h2.8v1.3c.3-.5.7-.9,1.2-1.1s.9-.4,1.5-.4,1.1.1,1.6.4c.5.3.8.7,1.1,1.2h-.3Z"/>
          <path id="DejaVuSans-Bold-20-4" d="M446.1,19.4"/>
          <path id="DejaVuSans-Bold-52" d="M457.4,12.9c.6,0,1.1-.1,1.4-.3s.4-.6.4-1.2-.1-.9-.4-1.1c-.3-.2-.7-.3-1.4-.3h-1.3v3h1.3ZM456.1,14.9v4.4h-3V7.7h4.6c1.5,0,2.7.3,3.4.8.7.5,1.1,1.3,1.1,2.4s-.2,1.4-.6,1.9-.9.9-1.7,1.1c.4,0,.8.3,1.1.6.3.3.7.8,1,1.5l1.6,3.3h-3.2l-1.4-2.9c-.3-.6-.6-1-.9-1.2s-.7-.3-1.2-.3h-.8Z"/>
          <path id="DejaVuSans-Bold-61-6" d="M469.2,15.4c-.6,0-1,0-1.3.3-.3.2-.4.5-.4.9s.1.6.4.8c.2.2.6.3,1,.3s1-.2,1.3-.6c.4-.4.5-.9.5-1.4v-.3s-1.5,0-1.5,0ZM473.5,14.4v5h-2.8v-1.3c-.4.5-.8.9-1.3,1.2-.5.2-1,.4-1.7.4s-1.6-.3-2.2-.8-.8-1.2-.8-2.1.4-1.8,1.1-2.3,1.8-.7,3.3-.7h1.6v-.2c0-.4-.2-.8-.5-1s-.9-.3-1.6-.3-1.2,0-1.7.2c-.5.1-1,.3-1.4.5v-2.1c.6-.1,1.2-.3,1.8-.3s1.2-.1,1.8-.1c1.6,0,2.7.3,3.4.9.7.6,1.1,1.6,1.1,3h0Z"/>
          <path id="DejaVuSans-Bold-64" d="M482.1,11.9v-4.7h2.8v12.2h-2.8v-1.3c-.4.5-.8.9-1.3,1.1s-1,.4-1.6.4c-1.1,0-2-.4-2.7-1.3s-1-2-1-3.3.3-2.5,1-3.3c.7-.9,1.6-1.3,2.7-1.3s1.1.1,1.6.4.9.6,1.3,1.1ZM480.2,17.6c.6,0,1.1-.2,1.4-.7.3-.4.5-1.1.5-1.9s-.2-1.5-.5-1.9-.8-.7-1.4-.7-1,.2-1.4.7c-.3.4-.5,1.1-.5,1.9s.2,1.5.5,1.9.8.7,1.4.7Z"/>
          <path id="DejaVuSans-Bold-69-4" d="M487.6,10.6h2.8v8.7h-2.8s0-8.7,0-8.7ZM487.6,7.2h2.8v2.3h-2.8v-2.3Z"/>
          <path id="DejaVuSans-Bold-6f-3" d="M497.2,12.4c-.6,0-1.1.2-1.4.7s-.5,1.1-.5,1.9.2,1.5.5,1.9.8.7,1.4.7,1.1-.2,1.4-.7c.3-.4.5-1.1.5-1.9s-.2-1.5-.5-1.9-.8-.7-1.4-.7ZM497.2,10.4c1.5,0,2.7.4,3.5,1.2s1.3,1.9,1.3,3.4-.4,2.6-1.3,3.4c-.8.8-2,1.2-3.5,1.2s-2.7-.4-3.5-1.2c-.9-.8-1.3-1.9-1.3-3.4s.4-2.6,1.3-3.4c.9-.8,2-1.2,3.5-1.2Z"/>
          <path id="DejaVuSans-Bold-20-5" d="M502.7,19.4"/>
          <path id="DejaVuSans-Bold-42" d="M514.4,12.2c.5,0,.8-.1,1.1-.3.2-.2.4-.5.4-.9s0-.7-.4-.9c-.2-.2-.6-.3-1.1-.3h-1.7v2.5h1.7ZM514.5,17.3c.6,0,1.1-.1,1.4-.4s.5-.6.5-1.2-.2-.9-.5-1.1c-.3-.3-.8-.4-1.4-.4h-1.8v3.1h1.8ZM517.3,13.1c.6.2,1.1.5,1.5,1s.5,1.1.5,1.9-.4,2-1.1,2.5c-.8.6-1.9.8-3.5.8h-5V7.7h4.5c1.6,0,2.8.2,3.5.7s1.1,1.3,1.1,2.4,0,1-.4,1.4c-.3.4-.6.7-1.2.9h.1Z"/>
          <path id="DejaVuSans-Bold-61-7" d="M525.7,15.4c-.6,0-1,0-1.3.3-.3.2-.4.5-.4.9s0,.6.4.8c.2.2.6.3,1,.3s1-.2,1.3-.6c.4-.4.5-.9.5-1.4v-.3s-1.5,0-1.5,0ZM530,14.4v5h-2.8v-1.3c-.4.5-.8.9-1.3,1.2-.5.2-1,.4-1.7.4s-1.6-.3-2.2-.8c-.6-.5-.8-1.2-.8-2.1s.4-1.8,1.1-2.3c.7-.5,1.8-.7,3.3-.7h1.6v-.2c0-.4-.2-.8-.5-1s-.9-.3-1.6-.3-1.2,0-1.7.2c-.5.1-1,.3-1.4.5v-2.1c.6-.1,1.2-.3,1.8-.3s1.2-.1,1.8-.1c1.6,0,2.7.3,3.4.9.7.6,1.1,1.6,1.1,3h0Z"/>
          <path id="DejaVuSans-Bold-6e-2" d="M541.4,14v5.3h-2.8v-5.7c0-.3,0-.5-.2-.6,0-.2-.3-.3-.4-.4-.2-.1-.4-.2-.6-.2-.6,0-1,.2-1.4.7-.3.4-.5,1.1-.5,1.9v4.3h-2.8v-8.7h2.8v1.3c.4-.5.9-.9,1.3-1.1.5-.2,1-.4,1.6-.4,1,0,1.8.3,2.3.9.5.6.8,1.5.8,2.7h0Z"/>
          <path id="DejaVuSans-Bold-64-2" d="M550,11.9v-4.7h2.8v12.2h-2.8v-1.3c-.4.5-.8.9-1.3,1.1s-1,.4-1.6.4c-1.1,0-2-.4-2.7-1.3s-1-2-1-3.3.3-2.5,1-3.3c.7-.9,1.6-1.3,2.7-1.3s1.1.1,1.6.4.9.6,1.3,1.1ZM548.1,17.6c.6,0,1.1-.2,1.4-.7.3-.4.5-1.1.5-1.9s-.2-1.5-.5-1.9-.8-.7-1.4-.7-1,.2-1.4.7c-.3.4-.5,1.1-.5,1.9s.2,1.5.5,1.9.8.7,1.4.7Z"/>
          <path id="DejaVuSans-Bold-73-3" d="M562.3,10.9v2.1c-.6-.2-1.2-.4-1.7-.6-.6-.1-1.1-.2-1.6-.2s-.9,0-1.2.2c-.3.1-.4.3-.4.6s0,.4.3.5c.2.1.5.2,1,.3h.5c1.4.3,2.4.6,2.9,1s.7,1.1.7,2-.3,1.6-1,2.1-1.7.7-3.1.7-1.2,0-1.8-.1c-.6,0-1.3-.2-1.9-.4v-2.1c.6.3,1.1.5,1.7.6.6.1,1.2.2,1.8.2s1,0,1.2-.2c.3-.2.4-.4.4-.7s0-.4-.3-.6-.6-.2-1.1-.3h-.5c-1.2-.2-2.1-.5-2.6-.9s-.7-1.1-.7-1.9.3-1.6,1-2.1c.6-.4,1.6-.7,2.9-.7s1.1,0,1.6.1c.6,0,1.2.2,1.9.4h0Z"/>
        </g>
      </g>
      <g id="legend_1">
        <g id="patch_7">
          <path d="M353.3,62.7h316.5c1.3,0,2-.7,2-2v-28.4c0-1.3-.7-2-2-2h-316.5c-1.3,0-2,.7-2,2v28.4c0,1.3.7,2,2,2Z" fill="#fff" isolation="isolate" opacity=".8" stroke="#ccc"/>
        </g>
        <g id="line2d_5">
          <path d="M355.3,38.5h20" fill="none" stroke="#00008b" stroke-linecap="square" stroke-linejoin="round" stroke-width="2"/>
        </g>
        <g id="text_9">
          <g>
            <path id="DejaVuSans-31-6" d="M384.5,41.1h1.6v-5.6l-1.8.4v-.9l1.7-.4h1v6.5h1.6v.8h-4.2v-.8h0Z"/>
            <path id="DejaVuSans-36-3" d="M392.9,37.9c-.4,0-.8.2-1.1.5-.3.3-.4.7-.4,1.2s.1.9.4,1.2.6.5,1.1.5.8-.2,1.1-.5c.3-.3.4-.7.4-1.2s-.1-.9-.4-1.2-.6-.5-1.1-.5ZM394.9,34.8v.9c-.2,0-.5-.2-.8-.3h-.8c-.7,0-1.1.2-1.5.7-.3.4-.5,1.1-.6,2,.2-.3.4-.5.7-.7.3-.2.6-.2,1-.2.7,0,1.3.2,1.7.7.4.4.6,1,.6,1.8s-.2,1.4-.7,1.8c-.4.5-1,.7-1.8.7s-1.5-.3-1.9-1c-.4-.6-.7-1.6-.7-2.8s.3-2.1.8-2.8,1.3-1,2.2-1,.5,0,.8,0,.5,0,.8.2h.2Z"/>
            <path id="DejaVuSans-30-11" d="M399.2,35.3c-.5,0-.9.3-1.1.8-.3.5-.4,1.3-.4,2.3s.1,1.7.4,2.2.6.8,1.1.8.9-.3,1.2-.8c.3-.5.4-1.2.4-2.2s-.1-1.8-.4-2.3-.6-.8-1.2-.8ZM399.2,34.5c.8,0,1.4.3,1.9,1,.4.6.6,1.6.6,2.8s-.2,2.2-.6,2.8-1.1,1-1.9,1-1.4-.3-1.9-1c-.4-.6-.6-1.6-.6-2.8s.2-2.2.6-2.8,1.1-1,1.9-1Z"/>
            <path id="DejaVuSans-6d-15" d="M407.6,37.5c.2-.4.5-.7.8-.9s.7-.3,1.1-.3,1,.2,1.3.6c.3.4.5,1,.5,1.7v3.3h-.9v-3.3c0-.5,0-.9-.3-1.2-.2-.3-.5-.4-.8-.4s-.8.2-1.1.5c-.3.3-.4.7-.4,1.3v3.1h-.9v-3.3c0-.5,0-.9-.3-1.2s-.5-.4-.9-.4-.8.2-1.1.5c-.3.3-.4.7-.4,1.3v3.1h-.9v-5.5h.9v.9c.2-.3.5-.6.7-.7s.6-.2,1-.2.7,0,1,.3.5.5.6.9h0Z"/>
            <path id="DejaVuSans-2c-12" d="M413.3,40.7h1v.8l-.8,1.6h-.6l.4-1.6v-.8Z"/>
            <path id="DejaVuSans-20-18" d="M415.3,42"/>
            <path id="DejaVuSans-38-3" d="M421.6,38.5c-.5,0-.8,0-1.1.4-.3.3-.4.6-.4,1s.1.8.4,1c.3.3.6.4,1.1.4s.8,0,1.1-.4c.3-.3.4-.6.4-1s-.1-.8-.4-1c-.3-.3-.6-.4-1.1-.4ZM420.7,38.1c-.4,0-.8-.3-1-.6s-.4-.6-.4-1.1.2-1,.6-1.4c.4-.3,1-.5,1.7-.5s1.3.2,1.7.5.6.8.6,1.4-.1.8-.4,1.1c-.2.3-.6.5-1,.6.5,0,.8.3,1.1.7.3.3.4.7.4,1.2s-.2,1.3-.6,1.6c-.4.4-1,.6-1.9.6s-1.4-.2-1.9-.6c-.4-.4-.6-.9-.6-1.6s.1-.9.4-1.2.6-.5,1.1-.7h.2ZM420.3,36.5c0,.4.1.7.4.9.2.2.6.3,1,.3s.8,0,1-.3.4-.5.4-.9-.1-.7-.4-.9c-.2-.2-.6-.3-1-.3s-.8,0-1,.3-.4.5-.4.9Z"/>
            <path id="DejaVuSans-30-12" d="M428,35.3c-.5,0-.9.3-1.1.8-.3.5-.4,1.3-.4,2.3s.1,1.7.4,2.2.6.8,1.1.8.9-.3,1.2-.8c.3-.5.4-1.2.4-2.2s-.1-1.8-.4-2.3-.6-.8-1.2-.8ZM428,34.5c.8,0,1.4.3,1.9,1,.4.6.6,1.6.6,2.8s-.2,2.2-.6,2.8-1.1,1-1.9,1-1.4-.3-1.9-1c-.4-.6-.6-1.6-.6-2.8s.2-2.2.6-2.8,1.1-1,1.9-1Z"/>
            <path id="DejaVuSans-6d-16" d="M436.4,37.5c.2-.4.5-.7.8-.9s.7-.3,1.1-.3,1,.2,1.3.6c.3.4.5,1,.5,1.7v3.3h-.9v-3.3c0-.5,0-.9-.3-1.2-.2-.3-.5-.4-.8-.4s-.8.2-1.1.5c-.3.3-.4.7-.4,1.3v3.1h-.9v-3.3c0-.5,0-.9-.3-1.2s-.5-.4-.9-.4-.8.2-1.1.5c-.3.3-.4.7-.4,1.3v3.1h-.9v-5.5h.9v.9c.2-.3.5-.6.7-.7s.6-.2,1-.2.7,0,1,.3.5.5.6.9h0Z"/>
            <path id="DejaVuSans-2c-13" d="M442.1,40.7h1v.8l-.8,1.6h-.6l.4-1.6v-.8Z"/>
            <path id="DejaVuSans-20-19" d="M444.1,42"/>
            <path id="DejaVuSans-36-4" d="M450.6,37.9c-.4,0-.8.2-1.1.5-.3.3-.4.7-.4,1.2s.1.9.4,1.2.6.5,1.1.5.8-.2,1.1-.5c.3-.3.4-.7.4-1.2s-.1-.9-.4-1.2-.6-.5-1.1-.5ZM452.6,34.8v.9c-.2,0-.5-.2-.8-.3h-.8c-.7,0-1.1.2-1.5.7-.3.4-.5,1.1-.6,2,.2-.3.4-.5.7-.7.3-.2.6-.2,1-.2.7,0,1.3.2,1.7.7.4.4.6,1,.6,1.8s-.2,1.4-.7,1.8c-.4.5-1,.7-1.8.7s-1.5-.3-1.9-1c-.4-.6-.7-1.6-.7-2.8s.3-2.1.8-2.8,1.3-1,2.2-1,.5,0,.8,0,.5,0,.8.2h.2Z"/>
            <path id="DejaVuSans-30-13" d="M456.8,35.3c-.5,0-.9.3-1.1.8-.3.5-.4,1.3-.4,2.3s.1,1.7.4,2.2.6.8,1.1.8.9-.3,1.2-.8c.3-.5.4-1.2.4-2.2s-.1-1.8-.4-2.3-.6-.8-1.2-.8ZM456.8,34.5c.8,0,1.4.3,1.9,1,.4.6.6,1.6.6,2.8s-.2,2.2-.6,2.8-1.1,1-1.9,1-1.4-.3-1.9-1c-.4-.6-.6-1.6-.6-2.8s.2-2.2.6-2.8,1.1-1,1.9-1Z"/>
            <path id="DejaVuSans-6d-17" d="M465.2,37.5c.2-.4.5-.7.8-.9s.7-.3,1.1-.3,1,.2,1.3.6c.3.4.5,1,.5,1.7v3.3h-.9v-3.3c0-.5,0-.9-.3-1.2-.2-.3-.5-.4-.8-.4s-.8.2-1.1.5c-.3.3-.4.7-.4,1.3v3.1h-.9v-3.3c0-.5,0-.9-.3-1.2s-.5-.4-.9-.4-.8.2-1.1.5c-.3.3-.4.7-.4,1.3v3.1h-.9v-5.5h.9v.9c.2-.3.5-.6.7-.7s.6-.2,1-.2.7,0,1,.3.5.5.6.9h0Z"/>
            <path id="DejaVuSans-20-20" d="M469.8,42"/>
            <path id="DejaVuSans-42-3" d="M474.9,38.5v2.7h1.6c.5,0,.9,0,1.2-.3.3-.2.4-.6.4-1s-.1-.8-.4-1-.6-.3-1.2-.3h-1.6ZM474.9,35.5v2.2h1.5c.5,0,.8,0,1.1-.3.2-.2.4-.5.4-.8s-.1-.6-.4-.8c-.2-.2-.6-.3-1.1-.3,0,0-1.5,0-1.5,0ZM473.9,34.7h2.5c.8,0,1.3.2,1.7.5.4.3.6.8.6,1.3s-.1.8-.3,1.1-.5.4-.9.5c.5,0,.9.3,1.1.7.3.3.4.7.4,1.2s-.2,1.2-.7,1.5c-.4.4-1.1.5-1.9.5h-2.6v-7.3h0Z"/>
            <path id="DejaVuSans-61-5" d="M483.2,39.2c-.7,0-1.2,0-1.5.2s-.4.4-.4.9.1.6.3.8c.2.2.5.3.9.3s.9-.2,1.2-.5.5-.8.5-1.4v-.2h-1ZM485,38.8v3.1h-.9v-.8c-.2.3-.5.6-.8.7-.3.2-.7.2-1.1.2s-1-.2-1.3-.5-.5-.7-.5-1.3.2-1.1.6-1.4c.4-.3,1-.5,1.8-.5h1.3c0-.5-.1-.8-.4-1s-.7-.3-1.1-.3-.6,0-.9,0c-.3,0-.6.2-.9.3v-.8c.3,0,.6-.2,1-.3h.9c.8,0,1.4.2,1.8.6.4.4.6,1,.6,1.9h-.1Z"/>
            <path id="DejaVuSans-6e-8" d="M491.4,38.7v3.3h-.9v-3.3c0-.5-.1-.9-.3-1.2-.2-.3-.5-.4-.9-.4s-.9.2-1.1.5c-.3.3-.4.7-.4,1.3v3.1h-.9v-5.5h.9v.9c.2-.3.5-.6.8-.7.3-.2.6-.2,1-.2.6,0,1.1.2,1.4.6.3.4.5,1,.5,1.7h-.1Z"/>
            <path id="DejaVuSans-64-5" d="M496.8,37.3v-3h.9v7.6h-.9v-.8c-.2.3-.4.6-.7.7-.3.2-.6.2-1,.2-.7,0-1.2-.3-1.6-.8s-.6-1.2-.6-2.1.2-1.6.6-2.1,1-.8,1.6-.8.8,0,1,.2c.3.2.5.4.7.7v.2ZM493.7,39.2c0,.7.1,1.2.4,1.6.3.4.6.6,1.1.6s.8-.2,1.1-.6c.3-.4.4-.9.4-1.6s-.1-1.2-.4-1.6c-.3-.4-.6-.6-1.1-.6s-.8.2-1.1.6-.4.9-.4,1.6Z"/>
            <path id="DejaVuSans-73-4" d="M503,36.6v.9c-.3,0-.5-.2-.8-.3h-.9c-.4,0-.8,0-1,.2-.2,0-.3.3-.3.6s0,.4.2.5.5.2,1,.3h.3c.6.2,1.1.4,1.4.6s.4.6.4,1-.2.9-.6,1.2-1,.4-1.7.4h-.9c-.3,0-.7,0-1-.3v-.9c.3.2.7.3,1,.4.3,0,.6,0,1,0s.7,0,1-.2c.2,0,.3-.3.3-.6s0-.4-.2-.6c-.2,0-.5-.3-1.1-.4h-.3c-.6-.2-1-.4-1.2-.6-.2-.2-.4-.6-.4-1s.2-.9.5-1.2c.4-.3.9-.4,1.6-.4h.9c.3,0,.6,0,.8.2h0Z"/>
            <path id="DejaVuSans-20-21" d="M503.8,42"/>
            <path id="DejaVuSans-28-5" d="M510.1,34.4c-.4.7-.8,1.5-1,2.2s-.3,1.5-.3,2.2.1,1.5.3,2.2.5,1.5,1,2.2h-.8c-.5-.8-.9-1.5-1.1-2.3-.2-.7-.4-1.5-.4-2.2s.1-1.5.4-2.2c.2-.7.6-1.5,1.1-2.3h.8v.2Z"/>
            <path id="DejaVuSans-47-3" d="M516.9,40.9v-2h-1.6v-.8h2.6v3.1c-.4.3-.8.5-1.3.6s-.9.2-1.5.2c-1.1,0-2-.3-2.7-1-.6-.7-1-1.6-1-2.8s.3-2.1,1-2.8c.6-.7,1.5-1,2.7-1s.9,0,1.4.2c.4,0,.8.3,1.2.5v1.1c-.4-.3-.8-.5-1.2-.7s-.8-.2-1.3-.2c-.9,0-1.6.2-2,.7s-.7,1.2-.7,2.2.2,1.7.7,2.2c.4.5,1.1.7,2,.7h.9c.3,0,.5-.2.7-.3h0Z"/>
            <path id="DejaVuSans-72-4" d="M522.8,37.3c0,0-.2,0-.3,0h-.4c-.5,0-.9.2-1.2.5s-.4.8-.4,1.4v2.9h-.9v-5.5h.9v.9c.2-.3.4-.6.7-.7.3-.2.7-.2,1.1-.2s0,0,.2,0h.2v.9h.1Z"/>
            <path id="DejaVuSans-6f-7" d="M525.6,37.1c-.5,0-.9.2-1.1.6s-.4.9-.4,1.5,0,1.2.4,1.5c.3.4.7.6,1.1.6s.9-.2,1.1-.6c.3-.4.4-.9.4-1.5s0-1.2-.4-1.5c-.3-.4-.7-.6-1.1-.6ZM525.6,36.4c.8,0,1.4.3,1.8.8.4.5.7,1.2.7,2.1s-.2,1.6-.7,2.1c-.4.5-1.1.8-1.8.8s-1.4-.3-1.8-.8c-.4-.5-.7-1.2-.7-2.1s.2-1.6.7-2.1c.4-.5,1.1-.8,1.8-.8Z"/>
            <path id="DejaVuSans-75-3" d="M529.5,39.8v-3.3h.9v3.3c0,.5,0,.9.3,1.2s.5.4.9.4.9-.2,1.1-.5c.3-.3.4-.7.4-1.3v-3.1h.9v5.5h-.9v-.8c-.2.3-.5.6-.8.7-.3.2-.6.2-1,.2-.6,0-1.1-.2-1.4-.6-.3-.4-.5-1-.5-1.7h0ZM531.8,36.4h0Z"/>
            <path id="DejaVuSans-6e-9" d="M540.5,38.7v3.3h-.9v-3.3c0-.5,0-.9-.3-1.2s-.5-.4-.9-.4-.9.2-1.1.5c-.3.3-.4.7-.4,1.3v3.1h-.9v-5.5h.9v.9c.2-.3.5-.6.8-.7.3-.2.6-.2,1-.2.6,0,1.1.2,1.4.6.3.4.5,1,.5,1.7h0Z"/>
            <path id="DejaVuSans-64-6" d="M545.9,37.3v-3h.9v7.6h-.9v-.8c-.2.3-.4.6-.7.7-.3.2-.6.2-1,.2-.7,0-1.2-.3-1.6-.8-.4-.5-.6-1.2-.6-2.1s.2-1.6.6-2.1c.4-.5,1-.8,1.6-.8s.8,0,1,.2c.3.2.5.4.7.7v.2ZM542.8,39.2c0,.7,0,1.2.4,1.6.3.4.6.6,1.1.6s.8-.2,1.1-.6c.3-.4.4-.9.4-1.6s0-1.2-.4-1.6c-.3-.4-.6-.6-1.1-.6s-.8.2-1.1.6-.4.9-.4,1.6Z"/>
            <path id="DejaVuSans-2d-6" d="M548.2,38.8h2.6v.8h-2.6v-.8Z"/>
            <path id="DejaVuSans-57-2" d="M551.2,34.7h1l1.5,6.2,1.5-6.2h1.1l1.5,6.2,1.5-6.2h1l-1.8,7.3h-1.2l-1.5-6.3-1.6,6.3h-1.2l-1.8-7.3Z"/>
            <path id="DejaVuSans-61-6" d="M563.6,39.2c-.7,0-1.2,0-1.5.2s-.4.4-.4.9,0,.6.3.8.5.3.9.3.9-.2,1.2-.5.5-.8.5-1.4v-.2h-1ZM565.4,38.8v3.1h-.9v-.8c-.2.3-.5.6-.8.7-.3.2-.7.2-1.1.2s-1-.2-1.3-.5-.5-.7-.5-1.3.2-1.1.6-1.4c.4-.3,1-.5,1.8-.5h1.3c0-.5,0-.8-.4-1s-.7-.3-1.1-.3-.6,0-.9,0c-.3,0-.6.2-.9.3v-.8c.3,0,.6-.2,1-.3h.9c.8,0,1.4.2,1.8.6.4.4.6,1,.6,1.9h0Z"/>
            <path id="DejaVuSans-76-3" d="M566.6,36.5h1l1.7,4.6,1.7-4.6h1l-2.1,5.5h-1.2l-2.1-5.5h0Z"/>
            <path id="DejaVuSans-65-7" d="M577.8,39v.4h-4.1c0,.6.2,1.1.6,1.4.3.3.8.5,1.4.5s.7,0,1,0,.6-.2,1-.4v.9c-.3,0-.7.2-1,.3s-.7,0-1,0c-.9,0-1.6-.3-2.1-.8s-.8-1.2-.8-2.1.2-1.6.7-2.1,1.1-.8,2-.8,1.3.2,1.7.7.6,1.1.6,1.9h0ZM576.9,38.7c0-.5,0-.9-.4-1.2-.3-.3-.6-.4-1.1-.4s-.9,0-1.2.4-.5.7-.5,1.2h3.2Z"/>
            <path id="DejaVuSans-29-5" d="M579.1,34.4h.8c.5.8.9,1.5,1.1,2.3.2.7.4,1.5.4,2.2s0,1.5-.4,2.2c-.2.7-.6,1.5-1.1,2.3h-.8c.4-.7.8-1.5,1-2.2s.3-1.5.3-2.2,0-1.5-.3-2.2-.5-1.5-1-2.2v-.2Z"/>
          </g>
        </g>
        <g id="line2d_6">
          <path d="M355.3,53.1h20" fill="none" stroke="blue" stroke-dasharray="7.4 3.2" stroke-linejoin="round" stroke-width="2"/>
        </g>
        <g id="text_10">
          <g>
            <path id="DejaVuSans-34-3" d="M387.1,50.2l-2.5,3.9h2.5v-3.9ZM386.8,49.3h1.2v4.8h1v.8h-1v1.7h-1v-1.7h-3.3v-1l3-4.6h0Z"/>
            <path id="DejaVuSans-30-14" d="M392.8,50c-.5,0-.9.3-1.1.8-.3.5-.4,1.3-.4,2.3s.1,1.7.4,2.2.6.8,1.1.8.9-.3,1.2-.8c.3-.5.4-1.2.4-2.2s-.1-1.8-.4-2.3-.6-.8-1.2-.8ZM392.8,49.2c.8,0,1.4.3,1.9,1,.4.6.6,1.6.6,2.8s-.2,2.2-.6,2.8-1.1,1-1.9,1-1.4-.3-1.9-1c-.4-.6-.6-1.6-.6-2.8s.2-2.2.6-2.8,1.1-1,1.9-1Z"/>
            <path id="DejaVuSans-6d-18" d="M401.2,52.2c.2-.4.5-.7.8-.9s.7-.3,1.1-.3,1,.2,1.3.6c.3.4.5,1,.5,1.7v3.3h-.9v-3.3c0-.5,0-.9-.3-1.2-.2-.3-.5-.4-.8-.4s-.8.2-1.1.5c-.3.3-.4.7-.4,1.3v3.1h-.9v-3.3c0-.5,0-.9-.3-1.2s-.5-.4-.9-.4-.8.2-1.1.5c-.3.3-.4.7-.4,1.3v3.1h-.9v-5.5h.9v.9c.2-.3.5-.6.7-.7s.6-.2,1-.2.7,0,1,.3.5.5.6.9h0Z"/>
            <path id="DejaVuSans-2c-14" d="M406.9,55.4h1v.8l-.8,1.6h-.6l.4-1.6v-.8Z"/>
            <path id="DejaVuSans-20-22" d="M408.9,56.6"/>
            <path id="DejaVuSans-33-2" d="M416.2,52.7c.5,0,.8.3,1.1.6.3.3.4.7.4,1.2s-.2,1.3-.7,1.7-1.2.6-2.1.6h-.9c-.3,0-.7-.2-1-.3v-1c.3.2.6.3.9.4.3,0,.7,0,1,0,.6,0,1.1,0,1.4-.4s.5-.6.5-1.1-.2-.8-.5-1-.7-.4-1.3-.4h-.9v-.8h.9c.5,0,.9,0,1.1-.3s.4-.5.4-.8-.1-.7-.4-.9-.6-.3-1.1-.3h-.9c-.3,0-.6,0-1,.3v-.9c.4,0,.7-.2,1.1-.2h.9c.7,0,1.3.2,1.8.5.4.3.7.8.7,1.4s-.1.7-.3,1-.6.5-1,.6h-.1Z"/>
            <path id="DejaVuSans-30-15" d="M421.6,50c-.5,0-.9.3-1.1.8-.3.5-.4,1.3-.4,2.3s.1,1.7.4,2.2.6.8,1.1.8.9-.3,1.2-.8c.3-.5.4-1.2.4-2.2s-.1-1.8-.4-2.3-.6-.8-1.2-.8ZM421.6,49.2c.8,0,1.4.3,1.9,1,.4.6.6,1.6.6,2.8s-.2,2.2-.6,2.8-1.1,1-1.9,1-1.4-.3-1.9-1c-.4-.6-.6-1.6-.6-2.8s.2-2.2.6-2.8,1.1-1,1.9-1Z"/>
            <path id="DejaVuSans-6d-19" d="M430,52.2c.2-.4.5-.7.8-.9s.7-.3,1.1-.3,1,.2,1.3.6c.3.4.5,1,.5,1.7v3.3h-.9v-3.3c0-.5,0-.9-.3-1.2-.2-.3-.5-.4-.8-.4s-.8.2-1.1.5c-.3.3-.4.7-.4,1.3v3.1h-.9v-3.3c0-.5,0-.9-.3-1.2s-.5-.4-.9-.4-.8.2-1.1.5c-.3.3-.4.7-.4,1.3v3.1h-.9v-5.5h.9v.9c.2-.3.5-.6.7-.7s.6-.2,1-.2.7,0,1,.3.5.5.6.9h0Z"/>
            <path id="DejaVuSans-2c-15" d="M435.7,55.4h1v.8l-.8,1.6h-.6l.4-1.6v-.8Z"/>
            <path id="DejaVuSans-20-23" d="M437.8,56.6"/>
            <path id="DejaVuSans-32-4" d="M442.9,55.8h3.4v.8h-4.6v-.8c.4-.4.9-.9,1.5-1.6.6-.7,1.1-1.1,1.2-1.3.3-.4.5-.7.7-.9.1-.2.2-.5.2-.7,0-.4-.1-.7-.4-.9s-.6-.4-1.1-.4-.6,0-1,.2c-.3,0-.7.3-1.1.5v-1c.4-.2.8-.3,1.1-.4.3,0,.7,0,.9,0,.8,0,1.4.2,1.8.6.4.4.7.9.7,1.5s0,.6-.2.9c-.1.3-.3.6-.6.9,0,0-.3.4-.8.8-.4.5-1.1,1.1-1.8,1.9h0Z"/>
            <path id="DejaVuSans-30-16" d="M450.5,50c-.5,0-.9.3-1.1.8-.3.5-.4,1.3-.4,2.3s.1,1.7.4,2.2.6.8,1.1.8.9-.3,1.2-.8c.3-.5.4-1.2.4-2.2s-.1-1.8-.4-2.3-.6-.8-1.2-.8ZM450.5,49.2c.8,0,1.4.3,1.9,1,.4.6.6,1.6.6,2.8s-.2,2.2-.6,2.8-1.1,1-1.9,1-1.4-.3-1.9-1c-.4-.6-.6-1.6-.6-2.8s.2-2.2.6-2.8,1.1-1,1.9-1Z"/>
            <path id="DejaVuSans-6d-20" d="M458.9,52.2c.2-.4.5-.7.8-.9s.7-.3,1.1-.3,1,.2,1.3.6c.3.4.5,1,.5,1.7v3.3h-.9v-3.3c0-.5,0-.9-.3-1.2-.2-.3-.5-.4-.8-.4s-.8.2-1.1.5c-.3.3-.4.7-.4,1.3v3.1h-.9v-3.3c0-.5,0-.9-.3-1.2s-.5-.4-.9-.4-.8.2-1.1.5c-.3.3-.4.7-.4,1.3v3.1h-.9v-5.5h.9v.9c.2-.3.5-.6.7-.7s.6-.2,1-.2.7,0,1,.3.5.5.6.9h0Z"/>
            <path id="DejaVuSans-2c-16" d="M464.6,55.4h1v.8l-.8,1.6h-.6l.4-1.6v-.8Z"/>
            <path id="DejaVuSans-20-24" d="M466.6,56.6"/>
            <path id="DejaVuSans-31-7" d="M471,55.8h1.6v-5.6l-1.8.4v-.9l1.7-.4h1v6.5h1.6v.8h-4.2v-.8h0Z"/>
            <path id="DejaVuSans-37-3" d="M476.9,49.3h4.7v.4l-2.6,6.9h-1l2.5-6.5h-3.5v-.8h-.1Z"/>
            <path id="DejaVuSans-6d-21" d="M487.7,52.2c.2-.4.5-.7.8-.9s.7-.3,1.1-.3,1,.2,1.3.6c.3.4.5,1,.5,1.7v3.3h-.9v-3.3c0-.5,0-.9-.3-1.2-.2-.3-.5-.4-.8-.4s-.8.2-1.1.5c-.3.3-.4.7-.4,1.3v3.1h-.9v-3.3c0-.5,0-.9-.3-1.2s-.5-.4-.9-.4-.8.2-1.1.5c-.3.3-.4.7-.4,1.3v3.1h-.9v-5.5h.9v.9c.2-.3.5-.6.7-.7s.6-.2,1-.2.7,0,1,.3.5.5.6.9h0Z"/>
            <path id="DejaVuSans-2c-17" d="M493.4,55.4h1v.8l-.8,1.6h-.6l.4-1.6v-.8Z"/>
            <path id="DejaVuSans-20-25" d="M495.4,56.6"/>
            <path id="DejaVuSans-31-8" d="M499.8,55.8h1.6v-5.6l-1.8.4v-.9l1.7-.4h1v6.5h1.6v.8h-4.2v-.8h0Z"/>
            <path id="DejaVuSans-35-2" d="M506,49.3h3.9v.8h-3v1.8c.1,0,.3,0,.4,0h.4c.8,0,1.5.2,1.9.7.5.4.7,1,.7,1.8s-.2,1.4-.7,1.8c-.5.4-1.2.7-2.1.7h-.9c-.3,0-.6,0-1-.2v-1c.3.2.6.3.9.4s.6,0,1,0c.6,0,1,0,1.3-.4.3-.3.5-.7.5-1.2s-.2-.9-.5-1.2-.8-.4-1.3-.4h-.8c-.3,0-.5,0-.8.3v-3.9Z"/>
            <path id="DejaVuSans-6d-22" d="M516.5,52.2c.2-.4.5-.7.8-.9s.7-.3,1.1-.3,1,.2,1.3.6c.3.4.5,1,.5,1.7v3.3h-.9v-3.3c0-.5,0-.9-.3-1.2-.2-.3-.5-.4-.8-.4s-.8.2-1.1.5-.4.7-.4,1.3v3.1h-.9v-3.3c0-.5,0-.9-.3-1.2s-.5-.4-.9-.4-.8.2-1.1.5-.4.7-.4,1.3v3.1h-.9v-5.5h.9v.9c.2-.3.5-.6.7-.7s.6-.2,1-.2.7,0,1,.3.5.5.6.9h.1Z"/>
            <path id="DejaVuSans-2c-18" d="M522.2,55.4h1v.8l-.8,1.6h-.6l.4-1.6v-.8h0Z"/>
            <path id="DejaVuSans-20-26" d="M524.2,56.6"/>
            <path id="DejaVuSans-31-9" d="M528.6,55.8h1.6v-5.6l-1.8.4v-.9l1.7-.4h1v6.5h1.6v.8h-4.2v-.8h.1Z"/>
            <path id="DejaVuSans-32-5" d="M535.7,55.8h3.4v.8h-4.6v-.8c.4-.4.9-.9,1.5-1.6.6-.7,1.1-1.1,1.2-1.3.3-.4.5-.7.7-.9,0-.2.2-.5.2-.7,0-.4,0-.7-.4-.9-.3-.2-.6-.4-1.1-.4s-.6,0-1,.2c-.3,0-.7.3-1.1.5v-1c.4-.2.8-.3,1.1-.4.3,0,.7,0,.9,0,.8,0,1.4.2,1.8.6.4.4.7.9.7,1.5s0,.6-.2.9c0,.3-.3.6-.6.9,0,0-.3.4-.8.8-.4.5-1.1,1.1-1.8,1.9h0Z"/>
            <path id="DejaVuSans-6d-23" d="M545.3,52.2c.2-.4.5-.7.8-.9s.7-.3,1.1-.3,1,.2,1.3.6c.3.4.5,1,.5,1.7v3.3h-.9v-3.3c0-.5,0-.9-.3-1.2-.2-.3-.5-.4-.8-.4s-.8.2-1.1.5-.4.7-.4,1.3v3.1h-.9v-3.3c0-.5,0-.9-.3-1.2s-.5-.4-.9-.4-.8.2-1.1.5-.4.7-.4,1.3v3.1h-.9v-5.5h.9v.9c.2-.3.5-.6.7-.7s.6-.2,1-.2.7,0,1,.3.5.5.6.9h.1Z"/>
            <path id="DejaVuSans-2c-19" d="M551,55.4h1v.8l-.8,1.6h-.6l.4-1.6v-.8h0Z"/>
            <path id="DejaVuSans-20-27" d="M553,56.6"/>
            <path id="DejaVuSans-31-10" d="M557.5,55.8h1.6v-5.6l-1.8.4v-.9l1.7-.4h1v6.5h1.6v.8h-4.2v-.8h.1Z"/>
            <path id="DejaVuSans-30-17" d="M565.8,50c-.5,0-.9.3-1.1.8-.3.5-.4,1.3-.4,2.3s0,1.7.4,2.2c.3.5.6.8,1.1.8s.9-.3,1.2-.8.4-1.2.4-2.2,0-1.8-.4-2.3c-.3-.5-.6-.8-1.2-.8ZM565.8,49.2c.8,0,1.4.3,1.9,1,.4.6.6,1.6.6,2.8s-.2,2.2-.6,2.8c-.4.6-1.1,1-1.9,1s-1.4-.3-1.9-1c-.4-.6-.6-1.6-.6-2.8s.2-2.2.6-2.8c.4-.6,1.1-1,1.9-1Z"/>
            <path id="DejaVuSans-6d-24" d="M574.2,52.2c.2-.4.5-.7.8-.9s.7-.3,1.1-.3,1,.2,1.3.6c.3.4.5,1,.5,1.7v3.3h-.9v-3.3c0-.5,0-.9-.3-1.2-.2-.3-.5-.4-.8-.4s-.8.2-1.1.5-.4.7-.4,1.3v3.1h-.9v-3.3c0-.5,0-.9-.3-1.2s-.5-.4-.9-.4-.8.2-1.1.5-.4.7-.4,1.3v3.1h-.9v-5.5h.9v.9c.2-.3.5-.6.7-.7s.6-.2,1-.2.7,0,1,.3.5.5.6.9h.1Z"/>
            <path id="DejaVuSans-20-28" d="M578.7,56.6"/>
            <path id="DejaVuSans-42-4" d="M583.8,53.2v2.7h1.6c.5,0,.9,0,1.2-.3s.4-.6.4-1,0-.8-.4-1c-.3-.2-.6-.3-1.2-.3h-1.6ZM583.8,50.2v2.2h1.5c.5,0,.8,0,1.1-.3.2-.2.4-.5.4-.8s0-.6-.4-.8c-.2-.2-.6-.3-1.1-.3,0,0-1.5,0-1.5,0ZM582.9,49.3h2.5c.8,0,1.3.2,1.7.5s.6.8.6,1.3,0,.8-.3,1.1-.5.4-.9.5c.5,0,.9.3,1.1.7.3.3.4.7.4,1.2s-.2,1.2-.7,1.5c-.4.4-1.1.5-1.9.5h-2.6v-7.3h.1Z"/>
            <path id="DejaVuSans-61-7" d="M592.2,53.9c-.7,0-1.2,0-1.5.2s-.4.4-.4.9,0,.6.3.8.5.3.9.3.9-.2,1.2-.5.5-.8.5-1.4v-.2h-1ZM594,53.5v3.1h-.9v-.8c-.2.3-.5.6-.8.7-.3.2-.7.2-1.1.2s-1-.2-1.3-.5-.5-.7-.5-1.3.2-1.1.6-1.4c.4-.3,1-.5,1.8-.5h1.3c0-.5,0-.8-.4-1s-.7-.3-1.1-.3-.6,0-.9,0c-.3,0-.6.2-.9.3v-.8c.3,0,.6-.2,1-.3h.9c.8,0,1.4.2,1.8.6.4.4.6,1,.6,1.9h0Z"/>
            <path id="DejaVuSans-6e-10" d="M600.3,53.3v3.3h-.9v-3.3c0-.5,0-.9-.3-1.2s-.5-.4-.9-.4-.9.2-1.1.5c-.3.3-.4.7-.4,1.3v3.1h-.9v-5.5h.9v.9c.2-.3.5-.6.8-.7.3-.2.6-.2,1-.2.6,0,1.1.2,1.4.6.3.4.5,1,.5,1.7h0Z"/>
            <path id="DejaVuSans-64-7" d="M605.7,52v-3h.9v7.6h-.9v-.8c-.2.3-.4.6-.7.7-.3.2-.6.2-1,.2-.7,0-1.2-.3-1.6-.8-.4-.5-.6-1.2-.6-2.1s.2-1.6.6-2.1c.4-.5,1-.8,1.6-.8s.8,0,1,.2c.3.2.5.4.7.7v.2ZM602.7,53.9c0,.7,0,1.2.4,1.6.3.4.6.6,1.1.6s.8-.2,1.1-.6c.3-.4.4-.9.4-1.6s0-1.2-.4-1.6c-.3-.4-.6-.6-1.1-.6s-.8.2-1.1.6-.4.9-.4,1.6Z"/>
            <path id="DejaVuSans-73-5" d="M612,51.3v.9c-.3,0-.5-.2-.8-.3h-.9c-.4,0-.8,0-1,.2-.2,0-.3.3-.3.6s0,.4.2.5.5.2,1,.3h.3c.6.2,1.1.4,1.4.6s.4.6.4,1-.2.9-.6,1.2c-.4.3-1,.4-1.7.4h-.9c-.3,0-.7,0-1-.3v-.9c.3.2.7.3,1,.4.3,0,.6,0,1,0s.7,0,1-.2c.2,0,.3-.3.3-.6s0-.4-.2-.6c-.2,0-.5-.3-1.1-.4h-.3c-.6-.2-1-.4-1.2-.6-.2-.2-.4-.6-.4-1s.2-.9.5-1.2c.4-.3.9-.4,1.6-.4h.9c.3,0,.6,0,.8.2h0Z"/>
            <path id="DejaVuSans-20-29" d="M612.8,56.6"/>
            <path id="DejaVuSans-28-6" d="M619,49c-.4.7-.8,1.5-1,2.2s-.3,1.5-.3,2.2,0,1.5.3,2.2.5,1.5,1,2.2h-.8c-.5-.8-.9-1.5-1.1-2.3-.2-.7-.4-1.5-.4-2.2s0-1.5.4-2.2c.2-.7.6-1.5,1.1-2.3h.8v.2Z"/>
            <path id="DejaVuSans-53-5" d="M625.2,49.6v1c-.4-.2-.7-.3-1.1-.4-.3,0-.7,0-1,0-.5,0-1,0-1.2.3-.3.2-.4.5-.4.9s0,.6.3.7c.2.2.6.3,1.1.4h.6c.7.3,1.3.5,1.6.9s.5.8.5,1.4-.2,1.2-.7,1.6c-.5.4-1.2.5-2.1.5s-.7,0-1.1,0c-.4,0-.8-.2-1.2-.3v-1c.4.2.8.4,1.2.5s.8.2,1.1.2c.6,0,1,0,1.3-.3s.5-.5.5-.9,0-.6-.3-.8-.6-.4-1.1-.5h-.6c-.7-.3-1.3-.5-1.6-.8s-.5-.7-.5-1.3.2-1.2.7-1.5c.5-.4,1.1-.6,1.9-.6h1c.4,0,.7.2,1.1.3h0Z"/>
            <path id="DejaVuSans-6b-2" d="M627.1,49h.9v4.5l2.7-2.4h1.1l-2.9,2.6,3,2.9h-1.2l-2.8-2.7v2.7h-.9v-7.6h.1Z"/>
            <path id="DejaVuSans-79-2" d="M634.8,57.1c-.3.7-.5,1.1-.7,1.3s-.6.3-1,.3h-.7v-.8h.5c.2,0,.4,0,.6-.2,0,0,.3-.4.5-.8l.2-.4-2.2-5.4h1l1.7,4.3,1.7-4.3h1l-2.4,6h-.2Z"/>
            <path id="DejaVuSans-77-2" d="M637.9,51.2h.9l1.1,4.3,1.1-4.3h1.1l1.1,4.3,1.1-4.3h.9l-1.4,5.5h-1.1l-1.2-4.5-1.2,4.5h-1.1l-1.4-5.5h.1Z"/>
            <path id="DejaVuSans-61-8" d="M649.1,53.9c-.7,0-1.2,0-1.5.2s-.4.4-.4.9,0,.6.3.8.5.3.9.3.9-.2,1.2-.5.5-.8.5-1.4v-.2h-1ZM650.9,53.5v3.1h-.9v-.8c-.2.3-.5.6-.8.7-.3.2-.7.2-1.1.2s-1-.2-1.3-.5-.5-.7-.5-1.3.2-1.1.6-1.4c.4-.3,1-.5,1.8-.5h1.3c0-.5,0-.8-.4-1s-.7-.3-1.1-.3-.6,0-.9,0c-.3,0-.6.2-.9.3v-.8c.3,0,.6-.2,1-.3h.9c.8,0,1.4.2,1.8.6.4.4.6,1,.6,1.9h0Z"/>
            <path id="DejaVuSans-76-4" d="M652.1,51.2h1l1.7,4.6,1.7-4.6h1l-2.1,5.5h-1.2l-2.1-5.5h0Z"/>
            <path id="DejaVuSans-65-8" d="M663.4,53.7v.4h-4.1c0,.6.2,1.1.6,1.4.3.3.8.5,1.4.5s.7,0,1,0,.6-.2,1-.4v.9c-.3,0-.7.2-1,.3s-.7,0-1,0c-.9,0-1.6-.3-2.1-.8s-.8-1.2-.8-2.1.2-1.6.7-2.1,1.1-.8,2-.8,1.3.2,1.7.7.6,1.1.6,1.9h0ZM662.5,53.4c0-.5,0-.9-.4-1.2-.3-.3-.6-.4-1.1-.4s-.9,0-1.2.4-.5.7-.5,1.2h3.2Z"/>
            <path id="DejaVuSans-29-6" d="M664.7,49h.8c.5.8.9,1.5,1.1,2.3.2.7.4,1.5.4,2.2s0,1.5-.4,2.2c-.2.7-.6,1.5-1.1,2.3h-.8c.4-.7.8-1.5,1-2.2s.3-1.5.3-2.2,0-1.5-.3-2.2-.5-1.5-1-2.2v-.2Z"/>
          </g>
        </g>
      </g>
    </g>
  </g>
</svg>