<?xml version="1.0" encoding="utf-8" standalone="no"?>
<!DOCTYPE svg PUBLIC "-//W3C//DTD SVG 1.1//EN"
  "http://www.w3.org/Graphics/SVG/1.1/DTD/svg11.dtd">
<svg xmlns:xlink="http://www.w3.org/1999/xlink" width="235" height="50" viewBox="0 0 234.755387 50.4" xmlns="http://www.w3.org/2000/svg" version="1.1">
 <metadata>
  <rdf:RDF xmlns:dc="http://purl.org/dc/elements/1.1/" xmlns:cc="http://creativecommons.org/ns#" xmlns:rdf="http://www.w3.org/1999/02/22-rdf-syntax-ns#">
   <cc:Work>
    <dc:type rdf:resource="http://purl.org/dc/dcmitype/StillImage"/>
    <dc:date>2024-09-04T19:57:51.843603</dc:date>
    <dc:format>image/svg+xml</dc:format>
    <dc:creator>
     <cc:Agent>
      <dc:title>Matplotlib v3.9.2, https://matplotlib.org/</dc:title>
     </cc:Agent>
    </dc:creator>
   </cc:Work>
  </rdf:RDF>
 </metadata>
 <defs>
  <style type="text/css">*{stroke-linejoin: round; stroke-linecap: butt}</style>
 </defs>
 <g id="figure_1">
  <g id="patch_1">
   <path d="M 0 50.4 
L 234.755387 50.4 
L 234.755387 0 
L 0 0 
z
" style="fill: #ffffff"/>
  </g>
  <g id="axes_1">
   <g id="patch_2">
    <path d="M 49.511574 23.89868 
C 49.511574 22.709708 49.038753 21.568218 48.198023 20.727487 
C 47.357293 19.886757 46.215802 19.413936 45.02683 19.413936 
C 43.837858 19.413936 42.696367 19.886757 41.855637 20.727487 
C 41.014907 21.568218 40.542086 22.709708 40.542086 23.89868 
" clip-path="url(#pe7871534f6)" style="fill: none; stroke: #000000; stroke-width: 2; stroke-linejoin: miter"/>
   </g>
   <g id="patch_3">
    <path d="M 58.481062 23.89868 
C 58.481062 22.709708 58.008241 21.568218 57.167511 20.727487 
C 56.326781 19.886757 55.18529 19.413936 53.996318 19.413936 
C 52.807346 19.413936 51.665855 19.886757 50.825125 20.727487 
C 49.984395 21.568218 49.511574 22.709708 49.511574 23.89868 
" clip-path="url(#pe7871534f6)" style="fill: none; stroke: #000000; stroke-width: 2; stroke-linejoin: miter"/>
   </g>
   <g id="patch_4">
    <path d="M 67.45055 23.89868 
C 67.45055 22.709708 66.977729 21.568218 66.136999 20.727487 
C 65.296269 19.886757 64.154778 19.413936 62.965806 19.413936 
C 61.776834 19.413936 60.635343 19.886757 59.794613 20.727487 
C 58.953883 21.568218 58.481062 22.709708 58.481062 23.89868 
" clip-path="url(#pe7871534f6)" style="fill: none; stroke: #000000; stroke-width: 2; stroke-linejoin: miter"/>
   </g>
   <g id="patch_5">
    <path d="M 76.420038 23.89868 
C 76.420038 22.709708 75.947217 21.568218 75.106487 20.727487 
C 74.265757 19.886757 73.124266 19.413936 71.935294 19.413936 
C 70.746322 19.413936 69.604831 19.886757 68.764101 20.727487 
C 67.923371 21.568218 67.45055 22.709708 67.45055 23.89868 
" clip-path="url(#pe7871534f6)" style="fill: none; stroke: #000000; stroke-width: 2; stroke-linejoin: miter"/>
   </g>
   <g id="line2d_1">
    <path d="M 4.664134 23.89868 
L 40.542086 23.89868 
M 76.420038 23.89868 
L 112.29799 23.89868 
" clip-path="url(#pe7871534f6)" style="fill: none; stroke: #000000; stroke-width: 2; stroke-linecap: round"/>
   </g>
   <g id="line2d_2">
    <path d="M 112.29799 23.89868 
L 148.175942 23.89868 
L 148.309558 20.944543 
L 148.715865 17.963763 
L 149.385828 15.206333 
L 150.288295 12.903515 
L 150.811544 11.9849 
L 151.372615 11.248442 
L 151.962828 10.709665 
L 152.572887 10.379924 
L 153.193082 10.26617 
L 153.813485 10.370801 
L 154.424166 10.691611 
L 155.015399 11.221839 
L 155.577869 11.950307 
L 156.102865 12.861662 
L 157.009717 15.152741 
L 157.684937 17.902926 
L 158.096934 20.881564 
L 158.236192 23.838841 
L 158.116071 26.526735 
L 157.771682 28.719815 
L 157.256949 30.234153 
L 156.956609 30.694551 
L 156.640078 30.942742 
L 156.317171 30.973492 
L 155.997844 30.786154 
L 155.691971 30.384677 
L 155.158482 28.977489 
L 154.786484 26.869947 
L 154.632216 24.238808 
L 154.733653 21.30474 
L 155.107327 18.313821 
L 155.746936 15.516893 
L 156.623875 13.14853 
L 157.136861 12.18902 
L 157.689636 11.407365 
L 158.273695 10.820039 
L 158.879873 10.439424 
L 159.498539 10.273542 
L 160.1198 10.325889 
L 160.733707 10.595363 
L 161.330465 11.076282 
L 161.900644 11.75851 
L 162.435371 12.627667 
L 163.366887 14.849933 
L 164.071929 17.556701 
L 164.516402 20.520959 
L 164.688069 23.4941 
L 164.59757 26.22677 
L 164.277533 28.489785 
L 163.779838 30.093349 
L 163.484802 30.603304 
L 163.171264 30.902974 
L 162.84898 30.986041 
L 162.527889 30.850757 
L 162.217906 30.499971 
L 161.92871 29.941078 
L 161.449019 28.25023 
L 161.154083 25.920022 
L 161.093678 23.145886 
L 161.297907 20.160483 
L 161.774681 17.214195 
L 162.509051 14.554123 
L 163.464465 12.403362 
L 164.008455 11.577456 
L 164.585833 10.942294 
L 165.187575 10.511266 
L 165.804145 10.293457 
L 166.425692 10.293457 
L 167.042262 10.511266 
L 167.644004 10.942294 
L 168.221382 11.577456 
L 168.765372 12.403362 
L 169.267653 13.402605 
L 170.118365 15.833643 
L 170.727207 18.666681 
L 171.068156 21.664116 
L 171.137654 24.574559 
L 170.954911 27.153915 
L 170.560292 29.185858 
L 170.011931 30.499971 
L 169.701948 30.850757 
L 169.380857 30.986041 
L 169.058573 30.902974 
L 168.745035 30.603304 
L 168.449999 30.093349 
L 167.952303 28.489785 
L 167.632267 26.22677 
L 167.541768 23.4941 
L 167.713435 20.520959 
L 168.157908 17.556701 
L 168.86295 14.849933 
L 169.794466 12.627667 
L 170.329193 11.75851 
L 170.899372 11.076282 
L 171.49613 10.595363 
L 172.110037 10.325889 
L 172.731298 10.273542 
L 173.349964 10.439424 
L 173.956142 10.820039 
L 174.540201 11.407365 
L 175.092976 12.18902 
L 175.605962 13.14853 
L 176.482901 15.516893 
L 177.12251 18.313821 
L 177.496184 21.30474 
L 177.597621 24.238808 
L 177.443353 26.869947 
L 177.071355 28.977489 
L 176.537866 30.384677 
L 176.231993 30.786154 
L 175.912666 30.973492 
L 175.589759 30.942742 
L 175.273228 30.694551 
L 174.972888 30.234153 
L 174.458154 28.719815 
L 174.113766 26.526735 
L 173.993645 23.838841 
L 174.132903 20.881564 
L 174.5449 17.902926 
L 175.22012 15.152741 
L 176.126972 12.861662 
L 176.651968 11.950307 
L 177.214438 11.221839 
L 177.805671 10.691611 
L 178.416352 10.370801 
L 179.036755 10.26617 
L 179.656949 10.379924 
L 180.267009 10.709665 
L 180.857222 11.248442 
L 181.418293 11.9849 
L 181.941542 12.903515 
L 182.844009 15.206333 
L 183.513972 17.963763 
L 183.920279 20.944543 
L 184.053895 23.89868 
L 219.931847 23.89868 
L 219.931847 23.89868 
" clip-path="url(#pe7871534f6)" style="fill: none; stroke: #000000; stroke-width: 2; stroke-linecap: round"/>
   </g>
   <g id="text_1">
    <!-- Inductor -->
    <g transform="translate(29.34575 12.914601) scale(0.14 -0.14)">
     <defs>
      <path id="DejaVuSans-49" d="M 628 4666 
L 1259 4666 
L 1259 0 
L 628 0 
L 628 4666 
z
" transform="scale(0.015625)"/>
      <path id="DejaVuSans-6e" d="M 3513 2113 
L 3513 0 
L 2938 0 
L 2938 2094 
Q 2938 2591 2744 2837 
Q 2550 3084 2163 3084 
Q 1697 3084 1428 2787 
Q 1159 2491 1159 1978 
L 1159 0 
L 581 0 
L 581 3500 
L 1159 3500 
L 1159 2956 
Q 1366 3272 1645 3428 
Q 1925 3584 2291 3584 
Q 2894 3584 3203 3211 
Q 3513 2838 3513 2113 
z
" transform="scale(0.015625)"/>
      <path id="DejaVuSans-64" d="M 2906 2969 
L 2906 4863 
L 3481 4863 
L 3481 0 
L 2906 0 
L 2906 525 
Q 2725 213 2448 61 
Q 2172 -91 1784 -91 
Q 1150 -91 751 415 
Q 353 922 353 1747 
Q 353 2572 751 3078 
Q 1150 3584 1784 3584 
Q 2172 3584 2448 3432 
Q 2725 3281 2906 2969 
z
M 947 1747 
Q 947 1113 1208 752 
Q 1469 391 1925 391 
Q 2381 391 2643 752 
Q 2906 1113 2906 1747 
Q 2906 2381 2643 2742 
Q 2381 3103 1925 3103 
Q 1469 3103 1208 2742 
Q 947 2381 947 1747 
z
" transform="scale(0.015625)"/>
      <path id="DejaVuSans-75" d="M 544 1381 
L 544 3500 
L 1119 3500 
L 1119 1403 
Q 1119 906 1312 657 
Q 1506 409 1894 409 
Q 2359 409 2629 706 
Q 2900 1003 2900 1516 
L 2900 3500 
L 3475 3500 
L 3475 0 
L 2900 0 
L 2900 538 
Q 2691 219 2414 64 
Q 2138 -91 1772 -91 
Q 1169 -91 856 284 
Q 544 659 544 1381 
z
M 1991 3584 
L 1991 3584 
z
" transform="scale(0.015625)"/>
      <path id="DejaVuSans-63" d="M 3122 3366 
L 3122 2828 
Q 2878 2963 2633 3030 
Q 2388 3097 2138 3097 
Q 1578 3097 1268 2742 
Q 959 2388 959 1747 
Q 959 1106 1268 751 
Q 1578 397 2138 397 
Q 2388 397 2633 464 
Q 2878 531 3122 666 
L 3122 134 
Q 2881 22 2623 -34 
Q 2366 -91 2075 -91 
Q 1284 -91 818 406 
Q 353 903 353 1747 
Q 353 2603 823 3093 
Q 1294 3584 2113 3584 
Q 2378 3584 2631 3529 
Q 2884 3475 3122 3366 
z
" transform="scale(0.015625)"/>
      <path id="DejaVuSans-74" d="M 1172 4494 
L 1172 3500 
L 2356 3500 
L 2356 3053 
L 1172 3053 
L 1172 1153 
Q 1172 725 1289 603 
Q 1406 481 1766 481 
L 2356 481 
L 2356 0 
L 1766 0 
Q 1100 0 847 248 
Q 594 497 594 1153 
L 594 3053 
L 172 3053 
L 172 3500 
L 594 3500 
L 594 4494 
L 1172 4494 
z
" transform="scale(0.015625)"/>
      <path id="DejaVuSans-6f" d="M 1959 3097 
Q 1497 3097 1228 2736 
Q 959 2375 959 1747 
Q 959 1119 1226 758 
Q 1494 397 1959 397 
Q 2419 397 2687 759 
Q 2956 1122 2956 1747 
Q 2956 2369 2687 2733 
Q 2419 3097 1959 3097 
z
M 1959 3584 
Q 2709 3584 3137 3096 
Q 3566 2609 3566 1747 
Q 3566 888 3137 398 
Q 2709 -91 1959 -91 
Q 1206 -91 779 398 
Q 353 888 353 1747 
Q 353 2609 779 3096 
Q 1206 3584 1959 3584 
z
" transform="scale(0.015625)"/>
      <path id="DejaVuSans-72" d="M 2631 2963 
Q 2534 3019 2420 3045 
Q 2306 3072 2169 3072 
Q 1681 3072 1420 2755 
Q 1159 2438 1159 1844 
L 1159 0 
L 581 0 
L 581 3500 
L 1159 3500 
L 1159 2956 
Q 1341 3275 1631 3429 
Q 1922 3584 2338 3584 
Q 2397 3584 2469 3576 
Q 2541 3569 2628 3553 
L 2631 2963 
z
" transform="scale(0.015625)"/>
     </defs>
     <use xlink:href="#DejaVuSans-49"/>
     <use xlink:href="#DejaVuSans-6e" x="29.492188"/>
     <use xlink:href="#DejaVuSans-64" x="92.871094"/>
     <use xlink:href="#DejaVuSans-75" x="156.347656"/>
     <use xlink:href="#DejaVuSans-63" x="219.726562"/>
     <use xlink:href="#DejaVuSans-74" x="274.707031"/>
     <use xlink:href="#DejaVuSans-6f" x="313.916016"/>
     <use xlink:href="#DejaVuSans-72" x="375.097656"/>
    </g>
   </g>
   <g id="text_2">
    <!-- Inductor (alternate) -->
    <g transform="translate(97.47445 45.211649) scale(0.14 -0.14)">
     <defs>
      <path id="DejaVuSans-20" transform="scale(0.015625)"/>
      <path id="DejaVuSans-28" d="M 1984 4856 
Q 1566 4138 1362 3434 
Q 1159 2731 1159 2009 
Q 1159 1288 1364 580 
Q 1569 -128 1984 -844 
L 1484 -844 
Q 1016 -109 783 600 
Q 550 1309 550 2009 
Q 550 2706 781 3412 
Q 1013 4119 1484 4856 
L 1984 4856 
z
" transform="scale(0.015625)"/>
      <path id="DejaVuSans-61" d="M 2194 1759 
Q 1497 1759 1228 1600 
Q 959 1441 959 1056 
Q 959 750 1161 570 
Q 1363 391 1709 391 
Q 2188 391 2477 730 
Q 2766 1069 2766 1631 
L 2766 1759 
L 2194 1759 
z
M 3341 1997 
L 3341 0 
L 2766 0 
L 2766 531 
Q 2569 213 2275 61 
Q 1981 -91 1556 -91 
Q 1019 -91 701 211 
Q 384 513 384 1019 
Q 384 1609 779 1909 
Q 1175 2209 1959 2209 
L 2766 2209 
L 2766 2266 
Q 2766 2663 2505 2880 
Q 2244 3097 1772 3097 
Q 1472 3097 1187 3025 
Q 903 2953 641 2809 
L 641 3341 
Q 956 3463 1253 3523 
Q 1550 3584 1831 3584 
Q 2591 3584 2966 3190 
Q 3341 2797 3341 1997 
z
" transform="scale(0.015625)"/>
      <path id="DejaVuSans-6c" d="M 603 4863 
L 1178 4863 
L 1178 0 
L 603 0 
L 603 4863 
z
" transform="scale(0.015625)"/>
      <path id="DejaVuSans-65" d="M 3597 1894 
L 3597 1613 
L 953 1613 
Q 991 1019 1311 708 
Q 1631 397 2203 397 
Q 2534 397 2845 478 
Q 3156 559 3463 722 
L 3463 178 
Q 3153 47 2828 -22 
Q 2503 -91 2169 -91 
Q 1331 -91 842 396 
Q 353 884 353 1716 
Q 353 2575 817 3079 
Q 1281 3584 2069 3584 
Q 2775 3584 3186 3129 
Q 3597 2675 3597 1894 
z
M 3022 2063 
Q 3016 2534 2758 2815 
Q 2500 3097 2075 3097 
Q 1594 3097 1305 2825 
Q 1016 2553 972 2059 
L 3022 2063 
z
" transform="scale(0.015625)"/>
      <path id="DejaVuSans-29" d="M 513 4856 
L 1013 4856 
Q 1481 4119 1714 3412 
Q 1947 2706 1947 2009 
Q 1947 1309 1714 600 
Q 1481 -109 1013 -844 
L 513 -844 
Q 928 -128 1133 580 
Q 1338 1288 1338 2009 
Q 1338 2731 1133 3434 
Q 928 4138 513 4856 
z
" transform="scale(0.015625)"/>
     </defs>
     <use xlink:href="#DejaVuSans-49"/>
     <use xlink:href="#DejaVuSans-6e" x="29.492188"/>
     <use xlink:href="#DejaVuSans-64" x="92.871094"/>
     <use xlink:href="#DejaVuSans-75" x="156.347656"/>
     <use xlink:href="#DejaVuSans-63" x="219.726562"/>
     <use xlink:href="#DejaVuSans-74" x="274.707031"/>
     <use xlink:href="#DejaVuSans-6f" x="313.916016"/>
     <use xlink:href="#DejaVuSans-72" x="375.097656"/>
     <use xlink:href="#DejaVuSans-20" x="416.210938"/>
     <use xlink:href="#DejaVuSans-28" x="447.998047"/>
     <use xlink:href="#DejaVuSans-61" x="487.011719"/>
     <use xlink:href="#DejaVuSans-6c" x="548.291016"/>
     <use xlink:href="#DejaVuSans-74" x="576.074219"/>
     <use xlink:href="#DejaVuSans-65" x="615.283203"/>
     <use xlink:href="#DejaVuSans-72" x="676.806641"/>
     <use xlink:href="#DejaVuSans-6e" x="716.169922"/>
     <use xlink:href="#DejaVuSans-61" x="779.548828"/>
     <use xlink:href="#DejaVuSans-74" x="840.828125"/>
     <use xlink:href="#DejaVuSans-65" x="880.037109"/>
     <use xlink:href="#DejaVuSans-29" x="941.560547"/>
    </g>
   </g>
  </g>
 </g>
 <defs>
  <clipPath id="pe7871534f6">
   <rect x="0" y="0" width="231.640018" height="50.4"/>
  </clipPath>
 </defs>
</svg>
