<?xml version="1.0" encoding="utf-8" standalone="no"?>
<!DOCTYPE svg PUBLIC "-//W3C//DTD SVG 1.1//EN"
  "http://www.w3.org/Graphics/SVG/1.1/DTD/svg11.dtd">
<svg xmlns:xlink="http://www.w3.org/1999/xlink" width="144pt" height="121.870647pt" viewBox="0 0 144 121.870647" xmlns="http://www.w3.org/2000/svg" version="1.1">
 <metadata>
  <rdf:RDF xmlns:dc="http://purl.org/dc/elements/1.1/" xmlns:cc="http://creativecommons.org/ns#" xmlns:rdf="http://www.w3.org/1999/02/22-rdf-syntax-ns#">
   <cc:Work>
    <dc:type rdf:resource="http://purl.org/dc/dcmitype/StillImage"/>
    <dc:date>2024-09-04T19:57:51.943779</dc:date>
    <dc:format>image/svg+xml</dc:format>
    <dc:creator>
     <cc:Agent>
      <dc:title>Matplotlib v3.9.2, https://matplotlib.org/</dc:title>
     </cc:Agent>
    </dc:creator>
   </cc:Work>
  </rdf:RDF>
 </metadata>
 <defs>
  <style type="text/css">*{stroke-linejoin: round; stroke-linecap: butt}</style>
 </defs>
 <g id="figure_1">
  <g id="patch_1">
   <path d="M 0 121.870647 
L 144 121.870647 
L 144 0 
L 0 0 
z
" style="fill: #ffffff"/>
  </g>
  <g id="axes_1">
   <g id="line2d_1">
    <path d="M 54.089552 38.00995 
M 62.686567 34.427861 
L 79.164179 29.054726 
M 89.910448 23.681592 
" clip-path="url(#p0e1cbd26fb)" style="fill: none; stroke: #000000; stroke-width: 2; stroke-linecap: round"/>
   </g>
   <g id="line2d_2">
    <path d="M 54.089552 88.159204 
M 62.686567 84.577114 
L 79.164179 79.20398 
M 89.910448 73.830846 
" clip-path="url(#p0e1cbd26fb)" style="fill: none; stroke: #000000; stroke-width: 2; stroke-linecap: round"/>
   </g>
   <g id="line2d_3">
    <path d="M 72 79.20398 
L 72 30.845771 
" clip-path="url(#p0e1cbd26fb)" style="fill: none; stroke-dasharray: 2,3.3; stroke-dashoffset: 0; stroke: #000000; stroke-width: 2"/>
   </g>
   <g id="line2d_4">
    <path d="M 58.38806 38.00995 
L 31.522388 38.00995 
L 4.656716 38.00995 
" clip-path="url(#p0e1cbd26fb)" style="fill: none; stroke: #000000; stroke-width: 2; stroke-linecap: round"/>
   </g>
   <g id="line2d_5">
    <path d="M 85.61194 23.681592 
L 112.477612 23.681592 
L 139.343284 23.681592 
" clip-path="url(#p0e1cbd26fb)" style="fill: none; stroke: #000000; stroke-width: 2; stroke-linecap: round"/>
   </g>
   <g id="line2d_6">
    <path d="M 85.61194 52.338308 
L 112.477612 52.338308 
L 139.343284 52.338308 
" clip-path="url(#p0e1cbd26fb)" style="fill: none; stroke: #000000; stroke-width: 2; stroke-linecap: round"/>
   </g>
   <g id="line2d_7">
    <path d="M 58.38806 88.159204 
L 31.522388 88.159204 
L 4.656716 88.159204 
" clip-path="url(#p0e1cbd26fb)" style="fill: none; stroke: #000000; stroke-width: 2; stroke-linecap: round"/>
   </g>
   <g id="line2d_8">
    <path d="M 85.61194 73.830846 
L 112.477612 73.830846 
L 139.343284 73.830846 
" clip-path="url(#p0e1cbd26fb)" style="fill: none; stroke: #000000; stroke-width: 2; stroke-linecap: round"/>
   </g>
   <g id="line2d_9">
    <path d="M 85.61194 102.487562 
L 112.477612 102.487562 
L 139.343284 102.487562 
" clip-path="url(#p0e1cbd26fb)" style="fill: none; stroke: #000000; stroke-width: 2; stroke-linecap: round"/>
   </g>
   <g id="patch_2">
    <path d="M 58.38806 42.308458 
C 59.528037 42.308458 60.621478 41.85554 61.427563 41.049454 
C 62.233649 40.243368 62.686567 39.149928 62.686567 38.00995 
C 62.686567 36.869973 62.233649 35.776532 61.427563 34.970446 
C 60.621478 34.164361 59.528037 33.711443 58.38806 33.711443 
C 57.248082 33.711443 56.154642 34.164361 55.348556 34.970446 
C 54.54247 35.776532 54.089552 36.869973 54.089552 38.00995 
C 54.089552 39.149928 54.54247 40.243368 55.348556 41.049454 
C 56.154642 41.85554 57.248082 42.308458 58.38806 42.308458 
z
" clip-path="url(#p0e1cbd26fb)" style="fill: #ffffff; stroke: #000000; stroke-width: 2; stroke-linejoin: miter"/>
   </g>
   <g id="patch_3">
    <path d="M 85.61194 56.636816 
C 86.751918 56.636816 87.845358 56.183898 88.651444 55.377812 
C 89.45753 54.571726 89.910448 53.478286 89.910448 52.338308 
C 89.910448 51.198331 89.45753 50.104891 88.651444 49.298805 
C 87.845358 48.492719 86.751918 48.039801 85.61194 48.039801 
C 84.471963 48.039801 83.378522 48.492719 82.572437 49.298805 
C 81.766351 50.104891 81.313433 51.198331 81.313433 52.338308 
C 81.313433 53.478286 81.766351 54.571726 82.572437 55.377812 
C 83.378522 56.183898 84.471963 56.636816 85.61194 56.636816 
z
" clip-path="url(#p0e1cbd26fb)" style="fill: #ffffff; stroke: #000000; stroke-width: 2; stroke-linejoin: miter"/>
   </g>
   <g id="patch_4">
    <path d="M 85.61194 27.9801 
C 86.751918 27.9801 87.845358 27.527182 88.651444 26.721096 
C 89.45753 25.91501 89.910448 24.82157 89.910448 23.681592 
C 89.910448 22.541615 89.45753 21.448174 88.651444 20.642088 
C 87.845358 19.836002 86.751918 19.383085 85.61194 19.383085 
C 84.471963 19.383085 83.378522 19.836002 82.572437 20.642088 
C 81.766351 21.448174 81.313433 22.541615 81.313433 23.681592 
C 81.313433 24.82157 81.766351 25.91501 82.572437 26.721096 
C 83.378522 27.527182 84.471963 27.9801 85.61194 27.9801 
z
" clip-path="url(#p0e1cbd26fb)" style="fill: #ffffff; stroke: #000000; stroke-width: 2; stroke-linejoin: miter"/>
   </g>
   <g id="patch_5">
    <path d="M 58.38806 92.457711 
C 59.528037 92.457711 60.621478 92.004794 61.427563 91.198708 
C 62.233649 90.392622 62.686567 89.299181 62.686567 88.159204 
C 62.686567 87.019226 62.233649 85.925786 61.427563 85.1197 
C 60.621478 84.313614 59.528037 83.860697 58.38806 83.860697 
C 57.248082 83.860697 56.154642 84.313614 55.348556 85.1197 
C 54.54247 85.925786 54.089552 87.019226 54.089552 88.159204 
C 54.089552 89.299181 54.54247 90.392622 55.348556 91.198708 
C 56.154642 92.004794 57.248082 92.457711 58.38806 92.457711 
z
" clip-path="url(#p0e1cbd26fb)" style="fill: #ffffff; stroke: #000000; stroke-width: 2; stroke-linejoin: miter"/>
   </g>
   <g id="patch_6">
    <path d="M 85.61194 106.78607 
C 86.751918 106.78607 87.845358 106.333152 88.651444 105.527066 
C 89.45753 104.72098 89.910448 103.62754 89.910448 102.487562 
C 89.910448 101.347585 89.45753 100.254144 88.651444 99.448058 
C 87.845358 98.641973 86.751918 98.189055 85.61194 98.189055 
C 84.471963 98.189055 83.378522 98.641973 82.572437 99.448058 
C 81.766351 100.254144 81.313433 101.347585 81.313433 102.487562 
C 81.313433 103.62754 81.766351 104.72098 82.572437 105.527066 
C 83.378522 106.333152 84.471963 106.78607 85.61194 106.78607 
z
" clip-path="url(#p0e1cbd26fb)" style="fill: #ffffff; stroke: #000000; stroke-width: 2; stroke-linejoin: miter"/>
   </g>
   <g id="patch_7">
    <path d="M 85.61194 78.129353 
C 86.751918 78.129353 87.845358 77.676435 88.651444 76.87035 
C 89.45753 76.064264 89.910448 74.970823 89.910448 73.830846 
C 89.910448 72.690868 89.45753 71.597428 88.651444 70.791342 
C 87.845358 69.985256 86.751918 69.532338 85.61194 69.532338 
C 84.471963 69.532338 83.378522 69.985256 82.572437 70.791342 
C 81.766351 71.597428 81.313433 72.690868 81.313433 73.830846 
C 81.313433 74.970823 81.766351 76.064264 82.572437 76.87035 
C 83.378522 77.676435 84.471963 78.129353 85.61194 78.129353 
z
" clip-path="url(#p0e1cbd26fb)" style="fill: #ffffff; stroke: #000000; stroke-width: 2; stroke-linejoin: miter"/>
   </g>
   <g id="text_1">
    <!-- DPDT Switch -->
    <g transform="translate(27.356406 12.889433) scale(0.14 -0.14)">
     <defs>
      <path id="DejaVuSans-44" d="M 1259 4147 
L 1259 519 
L 2022 519 
Q 2988 519 3436 956 
Q 3884 1394 3884 2338 
Q 3884 3275 3436 3711 
Q 2988 4147 2022 4147 
L 1259 4147 
z
M 628 4666 
L 1925 4666 
Q 3281 4666 3915 4102 
Q 4550 3538 4550 2338 
Q 4550 1131 3912 565 
Q 3275 0 1925 0 
L 628 0 
L 628 4666 
z
" transform="scale(0.015625)"/>
      <path id="DejaVuSans-50" d="M 1259 4147 
L 1259 2394 
L 2053 2394 
Q 2494 2394 2734 2622 
Q 2975 2850 2975 3272 
Q 2975 3691 2734 3919 
Q 2494 4147 2053 4147 
L 1259 4147 
z
M 628 4666 
L 2053 4666 
Q 2838 4666 3239 4311 
Q 3641 3956 3641 3272 
Q 3641 2581 3239 2228 
Q 2838 1875 2053 1875 
L 1259 1875 
L 1259 0 
L 628 0 
L 628 4666 
z
" transform="scale(0.015625)"/>
      <path id="DejaVuSans-54" d="M -19 4666 
L 3928 4666 
L 3928 4134 
L 2272 4134 
L 2272 0 
L 1638 0 
L 1638 4134 
L -19 4134 
L -19 4666 
z
" transform="scale(0.015625)"/>
      <path id="DejaVuSans-20" transform="scale(0.015625)"/>
      <path id="DejaVuSans-53" d="M 3425 4513 
L 3425 3897 
Q 3066 4069 2747 4153 
Q 2428 4238 2131 4238 
Q 1616 4238 1336 4038 
Q 1056 3838 1056 3469 
Q 1056 3159 1242 3001 
Q 1428 2844 1947 2747 
L 2328 2669 
Q 3034 2534 3370 2195 
Q 3706 1856 3706 1288 
Q 3706 609 3251 259 
Q 2797 -91 1919 -91 
Q 1588 -91 1214 -16 
Q 841 59 441 206 
L 441 856 
Q 825 641 1194 531 
Q 1563 422 1919 422 
Q 2459 422 2753 634 
Q 3047 847 3047 1241 
Q 3047 1584 2836 1778 
Q 2625 1972 2144 2069 
L 1759 2144 
Q 1053 2284 737 2584 
Q 422 2884 422 3419 
Q 422 4038 858 4394 
Q 1294 4750 2059 4750 
Q 2388 4750 2728 4690 
Q 3069 4631 3425 4513 
z
" transform="scale(0.015625)"/>
      <path id="DejaVuSans-77" d="M 269 3500 
L 844 3500 
L 1563 769 
L 2278 3500 
L 2956 3500 
L 3675 769 
L 4391 3500 
L 4966 3500 
L 4050 0 
L 3372 0 
L 2619 2869 
L 1863 0 
L 1184 0 
L 269 3500 
z
" transform="scale(0.015625)"/>
      <path id="DejaVuSans-69" d="M 603 3500 
L 1178 3500 
L 1178 0 
L 603 0 
L 603 3500 
z
M 603 4863 
L 1178 4863 
L 1178 4134 
L 603 4134 
L 603 4863 
z
" transform="scale(0.015625)"/>
      <path id="DejaVuSans-74" d="M 1172 4494 
L 1172 3500 
L 2356 3500 
L 2356 3053 
L 1172 3053 
L 1172 1153 
Q 1172 725 1289 603 
Q 1406 481 1766 481 
L 2356 481 
L 2356 0 
L 1766 0 
Q 1100 0 847 248 
Q 594 497 594 1153 
L 594 3053 
L 172 3053 
L 172 3500 
L 594 3500 
L 594 4494 
L 1172 4494 
z
" transform="scale(0.015625)"/>
      <path id="DejaVuSans-63" d="M 3122 3366 
L 3122 2828 
Q 2878 2963 2633 3030 
Q 2388 3097 2138 3097 
Q 1578 3097 1268 2742 
Q 959 2388 959 1747 
Q 959 1106 1268 751 
Q 1578 397 2138 397 
Q 2388 397 2633 464 
Q 2878 531 3122 666 
L 3122 134 
Q 2881 22 2623 -34 
Q 2366 -91 2075 -91 
Q 1284 -91 818 406 
Q 353 903 353 1747 
Q 353 2603 823 3093 
Q 1294 3584 2113 3584 
Q 2378 3584 2631 3529 
Q 2884 3475 3122 3366 
z
" transform="scale(0.015625)"/>
      <path id="DejaVuSans-68" d="M 3513 2113 
L 3513 0 
L 2938 0 
L 2938 2094 
Q 2938 2591 2744 2837 
Q 2550 3084 2163 3084 
Q 1697 3084 1428 2787 
Q 1159 2491 1159 1978 
L 1159 0 
L 581 0 
L 581 4863 
L 1159 4863 
L 1159 2956 
Q 1366 3272 1645 3428 
Q 1925 3584 2291 3584 
Q 2894 3584 3203 3211 
Q 3513 2838 3513 2113 
z
" transform="scale(0.015625)"/>
     </defs>
     <use xlink:href="#DejaVuSans-44"/>
     <use xlink:href="#DejaVuSans-50" x="77.001953"/>
     <use xlink:href="#DejaVuSans-44" x="137.304688"/>
     <use xlink:href="#DejaVuSans-54" x="214.306641"/>
     <use xlink:href="#DejaVuSans-20" x="275.390625"/>
     <use xlink:href="#DejaVuSans-53" x="307.177734"/>
     <use xlink:href="#DejaVuSans-77" x="370.654297"/>
     <use xlink:href="#DejaVuSans-69" x="452.441406"/>
     <use xlink:href="#DejaVuSans-74" x="480.224609"/>
     <use xlink:href="#DejaVuSans-63" x="519.433594"/>
     <use xlink:href="#DejaVuSans-68" x="574.414062"/>
    </g>
   </g>
   <g id="text_2">
    <!-- in1 -->
    <g transform="translate(20.687701 52.229852) scale(0.14 -0.14)">
     <defs>
      <path id="DejaVuSans-6e" d="M 3513 2113 
L 3513 0 
L 2938 0 
L 2938 2094 
Q 2938 2591 2744 2837 
Q 2550 3084 2163 3084 
Q 1697 3084 1428 2787 
Q 1159 2491 1159 1978 
L 1159 0 
L 581 0 
L 581 3500 
L 1159 3500 
L 1159 2956 
Q 1366 3272 1645 3428 
Q 1925 3584 2291 3584 
Q 2894 3584 3203 3211 
Q 3513 2838 3513 2113 
z
" transform="scale(0.015625)"/>
      <path id="DejaVuSans-31" d="M 794 531 
L 1825 531 
L 1825 4091 
L 703 3866 
L 703 4441 
L 1819 4666 
L 2450 4666 
L 2450 531 
L 3481 531 
L 3481 0 
L 794 0 
L 794 531 
z
" transform="scale(0.015625)"/>
     </defs>
     <use xlink:href="#DejaVuSans-69"/>
     <use xlink:href="#DejaVuSans-6e" x="27.783203"/>
     <use xlink:href="#DejaVuSans-31" x="91.162109"/>
    </g>
   </g>
   <g id="text_3">
    <!-- out1-a -->
    <g transform="translate(89.745112 37.901494) scale(0.14 -0.14)">
     <defs>
      <path id="DejaVuSans-6f" d="M 1959 3097 
Q 1497 3097 1228 2736 
Q 959 2375 959 1747 
Q 959 1119 1226 758 
Q 1494 397 1959 397 
Q 2419 397 2687 759 
Q 2956 1122 2956 1747 
Q 2956 2369 2687 2733 
Q 2419 3097 1959 3097 
z
M 1959 3584 
Q 2709 3584 3137 3096 
Q 3566 2609 3566 1747 
Q 3566 888 3137 398 
Q 2709 -91 1959 -91 
Q 1206 -91 779 398 
Q 353 888 353 1747 
Q 353 2609 779 3096 
Q 1206 3584 1959 3584 
z
" transform="scale(0.015625)"/>
      <path id="DejaVuSans-75" d="M 544 1381 
L 544 3500 
L 1119 3500 
L 1119 1403 
Q 1119 906 1312 657 
Q 1506 409 1894 409 
Q 2359 409 2629 706 
Q 2900 1003 2900 1516 
L 2900 3500 
L 3475 3500 
L 3475 0 
L 2900 0 
L 2900 538 
Q 2691 219 2414 64 
Q 2138 -91 1772 -91 
Q 1169 -91 856 284 
Q 544 659 544 1381 
z
M 1991 3584 
L 1991 3584 
z
" transform="scale(0.015625)"/>
      <path id="DejaVuSans-2d" d="M 313 2009 
L 1997 2009 
L 1997 1497 
L 313 1497 
L 313 2009 
z
" transform="scale(0.015625)"/>
      <path id="DejaVuSans-61" d="M 2194 1759 
Q 1497 1759 1228 1600 
Q 959 1441 959 1056 
Q 959 750 1161 570 
Q 1363 391 1709 391 
Q 2188 391 2477 730 
Q 2766 1069 2766 1631 
L 2766 1759 
L 2194 1759 
z
M 3341 1997 
L 3341 0 
L 2766 0 
L 2766 531 
Q 2569 213 2275 61 
Q 1981 -91 1556 -91 
Q 1019 -91 701 211 
Q 384 513 384 1019 
Q 384 1609 779 1909 
Q 1175 2209 1959 2209 
L 2766 2209 
L 2766 2266 
Q 2766 2663 2505 2880 
Q 2244 3097 1772 3097 
Q 1472 3097 1187 3025 
Q 903 2953 641 2809 
L 641 3341 
Q 956 3463 1253 3523 
Q 1550 3584 1831 3584 
Q 2591 3584 2966 3190 
Q 3341 2797 3341 1997 
z
" transform="scale(0.015625)"/>
     </defs>
     <use xlink:href="#DejaVuSans-6f"/>
     <use xlink:href="#DejaVuSans-75" x="61.181641"/>
     <use xlink:href="#DejaVuSans-74" x="124.560547"/>
     <use xlink:href="#DejaVuSans-31" x="163.769531"/>
     <use xlink:href="#DejaVuSans-2d" x="227.392578"/>
     <use xlink:href="#DejaVuSans-61" x="263.476562"/>
    </g>
   </g>
   <g id="text_4">
    <!-- out1-b -->
    <g transform="translate(89.590893 66.558211) scale(0.14 -0.14)">
     <defs>
      <path id="DejaVuSans-62" d="M 3116 1747 
Q 3116 2381 2855 2742 
Q 2594 3103 2138 3103 
Q 1681 3103 1420 2742 
Q 1159 2381 1159 1747 
Q 1159 1113 1420 752 
Q 1681 391 2138 391 
Q 2594 391 2855 752 
Q 3116 1113 3116 1747 
z
M 1159 2969 
Q 1341 3281 1617 3432 
Q 1894 3584 2278 3584 
Q 2916 3584 3314 3078 
Q 3713 2572 3713 1747 
Q 3713 922 3314 415 
Q 2916 -91 2278 -91 
Q 1894 -91 1617 61 
Q 1341 213 1159 525 
L 1159 0 
L 581 0 
L 581 4863 
L 1159 4863 
L 1159 2969 
z
" transform="scale(0.015625)"/>
     </defs>
     <use xlink:href="#DejaVuSans-6f"/>
     <use xlink:href="#DejaVuSans-75" x="61.181641"/>
     <use xlink:href="#DejaVuSans-74" x="124.560547"/>
     <use xlink:href="#DejaVuSans-31" x="163.769531"/>
     <use xlink:href="#DejaVuSans-2d" x="227.392578"/>
     <use xlink:href="#DejaVuSans-62" x="263.476562"/>
    </g>
   </g>
   <g id="text_5">
    <!-- in2 -->
    <g transform="translate(20.687701 102.379106) scale(0.14 -0.14)">
     <defs>
      <path id="DejaVuSans-32" d="M 1228 531 
L 3431 531 
L 3431 0 
L 469 0 
L 469 531 
Q 828 903 1448 1529 
Q 2069 2156 2228 2338 
Q 2531 2678 2651 2914 
Q 2772 3150 2772 3378 
Q 2772 3750 2511 3984 
Q 2250 4219 1831 4219 
Q 1534 4219 1204 4116 
Q 875 4013 500 3803 
L 500 4441 
Q 881 4594 1212 4672 
Q 1544 4750 1819 4750 
Q 2544 4750 2975 4387 
Q 3406 4025 3406 3419 
Q 3406 3131 3298 2873 
Q 3191 2616 2906 2266 
Q 2828 2175 2409 1742 
Q 1991 1309 1228 531 
z
" transform="scale(0.015625)"/>
     </defs>
     <use xlink:href="#DejaVuSans-69"/>
     <use xlink:href="#DejaVuSans-6e" x="27.783203"/>
     <use xlink:href="#DejaVuSans-32" x="91.162109"/>
    </g>
   </g>
   <g id="text_6">
    <!-- out2-a -->
    <g transform="translate(89.745112 88.050748) scale(0.14 -0.14)">
     <use xlink:href="#DejaVuSans-6f"/>
     <use xlink:href="#DejaVuSans-75" x="61.181641"/>
     <use xlink:href="#DejaVuSans-74" x="124.560547"/>
     <use xlink:href="#DejaVuSans-32" x="163.769531"/>
     <use xlink:href="#DejaVuSans-2d" x="227.392578"/>
     <use xlink:href="#DejaVuSans-61" x="263.476562"/>
    </g>
   </g>
   <g id="text_7">
    <!-- out2-b -->
    <g transform="translate(89.590893 116.707464) scale(0.14 -0.14)">
     <use xlink:href="#DejaVuSans-6f"/>
     <use xlink:href="#DejaVuSans-75" x="61.181641"/>
     <use xlink:href="#DejaVuSans-74" x="124.560547"/>
     <use xlink:href="#DejaVuSans-32" x="163.769531"/>
     <use xlink:href="#DejaVuSans-2d" x="227.392578"/>
     <use xlink:href="#DejaVuSans-62" x="263.476562"/>
    </g>
   </g>
  </g>
 </g>
 <defs>
  <clipPath id="p0e1cbd26fb">
   <rect x="0" y="-0" width="144" height="121.870647"/>
  </clipPath>
 </defs>
</svg>
