<?xml version="1.0" encoding="UTF-8"?>
<svg id="Layer_1" xmlns="http://www.w3.org/2000/svg" width="100" height="40" version="1.1" viewBox="0 0 100 40">
  <!-- Generator: Adobe Illustrator 29.4.0, SVG Export Plug-In . SVG Version: 2.1.0 Build 152)  -->
  <defs>
    <style>
      .st0 {
        fill: red;
      }
    </style>
  </defs>
  <path d="M38.1,15.5c1.5,0,2.7,1.2,2.7,2.7s-1.2,2.7-2.7,2.7-2.7-1.2-2.7-2.7,1.2-2.7,2.7-2.7M38.1,13.5c-2.6,0-4.7,2.1-4.7,4.7s2.1,4.7,4.7,4.7,4.7-2.1,4.7-4.7-2.1-4.7-4.7-4.7h0Z"/>
  <path d="M34.4,19.1H3.1c-.5,0-.9-.4-.9-.9s.4-.9.9-.9h31.3c.5,0,.9.4.9.9s-.4.9-.9.9Z"/>
  <path d="M41.9,16c-.3,0-.6-.1-.7-.4-.3-.4,0-.9.3-1.2L58.9,3.4c.4-.3.9,0,1.2.3s0,.9-.3,1.2l-17.5,11c0,0-.3.1-.5.1h0Z"/>
  <path d="M96.9,19.1h-31.3c-.5,0-.9-.4-.9-.9s.4-.9.9-.9h31.3c.5,0,.9.4.9.9s-.4.9-.9.9Z"/>
  <g id="text_1">
    <g>
      <path id="DejaVuSans-53" d="M19.4,27.2v1.2c-.5-.2-.9-.4-1.3-.5s-.8-.2-1.2-.2c-.7,0-1.2.1-1.5.4-.4.3-.5.6-.5,1.1s.1.7.4.9c.2.2.7.4,1.3.5h.7c.9.3,1.6.6,2,1.1s.6,1,.6,1.7-.3,1.5-.9,2c-.6.4-1.4.7-2.5.7s-.9,0-1.3,0c-.5,0-1-.2-1.5-.4v-1.2c.5.3,1,.5,1.4.6.5,0,.9.2,1.4.2s1.2,0,1.6-.4c.4-.3.6-.7.6-1.2s-.1-.8-.4-1-.7-.4-1.3-.6h-.7c-.9-.3-1.5-.6-1.9-1s-.6-.9-.6-1.6.3-1.4.8-1.9c.6-.5,1.3-.7,2.3-.7s.8,0,1.3.1c.4,0,.9.2,1.3.3h-.1Z"/>
      <path id="DejaVuSans-50" d="M23.1,27.9v3.3h1.5c.6,0,1-.1,1.3-.4s.5-.7.5-1.2-.2-.9-.5-1.2c-.3-.3-.7-.4-1.3-.4h-1.5ZM21.9,26.9h2.7c1,0,1.7.2,2.3.7.5.5.8,1.1.8,2s-.3,1.5-.8,2c-.5.4-1.3.7-2.3.7h-1.5v3.6h-1.2v-8.9h0Z"/>
      <g>
        <path id="DejaVuSans-531" d="M34.5,27.2v1.2c-.5-.2-.9-.4-1.3-.5-.4-.1-.8-.2-1.2-.2-.7,0-1.2.1-1.5.4-.4.3-.5.6-.5,1.1s.1.7.4.9c.2.2.7.4,1.3.5h.7c.9.3,1.6.6,2,1.1s.6,1,.6,1.7-.3,1.5-.9,2c-.6.4-1.4.7-2.5.7s-.9,0-1.3,0c-.5,0-1-.2-1.5-.4v-1.2c.5.3,1,.5,1.4.6.5,0,.9.2,1.4.2s1.2,0,1.6-.4c.4-.3.6-.7.6-1.2s0-.8-.4-1-.7-.4-1.3-.6h-.7c-.9-.3-1.5-.6-1.9-1s-.6-.9-.6-1.6.3-1.4.8-1.9c.6-.5,1.3-.7,2.3-.7s.8,0,1.3.1c.4,0,.9.2,1.3.3h0Z"/>
        <path class="st0" d="M31.6,36.2q-.9,0-1.2,0s0,0-.1,0h0c-.5,0-1-.2-1.5-.4h0v-1.5h.2c.5.4.9.6,1.4.7h.2c.4.1.7.2,1.2.2.7,0,1.2-.1,1.5-.4.4-.3.6-.6.6-1.1s0-.7-.4-.9c-.3-.2-.7-.4-1.3-.6h-.7c-1-.3-1.5-.6-1.9-1-.4-.4-.6-1-.6-1.7s.3-1.4.8-2c.6-.5,1.3-.7,2.4-.7s.8,0,1.1,0c0,0,.1,0,.2,0h0c.3,0,.6,0,.9.2.1,0,.2,0,.4.1v.2s0,1.2,0,1.2h-.1c-.1-.1-.3-.2-.4-.2-.3-.1-.6-.3-.9-.3-.4,0-.8-.2-1.2-.2-.7,0-1.2.1-1.4.4-.4.3-.5.5-.5,1s.1.6.4.8c.2.2.7.4,1.3.5h.7s0,0,0,0c1,.3,1.6.6,2,1.1.4.5.6,1.1.6,1.8s-.4,1.6-.9,2.1c-.7.5-1.6.7-2.6.7ZM28.9,35.5c.5.2.9.4,1.4.4,0,0,.1,0,.2,0q.2,0,1.1,0c1,0,1.8-.2,2.4-.7.5-.4.9-1.2.9-1.9s-.2-1.1-.6-1.6c-.4-.5-1-.8-1.9-1.1h-.7c-.6-.1-1.1-.3-1.4-.5-.3-.2-.4-.4-.4-1s0-.8.5-1.2c.3-.3.8-.4,1.6-.4s.8.1,1.2.2c.3,0,.6.2.9.3,0,0,.2,0,.3.1v-1c0,0-.1,0-.2,0-.3,0-.6-.2-.9-.2-.1,0-.2,0-.2,0q-.3,0-1.1,0c-1,0-1.7.2-2.2.7-.5.5-.8,1.2-.8,1.8s.2,1.1.6,1.5c.4.4.9.7,1.8,1h.7c.5.2,1,.4,1.3.6.3.2.4.5.4,1.1s-.2,1-.6,1.3c-.4.3-.9.4-1.7.4s-.8,0-1.2-.2h-.2c-.4-.1-.9-.3-1.3-.6v1Z"/>
      </g>
      <path id="DejaVuSans-54" d="M35.7,26.9h7.5v1h-3.2v7.9h-1.2v-7.9h-3.2v-1h.1Z"/>
      <path id="DejaVuSans-20" d="M43.2,35.8"/>
      <path id="DejaVuSans-532" d="M53.6,27.2v1.2c-.5-.2-.9-.4-1.3-.5-.4-.1-.8-.2-1.2-.2-.7,0-1.2.1-1.5.4-.4.3-.5.6-.5,1.1s0,.7.4.9c.2.2.7.4,1.3.5h.7c.9.3,1.6.6,2,1.1s.6,1,.6,1.7-.3,1.5-.9,2c-.6.4-1.4.7-2.5.7s-.9,0-1.3,0c-.5,0-1-.2-1.5-.4v-1.2c.5.3,1,.5,1.4.6.5,0,.9.2,1.4.2s1.2,0,1.6-.4c.4-.3.6-.7.6-1.2s0-.8-.4-1-.7-.4-1.3-.6h-.7c-.9-.3-1.5-.6-1.9-1s-.6-.9-.6-1.6.3-1.4.8-1.9c.6-.5,1.3-.7,2.3-.7s.8,0,1.3.1c.4,0,.9.2,1.3.3h0Z"/>
      <path id="DejaVuSans-77" d="M55.3,29.1h1.1l1.4,5.2,1.4-5.2h1.3l1.4,5.2,1.4-5.2h1.1l-1.7,6.7h-1.3l-1.4-5.5-1.4,5.5h-1.3l-1.7-6.7h-.3Z"/>
      <path id="DejaVuSans-69" d="M65.9,29.1h1.1v6.7h-1.1s0-6.7,0-6.7ZM65.9,26.5h1.1v1.4h-1.1v-1.4Z"/>
      <path id="DejaVuSans-74" d="M70.3,27.2v1.9h2.3v.9h-2.3v3.6c0,.5,0,.9.2,1s.5.2.9.2h1.1v.9h-1.1c-.8,0-1.4-.2-1.7-.5-.3-.3-.5-.9-.5-1.7v-3.6h-.8v-.9h.8v-1.9h1.1Z"/>
      <path id="DejaVuSans-63" d="M78.8,29.4v1c-.3-.2-.6-.3-.9-.4s-.6-.1-.9-.1c-.7,0-1.3.2-1.7.7-.4.4-.6,1.1-.6,1.9s.2,1.4.6,1.9c.4.4.9.7,1.7.7s.6,0,.9,0,.6-.2.9-.4v1c-.3,0-.6.2-.9.3-.3,0-.7,0-1,0-1,0-1.8-.3-2.4-.9-.6-.6-.9-1.5-.9-2.6s.3-1.9.9-2.6c.6-.6,1.4-.9,2.5-.9s.7,0,1,.1c.3,0,.6.2.9.3h0Z"/>
      <path id="DejaVuSans-68" d="M86.3,31.7v4h-1.1v-4c0-.6,0-1.1-.4-1.4-.2-.3-.6-.5-1.1-.5s-1.1.2-1.4.6-.5.9-.5,1.5v3.8h-1.1v-9.3h1.1v3.6c.3-.4.6-.7.9-.9.4-.2.8-.3,1.2-.3.8,0,1.3.2,1.7.7.4.5.6,1.2.6,2.1h.1Z"/>
    </g>
  </g>
  <path d="M61.9,15.4c1.5,0,2.7,1.2,2.7,2.7s-1.2,2.7-2.7,2.7-2.7-1.2-2.7-2.7,1.2-2.7,2.7-2.7M61.9,13.4c-2.6,0-4.7,2.1-4.7,4.7s2.1,4.7,4.7,4.7,4.7-2.1,4.7-4.7-2.1-4.7-4.7-4.7h0Z"/>
</svg>