<?xml version="1.0" encoding="UTF-8"?>
<svg id="Layer_1" xmlns="http://www.w3.org/2000/svg" width="1.389in" height=".556in" version="1.1" viewBox="0 0 100 40">
  <!-- Generator: Adobe Illustrator 29.4.0, SVG Export Plug-In . SVG Version: 2.1.0 Build 152)  -->
  <defs>
    <style>
      .st0 {
        fill: #d60000;
      }
    </style>
  </defs>
  <path id="DejaVuSans-20" d="M36.2,1.1"/>
  <g>
    <path id="DejaVuSans-53" d="M40.2,30v1.2c-.5-.2-.9-.4-1.3-.5s-.8-.2-1.2-.2c-.6,0-1.2.1-1.5.4-.4.3-.5.6-.5,1.1s.1.7.4.9c.2.2.7.4,1.3.5h.7c.9.3,1.5.6,2,1s.6,1,.6,1.7-.3,1.5-.9,1.9-1.4.7-2.5.7h-1.3c-.5,0-1-.2-1.5-.4v-1.2c.5.3,1,.5,1.4.6.5,0,.9.2,1.4.2s1.2,0,1.6-.4c.4-.3.6-.7.6-1.1s-.1-.8-.4-1-.7-.4-1.3-.6h-.7c-.9-.3-1.5-.6-1.9-1s-.6-.9-.6-1.6.3-1.4.8-1.8,1.3-.7,2.3-.7.8,0,1.3.1c.4,0,.9.2,1.3.3h0l-.1-.1Z"/>
    <path id="DejaVuSans-50" d="M43.8,30.7v3.3h1.5c.6,0,1,0,1.3-.4.3-.3.5-.7.5-1.2s-.2-.9-.5-1.2c-.3-.3-.7-.4-1.3-.4h-1.5v-.1ZM42.6,29.7h2.7c1,0,1.7.2,2.2.7.5.4.8,1.1.8,2s-.3,1.5-.8,2c-.5.4-1.3.7-2.2.7h-1.5v3.5h-1.2v-8.8h0v-.1Z"/>
    <path id="DejaVuSans-44" class="st0" d="M51.1,30.7v6.9h1.4c1.2,0,2.1-.3,2.7-.8.6-.6.8-1.4.8-2.6s-.3-2-.8-2.6-1.5-.8-2.7-.8h-1.4v-.1ZM49.9,29.7h2.5c1.7,0,3,.4,3.8,1.1s1.2,1.8,1.2,3.3-.4,2.6-1.2,3.4c-.8.7-2.1,1.1-3.8,1.1h-2.5v-8.8h0v-.1Z"/>
    <path id="DejaVuSans-54" d="M58,29.7h7.5v1h-3.1v7.8h-1.2v-7.8h-3.1v-1h-.1Z"/>
  </g>
  <g>
    <path d="M41.1,12.6c-.3,0-.6-.1-.7-.4-.3-.4,0-.9.3-1.2l10.5-6.2c.4-.3.9,0,1.2.3s0,.9-.3,1.2l-10.5,6.2h-.5v.1Z"/>
    <path d="M36,13.7H2.8c-.9,0-1.6-.4-1.6-.9s.7-.9,1.6-.9h33.2c.9,0,1.6.4,1.6.9s-.7.9-1.6.9Z"/>
    <path d="M39,16c-.8,0-1.6-.3-2.2-.9-.6-.6-.9-1.4-.9-2.2s.3-1.6.9-2.2c1.2-1.2,3.2-1.2,4.4,0,.6.6.9,1.4.9,2.2s-.3,1.6-.9,2.2-1.4.9-2.2.9ZM39,11.5c-.4,0-.7.1-1,.4-.3.3-.4.6-.4,1s0,.7.4,1c.5.5,1.4.5,1.9,0,.3-.3.4-.6.4-1s0-.7-.4-1c-.3-.3-.6-.4-1-.4h.1Z"/>
    <g>
      <path d="M53.7,24.5c-.8,0-1.6-.3-2.2-.9-.6-.6-.9-1.4-.9-2.2s.3-1.6.9-2.2c.6-.6,1.4-.9,2.2-.9s1.6.3,2.2.9c.6.6.9,1.4.9,2.2s-.3,1.6-.9,2.2-1.4.9-2.2.9ZM53.7,20.1c-.4,0-.7.1-1,.4s-.4.6-.4,1,0,.7.4,1c.5.5,1.4.5,1.9,0s.4-.6.4-1,0-.7-.4-1c-.3-.3-.6-.4-1-.4h.1Z"/>
      <path d="M97,22.3h-40.6c-.7,0-1.3-.4-1.3-.9s.6-.9,1.3-.9h40.6c.7,0,1.3.4,1.3.9s-.6.9-1.3.9Z"/>
    </g>
    <g>
      <path d="M97,5.2h-40.6c-.7,0-1.3-.4-1.3-.9s.6-.9,1.3-.9h40.6c.7,0,1.3.4,1.3.9s-.6.9-1.3.9Z"/>
      <path d="M53.8,7.4c-.8,0-1.6-.3-2.2-.9-.6-.6-.9-1.4-.9-2.2s.3-1.6.9-2.2c1.2-1.2,3.2-1.2,4.4,0,.6.6.9,1.4.9,2.2s-.3,1.6-.9,2.2c-.6.6-1.4.9-2.2.9ZM53.8,2.9c-.4,0-.7,0-1,.4-.3.3-.4.6-.4,1s0,.7.4,1c.5.5,1.4.5,1.9,0,.3-.3.4-.6.4-1s0-.7-.4-1c-.3-.3-.6-.4-1-.4h.1Z"/>
    </g>
  </g>
</svg>