<?xml version="1.0" encoding="utf-8" standalone="no"?>
<!DOCTYPE svg PUBLIC "-//W3C//DTD SVG 1.1//EN"
  "http://www.w3.org/Graphics/SVG/1.1/DTD/svg11.dtd">
<svg xmlns:xlink="http://www.w3.org/1999/xlink" width="144" height="91" viewBox="0 0 144 90.706468" xmlns="http://www.w3.org/2000/svg" version="1.1">
 <metadata>
  <rdf:RDF xmlns:dc="http://purl.org/dc/elements/1.1/" xmlns:cc="http://creativecommons.org/ns#" xmlns:rdf="http://www.w3.org/1999/02/22-rdf-syntax-ns#">
   <cc:Work>
    <dc:type rdf:resource="http://purl.org/dc/dcmitype/StillImage"/>
    <dc:date>2024-09-04T19:57:51.918251</dc:date>
    <dc:format>image/svg+xml</dc:format>
    <dc:creator>
     <cc:Agent>
      <dc:title>Matplotlib v3.9.2, https://matplotlib.org/</dc:title>
     </cc:Agent>
    </dc:creator>
   </cc:Work>
  </rdf:RDF>
 </metadata>
 <defs>
  <style type="text/css">*{stroke-linejoin: round; stroke-linecap: butt}</style>
 </defs>
 <g id="figure_1">
  <g id="patch_1">
   <path d="M 0 90.706468 
L 144 90.706468 
L 144 0 
L 0 0 
z
" style="fill: #ffffff"/>
  </g>
  <g id="axes_1">
   <g id="line2d_1">
    <path d="M 54.089552 35.502488 
M 62.686567 31.920398 
L 82.746269 19.383085 
M 89.910448 35.502488 
" clip-path="url(#p70278f87f2)" style="fill: none; stroke: #000000; stroke-width: 2; stroke-linecap: round"/>
   </g>
   <g id="line2d_2">
    <path d="M 54.089552 71.323383 
M 62.686567 67.741294 
L 82.746269 55.20398 
M 89.910448 71.323383 
" clip-path="url(#p70278f87f2)" style="fill: none; stroke: #000000; stroke-width: 2; stroke-linecap: round"/>
   </g>
   <g id="line2d_3">
    <path d="M 72 62.368159 
L 72 28.338308 
" clip-path="url(#p70278f87f2)" style="fill: none; stroke-dasharray: 2,3.3; stroke-dashoffset: 0; stroke: #000000; stroke-width: 2"/>
   </g>
   <g id="line2d_4">
    <path d="M 58.38806 35.502488 
L 31.522388 35.502488 
L 4.656716 35.502488 
" clip-path="url(#p70278f87f2)" style="fill: none; stroke: #000000; stroke-width: 2; stroke-linecap: round"/>
   </g>
   <g id="line2d_5">
    <path d="M 85.61194 35.502488 
L 112.477612 35.502488 
L 139.343284 35.502488 
" clip-path="url(#p70278f87f2)" style="fill: none; stroke: #000000; stroke-width: 2; stroke-linecap: round"/>
   </g>
   <g id="line2d_6">
    <path d="M 58.38806 71.323383 
L 31.522388 71.323383 
L 4.656716 71.323383 
" clip-path="url(#p70278f87f2)" style="fill: none; stroke: #000000; stroke-width: 2; stroke-linecap: round"/>
   </g>
   <g id="line2d_7">
    <path d="M 85.61194 71.323383 
L 112.477612 71.323383 
L 139.343284 71.323383 
" clip-path="url(#p70278f87f2)" style="fill: none; stroke: #000000; stroke-width: 2; stroke-linecap: round"/>
   </g>
   <g id="patch_2">
    <path d="M 58.38806 39.800995 
C 59.528037 39.800995 60.621478 39.348077 61.427563 38.541991 
C 62.233649 37.735906 62.686567 36.642465 62.686567 35.502488 
C 62.686567 34.36251 62.233649 33.26907 61.427563 32.462984 
C 60.621478 31.656898 59.528037 31.20398 58.38806 31.20398 
C 57.248082 31.20398 56.154642 31.656898 55.348556 32.462984 
C 54.54247 33.26907 54.089552 34.36251 54.089552 35.502488 
C 54.089552 36.642465 54.54247 37.735906 55.348556 38.541991 
C 56.154642 39.348077 57.248082 39.800995 58.38806 39.800995 
z
" clip-path="url(#p70278f87f2)" style="fill: #ffffff; stroke: #000000; stroke-width: 2; stroke-linejoin: miter"/>
   </g>
   <g id="patch_3">
    <path d="M 85.61194 39.800995 
C 86.751918 39.800995 87.845358 39.348077 88.651444 38.541991 
C 89.45753 37.735906 89.910448 36.642465 89.910448 35.502488 
C 89.910448 34.36251 89.45753 33.26907 88.651444 32.462984 
C 87.845358 31.656898 86.751918 31.20398 85.61194 31.20398 
C 84.471963 31.20398 83.378522 31.656898 82.572437 32.462984 
C 81.766351 33.26907 81.313433 34.36251 81.313433 35.502488 
C 81.313433 36.642465 81.766351 37.735906 82.572437 38.541991 
C 83.378522 39.348077 84.471963 39.800995 85.61194 39.800995 
z
" clip-path="url(#p70278f87f2)" style="fill: #ffffff; stroke: #000000; stroke-width: 2; stroke-linejoin: miter"/>
   </g>
   <g id="patch_4">
    <path d="M 58.38806 75.621891 
C 59.528037 75.621891 60.621478 75.168973 61.427563 74.362887 
C 62.233649 73.556801 62.686567 72.463361 62.686567 71.323383 
C 62.686567 70.183406 62.233649 69.089965 61.427563 68.283879 
C 60.621478 67.477793 59.528037 67.024876 58.38806 67.024876 
C 57.248082 67.024876 56.154642 67.477793 55.348556 68.283879 
C 54.54247 69.089965 54.089552 70.183406 54.089552 71.323383 
C 54.089552 72.463361 54.54247 73.556801 55.348556 74.362887 
C 56.154642 75.168973 57.248082 75.621891 58.38806 75.621891 
z
" clip-path="url(#p70278f87f2)" style="fill: #ffffff; stroke: #000000; stroke-width: 2; stroke-linejoin: miter"/>
   </g>
   <g id="patch_5">
    <path d="M 85.61194 75.621891 
C 86.751918 75.621891 87.845358 75.168973 88.651444 74.362887 
C 89.45753 73.556801 89.910448 72.463361 89.910448 71.323383 
C 89.910448 70.183406 89.45753 69.089965 88.651444 68.283879 
C 87.845358 67.477793 86.751918 67.024876 85.61194 67.024876 
C 84.471963 67.024876 83.378522 67.477793 82.572437 68.283879 
C 81.766351 69.089965 81.313433 70.183406 81.313433 71.323383 
C 81.313433 72.463361 81.766351 73.556801 82.572437 74.362887 
C 83.378522 75.168973 84.471963 75.621891 85.61194 75.621891 
z
" clip-path="url(#p70278f87f2)" style="fill: #ffffff; stroke: #000000; stroke-width: 2; stroke-linejoin: miter"/>
   </g>
   <g id="text_1">
    <!-- DPST Switch -->
    <g transform="translate(28.3025 12.889433) scale(0.14 -0.14)">
     <defs>
      <path id="DejaVuSans-44" d="M 1259 4147 
L 1259 519 
L 2022 519 
Q 2988 519 3436 956 
Q 3884 1394 3884 2338 
Q 3884 3275 3436 3711 
Q 2988 4147 2022 4147 
L 1259 4147 
z
M 628 4666 
L 1925 4666 
Q 3281 4666 3915 4102 
Q 4550 3538 4550 2338 
Q 4550 1131 3912 565 
Q 3275 0 1925 0 
L 628 0 
L 628 4666 
z
" transform="scale(0.015625)"/>
      <path id="DejaVuSans-50" d="M 1259 4147 
L 1259 2394 
L 2053 2394 
Q 2494 2394 2734 2622 
Q 2975 2850 2975 3272 
Q 2975 3691 2734 3919 
Q 2494 4147 2053 4147 
L 1259 4147 
z
M 628 4666 
L 2053 4666 
Q 2838 4666 3239 4311 
Q 3641 3956 3641 3272 
Q 3641 2581 3239 2228 
Q 2838 1875 2053 1875 
L 1259 1875 
L 1259 0 
L 628 0 
L 628 4666 
z
" transform="scale(0.015625)"/>
      <path id="DejaVuSans-53" d="M 3425 4513 
L 3425 3897 
Q 3066 4069 2747 4153 
Q 2428 4238 2131 4238 
Q 1616 4238 1336 4038 
Q 1056 3838 1056 3469 
Q 1056 3159 1242 3001 
Q 1428 2844 1947 2747 
L 2328 2669 
Q 3034 2534 3370 2195 
Q 3706 1856 3706 1288 
Q 3706 609 3251 259 
Q 2797 -91 1919 -91 
Q 1588 -91 1214 -16 
Q 841 59 441 206 
L 441 856 
Q 825 641 1194 531 
Q 1563 422 1919 422 
Q 2459 422 2753 634 
Q 3047 847 3047 1241 
Q 3047 1584 2836 1778 
Q 2625 1972 2144 2069 
L 1759 2144 
Q 1053 2284 737 2584 
Q 422 2884 422 3419 
Q 422 4038 858 4394 
Q 1294 4750 2059 4750 
Q 2388 4750 2728 4690 
Q 3069 4631 3425 4513 
z
" transform="scale(0.015625)"/>
      <path id="DejaVuSans-54" d="M -19 4666 
L 3928 4666 
L 3928 4134 
L 2272 4134 
L 2272 0 
L 1638 0 
L 1638 4134 
L -19 4134 
L -19 4666 
z
" transform="scale(0.015625)"/>
      <path id="DejaVuSans-20" transform="scale(0.015625)"/>
      <path id="DejaVuSans-77" d="M 269 3500 
L 844 3500 
L 1563 769 
L 2278 3500 
L 2956 3500 
L 3675 769 
L 4391 3500 
L 4966 3500 
L 4050 0 
L 3372 0 
L 2619 2869 
L 1863 0 
L 1184 0 
L 269 3500 
z
" transform="scale(0.015625)"/>
      <path id="DejaVuSans-69" d="M 603 3500 
L 1178 3500 
L 1178 0 
L 603 0 
L 603 3500 
z
M 603 4863 
L 1178 4863 
L 1178 4134 
L 603 4134 
L 603 4863 
z
" transform="scale(0.015625)"/>
      <path id="DejaVuSans-74" d="M 1172 4494 
L 1172 3500 
L 2356 3500 
L 2356 3053 
L 1172 3053 
L 1172 1153 
Q 1172 725 1289 603 
Q 1406 481 1766 481 
L 2356 481 
L 2356 0 
L 1766 0 
Q 1100 0 847 248 
Q 594 497 594 1153 
L 594 3053 
L 172 3053 
L 172 3500 
L 594 3500 
L 594 4494 
L 1172 4494 
z
" transform="scale(0.015625)"/>
      <path id="DejaVuSans-63" d="M 3122 3366 
L 3122 2828 
Q 2878 2963 2633 3030 
Q 2388 3097 2138 3097 
Q 1578 3097 1268 2742 
Q 959 2388 959 1747 
Q 959 1106 1268 751 
Q 1578 397 2138 397 
Q 2388 397 2633 464 
Q 2878 531 3122 666 
L 3122 134 
Q 2881 22 2623 -34 
Q 2366 -91 2075 -91 
Q 1284 -91 818 406 
Q 353 903 353 1747 
Q 353 2603 823 3093 
Q 1294 3584 2113 3584 
Q 2378 3584 2631 3529 
Q 2884 3475 3122 3366 
z
" transform="scale(0.015625)"/>
      <path id="DejaVuSans-68" d="M 3513 2113 
L 3513 0 
L 2938 0 
L 2938 2094 
Q 2938 2591 2744 2837 
Q 2550 3084 2163 3084 
Q 1697 3084 1428 2787 
Q 1159 2491 1159 1978 
L 1159 0 
L 581 0 
L 581 4863 
L 1159 4863 
L 1159 2956 
Q 1366 3272 1645 3428 
Q 1925 3584 2291 3584 
Q 2894 3584 3203 3211 
Q 3513 2838 3513 2113 
z
" transform="scale(0.015625)"/>
     </defs>
     <use xlink:href="#DejaVuSans-44"/>
     <use xlink:href="#DejaVuSans-50" x="77.001953"/>
     <use xlink:href="#DejaVuSans-53" x="137.304688"/>
     <use xlink:href="#DejaVuSans-54" x="200.78125"/>
     <use xlink:href="#DejaVuSans-20" x="261.865234"/>
     <use xlink:href="#DejaVuSans-53" x="293.652344"/>
     <use xlink:href="#DejaVuSans-77" x="357.128906"/>
     <use xlink:href="#DejaVuSans-69" x="438.916016"/>
     <use xlink:href="#DejaVuSans-74" x="466.699219"/>
     <use xlink:href="#DejaVuSans-63" x="505.908203"/>
     <use xlink:href="#DejaVuSans-68" x="560.888672"/>
    </g>
   </g>
   <g id="text_2">
    <!-- in1 -->
    <g transform="translate(20.687701 49.72239) scale(0.14 -0.14)">
     <defs>
      <path id="DejaVuSans-6e" d="M 3513 2113 
L 3513 0 
L 2938 0 
L 2938 2094 
Q 2938 2591 2744 2837 
Q 2550 3084 2163 3084 
Q 1697 3084 1428 2787 
Q 1159 2491 1159 1978 
L 1159 0 
L 581 0 
L 581 3500 
L 1159 3500 
L 1159 2956 
Q 1366 3272 1645 3428 
Q 1925 3584 2291 3584 
Q 2894 3584 3203 3211 
Q 3513 2838 3513 2113 
z
" transform="scale(0.015625)"/>
      <path id="DejaVuSans-31" d="M 794 531 
L 1825 531 
L 1825 4091 
L 703 3866 
L 703 4441 
L 1819 4666 
L 2450 4666 
L 2450 531 
L 3481 531 
L 3481 0 
L 794 0 
L 794 531 
z
" transform="scale(0.015625)"/>
     </defs>
     <use xlink:href="#DejaVuSans-69"/>
     <use xlink:href="#DejaVuSans-6e" x="27.783203"/>
     <use xlink:href="#DejaVuSans-31" x="91.162109"/>
    </g>
   </g>
   <g id="text_3">
    <!-- out1 -->
    <g transform="translate(96.560268 49.72239) scale(0.14 -0.14)">
     <defs>
      <path id="DejaVuSans-6f" d="M 1959 3097 
Q 1497 3097 1228 2736 
Q 959 2375 959 1747 
Q 959 1119 1226 758 
Q 1494 397 1959 397 
Q 2419 397 2687 759 
Q 2956 1122 2956 1747 
Q 2956 2369 2687 2733 
Q 2419 3097 1959 3097 
z
M 1959 3584 
Q 2709 3584 3137 3096 
Q 3566 2609 3566 1747 
Q 3566 888 3137 398 
Q 2709 -91 1959 -91 
Q 1206 -91 779 398 
Q 353 888 353 1747 
Q 353 2609 779 3096 
Q 1206 3584 1959 3584 
z
" transform="scale(0.015625)"/>
      <path id="DejaVuSans-75" d="M 544 1381 
L 544 3500 
L 1119 3500 
L 1119 1403 
Q 1119 906 1312 657 
Q 1506 409 1894 409 
Q 2359 409 2629 706 
Q 2900 1003 2900 1516 
L 2900 3500 
L 3475 3500 
L 3475 0 
L 2900 0 
L 2900 538 
Q 2691 219 2414 64 
Q 2138 -91 1772 -91 
Q 1169 -91 856 284 
Q 544 659 544 1381 
z
M 1991 3584 
L 1991 3584 
z
" transform="scale(0.015625)"/>
     </defs>
     <use xlink:href="#DejaVuSans-6f"/>
     <use xlink:href="#DejaVuSans-75" x="61.181641"/>
     <use xlink:href="#DejaVuSans-74" x="124.560547"/>
     <use xlink:href="#DejaVuSans-31" x="163.769531"/>
    </g>
   </g>
   <g id="text_4">
    <!-- in2 -->
    <g transform="translate(20.687701 85.543285) scale(0.14 -0.14)">
     <defs>
      <path id="DejaVuSans-32" d="M 1228 531 
L 3431 531 
L 3431 0 
L 469 0 
L 469 531 
Q 828 903 1448 1529 
Q 2069 2156 2228 2338 
Q 2531 2678 2651 2914 
Q 2772 3150 2772 3378 
Q 2772 3750 2511 3984 
Q 2250 4219 1831 4219 
Q 1534 4219 1204 4116 
Q 875 4013 500 3803 
L 500 4441 
Q 881 4594 1212 4672 
Q 1544 4750 1819 4750 
Q 2544 4750 2975 4387 
Q 3406 4025 3406 3419 
Q 3406 3131 3298 2873 
Q 3191 2616 2906 2266 
Q 2828 2175 2409 1742 
Q 1991 1309 1228 531 
z
" transform="scale(0.015625)"/>
     </defs>
     <use xlink:href="#DejaVuSans-69"/>
     <use xlink:href="#DejaVuSans-6e" x="27.783203"/>
     <use xlink:href="#DejaVuSans-32" x="91.162109"/>
    </g>
   </g>
   <g id="text_5">
    <!-- out2 -->
    <g transform="translate(96.560268 85.543285) scale(0.14 -0.14)">
     <use xlink:href="#DejaVuSans-6f"/>
     <use xlink:href="#DejaVuSans-75" x="61.181641"/>
     <use xlink:href="#DejaVuSans-74" x="124.560547"/>
     <use xlink:href="#DejaVuSans-32" x="163.769531"/>
    </g>
   </g>
  </g>
 </g>
 <defs>
  <clipPath id="p70278f87f2">
   <rect x="0" y="-0" width="144" height="90.706468"/>
  </clipPath>
 </defs>
</svg>
