<?xml version="1.0" encoding="UTF-8"?>
<svg id="Layer_1" xmlns="http://www.w3.org/2000/svg" version="1.1" viewBox="0 0 100 40">
  <!-- Generator: Adobe Illustrator 29.4.0, SVG Export Plug-In . SVG Version: 2.1.0 Build 152)  -->
  <defs>
    <style>
      .st0 {
        fill: #fff;
      }

      .st1 {
        stroke: red;
        stroke-width: .2px;
      }
    </style>
  </defs>
  <g id="patch_1">
    <path class="st0" d="M0,40h100V0H0v40Z"/>
  </g>
  <g>
    <path d="M34.4,19.1H3.1c-.5,0-.9-.4-.9-.9s.4-.9.9-.9h31.3c.5,0,.9.4.9.9s-.4.9-.9.9Z"/>
    <path d="M41.9,16c-.3,0-.6-.1-.7-.4-.3-.4-.1-.9.3-1.2L58.9,3.4c.4-.3.9-.1,1.2.3.3.4.1.9-.3,1.2l-17.5,11c-.1,0-.3.1-.5.1Z"/>
    <path d="M96.9,19.1h-31.3c-.5,0-.9-.4-.9-.9s.4-.9.9-.9h31.3c.5,0,.9.4.9.9s-.4.9-.9.9Z"/>
    <g>
      <path class="st0" d="M38.1,22c1,0,2-.4,2.7-1.1s1.1-1.7,1.1-2.7-.4-2-1.1-2.7c-.7-.7-1.7-1.1-2.7-1.1s-2,.4-2.7,1.1c-.7.7-1.1,1.7-1.1,2.7s.4,2,1.1,2.7,1.7,1.1,2.7,1.1Z"/>
      <path d="M38.1,22.8c-1.2,0-2.4-.5-3.3-1.4-.9-.9-1.4-2-1.4-3.3s.5-2.4,1.4-3.3c.9-.9,2-1.4,3.3-1.4s2.4.5,3.3,1.4c.9.9,1.4,2,1.4,3.3s-.5,2.4-1.4,3.3c-.9.9-2,1.4-3.3,1.4ZM38.1,15.3c-.8,0-1.5.3-2,.8s-.8,1.3-.8,2,.3,1.5.8,2c1.1,1.1,3,1.1,4.1,0s.8-1.3.8-2-.3-1.5-.8-2-1.3-.8-2-.8Z"/>
    </g>
    <g>
      <path class="st0" d="M61.9,22c1,0,2-.4,2.7-1.1.7-.7,1.1-1.7,1.1-2.7s-.4-2-1.1-2.7c-.7-.7-1.7-1.1-2.7-1.1s-2,.4-2.7,1.1c-.7.7-1.1,1.7-1.1,2.7s.4,2,1.1,2.7c.7.7,1.7,1.1,2.7,1.1Z"/>
      <path d="M61.9,22.8c-1.2,0-2.4-.5-3.3-1.4s-1.4-2-1.4-3.3.5-2.4,1.4-3.3c.9-.9,2-1.4,3.3-1.4s2.4.5,3.3,1.4c.9.9,1.4,2,1.4,3.3s-.5,2.4-1.4,3.3c-.9.9-2,1.4-3.3,1.4ZM61.9,15.3c-.8,0-1.5.3-2,.8-.5.5-.8,1.3-.8,2s.3,1.5.8,2c1.1,1.1,3,1.1,4.1,0,.5-.5.8-1.3.8-2s-.3-1.5-.8-2c-.5-.5-1.3-.8-2-.8Z"/>
    </g>
  </g>
  <g id="text_1">
    <g>
      <path id="DejaVuSans-53" d="M19.4,27.2v1.2c-.5-.2-.9-.4-1.3-.5-.4-.1-.8-.2-1.2-.2-.7,0-1.2.1-1.5.4-.4.3-.5.6-.5,1.1s.1.7.4.9c.2.2.7.4,1.3.5h.7c.9.3,1.6.6,2,1.1s.6,1,.6,1.7-.3,1.5-.9,2c-.6.4-1.4.7-2.5.7s-.9,0-1.3-.1c-.5,0-1-.2-1.5-.4v-1.2c.5.3,1,.5,1.4.6.5.1.9.2,1.4.2.7,0,1.2-.1,1.6-.4.4-.3.6-.7.6-1.2s-.1-.8-.4-1-.7-.4-1.3-.6h-.7c-.9-.3-1.5-.6-1.9-1-.4-.4-.6-.9-.6-1.6s.3-1.4.8-1.9c.6-.5,1.3-.7,2.3-.7s.8,0,1.3.1c.4,0,.9.2,1.3.3Z"/>
      <path id="DejaVuSans-50" d="M23.1,27.9v3.3h1.5c.6,0,1-.1,1.3-.4.3-.3.5-.7.5-1.2s-.2-.9-.5-1.2c-.3-.3-.7-.4-1.3-.4h-1.5ZM21.9,26.9h2.7c1,0,1.7.2,2.3.7.5.5.8,1.1.8,2s-.3,1.5-.8,2c-.5.4-1.3.7-2.3.7h-1.5v3.6h-1.2v-8.9Z"/>
      <path id="DejaVuSans-531" data-name="DejaVuSans-53" class="st1" d="M34.5,27.2v1.2c-.5-.2-.9-.4-1.3-.5-.4-.1-.8-.2-1.2-.2-.7,0-1.2.1-1.5.4-.4.3-.5.6-.5,1.1s.1.7.4.9c.2.2.7.4,1.3.5h.7c.9.3,1.6.6,2,1.1s.6,1,.6,1.7-.3,1.5-.9,2c-.6.4-1.4.7-2.5.7s-.9,0-1.3-.1c-.5,0-1-.2-1.5-.4v-1.2c.5.3,1,.5,1.4.6.5.1.9.2,1.4.2.7,0,1.2-.1,1.6-.4.4-.3.6-.7.6-1.2s-.1-.8-.4-1-.7-.4-1.3-.6h-.7c-.9-.3-1.5-.6-1.9-1-.4-.4-.6-.9-.6-1.6s.3-1.4.8-1.9c.6-.5,1.3-.7,2.3-.7s.8,0,1.3.1c.4,0,.9.2,1.3.3Z"/>
      <path id="DejaVuSans-54" d="M35.7,26.9h7.5v1h-3.2v7.9h-1.2v-7.9h-3.2v-1Z"/>
      <path id="DejaVuSans-20" d="M43.2,35.8"/>
      <path id="DejaVuSans-532" data-name="DejaVuSans-53" d="M53.6,27.2v1.2c-.5-.2-.9-.4-1.3-.5-.4-.1-.8-.2-1.2-.2-.7,0-1.2.1-1.5.4-.4.3-.5.6-.5,1.1s.1.7.4.9c.2.2.7.4,1.3.5h.7c.9.3,1.6.6,2,1.1s.6,1,.6,1.7-.3,1.5-.9,2c-.6.4-1.4.7-2.5.7s-.9,0-1.3-.1c-.5,0-1-.2-1.5-.4v-1.2c.5.3,1,.5,1.4.6.5.1.9.2,1.4.2.7,0,1.2-.1,1.6-.4.4-.3.6-.7.6-1.2s-.1-.8-.4-1-.7-.4-1.3-.6h-.7c-.9-.3-1.5-.6-1.9-1-.4-.4-.6-.9-.6-1.6s.3-1.4.8-1.9c.6-.5,1.3-.7,2.3-.7s.8,0,1.3.1c.4,0,.9.2,1.3.3Z"/>
      <path id="DejaVuSans-77" d="M55.3,29.1h1.1l1.4,5.2,1.4-5.2h1.3l1.4,5.2,1.4-5.2h1.1l-1.7,6.7h-1.3l-1.4-5.5-1.4,5.5h-1.3l-1.7-6.7Z"/>
      <path id="DejaVuSans-69" d="M65.9,29.1h1.1v6.7h-1.1v-6.7ZM65.9,26.5h1.1v1.4h-1.1v-1.4Z"/>
      <path id="DejaVuSans-74" d="M70.3,27.2v1.9h2.3v.9h-2.3v3.6c0,.5,0,.9.2,1s.5.2.9.2h1.1v.9h-1.1c-.8,0-1.4-.2-1.7-.5-.3-.3-.5-.9-.5-1.7v-3.6h-.8v-.9h.8v-1.9h1.1Z"/>
      <path id="DejaVuSans-63" d="M78.8,29.4v1c-.3-.2-.6-.3-.9-.4s-.6-.1-.9-.1c-.7,0-1.3.2-1.7.7-.4.4-.6,1.1-.6,1.9s.2,1.4.6,1.9c.4.4.9.7,1.7.7s.6,0,.9-.1.6-.2.9-.4v1c-.3.1-.6.2-.9.3-.3,0-.7.1-1,.1-1,0-1.8-.3-2.4-.9-.6-.6-.9-1.5-.9-2.6s.3-1.9.9-2.6c.6-.6,1.4-.9,2.5-.9s.7,0,1,.1c.3,0,.6.2.9.3Z"/>
      <path id="DejaVuSans-68" d="M86.3,31.7v4h-1.1v-4c0-.6-.1-1.1-.4-1.4-.2-.3-.6-.5-1.1-.5s-1.1.2-1.4.6c-.3.4-.5.9-.5,1.5v3.8h-1.1v-9.3h1.1v3.6c.3-.4.6-.7.9-.9.4-.2.8-.3,1.2-.3.8,0,1.3.2,1.7.7.4.5.6,1.2.6,2.1Z"/>
    </g>
  </g>
</svg>