<?xml version="1.0" encoding="UTF-8"?>
<svg id="Layer_1" xmlns="http://www.w3.org/2000/svg" xmlns:xlink="http://www.w3.org/1999/xlink" version="1.1" viewBox="0 0 117.9 56.9" width="118" height="57">
  <!-- Generator: Adobe Illustrator 29.1.0, SVG Export Plug-In . SVG Version: 2.1.0 Build 142)  -->
  <defs>
    <clipPath id="clippath">
      <rect width="225" height="56.9" fill="none"/>
    </clipPath>
  </defs>
  <g id="patch_1">
    <path d="M0,56.9h118V0H0v56.9Z" fill="#fff"/>
  </g>
  <g id="axes_1">
    <g clip-path="url(#clippath)">
      <path d="M4.7,28.4h35.9l3-9,6,18,6-18,6,18,6-18,6,18,3-9h35.9" fill="none" stroke="#000" stroke-linecap="round" stroke-linejoin="round" stroke-width="2"/>
    </g>
    <g id="text_1">
      <g>
        <path id="DejaVuSans-52" d="M13.8,8.2c.3.1.6.3.9.6s.6.8.8,1.4l1.4,2.8h-1.5l-1.3-2.6c-.3-.7-.7-1.1-1-1.4s-.7-.3-1.3-.3h-1.5v4.3h-1.4V2.7h3.1c1.2,0,2,.2,2.6.7.6.5.9,1.2.9,2.2s-.1,1.2-.4,1.6c-.3.4-.7.7-1.3.9ZM10.3,3.9v3.6h1.7c.7,0,1.2-.2,1.5-.5s.5-.8.5-1.4-.2-1-.5-1.3-.8-.5-1.5-.5h-1.7Z"/>
        <path id="DejaVuSans-65" d="M24.5,8.8v.6h-5.8c0,.9.3,1.5.8,2,.5.5,1.1.7,2,.7s1,0,1.4-.2.9-.3,1.4-.5v1.2c-.5.2-.9.3-1.4.4s-1,.2-1.4.2c-1.2,0-2.2-.4-2.9-1.1-.7-.7-1.1-1.7-1.1-2.9s.3-2.2,1-3c.7-.7,1.6-1.1,2.7-1.1s1.8.3,2.4,1c.6.7.9,1.6.9,2.7ZM23.3,8.4c0-.7-.2-1.2-.6-1.6-.4-.4-.9-.6-1.5-.6s-1.3.2-1.7.6-.7,1-.7,1.7h4.5Z"/>
        <path id="DejaVuSans-73" d="M31.5,5.5v1.2c-.4-.2-.7-.3-1.1-.4-.4,0-.8-.1-1.2-.1-.6,0-1.1,0-1.4.3-.3.2-.5.5-.5.9s.1.5.3.7.7.3,1.3.5h.4c.9.3,1.5.6,1.9.9s.6.8.6,1.5-.3,1.3-.8,1.7c-.6.4-1.3.6-2.3.6s-.8,0-1.3-.1c-.4,0-.9-.2-1.4-.4v-1.3c.5.2.9.4,1.4.5.5.1.9.2,1.3.2s1-.1,1.4-.3c.3-.2.5-.5.5-.9s-.1-.6-.3-.8c-.2-.2-.7-.4-1.5-.5h-.4c-.8-.3-1.3-.5-1.7-.9-.3-.3-.5-.8-.5-1.4s.3-1.3.8-1.7c.5-.4,1.2-.6,2.2-.6s.9,0,1.3.1c.4,0,.8.2,1.1.3Z"/>
        <path id="DejaVuSans-69" d="M33.9,5.3h1.3v7.7h-1.3v-7.7ZM33.9,2.3h1.3v1.6h-1.3v-1.6Z"/>
        <path id="DejaVuSans-731" data-name="DejaVuSans-73" d="M42.7,5.5v1.2c-.4-.2-.7-.3-1.1-.4-.4,0-.8-.1-1.2-.1-.6,0-1.1,0-1.4.3-.3.2-.5.5-.5.9s.1.5.3.7.7.3,1.3.5h.4c.9.3,1.5.6,1.9.9s.6.8.6,1.5-.3,1.3-.8,1.7c-.6.4-1.3.6-2.3.6s-.8,0-1.3-.1c-.4,0-.9-.2-1.4-.4v-1.3c.5.2.9.4,1.4.5.5.1.9.2,1.3.2s1-.1,1.4-.3c.3-.2.5-.5.5-.9s-.1-.6-.3-.8c-.2-.2-.7-.4-1.5-.5h-.4c-.8-.3-1.3-.5-1.7-.9-.3-.3-.5-.8-.5-1.4s.3-1.3.8-1.7c.5-.4,1.2-.6,2.2-.6s.9,0,1.3.1c.4,0,.8.2,1.1.3Z"/>
        <path id="DejaVuSans-74" d="M46.3,3.1v2.2h2.6v1h-2.6v4.2c0,.6,0,1,.3,1.2s.5.3,1,.3h1.3v1.1h-1.3c-1,0-1.6-.2-2-.5-.4-.4-.6-1-.6-2v-4.2h-.9v-1h.9v-2.2h1.3Z"/>
        <path id="DejaVuSans-6f" d="M53.5,6.2c-.7,0-1.2.3-1.6.8s-.6,1.2-.6,2.2.2,1.6.6,2.2c.4.5.9.8,1.6.8s1.2-.3,1.6-.8c.4-.5.6-1.2.6-2.2s-.2-1.6-.6-2.2c-.4-.5-.9-.8-1.6-.8ZM53.5,5.1c1.1,0,2,.4,2.6,1.1.6.7.9,1.7.9,3s-.3,2.2-.9,3c-.6.7-1.5,1.1-2.6,1.1s-2-.4-2.6-1.1c-.6-.7-.9-1.7-.9-3s.3-2.2.9-3c.6-.7,1.5-1.1,2.6-1.1Z"/>
        <path id="DejaVuSans-72" d="M63.6,6.5c-.1,0-.3-.1-.5-.2-.2,0-.3,0-.5,0-.7,0-1.3.2-1.6.7s-.6,1.1-.6,2v4h-1.3v-7.7h1.3v1.2c.3-.5.6-.8,1-1,.4-.2.9-.3,1.5-.3s.2,0,.3,0c.1,0,.2,0,.3,0v1.3Z"/>
        <path id="DejaVuSans-20" d="M63.6,12.9"/>
        <path id="DejaVuSans-28" d="M72.4,2.3c-.6,1-1.1,2.1-1.4,3.1-.3,1-.4,2.1-.4,3.1s.1,2.1.4,3.1.8,2.1,1.4,3.1h-1.1c-.7-1.1-1.2-2.1-1.5-3.2-.3-1-.5-2.1-.5-3.1s.2-2,.5-3.1c.3-1,.9-2.1,1.5-3.2h1.1Z"/>
        <path id="DejaVuSans-49" d="M74.9,2.7h1.4v10.2h-1.4V2.7Z"/>
        <path id="DejaVuSans-45" d="M79,2.7h6.5v1.2h-5.1v3h4.9v1.2h-4.9v3.7h5.2v1.2h-6.6V2.7Z"/>
        <path id="DejaVuSans-451" data-name="DejaVuSans-45" d="M87.8,2.7h6.5v1.2h-5.1v3h4.9v1.2h-4.9v3.7h5.2v1.2h-6.6V2.7Z"/>
        <path id="DejaVuSans-452" data-name="DejaVuSans-45" d="M96.7,2.7h6.5v1.2h-5.1v3h4.9v1.2h-4.9v3.7h5.2v1.2h-6.6V2.7Z"/>
        <path id="DejaVuSans-29" d="M105.3,2.3h1.1c.7,1.1,1.2,2.1,1.5,3.2.3,1,.5,2.1.5,3.1s-.2,2-.5,3.1c-.3,1-.9,2.1-1.5,3.2h-1.1c.6-1,1.1-2.1,1.4-3.1.3-1,.4-2.1.4-3.1s-.1-2.1-.4-3.1c-.3-1-.8-2.1-1.4-3.1Z"/>
      </g>
    </g>
  </g>
</svg>