<?xml version="1.0" encoding="UTF-8"?>
<svg id="Layer_1" xmlns="http://www.w3.org/2000/svg" version="1.1" viewBox="0 0 100 21.4" width="100" height="21.4">
  <path d="M63.4,19.5c-.4,0-.8-.3-.9-.7l-4.4-13.3-4.4,13.3c-.1.4-.5.7-.9.7s-.8-.3-.9-.7l-4.4-13.3-4.4,13.3c-.1.4-.5.7-.9.7h0c-.4,0-.8-.3-.9-.7l-4.4-13.3-1.7,5.2c-.1.4-.5.7-.9.7H1.7c-.6,0-1-.4-1-1s.4-1,1-1h31.4l2.5-7.4c.1-.4.5-.7.9-.7h0c.4,0,.8.3.9.7l4.4,13.3,4.4-13.3c.1-.4.5-.7.9-.7s.8.3.9.7l4.4,13.3,4.4-13.3c.1-.4.5-.7.9-.7s.8.3.9.7l4.4,13.3,1.7-5.2c.1-.4.5-.7.9-.7h32.2c.6,0,1,.4,1,1s-.4,1-1,1h-31.4l-2.5,7.4c-.1.4-.5.7-.9.7Z"/>
  <path id="DejaVuSans-20" d="M54.7,12.9"/>
</svg>