<?xml version="1.0" encoding="UTF-8"?>
<svg id="Layer_1" xmlns="http://www.w3.org/2000/svg" version="1.1" viewBox="0 0 144 122">
  <!-- Generator: Adobe Illustrator 29.4.0, SVG Export Plug-In . SVG Version: 2.1.0 Build 152)  -->
  <defs>
    <style>
      .st0 {
        stroke-dasharray: 2 3.3;
      }

      .st0, .st1 {
        fill: none;
        stroke-linejoin: round;
      }

      .st0, .st1, .st2 {
        stroke: #000;
        stroke-width: 2px;
      }

      .st1 {
        stroke-linecap: round;
      }

      .st3, .st2 {
        fill: #fff;
      }
    </style>
  </defs>
  <path class="st3" d="M0,121.9h144V0H0v121.9Z"/>
  <path class="st1" d="M62.7,34.5l16.5-5.4"/>
  <path class="st1" d="M62.7,84.6l16.5-5.4"/>
  <path class="st0" d="M72,79.3V30.9"/>
  <path class="st1" d="M58.4,38.1H4.7"/>
  <path class="st1" d="M85.6,23.7h53.7"/>
  <path class="st1" d="M85.6,52.4h53.7"/>
  <path class="st1" d="M58.4,88.2H4.7"/>
  <path class="st1" d="M85.6,73.9h53.7"/>
  <path class="st1" d="M85.6,102.6h53.7"/>
  <path class="st2" d="M58.4,42.4c1.1,0,2.2-.5,3-1.3.8-.8,1.3-1.9,1.3-3s-.5-2.2-1.3-3c-.8-.8-1.9-1.3-3-1.3s-2.2.5-3,1.3c-.8.8-1.3,1.9-1.3,3s.5,2.2,1.3,3c.8.8,1.9,1.3,3,1.3Z"/>
  <path class="st2" d="M85.6,56.7c1.1,0,2.2-.5,3-1.3.8-.8,1.3-1.9,1.3-3s-.5-2.2-1.3-3-1.9-1.3-3-1.3-2.2.5-3,1.3c-.8.8-1.3,1.9-1.3,3s.5,2.2,1.3,3c.8.8,1.9,1.3,3,1.3Z"/>
  <path class="st2" d="M85.6,28c1.1,0,2.2-.5,3-1.3s1.3-1.9,1.3-3-.5-2.2-1.3-3-1.9-1.3-3-1.3-2.2.5-3,1.3c-.8.8-1.3,1.9-1.3,3s.5,2.2,1.3,3c.8.8,1.9,1.3,3,1.3Z"/>
  <path class="st2" d="M58.4,92.5c1.1,0,2.2-.5,3-1.3.8-.8,1.3-1.9,1.3-3s-.5-2.2-1.3-3c-.8-.8-1.9-1.3-3-1.3s-2.2.5-3,1.3c-.8.8-1.3,1.9-1.3,3s.5,2.2,1.3,3c.8.8,1.9,1.3,3,1.3Z"/>
  <path class="st2" d="M85.6,106.9c1.1,0,2.2-.5,3-1.3.8-.8,1.3-1.9,1.3-3s-.5-2.2-1.3-3-1.9-1.3-3-1.3-2.2.5-3,1.3c-.8.8-1.3,1.9-1.3,3s.5,2.2,1.3,3c.8.8,1.9,1.3,3,1.3Z"/>
  <path class="st2" d="M85.6,78.2c1.1,0,2.2-.5,3-1.3.8-.8,1.3-1.9,1.3-3s-.5-2.2-1.3-3c-.8-.8-1.9-1.3-3-1.3s-2.2.5-3,1.3-1.3,1.9-1.3,3,.5,2.2,1.3,3c.8.8,1.9,1.3,3,1.3Z"/>
  <path id="DejaVuSans-44" d="M30.1,3.9v7.9h1.7c1.4,0,2.4-.3,3.1-1,.7-.6,1-1.6,1-3s-.3-2.4-1-3-1.7-1-3.1-1h-1.7ZM28.7,2.7h2.8c2,0,3.4.4,4.4,1.2.9.8,1.4,2.1,1.4,3.9s-.5,3.1-1.4,3.9c-.9.8-2.4,1.2-4.3,1.2h-2.8V2.7Z"/>
  <path id="DejaVuSans-50" d="M40.9,3.9v3.8h1.7c.6,0,1.1-.2,1.5-.5.4-.3.5-.8.5-1.4s-.2-1.1-.5-1.4c-.4-.3-.8-.5-1.5-.5h-1.7ZM39.5,2.7h3.1c1.1,0,2,.3,2.6.8.6.5.9,1.3.9,2.3s-.3,1.8-.9,2.3c-.6.5-1.4.8-2.6.8h-1.7v4.1h-1.4V2.7Z"/>
  <path id="DejaVuSans-441" data-name="DejaVuSans-44" d="M49.3,3.9v7.9h1.7c1.4,0,2.4-.3,3.1-1,.7-.6,1-1.6,1-3s-.3-2.4-1-3-1.7-1-3.1-1h-1.7ZM48,2.7h2.8c2,0,3.4.4,4.4,1.2.9.8,1.4,2.1,1.4,3.9s-.5,3.1-1.4,3.9c-.9.8-2.4,1.2-4.3,1.2h-2.8V2.7Z"/>
  <path id="DejaVuSans-54" d="M57.3,2.7h8.6v1.2h-3.6v9h-1.4V3.9h-3.6v-1.2Z"/>
  <path id="DejaVuSans-20" d="M65.9,13"/>
  <path id="DejaVuSans-53" d="M77.9,3.1v1.3c-.5-.3-1-.4-1.5-.6-.5-.1-.9-.2-1.3-.2-.8,0-1.3.1-1.7.4-.4.3-.6.7-.6,1.2s.1.8.4,1c.3.2.8.4,1.5.6l.8.2c1,.2,1.8.5,2.3,1s.7,1.2.7,2-.3,1.7-1,2.3c-.7.5-1.6.8-2.9.8s-1,0-1.5-.2c-.5-.1-1.1-.3-1.7-.5v-1.4c.6.3,1.1.6,1.6.7.5.2,1.1.2,1.6.2.8,0,1.4-.2,1.8-.5.4-.3.6-.8.6-1.3s-.2-.9-.5-1.2-.8-.5-1.5-.6l-.8-.2c-1-.2-1.8-.5-2.2-1-.5-.4-.7-1-.7-1.8s.3-1.6,1-2.1c.6-.5,1.5-.8,2.6-.8s1,0,1.5.1c.5,0,1,.2,1.5.4Z"/>
  <path id="DejaVuSans-77" d="M79.8,5.3h1.3l1.6,6,1.6-6h1.5l1.6,6,1.6-6h1.3l-2,7.7h-1.5l-1.6-6.3-1.7,6.3h-1.5l-2-7.7Z"/>
  <path id="DejaVuSans-69" d="M92,5.3h1.3v7.7h-1.3v-7.7ZM92,2.3h1.3v1.6h-1.3v-1.6Z"/>
  <path id="DejaVuSans-74" d="M97.2,3.1v2.2h2.6v1h-2.6v4.2c0,.6,0,1,.3,1.2s.5.3,1,.3h1.3v1.1h-1.3c-1,0-1.6-.2-2-.5-.4-.4-.6-1-.6-2v-4.2h-.9v-1h.9v-2.2h1.3Z"/>
  <path id="DejaVuSans-63" d="M106.9,5.6v1.2c-.4-.2-.7-.3-1.1-.4s-.7-.1-1.1-.1c-.8,0-1.5.3-1.9.8-.5.5-.7,1.2-.7,2.2s.2,1.7.7,2.2c.5.5,1.1.8,1.9.8s.7,0,1.1-.1.7-.2,1.1-.4v1.2c-.4.2-.7.3-1.1.4-.4,0-.8.1-1.2.1-1.2,0-2.1-.4-2.7-1.1-.7-.7-1-1.7-1-2.9s.3-2.2,1-2.9c.7-.7,1.6-1.1,2.8-1.1s.8,0,1.1.1c.4,0,.7.2,1.1.4Z"/>
  <path id="DejaVuSans-68" d="M115.5,8.3v4.6h-1.3v-4.6c0-.7-.1-1.3-.4-1.6-.3-.4-.7-.5-1.3-.5s-1.2.2-1.6.6c-.4.4-.6,1-.6,1.8v4.3h-1.3V2.3h1.3v4.2c.3-.5.7-.8,1.1-1,.4-.2.9-.3,1.4-.3.9,0,1.5.3,2,.8.5.5.7,1.3.7,2.4Z"/>
  <path id="DejaVuSans-691" data-name="DejaVuSans-69" d="M22,44.6h1.3v7.7h-1.3v-7.7ZM22,41.7h1.3v1.6h-1.3v-1.6Z"/>
  <path id="DejaVuSans-6e" d="M32.3,47.7v4.6h-1.3v-4.6c0-.7-.1-1.3-.4-1.6-.3-.4-.7-.5-1.3-.5s-1.2.2-1.6.6c-.4.4-.6,1-.6,1.8v4.3h-1.3v-7.7h1.3v1.2c.3-.5.7-.8,1.1-1,.4-.2.9-.3,1.4-.3.9,0,1.5.3,2,.8.5.5.7,1.3.7,2.4Z"/>
  <path id="DejaVuSans-31" d="M35.2,51.1h2.3v-7.8l-2.5.5v-1.3l2.4-.5h1.4v9h2.3v1.2h-5.9v-1.2Z"/>
  <path id="DejaVuSans-6f" d="M94,31.2c-.7,0-1.2.3-1.6.8s-.6,1.2-.6,2.2.2,1.6.6,2.2c.4.5.9.8,1.6.8s1.2-.3,1.6-.8c.4-.5.6-1.2.6-2.2s-.2-1.6-.6-2.2c-.4-.5-.9-.8-1.6-.8ZM94,30.1c1.1,0,2,.4,2.6,1.1.6.7.9,1.7.9,3s-.3,2.2-.9,3c-.6.7-1.5,1.1-2.6,1.1s-2-.4-2.6-1.1c-.6-.7-.9-1.7-.9-3s.3-2.2.9-3c.6-.7,1.5-1.1,2.6-1.1Z"/>
  <path id="DejaVuSans-75" d="M99.5,34.9v-4.6h1.3v4.6c0,.7.1,1.3.4,1.6.3.4.7.5,1.3.5s1.2-.2,1.6-.6c.4-.4.6-1,.6-1.8v-4.3h1.3v7.7h-1.3v-1.2c-.3.5-.7.8-1.1,1-.4.2-.9.3-1.4.3-.9,0-1.5-.3-2-.8-.5-.5-.7-1.3-.7-2.4ZM102.7,30.1h0Z"/>
  <path id="DejaVuSans-741" data-name="DejaVuSans-74" d="M109.7,28.1v2.2h2.6v1h-2.6v4.2c0,.6,0,1,.3,1.2s.5.3,1,.3h1.3v1.1h-1.3c-1,0-1.6-.2-2-.5-.4-.4-.6-1-.6-2v-4.2h-.9v-1h.9v-2.2h1.3Z"/>
  <path id="DejaVuSans-311" data-name="DejaVuSans-31" d="M114.4,36.8h2.3v-7.8l-2.5.5v-1.3l2.4-.5h1.4v9h2.3v1.2h-5.9v-1.2Z"/>
  <path id="DejaVuSans-2d" d="M122.3,33.6h3.7v1.1h-3.7v-1.1Z"/>
  <path id="DejaVuSans-61" d="M131.4,34.1c-1,0-1.7.1-2.1.3s-.6.6-.6,1.2.1.8.4,1.1c.3.3.7.4,1.2.4s1.3-.2,1.7-.7.6-1.2.6-2v-.3h-1.3ZM133.9,33.6v4.4h-1.3v-1.2c-.3.5-.6.8-1.1,1-.4.2-1,.3-1.6.3s-1.4-.2-1.9-.7c-.5-.4-.7-1-.7-1.8s.3-1.5.9-1.9c.6-.4,1.4-.7,2.6-.7h1.8c0-.7-.2-1.2-.6-1.5s-.9-.5-1.6-.5-.9,0-1.3.2c-.4.1-.8.3-1.2.5v-1.2c.5-.2.9-.3,1.3-.4.4,0,.9-.1,1.3-.1,1.1,0,1.9.3,2.5.9.5.6.8,1.4.8,2.6Z"/>
  <path id="DejaVuSans-6f1" data-name="DejaVuSans-6f" d="M93.9,59.8c-.7,0-1.2.3-1.6.8s-.6,1.2-.6,2.2.2,1.6.6,2.2c.4.5.9.8,1.6.8s1.2-.3,1.6-.8c.4-.5.6-1.2.6-2.2s-.2-1.6-.6-2.2c-.4-.5-.9-.8-1.6-.8ZM93.9,58.8c1.1,0,2,.4,2.6,1.1.6.7.9,1.7.9,3s-.3,2.2-.9,3c-.6.7-1.5,1.1-2.6,1.1s-2-.4-2.6-1.1c-.6-.7-.9-1.7-.9-3s.3-2.2.9-3c.6-.7,1.5-1.1,2.6-1.1Z"/>
  <path id="DejaVuSans-751" data-name="DejaVuSans-75" d="M99.3,63.6v-4.6h1.3v4.6c0,.7.1,1.3.4,1.6.3.4.7.5,1.3.5s1.2-.2,1.6-.6c.4-.4.6-1,.6-1.8v-4.3h1.3v7.7h-1.3v-1.2c-.3.5-.7.8-1.1,1-.4.2-.9.3-1.4.3-.9,0-1.5-.3-2-.8-.5-.5-.7-1.3-.7-2.4ZM102.5,58.8h0Z"/>
  <path id="DejaVuSans-742" data-name="DejaVuSans-74" d="M109.6,56.8v2.2h2.6v1h-2.6v4.2c0,.6,0,1,.3,1.2s.5.3,1,.3h1.3v1.1h-1.3c-1,0-1.6-.2-2-.5-.4-.4-.6-1-.6-2v-4.2h-.9v-1h.9v-2.2h1.3Z"/>
  <path id="DejaVuSans-312" data-name="DejaVuSans-31" d="M114.3,65.5h2.3v-7.8l-2.5.5v-1.3l2.4-.5h1.4v9h2.3v1.2h-5.9v-1.2Z"/>
  <path id="DejaVuSans-2d1" data-name="DejaVuSans-2d" d="M122.1,62.2h3.7v1.1h-3.7v-1.1Z"/>
  <path id="DejaVuSans-62" d="M133.3,62.8c0-.9-.2-1.7-.6-2.2s-.9-.8-1.6-.8-1.2.3-1.6.8-.6,1.3-.6,2.2.2,1.7.6,2.2c.4.5.9.8,1.6.8s1.2-.3,1.6-.8c.4-.5.6-1.3.6-2.2ZM129,60.1c.3-.5.6-.8,1-1,.4-.2.9-.3,1.4-.3.9,0,1.7.4,2.3,1.1.6.7.9,1.7.9,2.9s-.3,2.2-.9,2.9c-.6.7-1.3,1.1-2.3,1.1s-1-.1-1.4-.3c-.4-.2-.7-.6-1-1v1.1h-1.3v-10.6h1.3v4.1Z"/>
  <path id="DejaVuSans-692" data-name="DejaVuSans-69" d="M22,94.8h1.3v7.7h-1.3v-7.7ZM22,91.8h1.3v1.6h-1.3v-1.6Z"/>
  <path id="DejaVuSans-6e1" data-name="DejaVuSans-6e" d="M32.3,97.8v4.6h-1.3v-4.6c0-.7-.1-1.3-.4-1.6-.3-.4-.7-.5-1.3-.5s-1.2.2-1.6.6c-.4.4-.6,1-.6,1.8v4.3h-1.3v-7.7h1.3v1.2c.3-.5.7-.8,1.1-1,.4-.2.9-.3,1.4-.3.9,0,1.5.3,2,.8.5.5.7,1.3.7,2.4Z"/>
  <path id="DejaVuSans-32" d="M36.1,101.3h4.8v1.2h-6.5v-1.2c.5-.5,1.2-1.3,2.1-2.2.9-.9,1.5-1.5,1.7-1.8.4-.5.8-.9.9-1.3.2-.3.3-.7.3-1,0-.5-.2-1-.6-1.3-.4-.3-.9-.5-1.5-.5s-.9,0-1.4.2c-.5.2-1,.4-1.5.7v-1.4c.6-.2,1.1-.4,1.6-.5.5-.1.9-.2,1.3-.2,1.1,0,1.9.3,2.5.8.6.5.9,1.2.9,2.1s0,.8-.2,1.2c-.2.4-.4.8-.9,1.3-.1.1-.5.5-1.1,1.1-.6.6-1.5,1.5-2.6,2.6Z"/>
  <path id="DejaVuSans-6f2" data-name="DejaVuSans-6f" d="M94,81.3c-.7,0-1.2.3-1.6.8s-.6,1.2-.6,2.2.2,1.6.6,2.2c.4.5.9.8,1.6.8s1.2-.3,1.6-.8c.4-.5.6-1.2.6-2.2s-.2-1.6-.6-2.2c-.4-.5-.9-.8-1.6-.8ZM94,80.3c1.1,0,2,.4,2.6,1.1.6.7.9,1.7.9,3s-.3,2.2-.9,3c-.6.7-1.5,1.1-2.6,1.1s-2-.4-2.6-1.1c-.6-.7-.9-1.7-.9-3s.3-2.2.9-3c.6-.7,1.5-1.1,2.6-1.1Z"/>
  <path id="DejaVuSans-752" data-name="DejaVuSans-75" d="M99.5,85.1v-4.6h1.3v4.6c0,.7.1,1.3.4,1.6.3.4.7.5,1.3.5s1.2-.2,1.6-.6c.4-.4.6-1,.6-1.8v-4.3h1.3v7.7h-1.3v-1.2c-.3.5-.7.8-1.1,1-.4.2-.9.3-1.4.3-.9,0-1.5-.3-2-.8-.5-.5-.7-1.3-.7-2.4ZM102.7,80.3h0Z"/>
  <path id="DejaVuSans-743" data-name="DejaVuSans-74" d="M109.7,78.3v2.2h2.6v1h-2.6v4.2c0,.6,0,1,.3,1.2s.5.3,1,.3h1.3v1.1h-1.3c-1,0-1.6-.2-2-.5-.4-.4-.6-1-.6-2v-4.2h-.9v-1h.9v-2.2h1.3Z"/>
  <path id="DejaVuSans-321" data-name="DejaVuSans-32" d="M115.4,87h4.8v1.2h-6.5v-1.2c.5-.5,1.2-1.3,2.1-2.2.9-.9,1.5-1.5,1.7-1.8.4-.5.8-.9.9-1.3.2-.3.3-.7.3-1,0-.5-.2-1-.6-1.3-.4-.3-.9-.5-1.5-.5s-.9,0-1.4.2c-.5.2-1,.4-1.5.7v-1.4c.6-.2,1.1-.4,1.6-.5.5-.1.9-.2,1.3-.2,1.1,0,1.9.3,2.5.8.6.5.9,1.2.9,2.1s0,.8-.2,1.2c-.2.4-.4.8-.9,1.3-.1.1-.5.5-1.1,1.1-.6.6-1.5,1.5-2.6,2.6Z"/>
  <path id="DejaVuSans-2d2" data-name="DejaVuSans-2d" d="M122.3,83.7h3.7v1.1h-3.7v-1.1Z"/>
  <path id="DejaVuSans-611" data-name="DejaVuSans-61" d="M131.4,84.3c-1,0-1.7.1-2.1.3s-.6.6-.6,1.2.1.8.4,1.1c.3.3.7.4,1.2.4s1.3-.2,1.7-.7.6-1.2.6-2v-.3h-1.3ZM133.9,83.7v4.4h-1.3v-1.2c-.3.5-.6.8-1.1,1-.4.2-1,.3-1.6.3s-1.4-.2-1.9-.7c-.5-.4-.7-1-.7-1.8s.3-1.5.9-1.9c.6-.4,1.4-.7,2.6-.7h1.8c0-.7-.2-1.2-.6-1.5s-.9-.5-1.6-.5-.9,0-1.3.2c-.4.1-.8.3-1.2.5v-1.2c.5-.2.9-.3,1.3-.4.4,0,.9-.1,1.3-.1,1.1,0,1.9.3,2.5.9.5.6.8,1.4.8,2.6Z"/>
  <path id="DejaVuSans-6f3" data-name="DejaVuSans-6f" d="M93.9,110c-.7,0-1.2.3-1.6.8s-.6,1.2-.6,2.2.2,1.6.6,2.2c.4.5.9.8,1.6.8s1.2-.3,1.6-.8c.4-.5.6-1.2.6-2.2s-.2-1.6-.6-2.2c-.4-.5-.9-.8-1.6-.8ZM93.9,108.9c1.1,0,2,.4,2.6,1.1.6.7.9,1.7.9,3s-.3,2.2-.9,3c-.6.7-1.5,1.1-2.6,1.1s-2-.4-2.6-1.1c-.6-.7-.9-1.7-.9-3s.3-2.2.9-3c.6-.7,1.5-1.1,2.6-1.1Z"/>
  <path id="DejaVuSans-753" data-name="DejaVuSans-75" d="M99.3,113.8v-4.6h1.3v4.6c0,.7.1,1.3.4,1.6.3.4.7.5,1.3.5s1.2-.2,1.6-.6c.4-.4.6-1,.6-1.8v-4.3h1.3v7.7h-1.3v-1.2c-.3.5-.7.8-1.1,1-.4.2-.9.3-1.4.3-.9,0-1.5-.3-2-.8-.5-.5-.7-1.3-.7-2.4ZM102.5,108.9h0Z"/>
  <path id="DejaVuSans-744" data-name="DejaVuSans-74" d="M109.6,106.9v2.2h2.6v1h-2.6v4.2c0,.6,0,1,.3,1.2s.5.3,1,.3h1.3v1.1h-1.3c-1,0-1.6-.2-2-.5-.4-.4-.6-1-.6-2v-4.2h-.9v-1h.9v-2.2h1.3Z"/>
  <path id="DejaVuSans-322" data-name="DejaVuSans-32" d="M115.2,115.6h4.8v1.2h-6.5v-1.2c.5-.5,1.2-1.3,2.1-2.2.9-.9,1.5-1.5,1.7-1.8.4-.5.8-.9.9-1.3.2-.3.3-.7.3-1,0-.5-.2-1-.6-1.3-.4-.3-.9-.5-1.5-.5s-.9,0-1.4.2c-.5.2-1,.4-1.5.7v-1.4c.6-.2,1.1-.4,1.6-.5.5-.1.9-.2,1.3-.2,1.1,0,1.9.3,2.5.8.6.5.9,1.2.9,2.1s0,.8-.2,1.2c-.2.4-.4.8-.9,1.3-.1.1-.5.5-1.1,1.1-.6.6-1.5,1.5-2.6,2.6Z"/>
  <path id="DejaVuSans-2d3" data-name="DejaVuSans-2d" d="M122.1,112.4h3.7v1.1h-3.7v-1.1Z"/>
  <path id="DejaVuSans-621" data-name="DejaVuSans-62" d="M133.3,113c0-.9-.2-1.7-.6-2.2s-.9-.8-1.6-.8-1.2.3-1.6.8-.6,1.3-.6,2.2.2,1.7.6,2.2c.4.5.9.8,1.6.8s1.2-.3,1.6-.8c.4-.5.6-1.3.6-2.2ZM129,110.3c.3-.5.6-.8,1-1,.4-.2.9-.3,1.4-.3.9,0,1.7.4,2.3,1.1.6.7.9,1.7.9,2.9s-.3,2.2-.9,2.9c-.6.7-1.3,1.1-2.3,1.1s-1-.1-1.4-.3c-.4-.2-.7-.6-1-1v1.1h-1.3v-10.6h1.3v4.1Z"/>
</svg>