<?xml version="1.0" encoding="UTF-8"?>
<svg id="Layer_1" xmlns="http://www.w3.org/2000/svg" width="1.389in" height=".278in" version="1.1" viewBox="0 0 100 20">
  <!-- Generator: Adobe Illustrator 29.4.0, SVG Export Plug-In . SVG Version: 2.1.0 Build 152)  -->
  <g>
    <path d="M45.6,19.1c-.146,0-.292-.034-.426-.103-.311-.159-.507-.48-.507-.83V5.413c0-.35.196-.67.507-.83.31-.16.685-.133.97.072l8.891,6.377c.244.175.389.458.389.758s-.145.583-.389.758l-8.892,6.376c-.161.116-.352.175-.544.175ZM46.533,7.231v9.118l6.357-4.559-6.357-4.56Z"/>
    <path d="M45.6,12.724H11.83c-.515,0-.933-.417-.933-.933s.418-.933.933-.933h33.77c.515,0,.933.418.933.933s-.418.933-.933.933Z"/>
    <path d="M54.582,19.1c-.516,0-.933-.417-.933-.933V5.413c0-.515.417-.933.933-.933s.933.418.933.933v12.753c0,.516-.417.933-.933.933Z"/>
    <path d="M88.35,12.724h-33.769c-.516,0-.933-.417-.933-.933s.417-.933.933-.933h33.769c.516,0,.933.418.933.933s-.417.933-.933.933Z"/>
  </g>
  <g>
    <g>
      <path d="M10.476,2.607l2.508,7.244h-1.025l-.836-2.487h-2.388l-.846,2.487h-.836l2.518-7.244h.906ZM9.939,3.821l-.975,2.866h1.93l-.955-2.866ZM10.595.846h1.214l-1.393,1.303h-.776l.955-1.303Z"/>
      <path d="M14.526,4.826c.046.113.086.229.12.348.033.12.056.239.069.358.199-.199.435-.373.706-.522.272-.149.551-.224.836-.224.364,0,.658.076.881.229.222.153.383.36.482.622.1.262.15.566.15.91v3.304h-.816v-3.035c0-.206-.015-.409-.045-.608-.03-.199-.103-.363-.219-.492-.116-.129-.307-.194-.572-.194-.159,0-.322.031-.488.094s-.322.144-.467.244c-.146.1-.279.206-.398.318v3.672h-.816v-3.503c0-.132-.01-.286-.03-.462-.02-.176-.053-.348-.1-.517s-.113-.31-.199-.423l.906-.119Z"/>
      <path d="M21.233,9.981c-.484,0-.891-.121-1.219-.363-.328-.242-.574-.559-.736-.95s-.244-.81-.244-1.254c0-.332.05-.654.15-.97.1-.315.245-.597.438-.845.193-.249.429-.446.712-.592.282-.146.602-.219.96-.219.491,0,.901.12,1.229.358.328.239.574.554.736.945.162.392.244.813.244,1.263,0,.339-.05.666-.15.981s-.244.596-.433.841c-.189.245-.425.441-.706.587s-.609.218-.98.218ZM21.243,9.354c.259,0,.476-.061.652-.184s.318-.284.428-.482c.109-.199.187-.413.234-.642s.07-.45.07-.662c0-.218-.022-.443-.065-.671-.043-.229-.114-.441-.214-.637-.099-.196-.237-.355-.413-.478-.176-.123-.393-.184-.652-.184s-.476.061-.652.184-.317.283-.423.482-.182.413-.229.642-.07.449-.07.661c0,.206.023.424.07.652.046.229.121.443.224.642.103.199.24.362.413.488.172.126.382.189.627.189Z"/>
      <path d="M26.596,4.797c.226,0,.451.036.677.11.225.073.421.186.587.338-.007-.093-.011-.184-.015-.274s-.005-.177-.005-.264v-1.851l-.139-.587h.955v6.16c0,.139.01.295.03.467.02.173.053.34.1.503s.106.307.179.432l-.876.11c-.046-.112-.086-.225-.119-.339-.033-.112-.057-.225-.07-.338-.173.225-.388.401-.647.527s-.531.189-.816.189c-.345,0-.647-.073-.905-.218-.259-.146-.473-.344-.642-.592-.169-.249-.295-.524-.378-.826-.083-.302-.125-.609-.125-.92,0-.339.045-.665.134-.981.09-.315.225-.595.408-.841.182-.245.413-.441.692-.587.278-.146.603-.219.975-.219ZM26.616,5.473c-.259,0-.476.057-.652.169-.176.113-.315.262-.418.448-.103.186-.176.39-.219.612-.043.223-.064.443-.064.662,0,.225.025.449.075.671.05.223.129.427.239.612.109.186.255.333.438.443s.406.164.672.164c.232,0,.446-.068.642-.203s.367-.287.513-.453v-1.672c0-.265-.042-.507-.125-.726-.083-.219-.214-.394-.393-.527-.179-.133-.415-.199-.706-.199Z"/>
      <path d="M32.129,9.981c-.484,0-.891-.121-1.219-.363-.328-.242-.574-.559-.736-.95s-.244-.81-.244-1.254c0-.332.05-.654.15-.97.1-.315.245-.597.438-.845.193-.249.429-.446.712-.592.282-.146.602-.219.96-.219.491,0,.901.12,1.229.358.328.239.574.554.736.945.162.392.244.813.244,1.263,0,.339-.05.666-.15.981s-.244.596-.433.841c-.189.245-.425.441-.706.587s-.609.218-.98.218ZM32.139,9.354c.259,0,.476-.061.652-.184s.318-.284.428-.482c.109-.199.187-.413.234-.642s.07-.45.07-.662c0-.218-.022-.443-.065-.671-.043-.229-.114-.441-.214-.637-.099-.196-.237-.355-.413-.478-.176-.123-.393-.184-.652-.184s-.476.061-.652.184-.317.283-.423.482-.182.413-.229.642-.07.449-.07.661c0,.206.023.424.07.652.046.229.121.443.224.642.103.199.24.362.413.488.172.126.382.189.627.189Z"/>
    </g>
    <g>
      <path d="M68.456,9.767c-.571,0-1.064-.099-1.478-.298-.415-.199-.758-.469-1.03-.811-.273-.341-.473-.728-.603-1.159-.129-.431-.194-.875-.194-1.333,0-.497.073-.977.218-1.438.146-.461.36-.874.642-1.239.282-.364.635-.653,1.06-.866.424-.212.915-.318,1.473-.318.232,0,.486.029.761.085.275.057.539.141.791.254.252.113.457.262.617.448l-.517.577c-.126-.146-.285-.267-.478-.363-.192-.096-.393-.171-.602-.224s-.406-.079-.592-.079c-.385,0-.724.088-1.015.264-.292.176-.538.413-.737.711-.199.299-.35.634-.453,1.005s-.154.75-.154,1.134c0,.597.096,1.113.289,1.548.192.434.464.769.816,1.004.352.236.767.353,1.245.353.278,0,.58-.039.905-.119s.66-.205,1.005-.378l.309.567c-.146.106-.314.201-.503.283-.189.083-.389.154-.597.214s-.415.104-.617.134c-.203.03-.39.045-.562.045Z"/>
      <path d="M73.42,4.582c.524,0,.919.143,1.184.428.266.285.398.687.398,1.204v2.478c0,.139.026.233.08.283s.116.075.189.075c.06,0,.122-.008.189-.025s.13-.039.189-.065l.179.538c-.106.06-.24.114-.403.164-.162.05-.33.075-.502.075-.173,0-.329-.048-.468-.144-.139-.096-.225-.274-.259-.532-.192.205-.417.373-.676.503-.259.129-.531.194-.816.194-.392,0-.717-.116-.975-.348s-.389-.551-.389-.955c0-.379.091-.681.274-.906s.419-.395.711-.507c.292-.113.603-.189.931-.23.329-.039.635-.06.921-.06v-.527c0-.186-.024-.353-.07-.503-.046-.149-.129-.268-.248-.358-.12-.09-.289-.135-.508-.135-.253,0-.495.05-.726.15-.232.1-.465.245-.696.438l-.409-.587c.272-.219.571-.381.895-.488.325-.106.66-.159,1.005-.159ZM74.177,7.398c-.18,0-.382.009-.607.025-.226.017-.445.057-.657.119-.212.063-.387.165-.523.303-.136.139-.203.332-.203.578,0,.218.075.38.224.482s.337.154.562.154c.239,0,.447-.067.627-.199.179-.132.319-.302.423-.508.103-.205.154-.417.154-.637v-.318ZM73.848,2.354h1.214l-1.393,1.513h-.776l.955-1.513Z"/>
      <path d="M77.78,3.289c-.046.225-.088.459-.125.701-.036.243-.061.479-.075.712h1.294l-.169.627h-1.124v3.164c0,.126.015.237.045.333s.083.169.16.219c.076.049.184.075.323.075.106,0,.212-.011.318-.03.106-.02.21-.043.309-.07l.139.558c-.166.046-.324.088-.473.124-.149.037-.32.055-.512.055-.425,0-.72-.113-.886-.339s-.249-.54-.249-.945v-3.144h-.736v-.497c.199-.007.365-.06.497-.159s.242-.227.329-.383c.086-.156.155-.322.209-.498.053-.175.093-.343.119-.502h.607Z"/>
      <path d="M81.561,9.776c-.485,0-.891-.121-1.219-.363-.329-.242-.574-.559-.737-.95s-.244-.81-.244-1.254c0-.332.05-.654.149-.97.1-.315.246-.597.439-.845.192-.249.429-.446.711-.592.282-.146.602-.219.96-.219.49,0,.9.12,1.229.358.328.239.574.554.736.945.163.392.244.813.244,1.263,0,.339-.049.666-.149.981-.099.315-.244.596-.432.841-.189.245-.425.441-.707.587-.282.146-.609.218-.98.218ZM81.571,9.15c.259,0,.475-.061.652-.184.175-.123.318-.284.428-.482.11-.199.187-.413.233-.642s.07-.45.07-.662c0-.218-.022-.442-.065-.672-.043-.228-.114-.441-.214-.636-.099-.196-.237-.355-.413-.478-.175-.123-.393-.184-.652-.184s-.476.061-.652.184-.317.283-.423.482-.182.413-.229.642-.069.449-.069.661c0,.206.023.424.069.652.046.229.121.443.224.642s.24.362.413.488c.173.126.382.189.627.189Z"/>
      <path d="M86.924,4.592c.225,0,.451.036.677.11.225.073.421.186.587.338-.007-.093-.011-.184-.015-.274s-.005-.177-.005-.264v-1.851l-.139-.587h.955v6.16c0,.139.01.295.03.467.019.173.053.34.099.503s.106.307.179.432l-.875.11c-.046-.112-.086-.225-.119-.339-.033-.112-.056-.225-.07-.338-.172.225-.388.401-.646.527s-.531.189-.816.189c-.346,0-.647-.073-.906-.218s-.473-.344-.642-.592c-.168-.249-.295-.524-.378-.826-.082-.302-.124-.609-.124-.92,0-.339.045-.665.134-.981.089-.315.225-.595.408-.841.182-.245.413-.441.691-.587.279-.146.604-.219.975-.219ZM86.944,5.269c-.259,0-.476.057-.652.169-.176.113-.316.262-.418.448-.103.186-.175.39-.218.612-.044.222-.065.443-.065.662,0,.225.025.449.075.671.05.223.13.427.239.612.11.186.255.333.439.443.182.11.406.164.671.164.232,0,.446-.068.642-.203s.367-.287.512-.453v-1.672c0-.265-.041-.507-.124-.726-.083-.219-.214-.394-.394-.527-.179-.133-.414-.199-.706-.199Z"/>
      <path d="M92.457,9.776c-.485,0-.891-.121-1.219-.363-.329-.242-.574-.559-.737-.95s-.244-.81-.244-1.254c0-.332.05-.654.149-.97.1-.315.246-.597.439-.845.192-.249.429-.446.711-.592.282-.146.602-.219.96-.219.49,0,.9.12,1.229.358.328.239.574.554.736.945.163.392.244.813.244,1.263,0,.339-.049.666-.149.981-.099.315-.244.596-.432.841-.189.245-.425.441-.707.587-.282.146-.609.218-.98.218ZM92.467,9.15c.259,0,.475-.061.652-.184.175-.123.318-.284.428-.482.11-.199.187-.413.233-.642s.07-.45.07-.662c0-.218-.022-.442-.065-.672-.043-.228-.114-.441-.214-.636-.099-.196-.237-.355-.413-.478-.175-.123-.393-.184-.652-.184s-.476.061-.652.184-.317.283-.423.482-.182.413-.229.642-.069.449-.069.661c0,.206.023.424.069.652.046.229.121.443.224.642s.24.362.413.488c.173.126.382.189.627.189Z"/>
    </g>
  </g>
</svg>