<?xml version="1.0" encoding="UTF-8"?>
<svg id="Layer_1" xmlns="http://www.w3.org/2000/svg" width="1.389in" height=".556in" version="1.1" viewBox="0 0 100 40">
  <!-- Generator: Adobe Illustrator 29.4.0, SVG Export Plug-In . SVG Version: 2.1.0 Build 152)  -->
  <g>
    <g>
      <path d="M44.798,36.366c-.217,0-.325,0-.542-.108-.325-.217-.542-.542-.542-.975v-14.849c0-.434.217-.759.542-.975.325-.217.759-.108,1.084,0l10.405,7.37c.325.217.434.542.434.867s-.217.65-.434.867l-10.405,7.478c-.217.108-.434.217-.65.217l.108.108ZM45.881,22.493v10.622l7.478-5.311-7.478-5.311Z"/>
      <path d="M55.202,36.366c-.65,0-1.084-.434-1.084-1.084v-14.849c0-.65.434-1.084,1.084-1.084s1.084.434,1.084,1.084v6.286h38.259c.65,0,1.084.434,1.084,1.084s-.434,1.084-1.084,1.084h-38.259v6.286c0,.65-.434,1.084-1.084,1.084v.108ZM44.798,28.887H5.454c-.65,0-1.084-.434-1.084-1.084s.434-1.084,1.084-1.084h39.343c.65,0,1.084.434,1.084,1.084s-.434,1.084-1.084,1.084Z"/>
    </g>
    <g>
      <path d="M52.276,17.724c-.217,0-.325,0-.542-.108-.542-.325-.65-.975-.434-1.517l4.444-7.804c.325-.542.975-.65,1.517-.434.542.325.65.975.434,1.517l-4.444,7.804c-.217.325-.542.542-.975.542Z"/>
      <path d="M54.661,7.644l4.986-4.01-.867,6.286-4.119-2.384v.108Z"/>
      <path d="M45.556,17.724c-.217,0-.325,0-.542-.108-.542-.325-.65-.975-.434-1.517l4.444-7.804c.325-.542.975-.65,1.517-.434.542.325.65.975.434,1.517l-4.444,7.804c-.217.325-.542.542-.975.542Z"/>
      <path d="M47.941,7.644l4.986-4.01-.867,6.286-4.119-2.384v.108Z"/>
    </g>
  </g>
  <g>
    <g>
      <path d="M4.859,17.115l2.792,8.066h-1.141l-.931-2.77h-2.659l-.942,2.77h-.931l2.803-8.066h1.008ZM4.261,18.466l-1.086,3.191h2.149l-1.063-3.191ZM4.992,15.154h1.352l-1.551,1.451h-.864l1.063-1.451Z"/>
      <path d="M9.368,19.585c.052.126.096.255.133.388.037.133.062.266.077.399.222-.222.484-.416.787-.582.303-.166.613-.25.931-.25.406,0,.733.085.98.255.247.17.426.401.537.692.111.292.167.63.167,1.014v3.679h-.909v-3.379c0-.229-.017-.455-.05-.677-.033-.221-.115-.404-.244-.548-.129-.144-.342-.216-.637-.216-.177,0-.358.035-.543.105s-.358.161-.521.271c-.163.111-.311.229-.443.354v4.089h-.909v-3.9c0-.147-.011-.319-.033-.515-.022-.196-.059-.388-.111-.576s-.125-.345-.222-.471l1.008-.133Z"/>
      <path d="M16.836,25.324c-.539,0-.992-.135-1.357-.404-.365-.27-.639-.622-.82-1.058s-.271-.901-.271-1.396c0-.369.056-.729.167-1.08.111-.351.273-.665.487-.941.214-.277.478-.497.792-.659.313-.163.67-.244,1.069-.244.546,0,1.003.133,1.369.399.365.266.639.617.82,1.053.181.436.271.905.271,1.407,0,.377-.056.741-.167,1.092s-.271.663-.482.937c-.21.272-.473.491-.787.653s-.678.243-1.091.243ZM16.847,24.627c.288,0,.53-.068.726-.205s.354-.316.477-.537c.122-.222.208-.46.26-.715s.078-.501.078-.737c0-.243-.024-.493-.072-.747-.048-.255-.127-.491-.238-.709-.11-.218-.264-.395-.459-.532-.196-.137-.438-.205-.726-.205s-.53.068-.726.205-.353.315-.471.537-.203.46-.255.715-.078.5-.078.736c0,.229.026.472.078.726.052.255.135.493.25.715.114.222.268.403.459.543.192.141.425.211.698.211Z"/>
      <path d="M22.807,19.552c.251,0,.502.041.753.122.251.081.469.207.654.376-.007-.103-.013-.205-.017-.305s-.005-.197-.005-.293v-2.061l-.155-.653h1.063v6.858c0,.154.011.328.033.521.022.192.059.379.111.56s.118.342.2.481l-.975.122c-.052-.125-.096-.251-.133-.377-.037-.125-.063-.251-.078-.376-.192.251-.432.446-.72.587s-.591.21-.909.21c-.384,0-.72-.081-1.008-.243-.288-.162-.526-.383-.715-.659-.188-.277-.329-.584-.421-.92-.093-.336-.139-.678-.139-1.024,0-.377.05-.74.149-1.092.1-.351.251-.663.455-.936.203-.273.459-.491.77-.654.31-.162.672-.244,1.085-.244ZM22.83,20.306c-.288,0-.53.063-.726.188-.196.125-.351.292-.465.499-.115.207-.196.434-.244.681-.048.248-.072.493-.072.737,0,.251.028.5.083.747.056.248.144.476.266.682.122.207.284.371.487.493s.452.183.748.183c.258,0,.497-.075.714-.227s.408-.319.571-.505v-1.861c0-.295-.046-.564-.139-.809-.092-.244-.238-.439-.438-.587-.2-.148-.462-.222-.787-.222Z"/>
      <path d="M28.968,25.324c-.539,0-.992-.135-1.357-.404-.365-.27-.639-.622-.82-1.058s-.271-.901-.271-1.396c0-.369.056-.729.167-1.08.111-.351.273-.665.487-.941.214-.277.478-.497.792-.659.313-.163.67-.244,1.069-.244.546,0,1.003.133,1.369.399.365.266.639.617.82,1.053.181.436.271.905.271,1.407,0,.377-.056.741-.167,1.092s-.271.663-.482.937c-.21.272-.473.491-.787.653s-.678.243-1.091.243ZM28.979,24.627c.288,0,.53-.068.726-.205s.354-.316.477-.537c.122-.222.208-.46.26-.715s.078-.501.078-.737c0-.243-.024-.493-.072-.747-.048-.255-.127-.491-.238-.709-.11-.218-.264-.395-.459-.532-.196-.137-.438-.205-.726-.205s-.53.068-.726.205-.353.315-.471.537-.203.46-.255.715-.078.5-.078.736c0,.229.026.472.078.726.052.255.135.493.25.715.114.222.268.403.459.543.192.141.425.211.698.211Z"/>
    </g>
    <g>
      <path d="M69.416,25.086c-.636,0-1.185-.11-1.646-.332-.462-.222-.844-.522-1.146-.903-.304-.38-.526-.811-.671-1.291-.144-.479-.216-.975-.216-1.484,0-.554.081-1.087.243-1.601.163-.513.401-.973.715-1.379.314-.406.707-.727,1.181-.964.472-.236,1.019-.354,1.64-.354.258,0,.541.032.848.094.306.063.6.157.881.283.28.125.509.292.687.499l-.576.643c-.141-.163-.317-.297-.532-.404-.214-.107-.438-.19-.67-.25s-.452-.088-.659-.088c-.429,0-.806.098-1.13.293-.325.196-.599.46-.82.792-.222.333-.39.706-.504,1.119s-.172.835-.172,1.263c0,.665.107,1.239.321,1.724.214.483.517.856.908,1.118.392.263.854.394,1.386.394.31,0,.646-.044,1.008-.133s.735-.229,1.119-.421l.344.632c-.163.118-.35.224-.56.315-.211.093-.433.172-.665.238s-.462.116-.687.149c-.226.033-.435.05-.626.05Z"/>
      <path d="M74.943,19.313c.584,0,1.023.159,1.318.477.296.318.443.765.443,1.341v2.759c0,.155.029.26.089.315s.129.083.211.083c.066,0,.136-.009.21-.027s.145-.043.211-.072l.199.599c-.118.066-.268.127-.449.183-.181.056-.367.083-.559.083-.192,0-.366-.054-.521-.16-.155-.107-.251-.305-.288-.593-.214.229-.465.415-.753.56-.288.144-.591.216-.908.216-.437,0-.798-.129-1.086-.388s-.433-.613-.433-1.063c0-.422.102-.758.305-1.009s.467-.439.792-.564c.325-.126.671-.211,1.036-.256.366-.044.707-.066,1.025-.066v-.587c0-.207-.026-.393-.078-.56-.052-.166-.144-.299-.276-.398-.134-.1-.321-.15-.565-.15-.281,0-.551.056-.809.167-.259.111-.518.273-.775.487l-.455-.654c.303-.244.636-.424.997-.543.362-.118.735-.177,1.119-.177ZM75.786,22.449c-.2,0-.425.01-.676.027-.252.019-.495.063-.731.133-.236.07-.431.184-.582.338-.151.155-.227.37-.227.644,0,.243.083.423.249.537s.375.172.626.172c.266,0,.498-.074.698-.222.199-.147.355-.336.471-.565.114-.229.172-.465.172-.709v-.354ZM75.42,16.832h1.352l-1.551,1.684h-.864l1.063-1.684Z"/>
      <path d="M79.797,17.874c-.052.251-.098.511-.139.781-.04.27-.068.534-.083.792h1.44l-.188.698h-1.252v3.523c0,.141.017.264.05.371s.093.188.178.244c.085.055.205.083.359.083.118,0,.236-.012.354-.033.118-.022.233-.048.344-.078l.155.621c-.185.052-.36.098-.526.138-.166.041-.356.062-.57.062-.473,0-.802-.126-.986-.377s-.277-.602-.277-1.053v-3.501h-.819v-.554c.222-.007.406-.066.554-.177s.27-.253.366-.427c.096-.173.173-.358.232-.554.059-.195.104-.382.133-.559h.676Z"/>
      <path d="M84.008,25.097c-.54,0-.992-.135-1.357-.404-.366-.27-.64-.622-.82-1.058s-.271-.901-.271-1.396c0-.369.056-.729.166-1.08.111-.351.273-.665.488-.941.214-.277.478-.497.792-.659.313-.163.67-.244,1.069-.244.546,0,1.002.133,1.368.399.365.266.639.617.819,1.053.182.436.271.905.271,1.407,0,.377-.055.741-.166,1.092-.11.351-.271.663-.481.937-.211.272-.474.491-.787.653-.314.162-.678.243-1.091.243ZM84.019,24.399c.288,0,.529-.068.726-.205.195-.137.354-.316.477-.537.122-.222.208-.46.26-.715s.078-.501.078-.737c0-.243-.024-.492-.072-.748-.048-.254-.127-.491-.238-.708-.11-.218-.264-.395-.46-.532-.195-.137-.438-.205-.726-.205s-.53.068-.726.205-.353.315-.471.537-.203.46-.255.715-.077.5-.077.736c0,.229.025.472.077.726.052.255.135.493.249.715s.268.403.46.543c.192.141.425.211.698.211Z"/>
      <path d="M89.979,19.325c.251,0,.502.041.754.122.251.081.469.207.653.376-.008-.103-.013-.205-.017-.305s-.006-.197-.006-.293v-2.061l-.154-.653h1.063v6.858c0,.154.011.328.033.521.021.192.059.379.11.56s.118.342.199.481l-.975.122c-.052-.125-.096-.251-.133-.377-.037-.125-.062-.251-.078-.376-.191.251-.432.446-.72.587s-.591.21-.908.21c-.385,0-.721-.081-1.009-.243s-.526-.383-.715-.659c-.188-.277-.328-.584-.421-.92-.092-.336-.138-.678-.138-1.024,0-.377.05-.74.149-1.092.1-.351.251-.663.454-.936.203-.273.46-.491.77-.654.311-.162.673-.244,1.086-.244ZM90.001,20.078c-.288,0-.53.063-.726.188-.196.125-.352.292-.466.499-.114.207-.195.434-.243.681-.049.247-.072.493-.072.737,0,.251.027.5.083.747.056.248.145.476.266.682.122.207.284.371.488.493.202.122.452.183.747.183.259,0,.497-.075.715-.227s.408-.319.57-.505v-1.861c0-.295-.046-.564-.138-.809-.093-.244-.238-.439-.438-.587-.199-.148-.461-.222-.786-.222Z"/>
      <path d="M96.14,25.097c-.54,0-.992-.135-1.357-.404-.366-.27-.64-.622-.82-1.058s-.271-.901-.271-1.396c0-.369.056-.729.166-1.08.111-.351.273-.665.488-.941.214-.277.478-.497.792-.659.313-.163.67-.244,1.069-.244.546,0,1.002.133,1.368.399.365.266.639.617.819,1.053.182.436.271.905.271,1.407,0,.377-.055.741-.166,1.092-.11.351-.271.663-.481.937-.211.272-.474.491-.787.653-.314.162-.678.243-1.091.243ZM96.15,24.399c.288,0,.529-.068.726-.205.195-.137.354-.316.477-.537.122-.222.208-.46.26-.715s.078-.501.078-.737c0-.243-.024-.492-.072-.748-.048-.254-.127-.491-.238-.708-.11-.218-.264-.395-.46-.532-.195-.137-.438-.205-.726-.205s-.53.068-.726.205-.353.315-.471.537-.203.46-.255.715-.077.5-.077.736c0,.229.025.472.077.726.052.255.135.493.249.715s.268.403.46.543c.192.141.425.211.698.211Z"/>
    </g>
  </g>
</svg>