<?xml version="1.0" encoding="UTF-8"?>
<svg id="Layer_1" xmlns="http://www.w3.org/2000/svg" version="1.1" viewBox="0 0 100 40" width="100" height="40">
  <g>
    <path d="M42.7,35.1c-.2,0-.3,0-.5-.1-.3-.2-.5-.5-.5-.9v-13.7c0-.4.2-.7.5-.9.3-.2.7-.1,1,0l9.6,6.8c.3.2.4.5.4.8s-.2.6-.4.8l-9.6,6.9c-.2.1-.4.2-.6.2ZM43.7,22.3v9.8l6.9-4.9-6.9-4.9Z"/>
    <path d="M52.3,35.1c-.6,0-1-.4-1-1v-13.7c0-.6.4-1,1-1s1,.4,1,1v5.8h35.3c.6,0,1,.4,1,1s-.4,1-1,1h-35.3v5.8c0,.6-.4,1-1,1ZM42.7,28.2H6.4c-.6,0-1-.4-1-1s.4-1,1-1h36.3c.6,0,1,.4,1,1s-.4,1-1,1Z"/>
  </g>
  <g>
    <path d="M49.6,17.9c-.2,0-.3,0-.5-.1-.5-.3-.6-.9-.4-1.4l4.1-7.2c.3-.5.9-.6,1.4-.4.5.3.6.9.4,1.4l-4.1,7.2c-.2.3-.5.5-.9.5Z"/>
    <path d="M51.8,8.6l4.6-3.7-.8,5.8-3.8-2.2Z"/>
    <path d="M43.4,17.9c-.2,0-.3,0-.5-.1-.5-.3-.6-.9-.4-1.4l4.1-7.2c.3-.5.9-.6,1.4-.4.5.3.6.9.4,1.4l-4.1,7.2c-.2.3-.5.5-.9.5Z"/>
    <path d="M45.6,8.6l4.6-3.7-.8,5.8-3.8-2.2Z"/>
  </g>
  <g>
    <g>
      <path id="DejaVuSans-41" d="M4.8,18.4l-1.2,3.3h2.4l-1.2-3.3ZM4.3,17.5h1l2.5,6.6h-.9l-.6-1.7h-3l-.6,1.7h-.9l2.5-6.6Z"/>
      <path id="DejaVuSans-6e" d="M12.9,21.1v3h-.8v-3c0-.5,0-.8-.3-1-.2-.2-.5-.3-.8-.3s-.8.1-1,.4c-.3.3-.4.7-.4,1.1v2.8h-.8v-4.9h.8v.8c.2-.3.4-.5.7-.7.3-.1.6-.2.9-.2.6,0,1,.2,1.3.5.3.4.4.9.4,1.5Z"/>
      <path id="DejaVuSans-6f" d="M16.4,19.7c-.4,0-.8.2-1,.5s-.4.8-.4,1.4.1,1.1.4,1.4c.3.3.6.5,1,.5s.8-.2,1-.5c.3-.3.4-.8.4-1.4s-.1-1-.4-1.4c-.3-.3-.6-.5-1-.5ZM16.4,19.1c.7,0,1.3.2,1.7.7.4.5.6,1.1.6,1.9s-.2,1.4-.6,1.9c-.4.5-1,.7-1.7.7s-1.3-.2-1.7-.7c-.4-.5-.6-1.1-.6-1.9s.2-1.4.6-1.9c.4-.5,1-.7,1.7-.7Z"/>
      <path id="DejaVuSans-64" d="M23.3,19.9v-2.7h.8v6.9h-.8v-.7c-.2.3-.4.5-.6.7-.3.1-.6.2-.9.2-.6,0-1.1-.2-1.5-.7-.4-.5-.6-1.1-.6-1.9s.2-1.4.6-1.9c.4-.5.9-.7,1.5-.7s.7,0,.9.2c.3.1.5.4.6.7ZM20.5,21.6c0,.6.1,1.1.4,1.4.2.3.6.5,1,.5s.8-.2,1-.5c.2-.3.4-.8.4-1.4s-.1-1.1-.4-1.4c-.2-.3-.6-.5-1-.5s-.8.2-1,.5-.4.8-.4,1.4Z"/>
      <path id="DejaVuSans-65" d="M30,21.4v.4h-3.7c0,.6.2,1,.5,1.3.3.3.7.4,1.3.4s.6,0,.9-.1.6-.2.9-.3v.8c-.3.1-.6.2-.9.3s-.6,0-.9,0c-.8,0-1.4-.2-1.9-.7-.5-.5-.7-1.1-.7-1.9s.2-1.4.7-1.9c.4-.5,1-.7,1.8-.7s1.2.2,1.6.6c.4.4.6,1,.6,1.7ZM29.2,21.2c0-.4-.1-.8-.4-1.1-.2-.3-.6-.4-1-.4s-.8.1-1.1.4-.4.6-.5,1.1h2.9Z"/>
    </g>
    <g>
      <path id="DejaVuSans-43" d="M66.6,18v.9c-.3-.3-.6-.5-1-.6-.3-.1-.7-.2-1.1-.2-.8,0-1.3.2-1.7.7s-.6,1.1-.6,2,.2,1.5.6,2,1,.7,1.7.7.7,0,1.1-.2.7-.3,1-.6v.9c-.3.2-.6.4-1,.5-.3.1-.7.2-1.1.2-1,0-1.8-.3-2.4-.9-.6-.6-.9-1.4-.9-2.5s.3-1.9.9-2.5c.6-.6,1.4-.9,2.4-.9s.8,0,1.1.2c.3.1.7.3,1,.5Z"/>
      <path id="DejaVuSans-61" d="M70.2,21.6c-.7,0-1.1,0-1.4.2s-.4.4-.4.8,0,.5.3.7c.2.2.4.3.8.3s.8-.2,1.1-.5.4-.7.4-1.3v-.2h-.8ZM71.8,21.3v2.8h-.8v-.7c-.2.3-.4.5-.7.7-.3.1-.6.2-1,.2s-.9-.1-1.2-.4c-.3-.3-.4-.7-.4-1.1s.2-1,.6-1.3c.4-.3.9-.4,1.7-.4h1.1c0-.5-.1-.7-.4-.9s-.6-.3-1-.3-.6,0-.8.1c-.3,0-.5.2-.8.3v-.8c.3-.1.6-.2.9-.3.3,0,.6,0,.8,0,.7,0,1.2.2,1.6.6.4.4.5.9.5,1.7Z"/>
      <path id="DejaVuSans-74" d="M74.3,17.8v1.4h1.7v.6h-1.7v2.7c0,.4,0,.7.2.8s.3.2.7.2h.8v.7h-.8c-.6,0-1.1-.1-1.3-.3-.2-.2-.4-.7-.4-1.3v-2.7h-.6v-.6h.6v-1.4h.8Z"/>
      <path id="DejaVuSans-68" d="M81.1,21.1v3h-.8v-3c0-.5,0-.8-.3-1-.2-.2-.5-.3-.8-.3s-.8.1-1,.4c-.3.3-.4.7-.4,1.1v2.8h-.8v-6.9h.8v2.7c.2-.3.4-.5.7-.7.3-.1.6-.2.9-.2.6,0,1,.2,1.3.5.3.4.4.9.4,1.5Z"/>
      <path id="DejaVuSans-6f1" data-name="DejaVuSans-6f" d="M84.6,19.7c-.4,0-.8.2-1,.5s-.4.8-.4,1.4.1,1.1.4,1.4c.3.3.6.5,1,.5s.8-.2,1-.5c.3-.3.4-.8.4-1.4s-.1-1-.4-1.4c-.3-.3-.6-.5-1-.5ZM84.6,19.1c.7,0,1.3.2,1.7.7.4.5.6,1.1.6,1.9s-.2,1.4-.6,1.9c-.4.5-1,.7-1.7.7s-1.3-.2-1.7-.7c-.4-.5-.6-1.1-.6-1.9s.2-1.4.6-1.9c.4-.5,1-.7,1.7-.7Z"/>
      <path id="DejaVuSans-641" data-name="DejaVuSans-64" d="M91.5,19.9v-2.7h.8v6.9h-.8v-.7c-.2.3-.4.5-.6.7-.3.1-.6.2-.9.2-.6,0-1.1-.2-1.5-.7-.4-.5-.6-1.1-.6-1.9s.2-1.4.6-1.9c.4-.5.9-.7,1.5-.7s.7,0,.9.2c.3.1.5.4.6.7ZM88.7,21.6c0,.6.1,1.1.4,1.4.2.3.6.5,1,.5s.8-.2,1-.5c.2-.3.4-.8.4-1.4s-.1-1.1-.4-1.4c-.2-.3-.6-.5-1-.5s-.8.2-1,.5-.4.8-.4,1.4Z"/>
      <path id="DejaVuSans-651" data-name="DejaVuSans-65" d="M98.2,21.4v.4h-3.7c0,.6.2,1,.5,1.3.3.3.7.4,1.3.4s.6,0,.9-.1.6-.2.9-.3v.8c-.3.1-.6.2-.9.3s-.6,0-.9,0c-.8,0-1.4-.2-1.9-.7-.5-.5-.7-1.1-.7-1.9s.2-1.4.7-1.9c.4-.5,1-.7,1.8-.7s1.2.2,1.6.6c.4.4.6,1,.6,1.7ZM97.4,21.2c0-.4-.1-.8-.4-1.1-.2-.3-.6-.4-1-.4s-.8.1-1.1.4-.4.6-.5,1.1h2.9Z"/>
    </g>
  </g>
</svg>