<?xml version="1.0" encoding="UTF-8"?>
<svg id="Layer_1" xmlns="http://www.w3.org/2000/svg" width="1.389in" height="1.764in" version="1.1" viewBox="0 0 100 127">
  <!-- Generator: Adobe Illustrator 29.4.0, SVG Export Plug-In . SVG Version: 2.1.0 Build 152)  -->
  <defs>
    <style>
      .st0 {
        fill: #fff;
      }
    </style>
  </defs>
  <g>
    <path d="M96.9,115.9H3.1c-.552,0-1-.447-1-1V35.7c0-.552.448-1,1-1h93.8c.553,0,1,.448,1,1v79.2c0,.553-.447,1-1,1ZM4.1,113.9h91.8V36.7H4.1v77.2Z"/>
    <path d="M15.541,63.999l-.082-1.998c3.675-.151,5.312-2.725,5.303-5.208-.008-2.495-1.649-5.068-5.296-5.193l.068-1.999c4.729.162,7.216,3.737,7.228,7.185.012,3.331-2.243,7.009-7.221,7.213Z"/>
    <path d="M15.54,76.399l-.08-1.998c3.669-.147,5.306-2.721,5.3-5.207-.006-2.492-1.646-5.065-5.296-5.195l.071-1.999c4.953.176,7.217,3.85,7.225,7.189.007,3.333-2.249,7.011-7.22,7.21Z"/>
    <path d="M15.54,88.699l-.08-1.998c3.669-.146,5.306-2.721,5.3-5.206-.005-2.492-1.645-5.065-5.296-5.196l.071-1.998c4.954.176,7.217,3.851,7.225,7.19.007,3.332-2.249,7.01-7.22,7.208Z"/>
    <path d="M15.54,101.099l-.08-1.998c3.669-.146,5.306-2.721,5.3-5.206-.005-2.492-1.645-5.065-5.296-5.195l.071-1.998c4.953.176,7.217,3.85,7.225,7.188.007,3.333-2.249,7.011-7.22,7.209Z"/>
    <path d="M15.5,51.6c-.552,0-1-.448-1-1v-24.7c0-.552.448-1,1-1s1,.448,1,1v24.7c0,.552-.448,1-1,1Z"/>
    <path d="M15.5,125.8c-.552,0-1-.447-1-1v-24.7c0-.553.448-1,1-1s1,.447,1,1v24.7c0,.553-.448,1-1,1Z"/>
    <path d="M29.1,101.1c-.552,0-1-.447-1-1v-49.5c0-.552.448-1,1-1s1,.448,1,1v49.5c0,.553-.448,1-1,1Z"/>
    <path d="M62.2,51.6c-.553,0-1-.448-1-1v-24.7c0-.552.447-1,1-1s1,.448,1,1v24.7c0,.552-.447,1-1,1Z"/>
    <path d="M84.501,91.2c-.334,0-.659-.167-.85-.471l-17.3-27.7c-.292-.468-.149-1.085.319-1.378.467-.293,1.085-.149,1.378.318l17.3,27.701c.292.468.149,1.085-.319,1.378-.164.103-.348.151-.528.151Z"/>
    <path d="M62.2,125.8c-.553,0-1-.447-1-1v-24.7c0-.553.447-1,1-1s1,.447,1,1v24.7c0,.553-.447,1-1,1Z"/>
    <path d="M53.6,76.3h-.8v-2h.8v2ZM49.5,76.3h-2v-2h2v2ZM44.2,76.3h-2v-2h2v2ZM38.9,76.3h-2v-2h2v2ZM33.6,76.3h-2v-2h2v2Z"/>
    <g>
      <path class="st0" d="M62.2,62.5c1.6,0,3.1-.6,4.2-1.7s1.7-2.6,1.7-4.2-.6-3.1-1.7-4.2-2.6-1.7-4.2-1.7-3.1.6-4.2,1.7-1.7,2.6-1.7,4.2.6,3.1,1.7,4.2,2.6,1.7,4.2,1.7Z"/>
      <path d="M62.2,63.5c-1.88,0-3.623-.708-4.907-1.993-1.285-1.285-1.993-3.028-1.993-4.907s.708-3.622,1.993-4.907c1.284-1.285,3.027-1.993,4.907-1.993s3.622.708,4.907,1.993,1.992,3.028,1.992,4.907-.707,3.622-1.992,4.907c-1.286,1.285-3.028,1.993-4.907,1.993ZM62.2,51.7c-1.346,0-2.586.5-3.493,1.407-.907.908-1.407,2.148-1.407,3.493s.5,2.585,1.407,3.493,2.147,1.407,3.493,1.407,2.585-.5,3.493-1.407c.907-.907,1.406-2.147,1.406-3.493s-.499-2.586-1.406-3.493-2.148-1.407-3.493-1.407Z"/>
    </g>
    <g>
      <path class="st0" d="M62.2,100.1c1.6,0,3.1-.6,4.2-1.7s1.7-2.6,1.7-4.2-.6-3.1-1.7-4.2-2.6-1.7-4.2-1.7-3.1.6-4.2,1.7c-1.1,1.1-1.7,2.6-1.7,4.2s.6,3.1,1.7,4.2c1.1,1.1,2.6,1.7,4.2,1.7Z"/>
      <path d="M62.2,101.1c-1.88,0-3.623-.707-4.907-1.992-1.285-1.286-1.993-3.029-1.993-4.907s.708-3.622,1.993-4.907,3.028-1.993,4.907-1.993,3.621.708,4.907,1.993c1.285,1.284,1.992,3.027,1.992,4.907s-.707,3.621-1.992,4.907c-1.286,1.285-3.028,1.992-4.907,1.992ZM62.2,89.3c-1.345,0-2.586.5-3.493,1.407s-1.407,2.148-1.407,3.493.5,2.585,1.407,3.493c.907.907,2.147,1.406,3.493,1.406s2.586-.5,3.493-1.406c.906-.907,1.406-2.148,1.406-3.493s-.499-2.586-1.406-3.493c-.908-.907-2.149-1.407-3.493-1.407Z"/>
    </g>
  </g>
  <g>
    <path d="M30.733,3.845h5.028c1.066,0,2.031.135,2.896.405.865.271,1.548.746,2.051,1.425.502.68.753,1.622.753,2.827,0,.618-.147,1.213-.44,1.784-.293.572-.683,1.07-1.17,1.495s-1.023.73-1.61.915l4.727,8.018h-2.502l-4.356-7.577h-2.896v7.577h-2.155V5.374l-.325-1.529ZM33.213,5.443v6.117h1.854c.772,0,1.472-.089,2.097-.267.625-.177,1.124-.498,1.495-.961s.556-1.12.556-1.97c0-.664-.162-1.208-.487-1.633-.324-.425-.749-.745-1.274-.962-.525-.216-1.089-.324-1.691-.324h-2.549Z"/>
    <path d="M48.459,8.919c.927,0,1.707.189,2.34.568.634.379,1.108.904,1.425,1.576s.475,1.456.475,2.352c0,.216-.011.437-.034.66-.022.224-.05.46-.081.707h-7.322c0,1.468.324,2.604.973,3.406.649.804,1.514,1.205,2.595,1.205.448,0,.916-.069,1.402-.208.487-.139.993-.348,1.518-.625l.719,1.158c-.541.433-1.151.757-1.831.974-.68.216-1.367.324-2.062.324-.912,0-1.703-.166-2.375-.498s-1.228-.78-1.668-1.344c-.44-.563-.769-1.201-.985-1.912-.216-.71-.324-1.437-.324-2.178,0-.772.108-1.521.324-2.248.216-.726.545-1.386.985-1.981.44-.595.985-1.066,1.634-1.414s1.414-.521,2.294-.521ZM48.274,10.379c-.525,0-.989.147-1.39.44-.402.293-.726.668-.973,1.124-.248.456-.417.923-.51,1.402h5.283c.015-.649-.074-1.193-.267-1.633-.193-.44-.472-.772-.834-.997-.363-.224-.8-.336-1.31-.336Z"/>
    <path d="M57.52,3.057v17.657h-1.924V4.4l-.301-1.344h2.225Z"/>
    <path d="M65.721,8.919c.928,0,1.707.189,2.342.568.633.379,1.107.904,1.424,1.576s.477,1.456.477,2.352c0,.216-.012.437-.035.66-.023.224-.051.46-.082.707h-7.322c0,1.468.324,2.604.975,3.406.648.804,1.514,1.205,2.594,1.205.449,0,.916-.069,1.402-.208s.992-.348,1.518-.625l.719,1.158c-.541.433-1.15.757-1.83.974-.68.216-1.367.324-2.062.324-.912,0-1.703-.166-2.375-.498s-1.229-.78-1.668-1.344c-.441-.563-.77-1.201-.986-1.912-.217-.71-.324-1.437-.324-2.178,0-.772.107-1.521.324-2.248.217-.726.545-1.386.986-1.981.439-.595.984-1.066,1.633-1.414s1.414-.521,2.293-.521ZM65.537,10.379c-.525,0-.99.147-1.391.44-.402.293-.727.668-.975,1.124-.246.456-.416.923-.51,1.402h5.283c.016-.649-.072-1.193-.266-1.633-.193-.44-.471-.772-.834-.997-.363-.224-.799-.336-1.309-.336ZM66.881,3.729h2.826l-3.244,3.522h-1.807l2.225-3.522Z"/>
  </g>
</svg>