<svg xmlns="http://www.w3.org/2000/svg" id="Layer_1" width="100" height="72" version="1.1"><defs><style>.st0,.st1{fill:none;stroke:#000;stroke-width:2px}.st0{stroke-miterlimit:4}.st1{stroke-linecap:round;stroke-linejoin:round}</style></defs><path id="line2d_1" d="M46.8 18v51.4" class="st1"/><path id="line2d_2" d="M53.2 18v51.4" class="st1"/><path id="patch_2" d="M33.9 30.8c3.5 0 6.4-2.9 6.4-6.4S37.4 18 33.9 18" class="st0"/><path id="patch_3" d="M33.9 43.7c3.5 0 6.4-2.9 6.4-6.4s-2.9-6.4-6.4-6.4" class="st0"/><path id="patch_4" d="M33.9 56.5c3.5 0 6.4-2.9 6.4-6.4s-2.9-6.4-6.4-6.4" class="st0"/><path id="patch_5" d="M33.9 69.4c3.5 0 6.4-2.9 6.4-6.4s-2.9-6.4-6.4-6.4" class="st0"/><path id="line2d_3" d="M33.9 18H1.8" class="st1"/><path id="line2d_4" d="M33.9 69.4H1.8" class="st1"/><path id="patch_6" d="M66.1 18c-3.5 0-6.4 2.9-6.4 6.4s2.9 6.4 6.4 6.4" class="st0"/><path id="patch_7" d="M66.1 30.8c-3.5 0-6.4 2.9-6.4 6.4s2.9 6.4 6.4 6.4" class="st0"/><path id="patch_8" d="M66.1 43.7c-3.5 0-6.4 2.9-6.4 6.4s2.9 6.4 6.4 6.4" class="st0"/><path id="patch_9" d="M66.1 56.5c-3.5 0-6.4 2.9-6.4 6.4s2.9 6.4 6.4 6.4" class="st0"/><path id="line2d_5" d="M66.1 18h32.1" class="st1"/><path id="line2d_6" d="M66.1 69.4h32.1" class="st1"/><path id="DejaVuSans-54" d="M12.3 3H20v1h-3.2v8.1h-1.2v-8h-3.3v-1Z"/><path id="DejaVuSans-72" d="M23.3 6.4c-.1 0-.3-.1-.4-.2h-.5q-.9 0-1.5.6c-.6.6-.5 1-.5 1.8v3.6h-1.1V5.3h1.1v1.1q.3-.6.9-.9c.4-.2.8-.3 1.4-.3h.6z"/><path id="DejaVuSans-61" d="M27.6 8.7c-.9 0-1.5.1-1.9.3s-.5.6-.5 1.1.1.7.4 1c.3.2.6.4 1.1.4s1.1-.2 1.5-.7.6-1 .6-1.8v-.3h-1.1Zm2.3-.4v3.9h-1.1v-1c-.3.4-.6.7-1 .9s-.9.3-1.4.3-1.3-.2-1.7-.6-.6-.9-.6-1.6.3-1.4.8-1.7c.5-.4 1.3-.6 2.3-.6h1.6c0-.6-.2-1-.5-1.3s-.8-.4-1.4-.4-.8 0-1.1.1c-.4 0-.7.2-1.1.4v-1c.4-.2.8-.3 1.2-.4.4 0 .8-.1 1.1-.1 1 0 1.7.3 2.2.8s.7 1.3.7 2.3"/><path id="DejaVuSans-6e" d="M37.9 8v4.1h-1.1V8c0-.6-.1-1.1-.4-1.5-.3-.3-.6-.5-1.1-.5s-1.1.2-1.4.6c-.4.4-.5.9-.5 1.6v3.9h-1.1V5.2h1.1v1.1c.3-.4.6-.7 1-.9s.8-.3 1.3-.3c.8 0 1.4.2 1.8.7s.6 1.2.6 2.2"/><path id="DejaVuSans-73" d="M44.5 5.5v1.1c-.3-.2-.6-.3-1-.4-.3 0-.7-.1-1.1-.1-.6 0-1 0-1.3.3-.3.2-.4.4-.4.8s.1.5.3.6.6.3 1.2.4h.4c.8.3 1.4.5 1.7.8s.5.7.5 1.3-.3 1.1-.8 1.5q-.75.6-2.1.6c-1.35 0-.8 0-1.1-.1-.4 0-.8-.2-1.3-.3v-1.2c.4.2.8.4 1.2.5s.8.2 1.2.2.9 0 1.2-.3c.3-.2.4-.4.4-.8s-.1-.5-.3-.7-.7-.3-1.4-.5h-.4c-.7-.2-1.2-.5-1.5-.8s-.5-.7-.5-1.3.2-1.1.7-1.5 1.1-.5 1.9-.5h1.2c.4 0 .7.2 1 .3"/><path id="DejaVuSans-66" d="M50.2 2.6v.9h-1.1c-.4 0-.7 0-.8.2-.2.2-.2.5-.2.9v.6H50v.9h-1.9v6H47v-6h-1.1v-.9H47v-.5c0-.8.2-1.3.5-1.7.4-.4.9-.5 1.7-.5h1.1Z"/><path id="DejaVuSans-6f" d="M53.8 6.1c-.6 0-1.1.2-1.4.7s-.5 1.1-.5 1.9.2 1.5.5 1.9c.4.5.8.7 1.4.7s1.1-.2 1.4-.7c.4-.5.5-1.1.5-1.9s-.2-1.5-.5-1.9c-.4-.5-.8-.7-1.4-.7m0-1c1 0 1.8.3 2.3 1 .6.6.8 1.5.8 2.6s-.3 2-.8 2.6c-.6.6-1.3 1-2.3 1s-1.8-.3-2.3-1c-.6-.6-.8-1.5-.8-2.6s.3-2 .8-2.6c.6-.6 1.3-1 2.3-1"/><path id="DejaVuSans-721" d="M62.8 6.4c-.1 0-.3-.1-.4-.2h-.5q-.9 0-1.5.6c-.6.6-.5 1-.5 1.8v3.6h-1.1V5.3h1.1v1.1q.3-.6.9-.9c.4-.2.8-.3 1.4-.3h.6z" data-name="DejaVuSans-72"/><path id="DejaVuSans-6d" d="M69.1 6.6c.3-.5.6-.9 1-1.1s.9-.4 1.4-.4 1.3.3 1.7.8q.6.75.6 2.1v4.1h-1.1V8c0-.7-.1-1.1-.4-1.5-.2-.3-.6-.5-1.1-.5s-1 .2-1.4.6c-.3.4-.5.9-.5 1.6v3.9h-1.1V8q0-1.05-.3-1.5c-.3-.45-.6-.5-1.1-.5s-1 .2-1.4.6c-.3.4-.5.9-.5 1.6v3.9h-1.1V5.2h1.1v1.1q.45-.6.9-.9c.45-.3.8-.3 1.3-.3s.9.1 1.3.4c.3.3.6.6.8 1.1"/><path id="DejaVuSans-65" d="M81.8 8.5v.6h-5.2c0 .8.3 1.4.7 1.8s1 .6 1.7.6.9 0 1.3-.2.8-.3 1.2-.5v1.1c-.4.2-.8.3-1.2.4s-.9.1-1.3.1c-1.1 0-2-.3-2.6-1-.6-.6-1-1.5-1-2.6s.3-2 .9-2.7 1.4-1 2.5-1 1.7.3 2.2.9.8 1.4.8 2.4m-1.1-.3c0-.6-.2-1.1-.5-1.5s-.8-.6-1.3-.6-1.1.2-1.5.5-.6.9-.7 1.5h4Z"/><path id="DejaVuSans-722" d="M87.7 6.4c-.1 0-.3-.1-.4-.2h-.5q-.9 0-1.5.6c-.6.6-.5 1-.5 1.8v3.6h-1.1V5.3h1.1v1.1q.3-.6.9-.9c.4-.2.8-.3 1.4-.3h.6z" data-name="DejaVuSans-72"/><path id="DejaVuSans-49" d="M9.3 21.6h1.2v9.2H9.3z"/><path id="DejaVuSans-6e1" d="M18.7 26.6v4.1h-1.1v-4.1c0-.6-.1-1.1-.4-1.5-.3-.3-.6-.5-1.1-.5s-1.1.2-1.4.6c-.4.4-.5.9-.5 1.6v3.9h-1.1v-6.9h1.1v1.1c.3-.4.6-.7 1-.9s.8-.3 1.3-.3c.8 0 1.4.2 1.8.7s.6 1.2.6 2.2" data-name="DejaVuSans-6e"/><path id="DejaVuSans-31" d="M21.3 29.7h2v-7l-2.2.4V22l2.2-.4h1.2v8.1h2v1h-5.3v-1Z"/><path id="DejaVuSans-491" d="M9.3 54.4h1.2v9.2H9.3z" data-name="DejaVuSans-49"/><path id="DejaVuSans-6e2" d="M18.7 59.4v4.1h-1.1v-4.1c0-.6-.1-1.1-.4-1.5-.3-.3-.6-.5-1.1-.5s-1.1.2-1.4.6c-.4.4-.5.9-.5 1.6v3.9h-1.1v-6.9h1.1v1.1c.3-.4.6-.7 1-.9s.8-.3 1.3-.3c.8 0 1.4.2 1.8.7s.6 1.2.6 2.2" data-name="DejaVuSans-6e"/><path id="DejaVuSans-32" d="M22.1 62.5h4.3v1h-5.8v-1c.5-.5 1.1-1.1 1.9-2 .8-.8 1.3-1.3 1.5-1.6.4-.4.7-.8.8-1.1.2-.3.2-.6.2-.9 0-.5-.2-.9-.5-1.2s-.8-.5-1.3-.5-.8 0-1.2.2c-.4.1-.9.3-1.4.6v-1.3c.5-.2 1-.4 1.4-.5s.8-.2 1.2-.2c.9 0 1.7.2 2.3.7s.8 1.1.8 1.9 0 .7-.2 1.1c-.1.3-.4.7-.8 1.2-.1.1-.4.5-1 1-.5.6-1.3 1.4-2.3 2.4"/><path id="DejaVuSans-4f" d="M71.7 22.4c-.9 0-1.6.3-2.1 1s-.8 1.6-.8 2.7.3 2.1.8 2.7c.5.7 1.2 1 2.1 1s1.6-.3 2.1-1 .8-1.6.8-2.7-.3-2.1-.8-2.7c-.5-.7-1.2-1-2.1-1m0-1c1.3 0 2.3.4 3.1 1.3s1.2 2 1.2 3.5-.4 2.6-1.2 3.5S73 31 71.7 31s-2.3-.4-3.1-1.3-1.2-2-1.2-3.5.4-2.6 1.2-3.5 1.8-1.3 3.1-1.3"/><path id="DejaVuSans-75" d="M77.7 28v-4.2h1.1v4.1c0 .6.1 1.1.4 1.5.3.3.6.5 1.1.5s1.1-.2 1.4-.6c.4-.4.5-.9.5-1.6v-3.9h1.1v6.9h-1.1v-1.1c-.3.4-.6.7-1 .9s-.8.3-1.3.3c-.8 0-1.4-.2-1.8-.7s-.6-1.2-.6-2.2"/><path id="DejaVuSans-74" d="M86.9 21.9v1.9h2.3v.9h-2.3v3.7c0 .6 0 .9.2 1.1s.5.2.9.2h1.2v.9H88c-.9 0-1.5-.2-1.8-.5s-.5-.9-.5-1.8v-3.7h-.8v-.9h.8v-1.9h1.1Z"/><path id="DejaVuSans-311" d="M91.1 29.7h2v-7l-2.2.4V22l2.2-.4h1.2v8.1h2v1H91v-1Z" data-name="DejaVuSans-31"/><path id="DejaVuSans-4f1" d="M71.7 55.2c-.9 0-1.6.3-2.1 1s-.8 1.6-.8 2.7.3 2.1.8 2.7c.5.7 1.2 1 2.1 1s1.6-.3 2.1-1 .8-1.6.8-2.7-.3-2.1-.8-2.7c-.5-.7-1.2-1-2.1-1m0-1c1.3 0 2.3.4 3.1 1.3s1.2 2 1.2 3.5-.4 2.6-1.2 3.5-1.8 1.3-3.1 1.3-2.3-.4-3.1-1.3-1.2-2-1.2-3.5.4-2.6 1.2-3.5 1.8-1.3 3.1-1.3" data-name="DejaVuSans-4f"/><path id="DejaVuSans-751" d="M77.7 60.8v-4.2h1.1v4.1c0 .6.1 1.1.4 1.5.3.3.6.5 1.1.5s1.1-.2 1.4-.6c.4-.4.5-.9.5-1.6v-3.9h1.1v6.9h-1.1v-1.1c-.3.4-.6.7-1 .9s-.8.3-1.3.3c-.8 0-1.4-.2-1.8-.7s-.6-1.2-.6-2.2" data-name="DejaVuSans-75"/><path id="DejaVuSans-741" d="M86.9 54.7v1.9h2.3v.9h-2.3v3.7c0 .6 0 .9.2 1.1s.5.2.9.2h1.2v.9H88c-.9 0-1.5-.2-1.8-.5s-.5-.9-.5-1.8v-3.7h-.8v-.9h.8v-1.9h1.1Z" data-name="DejaVuSans-74"/><path id="DejaVuSans-321" d="M91.9 62.5h4.3v1h-5.8v-1c.5-.5 1.1-1.1 1.9-2 .8-.8 1.3-1.3 1.5-1.6.4-.4.7-.8.8-1.1.2-.3.2-.6.2-.9 0-.5-.2-.9-.5-1.2s-.8-.5-1.3-.5-.8 0-1.2.2c-.4.1-.9.3-1.4.6v-1.3c.5-.2 1-.4 1.4-.5s.8-.2 1.2-.2c.9 0 1.7.2 2.3.7s.8 1.1.8 1.9 0 .7-.2 1.1c-.1.3-.4.7-.8 1.2-.1.1-.4.5-1 1-.5.6-1.3 1.4-2.3 2.4" data-name="DejaVuSans-32"/></svg>