<?xml version="1.0" encoding="UTF-8"?>
<svg id="Layer_1" xmlns="http://www.w3.org/2000/svg" width="100" height="127" version="1.1" viewBox="0 0 100 127">
  <!-- Generator: Adobe Illustrator 29.4.0, SVG Export Plug-In . SVG Version: 2.1.0 Build 152)  -->
  <defs>
    <style>
      .st0, .st1, .st2 {
        fill: none;
      }

      .st0, .st1, .st2, .st3 {
        stroke: #000;
        stroke-width: 2px;
      }

      .st0, .st3 {
        stroke-miterlimit: 4;
      }

      .st1 {
        stroke-dasharray: 2 3.3;
      }

      .st1, .st2 {
        stroke-linejoin: round;
      }

      .st2 {
        stroke-linecap: round;
      }

      .st3 {
        fill: #fff;
      }
    </style>
  </defs>
  <g>
    <path class="st2" d="M3.1,114.9V35.7h93.8v79.2H3.1"/>
    <path class="st0" d="M15.5,50.6h.4s.4,0,.4,0h.4c0,0,.4.2.4.2h.4c0,.1.4.2.4.2l.4.2.4.2.3.2.3.2.3.2.3.3.3.3.3.3.2.3.2.3.2.3.2.4v.4c.1,0,.3.4.3.4v.4c.1,0,.2.4.2.4v.4c0,0,0,.4,0,.4v.8s0,.4,0,.4v.4c0,0-.2.4-.2.4v.4c-.1,0-.3.4-.3.4l-.2.4-.2.3-.2.3-.2.3-.3.3-.3.3-.3.3-.3.2-.3.2-.3.2-.4.2-.4.2h-.4c0,.1-.4.2-.4.2h-.4c0,0-.4.2-.4.2h-.4s-.4,0-.4,0"/>
    <path class="st0" d="M15.5,63h.4s.4,0,.4,0h.4c0,0,.4.2.4.2h.4c0,.1.4.2.4.2l.4.2.4.2.3.2.3.2.3.2.3.3.3.3.3.3.2.3.2.3.2.3.2.4v.4c.1,0,.3.4.3.4v.4c.1,0,.2.4.2.4v.4c0,0,0,.4,0,.4v.8s0,.4,0,.4v.4c0,0-.2.4-.2.4v.4c-.1,0-.3.4-.3.4l-.2.4-.2.3-.2.3-.2.3-.3.3-.3.3-.3.3-.3.2-.3.2-.3.2-.4.2-.4.2h-.4c0,.1-.4.2-.4.2h-.4c0,0-.4.2-.4.2h-.4s-.4,0-.4,0"/>
    <path class="st0" d="M15.5,75.3h.4s.4,0,.4,0h.4c0,0,.4.2.4.2h.4c0,.1.4.2.4.2l.4.2.4.2.3.2.3.2.3.2.3.3.3.3.3.3.2.3.2.3.2.3.2.4v.4c.1,0,.3.4.3.4v.4c.1,0,.2.4.2.4v.4c0,0,0,.4,0,.4v.8s0,.4,0,.4v.4c0,0-.2.4-.2.4v.4c-.1,0-.3.4-.3.4l-.2.4-.2.3-.2.3-.2.3-.3.3-.3.3-.3.3-.3.2-.3.2-.3.2-.4.2-.4.2h-.4c0,.1-.4.2-.4.2h-.4c0,0-.4.2-.4.2h-.4s-.4,0-.4,0"/>
    <path class="st0" d="M15.5,87.7h.4s.4,0,.4,0h.4c0,0,.4.2.4.2h.4c0,.1.4.2.4.2l.4.2.4.2.3.2.3.2.3.2.3.3.3.3.3.3.2.3.2.3.2.3.2.4v.4c.1,0,.3.4.3.4v.4c.1,0,.2.4.2.4v.4c0,0,0,.4,0,.4v.8s0,.4,0,.4v.4c0,0-.2.4-.2.4v.4c-.1,0-.3.4-.3.4l-.2.4-.2.3-.2.3-.2.3-.3.3-.3.3-.3.3-.3.2-.3.2-.3.2-.4.2-.4.2h-.4c0,.1-.4.2-.4.2h-.4c0,0-.4.2-.4.2h-.4s-.4,0-.4,0"/>
    <line class="st2" x1="15.5" y1="25.9" x2="15.5" y2="50.6"/>
    <line class="st2" x1="15.5" y1="100.1" x2="15.5" y2="124.8"/>
    <path class="st2" d="M29.1,50.6v49.5"/>
    <line class="st2" x1="62.2" y1="25.9" x2="62.2" y2="50.6"/>
    <line class="st2" x1="67.2" y1="62.5" x2="84.5" y2="90.2"/>
    <line class="st2" x1="62.2" y1="100.1" x2="62.2" y2="124.8"/>
    <path class="st1" d="M31.6,75.3h22"/>
    <path class="st3" d="M62.2,62.5c1.6,0,3.1-.6,4.2-1.7s1.7-2.6,1.7-4.2-.6-3.1-1.7-4.2-2.6-1.7-4.2-1.7-3.1.6-4.2,1.7-1.7,2.6-1.7,4.2.6,3.1,1.7,4.2,2.6,1.7,4.2,1.7Z"/>
    <path class="st3" d="M62.2,100.1c1.6,0,3.1-.6,4.2-1.7,1.1-1.1,1.7-2.6,1.7-4.2s-.6-3.1-1.7-4.2c-1.1-1.1-2.6-1.7-4.2-1.7s-3.1.6-4.2,1.7c-1.1,1.1-1.7,2.6-1.7,4.2s.6,3.1,1.7,4.2c1.1,1.1,2.6,1.7,4.2,1.7Z"/>
  </g>
  <g>
    <path id="DejaVuSans-52" d="M32,10.2c.4.1.8.4,1.2.9s.8,1.1,1.2,1.9l1.9,3.9h-2.1l-1.8-3.6c-.5-.9-.9-1.6-1.4-1.9s-1-.5-1.8-.5h-2.1v6h-1.9V2.7h4.3c1.6,0,2.8.3,3.6,1,.8.7,1.2,1.7,1.2,3.1s-.2,1.6-.6,2.2c-.4.6-1,1-1.8,1.2ZM27.2,4.3v5h2.4c.9,0,1.6-.2,2.1-.6s.7-1.1.7-1.9-.2-1.4-.7-1.9-1.2-.6-2.1-.6h-2.4Z"/>
    <path id="DejaVuSans-65" d="M46.9,11.1v.9h-8c0,1.2.4,2.1,1.1,2.7.6.6,1.5.9,2.7.9s1.3,0,1.9-.2,1.3-.4,1.9-.7v1.6c-.6.3-1.3.5-1.9.6s-1.3.2-2,.2c-1.7,0-3-.5-4-1.5-1-1-1.5-2.3-1.5-4s.5-3.1,1.4-4.1c.9-1,2.2-1.5,3.8-1.5s2.6.5,3.4,1.4c.8.9,1.2,2.2,1.2,3.7ZM45.1,10.6c0-1-.3-1.7-.8-2.3-.5-.6-1.2-.9-2.1-.9s-1.7.3-2.3.8-.9,1.3-1,2.3h6.2Z"/>
    <path id="DejaVuSans-6c" d="M49.7,2.2h1.7v14.7h-1.7V2.2Z"/>
    <path id="DejaVuSans-61" d="M59.9,11.5c-1.4,0-2.4.2-2.9.5s-.8.9-.8,1.6.2,1.1.6,1.5c.4.4,1,.5,1.7.5s1.7-.3,2.3-1,.9-1.6.9-2.7v-.4h-1.7ZM63.4,10.8v6h-1.7v-1.6c-.4.6-.9,1.1-1.5,1.4-.6.3-1.3.5-2.2.5s-1.9-.3-2.6-.9c-.6-.6-1-1.4-1-2.4s.4-2.1,1.2-2.7c.8-.6,2-.9,3.6-.9h2.4v-.2c0-.8-.3-1.4-.8-1.9s-1.3-.7-2.2-.7-1.2,0-1.8.2c-.6.1-1.1.4-1.7.7v-1.6c.6-.2,1.3-.4,1.9-.6.6-.1,1.2-.2,1.7-.2,1.5,0,2.7.4,3.4,1.2.8.8,1.1,2,1.1,3.6Z"/>
    <path id="DejaVuSans-79" d="M71.4,17.9c-.5,1.3-1,2.1-1.4,2.5-.5.4-1.1.6-1.9.6h-1.4v-1.5h1c.5,0,.8-.1,1.1-.3.3-.2.6-.8.9-1.6l.3-.8-4.3-10.4h1.8l3.3,8.3,3.3-8.3h1.8l-4.7,11.6Z"/>
  </g>
</svg>