<?xml version="1.0" encoding="UTF-8"?>
<svg id="Layer_1" xmlns="http://www.w3.org/2000/svg" width="1.389in" height="1in" version="1.1" viewBox="0 0 100 72">
  <!-- Generator: Adobe Illustrator 29.4.0, SVG Export Plug-In . SVG Version: 2.1.0 Build 152)  -->
  <path d="M46.8,70.4c-.552,0-1-.447-1-1V18c0-.552.448-1,1-1s1,.448,1,1v51.4c0,.553-.448,1-1,1Z"/>
  <path d="M53.2,70.4c-.553,0-1-.447-1-1V18c0-.552.447-1,1-1s1,.448,1,1v51.4c0,.553-.447,1-1,1Z"/>
  <path d="M33.9,31.8v-2c2.927,0,5.4-2.473,5.4-5.4s-2.473-5.4-5.4-5.4v-2c4.08,0,7.4,3.32,7.4,7.4s-3.32,7.4-7.4,7.4Z"/>
  <path d="M33.9,44.7v-2c2.927,0,5.4-2.473,5.4-5.4s-2.473-5.4-5.4-5.4v-2c4.08,0,7.4,3.32,7.4,7.4s-3.32,7.4-7.4,7.4Z"/>
  <path d="M33.9,57.5v-2c2.927,0,5.4-2.473,5.4-5.4s-2.473-5.399-5.4-5.399v-2c4.08,0,7.4,3.319,7.4,7.399s-3.32,7.4-7.4,7.4Z"/>
  <path d="M33.9,70.4v-2c2.927,0,5.4-2.473,5.4-5.4s-2.473-5.4-5.4-5.4v-2c4.08,0,7.4,3.319,7.4,7.4s-3.32,7.4-7.4,7.4Z"/>
  <path d="M33.9,19H1.8c-.552,0-1-.448-1-1s.448-1,1-1h32.1c.552,0,1,.448,1,1s-.448,1-1,1Z"/>
  <path d="M33.9,70.4H1.8c-.552,0-1-.447-1-1s.448-1,1-1h32.1c.552,0,1,.447,1,1s-.448,1-1,1Z"/>
  <path d="M66.1,31.8c-4.08,0-7.399-3.32-7.399-7.4s3.319-7.4,7.399-7.4v2c-2.927,0-5.399,2.473-5.399,5.4s2.473,5.4,5.399,5.4v2Z"/>
  <path d="M66.1,44.6c-4.08,0-7.399-3.319-7.399-7.399s3.319-7.4,7.399-7.4v2c-2.927,0-5.399,2.473-5.399,5.4s2.473,5.399,5.399,5.399v2Z"/>
  <path d="M66.1,57.5c-4.08,0-7.399-3.319-7.399-7.4s3.319-7.399,7.399-7.399v2c-2.927,0-5.399,2.473-5.399,5.399s2.473,5.4,5.399,5.4v2Z"/>
  <path d="M66.1,70.3c-4.08,0-7.399-3.319-7.399-7.399s3.319-7.4,7.399-7.4v2c-2.927,0-5.399,2.473-5.399,5.4s2.473,5.399,5.399,5.399v2Z"/>
  <path d="M98.2,19h-32.101c-.553,0-1-.448-1-1s.447-1,1-1h32.101c.553,0,1,.448,1,1s-.447,1-1,1Z"/>
  <path d="M98.2,70.4h-32.101c-.553,0-1-.447-1-1s.447-1,1-1h32.101c.553,0,1,.447,1,1s-.447,1-1,1Z"/>
  <g>
    <path d="M4.302,4.83H1.328v-.95h7.297v.95h-3.016v9.072h-1.308V4.83Z"/>
    <path d="M9.285,6.937c.165.404.271.831.316,1.28.239-.376.561-.684.964-.922.404-.239.831-.358,1.28-.358l-.275,1.211c-.44,0-.814.115-1.122.344s-.58.519-.818.867v4.543h-1.143v-4.956c0-.184-.014-.39-.042-.62-.027-.229-.073-.454-.138-.674s-.151-.408-.261-.564l1.238-.151Z"/>
    <path d="M15.453,6.895c.725,0,1.271.198,1.638.592.367.395.551.95.551,1.666v3.428c0,.193.037.324.11.393s.16.103.262.103c.082,0,.17-.011.262-.034s.179-.053.262-.089l.247.743c-.146.083-.332.158-.558.227-.225.069-.456.104-.694.104s-.455-.067-.647-.2-.312-.378-.358-.736c-.266.284-.578.516-.936.695s-.734.269-1.129.269c-.542,0-.991-.161-1.35-.482-.357-.321-.536-.762-.536-1.321,0-.523.126-.941.378-1.253.253-.312.58-.546.984-.702.404-.156.833-.262,1.287-.316.454-.055.879-.083,1.273-.083v-.729c0-.257-.032-.489-.096-.695-.064-.207-.18-.372-.345-.496-.165-.124-.399-.186-.702-.186-.349,0-.684.069-1.005.207s-.643.339-.964.605l-.564-.812c.377-.303.789-.528,1.239-.675.449-.146.913-.22,1.391-.22ZM16.499,10.791c-.248,0-.527.012-.84.035-.312.023-.614.078-.908.165s-.535.227-.723.42c-.188.193-.282.459-.282.798,0,.303.104.525.31.668.206.142.466.213.777.213.331,0,.62-.092.868-.275.247-.184.442-.417.585-.702.142-.285.213-.578.213-.881v-.44Z"/>
    <path d="M20.67,6.95c.064.156.119.316.165.482.046.165.078.33.097.496.275-.275.601-.517.978-.723.376-.206.762-.31,1.156-.31.505,0,.911.105,1.219.317.307.211.529.498.667.86.138.362.207.782.207,1.259v4.571h-1.129v-4.199c0-.285-.021-.564-.062-.84-.041-.275-.142-.502-.303-.682-.16-.179-.425-.269-.791-.269-.221,0-.445.044-.675.131-.229.087-.445.2-.647.337-.201.138-.385.285-.551.44v5.08h-1.128v-4.846c0-.184-.015-.397-.042-.64s-.073-.482-.138-.716c-.064-.234-.156-.429-.275-.585l1.253-.165Z"/>
    <path d="M29.66,6.895c.312,0,.622.039.93.117.307.078.589.2.846.365l-.398.881c-.202-.165-.427-.289-.675-.372s-.491-.124-.729-.124c-.34,0-.636.078-.889.234-.252.156-.378.39-.378.702,0,.22.053.404.158.55.105.147.245.271.42.372.174.101.362.202.564.303.229.11.461.223.695.337.233.115.449.252.646.413.197.161.358.354.482.579.124.225.186.502.186.833,0,.459-.112.838-.337,1.136-.226.298-.519.517-.882.654-.362.138-.755.207-1.177.207-.367,0-.734-.051-1.102-.152-.367-.101-.706-.243-1.019-.427l.482-.839c.22.165.468.298.743.399.275.101.541.151.798.151.35,0,.654-.083.916-.248.262-.166.393-.413.393-.744,0-.229-.071-.42-.214-.571s-.323-.287-.544-.406c-.22-.119-.449-.234-.688-.344-.275-.138-.544-.287-.806-.448-.262-.16-.476-.365-.641-.612-.165-.248-.247-.564-.247-.95,0-.44.116-.808.351-1.101.234-.294.539-.517.916-.668.376-.151.775-.227,1.197-.227Z"/>
    <path d="M36.392,3.302c.257,0,.489.025.695.076.207.051.42.14.641.269l-.317.854c-.119-.11-.272-.195-.461-.254s-.364-.09-.53-.09c-.321,0-.59.062-.805.186-.216.124-.388.287-.517.489-.129.202-.225.429-.289.682s-.105.514-.124.785c-.019.271-.027.525-.027.764h1.969l-.248.854h-1.721v5.989h-1.129v-5.989h-1.032v-.716c.146-.018.296-.034.447-.048.151-.014.282-.057.393-.131.109-.073.184-.197.22-.372.092-.422.16-.764.207-1.026.046-.262.109-.493.192-.695.083-.202.216-.422.399-.661.229-.293.514-.528.854-.702.339-.174.734-.262,1.184-.262Z"/>
    <path d="M39.833,14.082c-.67,0-1.231-.168-1.686-.503-.455-.334-.794-.773-1.02-1.314-.225-.542-.337-1.12-.337-1.735,0-.458.069-.906.206-1.342.138-.436.34-.826.606-1.17.266-.344.594-.617.984-.819.39-.202.833-.303,1.328-.303.679,0,1.246.165,1.7.496s.794.767,1.019,1.308.338,1.124.338,1.748c0,.468-.069.92-.207,1.356-.138.436-.337.824-.599,1.164s-.588.61-.978.812-.842.303-1.356.303ZM39.848,13.214c.357,0,.658-.084.901-.254s.44-.393.592-.668.26-.571.323-.888c.064-.317.097-.622.097-.916,0-.303-.03-.613-.09-.929-.06-.317-.158-.61-.296-.881-.138-.271-.328-.491-.571-.661s-.543-.255-.901-.255-.658.085-.901.255c-.244.17-.438.392-.586.667-.146.275-.252.571-.316.888-.064.316-.096.622-.096.916,0,.285.031.585.096.902.064.316.168.612.31.888.143.275.333.5.571.675.239.174.528.261.868.261Z"/>
    <path d="M45.396,6.937c.165.404.271.831.316,1.28.238-.376.56-.684.964-.922.403-.239.83-.358,1.28-.358l-.275,1.211c-.44,0-.814.115-1.122.344s-.581.519-.819.867v4.543h-1.143v-4.956c0-.184-.014-.39-.041-.62-.027-.229-.074-.454-.138-.674-.064-.22-.151-.408-.262-.564l1.239-.151Z"/>
    <path d="M50.199,6.964c.064.147.119.303.165.468.046.165.078.326.097.481.165-.165.355-.325.571-.481s.447-.285.695-.386c.248-.101.491-.151.729-.151.44,0,.817.089,1.129.269.312.179.564.47.757.874.184-.184.391-.362.62-.537s.473-.319.729-.434.519-.172.785-.172c.504,0,.91.105,1.218.317.308.211.53.498.668.86.138.362.206.782.206,1.259v4.571h-1.143v-4.199c0-.211-.012-.42-.034-.626-.023-.207-.071-.399-.145-.578-.073-.179-.186-.321-.337-.427s-.36-.159-.627-.159c-.321,0-.638.104-.95.31-.312.207-.573.416-.784.626v5.052h-1.143v-4.199c0-.211-.01-.422-.027-.633-.019-.211-.064-.404-.138-.578-.074-.174-.188-.314-.345-.42s-.367-.159-.633-.159c-.202,0-.408.048-.62.145-.211.096-.412.215-.605.358-.192.142-.362.277-.509.406v5.08h-1.143v-4.97c0-.193-.017-.399-.049-.62s-.08-.436-.145-.647c-.064-.211-.146-.399-.248-.564l1.253-.138Z"/>
    <path d="M63.182,6.895c.725,0,1.271.198,1.638.592.367.395.551.95.551,1.666v3.428c0,.193.037.324.11.393s.16.103.262.103c.082,0,.17-.011.262-.034s.179-.053.262-.089l.247.743c-.146.083-.332.158-.558.227-.225.069-.456.104-.694.104s-.455-.067-.647-.2-.312-.378-.358-.736c-.266.284-.578.516-.936.695s-.734.269-1.129.269c-.542,0-.991-.161-1.35-.482-.357-.321-.536-.762-.536-1.321,0-.523.126-.941.378-1.253.253-.312.58-.546.984-.702.404-.156.833-.262,1.287-.316.454-.055.879-.083,1.273-.083v-.729c0-.257-.032-.489-.096-.695-.064-.207-.18-.372-.345-.496-.165-.124-.399-.186-.702-.186-.349,0-.684.069-1.005.207s-.643.339-.964.605l-.564-.812c.377-.303.789-.528,1.239-.675.449-.146.913-.22,1.391-.22ZM64.228,10.791c-.248,0-.527.012-.84.035-.312.023-.614.078-.908.165s-.535.227-.723.42c-.188.193-.282.459-.282.798,0,.303.104.525.31.668.206.142.466.213.777.213.331,0,.62-.092.868-.275.247-.184.442-.417.585-.702.142-.285.213-.578.213-.881v-.44Z"/>
    <path d="M70.175,6.909c.312,0,.624.051.937.151.312.101.583.257.812.468-.01-.128-.017-.255-.021-.378-.004-.124-.007-.246-.007-.365v-2.561l-.192-.812h1.321v8.521c0,.193.014.409.042.647.027.239.073.471.138.695.063.225.146.425.247.599l-1.211.151c-.064-.156-.119-.312-.165-.468-.047-.156-.078-.312-.097-.468-.239.312-.537.555-.895.729-.358.174-.734.262-1.129.262-.478,0-.896-.102-1.253-.303-.358-.202-.654-.475-.888-.819-.234-.344-.409-.725-.523-1.143-.115-.418-.172-.842-.172-1.273,0-.468.062-.92.186-1.356.124-.436.312-.823.564-1.163.252-.339.571-.61.957-.812.385-.202.835-.303,1.349-.303ZM70.202,7.845c-.357,0-.658.078-.901.234s-.436.363-.578.62-.243.539-.303.846c-.06.308-.09.613-.09.916,0,.312.034.622.104.93.068.308.179.589.33.846.151.257.354.461.606.613.252.151.562.227.929.227.321,0,.617-.094.888-.282.271-.188.508-.396.709-.626v-2.313c0-.367-.057-.702-.172-1.005-.115-.303-.296-.546-.544-.73-.247-.183-.573-.275-.978-.275Z"/>
    <path d="M77.829,14.082c-.67,0-1.232-.168-1.687-.503-.454-.334-.794-.773-1.019-1.314s-.337-1.12-.337-1.735c0-.458.068-.906.206-1.342.138-.436.34-.826.605-1.17.267-.344.595-.617.984-.819.391-.202.833-.303,1.329-.303.679,0,1.245.165,1.7.496.454.331.793.767,1.019,1.308.225.542.337,1.124.337,1.748,0,.468-.068.92-.206,1.356-.138.436-.338.824-.6,1.164-.261.339-.587.61-.977.812-.391.202-.843.303-1.356.303ZM77.843,13.214c.358,0,.658-.084.901-.254s.441-.393.593-.668.259-.571.323-.888c.064-.317.097-.622.097-.916,0-.303-.03-.613-.09-.929-.06-.317-.158-.61-.296-.881-.138-.271-.328-.491-.571-.661s-.544-.255-.902-.255-.658.085-.901.255-.438.392-.585.667-.253.571-.316.888c-.064.316-.097.622-.097.916,0,.285.032.585.097.902.063.316.167.612.31.888s.332.5.571.675c.238.174.527.261.867.261Z"/>
    <path d="M83.391,6.937c.165.404.271.831.316,1.28.239-.376.561-.684.964-.922.404-.239.831-.358,1.28-.358l-.275,1.211c-.44,0-.814.115-1.122.344s-.58.519-.818.867v4.543h-1.143v-4.956c0-.184-.014-.39-.042-.62-.027-.229-.073-.454-.138-.674s-.151-.408-.261-.564l1.238-.151Z"/>
    <path d="M89.999,6.895c.551,0,1.014.112,1.391.337.376.225.658.537.847.936.188.399.282.865.282,1.397,0,.128-.007.259-.021.392-.014.133-.03.273-.049.42h-4.35c0,.872.192,1.547.578,2.024.385.477.899.716,1.542.716.266,0,.543-.042.832-.124s.59-.207.902-.372l.427.688c-.321.257-.684.45-1.088.578s-.812.193-1.226.193c-.541,0-1.012-.099-1.41-.296-.399-.197-.73-.463-.991-.798-.262-.335-.457-.713-.586-1.136-.128-.422-.192-.854-.192-1.294,0-.459.064-.904.192-1.335.129-.431.324-.824.586-1.177.261-.353.585-.633.97-.84.386-.206.84-.31,1.363-.31ZM89.889,7.762c-.312,0-.587.087-.826.262-.238.174-.431.397-.578.667-.146.271-.247.549-.303.833h3.139c.01-.385-.043-.709-.158-.97-.114-.262-.28-.459-.495-.592-.216-.133-.476-.2-.778-.2Z"/>
    <path d="M96.441,6.895c.312,0,.622.039.93.117s.59.2.847.365l-.399.881c-.202-.165-.427-.289-.675-.372-.247-.083-.49-.124-.729-.124-.34,0-.636.078-.888.234-.253.156-.379.39-.379.702,0,.22.053.404.158.55.105.147.246.271.42.372.175.101.363.202.564.303.229.11.462.223.695.337.234.115.45.252.647.413.197.161.357.354.481.579.124.225.187.502.187.833,0,.459-.113.838-.338,1.136-.225.298-.519.517-.881.654s-.755.207-1.177.207c-.367,0-.734-.051-1.102-.152-.367-.101-.707-.243-1.019-.427l.481-.839c.221.165.468.298.743.399.275.101.542.151.799.151.349,0,.654-.083.915-.248.262-.166.393-.413.393-.744,0-.229-.071-.42-.213-.571-.143-.151-.324-.287-.544-.406-.221-.119-.45-.234-.688-.344-.275-.138-.544-.287-.806-.448-.262-.16-.475-.365-.64-.612-.165-.248-.248-.564-.248-.95,0-.44.117-.808.352-1.101.233-.294.539-.517.915-.668s.775-.227,1.197-.227Z"/>
  </g>
  <g>
    <path d="M4.813,20.157h6.016v.95h-4.543v3.456h3.524v.936h-3.524v3.731h4.543v.95h-5.823v-9.114l-.193-.908Z"/>
    <path d="M13.28,23.227c.064.156.119.316.165.482.046.165.078.33.097.496.275-.275.601-.517.977-.723.376-.206.762-.31,1.157-.31.504,0,.911.105,1.218.317.307.211.53.498.667.86.138.362.207.782.207,1.259v4.571h-1.129v-4.199c0-.285-.021-.564-.062-.84-.041-.275-.142-.502-.303-.682-.161-.179-.425-.269-.792-.269-.22,0-.445.044-.675.131-.229.087-.445.2-.647.337s-.385.285-.551.44v5.08h-1.128v-4.846c0-.184-.014-.397-.042-.64s-.074-.482-.138-.716c-.064-.234-.156-.429-.275-.585l1.253-.165Z"/>
    <path d="M21.623,21.382c-.064.312-.122.636-.172.971-.051.335-.085.663-.104.984h1.79l-.234.868h-1.556v4.377c0,.175.021.329.062.461.042.133.115.234.22.303s.255.104.448.104c.146,0,.293-.014.44-.042.146-.027.289-.06.427-.096l.193.771c-.229.064-.448.122-.654.172-.206.05-.443.076-.709.076-.587,0-.996-.156-1.225-.468s-.344-.748-.344-1.308v-4.35h-1.019v-.688c.275-.009.504-.083.688-.22.183-.138.335-.314.454-.53.119-.215.215-.445.289-.688.073-.243.128-.475.165-.695h.84Z"/>
    <path d="M24.334,29.256h1.817v-7.324l-1.859.44-.248-.647,2.561-1.143h.688v8.673h1.762v.936h-4.722v-.936Z"/>
  </g>
  <g>
    <path d="M4.813,52.957h6.016v.949h-4.543v3.456h3.524v.936h-3.524v3.731h4.543v.949h-5.823v-9.113l-.193-.908Z"/>
    <path d="M13.28,56.026c.064.156.119.316.165.482.046.165.078.33.097.495.275-.275.601-.517.977-.723s.762-.31,1.157-.31c.504,0,.911.105,1.218.316.307.211.53.498.667.86s.207.782.207,1.26v4.57h-1.129v-4.198c0-.285-.021-.564-.062-.84-.041-.275-.142-.503-.303-.682s-.425-.269-.792-.269c-.22,0-.445.044-.675.131s-.445.199-.647.337-.385.285-.551.44v5.08h-1.128v-4.846c0-.184-.014-.396-.042-.64s-.074-.482-.138-.717c-.064-.233-.156-.429-.275-.585l1.253-.165Z"/>
    <path d="M21.623,54.182c-.064.312-.122.636-.172.971-.051.335-.085.663-.104.984h1.79l-.234.867h-1.556v4.378c0,.175.021.328.062.461.042.134.115.234.22.303.105.069.255.104.448.104.146,0,.293-.014.44-.041.146-.027.289-.06.427-.097l.193.771c-.229.063-.448.121-.654.172-.206.05-.443.075-.709.075-.587,0-.996-.155-1.225-.468-.229-.312-.344-.748-.344-1.308v-4.351h-1.019v-.688c.275-.009.504-.082.688-.22.183-.138.335-.314.454-.53s.215-.445.289-.688c.073-.243.128-.475.165-.695h.84Z"/>
    <path d="M29.648,55.737c0,.523-.092,1.056-.275,1.597-.184.542-.45,1.083-.798,1.625-.349.542-.764,1.071-1.246,1.59s-1.025,1.017-1.631,1.494h4.254l-.275.949h-5.562v-.798c.789-.615,1.455-1.202,1.996-1.763.542-.56.975-1.097,1.301-1.61s.562-1.014.709-1.501c.147-.486.221-.963.221-1.432,0-.605-.12-1.044-.358-1.314-.239-.271-.551-.406-.937-.406-.321,0-.667.087-1.039.262-.372.175-.746.449-1.122.826l-.62-.729c.459-.441.948-.769,1.466-.984.518-.216,1.016-.324,1.494-.324.458,0,.872.097,1.239.289.367.193.656.476.868.847.211.372.316.833.316,1.384Z"/>
  </g>
  <g>
    <path d="M75.842,20.799c.459,0,.906.064,1.342.192.437.129.852.312,1.246.551l-.633.922c-.285-.211-.595-.378-.93-.502s-.682-.186-1.039-.186c-.486,0-.899.122-1.239.365s-.509.631-.509,1.163c0,.294.08.544.24.75.161.206.374.388.641.543.266.156.555.308.867.455.321.147.649.308.984.481.335.175.643.379.922.613.28.234.505.519.675.854s.255.746.255,1.232c0,.661-.161,1.205-.482,1.631s-.743.743-1.266.95c-.523.207-1.088.31-1.693.31-.496,0-.976-.066-1.439-.199-.463-.133-.915-.314-1.355-.544l.495-1.129c.303.257.67.468,1.102.633s.845.248,1.239.248c.303,0,.61-.057.922-.172.312-.115.574-.301.785-.558s.316-.587.316-.991-.097-.736-.289-.998-.445-.482-.757-.661c-.312-.179-.643-.351-.991-.517-.303-.146-.605-.298-.909-.454-.303-.156-.578-.339-.825-.551-.248-.211-.445-.463-.593-.757-.146-.293-.22-.647-.22-1.06,0-.579.153-1.06.461-1.446.308-.385.702-.677,1.184-.874.482-.197.98-.296,1.494-.296Z"/>
    <path d="M82.573,23.952c.726,0,1.271.198,1.639.592.367.395.551.95.551,1.666v3.428c0,.193.036.324.11.393.073.069.16.103.261.103.083,0,.17-.011.262-.034s.18-.053.262-.089l.248.743c-.147.083-.333.158-.558.227s-.457.104-.695.104-.454-.067-.647-.2c-.192-.133-.312-.378-.357-.736-.267.284-.578.516-.937.695-.357.179-.734.269-1.129.269-.541,0-.991-.161-1.349-.482-.358-.321-.537-.762-.537-1.321,0-.523.126-.941.379-1.253.252-.312.58-.546.984-.702.403-.156.833-.262,1.287-.316.454-.055.879-.083,1.273-.083v-.729c0-.257-.032-.489-.097-.695s-.179-.372-.344-.496c-.166-.124-.399-.186-.702-.186-.35,0-.685.069-1.005.207-.322.138-.643.339-.964.605l-.564-.812c.376-.303.789-.528,1.239-.675.449-.146.913-.22,1.39-.22ZM83.62,27.848c-.248,0-.528.012-.84.035-.312.023-.615.078-.909.165s-.534.227-.723.42c-.188.193-.282.459-.282.798,0,.303.104.525.31.668.207.142.466.213.778.213.33,0,.619-.092.867-.275s.442-.417.585-.702.214-.578.214-.881v-.44Z"/>
    <path d="M88.19,20.469v10.49h-1.143v-9.692l-.179-.798h1.321Z"/>
    <path d="M90.269,30.037h1.817v-7.324l-1.858.44-.248-.647,2.561-1.143h.688v8.673h1.763v.936h-4.723v-.936Z"/>
  </g>
  <g>
    <path d="M75.842,52.819c.459,0,.906.064,1.343.192.436.129.852.312,1.246.551l-.634.923c-.284-.211-.594-.379-.929-.503s-.682-.186-1.04-.186c-.486,0-.899.122-1.238.365-.34.243-.51.631-.51,1.163,0,.294.08.544.241.75.16.206.374.388.64.544.267.156.556.308.867.454.321.147.649.308.984.481.335.175.643.379.923.613.279.233.505.519.675.854.169.335.254.745.254,1.232,0,.66-.16,1.204-.481,1.631s-.743.743-1.267.95c-.523.206-1.088.31-1.693.31-.495,0-.976-.066-1.438-.199-.464-.134-.916-.314-1.356-.544l.496-1.129c.303.257.67.468,1.102.633.431.165.844.248,1.238.248.304,0,.61-.058.923-.172.312-.115.573-.301.784-.558.212-.257.317-.588.317-.991s-.097-.736-.289-.998c-.193-.262-.445-.482-.758-.661-.312-.179-.643-.351-.991-.517-.303-.146-.605-.298-.908-.454-.303-.155-.578-.339-.826-.551-.248-.211-.445-.463-.592-.757-.147-.294-.221-.647-.221-1.06,0-.579.154-1.061.462-1.446.307-.385.702-.677,1.184-.874s.979-.296,1.493-.296Z"/>
    <path d="M82.574,55.972c.725,0,1.271.198,1.638.592.367.396.551.95.551,1.666v3.428c0,.193.037.324.11.393.073.069.16.104.262.104.082,0,.17-.012.262-.034.092-.023.179-.053.262-.09l.247.743c-.146.083-.332.158-.558.228-.225.068-.456.104-.694.104s-.455-.067-.647-.2-.312-.378-.358-.736c-.266.284-.578.517-.936.695-.358.179-.734.269-1.129.269-.542,0-.991-.161-1.35-.482-.357-.32-.536-.762-.536-1.321,0-.523.126-.94.378-1.253.253-.312.58-.546.984-.702.404-.155.833-.262,1.287-.316s.879-.083,1.273-.083v-.729c0-.257-.032-.488-.096-.695-.064-.206-.18-.371-.345-.495s-.399-.186-.702-.186c-.349,0-.684.068-1.005.206s-.643.34-.964.605l-.564-.812c.377-.304.789-.528,1.239-.675.449-.146.913-.221,1.391-.221ZM83.62,59.868c-.248,0-.527.012-.84.034-.312.023-.614.078-.908.165-.294.088-.535.228-.723.42-.188.193-.282.459-.282.799,0,.303.104.525.31.668.206.142.466.213.777.213.331,0,.62-.092.868-.275.247-.184.442-.417.585-.702.142-.284.213-.578.213-.881v-.44Z"/>
    <path d="M88.19,52.489v10.49h-1.143v-9.692l-.179-.798h1.321Z"/>
    <path d="M95.583,55.738c0,.522-.092,1.056-.275,1.597-.184.542-.449,1.083-.798,1.624-.35.542-.765,1.072-1.246,1.591-.482.519-1.025,1.017-1.632,1.493h4.254l-.275.95h-5.562v-.799c.789-.614,1.455-1.202,1.996-1.762.542-.56.976-1.097,1.301-1.611.326-.514.562-1.014.709-1.5.147-.486.221-.964.221-1.432,0-.606-.119-1.044-.357-1.315-.239-.271-.551-.405-.937-.405-.321,0-.668.087-1.039.261-.372.175-.746.45-1.122.826l-.62-.729c.459-.44.948-.769,1.467-.984.518-.216,1.016-.323,1.493-.323.459,0,.872.097,1.239.289s.656.475.867.847.316.833.316,1.384Z"/>
  </g>
</svg>