<?xml version="1.0" encoding="utf-8" standalone="no"?>
<!DOCTYPE svg PUBLIC "-//W3C//DTD SVG 1.1//EN"
  "http://www.w3.org/Graphics/SVG/1.1/DTD/svg11.dtd">
<svg xmlns:xlink="http://www.w3.org/1999/xlink" width="77" height="95" viewBox="0 0 77.04 95.4907" xmlns="http://www.w3.org/2000/svg" version="1.1">
 <metadata>
  <rdf:RDF xmlns:dc="http://purl.org/dc/elements/1.1/" xmlns:cc="http://creativecommons.org/ns#" xmlns:rdf="http://www.w3.org/1999/02/22-rdf-syntax-ns#">
   <cc:Work>
    <dc:type rdf:resource="http://purl.org/dc/dcmitype/StillImage"/>
    <dc:date>2024-09-04T19:57:51.997318</dc:date>
    <dc:format>image/svg+xml</dc:format>
    <dc:creator>
     <cc:Agent>
      <dc:title>Matplotlib v3.9.2, https://matplotlib.org/</dc:title>
     </cc:Agent>
    </dc:creator>
   </cc:Work>
  </rdf:RDF>
 </metadata>
 <defs>
  <style type="text/css">*{stroke-linejoin: round; stroke-linecap: butt}</style>
 </defs>
 <g id="figure_1">
  <g id="patch_1">
   <path d="M 0 95.4907 
L 77.04 95.4907 
L 77.04 0 
L 0 0 
z
" style="fill: #ffffff"/>
  </g>
  <g id="axes_1">
   <g id="patch_2">
    <path d="M 4.647426 83.693388 
L 4.647426 26.4943 
L 72.392574 26.4943 
L 72.392574 83.693388 
L 4.647426 83.693388 
z
" clip-path="url(#p93e269cf49)" style="fill: none"/>
   </g>
   <g id="line2d_1">
    <path d="M 4.647426 83.693388 
L 4.647426 26.4943 
L 72.392574 26.4943 
L 72.392574 83.693388 
L 4.647426 83.693388 
" clip-path="url(#p93e269cf49)" style="fill: none; stroke: #000000; stroke-width: 2; stroke-linecap: round"/>
   </g>
   <g id="patch_3">
    <path d="M 13.584783 37.219129 
L 13.871093 37.22831 
L 14.156225 37.255817 
L 14.43901 37.301535 
L 14.718284 37.365278 
L 14.992901 37.446783 
L 15.261731 37.545715 
L 15.523671 37.661667 
L 15.777643 37.794164 
L 16.022604 37.942661 
L 16.257547 38.106548 
L 16.481508 38.28515 
L 16.693565 38.477735 
L 16.892848 38.683511 
L 17.078537 38.901632 
L 17.24987 39.131202 
L 17.406142 39.371278 
L 17.546711 39.620873 
L 17.671 39.878961 
L 17.778497 40.144482 
L 17.868762 40.416345 
L 17.941423 40.693433 
L 17.996182 40.974607 
L 18.032813 41.258712 
L 18.051166 41.54458 
L 18.051166 41.831036 
L 18.032813 42.116904 
L 17.996182 42.401008 
L 17.941423 42.682182 
L 17.868762 42.95927 
L 17.778497 43.231133 
L 17.671 43.496655 
L 17.546711 43.754743 
L 17.406142 44.004338 
L 17.24987 44.244413 
L 17.078537 44.473983 
L 16.892848 44.692105 
L 16.693565 44.89788 
L 16.481508 45.090465 
L 16.257547 45.269068 
L 16.022604 45.432954 
L 15.777643 45.581451 
L 15.523671 45.713948 
L 15.261731 45.829901 
L 14.992901 45.928833 
L 14.718284 46.010338 
L 14.43901 46.07408 
L 14.156225 46.119799 
L 13.871093 46.147305 
L 13.584783 46.156487 
" clip-path="url(#p93e269cf49)" style="fill: none; stroke: #000000; stroke-width: 2; stroke-linejoin: miter"/>
   </g>
   <g id="patch_4">
    <path d="M 13.584783 46.156487 
L 13.871093 46.165668 
L 14.156225 46.193174 
L 14.43901 46.238893 
L 14.718284 46.302635 
L 14.992901 46.38414 
L 15.261731 46.483072 
L 15.523671 46.599025 
L 15.777643 46.731522 
L 16.022604 46.880019 
L 16.257547 47.043905 
L 16.481508 47.222508 
L 16.693565 47.415093 
L 16.892848 47.620869 
L 17.078537 47.83899 
L 17.24987 48.06856 
L 17.406142 48.308635 
L 17.546711 48.55823 
L 17.671 48.816319 
L 17.778497 49.08184 
L 17.868762 49.353703 
L 17.941423 49.630791 
L 17.996182 49.911965 
L 18.032813 50.196069 
L 18.051166 50.481937 
L 18.051166 50.768394 
L 18.032813 51.054261 
L 17.996182 51.338366 
L 17.941423 51.61954 
L 17.868762 51.896628 
L 17.778497 52.168491 
L 17.671 52.434012 
L 17.546711 52.6921 
L 17.406142 52.941695 
L 17.24987 53.181771 
L 17.078537 53.411341 
L 16.892848 53.629462 
L 16.693565 53.835238 
L 16.481508 54.027823 
L 16.257547 54.206425 
L 16.022604 54.370312 
L 15.777643 54.518809 
L 15.523671 54.651306 
L 15.261731 54.767259 
L 14.992901 54.866191 
L 14.718284 54.947695 
L 14.43901 55.011438 
L 14.156225 55.057156 
L 13.871093 55.084663 
L 13.584783 55.093844 
" clip-path="url(#p93e269cf49)" style="fill: none; stroke: #000000; stroke-width: 2; stroke-linejoin: miter"/>
   </g>
   <g id="patch_5">
    <path d="M 13.584783 55.093844 
L 13.871093 55.103026 
L 14.156225 55.130532 
L 14.43901 55.17625 
L 14.718284 55.239993 
L 14.992901 55.321498 
L 15.261731 55.42043 
L 15.523671 55.536382 
L 15.777643 55.66888 
L 16.022604 55.817376 
L 16.257547 55.981263 
L 16.481508 56.159866 
L 16.693565 56.35245 
L 16.892848 56.558226 
L 17.078537 56.776347 
L 17.24987 57.005917 
L 17.406142 57.245993 
L 17.546711 57.495588 
L 17.671 57.753676 
L 17.778497 58.019197 
L 17.868762 58.291061 
L 17.941423 58.568148 
L 17.996182 58.849322 
L 18.032813 59.133427 
L 18.051166 59.419295 
L 18.051166 59.705751 
L 18.032813 59.991619 
L 17.996182 60.275724 
L 17.941423 60.556897 
L 17.868762 60.833985 
L 17.778497 61.105848 
L 17.671 61.37137 
L 17.546711 61.629458 
L 17.406142 61.879053 
L 17.24987 62.119128 
L 17.078537 62.348699 
L 16.892848 62.56682 
L 16.693565 62.772595 
L 16.481508 62.96518 
L 16.257547 63.143783 
L 16.022604 63.307669 
L 15.777643 63.456166 
L 15.523671 63.588663 
L 15.261731 63.704616 
L 14.992901 63.803548 
L 14.718284 63.885053 
L 14.43901 63.948795 
L 14.156225 63.994514 
L 13.871093 64.02202 
L 13.584783 64.031202 
" clip-path="url(#p93e269cf49)" style="fill: none; stroke: #000000; stroke-width: 2; stroke-linejoin: miter"/>
   </g>
   <g id="patch_6">
    <path d="M 13.584783 64.031202 
L 13.871093 64.040383 
L 14.156225 64.067889 
L 14.43901 64.113608 
L 14.718284 64.17735 
L 14.992901 64.258855 
L 15.261731 64.357787 
L 15.523671 64.47374 
L 15.777643 64.606237 
L 16.022604 64.754734 
L 16.257547 64.91862 
L 16.481508 65.097223 
L 16.693565 65.289808 
L 16.892848 65.495584 
L 17.078537 65.713705 
L 17.24987 65.943275 
L 17.406142 66.183351 
L 17.546711 66.432945 
L 17.671 66.691034 
L 17.778497 66.956555 
L 17.868762 67.228418 
L 17.941423 67.505506 
L 17.996182 67.78668 
L 18.032813 68.070784 
L 18.051166 68.356652 
L 18.051166 68.643109 
L 18.032813 68.928977 
L 17.996182 69.213081 
L 17.941423 69.494255 
L 17.868762 69.771343 
L 17.778497 70.043206 
L 17.671 70.308727 
L 17.546711 70.566816 
L 17.406142 70.81641 
L 17.24987 71.056486 
L 17.078537 71.286056 
L 16.892848 71.504177 
L 16.693565 71.709953 
L 16.481508 71.902538 
L 16.257547 72.081141 
L 16.022604 72.245027 
L 15.777643 72.393524 
L 15.523671 72.526021 
L 15.261731 72.641974 
L 14.992901 72.740906 
L 14.718284 72.822411 
L 14.43901 72.886153 
L 14.156225 72.931871 
L 13.871093 72.959378 
L 13.584783 72.968559 
" clip-path="url(#p93e269cf49)" style="fill: none; stroke: #000000; stroke-width: 2; stroke-linejoin: miter"/>
   </g>
   <g id="line2d_2">
    <path d="M 13.584783 19.344414 
L 13.584783 37.219129 
M 13.584783 72.968559 
L 13.584783 90.843274 
" clip-path="url(#p93e269cf49)" style="fill: none; stroke: #000000; stroke-width: 2; stroke-linecap: round"/>
   </g>
   <g id="line2d_3">
    <path d="M 23.415855 37.219129 
L 23.415855 55.093844 
L 23.415855 72.968559 
" clip-path="url(#p93e269cf49)" style="fill: none; stroke: #000000; stroke-width: 2; stroke-linecap: round"/>
   </g>
   <g id="line2d_4">
    <path d="M 47.367973 19.344414 
L 47.367973 37.219129 
M 50.942916 45.798992 
L 63.455217 65.818673 
M 47.367973 72.968559 
L 47.367973 90.843274 
" clip-path="url(#p93e269cf49)" style="fill: none; stroke: #000000; stroke-width: 2; stroke-linecap: round"/>
   </g>
   <g id="line2d_5">
    <path d="M 25.203326 55.093844 
L 33.157563 55.093844 
L 41.1118 55.093844 
" clip-path="url(#p93e269cf49)" style="fill: none; stroke-dasharray: 2,3.3; stroke-dashoffset: 0; stroke: #000000; stroke-width: 2"/>
   </g>
   <g id="patch_7">
    <path d="M 47.367973 45.798992 
C 48.505676 45.798992 49.596935 45.346978 50.401413 44.5425 
C 51.20589 43.738023 51.657905 42.646764 51.657905 41.509061 
C 51.657905 40.371357 51.20589 39.280099 50.401413 38.475621 
C 49.596935 37.671143 48.505676 37.219129 47.367973 37.219129 
C 46.23027 37.219129 45.139011 37.671143 44.334533 38.475621 
C 43.530056 39.280099 43.078041 40.371357 43.078041 41.509061 
C 43.078041 42.646764 43.530056 43.738023 44.334533 44.5425 
C 45.139011 45.346978 46.23027 45.798992 47.367973 45.798992 
z
" clip-path="url(#p93e269cf49)" style="fill: #ffffff; stroke: #000000; stroke-width: 2; stroke-linejoin: miter"/>
   </g>
   <g id="patch_8">
    <path d="M 47.367973 72.968559 
C 48.505676 72.968559 49.596935 72.516545 50.401413 71.712067 
C 51.20589 70.90759 51.657905 69.816331 51.657905 68.678628 
C 51.657905 67.540924 51.20589 66.449666 50.401413 65.645188 
C 49.596935 64.84071 48.505676 64.388696 47.367973 64.388696 
C 46.23027 64.388696 45.139011 64.84071 44.334533 65.645188 
C 43.530056 66.449666 43.078041 67.540924 43.078041 68.678628 
C 43.078041 69.816331 43.530056 70.90759 44.334533 71.712067 
C 45.139011 72.516545 46.23027 72.968559 47.367973 72.968559 
z
" clip-path="url(#p93e269cf49)" style="fill: #ffffff; stroke: #000000; stroke-width: 2; stroke-linejoin: miter"/>
   </g>
   <g id="text_1">
    <!-- Relay -->
    <g transform="translate(19.286406 12.857908) scale(0.14 -0.14)">
     <defs>
      <path id="DejaVuSans-52" d="M 2841 2188 
Q 3044 2119 3236 1894 
Q 3428 1669 3622 1275 
L 4263 0 
L 3584 0 
L 2988 1197 
Q 2756 1666 2539 1819 
Q 2322 1972 1947 1972 
L 1259 1972 
L 1259 0 
L 628 0 
L 628 4666 
L 2053 4666 
Q 2853 4666 3247 4331 
Q 3641 3997 3641 3322 
Q 3641 2881 3436 2590 
Q 3231 2300 2841 2188 
z
M 1259 4147 
L 1259 2491 
L 2053 2491 
Q 2509 2491 2742 2702 
Q 2975 2913 2975 3322 
Q 2975 3731 2742 3939 
Q 2509 4147 2053 4147 
L 1259 4147 
z
" transform="scale(0.015625)"/>
      <path id="DejaVuSans-65" d="M 3597 1894 
L 3597 1613 
L 953 1613 
Q 991 1019 1311 708 
Q 1631 397 2203 397 
Q 2534 397 2845 478 
Q 3156 559 3463 722 
L 3463 178 
Q 3153 47 2828 -22 
Q 2503 -91 2169 -91 
Q 1331 -91 842 396 
Q 353 884 353 1716 
Q 353 2575 817 3079 
Q 1281 3584 2069 3584 
Q 2775 3584 3186 3129 
Q 3597 2675 3597 1894 
z
M 3022 2063 
Q 3016 2534 2758 2815 
Q 2500 3097 2075 3097 
Q 1594 3097 1305 2825 
Q 1016 2553 972 2059 
L 3022 2063 
z
" transform="scale(0.015625)"/>
      <path id="DejaVuSans-6c" d="M 603 4863 
L 1178 4863 
L 1178 0 
L 603 0 
L 603 4863 
z
" transform="scale(0.015625)"/>
      <path id="DejaVuSans-61" d="M 2194 1759 
Q 1497 1759 1228 1600 
Q 959 1441 959 1056 
Q 959 750 1161 570 
Q 1363 391 1709 391 
Q 2188 391 2477 730 
Q 2766 1069 2766 1631 
L 2766 1759 
L 2194 1759 
z
M 3341 1997 
L 3341 0 
L 2766 0 
L 2766 531 
Q 2569 213 2275 61 
Q 1981 -91 1556 -91 
Q 1019 -91 701 211 
Q 384 513 384 1019 
Q 384 1609 779 1909 
Q 1175 2209 1959 2209 
L 2766 2209 
L 2766 2266 
Q 2766 2663 2505 2880 
Q 2244 3097 1772 3097 
Q 1472 3097 1187 3025 
Q 903 2953 641 2809 
L 641 3341 
Q 956 3463 1253 3523 
Q 1550 3584 1831 3584 
Q 2591 3584 2966 3190 
Q 3341 2797 3341 1997 
z
" transform="scale(0.015625)"/>
      <path id="DejaVuSans-79" d="M 2059 -325 
Q 1816 -950 1584 -1140 
Q 1353 -1331 966 -1331 
L 506 -1331 
L 506 -850 
L 844 -850 
Q 1081 -850 1212 -737 
Q 1344 -625 1503 -206 
L 1606 56 
L 191 3500 
L 800 3500 
L 1894 763 
L 2988 3500 
L 3597 3500 
L 2059 -325 
z
" transform="scale(0.015625)"/>
     </defs>
     <use xlink:href="#DejaVuSans-52"/>
     <use xlink:href="#DejaVuSans-65" x="64.982422"/>
     <use xlink:href="#DejaVuSans-6c" x="126.505859"/>
     <use xlink:href="#DejaVuSans-61" x="154.289062"/>
     <use xlink:href="#DejaVuSans-79" x="215.568359"/>
    </g>
   </g>
  </g>
 </g>
 <defs>
  <clipPath id="p93e269cf49">
   <rect x="0" y="0" width="77.04" height="95.4907"/>
  </clipPath>
 </defs>
</svg>
