<?xml version="1.0" encoding="UTF-8"?>
<svg xmlns="http://www.w3.org/2000/svg" version="1.1" viewBox="0 0 179.6 177.6">
  <defs>
    <style>
      .cls-1 {
        stroke-width: 2px;
      }

      .cls-1, .cls-2, .cls-3, .cls-4 {
        fill: none;
        stroke: #000;
      }

      .cls-2 {
        stroke-width: 3.5px;
      }

      .cls-2, .cls-4 {
        stroke-linecap: round;
      }

      .cls-3 {
        stroke-linecap: square;
      }

      .cls-3, .cls-4 {
        stroke-width: 2px;
      }
    </style>
  </defs>
  <!-- Generator: Adobe Illustrator 28.6.0, SVG Export Plug-In . SVG Version: 1.2.0 Build 709)  -->
  <g>
    <g id="Layer_1">
      <g id="g2979">
        <path id="path2866" class="cls-2" d="M0,88.8h29.6"/>
        <path id="path2868" class="cls-2" d="M88.8,29.6V0"/>
        <path id="path2870" class="cls-2" d="M148,88.8h29.6"/>
        <path id="path2872" class="cls-2" d="M88.8,148v29.6"/>
        <path id="path2876" class="cls-2" d="M50,109.2l-20.4-20.4,20.4-20.4"/>
        <path id="path2878" class="cls-2" d="M66.6,51.8l22.2-22.2,20.4,20.4"/>
        <path id="path2880" class="cls-2" d="M125.8,66.6l22.2,22.2-22.2,22.2"/>
        <path id="path2882" class="cls-2" d="M109.2,127.7l-20.4,20.4-22.2-22.2"/>
        <path id="path2892" class="cls-4" d="M44.4,59.2l14.8,14.8,7.4-22.2-22.2,7.4Z"/>
        <path id="path2894" class="cls-3" d="M59.2,44.4l14.8,14.8"/>
        <path id="path2896" class="cls-4" d="M44.4,118.4l14.8-14.8,7.4,22.2-22.2-7.4Z"/>
        <path id="path2898" class="cls-3" d="M59.2,133.2l14.8-14.8"/>
        <path id="path2900" class="cls-4" d="M118.4,133.2l-14.8-14.8,22.2-7.4-7.4,22.2Z"/>
        <path id="path2902" class="cls-3" d="M133.2,118.4l-14.8-14.8"/>
        <path id="path2908" class="cls-4" d="M118.4,44.4l-14.8,14.8,22.2,7.4-7.4-22.2Z"/>
        <path id="path2910" class="cls-3" d="M133.2,59.2l-14.8,14.8"/>
        <g>
          <path id="path2932" class="cls-1" d="M179.6,79.5h-11.1"/>
          <path id="path2934" class="cls-1" d="M174.1,85.1v-11.1"/>
        </g>
        <path id="path2936" class="cls-1" d="M11.1,79.5H0"/>
        <path id="path2938" class="cls-4" d="M44.4,14.8c0-4.1,3.3-7.4,7.4-7.4s7.4,3.3,7.4,7.4,3.3,7.4,7.4,7.4,7.4-3.3,7.4-7.4"/>
        <path id="path2940" class="cls-4" d="M103.6,162.8c0-4.1,3.3-7.4,7.4-7.4s7.4,3.3,7.4,7.4,3.3,7.4,7.4,7.4,7.4-3.3,7.4-7.4"/>
      </g>
    </g>
  </g>
</svg>