<?xml version="1.0" encoding="UTF-8"?>
<svg xmlns="http://www.w3.org/2000/svg" version="1.1" viewBox="0 0 100 100" width="100" height="100">
  <defs>
    <style>
      .cls-1 {
        fill: none;
        stroke: #000;
        stroke-linecap: round;
        stroke-linejoin: round;
      }

      .cls-2 {
        fill-rule: evenodd;
      }

      .cls-3 {
        fill: #fff;
      }
    </style>
  </defs>
  <!-- Generator: Adobe Illustrator 28.6.0, SVG Export Plug-In . SVG Version: 1.2.0 Build 709)  -->
  <g>
    <g id="Layer_1">
      <g id="Layer_1-2" data-name="Layer_1">
        <rect class="cls-3" width="100" height="100"/>
        <g id="g5364">
          <path id="path3891" class="cls-1" d="M42.2,60.6l20.9,15.8v21.1"/>
          <path id="path1309" class="cls-1" d="M89.2,50c0,17.5-14.1,31.7-31.4,31.7s-31.4-14.2-31.4-31.7,14-31.7,31.4-31.7,31.4,14.2,31.4,31.7h0Z"/>
          <path id="path2184" class="cls-1" d="M10.8,50h31.4"/>
          <path id="path2186" class="cls-1" d="M42.2,31.5v36.9"/>
          <path id="path2188" class="cls-1" d="M42.2,39.4l20.9-15.8V2.5"/>
          <path id="path1913" class="cls-2" d="M58,72.6l-11.6-1.4,7-9.5,4.6,10.9Z"/>
        </g>
      </g>
      <g>
        <path d="M55.6,53.5v-8.1h1.1l2.6,4.1c.6.9,1.1,1.8,1.5,2.6h0c0-1.1-.1-2.1-.1-3.3v-3.4h1v8.1h-1.1l-2.6-4.1c-.6-.9-1.1-1.8-1.5-2.7h0c0,1,0,2,0,3.3v3.5h-1Z"/>
        <path d="M63.5,45.5c.5,0,1.2-.2,2-.2s1.8.2,2.3.7c.4.4.7,1,.7,1.7s-.2,1.3-.6,1.7c-.6.6-1.5.9-2.5.9s-.6,0-.8,0v3.2h-1v-8ZM64.5,49.4c.2,0,.5,0,.9,0,1.3,0,2-.6,2-1.7s-.8-1.6-1.9-1.6-.8,0-1,0v3.1Z"/>
        <path d="M69.9,53.5v-8.1h1.1l2.6,4.1c.6.9,1.1,1.8,1.5,2.6h0c0-1.1-.1-2.1-.1-3.3v-3.4h1v8.1h-1.1l-2.6-4.1c-.6-.9-1.1-1.8-1.5-2.7h0c0,1,0,2,0,3.3v3.5h-1Z"/>
      </g>
    </g>
  </g>
</svg>