<?xml version="1.0" encoding="UTF-8"?>
<svg xmlns="http://www.w3.org/2000/svg" version="1.1" viewBox="0 0 100 100" width="100" height="100">
  <defs>
    <style>
      .cls-1 {
        stroke-miterlimit: 10;
      }

      .cls-1, .cls-2 {
        fill: none;
        stroke: #010101;
      }

      .cls-3 {
        fill: #fff;
      }

      .cls-2 {
        stroke-linecap: round;
        stroke-linejoin: round;
      }
    </style>
  </defs>
  <!-- Generator: Adobe Illustrator 28.6.0, SVG Export Plug-In . SVG Version: 1.2.0 Build 709)  -->
  <g>
    <g id="Layer_1">
      <rect class="cls-3" width="100" height="100"/>
      <g>
        <path class="cls-2" d="M25.6,40.4"/>
        <line class="cls-2" x1="56.3" y1="28" x2="56.3" y2="71.6"/>
        <line class="cls-2" x1="47.3" y1="28" x2="47.3" y2="71.6"/>
        <g>
          <line class="cls-1" x1="70.7" y1="26.2" x2="73.9" y2="26.2"/>
          <path class="cls-2" d="M70.7,38c-3.3,0-5.9-2.6-5.9-5.9s2.6-5.9,5.9-5.9"/>
          <line class="cls-1" x1="70.7" y1="38" x2="73.9" y2="38"/>
          <path class="cls-2" d="M71.2,49.8c-3.3,0-5.9-2.6-5.9-5.9s2.6-5.9,5.9-5.9"/>
          <line class="cls-1" x1="71.2" y1="49.8" x2="74.4" y2="49.8"/>
          <path class="cls-2" d="M71.2,61.6c-3.3,0-5.9-2.6-5.9-5.9s2.6-5.9,5.9-5.9"/>
          <line class="cls-1" x1="71.2" y1="61.6" x2="74.4" y2="61.6"/>
          <path class="cls-2" d="M71.2,73.4c-3.3,0-5.9-2.6-5.9-5.9s2.6-5.9,5.9-5.9"/>
          <line class="cls-1" x1="71.2" y1="73.4" x2="74.2" y2="73.4"/>
        </g>
        <g>
          <line class="cls-1" x1="33.2" y1="73.8" x2="29.9" y2="73.8"/>
          <path class="cls-2" d="M33.2,62c3.3,0,5.9,2.6,5.9,5.9s-2.6,5.9-5.9,5.9"/>
          <line class="cls-1" x1="33.2" y1="62" x2="29.9" y2="62"/>
          <path class="cls-2" d="M32.6,50.2c3.3,0,5.9,2.6,5.9,5.9s-2.6,5.9-5.9,5.9"/>
          <line class="cls-1" x1="32.6" y1="50.2" x2="29.4" y2="50.2"/>
          <path class="cls-2" d="M32.6,38.4c3.3,0,5.9,2.6,5.9,5.9s-2.6,5.9-5.9,5.9"/>
          <line class="cls-1" x1="32.6" y1="38.4" x2="29.4" y2="38.4"/>
          <path class="cls-2" d="M32.6,26.6c3.3,0,5.9,2.6,5.9,5.9s-2.6,5.9-5.9,5.9"/>
          <line class="cls-1" x1="32.6" y1="26.6" x2="29.4" y2="26.6"/>
        </g>
        <line class="cls-2" x1="29.9" y1="73.8" x2="29.9" y2="97.5"/>
        <line class="cls-2" x1="74.2" y1="73.4" x2="74.2" y2="97"/>
        <line class="cls-2" x1="73.9" y1="2.5" x2="73.9" y2="26.2"/>
        <line class="cls-2" x1="29.4" y1="3" x2="29.4" y2="26.6"/>
      </g>
    </g>
  </g>
</svg>