<?xml version="1.0" encoding="UTF-8"?>
<svg id="Layer_1" xmlns="http://www.w3.org/2000/svg" version="1.1" viewBox="0 0 100 40">
  <g>
    <path d="M36.9,29.5c-.5,0-.8-.4-.8-.8V11.3c0-.5.4-.8.8-.8s.8.4.8.8v17.3c0,.5-.4.8-.8.8Z"/>
    <path d="M54.4,29.5c-.5,0-.8-.4-.8-.8V11.3c0-.5.4-.8.8-.8s.8.4.8.8v17.3c0,.5-.4.8-.8.8Z"/>
    <path d="M71.8,29.5c-.5,0-.8-.4-.8-.8V11.3c0-.5.4-.8.8-.8s.8.4.8.8v17.3c0,.5-.4.8-.8.8Z"/>
    <path d="M63.1,38.2c-.5,0-.8-.4-.8-.8V2.7c0-.5.4-.8.8-.8s.8.4.8.8v34.7c0,.5-.4.8-.8.8Z"/>
    <path d="M45.6,38.2c-.5,0-.8-.4-.8-.8V2.7c0-.5.4-.8.8-.8s.8.4.8.8v34.7c0,.5-.4.8-.8.8Z"/>
    <path d="M28.2,38.2c-.5,0-.8-.4-.8-.8V2.7c0-.5.4-.8.8-.8s.8.4.8.8v34.7c0,.5-.4.8-.8.8Z"/>
    <path d="M89.2,20.8h-17.4c-.5,0-.8-.4-.8-.8s.4-.8.8-.8h17.4c.5,0,.8.4.8.8s-.4.8-.8.8Z"/>
    <path d="M28.2,20.8H10.8c-.5,0-.8-.4-.8-.8s.4-.8.8-.8h17.4c.5,0,.8.4.8.8s-.4.8-.8.8Z"/>
  </g>
</svg>