<?xml version="1.0" encoding="UTF-8"?>
<svg id="Layer_1" xmlns="http://www.w3.org/2000/svg" version="1.1" viewBox="0 0 100 42" width="100" height="42">
  <defs>
    <style>
      .st0 { fill: #010101; }
    </style>
  </defs>
  <g>
    <g>
      <path class="st0" d="M72.2,18.1c0,.3-.2.5-.5.5H28.1c-.3,0-.5-.2-.5-.5s.2-.5.5-.5h43.6c.3,0,.5.2.5.5Z"/>
      <path class="st0" d="M72.2,23.9c0,.3-.2.5-.5.5H28.1c-.3,0-.5-.2-.5-.5s.2-.5.5-.5h43.6c.3,0,.5.2.5.5Z"/>
    </g>
    <g>
      <rect class="st0" x="25.3" y="2.7" width="2" height="3.2"/>
      <path class="st0" d="M39.1,5.9c0,3.9-3,6.9-6.9,6.9s-6.9-3-6.9-6.9.4-1,1-1,1,.4,1,1c0,2.7,2.2,4.9,4.9,4.9s4.9-2.2,4.9-4.9.4-1,1-1,1,.4,1,1Z"/>
      <rect class="st0" x="37.1" y="2.2" width="2" height="3.2"/>
      <path class="st0" d="M50.9,5.4c0,3.9-3,6.9-6.9,6.9s-6.9-3-6.9-6.9.4-1,1-1,1,.4,1,1c0,2.7,2.2,4.9,4.9,4.9s4.9-2.2,4.9-4.9.4-1,1-1,1,.4,1,1Z"/>
      <rect class="st0" x="48.9" y="2.2" width="2" height="3.2"/>
      <path class="st0" d="M62.7,5.4c0,3.9-3,6.9-6.9,6.9s-6.9-3-6.9-6.9.4-1,1-1,1,.4,1,1c0,2.7,2.2,4.9,4.9,4.9s4.9-2.2,4.9-4.9.4-1,1-1,1,.4,1,1Z"/>
      <rect class="st0" x="60.7" y="2.2" width="2" height="3.2"/>
      <path class="st0" d="M74.5,5.4c0,3.9-3,6.9-6.9,6.9s-6.9-3-6.9-6.9.4-1,1-1,1,.4,1,1c0,2.7,2.2,4.9,4.9,4.9s4.9-2.2,4.9-4.9.4-1,1-1,1,.4,1,1Z"/>
      <rect class="st0" x="72.5" y="2.4" width="2" height="3"/>
      <path class="st0" d="M98.1,2.7c0,.6-.4,1-1,1h-23.6c-.6,0-1-.4-1-1s.4-1,1-1h23.6c.6,0,1,.4,1,1Z"/>
      <path class="st0" d="M27.3,2.7c0,.6-.4,1-1,1H2.6c-.6,0-1-.4-1-1s.4-1,1-1h23.7c.6,0,1,.4,1,1Z"/>
    </g>
    <g>
      <rect class="st0" x="25.5" y="36.1" width="2" height="3.2"/>
      <path class="st0" d="M39.3,36.1c0-3.9-3-6.9-6.9-6.9s-6.9,3-6.9,6.9.4,1,1,1,1-.4,1-1c0-2.7,2.2-4.9,4.9-4.9s4.9,2.2,4.9,4.9.4,1,1,1,1-.4,1-1Z"/>
      <rect class="st0" x="37.3" y="36.6" width="2" height="3.2"/>
      <path class="st0" d="M51,36.6c0-3.9-3-6.9-6.9-6.9s-6.9,3-6.9,6.9.4,1,1,1,1-.4,1-1c0-2.7,2.2-4.9,4.9-4.9s4.9,2.2,4.9,4.9.4,1,1,1,1-.4,1-1Z"/>
      <rect class="st0" x="49" y="36.6" width="2" height="3.2"/>
      <path class="st0" d="M62.8,36.6c0-3.9-3-6.9-6.9-6.9s-6.9,3-6.9,6.9.4,1,1,1,1-.4,1-1c0-2.7,2.2-4.9,4.9-4.9s4.9,2.2,4.9,4.9.4,1,1,1,1-.4,1-1Z"/>
      <rect class="st0" x="60.8" y="36.6" width="2" height="3.2"/>
      <path class="st0" d="M74.7,36.6c0-3.9-3-6.9-6.9-6.9s-6.9,3-6.9,6.9.4,1,1,1,1-.4,1-1c0-2.7,2.2-4.9,4.9-4.9s4.9,2.2,4.9,4.9.4,1,1,1,1-.4,1-1Z"/>
      <rect class="st0" x="72.7" y="36.6" width="2" height="3"/>
      <path class="st0" d="M98.2,39.3c0-.6-.4-1-1-1h-23.6c-.6,0-1,.4-1,1s.4,1,1,1h23.6c.6,0,1-.4,1-1Z"/>
      <path class="st0" d="M27.5,39.3c0-.6-.4-1-1-1H2.8c-.6,0-1,.4-1,1s.4,1,1,1h23.7c.6,0,1-.4,1-1Z"/>
    </g>
  </g>
</svg>