<?xml version="1.0" encoding="UTF-8"?>
<svg xmlns="http://www.w3.org/2000/svg" version="1.1" viewBox="0 0 100 100">
  <defs>
    <style>
      .cls-1, .cls-2 {
        fill: none;
        stroke: #000;
        stroke-width: 2px;
      }

      .cls-3 {
        fill: #fff;
      }

      .cls-2 {
        stroke-linecap: square;
      }
    </style>
  </defs>
  <!-- Generator: Adobe Illustrator 28.6.0, SVG Export Plug-In . SVG Version: 1.2.0 Build 709)  -->
  <g>
    <g id="Layer_1">
      <rect class="cls-3" width="100" height="100"/>
      <g id="g2979">
        <path id="path2866" class="cls-2" d="M2.5,50h15.7"/>
        <path id="path2868" class="cls-2" d="M49.5,18.7V3"/>
        <path id="path2870" class="cls-2" d="M80.8,50h15.7"/>
        <path id="path2872" class="cls-2" d="M49.5,81.3v15.7"/>
        <path id="path2876" class="cls-2" d="M28.9,60.8l-10.8-10.8,10.8-10.8"/>
        <path id="path2878" class="cls-2" d="M37.7,30.4l11.7-11.7,10.8,10.8"/>
        <path id="path2880" class="cls-2" d="M69,38.3l11.7,11.7-11.7,11.7"/>
        <path id="path2882" class="cls-2" d="M60.2,70.5l-10.8,10.8-11.7-11.7"/>
        <path id="path2892" class="cls-2" d="M26,34.3l7.8,7.8,3.9-11.7-11.7,3.9Z"/>
        <path id="path2894" class="cls-2" d="M33.8,26.5l7.8,7.8"/>
        <path id="path2896" class="cls-2" d="M26,65.7l7.8-7.8,3.9,11.7-11.7-3.9Z"/>
        <path id="path2898" class="cls-2" d="M33.8,73.5l7.8-7.8"/>
        <path id="path2900" class="cls-2" d="M65.1,73.5l-7.8-7.8,11.7-3.9s-3.9,11.7-3.9,11.7Z"/>
        <path id="path2902" class="cls-2" d="M72.9,65.7l-7.8-7.8"/>
        <path id="path2908" class="cls-2" d="M65.1,26.5l-7.8,7.8,11.7,3.9-3.9-11.7Z"/>
        <path id="path2910" class="cls-2" d="M72.9,34.3l-7.8,7.8"/>
        <g>
          <path id="path2932" class="cls-1" d="M97.5,45.1h-5.9"/>
          <path id="path2934" class="cls-1" d="M94.6,48v-5.9"/>
        </g>
        <path id="path2936" class="cls-1" d="M8.4,45.1H2.5"/>
        <path id="path2938" class="cls-2" d="M26,10.9c0-2.2,1.8-3.9,3.9-3.9s3.9,1.8,3.9,3.9,1.8,3.9,3.9,3.9,3.9-1.8,3.9-3.9"/>
        <path id="path2940" class="cls-2" d="M57.3,89.1c0-2.2,1.8-3.9,3.9-3.9s3.9,1.8,3.9,3.9,1.8,3.9,3.9,3.9,3.9-1.8,3.9-3.9"/>
      </g>
    </g>
  </g>
</svg>