<?xml version="1.0" encoding="UTF-8"?>
<svg id="Layer_1" xmlns="http://www.w3.org/2000/svg" version="1.1" viewBox="0 0 100 40" width="100" height="40">
  <defs>
    <style>
      .st0 { fill: #010101; }
    </style>
  </defs>
  <g>
    <path d="M50,27c-1,0-1.8-.8-1.8-1.8V2.8c0-1,.8-1.8,1.8-1.8s1.8.8,1.8,1.8v22.5c0,1-.8,1.8-1.8,1.8Z"/>
    <path d="M50,27c-.4,0-.9-.2-1.2-.5l-9-9c-.7-.7-.7-1.8,0-2.5.7-.7,1.8-.7,2.5,0l7.8,7.8,7.8-7.8c.7-.7,1.8-.7,2.5,0,.7.7.7,1.8,0,2.5l-9,9c-.3.3-.8.5-1.2.5Z"/>
    <g>
      <rect class="st0" x="25.5" y="28.9" width="2" height="3.2"/>
      <path class="st0" d="M39.2,32.1c0,3.9-3,6.9-6.9,6.9s-6.9-3-6.9-6.9.4-1,1-1,1,.4,1,1c0,2.7,2.2,4.9,4.9,4.9s4.9-2.2,4.9-4.9.4-1,1-1,1,.4,1,1Z"/>
      <rect class="st0" x="37.2" y="28.4" width="2" height="3.2"/>
      <path class="st0" d="M51,31.6c0,3.9-3,6.9-6.9,6.9s-6.9-3-6.9-6.9.4-1,1-1,1,.4,1,1c0,2.7,2.2,4.9,4.9,4.9s4.9-2.2,4.9-4.9.4-1,1-1,1,.4,1,1Z"/>
      <rect class="st0" x="49" y="28.4" width="2" height="3.2"/>
      <path class="st0" d="M62.8,31.6c0,3.9-3,6.9-6.9,6.9s-6.9-3-6.9-6.9.4-1,1-1,1,.4,1,1c0,2.7,2.2,4.9,4.9,4.9s4.9-2.2,4.9-4.9.4-1,1-1,1,.4,1,1Z"/>
      <rect class="st0" x="60.8" y="28.4" width="2" height="3.2"/>
      <path class="st0" d="M74.7,31.6c0,3.9-3,6.9-6.9,6.9s-6.9-3-6.9-6.9.4-1,1-1,1,.4,1,1c0,2.7,2.2,4.9,4.9,4.9s4.9-2.2,4.9-4.9.4-1,1-1,1,.4,1,1Z"/>
      <rect class="st0" x="72.7" y="28.6" width="2" height="3"/>
      <path class="st0" d="M98.2,28.9c0,.6-.4,1-1,1h-23.6c-.6,0-1-.4-1-1s.4-1,1-1h23.6c.6,0,1,.4,1,1Z"/>
      <path class="st0" d="M27.5,28.9c0,.6-.4,1-1,1H2.8c-.6,0-1-.4-1-1s.4-1,1-1h23.7c.6,0,1,.4,1,1Z"/>
    </g>
  </g>
</svg>