<?xml version="1.0" encoding="UTF-8"?>
<svg id="Layer_1" xmlns="http://www.w3.org/2000/svg" version="1.1" viewBox="0 0 100 40.7" width="100" height="40.7">
  <g>
    <path d="M49.8,17.4c-.6,0-1.1-.5-1.1-1.1V2.3c0-.6.5-1.1,1.1-1.1s1.1.5,1.1,1.1v14c0,.6-.5,1.1-1.1,1.1Z"/>
    <path d="M49.8,17.4c-.3,0-.6-.1-.8-.3l-5.6-5.6c-.4-.4-.4-1.1,0-1.5.4-.4,1.1-.4,1.5,0l4.8,4.8,4.8-4.8c.4-.4,1.1-.4,1.5,0,.4.4.4,1.1,0,1.5l-5.6,5.6c-.2.2-.5.3-.8.3Z"/>
  </g>
  <path d="M63.2,38.9c-.4,0-.8-.3-.9-.7l-4.4-13.3-4.4,13.3c-.1.4-.5.7-.9.7s-.8-.3-.9-.7l-4.4-13.3-4.4,13.3c-.1.4-.5.7-.9.7h0c-.4,0-.8-.3-.9-.7l-4.4-13.3-1.7,5.2c-.1.4-.5.7-.9.7H1.5c-.6,0-1-.4-1-1s.4-1,1-1h31.4l2.5-7.4c.1-.4.5-.7.9-.7h0c.4,0,.8.3.9.7l4.4,13.3,4.4-13.3c.1-.4.5-.7.9-.7s.8.3.9.7l4.4,13.3,4.4-13.3c.1-.4.5-.7.9-.7s.8.3.9.7l4.4,13.3,1.7-5.2c.1-.4.5-.7.9-.7h32.2c.6,0,1,.4,1,1s-.4,1-1,1h-31.4l-2.5,7.4c-.1.4-.5.7-.9.7Z"/>
</svg>