<?xml version="1.0" encoding="UTF-8"?>
<svg id="Layer_1" xmlns="http://www.w3.org/2000/svg" version="1.1" viewBox="0 0 100 100">
  <!-- Generator: Adobe Illustrator 29.4.0, SVG Export Plug-In . SVG Version: 2.1.0 Build 152)  -->
  <defs>
    <style>
      .st0 { fill-rule: evenodd; }
      .st1 { fill: #fff; }
    </style>
  </defs>
  <g>
    <g>
      <path d="M63.1,98.5c-.6,0-1-.4-1-1v-20.6l-20.5-15.5c-.4-.3-.5-1-.2-1.4.3-.4,1-.5,1.4-.2l20.9,15.8c.2.2.4.5.4.8v21.1c0,.6-.4,1-1,1Z"/>
      <path d="M57.8,82.7c-17.9,0-32.4-14.7-32.4-32.7s14.5-32.7,32.4-32.7,32.4,14.7,32.4,32.7-14.5,32.7-32.4,32.7ZM57.8,19.3c-16.8,0-30.4,13.8-30.4,30.7s13.6,30.7,30.4,30.7,30.4-13.8,30.4-30.7-13.6-30.7-30.4-30.7Z"/>
      <path d="M42.2,51H10.8c-.6,0-1-.4-1-1s.4-1,1-1h31.4c.6,0,1,.4,1,1s-.4,1-1,1Z"/>
      <path d="M42.2,69.4c-.6,0-1-.4-1-1V31.5c0-.6.4-1,1-1s1,.4,1,1v36.9c0,.6-.4,1-1,1Z"/>
      <path d="M42.2,40.4c-.3,0-.6-.1-.8-.4-.3-.4-.2-1.1.2-1.4l20.5-15.5V2.5c0-.6.4-1,1-1s1,.4,1,1v21.1c0,.3-.1.6-.4.8l-20.9,15.8c-.2.1-.4.2-.6.2Z"/>
      <path id="path1913" class="st0" d="M58.6,73.2l-12.8-1.5,7.7-10.5,5.1,12Z"/>
    </g>
    <g>
      <path d="M52,55v-11h1.5l3.5,5.6c.8,1.2,1.5,2.4,2,3.5h0c0-1.5-.1-2.8-.1-4.5v-4.6h1.4v11h-1.5l-3.5-5.6c-.8-1.2-1.5-2.4-2-3.7h0v9.2h-1.4.1Z"/>
      <path d="M62.7,44.1c.7,0,1.6-.3,2.7-.3s2.4.3,3.1.9.9,1.4.9,2.3-.3,1.8-.8,2.3c-.8.8-2,1.2-3.4,1.2s-.8,0-1.1,0v4.3h-1.4v-10.8h-.1ZM64.1,49.4h1.2c1.8,0,2.7-.8,2.7-2.3s-1.1-2.2-2.6-2.2-1.1,0-1.4,0v4.5Z"/>
      <path d="M71.4,55v-11h1.5l3.5,5.6c.8,1.2,1.5,2.4,2,3.5h0c0-1.5-.1-2.8-.1-4.5v-4.6h1.4v11h-1.5l-3.5-5.6c-.8-1.2-1.5-2.4-2-3.7h0v9.2h-1.4.1Z"/>
    </g>
  </g>
</svg>