<?xml version="1.0" encoding="UTF-8"?>
<svg id="Layer_1" xmlns="http://www.w3.org/2000/svg" width="5.597in" height="2.167in" xmlns:xlink="http://www.w3.org/1999/xlink" version="1.1" viewBox="0 0 403 156">
  <!-- Generator: Adobe Illustrator 29.4.0, SVG Export Plug-In . SVG Version: 2.1.0 Build 152)  -->
  <defs>
    <style>
      .st0, .st1, .st2, .st3, .st4 {
        fill: none;
      }

      .st1 {
        stroke: red;
        stroke-width: 1.491px;
      }

      .st1, .st2, .st4, .st5 {
        stroke-linejoin: round;
      }

      .st1, .st3, .st4 {
        stroke-linecap: square;
      }

      .st6 {
        isolation: isolate;
        opacity: .8;
        stroke: #ccc;
        stroke-width: .994px;
      }

      .st6, .st3 {
        stroke-miterlimit: 3.977;
      }

      .st6, .st7 {
        fill: #fff;
      }

      .st2 {
        stroke: gray;
        stroke-dasharray: .497 .82;
      }

      .st2, .st4 {
        stroke-width: .497px;
      }

      .st8 {
        font-family: MyriadPro-Regular, 'Myriad Pro';
        font-size: 12px;
      }

      .st3, .st4, .st5 {
        stroke: #000;
      }

      .st3, .st5 {
        stroke-width: .795px;
      }

      .st9 {
        clip-path: url(#clippath-11);
      }

      .st10 {
        clip-path: url(#clippath-10);
      }

      .st11 {
        clip-path: url(#clippath-13);
      }

      .st12 {
        clip-path: url(#clippath-12);
      }

      .st13 {
        clip-path: url(#clippath-1);
      }

      .st14 {
        clip-path: url(#clippath-3);
      }

      .st15 {
        clip-path: url(#clippath-4);
      }

      .st16 {
        clip-path: url(#clippath-2);
      }

      .st17 {
        clip-path: url(#clippath-7);
      }

      .st18 {
        clip-path: url(#clippath-6);
      }

      .st19 {
        clip-path: url(#clippath-9);
      }

      .st20 {
        clip-path: url(#clippath-8);
      }

      .st21 {
        clip-path: url(#clippath-5);
      }

      .st22 {
        clip-path: url(#clippath);
      }
    </style>
    <clipPath id="clippath">
      <rect class="st0" x="55.827" y="22.191" width="332.891" height="96.467"/>
    </clipPath>
    <clipPath id="clippath-1">
      <rect class="st0" x="55.827" y="22.191" width="332.891" height="96.467"/>
    </clipPath>
    <clipPath id="clippath-2">
      <rect class="st0" x="55.827" y="22.191" width="332.891" height="96.467"/>
    </clipPath>
    <clipPath id="clippath-3">
      <rect class="st0" x="55.827" y="22.191" width="332.891" height="96.467"/>
    </clipPath>
    <clipPath id="clippath-4">
      <rect class="st0" x="55.827" y="22.191" width="332.891" height="96.467"/>
    </clipPath>
    <clipPath id="clippath-5">
      <rect class="st0" x="55.827" y="22.191" width="332.891" height="96.467"/>
    </clipPath>
    <clipPath id="clippath-6">
      <rect class="st0" x="55.827" y="22.191" width="332.891" height="96.467"/>
    </clipPath>
    <clipPath id="clippath-7">
      <rect class="st0" x="55.827" y="22.191" width="332.891" height="96.467"/>
    </clipPath>
    <clipPath id="clippath-8">
      <rect class="st0" x="55.827" y="22.191" width="332.891" height="96.467"/>
    </clipPath>
    <clipPath id="clippath-9">
      <rect class="st0" x="55.827" y="22.191" width="332.891" height="96.467"/>
    </clipPath>
    <clipPath id="clippath-10">
      <rect class="st0" x="55.827" y="22.191" width="332.891" height="96.467"/>
    </clipPath>
    <clipPath id="clippath-11">
      <rect class="st0" x="55.827" y="22.191" width="332.891" height="96.467"/>
    </clipPath>
    <clipPath id="clippath-12">
      <rect class="st0" x="55.827" y="22.191" width="332.891" height="96.467"/>
    </clipPath>
    <clipPath id="clippath-13">
      <rect class="st0" x="55.827" y="22.191" width="332.891" height="96.467"/>
    </clipPath>
  </defs>
  <g id="patch_1">
    <path class="st7" d="M0,156h403V0H0v156Z"/>
  </g>
  <g id="axes_1">
    <g id="patch_2">
      <path class="st7" d="M55.827,118.658h332.891V22.191H55.827v96.467Z"/>
    </g>
    <g id="matplotlib.axis_1">
      <g id="xtick_1">
        <g id="line2d_1">
          <g class="st22">
            <path class="st2" d="M70.958,118.658V22.191"/>
          </g>
        </g>
        <g id="line2d_2">
          <path id="m6d1208c169" class="st5" d="M70.958,118.658v3.48"/>
        </g>
        <g id="text_1">
          <path id="DejaVuSans-30" d="M70.955,126.57c-.504,0-.884.249-1.139.746-.254.496-.381,1.243-.381,2.24s.127,1.738.381,2.236c.255.497.634.746,1.139.746.509,0,.89-.249,1.143-.746.255-.497.382-1.242.382-2.236s-.127-1.744-.382-2.24c-.254-.497-.635-.746-1.143-.746ZM70.955,125.793c.813,0,1.434.322,1.863.965.429.642.643,1.575.643,2.798s-.214,2.152-.643,2.795c-.429.642-1.05.963-1.863.963s-1.432-.321-1.861-.963c-.429-.643-.643-1.575-.643-2.795s.214-2.156.643-2.798c.429-.643,1.049-.965,1.861-.965Z"/>
        </g>
      </g>
      <g id="xtick_2">
        <g id="line2d_3">
          <g class="st13">
            <path class="st2" d="M116.352,118.658V22.191"/>
          </g>
        </g>
        <g id="line2d_4">
          <path id="m6d1208c1691" data-name="m6d1208c169" class="st5" d="M116.352,118.658v3.48"/>
        </g>
        <g id="text_2">
          <path id="DejaVuSans-35" d="M114.263,125.924h3.85v.827h-2.952v1.776c.142-.049.284-.085.426-.109.143-.024.286-.036.429-.036.809,0,1.45.222,1.922.665.473.443.71,1.043.71,1.801,0,.78-.243,1.386-.729,1.819-.486.432-1.17.648-2.054.648-.305,0-.615-.026-.931-.078-.315-.052-.641-.129-.977-.233v-.987c.291.158.592.277.903.354s.639.117.985.117c.56,0,1.004-.147,1.33-.441.327-.294.491-.694.491-1.199s-.164-.904-.491-1.198c-.326-.295-.77-.443-1.33-.443-.262,0-.524.029-.785.087-.26.058-.526.149-.797.272v-3.642Z"/>
        </g>
      </g>
      <g id="xtick_3">
        <g id="line2d_5">
          <g class="st16">
            <path class="st2" d="M161.747,118.658V22.191"/>
          </g>
        </g>
        <g id="line2d_6">
          <path id="m6d1208c1692" data-name="m6d1208c169" class="st5" d="M161.747,118.658v3.48"/>
        </g>
        <g id="text_3">
          <g>
            <path id="DejaVuSans-31" d="M156.654,132.348h1.602v-5.531l-1.743.35v-.893l1.734-.35h.98v6.424h1.602v.825h-4.175v-.825Z"/>
            <path id="DejaVuSans-301" data-name="DejaVuSans-30" d="M164.906,126.57c-.504,0-.884.249-1.139.746-.254.496-.381,1.243-.381,2.24s.127,1.738.381,2.236c.255.497.634.746,1.139.746.509,0,.89-.249,1.143-.746.255-.497.382-1.242.382-2.236s-.127-1.744-.382-2.24c-.254-.497-.635-.746-1.143-.746ZM164.906,125.793c.813,0,1.434.322,1.863.965.429.642.643,1.575.643,2.798s-.214,2.152-.643,2.795c-.429.642-1.05.963-1.863.963s-1.432-.321-1.861-.963c-.429-.643-.643-1.575-.643-2.795s.214-2.156.643-2.798c.429-.643,1.049-.965,1.861-.965Z"/>
          </g>
        </g>
      </g>
      <g id="xtick_4">
        <g id="line2d_7">
          <g class="st14">
            <path class="st2" d="M207.141,118.658V22.191"/>
          </g>
        </g>
        <g id="line2d_8">
          <path id="m6d1208c1693" data-name="m6d1208c169" class="st5" d="M207.141,118.658v3.48"/>
        </g>
        <g id="text_4">
          <g>
            <path id="DejaVuSans-311" data-name="DejaVuSans-31" d="M202.048,132.348h1.602v-5.531l-1.743.35v-.893l1.734-.35h.98v6.424h1.602v.825h-4.175v-.825Z"/>
            <path id="DejaVuSans-351" data-name="DejaVuSans-35" d="M208.214,125.924h3.85v.827h-2.952v1.776c.142-.049.284-.085.426-.109.143-.024.286-.036.429-.036.809,0,1.45.222,1.922.665.473.443.71,1.043.71,1.801,0,.78-.243,1.386-.729,1.819-.486.432-1.17.648-2.054.648-.305,0-.615-.026-.931-.078-.315-.052-.641-.129-.977-.233v-.987c.291.158.592.277.903.354s.639.117.985.117c.56,0,1.004-.147,1.33-.441.327-.294.491-.694.491-1.199s-.164-.904-.491-1.198c-.326-.295-.77-.443-1.33-.443-.262,0-.524.029-.785.087-.26.058-.526.149-.797.272v-3.642Z"/>
          </g>
        </g>
      </g>
      <g id="xtick_5">
        <g id="line2d_9">
          <g class="st15">
            <path class="st2" d="M252.535,118.658V22.191"/>
          </g>
        </g>
        <g id="line2d_10">
          <path id="m6d1208c1694" data-name="m6d1208c169" class="st5" d="M252.535,118.658v3.48"/>
        </g>
        <g id="text_5">
          <g>
            <path id="DejaVuSans-32" d="M248.117,132.348h3.423v.825h-4.602v-.825c.372-.385.879-.902,1.521-1.55.643-.649,1.047-1.068,1.212-1.257.314-.352.533-.65.657-.895.125-.244.188-.485.188-.721,0-.385-.135-.699-.405-.941-.27-.243-.622-.365-1.056-.365-.308,0-.632.053-.974.16-.341.107-.705.269-1.094.486v-.991c.395-.158.763-.278,1.106-.359.344-.081.658-.121.943-.121.751,0,1.35.188,1.796.564.446.375.67.876.67,1.504,0,.298-.056.581-.168.848-.111.266-.314.581-.609.943-.081.094-.338.366-.772.814-.433.448-1.045,1.076-1.835,1.881Z"/>
            <path id="DejaVuSans-302" data-name="DejaVuSans-30" d="M255.695,126.57c-.504,0-.884.249-1.139.746-.254.496-.381,1.243-.381,2.24s.127,1.738.381,2.236c.255.497.634.746,1.139.746.509,0,.89-.249,1.143-.746.255-.497.382-1.242.382-2.236s-.127-1.744-.382-2.24c-.254-.497-.635-.746-1.143-.746ZM255.695,125.793c.813,0,1.434.322,1.863.965.429.642.643,1.575.643,2.798s-.214,2.152-.643,2.795c-.429.642-1.05.963-1.863.963s-1.432-.321-1.861-.963c-.429-.643-.643-1.575-.643-2.795s.214-2.156.643-2.798c.429-.643,1.049-.965,1.861-.965Z"/>
          </g>
        </g>
      </g>
      <g id="xtick_6">
        <g id="line2d_11">
          <g class="st21">
            <path class="st2" d="M297.929,118.658V22.191"/>
          </g>
        </g>
        <g id="line2d_12">
          <path id="m6d1208c1695" data-name="m6d1208c169" class="st5" d="M297.929,118.658v3.48"/>
        </g>
        <g id="text_6">
          <g>
            <path id="DejaVuSans-321" data-name="DejaVuSans-32" d="M293.511,132.348h3.423v.825h-4.602v-.825c.372-.385.879-.902,1.521-1.55.643-.649,1.047-1.068,1.212-1.257.314-.352.533-.65.657-.895.125-.244.188-.485.188-.721,0-.385-.135-.699-.405-.941-.27-.243-.622-.365-1.056-.365-.308,0-.632.053-.974.16-.341.107-.705.269-1.094.486v-.991c.395-.158.763-.278,1.106-.359.344-.081.658-.121.943-.121.751,0,1.35.188,1.796.564.446.375.67.876.67,1.504,0,.298-.056.581-.168.848-.111.266-.314.581-.609.943-.081.094-.338.366-.772.814-.433.448-1.045,1.076-1.835,1.881Z"/>
            <path id="DejaVuSans-352" data-name="DejaVuSans-35" d="M299.003,125.924h3.85v.827h-2.952v1.776c.142-.049.284-.085.426-.109.143-.024.286-.036.429-.036.809,0,1.45.222,1.922.665.473.443.71,1.043.71,1.801,0,.78-.243,1.386-.729,1.819-.486.432-1.17.648-2.054.648-.305,0-.615-.026-.931-.078-.315-.052-.641-.129-.977-.233v-.987c.291.158.592.277.903.354s.639.117.985.117c.56,0,1.004-.147,1.33-.441.327-.294.491-.694.491-1.199s-.164-.904-.491-1.198c-.326-.295-.77-.443-1.33-.443-.262,0-.524.029-.785.087-.26.058-.526.149-.797.272v-3.642Z"/>
          </g>
        </g>
      </g>
      <g id="xtick_7">
        <g id="line2d_13">
          <g class="st18">
            <path class="st2" d="M343.324,118.658V22.191"/>
          </g>
        </g>
        <g id="line2d_14">
          <path id="m6d1208c1696" data-name="m6d1208c169" class="st5" d="M343.324,118.658v3.48"/>
        </g>
        <g id="text_7">
          <g>
            <path id="DejaVuSans-33" d="M341.032,129.264c.469.1.835.31,1.098.628.264.317.396.708.396,1.175,0,.715-.246,1.268-.738,1.661-.492.392-1.191.587-2.097.587-.303,0-.616-.03-.938-.09-.322-.06-.655-.15-.997-.27v-.946c.271.158.569.278.892.359.324.081.663.121,1.016.121.614,0,1.082-.121,1.404-.364s.483-.595.483-1.058c0-.428-.15-.762-.449-1.002-.299-.241-.716-.362-1.249-.362h-.845v-.806h.884c.482,0,.85-.096,1.106-.289s.384-.47.384-.833c0-.372-.132-.657-.396-.856-.263-.2-.641-.3-1.133-.3-.269,0-.558.03-.865.089-.308.058-.646.148-1.014.27v-.873c.373-.104.722-.181,1.047-.233s.632-.078.92-.078c.745,0,1.334.169,1.766.508.434.338.651.794.651,1.37,0,.402-.115.741-.345,1.018s-.557.468-.98.575Z"/>
            <path id="DejaVuSans-303" data-name="DejaVuSans-30" d="M346.484,126.57c-.504,0-.884.249-1.139.746-.254.496-.381,1.243-.381,2.24s.127,1.738.381,2.236c.255.497.634.746,1.139.746.509,0,.89-.249,1.143-.746.255-.497.382-1.242.382-2.236s-.127-1.744-.382-2.24c-.254-.497-.635-.746-1.143-.746ZM346.484,125.793c.813,0,1.434.322,1.863.965.429.642.643,1.575.643,2.798s-.214,2.152-.643,2.795c-.429.642-1.05.963-1.863.963s-1.432-.321-1.861-.963c-.429-.643-.643-1.575-.643-2.795s.214-2.156.643-2.798c.429-.643,1.049-.965,1.861-.965Z"/>
          </g>
        </g>
      </g>
      <g id="xtick_8">
        <g id="line2d_15">
          <g class="st17">
            <path class="st2" d="M388.718,118.658V22.191"/>
          </g>
        </g>
        <g id="line2d_16">
          <path id="m6d1208c1697" data-name="m6d1208c169" class="st5" d="M388.718,118.658v3.48"/>
        </g>
        <g id="text_8">
          <g>
            <path id="DejaVuSans-331" data-name="DejaVuSans-33" d="M386.426,129.264c.469.1.835.31,1.098.628.264.317.396.708.396,1.175,0,.715-.246,1.268-.738,1.661-.492.392-1.191.587-2.097.587-.303,0-.616-.03-.938-.09-.322-.06-.655-.15-.997-.27v-.946c.271.158.569.278.892.359.324.081.663.121,1.016.121.614,0,1.082-.121,1.404-.364s.483-.595.483-1.058c0-.428-.15-.762-.449-1.002-.299-.241-.716-.362-1.249-.362h-.845v-.806h.884c.482,0,.85-.096,1.106-.289s.384-.47.384-.833c0-.372-.132-.657-.396-.856-.263-.2-.641-.3-1.133-.3-.269,0-.558.03-.865.089-.308.058-.646.148-1.014.27v-.873c.373-.104.722-.181,1.047-.233s.632-.078.92-.078c.745,0,1.334.169,1.766.508.434.338.651.794.651,1.37,0,.402-.115.741-.345,1.018s-.557.468-.98.575Z"/>
            <path id="DejaVuSans-353" data-name="DejaVuSans-35" d="M389.791,125.924h3.85v.827h-2.952v1.776c.142-.049.284-.085.426-.109.143-.024.286-.036.429-.036.809,0,1.45.222,1.922.665.473.443.71,1.043.71,1.801,0,.78-.243,1.386-.729,1.819-.486.432-1.17.648-2.054.648-.305,0-.615-.026-.931-.078-.315-.052-.641-.129-.977-.233v-.987c.291.158.592.277.903.354s.639.117.985.117c.56,0,1.004-.147,1.33-.441.327-.294.491-.694.491-1.199s-.164-.904-.491-1.198c-.326-.295-.77-.443-1.33-.443-.262,0-.524.029-.785.087-.26.058-.526.149-.797.272v-3.642Z"/>
          </g>
        </g>
      </g>
      <g>
        <path d="M193.32,140.475h-2.812v-.898h6.901v.898h-2.852v8.582h-1.237v-8.582Z"/>
        <path d="M200.13,140.41c0,.217-.076.403-.228.56s-.341.234-.566.234c-.217,0-.402-.078-.554-.234s-.228-.343-.228-.56.076-.404.228-.561.336-.234.554-.234.404.078.56.234.234.344.234.561ZM199.896,142.585v6.472h-1.081v-5.704l-.156-.768h1.237Z"/>
        <path d="M204.506,142.429c.521,0,.959.106,1.314.318.356.213.623.508.801.886s.268.818.268,1.321c0,.122-.007.246-.02.371-.014.126-.028.259-.046.397h-4.115c0,.825.183,1.463.547,1.914.365.452.852.678,1.459.678.252,0,.515-.039.788-.117s.558-.195.853-.352l.403.65c-.304.243-.646.426-1.028.547-.382.122-.769.183-1.159.183-.512,0-.957-.094-1.335-.28-.377-.187-.689-.438-.938-.755-.247-.316-.431-.675-.553-1.074s-.183-.808-.183-1.224c0-.435.061-.855.183-1.264s.306-.779.553-1.113c.248-.334.554-.599.918-.794.365-.195.795-.293,1.29-.293ZM204.401,143.249c-.295,0-.556.082-.781.247s-.408.376-.547.632c-.14.256-.234.519-.287.787h2.97c.008-.364-.042-.67-.15-.918-.108-.247-.265-.434-.469-.56s-.449-.188-.735-.188Z"/>
        <path d="M209.232,142.493c.061.14.112.287.156.443.043.156.073.308.091.455.156-.156.336-.308.54-.455s.424-.27.658-.365c.234-.095.464-.143.69-.143.416,0,.772.084,1.067.254.295.169.534.444.716.826.174-.173.369-.343.586-.508.217-.164.447-.301.69-.41.243-.108.49-.162.742-.162.478,0,.861.1,1.152.299.291.2.502.472.632.814s.195.74.195,1.191v4.323h-1.081v-3.972c0-.2-.011-.397-.032-.593s-.067-.378-.137-.547-.176-.304-.319-.403c-.143-.1-.341-.15-.593-.15-.304,0-.603.098-.898.293-.295.195-.542.394-.742.593v4.779h-1.08v-3.972c0-.2-.009-.399-.026-.6-.018-.199-.061-.382-.13-.547-.07-.164-.179-.297-.326-.396s-.347-.15-.599-.15c-.191,0-.387.046-.586.137-.2.092-.391.204-.573.339s-.343.263-.481.384v4.806h-1.081v-4.701c0-.183-.016-.378-.046-.586s-.076-.412-.137-.612c-.061-.199-.139-.377-.234-.533l1.186-.131Z"/>
        <path d="M220.014,142.493c.069.14.124.285.163.437.039.152.067.302.085.449.226-.286.505-.515.84-.684.334-.169.688-.254,1.062-.254.46,0,.859.096,1.197.286.339.191.619.449.84.775.222.325.387.686.495,1.08.108.396.163.797.163,1.205,0,.442-.062.87-.183,1.282-.122.413-.302.781-.54,1.107-.239.325-.541.581-.905.768s-.79.28-1.276.28c-.295,0-.588-.048-.879-.144-.291-.095-.545-.242-.762-.442.018.122.026.243.026.364v2.097l.182.769h-1.25v-7.396c0-.183-.013-.386-.039-.612-.025-.226-.067-.446-.123-.664-.057-.217-.137-.403-.241-.56l1.146-.144ZM221.837,143.392c-.295,0-.573.09-.833.268-.261.178-.482.375-.664.592v2.188c0,.338.054.653.162.943.108.291.28.523.515.697s.538.26.912.26c.338,0,.622-.073.853-.221.229-.147.414-.343.554-.586.139-.243.236-.51.293-.801.056-.291.084-.58.084-.866,0-.304-.032-.602-.098-.893-.064-.29-.171-.555-.318-.794-.148-.238-.341-.43-.58-.573-.238-.143-.531-.215-.879-.215Z"/>
        <path d="M228.907,149.226c-.634,0-1.165-.158-1.595-.476-.43-.316-.751-.73-.964-1.243-.213-.512-.319-1.059-.319-1.641,0-.435.065-.857.195-1.27.131-.412.321-.781.573-1.107.252-.325.562-.583.932-.774.368-.19.787-.286,1.256-.286.643,0,1.179.156,1.608.469s.751.725.964,1.236c.213.513.319,1.063.319,1.654,0,.442-.065.87-.195,1.282-.131.413-.319.779-.567,1.101-.247.321-.556.577-.924.769-.369.19-.797.286-1.283.286ZM228.921,148.405c.338,0,.622-.08.853-.241.229-.16.417-.371.56-.631.144-.261.246-.541.307-.84.061-.3.091-.589.091-.866,0-.287-.028-.58-.085-.879-.056-.3-.149-.577-.279-.834-.131-.256-.311-.464-.541-.625-.229-.16-.514-.24-.853-.24s-.623.08-.853.24c-.23.161-.415.371-.554.632s-.239.54-.3.84-.091.588-.091.866c0,.269.03.554.091.853.061.3.158.58.293.84.135.261.314.474.541.639.226.165.499.247.82.247Z"/>
        <path d="M238.283,150.854c-.686-.799-1.235-1.687-1.647-2.663s-.618-1.999-.618-3.066.204-2.092.612-3.073c.407-.981.959-1.871,1.653-2.67l.873.131c-.452.556-.825,1.131-1.12,1.726-.296.595-.515,1.213-.658,1.855-.143.643-.215,1.319-.215,2.031s.072,1.389.215,2.031c.144.643.362,1.261.658,1.855.295.595.668,1.17,1.12,1.726l-.873.117Z"/>
        <path d="M241.239,142.493c.061.14.112.287.156.443.043.156.073.308.091.455.156-.156.336-.308.54-.455s.424-.27.658-.365c.234-.095.464-.143.69-.143.416,0,.772.084,1.067.254.295.169.534.444.716.826.174-.173.369-.343.586-.508.217-.164.447-.301.69-.41.243-.108.49-.162.742-.162.478,0,.861.1,1.152.299.291.2.502.472.632.814s.195.74.195,1.191v4.323h-1.081v-3.972c0-.2-.011-.397-.032-.593s-.067-.378-.137-.547-.176-.304-.319-.403c-.143-.1-.341-.15-.593-.15-.304,0-.603.098-.898.293-.295.195-.542.394-.742.593v4.779h-1.08v-3.972c0-.2-.009-.399-.026-.6-.018-.199-.061-.382-.13-.547-.07-.164-.179-.297-.326-.396s-.347-.15-.599-.15c-.191,0-.387.046-.586.137-.2.092-.391.204-.573.339s-.343.263-.481.384v4.806h-1.081v-4.701c0-.183-.016-.378-.046-.586s-.076-.412-.137-.612c-.061-.199-.139-.377-.234-.533l1.186-.131Z"/>
        <path d="M253.401,142.429c.295,0,.588.037.879.11.291.074.558.188.801.345l-.378.834c-.19-.156-.403-.273-.638-.352s-.465-.117-.69-.117c-.321,0-.602.073-.84.221-.239.148-.358.369-.358.664,0,.209.05.383.15.521.1.139.231.256.396.352s.343.19.534.286c.217.104.437.211.658.319.221.108.425.238.611.391.187.151.339.334.456.547s.176.476.176.788c0,.434-.106.792-.319,1.074s-.49.488-.833.618-.714.195-1.113.195c-.348,0-.695-.048-1.042-.144-.348-.095-.669-.229-.964-.403l.456-.794c.208.156.442.282.703.377.261.096.512.144.755.144.33,0,.619-.078.866-.234.248-.156.371-.391.371-.703,0-.217-.067-.397-.201-.54-.135-.144-.307-.271-.515-.385-.209-.112-.426-.221-.651-.325-.261-.13-.515-.271-.762-.423-.247-.152-.449-.346-.605-.58s-.234-.534-.234-.898c0-.417.11-.764.332-1.042.222-.277.51-.488.866-.631.355-.144.733-.215,1.133-.215Z"/>
        <path d="M259.235,145.124c0,1.067-.204,2.09-.612,3.066s-.959,1.864-1.653,2.663l-.873-.117c.451-.556.825-1.129,1.12-1.719.295-.591.517-1.209.664-1.855.147-.647.222-1.326.222-2.038,0-.721-.074-1.402-.222-2.045-.147-.642-.369-1.259-.664-1.849-.295-.591-.669-1.163-1.12-1.719l.873-.131c.694.799,1.245,1.688,1.653,2.67s.612,2.005.612,3.073Z"/>
      </g>
    </g>
    <g id="matplotlib.axis_2">
      <g id="ytick_1">
        <g id="line2d_17">
          <g class="st20">
            <path class="st2" d="M55.827,106.966h332.891"/>
          </g>
        </g>
        <g id="line2d_18">
          <path id="m2a7266d693" class="st5" d="M55.827,106.966h-3.48"/>
        </g>
        <g id="text_10">
          <g>
            <path id="DejaVuSans-2212" d="M22.609,107.214h6.224v.825h-6.224v-.825Z"/>
            <path id="DejaVuSans-312" data-name="DejaVuSans-31" d="M31.121,109.919h1.602v-5.531l-1.743.35v-.893l1.734-.35h.98v6.424h1.602v.825h-4.175v-.825Z"/>
            <path id="DejaVuSans-304" data-name="DejaVuSans-30" d="M39.373,104.141c-.504,0-.884.249-1.139.746-.254.496-.381,1.243-.381,2.24s.127,1.738.381,2.236c.255.497.634.746,1.139.746.509,0,.89-.249,1.143-.746.255-.497.382-1.242.382-2.236s-.127-1.744-.382-2.24c-.254-.497-.635-.746-1.143-.746ZM39.373,103.364c.813,0,1.434.322,1.863.965.429.642.643,1.575.643,2.798s-.214,2.152-.643,2.795c-.429.642-1.05.963-1.863.963s-1.432-.321-1.861-.963c-.429-.643-.643-1.575-.643-2.795s.214-2.156.643-2.798c.429-.643,1.049-.965,1.861-.965Z"/>
            <path id="DejaVuSans-305" data-name="DejaVuSans-30" d="M45.699,104.141c-.504,0-.884.249-1.139.746-.254.496-.381,1.243-.381,2.24s.127,1.738.381,2.236c.255.497.634.746,1.139.746.509,0,.89-.249,1.143-.746.255-.497.382-1.242.382-2.236s-.127-1.744-.382-2.24c-.254-.497-.635-.746-1.143-.746ZM45.699,103.364c.813,0,1.434.322,1.863.965.429.642.643,1.575.643,2.798s-.214,2.152-.643,2.795c-.429.642-1.05.963-1.863.963s-1.432-.321-1.861-.963c-.429-.643-.643-1.575-.643-2.795s.214-2.156.643-2.798c.429-.643,1.049-.965,1.861-.965Z"/>
          </g>
        </g>
      </g>
      <g id="ytick_2">
        <g id="line2d_19">
          <g class="st19">
            <path class="st2" d="M55.827,70.424h332.891"/>
          </g>
        </g>
        <g id="line2d_20">
          <path id="m2a7266d6931" data-name="m2a7266d693" class="st5" d="M55.827,70.424h-3.48"/>
        </g>
        <g id="text_11">
          <path id="DejaVuSans-306" data-name="DejaVuSans-30" d="M45.7,67.599c-.504,0-.884.249-1.139.746-.254.496-.381,1.243-.381,2.24s.127,1.738.381,2.236c.255.497.634.746,1.139.746.509,0,.89-.249,1.143-.746.255-.497.382-1.242.382-2.236s-.127-1.744-.382-2.24c-.254-.497-.635-.746-1.143-.746ZM45.7,66.822c.813,0,1.434.322,1.863.965.429.642.643,1.575.643,2.798s-.214,2.152-.643,2.795c-.429.642-1.05.963-1.863.963s-1.432-.321-1.861-.963c-.429-.643-.643-1.575-.643-2.795s.214-2.156.643-2.798c.429-.643,1.049-.965,1.861-.965Z"/>
        </g>
      </g>
      <g id="ytick_3">
        <g id="line2d_21">
          <g class="st10">
            <path class="st2" d="M55.827,33.883h332.891"/>
          </g>
        </g>
        <g id="line2d_22">
          <path id="m2a7266d6932" data-name="m2a7266d693" class="st5" d="M55.827,33.883h-3.48"/>
        </g>
        <g id="text_12">
          <g>
            <path id="DejaVuSans-313" data-name="DejaVuSans-31" d="M31.121,36.835h1.602v-5.531l-1.743.35v-.893l1.734-.35h.98v6.424h1.602v.825h-4.175v-.825Z"/>
            <path id="DejaVuSans-307" data-name="DejaVuSans-30" d="M39.374,31.058c-.504,0-.884.249-1.139.746-.254.496-.381,1.243-.381,2.24s.127,1.738.381,2.236c.255.497.634.746,1.139.746.509,0,.89-.249,1.143-.746.255-.497.382-1.242.382-2.236s-.127-1.744-.382-2.24c-.254-.497-.635-.746-1.143-.746ZM39.374,30.281c.813,0,1.434.322,1.863.965.429.642.643,1.575.643,2.798s-.214,2.152-.643,2.795c-.429.642-1.05.963-1.863.963s-1.432-.321-1.861-.963c-.429-.643-.643-1.575-.643-2.795s.214-2.156.643-2.798c.429-.643,1.049-.965,1.861-.965Z"/>
            <path id="DejaVuSans-308" data-name="DejaVuSans-30" d="M45.7,31.058c-.504,0-.884.249-1.139.746-.254.496-.381,1.243-.381,2.24s.127,1.738.381,2.236c.255.497.634.746,1.139.746.509,0,.89-.249,1.143-.746.255-.497.382-1.242.382-2.236s-.127-1.744-.382-2.24c-.254-.497-.635-.746-1.143-.746ZM45.7,30.281c.813,0,1.434.322,1.863.965.429.642.643,1.575.643,2.798s-.214,2.152-.643,2.795c-.429.642-1.05.963-1.863.963s-1.432-.321-1.861-.963c-.429-.643-.643-1.575-.643-2.795s.214-2.156.643-2.798c.429-.643,1.049-.965,1.861-.965Z"/>
          </g>
        </g>
      </g>
    </g>
    <g id="line2d_23">
      <g class="st9">
        <path class="st1" d="M70.958,70.424l7.604-13.616,4.562-7.606,3.041-4.664,3.041-4.252,3.041-3.772,3.041-3.232,1.521-1.397,1.521-1.243,1.521-1.085,1.521-.922,1.521-.755,1.521-.586,1.521-.414,1.521-.24,1.521-.066,1.521.109,1.521.284,1.521.457,1.521.628,1.521.797,1.521.963,1.521,1.125,1.521,1.282,3.041,3.015,3.041,3.576,3.041,4.08,3.041,4.518,3.041,4.885,4.562,7.843,7.604,13.745,6.083,10.815,4.562,7.552,3.041,4.617,3.041,4.196,3.041,3.708,3.042,3.16,1.521,1.359,1.521,1.204,1.521,1.044,1.521.88,1.521.713,1.521.543,1.521.37,1.521.197,1.521.022,1.521-.153,1.521-.327,1.521-.5,1.521-.671,1.521-.839,1.521-1.004,1.521-1.165,1.521-1.321,3.042-3.088,3.041-3.642,3.041-4.138,3.041-4.568,3.041-4.925,4.562-7.885,15.207-27.11,3.041-4.925,3.041-4.568,3.041-4.138,3.041-3.642,3.041-3.088,1.521-1.321,1.521-1.165,1.521-1.004,1.521-.839,1.521-.671,1.521-.5,1.521-.327,1.521-.153,1.521.022,1.521.197,1.521.37,1.521.543,1.521.713,1.521.88,1.521,1.044,1.521,1.204,1.521,1.359,3.041,3.16,3.041,3.708,3.041,4.196,3.041,4.617,3.041,4.964,4.562,7.924,15.207,27.066,3.041,4.885,3.041,4.518,3.041,4.08,3.041,3.576,3.041,3.015,1.521,1.282,1.521,1.125,1.521.963,1.521.797,1.521.628,1.521.457,1.521.284,1.521.109,1.521-.066,1.521-.24,1.521-.414,1.521-.586,1.521-.755,1.521-.922,1.521-1.085,1.521-1.243,3.041-2.942,3.041-3.509,3.041-4.02,3.041-4.467,3.042-4.843,4.562-7.799,6.083-10.959h0"/>
      </g>
    </g>
    <g id="line2d_24">
      <g class="st12">
        <path class="st4" d="M55.827,70.424h332.891"/>
      </g>
    </g>
    <g id="line2d_25">
      <g class="st11">
        <path class="st4" d="M70.958,118.658V22.191"/>
      </g>
    </g>
    <g id="patch_3">
      <path class="st3" d="M55.827,118.658V22.191"/>
    </g>
    <g id="patch_4">
      <path class="st3" d="M388.718,118.658V22.191"/>
    </g>
    <g id="patch_5">
      <path class="st3" d="M55.827,118.658h332.891"/>
    </g>
    <g id="patch_6">
      <path class="st3" d="M55.827,22.191h332.891"/>
    </g>
    <g id="legend_1">
      <g id="patch_7">
        <path class="st6" d="M278.921,44.74h102.837c1.326,0,1.989-.663,1.989-1.989v-13.6c0-1.326-.663-1.989-1.989-1.989h-102.837c-1.326,0-1.989.663-1.989,1.989v13.6c0,1.326.663,1.989,1.989,1.989Z"/>
      </g>
      <g id="line2d_26">
        <path class="st1" d="M280.91,35.215h19.886"/>
      </g>
      <g id="text_15">
        <g>
          <path id="DejaVuSans-36" d="M312.033,34.68c-.44,0-.789.151-1.047.452-.257.3-.385.713-.385,1.237,0,.521.128.933.385,1.237.258.302.607.454,1.047.454s.789-.151,1.046-.454c.257-.303.385-.716.385-1.237,0-.524-.128-.936-.385-1.237-.257-.301-.605-.452-1.046-.452ZM313.979,31.606v.893c-.247-.116-.495-.205-.746-.266-.251-.062-.499-.093-.746-.093-.647,0-1.142.219-1.484.656-.341.437-.535,1.097-.584,1.981.191-.282.43-.498.718-.648.289-.15.606-.225.952-.225.728,0,1.303.221,1.726.663.423.441.634,1.042.634,1.802,0,.745-.22,1.342-.66,1.793-.44.45-1.026.674-1.757.674-.839,0-1.48-.321-1.923-.963-.443-.643-.665-1.575-.665-2.795,0-1.146.272-2.059.816-2.741.544-.682,1.273-1.022,2.189-1.022.247,0,.495.024.746.073s.512.121.785.218Z"/>
          <path id="DejaVuSans-309" data-name="DejaVuSans-30" d="M318.236,32.092c-.504,0-.884.249-1.139.746-.254.496-.381,1.243-.381,2.24s.127,1.738.381,2.236c.255.497.634.746,1.139.746.509,0,.89-.249,1.143-.746.255-.497.382-1.242.382-2.236s-.127-1.744-.382-2.24c-.254-.497-.635-.746-1.143-.746ZM318.236,31.315c.813,0,1.434.322,1.863.965.429.642.643,1.575.643,2.798s-.214,2.152-.643,2.795c-.429.642-1.05.963-1.863.963s-1.432-.321-1.861-.963c-.429-.643-.643-1.575-.643-2.795s.214-2.156.643-2.798c.429-.643,1.049-.965,1.861-.965Z"/>
          <path id="DejaVuSans-48" d="M322.378,31.446h.98v2.972h3.564v-2.972h.98v7.249h-.98v-3.452h-3.564v3.452h-.98v-7.249Z"/>
          <path id="DejaVuSans-7a" d="M329.427,33.257h4.243v.816l-3.359,3.909h3.359v.713h-4.364v-.816l3.36-3.909h-3.239v-.713Z"/>
          <path id="DejaVuSans-20" d="M334.098,38.695"/>
          <path id="DejaVuSans-314" data-name="DejaVuSans-31" d="M338.492,37.87h1.602v-5.531l-1.743.35v-.893l1.734-.35h.98v6.424h1.602v.825h-4.175v-.825Z"/>
          <path id="DejaVuSans-322" data-name="DejaVuSans-32" d="M345.492,37.87h3.423v.825h-4.602v-.825c.372-.385.879-.902,1.521-1.55.643-.649,1.047-1.068,1.212-1.257.314-.352.533-.65.657-.895.125-.244.188-.485.188-.721,0-.385-.135-.699-.405-.941-.27-.243-.622-.365-1.056-.365-.308,0-.632.053-.974.16-.341.107-.705.269-1.094.486v-.991c.395-.158.763-.278,1.106-.359.344-.081.658-.121.943-.121.751,0,1.35.188,1.796.564.446.375.67.876.67,1.504,0,.298-.056.581-.168.848-.111.266-.314.581-.609.943-.081.094-.338.366-.772.814-.433.448-1.045,1.076-1.835,1.881Z"/>
          <path id="DejaVuSans-3010" data-name="DejaVuSans-30" d="M353.07,32.092c-.504,0-.884.249-1.139.746-.254.496-.381,1.243-.381,2.24s.127,1.738.381,2.236c.255.497.634.746,1.139.746.509,0,.89-.249,1.143-.746.255-.497.382-1.242.382-2.236s-.127-1.744-.382-2.24c-.254-.497-.635-.746-1.143-.746ZM353.07,31.315c.813,0,1.434.322,1.863.965.429.642.643,1.575.643,2.798s-.214,2.152-.643,2.795c-.429.642-1.05.963-1.863.963s-1.432-.321-1.861-.963c-.429-.643-.643-1.575-.643-2.795s.214-2.156.643-2.798c.429-.643,1.049-.965,1.861-.965Z"/>
          <path id="DejaVuSans-56" d="M359.081,38.695l-2.767-7.249h1.024l2.298,6.103,2.301-6.103h1.019l-2.762,7.249h-1.112Z"/>
          <path id="DejaVuSans-201" data-name="DejaVuSans-20" d="M363.038,38.695"/>
          <path id="DejaVuSans-41" d="M369.598,32.412l-1.331,3.607h2.666l-1.335-3.607ZM369.044,31.446h1.112l2.762,7.249h-1.019l-.66-1.86h-3.267l-.66,1.86h-1.035l2.767-7.249Z"/>
          <path id="DejaVuSans-43" d="M379.231,32.005v1.033c-.33-.308-.683-.537-1.056-.688-.374-.152-.771-.228-1.192-.228-.829,0-1.463.253-1.903.76s-.66,1.239-.66,2.197.22,1.686.66,2.192,1.075.76,1.903.76c.421,0,.818-.076,1.192-.228s.726-.382,1.056-.69v1.025c-.343.233-.706.408-1.091.525-.383.116-.788.174-1.215.174-1.098,0-1.963-.336-2.595-1.007-.631-.672-.946-1.589-.946-2.751s.315-2.083.946-2.755c.632-.672,1.497-1.008,2.595-1.008.433,0,.841.057,1.224.172.384.115.745.287,1.081.517Z"/>
        </g>
      </g>
    </g>
    <g>
      <path d="M111.589,15.926c-.703,0-1.317-.13-1.843-.391-.525-.26-.961-.618-1.309-1.074-.347-.456-.607-.974-.781-1.556-.174-.582-.26-1.198-.26-1.849s.084-1.27.254-1.855c.169-.586.427-1.107.775-1.562.347-.456.785-.814,1.315-1.074.529-.261,1.15-.391,1.862-.391s1.33.13,1.855.391c.525.26.961.618,1.309,1.074.347.456.605.977.775,1.562s.254,1.205.254,1.855-.087,1.27-.26,1.856c-.174.586-.435,1.104-.782,1.556-.347.452-.783.808-1.309,1.068-.525.261-1.144.391-1.855.391ZM111.603,15.041c.555,0,1.02-.117,1.393-.352s.673-.547.898-.938.389-.82.488-1.289c.1-.469.15-.938.15-1.407s-.05-.938-.15-1.406c-.1-.469-.263-.896-.488-1.283-.226-.386-.527-.697-.905-.931s-.84-.352-1.387-.352-1.009.117-1.387.352c-.378.234-.677.547-.899.938-.221.391-.382.82-.481,1.289-.1.469-.15.938-.15,1.406s.05.936.15,1.4c.1.464.26.892.481,1.283.222.391.521.703.899.938.377.234.84.352,1.387.352Z"/>
      <path d="M118.191,9.207c.061.148.113.3.156.456s.074.312.091.469c.26-.261.568-.488.924-.684s.721-.293,1.094-.293c.477,0,.861.1,1.152.299.291.2.501.471.631.814.13.343.195.74.195,1.191v4.323h-1.068v-3.972c0-.269-.02-.534-.059-.794-.039-.26-.134-.475-.286-.645-.152-.169-.402-.254-.749-.254-.208,0-.421.042-.638.124-.217.083-.421.188-.612.319s-.365.269-.521.417v4.805h-1.068v-4.583c0-.174-.013-.375-.039-.605-.026-.23-.069-.456-.13-.677-.061-.222-.148-.406-.261-.554l1.185-.156Z"/>
      <path d="M126.994,9.167c.295,0,.59.048.885.144.295.096.551.243.768.442-.008-.121-.015-.241-.02-.358s-.006-.232-.006-.345v-2.422l-.182-.768h1.25v8.06c0,.183.013.387.039.612s.069.445.13.658c.061.212.139.401.234.566l-1.146.143c-.061-.147-.113-.295-.156-.443-.043-.147-.074-.295-.091-.442-.226.295-.508.525-.846.69-.339.165-.695.248-1.068.248-.452,0-.847-.096-1.185-.287s-.619-.449-.84-.775c-.222-.326-.386-.686-.495-1.081-.108-.395-.163-.796-.163-1.205,0-.443.059-.87.176-1.283.117-.412.295-.779.534-1.1.238-.321.54-.578.905-.769s.79-.287,1.276-.287ZM127.02,10.053c-.339,0-.623.074-.853.221-.23.148-.413.343-.547.586-.135.243-.23.51-.287.801-.057.291-.084.58-.084.866,0,.295.033.588.098.879.065.291.169.558.312.801.143.243.334.436.573.58.239.143.532.215.879.215.304,0,.583-.089.84-.267.256-.178.479-.375.67-.592v-2.188c0-.347-.054-.664-.163-.95-.109-.287-.28-.517-.515-.69-.234-.173-.542-.26-.924-.26Z"/>
      <path d="M134.078,9.155c.686,0,1.202.187,1.55.56.347.374.521.899.521,1.576v3.243c0,.182.035.306.104.371.069.065.152.098.248.098.078,0,.16-.011.247-.033.087-.021.169-.05.248-.084l.234.703c-.139.078-.315.15-.527.215-.213.065-.432.098-.658.098s-.43-.063-.612-.189c-.183-.125-.295-.358-.339-.696-.252.269-.547.488-.885.657-.339.169-.695.254-1.068.254-.512,0-.938-.152-1.276-.456-.338-.304-.508-.721-.508-1.25,0-.495.12-.89.358-1.185.239-.295.549-.517.931-.664.382-.147.788-.248,1.217-.3.43-.052.831-.078,1.205-.078v-.69c0-.243-.031-.462-.091-.658s-.169-.352-.325-.469-.378-.176-.665-.176c-.33,0-.646.065-.95.195-.304.13-.608.321-.912.573l-.534-.769c.356-.287.747-.499,1.172-.638.425-.139.863-.208,1.315-.208ZM135.067,12.84c-.234,0-.5.011-.794.033-.295.021-.582.074-.859.156s-.506.215-.684.397c-.178.182-.267.434-.267.755,0,.286.098.497.293.631.195.135.44.202.736.202.312,0,.586-.087.82-.261.234-.173.419-.395.554-.664.134-.269.202-.547.202-.833v-.417Z"/>
      <path d="M143.857,6.173c.434,0,.857.061,1.27.182.413.122.805.295,1.179.521l-.599.872c-.269-.199-.562-.358-.879-.475s-.645-.176-.983-.176c-.46,0-.851.115-1.172.345s-.481.597-.481,1.1c0,.278.076.515.228.71s.354.367.605.514c.252.148.525.291.821.43.304.139.614.291.931.456s.608.358.873.579c.265.222.478.491.638.808s.241.705.241,1.166c0,.625-.152,1.139-.456,1.543-.304.404-.703.703-1.198.898-.495.195-1.028.293-1.602.293-.469,0-.922-.063-1.361-.189-.438-.125-.866-.297-1.283-.514l.469-1.068c.287.243.634.443,1.042.599.408.156.798.234,1.172.234.287,0,.577-.054.873-.163.295-.109.542-.285.742-.528.2-.243.299-.555.299-.938s-.091-.696-.273-.944c-.182-.248-.421-.456-.716-.625-.295-.169-.608-.332-.938-.488-.286-.139-.573-.282-.859-.43-.286-.147-.547-.321-.781-.521s-.421-.438-.56-.716c-.139-.278-.208-.612-.208-1.002,0-.547.145-1.003.436-1.368.291-.364.664-.64,1.12-.827.456-.187.926-.28,1.413-.28Z"/>
      <path d="M150.446,9.155c.521,0,.959.106,1.315.319.356.213.623.508.801.886.178.377.267.818.267,1.321,0,.122-.006.246-.02.371-.013.126-.028.259-.045.397h-4.115c0,.825.183,1.463.547,1.914.365.452.851.677,1.458.677.252,0,.515-.039.788-.117s.558-.195.853-.352l.404.651c-.304.243-.646.426-1.029.547-.382.122-.768.183-1.159.183-.512,0-.957-.094-1.335-.28-.377-.187-.69-.438-.938-.755s-.432-.675-.553-1.075c-.122-.399-.183-.807-.183-1.224,0-.434.061-.855.183-1.263s.306-.779.553-1.113c.248-.334.554-.599.918-.794.365-.195.794-.293,1.29-.293ZM150.342,9.975c-.295,0-.556.083-.781.248-.226.165-.408.375-.547.631-.139.256-.234.519-.287.788h2.969c.008-.364-.042-.67-.15-.918-.109-.247-.265-.434-.469-.56-.204-.126-.449-.189-.736-.189Z"/>
      <path d="M155.16,9.207c.061.148.113.3.156.456s.074.312.091.469c.26-.261.568-.488.924-.684s.721-.293,1.094-.293c.477,0,.861.1,1.152.299.291.2.501.471.631.814.13.343.195.74.195,1.191v4.323h-1.068v-3.972c0-.269-.02-.534-.059-.794-.039-.26-.134-.475-.286-.645-.152-.169-.402-.254-.749-.254-.208,0-.421.042-.638.124-.217.083-.421.188-.612.319s-.365.269-.521.417v4.805h-1.068v-4.583c0-.174-.013-.375-.039-.605-.026-.23-.069-.456-.13-.677-.061-.222-.148-.406-.261-.554l1.185-.156Z"/>
      <path d="M163.936,15.952c-.634,0-1.166-.159-1.595-.476s-.751-.731-.963-1.244c-.213-.512-.319-1.059-.319-1.641,0-.434.065-.857.195-1.27.13-.412.321-.781.573-1.107.251-.326.562-.583.931-.775.369-.19.788-.286,1.256-.286.643,0,1.179.156,1.608.469s.75.725.963,1.237c.213.513.319,1.063.319,1.654,0,.443-.065.871-.195,1.283-.13.413-.319.779-.567,1.101-.247.321-.556.577-.924.768-.369.191-.796.287-1.283.287ZM163.949,15.132c.338,0,.623-.081.853-.241.229-.161.417-.371.56-.631.144-.261.246-.541.306-.84.061-.3.091-.588.091-.866,0-.287-.028-.58-.085-.879-.056-.299-.149-.577-.28-.833-.13-.256-.311-.464-.541-.625s-.514-.241-.853-.241-.623.08-.853.241c-.23.161-.415.371-.554.632-.139.26-.239.54-.299.84-.061.299-.091.588-.091.866,0,.269.03.554.091.853.061.299.158.58.293.84.134.26.314.473.541.638.226.165.499.248.82.248Z"/>
      <path d="M169.887,7.136c0,.217-.076.404-.228.56s-.341.234-.566.234c-.217,0-.402-.078-.554-.234s-.228-.343-.228-.56.076-.404.228-.56.336-.234.554-.234.404.078.56.234.234.343.234.56ZM169.653,9.311v6.472h-1.081v-5.704l-.156-.768h1.237Z"/>
      <path d="M174.223,9.167c.295,0,.59.048.885.144.295.096.551.243.768.442-.008-.121-.015-.241-.02-.358s-.006-.232-.006-.345v-2.422l-.182-.768h1.25v8.06c0,.183.013.387.039.612s.069.445.13.658c.061.212.139.401.234.566l-1.146.143c-.061-.147-.113-.295-.156-.443-.043-.147-.074-.295-.091-.442-.226.295-.508.525-.846.69-.339.165-.695.248-1.068.248-.452,0-.847-.096-1.185-.287s-.619-.449-.84-.775c-.222-.326-.386-.686-.495-1.081-.108-.395-.163-.796-.163-1.205,0-.443.059-.87.176-1.283.117-.412.295-.779.534-1.1.238-.321.54-.578.905-.769s.79-.287,1.276-.287ZM174.249,10.053c-.339,0-.623.074-.853.221-.23.148-.413.343-.547.586-.135.243-.23.51-.287.801-.057.291-.084.58-.084.866,0,.295.033.588.098.879.065.291.169.558.312.801.143.243.334.436.573.58.239.143.532.215.879.215.304,0,.583-.089.84-.267.256-.178.479-.375.67-.592v-2.188c0-.347-.054-.664-.163-.95-.109-.287-.28-.517-.515-.69-.234-.173-.542-.26-.924-.26Z"/>
      <path d="M181.307,9.155c.686,0,1.202.187,1.55.56.347.374.521.899.521,1.576v3.243c0,.182.035.306.104.371.069.065.152.098.248.098.078,0,.16-.011.247-.033.087-.021.169-.05.248-.084l.234.703c-.139.078-.315.15-.527.215-.213.065-.432.098-.658.098s-.43-.063-.612-.189c-.183-.125-.295-.358-.339-.696-.252.269-.547.488-.885.657-.339.169-.695.254-1.068.254-.512,0-.938-.152-1.276-.456-.338-.304-.508-.721-.508-1.25,0-.495.12-.89.358-1.185.239-.295.549-.517.931-.664.382-.147.788-.248,1.217-.3.43-.052.831-.078,1.205-.078v-.69c0-.243-.031-.462-.091-.658s-.169-.352-.325-.469-.378-.176-.665-.176c-.33,0-.646.065-.95.195-.304.13-.608.321-.912.573l-.534-.769c.356-.287.747-.499,1.172-.638.425-.139.863-.208,1.315-.208ZM182.296,12.84c-.234,0-.5.011-.794.033-.295.021-.582.074-.859.156s-.506.215-.684.397c-.178.182-.267.434-.267.755,0,.286.098.497.293.631.195.135.44.202.736.202.312,0,.586-.087.82-.261.234-.173.419-.395.554-.664.134-.269.202-.547.202-.833v-.417Z"/>
      <path d="M186.62,5.86v9.922h-1.081V6.615l-.169-.755h1.25Z"/>
      <path d="M195.631,15.939c-.747,0-1.392-.13-1.934-.391s-.992-.614-1.348-1.062c-.356-.447-.619-.952-.788-1.517-.169-.564-.254-1.146-.254-1.745,0-.651.095-1.278.286-1.882.191-.603.471-1.144.84-1.621.369-.477.831-.855,1.387-1.133.555-.278,1.198-.417,1.927-.417.304,0,.636.037.996.11.36.074.705.185,1.035.332.33.148.599.343.807.586l-.677.755c-.165-.191-.374-.349-.625-.475-.252-.126-.515-.224-.788-.293s-.532-.104-.775-.104c-.503,0-.946.115-1.328.345s-.703.541-.963.931c-.261.391-.458.829-.593,1.315-.135.486-.202.981-.202,1.485,0,.781.125,1.456.377,2.025.252.568.608,1.007,1.068,1.315s1.003.462,1.628.462c.364,0,.759-.052,1.185-.156.425-.104.863-.269,1.315-.495l.404.743c-.191.139-.41.263-.658.371s-.508.202-.781.28-.542.137-.808.176c-.265.039-.51.059-.735.059Z"/>
      <path d="M203.482,6.303l3.281,9.48h-1.342l-1.094-3.255h-3.125l-1.107,3.255h-1.094l3.294-9.48h1.186ZM202.779,7.892l-1.276,3.75h2.526l-1.25-3.75Z"/>
      <path d="M210.592,14.91h1.523v-4.388l-1.562.482-.234-.612,2.227-1.081h.651v5.599h1.471v.886h-4.075v-.886Z"/>
      <path d="M218.249,9.155c.355,0,.684.057.983.169.299.113.542.287.729.521s.28.542.28.925c0,.512-.144.998-.43,1.458-.286.46-.68.908-1.179,1.341-.499.435-1.061.877-1.687,1.329h3.607l-.261.898h-4.87v-.755c.669-.478,1.233-.909,1.693-1.296.46-.386.829-.742,1.106-1.067.278-.326.478-.632.6-.918.121-.286.182-.568.182-.846,0-.33-.084-.568-.254-.716-.169-.147-.38-.221-.631-.221-.278,0-.586.076-.925.228s-.651.358-.938.618l-.586-.69c.442-.356.872-.607,1.289-.755.417-.147.847-.221,1.289-.221Z"/>
      <path d="M224.941,9.155c.677,0,1.241.149,1.692.449.452.299.793.705,1.022,1.217.23.513.346,1.09.346,1.732s-.129,1.22-.385,1.732-.623.918-1.101,1.218c-.478.299-1.055.449-1.731.449-.669,0-1.23-.15-1.687-.449-.456-.3-.799-.706-1.028-1.218-.23-.512-.346-1.089-.346-1.732,0-.651.128-1.232.385-1.745.256-.512.622-.916,1.1-1.211.478-.295,1.056-.442,1.732-.442ZM224.863,9.975c-.373,0-.686.074-.938.221-.252.148-.454.345-.605.593-.152.247-.261.523-.326.827-.064.304-.098.617-.098.938s.033.636.098.944c.065.308.172.584.319.827.147.243.35.438.605.586.256.148.571.222.944.222.382,0,.698-.074.95-.222.252-.147.451-.343.6-.586.147-.243.251-.519.312-.827.061-.308.091-.623.091-.944s-.03-.636-.091-.944c-.062-.308-.165-.584-.312-.827-.148-.243-.348-.438-.6-.586-.252-.147-.568-.221-.95-.221Z"/>
      <path d="M230.202,6.303l2.058,6.186c.069.217.135.428.195.631.061.204.126.428.195.671.069-.226.13-.432.183-.619.052-.187.112-.38.182-.58l2.162-6.302h1.042l-3.282,9.532h-.755l-3.269-9.519h1.289Z"/>
      <path d="M245.268,6.251l.273.612c-.764.312-1.415.699-1.953,1.159-.538.46-.975.957-1.309,1.491s-.579,1.072-.735,1.615-.234,1.057-.234,1.543c0,.46.067.877.201,1.25.135.374.326.669.573.886.248.217.541.326.879.326s.625-.096.859-.287.41-.434.527-.729c.117-.295.176-.603.176-.924,0-.304-.057-.592-.169-.866-.113-.273-.28-.497-.501-.67-.222-.173-.506-.26-.854-.26-.286,0-.588.059-.904.176-.317.117-.628.297-.932.54l.156-.833c.286-.261.605-.454.957-.58s.692-.189,1.022-.189c.556,0,1.016.12,1.38.358.365.239.639.547.82.924.183.377.273.779.273,1.205,0,.356-.062.709-.188,1.061s-.311.671-.554.958c-.243.286-.547.514-.911.684-.364.169-.786.254-1.263.254s-.932-.117-1.361-.352-.777-.59-1.042-1.068-.396-1.081-.396-1.81c0-.772.143-1.502.43-2.188.286-.686.677-1.311,1.172-1.875.495-.564,1.053-1.052,1.673-1.465.621-.412,1.266-.727,1.934-.944Z"/>
      <path d="M250.19,9.155c.677,0,1.241.149,1.692.449.452.299.793.705,1.022,1.217.23.513.346,1.09.346,1.732s-.129,1.22-.385,1.732-.623.918-1.101,1.218c-.478.299-1.055.449-1.731.449-.669,0-1.23-.15-1.687-.449-.456-.3-.799-.706-1.028-1.218-.23-.512-.346-1.089-.346-1.732,0-.651.128-1.232.385-1.745.256-.512.622-.916,1.1-1.211.478-.295,1.056-.442,1.732-.442ZM250.112,9.975c-.373,0-.686.074-.938.221-.252.148-.454.345-.605.593-.152.247-.261.523-.326.827-.064.304-.098.617-.098.938s.033.636.098.944c.065.308.172.584.319.827.147.243.35.438.605.586.256.148.571.222.944.222.382,0,.698-.074.95-.222.252-.147.451-.343.6-.586.147-.243.251-.519.312-.827.061-.308.091-.623.091-.944s-.03-.636-.091-.944c-.062-.308-.165-.584-.312-.827-.148-.243-.348-.438-.6-.586-.252-.147-.568-.221-.95-.221Z"/>
      <path d="M260.843,11.303h-4.61v4.479h-1.211V7.162c0-.008-.016-.078-.046-.208-.03-.13-.059-.265-.084-.404-.026-.139-.044-.221-.053-.248h1.394v4.115h4.61v-4.115h1.211v9.48h-1.211v-4.479Z"/>
      <path d="M263.901,9.311h4.506v.625l-3.359,5.026h3.516l-.144.82h-4.817v-.612l3.347-5.026h-3.048v-.833Z"/>
      <path d="M274.814,17.58c-.686-.799-1.235-1.686-1.647-2.663-.412-.977-.618-1.999-.618-3.067s.203-2.092.611-3.073c.408-.981.96-1.871,1.654-2.669l.872.13c-.451.556-.824,1.131-1.119,1.726-.296.595-.515,1.213-.658,1.855s-.215,1.319-.215,2.031.071,1.389.215,2.031c.144.643.362,1.261.658,1.856.295.594.668,1.169,1.119,1.725l-.872.117Z"/>
      <path d="M284.463,11.069c0,.912-.154,1.721-.462,2.429-.309.708-.779,1.265-1.413,1.673-.634.408-1.441.612-2.422.612h-3.086V7.162c0-.008-.016-.078-.046-.208-.03-.13-.059-.265-.085-.404-.025-.139-.043-.221-.052-.248h2.436c.789,0,1.501.089,2.135.267.634.178,1.175.456,1.622.833.446.377.787.868,1.021,1.471.234.604.352,1.335.352,2.194ZM283.2,11.043c0-.686-.085-1.272-.254-1.758-.17-.486-.421-.883-.756-1.191-.334-.308-.746-.534-1.236-.677-.491-.143-1.062-.215-1.713-.215h-.95v7.683h1.719c.79,0,1.417-.174,1.882-.521.464-.347.799-.812,1.003-1.393.203-.582.306-1.224.306-1.927Z"/>
      <path d="M288.513,15.952c-.634,0-1.166-.159-1.596-.476s-.751-.731-.964-1.244c-.213-.512-.318-1.059-.318-1.641,0-.434.064-.857.195-1.27.13-.412.32-.781.572-1.107s.562-.583.932-.775c.369-.19.788-.286,1.257-.286.642,0,1.178.156,1.607.469s.751.725.964,1.237c.213.513.319,1.063.319,1.654,0,.443-.065.871-.195,1.283-.131.413-.319.779-.566,1.101-.248.321-.556.577-.925.768s-.797.287-1.282.287ZM288.525,15.132c.339,0,.623-.081.853-.241.23-.161.417-.371.561-.631.143-.261.245-.541.306-.84.061-.3.091-.588.091-.866,0-.287-.028-.58-.084-.879-.057-.299-.15-.577-.28-.833-.13-.256-.311-.464-.54-.625-.23-.161-.515-.241-.854-.241s-.623.08-.853.241c-.23.161-.415.371-.554.632-.139.26-.238.54-.3.84-.061.299-.091.588-.091.866,0,.269.03.554.091.853.062.299.159.58.293.84.135.26.315.473.541.638s.499.248.82.248Z"/>
      <path d="M295.232,9.155c.295,0,.588.037.879.11.29.074.558.189.801.345l-.378.833c-.191-.156-.403-.273-.638-.352s-.465-.117-.69-.117c-.321,0-.602.074-.84.221-.239.148-.358.369-.358.664,0,.208.05.382.149.521.101.139.232.256.397.352.165.096.343.191.534.287.217.104.437.21.657.319.222.109.426.239.612.391s.339.334.456.547c.117.213.176.476.176.788,0,.434-.106.792-.319,1.074s-.49.488-.833.619c-.344.13-.715.195-1.113.195-.348,0-.695-.048-1.042-.144-.348-.095-.669-.23-.964-.403l.456-.794c.208.156.442.282.703.377.26.096.512.144.755.144.33,0,.619-.078.866-.234s.371-.391.371-.704c0-.217-.067-.397-.202-.54-.135-.144-.306-.271-.514-.384-.209-.113-.426-.221-.651-.326-.261-.13-.515-.271-.762-.423-.248-.152-.449-.345-.605-.58s-.234-.534-.234-.898c0-.417.11-.764.332-1.042.221-.278.51-.488.865-.631.356-.144.734-.215,1.134-.215Z"/>
      <path d="M305.57,15.939c-.746,0-1.391-.13-1.934-.391-.542-.26-.991-.614-1.348-1.062-.355-.447-.618-.952-.788-1.517-.169-.564-.254-1.146-.254-1.745,0-.651.096-1.278.287-1.882.19-.603.471-1.144.84-1.621.369-.477.831-.855,1.387-1.133s1.198-.417,1.927-.417c.304,0,.636.037.996.11.36.074.706.185,1.036.332.329.148.599.343.807.586l-.677.755c-.165-.191-.373-.349-.625-.475s-.515-.224-.788-.293-.532-.104-.774-.104c-.504,0-.946.115-1.328.345-.383.23-.703.541-.964.931s-.458.829-.593,1.315c-.135.486-.202.981-.202,1.485,0,.781.126,1.456.378,2.025.252.568.607,1.007,1.068,1.315.46.308,1.002.462,1.627.462.365,0,.76-.052,1.186-.156.425-.104.863-.269,1.315-.495l.403.743c-.191.139-.41.263-.657.371-.248.108-.509.202-.782.28s-.542.137-.807.176c-.266.039-.511.059-.736.059Z"/>
      <path d="M311.184,7.136c0,.217-.076.404-.229.56-.151.156-.34.234-.566.234-.217,0-.401-.078-.553-.234-.152-.156-.229-.343-.229-.56s.076-.404.229-.56c.151-.156.336-.234.553-.234s.404.078.561.234.234.343.234.56ZM310.949,9.311v6.472h-1.081v-5.704l-.156-.768h1.237Z"/>
      <path d="M315.61,9.155c.329,0,.661.054.996.163.334.109.661.276.982.501l-.586.755c-.243-.2-.481-.345-.716-.437s-.46-.137-.677-.137c-.261,0-.502.061-.723.183-.222.122-.417.293-.587.514-.169.221-.299.488-.391.801-.091.312-.137.66-.137,1.042,0,.816.185,1.441.554,1.875s.836.651,1.4.651c.251,0,.496-.039.735-.117.238-.078.488-.191.749-.338l.352.69c-.348.217-.682.38-1.003.488s-.682.163-1.081.163c-.556,0-1.048-.141-1.478-.423s-.769-.684-1.016-1.205c-.248-.521-.371-1.133-.371-1.836,0-.677.137-1.265.41-1.765.273-.499.638-.885,1.094-1.159s.952-.41,1.491-.41Z"/>
      <path d="M320.077,5.86v9.922h-1.081V6.615l-.169-.755h1.25Z"/>
      <path d="M324.622,15.952c-.634,0-1.166-.159-1.596-.476s-.751-.731-.964-1.244c-.213-.512-.318-1.059-.318-1.641,0-.434.064-.857.195-1.27.13-.412.32-.781.572-1.107s.562-.583.932-.775c.369-.19.788-.286,1.257-.286.642,0,1.178.156,1.607.469s.751.725.964,1.237c.213.513.319,1.063.319,1.654,0,.443-.065.871-.195,1.283-.131.413-.319.779-.566,1.101-.248.321-.556.577-.925.768s-.797.287-1.282.287ZM324.635,15.132c.339,0,.623-.081.853-.241.23-.161.417-.371.561-.631.143-.261.245-.541.306-.84.061-.3.091-.588.091-.866,0-.287-.028-.58-.084-.879-.057-.299-.15-.577-.28-.833-.13-.256-.311-.464-.54-.625-.23-.161-.515-.241-.854-.241s-.623.08-.853.241c-.23.161-.415.371-.554.632-.139.26-.238.54-.3.84-.061.299-.091.588-.091.866,0,.269.03.554.091.853.062.299.159.58.293.84.135.26.315.473.541.638s.499.248.82.248Z"/>
      <path d="M331.341,9.155c.295,0,.588.037.879.11.29.074.558.189.801.345l-.378.833c-.191-.156-.403-.273-.638-.352s-.465-.117-.69-.117c-.321,0-.602.074-.84.221-.239.148-.358.369-.358.664,0,.208.05.382.149.521.101.139.232.256.397.352.165.096.343.191.534.287.217.104.437.21.657.319.222.109.426.239.612.391s.339.334.456.547c.117.213.176.476.176.788,0,.434-.106.792-.319,1.074s-.49.488-.833.619c-.344.13-.715.195-1.113.195-.348,0-.695-.048-1.042-.144-.348-.095-.669-.23-.964-.403l.456-.794c.208.156.442.282.703.377.26.096.512.144.755.144.33,0,.619-.078.866-.234s.371-.391.371-.704c0-.217-.067-.397-.202-.54-.135-.144-.306-.271-.514-.384-.209-.113-.426-.221-.651-.326-.261-.13-.515-.271-.762-.423-.248-.152-.449-.345-.605-.58s-.234-.534-.234-.898c0-.417.11-.764.332-1.042.221-.278.51-.488.865-.631.356-.144.734-.215,1.134-.215Z"/>
      <path d="M337.175,11.85c0,1.068-.204,2.09-.612,3.067-.408.977-.959,1.864-1.654,2.663l-.872-.117c.451-.556.824-1.128,1.12-1.719.295-.59.517-1.209.664-1.855.147-.647.222-1.326.222-2.038,0-.72-.074-1.402-.222-2.044-.147-.642-.369-1.259-.664-1.849-.296-.59-.669-1.163-1.12-1.719l.872-.13c.695.799,1.246,1.688,1.654,2.669.408.981.612,2.005.612,3.073Z"/>
    </g>
    <text class="st8" transform="translate(18.491 88.497) rotate(-90)"><tspan x="0" y="0">Volt (V)</tspan></text>
  </g>
</svg>