<?xml version="1.0" encoding="UTF-8"?>
<svg id="Layer_1" xmlns="http://www.w3.org/2000/svg" width="1024" height="1024" xmlns:xlink="http://www.w3.org/1999/xlink" version="1.1" viewBox="0 0 1024 1024">
  <!-- Generator: Adobe Illustrator 29.4.0, SVG Export Plug-In . SVG Version: 2.1.0 Build 152)  -->
  <defs>
    <style>
      .st0 {
        fill: #7c999f;
      }

      .st1 {
        fill: #59c7d9;
      }

      .st2 {
        fill: url(#linear-gradient2);
      }

      .st3 {
        fill: url(#linear-gradient1);
      }

      .st4 {
        fill: url(#linear-gradient3);
      }

      .st5 {
        fill: #006978;
      }

      .st6 {
        fill: #c7c9c2;
      }

      .st7 {
        fill: #d60000;
      }

      .st8 {
        fill: #9cd3a5;
      }

      .st9 {
        fill: #093546;
      }

      .st10 {
        fill: #b94242;
      }

      .st11 {
        fill: #b94242;
      }

      .st12 {
        fill: #6d6e71;
      }

      .st13 {
        fill: #4ca5b8;
      }

      .st14 {
        fill: url(#linear-gradient);
      }

      .st15 {
        fill: #ee919b;
      }

      .st16 {
        fill: #e6e4a1;
      }

      .st17 {
        fill: #dfb382;
      }

      .st18, .st19 {
        isolation: isolate;
      }

      .st20 {
        fill: #855130;
      }

      .st21 {
        fill: #19743a;
      }

      .st22 {
        fill: #855130;
      }

      .st23 {
        fill: #1a6e7d;
      }

      .st24 {
        fill: #656686;
      }

      .st25 {
        fill: #fff;
      }

      .st26 {
        fill: #464143;
      }

      .st27 {
        fill: #f5eadb;
      }

      .st28 {
        fill: #808285;
      }

      .st29 {
        fill: #d5bc2a;
      }

      .st30 {
        fill: #0c4a5c;
      }

      .st31 {
        fill: #d07d43;
      }

      .st32 {
        fill: #d07d43;
      }

      .st33 {
        fill: #696668;
      }

      .st34 {
        fill: #3488a3;
      }

      .st35 {
        fill: #b1b3b6;
      }

      .st36 {
        fill: #00bcd6;
      }

      .st37 {
        fill: #0a2228;
      }

      .st38 {
        fill: #a3353b;
      }

      .st39 {
        fill: #00854e;
      }

      .st40 {
        fill: #333132;
      }

      .st41 {
        fill: #5f4942;
      }

      .st19 {
        font-family: DS-Digital-Bold, DS-Digital;
        font-size: 30.8px;
        font-style: italic;
        font-weight: 700;
      }
    </style>
    <linearGradient id="linear-gradient" x1="175.1" y1="-583.7" x2="165.1" y2="-480.3" gradientTransform="translate(0 -382) scale(1 -1)" gradientUnits="userSpaceOnUse">
      <stop offset="0" stop-color="#f1a4a5"/>
      <stop offset="1" stop-color="#f4e6c7"/>
    </linearGradient>
    <linearGradient id="linear-gradient1" x1="945.6" y1="-865.4" x2="869.9" y2="-983.7" gradientTransform="translate(0 -382) scale(1 -1)" gradientUnits="userSpaceOnUse">
      <stop offset="0" stop-color="#0b1e24"/>
      <stop offset="1" stop-color="#06435d"/>
    </linearGradient>
    <linearGradient id="linear-gradient2" x1="880.2" y1="-900.3" x2="874.8" y2="-891.7" gradientTransform="translate(0 -382) scale(1 -1)" gradientUnits="userSpaceOnUse">
      <stop offset="0" stop-color="#157da7"/>
      <stop offset="1" stop-color="#2998be"/>
    </linearGradient>
    <linearGradient id="linear-gradient3" x1="841.9" y1="-951.4" x2="783" y2="-940.3" gradientTransform="translate(0 -382) scale(1 -1)" gradientUnits="userSpaceOnUse">
      <stop offset="0" stop-color="#995632"/>
      <stop offset="1" stop-color="#c57440"/>
    </linearGradient>
  </defs>
  <path class="st40" d="M332.6,286.8c-5-9.7-1.8-21.5-2.6-32-.5-37.7-.9-163.6.4-194.1,194-9.9,443.9-.9,640.6-3.2,5.5,0,12.6.8,13.2,7.5,3.2,45.9-.4,121.7.9,168.4,0,14.5.5,29.3,0,43.8-.4,5.4-.2,13.2-7.6,12.6-195.4-.2-444.3,1.9-639.6-.9,25.9,11.4,45.9,40.6,25.7,66.5-1.1,10.5-3.4,20.5-5.8,30.7,3,9.2,16.1,19.8,11.6,30-2.4,5.5-9.2,7.1-10.8,10.6,4.8,9.6-2.8,17.7-12.8,16.5,1.2,2.4,2.5,4.9,3.6,7.4-4,12.8-12.8,27.5-27.4,29,13.9,14.8,28.8,43.2,8.7,58.9,6.4,14.8,15.9,28.1,22.7,42.6,8.1-11,13.8-23.1,20.9-34.6,3.1-5.5,10.1-9.1,10.1-15.8-.6-5.2-3.9-10.5-5.4-15.6-1.9-6.7-1.2-13.8-2.3-20.6-4-15.2-12.6-30,5.5-40.4-8.8-45.7,64.5-45.8,50.4-.6,34.6,11.7,31.9,63.2,10.5,86,9.9,4.9,9.9,13.8,2,20.7,9.3,7.7,11.9,21.8,2,30.3,9.5,2.7,16.2,15.3,5.8,21.4l3.2,5.6c20.8-3.7,43.5,8.3,53.6,26.6,1.4-1.2,3.2-2.1,5.1-2.1-1.3-108.7-1.9-222.2,0-330.7,49.3-5.4,122.6.9,172.3-2-.3-4-1.3-10,1.3-13.4,5.6-1.8,45.9-1.8,52.2-.1,2.8,3.8,1,9.3,1.2,13.7,67.5,1.8,171.8-4.9,237.6,5,13.6-3.4,3.6,94.9,6.4,108.6,6.8,8.8,3.4,21.3,4,31.7-.5,42.2,1,102.7-.6,144.6-.9,1.2-1.7,2.5-2.7,3.5-.8,10.6,6.3,44.2-8.2,45.3-1.9,2-3.7,3.5-3.7,6.5l.7.9c7,1.2,18.8-1.1,22.1,6.8,2.2,5.9,2.1,21.6-.7,27.1-2.3,4.4-12.4,6-16.9,7.3-1.4,59.5,2.7,181.6-1.6,239-6,4.7-28.2,11.3-35.1,5.1-2.6-3.2-1.3-20.2-1.2-25.1-37.2,12.6-108.4,35.7-144.7,48.3,1,25.4,4.5,37.6-26.5,38-19.4.5-25.9-3.1-23.6-23.6-40.7-3.9-103.8-5.6-144.3-10.9.3,4.4,0,8.4-.4,12.7-4.4,5-9.9,5.8-16.2,5.8-17,.6-28.4-1.4-25.2-21.6-12.3,0-5.6-25.9-6.9-34.4-.4-22.4.7-70.5-.3-92.2-37.6-2.3-75.3-4.4-112.8-7.4-1.9,28-8.9,57.2-15.2,84.6-2.8,10.7-2.8,24.1-12.1,31.5,11.3,6.4,32.3,10.9,39.9,20.9,15.9,27.4-25.8,29.6-42.9,24.2-5.3,29.3-53.8,17.2-73.6,11.4-8.9,5.6-28.9-.7-36.6-6.3-3.2-3-2.8-7.4-2.9-11.4-10.7-6.7-13-18.7-5.1-28.7-13.5-3.8-28.8-5.3-42.8-7.1,2.1,5.2,3.2,8.8,2.3,14.4,15,6.6,13.6,29.9-1.5,35.3-17.6,7.3-35-12.1-24.7-28.6-9.5-7.6-19.2-16.3-29.7-22.4-27.3,3-54.7,7.8-81.6,13.3,4.7,13.2-5,28.4-19.4,27.9-19.6-.3-24-27.4-8.8-37.3-1.1-30.4,84.1-32,106.1-38.5,1.7-2.2,1.9-21.3,2.3-25.8-11.5-1.3-7.5-19.4-7-27.1-9.4-.3-18.7-1.5-28.1-2.4-8.2,5.9-19.9,3.8-26.9-3.1-26.3,1.6-60.7-12.5-48.6-44.3-31.5-13.1-25.1-67.4-32.2-95.9-3.9-60.1-57.7-162,38.2-168.6-14.2-2.7-39.8,2.8-50.8-4.1-3-31.3,0-118-1-151.3,0-2.8.3-9,2.8-10.8,40.7-4.4,83.7-1,124.9-.8,12.6-8.7,17.7-24.6,21.4-38.8-32.5-2-106.8,3.6-136.3-2.1-1.9-88.9-.3-181.6-.8-270.6-.2-4.7,6.9-3.8,10-4,52.2-.7,165.5.5,219.2,0,14,20.9-.4,188.7,5.5,204.5,32.1-.2,22.1,10,47.1,17.7l.4.5h0ZM426.5,551c-2.3,2.1-2.3,3.5-2.5,6.5-.5,32.4-14.7,68.9-41.4,88.3,23.3,6.1,44.8-22.5,62.3-34.3-10.1-2.1-14.8-11-6.4-18.7-11.4-3.5-10.4-15.7,1-18.3-3.5-2.4-6.3-4.5-8.7-8,1-3.4,2.2-6.6,3.9-9.7-2-1.5-5.9-5.4-8.2-5.8h0ZM231.9,884.2c-1.5,1.7-3,3.1-4.8,4.4,0,8.8,0,17.5.3,26.2,24.6,2.7,49.5,6.9,73.5,13.1,2.4-23.6,6.5-48.4,8-71.9-23.3,9.3-51,12.5-75.8,8.9-.5,6.4-.9,12.9-1.2,19.3Z"/>
  <path class="st32" d="M514.8,642.2c74.5,2.7,155.4,1.7,229.9,5.1-1.9,3.4-7.8,9.3-9.6,13.9-36.2-2.4-72.7-3.4-109-3.6-4.1-11.3-19.1-7-28.5-8.1-27.5-1.8-55.4-1.1-82.8-3.8l.4-.6h-.9l-.2.5-.9-.3c1.3-.6,2.6-.8,4-1.2v-.6c-.7-.5-1.4-1-2.3-1.4h0Z"/>
  <path class="st28" d="M945.9,648c10.7.9,21.7.5,32.5.5-1.9,2-3.7,3.5-3.7,6.5l.7.9h0c-2.1,1.5-24.9-1.1-29.2-1.5-.2-2.1-.3-4.2-.4-6.3h.1Z"/>
  <path class="st35" d="M560.4,731.4c69.1,2.8,141.2,5.5,210.3,9.6-.3,4.3-1.2,8.8-1.2,13.1l-.3,218.5c-63.5-4.1-145-8.6-208.1-15.4-.6-54.4,0-170.1-.7-225.8h0Z"/>
  <path class="st37" d="M560.4,731.4c69.1,2.8,141.2,5.5,210.3,9.6-.3,4.3-1.2,8.8-1.2,13.1-3.8,0-15.5-1.2-18.3,0-.5,10.2,1.2,69.8-1.5,76.9-8.5,4.3-37.6-1-48.3-1-40.9-3-82.7-2.9-123.2-8.2-3.2-11.4-.6-24.6-1.2-36.4.9-12.7-3.7-31.6,2.8-42.1v-.2c-1.1.5-1.9.8-3,.9-4.2-4.7-10.7-3-16.3-4.3v-8.1h0v-.2Z"/>
  <path class="st28" d="M560.4,731.4c69.1,2.8,141.2,5.5,210.3,9.6-.3,4.3-1.2,8.8-1.2,13.1-3.8,0-15.5-1.2-18.3,0l-.4.9c-.3-.8-.5-1.5-.8-2.3-55.9-6.8-113.8-4.5-170.2-9.5v-.2c-1.1.5-1.9.8-3,.9-4.2-4.7-10.7-3-16.3-4.3v-8.1h0Z"/>
  <path class="st35" d="M583,749.5c54,2.6,108,4.7,162,7.7v69.3c-53.9-3.4-108-7-162-9.6-.2-22.5,0-44.9,0-67.4Z"/>
  <path class="st37" d="M638.4,776.6c5.7-.8,43.5,1,46.9,3.6,4.3,3.7,3,10.8,0,14.9-10.7.3-62.9,4.1-46.8-18.5h-.1Z"/>
  <path class="st30" d="M641.5,783c8.3,0,33.2-.2,39.9,2.3.9,1.6.6,2.3.5,4.1-13.1-1-26.6-.6-39.6-2.6-.9-1.4-.7-2.2-.8-3.9h0Z"/>
  <path class="st37" d="M580.7,837.6c17.3,1.1,165.6,8.3,169.3,10.5,3.2,27.9,0,58.6,1,86.9-.8,4.9,2.7,15-3.2,16.9-12.1-.4-167-9.1-170-12.3-.7-8.3-4.7-102.1,2.9-102h0Z"/>
  <path class="st35" d="M583.1,843.5c53.8,4,108.1,5.3,161.9,9.6v92.7c-54.1-1.6-108-7.7-162-10.9-.6-30.4.4-61,0-91.4h0Z"/>
  <path class="st37" d="M639.6,882.6c14.2.2,28.8,1.2,42.9,2.3,7.9,1.5,8.4,14.3,1.8,17.7-11.5.6-65,3.2-44.7-20.1h0Z"/>
  <path class="st30" d="M641.6,888.5c6.5,1.2,45-3.2,41.1,8.4-5.5.3-36.7-1.1-39.2-2.8-1.7-1.1-1.7-3.9-1.9-5.7h0Z"/>
  <path class="st15" d="M57.5,71.2c72,0,148.5-1,220.4.2.4,66.3-.4,132.5-.3,198.8-5.4,1.2-10.8,2.5-16.1,4,0-79.7,10.9-54.5-80.7-58.1-11.5-5.5-4,82-4.8,86.8,4.1,3.2,28.5,1.3,34.7,1.1-10.6,8.2-16.7,17.8-20.2,30.9-44.2,0-88.5-.7-132.8,0-.9-86.4,0-177.4-.3-263.7h.1Z"/>
  <path class="st14" d="M57.5,71.2c72,0,148.5-1,220.4.2.3,37.2.1,74.5-.3,111.7-.3,3.9-4.2,8.2-6.1,11.6-10.4-8.9-23-31.5-33.7-37.7-5.8,3.9-27.8,31.1-33.8,38.7-44.4-48-29.1-49.2-73.2,0-5.8-7.6-12.1-14.6-18.3-21.9-5.3-5.7-9.3-14.4-16.8-17.2-7.5,4.7-22,26.9-29.3,34.8-2.8-3.1-5.4-6.5-8.6-9.2-.4-36.2,0-74.8-.3-111h0Z"/>
  <path class="st15" d="M57.5,71.2c72,0,148.5-1,220.4.2-.2,14.8.5,29.8,0,44.6-3.5,1.4-6.1,8.6-10.4,3.2-10.7-10.9-20.6-22.7-31.8-33.2-4.5,5.7-29.2,34.9-33.8,37.5-12.9-11.5-24.1-25.1-36.5-37.3-4.2,5.7-29.3,34.8-34.1,37-6.7-1-28.4-30.7-35.7-36.4-3.2,4.8-25.2,31.1-28.5,32.2-4,1.3-5.5-4.1-8.4-5.6l-.7.4-.4,3.3c-.3-9.7,0-35.8,0-45.9h0Z"/>
  <path class="st24" d="M201.9,114.7c41.1-43.6,25-49.3,69-1.4,1.9-3.3,3.4-5.7,6.6-7.8,0-5.2,0-10.4.3-15.6.3,8.6.3,17.4,0,26-3.5,1.4-6.1,8.6-10.4,3.2-10.7-10.9-20.6-22.7-31.8-33.2-4.5,5.7-29.2,34.9-33.8,37.5-12.9-11.5-24.1-25.1-36.5-37.3-4.2,5.7-29.3,34.8-34.1,37-6.7-1-28.4-30.7-35.7-36.4-3.2,4.8-25.2,31.1-28.5,32.2-4,1.3-5.5-4.1-8.4-5.6l-.7.4-.4,3.3c-.3-4.7,0-9.5,0-14.2l.5,1.1c2.8,1.1,5.7,5.3,7.6,7.6,7.2-6.4,23.6-30.5,29.9-32.5,6.3,2,29,30.4,35.1,36.6,41.6-46.6,27.7-46,71.3-.9h0Z"/>
  <path class="st15" d="M235.9,133.8c10.8,9.1,22.1,23.4,31.9,34,2.7,3.2,7.6,5,8.8,9.2l-.6.7c-.5-.4-1.1-.8-1.5-1.3l.2,1.8c-2.4,3.1-11.7-3.1-13.8-5.2-1.9-2.2-2.9-5.9-5.2-7.7-4.4-3.4-16.3-14.8-21.8-14-11.4,5.5-18.3,30.1-31,34.9-6.1-5.5-7.6-11.2-16.6-14.9-4.5-3.3-6.7-10.1-12.9-10.7,10,10.5,20.8,21.4,30.1,32.8h.5c.7-1.3-.6-2,.2-3,46-39.9,20-51.4,67,2.3,1.6-1.8,1.6-4.1,3.7-5.5,4.2-2.3.9-7.6,2.6-11,1.4,6.8-2,12.8-6.1,18.2-10.4-8.9-23-31.5-33.7-37.7-5.8,3.9-27.8,31.1-33.8,38.7-44.4-48-29.1-49.2-73.2,0-5.8-7.6-12.1-14.6-18.3-21.9-5.3-5.7-9.3-14.4-16.8-17.2-7.5,4.7-22,26.9-29.3,34.8-2.8-3.1-5.4-6.5-8.6-9.2v-16.4c.2.9.3,1.1.8,1.8l.4-.6c2.6,1.3,3.9,2.7,5.7,5,10.7-11.2,19.5-26.2,30.8-36.7,9,3.9,14,14.4,20.6,21.3,5,6,10.3,11.6,15.3,17.6,11.5-13.1,21.9-27.3,34.4-39.4,12.6,11.9,23.8,25.4,35.4,38.3,12.2-12.4,23.2-26.2,34.8-39.1h0Z"/>
  <path class="st15" d="M165.5,86.2c12.4,12.1,23.6,25.7,36.5,37.3,4.5-2.6,29.3-31.8,33.8-37.5,11.2,10.5,21.1,22.3,31.8,33.2,4.3,5.5,6.9-1.7,10.4-3.2.1,14.2.9,29.1-.3,43.2-.6-6.9.9-13.9-.6-20.7-.7.7-1.4,1.4-2.2,2-7-2.1-29.1-31.3-37.6-37.8-12.4,12.1-22.6,26.2-34.7,38.6-11.8-13.1-25.6-24.9-36.4-38.9-12.3,12.5-23.5,26.2-35.2,39.3-11.6-12.7-23.9-24.5-35.1-37.6-11.9,13.1-23.5,26.3-36.1,38.8l-.3-.5c-.9-.4-.4-.4-1.3-.3-1.1,4.2-.2,9-.6,13.3,0-13.8-.7-27.7.4-41.4l.7-.4c2.9,1.5,4.4,6.9,8.4,5.6,3.3-1.1,25.3-27.4,28.5-32.2,7.4,5.7,29.1,35.4,35.7,36.4,4.9-2.3,30-31.3,34.2-37.2h0Z"/>
  <path class="st24" d="M66.3,191.2c7.3-7.8,21.8-30.1,29.3-34.8,7.5,2.9,11.4,11.5,16.8,17.2,6.1,7.4,12.4,14.3,18.3,21.9,44.2-49.3,29-47.7,73.2,0,6-7.6,28-34.8,33.8-38.7,10.7,6.1,23.3,28.7,33.7,37.7,4.1-5.3,7.2-11.1,6.2-17.8.7,20.9.6,42,0,62.9-.5-14.5.6-29.1,0-43.6-3.5,4.9-6.8,7.8-11.6,2.2-10.3-9.8-17.8-22.6-27.7-32.7-7.5,7-25.9,34.2-32.9,37.6-7.7-1.7-12-10-17.3-15.2-6.9-7.7-13.7-15.5-21.1-22.7-45.8,49.5-26.2,49-70.9-.7-4.3,5.7-23.1,31.5-28.5,32.5-3.6.6-7-2.3-9.5-4.6-.4,32.1.4,111.6-.3,142.5-.6-46.4-.5-106.5,0-152.9,3.1,2.7,5.8,6.1,8.6,9.2h-.1Z"/>
  <path class="st37" d="M71.9,215.1c27.4,0,58.6-.7,85.6.9,3.6,6.7,1,33.4,1.4,43.1-1,15.5,2.2,45.1-1.2,59.8-28.3,0-57.2,1-85.4-.4-3.9-5.3-1.2-13.6-1.9-19.9v-63.2c.5-6.5-1.8-14.5,1.5-20.4h0Z"/>
  <path class="st25" d="M77,221.4c25.3.8,50.7.5,76,.6v90.9h-76v-91.5Z"/>
  <path class="st13" d="M90.1,254c5.9-.2,47.1-1.1,49.5.6.8,1.7.4,3.2.2,5-6,.7-47.1,1.1-49.2-.5-.9-1.6-.6-3.4-.5-5.2h0Z"/>
  <path class="st13" d="M90.3,238.1c4.7-1.7,41.8-1,48.5-.3l.9.7c2.4,9.2-42.5,3.2-48.8,4.3-1.3-1.4-1-3.1-.6-4.7h0Z"/>
  <path class="st34" d="M90.3,238.1c4.7-1.7,41.8-1,48.5-.3l.9.7c.1,1.4-.1,2.1-.6,3.4l-.7.5-.7-.2c0-.4.5-1.5.7-1.9l-.4-.9c-10.2-2.3-35,.2-46.7-.6l-1.1-.8h0Z"/>
  <path class="st1" d="M91.4,238.9c6.4,0,12.7,0,19,1.1-5.9,0-12.9,1.9-18.7.4,0,0-.3-1.4-.3-1.5Z"/>
  <path class="st13" d="M89.4,271c11.3,0,23.1-.9,34.4-.1,4-.5,4.4,2.9,3.7,6-6,.4-33.9,1-37.7-.9-.8-1.6-.5-3.2-.4-5Z"/>
  <path class="st13" d="M91,295.1c4.2,0,24.9-3,18,5.9-4.2.3-27.6,2.6-18-5.9Z"/>
  <path class="st31" d="M535.3,64.2c67.9,0,135.8,0,203.7.3v218h-204c.5-72.8.6-145.5.3-218.3Z"/>
  <path class="st37" d="M567.9,88.7c35.3,1,114.2-1.8,147.6.9,2.3,49.4,2.1,121.3.9,170.4-40,2.5-116.1.8-155.8.9-4,.6-5-2.9-4.8-6.3-.2-20.3,0-40.6,0-60.9.6-5.2-1.2-101.8,1-103.9,2.1-1.7,8.2-1.1,11-1.1h0Z"/>
  <path class="st16" d="M561.9,94.4c49.4-.5,99-.2,148.4,0,.5,40-.8,122.4,1,161.3-34.6-1.2-113.7-.4-149.3-.8-.4-37.8.2-121.7,0-160.6h-.1Z"/>
  <path class="st37" d="M601.6,150.7c8.3-.3,56.1-.7,60.8,1.5,2.7,29.5.8,60.3.5,90-1,1.3-1.6,1.2-3.1,1.7-19.6-1.3-39.4.6-59-.5-5.5-9.5-1.4-33.1-2.4-45.1,1.2-8-3.9-46.7,3.3-47.6h0Z"/>
  <path class="st27" d="M628.2,156.4c2.6,5.8,6.6,7.8,8.6.4,6.2-1.1,13.8-.3,20.2-.3v77.6c0,1.2,0,2-.3,3.2-17.2.7-34.7-.2-51.9-.3-.5-26.8,0-53.7-.3-80.6,7.9.2,15.9,0,23.8,0h0Z"/>
  <path class="st36" d="M633,181c2.5-.2,5.7,0,6.8,2.6,1.5,3.6,3.6,3.4,6,6.1,4.1,4.6-5.6,8.9-5.8,13.5,1.7,10,18.7,7.6-1.5,22.3-3.8-1.7-6.3-6.9-10.9-6.1-7.4,7.8-12.7,2.5-10.2-6.5,1.1-2.3,6.2-2.1,8.3-3.3,1.2-.7,1.2-1.1,1.5-2.3-1.1-4.7-6.9-5-10.2-8.1-6.1-6.4,2.6-10.7,8.6-8.8,2.7-1,5.8-7.1,7.4-9.4h0Z"/>
  <path class="st37" d="M695,236.6c11.3-3.4,18.9,15.5,6.2,18.2-12.4,1.3-18.3-12.3-6.2-18.2Z"/>
  <path class="st30" d="M698,242.3c4.4,0,5.7,5.9,1.9,7.8-4-.7-6-5.7-1.9-7.8Z"/>
  <path class="st31" d="M745.2,64.1c48.8.3,152.3-.7,199.8.3v218.1c-51.3.2-149.4-.3-199.5.1-.3-55.2.7-164.8-.3-218.5Z"/>
  <path class="st37" d="M768.1,89c13.7-.4,152.9-.7,154.8.2,3,50.1,2.3,121.5.5,171.9-47.9.6-107.4.4-155.3,0-1.6-49.1-3.4-122.2,0-172.2h0Z"/>
  <path class="st16" d="M773,94.5h145.1l.4,161.1h-145.2l-.3-161.1Z"/>
  <path class="st37" d="M755.1,246.6c10.8-1,11.9,15,1.8,16.8-10,.3-12-15.4-1.8-16.8h0Z"/>
  <path class="st30" d="M754.5,251.3c3.8,0,4.6,3.5,3.7,6.6-4.4.3-5.9-3-3.7-6.6h0Z"/>
  <path class="st29" d="M222.4,481.3c12.4,24,63.5,52.8,66.8,8.2,15,13.5,26.5,30.8,33.6,49.6,7.1,16.8,19.1,31.4,26,48.2-3.4,4.5-6.9,9.4-11,13.4-2.9,2.4-7.9,6-4.2,9.7,18.8-3.9,37.6-49.7,49.1-64.7,8.5,13,19.7,17.4,34.4,20.5-2.1,29.6-27.8,90.5-65.2,77.7-21.5-1.7-29.6,2.5-41.5-19,6.2-22.7,7.6-46.7,1.9-69.7-1.6-4.3-3.3-18-7.9-18.8l-3.5,4.2c12.2,30.3,10.9,67.7-3.3,97.2l-9.5-1.8c-14.7-17.5-21.2-40.9-30.7-61.5-6.9-14.7-11-38.2-25.2-47.1-6.4,1,7.8,19.4,8.9,23.7,12,29.4,20.5,61,39.4,87-5.3,2.6-16.2,9.2-18.3,14.6,3.2,8.1,15-7.8,19.4-9.4,15.6,2.9,32,4.3,47.8,5.7,10.2,1.9,30.9-3,35,8.4,3.6,9.5,5.5,28.8-3.5,35.6-95.9,16.3-136.1,5.1-175.9-87.9-3-4.5-4.6-23.5-11.2-21.5-5,11.9,14.5,44.6,20.6,56.7,17.2,34.4,49.9,67,90.6,65.6,3.2,6,7.9,12.9,6.8,19.8-8.8,6.5-53.3,12.5-67.6,16.8,3.7-45.1-99.9-21.7-104.1-35.7,2.5-22.2,18.7-45.2,23.9-67.3,15.9-55.7,15-133.6,78.4-158.2h0Z"/>
  <path class="st29" d="M194.4,640.1c17.2,34.4,49.9,67,90.6,65.6,3.5,5.2,5.5,11,7.3,17-65.2-2-87-17.1-100-82.4l2.1-.2h0Z"/>
  <path class="st31" d="M336.5,64c46.9.4,146.6-.7,192.1.3-.4,45.1.8,175-.3,218-63.8,0-127.6.5-191.3-.3-1-45.5,0-170.8-.5-218Z"/>
  <path class="st37" d="M358.2,88.6c47.9-.4,99.8-1.1,147.5.6,2.6,39,.3,118.7,1.2,158.8-.4,4.1,1.9,9.7-1.9,12.6-45.3.5-102,0-147.3-.4-2.4-49.5-2.8-121.3.5-171.6Z"/>
  <path class="st16" d="M362.4,94c33.3.3,106.2-.5,138.6.3v160.5c-46-1.3-92.3.8-138.4-.7-.8-53.4.5-106.8-.1-160.1h-.1Z"/>
  <path class="st37" d="M482.9,232.7c12.6-1.5,13.4,18.7,1.6,20.1-12.9,1.1-15.1-19.7-1.6-20.1Z"/>
  <path class="st30" d="M482,238.9c5.3-.8,6.4,4.2,2.7,7.2-5.9.1-5.9-3.3-2.7-7.2Z"/>
  <path class="st9" d="M514.9,248.6c9.9-1.6,12.2,9.3,4.3,14.1-8.3,2.7-12.1-11.2-4.3-14.1Z"/>
  <path class="st32" d="M798.3,741.2c47.7-10.5,103.3-25.3,150.8-37.2v14.5l-.7,188.3c-47.5,15.8-102.7,33.9-150.4,49.8-.6-70.9-.2-144.5.3-215.4h0Z"/>
  <path class="st22" d="M798.3,741.2c47.7-10.5,103.3-25.3,150.8-37.2v14.5c-49.7,13.9-100.3,25.9-150.2,39.4l-.7.7c.6-5.7.2-11.6.2-17.4h0Z"/>
  <path class="st37" d="M923.1,740.6c1.3-.2,2.2-.3,3.6,0,5.3,5.2,1.2,42.6,2.1,52.6,0,32.1.7,64.3.3,96.3,4.7,11.8-97,35-108.7,39.6-5.3-1.3-1.5-30.3-2.5-36.6.8-34.5-1.6-89.3.8-123.2,30.9-10.2,73-19.6,104.5-28.8h0Z"/>
  <path class="st28" d="M920.7,747.6h1.4c1.6,44.3.9,98.9.5,143.2-31.6,12.3-65.4,21.3-98,30.8-1-9.3.3-134.4-.2-147.6,32.2-8.5,64.1-17.9,96.3-26.4Z"/>
  <path class="st37" d="M888.1,854.4c7.4-1,7.3,10,.5,10-3.1-2.3-2.2-7.1-.5-10Z"/>
  <path class="st37" d="M842.3,824.8c7.5.4,4.3,10.5-2.1,9.2-4.1-2.2-.2-7,2.1-9.2Z"/>
  <path class="st37" d="M876.2,775.9c6.4-.4,4.9,7.1.7,9.3-5.7-.9-5.2-7-.7-9.3Z"/>
  <path class="st9" d="M855,824.7c2-7.2,9.4-3.1,7.3,3-2.2,4.3-8,1.4-7.3-3Z"/>
  <path class="st37" d="M855,824.7c1.7-6.7,9-3.7,7.4,2.4-.7-1.4-.7-2.4-1.9-3.6-1.9-.4-3.7.6-5.5,1.2h0Z"/>
  <path class="st9" d="M872.6,838.4c7.4-6.2,7.3,6.8,2.7,9-3.4.4-3.1-6.8-2.7-9Z"/>
  <path class="st37" d="M872.6,838.4c6.9-5,6.4,2.4,4.9,7.2-1.6-1.3-1.2-2.7-.8-4.6l-.8-1.1c-1.1,0-1.3.3-2.2.9-.9-.8-.8-1.3-1-2.5h-.1Z"/>
  <path class="st9" d="M842.2,847.4c1.2,0,2,0,3.2.3,3.3,3.4-1.6,7-4.5,8.7-3.7-1.9-2.7-7.8,1.4-9h-.1Z"/>
  <path class="st9" d="M858,863.8c6,.2,4.4,6.7,1.4,9.7-5.5-.6-5.7-7.2-1.4-9.7Z"/>
  <path class="st37" d="M843.5,784.4c6.4-.8,4.6,6.7,0,8.5-6-1.4-4.2-5.9-.2-8.5h.1Z"/>
  <path class="st37" d="M839.4,869.4c5.4-.3,9.2,3.3,4.1,7.5-5,2.5-6.5-4.1-4.1-7.5Z"/>
  <path class="st37" d="M889.7,812.4c6-.6,7.4,4.6,2.3,7.6-6.2.8-5.9-4.2-2.3-7.6Z"/>
  <path class="st37" d="M907.5,871c4.8.4,3.5,6.5,0,7.8-6.7.9-5.6-7.3,0-7.7h0Z"/>
  <path class="st37" d="M872.2,880c2.6.5,5.4,0,8,0-.6,2-1.2,3.9-1.9,5.8-6.6,3.6-7.1,0-6.1-5.8Z"/>
  <path class="st37" d="M889.4,771.9c8.6.2,5.4,10.6-1.9,6.8-1.9-2.4,0-5.1,1.9-6.8Z"/>
  <path class="st37" d="M907.2,808.4c5.5.3,3.8,7.9-1,8-5.5-1.2-3.3-6.9,1-8Z"/>
  <path class="st9" d="M903.1,833.1c1.6-2.2,4.2-4.5,7-3.6.8,3.5-2.1,9.2-6.3,8.5-1-1.6-.9-3-.8-4.8h0Z"/>
  <path class="st37" d="M903.1,833.1c1.6-2.2,4.2-4.5,7-3.6.4,1.3.2,1.7,0,3-2.3,0-4.1.3-6.2,1.1l-.7-.5h0Z"/>
  <path class="st37" d="M842.7,805.5c.8,0,1.5.4,2.2.6,2.8,3-1.1,7.8-4.3,8.4-2.7-2.8-2.4-8.5,2.1-9Z"/>
  <path class="st37" d="M876.1,817.4c6,0,3.3,6.8-.7,8.1-5.4-.4-3.6-7.2.7-8.1h0Z"/>
  <path class="st37" d="M905,767.5c5-1,7.4,4.1,3.6,7.4-5.4.9-6.4-3.6-3.6-7.4Z"/>
  <path class="st37" d="M842.6,889.9c6.2-.5,4.9,5.1.9,7.5-5.2-.4-5.6-5.7-.9-7.5Z"/>
  <path class="st9" d="M858,843.4c4.6-.8,7.3,5.2,2.1,6.5-5.2,1.1-6.7-4.2-2.1-6.5Z"/>
  <path class="st37" d="M889,833.9c4.9-.8,5.7,5.6,1.9,7.6-4.5,0-6.7-6-1.9-7.6Z"/>
  <path class="st37" d="M904.9,849.9c5.4-.4,6.7,4.2,2.7,7.4-4.6-1.1-7.2-3.9-2.7-7.4Z"/>
  <path class="st37" d="M858.1,780.4c5.4-.8,7.5,3.4,3.2,6.9-4.4.2-7.1-3.8-3.2-6.9Z"/>
  <path class="st37" d="M858.3,801.4c8,.5,3.6,8.6-2.3,7.1-2.1-2.4.4-5.4,2.3-7.1Z"/>
  <path class="st9" d="M874.5,860.6c5.4-1.1,6.3,4.7,2.3,7.4-4.1-.6-6.7-5-2.3-7.4h0Z"/>
  <path class="st37" d="M858.6,886c4.5-1.1,6.2,5.9,1.7,6.9-4.5,1.2-6.2-5.9-1.7-6.9Z"/>
  <path class="st37" d="M874.4,797.4c5.3-.3,6.1,4.3,1.8,6.9-5.3.3-5.9-4.2-1.8-6.8h0Z"/>
  <path class="st9" d="M890.1,792.5c5.9-.7,5.9,3,2.4,6.5-5,.3-7-3.6-2.4-6.5Z"/>
  <path class="st37" d="M904.7,789.5c6.1-1.1,6,3.6,2.4,7-.9.2-1.4.3-2.4.2-2-2-2.3-5.2,0-7.1h0Z"/>
  <path class="st37" d="M890,876.5c1.1,0,2.1,0,3.2.2,1.7,1.6,1.5,4-.3,5.4-5.2.7-8.9-2.4-2.9-5.6h0Z"/>
  <path class="st1" d="M845.3,425.5l126.7,1c.6,57.4-1.1,114.7-1,172-34.9-2.1-125.5-3.3-157.9-6.2-3.6-10-1.2-23.6-1.5-34.5.8-24.1,0-49.5.4-73.5,35.2,4.8,33.5-34.2,33.4-58.8h-.1Z"/>
  <path class="st3" d="M917.7,464.8c7.8,2.8,4.9,11.6,5.5,18,10,2.1,7.5,7.5.6,12,2.8,16.8,8.5,33.2,13.3,49.5,12-13.4,21.9-15.8,34.3-1.2-.4,18.5-.8,37-.5,55.5-34.9-2.1-125.5-3.3-157.9-6.2-4.3-16-.4-38-1-54.8l8.5,1.8c5.3-13.3,17.7-13.1,26.6-3.5,23.4-4.9,43.7-25.1,61.1-41.2-8.3-6.5-3.8-9.7,3.4-14,0-5.8-.3-13.3,6.1-15.8h0Z"/>
  <path class="st23" d="M811.9,566.3c53.1.2,106.2,3.8,159.2,4.5-.4,9.2-.3,18.5,0,27.7-34.9-2.1-125.5-3.4-157.9-6.2-2.4-2.5-.6-11.2-1-14.4v-11.6h-.3Z"/>
  <path class="st34" d="M811.9,566.3c41.3,1,82.8,1.1,124,4,1.8,3.5,6.2,6.1,9.2,2.4,1.8,1,3.4,2,5,3.3,1.3,18.2-21.3-6.9-27.1,13.1-17.6-2-34.8-3.7-51.9-8.6-20.7-6.1-28.9-17.8-47.4.4-2.8-1.3-7.7-4.8-10.6-4.3l-1,1.2v-11.6h-.2Z"/>
  <path class="st34" d="M839.6,578.7c3.3-.6,7.4-.5,9.8,2.2.8,6.1-16.8,7.9-20.3,4.3-3.8-6.1,6.6-6.4,10.5-6.5Z"/>
  <path class="st23" d="M857.7,532.8c17.8-6.6,36.2-25.5,50.5-38.2,7.9,6.8-12,55.4-13.4,68.4-27.4-1.1-54.8-1.4-82.2-1.4-2.2-2.1-.3-21.3-.6-24.1l8.5,1.8c5.3-13.3,17.7-13.1,26.6-3.5,3.2-1.3,7.1-3.3,10.6-3h0Z"/>
  <path class="st1" d="M857.7,532.8c17.8-6.6,36.2-25.5,50.5-38.2,7.3,7.7-9,45.7-10.7,57.9-7.1-11.7-25.5-10.2-30.1,2.9-2.4-11.2-9.9-13-19.1-17.2l.2-.8c2.6-2.2,6-3.3,9.2-4.6h0Z"/>
  <path class="st21" d="M937.2,544.2c12-13.4,21.9-15.8,34.3-1.2-.2,7.4-.6,14.9-.3,22.3-9.8-.4-19.6-.6-29.3-.9-1.7-6.7-3.2-13.4-4.6-20.2h-.1Z"/>
  <path class="st34" d="M914.4,520.4c-1.4-.8-1.7-.8-2.3-2.4,1.1-3.6,1.8-14.7,7.3-12.8,6,7.8,4.7,21,9.7,29.5-3.2,2.6-6.3,5.4-9.8,7.4-2.4-1.8-4.8-3.6-7.1-5.5,3.4-2.2,6.2-4.3,8.7-7.6-.8-.7-1.6-1.2-2.6-1.7-3.1,3.2-6.9,5.4-10.6,7.8,1.4-5.3,1.2-12.1,6.7-14.8h0Z"/>
  <path class="st34" d="M911.2,523c2.3,1.2,5.3,2.5,7.1,4.4-3.1,3.2-6.9,5.4-10.6,7.8,1-4.1,1.3-8.6,3.5-12.2Z"/>
  <path class="st9" d="M914.4,520.4c3.3,2,6,3.1,9.8,4,.5,1.4.6,1.4,0,2.7-1.2.6-2.3,1.2-3.4,2-3-2.2-6.2-4.5-9.7-6.1,1.4-1,1.5-2,3.3-2.6h0Z"/>
  <path class="st13" d="M919.1,547.9c5.2,5.6,12.1,9.3,17.8,14.3v1c-10.8,3-27.7-.6-39.4-.2,7.5-4.7,15-9.2,21.7-15.1h0Z"/>
  <path class="st23" d="M928.4,555.9c2.8,2,6.1,3.8,8.5,6.2v1c-2.9,2.2-16.9.8-21.1.4,3.7-.4,7.6-.3,11.3-.3l1.3-7.4h0Z"/>
  <path class="st13" d="M906.6,539.1c3.1,1.8,6.2,3.6,9,5.9-3.4,3-9.2,8-13.4,9.7,1.5-5.2,2.9-10.4,4.4-15.6h0Z"/>
  <path class="st34" d="M930.1,541l.6.2c1.5,3.4,2.1,7.7,2.9,11.4-3.2-2.8-7.5-4.4-10.5-7.4l7.1-4.1h0Z"/>
  <path class="st30" d="M917.2,483.7c4.4-.6,4.8,6.3,1.8,8.2-6.6.6-4.1-4.8-1.8-8.2Z"/>
  <path class="st27" d="M917.7,464.8c1.4-1.8,2.9-1.4,3.6-3.6,7-13.8,32.3-11.1,34.4,5-.5,13.9-25.3,11.1-32.5,4.2-.7-2.9-3-4.4-5.5-5.6Z"/>
  <path class="st2" d="M904.7,491.4c1.4.9,2.4,2,3.5,3.2-17.2,15.6-37.1,36.2-60.1,40.7.7-6.2,8.9-7.9,13.6-10.3,11.4-5.4,22.1-13.6,30.8-22.8,4-3.5,6.5-10.2,12.2-10.9h0Z"/>
  <path class="st27" d="M869.5,445.1c7.2-1,13,2.8,12.6,10.5,2.8-.5,5.4-.6,8.2-.6,5.3,2.5,12.5,9.2,7.7,15.2-4.2,4.3-16.2,3-21.8,3.1-5.1.1-18,1.9-21.7-1.6-7-9.7,10.4-9.3,16.1-8.7-11.8-2.5-11.4-14-1-17.9h0Z"/>
  <path class="st39" d="M264.3,741.2c33.1,8.6,108.5,17.2,121.9,52.1,9.6,41.4-12.3,121.9-26.5,161.2-12.4,7.3-41.7,3.1-53.8-2.5,3.2-40,7.4-80.5,13.8-120.1,2.4-9.4,12.7-14.5,10.8-21-6.8-3-14.5,13.8-17.4,18.3-48.8-16.1-103.9-15.9-154.6-22.2,1-13.7,2.4-28.3,5.4-41.6,33.7-7,66-20.8,100.5-24.1h0Z"/>
  <path class="st30" d="M623.4,334.7c48.7-.6,97.6-.5,146.4,0,.3,28.7-.3,57.5.3,86.2-77-1.1-154.1.7-231,.9-.8-28.7,0-57.5-.5-86.2,28.3-.8,56.6-.1,85-.8h-.2Z"/>
  <path class="st37" d="M607.9,342.8c20.4.7,62.4-2,82.1.4,4.2,8.2,2,30.1,1.7,38.7.9,11.8-49,4.5-58.4,6.1h-51.8c-10.3-.6-22,2.2-31.5-1.9-2.1-6.9-.9-33.1-.9-42.1,19.2-2.9,39.4,0,58.9-1.2h0Z"/>
  <path class="st1" d="M651.3,347.2c11.4-.1,23.4-1,34.7.3.2,11.6,0,23.3,0,34.9h-132c-.3-11.5,0-23.1,0-34.7,23.2-.9,73.4-.2,97.3-.6h0Z"/>
  <path class="st1" d="M648.8,365.6c.3-2.2,1.1-6.1,4-5.5,5.7,4.3-2.1,16.2-4,5.5Z"/>
  <path class="st1" d="M665.9,359.6c5.2.3,4.3,7.5,2.2,10.6-5.5-.2-3.8-7.4-2.2-10.6Z"/>
  <path class="st37" d="M733.5,346.1c24.7-2.7,28.7,36,3.6,38.2-1.9-2.7-5.5-3.2-8.3-4.8-16.6-10.2-14.7-28.7,4.7-33.4h0Z"/>
  <path class="st32" d="M733.8,351.1c16.7-2.6,20.2,21.5,5.2,26-10.9,2-12.9-6.2-1.5-8.3,1.4,1.5,3.2,3.6,5.3,3.8l.4-.9c-4.5-19.1-10.5-5.2-18.8-4-5-6.9,2.3-15.1,9.4-16.5h0Z"/>
  <path class="st37" d="M621.5,398.2c11-.2,28.4-1.6,38.8.7.4,5.5.6,11,0,16.4-10.3.8-42.9,0-53.8,0-.3-4.8,0-9.6,0-14.4,4.8-2.7,9.6-2.6,14.9-2.8h0Z"/>
  <path class="st17" d="M611.7,404.2c14.4-.9,29.3-.2,43.8-.2,0,2.3.5,5.6-.6,7.6-14.6-.2-29.3,0-43.9-.2-.2-2.5-.8-5.2.7-7.2h0Z"/>
  <path class="st37" d="M699.3,397.2c6.9.6,27-3.5,30.1,3.6.8,4.7,1.9,16.2-5.8,14.9-6-.3-26,1-30-1.3-3.8-5.1-2.9-18,5.7-17.2Z"/>
  <path class="st0" d="M701.3,402.2c7.5-.2,15.1-.5,22.6,0,0,3,1.2,6.2-.9,8.7-8.6.3-17.3,0-25.9.1-.3-3.8-1.4-9.6,4.2-8.8h0Z"/>
  <path class="st37" d="M557.5,394.5c13-2.4,21.9,17.6,8,22.5-14.4,2.5-21.3-15.8-8-22.5Z"/>
  <path class="st32" d="M559.7,399.4c7.7-.4,10.7,10.8,2.9,13.2-8.4.3-10.1-9.8-2.9-13.2Z"/>
  <path class="st37" d="M589,396.5c17.9-3.1,17,20.1,1.4,19.4-9.4-.9-9.7-16.4-1.4-19.4Z"/>
  <path class="st9" d="M590.4,400.6c7.7-1.7,9.8,6.3,4.2,10.7-6.1,1-10-7.3-4.2-10.7Z"/>
  <path class="st37" d="M747.8,396.1c12.8,0,14.8,16,1.9,18.6-12.4,2.8-14.1-18.1-1.9-18.6Z"/>
  <path class="st23" d="M746.2,400.4c5.9-1.1,10.3,5.2,4.9,9.3-6,2.5-9-5.5-4.9-9.3Z"/>
  <path class="st37" d="M670.8,398.4c8.2-1,12.9,8.5,5.6,13.4-11.2,5-10.5-7.2-5.6-13.4Z"/>
  <path class="st37" d="M708.4,369.5c.9,0,1.5,0,2.3.3,5.1,5.3-2.8,7.1-7,6.1,0,2.9-1.3,7.1,1.5,8.9l-.5.5c-7.1-1.9-3.6-15.6,3.7-15.8Z"/>
  <path class="st37" d="M702.3,343c3.3-.3,7.6.4,8,4.4-2.7,3.1-11.5,2.2-11.4-2.6.9-1.2,2.1-1.4,3.5-1.8h0Z"/>
  <path class="st37" d="M704.8,356.1c16.1,1.6.3,12.2-3.2,2.7.8-1.4,1.8-1.9,3.2-2.7Z"/>
  <path class="st37" d="M753.7,335.5c1.6,0,2.3-.3,3.7.5,1.1,2.9.5,6.1.3,9.1-5.2-.3-5.2-5.7-4.1-9.6h0Z"/>
  <path class="st30" d="M541.5,447.8c48.3-.3,178.7.6,228.9.2-.9,19.5,1.6,65-.5,83.4-1,.6-229.8-.5-231-.3.3-8.4-1.8-80.5.5-82.9,0,0,2-.4,2.1-.4h0Z"/>
  <path class="st37" d="M650.5,457.1c15.7-.1,31.4.3,47.1.4,11.2.7,24-2.3,34.4,2.2,1.4,7.6,2.1,23.7-1.9,29.9-8.7,3.5-32.9,1.2-43,1-11.2-.4-22.6.5-33.8-.5-4.2,2.7,3.8,35.4-3.9,38.6-1.9-1.1-1.3-3.6-2.6-5.2-6,1.1-28,1.7-32.3-1.5-2.9-3.6-2.8-17.1,0-20.3,3.3-2.3,7.7-.9,11.5-1.1,7.3-.1,14.7-.7,21.9,0,.2-10.6-5.2-36.4,2.6-43.5Z"/>
  <path class="st27" d="M653.2,462.5l73.2.5c0,7.4.5,14.9,0,22.2-24.4.6-48.8,0-73.1-.3-.4-7.4-.3-15,0-22.4h-.1Z"/>
  <path class="st33" d="M687.4,469.9c5.7-.8,5.2,5.6,2.9,8.9-4.8,1-3.8-6.1-2.9-8.9Z"/>
  <path class="st33" d="M712,469.1c.7.2,1.2.5,1.8.8,1.7,3.1-1.5,7.1-3.2,9.5-4.1-2.2-.7-7.7,1.4-10.3Z"/>
  <path class="st33" d="M666.3,470.3c5.6-.5,3.8,5.5,1.7,8.4-5,.8-2.2-5.9-1.7-8.5h0Z"/>
  <path class="st6" d="M618.3,505.6c9.1-.3,18.2-.1,27.3,0,0,4.4.3,9.3-.7,13.5-9,.3-18.1,0-27.2,0-.2-4.2-.8-9.5.6-13.5h0Z"/>
  <path class="st30" d="M627.9,509.9c4.7-.8,8,2.7,3.4,6-4.6.4-7.7-2.3-3.4-6h0Z"/>
  <path class="st37" d="M555.1,455.6c26.8,0,54.3-1.4,81,1.1,1.3,7.4,1.7,25,0,32.2-9.7,2.5-83.5,4.8-86.8-2.8-.9-3.1-.5-25.3,1.1-27.8,1.2-1.9,2.7-2.2,4.8-2.6h0Z"/>
  <path class="st27" d="M556,460.8c24.9-.6,50.1-.5,75.1,0,0,6.2,2.1,18.5-.6,23.7-25.2.2-50.6.5-75.8-.3,0-4.3-2.6-21.3,1.3-23.4h0Z"/>
  <path class="st26" d="M579,469c8.2,0,21.5-1,29.1.3.8,1.4.5,3.1.4,4.7-8.6.4-20.4.8-28.9-.2-.8-1.4-.6-3.2-.6-4.8Z"/>
  <path class="st33" d="M618.4,468.6c6-1.8,8.8,5.5,4.6,9.3-6,1.9-8.8-5.5-4.6-9.3Z"/>
  <path class="st33" d="M563,467.9c6.5-1.2,7.6,4.7,5.8,9.6-7.2,2.8-6.5-4.9-5.8-9.6Z"/>
  <path class="st37" d="M556.4,499.2c8.4-.3,33.5-1.5,40,.9,3.6,4.2,3.1,18.7.2,22.9-13.9,2.5-28.9.4-43.1.8-1.4-1.5-2.7-3.2-4.1-4.8-.8-6.5-1-13.3,1.1-19.5,1.9-.2,3.9-.2,5.8-.4h0Z"/>
  <path class="st6" d="M573.8,504.3c6.8-.3,13.5-.1,20.3.2v15.1c-13.1,0-26.2.4-39.3-.6-.4-4.8-.2-9.7-.2-14.5,6.4-.3,12.9,0,19.3-.2h0Z"/>
  <path class="st9" d="M579.8,508.3c4.3-.5,3.7,5.6.3,6.3l.7-1.4c-5.6.9-11.8,3.6-17.7,1.7-5.4-7.9,12.6-6.1,16.6-6.5h.1Z"/>
  <path class="st37" d="M682.1,492.1c22.9-2.6,28.2,32.9,5.5,35.7-25.2,2.4-28.9-29.2-5.5-35.7h0Z"/>
  <path class="st32" d="M681.7,497.1c17.1-3,20.3,21.8,4.7,26.2-17,2-20.8-22-4.7-26.2h0Z"/>
  <path class="st37" d="M749.2,461.1c14.1-3,20.2,18.5,7.1,24.1-18.3,2.8-21.5-19.6-7.1-24.1Z"/>
  <path class="st34" d="M751,465.5c8.5-1,12.6,13.2,3.3,15-10.4,2-11.9-11.3-3.3-15Z"/>
  <path class="st37" d="M718.5,500c14.6-.7,23.2,20.2,5.3,22.9-13.6,2.7-17.7-18.6-5.3-22.9h0Z"/>
  <path class="st9" d="M720.1,506c14.3-1.8,7.7,20.3-3.3,9.7l-1.4-5c1.5-1.7,2.9-3.2,4.7-4.7Z"/>
  <path class="st9" d="M720.1,506c8-1.5,10.9,7.2,5.2,12.1,0-4.4.6-11.3-5.2-12.1h0Z"/>
  <path class="st37" d="M747,502.6c13.6-3.1,21.2,15.4,8.8,19.1-14.7,5.5-21.5-11.4-8.8-19.1Z"/>
  <path class="st30" d="M750.2,507.3c6.4-.8,8.9,8.8,2.8,11.1-8,3.3-11.5-10.2-2.8-11.1h0Z"/>
  <path class="st30" d="M539,555.5l231.4,1.9c0,27.8,0,55.6-.4,83.4-76.8,0-154.1-5.3-230.9-3.8-.8-27.1,0-54.4,0-81.5h0Z"/>
  <path class="st37" d="M592.8,565.1c29.7-.3,65.1,1.5,94.1,1.5,6.6,1.6,3.9,23.3,3.1,27.9-.7,1.4-1,1.4-2.4,1.9-24,.2-48,0-72-.4-8-.8-19.1,2.9-25.6-2.2-1.6-4.8-4.4-26.9,2.8-28.7h0Z"/>
  <path class="st6" d="M594,571c30.4,0,60.9-.4,91.2.9,0,6.3.2,12.9-.4,19.2-18,.8-72.5-1.1-91.3-1l.5-19.1h0Z"/>
  <path class="st26" d="M628.7,574.2c6.3.3,4.6,12.2-1.7,9.9-1.5-2.9,0-7.4,1.7-9.9Z"/>
  <path class="st9" d="M647.7,574.9c5.7-.7,5.3,5.9,4.4,9.7-6.4,1.5-5.9-5.6-4.4-9.7Z"/>
  <path class="st26" d="M665.8,575.9c5.6-.8,4.6,6.2,3,9.5-6.1.8-4-5.9-3-9.5Z"/>
  <path class="st9" d="M608.6,574.2c5.6-.2,3.9,6.6,3.7,10.2-5.9.9-4.4-6.7-3.7-10.2Z"/>
  <path class="st37" d="M738.7,563.6c25.7-2.4,31.1,36.6,4.9,39.9-26.7,2.2-28.4-33.4-4.9-39.9Z"/>
  <path class="st23" d="M738,569.1c15.5-3,24.2,17.6,12,27.1-22.6,8.4-31.6-16.9-12-27.1Z"/>
  <path class="st37" d="M598,602.1c29.4-2.2,16.9,36.6-7,21.8-2.4-8-1.4-18,7-21.8Z"/>
  <path class="st32" d="M599.2,607c10.2-2.6,15.4,10,6.2,15.1-10.2,2.5-14.3-9.5-6.2-15.1Z"/>
  <path class="st37" d="M562.1,565.2c14.4-.5,15.2,26.1,0,24.9-16,1.3-16.1-25.4,0-24.9Z"/>
  <path class="st32" d="M561.2,570c9-.2,9.4,13.2,1.4,15.4-10.1-.4-10.4-12.6-1.4-15.4Z"/>
  <path class="st37" d="M560.2,600.5c15.4-1.6,20.2,22.4,3.4,23.9-16.8,3.1-18-19.8-3.4-23.9Z"/>
  <path class="st30" d="M560.6,604.9c9.7-.3,11,13.3,2.3,16.2-10.9-.2-9.5-11.4-2.4-16.3h.1Z"/>
  <path class="st37" d="M637.4,602.6c12-.9,16.4,15.8,7.9,23-19.3,8.8-26.6-17.9-7.9-23Z"/>
  <path class="st34" d="M636.8,607.4c8.5.3,11.6,12,3.2,15.2-9-.3-11.3-11.3-3.2-15.2Z"/>
  <path class="st37" d="M675.4,604.6c12.3-.2,16.5,15.4,7.7,23-18.9,6.2-27.9-19.7-7.7-23Z"/>
  <path class="st34" d="M673.2,610.3c9.5-4.2,14.2,11.8,4,13.4-7.9,1.4-11.3-10.3-4-13.4Z"/>
  <path class="st37" d="M744.1,609.6c19-3.2,19.6,25.1-.2,21.9-9.7-4-9.7-18.2.2-21.9Z"/>
  <path class="st17" d="M745.5,614c8.6-1.2,10.5,8.2,4.1,12.7-8.1,2.2-11-9.2-4.1-12.7Z"/>
  <path class="st37" d="M714.5,609.1c9.3-2,16.1,8.8,11.3,16.7-3.8,6.4-15,6.3-19.2.5-2.3-3.6-1.3-8.7-.3-12.7,2.5-1.9,5.2-3.5,8.2-4.5Z"/>
  <path class="st23" d="M714.8,613.5c8.9-1.5,9.7,8.4,3.6,12.8-8.1,2.3-11.8-10.3-3.6-12.8Z"/>
  <path class="st37" d="M712.7,591.2c6.9-.5,5.3,9.5-3.1,8.3-8.2-4-4.1-8.3,3.2-8.4h-.1Z"/>
  <path class="st37" d="M715.8,576.8l.3.3c2.4,7.3-9.7,6.5-13.5,4.1-.5-6.1,9.3-4,13.2-4.4h0Z"/>
  <path class="st37" d="M712.7,564.5c1.5.2,3.7,0,4.3,1.5-2.1,4.7-9.9,5.9-14.1,4,.3-1.6,1.3-2.3,2.5-3.5,2.5-.6,5-1.3,7.4-2h-.1Z"/>
  <path class="st32" d="M519.7,316c128-.7,288.6-1.2,416.8-.9-.9,34.6.4,69.2-.4,103.8h-12c-.8-21,1.4-71.3-.8-91.2-43.5-.8-89.5-2.2-133,.8-1.1,20.2.6,40.5-.3,60.7-.2,5.1-3.5,8.4-4.3,13.1-1.4,8.6-.8,18.2-.8,26.9.5,16.4-2.7,35.3,6.1,50.1,2.8,18.1-8.7,172.2,5.5,166.1,22.7-2.1,42.1-12.9,65.6-6.8-9.5,1.9-28.7,1.5-28,14.9-29.9,7.3-60.8,10.4-91.6,7.6,2.9-5.4,6.2-9.6,10.4-14.1,6.4-.2,20.5,2.8,23.8-4.3-.2-104.5.4-210.1-.2-314.6-80.3-.3-163.6.2-243.8,1.2-.5,102.6-.5,205.4,0,308h-13c.2-77.9-.4-245.5,0-321.2h0Z"/>
  <path class="st28" d="M300.6,719.1c84.3,6.2,169,6.9,253.4,11.7-.5,18.9.9,81.7-.2,99.3-37.1.4-74.3-5-111.4-7,10.3-95.4-79.1-78.1-144-97.2,0-2.4,1.3-4.7,2.2-7v.2Z"/>
  <path class="st10" d="M91.7,552.5c16.1,20.9,15,56.2,52.7,53.3-2,14.1-6,31.5-10.8,44.9-7.2,19.9-20.5,39.1-20.2,60.8-5.7,1.5-11.6,2.5-17.4,3.6-10.5-37.1-18.7-76.9-23.7-115.2-1.7-10,3.6-21.1,0-30.5h-1c-17.4,23,12.1,117.6,18.3,148.5-10.9,7.4-11.4,24.1,3.4,26.8.5,19.1,4,35.4,12.7,52.4-6,2.5-11.4,6.1-17.6,8.4-26.6-7.9-22.3-65.4-28.4-88.6-4.7-28.5-10.6-56.7-14.6-85.3-8.1-50.2-8-68.6,46.9-79h-.3Z"/>
  <path class="st22" d="M332.7,312.7c34.9,18,23,45.6,19.1,76.1,1.7,10.4,16.4,17.9,9.5,29.2-5.3,3.8-17,0-19.8,5.1,1.1,4.5,12.9,4.1,10.4,10.2-6.1,10.7-26.3-3.4-34.7-.7-5,10.9,14.8,19.1,23.6,20.3-7.4,30.2-31.4,19.4-51,8.5-8.7-3.3-16.1-8.7-21.9-16.1-4.2,2.2.2,9.1,1.1,12.4,4.4,10.3,9.5,14.1,16.7,21.9-2,4.5-3.8,9-5,13.8-1.3,4-1,9.5-4.2,12.5-18.2,3.9-38.2-12.9-48.4-26.8,17-10.8,23.9-28,25.7-47.3,18.8-10.7,24.6-35.6,20.7-55.6,24.3-14.3,54.9-32.8,58.2-63.5h0Z"/>
  <path class="st37" d="M320.7,356.6c5.8-.3,12.3-.8,17.3,2.9,7.8,6.7-6.8,8.3-11.4,7.2-4.6.2-11.5,4-15.7,2.6-6.3-4.5,5.2-12.1,9.8-12.6h0Z"/>
  <path class="st37" d="M325.9,376.8c7.1,2.7,6.9,16-1.3,17.2-9.2-2.1-6-14.6,1.3-17.2Z"/>
  <path class="st35" d="M834,660.2h1.2c1.4,1.3,1.9,3.3,2.5,5.1,23.2,1.3,98,15.5,110.7-4,10.7-.4,21.1.2,31.7,1.1-188.5,67.1-390.7,35.4-586.2,29.8,9.4-1.4,20-1.6,29.1-4.4,5.8-1.8,11.2-6.4,17.3-6.6,56.5-1.5,114.9,16.8,170.2,1.7,13.9-2.4,16.8-4.4,15.5-19.2,8.1.9,16.4.9,24.5.9-11.5,2.8-14.6,16.3-9.1,25.7,13.6,10.6,57.1,8,64.9-8.9,15-1.5,23.4-2.8,34.1-14.2,31.4.9,62.9.7,93.6-7h0Z"/>
  <path class="st35" d="M370.5,698.1c128.5,3.6,292.2,12.1,421.4,14.7-.4,7.2-.3,14.5-.4,21.7-131.6-6-364.5-13.6-495.1-22.1-1.6-2.5-3-5.2-4.5-7.8,25.7,0,53.3-1.9,78.6-6.4h0Z"/>
  <path class="st39" d="M291.8,733.5c170,16.4,159.6,46.1,121.8,201-10.7,10.6-26.8,6.5-40.2,4.8,26.7-118.8,58.8-180.1-91.2-200.3,3-2.1,6.4-3.8,9.6-5.5h0Z"/>
  <path class="st21" d="M60.5,397.4c19.2.5,68.8.5,88.7.7-6.4,12.5,1.4,29.9-7.4,40.6-6.4,7.7-21.3,14.8-29.6,24-22.6,35.5,24.5,68.1-51.8,60.5-.3-38.6,0-86.8.2-125.8h-.1Z"/>
  <path class="st21" d="M97,438.9c6.9,9.8,6.5,20.2,11.3,30.1-12.2,36.7,22.7,60.1-47.9,54.2,0-15.5-.4-31.1,0-46.6,24.4,1.7,27.9-20.6,36.6-37.7Z"/>
  <path class="st8" d="M60.3,472.3l.2-.7c20.4-2.1,21-12.5,28.5-29.1,13.3-31,19.6,7.5,23.2,20.1l-3.9,6.3c-4.8-9.9-4.4-20.3-11.3-30.1-8.7,17.1-12.2,39.4-36.6,37.7v-4.3h0Z"/>
  <path class="st28" d="M849.6,333.3c22.6,0,45.2-.6,67.8.1.7,28.3.4,56.9-.2,85.3-24.3,0-48.8-.3-73.1,0-5.7-25.8-5.3-58.5-5.1-85.2,0,0,10.5-.2,10.6-.2Z"/>
  <path class="st20" d="M951.8,66.1h25.8c-1.2,71.5,1.2,144.5-.5,215.9-8.5.3-17,.4-25.5.3,0,0,.2-216.2.2-216.2Z"/>
  <path class="st10" d="M158,812.8c51.2,7.5,104.1,7.1,154.1,21.5-.6,4.7-1,9.5-1.7,14.2-48.1,19.5-99.8,6.8-149.7,2.8-3.5-13.8-3.8-24.6-2.7-38.6h0Z"/>
  <path class="st38" d="M283.1,827.2c10,1.7,19.3,4.3,29.1,7.1-.6,4.7-1,9.5-1.7,14.2-9.9,2.9-19.8,6.1-29.8,8.3-.4-4.5.5-26.4,2.4-29.6Z"/>
  <path class="st20" d="M202.5,891.9c.5.7,1,1.3,1.5,1.9,5.6-1.9,11.1-1.4,16.9-1,.4,9.5.6,19,.7,28.5,26.4,1.8,52.4,6.7,77.9,13.6-.4,5.2-.6,10.4-.6,15.6-17.6-2.5-35.3-6.5-53.2-6.6-3.4-2.4-6.1-4.7-10.3-5.1-1.5,1-.1,1.4-.9,2.7-.8-.2-1.5-.4-2.3-.4,5.1,7.8,14.7,6.7,13.4,19.5-4.6,2.5-8.8,4.5-13.9,5.7-11.8-6.5-21.1-18.5-33.4-24.2-9.6-2.6-70.1,11.2-84.7,12.4-6.9,1.2-28.8-2.9-16.6-12.6,16.4-8.7,78.6-19,94.5-21.7,1.5,3,7,5.5,8.9,1.7,2.1-5.8-3.7-21.6,1.9-30.1h.2Z"/>
  <path class="st25" d="M181.9,222.2c24.2.7,48.4.4,72.7.4,0,17.3-.8,35.1.4,52.4-14.5,4.6-27.5,12.7-38.7,22.9-11.6-.2-23.1,0-34.7,0,.6-16.4-1.1-60.2.3-75.7Z"/>
  <path class="st13" d="M194.6,236.4c15.2.9,30.9-1.3,45.9.7,1.1,1.6.5,3.2-.1,4.8-5.7-.2-43.8,1.7-46-.6-.5-1.7,0-3.2.3-4.9h0Z"/>
  <path class="st13" d="M194.9,253.4c9.6-1.1,19.7-.5,29.4-.4,3.9.5,20.6-2.8,15.7,5-8.4.3-16.9.3-25.3.3-5.5-.4-16.6,2-20.7-1.4,0-1.4,0-2.4.9-3.6h0Z"/>
  <path class="st34" d="M238.7,258c-14.2.2-29.1,1.4-43.2.1-1.2-.2-.9-.2-1.5-1.1,0-1.4,0-2.4.9-3.6,10.7.6,21.7-.7,32.3.6h-.8v.3c-5.4.7-27.7-.2-30.5,1.7,5.6,3.2,35.6-1.4,42.8,2Z"/>
  <path class="st13" d="M194.2,270.5c3.6,0,22.7-.7,24.6.8.5,1.7.3,2.9,0,4.6-6.5.3-19,2-24.4-1-.7-1.5-.4-2.9-.2-4.5h0Z"/>
  <path class="st35" d="M990.3,666.1l.7.3c1.1,3.3,0,15.7,0,19.9-43.2,10.6-149.9,39.5-191.9,48l-.6-.3c-1.4-4.8-.6-16.2-.8-22,64-16,129-28.3,192.6-45.8h0Z"/>
  <path class="st28" d="M955.5,702.7c6-1,12-1.8,18-2.6-.3,63.9.2,168.2-.5,231.1-5.9,2.2-12.1,3.6-18.2,5.1l.7-220.4v-13.2Z"/>
  <path class="st28" d="M955.5,702.7c6-1,12-1.8,18-2.6v9.1c-4,5-16.2.4-17.9,6.7v-13.2h0Z"/>
  <path class="st28" d="M777.1,741.7h15.2c-.6,27.2.3,224.7-1,246.3-3.3,5-10.4,5.3-15.8,6.5.9-65.7-1.8-188.9,1.6-252.8Z"/>
  <path class="st20" d="M942.6,316.8c12.1,1.9,24.3,3.2,36.5,4.3-.5,23.3.8,75.8-.3,98.3-11.8-1.1-24-.5-35.9-.6-.7-34,.3-68-.4-102h.1Z"/>
  <path class="st7" d="M808.3,393.7c10.5-1,27.3-.6,27.7,13.4,2,13.7,2.4,54.8-5.9,65.5-8,8-22,5-32,3-9.7-11.7-9.5-66.2-3.6-77.7,3.1-3.7,9.4-3.8,13.8-4.2Z"/>
  <path class="st37" d="M807.1,401.6c5.5-.4,11.3.2,16.9.3,9.1,5.9,8.8,22.1,3.7,30.5-2.8,4.2-25.4,3.3-28.9,1.2-6.2-6.3-4.2-32.9,8.3-32Z"/>
  <path class="st36" d="M804.7,406.5c19.8.5,24.5-2.3,20.3,20.6-3.2,6.5-18.6,3.3-24.5,2-.2-6.6-.3-13.4.4-19.9l3.8-2.8h0Z"/>
  <path class="st26" d="M812.4,460.2c4,0,5.1,4.7,2.1,7.1-4.5.6-3.9-4.5-2.1-7.1Z"/>
  <path class="st26" d="M821.6,460.4c2,0,3.4,0,5,1.3.4,1.7,0,2.9-.3,4.6-1.6.2-2.6.4-4.1-.4-.9-1.6-.7-3.7-.7-5.5h0Z"/>
  <path class="st26" d="M800.5,442.9c4.1-.6,6.3,1.2,5.4,5.4-4.3.4-6.3-.8-5.4-5.4Z"/>
  <path class="st26" d="M802.1,459.7c3.2.4,5.4,4.2,2.7,6.7-4.4-.2-5-3.6-2.7-6.7Z"/>
  <path class="st26" d="M813.7,442.6c3.6-.4,4.4,5.3.7,5.7-3.8.6-4.5-5.4-.7-5.7Z"/>
  <path class="st26" d="M802.2,451.3c3.3-.3,6.1,2.7,3.2,5.4-4.1.4-6.3-2.1-3.2-5.4Z"/>
  <path class="st41" d="M824.3,451.4c3.3.5,3.2,4,.4,5.3-.9,0-1.7-.3-2.5-.6-.8-1.1-.9-1.2-.9-2.6,1-1.5,1.4-1.5,3-2.1h0Z"/>
  <path class="st26" d="M811.9,451.5c2,0,3.4-.1,5,1.2.4,1.6,0,2.6-.6,4.1-2.9,0-5.2-2.3-4.4-5.3h0Z"/>
  <path class="st22" d="M459.8,624.7c13.7-3,43.2,8.9,43.1,24.1-6.6-1.1-12.8-10.7-19.6-12.6-6.7-2.7-27.6-10.1-31.8-1.7,2.2,6.2,21.7-3.2,36.9,11.8,3.8,3.6,15.7,15.4,4.9,16.9-7.2-10.5-14.9-16.9-28.2-18.5-3.2-.3-11.2-1.1-11.6,3.3,2.7,2.8,6.3,2.6,10,3.1,10.8,0,20.3,7.9,23.6,18-2.7,1-5.6,1.7-8.3,2.4-9.4-13.4-27-11.9-38.7-2.7-5.4,4.1-9.8,9.4-16.2,12-9.4,3.7-20.8,3.3-30.8,3.2,4-11.3,3-19.2,0-30.5,24.9-5.5,39.6-29.3,66.8-28.8h0Z"/>
  <path class="st32" d="M539.1,537c77.1,0,154.1.2,231.2,1,.2,4.3,0,8.7,0,13-77.1.5-154.2-1.2-231.3-1.4v-12.5h0Z"/>
  <path class="st32" d="M555.1,427.2l214.9-.3c.2,4.4.3,8.8.2,13.3h-15.3l-215.9-.2v-12.7h16.1q0,0,0,0h0Z"/>
  <path class="st23" d="M226.6,359.5c35.4-2.6,36.3,58,5.1,64.2-35.6,2.4-38.4-58.7-5.1-64.2Z"/>
  <path class="st9" d="M222.8,379.1c14.5-3.4,20.1,15.7,7.9,22.4-13.3,4.5-17.8-16.3-7.9-22.4Z"/>
  <path class="st30" d="M506.7,652.4c1.1-.9,1.3-1.1,2.7-1.2,35.5,3.4,72.9.2,107.7,6.5l-.3.6c-3.5-.7-5.7,2.3-8.6,3.9-7.3,3.7-15.6,6.5-22.5,10.8-4,2.4-7.6,7.2-12.2,8.5-4.2,1.2-80.3-3.2-90.2-4.8,4.2-2.3,7.2-3.5,12-3.8,1.1-1.2,1.8-2.4,3.4-2.9,5.2,3.3,12.7,2.5,15.5-3.5-2.6-2.7-10.7-.7-13.6,1l-.2-.3c.9-2.1,1.8-5,3.9-6.1,1.1.5,2.3,0,3.4-.3-1.9-2.6-2-5.5-1.2-8.5h.2,0Z"/>
  <path class="st9" d="M506.7,652.4c3.7,3.2,6.4,10.7-1.4,9,.9,0,1.7-.3,2.5-.5-1.9-2.6-2-5.5-1.2-8.5h.1Z"/>
  <path class="st37" d="M514.1,655.6c3.5.8,18.3.7,19.6,1.5.5,1.7,0,2.4-.3,4-5.9.3-14,1.2-19.6-.3-.5-1.7,0-3.6.3-5.3h0Z"/>
  <path class="st37" d="M549.1,669.2c2.3-.4,4.6,1.3,4.5,3.7-7.6,6.2-20-3.5-4.5-3.6h0Z"/>
  <path class="st37" d="M563,671c3.6-1.7,9.2-1.6,11.9,1.6-1,3.9-12.4,3.3-12.8-1.1l.9-.5h0Z"/>
  <path class="st37" d="M584.1,659c4.8-1.1,9.7,4.1,3.6,6.7-4.7,1.3-8.9-3.9-3.6-6.7Z"/>
  <path class="st37" d="M541.6,657.1c2.9-.9,6.6,1,5.3,4.4-1.8,2.8-9.8,2-9.3-1.8,1.1-1.4,2.4-1.9,4-2.6h0Z"/>
  <path class="st37" d="M556.6,658c3.1-.4,7,1.4,6.8,5-1.1.8-1,.6-2.3.4-5.3,1.4-12.1-1.1-4.5-5.4Z"/>
  <path class="st37" d="M531.2,665.5c3.8-1,5.9,4.3,2.3,6-5.6,1.5-8.9-4.5-2.3-6Z"/>
  <path class="st37" d="M524.6,666.9c1.3.3,1.9,1.4,2,2.6-1.7,3.6-7.8,3.8-9.4,0l.3-1c2.1-1.1,4.8-.8,7.1-1.6h0Z"/>
  <path class="st37" d="M568.9,659.5c2.3-.2,5.3,0,6,2.6-.4,1.2-.6,1.8-1.6,2.7-3.6.9-6.9-1.9-4.4-5.3Z"/>
  <path class="st5" d="M121.3,717.7c23.9.6,80.8-2.7,96,15.9,8.8,16.1-21.1,12-29.2,9.9-32.8-5.5-65.5-5.8-98.4-7.2-8.1-15.4,22-18.3,31.6-18.6h0Z"/>
  <path class="st30" d="M45.9,385.6c28.4,1.4,85-2.9,112.1,1.5-.4,8.3-17.2,4.3-22.8,4.9-17.3.5-58.9-.9-75.5.2-3.8-.1-5.8,2.8-5.4,6.3,1.7,37.3-3.7,94.1,2,129.7,2.2,2.5,31.3,1.2,36.9,1.5-.2,3.2-.7,6.5-1.1,9.7-15.6.5-31.3,0-47,.2-.6-49.6-.7-104.7.8-154.1h0Z"/>
  <path class="st20" d="M134.2,743.9c8.3,1.4,17,.9,25.3,2.8-4.6,35.8-13.8,72.7-5,108.5-38.6,8.1-19-89.6-20.2-111.3h-.1Z"/>
  <path class="st4" d="M796.1,483.3c3,.3,6,.9,9,1.3.7,27.2-1.2,86.8.6,113.1,8.7,1,17.3,1.2,26.1,1.2-.3,10.8-1,21.9.4,32.6-11.7,2.2-23.4,6-35.2,7.3.2-51.9-1.2-103.8-.8-155.6h0Z"/>
  <path class="st9" d="M877.7,641.7c5.8-1.1,26,1.9,33.4,2.5,9.5.9,19.3,0,28.6,2.8.8,4.6.8,9.4.9,14.1-26.2,8-51.4,2.8-78.3.6-4.9-1.3-20.9,1.7-20.2-5.8,1.2-1,1.7-.9,3.2-1.2-.7-.3-1.4-.5-2.1-.8-.7-1.1-.8-1-.5-2.2.6-.6,1.3-1.1,2-1.5-1.3-.7-2.6,0-3.9-.8,4.9-4.5,14.8-3.4,21-5.1,5.2-1.4,10.6-1.9,16-2.5h-.1Z"/>
  <path class="st30" d="M409.4,424.7c11.5-.8,19.6,12,18.4,22.5-6.8,10.1-27.9,10.3-23.9,25.9,3.7,8.7-1,11.9,2.8,22.6.2,1.5,1,3-.2,4.2-19.5-2.7-21.3-50.2-16.1-63.8,3.8-7.4,11.7-9.1,19-11.5h0Z"/>
  <path class="st37" d="M413,437.1c1.9,0,5-.4,6.5.9l-.2,1.1c-1,.6-2,.9-3.1,1.2-5.5,7.9-12.6,12.5-11.9,23.1-1.4.4-2.8,1-4.2,1.4-2.1-10.3,3.1-23.2,12.9-27.7h0Z"/>
  <path class="st30" d="M283.8,276.2c9.8-1.7,19.5.9,27.9,5.9-37.1-2-51.9,37.4-61.5,66.5l-4.1-5.3c-3.6-1.3-7.2-2.2-10.9-3.1,6-26.2,18-59.8,48.6-63.9h0Z"/>
  <path class="st22" d="M435,477.2c6.7-1,12.1,4.4,16.2,8.9,1.6,19.7,2.5,27.1-7.9,44.9-6.4-1.2-14.5.9-20-3.2-10-11,6.9-11.9,14.5-11.4,1.1-1.1,1.9-1.8,2.2-3.4-5.2-9.2-20.5,1-28.4-2-3.3-2.9,1.8-7.5,4-9.4,10.4-8.6,23.3-6.5,35.7-5.5-7.9-14.4-26-4.1-38-3.5-2.8-1.3-2.7-5.1-1-7.3,5.2-6.8,15-7.6,22.7-8.1h0Z"/>
  <path class="st22" d="M381.2,461.4c5.6,14.5.2,40.5,22.5,42.4-7.6,21.5,1.5,35.4,24.5,35.6-2.6,5.5-7.8,8.9-10.8,14.4-.7,1.5-1.5,3.1-3,3.9-9.9,2.5-21.9-8.2-26.7-16.1,1.1-4,2.5-7.9,3.8-11.8-8-12.6-7.8-26.7-9.7-40.9-2-8.4-11.4-21.2-.6-27.5h0Z"/>
  <path class="st20" d="M943,603.6c12.3,1.4,24.9.9,37.3,1.9,0,12.2,0,24.4-.3,36.6-10.3.5-26.5.7-36.6-1.7-.9-12.1-.4-24.6-.4-36.8Z"/>
  <path class="st11" d="M121.8,803.2c1-.2,1.5-.3,2.4,0-.3,15.2-.5,31.3,5.2,45.9-16.4-1.9-39.5-5-40.6-25.7-1.3-18.9,19.5-18.3,33.1-20.3h-.1Z"/>
  <path class="st20" d="M796.1,333c11.6,0,23.5-.4,35.1.4,1.3,19,.3,38,1.8,56.9-6-1.9-12.4-2.3-18.6-3-.3-13.3-1.6-26.7-2-40.1.3-11-7-10-15.3-8.5,0,7.7.8,34-.7,39.3l-.5.2c-1.6-4-.3-38.8.3-45.2h0Z"/>
  <path class="st28" d="M883.1,602.2c11.4-.3,22.8.3,34.2.4.2,12,.3,23.9,0,35.9-11.2,0-23.1-1.1-34.2-2.6,0-11.2-.5-22.4,0-33.7h0Z"/>
  <path class="st12" d="M883.1,602.2c11.4-.3,22.8.3,34.2.4,0,4.6.3,9.3,0,13.9-11.2.2-23.2-.7-34.6-1.7,0-4.2,0-8.4.3-12.6h0Z"/>
  <path class="st28" d="M838.5,600c12.8,0,25.5.6,38.2,1.1,0,9.9.6,19.9-.3,29.8l-.3.3c-7.3,1.9-28.5-1.3-37.6-1.4v-29.9h0Z"/>
  <path class="st30" d="M978,425.9c1.6,0,3.2-.2,4.5.8,1.8,51.9.4,120,0,171.9-1.5,0-2.7-.4-4.1-.8-3.1-55.4,0-115.8-.3-171.9h0Z"/>
  <path class="st20" d="M192.4,861.4c11.1,1.7,22.3,1.2,33.5,2.7.3,3.6,2.1,15.3,0,18.2-12.1,3-18.9-.2-30.5-.4-.6-6.8-2.1-13.8-3-20.5Z"/>
  <path class="st40" d="M245.8,969.1c16.8,3.4,14.9,27-3.2,25.9-18.2-.8-18.4-24.1,3.2-25.9Z"/>
  <path class="st40" d="M90.3,957.3c5.1,1.1,7.4,3.4,12.8,2,18,7.5-4.9,41.2-19.5,14.6-.5-6.7,1-12.7,6.7-16.7h0Z"/>
  <path class="st30" d="M254.7,357.4c20.7,12.3,18,65.9-8.1,68.9-.5-1.1-.5-1,0-2,6.2-7,11.5-15.1,12.9-24.6,4.6-16.6-5.9-27.7-4.8-42.3Z"/>
  <path class="st29" d="M370.8,652.1c15-2.5,18.5,6.9,18,20,.3,11.1-7.8,18.4-18.6,18.8,4.5-17.1,3.8-21.9.5-38.8h.1Z"/>
  <path class="st39" d="M118.8,743.2c3.2,0,6.2,0,9.4.5-1.6,11-.8,44.5-3.3,51.6-5.9-4.8-14.9-50.3-6-52.1h0Z"/>
  <path class="st38" d="M99,743.5h11.3c-2.8,18.1,1.8,36.3,6.4,53.7-1.5,0-2.7.2-4.2,0-8.8-16.4-12.2-35.3-13.5-53.8h0Z"/>
  <path class="st22" d="M924.6,602.6c4,.3,8.1.3,12.1.4-.5,11.8.4,23.8-.4,35.6l-12.3-1.2.6-34.8h0Z"/>
  <path class="st28" d="M567.9,964.1c10.1-.2,19,2,28.8,3.7.2,3.6.6,7.6-.7,11.1-7,3.3-20.2,1.3-27.9.2,0,0-.2-14.9-.2-15h0Z"/>
  <path class="st9" d="M661.2,665.2c9.1-.5,18.5.2,27.6,0-9.6,2.1-19,5.4-25.2,13.4-2.5,2.3-6.3,9-9.5,9.6-3.9.6-6.8-3.2-7.4-6.7-2.2-8.9,6.5-15.4,14.5-16.4h0Z"/>
  <path class="st23" d="M695,300.7c13.7-.7,27.8-.1,41.6-.2,0,2.5.6,6.2-.4,8.5-14.3-.7-28.6.3-42.9-.3,0-2.4-1.7-7.6,1.8-8h0Z"/>
  <path class="st22" d="M426.8,460.7c12.1-.5,14.3,5.2,21.5,12.9v1c-.9.5-2.4-.6-3.3-1.1-4.3-2.2-8.1-2.8-12.8-3.2-8-.6-14.1,3.8-20,3-3.3-1.5-2.1-6-.1-8.2,3.2-3.5,10.2-4.2,14.7-4.4h0Z"/>
  <path class="st28" d="M752.6,978.6c5.8-.4,11.5.6,17.3.2,0,5.5.2,11.1,0,16.6-13.9.8-20.7-1.2-17.3-16.8Z"/>
  <path class="st9" d="M616.5,664.6c.7,0,1.5,0,2.2.2,8.5,12.2-31.4,17.2-39,19.4v-.6c7.1-6.1,27.9-16.3,36.8-19h0Z"/>
  <path class="st29" d="M801.8,343.1c1.6,0,2.9-.1,4.5.3,3.1,4.3,2.1,28.9,1.1,32.6h-6.1c0-6.9-1.5-27.3.5-32.9Z"/>
  <path class="st35" d="M699.2,665.9c10.3,0,20.6.3,30.9,1-4.7,7.6-15,7.6-23,8.7-1.9-4.7-3.7-7-7.9-9.7Z"/>
  <path class="st9" d="M458.6,667.6c6.8-.4,12.3,3.1,16.2,8.4-11,0-21.9-1.1-32.9-1.5,5.3-3.4,10.8-5,16.7-6.9h0Z"/>
  <path class="st39" d="M166.1,747.4c8.1,1.4,16.3,1.1,24.1,4.3-8.4,2.8-17.6,4.2-25.4,8.5.5-4.3,1.1-8.5,1.3-12.8h0Z"/>
  <path class="st23" d="M232.8,346.8c7.5.6,21,1.7,14.8,12.4-5.4-2.3-10.1-5.1-16.2-5.7.9-2.2,1.1-4.4,1.4-6.7h0Z"/>
  <path class="st23" d="M798.7,380.2c3.9-.3,7.9,0,11.8.1l.3,7.2c-4.1.3-8.1.5-12.2.6-.2-2.7,0-5.2.2-7.8h0Z"/>
  <path class="st9" d="M443.6,599.9c3.2,0,7.7-1.1,9.5,2.3-.2,2.1-1.6,3.5-3.2,4.8-3.4-1.1-11.4,0-10.3-5.5,1-1.2,2.5-1.3,4-1.6Z"/>
  <path class="st9" d="M434.4,543.5c4.6,0,11.2,1.7,11.6,7.2-4.3,0-13.6-1-11.6-7.2Z"/>
  <path class="st24" d="M308.5,632.4c2.7,1.5,5.8,5.4,6.3,8.5-3.3.3-6.6,0-9.8-.2,1-2.9,2.2-5.6,3.5-8.3Z"/>
  <path class="st20" d="M490.2,393.8c-.6,9.7-30.7,4.1-38.5,5.2-54.6,1-37.2,6.1-39.6-59.6.5-6.7-2.4-23.7,1.2-28.2,10-1,73.4-5.4,76.7,2.6.5,17.4-1.1,63.4.2,80Z"/>
  <path class="st25" d="M418.5,317.3c21.4.8,43,.1,64.5,0v74.2c-21.3-.7-42.9,0-64.4,0v-74.2h-.1Z"/>
  <path class="st1" d="M432.1,331.1c5.3-.2,34.9-1.4,37.5.9.8,1.7.5,3.3.4,5.1-4.1.5-35.1.7-37.4-.8-.8-1.7-.6-3.4-.4-5.2h-.1Z"/>
  <path class="st1" d="M433.4,349.7c5.3.9,28.7-2.6,29.6,2.3,0,1.9-.8,3.5-3,3.2-3.5-.4-39.1,3.5-26.7-5.5h.1Z"/>
  <path class="st1" d="M432.8,371.1c6.4.2,17.7-2.7,22.2,2.8-.1,1.3-.4,2-1.1,3.1-4.9-.5-21.5,2.9-23.2-2.9.6-1.3,1.1-2,2.2-3h-.1Z"/>
  <g class="st18">
    <text class="st19" transform="translate(563.1 374.6)"><tspan x="0" y="0">14.270.00</tspan></text>
  </g>
  <g>
    <path d="M803.5,418.2v-.9l.7-.7v1.7l-.2.3-.4-.4ZM804.2,419.1v1.7l-.7-.7v-.9l.4-.4.2.2Z"/>
    <path d="M805.2,418.4v-1.7l.7.7v.9l-.4.4-.2-.3ZM807.3,418.4l.3.3-.3.3h-1.4l-.3-.3.3-.3h1.4ZM807.4,418.2v-.9l.7-.7v1.7l-.2.3-.4-.4ZM808,419.1v1.7l-.7-.7v-.9l.4-.4.2.2Z"/>
    <path d="M808.8,418.4v-1.7l.7.7v.9l-.4.4-.2-.3ZM809.4,419.3v.9l-.7.7v-1.7l.2-.2.4.4ZM811.5,416.5l-.7.7h-1.2l-.7-.7h2.6ZM811.5,421h-2.6l.7-.7h1.2l.7.7ZM810.9,418.4l.3.3-.3.3h-1.4l-.3-.3.3-.3h1.4ZM811.6,419.1v1.7l-.7-.7v-.9l.4-.4.2.2Z"/>
    <path d="M812.3,421v-.7h.7v.7h-.7Z"/>
    <path d="M813.6,418.4v-1.7l.7.7v.9l-.4.4-.2-.3ZM816.3,416.5l-.7.7h-1.2l-.7-.7h2.6ZM816.3,421h-2.6l.7-.7h1.2l.7.7ZM815.7,418.4l.3.3-.3.3h-1.4l-.3-.3.3-.3h1.4ZM816.4,419.1v1.7l-.7-.7v-.9l.4-.4.2.2Z"/>
    <path d="M817.8,419.3v.9l-.7.7v-1.7l.2-.2.4.4ZM819.9,416.5l-.7.7h-1.2l-.7-.7h2.6ZM819.9,421h-2.6l.7-.7h1.2l.7.7ZM819.3,418.4l.3.3-.3.3h-1.4l-.3-.3.3-.3h1.4ZM819.3,418.2v-.9l.7-.7v1.7l-.2.3-.4-.4Z"/>
    <path d="M820.7,418.4v-1.7l.7.7v.9l-.4.4-.2-.3ZM821.4,419.3v.9l-.7.7v-1.7l.2-.2.4.4ZM823.4,416.5l-.7.7h-1.2l-.7-.7h2.6ZM823.4,421h-2.6l.7-.7h1.2l.7.7ZM822.9,418.2v-.9l.7-.7v1.7l-.2.3-.4-.4ZM823.6,419.1v1.7l-.7-.7v-.9l.4-.4.2.2Z"/>
  </g>
</svg>